<?xml version="1.0" encoding="UTF-8" standalone="no"?>
<!DOCTYPE svg PUBLIC "-//W3C//DTD SVG 1.1//EN"
 "http://www.w3.org/Graphics/SVG/1.1/DTD/svg11.dtd">
<!-- Generated by graphviz version 7.1.0 (0)
 -->
<!-- Title: schedule Pages: 1 -->
<svg width="3076pt" height="1915pt"
 viewBox="0.00 0.00 3076.00 1915.00" xmlns="http://www.w3.org/2000/svg" xmlns:xlink="http://www.w3.org/1999/xlink">
<g id="graph0" class="graph" transform="scale(1 1) rotate(0) translate(4 1911)">
<title>schedule</title>
<polygon fill="white" stroke="none" points="-4,4 -4,-1911 3072,-1911 3072,4 -4,4"/>
<g id="clust1" class="cluster">
<title>clusternode_Set(1)</title>
<polygon fill="white" stroke="black" points="670.5,-761 670.5,-854 847.5,-854 847.5,-761 670.5,-761"/>
<text text-anchor="middle" x="759" y="-838.8" font-family="Helvetica,sans-Serif" font-size="14.00">PrepareFlush</text>
</g>
<g id="clust2" class="cluster">
<title>clusternode_Set(2)</title>
<polygon fill="white" stroke="black" points="1334,-710 1334,-803 1511,-803 1511,-710 1334,-710"/>
<text text-anchor="middle" x="1422.5" y="-787.8" font-family="Helvetica,sans-Serif" font-size="14.00">QueueFlush</text>
</g>
<g id="clust3" class="cluster">
<title>clusternode_Set(3)</title>
<polygon fill="white" stroke="black" points="1918.5,-285 1918.5,-378 2095.5,-378 2095.5,-285 1918.5,-285"/>
<text text-anchor="middle" x="2007" y="-362.8" font-family="Helvetica,sans-Serif" font-size="14.00">PhaseSortFlush</text>
</g>
<g id="clust4" class="cluster">
<title>clusternode_Set(4)</title>
<polygon fill="white" stroke="black" points="2432,-238 2432,-331 2609,-331 2609,-238 2432,-238"/>
<text text-anchor="middle" x="2520.5" y="-315.8" font-family="Helvetica,sans-Serif" font-size="14.00">RenderFlush</text>
</g>
<g id="clust5" class="cluster">
<title>clusternode_Set(5)</title>
<polygon fill="white" stroke="black" points="2883,-238 2883,-331 3060,-331 3060,-238 2883,-238"/>
<text text-anchor="middle" x="2971.5" y="-315.8" font-family="Helvetica,sans-Serif" font-size="14.00">CleanupFlush</text>
</g>
<g id="clust6" class="cluster">
<title>clusternode_Set(6)</title>
<polygon fill="white" stroke="black" points="8,-1400 8,-1493 212,-1493 212,-1400 8,-1400"/>
<text text-anchor="middle" x="110" y="-1477.8" font-family="Helvetica,sans-Serif" font-size="14.00">ExtractCommands</text>
</g>
<g id="clust7" class="cluster">
<title>clusternode_Set(7)</title>
<polygon fill="white" stroke="black" points="232,-914 232,-1899 1224.5,-1899 1224.5,-914 232,-914"/>
<text text-anchor="middle" x="728.25" y="-1883.8" font-family="Helvetica,sans-Serif" font-size="14.00">Prepare</text>
</g>
<g id="clust8" class="cluster">
<title>clusternode_Set(16)</title>
<polygon fill="white" stroke="black" points="336,-1775 336,-1868 489,-1868 489,-1775 336,-1775"/>
<text text-anchor="middle" x="412.5" y="-1852.8" font-family="Helvetica,sans-Serif" font-size="14.00">Prepare</text>
</g>
<g id="clust9" class="cluster">
<title>clusternode_Set(18)</title>
<polygon fill="white" stroke="black" points="1022.5,-1425 1022.5,-1518 1216.5,-1518 1216.5,-1425 1022.5,-1425"/>
<text text-anchor="middle" x="1119.5" y="-1502.8" font-family="Helvetica,sans-Serif" font-size="14.00">PrepareUniforms</text>
</g>
<g id="clust10" class="cluster">
<title>clusternode_Set(21)</title>
<polygon fill="white" stroke="black" points="318,-1674 318,-1767 507,-1767 507,-1674 318,-1674"/>
<text text-anchor="middle" x="412.5" y="-1751.8" font-family="Helvetica,sans-Serif" font-size="14.00">PreAssetPrepare</text>
</g>
<g id="clust11" class="cluster">
<title>clusternode_Set(22)</title>
<polygon fill="white" stroke="black" points="667.5,-1617 667.5,-1710 850.5,-1710 850.5,-1617 667.5,-1617"/>
<text text-anchor="middle" x="759" y="-1694.8" font-family="Helvetica,sans-Serif" font-size="14.00">AssetPrepare</text>
</g>
<g id="clust12" class="cluster">
<title>clusternode_Set(23)</title>
<polygon fill="white" stroke="black" points="1052.5,-1671 1052.5,-1710 1186.5,-1710 1186.5,-1671 1052.5,-1671"/>
<text text-anchor="middle" x="1119.5" y="-1694.8" font-family="Helvetica,sans-Serif" font-size="14.00">PostAssetPrepare</text>
</g>
<g id="clust13" class="cluster">
<title>clusternode_Set(61)</title>
<polygon fill="white" stroke="black" points="355.5,-1573 355.5,-1666 469.5,-1666 469.5,-1573 355.5,-1573"/>
<text text-anchor="middle" x="412.5" y="-1650.8" font-family="Helvetica,sans-Serif" font-size="14.00">PrepareFog</text>
</g>
<g id="clust14" class="cluster">
<title>clusternode_Set(62)</title>
<polygon fill="white" stroke="black" points="348,-1472 348,-1565 477,-1565 477,-1472 348,-1472"/>
<text text-anchor="middle" x="412.5" y="-1549.8" font-family="Helvetica,sans-Serif" font-size="14.00">PrepareLights</text>
</g>
<g id="clust15" class="cluster">
<title>clusternode_Set(63)</title>
<polygon fill="white" stroke="black" points="687,-1516 687,-1609 831,-1609 831,-1516 687,-1516"/>
<text text-anchor="middle" x="759" y="-1593.8" font-family="Helvetica,sans-Serif" font-size="14.00">PrepareClusters</text>
</g>
<g id="clust16" class="cluster">
<title>clusternode_Set(8)</title>
<polygon fill="white" stroke="black" points="925,-8 925,-906 1314,-906 1314,-8 925,-8"/>
<text text-anchor="middle" x="1119.5" y="-890.8" font-family="Helvetica,sans-Serif" font-size="14.00">Queue</text>
</g>
<g id="clust17" class="cluster">
<title>clusternode_Set(64)</title>
<polygon fill="white" stroke="black" points="1050.5,-782 1050.5,-875 1188.5,-875 1188.5,-782 1050.5,-782"/>
<text text-anchor="middle" x="1119.5" y="-859.8" font-family="Helvetica,sans-Serif" font-size="14.00">QueueShadows</text>
</g>
<g id="clust18" class="cluster">
<title>clusternode_Set(9)</title>
<polygon fill="white" stroke="black" points="1531,-386 1531,-857 2148,-857 2148,-386 1531,-386"/>
<text text-anchor="middle" x="1839.5" y="-841.8" font-family="Helvetica,sans-Serif" font-size="14.00">PhaseSort</text>
</g>
<g id="clust19" class="cluster">
<title>clusternode_Set(10)</title>
<polygon fill="white" stroke="black" points="2168,-339 2168,-432 2586.5,-432 2586.5,-339 2168,-339"/>
<text text-anchor="middle" x="2377.25" y="-416.8" font-family="Helvetica,sans-Serif" font-size="14.00">Render</text>
</g>
<g id="clust20" class="cluster">
<title>clusternode_Set(11)</title>
<polygon fill="white" stroke="black" points="2629,-184 2629,-331 2863,-331 2863,-184 2629,-184"/>
<text text-anchor="middle" x="2746" y="-315.8" font-family="Helvetica,sans-Serif" font-size="14.00">Cleanup</text>
</g>
<!-- set_marker_node_Set(1) -->
<!-- set_marker_node_Set(8) -->
<!-- set_marker_node_Set(1)&#45;&gt;set_marker_node_Set(8) -->
<g id="edge3" class="edge">
<title>set_marker_node_Set(1)&#45;&gt;set_marker_node_Set(8)</title>
<path fill="none" stroke="black" d="M847.5,-828.15C864.65,-826.2 881.96,-821.98 897,-814 910.85,-806.65 909.22,-794.63 916.13,-785.31"/>
<polygon fill="black" stroke="black" points="918.34,-788.02 923.83,-778.96 913.89,-782.62 918.34,-788.02"/>
</g>
<!-- node_System(0) -->
<g id="node2" class="node">
<title>node_System(0)</title>
<polygon fill="white" stroke="black" points="839.5,-805 678.5,-805 678.5,-769 839.5,-769 839.5,-805"/>
<text text-anchor="middle" x="759" y="-783.3" font-family="Times,serif" font-size="14.00">apply_system_buffers</text>
</g>
<!-- set_marker_node_Set(2) -->
<!-- set_marker_node_Set(9) -->
<!-- set_marker_node_Set(2)&#45;&gt;set_marker_node_Set(9) -->
<g id="edge5" class="edge">
<title>set_marker_node_Set(2)&#45;&gt;set_marker_node_Set(9)</title>
<path fill="none" stroke="black" d="M1511,-772C1513.85,-772 1516.73,-772 1519.64,-772"/>
<polygon fill="black" stroke="black" points="1519.49,-775.5 1529.49,-772 1519.49,-768.5 1519.49,-775.5"/>
</g>
<!-- node_System(1) -->
<g id="node4" class="node">
<title>node_System(1)</title>
<polygon fill="white" stroke="black" points="1503,-754 1342,-754 1342,-718 1503,-718 1503,-754"/>
<text text-anchor="middle" x="1422.5" y="-732.3" font-family="Times,serif" font-size="14.00">apply_system_buffers</text>
</g>
<!-- set_marker_node_Set(3) -->
<!-- set_marker_node_Set(10) -->
<!-- set_marker_node_Set(3)&#45;&gt;set_marker_node_Set(10) -->
<g id="edge7" class="edge">
<title>set_marker_node_Set(3)&#45;&gt;set_marker_node_Set(10)</title>
<path fill="none" stroke="black" d="M2095.5,-347C2114.87,-347 2135.81,-347 2156.53,-347"/>
<polygon fill="black" stroke="black" points="2156.49,-350.5 2166.49,-347 2156.49,-343.5 2156.49,-350.5"/>
</g>
<!-- node_System(2) -->
<g id="node6" class="node">
<title>node_System(2)</title>
<polygon fill="white" stroke="black" points="2087.5,-329 1926.5,-329 1926.5,-293 2087.5,-293 2087.5,-329"/>
<text text-anchor="middle" x="2007" y="-307.3" font-family="Times,serif" font-size="14.00">apply_system_buffers</text>
</g>
<!-- set_marker_node_Set(4) -->
<!-- set_marker_node_Set(11) -->
<!-- set_marker_node_Set(4)&#45;&gt;set_marker_node_Set(11) -->
<g id="edge9" class="edge">
<title>set_marker_node_Set(4)&#45;&gt;set_marker_node_Set(11)</title>
<path fill="none" stroke="black" d="M2609,-300C2611.85,-300 2614.73,-300 2617.62,-300"/>
<polygon fill="black" stroke="black" points="2617.49,-303.5 2627.49,-300 2617.49,-296.5 2617.49,-303.5"/>
</g>
<!-- node_System(3) -->
<g id="node8" class="node">
<title>node_System(3)</title>
<polygon fill="white" stroke="black" points="2601,-282 2440,-282 2440,-246 2601,-246 2601,-282"/>
<text text-anchor="middle" x="2520.5" y="-260.3" font-family="Times,serif" font-size="14.00">apply_system_buffers</text>
</g>
<!-- set_marker_node_Set(5) -->
<!-- node_System(4) -->
<g id="node10" class="node">
<title>node_System(4)</title>
<polygon fill="white" stroke="black" points="3052,-282 2891,-282 2891,-246 3052,-246 3052,-282"/>
<text text-anchor="middle" x="2971.5" y="-260.3" font-family="Times,serif" font-size="14.00">apply_system_buffers</text>
</g>
<!-- set_marker_node_Set(6) -->
<!-- set_marker_node_Set(7) -->
<!-- set_marker_node_Set(6)&#45;&gt;set_marker_node_Set(7) -->
<g id="edge1" class="edge">
<title>set_marker_node_Set(6)&#45;&gt;set_marker_node_Set(7)</title>
<path fill="none" stroke="black" d="M212,-1462C214.85,-1462 217.73,-1462 220.64,-1462"/>
<polygon fill="black" stroke="black" points="220.49,-1465.5 230.49,-1462 220.49,-1458.5 220.49,-1465.5"/>
</g>
<!-- node_System(5) -->
<g id="node12" class="node">
<title>node_System(5)</title>
<polygon fill="white" stroke="black" points="204,-1444 16,-1444 16,-1408 204,-1408 204,-1444"/>
<text text-anchor="middle" x="110" y="-1422.3" font-family="Times,serif" font-size="14.00">apply_extract_commands</text>
</g>
<!-- set_marker_node_Set(7)&#45;&gt;set_marker_node_Set(1) -->
<g id="edge2" class="edge">
<title>set_marker_node_Set(7)&#45;&gt;set_marker_node_Set(1)</title>
<path fill="none" stroke="black" d="M618.77,-914C619.49,-912.63 620.23,-911.3 621,-910 633.28,-889.31 652.61,-872.74 672.93,-859.85"/>
<polygon fill="black" stroke="black" points="674.57,-862.94 681.33,-854.78 670.96,-856.95 674.57,-862.94"/>
</g>
<!-- set_marker_node_Set(16) -->
<!-- node_System(11) -->
<g id="node29" class="node">
<title>node_System(11)</title>
<polygon fill="white" stroke="black" points="840,-1862 678,-1862 678,-1826 840,-1826 840,-1862"/>
<text text-anchor="middle" x="759" y="-1840.3" font-family="Times,serif" font-size="14.00">prepare_view_targets</text>
</g>
<!-- set_marker_node_Set(16)&#45;&gt;node_System(11) -->
<g id="edge12" class="edge">
<title>set_marker_node_Set(16)&#45;&gt;node_System(11)</title>
<path fill="none" stroke="black" d="M489,-1838.53C541.24,-1839.6 611.04,-1841.01 666.46,-1842.14"/>
<polygon fill="black" stroke="black" points="666.31,-1845.64 676.38,-1842.34 666.45,-1838.64 666.31,-1845.64"/>
</g>
<!-- node_System(9) -->
<g id="node15" class="node">
<title>node_System(9)</title>
<polygon fill="white" stroke="black" points="481,-1819 344,-1819 344,-1783 481,-1783 481,-1819"/>
<text text-anchor="middle" x="412.5" y="-1797.3" font-family="Times,serif" font-size="14.00">prepare_windows</text>
</g>
<!-- set_marker_node_Set(18) -->
<!-- node_System(10) -->
<g id="node17" class="node">
<title>node_System(10)</title>
<polygon fill="white" stroke="black" points="1208.5,-1469 1030.5,-1469 1030.5,-1433 1208.5,-1433 1208.5,-1469"/>
<text text-anchor="middle" x="1119.5" y="-1447.3" font-family="Times,serif" font-size="14.00">prepare_view_uniforms</text>
</g>
<!-- set_marker_node_Set(21) -->
<!-- set_marker_node_Set(22) -->
<!-- set_marker_node_Set(21)&#45;&gt;set_marker_node_Set(22) -->
<g id="edge13" class="edge">
<title>set_marker_node_Set(21)&#45;&gt;set_marker_node_Set(22)</title>
<path fill="none" stroke="black" d="M507,-1744.81C533.38,-1743.73 561.32,-1738.99 585,-1727 607.54,-1715.59 598.33,-1694.15 621,-1683 628.19,-1679.46 641.08,-1677.51 656.17,-1676.55"/>
<polygon fill="black" stroke="black" points="656.16,-1680.06 665.99,-1676.09 655.84,-1673.07 656.16,-1680.06"/>
</g>
<!-- node_System(31) -->
<g id="node36" class="node">
<title>node_System(31)</title>
<polygon fill="white" stroke="black" points="895.5,-1754 622.5,-1754 622.5,-1718 895.5,-1718 895.5,-1754"/>
<text text-anchor="middle" x="759" y="-1732.3" font-family="Times,serif" font-size="14.00">prepare_materials_2d&lt;ColorMaterial&gt;</text>
</g>
<!-- set_marker_node_Set(21)&#45;&gt;node_System(31) -->
<g id="edge16" class="edge">
<title>set_marker_node_Set(21)&#45;&gt;node_System(31)</title>
<path fill="none" stroke="black" d="M507,-1736C538.93,-1736 575.46,-1736 610.59,-1736"/>
<polygon fill="black" stroke="black" points="610.56,-1739.5 620.56,-1736 610.56,-1732.5 610.56,-1739.5"/>
</g>
<!-- node_System(41) -->
<g id="node40" class="node">
<title>node_System(41)</title>
<polygon fill="white" stroke="black" points="897,-1808 621,-1808 621,-1772 897,-1772 897,-1808"/>
<text text-anchor="middle" x="759" y="-1786.3" font-family="Times,serif" font-size="14.00">prepare_materials&lt;StandardMaterial&gt;</text>
</g>
<!-- set_marker_node_Set(21)&#45;&gt;node_System(41) -->
<g id="edge17" class="edge">
<title>set_marker_node_Set(21)&#45;&gt;node_System(41)</title>
<path fill="none" stroke="black" d="M507,-1750.66C544.45,-1756.53 588.23,-1763.39 628.65,-1769.72"/>
<polygon fill="black" stroke="black" points="628.09,-1773.18 638.51,-1771.27 629.17,-1766.26 628.09,-1773.18"/>
</g>
<!-- node_System(14) -->
<g id="node19" class="node">
<title>node_System(14)</title>
<polygon fill="white" stroke="black" points="499,-1718 326,-1718 326,-1682 499,-1682 499,-1718"/>
<text text-anchor="middle" x="412.5" y="-1696.3" font-family="Times,serif" font-size="14.00">prepare_assets&lt;Image&gt;</text>
</g>
<!-- set_marker_node_Set(23) -->
<!-- set_marker_node_Set(22)&#45;&gt;set_marker_node_Set(23) -->
<g id="edge14" class="edge">
<title>set_marker_node_Set(22)&#45;&gt;set_marker_node_Set(23)</title>
<path fill="none" stroke="black" d="M850.5,-1679C909.28,-1679 985.1,-1679 1041.08,-1679"/>
<polygon fill="black" stroke="black" points="1040.99,-1682.5 1050.99,-1679 1040.99,-1675.5 1040.99,-1682.5"/>
</g>
<!-- node_System(12) -->
<g id="node21" class="node">
<title>node_System(12)</title>
<polygon fill="white" stroke="black" points="842.5,-1661 675.5,-1661 675.5,-1625 842.5,-1625 842.5,-1661"/>
<text text-anchor="middle" x="759" y="-1639.3" font-family="Times,serif" font-size="14.00">prepare_assets&lt;Mesh&gt;</text>
</g>
<!-- set_marker_node_Set(61) -->
<!-- node_System(48) -->
<g id="node24" class="node">
<title>node_System(48)</title>
<polygon fill="white" stroke="black" points="461.5,-1617 363.5,-1617 363.5,-1581 461.5,-1581 461.5,-1617"/>
<text text-anchor="middle" x="412.5" y="-1595.3" font-family="Times,serif" font-size="14.00">prepare_fog</text>
</g>
<!-- set_marker_node_Set(62) -->
<!-- node_System(50) -->
<g id="node42" class="node">
<title>node_System(50)</title>
<polygon fill="white" stroke="black" points="839.5,-1486 678.5,-1486 678.5,-1450 839.5,-1450 839.5,-1486"/>
<text text-anchor="middle" x="759" y="-1464.3" font-family="Times,serif" font-size="14.00">apply_system_buffers</text>
</g>
<!-- set_marker_node_Set(62)&#45;&gt;node_System(50) -->
<g id="edge19" class="edge">
<title>set_marker_node_Set(62)&#45;&gt;node_System(50)</title>
<path fill="none" stroke="black" d="M477,-1478.87C509.34,-1478.2 549.27,-1477.24 585,-1476 611.69,-1475.07 640.68,-1473.82 667.16,-1472.59"/>
<polygon fill="black" stroke="black" points="667.01,-1476.1 676.84,-1472.14 666.68,-1469.11 667.01,-1476.1"/>
</g>
<!-- node_System(49) -->
<g id="node26" class="node">
<title>node_System(49)</title>
<polygon fill="white" stroke="black" points="469,-1534 356,-1534 356,-1498 469,-1498 469,-1534"/>
<text text-anchor="middle" x="412.5" y="-1512.3" font-family="Times,serif" font-size="14.00">prepare_lights</text>
</g>
<!-- node_System(49)&#45;&gt;set_marker_node_Set(18) -->
<g id="edge18" class="edge">
<title>node_System(49)&#45;&gt;set_marker_node_Set(18)</title>
<path fill="none" stroke="black" d="M469.36,-1514.61C559.4,-1512.28 742.21,-1507.1 897,-1500 934.29,-1498.29 975.08,-1496.01 1011.39,-1493.84"/>
<polygon fill="black" stroke="black" points="1011.22,-1497.36 1020.99,-1493.26 1010.8,-1490.37 1011.22,-1497.36"/>
</g>
<!-- node_System(51) -->
<g id="node28" class="node">
<title>node_System(51)</title>
<polygon fill="white" stroke="black" points="823,-1560 695,-1560 695,-1524 823,-1524 823,-1560"/>
<text text-anchor="middle" x="759" y="-1538.3" font-family="Times,serif" font-size="14.00">prepare_clusters</text>
</g>
<!-- node_System(49)&#45;&gt;node_System(51) -->
<g id="edge21" class="edge">
<title>node_System(49)&#45;&gt;node_System(51)</title>
<path fill="none" stroke="black" d="M469.23,-1520.21C527.44,-1524.6 619.06,-1531.51 683.46,-1536.37"/>
<polygon fill="black" stroke="black" points="683,-1539.85 693.24,-1537.11 683.53,-1532.87 683,-1539.85"/>
</g>
<!-- set_marker_node_Set(63) -->
<!-- node_System(13) -->
<g id="node30" class="node">
<title>node_System(13)</title>
<polygon fill="white" stroke="black" points="498.5,-1444 326.5,-1444 326.5,-1408 498.5,-1408 498.5,-1444"/>
<text text-anchor="middle" x="412.5" y="-1422.3" font-family="Times,serif" font-size="14.00">prepare_globals_buffer</text>
</g>
<!-- node_System(18) -->
<g id="node31" class="node">
<title>node_System(18)</title>
<polygon fill="white" stroke="black" points="530.5,-1390 294.5,-1390 294.5,-1354 530.5,-1354 530.5,-1390"/>
<text text-anchor="middle" x="412.5" y="-1368.3" font-family="Times,serif" font-size="14.00">prepare_core_3d_depth_textures</text>
</g>
<!-- node_System(24) -->
<g id="node32" class="node">
<title>node_System(24)</title>
<polygon fill="white" stroke="black" points="581,-1336 244,-1336 244,-1300 581,-1300 581,-1336"/>
<text text-anchor="middle" x="412.5" y="-1314.3" font-family="Times,serif" font-size="14.00">prepare_uniform_components&lt;BloomUniform&gt;</text>
</g>
<!-- node_System(25) -->
<g id="node33" class="node">
<title>node_System(25)</title>
<polygon fill="white" stroke="black" points="503.5,-1282 321.5,-1282 321.5,-1246 503.5,-1246 503.5,-1282"/>
<text text-anchor="middle" x="412.5" y="-1260.3" font-family="Times,serif" font-size="14.00">prepare_bloom_textures</text>
</g>
<!-- node_System(27) -->
<g id="node34" class="node">
<title>node_System(27)</title>
<polygon fill="white" stroke="black" points="499,-1228 326,-1228 326,-1192 499,-1192 499,-1228"/>
<text text-anchor="middle" x="412.5" y="-1206.3" font-family="Times,serif" font-size="14.00">prepare_fxaa_pipelines</text>
</g>
<!-- node_System(28) -->
<g id="node35" class="node">
<title>node_System(28)</title>
<polygon fill="white" stroke="black" points="585,-1174 240,-1174 240,-1138 585,-1138 585,-1174"/>
<text text-anchor="middle" x="412.5" y="-1152.3" font-family="Times,serif" font-size="14.00">prepare_uniform_components&lt;Mesh2dUniform&gt;</text>
</g>
<!-- node_System(34) -->
<g id="node37" class="node">
<title>node_System(34)</title>
<polygon fill="white" stroke="black" points="477,-1120 348,-1120 348,-1084 477,-1084 477,-1120"/>
<text text-anchor="middle" x="412.5" y="-1098.3" font-family="Times,serif" font-size="14.00">prepare_uinodes</text>
</g>
<!-- node_System(37) -->
<g id="node38" class="node">
<title>node_System(37)</title>
<polygon fill="white" stroke="black" points="577,-1066 248,-1066 248,-1030 577,-1030 577,-1066"/>
<text text-anchor="middle" x="412.5" y="-1044.3" font-family="Times,serif" font-size="14.00">prepare_uniform_components&lt;MeshUniform&gt;</text>
</g>
<!-- node_System(38) -->
<g id="node39" class="node">
<title>node_System(38)</title>
<polygon fill="white" stroke="black" points="505,-1012 320,-1012 320,-976 505,-976 505,-1012"/>
<text text-anchor="middle" x="412.5" y="-990.3" font-family="Times,serif" font-size="14.00">prepare_skinned_meshes</text>
</g>
<!-- node_System(43) -->
<g id="node41" class="node">
<title>node_System(43)</title>
<polygon fill="white" stroke="black" points="507.5,-958 317.5,-958 317.5,-922 507.5,-922 507.5,-958"/>
<text text-anchor="middle" x="412.5" y="-936.3" font-family="Times,serif" font-size="14.00">prepare_prepass_textures</text>
</g>
<!-- node_System(50)&#45;&gt;set_marker_node_Set(18) -->
<g id="edge20" class="edge">
<title>node_System(50)&#45;&gt;set_marker_node_Set(18)</title>
<path fill="none" stroke="black" d="M839.72,-1473.06C866.78,-1474.72 897.2,-1476.51 925,-1478 952.89,-1479.49 983.04,-1480.96 1011.06,-1482.27"/>
<polygon fill="black" stroke="black" points="1010.84,-1485.77 1020.99,-1482.73 1011.17,-1478.77 1010.84,-1485.77"/>
</g>
<!-- set_marker_node_Set(8)&#45;&gt;set_marker_node_Set(2) -->
<g id="edge4" class="edge">
<title>set_marker_node_Set(8)&#45;&gt;set_marker_node_Set(2)</title>
<path fill="none" stroke="black" d="M1314,-772C1316.86,-772 1319.7,-772 1322.5,-772"/>
<polygon fill="black" stroke="black" points="1322.49,-775.5 1332.49,-772 1322.49,-768.5 1322.49,-775.5"/>
</g>
<!-- set_marker_node_Set(64) -->
<!-- node_System(52) -->
<g id="node45" class="node">
<title>node_System(52)</title>
<polygon fill="white" stroke="black" points="1180.5,-826 1058.5,-826 1058.5,-790 1180.5,-790 1180.5,-826"/>
<text text-anchor="middle" x="1119.5" y="-804.3" font-family="Times,serif" font-size="14.00">queue_shadows</text>
</g>
<!-- node_System(22) -->
<g id="node46" class="node">
<title>node_System(22)</title>
<polygon fill="white" stroke="black" points="1249.5,-754 989.5,-754 989.5,-718 1249.5,-718 1249.5,-754"/>
<text text-anchor="middle" x="1119.5" y="-732.3" font-family="Times,serif" font-size="14.00">queue_view_tonemapping_pipelines</text>
</g>
<!-- node_System(23) -->
<g id="node47" class="node">
<title>node_System(23)</title>
<polygon fill="white" stroke="black" points="1236.5,-700 1002.5,-700 1002.5,-664 1236.5,-664 1236.5,-700"/>
<text text-anchor="middle" x="1119.5" y="-678.3" font-family="Times,serif" font-size="14.00">queue_view_upscaling_pipelines</text>
</g>
<!-- node_System(26) -->
<g id="node48" class="node">
<title>node_System(26)</title>
<polygon fill="white" stroke="black" points="1218,-646 1021,-646 1021,-610 1218,-610 1218,-646"/>
<text text-anchor="middle" x="1119.5" y="-624.3" font-family="Times,serif" font-size="14.00">queue_bloom_bind_groups</text>
</g>
<!-- node_System(29) -->
<g id="node49" class="node">
<title>node_System(29)</title>
<polygon fill="white" stroke="black" points="1219.5,-592 1019.5,-592 1019.5,-556 1219.5,-556 1219.5,-592"/>
<text text-anchor="middle" x="1119.5" y="-570.3" font-family="Times,serif" font-size="14.00">queue_mesh2d_bind_group</text>
</g>
<!-- node_System(30) -->
<g id="node50" class="node">
<title>node_System(30)</title>
<polygon fill="white" stroke="black" points="1242,-538 997,-538 997,-502 1242,-502 1242,-538"/>
<text text-anchor="middle" x="1119.5" y="-516.3" font-family="Times,serif" font-size="14.00">queue_mesh2d_view_bind_groups</text>
</g>
<!-- node_System(32) -->
<g id="node51" class="node">
<title>node_System(32)</title>
<polygon fill="white" stroke="black" points="1272,-484 967,-484 967,-448 1272,-448 1272,-484"/>
<text text-anchor="middle" x="1119.5" y="-462.3" font-family="Times,serif" font-size="14.00">queue_material2d_meshes&lt;ColorMaterial&gt;</text>
</g>
<!-- node_System(33) -->
<g id="node52" class="node">
<title>node_System(33)</title>
<polygon fill="white" stroke="black" points="1174,-430 1065,-430 1065,-394 1174,-394 1174,-430"/>
<text text-anchor="middle" x="1119.5" y="-408.3" font-family="Times,serif" font-size="14.00">queue_sprites</text>
</g>
<!-- node_System(35) -->
<g id="node53" class="node">
<title>node_System(35)</title>
<polygon fill="white" stroke="black" points="1178,-376 1061,-376 1061,-340 1178,-340 1178,-376"/>
<text text-anchor="middle" x="1119.5" y="-354.3" font-family="Times,serif" font-size="14.00">queue_uinodes</text>
</g>
<!-- node_System(39) -->
<g id="node54" class="node">
<title>node_System(39)</title>
<polygon fill="white" stroke="black" points="1211.5,-322 1027.5,-322 1027.5,-286 1211.5,-286 1211.5,-322"/>
<text text-anchor="middle" x="1119.5" y="-300.3" font-family="Times,serif" font-size="14.00">queue_mesh_bind_group</text>
</g>
<!-- node_System(40) -->
<g id="node55" class="node">
<title>node_System(40)</title>
<polygon fill="white" stroke="black" points="1234,-268 1005,-268 1005,-232 1234,-232 1234,-268"/>
<text text-anchor="middle" x="1119.5" y="-246.3" font-family="Times,serif" font-size="14.00">queue_mesh_view_bind_groups</text>
</g>
<!-- node_System(42) -->
<g id="node56" class="node">
<title>node_System(42)</title>
<polygon fill="white" stroke="black" points="1276.5,-214 962.5,-214 962.5,-178 1276.5,-178 1276.5,-214"/>
<text text-anchor="middle" x="1119.5" y="-192.3" font-family="Times,serif" font-size="14.00">queue_material_meshes&lt;StandardMaterial&gt;</text>
</g>
<!-- node_System(44) -->
<g id="node57" class="node">
<title>node_System(44)</title>
<polygon fill="white" stroke="black" points="1306,-160 933,-160 933,-124 1306,-124 1306,-160"/>
<text text-anchor="middle" x="1119.5" y="-138.3" font-family="Times,serif" font-size="14.00">queue_prepass_view_bind_group&lt;StandardMaterial&gt;</text>
</g>
<!-- node_System(45) -->
<g id="node58" class="node">
<title>node_System(45)</title>
<polygon fill="white" stroke="black" points="1305.5,-106 933.5,-106 933.5,-70 1305.5,-70 1305.5,-106"/>
<text text-anchor="middle" x="1119.5" y="-84.3" font-family="Times,serif" font-size="14.00">queue_prepass_material_meshes&lt;StandardMaterial&gt;</text>
</g>
<!-- node_System(53) -->
<g id="node59" class="node">
<title>node_System(53)</title>
<polygon fill="white" stroke="black" points="1239,-52 1000,-52 1000,-16 1239,-16 1239,-52"/>
<text text-anchor="middle" x="1119.5" y="-30.3" font-family="Times,serif" font-size="14.00">queue_shadow_view_bind_group</text>
</g>
<!-- set_marker_node_Set(9)&#45;&gt;set_marker_node_Set(3) -->
<g id="edge6" class="edge">
<title>set_marker_node_Set(9)&#45;&gt;set_marker_node_Set(3)</title>
<path fill="none" stroke="black" d="M1870.94,-386C1871.91,-384.6 1872.93,-383.26 1874,-382 1883.05,-371.31 1894.96,-363.69 1907.92,-358.3"/>
<polygon fill="black" stroke="black" points="1908.89,-361.67 1917.08,-354.95 1906.49,-355.09 1908.89,-361.67"/>
</g>
<!-- node_System(16) -->
<g id="node61" class="node">
<title>node_System(16)</title>
<polygon fill="white" stroke="black" points="1816,-826 1561,-826 1561,-790 1816,-790 1816,-826"/>
<text text-anchor="middle" x="1688.5" y="-804.3" font-family="Times,serif" font-size="14.00">sort_phase_system&lt;Transparent2d&gt;</text>
</g>
<!-- node_System(17) -->
<g id="node62" class="node">
<title>node_System(17)</title>
<polygon fill="white" stroke="black" points="2140,-826 1874,-826 1874,-790 2140,-790 2140,-826"/>
<text text-anchor="middle" x="2007" y="-804.3" font-family="Times,serif" font-size="14.00">batch_phase_system&lt;Transparent2d&gt;</text>
</g>
<!-- node_System(16)&#45;&gt;node_System(17) -->
<g id="edge15" class="edge">
<title>node_System(16)&#45;&gt;node_System(17)</title>
<path fill="none" stroke="black" d="M1816.41,-808C1831.56,-808 1847.12,-808 1862.48,-808"/>
<polygon fill="black" stroke="black" points="1862.12,-811.5 1872.12,-808 1862.12,-804.5 1862.12,-811.5"/>
</g>
<!-- node_System(19) -->
<g id="node63" class="node">
<title>node_System(19)</title>
<polygon fill="white" stroke="black" points="1800.5,-754 1576.5,-754 1576.5,-718 1800.5,-718 1800.5,-754"/>
<text text-anchor="middle" x="1688.5" y="-732.3" font-family="Times,serif" font-size="14.00">sort_phase_system&lt;Opaque3d&gt;</text>
</g>
<!-- node_System(20) -->
<g id="node64" class="node">
<title>node_System(20)</title>
<polygon fill="white" stroke="black" points="1812.5,-700 1564.5,-700 1564.5,-664 1812.5,-664 1812.5,-700"/>
<text text-anchor="middle" x="1688.5" y="-678.3" font-family="Times,serif" font-size="14.00">sort_phase_system&lt;AlphaMask3d&gt;</text>
</g>
<!-- node_System(21) -->
<g id="node65" class="node">
<title>node_System(21)</title>
<polygon fill="white" stroke="black" points="1816,-646 1561,-646 1561,-610 1816,-610 1816,-646"/>
<text text-anchor="middle" x="1688.5" y="-624.3" font-family="Times,serif" font-size="14.00">sort_phase_system&lt;Transparent3d&gt;</text>
</g>
<!-- node_System(36) -->
<g id="node66" class="node">
<title>node_System(36)</title>
<polygon fill="white" stroke="black" points="1815.5,-592 1561.5,-592 1561.5,-556 1815.5,-556 1815.5,-592"/>
<text text-anchor="middle" x="1688.5" y="-570.3" font-family="Times,serif" font-size="14.00">sort_phase_system&lt;TransparentUi&gt;</text>
</g>
<!-- node_System(46) -->
<g id="node67" class="node">
<title>node_System(46)</title>
<polygon fill="white" stroke="black" points="1826,-538 1551,-538 1551,-502 1826,-502 1826,-538"/>
<text text-anchor="middle" x="1688.5" y="-516.3" font-family="Times,serif" font-size="14.00">sort_phase_system&lt;Opaque3dPrepass&gt;</text>
</g>
<!-- node_System(47) -->
<g id="node68" class="node">
<title>node_System(47)</title>
<polygon fill="white" stroke="black" points="1838,-484 1539,-484 1539,-448 1838,-448 1838,-484"/>
<text text-anchor="middle" x="1688.5" y="-462.3" font-family="Times,serif" font-size="14.00">sort_phase_system&lt;AlphaMask3dPrepass&gt;</text>
</g>
<!-- node_System(54) -->
<g id="node69" class="node">
<title>node_System(54)</title>
<polygon fill="white" stroke="black" points="1793.5,-430 1583.5,-430 1583.5,-394 1793.5,-394 1793.5,-430"/>
<text text-anchor="middle" x="1688.5" y="-408.3" font-family="Times,serif" font-size="14.00">sort_phase_system&lt;Shadow&gt;</text>
</g>
<!-- set_marker_node_Set(10)&#45;&gt;set_marker_node_Set(4) -->
<g id="edge8" class="edge">
<title>set_marker_node_Set(10)&#45;&gt;set_marker_node_Set(4)</title>
<path fill="none" stroke="black" d="M2329.88,-339C2354.94,-333.85 2388.75,-326.89 2420.87,-320.29"/>
<polygon fill="black" stroke="black" points="2421.43,-323.75 2430.52,-318.3 2420.02,-316.89 2421.43,-323.75"/>
</g>
<!-- node_System(6) -->
<g id="node71" class="node">
<title>node_System(6)</title>
<polygon fill="white" stroke="black" points="2404,-401 2176,-401 2176,-365 2404,-365 2404,-401"/>
<text text-anchor="middle" x="2290" y="-379.3" font-family="Times,serif" font-size="14.00">process_pipeline_queue_system</text>
</g>
<!-- node_System(7) -->
<g id="node72" class="node">
<title>node_System(7)</title>
<polygon fill="white" stroke="black" points="2578.5,-401 2462.5,-401 2462.5,-365 2578.5,-365 2578.5,-401"/>
<text text-anchor="middle" x="2520.5" y="-379.3" font-family="Times,serif" font-size="14.00">render_system</text>
</g>
<!-- node_System(6)&#45;&gt;node_System(7) -->
<g id="edge11" class="edge">
<title>node_System(6)&#45;&gt;node_System(7)</title>
<path fill="none" stroke="black" d="M2404.25,-383C2420.1,-383 2435.97,-383 2450.65,-383"/>
<polygon fill="black" stroke="black" points="2450.64,-386.5 2460.64,-383 2450.64,-379.5 2450.64,-386.5"/>
</g>
<!-- set_marker_node_Set(11)&#45;&gt;set_marker_node_Set(5) -->
<g id="edge10" class="edge">
<title>set_marker_node_Set(11)&#45;&gt;set_marker_node_Set(5)</title>
<path fill="none" stroke="black" d="M2863,-300C2865.95,-300 2868.9,-300 2871.84,-300"/>
<polygon fill="black" stroke="black" points="2871.49,-303.5 2881.49,-300 2871.49,-296.5 2871.49,-303.5"/>
</g>
<!-- node_System(8) -->
<g id="node74" class="node">
<title>node_System(8)</title>
<polygon fill="white" stroke="black" points="2799.5,-282 2692.5,-282 2692.5,-246 2799.5,-246 2799.5,-282"/>
<text text-anchor="middle" x="2746" y="-260.3" font-family="Times,serif" font-size="14.00">clear_entities</text>
</g>
<!-- node_System(15) -->
<g id="node75" class="node">
<title>node_System(15)</title>
<polygon fill="white" stroke="black" points="2855,-228 2637,-228 2637,-192 2855,-192 2855,-228"/>
<text text-anchor="middle" x="2746" y="-206.3" font-family="Times,serif" font-size="14.00">update_texture_cache_system</text>
</g>
</g>
</svg>
