<?xml version="1.0" encoding="UTF-8" standalone="no"?>
<!DOCTYPE svg PUBLIC "-//W3C//DTD SVG 1.1//EN"
 "http://www.w3.org/Graphics/SVG/1.1/DTD/svg11.dtd">
<!-- Generated by graphviz version 7.0.6 (0)
 -->
<!-- Title: schedule Pages: 1 -->
<svg width="603pt" height="2022pt"
 viewBox="0.00 0.00 603.00 2022.00" xmlns="http://www.w3.org/2000/svg" xmlns:xlink="http://www.w3.org/1999/xlink">
<g id="graph0" class="graph" transform="scale(1 1) rotate(0) translate(4 2018)">
<title>schedule</title>
<polygon fill="white" stroke="none" points="-4,4 -4,-2018 599,-2018 599,4 -4,4"/>
<g id="clust1" class="cluster">
<title>clusternode_Set(20)</title>
<polygon fill="white" stroke="black" points="135,-8 135,-101 266,-101 266,-8 135,-8"/>
<text text-anchor="middle" x="200.5" y="-85.8" font-family="Helvetica,sans-Serif" font-size="14.00">ExtractSprites</text>
</g>
<g id="clust2" class="cluster">
<title>clusternode_Set(27)</title>
<polygon fill="white" stroke="black" points="131,-109 131,-202 270,-202 270,-109 131,-109"/>
<text text-anchor="middle" x="200.5" y="-186.8" font-family="Helvetica,sans-Serif" font-size="14.00">ExtractNode</text>
</g>
<g id="clust3" class="cluster">
<title>clusternode_Set(37)</title>
<polygon fill="white" stroke="black" points="131.5,-210 131.5,-303 269.5,-303 269.5,-210 131.5,-210"/>
<text text-anchor="middle" x="200.5" y="-287.8" font-family="Helvetica,sans-Serif" font-size="14.00">ExtractClusters</text>
</g>
<g id="clust4" class="cluster">
<title>clusternode_Set(39)</title>
<polygon fill="white" stroke="black" points="139,-311 139,-404 262,-404 262,-311 139,-311"/>
<text text-anchor="middle" x="200.5" y="-388.8" font-family="Helvetica,sans-Serif" font-size="14.00">ExtractLights</text>
</g>
<!-- set_marker_node_Set(20) -->
<!-- node_System(21) -->
<g id="node29" class="node">
<title>node_System(21)</title>
<polygon fill="white" stroke="black" points="595,-88 437,-88 437,-52 595,-52 595,-88"/>
<text text-anchor="middle" x="516" y="-66.3" font-family="Times,serif" font-size="14.00">extract_text2d_sprite</text>
</g>
<!-- set_marker_node_Set(20)&#45;&gt;node_System(21) -->
<g id="edge1" class="edge">
<title>set_marker_node_Set(20)&#45;&gt;node_System(21)</title>
<path fill="none" stroke="black" d="M266,-70C312,-70 374.45,-70 425.31,-70"/>
<polygon fill="black" stroke="black" points="425.04,-73.5 435.04,-70 425.04,-66.5 425.04,-73.5"/>
</g>
<!-- node_System(19) -->
<g id="node2" class="node">
<title>node_System(19)</title>
<polygon fill="white" stroke="black" points="258,-52 143,-52 143,-16 258,-16 258,-52"/>
<text text-anchor="middle" x="200.5" y="-30.3" font-family="Times,serif" font-size="14.00">extract_sprites</text>
</g>
<!-- set_marker_node_Set(27) -->
<!-- node_System(26) -->
<g id="node33" class="node">
<title>node_System(26)</title>
<polygon fill="white" stroke="black" points="594,-189 438,-189 438,-153 594,-153 594,-189"/>
<text text-anchor="middle" x="516" y="-167.3" font-family="Times,serif" font-size="14.00">extract_text_uinodes</text>
</g>
<!-- set_marker_node_Set(27)&#45;&gt;node_System(26) -->
<g id="edge2" class="edge">
<title>set_marker_node_Set(27)&#45;&gt;node_System(26)</title>
<path fill="none" stroke="black" d="M270,-171C315.94,-171 376.89,-171 426.5,-171"/>
<polygon fill="black" stroke="black" points="426.24,-174.5 436.24,-171 426.24,-167.5 426.24,-174.5"/>
</g>
<!-- node_System(25) -->
<g id="node4" class="node">
<title>node_System(25)</title>
<polygon fill="white" stroke="black" points="262,-153 139,-153 139,-117 262,-117 262,-153"/>
<text text-anchor="middle" x="200.5" y="-131.3" font-family="Times,serif" font-size="14.00">extract_uinodes</text>
</g>
<!-- set_marker_node_Set(37) -->
<!-- node_System(34) -->
<g id="node6" class="node">
<title>node_System(34)</title>
<polygon fill="white" stroke="black" points="261.5,-254 139.5,-254 139.5,-218 261.5,-218 261.5,-254"/>
<text text-anchor="middle" x="200.5" y="-232.3" font-family="Times,serif" font-size="14.00">extract_clusters</text>
</g>
<!-- set_marker_node_Set(39) -->
<!-- node_System(35) -->
<g id="node8" class="node">
<title>node_System(35)</title>
<polygon fill="white" stroke="black" points="254,-355 147,-355 147,-319 254,-319 254,-355"/>
<text text-anchor="middle" x="200.5" y="-333.3" font-family="Times,serif" font-size="14.00">extract_lights</text>
</g>
<!-- node_System(0) -->
<g id="node9" class="node">
<title>node_System(0)</title>
<polygon fill="white" stroke="black" points="261.5,-448 139.5,-448 139.5,-412 261.5,-412 261.5,-448"/>
<text text-anchor="middle" x="200.5" y="-426.3" font-family="Times,serif" font-size="14.00">extract_shaders</text>
</g>
<!-- node_System(1) -->
<g id="node10" class="node">
<title>node_System(1)</title>
<polygon fill="white" stroke="black" points="266,-502 135,-502 135,-466 266,-466 266,-502"/>
<text text-anchor="middle" x="200.5" y="-480.3" font-family="Times,serif" font-size="14.00">extract_windows</text>
</g>
<!-- node_System(2) -->
<g id="node11" class="node">
<title>node_System(2)</title>
<polygon fill="white" stroke="black" points="264,-556 137,-556 137,-520 264,-520 264,-556"/>
<text text-anchor="middle" x="200.5" y="-534.3" font-family="Times,serif" font-size="14.00">extract_cameras</text>
</g>
<!-- node_System(3) -->
<g id="node12" class="node">
<title>node_System(3)</title>
<polygon fill="white" stroke="black" points="290.5,-610 110.5,-610 110.5,-574 290.5,-574 290.5,-610"/>
<text text-anchor="middle" x="200.5" y="-588.3" font-family="Times,serif" font-size="14.00">extract_resource&lt;Msaa&gt;</text>
</g>
<!-- node_System(4) -->
<g id="node13" class="node">
<title>node_System(4)</title>
<polygon fill="white" stroke="black" points="304,-664 97,-664 97,-628 304,-628 304,-664"/>
<text text-anchor="middle" x="200.5" y="-642.3" font-family="Times,serif" font-size="14.00">extract_render_asset&lt;Mesh&gt;</text>
</g>
<!-- node_System(5) -->
<g id="node14" class="node">
<title>node_System(5)</title>
<polygon fill="white" stroke="black" points="278.5,-718 122.5,-718 122.5,-682 278.5,-682 278.5,-718"/>
<text text-anchor="middle" x="200.5" y="-696.3" font-family="Times,serif" font-size="14.00">extract_frame_count</text>
</g>
<!-- node_System(6) -->
<g id="node15" class="node">
<title>node_System(6)</title>
<polygon fill="white" stroke="black" points="251,-772 150,-772 150,-736 251,-736 251,-772"/>
<text text-anchor="middle" x="200.5" y="-750.3" font-family="Times,serif" font-size="14.00">extract_time</text>
</g>
<!-- node_System(7) -->
<g id="node16" class="node">
<title>node_System(7)</title>
<polygon fill="white" stroke="black" points="307,-826 94,-826 94,-790 307,-790 307,-826"/>
<text text-anchor="middle" x="200.5" y="-804.3" font-family="Times,serif" font-size="14.00">extract_render_asset&lt;Image&gt;</text>
</g>
<!-- node_System(8) -->
<g id="node17" class="node">
<title>node_System(8)</title>
<polygon fill="white" stroke="black" points="308,-880 93,-880 93,-844 308,-844 308,-880"/>
<text text-anchor="middle" x="200.5" y="-858.3" font-family="Times,serif" font-size="14.00">extract_resource&lt;ClearColor&gt;</text>
</g>
<!-- node_System(9) -->
<g id="node18" class="node">
<title>node_System(9)</title>
<polygon fill="white" stroke="black" points="318,-934 83,-934 83,-898 318,-898 318,-934"/>
<text text-anchor="middle" x="200.5" y="-912.3" font-family="Times,serif" font-size="14.00">extract_components&lt;Camera2d&gt;</text>
</g>
<!-- node_System(10) -->
<g id="node19" class="node">
<title>node_System(10)</title>
<polygon fill="white" stroke="black" points="316,-988 85,-988 85,-952 316,-952 316,-988"/>
<text text-anchor="middle" x="200.5" y="-966.3" font-family="Times,serif" font-size="14.00">extract_core_2d_camera_phases</text>
</g>
<!-- node_System(11) -->
<g id="node20" class="node">
<title>node_System(11)</title>
<polygon fill="white" stroke="black" points="318,-1042 83,-1042 83,-1006 318,-1006 318,-1042"/>
<text text-anchor="middle" x="200.5" y="-1020.3" font-family="Times,serif" font-size="14.00">extract_components&lt;Camera3d&gt;</text>
</g>
<!-- node_System(12) -->
<g id="node21" class="node">
<title>node_System(12)</title>
<polygon fill="white" stroke="black" points="316,-1096 85,-1096 85,-1060 316,-1060 316,-1096"/>
<text text-anchor="middle" x="200.5" y="-1074.3" font-family="Times,serif" font-size="14.00">extract_core_3d_camera_phases</text>
</g>
<!-- node_System(13) -->
<g id="node22" class="node">
<title>node_System(13)</title>
<polygon fill="white" stroke="black" points="330.5,-1150 70.5,-1150 70.5,-1114 330.5,-1114 330.5,-1150"/>
<text text-anchor="middle" x="200.5" y="-1128.3" font-family="Times,serif" font-size="14.00">extract_components&lt;Tonemapping&gt;</text>
</g>
<!-- node_System(14) -->
<g id="node23" class="node">
<title>node_System(14)</title>
<polygon fill="white" stroke="black" points="332,-1204 69,-1204 69,-1168 332,-1168 332,-1204"/>
<text text-anchor="middle" x="200.5" y="-1182.3" font-family="Times,serif" font-size="14.00">extract_components&lt;BloomSettings&gt;</text>
</g>
<!-- node_System(15) -->
<g id="node24" class="node">
<title>node_System(15)</title>
<polygon fill="white" stroke="black" points="300.5,-1258 100.5,-1258 100.5,-1222 300.5,-1222 300.5,-1258"/>
<text text-anchor="middle" x="200.5" y="-1236.3" font-family="Times,serif" font-size="14.00">extract_components&lt;Fxaa&gt;</text>
</g>
<!-- node_System(16) -->
<g id="node25" class="node">
<title>node_System(16)</title>
<polygon fill="white" stroke="black" points="261.5,-1312 139.5,-1312 139.5,-1276 261.5,-1276 261.5,-1312"/>
<text text-anchor="middle" x="200.5" y="-1290.3" font-family="Times,serif" font-size="14.00">extract_mesh2d</text>
</g>
<!-- node_System(17) -->
<g id="node26" class="node">
<title>node_System(17)</title>
<polygon fill="white" stroke="black" points="388.5,-1366 12.5,-1366 12.5,-1330 388.5,-1330 388.5,-1366"/>
<text text-anchor="middle" x="200.5" y="-1344.3" font-family="Times,serif" font-size="14.00">extract_visible_components&lt;Handle&lt;ColorMaterial&gt;&gt;</text>
</g>
<!-- node_System(18) -->
<g id="node27" class="node">
<title>node_System(18)</title>
<polygon fill="white" stroke="black" points="334,-1420 67,-1420 67,-1384 334,-1384 334,-1420"/>
<text text-anchor="middle" x="200.5" y="-1398.3" font-family="Times,serif" font-size="14.00">extract_materials_2d&lt;ColorMaterial&gt;</text>
</g>
<!-- node_System(20) -->
<g id="node28" class="node">
<title>node_System(20)</title>
<polygon fill="white" stroke="black" points="280,-1474 121,-1474 121,-1438 280,-1438 280,-1474"/>
<text text-anchor="middle" x="200.5" y="-1452.3" font-family="Times,serif" font-size="14.00">extract_sprite_events</text>
</g>
<!-- node_System(22) -->
<g id="node30" class="node">
<title>node_System(22)</title>
<polygon fill="white" stroke="black" points="338,-1528 63,-1528 63,-1492 338,-1492 338,-1528"/>
<text text-anchor="middle" x="200.5" y="-1506.3" font-family="Times,serif" font-size="14.00">extract_components&lt;UiCameraConfig&gt;</text>
</g>
<!-- node_System(23) -->
<g id="node31" class="node">
<title>node_System(23)</title>
<polygon fill="white" stroke="black" points="359,-1582 42,-1582 42,-1546 359,-1546 359,-1582"/>
<text text-anchor="middle" x="200.5" y="-1560.3" font-family="Times,serif" font-size="14.00">extract_default_ui_camera_view&lt;Camera2d&gt;</text>
</g>
<!-- node_System(24) -->
<g id="node32" class="node">
<title>node_System(24)</title>
<polygon fill="white" stroke="black" points="359,-1636 42,-1636 42,-1600 359,-1600 359,-1636"/>
<text text-anchor="middle" x="200.5" y="-1614.3" font-family="Times,serif" font-size="14.00">extract_default_ui_camera_view&lt;Camera3d&gt;</text>
</g>
<!-- node_System(27) -->
<g id="node34" class="node">
<title>node_System(27)</title>
<polygon fill="white" stroke="black" points="260.5,-1690 140.5,-1690 140.5,-1654 260.5,-1654 260.5,-1690"/>
<text text-anchor="middle" x="200.5" y="-1668.3" font-family="Times,serif" font-size="14.00">extract_meshes</text>
</g>
<!-- node_System(28) -->
<g id="node35" class="node">
<title>node_System(28)</title>
<polygon fill="white" stroke="black" points="290,-1744 111,-1744 111,-1708 290,-1708 290,-1744"/>
<text text-anchor="middle" x="200.5" y="-1722.3" font-family="Times,serif" font-size="14.00">extract_skinned_meshes</text>
</g>
<!-- node_System(29) -->
<g id="node36" class="node">
<title>node_System(29)</title>
<polygon fill="white" stroke="black" points="401,-1798 0,-1798 0,-1762 401,-1762 401,-1798"/>
<text text-anchor="middle" x="200.5" y="-1776.3" font-family="Times,serif" font-size="14.00">extract_visible_components&lt;Handle&lt;StandardMaterial&gt;&gt;</text>
</g>
<!-- node_System(30) -->
<g id="node37" class="node">
<title>node_System(30)</title>
<polygon fill="white" stroke="black" points="335.5,-1852 65.5,-1852 65.5,-1816 335.5,-1816 335.5,-1852"/>
<text text-anchor="middle" x="200.5" y="-1830.3" font-family="Times,serif" font-size="14.00">extract_materials&lt;StandardMaterial&gt;</text>
</g>
<!-- node_System(31) -->
<g id="node38" class="node">
<title>node_System(31)</title>
<polygon fill="white" stroke="black" points="312.5,-1906 88.5,-1906 88.5,-1870 312.5,-1870 312.5,-1906"/>
<text text-anchor="middle" x="200.5" y="-1884.3" font-family="Times,serif" font-size="14.00">extract_camera_prepass_phase</text>
</g>
<!-- node_System(32) -->
<g id="node39" class="node">
<title>node_System(32)</title>
<polygon fill="white" stroke="black" points="319,-1960 82,-1960 82,-1924 319,-1924 319,-1960"/>
<text text-anchor="middle" x="200.5" y="-1938.3" font-family="Times,serif" font-size="14.00">extract_resource&lt;AmbientLight&gt;</text>
</g>
<!-- node_System(33) -->
<g id="node40" class="node">
<title>node_System(33)</title>
<polygon fill="white" stroke="black" points="322,-2014 79,-2014 79,-1978 322,-1978 322,-2014"/>
<text text-anchor="middle" x="200.5" y="-1992.3" font-family="Times,serif" font-size="14.00">extract_components&lt;FogSettings&gt;</text>
</g>
</g>
</svg>
