<?xml version="1.0" encoding="UTF-8" standalone="no"?>
<!DOCTYPE svg PUBLIC "-//W3C//DTD SVG 1.1//EN"
 "http://www.w3.org/Graphics/SVG/1.1/DTD/svg11.dtd">
<!-- Generated by graphviz version 7.1.0 (0)
 -->
<!-- Pages: 1 -->
<svg width="1320pt" height="483pt"
 viewBox="0.00 0.00 1320.00 483.00" xmlns="http://www.w3.org/2000/svg" xmlns:xlink="http://www.w3.org/1999/xlink">
<g id="graph0" class="graph" transform="scale(1 1) rotate(0) translate(4 479)">
<polygon fill="white" stroke="none" points="-4,4 -4,-479 1316,-479 1316,4 -4,4"/>
<g id="clust1" class="cluster">
<title>clusternode_Set(1)</title>
<g id="a_clust1"><a xlink:title="PreStartupFlush">
<polygon fill="white" stroke="black" points="243,-8 243,-101 420,-101 420,-8 243,-8"/>
<text text-anchor="middle" x="331.5" y="-85.8" font-family="Helvetica,sans-Serif" font-size="14.00">PreStartupFlush</text>
</a>
</g>
</g>
<g id="clust2" class="cluster">
<title>clusternode_Set(2)</title>
<g id="a_clust2"><a xlink:title="StartupFlush">
<polygon fill="white" stroke="black" points="600,-8 600,-101 777,-101 777,-8 600,-8"/>
<text text-anchor="middle" x="688.5" y="-85.8" font-family="Helvetica,sans-Serif" font-size="14.00">StartupFlush</text>
</a>
</g>
</g>
<g id="clust3" class="cluster">
<title>clusternode_Set(3)</title>
<g id="a_clust3"><a xlink:title="PostStartupFlush">
<polygon fill="white" stroke="black" points="1127,-8 1127,-101 1304,-101 1304,-8 1127,-8"/>
<text text-anchor="middle" x="1215.5" y="-85.8" font-family="Helvetica,sans-Serif" font-size="14.00">PostStartupFlush</text>
</a>
</g>
</g>
<g id="clust4" class="cluster">
<title>clusternode_Set(4)</title>
<g id="a_clust4"><a xlink:title="PreStartup">
<polygon fill="white" stroke="black" points="8,-8 8,-101 223,-101 223,-8 8,-8"/>
<text text-anchor="middle" x="115.5" y="-85.8" font-family="Helvetica,sans-Serif" font-size="14.00">PreStartup</text>
</a>
</g>
</g>
<g id="clust5" class="cluster">
<title>clusternode_Set(5)</title>
<g id="a_clust5"><a xlink:title="Startup">
<polygon fill="white" stroke="black" points="440,-8 440,-101 580,-101 580,-8 440,-8"/>
<text text-anchor="middle" x="510" y="-85.8" font-family="Helvetica,sans-Serif" font-size="14.00">Startup</text>
</a>
</g>
</g>
<g id="clust6" class="cluster">
<title>clusternode_Set(6)</title>
<g id="a_clust6"><a xlink:title="PostStartup">
<polygon fill="white" stroke="black" points="789,-62 789,-467 1115,-467 1115,-62 789,-62"/>
<text text-anchor="middle" x="952" y="-451.8" font-family="Helvetica,sans-Serif" font-size="14.00">PostStartup</text>
</a>
</g>
</g>
<g id="clust7" class="cluster">
<title>clusternode_Set(7)</title>
<g id="a_clust7"><a xlink:title="TransformPropagate">
<polygon fill="white" stroke="black" points="854.5,-289 854.5,-436 1049.5,-436 1049.5,-289 854.5,-289"/>
<text text-anchor="middle" x="952" y="-420.8" font-family="Helvetica,sans-Serif" font-size="14.00">TransformPropagate</text>
</a>
</g>
</g>
<g id="clust8" class="cluster">
<title>clusternode_Set(11)</title>
<g id="a_clust8"><a xlink:title="CameraUpdateSystem">
<polygon fill="white" stroke="black" points="797,-80 797,-281 1107,-281 1107,-80 797,-80"/>
<text text-anchor="middle" x="952" y="-265.8" font-family="Helvetica,sans-Serif" font-size="14.00">CameraUpdateSystem</text>
</a>
</g>
</g>
<!-- set_marker_node_Set(1) -->
<!-- set_marker_node_Set(5) -->
<!-- set_marker_node_Set(1)&#45;&gt;set_marker_node_Set(5) -->
<g id="edge2" class="edge">
<title>set_marker_node_Set(1)&#45;&gt;set_marker_node_Set(5)</title>
<g id="a_edge2"><a xlink:title="PreStartupFlush → Startup">
<path fill="none" stroke="#251dcc" stroke-width="2" d="M420,-70C422.39,-70 424.78,-70 427.16,-70"/>
<polygon fill="#251dcc" stroke="#251dcc" stroke-width="2" points="426.98,-73.5 436.98,-70 426.98,-66.5 426.98,-73.5"/>
</a>
</g>
</g>
<!-- node_System(0) -->
<g id="node2" class="node">
<title>node_System(0)</title>
<g id="a_node2"><a xlink:title="bevy_ecs::schedule::executor::apply_system_buffers">
<polygon fill="white" stroke="black" points="412,-52 251,-52 251,-16 412,-16 412,-52"/>
<text text-anchor="middle" x="331.5" y="-30.3" font-family="Times,serif" font-size="14.00">apply_system_buffers</text>
</a>
</g>
</g>
<!-- set_marker_node_Set(2) -->
<!-- set_marker_node_Set(6) -->
<!-- set_marker_node_Set(2)&#45;&gt;set_marker_node_Set(6) -->
<g id="edge4" class="edge">
<title>set_marker_node_Set(2)&#45;&gt;set_marker_node_Set(6)</title>
<g id="a_edge4"><a xlink:title="StartupFlush → PostStartup">
<path fill="none" stroke="#1dcd59" stroke-width="2" d="M777,-70C780,-70 783,-70 786,-70"/>
<polygon fill="#1dcd59" stroke="#1dcd59" stroke-width="2" points="775.98,-73.5 785.98,-70 775.98,-66.5 775.98,-73.5"/>
</a>
</g>
</g>
<!-- node_System(1) -->
<g id="node4" class="node">
<title>node_System(1)</title>
<g id="a_node4"><a xlink:title="bevy_ecs::schedule::executor::apply_system_buffers">
<polygon fill="white" stroke="black" points="769,-52 608,-52 608,-16 769,-16 769,-52"/>
<text text-anchor="middle" x="688.5" y="-30.3" font-family="Times,serif" font-size="14.00">apply_system_buffers</text>
</a>
</g>
</g>
<!-- set_marker_node_Set(3) -->
<!-- node_System(2) -->
<g id="node6" class="node">
<title>node_System(2)</title>
<g id="a_node6"><a xlink:title="bevy_ecs::schedule::executor::apply_system_buffers">
<polygon fill="white" stroke="black" points="1296,-52 1135,-52 1135,-16 1296,-16 1296,-52"/>
<text text-anchor="middle" x="1215.5" y="-30.3" font-family="Times,serif" font-size="14.00">apply_system_buffers</text>
</a>
</g>
</g>
<!-- set_marker_node_Set(4) -->
<!-- set_marker_node_Set(4)&#45;&gt;set_marker_node_Set(1) -->
<g id="edge1" class="edge">
<title>set_marker_node_Set(4)&#45;&gt;set_marker_node_Set(1)</title>
<g id="a_edge1"><a xlink:title="PreStartup → PreStartupFlush">
<path fill="none" stroke="#c4cc1d" stroke-width="2" d="M223,-70C225.36,-70 227.73,-70 230.1,-70"/>
<polygon fill="#c4cc1d" stroke="#c4cc1d" stroke-width="2" points="229.97,-73.5 239.97,-70 229.97,-66.5 229.97,-73.5"/>
</a>
</g>
</g>
<!-- node_System(9) -->
<g id="node8" class="node">
<title>node_System(9)</title>
<g id="a_node8"><a xlink:title="bevy_gilrs::gilrs_system::gilrs_event_startup_system">
<polygon fill="white" stroke="black" points="215,-52 16,-52 16,-16 215,-16 215,-52"/>
<text text-anchor="middle" x="115.5" y="-30.3" font-family="Times,serif" font-size="14.00">gilrs_event_startup_system</text>
</a>
</g>
</g>
<!-- set_marker_node_Set(5)&#45;&gt;set_marker_node_Set(2) -->
<g id="edge3" class="edge">
<title>set_marker_node_Set(5)&#45;&gt;set_marker_node_Set(2)</title>
<g id="a_edge3"><a xlink:title="Startup → StartupFlush">
<path fill="none" stroke="#cd1d91" stroke-width="2" d="M580,-70C582.46,-70 584.94,-70 587.44,-70"/>
<polygon fill="#cd1d91" stroke="#cd1d91" stroke-width="2" points="586.97,-73.5 596.97,-70 586.97,-66.5 586.97,-73.5"/>
</a>
</g>
</g>
<!-- node_System(5) -->
<g id="node10" class="node">
<title>node_System(5)</title>
<g id="a_node10"><a xlink:title="bevy_diagnostic::system_information_diagnostics_plugin::internal::log_system_info">
<polygon fill="white" stroke="black" points="572,-52 448,-52 448,-16 572,-16 572,-52"/>
<text text-anchor="middle" x="510" y="-30.3" font-family="Times,serif" font-size="14.00">log_system_info</text>
</a>
</g>
</g>
<!-- set_marker_node_Set(6)&#45;&gt;set_marker_node_Set(3) -->
<g id="edge5" class="edge">
<title>set_marker_node_Set(6)&#45;&gt;set_marker_node_Set(3)</title>
<g id="a_edge5"><a xlink:title="PostStartup → PostStartupFlush">
<path fill="none" stroke="#1dc4cc" stroke-width="2" d="M1115,-70C1118,-70 1121,-70 1124,-70"/>
<polygon fill="#1dc4cc" stroke="#1dc4cc" stroke-width="2" points="1113.98,-73.5 1123.98,-70 1113.98,-66.5 1113.98,-73.5"/>
</a>
</g>
</g>
<!-- set_marker_node_Set(7) -->
<!-- node_System(3) -->
<g id="node13" class="node">
<title>node_System(3)</title>
<g id="a_node13"><a xlink:title="bevy_transform::systems::sync_simple_transforms">
<polygon fill="white" stroke="black" points="1041.5,-387 862.5,-387 862.5,-351 1041.5,-351 1041.5,-387"/>
<text text-anchor="middle" x="952" y="-365.3" font-family="Times,serif" font-size="14.00">sync_simple_transforms</text>
</a>
</g>
</g>
<!-- node_System(4) -->
<g id="node14" class="node">
<title>node_System(4)</title>
<g id="a_node14"><a xlink:title="bevy_transform::systems::propagate_transforms">
<polygon fill="white" stroke="black" points="1035,-333 869,-333 869,-297 1035,-297 1035,-333"/>
<text text-anchor="middle" x="952" y="-311.3" font-family="Times,serif" font-size="14.00">propagate_transforms</text>
</a>
</g>
</g>
<!-- set_marker_node_Set(11) -->
<!-- node_System(6) -->
<g id="node16" class="node">
<title>node_System(6)</title>
<g id="a_node16"><a xlink:title="bevy_render::camera::camera::camera_system&lt;bevy_render::camera::projection::Projection&gt;">
<polygon fill="white" stroke="black" points="1054,-232 850,-232 850,-196 1054,-196 1054,-232"/>
<text text-anchor="middle" x="952" y="-210.3" font-family="Times,serif" font-size="14.00">camera_system&lt;Projection&gt;</text>
</a>
</g>
</g>
<!-- node_System(7) -->
<g id="node17" class="node">
<title>node_System(7)</title>
<g id="a_node17"><a xlink:title="bevy_render::camera::camera::camera_system&lt;bevy_render::camera::projection::OrthographicProjection&gt;">
<polygon fill="white" stroke="black" points="1099,-178 805,-178 805,-142 1099,-142 1099,-178"/>
<text text-anchor="middle" x="952" y="-156.3" font-family="Times,serif" font-size="14.00">camera_system&lt;OrthographicProjection&gt;</text>
</a>
</g>
</g>
<!-- node_System(8) -->
<g id="node18" class="node">
<title>node_System(8)</title>
<g id="a_node18"><a xlink:title="bevy_render::camera::camera::camera_system&lt;bevy_render::camera::projection::PerspectiveProjection&gt;">
<polygon fill="white" stroke="black" points="1092.5,-124 811.5,-124 811.5,-88 1092.5,-88 1092.5,-124"/>
<text text-anchor="middle" x="952" y="-102.3" font-family="Times,serif" font-size="14.00">camera_system&lt;PerspectiveProjection&gt;</text>
</a>
</g>
</g>
</g>
</svg>
