<?xml version="1.0" encoding="UTF-8" standalone="no"?>
<!DOCTYPE svg PUBLIC "-//W3C//DTD SVG 1.1//EN"
 "http://www.w3.org/Graphics/SVG/1.1/DTD/svg11.dtd">
<!-- Generated by graphviz version 7.1.0 (0)
 -->
<!-- Title: RenderGraph Pages: 1 -->
<svg width="1987pt" height="919pt"
 viewBox="0.00 0.00 1987.00 919.00" xmlns="http://www.w3.org/2000/svg" xmlns:xlink="http://www.w3.org/1999/xlink">
<g id="graph0" class="graph" transform="scale(1 1) rotate(0) translate(4 915)">
<title>RenderGraph</title>
<polygon fill="white" stroke="none" points="-4,4 -4,-915 1983,-915 1983,4 -4,4"/>
<g id="clust1" class="cluster">
<title>cluster_core_2d</title>
<path fill="#e4e9f5" stroke="#e4e9f5" d="M20,-8C20,-8 1959,-8 1959,-8 1965,-8 1971,-14 1971,-20 1971,-20 1971,-335 1971,-335 1971,-341 1965,-347 1959,-347 1959,-347 20,-347 20,-347 14,-347 8,-341 8,-335 8,-335 8,-20 8,-20 8,-14 14,-8 20,-8"/>
<text text-anchor="middle" x="989.5" y="-331.8" font-family="Times,serif" font-size="14.00">core_2d</text>
</g>
<g id="clust2" class="cluster">
<title>cluster_core_2d_draw_ui</title>
<path fill="#c4d0ed" stroke="#c4d0ed" d="M28,-211C28,-211 494,-211 494,-211 500,-211 506,-217 506,-223 506,-223 506,-304 506,-304 506,-310 500,-316 494,-316 494,-316 28,-316 28,-316 22,-316 16,-310 16,-304 16,-304 16,-223 16,-223 16,-217 22,-211 28,-211"/>
<text text-anchor="middle" x="261" y="-300.8" font-family="Times,serif" font-size="14.00">draw_ui</text>
</g>
<g id="clust3" class="cluster">
<title>cluster_core_3d</title>
<path fill="#e4e9f5" stroke="#e4e9f5" d="M20,-355C20,-355 1959,-355 1959,-355 1965,-355 1971,-361 1971,-367 1971,-367 1971,-849 1971,-849 1971,-855 1965,-861 1959,-861 1959,-861 20,-861 20,-861 14,-861 8,-855 8,-849 8,-849 8,-367 8,-367 8,-361 14,-355 20,-355"/>
<text text-anchor="middle" x="989.5" y="-845.8" font-family="Times,serif" font-size="14.00">core_3d</text>
</g>
<g id="clust4" class="cluster">
<title>cluster_core_3d_draw_ui</title>
<path fill="#c4d0ed" stroke="#c4d0ed" d="M28,-725C28,-725 494,-725 494,-725 500,-725 506,-731 506,-737 506,-737 506,-818 506,-818 506,-824 500,-830 494,-830 494,-830 28,-830 28,-830 22,-830 16,-824 16,-818 16,-818 16,-737 16,-737 16,-731 22,-725 28,-725"/>
<text text-anchor="middle" x="261" y="-814.8" font-family="Times,serif" font-size="14.00">draw_ui</text>
</g>
<!-- _core_2d_draw_ui__core_2d_draw_uiGraphInputNode -->
<g id="node1" class="node">
<title>_core_2d_draw_ui__core_2d_draw_uiGraphInputNode</title>
<text text-anchor="start" x="106.5" y="-264.8" font-family="Helvetica,sans-Serif" font-size="14.00">GraphInputNode</text>
<text text-anchor="start" x="122.5" y="-254" font-family="Helvetica,sans-Serif" font-size="10.00" fill="red">GraphInputNode</text>
<polygon fill="none" stroke="black" points="35,-226 35,-247 162,-247 162,-226 35,-226"/>
<text text-anchor="start" x="38" y="-232.8" font-family="Helvetica,sans-Serif" font-size="14.00">view_entity: Entity</text>
<polygon fill="none" stroke="black" points="164,-226 164,-247 291,-247 291,-226 164,-226"/>
<text text-anchor="start" x="167" y="-232.8" font-family="Helvetica,sans-Serif" font-size="14.00">view_entity: Entity</text>
<path fill="none" stroke="black" d="M44,-223.5C44,-223.5 282,-223.5 282,-223.5 288,-223.5 294,-229.5 294,-235.5 294,-235.5 294,-268.5 294,-268.5 294,-274.5 288,-280.5 282,-280.5 282,-280.5 44,-280.5 44,-280.5 38,-280.5 32,-274.5 32,-268.5 32,-268.5 32,-235.5 32,-235.5 32,-229.5 38,-223.5 44,-223.5"/>
</g>
<!-- _core_2d_draw_ui__core_2d_draw_uiui_pass -->
<g id="node2" class="node">
<title>_core_2d_draw_ui__core_2d_draw_uiui_pass</title>
<text text-anchor="start" x="416.5" y="-264.8" font-family="Helvetica,sans-Serif" font-size="14.00">ui_pass</text>
<text text-anchor="start" x="413" y="-254" font-family="Helvetica,sans-Serif" font-size="10.00" fill="red">UiPassNode</text>
<polygon fill="none" stroke="black" points="395,-226 395,-247 477,-247 477,-226 395,-226"/>
<text text-anchor="start" x="398" y="-232.8" font-family="Helvetica,sans-Serif" font-size="14.00">view: Entity</text>
<text text-anchor="start" x="481" y="-232.8" font-family="Helvetica,sans-Serif" font-size="14.00"> </text>
<path fill="none" stroke="black" d="M404,-223.5C404,-223.5 478,-223.5 478,-223.5 484,-223.5 490,-229.5 490,-235.5 490,-235.5 490,-268.5 490,-268.5 490,-274.5 484,-280.5 478,-280.5 478,-280.5 404,-280.5 404,-280.5 398,-280.5 392,-274.5 392,-268.5 392,-268.5 392,-235.5 392,-235.5 392,-229.5 398,-223.5 404,-223.5"/>
</g>
<!-- _core_2d_draw_ui__core_2d_draw_uiGraphInputNode&#45;&gt;_core_2d_draw_ui__core_2d_draw_uiui_pass -->
<g id="edge1" class="edge">
<title>_core_2d_draw_ui__core_2d_draw_uiGraphInputNode:e&#45;&gt;_core_2d_draw_ui__core_2d_draw_uiui_pass:w</title>
<path fill="none" stroke="blue" d="M292,-236C333.26,-236 346.36,-236 382.56,-236"/>
<polygon fill="blue" stroke="blue" points="382.49,-239.5 392.49,-236 382.49,-232.5 382.49,-239.5"/>
</g>
<!-- _core_2d__core_2dbloom -->
<g id="node3" class="node">
<title>_core_2d__core_2dbloom</title>
<text text-anchor="start" x="802" y="-141.8" font-family="Helvetica,sans-Serif" font-size="14.00">bloom</text>
<text text-anchor="start" x="795" y="-131" font-family="Helvetica,sans-Serif" font-size="10.00" fill="red">BloomNode</text>
<polygon fill="none" stroke="black" points="777,-103 777,-124 859,-124 859,-103 777,-103"/>
<text text-anchor="start" x="780" y="-109.8" font-family="Helvetica,sans-Serif" font-size="14.00">view: Entity</text>
<text text-anchor="start" x="863" y="-109.8" font-family="Helvetica,sans-Serif" font-size="14.00"> </text>
<path fill="none" stroke="black" d="M786,-100.5C786,-100.5 860,-100.5 860,-100.5 866,-100.5 872,-106.5 872,-112.5 872,-112.5 872,-145.5 872,-145.5 872,-151.5 866,-157.5 860,-157.5 860,-157.5 786,-157.5 786,-157.5 780,-157.5 774,-151.5 774,-145.5 774,-145.5 774,-112.5 774,-112.5 774,-106.5 780,-100.5 786,-100.5"/>
</g>
<!-- _core_2d__core_2dtonemapping -->
<g id="node7" class="node">
<title>_core_2d__core_2dtonemapping</title>
<text text-anchor="start" x="966.5" y="-141.8" font-family="Helvetica,sans-Serif" font-size="14.00">tonemapping</text>
<text text-anchor="start" x="966" y="-131" font-family="Helvetica,sans-Serif" font-size="10.00" fill="red">TonemappingNode</text>
<polygon fill="none" stroke="black" points="963,-103 963,-124 1047,-124 1047,-103 963,-103"/>
<text text-anchor="start" x="967" y="-109.8" font-family="Helvetica,sans-Serif" font-size="14.00">view: Entity</text>
<text text-anchor="start" x="1052" y="-109.8" font-family="Helvetica,sans-Serif" font-size="14.00"> </text>
<path fill="none" stroke="black" d="M972,-100.5C972,-100.5 1050,-100.5 1050,-100.5 1056,-100.5 1062,-106.5 1062,-112.5 1062,-112.5 1062,-145.5 1062,-145.5 1062,-151.5 1056,-157.5 1050,-157.5 1050,-157.5 972,-157.5 972,-157.5 966,-157.5 960,-151.5 960,-145.5 960,-145.5 960,-112.5 960,-112.5 960,-106.5 966,-100.5 972,-100.5"/>
</g>
<!-- _core_2d__core_2dbloom&#45;&gt;_core_2d__core_2dtonemapping -->
<g id="edge11" class="edge">
<title>_core_2d__core_2dbloom:e&#45;&gt;_core_2d__core_2dtonemapping:w</title>
<path fill="none" stroke="black" d="M870,-140C906.9,-140 918.82,-140 950.84,-140"/>
<polygon fill="black" stroke="black" points="950.49,-143.5 960.49,-140 950.49,-136.5 950.49,-143.5"/>
</g>
<!-- _core_2d__core_2dmain_pass -->
<g id="node4" class="node">
<title>_core_2d__core_2dmain_pass</title>
<text text-anchor="start" x="602.5" y="-181.8" font-family="Helvetica,sans-Serif" font-size="14.00">main_pass</text>
<text text-anchor="start" x="596.5" y="-171" font-family="Helvetica,sans-Serif" font-size="10.00" fill="red">MainPass2dNode</text>
<polygon fill="none" stroke="black" points="591,-143 591,-164 673,-164 673,-143 591,-143"/>
<text text-anchor="start" x="594" y="-149.8" font-family="Helvetica,sans-Serif" font-size="14.00">view: Entity</text>
<text text-anchor="start" x="677" y="-149.8" font-family="Helvetica,sans-Serif" font-size="14.00"> </text>
<path fill="none" stroke="black" d="M600,-140.5C600,-140.5 674,-140.5 674,-140.5 680,-140.5 686,-146.5 686,-152.5 686,-152.5 686,-185.5 686,-185.5 686,-191.5 680,-197.5 674,-197.5 674,-197.5 600,-197.5 600,-197.5 594,-197.5 588,-191.5 588,-185.5 588,-185.5 588,-152.5 588,-152.5 588,-146.5 594,-140.5 600,-140.5"/>
</g>
<!-- _core_2d__core_2dmain_pass&#45;&gt;_core_2d__core_2dbloom -->
<g id="edge3" class="edge">
<title>_core_2d__core_2dmain_pass:e&#45;&gt;_core_2d__core_2dbloom:w</title>
<path fill="none" stroke="black" d="M684,-180C724.58,-180 730.57,-146.86 764.93,-140.91"/>
<polygon fill="black" stroke="black" points="764.81,-144.43 774.49,-140.12 764.24,-137.46 764.81,-144.43"/>
</g>
<!-- _core_2d__core_2dmain_pass&#45;&gt;_core_2d__core_2dtonemapping -->
<g id="edge10" class="edge">
<title>_core_2d__core_2dmain_pass:e&#45;&gt;_core_2d__core_2dtonemapping:w</title>
<path fill="none" stroke="black" d="M684,-180C771.2,-180 794.6,-188.64 880,-171 914.13,-163.95 921.64,-144.71 950.73,-140.73"/>
<polygon fill="black" stroke="black" points="950.74,-144.23 960.49,-140.1 950.29,-137.25 950.74,-144.23"/>
</g>
<!-- _core_2d__core_2dui_pass -->
<g id="node11" class="node">
<title>_core_2d__core_2dui_pass</title>
<text text-anchor="start" x="1684.5" y="-81.8" font-family="Helvetica,sans-Serif" font-size="14.00">ui_pass</text>
<text text-anchor="start" x="1654.5" y="-71" font-family="Helvetica,sans-Serif" font-size="10.00" fill="red">RunGraphOnViewNode</text>
<polygon fill="none" stroke="black" points="1651.5,-43 1651.5,-64 1744.5,-64 1744.5,-43 1651.5,-43"/>
<text text-anchor="start" x="1660" y="-49.8" font-family="Helvetica,sans-Serif" font-size="14.00">view: Entity</text>
<text text-anchor="start" x="1754.5" y="-49.8" font-family="Helvetica,sans-Serif" font-size="14.00"> </text>
<path fill="none" stroke="black" d="M1660,-40.5C1660,-40.5 1757,-40.5 1757,-40.5 1763,-40.5 1769,-46.5 1769,-52.5 1769,-52.5 1769,-85.5 1769,-85.5 1769,-91.5 1763,-97.5 1757,-97.5 1757,-97.5 1660,-97.5 1660,-97.5 1654,-97.5 1648,-91.5 1648,-85.5 1648,-85.5 1648,-52.5 1648,-52.5 1648,-46.5 1654,-40.5 1660,-40.5"/>
</g>
<!-- _core_2d__core_2dmain_pass&#45;&gt;_core_2d__core_2dui_pass -->
<g id="edge17" class="edge">
<title>_core_2d__core_2dmain_pass:e&#45;&gt;_core_2d__core_2dui_pass:w</title>
<path fill="none" stroke="black" d="M684,-180C829.19,-180 864.81,-201 1010,-201 1010,-201 1010,-201 1200,-201 1365.72,-201 1415.31,-205.4 1568,-141 1606.24,-124.87 1605.44,-87.57 1639.37,-81"/>
<polygon fill="black" stroke="black" points="1639.34,-84.51 1648.99,-80.14 1638.72,-77.54 1639.34,-84.51"/>
</g>
<!-- _core_2d__core_2dfxaa -->
<g id="node5" class="node">
<title>_core_2d__core_2dfxaa</title>
<text text-anchor="start" x="1185" y="-101.8" font-family="Helvetica,sans-Serif" font-size="14.00">fxaa</text>
<text text-anchor="start" x="1175.5" y="-91" font-family="Helvetica,sans-Serif" font-size="10.00" fill="red">FxaaNode</text>
<polygon fill="none" stroke="black" points="1153,-63 1153,-84 1235,-84 1235,-63 1153,-63"/>
<text text-anchor="start" x="1156" y="-69.8" font-family="Helvetica,sans-Serif" font-size="14.00">view: Entity</text>
<text text-anchor="start" x="1239" y="-69.8" font-family="Helvetica,sans-Serif" font-size="14.00"> </text>
<path fill="none" stroke="black" d="M1162,-60.5C1162,-60.5 1236,-60.5 1236,-60.5 1242,-60.5 1248,-66.5 1248,-72.5 1248,-72.5 1248,-105.5 1248,-105.5 1248,-111.5 1242,-117.5 1236,-117.5 1236,-117.5 1162,-117.5 1162,-117.5 1156,-117.5 1150,-111.5 1150,-105.5 1150,-105.5 1150,-72.5 1150,-72.5 1150,-66.5 1156,-60.5 1162,-60.5"/>
</g>
<!-- _core_2d__core_2dend_main_pass_post_processing -->
<g id="node10" class="node">
<title>_core_2d__core_2dend_main_pass_post_processing</title>
<text text-anchor="start" x="1341.5" y="-112.8" font-family="Helvetica,sans-Serif" font-size="14.00">end_main_pass_post_processing</text>
<text text-anchor="start" x="1420.5" y="-102" font-family="Helvetica,sans-Serif" font-size="10.00" fill="red">EmptyNode</text>
<path fill="none" stroke="black" d="M1347.33,-94C1347.33,-94 1548.67,-94 1548.67,-94 1554.33,-94 1560,-99.67 1560,-105.33 1560,-105.33 1560,-116.67 1560,-116.67 1560,-122.33 1554.33,-128 1548.67,-128 1548.67,-128 1347.33,-128 1347.33,-128 1341.67,-128 1336,-122.33 1336,-116.67 1336,-116.67 1336,-105.33 1336,-105.33 1336,-99.67 1341.67,-94 1347.33,-94"/>
</g>
<!-- _core_2d__core_2dfxaa&#45;&gt;_core_2d__core_2dend_main_pass_post_processing -->
<g id="edge16" class="edge">
<title>_core_2d__core_2dfxaa:e&#45;&gt;_core_2d__core_2dend_main_pass_post_processing:w</title>
<path fill="none" stroke="black" d="M1246,-100C1283.16,-100 1294.64,-108.96 1326.78,-110.71"/>
<polygon fill="black" stroke="black" points="1326.4,-114.2 1336.49,-110.96 1326.58,-107.2 1326.4,-114.2"/>
</g>
<!-- _core_2d__core_2dmsaa_writeback -->
<g id="node6" class="node">
<title>_core_2d__core_2dmsaa_writeback</title>
<text text-anchor="start" x="388" y="-181.8" font-family="Helvetica,sans-Serif" font-size="14.00">msaa_writeback</text>
<text text-anchor="start" x="392.5" y="-171" font-family="Helvetica,sans-Serif" font-size="10.00" fill="red">MsaaWritebackNode</text>
<polygon fill="none" stroke="black" points="385,-143 385,-164 477,-164 477,-143 385,-143"/>
<text text-anchor="start" x="393" y="-149.8" font-family="Helvetica,sans-Serif" font-size="14.00">view: Entity</text>
<text text-anchor="start" x="486" y="-149.8" font-family="Helvetica,sans-Serif" font-size="14.00"> </text>
<path fill="none" stroke="black" d="M394,-140.5C394,-140.5 488,-140.5 488,-140.5 494,-140.5 500,-146.5 500,-152.5 500,-152.5 500,-185.5 500,-185.5 500,-191.5 494,-197.5 488,-197.5 488,-197.5 394,-197.5 394,-197.5 388,-197.5 382,-191.5 382,-185.5 382,-185.5 382,-152.5 382,-152.5 382,-146.5 388,-140.5 394,-140.5"/>
</g>
<!-- _core_2d__core_2dmsaa_writeback&#45;&gt;_core_2d__core_2dmain_pass -->
<g id="edge5" class="edge">
<title>_core_2d__core_2dmsaa_writeback:e&#45;&gt;_core_2d__core_2dmain_pass:w</title>
<path fill="none" stroke="black" d="M498,-180C534.9,-180 546.82,-180 578.84,-180"/>
<polygon fill="black" stroke="black" points="578.49,-183.5 588.49,-180 578.49,-176.5 578.49,-183.5"/>
</g>
<!-- _core_2d__core_2dtonemapping&#45;&gt;_core_2d__core_2dfxaa -->
<g id="edge7" class="edge">
<title>_core_2d__core_2dtonemapping:e&#45;&gt;_core_2d__core_2dfxaa:w</title>
<path fill="none" stroke="black" d="M1060,-140C1100.58,-140 1106.57,-106.86 1140.93,-100.91"/>
<polygon fill="black" stroke="black" points="1140.81,-104.43 1150.49,-100.12 1140.24,-97.46 1140.81,-104.43"/>
</g>
<!-- _core_2d__core_2dtonemapping&#45;&gt;_core_2d__core_2dend_main_pass_post_processing -->
<g id="edge15" class="edge">
<title>_core_2d__core_2dtonemapping:e&#45;&gt;_core_2d__core_2dend_main_pass_post_processing:w</title>
<path fill="none" stroke="black" d="M1060,-140C1147.2,-140 1169.68,-143.39 1256,-131 1289.07,-126.25 1298.52,-114.1 1326.7,-111.5"/>
<polygon fill="black" stroke="black" points="1326.65,-115 1336.49,-111.07 1326.34,-108.01 1326.65,-115"/>
</g>
<!-- _core_2d__core_2dupscaling -->
<g id="node8" class="node">
<title>_core_2d__core_2dupscaling</title>
<text text-anchor="start" x="1874" y="-81.8" font-family="Helvetica,sans-Serif" font-size="14.00">upscaling</text>
<text text-anchor="start" x="1871" y="-71" font-family="Helvetica,sans-Serif" font-size="10.00" fill="red">UpscalingNode</text>
<polygon fill="none" stroke="black" points="1860,-43 1860,-64 1942,-64 1942,-43 1860,-43"/>
<text text-anchor="start" x="1863" y="-49.8" font-family="Helvetica,sans-Serif" font-size="14.00">view: Entity</text>
<text text-anchor="start" x="1946" y="-49.8" font-family="Helvetica,sans-Serif" font-size="14.00"> </text>
<path fill="none" stroke="black" d="M1869,-40.5C1869,-40.5 1943,-40.5 1943,-40.5 1949,-40.5 1955,-46.5 1955,-52.5 1955,-52.5 1955,-85.5 1955,-85.5 1955,-91.5 1949,-97.5 1943,-97.5 1943,-97.5 1869,-97.5 1869,-97.5 1863,-97.5 1857,-91.5 1857,-85.5 1857,-85.5 1857,-52.5 1857,-52.5 1857,-46.5 1863,-40.5 1869,-40.5"/>
</g>
<!-- _core_2d__core_2dGraphInputNode -->
<g id="node9" class="node">
<title>_core_2d__core_2dGraphInputNode</title>
<text text-anchor="start" x="106.5" y="-105.8" font-family="Helvetica,sans-Serif" font-size="14.00">GraphInputNode</text>
<text text-anchor="start" x="122.5" y="-95" font-family="Helvetica,sans-Serif" font-size="10.00" fill="red">GraphInputNode</text>
<polygon fill="none" stroke="black" points="35,-67 35,-88 162,-88 162,-67 35,-67"/>
<text text-anchor="start" x="38" y="-73.8" font-family="Helvetica,sans-Serif" font-size="14.00">view_entity: Entity</text>
<polygon fill="none" stroke="black" points="164,-67 164,-88 291,-88 291,-67 164,-67"/>
<text text-anchor="start" x="167" y="-73.8" font-family="Helvetica,sans-Serif" font-size="14.00">view_entity: Entity</text>
<path fill="none" stroke="black" d="M44,-64.5C44,-64.5 282,-64.5 282,-64.5 288,-64.5 294,-70.5 294,-76.5 294,-76.5 294,-109.5 294,-109.5 294,-115.5 288,-121.5 282,-121.5 282,-121.5 44,-121.5 44,-121.5 38,-121.5 32,-115.5 32,-109.5 32,-109.5 32,-76.5 32,-76.5 32,-70.5 38,-64.5 44,-64.5"/>
</g>
<!-- _core_2d__core_2dGraphInputNode&#45;&gt;_core_2d__core_2dbloom -->
<g id="edge2" class="edge">
<title>_core_2d__core_2dGraphInputNode:e&#45;&gt;_core_2d__core_2dbloom:w</title>
<path fill="none" stroke="blue" d="M292,-77C317.07,-77 690.55,-108.12 764.61,-112.49"/>
<polygon fill="blue" stroke="blue" points="764.34,-115.98 774.49,-112.93 764.65,-108.99 764.34,-115.98"/>
</g>
<!-- _core_2d__core_2dGraphInputNode&#45;&gt;_core_2d__core_2dmain_pass -->
<g id="edge4" class="edge">
<title>_core_2d__core_2dGraphInputNode:e&#45;&gt;_core_2d__core_2dmain_pass:w</title>
<path fill="none" stroke="blue" d="M292,-77C330.1,-77 337.03,-92.8 374,-102 432.87,-116.64 449.13,-113.36 508,-128 540.93,-136.19 550.03,-149.62 578.54,-152.46"/>
<polygon fill="blue" stroke="blue" points="578.34,-155.96 588.49,-152.93 578.66,-148.96 578.34,-155.96"/>
</g>
<!-- _core_2d__core_2dGraphInputNode&#45;&gt;_core_2d__core_2dfxaa -->
<g id="edge6" class="edge">
<title>_core_2d__core_2dGraphInputNode:e&#45;&gt;_core_2d__core_2dfxaa:w</title>
<path fill="none" stroke="blue" d="M292,-77C328.77,-77 337.36,-69.08 374,-66 490.1,-56.24 519.49,-57 636,-57 636,-57 636,-57 824,-57 966.1,-57 1004.07,-72.17 1140.68,-72.97"/>
<polygon fill="blue" stroke="blue" points="1140.48,-76.47 1150.49,-73 1140.5,-69.47 1140.48,-76.47"/>
</g>
<!-- _core_2d__core_2dGraphInputNode&#45;&gt;_core_2d__core_2dmsaa_writeback -->
<g id="edge8" class="edge">
<title>_core_2d__core_2dGraphInputNode:e&#45;&gt;_core_2d__core_2dmsaa_writeback:w</title>
<path fill="none" stroke="blue" d="M292,-77C340.89,-77 332.75,-141.59 372.73,-151.68"/>
<polygon fill="blue" stroke="blue" points="372.16,-155.14 382.5,-152.82 372.97,-148.18 372.16,-155.14"/>
</g>
<!-- _core_2d__core_2dGraphInputNode&#45;&gt;_core_2d__core_2dtonemapping -->
<g id="edge9" class="edge">
<title>_core_2d__core_2dGraphInputNode:e&#45;&gt;_core_2d__core_2dtonemapping:w</title>
<path fill="none" stroke="blue" d="M292,-77C553.38,-77 621.85,-47.05 880,-88 913.51,-93.32 922.15,-108.99 950.56,-112.36"/>
<polygon fill="blue" stroke="blue" points="950.31,-115.85 960.49,-112.92 950.7,-108.86 950.31,-115.85"/>
</g>
<!-- _core_2d__core_2dGraphInputNode&#45;&gt;_core_2d__core_2dupscaling -->
<g id="edge12" class="edge">
<title>_core_2d__core_2dGraphInputNode:e&#45;&gt;_core_2d__core_2dupscaling:w</title>
<path fill="none" stroke="blue" d="M292,-77C333.36,-77 334.21,-44.3 374,-33 486.22,-1.13 519.34,-17 636,-17 636,-17 636,-17 1449,-17 1594.85,-17 1633.23,-2.5 1777,-27 1810.57,-32.72 1819.06,-48.87 1847.53,-52.34"/>
<polygon fill="blue" stroke="blue" points="1847.3,-55.83 1857.49,-52.91 1847.71,-48.84 1847.3,-55.83"/>
</g>
<!-- _core_2d__core_2dGraphInputNode&#45;&gt;_core_2d__core_2dui_pass -->
<g id="edge18" class="edge">
<title>_core_2d__core_2dGraphInputNode:e&#45;&gt;_core_2d__core_2dui_pass:w</title>
<path fill="none" stroke="blue" d="M292,-77C329.97,-77 336.59,-59.53 374,-53 488.92,-32.93 519.34,-37 636,-37 636,-37 636,-37 1200,-37 1396.53,-37 1448.2,-52.4 1639.22,-52.98"/>
<polygon fill="blue" stroke="blue" points="1638.98,-56.48 1648.99,-53 1638.99,-49.48 1638.98,-56.48"/>
</g>
<!-- _core_2d__core_2dend_main_pass_post_processing&#45;&gt;_core_2d__core_2dupscaling -->
<g id="edge13" class="edge">
<title>_core_2d__core_2dend_main_pass_post_processing:e&#45;&gt;_core_2d__core_2dupscaling:w</title>
<path fill="none" stroke="black" d="M1558,-111C1655.33,-111 1681.25,-128.49 1777,-111 1811.28,-104.74 1818.67,-84.87 1847.74,-80.75"/>
<polygon fill="black" stroke="black" points="1847.75,-84.26 1857.49,-80.1 1847.28,-77.28 1847.75,-84.26"/>
</g>
<!-- _core_2d__core_2dend_main_pass_post_processing&#45;&gt;_core_2d__core_2dui_pass -->
<g id="edge19" class="edge">
<title>_core_2d__core_2dend_main_pass_post_processing:e&#45;&gt;_core_2d__core_2dui_pass:w</title>
<path fill="none" stroke="black" d="M1558,-111C1597.29,-111 1605.73,-85.54 1639.23,-80.77"/>
<polygon fill="black" stroke="black" points="1639.25,-84.27 1648.99,-80.1 1638.78,-77.29 1639.25,-84.27"/>
</g>
<!-- _core_2d__core_2dui_pass&#45;&gt;_core_2d__core_2dupscaling -->
<g id="edge14" class="edge">
<title>_core_2d__core_2dui_pass:e&#45;&gt;_core_2d__core_2dupscaling:w</title>
<path fill="none" stroke="black" d="M1767.5,-80C1804.04,-80 1815.95,-80 1847.49,-80"/>
<polygon fill="black" stroke="black" points="1847.49,-83.5 1857.49,-80 1847.49,-76.5 1847.49,-83.5"/>
</g>
<!-- _core_3d_draw_ui__core_3d_draw_uiGraphInputNode -->
<g id="node12" class="node">
<title>_core_3d_draw_ui__core_3d_draw_uiGraphInputNode</title>
<text text-anchor="start" x="106.5" y="-778.8" font-family="Helvetica,sans-Serif" font-size="14.00">GraphInputNode</text>
<text text-anchor="start" x="122.5" y="-768" font-family="Helvetica,sans-Serif" font-size="10.00" fill="red">GraphInputNode</text>
<polygon fill="none" stroke="black" points="35,-740 35,-761 162,-761 162,-740 35,-740"/>
<text text-anchor="start" x="38" y="-746.8" font-family="Helvetica,sans-Serif" font-size="14.00">view_entity: Entity</text>
<polygon fill="none" stroke="black" points="164,-740 164,-761 291,-761 291,-740 164,-740"/>
<text text-anchor="start" x="167" y="-746.8" font-family="Helvetica,sans-Serif" font-size="14.00">view_entity: Entity</text>
<path fill="none" stroke="black" d="M44,-737.5C44,-737.5 282,-737.5 282,-737.5 288,-737.5 294,-743.5 294,-749.5 294,-749.5 294,-782.5 294,-782.5 294,-788.5 288,-794.5 282,-794.5 282,-794.5 44,-794.5 44,-794.5 38,-794.5 32,-788.5 32,-782.5 32,-782.5 32,-749.5 32,-749.5 32,-743.5 38,-737.5 44,-737.5"/>
</g>
<!-- _core_3d_draw_ui__core_3d_draw_uiui_pass -->
<g id="node13" class="node">
<title>_core_3d_draw_ui__core_3d_draw_uiui_pass</title>
<text text-anchor="start" x="416.5" y="-778.8" font-family="Helvetica,sans-Serif" font-size="14.00">ui_pass</text>
<text text-anchor="start" x="413" y="-768" font-family="Helvetica,sans-Serif" font-size="10.00" fill="red">UiPassNode</text>
<polygon fill="none" stroke="black" points="395,-740 395,-761 477,-761 477,-740 395,-740"/>
<text text-anchor="start" x="398" y="-746.8" font-family="Helvetica,sans-Serif" font-size="14.00">view: Entity</text>
<text text-anchor="start" x="481" y="-746.8" font-family="Helvetica,sans-Serif" font-size="14.00"> </text>
<path fill="none" stroke="black" d="M404,-737.5C404,-737.5 478,-737.5 478,-737.5 484,-737.5 490,-743.5 490,-749.5 490,-749.5 490,-782.5 490,-782.5 490,-788.5 484,-794.5 478,-794.5 478,-794.5 404,-794.5 404,-794.5 398,-794.5 392,-788.5 392,-782.5 392,-782.5 392,-749.5 392,-749.5 392,-743.5 398,-737.5 404,-737.5"/>
</g>
<!-- _core_3d_draw_ui__core_3d_draw_uiGraphInputNode&#45;&gt;_core_3d_draw_ui__core_3d_draw_uiui_pass -->
<g id="edge20" class="edge">
<title>_core_3d_draw_ui__core_3d_draw_uiGraphInputNode:e&#45;&gt;_core_3d_draw_ui__core_3d_draw_uiui_pass:w</title>
<path fill="none" stroke="blue" d="M292,-750C333.26,-750 346.36,-750 382.56,-750"/>
<polygon fill="blue" stroke="blue" points="382.49,-753.5 392.49,-750 382.49,-746.5 382.49,-753.5"/>
</g>
<!-- _core_3d__core_3dbloom -->
<g id="node14" class="node">
<title>_core_3d__core_3dbloom</title>
<text text-anchor="start" x="802" y="-468.8" font-family="Helvetica,sans-Serif" font-size="14.00">bloom</text>
<text text-anchor="start" x="795" y="-458" font-family="Helvetica,sans-Serif" font-size="10.00" fill="red">BloomNode</text>
<polygon fill="none" stroke="black" points="777,-430 777,-451 859,-451 859,-430 777,-430"/>
<text text-anchor="start" x="780" y="-436.8" font-family="Helvetica,sans-Serif" font-size="14.00">view: Entity</text>
<text text-anchor="start" x="863" y="-436.8" font-family="Helvetica,sans-Serif" font-size="14.00"> </text>
<path fill="none" stroke="black" d="M786,-427.5C786,-427.5 860,-427.5 860,-427.5 866,-427.5 872,-433.5 872,-439.5 872,-439.5 872,-472.5 872,-472.5 872,-478.5 866,-484.5 860,-484.5 860,-484.5 786,-484.5 786,-484.5 780,-484.5 774,-478.5 774,-472.5 774,-472.5 774,-439.5 774,-439.5 774,-433.5 780,-427.5 786,-427.5"/>
</g>
<!-- _core_3d__core_3dtonemapping -->
<g id="node19" class="node">
<title>_core_3d__core_3dtonemapping</title>
<text text-anchor="start" x="966.5" y="-468.8" font-family="Helvetica,sans-Serif" font-size="14.00">tonemapping</text>
<text text-anchor="start" x="966" y="-458" font-family="Helvetica,sans-Serif" font-size="10.00" fill="red">TonemappingNode</text>
<polygon fill="none" stroke="black" points="963,-430 963,-451 1047,-451 1047,-430 963,-430"/>
<text text-anchor="start" x="967" y="-436.8" font-family="Helvetica,sans-Serif" font-size="14.00">view: Entity</text>
<text text-anchor="start" x="1052" y="-436.8" font-family="Helvetica,sans-Serif" font-size="14.00"> </text>
<path fill="none" stroke="black" d="M972,-427.5C972,-427.5 1050,-427.5 1050,-427.5 1056,-427.5 1062,-433.5 1062,-439.5 1062,-439.5 1062,-472.5 1062,-472.5 1062,-478.5 1056,-484.5 1050,-484.5 1050,-484.5 972,-484.5 972,-484.5 966,-484.5 960,-478.5 960,-472.5 960,-472.5 960,-439.5 960,-439.5 960,-433.5 966,-427.5 972,-427.5"/>
</g>
<!-- _core_3d__core_3dbloom&#45;&gt;_core_3d__core_3dtonemapping -->
<g id="edge33" class="edge">
<title>_core_3d__core_3dbloom:e&#45;&gt;_core_3d__core_3dtonemapping:w</title>
<path fill="none" stroke="black" d="M870,-467C906.9,-467 918.82,-467 950.84,-467"/>
<polygon fill="black" stroke="black" points="950.49,-470.5 960.49,-467 950.49,-463.5 950.49,-470.5"/>
</g>
<!-- _core_3d__core_3dmain_pass -->
<g id="node15" class="node">
<title>_core_3d__core_3dmain_pass</title>
<text text-anchor="start" x="602.5" y="-509.8" font-family="Helvetica,sans-Serif" font-size="14.00">main_pass</text>
<text text-anchor="start" x="596.5" y="-499" font-family="Helvetica,sans-Serif" font-size="10.00" fill="red">MainPass3dNode</text>
<polygon fill="none" stroke="black" points="591,-471 591,-492 673,-492 673,-471 591,-471"/>
<text text-anchor="start" x="594" y="-477.8" font-family="Helvetica,sans-Serif" font-size="14.00">view: Entity</text>
<text text-anchor="start" x="677" y="-477.8" font-family="Helvetica,sans-Serif" font-size="14.00"> </text>
<path fill="none" stroke="black" d="M600,-468.5C600,-468.5 674,-468.5 674,-468.5 680,-468.5 686,-474.5 686,-480.5 686,-480.5 686,-513.5 686,-513.5 686,-519.5 680,-525.5 674,-525.5 674,-525.5 600,-525.5 600,-525.5 594,-525.5 588,-519.5 588,-513.5 588,-513.5 588,-480.5 588,-480.5 588,-474.5 594,-468.5 600,-468.5"/>
</g>
<!-- _core_3d__core_3dmain_pass&#45;&gt;_core_3d__core_3dbloom -->
<g id="edge22" class="edge">
<title>_core_3d__core_3dmain_pass:e&#45;&gt;_core_3d__core_3dbloom:w</title>
<path fill="none" stroke="black" d="M684,-508C724.74,-508 730.45,-474.04 764.9,-467.93"/>
<polygon fill="black" stroke="black" points="764.82,-471.45 774.49,-467.13 764.23,-464.48 764.82,-471.45"/>
</g>
<!-- _core_3d__core_3dmain_pass&#45;&gt;_core_3d__core_3dtonemapping -->
<g id="edge32" class="edge">
<title>_core_3d__core_3dmain_pass:e&#45;&gt;_core_3d__core_3dtonemapping:w</title>
<path fill="none" stroke="black" d="M684,-508C771.22,-508 794.62,-515.86 880,-498 914.11,-490.86 921.63,-471.69 950.73,-467.72"/>
<polygon fill="black" stroke="black" points="950.73,-471.23 960.49,-467.1 950.29,-464.25 950.73,-471.23"/>
</g>
<!-- _core_3d__core_3dui_pass -->
<g id="node24" class="node">
<title>_core_3d__core_3dui_pass</title>
<text text-anchor="start" x="1684.5" y="-624.8" font-family="Helvetica,sans-Serif" font-size="14.00">ui_pass</text>
<text text-anchor="start" x="1654.5" y="-614" font-family="Helvetica,sans-Serif" font-size="10.00" fill="red">RunGraphOnViewNode</text>
<polygon fill="none" stroke="black" points="1651.5,-586 1651.5,-607 1744.5,-607 1744.5,-586 1651.5,-586"/>
<text text-anchor="start" x="1660" y="-592.8" font-family="Helvetica,sans-Serif" font-size="14.00">view: Entity</text>
<text text-anchor="start" x="1754.5" y="-592.8" font-family="Helvetica,sans-Serif" font-size="14.00"> </text>
<path fill="none" stroke="black" d="M1660,-583.5C1660,-583.5 1757,-583.5 1757,-583.5 1763,-583.5 1769,-589.5 1769,-595.5 1769,-595.5 1769,-628.5 1769,-628.5 1769,-634.5 1763,-640.5 1757,-640.5 1757,-640.5 1660,-640.5 1660,-640.5 1654,-640.5 1648,-634.5 1648,-628.5 1648,-628.5 1648,-595.5 1648,-595.5 1648,-589.5 1654,-583.5 1660,-583.5"/>
</g>
<!-- _core_3d__core_3dmain_pass&#45;&gt;_core_3d__core_3dui_pass -->
<g id="edge40" class="edge">
<title>_core_3d__core_3dmain_pass:e&#45;&gt;_core_3d__core_3dui_pass:w</title>
<path fill="none" stroke="black" d="M684,-508C850.81,-508 843.19,-694 1010,-694 1010,-694 1010,-694 1200,-694 1398.83,-694 1446.03,-625.68 1639.09,-623.08"/>
<polygon fill="black" stroke="black" points="1639.01,-626.58 1648.99,-623.01 1638.96,-619.58 1639.01,-626.58"/>
</g>
<!-- _core_3d__core_3dfxaa -->
<g id="node16" class="node">
<title>_core_3d__core_3dfxaa</title>
<text text-anchor="start" x="1185" y="-448.8" font-family="Helvetica,sans-Serif" font-size="14.00">fxaa</text>
<text text-anchor="start" x="1175.5" y="-438" font-family="Helvetica,sans-Serif" font-size="10.00" fill="red">FxaaNode</text>
<polygon fill="none" stroke="black" points="1153,-410 1153,-431 1235,-431 1235,-410 1153,-410"/>
<text text-anchor="start" x="1156" y="-416.8" font-family="Helvetica,sans-Serif" font-size="14.00">view: Entity</text>
<text text-anchor="start" x="1239" y="-416.8" font-family="Helvetica,sans-Serif" font-size="14.00"> </text>
<path fill="none" stroke="black" d="M1162,-407.5C1162,-407.5 1236,-407.5 1236,-407.5 1242,-407.5 1248,-413.5 1248,-419.5 1248,-419.5 1248,-452.5 1248,-452.5 1248,-458.5 1242,-464.5 1236,-464.5 1236,-464.5 1162,-464.5 1162,-464.5 1156,-464.5 1150,-458.5 1150,-452.5 1150,-452.5 1150,-419.5 1150,-419.5 1150,-413.5 1156,-407.5 1162,-407.5"/>
</g>
<!-- _core_3d__core_3dend_main_pass_post_processing -->
<g id="node23" class="node">
<title>_core_3d__core_3dend_main_pass_post_processing</title>
<text text-anchor="start" x="1341.5" y="-489.8" font-family="Helvetica,sans-Serif" font-size="14.00">end_main_pass_post_processing</text>
<text text-anchor="start" x="1420.5" y="-479" font-family="Helvetica,sans-Serif" font-size="10.00" fill="red">EmptyNode</text>
<path fill="none" stroke="black" d="M1347.33,-471C1347.33,-471 1548.67,-471 1548.67,-471 1554.33,-471 1560,-476.67 1560,-482.33 1560,-482.33 1560,-493.67 1560,-493.67 1560,-499.33 1554.33,-505 1548.67,-505 1548.67,-505 1347.33,-505 1347.33,-505 1341.67,-505 1336,-499.33 1336,-493.67 1336,-493.67 1336,-482.33 1336,-482.33 1336,-476.67 1341.67,-471 1347.33,-471"/>
</g>
<!-- _core_3d__core_3dfxaa&#45;&gt;_core_3d__core_3dend_main_pass_post_processing -->
<g id="edge39" class="edge">
<title>_core_3d__core_3dfxaa:e&#45;&gt;_core_3d__core_3dend_main_pass_post_processing:w</title>
<path fill="none" stroke="black" d="M1246,-447C1286.74,-447 1292.45,-480.96 1326.9,-487.07"/>
<polygon fill="black" stroke="black" points="1326.23,-490.52 1336.49,-487.87 1326.82,-483.55 1326.23,-490.52"/>
</g>
<!-- _core_3d__core_3dmsaa_writeback -->
<g id="node17" class="node">
<title>_core_3d__core_3dmsaa_writeback</title>
<text text-anchor="start" x="388" y="-674.8" font-family="Helvetica,sans-Serif" font-size="14.00">msaa_writeback</text>
<text text-anchor="start" x="392.5" y="-664" font-family="Helvetica,sans-Serif" font-size="10.00" fill="red">MsaaWritebackNode</text>
<polygon fill="none" stroke="black" points="385,-636 385,-657 477,-657 477,-636 385,-636"/>
<text text-anchor="start" x="393" y="-642.8" font-family="Helvetica,sans-Serif" font-size="14.00">view: Entity</text>
<text text-anchor="start" x="486" y="-642.8" font-family="Helvetica,sans-Serif" font-size="14.00"> </text>
<path fill="none" stroke="black" d="M394,-633.5C394,-633.5 488,-633.5 488,-633.5 494,-633.5 500,-639.5 500,-645.5 500,-645.5 500,-678.5 500,-678.5 500,-684.5 494,-690.5 488,-690.5 488,-690.5 394,-690.5 394,-690.5 388,-690.5 382,-684.5 382,-678.5 382,-678.5 382,-645.5 382,-645.5 382,-639.5 388,-633.5 394,-633.5"/>
</g>
<!-- _core_3d__core_3dmsaa_writeback&#45;&gt;_core_3d__core_3dmain_pass -->
<g id="edge25" class="edge">
<title>_core_3d__core_3dmsaa_writeback:e&#45;&gt;_core_3d__core_3dmain_pass:w</title>
<path fill="none" stroke="black" d="M498,-673C577.86,-673 513.07,-523.72 578.81,-509.14"/>
<polygon fill="black" stroke="black" points="578.9,-512.65 588.49,-508.15 578.19,-505.69 578.9,-512.65"/>
</g>
<!-- _core_3d__core_3dprepass -->
<g id="node18" class="node">
<title>_core_3d__core_3dprepass</title>
<text text-anchor="start" x="415" y="-508.8" font-family="Helvetica,sans-Serif" font-size="14.00">prepass</text>
<text text-anchor="start" x="409.5" y="-498" font-family="Helvetica,sans-Serif" font-size="10.00" fill="red">PrepassNode</text>
<polygon fill="none" stroke="black" points="395,-470 395,-491 477,-491 477,-470 395,-470"/>
<text text-anchor="start" x="398" y="-476.8" font-family="Helvetica,sans-Serif" font-size="14.00">view: Entity</text>
<text text-anchor="start" x="481" y="-476.8" font-family="Helvetica,sans-Serif" font-size="14.00"> </text>
<path fill="none" stroke="black" d="M404,-467.5C404,-467.5 478,-467.5 478,-467.5 484,-467.5 490,-473.5 490,-479.5 490,-479.5 490,-512.5 490,-512.5 490,-518.5 484,-524.5 478,-524.5 478,-524.5 404,-524.5 404,-524.5 398,-524.5 392,-518.5 392,-512.5 392,-512.5 392,-479.5 392,-479.5 392,-473.5 398,-467.5 404,-467.5"/>
</g>
<!-- _core_3d__core_3dprepass&#45;&gt;_core_3d__core_3dmain_pass -->
<g id="edge24" class="edge">
<title>_core_3d__core_3dprepass:e&#45;&gt;_core_3d__core_3dmain_pass:w</title>
<path fill="none" stroke="black" d="M488,-507C529.26,-507 542.35,-507.83 578.55,-507.98"/>
<polygon fill="black" stroke="black" points="578.48,-511.48 588.49,-508 578.49,-504.48 578.48,-511.48"/>
</g>
<!-- _core_3d__core_3dtonemapping&#45;&gt;_core_3d__core_3dfxaa -->
<g id="edge28" class="edge">
<title>_core_3d__core_3dtonemapping:e&#45;&gt;_core_3d__core_3dfxaa:w</title>
<path fill="none" stroke="black" d="M1060,-467C1097.76,-467 1108.21,-450.72 1140.64,-447.53"/>
<polygon fill="black" stroke="black" points="1140.66,-451.04 1150.49,-447.07 1140.33,-444.05 1140.66,-451.04"/>
</g>
<!-- _core_3d__core_3dtonemapping&#45;&gt;_core_3d__core_3dend_main_pass_post_processing -->
<g id="edge38" class="edge">
<title>_core_3d__core_3dtonemapping:e&#45;&gt;_core_3d__core_3dend_main_pass_post_processing:w</title>
<path fill="none" stroke="black" d="M1060,-467C1096.77,-467 1105.39,-474.62 1142,-478 1224.95,-485.67 1248.68,-487.81 1326.63,-487.99"/>
<polygon fill="black" stroke="black" points="1326.48,-491.49 1336.49,-488 1326.49,-484.49 1326.48,-491.49"/>
</g>
<!-- _core_3d__core_3dupscaling -->
<g id="node20" class="node">
<title>_core_3d__core_3dupscaling</title>
<text text-anchor="start" x="1874" y="-489.8" font-family="Helvetica,sans-Serif" font-size="14.00">upscaling</text>
<text text-anchor="start" x="1871" y="-479" font-family="Helvetica,sans-Serif" font-size="10.00" fill="red">UpscalingNode</text>
<polygon fill="none" stroke="black" points="1860,-451 1860,-472 1942,-472 1942,-451 1860,-451"/>
<text text-anchor="start" x="1863" y="-457.8" font-family="Helvetica,sans-Serif" font-size="14.00">view: Entity</text>
<text text-anchor="start" x="1946" y="-457.8" font-family="Helvetica,sans-Serif" font-size="14.00"> </text>
<path fill="none" stroke="black" d="M1869,-448.5C1869,-448.5 1943,-448.5 1943,-448.5 1949,-448.5 1955,-454.5 1955,-460.5 1955,-460.5 1955,-493.5 1955,-493.5 1955,-499.5 1949,-505.5 1943,-505.5 1943,-505.5 1869,-505.5 1869,-505.5 1863,-505.5 1857,-499.5 1857,-493.5 1857,-493.5 1857,-460.5 1857,-460.5 1857,-454.5 1863,-448.5 1869,-448.5"/>
</g>
<!-- _core_3d__core_3dshadow_pass -->
<g id="node21" class="node">
<title>_core_3d__core_3dshadow_pass</title>
<text text-anchor="start" x="398" y="-591.8" font-family="Helvetica,sans-Serif" font-size="14.00">shadow_pass</text>
<text text-anchor="start" x="400.5" y="-581" font-family="Helvetica,sans-Serif" font-size="10.00" fill="red">ShadowPassNode</text>
<polygon fill="none" stroke="black" points="395,-553 395,-574 477,-574 477,-553 395,-553"/>
<text text-anchor="start" x="398" y="-559.8" font-family="Helvetica,sans-Serif" font-size="14.00">view: Entity</text>
<text text-anchor="start" x="481.5" y="-559.8" font-family="Helvetica,sans-Serif" font-size="14.00"> </text>
<path fill="none" stroke="black" d="M403.5,-550.5C403.5,-550.5 478.5,-550.5 478.5,-550.5 484.5,-550.5 490.5,-556.5 490.5,-562.5 490.5,-562.5 490.5,-595.5 490.5,-595.5 490.5,-601.5 484.5,-607.5 478.5,-607.5 478.5,-607.5 403.5,-607.5 403.5,-607.5 397.5,-607.5 391.5,-601.5 391.5,-595.5 391.5,-595.5 391.5,-562.5 391.5,-562.5 391.5,-556.5 397.5,-550.5 403.5,-550.5"/>
</g>
<!-- _core_3d__core_3dshadow_pass&#45;&gt;_core_3d__core_3dmain_pass -->
<g id="edge26" class="edge">
<title>_core_3d__core_3dshadow_pass:e&#45;&gt;_core_3d__core_3dmain_pass:w</title>
<path fill="none" stroke="black" d="M489,-590C542.75,-590 533.88,-519.13 578.83,-509.16"/>
<polygon fill="black" stroke="black" points="578.91,-512.67 588.49,-508.16 578.19,-505.71 578.91,-512.67"/>
</g>
<!-- _core_3d__core_3dGraphInputNode -->
<g id="node22" class="node">
<title>_core_3d__core_3dGraphInputNode</title>
<text text-anchor="start" x="106.5" y="-472.8" font-family="Helvetica,sans-Serif" font-size="14.00">GraphInputNode</text>
<text text-anchor="start" x="122.5" y="-462" font-family="Helvetica,sans-Serif" font-size="10.00" fill="red">GraphInputNode</text>
<polygon fill="none" stroke="black" points="35,-434 35,-455 162,-455 162,-434 35,-434"/>
<text text-anchor="start" x="38" y="-440.8" font-family="Helvetica,sans-Serif" font-size="14.00">view_entity: Entity</text>
<polygon fill="none" stroke="black" points="164,-434 164,-455 291,-455 291,-434 164,-434"/>
<text text-anchor="start" x="167" y="-440.8" font-family="Helvetica,sans-Serif" font-size="14.00">view_entity: Entity</text>
<path fill="none" stroke="black" d="M44,-431.5C44,-431.5 282,-431.5 282,-431.5 288,-431.5 294,-437.5 294,-443.5 294,-443.5 294,-476.5 294,-476.5 294,-482.5 288,-488.5 282,-488.5 282,-488.5 44,-488.5 44,-488.5 38,-488.5 32,-482.5 32,-476.5 32,-476.5 32,-443.5 32,-443.5 32,-437.5 38,-431.5 44,-431.5"/>
</g>
<!-- _core_3d__core_3dGraphInputNode&#45;&gt;_core_3d__core_3dbloom -->
<g id="edge21" class="edge">
<title>_core_3d__core_3dGraphInputNode:e&#45;&gt;_core_3d__core_3dbloom:w</title>
<path fill="none" stroke="blue" d="M292,-444C328.54,-444 337.48,-439.33 374,-438 433.52,-435.83 448.44,-437.78 508,-438 623.27,-438.43 654.87,-439.9 764.76,-440"/>
<polygon fill="blue" stroke="blue" points="764.48,-443.5 774.49,-440 764.49,-436.5 764.48,-443.5"/>
</g>
<!-- _core_3d__core_3dGraphInputNode&#45;&gt;_core_3d__core_3dmain_pass -->
<g id="edge23" class="edge">
<title>_core_3d__core_3dGraphInputNode:e&#45;&gt;_core_3d__core_3dmain_pass:w</title>
<path fill="none" stroke="blue" d="M292,-444C388.12,-444 413.41,-437.89 508,-455 541.51,-461.06 550.05,-476.95 578.52,-480.35"/>
<polygon fill="blue" stroke="blue" points="578.31,-483.85 588.49,-480.91 578.7,-476.86 578.31,-483.85"/>
</g>
<!-- _core_3d__core_3dGraphInputNode&#45;&gt;_core_3d__core_3dfxaa -->
<g id="edge27" class="edge">
<title>_core_3d__core_3dGraphInputNode:e&#45;&gt;_core_3d__core_3dfxaa:w</title>
<path fill="none" stroke="blue" d="M292,-444C330.37,-444 336.57,-425.44 374,-417 488.49,-391.19 518.64,-384 636,-384 636,-384 636,-384 824,-384 893.75,-384 1061.22,-416.57 1140.51,-419.75"/>
<polygon fill="blue" stroke="blue" points="1140.41,-423.25 1150.49,-419.97 1140.57,-416.25 1140.41,-423.25"/>
</g>
<!-- _core_3d__core_3dGraphInputNode&#45;&gt;_core_3d__core_3dmsaa_writeback -->
<g id="edge29" class="edge">
<title>_core_3d__core_3dGraphInputNode:e&#45;&gt;_core_3d__core_3dmsaa_writeback:w</title>
<path fill="none" stroke="blue" d="M292,-444C386.6,-444 293.64,-629.77 372.86,-645.01"/>
<polygon fill="blue" stroke="blue" points="372.22,-648.47 382.49,-645.87 372.84,-641.49 372.22,-648.47"/>
</g>
<!-- _core_3d__core_3dGraphInputNode&#45;&gt;_core_3d__core_3dprepass -->
<g id="edge30" class="edge">
<title>_core_3d__core_3dGraphInputNode:e&#45;&gt;_core_3d__core_3dprepass:w</title>
<path fill="none" stroke="blue" d="M292,-444C336.13,-444 344.68,-474.34 382.98,-479.31"/>
<polygon fill="blue" stroke="blue" points="382.29,-482.78 392.49,-479.91 382.73,-475.79 382.29,-482.78"/>
</g>
<!-- _core_3d__core_3dGraphInputNode&#45;&gt;_core_3d__core_3dtonemapping -->
<g id="edge31" class="edge">
<title>_core_3d__core_3dGraphInputNode:e&#45;&gt;_core_3d__core_3dtonemapping:w</title>
<path fill="none" stroke="blue" d="M292,-444C328.83,-444 337.33,-435.47 374,-432 547.61,-415.58 591.65,-418.78 766,-415 816.65,-413.9 829.89,-407.53 880,-415 913.56,-420 922.16,-435.92 950.56,-439.35"/>
<polygon fill="blue" stroke="blue" points="950.31,-442.84 960.49,-439.91 950.7,-435.85 950.31,-442.84"/>
</g>
<!-- _core_3d__core_3dGraphInputNode&#45;&gt;_core_3d__core_3dupscaling -->
<g id="edge34" class="edge">
<title>_core_3d__core_3dGraphInputNode:e&#45;&gt;_core_3d__core_3dupscaling:w</title>
<path fill="none" stroke="blue" d="M292,-444C336.64,-444 332.06,-401.29 374,-386 483.78,-345.96 519.15,-364 636,-364 636,-364 636,-364 1449,-364 1632.41,-364 1670.23,-457.06 1847.67,-460.88"/>
<polygon fill="blue" stroke="blue" points="1847.45,-464.38 1857.49,-460.98 1847.52,-457.38 1847.45,-464.38"/>
</g>
<!-- _core_3d__core_3dGraphInputNode&#45;&gt;_core_3d__core_3dshadow_pass -->
<g id="edge37" class="edge">
<title>_core_3d__core_3dGraphInputNode:e&#45;&gt;_core_3d__core_3dshadow_pass:w</title>
<path fill="none" stroke="blue" d="M292,-444C357.58,-444 328.35,-549.46 382.81,-561.82"/>
<polygon fill="blue" stroke="blue" points="382.18,-565.28 392.49,-562.84 382.92,-558.31 382.18,-565.28"/>
</g>
<!-- _core_3d__core_3dGraphInputNode&#45;&gt;_core_3d__core_3dui_pass -->
<g id="edge42" class="edge">
<title>_core_3d__core_3dGraphInputNode:e&#45;&gt;_core_3d__core_3dui_pass:w</title>
<path fill="none" stroke="blue" d="M292,-444C413.17,-444 277.67,-630.51 374,-704 397.16,-721.67 606.87,-714 636,-714 636,-714 636,-714 824,-714 1191.25,-714 1277.68,-598.41 1639.18,-596.04"/>
<polygon fill="blue" stroke="blue" points="1639,-599.54 1648.99,-596 1638.98,-592.54 1639,-599.54"/>
</g>
<!-- _core_3d__core_3dend_main_pass_post_processing&#45;&gt;_core_3d__core_3dupscaling -->
<g id="edge35" class="edge">
<title>_core_3d__core_3dend_main_pass_post_processing:e&#45;&gt;_core_3d__core_3dupscaling:w</title>
<path fill="none" stroke="black" d="M1558,-488C1687.86,-488 1723.18,-488 1847.5,-488"/>
<polygon fill="black" stroke="black" points="1847.49,-491.5 1857.49,-488 1847.49,-484.5 1847.49,-491.5"/>
</g>
<!-- _core_3d__core_3dend_main_pass_post_processing&#45;&gt;_core_3d__core_3dui_pass -->
<g id="edge41" class="edge">
<title>_core_3d__core_3dend_main_pass_post_processing:e&#45;&gt;_core_3d__core_3dui_pass:w</title>
<path fill="none" stroke="black" d="M1558,-488C1626.61,-488 1583.36,-608.14 1639.31,-621.75"/>
<polygon fill="black" stroke="black" points="1638.67,-625.2 1649,-622.83 1639.45,-618.24 1638.67,-625.2"/>
</g>
<!-- _core_3d__core_3dui_pass&#45;&gt;_core_3d__core_3dupscaling -->
<g id="edge36" class="edge">
<title>_core_3d__core_3dui_pass:e&#45;&gt;_core_3d__core_3dupscaling:w</title>
<path fill="none" stroke="black" d="M1767.5,-623C1835.88,-623 1792.17,-502.86 1847.85,-489.25"/>
<polygon fill="black" stroke="black" points="1847.95,-492.76 1857.5,-488.17 1847.17,-485.8 1847.95,-492.76"/>
</g>
<!-- _camera_driver -->
<g id="node25" class="node">
<title>_camera_driver</title>
<text text-anchor="start" x="116" y="-891.8" font-family="Helvetica,sans-Serif" font-size="14.00">camera_driver</text>
<text text-anchor="start" x="117" y="-881" font-family="Helvetica,sans-Serif" font-size="10.00" fill="red">CameraDriverNode</text>
<path fill="none" stroke="black" d="M122.33,-873C122.33,-873 203.67,-873 203.67,-873 209.33,-873 215,-878.67 215,-884.33 215,-884.33 215,-895.67 215,-895.67 215,-901.33 209.33,-907 203.67,-907 203.67,-907 122.33,-907 122.33,-907 116.67,-907 111,-901.33 111,-895.67 111,-895.67 111,-884.33 111,-884.33 111,-878.67 116.67,-873 122.33,-873"/>
</g>
</g>
</svg>
