<?xml version="1.0" encoding="UTF-8" standalone="no"?>
<!DOCTYPE svg PUBLIC "-//W3C//DTD SVG 1.1//EN"
 "http://www.w3.org/Graphics/SVG/1.1/DTD/svg11.dtd">
<!-- Generated by graphviz version 12.1.2 (0)
 -->
<!-- Title: RenderGraph Pages: 1 -->
<svg width="6279pt" height="511pt"
 viewBox="0.00 0.00 6278.50 511.00" xmlns="http://www.w3.org/2000/svg" xmlns:xlink="http://www.w3.org/1999/xlink">
<g id="graph0" class="graph" transform="scale(1 1) rotate(0) translate(4 507)">
<title>RenderGraph</title>
<polygon fill="white" stroke="none" points="-4,4 -4,-507 6274.5,-507 6274.5,4 -4,4"/>
<g id="clust1" class="cluster">
<title>cluster_Core2d</title>
<path fill="#e4e9f5" stroke="#e4e9f5" d="M40.25,-8C40.25,-8 4044.75,-8 4044.75,-8 4050.75,-8 4056.75,-14 4056.75,-20 4056.75,-20 4056.75,-199 4056.75,-199 4056.75,-205 4050.75,-211 4044.75,-211 4044.75,-211 40.25,-211 40.25,-211 34.25,-211 28.25,-205 28.25,-199 28.25,-199 28.25,-20 28.25,-20 28.25,-14 34.25,-8 40.25,-8"/>
<text text-anchor="middle" x="2042.5" y="-193.7" font-family="Times,serif" font-size="14.00">Core2d</text>
</g>
<g id="clust2" class="cluster">
<title>cluster_Core2d_SubGraphUi</title>
<path fill="#c4d0ed" stroke="#c4d0ed" d="M110.88,-16C110.88,-16 191.38,-16 191.38,-16 197.38,-16 203.38,-22 203.38,-28 203.38,-28 203.38,-87 203.38,-87 203.38,-93 197.38,-99 191.38,-99 191.38,-99 110.88,-99 110.88,-99 104.88,-99 98.88,-93 98.88,-87 98.88,-87 98.88,-28 98.88,-28 98.88,-22 104.88,-16 110.88,-16"/>
<text text-anchor="middle" x="151.12" y="-81.7" font-family="Times,serif" font-size="14.00">SubGraphUi</text>
</g>
<g id="clust3" class="cluster">
<title>cluster_Core3d</title>
<path fill="#e4e9f5" stroke="#e4e9f5" d="M20,-219C20,-219 6250.5,-219 6250.5,-219 6256.5,-219 6262.5,-225 6262.5,-231 6262.5,-231 6262.5,-441 6262.5,-441 6262.5,-447 6256.5,-453 6250.5,-453 6250.5,-453 20,-453 20,-453 14,-453 8,-447 8,-441 8,-441 8,-231 8,-231 8,-225 14,-219 20,-219"/>
<text text-anchor="middle" x="3135.25" y="-435.7" font-family="Times,serif" font-size="14.00">Core3d</text>
</g>
<g id="clust4" class="cluster">
<title>cluster_Core3d_SubGraphUi</title>
<path fill="#c4d0ed" stroke="#c4d0ed" d="M110.88,-227C110.88,-227 191.38,-227 191.38,-227 197.38,-227 203.38,-233 203.38,-239 203.38,-239 203.38,-298 203.38,-298 203.38,-304 197.38,-310 191.38,-310 191.38,-310 110.88,-310 110.88,-310 104.88,-310 98.88,-304 98.88,-298 98.88,-298 98.88,-239 98.88,-239 98.88,-233 104.88,-227 110.88,-227"/>
<text text-anchor="middle" x="151.12" y="-292.7" font-family="Times,serif" font-size="14.00">SubGraphUi</text>
</g>
<!-- _Core2d_SubGraphUi__Core2d_SubGraphUiUiPass -->
<g id="node1" class="node">
<title>_Core2d_SubGraphUi__Core2d_SubGraphUiUiPass</title>
<text text-anchor="start" x="128.12" y="-44.7" font-family="Helvetica,sans-Serif" font-size="14.00">UiPass</text>
<text text-anchor="start" x="121.75" y="-34.5" font-family="Helvetica,sans-Serif" font-size="10.00" fill="red">UiPassNode</text>
<path fill="none" stroke="black" d="M127.58,-28C127.58,-28 173.67,-28 173.67,-28 179.33,-28 185,-33.67 185,-39.33 185,-39.33 185,-50.67 185,-50.67 185,-56.33 179.33,-62 173.67,-62 173.67,-62 127.58,-62 127.58,-62 121.92,-62 116.25,-56.33 116.25,-50.67 116.25,-50.67 116.25,-39.33 116.25,-39.33 116.25,-33.67 121.92,-28 127.58,-28"/>
</g>
<!-- _Core2d__Core2dContrastAdaptiveSharpening -->
<g id="node2" class="node">
<title>_Core2d__Core2dContrastAdaptiveSharpening</title>
<text text-anchor="start" x="2990.5" y="-116.7" font-family="Helvetica,sans-Serif" font-size="14.00">ContrastAdaptiveSharpening</text>
<text text-anchor="start" x="3068.88" y="-106.5" font-family="Helvetica,sans-Serif" font-size="10.00" fill="red">CasNode</text>
<path fill="none" stroke="black" d="M2996.33,-100C2996.33,-100 3184.92,-100 3184.92,-100 3190.58,-100 3196.25,-105.67 3196.25,-111.33 3196.25,-111.33 3196.25,-122.67 3196.25,-122.67 3196.25,-128.33 3190.58,-134 3184.92,-134 3184.92,-134 2996.33,-134 2996.33,-134 2990.67,-134 2985,-128.33 2985,-122.67 2985,-122.67 2985,-111.33 2985,-111.33 2985,-105.67 2990.67,-100 2996.33,-100"/>
</g>
<!-- _Core2d__Core2dEndMainPassPostProcessing -->
<g id="node4" class="node">
<title>_Core2d__Core2dEndMainPassPostProcessing</title>
<text text-anchor="start" x="3289.75" y="-76.7" font-family="Helvetica,sans-Serif" font-size="14.00">EndMainPassPostProcessing</text>
<text text-anchor="start" x="3358.38" y="-66.5" font-family="Helvetica,sans-Serif" font-size="10.00" fill="red">EmptyNode</text>
<path fill="none" stroke="black" d="M3295.58,-60C3295.58,-60 3478.17,-60 3478.17,-60 3483.83,-60 3489.5,-65.67 3489.5,-71.33 3489.5,-71.33 3489.5,-82.67 3489.5,-82.67 3489.5,-88.33 3483.83,-94 3478.17,-94 3478.17,-94 3295.58,-94 3295.58,-94 3289.92,-94 3284.25,-88.33 3284.25,-82.67 3284.25,-82.67 3284.25,-71.33 3284.25,-71.33 3284.25,-65.67 3289.92,-60 3295.58,-60"/>
</g>
<!-- _Core2d__Core2dContrastAdaptiveSharpening&#45;&gt;_Core2d__Core2dEndMainPassPostProcessing -->
<g id="edge6" class="edge">
<title>_Core2d__Core2dContrastAdaptiveSharpening:e&#45;&gt;_Core2d__Core2dEndMainPassPostProcessing:w</title>
<path fill="none" stroke="black" d="M3194.25,-117C3234.83,-117 3240.82,-83.86 3275.18,-77.91"/>
<polygon fill="black" stroke="black" points="3275.06,-81.43 3284.74,-77.12 3274.49,-74.46 3275.06,-81.43"/>
</g>
<!-- _Core2d__Core2dEndMainPass -->
<g id="node3" class="node">
<title>_Core2d__Core2dEndMainPass</title>
<text text-anchor="start" x="1397.12" y="-96.7" font-family="Helvetica,sans-Serif" font-size="14.00">EndMainPass</text>
<text text-anchor="start" x="1414" y="-86.5" font-family="Helvetica,sans-Serif" font-size="10.00" fill="red">EmptyNode</text>
<path fill="none" stroke="black" d="M1402.96,-80C1402.96,-80 1482.04,-80 1482.04,-80 1487.71,-80 1493.38,-85.67 1493.38,-91.33 1493.38,-91.33 1493.38,-102.67 1493.38,-102.67 1493.38,-108.33 1487.71,-114 1482.04,-114 1482.04,-114 1402.96,-114 1402.96,-114 1397.29,-114 1391.62,-108.33 1391.62,-102.67 1391.62,-102.67 1391.62,-91.33 1391.62,-91.33 1391.62,-85.67 1397.29,-80 1402.96,-80"/>
</g>
<!-- _Core2d__Core2dUiPass -->
<g id="node6" class="node">
<title>_Core2d__Core2dUiPass</title>
<text text-anchor="start" x="3650.12" y="-36.7" font-family="Helvetica,sans-Serif" font-size="14.00">UiPass</text>
<text text-anchor="start" x="3617.12" y="-26.5" font-family="Helvetica,sans-Serif" font-size="10.00" fill="red">RunGraphOnViewNode</text>
<path fill="none" stroke="black" d="M3622.96,-20C3622.96,-20 3722.29,-20 3722.29,-20 3727.96,-20 3733.62,-25.67 3733.62,-31.33 3733.62,-31.33 3733.62,-42.67 3733.62,-42.67 3733.62,-48.33 3727.96,-54 3722.29,-54 3722.29,-54 3622.96,-54 3622.96,-54 3617.29,-54 3611.62,-48.33 3611.62,-42.67 3611.62,-42.67 3611.62,-31.33 3611.62,-31.33 3611.62,-25.67 3617.29,-20 3622.96,-20"/>
</g>
<!-- _Core2d__Core2dEndMainPass&#45;&gt;_Core2d__Core2dUiPass -->
<g id="edge9" class="edge">
<title>_Core2d__Core2dEndMainPass:e&#45;&gt;_Core2d__Core2dUiPass:w</title>
<path fill="none" stroke="black" d="M1491.38,-97C1533.28,-97 1536.23,-67.68 1576.75,-57 1799.55,1.72 1863.22,-17 2093.62,-17 2093.62,-17 2093.62,-17 3091.62,-17 3319.94,-17 3379.49,-36.34 3602.2,-36.98"/>
<polygon fill="black" stroke="black" points="3602.11,-40.48 3612.11,-37 3602.12,-33.48 3602.11,-40.48"/>
</g>
<!-- _Core2d__Core2dBloom -->
<g id="node7" class="node">
<title>_Core2d__Core2dBloom</title>
<text text-anchor="start" x="1715.88" y="-86.7" font-family="Helvetica,sans-Serif" font-size="14.00">Bloom</text>
<text text-anchor="start" x="1658.88" y="-76.5" font-family="Helvetica,sans-Serif" font-size="10.00" fill="red">ViewNodeRunner&lt;BloomNode&gt;</text>
<path fill="none" stroke="black" d="M1664.71,-70C1664.71,-70 1810.54,-70 1810.54,-70 1816.21,-70 1821.88,-75.67 1821.88,-81.33 1821.88,-81.33 1821.88,-92.67 1821.88,-92.67 1821.88,-98.33 1816.21,-104 1810.54,-104 1810.54,-104 1664.71,-104 1664.71,-104 1659.04,-104 1653.38,-98.33 1653.38,-92.67 1653.38,-92.67 1653.38,-81.33 1653.38,-81.33 1653.38,-75.67 1659.04,-70 1664.71,-70"/>
</g>
<!-- _Core2d__Core2dEndMainPass&#45;&gt;_Core2d__Core2dBloom -->
<g id="edge11" class="edge">
<title>_Core2d__Core2dEndMainPass:e&#45;&gt;_Core2d__Core2dBloom:w</title>
<path fill="none" stroke="black" d="M1491.38,-97C1560.41,-97 1580.22,-88.06 1643.87,-87.09"/>
<polygon fill="black" stroke="black" points="1643.89,-90.59 1653.86,-87.01 1643.84,-83.59 1643.89,-90.59"/>
</g>
<!-- _Core2d__Core2dTonemapping -->
<g id="node14" class="node">
<title>_Core2d__Core2dTonemapping</title>
<text text-anchor="start" x="2381.5" y="-106.7" font-family="Helvetica,sans-Serif" font-size="14.00">Tonemapping</text>
<text text-anchor="start" x="2332.38" y="-96.5" font-family="Helvetica,sans-Serif" font-size="10.00" fill="red">ViewNodeRunner&lt;TonemappingNode&gt;</text>
<path fill="none" stroke="black" d="M2338.21,-90C2338.21,-90 2517.79,-90 2517.79,-90 2523.46,-90 2529.12,-95.67 2529.12,-101.33 2529.12,-101.33 2529.12,-112.67 2529.12,-112.67 2529.12,-118.33 2523.46,-124 2517.79,-124 2517.79,-124 2338.21,-124 2338.21,-124 2332.54,-124 2326.88,-118.33 2326.88,-112.67 2326.88,-112.67 2326.88,-101.33 2326.88,-101.33 2326.88,-95.67 2332.54,-90 2338.21,-90"/>
</g>
<!-- _Core2d__Core2dEndMainPass&#45;&gt;_Core2d__Core2dTonemapping -->
<g id="edge17" class="edge">
<title>_Core2d__Core2dEndMainPass:e&#45;&gt;_Core2d__Core2dTonemapping:w</title>
<path fill="none" stroke="black" d="M1491.38,-97C1530.35,-97 1538.04,-112.53 1576.75,-117 1905.12,-154.95 1992.61,-108.08 2317.71,-107.02"/>
<polygon fill="black" stroke="black" points="2317.37,-110.52 2327.36,-107 2317.36,-103.52 2317.37,-110.52"/>
</g>
<!-- _Core2d__Core2dEndMainPassPostProcessing&#45;&gt;_Core2d__Core2dUiPass -->
<g id="edge10" class="edge">
<title>_Core2d__Core2dEndMainPassPostProcessing:e&#45;&gt;_Core2d__Core2dUiPass:w</title>
<path fill="none" stroke="black" d="M3487.5,-77C3542.29,-77 3553.42,-42.28 3602.24,-37.54"/>
<polygon fill="black" stroke="black" points="3602.29,-41.04 3612.11,-37.07 3601.96,-34.04 3602.29,-41.04"/>
</g>
<!-- _Core2d__Core2dUpscaling -->
<g id="node15" class="node">
<title>_Core2d__Core2dUpscaling</title>
<text text-anchor="start" x="3914.12" y="-56.7" font-family="Helvetica,sans-Serif" font-size="14.00">Upscaling</text>
<text text-anchor="start" x="3861.25" y="-46.5" font-family="Helvetica,sans-Serif" font-size="10.00" fill="red">ViewNodeRunner&lt;UpscalingNode&gt;</text>
<path fill="none" stroke="black" d="M3867.08,-40C3867.08,-40 4029.42,-40 4029.42,-40 4035.08,-40 4040.75,-45.67 4040.75,-51.33 4040.75,-51.33 4040.75,-62.67 4040.75,-62.67 4040.75,-68.33 4035.08,-74 4029.42,-74 4029.42,-74 3867.08,-74 3867.08,-74 3861.42,-74 3855.75,-68.33 3855.75,-62.67 3855.75,-62.67 3855.75,-51.33 3855.75,-51.33 3855.75,-45.67 3861.42,-40 3867.08,-40"/>
</g>
<!-- _Core2d__Core2dEndMainPassPostProcessing&#45;&gt;_Core2d__Core2dUpscaling -->
<g id="edge20" class="edge">
<title>_Core2d__Core2dEndMainPassPostProcessing:e&#45;&gt;_Core2d__Core2dUpscaling:w</title>
<path fill="none" stroke="black" d="M3487.5,-77C3615.69,-77 3647.95,-76.99 3775.75,-67 3808.21,-64.46 3818.71,-58.56 3846.27,-57.26"/>
<polygon fill="black" stroke="black" points="3846.32,-60.76 3856.24,-57.03 3846.16,-53.76 3846.32,-60.76"/>
</g>
<!-- _Core2d__Core2dStartMainPass -->
<g id="node5" class="node">
<title>_Core2d__Core2dStartMainPass</title>
<text text-anchor="start" x="443.88" y="-124.7" font-family="Helvetica,sans-Serif" font-size="14.00">StartMainPass</text>
<text text-anchor="start" x="464.12" y="-114.5" font-family="Helvetica,sans-Serif" font-size="10.00" fill="red">EmptyNode</text>
<path fill="none" stroke="black" d="M449.71,-108C449.71,-108 535.54,-108 535.54,-108 541.21,-108 546.88,-113.67 546.88,-119.33 546.88,-119.33 546.88,-130.67 546.88,-130.67 546.88,-136.33 541.21,-142 535.54,-142 535.54,-142 449.71,-142 449.71,-142 444.04,-142 438.38,-136.33 438.38,-130.67 438.38,-130.67 438.38,-119.33 438.38,-119.33 438.38,-113.67 444.04,-108 449.71,-108"/>
</g>
<!-- _Core2d__Core2dMainOpaquePass -->
<g id="node8" class="node">
<title>_Core2d__Core2dMainOpaquePass</title>
<text text-anchor="start" x="775" y="-121.7" font-family="Helvetica,sans-Serif" font-size="14.00">MainOpaquePass</text>
<text text-anchor="start" x="723.62" y="-111.5" font-family="Helvetica,sans-Serif" font-size="10.00" fill="red">ViewNodeRunner&lt;MainOpaquePass2dNode&gt;</text>
<path fill="none" stroke="black" d="M729.46,-105C729.46,-105 939.04,-105 939.04,-105 944.71,-105 950.38,-110.67 950.38,-116.33 950.38,-116.33 950.38,-127.67 950.38,-127.67 950.38,-133.33 944.71,-139 939.04,-139 939.04,-139 729.46,-139 729.46,-139 723.79,-139 718.12,-133.33 718.12,-127.67 718.12,-127.67 718.12,-116.33 718.12,-116.33 718.12,-110.67 723.79,-105 729.46,-105"/>
</g>
<!-- _Core2d__Core2dStartMainPass&#45;&gt;_Core2d__Core2dMainOpaquePass -->
<g id="edge12" class="edge">
<title>_Core2d__Core2dStartMainPass:e&#45;&gt;_Core2d__Core2dMainOpaquePass:w</title>
<path fill="none" stroke="black" d="M544.88,-125C618.82,-125 640.1,-122.3 708.69,-122.02"/>
<polygon fill="black" stroke="black" points="708.62,-125.52 718.61,-122 708.6,-118.52 708.62,-125.52"/>
</g>
<!-- _Core2d__Core2dUiPass&#45;&gt;_Core2d__Core2dUpscaling -->
<g id="edge21" class="edge">
<title>_Core2d__Core2dUiPass:e&#45;&gt;_Core2d__Core2dUpscaling:w</title>
<path fill="none" stroke="black" d="M3731.62,-37C3784.39,-37 3799,-54.29 3846.4,-56.72"/>
<polygon fill="black" stroke="black" points="3846.15,-60.21 3856.24,-56.96 3846.33,-53.21 3846.15,-60.21"/>
</g>
<!-- _Core2d__Core2dPostProcessing -->
<g id="node12" class="node">
<title>_Core2d__Core2dPostProcessing</title>
<text text-anchor="start" x="2042.88" y="-66.7" font-family="Helvetica,sans-Serif" font-size="14.00">PostProcessing</text>
<text text-anchor="start" x="1994.88" y="-56.5" font-family="Helvetica,sans-Serif" font-size="10.00" fill="red">ViewNodeRunner&lt;PostProcessingNode&gt;</text>
<path fill="none" stroke="black" d="M2000.71,-50C2000.71,-50 2188.54,-50 2188.54,-50 2194.21,-50 2199.88,-55.67 2199.88,-61.33 2199.88,-61.33 2199.88,-72.67 2199.88,-72.67 2199.88,-78.33 2194.21,-84 2188.54,-84 2188.54,-84 2000.71,-84 2000.71,-84 1995.04,-84 1989.38,-78.33 1989.38,-72.67 1989.38,-72.67 1989.38,-61.33 1989.38,-61.33 1989.38,-55.67 1995.04,-50 2000.71,-50"/>
</g>
<!-- _Core2d__Core2dBloom&#45;&gt;_Core2d__Core2dPostProcessing -->
<g id="edge15" class="edge">
<title>_Core2d__Core2dBloom:e&#45;&gt;_Core2d__Core2dPostProcessing:w</title>
<path fill="none" stroke="black" d="M1819.88,-87C1892.72,-87 1912.65,-68.98 1980.12,-67.15"/>
<polygon fill="black" stroke="black" points="1979.91,-70.65 1989.86,-67.02 1979.82,-63.65 1979.91,-70.65"/>
</g>
<!-- _Core2d__Core2dBloom&#45;&gt;_Core2d__Core2dTonemapping -->
<g id="edge18" class="edge">
<title>_Core2d__Core2dBloom:e&#45;&gt;_Core2d__Core2dTonemapping:w</title>
<path fill="none" stroke="black" d="M1819.88,-87C1886.97,-87 1903.48,-93.84 1970.5,-97 2125.78,-104.32 2167.52,-106.88 2317.41,-107"/>
<polygon fill="black" stroke="black" points="2317.36,-110.5 2327.36,-107 2317.36,-103.5 2317.36,-110.5"/>
</g>
<!-- _Core2d__Core2dMainTransparentPass -->
<g id="node9" class="node">
<title>_Core2d__Core2dMainTransparentPass</title>
<text text-anchor="start" x="1101.25" y="-101.7" font-family="Helvetica,sans-Serif" font-size="14.00">MainTransparentPass</text>
<text text-anchor="start" x="1054" y="-91.5" font-family="Helvetica,sans-Serif" font-size="10.00" fill="red">ViewNodeRunner&lt;MainTransparentPass2dNode&gt;</text>
<path fill="none" stroke="black" d="M1059.83,-85C1059.83,-85 1288.92,-85 1288.92,-85 1294.58,-85 1300.25,-90.67 1300.25,-96.33 1300.25,-96.33 1300.25,-107.67 1300.25,-107.67 1300.25,-113.33 1294.58,-119 1288.92,-119 1288.92,-119 1059.83,-119 1059.83,-119 1054.17,-119 1048.5,-113.33 1048.5,-107.67 1048.5,-107.67 1048.5,-96.33 1048.5,-96.33 1048.5,-90.67 1054.17,-85 1059.83,-85"/>
</g>
<!-- _Core2d__Core2dMainOpaquePass&#45;&gt;_Core2d__Core2dMainTransparentPass -->
<g id="edge13" class="edge">
<title>_Core2d__Core2dMainOpaquePass:e&#45;&gt;_Core2d__Core2dMainTransparentPass:w</title>
<path fill="none" stroke="black" d="M948.38,-122C990.65,-122 1002.32,-105.29 1039.34,-102.42"/>
<polygon fill="black" stroke="black" points="1039.13,-105.93 1048.99,-102.06 1038.86,-98.93 1039.13,-105.93"/>
</g>
<!-- _Core2d__Core2dMainTransparentPass&#45;&gt;_Core2d__Core2dEndMainPass -->
<g id="edge3" class="edge">
<title>_Core2d__Core2dMainTransparentPass:e&#45;&gt;_Core2d__Core2dEndMainPass:w</title>
<path fill="none" stroke="black" d="M1298.25,-102C1336.72,-102 1348.93,-97.89 1382.48,-97.12"/>
<polygon fill="black" stroke="black" points="1382.15,-100.63 1392.11,-97.02 1382.07,-93.63 1382.15,-100.63"/>
</g>
<!-- _Core2d__Core2dFxaa -->
<g id="node10" class="node">
<title>_Core2d__Core2dFxaa</title>
<text text-anchor="start" x="2754.62" y="-76.7" font-family="Helvetica,sans-Serif" font-size="14.00">Fxaa</text>
<text text-anchor="start" x="2696.12" y="-66.5" font-family="Helvetica,sans-Serif" font-size="10.00" fill="red">ViewNodeRunner&lt;FxaaNode&gt;</text>
<path fill="none" stroke="black" d="M2701.96,-60C2701.96,-60 2840.29,-60 2840.29,-60 2845.96,-60 2851.62,-65.67 2851.62,-71.33 2851.62,-71.33 2851.62,-82.67 2851.62,-82.67 2851.62,-88.33 2845.96,-94 2840.29,-94 2840.29,-94 2701.96,-94 2701.96,-94 2696.29,-94 2690.62,-88.33 2690.62,-82.67 2690.62,-82.67 2690.62,-71.33 2690.62,-71.33 2690.62,-65.67 2696.29,-60 2701.96,-60"/>
</g>
<!-- _Core2d__Core2dFxaa&#45;&gt;_Core2d__Core2dContrastAdaptiveSharpening -->
<g id="edge2" class="edge">
<title>_Core2d__Core2dFxaa:e&#45;&gt;_Core2d__Core2dContrastAdaptiveSharpening:w</title>
<path fill="none" stroke="black" d="M2849.62,-77C2909.24,-77 2921.93,-112.16 2975.68,-116.55"/>
<polygon fill="black" stroke="black" points="2975.36,-120.04 2985.49,-116.94 2975.63,-113.05 2975.36,-120.04"/>
</g>
<!-- _Core2d__Core2dFxaa&#45;&gt;_Core2d__Core2dEndMainPassPostProcessing -->
<g id="edge5" class="edge">
<title>_Core2d__Core2dFxaa:e&#45;&gt;_Core2d__Core2dEndMainPassPostProcessing:w</title>
<path fill="none" stroke="black" d="M2849.62,-77C3039.8,-77 3090.19,-77 3274.77,-77"/>
<polygon fill="black" stroke="black" points="3274.74,-80.5 3284.74,-77 3274.74,-73.5 3274.74,-80.5"/>
</g>
<!-- _Core2d__Core2dMsaaWriteback -->
<g id="node11" class="node">
<title>_Core2d__Core2dMsaaWriteback</title>
<text text-anchor="start" x="97.75" y="-127.7" font-family="Helvetica,sans-Serif" font-size="14.00">MsaaWriteback</text>
<text text-anchor="start" x="49.75" y="-117.5" font-family="Helvetica,sans-Serif" font-size="10.00" fill="red">ViewNodeRunner&lt;MsaaWritebackNode&gt;</text>
<path fill="none" stroke="black" d="M55.58,-111C55.58,-111 245.67,-111 245.67,-111 251.33,-111 257,-116.67 257,-122.33 257,-122.33 257,-133.67 257,-133.67 257,-139.33 251.33,-145 245.67,-145 245.67,-145 55.58,-145 55.58,-145 49.92,-145 44.25,-139.33 44.25,-133.67 44.25,-133.67 44.25,-122.33 44.25,-122.33 44.25,-116.67 49.92,-111 55.58,-111"/>
</g>
<!-- _Core2d__Core2dMsaaWriteback&#45;&gt;_Core2d__Core2dStartMainPass -->
<g id="edge8" class="edge">
<title>_Core2d__Core2dMsaaWriteback:e&#45;&gt;_Core2d__Core2dStartMainPass:w</title>
<path fill="none" stroke="black" d="M255,-128C333.54,-128 355.91,-125.27 429.18,-125.02"/>
<polygon fill="black" stroke="black" points="428.87,-128.52 438.86,-125 428.86,-121.52 428.87,-128.52"/>
</g>
<!-- _Core2d__Core2dPostProcessing&#45;&gt;_Core2d__Core2dTonemapping -->
<g id="edge19" class="edge">
<title>_Core2d__Core2dPostProcessing:e&#45;&gt;_Core2d__Core2dTonemapping:w</title>
<path fill="none" stroke="black" d="M2197.88,-67C2254.71,-67 2266.54,-101.86 2317.4,-106.49"/>
<polygon fill="black" stroke="black" points="2317.22,-109.99 2327.36,-106.93 2317.53,-103 2317.22,-109.99"/>
</g>
<!-- _Core2d__Core2dSmaa -->
<g id="node13" class="node">
<title>_Core2d__Core2dSmaa</title>
<text text-anchor="start" x="2751.62" y="-156.7" font-family="Helvetica,sans-Serif" font-size="14.00">Smaa</text>
<text text-anchor="start" x="2694.25" y="-146.5" font-family="Helvetica,sans-Serif" font-size="10.00" fill="red">ViewNodeRunner&lt;SmaaNode&gt;</text>
<path fill="none" stroke="black" d="M2700.08,-140C2700.08,-140 2842.17,-140 2842.17,-140 2847.83,-140 2853.5,-145.67 2853.5,-151.33 2853.5,-151.33 2853.5,-162.67 2853.5,-162.67 2853.5,-168.33 2847.83,-174 2842.17,-174 2842.17,-174 2700.08,-174 2700.08,-174 2694.42,-174 2688.75,-168.33 2688.75,-162.67 2688.75,-162.67 2688.75,-151.33 2688.75,-151.33 2688.75,-145.67 2694.42,-140 2700.08,-140"/>
</g>
<!-- _Core2d__Core2dSmaa&#45;&gt;_Core2d__Core2dEndMainPassPostProcessing -->
<g id="edge7" class="edge">
<title>_Core2d__Core2dSmaa:e&#45;&gt;_Core2d__Core2dEndMainPassPostProcessing:w</title>
<path fill="none" stroke="black" d="M2851.5,-157C3008.34,-157 3057.88,-203.35 3204.25,-147 3245.13,-131.26 3239.75,-85.81 3275.12,-78.11"/>
<polygon fill="black" stroke="black" points="3275.14,-81.63 3284.74,-77.15 3274.45,-74.66 3275.14,-81.63"/>
</g>
<!-- _Core2d__Core2dTonemapping&#45;&gt;_Core2d__Core2dContrastAdaptiveSharpening -->
<g id="edge1" class="edge">
<title>_Core2d__Core2dTonemapping:e&#45;&gt;_Core2d__Core2dContrastAdaptiveSharpening:w</title>
<path fill="none" stroke="black" d="M2527.12,-107C2727.77,-107 2780.62,-116.63 2975.78,-116.99"/>
<polygon fill="black" stroke="black" points="2975.48,-120.49 2985.49,-117 2975.49,-113.49 2975.48,-120.49"/>
</g>
<!-- _Core2d__Core2dTonemapping&#45;&gt;_Core2d__Core2dEndMainPassPostProcessing -->
<g id="edge4" class="edge">
<title>_Core2d__Core2dTonemapping:e&#45;&gt;_Core2d__Core2dEndMainPassPostProcessing:w</title>
<path fill="none" stroke="black" d="M2527.12,-107C2582.86,-107 2583.24,-60.76 2637.25,-47 2773.61,-12.26 3123.5,-73.73 3274.83,-76.88"/>
<polygon fill="black" stroke="black" points="3274.7,-80.37 3284.74,-76.98 3274.78,-73.37 3274.7,-80.37"/>
</g>
<!-- _Core2d__Core2dTonemapping&#45;&gt;_Core2d__Core2dFxaa -->
<g id="edge14" class="edge">
<title>_Core2d__Core2dTonemapping:e&#45;&gt;_Core2d__Core2dFxaa:w</title>
<path fill="none" stroke="black" d="M2527.12,-107C2597.94,-107 2616.02,-80.08 2681.27,-77.24"/>
<polygon fill="black" stroke="black" points="2681.19,-80.74 2691.11,-77.03 2681.04,-73.75 2681.19,-80.74"/>
</g>
<!-- _Core2d__Core2dTonemapping&#45;&gt;_Core2d__Core2dSmaa -->
<g id="edge16" class="edge">
<title>_Core2d__Core2dTonemapping:e&#45;&gt;_Core2d__Core2dSmaa:w</title>
<path fill="none" stroke="black" d="M2527.12,-107C2599.31,-107 2613.37,-152.05 2679.65,-156.63"/>
<polygon fill="black" stroke="black" points="2679.13,-160.11 2689.24,-156.95 2679.36,-153.11 2679.13,-160.11"/>
</g>
<!-- _Core3d_SubGraphUi__Core3d_SubGraphUiUiPass -->
<g id="node16" class="node">
<title>_Core3d_SubGraphUi__Core3d_SubGraphUiUiPass</title>
<text text-anchor="start" x="128.12" y="-255.7" font-family="Helvetica,sans-Serif" font-size="14.00">UiPass</text>
<text text-anchor="start" x="121.75" y="-245.5" font-family="Helvetica,sans-Serif" font-size="10.00" fill="red">UiPassNode</text>
<path fill="none" stroke="black" d="M127.58,-239C127.58,-239 173.67,-239 173.67,-239 179.33,-239 185,-244.67 185,-250.33 185,-250.33 185,-261.67 185,-261.67 185,-267.33 179.33,-273 173.67,-273 173.67,-273 127.58,-273 127.58,-273 121.92,-273 116.25,-267.33 116.25,-261.67 116.25,-261.67 116.25,-250.33 116.25,-250.33 116.25,-244.67 121.92,-239 127.58,-239"/>
</g>
<!-- _Core3d__Core3dContrastAdaptiveSharpening -->
<g id="node17" class="node">
<title>_Core3d__Core3dContrastAdaptiveSharpening</title>
<text text-anchor="start" x="5264.5" y="-327.7" font-family="Helvetica,sans-Serif" font-size="14.00">ContrastAdaptiveSharpening</text>
<text text-anchor="start" x="5342.88" y="-317.5" font-family="Helvetica,sans-Serif" font-size="10.00" fill="red">CasNode</text>
<path fill="none" stroke="black" d="M5270.33,-311C5270.33,-311 5458.92,-311 5458.92,-311 5464.58,-311 5470.25,-316.67 5470.25,-322.33 5470.25,-322.33 5470.25,-333.67 5470.25,-333.67 5470.25,-339.33 5464.58,-345 5458.92,-345 5458.92,-345 5270.33,-345 5270.33,-345 5264.67,-345 5259,-339.33 5259,-333.67 5259,-333.67 5259,-322.33 5259,-322.33 5259,-316.67 5264.67,-311 5270.33,-311"/>
</g>
<!-- _Core3d__Core3dEndMainPassPostProcessing -->
<g id="node20" class="node">
<title>_Core3d__Core3dEndMainPassPostProcessing</title>
<text text-anchor="start" x="5563.75" y="-287.7" font-family="Helvetica,sans-Serif" font-size="14.00">EndMainPassPostProcessing</text>
<text text-anchor="start" x="5632.38" y="-277.5" font-family="Helvetica,sans-Serif" font-size="10.00" fill="red">EmptyNode</text>
<path fill="none" stroke="black" d="M5569.58,-271C5569.58,-271 5752.17,-271 5752.17,-271 5757.83,-271 5763.5,-276.67 5763.5,-282.33 5763.5,-282.33 5763.5,-293.67 5763.5,-293.67 5763.5,-299.33 5757.83,-305 5752.17,-305 5752.17,-305 5569.58,-305 5569.58,-305 5563.92,-305 5558.25,-299.33 5558.25,-293.67 5558.25,-293.67 5558.25,-282.33 5558.25,-282.33 5558.25,-276.67 5563.92,-271 5569.58,-271"/>
</g>
<!-- _Core3d__Core3dContrastAdaptiveSharpening&#45;&gt;_Core3d__Core3dEndMainPassPostProcessing -->
<g id="edge28" class="edge">
<title>_Core3d__Core3dContrastAdaptiveSharpening:e&#45;&gt;_Core3d__Core3dEndMainPassPostProcessing:w</title>
<path fill="none" stroke="black" d="M5468.25,-328C5508.83,-328 5514.82,-294.86 5549.18,-288.91"/>
<polygon fill="black" stroke="black" points="5549.06,-292.43 5558.74,-288.12 5548.49,-285.46 5549.06,-292.43"/>
</g>
<!-- _Core3d__Core3dShadowPass -->
<g id="node18" class="node">
<title>_Core3d__Core3dShadowPass</title>
<text text-anchor="start" x="1131.62" y="-247.7" font-family="Helvetica,sans-Serif" font-size="14.00">ShadowPass</text>
<text text-anchor="start" x="1131.62" y="-237.5" font-family="Helvetica,sans-Serif" font-size="10.00" fill="red">ShadowPassNode</text>
<path fill="none" stroke="black" d="M1137.46,-231C1137.46,-231 1211.29,-231 1211.29,-231 1216.96,-231 1222.62,-236.67 1222.62,-242.33 1222.62,-242.33 1222.62,-253.67 1222.62,-253.67 1222.62,-259.33 1216.96,-265 1211.29,-265 1211.29,-265 1137.46,-265 1137.46,-265 1131.79,-265 1126.12,-259.33 1126.12,-253.67 1126.12,-253.67 1126.12,-242.33 1126.12,-242.33 1126.12,-236.67 1131.79,-231 1137.46,-231"/>
</g>
<!-- _Core3d__Core3dStartMainPass -->
<g id="node22" class="node">
<title>_Core3d__Core3dStartMainPass</title>
<text text-anchor="start" x="1393.75" y="-307.7" font-family="Helvetica,sans-Serif" font-size="14.00">StartMainPass</text>
<text text-anchor="start" x="1414" y="-297.5" font-family="Helvetica,sans-Serif" font-size="10.00" fill="red">EmptyNode</text>
<path fill="none" stroke="black" d="M1399.58,-291C1399.58,-291 1485.42,-291 1485.42,-291 1491.08,-291 1496.75,-296.67 1496.75,-302.33 1496.75,-302.33 1496.75,-313.67 1496.75,-313.67 1496.75,-319.33 1491.08,-325 1485.42,-325 1485.42,-325 1399.58,-325 1399.58,-325 1393.92,-325 1388.25,-319.33 1388.25,-313.67 1388.25,-313.67 1388.25,-302.33 1388.25,-302.33 1388.25,-296.67 1393.92,-291 1399.58,-291"/>
</g>
<!-- _Core3d__Core3dShadowPass&#45;&gt;_Core3d__Core3dStartMainPass -->
<g id="edge33" class="edge">
<title>_Core3d__Core3dShadowPass:e&#45;&gt;_Core3d__Core3dStartMainPass:w</title>
<path fill="none" stroke="black" d="M1220.62,-248C1261.79,-248 1269.45,-264.26 1308.25,-278 1340.97,-289.59 1349.72,-304.45 1378.97,-307.46"/>
<polygon fill="black" stroke="black" points="1378.58,-310.94 1388.74,-307.93 1378.92,-303.95 1378.58,-310.94"/>
</g>
<!-- _Core3d__Core3dEndMainPass -->
<g id="node19" class="node">
<title>_Core3d__Core3dEndMainPass</title>
<text text-anchor="start" x="3341.5" y="-281.7" font-family="Helvetica,sans-Serif" font-size="14.00">EndMainPass</text>
<text text-anchor="start" x="3358.38" y="-271.5" font-family="Helvetica,sans-Serif" font-size="10.00" fill="red">EmptyNode</text>
<path fill="none" stroke="black" d="M3347.33,-265C3347.33,-265 3426.42,-265 3426.42,-265 3432.08,-265 3437.75,-270.67 3437.75,-276.33 3437.75,-276.33 3437.75,-287.67 3437.75,-287.67 3437.75,-293.33 3432.08,-299 3426.42,-299 3426.42,-299 3347.33,-299 3347.33,-299 3341.67,-299 3336,-293.33 3336,-287.67 3336,-287.67 3336,-276.33 3336,-276.33 3336,-270.67 3341.67,-265 3347.33,-265"/>
</g>
<!-- _Core3d__Core3dUiPass -->
<g id="node23" class="node">
<title>_Core3d__Core3dUiPass</title>
<text text-anchor="start" x="5890" y="-247.7" font-family="Helvetica,sans-Serif" font-size="14.00">UiPass</text>
<text text-anchor="start" x="5857" y="-237.5" font-family="Helvetica,sans-Serif" font-size="10.00" fill="red">RunGraphOnViewNode</text>
<path fill="none" stroke="black" d="M5862.83,-231C5862.83,-231 5962.17,-231 5962.17,-231 5967.83,-231 5973.5,-236.67 5973.5,-242.33 5973.5,-242.33 5973.5,-253.67 5973.5,-253.67 5973.5,-259.33 5967.83,-265 5962.17,-265 5962.17,-265 5862.83,-265 5862.83,-265 5857.17,-265 5851.5,-259.33 5851.5,-253.67 5851.5,-253.67 5851.5,-242.33 5851.5,-242.33 5851.5,-236.67 5857.17,-231 5862.83,-231"/>
</g>
<!-- _Core3d__Core3dEndMainPass&#45;&gt;_Core3d__Core3dUiPass -->
<g id="edge34" class="edge">
<title>_Core3d__Core3dEndMainPass:e&#45;&gt;_Core3d__Core3dUiPass:w</title>
<path fill="none" stroke="black" d="M3435.75,-282C3492.75,-282 3890.25,-243 3947.25,-243 3947.25,-243 3947.25,-243 5365.62,-243 5578.66,-243 5634.7,-247.83 5842.21,-248"/>
<polygon fill="black" stroke="black" points="5841.99,-251.5 5851.99,-248 5841.99,-244.5 5841.99,-251.5"/>
</g>
<!-- _Core3d__Core3dBloom -->
<g id="node24" class="node">
<title>_Core3d__Core3dBloom</title>
<text text-anchor="start" x="3926.5" y="-305.7" font-family="Helvetica,sans-Serif" font-size="14.00">Bloom</text>
<text text-anchor="start" x="3869.5" y="-295.5" font-family="Helvetica,sans-Serif" font-size="10.00" fill="red">ViewNodeRunner&lt;BloomNode&gt;</text>
<path fill="none" stroke="black" d="M3875.33,-289C3875.33,-289 4021.17,-289 4021.17,-289 4026.83,-289 4032.5,-294.67 4032.5,-300.33 4032.5,-300.33 4032.5,-311.67 4032.5,-311.67 4032.5,-317.33 4026.83,-323 4021.17,-323 4021.17,-323 3875.33,-323 3875.33,-323 3869.67,-323 3864,-317.33 3864,-311.67 3864,-311.67 3864,-300.33 3864,-300.33 3864,-294.67 3869.67,-289 3875.33,-289"/>
</g>
<!-- _Core3d__Core3dEndMainPass&#45;&gt;_Core3d__Core3dBloom -->
<g id="edge36" class="edge">
<title>_Core3d__Core3dEndMainPass:e&#45;&gt;_Core3d__Core3dBloom:w</title>
<path fill="none" stroke="black" d="M3435.75,-282C3586.87,-282 3625.63,-268.67 3775.75,-286 3812.58,-290.25 3822.97,-303.11 3854.84,-305.59"/>
<polygon fill="black" stroke="black" points="3854.36,-309.07 3864.49,-305.94 3854.62,-302.08 3854.36,-309.07"/>
</g>
<!-- _Core3d__Core3dMotionBlur -->
<g id="node32" class="node">
<title>_Core3d__Core3dMotionBlur</title>
<text text-anchor="start" x="3635.12" y="-315.7" font-family="Helvetica,sans-Serif" font-size="14.00">MotionBlur</text>
<text text-anchor="start" x="3583" y="-305.5" font-family="Helvetica,sans-Serif" font-size="10.00" fill="red">ViewNodeRunner&lt;MotionBlurNode&gt;</text>
<path fill="none" stroke="black" d="M3588.83,-299C3588.83,-299 3756.42,-299 3756.42,-299 3762.08,-299 3767.75,-304.67 3767.75,-310.33 3767.75,-310.33 3767.75,-321.67 3767.75,-321.67 3767.75,-327.33 3762.08,-333 3756.42,-333 3756.42,-333 3588.83,-333 3588.83,-333 3583.17,-333 3577.5,-327.33 3577.5,-321.67 3577.5,-321.67 3577.5,-310.33 3577.5,-310.33 3577.5,-304.67 3583.17,-299 3588.83,-299"/>
</g>
<!-- _Core3d__Core3dEndMainPass&#45;&gt;_Core3d__Core3dMotionBlur -->
<g id="edge46" class="edge">
<title>_Core3d__Core3dEndMainPass:e&#45;&gt;_Core3d__Core3dMotionBlur:w</title>
<path fill="none" stroke="black" d="M3435.75,-282C3497.43,-282 3512.15,-312.01 3568.14,-315.64"/>
<polygon fill="black" stroke="black" points="3567.88,-319.13 3577.99,-315.95 3568.1,-312.14 3567.88,-319.13"/>
</g>
<!-- _Core3d__Core3dTonemapping -->
<g id="node38" class="node">
<title>_Core3d__Core3dTonemapping</title>
<text text-anchor="start" x="4770.62" y="-322.7" font-family="Helvetica,sans-Serif" font-size="14.00">Tonemapping</text>
<text text-anchor="start" x="4721.5" y="-312.5" font-family="Helvetica,sans-Serif" font-size="10.00" fill="red">ViewNodeRunner&lt;TonemappingNode&gt;</text>
<path fill="none" stroke="black" d="M4727.33,-306C4727.33,-306 4906.92,-306 4906.92,-306 4912.58,-306 4918.25,-311.67 4918.25,-317.33 4918.25,-317.33 4918.25,-328.67 4918.25,-328.67 4918.25,-334.33 4912.58,-340 4906.92,-340 4906.92,-340 4727.33,-340 4727.33,-340 4721.67,-340 4716,-334.33 4716,-328.67 4716,-328.67 4716,-317.33 4716,-317.33 4716,-311.67 4721.67,-306 4727.33,-306"/>
</g>
<!-- _Core3d__Core3dEndMainPass&#45;&gt;_Core3d__Core3dTonemapping -->
<g id="edge50" class="edge">
<title>_Core3d__Core3dEndMainPass:e&#45;&gt;_Core3d__Core3dTonemapping:w</title>
<path fill="none" stroke="black" d="M3435.75,-282C3501.65,-282 3505.58,-329.97 3569.5,-346 3732.51,-386.87 3779.19,-363 3947.25,-363 3947.25,-363 3947.25,-363 4230.12,-363 4410.67,-363 4457.69,-374.35 4636,-346 4669.29,-340.71 4678.3,-326.6 4706.61,-323.58"/>
<polygon fill="black" stroke="black" points="4706.68,-327.08 4716.49,-323.08 4706.32,-320.09 4706.68,-327.08"/>
</g>
<!-- _Core3d__Core3dEndMainPassPostProcessing&#45;&gt;_Core3d__Core3dUiPass -->
<g id="edge35" class="edge">
<title>_Core3d__Core3dEndMainPassPostProcessing:e&#45;&gt;_Core3d__Core3dUiPass:w</title>
<path fill="none" stroke="black" d="M5761.5,-288C5802.08,-288 5808.07,-254.86 5842.43,-248.91"/>
<polygon fill="black" stroke="black" points="5842.31,-252.43 5851.99,-248.12 5841.74,-245.46 5842.31,-252.43"/>
</g>
<!-- _Core3d__Core3dUpscaling -->
<g id="node39" class="node">
<title>_Core3d__Core3dUpscaling</title>
<text text-anchor="start" x="6119.88" y="-267.7" font-family="Helvetica,sans-Serif" font-size="14.00">Upscaling</text>
<text text-anchor="start" x="6067" y="-257.5" font-family="Helvetica,sans-Serif" font-size="10.00" fill="red">ViewNodeRunner&lt;UpscalingNode&gt;</text>
<path fill="none" stroke="black" d="M6072.83,-251C6072.83,-251 6235.17,-251 6235.17,-251 6240.83,-251 6246.5,-256.67 6246.5,-262.33 6246.5,-262.33 6246.5,-273.67 6246.5,-273.67 6246.5,-279.33 6240.83,-285 6235.17,-285 6235.17,-285 6072.83,-285 6072.83,-285 6067.17,-285 6061.5,-279.33 6061.5,-273.67 6061.5,-273.67 6061.5,-262.33 6061.5,-262.33 6061.5,-256.67 6067.17,-251 6072.83,-251"/>
</g>
<!-- _Core3d__Core3dEndMainPassPostProcessing&#45;&gt;_Core3d__Core3dUpscaling -->
<g id="edge54" class="edge">
<title>_Core3d__Core3dEndMainPassPostProcessing:e&#45;&gt;_Core3d__Core3dUpscaling:w</title>
<path fill="none" stroke="black" d="M5761.5,-288C5859.38,-288 5883.96,-286.15 5981.5,-278 6013.94,-275.29 6024.46,-269.52 6052.02,-268.25"/>
<polygon fill="black" stroke="black" points="6052.07,-271.75 6061.99,-268.03 6051.91,-264.75 6052.07,-271.75"/>
</g>
<!-- _Core3d__Core3dEndPrepasses -->
<g id="node21" class="node">
<title>_Core3d__Core3dEndPrepasses</title>
<text text-anchor="start" x="1126" y="-367.7" font-family="Helvetica,sans-Serif" font-size="14.00">EndPrepasses</text>
<text text-anchor="start" x="1145.88" y="-357.5" font-family="Helvetica,sans-Serif" font-size="10.00" fill="red">EmptyNode</text>
<path fill="none" stroke="black" d="M1131.83,-351C1131.83,-351 1216.92,-351 1216.92,-351 1222.58,-351 1228.25,-356.67 1228.25,-362.33 1228.25,-362.33 1228.25,-373.67 1228.25,-373.67 1228.25,-379.33 1222.58,-385 1216.92,-385 1216.92,-385 1131.83,-385 1131.83,-385 1126.17,-385 1120.5,-379.33 1120.5,-373.67 1120.5,-373.67 1120.5,-362.33 1120.5,-362.33 1120.5,-356.67 1126.17,-351 1131.83,-351"/>
</g>
<!-- _Core3d__Core3dEndPrepasses&#45;&gt;_Core3d__Core3dStartMainPass -->
<g id="edge31" class="edge">
<title>_Core3d__Core3dEndPrepasses:e&#45;&gt;_Core3d__Core3dStartMainPass:w</title>
<path fill="none" stroke="black" d="M1226.25,-368C1299.92,-368 1311.57,-313.94 1378.94,-308.45"/>
<polygon fill="black" stroke="black" points="1378.88,-311.95 1388.74,-308.06 1378.61,-304.96 1378.88,-311.95"/>
</g>
<!-- _Core3d__Core3dMainOpaquePass -->
<g id="node25" class="node">
<title>_Core3d__Core3dMainOpaquePass</title>
<text text-anchor="start" x="2035.38" y="-282.7" font-family="Helvetica,sans-Serif" font-size="14.00">MainOpaquePass</text>
<text text-anchor="start" x="1984" y="-272.5" font-family="Helvetica,sans-Serif" font-size="10.00" fill="red">ViewNodeRunner&lt;MainOpaquePass3dNode&gt;</text>
<path fill="none" stroke="black" d="M1989.83,-266C1989.83,-266 2199.42,-266 2199.42,-266 2205.08,-266 2210.75,-271.67 2210.75,-277.33 2210.75,-277.33 2210.75,-288.67 2210.75,-288.67 2210.75,-294.33 2205.08,-300 2199.42,-300 2199.42,-300 1989.83,-300 1989.83,-300 1984.17,-300 1978.5,-294.33 1978.5,-288.67 1978.5,-288.67 1978.5,-277.33 1978.5,-277.33 1978.5,-271.67 1984.17,-266 1989.83,-266"/>
</g>
<!-- _Core3d__Core3dStartMainPass&#45;&gt;_Core3d__Core3dMainOpaquePass -->
<g id="edge38" class="edge">
<title>_Core3d__Core3dStartMainPass:e&#45;&gt;_Core3d__Core3dMainOpaquePass:w</title>
<path fill="none" stroke="black" d="M1494.75,-308C1532.26,-308 1539.53,-292.71 1576.75,-288 1750.96,-265.97 1798.99,-282.27 1969.12,-282.98"/>
<polygon fill="black" stroke="black" points="1968.98,-286.48 1978.99,-283 1968.99,-279.48 1968.98,-286.48"/>
</g>
<!-- _Core3d__Core3dDeferredLightingPass -->
<g id="node40" class="node">
<title>_Core3d__Core3dDeferredLightingPass</title>
<text text-anchor="start" x="1664.12" y="-317.7" font-family="Helvetica,sans-Serif" font-size="14.00">DeferredLightingPass</text>
<text text-anchor="start" x="1590.25" y="-307.5" font-family="Helvetica,sans-Serif" font-size="10.00" fill="red">ViewNodeRunner&lt;DeferredOpaquePass3dPbrLightingNode&gt;</text>
<path fill="none" stroke="black" d="M1596.08,-301C1596.08,-301 1879.17,-301 1879.17,-301 1884.83,-301 1890.5,-306.67 1890.5,-312.33 1890.5,-312.33 1890.5,-323.67 1890.5,-323.67 1890.5,-329.33 1884.83,-335 1879.17,-335 1879.17,-335 1596.08,-335 1596.08,-335 1590.42,-335 1584.75,-329.33 1584.75,-323.67 1584.75,-323.67 1584.75,-312.33 1584.75,-312.33 1584.75,-306.67 1590.42,-301 1596.08,-301"/>
</g>
<!-- _Core3d__Core3dStartMainPass&#45;&gt;_Core3d__Core3dDeferredLightingPass -->
<g id="edge56" class="edge">
<title>_Core3d__Core3dStartMainPass:e&#45;&gt;_Core3d__Core3dDeferredLightingPass:w</title>
<path fill="none" stroke="black" d="M1494.75,-308C1531.86,-308 1543.42,-316.14 1575.54,-317.73"/>
<polygon fill="black" stroke="black" points="1575.16,-321.22 1585.24,-317.96 1575.32,-314.23 1575.16,-321.22"/>
</g>
<!-- _Core3d__Core3dUiPass&#45;&gt;_Core3d__Core3dUpscaling -->
<g id="edge55" class="edge">
<title>_Core3d__Core3dUiPass:e&#45;&gt;_Core3d__Core3dUpscaling:w</title>
<path fill="none" stroke="black" d="M5971.5,-248C6009.26,-248 6019.71,-264.28 6052.14,-267.47"/>
<polygon fill="black" stroke="black" points="6051.83,-270.95 6061.99,-267.93 6052.16,-263.96 6051.83,-270.95"/>
</g>
<!-- _Core3d__Core3dDepthOfField -->
<g id="node30" class="node">
<title>_Core3d__Core3dDepthOfField</title>
<text text-anchor="start" x="4184.12" y="-302.7" font-family="Helvetica,sans-Serif" font-size="14.00">DepthOfField</text>
<text text-anchor="start" x="4134.25" y="-292.5" font-family="Helvetica,sans-Serif" font-size="10.00" fill="red">ViewNodeRunner&lt;DepthOfFieldNode&gt;</text>
<path fill="none" stroke="black" d="M4140.08,-286C4140.08,-286 4318.17,-286 4318.17,-286 4323.83,-286 4329.5,-291.67 4329.5,-297.33 4329.5,-297.33 4329.5,-308.67 4329.5,-308.67 4329.5,-314.33 4323.83,-320 4318.17,-320 4318.17,-320 4140.08,-320 4140.08,-320 4134.42,-320 4128.75,-314.33 4128.75,-308.67 4128.75,-308.67 4128.75,-297.33 4128.75,-297.33 4128.75,-291.67 4134.42,-286 4140.08,-286"/>
</g>
<!-- _Core3d__Core3dBloom&#45;&gt;_Core3d__Core3dDepthOfField -->
<g id="edge44" class="edge">
<title>_Core3d__Core3dBloom:e&#45;&gt;_Core3d__Core3dDepthOfField:w</title>
<path fill="none" stroke="black" d="M4030.5,-306C4071.07,-306 4083.91,-303.51 4119.5,-303.07"/>
<polygon fill="black" stroke="black" points="4119.26,-306.57 4129.24,-303.01 4119.22,-299.57 4119.26,-306.57"/>
</g>
<!-- _Core3d__Core3dBloom&#45;&gt;_Core3d__Core3dTonemapping -->
<g id="edge51" class="edge">
<title>_Core3d__Core3dBloom:e&#45;&gt;_Core3d__Core3dTonemapping:w</title>
<path fill="none" stroke="black" d="M4030.5,-306C4072.37,-306 4079.32,-326.94 4120.75,-333 4347.34,-366.17 4407.42,-346.89 4636,-333 4668.5,-331.03 4678.97,-324.69 4706.52,-323.28"/>
<polygon fill="black" stroke="black" points="4706.58,-326.78 4716.49,-323.04 4706.4,-319.78 4706.58,-326.78"/>
</g>
<!-- _Core3d__Core3dMainTransmissivePass -->
<g id="node26" class="node">
<title>_Core3d__Core3dMainTransmissivePass</title>
<text text-anchor="start" x="2351.12" y="-282.7" font-family="Helvetica,sans-Serif" font-size="14.00">MainTransmissivePass</text>
<text text-anchor="start" x="2304.25" y="-272.5" font-family="Helvetica,sans-Serif" font-size="10.00" fill="red">ViewNodeRunner&lt;MainTransmissivePass3dNode&gt;</text>
<path fill="none" stroke="black" d="M2310.08,-266C2310.08,-266 2545.92,-266 2545.92,-266 2551.58,-266 2557.25,-271.67 2557.25,-277.33 2557.25,-277.33 2557.25,-288.67 2557.25,-288.67 2557.25,-294.33 2551.58,-300 2545.92,-300 2545.92,-300 2310.08,-300 2310.08,-300 2304.42,-300 2298.75,-294.33 2298.75,-288.67 2298.75,-288.67 2298.75,-277.33 2298.75,-277.33 2298.75,-271.67 2304.42,-266 2310.08,-266"/>
</g>
<!-- _Core3d__Core3dMainOpaquePass&#45;&gt;_Core3d__Core3dMainTransmissivePass -->
<g id="edge40" class="edge">
<title>_Core3d__Core3dMainOpaquePass:e&#45;&gt;_Core3d__Core3dMainTransmissivePass:w</title>
<path fill="none" stroke="black" d="M2208.75,-283C2245.65,-283 2257.57,-283 2289.59,-283"/>
<polygon fill="black" stroke="black" points="2289.24,-286.5 2299.24,-283 2289.24,-279.5 2289.24,-286.5"/>
</g>
<!-- _Core3d__Core3dMainTransparentPass -->
<g id="node27" class="node">
<title>_Core3d__Core3dMainTransparentPass</title>
<text text-anchor="start" x="2698" y="-282.7" font-family="Helvetica,sans-Serif" font-size="14.00">MainTransparentPass</text>
<text text-anchor="start" x="2650.75" y="-272.5" font-family="Helvetica,sans-Serif" font-size="10.00" fill="red">ViewNodeRunner&lt;MainTransparentPass3dNode&gt;</text>
<path fill="none" stroke="black" d="M2656.58,-266C2656.58,-266 2885.67,-266 2885.67,-266 2891.33,-266 2897,-271.67 2897,-277.33 2897,-277.33 2897,-288.67 2897,-288.67 2897,-294.33 2891.33,-300 2885.67,-300 2885.67,-300 2656.58,-300 2656.58,-300 2650.92,-300 2645.25,-294.33 2645.25,-288.67 2645.25,-288.67 2645.25,-277.33 2645.25,-277.33 2645.25,-271.67 2650.92,-266 2656.58,-266"/>
</g>
<!-- _Core3d__Core3dMainTransmissivePass&#45;&gt;_Core3d__Core3dMainTransparentPass -->
<g id="edge41" class="edge">
<title>_Core3d__Core3dMainTransmissivePass:e&#45;&gt;_Core3d__Core3dMainTransparentPass:w</title>
<path fill="none" stroke="black" d="M2555.25,-283C2592.15,-283 2604.07,-283 2636.09,-283"/>
<polygon fill="black" stroke="black" points="2635.74,-286.5 2645.74,-283 2635.74,-279.5 2635.74,-286.5"/>
</g>
<!-- _Core3d__Core3dMainTransparentPass&#45;&gt;_Core3d__Core3dEndMainPass -->
<g id="edge24" class="edge">
<title>_Core3d__Core3dMainTransparentPass:e&#45;&gt;_Core3d__Core3dEndMainPass:w</title>
<path fill="none" stroke="black" d="M2895,-283C2933.51,-283 2939.01,-261.31 2977,-255 3076.64,-238.46 3103.75,-244.96 3204.25,-255 3260.59,-260.63 3275.45,-279.28 3326.52,-281.73"/>
<polygon fill="black" stroke="black" points="3326.41,-285.23 3336.49,-281.96 3326.57,-278.23 3326.41,-285.23"/>
</g>
<!-- _Core3d__Core3dOitResolvePass -->
<g id="node34" class="node">
<title>_Core3d__Core3dOitResolvePass</title>
<text text-anchor="start" x="3038.5" y="-284.7" font-family="Helvetica,sans-Serif" font-size="14.00">OitResolvePass</text>
<text text-anchor="start" x="3001" y="-274.5" font-family="Helvetica,sans-Serif" font-size="10.00" fill="red">ViewNodeRunner&lt;OitResolveNode&gt;</text>
<path fill="none" stroke="black" d="M3006.83,-268C3006.83,-268 3174.42,-268 3174.42,-268 3180.08,-268 3185.75,-273.67 3185.75,-279.33 3185.75,-279.33 3185.75,-290.67 3185.75,-290.67 3185.75,-296.33 3180.08,-302 3174.42,-302 3174.42,-302 3006.83,-302 3006.83,-302 3001.17,-302 2995.5,-296.33 2995.5,-290.67 2995.5,-290.67 2995.5,-279.33 2995.5,-279.33 2995.5,-273.67 3001.17,-268 3006.83,-268"/>
</g>
<!-- _Core3d__Core3dMainTransparentPass&#45;&gt;_Core3d__Core3dOitResolvePass -->
<g id="edge47" class="edge">
<title>_Core3d__Core3dMainTransparentPass:e&#45;&gt;_Core3d__Core3dOitResolvePass:w</title>
<path fill="none" stroke="black" d="M2895,-283C2936.47,-283 2949.62,-284.66 2986,-284.95"/>
<polygon fill="black" stroke="black" points="2985.97,-288.45 2995.99,-284.99 2986,-281.45 2985.97,-288.45"/>
</g>
<!-- _Core3d__Core3dCopyDeferredLightingId -->
<g id="node28" class="node">
<title>_Core3d__Core3dCopyDeferredLightingId</title>
<text text-anchor="start" x="751.75" y="-359.7" font-family="Helvetica,sans-Serif" font-size="14.00">CopyDeferredLightingId</text>
<text text-anchor="start" x="713.5" y="-349.5" font-family="Helvetica,sans-Serif" font-size="10.00" fill="red">ViewNodeRunner&lt;CopyDeferredLightingIdNode&gt;</text>
<path fill="none" stroke="black" d="M719.33,-343C719.33,-343 949.17,-343 949.17,-343 954.83,-343 960.5,-348.67 960.5,-354.33 960.5,-354.33 960.5,-365.67 960.5,-365.67 960.5,-371.33 954.83,-377 949.17,-377 949.17,-377 719.33,-377 719.33,-377 713.67,-377 708,-371.33 708,-365.67 708,-365.67 708,-354.33 708,-354.33 708,-348.67 713.67,-343 719.33,-343"/>
</g>
<!-- _Core3d__Core3dCopyDeferredLightingId&#45;&gt;_Core3d__Core3dEndPrepasses -->
<g id="edge30" class="edge">
<title>_Core3d__Core3dCopyDeferredLightingId:e&#45;&gt;_Core3d__Core3dEndPrepasses:w</title>
<path fill="none" stroke="black" d="M958.5,-360C1027.48,-360 1047.39,-367.15 1111,-367.93"/>
<polygon fill="black" stroke="black" points="1110.97,-371.43 1120.99,-367.99 1111.01,-364.43 1110.97,-371.43"/>
</g>
<!-- _Core3d__Core3dDeferredPrepass -->
<g id="node29" class="node">
<title>_Core3d__Core3dDeferredPrepass</title>
<text text-anchor="start" x="435.62" y="-345.7" font-family="Helvetica,sans-Serif" font-size="14.00">DeferredPrepass</text>
<text text-anchor="start" x="370.75" y="-335.5" font-family="Helvetica,sans-Serif" font-size="10.00" fill="red">ViewNodeRunner&lt;DeferredGBufferPrepassNode&gt;</text>
<path fill="none" stroke="black" d="M376.58,-329C376.58,-329 608.67,-329 608.67,-329 614.33,-329 620,-334.67 620,-340.33 620,-340.33 620,-351.67 620,-351.67 620,-357.33 614.33,-363 608.67,-363 608.67,-363 376.58,-363 376.58,-363 370.92,-363 365.25,-357.33 365.25,-351.67 365.25,-351.67 365.25,-340.33 365.25,-340.33 365.25,-334.67 370.92,-329 376.58,-329"/>
</g>
<!-- _Core3d__Core3dDeferredPrepass&#45;&gt;_Core3d__Core3dCopyDeferredLightingId -->
<g id="edge42" class="edge">
<title>_Core3d__Core3dDeferredPrepass:e&#45;&gt;_Core3d__Core3dCopyDeferredLightingId:w</title>
<path fill="none" stroke="black" d="M618,-346C655.32,-346 666.52,-357.4 698.74,-359.63"/>
<polygon fill="black" stroke="black" points="698.38,-363.12 708.49,-359.95 698.61,-356.12 698.38,-363.12"/>
</g>
<!-- _Core3d__Core3dPostProcessing -->
<g id="node35" class="node">
<title>_Core3d__Core3dPostProcessing</title>
<text text-anchor="start" x="4471" y="-302.7" font-family="Helvetica,sans-Serif" font-size="14.00">PostProcessing</text>
<text text-anchor="start" x="4423" y="-292.5" font-family="Helvetica,sans-Serif" font-size="10.00" fill="red">ViewNodeRunner&lt;PostProcessingNode&gt;</text>
<path fill="none" stroke="black" d="M4428.83,-286C4428.83,-286 4616.67,-286 4616.67,-286 4622.33,-286 4628,-291.67 4628,-297.33 4628,-297.33 4628,-308.67 4628,-308.67 4628,-314.33 4622.33,-320 4616.67,-320 4616.67,-320 4428.83,-320 4428.83,-320 4423.17,-320 4417.5,-314.33 4417.5,-308.67 4417.5,-308.67 4417.5,-297.33 4417.5,-297.33 4417.5,-291.67 4423.17,-286 4428.83,-286"/>
</g>
<!-- _Core3d__Core3dDepthOfField&#45;&gt;_Core3d__Core3dPostProcessing -->
<g id="edge48" class="edge">
<title>_Core3d__Core3dDepthOfField:e&#45;&gt;_Core3d__Core3dPostProcessing:w</title>
<path fill="none" stroke="black" d="M4327.5,-303C4364.4,-303 4376.32,-303 4408.34,-303"/>
<polygon fill="black" stroke="black" points="4407.99,-306.5 4417.99,-303 4407.99,-299.5 4407.99,-306.5"/>
</g>
<!-- _Core3d__Core3dDepthOfField&#45;&gt;_Core3d__Core3dTonemapping -->
<g id="edge52" class="edge">
<title>_Core3d__Core3dDepthOfField:e&#45;&gt;_Core3d__Core3dTonemapping:w</title>
<path fill="none" stroke="black" d="M4327.5,-303C4366.31,-303 4371.29,-279.77 4409.5,-273 4508.62,-255.44 4539.08,-245.78 4636,-273 4673.08,-283.41 4675.25,-315.75 4706.69,-321.96"/>
<polygon fill="black" stroke="black" points="4706.21,-325.43 4716.49,-322.86 4706.85,-318.46 4706.21,-325.43"/>
</g>
<!-- _Core3d__Core3dFxaa -->
<g id="node31" class="node">
<title>_Core3d__Core3dFxaa</title>
<text text-anchor="start" x="5072.12" y="-302.7" font-family="Helvetica,sans-Serif" font-size="14.00">Fxaa</text>
<text text-anchor="start" x="5013.62" y="-292.5" font-family="Helvetica,sans-Serif" font-size="10.00" fill="red">ViewNodeRunner&lt;FxaaNode&gt;</text>
<path fill="none" stroke="black" d="M5019.46,-286C5019.46,-286 5157.79,-286 5157.79,-286 5163.46,-286 5169.12,-291.67 5169.12,-297.33 5169.12,-297.33 5169.12,-308.67 5169.12,-308.67 5169.12,-314.33 5163.46,-320 5157.79,-320 5157.79,-320 5019.46,-320 5019.46,-320 5013.79,-320 5008.12,-314.33 5008.12,-308.67 5008.12,-308.67 5008.12,-297.33 5008.12,-297.33 5008.12,-291.67 5013.79,-286 5019.46,-286"/>
</g>
<!-- _Core3d__Core3dFxaa&#45;&gt;_Core3d__Core3dContrastAdaptiveSharpening -->
<g id="edge23" class="edge">
<title>_Core3d__Core3dFxaa:e&#45;&gt;_Core3d__Core3dContrastAdaptiveSharpening:w</title>
<path fill="none" stroke="black" d="M5167.12,-303C5206.25,-303 5216.1,-323.53 5249.74,-327.38"/>
<polygon fill="black" stroke="black" points="5249.31,-330.86 5259.49,-327.92 5249.7,-323.87 5249.31,-330.86"/>
</g>
<!-- _Core3d__Core3dFxaa&#45;&gt;_Core3d__Core3dEndMainPassPostProcessing -->
<g id="edge27" class="edge">
<title>_Core3d__Core3dFxaa:e&#45;&gt;_Core3d__Core3dEndMainPassPostProcessing:w</title>
<path fill="none" stroke="black" d="M5167.12,-303C5204.47,-303 5213.7,-299.71 5251,-298 5384.48,-291.86 5420.7,-288.21 5548.81,-288.01"/>
<polygon fill="black" stroke="black" points="5548.74,-291.51 5558.74,-288 5548.73,-284.51 5548.74,-291.51"/>
</g>
<!-- _Core3d__Core3dMotionBlur&#45;&gt;_Core3d__Core3dBloom -->
<g id="edge37" class="edge">
<title>_Core3d__Core3dMotionBlur:e&#45;&gt;_Core3d__Core3dBloom:w</title>
<path fill="none" stroke="black" d="M3765.75,-316C3806.5,-316 3819.03,-307.72 3854.71,-306.23"/>
<polygon fill="black" stroke="black" points="3854.56,-309.73 3864.49,-306.03 3854.42,-302.73 3854.56,-309.73"/>
</g>
<!-- _Core3d__Core3dMsaaWriteback -->
<g id="node33" class="node">
<title>_Core3d__Core3dMsaaWriteback</title>
<text text-anchor="start" x="1121.5" y="-307.7" font-family="Helvetica,sans-Serif" font-size="14.00">MsaaWriteback</text>
<text text-anchor="start" x="1073.5" y="-297.5" font-family="Helvetica,sans-Serif" font-size="10.00" fill="red">ViewNodeRunner&lt;MsaaWritebackNode&gt;</text>
<path fill="none" stroke="black" d="M1079.33,-291C1079.33,-291 1269.42,-291 1269.42,-291 1275.08,-291 1280.75,-296.67 1280.75,-302.33 1280.75,-302.33 1280.75,-313.67 1280.75,-313.67 1280.75,-319.33 1275.08,-325 1269.42,-325 1269.42,-325 1079.33,-325 1079.33,-325 1073.67,-325 1068,-319.33 1068,-313.67 1068,-313.67 1068,-302.33 1068,-302.33 1068,-296.67 1073.67,-291 1079.33,-291"/>
</g>
<!-- _Core3d__Core3dMsaaWriteback&#45;&gt;_Core3d__Core3dStartMainPass -->
<g id="edge32" class="edge">
<title>_Core3d__Core3dMsaaWriteback:e&#45;&gt;_Core3d__Core3dStartMainPass:w</title>
<path fill="none" stroke="black" d="M1278.75,-308C1324.24,-308 1338.41,-308 1378.76,-308"/>
<polygon fill="black" stroke="black" points="1378.74,-311.5 1388.74,-308 1378.74,-304.5 1378.74,-311.5"/>
</g>
<!-- _Core3d__Core3dOitResolvePass&#45;&gt;_Core3d__Core3dEndMainPass -->
<g id="edge25" class="edge">
<title>_Core3d__Core3dOitResolvePass:e&#45;&gt;_Core3d__Core3dEndMainPass:w</title>
<path fill="none" stroke="black" d="M3183.75,-285C3248.43,-285 3267.33,-282.33 3326.83,-282.03"/>
<polygon fill="black" stroke="black" points="3326.5,-285.53 3336.49,-282 3326.48,-278.53 3326.5,-285.53"/>
</g>
<!-- _Core3d__Core3dPostProcessing&#45;&gt;_Core3d__Core3dTonemapping -->
<g id="edge53" class="edge">
<title>_Core3d__Core3dPostProcessing:e&#45;&gt;_Core3d__Core3dTonemapping:w</title>
<path fill="none" stroke="black" d="M4626,-303C4663.76,-303 4674.21,-319.28 4706.64,-322.47"/>
<polygon fill="black" stroke="black" points="4706.33,-325.95 4716.49,-322.93 4706.66,-318.96 4706.33,-325.95"/>
</g>
<!-- _Core3d__Core3dPrepass -->
<g id="node36" class="node">
<title>_Core3d__Core3dPrepass</title>
<text text-anchor="start" x="123.62" y="-338.7" font-family="Helvetica,sans-Serif" font-size="14.00">Prepass</text>
<text text-anchor="start" x="68.5" y="-328.5" font-family="Helvetica,sans-Serif" font-size="10.00" fill="red">ViewNodeRunner&lt;PrepassNode&gt;</text>
<path fill="none" stroke="black" d="M74.33,-322C74.33,-322 226.92,-322 226.92,-322 232.58,-322 238.25,-327.67 238.25,-333.33 238.25,-333.33 238.25,-344.67 238.25,-344.67 238.25,-350.33 232.58,-356 226.92,-356 226.92,-356 74.33,-356 74.33,-356 68.67,-356 63,-350.33 63,-344.67 63,-344.67 63,-333.33 63,-333.33 63,-327.67 68.67,-322 74.33,-322"/>
</g>
<!-- _Core3d__Core3dPrepass&#45;&gt;_Core3d__Core3dDeferredPrepass -->
<g id="edge43" class="edge">
<title>_Core3d__Core3dPrepass:e&#45;&gt;_Core3d__Core3dDeferredPrepass:w</title>
<path fill="none" stroke="black" d="M236.25,-339C290.57,-339 306.77,-345.08 355.88,-345.91"/>
<polygon fill="black" stroke="black" points="355.71,-349.4 365.74,-345.99 355.77,-342.41 355.71,-349.4"/>
</g>
<!-- _Core3d__Core3dSmaa -->
<g id="node37" class="node">
<title>_Core3d__Core3dSmaa</title>
<text text-anchor="start" x="5069.12" y="-382.7" font-family="Helvetica,sans-Serif" font-size="14.00">Smaa</text>
<text text-anchor="start" x="5011.75" y="-372.5" font-family="Helvetica,sans-Serif" font-size="10.00" fill="red">ViewNodeRunner&lt;SmaaNode&gt;</text>
<path fill="none" stroke="black" d="M5017.58,-366C5017.58,-366 5159.67,-366 5159.67,-366 5165.33,-366 5171,-371.67 5171,-377.33 5171,-377.33 5171,-388.67 5171,-388.67 5171,-394.33 5165.33,-400 5159.67,-400 5159.67,-400 5017.58,-400 5017.58,-400 5011.92,-400 5006.25,-394.33 5006.25,-388.67 5006.25,-388.67 5006.25,-377.33 5006.25,-377.33 5006.25,-371.67 5011.92,-366 5017.58,-366"/>
</g>
<!-- _Core3d__Core3dSmaa&#45;&gt;_Core3d__Core3dEndMainPassPostProcessing -->
<g id="edge29" class="edge">
<title>_Core3d__Core3dSmaa:e&#45;&gt;_Core3d__Core3dEndMainPassPostProcessing:w</title>
<path fill="none" stroke="black" d="M5169,-383C5306.89,-383 5350.9,-410.89 5478.25,-358 5518.7,-341.2 5513.68,-296.63 5549.11,-289.09"/>
<polygon fill="black" stroke="black" points="5549.13,-292.6 5558.74,-288.15 5548.45,-285.64 5549.13,-292.6"/>
</g>
<!-- _Core3d__Core3dTonemapping&#45;&gt;_Core3d__Core3dContrastAdaptiveSharpening -->
<g id="edge22" class="edge">
<title>_Core3d__Core3dTonemapping:e&#45;&gt;_Core3d__Core3dContrastAdaptiveSharpening:w</title>
<path fill="none" stroke="black" d="M4916.25,-323C4952.96,-323 4961.6,-330.77 4998.25,-333 5078.44,-337.87 5098.7,-335.45 5179,-333 5211.36,-332.01 5222.1,-328.85 5249.57,-328.14"/>
<polygon fill="black" stroke="black" points="5249.53,-331.64 5259.49,-328.02 5249.44,-324.64 5249.53,-331.64"/>
</g>
<!-- _Core3d__Core3dTonemapping&#45;&gt;_Core3d__Core3dEndMainPassPostProcessing -->
<g id="edge26" class="edge">
<title>_Core3d__Core3dTonemapping:e&#45;&gt;_Core3d__Core3dEndMainPassPostProcessing:w</title>
<path fill="none" stroke="black" d="M4916.25,-323C4958.94,-323 4957.15,-284.54 4998.25,-273 5075.59,-251.28 5098.68,-271.42 5179,-273 5188.62,-273.19 5486.49,-285.41 5549.04,-287.65"/>
<polygon fill="black" stroke="black" points="5548.63,-291.14 5558.74,-287.95 5548.85,-284.14 5548.63,-291.14"/>
</g>
<!-- _Core3d__Core3dTonemapping&#45;&gt;_Core3d__Core3dFxaa -->
<g id="edge45" class="edge">
<title>_Core3d__Core3dTonemapping:e&#45;&gt;_Core3d__Core3dFxaa:w</title>
<path fill="none" stroke="black" d="M4916.25,-323C4954.91,-323 4965.56,-306.57 4998.97,-303.49"/>
<polygon fill="black" stroke="black" points="4998.78,-307.01 5008.61,-303.07 4998.47,-300.01 4998.78,-307.01"/>
</g>
<!-- _Core3d__Core3dTonemapping&#45;&gt;_Core3d__Core3dSmaa -->
<g id="edge49" class="edge">
<title>_Core3d__Core3dTonemapping:e&#45;&gt;_Core3d__Core3dSmaa:w</title>
<path fill="none" stroke="black" d="M4916.25,-323C4961.06,-323 4959.99,-373.56 4997.28,-381.85"/>
<polygon fill="black" stroke="black" points="4996.44,-385.29 5006.74,-382.84 4997.16,-378.32 4996.44,-385.29"/>
</g>
<!-- _Core3d__Core3dDeferredLightingPass&#45;&gt;_Core3d__Core3dMainOpaquePass -->
<g id="edge39" class="edge">
<title>_Core3d__Core3dDeferredLightingPass:e&#45;&gt;_Core3d__Core3dMainOpaquePass:w</title>
<path fill="none" stroke="black" d="M1888.5,-318C1928.15,-318 1935.56,-289.25 1969.17,-283.87"/>
<polygon fill="black" stroke="black" points="1969.29,-287.37 1978.99,-283.12 1968.75,-280.39 1969.29,-287.37"/>
</g>
<!-- _Core3d__Core3dScreenSpaceReflections -->
<g id="node41" class="node">
<title>_Core3d__Core3dScreenSpaceReflections</title>
<text text-anchor="start" x="68.12" y="-398.7" font-family="Helvetica,sans-Serif" font-size="14.00">ScreenSpaceReflections</text>
<text text-anchor="start" x="29.5" y="-388.5" font-family="Helvetica,sans-Serif" font-size="10.00" fill="red">ViewNodeRunner&lt;ScreenSpaceReflectionsNode&gt;</text>
<path fill="none" stroke="black" d="M35.33,-382C35.33,-382 265.92,-382 265.92,-382 271.58,-382 277.25,-387.67 277.25,-393.33 277.25,-393.33 277.25,-404.67 277.25,-404.67 277.25,-410.33 271.58,-416 265.92,-416 265.92,-416 35.33,-416 35.33,-416 29.67,-416 24,-410.33 24,-404.67 24,-404.67 24,-393.33 24,-393.33 24,-387.67 29.67,-382 35.33,-382"/>
</g>
<!-- _CameraDriverLabel -->
<g id="node42" class="node">
<title>_CameraDriverLabel</title>
<text text-anchor="start" x="83.88" y="-481.7" font-family="Helvetica,sans-Serif" font-size="14.00">CameraDriverLabel</text>
<text text-anchor="start" x="103.75" y="-471.5" font-family="Helvetica,sans-Serif" font-size="10.00" fill="red">CameraDriverNode</text>
<path fill="none" stroke="black" d="M89.71,-465C89.71,-465 211.54,-465 211.54,-465 217.21,-465 222.88,-470.67 222.88,-476.33 222.88,-476.33 222.88,-487.67 222.88,-487.67 222.88,-493.33 217.21,-499 211.54,-499 211.54,-499 89.71,-499 89.71,-499 84.04,-499 78.38,-493.33 78.38,-487.67 78.38,-487.67 78.38,-476.33 78.38,-476.33 78.38,-470.67 84.04,-465 89.71,-465"/>
</g>
</g>
</svg>
