<?xml version="1.0" encoding="UTF-8" standalone="no"?>
<!DOCTYPE svg PUBLIC "-//W3C//DTD SVG 1.1//EN"
 "http://www.w3.org/Graphics/SVG/1.1/DTD/svg11.dtd">
<!-- Generated by graphviz version 8.0.5 (0)
 -->
<!-- Title: RenderGraph Pages: 1 -->
<svg width="3110pt" height="546pt"
 viewBox="0.00 0.00 3109.75 546.00" xmlns="http://www.w3.org/2000/svg" xmlns:xlink="http://www.w3.org/1999/xlink">
<g id="graph0" class="graph" transform="scale(1 1) rotate(0) translate(4 542)">
<title>RenderGraph</title>
<polygon fill="white" stroke="none" points="-4,4 -4,-542 3105.75,-542 3105.75,4 -4,4"/>
<g id="clust1" class="cluster">
<title>cluster_core_2d</title>
<path fill="#e4e9f5" stroke="#e4e9f5" d="M44.75,-8C44.75,-8 2313,-8 2313,-8 2319,-8 2325,-14 2325,-20 2325,-20 2325,-172 2325,-172 2325,-178 2319,-184 2313,-184 2313,-184 44.75,-184 44.75,-184 38.75,-184 32.75,-178 32.75,-172 32.75,-172 32.75,-20 32.75,-20 32.75,-14 38.75,-8 44.75,-8"/>
<text text-anchor="middle" x="1178.88" y="-166.7" font-family="Times,serif" font-size="14.00">core_2d</text>
</g>
<g id="clust2" class="cluster">
<title>cluster_core_2d_draw_ui</title>
<path fill="#c4d0ed" stroke="#c4d0ed" d="M66.12,-68C66.12,-68 140.62,-68 140.62,-68 146.62,-68 152.62,-74 152.62,-80 152.62,-80 152.62,-139 152.62,-139 152.62,-145 146.62,-151 140.62,-151 140.62,-151 66.12,-151 66.12,-151 60.12,-151 54.12,-145 54.12,-139 54.12,-139 54.12,-80 54.12,-80 54.12,-74 60.12,-68 66.12,-68"/>
<text text-anchor="middle" x="103.38" y="-133.7" font-family="Times,serif" font-size="14.00">draw_ui</text>
</g>
<g id="clust3" class="cluster">
<title>cluster_core_3d</title>
<path fill="#e4e9f5" stroke="#e4e9f5" d="M20,-192C20,-192 3081.75,-192 3081.75,-192 3087.75,-192 3093.75,-198 3093.75,-204 3093.75,-204 3093.75,-476 3093.75,-476 3093.75,-482 3087.75,-488 3081.75,-488 3081.75,-488 20,-488 20,-488 14,-488 8,-482 8,-476 8,-476 8,-204 8,-204 8,-198 14,-192 20,-192"/>
<text text-anchor="middle" x="1550.88" y="-470.7" font-family="Times,serif" font-size="14.00">core_3d</text>
</g>
<g id="clust4" class="cluster">
<title>cluster_core_3d_draw_ui</title>
<path fill="#c4d0ed" stroke="#c4d0ed" d="M66.12,-372C66.12,-372 140.62,-372 140.62,-372 146.62,-372 152.62,-378 152.62,-384 152.62,-384 152.62,-443 152.62,-443 152.62,-449 146.62,-455 140.62,-455 140.62,-455 66.12,-455 66.12,-455 60.12,-455 54.12,-449 54.12,-443 54.12,-443 54.12,-384 54.12,-384 54.12,-378 60.12,-372 66.12,-372"/>
<text text-anchor="middle" x="103.38" y="-437.7" font-family="Times,serif" font-size="14.00">draw_ui</text>
</g>
<!-- _core_2d_draw_ui__core_2d_draw_uiui_pass -->
<g id="node1" class="node">
<title>_core_2d_draw_ui__core_2d_draw_uiui_pass</title>
<text text-anchor="start" x="80.12" y="-96.7" font-family="Helvetica,sans-Serif" font-size="14.00">ui_pass</text>
<text text-anchor="start" x="75.62" y="-86.5" font-family="Helvetica,sans-Serif" font-size="10.00" fill="red">UiPassNode</text>
<path fill="none" stroke="black" d="M81.46,-80C81.46,-80 125.29,-80 125.29,-80 130.96,-80 136.62,-85.67 136.62,-91.33 136.62,-91.33 136.62,-102.67 136.62,-102.67 136.62,-108.33 130.96,-114 125.29,-114 125.29,-114 81.46,-114 81.46,-114 75.79,-114 70.12,-108.33 70.12,-102.67 70.12,-102.67 70.12,-91.33 70.12,-91.33 70.12,-85.67 75.79,-80 81.46,-80"/>
</g>
<!-- _core_2d__core_2dcontrast_adaptive_sharpening -->
<g id="node2" class="node">
<title>_core_2d__core_2dcontrast_adaptive_sharpening</title>
<text text-anchor="start" x="1322.5" y="-113.7" font-family="Helvetica,sans-Serif" font-size="14.00">contrast_adaptive_sharpening</text>
<text text-anchor="start" x="1390.75" y="-103.5" font-family="Helvetica,sans-Serif" font-size="10.00" fill="red">CASNode</text>
<path fill="none" stroke="black" d="M1328.33,-97C1328.33,-97 1497.42,-97 1497.42,-97 1503.08,-97 1508.75,-102.67 1508.75,-108.33 1508.75,-108.33 1508.75,-119.67 1508.75,-119.67 1508.75,-125.33 1503.08,-131 1497.42,-131 1497.42,-131 1328.33,-131 1328.33,-131 1322.67,-131 1317,-125.33 1317,-119.67 1317,-119.67 1317,-108.33 1317,-108.33 1317,-102.67 1322.67,-97 1328.33,-97"/>
</g>
<!-- _core_2d__core_2dend_main_pass_post_processing -->
<g id="node5" class="node">
<title>_core_2d__core_2dend_main_pass_post_processing</title>
<text text-anchor="start" x="1602.25" y="-73.7" font-family="Helvetica,sans-Serif" font-size="14.00">end_main_pass_post_processing</text>
<text text-anchor="start" x="1677.25" y="-63.5" font-family="Helvetica,sans-Serif" font-size="10.00" fill="red">EmptyNode</text>
<path fill="none" stroke="black" d="M1608.08,-57C1608.08,-57 1798.17,-57 1798.17,-57 1803.83,-57 1809.5,-62.67 1809.5,-68.33 1809.5,-68.33 1809.5,-79.67 1809.5,-79.67 1809.5,-85.33 1803.83,-91 1798.17,-91 1798.17,-91 1608.08,-91 1608.08,-91 1602.42,-91 1596.75,-85.33 1596.75,-79.67 1596.75,-79.67 1596.75,-68.33 1596.75,-68.33 1596.75,-62.67 1602.42,-57 1608.08,-57"/>
</g>
<!-- _core_2d__core_2dcontrast_adaptive_sharpening&#45;&gt;_core_2d__core_2dend_main_pass_post_processing -->
<g id="edge6" class="edge">
<title>_core_2d__core_2dcontrast_adaptive_sharpening:e&#45;&gt;_core_2d__core_2dend_main_pass_post_processing:w</title>
<path fill="none" stroke="black" d="M1506.88,-114C1547.72,-114 1553.63,-80.58 1588.48,-74.84"/>
<polygon fill="black" stroke="black" points="1588.43,-78.27 1598.12,-74 1587.88,-71.29 1588.43,-78.27"/>
</g>
<!-- _core_2d__core_2dmain_pass -->
<g id="node3" class="node">
<title>_core_2d__core_2dmain_pass</title>
<text text-anchor="start" x="293.12" y="-46.7" font-family="Helvetica,sans-Serif" font-size="14.00">main_pass</text>
<text text-anchor="start" x="287.5" y="-36.5" font-family="Helvetica,sans-Serif" font-size="10.00" fill="red">MainPass2dNode</text>
<path fill="none" stroke="black" d="M293.33,-30C293.33,-30 358.92,-30 358.92,-30 364.58,-30 370.25,-35.67 370.25,-41.33 370.25,-41.33 370.25,-52.67 370.25,-52.67 370.25,-58.33 364.58,-64 358.92,-64 358.92,-64 293.33,-64 293.33,-64 287.67,-64 282,-58.33 282,-52.67 282,-52.67 282,-41.33 282,-41.33 282,-35.67 287.67,-30 293.33,-30"/>
</g>
<!-- _core_2d__core_2dui_pass -->
<g id="node6" class="node">
<title>_core_2d__core_2dui_pass</title>
<text text-anchor="start" x="1946.5" y="-36.7" font-family="Helvetica,sans-Serif" font-size="14.00">ui_pass</text>
<text text-anchor="start" x="1918.75" y="-26.5" font-family="Helvetica,sans-Serif" font-size="10.00" fill="red">RunGraphOnViewNode</text>
<path fill="none" stroke="black" d="M1924.58,-20C1924.58,-20 2014.92,-20 2014.92,-20 2020.58,-20 2026.25,-25.67 2026.25,-31.33 2026.25,-31.33 2026.25,-42.67 2026.25,-42.67 2026.25,-48.33 2020.58,-54 2014.92,-54 2014.92,-54 1924.58,-54 1924.58,-54 1918.92,-54 1913.25,-48.33 1913.25,-42.67 1913.25,-42.67 1913.25,-31.33 1913.25,-31.33 1913.25,-25.67 1918.92,-20 1924.58,-20"/>
</g>
<!-- _core_2d__core_2dmain_pass&#45;&gt;_core_2d__core_2dui_pass -->
<g id="edge7" class="edge">
<title>_core_2d__core_2dmain_pass:e&#45;&gt;_core_2d__core_2dui_pass:w</title>
<path fill="none" stroke="black" d="M368.12,-47C410.39,-47 419.48,-33.52 461.5,-29 647.04,-9.05 694.64,-19 881.25,-19 881.25,-19 881.25,-19 1413.88,-19 1632.93,-19 1690.11,-36.41 1903.79,-36.99"/>
<polygon fill="black" stroke="black" points="1903.75,-40.49 1913.75,-37 1903.75,-33.49 1903.75,-40.49"/>
</g>
<!-- _core_2d__core_2dbloom -->
<g id="node7" class="node">
<title>_core_2d__core_2dbloom</title>
<text text-anchor="start" x="556" y="-58.7" font-family="Helvetica,sans-Serif" font-size="14.00">bloom</text>
<text text-anchor="start" x="505" y="-48.5" font-family="Helvetica,sans-Serif" font-size="10.00" fill="red">ViewNodeRunner&lt;BloomNode&gt;</text>
<path fill="none" stroke="black" d="M510.83,-42C510.83,-42 638.67,-42 638.67,-42 644.33,-42 650,-47.67 650,-53.33 650,-53.33 650,-64.67 650,-64.67 650,-70.33 644.33,-76 638.67,-76 638.67,-76 510.83,-76 510.83,-76 505.17,-76 499.5,-70.33 499.5,-64.67 499.5,-64.67 499.5,-53.33 499.5,-53.33 499.5,-47.67 505.17,-42 510.83,-42"/>
</g>
<!-- _core_2d__core_2dmain_pass&#45;&gt;_core_2d__core_2dbloom -->
<g id="edge9" class="edge">
<title>_core_2d__core_2dmain_pass:e&#45;&gt;_core_2d__core_2dbloom:w</title>
<path fill="none" stroke="black" d="M368.12,-47C423.91,-47 440.08,-57.5 490.76,-58.86"/>
<polygon fill="black" stroke="black" points="490.71,-62.37 500.75,-59 490.8,-55.37 490.71,-62.37"/>
</g>
<!-- _core_2d__core_2dtonemapping -->
<g id="node9" class="node">
<title>_core_2d__core_2dtonemapping</title>
<text text-anchor="start" x="842.88" y="-88.7" font-family="Helvetica,sans-Serif" font-size="14.00">tonemapping</text>
<text text-anchor="start" x="797.5" y="-78.5" font-family="Helvetica,sans-Serif" font-size="10.00" fill="red">ViewNodeRunner&lt;TonemappingNode&gt;</text>
<path fill="none" stroke="black" d="M803.33,-72C803.33,-72 961.17,-72 961.17,-72 966.83,-72 972.5,-77.67 972.5,-83.33 972.5,-83.33 972.5,-94.67 972.5,-94.67 972.5,-100.33 966.83,-106 961.17,-106 961.17,-106 803.33,-106 803.33,-106 797.67,-106 792,-100.33 792,-94.67 792,-94.67 792,-83.33 792,-83.33 792,-77.67 797.67,-72 803.33,-72"/>
</g>
<!-- _core_2d__core_2dmain_pass&#45;&gt;_core_2d__core_2dtonemapping -->
<g id="edge11" class="edge">
<title>_core_2d__core_2dmain_pass:e&#45;&gt;_core_2d__core_2dtonemapping:w</title>
<path fill="none" stroke="black" d="M368.12,-47C413.63,-47 417.01,-79.45 461.5,-89 602.57,-119.27 644.33,-90.48 783.61,-89.05"/>
<polygon fill="black" stroke="black" points="783.27,-92.55 793.25,-89 783.23,-85.55 783.27,-92.55"/>
</g>
<!-- _core_2d__core_2dmsaa_writeback -->
<g id="node4" class="node">
<title>_core_2d__core_2dmsaa_writeback</title>
<text text-anchor="start" x="54.25" y="-36.7" font-family="Helvetica,sans-Serif" font-size="14.00">msaa_writeback</text>
<text text-anchor="start" x="58" y="-26.5" font-family="Helvetica,sans-Serif" font-size="10.00" fill="red">MsaaWritebackNode</text>
<path fill="none" stroke="black" d="M60.08,-20C60.08,-20 146.67,-20 146.67,-20 152.33,-20 158,-25.67 158,-31.33 158,-31.33 158,-42.67 158,-42.67 158,-48.33 152.33,-54 146.67,-54 146.67,-54 60.08,-54 60.08,-54 54.42,-54 48.75,-48.33 48.75,-42.67 48.75,-42.67 48.75,-31.33 48.75,-31.33 48.75,-25.67 54.42,-20 60.08,-20"/>
</g>
<!-- _core_2d__core_2dmsaa_writeback&#45;&gt;_core_2d__core_2dmain_pass -->
<g id="edge3" class="edge">
<title>_core_2d__core_2dmsaa_writeback:e&#45;&gt;_core_2d__core_2dmain_pass:w</title>
<path fill="none" stroke="black" d="M156.38,-37C209.54,-37 225.14,-45.72 273.32,-46.87"/>
<polygon fill="black" stroke="black" points="273.08,-50.38 283.12,-47 273.17,-43.38 273.08,-50.38"/>
</g>
<!-- _core_2d__core_2dend_main_pass_post_processing&#45;&gt;_core_2d__core_2dui_pass -->
<g id="edge8" class="edge">
<title>_core_2d__core_2dend_main_pass_post_processing:e&#45;&gt;_core_2d__core_2dui_pass:w</title>
<path fill="none" stroke="black" d="M1807.12,-74C1853.85,-74 1862.93,-42.42 1903.92,-37.61"/>
<polygon fill="black" stroke="black" points="1903.96,-41.06 1913.75,-37 1903.57,-34.07 1903.96,-41.06"/>
</g>
<!-- _core_2d__core_2dupscaling -->
<g id="node10" class="node">
<title>_core_2d__core_2dupscaling</title>
<text text-anchor="start" x="2197.38" y="-56.7" font-family="Helvetica,sans-Serif" font-size="14.00">upscaling</text>
<text text-anchor="start" x="2148.25" y="-46.5" font-family="Helvetica,sans-Serif" font-size="10.00" fill="red">ViewNodeRunner&lt;UpscalingNode&gt;</text>
<path fill="none" stroke="black" d="M2154.08,-40C2154.08,-40 2297.67,-40 2297.67,-40 2303.33,-40 2309,-45.67 2309,-51.33 2309,-51.33 2309,-62.67 2309,-62.67 2309,-68.33 2303.33,-74 2297.67,-74 2297.67,-74 2154.08,-74 2154.08,-74 2148.42,-74 2142.75,-68.33 2142.75,-62.67 2142.75,-62.67 2142.75,-51.33 2142.75,-51.33 2142.75,-45.67 2148.42,-40 2154.08,-40"/>
</g>
<!-- _core_2d__core_2dend_main_pass_post_processing&#45;&gt;_core_2d__core_2dupscaling -->
<g id="edge13" class="edge">
<title>_core_2d__core_2dend_main_pass_post_processing:e&#45;&gt;_core_2d__core_2dupscaling:w</title>
<path fill="none" stroke="black" d="M1807.12,-74C1915.11,-74 1942.25,-74.22 2050,-67 2088.5,-64.42 2100.39,-58.25 2134.18,-57.17"/>
<polygon fill="black" stroke="black" points="2133.93,-60.65 2143.88,-57 2133.82,-53.65 2133.93,-60.65"/>
</g>
<!-- _core_2d__core_2dui_pass&#45;&gt;_core_2d__core_2dupscaling -->
<g id="edge14" class="edge">
<title>_core_2d__core_2dui_pass:e&#45;&gt;_core_2d__core_2dupscaling:w</title>
<path fill="none" stroke="black" d="M2024.75,-37C2075.07,-37 2088.87,-54.29 2134.06,-56.72"/>
<polygon fill="black" stroke="black" points="2133.79,-60.24 2143.88,-57 2133.97,-53.24 2133.79,-60.24"/>
</g>
<!-- _core_2d__core_2dbloom&#45;&gt;_core_2d__core_2dtonemapping -->
<g id="edge12" class="edge">
<title>_core_2d__core_2dbloom:e&#45;&gt;_core_2d__core_2dtonemapping:w</title>
<path fill="none" stroke="black" d="M647.75,-59C710.45,-59 726.08,-85.7 783.45,-88.72"/>
<polygon fill="black" stroke="black" points="783.16,-92.24 793.25,-89 783.34,-85.24 783.16,-92.24"/>
</g>
<!-- _core_2d__core_2dfxaa -->
<g id="node8" class="node">
<title>_core_2d__core_2dfxaa</title>
<text text-anchor="start" x="1144" y="-88.7" font-family="Helvetica,sans-Serif" font-size="14.00">fxaa</text>
<text text-anchor="start" x="1090" y="-78.5" font-family="Helvetica,sans-Serif" font-size="10.00" fill="red">ViewNodeRunner&lt;FxaaNode&gt;</text>
<path fill="none" stroke="black" d="M1095.83,-72C1095.83,-72 1217.67,-72 1217.67,-72 1223.33,-72 1229,-77.67 1229,-83.33 1229,-83.33 1229,-94.67 1229,-94.67 1229,-100.33 1223.33,-106 1217.67,-106 1217.67,-106 1095.83,-106 1095.83,-106 1090.17,-106 1084.5,-100.33 1084.5,-94.67 1084.5,-94.67 1084.5,-83.33 1084.5,-83.33 1084.5,-77.67 1090.17,-72 1095.83,-72"/>
</g>
<!-- _core_2d__core_2dfxaa&#45;&gt;_core_2d__core_2dcontrast_adaptive_sharpening -->
<g id="edge2" class="edge">
<title>_core_2d__core_2dfxaa:e&#45;&gt;_core_2d__core_2dcontrast_adaptive_sharpening:w</title>
<path fill="none" stroke="black" d="M1226.75,-89C1265.36,-89 1274.86,-109.71 1308.24,-113.43"/>
<polygon fill="black" stroke="black" points="1307.7,-116.96 1317.88,-114 1308.08,-109.97 1307.7,-116.96"/>
</g>
<!-- _core_2d__core_2dfxaa&#45;&gt;_core_2d__core_2dend_main_pass_post_processing -->
<g id="edge5" class="edge">
<title>_core_2d__core_2dfxaa:e&#45;&gt;_core_2d__core_2dend_main_pass_post_processing:w</title>
<path fill="none" stroke="black" d="M1226.75,-89C1263.37,-89 1272.42,-85.74 1309,-84 1434.23,-78.04 1468.2,-74.22 1588.39,-74.01"/>
<polygon fill="black" stroke="black" points="1588.13,-77.51 1598.12,-74 1588.12,-70.51 1588.13,-77.51"/>
</g>
<!-- _core_2d__core_2dtonemapping&#45;&gt;_core_2d__core_2dcontrast_adaptive_sharpening -->
<g id="edge1" class="edge">
<title>_core_2d__core_2dtonemapping:e&#45;&gt;_core_2d__core_2dcontrast_adaptive_sharpening:w</title>
<path fill="none" stroke="black" d="M970.25,-89C1019.32,-89 1027.9,-112.27 1076.5,-119 1147.16,-128.78 1165.7,-121.18 1237,-119 1269.6,-118.01 1280.22,-114.79 1308.19,-114.12"/>
<polygon fill="black" stroke="black" points="1307.92,-117.61 1317.88,-114 1307.84,-110.61 1307.92,-117.61"/>
</g>
<!-- _core_2d__core_2dtonemapping&#45;&gt;_core_2d__core_2dend_main_pass_post_processing -->
<g id="edge4" class="edge">
<title>_core_2d__core_2dtonemapping:e&#45;&gt;_core_2d__core_2dend_main_pass_post_processing:w</title>
<path fill="none" stroke="black" d="M970.25,-89C1019.32,-89 1027.9,-65.73 1076.5,-59 1151.57,-48.6 1501.65,-69.34 1516.75,-70 1549.51,-71.44 1560.24,-73.5 1588.38,-73.92"/>
<polygon fill="black" stroke="black" points="1588.1,-77.43 1598.12,-74 1588.15,-70.43 1588.1,-77.43"/>
</g>
<!-- _core_2d__core_2dtonemapping&#45;&gt;_core_2d__core_2dfxaa -->
<g id="edge10" class="edge">
<title>_core_2d__core_2dtonemapping:e&#45;&gt;_core_2d__core_2dfxaa:w</title>
<path fill="none" stroke="black" d="M970.25,-89C1018.18,-89 1032.84,-89 1075.83,-89"/>
<polygon fill="black" stroke="black" points="1075.75,-92.5 1085.75,-89 1075.75,-85.5 1075.75,-92.5"/>
</g>
<!-- _core_3d_draw_ui__core_3d_draw_uiui_pass -->
<g id="node11" class="node">
<title>_core_3d_draw_ui__core_3d_draw_uiui_pass</title>
<text text-anchor="start" x="80.12" y="-400.7" font-family="Helvetica,sans-Serif" font-size="14.00">ui_pass</text>
<text text-anchor="start" x="75.62" y="-390.5" font-family="Helvetica,sans-Serif" font-size="10.00" fill="red">UiPassNode</text>
<path fill="none" stroke="black" d="M81.46,-384C81.46,-384 125.29,-384 125.29,-384 130.96,-384 136.62,-389.67 136.62,-395.33 136.62,-395.33 136.62,-406.67 136.62,-406.67 136.62,-412.33 130.96,-418 125.29,-418 125.29,-418 81.46,-418 81.46,-418 75.79,-418 70.12,-412.33 70.12,-406.67 70.12,-406.67 70.12,-395.33 70.12,-395.33 70.12,-389.67 75.79,-384 81.46,-384"/>
</g>
<!-- _core_3d__core_3dcontrast_adaptive_sharpening -->
<g id="node12" class="node">
<title>_core_3d__core_3dcontrast_adaptive_sharpening</title>
<text text-anchor="start" x="2135.5" y="-320.7" font-family="Helvetica,sans-Serif" font-size="14.00">contrast_adaptive_sharpening</text>
<text text-anchor="start" x="2203.75" y="-310.5" font-family="Helvetica,sans-Serif" font-size="10.00" fill="red">CASNode</text>
<path fill="none" stroke="black" d="M2141.33,-304C2141.33,-304 2310.42,-304 2310.42,-304 2316.08,-304 2321.75,-309.67 2321.75,-315.33 2321.75,-315.33 2321.75,-326.67 2321.75,-326.67 2321.75,-332.33 2316.08,-338 2310.42,-338 2310.42,-338 2141.33,-338 2141.33,-338 2135.67,-338 2130,-332.33 2130,-326.67 2130,-326.67 2130,-315.33 2130,-315.33 2130,-309.67 2135.67,-304 2141.33,-304"/>
</g>
<!-- _core_3d__core_3dend_main_pass_post_processing -->
<g id="node16" class="node">
<title>_core_3d__core_3dend_main_pass_post_processing</title>
<text text-anchor="start" x="2415.25" y="-280.7" font-family="Helvetica,sans-Serif" font-size="14.00">end_main_pass_post_processing</text>
<text text-anchor="start" x="2490.25" y="-270.5" font-family="Helvetica,sans-Serif" font-size="10.00" fill="red">EmptyNode</text>
<path fill="none" stroke="black" d="M2421.08,-264C2421.08,-264 2611.17,-264 2611.17,-264 2616.83,-264 2622.5,-269.67 2622.5,-275.33 2622.5,-275.33 2622.5,-286.67 2622.5,-286.67 2622.5,-292.33 2616.83,-298 2611.17,-298 2611.17,-298 2421.08,-298 2421.08,-298 2415.42,-298 2409.75,-292.33 2409.75,-286.67 2409.75,-286.67 2409.75,-275.33 2409.75,-275.33 2409.75,-269.67 2415.42,-264 2421.08,-264"/>
</g>
<!-- _core_3d__core_3dcontrast_adaptive_sharpening&#45;&gt;_core_3d__core_3dend_main_pass_post_processing -->
<g id="edge20" class="edge">
<title>_core_3d__core_3dcontrast_adaptive_sharpening:e&#45;&gt;_core_3d__core_3dend_main_pass_post_processing:w</title>
<path fill="none" stroke="black" d="M2319.88,-321C2360.72,-321 2366.63,-287.58 2401.48,-281.84"/>
<polygon fill="black" stroke="black" points="2401.43,-285.27 2411.12,-281 2400.88,-278.29 2401.43,-285.27"/>
</g>
<!-- _core_3d__core_3dmsaa_writeback -->
<g id="node13" class="node">
<title>_core_3d__core_3dmsaa_writeback</title>
<text text-anchor="start" x="54.25" y="-340.7" font-family="Helvetica,sans-Serif" font-size="14.00">msaa_writeback</text>
<text text-anchor="start" x="58" y="-330.5" font-family="Helvetica,sans-Serif" font-size="10.00" fill="red">MsaaWritebackNode</text>
<path fill="none" stroke="black" d="M60.08,-324C60.08,-324 146.67,-324 146.67,-324 152.33,-324 158,-329.67 158,-335.33 158,-335.33 158,-346.67 158,-346.67 158,-352.33 152.33,-358 146.67,-358 146.67,-358 60.08,-358 60.08,-358 54.42,-358 48.75,-352.33 48.75,-346.67 48.75,-346.67 48.75,-335.33 48.75,-335.33 48.75,-329.67 54.42,-324 60.08,-324"/>
</g>
<!-- _core_3d__core_3dstart_main_pass -->
<g id="node17" class="node">
<title>_core_3d__core_3dstart_main_pass</title>
<text text-anchor="start" x="276.25" y="-280.7" font-family="Helvetica,sans-Serif" font-size="14.00">start_main_pass</text>
<text text-anchor="start" x="300.25" y="-270.5" font-family="Helvetica,sans-Serif" font-size="10.00" fill="red">EmptyNode</text>
<path fill="none" stroke="black" d="M282.08,-264C282.08,-264 370.17,-264 370.17,-264 375.83,-264 381.5,-269.67 381.5,-275.33 381.5,-275.33 381.5,-286.67 381.5,-286.67 381.5,-292.33 375.83,-298 370.17,-298 370.17,-298 282.08,-298 282.08,-298 276.42,-298 270.75,-292.33 270.75,-286.67 270.75,-286.67 270.75,-275.33 270.75,-275.33 270.75,-269.67 276.42,-264 282.08,-264"/>
</g>
<!-- _core_3d__core_3dmsaa_writeback&#45;&gt;_core_3d__core_3dstart_main_pass -->
<g id="edge22" class="edge">
<title>_core_3d__core_3dmsaa_writeback:e&#45;&gt;_core_3d__core_3dstart_main_pass:w</title>
<path fill="none" stroke="black" d="M156.38,-341C210.84,-341 214.52,-288.7 262.24,-281.76"/>
<polygon fill="black" stroke="black" points="262.39,-285.19 272.12,-281 261.91,-278.2 262.39,-285.19"/>
</g>
<!-- _core_3d__core_3dshadow_pass -->
<g id="node14" class="node">
<title>_core_3d__core_3dshadow_pass</title>
<text text-anchor="start" x="62.12" y="-280.7" font-family="Helvetica,sans-Serif" font-size="14.00">shadow_pass</text>
<text text-anchor="start" x="62.88" y="-270.5" font-family="Helvetica,sans-Serif" font-size="10.00" fill="red">ShadowPassNode</text>
<path fill="none" stroke="black" d="M67.96,-264C67.96,-264 138.79,-264 138.79,-264 144.46,-264 150.12,-269.67 150.12,-275.33 150.12,-275.33 150.12,-286.67 150.12,-286.67 150.12,-292.33 144.46,-298 138.79,-298 138.79,-298 67.96,-298 67.96,-298 62.29,-298 56.62,-292.33 56.62,-286.67 56.62,-286.67 56.62,-275.33 56.62,-275.33 56.62,-269.67 62.29,-264 67.96,-264"/>
</g>
<!-- _core_3d__core_3dshadow_pass&#45;&gt;_core_3d__core_3dstart_main_pass -->
<g id="edge23" class="edge">
<title>_core_3d__core_3dshadow_pass:e&#45;&gt;_core_3d__core_3dstart_main_pass:w</title>
<path fill="none" stroke="black" d="M148.38,-281C200.03,-281 215.59,-281 262.31,-281"/>
<polygon fill="black" stroke="black" points="262.13,-284.5 272.12,-281 262.12,-277.5 262.13,-284.5"/>
</g>
<!-- _core_3d__core_3dend_main_pass -->
<g id="node15" class="node">
<title>_core_3d__core_3dend_main_pass</title>
<text text-anchor="start" x="1108.75" y="-280.7" font-family="Helvetica,sans-Serif" font-size="14.00">end_main_pass</text>
<text text-anchor="start" x="1130.88" y="-270.5" font-family="Helvetica,sans-Serif" font-size="10.00" fill="red">EmptyNode</text>
<path fill="none" stroke="black" d="M1114.58,-264C1114.58,-264 1198.92,-264 1198.92,-264 1204.58,-264 1210.25,-269.67 1210.25,-275.33 1210.25,-275.33 1210.25,-286.67 1210.25,-286.67 1210.25,-292.33 1204.58,-298 1198.92,-298 1198.92,-298 1114.58,-298 1114.58,-298 1108.92,-298 1103.25,-292.33 1103.25,-286.67 1103.25,-286.67 1103.25,-275.33 1103.25,-275.33 1103.25,-269.67 1108.92,-264 1114.58,-264"/>
</g>
<!-- _core_3d__core_3dui_pass -->
<g id="node18" class="node">
<title>_core_3d__core_3dui_pass</title>
<text text-anchor="start" x="2743.75" y="-240.7" font-family="Helvetica,sans-Serif" font-size="14.00">ui_pass</text>
<text text-anchor="start" x="2716" y="-230.5" font-family="Helvetica,sans-Serif" font-size="10.00" fill="red">RunGraphOnViewNode</text>
<path fill="none" stroke="black" d="M2721.83,-224C2721.83,-224 2812.17,-224 2812.17,-224 2817.83,-224 2823.5,-229.67 2823.5,-235.33 2823.5,-235.33 2823.5,-246.67 2823.5,-246.67 2823.5,-252.33 2817.83,-258 2812.17,-258 2812.17,-258 2721.83,-258 2721.83,-258 2716.17,-258 2710.5,-252.33 2710.5,-246.67 2710.5,-246.67 2710.5,-235.33 2710.5,-235.33 2710.5,-229.67 2716.17,-224 2721.83,-224"/>
</g>
<!-- _core_3d__core_3dend_main_pass&#45;&gt;_core_3d__core_3dui_pass -->
<g id="edge24" class="edge">
<title>_core_3d__core_3dend_main_pass:e&#45;&gt;_core_3d__core_3dui_pass:w</title>
<path fill="none" stroke="black" d="M1208.75,-281C1255.26,-281 1263.07,-258.32 1309,-251 1481.6,-223.48 1527.35,-241 1702.12,-241 1702.12,-241 1702.12,-241 2226.88,-241 2438.8,-241 2494.5,-241 2701.09,-241"/>
<polygon fill="black" stroke="black" points="2701,-244.5 2711,-241 2701,-237.5 2701,-244.5"/>
</g>
<!-- _core_3d__core_3dbloom -->
<g id="node19" class="node">
<title>_core_3d__core_3dbloom</title>
<text text-anchor="start" x="1394.12" y="-280.7" font-family="Helvetica,sans-Serif" font-size="14.00">bloom</text>
<text text-anchor="start" x="1343.12" y="-270.5" font-family="Helvetica,sans-Serif" font-size="10.00" fill="red">ViewNodeRunner&lt;BloomNode&gt;</text>
<path fill="none" stroke="black" d="M1348.96,-264C1348.96,-264 1476.79,-264 1476.79,-264 1482.46,-264 1488.12,-269.67 1488.12,-275.33 1488.12,-275.33 1488.12,-286.67 1488.12,-286.67 1488.12,-292.33 1482.46,-298 1476.79,-298 1476.79,-298 1348.96,-298 1348.96,-298 1343.29,-298 1337.62,-292.33 1337.62,-286.67 1337.62,-286.67 1337.62,-275.33 1337.62,-275.33 1337.62,-269.67 1343.29,-264 1348.96,-264"/>
</g>
<!-- _core_3d__core_3dend_main_pass&#45;&gt;_core_3d__core_3dbloom -->
<g id="edge26" class="edge">
<title>_core_3d__core_3dend_main_pass:e&#45;&gt;_core_3d__core_3dbloom:w</title>
<path fill="none" stroke="black" d="M1208.75,-281C1263.27,-281 1279.54,-281 1329.13,-281"/>
<polygon fill="black" stroke="black" points="1328.88,-284.5 1338.88,-281 1328.87,-277.5 1328.88,-284.5"/>
</g>
<!-- _core_3d__core_3dtonemapping -->
<g id="node24" class="node">
<title>_core_3d__core_3dtonemapping</title>
<text text-anchor="start" x="1663.75" y="-300.7" font-family="Helvetica,sans-Serif" font-size="14.00">tonemapping</text>
<text text-anchor="start" x="1618.38" y="-290.5" font-family="Helvetica,sans-Serif" font-size="10.00" fill="red">ViewNodeRunner&lt;TonemappingNode&gt;</text>
<path fill="none" stroke="black" d="M1624.21,-284C1624.21,-284 1782.04,-284 1782.04,-284 1787.71,-284 1793.38,-289.67 1793.38,-295.33 1793.38,-295.33 1793.38,-306.67 1793.38,-306.67 1793.38,-312.33 1787.71,-318 1782.04,-318 1782.04,-318 1624.21,-318 1624.21,-318 1618.54,-318 1612.88,-312.33 1612.88,-306.67 1612.88,-306.67 1612.88,-295.33 1612.88,-295.33 1612.88,-289.67 1618.54,-284 1624.21,-284"/>
</g>
<!-- _core_3d__core_3dend_main_pass&#45;&gt;_core_3d__core_3dtonemapping -->
<g id="edge30" class="edge">
<title>_core_3d__core_3dend_main_pass:e&#45;&gt;_core_3d__core_3dtonemapping:w</title>
<path fill="none" stroke="black" d="M1208.75,-281C1255.26,-281 1262.98,-304.26 1309,-311 1400.36,-324.38 1424.54,-315.67 1516.75,-311 1556.87,-308.97 1569.12,-302.3 1604.49,-301.16"/>
<polygon fill="black" stroke="black" points="1604.18,-304.65 1614.12,-301 1604.07,-297.65 1604.18,-304.65"/>
</g>
<!-- _core_3d__core_3dend_main_pass_post_processing&#45;&gt;_core_3d__core_3dui_pass -->
<g id="edge25" class="edge">
<title>_core_3d__core_3dend_main_pass_post_processing:e&#45;&gt;_core_3d__core_3dui_pass:w</title>
<path fill="none" stroke="black" d="M2620.12,-281C2660.83,-281 2666.67,-247.58 2701.39,-241.84"/>
<polygon fill="black" stroke="black" points="2701.31,-245.27 2711,-241 2700.76,-238.3 2701.31,-245.27"/>
</g>
<!-- _core_3d__core_3dupscaling -->
<g id="node25" class="node">
<title>_core_3d__core_3dupscaling</title>
<text text-anchor="start" x="2966.12" y="-260.7" font-family="Helvetica,sans-Serif" font-size="14.00">upscaling</text>
<text text-anchor="start" x="2917" y="-250.5" font-family="Helvetica,sans-Serif" font-size="10.00" fill="red">ViewNodeRunner&lt;UpscalingNode&gt;</text>
<path fill="none" stroke="black" d="M2922.83,-244C2922.83,-244 3066.42,-244 3066.42,-244 3072.08,-244 3077.75,-249.67 3077.75,-255.33 3077.75,-255.33 3077.75,-266.67 3077.75,-266.67 3077.75,-272.33 3072.08,-278 3066.42,-278 3066.42,-278 2922.83,-278 2922.83,-278 2917.17,-278 2911.5,-272.33 2911.5,-266.67 2911.5,-266.67 2911.5,-255.33 2911.5,-255.33 2911.5,-249.67 2917.17,-244 2922.83,-244"/>
</g>
<!-- _core_3d__core_3dend_main_pass_post_processing&#45;&gt;_core_3d__core_3dupscaling -->
<g id="edge32" class="edge">
<title>_core_3d__core_3dend_main_pass_post_processing:e&#45;&gt;_core_3d__core_3dupscaling:w</title>
<path fill="none" stroke="black" d="M2620.12,-281C2714.17,-281 2737.78,-278.91 2831.5,-271 2864.27,-268.23 2874.71,-262.41 2902.86,-261.22"/>
<polygon fill="black" stroke="black" points="2902.7,-264.7 2912.62,-261 2902.56,-257.7 2902.7,-264.7"/>
</g>
<!-- _core_3d__core_3dmain_opaque_pass -->
<g id="node20" class="node">
<title>_core_3d__core_3dmain_opaque_pass</title>
<text text-anchor="start" x="515.5" y="-280.7" font-family="Helvetica,sans-Serif" font-size="14.00">main_opaque_pass</text>
<text text-anchor="start" x="475" y="-270.5" font-family="Helvetica,sans-Serif" font-size="10.00" fill="red">ViewNodeRunner&lt;MainOpaquePass3dNode&gt;</text>
<path fill="none" stroke="black" d="M480.83,-264C480.83,-264 668.67,-264 668.67,-264 674.33,-264 680,-269.67 680,-275.33 680,-275.33 680,-286.67 680,-286.67 680,-292.33 674.33,-298 668.67,-298 668.67,-298 480.83,-298 480.83,-298 475.17,-298 469.5,-292.33 469.5,-286.67 469.5,-286.67 469.5,-275.33 469.5,-275.33 469.5,-269.67 475.17,-264 480.83,-264"/>
</g>
<!-- _core_3d__core_3dstart_main_pass&#45;&gt;_core_3d__core_3dmain_opaque_pass -->
<g id="edge27" class="edge">
<title>_core_3d__core_3dstart_main_pass:e&#45;&gt;_core_3d__core_3dmain_opaque_pass:w</title>
<path fill="none" stroke="black" d="M379.12,-281C416.43,-281 428.38,-281 460.94,-281"/>
<polygon fill="black" stroke="black" points="460.75,-284.5 470.75,-281 460.75,-277.5 460.75,-284.5"/>
</g>
<!-- _core_3d__core_3dui_pass&#45;&gt;_core_3d__core_3dupscaling -->
<g id="edge33" class="edge">
<title>_core_3d__core_3dui_pass:e&#45;&gt;_core_3d__core_3dupscaling:w</title>
<path fill="none" stroke="black" d="M2822,-241C2859.77,-241 2870.1,-257.43 2902.73,-260.51"/>
<polygon fill="black" stroke="black" points="2902.48,-264.04 2912.62,-261 2902.79,-257.05 2902.48,-264.04"/>
</g>
<!-- _core_3d__core_3dbloom&#45;&gt;_core_3d__core_3dtonemapping -->
<g id="edge31" class="edge">
<title>_core_3d__core_3dbloom:e&#45;&gt;_core_3d__core_3dtonemapping:w</title>
<path fill="none" stroke="black" d="M1485.88,-281C1540.26,-281 1555.13,-298.5 1604.42,-300.76"/>
<polygon fill="black" stroke="black" points="1604.05,-304.28 1614.12,-301 1604.21,-297.28 1604.05,-304.28"/>
</g>
<!-- _core_3d__core_3dmain_transparent_pass -->
<g id="node21" class="node">
<title>_core_3d__core_3dmain_transparent_pass</title>
<text text-anchor="start" x="811.38" y="-280.7" font-family="Helvetica,sans-Serif" font-size="14.00">main_transparent_pass</text>
<text text-anchor="start" x="773.5" y="-270.5" font-family="Helvetica,sans-Serif" font-size="10.00" fill="red">ViewNodeRunner&lt;MainTransparentPass3dNode&gt;</text>
<path fill="none" stroke="black" d="M779.33,-264C779.33,-264 985.17,-264 985.17,-264 990.83,-264 996.5,-269.67 996.5,-275.33 996.5,-275.33 996.5,-286.67 996.5,-286.67 996.5,-292.33 990.83,-298 985.17,-298 985.17,-298 779.33,-298 779.33,-298 773.67,-298 768,-292.33 768,-286.67 768,-286.67 768,-275.33 768,-275.33 768,-269.67 773.67,-264 779.33,-264"/>
</g>
<!-- _core_3d__core_3dmain_opaque_pass&#45;&gt;_core_3d__core_3dmain_transparent_pass -->
<g id="edge28" class="edge">
<title>_core_3d__core_3dmain_opaque_pass:e&#45;&gt;_core_3d__core_3dmain_transparent_pass:w</title>
<path fill="none" stroke="black" d="M677.75,-281C715.01,-281 726.94,-281 759.45,-281"/>
<polygon fill="black" stroke="black" points="759.25,-284.5 769.25,-281 759.25,-277.5 759.25,-284.5"/>
</g>
<!-- _core_3d__core_3dmain_transparent_pass&#45;&gt;_core_3d__core_3dend_main_pass -->
<g id="edge17" class="edge">
<title>_core_3d__core_3dmain_transparent_pass:e&#45;&gt;_core_3d__core_3dend_main_pass:w</title>
<path fill="none" stroke="black" d="M994.25,-281C1039.52,-281 1053.5,-281 1093.88,-281"/>
<polygon fill="black" stroke="black" points="1093.75,-284.5 1103.75,-281 1093.75,-277.5 1093.75,-284.5"/>
</g>
<!-- _core_3d__core_3dfxaa -->
<g id="node22" class="node">
<title>_core_3d__core_3dfxaa</title>
<text text-anchor="start" x="1957" y="-300.7" font-family="Helvetica,sans-Serif" font-size="14.00">fxaa</text>
<text text-anchor="start" x="1903" y="-290.5" font-family="Helvetica,sans-Serif" font-size="10.00" fill="red">ViewNodeRunner&lt;FxaaNode&gt;</text>
<path fill="none" stroke="black" d="M1908.83,-284C1908.83,-284 2030.67,-284 2030.67,-284 2036.33,-284 2042,-289.67 2042,-295.33 2042,-295.33 2042,-306.67 2042,-306.67 2042,-312.33 2036.33,-318 2030.67,-318 2030.67,-318 1908.83,-318 1908.83,-318 1903.17,-318 1897.5,-312.33 1897.5,-306.67 1897.5,-306.67 1897.5,-295.33 1897.5,-295.33 1897.5,-289.67 1903.17,-284 1908.83,-284"/>
</g>
<!-- _core_3d__core_3dfxaa&#45;&gt;_core_3d__core_3dcontrast_adaptive_sharpening -->
<g id="edge16" class="edge">
<title>_core_3d__core_3dfxaa:e&#45;&gt;_core_3d__core_3dcontrast_adaptive_sharpening:w</title>
<path fill="none" stroke="black" d="M2039.75,-301C2077.72,-301 2088.12,-317.43 2120.92,-320.51"/>
<polygon fill="black" stroke="black" points="2120.73,-324.05 2130.88,-321 2121.04,-317.05 2120.73,-324.05"/>
</g>
<!-- _core_3d__core_3dfxaa&#45;&gt;_core_3d__core_3dend_main_pass_post_processing -->
<g id="edge19" class="edge">
<title>_core_3d__core_3dfxaa:e&#45;&gt;_core_3d__core_3dend_main_pass_post_processing:w</title>
<path fill="none" stroke="black" d="M2039.75,-301C2076.57,-301 2085.29,-293.86 2122,-291 2246.99,-281.27 2281.19,-281.01 2401.39,-281"/>
<polygon fill="black" stroke="black" points="2401.13,-284.5 2411.12,-281 2401.12,-277.5 2401.13,-284.5"/>
</g>
<!-- _core_3d__core_3dprepass -->
<g id="node23" class="node">
<title>_core_3d__core_3dprepass</title>
<text text-anchor="start" x="79.38" y="-220.7" font-family="Helvetica,sans-Serif" font-size="14.00">prepass</text>
<text text-anchor="start" x="29.5" y="-210.5" font-family="Helvetica,sans-Serif" font-size="10.00" fill="red">ViewNodeRunner&lt;PrepassNode&gt;</text>
<path fill="none" stroke="black" d="M35.33,-204C35.33,-204 171.42,-204 171.42,-204 177.08,-204 182.75,-209.67 182.75,-215.33 182.75,-215.33 182.75,-226.67 182.75,-226.67 182.75,-232.33 177.08,-238 171.42,-238 171.42,-238 35.33,-238 35.33,-238 29.67,-238 24,-232.33 24,-226.67 24,-226.67 24,-215.33 24,-215.33 24,-209.67 29.67,-204 35.33,-204"/>
</g>
<!-- _core_3d__core_3dprepass&#45;&gt;_core_3d__core_3dstart_main_pass -->
<g id="edge21" class="edge">
<title>_core_3d__core_3dprepass:e&#45;&gt;_core_3d__core_3dstart_main_pass:w</title>
<path fill="none" stroke="black" d="M180.38,-221C225.64,-221 224.55,-271.99 262.56,-279.96"/>
<polygon fill="black" stroke="black" points="261.83,-283.5 272.12,-281 262.52,-276.54 261.83,-283.5"/>
</g>
<!-- _core_3d__core_3dtonemapping&#45;&gt;_core_3d__core_3dcontrast_adaptive_sharpening -->
<g id="edge15" class="edge">
<title>_core_3d__core_3dtonemapping:e&#45;&gt;_core_3d__core_3dcontrast_adaptive_sharpening:w</title>
<path fill="none" stroke="black" d="M1791.12,-301C1836.84,-301 1844.29,-324.26 1889.5,-331 1960.05,-341.52 1978.8,-335.33 2050,-331 2082.73,-329.01 2093.09,-322.58 2121.15,-321.24"/>
<polygon fill="black" stroke="black" points="2120.96,-324.73 2130.88,-321 2120.8,-317.73 2120.96,-324.73"/>
</g>
<!-- _core_3d__core_3dtonemapping&#45;&gt;_core_3d__core_3dend_main_pass_post_processing -->
<g id="edge18" class="edge">
<title>_core_3d__core_3dtonemapping:e&#45;&gt;_core_3d__core_3dend_main_pass_post_processing:w</title>
<path fill="none" stroke="black" d="M1791.12,-301C1836.84,-301 1844.29,-277.74 1889.5,-271 1935.07,-264.21 2263.61,-274.69 2329.75,-277 2362.52,-278.15 2373.25,-280.44 2401.38,-280.91"/>
<polygon fill="black" stroke="black" points="2401.1,-284.42 2411.12,-281 2401.15,-277.42 2401.1,-284.42"/>
</g>
<!-- _core_3d__core_3dtonemapping&#45;&gt;_core_3d__core_3dfxaa -->
<g id="edge29" class="edge">
<title>_core_3d__core_3dtonemapping:e&#45;&gt;_core_3d__core_3dfxaa:w</title>
<path fill="none" stroke="black" d="M1791.12,-301C1835.54,-301 1849.31,-301 1888.81,-301"/>
<polygon fill="black" stroke="black" points="1888.75,-304.5 1898.75,-301 1888.75,-297.5 1888.75,-304.5"/>
</g>
<!-- _camera_driver -->
<g id="node26" class="node">
<title>_camera_driver</title>
<text text-anchor="start" x="59.88" y="-516.7" font-family="Helvetica,sans-Serif" font-size="14.00">camera_driver</text>
<text text-anchor="start" x="61.38" y="-506.5" font-family="Helvetica,sans-Serif" font-size="10.00" fill="red">CameraDriverNode</text>
<path fill="none" stroke="black" d="M65.71,-500C65.71,-500 141.04,-500 141.04,-500 146.71,-500 152.38,-505.67 152.38,-511.33 152.38,-511.33 152.38,-522.67 152.38,-522.67 152.38,-528.33 146.71,-534 141.04,-534 141.04,-534 65.71,-534 65.71,-534 60.04,-534 54.38,-528.33 54.38,-522.67 54.38,-522.67 54.38,-511.33 54.38,-511.33 54.38,-505.67 60.04,-500 65.71,-500"/>
</g>
</g>
</svg>
