<?xml version="1.0" encoding="UTF-8" standalone="no"?>
<!DOCTYPE svg PUBLIC "-//W3C//DTD SVG 1.1//EN"
 "http://www.w3.org/Graphics/SVG/1.1/DTD/svg11.dtd">
<!-- Generated by graphviz version 7.1.0 (0)
 -->
<!-- Pages: 1 -->
<svg width="603pt" height="2184pt"
 viewBox="0.00 0.00 603.00 2184.00" xmlns="http://www.w3.org/2000/svg" xmlns:xlink="http://www.w3.org/1999/xlink">
<g id="graph0" class="graph" transform="scale(1 1) rotate(0) translate(4 2180)">
<polygon fill="#0d1117" stroke="none" points="-4,4 -4,-2180 599,-2180 599,4 -4,4"/>
<g id="clust1" class="cluster">
<title>clusternode_Set(22)</title>
<g id="a_clust1"><a xlink:title="ExtractSprites">
<polygon fill="#6f90ad" stroke="black" points="135,-8 135,-101 266,-101 266,-8 135,-8"/>
<text text-anchor="middle" x="200.5" y="-85.8" font-family="Helvetica,sans-Serif" font-size="14.00">ExtractSprites</text>
</a>
</g>
</g>
<g id="clust2" class="cluster">
<title>clusternode_Set(29)</title>
<g id="a_clust2"><a xlink:title="ExtractNode">
<polygon fill="#6f90ad" stroke="black" points="131,-109 131,-202 270,-202 270,-109 131,-109"/>
<text text-anchor="middle" x="200.5" y="-186.8" font-family="Helvetica,sans-Serif" font-size="14.00">ExtractNode</text>
</a>
</g>
</g>
<g id="clust3" class="cluster">
<title>clusternode_Set(40)</title>
<g id="a_clust3"><a xlink:title="ExtractClusters">
<polygon fill="#6f90ad" stroke="black" points="131.5,-210 131.5,-303 269.5,-303 269.5,-210 131.5,-210"/>
<text text-anchor="middle" x="200.5" y="-287.8" font-family="Helvetica,sans-Serif" font-size="14.00">ExtractClusters</text>
</a>
</g>
</g>
<g id="clust4" class="cluster">
<title>clusternode_Set(42)</title>
<g id="a_clust4"><a xlink:title="ExtractLights">
<polygon fill="#6f90ad" stroke="black" points="139,-311 139,-404 262,-404 262,-311 139,-311"/>
<text text-anchor="middle" x="200.5" y="-388.8" font-family="Helvetica,sans-Serif" font-size="14.00">ExtractLights</text>
</a>
</g>
</g>
<!-- set_marker_node_Set(22) -->
<!-- node_System(23) -->
<g id="node31" class="node">
<title>node_System(23)</title>
<g id="a_node31"><a xlink:title="bevy_text::text2d::extract_text2d_sprite">
<polygon fill="#eff1f3" stroke="#eff1f3" points="595,-88 437,-88 437,-52 595,-52 595,-88"/>
<text text-anchor="middle" x="516" y="-66.3" font-family="Times,serif" font-size="14.00">extract_text2d_sprite</text>
</a>
</g>
</g>
<!-- set_marker_node_Set(22)&#45;&gt;node_System(23) -->
<g id="edge1" class="edge">
<title>set_marker_node_Set(22)&#45;&gt;node_System(23)</title>
<g id="a_edge1"><a xlink:title="ExtractSprites → extract_text2d_sprite">
<path fill="none" stroke="#eede00" stroke-width="2" d="M266,-70C311.49,-70 373.08,-70 423.63,-70"/>
<polygon fill="#eede00" stroke="#eede00" stroke-width="2" points="423.52,-73.5 433.52,-70 423.52,-66.5 423.52,-73.5"/>
</a>
</g>
</g>
<!-- node_System(21) -->
<g id="node2" class="node">
<title>node_System(21)</title>
<g id="a_node2"><a xlink:title="bevy_sprite::render::extract_sprites">
<polygon fill="#eff1f3" stroke="#eff1f3" points="258,-52 143,-52 143,-16 258,-16 258,-52"/>
<text text-anchor="middle" x="200.5" y="-30.3" font-family="Times,serif" font-size="14.00">extract_sprites</text>
</a>
</g>
</g>
<!-- set_marker_node_Set(29) -->
<!-- node_System(28) -->
<g id="node35" class="node">
<title>node_System(28)</title>
<g id="a_node35"><a xlink:title="bevy_ui::render::extract_text_uinodes">
<polygon fill="#eff1f3" stroke="#eff1f3" points="594,-189 438,-189 438,-153 594,-153 594,-189"/>
<text text-anchor="middle" x="516" y="-167.3" font-family="Times,serif" font-size="14.00">extract_text_uinodes</text>
</a>
</g>
</g>
<!-- set_marker_node_Set(29)&#45;&gt;node_System(28) -->
<g id="edge2" class="edge">
<title>set_marker_node_Set(29)&#45;&gt;node_System(28)</title>
<g id="a_edge2"><a xlink:title="ExtractNode → extract_text_uinodes">
<path fill="none" stroke="#881877" stroke-width="2" d="M270,-171C315.42,-171 375.52,-171 424.82,-171"/>
<polygon fill="#881877" stroke="#881877" stroke-width="2" points="424.72,-174.5 434.72,-171 424.72,-167.5 424.72,-174.5"/>
</a>
</g>
</g>
<!-- node_System(27) -->
<g id="node4" class="node">
<title>node_System(27)</title>
<g id="a_node4"><a xlink:title="bevy_ui::render::extract_uinodes">
<polygon fill="#eff1f3" stroke="#eff1f3" points="262,-153 139,-153 139,-117 262,-117 262,-153"/>
<text text-anchor="middle" x="200.5" y="-131.3" font-family="Times,serif" font-size="14.00">extract_uinodes</text>
</a>
</g>
</g>
<!-- set_marker_node_Set(40) -->
<!-- node_System(37) -->
<g id="node6" class="node">
<title>node_System(37)</title>
<g id="a_node6"><a xlink:title="bevy_pbr::render::light::extract_clusters">
<polygon fill="#eff1f3" stroke="#eff1f3" points="261.5,-254 139.5,-254 139.5,-218 261.5,-218 261.5,-254"/>
<text text-anchor="middle" x="200.5" y="-232.3" font-family="Times,serif" font-size="14.00">extract_clusters</text>
</a>
</g>
</g>
<!-- set_marker_node_Set(42) -->
<!-- node_System(38) -->
<g id="node8" class="node">
<title>node_System(38)</title>
<g id="a_node8"><a xlink:title="bevy_pbr::render::light::extract_lights">
<polygon fill="#eff1f3" stroke="#eff1f3" points="254,-355 147,-355 147,-319 254,-319 254,-355"/>
<text text-anchor="middle" x="200.5" y="-333.3" font-family="Times,serif" font-size="14.00">extract_lights</text>
</a>
</g>
</g>
<!-- node_System(0) -->
<g id="node9" class="node">
<title>node_System(0)</title>
<g id="a_node9"><a xlink:title="bevy_render::render_resource::pipeline_cache::PipelineCache::extract_shaders">
<polygon fill="#eff1f3" stroke="#eff1f3" points="261.5,-448 139.5,-448 139.5,-412 261.5,-412 261.5,-448"/>
<text text-anchor="middle" x="200.5" y="-426.3" font-family="Times,serif" font-size="14.00">extract_shaders</text>
</a>
</g>
</g>
<!-- node_System(1) -->
<g id="node10" class="node">
<title>node_System(1)</title>
<g id="a_node10"><a xlink:title="bevy_render::view::window::extract_windows">
<polygon fill="#eff1f3" stroke="#eff1f3" points="266,-502 135,-502 135,-466 266,-466 266,-502"/>
<text text-anchor="middle" x="200.5" y="-480.3" font-family="Times,serif" font-size="14.00">extract_windows</text>
</a>
</g>
</g>
<!-- node_System(2) -->
<g id="node11" class="node">
<title>node_System(2)</title>
<g id="a_node11"><a xlink:title="bevy_render::camera::camera::extract_cameras">
<polygon fill="#eff1f3" stroke="#eff1f3" points="264,-556 137,-556 137,-520 264,-520 264,-556"/>
<text text-anchor="middle" x="200.5" y="-534.3" font-family="Times,serif" font-size="14.00">extract_cameras</text>
</a>
</g>
</g>
<!-- node_System(3) -->
<g id="node12" class="node">
<title>node_System(3)</title>
<g id="a_node12"><a xlink:title="bevy_render::extract_resource::extract_resource&lt;bevy_render::view::Msaa&gt;">
<polygon fill="#eff1f3" stroke="#eff1f3" points="290.5,-610 110.5,-610 110.5,-574 290.5,-574 290.5,-610"/>
<text text-anchor="middle" x="200.5" y="-588.3" font-family="Times,serif" font-size="14.00">extract_resource&lt;Msaa&gt;</text>
</a>
</g>
</g>
<!-- node_System(4) -->
<g id="node13" class="node">
<title>node_System(4)</title>
<g id="a_node13"><a xlink:title="bevy_render::render_asset::extract_render_asset&lt;bevy_render::mesh::mesh::Mesh&gt;">
<polygon fill="#eff1f3" stroke="#eff1f3" points="304,-664 97,-664 97,-628 304,-628 304,-664"/>
<text text-anchor="middle" x="200.5" y="-642.3" font-family="Times,serif" font-size="14.00">extract_render_asset&lt;Mesh&gt;</text>
</a>
</g>
</g>
<!-- node_System(5) -->
<g id="node14" class="node">
<title>node_System(5)</title>
<g id="a_node14"><a xlink:title="bevy_render::globals::extract_frame_count">
<polygon fill="#eff1f3" stroke="#eff1f3" points="278.5,-718 122.5,-718 122.5,-682 278.5,-682 278.5,-718"/>
<text text-anchor="middle" x="200.5" y="-696.3" font-family="Times,serif" font-size="14.00">extract_frame_count</text>
</a>
</g>
</g>
<!-- node_System(6) -->
<g id="node15" class="node">
<title>node_System(6)</title>
<g id="a_node15"><a xlink:title="bevy_render::globals::extract_time">
<polygon fill="#eff1f3" stroke="#eff1f3" points="251,-772 150,-772 150,-736 251,-736 251,-772"/>
<text text-anchor="middle" x="200.5" y="-750.3" font-family="Times,serif" font-size="14.00">extract_time</text>
</a>
</g>
</g>
<!-- node_System(7) -->
<g id="node16" class="node">
<title>node_System(7)</title>
<g id="a_node16"><a xlink:title="bevy_render::render_asset::extract_render_asset&lt;bevy_render::texture::image::Image&gt;">
<polygon fill="#eff1f3" stroke="#eff1f3" points="307,-826 94,-826 94,-790 307,-790 307,-826"/>
<text text-anchor="middle" x="200.5" y="-804.3" font-family="Times,serif" font-size="14.00">extract_render_asset&lt;Image&gt;</text>
</a>
</g>
</g>
<!-- node_System(8) -->
<g id="node17" class="node">
<title>node_System(8)</title>
<g id="a_node17"><a xlink:title="bevy_render::extract_resource::extract_resource&lt;bevy_core_pipeline::clear_color::ClearColor&gt;">
<polygon fill="#eff1f3" stroke="#eff1f3" points="308,-880 93,-880 93,-844 308,-844 308,-880"/>
<text text-anchor="middle" x="200.5" y="-858.3" font-family="Times,serif" font-size="14.00">extract_resource&lt;ClearColor&gt;</text>
</a>
</g>
</g>
<!-- node_System(9) -->
<g id="node18" class="node">
<title>node_System(9)</title>
<g id="a_node18"><a xlink:title="bevy_render::extract_component::extract_components&lt;bevy_core_pipeline::core_2d::camera_2d::Camera2d&gt;">
<polygon fill="#eff1f3" stroke="#eff1f3" points="318,-934 83,-934 83,-898 318,-898 318,-934"/>
<text text-anchor="middle" x="200.5" y="-912.3" font-family="Times,serif" font-size="14.00">extract_components&lt;Camera2d&gt;</text>
</a>
</g>
</g>
<!-- node_System(10) -->
<g id="node19" class="node">
<title>node_System(10)</title>
<g id="a_node19"><a xlink:title="bevy_core_pipeline::core_2d::extract_core_2d_camera_phases">
<polygon fill="#eff1f3" stroke="#eff1f3" points="316,-988 85,-988 85,-952 316,-952 316,-988"/>
<text text-anchor="middle" x="200.5" y="-966.3" font-family="Times,serif" font-size="14.00">extract_core_2d_camera_phases</text>
</a>
</g>
</g>
<!-- node_System(11) -->
<g id="node20" class="node">
<title>node_System(11)</title>
<g id="a_node20"><a xlink:title="bevy_render::extract_component::extract_components&lt;bevy_core_pipeline::core_3d::camera_3d::Camera3d&gt;">
<polygon fill="#eff1f3" stroke="#eff1f3" points="318,-1042 83,-1042 83,-1006 318,-1006 318,-1042"/>
<text text-anchor="middle" x="200.5" y="-1020.3" font-family="Times,serif" font-size="14.00">extract_components&lt;Camera3d&gt;</text>
</a>
</g>
</g>
<!-- node_System(12) -->
<g id="node21" class="node">
<title>node_System(12)</title>
<g id="a_node21"><a xlink:title="bevy_core_pipeline::core_3d::extract_core_3d_camera_phases">
<polygon fill="#eff1f3" stroke="#eff1f3" points="316,-1096 85,-1096 85,-1060 316,-1060 316,-1096"/>
<text text-anchor="middle" x="200.5" y="-1074.3" font-family="Times,serif" font-size="14.00">extract_core_3d_camera_phases</text>
</a>
</g>
</g>
<!-- node_System(13) -->
<g id="node22" class="node">
<title>node_System(13)</title>
<g id="a_node22"><a xlink:title="bevy_render::extract_resource::extract_resource&lt;bevy_core_pipeline::tonemapping::TonemappingLuts&gt;">
<polygon fill="#eff1f3" stroke="#eff1f3" points="333.5,-1150 67.5,-1150 67.5,-1114 333.5,-1114 333.5,-1150"/>
<text text-anchor="middle" x="200.5" y="-1128.3" font-family="Times,serif" font-size="14.00">extract_resource&lt;TonemappingLuts&gt;</text>
</a>
</g>
</g>
<!-- node_System(14) -->
<g id="node23" class="node">
<title>node_System(14)</title>
<g id="a_node23"><a xlink:title="bevy_render::extract_component::extract_components&lt;bevy_core_pipeline::tonemapping::Tonemapping&gt;">
<polygon fill="#eff1f3" stroke="#eff1f3" points="330.5,-1204 70.5,-1204 70.5,-1168 330.5,-1168 330.5,-1204"/>
<text text-anchor="middle" x="200.5" y="-1182.3" font-family="Times,serif" font-size="14.00">extract_components&lt;Tonemapping&gt;</text>
</a>
</g>
</g>
<!-- node_System(15) -->
<g id="node24" class="node">
<title>node_System(15)</title>
<g id="a_node24"><a xlink:title="bevy_render::extract_component::extract_components&lt;bevy_core_pipeline::tonemapping::DebandDither&gt;">
<polygon fill="#eff1f3" stroke="#eff1f3" points="332,-1258 69,-1258 69,-1222 332,-1222 332,-1258"/>
<text text-anchor="middle" x="200.5" y="-1236.3" font-family="Times,serif" font-size="14.00">extract_components&lt;DebandDither&gt;</text>
</a>
</g>
</g>
<!-- node_System(16) -->
<g id="node25" class="node">
<title>node_System(16)</title>
<g id="a_node25"><a xlink:title="bevy_render::extract_component::extract_components&lt;bevy_core_pipeline::bloom::BloomSettings&gt;">
<polygon fill="#eff1f3" stroke="#eff1f3" points="332,-1312 69,-1312 69,-1276 332,-1276 332,-1312"/>
<text text-anchor="middle" x="200.5" y="-1290.3" font-family="Times,serif" font-size="14.00">extract_components&lt;BloomSettings&gt;</text>
</a>
</g>
</g>
<!-- node_System(17) -->
<g id="node26" class="node">
<title>node_System(17)</title>
<g id="a_node26"><a xlink:title="bevy_render::extract_component::extract_components&lt;bevy_core_pipeline::fxaa::Fxaa&gt;">
<polygon fill="#eff1f3" stroke="#eff1f3" points="300.5,-1366 100.5,-1366 100.5,-1330 300.5,-1330 300.5,-1366"/>
<text text-anchor="middle" x="200.5" y="-1344.3" font-family="Times,serif" font-size="14.00">extract_components&lt;Fxaa&gt;</text>
</a>
</g>
</g>
<!-- node_System(18) -->
<g id="node27" class="node">
<title>node_System(18)</title>
<g id="a_node27"><a xlink:title="bevy_sprite::mesh2d::mesh::extract_mesh2d">
<polygon fill="#eff1f3" stroke="#eff1f3" points="261.5,-1420 139.5,-1420 139.5,-1384 261.5,-1384 261.5,-1420"/>
<text text-anchor="middle" x="200.5" y="-1398.3" font-family="Times,serif" font-size="14.00">extract_mesh2d</text>
</a>
</g>
</g>
<!-- node_System(19) -->
<g id="node28" class="node">
<title>node_System(19)</title>
<g id="a_node28"><a xlink:title="bevy_render::extract_component::extract_visible_components&lt;bevy_asset::handle::Handle&lt;bevy_sprite::mesh2d::color_material::ColorMaterial&gt;&gt;">
<polygon fill="#eff1f3" stroke="#eff1f3" points="388.5,-1474 12.5,-1474 12.5,-1438 388.5,-1438 388.5,-1474"/>
<text text-anchor="middle" x="200.5" y="-1452.3" font-family="Times,serif" font-size="14.00">extract_visible_components&lt;Handle&lt;ColorMaterial&gt;&gt;</text>
</a>
</g>
</g>
<!-- node_System(20) -->
<g id="node29" class="node">
<title>node_System(20)</title>
<g id="a_node29"><a xlink:title="bevy_sprite::mesh2d::material::extract_materials_2d&lt;bevy_sprite::mesh2d::color_material::ColorMaterial&gt;">
<polygon fill="#eff1f3" stroke="#eff1f3" points="334,-1528 67,-1528 67,-1492 334,-1492 334,-1528"/>
<text text-anchor="middle" x="200.5" y="-1506.3" font-family="Times,serif" font-size="14.00">extract_materials_2d&lt;ColorMaterial&gt;</text>
</a>
</g>
</g>
<!-- node_System(22) -->
<g id="node30" class="node">
<title>node_System(22)</title>
<g id="a_node30"><a xlink:title="bevy_sprite::render::extract_sprite_events">
<polygon fill="#eff1f3" stroke="#eff1f3" points="280,-1582 121,-1582 121,-1546 280,-1546 280,-1582"/>
<text text-anchor="middle" x="200.5" y="-1560.3" font-family="Times,serif" font-size="14.00">extract_sprite_events</text>
</a>
</g>
</g>
<!-- node_System(24) -->
<g id="node32" class="node">
<title>node_System(24)</title>
<g id="a_node32"><a xlink:title="bevy_render::extract_component::extract_components&lt;bevy_ui::camera_config::UiCameraConfig&gt;">
<polygon fill="#eff1f3" stroke="#eff1f3" points="338,-1636 63,-1636 63,-1600 338,-1600 338,-1636"/>
<text text-anchor="middle" x="200.5" y="-1614.3" font-family="Times,serif" font-size="14.00">extract_components&lt;UiCameraConfig&gt;</text>
</a>
</g>
</g>
<!-- node_System(25) -->
<g id="node33" class="node">
<title>node_System(25)</title>
<g id="a_node33"><a xlink:title="bevy_ui::render::extract_default_ui_camera_view&lt;bevy_core_pipeline::core_2d::camera_2d::Camera2d&gt;">
<polygon fill="#eff1f3" stroke="#eff1f3" points="359,-1690 42,-1690 42,-1654 359,-1654 359,-1690"/>
<text text-anchor="middle" x="200.5" y="-1668.3" font-family="Times,serif" font-size="14.00">extract_default_ui_camera_view&lt;Camera2d&gt;</text>
</a>
</g>
</g>
<!-- node_System(26) -->
<g id="node34" class="node">
<title>node_System(26)</title>
<g id="a_node34"><a xlink:title="bevy_ui::render::extract_default_ui_camera_view&lt;bevy_core_pipeline::core_3d::camera_3d::Camera3d&gt;">
<polygon fill="#eff1f3" stroke="#eff1f3" points="359,-1744 42,-1744 42,-1708 359,-1708 359,-1744"/>
<text text-anchor="middle" x="200.5" y="-1722.3" font-family="Times,serif" font-size="14.00">extract_default_ui_camera_view&lt;Camera3d&gt;</text>
</a>
</g>
</g>
<!-- node_System(29) -->
<g id="node36" class="node">
<title>node_System(29)</title>
<g id="a_node36"><a xlink:title="bevy_pbr::render::mesh::extract_meshes">
<polygon fill="#eff1f3" stroke="#eff1f3" points="260.5,-1798 140.5,-1798 140.5,-1762 260.5,-1762 260.5,-1798"/>
<text text-anchor="middle" x="200.5" y="-1776.3" font-family="Times,serif" font-size="14.00">extract_meshes</text>
</a>
</g>
</g>
<!-- node_System(30) -->
<g id="node37" class="node">
<title>node_System(30)</title>
<g id="a_node37"><a xlink:title="bevy_pbr::render::mesh::extract_skinned_meshes">
<polygon fill="#eff1f3" stroke="#eff1f3" points="290,-1852 111,-1852 111,-1816 290,-1816 290,-1852"/>
<text text-anchor="middle" x="200.5" y="-1830.3" font-family="Times,serif" font-size="14.00">extract_skinned_meshes</text>
</a>
</g>
</g>
<!-- node_System(31) -->
<g id="node38" class="node">
<title>node_System(31)</title>
<g id="a_node38"><a xlink:title="bevy_render::extract_component::extract_visible_components&lt;bevy_asset::handle::Handle&lt;bevy_pbr::pbr_material::StandardMaterial&gt;&gt;">
<polygon fill="#eff1f3" stroke="#eff1f3" points="401,-1906 0,-1906 0,-1870 401,-1870 401,-1906"/>
<text text-anchor="middle" x="200.5" y="-1884.3" font-family="Times,serif" font-size="14.00">extract_visible_components&lt;Handle&lt;StandardMaterial&gt;&gt;</text>
</a>
</g>
</g>
<!-- node_System(32) -->
<g id="node39" class="node">
<title>node_System(32)</title>
<g id="a_node39"><a xlink:title="bevy_pbr::material::extract_materials&lt;bevy_pbr::pbr_material::StandardMaterial&gt;">
<polygon fill="#eff1f3" stroke="#eff1f3" points="335.5,-1960 65.5,-1960 65.5,-1924 335.5,-1924 335.5,-1960"/>
<text text-anchor="middle" x="200.5" y="-1938.3" font-family="Times,serif" font-size="14.00">extract_materials&lt;StandardMaterial&gt;</text>
</a>
</g>
</g>
<!-- node_System(33) -->
<g id="node40" class="node">
<title>node_System(33)</title>
<g id="a_node40"><a xlink:title="bevy_pbr::prepass::extract_camera_prepass_phase">
<polygon fill="#eff1f3" stroke="#eff1f3" points="312.5,-2014 88.5,-2014 88.5,-1978 312.5,-1978 312.5,-2014"/>
<text text-anchor="middle" x="200.5" y="-1992.3" font-family="Times,serif" font-size="14.00">extract_camera_prepass_phase</text>
</a>
</g>
</g>
<!-- node_System(34) -->
<g id="node41" class="node">
<title>node_System(34)</title>
<g id="a_node41"><a xlink:title="bevy_render::extract_component::extract_components&lt;bevy_pbr::environment_map::EnvironmentMapLight&gt;">
<polygon fill="#eff1f3" stroke="#eff1f3" points="362,-2068 39,-2068 39,-2032 362,-2032 362,-2068"/>
<text text-anchor="middle" x="200.5" y="-2046.3" font-family="Times,serif" font-size="14.00">extract_components&lt;EnvironmentMapLight&gt;</text>
</a>
</g>
</g>
<!-- node_System(35) -->
<g id="node42" class="node">
<title>node_System(35)</title>
<g id="a_node42"><a xlink:title="bevy_render::extract_resource::extract_resource&lt;bevy_pbr::light::AmbientLight&gt;">
<polygon fill="#eff1f3" stroke="#eff1f3" points="319,-2122 82,-2122 82,-2086 319,-2086 319,-2122"/>
<text text-anchor="middle" x="200.5" y="-2100.3" font-family="Times,serif" font-size="14.00">extract_resource&lt;AmbientLight&gt;</text>
</a>
</g>
</g>
<!-- node_System(36) -->
<g id="node43" class="node">
<title>node_System(36)</title>
<g id="a_node43"><a xlink:title="bevy_render::extract_component::extract_components&lt;bevy_pbr::fog::FogSettings&gt;">
<polygon fill="#eff1f3" stroke="#eff1f3" points="322,-2176 79,-2176 79,-2140 322,-2140 322,-2176"/>
<text text-anchor="middle" x="200.5" y="-2154.3" font-family="Times,serif" font-size="14.00">extract_components&lt;FogSettings&gt;</text>
</a>
</g>
</g>
</g>
</svg>
