<?xml version="1.0" encoding="UTF-8" standalone="no"?>
<!DOCTYPE svg PUBLIC "-//W3C//DTD SVG 1.1//EN"
 "http://www.w3.org/Graphics/SVG/1.1/DTD/svg11.dtd">
<!-- Generated by graphviz version 7.1.0 (0)
 -->
<!-- Pages: 1 -->
<svg width="603pt" height="1932pt"
 viewBox="0.00 0.00 603.00 1932.00" xmlns="http://www.w3.org/2000/svg" xmlns:xlink="http://www.w3.org/1999/xlink">
<g id="graph0" class="graph" transform="scale(1 1) rotate(0) translate(4 1928)">
<polygon fill="#0d1117" stroke="none" points="-4,4 -4,-1928 599,-1928 599,4 -4,4"/>
<g id="clust1" class="cluster">
<title>clusternode_Set(22)</title>
<g id="a_clust1"><a xlink:title="ExtractSprites">
<path fill="#ffffff" fill-opacity="0.266667" stroke="#ffffff" stroke-width="2" stroke-opacity="0.313725" d="M147.5,-8C147.5,-8 253.5,-8 253.5,-8 259.5,-8 265.5,-14 265.5,-20 265.5,-20 265.5,-82 265.5,-82 265.5,-88 259.5,-94 253.5,-94 253.5,-94 147.5,-94 147.5,-94 141.5,-94 135.5,-88 135.5,-82 135.5,-82 135.5,-20 135.5,-20 135.5,-14 141.5,-8 147.5,-8"/>
<text text-anchor="middle" x="200.5" y="-78.8" font-family="Helvetica,sans-Serif" font-size="14.00">ExtractSprites</text>
</a>
</g>
</g>
<g id="clust2" class="cluster">
<title>clusternode_Set(29)</title>
<g id="a_clust2"><a xlink:title="ExtractNode">
<path fill="#ffffff" fill-opacity="0.266667" stroke="#ffffff" stroke-width="2" stroke-opacity="0.313725" d="M143.5,-102C143.5,-102 257.5,-102 257.5,-102 263.5,-102 269.5,-108 269.5,-114 269.5,-114 269.5,-176 269.5,-176 269.5,-182 263.5,-188 257.5,-188 257.5,-188 143.5,-188 143.5,-188 137.5,-188 131.5,-182 131.5,-176 131.5,-176 131.5,-114 131.5,-114 131.5,-108 137.5,-102 143.5,-102"/>
<text text-anchor="middle" x="200.5" y="-172.8" font-family="Helvetica,sans-Serif" font-size="14.00">ExtractNode</text>
</a>
</g>
</g>
<g id="clust3" class="cluster">
<title>clusternode_Set(40)</title>
<g id="a_clust3"><a xlink:title="ExtractClusters">
<path fill="#ffffff" fill-opacity="0.266667" stroke="#ffffff" stroke-width="2" stroke-opacity="0.313725" d="M143.5,-196C143.5,-196 257.5,-196 257.5,-196 263.5,-196 269.5,-202 269.5,-208 269.5,-208 269.5,-270 269.5,-270 269.5,-276 263.5,-282 257.5,-282 257.5,-282 143.5,-282 143.5,-282 137.5,-282 131.5,-276 131.5,-270 131.5,-270 131.5,-208 131.5,-208 131.5,-202 137.5,-196 143.5,-196"/>
<text text-anchor="middle" x="200.5" y="-266.8" font-family="Helvetica,sans-Serif" font-size="14.00">ExtractClusters</text>
</a>
</g>
</g>
<g id="clust4" class="cluster">
<title>clusternode_Set(42)</title>
<g id="a_clust4"><a xlink:title="ExtractLights">
<path fill="#ffffff" fill-opacity="0.266667" stroke="#ffffff" stroke-width="2" stroke-opacity="0.313725" d="M151.5,-290C151.5,-290 249.5,-290 249.5,-290 255.5,-290 261.5,-296 261.5,-302 261.5,-302 261.5,-364 261.5,-364 261.5,-370 255.5,-376 249.5,-376 249.5,-376 151.5,-376 151.5,-376 145.5,-376 139.5,-370 139.5,-364 139.5,-364 139.5,-302 139.5,-302 139.5,-296 145.5,-290 151.5,-290"/>
<text text-anchor="middle" x="200.5" y="-360.8" font-family="Helvetica,sans-Serif" font-size="14.00">ExtractLights</text>
</a>
</g>
</g>
<!-- set_marker_node_Set(22) -->
<!-- node_System(23) -->
<g id="node31" class="node">
<title>node_System(23)</title>
<g id="a_node31"><a xlink:title="bevy_text::text2d::extract_text2d_sprite">
<polygon fill="lightgrey" stroke="black" points="595,-81 437,-81 437,-45 595,-45 595,-81"/>
<text text-anchor="middle" x="516" y="-59.3" font-family="Times,serif" font-size="14.00">extract_text2d_sprite</text>
</a>
</g>
</g>
<!-- set_marker_node_Set(22)&#45;&gt;node_System(23) -->
<g id="edge1" class="edge">
<title>set_marker_node_Set(22)&#45;&gt;node_System(23)</title>
<g id="a_edge1"><a xlink:title="ExtractSprites → extract_text2d_sprite">
<path fill="none" stroke="#eede00" stroke-width="2" d="M265.5,-63C311.04,-63 372.9,-63 423.63,-63"/>
<polygon fill="#eede00" stroke="#eede00" stroke-width="2" points="423.52,-66.5 433.52,-63 423.52,-59.5 423.52,-66.5"/>
</a>
</g>
</g>
<!-- node_System(21) -->
<g id="node2" class="node">
<title>node_System(21)</title>
<g id="a_node2"><a xlink:title="bevy_sprite::render::extract_sprites">
<polygon fill="#eff1f3" stroke="#b4bec7" points="257.5,-52 143.5,-52 143.5,-16 257.5,-16 257.5,-52"/>
<text text-anchor="middle" x="200.5" y="-30.3" font-family="Helvetica,sans-Serif" font-size="14.00" fill="#15191d">extract_sprites</text>
</a>
</g>
</g>
<!-- set_marker_node_Set(29) -->
<!-- node_System(28) -->
<g id="node35" class="node">
<title>node_System(28)</title>
<g id="a_node35"><a xlink:title="bevy_ui::render::extract_text_uinodes">
<polygon fill="lightgrey" stroke="black" points="594,-175 438,-175 438,-139 594,-139 594,-175"/>
<text text-anchor="middle" x="516" y="-153.3" font-family="Times,serif" font-size="14.00">extract_text_uinodes</text>
</a>
</g>
</g>
<!-- set_marker_node_Set(29)&#45;&gt;node_System(28) -->
<g id="edge2" class="edge">
<title>set_marker_node_Set(29)&#45;&gt;node_System(28)</title>
<g id="a_edge2"><a xlink:title="ExtractNode → extract_text_uinodes">
<path fill="none" stroke="#881877" stroke-width="2" d="M269.5,-157C314.98,-157 375.34,-157 424.82,-157"/>
<polygon fill="#881877" stroke="#881877" stroke-width="2" points="424.72,-160.5 434.72,-157 424.72,-153.5 424.72,-160.5"/>
</a>
</g>
</g>
<!-- node_System(27) -->
<g id="node4" class="node">
<title>node_System(27)</title>
<g id="a_node4"><a xlink:title="bevy_ui::render::extract_uinodes">
<polygon fill="#ffb1e5" stroke="#ff4bc2" points="261.5,-146 139.5,-146 139.5,-110 261.5,-110 261.5,-146"/>
<text text-anchor="middle" x="200.5" y="-124.3" font-family="Helvetica,sans-Serif" font-size="14.00" fill="#320021">extract_uinodes</text>
</a>
</g>
</g>
<!-- set_marker_node_Set(40) -->
<!-- node_System(37) -->
<g id="node6" class="node">
<title>node_System(37)</title>
<g id="a_node6"><a xlink:title="bevy_pbr::render::light::extract_clusters">
<polygon fill="#abd5fc" stroke="#48a3f8" points="261.5,-240 139.5,-240 139.5,-204 261.5,-204 261.5,-240"/>
<text text-anchor="middle" x="200.5" y="-218.3" font-family="Helvetica,sans-Serif" font-size="14.00" fill="#011a31">extract_clusters</text>
</a>
</g>
</g>
<!-- set_marker_node_Set(42) -->
<!-- node_System(38) -->
<g id="node8" class="node">
<title>node_System(38)</title>
<g id="a_node8"><a xlink:title="bevy_pbr::render::light::extract_lights">
<polygon fill="#abd5fc" stroke="#48a3f8" points="253.5,-334 147.5,-334 147.5,-298 253.5,-298 253.5,-334"/>
<text text-anchor="middle" x="200.5" y="-312.3" font-family="Helvetica,sans-Serif" font-size="14.00" fill="#011a31">extract_lights</text>
</a>
</g>
</g>
<!-- node_System(0) -->
<g id="node9" class="node">
<title>node_System(0)</title>
<g id="a_node9"><a xlink:title="bevy_render::render_resource::pipeline_cache::PipelineCache::extract_shaders">
<polygon fill="lightgrey" stroke="black" points="261.5,-420 139.5,-420 139.5,-384 261.5,-384 261.5,-420"/>
<text text-anchor="middle" x="200.5" y="-398.3" font-family="Times,serif" font-size="14.00">extract_shaders</text>
</a>
</g>
</g>
<!-- node_System(1) -->
<g id="node10" class="node">
<title>node_System(1)</title>
<g id="a_node10"><a xlink:title="bevy_render::view::window::extract_windows">
<polygon fill="lightgrey" stroke="black" points="266,-467 135,-467 135,-431 266,-431 266,-467"/>
<text text-anchor="middle" x="200.5" y="-445.3" font-family="Times,serif" font-size="14.00">extract_windows</text>
</a>
</g>
</g>
<!-- node_System(2) -->
<g id="node11" class="node">
<title>node_System(2)</title>
<g id="a_node11"><a xlink:title="bevy_render::camera::camera::extract_cameras">
<polygon fill="lightgrey" stroke="black" points="264,-514 137,-514 137,-478 264,-478 264,-514"/>
<text text-anchor="middle" x="200.5" y="-492.3" font-family="Times,serif" font-size="14.00">extract_cameras</text>
</a>
</g>
</g>
<!-- node_System(3) -->
<g id="node12" class="node">
<title>node_System(3)</title>
<g id="a_node12"><a xlink:title="bevy_render::extract_resource::extract_resource&lt;bevy_render::view::Msaa&gt;">
<polygon fill="lightgrey" stroke="black" points="290.5,-561 110.5,-561 110.5,-525 290.5,-525 290.5,-561"/>
<text text-anchor="middle" x="200.5" y="-539.3" font-family="Times,serif" font-size="14.00">extract_resource&lt;Msaa&gt;</text>
</a>
</g>
</g>
<!-- node_System(4) -->
<g id="node13" class="node">
<title>node_System(4)</title>
<g id="a_node13"><a xlink:title="bevy_render::render_asset::extract_render_asset&lt;bevy_render::mesh::mesh::Mesh&gt;">
<polygon fill="lightgrey" stroke="black" points="304,-608 97,-608 97,-572 304,-572 304,-608"/>
<text text-anchor="middle" x="200.5" y="-586.3" font-family="Times,serif" font-size="14.00">extract_render_asset&lt;Mesh&gt;</text>
</a>
</g>
</g>
<!-- node_System(5) -->
<g id="node14" class="node">
<title>node_System(5)</title>
<g id="a_node14"><a xlink:title="bevy_render::globals::extract_frame_count">
<polygon fill="lightgrey" stroke="black" points="278.5,-655 122.5,-655 122.5,-619 278.5,-619 278.5,-655"/>
<text text-anchor="middle" x="200.5" y="-633.3" font-family="Times,serif" font-size="14.00">extract_frame_count</text>
</a>
</g>
</g>
<!-- node_System(6) -->
<g id="node15" class="node">
<title>node_System(6)</title>
<g id="a_node15"><a xlink:title="bevy_render::globals::extract_time">
<polygon fill="lightgrey" stroke="black" points="251,-702 150,-702 150,-666 251,-666 251,-702"/>
<text text-anchor="middle" x="200.5" y="-680.3" font-family="Times,serif" font-size="14.00">extract_time</text>
</a>
</g>
</g>
<!-- node_System(7) -->
<g id="node16" class="node">
<title>node_System(7)</title>
<g id="a_node16"><a xlink:title="bevy_render::render_asset::extract_render_asset&lt;bevy_render::texture::image::Image&gt;">
<polygon fill="lightgrey" stroke="black" points="307,-749 94,-749 94,-713 307,-713 307,-749"/>
<text text-anchor="middle" x="200.5" y="-727.3" font-family="Times,serif" font-size="14.00">extract_render_asset&lt;Image&gt;</text>
</a>
</g>
</g>
<!-- node_System(8) -->
<g id="node17" class="node">
<title>node_System(8)</title>
<g id="a_node17"><a xlink:title="bevy_render::extract_resource::extract_resource&lt;bevy_core_pipeline::clear_color::ClearColor&gt;">
<polygon fill="lightgrey" stroke="black" points="308,-796 93,-796 93,-760 308,-760 308,-796"/>
<text text-anchor="middle" x="200.5" y="-774.3" font-family="Times,serif" font-size="14.00">extract_resource&lt;ClearColor&gt;</text>
</a>
</g>
</g>
<!-- node_System(9) -->
<g id="node18" class="node">
<title>node_System(9)</title>
<g id="a_node18"><a xlink:title="bevy_render::extract_component::extract_components&lt;bevy_core_pipeline::core_2d::camera_2d::Camera2d&gt;">
<polygon fill="lightgrey" stroke="black" points="318,-843 83,-843 83,-807 318,-807 318,-843"/>
<text text-anchor="middle" x="200.5" y="-821.3" font-family="Times,serif" font-size="14.00">extract_components&lt;Camera2d&gt;</text>
</a>
</g>
</g>
<!-- node_System(10) -->
<g id="node19" class="node">
<title>node_System(10)</title>
<g id="a_node19"><a xlink:title="bevy_core_pipeline::core_2d::extract_core_2d_camera_phases">
<polygon fill="lightgrey" stroke="black" points="316,-890 85,-890 85,-854 316,-854 316,-890"/>
<text text-anchor="middle" x="200.5" y="-868.3" font-family="Times,serif" font-size="14.00">extract_core_2d_camera_phases</text>
</a>
</g>
</g>
<!-- node_System(11) -->
<g id="node20" class="node">
<title>node_System(11)</title>
<g id="a_node20"><a xlink:title="bevy_render::extract_component::extract_components&lt;bevy_core_pipeline::core_3d::camera_3d::Camera3d&gt;">
<polygon fill="lightgrey" stroke="black" points="318,-937 83,-937 83,-901 318,-901 318,-937"/>
<text text-anchor="middle" x="200.5" y="-915.3" font-family="Times,serif" font-size="14.00">extract_components&lt;Camera3d&gt;</text>
</a>
</g>
</g>
<!-- node_System(12) -->
<g id="node21" class="node">
<title>node_System(12)</title>
<g id="a_node21"><a xlink:title="bevy_core_pipeline::core_3d::extract_core_3d_camera_phases">
<polygon fill="lightgrey" stroke="black" points="316,-984 85,-984 85,-948 316,-948 316,-984"/>
<text text-anchor="middle" x="200.5" y="-962.3" font-family="Times,serif" font-size="14.00">extract_core_3d_camera_phases</text>
</a>
</g>
</g>
<!-- node_System(13) -->
<g id="node22" class="node">
<title>node_System(13)</title>
<g id="a_node22"><a xlink:title="bevy_render::extract_resource::extract_resource&lt;bevy_core_pipeline::tonemapping::TonemappingLuts&gt;">
<polygon fill="lightgrey" stroke="black" points="333.5,-1031 67.5,-1031 67.5,-995 333.5,-995 333.5,-1031"/>
<text text-anchor="middle" x="200.5" y="-1009.3" font-family="Times,serif" font-size="14.00">extract_resource&lt;TonemappingLuts&gt;</text>
</a>
</g>
</g>
<!-- node_System(14) -->
<g id="node23" class="node">
<title>node_System(14)</title>
<g id="a_node23"><a xlink:title="bevy_render::extract_component::extract_components&lt;bevy_core_pipeline::tonemapping::Tonemapping&gt;">
<polygon fill="lightgrey" stroke="black" points="330.5,-1078 70.5,-1078 70.5,-1042 330.5,-1042 330.5,-1078"/>
<text text-anchor="middle" x="200.5" y="-1056.3" font-family="Times,serif" font-size="14.00">extract_components&lt;Tonemapping&gt;</text>
</a>
</g>
</g>
<!-- node_System(15) -->
<g id="node24" class="node">
<title>node_System(15)</title>
<g id="a_node24"><a xlink:title="bevy_render::extract_component::extract_components&lt;bevy_core_pipeline::tonemapping::DebandDither&gt;">
<polygon fill="lightgrey" stroke="black" points="332,-1125 69,-1125 69,-1089 332,-1089 332,-1125"/>
<text text-anchor="middle" x="200.5" y="-1103.3" font-family="Times,serif" font-size="14.00">extract_components&lt;DebandDither&gt;</text>
</a>
</g>
</g>
<!-- node_System(16) -->
<g id="node25" class="node">
<title>node_System(16)</title>
<g id="a_node25"><a xlink:title="bevy_render::extract_component::extract_components&lt;bevy_core_pipeline::bloom::settings::BloomSettings&gt;">
<polygon fill="lightgrey" stroke="black" points="332,-1172 69,-1172 69,-1136 332,-1136 332,-1172"/>
<text text-anchor="middle" x="200.5" y="-1150.3" font-family="Times,serif" font-size="14.00">extract_components&lt;BloomSettings&gt;</text>
</a>
</g>
</g>
<!-- node_System(17) -->
<g id="node26" class="node">
<title>node_System(17)</title>
<g id="a_node26"><a xlink:title="bevy_render::extract_component::extract_components&lt;bevy_core_pipeline::fxaa::Fxaa&gt;">
<polygon fill="lightgrey" stroke="black" points="300.5,-1219 100.5,-1219 100.5,-1183 300.5,-1183 300.5,-1219"/>
<text text-anchor="middle" x="200.5" y="-1197.3" font-family="Times,serif" font-size="14.00">extract_components&lt;Fxaa&gt;</text>
</a>
</g>
</g>
<!-- node_System(18) -->
<g id="node27" class="node">
<title>node_System(18)</title>
<g id="a_node27"><a xlink:title="bevy_sprite::mesh2d::mesh::extract_mesh2d">
<polygon fill="lightgrey" stroke="black" points="261.5,-1266 139.5,-1266 139.5,-1230 261.5,-1230 261.5,-1266"/>
<text text-anchor="middle" x="200.5" y="-1244.3" font-family="Times,serif" font-size="14.00">extract_mesh2d</text>
</a>
</g>
</g>
<!-- node_System(19) -->
<g id="node28" class="node">
<title>node_System(19)</title>
<g id="a_node28"><a xlink:title="bevy_render::extract_component::extract_visible_components&lt;bevy_asset::handle::Handle&lt;bevy_sprite::mesh2d::color_material::ColorMaterial&gt;&gt;">
<polygon fill="lightgrey" stroke="black" points="388.5,-1313 12.5,-1313 12.5,-1277 388.5,-1277 388.5,-1313"/>
<text text-anchor="middle" x="200.5" y="-1291.3" font-family="Times,serif" font-size="14.00">extract_visible_components&lt;Handle&lt;ColorMaterial&gt;&gt;</text>
</a>
</g>
</g>
<!-- node_System(20) -->
<g id="node29" class="node">
<title>node_System(20)</title>
<g id="a_node29"><a xlink:title="bevy_sprite::mesh2d::material::extract_materials_2d&lt;bevy_sprite::mesh2d::color_material::ColorMaterial&gt;">
<polygon fill="lightgrey" stroke="black" points="334,-1360 67,-1360 67,-1324 334,-1324 334,-1360"/>
<text text-anchor="middle" x="200.5" y="-1338.3" font-family="Times,serif" font-size="14.00">extract_materials_2d&lt;ColorMaterial&gt;</text>
</a>
</g>
</g>
<!-- node_System(22) -->
<g id="node30" class="node">
<title>node_System(22)</title>
<g id="a_node30"><a xlink:title="bevy_sprite::render::extract_sprite_events">
<polygon fill="lightgrey" stroke="black" points="280,-1407 121,-1407 121,-1371 280,-1371 280,-1407"/>
<text text-anchor="middle" x="200.5" y="-1385.3" font-family="Times,serif" font-size="14.00">extract_sprite_events</text>
</a>
</g>
</g>
<!-- node_System(24) -->
<g id="node32" class="node">
<title>node_System(24)</title>
<g id="a_node32"><a xlink:title="bevy_render::extract_component::extract_components&lt;bevy_ui::camera_config::UiCameraConfig&gt;">
<polygon fill="lightgrey" stroke="black" points="338,-1454 63,-1454 63,-1418 338,-1418 338,-1454"/>
<text text-anchor="middle" x="200.5" y="-1432.3" font-family="Times,serif" font-size="14.00">extract_components&lt;UiCameraConfig&gt;</text>
</a>
</g>
</g>
<!-- node_System(25) -->
<g id="node33" class="node">
<title>node_System(25)</title>
<g id="a_node33"><a xlink:title="bevy_ui::render::extract_default_ui_camera_view&lt;bevy_core_pipeline::core_2d::camera_2d::Camera2d&gt;">
<polygon fill="lightgrey" stroke="black" points="359,-1501 42,-1501 42,-1465 359,-1465 359,-1501"/>
<text text-anchor="middle" x="200.5" y="-1479.3" font-family="Times,serif" font-size="14.00">extract_default_ui_camera_view&lt;Camera2d&gt;</text>
</a>
</g>
</g>
<!-- node_System(26) -->
<g id="node34" class="node">
<title>node_System(26)</title>
<g id="a_node34"><a xlink:title="bevy_ui::render::extract_default_ui_camera_view&lt;bevy_core_pipeline::core_3d::camera_3d::Camera3d&gt;">
<polygon fill="lightgrey" stroke="black" points="359,-1548 42,-1548 42,-1512 359,-1512 359,-1548"/>
<text text-anchor="middle" x="200.5" y="-1526.3" font-family="Times,serif" font-size="14.00">extract_default_ui_camera_view&lt;Camera3d&gt;</text>
</a>
</g>
</g>
<!-- node_System(29) -->
<g id="node36" class="node">
<title>node_System(29)</title>
<g id="a_node36"><a xlink:title="bevy_pbr::render::mesh::extract_meshes">
<polygon fill="lightgrey" stroke="black" points="260.5,-1595 140.5,-1595 140.5,-1559 260.5,-1559 260.5,-1595"/>
<text text-anchor="middle" x="200.5" y="-1573.3" font-family="Times,serif" font-size="14.00">extract_meshes</text>
</a>
</g>
</g>
<!-- node_System(30) -->
<g id="node37" class="node">
<title>node_System(30)</title>
<g id="a_node37"><a xlink:title="bevy_pbr::render::mesh::extract_skinned_meshes">
<polygon fill="lightgrey" stroke="black" points="290,-1642 111,-1642 111,-1606 290,-1606 290,-1642"/>
<text text-anchor="middle" x="200.5" y="-1620.3" font-family="Times,serif" font-size="14.00">extract_skinned_meshes</text>
</a>
</g>
</g>
<!-- node_System(31) -->
<g id="node38" class="node">
<title>node_System(31)</title>
<g id="a_node38"><a xlink:title="bevy_render::extract_component::extract_visible_components&lt;bevy_asset::handle::Handle&lt;bevy_pbr::pbr_material::StandardMaterial&gt;&gt;">
<polygon fill="lightgrey" stroke="black" points="401,-1689 0,-1689 0,-1653 401,-1653 401,-1689"/>
<text text-anchor="middle" x="200.5" y="-1667.3" font-family="Times,serif" font-size="14.00">extract_visible_components&lt;Handle&lt;StandardMaterial&gt;&gt;</text>
</a>
</g>
</g>
<!-- node_System(32) -->
<g id="node39" class="node">
<title>node_System(32)</title>
<g id="a_node39"><a xlink:title="bevy_pbr::material::extract_materials&lt;bevy_pbr::pbr_material::StandardMaterial&gt;">
<polygon fill="lightgrey" stroke="black" points="335.5,-1736 65.5,-1736 65.5,-1700 335.5,-1700 335.5,-1736"/>
<text text-anchor="middle" x="200.5" y="-1714.3" font-family="Times,serif" font-size="14.00">extract_materials&lt;StandardMaterial&gt;</text>
</a>
</g>
</g>
<!-- node_System(33) -->
<g id="node40" class="node">
<title>node_System(33)</title>
<g id="a_node40"><a xlink:title="bevy_pbr::prepass::extract_camera_prepass_phase">
<polygon fill="lightgrey" stroke="black" points="312.5,-1783 88.5,-1783 88.5,-1747 312.5,-1747 312.5,-1783"/>
<text text-anchor="middle" x="200.5" y="-1761.3" font-family="Times,serif" font-size="14.00">extract_camera_prepass_phase</text>
</a>
</g>
</g>
<!-- node_System(34) -->
<g id="node41" class="node">
<title>node_System(34)</title>
<g id="a_node41"><a xlink:title="bevy_render::extract_component::extract_components&lt;bevy_pbr::environment_map::EnvironmentMapLight&gt;">
<polygon fill="lightgrey" stroke="black" points="362,-1830 39,-1830 39,-1794 362,-1794 362,-1830"/>
<text text-anchor="middle" x="200.5" y="-1808.3" font-family="Times,serif" font-size="14.00">extract_components&lt;EnvironmentMapLight&gt;</text>
</a>
</g>
</g>
<!-- node_System(35) -->
<g id="node42" class="node">
<title>node_System(35)</title>
<g id="a_node42"><a xlink:title="bevy_render::extract_resource::extract_resource&lt;bevy_pbr::light::AmbientLight&gt;">
<polygon fill="lightgrey" stroke="black" points="319,-1877 82,-1877 82,-1841 319,-1841 319,-1877"/>
<text text-anchor="middle" x="200.5" y="-1855.3" font-family="Times,serif" font-size="14.00">extract_resource&lt;AmbientLight&gt;</text>
</a>
</g>
</g>
<!-- node_System(36) -->
<g id="node43" class="node">
<title>node_System(36)</title>
<g id="a_node43"><a xlink:title="bevy_render::extract_component::extract_components&lt;bevy_pbr::fog::FogSettings&gt;">
<polygon fill="lightgrey" stroke="black" points="322,-1924 79,-1924 79,-1888 322,-1888 322,-1924"/>
<text text-anchor="middle" x="200.5" y="-1902.3" font-family="Times,serif" font-size="14.00">extract_components&lt;FogSettings&gt;</text>
</a>
</g>
</g>
</g>
</svg>
