<?xml version="1.0" encoding="UTF-8" standalone="no"?>
<!DOCTYPE svg PUBLIC "-//W3C//DTD SVG 1.1//EN"
 "http://www.w3.org/Graphics/SVG/1.1/DTD/svg11.dtd">
<!-- Generated by graphviz version 12.1.2 (0)
 -->
<!-- Pages: 1 -->
<svg width="1636pt" height="2837pt"
 viewBox="0.00 0.00 1635.75 2837.00" xmlns="http://www.w3.org/2000/svg" xmlns:xlink="http://www.w3.org/1999/xlink">
<g id="graph0" class="graph" transform="scale(1 1) rotate(0) translate(4 2833)">
<polygon fill="#0d1117" stroke="none" points="-4,4 -4,-2833 1631.75,-2833 1631.75,4 -4,4"/>
<g id="clust1" class="cluster">
<title>clusternode_Set(38)</title>
<g id="a_clust1"><a xlink:title="ExtractSprites">
<path fill="#ffffff" fill-opacity="0.266667" stroke="#ffffff" stroke-width="2" stroke-opacity="0.313725" d="M181.38,-8C181.38,-8 292.12,-8 292.12,-8 298.12,-8 304.12,-14 304.12,-20 304.12,-20 304.12,-88 304.12,-88 304.12,-94 298.12,-100 292.12,-100 292.12,-100 181.38,-100 181.38,-100 175.38,-100 169.38,-94 169.38,-88 169.38,-88 169.38,-20 169.38,-20 169.38,-14 175.38,-8 181.38,-8"/>
<text text-anchor="middle" x="236.75" y="-82.7" font-family="Helvetica,sans-Serif" font-size="14.00" fill="#ffffff">ExtractSprites</text>
</a>
</g>
</g>
<g id="clust2" class="cluster">
<title>clusternode_Set(41)</title>
<g id="a_clust2"><a xlink:title="ExtractBoxShadows">
<path fill="#ffffff" fill-opacity="0.266667" stroke="#ffffff" stroke-width="2" stroke-opacity="0.313725" d="M172.25,-108C172.25,-108 302.25,-108 302.25,-108 308.25,-108 314.25,-114 314.25,-120 314.25,-120 314.25,-188 314.25,-188 314.25,-194 308.25,-200 302.25,-200 302.25,-200 172.25,-200 172.25,-200 166.25,-200 160.25,-194 160.25,-188 160.25,-188 160.25,-120 160.25,-120 160.25,-114 166.25,-108 172.25,-108"/>
<text text-anchor="middle" x="237.25" y="-182.7" font-family="Helvetica,sans-Serif" font-size="14.00" fill="#ffffff">ExtractBoxShadows</text>
</a>
</g>
</g>
<g id="clust3" class="cluster">
<title>clusternode_Set(42)</title>
<g id="a_clust3"><a xlink:title="ExtractBackgrounds">
<path fill="#ffffff" fill-opacity="0.266667" stroke="#ffffff" stroke-width="2" stroke-opacity="0.313725" d="M513.5,-108C513.5,-108 761.5,-108 761.5,-108 767.5,-108 773.5,-114 773.5,-120 773.5,-120 773.5,-188 773.5,-188 773.5,-194 767.5,-200 761.5,-200 761.5,-200 513.5,-200 513.5,-200 507.5,-200 501.5,-194 501.5,-188 501.5,-188 501.5,-120 501.5,-120 501.5,-114 507.5,-108 513.5,-108"/>
<text text-anchor="middle" x="637.5" y="-182.7" font-family="Helvetica,sans-Serif" font-size="14.00" fill="#ffffff">ExtractBackgrounds</text>
</a>
</g>
</g>
<g id="clust4" class="cluster">
<title>clusternode_Set(43)</title>
<g id="a_clust4"><a xlink:title="ExtractImages">
<path fill="#ffffff" fill-opacity="0.266667" stroke="#ffffff" stroke-width="2" stroke-opacity="0.313725" d="M805.5,-108C805.5,-108 973.25,-108 973.25,-108 979.25,-108 985.25,-114 985.25,-120 985.25,-120 985.25,-188 985.25,-188 985.25,-194 979.25,-200 973.25,-200 973.25,-200 805.5,-200 805.5,-200 799.5,-200 793.5,-194 793.5,-188 793.5,-188 793.5,-120 793.5,-120 793.5,-114 799.5,-108 805.5,-108"/>
<text text-anchor="middle" x="889.38" y="-182.7" font-family="Helvetica,sans-Serif" font-size="14.00" fill="#ffffff">ExtractImages</text>
</a>
</g>
</g>
<g id="clust5" class="cluster">
<title>clusternode_Set(44)</title>
<g id="a_clust5"><a xlink:title="ExtractTextureSlice">
<path fill="#ffffff" fill-opacity="0.266667" stroke="#ffffff" stroke-width="2" stroke-opacity="0.313725" d="M1017.25,-108C1017.25,-108 1194.75,-108 1194.75,-108 1200.75,-108 1206.75,-114 1206.75,-120 1206.75,-120 1206.75,-188 1206.75,-188 1206.75,-194 1200.75,-200 1194.75,-200 1194.75,-200 1017.25,-200 1017.25,-200 1011.25,-200 1005.25,-194 1005.25,-188 1005.25,-188 1005.25,-120 1005.25,-120 1005.25,-114 1011.25,-108 1017.25,-108"/>
<text text-anchor="middle" x="1106" y="-182.7" font-family="Helvetica,sans-Serif" font-size="14.00" fill="#ffffff">ExtractTextureSlice</text>
</a>
</g>
</g>
<g id="clust6" class="cluster">
<title>clusternode_Set(45)</title>
<g id="a_clust6"><a xlink:title="ExtractBorders">
<path fill="#ffffff" fill-opacity="0.266667" stroke="#ffffff" stroke-width="2" stroke-opacity="0.313725" d="M1238.75,-108C1238.75,-108 1409.5,-108 1409.5,-108 1415.5,-108 1421.5,-114 1421.5,-120 1421.5,-120 1421.5,-188 1421.5,-188 1421.5,-194 1415.5,-200 1409.5,-200 1409.5,-200 1238.75,-200 1238.75,-200 1232.75,-200 1226.75,-194 1226.75,-188 1226.75,-188 1226.75,-120 1226.75,-120 1226.75,-114 1232.75,-108 1238.75,-108"/>
<text text-anchor="middle" x="1324.12" y="-182.7" font-family="Helvetica,sans-Serif" font-size="14.00" fill="#ffffff">ExtractBorders</text>
</a>
</g>
</g>
<g id="clust7" class="cluster">
<title>clusternode_Set(46)</title>
<g id="a_clust7"><a xlink:title="ExtractText">
<path fill="#ffffff" fill-opacity="0.266667" stroke="#ffffff" stroke-width="2" stroke-opacity="0.313725" d="M1453.5,-108C1453.5,-108 1607.75,-108 1607.75,-108 1613.75,-108 1619.75,-114 1619.75,-120 1619.75,-120 1619.75,-188 1619.75,-188 1619.75,-194 1613.75,-200 1607.75,-200 1607.75,-200 1453.5,-200 1453.5,-200 1447.5,-200 1441.5,-194 1441.5,-188 1441.5,-188 1441.5,-120 1441.5,-120 1441.5,-114 1447.5,-108 1453.5,-108"/>
<text text-anchor="middle" x="1530.62" y="-182.7" font-family="Helvetica,sans-Serif" font-size="14.00" fill="#ffffff">ExtractText</text>
</a>
</g>
</g>
<g id="clust8" class="cluster">
<title>clusternode_Set(57)</title>
<g id="a_clust8"><a xlink:title="ExtractMeshesSet">
<path fill="#ffffff" fill-opacity="0.266667" stroke="#ffffff" stroke-width="2" stroke-opacity="0.313725" d="M579.75,-216C579.75,-216 696.25,-216 696.25,-216 702.25,-216 708.25,-222 708.25,-228 708.25,-228 708.25,-249 708.25,-249 708.25,-255 702.25,-261 696.25,-261 696.25,-261 579.75,-261 579.75,-261 573.75,-261 567.75,-255 567.75,-249 567.75,-249 567.75,-228 567.75,-228 567.75,-222 573.75,-216 579.75,-216"/>
<text text-anchor="middle" x="638" y="-243.7" font-family="Helvetica,sans-Serif" font-size="14.00" fill="#ffffff">ExtractMeshesSet</text>
</a>
</g>
</g>
<!-- set_marker_node_Set(38) -->
<!-- node_System(39) -->
<g id="node54" class="node">
<title>node_System(39)</title>
<g id="a_node54"><a xlink:title="bevy_text::text2d::extract_text2d_sprite">
<polygon fill="lightgrey" stroke="black" points="722,-36 553,-36 553,0 722,0 722,-36"/>
<text text-anchor="middle" x="637.5" y="-13.32" font-family="Times,serif" font-size="14.00">extract_text2d_sprite</text>
</a>
</g>
</g>
<!-- set_marker_node_Set(38)&#45;&gt;node_System(39) -->
<g id="edge1" class="edge">
<title>set_marker_node_Set(38)&#45;&gt;node_System(39)</title>
<g id="a_edge1"><a xlink:title="ExtractSprites → extract_text2d_sprite">
<path fill="none" stroke="#eede00" stroke-width="2" d="M304.12,-18C368.53,-18 467,-18 540.05,-18"/>
<polygon fill="#eede00" stroke="#eede00" stroke-width="2" points="539.76,-21.5 549.76,-18 539.76,-14.5 539.76,-21.5"/>
</a>
</g>
</g>
<!-- node_System(37) -->
<g id="node2" class="node">
<title>node_System(37)</title>
<g id="a_node2"><a xlink:title="bevy_sprite::render::extract_sprites">
<polygon fill="#eff1f3" stroke="#b4bec7" points="296.12,-67 177.38,-67 177.38,-31 296.12,-31 296.12,-67"/>
<text text-anchor="middle" x="236.75" y="-44.33" font-family="Helvetica,sans-Serif" font-size="14.00" fill="#15191d">extract_sprites</text>
</a>
</g>
</g>
<!-- set_marker_node_Set(41) -->
<!-- set_marker_node_Set(42) -->
<!-- set_marker_node_Set(41)&#45;&gt;set_marker_node_Set(42) -->
<g id="edge2" class="edge">
<title>set_marker_node_Set(41)&#45;&gt;set_marker_node_Set(42)</title>
<g id="a_edge2"><a xlink:title="ExtractBoxShadows → ExtractBackgrounds">
<path fill="none" stroke="#881877" stroke-width="2" d="M314.25,-118C363.55,-118 429.28,-118 488.52,-118"/>
<polygon fill="#881877" stroke="#881877" stroke-width="2" points="488.47,-121.5 498.47,-118 488.47,-114.5 488.47,-121.5"/>
</a>
</g>
</g>
<!-- node_System(46) -->
<g id="node4" class="node">
<title>node_System(46)</title>
<g id="a_node4"><a xlink:title="bevy_ui::render::box_shadow::extract_shadows">
<polygon fill="#ffb1e5" stroke="#ff4bc2" points="302.88,-167 170.62,-167 170.62,-131 302.88,-131 302.88,-167"/>
<text text-anchor="middle" x="236.75" y="-144.32" font-family="Helvetica,sans-Serif" font-size="14.00" fill="#320021">extract_shadows</text>
</a>
</g>
</g>
<!-- set_marker_node_Set(43) -->
<!-- set_marker_node_Set(42)&#45;&gt;set_marker_node_Set(43) -->
<g id="edge3" class="edge">
<title>set_marker_node_Set(42)&#45;&gt;set_marker_node_Set(43)</title>
<g id="a_edge3"><a xlink:title="ExtractBackgrounds → ExtractImages">
<path fill="none" stroke="#00b0cc" stroke-width="2" d="M773.5,-118C775.88,-118 778.26,-118 780.63,-118"/>
<polygon fill="#00b0cc" stroke="#00b0cc" stroke-width="2" points="780.48,-121.5 790.48,-118 780.48,-114.5 780.48,-121.5"/>
</a>
</g>
</g>
<!-- node_System(41) -->
<g id="node6" class="node">
<title>node_System(41)</title>
<g id="a_node6"><a xlink:title="bevy_ui::render::extract_uinode_background_colors">
<polygon fill="#ffb1e5" stroke="#ff4bc2" points="765.5,-167 509.5,-167 509.5,-131 765.5,-131 765.5,-167"/>
<text text-anchor="middle" x="637.5" y="-144.32" font-family="Helvetica,sans-Serif" font-size="14.00" fill="#320021">extract_uinode_background_colors</text>
</a>
</g>
</g>
<!-- set_marker_node_Set(44) -->
<!-- set_marker_node_Set(43)&#45;&gt;set_marker_node_Set(44) -->
<g id="edge4" class="edge">
<title>set_marker_node_Set(43)&#45;&gt;set_marker_node_Set(44)</title>
<g id="a_edge4"><a xlink:title="ExtractImages → ExtractTextureSlice">
<path fill="none" stroke="#aa3a55" stroke-width="2" d="M985.25,-118C987.65,-118 990.06,-118 992.47,-118"/>
<polygon fill="#aa3a55" stroke="#aa3a55" stroke-width="2" points="992.23,-121.5 1002.23,-118 992.23,-114.5 992.23,-121.5"/>
</a>
</g>
</g>
<!-- node_System(42) -->
<g id="node8" class="node">
<title>node_System(42)</title>
<g id="a_node8"><a xlink:title="bevy_ui::render::extract_uinode_images">
<polygon fill="#ffb1e5" stroke="#ff4bc2" points="977.25,-167 801.5,-167 801.5,-131 977.25,-131 977.25,-167"/>
<text text-anchor="middle" x="889.38" y="-144.32" font-family="Helvetica,sans-Serif" font-size="14.00" fill="#320021">extract_uinode_images</text>
</a>
</g>
</g>
<!-- set_marker_node_Set(45) -->
<!-- set_marker_node_Set(44)&#45;&gt;set_marker_node_Set(45) -->
<g id="edge5" class="edge">
<title>set_marker_node_Set(44)&#45;&gt;set_marker_node_Set(45)</title>
<g id="a_edge5"><a xlink:title="ExtractTextureSlice → ExtractBorders">
<path fill="none" stroke="#44d488" stroke-width="2" d="M1206.75,-118C1209.12,-118 1211.49,-118 1213.87,-118"/>
<polygon fill="#44d488" stroke="#44d488" stroke-width="2" points="1213.73,-121.5 1223.73,-118 1213.73,-114.5 1213.73,-121.5"/>
</a>
</g>
</g>
<!-- node_System(45) -->
<g id="node10" class="node">
<title>node_System(45)</title>
<g id="a_node10"><a xlink:title="bevy_ui::render::ui_texture_slice_pipeline::extract_ui_texture_slices">
<polygon fill="#ffb1e5" stroke="#ff4bc2" points="1198.75,-167 1013.25,-167 1013.25,-131 1198.75,-131 1198.75,-167"/>
<text text-anchor="middle" x="1106" y="-144.32" font-family="Helvetica,sans-Serif" font-size="14.00" fill="#320021">extract_ui_texture_slices</text>
</a>
</g>
</g>
<!-- set_marker_node_Set(46) -->
<!-- set_marker_node_Set(45)&#45;&gt;set_marker_node_Set(46) -->
<g id="edge6" class="edge">
<title>set_marker_node_Set(45)&#45;&gt;set_marker_node_Set(46)</title>
<g id="a_edge6"><a xlink:title="ExtractBorders → ExtractText">
<path fill="none" stroke="#0090cc" stroke-width="2" d="M1421.5,-118C1423.82,-118 1426.15,-118 1428.48,-118"/>
<polygon fill="#0090cc" stroke="#0090cc" stroke-width="2" points="1428.48,-121.5 1438.48,-118 1428.48,-114.5 1428.48,-121.5"/>
</a>
</g>
</g>
<!-- node_System(43) -->
<g id="node12" class="node">
<title>node_System(43)</title>
<g id="a_node12"><a xlink:title="bevy_ui::render::extract_uinode_borders">
<polygon fill="#ffb1e5" stroke="#ff4bc2" points="1413.5,-167 1234.75,-167 1234.75,-131 1413.5,-131 1413.5,-167"/>
<text text-anchor="middle" x="1324.12" y="-144.32" font-family="Helvetica,sans-Serif" font-size="14.00" fill="#320021">extract_uinode_borders</text>
</a>
</g>
</g>
<!-- node_System(44) -->
<g id="node14" class="node">
<title>node_System(44)</title>
<g id="a_node14"><a xlink:title="bevy_ui::render::extract_text_sections">
<polygon fill="#ffb1e5" stroke="#ff4bc2" points="1611.75,-167 1449.5,-167 1449.5,-131 1611.75,-131 1611.75,-167"/>
<text text-anchor="middle" x="1530.62" y="-144.32" font-family="Helvetica,sans-Serif" font-size="14.00" fill="#320021">extract_text_sections</text>
</a>
</g>
</g>
<!-- set_marker_node_Set(57) -->
<!-- node_System(0) -->
<g id="node16" class="node">
<title>node_System(0)</title>
<g id="a_node16"><a xlink:title="bevy_render::render_resource::pipeline_cache::PipelineCache::extract_shaders">
<polygon fill="lightgrey" stroke="black" points="301.75,-291 171.75,-291 171.75,-255 301.75,-255 301.75,-291"/>
<text text-anchor="middle" x="236.75" y="-268.32" font-family="Times,serif" font-size="14.00">extract_shaders</text>
</a>
</g>
</g>
<!-- node_System(1) -->
<g id="node17" class="node">
<title>node_System(1)</title>
<g id="a_node17"><a xlink:title="bevy_render::view::window::extract_windows">
<polygon fill="lightgrey" stroke="black" points="304.75,-338 168.75,-338 168.75,-302 304.75,-302 304.75,-338"/>
<text text-anchor="middle" x="236.75" y="-315.32" font-family="Times,serif" font-size="14.00">extract_windows</text>
</a>
</g>
</g>
<!-- node_System(2) -->
<g id="node18" class="node">
<title>node_System(2)</title>
<g id="a_node18"><a xlink:title="bevy_render::extract_resource::extract_resource&lt;bevy_render::camera::manual_texture_view::ManualTextureViews&gt;">
<polygon fill="lightgrey" stroke="black" points="391.75,-385 81.75,-385 81.75,-349 391.75,-349 391.75,-385"/>
<text text-anchor="middle" x="236.75" y="-362.32" font-family="Times,serif" font-size="14.00">extract_resource&lt;ManualTextureViews&gt;</text>
</a>
</g>
</g>
<!-- node_System(3) -->
<g id="node19" class="node">
<title>node_System(3)</title>
<g id="a_node19"><a xlink:title="bevy_render::extract_resource::extract_resource&lt;bevy_render::camera::clear_color::ClearColor&gt;">
<polygon fill="lightgrey" stroke="black" points="355,-432 118.5,-432 118.5,-396 355,-396 355,-432"/>
<text text-anchor="middle" x="236.75" y="-409.32" font-family="Times,serif" font-size="14.00">extract_resource&lt;ClearColor&gt;</text>
</a>
</g>
</g>
<!-- node_System(4) -->
<g id="node20" class="node">
<title>node_System(4)</title>
<g id="a_node20"><a xlink:title="bevy_render::extract_component::extract_components&lt;bevy_render::camera::camera::CameraMainTextureUsages&gt;">
<polygon fill="lightgrey" stroke="black" points="428.12,-479 45.38,-479 45.38,-443 428.12,-443 428.12,-479"/>
<text text-anchor="middle" x="236.75" y="-456.32" font-family="Times,serif" font-size="14.00">extract_components&lt;CameraMainTextureUsages&gt;</text>
</a>
</g>
</g>
<!-- node_System(5) -->
<g id="node21" class="node">
<title>node_System(5)</title>
<g id="a_node21"><a xlink:title="bevy_render::camera::camera::extract_cameras">
<polygon fill="lightgrey" stroke="black" points="303.62,-526 169.88,-526 169.88,-490 303.62,-490 303.62,-526"/>
<text text-anchor="middle" x="236.75" y="-503.32" font-family="Times,serif" font-size="14.00">extract_cameras</text>
</a>
</g>
</g>
<!-- node_System(6) -->
<g id="node22" class="node">
<title>node_System(6)</title>
<g id="a_node22"><a xlink:title="bevy_render::extract_component::extract_components&lt;bevy_render::view::Msaa&gt;">
<polygon fill="lightgrey" stroke="black" points="347.88,-573 125.62,-573 125.62,-537 347.88,-537 347.88,-573"/>
<text text-anchor="middle" x="236.75" y="-550.33" font-family="Times,serif" font-size="14.00">extract_components&lt;Msaa&gt;</text>
</a>
</g>
</g>
<!-- node_System(7) -->
<g id="node23" class="node">
<title>node_System(7)</title>
<g id="a_node23"><a xlink:title="bevy_render::view::visibility::range::extract_visibility_ranges">
<polygon fill="lightgrey" stroke="black" points="332.12,-620 141.38,-620 141.38,-584 332.12,-584 332.12,-620"/>
<text text-anchor="middle" x="236.75" y="-597.33" font-family="Times,serif" font-size="14.00">extract_visibility_ranges</text>
</a>
</g>
</g>
<!-- node_System(8) -->
<g id="node24" class="node">
<title>node_System(8)</title>
<g id="a_node24"><a xlink:title="bevy_render::render_asset::extract_render_asset&lt;bevy_render::mesh::RenderMesh&gt;">
<polygon fill="lightgrey" stroke="black" points="377.12,-667 96.38,-667 96.38,-631 377.12,-631 377.12,-667"/>
<text text-anchor="middle" x="236.75" y="-644.33" font-family="Times,serif" font-size="14.00">extract_render_asset&lt;RenderMesh&gt;</text>
</a>
</g>
</g>
<!-- node_System(9) -->
<g id="node25" class="node">
<title>node_System(9)</title>
<g id="a_node25"><a xlink:title="bevy_render::globals::extract_frame_count">
<polygon fill="lightgrey" stroke="black" points="317.88,-714 155.62,-714 155.62,-678 317.88,-678 317.88,-714"/>
<text text-anchor="middle" x="236.75" y="-691.33" font-family="Times,serif" font-size="14.00">extract_frame_count</text>
</a>
</g>
</g>
<!-- node_System(10) -->
<g id="node26" class="node">
<title>node_System(10)</title>
<g id="a_node26"><a xlink:title="bevy_render::globals::extract_time">
<polygon fill="lightgrey" stroke="black" points="289.75,-761 183.75,-761 183.75,-725 289.75,-725 289.75,-761"/>
<text text-anchor="middle" x="236.75" y="-738.33" font-family="Times,serif" font-size="14.00">extract_time</text>
</a>
</g>
</g>
<!-- node_System(11) -->
<g id="node27" class="node">
<title>node_System(11)</title>
<g id="a_node27"><a xlink:title="bevy_render::render_asset::extract_render_asset&lt;bevy_render::storage::GpuShaderStorageBuffer&gt;">
<polygon fill="lightgrey" stroke="black" points="422.12,-808 51.38,-808 51.38,-772 422.12,-772 422.12,-808"/>
<text text-anchor="middle" x="236.75" y="-785.33" font-family="Times,serif" font-size="14.00">extract_render_asset&lt;GpuShaderStorageBuffer&gt;</text>
</a>
</g>
</g>
<!-- node_System(12) -->
<g id="node28" class="node">
<title>node_System(12)</title>
<g id="a_node28"><a xlink:title="bevy_render::extract_component::extract_components&lt;bevy_render::gpu_readback::Readback&gt;">
<polygon fill="lightgrey" stroke="black" points="363.25,-855 110.25,-855 110.25,-819 363.25,-819 363.25,-855"/>
<text text-anchor="middle" x="236.75" y="-832.33" font-family="Times,serif" font-size="14.00">extract_components&lt;Readback&gt;</text>
</a>
</g>
</g>
<!-- node_System(13) -->
<g id="node29" class="node">
<title>node_System(13)</title>
<g id="a_node29"><a xlink:title="bevy_render::gpu_readback::sync_readbacks">
<polygon fill="lightgrey" stroke="black" points="300.62,-902 172.88,-902 172.88,-866 300.62,-866 300.62,-902"/>
<text text-anchor="middle" x="236.75" y="-879.33" font-family="Times,serif" font-size="14.00">sync_readbacks</text>
</a>
</g>
</g>
<!-- node_System(14) -->
<g id="node30" class="node">
<title>node_System(14)</title>
<g id="a_node30"><a xlink:title="bevy_render::extract_resource::extract_resource&lt;bevy_render::render_asset::RenderAssetBytesPerFrame&gt;">
<polygon fill="lightgrey" stroke="black" points="417.62,-949 55.88,-949 55.88,-913 417.62,-913 417.62,-949"/>
<text text-anchor="middle" x="236.75" y="-926.33" font-family="Times,serif" font-size="14.00">extract_resource&lt;RenderAssetBytesPerFrame&gt;</text>
</a>
</g>
</g>
<!-- node_System(15) -->
<g id="node31" class="node">
<title>node_System(15)</title>
<g id="a_node31"><a xlink:title="bevy_render::render_asset::extract_render_asset&lt;bevy_render::texture::gpu_image::GpuImage&gt;">
<polygon fill="lightgrey" stroke="black" points="368.5,-996 105,-996 105,-960 368.5,-960 368.5,-996"/>
<text text-anchor="middle" x="236.75" y="-973.33" font-family="Times,serif" font-size="14.00">extract_render_asset&lt;GpuImage&gt;</text>
</a>
</g>
</g>
<!-- node_System(16) -->
<g id="node32" class="node">
<title>node_System(16)</title>
<g id="a_node32"><a xlink:title="bevy_render::extract_component::extract_components&lt;bevy_core_pipeline::core_2d::camera_2d::Camera2d&gt;">
<polygon fill="lightgrey" stroke="black" points="365.5,-1043 108,-1043 108,-1007 365.5,-1007 365.5,-1043"/>
<text text-anchor="middle" x="236.75" y="-1020.33" font-family="Times,serif" font-size="14.00">extract_components&lt;Camera2d&gt;</text>
</a>
</g>
</g>
<!-- node_System(17) -->
<g id="node33" class="node">
<title>node_System(17)</title>
<g id="a_node33"><a xlink:title="bevy_core_pipeline::core_2d::extract_core_2d_camera_phases">
<polygon fill="lightgrey" stroke="black" points="359.12,-1090 114.38,-1090 114.38,-1054 359.12,-1054 359.12,-1090"/>
<text text-anchor="middle" x="236.75" y="-1067.33" font-family="Times,serif" font-size="14.00">extract_core_2d_camera_phases</text>
</a>
</g>
</g>
<!-- node_System(18) -->
<g id="node34" class="node">
<title>node_System(18)</title>
<g id="a_node34"><a xlink:title="bevy_render::extract_component::extract_components&lt;bevy_core_pipeline::skybox::Skybox&gt;">
<polygon fill="lightgrey" stroke="black" points="354.62,-1137 118.88,-1137 118.88,-1101 354.62,-1101 354.62,-1137"/>
<text text-anchor="middle" x="236.75" y="-1114.33" font-family="Times,serif" font-size="14.00">extract_components&lt;Skybox&gt;</text>
</a>
</g>
</g>
<!-- node_System(19) -->
<g id="node35" class="node">
<title>node_System(19)</title>
<g id="a_node35"><a xlink:title="bevy_render::extract_component::extract_components&lt;bevy_core_pipeline::core_3d::camera_3d::Camera3d&gt;">
<polygon fill="lightgrey" stroke="black" points="365.5,-1184 108,-1184 108,-1148 365.5,-1148 365.5,-1184"/>
<text text-anchor="middle" x="236.75" y="-1161.33" font-family="Times,serif" font-size="14.00">extract_components&lt;Camera3d&gt;</text>
</a>
</g>
</g>
<!-- node_System(20) -->
<g id="node36" class="node">
<title>node_System(20)</title>
<g id="a_node36"><a xlink:title="bevy_core_pipeline::core_3d::extract_core_3d_camera_phases">
<polygon fill="lightgrey" stroke="black" points="359.12,-1231 114.38,-1231 114.38,-1195 359.12,-1195 359.12,-1231"/>
<text text-anchor="middle" x="236.75" y="-1208.33" font-family="Times,serif" font-size="14.00">extract_core_3d_camera_phases</text>
</a>
</g>
</g>
<!-- node_System(21) -->
<g id="node37" class="node">
<title>node_System(21)</title>
<g id="a_node37"><a xlink:title="bevy_core_pipeline::core_3d::extract_camera_prepass_phase">
<polygon fill="lightgrey" stroke="black" points="355.75,-1278 117.75,-1278 117.75,-1242 355.75,-1242 355.75,-1278"/>
<text text-anchor="middle" x="236.75" y="-1255.33" font-family="Times,serif" font-size="14.00">extract_camera_prepass_phase</text>
</a>
</g>
</g>
<!-- node_System(22) -->
<g id="node38" class="node">
<title>node_System(22)</title>
<g id="a_node38"><a xlink:title="bevy_render::extract_resource::extract_resource&lt;bevy_core_pipeline::tonemapping::TonemappingLuts&gt;">
<polygon fill="lightgrey" stroke="black" points="380.5,-1325 93,-1325 93,-1289 380.5,-1289 380.5,-1325"/>
<text text-anchor="middle" x="236.75" y="-1302.33" font-family="Times,serif" font-size="14.00">extract_resource&lt;TonemappingLuts&gt;</text>
</a>
</g>
</g>
<!-- node_System(23) -->
<g id="node39" class="node">
<title>node_System(23)</title>
<g id="a_node39"><a xlink:title="bevy_render::extract_component::extract_components&lt;bevy_core_pipeline::tonemapping::Tonemapping&gt;">
<polygon fill="lightgrey" stroke="black" points="376.75,-1372 96.75,-1372 96.75,-1336 376.75,-1336 376.75,-1372"/>
<text text-anchor="middle" x="236.75" y="-1349.33" font-family="Times,serif" font-size="14.00">extract_components&lt;Tonemapping&gt;</text>
</a>
</g>
</g>
<!-- node_System(24) -->
<g id="node40" class="node">
<title>node_System(24)</title>
<g id="a_node40"><a xlink:title="bevy_render::extract_component::extract_components&lt;bevy_core_pipeline::tonemapping::DebandDither&gt;">
<polygon fill="lightgrey" stroke="black" points="379,-1419 94.5,-1419 94.5,-1383 379,-1383 379,-1419"/>
<text text-anchor="middle" x="236.75" y="-1396.33" font-family="Times,serif" font-size="14.00">extract_components&lt;DebandDither&gt;</text>
</a>
</g>
</g>
<!-- node_System(25) -->
<g id="node41" class="node">
<title>node_System(25)</title>
<g id="a_node41"><a xlink:title="bevy_render::extract_component::extract_components&lt;bevy_core_pipeline::bloom::settings::Bloom&gt;">
<polygon fill="lightgrey" stroke="black" points="351.25,-1466 122.25,-1466 122.25,-1430 351.25,-1430 351.25,-1466"/>
<text text-anchor="middle" x="236.75" y="-1443.33" font-family="Times,serif" font-size="14.00">extract_components&lt;Bloom&gt;</text>
</a>
</g>
</g>
<!-- node_System(26) -->
<g id="node42" class="node">
<title>node_System(26)</title>
<g id="a_node42"><a xlink:title="bevy_render::extract_component::extract_components&lt;bevy_core_pipeline::fxaa::Fxaa&gt;">
<polygon fill="lightgrey" stroke="black" points="346,-1513 127.5,-1513 127.5,-1477 346,-1477 346,-1513"/>
<text text-anchor="middle" x="236.75" y="-1490.33" font-family="Times,serif" font-size="14.00">extract_components&lt;Fxaa&gt;</text>
</a>
</g>
</g>
<!-- node_System(27) -->
<g id="node43" class="node">
<title>node_System(27)</title>
<g id="a_node43"><a xlink:title="bevy_render::extract_component::extract_components&lt;bevy_core_pipeline::contrast_adaptive_sharpening::ContrastAdaptiveSharpening&gt;">
<polygon fill="lightgrey" stroke="black" points="432.62,-1560 40.88,-1560 40.88,-1524 432.62,-1524 432.62,-1560"/>
<text text-anchor="middle" x="236.75" y="-1537.33" font-family="Times,serif" font-size="14.00">extract_components&lt;ContrastAdaptiveSharpening&gt;</text>
</a>
</g>
</g>
<!-- node_System(28) -->
<g id="node44" class="node">
<title>node_System(28)</title>
<g id="a_node44"><a xlink:title="bevy_render::extract_component::extract_components&lt;bevy_core_pipeline::motion_blur::MotionBlur&gt;">
<polygon fill="lightgrey" stroke="black" points="369.25,-1607 104.25,-1607 104.25,-1571 369.25,-1571 369.25,-1607"/>
<text text-anchor="middle" x="236.75" y="-1584.33" font-family="Times,serif" font-size="14.00">extract_components&lt;MotionBlur&gt;</text>
</a>
</g>
</g>
<!-- node_System(29) -->
<g id="node45" class="node">
<title>node_System(29)</title>
<g id="a_node45"><a xlink:title="bevy_core_pipeline::dof::extract_depth_of_field_settings">
<polygon fill="lightgrey" stroke="black" points="355.38,-1654 118.12,-1654 118.12,-1618 355.38,-1618 355.38,-1654"/>
<text text-anchor="middle" x="236.75" y="-1631.33" font-family="Times,serif" font-size="14.00">extract_depth_of_field_settings</text>
</a>
</g>
</g>
<!-- node_System(30) -->
<g id="node46" class="node">
<title>node_System(30)</title>
<g id="a_node46"><a xlink:title="bevy_render::extract_component::extract_components&lt;bevy_core_pipeline::smaa::Smaa&gt;">
<polygon fill="lightgrey" stroke="black" points="348.62,-1701 124.88,-1701 124.88,-1665 348.62,-1665 348.62,-1701"/>
<text text-anchor="middle" x="236.75" y="-1678.33" font-family="Times,serif" font-size="14.00">extract_components&lt;Smaa&gt;</text>
</a>
</g>
</g>
<!-- node_System(31) -->
<g id="node47" class="node">
<title>node_System(31)</title>
<g id="a_node47"><a xlink:title="bevy_render::extract_component::extract_components&lt;bevy_core_pipeline::post_process::ChromaticAberration&gt;">
<polygon fill="lightgrey" stroke="black" points="404.12,-1748 69.38,-1748 69.38,-1712 404.12,-1712 404.12,-1748"/>
<text text-anchor="middle" x="236.75" y="-1725.33" font-family="Times,serif" font-size="14.00">extract_components&lt;ChromaticAberration&gt;</text>
</a>
</g>
</g>
<!-- node_System(32) -->
<g id="node48" class="node">
<title>node_System(32)</title>
<g id="a_node48"><a xlink:title="bevy_render::extract_component::extract_components&lt;bevy_core_pipeline::oit::OrderIndependentTransparencySettings&gt;">
<polygon fill="lightgrey" stroke="black" points="473.5,-1795 0,-1795 0,-1759 473.5,-1759 473.5,-1795"/>
<text text-anchor="middle" x="236.75" y="-1772.33" font-family="Times,serif" font-size="14.00">extract_components&lt;OrderIndependentTransparencySettings&gt;</text>
</a>
</g>
</g>
<!-- node_System(33) -->
<g id="node49" class="node">
<title>node_System(33)</title>
<g id="a_node49"><a xlink:title="bevy_sprite::mesh2d::mesh::extract_mesh2d">
<polygon fill="lightgrey" stroke="black" points="301.75,-1842 171.75,-1842 171.75,-1806 301.75,-1806 301.75,-1842"/>
<text text-anchor="middle" x="236.75" y="-1819.33" font-family="Times,serif" font-size="14.00">extract_mesh2d</text>
</a>
</g>
</g>
<!-- node_System(34) -->
<g id="node50" class="node">
<title>node_System(34)</title>
<g id="a_node50"><a xlink:title="bevy_render::render_asset::extract_render_asset&lt;bevy_sprite::mesh2d::material::PreparedMaterial2d&lt;bevy_sprite::mesh2d::color_material::ColorMaterial&gt;&gt;">
<polygon fill="lightgrey" stroke="black" points="465.62,-1889 7.88,-1889 7.88,-1853 465.62,-1853 465.62,-1889"/>
<text text-anchor="middle" x="236.75" y="-1866.33" font-family="Times,serif" font-size="14.00">extract_render_asset&lt;PreparedMaterial2d&lt;ColorMaterial&gt;&gt;</text>
</a>
</g>
</g>
<!-- node_System(35) -->
<g id="node51" class="node">
<title>node_System(35)</title>
<g id="a_node51"><a xlink:title="bevy_sprite::mesh2d::material::extract_mesh_materials_2d&lt;bevy_sprite::mesh2d::color_material::ColorMaterial&gt;">
<polygon fill="lightgrey" stroke="black" points="403.75,-1936 69.75,-1936 69.75,-1900 403.75,-1900 403.75,-1936"/>
<text text-anchor="middle" x="236.75" y="-1913.33" font-family="Times,serif" font-size="14.00">extract_mesh_materials_2d&lt;ColorMaterial&gt;</text>
</a>
</g>
</g>
<!-- node_System(36) -->
<g id="node52" class="node">
<title>node_System(36)</title>
<g id="a_node52"><a xlink:title="bevy_render::extract_component::extract_components&lt;bevy_sprite::SpriteSource&gt;">
<polygon fill="lightgrey" stroke="black" points="375.62,-1983 97.88,-1983 97.88,-1947 375.62,-1947 375.62,-1983"/>
<text text-anchor="middle" x="236.75" y="-1960.33" font-family="Times,serif" font-size="14.00">extract_components&lt;SpriteSource&gt;</text>
</a>
</g>
</g>
<!-- node_System(38) -->
<g id="node53" class="node">
<title>node_System(38)</title>
<g id="a_node53"><a xlink:title="bevy_sprite::render::extract_sprite_events">
<polygon fill="lightgrey" stroke="black" points="321.62,-2030 151.88,-2030 151.88,-1994 321.62,-1994 321.62,-2030"/>
<text text-anchor="middle" x="236.75" y="-2007.33" font-family="Times,serif" font-size="14.00">extract_sprite_events</text>
</a>
</g>
</g>
<!-- node_System(40) -->
<g id="node55" class="node">
<title>node_System(40)</title>
<g id="a_node55"><a xlink:title="bevy_ui::render::extract_default_ui_camera_view">
<polygon fill="lightgrey" stroke="black" points="358.38,-2077 115.12,-2077 115.12,-2041 358.38,-2041 358.38,-2077"/>
<text text-anchor="middle" x="236.75" y="-2054.32" font-family="Times,serif" font-size="14.00">extract_default_ui_camera_view</text>
</a>
</g>
</g>
<!-- node_System(47) -->
<g id="node56" class="node">
<title>node_System(47)</title>
<g id="a_node56"><a xlink:title="bevy_pbr::render::skin::extract_skins">
<polygon fill="lightgrey" stroke="black" points="292,-2124 181.5,-2124 181.5,-2088 292,-2088 292,-2124"/>
<text text-anchor="middle" x="236.75" y="-2101.32" font-family="Times,serif" font-size="14.00">extract_skins</text>
</a>
</g>
</g>
<!-- node_System(48) -->
<g id="node57" class="node">
<title>node_System(48)</title>
<g id="a_node57"><a xlink:title="bevy_pbr::render::morph::extract_morphs">
<polygon fill="lightgrey" stroke="black" points="300.62,-2171 172.88,-2171 172.88,-2135 300.62,-2135 300.62,-2171"/>
<text text-anchor="middle" x="236.75" y="-2148.32" font-family="Times,serif" font-size="14.00">extract_morphs</text>
</a>
</g>
</g>
<!-- node_System(49) -->
<g id="node58" class="node">
<title>node_System(49)</title>
<g id="a_node58"><a xlink:title="bevy_render::batching::gpu_preprocessing::clear_batched_gpu_instance_buffers&lt;bevy_pbr::render::mesh::MeshPipeline&gt;">
<polygon fill="lightgrey" stroke="black" points="433.38,-244 40.12,-244 40.12,-208 433.38,-208 433.38,-244"/>
<text text-anchor="middle" x="236.75" y="-221.32" font-family="Times,serif" font-size="14.00">clear_batched_gpu_instance_buffers&lt;MeshPipeline&gt;</text>
</a>
</g>
</g>
<!-- node_System(49)&#45;&gt;set_marker_node_Set(57) -->
<g id="edge7" class="edge">
<title>node_System(49)&#45;&gt;set_marker_node_Set(57)</title>
<g id="a_edge7"><a xlink:title="clear_batched_gpu_instance_buffers&lt;MeshPipeline&gt; → ExtractMeshesSet">
<path fill="none" stroke="#ee9e44" stroke-width="2" d="M433.62,-226C476.54,-226 519.68,-226 555.08,-226"/>
<polygon fill="#ee9e44" stroke="#ee9e44" stroke-width="2" points="554.72,-229.5 564.72,-226 554.72,-222.5 554.72,-229.5"/>
</a>
</g>
</g>
<!-- node_System(50) -->
<g id="node59" class="node">
<title>node_System(50)</title>
<g id="a_node59"><a xlink:title="bevy_render::render_asset::extract_render_asset&lt;bevy_pbr::material::PreparedMaterial&lt;bevy_pbr::pbr_material::StandardMaterial&gt;&gt;">
<polygon fill="lightgrey" stroke="black" points="470.5,-2218 3,-2218 3,-2182 470.5,-2182 470.5,-2218"/>
<text text-anchor="middle" x="236.75" y="-2195.32" font-family="Times,serif" font-size="14.00">extract_render_asset&lt;PreparedMaterial&lt;StandardMaterial&gt;&gt;</text>
</a>
</g>
</g>
<!-- node_System(51) -->
<g id="node60" class="node">
<title>node_System(51)</title>
<g id="a_node60"><a xlink:title="bevy_pbr::material::extract_mesh_materials&lt;bevy_pbr::pbr_material::StandardMaterial&gt;">
<polygon fill="lightgrey" stroke="black" points="405.25,-2265 68.25,-2265 68.25,-2229 405.25,-2229 405.25,-2265"/>
<text text-anchor="middle" x="236.75" y="-2242.32" font-family="Times,serif" font-size="14.00">extract_mesh_materials&lt;StandardMaterial&gt;</text>
</a>
</g>
</g>
<!-- node_System(52) -->
<g id="node61" class="node">
<title>node_System(52)</title>
<g id="a_node61"><a xlink:title="bevy_pbr::prepass::extract_camera_previous_view_data">
<polygon fill="lightgrey" stroke="black" points="373,-2312 100.5,-2312 100.5,-2276 373,-2276 373,-2312"/>
<text text-anchor="middle" x="236.75" y="-2289.32" font-family="Times,serif" font-size="14.00">extract_camera_previous_view_data</text>
</a>
</g>
</g>
<!-- node_System(53) -->
<g id="node62" class="node">
<title>node_System(53)</title>
<g id="a_node62"><a xlink:title="bevy_render::extract_resource::extract_resource&lt;bevy_pbr::light::ambient_light::AmbientLight&gt;">
<polygon fill="lightgrey" stroke="black" points="365.5,-2359 108,-2359 108,-2323 365.5,-2323 365.5,-2359"/>
<text text-anchor="middle" x="236.75" y="-2336.32" font-family="Times,serif" font-size="14.00">extract_resource&lt;AmbientLight&gt;</text>
</a>
</g>
</g>
<!-- node_System(54) -->
<g id="node63" class="node">
<title>node_System(54)</title>
<g id="a_node63"><a xlink:title="bevy_render::extract_component::extract_components&lt;bevy_pbr::fog::DistanceFog&gt;">
<polygon fill="lightgrey" stroke="black" points="373,-2406 100.5,-2406 100.5,-2370 373,-2370 373,-2406"/>
<text text-anchor="middle" x="236.75" y="-2383.32" font-family="Times,serif" font-size="14.00">extract_components&lt;DistanceFog&gt;</text>
</a>
</g>
</g>
<!-- node_System(55) -->
<g id="node64" class="node">
<title>node_System(55)</title>
<g id="a_node64"><a xlink:title="bevy_render::extract_resource::extract_resource&lt;bevy_pbr::material::DefaultOpaqueRendererMethod&gt;">
<polygon fill="lightgrey" stroke="black" points="431.12,-2453 42.38,-2453 42.38,-2417 431.12,-2417 431.12,-2453"/>
<text text-anchor="middle" x="236.75" y="-2430.32" font-family="Times,serif" font-size="14.00">extract_resource&lt;DefaultOpaqueRendererMethod&gt;</text>
</a>
</g>
</g>
<!-- node_System(56) -->
<g id="node65" class="node">
<title>node_System(56)</title>
<g id="a_node65"><a xlink:title="bevy_render::extract_component::extract_components&lt;bevy_pbr::light::ShadowFilteringMethod&gt;">
<polygon fill="lightgrey" stroke="black" points="415.38,-2500 58.12,-2500 58.12,-2464 415.38,-2464 415.38,-2500"/>
<text text-anchor="middle" x="236.75" y="-2477.32" font-family="Times,serif" font-size="14.00">extract_components&lt;ShadowFilteringMethod&gt;</text>
</a>
</g>
</g>
<!-- node_System(57) -->
<g id="node66" class="node">
<title>node_System(57)</title>
<g id="a_node66"><a xlink:title="bevy_pbr::volumetric_fog::render::extract_volumetric_fog">
<polygon fill="lightgrey" stroke="black" points="326.5,-2547 147,-2547 147,-2511 326.5,-2511 326.5,-2547"/>
<text text-anchor="middle" x="236.75" y="-2524.32" font-family="Times,serif" font-size="14.00">extract_volumetric_fog</text>
</a>
</g>
</g>
<!-- node_System(58) -->
<g id="node67" class="node">
<title>node_System(58)</title>
<g id="a_node67"><a xlink:title="bevy_render::extract_component::extract_components&lt;bevy_pbr::ssr::ScreenSpaceReflections&gt;">
<polygon fill="lightgrey" stroke="black" points="414.25,-2594 59.25,-2594 59.25,-2558 414.25,-2558 414.25,-2594"/>
<text text-anchor="middle" x="236.75" y="-2571.32" font-family="Times,serif" font-size="14.00">extract_components&lt;ScreenSpaceReflections&gt;</text>
</a>
</g>
</g>
<!-- node_System(59) -->
<g id="node68" class="node">
<title>node_System(59)</title>
<g id="a_node68"><a xlink:title="bevy_render::extract_component::extract_components&lt;bevy_pbr::deferred::PbrDeferredLightingDepthId&gt;">
<polygon fill="lightgrey" stroke="black" points="432.25,-2641 41.25,-2641 41.25,-2605 432.25,-2605 432.25,-2641"/>
<text text-anchor="middle" x="236.75" y="-2618.32" font-family="Times,serif" font-size="14.00">extract_components&lt;PbrDeferredLightingDepthId&gt;</text>
</a>
</g>
</g>
<!-- node_System(60) -->
<g id="node69" class="node">
<title>node_System(60)</title>
<g id="a_node69"><a xlink:title="bevy_pbr::cluster::extract_clusters">
<polygon fill="lightgrey" stroke="black" points="302.12,-2688 171.38,-2688 171.38,-2652 302.12,-2652 302.12,-2688"/>
<text text-anchor="middle" x="236.75" y="-2665.32" font-family="Times,serif" font-size="14.00">extract_clusters</text>
</a>
</g>
</g>
<!-- node_System(61) -->
<g id="node70" class="node">
<title>node_System(61)</title>
<g id="a_node70"><a xlink:title="bevy_pbr::render::light::extract_lights">
<polygon fill="lightgrey" stroke="black" points="293.88,-2735 179.62,-2735 179.62,-2699 293.88,-2699 293.88,-2735"/>
<text text-anchor="middle" x="236.75" y="-2712.32" font-family="Times,serif" font-size="14.00">extract_lights</text>
</a>
</g>
</g>
<!-- node_System(62) -->
<g id="node71" class="node">
<title>node_System(62)</title>
<g id="a_node71"><a xlink:title="bevy_render::render_asset::extract_render_asset&lt;bevy_gizmos::GpuLineGizmo&gt;">
<polygon fill="lightgrey" stroke="black" points="384.25,-2782 89.25,-2782 89.25,-2746 384.25,-2746 384.25,-2782"/>
<text text-anchor="middle" x="236.75" y="-2759.32" font-family="Times,serif" font-size="14.00">extract_render_asset&lt;GpuLineGizmo&gt;</text>
</a>
</g>
</g>
<!-- node_System(63) -->
<g id="node72" class="node">
<title>node_System(63)</title>
<g id="a_node72"><a xlink:title="bevy_gizmos::extract_gizmo_data">
<polygon fill="lightgrey" stroke="black" points="314.12,-2829 159.38,-2829 159.38,-2793 314.12,-2793 314.12,-2829"/>
<text text-anchor="middle" x="236.75" y="-2806.32" font-family="Times,serif" font-size="14.00">extract_gizmo_data</text>
</a>
</g>
</g>
</g>
</svg>
