<?xml version="1.0" encoding="UTF-8" standalone="no"?>
<!DOCTYPE svg PUBLIC "-//W3C//DTD SVG 1.1//EN"
 "http://www.w3.org/Graphics/SVG/1.1/DTD/svg11.dtd">
<!-- Generated by graphviz version 13.1.2 (20250808.2320)
 -->
<!-- Pages: 1 -->
<svg width="2338pt" height="405pt"
 viewBox="0.00 0.00 2338.00 405.00" xmlns="http://www.w3.org/2000/svg" xmlns:xlink="http://www.w3.org/1999/xlink">
<g id="graph0" class="graph" transform="scale(1 1) rotate(0) translate(4 401.06)">
<polygon fill="#0d1117" stroke="none" points="-4,4 -4,-401.06 2333.75,-401.06 2333.75,4 -4,4"/>
<g id="clust1" class="cluster">
<title>clusternode_Set(SystemSetKey(1v1))</title>
<g id="a_clust1"><a xlink:title="Prepass">
<path fill="#ffffff" fill-opacity="0.266667" stroke="#ffffff" stroke-width="2" stroke-opacity="0.313725" d="M439.62,-242C439.62,-242 1550.75,-242 1550.75,-242 1556.75,-242 1562.75,-248 1562.75,-254 1562.75,-254 1562.75,-321 1562.75,-321 1562.75,-327 1556.75,-333 1550.75,-333 1550.75,-333 439.62,-333 439.62,-333 433.62,-333 427.62,-327 427.62,-321 427.62,-321 427.62,-254 427.62,-254 427.62,-248 433.62,-242 439.62,-242"/>
<text xml:space="preserve" text-anchor="middle" x="995.19" y="-315.7" font-family="Helvetica,sans-Serif" font-size="14.00" fill="#ffffff">Prepass</text>
</a>
</g>
</g>
<g id="clust2" class="cluster">
<title>clusternode_Set(SystemSetKey(2v1))</title>
<g id="a_clust2"><a xlink:title="MainPass">
<path fill="#ffffff" fill-opacity="0.266667" stroke="#ffffff" stroke-width="2" stroke-opacity="0.313725" d="M961,-44C961,-44 2118.88,-44 2118.88,-44 2124.88,-44 2130.88,-50 2130.88,-56 2130.88,-56 2130.88,-123 2130.88,-123 2130.88,-129 2124.88,-135 2118.88,-135 2118.88,-135 961,-135 961,-135 955,-135 949,-129 949,-123 949,-123 949,-56 949,-56 949,-50 955,-44 961,-44"/>
<text xml:space="preserve" text-anchor="middle" x="1539.94" y="-117.7" font-family="Helvetica,sans-Serif" font-size="14.00" fill="#ffffff">MainPass</text>
</a>
</g>
</g>
<g id="clust3" class="cluster">
<title>clusternode_Set(SystemSetKey(3v1))</title>
<g id="a_clust3"><a xlink:title="EarlyPostProcess">
<path fill="#ffffff" fill-opacity="0.266667" stroke="#ffffff" stroke-width="2" stroke-opacity="0.313725" d="M1406.62,-143C1406.62,-143 1532.38,-143 1532.38,-143 1538.38,-143 1544.38,-149 1544.38,-155 1544.38,-155 1544.38,-222 1544.38,-222 1544.38,-228 1538.38,-234 1532.38,-234 1532.38,-234 1406.62,-234 1406.62,-234 1400.62,-234 1394.62,-228 1394.62,-222 1394.62,-222 1394.62,-155 1394.62,-155 1394.62,-149 1400.62,-143 1406.62,-143"/>
<text xml:space="preserve" text-anchor="middle" x="1469.5" y="-216.7" font-family="Helvetica,sans-Serif" font-size="14.00" fill="#ffffff">EarlyPostProcess</text>
</a>
</g>
</g>
<g id="clust4" class="cluster">
<title>clusternode_Set(SystemSetKey(4v1))</title>
<g id="a_clust4"><a xlink:title="PostProcess">
<path fill="#ffffff" fill-opacity="0.266667" stroke="#ffffff" stroke-width="2" stroke-opacity="0.313725" d="M1607.12,-143C1607.12,-143 2309.75,-143 2309.75,-143 2315.75,-143 2321.75,-149 2321.75,-155 2321.75,-155 2321.75,-269 2321.75,-269 2321.75,-275 2315.75,-281 2309.75,-281 2309.75,-281 1607.12,-281 1607.12,-281 1601.12,-281 1595.12,-275 1595.12,-269 1595.12,-269 1595.12,-155 1595.12,-155 1595.12,-149 1601.12,-143 1607.12,-143"/>
<text xml:space="preserve" text-anchor="middle" x="1958.44" y="-263.7" font-family="Helvetica,sans-Serif" font-size="14.00" fill="#ffffff">PostProcess</text>
</a>
</g>
</g>
<!-- set_marker_node_Set(SystemSetKey(1v1)) -->
<!-- set_marker_node_Set(SystemSetKey(2v1)) -->
<!-- set_marker_node_Set(SystemSetKey(1v1))&#45;&gt;set_marker_node_Set(SystemSetKey(2v1)) -->
<g id="edge2" class="edge">
<title>set_marker_node_Set(SystemSetKey(1v1))&#45;&gt;set_marker_node_Set(SystemSetKey(2v1))</title>
<g id="a_edge2"><a xlink:title="Prepass → MainPass">
<path fill="none" stroke="#881877" stroke-width="2" d="M645.81,-242C734.7,-235.7 831.57,-227.39 851.25,-220 896.08,-203.17 939.5,-170.4 970.24,-143.5"/>
<polygon fill="#881877" stroke="#881877" stroke-width="2" points="972.37,-146.28 977.5,-137.01 967.71,-141.06 972.37,-146.28"/>
</a>
</g>
</g>
<!-- node_System(SystemKey(1v1)) -->
<g id="node2" class="node">
<title>node_System(SystemKey(1v1))</title>
<g id="a_node2"><a xlink:title="bevy_core_pipeline::prepass::node::early_prepass">
<polygon fill="#eff1f3" stroke="#b4bec7" points="536.38,-301 435.62,-301 435.62,-265 536.38,-265 536.38,-301"/>
<text xml:space="preserve" text-anchor="middle" x="486" y="-277.57" font-family="Helvetica,sans-Serif" font-size="14.00" fill="#15191d">early_prepass</text>
</a>
</g>
</g>
<!-- node_System(SystemKey(2v1)) -->
<g id="node3" class="node">
<title>node_System(SystemKey(2v1))</title>
<g id="a_node3"><a xlink:title="bevy_core_pipeline::deferred::node::early_deferred_prepass">
<polygon fill="#eff1f3" stroke="#b4bec7" points="839.62,-286 681.12,-286 681.12,-250 839.62,-250 839.62,-286"/>
<text xml:space="preserve" text-anchor="middle" x="760.38" y="-262.57" font-family="Helvetica,sans-Serif" font-size="14.00" fill="#15191d">early_deferred_prepass</text>
</a>
</g>
</g>
<!-- node_System(SystemKey(1v1))&#45;&gt;node_System(SystemKey(2v1)) -->
<g id="edge26" class="edge">
<title>node_System(SystemKey(1v1))&#45;&gt;node_System(SystemKey(2v1))</title>
<g id="a_edge26"><a xlink:title="early_prepass → early_deferred_prepass">
<path fill="none" stroke="#aa3a55" stroke-width="2" d="M536.64,-280.27C573.23,-278.25 624.05,-275.45 667.91,-273.04"/>
<polygon fill="#aa3a55" stroke="#aa3a55" stroke-width="2" points="667.86,-276.55 677.65,-272.5 667.48,-269.56 667.86,-276.55"/>
</a>
</g>
</g>
<!-- node_System(SystemKey(3v1)) -->
<g id="node4" class="node">
<title>node_System(SystemKey(3v1))</title>
<g id="a_node4"><a xlink:title="bevy_core_pipeline::prepass::node::late_prepass">
<polygon fill="#eff1f3" stroke="#b4bec7" points="1061.88,-286 968.62,-286 968.62,-250 1061.88,-250 1061.88,-286"/>
<text xml:space="preserve" text-anchor="middle" x="1015.25" y="-262.57" font-family="Helvetica,sans-Serif" font-size="14.00" fill="#15191d">late_prepass</text>
</a>
</g>
</g>
<!-- node_System(SystemKey(2v1))&#45;&gt;node_System(SystemKey(3v1)) -->
<g id="edge5" class="edge">
<title>node_System(SystemKey(2v1))&#45;&gt;node_System(SystemKey(3v1))</title>
<g id="a_edge5"><a xlink:title="early_deferred_prepass → late_prepass">
<path fill="none" stroke="#44d488" stroke-width="2" d="M840,-268C877.41,-268 921.37,-268 955.78,-268"/>
<polygon fill="#44d488" stroke="#44d488" stroke-width="2" points="955.44,-271.5 965.44,-268 955.44,-264.5 955.44,-271.5"/>
</a>
</g>
</g>
<!-- node_System(SystemKey(11v1)) -->
<g id="node25" class="node">
<title>node_System(SystemKey(11v1))</title>
<g id="a_node25"><a xlink:title="bevy_core_pipeline::mip_generation::experimental::depth::early_downsample_depth">
<polygon fill="lightgrey" stroke="black" points="838.12,-214 682.62,-214 682.62,-178 838.12,-178 838.12,-214"/>
<text xml:space="preserve" text-anchor="middle" x="760.38" y="-190.95" font-family="Times,serif" font-size="14.00">early_downsample_depth</text>
</a>
</g>
</g>
<!-- node_System(SystemKey(2v1))&#45;&gt;node_System(SystemKey(11v1)) -->
<g id="edge1" class="edge">
<title>node_System(SystemKey(2v1))&#45;&gt;node_System(SystemKey(11v1))</title>
<g id="a_edge1"><a xlink:title="SystemTypeSet:bevy_core_pipeline::deferred::node::early_deferred_prepass → early_downsample_depth">
<path fill="none" stroke="#eede00" stroke-width="2" d="M760.38,-249.53C760.38,-242.1 760.38,-234.66 760.38,-227.23"/>
<polygon fill="#eede00" stroke="#eede00" stroke-width="2" points="763.88,-227.31 760.38,-217.31 756.88,-227.31 763.88,-227.31"/>
</a>
</g>
</g>
<!-- node_System(SystemKey(4v1)) -->
<g id="node5" class="node">
<title>node_System(SystemKey(4v1))</title>
<g id="a_node5"><a xlink:title="bevy_core_pipeline::deferred::node::late_deferred_prepass">
<polygon fill="#eff1f3" stroke="#b4bec7" points="1339.25,-286 1188.25,-286 1188.25,-250 1339.25,-250 1339.25,-286"/>
<text xml:space="preserve" text-anchor="middle" x="1263.75" y="-262.57" font-family="Helvetica,sans-Serif" font-size="14.00" fill="#15191d">late_deferred_prepass</text>
</a>
</g>
</g>
<!-- node_System(SystemKey(3v1))&#45;&gt;node_System(SystemKey(4v1)) -->
<g id="edge12" class="edge">
<title>node_System(SystemKey(3v1))&#45;&gt;node_System(SystemKey(4v1))</title>
<g id="a_edge12"><a xlink:title="late_prepass → late_deferred_prepass">
<path fill="none" stroke="#eede00" stroke-width="2" d="M1062.33,-268C1094,-268 1137.05,-268 1175.14,-268"/>
<polygon fill="#eede00" stroke="#eede00" stroke-width="2" points="1174.81,-271.5 1184.81,-268 1174.81,-264.5 1174.81,-271.5"/>
</a>
</g>
</g>
<!-- node_System(SystemKey(5v1)) -->
<g id="node6" class="node">
<title>node_System(SystemKey(5v1))</title>
<g id="a_node6"><a xlink:title="bevy_core_pipeline::deferred::copy_lighting_id::copy_deferred_lighting_id">
<polygon fill="#eff1f3" stroke="#b4bec7" points="1554.75,-286 1384.25,-286 1384.25,-250 1554.75,-250 1554.75,-286"/>
<text xml:space="preserve" text-anchor="middle" x="1469.5" y="-262.57" font-family="Helvetica,sans-Serif" font-size="14.00" fill="#15191d">copy_deferred_lighting_id</text>
</a>
</g>
</g>
<!-- node_System(SystemKey(4v1))&#45;&gt;node_System(SystemKey(5v1)) -->
<g id="edge19" class="edge">
<title>node_System(SystemKey(4v1))&#45;&gt;node_System(SystemKey(5v1))</title>
<g id="a_edge19"><a xlink:title="late_deferred_prepass → copy_deferred_lighting_id">
<path fill="none" stroke="#663699" stroke-width="2" d="M1339.46,-268C1349.72,-268 1360.37,-268 1370.96,-268"/>
<polygon fill="#663699" stroke="#663699" stroke-width="2" points="1370.78,-271.5 1380.78,-268 1370.78,-264.5 1370.78,-271.5"/>
</a>
</g>
</g>
<!-- node_System(SystemKey(23v1)) -->
<g id="node30" class="node">
<title>node_System(SystemKey(23v1))</title>
<g id="a_node30"><a xlink:title="bevy_pbr::volumetric_fog::render::volumetric_fog">
<polygon fill="lightgrey" stroke="black" points="1313.75,-179 1213.75,-179 1213.75,-143 1313.75,-143 1313.75,-179"/>
<text xml:space="preserve" text-anchor="middle" x="1263.75" y="-155.95" font-family="Times,serif" font-size="14.00">volumetric_fog</text>
</a>
</g>
</g>
<!-- set_marker_node_Set(SystemSetKey(2v1))&#45;&gt;node_System(SystemKey(23v1)) -->
<g id="edge35" class="edge">
<title>set_marker_node_Set(SystemSetKey(2v1))&#45;&gt;node_System(SystemKey(23v1))</title>
<g id="a_edge35"><a xlink:title="MainPass → volumetric_fog">
<path fill="none" stroke="#881877" stroke-width="2" d="M1155.92,-135C1171.67,-138.83 1187.06,-142.58 1201.03,-145.98"/>
<polygon fill="#881877" stroke="#881877" stroke-width="2" points="1199.96,-149.32 1210.5,-148.28 1201.62,-142.52 1199.96,-149.32"/>
</a>
</g>
</g>
<!-- node_System(SystemKey(6v1)) -->
<g id="node8" class="node">
<title>node_System(SystemKey(6v1))</title>
<g id="a_node8"><a xlink:title="bevy_core_pipeline::core_3d::main_opaque_pass_3d_node::main_opaque_pass_3d">
<polygon fill="#eff1f3" stroke="#b4bec7" points="1548,-95 1391,-95 1391,-59 1548,-59 1548,-95"/>
<text xml:space="preserve" text-anchor="middle" x="1469.5" y="-71.58" font-family="Helvetica,sans-Serif" font-size="14.00" fill="#15191d">main_opaque_pass_3d</text>
</a>
</g>
</g>
<!-- node_System(SystemKey(7v1)) -->
<g id="node9" class="node">
<title>node_System(SystemKey(7v1))</title>
<g id="a_node9"><a xlink:title="bevy_core_pipeline::core_3d::main_transparent_pass_3d_node::main_transparent_pass_3d">
<polygon fill="#eff1f3" stroke="#b4bec7" points="1994.75,-95 1814.5,-95 1814.5,-59 1994.75,-59 1994.75,-95"/>
<text xml:space="preserve" text-anchor="middle" x="1904.62" y="-71.58" font-family="Helvetica,sans-Serif" font-size="14.00" fill="#15191d">main_transparent_pass_3d</text>
</a>
</g>
</g>
<!-- node_System(SystemKey(6v1))&#45;&gt;node_System(SystemKey(7v1)) -->
<g id="edge24" class="edge">
<title>node_System(SystemKey(6v1))&#45;&gt;node_System(SystemKey(7v1))</title>
<g id="a_edge24"><a xlink:title="main_opaque_pass_3d → main_transparent_pass_3d">
<path fill="none" stroke="#881877" stroke-width="2" d="M1548.28,-89.62C1562.38,-91.45 1576.97,-93.03 1590.75,-94 1673.99,-99.85 1695.25,-99.63 1778.5,-94 1786.02,-93.49 1793.77,-92.81 1801.56,-92.02"/>
<polygon fill="#881877" stroke="#881877" stroke-width="2" points="1801.67,-95.53 1811.23,-90.97 1800.91,-88.57 1801.67,-95.53"/>
</a>
</g>
</g>
<!-- node_System(SystemKey(25v1)) -->
<g id="node12" class="node">
<title>node_System(SystemKey(25v1))</title>
<g id="a_node12"><a xlink:title="bevy_pbr::transmission::node::main_transmissive_pass_3d">
<polygon fill="#abd5fc" stroke="#48a3f8" points="1778.5,-88 1590.75,-88 1590.75,-52 1778.5,-52 1778.5,-88"/>
<text xml:space="preserve" text-anchor="middle" x="1684.62" y="-64.58" font-family="Helvetica,sans-Serif" font-size="14.00" fill="#011a31">main_transmissive_pass_3d</text>
</a>
</g>
</g>
<!-- node_System(SystemKey(6v1))&#45;&gt;node_System(SystemKey(25v1)) -->
<g id="edge28" class="edge">
<title>node_System(SystemKey(6v1))&#45;&gt;node_System(SystemKey(25v1))</title>
<g id="a_edge28"><a xlink:title="SystemTypeSet:bevy_core_pipeline::core_3d::main_opaque_pass_3d_node::main_opaque_pass_3d → main_transmissive_pass_3d">
<path fill="none" stroke="#0090cc" stroke-width="2" d="M1548.35,-74.44C1557.86,-74.13 1567.69,-73.81 1577.53,-73.48"/>
<polygon fill="#0090cc" stroke="#0090cc" stroke-width="2" points="1577.52,-76.99 1587.4,-73.16 1577.29,-69.99 1577.52,-76.99"/>
</a>
</g>
</g>
<!-- node_System(SystemKey(10v1)) -->
<g id="node10" class="node">
<title>node_System(SystemKey(10v1))</title>
<g id="a_node10"><a xlink:title="bevy_core_pipeline::oit::resolve::node::oit_resolve">
<polygon fill="#eff1f3" stroke="#b4bec7" points="2122.88,-95 2041.62,-95 2041.62,-59 2122.88,-59 2122.88,-95"/>
<text xml:space="preserve" text-anchor="middle" x="2082.25" y="-71.58" font-family="Helvetica,sans-Serif" font-size="14.00" fill="#15191d">oit_resolve</text>
</a>
</g>
</g>
<!-- node_System(SystemKey(7v1))&#45;&gt;node_System(SystemKey(10v1)) -->
<g id="edge38" class="edge">
<title>node_System(SystemKey(7v1))&#45;&gt;node_System(SystemKey(10v1))</title>
<g id="a_edge38"><a xlink:title="SystemTypeSet:bevy_core_pipeline::core_3d::main_transparent_pass_3d_node::main_transparent_pass_3d → oit_resolve">
<path fill="none" stroke="#44d488" stroke-width="2" d="M1995.24,-77C2006.65,-77 2018.03,-77 2028.59,-77"/>
<polygon fill="#44d488" stroke="#44d488" stroke-width="2" points="2028.45,-80.5 2038.45,-77 2028.45,-73.5 2028.45,-80.5"/>
</a>
</g>
</g>
<!-- node_System(SystemKey(24v1)) -->
<g id="node11" class="node">
<title>node_System(SystemKey(24v1))</title>
<g id="a_node11"><a xlink:title="bevy_pbr::ssr::screen_space_reflections">
<polygon fill="#abd5fc" stroke="#48a3f8" points="1348.25,-102 1179.25,-102 1179.25,-66 1348.25,-66 1348.25,-102"/>
<text xml:space="preserve" text-anchor="middle" x="1263.75" y="-78.58" font-family="Helvetica,sans-Serif" font-size="14.00" fill="#011a31">screen_space_reflections</text>
</a>
</g>
</g>
<!-- node_System(SystemKey(24v1))&#45;&gt;node_System(SystemKey(6v1)) -->
<g id="edge27" class="edge">
<title>node_System(SystemKey(24v1))&#45;&gt;node_System(SystemKey(6v1))</title>
<g id="a_edge27"><a xlink:title="screen_space_reflections → SystemTypeSet:bevy_core_pipeline::core_3d::main_opaque_pass_3d_node::main_opaque_pass_3d">
<path fill="none" stroke="#44d488" stroke-width="2" d="M1348.5,-81.12C1358.2,-80.79 1368.12,-80.45 1377.89,-80.11"/>
<polygon fill="#44d488" stroke="#44d488" stroke-width="2" points="1377.74,-83.62 1387.61,-79.78 1377.5,-76.62 1377.74,-83.62"/>
</a>
</g>
</g>
<!-- node_System(SystemKey(25v1))&#45;&gt;node_System(SystemKey(7v1)) -->
<g id="edge6" class="edge">
<title>node_System(SystemKey(25v1))&#45;&gt;node_System(SystemKey(7v1))</title>
<g id="a_edge6"><a xlink:title="main_transmissive_pass_3d → SystemTypeSet:bevy_core_pipeline::core_3d::main_transparent_pass_3d_node::main_transparent_pass_3d">
<path fill="none" stroke="#0090cc" stroke-width="2" d="M1778.71,-72.99C1786.27,-73.23 1793.94,-73.48 1801.56,-73.72"/>
<polygon fill="#0090cc" stroke="#0090cc" stroke-width="2" points="1801.18,-77.21 1811.29,-74.04 1801.41,-70.22 1801.18,-77.21"/>
</a>
</g>
</g>
<!-- node_System(SystemKey(26v1)) -->
<g id="node13" class="node">
<title>node_System(SystemKey(26v1))</title>
<g id="a_node13"><a xlink:title="bevy_pbr::deferred::deferred_lighting">
<polygon fill="#abd5fc" stroke="#48a3f8" points="1073.5,-88 957,-88 957,-52 1073.5,-52 1073.5,-88"/>
<text xml:space="preserve" text-anchor="middle" x="1015.25" y="-64.58" font-family="Helvetica,sans-Serif" font-size="14.00" fill="#011a31">deferred_lighting</text>
</a>
</g>
</g>
<!-- node_System(SystemKey(26v1))&#45;&gt;node_System(SystemKey(6v1)) -->
<g id="edge23" class="edge">
<title>node_System(SystemKey(26v1))&#45;&gt;node_System(SystemKey(6v1))</title>
<g id="a_edge23"><a xlink:title="deferred_lighting → SystemTypeSet:bevy_core_pipeline::core_3d::main_opaque_pass_3d_node::main_opaque_pass_3d">
<path fill="none" stroke="#eede00" stroke-width="2" d="M1073.89,-65.19C1140.16,-60.4 1252.17,-54.64 1348.25,-61 1357.93,-61.64 1368.02,-62.57 1378.05,-63.66"/>
<polygon fill="#eede00" stroke="#eede00" stroke-width="2" points="1377.36,-67.1 1387.7,-64.77 1378.16,-60.15 1377.36,-67.1"/>
</a>
</g>
</g>
<!-- node_System(SystemKey(26v1))&#45;&gt;node_System(SystemKey(24v1)) -->
<g id="edge15" class="edge">
<title>node_System(SystemKey(26v1))&#45;&gt;node_System(SystemKey(24v1))</title>
<g id="a_edge15"><a xlink:title="SystemTypeSet:bevy_pbr::deferred::deferred_lighting → screen_space_reflections">
<path fill="none" stroke="#aa3a55" stroke-width="2" d="M1073.73,-73.26C1101.24,-74.83 1134.93,-76.74 1166.21,-78.52"/>
<polygon fill="#aa3a55" stroke="#aa3a55" stroke-width="2" points="1165.77,-82 1175.95,-79.07 1166.17,-75.01 1165.77,-82"/>
</a>
</g>
</g>
<!-- set_marker_node_Set(SystemSetKey(3v1)) -->
<!-- set_marker_node_Set(SystemSetKey(4v1)) -->
<!-- set_marker_node_Set(SystemSetKey(3v1))&#45;&gt;set_marker_node_Set(SystemSetKey(4v1)) -->
<g id="edge22" class="edge">
<title>set_marker_node_Set(SystemSetKey(3v1))&#45;&gt;set_marker_node_Set(SystemSetKey(4v1))</title>
<g id="a_edge22"><a xlink:title="EarlyPostProcess → PostProcess">
<path fill="none" stroke="#99d955" stroke-width="2" d="M1544.37,-151.59C1550.99,-153.71 1557.26,-156.75 1562.75,-161 1588.88,-181.21 1567.42,-209.91 1585.91,-234.02"/>
<polygon fill="#99d955" stroke="#99d955" stroke-width="2" points="1583.36,-236.42 1592.96,-240.89 1588.24,-231.41 1583.36,-236.42"/>
</a>
</g>
</g>
<!-- node_System(SystemKey(20v1)) -->
<g id="node15" class="node">
<title>node_System(SystemKey(20v1))</title>
<g id="a_node15"><a xlink:title="bevy_anti_alias::taa::temporal_anti_alias">
<polygon fill="#eff1f3" stroke="#b4bec7" points="1536.38,-202 1402.62,-202 1402.62,-166 1536.38,-166 1536.38,-202"/>
<text xml:space="preserve" text-anchor="middle" x="1469.5" y="-178.57" font-family="Helvetica,sans-Serif" font-size="14.00" fill="#15191d">temporal_anti_alias</text>
</a>
</g>
</g>
<!-- node_System(SystemKey(9v1)) -->
<g id="node24" class="node">
<title>node_System(SystemKey(9v1))</title>
<g id="a_node24"><a xlink:title="bevy_core_pipeline::upscaling::node::upscaling">
<polygon fill="lightgrey" stroke="black" points="2116.12,-389 2048.38,-389 2048.38,-353 2116.12,-353 2116.12,-389"/>
<text xml:space="preserve" text-anchor="middle" x="2082.25" y="-365.95" font-family="Times,serif" font-size="14.00">upscaling</text>
</a>
</g>
</g>
<!-- set_marker_node_Set(SystemSetKey(4v1))&#45;&gt;node_System(SystemKey(9v1)) -->
<g id="edge29" class="edge">
<title>set_marker_node_Set(SystemSetKey(4v1))&#45;&gt;node_System(SystemKey(9v1))</title>
<g id="a_edge29"><a xlink:title="PostProcess → upscaling">
<path fill="none" stroke="#ee9e44" stroke-width="2" d="M1707.15,-281C1729.55,-312.87 1767.85,-358.45 1814.5,-378 1887.09,-408.41 1980.8,-395.38 2035.64,-383.17"/>
<polygon fill="#ee9e44" stroke="#ee9e44" stroke-width="2" points="2036.16,-386.64 2045.1,-380.96 2034.57,-379.83 2036.16,-386.64"/>
</a>
</g>
</g>
<!-- node_System(SystemKey(22v1)) -->
<g id="node29" class="node">
<title>node_System(SystemKey(22v1))</title>
<g id="a_node29"><a xlink:title="bevy_ui_render::render_pass::ui_pass">
<polygon fill="lightgrey" stroke="black" points="1932.88,-372 1876.38,-372 1876.38,-336 1932.88,-336 1932.88,-372"/>
<text xml:space="preserve" text-anchor="middle" x="1904.62" y="-348.95" font-family="Times,serif" font-size="14.00">ui_pass</text>
</a>
</g>
</g>
<!-- set_marker_node_Set(SystemSetKey(4v1))&#45;&gt;node_System(SystemKey(22v1)) -->
<g id="edge42" class="edge">
<title>set_marker_node_Set(SystemSetKey(4v1))&#45;&gt;node_System(SystemKey(22v1))</title>
<g id="a_edge42"><a xlink:title="PostProcess → ui_pass">
<path fill="none" stroke="#3363bb" stroke-width="2" d="M1729.86,-281C1753.83,-298.05 1784.59,-317.82 1814.5,-331 1829.92,-337.8 1847.76,-342.9 1863.42,-346.55"/>
<polygon fill="#3363bb" stroke="#3363bb" stroke-width="2" points="1862.47,-349.92 1872.99,-348.63 1863.96,-343.08 1862.47,-349.92"/>
</a>
</g>
</g>
<!-- node_System(SystemKey(8v1)) -->
<g id="node17" class="node">
<title>node_System(SystemKey(8v1))</title>
<g id="a_node17"><a xlink:title="bevy_core_pipeline::tonemapping::node::tonemapping">
<polygon fill="#eff1f3" stroke="#b4bec7" points="2129.62,-249 2034.88,-249 2034.88,-213 2129.62,-213 2129.62,-249"/>
<text xml:space="preserve" text-anchor="middle" x="2082.25" y="-225.57" font-family="Helvetica,sans-Serif" font-size="14.00" fill="#15191d">tonemapping</text>
</a>
</g>
</g>
<!-- node_System(SystemKey(18v1)) -->
<g id="node21" class="node">
<title>node_System(SystemKey(18v1))</title>
<g id="a_node21"><a xlink:title="bevy_anti_alias::fxaa::node::fxaa">
<polygon fill="#eff1f3" stroke="#b4bec7" points="2223.75,-202 2169.75,-202 2169.75,-166 2223.75,-166 2223.75,-202"/>
<text xml:space="preserve" text-anchor="middle" x="2196.75" y="-178.57" font-family="Helvetica,sans-Serif" font-size="14.00" fill="#15191d">fxaa</text>
</a>
</g>
</g>
<!-- node_System(SystemKey(8v1))&#45;&gt;node_System(SystemKey(18v1)) -->
<g id="edge3" class="edge">
<title>node_System(SystemKey(8v1))&#45;&gt;node_System(SystemKey(18v1))</title>
<g id="a_edge3"><a xlink:title="SystemTypeSet:bevy_core_pipeline::tonemapping::node::tonemapping → fxaa">
<path fill="none" stroke="#00b0cc" stroke-width="2" d="M2127.39,-212.56C2137.35,-208.4 2147.83,-204.02 2157.52,-199.97"/>
<polygon fill="#00b0cc" stroke="#00b0cc" stroke-width="2" points="2158.59,-203.32 2166.47,-196.23 2155.9,-196.86 2158.59,-203.32"/>
</a>
</g>
</g>
<!-- node_System(SystemKey(19v1)) -->
<g id="node22" class="node">
<title>node_System(SystemKey(19v1))</title>
<g id="a_node22"><a xlink:title="bevy_anti_alias::smaa::smaa">
<polygon fill="#eff1f3" stroke="#b4bec7" points="2223.75,-249 2169.75,-249 2169.75,-213 2223.75,-213 2223.75,-249"/>
<text xml:space="preserve" text-anchor="middle" x="2196.75" y="-225.57" font-family="Helvetica,sans-Serif" font-size="14.00" fill="#15191d">smaa</text>
</a>
</g>
</g>
<!-- node_System(SystemKey(8v1))&#45;&gt;node_System(SystemKey(19v1)) -->
<g id="edge4" class="edge">
<title>node_System(SystemKey(8v1))&#45;&gt;node_System(SystemKey(19v1))</title>
<g id="a_edge4"><a xlink:title="SystemTypeSet:bevy_core_pipeline::tonemapping::node::tonemapping → smaa">
<path fill="none" stroke="#aa3a55" stroke-width="2" d="M2129.98,-231C2138.78,-231 2147.89,-231 2156.43,-231"/>
<polygon fill="#aa3a55" stroke="#aa3a55" stroke-width="2" points="2156.23,-234.5 2166.23,-231 2156.23,-227.5 2156.23,-234.5"/>
</a>
</g>
</g>
<!-- node_System(SystemKey(12v1)) -->
<g id="node18" class="node">
<title>node_System(SystemKey(12v1))</title>
<g id="a_node18"><a xlink:title="bevy_core_pipeline::mip_generation::experimental::depth::late_downsample_depth">
<polygon fill="#eff1f3" stroke="#b4bec7" points="1766.12,-234 1603.12,-234 1603.12,-198 1766.12,-198 1766.12,-234"/>
<text xml:space="preserve" text-anchor="middle" x="1684.62" y="-210.57" font-family="Helvetica,sans-Serif" font-size="14.00" fill="#15191d">late_downsample_depth</text>
</a>
</g>
</g>
<!-- node_System(SystemKey(14v1)) -->
<g id="node19" class="node">
<title>node_System(SystemKey(14v1))</title>
<g id="a_node19"><a xlink:title="bevy_post_process::bloom::bloom">
<polygon fill="#eff1f3" stroke="#b4bec7" points="1931.62,-249 1877.62,-249 1877.62,-213 1931.62,-213 1931.62,-249"/>
<text xml:space="preserve" text-anchor="middle" x="1904.62" y="-225.57" font-family="Helvetica,sans-Serif" font-size="14.00" fill="#15191d">bloom</text>
</a>
</g>
</g>
<!-- node_System(SystemKey(14v1))&#45;&gt;node_System(SystemKey(8v1)) -->
<g id="edge21" class="edge">
<title>node_System(SystemKey(14v1))&#45;&gt;node_System(SystemKey(8v1))</title>
<g id="a_edge21"><a xlink:title="bloom → SystemTypeSet:bevy_core_pipeline::tonemapping::node::tonemapping">
<path fill="none" stroke="#22c2bb" stroke-width="2" d="M1931.92,-231C1955.61,-231 1991.32,-231 2021.87,-231"/>
<polygon fill="#22c2bb" stroke="#22c2bb" stroke-width="2" points="2021.58,-234.5 2031.58,-231 2021.58,-227.5 2021.58,-234.5"/>
</a>
</g>
</g>
<!-- node_System(SystemKey(16v1)) -->
<g id="node27" class="node">
<title>node_System(SystemKey(16v1))</title>
<g id="a_node27"><a xlink:title="bevy_post_process::dof::depth_of_field">
<polygon fill="lightgrey" stroke="black" points="1952.38,-325 1856.88,-325 1856.88,-289 1952.38,-289 1952.38,-325"/>
<text xml:space="preserve" text-anchor="middle" x="1904.62" y="-301.95" font-family="Times,serif" font-size="14.00">depth_of_field</text>
</a>
</g>
</g>
<!-- node_System(SystemKey(14v1))&#45;&gt;node_System(SystemKey(16v1)) -->
<g id="edge41" class="edge">
<title>node_System(SystemKey(14v1))&#45;&gt;node_System(SystemKey(16v1))</title>
<g id="a_edge41"><a xlink:title="SystemTypeSet:bevy_post_process::bloom::bloom → depth_of_field">
<path fill="none" stroke="#663699" stroke-width="2" d="M1904.62,-249.41C1904.62,-258.17 1904.62,-266.94 1904.62,-275.71"/>
<polygon fill="#663699" stroke="#663699" stroke-width="2" points="1901.13,-275.52 1904.63,-285.52 1908.13,-275.52 1901.13,-275.52"/>
</a>
</g>
</g>
<!-- node_System(SystemKey(15v1)) -->
<g id="node20" class="node">
<title>node_System(SystemKey(15v1))</title>
<g id="a_node20"><a xlink:title="bevy_post_process::motion_blur::motion_blur">
<polygon fill="#eff1f3" stroke="#b4bec7" points="1728.25,-187 1641,-187 1641,-151 1728.25,-151 1728.25,-187"/>
<text xml:space="preserve" text-anchor="middle" x="1684.62" y="-163.57" font-family="Helvetica,sans-Serif" font-size="14.00" fill="#15191d">motion_blur</text>
</a>
</g>
</g>
<!-- node_System(SystemKey(15v1))&#45;&gt;node_System(SystemKey(14v1)) -->
<g id="edge31" class="edge">
<title>node_System(SystemKey(15v1))&#45;&gt;node_System(SystemKey(14v1))</title>
<g id="a_edge31"><a xlink:title="motion_blur → SystemTypeSet:bevy_post_process::bloom::bloom">
<path fill="none" stroke="#3363bb" stroke-width="2" d="M1728.73,-179.74C1744.43,-183.76 1762.31,-188.45 1778.5,-193 1807.72,-201.21 1840.55,-211.21 1865.24,-218.89"/>
<polygon fill="#3363bb" stroke="#3363bb" stroke-width="2" points="1863.88,-222.13 1874.47,-221.77 1865.96,-215.45 1863.88,-222.13"/>
</a>
</g>
</g>
<!-- node_System(SystemKey(21v1)) -->
<g id="node23" class="node">
<title>node_System(SystemKey(21v1))</title>
<g id="a_node23"><a xlink:title="bevy_anti_alias::contrast_adaptive_sharpening::node::cas">
<polygon fill="#eff1f3" stroke="#b4bec7" points="2313.75,-225 2259.75,-225 2259.75,-189 2313.75,-189 2313.75,-225"/>
<text xml:space="preserve" text-anchor="middle" x="2286.75" y="-201.57" font-family="Helvetica,sans-Serif" font-size="14.00" fill="#15191d">cas</text>
</a>
</g>
</g>
<!-- node_System(SystemKey(18v1))&#45;&gt;node_System(SystemKey(21v1)) -->
<g id="edge39" class="edge">
<title>node_System(SystemKey(18v1))&#45;&gt;node_System(SystemKey(21v1))</title>
<g id="a_edge39"><a xlink:title="SystemTypeSet:bevy_anti_alias::fxaa::node::fxaa → cas">
<path fill="none" stroke="#0090cc" stroke-width="2" d="M2224.15,-190.9C2231.29,-192.77 2239.16,-194.82 2246.83,-196.83"/>
<polygon fill="#0090cc" stroke="#0090cc" stroke-width="2" points="2245.88,-200.2 2256.44,-199.34 2247.65,-193.42 2245.88,-200.2"/>
</a>
</g>
</g>
<!-- node_System(SystemKey(19v1))&#45;&gt;node_System(SystemKey(21v1)) -->
<g id="edge40" class="edge">
<title>node_System(SystemKey(19v1))&#45;&gt;node_System(SystemKey(21v1))</title>
<g id="a_edge40"><a xlink:title="SystemTypeSet:bevy_anti_alias::smaa::smaa → cas">
<path fill="none" stroke="#ee9e44" stroke-width="2" d="M2224.15,-223.8C2231.29,-221.85 2239.16,-219.71 2246.83,-217.61"/>
<polygon fill="#ee9e44" stroke="#ee9e44" stroke-width="2" points="2247.72,-221 2256.45,-214.99 2245.88,-214.25 2247.72,-221"/>
</a>
</g>
</g>
<!-- node_System(SystemKey(11v1))&#45;&gt;node_System(SystemKey(3v1)) -->
<g id="edge18" class="edge">
<title>node_System(SystemKey(11v1))&#45;&gt;node_System(SystemKey(3v1))</title>
<g id="a_edge18"><a xlink:title="early_downsample_depth → SystemTypeSet:bevy_core_pipeline::prepass::node::late_prepass">
<path fill="none" stroke="#ee9e44" stroke-width="2" d="M826.17,-214.45C866.22,-225.85 917.21,-240.37 955.98,-251.41"/>
<polygon fill="#ee9e44" stroke="#ee9e44" stroke-width="2" points="954.89,-254.74 965.46,-254.11 956.8,-248 954.89,-254.74"/>
</a>
</g>
</g>
<!-- node_System(SystemKey(13v1)) -->
<g id="node26" class="node">
<title>node_System(SystemKey(13v1))</title>
<g id="a_node26"><a xlink:title="bevy_post_process::msaa_writeback::msaa_writeback">
<polygon fill="lightgrey" stroke="black" points="812.62,-166 708.12,-166 708.12,-130 812.62,-130 812.62,-166"/>
<text xml:space="preserve" text-anchor="middle" x="760.38" y="-142.95" font-family="Times,serif" font-size="14.00">msaa_writeback</text>
</a>
</g>
</g>
<!-- node_System(SystemKey(13v1))&#45;&gt;set_marker_node_Set(SystemSetKey(2v1)) -->
<g id="edge37" class="edge">
<title>node_System(SystemKey(13v1))&#45;&gt;set_marker_node_Set(SystemSetKey(2v1))</title>
<g id="a_edge37"><a xlink:title="msaa_writeback → MainPass">
<path fill="none" stroke="#aa3a55" stroke-width="2" d="M812.85,-138.43C848.33,-131.84 896.14,-122.95 936.27,-115.49"/>
<polygon fill="#aa3a55" stroke="#aa3a55" stroke-width="2" points="936.84,-118.95 946.03,-113.68 935.56,-112.07 936.84,-118.95"/>
</a>
</g>
</g>
<!-- node_System(SystemKey(16v1))&#45;&gt;node_System(SystemKey(8v1)) -->
<g id="edge32" class="edge">
<title>node_System(SystemKey(16v1))&#45;&gt;node_System(SystemKey(8v1))</title>
<g id="a_edge32"><a xlink:title="depth_of_field → SystemTypeSet:bevy_core_pipeline::tonemapping::node::tonemapping">
<path fill="none" stroke="#22c2bb" stroke-width="2" d="M1952.71,-296.93C1966.52,-293.29 1981.48,-288.64 1994.75,-283 2011.71,-275.79 2029.34,-265.72 2044.22,-256.37"/>
<polygon fill="#22c2bb" stroke="#22c2bb" stroke-width="2" points="2045.96,-259.41 2052.46,-251.05 2042.16,-253.53 2045.96,-259.41"/>
</a>
</g>
</g>
<!-- node_System(SystemKey(17v1)) -->
<g id="node28" class="node">
<title>node_System(SystemKey(17v1))</title>
<g id="a_node28"><a xlink:title="bevy_post_process::effect_stack::post_processing">
<polygon fill="lightgrey" stroke="black" points="2133.75,-325 2030.75,-325 2030.75,-289 2133.75,-289 2133.75,-325"/>
<text xml:space="preserve" text-anchor="middle" x="2082.25" y="-301.95" font-family="Times,serif" font-size="14.00">post_processing</text>
</a>
</g>
</g>
<!-- node_System(SystemKey(16v1))&#45;&gt;node_System(SystemKey(17v1)) -->
<g id="edge17" class="edge">
<title>node_System(SystemKey(16v1))&#45;&gt;node_System(SystemKey(17v1))</title>
<g id="a_edge17"><a xlink:title="SystemTypeSet:bevy_post_process::dof::depth_of_field → post_processing">
<path fill="none" stroke="#0090cc" stroke-width="2" d="M1952.69,-307C1972.55,-307 1995.98,-307 2017.36,-307"/>
<polygon fill="#0090cc" stroke="#0090cc" stroke-width="2" points="2017.33,-310.5 2027.33,-307 2017.33,-303.5 2017.33,-310.5"/>
</a>
</g>
</g>
<!-- node_System(SystemKey(17v1))&#45;&gt;node_System(SystemKey(8v1)) -->
<g id="edge33" class="edge">
<title>node_System(SystemKey(17v1))&#45;&gt;node_System(SystemKey(8v1))</title>
<g id="a_edge33"><a xlink:title="post_processing → SystemTypeSet:bevy_core_pipeline::tonemapping::node::tonemapping">
<path fill="none" stroke="#99d955" stroke-width="2" d="M2082.25,-288.55C2082.25,-279.78 2082.25,-271.02 2082.25,-262.25"/>
<polygon fill="#99d955" stroke="#99d955" stroke-width="2" points="2085.75,-262.43 2082.25,-252.43 2078.75,-262.43 2085.75,-262.43"/>
</a>
</g>
</g>
<!-- node_System(SystemKey(22v1))&#45;&gt;node_System(SystemKey(9v1)) -->
<g id="edge43" class="edge">
<title>node_System(SystemKey(22v1))&#45;&gt;node_System(SystemKey(9v1))</title>
<g id="a_edge43"><a xlink:title="ui_pass → SystemTypeSet:bevy_core_pipeline::upscaling::node::upscaling">
<path fill="none" stroke="#22c2bb" stroke-width="2" d="M1933.07,-356.66C1960.37,-359.3 2002.76,-363.4 2035.22,-366.54"/>
<polygon fill="#22c2bb" stroke="#22c2bb" stroke-width="2" points="2034.71,-370.01 2045,-367.49 2035.38,-363.04 2034.71,-370.01"/>
</a>
</g>
</g>
<!-- node_System(SystemKey(23v1))&#45;&gt;set_marker_node_Set(SystemSetKey(3v1)) -->
<g id="edge25" class="edge">
<title>node_System(SystemKey(23v1))&#45;&gt;set_marker_node_Set(SystemSetKey(3v1))</title>
<g id="a_edge25"><a xlink:title="volumetric_fog → EarlyPostProcess">
<path fill="none" stroke="#00b0cc" stroke-width="2" d="M1314.07,-159.06C1334.46,-158.26 1358.72,-157.31 1381.89,-156.4"/>
<polygon fill="#00b0cc" stroke="#00b0cc" stroke-width="2" points="1381.75,-159.91 1391.6,-156.02 1381.47,-152.91 1381.75,-159.91"/>
</a>
</g>
</g>
<!-- node_System(SystemKey(27v1)) -->
<g id="node31" class="node">
<title>node_System(SystemKey(27v1))</title>
<g id="a_node31"><a xlink:title="bevy_pbr::render::light::per_view_shadow_pass&lt;false&gt;">
<polygon fill="lightgrey" stroke="black" points="579.12,-154 392.88,-154 392.88,-118 579.12,-118 579.12,-154"/>
<text xml:space="preserve" text-anchor="middle" x="486" y="-130.95" font-family="Times,serif" font-size="14.00">per_view_shadow_pass&lt;false&gt;</text>
</a>
</g>
</g>
<!-- node_System(SystemKey(27v1))&#45;&gt;node_System(SystemKey(11v1)) -->
<g id="edge13" class="edge">
<title>node_System(SystemKey(27v1))&#45;&gt;node_System(SystemKey(11v1))</title>
<g id="a_edge13"><a xlink:title="per_view_shadow_pass&lt;false&gt; → SystemTypeSet:bevy_core_pipeline::mip_generation::experimental::depth::early_downsample_depth">
<path fill="none" stroke="#881877" stroke-width="2" d="M579.28,-148.82C597.36,-151.98 616.11,-155.71 633.5,-160 649.87,-164.04 653.35,-167.16 669.5,-172 671.72,-172.67 673.98,-173.33 676.26,-174"/>
<polygon fill="#881877" stroke="#881877" stroke-width="2" points="675.13,-177.32 685.7,-176.7 677.05,-170.59 675.13,-177.32"/>
</a>
</g>
</g>
<!-- node_System(SystemKey(28v1)) -->
<g id="node32" class="node">
<title>node_System(SystemKey(28v1))</title>
<g id="a_node32"><a xlink:title="bevy_pbr::render::light::per_view_shadow_pass&lt;true&gt;">
<polygon fill="lightgrey" stroke="black" points="851.25,-72 669.5,-72 669.5,-36 851.25,-36 851.25,-72"/>
<text xml:space="preserve" text-anchor="middle" x="760.38" y="-48.95" font-family="Times,serif" font-size="14.00">per_view_shadow_pass&lt;true&gt;</text>
</a>
</g>
</g>
<!-- node_System(SystemKey(27v1))&#45;&gt;node_System(SystemKey(28v1)) -->
<g id="edge20" class="edge">
<title>node_System(SystemKey(27v1))&#45;&gt;node_System(SystemKey(28v1))</title>
<g id="a_edge20"><a xlink:title="per_view_shadow_pass&lt;false&gt; → SystemTypeSet:bevy_pbr::render::light::per_view_shadow_pass&lt;true&gt;">
<path fill="none" stroke="#3363bb" stroke-width="2" d="M579.56,-118.85C597.8,-114.1 616.53,-108.2 633.5,-101 650.98,-93.58 652.12,-85.65 669.5,-78 670.22,-77.68 670.94,-77.37 671.66,-77.06"/>
<polygon fill="#3363bb" stroke="#3363bb" stroke-width="2" points="672.89,-80.34 680.93,-73.45 670.34,-73.82 672.89,-80.34"/>
</a>
</g>
</g>
<!-- node_System(SystemKey(28v1))&#45;&gt;set_marker_node_Set(SystemSetKey(2v1)) -->
<g id="edge7" class="edge">
<title>node_System(SystemKey(28v1))&#45;&gt;set_marker_node_Set(SystemSetKey(2v1))</title>
<g id="a_edge7"><a xlink:title="per_view_shadow_pass&lt;true&gt; → MainPass">
<path fill="none" stroke="#ee9e44" stroke-width="2" d="M834.27,-72.42C840.05,-74.2 845.77,-76.06 851.25,-78 867.76,-83.83 870.23,-89.9 887.25,-94 902.84,-97.76 919.8,-99.95 936.11,-101.16"/>
<polygon fill="#ee9e44" stroke="#ee9e44" stroke-width="2" points="935.79,-104.64 945.98,-101.75 936.21,-97.66 935.79,-104.64"/>
</a>
</g>
</g>
<!-- &lt;missing&gt; main_build_indirect_parameters -->
<g id="node37" class="node">
<title>&lt;missing&gt; main_build_indirect_parameters</title>
<polygon fill="lightgrey" stroke="black" points="1143.25,-36 887.25,-36 887.25,0 1143.25,0 1143.25,-36"/>
<text xml:space="preserve" text-anchor="middle" x="1015.25" y="-12.95" font-family="Times,serif" font-size="14.00">&lt;missing&gt; main_build_indirect_parameters</text>
</g>
<!-- node_System(SystemKey(28v1))&#45;&gt;&lt;missing&gt; main_build_indirect_parameters -->
<g id="edge16" class="edge">
<title>node_System(SystemKey(28v1))&#45;&gt;&lt;missing&gt; main_build_indirect_parameters</title>
<g id="a_edge16"><a xlink:title="per_view_shadow_pass&lt;true&gt; → SystemTypeSet:bevy_pbr::render::gpu_preprocess::main_build_indirect_parameters">
<path fill="none" stroke="#44d488" stroke-width="2" d="M851.6,-41.16C858.96,-40.11 866.5,-39.03 874.1,-37.95"/>
<polygon fill="#44d488" stroke="#44d488" stroke-width="2" points="874.54,-41.42 883.95,-36.55 873.56,-34.49 874.54,-41.42"/>
</a>
</g>
</g>
<!-- node_System(SystemKey(29v1)) -->
<g id="node33" class="node">
<title>node_System(SystemKey(29v1))</title>
<g id="a_node33"><a xlink:title="bevy_pbr::render::light::shared_shadow_pass&lt;false&gt;">
<polygon fill="lightgrey" stroke="black" points="571.62,-201 400.38,-201 400.38,-165 571.62,-165 571.62,-201"/>
<text xml:space="preserve" text-anchor="middle" x="486" y="-177.95" font-family="Times,serif" font-size="14.00">shared_shadow_pass&lt;false&gt;</text>
</a>
</g>
</g>
<!-- node_System(SystemKey(29v1))&#45;&gt;node_System(SystemKey(11v1)) -->
<g id="edge9" class="edge">
<title>node_System(SystemKey(29v1))&#45;&gt;node_System(SystemKey(11v1))</title>
<g id="a_edge9"><a xlink:title="shared_shadow_pass&lt;false&gt; → SystemTypeSet:bevy_core_pipeline::mip_generation::experimental::depth::early_downsample_depth">
<path fill="none" stroke="#3363bb" stroke-width="2" d="M572.06,-187.06C603.07,-188.54 638.21,-190.22 669.61,-191.72"/>
<polygon fill="#3363bb" stroke="#3363bb" stroke-width="2" points="669.17,-195.2 679.33,-192.18 669.51,-188.21 669.17,-195.2"/>
</a>
</g>
</g>
<!-- node_System(SystemKey(30v1)) -->
<g id="node34" class="node">
<title>node_System(SystemKey(30v1))</title>
<g id="a_node34"><a xlink:title="bevy_pbr::render::light::shared_shadow_pass&lt;true&gt;">
<polygon fill="lightgrey" stroke="black" points="843.75,-119 677,-119 677,-83 843.75,-83 843.75,-119"/>
<text xml:space="preserve" text-anchor="middle" x="760.38" y="-95.95" font-family="Times,serif" font-size="14.00">shared_shadow_pass&lt;true&gt;</text>
</a>
</g>
</g>
<!-- node_System(SystemKey(29v1))&#45;&gt;node_System(SystemKey(30v1)) -->
<g id="edge10" class="edge">
<title>node_System(SystemKey(29v1))&#45;&gt;node_System(SystemKey(30v1))</title>
<g id="a_edge10"><a xlink:title="shared_shadow_pass&lt;false&gt; → SystemTypeSet:bevy_pbr::render::light::shared_shadow_pass&lt;true&gt;">
<path fill="none" stroke="#22c2bb" stroke-width="2" d="M571.86,-178.65C592.8,-175.19 614.62,-169.44 633.5,-160 650.65,-151.43 650.58,-139.87 669.5,-126.31"/>
<polygon fill="#22c2bb" stroke="#22c2bb" stroke-width="2" points="671.26,-129.34 677.91,-121.09 667.57,-123.39 671.26,-129.34"/>
</a>
</g>
</g>
<!-- node_System(SystemKey(30v1))&#45;&gt;set_marker_node_Set(SystemSetKey(2v1)) -->
<g id="edge11" class="edge">
<title>node_System(SystemKey(30v1))&#45;&gt;set_marker_node_Set(SystemSetKey(2v1))</title>
<g id="a_edge11"><a xlink:title="shared_shadow_pass&lt;true&gt; → MainPass">
<path fill="none" stroke="#99d955" stroke-width="2" d="M844.18,-101C873.82,-101 907.11,-101 936.33,-101"/>
<polygon fill="#99d955" stroke="#99d955" stroke-width="2" points="935.98,-104.5 945.98,-101 935.98,-97.5 935.98,-104.5"/>
</a>
</g>
</g>
<!-- node_System(SystemKey(30v1))&#45;&gt;&lt;missing&gt; main_build_indirect_parameters -->
<g id="edge30" class="edge">
<title>node_System(SystemKey(30v1))&#45;&gt;&lt;missing&gt; main_build_indirect_parameters</title>
<g id="a_edge30"><a xlink:title="shared_shadow_pass&lt;true&gt; → SystemTypeSet:bevy_pbr::render::gpu_preprocess::main_build_indirect_parameters">
<path fill="none" stroke="#663699" stroke-width="2" d="M842.11,-82.67C845.25,-81.23 848.31,-79.67 851.25,-78 870.91,-66.8 867.24,-52.57 887.25,-42 887.37,-41.94 887.49,-41.87 887.61,-41.81"/>
<polygon fill="#663699" stroke="#663699" stroke-width="2" points="888.93,-45.06 896.51,-37.65 885.97,-38.71 888.93,-45.06"/>
</a>
</g>
</g>
<!-- &lt;missing&gt; early_prepass_build_indirect_parameters -->
<g id="node35" class="node">
<title>&lt;missing&gt; early_prepass_build_indirect_parameters</title>
<polygon fill="lightgrey" stroke="black" points="302.5,-177 0,-177 0,-141 302.5,-141 302.5,-177"/>
<text xml:space="preserve" text-anchor="middle" x="151.25" y="-153.95" font-family="Times,serif" font-size="14.00">&lt;missing&gt; early_prepass_build_indirect_parameters</text>
</g>
<!-- &lt;missing&gt; early_prepass_build_indirect_parameters&#45;&gt;node_System(SystemKey(27v1)) -->
<g id="edge36" class="edge">
<title>&lt;missing&gt; early_prepass_build_indirect_parameters&#45;&gt;node_System(SystemKey(27v1))</title>
<g id="a_edge36"><a xlink:title="SystemTypeSet:bevy_pbr::render::gpu_preprocess::early_prepass_build_indirect_parameters → per_view_shadow_pass&lt;false&gt;">
<path fill="none" stroke="#00b0cc" stroke-width="2" d="M302.56,-148.61C328.55,-146.81 355.06,-144.98 379.54,-143.29"/>
<polygon fill="#00b0cc" stroke="#00b0cc" stroke-width="2" points="379.76,-146.78 389.5,-142.6 379.28,-139.8 379.76,-146.78"/>
</a>
</g>
</g>
<!-- &lt;missing&gt; early_prepass_build_indirect_parameters&#45;&gt;node_System(SystemKey(29v1)) -->
<g id="edge8" class="edge">
<title>&lt;missing&gt; early_prepass_build_indirect_parameters&#45;&gt;node_System(SystemKey(29v1))</title>
<g id="a_edge8"><a xlink:title="SystemTypeSet:bevy_pbr::render::gpu_preprocess::early_prepass_build_indirect_parameters → shared_shadow_pass&lt;false&gt;">
<path fill="none" stroke="#663699" stroke-width="2" d="M302.56,-169.84C331.28,-171.91 360.63,-174.03 387.17,-175.94"/>
<polygon fill="#663699" stroke="#663699" stroke-width="2" points="386.71,-179.42 396.94,-176.65 387.22,-172.44 386.71,-179.42"/>
</a>
</g>
</g>
<!-- &lt;missing&gt; late_prepass_build_indirect_parameters -->
<g id="node36" class="node">
<title>&lt;missing&gt; late_prepass_build_indirect_parameters</title>
<polygon fill="lightgrey" stroke="black" points="633.5,-95 338.5,-95 338.5,-59 633.5,-59 633.5,-95"/>
<text xml:space="preserve" text-anchor="middle" x="486" y="-71.95" font-family="Times,serif" font-size="14.00">&lt;missing&gt; late_prepass_build_indirect_parameters</text>
</g>
<!-- &lt;missing&gt; late_prepass_build_indirect_parameters&#45;&gt;node_System(SystemKey(28v1)) -->
<g id="edge14" class="edge">
<title>&lt;missing&gt; late_prepass_build_indirect_parameters&#45;&gt;node_System(SystemKey(28v1))</title>
<g id="a_edge14"><a xlink:title="SystemTypeSet:bevy_pbr::render::gpu_preprocess::late_prepass_build_indirect_parameters → per_view_shadow_pass&lt;true&gt;">
<path fill="none" stroke="#00b0cc" stroke-width="2" d="M633.95,-64.59C641.41,-63.96 648.83,-63.34 656.11,-62.72"/>
<polygon fill="#00b0cc" stroke="#00b0cc" stroke-width="2" points="656.37,-66.21 666.04,-61.88 655.78,-59.24 656.37,-66.21"/>
</a>
</g>
</g>
<!-- &lt;missing&gt; late_prepass_build_indirect_parameters&#45;&gt;node_System(SystemKey(30v1)) -->
<g id="edge34" class="edge">
<title>&lt;missing&gt; late_prepass_build_indirect_parameters&#45;&gt;node_System(SystemKey(30v1))</title>
<g id="a_edge34"><a xlink:title="SystemTypeSet:bevy_pbr::render::gpu_preprocess::late_prepass_build_indirect_parameters → shared_shadow_pass&lt;true&gt;">
<path fill="none" stroke="#eede00" stroke-width="2" d="M633.95,-89.95C643.97,-90.83 653.91,-91.71 663.55,-92.56"/>
<polygon fill="#eede00" stroke="#eede00" stroke-width="2" points="663.22,-96.04 673.49,-93.43 663.83,-89.07 663.22,-96.04"/>
</a>
</g>
</g>
</g>
</svg>
