<?xml version="1.0" encoding="UTF-8" standalone="no"?>
<!DOCTYPE svg PUBLIC "-//W3C//DTD SVG 1.1//EN"
 "http://www.w3.org/Graphics/SVG/1.1/DTD/svg11.dtd">
<!-- Generated by graphviz version 7.1.0 (0)
 -->
<!-- Pages: 1 -->
<svg width="3076pt" height="1915pt"
 viewBox="0.00 0.00 3076.00 1915.00" xmlns="http://www.w3.org/2000/svg" xmlns:xlink="http://www.w3.org/1999/xlink">
<g id="graph0" class="graph" transform="scale(1 1) rotate(0) translate(4 1911)">
<polygon fill="#0d1117" stroke="none" points="-4,4 -4,-1911 3072,-1911 3072,4 -4,4"/>
<g id="clust1" class="cluster">
<title>clusternode_Set(1)</title>
<g id="a_clust1"><a xlink:title="PrepareFlush">
<polygon fill="#6f90ad" stroke="black" points="670.5,-761 670.5,-854 847.5,-854 847.5,-761 670.5,-761"/>
<text text-anchor="middle" x="759" y="-838.8" font-family="Helvetica,sans-Serif" font-size="14.00">PrepareFlush</text>
</a>
</g>
</g>
<g id="clust2" class="cluster">
<title>clusternode_Set(2)</title>
<g id="a_clust2"><a xlink:title="QueueFlush">
<polygon fill="#6f90ad" stroke="black" points="1334,-710 1334,-803 1511,-803 1511,-710 1334,-710"/>
<text text-anchor="middle" x="1422.5" y="-787.8" font-family="Helvetica,sans-Serif" font-size="14.00">QueueFlush</text>
</a>
</g>
</g>
<g id="clust3" class="cluster">
<title>clusternode_Set(3)</title>
<g id="a_clust3"><a xlink:title="PhaseSortFlush">
<polygon fill="#6f90ad" stroke="black" points="1918.5,-285 1918.5,-378 2095.5,-378 2095.5,-285 1918.5,-285"/>
<text text-anchor="middle" x="2007" y="-362.8" font-family="Helvetica,sans-Serif" font-size="14.00">PhaseSortFlush</text>
</a>
</g>
</g>
<g id="clust4" class="cluster">
<title>clusternode_Set(4)</title>
<g id="a_clust4"><a xlink:title="RenderFlush">
<polygon fill="#6f90ad" stroke="black" points="2432,-238 2432,-331 2609,-331 2609,-238 2432,-238"/>
<text text-anchor="middle" x="2520.5" y="-315.8" font-family="Helvetica,sans-Serif" font-size="14.00">RenderFlush</text>
</a>
</g>
</g>
<g id="clust5" class="cluster">
<title>clusternode_Set(5)</title>
<g id="a_clust5"><a xlink:title="CleanupFlush">
<polygon fill="#6f90ad" stroke="black" points="2883,-238 2883,-331 3060,-331 3060,-238 2883,-238"/>
<text text-anchor="middle" x="2971.5" y="-315.8" font-family="Helvetica,sans-Serif" font-size="14.00">CleanupFlush</text>
</a>
</g>
</g>
<g id="clust6" class="cluster">
<title>clusternode_Set(6)</title>
<g id="a_clust6"><a xlink:title="ExtractCommands">
<polygon fill="#6f90ad" stroke="black" points="8,-1400 8,-1493 212,-1493 212,-1400 8,-1400"/>
<text text-anchor="middle" x="110" y="-1477.8" font-family="Helvetica,sans-Serif" font-size="14.00">ExtractCommands</text>
</a>
</g>
</g>
<g id="clust7" class="cluster">
<title>clusternode_Set(7)</title>
<g id="a_clust7"><a xlink:title="Prepare">
<polygon fill="#6f90ad" stroke="black" points="232,-914 232,-1899 1224.5,-1899 1224.5,-914 232,-914"/>
<text text-anchor="middle" x="728.25" y="-1883.8" font-family="Helvetica,sans-Serif" font-size="14.00">Prepare</text>
</a>
</g>
</g>
<g id="clust8" class="cluster">
<title>clusternode_Set(16)</title>
<g id="a_clust8"><a xlink:title="Prepare">
<polygon fill="#6f90ad" stroke="black" points="336,-1775 336,-1868 489,-1868 489,-1775 336,-1775"/>
<text text-anchor="middle" x="412.5" y="-1852.8" font-family="Helvetica,sans-Serif" font-size="14.00">Prepare</text>
</a>
</g>
</g>
<g id="clust9" class="cluster">
<title>clusternode_Set(18)</title>
<g id="a_clust9"><a xlink:title="PrepareUniforms">
<polygon fill="#6f90ad" stroke="black" points="1022.5,-1425 1022.5,-1518 1216.5,-1518 1216.5,-1425 1022.5,-1425"/>
<text text-anchor="middle" x="1119.5" y="-1502.8" font-family="Helvetica,sans-Serif" font-size="14.00">PrepareUniforms</text>
</a>
</g>
</g>
<g id="clust10" class="cluster">
<title>clusternode_Set(21)</title>
<g id="a_clust10"><a xlink:title="PreAssetPrepare">
<polygon fill="#6f90ad" stroke="black" points="318,-1674 318,-1767 507,-1767 507,-1674 318,-1674"/>
<text text-anchor="middle" x="412.5" y="-1751.8" font-family="Helvetica,sans-Serif" font-size="14.00">PreAssetPrepare</text>
</a>
</g>
</g>
<g id="clust11" class="cluster">
<title>clusternode_Set(22)</title>
<g id="a_clust11"><a xlink:title="AssetPrepare">
<polygon fill="#6f90ad" stroke="black" points="667.5,-1617 667.5,-1710 850.5,-1710 850.5,-1617 667.5,-1617"/>
<text text-anchor="middle" x="759" y="-1694.8" font-family="Helvetica,sans-Serif" font-size="14.00">AssetPrepare</text>
</a>
</g>
</g>
<g id="clust12" class="cluster">
<title>clusternode_Set(23)</title>
<g id="a_clust12"><a xlink:title="PostAssetPrepare">
<polygon fill="#6f90ad" stroke="black" points="1052.5,-1671 1052.5,-1710 1186.5,-1710 1186.5,-1671 1052.5,-1671"/>
<text text-anchor="middle" x="1119.5" y="-1694.8" font-family="Helvetica,sans-Serif" font-size="14.00">PostAssetPrepare</text>
</a>
</g>
</g>
<g id="clust13" class="cluster">
<title>clusternode_Set(61)</title>
<g id="a_clust13"><a xlink:title="PrepareFog">
<polygon fill="#6f90ad" stroke="black" points="355.5,-1573 355.5,-1666 469.5,-1666 469.5,-1573 355.5,-1573"/>
<text text-anchor="middle" x="412.5" y="-1650.8" font-family="Helvetica,sans-Serif" font-size="14.00">PrepareFog</text>
</a>
</g>
</g>
<g id="clust14" class="cluster">
<title>clusternode_Set(62)</title>
<g id="a_clust14"><a xlink:title="PrepareLights">
<polygon fill="#6f90ad" stroke="black" points="348,-1472 348,-1565 477,-1565 477,-1472 348,-1472"/>
<text text-anchor="middle" x="412.5" y="-1549.8" font-family="Helvetica,sans-Serif" font-size="14.00">PrepareLights</text>
</a>
</g>
</g>
<g id="clust15" class="cluster">
<title>clusternode_Set(63)</title>
<g id="a_clust15"><a xlink:title="PrepareClusters">
<polygon fill="#6f90ad" stroke="black" points="687,-1516 687,-1609 831,-1609 831,-1516 687,-1516"/>
<text text-anchor="middle" x="759" y="-1593.8" font-family="Helvetica,sans-Serif" font-size="14.00">PrepareClusters</text>
</a>
</g>
</g>
<g id="clust16" class="cluster">
<title>clusternode_Set(8)</title>
<g id="a_clust16"><a xlink:title="Queue">
<polygon fill="#6f90ad" stroke="black" points="925,-8 925,-906 1314,-906 1314,-8 925,-8"/>
<text text-anchor="middle" x="1119.5" y="-890.8" font-family="Helvetica,sans-Serif" font-size="14.00">Queue</text>
</a>
</g>
</g>
<g id="clust17" class="cluster">
<title>clusternode_Set(64)</title>
<g id="a_clust17"><a xlink:title="QueueShadows">
<polygon fill="#6f90ad" stroke="black" points="1050.5,-782 1050.5,-875 1188.5,-875 1188.5,-782 1050.5,-782"/>
<text text-anchor="middle" x="1119.5" y="-859.8" font-family="Helvetica,sans-Serif" font-size="14.00">QueueShadows</text>
</a>
</g>
</g>
<g id="clust18" class="cluster">
<title>clusternode_Set(9)</title>
<g id="a_clust18"><a xlink:title="PhaseSort">
<polygon fill="#6f90ad" stroke="black" points="1531,-386 1531,-857 2148,-857 2148,-386 1531,-386"/>
<text text-anchor="middle" x="1839.5" y="-841.8" font-family="Helvetica,sans-Serif" font-size="14.00">PhaseSort</text>
</a>
</g>
</g>
<g id="clust19" class="cluster">
<title>clusternode_Set(10)</title>
<g id="a_clust19"><a xlink:title="Render">
<polygon fill="#6f90ad" stroke="black" points="2168,-339 2168,-432 2586.5,-432 2586.5,-339 2168,-339"/>
<text text-anchor="middle" x="2377.25" y="-416.8" font-family="Helvetica,sans-Serif" font-size="14.00">Render</text>
</a>
</g>
</g>
<g id="clust20" class="cluster">
<title>clusternode_Set(11)</title>
<g id="a_clust20"><a xlink:title="Cleanup">
<polygon fill="#6f90ad" stroke="black" points="2629,-184 2629,-331 2863,-331 2863,-184 2629,-184"/>
<text text-anchor="middle" x="2746" y="-315.8" font-family="Helvetica,sans-Serif" font-size="14.00">Cleanup</text>
</a>
</g>
</g>
<!-- set_marker_node_Set(1) -->
<!-- set_marker_node_Set(8) -->
<!-- set_marker_node_Set(1)&#45;&gt;set_marker_node_Set(8) -->
<g id="edge3" class="edge">
<title>set_marker_node_Set(1)&#45;&gt;set_marker_node_Set(8)</title>
<g id="a_edge3"><a xlink:title="PrepareFlush → Queue">
<path fill="none" stroke="#251dcc" stroke-width="2" d="M847.5,-828.15C864.65,-826.2 881.96,-821.98 897,-814 910.29,-806.95 909.32,-795.6 915.33,-786.45"/>
<polygon fill="#251dcc" stroke="#251dcc" stroke-width="2" points="917.49,-789.21 922.72,-779.99 912.89,-783.94 917.49,-789.21"/>
</a>
</g>
</g>
<!-- node_System(0) -->
<g id="node2" class="node">
<title>node_System(0)</title>
<g id="a_node2"><a xlink:title="bevy_ecs::schedule::executor::apply_system_buffers">
<polygon fill="#eff1f3" stroke="#eff1f3" points="839.5,-805 678.5,-805 678.5,-769 839.5,-769 839.5,-805"/>
<text text-anchor="middle" x="759" y="-783.3" font-family="Times,serif" font-size="14.00">apply_system_buffers</text>
</a>
</g>
</g>
<!-- set_marker_node_Set(2) -->
<!-- set_marker_node_Set(9) -->
<!-- set_marker_node_Set(2)&#45;&gt;set_marker_node_Set(9) -->
<g id="edge5" class="edge">
<title>set_marker_node_Set(2)&#45;&gt;set_marker_node_Set(9)</title>
<g id="a_edge5"><a xlink:title="QueueFlush → PhaseSort">
<path fill="none" stroke="#1dcd59" stroke-width="2" d="M1511,-772C1513.33,-772 1515.67,-772 1518.04,-772"/>
<polygon fill="#1dcd59" stroke="#1dcd59" stroke-width="2" points="1517.98,-775.5 1527.98,-772 1517.98,-768.5 1517.98,-775.5"/>
</a>
</g>
</g>
<!-- node_System(1) -->
<g id="node4" class="node">
<title>node_System(1)</title>
<g id="a_node4"><a xlink:title="bevy_ecs::schedule::executor::apply_system_buffers">
<polygon fill="#eff1f3" stroke="#eff1f3" points="1503,-754 1342,-754 1342,-718 1503,-718 1503,-754"/>
<text text-anchor="middle" x="1422.5" y="-732.3" font-family="Times,serif" font-size="14.00">apply_system_buffers</text>
</a>
</g>
</g>
<!-- set_marker_node_Set(3) -->
<!-- set_marker_node_Set(10) -->
<!-- set_marker_node_Set(3)&#45;&gt;set_marker_node_Set(10) -->
<g id="edge7" class="edge">
<title>set_marker_node_Set(3)&#45;&gt;set_marker_node_Set(10)</title>
<g id="a_edge7"><a xlink:title="PhaseSortFlush → Render">
<path fill="none" stroke="#cc251d" stroke-width="2" d="M2095.5,-347C2114.45,-347 2134.92,-347 2155.2,-347"/>
<polygon fill="#cc251d" stroke="#cc251d" stroke-width="2" points="2154.98,-350.5 2164.98,-347 2154.98,-343.5 2154.98,-350.5"/>
</a>
</g>
</g>
<!-- node_System(2) -->
<g id="node6" class="node">
<title>node_System(2)</title>
<g id="a_node6"><a xlink:title="bevy_ecs::schedule::executor::apply_system_buffers">
<polygon fill="#eff1f3" stroke="#eff1f3" points="2087.5,-329 1926.5,-329 1926.5,-293 2087.5,-293 2087.5,-329"/>
<text text-anchor="middle" x="2007" y="-307.3" font-family="Times,serif" font-size="14.00">apply_system_buffers</text>
</a>
</g>
</g>
<!-- set_marker_node_Set(4) -->
<!-- set_marker_node_Set(11) -->
<!-- set_marker_node_Set(4)&#45;&gt;set_marker_node_Set(11) -->
<g id="edge9" class="edge">
<title>set_marker_node_Set(4)&#45;&gt;set_marker_node_Set(11)</title>
<g id="a_edge9"><a xlink:title="RenderFlush → Cleanup">
<path fill="none" stroke="#29e000" stroke-width="2" d="M2609,-300C2611.35,-300 2613.72,-300 2616.09,-300"/>
<polygon fill="#29e000" stroke="#29e000" stroke-width="2" points="2615.98,-303.5 2625.98,-300 2615.98,-296.5 2615.98,-303.5"/>
</a>
</g>
</g>
<!-- node_System(3) -->
<g id="node8" class="node">
<title>node_System(3)</title>
<g id="a_node8"><a xlink:title="bevy_ecs::schedule::executor::apply_system_buffers">
<polygon fill="#eff1f3" stroke="#eff1f3" points="2601,-282 2440,-282 2440,-246 2601,-246 2601,-282"/>
<text text-anchor="middle" x="2520.5" y="-260.3" font-family="Times,serif" font-size="14.00">apply_system_buffers</text>
</a>
</g>
</g>
<!-- set_marker_node_Set(5) -->
<!-- node_System(4) -->
<g id="node10" class="node">
<title>node_System(4)</title>
<g id="a_node10"><a xlink:title="bevy_ecs::schedule::executor::apply_system_buffers">
<polygon fill="#eff1f3" stroke="#eff1f3" points="3052,-282 2891,-282 2891,-246 3052,-246 3052,-282"/>
<text text-anchor="middle" x="2971.5" y="-260.3" font-family="Times,serif" font-size="14.00">apply_system_buffers</text>
</a>
</g>
</g>
<!-- set_marker_node_Set(6) -->
<!-- set_marker_node_Set(7) -->
<!-- set_marker_node_Set(6)&#45;&gt;set_marker_node_Set(7) -->
<g id="edge1" class="edge">
<title>set_marker_node_Set(6)&#45;&gt;set_marker_node_Set(7)</title>
<g id="a_edge1"><a xlink:title="ExtractCommands → Prepare">
<path fill="none" stroke="#a6f2d4" stroke-width="2" d="M212,-1462C214.38,-1462 216.77,-1462 219.19,-1462"/>
<polygon fill="#a6f2d4" stroke="#a6f2d4" stroke-width="2" points="218.98,-1465.5 228.98,-1462 218.98,-1458.5 218.98,-1465.5"/>
</a>
</g>
</g>
<!-- node_System(5) -->
<g id="node12" class="node">
<title>node_System(5)</title>
<g id="a_node12"><a xlink:title="bevy_render::apply_extract_commands">
<polygon fill="#eff1f3" stroke="#eff1f3" points="204,-1444 16,-1444 16,-1408 204,-1408 204,-1444"/>
<text text-anchor="middle" x="110" y="-1422.3" font-family="Times,serif" font-size="14.00">apply_extract_commands</text>
</a>
</g>
</g>
<!-- set_marker_node_Set(7)&#45;&gt;set_marker_node_Set(1) -->
<g id="edge2" class="edge">
<title>set_marker_node_Set(7)&#45;&gt;set_marker_node_Set(1)</title>
<g id="a_edge2"><a xlink:title="Prepare → PrepareFlush">
<path fill="none" stroke="#c4cc1d" stroke-width="2" d="M618.77,-914C619.49,-912.63 620.23,-911.3 621,-910 633,-889.78 651.74,-873.49 671.55,-860.73"/>
<polygon fill="#c4cc1d" stroke="#c4cc1d" stroke-width="2" points="673.31,-863.75 680.04,-855.57 669.68,-857.77 673.31,-863.75"/>
</a>
</g>
</g>
<!-- set_marker_node_Set(16) -->
<!-- node_System(11) -->
<g id="node29" class="node">
<title>node_System(11)</title>
<g id="a_node29"><a xlink:title="bevy_render::view::prepare_view_targets">
<polygon fill="#eff1f3" stroke="#eff1f3" points="840,-1862 678,-1862 678,-1826 840,-1826 840,-1862"/>
<text text-anchor="middle" x="759" y="-1840.3" font-family="Times,serif" font-size="14.00">prepare_view_targets</text>
</a>
</g>
</g>
<!-- set_marker_node_Set(16)&#45;&gt;node_System(11) -->
<g id="edge12" class="edge">
<title>set_marker_node_Set(16)&#45;&gt;node_System(11)</title>
<g id="a_edge12"><a xlink:title="Prepare → prepare_view_targets">
<path fill="none" stroke="#cf410c" stroke-width="2" d="M489,-1838.53C540.75,-1839.59 609.76,-1840.99 664.92,-1842.11"/>
<polygon fill="#cf410c" stroke="#cf410c" stroke-width="2" points="664.8,-1845.61 674.87,-1842.31 664.94,-1838.61 664.8,-1845.61"/>
</a>
</g>
</g>
<!-- node_System(9) -->
<g id="node15" class="node">
<title>node_System(9)</title>
<g id="a_node15"><a xlink:title="bevy_render::view::window::prepare_windows">
<polygon fill="#eff1f3" stroke="#eff1f3" points="481,-1819 344,-1819 344,-1783 481,-1783 481,-1819"/>
<text text-anchor="middle" x="412.5" y="-1797.3" font-family="Times,serif" font-size="14.00">prepare_windows</text>
</a>
</g>
</g>
<!-- set_marker_node_Set(18) -->
<!-- node_System(10) -->
<g id="node17" class="node">
<title>node_System(10)</title>
<g id="a_node17"><a xlink:title="bevy_render::view::prepare_view_uniforms">
<polygon fill="#eff1f3" stroke="#eff1f3" points="1208.5,-1469 1030.5,-1469 1030.5,-1433 1208.5,-1433 1208.5,-1469"/>
<text text-anchor="middle" x="1119.5" y="-1447.3" font-family="Times,serif" font-size="14.00">prepare_view_uniforms</text>
</a>
</g>
</g>
<!-- set_marker_node_Set(21) -->
<!-- set_marker_node_Set(22) -->
<!-- set_marker_node_Set(21)&#45;&gt;set_marker_node_Set(22) -->
<g id="edge13" class="edge">
<title>set_marker_node_Set(21)&#45;&gt;set_marker_node_Set(22)</title>
<g id="a_edge13"><a xlink:title="PreAssetPrepare → AssetPrepare">
<path fill="none" stroke="#0c9acf" stroke-width="2" d="M507,-1744.81C533.38,-1743.73 561.32,-1738.99 585,-1727 607.54,-1715.59 598.33,-1694.15 621,-1683 627.98,-1679.57 640.33,-1677.63 654.86,-1676.64"/>
<polygon fill="#0c9acf" stroke="#0c9acf" stroke-width="2" points="654.66,-1680.15 664.48,-1676.17 654.32,-1673.16 654.66,-1680.15"/>
</a>
</g>
</g>
<!-- node_System(31) -->
<g id="node36" class="node">
<title>node_System(31)</title>
<g id="a_node36"><a xlink:title="bevy_sprite::mesh2d::material::prepare_materials_2d&lt;bevy_sprite::mesh2d::color_material::ColorMaterial&gt;">
<polygon fill="#eff1f3" stroke="#eff1f3" points="895.5,-1754 622.5,-1754 622.5,-1718 895.5,-1718 895.5,-1754"/>
<text text-anchor="middle" x="759" y="-1732.3" font-family="Times,serif" font-size="14.00">prepare_materials_2d&lt;ColorMaterial&gt;</text>
</a>
</g>
</g>
<!-- set_marker_node_Set(21)&#45;&gt;node_System(31) -->
<g id="edge16" class="edge">
<title>set_marker_node_Set(21)&#45;&gt;node_System(31)</title>
<g id="a_edge16"><a xlink:title="PreAssetPrepare → prepare_materials_2d&lt;ColorMaterial&gt;">
<path fill="none" stroke="#251dcc" stroke-width="2" d="M507,-1736C538.5,-1736 574.49,-1736 609.18,-1736"/>
<polygon fill="#251dcc" stroke="#251dcc" stroke-width="2" points="609.05,-1739.5 619.05,-1736 609.05,-1732.5 609.05,-1739.5"/>
</a>
</g>
</g>
<!-- node_System(41) -->
<g id="node40" class="node">
<title>node_System(41)</title>
<g id="a_node40"><a xlink:title="bevy_pbr::material::prepare_materials&lt;bevy_pbr::pbr_material::StandardMaterial&gt;">
<polygon fill="#eff1f3" stroke="#eff1f3" points="897,-1808 621,-1808 621,-1772 897,-1772 897,-1808"/>
<text text-anchor="middle" x="759" y="-1786.3" font-family="Times,serif" font-size="14.00">prepare_materials&lt;StandardMaterial&gt;</text>
</a>
</g>
</g>
<!-- set_marker_node_Set(21)&#45;&gt;node_System(41) -->
<g id="edge17" class="edge">
<title>set_marker_node_Set(21)&#45;&gt;node_System(41)</title>
<g id="a_edge17"><a xlink:title="PreAssetPrepare → prepare_materials&lt;StandardMaterial&gt;">
<path fill="none" stroke="#cd1d91" stroke-width="2" d="M507,-1750.66C544,-1756.46 587.17,-1763.22 627.18,-1769.49"/>
<polygon fill="#cd1d91" stroke="#cd1d91" stroke-width="2" points="626.6,-1772.95 637.02,-1771.04 627.68,-1766.03 626.6,-1772.95"/>
</a>
</g>
</g>
<!-- node_System(14) -->
<g id="node19" class="node">
<title>node_System(14)</title>
<g id="a_node19"><a xlink:title="bevy_render::render_asset::prepare_assets&lt;bevy_render::texture::image::Image&gt;">
<polygon fill="#eff1f3" stroke="#eff1f3" points="499,-1718 326,-1718 326,-1682 499,-1682 499,-1718"/>
<text text-anchor="middle" x="412.5" y="-1696.3" font-family="Times,serif" font-size="14.00">prepare_assets&lt;Image&gt;</text>
</a>
</g>
</g>
<!-- set_marker_node_Set(23) -->
<!-- set_marker_node_Set(22)&#45;&gt;set_marker_node_Set(23) -->
<g id="edge14" class="edge">
<title>set_marker_node_Set(22)&#45;&gt;set_marker_node_Set(23)</title>
<g id="a_edge14"><a xlink:title="AssetPrepare → PostAssetPrepare">
<path fill="none" stroke="#a6f2d4" stroke-width="2" d="M850.5,-1679C908.73,-1679 983.67,-1679 1039.5,-1679"/>
<polygon fill="#a6f2d4" stroke="#a6f2d4" stroke-width="2" points="1039.48,-1682.5 1049.48,-1679 1039.48,-1675.5 1039.48,-1682.5"/>
</a>
</g>
</g>
<!-- node_System(12) -->
<g id="node21" class="node">
<title>node_System(12)</title>
<g id="a_node21"><a xlink:title="bevy_render::render_asset::prepare_assets&lt;bevy_render::mesh::mesh::Mesh&gt;">
<polygon fill="#eff1f3" stroke="#eff1f3" points="842.5,-1661 675.5,-1661 675.5,-1625 842.5,-1625 842.5,-1661"/>
<text text-anchor="middle" x="759" y="-1639.3" font-family="Times,serif" font-size="14.00">prepare_assets&lt;Mesh&gt;</text>
</a>
</g>
</g>
<!-- set_marker_node_Set(61) -->
<!-- node_System(48) -->
<g id="node24" class="node">
<title>node_System(48)</title>
<g id="a_node24"><a xlink:title="bevy_pbr::render::fog::prepare_fog">
<polygon fill="#eff1f3" stroke="#eff1f3" points="461.5,-1617 363.5,-1617 363.5,-1581 461.5,-1581 461.5,-1617"/>
<text text-anchor="middle" x="412.5" y="-1595.3" font-family="Times,serif" font-size="14.00">prepare_fog</text>
</a>
</g>
</g>
<!-- set_marker_node_Set(62) -->
<!-- node_System(50) -->
<g id="node42" class="node">
<title>node_System(50)</title>
<g id="a_node42"><a xlink:title="bevy_ecs::schedule::executor::apply_system_buffers">
<polygon fill="#eff1f3" stroke="#eff1f3" points="839.5,-1486 678.5,-1486 678.5,-1450 839.5,-1450 839.5,-1486"/>
<text text-anchor="middle" x="759" y="-1464.3" font-family="Times,serif" font-size="14.00">apply_system_buffers</text>
</a>
</g>
</g>
<!-- set_marker_node_Set(62)&#45;&gt;node_System(50) -->
<g id="edge19" class="edge">
<title>set_marker_node_Set(62)&#45;&gt;node_System(50)</title>
<g id="a_edge19"><a xlink:title="PrepareLights → apply_system_buffers">
<path fill="none" stroke="#1dc4cc" stroke-width="2" d="M477,-1478.87C509.34,-1478.2 549.27,-1477.24 585,-1476 611.09,-1475.09 639.39,-1473.88 665.39,-1472.67"/>
<polygon fill="#1dc4cc" stroke="#1dc4cc" stroke-width="2" points="665.5,-1476.17 675.32,-1472.21 665.17,-1469.18 665.5,-1476.17"/>
</a>
</g>
</g>
<!-- node_System(49) -->
<g id="node26" class="node">
<title>node_System(49)</title>
<g id="a_node26"><a xlink:title="bevy_pbr::render::light::prepare_lights">
<polygon fill="#eff1f3" stroke="#eff1f3" points="469,-1534 356,-1534 356,-1498 469,-1498 469,-1534"/>
<text text-anchor="middle" x="412.5" y="-1512.3" font-family="Times,serif" font-size="14.00">prepare_lights</text>
</a>
</g>
</g>
<!-- node_System(49)&#45;&gt;set_marker_node_Set(18) -->
<g id="edge18" class="edge">
<title>node_System(49)&#45;&gt;set_marker_node_Set(18)</title>
<g id="a_edge18"><a xlink:title="prepare_lights → PrepareUniforms">
<path fill="none" stroke="#1dcd59" stroke-width="2" d="M469.36,-1514.61C559.4,-1512.28 742.21,-1507.1 897,-1500 933.64,-1498.32 973.68,-1496.09 1009.51,-1493.95"/>
<polygon fill="#1dcd59" stroke="#1dcd59" stroke-width="2" points="1009.71,-1497.45 1019.48,-1493.35 1009.29,-1490.46 1009.71,-1497.45"/>
</a>
</g>
</g>
<!-- node_System(51) -->
<g id="node28" class="node">
<title>node_System(51)</title>
<g id="a_node28"><a xlink:title="bevy_pbr::render::light::prepare_clusters">
<polygon fill="#eff1f3" stroke="#eff1f3" points="823,-1560 695,-1560 695,-1524 823,-1524 823,-1560"/>
<text text-anchor="middle" x="759" y="-1538.3" font-family="Times,serif" font-size="14.00">prepare_clusters</text>
</a>
</g>
</g>
<!-- node_System(49)&#45;&gt;node_System(51) -->
<g id="edge21" class="edge">
<title>node_System(49)&#45;&gt;node_System(51)</title>
<g id="a_edge21"><a xlink:title="SystemTypeSet(prepare_lights&quot;) → prepare_clusters">
<path fill="none" stroke="#ccd60d" stroke-width="2" d="M469.23,-1520.21C526.96,-1524.56 617.54,-1531.4 681.85,-1536.25"/>
<polygon fill="#ccd60d" stroke="#ccd60d" stroke-width="2" points="681.49,-1539.74 691.73,-1537 682.02,-1532.76 681.49,-1539.74"/>
</a>
</g>
</g>
<!-- set_marker_node_Set(63) -->
<!-- node_System(13) -->
<g id="node30" class="node">
<title>node_System(13)</title>
<g id="a_node30"><a xlink:title="bevy_render::globals::prepare_globals_buffer">
<polygon fill="#eff1f3" stroke="#eff1f3" points="498.5,-1444 326.5,-1444 326.5,-1408 498.5,-1408 498.5,-1444"/>
<text text-anchor="middle" x="412.5" y="-1422.3" font-family="Times,serif" font-size="14.00">prepare_globals_buffer</text>
</a>
</g>
</g>
<!-- node_System(18) -->
<g id="node31" class="node">
<title>node_System(18)</title>
<g id="a_node31"><a xlink:title="bevy_core_pipeline::core_3d::prepare_core_3d_depth_textures">
<polygon fill="#eff1f3" stroke="#eff1f3" points="530.5,-1390 294.5,-1390 294.5,-1354 530.5,-1354 530.5,-1390"/>
<text text-anchor="middle" x="412.5" y="-1368.3" font-family="Times,serif" font-size="14.00">prepare_core_3d_depth_textures</text>
</a>
</g>
</g>
<!-- node_System(24) -->
<g id="node32" class="node">
<title>node_System(24)</title>
<g id="a_node32"><a xlink:title="bevy_render::extract_component::prepare_uniform_components&lt;bevy_core_pipeline::bloom::BloomUniform&gt;">
<polygon fill="#eff1f3" stroke="#eff1f3" points="581,-1336 244,-1336 244,-1300 581,-1300 581,-1336"/>
<text text-anchor="middle" x="412.5" y="-1314.3" font-family="Times,serif" font-size="14.00">prepare_uniform_components&lt;BloomUniform&gt;</text>
</a>
</g>
</g>
<!-- node_System(25) -->
<g id="node33" class="node">
<title>node_System(25)</title>
<g id="a_node33"><a xlink:title="bevy_core_pipeline::bloom::prepare_bloom_textures">
<polygon fill="#eff1f3" stroke="#eff1f3" points="503.5,-1282 321.5,-1282 321.5,-1246 503.5,-1246 503.5,-1282"/>
<text text-anchor="middle" x="412.5" y="-1260.3" font-family="Times,serif" font-size="14.00">prepare_bloom_textures</text>
</a>
</g>
</g>
<!-- node_System(27) -->
<g id="node34" class="node">
<title>node_System(27)</title>
<g id="a_node34"><a xlink:title="bevy_core_pipeline::fxaa::prepare_fxaa_pipelines">
<polygon fill="#eff1f3" stroke="#eff1f3" points="499,-1228 326,-1228 326,-1192 499,-1192 499,-1228"/>
<text text-anchor="middle" x="412.5" y="-1206.3" font-family="Times,serif" font-size="14.00">prepare_fxaa_pipelines</text>
</a>
</g>
</g>
<!-- node_System(28) -->
<g id="node35" class="node">
<title>node_System(28)</title>
<g id="a_node35"><a xlink:title="bevy_render::extract_component::prepare_uniform_components&lt;bevy_sprite::mesh2d::mesh::Mesh2dUniform&gt;">
<polygon fill="#eff1f3" stroke="#eff1f3" points="585,-1174 240,-1174 240,-1138 585,-1138 585,-1174"/>
<text text-anchor="middle" x="412.5" y="-1152.3" font-family="Times,serif" font-size="14.00">prepare_uniform_components&lt;Mesh2dUniform&gt;</text>
</a>
</g>
</g>
<!-- node_System(34) -->
<g id="node37" class="node">
<title>node_System(34)</title>
<g id="a_node37"><a xlink:title="bevy_ui::render::prepare_uinodes">
<polygon fill="#eff1f3" stroke="#eff1f3" points="477,-1120 348,-1120 348,-1084 477,-1084 477,-1120"/>
<text text-anchor="middle" x="412.5" y="-1098.3" font-family="Times,serif" font-size="14.00">prepare_uinodes</text>
</a>
</g>
</g>
<!-- node_System(37) -->
<g id="node38" class="node">
<title>node_System(37)</title>
<g id="a_node38"><a xlink:title="bevy_render::extract_component::prepare_uniform_components&lt;bevy_pbr::render::mesh::MeshUniform&gt;">
<polygon fill="#eff1f3" stroke="#eff1f3" points="577,-1066 248,-1066 248,-1030 577,-1030 577,-1066"/>
<text text-anchor="middle" x="412.5" y="-1044.3" font-family="Times,serif" font-size="14.00">prepare_uniform_components&lt;MeshUniform&gt;</text>
</a>
</g>
</g>
<!-- node_System(38) -->
<g id="node39" class="node">
<title>node_System(38)</title>
<g id="a_node39"><a xlink:title="bevy_pbr::render::mesh::prepare_skinned_meshes">
<polygon fill="#eff1f3" stroke="#eff1f3" points="505,-1012 320,-1012 320,-976 505,-976 505,-1012"/>
<text text-anchor="middle" x="412.5" y="-990.3" font-family="Times,serif" font-size="14.00">prepare_skinned_meshes</text>
</a>
</g>
</g>
<!-- node_System(43) -->
<g id="node41" class="node">
<title>node_System(43)</title>
<g id="a_node41"><a xlink:title="bevy_pbr::prepass::prepare_prepass_textures">
<polygon fill="#eff1f3" stroke="#eff1f3" points="507.5,-958 317.5,-958 317.5,-922 507.5,-922 507.5,-958"/>
<text text-anchor="middle" x="412.5" y="-936.3" font-family="Times,serif" font-size="14.00">prepare_prepass_textures</text>
</a>
</g>
</g>
<!-- node_System(50)&#45;&gt;set_marker_node_Set(18) -->
<g id="edge20" class="edge">
<title>node_System(50)&#45;&gt;set_marker_node_Set(18)</title>
<g id="a_edge20"><a xlink:title="apply_system_buffers → PrepareUniforms">
<path fill="none" stroke="#cc251d" stroke-width="2" d="M839.72,-1473.06C866.78,-1474.72 897.2,-1476.51 925,-1478 952.39,-1479.47 981.97,-1480.91 1009.56,-1482.2"/>
<polygon fill="#cc251d" stroke="#cc251d" stroke-width="2" points="1009.33,-1485.69 1019.48,-1482.66 1009.65,-1478.7 1009.33,-1485.69"/>
</a>
</g>
</g>
<!-- set_marker_node_Set(8)&#45;&gt;set_marker_node_Set(2) -->
<g id="edge4" class="edge">
<title>set_marker_node_Set(8)&#45;&gt;set_marker_node_Set(2)</title>
<g id="a_edge4"><a xlink:title="Queue → QueueFlush">
<path fill="none" stroke="#cd1d91" stroke-width="2" d="M1314,-772C1316.41,-772 1318.8,-772 1321.18,-772"/>
<polygon fill="#cd1d91" stroke="#cd1d91" stroke-width="2" points="1320.97,-775.5 1330.97,-772 1320.97,-768.5 1320.97,-775.5"/>
</a>
</g>
</g>
<!-- set_marker_node_Set(64) -->
<!-- node_System(52) -->
<g id="node45" class="node">
<title>node_System(52)</title>
<g id="a_node45"><a xlink:title="bevy_pbr::render::light::queue_shadows">
<polygon fill="#eff1f3" stroke="#eff1f3" points="1180.5,-826 1058.5,-826 1058.5,-790 1180.5,-790 1180.5,-826"/>
<text text-anchor="middle" x="1119.5" y="-804.3" font-family="Times,serif" font-size="14.00">queue_shadows</text>
</a>
</g>
</g>
<!-- node_System(22) -->
<g id="node46" class="node">
<title>node_System(22)</title>
<g id="a_node46"><a xlink:title="bevy_core_pipeline::tonemapping::queue_view_tonemapping_pipelines">
<polygon fill="#eff1f3" stroke="#eff1f3" points="1249.5,-754 989.5,-754 989.5,-718 1249.5,-718 1249.5,-754"/>
<text text-anchor="middle" x="1119.5" y="-732.3" font-family="Times,serif" font-size="14.00">queue_view_tonemapping_pipelines</text>
</a>
</g>
</g>
<!-- node_System(23) -->
<g id="node47" class="node">
<title>node_System(23)</title>
<g id="a_node47"><a xlink:title="bevy_core_pipeline::upscaling::queue_view_upscaling_pipelines">
<polygon fill="#eff1f3" stroke="#eff1f3" points="1236.5,-700 1002.5,-700 1002.5,-664 1236.5,-664 1236.5,-700"/>
<text text-anchor="middle" x="1119.5" y="-678.3" font-family="Times,serif" font-size="14.00">queue_view_upscaling_pipelines</text>
</a>
</g>
</g>
<!-- node_System(26) -->
<g id="node48" class="node">
<title>node_System(26)</title>
<g id="a_node48"><a xlink:title="bevy_core_pipeline::bloom::queue_bloom_bind_groups">
<polygon fill="#eff1f3" stroke="#eff1f3" points="1218,-646 1021,-646 1021,-610 1218,-610 1218,-646"/>
<text text-anchor="middle" x="1119.5" y="-624.3" font-family="Times,serif" font-size="14.00">queue_bloom_bind_groups</text>
</a>
</g>
</g>
<!-- node_System(29) -->
<g id="node49" class="node">
<title>node_System(29)</title>
<g id="a_node49"><a xlink:title="bevy_sprite::mesh2d::mesh::queue_mesh2d_bind_group">
<polygon fill="#eff1f3" stroke="#eff1f3" points="1219.5,-592 1019.5,-592 1019.5,-556 1219.5,-556 1219.5,-592"/>
<text text-anchor="middle" x="1119.5" y="-570.3" font-family="Times,serif" font-size="14.00">queue_mesh2d_bind_group</text>
</a>
</g>
</g>
<!-- node_System(30) -->
<g id="node50" class="node">
<title>node_System(30)</title>
<g id="a_node50"><a xlink:title="bevy_sprite::mesh2d::mesh::queue_mesh2d_view_bind_groups">
<polygon fill="#eff1f3" stroke="#eff1f3" points="1242,-538 997,-538 997,-502 1242,-502 1242,-538"/>
<text text-anchor="middle" x="1119.5" y="-516.3" font-family="Times,serif" font-size="14.00">queue_mesh2d_view_bind_groups</text>
</a>
</g>
</g>
<!-- node_System(32) -->
<g id="node51" class="node">
<title>node_System(32)</title>
<g id="a_node51"><a xlink:title="bevy_sprite::mesh2d::material::queue_material2d_meshes&lt;bevy_sprite::mesh2d::color_material::ColorMaterial&gt;">
<polygon fill="#eff1f3" stroke="#eff1f3" points="1272,-484 967,-484 967,-448 1272,-448 1272,-484"/>
<text text-anchor="middle" x="1119.5" y="-462.3" font-family="Times,serif" font-size="14.00">queue_material2d_meshes&lt;ColorMaterial&gt;</text>
</a>
</g>
</g>
<!-- node_System(33) -->
<g id="node52" class="node">
<title>node_System(33)</title>
<g id="a_node52"><a xlink:title="bevy_sprite::render::queue_sprites">
<polygon fill="#eff1f3" stroke="#eff1f3" points="1174,-430 1065,-430 1065,-394 1174,-394 1174,-430"/>
<text text-anchor="middle" x="1119.5" y="-408.3" font-family="Times,serif" font-size="14.00">queue_sprites</text>
</a>
</g>
</g>
<!-- node_System(35) -->
<g id="node53" class="node">
<title>node_System(35)</title>
<g id="a_node53"><a xlink:title="bevy_ui::render::queue_uinodes">
<polygon fill="#eff1f3" stroke="#eff1f3" points="1178,-376 1061,-376 1061,-340 1178,-340 1178,-376"/>
<text text-anchor="middle" x="1119.5" y="-354.3" font-family="Times,serif" font-size="14.00">queue_uinodes</text>
</a>
</g>
</g>
<!-- node_System(39) -->
<g id="node54" class="node">
<title>node_System(39)</title>
<g id="a_node54"><a xlink:title="bevy_pbr::render::mesh::queue_mesh_bind_group">
<polygon fill="#eff1f3" stroke="#eff1f3" points="1211.5,-322 1027.5,-322 1027.5,-286 1211.5,-286 1211.5,-322"/>
<text text-anchor="middle" x="1119.5" y="-300.3" font-family="Times,serif" font-size="14.00">queue_mesh_bind_group</text>
</a>
</g>
</g>
<!-- node_System(40) -->
<g id="node55" class="node">
<title>node_System(40)</title>
<g id="a_node55"><a xlink:title="bevy_pbr::render::mesh::queue_mesh_view_bind_groups">
<polygon fill="#eff1f3" stroke="#eff1f3" points="1234,-268 1005,-268 1005,-232 1234,-232 1234,-268"/>
<text text-anchor="middle" x="1119.5" y="-246.3" font-family="Times,serif" font-size="14.00">queue_mesh_view_bind_groups</text>
</a>
</g>
</g>
<!-- node_System(42) -->
<g id="node56" class="node">
<title>node_System(42)</title>
<g id="a_node56"><a xlink:title="bevy_pbr::material::queue_material_meshes&lt;bevy_pbr::pbr_material::StandardMaterial&gt;">
<polygon fill="#eff1f3" stroke="#eff1f3" points="1276.5,-214 962.5,-214 962.5,-178 1276.5,-178 1276.5,-214"/>
<text text-anchor="middle" x="1119.5" y="-192.3" font-family="Times,serif" font-size="14.00">queue_material_meshes&lt;StandardMaterial&gt;</text>
</a>
</g>
</g>
<!-- node_System(44) -->
<g id="node57" class="node">
<title>node_System(44)</title>
<g id="a_node57"><a xlink:title="bevy_pbr::prepass::queue_prepass_view_bind_group&lt;bevy_pbr::pbr_material::StandardMaterial&gt;">
<polygon fill="#eff1f3" stroke="#eff1f3" points="1306,-160 933,-160 933,-124 1306,-124 1306,-160"/>
<text text-anchor="middle" x="1119.5" y="-138.3" font-family="Times,serif" font-size="14.00">queue_prepass_view_bind_group&lt;StandardMaterial&gt;</text>
</a>
</g>
</g>
<!-- node_System(45) -->
<g id="node58" class="node">
<title>node_System(45)</title>
<g id="a_node58"><a xlink:title="bevy_pbr::prepass::queue_prepass_material_meshes&lt;bevy_pbr::pbr_material::StandardMaterial&gt;">
<polygon fill="#eff1f3" stroke="#eff1f3" points="1305.5,-106 933.5,-106 933.5,-70 1305.5,-70 1305.5,-106"/>
<text text-anchor="middle" x="1119.5" y="-84.3" font-family="Times,serif" font-size="14.00">queue_prepass_material_meshes&lt;StandardMaterial&gt;</text>
</a>
</g>
</g>
<!-- node_System(53) -->
<g id="node59" class="node">
<title>node_System(53)</title>
<g id="a_node59"><a xlink:title="bevy_pbr::render::light::queue_shadow_view_bind_group">
<polygon fill="#eff1f3" stroke="#eff1f3" points="1239,-52 1000,-52 1000,-16 1239,-16 1239,-52"/>
<text text-anchor="middle" x="1119.5" y="-30.3" font-family="Times,serif" font-size="14.00">queue_shadow_view_bind_group</text>
</a>
</g>
</g>
<!-- set_marker_node_Set(9)&#45;&gt;set_marker_node_Set(3) -->
<g id="edge6" class="edge">
<title>set_marker_node_Set(9)&#45;&gt;set_marker_node_Set(3)</title>
<g id="a_edge6"><a xlink:title="PhaseSort → PhaseSortFlush">
<path fill="none" stroke="#1dc4cc" stroke-width="2" d="M1870.94,-386C1871.91,-384.6 1872.93,-383.26 1874,-382 1882.7,-371.74 1894.02,-364.3 1906.38,-358.95"/>
<polygon fill="#1dc4cc" stroke="#1dc4cc" stroke-width="2" points="1907.52,-362.26 1915.67,-355.49 1905.07,-355.7 1907.52,-362.26"/>
</a>
</g>
</g>
<!-- node_System(16) -->
<g id="node61" class="node">
<title>node_System(16)</title>
<g id="a_node61"><a xlink:title="bevy_render::render_phase::sort_phase_system&lt;bevy_core_pipeline::core_2d::Transparent2d&gt;">
<polygon fill="#eff1f3" stroke="#eff1f3" points="1816,-826 1561,-826 1561,-790 1816,-790 1816,-826"/>
<text text-anchor="middle" x="1688.5" y="-804.3" font-family="Times,serif" font-size="14.00">sort_phase_system&lt;Transparent2d&gt;</text>
</a>
</g>
</g>
<!-- node_System(17) -->
<g id="node62" class="node">
<title>node_System(17)</title>
<g id="a_node62"><a xlink:title="bevy_render::render_phase::batch_phase_system&lt;bevy_core_pipeline::core_2d::Transparent2d&gt;">
<polygon fill="#eff1f3" stroke="#eff1f3" points="2140,-826 1874,-826 1874,-790 2140,-790 2140,-826"/>
<text text-anchor="middle" x="2007" y="-804.3" font-family="Times,serif" font-size="14.00">batch_phase_system&lt;Transparent2d&gt;</text>
</a>
</g>
</g>
<!-- node_System(16)&#45;&gt;node_System(17) -->
<g id="edge15" class="edge">
<title>node_System(16)&#45;&gt;node_System(17)</title>
<g id="a_edge15"><a xlink:title="SystemTypeSet(sort_phase_system&lt;Transparent2d&gt;&quot;) → batch_phase_system&lt;Transparent2d&gt;">
<path fill="none" stroke="#c4cc1d" stroke-width="2" d="M1816.41,-808C1830.97,-808 1845.91,-808 1860.69,-808"/>
<polygon fill="#c4cc1d" stroke="#c4cc1d" stroke-width="2" points="1860.6,-811.5 1870.6,-808 1860.6,-804.5 1860.6,-811.5"/>
</a>
</g>
</g>
<!-- node_System(19) -->
<g id="node63" class="node">
<title>node_System(19)</title>
<g id="a_node63"><a xlink:title="bevy_render::render_phase::sort_phase_system&lt;bevy_core_pipeline::core_3d::Opaque3d&gt;">
<polygon fill="#eff1f3" stroke="#eff1f3" points="1800.5,-754 1576.5,-754 1576.5,-718 1800.5,-718 1800.5,-754"/>
<text text-anchor="middle" x="1688.5" y="-732.3" font-family="Times,serif" font-size="14.00">sort_phase_system&lt;Opaque3d&gt;</text>
</a>
</g>
</g>
<!-- node_System(20) -->
<g id="node64" class="node">
<title>node_System(20)</title>
<g id="a_node64"><a xlink:title="bevy_render::render_phase::sort_phase_system&lt;bevy_core_pipeline::core_3d::AlphaMask3d&gt;">
<polygon fill="#eff1f3" stroke="#eff1f3" points="1812.5,-700 1564.5,-700 1564.5,-664 1812.5,-664 1812.5,-700"/>
<text text-anchor="middle" x="1688.5" y="-678.3" font-family="Times,serif" font-size="14.00">sort_phase_system&lt;AlphaMask3d&gt;</text>
</a>
</g>
</g>
<!-- node_System(21) -->
<g id="node65" class="node">
<title>node_System(21)</title>
<g id="a_node65"><a xlink:title="bevy_render::render_phase::sort_phase_system&lt;bevy_core_pipeline::core_3d::Transparent3d&gt;">
<polygon fill="#eff1f3" stroke="#eff1f3" points="1816,-646 1561,-646 1561,-610 1816,-610 1816,-646"/>
<text text-anchor="middle" x="1688.5" y="-624.3" font-family="Times,serif" font-size="14.00">sort_phase_system&lt;Transparent3d&gt;</text>
</a>
</g>
</g>
<!-- node_System(36) -->
<g id="node66" class="node">
<title>node_System(36)</title>
<g id="a_node66"><a xlink:title="bevy_render::render_phase::sort_phase_system&lt;bevy_ui::render::render_pass::TransparentUi&gt;">
<polygon fill="#eff1f3" stroke="#eff1f3" points="1815.5,-592 1561.5,-592 1561.5,-556 1815.5,-556 1815.5,-592"/>
<text text-anchor="middle" x="1688.5" y="-570.3" font-family="Times,serif" font-size="14.00">sort_phase_system&lt;TransparentUi&gt;</text>
</a>
</g>
</g>
<!-- node_System(46) -->
<g id="node67" class="node">
<title>node_System(46)</title>
<g id="a_node67"><a xlink:title="bevy_render::render_phase::sort_phase_system&lt;bevy_core_pipeline::prepass::Opaque3dPrepass&gt;">
<polygon fill="#eff1f3" stroke="#eff1f3" points="1826,-538 1551,-538 1551,-502 1826,-502 1826,-538"/>
<text text-anchor="middle" x="1688.5" y="-516.3" font-family="Times,serif" font-size="14.00">sort_phase_system&lt;Opaque3dPrepass&gt;</text>
</a>
</g>
</g>
<!-- node_System(47) -->
<g id="node68" class="node">
<title>node_System(47)</title>
<g id="a_node68"><a xlink:title="bevy_render::render_phase::sort_phase_system&lt;bevy_core_pipeline::prepass::AlphaMask3dPrepass&gt;">
<polygon fill="#eff1f3" stroke="#eff1f3" points="1838,-484 1539,-484 1539,-448 1838,-448 1838,-484"/>
<text text-anchor="middle" x="1688.5" y="-462.3" font-family="Times,serif" font-size="14.00">sort_phase_system&lt;AlphaMask3dPrepass&gt;</text>
</a>
</g>
</g>
<!-- node_System(54) -->
<g id="node69" class="node">
<title>node_System(54)</title>
<g id="a_node69"><a xlink:title="bevy_render::render_phase::sort_phase_system&lt;bevy_pbr::render::light::Shadow&gt;">
<polygon fill="#eff1f3" stroke="#eff1f3" points="1793.5,-430 1583.5,-430 1583.5,-394 1793.5,-394 1793.5,-430"/>
<text text-anchor="middle" x="1688.5" y="-408.3" font-family="Times,serif" font-size="14.00">sort_phase_system&lt;Shadow&gt;</text>
</a>
</g>
</g>
<!-- set_marker_node_Set(10)&#45;&gt;set_marker_node_Set(4) -->
<g id="edge8" class="edge">
<title>set_marker_node_Set(10)&#45;&gt;set_marker_node_Set(4)</title>
<g id="a_edge8"><a xlink:title="Render → RenderFlush">
<path fill="none" stroke="#ccd60d" stroke-width="2" d="M2329.88,-339C2354.56,-333.93 2387.7,-327.11 2419.38,-320.59"/>
<polygon fill="#ccd60d" stroke="#ccd60d" stroke-width="2" points="2419.95,-324.05 2429.04,-318.61 2418.54,-317.19 2419.95,-324.05"/>
</a>
</g>
</g>
<!-- node_System(6) -->
<g id="node71" class="node">
<title>node_System(6)</title>
<g id="a_node71"><a xlink:title="bevy_render::render_resource::pipeline_cache::PipelineCache::process_pipeline_queue_system">
<polygon fill="#eff1f3" stroke="#eff1f3" points="2404,-401 2176,-401 2176,-365 2404,-365 2404,-401"/>
<text text-anchor="middle" x="2290" y="-379.3" font-family="Times,serif" font-size="14.00">process_pipeline_queue_system</text>
</a>
</g>
</g>
<!-- node_System(7) -->
<g id="node72" class="node">
<title>node_System(7)</title>
<g id="a_node72"><a xlink:title="bevy_render::renderer::render_system">
<polygon fill="#eff1f3" stroke="#eff1f3" points="2578.5,-401 2462.5,-401 2462.5,-365 2578.5,-365 2578.5,-401"/>
<text text-anchor="middle" x="2520.5" y="-379.3" font-family="Times,serif" font-size="14.00">render_system</text>
</a>
</g>
</g>
<!-- node_System(6)&#45;&gt;node_System(7) -->
<g id="edge11" class="edge">
<title>node_System(6)&#45;&gt;node_System(7)</title>
<g id="a_edge11"><a xlink:title="process_pipeline_queue_system → SystemTypeSet(render_system&quot;)">
<path fill="none" stroke="#810ccd" stroke-width="2" d="M2404.25,-383C2419.63,-383 2435.03,-383 2449.34,-383"/>
<polygon fill="#810ccd" stroke="#810ccd" stroke-width="2" points="2449.12,-386.5 2459.12,-383 2449.12,-379.5 2449.12,-386.5"/>
</a>
</g>
</g>
<!-- set_marker_node_Set(11)&#45;&gt;set_marker_node_Set(5) -->
<g id="edge10" class="edge">
<title>set_marker_node_Set(11)&#45;&gt;set_marker_node_Set(5)</title>
<g id="a_edge10"><a xlink:title="Cleanup → CleanupFlush">
<path fill="none" stroke="#58cd0c" stroke-width="2" d="M2863,-300C2865.34,-300 2867.69,-300 2870.02,-300"/>
<polygon fill="#58cd0c" stroke="#58cd0c" stroke-width="2" points="2869.97,-303.5 2879.97,-300 2869.97,-296.5 2869.97,-303.5"/>
</a>
</g>
</g>
<!-- node_System(8) -->
<g id="node74" class="node">
<title>node_System(8)</title>
<g id="a_node74"><a xlink:title="bevy_ecs::world::World::clear_entities">
<polygon fill="#eff1f3" stroke="#eff1f3" points="2799.5,-282 2692.5,-282 2692.5,-246 2799.5,-246 2799.5,-282"/>
<text text-anchor="middle" x="2746" y="-260.3" font-family="Times,serif" font-size="14.00">clear_entities</text>
</a>
</g>
</g>
<!-- node_System(15) -->
<g id="node75" class="node">
<title>node_System(15)</title>
<g id="a_node75"><a xlink:title="bevy_render::texture::texture_cache::update_texture_cache_system">
<polygon fill="#eff1f3" stroke="#eff1f3" points="2855,-228 2637,-228 2637,-192 2855,-192 2855,-228"/>
<text text-anchor="middle" x="2746" y="-206.3" font-family="Times,serif" font-size="14.00">update_texture_cache_system</text>
</a>
</g>
</g>
</g>
</svg>
