<?xml version="1.0" encoding="UTF-8" standalone="no"?>
<!DOCTYPE svg PUBLIC "-//W3C//DTD SVG 1.1//EN"
 "http://www.w3.org/Graphics/SVG/1.1/DTD/svg11.dtd">
<!-- Generated by graphviz version 8.0.5 (0)
 -->
<!-- Pages: 1 -->
<svg width="638pt" height="2289pt"
 viewBox="0.00 0.00 637.50 2289.00" xmlns="http://www.w3.org/2000/svg" xmlns:xlink="http://www.w3.org/1999/xlink">
<g id="graph0" class="graph" transform="scale(1 1) rotate(0) translate(4 2285)">
<polygon fill="#0d1117" stroke="none" points="-4,4 -4,-2285 633.5,-2285 633.5,4 -4,4"/>
<g id="clust1" class="cluster">
<title>clusternode_Set(26)</title>
<g id="a_clust1"><a xlink:title="ExtractSprites">
<path fill="#ffffff" fill-opacity="0.266667" stroke="#ffffff" stroke-width="2" stroke-opacity="0.313725" d="M123.25,-8C123.25,-8 219,-8 219,-8 225,-8 231,-14 231,-20 231,-20 231,-83 231,-83 231,-89 225,-95 219,-95 219,-95 123.25,-95 123.25,-95 117.25,-95 111.25,-89 111.25,-83 111.25,-83 111.25,-20 111.25,-20 111.25,-14 117.25,-8 123.25,-8"/>
<text text-anchor="middle" x="171.12" y="-77.7" font-family="Helvetica,sans-Serif" font-size="14.00" fill="#ffffff">ExtractSprites</text>
</a>
</g>
</g>
<g id="clust2" class="cluster">
<title>clusternode_Set(33)</title>
<g id="a_clust2"><a xlink:title="ExtractNode">
<path fill="#ffffff" fill-opacity="0.266667" stroke="#ffffff" stroke-width="2" stroke-opacity="0.313725" d="M119.5,-127C119.5,-127 222.75,-127 222.75,-127 228.75,-127 234.75,-133 234.75,-139 234.75,-139 234.75,-202 234.75,-202 234.75,-208 228.75,-214 222.75,-214 222.75,-214 119.5,-214 119.5,-214 113.5,-214 107.5,-208 107.5,-202 107.5,-202 107.5,-139 107.5,-139 107.5,-133 113.5,-127 119.5,-127"/>
<text text-anchor="middle" x="171.12" y="-196.7" font-family="Helvetica,sans-Serif" font-size="14.00" fill="#ffffff">ExtractNode</text>
</a>
</g>
</g>
<g id="clust3" class="cluster">
<title>clusternode_Set(47)</title>
<g id="a_clust3"><a xlink:title="ExtractClusters">
<path fill="#ffffff" fill-opacity="0.266667" stroke="#ffffff" stroke-width="2" stroke-opacity="0.313725" d="M119.88,-222C119.88,-222 222.38,-222 222.38,-222 228.38,-222 234.38,-228 234.38,-234 234.38,-234 234.38,-297 234.38,-297 234.38,-303 228.38,-309 222.38,-309 222.38,-309 119.88,-309 119.88,-309 113.88,-309 107.88,-303 107.88,-297 107.88,-297 107.88,-234 107.88,-234 107.88,-228 113.88,-222 119.88,-222"/>
<text text-anchor="middle" x="171.12" y="-291.7" font-family="Helvetica,sans-Serif" font-size="14.00" fill="#ffffff">ExtractClusters</text>
</a>
</g>
</g>
<g id="clust4" class="cluster">
<title>clusternode_Set(49)</title>
<g id="a_clust4"><a xlink:title="ExtractLights">
<path fill="#ffffff" fill-opacity="0.266667" stroke="#ffffff" stroke-width="2" stroke-opacity="0.313725" d="M127.38,-317C127.38,-317 214.88,-317 214.88,-317 220.88,-317 226.88,-323 226.88,-329 226.88,-329 226.88,-392 226.88,-392 226.88,-398 220.88,-404 214.88,-404 214.88,-404 127.38,-404 127.38,-404 121.38,-404 115.38,-398 115.38,-392 115.38,-392 115.38,-329 115.38,-329 115.38,-323 121.38,-317 127.38,-317"/>
<text text-anchor="middle" x="171.12" y="-386.7" font-family="Helvetica,sans-Serif" font-size="14.00" fill="#ffffff">ExtractLights</text>
</a>
</g>
</g>
<!-- set_marker_node_Set(26) -->
<!-- node_System(27) -->
<g id="node35" class="node">
<title>node_System(27)</title>
<g id="a_node35"><a xlink:title="bevy_text::text2d::extract_text2d_sprite">
<polygon fill="lightgrey" stroke="black" points="622.75,-81 492.75,-81 492.75,-45 622.75,-45 622.75,-81"/>
<text text-anchor="middle" x="557.75" y="-57.95" font-family="Times,serif" font-size="14.00">extract_text2d_sprite</text>
</a>
</g>
</g>
<!-- set_marker_node_Set(26)&#45;&gt;node_System(27) -->
<g id="edge1" class="edge">
<title>set_marker_node_Set(26)&#45;&gt;node_System(27)</title>
<g id="a_edge1"><a xlink:title="ExtractSprites → extract_text2d_sprite">
<path fill="none" stroke="#eede00" stroke-width="2" d="M231,-63C297.59,-63 406.29,-63 479.62,-63"/>
<polygon fill="#eede00" stroke="#eede00" stroke-width="2" points="479.41,-66.5 489.41,-63 479.41,-59.5 479.41,-66.5"/>
</a>
</g>
</g>
<!-- node_System(25) -->
<g id="node2" class="node">
<title>node_System(25)</title>
<g id="a_node2"><a xlink:title="bevy_sprite::render::extract_sprites">
<polygon fill="#eff1f3" stroke="#b4bec7" points="223,-52 119.25,-52 119.25,-16 223,-16 223,-52"/>
<text text-anchor="middle" x="171.12" y="-28.57" font-family="Helvetica,sans-Serif" font-size="14.00" fill="#15191d">extract_sprites</text>
</a>
</g>
</g>
<!-- set_marker_node_Set(33) -->
<!-- node_System(32) -->
<g id="node39" class="node">
<title>node_System(32)</title>
<g id="a_node39"><a xlink:title="bevy_ui::render::extract_atlas_uinodes">
<polygon fill="lightgrey" stroke="black" points="624.25,-272 491.25,-272 491.25,-236 624.25,-236 624.25,-272"/>
<text text-anchor="middle" x="557.75" y="-248.95" font-family="Times,serif" font-size="14.00">extract_atlas_uinodes</text>
</a>
</g>
</g>
<!-- set_marker_node_Set(33)&#45;&gt;node_System(32) -->
<g id="edge2" class="edge">
<title>set_marker_node_Set(33)&#45;&gt;node_System(32)</title>
<g id="a_edge2"><a xlink:title="ExtractNode → extract_atlas_uinodes">
<path fill="none" stroke="#881877" stroke-width="2" d="M234.75,-193.72C301.31,-206.18 406.69,-225.91 478.63,-239.38"/>
<polygon fill="#881877" stroke="#881877" stroke-width="2" points="478.65,-243.31 489.12,-241.71 479.93,-236.43 478.65,-243.31"/>
</a>
</g>
</g>
<!-- node_System(33) -->
<g id="node40" class="node">
<title>node_System(33)</title>
<g id="a_node40"><a xlink:title="bevy_ui::render::extract_uinode_borders">
<polygon fill="lightgrey" stroke="black" points="629.5,-200 486,-200 486,-164 629.5,-164 629.5,-200"/>
<text text-anchor="middle" x="557.75" y="-176.95" font-family="Times,serif" font-size="14.00">extract_uinode_borders</text>
</a>
</g>
</g>
<!-- set_marker_node_Set(33)&#45;&gt;node_System(33) -->
<g id="edge3" class="edge">
<title>set_marker_node_Set(33)&#45;&gt;node_System(33)</title>
<g id="a_edge3"><a xlink:title="ExtractNode → extract_uinode_borders">
<path fill="none" stroke="#00b0cc" stroke-width="2" d="M234.75,-182C299.57,-182 401.2,-182 472.92,-182"/>
<polygon fill="#00b0cc" stroke="#00b0cc" stroke-width="2" points="472.85,-185.5 482.85,-182 472.85,-178.5 472.85,-185.5"/>
</a>
</g>
</g>
<!-- node_System(34) -->
<g id="node41" class="node">
<title>node_System(34)</title>
<g id="a_node41"><a xlink:title="bevy_ui::render::extract_text_uinodes">
<polygon fill="lightgrey" stroke="black" points="622,-128 493.5,-128 493.5,-92 622,-92 622,-128"/>
<text text-anchor="middle" x="557.75" y="-104.95" font-family="Times,serif" font-size="14.00">extract_text_uinodes</text>
</a>
</g>
</g>
<!-- set_marker_node_Set(33)&#45;&gt;node_System(34) -->
<g id="edge4" class="edge">
<title>set_marker_node_Set(33)&#45;&gt;node_System(34)</title>
<g id="a_edge4"><a xlink:title="ExtractNode → extract_text_uinodes">
<path fill="none" stroke="#aa3a55" stroke-width="2" d="M234.75,-194.93C269.04,-198.57 310.82,-197.07 342.25,-177 357.33,-167.37 345.81,-151.57 360.25,-141 394.43,-115.99 440.95,-107.82 480.16,-106.11"/>
<polygon fill="#aa3a55" stroke="#aa3a55" stroke-width="2" points="480.24,-109.53 490.14,-105.76 480.05,-102.53 480.24,-109.53"/>
</a>
</g>
</g>
<!-- node_System(31) -->
<g id="node4" class="node">
<title>node_System(31)</title>
<g id="a_node4"><a xlink:title="bevy_ui::render::extract_uinodes">
<polygon fill="#ffb1e5" stroke="#ff4bc2" points="226.75,-171 115.5,-171 115.5,-135 226.75,-135 226.75,-171"/>
<text text-anchor="middle" x="171.12" y="-147.57" font-family="Helvetica,sans-Serif" font-size="14.00" fill="#320021">extract_uinodes</text>
</a>
</g>
</g>
<!-- set_marker_node_Set(47) -->
<!-- node_System(44) -->
<g id="node6" class="node">
<title>node_System(44)</title>
<g id="a_node6"><a xlink:title="bevy_pbr::render::light::extract_clusters">
<polygon fill="#abd5fc" stroke="#48a3f8" points="226.38,-266 115.88,-266 115.88,-230 226.38,-230 226.38,-266"/>
<text text-anchor="middle" x="171.12" y="-242.57" font-family="Helvetica,sans-Serif" font-size="14.00" fill="#011a31">extract_clusters</text>
</a>
</g>
</g>
<!-- set_marker_node_Set(49) -->
<!-- node_System(45) -->
<g id="node8" class="node">
<title>node_System(45)</title>
<g id="a_node8"><a xlink:title="bevy_pbr::render::light::extract_lights">
<polygon fill="#abd5fc" stroke="#48a3f8" points="218.88,-361 123.38,-361 123.38,-325 218.88,-325 218.88,-361"/>
<text text-anchor="middle" x="171.12" y="-337.57" font-family="Helvetica,sans-Serif" font-size="14.00" fill="#011a31">extract_lights</text>
</a>
</g>
</g>
<!-- node_System(0) -->
<g id="node9" class="node">
<title>node_System(0)</title>
<g id="a_node9"><a xlink:title="bevy_render::render_resource::pipeline_cache::PipelineCache::extract_shaders">
<polygon fill="lightgrey" stroke="black" points="221.12,-448 121.12,-448 121.12,-412 221.12,-412 221.12,-448"/>
<text text-anchor="middle" x="171.12" y="-424.95" font-family="Times,serif" font-size="14.00">extract_shaders</text>
</a>
</g>
</g>
<!-- node_System(1) -->
<g id="node10" class="node">
<title>node_System(1)</title>
<g id="a_node10"><a xlink:title="bevy_render::view::window::extract_windows">
<polygon fill="lightgrey" stroke="black" points="225.25,-495 117,-495 117,-459 225.25,-459 225.25,-495"/>
<text text-anchor="middle" x="171.12" y="-471.95" font-family="Times,serif" font-size="14.00">extract_windows</text>
</a>
</g>
</g>
<!-- node_System(2) -->
<g id="node11" class="node">
<title>node_System(2)</title>
<g id="a_node11"><a xlink:title="bevy_render::extract_resource::extract_resource&lt;bevy_render::camera::manual_texture_view::ManualTextureViews&gt;">
<polygon fill="lightgrey" stroke="black" points="290.5,-542 51.75,-542 51.75,-506 290.5,-506 290.5,-542"/>
<text text-anchor="middle" x="171.12" y="-518.95" font-family="Times,serif" font-size="14.00">extract_resource&lt;ManualTextureViews&gt;</text>
</a>
</g>
</g>
<!-- node_System(3) -->
<g id="node12" class="node">
<title>node_System(3)</title>
<g id="a_node12"><a xlink:title="bevy_render::camera::camera::extract_cameras">
<polygon fill="lightgrey" stroke="black" points="223.38,-589 118.88,-589 118.88,-553 223.38,-553 223.38,-589"/>
<text text-anchor="middle" x="171.12" y="-565.95" font-family="Times,serif" font-size="14.00">extract_cameras</text>
</a>
</g>
</g>
<!-- node_System(4) -->
<g id="node13" class="node">
<title>node_System(4)</title>
<g id="a_node13"><a xlink:title="bevy_render::extract_resource::extract_resource&lt;bevy_render::view::Msaa&gt;">
<polygon fill="lightgrey" stroke="black" points="247,-636 95.25,-636 95.25,-600 247,-600 247,-636"/>
<text text-anchor="middle" x="171.12" y="-612.95" font-family="Times,serif" font-size="14.00">extract_resource&lt;Msaa&gt;</text>
</a>
</g>
</g>
<!-- node_System(5) -->
<g id="node14" class="node">
<title>node_System(5)</title>
<g id="a_node14"><a xlink:title="bevy_render::render_asset::extract_render_asset&lt;bevy_render::mesh::mesh::Mesh&gt;">
<polygon fill="lightgrey" stroke="black" points="258.25,-683 84,-683 84,-647 258.25,-647 258.25,-683"/>
<text text-anchor="middle" x="171.12" y="-659.95" font-family="Times,serif" font-size="14.00">extract_render_asset&lt;Mesh&gt;</text>
</a>
</g>
</g>
<!-- node_System(6) -->
<g id="node15" class="node">
<title>node_System(6)</title>
<g id="a_node15"><a xlink:title="bevy_render::globals::extract_frame_count">
<polygon fill="lightgrey" stroke="black" points="235.38,-730 106.88,-730 106.88,-694 235.38,-694 235.38,-730"/>
<text text-anchor="middle" x="171.12" y="-706.95" font-family="Times,serif" font-size="14.00">extract_frame_count</text>
</a>
</g>
</g>
<!-- node_System(7) -->
<g id="node16" class="node">
<title>node_System(7)</title>
<g id="a_node16"><a xlink:title="bevy_render::globals::extract_time">
<polygon fill="lightgrey" stroke="black" points="213.25,-777 129,-777 129,-741 213.25,-741 213.25,-777"/>
<text text-anchor="middle" x="171.12" y="-753.95" font-family="Times,serif" font-size="14.00">extract_time</text>
</a>
</g>
</g>
<!-- node_System(8) -->
<g id="node17" class="node">
<title>node_System(8)</title>
<g id="a_node17"><a xlink:title="bevy_render::render_asset::extract_render_asset&lt;bevy_render::texture::image::Image&gt;">
<polygon fill="lightgrey" stroke="black" points="260.12,-824 82.12,-824 82.12,-788 260.12,-788 260.12,-824"/>
<text text-anchor="middle" x="171.12" y="-800.95" font-family="Times,serif" font-size="14.00">extract_render_asset&lt;Image&gt;</text>
</a>
</g>
</g>
<!-- node_System(9) -->
<g id="node18" class="node">
<title>node_System(9)</title>
<g id="a_node18"><a xlink:title="bevy_render::extract_resource::extract_resource&lt;bevy_core_pipeline::clear_color::ClearColor&gt;">
<polygon fill="lightgrey" stroke="black" points="262,-871 80.25,-871 80.25,-835 262,-835 262,-871"/>
<text text-anchor="middle" x="171.12" y="-847.95" font-family="Times,serif" font-size="14.00">extract_resource&lt;ClearColor&gt;</text>
</a>
</g>
</g>
<!-- node_System(10) -->
<g id="node19" class="node">
<title>node_System(10)</title>
<g id="a_node19"><a xlink:title="bevy_render::extract_component::extract_components&lt;bevy_core_pipeline::core_2d::camera_2d::Camera2d&gt;">
<polygon fill="lightgrey" stroke="black" points="270.25,-918 72,-918 72,-882 270.25,-882 270.25,-918"/>
<text text-anchor="middle" x="171.12" y="-894.95" font-family="Times,serif" font-size="14.00">extract_components&lt;Camera2d&gt;</text>
</a>
</g>
</g>
<!-- node_System(11) -->
<g id="node20" class="node">
<title>node_System(11)</title>
<g id="a_node20"><a xlink:title="bevy_core_pipeline::core_2d::extract_core_2d_camera_phases">
<polygon fill="lightgrey" stroke="black" points="267.25,-965 75,-965 75,-929 267.25,-929 267.25,-965"/>
<text text-anchor="middle" x="171.12" y="-941.95" font-family="Times,serif" font-size="14.00">extract_core_2d_camera_phases</text>
</a>
</g>
</g>
<!-- node_System(12) -->
<g id="node21" class="node">
<title>node_System(12)</title>
<g id="a_node21"><a xlink:title="bevy_render::extract_component::extract_components&lt;bevy_core_pipeline::skybox::Skybox&gt;">
<polygon fill="lightgrey" stroke="black" points="262.75,-1012 79.5,-1012 79.5,-976 262.75,-976 262.75,-1012"/>
<text text-anchor="middle" x="171.12" y="-988.95" font-family="Times,serif" font-size="14.00">extract_components&lt;Skybox&gt;</text>
</a>
</g>
</g>
<!-- node_System(13) -->
<g id="node22" class="node">
<title>node_System(13)</title>
<g id="a_node22"><a xlink:title="bevy_render::extract_component::extract_components&lt;bevy_core_pipeline::core_3d::camera_3d::Camera3d&gt;">
<polygon fill="lightgrey" stroke="black" points="270.25,-1059 72,-1059 72,-1023 270.25,-1023 270.25,-1059"/>
<text text-anchor="middle" x="171.12" y="-1035.95" font-family="Times,serif" font-size="14.00">extract_components&lt;Camera3d&gt;</text>
</a>
</g>
</g>
<!-- node_System(14) -->
<g id="node23" class="node">
<title>node_System(14)</title>
<g id="a_node23"><a xlink:title="bevy_core_pipeline::core_3d::extract_core_3d_camera_phases">
<polygon fill="lightgrey" stroke="black" points="267.25,-1106 75,-1106 75,-1070 267.25,-1070 267.25,-1106"/>
<text text-anchor="middle" x="171.12" y="-1082.95" font-family="Times,serif" font-size="14.00">extract_core_3d_camera_phases</text>
</a>
</g>
</g>
<!-- node_System(15) -->
<g id="node24" class="node">
<title>node_System(15)</title>
<g id="a_node24"><a xlink:title="bevy_core_pipeline::core_3d::extract_camera_prepass_phase">
<polygon fill="lightgrey" stroke="black" points="263.12,-1153 79.12,-1153 79.12,-1117 263.12,-1117 263.12,-1153"/>
<text text-anchor="middle" x="171.12" y="-1129.95" font-family="Times,serif" font-size="14.00">extract_camera_prepass_phase</text>
</a>
</g>
</g>
<!-- node_System(16) -->
<g id="node25" class="node">
<title>node_System(16)</title>
<g id="a_node25"><a xlink:title="bevy_render::extract_resource::extract_resource&lt;bevy_core_pipeline::tonemapping::TonemappingLuts&gt;">
<polygon fill="lightgrey" stroke="black" points="281.5,-1200 60.75,-1200 60.75,-1164 281.5,-1164 281.5,-1200"/>
<text text-anchor="middle" x="171.12" y="-1176.95" font-family="Times,serif" font-size="14.00">extract_resource&lt;TonemappingLuts&gt;</text>
</a>
</g>
</g>
<!-- node_System(17) -->
<g id="node26" class="node">
<title>node_System(17)</title>
<g id="a_node26"><a xlink:title="bevy_render::extract_component::extract_components&lt;bevy_core_pipeline::tonemapping::Tonemapping&gt;">
<polygon fill="lightgrey" stroke="black" points="279.62,-1247 62.62,-1247 62.62,-1211 279.62,-1211 279.62,-1247"/>
<text text-anchor="middle" x="171.12" y="-1223.95" font-family="Times,serif" font-size="14.00">extract_components&lt;Tonemapping&gt;</text>
</a>
</g>
</g>
<!-- node_System(18) -->
<g id="node27" class="node">
<title>node_System(18)</title>
<g id="a_node27"><a xlink:title="bevy_render::extract_component::extract_components&lt;bevy_core_pipeline::tonemapping::DebandDither&gt;">
<polygon fill="lightgrey" stroke="black" points="280.38,-1294 61.88,-1294 61.88,-1258 280.38,-1258 280.38,-1294"/>
<text text-anchor="middle" x="171.12" y="-1270.95" font-family="Times,serif" font-size="14.00">extract_components&lt;DebandDither&gt;</text>
</a>
</g>
</g>
<!-- node_System(19) -->
<g id="node28" class="node">
<title>node_System(19)</title>
<g id="a_node28"><a xlink:title="bevy_render::extract_component::extract_components&lt;bevy_core_pipeline::bloom::settings::BloomSettings&gt;">
<polygon fill="lightgrey" stroke="black" points="282.62,-1341 59.62,-1341 59.62,-1305 282.62,-1305 282.62,-1341"/>
<text text-anchor="middle" x="171.12" y="-1317.95" font-family="Times,serif" font-size="14.00">extract_components&lt;BloomSettings&gt;</text>
</a>
</g>
</g>
<!-- node_System(20) -->
<g id="node29" class="node">
<title>node_System(20)</title>
<g id="a_node29"><a xlink:title="bevy_render::extract_component::extract_components&lt;bevy_core_pipeline::fxaa::Fxaa&gt;">
<polygon fill="lightgrey" stroke="black" points="255.25,-1388 87,-1388 87,-1352 255.25,-1352 255.25,-1388"/>
<text text-anchor="middle" x="171.12" y="-1364.95" font-family="Times,serif" font-size="14.00">extract_components&lt;Fxaa&gt;</text>
</a>
</g>
</g>
<!-- node_System(21) -->
<g id="node30" class="node">
<title>node_System(21)</title>
<g id="a_node30"><a xlink:title="bevy_render::extract_component::extract_components&lt;bevy_core_pipeline::contrast_adaptive_sharpening::ContrastAdaptiveSharpeningSettings&gt;">
<polygon fill="lightgrey" stroke="black" points="342.25,-1435 0,-1435 0,-1399 342.25,-1399 342.25,-1435"/>
<text text-anchor="middle" x="171.12" y="-1411.95" font-family="Times,serif" font-size="14.00">extract_components&lt;ContrastAdaptiveSharpeningSettings&gt;</text>
</a>
</g>
</g>
<!-- node_System(22) -->
<g id="node31" class="node">
<title>node_System(22)</title>
<g id="a_node31"><a xlink:title="bevy_sprite::mesh2d::mesh::extract_mesh2d">
<polygon fill="lightgrey" stroke="black" points="222.25,-1482 120,-1482 120,-1446 222.25,-1446 222.25,-1482"/>
<text text-anchor="middle" x="171.12" y="-1458.95" font-family="Times,serif" font-size="14.00">extract_mesh2d</text>
</a>
</g>
</g>
<!-- node_System(23) -->
<g id="node32" class="node">
<title>node_System(23)</title>
<g id="a_node32"><a xlink:title="bevy_render::extract_component::extract_visible_components&lt;bevy_asset::handle::Handle&lt;bevy_sprite::mesh2d::color_material::ColorMaterial&gt;&gt;">
<polygon fill="lightgrey" stroke="black" points="329.88,-1529 12.38,-1529 12.38,-1493 329.88,-1493 329.88,-1529"/>
<text text-anchor="middle" x="171.12" y="-1505.95" font-family="Times,serif" font-size="14.00">extract_visible_components&lt;Handle&lt;ColorMaterial&gt;&gt;</text>
</a>
</g>
</g>
<!-- node_System(24) -->
<g id="node33" class="node">
<title>node_System(24)</title>
<g id="a_node33"><a xlink:title="bevy_sprite::mesh2d::material::extract_materials_2d&lt;bevy_sprite::mesh2d::color_material::ColorMaterial&gt;">
<polygon fill="lightgrey" stroke="black" points="283,-1576 59.25,-1576 59.25,-1540 283,-1540 283,-1576"/>
<text text-anchor="middle" x="171.12" y="-1552.95" font-family="Times,serif" font-size="14.00">extract_materials_2d&lt;ColorMaterial&gt;</text>
</a>
</g>
</g>
<!-- node_System(26) -->
<g id="node34" class="node">
<title>node_System(26)</title>
<g id="a_node34"><a xlink:title="bevy_sprite::render::extract_sprite_events">
<polygon fill="lightgrey" stroke="black" points="236.5,-1623 105.75,-1623 105.75,-1587 236.5,-1587 236.5,-1623"/>
<text text-anchor="middle" x="171.12" y="-1599.95" font-family="Times,serif" font-size="14.00">extract_sprite_events</text>
</a>
</g>
</g>
<!-- node_System(28) -->
<g id="node36" class="node">
<title>node_System(28)</title>
<g id="a_node36"><a xlink:title="bevy_render::extract_component::extract_components&lt;bevy_ui::camera_config::UiCameraConfig&gt;">
<polygon fill="lightgrey" stroke="black" points="289,-1670 53.25,-1670 53.25,-1634 289,-1634 289,-1670"/>
<text text-anchor="middle" x="171.12" y="-1646.95" font-family="Times,serif" font-size="14.00">extract_components&lt;UiCameraConfig&gt;</text>
</a>
</g>
</g>
<!-- node_System(29) -->
<g id="node37" class="node">
<title>node_System(29)</title>
<g id="a_node37"><a xlink:title="bevy_ui::render::extract_default_ui_camera_view&lt;bevy_core_pipeline::core_2d::camera_2d::Camera2d&gt;">
<polygon fill="lightgrey" stroke="black" points="304.38,-1717 37.88,-1717 37.88,-1681 304.38,-1681 304.38,-1717"/>
<text text-anchor="middle" x="171.12" y="-1693.95" font-family="Times,serif" font-size="14.00">extract_default_ui_camera_view&lt;Camera2d&gt;</text>
</a>
</g>
</g>
<!-- node_System(30) -->
<g id="node38" class="node">
<title>node_System(30)</title>
<g id="a_node38"><a xlink:title="bevy_ui::render::extract_default_ui_camera_view&lt;bevy_core_pipeline::core_3d::camera_3d::Camera3d&gt;">
<polygon fill="lightgrey" stroke="black" points="304.38,-1764 37.88,-1764 37.88,-1728 304.38,-1728 304.38,-1764"/>
<text text-anchor="middle" x="171.12" y="-1740.95" font-family="Times,serif" font-size="14.00">extract_default_ui_camera_view&lt;Camera3d&gt;</text>
</a>
</g>
</g>
<!-- node_System(33)&#45;&gt;node_System(32) -->
<g id="edge5" class="edge">
<title>node_System(33)&#45;&gt;node_System(32)</title>
<path fill="none" stroke="#c93526" stroke-width="2" d="M557.75,-200.17C557.75,-211 557.75,-224.71 557.75,-235.59"/>
<g id="a_edge5&#45;label"><a xlink:title="extract_uinode_borders — extract_atlas_uinodes">
<polygon fill="#c6e6ff" stroke="none" points="490.62,-207.75 490.62,-228.25 594.38,-228.25 594.38,-207.75 490.62,-207.75"/>
<text text-anchor="start" x="492.62" y="-212.95" font-family="Times,serif" font-size="14.00" fill="#c93526">ExtractedUiNodes</text>
</a>
</g>
</g>
<!-- node_System(34)&#45;&gt;node_System(32) -->
<g id="edge6" class="edge">
<title>node_System(34)&#45;&gt;node_System(32)</title>
<path fill="none" stroke="#c93526" stroke-width="2" d="M493.22,-103.67C455.36,-103.85 410.02,-111.59 384.19,-142.75 346.96,-187.66 427.5,-220.48 490.93,-238.4"/>
<g id="a_edge6&#45;label"><a xlink:title="extract_text_uinodes — extract_atlas_uinodes">
<polygon fill="#c6e6ff" stroke="none" points="362.25,-144.75 362.25,-165.25 466,-165.25 466,-144.75 362.25,-144.75"/>
<text text-anchor="start" x="364.25" y="-149.95" font-family="Times,serif" font-size="14.00" fill="#c93526">ExtractedUiNodes</text>
</a>
</g>
</g>
<!-- node_System(34)&#45;&gt;node_System(33) -->
<g id="edge7" class="edge">
<title>node_System(34)&#45;&gt;node_System(33)</title>
<path fill="none" stroke="#c93526" stroke-width="2" d="M557.75,-128.17C557.75,-139 557.75,-152.71 557.75,-163.59"/>
<g id="a_edge7&#45;label"><a xlink:title="extract_text_uinodes — extract_uinode_borders">
<polygon fill="#c6e6ff" stroke="none" points="490.62,-135.75 490.62,-156.25 594.38,-156.25 594.38,-135.75 490.62,-135.75"/>
<text text-anchor="start" x="492.62" y="-140.95" font-family="Times,serif" font-size="14.00" fill="#c93526">ExtractedUiNodes</text>
</a>
</g>
</g>
<!-- node_System(35) -->
<g id="node42" class="node">
<title>node_System(35)</title>
<g id="a_node42"><a xlink:title="bevy_pbr::render::mesh::extract_meshes">
<polygon fill="lightgrey" stroke="black" points="221.12,-1811 121.12,-1811 121.12,-1775 221.12,-1775 221.12,-1811"/>
<text text-anchor="middle" x="171.12" y="-1787.95" font-family="Times,serif" font-size="14.00">extract_meshes</text>
</a>
</g>
</g>
<!-- node_System(36) -->
<g id="node43" class="node">
<title>node_System(36)</title>
<g id="a_node43"><a xlink:title="bevy_pbr::render::mesh::extract_skinned_meshes">
<polygon fill="lightgrey" stroke="black" points="245.5,-1858 96.75,-1858 96.75,-1822 245.5,-1822 245.5,-1858"/>
<text text-anchor="middle" x="171.12" y="-1834.95" font-family="Times,serif" font-size="14.00">extract_skinned_meshes</text>
</a>
</g>
</g>
<!-- node_System(37) -->
<g id="node44" class="node">
<title>node_System(37)</title>
<g id="a_node44"><a xlink:title="bevy_pbr::render::morph::extract_morphs">
<polygon fill="lightgrey" stroke="black" points="221.5,-1905 120.75,-1905 120.75,-1869 221.5,-1869 221.5,-1905"/>
<text text-anchor="middle" x="171.12" y="-1881.95" font-family="Times,serif" font-size="14.00">extract_morphs</text>
</a>
</g>
</g>
<!-- node_System(38) -->
<g id="node45" class="node">
<title>node_System(38)</title>
<g id="a_node45"><a xlink:title="bevy_render::extract_component::extract_visible_components&lt;bevy_asset::handle::Handle&lt;bevy_pbr::pbr_material::StandardMaterial&gt;&gt;">
<polygon fill="lightgrey" stroke="black" points="338.5,-1952 3.75,-1952 3.75,-1916 338.5,-1916 338.5,-1952"/>
<text text-anchor="middle" x="171.12" y="-1928.95" font-family="Times,serif" font-size="14.00">extract_visible_components&lt;Handle&lt;StandardMaterial&gt;&gt;</text>
</a>
</g>
</g>
<!-- node_System(39) -->
<g id="node46" class="node">
<title>node_System(39)</title>
<g id="a_node46"><a xlink:title="bevy_pbr::material::extract_materials&lt;bevy_pbr::pbr_material::StandardMaterial&gt;">
<polygon fill="lightgrey" stroke="black" points="281.5,-1999 60.75,-1999 60.75,-1963 281.5,-1963 281.5,-1999"/>
<text text-anchor="middle" x="171.12" y="-1975.95" font-family="Times,serif" font-size="14.00">extract_materials&lt;StandardMaterial&gt;</text>
</a>
</g>
</g>
<!-- node_System(40) -->
<g id="node47" class="node">
<title>node_System(40)</title>
<g id="a_node47"><a xlink:title="bevy_pbr::prepass::extract_camera_previous_view_projection">
<polygon fill="lightgrey" stroke="black" points="294.62,-2046 47.62,-2046 47.62,-2010 294.62,-2010 294.62,-2046"/>
<text text-anchor="middle" x="171.12" y="-2022.95" font-family="Times,serif" font-size="14.00">extract_camera_previous_view_projection</text>
</a>
</g>
</g>
<!-- node_System(41) -->
<g id="node48" class="node">
<title>node_System(41)</title>
<g id="a_node48"><a xlink:title="bevy_render::extract_component::extract_components&lt;bevy_pbr::environment_map::EnvironmentMapLight&gt;">
<polygon fill="lightgrey" stroke="black" points="305.12,-2093 37.12,-2093 37.12,-2057 305.12,-2057 305.12,-2093"/>
<text text-anchor="middle" x="171.12" y="-2069.95" font-family="Times,serif" font-size="14.00">extract_components&lt;EnvironmentMapLight&gt;</text>
</a>
</g>
</g>
<!-- node_System(42) -->
<g id="node49" class="node">
<title>node_System(42)</title>
<g id="a_node49"><a xlink:title="bevy_render::extract_resource::extract_resource&lt;bevy_pbr::light::AmbientLight&gt;">
<polygon fill="lightgrey" stroke="black" points="270.62,-2140 71.62,-2140 71.62,-2104 270.62,-2104 270.62,-2140"/>
<text text-anchor="middle" x="171.12" y="-2116.95" font-family="Times,serif" font-size="14.00">extract_resource&lt;AmbientLight&gt;</text>
</a>
</g>
</g>
<!-- node_System(43) -->
<g id="node50" class="node">
<title>node_System(43)</title>
<g id="a_node50"><a xlink:title="bevy_render::extract_component::extract_components&lt;bevy_pbr::fog::FogSettings&gt;">
<polygon fill="lightgrey" stroke="black" points="274.38,-2187 67.88,-2187 67.88,-2151 274.38,-2151 274.38,-2187"/>
<text text-anchor="middle" x="171.12" y="-2163.95" font-family="Times,serif" font-size="14.00">extract_components&lt;FogSettings&gt;</text>
</a>
</g>
</g>
<!-- node_System(46) -->
<g id="node51" class="node">
<title>node_System(46)</title>
<g id="a_node51"><a xlink:title="bevy_render::render_asset::extract_render_asset&lt;bevy_gizmos::LineGizmo&gt;">
<polygon fill="lightgrey" stroke="black" points="274,-2234 68.25,-2234 68.25,-2198 274,-2198 274,-2234"/>
<text text-anchor="middle" x="171.12" y="-2210.95" font-family="Times,serif" font-size="14.00">extract_render_asset&lt;LineGizmo&gt;</text>
</a>
</g>
</g>
<!-- node_System(47) -->
<g id="node52" class="node">
<title>node_System(47)</title>
<g id="a_node52"><a xlink:title="bevy_gizmos::extract_gizmo_data">
<polygon fill="lightgrey" stroke="black" points="232.75,-2281 109.5,-2281 109.5,-2245 232.75,-2245 232.75,-2281"/>
<text text-anchor="middle" x="171.12" y="-2257.95" font-family="Times,serif" font-size="14.00">extract_gizmo_data</text>
</a>
</g>
</g>
</g>
</svg>
