<?xml version="1.0" encoding="UTF-8" standalone="no"?>
<!DOCTYPE svg PUBLIC "-//W3C//DTD SVG 1.1//EN"
 "http://www.w3.org/Graphics/SVG/1.1/DTD/svg11.dtd">
<!-- Generated by graphviz version 13.1.2 (20250808.2320)
 -->
<!-- Pages: 1 -->
<svg width="1001pt" height="219pt"
 viewBox="0.00 0.00 1001.00 219.00" xmlns="http://www.w3.org/2000/svg" xmlns:xlink="http://www.w3.org/1999/xlink">
<g id="graph0" class="graph" transform="scale(1 1) rotate(0) translate(4 215)">
<polygon fill="#0d1117" stroke="none" points="-4,4 -4,-215 997.25,-215 997.25,4 -4,4"/>
<g id="clust1" class="cluster">
<title>clusternode_Set(SystemSetKey(1v1))</title>
<g id="a_clust1"><a xlink:title="Prepass">
<path fill="#ffffff" fill-opacity="0.266667" stroke="#ffffff" stroke-width="2" stroke-opacity="0.313725" d="M32,-114C32,-114 73.5,-114 73.5,-114 79.5,-114 85.5,-120 85.5,-126 85.5,-126 85.5,-146 85.5,-146 85.5,-152 79.5,-158 73.5,-158 73.5,-158 32,-158 32,-158 26,-158 20,-152 20,-146 20,-146 20,-126 20,-126 20,-120 26,-114 32,-114"/>
<text xml:space="preserve" text-anchor="middle" x="52.75" y="-140.7" font-family="Helvetica,sans-Serif" font-size="14.00" fill="#ffffff">Prepass</text>
</a>
</g>
</g>
<g id="clust2" class="cluster">
<title>clusternode_Set(SystemSetKey(2v1))</title>
<g id="a_clust2"><a xlink:title="MainPass">
<path fill="#ffffff" fill-opacity="0.266667" stroke="#ffffff" stroke-width="2" stroke-opacity="0.313725" d="M144.5,-96C144.5,-96 509.75,-96 509.75,-96 515.75,-96 521.75,-102 521.75,-108 521.75,-108 521.75,-175 521.75,-175 521.75,-181 515.75,-187 509.75,-187 509.75,-187 144.5,-187 144.5,-187 138.5,-187 132.5,-181 132.5,-175 132.5,-175 132.5,-108 132.5,-108 132.5,-102 138.5,-96 144.5,-96"/>
<text xml:space="preserve" text-anchor="middle" x="327.12" y="-169.7" font-family="Helvetica,sans-Serif" font-size="14.00" fill="#ffffff">MainPass</text>
</a>
</g>
</g>
<g id="clust3" class="cluster">
<title>clusternode_Set(SystemSetKey(3v1))</title>
<g id="a_clust3"><a xlink:title="EarlyPostProcess">
<path fill="#ffffff" fill-opacity="0.266667" stroke="#ffffff" stroke-width="2" stroke-opacity="0.313725" d="M374.88,-44C374.88,-44 473.38,-44 473.38,-44 479.38,-44 485.38,-50 485.38,-56 485.38,-56 485.38,-76 485.38,-76 485.38,-82 479.38,-88 473.38,-88 473.38,-88 374.88,-88 374.88,-88 368.88,-88 362.88,-82 362.88,-76 362.88,-76 362.88,-56 362.88,-56 362.88,-50 368.88,-44 374.88,-44"/>
<text xml:space="preserve" text-anchor="middle" x="424.12" y="-70.7" font-family="Helvetica,sans-Serif" font-size="14.00" fill="#ffffff">EarlyPostProcess</text>
</a>
</g>
</g>
<g id="clust4" class="cluster">
<title>clusternode_Set(SystemSetKey(4v1))</title>
<g id="a_clust4"><a xlink:title="PostProcess">
<path fill="#ffffff" fill-opacity="0.266667" stroke="#ffffff" stroke-width="2" stroke-opacity="0.313725" d="M578.25,-44C578.25,-44 973.25,-44 973.25,-44 979.25,-44 985.25,-50 985.25,-56 985.25,-56 985.25,-155 985.25,-155 985.25,-161 979.25,-167 973.25,-167 973.25,-167 578.25,-167 578.25,-167 572.25,-167 566.25,-161 566.25,-155 566.25,-155 566.25,-56 566.25,-56 566.25,-50 572.25,-44 578.25,-44"/>
<text xml:space="preserve" text-anchor="middle" x="775.75" y="-149.7" font-family="Helvetica,sans-Serif" font-size="14.00" fill="#ffffff">PostProcess</text>
</a>
</g>
</g>
<!-- set_marker_node_Set(SystemSetKey(1v1)) -->
<!-- set_marker_node_Set(SystemSetKey(2v1)) -->
<!-- set_marker_node_Set(SystemSetKey(1v1))&#45;&gt;set_marker_node_Set(SystemSetKey(2v1)) -->
<g id="edge2" class="edge">
<title>set_marker_node_Set(SystemSetKey(1v1))&#45;&gt;set_marker_node_Set(SystemSetKey(2v1))</title>
<g id="a_edge2"><a xlink:title="Prepass → MainPass">
<path fill="none" stroke="#881877" stroke-width="2" d="M85.5,-119.69C96.05,-118.33 108.08,-116.82 119.86,-115.44"/>
<polygon fill="#881877" stroke="#881877" stroke-width="2" points="119.95,-118.95 129.49,-114.34 119.16,-111.99 119.95,-118.95"/>
</a>
</g>
</g>
<!-- set_marker_node_Set(SystemSetKey(3v1)) -->
<!-- set_marker_node_Set(SystemSetKey(2v1))&#45;&gt;set_marker_node_Set(SystemSetKey(3v1)) -->
<g id="edge15" class="edge">
<title>set_marker_node_Set(SystemSetKey(2v1))&#45;&gt;set_marker_node_Set(SystemSetKey(3v1))</title>
<g id="a_edge15"><a xlink:title="MainPass → EarlyPostProcess">
<path fill="none" stroke="#aa3a55" stroke-width="2" d="M258.95,-96C284.83,-89.36 319.59,-80.44 350.42,-72.53"/>
<polygon fill="#aa3a55" stroke="#aa3a55" stroke-width="2" points="351.13,-75.96 359.95,-70.09 349.39,-69.18 351.13,-75.96"/>
</a>
</g>
</g>
<!-- node_System(SystemKey(1v1)) -->
<g id="node3" class="node">
<title>node_System(SystemKey(1v1))</title>
<g id="a_node3"><a xlink:title="bevy_core_pipeline::core_2d::main_opaque_pass_2d_node::main_opaque_pass_2d">
<polygon fill="#eff1f3" stroke="#b4bec7" points="297.5,-155 140.5,-155 140.5,-119 297.5,-119 297.5,-155"/>
<text xml:space="preserve" text-anchor="middle" x="219" y="-131.57" font-family="Helvetica,sans-Serif" font-size="14.00" fill="#15191d">main_opaque_pass_2d</text>
</a>
</g>
</g>
<!-- node_System(SystemKey(2v1)) -->
<g id="node4" class="node">
<title>node_System(SystemKey(2v1))</title>
<g id="a_node4"><a xlink:title="bevy_core_pipeline::core_2d::main_transparent_pass_2d_node::main_transparent_pass_2d">
<polygon fill="#eff1f3" stroke="#b4bec7" points="513.75,-155 333.5,-155 333.5,-119 513.75,-119 513.75,-155"/>
<text xml:space="preserve" text-anchor="middle" x="423.62" y="-131.57" font-family="Helvetica,sans-Serif" font-size="14.00" fill="#15191d">main_transparent_pass_2d</text>
</a>
</g>
</g>
<!-- node_System(SystemKey(1v1))&#45;&gt;node_System(SystemKey(2v1)) -->
<g id="edge7" class="edge">
<title>node_System(SystemKey(1v1))&#45;&gt;node_System(SystemKey(2v1))</title>
<g id="a_edge7"><a xlink:title="main_opaque_pass_2d → main_transparent_pass_2d">
<path fill="none" stroke="#ee9e44" stroke-width="2" d="M297.76,-137C305.2,-137 312.81,-137 320.43,-137"/>
<polygon fill="#ee9e44" stroke="#ee9e44" stroke-width="2" points="320.21,-140.5 330.21,-137 320.21,-133.5 320.21,-140.5"/>
</a>
</g>
</g>
<!-- set_marker_node_Set(SystemSetKey(4v1)) -->
<!-- set_marker_node_Set(SystemSetKey(3v1))&#45;&gt;set_marker_node_Set(SystemSetKey(4v1)) -->
<g id="edge4" class="edge">
<title>set_marker_node_Set(SystemSetKey(3v1))&#45;&gt;set_marker_node_Set(SystemSetKey(4v1))</title>
<g id="a_edge4"><a xlink:title="EarlyPostProcess → PostProcess">
<path fill="none" stroke="#aa3a55" stroke-width="2" d="M485.37,-54C507.6,-54 532.4,-54 553.25,-54"/>
<polygon fill="#aa3a55" stroke="#aa3a55" stroke-width="2" points="553.23,-57.5 563.23,-54 553.23,-50.5 553.23,-57.5"/>
</a>
</g>
</g>
<!-- node_System(SystemKey(4v1)) -->
<g id="node12" class="node">
<title>node_System(SystemKey(4v1))</title>
<g id="a_node12"><a xlink:title="bevy_core_pipeline::upscaling::node::upscaling">
<polygon fill="lightgrey" stroke="black" points="887.25,-36 819.5,-36 819.5,0 887.25,0 887.25,-36"/>
<text xml:space="preserve" text-anchor="middle" x="853.38" y="-12.95" font-family="Times,serif" font-size="14.00">upscaling</text>
</a>
</g>
</g>
<!-- set_marker_node_Set(SystemSetKey(4v1))&#45;&gt;node_System(SystemKey(4v1)) -->
<g id="edge8" class="edge">
<title>set_marker_node_Set(SystemSetKey(4v1))&#45;&gt;node_System(SystemKey(4v1))</title>
<g id="a_edge8"><a xlink:title="PostProcess → upscaling">
<path fill="none" stroke="#663699" stroke-width="2" d="M772.98,-44C776.52,-43.37 780.03,-42.71 783.5,-42 791.22,-40.43 799.26,-38.2 807.01,-35.73"/>
<polygon fill="#663699" stroke="#663699" stroke-width="2" points="808.05,-39.08 816.39,-32.54 805.79,-32.45 808.05,-39.08"/>
</a>
</g>
</g>
<!-- node_System(SystemKey(11v1)) -->
<g id="node15" class="node">
<title>node_System(SystemKey(11v1))</title>
<g id="a_node15"><a xlink:title="bevy_ui_render::render_pass::ui_pass">
<polygon fill="lightgrey" stroke="black" points="764.38,-36 707.88,-36 707.88,0 764.38,0 764.38,-36"/>
<text xml:space="preserve" text-anchor="middle" x="736.12" y="-12.95" font-family="Times,serif" font-size="14.00">ui_pass</text>
</a>
</g>
</g>
<!-- set_marker_node_Set(SystemSetKey(4v1))&#45;&gt;node_System(SystemKey(11v1)) -->
<g id="edge9" class="edge">
<title>set_marker_node_Set(SystemSetKey(4v1))&#45;&gt;node_System(SystemKey(11v1))</title>
<g id="a_edge9"><a xlink:title="PostProcess → ui_pass">
<path fill="none" stroke="#3363bb" stroke-width="2" d="M639.15,-44C656.57,-39.28 677.4,-33.64 695.19,-28.82"/>
<polygon fill="#3363bb" stroke="#3363bb" stroke-width="2" points="695.74,-32.3 704.48,-26.3 693.91,-25.54 695.74,-32.3"/>
</a>
</g>
</g>
<!-- node_System(SystemKey(3v1)) -->
<g id="node7" class="node">
<title>node_System(SystemKey(3v1))</title>
<g id="a_node7"><a xlink:title="bevy_core_pipeline::tonemapping::node::tonemapping">
<polygon fill="#eff1f3" stroke="#b4bec7" points="783.5,-135 688.75,-135 688.75,-99 783.5,-99 783.5,-135"/>
<text xml:space="preserve" text-anchor="middle" x="736.12" y="-111.58" font-family="Helvetica,sans-Serif" font-size="14.00" fill="#15191d">tonemapping</text>
</a>
</g>
</g>
<!-- node_System(SystemKey(8v1)) -->
<g id="node9" class="node">
<title>node_System(SystemKey(8v1))</title>
<g id="a_node9"><a xlink:title="bevy_anti_alias::fxaa::node::fxaa">
<polygon fill="#eff1f3" stroke="#b4bec7" points="880.38,-88 826.38,-88 826.38,-52 880.38,-52 880.38,-88"/>
<text xml:space="preserve" text-anchor="middle" x="853.38" y="-64.58" font-family="Helvetica,sans-Serif" font-size="14.00" fill="#15191d">fxaa</text>
</a>
</g>
</g>
<!-- node_System(SystemKey(3v1))&#45;&gt;node_System(SystemKey(8v1)) -->
<g id="edge3" class="edge">
<title>node_System(SystemKey(3v1))&#45;&gt;node_System(SystemKey(8v1))</title>
<g id="a_edge3"><a xlink:title="SystemTypeSet:bevy_core_pipeline::tonemapping::node::tonemapping → fxaa">
<path fill="none" stroke="#00b0cc" stroke-width="2" d="M782.34,-98.56C792.84,-94.28 803.9,-89.77 814.06,-85.62"/>
<polygon fill="#00b0cc" stroke="#00b0cc" stroke-width="2" points="815.17,-88.95 823.11,-81.94 812.52,-82.47 815.17,-88.95"/>
</a>
</g>
</g>
<!-- node_System(SystemKey(9v1)) -->
<g id="node10" class="node">
<title>node_System(SystemKey(9v1))</title>
<g id="a_node10"><a xlink:title="bevy_anti_alias::smaa::smaa">
<polygon fill="#eff1f3" stroke="#b4bec7" points="880.38,-135 826.38,-135 826.38,-99 880.38,-99 880.38,-135"/>
<text xml:space="preserve" text-anchor="middle" x="853.38" y="-111.58" font-family="Helvetica,sans-Serif" font-size="14.00" fill="#15191d">smaa</text>
</a>
</g>
</g>
<!-- node_System(SystemKey(3v1))&#45;&gt;node_System(SystemKey(9v1)) -->
<g id="edge13" class="edge">
<title>node_System(SystemKey(3v1))&#45;&gt;node_System(SystemKey(9v1))</title>
<g id="a_edge13"><a xlink:title="SystemTypeSet:bevy_core_pipeline::tonemapping::node::tonemapping → smaa">
<path fill="none" stroke="#881877" stroke-width="2" d="M783.67,-117C793.44,-117 803.64,-117 813.11,-117"/>
<polygon fill="#881877" stroke="#881877" stroke-width="2" points="812.86,-120.5 822.86,-117 812.86,-113.5 812.86,-120.5"/>
</a>
</g>
</g>
<!-- node_System(SystemKey(6v1)) -->
<g id="node8" class="node">
<title>node_System(SystemKey(6v1))</title>
<g id="a_node8"><a xlink:title="bevy_post_process::bloom::bloom">
<polygon fill="#eff1f3" stroke="#b4bec7" points="628.25,-135 574.25,-135 574.25,-99 628.25,-99 628.25,-135"/>
<text xml:space="preserve" text-anchor="middle" x="601.25" y="-111.58" font-family="Helvetica,sans-Serif" font-size="14.00" fill="#15191d">bloom</text>
</a>
</g>
</g>
<!-- node_System(SystemKey(6v1))&#45;&gt;node_System(SystemKey(3v1)) -->
<g id="edge5" class="edge">
<title>node_System(SystemKey(6v1))&#45;&gt;node_System(SystemKey(3v1))</title>
<g id="a_edge5"><a xlink:title="bloom → SystemTypeSet:bevy_core_pipeline::tonemapping::node::tonemapping">
<path fill="none" stroke="#44d488" stroke-width="2" d="M628.5,-117C641.99,-117 659.02,-117 675.48,-117"/>
<polygon fill="#44d488" stroke="#44d488" stroke-width="2" points="675.46,-120.5 685.46,-117 675.46,-113.5 675.46,-120.5"/>
</a>
</g>
</g>
<!-- node_System(SystemKey(7v1)) -->
<g id="node14" class="node">
<title>node_System(SystemKey(7v1))</title>
<g id="a_node14"><a xlink:title="bevy_post_process::effect_stack::post_processing">
<polygon fill="lightgrey" stroke="black" points="652.75,-211 549.75,-211 549.75,-175 652.75,-175 652.75,-211"/>
<text xml:space="preserve" text-anchor="middle" x="601.25" y="-187.95" font-family="Times,serif" font-size="14.00">post_processing</text>
</a>
</g>
</g>
<!-- node_System(SystemKey(6v1))&#45;&gt;node_System(SystemKey(7v1)) -->
<g id="edge11" class="edge">
<title>node_System(SystemKey(6v1))&#45;&gt;node_System(SystemKey(7v1))</title>
<g id="a_edge11"><a xlink:title="SystemTypeSet:bevy_post_process::bloom::bloom → post_processing">
<path fill="none" stroke="#99d955" stroke-width="2" d="M601.25,-135.41C601.25,-144.17 601.25,-152.94 601.25,-161.71"/>
<polygon fill="#99d955" stroke="#99d955" stroke-width="2" points="597.75,-161.52 601.25,-171.52 604.75,-161.52 597.75,-161.52"/>
</a>
</g>
</g>
<!-- node_System(SystemKey(10v1)) -->
<g id="node11" class="node">
<title>node_System(SystemKey(10v1))</title>
<g id="a_node11"><a xlink:title="bevy_anti_alias::contrast_adaptive_sharpening::node::cas">
<polygon fill="#eff1f3" stroke="#b4bec7" points="977.25,-111 923.25,-111 923.25,-75 977.25,-75 977.25,-111"/>
<text xml:space="preserve" text-anchor="middle" x="950.25" y="-87.58" font-family="Helvetica,sans-Serif" font-size="14.00" fill="#15191d">cas</text>
</a>
</g>
</g>
<!-- node_System(SystemKey(8v1))&#45;&gt;node_System(SystemKey(10v1)) -->
<g id="edge12" class="edge">
<title>node_System(SystemKey(8v1))&#45;&gt;node_System(SystemKey(10v1))</title>
<g id="a_edge12"><a xlink:title="SystemTypeSet:bevy_anti_alias::fxaa::node::fxaa → cas">
<path fill="none" stroke="#eede00" stroke-width="2" d="M880.8,-76.41C889.95,-78.62 900.41,-81.16 910.35,-83.57"/>
<polygon fill="#eede00" stroke="#eede00" stroke-width="2" points="909.48,-86.96 920.02,-85.91 911.13,-80.16 909.48,-86.96"/>
</a>
</g>
</g>
<!-- node_System(SystemKey(9v1))&#45;&gt;node_System(SystemKey(10v1)) -->
<g id="edge14" class="edge">
<title>node_System(SystemKey(9v1))&#45;&gt;node_System(SystemKey(10v1))</title>
<g id="a_edge14"><a xlink:title="SystemTypeSet:bevy_anti_alias::smaa::smaa → cas">
<path fill="none" stroke="#00b0cc" stroke-width="2" d="M880.8,-110.31C889.95,-108 900.41,-105.36 910.35,-102.84"/>
<polygon fill="#00b0cc" stroke="#00b0cc" stroke-width="2" points="911.19,-106.24 920.03,-100.39 909.48,-99.45 911.19,-106.24"/>
</a>
</g>
</g>
<!-- node_System(SystemKey(5v1)) -->
<g id="node13" class="node">
<title>node_System(SystemKey(5v1))</title>
<g id="a_node13"><a xlink:title="bevy_post_process::msaa_writeback::msaa_writeback">
<polygon fill="lightgrey" stroke="black" points="104.5,-106 0,-106 0,-70 104.5,-70 104.5,-106"/>
<text xml:space="preserve" text-anchor="middle" x="52.25" y="-82.95" font-family="Times,serif" font-size="14.00">msaa_writeback</text>
</a>
</g>
</g>
<!-- node_System(SystemKey(5v1))&#45;&gt;set_marker_node_Set(SystemSetKey(2v1)) -->
<g id="edge10" class="edge">
<title>node_System(SystemKey(5v1))&#45;&gt;set_marker_node_Set(SystemSetKey(2v1))</title>
<g id="a_edge10"><a xlink:title="msaa_writeback → MainPass">
<path fill="none" stroke="#22c2bb" stroke-width="2" d="M104.93,-93.65C109.74,-94.17 114.73,-94.72 119.79,-95.27"/>
<polygon fill="#22c2bb" stroke="#22c2bb" stroke-width="2" points="119.17,-98.72 129.49,-96.33 119.93,-91.76 119.17,-98.72"/>
</a>
</g>
</g>
<!-- node_System(SystemKey(7v1))&#45;&gt;node_System(SystemKey(3v1)) -->
<g id="edge1" class="edge">
<title>node_System(SystemKey(7v1))&#45;&gt;node_System(SystemKey(3v1))</title>
<g id="a_edge1"><a xlink:title="post_processing → SystemTypeSet:bevy_core_pipeline::tonemapping::node::tonemapping">
<path fill="none" stroke="#eede00" stroke-width="2" d="M642.17,-174.57C645.78,-172.75 649.35,-170.87 652.75,-169 667.6,-160.82 683.44,-151.08 697.23,-142.25"/>
<polygon fill="#eede00" stroke="#eede00" stroke-width="2" points="698.76,-145.43 705.25,-137.06 694.95,-139.56 698.76,-145.43"/>
</a>
</g>
</g>
<!-- node_System(SystemKey(11v1))&#45;&gt;node_System(SystemKey(4v1)) -->
<g id="edge6" class="edge">
<title>node_System(SystemKey(11v1))&#45;&gt;node_System(SystemKey(4v1))</title>
<g id="a_edge6"><a xlink:title="ui_pass → SystemTypeSet:bevy_core_pipeline::upscaling::node::upscaling">
<path fill="none" stroke="#0090cc" stroke-width="2" d="M764.73,-18C777.27,-18 792.45,-18 806.62,-18"/>
<polygon fill="#0090cc" stroke="#0090cc" stroke-width="2" points="806.22,-21.5 816.22,-18 806.22,-14.5 806.22,-21.5"/>
</a>
</g>
</g>
</g>
</svg>
