<?xml version="1.0" encoding="UTF-8" standalone="no"?>
<!DOCTYPE svg PUBLIC "-//W3C//DTD SVG 1.1//EN"
 "http://www.w3.org/Graphics/SVG/1.1/DTD/svg11.dtd">
<!-- Generated by graphviz version 14.1.5 (0)
 -->
<!-- Pages: 1 -->
<svg width="586pt" height="326pt"
 viewBox="0.00 0.00 586.00 326.00" xmlns="http://www.w3.org/2000/svg" xmlns:xlink="http://www.w3.org/1999/xlink">
<g id="graph0" class="graph" transform="scale(1 1) rotate(0) translate(4 322)">
<polygon fill="#0d1117" stroke="none" points="-4,4 -4,-322 582,-322 582,4 -4,4"/>
<!-- node_System(SystemKey(1v1)) -->
<g id="node1" class="node">
<title>node_System(SystemKey(1v1))</title>
<g id="a_node1"><a xlink:title="bevy_app::terminal_ctrl_c_handler::TerminalCtrlCHandlerPlugin::exit_on_flag">
<polygon fill="lightgrey" stroke="black" points="348.25,-36 34.5,-36 34.5,0 348.25,0 348.25,-36"/>
<text xml:space="preserve" text-anchor="middle" x="191.38" y="-13.32" font-family="Times,serif" font-size="14.00">TerminalCtrlCHandlerPlugin::exit_on_flag</text>
</a>
</g>
</g>
<!-- node_System(SystemKey(2v1)) -->
<g id="node2" class="node">
<title>node_System(SystemKey(2v1))</title>
<g id="a_node2"><a xlink:title="bevy_render::view::window::screenshot::trigger_screenshots">
<polygon fill="lightgrey" stroke="black" points="270.62,-83 112.12,-83 112.12,-47 270.62,-47 270.62,-83"/>
<text xml:space="preserve" text-anchor="middle" x="191.38" y="-60.33" font-family="Times,serif" font-size="14.00">trigger_screenshots</text>
</a>
</g>
</g>
<!-- node_System(SystemKey(3v1)) -->
<g id="node3" class="node">
<title>node_System(SystemKey(3v1))</title>
<g id="a_node3"><a xlink:title="bevy_light::probe::automatically_add_parallax_correction_components">
<polygon fill="lightgrey" stroke="black" points="382.75,-130 0,-130 0,-94 382.75,-94 382.75,-130"/>
<text xml:space="preserve" text-anchor="middle" x="191.38" y="-107.33" font-family="Times,serif" font-size="14.00">automatically_add_parallax_correction_components</text>
</a>
</g>
</g>
<!-- node_System(SystemKey(4v1)) -->
<g id="node4" class="node">
<title>node_System(SystemKey(4v1))</title>
<g id="a_node4"><a xlink:title="bevy_core_pipeline::oit::check_msaa">
<polygon fill="lightgrey" stroke="black" points="241.75,-177 141,-177 141,-141 241.75,-141 241.75,-177"/>
<text xml:space="preserve" text-anchor="middle" x="191.38" y="-154.32" font-family="Times,serif" font-size="14.00">check_msaa</text>
</a>
</g>
</g>
<!-- node_System(SystemKey(5v1)) -->
<g id="node5" class="node">
<title>node_System(SystemKey(5v1))</title>
<g id="a_node5"><a xlink:title="bevy_sprite_render::tilemap_chunk::update_tilemap_chunk_indices">
<polygon fill="lightgrey" stroke="black" points="307.75,-224 75,-224 75,-188 307.75,-188 307.75,-224"/>
<text xml:space="preserve" text-anchor="middle" x="191.38" y="-201.32" font-family="Times,serif" font-size="14.00">update_tilemap_chunk_indices</text>
</a>
</g>
</g>
<!-- node_System(SystemKey(6v1)) -->
<g id="node6" class="node">
<title>node_System(SystemKey(6v1))</title>
<g id="a_node6"><a xlink:title="bevy_pbr::atmosphere::environment::prepare_atmosphere_probe_components">
<polygon fill="lightgrey" stroke="black" points="343.75,-271 39,-271 39,-235 343.75,-235 343.75,-271"/>
<text xml:space="preserve" text-anchor="middle" x="191.38" y="-248.32" font-family="Times,serif" font-size="14.00">prepare_atmosphere_probe_components</text>
</a>
</g>
</g>
<!-- node_System(SystemKey(7v1)) -->
<g id="node7" class="node">
<title>node_System(SystemKey(7v1))</title>
<g id="a_node7"><a xlink:title="bevy_ui_widgets::menu::menu_acquire_focus">
<polygon fill="lightgrey" stroke="black" points="271.38,-318 111.38,-318 111.38,-282 271.38,-282 271.38,-318"/>
<text xml:space="preserve" text-anchor="middle" x="191.38" y="-295.32" font-family="Times,serif" font-size="14.00">menu_acquire_focus</text>
</a>
</g>
</g>
<!-- node_System(SystemKey(8v1)) -->
<g id="node8" class="node">
<title>node_System(SystemKey(8v1))</title>
<g id="a_node8"><a xlink:title="bevy_ui_widgets::menu::menu_on_lose_focus">
<polygon fill="lightgrey" stroke="black" points="578,-318 418.75,-318 418.75,-282 578,-282 578,-318"/>
<text xml:space="preserve" text-anchor="middle" x="498.38" y="-295.32" font-family="Times,serif" font-size="14.00">menu_on_lose_focus</text>
</a>
</g>
</g>
<!-- node_System(SystemKey(7v1))&#45;&gt;node_System(SystemKey(8v1)) -->
<g id="edge1" class="edge">
<title>node_System(SystemKey(7v1))&#45;&gt;node_System(SystemKey(8v1))</title>
<g id="a_edge1"><a xlink:title="menu_acquire_focus → menu_on_lose_focus">
<path fill="none" stroke="#eede00" stroke-width="2" d="M271.71,-300C312.66,-300 362.84,-300 405.46,-300"/>
<polygon fill="#eede00" stroke="#eede00" stroke-width="2" points="405.41,-303.5 415.41,-300 405.41,-296.5 405.41,-303.5"/>
</a>
</g>
</g>
</g>
</svg>
