<?xml version="1.0" encoding="UTF-8" standalone="no"?>
<!DOCTYPE svg PUBLIC "-//W3C//DTD SVG 1.1//EN"
 "http://www.w3.org/Graphics/SVG/1.1/DTD/svg11.dtd">
<!-- Generated by graphviz version 8.0.5 (0)
 -->
<!-- Pages: 1 -->
<svg width="407pt" height="2450pt"
 viewBox="0.00 0.00 407.25 2450.00" xmlns="http://www.w3.org/2000/svg" xmlns:xlink="http://www.w3.org/1999/xlink">
<g id="graph0" class="graph" transform="scale(1 1) rotate(0) translate(4 2446)">
<polygon fill="#0d1117" stroke="none" points="-4,4 -4,-2446 403.25,-2446 403.25,4 -4,4"/>
<g id="clust1" class="cluster">
<title>clusternode_Set(2)</title>
<g id="a_clust1"><a xlink:title="TimeSystem">
<path fill="#ffffff" fill-opacity="0.266667" stroke="#ffffff" stroke-width="2" stroke-opacity="0.313725" d="M157,-8C157,-8 242.25,-8 242.25,-8 248.25,-8 254.25,-14 254.25,-20 254.25,-20 254.25,-83 254.25,-83 254.25,-89 248.25,-95 242.25,-95 242.25,-95 157,-95 157,-95 151,-95 145,-89 145,-83 145,-83 145,-20 145,-20 145,-14 151,-8 157,-8"/>
<text text-anchor="middle" x="199.62" y="-77.7" font-family="Helvetica,sans-Serif" font-size="14.00" fill="#ffffff">TimeSystem</text>
</a>
</g>
</g>
<!-- set_marker_node_Set(2) -->
<!-- node_System(1) -->
<g id="node2" class="node">
<title>node_System(1)</title>
<g id="a_node2"><a xlink:title="bevy_time::time_system">
<polygon fill="#c7ddbd" stroke="#8dba79" points="246.25,-52 153,-52 153,-16 246.25,-16 246.25,-52"/>
<text text-anchor="middle" x="199.62" y="-28.57" font-family="Helvetica,sans-Serif" font-size="14.00" fill="#162111">time_system</text>
</a>
</g>
</g>
<!-- node_System(0) -->
<g id="node3" class="node">
<title>node_System(0)</title>
<g id="a_node3"><a xlink:title="bevy_ecs::event::Events&lt;bevy_app::app::AppExit&gt;::update_system">
<polygon fill="lightgrey" stroke="black" points="297.62,-139 101.62,-139 101.62,-103 297.62,-103 297.62,-139"/>
<text text-anchor="middle" x="199.62" y="-115.95" font-family="Times,serif" font-size="14.00">Events&lt;AppExit&gt;update_system</text>
</a>
</g>
</g>
<!-- node_System(2) -->
<g id="node4" class="node">
<title>node_System(2)</title>
<g id="a_node4"><a xlink:title="bevy_ecs::event::Events&lt;bevy_hierarchy::events::HierarchyEvent&gt;::update_system">
<polygon fill="lightgrey" stroke="black" points="317.5,-186 81.75,-186 81.75,-150 317.5,-150 317.5,-186"/>
<text text-anchor="middle" x="199.62" y="-162.95" font-family="Times,serif" font-size="14.00">Events&lt;HierarchyEvent&gt;update_system</text>
</a>
</g>
</g>
<!-- node_System(3) -->
<g id="node5" class="node">
<title>node_System(3)</title>
<g id="a_node5"><a xlink:title="bevy_ecs::event::Events&lt;bevy_input::keyboard::KeyboardInput&gt;::update_system">
<polygon fill="lightgrey" stroke="black" points="315.62,-233 83.62,-233 83.62,-197 315.62,-197 315.62,-233"/>
<text text-anchor="middle" x="199.62" y="-209.95" font-family="Times,serif" font-size="14.00">Events&lt;KeyboardInput&gt;update_system</text>
</a>
</g>
</g>
<!-- node_System(4) -->
<g id="node6" class="node">
<title>node_System(4)</title>
<g id="a_node6"><a xlink:title="bevy_ecs::event::Events&lt;bevy_input::mouse::MouseButtonInput&gt;::update_system">
<polygon fill="lightgrey" stroke="black" points="326.12,-280 73.12,-280 73.12,-244 326.12,-244 326.12,-280"/>
<text text-anchor="middle" x="199.62" y="-256.95" font-family="Times,serif" font-size="14.00">Events&lt;MouseButtonInput&gt;update_system</text>
</a>
</g>
</g>
<!-- node_System(5) -->
<g id="node7" class="node">
<title>node_System(5)</title>
<g id="a_node7"><a xlink:title="bevy_ecs::event::Events&lt;bevy_input::mouse::MouseMotion&gt;::update_system">
<polygon fill="lightgrey" stroke="black" points="313.75,-327 85.5,-327 85.5,-291 313.75,-291 313.75,-327"/>
<text text-anchor="middle" x="199.62" y="-303.95" font-family="Times,serif" font-size="14.00">Events&lt;MouseMotion&gt;update_system</text>
</a>
</g>
</g>
<!-- node_System(6) -->
<g id="node8" class="node">
<title>node_System(6)</title>
<g id="a_node8"><a xlink:title="bevy_ecs::event::Events&lt;bevy_input::mouse::MouseWheel&gt;::update_system">
<polygon fill="lightgrey" stroke="black" points="311.5,-374 87.75,-374 87.75,-338 311.5,-338 311.5,-374"/>
<text text-anchor="middle" x="199.62" y="-350.95" font-family="Times,serif" font-size="14.00">Events&lt;MouseWheel&gt;update_system</text>
</a>
</g>
</g>
<!-- node_System(7) -->
<g id="node9" class="node">
<title>node_System(7)</title>
<g id="a_node9"><a xlink:title="bevy_ecs::event::Events&lt;bevy_input::touchpad::TouchpadMagnify&gt;::update_system">
<polygon fill="lightgrey" stroke="black" points="325,-421 74.25,-421 74.25,-385 325,-385 325,-421"/>
<text text-anchor="middle" x="199.62" y="-397.95" font-family="Times,serif" font-size="14.00">Events&lt;TouchpadMagnify&gt;update_system</text>
</a>
</g>
</g>
<!-- node_System(8) -->
<g id="node10" class="node">
<title>node_System(8)</title>
<g id="a_node10"><a xlink:title="bevy_ecs::event::Events&lt;bevy_input::touchpad::TouchpadRotate&gt;::update_system">
<polygon fill="lightgrey" stroke="black" points="319,-468 80.25,-468 80.25,-432 319,-432 319,-468"/>
<text text-anchor="middle" x="199.62" y="-444.95" font-family="Times,serif" font-size="14.00">Events&lt;TouchpadRotate&gt;update_system</text>
</a>
</g>
</g>
<!-- node_System(9) -->
<g id="node11" class="node">
<title>node_System(9)</title>
<g id="a_node11"><a xlink:title="bevy_ecs::event::Events&lt;bevy_input::gamepad::GamepadConnectionEvent&gt;::update_system">
<polygon fill="lightgrey" stroke="black" points="347.88,-515 51.38,-515 51.38,-479 347.88,-479 347.88,-515"/>
<text text-anchor="middle" x="199.62" y="-491.95" font-family="Times,serif" font-size="14.00">Events&lt;GamepadConnectionEvent&gt;update_system</text>
</a>
</g>
</g>
<!-- node_System(10) -->
<g id="node12" class="node">
<title>node_System(10)</title>
<g id="a_node12"><a xlink:title="bevy_ecs::event::Events&lt;bevy_input::gamepad::GamepadButtonChangedEvent&gt;::update_system">
<polygon fill="lightgrey" stroke="black" points="359.12,-562 40.12,-562 40.12,-526 359.12,-526 359.12,-562"/>
<text text-anchor="middle" x="199.62" y="-538.95" font-family="Times,serif" font-size="14.00">Events&lt;GamepadButtonChangedEvent&gt;update_system</text>
</a>
</g>
</g>
<!-- node_System(11) -->
<g id="node13" class="node">
<title>node_System(11)</title>
<g id="a_node13"><a xlink:title="bevy_ecs::event::Events&lt;bevy_input::gamepad::GamepadAxisChangedEvent&gt;::update_system">
<polygon fill="lightgrey" stroke="black" points="353.5,-609 45.75,-609 45.75,-573 353.5,-573 353.5,-609"/>
<text text-anchor="middle" x="199.62" y="-585.95" font-family="Times,serif" font-size="14.00">Events&lt;GamepadAxisChangedEvent&gt;update_system</text>
</a>
</g>
</g>
<!-- node_System(12) -->
<g id="node14" class="node">
<title>node_System(12)</title>
<g id="a_node14"><a xlink:title="bevy_ecs::event::Events&lt;bevy_input::gamepad::GamepadEvent&gt;::update_system">
<polygon fill="lightgrey" stroke="black" points="316.75,-656 82.5,-656 82.5,-620 316.75,-620 316.75,-656"/>
<text text-anchor="middle" x="199.62" y="-632.95" font-family="Times,serif" font-size="14.00">Events&lt;GamepadEvent&gt;update_system</text>
</a>
</g>
</g>
<!-- node_System(13) -->
<g id="node15" class="node">
<title>node_System(13)</title>
<g id="a_node15"><a xlink:title="bevy_ecs::event::Events&lt;bevy_input::gamepad::GamepadRumbleRequest&gt;::update_system">
<polygon fill="lightgrey" stroke="black" points="344.5,-703 54.75,-703 54.75,-667 344.5,-667 344.5,-703"/>
<text text-anchor="middle" x="199.62" y="-679.95" font-family="Times,serif" font-size="14.00">Events&lt;GamepadRumbleRequest&gt;update_system</text>
</a>
</g>
</g>
<!-- node_System(14) -->
<g id="node16" class="node">
<title>node_System(14)</title>
<g id="a_node16"><a xlink:title="bevy_ecs::event::Events&lt;bevy_input::touch::TouchInput&gt;::update_system">
<polygon fill="lightgrey" stroke="black" points="305.88,-750 93.38,-750 93.38,-714 305.88,-714 305.88,-750"/>
<text text-anchor="middle" x="199.62" y="-726.95" font-family="Times,serif" font-size="14.00">Events&lt;TouchInput&gt;update_system</text>
</a>
</g>
</g>
<!-- node_System(15) -->
<g id="node17" class="node">
<title>node_System(15)</title>
<g id="a_node17"><a xlink:title="bevy_ecs::event::Events&lt;bevy_window::event::WindowResized&gt;::update_system">
<polygon fill="lightgrey" stroke="black" points="319.38,-797 79.88,-797 79.88,-761 319.38,-761 319.38,-797"/>
<text text-anchor="middle" x="199.62" y="-773.95" font-family="Times,serif" font-size="14.00">Events&lt;WindowResized&gt;update_system</text>
</a>
</g>
</g>
<!-- node_System(16) -->
<g id="node18" class="node">
<title>node_System(16)</title>
<g id="a_node18"><a xlink:title="bevy_ecs::event::Events&lt;bevy_window::event::WindowCreated&gt;::update_system">
<polygon fill="lightgrey" stroke="black" points="319,-844 80.25,-844 80.25,-808 319,-808 319,-844"/>
<text text-anchor="middle" x="199.62" y="-820.95" font-family="Times,serif" font-size="14.00">Events&lt;WindowCreated&gt;update_system</text>
</a>
</g>
</g>
<!-- node_System(17) -->
<g id="node19" class="node">
<title>node_System(17)</title>
<g id="a_node19"><a xlink:title="bevy_ecs::event::Events&lt;bevy_window::event::WindowClosed&gt;::update_system">
<polygon fill="lightgrey" stroke="black" points="316.75,-891 82.5,-891 82.5,-855 316.75,-855 316.75,-891"/>
<text text-anchor="middle" x="199.62" y="-867.95" font-family="Times,serif" font-size="14.00">Events&lt;WindowClosed&gt;update_system</text>
</a>
</g>
</g>
<!-- node_System(18) -->
<g id="node20" class="node">
<title>node_System(18)</title>
<g id="a_node20"><a xlink:title="bevy_ecs::event::Events&lt;bevy_window::event::WindowCloseRequested&gt;::update_system">
<polygon fill="lightgrey" stroke="black" points="341.5,-938 57.75,-938 57.75,-902 341.5,-902 341.5,-938"/>
<text text-anchor="middle" x="199.62" y="-914.95" font-family="Times,serif" font-size="14.00">Events&lt;WindowCloseRequested&gt;update_system</text>
</a>
</g>
</g>
<!-- node_System(19) -->
<g id="node21" class="node">
<title>node_System(19)</title>
<g id="a_node21"><a xlink:title="bevy_ecs::event::Events&lt;bevy_window::event::WindowDestroyed&gt;::update_system">
<polygon fill="lightgrey" stroke="black" points="325.75,-985 73.5,-985 73.5,-949 325.75,-949 325.75,-985"/>
<text text-anchor="middle" x="199.62" y="-961.95" font-family="Times,serif" font-size="14.00">Events&lt;WindowDestroyed&gt;update_system</text>
</a>
</g>
</g>
<!-- node_System(20) -->
<g id="node22" class="node">
<title>node_System(20)</title>
<g id="a_node22"><a xlink:title="bevy_ecs::event::Events&lt;bevy_window::event::RequestRedraw&gt;::update_system">
<polygon fill="lightgrey" stroke="black" points="317.5,-1032 81.75,-1032 81.75,-996 317.5,-996 317.5,-1032"/>
<text text-anchor="middle" x="199.62" y="-1008.95" font-family="Times,serif" font-size="14.00">Events&lt;RequestRedraw&gt;update_system</text>
</a>
</g>
</g>
<!-- node_System(21) -->
<g id="node23" class="node">
<title>node_System(21)</title>
<g id="a_node23"><a xlink:title="bevy_ecs::event::Events&lt;bevy_window::event::CursorMoved&gt;::update_system">
<polygon fill="lightgrey" stroke="black" points="312.62,-1079 86.62,-1079 86.62,-1043 312.62,-1043 312.62,-1079"/>
<text text-anchor="middle" x="199.62" y="-1055.95" font-family="Times,serif" font-size="14.00">Events&lt;CursorMoved&gt;update_system</text>
</a>
</g>
</g>
<!-- node_System(22) -->
<g id="node24" class="node">
<title>node_System(22)</title>
<g id="a_node24"><a xlink:title="bevy_ecs::event::Events&lt;bevy_window::event::CursorEntered&gt;::update_system">
<polygon fill="lightgrey" stroke="black" points="314.12,-1126 85.12,-1126 85.12,-1090 314.12,-1090 314.12,-1126"/>
<text text-anchor="middle" x="199.62" y="-1102.95" font-family="Times,serif" font-size="14.00">Events&lt;CursorEntered&gt;update_system</text>
</a>
</g>
</g>
<!-- node_System(23) -->
<g id="node25" class="node">
<title>node_System(23)</title>
<g id="a_node25"><a xlink:title="bevy_ecs::event::Events&lt;bevy_window::event::CursorLeft&gt;::update_system">
<polygon fill="lightgrey" stroke="black" points="304.38,-1173 94.88,-1173 94.88,-1137 304.38,-1137 304.38,-1173"/>
<text text-anchor="middle" x="199.62" y="-1149.95" font-family="Times,serif" font-size="14.00">Events&lt;CursorLeft&gt;update_system</text>
</a>
</g>
</g>
<!-- node_System(24) -->
<g id="node26" class="node">
<title>node_System(24)</title>
<g id="a_node26"><a xlink:title="bevy_ecs::event::Events&lt;bevy_window::event::ReceivedCharacter&gt;::update_system">
<polygon fill="lightgrey" stroke="black" points="326.12,-1220 73.12,-1220 73.12,-1184 326.12,-1184 326.12,-1220"/>
<text text-anchor="middle" x="199.62" y="-1196.95" font-family="Times,serif" font-size="14.00">Events&lt;ReceivedCharacter&gt;update_system</text>
</a>
</g>
</g>
<!-- node_System(25) -->
<g id="node27" class="node">
<title>node_System(25)</title>
<g id="a_node27"><a xlink:title="bevy_ecs::event::Events&lt;bevy_window::event::Ime&gt;::update_system">
<polygon fill="lightgrey" stroke="black" points="285.62,-1267 113.62,-1267 113.62,-1231 285.62,-1231 285.62,-1267"/>
<text text-anchor="middle" x="199.62" y="-1243.95" font-family="Times,serif" font-size="14.00">Events&lt;Ime&gt;update_system</text>
</a>
</g>
</g>
<!-- node_System(26) -->
<g id="node28" class="node">
<title>node_System(26)</title>
<g id="a_node28"><a xlink:title="bevy_ecs::event::Events&lt;bevy_window::event::WindowFocused&gt;::update_system">
<polygon fill="lightgrey" stroke="black" points="320.5,-1314 78.75,-1314 78.75,-1278 320.5,-1278 320.5,-1314"/>
<text text-anchor="middle" x="199.62" y="-1290.95" font-family="Times,serif" font-size="14.00">Events&lt;WindowFocused&gt;update_system</text>
</a>
</g>
</g>
<!-- node_System(27) -->
<g id="node29" class="node">
<title>node_System(27)</title>
<g id="a_node29"><a xlink:title="bevy_ecs::event::Events&lt;bevy_window::event::WindowScaleFactorChanged&gt;::update_system">
<polygon fill="lightgrey" stroke="black" points="353.88,-1361 45.38,-1361 45.38,-1325 353.88,-1325 353.88,-1361"/>
<text text-anchor="middle" x="199.62" y="-1337.95" font-family="Times,serif" font-size="14.00">Events&lt;WindowScaleFactorChanged&gt;update_system</text>
</a>
</g>
</g>
<!-- node_System(28) -->
<g id="node30" class="node">
<title>node_System(28)</title>
<g id="a_node30"><a xlink:title="bevy_ecs::event::Events&lt;bevy_window::event::WindowBackendScaleFactorChanged&gt;::update_system">
<polygon fill="lightgrey" stroke="black" points="377.5,-1408 21.75,-1408 21.75,-1372 377.5,-1372 377.5,-1408"/>
<text text-anchor="middle" x="199.62" y="-1384.95" font-family="Times,serif" font-size="14.00">Events&lt;WindowBackendScaleFactorChanged&gt;update_system</text>
</a>
</g>
</g>
<!-- node_System(29) -->
<g id="node31" class="node">
<title>node_System(29)</title>
<g id="a_node31"><a xlink:title="bevy_ecs::event::Events&lt;bevy_window::event::FileDragAndDrop&gt;::update_system">
<polygon fill="lightgrey" stroke="black" points="324.25,-1455 75,-1455 75,-1419 324.25,-1419 324.25,-1455"/>
<text text-anchor="middle" x="199.62" y="-1431.95" font-family="Times,serif" font-size="14.00">Events&lt;FileDragAndDrop&gt;update_system</text>
</a>
</g>
</g>
<!-- node_System(30) -->
<g id="node32" class="node">
<title>node_System(30)</title>
<g id="a_node32"><a xlink:title="bevy_ecs::event::Events&lt;bevy_window::event::WindowMoved&gt;::update_system">
<polygon fill="lightgrey" stroke="black" points="317.5,-1502 81.75,-1502 81.75,-1466 317.5,-1466 317.5,-1502"/>
<text text-anchor="middle" x="199.62" y="-1478.95" font-family="Times,serif" font-size="14.00">Events&lt;WindowMoved&gt;update_system</text>
</a>
</g>
</g>
<!-- node_System(31) -->
<g id="node33" class="node">
<title>node_System(31)</title>
<g id="a_node33"><a xlink:title="bevy_ecs::event::Events&lt;bevy_window::event::WindowThemeChanged&gt;::update_system">
<polygon fill="lightgrey" stroke="black" points="341.12,-1549 58.12,-1549 58.12,-1513 341.12,-1513 341.12,-1549"/>
<text text-anchor="middle" x="199.62" y="-1525.95" font-family="Times,serif" font-size="14.00">Events&lt;WindowThemeChanged&gt;update_system</text>
</a>
</g>
</g>
<!-- node_System(32) -->
<g id="node34" class="node">
<title>node_System(32)</title>
<g id="a_node34"><a xlink:title="bevy_ecs::event::Events&lt;bevy_asset::assets::AssetEvent&lt;bevy_scene::dynamic_scene::DynamicScene&gt;&gt;::update_system">
<polygon fill="lightgrey" stroke="black" points="355,-1596 44.25,-1596 44.25,-1560 355,-1560 355,-1596"/>
<text text-anchor="middle" x="199.62" y="-1572.95" font-family="Times,serif" font-size="14.00">Events&lt;AssetEvent&lt;DynamicScene&gt;&gt;update_system</text>
</a>
</g>
</g>
<!-- node_System(33) -->
<g id="node35" class="node">
<title>node_System(33)</title>
<g id="a_node35"><a xlink:title="bevy_ecs::event::Events&lt;bevy_asset::assets::AssetEvent&lt;bevy_scene::scene::Scene&gt;&gt;::update_system">
<polygon fill="lightgrey" stroke="black" points="329.88,-1643 69.38,-1643 69.38,-1607 329.88,-1607 329.88,-1643"/>
<text text-anchor="middle" x="199.62" y="-1619.95" font-family="Times,serif" font-size="14.00">Events&lt;AssetEvent&lt;Scene&gt;&gt;update_system</text>
</a>
</g>
</g>
<!-- node_System(34) -->
<g id="node36" class="node">
<title>node_System(34)</title>
<g id="a_node36"><a xlink:title="bevy_ecs::event::Events&lt;bevy_a11y::ActionRequest&gt;::update_system">
<polygon fill="lightgrey" stroke="black" points="314.88,-1690 84.38,-1690 84.38,-1654 314.88,-1654 314.88,-1690"/>
<text text-anchor="middle" x="199.62" y="-1666.95" font-family="Times,serif" font-size="14.00">Events&lt;ActionRequest&gt;update_system</text>
</a>
</g>
</g>
<!-- node_System(35) -->
<g id="node37" class="node">
<title>node_System(35)</title>
<g id="a_node37"><a xlink:title="bevy_ecs::event::Events&lt;bevy_asset::assets::AssetEvent&lt;bevy_render::render_resource::shader::Shader&gt;&gt;::update_system">
<polygon fill="lightgrey" stroke="black" points="332.5,-1737 66.75,-1737 66.75,-1701 332.5,-1701 332.5,-1737"/>
<text text-anchor="middle" x="199.62" y="-1713.95" font-family="Times,serif" font-size="14.00">Events&lt;AssetEvent&lt;Shader&gt;&gt;update_system</text>
</a>
</g>
</g>
<!-- node_System(36) -->
<g id="node38" class="node">
<title>node_System(36)</title>
<g id="a_node38"><a xlink:title="bevy_ecs::event::Events&lt;bevy_asset::assets::AssetEvent&lt;bevy_render::mesh::mesh::Mesh&gt;&gt;::update_system">
<polygon fill="lightgrey" stroke="black" points="329.12,-1784 70.12,-1784 70.12,-1748 329.12,-1748 329.12,-1784"/>
<text text-anchor="middle" x="199.62" y="-1760.95" font-family="Times,serif" font-size="14.00">Events&lt;AssetEvent&lt;Mesh&gt;&gt;update_system</text>
</a>
</g>
</g>
<!-- node_System(37) -->
<g id="node39" class="node">
<title>node_System(37)</title>
<g id="a_node39"><a xlink:title="bevy_ecs::event::Events&lt;bevy_asset::assets::AssetEvent&lt;bevy_render::mesh::mesh::skinning::SkinnedMeshInverseBindposes&gt;&gt;::update_system">
<polygon fill="lightgrey" stroke="black" points="399.25,-1831 0,-1831 0,-1795 399.25,-1795 399.25,-1831"/>
<text text-anchor="middle" x="199.62" y="-1807.95" font-family="Times,serif" font-size="14.00">Events&lt;AssetEvent&lt;SkinnedMeshInverseBindposes&gt;&gt;update_system</text>
</a>
</g>
</g>
<!-- node_System(38) -->
<g id="node40" class="node">
<title>node_System(38)</title>
<g id="a_node40"><a xlink:title="bevy_ecs::event::Events&lt;bevy_asset::assets::AssetEvent&lt;bevy_render::texture::image::Image&gt;&gt;::update_system">
<polygon fill="lightgrey" stroke="black" points="331,-1878 68.25,-1878 68.25,-1842 331,-1842 331,-1878"/>
<text text-anchor="middle" x="199.62" y="-1854.95" font-family="Times,serif" font-size="14.00">Events&lt;AssetEvent&lt;Image&gt;&gt;update_system</text>
</a>
</g>
</g>
<!-- node_System(39) -->
<g id="node41" class="node">
<title>node_System(39)</title>
<g id="a_node41"><a xlink:title="bevy_ecs::event::Events&lt;bevy_asset::assets::AssetEvent&lt;bevy_sprite::texture_atlas::TextureAtlas&gt;&gt;::update_system">
<polygon fill="lightgrey" stroke="black" points="348.62,-1925 50.62,-1925 50.62,-1889 348.62,-1889 348.62,-1925"/>
<text text-anchor="middle" x="199.62" y="-1901.95" font-family="Times,serif" font-size="14.00">Events&lt;AssetEvent&lt;TextureAtlas&gt;&gt;update_system</text>
</a>
</g>
</g>
<!-- node_System(40) -->
<g id="node42" class="node">
<title>node_System(40)</title>
<g id="a_node42"><a xlink:title="bevy_ecs::event::Events&lt;bevy_asset::assets::AssetEvent&lt;bevy_sprite::mesh2d::color_material::ColorMaterial&gt;&gt;::update_system">
<polygon fill="lightgrey" stroke="black" points="352.38,-1972 46.88,-1972 46.88,-1936 352.38,-1936 352.38,-1972"/>
<text text-anchor="middle" x="199.62" y="-1948.95" font-family="Times,serif" font-size="14.00">Events&lt;AssetEvent&lt;ColorMaterial&gt;&gt;update_system</text>
</a>
</g>
</g>
<!-- node_System(41) -->
<g id="node43" class="node">
<title>node_System(41)</title>
<g id="a_node43"><a xlink:title="bevy_ecs::event::Events&lt;bevy_asset::assets::AssetEvent&lt;bevy_text::font::Font&gt;&gt;::update_system">
<polygon fill="lightgrey" stroke="black" points="326.12,-2019 73.12,-2019 73.12,-1983 326.12,-1983 326.12,-2019"/>
<text text-anchor="middle" x="199.62" y="-1995.95" font-family="Times,serif" font-size="14.00">Events&lt;AssetEvent&lt;Font&gt;&gt;update_system</text>
</a>
</g>
</g>
<!-- node_System(42) -->
<g id="node44" class="node">
<title>node_System(42)</title>
<g id="a_node44"><a xlink:title="bevy_ecs::event::Events&lt;bevy_asset::assets::AssetEvent&lt;bevy_text::font_atlas_set::FontAtlasSet&gt;&gt;::update_system">
<polygon fill="lightgrey" stroke="black" points="349,-2066 50.25,-2066 50.25,-2030 349,-2030 349,-2066"/>
<text text-anchor="middle" x="199.62" y="-2042.95" font-family="Times,serif" font-size="14.00">Events&lt;AssetEvent&lt;FontAtlasSet&gt;&gt;update_system</text>
</a>
</g>
</g>
<!-- node_System(43) -->
<g id="node45" class="node">
<title>node_System(43)</title>
<g id="a_node45"><a xlink:title="bevy_ecs::event::Events&lt;bevy_asset::assets::AssetEvent&lt;bevy_pbr::pbr_material::StandardMaterial&gt;&gt;::update_system">
<polygon fill="lightgrey" stroke="black" points="361,-2113 38.25,-2113 38.25,-2077 361,-2077 361,-2113"/>
<text text-anchor="middle" x="199.62" y="-2089.95" font-family="Times,serif" font-size="14.00">Events&lt;AssetEvent&lt;StandardMaterial&gt;&gt;update_system</text>
</a>
</g>
</g>
<!-- node_System(44) -->
<g id="node46" class="node">
<title>node_System(44)</title>
<g id="a_node46"><a xlink:title="bevy_ecs::event::Events&lt;bevy_asset::assets::AssetEvent&lt;bevy_gltf::Gltf&gt;&gt;::update_system">
<polygon fill="lightgrey" stroke="black" points="324.62,-2160 74.62,-2160 74.62,-2124 324.62,-2124 324.62,-2160"/>
<text text-anchor="middle" x="199.62" y="-2136.95" font-family="Times,serif" font-size="14.00">Events&lt;AssetEvent&lt;Gltf&gt;&gt;update_system</text>
</a>
</g>
</g>
<!-- node_System(45) -->
<g id="node47" class="node">
<title>node_System(45)</title>
<g id="a_node47"><a xlink:title="bevy_ecs::event::Events&lt;bevy_asset::assets::AssetEvent&lt;bevy_gltf::GltfNode&gt;&gt;::update_system">
<polygon fill="lightgrey" stroke="black" points="339.25,-2207 60,-2207 60,-2171 339.25,-2171 339.25,-2207"/>
<text text-anchor="middle" x="199.62" y="-2183.95" font-family="Times,serif" font-size="14.00">Events&lt;AssetEvent&lt;GltfNode&gt;&gt;update_system</text>
</a>
</g>
</g>
<!-- node_System(46) -->
<g id="node48" class="node">
<title>node_System(46)</title>
<g id="a_node48"><a xlink:title="bevy_ecs::event::Events&lt;bevy_asset::assets::AssetEvent&lt;bevy_gltf::GltfPrimitive&gt;&gt;::update_system">
<polygon fill="lightgrey" stroke="black" points="350.12,-2254 49.12,-2254 49.12,-2218 350.12,-2218 350.12,-2254"/>
<text text-anchor="middle" x="199.62" y="-2230.95" font-family="Times,serif" font-size="14.00">Events&lt;AssetEvent&lt;GltfPrimitive&gt;&gt;update_system</text>
</a>
</g>
</g>
<!-- node_System(47) -->
<g id="node49" class="node">
<title>node_System(47)</title>
<g id="a_node49"><a xlink:title="bevy_ecs::event::Events&lt;bevy_asset::assets::AssetEvent&lt;bevy_gltf::GltfMesh&gt;&gt;::update_system">
<polygon fill="lightgrey" stroke="black" points="340,-2301 59.25,-2301 59.25,-2265 340,-2265 340,-2301"/>
<text text-anchor="middle" x="199.62" y="-2277.95" font-family="Times,serif" font-size="14.00">Events&lt;AssetEvent&lt;GltfMesh&gt;&gt;update_system</text>
</a>
</g>
</g>
<!-- node_System(48) -->
<g id="node50" class="node">
<title>node_System(48)</title>
<g id="a_node50"><a xlink:title="bevy_ecs::event::Events&lt;bevy_asset::assets::AssetEvent&lt;bevy_audio::audio_source::AudioSource&gt;&gt;::update_system">
<polygon fill="lightgrey" stroke="black" points="349.38,-2348 49.88,-2348 49.88,-2312 349.38,-2312 349.38,-2348"/>
<text text-anchor="middle" x="199.62" y="-2324.95" font-family="Times,serif" font-size="14.00">Events&lt;AssetEvent&lt;AudioSource&gt;&gt;update_system</text>
</a>
</g>
</g>
<!-- node_System(49) -->
<g id="node51" class="node">
<title>node_System(49)</title>
<g id="a_node51"><a xlink:title="bevy_ecs::event::Events&lt;bevy_asset::assets::AssetEvent&lt;bevy_animation::AnimationClip&gt;&gt;::update_system">
<polygon fill="lightgrey" stroke="black" points="354.62,-2395 44.62,-2395 44.62,-2359 354.62,-2359 354.62,-2395"/>
<text text-anchor="middle" x="199.62" y="-2371.95" font-family="Times,serif" font-size="14.00">Events&lt;AssetEvent&lt;AnimationClip&gt;&gt;update_system</text>
</a>
</g>
</g>
<!-- node_System(50) -->
<g id="node52" class="node">
<title>node_System(50)</title>
<g id="a_node52"><a xlink:title="bevy_ecs::event::Events&lt;bevy_asset::assets::AssetEvent&lt;bevy_gizmos::LineGizmo&gt;&gt;::update_system">
<polygon fill="lightgrey" stroke="black" points="344.88,-2442 54.38,-2442 54.38,-2406 344.88,-2406 344.88,-2442"/>
<text text-anchor="middle" x="199.62" y="-2418.95" font-family="Times,serif" font-size="14.00">Events&lt;AssetEvent&lt;LineGizmo&gt;&gt;update_system</text>
</a>
</g>
</g>
</g>
</svg>
