<?xml version="1.0" encoding="UTF-8" standalone="no"?>
<!DOCTYPE svg PUBLIC "-//W3C//DTD SVG 1.1//EN"
 "http://www.w3.org/Graphics/SVG/1.1/DTD/svg11.dtd">
<!-- Generated by graphviz version 14.0.0 (0)
 -->
<!-- Pages: 1 -->
<svg width="1886pt" height="2244pt"
 viewBox="0.00 0.00 1886.00 2244.00" xmlns="http://www.w3.org/2000/svg" xmlns:xlink="http://www.w3.org/1999/xlink">
<g id="graph0" class="graph" transform="scale(1 1) rotate(0) translate(4 2240)">
<polygon fill="#0d1117" stroke="none" points="-4,4 -4,-2240 1881.5,-2240 1881.5,4 -4,4"/>
<g id="clust1" class="cluster">
<title>clusternode_Set(SystemSetKey(2v1))</title>
<g id="a_clust1"><a xlink:title="InputSystems">
<path fill="#ffffff" fill-opacity="0.266667" stroke="#ffffff" stroke-width="2" stroke-opacity="0.313725" d="M536.75,-108C536.75,-108 1274,-108 1274,-108 1280,-108 1286,-114 1286,-120 1286,-120 1286,-423 1286,-423 1286,-429 1280,-435 1274,-435 1274,-435 536.75,-435 536.75,-435 530.75,-435 524.75,-429 524.75,-423 524.75,-423 524.75,-120 524.75,-120 524.75,-114 530.75,-108 536.75,-108"/>
<text xml:space="preserve" text-anchor="middle" x="905.38" y="-417.7" font-family="Helvetica,sans-Serif" font-size="14.00" fill="#ffffff">InputSystems</text>
</a>
</g>
</g>
<g id="clust2" class="cluster">
<title>clusternode_Set(SystemSetKey(10v1))</title>
<g id="a_clust2"><a xlink:title="AssetTrackingSystems">
<path fill="#ffffff" fill-opacity="0.266667" stroke="#ffffff" stroke-width="2" stroke-opacity="0.313725" d="M354.5,-443C354.5,-443 972.25,-443 972.25,-443 978.25,-443 984.25,-449 984.25,-455 984.25,-455 984.25,-1698 984.25,-1698 984.25,-1704 978.25,-1710 972.25,-1710 972.25,-1710 354.5,-1710 354.5,-1710 348.5,-1710 342.5,-1704 342.5,-1698 342.5,-1698 342.5,-455 342.5,-455 342.5,-449 348.5,-443 354.5,-443"/>
<text xml:space="preserve" text-anchor="middle" x="663.38" y="-1692.7" font-family="Helvetica,sans-Serif" font-size="14.00" fill="#ffffff">AssetTrackingSystems</text>
</a>
</g>
</g>
<g id="clust3" class="cluster">
<title>clusternode_Set(SystemSetKey(23v1))</title>
<g id="a_clust3"><a xlink:title="Backend">
<path fill="#ffffff" fill-opacity="0.266667" stroke="#ffffff" stroke-width="2" stroke-opacity="0.313725" d="M589.25,-1718C589.25,-1718 737.5,-1718 737.5,-1718 743.5,-1718 749.5,-1724 749.5,-1730 749.5,-1730 749.5,-1892 749.5,-1892 749.5,-1898 743.5,-1904 737.5,-1904 737.5,-1904 589.25,-1904 589.25,-1904 583.25,-1904 577.25,-1898 577.25,-1892 577.25,-1892 577.25,-1730 577.25,-1730 577.25,-1724 583.25,-1718 589.25,-1718"/>
<text xml:space="preserve" text-anchor="middle" x="663.38" y="-1886.7" font-family="Helvetica,sans-Serif" font-size="14.00" fill="#ffffff">Backend</text>
</a>
</g>
</g>
<g id="clust4" class="cluster">
<title>clusternode_Set(SystemSetKey(28v1))</title>
<g id="a_clust4"><a xlink:title="Focus">
<path fill="#ffffff" fill-opacity="0.266667" stroke="#ffffff" stroke-width="2" stroke-opacity="0.313725" d="M1084.12,-8C1084.12,-8 1206.12,-8 1206.12,-8 1212.12,-8 1218.12,-14 1218.12,-20 1218.12,-20 1218.12,-88 1218.12,-88 1218.12,-94 1212.12,-100 1206.12,-100 1206.12,-100 1084.12,-100 1084.12,-100 1078.12,-100 1072.12,-94 1072.12,-88 1072.12,-88 1072.12,-20 1072.12,-20 1072.12,-14 1078.12,-8 1084.12,-8"/>
<text xml:space="preserve" text-anchor="middle" x="1145.12" y="-82.7" font-family="Helvetica,sans-Serif" font-size="14.00" fill="#ffffff">Focus</text>
</a>
</g>
</g>
<g id="clust5" class="cluster">
<title>clusternode_Set(SystemSetKey(46v1))</title>
<g id="a_clust5"><a xlink:title="ProcessInput">
<path fill="#ffffff" fill-opacity="0.266667" stroke="#ffffff" stroke-width="2" stroke-opacity="0.313725" d="M81.25,-1912C81.25,-1912 736.75,-1912 736.75,-1912 742.75,-1912 748.75,-1918 748.75,-1924 748.75,-1924 748.75,-2039 748.75,-2039 748.75,-2045 742.75,-2051 736.75,-2051 736.75,-2051 81.25,-2051 81.25,-2051 75.25,-2051 69.25,-2045 69.25,-2039 69.25,-2039 69.25,-1924 69.25,-1924 69.25,-1918 75.25,-1912 81.25,-1912"/>
<text xml:space="preserve" text-anchor="middle" x="409" y="-2033.7" font-family="Helvetica,sans-Serif" font-size="14.00" fill="#ffffff">ProcessInput</text>
</a>
</g>
</g>
<g id="clust6" class="cluster">
<title>clusternode_Set(SystemSetKey(50v1))</title>
<g id="a_clust6"><a xlink:title="Hover">
<path fill="#ffffff" fill-opacity="0.266667" stroke="#ffffff" stroke-width="2" stroke-opacity="0.313725" d="M1071.75,-1718C1071.75,-1718 1857.5,-1718 1857.5,-1718 1863.5,-1718 1869.5,-1724 1869.5,-1730 1869.5,-1730 1869.5,-1830 1869.5,-1830 1869.5,-1836 1863.5,-1842 1857.5,-1842 1857.5,-1842 1071.75,-1842 1071.75,-1842 1065.75,-1842 1059.75,-1836 1059.75,-1830 1059.75,-1830 1059.75,-1730 1059.75,-1730 1059.75,-1724 1065.75,-1718 1071.75,-1718"/>
<text xml:space="preserve" text-anchor="middle" x="1464.62" y="-1824.7" font-family="Helvetica,sans-Serif" font-size="14.00" fill="#ffffff">Hover</text>
</a>
</g>
</g>
<g id="clust7" class="cluster">
<title>clusternode_Set(SystemSetKey(51v1))</title>
<g id="a_clust7"><a xlink:title="PostHover">
<path fill="#ffffff" fill-opacity="0.266667" stroke="#ffffff" stroke-width="2" stroke-opacity="0.313725" d="M1359.88,-1665C1359.88,-1665 1422.38,-1665 1422.38,-1665 1428.38,-1665 1434.38,-1671 1434.38,-1677 1434.38,-1677 1434.38,-1698 1434.38,-1698 1434.38,-1704 1428.38,-1710 1422.38,-1710 1422.38,-1710 1359.88,-1710 1359.88,-1710 1353.88,-1710 1347.88,-1704 1347.88,-1698 1347.88,-1698 1347.88,-1677 1347.88,-1677 1347.88,-1671 1353.88,-1665 1359.88,-1665"/>
<text xml:space="preserve" text-anchor="middle" x="1391.12" y="-1692.7" font-family="Helvetica,sans-Serif" font-size="14.00" fill="#ffffff">PostHover</text>
</a>
</g>
</g>
<g id="clust8" class="cluster">
<title>clusternode_Set(SystemSetKey(52v1))</title>
<g id="a_clust8"><a xlink:title="Last">
<path fill="#ffffff" fill-opacity="0.266667" stroke="#ffffff" stroke-width="2" stroke-opacity="0.313725" d="M1595.25,-1665C1595.25,-1665 1615.75,-1665 1615.75,-1665 1621.75,-1665 1627.75,-1671 1627.75,-1677 1627.75,-1677 1627.75,-1698 1627.75,-1698 1627.75,-1704 1621.75,-1710 1615.75,-1710 1615.75,-1710 1595.25,-1710 1595.25,-1710 1589.25,-1710 1583.25,-1704 1583.25,-1698 1583.25,-1698 1583.25,-1677 1583.25,-1677 1583.25,-1671 1589.25,-1665 1595.25,-1665"/>
<text xml:space="preserve" text-anchor="middle" x="1605.5" y="-1692.7" font-family="Helvetica,sans-Serif" font-size="14.00" fill="#ffffff">Last</text>
</a>
</g>
</g>
<!-- set_marker_node_Set(SystemSetKey(2v1)) -->
<!-- node_System(SystemKey(24v1)) -->
<g id="node41" class="node">
<title>node_System(SystemKey(24v1))</title>
<g id="a_node41"><a xlink:title="bevy_ui::focus::ui_focus_system">
<polygon fill="#ffb1e5" stroke="#ff4bc2" points="1210.12,-67 1080.12,-67 1080.12,-31 1210.12,-31 1210.12,-67"/>
<text xml:space="preserve" text-anchor="middle" x="1145.12" y="-44.33" font-family="Helvetica,sans-Serif" font-size="14.00" fill="#320021">ui_focus_system</text>
</a>
</g>
</g>
<!-- set_marker_node_Set(SystemSetKey(2v1))&#45;&gt;node_System(SystemKey(24v1)) -->
<g id="edge14" class="edge">
<title>set_marker_node_Set(SystemSetKey(2v1))&#45;&gt;node_System(SystemKey(24v1))</title>
<g id="a_edge14"><a xlink:title="InputSystems → ui_focus_system">
<path fill="none" stroke="#00b0cc" stroke-width="2" d="M733.88,-108C822.43,-95.27 975.01,-73.32 1067.05,-60.09"/>
<polygon fill="#00b0cc" stroke="#00b0cc" stroke-width="2" points="1067.35,-63.58 1076.75,-58.69 1066.35,-56.65 1067.35,-63.58"/>
</a>
</g>
</g>
<!-- node_System(SystemKey(1v1)) -->
<g id="node2" class="node">
<title>node_System(SystemKey(1v1))</title>
<g id="a_node2"><a xlink:title="bevy_input::keyboard::keyboard_input_system">
<polygon fill="#d36aaf" stroke="#a5317d" points="753.12,-167 573.62,-167 573.62,-131 753.12,-131 753.12,-167"/>
<text xml:space="preserve" text-anchor="middle" x="663.38" y="-144.32" font-family="Helvetica,sans-Serif" font-size="14.00" fill="#270b1d">keyboard_input_system</text>
</a>
</g>
</g>
<!-- node_System(SystemKey(2v1)) -->
<g id="node3" class="node">
<title>node_System(SystemKey(2v1))</title>
<g id="a_node3"><a xlink:title="bevy_input::mouse::mouse_button_input_system">
<polygon fill="#d36aaf" stroke="#a5317d" points="770.75,-214 556,-214 556,-178 770.75,-178 770.75,-214"/>
<text xml:space="preserve" text-anchor="middle" x="663.38" y="-191.32" font-family="Helvetica,sans-Serif" font-size="14.00" fill="#270b1d">mouse_button_input_system</text>
</a>
</g>
</g>
<!-- node_System(SystemKey(3v1)) -->
<g id="node4" class="node">
<title>node_System(SystemKey(3v1))</title>
<g id="a_node4"><a xlink:title="bevy_input::mouse::accumulate_mouse_motion_system">
<polygon fill="#d36aaf" stroke="#a5317d" points="794,-261 532.75,-261 532.75,-225 794,-225 794,-261"/>
<text xml:space="preserve" text-anchor="middle" x="663.38" y="-238.32" font-family="Helvetica,sans-Serif" font-size="14.00" fill="#270b1d">accumulate_mouse_motion_system</text>
</a>
</g>
</g>
<!-- node_System(SystemKey(4v1)) -->
<g id="node5" class="node">
<title>node_System(SystemKey(4v1))</title>
<g id="a_node5"><a xlink:title="bevy_input::mouse::accumulate_mouse_scroll_system">
<polygon fill="#d36aaf" stroke="#a5317d" points="788,-308 538.75,-308 538.75,-272 788,-272 788,-308"/>
<text xml:space="preserve" text-anchor="middle" x="663.38" y="-285.32" font-family="Helvetica,sans-Serif" font-size="14.00" fill="#270b1d">accumulate_mouse_scroll_system</text>
</a>
</g>
</g>
<!-- node_System(SystemKey(5v1)) -->
<g id="node6" class="node">
<title>node_System(SystemKey(5v1))</title>
<g id="a_node6"><a xlink:title="bevy_input::gamepad::gamepad_connection_system">
<polygon fill="#d36aaf" stroke="#a5317d" points="773.75,-355 553,-355 553,-319 773.75,-319 773.75,-355"/>
<text xml:space="preserve" text-anchor="middle" x="663.38" y="-332.32" font-family="Helvetica,sans-Serif" font-size="14.00" fill="#270b1d">gamepad_connection_system</text>
</a>
</g>
</g>
<!-- node_System(SystemKey(6v1)) -->
<g id="node7" class="node">
<title>node_System(SystemKey(6v1))</title>
<g id="a_node7"><a xlink:title="bevy_input::gamepad::gamepad_event_processing_system">
<polygon fill="#d36aaf" stroke="#a5317d" points="1278,-355 1012.25,-355 1012.25,-319 1278,-319 1278,-355"/>
<text xml:space="preserve" text-anchor="middle" x="1145.12" y="-332.32" font-family="Helvetica,sans-Serif" font-size="14.00" fill="#270b1d">gamepad_event_processing_system</text>
</a>
</g>
</g>
<!-- node_System(SystemKey(5v1))&#45;&gt;node_System(SystemKey(6v1)) -->
<g id="edge3" class="edge">
<title>node_System(SystemKey(5v1))&#45;&gt;node_System(SystemKey(6v1))</title>
<g id="a_edge3"><a xlink:title="SystemTypeSet(fn bevy_ecs::system::function_system::FunctionSystem&lt;fn(bevy_ecs::system::commands::Commands&lt;&#39;_, &#39;_&gt;, bevy_ecs::message::message_reader::MessageReader&lt;&#39;_, &#39;_, bevy_input::gamepad::GamepadConnectionEvent&gt;), (), bevy_input::gamepad::gamepad_connection_system&gt;()) → gamepad_event_processing_system">
<path fill="none" stroke="#00b0cc" stroke-width="2" d="M774.14,-337C840.81,-337 926.7,-337 998.94,-337"/>
<polygon fill="#00b0cc" stroke="#00b0cc" stroke-width="2" points="998.77,-340.5 1008.77,-337 998.77,-333.5 998.77,-340.5"/>
</a>
</g>
</g>
<!-- node_System(SystemKey(7v1)) -->
<g id="node8" class="node">
<title>node_System(SystemKey(7v1))</title>
<g id="a_node8"><a xlink:title="bevy_input::touch::touch_screen_input_system">
<polygon fill="#d36aaf" stroke="#a5317d" points="767,-402 559.75,-402 559.75,-366 767,-366 767,-402"/>
<text xml:space="preserve" text-anchor="middle" x="663.38" y="-379.32" font-family="Helvetica,sans-Serif" font-size="14.00" fill="#270b1d">touch_screen_input_system</text>
</a>
</g>
</g>
<!-- set_marker_node_Set(SystemSetKey(10v1)) -->
<!-- node_System(SystemKey(8v1)) -->
<g id="node10" class="node">
<title>node_System(SystemKey(8v1))</title>
<g id="a_node10"><a xlink:title="bevy_asset::assets::Assets&lt;bevy_asset::folder::LoadedFolder&gt;::track_assets">
<polygon fill="#d1cbc5" stroke="#a3988c" points="800.38,-502 526.38,-502 526.38,-466 800.38,-466 800.38,-502"/>
<text xml:space="preserve" text-anchor="middle" x="663.38" y="-479.32" font-family="Helvetica,sans-Serif" font-size="14.00" fill="#1c1916">Assets&lt;LoadedFolder&gt;::track_assets</text>
</a>
</g>
</g>
<!-- node_System(SystemKey(9v1)) -->
<g id="node11" class="node">
<title>node_System(SystemKey(9v1))</title>
<g id="a_node11"><a xlink:title="bevy_asset::assets::Assets&lt;bevy_asset::assets::LoadedUntypedAsset&gt;::track_assets">
<polygon fill="#d1cbc5" stroke="#a3988c" points="827.75,-549 499,-549 499,-513 827.75,-513 827.75,-549"/>
<text xml:space="preserve" text-anchor="middle" x="663.38" y="-526.33" font-family="Helvetica,sans-Serif" font-size="14.00" fill="#1c1916">Assets&lt;LoadedUntypedAsset&gt;::track_assets</text>
</a>
</g>
</g>
<!-- node_System(SystemKey(10v1)) -->
<g id="node12" class="node">
<title>node_System(SystemKey(10v1))</title>
<g id="a_node12"><a xlink:title="bevy_asset::assets::Assets&lt;()&gt;::track_assets">
<polygon fill="#d1cbc5" stroke="#a3988c" points="759.12,-596 567.62,-596 567.62,-560 759.12,-560 759.12,-596"/>
<text xml:space="preserve" text-anchor="middle" x="663.38" y="-573.33" font-family="Helvetica,sans-Serif" font-size="14.00" fill="#1c1916">Assets&lt;()&gt;::track_assets</text>
</a>
</g>
</g>
<!-- node_System(SystemKey(12v1)) -->
<g id="node13" class="node">
<title>node_System(SystemKey(12v1))</title>
<g id="a_node13"><a xlink:title="bevy_asset::assets::Assets&lt;bevy_scene::dynamic_scene::DynamicScene&gt;::track_assets">
<polygon fill="#d1cbc5" stroke="#a3988c" points="805.25,-643 521.5,-643 521.5,-607 805.25,-607 805.25,-643"/>
<text xml:space="preserve" text-anchor="middle" x="663.38" y="-620.33" font-family="Helvetica,sans-Serif" font-size="14.00" fill="#1c1916">Assets&lt;DynamicScene&gt;::track_assets</text>
</a>
</g>
</g>
<!-- node_System(SystemKey(13v1)) -->
<g id="node14" class="node">
<title>node_System(SystemKey(13v1))</title>
<g id="a_node14"><a xlink:title="bevy_asset::assets::Assets&lt;bevy_scene::scene::Scene&gt;::track_assets">
<polygon fill="#d1cbc5" stroke="#a3988c" points="774.88,-690 551.88,-690 551.88,-654 774.88,-654 774.88,-690"/>
<text xml:space="preserve" text-anchor="middle" x="663.38" y="-667.33" font-family="Helvetica,sans-Serif" font-size="14.00" fill="#1c1916">Assets&lt;Scene&gt;::track_assets</text>
</a>
</g>
</g>
<!-- node_System(SystemKey(14v1)) -->
<g id="node15" class="node">
<title>node_System(SystemKey(14v1))</title>
<g id="a_node15"><a xlink:title="bevy_asset::assets::Assets&lt;bevy_image::texture_atlas::TextureAtlasLayout&gt;::track_assets">
<polygon fill="#d1cbc5" stroke="#a3988c" points="819.12,-737 507.62,-737 507.62,-701 819.12,-701 819.12,-737"/>
<text xml:space="preserve" text-anchor="middle" x="663.38" y="-714.33" font-family="Helvetica,sans-Serif" font-size="14.00" fill="#1c1916">Assets&lt;TextureAtlasLayout&gt;::track_assets</text>
</a>
</g>
</g>
<!-- node_System(SystemKey(15v1)) -->
<g id="node16" class="node">
<title>node_System(SystemKey(15v1))</title>
<g id="a_node16"><a xlink:title="bevy_asset::assets::Assets&lt;bevy_shader::shader::Shader&gt;::track_assets">
<polygon fill="#d1cbc5" stroke="#a3988c" points="778.62,-784 548.12,-784 548.12,-748 778.62,-748 778.62,-784"/>
<text xml:space="preserve" text-anchor="middle" x="663.38" y="-761.33" font-family="Helvetica,sans-Serif" font-size="14.00" fill="#1c1916">Assets&lt;Shader&gt;::track_assets</text>
</a>
</g>
</g>
<!-- node_System(SystemKey(16v1)) -->
<g id="node17" class="node">
<title>node_System(SystemKey(16v1))</title>
<g id="a_node17"><a xlink:title="bevy_asset::assets::Assets&lt;bevy_render::storage::ShaderStorageBuffer&gt;::track_assets">
<polygon fill="#d1cbc5" stroke="#a3988c" points="827,-831 499.75,-831 499.75,-795 827,-795 827,-831"/>
<text xml:space="preserve" text-anchor="middle" x="663.38" y="-808.33" font-family="Helvetica,sans-Serif" font-size="14.00" fill="#1c1916">Assets&lt;ShaderStorageBuffer&gt;::track_assets</text>
</a>
</g>
</g>
<!-- node_System(SystemKey(17v1)) -->
<g id="node18" class="node">
<title>node_System(SystemKey(17v1))</title>
<g id="a_node18"><a xlink:title="bevy_asset::assets::Assets&lt;bevy_image::image::Image&gt;::track_assets">
<polygon fill="#d1cbc5" stroke="#a3988c" points="775.62,-878 551.12,-878 551.12,-842 775.62,-842 775.62,-878"/>
<text xml:space="preserve" text-anchor="middle" x="663.38" y="-855.33" font-family="Helvetica,sans-Serif" font-size="14.00" fill="#1c1916">Assets&lt;Image&gt;::track_assets</text>
</a>
</g>
</g>
<!-- node_System(SystemKey(18v1)) -->
<g id="node19" class="node">
<title>node_System(SystemKey(18v1))</title>
<g id="a_node19"><a xlink:title="bevy_asset::assets::Assets&lt;bevy_mesh::mesh::Mesh&gt;::track_assets">
<polygon fill="#d1cbc5" stroke="#a3988c" points="772.25,-925 554.5,-925 554.5,-889 772.25,-889 772.25,-925"/>
<text xml:space="preserve" text-anchor="middle" x="663.38" y="-902.33" font-family="Helvetica,sans-Serif" font-size="14.00" fill="#1c1916">Assets&lt;Mesh&gt;::track_assets</text>
</a>
</g>
</g>
<!-- node_System(SystemKey(19v1)) -->
<g id="node20" class="node">
<title>node_System(SystemKey(19v1))</title>
<g id="a_node20"><a xlink:title="bevy_asset::assets::Assets&lt;bevy_mesh::skinning::SkinnedMeshInverseBindposes&gt;::track_assets">
<polygon fill="#d1cbc5" stroke="#a3988c" points="862.25,-972 464.5,-972 464.5,-936 862.25,-936 862.25,-972"/>
<text xml:space="preserve" text-anchor="middle" x="663.38" y="-949.33" font-family="Helvetica,sans-Serif" font-size="14.00" fill="#1c1916">Assets&lt;SkinnedMeshInverseBindposes&gt;::track_assets</text>
</a>
</g>
</g>
<!-- node_System(SystemKey(21v1)) -->
<g id="node21" class="node">
<title>node_System(SystemKey(21v1))</title>
<g id="a_node21"><a xlink:title="bevy_asset::assets::Assets&lt;bevy_sprite_render::mesh2d::color_material::ColorMaterial&gt;::track_assets">
<polygon fill="#d1cbc5" stroke="#a3988c" points="799.62,-1019 527.12,-1019 527.12,-983 799.62,-983 799.62,-1019"/>
<text xml:space="preserve" text-anchor="middle" x="663.38" y="-996.33" font-family="Helvetica,sans-Serif" font-size="14.00" fill="#1c1916">Assets&lt;ColorMaterial&gt;::track_assets</text>
</a>
</g>
</g>
<!-- node_System(SystemKey(22v1)) -->
<g id="node22" class="node">
<title>node_System(SystemKey(22v1))</title>
<g id="a_node22"><a xlink:title="bevy_asset::assets::Assets&lt;bevy_sprite_render::tilemap_chunk::tilemap_chunk_material::TilemapChunkMaterial&gt;::track_assets">
<polygon fill="#d1cbc5" stroke="#a3988c" points="831.5,-1066 495.25,-1066 495.25,-1030 831.5,-1030 831.5,-1066"/>
<text xml:space="preserve" text-anchor="middle" x="663.38" y="-1043.33" font-family="Helvetica,sans-Serif" font-size="14.00" fill="#1c1916">Assets&lt;TilemapChunkMaterial&gt;::track_assets</text>
</a>
</g>
</g>
<!-- node_System(SystemKey(23v1)) -->
<g id="node23" class="node">
<title>node_System(SystemKey(23v1))</title>
<g id="a_node23"><a xlink:title="bevy_asset::assets::Assets&lt;bevy_text::font::Font&gt;::track_assets">
<polygon fill="#d1cbc5" stroke="#a3988c" points="768.88,-1113 557.88,-1113 557.88,-1077 768.88,-1077 768.88,-1113"/>
<text xml:space="preserve" text-anchor="middle" x="663.38" y="-1090.33" font-family="Helvetica,sans-Serif" font-size="14.00" fill="#1c1916">Assets&lt;Font&gt;::track_assets</text>
</a>
</g>
</g>
<!-- node_System(SystemKey(28v1)) -->
<g id="node24" class="node">
<title>node_System(SystemKey(28v1))</title>
<g id="a_node24"><a xlink:title="bevy_asset::assets::Assets&lt;bevy_pbr::pbr_material::StandardMaterial&gt;::track_assets">
<polygon fill="#d1cbc5" stroke="#a3988c" points="813.12,-1160 513.62,-1160 513.62,-1124 813.12,-1124 813.12,-1160"/>
<text xml:space="preserve" text-anchor="middle" x="663.38" y="-1137.33" font-family="Helvetica,sans-Serif" font-size="14.00" fill="#1c1916">Assets&lt;StandardMaterial&gt;::track_assets</text>
</a>
</g>
</g>
<!-- node_System(SystemKey(29v1)) -->
<g id="node25" class="node">
<title>node_System(SystemKey(29v1))</title>
<g id="a_node25"><a xlink:title="bevy_asset::assets::Assets&lt;bevy_pbr::extended_material::ExtendedMaterial&lt;bevy_pbr::pbr_material::StandardMaterial, bevy_pbr::decal::forward::ForwardDecalMaterialExt&gt;&gt;::track_assets">
<polygon fill="#d1cbc5" stroke="#a3988c" points="976.25,-1207 350.5,-1207 350.5,-1171 976.25,-1171 976.25,-1207"/>
<text xml:space="preserve" text-anchor="middle" x="663.38" y="-1184.33" font-family="Helvetica,sans-Serif" font-size="14.00" fill="#1c1916">Assets&lt;ExtendedMaterial&lt;StandardMaterial, ForwardDecalMaterialExt&gt;&gt;::track_assets</text>
</a>
</g>
</g>
<!-- node_System(SystemKey(30v1)) -->
<g id="node26" class="node">
<title>node_System(SystemKey(30v1))</title>
<g id="a_node26"><a xlink:title="bevy_asset::assets::Assets&lt;bevy_gltf::assets::Gltf&gt;::track_assets">
<polygon fill="#d1cbc5" stroke="#a3988c" points="766.25,-1254 560.5,-1254 560.5,-1218 766.25,-1218 766.25,-1254"/>
<text xml:space="preserve" text-anchor="middle" x="663.38" y="-1231.33" font-family="Helvetica,sans-Serif" font-size="14.00" fill="#1c1916">Assets&lt;Gltf&gt;::track_assets</text>
</a>
</g>
</g>
<!-- node_System(SystemKey(31v1)) -->
<g id="node27" class="node">
<title>node_System(SystemKey(31v1))</title>
<g id="a_node27"><a xlink:title="bevy_asset::assets::Assets&lt;bevy_gltf::assets::GltfNode&gt;::track_assets">
<polygon fill="#d1cbc5" stroke="#a3988c" points="784.25,-1301 542.5,-1301 542.5,-1265 784.25,-1265 784.25,-1301"/>
<text xml:space="preserve" text-anchor="middle" x="663.38" y="-1278.33" font-family="Helvetica,sans-Serif" font-size="14.00" fill="#1c1916">Assets&lt;GltfNode&gt;::track_assets</text>
</a>
</g>
</g>
<!-- node_System(SystemKey(32v1)) -->
<g id="node28" class="node">
<title>node_System(SystemKey(32v1))</title>
<g id="a_node28"><a xlink:title="bevy_asset::assets::Assets&lt;bevy_gltf::assets::GltfPrimitive&gt;::track_assets">
<polygon fill="#d1cbc5" stroke="#a3988c" points="796.62,-1348 530.12,-1348 530.12,-1312 796.62,-1312 796.62,-1348"/>
<text xml:space="preserve" text-anchor="middle" x="663.38" y="-1325.33" font-family="Helvetica,sans-Serif" font-size="14.00" fill="#1c1916">Assets&lt;GltfPrimitive&gt;::track_assets</text>
</a>
</g>
</g>
<!-- node_System(SystemKey(33v1)) -->
<g id="node29" class="node">
<title>node_System(SystemKey(33v1))</title>
<g id="a_node29"><a xlink:title="bevy_asset::assets::Assets&lt;bevy_gltf::assets::GltfMesh&gt;::track_assets">
<polygon fill="#d1cbc5" stroke="#a3988c" points="784.62,-1395 542.12,-1395 542.12,-1359 784.62,-1359 784.62,-1395"/>
<text xml:space="preserve" text-anchor="middle" x="663.38" y="-1372.33" font-family="Helvetica,sans-Serif" font-size="14.00" fill="#1c1916">Assets&lt;GltfMesh&gt;::track_assets</text>
</a>
</g>
</g>
<!-- node_System(SystemKey(34v1)) -->
<g id="node30" class="node">
<title>node_System(SystemKey(34v1))</title>
<g id="a_node30"><a xlink:title="bevy_asset::assets::Assets&lt;bevy_gltf::assets::GltfSkin&gt;::track_assets">
<polygon fill="#d1cbc5" stroke="#a3988c" points="781.25,-1442 545.5,-1442 545.5,-1406 781.25,-1406 781.25,-1442"/>
<text xml:space="preserve" text-anchor="middle" x="663.38" y="-1419.33" font-family="Helvetica,sans-Serif" font-size="14.00" fill="#1c1916">Assets&lt;GltfSkin&gt;::track_assets</text>
</a>
</g>
</g>
<!-- node_System(SystemKey(35v1)) -->
<g id="node31" class="node">
<title>node_System(SystemKey(35v1))</title>
<g id="a_node31"><a xlink:title="bevy_asset::assets::Assets&lt;bevy_audio::audio_source::AudioSource&gt;::track_assets">
<polygon fill="#d1cbc5" stroke="#a3988c" points="797.38,-1489 529.38,-1489 529.38,-1453 797.38,-1453 797.38,-1489"/>
<text xml:space="preserve" text-anchor="middle" x="663.38" y="-1466.33" font-family="Helvetica,sans-Serif" font-size="14.00" fill="#1c1916">Assets&lt;AudioSource&gt;::track_assets</text>
</a>
</g>
</g>
<!-- node_System(SystemKey(36v1)) -->
<g id="node32" class="node">
<title>node_System(SystemKey(36v1))</title>
<g id="a_node32"><a xlink:title="bevy_asset::assets::Assets&lt;bevy_audio::pitch::Pitch&gt;::track_assets">
<polygon fill="#d1cbc5" stroke="#a3988c" points="770.75,-1536 556,-1536 556,-1500 770.75,-1500 770.75,-1536"/>
<text xml:space="preserve" text-anchor="middle" x="663.38" y="-1513.33" font-family="Helvetica,sans-Serif" font-size="14.00" fill="#1c1916">Assets&lt;Pitch&gt;::track_assets</text>
</a>
</g>
</g>
<!-- node_System(SystemKey(38v1)) -->
<g id="node33" class="node">
<title>node_System(SystemKey(38v1))</title>
<g id="a_node33"><a xlink:title="bevy_asset::assets::Assets&lt;bevy_animation::AnimationClip&gt;::track_assets">
<polygon fill="#d1cbc5" stroke="#a3988c" points="802.25,-1583 524.5,-1583 524.5,-1547 802.25,-1547 802.25,-1583"/>
<text xml:space="preserve" text-anchor="middle" x="663.38" y="-1560.33" font-family="Helvetica,sans-Serif" font-size="14.00" fill="#1c1916">Assets&lt;AnimationClip&gt;::track_assets</text>
</a>
</g>
</g>
<!-- node_System(SystemKey(39v1)) -->
<g id="node34" class="node">
<title>node_System(SystemKey(39v1))</title>
<g id="a_node34"><a xlink:title="bevy_asset::assets::Assets&lt;bevy_animation::graph::AnimationGraph&gt;::track_assets">
<polygon fill="#d1cbc5" stroke="#a3988c" points="810.5,-1630 516.25,-1630 516.25,-1594 810.5,-1594 810.5,-1630"/>
<text xml:space="preserve" text-anchor="middle" x="663.38" y="-1607.33" font-family="Helvetica,sans-Serif" font-size="14.00" fill="#1c1916">Assets&lt;AnimationGraph&gt;::track_assets</text>
</a>
</g>
</g>
<!-- node_System(SystemKey(40v1)) -->
<g id="node35" class="node">
<title>node_System(SystemKey(40v1))</title>
<g id="a_node35"><a xlink:title="bevy_asset::assets::Assets&lt;bevy_gizmos::GizmoAsset&gt;::track_assets">
<polygon fill="#d1cbc5" stroke="#a3988c" points="794.75,-1677 532,-1677 532,-1641 794.75,-1641 794.75,-1677"/>
<text xml:space="preserve" text-anchor="middle" x="663.38" y="-1654.33" font-family="Helvetica,sans-Serif" font-size="14.00" fill="#1c1916">Assets&lt;GizmoAsset&gt;::track_assets</text>
</a>
</g>
</g>
<!-- set_marker_node_Set(SystemSetKey(23v1)) -->
<!-- set_marker_node_Set(SystemSetKey(50v1)) -->
<!-- set_marker_node_Set(SystemSetKey(23v1))&#45;&gt;set_marker_node_Set(SystemSetKey(50v1)) -->
<g id="edge5" class="edge">
<title>set_marker_node_Set(SystemSetKey(23v1))&#45;&gt;set_marker_node_Set(SystemSetKey(50v1))</title>
<g id="a_edge5"><a xlink:title="Backend → Hover">
<path fill="none" stroke="#44d488" stroke-width="2" d="M749.5,-1728C832.84,-1728 959.68,-1728 1046.94,-1728"/>
<polygon fill="#44d488" stroke="#44d488" stroke-width="2" points="1046.73,-1731.5 1056.73,-1728 1046.73,-1724.5 1046.73,-1731.5"/>
</a>
</g>
</g>
<!-- node_System(SystemKey(20v1)) -->
<g id="node37" class="node">
<title>node_System(SystemKey(20v1))</title>
<g id="a_node37"><a xlink:title="bevy_sprite::picking_backend::sprite_picking">
<polygon fill="#eff1f3" stroke="#b4bec7" points="719.75,-1777 607,-1777 607,-1741 719.75,-1741 719.75,-1777"/>
<text xml:space="preserve" text-anchor="middle" x="663.38" y="-1754.33" font-family="Helvetica,sans-Serif" font-size="14.00" fill="#15191d">sprite_picking</text>
</a>
</g>
</g>
<!-- node_System(SystemKey(25v1)) -->
<g id="node38" class="node">
<title>node_System(SystemKey(25v1))</title>
<g id="a_node38"><a xlink:title="bevy_ui::picking_backend::ui_picking">
<polygon fill="#ffb1e5" stroke="#ff4bc2" points="706.25,-1824 620.5,-1824 620.5,-1788 706.25,-1788 706.25,-1824"/>
<text xml:space="preserve" text-anchor="middle" x="663.38" y="-1801.33" font-family="Helvetica,sans-Serif" font-size="14.00" fill="#320021">ui_picking</text>
</a>
</g>
</g>
<!-- node_System(SystemKey(44v1)) -->
<g id="node39" class="node">
<title>node_System(SystemKey(44v1))</title>
<g id="a_node39"><a xlink:title="bevy_picking::window::update_window_hits">
<polygon fill="#eff1f3" stroke="#b4bec7" points="741.5,-1871 585.25,-1871 585.25,-1835 741.5,-1835 741.5,-1871"/>
<text xml:space="preserve" text-anchor="middle" x="663.38" y="-1848.33" font-family="Helvetica,sans-Serif" font-size="14.00" fill="#15191d">update_window_hits</text>
</a>
</g>
</g>
<!-- set_marker_node_Set(SystemSetKey(28v1)) -->
<!-- set_marker_node_Set(SystemSetKey(46v1)) -->
<!-- set_marker_node_Set(SystemSetKey(46v1))&#45;&gt;set_marker_node_Set(SystemSetKey(23v1)) -->
<g id="edge10" class="edge">
<title>set_marker_node_Set(SystemSetKey(46v1))&#45;&gt;set_marker_node_Set(SystemSetKey(23v1))</title>
<g id="a_edge10"><a xlink:title="ProcessInput → Backend">
<path fill="none" stroke="#22c2bb" stroke-width="2" d="M164.13,-1912C184.08,-1879.18 252.96,-1774.66 342.5,-1736 380.97,-1719.39 485.18,-1719.58 564.29,-1722.54"/>
<polygon fill="#22c2bb" stroke="#22c2bb" stroke-width="2" points="564.1,-1726.03 574.23,-1722.93 564.38,-1719.04 564.1,-1726.03"/>
</a>
</g>
</g>
<!-- node_System(SystemKey(41v1)) -->
<g id="node43" class="node">
<title>node_System(SystemKey(41v1))</title>
<g id="a_node43"><a xlink:title="bevy_picking::pointer::update_pointer_map">
<polygon fill="#eff1f3" stroke="#b4bec7" points="236.5,-1971 78,-1971 78,-1935 236.5,-1935 236.5,-1971"/>
<text xml:space="preserve" text-anchor="middle" x="157.25" y="-1948.33" font-family="Helvetica,sans-Serif" font-size="14.00" fill="#15191d">update_pointer_map</text>
</a>
</g>
</g>
<!-- node_System(SystemKey(42v1)) -->
<g id="node44" class="node">
<title>node_System(SystemKey(42v1))</title>
<g id="a_node44"><a xlink:title="bevy_picking::pointer::PointerInput::receive">
<polygon fill="#eff1f3" stroke="#b4bec7" points="237.25,-2018 77.25,-2018 77.25,-1982 237.25,-1982 237.25,-2018"/>
<text xml:space="preserve" text-anchor="middle" x="157.25" y="-1995.33" font-family="Helvetica,sans-Serif" font-size="14.00" fill="#15191d">PointerInput::receive</text>
</a>
</g>
</g>
<!-- node_System(SystemKey(43v1)) -->
<g id="node45" class="node">
<title>node_System(SystemKey(43v1))</title>
<g id="a_node45"><a xlink:title="bevy_picking::backend::ray::RayMap::repopulate">
<polygon fill="#eff1f3" stroke="#b4bec7" points="740.75,-2018 586,-2018 586,-1982 740.75,-1982 740.75,-2018"/>
<text xml:space="preserve" text-anchor="middle" x="663.38" y="-1995.33" font-family="Helvetica,sans-Serif" font-size="14.00" fill="#15191d">RayMap::repopulate</text>
</a>
</g>
</g>
<!-- node_System(SystemKey(42v1))&#45;&gt;node_System(SystemKey(43v1)) -->
<g id="edge13" class="edge">
<title>node_System(SystemKey(42v1))&#45;&gt;node_System(SystemKey(43v1))</title>
<g id="a_edge13"><a xlink:title="SystemTypeSet(fn bevy_ecs::system::function_system::FunctionSystem&lt;fn(bevy_ecs::message::message_reader::MessageReader&lt;&#39;_, &#39;_, bevy_picking::pointer::PointerInput&gt;, bevy_ecs::system::query::Query&lt;&#39;_, &#39;_, (&amp;bevy_picking::pointer::PointerId, &amp;mut bevy_picking::pointer::PointerLocation, &amp;mut bevy_picking::pointer::PointerPress)&gt;), (), bevy_picking::pointer::PointerInput::receive&gt;()) → RayMap::repopulate">
<path fill="none" stroke="#881877" stroke-width="2" d="M237.57,-2000C328.63,-2000 477.65,-2000 572.81,-2000"/>
<polygon fill="#881877" stroke="#881877" stroke-width="2" points="572.55,-2003.5 582.55,-2000 572.55,-1996.5 572.55,-2003.5"/>
</a>
</g>
</g>
<!-- set_marker_node_Set(SystemSetKey(51v1)) -->
<!-- set_marker_node_Set(SystemSetKey(50v1))&#45;&gt;set_marker_node_Set(SystemSetKey(51v1)) -->
<g id="edge2" class="edge">
<title>set_marker_node_Set(SystemSetKey(50v1))&#45;&gt;set_marker_node_Set(SystemSetKey(51v1))</title>
<g id="a_edge2"><a xlink:title="Hover → PostHover">
<path fill="none" stroke="#881877" stroke-width="2" d="M1192.06,-1718C1232.77,-1709.14 1292.27,-1696.19 1335.33,-1686.82"/>
<polygon fill="#881877" stroke="#881877" stroke-width="2" points="1335.89,-1690.28 1344.92,-1684.73 1334.41,-1683.44 1335.89,-1690.28"/>
</a>
</g>
</g>
<!-- node_System(SystemKey(45v1)) -->
<g id="node47" class="node">
<title>node_System(SystemKey(45v1))</title>
<g id="a_node47"><a xlink:title="bevy_picking::hover::generate_hovermap">
<polygon fill="#eff1f3" stroke="#b4bec7" points="1222.5,-1793 1067.75,-1793 1067.75,-1757 1222.5,-1757 1222.5,-1793"/>
<text xml:space="preserve" text-anchor="middle" x="1145.12" y="-1770.33" font-family="Helvetica,sans-Serif" font-size="14.00" fill="#15191d">generate_hovermap</text>
</a>
</g>
</g>
<!-- node_System(SystemKey(46v1)) -->
<g id="node48" class="node">
<title>node_System(SystemKey(46v1))</title>
<g id="a_node48"><a xlink:title="bevy_picking::hover::update_interactions">
<polygon fill="#eff1f3" stroke="#b4bec7" points="1467.25,-1793 1314,-1793 1314,-1757 1467.25,-1757 1467.25,-1793"/>
<text xml:space="preserve" text-anchor="middle" x="1390.62" y="-1770.33" font-family="Helvetica,sans-Serif" font-size="14.00" fill="#15191d">update_interactions</text>
</a>
</g>
</g>
<!-- node_System(SystemKey(45v1))&#45;&gt;node_System(SystemKey(46v1)) -->
<g id="edge6" class="edge">
<title>node_System(SystemKey(45v1))&#45;&gt;node_System(SystemKey(46v1))</title>
<g id="a_edge6"><a xlink:title="generate_hovermap → update_interactions">
<path fill="none" stroke="#0090cc" stroke-width="2" d="M1222.84,-1775C1247.64,-1775 1275.35,-1775 1300.95,-1775"/>
<polygon fill="#0090cc" stroke="#0090cc" stroke-width="2" points="1300.69,-1778.5 1310.69,-1775 1300.69,-1771.5 1300.69,-1778.5"/>
</a>
</g>
</g>
<!-- node_System(SystemKey(47v1)) -->
<g id="node49" class="node">
<title>node_System(SystemKey(47v1))</title>
<g id="a_node49"><a xlink:title="bevy_picking::hover::update_is_hovered">
<polygon fill="#eff1f3" stroke="#b4bec7" points="1677.88,-1762 1532.12,-1762 1532.12,-1726 1677.88,-1726 1677.88,-1762"/>
<text xml:space="preserve" text-anchor="middle" x="1605" y="-1739.33" font-family="Helvetica,sans-Serif" font-size="14.00" fill="#15191d">update_is_hovered</text>
</a>
</g>
</g>
<!-- node_System(SystemKey(46v1))&#45;&gt;node_System(SystemKey(47v1)) -->
<g id="edge7" class="edge">
<title>node_System(SystemKey(46v1))&#45;&gt;node_System(SystemKey(47v1))</title>
<g id="a_edge7"><a xlink:title="update_interactions → update_is_hovered">
<path fill="none" stroke="#ee9e44" stroke-width="2" d="M1467.7,-1763.9C1484.3,-1761.47 1501.96,-1758.89 1518.89,-1756.42"/>
<polygon fill="#ee9e44" stroke="#ee9e44" stroke-width="2" points="1519.27,-1759.91 1528.66,-1755 1518.26,-1752.98 1519.27,-1759.91"/>
</a>
</g>
</g>
<!-- node_System(SystemKey(48v1)) -->
<g id="node50" class="node">
<title>node_System(SystemKey(48v1))</title>
<g id="a_node50"><a xlink:title="bevy_picking::hover::update_is_directly_hovered">
<polygon fill="#eff1f3" stroke="#b4bec7" points="1706.75,-1809 1503.25,-1809 1503.25,-1773 1706.75,-1773 1706.75,-1809"/>
<text xml:space="preserve" text-anchor="middle" x="1605" y="-1786.33" font-family="Helvetica,sans-Serif" font-size="14.00" fill="#15191d">update_is_directly_hovered</text>
</a>
</g>
</g>
<!-- node_System(SystemKey(46v1))&#45;&gt;node_System(SystemKey(48v1)) -->
<g id="edge9" class="edge">
<title>node_System(SystemKey(46v1))&#45;&gt;node_System(SystemKey(48v1))</title>
<g id="a_edge9"><a xlink:title="update_interactions → update_is_directly_hovered">
<path fill="none" stroke="#3363bb" stroke-width="2" d="M1467.7,-1780.73C1475.02,-1781.28 1482.55,-1781.85 1490.13,-1782.42"/>
<polygon fill="#3363bb" stroke="#3363bb" stroke-width="2" points="1489.65,-1785.9 1499.89,-1783.16 1490.18,-1778.91 1489.65,-1785.9"/>
</a>
</g>
</g>
<!-- node_System(SystemKey(49v1)) -->
<g id="node51" class="node">
<title>node_System(SystemKey(49v1))</title>
<g id="a_node51"><a xlink:title="bevy_picking::events::pointer_events">
<polygon fill="#eff1f3" stroke="#b4bec7" points="1861.5,-1785 1742.75,-1785 1742.75,-1749 1861.5,-1749 1861.5,-1785"/>
<text xml:space="preserve" text-anchor="middle" x="1802.12" y="-1762.33" font-family="Helvetica,sans-Serif" font-size="14.00" fill="#15191d">pointer_events</text>
</a>
</g>
</g>
<!-- node_System(SystemKey(47v1))&#45;&gt;node_System(SystemKey(49v1)) -->
<g id="edge12" class="edge">
<title>node_System(SystemKey(47v1))&#45;&gt;node_System(SystemKey(49v1))</title>
<g id="a_edge12"><a xlink:title="update_is_hovered → pointer_events">
<path fill="none" stroke="#eede00" stroke-width="2" d="M1678.1,-1752.5C1694.97,-1754.49 1712.93,-1756.6 1729.77,-1758.59"/>
<polygon fill="#eede00" stroke="#eede00" stroke-width="2" points="1729.04,-1762.03 1739.38,-1759.72 1729.86,-1755.08 1729.04,-1762.03"/>
</a>
</g>
</g>
<!-- node_System(SystemKey(48v1))&#45;&gt;node_System(SystemKey(49v1)) -->
<g id="edge8" class="edge">
<title>node_System(SystemKey(48v1))&#45;&gt;node_System(SystemKey(49v1))</title>
<g id="a_edge8"><a xlink:title="update_is_directly_hovered → pointer_events">
<path fill="none" stroke="#663699" stroke-width="2" d="M1706.99,-1778.58C1714.55,-1777.65 1722.08,-1776.72 1729.39,-1775.82"/>
<polygon fill="#663699" stroke="#663699" stroke-width="2" points="1729.8,-1779.3 1739.3,-1774.6 1728.95,-1772.35 1729.8,-1779.3"/>
</a>
</g>
</g>
<!-- set_marker_node_Set(SystemSetKey(52v1)) -->
<!-- set_marker_node_Set(SystemSetKey(51v1))&#45;&gt;set_marker_node_Set(SystemSetKey(52v1)) -->
<g id="edge11" class="edge">
<title>set_marker_node_Set(SystemSetKey(51v1))&#45;&gt;set_marker_node_Set(SystemSetKey(52v1))</title>
<g id="a_edge11"><a xlink:title="PostHover → Last">
<path fill="none" stroke="#99d955" stroke-width="2" d="M1434.37,-1675C1474.45,-1675 1533.57,-1675 1570.38,-1675"/>
<polygon fill="#99d955" stroke="#99d955" stroke-width="2" points="1570.22,-1678.5 1580.22,-1675 1570.22,-1671.5 1570.22,-1678.5"/>
</a>
</g>
</g>
<!-- node_System(SystemKey(11v1)) -->
<g id="node54" class="node">
<title>node_System(SystemKey(11v1))</title>
<g id="a_node54"><a xlink:title="bevy_asset::server::handle_internal_asset_events">
<polygon fill="lightgrey" stroke="black" points="269.88,-471 44.62,-471 44.62,-435 269.88,-435 269.88,-471"/>
<text xml:space="preserve" text-anchor="middle" x="157.25" y="-448.32" font-family="Times,serif" font-size="14.00">handle_internal_asset_events</text>
</a>
</g>
</g>
<!-- node_System(SystemKey(11v1))&#45;&gt;set_marker_node_Set(SystemSetKey(10v1)) -->
<g id="edge4" class="edge">
<title>node_System(SystemKey(11v1))&#45;&gt;set_marker_node_Set(SystemSetKey(10v1))</title>
<g id="a_edge4"><a xlink:title="SystemTypeSet(fn bevy_ecs::system::exclusive_function_system::ExclusiveFunctionSystem&lt;fn(), (), bevy_asset::server::handle_internal_asset_events&gt;()) → AssetTrackingSystems">
<path fill="none" stroke="#aa3a55" stroke-width="2" d="M270.13,-453C288.73,-453 308.82,-453 329.74,-453"/>
<polygon fill="#aa3a55" stroke="#aa3a55" stroke-width="2" points="329.48,-456.5 339.48,-453 329.48,-449.5 329.48,-456.5"/>
</a>
</g>
</g>
<!-- node_System(SystemKey(26v1)) -->
<g id="node55" class="node">
<title>node_System(SystemKey(26v1))</title>
<g id="a_node55"><a xlink:title="bevy_pbr::prepass::update_mesh_previous_global_transforms">
<polygon fill="lightgrey" stroke="black" points="314.5,-2095 0,-2095 0,-2059 314.5,-2059 314.5,-2095"/>
<text xml:space="preserve" text-anchor="middle" x="157.25" y="-2072.32" font-family="Times,serif" font-size="14.00">update_mesh_previous_global_transforms</text>
</a>
</g>
</g>
<!-- node_System(SystemKey(27v1)) -->
<g id="node56" class="node">
<title>node_System(SystemKey(27v1))</title>
<g id="a_node56"><a xlink:title="bevy_pbr::prepass::update_previous_view_data">
<polygon fill="lightgrey" stroke="black" points="263.12,-2142 51.38,-2142 51.38,-2106 263.12,-2106 263.12,-2142"/>
<text xml:space="preserve" text-anchor="middle" x="157.25" y="-2119.32" font-family="Times,serif" font-size="14.00">update_previous_view_data</text>
</a>
</g>
</g>
<!-- node_System(SystemKey(37v1)) -->
<g id="node57" class="node">
<title>node_System(SystemKey(37v1))</title>
<g id="a_node57"><a xlink:title="bevy_gilrs::gilrs_system::gilrs_event_system">
<polygon fill="lightgrey" stroke="black" points="233.5,-136 81,-136 81,-100 233.5,-100 233.5,-136"/>
<text xml:space="preserve" text-anchor="middle" x="157.25" y="-113.33" font-family="Times,serif" font-size="14.00">gilrs_event_system</text>
</a>
</g>
</g>
<!-- node_System(SystemKey(37v1))&#45;&gt;set_marker_node_Set(SystemSetKey(2v1)) -->
<g id="edge1" class="edge">
<title>node_System(SystemKey(37v1))&#45;&gt;set_marker_node_Set(SystemSetKey(2v1))</title>
<g id="a_edge1"><a xlink:title="gilrs_event_system → InputSystems">
<path fill="none" stroke="#eede00" stroke-width="2" d="M234,-118C307.27,-118 420.38,-118 511.98,-118"/>
<polygon fill="#eede00" stroke="#eede00" stroke-width="2" points="511.73,-121.5 521.73,-118 511.73,-114.5 511.73,-121.5"/>
</a>
</g>
</g>
<!-- node_System(SystemKey(50v1)) -->
<g id="node58" class="node">
<title>node_System(SystemKey(50v1))</title>
<g id="a_node58"><a xlink:title="bevy_ecs::apply_deferred">
<polygon fill="lightgrey" stroke="black" points="218.88,-2189 95.62,-2189 95.62,-2153 218.88,-2153 218.88,-2189"/>
<text xml:space="preserve" text-anchor="middle" x="157.25" y="-2166.32" font-family="Times,serif" font-size="14.00">apply_deferred</text>
</a>
</g>
</g>
<!-- node_System(SystemKey(51v1)) -->
<g id="node59" class="node">
<title>node_System(SystemKey(51v1))</title>
<g id="a_node59"><a xlink:title="bevy_ecs::apply_deferred">
<polygon fill="lightgrey" stroke="black" points="218.88,-2236 95.62,-2236 95.62,-2200 218.88,-2200 218.88,-2236"/>
<text xml:space="preserve" text-anchor="middle" x="157.25" y="-2213.32" font-family="Times,serif" font-size="14.00">apply_deferred</text>
</a>
</g>
</g>
</g>
</svg>
