<?xml version="1.0" encoding="UTF-8" standalone="no"?>
<!DOCTYPE svg PUBLIC "-//W3C//DTD SVG 1.1//EN"
 "http://www.w3.org/Graphics/SVG/1.1/DTD/svg11.dtd">
<!-- Generated by graphviz version 12.2.1 (0)
 -->
<!-- Pages: 1 -->
<svg width="668pt" height="216pt"
 viewBox="0.00 0.00 667.75 216.00" xmlns="http://www.w3.org/2000/svg" xmlns:xlink="http://www.w3.org/1999/xlink">
<g id="graph0" class="graph" transform="scale(1 1) rotate(0) translate(4 212)">
<polygon fill="#0d1117" stroke="none" points="-4,4 -4,-212 663.75,-212 663.75,4 -4,4"/>
<g id="clust1" class="cluster">
<title>clusternode_Set(1)</title>
<g id="a_clust1"><a xlink:title="TransformPropagate">
<path fill="#ffffff" fill-opacity="0.266667" stroke="#ffffff" stroke-width="2" stroke-opacity="0.313725" d="M23.38,-8C23.38,-8 639.75,-8 639.75,-8 645.75,-8 651.75,-14 651.75,-20 651.75,-20 651.75,-88 651.75,-88 651.75,-94 645.75,-100 639.75,-100 639.75,-100 23.38,-100 23.38,-100 17.38,-100 11.38,-94 11.38,-88 11.38,-88 11.38,-20 11.38,-20 11.38,-14 17.38,-8 23.38,-8"/>
<text text-anchor="middle" x="331.56" y="-82.7" font-family="Helvetica,sans-Serif" font-size="14.00" fill="#ffffff">TransformPropagate</text>
</a>
</g>
</g>
<g id="clust2" class="cluster">
<title>clusternode_Set(5)</title>
<g id="a_clust2"><a xlink:title="CameraUpdateSystem">
<path fill="#ffffff" fill-opacity="0.266667" stroke="#ffffff" stroke-width="2" stroke-opacity="0.313725" d="M12,-108C12,-108 160,-108 160,-108 166,-108 172,-114 172,-120 172,-120 172,-188 172,-188 172,-194 166,-200 160,-200 160,-200 12,-200 12,-200 6,-200 0,-194 0,-188 0,-188 0,-120 0,-120 0,-114 6,-108 12,-108"/>
<text text-anchor="middle" x="86" y="-182.7" font-family="Helvetica,sans-Serif" font-size="14.00" fill="#ffffff">CameraUpdateSystem</text>
</a>
</g>
</g>
<!-- set_marker_node_Set(1) -->
<!-- node_System(0) -->
<g id="node2" class="node">
<title>node_System(0)</title>
<g id="a_node2"><a xlink:title="bevy_transform::systems::mark_dirty_trees">
<polygon fill="#ffe7b9" stroke="#ffc453" points="151.62,-67 19.38,-67 19.38,-31 151.62,-31 151.62,-67"/>
<text text-anchor="middle" x="85.5" y="-44.33" font-family="Helvetica,sans-Serif" font-size="14.00" fill="#322100">mark_dirty_trees</text>
</a>
</g>
</g>
<!-- node_System(1) -->
<g id="node3" class="node">
<title>node_System(1)</title>
<g id="a_node3"><a xlink:title="bevy_transform::systems::parallel::propagate_parent_transforms">
<polygon fill="#ffe7b9" stroke="#ffc453" points="424.5,-67 203.75,-67 203.75,-31 424.5,-31 424.5,-67"/>
<text text-anchor="middle" x="314.12" y="-44.33" font-family="Helvetica,sans-Serif" font-size="14.00" fill="#322100">propagate_parent_transforms</text>
</a>
</g>
</g>
<!-- node_System(0)&#45;&gt;node_System(1) -->
<g id="edge2" class="edge">
<title>node_System(0)&#45;&gt;node_System(1)</title>
<g id="a_edge2"><a xlink:title="mark_dirty_trees → propagate_parent_transforms">
<path fill="none" stroke="#881877" stroke-width="2" d="M152.05,-49C164.23,-49 177.32,-49 190.58,-49"/>
<polygon fill="#881877" stroke="#881877" stroke-width="2" points="190.29,-52.5 200.29,-49 190.29,-45.5 190.29,-52.5"/>
</a>
</g>
</g>
<!-- node_System(2) -->
<g id="node4" class="node">
<title>node_System(2)</title>
<g id="a_node4"><a xlink:title="bevy_transform::systems::sync_simple_transforms">
<polygon fill="#ffe7b9" stroke="#ffc453" points="643.75,-67 460.5,-67 460.5,-31 643.75,-31 643.75,-67"/>
<text text-anchor="middle" x="552.12" y="-44.33" font-family="Helvetica,sans-Serif" font-size="14.00" fill="#322100">sync_simple_transforms</text>
</a>
</g>
</g>
<!-- node_System(1)&#45;&gt;node_System(2) -->
<g id="edge1" class="edge">
<title>node_System(1)&#45;&gt;node_System(2)</title>
<g id="a_edge1"><a xlink:title="propagate_parent_transforms → sync_simple_transforms">
<path fill="none" stroke="#eede00" stroke-width="2" d="M424.83,-49C432.3,-49 439.81,-49 447.24,-49"/>
<polygon fill="#eede00" stroke="#eede00" stroke-width="2" points="447.05,-52.5 457.05,-49 447.05,-45.5 447.05,-52.5"/>
</a>
</g>
</g>
<!-- set_marker_node_Set(5) -->
<!-- node_System(3) -->
<g id="node6" class="node">
<title>node_System(3)</title>
<g id="a_node6"><a xlink:title="bevy_render::camera::camera::camera_system">
<polygon fill="#70b9fc" stroke="#0c88f9" points="147.88,-167 23.13,-167 23.13,-131 147.88,-131 147.88,-167"/>
<text text-anchor="middle" x="85.5" y="-144.32" font-family="Helvetica,sans-Serif" font-size="14.00" fill="#011a31">camera_system</text>
</a>
</g>
</g>
</g>
</svg>
