<?xml version="1.0" encoding="UTF-8" standalone="no"?>
<!DOCTYPE svg PUBLIC "-//W3C//DTD SVG 1.1//EN"
 "http://www.w3.org/Graphics/SVG/1.1/DTD/svg11.dtd">
<!-- Generated by graphviz version 8.0.1 (0)
 -->
<!-- Pages: 1 -->
<svg width="1404pt" height="439pt"
 viewBox="0.00 0.00 1404.00 439.00" xmlns="http://www.w3.org/2000/svg" xmlns:xlink="http://www.w3.org/1999/xlink">
<g id="graph0" class="graph" transform="scale(1 1) rotate(0) translate(4 435)">
<polygon fill="#0d1117" stroke="none" points="-4,4 -4,-435 1400,-435 1400,4 -4,4"/>
<g id="clust1" class="cluster">
<title>clusternode_Set(0)</title>
<g id="a_clust1"><a xlink:title="Startup">
<path fill="#ffffff" fill-opacity="0.266667" stroke="#ffffff" stroke-width="2" stroke-opacity="0.313725" d="M581,-55C581,-55 687,-55 687,-55 693,-55 699,-61 699,-67 699,-67 699,-129 699,-129 699,-135 693,-141 687,-141 687,-141 581,-141 581,-141 575,-141 569,-135 569,-129 569,-129 569,-67 569,-67 569,-61 575,-55 581,-55"/>
<text text-anchor="middle" x="634" y="-125.8" font-family="Helvetica,sans-Serif" font-size="14.00">Startup</text>
</a>
</g>
</g>
<g id="clust2" class="cluster">
<title>clusternode_Set(2)</title>
<g id="a_clust2"><a xlink:title="PreStartupFlush">
<path fill="#ffffff" fill-opacity="0.266667" stroke="#ffffff" stroke-width="2" stroke-opacity="0.313725" d="M308,-55C308,-55 447,-55 447,-55 453,-55 459,-61 459,-67 459,-67 459,-129 459,-129 459,-135 453,-141 447,-141 447,-141 308,-141 308,-141 302,-141 296,-135 296,-129 296,-129 296,-67 296,-67 296,-61 302,-55 308,-55"/>
<text text-anchor="middle" x="377.5" y="-125.8" font-family="Helvetica,sans-Serif" font-size="14.00">PreStartupFlush</text>
</a>
</g>
</g>
<g id="clust3" class="cluster">
<title>clusternode_Set(3)</title>
<g id="a_clust3"><a xlink:title="StartupFlush">
<path fill="#ffffff" fill-opacity="0.266667" stroke="#ffffff" stroke-width="2" stroke-opacity="0.313725" d="M750,-55C750,-55 889,-55 889,-55 895,-55 901,-61 901,-67 901,-67 901,-129 901,-129 901,-135 895,-141 889,-141 889,-141 750,-141 750,-141 744,-141 738,-135 738,-129 738,-129 738,-67 738,-67 738,-61 744,-55 750,-55"/>
<text text-anchor="middle" x="819.5" y="-125.8" font-family="Helvetica,sans-Serif" font-size="14.00">StartupFlush</text>
</a>
</g>
</g>
<g id="clust4" class="cluster">
<title>clusternode_Set(4)</title>
<g id="a_clust4"><a xlink:title="PostStartupFlush">
<path fill="#ffffff" fill-opacity="0.266667" stroke="#ffffff" stroke-width="2" stroke-opacity="0.313725" d="M1237,-55C1237,-55 1376,-55 1376,-55 1382,-55 1388,-61 1388,-67 1388,-67 1388,-129 1388,-129 1388,-135 1382,-141 1376,-141 1376,-141 1237,-141 1237,-141 1231,-141 1225,-135 1225,-129 1225,-129 1225,-67 1225,-67 1225,-61 1231,-55 1237,-55"/>
<text text-anchor="middle" x="1306.5" y="-125.8" font-family="Helvetica,sans-Serif" font-size="14.00">PostStartupFlush</text>
</a>
</g>
</g>
<g id="clust5" class="cluster">
<title>clusternode_Set(5)</title>
<g id="a_clust5"><a xlink:title="PreStartup">
<path fill="#ffffff" fill-opacity="0.266667" stroke="#ffffff" stroke-width="2" stroke-opacity="0.313725" d="M20,-55C20,-55 193,-55 193,-55 199,-55 205,-61 205,-67 205,-67 205,-129 205,-129 205,-135 199,-141 193,-141 193,-141 20,-141 20,-141 14,-141 8,-135 8,-129 8,-129 8,-67 8,-67 8,-61 14,-55 20,-55"/>
<text text-anchor="middle" x="106.5" y="-125.8" font-family="Helvetica,sans-Serif" font-size="14.00">PreStartup</text>
</a>
</g>
</g>
<g id="clust6" class="cluster">
<title>clusternode_Set(6)</title>
<g id="a_clust6"><a xlink:title="PostStartup">
<path fill="#ffffff" fill-opacity="0.266667" stroke="#ffffff" stroke-width="2" stroke-opacity="0.313725" d="M925,-102C925,-102 1201,-102 1201,-102 1207,-102 1213,-108 1213,-114 1213,-114 1213,-411 1213,-411 1213,-417 1207,-423 1201,-423 1201,-423 925,-423 925,-423 919,-423 913,-417 913,-411 913,-411 913,-114 913,-114 913,-108 919,-102 925,-102"/>
<text text-anchor="middle" x="1063" y="-407.8" font-family="Helvetica,sans-Serif" font-size="14.00">PostStartup</text>
</a>
</g>
</g>
<g id="clust7" class="cluster">
<title>clusternode_Set(7)</title>
<g id="a_clust7"><a xlink:title="TransformPropagate">
<path fill="#ffffff" fill-opacity="0.266667" stroke="#ffffff" stroke-width="2" stroke-opacity="0.313725" d="M986,-306C986,-306 1140,-306 1140,-306 1146,-306 1152,-312 1152,-318 1152,-318 1152,-380 1152,-380 1152,-386 1146,-392 1140,-392 1140,-392 986,-392 986,-392 980,-392 974,-386 974,-380 974,-380 974,-318 974,-318 974,-312 980,-306 986,-306"/>
<text text-anchor="middle" x="1063" y="-376.8" font-family="Helvetica,sans-Serif" font-size="14.00">TransformPropagate</text>
</a>
</g>
</g>
<g id="clust8" class="cluster">
<title>clusternode_Set(12)</title>
<g id="a_clust8"><a xlink:title="CameraUpdateSystem">
<path fill="#ffffff" fill-opacity="0.266667" stroke="#ffffff" stroke-width="2" stroke-opacity="0.313725" d="M933,-118C933,-118 1193,-118 1193,-118 1199,-118 1205,-124 1205,-130 1205,-130 1205,-286 1205,-286 1205,-292 1199,-298 1193,-298 1193,-298 933,-298 933,-298 927,-298 921,-292 921,-286 921,-286 921,-130 921,-130 921,-124 927,-118 933,-118"/>
<text text-anchor="middle" x="1063" y="-282.8" font-family="Helvetica,sans-Serif" font-size="14.00">CameraUpdateSystem</text>
</a>
</g>
</g>
<g id="clust9" class="cluster">
<title>clusternode_Set(9)</title>
<g id="a_clust9"><a xlink:title="PropagateTransformsSet">
<path fill="#ffffff" fill-opacity="0.266667" stroke="#ffffff" stroke-width="2" stroke-opacity="0.313725" d="M562,-8C562,-8 706,-8 706,-8 712,-8 718,-14 718,-20 718,-20 718,-35 718,-35 718,-41 712,-47 706,-47 706,-47 562,-47 562,-47 556,-47 550,-41 550,-35 550,-35 550,-20 550,-20 550,-14 556,-8 562,-8"/>
<text text-anchor="middle" x="634" y="-31.8" font-family="Helvetica,sans-Serif" font-size="14.00">PropagateTransformsSet</text>
</a>
</g>
</g>
<!-- set_marker_node_Set(0) -->
<!-- set_marker_node_Set(3) -->
<!-- set_marker_node_Set(0)&#45;&gt;set_marker_node_Set(3) -->
<g id="edge5" class="edge">
<title>set_marker_node_Set(0)&#45;&gt;set_marker_node_Set(3)</title>
<g id="a_edge5"><a xlink:title="Startup → StartupFlush">
<path fill="none" stroke="#00b0cc" stroke-width="2" d="M699,-110C707.44,-110 716.23,-110 725.03,-110"/>
<polygon fill="#00b0cc" stroke="#00b0cc" stroke-width="2" points="725,-113.5 735,-110 725,-106.5 725,-113.5"/>
</a>
</g>
</g>
<!-- node_System(5) -->
<g id="node2" class="node">
<title>node_System(5)</title>
<g id="a_node2"><a xlink:title="bevy_diagnostic::system_information_diagnostics_plugin::internal::log_system_info">
<polygon fill="#eff1f3" stroke="#b4bec7" points="691,-99 577,-99 577,-63 691,-63 691,-99"/>
<text text-anchor="middle" x="634" y="-77.3" font-family="Helvetica,sans-Serif" font-size="14.00" fill="#15191d">log_system_info</text>
</a>
</g>
</g>
<!-- set_marker_node_Set(2) -->
<!-- set_marker_node_Set(2)&#45;&gt;set_marker_node_Set(0) -->
<g id="edge4" class="edge">
<title>set_marker_node_Set(2)&#45;&gt;set_marker_node_Set(0)</title>
<g id="a_edge4"><a xlink:title="PreStartupFlush → Startup">
<path fill="none" stroke="#881877" stroke-width="2" d="M459,-110C490.16,-110 525.67,-110 556.45,-110"/>
<polygon fill="#881877" stroke="#881877" stroke-width="2" points="556,-113.5 566,-110 556,-106.5 556,-113.5"/>
</a>
</g>
</g>
<!-- node_System(0) -->
<g id="node4" class="node">
<title>node_System(0)</title>
<g id="a_node4"><a xlink:title="bevy_ecs::schedule::executor::apply_system_buffers">
<polygon fill="#e70000" stroke="#5a0000" stroke-width="2" points="451,-99 304,-99 304,-63 451,-63 451,-99"/>
<text text-anchor="middle" x="377.5" y="-77.3" font-family="Helvetica,sans-Serif" font-size="14.00" fill="#ffffff">apply_system_buffers</text>
</a>
</g>
</g>
<!-- set_marker_node_Set(6) -->
<!-- set_marker_node_Set(3)&#45;&gt;set_marker_node_Set(6) -->
<g id="edge6" class="edge">
<title>set_marker_node_Set(3)&#45;&gt;set_marker_node_Set(6)</title>
<g id="a_edge6"><a xlink:title="StartupFlush → PostStartup">
<path fill="none" stroke="#aa3a55" stroke-width="2" d="M901,-110C904,-110 907,-110 910,-110"/>
<polygon fill="#aa3a55" stroke="#aa3a55" stroke-width="2" points="900,-113.5 910,-110 900,-106.5 900,-113.5"/>
</a>
</g>
</g>
<!-- node_System(1) -->
<g id="node6" class="node">
<title>node_System(1)</title>
<g id="a_node6"><a xlink:title="bevy_ecs::schedule::executor::apply_system_buffers">
<polygon fill="#e70000" stroke="#5a0000" stroke-width="2" points="893,-99 746,-99 746,-63 893,-63 893,-99"/>
<text text-anchor="middle" x="819.5" y="-77.3" font-family="Helvetica,sans-Serif" font-size="14.00" fill="#ffffff">apply_system_buffers</text>
</a>
</g>
</g>
<!-- set_marker_node_Set(4) -->
<!-- node_System(2) -->
<g id="node8" class="node">
<title>node_System(2)</title>
<g id="a_node8"><a xlink:title="bevy_ecs::schedule::executor::apply_system_buffers">
<polygon fill="#e70000" stroke="#5a0000" stroke-width="2" points="1380,-99 1233,-99 1233,-63 1380,-63 1380,-99"/>
<text text-anchor="middle" x="1306.5" y="-77.3" font-family="Helvetica,sans-Serif" font-size="14.00" fill="#ffffff">apply_system_buffers</text>
</a>
</g>
</g>
<!-- set_marker_node_Set(5) -->
<!-- set_marker_node_Set(5)&#45;&gt;set_marker_node_Set(2) -->
<g id="edge3" class="edge">
<title>set_marker_node_Set(5)&#45;&gt;set_marker_node_Set(2)</title>
<g id="a_edge3"><a xlink:title="PreStartup → PreStartupFlush">
<path fill="none" stroke="#eede00" stroke-width="2" d="M205,-110C230.56,-110 258.06,-110 283.39,-110"/>
<polygon fill="#eede00" stroke="#eede00" stroke-width="2" points="283,-113.5 293,-110 283,-106.5 283,-113.5"/>
</a>
</g>
</g>
<!-- node_System(9) -->
<g id="node10" class="node">
<title>node_System(9)</title>
<g id="a_node10"><a xlink:title="bevy_gilrs::gilrs_system::gilrs_event_startup_system">
<polygon fill="#973977" stroke="#c86da9" points="197,-99 16,-99 16,-63 197,-63 197,-99"/>
<text text-anchor="middle" x="106.5" y="-77.3" font-family="Helvetica,sans-Serif" font-size="14.00" fill="#f1d9e9">gilrs_event_startup_system</text>
</a>
</g>
</g>
<!-- set_marker_node_Set(6)&#45;&gt;set_marker_node_Set(4) -->
<g id="edge7" class="edge">
<title>set_marker_node_Set(6)&#45;&gt;set_marker_node_Set(4)</title>
<g id="a_edge7"><a xlink:title="PostStartup → PostStartupFlush">
<path fill="none" stroke="#44d488" stroke-width="2" d="M1213,-110C1216,-110 1219,-110 1222,-110"/>
<polygon fill="#44d488" stroke="#44d488" stroke-width="2" points="1212,-113.5 1222,-110 1212,-106.5 1212,-113.5"/>
</a>
</g>
</g>
<!-- set_marker_node_Set(7) -->
<!-- node_System(3) -->
<g id="node13" class="node">
<title>node_System(3)</title>
<g id="a_node13"><a xlink:title="bevy_transform::systems::sync_simple_transforms">
<polygon fill="#ffe7b9" stroke="#ffc453" points="1144,-350 982,-350 982,-314 1144,-314 1144,-350"/>
<text text-anchor="middle" x="1063" y="-328.3" font-family="Helvetica,sans-Serif" font-size="14.00" fill="#322100">sync_simple_transforms</text>
</a>
</g>
</g>
<!-- set_marker_node_Set(12) -->
<!-- node_System(6) -->
<g id="node15" class="node">
<title>node_System(6)</title>
<g id="a_node15"><a xlink:title="bevy_render::camera::camera::camera_system&lt;bevy_render::camera::projection::Projection&gt;">
<polygon fill="#70b9fc" stroke="#0c88f9" points="1157.5,-256 968.5,-256 968.5,-220 1157.5,-220 1157.5,-256"/>
<text text-anchor="middle" x="1063" y="-234.3" font-family="Helvetica,sans-Serif" font-size="14.00" fill="#011a31">camera_system&lt;Projection&gt;</text>
</a>
</g>
</g>
<!-- node_System(7) -->
<g id="node16" class="node">
<title>node_System(7)</title>
<g id="a_node16"><a xlink:title="bevy_render::camera::camera::camera_system&lt;bevy_render::camera::projection::OrthographicProjection&gt;">
<polygon fill="#70b9fc" stroke="#0c88f9" points="1197,-209 929,-209 929,-173 1197,-173 1197,-209"/>
<text text-anchor="middle" x="1063" y="-187.3" font-family="Helvetica,sans-Serif" font-size="14.00" fill="#011a31">camera_system&lt;OrthographicProjection&gt;</text>
</a>
</g>
</g>
<!-- node_System(8) -->
<g id="node17" class="node">
<title>node_System(8)</title>
<g id="a_node17"><a xlink:title="bevy_render::camera::camera::camera_system&lt;bevy_render::camera::projection::PerspectiveProjection&gt;">
<polygon fill="#70b9fc" stroke="#0c88f9" points="1193,-162 933,-162 933,-126 1193,-126 1193,-162"/>
<text text-anchor="middle" x="1063" y="-140.3" font-family="Helvetica,sans-Serif" font-size="14.00" fill="#011a31">camera_system&lt;PerspectiveProjection&gt;</text>
</a>
</g>
</g>
<!-- set_marker_node_Set(9) -->
<!-- node_System(4) -->
<g id="node19" class="node">
<title>node_System(4)</title>
<g id="a_node19"><a xlink:title="bevy_transform::systems::propagate_transforms">
<polygon fill="lightgrey" stroke="black" points="522,-41 233,-41 233,-3 522,-3 522,-41"/>
<text text-anchor="middle" x="377.5" y="-25.8" font-family="Times,serif" font-size="14.00">propagate_transforms</text>
<text text-anchor="middle" x="377.5" y="-10.8" font-family="Times,serif" font-size="14.00">In multiple sets, Startup, PropagateTransformsSet</text>
</a>
</g>
</g>
<!-- node_System(4)&#45;&gt;set_marker_node_Set(0) -->
<g id="edge1" class="edge">
<title>node_System(4)&#45;&gt;set_marker_node_Set(0)</title>
<path fill="none" stroke="blue" stroke-width="2" d="M502.92,-41.47C509.65,-44.77 516.07,-48.58 522,-53 542.73,-68.46 528.24,-90.04 550,-104 555.77,-107.71 562.26,-110.24 569,-111.92"/>
</g>
<!-- node_System(4)&#45;&gt;set_marker_node_Set(9) -->
<g id="edge2" class="edge">
<title>node_System(4)&#45;&gt;set_marker_node_Set(9)</title>
<path fill="none" stroke="blue" stroke-width="2" d="M522.48,-18.61C531.85,-18.38 541.09,-18.17 550,-17.96"/>
</g>
</g>
</svg>
