<?xml version="1.0" encoding="UTF-8" standalone="no"?>
<!DOCTYPE svg PUBLIC "-//W3C//DTD SVG 1.1//EN"
 "http://www.w3.org/Graphics/SVG/1.1/DTD/svg11.dtd">
<!-- Generated by graphviz version 13.1.2 (20250808.2320)
 -->
<!-- Pages: 1 -->
<svg width="547pt" height="286pt"
 viewBox="0.00 0.00 547.00 286.00" xmlns="http://www.w3.org/2000/svg" xmlns:xlink="http://www.w3.org/1999/xlink">
<g id="graph0" class="graph" transform="scale(1 1) rotate(0) translate(4 282)">
<polygon fill="#0d1117" stroke="none" points="-4,4 -4,-282 543,-282 543,4 -4,4"/>
<g id="clust1" class="cluster">
<title>clusternode_Set(SystemSetKey(2v1))</title>
<g id="a_clust1"><a xlink:title="MessageUpdateSystems">
<path fill="#ffffff" fill-opacity="0.266667" stroke="#ffffff" stroke-width="2" stroke-opacity="0.313725" d="M20,-31C20,-31 183.25,-31 183.25,-31 189.25,-31 195.25,-37 195.25,-43 195.25,-43 195.25,-110 195.25,-110 195.25,-116 189.25,-122 183.25,-122 183.25,-122 20,-122 20,-122 14,-122 8,-116 8,-110 8,-110 8,-43 8,-43 8,-37 14,-31 20,-31"/>
<text xml:space="preserve" text-anchor="middle" x="101.62" y="-104.7" font-family="Helvetica,sans-Serif" font-size="14.00" fill="#ffffff">MessageUpdateSystems</text>
</a>
</g>
</g>
<g id="clust2" class="cluster">
<title>clusternode_Set(SystemSetKey(4v1))</title>
<g id="a_clust2"><a xlink:title="TimeSystems">
<path fill="#ffffff" fill-opacity="0.266667" stroke="#ffffff" stroke-width="2" stroke-opacity="0.313725" d="M59,-143C59,-143 144.25,-143 144.25,-143 150.25,-143 156.25,-149 156.25,-155 156.25,-155 156.25,-222 156.25,-222 156.25,-228 150.25,-234 144.25,-234 144.25,-234 59,-234 59,-234 53,-234 47,-228 47,-222 47,-222 47,-155 47,-155 47,-149 53,-143 59,-143"/>
<text xml:space="preserve" text-anchor="middle" x="101.62" y="-216.7" font-family="Helvetica,sans-Serif" font-size="14.00" fill="#ffffff">TimeSystems</text>
</a>
</g>
</g>
<g id="clust3" class="cluster">
<title>clusternode_Set(SystemSetKey(8v1))</title>
<g id="a_clust3"><a xlink:title="PostInput">
<path fill="#ffffff" fill-opacity="0.266667" stroke="#ffffff" stroke-width="2" stroke-opacity="0.313725" d="M405.25,-44C405.25,-44 513,-44 513,-44 519,-44 525,-50 525,-56 525,-56 525,-123 525,-123 525,-129 519,-135 513,-135 513,-135 405.25,-135 405.25,-135 399.25,-135 393.25,-129 393.25,-123 393.25,-123 393.25,-56 393.25,-56 393.25,-50 399.25,-44 405.25,-44"/>
<text xml:space="preserve" text-anchor="middle" x="459.12" y="-117.7" font-family="Helvetica,sans-Serif" font-size="14.00" fill="#ffffff">PostInput</text>
</a>
</g>
</g>
<g id="clust4" class="cluster">
<title>clusternode_Set(SystemSetKey(10v1))</title>
<g id="a_clust4"><a xlink:title="Input">
<path fill="#ffffff" fill-opacity="0.266667" stroke="#ffffff" stroke-width="2" stroke-opacity="0.313725" d="M227.25,-143C227.25,-143 519,-143 519,-143 525,-143 531,-149 531,-155 531,-155 531,-222 531,-222 531,-228 525,-234 519,-234 519,-234 227.25,-234 227.25,-234 221.25,-234 215.25,-228 215.25,-222 215.25,-222 215.25,-155 215.25,-155 215.25,-149 221.25,-143 227.25,-143"/>
<text xml:space="preserve" text-anchor="middle" x="373.12" y="-216.7" font-family="Helvetica,sans-Serif" font-size="14.00" fill="#ffffff">Input</text>
</a>
</g>
</g>
<!-- set_marker_node_Set(SystemSetKey(2v1)) -->
<!-- set_marker_node_Set(SystemSetKey(10v1)) -->
<!-- set_marker_node_Set(SystemSetKey(2v1))&#45;&gt;set_marker_node_Set(SystemSetKey(10v1)) -->
<g id="edge1" class="edge">
<title>set_marker_node_Set(SystemSetKey(2v1))&#45;&gt;set_marker_node_Set(SystemSetKey(10v1))</title>
<g id="a_edge1"><a xlink:title="MessageUpdateSystems → Input">
<path fill="none" stroke="#eede00" stroke-width="2" d="M195.25,-120.09C214.26,-126.67 233.33,-133.28 249.35,-138.83"/>
<polygon fill="#eede00" stroke="#eede00" stroke-width="2" points="247.93,-142.04 258.53,-142.01 250.22,-135.43 247.93,-142.04"/>
</a>
</g>
</g>
<!-- node_System(SystemKey(1v1)) -->
<g id="node2" class="node">
<title>node_System(SystemKey(1v1))</title>
<g id="a_node2"><a xlink:title="bevy_ecs::message::update::message_update_system">
<polygon fill="#b0d34a" stroke="#d3e69c" points="187.25,-75 16,-75 16,-39 187.25,-39 187.25,-75"/>
<text xml:space="preserve" text-anchor="middle" x="101.62" y="-51.58" font-family="Helvetica,sans-Serif" font-size="14.00" fill="#edf5d5">message_update_system</text>
</a>
</g>
</g>
<!-- node_System(SystemKey(3v1)) -->
<g id="node10" class="node">
<title>node_System(SystemKey(3v1))</title>
<g id="a_node10"><a xlink:title="bevy_render::view::window::screenshot::clear_screenshots">
<polygon fill="lightgrey" stroke="black" points="346.88,-62 235.62,-62 235.62,-26 346.88,-26 346.88,-62"/>
<text xml:space="preserve" text-anchor="middle" x="291.25" y="-38.95" font-family="Times,serif" font-size="14.00">clear_screenshots</text>
</a>
</g>
</g>
<!-- node_System(SystemKey(1v1))&#45;&gt;node_System(SystemKey(3v1)) -->
<g id="edge6" class="edge">
<title>node_System(SystemKey(1v1))&#45;&gt;node_System(SystemKey(3v1))</title>
<g id="a_edge6"><a xlink:title="SystemTypeSet:bevy_ecs::message::update::message_update_system → clear_screenshots">
<path fill="none" stroke="#0090cc" stroke-width="2" d="M187.65,-51.11C199.29,-50.3 211.11,-49.48 222.39,-48.7"/>
<polygon fill="#0090cc" stroke="#0090cc" stroke-width="2" points="222.58,-52.2 232.31,-48.01 222.1,-45.21 222.58,-52.2"/>
</a>
</g>
</g>
<!-- set_marker_node_Set(SystemSetKey(4v1)) -->
<!-- set_marker_node_Set(SystemSetKey(4v1))&#45;&gt;set_marker_node_Set(SystemSetKey(10v1)) -->
<g id="edge5" class="edge">
<title>set_marker_node_Set(SystemSetKey(4v1))&#45;&gt;set_marker_node_Set(SystemSetKey(10v1))</title>
<g id="a_edge5"><a xlink:title="TimeSystems → Input">
<path fill="none" stroke="#44d488" stroke-width="2" d="M156.25,-153C170.69,-153 186.71,-153 202.49,-153"/>
<polygon fill="#44d488" stroke="#44d488" stroke-width="2" points="202.23,-156.5 212.23,-153 202.23,-149.5 202.23,-156.5"/>
</a>
</g>
</g>
<!-- node_System(SystemKey(2v1)) -->
<g id="node4" class="node">
<title>node_System(SystemKey(2v1))</title>
<g id="a_node4"><a xlink:title="bevy_time::time_system">
<polygon fill="#c7ddbd" stroke="#8dba79" points="148.25,-202 55,-202 55,-166 148.25,-166 148.25,-202"/>
<text xml:space="preserve" text-anchor="middle" x="101.62" y="-178.57" font-family="Helvetica,sans-Serif" font-size="14.00" fill="#162111">time_system</text>
</a>
</g>
</g>
<!-- set_marker_node_Set(SystemSetKey(8v1)) -->
<!-- node_System(SystemKey(4v1)) -->
<g id="node6" class="node">
<title>node_System(SystemKey(4v1))</title>
<g id="a_node6"><a xlink:title="bevy_ui::widget::viewport::viewport_picking">
<polygon fill="#ffb1e5" stroke="#ff4bc2" points="517,-103 401.25,-103 401.25,-67 517,-67 517,-103"/>
<text xml:space="preserve" text-anchor="middle" x="459.12" y="-79.58" font-family="Helvetica,sans-Serif" font-size="14.00" fill="#320021">viewport_picking</text>
</a>
</g>
</g>
<!-- set_marker_node_Set(SystemSetKey(10v1))&#45;&gt;set_marker_node_Set(SystemSetKey(8v1)) -->
<g id="edge2" class="edge">
<title>set_marker_node_Set(SystemSetKey(10v1))&#45;&gt;set_marker_node_Set(SystemSetKey(8v1))</title>
<g id="a_edge2"><a xlink:title="Input → PostInput">
<path fill="none" stroke="#881877" stroke-width="2" d="M299.76,-143C313.56,-125.39 344.95,-88.71 381.81,-67.85"/>
<polygon fill="#881877" stroke="#881877" stroke-width="2" points="383.25,-71.05 390.56,-63.38 380.06,-64.82 383.25,-71.05"/>
</a>
</g>
</g>
<!-- node_System(SystemKey(5v1)) -->
<g id="node8" class="node">
<title>node_System(SystemKey(5v1))</title>
<g id="a_node8"><a xlink:title="bevy_picking::input::mouse_pick_events">
<polygon fill="#eff1f3" stroke="#b4bec7" points="359.25,-202 223.25,-202 223.25,-166 359.25,-166 359.25,-202"/>
<text xml:space="preserve" text-anchor="middle" x="291.25" y="-178.57" font-family="Helvetica,sans-Serif" font-size="14.00" fill="#15191d">mouse_pick_events</text>
</a>
</g>
</g>
<!-- node_System(SystemKey(6v1)) -->
<g id="node9" class="node">
<title>node_System(SystemKey(6v1))</title>
<g id="a_node9"><a xlink:title="bevy_picking::input::touch_pick_events">
<polygon fill="#eff1f3" stroke="#b4bec7" points="523,-202 395.25,-202 395.25,-166 523,-166 523,-202"/>
<text xml:space="preserve" text-anchor="middle" x="459.12" y="-178.57" font-family="Helvetica,sans-Serif" font-size="14.00" fill="#15191d">touch_pick_events</text>
</a>
</g>
</g>
<!-- node_System(SystemKey(5v1))&#45;&gt;node_System(SystemKey(6v1)) -->
<g id="edge4" class="edge">
<title>node_System(SystemKey(5v1))&#45;&gt;node_System(SystemKey(6v1))</title>
<g id="a_edge4"><a xlink:title="mouse_pick_events → touch_pick_events">
<path fill="none" stroke="#aa3a55" stroke-width="2" d="M359.72,-184C367.1,-184 374.64,-184 382.12,-184"/>
<polygon fill="#aa3a55" stroke="#aa3a55" stroke-width="2" points="381.97,-187.5 391.97,-184 381.97,-180.5 381.97,-187.5"/>
</a>
</g>
</g>
<!-- ApplyDeferred -->
<g id="node12" class="node">
<title>ApplyDeferred</title>
<polygon fill="lightgrey" stroke="black" points="508,-36 410.25,-36 410.25,0 508,0 508,-36"/>
<text xml:space="preserve" text-anchor="middle" x="459.12" y="-12.95" font-family="Times,serif" font-size="14.00">ApplyDeferred</text>
</g>
<!-- node_System(SystemKey(3v1))&#45;&gt;ApplyDeferred -->
<g id="edge3" class="edge">
<title>node_System(SystemKey(3v1))&#45;&gt;ApplyDeferred</title>
<g id="a_edge3"><a xlink:title="clear_screenshots → SystemTypeSet:bevy_ecs::schedule::executor::ApplyDeferred">
<path fill="none" stroke="#00b0cc" stroke-width="2" d="M347.02,-35.41C363.03,-32.91 380.63,-30.15 397.01,-27.58"/>
<polygon fill="#00b0cc" stroke="#00b0cc" stroke-width="2" points="397.5,-31.05 406.83,-26.04 396.41,-24.13 397.5,-31.05"/>
</a>
</g>
</g>
<!-- node_System(SystemKey(7v1)) -->
<g id="node11" class="node">
<title>node_System(SystemKey(7v1))</title>
<g id="a_node11"><a xlink:title="bevy_ecs::apply_deferred">
<polygon fill="lightgrey" stroke="black" points="150.5,-278 52.75,-278 52.75,-242 150.5,-242 150.5,-278"/>
<text xml:space="preserve" text-anchor="middle" x="101.62" y="-254.95" font-family="Times,serif" font-size="14.00">apply_deferred</text>
</a>
</g>
</g>
</g>
</svg>
