<?xml version="1.0" encoding="UTF-8" standalone="no"?>
<!DOCTYPE svg PUBLIC "-//W3C//DTD SVG 1.1//EN"
 "http://www.w3.org/Graphics/SVG/1.1/DTD/svg11.dtd">
<!-- Generated by graphviz version 13.1.2 (20250808.2320)
 -->
<!-- Pages: 1 -->
<svg width="609pt" height="250pt"
 viewBox="0.00 0.00 609.00 250.00" xmlns="http://www.w3.org/2000/svg" xmlns:xlink="http://www.w3.org/1999/xlink">
<g id="graph0" class="graph" transform="scale(1 1) rotate(0) translate(4 246)">
<polygon fill="#0d1117" stroke="none" points="-4,4 -4,-246 604.5,-246 604.5,4 -4,4"/>
<g id="clust1" class="cluster">
<title>clusternode_Set(SystemSetKey(2v1))</title>
<g id="a_clust1"><a xlink:title="Propagate">
<path fill="#ffffff" fill-opacity="0.266667" stroke="#ffffff" stroke-width="2" stroke-opacity="0.313725" d="M25.25,-8C25.25,-8 580.5,-8 580.5,-8 586.5,-8 592.5,-14 592.5,-20 592.5,-20 592.5,-87 592.5,-87 592.5,-93 586.5,-99 580.5,-99 580.5,-99 25.25,-99 25.25,-99 19.25,-99 13.25,-93 13.25,-87 13.25,-87 13.25,-20 13.25,-20 13.25,-14 19.25,-8 25.25,-8"/>
<text xml:space="preserve" text-anchor="middle" x="302.88" y="-81.7" font-family="Helvetica,sans-Serif" font-size="14.00" fill="#ffffff">Propagate</text>
</a>
</g>
</g>
<g id="clust2" class="cluster">
<title>clusternode_Set(SystemSetKey(7v1))</title>
<g id="a_clust2"><a xlink:title="CameraUpdateSystems">
<path fill="#ffffff" fill-opacity="0.266667" stroke="#ffffff" stroke-width="2" stroke-opacity="0.313725" d="M12,-107C12,-107 148.75,-107 148.75,-107 154.75,-107 160.75,-113 160.75,-119 160.75,-119 160.75,-186 160.75,-186 160.75,-192 154.75,-198 148.75,-198 148.75,-198 12,-198 12,-198 6,-198 0,-192 0,-186 0,-186 0,-119 0,-119 0,-113 6,-107 12,-107"/>
<text xml:space="preserve" text-anchor="middle" x="80.38" y="-180.7" font-family="Helvetica,sans-Serif" font-size="14.00" fill="#ffffff">CameraUpdateSystems</text>
</a>
</g>
</g>
<!-- set_marker_node_Set(SystemSetKey(2v1)) -->
<!-- node_System(SystemKey(1v1)) -->
<g id="node2" class="node">
<title>node_System(SystemKey(1v1))</title>
<g id="a_node2"><a xlink:title="bevy_transform::systems::mark_dirty_trees">
<polygon fill="#ffe7b9" stroke="#ffc453" points="138.5,-67 21.25,-67 21.25,-31 138.5,-31 138.5,-67"/>
<text xml:space="preserve" text-anchor="middle" x="79.88" y="-43.58" font-family="Helvetica,sans-Serif" font-size="14.00" fill="#322100">mark_dirty_trees</text>
</a>
</g>
</g>
<!-- node_System(SystemKey(2v1)) -->
<g id="node3" class="node">
<title>node_System(SystemKey(2v1))</title>
<g id="a_node3"><a xlink:title="bevy_transform::systems::parallel::propagate_parent_transforms">
<polygon fill="#ffe7b9" stroke="#ffc453" points="385.5,-67 191,-67 191,-31 385.5,-31 385.5,-67"/>
<text xml:space="preserve" text-anchor="middle" x="288.25" y="-43.58" font-family="Helvetica,sans-Serif" font-size="14.00" fill="#322100">propagate_parent_transforms</text>
</a>
</g>
</g>
<!-- node_System(SystemKey(1v1))&#45;&gt;node_System(SystemKey(2v1)) -->
<g id="edge1" class="edge">
<title>node_System(SystemKey(1v1))&#45;&gt;node_System(SystemKey(2v1))</title>
<g id="a_edge1"><a xlink:title="mark_dirty_trees → propagate_parent_transforms">
<path fill="none" stroke="#eede00" stroke-width="2" d="M138.91,-49C151.11,-49 164.35,-49 177.74,-49"/>
<polygon fill="#eede00" stroke="#eede00" stroke-width="2" points="177.56,-52.5 187.56,-49 177.56,-45.5 177.56,-52.5"/>
</a>
</g>
</g>
<!-- node_System(SystemKey(3v1)) -->
<g id="node4" class="node">
<title>node_System(SystemKey(3v1))</title>
<g id="a_node4"><a xlink:title="bevy_transform::systems::sync_simple_transforms">
<polygon fill="#ffe7b9" stroke="#ffc453" points="584.5,-67 421.5,-67 421.5,-31 584.5,-31 584.5,-67"/>
<text xml:space="preserve" text-anchor="middle" x="503" y="-43.58" font-family="Helvetica,sans-Serif" font-size="14.00" fill="#322100">sync_simple_transforms</text>
</a>
</g>
</g>
<!-- node_System(SystemKey(2v1))&#45;&gt;node_System(SystemKey(3v1)) -->
<g id="edge2" class="edge">
<title>node_System(SystemKey(2v1))&#45;&gt;node_System(SystemKey(3v1))</title>
<g id="a_edge2"><a xlink:title="propagate_parent_transforms → sync_simple_transforms">
<path fill="none" stroke="#881877" stroke-width="2" d="M385.98,-49C393.41,-49 400.9,-49 408.32,-49"/>
<polygon fill="#881877" stroke="#881877" stroke-width="2" points="408.08,-52.5 418.08,-49 408.08,-45.5 408.08,-52.5"/>
</a>
</g>
</g>
<!-- set_marker_node_Set(SystemSetKey(7v1)) -->
<!-- node_System(SystemKey(5v1)) -->
<g id="node6" class="node">
<title>node_System(SystemKey(5v1))</title>
<g id="a_node6"><a xlink:title="bevy_render::camera::camera_system">
<polygon fill="#70b9fc" stroke="#0c88f9" points="136.25,-166 23.5,-166 23.5,-130 136.25,-130 136.25,-166"/>
<text xml:space="preserve" text-anchor="middle" x="79.88" y="-142.57" font-family="Helvetica,sans-Serif" font-size="14.00" fill="#011a31">camera_system</text>
</a>
</g>
</g>
<!-- node_System(SystemKey(4v1)) -->
<g id="node7" class="node">
<title>node_System(SystemKey(4v1))</title>
<g id="a_node7"><a xlink:title="bevy_input_focus::set_initial_focus">
<polygon fill="lightgrey" stroke="black" points="132.5,-242 27.25,-242 27.25,-206 132.5,-206 132.5,-242"/>
<text xml:space="preserve" text-anchor="middle" x="79.88" y="-218.95" font-family="Times,serif" font-size="14.00">set_initial_focus</text>
</a>
</g>
</g>
</g>
</svg>
