<?xml version="1.0" encoding="UTF-8" standalone="no"?>
<!DOCTYPE svg PUBLIC "-//W3C//DTD SVG 1.1//EN"
 "http://www.w3.org/Graphics/SVG/1.1/DTD/svg11.dtd">
<!-- Generated by graphviz version 13.1.2 (20250808.2320)
 -->
<!-- Pages: 1 -->
<svg width="600pt" height="250pt"
 viewBox="0.00 0.00 600.00 250.00" xmlns="http://www.w3.org/2000/svg" xmlns:xlink="http://www.w3.org/1999/xlink">
<g id="graph0" class="graph" transform="scale(1 1) rotate(0) translate(4 246)">
<polygon fill="#0d1117" stroke="none" points="-4,4 -4,-246 595.5,-246 595.5,4 -4,4"/>
<g id="clust1" class="cluster">
<title>clusternode_Set(SystemSetKey(2v1))</title>
<g id="a_clust1"><a xlink:title="WorldInstanceSpawn">
<path fill="#ffffff" fill-opacity="0.266667" stroke="#ffffff" stroke-width="2" stroke-opacity="0.313725" d="M20,-107C20,-107 428,-107 428,-107 434,-107 440,-113 440,-119 440,-119 440,-186 440,-186 440,-192 434,-198 428,-198 428,-198 20,-198 20,-198 14,-198 8,-192 8,-186 8,-186 8,-119 8,-119 8,-113 14,-107 20,-107"/>
<text xml:space="preserve" text-anchor="middle" x="224" y="-180.7" font-family="Helvetica,sans-Serif" font-size="14.00" fill="#ffffff">WorldInstanceSpawn</text>
</a>
</g>
</g>
<g id="clust2" class="cluster">
<title>clusternode_Set(SystemSetKey(5v1))</title>
<g id="a_clust2"><a xlink:title="SceneSpawn">
<path fill="#ffffff" fill-opacity="0.266667" stroke="#ffffff" stroke-width="2" stroke-opacity="0.313725" d="M249.38,-8C249.38,-8 571.5,-8 571.5,-8 577.5,-8 583.5,-14 583.5,-20 583.5,-20 583.5,-87 583.5,-87 583.5,-93 577.5,-99 571.5,-99 571.5,-99 249.38,-99 249.38,-99 243.38,-99 237.38,-93 237.38,-87 237.38,-87 237.38,-20 237.38,-20 237.38,-14 243.38,-8 249.38,-8"/>
<text xml:space="preserve" text-anchor="middle" x="410.44" y="-81.7" font-family="Helvetica,sans-Serif" font-size="14.00" fill="#ffffff">SceneSpawn</text>
</a>
</g>
</g>
<!-- set_marker_node_Set(SystemSetKey(2v1)) -->
<!-- node_System(SystemKey(3v1)) -->
<g id="node5" class="node">
<title>node_System(SystemKey(3v1))</title>
<g id="a_node5"><a xlink:title="bevy_scene::spawn::resolve_scene_patches">
<polygon fill="#bacfcb" stroke="#7da59d" points="403.12,-67 245.38,-67 245.38,-31 403.12,-31 403.12,-67"/>
<text xml:space="preserve" text-anchor="middle" x="324.25" y="-43.58" font-family="Helvetica,sans-Serif" font-size="14.00" fill="#141e1c">resolve_scene_patches</text>
</a>
</g>
</g>
<!-- set_marker_node_Set(SystemSetKey(2v1))&#45;&gt;node_System(SystemKey(3v1)) -->
<g id="edge1" class="edge">
<title>set_marker_node_Set(SystemSetKey(2v1))&#45;&gt;node_System(SystemKey(3v1))</title>
<g id="a_edge1"><a xlink:title="WorldInstanceSpawn → resolve_scene_patches">
<path fill="none" stroke="#eede00" stroke-width="2" d="M132.18,-107C163.04,-97.63 210.27,-83.3 250.04,-71.22"/>
<polygon fill="#eede00" stroke="#eede00" stroke-width="2" points="250.96,-74.6 259.52,-68.35 248.93,-67.9 250.96,-74.6"/>
</a>
</g>
</g>
<!-- node_System(SystemKey(1v1)) -->
<g id="node2" class="node">
<title>node_System(SystemKey(1v1))</title>
<g id="a_node2"><a xlink:title="bevy_world_serialization::world_asset_spawner::world_instance_spawner">
<polygon fill="#eff1f3" stroke="#b4bec7" points="180.5,-166 16,-166 16,-130 180.5,-130 180.5,-166"/>
<text xml:space="preserve" text-anchor="middle" x="98.25" y="-142.57" font-family="Helvetica,sans-Serif" font-size="14.00" fill="#15191d">world_instance_spawner</text>
</a>
</g>
</g>
<!-- node_System(SystemKey(2v1)) -->
<g id="node3" class="node">
<title>node_System(SystemKey(2v1))</title>
<g id="a_node3"><a xlink:title="bevy_world_serialization::world_asset_spawner::world_instance_spawner_system">
<polygon fill="#eff1f3" stroke="#b4bec7" points="432,-166 216.5,-166 216.5,-130 432,-130 432,-166"/>
<text xml:space="preserve" text-anchor="middle" x="324.25" y="-142.57" font-family="Helvetica,sans-Serif" font-size="14.00" fill="#15191d">world_instance_spawner_system</text>
</a>
</g>
</g>
<!-- node_System(SystemKey(1v1))&#45;&gt;node_System(SystemKey(2v1)) -->
<g id="edge2" class="edge">
<title>node_System(SystemKey(1v1))&#45;&gt;node_System(SystemKey(2v1))</title>
<g id="a_edge2"><a xlink:title="world_instance_spawner → world_instance_spawner_system">
<path fill="none" stroke="#881877" stroke-width="2" d="M180.75,-148C188.13,-148 195.69,-148 203.3,-148"/>
<polygon fill="#881877" stroke="#881877" stroke-width="2" points="203.11,-151.5 213.11,-148 203.11,-144.5 203.11,-151.5"/>
</a>
</g>
</g>
<!-- set_marker_node_Set(SystemSetKey(5v1)) -->
<!-- node_System(SystemKey(4v1)) -->
<g id="node6" class="node">
<title>node_System(SystemKey(4v1))</title>
<g id="a_node6"><a xlink:title="bevy_scene::spawn::spawn_queued">
<polygon fill="#bacfcb" stroke="#7da59d" points="575.5,-67 468,-67 468,-31 575.5,-31 575.5,-67"/>
<text xml:space="preserve" text-anchor="middle" x="521.75" y="-43.58" font-family="Helvetica,sans-Serif" font-size="14.00" fill="#141e1c">spawn_queued</text>
</a>
</g>
</g>
<!-- node_System(SystemKey(3v1))&#45;&gt;node_System(SystemKey(4v1)) -->
<g id="edge3" class="edge">
<title>node_System(SystemKey(3v1))&#45;&gt;node_System(SystemKey(4v1))</title>
<g id="a_edge3"><a xlink:title="resolve_scene_patches → spawn_queued">
<path fill="none" stroke="#00b0cc" stroke-width="2" d="M403.36,-49C420.4,-49 438.26,-49 454.77,-49"/>
<polygon fill="#00b0cc" stroke="#00b0cc" stroke-width="2" points="454.65,-52.5 464.65,-49 454.65,-45.5 454.65,-52.5"/>
</a>
</g>
</g>
<!-- node_System(SystemKey(5v1)) -->
<g id="node7" class="node">
<title>node_System(SystemKey(5v1))</title>
<g id="a_node7"><a xlink:title="bevy_ecs::apply_deferred">
<polygon fill="lightgrey" stroke="black" points="147.12,-242 49.38,-242 49.38,-206 147.12,-206 147.12,-242"/>
<text xml:space="preserve" text-anchor="middle" x="98.25" y="-218.95" font-family="Times,serif" font-size="14.00">apply_deferred</text>
</a>
</g>
</g>
</g>
</svg>
