<?xml version="1.0" encoding="UTF-8" standalone="no"?>
<!DOCTYPE svg PUBLIC "-//W3C//DTD SVG 1.1//EN"
 "http://www.w3.org/Graphics/SVG/1.1/DTD/svg11.dtd">
<!-- Generated by graphviz version 14.1.1 (0)
 -->
<!-- Pages: 1 -->
<svg width="322pt" height="279pt"
 viewBox="0.00 0.00 322.00 279.00" xmlns="http://www.w3.org/2000/svg" xmlns:xlink="http://www.w3.org/1999/xlink">
<g id="graph0" class="graph" transform="scale(1 1) rotate(0) translate(4 275)">
<polygon fill="#0d1117" stroke="none" points="-4,4 -4,-275 317.75,-275 317.75,4 -4,4"/>
<!-- node_System(SystemKey(1v1)) -->
<g id="node1" class="node">
<title>node_System(SystemKey(1v1))</title>
<g id="a_node1"><a xlink:title="bevy_window::system::close_when_requested">
<polygon fill="lightgrey" stroke="black" points="244.75,-36 69,-36 69,0 244.75,0 244.75,-36"/>
<text xml:space="preserve" text-anchor="middle" x="156.88" y="-13.32" font-family="Times,serif" font-size="14.00">close_when_requested</text>
</a>
</g>
</g>
<!-- node_System(SystemKey(2v1)) -->
<g id="node2" class="node">
<title>node_System(SystemKey(2v1))</title>
<g id="a_node2"><a xlink:title="bevy_app::terminal_ctrl_c_handler::TerminalCtrlCHandlerPlugin::exit_on_flag">
<polygon fill="lightgrey" stroke="black" points="313.75,-83 0,-83 0,-47 313.75,-47 313.75,-83"/>
<text xml:space="preserve" text-anchor="middle" x="156.88" y="-60.33" font-family="Times,serif" font-size="14.00">TerminalCtrlCHandlerPlugin::exit_on_flag</text>
</a>
</g>
</g>
<!-- node_System(SystemKey(3v1)) -->
<g id="node3" class="node">
<title>node_System(SystemKey(3v1))</title>
<g id="a_node3"><a xlink:title="bevy_render::view::window::screenshot::trigger_screenshots">
<polygon fill="lightgrey" stroke="black" points="236.12,-130 77.62,-130 77.62,-94 236.12,-94 236.12,-130"/>
<text xml:space="preserve" text-anchor="middle" x="156.88" y="-107.33" font-family="Times,serif" font-size="14.00">trigger_screenshots</text>
</a>
</g>
</g>
<!-- node_System(SystemKey(4v1)) -->
<g id="node4" class="node">
<title>node_System(SystemKey(4v1))</title>
<g id="a_node4"><a xlink:title="bevy_core_pipeline::oit::check_msaa">
<polygon fill="lightgrey" stroke="black" points="207.25,-177 106.5,-177 106.5,-141 207.25,-141 207.25,-177"/>
<text xml:space="preserve" text-anchor="middle" x="156.88" y="-154.32" font-family="Times,serif" font-size="14.00">check_msaa</text>
</a>
</g>
</g>
<!-- node_System(SystemKey(5v1)) -->
<g id="node5" class="node">
<title>node_System(SystemKey(5v1))</title>
<g id="a_node5"><a xlink:title="bevy_sprite_render::tilemap_chunk::update_tilemap_chunk_indices">
<polygon fill="lightgrey" stroke="black" points="273.25,-224 40.5,-224 40.5,-188 273.25,-188 273.25,-224"/>
<text xml:space="preserve" text-anchor="middle" x="156.88" y="-201.32" font-family="Times,serif" font-size="14.00">update_tilemap_chunk_indices</text>
</a>
</g>
</g>
<!-- node_System(SystemKey(6v1)) -->
<g id="node6" class="node">
<title>node_System(SystemKey(6v1))</title>
<g id="a_node6"><a xlink:title="bevy_pbr::atmosphere::environment::prepare_atmosphere_probe_components">
<polygon fill="lightgrey" stroke="black" points="309.25,-271 4.5,-271 4.5,-235 309.25,-235 309.25,-271"/>
<text xml:space="preserve" text-anchor="middle" x="156.88" y="-248.32" font-family="Times,serif" font-size="14.00">prepare_atmosphere_probe_components</text>
</a>
</g>
</g>
</g>
</svg>
