<?xml version="1.0" encoding="UTF-8" standalone="no"?>
<!DOCTYPE svg PUBLIC "-//W3C//DTD SVG 1.1//EN"
 "http://www.w3.org/Graphics/SVG/1.1/DTD/svg11.dtd">
<!-- Generated by graphviz version 10.0.1 (0)
 -->
<!-- Pages: 1 -->
<svg width="1087pt" height="418pt"
 viewBox="0.00 0.00 1086.75 418.00" xmlns="http://www.w3.org/2000/svg" xmlns:xlink="http://www.w3.org/1999/xlink">
<g id="graph0" class="graph" transform="scale(1 1) rotate(0) translate(4 414)">
<polygon fill="#0d1117" stroke="none" points="-4,4 -4,-414 1082.75,-414 1082.75,4 -4,4"/>
<g id="clust1" class="cluster">
<title>clusternode_Set(1)</title>
<g id="a_clust1"><a xlink:title="InputSystem">
<path fill="#ffffff" fill-opacity="0.266667" stroke="#ffffff" stroke-width="2" stroke-opacity="0.313725" d="M664.25,-8C664.25,-8 892.75,-8 892.75,-8 898.75,-8 904.75,-14 904.75,-20 904.75,-20 904.75,-366 904.75,-366 904.75,-372 898.75,-378 892.75,-378 892.75,-378 664.25,-378 664.25,-378 658.25,-378 652.25,-372 652.25,-366 652.25,-366 652.25,-20 652.25,-20 652.25,-14 658.25,-8 664.25,-8"/>
<text text-anchor="middle" x="778.5" y="-360.7" font-family="Helvetica,sans-Serif" font-size="14.00" fill="#ffffff">InputSystem</text>
</a>
</g>
</g>
<g id="clust2" class="cluster">
<title>clusternode_Set(9)</title>
<g id="a_clust2"><a xlink:title="Focus">
<path fill="#ffffff" fill-opacity="0.266667" stroke="#ffffff" stroke-width="2" stroke-opacity="0.313725" d="M936.75,-261C936.75,-261 1058.75,-261 1058.75,-261 1064.75,-261 1070.75,-267 1070.75,-273 1070.75,-273 1070.75,-337 1070.75,-337 1070.75,-343 1064.75,-349 1058.75,-349 1058.75,-349 936.75,-349 936.75,-349 930.75,-349 924.75,-343 924.75,-337 924.75,-337 924.75,-273 924.75,-273 924.75,-267 930.75,-261 936.75,-261"/>
<text text-anchor="middle" x="997.75" y="-331.7" font-family="Helvetica,sans-Serif" font-size="14.00" fill="#ffffff">Focus</text>
</a>
</g>
</g>
<!-- set_marker_node_Set(1) -->
<!-- node_System(7) -->
<g id="node10" class="node">
<title>node_System(7)</title>
<g id="a_node10"><a xlink:title="bevy_ui::focus::ui_focus_system">
<polygon fill="#ffb1e5" stroke="#ff4bc2" points="1062.75,-316 932.75,-316 932.75,-280 1062.75,-280 1062.75,-316"/>
<text text-anchor="middle" x="997.75" y="-293.32" font-family="Helvetica,sans-Serif" font-size="14.00" fill="#320021">ui_focus_system</text>
</a>
</g>
</g>
<!-- set_marker_node_Set(1)&#45;&gt;node_System(7) -->
<g id="edge6" class="edge">
<title>set_marker_node_Set(1)&#45;&gt;node_System(7)</title>
<g id="a_edge6"><a xlink:title="InputSystem → ui_focus_system">
<path fill="none" stroke="#0090cc" stroke-width="2" d="M904.75,-298C909.79,-298 914.78,-298 919.68,-298"/>
<polygon fill="#0090cc" stroke="#0090cc" stroke-width="2" points="919.38,-301.5 929.38,-298 919.38,-294.5 919.38,-301.5"/>
</a>
</g>
</g>
<!-- node_System(0) -->
<g id="node2" class="node">
<title>node_System(0)</title>
<g id="a_node2"><a xlink:title="bevy_input::keyboard::keyboard_input_system">
<polygon fill="#d36aaf" stroke="#a5317d" points="868.25,-99 688.75,-99 688.75,-63 868.25,-63 868.25,-99"/>
<text text-anchor="middle" x="778.5" y="-76.33" font-family="Helvetica,sans-Serif" font-size="14.00" fill="#270b1d">keyboard_input_system</text>
</a>
</g>
</g>
<!-- node_System(1) -->
<g id="node3" class="node">
<title>node_System(1)</title>
<g id="a_node3"><a xlink:title="bevy_input::mouse::mouse_button_input_system">
<polygon fill="#d36aaf" stroke="#a5317d" points="885.88,-146 671.12,-146 671.12,-110 885.88,-110 885.88,-146"/>
<text text-anchor="middle" x="778.5" y="-123.33" font-family="Helvetica,sans-Serif" font-size="14.00" fill="#270b1d">mouse_button_input_system</text>
</a>
</g>
</g>
<!-- node_System(2) -->
<g id="node4" class="node">
<title>node_System(2)</title>
<g id="a_node4"><a xlink:title="bevy_input::gamepad::gamepad_event_system">
<polygon fill="#d36aaf" stroke="#a5317d" points="870.5,-193 686.5,-193 686.5,-157 870.5,-157 870.5,-193"/>
<text text-anchor="middle" x="778.5" y="-170.32" font-family="Helvetica,sans-Serif" font-size="14.00" fill="#270b1d">gamepad_event_system</text>
</a>
</g>
</g>
<!-- node_System(3) -->
<g id="node5" class="node">
<title>node_System(3)</title>
<g id="a_node5"><a xlink:title="bevy_input::gamepad::gamepad_connection_system">
<polygon fill="#d36aaf" stroke="#a5317d" points="888.88,-287 668.12,-287 668.12,-251 888.88,-251 888.88,-287"/>
<text text-anchor="middle" x="778.5" y="-264.32" font-family="Helvetica,sans-Serif" font-size="14.00" fill="#270b1d">gamepad_connection_system</text>
</a>
</g>
</g>
<!-- node_System(4) -->
<g id="node6" class="node">
<title>node_System(4)</title>
<g id="a_node6"><a xlink:title="bevy_input::gamepad::gamepad_button_event_system">
<polygon fill="#d36aaf" stroke="#a5317d" points="896.75,-52 660.25,-52 660.25,-16 896.75,-16 896.75,-52"/>
<text text-anchor="middle" x="778.5" y="-29.32" font-family="Helvetica,sans-Serif" font-size="14.00" fill="#270b1d">gamepad_button_event_system</text>
</a>
</g>
</g>
<!-- node_System(5) -->
<g id="node7" class="node">
<title>node_System(5)</title>
<g id="a_node7"><a xlink:title="bevy_input::gamepad::gamepad_axis_event_system">
<polygon fill="#d36aaf" stroke="#a5317d" points="887.75,-240 669.25,-240 669.25,-204 887.75,-204 887.75,-240"/>
<text text-anchor="middle" x="778.5" y="-217.32" font-family="Helvetica,sans-Serif" font-size="14.00" fill="#270b1d">gamepad_axis_event_system</text>
</a>
</g>
</g>
<!-- node_System(6) -->
<g id="node8" class="node">
<title>node_System(6)</title>
<g id="a_node8"><a xlink:title="bevy_input::touch::touch_screen_input_system">
<polygon fill="#d36aaf" stroke="#a5317d" points="882.12,-345 674.88,-345 674.88,-309 882.12,-309 882.12,-345"/>
<text text-anchor="middle" x="778.5" y="-322.32" font-family="Helvetica,sans-Serif" font-size="14.00" fill="#270b1d">touch_screen_input_system</text>
</a>
</g>
</g>
<!-- set_marker_node_Set(9) -->
<!-- node_System(8) -->
<g id="node11" class="node">
<title>node_System(8)</title>
<g id="a_node11"><a xlink:title="bevy_pbr::prepass::update_mesh_previous_global_transforms">
<polygon fill="lightgrey" stroke="black" points="469.38,-363 154.88,-363 154.88,-327 469.38,-327 469.38,-363"/>
<text text-anchor="middle" x="312.12" y="-340.32" font-family="Times,serif" font-size="14.00">update_mesh_previous_global_transforms</text>
</a>
</g>
</g>
<!-- node_System(9) -->
<g id="node12" class="node">
<title>node_System(9)</title>
<g id="a_node12"><a xlink:title="bevy_pbr::prepass::update_previous_view_projections">
<polygon fill="lightgrey" stroke="black" points="442,-410 182.25,-410 182.25,-374 442,-374 442,-410"/>
<text text-anchor="middle" x="312.12" y="-387.32" font-family="Times,serif" font-size="14.00">update_previous_view_projections</text>
</a>
</g>
</g>
<!-- node_System(10) -->
<g id="node13" class="node">
<title>node_System(10)</title>
<g id="a_node13"><a xlink:title="bevy_gilrs::gilrs_system::gilrs_event_system">
<polygon fill="lightgrey" stroke="black" points="388.38,-316 235.88,-316 235.88,-280 388.38,-280 388.38,-316"/>
<text text-anchor="middle" x="312.12" y="-293.32" font-family="Times,serif" font-size="14.00">gilrs_event_system</text>
</a>
</g>
</g>
<!-- node_System(10)&#45;&gt;set_marker_node_Set(1) -->
<g id="edge7" class="edge">
<title>node_System(10)&#45;&gt;set_marker_node_Set(1)</title>
<g id="a_edge7"><a xlink:title="gilrs_event_system → InputSystem">
<path fill="none" stroke="#ee9e44" stroke-width="2" d="M388.77,-298C456.41,-298 557.24,-298 639.26,-298"/>
<polygon fill="#ee9e44" stroke="#ee9e44" stroke-width="2" points="639.22,-301.5 649.22,-298 639.22,-294.5 639.22,-301.5"/>
</a>
</g>
</g>
<!-- UNKNOWN SystemTypeSet(fn bevy_input::gamepad::gamepad_event_system()) -->
<g id="node14" class="node">
<title>UNKNOWN SystemTypeSet(fn bevy_input::gamepad::gamepad_event_system())</title>
<polygon fill="lightgrey" stroke="black" points="605.5,-240 18.75,-240 18.75,-204 605.5,-204 605.5,-240"/>
<text text-anchor="middle" x="312.12" y="-217.32" font-family="Times,serif" font-size="14.00">UNKNOWN SystemTypeSet(fn bevy_input::gamepad::gamepad_event_system())</text>
</g>
<!-- UNKNOWN SystemTypeSet(fn bevy_input::gamepad::gamepad_event_system())&#45;&gt;node_System(3) -->
<g id="edge1" class="edge">
<title>UNKNOWN SystemTypeSet(fn bevy_input::gamepad::gamepad_event_system())&#45;&gt;node_System(3)</title>
<g id="a_edge1"><a xlink:title="SystemTypeSet(gamepad_event_system()) → gamepad_connection_system">
<path fill="none" stroke="#eede00" stroke-width="2" d="M495.66,-240.47C549.04,-245.88 606.1,-251.65 654.82,-256.58"/>
<polygon fill="#eede00" stroke="#eede00" stroke-width="2" points="654.36,-260.05 664.66,-257.58 655.06,-253.09 654.36,-260.05"/>
</a>
</g>
</g>
<!-- UNKNOWN SystemTypeSet(fn bevy_input::gamepad::gamepad_event_system())&#45;&gt;node_System(4) -->
<g id="edge2" class="edge">
<title>UNKNOWN SystemTypeSet(fn bevy_input::gamepad::gamepad_event_system())&#45;&gt;node_System(4)</title>
<g id="a_edge2"><a xlink:title="SystemTypeSet(gamepad_event_system()) → gamepad_button_event_system">
<path fill="none" stroke="#881877" stroke-width="2" d="M470.25,-203.56C524.47,-190.33 582.1,-167.7 624.25,-129 646.5,-108.57 630.61,-85.39 650.8,-61.24"/>
<polygon fill="#881877" stroke="#881877" stroke-width="2" points="653.1,-63.89 657.84,-54.42 648.22,-58.87 653.1,-63.89"/>
</a>
</g>
</g>
<!-- UNKNOWN SystemTypeSet(fn bevy_input::gamepad::gamepad_event_system())&#45;&gt;node_System(5) -->
<g id="edge4" class="edge">
<title>UNKNOWN SystemTypeSet(fn bevy_input::gamepad::gamepad_event_system())&#45;&gt;node_System(5)</title>
<g id="a_edge4"><a xlink:title="SystemTypeSet(gamepad_event_system()) → gamepad_axis_event_system">
<path fill="none" stroke="#aa3a55" stroke-width="2" d="M605.9,-222C623.34,-222 640.28,-222 656.31,-222"/>
<polygon fill="#aa3a55" stroke="#aa3a55" stroke-width="2" points="655.92,-225.5 665.92,-222 655.92,-218.5 655.92,-225.5"/>
</a>
</g>
</g>
<!-- UNKNOWN SystemTypeSet(fn bevy_input::gamepad::gamepad_connection_system()) -->
<g id="node15" class="node">
<title>UNKNOWN SystemTypeSet(fn bevy_input::gamepad::gamepad_connection_system())</title>
<polygon fill="lightgrey" stroke="black" points="624.25,-123 0,-123 0,-87 624.25,-87 624.25,-123"/>
<text text-anchor="middle" x="312.12" y="-100.33" font-family="Times,serif" font-size="14.00">UNKNOWN SystemTypeSet(fn bevy_input::gamepad::gamepad_connection_system())</text>
</g>
<!-- UNKNOWN SystemTypeSet(fn bevy_input::gamepad::gamepad_connection_system())&#45;&gt;node_System(4) -->
<g id="edge3" class="edge">
<title>UNKNOWN SystemTypeSet(fn bevy_input::gamepad::gamepad_connection_system())&#45;&gt;node_System(4)</title>
<g id="a_edge3"><a xlink:title="SystemTypeSet(gamepad_connection_system()) → gamepad_button_event_system">
<path fill="none" stroke="#00b0cc" stroke-width="2" d="M433.92,-86.53C499.44,-76.51 580.46,-64.13 647.36,-53.9"/>
<polygon fill="#00b0cc" stroke="#00b0cc" stroke-width="2" points="647.77,-57.38 657.12,-52.4 646.71,-50.46 647.77,-57.38"/>
</a>
</g>
</g>
<!-- UNKNOWN SystemTypeSet(fn bevy_input::gamepad::gamepad_connection_system())&#45;&gt;node_System(5) -->
<g id="edge5" class="edge">
<title>UNKNOWN SystemTypeSet(fn bevy_input::gamepad::gamepad_connection_system())&#45;&gt;node_System(5)</title>
<g id="a_edge5"><a xlink:title="SystemTypeSet(gamepad_connection_system()) → gamepad_axis_event_system">
<path fill="none" stroke="#44d488" stroke-width="2" d="M373.36,-123.44C440.84,-143.69 553.71,-176.34 652.25,-199 655.01,-199.63 657.8,-200.26 660.62,-200.88"/>
<polygon fill="#44d488" stroke="#44d488" stroke-width="2" points="659.66,-204.26 670.17,-202.93 661.12,-197.41 659.66,-204.26"/>
</a>
</g>
</g>
</g>
</svg>
