<?xml version="1.0" encoding="UTF-8" standalone="no"?>
<!DOCTYPE svg PUBLIC "-//W3C//DTD SVG 1.1//EN"
 "http://www.w3.org/Graphics/SVG/1.1/DTD/svg11.dtd">
<!-- Generated by graphviz version 12.2.1 (0)
 -->
<!-- Pages: 1 -->
<svg width="322pt" height="185pt"
 viewBox="0.00 0.00 321.75 185.00" xmlns="http://www.w3.org/2000/svg" xmlns:xlink="http://www.w3.org/1999/xlink">
<g id="graph0" class="graph" transform="scale(1 1) rotate(0) translate(4 181)">
<polygon fill="#0d1117" stroke="none" points="-4,4 -4,-181 317.75,-181 317.75,4 -4,4"/>
<!-- node_System(0) -->
<g id="node1" class="node">
<title>node_System(0)</title>
<g id="a_node1"><a xlink:title="bevy_window::system::close_when_requested">
<polygon fill="lightgrey" stroke="black" points="244.75,-36 69,-36 69,0 244.75,0 244.75,-36"/>
<text text-anchor="middle" x="156.88" y="-13.32" font-family="Times,serif" font-size="14.00">close_when_requested</text>
</a>
</g>
</g>
<!-- node_System(1) -->
<g id="node2" class="node">
<title>node_System(1)</title>
<g id="a_node2"><a xlink:title="bevy_app::terminal_ctrl_c_handler::TerminalCtrlCHandlerPlugin::exit_on_flag">
<polygon fill="lightgrey" stroke="black" points="313.75,-83 0,-83 0,-47 313.75,-47 313.75,-83"/>
<text text-anchor="middle" x="156.88" y="-60.33" font-family="Times,serif" font-size="14.00">TerminalCtrlCHandlerPlugin::exit_on_flag</text>
</a>
</g>
</g>
<!-- node_System(2) -->
<g id="node3" class="node">
<title>node_System(2)</title>
<g id="a_node3"><a xlink:title="bevy_render::view::window::screenshot::trigger_screenshots">
<polygon fill="lightgrey" stroke="black" points="236.12,-130 77.62,-130 77.62,-94 236.12,-94 236.12,-130"/>
<text text-anchor="middle" x="156.88" y="-107.33" font-family="Times,serif" font-size="14.00">trigger_screenshots</text>
</a>
</g>
</g>
<!-- node_System(3) -->
<g id="node4" class="node">
<title>node_System(3)</title>
<g id="a_node4"><a xlink:title="bevy_core_pipeline::oit::check_msaa">
<polygon fill="lightgrey" stroke="black" points="207.25,-177 106.5,-177 106.5,-141 207.25,-141 207.25,-177"/>
<text text-anchor="middle" x="156.88" y="-154.32" font-family="Times,serif" font-size="14.00">check_msaa</text>
</a>
</g>
</g>
</g>
</svg>
