<?xml version="1.0" encoding="UTF-8" standalone="no"?>
<!DOCTYPE svg PUBLIC "-//W3C//DTD SVG 1.1//EN"
 "http://www.w3.org/Graphics/SVG/1.1/DTD/svg11.dtd">
<!-- Generated by graphviz version 14.1.1 (0)
 -->
<!-- Pages: 1 -->
<svg width="1256pt" height="561pt"
 viewBox="0.00 0.00 1256.00 561.00" xmlns="http://www.w3.org/2000/svg" xmlns:xlink="http://www.w3.org/1999/xlink">
<g id="graph0" class="graph" transform="scale(1 1) rotate(0) translate(4 557)">
<polygon fill="#0d1117" stroke="none" points="-4,4 -4,-557 1251.5,-557 1251.5,4 -4,4"/>
<g id="clust1" class="cluster">
<title>clusternode_Set(SystemSetKey(12v1))</title>
<g id="a_clust1"><a xlink:title="GizmoMeshSystems">
<path fill="#ffffff" fill-opacity="0.266667" stroke="#ffffff" stroke-width="2" stroke-opacity="0.313725" d="M446,-71C446,-71 817,-71 817,-71 823,-71 829,-77 829,-83 829,-83 829,-245 829,-245 829,-251 823,-257 817,-257 817,-257 446,-257 446,-257 440,-257 434,-251 434,-245 434,-245 434,-83 434,-83 434,-77 440,-71 446,-71"/>
<text xml:space="preserve" text-anchor="middle" x="631.5" y="-239.7" font-family="Helvetica,sans-Serif" font-size="14.00" fill="#ffffff">GizmoMeshSystems</text>
</a>
</g>
</g>
<!-- set_marker_node_Set(SystemSetKey(12v1)) -->
<!-- node_System(SystemKey(11v1)) -->
<g id="node2" class="node">
<title>node_System(SystemKey(11v1))</title>
<g id="a_node2"><a xlink:title="bevy_gizmos::update_gizmo_meshes&lt;bevy_gizmos::config::DefaultGizmoConfigGroup&gt;">
<polygon fill="#eff1f3" stroke="#b4bec7" points="821,-130 442,-130 442,-94 821,-94 821,-130"/>
<text xml:space="preserve" text-anchor="middle" x="631.5" y="-107.33" font-family="Helvetica,sans-Serif" font-size="14.00" fill="#15191d">update_gizmo_meshes&lt;DefaultGizmoConfigGroup&gt;</text>
</a>
</g>
</g>
<!-- node_System(SystemKey(13v1)) -->
<g id="node3" class="node">
<title>node_System(SystemKey(13v1))</title>
<g id="a_node3"><a xlink:title="bevy_gizmos::update_gizmo_meshes&lt;bevy_gizmos::aabb::AabbGizmoConfigGroup&gt;">
<polygon fill="#eff1f3" stroke="#b4bec7" points="813.88,-177 449.12,-177 449.12,-141 813.88,-141 813.88,-177"/>
<text xml:space="preserve" text-anchor="middle" x="631.5" y="-154.32" font-family="Helvetica,sans-Serif" font-size="14.00" fill="#15191d">update_gizmo_meshes&lt;AabbGizmoConfigGroup&gt;</text>
</a>
</g>
</g>
<!-- node_System(SystemKey(16v1)) -->
<g id="node4" class="node">
<title>node_System(SystemKey(16v1))</title>
<g id="a_node4"><a xlink:title="bevy_gizmos::update_gizmo_meshes&lt;bevy_gizmos::light::LightGizmoConfigGroup&gt;">
<polygon fill="#eff1f3" stroke="#b4bec7" points="813.12,-224 449.88,-224 449.88,-188 813.12,-188 813.12,-224"/>
<text xml:space="preserve" text-anchor="middle" x="631.5" y="-201.32" font-family="Helvetica,sans-Serif" font-size="14.00" fill="#15191d">update_gizmo_meshes&lt;LightGizmoConfigGroup&gt;</text>
</a>
</g>
</g>
<!-- node_System(SystemKey(1v1)) -->
<g id="node5" class="node">
<title>node_System(SystemKey(1v1))</title>
<g id="a_node5"><a xlink:title="bevy_app::task_pool_plugin::tick_global_task_pools">
<polygon fill="lightgrey" stroke="black" points="289.75,-224 116.25,-224 116.25,-188 289.75,-188 289.75,-224"/>
<text xml:space="preserve" text-anchor="middle" x="203" y="-201.32" font-family="Times,serif" font-size="14.00">tick_global_task_pools</text>
</a>
</g>
</g>
<!-- node_System(SystemKey(2v1)) -->
<g id="node6" class="node">
<title>node_System(SystemKey(2v1))</title>
<g id="a_node6"><a xlink:title="bevy_diagnostic::frame_count_diagnostics_plugin::update_frame_count">
<polygon fill="lightgrey" stroke="black" points="283.38,-271 122.62,-271 122.62,-235 283.38,-235 283.38,-271"/>
<text xml:space="preserve" text-anchor="middle" x="203" y="-248.32" font-family="Times,serif" font-size="14.00">update_frame_count</text>
</a>
</g>
</g>
<!-- node_System(SystemKey(3v1)) -->
<g id="node7" class="node">
<title>node_System(SystemKey(3v1))</title>
<g id="a_node7"><a xlink:title="bevy_winit::system::changed_windows">
<polygon fill="lightgrey" stroke="black" points="275.5,-318 130.5,-318 130.5,-282 275.5,-282 275.5,-318"/>
<text xml:space="preserve" text-anchor="middle" x="203" y="-295.32" font-family="Times,serif" font-size="14.00">changed_windows</text>
</a>
</g>
</g>
<!-- node_System(SystemKey(4v1)) -->
<g id="node8" class="node">
<title>node_System(SystemKey(4v1))</title>
<g id="a_node8"><a xlink:title="bevy_winit::system::changed_cursor_options">
<polygon fill="lightgrey" stroke="black" points="725.38,-318 537.62,-318 537.62,-282 725.38,-282 725.38,-318"/>
<text xml:space="preserve" text-anchor="middle" x="631.5" y="-295.32" font-family="Times,serif" font-size="14.00">changed_cursor_options</text>
</a>
</g>
</g>
<!-- node_System(SystemKey(3v1))&#45;&gt;node_System(SystemKey(4v1)) -->
<g id="edge6" class="edge">
<title>node_System(SystemKey(3v1))&#45;&gt;node_System(SystemKey(4v1))</title>
<g id="a_edge6"><a xlink:title="changed_windows → changed_cursor_options">
<path fill="none" stroke="#0090cc" stroke-width="2" d="M275.87,-300C344.01,-300 447.2,-300 524.73,-300"/>
<polygon fill="#0090cc" stroke="#0090cc" stroke-width="2" points="524.4,-303.5 534.4,-300 524.4,-296.5 524.4,-303.5"/>
</a>
</g>
</g>
<!-- node_System(SystemKey(5v1)) -->
<g id="node9" class="node">
<title>node_System(SystemKey(5v1))</title>
<g id="a_node9"><a xlink:title="bevy_winit::system::despawn_windows">
<polygon fill="lightgrey" stroke="black" points="1005,-318 857,-318 857,-282 1005,-282 1005,-318"/>
<text xml:space="preserve" text-anchor="middle" x="931" y="-295.32" font-family="Times,serif" font-size="14.00">despawn_windows</text>
</a>
</g>
</g>
<!-- node_System(SystemKey(4v1))&#45;&gt;node_System(SystemKey(5v1)) -->
<g id="edge5" class="edge">
<title>node_System(SystemKey(4v1))&#45;&gt;node_System(SystemKey(5v1))</title>
<g id="a_edge5"><a xlink:title="changed_cursor_options → despawn_windows">
<path fill="none" stroke="#44d488" stroke-width="2" d="M725.81,-300C763.62,-300 807,-300 844.02,-300"/>
<polygon fill="#44d488" stroke="#44d488" stroke-width="2" points="843.8,-303.5 853.8,-300 843.8,-296.5 843.8,-303.5"/>
</a>
</g>
</g>
<!-- node_System(SystemKey(6v1)) -->
<g id="node10" class="node">
<title>node_System(SystemKey(6v1))</title>
<g id="a_node10"><a xlink:title="bevy_winit::system::check_keyboard_focus_lost">
<polygon fill="lightgrey" stroke="black" points="1247.5,-318 1041,-318 1041,-282 1247.5,-282 1247.5,-318"/>
<text xml:space="preserve" text-anchor="middle" x="1144.25" y="-295.32" font-family="Times,serif" font-size="14.00">check_keyboard_focus_lost</text>
</a>
</g>
</g>
<!-- node_System(SystemKey(5v1))&#45;&gt;node_System(SystemKey(6v1)) -->
<g id="edge7" class="edge">
<title>node_System(SystemKey(5v1))&#45;&gt;node_System(SystemKey(6v1))</title>
<g id="a_edge7"><a xlink:title="despawn_windows → check_keyboard_focus_lost">
<path fill="none" stroke="#ee9e44" stroke-width="2" d="M1005.29,-300C1012.62,-300 1020.18,-300 1027.81,-300"/>
<polygon fill="#ee9e44" stroke="#ee9e44" stroke-width="2" points="1027.65,-303.5 1037.65,-300 1027.65,-296.5 1027.65,-303.5"/>
</a>
</g>
</g>
<!-- node_System(SystemKey(7v1)) -->
<g id="node11" class="node">
<title>node_System(SystemKey(7v1))</title>
<g id="a_node11"><a xlink:title="bevy_winit::cursor::update_cursors">
<polygon fill="lightgrey" stroke="black" points="265.75,-365 140.25,-365 140.25,-329 265.75,-329 265.75,-365"/>
<text xml:space="preserve" text-anchor="middle" x="203" y="-342.32" font-family="Times,serif" font-size="14.00">update_cursors</text>
</a>
</g>
</g>
<!-- node_System(SystemKey(8v1)) -->
<g id="node12" class="node">
<title>node_System(SystemKey(8v1))</title>
<g id="a_node12"><a xlink:title="bevy_core_pipeline::oit::configure_depth_texture_usages">
<polygon fill="lightgrey" stroke="black" points="326.12,-412 79.88,-412 79.88,-376 326.12,-376 326.12,-412"/>
<text xml:space="preserve" text-anchor="middle" x="203" y="-389.32" font-family="Times,serif" font-size="14.00">configure_depth_texture_usages</text>
</a>
</g>
</g>
<!-- node_System(SystemKey(9v1)) -->
<g id="node13" class="node">
<title>node_System(SystemKey(9v1))</title>
<g id="a_node13"><a xlink:title="bevy_text::pipeline::trim_cosmic_cache">
<polygon fill="lightgrey" stroke="black" points="277.75,-459 128.25,-459 128.25,-423 277.75,-423 277.75,-459"/>
<text xml:space="preserve" text-anchor="middle" x="203" y="-436.32" font-family="Times,serif" font-size="14.00">trim_cosmic_cache</text>
</a>
</g>
</g>
<!-- node_System(SystemKey(10v1)) -->
<g id="node14" class="node">
<title>node_System(SystemKey(10v1))</title>
<g id="a_node14"><a xlink:title="bevy_gizmos::propagate_gizmos&lt;bevy_gizmos::config::DefaultGizmoConfigGroup, bevy_time::fixed::Fixed&gt;">
<polygon fill="lightgrey" stroke="black" points="406,-177 0,-177 0,-141 406,-141 406,-177"/>
<text xml:space="preserve" text-anchor="middle" x="203" y="-154.32" font-family="Times,serif" font-size="14.00">propagate_gizmos&lt;DefaultGizmoConfigGroup, Fixed&gt;</text>
</a>
</g>
</g>
<!-- node_System(SystemKey(10v1))&#45;&gt;set_marker_node_Set(SystemSetKey(12v1)) -->
<g id="edge4" class="edge">
<title>node_System(SystemKey(10v1))&#45;&gt;set_marker_node_Set(SystemSetKey(12v1))</title>
<g id="a_edge4"><a xlink:title="propagate_gizmos&lt;DefaultGizmoConfigGroup, Fixed&gt; → GizmoMeshSystems">
<path fill="none" stroke="#aa3a55" stroke-width="2" d="M398.28,-140.64C400.9,-139.17 403.48,-137.63 406,-136 422.12,-125.59 417.23,-110.09 424.71,-97.9"/>
<polygon fill="#aa3a55" stroke="#aa3a55" stroke-width="2" points="427.02,-100.54 431.81,-91.09 422.17,-95.49 427.02,-100.54"/>
</a>
</g>
</g>
<!-- node_System(SystemKey(12v1)) -->
<g id="node15" class="node">
<title>node_System(SystemKey(12v1))</title>
<g id="a_node15"><a xlink:title="bevy_gizmos::propagate_gizmos&lt;bevy_gizmos::aabb::AabbGizmoConfigGroup, bevy_time::fixed::Fixed&gt;">
<polygon fill="lightgrey" stroke="black" points="397.75,-130 8.25,-130 8.25,-94 397.75,-94 397.75,-130"/>
<text xml:space="preserve" text-anchor="middle" x="203" y="-107.33" font-family="Times,serif" font-size="14.00">propagate_gizmos&lt;AabbGizmoConfigGroup, Fixed&gt;</text>
</a>
</g>
</g>
<!-- node_System(SystemKey(12v1))&#45;&gt;set_marker_node_Set(SystemSetKey(12v1)) -->
<g id="edge1" class="edge">
<title>node_System(SystemKey(12v1))&#45;&gt;set_marker_node_Set(SystemSetKey(12v1))</title>
<g id="a_edge1"><a xlink:title="propagate_gizmos&lt;AabbGizmoConfigGroup, Fixed&gt; → GizmoMeshSystems">
<path fill="none" stroke="#eede00" stroke-width="2" d="M377.84,-93.52C392.34,-92.23 406.88,-91.02 421.07,-89.94"/>
<polygon fill="#eede00" stroke="#eede00" stroke-width="2" points="421.26,-93.44 430.98,-89.22 420.75,-86.46 421.26,-93.44"/>
</a>
</g>
</g>
<!-- node_System(SystemKey(14v1)) -->
<g id="node16" class="node">
<title>node_System(SystemKey(14v1))</title>
<g id="a_node16"><a xlink:title="bevy_gizmos::global::flush_global_gizmos">
<polygon fill="lightgrey" stroke="black" points="281.88,-83 124.12,-83 124.12,-47 281.88,-47 281.88,-83"/>
<text xml:space="preserve" text-anchor="middle" x="203" y="-60.33" font-family="Times,serif" font-size="14.00">flush_global_gizmos</text>
</a>
</g>
</g>
<!-- node_System(SystemKey(14v1))&#45;&gt;set_marker_node_Set(SystemSetKey(12v1)) -->
<g id="edge2" class="edge">
<title>node_System(SystemKey(14v1))&#45;&gt;set_marker_node_Set(SystemSetKey(12v1))</title>
<g id="a_edge2"><a xlink:title="flush_global_gizmos → GizmoMeshSystems">
<path fill="none" stroke="#881877" stroke-width="2" d="M282.23,-67.93C321.63,-69.41 371.49,-71.28 421.07,-73.14"/>
<polygon fill="#881877" stroke="#881877" stroke-width="2" points="420.85,-76.64 430.98,-73.51 421.12,-69.64 420.85,-76.64"/>
</a>
</g>
</g>
<!-- node_System(SystemKey(15v1)) -->
<g id="node17" class="node">
<title>node_System(SystemKey(15v1))</title>
<g id="a_node17"><a xlink:title="bevy_gizmos::propagate_gizmos&lt;bevy_gizmos::light::LightGizmoConfigGroup, bevy_time::fixed::Fixed&gt;">
<polygon fill="lightgrey" stroke="black" points="398.5,-36 7.5,-36 7.5,0 398.5,0 398.5,-36"/>
<text xml:space="preserve" text-anchor="middle" x="203" y="-13.32" font-family="Times,serif" font-size="14.00">propagate_gizmos&lt;LightGizmoConfigGroup, Fixed&gt;</text>
</a>
</g>
</g>
<!-- node_System(SystemKey(15v1))&#45;&gt;set_marker_node_Set(SystemSetKey(12v1)) -->
<g id="edge3" class="edge">
<title>node_System(SystemKey(15v1))&#45;&gt;set_marker_node_Set(SystemSetKey(12v1))</title>
<g id="a_edge3"><a xlink:title="propagate_gizmos&lt;LightGizmoConfigGroup, Fixed&gt; → GizmoMeshSystems">
<path fill="none" stroke="#00b0cc" stroke-width="2" d="M373.28,-36.48C384.37,-37.94 395.35,-39.45 406,-41 460.5,-48.95 522.06,-60.07 566.92,-68.57"/>
<polygon fill="#00b0cc" stroke="#00b0cc" stroke-width="2" points="566.24,-72 576.72,-70.44 567.55,-65.13 566.24,-72"/>
</a>
</g>
</g>
<!-- node_System(SystemKey(17v1)) -->
<g id="node18" class="node">
<title>node_System(SystemKey(17v1))</title>
<g id="a_node18"><a xlink:title="bevy_picking::input::deactivate_touch_pointers">
<polygon fill="lightgrey" stroke="black" points="304.38,-506 101.62,-506 101.62,-470 304.38,-470 304.38,-506"/>
<text xml:space="preserve" text-anchor="middle" x="203" y="-483.32" font-family="Times,serif" font-size="14.00">deactivate_touch_pointers</text>
</a>
</g>
</g>
<!-- node_System(SystemKey(18v1)) -->
<g id="node19" class="node">
<title>node_System(SystemKey(18v1))</title>
<g id="a_node19"><a xlink:title="bevy_ecs::apply_deferred">
<polygon fill="lightgrey" stroke="black" points="264.62,-553 141.38,-553 141.38,-517 264.62,-517 264.62,-553"/>
<text xml:space="preserve" text-anchor="middle" x="203" y="-530.33" font-family="Times,serif" font-size="14.00">apply_deferred</text>
</a>
</g>
</g>
</g>
</svg>
