<?xml version="1.0" encoding="UTF-8" standalone="no"?>
<!DOCTYPE svg PUBLIC "-//W3C//DTD SVG 1.1//EN"
 "http://www.w3.org/Graphics/SVG/1.1/DTD/svg11.dtd">
<!-- Generated by graphviz version 7.1.0 (0)
 -->
<!-- Pages: 1 -->
<svg width="1599pt" height="449pt"
 viewBox="0.00 0.00 1599.00 449.00" xmlns="http://www.w3.org/2000/svg" xmlns:xlink="http://www.w3.org/1999/xlink">
<g id="graph0" class="graph" transform="scale(1 1) rotate(0) translate(4 445)">
<polygon fill="#0d1117" stroke="none" points="-4,4 -4,-445 1595,-445 1595,4 -4,4"/>
<g id="clust1" class="cluster">
<title>clusternode_Set(0)</title>
<g id="a_clust1"><a xlink:title="Startup">
<polygon fill="#6f90ad" stroke="black" points="440,-48 440,-141 580,-141 580,-48 440,-48"/>
<text text-anchor="middle" x="510" y="-125.8" font-family="Helvetica,sans-Serif" font-size="14.00">Startup</text>
</a>
</g>
</g>
<g id="clust2" class="cluster">
<title>clusternode_Set(2)</title>
<g id="a_clust2"><a xlink:title="PreStartupFlush">
<polygon fill="#6f90ad" stroke="black" points="243,-48 243,-141 420,-141 420,-48 243,-48"/>
<text text-anchor="middle" x="331.5" y="-125.8" font-family="Helvetica,sans-Serif" font-size="14.00">PreStartupFlush</text>
</a>
</g>
</g>
<g id="clust3" class="cluster">
<title>clusternode_Set(3)</title>
<g id="a_clust3"><a xlink:title="StartupFlush">
<polygon fill="#6f90ad" stroke="black" points="739.5,-48 739.5,-141 916.5,-141 916.5,-48 739.5,-48"/>
<text text-anchor="middle" x="828" y="-125.8" font-family="Helvetica,sans-Serif" font-size="14.00">StartupFlush</text>
</a>
</g>
</g>
<g id="clust4" class="cluster">
<title>clusternode_Set(4)</title>
<g id="a_clust4"><a xlink:title="PostStartupFlush">
<polygon fill="#6f90ad" stroke="black" points="1406,-28 1406,-121 1583,-121 1583,-28 1406,-28"/>
<text text-anchor="middle" x="1494.5" y="-105.8" font-family="Helvetica,sans-Serif" font-size="14.00">PostStartupFlush</text>
</a>
</g>
</g>
<g id="clust5" class="cluster">
<title>clusternode_Set(5)</title>
<g id="a_clust5"><a xlink:title="PreStartup">
<polygon fill="#6f90ad" stroke="black" points="8,-48 8,-141 223,-141 223,-48 8,-48"/>
<text text-anchor="middle" x="115.5" y="-125.8" font-family="Helvetica,sans-Serif" font-size="14.00">PreStartup</text>
</a>
</g>
</g>
<g id="clust6" class="cluster">
<title>clusternode_Set(6)</title>
<g id="a_clust6"><a xlink:title="PostStartup">
<polygon fill="#6f90ad" stroke="black" points="1068,-82 1068,-433 1394,-433 1394,-82 1068,-82"/>
<text text-anchor="middle" x="1231" y="-417.8" font-family="Helvetica,sans-Serif" font-size="14.00">PostStartup</text>
</a>
</g>
</g>
<g id="clust7" class="cluster">
<title>clusternode_Set(7)</title>
<g id="a_clust7"><a xlink:title="TransformPropagate">
<polygon fill="#6f90ad" stroke="black" points="1133.5,-309 1133.5,-402 1328.5,-402 1328.5,-309 1133.5,-309"/>
<text text-anchor="middle" x="1231" y="-386.8" font-family="Helvetica,sans-Serif" font-size="14.00">TransformPropagate</text>
</a>
</g>
</g>
<g id="clust8" class="cluster">
<title>clusternode_Set(12)</title>
<g id="a_clust8"><a xlink:title="CameraUpdateSystem">
<polygon fill="#6f90ad" stroke="black" points="1076,-100 1076,-301 1386,-301 1386,-100 1076,-100"/>
<text text-anchor="middle" x="1231" y="-285.8" font-family="Helvetica,sans-Serif" font-size="14.00">CameraUpdateSystem</text>
</a>
</g>
</g>
<g id="clust9" class="cluster">
<title>clusternode_Set(9)</title>
<g id="a_clust9"><a xlink:title="PropagateTransformsSet">
<polygon fill="#6f90ad" stroke="black" points="1141,-11 1141,-50 1321,-50 1321,-11 1141,-11"/>
<text text-anchor="middle" x="1231" y="-34.8" font-family="Helvetica,sans-Serif" font-size="14.00">PropagateTransformsSet</text>
</a>
</g>
</g>
<!-- set_marker_node_Set(0) -->
<!-- set_marker_node_Set(3) -->
<!-- set_marker_node_Set(0)&#45;&gt;set_marker_node_Set(3) -->
<g id="edge5" class="edge">
<title>set_marker_node_Set(0)&#45;&gt;set_marker_node_Set(3)</title>
<g id="a_edge5"><a xlink:title="Startup → StartupFlush">
<path fill="none" stroke="#00b0cc" stroke-width="2" d="M580,-110C622.89,-110 678.78,-110 726.54,-110"/>
<polygon fill="#00b0cc" stroke="#00b0cc" stroke-width="2" points="726.47,-113.5 736.47,-110 726.47,-106.5 726.47,-113.5"/>
</a>
</g>
</g>
<!-- node_System(5) -->
<g id="node2" class="node">
<title>node_System(5)</title>
<g id="a_node2"><a xlink:title="bevy_diagnostic::system_information_diagnostics_plugin::internal::log_system_info">
<polygon fill="#eff1f3" stroke="#eff1f3" points="572,-92 448,-92 448,-56 572,-56 572,-92"/>
<text text-anchor="middle" x="510" y="-70.3" font-family="Times,serif" font-size="14.00">log_system_info</text>
</a>
</g>
</g>
<!-- set_marker_node_Set(2) -->
<!-- set_marker_node_Set(2)&#45;&gt;set_marker_node_Set(0) -->
<g id="edge4" class="edge">
<title>set_marker_node_Set(2)&#45;&gt;set_marker_node_Set(0)</title>
<g id="a_edge4"><a xlink:title="PreStartupFlush → Startup">
<path fill="none" stroke="#881877" stroke-width="2" d="M420,-110C422.39,-110 424.78,-110 427.16,-110"/>
<polygon fill="#881877" stroke="#881877" stroke-width="2" points="426.98,-113.5 436.98,-110 426.98,-106.5 426.98,-113.5"/>
</a>
</g>
</g>
<!-- node_System(0) -->
<g id="node4" class="node">
<title>node_System(0)</title>
<g id="a_node4"><a xlink:title="bevy_ecs::schedule::executor::apply_system_buffers">
<polygon fill="#eff1f3" stroke="#eff1f3" points="412,-92 251,-92 251,-56 412,-56 412,-92"/>
<text text-anchor="middle" x="331.5" y="-70.3" font-family="Times,serif" font-size="14.00">apply_system_buffers</text>
</a>
</g>
</g>
<!-- set_marker_node_Set(6) -->
<!-- set_marker_node_Set(3)&#45;&gt;set_marker_node_Set(6) -->
<g id="edge6" class="edge">
<title>set_marker_node_Set(3)&#45;&gt;set_marker_node_Set(6)</title>
<g id="a_edge6"><a xlink:title="StartupFlush → PostStartup">
<path fill="none" stroke="#aa3a55" stroke-width="2" d="M916.5,-110.48C956.73,-109.66 1004.97,-107.2 1048,-101 1051.26,-100.53 1053.59,-99.92 1055.65,-99.27"/>
<polygon fill="#aa3a55" stroke="#aa3a55" stroke-width="2" points="1056.3,-102.72 1065.07,-96.77 1054.51,-95.95 1056.3,-102.72"/>
</a>
</g>
</g>
<!-- node_System(1) -->
<g id="node6" class="node">
<title>node_System(1)</title>
<g id="a_node6"><a xlink:title="bevy_ecs::schedule::executor::apply_system_buffers">
<polygon fill="#eff1f3" stroke="#eff1f3" points="908.5,-92 747.5,-92 747.5,-56 908.5,-56 908.5,-92"/>
<text text-anchor="middle" x="828" y="-70.3" font-family="Times,serif" font-size="14.00">apply_system_buffers</text>
</a>
</g>
</g>
<!-- set_marker_node_Set(4) -->
<!-- node_System(2) -->
<g id="node8" class="node">
<title>node_System(2)</title>
<g id="a_node8"><a xlink:title="bevy_ecs::schedule::executor::apply_system_buffers">
<polygon fill="#eff1f3" stroke="#eff1f3" points="1575,-72 1414,-72 1414,-36 1575,-36 1575,-72"/>
<text text-anchor="middle" x="1494.5" y="-50.3" font-family="Times,serif" font-size="14.00">apply_system_buffers</text>
</a>
</g>
</g>
<!-- set_marker_node_Set(5) -->
<!-- set_marker_node_Set(5)&#45;&gt;set_marker_node_Set(2) -->
<g id="edge3" class="edge">
<title>set_marker_node_Set(5)&#45;&gt;set_marker_node_Set(2)</title>
<g id="a_edge3"><a xlink:title="PreStartup → PreStartupFlush">
<path fill="none" stroke="#eede00" stroke-width="2" d="M223,-110C225.36,-110 227.73,-110 230.1,-110"/>
<polygon fill="#eede00" stroke="#eede00" stroke-width="2" points="229.97,-113.5 239.97,-110 229.97,-106.5 229.97,-113.5"/>
</a>
</g>
</g>
<!-- node_System(9) -->
<g id="node10" class="node">
<title>node_System(9)</title>
<g id="a_node10"><a xlink:title="bevy_gilrs::gilrs_system::gilrs_event_startup_system">
<polygon fill="#eff1f3" stroke="#eff1f3" points="215,-92 16,-92 16,-56 215,-56 215,-92"/>
<text text-anchor="middle" x="115.5" y="-70.3" font-family="Times,serif" font-size="14.00">gilrs_event_startup_system</text>
</a>
</g>
</g>
<!-- set_marker_node_Set(6)&#45;&gt;set_marker_node_Set(4) -->
<g id="edge7" class="edge">
<title>set_marker_node_Set(6)&#45;&gt;set_marker_node_Set(4)</title>
<g id="a_edge7"><a xlink:title="PostStartup → PostStartupFlush">
<path fill="none" stroke="#44d488" stroke-width="2" d="M1394,-90C1397,-90 1400,-90 1403,-90"/>
<polygon fill="#44d488" stroke="#44d488" stroke-width="2" points="1392.98,-93.5 1402.98,-90 1392.98,-86.5 1392.98,-93.5"/>
</a>
</g>
</g>
<!-- set_marker_node_Set(7) -->
<!-- node_System(3) -->
<g id="node13" class="node">
<title>node_System(3)</title>
<g id="a_node13"><a xlink:title="bevy_transform::systems::sync_simple_transforms">
<polygon fill="#eff1f3" stroke="#eff1f3" points="1320.5,-353 1141.5,-353 1141.5,-317 1320.5,-317 1320.5,-353"/>
<text text-anchor="middle" x="1231" y="-331.3" font-family="Times,serif" font-size="14.00">sync_simple_transforms</text>
</a>
</g>
</g>
<!-- set_marker_node_Set(12) -->
<!-- node_System(6) -->
<g id="node15" class="node">
<title>node_System(6)</title>
<g id="a_node15"><a xlink:title="bevy_render::camera::camera::camera_system&lt;bevy_render::camera::projection::Projection&gt;">
<polygon fill="#eff1f3" stroke="#eff1f3" points="1333,-252 1129,-252 1129,-216 1333,-216 1333,-252"/>
<text text-anchor="middle" x="1231" y="-230.3" font-family="Times,serif" font-size="14.00">camera_system&lt;Projection&gt;</text>
</a>
</g>
</g>
<!-- node_System(7) -->
<g id="node16" class="node">
<title>node_System(7)</title>
<g id="a_node16"><a xlink:title="bevy_render::camera::camera::camera_system&lt;bevy_render::camera::projection::OrthographicProjection&gt;">
<polygon fill="#eff1f3" stroke="#eff1f3" points="1378,-198 1084,-198 1084,-162 1378,-162 1378,-198"/>
<text text-anchor="middle" x="1231" y="-176.3" font-family="Times,serif" font-size="14.00">camera_system&lt;OrthographicProjection&gt;</text>
</a>
</g>
</g>
<!-- node_System(8) -->
<g id="node17" class="node">
<title>node_System(8)</title>
<g id="a_node17"><a xlink:title="bevy_render::camera::camera::camera_system&lt;bevy_render::camera::projection::PerspectiveProjection&gt;">
<polygon fill="#eff1f3" stroke="#eff1f3" points="1371.5,-144 1090.5,-144 1090.5,-108 1371.5,-108 1371.5,-144"/>
<text text-anchor="middle" x="1231" y="-122.3" font-family="Times,serif" font-size="14.00">camera_system&lt;PerspectiveProjection&gt;</text>
</a>
</g>
</g>
<!-- set_marker_node_Set(9) -->
<!-- node_System(4) -->
<g id="node19" class="node">
<title>node_System(4)</title>
<g id="a_node19"><a xlink:title="bevy_transform::systems::propagate_transforms">
<polygon fill="#eff1f3" stroke="#eff1f3" points="1048,-38 608,-38 608,0 1048,0 1048,-38"/>
<text text-anchor="middle" x="828" y="-22.8" font-family="Times,serif" font-size="14.00">propagate_transforms</text>
<text text-anchor="middle" x="828" y="-7.8" font-family="Times,serif" font-size="14.00">In multiple sets, TransformPropagate, PropagateTransformsSet</text>
</a>
</g>
</g>
<!-- node_System(4)&#45;&gt;set_marker_node_Set(7) -->
<g id="edge1" class="edge">
<title>node_System(4)&#45;&gt;set_marker_node_Set(7)</title>
<path fill="none" stroke="blue" stroke-width="2" d="M1042.28,-38.43C1044.25,-40.2 1046.15,-42.06 1048,-44 1096.78,-95.32 1017.75,-312.12 1068,-362 1085.24,-379.11 1109.25,-385.72 1133.5,-386.95"/>
</g>
<!-- node_System(4)&#45;&gt;set_marker_node_Set(9) -->
<g id="edge2" class="edge">
<title>node_System(4)&#45;&gt;set_marker_node_Set(9)</title>
<path fill="none" stroke="blue" stroke-width="2" d="M1048.27,-19C1081.04,-19 1113.13,-19 1141,-19"/>
</g>
</g>
</svg>
