<?xml version="1.0" encoding="UTF-8" standalone="no"?>
<!DOCTYPE svg PUBLIC "-//W3C//DTD SVG 1.1//EN"
 "http://www.w3.org/Graphics/SVG/1.1/DTD/svg11.dtd">
<!-- Generated by graphviz version 9.0.0 (0)
 -->
<!-- Pages: 1 -->
<svg width="674pt" height="1052pt"
 viewBox="0.00 0.00 674.00 1052.00" xmlns="http://www.w3.org/2000/svg" xmlns:xlink="http://www.w3.org/1999/xlink">
<g id="graph0" class="graph" transform="scale(1 1) rotate(0) translate(4 1048)">
<polygon fill="#0d1117" stroke="none" points="-4,4 -4,-1048 670,-1048 670,4 -4,4"/>
<g id="clust1" class="cluster">
<title>clusternode_Set(1)</title>
<g id="a_clust1"><a xlink:title="TrackAssets">
<path fill="#ffffff" fill-opacity="0.266667" stroke="#ffffff" stroke-width="2" stroke-opacity="0.313725" d="M265.25,-8C265.25,-8 646,-8 646,-8 652,-8 658,-14 658,-20 658,-20 658,-1024 658,-1024 658,-1030 652,-1036 646,-1036 646,-1036 265.25,-1036 265.25,-1036 259.25,-1036 253.25,-1030 253.25,-1024 253.25,-1024 253.25,-20 253.25,-20 253.25,-14 259.25,-8 265.25,-8"/>
<text text-anchor="middle" x="455.62" y="-1018.7" font-family="Helvetica,sans-Serif" font-size="14.00" fill="#ffffff">TrackAssets</text>
</a>
</g>
</g>
<!-- set_marker_node_Set(1) -->
<!-- node_System(0) -->
<g id="node2" class="node">
<title>node_System(0)</title>
<g id="a_node2"><a xlink:title="bevy_asset::assets::Assets&lt;bevy_asset::folder::LoadedFolder&gt;::track_assets">
<polygon fill="#d1cbc5" stroke="#a3978c" points="588.12,-992 323.12,-992 323.12,-956 588.12,-956 588.12,-992"/>
<text text-anchor="middle" x="455.62" y="-969.33" font-family="Helvetica,sans-Serif" font-size="14.00" fill="#1c1916">Assets&lt;LoadedFolder&gt;track_assets</text>
</a>
</g>
</g>
<!-- node_System(1) -->
<g id="node3" class="node">
<title>node_System(1)</title>
<g id="a_node3"><a xlink:title="bevy_asset::assets::Assets&lt;bevy_asset::assets::LoadedUntypedAsset&gt;::track_assets">
<polygon fill="#d1cbc5" stroke="#a3978c" points="615.5,-945 295.75,-945 295.75,-909 615.5,-909 615.5,-945"/>
<text text-anchor="middle" x="455.62" y="-922.33" font-family="Helvetica,sans-Serif" font-size="14.00" fill="#1c1916">Assets&lt;LoadedUntypedAsset&gt;track_assets</text>
</a>
</g>
</g>
<!-- node_System(2) -->
<g id="node4" class="node">
<title>node_System(2)</title>
<g id="a_node4"><a xlink:title="bevy_asset::assets::Assets&lt;()&gt;::track_assets">
<polygon fill="#d1cbc5" stroke="#a3978c" points="546.88,-898 364.38,-898 364.38,-862 546.88,-862 546.88,-898"/>
<text text-anchor="middle" x="455.62" y="-875.33" font-family="Helvetica,sans-Serif" font-size="14.00" fill="#1c1916">Assets&lt;()&gt;track_assets</text>
</a>
</g>
</g>
<!-- node_System(4) -->
<g id="node5" class="node">
<title>node_System(4)</title>
<g id="a_node5"><a xlink:title="bevy_asset::assets::Assets&lt;bevy_scene::dynamic_scene::DynamicScene&gt;::track_assets">
<polygon fill="#d1cbc5" stroke="#a3978c" points="593,-851 318.25,-851 318.25,-815 593,-815 593,-851"/>
<text text-anchor="middle" x="455.62" y="-828.33" font-family="Helvetica,sans-Serif" font-size="14.00" fill="#1c1916">Assets&lt;DynamicScene&gt;track_assets</text>
</a>
</g>
</g>
<!-- node_System(5) -->
<g id="node6" class="node">
<title>node_System(5)</title>
<g id="a_node6"><a xlink:title="bevy_asset::assets::Assets&lt;bevy_scene::scene::Scene&gt;::track_assets">
<polygon fill="#d1cbc5" stroke="#a3978c" points="562.62,-804 348.62,-804 348.62,-768 562.62,-768 562.62,-804"/>
<text text-anchor="middle" x="455.62" y="-781.33" font-family="Helvetica,sans-Serif" font-size="14.00" fill="#1c1916">Assets&lt;Scene&gt;track_assets</text>
</a>
</g>
</g>
<!-- node_System(6) -->
<g id="node7" class="node">
<title>node_System(6)</title>
<g id="a_node7"><a xlink:title="bevy_asset::assets::Assets&lt;bevy_render::render_resource::shader::Shader&gt;::track_assets">
<polygon fill="#d1cbc5" stroke="#a3978c" points="566.38,-757 344.88,-757 344.88,-721 566.38,-721 566.38,-757"/>
<text text-anchor="middle" x="455.62" y="-734.33" font-family="Helvetica,sans-Serif" font-size="14.00" fill="#1c1916">Assets&lt;Shader&gt;track_assets</text>
</a>
</g>
</g>
<!-- node_System(7) -->
<g id="node8" class="node">
<title>node_System(7)</title>
<g id="a_node8"><a xlink:title="bevy_asset::assets::Assets&lt;bevy_render::mesh::mesh::Mesh&gt;::track_assets">
<polygon fill="#d1cbc5" stroke="#a3978c" points="560,-710 351.25,-710 351.25,-674 560,-674 560,-710"/>
<text text-anchor="middle" x="455.62" y="-687.33" font-family="Helvetica,sans-Serif" font-size="14.00" fill="#1c1916">Assets&lt;Mesh&gt;track_assets</text>
</a>
</g>
</g>
<!-- node_System(8) -->
<g id="node9" class="node">
<title>node_System(8)</title>
<g id="a_node9"><a xlink:title="bevy_asset::assets::Assets&lt;bevy_render::mesh::mesh::skinning::SkinnedMeshInverseBindposes&gt;::track_assets">
<polygon fill="#d1cbc5" stroke="#a3978c" points="650,-663 261.25,-663 261.25,-627 650,-627 650,-663"/>
<text text-anchor="middle" x="455.62" y="-640.33" font-family="Helvetica,sans-Serif" font-size="14.00" fill="#1c1916">Assets&lt;SkinnedMeshInverseBindposes&gt;track_assets</text>
</a>
</g>
</g>
<!-- node_System(9) -->
<g id="node10" class="node">
<title>node_System(9)</title>
<g id="a_node10"><a xlink:title="bevy_asset::assets::Assets&lt;bevy_render::texture::image::Image&gt;::track_assets">
<polygon fill="#d1cbc5" stroke="#a3978c" points="563.38,-616 347.88,-616 347.88,-580 563.38,-580 563.38,-616"/>
<text text-anchor="middle" x="455.62" y="-593.33" font-family="Helvetica,sans-Serif" font-size="14.00" fill="#1c1916">Assets&lt;Image&gt;track_assets</text>
</a>
</g>
</g>
<!-- node_System(10) -->
<g id="node11" class="node">
<title>node_System(10)</title>
<g id="a_node11"><a xlink:title="bevy_asset::assets::Assets&lt;bevy_sprite::texture_atlas::TextureAtlas&gt;::track_assets">
<polygon fill="#d1cbc5" stroke="#a3978c" points="583.62,-569 327.62,-569 327.62,-533 583.62,-533 583.62,-569"/>
<text text-anchor="middle" x="455.62" y="-546.33" font-family="Helvetica,sans-Serif" font-size="14.00" fill="#1c1916">Assets&lt;TextureAtlas&gt;track_assets</text>
</a>
</g>
</g>
<!-- node_System(11) -->
<g id="node12" class="node">
<title>node_System(11)</title>
<g id="a_node12"><a xlink:title="bevy_asset::assets::Assets&lt;bevy_sprite::mesh2d::color_material::ColorMaterial&gt;::track_assets">
<polygon fill="#d1cbc5" stroke="#a3978c" points="587.38,-522 323.88,-522 323.88,-486 587.38,-486 587.38,-522"/>
<text text-anchor="middle" x="455.62" y="-499.32" font-family="Helvetica,sans-Serif" font-size="14.00" fill="#1c1916">Assets&lt;ColorMaterial&gt;track_assets</text>
</a>
</g>
</g>
<!-- node_System(12) -->
<g id="node13" class="node">
<title>node_System(12)</title>
<g id="a_node13"><a xlink:title="bevy_asset::assets::Assets&lt;bevy_text::font::Font&gt;::track_assets">
<polygon fill="#d1cbc5" stroke="#a3978c" points="556.62,-475 354.62,-475 354.62,-439 556.62,-439 556.62,-475"/>
<text text-anchor="middle" x="455.62" y="-452.32" font-family="Helvetica,sans-Serif" font-size="14.00" fill="#1c1916">Assets&lt;Font&gt;track_assets</text>
</a>
</g>
</g>
<!-- node_System(13) -->
<g id="node14" class="node">
<title>node_System(13)</title>
<g id="a_node14"><a xlink:title="bevy_asset::assets::Assets&lt;bevy_pbr::pbr_material::StandardMaterial&gt;::track_assets">
<polygon fill="#d1cbc5" stroke="#a3978c" points="600.88,-428 310.38,-428 310.38,-392 600.88,-392 600.88,-428"/>
<text text-anchor="middle" x="455.62" y="-405.32" font-family="Helvetica,sans-Serif" font-size="14.00" fill="#1c1916">Assets&lt;StandardMaterial&gt;track_assets</text>
</a>
</g>
</g>
<!-- node_System(14) -->
<g id="node15" class="node">
<title>node_System(14)</title>
<g id="a_node15"><a xlink:title="bevy_asset::assets::Assets&lt;bevy_gltf::Gltf&gt;::track_assets">
<polygon fill="#d1cbc5" stroke="#a3978c" points="554,-381 357.25,-381 357.25,-345 554,-345 554,-381"/>
<text text-anchor="middle" x="455.62" y="-358.32" font-family="Helvetica,sans-Serif" font-size="14.00" fill="#1c1916">Assets&lt;Gltf&gt;track_assets</text>
</a>
</g>
</g>
<!-- node_System(15) -->
<g id="node16" class="node">
<title>node_System(15)</title>
<g id="a_node16"><a xlink:title="bevy_asset::assets::Assets&lt;bevy_gltf::GltfNode&gt;::track_assets">
<polygon fill="#d1cbc5" stroke="#a3978c" points="572,-334 339.25,-334 339.25,-298 572,-298 572,-334"/>
<text text-anchor="middle" x="455.62" y="-311.32" font-family="Helvetica,sans-Serif" font-size="14.00" fill="#1c1916">Assets&lt;GltfNode&gt;track_assets</text>
</a>
</g>
</g>
<!-- node_System(16) -->
<g id="node17" class="node">
<title>node_System(16)</title>
<g id="a_node17"><a xlink:title="bevy_asset::assets::Assets&lt;bevy_gltf::GltfPrimitive&gt;::track_assets">
<polygon fill="#d1cbc5" stroke="#a3978c" points="584.38,-287 326.88,-287 326.88,-251 584.38,-251 584.38,-287"/>
<text text-anchor="middle" x="455.62" y="-264.32" font-family="Helvetica,sans-Serif" font-size="14.00" fill="#1c1916">Assets&lt;GltfPrimitive&gt;track_assets</text>
</a>
</g>
</g>
<!-- node_System(17) -->
<g id="node18" class="node">
<title>node_System(17)</title>
<g id="a_node18"><a xlink:title="bevy_asset::assets::Assets&lt;bevy_gltf::GltfMesh&gt;::track_assets">
<polygon fill="#d1cbc5" stroke="#a3978c" points="572.38,-240 338.88,-240 338.88,-204 572.38,-204 572.38,-240"/>
<text text-anchor="middle" x="455.62" y="-217.32" font-family="Helvetica,sans-Serif" font-size="14.00" fill="#1c1916">Assets&lt;GltfMesh&gt;track_assets</text>
</a>
</g>
</g>
<!-- node_System(18) -->
<g id="node19" class="node">
<title>node_System(18)</title>
<g id="a_node19"><a xlink:title="bevy_asset::assets::Assets&lt;bevy_audio::audio_source::AudioSource&gt;::track_assets">
<polygon fill="#d1cbc5" stroke="#a3978c" points="585.12,-193 326.12,-193 326.12,-157 585.12,-157 585.12,-193"/>
<text text-anchor="middle" x="455.62" y="-170.32" font-family="Helvetica,sans-Serif" font-size="14.00" fill="#1c1916">Assets&lt;AudioSource&gt;track_assets</text>
</a>
</g>
</g>
<!-- node_System(19) -->
<g id="node20" class="node">
<title>node_System(19)</title>
<g id="a_node20"><a xlink:title="bevy_asset::assets::Assets&lt;bevy_audio::pitch::Pitch&gt;::track_assets">
<polygon fill="#d1cbc5" stroke="#a3978c" points="558.5,-146 352.75,-146 352.75,-110 558.5,-110 558.5,-146"/>
<text text-anchor="middle" x="455.62" y="-123.33" font-family="Helvetica,sans-Serif" font-size="14.00" fill="#1c1916">Assets&lt;Pitch&gt;track_assets</text>
</a>
</g>
</g>
<!-- node_System(20) -->
<g id="node21" class="node">
<title>node_System(20)</title>
<g id="a_node21"><a xlink:title="bevy_asset::assets::Assets&lt;bevy_animation::AnimationClip&gt;::track_assets">
<polygon fill="#d1cbc5" stroke="#a3978c" points="590,-99 321.25,-99 321.25,-63 590,-63 590,-99"/>
<text text-anchor="middle" x="455.62" y="-76.33" font-family="Helvetica,sans-Serif" font-size="14.00" fill="#1c1916">Assets&lt;AnimationClip&gt;track_assets</text>
</a>
</g>
</g>
<!-- node_System(21) -->
<g id="node22" class="node">
<title>node_System(21)</title>
<g id="a_node22"><a xlink:title="bevy_asset::assets::Assets&lt;bevy_gizmos::LineGizmo&gt;::track_assets">
<polygon fill="#d1cbc5" stroke="#a3978c" points="577.62,-52 333.62,-52 333.62,-16 577.62,-16 577.62,-52"/>
<text text-anchor="middle" x="455.62" y="-29.32" font-family="Helvetica,sans-Serif" font-size="14.00" fill="#1c1916">Assets&lt;LineGizmo&gt;track_assets</text>
</a>
</g>
</g>
<!-- node_System(3) -->
<g id="node23" class="node">
<title>node_System(3)</title>
<g id="a_node23"><a xlink:title="bevy_asset::server::handle_internal_asset_events">
<polygon fill="lightgrey" stroke="black" points="225.25,-1021 0,-1021 0,-985 225.25,-985 225.25,-1021"/>
<text text-anchor="middle" x="112.62" y="-998.33" font-family="Times,serif" font-size="14.00">handle_internal_asset_events</text>
</a>
</g>
</g>
<!-- node_System(3)&#45;&gt;set_marker_node_Set(1) -->
<g id="edge1" class="edge">
<title>node_System(3)&#45;&gt;set_marker_node_Set(1)</title>
<g id="a_edge1"><a xlink:title="SystemTypeSet(handle_internal_asset_events()) → TrackAssets">
<path fill="none" stroke="#eede00" stroke-width="2" d="M225.28,-1003C230.26,-1003 235.32,-1003 240.43,-1003"/>
<polygon fill="#eede00" stroke="#eede00" stroke-width="2" points="240.22,-1006.5 250.22,-1003 240.22,-999.5 240.22,-1006.5"/>
</a>
</g>
</g>
</g>
</svg>
