<?xml version="1.0" encoding="UTF-8" standalone="no"?>
<!DOCTYPE svg PUBLIC "-//W3C//DTD SVG 1.1//EN"
 "http://www.w3.org/Graphics/SVG/1.1/DTD/svg11.dtd">
<!-- Generated by graphviz version 12.1.2 (0)
 -->
<!-- Pages: 1 -->
<svg width="674pt" height="1035pt"
 viewBox="0.00 0.00 674.00 1035.45" xmlns="http://www.w3.org/2000/svg" xmlns:xlink="http://www.w3.org/1999/xlink">
<g id="graph0" class="graph" transform="scale(1 1) rotate(0) translate(4 1031.45)">
<polygon fill="#0d1117" stroke="none" points="-4,4 -4,-1031.45 670,-1031.45 670,4 -4,4"/>
<g id="clust1" class="cluster">
<title>clusternode_Set(1)</title>
<g id="a_clust1"><a xlink:title="TrackAssets">
<path fill="#ffffff" fill-opacity="0.266667" stroke="#ffffff" stroke-width="2" stroke-opacity="0.313725" d="M265.25,-63.45C265.25,-63.45 646,-63.45 646,-63.45 652,-63.45 658,-69.45 658,-75.45 658,-75.45 658,-1007.45 658,-1007.45 658,-1013.45 652,-1019.45 646,-1019.45 646,-1019.45 265.25,-1019.45 265.25,-1019.45 259.25,-1019.45 253.25,-1013.45 253.25,-1007.45 253.25,-1007.45 253.25,-75.45 253.25,-75.45 253.25,-69.45 259.25,-63.45 265.25,-63.45"/>
<text text-anchor="middle" x="455.62" y="-1002.15" font-family="Helvetica,sans-Serif" font-size="14.00" fill="#ffffff">TrackAssets</text>
</a>
</g>
</g>
<!-- set_marker_node_Set(1) -->
<!-- node_System(0) -->
<g id="node2" class="node">
<title>node_System(0)</title>
<g id="a_node2"><a xlink:title="bevy_asset::assets::Assets&lt;bevy_asset::folder::LoadedFolder&gt;::track_assets">
<polygon fill="#d1cbc5" stroke="#a3978c" points="588.12,-46.45 323.12,-46.45 323.12,-10.45 588.12,-10.45 588.12,-46.45"/>
<text text-anchor="middle" x="455.62" y="-23.77" font-family="Helvetica,sans-Serif" font-size="14.00" fill="#1c1916">Assets&lt;LoadedFolder&gt;track_assets</text>
</a>
</g>
</g>
<!-- node_System(1) -->
<g id="node3" class="node">
<title>node_System(1)</title>
<g id="a_node3"><a xlink:title="bevy_asset::assets::Assets&lt;bevy_asset::assets::LoadedUntypedAsset&gt;::track_assets">
<polygon fill="#d1cbc5" stroke="#a3978c" points="615.5,-93.45 295.75,-93.45 295.75,-57.45 615.5,-57.45 615.5,-93.45"/>
<text text-anchor="middle" x="455.62" y="-70.77" font-family="Helvetica,sans-Serif" font-size="14.00" fill="#1c1916">Assets&lt;LoadedUntypedAsset&gt;track_assets</text>
</a>
</g>
</g>
<!-- node_System(2) -->
<g id="node4" class="node">
<title>node_System(2)</title>
<g id="a_node4"><a xlink:title="bevy_asset::assets::Assets&lt;()&gt;::track_assets">
<polygon fill="#d1cbc5" stroke="#a3978c" points="546.88,-140.45 364.38,-140.45 364.38,-104.45 546.88,-104.45 546.88,-140.45"/>
<text text-anchor="middle" x="455.62" y="-117.77" font-family="Helvetica,sans-Serif" font-size="14.00" fill="#1c1916">Assets&lt;()&gt;track_assets</text>
</a>
</g>
</g>
<!-- node_System(4) -->
<g id="node5" class="node">
<title>node_System(4)</title>
<g id="a_node5"><a xlink:title="bevy_asset::assets::Assets&lt;bevy_scene::dynamic_scene::DynamicScene&gt;::track_assets">
<polygon fill="#d1cbc5" stroke="#a3978c" points="593,-187.45 318.25,-187.45 318.25,-151.45 593,-151.45 593,-187.45"/>
<text text-anchor="middle" x="455.62" y="-164.77" font-family="Helvetica,sans-Serif" font-size="14.00" fill="#1c1916">Assets&lt;DynamicScene&gt;track_assets</text>
</a>
</g>
</g>
<!-- node_System(5) -->
<g id="node6" class="node">
<title>node_System(5)</title>
<g id="a_node6"><a xlink:title="bevy_asset::assets::Assets&lt;bevy_scene::scene::Scene&gt;::track_assets">
<polygon fill="#d1cbc5" stroke="#a3978c" points="562.62,-234.45 348.62,-234.45 348.62,-198.45 562.62,-198.45 562.62,-234.45"/>
<text text-anchor="middle" x="455.62" y="-211.77" font-family="Helvetica,sans-Serif" font-size="14.00" fill="#1c1916">Assets&lt;Scene&gt;track_assets</text>
</a>
</g>
</g>
<!-- node_System(6) -->
<g id="node7" class="node">
<title>node_System(6)</title>
<g id="a_node7"><a xlink:title="bevy_asset::assets::Assets&lt;bevy_render::render_resource::shader::Shader&gt;::track_assets">
<polygon fill="#d1cbc5" stroke="#a3978c" points="566.38,-281.45 344.88,-281.45 344.88,-245.45 566.38,-245.45 566.38,-281.45"/>
<text text-anchor="middle" x="455.62" y="-258.77" font-family="Helvetica,sans-Serif" font-size="14.00" fill="#1c1916">Assets&lt;Shader&gt;track_assets</text>
</a>
</g>
</g>
<!-- node_System(7) -->
<g id="node8" class="node">
<title>node_System(7)</title>
<g id="a_node8"><a xlink:title="bevy_asset::assets::Assets&lt;bevy_render::mesh::mesh::Mesh&gt;::track_assets">
<polygon fill="#d1cbc5" stroke="#a3978c" points="560,-328.45 351.25,-328.45 351.25,-292.45 560,-292.45 560,-328.45"/>
<text text-anchor="middle" x="455.62" y="-305.77" font-family="Helvetica,sans-Serif" font-size="14.00" fill="#1c1916">Assets&lt;Mesh&gt;track_assets</text>
</a>
</g>
</g>
<!-- node_System(8) -->
<g id="node9" class="node">
<title>node_System(8)</title>
<g id="a_node9"><a xlink:title="bevy_asset::assets::Assets&lt;bevy_render::mesh::mesh::skinning::SkinnedMeshInverseBindposes&gt;::track_assets">
<polygon fill="#d1cbc5" stroke="#a3978c" points="650,-375.45 261.25,-375.45 261.25,-339.45 650,-339.45 650,-375.45"/>
<text text-anchor="middle" x="455.62" y="-352.77" font-family="Helvetica,sans-Serif" font-size="14.00" fill="#1c1916">Assets&lt;SkinnedMeshInverseBindposes&gt;track_assets</text>
</a>
</g>
</g>
<!-- node_System(9) -->
<g id="node10" class="node">
<title>node_System(9)</title>
<g id="a_node10"><a xlink:title="bevy_asset::assets::Assets&lt;bevy_render::texture::image::Image&gt;::track_assets">
<polygon fill="#d1cbc5" stroke="#a3978c" points="563.38,-422.45 347.88,-422.45 347.88,-386.45 563.38,-386.45 563.38,-422.45"/>
<text text-anchor="middle" x="455.62" y="-399.77" font-family="Helvetica,sans-Serif" font-size="14.00" fill="#1c1916">Assets&lt;Image&gt;track_assets</text>
</a>
</g>
</g>
<!-- node_System(10) -->
<g id="node11" class="node">
<title>node_System(10)</title>
<g id="a_node11"><a xlink:title="bevy_asset::assets::Assets&lt;bevy_sprite::texture_atlas::TextureAtlasLayout&gt;::track_assets">
<polygon fill="#d1cbc5" stroke="#a3978c" points="606.88,-469.45 304.38,-469.45 304.38,-433.45 606.88,-433.45 606.88,-469.45"/>
<text text-anchor="middle" x="455.62" y="-446.77" font-family="Helvetica,sans-Serif" font-size="14.00" fill="#1c1916">Assets&lt;TextureAtlasLayout&gt;track_assets</text>
</a>
</g>
</g>
<!-- node_System(11) -->
<g id="node12" class="node">
<title>node_System(11)</title>
<g id="a_node12"><a xlink:title="bevy_asset::assets::Assets&lt;bevy_sprite::mesh2d::color_material::ColorMaterial&gt;::track_assets">
<polygon fill="#d1cbc5" stroke="#a3978c" points="587.38,-516.45 323.88,-516.45 323.88,-480.45 587.38,-480.45 587.38,-516.45"/>
<text text-anchor="middle" x="455.62" y="-493.77" font-family="Helvetica,sans-Serif" font-size="14.00" fill="#1c1916">Assets&lt;ColorMaterial&gt;track_assets</text>
</a>
</g>
</g>
<!-- node_System(12) -->
<g id="node13" class="node">
<title>node_System(12)</title>
<g id="a_node13"><a xlink:title="bevy_asset::assets::Assets&lt;bevy_text::font::Font&gt;::track_assets">
<polygon fill="#d1cbc5" stroke="#a3978c" points="556.62,-563.45 354.62,-563.45 354.62,-527.45 556.62,-527.45 556.62,-563.45"/>
<text text-anchor="middle" x="455.62" y="-540.77" font-family="Helvetica,sans-Serif" font-size="14.00" fill="#1c1916">Assets&lt;Font&gt;track_assets</text>
</a>
</g>
</g>
<!-- node_System(13) -->
<g id="node14" class="node">
<title>node_System(13)</title>
<g id="a_node14"><a xlink:title="bevy_asset::assets::Assets&lt;bevy_pbr::pbr_material::StandardMaterial&gt;::track_assets">
<polygon fill="#d1cbc5" stroke="#a3978c" points="600.88,-610.45 310.38,-610.45 310.38,-574.45 600.88,-574.45 600.88,-610.45"/>
<text text-anchor="middle" x="455.62" y="-587.77" font-family="Helvetica,sans-Serif" font-size="14.00" fill="#1c1916">Assets&lt;StandardMaterial&gt;track_assets</text>
</a>
</g>
</g>
<!-- node_System(14) -->
<g id="node15" class="node">
<title>node_System(14)</title>
<g id="a_node15"><a xlink:title="bevy_asset::assets::Assets&lt;bevy_gltf::Gltf&gt;::track_assets">
<polygon fill="#d1cbc5" stroke="#a3978c" points="554,-657.45 357.25,-657.45 357.25,-621.45 554,-621.45 554,-657.45"/>
<text text-anchor="middle" x="455.62" y="-634.77" font-family="Helvetica,sans-Serif" font-size="14.00" fill="#1c1916">Assets&lt;Gltf&gt;track_assets</text>
</a>
</g>
</g>
<!-- node_System(15) -->
<g id="node16" class="node">
<title>node_System(15)</title>
<g id="a_node16"><a xlink:title="bevy_asset::assets::Assets&lt;bevy_gltf::GltfNode&gt;::track_assets">
<polygon fill="#d1cbc5" stroke="#a3978c" points="572,-704.45 339.25,-704.45 339.25,-668.45 572,-668.45 572,-704.45"/>
<text text-anchor="middle" x="455.62" y="-681.77" font-family="Helvetica,sans-Serif" font-size="14.00" fill="#1c1916">Assets&lt;GltfNode&gt;track_assets</text>
</a>
</g>
</g>
<!-- node_System(16) -->
<g id="node17" class="node">
<title>node_System(16)</title>
<g id="a_node17"><a xlink:title="bevy_asset::assets::Assets&lt;bevy_gltf::GltfPrimitive&gt;::track_assets">
<polygon fill="#d1cbc5" stroke="#a3978c" points="584.38,-751.45 326.88,-751.45 326.88,-715.45 584.38,-715.45 584.38,-751.45"/>
<text text-anchor="middle" x="455.62" y="-728.77" font-family="Helvetica,sans-Serif" font-size="14.00" fill="#1c1916">Assets&lt;GltfPrimitive&gt;track_assets</text>
</a>
</g>
</g>
<!-- node_System(17) -->
<g id="node18" class="node">
<title>node_System(17)</title>
<g id="a_node18"><a xlink:title="bevy_asset::assets::Assets&lt;bevy_gltf::GltfMesh&gt;::track_assets">
<polygon fill="#d1cbc5" stroke="#a3978c" points="572.38,-798.45 338.88,-798.45 338.88,-762.45 572.38,-762.45 572.38,-798.45"/>
<text text-anchor="middle" x="455.62" y="-775.77" font-family="Helvetica,sans-Serif" font-size="14.00" fill="#1c1916">Assets&lt;GltfMesh&gt;track_assets</text>
</a>
</g>
</g>
<!-- node_System(18) -->
<g id="node19" class="node">
<title>node_System(18)</title>
<g id="a_node19"><a xlink:title="bevy_asset::assets::Assets&lt;bevy_audio::audio_source::AudioSource&gt;::track_assets">
<polygon fill="#d1cbc5" stroke="#a3978c" points="585.12,-845.45 326.12,-845.45 326.12,-809.45 585.12,-809.45 585.12,-845.45"/>
<text text-anchor="middle" x="455.62" y="-822.77" font-family="Helvetica,sans-Serif" font-size="14.00" fill="#1c1916">Assets&lt;AudioSource&gt;track_assets</text>
</a>
</g>
</g>
<!-- node_System(19) -->
<g id="node20" class="node">
<title>node_System(19)</title>
<g id="a_node20"><a xlink:title="bevy_asset::assets::Assets&lt;bevy_audio::pitch::Pitch&gt;::track_assets">
<polygon fill="#d1cbc5" stroke="#a3978c" points="558.5,-892.45 352.75,-892.45 352.75,-856.45 558.5,-856.45 558.5,-892.45"/>
<text text-anchor="middle" x="455.62" y="-869.77" font-family="Helvetica,sans-Serif" font-size="14.00" fill="#1c1916">Assets&lt;Pitch&gt;track_assets</text>
</a>
</g>
</g>
<!-- node_System(20) -->
<g id="node21" class="node">
<title>node_System(20)</title>
<g id="a_node21"><a xlink:title="bevy_asset::assets::Assets&lt;bevy_animation::AnimationClip&gt;::track_assets">
<polygon fill="#d1cbc5" stroke="#a3978c" points="590,-939.45 321.25,-939.45 321.25,-903.45 590,-903.45 590,-939.45"/>
<text text-anchor="middle" x="455.62" y="-916.77" font-family="Helvetica,sans-Serif" font-size="14.00" fill="#1c1916">Assets&lt;AnimationClip&gt;track_assets</text>
</a>
</g>
</g>
<!-- node_System(21) -->
<g id="node22" class="node">
<title>node_System(21)</title>
<g id="a_node22"><a xlink:title="bevy_asset::assets::Assets&lt;bevy_gizmos::LineGizmo&gt;::track_assets">
<polygon fill="#d1cbc5" stroke="#a3978c" points="577.62,-986.45 333.62,-986.45 333.62,-950.45 577.62,-950.45 577.62,-986.45"/>
<text text-anchor="middle" x="455.62" y="-963.77" font-family="Helvetica,sans-Serif" font-size="14.00" fill="#1c1916">Assets&lt;LineGizmo&gt;track_assets</text>
</a>
</g>
</g>
<!-- node_System(3) -->
<g id="node23" class="node">
<title>node_System(3)</title>
<g id="a_node23"><a xlink:title="bevy_asset::server::handle_internal_asset_events">
<polygon fill="lightgrey" stroke="black" points="225.25,-53.45 0,-53.45 0,-17.45 225.25,-17.45 225.25,-53.45"/>
<text text-anchor="middle" x="112.62" y="-30.77" font-family="Times,serif" font-size="14.00">handle_internal_asset_events</text>
</a>
</g>
</g>
<!-- node_System(3)&#45;&gt;set_marker_node_Set(1) -->
<g id="edge1" class="edge">
<title>node_System(3)&#45;&gt;set_marker_node_Set(1)</title>
<g id="a_edge1"><a xlink:title="SystemTypeSet(ExclusiveFunctionSystem&lt;fn(), handle_internal_asset_events&gt;()) → TrackAssets">
<path fill="none" stroke="#eede00" stroke-width="2" d="M182.73,-16.98C205.06,-11.85 230.05,-6.99 253.25,-4.45 324.06,3.32 409.73,-1.28 441.74,-3.48"/>
<polygon fill="#eede00" stroke="#eede00" stroke-width="2" points="441.29,-6.95 451.52,-4.21 441.82,0.03 441.29,-6.95"/>
</a>
</g>
</g>
</g>
</svg>
