<?xml version="1.0" encoding="UTF-8" standalone="no"?>
<!DOCTYPE svg PUBLIC "-//W3C//DTD SVG 1.1//EN"
 "http://www.w3.org/Graphics/SVG/1.1/DTD/svg11.dtd">
<!-- Generated by graphviz version 8.0.5 (0)
 -->
<!-- Pages: 1 -->
<svg width="354pt" height="843pt"
 viewBox="0.00 0.00 354.00 843.00" xmlns="http://www.w3.org/2000/svg" xmlns:xlink="http://www.w3.org/1999/xlink">
<g id="graph0" class="graph" transform="scale(1 1) rotate(0) translate(4 839)">
<polygon fill="#0d1117" stroke="none" points="-4,4 -4,-839 350,-839 350,4 -4,4"/>
<!-- node_System(0) -->
<g id="node1" class="node">
<title>node_System(0)</title>
<g id="a_node1"><a xlink:title="bevy_asset::assets::Assets&lt;bevy_scene::dynamic_scene::DynamicScene&gt;::asset_event_system">
<polygon fill="lightgrey" stroke="black" points="301.75,-36 44.25,-36 44.25,0 301.75,0 301.75,-36"/>
<text text-anchor="middle" x="173" y="-12.95" font-family="Times,serif" font-size="14.00">Assets&lt;DynamicScene&gt;asset_event_system</text>
</a>
</g>
</g>
<!-- node_System(1) -->
<g id="node2" class="node">
<title>node_System(1)</title>
<g id="a_node2"><a xlink:title="bevy_asset::assets::Assets&lt;bevy_scene::scene::Scene&gt;::asset_event_system">
<polygon fill="lightgrey" stroke="black" points="276.62,-83 69.38,-83 69.38,-47 276.62,-47 276.62,-83"/>
<text text-anchor="middle" x="173" y="-59.95" font-family="Times,serif" font-size="14.00">Assets&lt;Scene&gt;asset_event_system</text>
</a>
</g>
</g>
<!-- node_System(2) -->
<g id="node3" class="node">
<title>node_System(2)</title>
<g id="a_node3"><a xlink:title="bevy_asset::assets::Assets&lt;bevy_render::render_resource::shader::Shader&gt;::asset_event_system">
<polygon fill="lightgrey" stroke="black" points="279.25,-130 66.75,-130 66.75,-94 279.25,-94 279.25,-130"/>
<text text-anchor="middle" x="173" y="-106.95" font-family="Times,serif" font-size="14.00">Assets&lt;Shader&gt;asset_event_system</text>
</a>
</g>
</g>
<!-- node_System(3) -->
<g id="node4" class="node">
<title>node_System(3)</title>
<g id="a_node4"><a xlink:title="bevy_asset::assets::Assets&lt;bevy_render::mesh::mesh::Mesh&gt;::asset_event_system">
<polygon fill="lightgrey" stroke="black" points="275.88,-177 70.12,-177 70.12,-141 275.88,-141 275.88,-177"/>
<text text-anchor="middle" x="173" y="-153.95" font-family="Times,serif" font-size="14.00">Assets&lt;Mesh&gt;asset_event_system</text>
</a>
</g>
</g>
<!-- node_System(4) -->
<g id="node5" class="node">
<title>node_System(4)</title>
<g id="a_node5"><a xlink:title="bevy_asset::assets::Assets&lt;bevy_render::mesh::mesh::skinning::SkinnedMeshInverseBindposes&gt;::asset_event_system">
<polygon fill="lightgrey" stroke="black" points="346,-224 0,-224 0,-188 346,-188 346,-224"/>
<text text-anchor="middle" x="173" y="-200.95" font-family="Times,serif" font-size="14.00">Assets&lt;SkinnedMeshInverseBindposes&gt;asset_event_system</text>
</a>
</g>
</g>
<!-- node_System(5) -->
<g id="node6" class="node">
<title>node_System(5)</title>
<g id="a_node6"><a xlink:title="bevy_asset::assets::Assets&lt;bevy_render::texture::image::Image&gt;::asset_event_system">
<polygon fill="lightgrey" stroke="black" points="277.75,-271 68.25,-271 68.25,-235 277.75,-235 277.75,-271"/>
<text text-anchor="middle" x="173" y="-247.95" font-family="Times,serif" font-size="14.00">Assets&lt;Image&gt;asset_event_system</text>
</a>
</g>
</g>
<!-- node_System(6) -->
<g id="node7" class="node">
<title>node_System(6)</title>
<g id="a_node7"><a xlink:title="bevy_asset::assets::Assets&lt;bevy_sprite::texture_atlas::TextureAtlas&gt;::asset_event_system">
<polygon fill="lightgrey" stroke="black" points="295.38,-318 50.63,-318 50.63,-282 295.38,-282 295.38,-318"/>
<text text-anchor="middle" x="173" y="-294.95" font-family="Times,serif" font-size="14.00">Assets&lt;TextureAtlas&gt;asset_event_system</text>
</a>
</g>
</g>
<!-- node_System(7) -->
<g id="node8" class="node">
<title>node_System(7)</title>
<g id="a_node8"><a xlink:title="bevy_asset::assets::Assets&lt;bevy_sprite::mesh2d::color_material::ColorMaterial&gt;::asset_event_system">
<polygon fill="lightgrey" stroke="black" points="299.12,-365 46.88,-365 46.88,-329 299.12,-329 299.12,-365"/>
<text text-anchor="middle" x="173" y="-341.95" font-family="Times,serif" font-size="14.00">Assets&lt;ColorMaterial&gt;asset_event_system</text>
</a>
</g>
</g>
<!-- node_System(8) -->
<g id="node9" class="node">
<title>node_System(8)</title>
<g id="a_node9"><a xlink:title="bevy_asset::assets::Assets&lt;bevy_text::font::Font&gt;::asset_event_system">
<polygon fill="lightgrey" stroke="black" points="272.88,-412 73.12,-412 73.12,-376 272.88,-376 272.88,-412"/>
<text text-anchor="middle" x="173" y="-388.95" font-family="Times,serif" font-size="14.00">Assets&lt;Font&gt;asset_event_system</text>
</a>
</g>
</g>
<!-- node_System(9) -->
<g id="node10" class="node">
<title>node_System(9)</title>
<g id="a_node10"><a xlink:title="bevy_asset::assets::Assets&lt;bevy_text::font_atlas_set::FontAtlasSet&gt;::asset_event_system">
<polygon fill="lightgrey" stroke="black" points="295.75,-459 50.25,-459 50.25,-423 295.75,-423 295.75,-459"/>
<text text-anchor="middle" x="173" y="-435.95" font-family="Times,serif" font-size="14.00">Assets&lt;FontAtlasSet&gt;asset_event_system</text>
</a>
</g>
</g>
<!-- node_System(10) -->
<g id="node11" class="node">
<title>node_System(10)</title>
<g id="a_node11"><a xlink:title="bevy_asset::assets::Assets&lt;bevy_pbr::pbr_material::StandardMaterial&gt;::asset_event_system">
<polygon fill="lightgrey" stroke="black" points="307.75,-506 38.25,-506 38.25,-470 307.75,-470 307.75,-506"/>
<text text-anchor="middle" x="173" y="-482.95" font-family="Times,serif" font-size="14.00">Assets&lt;StandardMaterial&gt;asset_event_system</text>
</a>
</g>
</g>
<!-- node_System(11) -->
<g id="node12" class="node">
<title>node_System(11)</title>
<g id="a_node12"><a xlink:title="bevy_asset::assets::Assets&lt;bevy_gltf::Gltf&gt;::asset_event_system">
<polygon fill="lightgrey" stroke="black" points="271.38,-553 74.62,-553 74.62,-517 271.38,-517 271.38,-553"/>
<text text-anchor="middle" x="173" y="-529.95" font-family="Times,serif" font-size="14.00">Assets&lt;Gltf&gt;asset_event_system</text>
</a>
</g>
</g>
<!-- node_System(12) -->
<g id="node13" class="node">
<title>node_System(12)</title>
<g id="a_node13"><a xlink:title="bevy_asset::assets::Assets&lt;bevy_gltf::GltfNode&gt;::asset_event_system">
<polygon fill="lightgrey" stroke="black" points="286,-600 60,-600 60,-564 286,-564 286,-600"/>
<text text-anchor="middle" x="173" y="-576.95" font-family="Times,serif" font-size="14.00">Assets&lt;GltfNode&gt;asset_event_system</text>
</a>
</g>
</g>
<!-- node_System(13) -->
<g id="node14" class="node">
<title>node_System(13)</title>
<g id="a_node14"><a xlink:title="bevy_asset::assets::Assets&lt;bevy_gltf::GltfPrimitive&gt;::asset_event_system">
<polygon fill="lightgrey" stroke="black" points="296.88,-647 49.12,-647 49.12,-611 296.88,-611 296.88,-647"/>
<text text-anchor="middle" x="173" y="-623.95" font-family="Times,serif" font-size="14.00">Assets&lt;GltfPrimitive&gt;asset_event_system</text>
</a>
</g>
</g>
<!-- node_System(14) -->
<g id="node15" class="node">
<title>node_System(14)</title>
<g id="a_node15"><a xlink:title="bevy_asset::assets::Assets&lt;bevy_gltf::GltfMesh&gt;::asset_event_system">
<polygon fill="lightgrey" stroke="black" points="286.75,-694 59.25,-694 59.25,-658 286.75,-658 286.75,-694"/>
<text text-anchor="middle" x="173" y="-670.95" font-family="Times,serif" font-size="14.00">Assets&lt;GltfMesh&gt;asset_event_system</text>
</a>
</g>
</g>
<!-- node_System(15) -->
<g id="node16" class="node">
<title>node_System(15)</title>
<g id="a_node16"><a xlink:title="bevy_asset::assets::Assets&lt;bevy_audio::audio_source::AudioSource&gt;::asset_event_system">
<polygon fill="lightgrey" stroke="black" points="296.12,-741 49.88,-741 49.88,-705 296.12,-705 296.12,-741"/>
<text text-anchor="middle" x="173" y="-717.95" font-family="Times,serif" font-size="14.00">Assets&lt;AudioSource&gt;asset_event_system</text>
</a>
</g>
</g>
<!-- node_System(16) -->
<g id="node17" class="node">
<title>node_System(16)</title>
<g id="a_node17"><a xlink:title="bevy_asset::assets::Assets&lt;bevy_animation::AnimationClip&gt;::asset_event_system">
<polygon fill="lightgrey" stroke="black" points="301.38,-788 44.62,-788 44.62,-752 301.38,-752 301.38,-788"/>
<text text-anchor="middle" x="173" y="-764.95" font-family="Times,serif" font-size="14.00">Assets&lt;AnimationClip&gt;asset_event_system</text>
</a>
</g>
</g>
<!-- node_System(17) -->
<g id="node18" class="node">
<title>node_System(17)</title>
<g id="a_node18"><a xlink:title="bevy_asset::assets::Assets&lt;bevy_gizmos::LineGizmo&gt;::asset_event_system">
<polygon fill="lightgrey" stroke="black" points="291.62,-835 54.38,-835 54.38,-799 291.62,-799 291.62,-835"/>
<text text-anchor="middle" x="173" y="-811.95" font-family="Times,serif" font-size="14.00">Assets&lt;LineGizmo&gt;asset_event_system</text>
</a>
</g>
</g>
</g>
</svg>
