<?xml version="1.0" encoding="UTF-8" standalone="no"?>
<!DOCTYPE svg PUBLIC "-//W3C//DTD SVG 1.1//EN"
 "http://www.w3.org/Graphics/SVG/1.1/DTD/svg11.dtd">
<!-- Generated by graphviz version 13.1.2 (20250808.2320)
 -->
<!-- Pages: 1 -->
<svg width="477pt" height="326pt"
 viewBox="0.00 0.00 477.00 326.00" xmlns="http://www.w3.org/2000/svg" xmlns:xlink="http://www.w3.org/1999/xlink">
<g id="graph0" class="graph" transform="scale(1 1) rotate(0) translate(4 322)">
<polygon fill="#0d1117" stroke="none" points="-4,4 -4,-322 472.5,-322 472.5,4 -4,4"/>
<!-- node_System(SystemKey(1v1)) -->
<g id="node1" class="node">
<title>node_System(SystemKey(1v1))</title>
<g id="a_node1"><a xlink:title="bevy_app::terminal_ctrl_c_handler::TerminalCtrlCHandlerPlugin::exit_on_flag">
<polygon fill="lightgrey" stroke="black" points="275.5,-36 25.5,-36 25.5,0 275.5,0 275.5,-36"/>
<text xml:space="preserve" text-anchor="middle" x="150.5" y="-12.95" font-family="Times,serif" font-size="14.00">TerminalCtrlCHandlerPlugin::exit_on_flag</text>
</a>
</g>
</g>
<!-- node_System(SystemKey(2v1)) -->
<g id="node2" class="node">
<title>node_System(SystemKey(2v1))</title>
<g id="a_node2"><a xlink:title="bevy_render::view::window::screenshot::trigger_screenshots">
<polygon fill="lightgrey" stroke="black" points="211,-83 90,-83 90,-47 211,-47 211,-83"/>
<text xml:space="preserve" text-anchor="middle" x="150.5" y="-59.95" font-family="Times,serif" font-size="14.00">trigger_screenshots</text>
</a>
</g>
</g>
<!-- node_System(SystemKey(3v1)) -->
<g id="node3" class="node">
<title>node_System(SystemKey(3v1))</title>
<g id="a_node3"><a xlink:title="bevy_light::probe::automatically_add_parallax_correction_components">
<polygon fill="lightgrey" stroke="black" points="301,-130 0,-130 0,-94 301,-94 301,-130"/>
<text xml:space="preserve" text-anchor="middle" x="150.5" y="-106.95" font-family="Times,serif" font-size="14.00">automatically_add_parallax_correction_components</text>
</a>
</g>
</g>
<!-- node_System(SystemKey(4v1)) -->
<g id="node4" class="node">
<title>node_System(SystemKey(4v1))</title>
<g id="a_node4"><a xlink:title="bevy_core_pipeline::oit::check_msaa">
<polygon fill="lightgrey" stroke="black" points="191.88,-177 109.12,-177 109.12,-141 191.88,-141 191.88,-177"/>
<text xml:space="preserve" text-anchor="middle" x="150.5" y="-153.95" font-family="Times,serif" font-size="14.00">check_msaa</text>
</a>
</g>
</g>
<!-- node_System(SystemKey(5v1)) -->
<g id="node5" class="node">
<title>node_System(SystemKey(5v1))</title>
<g id="a_node5"><a xlink:title="bevy_sprite_render::tilemap_chunk::update_tilemap_chunk_indices">
<polygon fill="lightgrey" stroke="black" points="242.88,-224 58.12,-224 58.12,-188 242.88,-188 242.88,-224"/>
<text xml:space="preserve" text-anchor="middle" x="150.5" y="-200.95" font-family="Times,serif" font-size="14.00">update_tilemap_chunk_indices</text>
</a>
</g>
</g>
<!-- node_System(SystemKey(6v1)) -->
<g id="node6" class="node">
<title>node_System(SystemKey(6v1))</title>
<g id="a_node6"><a xlink:title="bevy_pbr::atmosphere::environment::prepare_atmosphere_probe_components">
<polygon fill="lightgrey" stroke="black" points="268.75,-271 32.25,-271 32.25,-235 268.75,-235 268.75,-271"/>
<text xml:space="preserve" text-anchor="middle" x="150.5" y="-247.95" font-family="Times,serif" font-size="14.00">prepare_atmosphere_probe_components</text>
</a>
</g>
</g>
<!-- node_System(SystemKey(7v1)) -->
<g id="node7" class="node">
<title>node_System(SystemKey(7v1))</title>
<g id="a_node7"><a xlink:title="bevy_ui_widgets::menu::menu_acquire_focus">
<polygon fill="lightgrey" stroke="black" points="215.12,-318 85.88,-318 85.88,-282 215.12,-282 215.12,-318"/>
<text xml:space="preserve" text-anchor="middle" x="150.5" y="-294.95" font-family="Times,serif" font-size="14.00">menu_acquire_focus</text>
</a>
</g>
</g>
<!-- node_System(SystemKey(8v1)) -->
<g id="node8" class="node">
<title>node_System(SystemKey(8v1))</title>
<g id="a_node8"><a xlink:title="bevy_ui_widgets::menu::menu_on_lose_focus">
<polygon fill="lightgrey" stroke="black" points="468.5,-318 337,-318 337,-282 468.5,-282 468.5,-318"/>
<text xml:space="preserve" text-anchor="middle" x="402.75" y="-294.95" font-family="Times,serif" font-size="14.00">menu_on_lose_focus</text>
</a>
</g>
</g>
<!-- node_System(SystemKey(7v1))&#45;&gt;node_System(SystemKey(8v1)) -->
<g id="edge1" class="edge">
<title>node_System(SystemKey(7v1))&#45;&gt;node_System(SystemKey(8v1))</title>
<g id="a_edge1"><a xlink:title="menu_acquire_focus → menu_on_lose_focus">
<path fill="none" stroke="#eede00" stroke-width="2" d="M215.62,-300C248.62,-300 289.12,-300 323.9,-300"/>
<polygon fill="#eede00" stroke="#eede00" stroke-width="2" points="323.9,-303.5 333.9,-300 323.9,-296.5 323.9,-303.5"/>
</a>
</g>
</g>
</g>
</svg>
