<?xml version="1.0" encoding="UTF-8" standalone="no"?>
<!DOCTYPE svg PUBLIC "-//W3C//DTD SVG 1.1//EN"
 "http://www.w3.org/Graphics/SVG/1.1/DTD/svg11.dtd">
<!-- Generated by graphviz version 12.2.1 (0)
 -->
<!-- Pages: 1 -->
<svg width="775pt" height="261pt"
 viewBox="0.00 0.00 774.75 261.00" xmlns="http://www.w3.org/2000/svg" xmlns:xlink="http://www.w3.org/1999/xlink">
<g id="graph0" class="graph" transform="scale(1 1) rotate(0) translate(4 257)">
<polygon fill="#0d1117" stroke="none" points="-4,4 -4,-257 770.75,-257 770.75,4 -4,4"/>
<g id="clust1" class="cluster">
<title>clusternode_Set(1)</title>
<g id="a_clust1"><a xlink:title="EventUpdates">
<path fill="#ffffff" fill-opacity="0.266667" stroke="#ffffff" stroke-width="2" stroke-opacity="0.313725" d="M20,-44C20,-44 179.5,-44 179.5,-44 185.5,-44 191.5,-50 191.5,-56 191.5,-56 191.5,-124 191.5,-124 191.5,-130 185.5,-136 179.5,-136 179.5,-136 20,-136 20,-136 14,-136 8,-130 8,-124 8,-124 8,-56 8,-56 8,-50 14,-44 20,-44"/>
<text text-anchor="middle" x="99.75" y="-118.7" font-family="Helvetica,sans-Serif" font-size="14.00" fill="#ffffff">EventUpdates</text>
</a>
</g>
</g>
<g id="clust2" class="cluster">
<title>clusternode_Set(3)</title>
<g id="a_clust2"><a xlink:title="TimeSystem">
<path fill="#ffffff" fill-opacity="0.266667" stroke="#ffffff" stroke-width="2" stroke-opacity="0.313725" d="M51.88,-153C51.88,-153 147.62,-153 147.62,-153 153.62,-153 159.62,-159 159.62,-165 159.62,-165 159.62,-233 159.62,-233 159.62,-239 153.62,-245 147.62,-245 147.62,-245 51.88,-245 51.88,-245 45.88,-245 39.88,-239 39.88,-233 39.88,-233 39.88,-165 39.88,-165 39.88,-159 45.88,-153 51.88,-153"/>
<text text-anchor="middle" x="99.75" y="-227.7" font-family="Helvetica,sans-Serif" font-size="14.00" fill="#ffffff">TimeSystem</text>
</a>
</g>
</g>
<g id="clust3" class="cluster">
<title>clusternode_Set(7)</title>
<g id="a_clust3"><a xlink:title="Input">
<path fill="#ffffff" fill-opacity="0.266667" stroke="#ffffff" stroke-width="2" stroke-opacity="0.313725" d="M223.5,-44C223.5,-44 654.38,-44 654.38,-44 660.38,-44 666.38,-50 666.38,-56 666.38,-56 666.38,-124 666.38,-124 666.38,-130 660.38,-136 654.38,-136 654.38,-136 223.5,-136 223.5,-136 217.5,-136 211.5,-130 211.5,-124 211.5,-124 211.5,-56 211.5,-56 211.5,-50 217.5,-44 223.5,-44"/>
<text text-anchor="middle" x="438.94" y="-118.7" font-family="Helvetica,sans-Serif" font-size="14.00" fill="#ffffff">Input</text>
</a>
</g>
</g>
<g id="clust4" class="cluster">
<title>clusternode_Set(9)</title>
<g id="a_clust4"><a xlink:title="PostInput">
<path fill="#ffffff" fill-opacity="0.266667" stroke="#ffffff" stroke-width="2" stroke-opacity="0.313725" d="M558.12,-144C558.12,-144 616.12,-144 616.12,-144 622.12,-144 628.12,-150 628.12,-156 628.12,-156 628.12,-177 628.12,-177 628.12,-183 622.12,-189 616.12,-189 616.12,-189 558.12,-189 558.12,-189 552.12,-189 546.12,-183 546.12,-177 546.12,-177 546.12,-156 546.12,-156 546.12,-150 552.12,-144 558.12,-144"/>
<text text-anchor="middle" x="587.12" y="-171.7" font-family="Helvetica,sans-Serif" font-size="14.00" fill="#ffffff">PostInput</text>
</a>
</g>
</g>
<!-- set_marker_node_Set(1) -->
<!-- set_marker_node_Set(7) -->
<!-- set_marker_node_Set(1)&#45;&gt;set_marker_node_Set(7) -->
<g id="edge3" class="edge">
<title>set_marker_node_Set(1)&#45;&gt;set_marker_node_Set(7)</title>
<g id="a_edge3"><a xlink:title="EventUpdates → Input">
<path fill="none" stroke="#00b0cc" stroke-width="2" d="M191.5,-101C193.91,-101 196.34,-101 198.76,-101"/>
<polygon fill="#00b0cc" stroke="#00b0cc" stroke-width="2" points="198.47,-104.5 208.47,-101 198.47,-97.5 198.47,-104.5"/>
</a>
</g>
</g>
<!-- set_marker_node_Set(9) -->
<!-- set_marker_node_Set(1)&#45;&gt;set_marker_node_Set(9) -->
<g id="edge8" class="edge">
<title>set_marker_node_Set(1)&#45;&gt;set_marker_node_Set(9)</title>
<g id="a_edge8"><a xlink:title="EventUpdates → PostInput">
<path fill="none" stroke="#663699" stroke-width="2" d="M191.5,-133.55C198.21,-135.27 204.93,-136.79 211.5,-138 324.77,-158.91 460.47,-158.54 533.28,-156.33"/>
<polygon fill="#663699" stroke="#663699" stroke-width="2" points="533.22,-159.84 543.1,-156 532.99,-152.84 533.22,-159.84"/>
</a>
</g>
</g>
<!-- node_System(0) -->
<g id="node2" class="node">
<title>node_System(0)</title>
<g id="a_node2"><a xlink:title="bevy_ecs::event::update::event_update_system">
<polygon fill="#b0d34a" stroke="#d3e69c" points="183.5,-88 16,-88 16,-52 183.5,-52 183.5,-88"/>
<text text-anchor="middle" x="99.75" y="-65.33" font-family="Helvetica,sans-Serif" font-size="14.00" fill="#edf5d5">event_update_system</text>
</a>
</g>
</g>
<!-- node_System(2) -->
<g id="node9" class="node">
<title>node_System(2)</title>
<g id="a_node9"><a xlink:title="bevy_render::view::window::screenshot::clear_screenshots">
<polygon fill="lightgrey" stroke="black" points="366.75,-36 223.25,-36 223.25,0 366.75,0 366.75,-36"/>
<text text-anchor="middle" x="295" y="-13.32" font-family="Times,serif" font-size="14.00">clear_screenshots</text>
</a>
</g>
</g>
<!-- node_System(0)&#45;&gt;node_System(2) -->
<g id="edge4" class="edge">
<title>node_System(0)&#45;&gt;node_System(2)</title>
<g id="a_edge4"><a xlink:title="SystemTypeSet(fn bevy_ecs::system::exclusive_function_system::ExclusiveFunctionSystem&lt;fn(bevy_ecs::system::system_param::Local&lt;bevy_ecs::component::Tick&gt;), bevy_ecs::event::update::event_update_system&gt;()) → clear_screenshots">
<path fill="none" stroke="#aa3a55" stroke-width="2" d="M169.43,-51.52C183.52,-47.73 198.49,-43.7 212.97,-39.8"/>
<polygon fill="#aa3a55" stroke="#aa3a55" stroke-width="2" points="213.87,-43.18 222.62,-37.21 212.06,-36.43 213.87,-43.18"/>
</a>
</g>
</g>
<!-- set_marker_node_Set(3) -->
<!-- set_marker_node_Set(3)&#45;&gt;set_marker_node_Set(7) -->
<g id="edge2" class="edge">
<title>set_marker_node_Set(3)&#45;&gt;set_marker_node_Set(7)</title>
<g id="a_edge2"><a xlink:title="TimeSystem → Input">
<path fill="none" stroke="#881877" stroke-width="2" d="M139.61,-153C155.75,-148.67 174.61,-143.37 191.5,-138 194.05,-137.19 196.63,-136.36 199.23,-135.51"/>
<polygon fill="#881877" stroke="#881877" stroke-width="2" points="200.26,-138.85 208.63,-132.36 198.04,-132.21 200.26,-138.85"/>
</a>
</g>
</g>
<!-- set_marker_node_Set(3)&#45;&gt;set_marker_node_Set(9) -->
<g id="edge7" class="edge">
<title>set_marker_node_Set(3)&#45;&gt;set_marker_node_Set(9)</title>
<g id="a_edge7"><a xlink:title="TimeSystem → PostInput">
<path fill="none" stroke="#ee9e44" stroke-width="2" d="M159.62,-161.91C214.27,-160.9 297.88,-159.35 370.5,-158 426.07,-156.97 489.72,-155.78 533.29,-154.97"/>
<polygon fill="#ee9e44" stroke="#ee9e44" stroke-width="2" points="533.17,-158.48 543.1,-154.79 533.04,-151.48 533.17,-158.48"/>
</a>
</g>
</g>
<!-- node_System(1) -->
<g id="node4" class="node">
<title>node_System(1)</title>
<g id="a_node4"><a xlink:title="bevy_time::time_system">
<polygon fill="#c7ddbd" stroke="#8dba79" points="151.62,-212 47.88,-212 47.88,-176 151.62,-176 151.62,-212"/>
<text text-anchor="middle" x="99.75" y="-189.32" font-family="Helvetica,sans-Serif" font-size="14.00" fill="#162111">time_system</text>
</a>
</g>
</g>
<!-- set_marker_node_Set(7)&#45;&gt;set_marker_node_Set(9) -->
<g id="edge5" class="edge">
<title>set_marker_node_Set(7)&#45;&gt;set_marker_node_Set(9)</title>
<g id="a_edge5"><a xlink:title="Input → PostInput">
<path fill="none" stroke="#44d488" stroke-width="2" d="M397.57,-136C400.57,-136.71 403.55,-137.38 406.5,-138 448.7,-146.82 497.49,-150.78 533.48,-152.56"/>
<polygon fill="#44d488" stroke="#44d488" stroke-width="2" points="532.96,-156.04 543.1,-152.99 533.27,-149.05 532.96,-156.04"/>
</a>
</g>
</g>
<!-- node_System(3) -->
<g id="node6" class="node">
<title>node_System(3)</title>
<g id="a_node6"><a xlink:title="bevy_picking::input::mouse_pick_events">
<polygon fill="#eff1f3" stroke="#b4bec7" points="370.5,-88 219.5,-88 219.5,-52 370.5,-52 370.5,-88"/>
<text text-anchor="middle" x="295" y="-65.33" font-family="Helvetica,sans-Serif" font-size="14.00" fill="#15191d">mouse_pick_events</text>
</a>
</g>
</g>
<!-- node_System(4) -->
<g id="node7" class="node">
<title>node_System(4)</title>
<g id="a_node7"><a xlink:title="bevy_picking::input::touch_pick_events">
<polygon fill="#eff1f3" stroke="#b4bec7" points="658.38,-88 514.88,-88 514.88,-52 658.38,-52 658.38,-88"/>
<text text-anchor="middle" x="586.62" y="-65.33" font-family="Helvetica,sans-Serif" font-size="14.00" fill="#15191d">touch_pick_events</text>
</a>
</g>
</g>
<!-- node_System(3)&#45;&gt;node_System(4) -->
<g id="edge6" class="edge">
<title>node_System(3)&#45;&gt;node_System(4)</title>
<g id="a_edge6"><a xlink:title="mouse_pick_events → touch_pick_events">
<path fill="none" stroke="#0090cc" stroke-width="2" d="M370.96,-70C410.98,-70 460.35,-70 501.65,-70"/>
<polygon fill="#0090cc" stroke="#0090cc" stroke-width="2" points="501.44,-73.5 511.44,-70 501.44,-66.5 501.44,-73.5"/>
</a>
</g>
</g>
<!-- UNKNOWN SystemTypeSet(fn ApplyDeferred()) -->
<g id="node10" class="node">
<title>UNKNOWN SystemTypeSet(fn ApplyDeferred())</title>
<polygon fill="lightgrey" stroke="black" points="766.75,-36 406.5,-36 406.5,0 766.75,0 766.75,-36"/>
<text text-anchor="middle" x="586.62" y="-13.32" font-family="Times,serif" font-size="14.00">UNKNOWN SystemTypeSet(fn ApplyDeferred())</text>
</g>
<!-- node_System(2)&#45;&gt;UNKNOWN SystemTypeSet(fn ApplyDeferred()) -->
<g id="edge1" class="edge">
<title>node_System(2)&#45;&gt;UNKNOWN SystemTypeSet(fn ApplyDeferred())</title>
<g id="a_edge1"><a xlink:title="clear_screenshots → SystemTypeSet(fn bevy_ecs::schedule::executor::ApplyDeferred())">
<path fill="none" stroke="#eede00" stroke-width="2" d="M367.22,-18C375.53,-18 384.28,-18 393.31,-18"/>
<polygon fill="#eede00" stroke="#eede00" stroke-width="2" points="393.21,-21.5 403.21,-18 393.21,-14.5 393.21,-21.5"/>
</a>
</g>
</g>
</g>
</svg>
