<?xml version="1.0" encoding="UTF-8" standalone="no"?>
<!DOCTYPE svg PUBLIC "-//W3C//DTD SVG 1.1//EN"
 "http://www.w3.org/Graphics/SVG/1.1/DTD/svg11.dtd">
<!-- Generated by graphviz version 12.0.0 (0)
 -->
<!-- Pages: 1 -->
<svg width="350pt" height="91pt"
 viewBox="0.00 0.00 349.75 91.00" xmlns="http://www.w3.org/2000/svg" xmlns:xlink="http://www.w3.org/1999/xlink">
<g id="graph0" class="graph" transform="scale(1 1) rotate(0) translate(4 87)">
<polygon fill="#0d1117" stroke="none" points="-4,4 -4,-87 345.75,-87 345.75,4 -4,4"/>
<!-- node_System(0) -->
<g id="node1" class="node">
<title>node_System(0)</title>
<g id="a_node1"><a xlink:title="bevy_scene::bundle::scene_spawner">
<polygon fill="lightgrey" stroke="black" points="124,-36 0,-36 0,0 124,0 124,-36"/>
<text text-anchor="middle" x="62" y="-13.32" font-family="Times,serif" font-size="14.00">scene_spawner</text>
</a>
</g>
</g>
<!-- node_System(1) -->
<g id="node2" class="node">
<title>node_System(1)</title>
<g id="a_node2"><a xlink:title="bevy_scene::scene_spawner::scene_spawner_system">
<polygon fill="lightgrey" stroke="black" points="341.75,-36 160,-36 160,0 341.75,0 341.75,-36"/>
<text text-anchor="middle" x="250.88" y="-13.32" font-family="Times,serif" font-size="14.00">scene_spawner_system</text>
</a>
</g>
</g>
<!-- node_System(0)&#45;&gt;node_System(1) -->
<g id="edge1" class="edge">
<title>node_System(0)&#45;&gt;node_System(1)</title>
<g id="a_edge1"><a xlink:title="scene_spawner → scene_spawner_system">
<path fill="none" stroke="#eede00" stroke-width="2" d="M124.45,-18C131.67,-18 139.19,-18 146.79,-18"/>
<polygon fill="#eede00" stroke="#eede00" stroke-width="2" points="146.6,-21.5 156.6,-18 146.6,-14.5 146.6,-21.5"/>
</a>
</g>
</g>
<!-- node_System(2) -->
<g id="node3" class="node">
<title>node_System(2)</title>
<g id="a_node3"><a xlink:title="bevy_ecs::schedule::executor::apply_deferred">
<polygon fill="lightgrey" stroke="black" points="123.62,-83 0.38,-83 0.38,-47 123.62,-47 123.62,-83"/>
<text text-anchor="middle" x="62" y="-60.33" font-family="Times,serif" font-size="14.00">apply_deferred</text>
</a>
</g>
</g>
</g>
</svg>
