<?xml version="1.0" encoding="UTF-8" standalone="no"?>
<!DOCTYPE svg PUBLIC "-//W3C//DTD SVG 1.1//EN"
 "http://www.w3.org/Graphics/SVG/1.1/DTD/svg11.dtd">
<!-- Generated by graphviz version 14.1.1 (0)
 -->
<!-- Pages: 1 -->
<svg width="1886pt" height="2335pt"
 viewBox="0.00 0.00 1886.00 2335.00" xmlns="http://www.w3.org/2000/svg" xmlns:xlink="http://www.w3.org/1999/xlink">
<g id="graph0" class="graph" transform="scale(1 1) rotate(0) translate(4 2331)">
<polygon fill="#0d1117" stroke="none" points="-4,4 -4,-2331 1881.5,-2331 1881.5,4 -4,4"/>
<g id="clust1" class="cluster">
<title>clusternode_Set(SystemSetKey(2v1))</title>
<g id="a_clust1"><a xlink:title="InputSystems">
<path fill="#ffffff" fill-opacity="0.266667" stroke="#ffffff" stroke-width="2" stroke-opacity="0.313725" d="M536.75,-108C536.75,-108 1274,-108 1274,-108 1280,-108 1286,-114 1286,-120 1286,-120 1286,-423 1286,-423 1286,-429 1280,-435 1274,-435 1274,-435 536.75,-435 536.75,-435 530.75,-435 524.75,-429 524.75,-423 524.75,-423 524.75,-120 524.75,-120 524.75,-114 530.75,-108 536.75,-108"/>
<text xml:space="preserve" text-anchor="middle" x="905.38" y="-417.7" font-family="Helvetica,sans-Serif" font-size="14.00" fill="#ffffff">InputSystems</text>
</a>
</g>
</g>
<g id="clust2" class="cluster">
<title>clusternode_Set(SystemSetKey(10v1))</title>
<g id="a_clust2"><a xlink:title="AssetTrackingSystems">
<path fill="#ffffff" fill-opacity="0.266667" stroke="#ffffff" stroke-width="2" stroke-opacity="0.313725" d="M354.5,-487C354.5,-487 972.25,-487 972.25,-487 978.25,-487 984.25,-493 984.25,-499 984.25,-499 984.25,-1789 984.25,-1789 984.25,-1795 978.25,-1801 972.25,-1801 972.25,-1801 354.5,-1801 354.5,-1801 348.5,-1801 342.5,-1795 342.5,-1789 342.5,-1789 342.5,-499 342.5,-499 342.5,-493 348.5,-487 354.5,-487"/>
<text xml:space="preserve" text-anchor="middle" x="663.38" y="-1783.7" font-family="Helvetica,sans-Serif" font-size="14.00" fill="#ffffff">AssetTrackingSystems</text>
</a>
</g>
</g>
<g id="clust3" class="cluster">
<title>clusternode_Set(SystemSetKey(24v1))</title>
<g id="a_clust3"><a xlink:title="Backend">
<path fill="#ffffff" fill-opacity="0.266667" stroke="#ffffff" stroke-width="2" stroke-opacity="0.313725" d="M589.25,-1809C589.25,-1809 737.5,-1809 737.5,-1809 743.5,-1809 749.5,-1815 749.5,-1821 749.5,-1821 749.5,-1983 749.5,-1983 749.5,-1989 743.5,-1995 737.5,-1995 737.5,-1995 589.25,-1995 589.25,-1995 583.25,-1995 577.25,-1989 577.25,-1983 577.25,-1983 577.25,-1821 577.25,-1821 577.25,-1815 583.25,-1809 589.25,-1809"/>
<text xml:space="preserve" text-anchor="middle" x="663.38" y="-1977.7" font-family="Helvetica,sans-Serif" font-size="14.00" fill="#ffffff">Backend</text>
</a>
</g>
</g>
<g id="clust4" class="cluster">
<title>clusternode_Set(SystemSetKey(29v1))</title>
<g id="a_clust4"><a xlink:title="Focus">
<path fill="#ffffff" fill-opacity="0.266667" stroke="#ffffff" stroke-width="2" stroke-opacity="0.313725" d="M1084.12,-8C1084.12,-8 1206.12,-8 1206.12,-8 1212.12,-8 1218.12,-14 1218.12,-20 1218.12,-20 1218.12,-88 1218.12,-88 1218.12,-94 1212.12,-100 1206.12,-100 1206.12,-100 1084.12,-100 1084.12,-100 1078.12,-100 1072.12,-94 1072.12,-88 1072.12,-88 1072.12,-20 1072.12,-20 1072.12,-14 1078.12,-8 1084.12,-8"/>
<text xml:space="preserve" text-anchor="middle" x="1145.12" y="-82.7" font-family="Helvetica,sans-Serif" font-size="14.00" fill="#ffffff">Focus</text>
</a>
</g>
</g>
<g id="clust5" class="cluster">
<title>clusternode_Set(SystemSetKey(48v1))</title>
<g id="a_clust5"><a xlink:title="ProcessInput">
<path fill="#ffffff" fill-opacity="0.266667" stroke="#ffffff" stroke-width="2" stroke-opacity="0.313725" d="M81.25,-2003C81.25,-2003 736.75,-2003 736.75,-2003 742.75,-2003 748.75,-2009 748.75,-2015 748.75,-2015 748.75,-2130 748.75,-2130 748.75,-2136 742.75,-2142 736.75,-2142 736.75,-2142 81.25,-2142 81.25,-2142 75.25,-2142 69.25,-2136 69.25,-2130 69.25,-2130 69.25,-2015 69.25,-2015 69.25,-2009 75.25,-2003 81.25,-2003"/>
<text xml:space="preserve" text-anchor="middle" x="409" y="-2124.7" font-family="Helvetica,sans-Serif" font-size="14.00" fill="#ffffff">ProcessInput</text>
</a>
</g>
</g>
<g id="clust6" class="cluster">
<title>clusternode_Set(SystemSetKey(52v1))</title>
<g id="a_clust6"><a xlink:title="Hover">
<path fill="#ffffff" fill-opacity="0.266667" stroke="#ffffff" stroke-width="2" stroke-opacity="0.313725" d="M1071.75,-1809C1071.75,-1809 1857.5,-1809 1857.5,-1809 1863.5,-1809 1869.5,-1815 1869.5,-1821 1869.5,-1821 1869.5,-1921 1869.5,-1921 1869.5,-1927 1863.5,-1933 1857.5,-1933 1857.5,-1933 1071.75,-1933 1071.75,-1933 1065.75,-1933 1059.75,-1927 1059.75,-1921 1059.75,-1921 1059.75,-1821 1059.75,-1821 1059.75,-1815 1065.75,-1809 1071.75,-1809"/>
<text xml:space="preserve" text-anchor="middle" x="1464.62" y="-1915.7" font-family="Helvetica,sans-Serif" font-size="14.00" fill="#ffffff">Hover</text>
</a>
</g>
</g>
<g id="clust7" class="cluster">
<title>clusternode_Set(SystemSetKey(53v1))</title>
<g id="a_clust7"><a xlink:title="PostHover">
<path fill="#ffffff" fill-opacity="0.266667" stroke="#ffffff" stroke-width="2" stroke-opacity="0.313725" d="M1359.88,-1756C1359.88,-1756 1422.38,-1756 1422.38,-1756 1428.38,-1756 1434.38,-1762 1434.38,-1768 1434.38,-1768 1434.38,-1789 1434.38,-1789 1434.38,-1795 1428.38,-1801 1422.38,-1801 1422.38,-1801 1359.88,-1801 1359.88,-1801 1353.88,-1801 1347.88,-1795 1347.88,-1789 1347.88,-1789 1347.88,-1768 1347.88,-1768 1347.88,-1762 1353.88,-1756 1359.88,-1756"/>
<text xml:space="preserve" text-anchor="middle" x="1391.12" y="-1783.7" font-family="Helvetica,sans-Serif" font-size="14.00" fill="#ffffff">PostHover</text>
</a>
</g>
</g>
<g id="clust8" class="cluster">
<title>clusternode_Set(SystemSetKey(54v1))</title>
<g id="a_clust8"><a xlink:title="Last">
<path fill="#ffffff" fill-opacity="0.266667" stroke="#ffffff" stroke-width="2" stroke-opacity="0.313725" d="M1595.25,-1756C1595.25,-1756 1615.75,-1756 1615.75,-1756 1621.75,-1756 1627.75,-1762 1627.75,-1768 1627.75,-1768 1627.75,-1789 1627.75,-1789 1627.75,-1795 1621.75,-1801 1615.75,-1801 1615.75,-1801 1595.25,-1801 1595.25,-1801 1589.25,-1801 1583.25,-1795 1583.25,-1789 1583.25,-1789 1583.25,-1768 1583.25,-1768 1583.25,-1762 1589.25,-1756 1595.25,-1756"/>
<text xml:space="preserve" text-anchor="middle" x="1605.5" y="-1783.7" font-family="Helvetica,sans-Serif" font-size="14.00" fill="#ffffff">Last</text>
</a>
</g>
</g>
<!-- set_marker_node_Set(SystemSetKey(2v1)) -->
<!-- node_System(SystemKey(25v1)) -->
<g id="node42" class="node">
<title>node_System(SystemKey(25v1))</title>
<g id="a_node42"><a xlink:title="bevy_ui::focus::ui_focus_system">
<polygon fill="#ffb1e5" stroke="#ff4bc2" points="1210.12,-67 1080.12,-67 1080.12,-31 1210.12,-31 1210.12,-67"/>
<text xml:space="preserve" text-anchor="middle" x="1145.12" y="-44.33" font-family="Helvetica,sans-Serif" font-size="14.00" fill="#320021">ui_focus_system</text>
</a>
</g>
</g>
<!-- set_marker_node_Set(SystemSetKey(2v1))&#45;&gt;node_System(SystemKey(25v1)) -->
<g id="edge11" class="edge">
<title>set_marker_node_Set(SystemSetKey(2v1))&#45;&gt;node_System(SystemKey(25v1))</title>
<g id="a_edge11"><a xlink:title="InputSystems → ui_focus_system">
<path fill="none" stroke="#99d955" stroke-width="2" d="M733.88,-108C822.43,-95.27 975.01,-73.32 1067.05,-60.09"/>
<polygon fill="#99d955" stroke="#99d955" stroke-width="2" points="1067.35,-63.58 1076.75,-58.69 1066.35,-56.65 1067.35,-63.58"/>
</a>
</g>
</g>
<!-- node_System(SystemKey(1v1)) -->
<g id="node2" class="node">
<title>node_System(SystemKey(1v1))</title>
<g id="a_node2"><a xlink:title="bevy_input::keyboard::keyboard_input_system">
<polygon fill="#d36aaf" stroke="#a5317d" points="753.12,-167 573.62,-167 573.62,-131 753.12,-131 753.12,-167"/>
<text xml:space="preserve" text-anchor="middle" x="663.38" y="-144.32" font-family="Helvetica,sans-Serif" font-size="14.00" fill="#270b1d">keyboard_input_system</text>
</a>
</g>
</g>
<!-- node_System(SystemKey(2v1)) -->
<g id="node3" class="node">
<title>node_System(SystemKey(2v1))</title>
<g id="a_node3"><a xlink:title="bevy_input::mouse::mouse_button_input_system">
<polygon fill="#d36aaf" stroke="#a5317d" points="770.75,-214 556,-214 556,-178 770.75,-178 770.75,-214"/>
<text xml:space="preserve" text-anchor="middle" x="663.38" y="-191.32" font-family="Helvetica,sans-Serif" font-size="14.00" fill="#270b1d">mouse_button_input_system</text>
</a>
</g>
</g>
<!-- node_System(SystemKey(3v1)) -->
<g id="node4" class="node">
<title>node_System(SystemKey(3v1))</title>
<g id="a_node4"><a xlink:title="bevy_input::mouse::accumulate_mouse_motion_system">
<polygon fill="#d36aaf" stroke="#a5317d" points="794,-261 532.75,-261 532.75,-225 794,-225 794,-261"/>
<text xml:space="preserve" text-anchor="middle" x="663.38" y="-238.32" font-family="Helvetica,sans-Serif" font-size="14.00" fill="#270b1d">accumulate_mouse_motion_system</text>
</a>
</g>
</g>
<!-- node_System(SystemKey(4v1)) -->
<g id="node5" class="node">
<title>node_System(SystemKey(4v1))</title>
<g id="a_node5"><a xlink:title="bevy_input::mouse::accumulate_mouse_scroll_system">
<polygon fill="#d36aaf" stroke="#a5317d" points="788,-308 538.75,-308 538.75,-272 788,-272 788,-308"/>
<text xml:space="preserve" text-anchor="middle" x="663.38" y="-285.32" font-family="Helvetica,sans-Serif" font-size="14.00" fill="#270b1d">accumulate_mouse_scroll_system</text>
</a>
</g>
</g>
<!-- node_System(SystemKey(5v1)) -->
<g id="node6" class="node">
<title>node_System(SystemKey(5v1))</title>
<g id="a_node6"><a xlink:title="bevy_input::gamepad::gamepad_connection_system">
<polygon fill="#d36aaf" stroke="#a5317d" points="773.75,-355 553,-355 553,-319 773.75,-319 773.75,-355"/>
<text xml:space="preserve" text-anchor="middle" x="663.38" y="-332.32" font-family="Helvetica,sans-Serif" font-size="14.00" fill="#270b1d">gamepad_connection_system</text>
</a>
</g>
</g>
<!-- node_System(SystemKey(6v1)) -->
<g id="node7" class="node">
<title>node_System(SystemKey(6v1))</title>
<g id="a_node7"><a xlink:title="bevy_input::gamepad::gamepad_event_processing_system">
<polygon fill="#d36aaf" stroke="#a5317d" points="1278,-355 1012.25,-355 1012.25,-319 1278,-319 1278,-355"/>
<text xml:space="preserve" text-anchor="middle" x="1145.12" y="-332.32" font-family="Helvetica,sans-Serif" font-size="14.00" fill="#270b1d">gamepad_event_processing_system</text>
</a>
</g>
</g>
<!-- node_System(SystemKey(5v1))&#45;&gt;node_System(SystemKey(6v1)) -->
<g id="edge3" class="edge">
<title>node_System(SystemKey(5v1))&#45;&gt;node_System(SystemKey(6v1))</title>
<g id="a_edge3"><a xlink:title="SystemTypeSet(fn bevy_ecs::system::function_system::FunctionSystem&lt;fn(bevy_ecs::system::commands::Commands&lt;&#39;_, &#39;_&gt;, bevy_ecs::message::message_reader::MessageReader&lt;&#39;_, &#39;_, bevy_input::gamepad::GamepadConnectionEvent&gt;), (), (), bevy_input::gamepad::gamepad_connection_system&gt;()) → gamepad_event_processing_system">
<path fill="none" stroke="#00b0cc" stroke-width="2" d="M774.14,-337C840.81,-337 926.7,-337 998.94,-337"/>
<polygon fill="#00b0cc" stroke="#00b0cc" stroke-width="2" points="998.77,-340.5 1008.77,-337 998.77,-333.5 998.77,-340.5"/>
</a>
</g>
</g>
<!-- node_System(SystemKey(7v1)) -->
<g id="node8" class="node">
<title>node_System(SystemKey(7v1))</title>
<g id="a_node8"><a xlink:title="bevy_input::touch::touch_screen_input_system">
<polygon fill="#d36aaf" stroke="#a5317d" points="767,-402 559.75,-402 559.75,-366 767,-366 767,-402"/>
<text xml:space="preserve" text-anchor="middle" x="663.38" y="-379.32" font-family="Helvetica,sans-Serif" font-size="14.00" fill="#270b1d">touch_screen_input_system</text>
</a>
</g>
</g>
<!-- set_marker_node_Set(SystemSetKey(10v1)) -->
<!-- node_System(SystemKey(8v1)) -->
<g id="node10" class="node">
<title>node_System(SystemKey(8v1))</title>
<g id="a_node10"><a xlink:title="bevy_asset::assets::Assets&lt;bevy_asset::folder::LoadedFolder&gt;::track_assets">
<polygon fill="#d1cbc5" stroke="#a3988c" points="800.38,-546 526.38,-546 526.38,-510 800.38,-510 800.38,-546"/>
<text xml:space="preserve" text-anchor="middle" x="663.38" y="-523.33" font-family="Helvetica,sans-Serif" font-size="14.00" fill="#1c1916">Assets&lt;LoadedFolder&gt;::track_assets</text>
</a>
</g>
</g>
<!-- node_System(SystemKey(9v1)) -->
<g id="node11" class="node">
<title>node_System(SystemKey(9v1))</title>
<g id="a_node11"><a xlink:title="bevy_asset::assets::Assets&lt;bevy_asset::assets::LoadedUntypedAsset&gt;::track_assets">
<polygon fill="#d1cbc5" stroke="#a3988c" points="827.75,-593 499,-593 499,-557 827.75,-557 827.75,-593"/>
<text xml:space="preserve" text-anchor="middle" x="663.38" y="-570.33" font-family="Helvetica,sans-Serif" font-size="14.00" fill="#1c1916">Assets&lt;LoadedUntypedAsset&gt;::track_assets</text>
</a>
</g>
</g>
<!-- node_System(SystemKey(10v1)) -->
<g id="node12" class="node">
<title>node_System(SystemKey(10v1))</title>
<g id="a_node12"><a xlink:title="bevy_asset::assets::Assets&lt;()&gt;::track_assets">
<polygon fill="#d1cbc5" stroke="#a3988c" points="759.12,-640 567.62,-640 567.62,-604 759.12,-604 759.12,-640"/>
<text xml:space="preserve" text-anchor="middle" x="663.38" y="-617.33" font-family="Helvetica,sans-Serif" font-size="14.00" fill="#1c1916">Assets&lt;()&gt;::track_assets</text>
</a>
</g>
</g>
<!-- node_System(SystemKey(13v1)) -->
<g id="node13" class="node">
<title>node_System(SystemKey(13v1))</title>
<g id="a_node13"><a xlink:title="bevy_asset::assets::Assets&lt;bevy_scene::dynamic_scene::DynamicScene&gt;::track_assets">
<polygon fill="#d1cbc5" stroke="#a3988c" points="805.25,-687 521.5,-687 521.5,-651 805.25,-651 805.25,-687"/>
<text xml:space="preserve" text-anchor="middle" x="663.38" y="-664.33" font-family="Helvetica,sans-Serif" font-size="14.00" fill="#1c1916">Assets&lt;DynamicScene&gt;::track_assets</text>
</a>
</g>
</g>
<!-- node_System(SystemKey(14v1)) -->
<g id="node14" class="node">
<title>node_System(SystemKey(14v1))</title>
<g id="a_node14"><a xlink:title="bevy_asset::assets::Assets&lt;bevy_scene::scene::Scene&gt;::track_assets">
<polygon fill="#d1cbc5" stroke="#a3988c" points="774.88,-734 551.88,-734 551.88,-698 774.88,-698 774.88,-734"/>
<text xml:space="preserve" text-anchor="middle" x="663.38" y="-711.33" font-family="Helvetica,sans-Serif" font-size="14.00" fill="#1c1916">Assets&lt;Scene&gt;::track_assets</text>
</a>
</g>
</g>
<!-- node_System(SystemKey(15v1)) -->
<g id="node15" class="node">
<title>node_System(SystemKey(15v1))</title>
<g id="a_node15"><a xlink:title="bevy_asset::assets::Assets&lt;bevy_image::texture_atlas::TextureAtlasLayout&gt;::track_assets">
<polygon fill="#d1cbc5" stroke="#a3988c" points="819.12,-781 507.62,-781 507.62,-745 819.12,-745 819.12,-781"/>
<text xml:space="preserve" text-anchor="middle" x="663.38" y="-758.33" font-family="Helvetica,sans-Serif" font-size="14.00" fill="#1c1916">Assets&lt;TextureAtlasLayout&gt;::track_assets</text>
</a>
</g>
</g>
<!-- node_System(SystemKey(16v1)) -->
<g id="node16" class="node">
<title>node_System(SystemKey(16v1))</title>
<g id="a_node16"><a xlink:title="bevy_asset::assets::Assets&lt;bevy_shader::shader::Shader&gt;::track_assets">
<polygon fill="#d1cbc5" stroke="#a3988c" points="778.62,-828 548.12,-828 548.12,-792 778.62,-792 778.62,-828"/>
<text xml:space="preserve" text-anchor="middle" x="663.38" y="-805.33" font-family="Helvetica,sans-Serif" font-size="14.00" fill="#1c1916">Assets&lt;Shader&gt;::track_assets</text>
</a>
</g>
</g>
<!-- node_System(SystemKey(17v1)) -->
<g id="node17" class="node">
<title>node_System(SystemKey(17v1))</title>
<g id="a_node17"><a xlink:title="bevy_asset::assets::Assets&lt;bevy_render::storage::ShaderStorageBuffer&gt;::track_assets">
<polygon fill="#d1cbc5" stroke="#a3988c" points="827,-875 499.75,-875 499.75,-839 827,-839 827,-875"/>
<text xml:space="preserve" text-anchor="middle" x="663.38" y="-852.33" font-family="Helvetica,sans-Serif" font-size="14.00" fill="#1c1916">Assets&lt;ShaderStorageBuffer&gt;::track_assets</text>
</a>
</g>
</g>
<!-- node_System(SystemKey(18v1)) -->
<g id="node18" class="node">
<title>node_System(SystemKey(18v1))</title>
<g id="a_node18"><a xlink:title="bevy_asset::assets::Assets&lt;bevy_image::image::Image&gt;::track_assets">
<polygon fill="#d1cbc5" stroke="#a3988c" points="775.62,-922 551.12,-922 551.12,-886 775.62,-886 775.62,-922"/>
<text xml:space="preserve" text-anchor="middle" x="663.38" y="-899.33" font-family="Helvetica,sans-Serif" font-size="14.00" fill="#1c1916">Assets&lt;Image&gt;::track_assets</text>
</a>
</g>
</g>
<!-- node_System(SystemKey(19v1)) -->
<g id="node19" class="node">
<title>node_System(SystemKey(19v1))</title>
<g id="a_node19"><a xlink:title="bevy_asset::assets::Assets&lt;bevy_mesh::mesh::Mesh&gt;::track_assets">
<polygon fill="#d1cbc5" stroke="#a3988c" points="772.25,-969 554.5,-969 554.5,-933 772.25,-933 772.25,-969"/>
<text xml:space="preserve" text-anchor="middle" x="663.38" y="-946.33" font-family="Helvetica,sans-Serif" font-size="14.00" fill="#1c1916">Assets&lt;Mesh&gt;::track_assets</text>
</a>
</g>
</g>
<!-- node_System(SystemKey(20v1)) -->
<g id="node20" class="node">
<title>node_System(SystemKey(20v1))</title>
<g id="a_node20"><a xlink:title="bevy_asset::assets::Assets&lt;bevy_mesh::skinning::SkinnedMeshInverseBindposes&gt;::track_assets">
<polygon fill="#d1cbc5" stroke="#a3988c" points="862.25,-1016 464.5,-1016 464.5,-980 862.25,-980 862.25,-1016"/>
<text xml:space="preserve" text-anchor="middle" x="663.38" y="-993.33" font-family="Helvetica,sans-Serif" font-size="14.00" fill="#1c1916">Assets&lt;SkinnedMeshInverseBindposes&gt;::track_assets</text>
</a>
</g>
</g>
<!-- node_System(SystemKey(22v1)) -->
<g id="node21" class="node">
<title>node_System(SystemKey(22v1))</title>
<g id="a_node21"><a xlink:title="bevy_asset::assets::Assets&lt;bevy_sprite_render::mesh2d::color_material::ColorMaterial&gt;::track_assets">
<polygon fill="#d1cbc5" stroke="#a3988c" points="799.62,-1063 527.12,-1063 527.12,-1027 799.62,-1027 799.62,-1063"/>
<text xml:space="preserve" text-anchor="middle" x="663.38" y="-1040.33" font-family="Helvetica,sans-Serif" font-size="14.00" fill="#1c1916">Assets&lt;ColorMaterial&gt;::track_assets</text>
</a>
</g>
</g>
<!-- node_System(SystemKey(23v1)) -->
<g id="node22" class="node">
<title>node_System(SystemKey(23v1))</title>
<g id="a_node22"><a xlink:title="bevy_asset::assets::Assets&lt;bevy_sprite_render::tilemap_chunk::tilemap_chunk_material::TilemapChunkMaterial&gt;::track_assets">
<polygon fill="#d1cbc5" stroke="#a3988c" points="831.5,-1110 495.25,-1110 495.25,-1074 831.5,-1074 831.5,-1110"/>
<text xml:space="preserve" text-anchor="middle" x="663.38" y="-1087.33" font-family="Helvetica,sans-Serif" font-size="14.00" fill="#1c1916">Assets&lt;TilemapChunkMaterial&gt;::track_assets</text>
</a>
</g>
</g>
<!-- node_System(SystemKey(24v1)) -->
<g id="node23" class="node">
<title>node_System(SystemKey(24v1))</title>
<g id="a_node23"><a xlink:title="bevy_asset::assets::Assets&lt;bevy_text::font::Font&gt;::track_assets">
<polygon fill="#d1cbc5" stroke="#a3988c" points="768.88,-1157 557.88,-1157 557.88,-1121 768.88,-1121 768.88,-1157"/>
<text xml:space="preserve" text-anchor="middle" x="663.38" y="-1134.33" font-family="Helvetica,sans-Serif" font-size="14.00" fill="#1c1916">Assets&lt;Font&gt;::track_assets</text>
</a>
</g>
</g>
<!-- node_System(SystemKey(29v1)) -->
<g id="node24" class="node">
<title>node_System(SystemKey(29v1))</title>
<g id="a_node24"><a xlink:title="bevy_asset::assets::Assets&lt;bevy_pbr::pbr_material::StandardMaterial&gt;::track_assets">
<polygon fill="#d1cbc5" stroke="#a3988c" points="813.12,-1204 513.62,-1204 513.62,-1168 813.12,-1168 813.12,-1204"/>
<text xml:space="preserve" text-anchor="middle" x="663.38" y="-1181.33" font-family="Helvetica,sans-Serif" font-size="14.00" fill="#1c1916">Assets&lt;StandardMaterial&gt;::track_assets</text>
</a>
</g>
</g>
<!-- node_System(SystemKey(30v1)) -->
<g id="node25" class="node">
<title>node_System(SystemKey(30v1))</title>
<g id="a_node25"><a xlink:title="bevy_asset::assets::Assets&lt;bevy_pbr::extended_material::ExtendedMaterial&lt;bevy_pbr::pbr_material::StandardMaterial, bevy_pbr::decal::forward::ForwardDecalMaterialExt&gt;&gt;::track_assets">
<polygon fill="#d1cbc5" stroke="#a3988c" points="976.25,-1251 350.5,-1251 350.5,-1215 976.25,-1215 976.25,-1251"/>
<text xml:space="preserve" text-anchor="middle" x="663.38" y="-1228.33" font-family="Helvetica,sans-Serif" font-size="14.00" fill="#1c1916">Assets&lt;ExtendedMaterial&lt;StandardMaterial, ForwardDecalMaterialExt&gt;&gt;::track_assets</text>
</a>
</g>
</g>
<!-- node_System(SystemKey(31v1)) -->
<g id="node26" class="node">
<title>node_System(SystemKey(31v1))</title>
<g id="a_node26"><a xlink:title="bevy_asset::assets::Assets&lt;bevy_pbr::medium::ScatteringMedium&gt;::track_assets">
<polygon fill="#d1cbc5" stroke="#a3988c" points="817.25,-1298 509.5,-1298 509.5,-1262 817.25,-1262 817.25,-1298"/>
<text xml:space="preserve" text-anchor="middle" x="663.38" y="-1275.33" font-family="Helvetica,sans-Serif" font-size="14.00" fill="#1c1916">Assets&lt;ScatteringMedium&gt;::track_assets</text>
</a>
</g>
</g>
<!-- node_System(SystemKey(32v1)) -->
<g id="node27" class="node">
<title>node_System(SystemKey(32v1))</title>
<g id="a_node27"><a xlink:title="bevy_asset::assets::Assets&lt;bevy_gltf::assets::Gltf&gt;::track_assets">
<polygon fill="#d1cbc5" stroke="#a3988c" points="766.25,-1345 560.5,-1345 560.5,-1309 766.25,-1309 766.25,-1345"/>
<text xml:space="preserve" text-anchor="middle" x="663.38" y="-1322.33" font-family="Helvetica,sans-Serif" font-size="14.00" fill="#1c1916">Assets&lt;Gltf&gt;::track_assets</text>
</a>
</g>
</g>
<!-- node_System(SystemKey(33v1)) -->
<g id="node28" class="node">
<title>node_System(SystemKey(33v1))</title>
<g id="a_node28"><a xlink:title="bevy_asset::assets::Assets&lt;bevy_gltf::assets::GltfNode&gt;::track_assets">
<polygon fill="#d1cbc5" stroke="#a3988c" points="784.25,-1392 542.5,-1392 542.5,-1356 784.25,-1356 784.25,-1392"/>
<text xml:space="preserve" text-anchor="middle" x="663.38" y="-1369.33" font-family="Helvetica,sans-Serif" font-size="14.00" fill="#1c1916">Assets&lt;GltfNode&gt;::track_assets</text>
</a>
</g>
</g>
<!-- node_System(SystemKey(34v1)) -->
<g id="node29" class="node">
<title>node_System(SystemKey(34v1))</title>
<g id="a_node29"><a xlink:title="bevy_asset::assets::Assets&lt;bevy_gltf::assets::GltfPrimitive&gt;::track_assets">
<polygon fill="#d1cbc5" stroke="#a3988c" points="796.62,-1439 530.12,-1439 530.12,-1403 796.62,-1403 796.62,-1439"/>
<text xml:space="preserve" text-anchor="middle" x="663.38" y="-1416.33" font-family="Helvetica,sans-Serif" font-size="14.00" fill="#1c1916">Assets&lt;GltfPrimitive&gt;::track_assets</text>
</a>
</g>
</g>
<!-- node_System(SystemKey(35v1)) -->
<g id="node30" class="node">
<title>node_System(SystemKey(35v1))</title>
<g id="a_node30"><a xlink:title="bevy_asset::assets::Assets&lt;bevy_gltf::assets::GltfMesh&gt;::track_assets">
<polygon fill="#d1cbc5" stroke="#a3988c" points="784.62,-1486 542.12,-1486 542.12,-1450 784.62,-1450 784.62,-1486"/>
<text xml:space="preserve" text-anchor="middle" x="663.38" y="-1463.33" font-family="Helvetica,sans-Serif" font-size="14.00" fill="#1c1916">Assets&lt;GltfMesh&gt;::track_assets</text>
</a>
</g>
</g>
<!-- node_System(SystemKey(36v1)) -->
<g id="node31" class="node">
<title>node_System(SystemKey(36v1))</title>
<g id="a_node31"><a xlink:title="bevy_asset::assets::Assets&lt;bevy_gltf::assets::GltfSkin&gt;::track_assets">
<polygon fill="#d1cbc5" stroke="#a3988c" points="781.25,-1533 545.5,-1533 545.5,-1497 781.25,-1497 781.25,-1533"/>
<text xml:space="preserve" text-anchor="middle" x="663.38" y="-1510.33" font-family="Helvetica,sans-Serif" font-size="14.00" fill="#1c1916">Assets&lt;GltfSkin&gt;::track_assets</text>
</a>
</g>
</g>
<!-- node_System(SystemKey(37v1)) -->
<g id="node32" class="node">
<title>node_System(SystemKey(37v1))</title>
<g id="a_node32"><a xlink:title="bevy_asset::assets::Assets&lt;bevy_audio::audio_source::AudioSource&gt;::track_assets">
<polygon fill="#d1cbc5" stroke="#a3988c" points="797.38,-1580 529.38,-1580 529.38,-1544 797.38,-1544 797.38,-1580"/>
<text xml:space="preserve" text-anchor="middle" x="663.38" y="-1557.33" font-family="Helvetica,sans-Serif" font-size="14.00" fill="#1c1916">Assets&lt;AudioSource&gt;::track_assets</text>
</a>
</g>
</g>
<!-- node_System(SystemKey(38v1)) -->
<g id="node33" class="node">
<title>node_System(SystemKey(38v1))</title>
<g id="a_node33"><a xlink:title="bevy_asset::assets::Assets&lt;bevy_audio::pitch::Pitch&gt;::track_assets">
<polygon fill="#d1cbc5" stroke="#a3988c" points="770.75,-1627 556,-1627 556,-1591 770.75,-1591 770.75,-1627"/>
<text xml:space="preserve" text-anchor="middle" x="663.38" y="-1604.33" font-family="Helvetica,sans-Serif" font-size="14.00" fill="#1c1916">Assets&lt;Pitch&gt;::track_assets</text>
</a>
</g>
</g>
<!-- node_System(SystemKey(40v1)) -->
<g id="node34" class="node">
<title>node_System(SystemKey(40v1))</title>
<g id="a_node34"><a xlink:title="bevy_asset::assets::Assets&lt;bevy_animation::AnimationClip&gt;::track_assets">
<polygon fill="#d1cbc5" stroke="#a3988c" points="802.25,-1674 524.5,-1674 524.5,-1638 802.25,-1638 802.25,-1674"/>
<text xml:space="preserve" text-anchor="middle" x="663.38" y="-1651.33" font-family="Helvetica,sans-Serif" font-size="14.00" fill="#1c1916">Assets&lt;AnimationClip&gt;::track_assets</text>
</a>
</g>
</g>
<!-- node_System(SystemKey(41v1)) -->
<g id="node35" class="node">
<title>node_System(SystemKey(41v1))</title>
<g id="a_node35"><a xlink:title="bevy_asset::assets::Assets&lt;bevy_animation::graph::AnimationGraph&gt;::track_assets">
<polygon fill="#d1cbc5" stroke="#a3988c" points="810.5,-1721 516.25,-1721 516.25,-1685 810.5,-1685 810.5,-1721"/>
<text xml:space="preserve" text-anchor="middle" x="663.38" y="-1698.33" font-family="Helvetica,sans-Serif" font-size="14.00" fill="#1c1916">Assets&lt;AnimationGraph&gt;::track_assets</text>
</a>
</g>
</g>
<!-- node_System(SystemKey(42v1)) -->
<g id="node36" class="node">
<title>node_System(SystemKey(42v1))</title>
<g id="a_node36"><a xlink:title="bevy_asset::assets::Assets&lt;bevy_gizmos::GizmoAsset&gt;::track_assets">
<polygon fill="#d1cbc5" stroke="#a3988c" points="794.75,-1768 532,-1768 532,-1732 794.75,-1732 794.75,-1768"/>
<text xml:space="preserve" text-anchor="middle" x="663.38" y="-1745.33" font-family="Helvetica,sans-Serif" font-size="14.00" fill="#1c1916">Assets&lt;GizmoAsset&gt;::track_assets</text>
</a>
</g>
</g>
<!-- set_marker_node_Set(SystemSetKey(24v1)) -->
<!-- set_marker_node_Set(SystemSetKey(52v1)) -->
<!-- set_marker_node_Set(SystemSetKey(24v1))&#45;&gt;set_marker_node_Set(SystemSetKey(52v1)) -->
<g id="edge5" class="edge">
<title>set_marker_node_Set(SystemSetKey(24v1))&#45;&gt;set_marker_node_Set(SystemSetKey(52v1))</title>
<g id="a_edge5"><a xlink:title="Backend → Hover">
<path fill="none" stroke="#44d488" stroke-width="2" d="M749.5,-1819C832.84,-1819 959.68,-1819 1046.94,-1819"/>
<polygon fill="#44d488" stroke="#44d488" stroke-width="2" points="1046.73,-1822.5 1056.73,-1819 1046.73,-1815.5 1046.73,-1822.5"/>
</a>
</g>
</g>
<!-- node_System(SystemKey(21v1)) -->
<g id="node38" class="node">
<title>node_System(SystemKey(21v1))</title>
<g id="a_node38"><a xlink:title="bevy_sprite::picking_backend::sprite_picking">
<polygon fill="#eff1f3" stroke="#b4bec7" points="719.75,-1868 607,-1868 607,-1832 719.75,-1832 719.75,-1868"/>
<text xml:space="preserve" text-anchor="middle" x="663.38" y="-1845.33" font-family="Helvetica,sans-Serif" font-size="14.00" fill="#15191d">sprite_picking</text>
</a>
</g>
</g>
<!-- node_System(SystemKey(26v1)) -->
<g id="node39" class="node">
<title>node_System(SystemKey(26v1))</title>
<g id="a_node39"><a xlink:title="bevy_ui::picking_backend::ui_picking">
<polygon fill="#ffb1e5" stroke="#ff4bc2" points="706.25,-1915 620.5,-1915 620.5,-1879 706.25,-1879 706.25,-1915"/>
<text xml:space="preserve" text-anchor="middle" x="663.38" y="-1892.33" font-family="Helvetica,sans-Serif" font-size="14.00" fill="#320021">ui_picking</text>
</a>
</g>
</g>
<!-- node_System(SystemKey(46v1)) -->
<g id="node40" class="node">
<title>node_System(SystemKey(46v1))</title>
<g id="a_node40"><a xlink:title="bevy_picking::window::update_window_hits">
<polygon fill="#eff1f3" stroke="#b4bec7" points="741.5,-1962 585.25,-1962 585.25,-1926 741.5,-1926 741.5,-1962"/>
<text xml:space="preserve" text-anchor="middle" x="663.38" y="-1939.33" font-family="Helvetica,sans-Serif" font-size="14.00" fill="#15191d">update_window_hits</text>
</a>
</g>
</g>
<!-- set_marker_node_Set(SystemSetKey(29v1)) -->
<!-- set_marker_node_Set(SystemSetKey(48v1)) -->
<!-- set_marker_node_Set(SystemSetKey(48v1))&#45;&gt;set_marker_node_Set(SystemSetKey(24v1)) -->
<g id="edge2" class="edge">
<title>set_marker_node_Set(SystemSetKey(48v1))&#45;&gt;set_marker_node_Set(SystemSetKey(24v1))</title>
<g id="a_edge2"><a xlink:title="ProcessInput → Backend">
<path fill="none" stroke="#881877" stroke-width="2" d="M164.13,-2003C184.08,-1970.18 252.96,-1865.66 342.5,-1827 380.97,-1810.39 485.18,-1810.58 564.29,-1813.54"/>
<polygon fill="#881877" stroke="#881877" stroke-width="2" points="564.1,-1817.03 574.23,-1813.93 564.38,-1810.04 564.1,-1817.03"/>
</a>
</g>
</g>
<!-- node_System(SystemKey(43v1)) -->
<g id="node44" class="node">
<title>node_System(SystemKey(43v1))</title>
<g id="a_node44"><a xlink:title="bevy_picking::pointer::update_pointer_map">
<polygon fill="#eff1f3" stroke="#b4bec7" points="236.5,-2062 78,-2062 78,-2026 236.5,-2026 236.5,-2062"/>
<text xml:space="preserve" text-anchor="middle" x="157.25" y="-2039.33" font-family="Helvetica,sans-Serif" font-size="14.00" fill="#15191d">update_pointer_map</text>
</a>
</g>
</g>
<!-- node_System(SystemKey(44v1)) -->
<g id="node45" class="node">
<title>node_System(SystemKey(44v1))</title>
<g id="a_node45"><a xlink:title="bevy_picking::pointer::PointerInput::receive">
<polygon fill="#eff1f3" stroke="#b4bec7" points="237.25,-2109 77.25,-2109 77.25,-2073 237.25,-2073 237.25,-2109"/>
<text xml:space="preserve" text-anchor="middle" x="157.25" y="-2086.32" font-family="Helvetica,sans-Serif" font-size="14.00" fill="#15191d">PointerInput::receive</text>
</a>
</g>
</g>
<!-- node_System(SystemKey(45v1)) -->
<g id="node46" class="node">
<title>node_System(SystemKey(45v1))</title>
<g id="a_node46"><a xlink:title="bevy_picking::backend::ray::RayMap::repopulate">
<polygon fill="#eff1f3" stroke="#b4bec7" points="740.75,-2109 586,-2109 586,-2073 740.75,-2073 740.75,-2109"/>
<text xml:space="preserve" text-anchor="middle" x="663.38" y="-2086.32" font-family="Helvetica,sans-Serif" font-size="14.00" fill="#15191d">RayMap::repopulate</text>
</a>
</g>
</g>
<!-- node_System(SystemKey(44v1))&#45;&gt;node_System(SystemKey(45v1)) -->
<g id="edge6" class="edge">
<title>node_System(SystemKey(44v1))&#45;&gt;node_System(SystemKey(45v1))</title>
<g id="a_edge6"><a xlink:title="SystemTypeSet(fn bevy_ecs::system::function_system::FunctionSystem&lt;fn(bevy_ecs::message::message_reader::MessageReader&lt;&#39;_, &#39;_, bevy_picking::pointer::PointerInput&gt;, bevy_ecs::system::query::Query&lt;&#39;_, &#39;_, (&amp;bevy_picking::pointer::PointerId, &amp;mut bevy_picking::pointer::PointerLocation, &amp;mut bevy_picking::pointer::PointerPress)&gt;), (), (), bevy_picking::pointer::PointerInput::receive&gt;()) → RayMap::repopulate">
<path fill="none" stroke="#0090cc" stroke-width="2" d="M237.57,-2091C328.63,-2091 477.65,-2091 572.81,-2091"/>
<polygon fill="#0090cc" stroke="#0090cc" stroke-width="2" points="572.55,-2094.5 582.55,-2091 572.55,-2087.5 572.55,-2094.5"/>
</a>
</g>
</g>
<!-- set_marker_node_Set(SystemSetKey(53v1)) -->
<!-- set_marker_node_Set(SystemSetKey(52v1))&#45;&gt;set_marker_node_Set(SystemSetKey(53v1)) -->
<g id="edge4" class="edge">
<title>set_marker_node_Set(SystemSetKey(52v1))&#45;&gt;set_marker_node_Set(SystemSetKey(53v1))</title>
<g id="a_edge4"><a xlink:title="Hover → PostHover">
<path fill="none" stroke="#aa3a55" stroke-width="2" d="M1192.06,-1809C1232.77,-1800.14 1292.27,-1787.19 1335.33,-1777.82"/>
<polygon fill="#aa3a55" stroke="#aa3a55" stroke-width="2" points="1335.89,-1781.28 1344.92,-1775.73 1334.41,-1774.44 1335.89,-1781.28"/>
</a>
</g>
</g>
<!-- node_System(SystemKey(47v1)) -->
<g id="node48" class="node">
<title>node_System(SystemKey(47v1))</title>
<g id="a_node48"><a xlink:title="bevy_picking::hover::generate_hovermap">
<polygon fill="#eff1f3" stroke="#b4bec7" points="1222.5,-1884 1067.75,-1884 1067.75,-1848 1222.5,-1848 1222.5,-1884"/>
<text xml:space="preserve" text-anchor="middle" x="1145.12" y="-1861.33" font-family="Helvetica,sans-Serif" font-size="14.00" fill="#15191d">generate_hovermap</text>
</a>
</g>
</g>
<!-- node_System(SystemKey(48v1)) -->
<g id="node49" class="node">
<title>node_System(SystemKey(48v1))</title>
<g id="a_node49"><a xlink:title="bevy_picking::hover::update_interactions">
<polygon fill="#eff1f3" stroke="#b4bec7" points="1467.25,-1884 1314,-1884 1314,-1848 1467.25,-1848 1467.25,-1884"/>
<text xml:space="preserve" text-anchor="middle" x="1390.62" y="-1861.33" font-family="Helvetica,sans-Serif" font-size="14.00" fill="#15191d">update_interactions</text>
</a>
</g>
</g>
<!-- node_System(SystemKey(47v1))&#45;&gt;node_System(SystemKey(48v1)) -->
<g id="edge13" class="edge">
<title>node_System(SystemKey(47v1))&#45;&gt;node_System(SystemKey(48v1))</title>
<g id="a_edge13"><a xlink:title="generate_hovermap → update_interactions">
<path fill="none" stroke="#881877" stroke-width="2" d="M1222.84,-1866C1247.64,-1866 1275.35,-1866 1300.95,-1866"/>
<polygon fill="#881877" stroke="#881877" stroke-width="2" points="1300.69,-1869.5 1310.69,-1866 1300.69,-1862.5 1300.69,-1869.5"/>
</a>
</g>
</g>
<!-- node_System(SystemKey(49v1)) -->
<g id="node50" class="node">
<title>node_System(SystemKey(49v1))</title>
<g id="a_node50"><a xlink:title="bevy_picking::hover::update_is_hovered">
<polygon fill="#eff1f3" stroke="#b4bec7" points="1677.88,-1853 1532.12,-1853 1532.12,-1817 1677.88,-1817 1677.88,-1853"/>
<text xml:space="preserve" text-anchor="middle" x="1605" y="-1830.33" font-family="Helvetica,sans-Serif" font-size="14.00" fill="#15191d">update_is_hovered</text>
</a>
</g>
</g>
<!-- node_System(SystemKey(48v1))&#45;&gt;node_System(SystemKey(49v1)) -->
<g id="edge10" class="edge">
<title>node_System(SystemKey(48v1))&#45;&gt;node_System(SystemKey(49v1))</title>
<g id="a_edge10"><a xlink:title="update_interactions → update_is_hovered">
<path fill="none" stroke="#22c2bb" stroke-width="2" d="M1467.7,-1854.9C1484.3,-1852.47 1501.96,-1849.89 1518.89,-1847.42"/>
<polygon fill="#22c2bb" stroke="#22c2bb" stroke-width="2" points="1519.27,-1850.91 1528.66,-1846 1518.26,-1843.98 1519.27,-1850.91"/>
</a>
</g>
</g>
<!-- node_System(SystemKey(50v1)) -->
<g id="node51" class="node">
<title>node_System(SystemKey(50v1))</title>
<g id="a_node51"><a xlink:title="bevy_picking::hover::update_is_directly_hovered">
<polygon fill="#eff1f3" stroke="#b4bec7" points="1706.75,-1900 1503.25,-1900 1503.25,-1864 1706.75,-1864 1706.75,-1900"/>
<text xml:space="preserve" text-anchor="middle" x="1605" y="-1877.33" font-family="Helvetica,sans-Serif" font-size="14.00" fill="#15191d">update_is_directly_hovered</text>
</a>
</g>
</g>
<!-- node_System(SystemKey(48v1))&#45;&gt;node_System(SystemKey(50v1)) -->
<g id="edge14" class="edge">
<title>node_System(SystemKey(48v1))&#45;&gt;node_System(SystemKey(50v1))</title>
<g id="a_edge14"><a xlink:title="update_interactions → update_is_directly_hovered">
<path fill="none" stroke="#00b0cc" stroke-width="2" d="M1467.7,-1871.73C1475.02,-1872.28 1482.55,-1872.85 1490.13,-1873.42"/>
<polygon fill="#00b0cc" stroke="#00b0cc" stroke-width="2" points="1489.65,-1876.9 1499.89,-1874.16 1490.18,-1869.91 1489.65,-1876.9"/>
</a>
</g>
</g>
<!-- node_System(SystemKey(51v1)) -->
<g id="node52" class="node">
<title>node_System(SystemKey(51v1))</title>
<g id="a_node52"><a xlink:title="bevy_picking::events::pointer_events">
<polygon fill="#eff1f3" stroke="#b4bec7" points="1861.5,-1876 1742.75,-1876 1742.75,-1840 1861.5,-1840 1861.5,-1876"/>
<text xml:space="preserve" text-anchor="middle" x="1802.12" y="-1853.33" font-family="Helvetica,sans-Serif" font-size="14.00" fill="#15191d">pointer_events</text>
</a>
</g>
</g>
<!-- node_System(SystemKey(49v1))&#45;&gt;node_System(SystemKey(51v1)) -->
<g id="edge7" class="edge">
<title>node_System(SystemKey(49v1))&#45;&gt;node_System(SystemKey(51v1))</title>
<g id="a_edge7"><a xlink:title="update_is_hovered → pointer_events">
<path fill="none" stroke="#ee9e44" stroke-width="2" d="M1678.1,-1843.5C1694.97,-1845.49 1712.93,-1847.6 1729.77,-1849.59"/>
<polygon fill="#ee9e44" stroke="#ee9e44" stroke-width="2" points="1729.04,-1853.03 1739.38,-1850.72 1729.86,-1846.08 1729.04,-1853.03"/>
</a>
</g>
</g>
<!-- node_System(SystemKey(50v1))&#45;&gt;node_System(SystemKey(51v1)) -->
<g id="edge15" class="edge">
<title>node_System(SystemKey(50v1))&#45;&gt;node_System(SystemKey(51v1))</title>
<g id="a_edge15"><a xlink:title="update_is_directly_hovered → pointer_events">
<path fill="none" stroke="#aa3a55" stroke-width="2" d="M1706.99,-1869.58C1714.55,-1868.65 1722.08,-1867.72 1729.39,-1866.82"/>
<polygon fill="#aa3a55" stroke="#aa3a55" stroke-width="2" points="1729.8,-1870.3 1739.3,-1865.6 1728.95,-1863.35 1729.8,-1870.3"/>
</a>
</g>
</g>
<!-- set_marker_node_Set(SystemSetKey(54v1)) -->
<!-- set_marker_node_Set(SystemSetKey(53v1))&#45;&gt;set_marker_node_Set(SystemSetKey(54v1)) -->
<g id="edge1" class="edge">
<title>set_marker_node_Set(SystemSetKey(53v1))&#45;&gt;set_marker_node_Set(SystemSetKey(54v1))</title>
<g id="a_edge1"><a xlink:title="PostHover → Last">
<path fill="none" stroke="#eede00" stroke-width="2" d="M1434.37,-1766C1474.45,-1766 1533.57,-1766 1570.38,-1766"/>
<polygon fill="#eede00" stroke="#eede00" stroke-width="2" points="1570.22,-1769.5 1580.22,-1766 1570.22,-1762.5 1570.22,-1769.5"/>
</a>
</g>
</g>
<!-- node_System(SystemKey(11v1)) -->
<g id="node55" class="node">
<title>node_System(SystemKey(11v1))</title>
<g id="a_node55"><a xlink:title="bevy_asset::server::handle_internal_asset_events">
<polygon fill="lightgrey" stroke="black" points="269.88,-497 44.62,-497 44.62,-461 269.88,-461 269.88,-497"/>
<text xml:space="preserve" text-anchor="middle" x="157.25" y="-474.32" font-family="Times,serif" font-size="14.00">handle_internal_asset_events</text>
</a>
</g>
</g>
<!-- node_System(SystemKey(11v1))&#45;&gt;set_marker_node_Set(SystemSetKey(10v1)) -->
<g id="edge9" class="edge">
<title>node_System(SystemKey(11v1))&#45;&gt;set_marker_node_Set(SystemSetKey(10v1))</title>
<g id="a_edge9"><a xlink:title="SystemTypeSet(fn bevy_ecs::system::exclusive_function_system::ExclusiveFunctionSystem&lt;fn(), (), bevy_asset::server::handle_internal_asset_events&gt;()) → AssetTrackingSystems">
<path fill="none" stroke="#3363bb" stroke-width="2" d="M270.13,-482.99C300.24,-484.07 334.26,-485.28 369.37,-486.54"/>
<polygon fill="#3363bb" stroke="#3363bb" stroke-width="2" points="369.21,-490.03 379.33,-486.89 369.46,-483.04 369.21,-490.03"/>
</a>
</g>
</g>
<!-- node_System(SystemKey(12v1)) -->
<g id="node56" class="node">
<title>node_System(SystemKey(12v1))</title>
<g id="a_node56"><a xlink:title="bevy_asset::server::publish_asset_server_diagnostics">
<polygon fill="lightgrey" stroke="black" points="789.88,-479 536.88,-479 536.88,-443 789.88,-443 789.88,-479"/>
<text xml:space="preserve" text-anchor="middle" x="663.38" y="-456.32" font-family="Times,serif" font-size="14.00">publish_asset_server_diagnostics</text>
</a>
</g>
</g>
<!-- node_System(SystemKey(11v1))&#45;&gt;node_System(SystemKey(12v1)) -->
<g id="edge8" class="edge">
<title>node_System(SystemKey(11v1))&#45;&gt;node_System(SystemKey(12v1))</title>
<g id="a_edge8"><a xlink:title="handle_internal_asset_events → publish_asset_server_diagnostics">
<path fill="none" stroke="#663699" stroke-width="2" d="M270.13,-475.01C345.03,-472.33 444.13,-468.79 523.98,-465.94"/>
<polygon fill="#663699" stroke="#663699" stroke-width="2" points="523.73,-469.45 533.6,-465.6 523.48,-462.46 523.73,-469.45"/>
</a>
</g>
</g>
<!-- node_System(SystemKey(27v1)) -->
<g id="node57" class="node">
<title>node_System(SystemKey(27v1))</title>
<g id="a_node57"><a xlink:title="bevy_pbr::prepass::update_mesh_previous_global_transforms">
<polygon fill="lightgrey" stroke="black" points="314.5,-2186 0,-2186 0,-2150 314.5,-2150 314.5,-2186"/>
<text xml:space="preserve" text-anchor="middle" x="157.25" y="-2163.32" font-family="Times,serif" font-size="14.00">update_mesh_previous_global_transforms</text>
</a>
</g>
</g>
<!-- node_System(SystemKey(28v1)) -->
<g id="node58" class="node">
<title>node_System(SystemKey(28v1))</title>
<g id="a_node58"><a xlink:title="bevy_pbr::prepass::update_previous_view_data">
<polygon fill="lightgrey" stroke="black" points="263.12,-2233 51.38,-2233 51.38,-2197 263.12,-2197 263.12,-2233"/>
<text xml:space="preserve" text-anchor="middle" x="157.25" y="-2210.32" font-family="Times,serif" font-size="14.00">update_previous_view_data</text>
</a>
</g>
</g>
<!-- node_System(SystemKey(39v1)) -->
<g id="node59" class="node">
<title>node_System(SystemKey(39v1))</title>
<g id="a_node59"><a xlink:title="bevy_gilrs::gilrs_system::gilrs_event_system">
<polygon fill="lightgrey" stroke="black" points="233.5,-136 81,-136 81,-100 233.5,-100 233.5,-136"/>
<text xml:space="preserve" text-anchor="middle" x="157.25" y="-113.33" font-family="Times,serif" font-size="14.00">gilrs_event_system</text>
</a>
</g>
</g>
<!-- node_System(SystemKey(39v1))&#45;&gt;set_marker_node_Set(SystemSetKey(2v1)) -->
<g id="edge12" class="edge">
<title>node_System(SystemKey(39v1))&#45;&gt;set_marker_node_Set(SystemSetKey(2v1))</title>
<g id="a_edge12"><a xlink:title="gilrs_event_system → InputSystems">
<path fill="none" stroke="#eede00" stroke-width="2" d="M234,-118C307.27,-118 420.38,-118 511.98,-118"/>
<polygon fill="#eede00" stroke="#eede00" stroke-width="2" points="511.73,-121.5 521.73,-118 511.73,-114.5 511.73,-121.5"/>
</a>
</g>
</g>
<!-- node_System(SystemKey(52v1)) -->
<g id="node60" class="node">
<title>node_System(SystemKey(52v1))</title>
<g id="a_node60"><a xlink:title="bevy_ecs::apply_deferred">
<polygon fill="lightgrey" stroke="black" points="218.88,-2280 95.62,-2280 95.62,-2244 218.88,-2244 218.88,-2280"/>
<text xml:space="preserve" text-anchor="middle" x="157.25" y="-2257.32" font-family="Times,serif" font-size="14.00">apply_deferred</text>
</a>
</g>
</g>
<!-- node_System(SystemKey(53v1)) -->
<g id="node61" class="node">
<title>node_System(SystemKey(53v1))</title>
<g id="a_node61"><a xlink:title="bevy_ecs::apply_deferred">
<polygon fill="lightgrey" stroke="black" points="218.88,-2327 95.62,-2327 95.62,-2291 218.88,-2291 218.88,-2327"/>
<text xml:space="preserve" text-anchor="middle" x="157.25" y="-2304.32" font-family="Times,serif" font-size="14.00">apply_deferred</text>
</a>
</g>
</g>
</g>
</svg>
