<?xml version="1.0" encoding="UTF-8" standalone="no"?>
<!DOCTYPE svg PUBLIC "-//W3C//DTD SVG 1.1//EN"
 "http://www.w3.org/Graphics/SVG/1.1/DTD/svg11.dtd">
<!-- Generated by graphviz version 13.1.2 (20250808.2320)
 -->
<!-- Pages: 1 -->
<svg width="567pt" height="68pt"
 viewBox="0.00 0.00 567.00 68.00" xmlns="http://www.w3.org/2000/svg" xmlns:xlink="http://www.w3.org/1999/xlink">
<g id="graph0" class="graph" transform="scale(1 1) rotate(0) translate(4 64)">
<polygon fill="#0d1117" stroke="none" points="-4,4 -4,-64 563,-64 563,4 -4,4"/>
<g id="clust1" class="cluster">
<title>clusternode_Set(SystemSetKey(1v1))</title>
<g id="a_clust1"><a xlink:title="DependentTransitions">
<path fill="#ffffff" fill-opacity="0.266667" stroke="#ffffff" stroke-width="2" stroke-opacity="0.313725" d="M12,-8C12,-8 136,-8 136,-8 142,-8 148,-14 148,-20 148,-20 148,-40 148,-40 148,-46 142,-52 136,-52 136,-52 12,-52 12,-52 6,-52 0,-46 0,-40 0,-40 0,-20 0,-20 0,-14 6,-8 12,-8"/>
<text xml:space="preserve" text-anchor="middle" x="74" y="-34.7" font-family="Helvetica,sans-Serif" font-size="14.00" fill="#ffffff">DependentTransitions</text>
</a>
</g>
</g>
<g id="clust2" class="cluster">
<title>clusternode_Set(SystemSetKey(2v1))</title>
<g id="a_clust2"><a xlink:title="ExitSchedules">
<path fill="#ffffff" fill-opacity="0.266667" stroke="#ffffff" stroke-width="2" stroke-opacity="0.313725" d="M180,-8C180,-8 257.5,-8 257.5,-8 263.5,-8 269.5,-14 269.5,-20 269.5,-20 269.5,-40 269.5,-40 269.5,-46 263.5,-52 257.5,-52 257.5,-52 180,-52 180,-52 174,-52 168,-46 168,-40 168,-40 168,-20 168,-20 168,-14 174,-8 180,-8"/>
<text xml:space="preserve" text-anchor="middle" x="218.75" y="-34.7" font-family="Helvetica,sans-Serif" font-size="14.00" fill="#ffffff">ExitSchedules</text>
</a>
</g>
</g>
<g id="clust3" class="cluster">
<title>clusternode_Set(SystemSetKey(3v1))</title>
<g id="a_clust3"><a xlink:title="TransitionSchedules">
<path fill="#ffffff" fill-opacity="0.266667" stroke="#ffffff" stroke-width="2" stroke-opacity="0.313725" d="M301.5,-8C301.5,-8 415.75,-8 415.75,-8 421.75,-8 427.75,-14 427.75,-20 427.75,-20 427.75,-40 427.75,-40 427.75,-46 421.75,-52 415.75,-52 415.75,-52 301.5,-52 301.5,-52 295.5,-52 289.5,-46 289.5,-40 289.5,-40 289.5,-20 289.5,-20 289.5,-14 295.5,-8 301.5,-8"/>
<text xml:space="preserve" text-anchor="middle" x="358.62" y="-34.7" font-family="Helvetica,sans-Serif" font-size="14.00" fill="#ffffff">TransitionSchedules</text>
</a>
</g>
</g>
<g id="clust4" class="cluster">
<title>clusternode_Set(SystemSetKey(4v1))</title>
<g id="a_clust4"><a xlink:title="EnterSchedules">
<path fill="#ffffff" fill-opacity="0.266667" stroke="#ffffff" stroke-width="2" stroke-opacity="0.313725" d="M459.75,-8C459.75,-8 547,-8 547,-8 553,-8 559,-14 559,-20 559,-20 559,-40 559,-40 559,-46 553,-52 547,-52 547,-52 459.75,-52 459.75,-52 453.75,-52 447.75,-46 447.75,-40 447.75,-40 447.75,-20 447.75,-20 447.75,-14 453.75,-8 459.75,-8"/>
<text xml:space="preserve" text-anchor="middle" x="503.38" y="-34.7" font-family="Helvetica,sans-Serif" font-size="14.00" fill="#ffffff">EnterSchedules</text>
</a>
</g>
</g>
<!-- set_marker_node_Set(SystemSetKey(1v1)) -->
<!-- set_marker_node_Set(SystemSetKey(2v1)) -->
<!-- set_marker_node_Set(SystemSetKey(1v1))&#45;&gt;set_marker_node_Set(SystemSetKey(2v1)) -->
<g id="edge1" class="edge">
<title>set_marker_node_Set(SystemSetKey(1v1))&#45;&gt;set_marker_node_Set(SystemSetKey(2v1))</title>
<g id="a_edge1"><a xlink:title="DependentTransitions → ExitSchedules">
<path fill="none" stroke="#eede00" stroke-width="2" d="M148,-18C150.48,-18 152.96,-18 155.42,-18"/>
<polygon fill="#eede00" stroke="#eede00" stroke-width="2" points="154.98,-21.5 164.98,-18 154.98,-14.5 154.98,-21.5"/>
</a>
</g>
</g>
<!-- set_marker_node_Set(SystemSetKey(3v1)) -->
<!-- set_marker_node_Set(SystemSetKey(2v1))&#45;&gt;set_marker_node_Set(SystemSetKey(3v1)) -->
<g id="edge2" class="edge">
<title>set_marker_node_Set(SystemSetKey(2v1))&#45;&gt;set_marker_node_Set(SystemSetKey(3v1))</title>
<g id="a_edge2"><a xlink:title="ExitSchedules → TransitionSchedules">
<path fill="none" stroke="#881877" stroke-width="2" d="M269.5,-18C271.83,-18 274.18,-18 276.56,-18"/>
<polygon fill="#881877" stroke="#881877" stroke-width="2" points="276.48,-21.5 286.48,-18 276.48,-14.5 276.48,-21.5"/>
</a>
</g>
</g>
<!-- set_marker_node_Set(SystemSetKey(4v1)) -->
<!-- set_marker_node_Set(SystemSetKey(3v1))&#45;&gt;set_marker_node_Set(SystemSetKey(4v1)) -->
<g id="edge3" class="edge">
<title>set_marker_node_Set(SystemSetKey(3v1))&#45;&gt;set_marker_node_Set(SystemSetKey(4v1))</title>
<g id="a_edge3"><a xlink:title="TransitionSchedules → EnterSchedules">
<path fill="none" stroke="#00b0cc" stroke-width="2" d="M427.75,-18C430.21,-18 432.67,-18 435.13,-18"/>
<polygon fill="#00b0cc" stroke="#00b0cc" stroke-width="2" points="434.72,-21.5 444.72,-18 434.72,-14.5 434.72,-21.5"/>
</a>
</g>
</g>
</g>
</svg>
