<?xml version="1.0" encoding="UTF-8" standalone="no"?>
<!DOCTYPE svg PUBLIC "-//W3C//DTD SVG 1.1//EN"
 "http://www.w3.org/Graphics/SVG/1.1/DTD/svg11.dtd">
<!-- Generated by graphviz version 12.1.2 (0)
 -->
<!-- Pages: 1 -->
<svg width="1567pt" height="261pt"
 viewBox="0.00 0.00 1566.75 261.00" xmlns="http://www.w3.org/2000/svg" xmlns:xlink="http://www.w3.org/1999/xlink">
<g id="graph0" class="graph" transform="scale(1 1) rotate(0) translate(4 257)">
<polygon fill="#0d1117" stroke="none" points="-4,4 -4,-257 1562.75,-257 1562.75,4 -4,4"/>
<g id="clust1" class="cluster">
<title>clusternode_Set(1)</title>
<g id="a_clust1"><a xlink:title="EventUpdates">
<path fill="#ffffff" fill-opacity="0.266667" stroke="#ffffff" stroke-width="2" stroke-opacity="0.313725" d="M20,-44C20,-44 179.5,-44 179.5,-44 185.5,-44 191.5,-50 191.5,-56 191.5,-56 191.5,-124 191.5,-124 191.5,-130 185.5,-136 179.5,-136 179.5,-136 20,-136 20,-136 14,-136 8,-130 8,-124 8,-124 8,-56 8,-56 8,-50 14,-44 20,-44"/>
<text text-anchor="middle" x="99.75" y="-118.7" font-family="Helvetica,sans-Serif" font-size="14.00" fill="#ffffff">EventUpdates</text>
</a>
</g>
</g>
<g id="clust2" class="cluster">
<title>clusternode_Set(3)</title>
<g id="a_clust2"><a xlink:title="TimeSystem">
<path fill="#ffffff" fill-opacity="0.266667" stroke="#ffffff" stroke-width="2" stroke-opacity="0.313725" d="M51.88,-153C51.88,-153 147.62,-153 147.62,-153 153.62,-153 159.62,-159 159.62,-165 159.62,-165 159.62,-233 159.62,-233 159.62,-239 153.62,-245 147.62,-245 147.62,-245 51.88,-245 51.88,-245 45.88,-245 39.88,-239 39.88,-233 39.88,-233 39.88,-165 39.88,-165 39.88,-159 45.88,-153 51.88,-153"/>
<text text-anchor="middle" x="99.75" y="-227.7" font-family="Helvetica,sans-Serif" font-size="14.00" fill="#ffffff">TimeSystem</text>
</a>
</g>
</g>
<g id="clust3" class="cluster">
<title>clusternode_Set(7)</title>
<g id="a_clust3"><a xlink:title="Input">
<path fill="#ffffff" fill-opacity="0.266667" stroke="#ffffff" stroke-width="2" stroke-opacity="0.313725" d="M223.5,-44C223.5,-44 1050.38,-44 1050.38,-44 1056.38,-44 1062.38,-50 1062.38,-56 1062.38,-56 1062.38,-124 1062.38,-124 1062.38,-130 1056.38,-136 1050.38,-136 1050.38,-136 223.5,-136 223.5,-136 217.5,-136 211.5,-130 211.5,-124 211.5,-124 211.5,-56 211.5,-56 211.5,-50 217.5,-44 223.5,-44"/>
<text text-anchor="middle" x="636.94" y="-118.7" font-family="Helvetica,sans-Serif" font-size="14.00" fill="#ffffff">Input</text>
</a>
</g>
</g>
<g id="clust4" class="cluster">
<title>clusternode_Set(9)</title>
<g id="a_clust4"><a xlink:title="PostInput">
<path fill="#ffffff" fill-opacity="0.266667" stroke="#ffffff" stroke-width="2" stroke-opacity="0.313725" d="M954.12,-144C954.12,-144 1012.12,-144 1012.12,-144 1018.12,-144 1024.12,-150 1024.12,-156 1024.12,-156 1024.12,-177 1024.12,-177 1024.12,-183 1018.12,-189 1012.12,-189 1012.12,-189 954.12,-189 954.12,-189 948.12,-189 942.12,-183 942.12,-177 942.12,-177 942.12,-156 942.12,-156 942.12,-150 948.12,-144 954.12,-144"/>
<text text-anchor="middle" x="983.12" y="-171.7" font-family="Helvetica,sans-Serif" font-size="14.00" fill="#ffffff">PostInput</text>
</a>
</g>
</g>
<!-- set_marker_node_Set(1) -->
<!-- set_marker_node_Set(7) -->
<!-- set_marker_node_Set(1)&#45;&gt;set_marker_node_Set(7) -->
<g id="edge5" class="edge">
<title>set_marker_node_Set(1)&#45;&gt;set_marker_node_Set(7)</title>
<g id="a_edge5"><a xlink:title="EventUpdates → Input">
<path fill="none" stroke="#44d488" stroke-width="2" d="M191.5,-101C193.91,-101 196.34,-101 198.76,-101"/>
<polygon fill="#44d488" stroke="#44d488" stroke-width="2" points="198.47,-104.5 208.47,-101 198.47,-97.5 198.47,-104.5"/>
</a>
</g>
</g>
<!-- set_marker_node_Set(9) -->
<!-- set_marker_node_Set(1)&#45;&gt;set_marker_node_Set(9) -->
<g id="edge7" class="edge">
<title>set_marker_node_Set(1)&#45;&gt;set_marker_node_Set(9)</title>
<g id="a_edge7"><a xlink:title="EventUpdates → PostInput">
<path fill="none" stroke="#ee9e44" stroke-width="2" d="M191.5,-133.73C198.21,-135.4 204.92,-136.86 211.5,-138 477.98,-184.18 804.05,-167.38 929.25,-158.29"/>
<polygon fill="#ee9e44" stroke="#ee9e44" stroke-width="2" points="929.4,-161.79 939.11,-157.56 928.88,-154.81 929.4,-161.79"/>
</a>
</g>
</g>
<!-- node_System(0) -->
<g id="node2" class="node">
<title>node_System(0)</title>
<g id="a_node2"><a xlink:title="bevy_ecs::event::update::event_update_system">
<polygon fill="#b0d34a" stroke="#d3e69c" points="183.5,-88 16,-88 16,-52 183.5,-52 183.5,-88"/>
<text text-anchor="middle" x="99.75" y="-65.33" font-family="Helvetica,sans-Serif" font-size="14.00" fill="#edf5d5">event_update_system</text>
</a>
</g>
</g>
<!-- node_System(2) -->
<g id="node9" class="node">
<title>node_System(2)</title>
<g id="a_node9"><a xlink:title="bevy_render::view::window::screenshot::clear_screenshots">
<polygon fill="lightgrey" stroke="black" points="366.75,-36 223.25,-36 223.25,0 366.75,0 366.75,-36"/>
<text text-anchor="middle" x="295" y="-13.32" font-family="Times,serif" font-size="14.00">clear_screenshots</text>
</a>
</g>
</g>
<!-- node_System(0)&#45;&gt;node_System(2) -->
<g id="edge1" class="edge">
<title>node_System(0)&#45;&gt;node_System(2)</title>
<g id="a_edge1"><a xlink:title="SystemTypeSet(fn bevy_ecs::system::exclusive_function_system::ExclusiveFunctionSystem&lt;fn(bevy_ecs::system::system_param::Local&lt;bevy_ecs::component::Tick&gt;), bevy_ecs::event::update::event_update_system&gt;()) → clear_screenshots">
<path fill="none" stroke="#eede00" stroke-width="2" d="M169.43,-51.52C183.52,-47.73 198.49,-43.7 212.97,-39.8"/>
<polygon fill="#eede00" stroke="#eede00" stroke-width="2" points="213.87,-43.18 222.62,-37.21 212.06,-36.43 213.87,-43.18"/>
</a>
</g>
</g>
<!-- set_marker_node_Set(3) -->
<!-- set_marker_node_Set(3)&#45;&gt;set_marker_node_Set(7) -->
<g id="edge4" class="edge">
<title>set_marker_node_Set(3)&#45;&gt;set_marker_node_Set(7)</title>
<g id="a_edge4"><a xlink:title="TimeSystem → Input">
<path fill="none" stroke="#aa3a55" stroke-width="2" d="M139.61,-153C155.75,-148.67 174.61,-143.37 191.5,-138 194.05,-137.19 196.63,-136.36 199.23,-135.51"/>
<polygon fill="#aa3a55" stroke="#aa3a55" stroke-width="2" points="200.26,-138.85 208.63,-132.36 198.04,-132.21 200.26,-138.85"/>
</a>
</g>
</g>
<!-- set_marker_node_Set(3)&#45;&gt;set_marker_node_Set(9) -->
<g id="edge6" class="edge">
<title>set_marker_node_Set(3)&#45;&gt;set_marker_node_Set(9)</title>
<g id="a_edge6"><a xlink:title="TimeSystem → PostInput">
<path fill="none" stroke="#0090cc" stroke-width="2" d="M159.62,-162.4C322.1,-160.74 774.94,-156.11 929.3,-154.53"/>
<polygon fill="#0090cc" stroke="#0090cc" stroke-width="2" points="929.14,-158.04 939.1,-154.43 929.07,-151.04 929.14,-158.04"/>
</a>
</g>
</g>
<!-- node_System(1) -->
<g id="node4" class="node">
<title>node_System(1)</title>
<g id="a_node4"><a xlink:title="bevy_time::time_system">
<polygon fill="#c7ddbd" stroke="#8dba79" points="151.62,-212 47.88,-212 47.88,-176 151.62,-176 151.62,-212"/>
<text text-anchor="middle" x="99.75" y="-189.32" font-family="Helvetica,sans-Serif" font-size="14.00" fill="#162111">time_system</text>
</a>
</g>
</g>
<!-- set_marker_node_Set(7)&#45;&gt;set_marker_node_Set(9) -->
<g id="edge8" class="edge">
<title>set_marker_node_Set(7)&#45;&gt;set_marker_node_Set(9)</title>
<g id="a_edge8"><a xlink:title="Input → PostInput">
<path fill="none" stroke="#663699" stroke-width="2" d="M396.41,-136C399.8,-136.74 403.17,-137.41 406.5,-138 596.61,-171.7 827.51,-163.63 929.22,-157.66"/>
<polygon fill="#663699" stroke="#663699" stroke-width="2" points="929.34,-161.16 939.1,-157.05 928.91,-154.17 929.34,-161.16"/>
</a>
</g>
</g>
<!-- node_System(3) -->
<g id="node6" class="node">
<title>node_System(3)</title>
<g id="a_node6"><a xlink:title="bevy_picking::input::mouse_pick_events">
<polygon fill="#eff1f3" stroke="#b4bec7" points="370.5,-88 219.5,-88 219.5,-52 370.5,-52 370.5,-88"/>
<text text-anchor="middle" x="295" y="-65.33" font-family="Helvetica,sans-Serif" font-size="14.00" fill="#15191d">mouse_pick_events</text>
</a>
</g>
</g>
<!-- node_System(4) -->
<g id="node7" class="node">
<title>node_System(4)</title>
<g id="a_node7"><a xlink:title="bevy_picking::input::touch_pick_events">
<polygon fill="#eff1f3" stroke="#b4bec7" points="1054.38,-88 910.88,-88 910.88,-52 1054.38,-52 1054.38,-88"/>
<text text-anchor="middle" x="982.62" y="-65.33" font-family="Helvetica,sans-Serif" font-size="14.00" fill="#15191d">touch_pick_events</text>
</a>
</g>
</g>
<!-- node_System(3)&#45;&gt;node_System(4) -->
<g id="edge3" class="edge">
<title>node_System(3)&#45;&gt;node_System(4)</title>
<g id="a_edge3"><a xlink:title="mouse_pick_events → touch_pick_events">
<path fill="none" stroke="#00b0cc" stroke-width="2" d="M370.68,-70C499.54,-70 762.77,-70 897.74,-70"/>
<polygon fill="#00b0cc" stroke="#00b0cc" stroke-width="2" points="897.36,-73.5 907.36,-70 897.36,-66.5 897.36,-73.5"/>
</a>
</g>
</g>
<!-- UNKNOWN SystemTypeSet(fn bevy_ecs::system::exclusive_function_system::ExclusiveFunctionSystem&lt;fn(), bevy_ecs::schedule::executor::apply_deferred&gt;()) -->
<g id="node10" class="node">
<title>UNKNOWN SystemTypeSet(fn bevy_ecs::system::exclusive_function_system::ExclusiveFunctionSystem&lt;fn(), bevy_ecs::schedule::executor::apply_deferred&gt;())</title>
<polygon fill="lightgrey" stroke="black" points="1558.75,-36 406.5,-36 406.5,0 1558.75,0 1558.75,-36"/>
<text text-anchor="middle" x="982.62" y="-13.32" font-family="Times,serif" font-size="14.00">UNKNOWN SystemTypeSet(fn bevy_ecs::system::exclusive_function_system::ExclusiveFunctionSystem&lt;fn(), bevy_ecs::schedule::executor::apply_deferred&gt;())</text>
</g>
<!-- node_System(2)&#45;&gt;UNKNOWN SystemTypeSet(fn bevy_ecs::system::exclusive_function_system::ExclusiveFunctionSystem&lt;fn(), bevy_ecs::schedule::executor::apply_deferred&gt;()) -->
<g id="edge2" class="edge">
<title>node_System(2)&#45;&gt;UNKNOWN SystemTypeSet(fn bevy_ecs::system::exclusive_function_system::ExclusiveFunctionSystem&lt;fn(), bevy_ecs::schedule::executor::apply_deferred&gt;())</title>
<g id="a_edge2"><a xlink:title="clear_screenshots → SystemTypeSet(fn bevy_ecs::system::exclusive_function_system::ExclusiveFunctionSystem&lt;fn(), bevy_ecs::schedule::executor::apply_deferred&gt;())">
<path fill="none" stroke="#881877" stroke-width="2" d="M367.11,-18C375.3,-18 384.05,-18 393.32,-18"/>
<polygon fill="#881877" stroke="#881877" stroke-width="2" points="393.22,-21.5 403.22,-18 393.22,-14.5 393.22,-21.5"/>
</a>
</g>
</g>
</g>
</svg>
