<?xml version="1.0" encoding="UTF-8" standalone="no"?>
<!DOCTYPE svg PUBLIC "-//W3C//DTD SVG 1.1//EN"
 "http://www.w3.org/Graphics/SVG/1.1/DTD/svg11.dtd">
<!-- Generated by graphviz version 7.1.0 (0)
 -->
<!-- Title: schedule Pages: 1 -->
<svg width="1514pt" height="219pt"
 viewBox="0.00 0.00 1514.00 219.00" xmlns="http://www.w3.org/2000/svg" xmlns:xlink="http://www.w3.org/1999/xlink">
<g id="graph0" class="graph" transform="scale(1 1) rotate(0) translate(4 215)">
<title>schedule</title>
<polygon fill="#0d1117" stroke="none" points="-4,4 -4,-215 1510,-215 1510,4 -4,4"/>
<g id="clust1" class="cluster">
<title>clusternode_Set(0)</title>
<polygon fill="#6f90ad" stroke="black" points="894,-62 894,-101 959,-101 959,-62 894,-62"/>
<text text-anchor="middle" x="926.5" y="-85.8" font-family="Helvetica,sans-Serif" font-size="14.00">Update</text>
</g>
<g id="clust2" class="cluster">
<title>clusternode_Set(2)</title>
<polygon fill="#6f90ad" stroke="black" points="157,-85 157,-124 239,-124 239,-85 157,-85"/>
<text text-anchor="middle" x="198" y="-108.8" font-family="Helvetica,sans-Serif" font-size="14.00">FirstFlush</text>
</g>
<g id="clust3" class="cluster">
<title>clusternode_Set(3)</title>
<polygon fill="#6f90ad" stroke="black" points="371,-62 371,-101 494,-101 494,-62 371,-62"/>
<text text-anchor="middle" x="432.5" y="-85.8" font-family="Helvetica,sans-Serif" font-size="14.00">PreUpdateFlush</text>
</g>
<g id="clust4" class="cluster">
<title>clusternode_Set(4)</title>
<polygon fill="#6f90ad" stroke="black" points="979,-62 979,-101 1080,-101 1080,-62 979,-62"/>
<text text-anchor="middle" x="1029.5" y="-85.8" font-family="Helvetica,sans-Serif" font-size="14.00">UpdateFlush</text>
</g>
<g id="clust5" class="cluster">
<title>clusternode_Set(5)</title>
<polygon fill="#6f90ad" stroke="black" points="1213,-86 1213,-125 1342,-125 1342,-86 1213,-86"/>
<text text-anchor="middle" x="1277.5" y="-109.8" font-family="Helvetica,sans-Serif" font-size="14.00">PostUpdateFlush</text>
</g>
<g id="clust6" class="cluster">
<title>clusternode_Set(6)</title>
<polygon fill="#6f90ad" stroke="black" points="1426,-62 1426,-101 1506,-101 1506,-62 1426,-62"/>
<text text-anchor="middle" x="1466" y="-85.8" font-family="Helvetica,sans-Serif" font-size="14.00">LastFlush</text>
</g>
<g id="clust7" class="cluster">
<title>clusternode_Set(7)</title>
<polygon fill="#6f90ad" stroke="black" points="8,-61 8,-203 141,-203 141,-61 8,-61"/>
<text text-anchor="middle" x="74.5" y="-187.8" font-family="Helvetica,sans-Serif" font-size="14.00">First</text>
</g>
<g id="clust8" class="cluster">
<title>clusternode_Set(16)</title>
<polygon fill="#6f90ad" stroke="black" points="16,-79 16,-172 133,-172 133,-79 16,-79"/>
<text text-anchor="middle" x="74.5" y="-156.8" font-family="Helvetica,sans-Serif" font-size="14.00">TimeSystem</text>
</g>
<g id="clust9" class="cluster">
<title>clusternode_Set(8)</title>
<polygon fill="#6f90ad" stroke="black" points="264,-62 264,-101 351,-101 351,-62 264,-62"/>
<text text-anchor="middle" x="307.5" y="-85.8" font-family="Helvetica,sans-Serif" font-size="14.00">PreUpdate</text>
</g>
<g id="clust10" class="cluster">
<title>clusternode_Set(9)</title>
<polygon fill="#6f90ad" stroke="black" points="514,-62 514,-101 638,-101 638,-62 514,-62"/>
<text text-anchor="middle" x="576" y="-85.8" font-family="Helvetica,sans-Serif" font-size="14.00">StateTransitions</text>
</g>
<g id="clust11" class="cluster">
<title>clusternode_Set(10)</title>
<polygon fill="#6f90ad" stroke="black" points="658,-8 658,-101 874,-101 874,-8 658,-8"/>
<text text-anchor="middle" x="766" y="-85.8" font-family="Helvetica,sans-Serif" font-size="14.00">FixedUpdate</text>
</g>
<g id="clust12" class="cluster">
<title>clusternode_Set(11)</title>
<polygon fill="#6f90ad" stroke="black" points="1100,-62 1100,-101 1193,-101 1193,-62 1100,-62"/>
<text text-anchor="middle" x="1146.5" y="-85.8" font-family="Helvetica,sans-Serif" font-size="14.00">PostUpdate</text>
</g>
<g id="clust13" class="cluster">
<title>clusternode_Set(12)</title>
<polygon fill="#6f90ad" stroke="black" points="1362,-62 1362,-101 1406,-101 1406,-62 1362,-62"/>
<text text-anchor="middle" x="1384" y="-85.8" font-family="Helvetica,sans-Serif" font-size="14.00">Last</text>
</g>
<g id="clust14" class="cluster">
<title>clusternode_Set(58)</title>
<polygon fill="#6f90ad" stroke="black" points="153,-38 153,-77 244,-77 244,-38 153,-38"/>
<text text-anchor="middle" x="198.5" y="-61.8" font-family="Helvetica,sans-Serif" font-size="14.00">LoadAssets</text>
</g>
<g id="clust15" class="cluster">
<title>clusternode_Set(59)</title>
<polygon fill="#6f90ad" stroke="black" points="1229,-39 1229,-78 1325,-78 1325,-39 1229,-39"/>
<text text-anchor="middle" x="1277" y="-62.8" font-family="Helvetica,sans-Serif" font-size="14.00">AssetEvents</text>
</g>
<!-- set_marker_node_Set(0) -->
<!-- set_marker_node_Set(4) -->
<!-- set_marker_node_Set(0)&#45;&gt;set_marker_node_Set(4) -->
<g id="edge7" class="edge">
<title>set_marker_node_Set(0)&#45;&gt;set_marker_node_Set(4)</title>
<path fill="none" stroke="white" d="M959,-70C961.81,-70 964.71,-70 967.65,-70"/>
<polygon fill="white" stroke="white" points="967.49,-73.5 977.49,-70 967.49,-66.5 967.49,-73.5"/>
</g>
<!-- set_marker_node_Set(2) -->
<!-- set_marker_node_Set(8) -->
<!-- set_marker_node_Set(2)&#45;&gt;set_marker_node_Set(8) -->
<g id="edge2" class="edge">
<title>set_marker_node_Set(2)&#45;&gt;set_marker_node_Set(8)</title>
<path fill="none" stroke="white" d="M236.21,-85C241.62,-83.84 247.27,-82.62 252.92,-81.41"/>
<polygon fill="white" stroke="white" points="253.48,-84.87 262.53,-79.35 252.01,-78.02 253.48,-84.87"/>
</g>
<!-- set_marker_node_Set(3) -->
<!-- set_marker_node_Set(9) -->
<!-- set_marker_node_Set(3)&#45;&gt;set_marker_node_Set(9) -->
<g id="edge4" class="edge">
<title>set_marker_node_Set(3)&#45;&gt;set_marker_node_Set(9)</title>
<path fill="none" stroke="white" d="M494,-70C496.83,-70 499.68,-70 502.54,-70"/>
<polygon fill="white" stroke="white" points="502.49,-73.5 512.49,-70 502.49,-66.5 502.49,-73.5"/>
</g>
<!-- set_marker_node_Set(11) -->
<!-- set_marker_node_Set(4)&#45;&gt;set_marker_node_Set(11) -->
<g id="edge8" class="edge">
<title>set_marker_node_Set(4)&#45;&gt;set_marker_node_Set(11)</title>
<path fill="none" stroke="white" d="M1080,-70C1082.92,-70 1085.88,-70 1088.82,-70"/>
<polygon fill="white" stroke="white" points="1088.49,-73.5 1098.49,-70 1088.49,-66.5 1088.49,-73.5"/>
</g>
<!-- set_marker_node_Set(5) -->
<!-- set_marker_node_Set(12) -->
<!-- set_marker_node_Set(5)&#45;&gt;set_marker_node_Set(12) -->
<g id="edge10" class="edge">
<title>set_marker_node_Set(5)&#45;&gt;set_marker_node_Set(12)</title>
<path fill="none" stroke="white" d="M1323.71,-86C1329.88,-84.76 1336.11,-83.41 1342,-82 1344.97,-81.29 1348.04,-80.5 1351.11,-79.67"/>
<polygon fill="white" stroke="white" points="1351.88,-83.09 1360.55,-76.99 1349.97,-76.35 1351.88,-83.09"/>
</g>
<!-- set_marker_node_Set(6) -->
<!-- set_marker_node_Set(7) -->
<!-- set_marker_node_Set(7)&#45;&gt;set_marker_node_Set(2) -->
<g id="edge1" class="edge">
<title>set_marker_node_Set(7)&#45;&gt;set_marker_node_Set(2)</title>
<path fill="none" stroke="white" d="M141,-75C146.73,-76.63 147.43,-78.87 153,-81 153.35,-81.13 153.71,-81.27 154.07,-81.4"/>
<polygon fill="white" stroke="white" points="152.75,-84.65 163.34,-84.52 154.98,-78.02 152.75,-84.65"/>
</g>
<!-- set_marker_node_Set(58) -->
<!-- set_marker_node_Set(7)&#45;&gt;set_marker_node_Set(58) -->
<g id="edge13" class="edge">
<title>set_marker_node_Set(7)&#45;&gt;set_marker_node_Set(58)</title>
<path fill="none" stroke="white" d="M117.75,-61C125.61,-59.51 133.92,-57.94 142.09,-56.39"/>
<polygon fill="white" stroke="white" points="142.34,-59.91 151.51,-54.61 141.04,-53.03 142.34,-59.91"/>
</g>
<!-- set_marker_node_Set(16) -->
<!-- node_System(8) -->
<g id="node9" class="node">
<title>node_System(8)</title>
<polygon fill="#eff1f3" stroke="#eff1f3" points="125,-123 24,-123 24,-87 125,-87 125,-123"/>
<text text-anchor="middle" x="74.5" y="-101.3" font-family="Times,serif" font-size="14.00">time_system</text>
</g>
<!-- set_marker_node_Set(8)&#45;&gt;set_marker_node_Set(3) -->
<g id="edge3" class="edge">
<title>set_marker_node_Set(8)&#45;&gt;set_marker_node_Set(3)</title>
<path fill="none" stroke="white" d="M351,-70C353.84,-70 356.75,-70 359.68,-70"/>
<polygon fill="white" stroke="white" points="359.49,-73.5 369.49,-70 359.49,-66.5 359.49,-73.5"/>
</g>
<!-- set_marker_node_Set(10) -->
<!-- set_marker_node_Set(9)&#45;&gt;set_marker_node_Set(10) -->
<g id="edge5" class="edge">
<title>set_marker_node_Set(9)&#45;&gt;set_marker_node_Set(10)</title>
<path fill="none" stroke="white" d="M638,-70C640.83,-70 643.71,-70 646.63,-70"/>
<polygon fill="white" stroke="white" points="646.49,-73.5 656.49,-70 646.49,-66.5 646.49,-73.5"/>
</g>
<!-- set_marker_node_Set(10)&#45;&gt;set_marker_node_Set(0) -->
<g id="edge6" class="edge">
<title>set_marker_node_Set(10)&#45;&gt;set_marker_node_Set(0)</title>
<path fill="none" stroke="white" d="M874,-70C876.93,-70 879.81,-70 882.6,-70"/>
<polygon fill="white" stroke="white" points="882.49,-73.5 892.49,-70 882.49,-66.5 882.49,-73.5"/>
</g>
<!-- node_System(9) -->
<g id="node13" class="node">
<title>node_System(9)</title>
<polygon fill="#eff1f3" stroke="#eff1f3" points="866,-52 666,-52 666,-16 866,-16 866,-52"/>
<text text-anchor="middle" x="766" y="-30.3" font-family="Times,serif" font-size="14.00">run_fixed_update_schedule</text>
</g>
<!-- set_marker_node_Set(11)&#45;&gt;set_marker_node_Set(5) -->
<g id="edge9" class="edge">
<title>set_marker_node_Set(11)&#45;&gt;set_marker_node_Set(5)</title>
<path fill="none" stroke="white" d="M1193,-78.56C1202.41,-80.31 1212.4,-82.17 1222.06,-83.96"/>
<polygon fill="white" stroke="white" points="1221.06,-87.34 1231.53,-85.73 1222.34,-80.46 1221.06,-87.34"/>
</g>
<!-- set_marker_node_Set(59) -->
<!-- set_marker_node_Set(11)&#45;&gt;set_marker_node_Set(59) -->
<g id="edge14" class="edge">
<title>set_marker_node_Set(11)&#45;&gt;set_marker_node_Set(59)</title>
<path fill="none" stroke="white" d="M1191.87,-62C1200.26,-60.5 1209.15,-58.92 1217.87,-57.36"/>
<polygon fill="white" stroke="white" points="1218.28,-60.85 1227.51,-55.64 1217.05,-53.95 1218.28,-60.85"/>
</g>
<!-- set_marker_node_Set(12)&#45;&gt;set_marker_node_Set(6) -->
<g id="edge11" class="edge">
<title>set_marker_node_Set(12)&#45;&gt;set_marker_node_Set(6)</title>
<path fill="none" stroke="white" d="M1406,-70C1408.72,-70 1411.6,-70 1414.56,-70"/>
<polygon fill="white" stroke="white" points="1414.49,-73.5 1424.49,-70 1414.49,-66.5 1414.49,-73.5"/>
</g>
<!-- set_marker_node_Set(58)&#45;&gt;set_marker_node_Set(8) -->
<g id="edge12" class="edge">
<title>set_marker_node_Set(58)&#45;&gt;set_marker_node_Set(8)</title>
<path fill="none" stroke="white" d="M244,-56.09C249.09,-57.24 254.29,-58.4 259.4,-59.55"/>
<polygon fill="white" stroke="white" points="258.35,-62.9 268.87,-61.67 259.88,-56.07 258.35,-62.9"/>
</g>
<!-- set_marker_node_Set(59)&#45;&gt;set_marker_node_Set(12) -->
<g id="edge15" class="edge">
<title>set_marker_node_Set(59)&#45;&gt;set_marker_node_Set(12)</title>
<path fill="none" stroke="white" d="M1325,-57.3C1333.82,-59.23 1342.85,-61.21 1351.08,-63.01"/>
<polygon fill="white" stroke="white" points="1350.01,-66.36 1360.52,-65.08 1351.5,-59.52 1350.01,-66.36"/>
</g>
</g>
</svg>
