<?xml version="1.0" encoding="UTF-8" standalone="no"?>
<!DOCTYPE svg PUBLIC "-//W3C//DTD SVG 1.1//EN"
 "http://www.w3.org/Graphics/SVG/1.1/DTD/svg11.dtd">
<!-- Generated by graphviz version 7.0.6 (0)
 -->
<!-- Title: schedule Pages: 1 -->
<svg width="1372pt" height="187pt"
 viewBox="0.00 0.00 1372.00 187.00" xmlns="http://www.w3.org/2000/svg" xmlns:xlink="http://www.w3.org/1999/xlink">
<g id="graph0" class="graph" transform="scale(1 1) rotate(0) translate(4 183)">
<title>schedule</title>
<polygon fill="#0d1117" stroke="none" points="-4,4 -4,-183 1368,-183 1368,4 -4,4"/>
<g id="clust1" class="cluster">
<title>clusternode_Set(0)</title>
<polygon fill="#6f90ad" stroke="black" points="752,-31 752,-70 817,-70 817,-31 752,-31"/>
<text text-anchor="middle" x="784.5" y="-54.8" font-family="Helvetica,sans-Serif" font-size="14.00">Update</text>
</g>
<g id="clust2" class="cluster">
<title>clusternode_Set(2)</title>
<polygon fill="#6f90ad" stroke="black" points="70,-101 70,-140 152,-140 152,-101 70,-101"/>
<text text-anchor="middle" x="111" y="-124.8" font-family="Helvetica,sans-Serif" font-size="14.00">FirstFlush</text>
</g>
<g id="clust3" class="cluster">
<title>clusternode_Set(3)</title>
<polygon fill="#6f90ad" stroke="black" points="356,-31 356,-70 478,-70 478,-31 356,-31"/>
<text text-anchor="middle" x="417" y="-54.8" font-family="Helvetica,sans-Serif" font-size="14.00">PreUpdateFlush</text>
</g>
<g id="clust4" class="cluster">
<title>clusternode_Set(4)</title>
<polygon fill="#6f90ad" stroke="black" points="837,-31 837,-70 938,-70 938,-31 837,-31"/>
<text text-anchor="middle" x="887.5" y="-54.8" font-family="Helvetica,sans-Serif" font-size="14.00">UpdateFlush</text>
</g>
<g id="clust5" class="cluster">
<title>clusternode_Set(5)</title>
<polygon fill="#6f90ad" stroke="black" points="1071,-55 1071,-94 1200,-94 1200,-55 1071,-55"/>
<text text-anchor="middle" x="1135.5" y="-78.8" font-family="Helvetica,sans-Serif" font-size="14.00">PostUpdateFlush</text>
</g>
<g id="clust6" class="cluster">
<title>clusternode_Set(6)</title>
<polygon fill="#6f90ad" stroke="black" points="1284,-20 1284,-59 1364,-59 1364,-20 1284,-20"/>
<text text-anchor="middle" x="1324" y="-43.8" font-family="Helvetica,sans-Serif" font-size="14.00">LastFlush</text>
</g>
<g id="clust7" class="cluster">
<title>clusternode_Set(7)</title>
<polygon fill="#6f90ad" stroke="black" points="0,-77 0,-116 46,-116 46,-77 0,-77"/>
<text text-anchor="middle" x="23" y="-100.8" font-family="Helvetica,sans-Serif" font-size="14.00">First</text>
</g>
<g id="clust8" class="cluster">
<title>clusternode_Set(8)</title>
<polygon fill="#6f90ad" stroke="black" points="177,-78 177,-171 476,-171 476,-78 177,-78"/>
<text text-anchor="middle" x="326.5" y="-155.8" font-family="Helvetica,sans-Serif" font-size="14.00">PreUpdate</text>
</g>
<g id="clust9" class="cluster">
<title>clusternode_Set(24)</title>
<polygon fill="#6f90ad" stroke="black" points="367,-101 367,-140 468,-140 468,-101 367,-101"/>
<text text-anchor="middle" x="417.5" y="-124.8" font-family="Helvetica,sans-Serif" font-size="14.00">InputSystem</text>
</g>
<g id="clust10" class="cluster">
<title>clusternode_Set(9)</title>
<polygon fill="#6f90ad" stroke="black" points="490,-31 490,-70 612,-70 612,-31 490,-31"/>
<text text-anchor="middle" x="551" y="-54.8" font-family="Helvetica,sans-Serif" font-size="14.00">StateTransitions</text>
</g>
<g id="clust11" class="cluster">
<title>clusternode_Set(10)</title>
<polygon fill="#6f90ad" stroke="black" points="632,-31 632,-70 732,-70 732,-31 632,-31"/>
<text text-anchor="middle" x="682" y="-54.8" font-family="Helvetica,sans-Serif" font-size="14.00">FixedUpdate</text>
</g>
<g id="clust12" class="cluster">
<title>clusternode_Set(11)</title>
<polygon fill="#6f90ad" stroke="black" points="958,-31 958,-70 1051,-70 1051,-31 958,-31"/>
<text text-anchor="middle" x="1004.5" y="-54.8" font-family="Helvetica,sans-Serif" font-size="14.00">PostUpdate</text>
</g>
<g id="clust13" class="cluster">
<title>clusternode_Set(12)</title>
<polygon fill="#6f90ad" stroke="black" points="1220,-20 1220,-59 1264,-59 1264,-20 1220,-20"/>
<text text-anchor="middle" x="1242" y="-43.8" font-family="Helvetica,sans-Serif" font-size="14.00">Last</text>
</g>
<g id="clust14" class="cluster">
<title>clusternode_Set(58)</title>
<polygon fill="#6f90ad" stroke="black" points="66,-54 66,-93 157,-93 157,-54 66,-54"/>
<text text-anchor="middle" x="111.5" y="-77.8" font-family="Helvetica,sans-Serif" font-size="14.00">LoadAssets</text>
</g>
<g id="clust15" class="cluster">
<title>clusternode_Set(59)</title>
<polygon fill="#6f90ad" stroke="black" points="1087,-8 1087,-47 1183,-47 1183,-8 1087,-8"/>
<text text-anchor="middle" x="1135" y="-31.8" font-family="Helvetica,sans-Serif" font-size="14.00">AssetEvents</text>
</g>
<!-- set_marker_node_Set(0) -->
<!-- set_marker_node_Set(4) -->
<!-- set_marker_node_Set(0)&#45;&gt;set_marker_node_Set(4) -->
<g id="edge7" class="edge">
<title>set_marker_node_Set(0)&#45;&gt;set_marker_node_Set(4)</title>
<path fill="none" stroke="white" d="M817,-39C819.81,-39 822.71,-39 825.65,-39"/>
<polygon fill="white" stroke="white" points="825.49,-42.5 835.49,-39 825.49,-35.5 825.49,-42.5"/>
</g>
<!-- set_marker_node_Set(2) -->
<!-- set_marker_node_Set(8) -->
<!-- set_marker_node_Set(2)&#45;&gt;set_marker_node_Set(8) -->
<g id="edge2" class="edge">
<title>set_marker_node_Set(2)&#45;&gt;set_marker_node_Set(8)</title>
<path fill="none" stroke="white" d="M146.08,-101C152.43,-99.63 159.17,-98.24 165.85,-96.98"/>
<polygon fill="white" stroke="white" points="166.27,-100.46 175.51,-95.26 165.05,-93.56 166.27,-100.46"/>
</g>
<!-- set_marker_node_Set(3) -->
<!-- set_marker_node_Set(9) -->
<!-- set_marker_node_Set(3)&#45;&gt;set_marker_node_Set(9) -->
<g id="edge4" class="edge">
<title>set_marker_node_Set(3)&#45;&gt;set_marker_node_Set(9)</title>
<path fill="none" stroke="white" d="M478,-39C478.29,-39 478.58,-39 478.87,-39"/>
<polygon fill="white" stroke="white" points="478.49,-42.5 488.49,-39 478.49,-35.5 478.49,-42.5"/>
</g>
<!-- set_marker_node_Set(11) -->
<!-- set_marker_node_Set(4)&#45;&gt;set_marker_node_Set(11) -->
<g id="edge8" class="edge">
<title>set_marker_node_Set(4)&#45;&gt;set_marker_node_Set(11)</title>
<path fill="none" stroke="white" d="M938,-39C940.92,-39 943.88,-39 946.82,-39"/>
<polygon fill="white" stroke="white" points="946.49,-42.5 956.49,-39 946.49,-35.5 946.49,-42.5"/>
</g>
<!-- set_marker_node_Set(5) -->
<!-- set_marker_node_Set(12) -->
<!-- set_marker_node_Set(5)&#45;&gt;set_marker_node_Set(12) -->
<g id="edge10" class="edge">
<title>set_marker_node_Set(5)&#45;&gt;set_marker_node_Set(12)</title>
<path fill="none" stroke="white" d="M1187.03,-55C1191.46,-53.84 1195.84,-52.51 1200,-51 1203.28,-49.81 1206.61,-48.37 1209.89,-46.81"/>
<polygon fill="white" stroke="white" points="1211.43,-49.95 1218.66,-42.21 1208.18,-43.75 1211.43,-49.95"/>
</g>
<!-- set_marker_node_Set(6) -->
<!-- set_marker_node_Set(7) -->
<!-- set_marker_node_Set(7)&#45;&gt;set_marker_node_Set(2) -->
<g id="edge1" class="edge">
<title>set_marker_node_Set(7)&#45;&gt;set_marker_node_Set(2)</title>
<path fill="none" stroke="white" d="M46,-91.34C52.44,-93.18 59.5,-95.18 66,-97 67.17,-97.33 68.36,-97.66 69.55,-97.99"/>
<polygon fill="white" stroke="white" points="68.45,-101.32 79.02,-100.6 70.31,-94.57 68.45,-101.32"/>
</g>
<!-- set_marker_node_Set(58) -->
<!-- set_marker_node_Set(7)&#45;&gt;set_marker_node_Set(58) -->
<g id="edge13" class="edge">
<title>set_marker_node_Set(7)&#45;&gt;set_marker_node_Set(58)</title>
<path fill="none" stroke="white" d="M46,-79.12C48.89,-78.34 51.94,-77.53 55.09,-76.68"/>
<polygon fill="white" stroke="white" points="55.78,-80.12 64.54,-74.16 53.98,-73.36 55.78,-80.12"/>
</g>
<!-- set_marker_node_Set(8)&#45;&gt;set_marker_node_Set(3) -->
<g id="edge3" class="edge">
<title>set_marker_node_Set(8)&#45;&gt;set_marker_node_Set(3)</title>
<path fill="none" stroke="white" d="M284.46,-78C301.21,-73.04 323.58,-66.4 345.12,-60.02"/>
<polygon fill="white" stroke="white" points="345.96,-63.42 354.55,-57.22 343.97,-56.71 345.96,-63.42"/>
</g>
<!-- set_marker_node_Set(24) -->
<!-- node_System(131) -->
<g id="node10" class="node">
<title>node_System(131)</title>
<polygon fill="#eff1f3" stroke="#eff1f3" points="328,-140 185,-140 185,-104 328,-104 328,-140"/>
<text text-anchor="middle" x="256.5" y="-118.3" font-family="Times,serif" font-size="14.00">gilrs_event_system</text>
</g>
<!-- node_System(131)&#45;&gt;set_marker_node_Set(24) -->
<g id="edge16" class="edge">
<title>node_System(131)&#45;&gt;set_marker_node_Set(24)</title>
<path fill="none" stroke="white" d="M328.41,-116.18C337.47,-115.44 346.69,-114.69 355.56,-113.96"/>
<polygon fill="white" stroke="white" points="355.81,-117.45 365.5,-113.14 355.24,-110.47 355.81,-117.45"/>
</g>
<!-- set_marker_node_Set(10) -->
<!-- set_marker_node_Set(9)&#45;&gt;set_marker_node_Set(10) -->
<g id="edge5" class="edge">
<title>set_marker_node_Set(9)&#45;&gt;set_marker_node_Set(10)</title>
<path fill="none" stroke="white" d="M612,-39C614.86,-39 617.74,-39 620.6,-39"/>
<polygon fill="white" stroke="white" points="620.49,-42.5 630.49,-39 620.49,-35.5 620.49,-42.5"/>
</g>
<!-- set_marker_node_Set(10)&#45;&gt;set_marker_node_Set(0) -->
<g id="edge6" class="edge">
<title>set_marker_node_Set(10)&#45;&gt;set_marker_node_Set(0)</title>
<path fill="none" stroke="white" d="M732,-39C734.85,-39 737.71,-39 740.54,-39"/>
<polygon fill="white" stroke="white" points="740.49,-42.5 750.49,-39 740.49,-35.5 740.49,-42.5"/>
</g>
<!-- set_marker_node_Set(11)&#45;&gt;set_marker_node_Set(5) -->
<g id="edge9" class="edge">
<title>set_marker_node_Set(11)&#45;&gt;set_marker_node_Set(5)</title>
<path fill="none" stroke="white" d="M1051,-47.56C1060.41,-49.31 1070.4,-51.17 1080.06,-52.96"/>
<polygon fill="white" stroke="white" points="1079.06,-56.34 1089.53,-54.73 1080.34,-49.46 1079.06,-56.34"/>
</g>
<!-- set_marker_node_Set(59) -->
<!-- set_marker_node_Set(11)&#45;&gt;set_marker_node_Set(59) -->
<g id="edge14" class="edge">
<title>set_marker_node_Set(11)&#45;&gt;set_marker_node_Set(59)</title>
<path fill="none" stroke="white" d="M1049.87,-31C1058.26,-29.5 1067.15,-27.92 1075.87,-26.36"/>
<polygon fill="white" stroke="white" points="1076.28,-29.85 1085.51,-24.64 1075.05,-22.95 1076.28,-29.85"/>
</g>
<!-- set_marker_node_Set(12)&#45;&gt;set_marker_node_Set(6) -->
<g id="edge11" class="edge">
<title>set_marker_node_Set(12)&#45;&gt;set_marker_node_Set(6)</title>
<path fill="none" stroke="white" d="M1264,-28C1266.72,-28 1269.6,-28 1272.56,-28"/>
<polygon fill="white" stroke="white" points="1272.49,-31.5 1282.49,-28 1272.49,-24.5 1272.49,-31.5"/>
</g>
<!-- set_marker_node_Set(58)&#45;&gt;set_marker_node_Set(8) -->
<g id="edge12" class="edge">
<title>set_marker_node_Set(58)&#45;&gt;set_marker_node_Set(8)</title>
<path fill="none" stroke="white" d="M157,-69.53C169.51,-71.62 183.29,-73.92 196.47,-76.13"/>
<polygon fill="white" stroke="white" points="195.74,-79.55 206.18,-77.75 196.89,-72.65 195.74,-79.55"/>
</g>
<!-- set_marker_node_Set(59)&#45;&gt;set_marker_node_Set(12) -->
<g id="edge15" class="edge">
<title>set_marker_node_Set(59)&#45;&gt;set_marker_node_Set(12)</title>
<path fill="none" stroke="white" d="M1183,-21.37C1191.68,-22.36 1200.56,-23.38 1208.69,-24.31"/>
<polygon fill="white" stroke="white" points="1208.17,-27.77 1218.5,-25.43 1208.96,-20.82 1208.17,-27.77"/>
</g>
</g>
</svg>
