<?xml version="1.0" encoding="UTF-8" standalone="no"?>
<!DOCTYPE svg PUBLIC "-//W3C//DTD SVG 1.1//EN"
 "http://www.w3.org/Graphics/SVG/1.1/DTD/svg11.dtd">
<!-- Generated by graphviz version 7.1.0 (0)
 -->
<!-- Title: schedule Pages: 1 -->
<svg width="1791pt" height="613pt"
 viewBox="0.00 0.00 1791.00 613.42" xmlns="http://www.w3.org/2000/svg" xmlns:xlink="http://www.w3.org/1999/xlink">
<g id="graph0" class="graph" transform="scale(1 1) rotate(0) translate(4 609.42)">
<title>schedule</title>
<polygon fill="#0d1117" stroke="none" points="-4,4 -4,-609.42 1787,-609.42 1787,4 -4,4"/>
<g id="clust1" class="cluster">
<title>clusternode_Set(0)</title>
<polygon fill="#6f90ad" stroke="black" points="691,-102 691,-141 756,-141 756,-102 691,-102"/>
<text text-anchor="middle" x="723.5" y="-125.8" font-family="Helvetica,sans-Serif" font-size="14.00">Update</text>
</g>
<g id="clust2" class="cluster">
<title>clusternode_Set(2)</title>
<polygon fill="#6f90ad" stroke="black" points="70,-125 70,-164 152,-164 152,-125 70,-125"/>
<text text-anchor="middle" x="111" y="-148.8" font-family="Helvetica,sans-Serif" font-size="14.00">FirstFlush</text>
</g>
<g id="clust3" class="cluster">
<title>clusternode_Set(3)</title>
<polygon fill="#6f90ad" stroke="black" points="284,-102 284,-141 407,-141 407,-102 284,-102"/>
<text text-anchor="middle" x="345.5" y="-125.8" font-family="Helvetica,sans-Serif" font-size="14.00">PreUpdateFlush</text>
</g>
<g id="clust4" class="cluster">
<title>clusternode_Set(4)</title>
<polygon fill="#6f90ad" stroke="black" points="776,-102 776,-141 877,-141 877,-102 776,-102"/>
<text text-anchor="middle" x="826.5" y="-125.8" font-family="Helvetica,sans-Serif" font-size="14.00">UpdateFlush</text>
</g>
<g id="clust5" class="cluster">
<title>clusternode_Set(5)</title>
<polygon fill="#6f90ad" stroke="black" points="1313,-55 1313,-94 1442,-94 1442,-55 1313,-55"/>
<text text-anchor="middle" x="1377.5" y="-78.8" font-family="Helvetica,sans-Serif" font-size="14.00">PostUpdateFlush</text>
</g>
<g id="clust6" class="cluster">
<title>clusternode_Set(6)</title>
<polygon fill="#6f90ad" stroke="black" points="1703,-31 1703,-70 1783,-70 1783,-31 1703,-31"/>
<text text-anchor="middle" x="1743" y="-54.8" font-family="Helvetica,sans-Serif" font-size="14.00">LastFlush</text>
</g>
<g id="clust7" class="cluster">
<title>clusternode_Set(7)</title>
<polygon fill="#6f90ad" stroke="black" points="0,-101 0,-140 46,-140 46,-101 0,-101"/>
<text text-anchor="middle" x="23" y="-124.8" font-family="Helvetica,sans-Serif" font-size="14.00">First</text>
</g>
<g id="clust8" class="cluster">
<title>clusternode_Set(8)</title>
<polygon fill="#6f90ad" stroke="black" points="177,-102 177,-141 264,-141 264,-102 177,-102"/>
<text text-anchor="middle" x="220.5" y="-125.8" font-family="Helvetica,sans-Serif" font-size="14.00">PreUpdate</text>
</g>
<g id="clust9" class="cluster">
<title>clusternode_Set(9)</title>
<polygon fill="#6f90ad" stroke="black" points="427,-102 427,-141 551,-141 551,-102 427,-102"/>
<text text-anchor="middle" x="489" y="-125.8" font-family="Helvetica,sans-Serif" font-size="14.00">StateTransitions</text>
</g>
<g id="clust10" class="cluster">
<title>clusternode_Set(10)</title>
<polygon fill="#6f90ad" stroke="black" points="571,-102 571,-141 671,-141 671,-102 571,-102"/>
<text text-anchor="middle" x="621" y="-125.8" font-family="Helvetica,sans-Serif" font-size="14.00">FixedUpdate</text>
</g>
<g id="clust11" class="cluster">
<title>clusternode_Set(11)</title>
<polygon fill="#6f90ad" stroke="black" points="889,-102 889,-594 1691,-594 1691,-102 889,-102"/>
<text text-anchor="middle" x="1290" y="-578.8" font-family="Helvetica,sans-Serif" font-size="14.00">PostUpdate</text>
</g>
<g id="clust12" class="cluster">
<title>clusternode_Set(20)</title>
<polygon fill="#6f90ad" stroke="black" points="976,-478 976,-517 1128,-517 1128,-478 976,-478"/>
<text text-anchor="middle" x="1052" y="-501.8" font-family="Helvetica,sans-Serif" font-size="14.00">TransformPropagate</text>
</g>
<g id="clust13" class="cluster">
<title>clusternode_Set(76)</title>
<polygon fill="#6f90ad" stroke="black" points="897,-269 897,-470 1207,-470 1207,-269 897,-269"/>
<text text-anchor="middle" x="1052" y="-454.8" font-family="Helvetica,sans-Serif" font-size="14.00">CameraUpdateSystem</text>
</g>
<g id="clust14" class="cluster">
<title>clusternode_Set(80)</title>
<polygon fill="#6f90ad" stroke="black" points="977.5,-157 977.5,-250 1126.5,-250 1126.5,-157 977.5,-157"/>
<text text-anchor="middle" x="1052" y="-234.8" font-family="Helvetica,sans-Serif" font-size="14.00">CalculateBounds</text>
</g>
<g id="clust15" class="cluster">
<title>clusternode_Set(81)</title>
<polygon fill="#6f90ad" stroke="black" points="1295,-211 1295,-250 1459,-250 1459,-211 1295,-211"/>
<text text-anchor="middle" x="1377" y="-234.8" font-family="Helvetica,sans-Serif" font-size="14.00">CalculateBoundsFlush</text>
</g>
<g id="clust16" class="cluster">
<title>clusternode_Set(82)</title>
<polygon fill="#6f90ad" stroke="black" points="1227,-258 1227,-351 1527,-351 1527,-258 1227,-258"/>
<text text-anchor="middle" x="1377" y="-335.8" font-family="Helvetica,sans-Serif" font-size="14.00">UpdateOrthographicFrusta</text>
</g>
<g id="clust17" class="cluster">
<title>clusternode_Set(83)</title>
<polygon fill="#6f90ad" stroke="black" points="1233.5,-359 1233.5,-452 1520.5,-452 1520.5,-359 1233.5,-359"/>
<text text-anchor="middle" x="1377" y="-436.8" font-family="Helvetica,sans-Serif" font-size="14.00">UpdatePerspectiveFrusta</text>
</g>
<g id="clust18" class="cluster">
<title>clusternode_Set(84)</title>
<polygon fill="#6f90ad" stroke="black" points="1272,-460 1272,-553 1482,-553 1482,-460 1272,-460"/>
<text text-anchor="middle" x="1377" y="-537.8" font-family="Helvetica,sans-Serif" font-size="14.00">UpdateProjectionFrusta</text>
</g>
<g id="clust19" class="cluster">
<title>clusternode_Set(85)</title>
<polygon fill="#6f90ad" stroke="black" points="1547,-344 1547,-437 1683,-437 1683,-344 1547,-344"/>
<text text-anchor="middle" x="1615" y="-421.8" font-family="Helvetica,sans-Serif" font-size="14.00">CheckVisibility</text>
</g>
<g id="clust20" class="cluster">
<title>clusternode_Set(86)</title>
<polygon fill="#6f90ad" stroke="black" points="1267.5,-110 1267.5,-203 1486.5,-203 1486.5,-110 1267.5,-110"/>
<text text-anchor="middle" x="1377" y="-187.8" font-family="Helvetica,sans-Serif" font-size="14.00">VisibilityPropagate</text>
</g>
<g id="clust21" class="cluster">
<title>clusternode_Set(12)</title>
<polygon fill="#6f90ad" stroke="black" points="1593,-31 1593,-70 1637,-70 1637,-31 1593,-31"/>
<text text-anchor="middle" x="1615" y="-54.8" font-family="Helvetica,sans-Serif" font-size="14.00">Last</text>
</g>
<g id="clust22" class="cluster">
<title>clusternode_Set(58)</title>
<polygon fill="#6f90ad" stroke="black" points="66,-78 66,-117 157,-117 157,-78 66,-78"/>
<text text-anchor="middle" x="111.5" y="-101.8" font-family="Helvetica,sans-Serif" font-size="14.00">LoadAssets</text>
</g>
<g id="clust23" class="cluster">
<title>clusternode_Set(59)</title>
<polygon fill="#6f90ad" stroke="black" points="1329,-8 1329,-47 1425,-47 1425,-8 1329,-8"/>
<text text-anchor="middle" x="1377" y="-31.8" font-family="Helvetica,sans-Serif" font-size="14.00">AssetEvents</text>
</g>
<!-- set_marker_node_Set(0) -->
<!-- set_marker_node_Set(4) -->
<!-- set_marker_node_Set(0)&#45;&gt;set_marker_node_Set(4) -->
<g id="edge7" class="edge">
<title>set_marker_node_Set(0)&#45;&gt;set_marker_node_Set(4)</title>
<path fill="none" stroke="white" d="M756,-110C758.81,-110 761.71,-110 764.65,-110"/>
<polygon fill="white" stroke="white" points="764.49,-113.5 774.49,-110 764.49,-106.5 764.49,-113.5"/>
</g>
<!-- set_marker_node_Set(2) -->
<!-- set_marker_node_Set(8) -->
<!-- set_marker_node_Set(2)&#45;&gt;set_marker_node_Set(8) -->
<g id="edge2" class="edge">
<title>set_marker_node_Set(2)&#45;&gt;set_marker_node_Set(8)</title>
<path fill="none" stroke="white" d="M149.21,-125C154.62,-123.84 160.27,-122.62 165.92,-121.41"/>
<polygon fill="white" stroke="white" points="166.48,-124.87 175.53,-119.35 165.01,-118.02 166.48,-124.87"/>
</g>
<!-- set_marker_node_Set(3) -->
<!-- set_marker_node_Set(9) -->
<!-- set_marker_node_Set(3)&#45;&gt;set_marker_node_Set(9) -->
<g id="edge4" class="edge">
<title>set_marker_node_Set(3)&#45;&gt;set_marker_node_Set(9)</title>
<path fill="none" stroke="white" d="M407,-110C409.83,-110 412.68,-110 415.54,-110"/>
<polygon fill="white" stroke="white" points="415.49,-113.5 425.49,-110 415.49,-106.5 415.49,-113.5"/>
</g>
<!-- set_marker_node_Set(11) -->
<!-- set_marker_node_Set(4)&#45;&gt;set_marker_node_Set(11) -->
<g id="edge8" class="edge">
<title>set_marker_node_Set(4)&#45;&gt;set_marker_node_Set(11)</title>
<path fill="none" stroke="white" d="M877,-110C877.18,-110 877.36,-110 877.54,-110"/>
<polygon fill="white" stroke="white" points="877.49,-113.5 887.49,-110 877.49,-106.5 877.49,-113.5"/>
</g>
<!-- set_marker_node_Set(5) -->
<!-- set_marker_node_Set(12) -->
<!-- set_marker_node_Set(5)&#45;&gt;set_marker_node_Set(12) -->
<g id="edge10" class="edge">
<title>set_marker_node_Set(5)&#45;&gt;set_marker_node_Set(12)</title>
<path fill="none" stroke="white" d="M1442,-58.65C1468.36,-56.64 1499.18,-54.04 1527,-51 1545.19,-49.01 1565.45,-46.25 1581.84,-43.88"/>
<polygon fill="white" stroke="white" points="1582.12,-47.38 1591.5,-42.46 1581.1,-40.45 1582.12,-47.38"/>
</g>
<!-- set_marker_node_Set(6) -->
<!-- set_marker_node_Set(7) -->
<!-- set_marker_node_Set(7)&#45;&gt;set_marker_node_Set(2) -->
<g id="edge1" class="edge">
<title>set_marker_node_Set(7)&#45;&gt;set_marker_node_Set(2)</title>
<path fill="none" stroke="white" d="M46,-115.34C52.44,-117.18 59.5,-119.18 66,-121 67.17,-121.33 68.36,-121.66 69.55,-121.99"/>
<polygon fill="white" stroke="white" points="68.45,-125.32 79.02,-124.6 70.31,-118.57 68.45,-125.32"/>
</g>
<!-- set_marker_node_Set(58) -->
<!-- set_marker_node_Set(7)&#45;&gt;set_marker_node_Set(58) -->
<g id="edge13" class="edge">
<title>set_marker_node_Set(7)&#45;&gt;set_marker_node_Set(58)</title>
<path fill="none" stroke="white" d="M46,-103.12C48.89,-102.34 51.94,-101.53 55.09,-100.68"/>
<polygon fill="white" stroke="white" points="55.78,-104.12 64.54,-98.16 53.98,-97.36 55.78,-104.12"/>
</g>
<!-- set_marker_node_Set(8)&#45;&gt;set_marker_node_Set(3) -->
<g id="edge3" class="edge">
<title>set_marker_node_Set(8)&#45;&gt;set_marker_node_Set(3)</title>
<path fill="none" stroke="white" d="M264,-110C266.84,-110 269.75,-110 272.68,-110"/>
<polygon fill="white" stroke="white" points="272.49,-113.5 282.49,-110 272.49,-106.5 272.49,-113.5"/>
</g>
<!-- set_marker_node_Set(10) -->
<!-- set_marker_node_Set(9)&#45;&gt;set_marker_node_Set(10) -->
<g id="edge5" class="edge">
<title>set_marker_node_Set(9)&#45;&gt;set_marker_node_Set(10)</title>
<path fill="none" stroke="white" d="M551,-110C553.97,-110 556.95,-110 559.92,-110"/>
<polygon fill="white" stroke="white" points="559.49,-113.5 569.49,-110 559.49,-106.5 559.49,-113.5"/>
</g>
<!-- set_marker_node_Set(10)&#45;&gt;set_marker_node_Set(0) -->
<g id="edge6" class="edge">
<title>set_marker_node_Set(10)&#45;&gt;set_marker_node_Set(0)</title>
<path fill="none" stroke="white" d="M671,-110C673.85,-110 676.71,-110 679.54,-110"/>
<polygon fill="white" stroke="white" points="679.49,-113.5 689.49,-110 679.49,-106.5 679.49,-113.5"/>
</g>
<!-- set_marker_node_Set(11)&#45;&gt;set_marker_node_Set(5) -->
<g id="edge9" class="edge">
<title>set_marker_node_Set(11)&#45;&gt;set_marker_node_Set(5)</title>
<path fill="none" stroke="white" d="M1107.96,-102C1161.33,-94.24 1242.71,-82.4 1301.8,-73.8"/>
<polygon fill="white" stroke="white" points="1302.11,-77.29 1311.5,-72.39 1301.1,-70.36 1302.11,-77.29"/>
</g>
<!-- set_marker_node_Set(59) -->
<!-- set_marker_node_Set(11)&#45;&gt;set_marker_node_Set(59) -->
<g id="edge14" class="edge">
<title>set_marker_node_Set(11)&#45;&gt;set_marker_node_Set(59)</title>
<path fill="none" stroke="white" d="M1074.39,-102C1107.02,-89.98 1171.29,-66.95 1227,-51 1256.73,-42.49 1290.22,-34.48 1317.92,-28.28"/>
<polygon fill="white" stroke="white" points="1318.52,-31.73 1327.53,-26.15 1317.01,-24.9 1318.52,-31.73"/>
</g>
<!-- set_marker_node_Set(20) -->
<!-- node_System(68) -->
<g id="node21" class="node">
<title>node_System(68)</title>
<polygon fill="#eff1f3" stroke="#eff1f3" points="1519,-302 1235,-302 1235,-266 1519,-266 1519,-302"/>
<text text-anchor="middle" x="1377" y="-280.3" font-family="Times,serif" font-size="14.00">update_frusta&lt;OrthographicProjection&gt;</text>
</g>
<!-- set_marker_node_Set(20)&#45;&gt;node_System(68) -->
<g id="edge18" class="edge">
<title>set_marker_node_Set(20)&#45;&gt;node_System(68)</title>
<path fill="none" stroke="white" d="M1128,-498.7C1156.17,-499.15 1186.34,-493.77 1207,-474 1259.74,-423.55 1176.89,-364.06 1227,-311 1227.37,-310.61 1227.75,-310.22 1228.13,-309.83"/>
<polygon fill="white" stroke="white" points="1230.25,-312.62 1235.46,-303.4 1225.64,-307.36 1230.25,-312.62"/>
</g>
<!-- node_System(69) -->
<g id="node23" class="node">
<title>node_System(69)</title>
<polygon fill="#eff1f3" stroke="#eff1f3" points="1512.5,-403 1241.5,-403 1241.5,-367 1512.5,-367 1512.5,-403"/>
<text text-anchor="middle" x="1377" y="-381.3" font-family="Times,serif" font-size="14.00">update_frusta&lt;PerspectiveProjection&gt;</text>
</g>
<!-- set_marker_node_Set(20)&#45;&gt;node_System(69) -->
<g id="edge20" class="edge">
<title>set_marker_node_Set(20)&#45;&gt;node_System(69)</title>
<path fill="none" stroke="white" d="M1128,-496.61C1155.41,-496.53 1185.04,-491.33 1207,-474 1229.73,-456.06 1205.21,-431.07 1227,-412 1228.5,-410.69 1230.03,-409.43 1231.61,-408.23"/>
<polygon fill="white" stroke="white" points="1233.43,-411.23 1239.77,-402.73 1229.52,-405.42 1233.43,-411.23"/>
</g>
<!-- node_System(70) -->
<g id="node25" class="node">
<title>node_System(70)</title>
<polygon fill="#eff1f3" stroke="#eff1f3" points="1474,-504 1280,-504 1280,-468 1474,-468 1474,-504"/>
<text text-anchor="middle" x="1377" y="-482.3" font-family="Times,serif" font-size="14.00">update_frusta&lt;Projection&gt;</text>
</g>
<!-- set_marker_node_Set(20)&#45;&gt;node_System(70) -->
<g id="edge22" class="edge">
<title>set_marker_node_Set(20)&#45;&gt;node_System(70)</title>
<path fill="none" stroke="white" d="M1128,-486C1169.74,-486 1222.41,-486 1268.47,-486"/>
<polygon fill="white" stroke="white" points="1268.41,-489.5 1278.41,-486 1268.41,-482.5 1268.41,-489.5"/>
</g>
<!-- node_System(72) -->
<g id="node27" class="node">
<title>node_System(72)</title>
<polygon fill="#eff1f3" stroke="#eff1f3" points="1675,-388 1555,-388 1555,-352 1675,-352 1675,-388"/>
<text text-anchor="middle" x="1615" y="-366.3" font-family="Times,serif" font-size="14.00">check_visibility</text>
</g>
<!-- set_marker_node_Set(20)&#45;&gt;node_System(72) -->
<g id="edge28" class="edge">
<title>set_marker_node_Set(20)&#45;&gt;node_System(72)</title>
<path fill="none" stroke="white" d="M1104.75,-517C1200.7,-570.02 1407.29,-662.68 1527,-557 1580.73,-509.57 1503.29,-453.79 1547,-397 1547.24,-396.69 1547.48,-396.39 1547.72,-396.09"/>
<polygon fill="white" stroke="white" points="1549.94,-398.81 1554.71,-389.35 1545.08,-393.77 1549.94,-398.81"/>
</g>
<!-- set_marker_node_Set(76) -->
<!-- node_System(63) -->
<g id="node14" class="node">
<title>node_System(63)</title>
<polygon fill="#eff1f3" stroke="#eff1f3" points="1154,-421 950,-421 950,-385 1154,-385 1154,-421"/>
<text text-anchor="middle" x="1052" y="-399.3" font-family="Times,serif" font-size="14.00">camera_system&lt;Projection&gt;</text>
</g>
<!-- node_System(63)&#45;&gt;node_System(70) -->
<g id="edge21" class="edge">
<title>node_System(63)&#45;&gt;node_System(70)</title>
<path fill="none" stroke="white" d="M1154.22,-409.74C1172.67,-413.96 1191.09,-420.37 1207,-430 1219.47,-437.55 1214.62,-448.29 1227,-456 1239.71,-463.91 1254.1,-469.79 1268.81,-474.15"/>
<polygon fill="white" stroke="white" points="1267.52,-477.43 1278.09,-476.66 1269.35,-470.67 1267.52,-477.43"/>
</g>
<!-- node_System(64) -->
<g id="node15" class="node">
<title>node_System(64)</title>
<polygon fill="#eff1f3" stroke="#eff1f3" points="1199,-313 905,-313 905,-277 1199,-277 1199,-313"/>
<text text-anchor="middle" x="1052" y="-291.3" font-family="Times,serif" font-size="14.00">camera_system&lt;OrthographicProjection&gt;</text>
</g>
<!-- node_System(64)&#45;&gt;node_System(68) -->
<g id="edge17" class="edge">
<title>node_System(64)&#45;&gt;node_System(68)</title>
<path fill="none" stroke="white" d="M1199.38,-290.01C1207.23,-289.75 1215.13,-289.48 1223,-289.21"/>
<polygon fill="white" stroke="white" points="1223.12,-292.71 1232.99,-288.87 1222.88,-285.71 1223.12,-292.71"/>
</g>
<!-- node_System(65) -->
<g id="node16" class="node">
<title>node_System(65)</title>
<polygon fill="#eff1f3" stroke="#eff1f3" points="1192.5,-367 911.5,-367 911.5,-331 1192.5,-331 1192.5,-367"/>
<text text-anchor="middle" x="1052" y="-345.3" font-family="Times,serif" font-size="14.00">camera_system&lt;PerspectiveProjection&gt;</text>
</g>
<!-- node_System(65)&#45;&gt;node_System(69) -->
<g id="edge19" class="edge">
<title>node_System(65)&#45;&gt;node_System(69)</title>
<path fill="none" stroke="white" d="M1192.79,-364.58C1205.06,-365.95 1217.51,-367.33 1229.83,-368.71"/>
<polygon fill="white" stroke="white" points="1229.27,-372.17 1239.59,-369.8 1230.04,-365.21 1229.27,-372.17"/>
</g>
<!-- set_marker_node_Set(80) -->
<!-- set_marker_node_Set(81) -->
<!-- set_marker_node_Set(80)&#45;&gt;set_marker_node_Set(81) -->
<g id="edge16" class="edge">
<title>set_marker_node_Set(80)&#45;&gt;set_marker_node_Set(81)</title>
<path fill="none" stroke="white" d="M1126.5,-219C1173.13,-219 1233.84,-219 1283.71,-219"/>
<polygon fill="white" stroke="white" points="1283.49,-222.5 1293.49,-219 1283.49,-215.5 1283.49,-222.5"/>
</g>
<!-- node_System(67) -->
<g id="node18" class="node">
<title>node_System(67)</title>
<polygon fill="#eff1f3" stroke="#eff1f3" points="1118.5,-201 985.5,-201 985.5,-165 1118.5,-165 1118.5,-201"/>
<text text-anchor="middle" x="1052" y="-179.3" font-family="Times,serif" font-size="14.00">calculate_bounds</text>
</g>
<!-- set_marker_node_Set(81)&#45;&gt;node_System(72) -->
<g id="edge23" class="edge">
<title>set_marker_node_Set(81)&#45;&gt;node_System(72)</title>
<path fill="none" stroke="white" d="M1459,-227.46C1482.31,-232.6 1506.85,-240.83 1527,-254 1560.3,-275.77 1585.64,-314.86 1600.16,-341.6"/>
<polygon fill="white" stroke="white" points="1596.91,-342.95 1604.66,-350.18 1603.11,-339.7 1596.91,-342.95"/>
</g>
<!-- set_marker_node_Set(82) -->
<!-- set_marker_node_Set(82)&#45;&gt;node_System(72) -->
<g id="edge24" class="edge">
<title>set_marker_node_Set(82)&#45;&gt;node_System(72)</title>
<path fill="none" stroke="white" d="M1524.3,-351C1530.83,-352.38 1537.24,-353.74 1543.43,-355.05"/>
<polygon fill="white" stroke="white" points="1542.65,-358.46 1553.16,-357.11 1544.1,-351.61 1542.65,-358.46"/>
</g>
<!-- set_marker_node_Set(83) -->
<!-- set_marker_node_Set(83)&#45;&gt;node_System(72) -->
<g id="edge25" class="edge">
<title>set_marker_node_Set(83)&#45;&gt;node_System(72)</title>
<path fill="none" stroke="white" d="M1520.5,-414.23C1522.69,-413.53 1524.86,-412.79 1527,-412 1537.43,-408.17 1537.32,-402.46 1547,-397 1549.17,-395.77 1551.42,-394.58 1553.7,-393.41"/>
<polygon fill="white" stroke="white" points="1555.06,-396.64 1562.56,-389.15 1552.03,-390.33 1555.06,-396.64"/>
</g>
<!-- set_marker_node_Set(84) -->
<!-- set_marker_node_Set(84)&#45;&gt;node_System(72) -->
<g id="edge26" class="edge">
<title>set_marker_node_Set(84)&#45;&gt;node_System(72)</title>
<path fill="none" stroke="white" d="M1482,-533.23C1498.6,-530.37 1514.42,-524.26 1527,-513 1565.98,-478.1 1514.14,-437.71 1547,-397 1547.24,-396.7 1547.49,-396.4 1547.74,-396.1"/>
<polygon fill="white" stroke="white" points="1549.93,-398.85 1554.86,-389.47 1545.16,-393.73 1549.93,-398.85"/>
</g>
<!-- set_marker_node_Set(85) -->
<!-- set_marker_node_Set(86) -->
<!-- set_marker_node_Set(86)&#45;&gt;node_System(72) -->
<g id="edge27" class="edge">
<title>set_marker_node_Set(86)&#45;&gt;node_System(72)</title>
<path fill="none" stroke="white" d="M1486.5,-185.88C1501.03,-190.95 1515.03,-197.79 1527,-207 1571.05,-240.88 1595.32,-303.56 1606.41,-340.54"/>
<polygon fill="white" stroke="white" points="1603.04,-341.46 1609.14,-350.12 1609.77,-339.54 1603.04,-341.46"/>
</g>
<!-- node_System(71) -->
<g id="node29" class="node">
<title>node_System(71)</title>
<polygon fill="#eff1f3" stroke="#eff1f3" points="1478.5,-154 1275.5,-154 1275.5,-118 1478.5,-118 1478.5,-154"/>
<text text-anchor="middle" x="1377" y="-132.3" font-family="Times,serif" font-size="14.00">visibility_propagate_system</text>
</g>
<!-- set_marker_node_Set(12)&#45;&gt;set_marker_node_Set(6) -->
<g id="edge11" class="edge">
<title>set_marker_node_Set(12)&#45;&gt;set_marker_node_Set(6)</title>
<path fill="none" stroke="white" d="M1637,-39C1651.92,-39 1672.61,-39 1691.69,-39"/>
<polygon fill="white" stroke="white" points="1691.49,-42.5 1701.49,-39 1691.49,-35.5 1691.49,-42.5"/>
</g>
<!-- set_marker_node_Set(58)&#45;&gt;set_marker_node_Set(8) -->
<g id="edge12" class="edge">
<title>set_marker_node_Set(58)&#45;&gt;set_marker_node_Set(8)</title>
<path fill="none" stroke="white" d="M157,-96.09C162.09,-97.24 167.29,-98.4 172.4,-99.55"/>
<polygon fill="white" stroke="white" points="171.35,-102.9 181.87,-101.67 172.88,-96.07 171.35,-102.9"/>
</g>
<!-- set_marker_node_Set(59)&#45;&gt;set_marker_node_Set(12) -->
<g id="edge15" class="edge">
<title>set_marker_node_Set(59)&#45;&gt;set_marker_node_Set(12)</title>
<path fill="none" stroke="white" d="M1425,-20.58C1471.38,-25.1 1541.06,-31.89 1581.59,-35.84"/>
<polygon fill="white" stroke="white" points="1581.2,-39.32 1591.5,-36.81 1581.88,-32.35 1581.2,-39.32"/>
</g>
</g>
</svg>
