<?xml version="1.0" encoding="UTF-8" standalone="no"?>
<!DOCTYPE svg PUBLIC "-//W3C//DTD SVG 1.1//EN"
 "http://www.w3.org/Graphics/SVG/1.1/DTD/svg11.dtd">
<!-- Generated by graphviz version 7.1.0 (0)
 -->
<!-- Title: schedule Pages: 1 -->
<svg width="1375pt" height="187pt"
 viewBox="0.00 0.00 1375.00 187.00" xmlns="http://www.w3.org/2000/svg" xmlns:xlink="http://www.w3.org/1999/xlink">
<g id="graph0" class="graph" transform="scale(1 1) rotate(0) translate(4 183)">
<title>schedule</title>
<polygon fill="#0d1117" stroke="none" points="-4,4 -4,-183 1371,-183 1371,4 -4,4"/>
<g id="clust1" class="cluster">
<title>clusternode_Set(0)</title>
<polygon fill="#6f90ad" stroke="black" points="755,-31 755,-70 820,-70 820,-31 755,-31"/>
<text text-anchor="middle" x="787.5" y="-54.8" font-family="Helvetica,sans-Serif" font-size="14.00">Update</text>
</g>
<g id="clust2" class="cluster">
<title>clusternode_Set(2)</title>
<polygon fill="#6f90ad" stroke="black" points="70,-101 70,-140 152,-140 152,-101 70,-101"/>
<text text-anchor="middle" x="111" y="-124.8" font-family="Helvetica,sans-Serif" font-size="14.00">FirstFlush</text>
</g>
<g id="clust3" class="cluster">
<title>clusternode_Set(3)</title>
<polygon fill="#6f90ad" stroke="black" points="356,-31 356,-70 479,-70 479,-31 356,-31"/>
<text text-anchor="middle" x="417.5" y="-54.8" font-family="Helvetica,sans-Serif" font-size="14.00">PreUpdateFlush</text>
</g>
<g id="clust4" class="cluster">
<title>clusternode_Set(4)</title>
<polygon fill="#6f90ad" stroke="black" points="840,-31 840,-70 941,-70 941,-31 840,-31"/>
<text text-anchor="middle" x="890.5" y="-54.8" font-family="Helvetica,sans-Serif" font-size="14.00">UpdateFlush</text>
</g>
<g id="clust5" class="cluster">
<title>clusternode_Set(5)</title>
<polygon fill="#6f90ad" stroke="black" points="1074,-55 1074,-94 1203,-94 1203,-55 1074,-55"/>
<text text-anchor="middle" x="1138.5" y="-78.8" font-family="Helvetica,sans-Serif" font-size="14.00">PostUpdateFlush</text>
</g>
<g id="clust6" class="cluster">
<title>clusternode_Set(6)</title>
<polygon fill="#6f90ad" stroke="black" points="1287,-20 1287,-59 1367,-59 1367,-20 1287,-20"/>
<text text-anchor="middle" x="1327" y="-43.8" font-family="Helvetica,sans-Serif" font-size="14.00">LastFlush</text>
</g>
<g id="clust7" class="cluster">
<title>clusternode_Set(7)</title>
<polygon fill="#6f90ad" stroke="black" points="0,-77 0,-116 46,-116 46,-77 0,-77"/>
<text text-anchor="middle" x="23" y="-100.8" font-family="Helvetica,sans-Serif" font-size="14.00">First</text>
</g>
<g id="clust8" class="cluster">
<title>clusternode_Set(8)</title>
<polygon fill="#6f90ad" stroke="black" points="177,-78 177,-171 476,-171 476,-78 177,-78"/>
<text text-anchor="middle" x="326.5" y="-155.8" font-family="Helvetica,sans-Serif" font-size="14.00">PreUpdate</text>
</g>
<g id="clust9" class="cluster">
<title>clusternode_Set(24)</title>
<polygon fill="#6f90ad" stroke="black" points="367,-101 367,-140 468,-140 468,-101 367,-101"/>
<text text-anchor="middle" x="417.5" y="-124.8" font-family="Helvetica,sans-Serif" font-size="14.00">InputSystem</text>
</g>
<g id="clust10" class="cluster">
<title>clusternode_Set(9)</title>
<polygon fill="#6f90ad" stroke="black" points="491,-31 491,-70 615,-70 615,-31 491,-31"/>
<text text-anchor="middle" x="553" y="-54.8" font-family="Helvetica,sans-Serif" font-size="14.00">StateTransitions</text>
</g>
<g id="clust11" class="cluster">
<title>clusternode_Set(10)</title>
<polygon fill="#6f90ad" stroke="black" points="635,-31 635,-70 735,-70 735,-31 635,-31"/>
<text text-anchor="middle" x="685" y="-54.8" font-family="Helvetica,sans-Serif" font-size="14.00">FixedUpdate</text>
</g>
<g id="clust12" class="cluster">
<title>clusternode_Set(11)</title>
<polygon fill="#6f90ad" stroke="black" points="961,-31 961,-70 1054,-70 1054,-31 961,-31"/>
<text text-anchor="middle" x="1007.5" y="-54.8" font-family="Helvetica,sans-Serif" font-size="14.00">PostUpdate</text>
</g>
<g id="clust13" class="cluster">
<title>clusternode_Set(12)</title>
<polygon fill="#6f90ad" stroke="black" points="1223,-20 1223,-59 1267,-59 1267,-20 1223,-20"/>
<text text-anchor="middle" x="1245" y="-43.8" font-family="Helvetica,sans-Serif" font-size="14.00">Last</text>
</g>
<g id="clust14" class="cluster">
<title>clusternode_Set(58)</title>
<polygon fill="#6f90ad" stroke="black" points="66,-54 66,-93 157,-93 157,-54 66,-54"/>
<text text-anchor="middle" x="111.5" y="-77.8" font-family="Helvetica,sans-Serif" font-size="14.00">LoadAssets</text>
</g>
<g id="clust15" class="cluster">
<title>clusternode_Set(59)</title>
<polygon fill="#6f90ad" stroke="black" points="1090,-8 1090,-47 1186,-47 1186,-8 1090,-8"/>
<text text-anchor="middle" x="1138" y="-31.8" font-family="Helvetica,sans-Serif" font-size="14.00">AssetEvents</text>
</g>
<!-- set_marker_node_Set(0) -->
<!-- set_marker_node_Set(4) -->
<!-- set_marker_node_Set(0)&#45;&gt;set_marker_node_Set(4) -->
<g id="edge7" class="edge">
<title>set_marker_node_Set(0)&#45;&gt;set_marker_node_Set(4)</title>
<path fill="none" stroke="white" d="M820,-39C822.81,-39 825.71,-39 828.65,-39"/>
<polygon fill="white" stroke="white" points="828.49,-42.5 838.49,-39 828.49,-35.5 828.49,-42.5"/>
</g>
<!-- set_marker_node_Set(2) -->
<!-- set_marker_node_Set(8) -->
<!-- set_marker_node_Set(2)&#45;&gt;set_marker_node_Set(8) -->
<g id="edge2" class="edge">
<title>set_marker_node_Set(2)&#45;&gt;set_marker_node_Set(8)</title>
<path fill="none" stroke="white" d="M146.08,-101C152.43,-99.63 159.17,-98.24 165.85,-96.98"/>
<polygon fill="white" stroke="white" points="166.27,-100.46 175.51,-95.26 165.05,-93.56 166.27,-100.46"/>
</g>
<!-- set_marker_node_Set(3) -->
<!-- set_marker_node_Set(9) -->
<!-- set_marker_node_Set(3)&#45;&gt;set_marker_node_Set(9) -->
<g id="edge4" class="edge">
<title>set_marker_node_Set(3)&#45;&gt;set_marker_node_Set(9)</title>
<path fill="none" stroke="white" d="M479,-39C479.24,-39 479.47,-39 479.71,-39"/>
<polygon fill="white" stroke="white" points="479.49,-42.5 489.49,-39 479.49,-35.5 479.49,-42.5"/>
</g>
<!-- set_marker_node_Set(11) -->
<!-- set_marker_node_Set(4)&#45;&gt;set_marker_node_Set(11) -->
<g id="edge8" class="edge">
<title>set_marker_node_Set(4)&#45;&gt;set_marker_node_Set(11)</title>
<path fill="none" stroke="white" d="M941,-39C943.92,-39 946.88,-39 949.82,-39"/>
<polygon fill="white" stroke="white" points="949.49,-42.5 959.49,-39 949.49,-35.5 949.49,-42.5"/>
</g>
<!-- set_marker_node_Set(5) -->
<!-- set_marker_node_Set(12) -->
<!-- set_marker_node_Set(5)&#45;&gt;set_marker_node_Set(12) -->
<g id="edge10" class="edge">
<title>set_marker_node_Set(5)&#45;&gt;set_marker_node_Set(12)</title>
<path fill="none" stroke="white" d="M1190.03,-55C1194.46,-53.84 1198.84,-52.51 1203,-51 1206.28,-49.81 1209.61,-48.37 1212.89,-46.81"/>
<polygon fill="white" stroke="white" points="1214.43,-49.95 1221.66,-42.21 1211.18,-43.75 1214.43,-49.95"/>
</g>
<!-- set_marker_node_Set(6) -->
<!-- set_marker_node_Set(7) -->
<!-- set_marker_node_Set(7)&#45;&gt;set_marker_node_Set(2) -->
<g id="edge1" class="edge">
<title>set_marker_node_Set(7)&#45;&gt;set_marker_node_Set(2)</title>
<path fill="none" stroke="white" d="M46,-91.34C52.44,-93.18 59.5,-95.18 66,-97 67.17,-97.33 68.36,-97.66 69.55,-97.99"/>
<polygon fill="white" stroke="white" points="68.45,-101.32 79.02,-100.6 70.31,-94.57 68.45,-101.32"/>
</g>
<!-- set_marker_node_Set(58) -->
<!-- set_marker_node_Set(7)&#45;&gt;set_marker_node_Set(58) -->
<g id="edge13" class="edge">
<title>set_marker_node_Set(7)&#45;&gt;set_marker_node_Set(58)</title>
<path fill="none" stroke="white" d="M46,-79.12C48.89,-78.34 51.94,-77.53 55.09,-76.68"/>
<polygon fill="white" stroke="white" points="55.78,-80.12 64.54,-74.16 53.98,-73.36 55.78,-80.12"/>
</g>
<!-- set_marker_node_Set(8)&#45;&gt;set_marker_node_Set(3) -->
<g id="edge3" class="edge">
<title>set_marker_node_Set(8)&#45;&gt;set_marker_node_Set(3)</title>
<path fill="none" stroke="white" d="M284.46,-78C301.21,-73.04 323.58,-66.4 345.12,-60.02"/>
<polygon fill="white" stroke="white" points="345.96,-63.42 354.55,-57.22 343.97,-56.71 345.96,-63.42"/>
</g>
<!-- set_marker_node_Set(24) -->
<!-- node_System(131) -->
<g id="node10" class="node">
<title>node_System(131)</title>
<polygon fill="#eff1f3" stroke="#eff1f3" points="328,-140 185,-140 185,-104 328,-104 328,-140"/>
<text text-anchor="middle" x="256.5" y="-118.3" font-family="Times,serif" font-size="14.00">gilrs_event_system</text>
</g>
<!-- node_System(131)&#45;&gt;set_marker_node_Set(24) -->
<g id="edge16" class="edge">
<title>node_System(131)&#45;&gt;set_marker_node_Set(24)</title>
<path fill="none" stroke="white" d="M328.41,-116.18C337.47,-115.44 346.69,-114.69 355.56,-113.96"/>
<polygon fill="white" stroke="white" points="355.81,-117.45 365.5,-113.14 355.24,-110.47 355.81,-117.45"/>
</g>
<!-- set_marker_node_Set(10) -->
<!-- set_marker_node_Set(9)&#45;&gt;set_marker_node_Set(10) -->
<g id="edge5" class="edge">
<title>set_marker_node_Set(9)&#45;&gt;set_marker_node_Set(10)</title>
<path fill="none" stroke="white" d="M615,-39C617.97,-39 620.95,-39 623.92,-39"/>
<polygon fill="white" stroke="white" points="623.49,-42.5 633.49,-39 623.49,-35.5 623.49,-42.5"/>
</g>
<!-- set_marker_node_Set(10)&#45;&gt;set_marker_node_Set(0) -->
<g id="edge6" class="edge">
<title>set_marker_node_Set(10)&#45;&gt;set_marker_node_Set(0)</title>
<path fill="none" stroke="white" d="M735,-39C737.85,-39 740.71,-39 743.54,-39"/>
<polygon fill="white" stroke="white" points="743.49,-42.5 753.49,-39 743.49,-35.5 743.49,-42.5"/>
</g>
<!-- set_marker_node_Set(11)&#45;&gt;set_marker_node_Set(5) -->
<g id="edge9" class="edge">
<title>set_marker_node_Set(11)&#45;&gt;set_marker_node_Set(5)</title>
<path fill="none" stroke="white" d="M1054,-47.56C1063.41,-49.31 1073.4,-51.17 1083.06,-52.96"/>
<polygon fill="white" stroke="white" points="1082.06,-56.34 1092.53,-54.73 1083.34,-49.46 1082.06,-56.34"/>
</g>
<!-- set_marker_node_Set(59) -->
<!-- set_marker_node_Set(11)&#45;&gt;set_marker_node_Set(59) -->
<g id="edge14" class="edge">
<title>set_marker_node_Set(11)&#45;&gt;set_marker_node_Set(59)</title>
<path fill="none" stroke="white" d="M1052.87,-31C1061.26,-29.5 1070.15,-27.92 1078.87,-26.36"/>
<polygon fill="white" stroke="white" points="1079.28,-29.85 1088.51,-24.64 1078.05,-22.95 1079.28,-29.85"/>
</g>
<!-- set_marker_node_Set(12)&#45;&gt;set_marker_node_Set(6) -->
<g id="edge11" class="edge">
<title>set_marker_node_Set(12)&#45;&gt;set_marker_node_Set(6)</title>
<path fill="none" stroke="white" d="M1267,-28C1269.72,-28 1272.6,-28 1275.56,-28"/>
<polygon fill="white" stroke="white" points="1275.49,-31.5 1285.49,-28 1275.49,-24.5 1275.49,-31.5"/>
</g>
<!-- set_marker_node_Set(58)&#45;&gt;set_marker_node_Set(8) -->
<g id="edge12" class="edge">
<title>set_marker_node_Set(58)&#45;&gt;set_marker_node_Set(8)</title>
<path fill="none" stroke="white" d="M157,-69.53C169.51,-71.62 183.29,-73.92 196.47,-76.13"/>
<polygon fill="white" stroke="white" points="195.74,-79.55 206.18,-77.75 196.89,-72.65 195.74,-79.55"/>
</g>
<!-- set_marker_node_Set(59)&#45;&gt;set_marker_node_Set(12) -->
<g id="edge15" class="edge">
<title>set_marker_node_Set(59)&#45;&gt;set_marker_node_Set(12)</title>
<path fill="none" stroke="white" d="M1186,-21.37C1194.68,-22.36 1203.56,-23.38 1211.69,-24.31"/>
<polygon fill="white" stroke="white" points="1211.17,-27.77 1221.5,-25.43 1211.96,-20.82 1211.17,-27.77"/>
</g>
</g>
</svg>
