<?xml version="1.0" encoding="UTF-8" standalone="no"?>
<!DOCTYPE svg PUBLIC "-//W3C//DTD SVG 1.1//EN"
 "http://www.w3.org/Graphics/SVG/1.1/DTD/svg11.dtd">
<!-- Generated by graphviz version 7.1.0 (0)
 -->
<!-- Title: schedule Pages: 1 -->
<svg width="1890pt" height="453pt"
 viewBox="0.00 0.00 1890.00 453.00" xmlns="http://www.w3.org/2000/svg" xmlns:xlink="http://www.w3.org/1999/xlink">
<g id="graph0" class="graph" transform="scale(1 1) rotate(0) translate(4 449)">
<title>schedule</title>
<polygon fill="#0d1117" stroke="none" points="-4,4 -4,-449 1886,-449 1886,4 -4,4"/>
<g id="clust1" class="cluster">
<title>clusternode_Set(0)</title>
<polygon fill="#6f90ad" stroke="black" points="691,-102 691,-141 756,-141 756,-102 691,-102"/>
<text text-anchor="middle" x="723.5" y="-125.8" font-family="Helvetica,sans-Serif" font-size="14.00">Update</text>
</g>
<g id="clust2" class="cluster">
<title>clusternode_Set(2)</title>
<polygon fill="#6f90ad" stroke="black" points="70,-125 70,-164 152,-164 152,-125 70,-125"/>
<text text-anchor="middle" x="111" y="-148.8" font-family="Helvetica,sans-Serif" font-size="14.00">FirstFlush</text>
</g>
<g id="clust3" class="cluster">
<title>clusternode_Set(3)</title>
<polygon fill="#6f90ad" stroke="black" points="284,-102 284,-141 407,-141 407,-102 284,-102"/>
<text text-anchor="middle" x="345.5" y="-125.8" font-family="Helvetica,sans-Serif" font-size="14.00">PreUpdateFlush</text>
</g>
<g id="clust4" class="cluster">
<title>clusternode_Set(4)</title>
<polygon fill="#6f90ad" stroke="black" points="776,-102 776,-141 877,-141 877,-102 776,-102"/>
<text text-anchor="middle" x="826.5" y="-125.8" font-family="Helvetica,sans-Serif" font-size="14.00">UpdateFlush</text>
</g>
<g id="clust5" class="cluster">
<title>clusternode_Set(5)</title>
<polygon fill="#6f90ad" stroke="black" points="1171.5,-55 1171.5,-94 1300.5,-94 1300.5,-55 1171.5,-55"/>
<text text-anchor="middle" x="1236" y="-78.8" font-family="Helvetica,sans-Serif" font-size="14.00">PostUpdateFlush</text>
</g>
<g id="clust6" class="cluster">
<title>clusternode_Set(6)</title>
<polygon fill="#6f90ad" stroke="black" points="1718,-31 1718,-70 1798,-70 1798,-31 1718,-31"/>
<text text-anchor="middle" x="1758" y="-54.8" font-family="Helvetica,sans-Serif" font-size="14.00">LastFlush</text>
</g>
<g id="clust7" class="cluster">
<title>clusternode_Set(7)</title>
<polygon fill="#6f90ad" stroke="black" points="0,-101 0,-140 46,-140 46,-101 0,-101"/>
<text text-anchor="middle" x="23" y="-124.8" font-family="Helvetica,sans-Serif" font-size="14.00">First</text>
</g>
<g id="clust8" class="cluster">
<title>clusternode_Set(8)</title>
<polygon fill="#6f90ad" stroke="black" points="177,-102 177,-141 264,-141 264,-102 177,-102"/>
<text text-anchor="middle" x="220.5" y="-125.8" font-family="Helvetica,sans-Serif" font-size="14.00">PreUpdate</text>
</g>
<g id="clust9" class="cluster">
<title>clusternode_Set(9)</title>
<polygon fill="#6f90ad" stroke="black" points="427,-102 427,-141 551,-141 551,-102 427,-102"/>
<text text-anchor="middle" x="489" y="-125.8" font-family="Helvetica,sans-Serif" font-size="14.00">StateTransitions</text>
</g>
<g id="clust10" class="cluster">
<title>clusternode_Set(10)</title>
<polygon fill="#6f90ad" stroke="black" points="571,-102 571,-141 671,-141 671,-102 571,-102"/>
<text text-anchor="middle" x="621" y="-125.8" font-family="Helvetica,sans-Serif" font-size="14.00">FixedUpdate</text>
</g>
<g id="clust11" class="cluster">
<title>clusternode_Set(11)</title>
<polygon fill="#6f90ad" stroke="black" points="897,-102 897,-437 1874,-437 1874,-102 897,-102"/>
<text text-anchor="middle" x="1385.5" y="-421.8" font-family="Helvetica,sans-Serif" font-size="14.00">PostUpdate</text>
</g>
<g id="clust12" class="cluster">
<title>clusternode_Set(20)</title>
<polygon fill="#6f90ad" stroke="black" points="911,-347 911,-386 1063,-386 1063,-347 911,-347"/>
<text text-anchor="middle" x="987" y="-370.8" font-family="Helvetica,sans-Serif" font-size="14.00">TransformPropagate</text>
</g>
<g id="clust13" class="cluster">
<title>clusternode_Set(76)</title>
<polygon fill="#6f90ad" stroke="black" points="905,-268 905,-307 1069,-307 1069,-268 905,-268"/>
<text text-anchor="middle" x="987" y="-291.8" font-family="Helvetica,sans-Serif" font-size="14.00">CameraUpdateSystem</text>
</g>
<g id="clust14" class="cluster">
<title>clusternode_Set(81)</title>
<polygon fill="#6f90ad" stroke="black" points="1426,-158 1426,-197 1590,-197 1590,-158 1426,-158"/>
<text text-anchor="middle" x="1508" y="-181.8" font-family="Helvetica,sans-Serif" font-size="14.00">CalculateBoundsFlush</text>
</g>
<g id="clust15" class="cluster">
<title>clusternode_Set(85)</title>
<polygon fill="#6f90ad" stroke="black" points="931,-221 931,-260 1043,-260 1043,-221 931,-221"/>
<text text-anchor="middle" x="987" y="-244.8" font-family="Helvetica,sans-Serif" font-size="14.00">CheckVisibility</text>
</g>
<g id="clust16" class="cluster">
<title>clusternode_Set(127)</title>
<polygon fill="#6f90ad" stroke="black" points="929,-120 929,-213 1045,-213 1045,-120 929,-120"/>
<text text-anchor="middle" x="987" y="-197.8" font-family="Helvetica,sans-Serif" font-size="14.00">AddClusters</text>
</g>
<g id="clust17" class="cluster">
<title>clusternode_Set(129)</title>
<polygon fill="#6f90ad" stroke="black" points="1137.5,-142 1137.5,-235 1333.5,-235 1333.5,-142 1137.5,-142"/>
<text text-anchor="middle" x="1235.5" y="-219.8" font-family="Helvetica,sans-Serif" font-size="14.00">AssignLightsToClusters</text>
</g>
<g id="clust18" class="cluster">
<title>clusternode_Set(130)</title>
<polygon fill="#6f90ad" stroke="black" points="1650,-130 1650,-223 1866,-223 1866,-130 1650,-130"/>
<text text-anchor="middle" x="1758" y="-207.8" font-family="Helvetica,sans-Serif" font-size="14.00">CheckLightVisibility</text>
</g>
<g id="clust19" class="cluster">
<title>clusternode_Set(131)</title>
<polygon fill="#6f90ad" stroke="black" points="1105,-243 1105,-336 1366,-336 1366,-243 1105,-243"/>
<text text-anchor="middle" x="1235.5" y="-320.8" font-family="Helvetica,sans-Serif" font-size="14.00">UpdateDirectionalLightCascades</text>
</g>
<g id="clust20" class="cluster">
<title>clusternode_Set(132)</title>
<polygon fill="#6f90ad" stroke="black" points="1386,-205 1386,-406 1630,-406 1630,-205 1386,-205"/>
<text text-anchor="middle" x="1508" y="-390.8" font-family="Helvetica,sans-Serif" font-size="14.00">UpdateLightFrusta</text>
</g>
<g id="clust21" class="cluster">
<title>clusternode_Set(12)</title>
<polygon fill="#6f90ad" stroke="black" points="1486,-31 1486,-70 1530,-70 1530,-31 1486,-31"/>
<text text-anchor="middle" x="1508" y="-54.8" font-family="Helvetica,sans-Serif" font-size="14.00">Last</text>
</g>
<g id="clust22" class="cluster">
<title>clusternode_Set(58)</title>
<polygon fill="#6f90ad" stroke="black" points="66,-78 66,-117 157,-117 157,-78 66,-78"/>
<text text-anchor="middle" x="111.5" y="-101.8" font-family="Helvetica,sans-Serif" font-size="14.00">LoadAssets</text>
</g>
<g id="clust23" class="cluster">
<title>clusternode_Set(59)</title>
<polygon fill="#6f90ad" stroke="black" points="1187.5,-8 1187.5,-47 1283.5,-47 1283.5,-8 1187.5,-8"/>
<text text-anchor="middle" x="1235.5" y="-31.8" font-family="Helvetica,sans-Serif" font-size="14.00">AssetEvents</text>
</g>
<!-- set_marker_node_Set(0) -->
<!-- set_marker_node_Set(4) -->
<!-- set_marker_node_Set(0)&#45;&gt;set_marker_node_Set(4) -->
<g id="edge7" class="edge">
<title>set_marker_node_Set(0)&#45;&gt;set_marker_node_Set(4)</title>
<path fill="none" stroke="white" d="M756,-110C758.81,-110 761.71,-110 764.65,-110"/>
<polygon fill="white" stroke="white" points="764.49,-113.5 774.49,-110 764.49,-106.5 764.49,-113.5"/>
</g>
<!-- set_marker_node_Set(2) -->
<!-- set_marker_node_Set(8) -->
<!-- set_marker_node_Set(2)&#45;&gt;set_marker_node_Set(8) -->
<g id="edge2" class="edge">
<title>set_marker_node_Set(2)&#45;&gt;set_marker_node_Set(8)</title>
<path fill="none" stroke="white" d="M149.21,-125C154.62,-123.84 160.27,-122.62 165.92,-121.41"/>
<polygon fill="white" stroke="white" points="166.48,-124.87 175.53,-119.35 165.01,-118.02 166.48,-124.87"/>
</g>
<!-- set_marker_node_Set(3) -->
<!-- set_marker_node_Set(9) -->
<!-- set_marker_node_Set(3)&#45;&gt;set_marker_node_Set(9) -->
<g id="edge4" class="edge">
<title>set_marker_node_Set(3)&#45;&gt;set_marker_node_Set(9)</title>
<path fill="none" stroke="white" d="M407,-110C409.83,-110 412.68,-110 415.54,-110"/>
<polygon fill="white" stroke="white" points="415.49,-113.5 425.49,-110 415.49,-106.5 415.49,-113.5"/>
</g>
<!-- set_marker_node_Set(11) -->
<!-- set_marker_node_Set(4)&#45;&gt;set_marker_node_Set(11) -->
<g id="edge8" class="edge">
<title>set_marker_node_Set(4)&#45;&gt;set_marker_node_Set(11)</title>
<path fill="none" stroke="white" d="M877,-110C879.82,-110 882.69,-110 885.61,-110"/>
<polygon fill="white" stroke="white" points="885.49,-113.5 895.49,-110 885.49,-106.5 885.49,-113.5"/>
</g>
<!-- set_marker_node_Set(5) -->
<!-- set_marker_node_Set(12) -->
<!-- set_marker_node_Set(5)&#45;&gt;set_marker_node_Set(12) -->
<g id="edge10" class="edge">
<title>set_marker_node_Set(5)&#45;&gt;set_marker_node_Set(12)</title>
<path fill="none" stroke="white" d="M1300.5,-57.32C1355.24,-52.46 1431.79,-45.67 1474.65,-41.87"/>
<polygon fill="white" stroke="white" points="1474.84,-45.37 1484.5,-41 1474.23,-38.39 1474.84,-45.37"/>
</g>
<!-- set_marker_node_Set(6) -->
<!-- set_marker_node_Set(7) -->
<!-- set_marker_node_Set(7)&#45;&gt;set_marker_node_Set(2) -->
<g id="edge1" class="edge">
<title>set_marker_node_Set(7)&#45;&gt;set_marker_node_Set(2)</title>
<path fill="none" stroke="white" d="M46,-115.34C52.44,-117.18 59.5,-119.18 66,-121 67.17,-121.33 68.36,-121.66 69.55,-121.99"/>
<polygon fill="white" stroke="white" points="68.45,-125.32 79.02,-124.6 70.31,-118.57 68.45,-125.32"/>
</g>
<!-- set_marker_node_Set(58) -->
<!-- set_marker_node_Set(7)&#45;&gt;set_marker_node_Set(58) -->
<g id="edge13" class="edge">
<title>set_marker_node_Set(7)&#45;&gt;set_marker_node_Set(58)</title>
<path fill="none" stroke="white" d="M46,-103.12C48.89,-102.34 51.94,-101.53 55.09,-100.68"/>
<polygon fill="white" stroke="white" points="55.78,-104.12 64.54,-98.16 53.98,-97.36 55.78,-104.12"/>
</g>
<!-- set_marker_node_Set(8)&#45;&gt;set_marker_node_Set(3) -->
<g id="edge3" class="edge">
<title>set_marker_node_Set(8)&#45;&gt;set_marker_node_Set(3)</title>
<path fill="none" stroke="white" d="M264,-110C266.84,-110 269.75,-110 272.68,-110"/>
<polygon fill="white" stroke="white" points="272.49,-113.5 282.49,-110 272.49,-106.5 272.49,-113.5"/>
</g>
<!-- set_marker_node_Set(10) -->
<!-- set_marker_node_Set(9)&#45;&gt;set_marker_node_Set(10) -->
<g id="edge5" class="edge">
<title>set_marker_node_Set(9)&#45;&gt;set_marker_node_Set(10)</title>
<path fill="none" stroke="white" d="M551,-110C553.97,-110 556.95,-110 559.92,-110"/>
<polygon fill="white" stroke="white" points="559.49,-113.5 569.49,-110 559.49,-106.5 559.49,-113.5"/>
</g>
<!-- set_marker_node_Set(10)&#45;&gt;set_marker_node_Set(0) -->
<g id="edge6" class="edge">
<title>set_marker_node_Set(10)&#45;&gt;set_marker_node_Set(0)</title>
<path fill="none" stroke="white" d="M671,-110C673.85,-110 676.71,-110 679.54,-110"/>
<polygon fill="white" stroke="white" points="679.49,-113.5 689.49,-110 679.49,-106.5 679.49,-113.5"/>
</g>
<!-- set_marker_node_Set(11)&#45;&gt;set_marker_node_Set(5) -->
<g id="edge9" class="edge">
<title>set_marker_node_Set(11)&#45;&gt;set_marker_node_Set(5)</title>
<path fill="none" stroke="white" d="M1029.95,-102C1065.58,-95.21 1117.59,-85.29 1160.24,-77.16"/>
<polygon fill="white" stroke="white" points="1160.85,-80.61 1170.01,-75.3 1159.54,-73.73 1160.85,-80.61"/>
</g>
<!-- set_marker_node_Set(59) -->
<!-- set_marker_node_Set(11)&#45;&gt;set_marker_node_Set(59) -->
<g id="edge14" class="edge">
<title>set_marker_node_Set(11)&#45;&gt;set_marker_node_Set(59)</title>
<path fill="none" stroke="white" d="M1001.58,-102C1022.97,-89.68 1066.09,-65.89 1105,-51 1127.85,-42.26 1153.75,-34.79 1176.36,-29.03"/>
<polygon fill="white" stroke="white" points="1177.17,-32.44 1186.03,-26.63 1175.48,-25.65 1177.17,-32.44"/>
</g>
<!-- set_marker_node_Set(20) -->
<!-- node_System(106) -->
<g id="node19" class="node">
<title>node_System(106)</title>
<polygon fill="#eff1f3" stroke="#eff1f3" points="1325.5,-186 1145.5,-186 1145.5,-150 1325.5,-150 1325.5,-186"/>
<text text-anchor="middle" x="1235.5" y="-164.3" font-family="Times,serif" font-size="14.00">assign_lights_to_clusters</text>
</g>
<!-- set_marker_node_Set(20)&#45;&gt;node_System(106) -->
<g id="edge16" class="edge">
<title>set_marker_node_Set(20)&#45;&gt;node_System(106)</title>
<path fill="none" stroke="white" d="M1013.43,-347C1031.35,-340.13 1054.62,-328.53 1069,-311 1103.24,-269.27 1065.05,-231.31 1105,-195 1113.56,-187.22 1123.78,-181.45 1134.65,-177.21"/>
<polygon fill="white" stroke="white" points="1135.49,-180.62 1143.82,-174.08 1133.23,-174 1135.49,-180.62"/>
</g>
<!-- node_System(111) -->
<g id="node21" class="node">
<title>node_System(111)</title>
<polygon fill="#eff1f3" stroke="#eff1f3" points="1858,-174 1658,-174 1658,-138 1858,-138 1858,-174"/>
<text text-anchor="middle" x="1758" y="-152.3" font-family="Times,serif" font-size="14.00">check_light_mesh_visibility</text>
</g>
<!-- set_marker_node_Set(20)&#45;&gt;node_System(111) -->
<g id="edge29" class="edge">
<title>set_marker_node_Set(20)&#45;&gt;node_System(111)</title>
<path fill="none" stroke="white" d="M1063,-351.75C1076.96,-351.15 1091.42,-350.55 1105,-350 1119.5,-349.41 1355.39,-349.9 1366,-340 1396.39,-311.63 1355.07,-181.78 1386,-154 1405.08,-136.86 1544.04,-141.82 1646.31,-148.02"/>
<polygon fill="white" stroke="white" points="1645.94,-151.5 1656.14,-148.63 1646.38,-144.52 1645.94,-151.5"/>
</g>
<!-- node_System(107) -->
<g id="node23" class="node">
<title>node_System(107)</title>
<polygon fill="#eff1f3" stroke="#eff1f3" points="1358,-287 1113,-287 1113,-251 1358,-251 1358,-287"/>
<text text-anchor="middle" x="1235.5" y="-265.3" font-family="Times,serif" font-size="14.00">update_directional_light_cascades</text>
</g>
<!-- set_marker_node_Set(20)&#45;&gt;node_System(107) -->
<g id="edge19" class="edge">
<title>set_marker_node_Set(20)&#45;&gt;node_System(107)</title>
<path fill="none" stroke="white" d="M1002.65,-347C1029.21,-332.62 1084.45,-303.19 1105,-296 1110.62,-294.03 1116.44,-292.19 1122.34,-290.46"/>
<polygon fill="white" stroke="white" points="1122.9,-293.94 1131.6,-287.88 1121.03,-287.2 1122.9,-293.94"/>
</g>
<!-- node_System(108) -->
<g id="node25" class="node">
<title>node_System(108)</title>
<polygon fill="#eff1f3" stroke="#eff1f3" points="1622,-249 1394,-249 1394,-213 1622,-213 1622,-249"/>
<text text-anchor="middle" x="1508" y="-227.3" font-family="Times,serif" font-size="14.00">update_directional_light_frusta</text>
</g>
<!-- set_marker_node_Set(20)&#45;&gt;node_System(108) -->
<g id="edge22" class="edge">
<title>set_marker_node_Set(20)&#45;&gt;node_System(108)</title>
<path fill="none" stroke="white" d="M1063,-358.92C1166.55,-363.59 1343.19,-368.63 1366,-350 1398.41,-323.53 1356.49,-287.67 1386,-258 1386.5,-257.5 1387,-257.01 1387.52,-256.52"/>
<polygon fill="white" stroke="white" points="1389.6,-259.34 1395.19,-250.33 1385.21,-253.89 1389.6,-259.34"/>
</g>
<!-- node_System(109) -->
<g id="node26" class="node">
<title>node_System(109)</title>
<polygon fill="#eff1f3" stroke="#eff1f3" points="1603,-303 1413,-303 1413,-267 1603,-267 1603,-303"/>
<text text-anchor="middle" x="1508" y="-281.3" font-family="Times,serif" font-size="14.00">update_point_light_frusta</text>
</g>
<!-- set_marker_node_Set(20)&#45;&gt;node_System(109) -->
<g id="edge24" class="edge">
<title>set_marker_node_Set(20)&#45;&gt;node_System(109)</title>
<path fill="none" stroke="white" d="M1063,-368.49C1159.16,-384.03 1319.12,-403.42 1366,-370 1388.2,-354.17 1365.67,-330.17 1386,-312 1390.99,-307.54 1396.55,-303.77 1402.46,-300.58"/>
<polygon fill="white" stroke="white" points="1403.8,-303.82 1411.36,-296.4 1400.82,-297.49 1403.8,-303.82"/>
</g>
<!-- node_System(110) -->
<g id="node27" class="node">
<title>node_System(110)</title>
<polygon fill="#eff1f3" stroke="#eff1f3" points="1599,-357 1417,-357 1417,-321 1599,-321 1599,-357"/>
<text text-anchor="middle" x="1508" y="-335.3" font-family="Times,serif" font-size="14.00">update_spot_light_frusta</text>
</g>
<!-- set_marker_node_Set(20)&#45;&gt;node_System(110) -->
<g id="edge26" class="edge">
<title>set_marker_node_Set(20)&#45;&gt;node_System(110)</title>
<path fill="none" stroke="white" d="M1063,-380.93C1076.81,-384.7 1091.22,-387.98 1105,-390 1219.78,-406.8 1260.95,-439.2 1366,-390 1378.57,-384.11 1374.15,-373.23 1386,-366 1392.3,-362.16 1399.07,-358.86 1406.09,-356.03"/>
<polygon fill="white" stroke="white" points="1406.91,-359.46 1415.1,-352.73 1404.51,-352.89 1406.91,-359.46"/>
</g>
<!-- set_marker_node_Set(76) -->
<!-- set_marker_node_Set(76)&#45;&gt;node_System(106) -->
<g id="edge18" class="edge">
<title>set_marker_node_Set(76)&#45;&gt;node_System(106)</title>
<path fill="none" stroke="white" d="M1062.48,-268C1064.74,-266.81 1066.92,-265.48 1069,-264 1097.18,-243.94 1077.42,-215.87 1105,-195 1113.79,-188.35 1123.84,-183.24 1134.36,-179.34"/>
<polygon fill="white" stroke="white" points="1135.18,-182.75 1143.58,-176.29 1132.98,-176.1 1135.18,-182.75"/>
</g>
<!-- set_marker_node_Set(76)&#45;&gt;node_System(107) -->
<g id="edge20" class="edge">
<title>set_marker_node_Set(76)&#45;&gt;node_System(107)</title>
<path fill="none" stroke="white" d="M1069,-273.7C1079.4,-273.4 1090.27,-273.1 1101.24,-272.78"/>
<polygon fill="white" stroke="white" points="1101.28,-276.28 1111.18,-272.5 1101.09,-269.29 1101.28,-276.28"/>
</g>
<!-- set_marker_node_Set(81) -->
<!-- set_marker_node_Set(81)&#45;&gt;node_System(111) -->
<g id="edge28" class="edge">
<title>set_marker_node_Set(81)&#45;&gt;node_System(111)</title>
<path fill="none" stroke="white" d="M1590,-162.73C1608.04,-162.01 1627.48,-161.22 1646.48,-160.46"/>
<polygon fill="white" stroke="white" points="1646.37,-163.96 1656.22,-160.06 1646.09,-156.97 1646.37,-163.96"/>
</g>
<!-- set_marker_node_Set(85) -->
<!-- set_marker_node_Set(85)&#45;&gt;node_System(106) -->
<g id="edge17" class="edge">
<title>set_marker_node_Set(85)&#45;&gt;node_System(106)</title>
<path fill="none" stroke="white" d="M1043,-223.9C1051.84,-222.22 1060.78,-219.98 1069,-217 1086.63,-210.61 1087.57,-201.9 1105,-195 1114.33,-191.31 1124.25,-188.09 1134.28,-185.29"/>
<polygon fill="white" stroke="white" points="1134.95,-188.73 1143.73,-182.8 1133.17,-181.96 1134.95,-188.73"/>
</g>
<!-- set_marker_node_Set(85)&#45;&gt;node_System(111) -->
<g id="edge31" class="edge">
<title>set_marker_node_Set(85)&#45;&gt;node_System(111)</title>
<path fill="none" stroke="white" d="M1043,-228.86C1052.42,-226.7 1061.55,-223.02 1069,-217 1104.45,-188.36 1067.55,-146.96 1105,-121 1148.28,-91.01 1472.17,-122.99 1646.56,-142.78"/>
<polygon fill="white" stroke="white" points="1645.99,-146.24 1656.32,-143.89 1646.78,-139.28 1645.99,-146.24"/>
</g>
<!-- set_marker_node_Set(85)&#45;&gt;node_System(108) -->
<g id="edge21" class="edge">
<title>set_marker_node_Set(85)&#45;&gt;node_System(108)</title>
<path fill="none" stroke="white" d="M1043,-228.36C1052.33,-226.23 1061.44,-222.69 1069,-217 1099.83,-193.8 1072.55,-158.87 1105,-138 1129.39,-122.31 1342.6,-120.88 1366,-138 1389.71,-155.35 1364.57,-180.91 1386,-201 1388.07,-202.94 1390.25,-204.77 1392.52,-206.48"/>
<polygon fill="white" stroke="white" points="1390.13,-209.1 1400.41,-211.69 1393.99,-203.26 1390.13,-209.1"/>
</g>
<!-- set_marker_node_Set(127) -->
<!-- node_System(104) -->
<g id="node17" class="node">
<title>node_System(104)</title>
<polygon fill="#eff1f3" stroke="#eff1f3" points="1037,-164 937,-164 937,-128 1037,-128 1037,-164"/>
<text text-anchor="middle" x="987" y="-142.3" font-family="Times,serif" font-size="14.00">add_clusters</text>
</g>
<!-- set_marker_node_Set(129) -->
<!-- set_marker_node_Set(129)&#45;&gt;node_System(109) -->
<g id="edge25" class="edge">
<title>set_marker_node_Set(129)&#45;&gt;node_System(109)</title>
<path fill="none" stroke="white" d="M1333.5,-224.48C1344.79,-228.52 1355.88,-233.31 1366,-239 1376.69,-245.01 1375.18,-252.23 1386,-258 1391.09,-260.71 1396.45,-263.16 1401.95,-265.35"/>
<polygon fill="white" stroke="white" points="1400.67,-268.61 1411.27,-268.76 1403.08,-262.04 1400.67,-268.61"/>
</g>
<!-- set_marker_node_Set(129)&#45;&gt;node_System(110) -->
<g id="edge27" class="edge">
<title>set_marker_node_Set(129)&#45;&gt;node_System(110)</title>
<path fill="none" stroke="white" d="M1333.5,-217.97C1345.55,-223.05 1356.84,-229.87 1366,-239 1389.83,-262.75 1361.65,-288.79 1386,-312 1391.94,-317.67 1398.8,-322.24 1406.18,-325.93"/>
<polygon fill="white" stroke="white" points="1404.55,-329.04 1415.12,-329.82 1407.35,-322.62 1404.55,-329.04"/>
</g>
<!-- set_marker_node_Set(130) -->
<!-- set_marker_node_Set(131) -->
<!-- set_marker_node_Set(131)&#45;&gt;node_System(108) -->
<g id="edge23" class="edge">
<title>set_marker_node_Set(131)&#45;&gt;node_System(108)</title>
<path fill="none" stroke="white" d="M1366,-296C1381.99,-285.58 1370.84,-269.59 1386,-258 1387.18,-257.1 1388.38,-256.23 1389.6,-255.38"/>
<polygon fill="white" stroke="white" points="1391.36,-258.41 1398.09,-250.23 1387.73,-252.43 1391.36,-258.41"/>
</g>
<!-- set_marker_node_Set(132) -->
<!-- set_marker_node_Set(132)&#45;&gt;node_System(111) -->
<g id="edge30" class="edge">
<title>set_marker_node_Set(132)&#45;&gt;node_System(111)</title>
<path fill="none" stroke="white" d="M1630,-366C1659.42,-337.58 1623.14,-213.86 1650,-183 1650.26,-182.7 1650.52,-182.41 1650.79,-182.11"/>
<polygon fill="white" stroke="white" points="1653.02,-184.81 1658.05,-175.49 1648.31,-179.64 1653.02,-184.81"/>
</g>
<!-- set_marker_node_Set(12)&#45;&gt;set_marker_node_Set(6) -->
<g id="edge11" class="edge">
<title>set_marker_node_Set(12)&#45;&gt;set_marker_node_Set(6)</title>
<path fill="none" stroke="white" d="M1530,-39C1568.7,-39 1652.3,-39 1706.53,-39"/>
<polygon fill="white" stroke="white" points="1706.49,-42.5 1716.49,-39 1706.49,-35.5 1706.49,-42.5"/>
</g>
<!-- set_marker_node_Set(58)&#45;&gt;set_marker_node_Set(8) -->
<g id="edge12" class="edge">
<title>set_marker_node_Set(58)&#45;&gt;set_marker_node_Set(8)</title>
<path fill="none" stroke="white" d="M157,-96.09C162.09,-97.24 167.29,-98.4 172.4,-99.55"/>
<polygon fill="white" stroke="white" points="171.35,-102.9 181.87,-101.67 172.88,-96.07 171.35,-102.9"/>
</g>
<!-- set_marker_node_Set(59)&#45;&gt;set_marker_node_Set(12) -->
<g id="edge15" class="edge">
<title>set_marker_node_Set(59)&#45;&gt;set_marker_node_Set(12)</title>
<path fill="none" stroke="white" d="M1283.5,-20C1338.21,-24.65 1427.13,-32.21 1474.65,-36.25"/>
<polygon fill="white" stroke="white" points="1474.23,-39.73 1484.5,-37.09 1474.83,-32.75 1474.23,-39.73"/>
</g>
</g>
</svg>
