<?xml version="1.0" encoding="UTF-8" standalone="no"?>
<!DOCTYPE svg PUBLIC "-//W3C//DTD SVG 1.1//EN"
 "http://www.w3.org/Graphics/SVG/1.1/DTD/svg11.dtd">
<!-- Generated by graphviz version 7.1.0 (0)
 -->
<!-- Pages: 1 -->
<svg width="2214pt" height="2642pt"
 viewBox="0.00 0.00 2214.00 2642.00" xmlns="http://www.w3.org/2000/svg" xmlns:xlink="http://www.w3.org/1999/xlink">
<g id="graph0" class="graph" transform="scale(1 1) rotate(0) translate(4 2638)">
<polygon fill="#0d1117" stroke="none" points="-4,4 -4,-2638 2210,-2638 2210,4 -4,4"/>
<g id="clust1" class="cluster">
<title>clusternode_Set(0)</title>
<g id="a_clust1"><a xlink:title="Update">
<polygon fill="#6f90ad" stroke="black" points="1281,-2383 1281,-2422 1346,-2422 1346,-2383 1281,-2383"/>
<text text-anchor="middle" x="1313.5" y="-2406.8" font-family="Helvetica,sans-Serif" font-size="14.00">Update</text>
</a>
</g>
</g>
<g id="clust2" class="cluster">
<title>clusternode_Set(2)</title>
<g id="a_clust2"><a xlink:title="FirstFlush">
<polygon fill="#6f90ad" stroke="black" points="516,-2380 516,-2473 693,-2473 693,-2380 516,-2380"/>
<text text-anchor="middle" x="604.5" y="-2457.8" font-family="Helvetica,sans-Serif" font-size="14.00">FirstFlush</text>
</a>
</g>
</g>
<g id="clust3" class="cluster">
<title>clusternode_Set(3)</title>
<g id="a_clust3"><a xlink:title="PreUpdateFlush">
<polygon fill="#6f90ad" stroke="black" points="820,-2329 820,-2422 997,-2422 997,-2329 820,-2329"/>
<text text-anchor="middle" x="908.5" y="-2406.8" font-family="Helvetica,sans-Serif" font-size="14.00">PreUpdateFlush</text>
</a>
</g>
</g>
<g id="clust4" class="cluster">
<title>clusternode_Set(4)</title>
<g id="a_clust4"><a xlink:title="UpdateFlush">
<polygon fill="#6f90ad" stroke="black" points="1366,-2329 1366,-2422 1543,-2422 1543,-2329 1366,-2329"/>
<text text-anchor="middle" x="1454.5" y="-2406.8" font-family="Helvetica,sans-Serif" font-size="14.00">UpdateFlush</text>
</a>
</g>
</g>
<g id="clust5" class="cluster">
<title>clusternode_Set(5)</title>
<g id="a_clust5"><a xlink:title="PostUpdateFlush">
<polygon fill="#6f90ad" stroke="black" points="1760,-2380 1760,-2473 1937,-2473 1937,-2380 1760,-2380"/>
<text text-anchor="middle" x="1848.5" y="-2457.8" font-family="Helvetica,sans-Serif" font-size="14.00">PostUpdateFlush</text>
</a>
</g>
</g>
<g id="clust6" class="cluster">
<title>clusternode_Set(6)</title>
<g id="a_clust6"><a xlink:title="LastFlush">
<polygon fill="#6f90ad" stroke="black" points="2021,-2329 2021,-2422 2198,-2422 2198,-2329 2021,-2329"/>
<text text-anchor="middle" x="2109.5" y="-2406.8" font-family="Helvetica,sans-Serif" font-size="14.00">LastFlush</text>
</a>
</g>
</g>
<g id="clust7" class="cluster">
<title>clusternode_Set(7)</title>
<g id="a_clust7"><a xlink:title="First">
<polygon fill="#6f90ad" stroke="black" points="8,-8 8,-2423 496,-2423 496,-8 8,-8"/>
<text text-anchor="middle" x="252" y="-2407.8" font-family="Helvetica,sans-Serif" font-size="14.00">First</text>
</a>
</g>
</g>
<g id="clust8" class="cluster">
<title>clusternode_Set(8)</title>
<g id="a_clust8"><a xlink:title="PreUpdate">
<polygon fill="#6f90ad" stroke="black" points="713,-2383 713,-2422 800,-2422 800,-2383 713,-2383"/>
<text text-anchor="middle" x="756.5" y="-2406.8" font-family="Helvetica,sans-Serif" font-size="14.00">PreUpdate</text>
</a>
</g>
</g>
<g id="clust9" class="cluster">
<title>clusternode_Set(9)</title>
<g id="a_clust9"><a xlink:title="StateTransitions">
<polygon fill="#6f90ad" stroke="black" points="1017,-2383 1017,-2422 1141,-2422 1141,-2383 1017,-2383"/>
<text text-anchor="middle" x="1079" y="-2406.8" font-family="Helvetica,sans-Serif" font-size="14.00">StateTransitions</text>
</a>
</g>
</g>
<g id="clust10" class="cluster">
<title>clusternode_Set(10)</title>
<g id="a_clust10"><a xlink:title="FixedUpdate">
<polygon fill="#6f90ad" stroke="black" points="1161,-2383 1161,-2422 1261,-2422 1261,-2383 1161,-2383"/>
<text text-anchor="middle" x="1211" y="-2406.8" font-family="Helvetica,sans-Serif" font-size="14.00">FixedUpdate</text>
</a>
</g>
</g>
<g id="clust11" class="cluster">
<title>clusternode_Set(11)</title>
<g id="a_clust11"><a xlink:title="PostUpdate">
<polygon fill="#6f90ad" stroke="black" points="1555,-2383 1555,-2626 1748,-2626 1748,-2383 1555,-2383"/>
<text text-anchor="middle" x="1651.5" y="-2610.8" font-family="Helvetica,sans-Serif" font-size="14.00">PostUpdate</text>
</a>
</g>
</g>
<g id="clust12" class="cluster">
<title>clusternode_Set(81)</title>
<g id="a_clust12"><a xlink:title="CalculateBoundsFlush">
<polygon fill="#6f90ad" stroke="black" points="1563,-2502 1563,-2595 1740,-2595 1740,-2502 1563,-2502"/>
<text text-anchor="middle" x="1651.5" y="-2579.8" font-family="Helvetica,sans-Serif" font-size="14.00">CalculateBoundsFlush</text>
</a>
</g>
</g>
<g id="clust13" class="cluster">
<title>clusternode_Set(128)</title>
<g id="a_clust13"><a xlink:title="AddClustersFlush">
<polygon fill="#6f90ad" stroke="black" points="1563,-2401 1563,-2494 1740,-2494 1740,-2401 1563,-2401"/>
<text text-anchor="middle" x="1651.5" y="-2478.8" font-family="Helvetica,sans-Serif" font-size="14.00">AddClustersFlush</text>
</a>
</g>
</g>
<g id="clust14" class="cluster">
<title>clusternode_Set(12)</title>
<g id="a_clust14"><a xlink:title="Last">
<polygon fill="#6f90ad" stroke="black" points="1957,-2383 1957,-2422 2001,-2422 2001,-2383 1957,-2383"/>
<text text-anchor="middle" x="1979" y="-2406.8" font-family="Helvetica,sans-Serif" font-size="14.00">Last</text>
</a>
</g>
</g>
<g id="clust15" class="cluster">
<title>clusternode_Set(58)</title>
<g id="a_clust15"><a xlink:title="LoadAssets">
<polygon fill="#6f90ad" stroke="black" points="559.5,-2333 559.5,-2372 650.5,-2372 650.5,-2333 559.5,-2333"/>
<text text-anchor="middle" x="605" y="-2356.8" font-family="Helvetica,sans-Serif" font-size="14.00">LoadAssets</text>
</a>
</g>
</g>
<g id="clust16" class="cluster">
<title>clusternode_Set(59)</title>
<g id="a_clust16"><a xlink:title="AssetEvents">
<polygon fill="#6f90ad" stroke="black" points="1800.5,-2333 1800.5,-2372 1896.5,-2372 1896.5,-2333 1800.5,-2333"/>
<text text-anchor="middle" x="1848.5" y="-2356.8" font-family="Helvetica,sans-Serif" font-size="14.00">AssetEvents</text>
</a>
</g>
</g>
<!-- set_marker_node_Set(0) -->
<!-- set_marker_node_Set(4) -->
<!-- set_marker_node_Set(0)&#45;&gt;set_marker_node_Set(4) -->
<g id="edge7" class="edge">
<title>set_marker_node_Set(0)&#45;&gt;set_marker_node_Set(4)</title>
<g id="a_edge7"><a xlink:title="Update → UpdateFlush">
<path fill="none" stroke="#cc251d" stroke-width="2" d="M1346,-2391C1348.29,-2391 1350.67,-2391 1353.1,-2391"/>
<polygon fill="#cc251d" stroke="#cc251d" stroke-width="2" points="1352.98,-2394.5 1362.98,-2391 1352.98,-2387.5 1352.98,-2394.5"/>
</a>
</g>
</g>
<!-- set_marker_node_Set(2) -->
<!-- set_marker_node_Set(8) -->
<!-- set_marker_node_Set(2)&#45;&gt;set_marker_node_Set(8) -->
<g id="edge2" class="edge">
<title>set_marker_node_Set(2)&#45;&gt;set_marker_node_Set(8)</title>
<g id="a_edge2"><a xlink:title="FirstFlush → PreUpdate">
<path fill="none" stroke="#c4cc1d" stroke-width="2" d="M693,-2433C696.68,-2431.66 700.36,-2430.05 703.98,-2428.26"/>
<polygon fill="#c4cc1d" stroke="#c4cc1d" stroke-width="2" points="705.59,-2431.37 712.64,-2423.47 702.2,-2425.25 705.59,-2431.37"/>
</a>
</g>
</g>
<!-- node_System(0) -->
<g id="node3" class="node">
<title>node_System(0)</title>
<g id="a_node3"><a xlink:title="bevy_ecs::schedule::executor::apply_system_buffers">
<polygon fill="#eff1f3" stroke="#eff1f3" points="685,-2424 524,-2424 524,-2388 685,-2388 685,-2424"/>
<text text-anchor="middle" x="604.5" y="-2402.3" font-family="Times,serif" font-size="14.00">apply_system_buffers</text>
</a>
</g>
</g>
<!-- set_marker_node_Set(3) -->
<!-- set_marker_node_Set(9) -->
<!-- set_marker_node_Set(3)&#45;&gt;set_marker_node_Set(9) -->
<g id="edge4" class="edge">
<title>set_marker_node_Set(3)&#45;&gt;set_marker_node_Set(9)</title>
<g id="a_edge4"><a xlink:title="PreUpdateFlush → StateTransitions">
<path fill="none" stroke="#cd1d91" stroke-width="2" d="M997,-2391C999.38,-2391 1001.77,-2391 1004.14,-2391"/>
<polygon fill="#cd1d91" stroke="#cd1d91" stroke-width="2" points="1003.97,-2394.5 1013.97,-2391 1003.97,-2387.5 1003.97,-2394.5"/>
</a>
</g>
</g>
<!-- node_System(1) -->
<g id="node5" class="node">
<title>node_System(1)</title>
<g id="a_node5"><a xlink:title="bevy_ecs::schedule::executor::apply_system_buffers">
<polygon fill="#eff1f3" stroke="#eff1f3" points="989,-2373 828,-2373 828,-2337 989,-2337 989,-2373"/>
<text text-anchor="middle" x="908.5" y="-2351.3" font-family="Times,serif" font-size="14.00">apply_system_buffers</text>
</a>
</g>
</g>
<!-- set_marker_node_Set(11) -->
<!-- set_marker_node_Set(4)&#45;&gt;set_marker_node_Set(11) -->
<g id="edge8" class="edge">
<title>set_marker_node_Set(4)&#45;&gt;set_marker_node_Set(11)</title>
<g id="a_edge8"><a xlink:title="UpdateFlush → PostUpdate">
<path fill="none" stroke="#ccd60d" stroke-width="2" d="M1543,-2391C1546,-2391 1549,-2391 1552,-2391"/>
<polygon fill="#ccd60d" stroke="#ccd60d" stroke-width="2" points="1541.97,-2394.5 1551.97,-2391 1541.97,-2387.5 1541.97,-2394.5"/>
</a>
</g>
</g>
<!-- node_System(2) -->
<g id="node7" class="node">
<title>node_System(2)</title>
<g id="a_node7"><a xlink:title="bevy_ecs::schedule::executor::apply_system_buffers">
<polygon fill="#eff1f3" stroke="#eff1f3" points="1535,-2373 1374,-2373 1374,-2337 1535,-2337 1535,-2373"/>
<text text-anchor="middle" x="1454.5" y="-2351.3" font-family="Times,serif" font-size="14.00">apply_system_buffers</text>
</a>
</g>
</g>
<!-- set_marker_node_Set(5) -->
<!-- set_marker_node_Set(12) -->
<!-- set_marker_node_Set(5)&#45;&gt;set_marker_node_Set(12) -->
<g id="edge10" class="edge">
<title>set_marker_node_Set(5)&#45;&gt;set_marker_node_Set(12)</title>
<g id="a_edge10"><a xlink:title="PostUpdateFlush → Last">
<path fill="none" stroke="#58cd0c" stroke-width="2" d="M1937,-2433C1940.57,-2431.27 1944.01,-2429.1 1947.26,-2426.66"/>
<polygon fill="#58cd0c" stroke="#58cd0c" stroke-width="2" points="1949.5,-2429.36 1954.72,-2420.14 1944.89,-2424.08 1949.5,-2429.36"/>
</a>
</g>
</g>
<!-- node_System(3) -->
<g id="node9" class="node">
<title>node_System(3)</title>
<g id="a_node9"><a xlink:title="bevy_ecs::schedule::executor::apply_system_buffers">
<polygon fill="#eff1f3" stroke="#eff1f3" points="1929,-2424 1768,-2424 1768,-2388 1929,-2388 1929,-2424"/>
<text text-anchor="middle" x="1848.5" y="-2402.3" font-family="Times,serif" font-size="14.00">apply_system_buffers</text>
</a>
</g>
</g>
<!-- set_marker_node_Set(6) -->
<!-- node_System(4) -->
<g id="node11" class="node">
<title>node_System(4)</title>
<g id="a_node11"><a xlink:title="bevy_ecs::schedule::executor::apply_system_buffers">
<polygon fill="#eff1f3" stroke="#eff1f3" points="2190,-2373 2029,-2373 2029,-2337 2190,-2337 2190,-2373"/>
<text text-anchor="middle" x="2109.5" y="-2351.3" font-family="Times,serif" font-size="14.00">apply_system_buffers</text>
</a>
</g>
</g>
<!-- set_marker_node_Set(7) -->
<!-- set_marker_node_Set(7)&#45;&gt;set_marker_node_Set(2) -->
<g id="edge1" class="edge">
<title>set_marker_node_Set(7)&#45;&gt;set_marker_node_Set(2)</title>
<g id="a_edge1"><a xlink:title="First → FirstFlush">
<path fill="none" stroke="#a6f2d4" stroke-width="2" d="M444.18,-2423C464,-2425.92 483.98,-2428.76 503.38,-2431.34"/>
<polygon fill="#a6f2d4" stroke="#a6f2d4" stroke-width="2" points="502.63,-2434.77 513,-2432.61 503.54,-2427.83 502.63,-2434.77"/>
</a>
</g>
</g>
<!-- set_marker_node_Set(58) -->
<!-- set_marker_node_Set(7)&#45;&gt;set_marker_node_Set(58) -->
<g id="edge13" class="edge">
<title>set_marker_node_Set(7)&#45;&gt;set_marker_node_Set(58)</title>
<g id="a_edge13"><a xlink:title="First → LoadAssets">
<path fill="none" stroke="#0c9acf" stroke-width="2" d="M496,-2383C498.95,-2382.39 522.93,-2373.05 547.49,-2363.34"/>
<polygon fill="#0c9acf" stroke="#0c9acf" stroke-width="2" points="548.68,-2366.63 556.69,-2359.69 546.1,-2360.12 548.68,-2366.63"/>
</a>
</g>
</g>
<!-- node_System(5) -->
<g id="node13" class="node">
<title>node_System(5)</title>
<g id="a_node13"><a xlink:title="bevy_ecs::event::Events&lt;bevy_app::app::AppExit&gt;::update_system">
<polygon fill="#eff1f3" stroke="#eff1f3" points="367,-2374 137,-2374 137,-2338 367,-2338 367,-2374"/>
<text text-anchor="middle" x="252" y="-2352.3" font-family="Times,serif" font-size="14.00">Events&lt;AppExit&gt;update_system</text>
</a>
</g>
</g>
<!-- node_System(13) -->
<g id="node14" class="node">
<title>node_System(13)</title>
<g id="a_node14"><a xlink:title="bevy_ecs::event::Events&lt;bevy_hierarchy::events::HierarchyEvent&gt;::update_system">
<polygon fill="#eff1f3" stroke="#eff1f3" points="393.5,-2320 110.5,-2320 110.5,-2284 393.5,-2284 393.5,-2320"/>
<text text-anchor="middle" x="252" y="-2298.3" font-family="Times,serif" font-size="14.00">Events&lt;HierarchyEvent&gt;update_system</text>
</a>
</g>
</g>
<!-- node_System(14) -->
<g id="node15" class="node">
<title>node_System(14)</title>
<g id="a_node15"><a xlink:title="bevy_ecs::event::Events&lt;bevy_input::keyboard::KeyboardInput&gt;::update_system">
<polygon fill="#eff1f3" stroke="#eff1f3" points="391,-2266 113,-2266 113,-2230 391,-2230 391,-2266"/>
<text text-anchor="middle" x="252" y="-2244.3" font-family="Times,serif" font-size="14.00">Events&lt;KeyboardInput&gt;update_system</text>
</a>
</g>
</g>
<!-- node_System(16) -->
<g id="node16" class="node">
<title>node_System(16)</title>
<g id="a_node16"><a xlink:title="bevy_ecs::event::Events&lt;bevy_input::mouse::MouseButtonInput&gt;::update_system">
<polygon fill="#eff1f3" stroke="#eff1f3" points="403.5,-2212 100.5,-2212 100.5,-2176 403.5,-2176 403.5,-2212"/>
<text text-anchor="middle" x="252" y="-2190.3" font-family="Times,serif" font-size="14.00">Events&lt;MouseButtonInput&gt;update_system</text>
</a>
</g>
</g>
<!-- node_System(17) -->
<g id="node17" class="node">
<title>node_System(17)</title>
<g id="a_node17"><a xlink:title="bevy_ecs::event::Events&lt;bevy_input::mouse::MouseMotion&gt;::update_system">
<polygon fill="#eff1f3" stroke="#eff1f3" points="386.5,-2158 117.5,-2158 117.5,-2122 386.5,-2122 386.5,-2158"/>
<text text-anchor="middle" x="252" y="-2136.3" font-family="Times,serif" font-size="14.00">Events&lt;MouseMotion&gt;update_system</text>
</a>
</g>
</g>
<!-- node_System(18) -->
<g id="node18" class="node">
<title>node_System(18)</title>
<g id="a_node18"><a xlink:title="bevy_ecs::event::Events&lt;bevy_input::mouse::MouseWheel&gt;::update_system">
<polygon fill="#eff1f3" stroke="#eff1f3" points="383.5,-2104 120.5,-2104 120.5,-2068 383.5,-2068 383.5,-2104"/>
<text text-anchor="middle" x="252" y="-2082.3" font-family="Times,serif" font-size="14.00">Events&lt;MouseWheel&gt;update_system</text>
</a>
</g>
</g>
<!-- node_System(20) -->
<g id="node19" class="node">
<title>node_System(20)</title>
<g id="a_node19"><a xlink:title="bevy_ecs::event::Events&lt;bevy_input::gamepad::GamepadConnectionEvent&gt;::update_system">
<polygon fill="#eff1f3" stroke="#eff1f3" points="429.5,-2050 74.5,-2050 74.5,-2014 429.5,-2014 429.5,-2050"/>
<text text-anchor="middle" x="252" y="-2028.3" font-family="Times,serif" font-size="14.00">Events&lt;GamepadConnectionEvent&gt;update_system</text>
</a>
</g>
</g>
<!-- node_System(21) -->
<g id="node20" class="node">
<title>node_System(21)</title>
<g id="a_node20"><a xlink:title="bevy_ecs::event::Events&lt;bevy_input::gamepad::GamepadButtonChangedEvent&gt;::update_system">
<polygon fill="#eff1f3" stroke="#eff1f3" points="443.5,-1996 60.5,-1996 60.5,-1960 443.5,-1960 443.5,-1996"/>
<text text-anchor="middle" x="252" y="-1974.3" font-family="Times,serif" font-size="14.00">Events&lt;GamepadButtonChangedEvent&gt;update_system</text>
</a>
</g>
</g>
<!-- node_System(22) -->
<g id="node21" class="node">
<title>node_System(22)</title>
<g id="a_node21"><a xlink:title="bevy_ecs::event::Events&lt;bevy_input::gamepad::GamepadAxisChangedEvent&gt;::update_system">
<polygon fill="#eff1f3" stroke="#eff1f3" points="434.5,-1942 69.5,-1942 69.5,-1906 434.5,-1906 434.5,-1942"/>
<text text-anchor="middle" x="252" y="-1920.3" font-family="Times,serif" font-size="14.00">Events&lt;GamepadAxisChangedEvent&gt;update_system</text>
</a>
</g>
</g>
<!-- node_System(23) -->
<g id="node22" class="node">
<title>node_System(23)</title>
<g id="a_node22"><a xlink:title="bevy_ecs::event::Events&lt;bevy_input::gamepad::GamepadEvent&gt;::update_system">
<polygon fill="#eff1f3" stroke="#eff1f3" points="391.5,-1888 112.5,-1888 112.5,-1852 391.5,-1852 391.5,-1888"/>
<text text-anchor="middle" x="252" y="-1866.3" font-family="Times,serif" font-size="14.00">Events&lt;GamepadEvent&gt;update_system</text>
</a>
</g>
</g>
<!-- node_System(28) -->
<g id="node23" class="node">
<title>node_System(28)</title>
<g id="a_node23"><a xlink:title="bevy_ecs::event::Events&lt;bevy_input::touch::TouchInput&gt;::update_system">
<polygon fill="#eff1f3" stroke="#eff1f3" points="379,-1834 125,-1834 125,-1798 379,-1798 379,-1834"/>
<text text-anchor="middle" x="252" y="-1812.3" font-family="Times,serif" font-size="14.00">Events&lt;TouchInput&gt;update_system</text>
</a>
</g>
</g>
<!-- node_System(30) -->
<g id="node24" class="node">
<title>node_System(30)</title>
<g id="a_node24"><a xlink:title="bevy_ecs::event::Events&lt;bevy_window::event::WindowResized&gt;::update_system">
<polygon fill="#eff1f3" stroke="#eff1f3" points="394,-1780 110,-1780 110,-1744 394,-1744 394,-1780"/>
<text text-anchor="middle" x="252" y="-1758.3" font-family="Times,serif" font-size="14.00">Events&lt;WindowResized&gt;update_system</text>
</a>
</g>
</g>
<!-- node_System(31) -->
<g id="node25" class="node">
<title>node_System(31)</title>
<g id="a_node25"><a xlink:title="bevy_ecs::event::Events&lt;bevy_window::event::WindowCreated&gt;::update_system">
<polygon fill="#eff1f3" stroke="#eff1f3" points="394.5,-1726 109.5,-1726 109.5,-1690 394.5,-1690 394.5,-1726"/>
<text text-anchor="middle" x="252" y="-1704.3" font-family="Times,serif" font-size="14.00">Events&lt;WindowCreated&gt;update_system</text>
</a>
</g>
</g>
<!-- node_System(32) -->
<g id="node26" class="node">
<title>node_System(32)</title>
<g id="a_node26"><a xlink:title="bevy_ecs::event::Events&lt;bevy_window::event::WindowClosed&gt;::update_system">
<polygon fill="#eff1f3" stroke="#eff1f3" points="390,-1672 114,-1672 114,-1636 390,-1636 390,-1672"/>
<text text-anchor="middle" x="252" y="-1650.3" font-family="Times,serif" font-size="14.00">Events&lt;WindowClosed&gt;update_system</text>
</a>
</g>
</g>
<!-- node_System(33) -->
<g id="node27" class="node">
<title>node_System(33)</title>
<g id="a_node27"><a xlink:title="bevy_ecs::event::Events&lt;bevy_window::event::WindowCloseRequested&gt;::update_system">
<polygon fill="#eff1f3" stroke="#eff1f3" points="420,-1618 84,-1618 84,-1582 420,-1582 420,-1618"/>
<text text-anchor="middle" x="252" y="-1596.3" font-family="Times,serif" font-size="14.00">Events&lt;WindowCloseRequested&gt;update_system</text>
</a>
</g>
</g>
<!-- node_System(34) -->
<g id="node28" class="node">
<title>node_System(34)</title>
<g id="a_node28"><a xlink:title="bevy_ecs::event::Events&lt;bevy_window::event::RequestRedraw&gt;::update_system">
<polygon fill="#eff1f3" stroke="#eff1f3" points="392,-1564 112,-1564 112,-1528 392,-1528 392,-1564"/>
<text text-anchor="middle" x="252" y="-1542.3" font-family="Times,serif" font-size="14.00">Events&lt;RequestRedraw&gt;update_system</text>
</a>
</g>
</g>
<!-- node_System(35) -->
<g id="node29" class="node">
<title>node_System(35)</title>
<g id="a_node29"><a xlink:title="bevy_ecs::event::Events&lt;bevy_window::event::CursorMoved&gt;::update_system">
<polygon fill="#eff1f3" stroke="#eff1f3" points="385.5,-1510 118.5,-1510 118.5,-1474 385.5,-1474 385.5,-1510"/>
<text text-anchor="middle" x="252" y="-1488.3" font-family="Times,serif" font-size="14.00">Events&lt;CursorMoved&gt;update_system</text>
</a>
</g>
</g>
<!-- node_System(36) -->
<g id="node30" class="node">
<title>node_System(36)</title>
<g id="a_node30"><a xlink:title="bevy_ecs::event::Events&lt;bevy_window::event::CursorEntered&gt;::update_system">
<polygon fill="#eff1f3" stroke="#eff1f3" points="389.5,-1456 114.5,-1456 114.5,-1420 389.5,-1420 389.5,-1456"/>
<text text-anchor="middle" x="252" y="-1434.3" font-family="Times,serif" font-size="14.00">Events&lt;CursorEntered&gt;update_system</text>
</a>
</g>
</g>
<!-- node_System(37) -->
<g id="node31" class="node">
<title>node_System(37)</title>
<g id="a_node31"><a xlink:title="bevy_ecs::event::Events&lt;bevy_window::event::CursorLeft&gt;::update_system">
<polygon fill="#eff1f3" stroke="#eff1f3" points="376,-1402 128,-1402 128,-1366 376,-1366 376,-1402"/>
<text text-anchor="middle" x="252" y="-1380.3" font-family="Times,serif" font-size="14.00">Events&lt;CursorLeft&gt;update_system</text>
</a>
</g>
</g>
<!-- node_System(38) -->
<g id="node32" class="node">
<title>node_System(38)</title>
<g id="a_node32"><a xlink:title="bevy_ecs::event::Events&lt;bevy_window::event::ReceivedCharacter&gt;::update_system">
<polygon fill="#eff1f3" stroke="#eff1f3" points="403,-1348 101,-1348 101,-1312 403,-1312 403,-1348"/>
<text text-anchor="middle" x="252" y="-1326.3" font-family="Times,serif" font-size="14.00">Events&lt;ReceivedCharacter&gt;update_system</text>
</a>
</g>
</g>
<!-- node_System(39) -->
<g id="node33" class="node">
<title>node_System(39)</title>
<g id="a_node33"><a xlink:title="bevy_ecs::event::Events&lt;bevy_window::event::Ime&gt;::update_system">
<polygon fill="#eff1f3" stroke="#eff1f3" points="353.5,-1294 150.5,-1294 150.5,-1258 353.5,-1258 353.5,-1294"/>
<text text-anchor="middle" x="252" y="-1272.3" font-family="Times,serif" font-size="14.00">Events&lt;Ime&gt;update_system</text>
</a>
</g>
</g>
<!-- node_System(40) -->
<g id="node34" class="node">
<title>node_System(40)</title>
<g id="a_node34"><a xlink:title="bevy_ecs::event::Events&lt;bevy_window::event::WindowFocused&gt;::update_system">
<polygon fill="#eff1f3" stroke="#eff1f3" points="395.5,-1240 108.5,-1240 108.5,-1204 395.5,-1204 395.5,-1240"/>
<text text-anchor="middle" x="252" y="-1218.3" font-family="Times,serif" font-size="14.00">Events&lt;WindowFocused&gt;update_system</text>
</a>
</g>
</g>
<!-- node_System(41) -->
<g id="node35" class="node">
<title>node_System(41)</title>
<g id="a_node35"><a xlink:title="bevy_ecs::event::Events&lt;bevy_window::event::WindowScaleFactorChanged&gt;::update_system">
<polygon fill="#eff1f3" stroke="#eff1f3" points="436,-1186 68,-1186 68,-1150 436,-1150 436,-1186"/>
<text text-anchor="middle" x="252" y="-1164.3" font-family="Times,serif" font-size="14.00">Events&lt;WindowScaleFactorChanged&gt;update_system</text>
</a>
</g>
</g>
<!-- node_System(42) -->
<g id="node36" class="node">
<title>node_System(42)</title>
<g id="a_node36"><a xlink:title="bevy_ecs::event::Events&lt;bevy_window::event::WindowBackendScaleFactorChanged&gt;::update_system">
<polygon fill="#eff1f3" stroke="#eff1f3" points="464.5,-1132 39.5,-1132 39.5,-1096 464.5,-1096 464.5,-1132"/>
<text text-anchor="middle" x="252" y="-1110.3" font-family="Times,serif" font-size="14.00">Events&lt;WindowBackendScaleFactorChanged&gt;update_system</text>
</a>
</g>
</g>
<!-- node_System(43) -->
<g id="node37" class="node">
<title>node_System(43)</title>
<g id="a_node37"><a xlink:title="bevy_ecs::event::Events&lt;bevy_window::event::FileDragAndDrop&gt;::update_system">
<polygon fill="#eff1f3" stroke="#eff1f3" points="399,-1078 105,-1078 105,-1042 399,-1042 399,-1078"/>
<text text-anchor="middle" x="252" y="-1056.3" font-family="Times,serif" font-size="14.00">Events&lt;FileDragAndDrop&gt;update_system</text>
</a>
</g>
</g>
<!-- node_System(44) -->
<g id="node38" class="node">
<title>node_System(44)</title>
<g id="a_node38"><a xlink:title="bevy_ecs::event::Events&lt;bevy_window::event::WindowMoved&gt;::update_system">
<polygon fill="#eff1f3" stroke="#eff1f3" points="391.5,-1024 112.5,-1024 112.5,-988 391.5,-988 391.5,-1024"/>
<text text-anchor="middle" x="252" y="-1002.3" font-family="Times,serif" font-size="14.00">Events&lt;WindowMoved&gt;update_system</text>
</a>
</g>
</g>
<!-- node_System(51) -->
<g id="node39" class="node">
<title>node_System(51)</title>
<g id="a_node39"><a xlink:title="bevy_ecs::event::Events&lt;bevy_asset::assets::AssetEvent&lt;bevy_scene::dynamic_scene::DynamicScene&gt;&gt;::update_system">
<polygon fill="#eff1f3" stroke="#eff1f3" points="434,-970 70,-970 70,-934 434,-934 434,-970"/>
<text text-anchor="middle" x="252" y="-948.3" font-family="Times,serif" font-size="14.00">Events&lt;AssetEvent&lt;DynamicScene&gt;&gt;update_system</text>
</a>
</g>
</g>
<!-- node_System(54) -->
<g id="node40" class="node">
<title>node_System(54)</title>
<g id="a_node40"><a xlink:title="bevy_ecs::event::Events&lt;bevy_asset::assets::AssetEvent&lt;bevy_scene::scene::Scene&gt;&gt;::update_system">
<polygon fill="#eff1f3" stroke="#eff1f3" points="403.5,-916 100.5,-916 100.5,-880 403.5,-880 403.5,-916"/>
<text text-anchor="middle" x="252" y="-894.3" font-family="Times,serif" font-size="14.00">Events&lt;AssetEvent&lt;Scene&gt;&gt;update_system</text>
</a>
</g>
</g>
<!-- node_System(61) -->
<g id="node41" class="node">
<title>node_System(61)</title>
<g id="a_node41"><a xlink:title="bevy_ecs::event::Events&lt;bevy_asset::assets::AssetEvent&lt;bevy_render::render_resource::shader::Shader&gt;&gt;::update_system">
<polygon fill="#eff1f3" stroke="#eff1f3" points="408,-862 96,-862 96,-826 408,-826 408,-862"/>
<text text-anchor="middle" x="252" y="-840.3" font-family="Times,serif" font-size="14.00">Events&lt;AssetEvent&lt;Shader&gt;&gt;update_system</text>
</a>
</g>
</g>
<!-- node_System(75) -->
<g id="node42" class="node">
<title>node_System(75)</title>
<g id="a_node42"><a xlink:title="bevy_ecs::event::Events&lt;bevy_asset::assets::AssetEvent&lt;bevy_render::mesh::mesh::Mesh&gt;&gt;::update_system">
<polygon fill="#eff1f3" stroke="#eff1f3" points="402.5,-808 101.5,-808 101.5,-772 402.5,-772 402.5,-808"/>
<text text-anchor="middle" x="252" y="-786.3" font-family="Times,serif" font-size="14.00">Events&lt;AssetEvent&lt;Mesh&gt;&gt;update_system</text>
</a>
</g>
</g>
<!-- node_System(78) -->
<g id="node43" class="node">
<title>node_System(78)</title>
<g id="a_node43"><a xlink:title="bevy_ecs::event::Events&lt;bevy_asset::assets::AssetEvent&lt;bevy_render::mesh::mesh::skinning::SkinnedMeshInverseBindposes&gt;&gt;::update_system">
<polygon fill="#eff1f3" stroke="#eff1f3" points="488,-754 16,-754 16,-718 488,-718 488,-754"/>
<text text-anchor="middle" x="252" y="-732.3" font-family="Times,serif" font-size="14.00">Events&lt;AssetEvent&lt;SkinnedMeshInverseBindposes&gt;&gt;update_system</text>
</a>
</g>
</g>
<!-- node_System(81) -->
<g id="node44" class="node">
<title>node_System(81)</title>
<g id="a_node44"><a xlink:title="bevy_ecs::event::Events&lt;bevy_asset::assets::AssetEvent&lt;bevy_render::texture::image::Image&gt;&gt;::update_system">
<polygon fill="#eff1f3" stroke="#eff1f3" points="405.5,-700 98.5,-700 98.5,-664 405.5,-664 405.5,-700"/>
<text text-anchor="middle" x="252" y="-678.3" font-family="Times,serif" font-size="14.00">Events&lt;AssetEvent&lt;Image&gt;&gt;update_system</text>
</a>
</g>
</g>
<!-- node_System(84) -->
<g id="node45" class="node">
<title>node_System(84)</title>
<g id="a_node45"><a xlink:title="bevy_ecs::event::Events&lt;bevy_asset::assets::AssetEvent&lt;bevy_sprite::texture_atlas::TextureAtlas&gt;&gt;::update_system">
<polygon fill="#eff1f3" stroke="#eff1f3" points="427.5,-646 76.5,-646 76.5,-610 427.5,-610 427.5,-646"/>
<text text-anchor="middle" x="252" y="-624.3" font-family="Times,serif" font-size="14.00">Events&lt;AssetEvent&lt;TextureAtlas&gt;&gt;update_system</text>
</a>
</g>
</g>
<!-- node_System(87) -->
<g id="node46" class="node">
<title>node_System(87)</title>
<g id="a_node46"><a xlink:title="bevy_ecs::event::Events&lt;bevy_asset::assets::AssetEvent&lt;bevy_sprite::mesh2d::color_material::ColorMaterial&gt;&gt;::update_system">
<polygon fill="#eff1f3" stroke="#eff1f3" points="431.5,-592 72.5,-592 72.5,-556 431.5,-556 431.5,-592"/>
<text text-anchor="middle" x="252" y="-570.3" font-family="Times,serif" font-size="14.00">Events&lt;AssetEvent&lt;ColorMaterial&gt;&gt;update_system</text>
</a>
</g>
</g>
<!-- node_System(90) -->
<g id="node47" class="node">
<title>node_System(90)</title>
<g id="a_node47"><a xlink:title="bevy_ecs::event::Events&lt;bevy_asset::assets::AssetEvent&lt;bevy_text::font::Font&gt;&gt;::update_system">
<polygon fill="#eff1f3" stroke="#eff1f3" points="399.5,-538 104.5,-538 104.5,-502 399.5,-502 399.5,-538"/>
<text text-anchor="middle" x="252" y="-516.3" font-family="Times,serif" font-size="14.00">Events&lt;AssetEvent&lt;Font&gt;&gt;update_system</text>
</a>
</g>
</g>
<!-- node_System(93) -->
<g id="node48" class="node">
<title>node_System(93)</title>
<g id="a_node48"><a xlink:title="bevy_ecs::event::Events&lt;bevy_asset::assets::AssetEvent&lt;bevy_text::font_atlas_set::FontAtlasSet&gt;&gt;::update_system">
<polygon fill="#eff1f3" stroke="#eff1f3" points="426.5,-484 77.5,-484 77.5,-448 426.5,-448 426.5,-484"/>
<text text-anchor="middle" x="252" y="-462.3" font-family="Times,serif" font-size="14.00">Events&lt;AssetEvent&lt;FontAtlasSet&gt;&gt;update_system</text>
</a>
</g>
</g>
<!-- node_System(103) -->
<g id="node49" class="node">
<title>node_System(103)</title>
<g id="a_node49"><a xlink:title="bevy_ecs::event::Events&lt;bevy_asset::assets::AssetEvent&lt;bevy_pbr::pbr_material::StandardMaterial&gt;&gt;::update_system">
<polygon fill="#eff1f3" stroke="#eff1f3" points="444.5,-430 59.5,-430 59.5,-394 444.5,-394 444.5,-430"/>
<text text-anchor="middle" x="252" y="-408.3" font-family="Times,serif" font-size="14.00">Events&lt;AssetEvent&lt;StandardMaterial&gt;&gt;update_system</text>
</a>
</g>
</g>
<!-- node_System(114) -->
<g id="node50" class="node">
<title>node_System(114)</title>
<g id="a_node50"><a xlink:title="bevy_ecs::event::Events&lt;bevy_asset::assets::AssetEvent&lt;bevy_gltf::Gltf&gt;&gt;::update_system">
<polygon fill="#eff1f3" stroke="#eff1f3" points="397,-376 107,-376 107,-340 397,-340 397,-376"/>
<text text-anchor="middle" x="252" y="-354.3" font-family="Times,serif" font-size="14.00">Events&lt;AssetEvent&lt;Gltf&gt;&gt;update_system</text>
</a>
</g>
</g>
<!-- node_System(117) -->
<g id="node51" class="node">
<title>node_System(117)</title>
<g id="a_node51"><a xlink:title="bevy_ecs::event::Events&lt;bevy_asset::assets::AssetEvent&lt;bevy_gltf::GltfNode&gt;&gt;::update_system">
<polygon fill="#eff1f3" stroke="#eff1f3" points="414,-322 90,-322 90,-286 414,-286 414,-322"/>
<text text-anchor="middle" x="252" y="-300.3" font-family="Times,serif" font-size="14.00">Events&lt;AssetEvent&lt;GltfNode&gt;&gt;update_system</text>
</a>
</g>
</g>
<!-- node_System(120) -->
<g id="node52" class="node">
<title>node_System(120)</title>
<g id="a_node52"><a xlink:title="bevy_ecs::event::Events&lt;bevy_asset::assets::AssetEvent&lt;bevy_gltf::GltfPrimitive&gt;&gt;::update_system">
<polygon fill="#eff1f3" stroke="#eff1f3" points="428.5,-268 75.5,-268 75.5,-232 428.5,-232 428.5,-268"/>
<text text-anchor="middle" x="252" y="-246.3" font-family="Times,serif" font-size="14.00">Events&lt;AssetEvent&lt;GltfPrimitive&gt;&gt;update_system</text>
</a>
</g>
</g>
<!-- node_System(123) -->
<g id="node53" class="node">
<title>node_System(123)</title>
<g id="a_node53"><a xlink:title="bevy_ecs::event::Events&lt;bevy_asset::assets::AssetEvent&lt;bevy_gltf::GltfMesh&gt;&gt;::update_system">
<polygon fill="#eff1f3" stroke="#eff1f3" points="415,-214 89,-214 89,-178 415,-178 415,-214"/>
<text text-anchor="middle" x="252" y="-192.3" font-family="Times,serif" font-size="14.00">Events&lt;AssetEvent&lt;GltfMesh&gt;&gt;update_system</text>
</a>
</g>
</g>
<!-- node_System(126) -->
<g id="node54" class="node">
<title>node_System(126)</title>
<g id="a_node54"><a xlink:title="bevy_ecs::event::Events&lt;bevy_asset::assets::AssetEvent&lt;bevy_audio::audio_source::AudioSource&gt;&gt;::update_system">
<polygon fill="#eff1f3" stroke="#eff1f3" points="427,-160 77,-160 77,-124 427,-124 427,-160"/>
<text text-anchor="middle" x="252" y="-138.3" font-family="Times,serif" font-size="14.00">Events&lt;AssetEvent&lt;AudioSource&gt;&gt;update_system</text>
</a>
</g>
</g>
<!-- node_System(129) -->
<g id="node55" class="node">
<title>node_System(129)</title>
<g id="a_node55"><a xlink:title="bevy_ecs::event::Events&lt;bevy_asset::assets::AssetEvent&lt;bevy_audio::audio_output::AudioSink&gt;&gt;::update_system">
<polygon fill="#eff1f3" stroke="#eff1f3" points="419,-106 85,-106 85,-70 419,-70 419,-106"/>
<text text-anchor="middle" x="252" y="-84.3" font-family="Times,serif" font-size="14.00">Events&lt;AssetEvent&lt;AudioSink&gt;&gt;update_system</text>
</a>
</g>
</g>
<!-- node_System(134) -->
<g id="node56" class="node">
<title>node_System(134)</title>
<g id="a_node56"><a xlink:title="bevy_ecs::event::Events&lt;bevy_asset::assets::AssetEvent&lt;bevy_animation::AnimationClip&gt;&gt;::update_system">
<polygon fill="#eff1f3" stroke="#eff1f3" points="433,-52 71,-52 71,-16 433,-16 433,-52"/>
<text text-anchor="middle" x="252" y="-30.3" font-family="Times,serif" font-size="14.00">Events&lt;AssetEvent&lt;AnimationClip&gt;&gt;update_system</text>
</a>
</g>
</g>
<!-- set_marker_node_Set(8)&#45;&gt;set_marker_node_Set(3) -->
<g id="edge3" class="edge">
<title>set_marker_node_Set(8)&#45;&gt;set_marker_node_Set(3)</title>
<g id="a_edge3"><a xlink:title="PreUpdate → PreUpdateFlush">
<path fill="none" stroke="#251dcc" stroke-width="2" d="M800,-2391C802.33,-2391 804.7,-2391 807.12,-2391"/>
<polygon fill="#251dcc" stroke="#251dcc" stroke-width="2" points="806.97,-2394.5 816.97,-2391 806.97,-2387.5 806.97,-2394.5"/>
</a>
</g>
</g>
<!-- set_marker_node_Set(10) -->
<!-- set_marker_node_Set(9)&#45;&gt;set_marker_node_Set(10) -->
<g id="edge5" class="edge">
<title>set_marker_node_Set(9)&#45;&gt;set_marker_node_Set(10)</title>
<g id="a_edge5"><a xlink:title="StateTransitions → FixedUpdate">
<path fill="none" stroke="#1dcd59" stroke-width="2" d="M1141,-2391C1143.39,-2391 1145.79,-2391 1148.19,-2391"/>
<polygon fill="#1dcd59" stroke="#1dcd59" stroke-width="2" points="1147.98,-2394.5 1157.98,-2391 1147.98,-2387.5 1147.98,-2394.5"/>
</a>
</g>
</g>
<!-- set_marker_node_Set(10)&#45;&gt;set_marker_node_Set(0) -->
<g id="edge6" class="edge">
<title>set_marker_node_Set(10)&#45;&gt;set_marker_node_Set(0)</title>
<g id="a_edge6"><a xlink:title="FixedUpdate → Update">
<path fill="none" stroke="#1dc4cc" stroke-width="2" d="M1261,-2391C1263.37,-2391 1265.75,-2391 1268.11,-2391"/>
<polygon fill="#1dc4cc" stroke="#1dc4cc" stroke-width="2" points="1267.98,-2394.5 1277.98,-2391 1267.98,-2387.5 1267.98,-2394.5"/>
</a>
</g>
</g>
<!-- set_marker_node_Set(11)&#45;&gt;set_marker_node_Set(5) -->
<g id="edge9" class="edge">
<title>set_marker_node_Set(11)&#45;&gt;set_marker_node_Set(5)</title>
<g id="a_edge9"><a xlink:title="PostUpdate → PostUpdateFlush">
<path fill="none" stroke="#29e000" stroke-width="2" d="M1748,-2397C1756.98,-2403.91 1753.37,-2413.02 1754.03,-2421.46"/>
<polygon fill="#29e000" stroke="#29e000" stroke-width="2" points="1750.9,-2423.04 1758.61,-2430.31 1757.12,-2419.82 1750.9,-2423.04"/>
</a>
</g>
</g>
<!-- set_marker_node_Set(59) -->
<!-- set_marker_node_Set(11)&#45;&gt;set_marker_node_Set(59) -->
<g id="edge14" class="edge">
<title>set_marker_node_Set(11)&#45;&gt;set_marker_node_Set(59)</title>
<g id="a_edge14"><a xlink:title="PostUpdate → AssetEvents">
<path fill="none" stroke="#a6f2d4" stroke-width="2" d="M1683.7,-2383C1711.76,-2375.81 1753.75,-2365.04 1788.19,-2356.21"/>
<polygon fill="#a6f2d4" stroke="#a6f2d4" stroke-width="2" points="1788.75,-2359.68 1797.57,-2353.8 1787.01,-2352.9 1788.75,-2359.68"/>
</a>
</g>
</g>
<!-- set_marker_node_Set(81) -->
<!-- node_System(66) -->
<g id="node62" class="node">
<title>node_System(66)</title>
<g id="a_node62"><a xlink:title="bevy_ecs::schedule::executor::apply_system_buffers">
<polygon fill="#eff1f3" stroke="#eff1f3" points="1732,-2546 1571,-2546 1571,-2510 1732,-2510 1732,-2546"/>
<text text-anchor="middle" x="1651.5" y="-2524.3" font-family="Times,serif" font-size="14.00">apply_system_buffers</text>
</a>
</g>
</g>
<!-- set_marker_node_Set(128) -->
<!-- node_System(105) -->
<g id="node64" class="node">
<title>node_System(105)</title>
<g id="a_node64"><a xlink:title="bevy_ecs::schedule::executor::apply_system_buffers">
<polygon fill="#eff1f3" stroke="#eff1f3" points="1732,-2445 1571,-2445 1571,-2409 1732,-2409 1732,-2445"/>
<text text-anchor="middle" x="1651.5" y="-2423.3" font-family="Times,serif" font-size="14.00">apply_system_buffers</text>
</a>
</g>
</g>
<!-- set_marker_node_Set(12)&#45;&gt;set_marker_node_Set(6) -->
<g id="edge11" class="edge">
<title>set_marker_node_Set(12)&#45;&gt;set_marker_node_Set(6)</title>
<g id="a_edge11"><a xlink:title="Last → LastFlush">
<path fill="none" stroke="#810ccd" stroke-width="2" d="M2001,-2391C2003.31,-2391 2005.76,-2391 2008.33,-2391"/>
<polygon fill="#810ccd" stroke="#810ccd" stroke-width="2" points="2007.97,-2394.5 2017.97,-2391 2007.97,-2387.5 2007.97,-2394.5"/>
</a>
</g>
</g>
<!-- set_marker_node_Set(58)&#45;&gt;set_marker_node_Set(8) -->
<g id="edge12" class="edge">
<title>set_marker_node_Set(58)&#45;&gt;set_marker_node_Set(8)</title>
<g id="a_edge12"><a xlink:title="LoadAssets → PreUpdate">
<path fill="none" stroke="#cf410c" stroke-width="2" d="M650.5,-2356.05C672.34,-2363.36 698.25,-2372.02 718.8,-2378.89"/>
<polygon fill="#cf410c" stroke="#cf410c" stroke-width="2" points="717.63,-2382.19 728.22,-2382.04 719.85,-2375.55 717.63,-2382.19"/>
</a>
</g>
</g>
<!-- set_marker_node_Set(59)&#45;&gt;set_marker_node_Set(12) -->
<g id="edge15" class="edge">
<title>set_marker_node_Set(59)&#45;&gt;set_marker_node_Set(12)</title>
<g id="a_edge15"><a xlink:title="AssetEvents → Last">
<path fill="none" stroke="#c4cc1d" stroke-width="2" d="M1896.5,-2359.29C1912.84,-2365.65 1930.79,-2372.63 1945.68,-2378.42"/>
<polygon fill="#c4cc1d" stroke="#c4cc1d" stroke-width="2" points="1944.04,-2381.54 1954.63,-2381.91 1946.58,-2375.02 1944.04,-2381.54"/>
</a>
</g>
</g>
</g>
</svg>
