<?xml version="1.0" encoding="UTF-8" standalone="no"?>
<!DOCTYPE svg PUBLIC "-//W3C//DTD SVG 1.1//EN"
 "http://www.w3.org/Graphics/SVG/1.1/DTD/svg11.dtd">
<!-- Generated by graphviz version 7.1.0 (0)
 -->
<!-- Title: schedule Pages: 1 -->
<svg width="1413pt" height="249pt"
 viewBox="0.00 0.00 1413.00 249.00" xmlns="http://www.w3.org/2000/svg" xmlns:xlink="http://www.w3.org/1999/xlink">
<g id="graph0" class="graph" transform="scale(1 1) rotate(0) translate(4 245)">
<title>schedule</title>
<polygon fill="#0d1117" stroke="none" points="-4,4 -4,-245 1409,-245 1409,4 -4,4"/>
<g id="clust1" class="cluster">
<title>clusternode_Set(0)</title>
<polygon fill="#6f90ad" stroke="black" points="691,-37 691,-76 756,-76 756,-37 691,-37"/>
<text text-anchor="middle" x="723.5" y="-60.8" font-family="Helvetica,sans-Serif" font-size="14.00">Update</text>
</g>
<g id="clust2" class="cluster">
<title>clusternode_Set(2)</title>
<polygon fill="#6f90ad" stroke="black" points="70,-55 70,-94 152,-94 152,-55 70,-55"/>
<text text-anchor="middle" x="111" y="-78.8" font-family="Helvetica,sans-Serif" font-size="14.00">FirstFlush</text>
</g>
<g id="clust3" class="cluster">
<title>clusternode_Set(3)</title>
<polygon fill="#6f90ad" stroke="black" points="284,-37 284,-76 407,-76 407,-37 284,-37"/>
<text text-anchor="middle" x="345.5" y="-60.8" font-family="Helvetica,sans-Serif" font-size="14.00">PreUpdateFlush</text>
</g>
<g id="clust4" class="cluster">
<title>clusternode_Set(4)</title>
<polygon fill="#6f90ad" stroke="black" points="776,-37 776,-76 877,-76 877,-37 776,-37"/>
<text text-anchor="middle" x="826.5" y="-60.8" font-family="Helvetica,sans-Serif" font-size="14.00">UpdateFlush</text>
</g>
<g id="clust5" class="cluster">
<title>clusternode_Set(5)</title>
<polygon fill="#6f90ad" stroke="black" points="1112,-66 1112,-105 1241,-105 1241,-66 1112,-66"/>
<text text-anchor="middle" x="1176.5" y="-89.8" font-family="Helvetica,sans-Serif" font-size="14.00">PostUpdateFlush</text>
</g>
<g id="clust6" class="cluster">
<title>clusternode_Set(6)</title>
<polygon fill="#6f90ad" stroke="black" points="1325,-31 1325,-70 1405,-70 1405,-31 1325,-31"/>
<text text-anchor="middle" x="1365" y="-54.8" font-family="Helvetica,sans-Serif" font-size="14.00">LastFlush</text>
</g>
<g id="clust7" class="cluster">
<title>clusternode_Set(7)</title>
<polygon fill="#6f90ad" stroke="black" points="0,-31 0,-70 46,-70 46,-31 0,-31"/>
<text text-anchor="middle" x="23" y="-54.8" font-family="Helvetica,sans-Serif" font-size="14.00">First</text>
</g>
<g id="clust8" class="cluster">
<title>clusternode_Set(8)</title>
<polygon fill="#6f90ad" stroke="black" points="177,-37 177,-76 264,-76 264,-37 177,-37"/>
<text text-anchor="middle" x="220.5" y="-60.8" font-family="Helvetica,sans-Serif" font-size="14.00">PreUpdate</text>
</g>
<g id="clust9" class="cluster">
<title>clusternode_Set(9)</title>
<polygon fill="#6f90ad" stroke="black" points="427,-37 427,-76 551,-76 551,-37 427,-37"/>
<text text-anchor="middle" x="489" y="-60.8" font-family="Helvetica,sans-Serif" font-size="14.00">StateTransitions</text>
</g>
<g id="clust10" class="cluster">
<title>clusternode_Set(10)</title>
<polygon fill="#6f90ad" stroke="black" points="571,-37 571,-76 671,-76 671,-37 571,-37"/>
<text text-anchor="middle" x="621" y="-60.8" font-family="Helvetica,sans-Serif" font-size="14.00">FixedUpdate</text>
</g>
<g id="clust11" class="cluster">
<title>clusternode_Set(11)</title>
<polygon fill="#6f90ad" stroke="black" points="889,-37 889,-233 1100,-233 1100,-37 889,-37"/>
<text text-anchor="middle" x="994.5" y="-217.8" font-family="Helvetica,sans-Serif" font-size="14.00">PostUpdate</text>
</g>
<g id="clust12" class="cluster">
<title>clusternode_Set(20)</title>
<polygon fill="#6f90ad" stroke="black" points="897,-55 897,-202 1092,-202 1092,-55 897,-55"/>
<text text-anchor="middle" x="994.5" y="-186.8" font-family="Helvetica,sans-Serif" font-size="14.00">TransformPropagate</text>
</g>
<g id="clust13" class="cluster">
<title>clusternode_Set(12)</title>
<polygon fill="#6f90ad" stroke="black" points="1261,-31 1261,-70 1305,-70 1305,-31 1261,-31"/>
<text text-anchor="middle" x="1283" y="-54.8" font-family="Helvetica,sans-Serif" font-size="14.00">Last</text>
</g>
<g id="clust14" class="cluster">
<title>clusternode_Set(58)</title>
<polygon fill="#6f90ad" stroke="black" points="66,-8 66,-47 157,-47 157,-8 66,-8"/>
<text text-anchor="middle" x="111.5" y="-31.8" font-family="Helvetica,sans-Serif" font-size="14.00">LoadAssets</text>
</g>
<g id="clust15" class="cluster">
<title>clusternode_Set(59)</title>
<polygon fill="#6f90ad" stroke="black" points="1128,-19 1128,-58 1224,-58 1224,-19 1128,-19"/>
<text text-anchor="middle" x="1176" y="-42.8" font-family="Helvetica,sans-Serif" font-size="14.00">AssetEvents</text>
</g>
<!-- set_marker_node_Set(0) -->
<!-- set_marker_node_Set(4) -->
<!-- set_marker_node_Set(0)&#45;&gt;set_marker_node_Set(4) -->
<g id="edge7" class="edge">
<title>set_marker_node_Set(0)&#45;&gt;set_marker_node_Set(4)</title>
<path fill="none" stroke="white" d="M756,-45C758.81,-45 761.71,-45 764.65,-45"/>
<polygon fill="white" stroke="white" points="764.49,-48.5 774.49,-45 764.49,-41.5 764.49,-48.5"/>
</g>
<!-- set_marker_node_Set(2) -->
<!-- set_marker_node_Set(8) -->
<!-- set_marker_node_Set(2)&#45;&gt;set_marker_node_Set(8) -->
<g id="edge2" class="edge">
<title>set_marker_node_Set(2)&#45;&gt;set_marker_node_Set(8)</title>
<path fill="none" stroke="white" d="M152,-56.27C156.55,-55.51 161.23,-54.72 165.92,-53.93"/>
<polygon fill="white" stroke="white" points="166.23,-57.43 175.51,-52.32 165.07,-50.52 166.23,-57.43"/>
</g>
<!-- set_marker_node_Set(3) -->
<!-- set_marker_node_Set(9) -->
<!-- set_marker_node_Set(3)&#45;&gt;set_marker_node_Set(9) -->
<g id="edge4" class="edge">
<title>set_marker_node_Set(3)&#45;&gt;set_marker_node_Set(9)</title>
<path fill="none" stroke="white" d="M407,-45C409.83,-45 412.68,-45 415.54,-45"/>
<polygon fill="white" stroke="white" points="415.49,-48.5 425.49,-45 415.49,-41.5 415.49,-48.5"/>
</g>
<!-- set_marker_node_Set(11) -->
<!-- set_marker_node_Set(4)&#45;&gt;set_marker_node_Set(11) -->
<g id="edge8" class="edge">
<title>set_marker_node_Set(4)&#45;&gt;set_marker_node_Set(11)</title>
<path fill="none" stroke="white" d="M877,-45C877.18,-45 877.36,-45 877.55,-45"/>
<polygon fill="white" stroke="white" points="877.49,-48.5 887.49,-45 877.49,-41.5 877.49,-48.5"/>
</g>
<!-- set_marker_node_Set(5) -->
<!-- set_marker_node_Set(12) -->
<!-- set_marker_node_Set(5)&#45;&gt;set_marker_node_Set(12) -->
<g id="edge10" class="edge">
<title>set_marker_node_Set(5)&#45;&gt;set_marker_node_Set(12)</title>
<path fill="none" stroke="white" d="M1228.03,-66C1232.46,-64.84 1236.84,-63.51 1241,-62 1244.28,-60.81 1247.61,-59.37 1250.89,-57.81"/>
<polygon fill="white" stroke="white" points="1252.43,-60.95 1259.66,-53.21 1249.18,-54.75 1252.43,-60.95"/>
</g>
<!-- set_marker_node_Set(6) -->
<!-- set_marker_node_Set(7) -->
<!-- set_marker_node_Set(7)&#45;&gt;set_marker_node_Set(2) -->
<g id="edge1" class="edge">
<title>set_marker_node_Set(7)&#45;&gt;set_marker_node_Set(2)</title>
<path fill="none" stroke="white" d="M46,-45.34C52.44,-47.18 59.5,-49.18 66,-51 67.17,-51.33 68.36,-51.66 69.55,-51.99"/>
<polygon fill="white" stroke="white" points="68.45,-55.32 79.02,-54.6 70.31,-48.57 68.45,-55.32"/>
</g>
<!-- set_marker_node_Set(58) -->
<!-- set_marker_node_Set(7)&#45;&gt;set_marker_node_Set(58) -->
<g id="edge13" class="edge">
<title>set_marker_node_Set(7)&#45;&gt;set_marker_node_Set(58)</title>
<path fill="none" stroke="white" d="M46,-33.12C48.89,-32.34 51.94,-31.53 55.09,-30.68"/>
<polygon fill="white" stroke="white" points="55.78,-34.12 64.54,-28.16 53.98,-27.36 55.78,-34.12"/>
</g>
<!-- set_marker_node_Set(8)&#45;&gt;set_marker_node_Set(3) -->
<g id="edge3" class="edge">
<title>set_marker_node_Set(8)&#45;&gt;set_marker_node_Set(3)</title>
<path fill="none" stroke="white" d="M264,-45C266.84,-45 269.75,-45 272.68,-45"/>
<polygon fill="white" stroke="white" points="272.49,-48.5 282.49,-45 272.49,-41.5 272.49,-48.5"/>
</g>
<!-- set_marker_node_Set(10) -->
<!-- set_marker_node_Set(9)&#45;&gt;set_marker_node_Set(10) -->
<g id="edge5" class="edge">
<title>set_marker_node_Set(9)&#45;&gt;set_marker_node_Set(10)</title>
<path fill="none" stroke="white" d="M551,-45C553.97,-45 556.95,-45 559.92,-45"/>
<polygon fill="white" stroke="white" points="559.49,-48.5 569.49,-45 559.49,-41.5 559.49,-48.5"/>
</g>
<!-- set_marker_node_Set(10)&#45;&gt;set_marker_node_Set(0) -->
<g id="edge6" class="edge">
<title>set_marker_node_Set(10)&#45;&gt;set_marker_node_Set(0)</title>
<path fill="none" stroke="white" d="M671,-45C673.85,-45 676.71,-45 679.54,-45"/>
<polygon fill="white" stroke="white" points="679.49,-48.5 689.49,-45 679.49,-41.5 679.49,-48.5"/>
</g>
<!-- set_marker_node_Set(11)&#45;&gt;set_marker_node_Set(5) -->
<g id="edge9" class="edge">
<title>set_marker_node_Set(11)&#45;&gt;set_marker_node_Set(5)</title>
<path fill="none" stroke="white" d="M1100,-51C1104.79,-53.02 1105.55,-56.14 1111.53,-60.43"/>
<polygon fill="white" stroke="white" points="1109.74,-63.44 1120.18,-65.26 1113.16,-57.33 1109.74,-63.44"/>
</g>
<!-- set_marker_node_Set(59) -->
<!-- set_marker_node_Set(11)&#45;&gt;set_marker_node_Set(59) -->
<g id="edge14" class="edge">
<title>set_marker_node_Set(11)&#45;&gt;set_marker_node_Set(59)</title>
<path fill="none" stroke="white" d="M1075.25,-37C1089.2,-35.6 1103.48,-34.17 1116.71,-32.85"/>
<polygon fill="white" stroke="white" points="1116.89,-36.34 1126.5,-31.86 1116.2,-29.38 1116.89,-36.34"/>
</g>
<!-- set_marker_node_Set(20) -->
<!-- node_System(11) -->
<g id="node13" class="node">
<title>node_System(11)</title>
<polygon fill="#eff1f3" stroke="#eff1f3" points="1084,-153 905,-153 905,-117 1084,-117 1084,-153"/>
<text text-anchor="middle" x="994.5" y="-131.3" font-family="Times,serif" font-size="14.00">sync_simple_transforms</text>
</g>
<!-- node_System(12) -->
<g id="node14" class="node">
<title>node_System(12)</title>
<polygon fill="#eff1f3" stroke="#eff1f3" points="1077.5,-99 911.5,-99 911.5,-63 1077.5,-63 1077.5,-99"/>
<text text-anchor="middle" x="994.5" y="-77.3" font-family="Times,serif" font-size="14.00">propagate_transforms</text>
</g>
<!-- set_marker_node_Set(12)&#45;&gt;set_marker_node_Set(6) -->
<g id="edge11" class="edge">
<title>set_marker_node_Set(12)&#45;&gt;set_marker_node_Set(6)</title>
<path fill="none" stroke="white" d="M1305,-39C1307.72,-39 1310.6,-39 1313.56,-39"/>
<polygon fill="white" stroke="white" points="1313.49,-42.5 1323.49,-39 1313.49,-35.5 1313.49,-42.5"/>
</g>
<!-- set_marker_node_Set(58)&#45;&gt;set_marker_node_Set(8) -->
<g id="edge12" class="edge">
<title>set_marker_node_Set(58)&#45;&gt;set_marker_node_Set(8)</title>
<path fill="none" stroke="white" d="M157,-28.2C164.15,-30.13 171.51,-32.13 178.54,-34.03"/>
<polygon fill="white" stroke="white" points="177.46,-37.37 188.03,-36.61 179.29,-30.61 177.46,-37.37"/>
</g>
<!-- set_marker_node_Set(59)&#45;&gt;set_marker_node_Set(12) -->
<g id="edge15" class="edge">
<title>set_marker_node_Set(59)&#45;&gt;set_marker_node_Set(12)</title>
<path fill="none" stroke="white" d="M1224,-32.37C1232.68,-33.36 1241.56,-34.38 1249.69,-35.31"/>
<polygon fill="white" stroke="white" points="1249.17,-38.77 1259.5,-36.43 1249.96,-31.82 1249.17,-38.77"/>
</g>
</g>
</svg>
