<?xml version="1.0" encoding="UTF-8" standalone="no"?>
<!DOCTYPE svg PUBLIC "-//W3C//DTD SVG 1.1//EN"
 "http://www.w3.org/Graphics/SVG/1.1/DTD/svg11.dtd">
<!-- Generated by graphviz version 7.1.0 (0)
 -->
<!-- Pages: 1 -->
<svg width="1402pt" height="211pt"
 viewBox="0.00 0.00 1402.00 211.00" xmlns="http://www.w3.org/2000/svg" xmlns:xlink="http://www.w3.org/1999/xlink">
<g id="graph0" class="graph" transform="scale(1 1) rotate(0) translate(4 207)">
<polygon fill="#0d1117" stroke="none" points="-4,4 -4,-207 1398,-207 1398,4 -4,4"/>
<g id="clust1" class="cluster">
<title>clusternode_Set(0)</title>
<g id="a_clust1"><a xlink:title="Update">
<polygon fill="#6f90ad" stroke="black" points="691,-102 691,-141 756,-141 756,-102 691,-102"/>
<text text-anchor="middle" x="723.5" y="-125.8" font-family="Helvetica,sans-Serif" font-size="14.00">Update</text>
</a>
</g>
</g>
<g id="clust2" class="cluster">
<title>clusternode_Set(2)</title>
<g id="a_clust2"><a xlink:title="FirstFlush">
<polygon fill="#6f90ad" stroke="black" points="70,-125 70,-164 152,-164 152,-125 70,-125"/>
<text text-anchor="middle" x="111" y="-148.8" font-family="Helvetica,sans-Serif" font-size="14.00">FirstFlush</text>
</a>
</g>
</g>
<g id="clust3" class="cluster">
<title>clusternode_Set(3)</title>
<g id="a_clust3"><a xlink:title="PreUpdateFlush">
<polygon fill="#6f90ad" stroke="black" points="284,-102 284,-141 407,-141 407,-102 284,-102"/>
<text text-anchor="middle" x="345.5" y="-125.8" font-family="Helvetica,sans-Serif" font-size="14.00">PreUpdateFlush</text>
</a>
</g>
</g>
<g id="clust4" class="cluster">
<title>clusternode_Set(4)</title>
<g id="a_clust4"><a xlink:title="UpdateFlush">
<polygon fill="#6f90ad" stroke="black" points="776,-102 776,-141 877,-141 877,-102 776,-102"/>
<text text-anchor="middle" x="826.5" y="-125.8" font-family="Helvetica,sans-Serif" font-size="14.00">UpdateFlush</text>
</a>
</g>
</g>
<g id="clust5" class="cluster">
<title>clusternode_Set(5)</title>
<g id="a_clust5"><a xlink:title="PostUpdateFlush">
<polygon fill="#6f90ad" stroke="black" points="1090,-55 1090,-94 1219,-94 1219,-55 1090,-55"/>
<text text-anchor="middle" x="1154.5" y="-78.8" font-family="Helvetica,sans-Serif" font-size="14.00">PostUpdateFlush</text>
</a>
</g>
</g>
<g id="clust6" class="cluster">
<title>clusternode_Set(6)</title>
<g id="a_clust6"><a xlink:title="LastFlush">
<polygon fill="#6f90ad" stroke="black" points="1314,-31 1314,-70 1394,-70 1394,-31 1314,-31"/>
<text text-anchor="middle" x="1354" y="-54.8" font-family="Helvetica,sans-Serif" font-size="14.00">LastFlush</text>
</a>
</g>
</g>
<g id="clust7" class="cluster">
<title>clusternode_Set(7)</title>
<g id="a_clust7"><a xlink:title="First">
<polygon fill="#6f90ad" stroke="black" points="0,-101 0,-140 46,-140 46,-101 0,-101"/>
<text text-anchor="middle" x="23" y="-124.8" font-family="Helvetica,sans-Serif" font-size="14.00">First</text>
</a>
</g>
</g>
<g id="clust8" class="cluster">
<title>clusternode_Set(8)</title>
<g id="a_clust8"><a xlink:title="PreUpdate">
<polygon fill="#6f90ad" stroke="black" points="177,-102 177,-141 264,-141 264,-102 177,-102"/>
<text text-anchor="middle" x="220.5" y="-125.8" font-family="Helvetica,sans-Serif" font-size="14.00">PreUpdate</text>
</a>
</g>
</g>
<g id="clust9" class="cluster">
<title>clusternode_Set(9)</title>
<g id="a_clust9"><a xlink:title="StateTransitions">
<polygon fill="#6f90ad" stroke="black" points="427,-102 427,-141 551,-141 551,-102 427,-102"/>
<text text-anchor="middle" x="489" y="-125.8" font-family="Helvetica,sans-Serif" font-size="14.00">StateTransitions</text>
</a>
</g>
</g>
<g id="clust10" class="cluster">
<title>clusternode_Set(10)</title>
<g id="a_clust10"><a xlink:title="FixedUpdate">
<polygon fill="#6f90ad" stroke="black" points="571,-102 571,-141 671,-141 671,-102 571,-102"/>
<text text-anchor="middle" x="621" y="-125.8" font-family="Helvetica,sans-Serif" font-size="14.00">FixedUpdate</text>
</a>
</g>
</g>
<g id="clust11" class="cluster">
<title>clusternode_Set(11)</title>
<g id="a_clust11"><a xlink:title="PostUpdate">
<polygon fill="#6f90ad" stroke="black" points="897,-102 897,-195 1238,-195 1238,-102 897,-102"/>
<text text-anchor="middle" x="1067.5" y="-179.8" font-family="Helvetica,sans-Serif" font-size="14.00">PostUpdate</text>
</a>
</g>
</g>
<g id="clust12" class="cluster">
<title>clusternode_Set(20)</title>
<g id="a_clust12"><a xlink:title="TransformPropagate">
<polygon fill="#6f90ad" stroke="black" points="1078,-125 1078,-164 1230,-164 1230,-125 1078,-125"/>
<text text-anchor="middle" x="1154" y="-148.8" font-family="Helvetica,sans-Serif" font-size="14.00">TransformPropagate</text>
</a>
</g>
</g>
<g id="clust13" class="cluster">
<title>clusternode_Set(12)</title>
<g id="a_clust13"><a xlink:title="Last">
<polygon fill="#6f90ad" stroke="black" points="1250,-31 1250,-70 1294,-70 1294,-31 1250,-31"/>
<text text-anchor="middle" x="1272" y="-54.8" font-family="Helvetica,sans-Serif" font-size="14.00">Last</text>
</a>
</g>
</g>
<g id="clust14" class="cluster">
<title>clusternode_Set(58)</title>
<g id="a_clust14"><a xlink:title="LoadAssets">
<polygon fill="#6f90ad" stroke="black" points="66,-78 66,-117 157,-117 157,-78 66,-78"/>
<text text-anchor="middle" x="111.5" y="-101.8" font-family="Helvetica,sans-Serif" font-size="14.00">LoadAssets</text>
</a>
</g>
</g>
<g id="clust15" class="cluster">
<title>clusternode_Set(59)</title>
<g id="a_clust15"><a xlink:title="AssetEvents">
<polygon fill="#6f90ad" stroke="black" points="1106,-8 1106,-47 1202,-47 1202,-8 1106,-8"/>
<text text-anchor="middle" x="1154" y="-31.8" font-family="Helvetica,sans-Serif" font-size="14.00">AssetEvents</text>
</a>
</g>
</g>
<!-- set_marker_node_Set(0) -->
<!-- set_marker_node_Set(4) -->
<!-- set_marker_node_Set(0)&#45;&gt;set_marker_node_Set(4) -->
<g id="edge7" class="edge">
<title>set_marker_node_Set(0)&#45;&gt;set_marker_node_Set(4)</title>
<g id="a_edge7"><a xlink:title="Update → UpdateFlush">
<path fill="none" stroke="#cc251d" stroke-width="2" d="M756,-110C758.35,-110 760.77,-110 763.22,-110"/>
<polygon fill="#cc251d" stroke="#cc251d" stroke-width="2" points="762.97,-113.5 772.97,-110 762.97,-106.5 762.97,-113.5"/>
</a>
</g>
</g>
<!-- set_marker_node_Set(2) -->
<!-- set_marker_node_Set(8) -->
<!-- set_marker_node_Set(2)&#45;&gt;set_marker_node_Set(8) -->
<g id="edge2" class="edge">
<title>set_marker_node_Set(2)&#45;&gt;set_marker_node_Set(8)</title>
<g id="a_edge2"><a xlink:title="FirstFlush → PreUpdate">
<path fill="none" stroke="#c4cc1d" stroke-width="2" d="M149.2,-125C154.17,-123.94 159.34,-122.82 164.52,-121.71"/>
<polygon fill="#c4cc1d" stroke="#c4cc1d" stroke-width="2" points="165,-125.19 174.04,-119.66 163.53,-118.34 165,-125.19"/>
</a>
</g>
</g>
<!-- set_marker_node_Set(3) -->
<!-- set_marker_node_Set(9) -->
<!-- set_marker_node_Set(3)&#45;&gt;set_marker_node_Set(9) -->
<g id="edge4" class="edge">
<title>set_marker_node_Set(3)&#45;&gt;set_marker_node_Set(9)</title>
<g id="a_edge4"><a xlink:title="PreUpdateFlush → StateTransitions">
<path fill="none" stroke="#cd1d91" stroke-width="2" d="M407,-110C409.39,-110 411.8,-110 414.21,-110"/>
<polygon fill="#cd1d91" stroke="#cd1d91" stroke-width="2" points="413.98,-113.5 423.98,-110 413.98,-106.5 413.98,-113.5"/>
</a>
</g>
</g>
<!-- set_marker_node_Set(11) -->
<!-- set_marker_node_Set(4)&#45;&gt;set_marker_node_Set(11) -->
<g id="edge8" class="edge">
<title>set_marker_node_Set(4)&#45;&gt;set_marker_node_Set(11)</title>
<g id="a_edge8"><a xlink:title="UpdateFlush → PostUpdate">
<path fill="none" stroke="#ccd60d" stroke-width="2" d="M877,-110C879.38,-110 881.8,-110 884.24,-110"/>
<polygon fill="#ccd60d" stroke="#ccd60d" stroke-width="2" points="883.98,-113.5 893.98,-110 883.98,-106.5 883.98,-113.5"/>
</a>
</g>
</g>
<!-- set_marker_node_Set(5) -->
<!-- set_marker_node_Set(12) -->
<!-- set_marker_node_Set(5)&#45;&gt;set_marker_node_Set(12) -->
<g id="edge10" class="edge">
<title>set_marker_node_Set(5)&#45;&gt;set_marker_node_Set(12)</title>
<g id="a_edge10"><a xlink:title="PostUpdateFlush → Last">
<path fill="none" stroke="#58cd0c" stroke-width="2" d="M1215.86,-55C1222.79,-53.7 1230.03,-52.21 1237.41,-50.49"/>
<polygon fill="#58cd0c" stroke="#58cd0c" stroke-width="2" points="1238.21,-53.9 1247.07,-48.09 1236.52,-47.1 1238.21,-53.9"/>
</a>
</g>
</g>
<!-- set_marker_node_Set(6) -->
<!-- set_marker_node_Set(7) -->
<!-- set_marker_node_Set(7)&#45;&gt;set_marker_node_Set(2) -->
<g id="edge1" class="edge">
<title>set_marker_node_Set(7)&#45;&gt;set_marker_node_Set(2)</title>
<g id="a_edge1"><a xlink:title="First → FirstFlush">
<path fill="none" stroke="#a6f2d4" stroke-width="2" d="M46,-115.34C52.44,-117.18 59.5,-119.18 66,-121 66.73,-121.2 67.47,-121.41 68.21,-121.62"/>
<polygon fill="#a6f2d4" stroke="#a6f2d4" stroke-width="2" points="67,-124.91 77.57,-124.2 68.86,-118.17 67,-124.91"/>
</a>
</g>
</g>
<!-- set_marker_node_Set(58) -->
<!-- set_marker_node_Set(7)&#45;&gt;set_marker_node_Set(58) -->
<g id="edge13" class="edge">
<title>set_marker_node_Set(7)&#45;&gt;set_marker_node_Set(58)</title>
<g id="a_edge13"><a xlink:title="First → LoadAssets">
<path fill="none" stroke="#0c9acf" stroke-width="2" d="M46,-103.12C48.46,-102.46 51.05,-101.77 53.71,-101.05"/>
<polygon fill="#0c9acf" stroke="#0c9acf" stroke-width="2" points="54.32,-104.51 63.08,-98.55 52.51,-97.75 54.32,-104.51"/>
</a>
</g>
</g>
<!-- set_marker_node_Set(8)&#45;&gt;set_marker_node_Set(3) -->
<g id="edge3" class="edge">
<title>set_marker_node_Set(8)&#45;&gt;set_marker_node_Set(3)</title>
<g id="a_edge3"><a xlink:title="PreUpdate → PreUpdateFlush">
<path fill="none" stroke="#251dcc" stroke-width="2" d="M264,-110C266.39,-110 268.82,-110 271.28,-110"/>
<polygon fill="#251dcc" stroke="#251dcc" stroke-width="2" points="270.98,-113.5 280.98,-110 270.98,-106.5 270.98,-113.5"/>
</a>
</g>
</g>
<!-- set_marker_node_Set(10) -->
<!-- set_marker_node_Set(9)&#45;&gt;set_marker_node_Set(10) -->
<g id="edge5" class="edge">
<title>set_marker_node_Set(9)&#45;&gt;set_marker_node_Set(10)</title>
<g id="a_edge5"><a xlink:title="StateTransitions → FixedUpdate">
<path fill="none" stroke="#1dcd59" stroke-width="2" d="M551,-110C553.39,-110 555.79,-110 558.19,-110"/>
<polygon fill="#1dcd59" stroke="#1dcd59" stroke-width="2" points="557.98,-113.5 567.98,-110 557.98,-106.5 557.98,-113.5"/>
</a>
</g>
</g>
<!-- set_marker_node_Set(10)&#45;&gt;set_marker_node_Set(0) -->
<g id="edge6" class="edge">
<title>set_marker_node_Set(10)&#45;&gt;set_marker_node_Set(0)</title>
<g id="a_edge6"><a xlink:title="FixedUpdate → Update">
<path fill="none" stroke="#1dc4cc" stroke-width="2" d="M671,-110C673.37,-110 675.75,-110 678.11,-110"/>
<polygon fill="#1dc4cc" stroke="#1dc4cc" stroke-width="2" points="677.98,-113.5 687.98,-110 677.98,-106.5 677.98,-113.5"/>
</a>
</g>
</g>
<!-- set_marker_node_Set(11)&#45;&gt;set_marker_node_Set(5) -->
<g id="edge9" class="edge">
<title>set_marker_node_Set(11)&#45;&gt;set_marker_node_Set(5)</title>
<g id="a_edge9"><a xlink:title="PostUpdate → PostUpdateFlush">
<path fill="none" stroke="#29e000" stroke-width="2" d="M1004.87,-102C1024.85,-96.74 1051.94,-89.61 1077.48,-82.88"/>
<polygon fill="#29e000" stroke="#29e000" stroke-width="2" points="1078.3,-86.29 1087.08,-80.36 1076.51,-79.52 1078.3,-86.29"/>
</a>
</g>
</g>
<!-- set_marker_node_Set(59) -->
<!-- set_marker_node_Set(11)&#45;&gt;set_marker_node_Set(59) -->
<g id="edge14" class="edge">
<title>set_marker_node_Set(11)&#45;&gt;set_marker_node_Set(59)</title>
<g id="a_edge14"><a xlink:title="PostUpdate → AssetEvents">
<path fill="none" stroke="#a6f2d4" stroke-width="2" d="M987.72,-102C1007.21,-90.31 1044.94,-68.1 1078,-51 1083.32,-48.25 1088.9,-45.46 1094.51,-42.73"/>
<polygon fill="#a6f2d4" stroke="#a6f2d4" stroke-width="2" points="1095.77,-46.01 1103.27,-38.53 1092.74,-39.7 1095.77,-46.01"/>
</a>
</g>
</g>
<!-- set_marker_node_Set(20) -->
<!-- node_System(135) -->
<g id="node13" class="node">
<title>node_System(135)</title>
<g id="a_node13"><a xlink:title="bevy_animation::animation_player">
<polygon fill="#eff1f3" stroke="#eff1f3" points="1042,-164 905,-164 905,-128 1042,-128 1042,-164"/>
<text text-anchor="middle" x="973.5" y="-142.3" font-family="Times,serif" font-size="14.00">animation_player</text>
</a>
</g>
</g>
<!-- node_System(135)&#45;&gt;set_marker_node_Set(20) -->
<g id="edge16" class="edge">
<title>node_System(135)&#45;&gt;set_marker_node_Set(20)</title>
<g id="a_edge16"><a xlink:title="animation_player → TransformPropagate">
<path fill="none" stroke="#251dcc" stroke-width="2" d="M1042.49,-141.05C1049.93,-140.51 1057.58,-139.95 1065.21,-139.39"/>
<polygon fill="#251dcc" stroke="#251dcc" stroke-width="2" points="1065.26,-142.9 1074.98,-138.68 1064.76,-135.92 1065.26,-142.9"/>
</a>
</g>
</g>
<!-- set_marker_node_Set(12)&#45;&gt;set_marker_node_Set(6) -->
<g id="edge11" class="edge">
<title>set_marker_node_Set(12)&#45;&gt;set_marker_node_Set(6)</title>
<g id="a_edge11"><a xlink:title="Last → LastFlush">
<path fill="none" stroke="#810ccd" stroke-width="2" d="M1294,-39C1296.31,-39 1298.74,-39 1301.23,-39"/>
<polygon fill="#810ccd" stroke="#810ccd" stroke-width="2" points="1300.98,-42.5 1310.98,-39 1300.98,-35.5 1300.98,-42.5"/>
</a>
</g>
</g>
<!-- set_marker_node_Set(58)&#45;&gt;set_marker_node_Set(8) -->
<g id="edge12" class="edge">
<title>set_marker_node_Set(58)&#45;&gt;set_marker_node_Set(8)</title>
<g id="a_edge12"><a xlink:title="LoadAssets → PreUpdate">
<path fill="none" stroke="#cf410c" stroke-width="2" d="M157,-96.09C161.6,-97.12 166.28,-98.18 170.91,-99.21"/>
<polygon fill="#cf410c" stroke="#cf410c" stroke-width="2" points="169.87,-102.57 180.39,-101.34 171.4,-95.74 169.87,-102.57"/>
</a>
</g>
</g>
<!-- set_marker_node_Set(59)&#45;&gt;set_marker_node_Set(12) -->
<g id="edge15" class="edge">
<title>set_marker_node_Set(59)&#45;&gt;set_marker_node_Set(12)</title>
<g id="a_edge15"><a xlink:title="AssetEvents → Last">
<path fill="none" stroke="#c4cc1d" stroke-width="2" d="M1202,-25.32C1213.9,-27.68 1226.45,-30.17 1237.53,-32.36"/>
<polygon fill="#c4cc1d" stroke="#c4cc1d" stroke-width="2" points="1236.54,-35.74 1247.03,-34.25 1237.91,-28.87 1236.54,-35.74"/>
</a>
</g>
</g>
</g>
</svg>
