<?xml version="1.0" encoding="UTF-8" standalone="no"?>
<!DOCTYPE svg PUBLIC "-//W3C//DTD SVG 1.1//EN"
 "http://www.w3.org/Graphics/SVG/1.1/DTD/svg11.dtd">
<!-- Generated by graphviz version 7.1.0 (0)
 -->
<!-- Title: schedule Pages: 1 -->
<svg width="1498pt" height="176pt"
 viewBox="0.00 0.00 1498.00 176.00" xmlns="http://www.w3.org/2000/svg" xmlns:xlink="http://www.w3.org/1999/xlink">
<g id="graph0" class="graph" transform="scale(1 1) rotate(0) translate(4 172)">
<title>schedule</title>
<polygon fill="#0d1117" stroke="none" points="-4,4 -4,-172 1494,-172 1494,4 -4,4"/>
<g id="clust1" class="cluster">
<title>clusternode_Set(0)</title>
<polygon fill="#6f90ad" stroke="black" points="691,-46 691,-85 756,-85 756,-46 691,-46"/>
<text text-anchor="middle" x="723.5" y="-69.8" font-family="Helvetica,sans-Serif" font-size="14.00">Update</text>
</g>
<g id="clust2" class="cluster">
<title>clusternode_Set(2)</title>
<polygon fill="#6f90ad" stroke="black" points="70,-55 70,-94 152,-94 152,-55 70,-55"/>
<text text-anchor="middle" x="111" y="-78.8" font-family="Helvetica,sans-Serif" font-size="14.00">FirstFlush</text>
</g>
<g id="clust3" class="cluster">
<title>clusternode_Set(3)</title>
<polygon fill="#6f90ad" stroke="black" points="284,-46 284,-85 407,-85 407,-46 284,-46"/>
<text text-anchor="middle" x="345.5" y="-69.8" font-family="Helvetica,sans-Serif" font-size="14.00">PreUpdateFlush</text>
</g>
<g id="clust4" class="cluster">
<title>clusternode_Set(4)</title>
<polygon fill="#6f90ad" stroke="black" points="776,-46 776,-85 877,-85 877,-46 776,-46"/>
<text text-anchor="middle" x="826.5" y="-69.8" font-family="Helvetica,sans-Serif" font-size="14.00">UpdateFlush</text>
</g>
<g id="clust5" class="cluster">
<title>clusternode_Set(5)</title>
<polygon fill="#6f90ad" stroke="black" points="1010,-76 1010,-115 1139,-115 1139,-76 1010,-76"/>
<text text-anchor="middle" x="1074.5" y="-99.8" font-family="Helvetica,sans-Serif" font-size="14.00">PostUpdateFlush</text>
</g>
<g id="clust6" class="cluster">
<title>clusternode_Set(6)</title>
<polygon fill="#6f90ad" stroke="black" points="1365.5,-20 1365.5,-59 1445.5,-59 1445.5,-20 1365.5,-20"/>
<text text-anchor="middle" x="1405.5" y="-43.8" font-family="Helvetica,sans-Serif" font-size="14.00">LastFlush</text>
</g>
<g id="clust7" class="cluster">
<title>clusternode_Set(7)</title>
<polygon fill="#6f90ad" stroke="black" points="0,-31 0,-70 46,-70 46,-31 0,-31"/>
<text text-anchor="middle" x="23" y="-54.8" font-family="Helvetica,sans-Serif" font-size="14.00">First</text>
</g>
<g id="clust8" class="cluster">
<title>clusternode_Set(8)</title>
<polygon fill="#6f90ad" stroke="black" points="177,-46 177,-85 264,-85 264,-46 177,-46"/>
<text text-anchor="middle" x="220.5" y="-69.8" font-family="Helvetica,sans-Serif" font-size="14.00">PreUpdate</text>
</g>
<g id="clust9" class="cluster">
<title>clusternode_Set(9)</title>
<polygon fill="#6f90ad" stroke="black" points="427,-46 427,-85 551,-85 551,-46 427,-46"/>
<text text-anchor="middle" x="489" y="-69.8" font-family="Helvetica,sans-Serif" font-size="14.00">StateTransitions</text>
</g>
<g id="clust10" class="cluster">
<title>clusternode_Set(10)</title>
<polygon fill="#6f90ad" stroke="black" points="571,-46 571,-85 671,-85 671,-46 571,-46"/>
<text text-anchor="middle" x="621" y="-69.8" font-family="Helvetica,sans-Serif" font-size="14.00">FixedUpdate</text>
</g>
<g id="clust11" class="cluster">
<title>clusternode_Set(11)</title>
<polygon fill="#6f90ad" stroke="black" points="897,-46 897,-85 990,-85 990,-46 897,-46"/>
<text text-anchor="middle" x="943.5" y="-69.8" font-family="Helvetica,sans-Serif" font-size="14.00">PostUpdate</text>
</g>
<g id="clust12" class="cluster">
<title>clusternode_Set(12)</title>
<polygon fill="#6f90ad" stroke="black" points="1159,-67 1159,-160 1482,-160 1482,-67 1159,-67"/>
<text text-anchor="middle" x="1320.5" y="-144.8" font-family="Helvetica,sans-Serif" font-size="14.00">Last</text>
</g>
<g id="clust13" class="cluster">
<title>clusternode_Set(58)</title>
<polygon fill="#6f90ad" stroke="black" points="66,-8 66,-47 157,-47 157,-8 66,-8"/>
<text text-anchor="middle" x="111.5" y="-31.8" font-family="Helvetica,sans-Serif" font-size="14.00">LoadAssets</text>
</g>
<g id="clust14" class="cluster">
<title>clusternode_Set(59)</title>
<polygon fill="#6f90ad" stroke="black" points="1026,-29 1026,-68 1122,-68 1122,-29 1026,-29"/>
<text text-anchor="middle" x="1074" y="-52.8" font-family="Helvetica,sans-Serif" font-size="14.00">AssetEvents</text>
</g>
<!-- set_marker_node_Set(0) -->
<!-- set_marker_node_Set(4) -->
<!-- set_marker_node_Set(0)&#45;&gt;set_marker_node_Set(4) -->
<g id="edge7" class="edge">
<title>set_marker_node_Set(0)&#45;&gt;set_marker_node_Set(4)</title>
<path fill="none" stroke="white" d="M756,-54C758.81,-54 761.71,-54 764.65,-54"/>
<polygon fill="white" stroke="white" points="764.49,-57.5 774.49,-54 764.49,-50.5 764.49,-57.5"/>
</g>
<!-- set_marker_node_Set(2) -->
<!-- set_marker_node_Set(8) -->
<!-- set_marker_node_Set(2)&#45;&gt;set_marker_node_Set(8) -->
<g id="edge2" class="edge">
<title>set_marker_node_Set(2)&#45;&gt;set_marker_node_Set(8)</title>
<path fill="none" stroke="white" d="M152,-59.64C156.43,-59.26 161,-58.88 165.57,-58.49"/>
<polygon fill="white" stroke="white" points="165.83,-61.99 175.5,-57.66 165.24,-55.01 165.83,-61.99"/>
</g>
<!-- set_marker_node_Set(3) -->
<!-- set_marker_node_Set(9) -->
<!-- set_marker_node_Set(3)&#45;&gt;set_marker_node_Set(9) -->
<g id="edge4" class="edge">
<title>set_marker_node_Set(3)&#45;&gt;set_marker_node_Set(9)</title>
<path fill="none" stroke="white" d="M407,-54C409.83,-54 412.68,-54 415.54,-54"/>
<polygon fill="white" stroke="white" points="415.49,-57.5 425.49,-54 415.49,-50.5 415.49,-57.5"/>
</g>
<!-- set_marker_node_Set(11) -->
<!-- set_marker_node_Set(4)&#45;&gt;set_marker_node_Set(11) -->
<g id="edge8" class="edge">
<title>set_marker_node_Set(4)&#45;&gt;set_marker_node_Set(11)</title>
<path fill="none" stroke="white" d="M877,-54C879.92,-54 882.88,-54 885.82,-54"/>
<polygon fill="white" stroke="white" points="885.49,-57.5 895.49,-54 885.49,-50.5 885.49,-57.5"/>
</g>
<!-- set_marker_node_Set(5) -->
<!-- set_marker_node_Set(12) -->
<!-- set_marker_node_Set(5)&#45;&gt;set_marker_node_Set(12) -->
<g id="edge10" class="edge">
<title>set_marker_node_Set(5)&#45;&gt;set_marker_node_Set(12)</title>
<path fill="none" stroke="white" d="M1139,-80.35C1141.9,-80.19 1144.83,-80.02 1147.78,-79.85"/>
<polygon fill="white" stroke="white" points="1147.7,-83.36 1157.49,-79.3 1147.31,-76.38 1147.7,-83.36"/>
</g>
<!-- set_marker_node_Set(6) -->
<!-- set_marker_node_Set(7) -->
<!-- set_marker_node_Set(7)&#45;&gt;set_marker_node_Set(2) -->
<g id="edge1" class="edge">
<title>set_marker_node_Set(7)&#45;&gt;set_marker_node_Set(2)</title>
<path fill="none" stroke="white" d="M46,-45.34C52.44,-47.18 59.5,-49.18 66,-51 67.17,-51.33 68.36,-51.66 69.55,-51.99"/>
<polygon fill="white" stroke="white" points="68.45,-55.32 79.02,-54.6 70.31,-48.57 68.45,-55.32"/>
</g>
<!-- set_marker_node_Set(58) -->
<!-- set_marker_node_Set(7)&#45;&gt;set_marker_node_Set(58) -->
<g id="edge13" class="edge">
<title>set_marker_node_Set(7)&#45;&gt;set_marker_node_Set(58)</title>
<path fill="none" stroke="white" d="M46,-33.12C48.89,-32.34 51.94,-31.53 55.09,-30.68"/>
<polygon fill="white" stroke="white" points="55.78,-34.12 64.54,-28.16 53.98,-27.36 55.78,-34.12"/>
</g>
<!-- set_marker_node_Set(8)&#45;&gt;set_marker_node_Set(3) -->
<g id="edge3" class="edge">
<title>set_marker_node_Set(8)&#45;&gt;set_marker_node_Set(3)</title>
<path fill="none" stroke="white" d="M264,-54C266.84,-54 269.75,-54 272.68,-54"/>
<polygon fill="white" stroke="white" points="272.49,-57.5 282.49,-54 272.49,-50.5 272.49,-57.5"/>
</g>
<!-- set_marker_node_Set(10) -->
<!-- set_marker_node_Set(9)&#45;&gt;set_marker_node_Set(10) -->
<g id="edge5" class="edge">
<title>set_marker_node_Set(9)&#45;&gt;set_marker_node_Set(10)</title>
<path fill="none" stroke="white" d="M551,-54C553.97,-54 556.95,-54 559.92,-54"/>
<polygon fill="white" stroke="white" points="559.49,-57.5 569.49,-54 559.49,-50.5 559.49,-57.5"/>
</g>
<!-- set_marker_node_Set(10)&#45;&gt;set_marker_node_Set(0) -->
<g id="edge6" class="edge">
<title>set_marker_node_Set(10)&#45;&gt;set_marker_node_Set(0)</title>
<path fill="none" stroke="white" d="M671,-54C673.85,-54 676.71,-54 679.54,-54"/>
<polygon fill="white" stroke="white" points="679.49,-57.5 689.49,-54 679.49,-50.5 679.49,-57.5"/>
</g>
<!-- set_marker_node_Set(11)&#45;&gt;set_marker_node_Set(5) -->
<g id="edge9" class="edge">
<title>set_marker_node_Set(11)&#45;&gt;set_marker_node_Set(5)</title>
<path fill="none" stroke="white" d="M990,-67.04C996.69,-68.79 1003.51,-70.5 1010,-72 1012.44,-72.56 1014.94,-73.12 1017.47,-73.67"/>
<polygon fill="white" stroke="white" points="1016.66,-77.08 1027.16,-75.69 1018.09,-70.23 1016.66,-77.08"/>
</g>
<!-- set_marker_node_Set(59) -->
<!-- set_marker_node_Set(11)&#45;&gt;set_marker_node_Set(59) -->
<g id="edge14" class="edge">
<title>set_marker_node_Set(11)&#45;&gt;set_marker_node_Set(59)</title>
<path fill="none" stroke="white" d="M990,-47.94C998.06,-46.88 1006.54,-45.76 1014.87,-44.66"/>
<polygon fill="white" stroke="white" points="1015.05,-48.17 1024.5,-43.39 1014.13,-41.23 1015.05,-48.17"/>
</g>
<!-- set_marker_node_Set(12)&#45;&gt;set_marker_node_Set(6) -->
<g id="edge11" class="edge">
<title>set_marker_node_Set(12)&#45;&gt;set_marker_node_Set(6)</title>
<path fill="none" stroke="white" d="M1263.84,-67C1288.63,-60.13 1324.96,-50.06 1354.48,-41.87"/>
<polygon fill="white" stroke="white" points="1355.34,-45.26 1364.04,-39.22 1353.47,-38.52 1355.34,-45.26"/>
</g>
<!-- node_System(57) -->
<g id="node13" class="node">
<title>node_System(57)</title>
<polygon fill="#eff1f3" stroke="#eff1f3" points="1301,-129 1167,-129 1167,-93 1301,-93 1301,-129"/>
<text text-anchor="middle" x="1234" y="-107.3" font-family="Times,serif" font-size="14.00">changed_window</text>
</g>
<!-- node_System(58) -->
<g id="node14" class="node">
<title>node_System(58)</title>
<polygon fill="#eff1f3" stroke="#eff1f3" points="1474,-129 1337,-129 1337,-93 1474,-93 1474,-129"/>
<text text-anchor="middle" x="1405.5" y="-107.3" font-family="Times,serif" font-size="14.00">despawn_window</text>
</g>
<!-- node_System(57)&#45;&gt;node_System(58) -->
<g id="edge16" class="edge">
<title>node_System(57)&#45;&gt;node_System(58)</title>
<path fill="none" stroke="white" d="M1301.02,-111C1308.98,-111 1317.17,-111 1325.3,-111"/>
<polygon fill="white" stroke="white" points="1325.19,-114.5 1335.19,-111 1325.19,-107.5 1325.19,-114.5"/>
</g>
<!-- set_marker_node_Set(58)&#45;&gt;set_marker_node_Set(8) -->
<g id="edge12" class="edge">
<title>set_marker_node_Set(58)&#45;&gt;set_marker_node_Set(8)</title>
<path fill="none" stroke="white" d="M157,-31.98C166.64,-35.4 176.66,-38.96 185.76,-42.19"/>
<polygon fill="white" stroke="white" points="184.46,-45.45 195.06,-45.5 186.8,-38.85 184.46,-45.45"/>
</g>
<!-- set_marker_node_Set(59)&#45;&gt;set_marker_node_Set(12) -->
<g id="edge15" class="edge">
<title>set_marker_node_Set(59)&#45;&gt;set_marker_node_Set(12)</title>
<path fill="none" stroke="white" d="M1122,-48.3C1143.09,-53.38 1167.85,-59.33 1188.62,-64.33"/>
<polygon fill="white" stroke="white" points="1187.74,-67.71 1198.28,-66.65 1189.38,-60.91 1187.74,-67.71"/>
</g>
</g>
</svg>
