<?xml version="1.0" encoding="UTF-8" standalone="no"?>
<!DOCTYPE svg PUBLIC "-//W3C//DTD SVG 1.1//EN"
 "http://www.w3.org/Graphics/SVG/1.1/DTD/svg11.dtd">
<!-- Generated by graphviz version 7.1.0 (0)
 -->
<!-- Title: schedule Pages: 1 -->
<svg width="1758pt" height="194pt"
 viewBox="0.00 0.00 1758.00 194.00" xmlns="http://www.w3.org/2000/svg" xmlns:xlink="http://www.w3.org/1999/xlink">
<g id="graph0" class="graph" transform="scale(1 1) rotate(0) translate(4 190)">
<title>schedule</title>
<polygon fill="#0d1117" stroke="none" points="-4,4 -4,-190 1754,-190 1754,4 -4,4"/>
<g id="clust1" class="cluster">
<title>clusternode_Set(0)</title>
<polygon fill="#6f90ad" stroke="black" points="691,-104 691,-143 756,-143 756,-104 691,-104"/>
<text text-anchor="middle" x="723.5" y="-127.8" font-family="Helvetica,sans-Serif" font-size="14.00">Update</text>
</g>
<g id="clust2" class="cluster">
<title>clusternode_Set(2)</title>
<polygon fill="#6f90ad" stroke="black" points="70,-127 70,-166 152,-166 152,-127 70,-127"/>
<text text-anchor="middle" x="111" y="-150.8" font-family="Helvetica,sans-Serif" font-size="14.00">FirstFlush</text>
</g>
<g id="clust3" class="cluster">
<title>clusternode_Set(3)</title>
<polygon fill="#6f90ad" stroke="black" points="284,-104 284,-143 407,-143 407,-104 284,-104"/>
<text text-anchor="middle" x="345.5" y="-127.8" font-family="Helvetica,sans-Serif" font-size="14.00">PreUpdateFlush</text>
</g>
<g id="clust4" class="cluster">
<title>clusternode_Set(4)</title>
<polygon fill="#6f90ad" stroke="black" points="776,-104 776,-143 877,-143 877,-104 776,-104"/>
<text text-anchor="middle" x="826.5" y="-127.8" font-family="Helvetica,sans-Serif" font-size="14.00">UpdateFlush</text>
</g>
<g id="clust5" class="cluster">
<title>clusternode_Set(5)</title>
<polygon fill="#6f90ad" stroke="black" points="1010,-139 1010,-178 1139,-178 1139,-139 1010,-139"/>
<text text-anchor="middle" x="1074.5" y="-162.8" font-family="Helvetica,sans-Serif" font-size="14.00">PostUpdateFlush</text>
</g>
<g id="clust6" class="cluster">
<title>clusternode_Set(6)</title>
<polygon fill="#6f90ad" stroke="black" points="1670,-116 1670,-155 1750,-155 1750,-116 1670,-116"/>
<text text-anchor="middle" x="1710" y="-139.8" font-family="Helvetica,sans-Serif" font-size="14.00">LastFlush</text>
</g>
<g id="clust7" class="cluster">
<title>clusternode_Set(7)</title>
<polygon fill="#6f90ad" stroke="black" points="0,-103 0,-142 46,-142 46,-103 0,-103"/>
<text text-anchor="middle" x="23" y="-126.8" font-family="Helvetica,sans-Serif" font-size="14.00">First</text>
</g>
<g id="clust8" class="cluster">
<title>clusternode_Set(8)</title>
<polygon fill="#6f90ad" stroke="black" points="177,-104 177,-143 264,-143 264,-104 177,-104"/>
<text text-anchor="middle" x="220.5" y="-127.8" font-family="Helvetica,sans-Serif" font-size="14.00">PreUpdate</text>
</g>
<g id="clust9" class="cluster">
<title>clusternode_Set(9)</title>
<polygon fill="#6f90ad" stroke="black" points="427,-104 427,-143 551,-143 551,-104 427,-104"/>
<text text-anchor="middle" x="489" y="-127.8" font-family="Helvetica,sans-Serif" font-size="14.00">StateTransitions</text>
</g>
<g id="clust10" class="cluster">
<title>clusternode_Set(10)</title>
<polygon fill="#6f90ad" stroke="black" points="571,-104 571,-143 671,-143 671,-104 571,-104"/>
<text text-anchor="middle" x="621" y="-127.8" font-family="Helvetica,sans-Serif" font-size="14.00">FixedUpdate</text>
</g>
<g id="clust11" class="cluster">
<title>clusternode_Set(11)</title>
<polygon fill="#6f90ad" stroke="black" points="897,-104 897,-143 990,-143 990,-104 897,-104"/>
<text text-anchor="middle" x="943.5" y="-127.8" font-family="Helvetica,sans-Serif" font-size="14.00">PostUpdate</text>
</g>
<g id="clust12" class="cluster">
<title>clusternode_Set(12)</title>
<polygon fill="#6f90ad" stroke="black" points="1159,-8 1159,-155 1650,-155 1650,-8 1159,-8"/>
<text text-anchor="middle" x="1404.5" y="-139.8" font-family="Helvetica,sans-Serif" font-size="14.00">Last</text>
</g>
<g id="clust13" class="cluster">
<title>clusternode_Set(58)</title>
<polygon fill="#6f90ad" stroke="black" points="66,-80 66,-119 157,-119 157,-80 66,-80"/>
<text text-anchor="middle" x="111.5" y="-103.8" font-family="Helvetica,sans-Serif" font-size="14.00">LoadAssets</text>
</g>
<g id="clust14" class="cluster">
<title>clusternode_Set(59)</title>
<polygon fill="#6f90ad" stroke="black" points="1026,-92 1026,-131 1122,-131 1122,-92 1026,-92"/>
<text text-anchor="middle" x="1074" y="-115.8" font-family="Helvetica,sans-Serif" font-size="14.00">AssetEvents</text>
</g>
<!-- set_marker_node_Set(0) -->
<!-- set_marker_node_Set(4) -->
<!-- set_marker_node_Set(0)&#45;&gt;set_marker_node_Set(4) -->
<g id="edge7" class="edge">
<title>set_marker_node_Set(0)&#45;&gt;set_marker_node_Set(4)</title>
<path fill="none" stroke="white" d="M756,-112C758.81,-112 761.71,-112 764.65,-112"/>
<polygon fill="white" stroke="white" points="764.49,-115.5 774.49,-112 764.49,-108.5 764.49,-115.5"/>
</g>
<!-- set_marker_node_Set(2) -->
<!-- set_marker_node_Set(8) -->
<!-- set_marker_node_Set(2)&#45;&gt;set_marker_node_Set(8) -->
<g id="edge2" class="edge">
<title>set_marker_node_Set(2)&#45;&gt;set_marker_node_Set(8)</title>
<path fill="none" stroke="white" d="M149.21,-127C154.62,-125.84 160.27,-124.62 165.92,-123.41"/>
<polygon fill="white" stroke="white" points="166.48,-126.87 175.53,-121.35 165.01,-120.02 166.48,-126.87"/>
</g>
<!-- set_marker_node_Set(3) -->
<!-- set_marker_node_Set(9) -->
<!-- set_marker_node_Set(3)&#45;&gt;set_marker_node_Set(9) -->
<g id="edge4" class="edge">
<title>set_marker_node_Set(3)&#45;&gt;set_marker_node_Set(9)</title>
<path fill="none" stroke="white" d="M407,-112C409.83,-112 412.68,-112 415.54,-112"/>
<polygon fill="white" stroke="white" points="415.49,-115.5 425.49,-112 415.49,-108.5 415.49,-115.5"/>
</g>
<!-- set_marker_node_Set(11) -->
<!-- set_marker_node_Set(4)&#45;&gt;set_marker_node_Set(11) -->
<g id="edge8" class="edge">
<title>set_marker_node_Set(4)&#45;&gt;set_marker_node_Set(11)</title>
<path fill="none" stroke="white" d="M877,-112C879.92,-112 882.88,-112 885.82,-112"/>
<polygon fill="white" stroke="white" points="885.49,-115.5 895.49,-112 885.49,-108.5 885.49,-115.5"/>
</g>
<!-- set_marker_node_Set(5) -->
<!-- set_marker_node_Set(12) -->
<!-- set_marker_node_Set(5)&#45;&gt;set_marker_node_Set(12) -->
<g id="edge10" class="edge">
<title>set_marker_node_Set(5)&#45;&gt;set_marker_node_Set(12)</title>
<path fill="none" stroke="white" d="M1139,-142.52C1141.83,-142.32 1144.74,-142.12 1147.7,-141.91"/>
<polygon fill="white" stroke="white" points="1147.76,-145.41 1157.49,-141.22 1147.27,-138.43 1147.76,-145.41"/>
</g>
<!-- set_marker_node_Set(6) -->
<!-- set_marker_node_Set(7) -->
<!-- set_marker_node_Set(7)&#45;&gt;set_marker_node_Set(2) -->
<g id="edge1" class="edge">
<title>set_marker_node_Set(7)&#45;&gt;set_marker_node_Set(2)</title>
<path fill="none" stroke="white" d="M46,-117.34C52.44,-119.18 59.5,-121.18 66,-123 67.17,-123.33 68.36,-123.66 69.55,-123.99"/>
<polygon fill="white" stroke="white" points="68.45,-127.32 79.02,-126.6 70.31,-120.57 68.45,-127.32"/>
</g>
<!-- set_marker_node_Set(58) -->
<!-- set_marker_node_Set(7)&#45;&gt;set_marker_node_Set(58) -->
<g id="edge13" class="edge">
<title>set_marker_node_Set(7)&#45;&gt;set_marker_node_Set(58)</title>
<path fill="none" stroke="white" d="M46,-105.12C48.89,-104.34 51.94,-103.53 55.09,-102.68"/>
<polygon fill="white" stroke="white" points="55.78,-106.12 64.54,-100.16 53.98,-99.36 55.78,-106.12"/>
</g>
<!-- set_marker_node_Set(8)&#45;&gt;set_marker_node_Set(3) -->
<g id="edge3" class="edge">
<title>set_marker_node_Set(8)&#45;&gt;set_marker_node_Set(3)</title>
<path fill="none" stroke="white" d="M264,-112C266.84,-112 269.75,-112 272.68,-112"/>
<polygon fill="white" stroke="white" points="272.49,-115.5 282.49,-112 272.49,-108.5 272.49,-115.5"/>
</g>
<!-- set_marker_node_Set(10) -->
<!-- set_marker_node_Set(9)&#45;&gt;set_marker_node_Set(10) -->
<g id="edge5" class="edge">
<title>set_marker_node_Set(9)&#45;&gt;set_marker_node_Set(10)</title>
<path fill="none" stroke="white" d="M551,-112C553.97,-112 556.95,-112 559.92,-112"/>
<polygon fill="white" stroke="white" points="559.49,-115.5 569.49,-112 559.49,-108.5 559.49,-115.5"/>
</g>
<!-- set_marker_node_Set(10)&#45;&gt;set_marker_node_Set(0) -->
<g id="edge6" class="edge">
<title>set_marker_node_Set(10)&#45;&gt;set_marker_node_Set(0)</title>
<path fill="none" stroke="white" d="M671,-112C673.85,-112 676.71,-112 679.54,-112"/>
<polygon fill="white" stroke="white" points="679.49,-115.5 689.49,-112 679.49,-108.5 679.49,-115.5"/>
</g>
<!-- set_marker_node_Set(11)&#45;&gt;set_marker_node_Set(5) -->
<g id="edge9" class="edge">
<title>set_marker_node_Set(11)&#45;&gt;set_marker_node_Set(5)</title>
<path fill="none" stroke="white" d="M990,-128.99C996.66,-131.17 1003.47,-133.25 1010,-135 1011.85,-135.5 1013.74,-135.98 1015.65,-136.45"/>
<polygon fill="white" stroke="white" points="1014.75,-139.84 1025.28,-138.66 1016.32,-133.01 1014.75,-139.84"/>
</g>
<!-- set_marker_node_Set(59) -->
<!-- set_marker_node_Set(11)&#45;&gt;set_marker_node_Set(59) -->
<g id="edge14" class="edge">
<title>set_marker_node_Set(11)&#45;&gt;set_marker_node_Set(59)</title>
<path fill="none" stroke="white" d="M990,-107.72C998.06,-106.97 1006.54,-106.18 1014.87,-105.41"/>
<polygon fill="white" stroke="white" points="1014.86,-108.92 1024.5,-104.51 1014.22,-101.95 1014.86,-108.92"/>
</g>
<!-- set_marker_node_Set(12)&#45;&gt;set_marker_node_Set(6) -->
<g id="edge11" class="edge">
<title>set_marker_node_Set(12)&#45;&gt;set_marker_node_Set(6)</title>
<path fill="none" stroke="white" d="M1650,-124C1652.91,-124 1655.74,-124 1658.5,-124"/>
<polygon fill="white" stroke="white" points="1658.49,-127.5 1668.49,-124 1658.49,-120.5 1658.49,-127.5"/>
</g>
<!-- node_System(10) -->
<g id="node13" class="node">
<title>node_System(10)</title>
<polygon fill="#eff1f3" stroke="#eff1f3" points="1635,-106 1174,-106 1174,-70 1635,-70 1635,-106"/>
<text text-anchor="middle" x="1404.5" y="-84.3" font-family="Times,serif" font-size="14.00">check_hierarchy_component_has_valid_parent&lt;GlobalTransform&gt;</text>
</g>
<!-- node_System(62) -->
<g id="node14" class="node">
<title>node_System(62)</title>
<polygon fill="#eff1f3" stroke="#eff1f3" points="1642,-52 1167,-52 1167,-16 1642,-16 1642,-52"/>
<text text-anchor="middle" x="1404.5" y="-30.3" font-family="Times,serif" font-size="14.00">check_hierarchy_component_has_valid_parent&lt;ComputedVisibility&gt;</text>
</g>
<!-- set_marker_node_Set(58)&#45;&gt;set_marker_node_Set(8) -->
<g id="edge12" class="edge">
<title>set_marker_node_Set(58)&#45;&gt;set_marker_node_Set(8)</title>
<path fill="none" stroke="white" d="M157,-98.09C162.09,-99.24 167.29,-100.4 172.4,-101.55"/>
<polygon fill="white" stroke="white" points="171.35,-104.9 181.87,-103.67 172.88,-98.07 171.35,-104.9"/>
</g>
<!-- set_marker_node_Set(59)&#45;&gt;set_marker_node_Set(12) -->
<g id="edge15" class="edge">
<title>set_marker_node_Set(59)&#45;&gt;set_marker_node_Set(12)</title>
<path fill="none" stroke="white" d="M1122,-109.59C1130.31,-111.06 1139.07,-112.47 1147.67,-113.62"/>
<polygon fill="white" stroke="white" points="1147.15,-117.09 1157.5,-114.82 1147.99,-110.14 1147.15,-117.09"/>
</g>
</g>
</svg>
