<?xml version="1.0" encoding="UTF-8" standalone="no"?>
<!DOCTYPE svg PUBLIC "-//W3C//DTD SVG 1.1//EN"
 "http://www.w3.org/Graphics/SVG/1.1/DTD/svg11.dtd">
<!-- Generated by graphviz version 7.0.6 (0)
 -->
<!-- Title: schedule Pages: 1 -->
<svg width="1396pt" height="211pt"
 viewBox="0.00 0.00 1396.00 211.00" xmlns="http://www.w3.org/2000/svg" xmlns:xlink="http://www.w3.org/1999/xlink">
<g id="graph0" class="graph" transform="scale(1 1) rotate(0) translate(4 207)">
<title>schedule</title>
<polygon fill="#0d1117" stroke="none" points="-4,4 -4,-207 1392,-207 1392,4 -4,4"/>
<g id="clust1" class="cluster">
<title>clusternode_Set(0)</title>
<polygon fill="#6f90ad" stroke="black" points="687,-102 687,-141 752,-141 752,-102 687,-102"/>
<text text-anchor="middle" x="719.5" y="-125.8" font-family="Helvetica,sans-Serif" font-size="14.00">Update</text>
</g>
<g id="clust2" class="cluster">
<title>clusternode_Set(2)</title>
<polygon fill="#6f90ad" stroke="black" points="70,-125 70,-164 152,-164 152,-125 70,-125"/>
<text text-anchor="middle" x="111" y="-148.8" font-family="Helvetica,sans-Serif" font-size="14.00">FirstFlush</text>
</g>
<g id="clust3" class="cluster">
<title>clusternode_Set(3)</title>
<polygon fill="#6f90ad" stroke="black" points="283,-102 283,-141 405,-141 405,-102 283,-102"/>
<text text-anchor="middle" x="344" y="-125.8" font-family="Helvetica,sans-Serif" font-size="14.00">PreUpdateFlush</text>
</g>
<g id="clust4" class="cluster">
<title>clusternode_Set(4)</title>
<polygon fill="#6f90ad" stroke="black" points="772,-102 772,-141 873,-141 873,-102 772,-102"/>
<text text-anchor="middle" x="822.5" y="-125.8" font-family="Helvetica,sans-Serif" font-size="14.00">UpdateFlush</text>
</g>
<g id="clust5" class="cluster">
<title>clusternode_Set(5)</title>
<polygon fill="#6f90ad" stroke="black" points="1085,-55 1085,-94 1214,-94 1214,-55 1085,-55"/>
<text text-anchor="middle" x="1149.5" y="-78.8" font-family="Helvetica,sans-Serif" font-size="14.00">PostUpdateFlush</text>
</g>
<g id="clust6" class="cluster">
<title>clusternode_Set(6)</title>
<polygon fill="#6f90ad" stroke="black" points="1308,-31 1308,-70 1388,-70 1388,-31 1308,-31"/>
<text text-anchor="middle" x="1348" y="-54.8" font-family="Helvetica,sans-Serif" font-size="14.00">LastFlush</text>
</g>
<g id="clust7" class="cluster">
<title>clusternode_Set(7)</title>
<polygon fill="#6f90ad" stroke="black" points="0,-101 0,-140 46,-140 46,-101 0,-101"/>
<text text-anchor="middle" x="23" y="-124.8" font-family="Helvetica,sans-Serif" font-size="14.00">First</text>
</g>
<g id="clust8" class="cluster">
<title>clusternode_Set(8)</title>
<polygon fill="#6f90ad" stroke="black" points="177,-102 177,-141 263,-141 263,-102 177,-102"/>
<text text-anchor="middle" x="220" y="-125.8" font-family="Helvetica,sans-Serif" font-size="14.00">PreUpdate</text>
</g>
<g id="clust9" class="cluster">
<title>clusternode_Set(9)</title>
<polygon fill="#6f90ad" stroke="black" points="425,-102 425,-141 547,-141 547,-102 425,-102"/>
<text text-anchor="middle" x="486" y="-125.8" font-family="Helvetica,sans-Serif" font-size="14.00">StateTransitions</text>
</g>
<g id="clust10" class="cluster">
<title>clusternode_Set(10)</title>
<polygon fill="#6f90ad" stroke="black" points="567,-102 567,-141 667,-141 667,-102 567,-102"/>
<text text-anchor="middle" x="617" y="-125.8" font-family="Helvetica,sans-Serif" font-size="14.00">FixedUpdate</text>
</g>
<g id="clust11" class="cluster">
<title>clusternode_Set(11)</title>
<polygon fill="#6f90ad" stroke="black" points="893,-102 893,-195 1232,-195 1232,-102 893,-102"/>
<text text-anchor="middle" x="1062.5" y="-179.8" font-family="Helvetica,sans-Serif" font-size="14.00">PostUpdate</text>
</g>
<g id="clust12" class="cluster">
<title>clusternode_Set(20)</title>
<polygon fill="#6f90ad" stroke="black" points="1074,-125 1074,-164 1224,-164 1224,-125 1074,-125"/>
<text text-anchor="middle" x="1149" y="-148.8" font-family="Helvetica,sans-Serif" font-size="14.00">TransformPropagate</text>
</g>
<g id="clust13" class="cluster">
<title>clusternode_Set(12)</title>
<polygon fill="#6f90ad" stroke="black" points="1244,-31 1244,-70 1288,-70 1288,-31 1244,-31"/>
<text text-anchor="middle" x="1266" y="-54.8" font-family="Helvetica,sans-Serif" font-size="14.00">Last</text>
</g>
<g id="clust14" class="cluster">
<title>clusternode_Set(58)</title>
<polygon fill="#6f90ad" stroke="black" points="66,-78 66,-117 157,-117 157,-78 66,-78"/>
<text text-anchor="middle" x="111.5" y="-101.8" font-family="Helvetica,sans-Serif" font-size="14.00">LoadAssets</text>
</g>
<g id="clust15" class="cluster">
<title>clusternode_Set(59)</title>
<polygon fill="#6f90ad" stroke="black" points="1101,-8 1101,-47 1197,-47 1197,-8 1101,-8"/>
<text text-anchor="middle" x="1149" y="-31.8" font-family="Helvetica,sans-Serif" font-size="14.00">AssetEvents</text>
</g>
<!-- set_marker_node_Set(0) -->
<!-- set_marker_node_Set(4) -->
<!-- set_marker_node_Set(0)&#45;&gt;set_marker_node_Set(4) -->
<g id="edge7" class="edge">
<title>set_marker_node_Set(0)&#45;&gt;set_marker_node_Set(4)</title>
<path fill="none" stroke="white" d="M752,-110C754.81,-110 757.71,-110 760.65,-110"/>
<polygon fill="white" stroke="white" points="760.49,-113.5 770.49,-110 760.49,-106.5 760.49,-113.5"/>
</g>
<!-- set_marker_node_Set(2) -->
<!-- set_marker_node_Set(8) -->
<!-- set_marker_node_Set(2)&#45;&gt;set_marker_node_Set(8) -->
<g id="edge2" class="edge">
<title>set_marker_node_Set(2)&#45;&gt;set_marker_node_Set(8)</title>
<path fill="none" stroke="white" d="M149.21,-125C154.62,-123.84 160.27,-122.62 165.92,-121.41"/>
<polygon fill="white" stroke="white" points="166.48,-124.87 175.53,-119.35 165.01,-118.02 166.48,-124.87"/>
</g>
<!-- set_marker_node_Set(3) -->
<!-- set_marker_node_Set(9) -->
<!-- set_marker_node_Set(3)&#45;&gt;set_marker_node_Set(9) -->
<g id="edge4" class="edge">
<title>set_marker_node_Set(3)&#45;&gt;set_marker_node_Set(9)</title>
<path fill="none" stroke="white" d="M405,-110C407.88,-110 410.78,-110 413.68,-110"/>
<polygon fill="white" stroke="white" points="413.49,-113.5 423.49,-110 413.49,-106.5 413.49,-113.5"/>
</g>
<!-- set_marker_node_Set(11) -->
<!-- set_marker_node_Set(4)&#45;&gt;set_marker_node_Set(11) -->
<g id="edge8" class="edge">
<title>set_marker_node_Set(4)&#45;&gt;set_marker_node_Set(11)</title>
<path fill="none" stroke="white" d="M873,-110C875.89,-110 878.84,-110 881.82,-110"/>
<polygon fill="white" stroke="white" points="881.49,-113.5 891.49,-110 881.49,-106.5 881.49,-113.5"/>
</g>
<!-- set_marker_node_Set(5) -->
<!-- set_marker_node_Set(12) -->
<!-- set_marker_node_Set(5)&#45;&gt;set_marker_node_Set(12) -->
<g id="edge10" class="edge">
<title>set_marker_node_Set(5)&#45;&gt;set_marker_node_Set(12)</title>
<path fill="none" stroke="white" d="M1213.6,-55C1219.85,-53.83 1226.07,-52.5 1232,-51 1232.37,-50.91 1232.74,-50.81 1233.11,-50.71"/>
<polygon fill="white" stroke="white" points="1234.03,-54.09 1242.55,-47.8 1231.97,-47.4 1234.03,-54.09"/>
</g>
<!-- set_marker_node_Set(6) -->
<!-- set_marker_node_Set(7) -->
<!-- set_marker_node_Set(7)&#45;&gt;set_marker_node_Set(2) -->
<g id="edge1" class="edge">
<title>set_marker_node_Set(7)&#45;&gt;set_marker_node_Set(2)</title>
<path fill="none" stroke="white" d="M46,-115.34C52.44,-117.18 59.5,-119.18 66,-121 67.17,-121.33 68.36,-121.66 69.55,-121.99"/>
<polygon fill="white" stroke="white" points="68.45,-125.32 79.02,-124.6 70.31,-118.57 68.45,-125.32"/>
</g>
<!-- set_marker_node_Set(58) -->
<!-- set_marker_node_Set(7)&#45;&gt;set_marker_node_Set(58) -->
<g id="edge13" class="edge">
<title>set_marker_node_Set(7)&#45;&gt;set_marker_node_Set(58)</title>
<path fill="none" stroke="white" d="M46,-103.12C48.89,-102.34 51.94,-101.53 55.09,-100.68"/>
<polygon fill="white" stroke="white" points="55.78,-104.12 64.54,-98.16 53.98,-97.36 55.78,-104.12"/>
</g>
<!-- set_marker_node_Set(8)&#45;&gt;set_marker_node_Set(3) -->
<g id="edge3" class="edge">
<title>set_marker_node_Set(8)&#45;&gt;set_marker_node_Set(3)</title>
<path fill="none" stroke="white" d="M263,-110C265.78,-110 268.62,-110 271.49,-110"/>
<polygon fill="white" stroke="white" points="271.49,-113.5 281.49,-110 271.49,-106.5 271.49,-113.5"/>
</g>
<!-- set_marker_node_Set(10) -->
<!-- set_marker_node_Set(9)&#45;&gt;set_marker_node_Set(10) -->
<g id="edge5" class="edge">
<title>set_marker_node_Set(9)&#45;&gt;set_marker_node_Set(10)</title>
<path fill="none" stroke="white" d="M547,-110C549.86,-110 552.74,-110 555.6,-110"/>
<polygon fill="white" stroke="white" points="555.49,-113.5 565.49,-110 555.49,-106.5 555.49,-113.5"/>
</g>
<!-- set_marker_node_Set(10)&#45;&gt;set_marker_node_Set(0) -->
<g id="edge6" class="edge">
<title>set_marker_node_Set(10)&#45;&gt;set_marker_node_Set(0)</title>
<path fill="none" stroke="white" d="M667,-110C669.85,-110 672.71,-110 675.54,-110"/>
<polygon fill="white" stroke="white" points="675.49,-113.5 685.49,-110 675.49,-106.5 675.49,-113.5"/>
</g>
<!-- set_marker_node_Set(11)&#45;&gt;set_marker_node_Set(5) -->
<g id="edge9" class="edge">
<title>set_marker_node_Set(11)&#45;&gt;set_marker_node_Set(5)</title>
<path fill="none" stroke="white" d="M1000.7,-102C1020.87,-96.66 1048.33,-89.39 1074.07,-82.58"/>
<polygon fill="white" stroke="white" points="1074.77,-86.01 1083.54,-80.07 1072.98,-79.24 1074.77,-86.01"/>
</g>
<!-- set_marker_node_Set(59) -->
<!-- set_marker_node_Set(11)&#45;&gt;set_marker_node_Set(59) -->
<g id="edge14" class="edge">
<title>set_marker_node_Set(11)&#45;&gt;set_marker_node_Set(59)</title>
<path fill="none" stroke="white" d="M983.77,-102C1003.28,-90.34 1041,-68.18 1074,-51 1079.41,-48.19 1085.08,-45.33 1090.77,-42.53"/>
<polygon fill="white" stroke="white" points="1092.17,-45.74 1099.64,-38.23 1089.11,-39.45 1092.17,-45.74"/>
</g>
<!-- set_marker_node_Set(20) -->
<!-- node_System(135) -->
<g id="node13" class="node">
<title>node_System(135)</title>
<polygon fill="#eff1f3" stroke="#eff1f3" points="1038,-164 901,-164 901,-128 1038,-128 1038,-164"/>
<text text-anchor="middle" x="969.5" y="-142.3" font-family="Times,serif" font-size="14.00">animation_player</text>
</g>
<!-- node_System(135)&#45;&gt;set_marker_node_Set(20) -->
<g id="edge16" class="edge">
<title>node_System(135)&#45;&gt;set_marker_node_Set(20)</title>
<path fill="none" stroke="white" d="M1038.36,-141.03C1046.29,-140.45 1054.45,-139.85 1062.57,-139.26"/>
<polygon fill="white" stroke="white" points="1062.78,-142.75 1072.49,-138.53 1062.26,-135.77 1062.78,-142.75"/>
</g>
<!-- set_marker_node_Set(12)&#45;&gt;set_marker_node_Set(6) -->
<g id="edge11" class="edge">
<title>set_marker_node_Set(12)&#45;&gt;set_marker_node_Set(6)</title>
<path fill="none" stroke="white" d="M1288,-39C1290.72,-39 1293.6,-39 1296.56,-39"/>
<polygon fill="white" stroke="white" points="1296.49,-42.5 1306.49,-39 1296.49,-35.5 1296.49,-42.5"/>
</g>
<!-- set_marker_node_Set(58)&#45;&gt;set_marker_node_Set(8) -->
<g id="edge12" class="edge">
<title>set_marker_node_Set(58)&#45;&gt;set_marker_node_Set(8)</title>
<path fill="none" stroke="white" d="M157,-96.09C162.09,-97.24 167.29,-98.4 172.4,-99.55"/>
<polygon fill="white" stroke="white" points="171.35,-102.9 181.87,-101.67 172.88,-96.07 171.35,-102.9"/>
</g>
<!-- set_marker_node_Set(59)&#45;&gt;set_marker_node_Set(12) -->
<g id="edge15" class="edge">
<title>set_marker_node_Set(59)&#45;&gt;set_marker_node_Set(12)</title>
<path fill="none" stroke="white" d="M1197,-25.4C1209.08,-27.82 1221.81,-30.36 1232.94,-32.59"/>
<polygon fill="white" stroke="white" points="1232.02,-35.97 1242.52,-34.5 1233.4,-29.11 1232.02,-35.97"/>
</g>
</g>
</svg>
