<?xml version="1.0" encoding="UTF-8" standalone="no"?>
<!DOCTYPE svg PUBLIC "-//W3C//DTD SVG 1.1//EN"
 "http://www.w3.org/Graphics/SVG/1.1/DTD/svg11.dtd">
<!-- Generated by graphviz version 7.1.0 (0)
 -->
<!-- Title: schedule Pages: 1 -->
<svg width="1534pt" height="140pt"
 viewBox="0.00 0.00 1534.00 140.00" xmlns="http://www.w3.org/2000/svg" xmlns:xlink="http://www.w3.org/1999/xlink">
<g id="graph0" class="graph" transform="scale(1 1) rotate(0) translate(4 136)">
<title>schedule</title>
<polygon fill="#0d1117" stroke="none" points="-4,4 -4,-136 1530,-136 1530,4 -4,4"/>
<g id="clust1" class="cluster">
<title>clusternode_Set(0)</title>
<polygon fill="#6f90ad" stroke="black" points="691,-62 691,-101 756,-101 756,-62 691,-62"/>
<text text-anchor="middle" x="723.5" y="-85.8" font-family="Helvetica,sans-Serif" font-size="14.00">Update</text>
</g>
<g id="clust2" class="cluster">
<title>clusternode_Set(2)</title>
<polygon fill="#6f90ad" stroke="black" points="70,-85 70,-124 152,-124 152,-85 70,-85"/>
<text text-anchor="middle" x="111" y="-108.8" font-family="Helvetica,sans-Serif" font-size="14.00">FirstFlush</text>
</g>
<g id="clust3" class="cluster">
<title>clusternode_Set(3)</title>
<polygon fill="#6f90ad" stroke="black" points="284,-62 284,-101 407,-101 407,-62 284,-62"/>
<text text-anchor="middle" x="345.5" y="-85.8" font-family="Helvetica,sans-Serif" font-size="14.00">PreUpdateFlush</text>
</g>
<g id="clust4" class="cluster">
<title>clusternode_Set(4)</title>
<polygon fill="#6f90ad" stroke="black" points="776,-62 776,-101 877,-101 877,-62 776,-62"/>
<text text-anchor="middle" x="826.5" y="-85.8" font-family="Helvetica,sans-Serif" font-size="14.00">UpdateFlush</text>
</g>
<g id="clust5" class="cluster">
<title>clusternode_Set(5)</title>
<polygon fill="#6f90ad" stroke="black" points="1233,-73 1233,-112 1362,-112 1362,-73 1233,-73"/>
<text text-anchor="middle" x="1297.5" y="-96.8" font-family="Helvetica,sans-Serif" font-size="14.00">PostUpdateFlush</text>
</g>
<g id="clust6" class="cluster">
<title>clusternode_Set(6)</title>
<polygon fill="#6f90ad" stroke="black" points="1446,-49 1446,-88 1526,-88 1526,-49 1446,-49"/>
<text text-anchor="middle" x="1486" y="-72.8" font-family="Helvetica,sans-Serif" font-size="14.00">LastFlush</text>
</g>
<g id="clust7" class="cluster">
<title>clusternode_Set(7)</title>
<polygon fill="#6f90ad" stroke="black" points="0,-61 0,-100 46,-100 46,-61 0,-61"/>
<text text-anchor="middle" x="23" y="-84.8" font-family="Helvetica,sans-Serif" font-size="14.00">First</text>
</g>
<g id="clust8" class="cluster">
<title>clusternode_Set(8)</title>
<polygon fill="#6f90ad" stroke="black" points="177,-62 177,-101 264,-101 264,-62 177,-62"/>
<text text-anchor="middle" x="220.5" y="-85.8" font-family="Helvetica,sans-Serif" font-size="14.00">PreUpdate</text>
</g>
<g id="clust9" class="cluster">
<title>clusternode_Set(9)</title>
<polygon fill="#6f90ad" stroke="black" points="427,-62 427,-101 551,-101 551,-62 427,-62"/>
<text text-anchor="middle" x="489" y="-85.8" font-family="Helvetica,sans-Serif" font-size="14.00">StateTransitions</text>
</g>
<g id="clust10" class="cluster">
<title>clusternode_Set(10)</title>
<polygon fill="#6f90ad" stroke="black" points="571,-62 571,-101 671,-101 671,-62 571,-62"/>
<text text-anchor="middle" x="621" y="-85.8" font-family="Helvetica,sans-Serif" font-size="14.00">FixedUpdate</text>
</g>
<g id="clust11" class="cluster">
<title>clusternode_Set(11)</title>
<polygon fill="#6f90ad" stroke="black" points="897,-8 897,-101 1213,-101 1213,-8 897,-8"/>
<text text-anchor="middle" x="1055" y="-85.8" font-family="Helvetica,sans-Serif" font-size="14.00">PostUpdate</text>
</g>
<g id="clust12" class="cluster">
<title>clusternode_Set(12)</title>
<polygon fill="#6f90ad" stroke="black" points="1382,-49 1382,-88 1426,-88 1426,-49 1382,-49"/>
<text text-anchor="middle" x="1404" y="-72.8" font-family="Helvetica,sans-Serif" font-size="14.00">Last</text>
</g>
<g id="clust13" class="cluster">
<title>clusternode_Set(58)</title>
<polygon fill="#6f90ad" stroke="black" points="66,-38 66,-77 157,-77 157,-38 66,-38"/>
<text text-anchor="middle" x="111.5" y="-61.8" font-family="Helvetica,sans-Serif" font-size="14.00">LoadAssets</text>
</g>
<g id="clust14" class="cluster">
<title>clusternode_Set(59)</title>
<polygon fill="#6f90ad" stroke="black" points="1249,-26 1249,-65 1345,-65 1345,-26 1249,-26"/>
<text text-anchor="middle" x="1297" y="-49.8" font-family="Helvetica,sans-Serif" font-size="14.00">AssetEvents</text>
</g>
<!-- set_marker_node_Set(0) -->
<!-- set_marker_node_Set(4) -->
<!-- set_marker_node_Set(0)&#45;&gt;set_marker_node_Set(4) -->
<g id="edge7" class="edge">
<title>set_marker_node_Set(0)&#45;&gt;set_marker_node_Set(4)</title>
<path fill="none" stroke="white" d="M756,-70C758.81,-70 761.71,-70 764.65,-70"/>
<polygon fill="white" stroke="white" points="764.49,-73.5 774.49,-70 764.49,-66.5 764.49,-73.5"/>
</g>
<!-- set_marker_node_Set(2) -->
<!-- set_marker_node_Set(8) -->
<!-- set_marker_node_Set(2)&#45;&gt;set_marker_node_Set(8) -->
<g id="edge2" class="edge">
<title>set_marker_node_Set(2)&#45;&gt;set_marker_node_Set(8)</title>
<path fill="none" stroke="white" d="M149.21,-85C154.62,-83.84 160.27,-82.62 165.92,-81.41"/>
<polygon fill="white" stroke="white" points="166.48,-84.87 175.53,-79.35 165.01,-78.02 166.48,-84.87"/>
</g>
<!-- set_marker_node_Set(3) -->
<!-- set_marker_node_Set(9) -->
<!-- set_marker_node_Set(3)&#45;&gt;set_marker_node_Set(9) -->
<g id="edge4" class="edge">
<title>set_marker_node_Set(3)&#45;&gt;set_marker_node_Set(9)</title>
<path fill="none" stroke="white" d="M407,-70C409.83,-70 412.68,-70 415.54,-70"/>
<polygon fill="white" stroke="white" points="415.49,-73.5 425.49,-70 415.49,-66.5 415.49,-73.5"/>
</g>
<!-- set_marker_node_Set(11) -->
<!-- set_marker_node_Set(4)&#45;&gt;set_marker_node_Set(11) -->
<g id="edge8" class="edge">
<title>set_marker_node_Set(4)&#45;&gt;set_marker_node_Set(11)</title>
<path fill="none" stroke="white" d="M877,-70C879.88,-70 882.83,-70 885.86,-70"/>
<polygon fill="white" stroke="white" points="885.49,-73.5 895.49,-70 885.49,-66.5 885.49,-73.5"/>
</g>
<!-- set_marker_node_Set(5) -->
<!-- set_marker_node_Set(12) -->
<!-- set_marker_node_Set(5)&#45;&gt;set_marker_node_Set(12) -->
<g id="edge10" class="edge">
<title>set_marker_node_Set(5)&#45;&gt;set_marker_node_Set(12)</title>
<path fill="none" stroke="white" d="M1343.71,-73C1349.88,-71.76 1356.11,-70.41 1362,-69 1364.97,-68.29 1368.04,-67.5 1371.11,-66.67"/>
<polygon fill="white" stroke="white" points="1371.88,-70.09 1380.55,-63.99 1369.97,-63.35 1371.88,-70.09"/>
</g>
<!-- set_marker_node_Set(6) -->
<!-- set_marker_node_Set(7) -->
<!-- set_marker_node_Set(7)&#45;&gt;set_marker_node_Set(2) -->
<g id="edge1" class="edge">
<title>set_marker_node_Set(7)&#45;&gt;set_marker_node_Set(2)</title>
<path fill="none" stroke="white" d="M46,-75.34C52.44,-77.18 59.5,-79.18 66,-81 67.17,-81.33 68.36,-81.66 69.55,-81.99"/>
<polygon fill="white" stroke="white" points="68.45,-85.32 79.02,-84.6 70.31,-78.57 68.45,-85.32"/>
</g>
<!-- set_marker_node_Set(58) -->
<!-- set_marker_node_Set(7)&#45;&gt;set_marker_node_Set(58) -->
<g id="edge13" class="edge">
<title>set_marker_node_Set(7)&#45;&gt;set_marker_node_Set(58)</title>
<path fill="none" stroke="white" d="M46,-63.12C48.89,-62.34 51.94,-61.53 55.09,-60.68"/>
<polygon fill="white" stroke="white" points="55.78,-64.12 64.54,-58.16 53.98,-57.36 55.78,-64.12"/>
</g>
<!-- set_marker_node_Set(8)&#45;&gt;set_marker_node_Set(3) -->
<g id="edge3" class="edge">
<title>set_marker_node_Set(8)&#45;&gt;set_marker_node_Set(3)</title>
<path fill="none" stroke="white" d="M264,-70C266.84,-70 269.75,-70 272.68,-70"/>
<polygon fill="white" stroke="white" points="272.49,-73.5 282.49,-70 272.49,-66.5 272.49,-73.5"/>
</g>
<!-- set_marker_node_Set(10) -->
<!-- set_marker_node_Set(9)&#45;&gt;set_marker_node_Set(10) -->
<g id="edge5" class="edge">
<title>set_marker_node_Set(9)&#45;&gt;set_marker_node_Set(10)</title>
<path fill="none" stroke="white" d="M551,-70C553.97,-70 556.95,-70 559.92,-70"/>
<polygon fill="white" stroke="white" points="559.49,-73.5 569.49,-70 559.49,-66.5 559.49,-73.5"/>
</g>
<!-- set_marker_node_Set(10)&#45;&gt;set_marker_node_Set(0) -->
<g id="edge6" class="edge">
<title>set_marker_node_Set(10)&#45;&gt;set_marker_node_Set(0)</title>
<path fill="none" stroke="white" d="M671,-70C673.85,-70 676.71,-70 679.54,-70"/>
<polygon fill="white" stroke="white" points="679.49,-73.5 689.49,-70 679.49,-66.5 679.49,-73.5"/>
</g>
<!-- set_marker_node_Set(11)&#45;&gt;set_marker_node_Set(5) -->
<g id="edge9" class="edge">
<title>set_marker_node_Set(11)&#45;&gt;set_marker_node_Set(5)</title>
<path fill="none" stroke="white" d="M1213,-77.2C1215.91,-77.33 1218.78,-77.46 1221.62,-77.59"/>
<polygon fill="white" stroke="white" points="1221.34,-81.08 1231.49,-78.04 1221.66,-74.09 1221.34,-81.08"/>
</g>
<!-- set_marker_node_Set(59) -->
<!-- set_marker_node_Set(11)&#45;&gt;set_marker_node_Set(59) -->
<g id="edge14" class="edge">
<title>set_marker_node_Set(11)&#45;&gt;set_marker_node_Set(59)</title>
<path fill="none" stroke="white" d="M1213,-61C1221.25,-59.45 1229.82,-57.3 1238.18,-54.9"/>
<polygon fill="white" stroke="white" points="1239,-58.3 1247.55,-52.05 1236.97,-51.6 1239,-58.3"/>
</g>
<!-- node_System(130) -->
<g id="node12" class="node">
<title>node_System(130)</title>
<polygon fill="#eff1f3" stroke="#eff1f3" points="1205,-52 905,-52 905,-16 1205,-16 1205,-52"/>
<text text-anchor="middle" x="1055" y="-30.3" font-family="Times,serif" font-size="14.00">play_queued_audio_system&lt;AudioSource&gt;</text>
</g>
<!-- set_marker_node_Set(12)&#45;&gt;set_marker_node_Set(6) -->
<g id="edge11" class="edge">
<title>set_marker_node_Set(12)&#45;&gt;set_marker_node_Set(6)</title>
<path fill="none" stroke="white" d="M1426,-57C1428.72,-57 1431.6,-57 1434.56,-57"/>
<polygon fill="white" stroke="white" points="1434.49,-60.5 1444.49,-57 1434.49,-53.5 1434.49,-60.5"/>
</g>
<!-- set_marker_node_Set(58)&#45;&gt;set_marker_node_Set(8) -->
<g id="edge12" class="edge">
<title>set_marker_node_Set(58)&#45;&gt;set_marker_node_Set(8)</title>
<path fill="none" stroke="white" d="M157,-56.09C162.09,-57.24 167.29,-58.4 172.4,-59.55"/>
<polygon fill="white" stroke="white" points="171.35,-62.9 181.87,-61.67 172.88,-56.07 171.35,-62.9"/>
</g>
<!-- set_marker_node_Set(59)&#45;&gt;set_marker_node_Set(12) -->
<g id="edge15" class="edge">
<title>set_marker_node_Set(59)&#45;&gt;set_marker_node_Set(12)</title>
<path fill="none" stroke="white" d="M1345,-44.3C1353.82,-46.23 1362.85,-48.21 1371.08,-50.01"/>
<polygon fill="white" stroke="white" points="1370.01,-53.36 1380.52,-52.08 1371.5,-46.52 1370.01,-53.36"/>
</g>
</g>
</svg>
