<?xml version="1.0" encoding="UTF-8" standalone="no"?>
<!DOCTYPE svg PUBLIC "-//W3C//DTD SVG 1.1//EN"
 "http://www.w3.org/Graphics/SVG/1.1/DTD/svg11.dtd">
<!-- Generated by graphviz version 14.1.5 (0)
 -->
<!-- Pages: 1 -->
<svg width="1123pt" height="220pt"
 viewBox="0.00 0.00 1123.00 220.00" xmlns="http://www.w3.org/2000/svg" xmlns:xlink="http://www.w3.org/1999/xlink">
<g id="graph0" class="graph" transform="scale(1 1) rotate(0) translate(4 216)">
<polygon fill="white" stroke="none" points="-4,4 -4,-216 1118.75,-216 1118.75,4 -4,4"/>
<g id="clust1" class="cluster">
<title>clusternode_Set(SystemSetKey(1v1))</title>
<g id="a_clust1"><a xlink:title="Prepass">
<path fill="#000000" fill-opacity="0.031373" stroke="#000000" stroke-width="2" stroke-opacity="0.250980" d="M42.88,-115C42.88,-115 88.88,-115 88.88,-115 94.88,-115 100.88,-121 100.88,-127 100.88,-127 100.88,-148 100.88,-148 100.88,-154 94.88,-160 88.88,-160 88.88,-160 42.88,-160 42.88,-160 36.88,-160 30.88,-154 30.88,-148 30.88,-148 30.88,-127 30.88,-127 30.88,-121 36.88,-115 42.88,-115"/>
<text xml:space="preserve" text-anchor="middle" x="65.88" y="-142.7" font-family="Helvetica,sans-Serif" font-size="14.00" fill="#000000">Prepass</text>
</a>
</g>
</g>
<g id="clust2" class="cluster">
<title>clusternode_Set(SystemSetKey(2v1))</title>
<g id="a_clust2"><a xlink:title="MainPass">
<path fill="#000000" fill-opacity="0.031373" stroke="#000000" stroke-width="2" stroke-opacity="0.250980" d="M170.75,-97C170.75,-97 573.5,-97 573.5,-97 579.5,-97 585.5,-103 585.5,-109 585.5,-109 585.5,-177 585.5,-177 585.5,-183 579.5,-189 573.5,-189 573.5,-189 170.75,-189 170.75,-189 164.75,-189 158.75,-183 158.75,-177 158.75,-177 158.75,-109 158.75,-109 158.75,-103 164.75,-97 170.75,-97"/>
<text xml:space="preserve" text-anchor="middle" x="372.12" y="-171.7" font-family="Helvetica,sans-Serif" font-size="14.00" fill="#000000">MainPass</text>
</a>
</g>
</g>
<g id="clust3" class="cluster">
<title>clusternode_Set(SystemSetKey(3v1))</title>
<g id="a_clust3"><a xlink:title="EarlyPostProcess">
<path fill="#000000" fill-opacity="0.031373" stroke="#000000" stroke-width="2" stroke-opacity="0.250980" d="M422.5,-44C422.5,-44 531.5,-44 531.5,-44 537.5,-44 543.5,-50 543.5,-56 543.5,-56 543.5,-77 543.5,-77 543.5,-83 537.5,-89 531.5,-89 531.5,-89 422.5,-89 422.5,-89 416.5,-89 410.5,-83 410.5,-77 410.5,-77 410.5,-56 410.5,-56 410.5,-50 416.5,-44 422.5,-44"/>
<text xml:space="preserve" text-anchor="middle" x="477" y="-71.7" font-family="Helvetica,sans-Serif" font-size="14.00" fill="#000000">EarlyPostProcess</text>
</a>
</g>
</g>
<g id="clust4" class="cluster">
<title>clusternode_Set(SystemSetKey(4v1))</title>
<g id="a_clust4"><a xlink:title="PostProcess">
<path fill="#000000" fill-opacity="0.031373" stroke="#000000" stroke-width="2" stroke-opacity="0.250980" d="M653.5,-44C653.5,-44 1094.75,-44 1094.75,-44 1100.75,-44 1106.75,-50 1106.75,-56 1106.75,-56 1106.75,-156 1106.75,-156 1106.75,-162 1100.75,-168 1094.75,-168 1094.75,-168 653.5,-168 653.5,-168 647.5,-168 641.5,-162 641.5,-156 641.5,-156 641.5,-56 641.5,-56 641.5,-50 647.5,-44 653.5,-44"/>
<text xml:space="preserve" text-anchor="middle" x="874.12" y="-150.7" font-family="Helvetica,sans-Serif" font-size="14.00" fill="#000000">PostProcess</text>
</a>
</g>
</g>
<!-- set_marker_node_Set(SystemSetKey(1v1)) -->
<!-- set_marker_node_Set(SystemSetKey(2v1)) -->
<!-- set_marker_node_Set(SystemSetKey(1v1))&#45;&gt;set_marker_node_Set(SystemSetKey(2v1)) -->
<g id="edge2" class="edge">
<title>set_marker_node_Set(SystemSetKey(1v1))&#45;&gt;set_marker_node_Set(SystemSetKey(2v1))</title>
<g id="a_edge2"><a xlink:title="Prepass → MainPass">
<path fill="none" stroke="#881877" stroke-width="2" d="M100.87,-121.08C114.47,-119.57 130.54,-117.83 146.07,-116.26"/>
<polygon fill="#881877" stroke="#881877" stroke-width="2" points="146.13,-119.77 155.74,-115.3 145.44,-112.8 146.13,-119.77"/>
</a>
</g>
</g>
<!-- set_marker_node_Set(SystemSetKey(3v1)) -->
<!-- set_marker_node_Set(SystemSetKey(2v1))&#45;&gt;set_marker_node_Set(SystemSetKey(3v1)) -->
<g id="edge15" class="edge">
<title>set_marker_node_Set(SystemSetKey(2v1))&#45;&gt;set_marker_node_Set(SystemSetKey(3v1))</title>
<g id="a_edge15"><a xlink:title="MainPass → EarlyPostProcess">
<path fill="none" stroke="#aa3a55" stroke-width="2" d="M295.88,-97C324.63,-90.12 363.67,-80.77 398.01,-72.55"/>
<polygon fill="#aa3a55" stroke="#aa3a55" stroke-width="2" points="398.65,-76 407.56,-70.27 397.02,-69.19 398.65,-76"/>
</a>
</g>
</g>
<!-- node_System(SystemKey(1v1)) -->
<g id="node3" class="node">
<title>node_System(SystemKey(1v1))</title>
<g id="a_node3"><a xlink:title="bevy_core_pipeline::core_2d::main_opaque_pass_2d_node::main_opaque_pass_2d">
<polygon fill="#eff1f3" stroke="#b4bec7" points="339.5,-156 166.75,-156 166.75,-120 339.5,-120 339.5,-156"/>
<text xml:space="preserve" text-anchor="middle" x="253.12" y="-133.32" font-family="Helvetica,sans-Serif" font-size="14.00" fill="#15191d">main_opaque_pass_2d</text>
</a>
</g>
</g>
<!-- node_System(SystemKey(2v1)) -->
<g id="node4" class="node">
<title>node_System(SystemKey(2v1))</title>
<g id="a_node4"><a xlink:title="bevy_core_pipeline::core_2d::main_transparent_pass_2d_node::main_transparent_pass_2d">
<polygon fill="#eff1f3" stroke="#b4bec7" points="577.5,-156 375.5,-156 375.5,-120 577.5,-120 577.5,-156"/>
<text xml:space="preserve" text-anchor="middle" x="476.5" y="-133.32" font-family="Helvetica,sans-Serif" font-size="14.00" fill="#15191d">main_transparent_pass_2d</text>
</a>
</g>
</g>
<!-- node_System(SystemKey(1v1))&#45;&gt;node_System(SystemKey(2v1)) -->
<g id="edge7" class="edge">
<title>node_System(SystemKey(1v1))&#45;&gt;node_System(SystemKey(2v1))</title>
<g id="a_edge7"><a xlink:title="main_opaque_pass_2d → main_transparent_pass_2d">
<path fill="none" stroke="#ee9e44" stroke-width="2" d="M339.71,-138C347.03,-138 354.5,-138 361.98,-138"/>
<polygon fill="#ee9e44" stroke="#ee9e44" stroke-width="2" points="361.98,-141.5 371.98,-138 361.98,-134.5 361.98,-141.5"/>
</a>
</g>
</g>
<!-- set_marker_node_Set(SystemSetKey(4v1)) -->
<!-- set_marker_node_Set(SystemSetKey(3v1))&#45;&gt;set_marker_node_Set(SystemSetKey(4v1)) -->
<g id="edge4" class="edge">
<title>set_marker_node_Set(SystemSetKey(3v1))&#45;&gt;set_marker_node_Set(SystemSetKey(4v1))</title>
<g id="a_edge4"><a xlink:title="EarlyPostProcess → PostProcess">
<path fill="none" stroke="#aa3a55" stroke-width="2" d="M543.5,-54C571.32,-54 603.13,-54 628.82,-54"/>
<polygon fill="#aa3a55" stroke="#aa3a55" stroke-width="2" points="628.48,-57.5 638.48,-54 628.48,-50.5 628.48,-57.5"/>
</a>
</g>
</g>
<!-- node_System(SystemKey(4v1)) -->
<g id="node12" class="node">
<title>node_System(SystemKey(4v1))</title>
<g id="a_node12"><a xlink:title="bevy_core_pipeline::upscaling::node::upscaling">
<polygon fill="lightgrey" stroke="black" points="1008.75,-36 924.5,-36 924.5,0 1008.75,0 1008.75,-36"/>
<text xml:space="preserve" text-anchor="middle" x="966.62" y="-13.32" font-family="Times,serif" font-size="14.00">upscaling</text>
</a>
</g>
</g>
<!-- set_marker_node_Set(SystemSetKey(4v1))&#45;&gt;node_System(SystemKey(4v1)) -->
<g id="edge8" class="edge">
<title>set_marker_node_Set(SystemSetKey(4v1))&#45;&gt;node_System(SystemKey(4v1))</title>
<g id="a_edge8"><a xlink:title="PostProcess → upscaling">
<path fill="none" stroke="#663699" stroke-width="2" d="M876.73,-44C880.69,-43.37 884.62,-42.7 888.5,-42 896.1,-40.62 904.01,-38.72 911.73,-36.59"/>
<polygon fill="#663699" stroke="#663699" stroke-width="2" points="912.55,-40 921.16,-33.82 910.57,-33.28 912.55,-40"/>
</a>
</g>
</g>
<!-- node_System(SystemKey(11v1)) -->
<g id="node15" class="node">
<title>node_System(SystemKey(11v1))</title>
<g id="a_node15"><a xlink:title="bevy_ui_render::render_pass::ui_pass">
<polygon fill="lightgrey" stroke="black" points="868.62,-36 800.12,-36 800.12,0 868.62,0 868.62,-36"/>
<text xml:space="preserve" text-anchor="middle" x="834.38" y="-13.32" font-family="Times,serif" font-size="14.00">ui_pass</text>
</a>
</g>
</g>
<!-- set_marker_node_Set(SystemSetKey(4v1))&#45;&gt;node_System(SystemKey(11v1)) -->
<g id="edge9" class="edge">
<title>set_marker_node_Set(SystemSetKey(4v1))&#45;&gt;node_System(SystemKey(11v1))</title>
<g id="a_edge9"><a xlink:title="PostProcess → ui_pass">
<path fill="none" stroke="#3363bb" stroke-width="2" d="M722.5,-44C742.7,-39.27 766.85,-33.6 787.45,-28.77"/>
<polygon fill="#3363bb" stroke="#3363bb" stroke-width="2" points="788.03,-32.23 796.97,-26.54 786.43,-25.41 788.03,-32.23"/>
</a>
</g>
</g>
<!-- node_System(SystemKey(3v1)) -->
<g id="node7" class="node">
<title>node_System(SystemKey(3v1))</title>
<g id="a_node7"><a xlink:title="bevy_core_pipeline::tonemapping::node::tonemapping">
<polygon fill="#eff1f3" stroke="#b4bec7" points="888.5,-135 780.25,-135 780.25,-99 888.5,-99 888.5,-135"/>
<text xml:space="preserve" text-anchor="middle" x="834.38" y="-112.33" font-family="Helvetica,sans-Serif" font-size="14.00" fill="#15191d">tonemapping</text>
</a>
</g>
</g>
<!-- node_System(SystemKey(8v1)) -->
<g id="node9" class="node">
<title>node_System(SystemKey(8v1))</title>
<g id="a_node9"><a xlink:title="bevy_anti_alias::fxaa::node::fxaa">
<polygon fill="#eff1f3" stroke="#b4bec7" points="993.62,-88 939.62,-88 939.62,-52 993.62,-52 993.62,-88"/>
<text xml:space="preserve" text-anchor="middle" x="966.62" y="-65.33" font-family="Helvetica,sans-Serif" font-size="14.00" fill="#15191d">fxaa</text>
</a>
</g>
</g>
<!-- node_System(SystemKey(3v1))&#45;&gt;node_System(SystemKey(8v1)) -->
<g id="edge3" class="edge">
<title>node_System(SystemKey(3v1))&#45;&gt;node_System(SystemKey(8v1))</title>
<g id="a_edge3"><a xlink:title="SystemTypeSet:bevy_core_pipeline::tonemapping::node::tonemapping → fxaa">
<path fill="none" stroke="#00b0cc" stroke-width="2" d="M886.48,-98.56C900.06,-93.66 914.49,-88.45 927.26,-83.85"/>
<polygon fill="#00b0cc" stroke="#00b0cc" stroke-width="2" points="928.31,-87.18 936.53,-80.5 925.94,-80.6 928.31,-87.18"/>
</a>
</g>
</g>
<!-- node_System(SystemKey(9v1)) -->
<g id="node10" class="node">
<title>node_System(SystemKey(9v1))</title>
<g id="a_node10"><a xlink:title="bevy_anti_alias::smaa::smaa">
<polygon fill="#eff1f3" stroke="#b4bec7" points="993.62,-135 939.62,-135 939.62,-99 993.62,-99 993.62,-135"/>
<text xml:space="preserve" text-anchor="middle" x="966.62" y="-112.33" font-family="Helvetica,sans-Serif" font-size="14.00" fill="#15191d">smaa</text>
</a>
</g>
</g>
<!-- node_System(SystemKey(3v1))&#45;&gt;node_System(SystemKey(9v1)) -->
<g id="edge13" class="edge">
<title>node_System(SystemKey(3v1))&#45;&gt;node_System(SystemKey(9v1))</title>
<g id="a_edge13"><a xlink:title="SystemTypeSet:bevy_core_pipeline::tonemapping::node::tonemapping → smaa">
<path fill="none" stroke="#881877" stroke-width="2" d="M888.73,-117C901.39,-117 914.66,-117 926.55,-117"/>
<polygon fill="#881877" stroke="#881877" stroke-width="2" points="926.24,-120.5 936.24,-117 926.24,-113.5 926.24,-120.5"/>
</a>
</g>
</g>
<!-- node_System(SystemKey(6v1)) -->
<g id="node8" class="node">
<title>node_System(SystemKey(6v1))</title>
<g id="a_node8"><a xlink:title="bevy_post_process::bloom::bloom">
<polygon fill="#eff1f3" stroke="#b4bec7" points="708.25,-135 649.5,-135 649.5,-99 708.25,-99 708.25,-135"/>
<text xml:space="preserve" text-anchor="middle" x="678.88" y="-112.33" font-family="Helvetica,sans-Serif" font-size="14.00" fill="#15191d">bloom</text>
</a>
</g>
</g>
<!-- node_System(SystemKey(6v1))&#45;&gt;node_System(SystemKey(3v1)) -->
<g id="edge5" class="edge">
<title>node_System(SystemKey(6v1))&#45;&gt;node_System(SystemKey(3v1))</title>
<g id="a_edge5"><a xlink:title="bloom → SystemTypeSet:bevy_core_pipeline::tonemapping::node::tonemapping">
<path fill="none" stroke="#44d488" stroke-width="2" d="M708.75,-117C725.21,-117 746.57,-117 766.94,-117"/>
<polygon fill="#44d488" stroke="#44d488" stroke-width="2" points="766.75,-120.5 776.75,-117 766.75,-113.5 766.75,-120.5"/>
</a>
</g>
</g>
<!-- node_System(SystemKey(7v1)) -->
<g id="node14" class="node">
<title>node_System(SystemKey(7v1))</title>
<g id="a_node14"><a xlink:title="bevy_post_process::effect_stack::post_processing">
<polygon fill="lightgrey" stroke="black" points="744.25,-212 613.5,-212 613.5,-176 744.25,-176 744.25,-212"/>
<text xml:space="preserve" text-anchor="middle" x="678.88" y="-189.32" font-family="Times,serif" font-size="14.00">post_processing</text>
</a>
</g>
</g>
<!-- node_System(SystemKey(6v1))&#45;&gt;node_System(SystemKey(7v1)) -->
<g id="edge11" class="edge">
<title>node_System(SystemKey(6v1))&#45;&gt;node_System(SystemKey(7v1))</title>
<g id="a_edge11"><a xlink:title="SystemTypeSet:bevy_post_process::bloom::bloom → post_processing">
<path fill="none" stroke="#99d955" stroke-width="2" d="M678.88,-135.35C678.88,-144.48 678.88,-153.62 678.88,-162.76"/>
<polygon fill="#99d955" stroke="#99d955" stroke-width="2" points="675.38,-162.64 678.88,-172.64 682.38,-162.64 675.38,-162.64"/>
</a>
</g>
</g>
<!-- node_System(SystemKey(10v1)) -->
<g id="node11" class="node">
<title>node_System(SystemKey(10v1))</title>
<g id="a_node11"><a xlink:title="bevy_anti_alias::contrast_adaptive_sharpening::node::cas">
<polygon fill="#eff1f3" stroke="#b4bec7" points="1098.75,-111 1044.75,-111 1044.75,-75 1098.75,-75 1098.75,-111"/>
<text xml:space="preserve" text-anchor="middle" x="1071.75" y="-88.33" font-family="Helvetica,sans-Serif" font-size="14.00" fill="#15191d">cas</text>
</a>
</g>
</g>
<!-- node_System(SystemKey(8v1))&#45;&gt;node_System(SystemKey(10v1)) -->
<g id="edge12" class="edge">
<title>node_System(SystemKey(8v1))&#45;&gt;node_System(SystemKey(10v1))</title>
<g id="a_edge12"><a xlink:title="SystemTypeSet:bevy_anti_alias::fxaa::node::fxaa → cas">
<path fill="none" stroke="#eede00" stroke-width="2" d="M993.91,-75.86C1005.43,-78.43 1019.18,-81.5 1031.84,-84.32"/>
<polygon fill="#eede00" stroke="#eede00" stroke-width="2" points="1031.03,-87.73 1041.55,-86.49 1032.56,-80.9 1031.03,-87.73"/>
</a>
</g>
</g>
<!-- node_System(SystemKey(9v1))&#45;&gt;node_System(SystemKey(10v1)) -->
<g id="edge14" class="edge">
<title>node_System(SystemKey(9v1))&#45;&gt;node_System(SystemKey(10v1))</title>
<g id="a_edge14"><a xlink:title="SystemTypeSet:bevy_anti_alias::smaa::smaa → cas">
<path fill="none" stroke="#00b0cc" stroke-width="2" d="M993.91,-110.88C1005.43,-108.2 1019.18,-105 1031.84,-102.05"/>
<polygon fill="#00b0cc" stroke="#00b0cc" stroke-width="2" points="1032.61,-105.47 1041.56,-99.79 1031.03,-98.65 1032.61,-105.47"/>
</a>
</g>
</g>
<!-- node_System(SystemKey(5v1)) -->
<g id="node13" class="node">
<title>node_System(SystemKey(5v1))</title>
<g id="a_node13"><a xlink:title="bevy_post_process::msaa_writeback::msaa_writeback">
<polygon fill="lightgrey" stroke="black" points="130.75,-107 0,-107 0,-71 130.75,-71 130.75,-107"/>
<text xml:space="preserve" text-anchor="middle" x="65.38" y="-84.33" font-family="Times,serif" font-size="14.00">msaa_writeback</text>
</a>
</g>
</g>
<!-- node_System(SystemKey(5v1))&#45;&gt;set_marker_node_Set(SystemSetKey(2v1)) -->
<g id="edge10" class="edge">
<title>node_System(SystemKey(5v1))&#45;&gt;set_marker_node_Set(SystemSetKey(2v1))</title>
<g id="a_edge10"><a xlink:title="msaa_writeback → MainPass">
<path fill="none" stroke="#22c2bb" stroke-width="2" d="M131.08,-95.27C135.98,-95.75 141,-96.23 146.07,-96.72"/>
<polygon fill="#22c2bb" stroke="#22c2bb" stroke-width="2" points="145.45,-100.18 155.74,-97.66 146.12,-93.21 145.45,-100.18"/>
</a>
</g>
</g>
<!-- node_System(SystemKey(7v1))&#45;&gt;node_System(SystemKey(3v1)) -->
<g id="edge1" class="edge">
<title>node_System(SystemKey(7v1))&#45;&gt;node_System(SystemKey(3v1))</title>
<g id="a_edge1"><a xlink:title="post_processing → SystemTypeSet:bevy_core_pipeline::tonemapping::node::tonemapping">
<path fill="none" stroke="#eede00" stroke-width="2" d="M731.87,-175.54C736.1,-173.76 740.27,-171.91 744.25,-170 761.37,-161.8 779.5,-151.37 794.91,-141.93"/>
<polygon fill="#eede00" stroke="#eede00" stroke-width="2" points="796.38,-145.14 803.02,-136.88 792.68,-139.19 796.38,-145.14"/>
</a>
</g>
</g>
<!-- node_System(SystemKey(11v1))&#45;&gt;node_System(SystemKey(4v1)) -->
<g id="edge6" class="edge">
<title>node_System(SystemKey(11v1))&#45;&gt;node_System(SystemKey(4v1))</title>
<g id="a_edge6"><a xlink:title="ui_pass → SystemTypeSet:bevy_core_pipeline::upscaling::node::upscaling">
<path fill="none" stroke="#0090cc" stroke-width="2" d="M868.92,-18C881.84,-18 896.96,-18 911.35,-18"/>
<polygon fill="#0090cc" stroke="#0090cc" stroke-width="2" points="911.25,-21.5 921.25,-18 911.25,-14.5 911.25,-21.5"/>
</a>
</g>
</g>
</g>
</svg>
