<?xml version="1.0" encoding="UTF-8" standalone="no"?>
<!DOCTYPE svg PUBLIC "-//W3C//DTD SVG 1.1//EN"
 "http://www.w3.org/Graphics/SVG/1.1/DTD/svg11.dtd">
<!-- Generated by graphviz version 7.1.0 (0)
 -->
<!-- Pages: 1 -->
<svg width="3239pt" height="1807pt"
 viewBox="0.00 0.00 3239.00 1807.00" xmlns="http://www.w3.org/2000/svg" xmlns:xlink="http://www.w3.org/1999/xlink">
<g id="graph0" class="graph" transform="scale(1 1) rotate(0) translate(4 1803)">
<polygon fill="white" stroke="none" points="-4,4 -4,-1803 3235,-1803 3235,4 -4,4"/>
<g id="clust1" class="cluster">
<title>clusternode_Set(1)</title>
<g id="a_clust1"><a xlink:title="PrepareFlush">
<polygon fill="white" stroke="black" points="825.5,-787 825.5,-880 1002.5,-880 1002.5,-787 825.5,-787"/>
<text text-anchor="middle" x="914" y="-864.8" font-family="Helvetica,sans-Serif" font-size="14.00">PrepareFlush</text>
</a>
</g>
</g>
<g id="clust2" class="cluster">
<title>clusternode_Set(2)</title>
<g id="a_clust2"><a xlink:title="QueueFlush">
<polygon fill="white" stroke="black" points="1491,-710 1491,-803 1668,-803 1668,-710 1491,-710"/>
<text text-anchor="middle" x="1579.5" y="-787.8" font-family="Helvetica,sans-Serif" font-size="14.00">QueueFlush</text>
</a>
</g>
</g>
<g id="clust3" class="cluster">
<title>clusternode_Set(3)</title>
<g id="a_clust3"><a xlink:title="PhaseSortFlush">
<polygon fill="white" stroke="black" points="2077.5,-285 2077.5,-378 2254.5,-378 2254.5,-285 2077.5,-285"/>
<text text-anchor="middle" x="2166" y="-362.8" font-family="Helvetica,sans-Serif" font-size="14.00">PhaseSortFlush</text>
</a>
</g>
</g>
<g id="clust4" class="cluster">
<title>clusternode_Set(4)</title>
<g id="a_clust4"><a xlink:title="RenderFlush">
<polygon fill="white" stroke="black" points="2593,-238 2593,-331 2770,-331 2770,-238 2593,-238"/>
<text text-anchor="middle" x="2681.5" y="-315.8" font-family="Helvetica,sans-Serif" font-size="14.00">RenderFlush</text>
</a>
</g>
</g>
<g id="clust5" class="cluster">
<title>clusternode_Set(5)</title>
<g id="a_clust5"><a xlink:title="CleanupFlush">
<polygon fill="white" stroke="black" points="3046,-238 3046,-331 3223,-331 3223,-238 3046,-238"/>
<text text-anchor="middle" x="3134.5" y="-315.8" font-family="Helvetica,sans-Serif" font-size="14.00">CleanupFlush</text>
</a>
</g>
</g>
<g id="clust6" class="cluster">
<title>clusternode_Set(6)</title>
<g id="a_clust6"><a xlink:title="ExtractCommands">
<polygon fill="white" stroke="black" points="8,-1292 8,-1385 212,-1385 212,-1292 8,-1292"/>
<text text-anchor="middle" x="110" y="-1369.8" font-family="Helvetica,sans-Serif" font-size="14.00">ExtractCommands</text>
</a>
</g>
</g>
<g id="clust7" class="cluster">
<title>clusternode_Set(7)</title>
<g id="a_clust7"><a xlink:title="Prepare">
<polygon fill="white" stroke="black" points="386,-914 386,-1791 1380.5,-1791 1380.5,-914 386,-914"/>
<text text-anchor="middle" x="883.25" y="-1775.8" font-family="Helvetica,sans-Serif" font-size="14.00">Prepare</text>
</a>
</g>
</g>
<g id="clust8" class="cluster">
<title>clusternode_Set(16)</title>
<g id="a_clust8"><a xlink:title="Prepare">
<polygon fill="white" stroke="black" points="490,-1667 490,-1760 643,-1760 643,-1667 490,-1667"/>
<text text-anchor="middle" x="566.5" y="-1744.8" font-family="Helvetica,sans-Serif" font-size="14.00">Prepare</text>
</a>
</g>
</g>
<g id="clust9" class="cluster">
<title>clusternode_Set(18)</title>
<g id="a_clust9"><a xlink:title="PrepareUniforms">
<polygon fill="white" stroke="black" points="1178.5,-1223 1178.5,-1316 1372.5,-1316 1372.5,-1223 1178.5,-1223"/>
<text text-anchor="middle" x="1275.5" y="-1300.8" font-family="Helvetica,sans-Serif" font-size="14.00">PrepareUniforms</text>
</a>
</g>
</g>
<g id="clust10" class="cluster">
<title>clusternode_Set(22)</title>
<g id="a_clust10"><a xlink:title="PreAssetPrepare">
<polygon fill="white" stroke="black" points="472,-1566 472,-1659 661,-1659 661,-1566 472,-1566"/>
<text text-anchor="middle" x="566.5" y="-1643.8" font-family="Helvetica,sans-Serif" font-size="14.00">PreAssetPrepare</text>
</a>
</g>
</g>
<g id="clust11" class="cluster">
<title>clusternode_Set(23)</title>
<g id="a_clust11"><a xlink:title="AssetPrepare">
<polygon fill="white" stroke="black" points="822.5,-1407 822.5,-1500 1005.5,-1500 1005.5,-1407 822.5,-1407"/>
<text text-anchor="middle" x="914" y="-1484.8" font-family="Helvetica,sans-Serif" font-size="14.00">AssetPrepare</text>
</a>
</g>
</g>
<g id="clust12" class="cluster">
<title>clusternode_Set(24)</title>
<g id="a_clust12"><a xlink:title="PostAssetPrepare">
<polygon fill="white" stroke="black" points="1208.5,-1461 1208.5,-1500 1342.5,-1500 1342.5,-1461 1208.5,-1461"/>
<text text-anchor="middle" x="1275.5" y="-1484.8" font-family="Helvetica,sans-Serif" font-size="14.00">PostAssetPrepare</text>
</a>
</g>
</g>
<g id="clust13" class="cluster">
<title>clusternode_Set(62)</title>
<g id="a_clust13"><a xlink:title="PrepareFog">
<polygon fill="white" stroke="black" points="509.5,-1465 509.5,-1558 623.5,-1558 623.5,-1465 509.5,-1465"/>
<text text-anchor="middle" x="566.5" y="-1542.8" font-family="Helvetica,sans-Serif" font-size="14.00">PrepareFog</text>
</a>
</g>
</g>
<g id="clust14" class="cluster">
<title>clusternode_Set(63)</title>
<g id="a_clust14"><a xlink:title="PrepareLights">
<polygon fill="white" stroke="black" points="502,-1364 502,-1457 631,-1457 631,-1364 502,-1364"/>
<text text-anchor="middle" x="566.5" y="-1441.8" font-family="Helvetica,sans-Serif" font-size="14.00">PrepareLights</text>
</a>
</g>
</g>
<g id="clust15" class="cluster">
<title>clusternode_Set(64)</title>
<g id="a_clust15"><a xlink:title="PrepareClusters">
<polygon fill="white" stroke="black" points="842,-1306 842,-1399 986,-1399 986,-1306 842,-1306"/>
<text text-anchor="middle" x="914" y="-1383.8" font-family="Helvetica,sans-Serif" font-size="14.00">PrepareClusters</text>
</a>
</g>
</g>
<g id="clust16" class="cluster">
<title>clusternode_Set(8)</title>
<g id="a_clust16"><a xlink:title="Queue">
<polygon fill="white" stroke="black" points="1081,-8 1081,-906 1470,-906 1470,-8 1081,-8"/>
<text text-anchor="middle" x="1275.5" y="-890.8" font-family="Helvetica,sans-Serif" font-size="14.00">Queue</text>
</a>
</g>
</g>
<g id="clust17" class="cluster">
<title>clusternode_Set(65)</title>
<g id="a_clust17"><a xlink:title="QueueShadows">
<polygon fill="white" stroke="black" points="1206.5,-782 1206.5,-875 1344.5,-875 1344.5,-782 1206.5,-782"/>
<text text-anchor="middle" x="1275.5" y="-859.8" font-family="Helvetica,sans-Serif" font-size="14.00">QueueShadows</text>
</a>
</g>
</g>
<g id="clust18" class="cluster">
<title>clusternode_Set(9)</title>
<g id="a_clust18"><a xlink:title="PhaseSort">
<polygon fill="white" stroke="black" points="1689,-386 1689,-857 2307,-857 2307,-386 1689,-386"/>
<text text-anchor="middle" x="1998" y="-841.8" font-family="Helvetica,sans-Serif" font-size="14.00">PhaseSort</text>
</a>
</g>
</g>
<g id="clust19" class="cluster">
<title>clusternode_Set(10)</title>
<g id="a_clust19"><a xlink:title="Render">
<polygon fill="white" stroke="black" points="2328,-339 2328,-432 2747.5,-432 2747.5,-339 2328,-339"/>
<text text-anchor="middle" x="2537.75" y="-416.8" font-family="Helvetica,sans-Serif" font-size="14.00">Render</text>
</a>
</g>
</g>
<g id="clust20" class="cluster">
<title>clusternode_Set(11)</title>
<g id="a_clust20"><a xlink:title="Cleanup">
<polygon fill="white" stroke="black" points="2791,-184 2791,-331 3025,-331 3025,-184 2791,-184"/>
<text text-anchor="middle" x="2908" y="-315.8" font-family="Helvetica,sans-Serif" font-size="14.00">Cleanup</text>
</a>
</g>
</g>
<!-- set_marker_node_Set(1) -->
<!-- set_marker_node_Set(8) -->
<!-- set_marker_node_Set(1)&#45;&gt;set_marker_node_Set(8) -->
<g id="edge3" class="edge">
<title>set_marker_node_Set(1)&#45;&gt;set_marker_node_Set(8)</title>
<g id="a_edge3"><a xlink:title="PrepareFlush → Queue">
<path fill="none" stroke="#00b0cc" stroke-width="2" d="M1002.5,-856.88C1020.05,-854.84 1037.52,-849.89 1052,-840 1073,-825.65 1061.4,-803.66 1071.87,-787.05"/>
<polygon fill="#00b0cc" stroke="#00b0cc" stroke-width="2" points="1074.21,-789.66 1078.85,-780.13 1069.29,-784.69 1074.21,-789.66"/>
</a>
</g>
</g>
<!-- node_System(0) -->
<g id="node2" class="node">
<title>node_System(0)</title>
<g id="a_node2"><a xlink:title="bevy_ecs::schedule::executor::apply_system_buffers">
<polygon fill="white" stroke="black" points="994.5,-831 833.5,-831 833.5,-795 994.5,-795 994.5,-831"/>
<text text-anchor="middle" x="914" y="-809.3" font-family="Times,serif" font-size="14.00">apply_system_buffers</text>
</a>
</g>
</g>
<!-- set_marker_node_Set(2) -->
<!-- set_marker_node_Set(9) -->
<!-- set_marker_node_Set(2)&#45;&gt;set_marker_node_Set(9) -->
<g id="edge5" class="edge">
<title>set_marker_node_Set(2)&#45;&gt;set_marker_node_Set(9)</title>
<g id="a_edge5"><a xlink:title="QueueFlush → PhaseSort">
<path fill="none" stroke="#44d488" stroke-width="2" d="M1668,-772C1670.72,-772 1673.47,-772 1676.25,-772"/>
<polygon fill="#44d488" stroke="#44d488" stroke-width="2" points="1675.97,-775.5 1685.97,-772 1675.97,-768.5 1675.97,-775.5"/>
</a>
</g>
</g>
<!-- node_System(1) -->
<g id="node4" class="node">
<title>node_System(1)</title>
<g id="a_node4"><a xlink:title="bevy_ecs::schedule::executor::apply_system_buffers">
<polygon fill="white" stroke="black" points="1660,-754 1499,-754 1499,-718 1660,-718 1660,-754"/>
<text text-anchor="middle" x="1579.5" y="-732.3" font-family="Times,serif" font-size="14.00">apply_system_buffers</text>
</a>
</g>
</g>
<!-- set_marker_node_Set(3) -->
<!-- set_marker_node_Set(10) -->
<!-- set_marker_node_Set(3)&#45;&gt;set_marker_node_Set(10) -->
<g id="edge7" class="edge">
<title>set_marker_node_Set(3)&#45;&gt;set_marker_node_Set(10)</title>
<g id="a_edge7"><a xlink:title="PhaseSortFlush → Render">
<path fill="none" stroke="#ee9e44" stroke-width="2" d="M2254.5,-347C2273.74,-347 2294.54,-347 2315.13,-347"/>
<polygon fill="#ee9e44" stroke="#ee9e44" stroke-width="2" points="2314.98,-350.5 2324.98,-347 2314.98,-343.5 2314.98,-350.5"/>
</a>
</g>
</g>
<!-- node_System(2) -->
<g id="node6" class="node">
<title>node_System(2)</title>
<g id="a_node6"><a xlink:title="bevy_ecs::schedule::executor::apply_system_buffers">
<polygon fill="white" stroke="black" points="2246.5,-329 2085.5,-329 2085.5,-293 2246.5,-293 2246.5,-329"/>
<text text-anchor="middle" x="2166" y="-307.3" font-family="Times,serif" font-size="14.00">apply_system_buffers</text>
</a>
</g>
</g>
<!-- set_marker_node_Set(4) -->
<!-- set_marker_node_Set(11) -->
<!-- set_marker_node_Set(4)&#45;&gt;set_marker_node_Set(11) -->
<g id="edge9" class="edge">
<title>set_marker_node_Set(4)&#45;&gt;set_marker_node_Set(11)</title>
<g id="a_edge9"><a xlink:title="RenderFlush → Cleanup">
<path fill="none" stroke="#3363bb" stroke-width="2" d="M2770,-300C2772.64,-300 2775.31,-300 2777.98,-300"/>
<polygon fill="#3363bb" stroke="#3363bb" stroke-width="2" points="2777.97,-303.5 2787.97,-300 2777.97,-296.5 2777.97,-303.5"/>
</a>
</g>
</g>
<!-- node_System(3) -->
<g id="node8" class="node">
<title>node_System(3)</title>
<g id="a_node8"><a xlink:title="bevy_ecs::schedule::executor::apply_system_buffers">
<polygon fill="white" stroke="black" points="2762,-282 2601,-282 2601,-246 2762,-246 2762,-282"/>
<text text-anchor="middle" x="2681.5" y="-260.3" font-family="Times,serif" font-size="14.00">apply_system_buffers</text>
</a>
</g>
</g>
<!-- set_marker_node_Set(5) -->
<!-- node_System(4) -->
<g id="node10" class="node">
<title>node_System(4)</title>
<g id="a_node10"><a xlink:title="bevy_ecs::schedule::executor::apply_system_buffers">
<polygon fill="white" stroke="black" points="3215,-282 3054,-282 3054,-246 3215,-246 3215,-282"/>
<text text-anchor="middle" x="3134.5" y="-260.3" font-family="Times,serif" font-size="14.00">apply_system_buffers</text>
</a>
</g>
</g>
<!-- set_marker_node_Set(6) -->
<!-- set_marker_node_Set(7) -->
<!-- set_marker_node_Set(6)&#45;&gt;set_marker_node_Set(7) -->
<g id="edge1" class="edge">
<title>set_marker_node_Set(6)&#45;&gt;set_marker_node_Set(7)</title>
<g id="a_edge1"><a xlink:title="ExtractCommands → Prepare">
<path fill="none" stroke="#eede00" stroke-width="2" d="M212,-1354C259.46,-1354 317.69,-1354 373.08,-1354"/>
<polygon fill="#eede00" stroke="#eede00" stroke-width="2" points="372.97,-1357.5 382.97,-1354 372.97,-1350.5 372.97,-1357.5"/>
</a>
</g>
</g>
<!-- node_System(5) -->
<g id="node12" class="node">
<title>node_System(5)</title>
<g id="a_node12"><a xlink:title="bevy_render::apply_extract_commands">
<polygon fill="white" stroke="black" points="204,-1336 16,-1336 16,-1300 204,-1300 204,-1336"/>
<text text-anchor="middle" x="110" y="-1314.3" font-family="Times,serif" font-size="14.00">apply_extract_commands</text>
</a>
</g>
</g>
<!-- set_marker_node_Set(7)&#45;&gt;set_marker_node_Set(1) -->
<g id="edge2" class="edge">
<title>set_marker_node_Set(7)&#45;&gt;set_marker_node_Set(1)</title>
<g id="a_edge2"><a xlink:title="Prepare → PrepareFlush">
<path fill="none" stroke="#881877" stroke-width="2" d="M773.79,-914C774.49,-912.43 775.22,-911.09 776,-910 785.72,-896.33 799.23,-885.68 814,-877.39"/>
<polygon fill="#881877" stroke="#881877" stroke-width="2" points="815.5,-880.56 822.81,-872.88 812.31,-874.32 815.5,-880.56"/>
</a>
</g>
</g>
<!-- set_marker_node_Set(16) -->
<!-- node_System(11) -->
<g id="node29" class="node">
<title>node_System(11)</title>
<g id="a_node29"><a xlink:title="bevy_render::view::prepare_view_targets">
<polygon fill="white" stroke="black" points="995,-1652 833,-1652 833,-1616 995,-1616 995,-1652"/>
<text text-anchor="middle" x="914" y="-1630.3" font-family="Times,serif" font-size="14.00">prepare_view_targets</text>
</a>
</g>
</g>
<!-- set_marker_node_Set(16)&#45;&gt;node_System(11) -->
<g id="edge12" class="edge">
<title>set_marker_node_Set(16)&#45;&gt;node_System(11)</title>
<g id="a_edge12"><a xlink:title="Prepare → prepare_view_targets">
<path fill="none" stroke="#eede00" stroke-width="2" d="M643,-1671.27C672.95,-1669.39 707.66,-1666.7 739,-1663 765.4,-1659.88 793.9,-1655.55 820.04,-1651.18"/>
<polygon fill="#eede00" stroke="#eede00" stroke-width="2" points="820.41,-1654.66 829.68,-1649.54 819.23,-1647.76 820.41,-1654.66"/>
</a>
</g>
</g>
<!-- node_System(9) -->
<g id="node15" class="node">
<title>node_System(9)</title>
<g id="a_node15"><a xlink:title="bevy_render::view::window::prepare_windows">
<polygon fill="white" stroke="black" points="635,-1729 498,-1729 498,-1693 635,-1693 635,-1729"/>
<text text-anchor="middle" x="566.5" y="-1707.3" font-family="Times,serif" font-size="14.00">prepare_windows</text>
</a>
</g>
</g>
<!-- node_System(18) -->
<g id="node31" class="node">
<title>node_System(18)</title>
<g id="a_node31"><a xlink:title="bevy_core_pipeline::core_3d::prepare_core_3d_depth_textures">
<polygon fill="white" stroke="black" points="1032,-1706 796,-1706 796,-1670 1032,-1670 1032,-1706"/>
<text text-anchor="middle" x="914" y="-1684.3" font-family="Times,serif" font-size="14.00">prepare_core_3d_depth_textures</text>
</a>
</g>
</g>
<!-- node_System(9)&#45;&gt;node_System(18) -->
<g id="edge17" class="edge">
<title>node_System(9)&#45;&gt;node_System(18)</title>
<g id="a_edge17"><a xlink:title="SystemTypeSet(prepare_windows&quot;) → prepare_core_3d_depth_textures">
<path fill="none" stroke="#0090cc" stroke-width="2" d="M635.35,-1706.48C677.29,-1703.69 732.51,-1700.02 782.65,-1696.68"/>
<polygon fill="#0090cc" stroke="#0090cc" stroke-width="2" points="782.85,-1700.17 792.59,-1696.02 782.38,-1693.19 782.85,-1700.17"/>
</a>
</g>
</g>
<!-- node_System(43) -->
<g id="node41" class="node">
<title>node_System(43)</title>
<g id="a_node41"><a xlink:title="bevy_pbr::prepass::prepare_prepass_textures">
<polygon fill="white" stroke="black" points="1009,-1760 819,-1760 819,-1724 1009,-1724 1009,-1760"/>
<text text-anchor="middle" x="914" y="-1738.3" font-family="Times,serif" font-size="14.00">prepare_prepass_textures</text>
</a>
</g>
</g>
<!-- node_System(9)&#45;&gt;node_System(43) -->
<g id="edge20" class="edge">
<title>node_System(9)&#45;&gt;node_System(43)</title>
<g id="a_edge20"><a xlink:title="SystemTypeSet(prepare_windows&quot;) → prepare_prepass_textures">
<path fill="none" stroke="#3363bb" stroke-width="2" d="M635.35,-1717.09C683.84,-1721.44 750.09,-1727.38 805.72,-1732.37"/>
<polygon fill="#3363bb" stroke="#3363bb" stroke-width="2" points="805.22,-1735.84 815.49,-1733.25 805.84,-1728.87 805.22,-1735.84"/>
</a>
</g>
</g>
<!-- set_marker_node_Set(18) -->
<!-- node_System(10) -->
<g id="node17" class="node">
<title>node_System(10)</title>
<g id="a_node17"><a xlink:title="bevy_render::view::prepare_view_uniforms">
<polygon fill="white" stroke="black" points="1364.5,-1267 1186.5,-1267 1186.5,-1231 1364.5,-1231 1364.5,-1267"/>
<text text-anchor="middle" x="1275.5" y="-1245.3" font-family="Times,serif" font-size="14.00">prepare_view_uniforms</text>
</a>
</g>
</g>
<!-- set_marker_node_Set(22) -->
<!-- set_marker_node_Set(23) -->
<!-- set_marker_node_Set(22)&#45;&gt;set_marker_node_Set(23) -->
<g id="edge14" class="edge">
<title>set_marker_node_Set(22)&#45;&gt;set_marker_node_Set(23)</title>
<g id="a_edge14"><a xlink:title="PreAssetPrepare → AssetPrepare">
<path fill="none" stroke="#00b0cc" stroke-width="2" d="M661,-1576.41C694.1,-1575.42 726.29,-1571.74 739,-1562 773.01,-1535.95 739.77,-1495.86 776,-1473 782.66,-1468.8 795.02,-1466.5 809.7,-1465.41"/>
<polygon fill="#00b0cc" stroke="#00b0cc" stroke-width="2" points="809.67,-1468.91 819.48,-1464.91 809.31,-1461.92 809.67,-1468.91"/>
</a>
</g>
</g>
<!-- node_System(31) -->
<g id="node36" class="node">
<title>node_System(31)</title>
<g id="a_node36"><a xlink:title="bevy_sprite::mesh2d::material::prepare_materials_2d&lt;bevy_sprite::mesh2d::color_material::ColorMaterial&gt;">
<polygon fill="white" stroke="black" points="1050.5,-1544 777.5,-1544 777.5,-1508 1050.5,-1508 1050.5,-1544"/>
<text text-anchor="middle" x="914" y="-1522.3" font-family="Times,serif" font-size="14.00">prepare_materials_2d&lt;ColorMaterial&gt;</text>
</a>
</g>
</g>
<!-- set_marker_node_Set(22)&#45;&gt;node_System(31) -->
<g id="edge18" class="edge">
<title>set_marker_node_Set(22)&#45;&gt;node_System(31)</title>
<g id="a_edge18"><a xlink:title="PreAssetPrepare → prepare_materials_2d&lt;ColorMaterial&gt;">
<path fill="none" stroke="#ee9e44" stroke-width="2" d="M661,-1570.33C686.4,-1568.55 713.84,-1565.91 739,-1562 755.72,-1559.4 759.47,-1556.64 776,-1553 784.95,-1551.03 794.25,-1549.05 803.59,-1547.11"/>
<polygon fill="#ee9e44" stroke="#ee9e44" stroke-width="2" points="804.28,-1550.55 813.37,-1545.11 802.87,-1543.69 804.28,-1550.55"/>
</a>
</g>
</g>
<!-- node_System(41) -->
<g id="node40" class="node">
<title>node_System(41)</title>
<g id="a_node40"><a xlink:title="bevy_pbr::material::prepare_materials&lt;bevy_pbr::pbr_material::StandardMaterial&gt;">
<polygon fill="white" stroke="black" points="1052,-1598 776,-1598 776,-1562 1052,-1562 1052,-1598"/>
<text text-anchor="middle" x="914" y="-1576.3" font-family="Times,serif" font-size="14.00">prepare_materials&lt;StandardMaterial&gt;</text>
</a>
</g>
</g>
<!-- set_marker_node_Set(22)&#45;&gt;node_System(41) -->
<g id="edge19" class="edge">
<title>set_marker_node_Set(22)&#45;&gt;node_System(41)</title>
<g id="a_edge19"><a xlink:title="PreAssetPrepare → prepare_materials&lt;StandardMaterial&gt;">
<path fill="none" stroke="#663699" stroke-width="2" d="M661,-1575.62C692.37,-1576.17 728.2,-1576.79 762.8,-1577.39"/>
<polygon fill="#663699" stroke="#663699" stroke-width="2" points="762.61,-1580.89 772.67,-1577.56 762.73,-1573.89 762.61,-1580.89"/>
</a>
</g>
</g>
<!-- node_System(14) -->
<g id="node19" class="node">
<title>node_System(14)</title>
<g id="a_node19"><a xlink:title="bevy_render::render_asset::prepare_assets&lt;bevy_render::texture::image::Image&gt;">
<polygon fill="white" stroke="black" points="653,-1628 480,-1628 480,-1592 653,-1592 653,-1628"/>
<text text-anchor="middle" x="566.5" y="-1606.3" font-family="Times,serif" font-size="14.00">prepare_assets&lt;Image&gt;</text>
</a>
</g>
</g>
<!-- node_System(49) -->
<g id="node26" class="node">
<title>node_System(49)</title>
<g id="a_node26"><a xlink:title="bevy_pbr::render::light::prepare_lights">
<polygon fill="white" stroke="black" points="623,-1426 510,-1426 510,-1390 623,-1390 623,-1426"/>
<text text-anchor="middle" x="566.5" y="-1404.3" font-family="Times,serif" font-size="14.00">prepare_lights</text>
</a>
</g>
</g>
<!-- node_System(14)&#45;&gt;node_System(49) -->
<g id="edge25" class="edge">
<title>node_System(14)&#45;&gt;node_System(49)</title>
<path fill="none" stroke="#c93526" stroke-width="2" d="M479.71,-1612.58C407.65,-1609.31 310.35,-1590.97 267.92,-1520.5 213.05,-1429.39 408.44,-1411.66 509.56,-1408.49"/>
<g id="a_edge25&#45;label"><a xlink:title="prepare_assets&lt;Image&gt; — prepare_lights">
<polygon fill="#d3d3d3" stroke="none" points="224,-1499 224,-1518 374,-1518 374,-1499 224,-1499"/>
<text text-anchor="start" x="226" y="-1504.8" font-family="Times,serif" font-size="14.00" fill="#c93526">RenderAssets&lt;Image&gt;</text>
</a>
</g>
</g>
<!-- node_System(14)&#45;&gt;node_System(11) -->
<g id="edge13" class="edge">
<title>node_System(14)&#45;&gt;node_System(11)</title>
<g id="a_edge13"><a xlink:title="SystemTypeSet(prepare_assets&lt;Image&gt;&quot;) → prepare_view_targets">
<path fill="none" stroke="#881877" stroke-width="2" d="M653.35,-1615.96C703.92,-1619.48 767.93,-1623.92 819.74,-1627.52"/>
<polygon fill="#881877" stroke="#881877" stroke-width="2" points="819.4,-1631.01 829.62,-1628.21 819.88,-1624.02 819.4,-1631.01"/>
</a>
</g>
</g>
<!-- set_marker_node_Set(24) -->
<!-- set_marker_node_Set(23)&#45;&gt;set_marker_node_Set(24) -->
<g id="edge15" class="edge">
<title>set_marker_node_Set(23)&#45;&gt;set_marker_node_Set(24)</title>
<g id="a_edge15"><a xlink:title="AssetPrepare → PostAssetPrepare">
<path fill="none" stroke="#aa3a55" stroke-width="2" d="M1005.5,-1469C1064.1,-1469 1139.67,-1469 1195.78,-1469"/>
<polygon fill="#aa3a55" stroke="#aa3a55" stroke-width="2" points="1195.48,-1472.5 1205.48,-1469 1195.48,-1465.5 1195.48,-1472.5"/>
</a>
</g>
</g>
<!-- node_System(12) -->
<g id="node21" class="node">
<title>node_System(12)</title>
<g id="a_node21"><a xlink:title="bevy_render::render_asset::prepare_assets&lt;bevy_render::mesh::mesh::Mesh&gt;">
<polygon fill="white" stroke="black" points="997.5,-1451 830.5,-1451 830.5,-1415 997.5,-1415 997.5,-1451"/>
<text text-anchor="middle" x="914" y="-1429.3" font-family="Times,serif" font-size="14.00">prepare_assets&lt;Mesh&gt;</text>
</a>
</g>
</g>
<!-- set_marker_node_Set(62) -->
<!-- node_System(48) -->
<g id="node24" class="node">
<title>node_System(48)</title>
<g id="a_node24"><a xlink:title="bevy_pbr::render::fog::prepare_fog">
<polygon fill="white" stroke="black" points="615.5,-1509 517.5,-1509 517.5,-1473 615.5,-1473 615.5,-1509"/>
<text text-anchor="middle" x="566.5" y="-1487.3" font-family="Times,serif" font-size="14.00">prepare_fog</text>
</a>
</g>
</g>
<!-- set_marker_node_Set(63) -->
<!-- node_System(50) -->
<g id="node42" class="node">
<title>node_System(50)</title>
<g id="a_node42"><a xlink:title="bevy_ecs::schedule::executor::apply_system_buffers">
<polygon fill="white" stroke="black" points="994.5,-1276 833.5,-1276 833.5,-1240 994.5,-1240 994.5,-1276"/>
<text text-anchor="middle" x="914" y="-1254.3" font-family="Times,serif" font-size="14.00">apply_system_buffers</text>
</a>
</g>
</g>
<!-- set_marker_node_Set(63)&#45;&gt;node_System(50) -->
<g id="edge22" class="edge">
<title>set_marker_node_Set(63)&#45;&gt;node_System(50)</title>
<g id="a_edge22"><a xlink:title="PrepareLights → apply_system_buffers">
<path fill="none" stroke="#99d955" stroke-width="2" d="M631,-1378.37C672.85,-1381.13 722.8,-1381.2 739,-1368 766.58,-1345.53 731.54,-1314.85 757,-1290 774.02,-1273.39 797.23,-1264.33 820.53,-1259.62"/>
<polygon fill="#99d955" stroke="#99d955" stroke-width="2" points="820.81,-1263.12 830.09,-1257.99 819.64,-1256.22 820.81,-1263.12"/>
</a>
</g>
</g>
<!-- node_System(49)&#45;&gt;set_marker_node_Set(18) -->
<g id="edge21" class="edge">
<title>node_System(49)&#45;&gt;set_marker_node_Set(18)</title>
<g id="a_edge21"><a xlink:title="prepare_lights → PrepareUniforms">
<path fill="none" stroke="#22c2bb" stroke-width="2" d="M623.22,-1412C659.54,-1411.75 706.11,-1405.72 739,-1381 769.99,-1357.71 743.64,-1323.36 776,-1302 780.03,-1299.34 1020.12,-1292.14 1165.6,-1288.02"/>
<polygon fill="#22c2bb" stroke="#22c2bb" stroke-width="2" points="1165.58,-1291.52 1175.47,-1287.74 1165.38,-1284.52 1165.58,-1291.52"/>
</a>
</g>
</g>
<!-- node_System(51) -->
<g id="node28" class="node">
<title>node_System(51)</title>
<g id="a_node28"><a xlink:title="bevy_pbr::render::light::prepare_clusters">
<polygon fill="white" stroke="black" points="978,-1350 850,-1350 850,-1314 978,-1314 978,-1350"/>
<text text-anchor="middle" x="914" y="-1328.3" font-family="Times,serif" font-size="14.00">prepare_clusters</text>
</a>
</g>
</g>
<!-- node_System(49)&#45;&gt;node_System(51) -->
<g id="edge24" class="edge">
<title>node_System(49)&#45;&gt;node_System(51)</title>
<g id="a_edge24"><a xlink:title="SystemTypeSet(prepare_lights&quot;) → prepare_clusters">
<path fill="none" stroke="#881877" stroke-width="2" d="M623.28,-1404.6C657.49,-1401.21 701.72,-1394.45 739,-1381 757,-1374.51 758.13,-1365.84 776,-1359 795.22,-1351.64 816.76,-1346.2 836.97,-1342.2"/>
<polygon fill="#881877" stroke="#881877" stroke-width="2" points="837.51,-1345.66 846.7,-1340.39 836.23,-1338.78 837.51,-1345.66"/>
</a>
</g>
</g>
<!-- set_marker_node_Set(64) -->
<!-- node_System(13) -->
<g id="node30" class="node">
<title>node_System(13)</title>
<g id="a_node30"><a xlink:title="bevy_render::globals::prepare_globals_buffer">
<polygon fill="white" stroke="black" points="652.5,-1336 480.5,-1336 480.5,-1300 652.5,-1300 652.5,-1336"/>
<text text-anchor="middle" x="566.5" y="-1314.3" font-family="Times,serif" font-size="14.00">prepare_globals_buffer</text>
</a>
</g>
</g>
<!-- node_System(24) -->
<g id="node32" class="node">
<title>node_System(24)</title>
<g id="a_node32"><a xlink:title="bevy_render::extract_component::prepare_uniform_components&lt;bevy_core_pipeline::bloom::BloomUniform&gt;">
<polygon fill="white" stroke="black" points="735,-1282 398,-1282 398,-1246 735,-1246 735,-1282"/>
<text text-anchor="middle" x="566.5" y="-1260.3" font-family="Times,serif" font-size="14.00">prepare_uniform_components&lt;BloomUniform&gt;</text>
</a>
</g>
</g>
<!-- node_System(25) -->
<g id="node33" class="node">
<title>node_System(25)</title>
<g id="a_node33"><a xlink:title="bevy_core_pipeline::bloom::prepare_bloom_textures">
<polygon fill="white" stroke="black" points="657.5,-1228 475.5,-1228 475.5,-1192 657.5,-1192 657.5,-1228"/>
<text text-anchor="middle" x="566.5" y="-1206.3" font-family="Times,serif" font-size="14.00">prepare_bloom_textures</text>
</a>
</g>
</g>
<!-- node_System(27) -->
<g id="node34" class="node">
<title>node_System(27)</title>
<g id="a_node34"><a xlink:title="bevy_core_pipeline::fxaa::prepare_fxaa_pipelines">
<polygon fill="white" stroke="black" points="653,-1174 480,-1174 480,-1138 653,-1138 653,-1174"/>
<text text-anchor="middle" x="566.5" y="-1152.3" font-family="Times,serif" font-size="14.00">prepare_fxaa_pipelines</text>
</a>
</g>
</g>
<!-- node_System(28) -->
<g id="node35" class="node">
<title>node_System(28)</title>
<g id="a_node35"><a xlink:title="bevy_render::extract_component::prepare_uniform_components&lt;bevy_sprite::mesh2d::mesh::Mesh2dUniform&gt;">
<polygon fill="white" stroke="black" points="739,-1120 394,-1120 394,-1084 739,-1084 739,-1120"/>
<text text-anchor="middle" x="566.5" y="-1098.3" font-family="Times,serif" font-size="14.00">prepare_uniform_components&lt;Mesh2dUniform&gt;</text>
</a>
</g>
</g>
<!-- node_System(34) -->
<g id="node37" class="node">
<title>node_System(34)</title>
<g id="a_node37"><a xlink:title="bevy_ui::render::prepare_uinodes">
<polygon fill="white" stroke="black" points="631,-1066 502,-1066 502,-1030 631,-1030 631,-1066"/>
<text text-anchor="middle" x="566.5" y="-1044.3" font-family="Times,serif" font-size="14.00">prepare_uinodes</text>
</a>
</g>
</g>
<!-- node_System(37) -->
<g id="node38" class="node">
<title>node_System(37)</title>
<g id="a_node38"><a xlink:title="bevy_render::extract_component::prepare_uniform_components&lt;bevy_pbr::render::mesh::MeshUniform&gt;">
<polygon fill="white" stroke="black" points="731,-1012 402,-1012 402,-976 731,-976 731,-1012"/>
<text text-anchor="middle" x="566.5" y="-990.3" font-family="Times,serif" font-size="14.00">prepare_uniform_components&lt;MeshUniform&gt;</text>
</a>
</g>
</g>
<!-- node_System(38) -->
<g id="node39" class="node">
<title>node_System(38)</title>
<g id="a_node39"><a xlink:title="bevy_pbr::render::mesh::prepare_skinned_meshes">
<polygon fill="white" stroke="black" points="659,-958 474,-958 474,-922 659,-922 659,-958"/>
<text text-anchor="middle" x="566.5" y="-936.3" font-family="Times,serif" font-size="14.00">prepare_skinned_meshes</text>
</a>
</g>
</g>
<!-- node_System(50)&#45;&gt;set_marker_node_Set(18) -->
<g id="edge23" class="edge">
<title>node_System(50)&#45;&gt;set_marker_node_Set(18)</title>
<g id="a_edge23"><a xlink:title="apply_system_buffers → PrepareUniforms">
<path fill="none" stroke="#eede00" stroke-width="2" d="M994.7,-1267.65C1022.03,-1270.69 1052.82,-1273.82 1081,-1276 1108.36,-1278.12 1137.95,-1279.8 1165.55,-1281.11"/>
<polygon fill="#eede00" stroke="#eede00" stroke-width="2" points="1165.33,-1284.6 1175.48,-1281.56 1165.65,-1277.61 1165.33,-1284.6"/>
</a>
</g>
</g>
<!-- set_marker_node_Set(8)&#45;&gt;set_marker_node_Set(2) -->
<g id="edge4" class="edge">
<title>set_marker_node_Set(8)&#45;&gt;set_marker_node_Set(2)</title>
<g id="a_edge4"><a xlink:title="Queue → QueueFlush">
<path fill="none" stroke="#aa3a55" stroke-width="2" d="M1470,-772C1472.73,-772 1475.44,-772 1478.13,-772"/>
<polygon fill="#aa3a55" stroke="#aa3a55" stroke-width="2" points="1477.97,-775.5 1487.97,-772 1477.97,-768.5 1477.97,-775.5"/>
</a>
</g>
</g>
<!-- set_marker_node_Set(65) -->
<!-- node_System(52) -->
<g id="node45" class="node">
<title>node_System(52)</title>
<g id="a_node45"><a xlink:title="bevy_pbr::render::light::queue_shadows">
<polygon fill="white" stroke="black" points="1336.5,-826 1214.5,-826 1214.5,-790 1336.5,-790 1336.5,-826"/>
<text text-anchor="middle" x="1275.5" y="-804.3" font-family="Times,serif" font-size="14.00">queue_shadows</text>
</a>
</g>
</g>
<!-- node_System(22) -->
<g id="node46" class="node">
<title>node_System(22)</title>
<g id="a_node46"><a xlink:title="bevy_core_pipeline::tonemapping::queue_view_tonemapping_pipelines">
<polygon fill="white" stroke="black" points="1405.5,-754 1145.5,-754 1145.5,-718 1405.5,-718 1405.5,-754"/>
<text text-anchor="middle" x="1275.5" y="-732.3" font-family="Times,serif" font-size="14.00">queue_view_tonemapping_pipelines</text>
</a>
</g>
</g>
<!-- node_System(23) -->
<g id="node47" class="node">
<title>node_System(23)</title>
<g id="a_node47"><a xlink:title="bevy_core_pipeline::upscaling::queue_view_upscaling_pipelines">
<polygon fill="white" stroke="black" points="1392.5,-700 1158.5,-700 1158.5,-664 1392.5,-664 1392.5,-700"/>
<text text-anchor="middle" x="1275.5" y="-678.3" font-family="Times,serif" font-size="14.00">queue_view_upscaling_pipelines</text>
</a>
</g>
</g>
<!-- node_System(26) -->
<g id="node48" class="node">
<title>node_System(26)</title>
<g id="a_node48"><a xlink:title="bevy_core_pipeline::bloom::queue_bloom_bind_groups">
<polygon fill="white" stroke="black" points="1374,-646 1177,-646 1177,-610 1374,-610 1374,-646"/>
<text text-anchor="middle" x="1275.5" y="-624.3" font-family="Times,serif" font-size="14.00">queue_bloom_bind_groups</text>
</a>
</g>
</g>
<!-- node_System(29) -->
<g id="node49" class="node">
<title>node_System(29)</title>
<g id="a_node49"><a xlink:title="bevy_sprite::mesh2d::mesh::queue_mesh2d_bind_group">
<polygon fill="white" stroke="black" points="1375.5,-592 1175.5,-592 1175.5,-556 1375.5,-556 1375.5,-592"/>
<text text-anchor="middle" x="1275.5" y="-570.3" font-family="Times,serif" font-size="14.00">queue_mesh2d_bind_group</text>
</a>
</g>
</g>
<!-- node_System(30) -->
<g id="node50" class="node">
<title>node_System(30)</title>
<g id="a_node50"><a xlink:title="bevy_sprite::mesh2d::mesh::queue_mesh2d_view_bind_groups">
<polygon fill="white" stroke="black" points="1398,-538 1153,-538 1153,-502 1398,-502 1398,-538"/>
<text text-anchor="middle" x="1275.5" y="-516.3" font-family="Times,serif" font-size="14.00">queue_mesh2d_view_bind_groups</text>
</a>
</g>
</g>
<!-- node_System(32) -->
<g id="node51" class="node">
<title>node_System(32)</title>
<g id="a_node51"><a xlink:title="bevy_sprite::mesh2d::material::queue_material2d_meshes&lt;bevy_sprite::mesh2d::color_material::ColorMaterial&gt;">
<polygon fill="white" stroke="black" points="1428,-484 1123,-484 1123,-448 1428,-448 1428,-484"/>
<text text-anchor="middle" x="1275.5" y="-462.3" font-family="Times,serif" font-size="14.00">queue_material2d_meshes&lt;ColorMaterial&gt;</text>
</a>
</g>
</g>
<!-- node_System(33) -->
<g id="node52" class="node">
<title>node_System(33)</title>
<g id="a_node52"><a xlink:title="bevy_sprite::render::queue_sprites">
<polygon fill="white" stroke="black" points="1330,-430 1221,-430 1221,-394 1330,-394 1330,-430"/>
<text text-anchor="middle" x="1275.5" y="-408.3" font-family="Times,serif" font-size="14.00">queue_sprites</text>
</a>
</g>
</g>
<!-- node_System(35) -->
<g id="node53" class="node">
<title>node_System(35)</title>
<g id="a_node53"><a xlink:title="bevy_ui::render::queue_uinodes">
<polygon fill="white" stroke="black" points="1334,-376 1217,-376 1217,-340 1334,-340 1334,-376"/>
<text text-anchor="middle" x="1275.5" y="-354.3" font-family="Times,serif" font-size="14.00">queue_uinodes</text>
</a>
</g>
</g>
<!-- node_System(39) -->
<g id="node54" class="node">
<title>node_System(39)</title>
<g id="a_node54"><a xlink:title="bevy_pbr::render::mesh::queue_mesh_bind_group">
<polygon fill="white" stroke="black" points="1367.5,-322 1183.5,-322 1183.5,-286 1367.5,-286 1367.5,-322"/>
<text text-anchor="middle" x="1275.5" y="-300.3" font-family="Times,serif" font-size="14.00">queue_mesh_bind_group</text>
</a>
</g>
</g>
<!-- node_System(40) -->
<g id="node55" class="node">
<title>node_System(40)</title>
<g id="a_node55"><a xlink:title="bevy_pbr::render::mesh::queue_mesh_view_bind_groups">
<polygon fill="white" stroke="black" points="1390,-268 1161,-268 1161,-232 1390,-232 1390,-268"/>
<text text-anchor="middle" x="1275.5" y="-246.3" font-family="Times,serif" font-size="14.00">queue_mesh_view_bind_groups</text>
</a>
</g>
</g>
<!-- node_System(42) -->
<g id="node56" class="node">
<title>node_System(42)</title>
<g id="a_node56"><a xlink:title="bevy_pbr::material::queue_material_meshes&lt;bevy_pbr::pbr_material::StandardMaterial&gt;">
<polygon fill="white" stroke="black" points="1432.5,-214 1118.5,-214 1118.5,-178 1432.5,-178 1432.5,-214"/>
<text text-anchor="middle" x="1275.5" y="-192.3" font-family="Times,serif" font-size="14.00">queue_material_meshes&lt;StandardMaterial&gt;</text>
</a>
</g>
</g>
<!-- node_System(44) -->
<g id="node57" class="node">
<title>node_System(44)</title>
<g id="a_node57"><a xlink:title="bevy_pbr::prepass::queue_prepass_view_bind_group&lt;bevy_pbr::pbr_material::StandardMaterial&gt;">
<polygon fill="white" stroke="black" points="1462,-160 1089,-160 1089,-124 1462,-124 1462,-160"/>
<text text-anchor="middle" x="1275.5" y="-138.3" font-family="Times,serif" font-size="14.00">queue_prepass_view_bind_group&lt;StandardMaterial&gt;</text>
</a>
</g>
</g>
<!-- node_System(45) -->
<g id="node58" class="node">
<title>node_System(45)</title>
<g id="a_node58"><a xlink:title="bevy_pbr::prepass::queue_prepass_material_meshes&lt;bevy_pbr::pbr_material::StandardMaterial&gt;">
<polygon fill="white" stroke="black" points="1461.5,-106 1089.5,-106 1089.5,-70 1461.5,-70 1461.5,-106"/>
<text text-anchor="middle" x="1275.5" y="-84.3" font-family="Times,serif" font-size="14.00">queue_prepass_material_meshes&lt;StandardMaterial&gt;</text>
</a>
</g>
</g>
<!-- node_System(53) -->
<g id="node59" class="node">
<title>node_System(53)</title>
<g id="a_node59"><a xlink:title="bevy_pbr::render::light::queue_shadow_view_bind_group">
<polygon fill="white" stroke="black" points="1395,-52 1156,-52 1156,-16 1395,-16 1395,-52"/>
<text text-anchor="middle" x="1275.5" y="-30.3" font-family="Times,serif" font-size="14.00">queue_shadow_view_bind_group</text>
</a>
</g>
</g>
<!-- set_marker_node_Set(9)&#45;&gt;set_marker_node_Set(3) -->
<g id="edge6" class="edge">
<title>set_marker_node_Set(9)&#45;&gt;set_marker_node_Set(3)</title>
<g id="a_edge6"><a xlink:title="PhaseSort → PhaseSortFlush">
<path fill="none" stroke="#0090cc" stroke-width="2" d="M2029.93,-386C2030.91,-384.6 2031.93,-383.26 2033,-382 2041.71,-371.75 2053.03,-364.33 2065.39,-358.98"/>
<polygon fill="#0090cc" stroke="#0090cc" stroke-width="2" points="2066.52,-362.29 2074.67,-355.52 2064.08,-355.73 2066.52,-362.29"/>
</a>
</g>
</g>
<!-- node_System(16) -->
<g id="node61" class="node">
<title>node_System(16)</title>
<g id="a_node61"><a xlink:title="bevy_render::render_phase::sort_phase_system&lt;bevy_core_pipeline::core_2d::Transparent2d&gt;">
<polygon fill="white" stroke="black" points="1974,-826 1719,-826 1719,-790 1974,-790 1974,-826"/>
<text text-anchor="middle" x="1846.5" y="-804.3" font-family="Times,serif" font-size="14.00">sort_phase_system&lt;Transparent2d&gt;</text>
</a>
</g>
</g>
<!-- node_System(17) -->
<g id="node62" class="node">
<title>node_System(17)</title>
<g id="a_node62"><a xlink:title="bevy_render::render_phase::batch_phase_system&lt;bevy_core_pipeline::core_2d::Transparent2d&gt;">
<polygon fill="white" stroke="black" points="2299,-826 2033,-826 2033,-790 2299,-790 2299,-826"/>
<text text-anchor="middle" x="2166" y="-804.3" font-family="Times,serif" font-size="14.00">batch_phase_system&lt;Transparent2d&gt;</text>
</a>
</g>
</g>
<!-- node_System(16)&#45;&gt;node_System(17) -->
<g id="edge16" class="edge">
<title>node_System(16)&#45;&gt;node_System(17)</title>
<g id="a_edge16"><a xlink:title="SystemTypeSet(sort_phase_system&lt;Transparent2d&gt;&quot;) → batch_phase_system&lt;Transparent2d&gt;">
<path fill="none" stroke="#44d488" stroke-width="2" d="M1974.35,-808C1989.33,-808 2004.71,-808 2019.91,-808"/>
<polygon fill="#44d488" stroke="#44d488" stroke-width="2" points="2019.6,-811.5 2029.6,-808 2019.6,-804.5 2019.6,-811.5"/>
</a>
</g>
</g>
<!-- node_System(19) -->
<g id="node63" class="node">
<title>node_System(19)</title>
<g id="a_node63"><a xlink:title="bevy_render::render_phase::sort_phase_system&lt;bevy_core_pipeline::core_3d::Opaque3d&gt;">
<polygon fill="white" stroke="black" points="1958.5,-754 1734.5,-754 1734.5,-718 1958.5,-718 1958.5,-754"/>
<text text-anchor="middle" x="1846.5" y="-732.3" font-family="Times,serif" font-size="14.00">sort_phase_system&lt;Opaque3d&gt;</text>
</a>
</g>
</g>
<!-- node_System(20) -->
<g id="node64" class="node">
<title>node_System(20)</title>
<g id="a_node64"><a xlink:title="bevy_render::render_phase::sort_phase_system&lt;bevy_core_pipeline::core_3d::AlphaMask3d&gt;">
<polygon fill="white" stroke="black" points="1970.5,-700 1722.5,-700 1722.5,-664 1970.5,-664 1970.5,-700"/>
<text text-anchor="middle" x="1846.5" y="-678.3" font-family="Times,serif" font-size="14.00">sort_phase_system&lt;AlphaMask3d&gt;</text>
</a>
</g>
</g>
<!-- node_System(21) -->
<g id="node65" class="node">
<title>node_System(21)</title>
<g id="a_node65"><a xlink:title="bevy_render::render_phase::sort_phase_system&lt;bevy_core_pipeline::core_3d::Transparent3d&gt;">
<polygon fill="white" stroke="black" points="1974,-646 1719,-646 1719,-610 1974,-610 1974,-646"/>
<text text-anchor="middle" x="1846.5" y="-624.3" font-family="Times,serif" font-size="14.00">sort_phase_system&lt;Transparent3d&gt;</text>
</a>
</g>
</g>
<!-- node_System(36) -->
<g id="node66" class="node">
<title>node_System(36)</title>
<g id="a_node66"><a xlink:title="bevy_render::render_phase::sort_phase_system&lt;bevy_ui::render::render_pass::TransparentUi&gt;">
<polygon fill="white" stroke="black" points="1973.5,-592 1719.5,-592 1719.5,-556 1973.5,-556 1973.5,-592"/>
<text text-anchor="middle" x="1846.5" y="-570.3" font-family="Times,serif" font-size="14.00">sort_phase_system&lt;TransparentUi&gt;</text>
</a>
</g>
</g>
<!-- node_System(46) -->
<g id="node67" class="node">
<title>node_System(46)</title>
<g id="a_node67"><a xlink:title="bevy_render::render_phase::sort_phase_system&lt;bevy_core_pipeline::prepass::Opaque3dPrepass&gt;">
<polygon fill="white" stroke="black" points="1984,-538 1709,-538 1709,-502 1984,-502 1984,-538"/>
<text text-anchor="middle" x="1846.5" y="-516.3" font-family="Times,serif" font-size="14.00">sort_phase_system&lt;Opaque3dPrepass&gt;</text>
</a>
</g>
</g>
<!-- node_System(47) -->
<g id="node68" class="node">
<title>node_System(47)</title>
<g id="a_node68"><a xlink:title="bevy_render::render_phase::sort_phase_system&lt;bevy_core_pipeline::prepass::AlphaMask3dPrepass&gt;">
<polygon fill="white" stroke="black" points="1996,-484 1697,-484 1697,-448 1996,-448 1996,-484"/>
<text text-anchor="middle" x="1846.5" y="-462.3" font-family="Times,serif" font-size="14.00">sort_phase_system&lt;AlphaMask3dPrepass&gt;</text>
</a>
</g>
</g>
<!-- node_System(54) -->
<g id="node69" class="node">
<title>node_System(54)</title>
<g id="a_node69"><a xlink:title="bevy_render::render_phase::sort_phase_system&lt;bevy_pbr::render::light::Shadow&gt;">
<polygon fill="white" stroke="black" points="1951.5,-430 1741.5,-430 1741.5,-394 1951.5,-394 1951.5,-430"/>
<text text-anchor="middle" x="1846.5" y="-408.3" font-family="Times,serif" font-size="14.00">sort_phase_system&lt;Shadow&gt;</text>
</a>
</g>
</g>
<!-- set_marker_node_Set(10)&#45;&gt;set_marker_node_Set(4) -->
<g id="edge8" class="edge">
<title>set_marker_node_Set(10)&#45;&gt;set_marker_node_Set(4)</title>
<g id="a_edge8"><a xlink:title="Render → RenderFlush">
<path fill="none" stroke="#663699" stroke-width="2" d="M2490.05,-339C2514.93,-333.91 2548.38,-327.06 2580.3,-320.52"/>
<polygon fill="#663699" stroke="#663699" stroke-width="2" points="2580.94,-323.96 2590.04,-318.53 2579.54,-317.1 2580.94,-323.96"/>
</a>
</g>
</g>
<!-- node_System(6) -->
<g id="node71" class="node">
<title>node_System(6)</title>
<g id="a_node71"><a xlink:title="bevy_render::render_resource::pipeline_cache::PipelineCache::process_pipeline_queue_system">
<polygon fill="white" stroke="black" points="2564,-401 2336,-401 2336,-365 2564,-365 2564,-401"/>
<text text-anchor="middle" x="2450" y="-379.3" font-family="Times,serif" font-size="14.00">process_pipeline_queue_system</text>
</a>
</g>
</g>
<!-- node_System(7) -->
<g id="node72" class="node">
<title>node_System(7)</title>
<g id="a_node72"><a xlink:title="bevy_render::renderer::render_system">
<polygon fill="white" stroke="black" points="2739.5,-401 2623.5,-401 2623.5,-365 2739.5,-365 2739.5,-401"/>
<text text-anchor="middle" x="2681.5" y="-379.3" font-family="Times,serif" font-size="14.00">render_system</text>
</a>
</g>
</g>
<!-- node_System(6)&#45;&gt;node_System(7) -->
<g id="edge11" class="edge">
<title>node_System(6)&#45;&gt;node_System(7)</title>
<g id="a_edge11"><a xlink:title="process_pipeline_queue_system → SystemTypeSet(render_system&quot;)">
<path fill="none" stroke="#99d955" stroke-width="2" d="M2564.41,-383C2579.97,-383 2595.56,-383 2610.05,-383"/>
<polygon fill="#99d955" stroke="#99d955" stroke-width="2" points="2609.98,-386.5 2619.98,-383 2609.98,-379.5 2609.98,-386.5"/>
</a>
</g>
</g>
<!-- set_marker_node_Set(11)&#45;&gt;set_marker_node_Set(5) -->
<g id="edge10" class="edge">
<title>set_marker_node_Set(11)&#45;&gt;set_marker_node_Set(5)</title>
<g id="a_edge10"><a xlink:title="Cleanup → CleanupFlush">
<path fill="none" stroke="#22c2bb" stroke-width="2" d="M3025,-300C3027.77,-300 3030.55,-300 3033.31,-300"/>
<polygon fill="#22c2bb" stroke="#22c2bb" stroke-width="2" points="3032.97,-303.5 3042.97,-300 3032.97,-296.5 3032.97,-303.5"/>
</a>
</g>
</g>
<!-- node_System(8) -->
<g id="node74" class="node">
<title>node_System(8)</title>
<g id="a_node74"><a xlink:title="bevy_ecs::world::World::clear_entities">
<polygon fill="white" stroke="black" points="2961.5,-282 2854.5,-282 2854.5,-246 2961.5,-246 2961.5,-282"/>
<text text-anchor="middle" x="2908" y="-260.3" font-family="Times,serif" font-size="14.00">clear_entities</text>
</a>
</g>
</g>
<!-- node_System(15) -->
<g id="node75" class="node">
<title>node_System(15)</title>
<g id="a_node75"><a xlink:title="bevy_render::texture::texture_cache::update_texture_cache_system">
<polygon fill="white" stroke="black" points="3017,-228 2799,-228 2799,-192 3017,-192 3017,-228"/>
<text text-anchor="middle" x="2908" y="-206.3" font-family="Times,serif" font-size="14.00">update_texture_cache_system</text>
</a>
</g>
</g>
</g>
</svg>
