<?xml version="1.0" encoding="UTF-8" standalone="no"?>
<!DOCTYPE svg PUBLIC "-//W3C//DTD SVG 1.1//EN"
 "http://www.w3.org/Graphics/SVG/1.1/DTD/svg11.dtd">
<!-- Generated by graphviz version 8.0.1 (0)
 -->
<!-- Pages: 1 -->
<svg width="509pt" height="1932pt"
 viewBox="0.00 0.00 509.00 1932.00" xmlns="http://www.w3.org/2000/svg" xmlns:xlink="http://www.w3.org/1999/xlink">
<g id="graph0" class="graph" transform="scale(1 1) rotate(0) translate(4 1928)">
<polygon fill="white" stroke="none" points="-4,4 -4,-1928 505,-1928 505,4 -4,4"/>
<g id="clust1" class="cluster">
<title>clusternode_Set(22)</title>
<g id="a_clust1"><a xlink:title="ExtractSprites">
<path fill="#000000" fill-opacity="0.031373" stroke="#000000" stroke-width="2" stroke-opacity="0.250980" d="M119.5,-8C119.5,-8 215.5,-8 215.5,-8 221.5,-8 227.5,-14 227.5,-20 227.5,-20 227.5,-82 227.5,-82 227.5,-88 221.5,-94 215.5,-94 215.5,-94 119.5,-94 119.5,-94 113.5,-94 107.5,-88 107.5,-82 107.5,-82 107.5,-20 107.5,-20 107.5,-14 113.5,-8 119.5,-8"/>
<text text-anchor="middle" x="167.5" y="-78.8" font-family="Helvetica,sans-Serif" font-size="14.00">ExtractSprites</text>
</a>
</g>
</g>
<g id="clust2" class="cluster">
<title>clusternode_Set(29)</title>
<g id="a_clust2"><a xlink:title="ExtractNode">
<path fill="#000000" fill-opacity="0.031373" stroke="#000000" stroke-width="2" stroke-opacity="0.250980" d="M115.5,-102C115.5,-102 219.5,-102 219.5,-102 225.5,-102 231.5,-108 231.5,-114 231.5,-114 231.5,-176 231.5,-176 231.5,-182 225.5,-188 219.5,-188 219.5,-188 115.5,-188 115.5,-188 109.5,-188 103.5,-182 103.5,-176 103.5,-176 103.5,-114 103.5,-114 103.5,-108 109.5,-102 115.5,-102"/>
<text text-anchor="middle" x="167.5" y="-172.8" font-family="Helvetica,sans-Serif" font-size="14.00">ExtractNode</text>
</a>
</g>
</g>
<g id="clust3" class="cluster">
<title>clusternode_Set(40)</title>
<g id="a_clust3"><a xlink:title="ExtractClusters">
<path fill="#000000" fill-opacity="0.031373" stroke="#000000" stroke-width="2" stroke-opacity="0.250980" d="M116,-196C116,-196 219,-196 219,-196 225,-196 231,-202 231,-208 231,-208 231,-270 231,-270 231,-276 225,-282 219,-282 219,-282 116,-282 116,-282 110,-282 104,-276 104,-270 104,-270 104,-208 104,-208 104,-202 110,-196 116,-196"/>
<text text-anchor="middle" x="167.5" y="-266.8" font-family="Helvetica,sans-Serif" font-size="14.00">ExtractClusters</text>
</a>
</g>
</g>
<g id="clust4" class="cluster">
<title>clusternode_Set(42)</title>
<g id="a_clust4"><a xlink:title="ExtractLights">
<path fill="#000000" fill-opacity="0.031373" stroke="#000000" stroke-width="2" stroke-opacity="0.250980" d="M123.5,-290C123.5,-290 211.5,-290 211.5,-290 217.5,-290 223.5,-296 223.5,-302 223.5,-302 223.5,-364 223.5,-364 223.5,-370 217.5,-376 211.5,-376 211.5,-376 123.5,-376 123.5,-376 117.5,-376 111.5,-370 111.5,-364 111.5,-364 111.5,-302 111.5,-302 111.5,-296 117.5,-290 123.5,-290"/>
<text text-anchor="middle" x="167.5" y="-360.8" font-family="Helvetica,sans-Serif" font-size="14.00">ExtractLights</text>
</a>
</g>
</g>
<!-- set_marker_node_Set(22) -->
<!-- node_System(23) -->
<g id="node31" class="node">
<title>node_System(23)</title>
<g id="a_node31"><a xlink:title="bevy_text::text2d::extract_text2d_sprite">
<polygon fill="lightgrey" stroke="black" points="501,-81 371,-81 371,-45 501,-45 501,-81"/>
<text text-anchor="middle" x="436" y="-59.3" font-family="Times,serif" font-size="14.00">extract_text2d_sprite</text>
</a>
</g>
</g>
<!-- set_marker_node_Set(22)&#45;&gt;node_System(23) -->
<g id="edge1" class="edge">
<title>set_marker_node_Set(22)&#45;&gt;node_System(23)</title>
<g id="a_edge1"><a xlink:title="ExtractSprites → extract_text2d_sprite">
<path fill="none" stroke="#eede00" stroke-width="2" d="M227.5,-63C265.92,-63 316.44,-63 358.01,-63"/>
<polygon fill="#eede00" stroke="#eede00" stroke-width="2" points="357.68,-66.5 367.68,-63 357.68,-59.5 357.68,-66.5"/>
</a>
</g>
</g>
<!-- node_System(21) -->
<g id="node2" class="node">
<title>node_System(21)</title>
<g id="a_node2"><a xlink:title="bevy_sprite::render::extract_sprites">
<polygon fill="#eff1f3" stroke="#b4bec7" points="219.5,-52 115.5,-52 115.5,-16 219.5,-16 219.5,-52"/>
<text text-anchor="middle" x="167.5" y="-30.3" font-family="Helvetica,sans-Serif" font-size="14.00" fill="#15191d">extract_sprites</text>
</a>
</g>
</g>
<!-- set_marker_node_Set(29) -->
<!-- node_System(28) -->
<g id="node35" class="node">
<title>node_System(28)</title>
<g id="a_node35"><a xlink:title="bevy_ui::render::extract_text_uinodes">
<polygon fill="lightgrey" stroke="black" points="500.5,-175 371.5,-175 371.5,-139 500.5,-139 500.5,-175"/>
<text text-anchor="middle" x="436" y="-153.3" font-family="Times,serif" font-size="14.00">extract_text_uinodes</text>
</a>
</g>
</g>
<!-- set_marker_node_Set(29)&#45;&gt;node_System(28) -->
<g id="edge2" class="edge">
<title>set_marker_node_Set(29)&#45;&gt;node_System(28)</title>
<g id="a_edge2"><a xlink:title="ExtractNode → extract_text_uinodes">
<path fill="none" stroke="#881877" stroke-width="2" d="M231.5,-157C269.48,-157 318.14,-157 358.35,-157"/>
<polygon fill="#881877" stroke="#881877" stroke-width="2" points="358.02,-160.5 368.02,-157 358.02,-153.5 358.02,-160.5"/>
</a>
</g>
</g>
<!-- node_System(27) -->
<g id="node4" class="node">
<title>node_System(27)</title>
<g id="a_node4"><a xlink:title="bevy_ui::render::extract_uinodes">
<polygon fill="#ffb1e5" stroke="#ff4bc2" points="223.5,-146 111.5,-146 111.5,-110 223.5,-110 223.5,-146"/>
<text text-anchor="middle" x="167.5" y="-124.3" font-family="Helvetica,sans-Serif" font-size="14.00" fill="#320021">extract_uinodes</text>
</a>
</g>
</g>
<!-- set_marker_node_Set(40) -->
<!-- node_System(37) -->
<g id="node6" class="node">
<title>node_System(37)</title>
<g id="a_node6"><a xlink:title="bevy_pbr::render::light::extract_clusters">
<polygon fill="#abd5fc" stroke="#48a3f8" points="223,-240 112,-240 112,-204 223,-204 223,-240"/>
<text text-anchor="middle" x="167.5" y="-218.3" font-family="Helvetica,sans-Serif" font-size="14.00" fill="#011a31">extract_clusters</text>
</a>
</g>
</g>
<!-- set_marker_node_Set(42) -->
<!-- node_System(38) -->
<g id="node8" class="node">
<title>node_System(38)</title>
<g id="a_node8"><a xlink:title="bevy_pbr::render::light::extract_lights">
<polygon fill="#abd5fc" stroke="#48a3f8" points="215.5,-334 119.5,-334 119.5,-298 215.5,-298 215.5,-334"/>
<text text-anchor="middle" x="167.5" y="-312.3" font-family="Helvetica,sans-Serif" font-size="14.00" fill="#011a31">extract_lights</text>
</a>
</g>
</g>
<!-- node_System(0) -->
<g id="node9" class="node">
<title>node_System(0)</title>
<g id="a_node9"><a xlink:title="bevy_render::render_resource::pipeline_cache::PipelineCache::extract_shaders">
<polygon fill="lightgrey" stroke="black" points="217.5,-420 117.5,-420 117.5,-384 217.5,-384 217.5,-420"/>
<text text-anchor="middle" x="167.5" y="-398.3" font-family="Times,serif" font-size="14.00">extract_shaders</text>
</a>
</g>
</g>
<!-- node_System(1) -->
<g id="node10" class="node">
<title>node_System(1)</title>
<g id="a_node10"><a xlink:title="bevy_render::view::window::extract_windows">
<polygon fill="lightgrey" stroke="black" points="222,-467 113,-467 113,-431 222,-431 222,-467"/>
<text text-anchor="middle" x="167.5" y="-445.3" font-family="Times,serif" font-size="14.00">extract_windows</text>
</a>
</g>
</g>
<!-- node_System(2) -->
<g id="node11" class="node">
<title>node_System(2)</title>
<g id="a_node11"><a xlink:title="bevy_render::camera::camera::extract_cameras">
<polygon fill="lightgrey" stroke="black" points="219.5,-514 115.5,-514 115.5,-478 219.5,-478 219.5,-514"/>
<text text-anchor="middle" x="167.5" y="-492.3" font-family="Times,serif" font-size="14.00">extract_cameras</text>
</a>
</g>
</g>
<!-- node_System(3) -->
<g id="node12" class="node">
<title>node_System(3)</title>
<g id="a_node12"><a xlink:title="bevy_render::extract_resource::extract_resource&lt;bevy_render::view::Msaa&gt;">
<polygon fill="lightgrey" stroke="black" points="243.5,-561 91.5,-561 91.5,-525 243.5,-525 243.5,-561"/>
<text text-anchor="middle" x="167.5" y="-539.3" font-family="Times,serif" font-size="14.00">extract_resource&lt;Msaa&gt;</text>
</a>
</g>
</g>
<!-- node_System(4) -->
<g id="node13" class="node">
<title>node_System(4)</title>
<g id="a_node13"><a xlink:title="bevy_render::render_asset::extract_render_asset&lt;bevy_render::mesh::mesh::Mesh&gt;">
<polygon fill="lightgrey" stroke="black" points="254,-608 81,-608 81,-572 254,-572 254,-608"/>
<text text-anchor="middle" x="167.5" y="-586.3" font-family="Times,serif" font-size="14.00">extract_render_asset&lt;Mesh&gt;</text>
</a>
</g>
</g>
<!-- node_System(5) -->
<g id="node14" class="node">
<title>node_System(5)</title>
<g id="a_node14"><a xlink:title="bevy_render::globals::extract_frame_count">
<polygon fill="lightgrey" stroke="black" points="231.5,-655 103.5,-655 103.5,-619 231.5,-619 231.5,-655"/>
<text text-anchor="middle" x="167.5" y="-633.3" font-family="Times,serif" font-size="14.00">extract_frame_count</text>
</a>
</g>
</g>
<!-- node_System(6) -->
<g id="node15" class="node">
<title>node_System(6)</title>
<g id="a_node15"><a xlink:title="bevy_render::globals::extract_time">
<polygon fill="lightgrey" stroke="black" points="209.5,-702 125.5,-702 125.5,-666 209.5,-666 209.5,-702"/>
<text text-anchor="middle" x="167.5" y="-680.3" font-family="Times,serif" font-size="14.00">extract_time</text>
</a>
</g>
</g>
<!-- node_System(7) -->
<g id="node16" class="node">
<title>node_System(7)</title>
<g id="a_node16"><a xlink:title="bevy_render::render_asset::extract_render_asset&lt;bevy_render::texture::image::Image&gt;">
<polygon fill="lightgrey" stroke="black" points="256.5,-749 78.5,-749 78.5,-713 256.5,-713 256.5,-749"/>
<text text-anchor="middle" x="167.5" y="-727.3" font-family="Times,serif" font-size="14.00">extract_render_asset&lt;Image&gt;</text>
</a>
</g>
</g>
<!-- node_System(8) -->
<g id="node17" class="node">
<title>node_System(8)</title>
<g id="a_node17"><a xlink:title="bevy_render::extract_resource::extract_resource&lt;bevy_core_pipeline::clear_color::ClearColor&gt;">
<polygon fill="lightgrey" stroke="black" points="259.5,-796 75.5,-796 75.5,-760 259.5,-760 259.5,-796"/>
<text text-anchor="middle" x="167.5" y="-774.3" font-family="Times,serif" font-size="14.00">extract_resource&lt;ClearColor&gt;</text>
</a>
</g>
</g>
<!-- node_System(9) -->
<g id="node18" class="node">
<title>node_System(9)</title>
<g id="a_node18"><a xlink:title="bevy_render::extract_component::extract_components&lt;bevy_core_pipeline::core_2d::camera_2d::Camera2d&gt;">
<polygon fill="lightgrey" stroke="black" points="267,-843 68,-843 68,-807 267,-807 267,-843"/>
<text text-anchor="middle" x="167.5" y="-821.3" font-family="Times,serif" font-size="14.00">extract_components&lt;Camera2d&gt;</text>
</a>
</g>
</g>
<!-- node_System(10) -->
<g id="node19" class="node">
<title>node_System(10)</title>
<g id="a_node19"><a xlink:title="bevy_core_pipeline::core_2d::extract_core_2d_camera_phases">
<polygon fill="lightgrey" stroke="black" points="263.5,-890 71.5,-890 71.5,-854 263.5,-854 263.5,-890"/>
<text text-anchor="middle" x="167.5" y="-868.3" font-family="Times,serif" font-size="14.00">extract_core_2d_camera_phases</text>
</a>
</g>
</g>
<!-- node_System(11) -->
<g id="node20" class="node">
<title>node_System(11)</title>
<g id="a_node20"><a xlink:title="bevy_render::extract_component::extract_components&lt;bevy_core_pipeline::core_3d::camera_3d::Camera3d&gt;">
<polygon fill="lightgrey" stroke="black" points="267,-937 68,-937 68,-901 267,-901 267,-937"/>
<text text-anchor="middle" x="167.5" y="-915.3" font-family="Times,serif" font-size="14.00">extract_components&lt;Camera3d&gt;</text>
</a>
</g>
</g>
<!-- node_System(12) -->
<g id="node21" class="node">
<title>node_System(12)</title>
<g id="a_node21"><a xlink:title="bevy_core_pipeline::core_3d::extract_core_3d_camera_phases">
<polygon fill="lightgrey" stroke="black" points="263.5,-984 71.5,-984 71.5,-948 263.5,-948 263.5,-984"/>
<text text-anchor="middle" x="167.5" y="-962.3" font-family="Times,serif" font-size="14.00">extract_core_3d_camera_phases</text>
</a>
</g>
</g>
<!-- node_System(13) -->
<g id="node22" class="node">
<title>node_System(13)</title>
<g id="a_node22"><a xlink:title="bevy_render::extract_resource::extract_resource&lt;bevy_core_pipeline::tonemapping::TonemappingLuts&gt;">
<polygon fill="lightgrey" stroke="black" points="278,-1031 57,-1031 57,-995 278,-995 278,-1031"/>
<text text-anchor="middle" x="167.5" y="-1009.3" font-family="Times,serif" font-size="14.00">extract_resource&lt;TonemappingLuts&gt;</text>
</a>
</g>
</g>
<!-- node_System(14) -->
<g id="node23" class="node">
<title>node_System(14)</title>
<g id="a_node23"><a xlink:title="bevy_render::extract_component::extract_components&lt;bevy_core_pipeline::tonemapping::Tonemapping&gt;">
<polygon fill="lightgrey" stroke="black" points="276.5,-1078 58.5,-1078 58.5,-1042 276.5,-1042 276.5,-1078"/>
<text text-anchor="middle" x="167.5" y="-1056.3" font-family="Times,serif" font-size="14.00">extract_components&lt;Tonemapping&gt;</text>
</a>
</g>
</g>
<!-- node_System(15) -->
<g id="node24" class="node">
<title>node_System(15)</title>
<g id="a_node24"><a xlink:title="bevy_render::extract_component::extract_components&lt;bevy_core_pipeline::tonemapping::DebandDither&gt;">
<polygon fill="lightgrey" stroke="black" points="277,-1125 58,-1125 58,-1089 277,-1089 277,-1125"/>
<text text-anchor="middle" x="167.5" y="-1103.3" font-family="Times,serif" font-size="14.00">extract_components&lt;DebandDither&gt;</text>
</a>
</g>
</g>
<!-- node_System(16) -->
<g id="node25" class="node">
<title>node_System(16)</title>
<g id="a_node25"><a xlink:title="bevy_render::extract_component::extract_components&lt;bevy_core_pipeline::bloom::settings::BloomSettings&gt;">
<polygon fill="lightgrey" stroke="black" points="279.5,-1172 55.5,-1172 55.5,-1136 279.5,-1136 279.5,-1172"/>
<text text-anchor="middle" x="167.5" y="-1150.3" font-family="Times,serif" font-size="14.00">extract_components&lt;BloomSettings&gt;</text>
</a>
</g>
</g>
<!-- node_System(17) -->
<g id="node26" class="node">
<title>node_System(17)</title>
<g id="a_node26"><a xlink:title="bevy_render::extract_component::extract_components&lt;bevy_core_pipeline::fxaa::Fxaa&gt;">
<polygon fill="lightgrey" stroke="black" points="252.5,-1219 82.5,-1219 82.5,-1183 252.5,-1183 252.5,-1219"/>
<text text-anchor="middle" x="167.5" y="-1197.3" font-family="Times,serif" font-size="14.00">extract_components&lt;Fxaa&gt;</text>
</a>
</g>
</g>
<!-- node_System(18) -->
<g id="node27" class="node">
<title>node_System(18)</title>
<g id="a_node27"><a xlink:title="bevy_sprite::mesh2d::mesh::extract_mesh2d">
<polygon fill="lightgrey" stroke="black" points="218,-1266 117,-1266 117,-1230 218,-1230 218,-1266"/>
<text text-anchor="middle" x="167.5" y="-1244.3" font-family="Times,serif" font-size="14.00">extract_mesh2d</text>
</a>
</g>
</g>
<!-- node_System(19) -->
<g id="node28" class="node">
<title>node_System(19)</title>
<g id="a_node28"><a xlink:title="bevy_render::extract_component::extract_visible_components&lt;bevy_asset::handle::Handle&lt;bevy_sprite::mesh2d::color_material::ColorMaterial&gt;&gt;">
<polygon fill="lightgrey" stroke="black" points="326.5,-1313 8.5,-1313 8.5,-1277 326.5,-1277 326.5,-1313"/>
<text text-anchor="middle" x="167.5" y="-1291.3" font-family="Times,serif" font-size="14.00">extract_visible_components&lt;Handle&lt;ColorMaterial&gt;&gt;</text>
</a>
</g>
</g>
<!-- node_System(20) -->
<g id="node29" class="node">
<title>node_System(20)</title>
<g id="a_node29"><a xlink:title="bevy_sprite::mesh2d::material::extract_materials_2d&lt;bevy_sprite::mesh2d::color_material::ColorMaterial&gt;">
<polygon fill="lightgrey" stroke="black" points="279.5,-1360 55.5,-1360 55.5,-1324 279.5,-1324 279.5,-1360"/>
<text text-anchor="middle" x="167.5" y="-1338.3" font-family="Times,serif" font-size="14.00">extract_materials_2d&lt;ColorMaterial&gt;</text>
</a>
</g>
</g>
<!-- node_System(22) -->
<g id="node30" class="node">
<title>node_System(22)</title>
<g id="a_node30"><a xlink:title="bevy_sprite::render::extract_sprite_events">
<polygon fill="lightgrey" stroke="black" points="232.5,-1407 102.5,-1407 102.5,-1371 232.5,-1371 232.5,-1407"/>
<text text-anchor="middle" x="167.5" y="-1385.3" font-family="Times,serif" font-size="14.00">extract_sprite_events</text>
</a>
</g>
</g>
<!-- node_System(24) -->
<g id="node32" class="node">
<title>node_System(24)</title>
<g id="a_node32"><a xlink:title="bevy_render::extract_component::extract_components&lt;bevy_ui::camera_config::UiCameraConfig&gt;">
<polygon fill="lightgrey" stroke="black" points="285.5,-1454 49.5,-1454 49.5,-1418 285.5,-1418 285.5,-1454"/>
<text text-anchor="middle" x="167.5" y="-1432.3" font-family="Times,serif" font-size="14.00">extract_components&lt;UiCameraConfig&gt;</text>
</a>
</g>
</g>
<!-- node_System(25) -->
<g id="node33" class="node">
<title>node_System(25)</title>
<g id="a_node33"><a xlink:title="bevy_ui::render::extract_default_ui_camera_view&lt;bevy_core_pipeline::core_2d::camera_2d::Camera2d&gt;">
<polygon fill="lightgrey" stroke="black" points="300.5,-1501 34.5,-1501 34.5,-1465 300.5,-1465 300.5,-1501"/>
<text text-anchor="middle" x="167.5" y="-1479.3" font-family="Times,serif" font-size="14.00">extract_default_ui_camera_view&lt;Camera2d&gt;</text>
</a>
</g>
</g>
<!-- node_System(26) -->
<g id="node34" class="node">
<title>node_System(26)</title>
<g id="a_node34"><a xlink:title="bevy_ui::render::extract_default_ui_camera_view&lt;bevy_core_pipeline::core_3d::camera_3d::Camera3d&gt;">
<polygon fill="lightgrey" stroke="black" points="300.5,-1548 34.5,-1548 34.5,-1512 300.5,-1512 300.5,-1548"/>
<text text-anchor="middle" x="167.5" y="-1526.3" font-family="Times,serif" font-size="14.00">extract_default_ui_camera_view&lt;Camera3d&gt;</text>
</a>
</g>
</g>
<!-- node_System(29) -->
<g id="node36" class="node">
<title>node_System(29)</title>
<g id="a_node36"><a xlink:title="bevy_pbr::render::mesh::extract_meshes">
<polygon fill="lightgrey" stroke="black" points="217,-1595 118,-1595 118,-1559 217,-1559 217,-1595"/>
<text text-anchor="middle" x="167.5" y="-1573.3" font-family="Times,serif" font-size="14.00">extract_meshes</text>
</a>
</g>
</g>
<!-- node_System(30) -->
<g id="node37" class="node">
<title>node_System(30)</title>
<g id="a_node37"><a xlink:title="bevy_pbr::render::mesh::extract_skinned_meshes">
<polygon fill="lightgrey" stroke="black" points="241.5,-1642 93.5,-1642 93.5,-1606 241.5,-1606 241.5,-1642"/>
<text text-anchor="middle" x="167.5" y="-1620.3" font-family="Times,serif" font-size="14.00">extract_skinned_meshes</text>
</a>
</g>
</g>
<!-- node_System(31) -->
<g id="node38" class="node">
<title>node_System(31)</title>
<g id="a_node38"><a xlink:title="bevy_render::extract_component::extract_visible_components&lt;bevy_asset::handle::Handle&lt;bevy_pbr::pbr_material::StandardMaterial&gt;&gt;">
<polygon fill="lightgrey" stroke="black" points="335,-1689 0,-1689 0,-1653 335,-1653 335,-1689"/>
<text text-anchor="middle" x="167.5" y="-1667.3" font-family="Times,serif" font-size="14.00">extract_visible_components&lt;Handle&lt;StandardMaterial&gt;&gt;</text>
</a>
</g>
</g>
<!-- node_System(32) -->
<g id="node39" class="node">
<title>node_System(32)</title>
<g id="a_node39"><a xlink:title="bevy_pbr::material::extract_materials&lt;bevy_pbr::pbr_material::StandardMaterial&gt;">
<polygon fill="lightgrey" stroke="black" points="277.5,-1736 57.5,-1736 57.5,-1700 277.5,-1700 277.5,-1736"/>
<text text-anchor="middle" x="167.5" y="-1714.3" font-family="Times,serif" font-size="14.00">extract_materials&lt;StandardMaterial&gt;</text>
</a>
</g>
</g>
<!-- node_System(33) -->
<g id="node40" class="node">
<title>node_System(33)</title>
<g id="a_node40"><a xlink:title="bevy_pbr::prepass::extract_camera_prepass_phase">
<polygon fill="lightgrey" stroke="black" points="259.5,-1783 75.5,-1783 75.5,-1747 259.5,-1747 259.5,-1783"/>
<text text-anchor="middle" x="167.5" y="-1761.3" font-family="Times,serif" font-size="14.00">extract_camera_prepass_phase</text>
</a>
</g>
</g>
<!-- node_System(34) -->
<g id="node41" class="node">
<title>node_System(34)</title>
<g id="a_node41"><a xlink:title="bevy_render::extract_component::extract_components&lt;bevy_pbr::environment_map::EnvironmentMapLight&gt;">
<polygon fill="lightgrey" stroke="black" points="301,-1830 34,-1830 34,-1794 301,-1794 301,-1830"/>
<text text-anchor="middle" x="167.5" y="-1808.3" font-family="Times,serif" font-size="14.00">extract_components&lt;EnvironmentMapLight&gt;</text>
</a>
</g>
</g>
<!-- node_System(35) -->
<g id="node42" class="node">
<title>node_System(35)</title>
<g id="a_node42"><a xlink:title="bevy_render::extract_resource::extract_resource&lt;bevy_pbr::light::AmbientLight&gt;">
<polygon fill="lightgrey" stroke="black" points="267,-1877 68,-1877 68,-1841 267,-1841 267,-1877"/>
<text text-anchor="middle" x="167.5" y="-1855.3" font-family="Times,serif" font-size="14.00">extract_resource&lt;AmbientLight&gt;</text>
</a>
</g>
</g>
<!-- node_System(36) -->
<g id="node43" class="node">
<title>node_System(36)</title>
<g id="a_node43"><a xlink:title="bevy_render::extract_component::extract_components&lt;bevy_pbr::fog::FogSettings&gt;">
<polygon fill="lightgrey" stroke="black" points="271,-1924 64,-1924 64,-1888 271,-1888 271,-1924"/>
<text text-anchor="middle" x="167.5" y="-1902.3" font-family="Times,serif" font-size="14.00">extract_components&lt;FogSettings&gt;</text>
</a>
</g>
</g>
</g>
</svg>
