<?xml version="1.0" encoding="UTF-8" standalone="no"?>
<!DOCTYPE svg PUBLIC "-//W3C//DTD SVG 1.1//EN"
 "http://www.w3.org/Graphics/SVG/1.1/DTD/svg11.dtd">
<!-- Generated by graphviz version 7.1.0 (0)
 -->
<!-- Pages: 1 -->
<svg width="3360pt" height="1938pt"
 viewBox="0.00 0.00 3360.00 1938.00" xmlns="http://www.w3.org/2000/svg" xmlns:xlink="http://www.w3.org/1999/xlink">
<g id="graph0" class="graph" transform="scale(1 1) rotate(0) translate(4 1934)">
<polygon fill="white" stroke="none" points="-4,4 -4,-1934 3356,-1934 3356,4 -4,4"/>
<g id="clust1" class="cluster">
<title>clusternode_Set(1)</title>
<g id="a_clust1"><a xlink:title="PrepareFlush">
<polygon fill="white" stroke="black" points="869.5,-810 869.5,-903 1046.5,-903 1046.5,-810 869.5,-810"/>
<text text-anchor="middle" x="958" y="-887.8" font-family="Helvetica,sans-Serif" font-size="14.00">PrepareFlush</text>
</a>
</g>
</g>
<g id="clust2" class="cluster">
<title>clusternode_Set(2)</title>
<g id="a_clust2"><a xlink:title="QueueFlush">
<polygon fill="white" stroke="black" points="1612,-733 1612,-826 1789,-826 1789,-733 1612,-733"/>
<text text-anchor="middle" x="1700.5" y="-810.8" font-family="Helvetica,sans-Serif" font-size="14.00">QueueFlush</text>
</a>
</g>
</g>
<g id="clust3" class="cluster">
<title>clusternode_Set(3)</title>
<g id="a_clust3"><a xlink:title="PhaseSortFlush">
<polygon fill="white" stroke="black" points="2198.5,-308 2198.5,-401 2375.5,-401 2375.5,-308 2198.5,-308"/>
<text text-anchor="middle" x="2287" y="-385.8" font-family="Helvetica,sans-Serif" font-size="14.00">PhaseSortFlush</text>
</a>
</g>
</g>
<g id="clust4" class="cluster">
<title>clusternode_Set(4)</title>
<g id="a_clust4"><a xlink:title="RenderFlush">
<polygon fill="white" stroke="black" points="2714,-261 2714,-354 2891,-354 2891,-261 2714,-261"/>
<text text-anchor="middle" x="2802.5" y="-338.8" font-family="Helvetica,sans-Serif" font-size="14.00">RenderFlush</text>
</a>
</g>
</g>
<g id="clust5" class="cluster">
<title>clusternode_Set(5)</title>
<g id="a_clust5"><a xlink:title="CleanupFlush">
<polygon fill="white" stroke="black" points="3167,-261 3167,-354 3344,-354 3344,-261 3167,-261"/>
<text text-anchor="middle" x="3255.5" y="-338.8" font-family="Helvetica,sans-Serif" font-size="14.00">CleanupFlush</text>
</a>
</g>
</g>
<g id="clust6" class="cluster">
<title>clusternode_Set(6)</title>
<g id="a_clust6"><a xlink:title="ExtractCommands">
<polygon fill="white" stroke="black" points="8,-1435 8,-1528 212,-1528 212,-1435 8,-1435"/>
<text text-anchor="middle" x="110" y="-1512.8" font-family="Helvetica,sans-Serif" font-size="14.00">ExtractCommands</text>
</a>
</g>
</g>
<g id="clust7" class="cluster">
<title>clusternode_Set(7)</title>
<g id="a_clust7"><a xlink:title="Prepare">
<polygon fill="white" stroke="black" points="277,-937 277,-1922 1501.5,-1922 1501.5,-937 277,-937"/>
<text text-anchor="middle" x="889.25" y="-1906.8" font-family="Helvetica,sans-Serif" font-size="14.00">Prepare</text>
</a>
</g>
</g>
<g id="clust8" class="cluster">
<title>clusternode_Set(16)</title>
<g id="a_clust8"><a xlink:title="Prepare">
<polygon fill="white" stroke="black" points="381,-1798 381,-1891 534,-1891 534,-1798 381,-1798"/>
<text text-anchor="middle" x="457.5" y="-1875.8" font-family="Helvetica,sans-Serif" font-size="14.00">Prepare</text>
</a>
</g>
</g>
<g id="clust9" class="cluster">
<title>clusternode_Set(18)</title>
<g id="a_clust9"><a xlink:title="PrepareUniforms">
<polygon fill="white" stroke="black" points="1299.5,-1456 1299.5,-1549 1493.5,-1549 1493.5,-1456 1299.5,-1456"/>
<text text-anchor="middle" x="1396.5" y="-1533.8" font-family="Helvetica,sans-Serif" font-size="14.00">PrepareUniforms</text>
</a>
</g>
</g>
<g id="clust10" class="cluster">
<title>clusternode_Set(21)</title>
<g id="a_clust10"><a xlink:title="PreAssetPrepare">
<polygon fill="white" stroke="black" points="363,-1697 363,-1790 552,-1790 552,-1697 363,-1697"/>
<text text-anchor="middle" x="457.5" y="-1774.8" font-family="Helvetica,sans-Serif" font-size="14.00">PreAssetPrepare</text>
</a>
</g>
</g>
<g id="clust11" class="cluster">
<title>clusternode_Set(22)</title>
<g id="a_clust11"><a xlink:title="AssetPrepare">
<polygon fill="white" stroke="black" points="866.5,-1640 866.5,-1733 1049.5,-1733 1049.5,-1640 866.5,-1640"/>
<text text-anchor="middle" x="958" y="-1717.8" font-family="Helvetica,sans-Serif" font-size="14.00">AssetPrepare</text>
</a>
</g>
</g>
<g id="clust12" class="cluster">
<title>clusternode_Set(23)</title>
<g id="a_clust12"><a xlink:title="PostAssetPrepare">
<polygon fill="white" stroke="black" points="1329.5,-1694 1329.5,-1733 1463.5,-1733 1463.5,-1694 1329.5,-1694"/>
<text text-anchor="middle" x="1396.5" y="-1717.8" font-family="Helvetica,sans-Serif" font-size="14.00">PostAssetPrepare</text>
</a>
</g>
</g>
<g id="clust13" class="cluster">
<title>clusternode_Set(61)</title>
<g id="a_clust13"><a xlink:title="PrepareFog">
<polygon fill="white" stroke="black" points="400.5,-1596 400.5,-1689 514.5,-1689 514.5,-1596 400.5,-1596"/>
<text text-anchor="middle" x="457.5" y="-1673.8" font-family="Helvetica,sans-Serif" font-size="14.00">PrepareFog</text>
</a>
</g>
</g>
<g id="clust14" class="cluster">
<title>clusternode_Set(62)</title>
<g id="a_clust14"><a xlink:title="PrepareLights">
<polygon fill="white" stroke="black" points="393,-1495 393,-1588 522,-1588 522,-1495 393,-1495"/>
<text text-anchor="middle" x="457.5" y="-1572.8" font-family="Helvetica,sans-Serif" font-size="14.00">PrepareLights</text>
</a>
</g>
</g>
<g id="clust15" class="cluster">
<title>clusternode_Set(63)</title>
<g id="a_clust15"><a xlink:title="PrepareClusters">
<polygon fill="white" stroke="black" points="886,-1539 886,-1632 1030,-1632 1030,-1539 886,-1539"/>
<text text-anchor="middle" x="958" y="-1616.8" font-family="Helvetica,sans-Serif" font-size="14.00">PrepareClusters</text>
</a>
</g>
</g>
<g id="clust16" class="cluster">
<title>clusternode_Set(8)</title>
<g id="a_clust16"><a xlink:title="Queue">
<polygon fill="white" stroke="black" points="1202,-8 1202,-929 1591,-929 1591,-8 1202,-8"/>
<text text-anchor="middle" x="1396.5" y="-913.8" font-family="Helvetica,sans-Serif" font-size="14.00">Queue</text>
</a>
</g>
</g>
<g id="clust17" class="cluster">
<title>clusternode_Set(64)</title>
<g id="a_clust17"><a xlink:title="QueueShadows">
<polygon fill="white" stroke="black" points="1327.5,-805 1327.5,-898 1465.5,-898 1465.5,-805 1327.5,-805"/>
<text text-anchor="middle" x="1396.5" y="-882.8" font-family="Helvetica,sans-Serif" font-size="14.00">QueueShadows</text>
</a>
</g>
</g>
<g id="clust18" class="cluster">
<title>clusternode_Set(9)</title>
<g id="a_clust18"><a xlink:title="PhaseSort">
<polygon fill="white" stroke="black" points="1810,-409 1810,-880 2428,-880 2428,-409 1810,-409"/>
<text text-anchor="middle" x="2119" y="-864.8" font-family="Helvetica,sans-Serif" font-size="14.00">PhaseSort</text>
</a>
</g>
</g>
<g id="clust19" class="cluster">
<title>clusternode_Set(10)</title>
<g id="a_clust19"><a xlink:title="Render">
<polygon fill="white" stroke="black" points="2449,-362 2449,-455 2868.5,-455 2868.5,-362 2449,-362"/>
<text text-anchor="middle" x="2658.75" y="-439.8" font-family="Helvetica,sans-Serif" font-size="14.00">Render</text>
</a>
</g>
</g>
<g id="clust20" class="cluster">
<title>clusternode_Set(11)</title>
<g id="a_clust20"><a xlink:title="Cleanup">
<polygon fill="white" stroke="black" points="2912,-207 2912,-354 3146,-354 3146,-207 2912,-207"/>
<text text-anchor="middle" x="3029" y="-338.8" font-family="Helvetica,sans-Serif" font-size="14.00">Cleanup</text>
</a>
</g>
</g>
<!-- set_marker_node_Set(1) -->
<!-- set_marker_node_Set(8) -->
<!-- set_marker_node_Set(1)&#45;&gt;set_marker_node_Set(8) -->
<g id="edge3" class="edge">
<title>set_marker_node_Set(1)&#45;&gt;set_marker_node_Set(8)</title>
<g id="a_edge3"><a xlink:title="PrepareFlush → Queue">
<path fill="none" stroke="#00b0cc" stroke-width="2" d="M1046.5,-872.31C1063.19,-870.68 1080.33,-867.8 1096,-863 1143.8,-848.35 1148.96,-821.18 1189.81,-805.12"/>
<polygon fill="#00b0cc" stroke="#00b0cc" stroke-width="2" points="1190.78,-808.48 1199.13,-801.97 1188.54,-801.85 1190.78,-808.48"/>
</a>
</g>
</g>
<!-- node_System(0) -->
<g id="node2" class="node">
<title>node_System(0)</title>
<g id="a_node2"><a xlink:title="bevy_ecs::schedule::executor::apply_system_buffers">
<polygon fill="white" stroke="black" points="1038.5,-854 877.5,-854 877.5,-818 1038.5,-818 1038.5,-854"/>
<text text-anchor="middle" x="958" y="-832.3" font-family="Times,serif" font-size="14.00">apply_system_buffers</text>
</a>
</g>
</g>
<!-- set_marker_node_Set(2) -->
<!-- set_marker_node_Set(9) -->
<!-- set_marker_node_Set(2)&#45;&gt;set_marker_node_Set(9) -->
<g id="edge5" class="edge">
<title>set_marker_node_Set(2)&#45;&gt;set_marker_node_Set(9)</title>
<g id="a_edge5"><a xlink:title="QueueFlush → PhaseSort">
<path fill="none" stroke="#44d488" stroke-width="2" d="M1789,-795C1791.72,-795 1794.47,-795 1797.25,-795"/>
<polygon fill="#44d488" stroke="#44d488" stroke-width="2" points="1796.97,-798.5 1806.97,-795 1796.97,-791.5 1796.97,-798.5"/>
</a>
</g>
</g>
<!-- node_System(1) -->
<g id="node4" class="node">
<title>node_System(1)</title>
<g id="a_node4"><a xlink:title="bevy_ecs::schedule::executor::apply_system_buffers">
<polygon fill="white" stroke="black" points="1781,-777 1620,-777 1620,-741 1781,-741 1781,-777"/>
<text text-anchor="middle" x="1700.5" y="-755.3" font-family="Times,serif" font-size="14.00">apply_system_buffers</text>
</a>
</g>
</g>
<!-- set_marker_node_Set(3) -->
<!-- set_marker_node_Set(10) -->
<!-- set_marker_node_Set(3)&#45;&gt;set_marker_node_Set(10) -->
<g id="edge7" class="edge">
<title>set_marker_node_Set(3)&#45;&gt;set_marker_node_Set(10)</title>
<g id="a_edge7"><a xlink:title="PhaseSortFlush → Render">
<path fill="none" stroke="#ee9e44" stroke-width="2" d="M2375.5,-370C2394.74,-370 2415.54,-370 2436.13,-370"/>
<polygon fill="#ee9e44" stroke="#ee9e44" stroke-width="2" points="2435.98,-373.5 2445.98,-370 2435.98,-366.5 2435.98,-373.5"/>
</a>
</g>
</g>
<!-- node_System(2) -->
<g id="node6" class="node">
<title>node_System(2)</title>
<g id="a_node6"><a xlink:title="bevy_ecs::schedule::executor::apply_system_buffers">
<polygon fill="white" stroke="black" points="2367.5,-352 2206.5,-352 2206.5,-316 2367.5,-316 2367.5,-352"/>
<text text-anchor="middle" x="2287" y="-330.3" font-family="Times,serif" font-size="14.00">apply_system_buffers</text>
</a>
</g>
</g>
<!-- set_marker_node_Set(4) -->
<!-- set_marker_node_Set(11) -->
<!-- set_marker_node_Set(4)&#45;&gt;set_marker_node_Set(11) -->
<g id="edge9" class="edge">
<title>set_marker_node_Set(4)&#45;&gt;set_marker_node_Set(11)</title>
<g id="a_edge9"><a xlink:title="RenderFlush → Cleanup">
<path fill="none" stroke="#3363bb" stroke-width="2" d="M2891,-323C2893.64,-323 2896.31,-323 2898.98,-323"/>
<polygon fill="#3363bb" stroke="#3363bb" stroke-width="2" points="2898.97,-326.5 2908.97,-323 2898.97,-319.5 2898.97,-326.5"/>
</a>
</g>
</g>
<!-- node_System(3) -->
<g id="node8" class="node">
<title>node_System(3)</title>
<g id="a_node8"><a xlink:title="bevy_ecs::schedule::executor::apply_system_buffers">
<polygon fill="white" stroke="black" points="2883,-305 2722,-305 2722,-269 2883,-269 2883,-305"/>
<text text-anchor="middle" x="2802.5" y="-283.3" font-family="Times,serif" font-size="14.00">apply_system_buffers</text>
</a>
</g>
</g>
<!-- set_marker_node_Set(5) -->
<!-- node_System(4) -->
<g id="node10" class="node">
<title>node_System(4)</title>
<g id="a_node10"><a xlink:title="bevy_ecs::schedule::executor::apply_system_buffers">
<polygon fill="white" stroke="black" points="3336,-305 3175,-305 3175,-269 3336,-269 3336,-305"/>
<text text-anchor="middle" x="3255.5" y="-283.3" font-family="Times,serif" font-size="14.00">apply_system_buffers</text>
</a>
</g>
</g>
<!-- set_marker_node_Set(6) -->
<!-- set_marker_node_Set(7) -->
<!-- set_marker_node_Set(6)&#45;&gt;set_marker_node_Set(7) -->
<g id="edge1" class="edge">
<title>set_marker_node_Set(6)&#45;&gt;set_marker_node_Set(7)</title>
<g id="a_edge1"><a xlink:title="ExtractCommands → Prepare">
<path fill="none" stroke="#eede00" stroke-width="2" d="M212,-1493.31C229.11,-1492.69 246.9,-1492.05 264.07,-1491.45"/>
<polygon fill="#eede00" stroke="#eede00" stroke-width="2" points="264.1,-1494.95 273.97,-1491.11 263.86,-1487.96 264.1,-1494.95"/>
</a>
</g>
</g>
<!-- node_System(5) -->
<g id="node12" class="node">
<title>node_System(5)</title>
<g id="a_node12"><a xlink:title="bevy_render::apply_extract_commands">
<polygon fill="white" stroke="black" points="204,-1479 16,-1479 16,-1443 204,-1443 204,-1479"/>
<text text-anchor="middle" x="110" y="-1457.3" font-family="Times,serif" font-size="14.00">apply_extract_commands</text>
</a>
</g>
</g>
<!-- set_marker_node_Set(7)&#45;&gt;set_marker_node_Set(1) -->
<g id="edge2" class="edge">
<title>set_marker_node_Set(7)&#45;&gt;set_marker_node_Set(1)</title>
<g id="a_edge2"><a xlink:title="Prepare → PrepareFlush">
<path fill="none" stroke="#881877" stroke-width="2" d="M816.37,-937C817.56,-935.67 818.77,-934.33 820,-933 830.69,-921.39 843.99,-911.86 858.08,-904.08"/>
<polygon fill="#881877" stroke="#881877" stroke-width="2" points="859.52,-907.27 866.81,-899.59 856.32,-901.05 859.52,-907.27"/>
</a>
</g>
</g>
<!-- set_marker_node_Set(16) -->
<!-- node_System(11) -->
<g id="node29" class="node">
<title>node_System(11)</title>
<g id="a_node29"><a xlink:title="bevy_render::view::prepare_view_targets">
<polygon fill="white" stroke="black" points="1039,-1885 877,-1885 877,-1849 1039,-1849 1039,-1885"/>
<text text-anchor="middle" x="958" y="-1863.3" font-family="Times,serif" font-size="14.00">prepare_view_targets</text>
</a>
</g>
</g>
<!-- set_marker_node_Set(16)&#45;&gt;node_System(11) -->
<g id="edge12" class="edge">
<title>set_marker_node_Set(16)&#45;&gt;node_System(11)</title>
<g id="a_edge12"><a xlink:title="Prepare → prepare_view_targets">
<path fill="none" stroke="#eede00" stroke-width="2" d="M534,-1861.06C622.38,-1862.3 768.78,-1864.36 864.06,-1865.69"/>
<polygon fill="#eede00" stroke="#eede00" stroke-width="2" points="863.58,-1869.19 873.63,-1865.83 863.68,-1862.19 863.58,-1869.19"/>
</a>
</g>
</g>
<!-- node_System(9) -->
<g id="node15" class="node">
<title>node_System(9)</title>
<g id="a_node15"><a xlink:title="bevy_render::view::window::prepare_windows">
<polygon fill="white" stroke="black" points="526,-1842 389,-1842 389,-1806 526,-1806 526,-1842"/>
<text text-anchor="middle" x="457.5" y="-1820.3" font-family="Times,serif" font-size="14.00">prepare_windows</text>
</a>
</g>
</g>
<!-- node_System(18) -->
<g id="node31" class="node">
<title>node_System(18)</title>
<g id="a_node31"><a xlink:title="bevy_core_pipeline::core_3d::prepare_core_3d_depth_textures">
<polygon fill="white" stroke="black" points="575.5,-1413 339.5,-1413 339.5,-1377 575.5,-1377 575.5,-1413"/>
<text text-anchor="middle" x="457.5" y="-1391.3" font-family="Times,serif" font-size="14.00">prepare_core_3d_depth_textures</text>
</a>
</g>
</g>
<!-- node_System(9)&#45;&gt;node_System(18) -->
<g id="edge22" class="edge">
<title>node_System(9)&#45;&gt;node_System(18)</title>
<path fill="none" stroke="#c93526" stroke-width="2" d="M388.93,-1831.73C350.29,-1831.98 304.42,-1824.66 277,-1794 174.85,-1679.79 251.73,-1441.66 258.83,-1430.5 276.23,-1403.15 306.99,-1390.94 339.19,-1386.48"/>
<g id="a_edge22&#45;label"><a xlink:title="prepare_windows — prepare_core_3d_depth_textures">
<polygon fill="#d3d3d3" stroke="none" points="224.5,-1432 224.5,-1451 265.5,-1451 265.5,-1432 224.5,-1432"/>
<text text-anchor="start" x="226.5" y="-1437.8" font-family="Times,serif" font-size="14.00" fill="#c93526">Msaa</text>
</a>
</g>
</g>
<!-- node_System(43) -->
<g id="node41" class="node">
<title>node_System(43)</title>
<g id="a_node41"><a xlink:title="bevy_pbr::prepass::prepare_prepass_textures">
<polygon fill="white" stroke="black" points="552.5,-981 362.5,-981 362.5,-945 552.5,-945 552.5,-981"/>
<text text-anchor="middle" x="457.5" y="-959.3" font-family="Times,serif" font-size="14.00">prepare_prepass_textures</text>
</a>
</g>
</g>
<!-- node_System(9)&#45;&gt;node_System(43) -->
<g id="edge23" class="edge">
<title>node_System(9)&#45;&gt;node_System(43)</title>
<path fill="none" stroke="#c93526" stroke-width="2" d="M388.53,-1831.68C350.01,-1831.86 304.39,-1824.48 277,-1794 184.01,-1690.52 262.87,-1620.56 258.83,-1481.5 255.66,-1372.25 204.07,-1071.41 277,-990 298.25,-966.28 330.63,-957.03 362.13,-954.53"/>
<g id="a_edge23&#45;label"><a xlink:title="prepare_windows — prepare_prepass_textures">
<polygon fill="#d3d3d3" stroke="none" points="224.5,-1460 224.5,-1479 265.5,-1479 265.5,-1460 224.5,-1460"/>
<text text-anchor="start" x="226.5" y="-1465.8" font-family="Times,serif" font-size="14.00" fill="#c93526">Msaa</text>
</a>
</g>
</g>
<!-- set_marker_node_Set(18) -->
<!-- node_System(10) -->
<g id="node17" class="node">
<title>node_System(10)</title>
<g id="a_node17"><a xlink:title="bevy_render::view::prepare_view_uniforms">
<polygon fill="white" stroke="black" points="1485.5,-1500 1307.5,-1500 1307.5,-1464 1485.5,-1464 1485.5,-1500"/>
<text text-anchor="middle" x="1396.5" y="-1478.3" font-family="Times,serif" font-size="14.00">prepare_view_uniforms</text>
</a>
</g>
</g>
<!-- set_marker_node_Set(21) -->
<!-- set_marker_node_Set(22) -->
<!-- set_marker_node_Set(21)&#45;&gt;set_marker_node_Set(22) -->
<g id="edge13" class="edge">
<title>set_marker_node_Set(21)&#45;&gt;set_marker_node_Set(22)</title>
<g id="a_edge13"><a xlink:title="PreAssetPrepare → AssetPrepare">
<path fill="none" stroke="#881877" stroke-width="2" d="M552,-1766.26C578.15,-1765.09 605.98,-1760.7 630,-1750 640.34,-1745.4 637.9,-1737.1 648,-1732 717.01,-1697.14 743,-1712.92 820,-1706 830.9,-1705.02 842.31,-1704.26 853.7,-1703.68"/>
<polygon fill="#881877" stroke="#881877" stroke-width="2" points="853.65,-1707.19 863.48,-1703.23 853.33,-1700.19 853.65,-1707.19"/>
</a>
</g>
</g>
<!-- node_System(31) -->
<g id="node36" class="node">
<title>node_System(31)</title>
<g id="a_node36"><a xlink:title="bevy_sprite::mesh2d::material::prepare_materials_2d&lt;bevy_sprite::mesh2d::color_material::ColorMaterial&gt;">
<polygon fill="white" stroke="black" points="1094.5,-1777 821.5,-1777 821.5,-1741 1094.5,-1741 1094.5,-1777"/>
<text text-anchor="middle" x="958" y="-1755.3" font-family="Times,serif" font-size="14.00">prepare_materials_2d&lt;ColorMaterial&gt;</text>
</a>
</g>
</g>
<!-- set_marker_node_Set(21)&#45;&gt;node_System(31) -->
<g id="edge16" class="edge">
<title>set_marker_node_Set(21)&#45;&gt;node_System(31)</title>
<g id="a_edge16"><a xlink:title="PreAssetPrepare → prepare_materials_2d&lt;ColorMaterial&gt;">
<path fill="none" stroke="#44d488" stroke-width="2" d="M552,-1759C624.08,-1759 725.16,-1759 808.3,-1759"/>
<polygon fill="#44d488" stroke="#44d488" stroke-width="2" points="808.26,-1762.5 818.26,-1759 808.26,-1755.5 808.26,-1762.5"/>
</a>
</g>
</g>
<!-- node_System(41) -->
<g id="node40" class="node">
<title>node_System(41)</title>
<g id="a_node40"><a xlink:title="bevy_pbr::material::prepare_materials&lt;bevy_pbr::pbr_material::StandardMaterial&gt;">
<polygon fill="white" stroke="black" points="1096,-1831 820,-1831 820,-1795 1096,-1795 1096,-1831"/>
<text text-anchor="middle" x="958" y="-1809.3" font-family="Times,serif" font-size="14.00">prepare_materials&lt;StandardMaterial&gt;</text>
</a>
</g>
</g>
<!-- set_marker_node_Set(21)&#45;&gt;node_System(41) -->
<g id="edge17" class="edge">
<title>set_marker_node_Set(21)&#45;&gt;node_System(41)</title>
<g id="a_edge17"><a xlink:title="PreAssetPrepare → prepare_materials&lt;StandardMaterial&gt;">
<path fill="none" stroke="#0090cc" stroke-width="2" d="M552,-1769.13C623.73,-1776.9 724.2,-1787.78 807.12,-1796.76"/>
<polygon fill="#0090cc" stroke="#0090cc" stroke-width="2" points="806.32,-1800.2 816.64,-1797.8 807.08,-1793.24 806.32,-1800.2"/>
</a>
</g>
</g>
<!-- node_System(14) -->
<g id="node19" class="node">
<title>node_System(14)</title>
<g id="a_node19"><a xlink:title="bevy_render::render_asset::prepare_assets&lt;bevy_render::texture::image::Image&gt;">
<polygon fill="white" stroke="black" points="544,-1741 371,-1741 371,-1705 544,-1705 544,-1741"/>
<text text-anchor="middle" x="457.5" y="-1719.3" font-family="Times,serif" font-size="14.00">prepare_assets&lt;Image&gt;</text>
</a>
</g>
</g>
<!-- set_marker_node_Set(23) -->
<!-- set_marker_node_Set(22)&#45;&gt;set_marker_node_Set(23) -->
<g id="edge14" class="edge">
<title>set_marker_node_Set(22)&#45;&gt;set_marker_node_Set(23)</title>
<g id="a_edge14"><a xlink:title="AssetPrepare → PostAssetPrepare">
<path fill="none" stroke="#00b0cc" stroke-width="2" d="M1049.5,-1702C1128.34,-1702 1241.52,-1702 1316.7,-1702"/>
<polygon fill="#00b0cc" stroke="#00b0cc" stroke-width="2" points="1316.48,-1705.5 1326.48,-1702 1316.48,-1698.5 1316.48,-1705.5"/>
</a>
</g>
</g>
<!-- node_System(12) -->
<g id="node21" class="node">
<title>node_System(12)</title>
<g id="a_node21"><a xlink:title="bevy_render::render_asset::prepare_assets&lt;bevy_render::mesh::mesh::Mesh&gt;">
<polygon fill="white" stroke="black" points="1041.5,-1684 874.5,-1684 874.5,-1648 1041.5,-1648 1041.5,-1684"/>
<text text-anchor="middle" x="958" y="-1662.3" font-family="Times,serif" font-size="14.00">prepare_assets&lt;Mesh&gt;</text>
</a>
</g>
</g>
<!-- set_marker_node_Set(61) -->
<!-- node_System(48) -->
<g id="node24" class="node">
<title>node_System(48)</title>
<g id="a_node24"><a xlink:title="bevy_pbr::render::fog::prepare_fog">
<polygon fill="white" stroke="black" points="506.5,-1640 408.5,-1640 408.5,-1604 506.5,-1604 506.5,-1640"/>
<text text-anchor="middle" x="457.5" y="-1618.3" font-family="Times,serif" font-size="14.00">prepare_fog</text>
</a>
</g>
</g>
<!-- set_marker_node_Set(62) -->
<!-- node_System(50) -->
<g id="node42" class="node">
<title>node_System(50)</title>
<g id="a_node42"><a xlink:title="bevy_ecs::schedule::executor::apply_system_buffers">
<polygon fill="white" stroke="black" points="1038.5,-1509 877.5,-1509 877.5,-1473 1038.5,-1473 1038.5,-1509"/>
<text text-anchor="middle" x="958" y="-1487.3" font-family="Times,serif" font-size="14.00">apply_system_buffers</text>
</a>
</g>
</g>
<!-- set_marker_node_Set(62)&#45;&gt;node_System(50) -->
<g id="edge19" class="edge">
<title>set_marker_node_Set(62)&#45;&gt;node_System(50)</title>
<g id="a_edge19"><a xlink:title="PrepareLights → apply_system_buffers">
<path fill="none" stroke="#663699" stroke-width="2" d="M522,-1501.54C554.33,-1500.79 594.26,-1499.85 630,-1499 709.04,-1497.11 798.82,-1494.91 864.28,-1493.3"/>
<polygon fill="#663699" stroke="#663699" stroke-width="2" points="864.1,-1496.8 874.01,-1493.06 863.93,-1489.8 864.1,-1496.8"/>
</a>
</g>
</g>
<!-- node_System(49) -->
<g id="node26" class="node">
<title>node_System(49)</title>
<g id="a_node26"><a xlink:title="bevy_pbr::render::light::prepare_lights">
<polygon fill="white" stroke="black" points="514,-1557 401,-1557 401,-1521 514,-1521 514,-1557"/>
<text text-anchor="middle" x="457.5" y="-1535.3" font-family="Times,serif" font-size="14.00">prepare_lights</text>
</a>
</g>
</g>
<!-- node_System(49)&#45;&gt;set_marker_node_Set(18) -->
<g id="edge18" class="edge">
<title>node_System(49)&#45;&gt;set_marker_node_Set(18)</title>
<g id="a_edge18"><a xlink:title="prepare_lights → PrepareUniforms">
<path fill="none" stroke="#ee9e44" stroke-width="2" d="M514.17,-1537.84C636.69,-1535.27 938.91,-1528.87 1192,-1523 1222.69,-1522.29 1255.98,-1521.48 1286.57,-1520.73"/>
<polygon fill="#ee9e44" stroke="#ee9e44" stroke-width="2" points="1286.56,-1524.23 1296.48,-1520.49 1286.39,-1517.24 1286.56,-1524.23"/>
</a>
</g>
</g>
<!-- node_System(51) -->
<g id="node28" class="node">
<title>node_System(51)</title>
<g id="a_node28"><a xlink:title="bevy_pbr::render::light::prepare_clusters">
<polygon fill="white" stroke="black" points="1022,-1583 894,-1583 894,-1547 1022,-1547 1022,-1583"/>
<text text-anchor="middle" x="958" y="-1561.3" font-family="Times,serif" font-size="14.00">prepare_clusters</text>
</a>
</g>
</g>
<!-- node_System(49)&#45;&gt;node_System(51) -->
<g id="edge21" class="edge">
<title>node_System(49)&#45;&gt;node_System(51)</title>
<g id="a_edge21"><a xlink:title="SystemTypeSet(prepare_lights&quot;) → prepare_clusters">
<path fill="none" stroke="#22c2bb" stroke-width="2" d="M514.23,-1541.91C603.8,-1546.58 779.95,-1555.77 880.98,-1561.04"/>
<polygon fill="#22c2bb" stroke="#22c2bb" stroke-width="2" points="880.63,-1564.52 890.79,-1561.55 880.99,-1557.53 880.63,-1564.52"/>
</a>
</g>
</g>
<!-- set_marker_node_Set(63) -->
<!-- node_System(11)&#45;&gt;node_System(14) -->
<g id="edge24" class="edge">
<title>node_System(11)&#45;&gt;node_System(14)</title>
<path fill="none" stroke="#c93526" stroke-width="2" d="M876.81,-1854.65C857.94,-1850.8 838.07,-1845.96 820,-1840 731.26,-1810.74 719.29,-1777.55 630,-1750 602.64,-1741.56 571.97,-1735.66 544.21,-1731.59"/>
<g id="a_edge24&#45;label"><a xlink:title="prepare_view_targets — prepare_assets&lt;Image&gt;">
<polygon fill="#d3d3d3" stroke="none" points="650,-1833.5 650,-1852.5 800,-1852.5 800,-1833.5 650,-1833.5"/>
<text text-anchor="start" x="652" y="-1839.3" font-family="Times,serif" font-size="14.00" fill="#c93526">RenderAssets&lt;Image&gt;</text>
</a>
</g>
</g>
<!-- node_System(13) -->
<g id="node30" class="node">
<title>node_System(13)</title>
<g id="a_node30"><a xlink:title="bevy_render::globals::prepare_globals_buffer">
<polygon fill="white" stroke="black" points="543.5,-1467 371.5,-1467 371.5,-1431 543.5,-1431 543.5,-1467"/>
<text text-anchor="middle" x="457.5" y="-1445.3" font-family="Times,serif" font-size="14.00">prepare_globals_buffer</text>
</a>
</g>
</g>
<!-- node_System(24) -->
<g id="node32" class="node">
<title>node_System(24)</title>
<g id="a_node32"><a xlink:title="bevy_render::extract_component::prepare_uniform_components&lt;bevy_core_pipeline::bloom::BloomUniform&gt;">
<polygon fill="white" stroke="black" points="626,-1359 289,-1359 289,-1323 626,-1323 626,-1359"/>
<text text-anchor="middle" x="457.5" y="-1337.3" font-family="Times,serif" font-size="14.00">prepare_uniform_components&lt;BloomUniform&gt;</text>
</a>
</g>
</g>
<!-- node_System(25) -->
<g id="node33" class="node">
<title>node_System(25)</title>
<g id="a_node33"><a xlink:title="bevy_core_pipeline::bloom::prepare_bloom_textures">
<polygon fill="white" stroke="black" points="548.5,-1305 366.5,-1305 366.5,-1269 548.5,-1269 548.5,-1305"/>
<text text-anchor="middle" x="457.5" y="-1283.3" font-family="Times,serif" font-size="14.00">prepare_bloom_textures</text>
</a>
</g>
</g>
<!-- node_System(27) -->
<g id="node34" class="node">
<title>node_System(27)</title>
<g id="a_node34"><a xlink:title="bevy_core_pipeline::fxaa::prepare_fxaa_pipelines">
<polygon fill="white" stroke="black" points="544,-1251 371,-1251 371,-1215 544,-1215 544,-1251"/>
<text text-anchor="middle" x="457.5" y="-1229.3" font-family="Times,serif" font-size="14.00">prepare_fxaa_pipelines</text>
</a>
</g>
</g>
<!-- node_System(28) -->
<g id="node35" class="node">
<title>node_System(28)</title>
<g id="a_node35"><a xlink:title="bevy_render::extract_component::prepare_uniform_components&lt;bevy_sprite::mesh2d::mesh::Mesh2dUniform&gt;">
<polygon fill="white" stroke="black" points="630,-1197 285,-1197 285,-1161 630,-1161 630,-1197"/>
<text text-anchor="middle" x="457.5" y="-1175.3" font-family="Times,serif" font-size="14.00">prepare_uniform_components&lt;Mesh2dUniform&gt;</text>
</a>
</g>
</g>
<!-- node_System(34) -->
<g id="node37" class="node">
<title>node_System(34)</title>
<g id="a_node37"><a xlink:title="bevy_ui::render::prepare_uinodes">
<polygon fill="white" stroke="black" points="522,-1143 393,-1143 393,-1107 522,-1107 522,-1143"/>
<text text-anchor="middle" x="457.5" y="-1121.3" font-family="Times,serif" font-size="14.00">prepare_uinodes</text>
</a>
</g>
</g>
<!-- node_System(37) -->
<g id="node38" class="node">
<title>node_System(37)</title>
<g id="a_node38"><a xlink:title="bevy_render::extract_component::prepare_uniform_components&lt;bevy_pbr::render::mesh::MeshUniform&gt;">
<polygon fill="white" stroke="black" points="622,-1089 293,-1089 293,-1053 622,-1053 622,-1089"/>
<text text-anchor="middle" x="457.5" y="-1067.3" font-family="Times,serif" font-size="14.00">prepare_uniform_components&lt;MeshUniform&gt;</text>
</a>
</g>
</g>
<!-- node_System(38) -->
<g id="node39" class="node">
<title>node_System(38)</title>
<g id="a_node39"><a xlink:title="bevy_pbr::render::mesh::prepare_skinned_meshes">
<polygon fill="white" stroke="black" points="550,-1035 365,-1035 365,-999 550,-999 550,-1035"/>
<text text-anchor="middle" x="457.5" y="-1013.3" font-family="Times,serif" font-size="14.00">prepare_skinned_meshes</text>
</a>
</g>
</g>
<!-- node_System(50)&#45;&gt;set_marker_node_Set(18) -->
<g id="edge20" class="edge">
<title>node_System(50)&#45;&gt;set_marker_node_Set(18)</title>
<g id="a_edge20"><a xlink:title="apply_system_buffers → PrepareUniforms">
<path fill="none" stroke="#3363bb" stroke-width="2" d="M1038.86,-1497.47C1086.25,-1501.17 1147.53,-1505.72 1202,-1509 1229.38,-1510.65 1258.96,-1512.16 1286.56,-1513.46"/>
<polygon fill="#3363bb" stroke="#3363bb" stroke-width="2" points="1286.33,-1516.95 1296.48,-1513.92 1286.65,-1509.96 1286.33,-1516.95"/>
</a>
</g>
</g>
<!-- set_marker_node_Set(8)&#45;&gt;set_marker_node_Set(2) -->
<g id="edge4" class="edge">
<title>set_marker_node_Set(8)&#45;&gt;set_marker_node_Set(2)</title>
<g id="a_edge4"><a xlink:title="Queue → QueueFlush">
<path fill="none" stroke="#aa3a55" stroke-width="2" d="M1591,-795C1593.73,-795 1596.44,-795 1599.13,-795"/>
<polygon fill="#aa3a55" stroke="#aa3a55" stroke-width="2" points="1598.97,-798.5 1608.97,-795 1598.97,-791.5 1598.97,-798.5"/>
</a>
</g>
</g>
<!-- set_marker_node_Set(64) -->
<!-- node_System(52) -->
<g id="node45" class="node">
<title>node_System(52)</title>
<g id="a_node45"><a xlink:title="bevy_pbr::render::light::queue_shadows">
<polygon fill="white" stroke="black" points="1457.5,-849 1335.5,-849 1335.5,-813 1457.5,-813 1457.5,-849"/>
<text text-anchor="middle" x="1396.5" y="-827.3" font-family="Times,serif" font-size="14.00">queue_shadows</text>
</a>
</g>
</g>
<!-- node_System(22) -->
<g id="node46" class="node">
<title>node_System(22)</title>
<g id="a_node46"><a xlink:title="bevy_core_pipeline::tonemapping::queue_view_tonemapping_pipelines">
<polygon fill="white" stroke="black" points="1526.5,-777 1266.5,-777 1266.5,-741 1526.5,-741 1526.5,-777"/>
<text text-anchor="middle" x="1396.5" y="-755.3" font-family="Times,serif" font-size="14.00">queue_view_tonemapping_pipelines</text>
</a>
</g>
</g>
<!-- node_System(23) -->
<g id="node47" class="node">
<title>node_System(23)</title>
<g id="a_node47"><a xlink:title="bevy_core_pipeline::upscaling::queue_view_upscaling_pipelines">
<polygon fill="white" stroke="black" points="1513.5,-723 1279.5,-723 1279.5,-687 1513.5,-687 1513.5,-723"/>
<text text-anchor="middle" x="1396.5" y="-701.3" font-family="Times,serif" font-size="14.00">queue_view_upscaling_pipelines</text>
</a>
</g>
</g>
<!-- node_System(26) -->
<g id="node48" class="node">
<title>node_System(26)</title>
<g id="a_node48"><a xlink:title="bevy_core_pipeline::bloom::queue_bloom_bind_groups">
<polygon fill="white" stroke="black" points="1495,-669 1298,-669 1298,-633 1495,-633 1495,-669"/>
<text text-anchor="middle" x="1396.5" y="-647.3" font-family="Times,serif" font-size="14.00">queue_bloom_bind_groups</text>
</a>
</g>
</g>
<!-- node_System(29) -->
<g id="node49" class="node">
<title>node_System(29)</title>
<g id="a_node49"><a xlink:title="bevy_sprite::mesh2d::mesh::queue_mesh2d_bind_group">
<polygon fill="white" stroke="black" points="1496.5,-615 1296.5,-615 1296.5,-579 1496.5,-579 1496.5,-615"/>
<text text-anchor="middle" x="1396.5" y="-593.3" font-family="Times,serif" font-size="14.00">queue_mesh2d_bind_group</text>
</a>
</g>
</g>
<!-- node_System(30) -->
<g id="node50" class="node">
<title>node_System(30)</title>
<g id="a_node50"><a xlink:title="bevy_sprite::mesh2d::mesh::queue_mesh2d_view_bind_groups">
<polygon fill="white" stroke="black" points="1519,-561 1274,-561 1274,-525 1519,-525 1519,-561"/>
<text text-anchor="middle" x="1396.5" y="-539.3" font-family="Times,serif" font-size="14.00">queue_mesh2d_view_bind_groups</text>
</a>
</g>
</g>
<!-- node_System(32) -->
<g id="node51" class="node">
<title>node_System(32)</title>
<g id="a_node51"><a xlink:title="bevy_sprite::mesh2d::material::queue_material2d_meshes&lt;bevy_sprite::mesh2d::color_material::ColorMaterial&gt;">
<polygon fill="white" stroke="black" points="1549,-507 1244,-507 1244,-471 1549,-471 1549,-507"/>
<text text-anchor="middle" x="1396.5" y="-485.3" font-family="Times,serif" font-size="14.00">queue_material2d_meshes&lt;ColorMaterial&gt;</text>
</a>
</g>
</g>
<!-- node_System(33) -->
<g id="node52" class="node">
<title>node_System(33)</title>
<g id="a_node52"><a xlink:title="bevy_sprite::render::queue_sprites">
<polygon fill="white" stroke="black" points="1451,-430 1342,-430 1342,-394 1451,-394 1451,-430"/>
<text text-anchor="middle" x="1396.5" y="-408.3" font-family="Times,serif" font-size="14.00">queue_sprites</text>
</a>
</g>
</g>
<!-- node_System(32)&#45;&gt;node_System(33) -->
<g id="edge25" class="edge">
<title>node_System(32)&#45;&gt;node_System(33)</title>
<path fill="none" stroke="#c93526" stroke-width="2" d="M1396.5,-470.62C1396.5,-458.4 1396.5,-442.43 1396.5,-430.25"/>
<g id="a_edge25&#45;label"><a xlink:title="queue_material2d_meshes&lt;ColorMaterial&gt; — queue_sprites">
<polygon fill="#d3d3d3" stroke="none" points="1280,-440.5 1280,-459.5 1485,-459.5 1485,-440.5 1280,-440.5"/>
<text text-anchor="start" x="1282" y="-446.3" font-family="Times,serif" font-size="14.00" fill="#c93526">RenderPhase&lt;Transparent2d&gt;</text>
</a>
</g>
</g>
<!-- node_System(35) -->
<g id="node53" class="node">
<title>node_System(35)</title>
<g id="a_node53"><a xlink:title="bevy_ui::render::queue_uinodes">
<polygon fill="white" stroke="black" points="1455,-376 1338,-376 1338,-340 1455,-340 1455,-376"/>
<text text-anchor="middle" x="1396.5" y="-354.3" font-family="Times,serif" font-size="14.00">queue_uinodes</text>
</a>
</g>
</g>
<!-- node_System(39) -->
<g id="node54" class="node">
<title>node_System(39)</title>
<g id="a_node54"><a xlink:title="bevy_pbr::render::mesh::queue_mesh_bind_group">
<polygon fill="white" stroke="black" points="1488.5,-322 1304.5,-322 1304.5,-286 1488.5,-286 1488.5,-322"/>
<text text-anchor="middle" x="1396.5" y="-300.3" font-family="Times,serif" font-size="14.00">queue_mesh_bind_group</text>
</a>
</g>
</g>
<!-- node_System(40) -->
<g id="node55" class="node">
<title>node_System(40)</title>
<g id="a_node55"><a xlink:title="bevy_pbr::render::mesh::queue_mesh_view_bind_groups">
<polygon fill="white" stroke="black" points="1511,-268 1282,-268 1282,-232 1511,-232 1511,-268"/>
<text text-anchor="middle" x="1396.5" y="-246.3" font-family="Times,serif" font-size="14.00">queue_mesh_view_bind_groups</text>
</a>
</g>
</g>
<!-- node_System(53) -->
<g id="node59" class="node">
<title>node_System(53)</title>
<g id="a_node59"><a xlink:title="bevy_pbr::render::light::queue_shadow_view_bind_group">
<polygon fill="white" stroke="black" points="1516,-52 1277,-52 1277,-16 1516,-16 1516,-52"/>
<text text-anchor="middle" x="1396.5" y="-30.3" font-family="Times,serif" font-size="14.00">queue_shadow_view_bind_group</text>
</a>
</g>
</g>
<!-- node_System(40)&#45;&gt;node_System(53) -->
<g id="edge26" class="edge">
<title>node_System(40)&#45;&gt;node_System(53)</title>
<path fill="none" stroke="#c93526" stroke-width="2" d="M1281.5,-249.88C1253.91,-245.7 1225.61,-237.64 1202,-223 1170.22,-203.3 1165.61,-189.23 1154.58,-153.5 1140.96,-109.36 1162.74,-85.34 1202,-61 1224.24,-47.21 1250.62,-39.27 1276.67,-34.9"/>
<g id="a_edge26&#45;label"><a xlink:title="queue_mesh_view_bind_groups — queue_shadow_view_bind_group">
<polygon fill="#d3d3d3" stroke="none" points="1116,-132 1116,-151 1190,-151 1190,-132 1116,-132"/>
<text text-anchor="start" x="1118" y="-137.8" font-family="Times,serif" font-size="14.00" fill="#c93526">LightMeta</text>
</a>
</g>
</g>
<!-- node_System(42) -->
<g id="node56" class="node">
<title>node_System(42)</title>
<g id="a_node56"><a xlink:title="bevy_pbr::material::queue_material_meshes&lt;bevy_pbr::pbr_material::StandardMaterial&gt;">
<polygon fill="white" stroke="black" points="1553.5,-214 1239.5,-214 1239.5,-178 1553.5,-178 1553.5,-214"/>
<text text-anchor="middle" x="1396.5" y="-192.3" font-family="Times,serif" font-size="14.00">queue_material_meshes&lt;StandardMaterial&gt;</text>
</a>
</g>
</g>
<!-- node_System(44) -->
<g id="node57" class="node">
<title>node_System(44)</title>
<g id="a_node57"><a xlink:title="bevy_pbr::prepass::queue_prepass_view_bind_group&lt;bevy_pbr::pbr_material::StandardMaterial&gt;">
<polygon fill="white" stroke="black" points="1583,-160 1210,-160 1210,-124 1583,-124 1583,-160"/>
<text text-anchor="middle" x="1396.5" y="-138.3" font-family="Times,serif" font-size="14.00">queue_prepass_view_bind_group&lt;StandardMaterial&gt;</text>
</a>
</g>
</g>
<!-- node_System(45) -->
<g id="node58" class="node">
<title>node_System(45)</title>
<g id="a_node58"><a xlink:title="bevy_pbr::prepass::queue_prepass_material_meshes&lt;bevy_pbr::pbr_material::StandardMaterial&gt;">
<polygon fill="white" stroke="black" points="1582.5,-106 1210.5,-106 1210.5,-70 1582.5,-70 1582.5,-106"/>
<text text-anchor="middle" x="1396.5" y="-84.3" font-family="Times,serif" font-size="14.00">queue_prepass_material_meshes&lt;StandardMaterial&gt;</text>
</a>
</g>
</g>
<!-- set_marker_node_Set(9)&#45;&gt;set_marker_node_Set(3) -->
<g id="edge6" class="edge">
<title>set_marker_node_Set(9)&#45;&gt;set_marker_node_Set(3)</title>
<g id="a_edge6"><a xlink:title="PhaseSort → PhaseSortFlush">
<path fill="none" stroke="#0090cc" stroke-width="2" d="M2150.93,-409C2151.91,-407.6 2152.93,-406.26 2154,-405 2162.71,-394.75 2174.03,-387.33 2186.39,-381.98"/>
<polygon fill="#0090cc" stroke="#0090cc" stroke-width="2" points="2187.52,-385.29 2195.67,-378.52 2185.08,-378.73 2187.52,-385.29"/>
</a>
</g>
</g>
<!-- node_System(16) -->
<g id="node61" class="node">
<title>node_System(16)</title>
<g id="a_node61"><a xlink:title="bevy_render::render_phase::sort_phase_system&lt;bevy_core_pipeline::core_2d::Transparent2d&gt;">
<polygon fill="white" stroke="black" points="2095,-849 1840,-849 1840,-813 2095,-813 2095,-849"/>
<text text-anchor="middle" x="1967.5" y="-827.3" font-family="Times,serif" font-size="14.00">sort_phase_system&lt;Transparent2d&gt;</text>
</a>
</g>
</g>
<!-- node_System(17) -->
<g id="node62" class="node">
<title>node_System(17)</title>
<g id="a_node62"><a xlink:title="bevy_render::render_phase::batch_phase_system&lt;bevy_core_pipeline::core_2d::Transparent2d&gt;">
<polygon fill="white" stroke="black" points="2420,-849 2154,-849 2154,-813 2420,-813 2420,-849"/>
<text text-anchor="middle" x="2287" y="-827.3" font-family="Times,serif" font-size="14.00">batch_phase_system&lt;Transparent2d&gt;</text>
</a>
</g>
</g>
<!-- node_System(16)&#45;&gt;node_System(17) -->
<g id="edge15" class="edge">
<title>node_System(16)&#45;&gt;node_System(17)</title>
<g id="a_edge15"><a xlink:title="SystemTypeSet(sort_phase_system&lt;Transparent2d&gt;&quot;) → batch_phase_system&lt;Transparent2d&gt;">
<path fill="none" stroke="#aa3a55" stroke-width="2" d="M2095.35,-831C2110.33,-831 2125.71,-831 2140.91,-831"/>
<polygon fill="#aa3a55" stroke="#aa3a55" stroke-width="2" points="2140.6,-834.5 2150.6,-831 2140.6,-827.5 2140.6,-834.5"/>
</a>
</g>
</g>
<!-- node_System(19) -->
<g id="node63" class="node">
<title>node_System(19)</title>
<g id="a_node63"><a xlink:title="bevy_render::render_phase::sort_phase_system&lt;bevy_core_pipeline::core_3d::Opaque3d&gt;">
<polygon fill="white" stroke="black" points="2079.5,-777 1855.5,-777 1855.5,-741 2079.5,-741 2079.5,-777"/>
<text text-anchor="middle" x="1967.5" y="-755.3" font-family="Times,serif" font-size="14.00">sort_phase_system&lt;Opaque3d&gt;</text>
</a>
</g>
</g>
<!-- node_System(20) -->
<g id="node64" class="node">
<title>node_System(20)</title>
<g id="a_node64"><a xlink:title="bevy_render::render_phase::sort_phase_system&lt;bevy_core_pipeline::core_3d::AlphaMask3d&gt;">
<polygon fill="white" stroke="black" points="2091.5,-723 1843.5,-723 1843.5,-687 2091.5,-687 2091.5,-723"/>
<text text-anchor="middle" x="1967.5" y="-701.3" font-family="Times,serif" font-size="14.00">sort_phase_system&lt;AlphaMask3d&gt;</text>
</a>
</g>
</g>
<!-- node_System(21) -->
<g id="node65" class="node">
<title>node_System(21)</title>
<g id="a_node65"><a xlink:title="bevy_render::render_phase::sort_phase_system&lt;bevy_core_pipeline::core_3d::Transparent3d&gt;">
<polygon fill="white" stroke="black" points="2095,-669 1840,-669 1840,-633 2095,-633 2095,-669"/>
<text text-anchor="middle" x="1967.5" y="-647.3" font-family="Times,serif" font-size="14.00">sort_phase_system&lt;Transparent3d&gt;</text>
</a>
</g>
</g>
<!-- node_System(36) -->
<g id="node66" class="node">
<title>node_System(36)</title>
<g id="a_node66"><a xlink:title="bevy_render::render_phase::sort_phase_system&lt;bevy_ui::render::render_pass::TransparentUi&gt;">
<polygon fill="white" stroke="black" points="2094.5,-615 1840.5,-615 1840.5,-579 2094.5,-579 2094.5,-615"/>
<text text-anchor="middle" x="1967.5" y="-593.3" font-family="Times,serif" font-size="14.00">sort_phase_system&lt;TransparentUi&gt;</text>
</a>
</g>
</g>
<!-- node_System(46) -->
<g id="node67" class="node">
<title>node_System(46)</title>
<g id="a_node67"><a xlink:title="bevy_render::render_phase::sort_phase_system&lt;bevy_core_pipeline::prepass::Opaque3dPrepass&gt;">
<polygon fill="white" stroke="black" points="2105,-561 1830,-561 1830,-525 2105,-525 2105,-561"/>
<text text-anchor="middle" x="1967.5" y="-539.3" font-family="Times,serif" font-size="14.00">sort_phase_system&lt;Opaque3dPrepass&gt;</text>
</a>
</g>
</g>
<!-- node_System(47) -->
<g id="node68" class="node">
<title>node_System(47)</title>
<g id="a_node68"><a xlink:title="bevy_render::render_phase::sort_phase_system&lt;bevy_core_pipeline::prepass::AlphaMask3dPrepass&gt;">
<polygon fill="white" stroke="black" points="2117,-507 1818,-507 1818,-471 2117,-471 2117,-507"/>
<text text-anchor="middle" x="1967.5" y="-485.3" font-family="Times,serif" font-size="14.00">sort_phase_system&lt;AlphaMask3dPrepass&gt;</text>
</a>
</g>
</g>
<!-- node_System(54) -->
<g id="node69" class="node">
<title>node_System(54)</title>
<g id="a_node69"><a xlink:title="bevy_render::render_phase::sort_phase_system&lt;bevy_pbr::render::light::Shadow&gt;">
<polygon fill="white" stroke="black" points="2072.5,-453 1862.5,-453 1862.5,-417 2072.5,-417 2072.5,-453"/>
<text text-anchor="middle" x="1967.5" y="-431.3" font-family="Times,serif" font-size="14.00">sort_phase_system&lt;Shadow&gt;</text>
</a>
</g>
</g>
<!-- set_marker_node_Set(10)&#45;&gt;set_marker_node_Set(4) -->
<g id="edge8" class="edge">
<title>set_marker_node_Set(10)&#45;&gt;set_marker_node_Set(4)</title>
<g id="a_edge8"><a xlink:title="Render → RenderFlush">
<path fill="none" stroke="#663699" stroke-width="2" d="M2611.05,-362C2635.93,-356.91 2669.38,-350.06 2701.3,-343.52"/>
<polygon fill="#663699" stroke="#663699" stroke-width="2" points="2701.94,-346.96 2711.04,-341.53 2700.54,-340.1 2701.94,-346.96"/>
</a>
</g>
</g>
<!-- node_System(6) -->
<g id="node71" class="node">
<title>node_System(6)</title>
<g id="a_node71"><a xlink:title="bevy_render::render_resource::pipeline_cache::PipelineCache::process_pipeline_queue_system">
<polygon fill="white" stroke="black" points="2685,-424 2457,-424 2457,-388 2685,-388 2685,-424"/>
<text text-anchor="middle" x="2571" y="-402.3" font-family="Times,serif" font-size="14.00">process_pipeline_queue_system</text>
</a>
</g>
</g>
<!-- node_System(7) -->
<g id="node72" class="node">
<title>node_System(7)</title>
<g id="a_node72"><a xlink:title="bevy_render::renderer::render_system">
<polygon fill="white" stroke="black" points="2860.5,-424 2744.5,-424 2744.5,-388 2860.5,-388 2860.5,-424"/>
<text text-anchor="middle" x="2802.5" y="-402.3" font-family="Times,serif" font-size="14.00">render_system</text>
</a>
</g>
</g>
<!-- node_System(6)&#45;&gt;node_System(7) -->
<g id="edge11" class="edge">
<title>node_System(6)&#45;&gt;node_System(7)</title>
<g id="a_edge11"><a xlink:title="process_pipeline_queue_system → SystemTypeSet(render_system&quot;)">
<path fill="none" stroke="#99d955" stroke-width="2" d="M2685.41,-406C2700.97,-406 2716.56,-406 2731.05,-406"/>
<polygon fill="#99d955" stroke="#99d955" stroke-width="2" points="2730.98,-409.5 2740.98,-406 2730.98,-402.5 2730.98,-409.5"/>
</a>
</g>
</g>
<!-- set_marker_node_Set(11)&#45;&gt;set_marker_node_Set(5) -->
<g id="edge10" class="edge">
<title>set_marker_node_Set(11)&#45;&gt;set_marker_node_Set(5)</title>
<g id="a_edge10"><a xlink:title="Cleanup → CleanupFlush">
<path fill="none" stroke="#22c2bb" stroke-width="2" d="M3146,-323C3148.77,-323 3151.55,-323 3154.31,-323"/>
<polygon fill="#22c2bb" stroke="#22c2bb" stroke-width="2" points="3153.97,-326.5 3163.97,-323 3153.97,-319.5 3153.97,-326.5"/>
</a>
</g>
</g>
<!-- node_System(8) -->
<g id="node74" class="node">
<title>node_System(8)</title>
<g id="a_node74"><a xlink:title="bevy_ecs::world::World::clear_entities">
<polygon fill="white" stroke="black" points="3082.5,-305 2975.5,-305 2975.5,-269 3082.5,-269 3082.5,-305"/>
<text text-anchor="middle" x="3029" y="-283.3" font-family="Times,serif" font-size="14.00">clear_entities</text>
</a>
</g>
</g>
<!-- node_System(15) -->
<g id="node75" class="node">
<title>node_System(15)</title>
<g id="a_node75"><a xlink:title="bevy_render::texture::texture_cache::update_texture_cache_system">
<polygon fill="white" stroke="black" points="3138,-251 2920,-251 2920,-215 3138,-215 3138,-251"/>
<text text-anchor="middle" x="3029" y="-229.3" font-family="Times,serif" font-size="14.00">update_texture_cache_system</text>
</a>
</g>
</g>
</g>
</svg>
