<?xml version="1.0" encoding="UTF-8" standalone="no"?>
<!DOCTYPE svg PUBLIC "-//W3C//DTD SVG 1.1//EN"
 "http://www.w3.org/Graphics/SVG/1.1/DTD/svg11.dtd">
<!-- Generated by graphviz version 14.1.5 (0)
 -->
<!-- Pages: 1 -->
<svg width="793pt" height="169pt"
 viewBox="0.00 0.00 793.00 169.00" xmlns="http://www.w3.org/2000/svg" xmlns:xlink="http://www.w3.org/1999/xlink">
<g id="graph0" class="graph" transform="scale(1 1) rotate(0) translate(4 165)">
<polygon fill="white" stroke="none" points="-4,4 -4,-165 788.5,-165 788.5,4 -4,4"/>
<g id="clust1" class="cluster">
<title>clusternode_Set(SystemSetKey(1v1))</title>
<g id="a_clust1"><a xlink:title="Begin">
<path fill="#000000" fill-opacity="0.031373" stroke="#000000" stroke-width="2" stroke-opacity="0.250980" d="M12,-61C12,-61 43.75,-61 43.75,-61 49.75,-61 55.75,-67 55.75,-73 55.75,-73 55.75,-94 55.75,-94 55.75,-100 49.75,-106 43.75,-106 43.75,-106 12,-106 12,-106 6,-106 0,-100 0,-94 0,-94 0,-73 0,-73 0,-67 6,-61 12,-61"/>
<text xml:space="preserve" text-anchor="middle" x="27.88" y="-88.7" font-family="Helvetica,sans-Serif" font-size="14.00" fill="#000000">Begin</text>
</a>
</g>
</g>
<g id="clust2" class="cluster">
<title>clusternode_Set(SystemSetKey(2v1))</title>
<g id="a_clust2"><a xlink:title="Render">
<path fill="#000000" fill-opacity="0.031373" stroke="#000000" stroke-width="2" stroke-opacity="0.250980" d="M87.75,-61C87.75,-61 195.5,-61 195.5,-61 201.5,-61 207.5,-67 207.5,-73 207.5,-73 207.5,-141 207.5,-141 207.5,-147 201.5,-153 195.5,-153 195.5,-153 87.75,-153 87.75,-153 81.75,-153 75.75,-147 75.75,-141 75.75,-141 75.75,-73 75.75,-73 75.75,-67 81.75,-61 87.75,-61"/>
<text xml:space="preserve" text-anchor="middle" x="141.62" y="-135.7" font-family="Helvetica,sans-Serif" font-size="14.00" fill="#000000">Render</text>
</a>
</g>
</g>
<g id="clust3" class="cluster">
<title>clusternode_Set(SystemSetKey(3v1))</title>
<g id="a_clust3"><a xlink:title="Submit">
<path fill="#000000" fill-opacity="0.031373" stroke="#000000" stroke-width="2" stroke-opacity="0.250980" d="M239.5,-61C239.5,-61 764.5,-61 764.5,-61 770.5,-61 776.5,-67 776.5,-73 776.5,-73 776.5,-141 776.5,-141 776.5,-147 770.5,-153 764.5,-153 764.5,-153 239.5,-153 239.5,-153 233.5,-153 227.5,-147 227.5,-141 227.5,-141 227.5,-73 227.5,-73 227.5,-67 233.5,-61 239.5,-61"/>
<text xml:space="preserve" text-anchor="middle" x="502" y="-135.7" font-family="Helvetica,sans-Serif" font-size="14.00" fill="#000000">Submit</text>
</a>
</g>
</g>
<g id="clust4" class="cluster">
<title>clusternode_Set(SystemSetKey(4v1))</title>
<g id="a_clust4"><a xlink:title="Finish">
<path fill="#000000" fill-opacity="0.031373" stroke="#000000" stroke-width="2" stroke-opacity="0.250980" d="M634.5,-8C634.5,-8 666.25,-8 666.25,-8 672.25,-8 678.25,-14 678.25,-20 678.25,-20 678.25,-41 678.25,-41 678.25,-47 672.25,-53 666.25,-53 666.25,-53 634.5,-53 634.5,-53 628.5,-53 622.5,-47 622.5,-41 622.5,-41 622.5,-20 622.5,-20 622.5,-14 628.5,-8 634.5,-8"/>
<text xml:space="preserve" text-anchor="middle" x="650.38" y="-35.7" font-family="Helvetica,sans-Serif" font-size="14.00" fill="#000000">Finish</text>
</a>
</g>
</g>
<!-- set_marker_node_Set(SystemSetKey(1v1)) -->
<!-- set_marker_node_Set(SystemSetKey(2v1)) -->
<!-- set_marker_node_Set(SystemSetKey(1v1))&#45;&gt;set_marker_node_Set(SystemSetKey(2v1)) -->
<g id="edge1" class="edge">
<title>set_marker_node_Set(SystemSetKey(1v1))&#45;&gt;set_marker_node_Set(SystemSetKey(2v1))</title>
<g id="a_edge1"><a xlink:title="Begin → Render">
<path fill="none" stroke="#eede00" stroke-width="2" d="M55.75,-71C58.09,-71 60.53,-71 63.04,-71"/>
<polygon fill="#eede00" stroke="#eede00" stroke-width="2" points="62.73,-74.5 72.73,-71 62.72,-67.5 62.73,-74.5"/>
</a>
</g>
</g>
<!-- set_marker_node_Set(SystemSetKey(3v1)) -->
<!-- set_marker_node_Set(SystemSetKey(2v1))&#45;&gt;set_marker_node_Set(SystemSetKey(3v1)) -->
<g id="edge3" class="edge">
<title>set_marker_node_Set(SystemSetKey(2v1))&#45;&gt;set_marker_node_Set(SystemSetKey(3v1))</title>
<g id="a_edge3"><a xlink:title="Render → Submit">
<path fill="none" stroke="#00b0cc" stroke-width="2" d="M207.5,-71C209.84,-71 212.22,-71 214.63,-71"/>
<polygon fill="#00b0cc" stroke="#00b0cc" stroke-width="2" points="214.48,-74.5 224.48,-71 214.48,-67.5 214.48,-74.5"/>
</a>
</g>
</g>
<!-- node_System(SystemKey(1v1)) -->
<g id="node3" class="node">
<title>node_System(SystemKey(1v1))</title>
<g id="a_node3"><a xlink:title="bevy_core_pipeline::schedule::camera_driver">
<polygon fill="#eff1f3" stroke="#b4bec7" points="199.5,-120 83.75,-120 83.75,-84 199.5,-84 199.5,-120"/>
<text xml:space="preserve" text-anchor="middle" x="141.62" y="-97.33" font-family="Helvetica,sans-Serif" font-size="14.00" fill="#15191d">camera_driver</text>
</a>
</g>
</g>
<!-- set_marker_node_Set(SystemSetKey(4v1)) -->
<!-- set_marker_node_Set(SystemSetKey(3v1))&#45;&gt;set_marker_node_Set(SystemSetKey(4v1)) -->
<g id="edge2" class="edge">
<title>set_marker_node_Set(SystemSetKey(3v1))&#45;&gt;set_marker_node_Set(SystemSetKey(4v1))</title>
<g id="a_edge2"><a xlink:title="Submit → Finish">
<path fill="none" stroke="#881877" stroke-width="2" d="M419.66,-61C475.01,-50.62 560.29,-34.62 609.73,-25.34"/>
<polygon fill="#881877" stroke="#881877" stroke-width="2" points="610.34,-28.79 619.52,-23.51 609.05,-21.91 610.34,-28.79"/>
</a>
</g>
</g>
<!-- node_System(SystemKey(2v1)) -->
<g id="node5" class="node">
<title>node_System(SystemKey(2v1))</title>
<g id="a_node5"><a xlink:title="bevy_core_pipeline::schedule::submit_pending_command_buffers">
<polygon fill="#eff1f3" stroke="#b4bec7" points="495.25,-120 235.5,-120 235.5,-84 495.25,-84 495.25,-120"/>
<text xml:space="preserve" text-anchor="middle" x="365.38" y="-97.33" font-family="Helvetica,sans-Serif" font-size="14.00" fill="#15191d">submit_pending_command_buffers</text>
</a>
</g>
</g>
<!-- node_System(SystemKey(3v1)) -->
<g id="node6" class="node">
<title>node_System(SystemKey(3v1))</title>
<g id="a_node6"><a xlink:title="bevy_core_pipeline::schedule::handle_uncovered_swap_chains">
<polygon fill="#eff1f3" stroke="#b4bec7" points="768.5,-120 531.25,-120 531.25,-84 768.5,-84 768.5,-120"/>
<text xml:space="preserve" text-anchor="middle" x="649.88" y="-97.33" font-family="Helvetica,sans-Serif" font-size="14.00" fill="#15191d">handle_uncovered_swap_chains</text>
</a>
</g>
</g>
<!-- node_System(SystemKey(2v1))&#45;&gt;node_System(SystemKey(3v1)) -->
<g id="edge4" class="edge">
<title>node_System(SystemKey(2v1))&#45;&gt;node_System(SystemKey(3v1))</title>
<g id="a_edge4"><a xlink:title="submit_pending_command_buffers → handle_uncovered_swap_chains">
<path fill="none" stroke="#aa3a55" stroke-width="2" d="M495.64,-102C503.08,-102 510.58,-102 518.03,-102"/>
<polygon fill="#aa3a55" stroke="#aa3a55" stroke-width="2" points="517.92,-105.5 527.92,-102 517.92,-98.5 517.92,-105.5"/>
</a>
</g>
</g>
</g>
</svg>
