<?xml version="1.0" encoding="UTF-8" standalone="no"?>
<!DOCTYPE svg PUBLIC "-//W3C//DTD SVG 1.1//EN"
 "http://www.w3.org/Graphics/SVG/1.1/DTD/svg11.dtd">
<!-- Generated by graphviz version 13.1.2 (20250808.2320)
 -->
<!-- Pages: 1 -->
<svg width="719pt" height="167pt"
 viewBox="0.00 0.00 719.00 167.00" xmlns="http://www.w3.org/2000/svg" xmlns:xlink="http://www.w3.org/1999/xlink">
<g id="graph0" class="graph" transform="scale(1 1) rotate(0) translate(4 163)">
<polygon fill="white" stroke="none" points="-4,4 -4,-163 715,-163 715,4 -4,4"/>
<g id="clust1" class="cluster">
<title>clusternode_Set(SystemSetKey(1v1))</title>
<g id="a_clust1"><a xlink:title="Begin">
<path fill="#000000" fill-opacity="0.031373" stroke="#000000" stroke-width="2" stroke-opacity="0.250980" d="M12,-60C12,-60 38.5,-60 38.5,-60 44.5,-60 50.5,-66 50.5,-72 50.5,-72 50.5,-92 50.5,-92 50.5,-98 44.5,-104 38.5,-104 38.5,-104 12,-104 12,-104 6,-104 0,-98 0,-92 0,-92 0,-72 0,-72 0,-66 6,-60 12,-60"/>
<text xml:space="preserve" text-anchor="middle" x="25.25" y="-86.7" font-family="Helvetica,sans-Serif" font-size="14.00" fill="#000000">Begin</text>
</a>
</g>
</g>
<g id="clust2" class="cluster">
<title>clusternode_Set(SystemSetKey(2v1))</title>
<g id="a_clust2"><a xlink:title="Render">
<path fill="#000000" fill-opacity="0.031373" stroke="#000000" stroke-width="2" stroke-opacity="0.250980" d="M82.5,-60C82.5,-60 177.5,-60 177.5,-60 183.5,-60 189.5,-66 189.5,-72 189.5,-72 189.5,-139 189.5,-139 189.5,-145 183.5,-151 177.5,-151 177.5,-151 82.5,-151 82.5,-151 76.5,-151 70.5,-145 70.5,-139 70.5,-139 70.5,-72 70.5,-72 70.5,-66 76.5,-60 82.5,-60"/>
<text xml:space="preserve" text-anchor="middle" x="130" y="-133.7" font-family="Helvetica,sans-Serif" font-size="14.00" fill="#000000">Render</text>
</a>
</g>
</g>
<g id="clust3" class="cluster">
<title>clusternode_Set(SystemSetKey(3v1))</title>
<g id="a_clust3"><a xlink:title="Submit">
<path fill="#000000" fill-opacity="0.031373" stroke="#000000" stroke-width="2" stroke-opacity="0.250980" d="M221.5,-60C221.5,-60 691,-60 691,-60 697,-60 703,-66 703,-72 703,-72 703,-139 703,-139 703,-145 697,-151 691,-151 691,-151 221.5,-151 221.5,-151 215.5,-151 209.5,-145 209.5,-139 209.5,-139 209.5,-72 209.5,-72 209.5,-66 215.5,-60 221.5,-60"/>
<text xml:space="preserve" text-anchor="middle" x="456.25" y="-133.7" font-family="Helvetica,sans-Serif" font-size="14.00" fill="#000000">Submit</text>
</a>
</g>
</g>
<g id="clust4" class="cluster">
<title>clusternode_Set(SystemSetKey(4v1))</title>
<g id="a_clust4"><a xlink:title="Finish">
<path fill="#000000" fill-opacity="0.031373" stroke="#000000" stroke-width="2" stroke-opacity="0.250980" d="M575.25,-8C575.25,-8 603.25,-8 603.25,-8 609.25,-8 615.25,-14 615.25,-20 615.25,-20 615.25,-40 615.25,-40 615.25,-46 609.25,-52 603.25,-52 603.25,-52 575.25,-52 575.25,-52 569.25,-52 563.25,-46 563.25,-40 563.25,-40 563.25,-20 563.25,-20 563.25,-14 569.25,-8 575.25,-8"/>
<text xml:space="preserve" text-anchor="middle" x="589.25" y="-34.7" font-family="Helvetica,sans-Serif" font-size="14.00" fill="#000000">Finish</text>
</a>
</g>
</g>
<!-- set_marker_node_Set(SystemSetKey(1v1)) -->
<!-- set_marker_node_Set(SystemSetKey(2v1)) -->
<!-- set_marker_node_Set(SystemSetKey(1v1))&#45;&gt;set_marker_node_Set(SystemSetKey(2v1)) -->
<g id="edge1" class="edge">
<title>set_marker_node_Set(SystemSetKey(1v1))&#45;&gt;set_marker_node_Set(SystemSetKey(2v1))</title>
<g id="a_edge1"><a xlink:title="Begin → Render">
<path fill="none" stroke="#eede00" stroke-width="2" d="M50.5,-70C52.79,-70 55.17,-70 57.63,-70"/>
<polygon fill="#eede00" stroke="#eede00" stroke-width="2" points="57.48,-73.5 67.48,-70 57.47,-66.5 57.48,-73.5"/>
</a>
</g>
</g>
<!-- set_marker_node_Set(SystemSetKey(3v1)) -->
<!-- set_marker_node_Set(SystemSetKey(2v1))&#45;&gt;set_marker_node_Set(SystemSetKey(3v1)) -->
<g id="edge3" class="edge">
<title>set_marker_node_Set(SystemSetKey(2v1))&#45;&gt;set_marker_node_Set(SystemSetKey(3v1))</title>
<g id="a_edge3"><a xlink:title="Render → Submit">
<path fill="none" stroke="#00b0cc" stroke-width="2" d="M189.5,-70C191.83,-70 194.2,-70 196.6,-70"/>
<polygon fill="#00b0cc" stroke="#00b0cc" stroke-width="2" points="196.47,-73.5 206.47,-70 196.47,-66.5 196.47,-73.5"/>
</a>
</g>
</g>
<!-- node_System(SystemKey(1v1)) -->
<g id="node3" class="node">
<title>node_System(SystemKey(1v1))</title>
<g id="a_node3"><a xlink:title="bevy_core_pipeline::schedule::camera_driver">
<polygon fill="#eff1f3" stroke="#b4bec7" points="181.5,-119 78.5,-119 78.5,-83 181.5,-83 181.5,-119"/>
<text xml:space="preserve" text-anchor="middle" x="130" y="-95.58" font-family="Helvetica,sans-Serif" font-size="14.00" fill="#15191d">camera_driver</text>
</a>
</g>
</g>
<!-- set_marker_node_Set(SystemSetKey(4v1)) -->
<!-- set_marker_node_Set(SystemSetKey(3v1))&#45;&gt;set_marker_node_Set(SystemSetKey(4v1)) -->
<g id="edge2" class="edge">
<title>set_marker_node_Set(SystemSetKey(3v1))&#45;&gt;set_marker_node_Set(SystemSetKey(4v1))</title>
<g id="a_edge2"><a xlink:title="Submit → Finish">
<path fill="none" stroke="#881877" stroke-width="2" d="M381.98,-60C431.31,-49.93 506.31,-34.62 550.83,-25.54"/>
<polygon fill="#881877" stroke="#881877" stroke-width="2" points="551.19,-29.03 560.29,-23.61 549.79,-22.18 551.19,-29.03"/>
</a>
</g>
</g>
<!-- node_System(SystemKey(2v1)) -->
<g id="node5" class="node">
<title>node_System(SystemKey(2v1))</title>
<g id="a_node5"><a xlink:title="bevy_core_pipeline::schedule::submit_pending_command_buffers">
<polygon fill="#eff1f3" stroke="#b4bec7" points="446.5,-119 217.5,-119 217.5,-83 446.5,-83 446.5,-119"/>
<text xml:space="preserve" text-anchor="middle" x="332" y="-95.58" font-family="Helvetica,sans-Serif" font-size="14.00" fill="#15191d">submit_pending_command_buffers</text>
</a>
</g>
</g>
<!-- node_System(SystemKey(3v1)) -->
<g id="node6" class="node">
<title>node_System(SystemKey(3v1))</title>
<g id="a_node6"><a xlink:title="bevy_core_pipeline::schedule::handle_uncovered_swap_chains">
<polygon fill="#eff1f3" stroke="#b4bec7" points="695,-119 482.5,-119 482.5,-83 695,-83 695,-119"/>
<text xml:space="preserve" text-anchor="middle" x="588.75" y="-95.58" font-family="Helvetica,sans-Serif" font-size="14.00" fill="#15191d">handle_uncovered_swap_chains</text>
</a>
</g>
</g>
<!-- node_System(SystemKey(2v1))&#45;&gt;node_System(SystemKey(3v1)) -->
<g id="edge4" class="edge">
<title>node_System(SystemKey(2v1))&#45;&gt;node_System(SystemKey(3v1))</title>
<g id="a_edge4"><a xlink:title="submit_pending_command_buffers → handle_uncovered_swap_chains">
<path fill="none" stroke="#aa3a55" stroke-width="2" d="M446.96,-101C454.42,-101 461.95,-101 469.43,-101"/>
<polygon fill="#aa3a55" stroke="#aa3a55" stroke-width="2" points="469.36,-104.5 479.36,-101 469.36,-97.5 469.36,-104.5"/>
</a>
</g>
</g>
</g>
</svg>
