<?xml version="1.0" encoding="UTF-8" standalone="no"?>
<!DOCTYPE svg PUBLIC "-//W3C//DTD SVG 1.1//EN"
 "http://www.w3.org/Graphics/SVG/1.1/DTD/svg11.dtd">
<!-- Generated by graphviz version 7.1.0 (0)
 -->
<!-- Pages: 1 -->
<svg width="3076pt" height="1807pt"
 viewBox="0.00 0.00 3076.00 1807.00" xmlns="http://www.w3.org/2000/svg" xmlns:xlink="http://www.w3.org/1999/xlink">
<g id="graph0" class="graph" transform="scale(1 1) rotate(0) translate(4 1803)">
<polygon fill="white" stroke="none" points="-4,4 -4,-1803 3072,-1803 3072,4 -4,4"/>
<g id="clust1" class="cluster">
<title>clusternode_Set(1)</title>
<g id="a_clust1"><a xlink:title="PrepareFlush">
<polygon fill="white" stroke="black" points="670.5,-761 670.5,-854 847.5,-854 847.5,-761 670.5,-761"/>
<text text-anchor="middle" x="759" y="-838.8" font-family="Helvetica,sans-Serif" font-size="14.00">PrepareFlush</text>
</a>
</g>
</g>
<g id="clust2" class="cluster">
<title>clusternode_Set(2)</title>
<g id="a_clust2"><a xlink:title="QueueFlush">
<polygon fill="white" stroke="black" points="1334,-710 1334,-803 1511,-803 1511,-710 1334,-710"/>
<text text-anchor="middle" x="1422.5" y="-787.8" font-family="Helvetica,sans-Serif" font-size="14.00">QueueFlush</text>
</a>
</g>
</g>
<g id="clust3" class="cluster">
<title>clusternode_Set(3)</title>
<g id="a_clust3"><a xlink:title="PhaseSortFlush">
<polygon fill="white" stroke="black" points="1918.5,-285 1918.5,-378 2095.5,-378 2095.5,-285 1918.5,-285"/>
<text text-anchor="middle" x="2007" y="-362.8" font-family="Helvetica,sans-Serif" font-size="14.00">PhaseSortFlush</text>
</a>
</g>
</g>
<g id="clust4" class="cluster">
<title>clusternode_Set(4)</title>
<g id="a_clust4"><a xlink:title="RenderFlush">
<polygon fill="white" stroke="black" points="2432,-238 2432,-331 2609,-331 2609,-238 2432,-238"/>
<text text-anchor="middle" x="2520.5" y="-315.8" font-family="Helvetica,sans-Serif" font-size="14.00">RenderFlush</text>
</a>
</g>
</g>
<g id="clust5" class="cluster">
<title>clusternode_Set(5)</title>
<g id="a_clust5"><a xlink:title="CleanupFlush">
<polygon fill="white" stroke="black" points="2883,-238 2883,-331 3060,-331 3060,-238 2883,-238"/>
<text text-anchor="middle" x="2971.5" y="-315.8" font-family="Helvetica,sans-Serif" font-size="14.00">CleanupFlush</text>
</a>
</g>
</g>
<g id="clust6" class="cluster">
<title>clusternode_Set(6)</title>
<g id="a_clust6"><a xlink:title="ExtractCommands">
<polygon fill="white" stroke="black" points="8,-1292 8,-1385 212,-1385 212,-1292 8,-1292"/>
<text text-anchor="middle" x="110" y="-1369.8" font-family="Helvetica,sans-Serif" font-size="14.00">ExtractCommands</text>
</a>
</g>
</g>
<g id="clust7" class="cluster">
<title>clusternode_Set(7)</title>
<g id="a_clust7"><a xlink:title="Prepare">
<polygon fill="white" stroke="black" points="232,-914 232,-1791 1224.5,-1791 1224.5,-914 232,-914"/>
<text text-anchor="middle" x="728.25" y="-1775.8" font-family="Helvetica,sans-Serif" font-size="14.00">Prepare</text>
</a>
</g>
</g>
<g id="clust8" class="cluster">
<title>clusternode_Set(16)</title>
<g id="a_clust8"><a xlink:title="Prepare">
<polygon fill="white" stroke="black" points="336,-1667 336,-1760 489,-1760 489,-1667 336,-1667"/>
<text text-anchor="middle" x="412.5" y="-1744.8" font-family="Helvetica,sans-Serif" font-size="14.00">Prepare</text>
</a>
</g>
</g>
<g id="clust9" class="cluster">
<title>clusternode_Set(18)</title>
<g id="a_clust9"><a xlink:title="PrepareUniforms">
<polygon fill="white" stroke="black" points="1022.5,-1215 1022.5,-1308 1216.5,-1308 1216.5,-1215 1022.5,-1215"/>
<text text-anchor="middle" x="1119.5" y="-1292.8" font-family="Helvetica,sans-Serif" font-size="14.00">PrepareUniforms</text>
</a>
</g>
</g>
<g id="clust10" class="cluster">
<title>clusternode_Set(22)</title>
<g id="a_clust10"><a xlink:title="PreAssetPrepare">
<polygon fill="white" stroke="black" points="318,-1566 318,-1659 507,-1659 507,-1566 318,-1566"/>
<text text-anchor="middle" x="412.5" y="-1643.8" font-family="Helvetica,sans-Serif" font-size="14.00">PreAssetPrepare</text>
</a>
</g>
</g>
<g id="clust11" class="cluster">
<title>clusternode_Set(23)</title>
<g id="a_clust11"><a xlink:title="AssetPrepare">
<polygon fill="white" stroke="black" points="667.5,-1407 667.5,-1500 850.5,-1500 850.5,-1407 667.5,-1407"/>
<text text-anchor="middle" x="759" y="-1484.8" font-family="Helvetica,sans-Serif" font-size="14.00">AssetPrepare</text>
</a>
</g>
</g>
<g id="clust12" class="cluster">
<title>clusternode_Set(24)</title>
<g id="a_clust12"><a xlink:title="PostAssetPrepare">
<polygon fill="white" stroke="black" points="1052.5,-1461 1052.5,-1500 1186.5,-1500 1186.5,-1461 1052.5,-1461"/>
<text text-anchor="middle" x="1119.5" y="-1484.8" font-family="Helvetica,sans-Serif" font-size="14.00">PostAssetPrepare</text>
</a>
</g>
</g>
<g id="clust13" class="cluster">
<title>clusternode_Set(62)</title>
<g id="a_clust13"><a xlink:title="PrepareFog">
<polygon fill="white" stroke="black" points="355.5,-1465 355.5,-1558 469.5,-1558 469.5,-1465 355.5,-1465"/>
<text text-anchor="middle" x="412.5" y="-1542.8" font-family="Helvetica,sans-Serif" font-size="14.00">PrepareFog</text>
</a>
</g>
</g>
<g id="clust14" class="cluster">
<title>clusternode_Set(63)</title>
<g id="a_clust14"><a xlink:title="PrepareLights">
<polygon fill="white" stroke="black" points="348,-1364 348,-1457 477,-1457 477,-1364 348,-1364"/>
<text text-anchor="middle" x="412.5" y="-1441.8" font-family="Helvetica,sans-Serif" font-size="14.00">PrepareLights</text>
</a>
</g>
</g>
<g id="clust15" class="cluster">
<title>clusternode_Set(64)</title>
<g id="a_clust15"><a xlink:title="PrepareClusters">
<polygon fill="white" stroke="black" points="687,-1306 687,-1399 831,-1399 831,-1306 687,-1306"/>
<text text-anchor="middle" x="759" y="-1383.8" font-family="Helvetica,sans-Serif" font-size="14.00">PrepareClusters</text>
</a>
</g>
</g>
<g id="clust16" class="cluster">
<title>clusternode_Set(8)</title>
<g id="a_clust16"><a xlink:title="Queue">
<polygon fill="white" stroke="black" points="925,-8 925,-906 1314,-906 1314,-8 925,-8"/>
<text text-anchor="middle" x="1119.5" y="-890.8" font-family="Helvetica,sans-Serif" font-size="14.00">Queue</text>
</a>
</g>
</g>
<g id="clust17" class="cluster">
<title>clusternode_Set(65)</title>
<g id="a_clust17"><a xlink:title="QueueShadows">
<polygon fill="white" stroke="black" points="1050.5,-782 1050.5,-875 1188.5,-875 1188.5,-782 1050.5,-782"/>
<text text-anchor="middle" x="1119.5" y="-859.8" font-family="Helvetica,sans-Serif" font-size="14.00">QueueShadows</text>
</a>
</g>
</g>
<g id="clust18" class="cluster">
<title>clusternode_Set(9)</title>
<g id="a_clust18"><a xlink:title="PhaseSort">
<polygon fill="white" stroke="black" points="1531,-386 1531,-857 2148,-857 2148,-386 1531,-386"/>
<text text-anchor="middle" x="1839.5" y="-841.8" font-family="Helvetica,sans-Serif" font-size="14.00">PhaseSort</text>
</a>
</g>
</g>
<g id="clust19" class="cluster">
<title>clusternode_Set(10)</title>
<g id="a_clust19"><a xlink:title="Render">
<polygon fill="white" stroke="black" points="2168,-339 2168,-432 2586.5,-432 2586.5,-339 2168,-339"/>
<text text-anchor="middle" x="2377.25" y="-416.8" font-family="Helvetica,sans-Serif" font-size="14.00">Render</text>
</a>
</g>
</g>
<g id="clust20" class="cluster">
<title>clusternode_Set(11)</title>
<g id="a_clust20"><a xlink:title="Cleanup">
<polygon fill="white" stroke="black" points="2629,-184 2629,-331 2863,-331 2863,-184 2629,-184"/>
<text text-anchor="middle" x="2746" y="-315.8" font-family="Helvetica,sans-Serif" font-size="14.00">Cleanup</text>
</a>
</g>
</g>
<!-- set_marker_node_Set(1) -->
<!-- set_marker_node_Set(8) -->
<!-- set_marker_node_Set(1)&#45;&gt;set_marker_node_Set(8) -->
<g id="edge3" class="edge">
<title>set_marker_node_Set(1)&#45;&gt;set_marker_node_Set(8)</title>
<g id="a_edge3"><a xlink:title="PrepareFlush → Queue">
<path fill="none" stroke="#cd1d91" stroke-width="2" d="M847.5,-828.15C864.65,-826.2 881.96,-821.98 897,-814 910.29,-806.95 909.32,-795.6 915.33,-786.45"/>
<polygon fill="#cd1d91" stroke="#cd1d91" stroke-width="2" points="917.49,-789.21 922.72,-779.99 912.89,-783.94 917.49,-789.21"/>
</a>
</g>
</g>
<!-- node_System(0) -->
<g id="node2" class="node">
<title>node_System(0)</title>
<g id="a_node2"><a xlink:title="bevy_ecs::schedule::executor::apply_system_buffers">
<polygon fill="white" stroke="black" points="839.5,-805 678.5,-805 678.5,-769 839.5,-769 839.5,-805"/>
<text text-anchor="middle" x="759" y="-783.3" font-family="Times,serif" font-size="14.00">apply_system_buffers</text>
</a>
</g>
</g>
<!-- set_marker_node_Set(2) -->
<!-- set_marker_node_Set(9) -->
<!-- set_marker_node_Set(2)&#45;&gt;set_marker_node_Set(9) -->
<g id="edge5" class="edge">
<title>set_marker_node_Set(2)&#45;&gt;set_marker_node_Set(9)</title>
<g id="a_edge5"><a xlink:title="QueueFlush → PhaseSort">
<path fill="none" stroke="#1dc4cc" stroke-width="2" d="M1511,-772C1513.33,-772 1515.67,-772 1518.04,-772"/>
<polygon fill="#1dc4cc" stroke="#1dc4cc" stroke-width="2" points="1517.98,-775.5 1527.98,-772 1517.98,-768.5 1517.98,-775.5"/>
</a>
</g>
</g>
<!-- node_System(1) -->
<g id="node4" class="node">
<title>node_System(1)</title>
<g id="a_node4"><a xlink:title="bevy_ecs::schedule::executor::apply_system_buffers">
<polygon fill="white" stroke="black" points="1503,-754 1342,-754 1342,-718 1503,-718 1503,-754"/>
<text text-anchor="middle" x="1422.5" y="-732.3" font-family="Times,serif" font-size="14.00">apply_system_buffers</text>
</a>
</g>
</g>
<!-- set_marker_node_Set(3) -->
<!-- set_marker_node_Set(10) -->
<!-- set_marker_node_Set(3)&#45;&gt;set_marker_node_Set(10) -->
<g id="edge7" class="edge">
<title>set_marker_node_Set(3)&#45;&gt;set_marker_node_Set(10)</title>
<g id="a_edge7"><a xlink:title="PhaseSortFlush → Render">
<path fill="none" stroke="#ccd60d" stroke-width="2" d="M2095.5,-347C2114.45,-347 2134.92,-347 2155.2,-347"/>
<polygon fill="#ccd60d" stroke="#ccd60d" stroke-width="2" points="2154.98,-350.5 2164.98,-347 2154.98,-343.5 2154.98,-350.5"/>
</a>
</g>
</g>
<!-- node_System(2) -->
<g id="node6" class="node">
<title>node_System(2)</title>
<g id="a_node6"><a xlink:title="bevy_ecs::schedule::executor::apply_system_buffers">
<polygon fill="white" stroke="black" points="2087.5,-329 1926.5,-329 1926.5,-293 2087.5,-293 2087.5,-329"/>
<text text-anchor="middle" x="2007" y="-307.3" font-family="Times,serif" font-size="14.00">apply_system_buffers</text>
</a>
</g>
</g>
<!-- set_marker_node_Set(4) -->
<!-- set_marker_node_Set(11) -->
<!-- set_marker_node_Set(4)&#45;&gt;set_marker_node_Set(11) -->
<g id="edge9" class="edge">
<title>set_marker_node_Set(4)&#45;&gt;set_marker_node_Set(11)</title>
<g id="a_edge9"><a xlink:title="RenderFlush → Cleanup">
<path fill="none" stroke="#58cd0c" stroke-width="2" d="M2609,-300C2611.35,-300 2613.72,-300 2616.09,-300"/>
<polygon fill="#58cd0c" stroke="#58cd0c" stroke-width="2" points="2615.98,-303.5 2625.98,-300 2615.98,-296.5 2615.98,-303.5"/>
</a>
</g>
</g>
<!-- node_System(3) -->
<g id="node8" class="node">
<title>node_System(3)</title>
<g id="a_node8"><a xlink:title="bevy_ecs::schedule::executor::apply_system_buffers">
<polygon fill="white" stroke="black" points="2601,-282 2440,-282 2440,-246 2601,-246 2601,-282"/>
<text text-anchor="middle" x="2520.5" y="-260.3" font-family="Times,serif" font-size="14.00">apply_system_buffers</text>
</a>
</g>
</g>
<!-- set_marker_node_Set(5) -->
<!-- node_System(4) -->
<g id="node10" class="node">
<title>node_System(4)</title>
<g id="a_node10"><a xlink:title="bevy_ecs::schedule::executor::apply_system_buffers">
<polygon fill="white" stroke="black" points="3052,-282 2891,-282 2891,-246 3052,-246 3052,-282"/>
<text text-anchor="middle" x="2971.5" y="-260.3" font-family="Times,serif" font-size="14.00">apply_system_buffers</text>
</a>
</g>
</g>
<!-- set_marker_node_Set(6) -->
<!-- set_marker_node_Set(7) -->
<!-- set_marker_node_Set(6)&#45;&gt;set_marker_node_Set(7) -->
<g id="edge1" class="edge">
<title>set_marker_node_Set(6)&#45;&gt;set_marker_node_Set(7)</title>
<g id="a_edge1"><a xlink:title="ExtractCommands → Prepare">
<path fill="none" stroke="#c4cc1d" stroke-width="2" d="M212,-1354C214.38,-1354 216.77,-1354 219.19,-1354"/>
<polygon fill="#c4cc1d" stroke="#c4cc1d" stroke-width="2" points="218.98,-1357.5 228.98,-1354 218.98,-1350.5 218.98,-1357.5"/>
</a>
</g>
</g>
<!-- node_System(5) -->
<g id="node12" class="node">
<title>node_System(5)</title>
<g id="a_node12"><a xlink:title="bevy_render::apply_extract_commands">
<polygon fill="white" stroke="black" points="204,-1336 16,-1336 16,-1300 204,-1300 204,-1336"/>
<text text-anchor="middle" x="110" y="-1314.3" font-family="Times,serif" font-size="14.00">apply_extract_commands</text>
</a>
</g>
</g>
<!-- set_marker_node_Set(7)&#45;&gt;set_marker_node_Set(1) -->
<g id="edge2" class="edge">
<title>set_marker_node_Set(7)&#45;&gt;set_marker_node_Set(1)</title>
<g id="a_edge2"><a xlink:title="Prepare → PrepareFlush">
<path fill="none" stroke="#251dcc" stroke-width="2" d="M618.76,-914C619.48,-912.62 620.22,-911.29 621,-910 633.21,-889.81 652.09,-873.52 671.97,-860.74"/>
<polygon fill="#251dcc" stroke="#251dcc" stroke-width="2" points="673.76,-863.75 680.49,-855.57 670.12,-857.76 673.76,-863.75"/>
</a>
</g>
</g>
<!-- set_marker_node_Set(16) -->
<!-- node_System(11) -->
<g id="node29" class="node">
<title>node_System(11)</title>
<g id="a_node29"><a xlink:title="bevy_render::view::prepare_view_targets">
<polygon fill="white" stroke="black" points="840,-1652 678,-1652 678,-1616 840,-1616 840,-1652"/>
<text text-anchor="middle" x="759" y="-1630.3" font-family="Times,serif" font-size="14.00">prepare_view_targets</text>
</a>
</g>
</g>
<!-- set_marker_node_Set(16)&#45;&gt;node_System(11) -->
<g id="edge12" class="edge">
<title>set_marker_node_Set(16)&#45;&gt;node_System(11)</title>
<g id="a_edge12"><a xlink:title="Prepare → prepare_view_targets">
<path fill="none" stroke="#0c9acf" stroke-width="2" d="M489,-1671.29C518.95,-1669.41 553.66,-1666.71 585,-1663 611.12,-1659.9 639.31,-1655.6 665.19,-1651.25"/>
<polygon fill="#0c9acf" stroke="#0c9acf" stroke-width="2" points="665.44,-1654.75 674.71,-1649.62 664.26,-1647.85 665.44,-1654.75"/>
</a>
</g>
</g>
<!-- node_System(9) -->
<g id="node15" class="node">
<title>node_System(9)</title>
<g id="a_node15"><a xlink:title="bevy_render::view::window::prepare_windows">
<polygon fill="white" stroke="black" points="481,-1729 344,-1729 344,-1693 481,-1693 481,-1729"/>
<text text-anchor="middle" x="412.5" y="-1707.3" font-family="Times,serif" font-size="14.00">prepare_windows</text>
</a>
</g>
</g>
<!-- node_System(18) -->
<g id="node31" class="node">
<title>node_System(18)</title>
<g id="a_node31"><a xlink:title="bevy_core_pipeline::core_3d::prepare_core_3d_depth_textures">
<polygon fill="white" stroke="black" points="877,-1706 641,-1706 641,-1670 877,-1670 877,-1706"/>
<text text-anchor="middle" x="759" y="-1684.3" font-family="Times,serif" font-size="14.00">prepare_core_3d_depth_textures</text>
</a>
</g>
</g>
<!-- node_System(9)&#45;&gt;node_System(18) -->
<g id="edge17" class="edge">
<title>node_System(9)&#45;&gt;node_System(18)</title>
<g id="a_edge17"><a xlink:title="SystemTypeSet(prepare_windows&quot;) → prepare_core_3d_depth_textures">
<path fill="none" stroke="#1dc4cc" stroke-width="2" d="M481.15,-1706.48C522.88,-1703.7 577.79,-1700.03 627.7,-1696.7"/>
<polygon fill="#1dc4cc" stroke="#1dc4cc" stroke-width="2" points="627.85,-1700.2 637.59,-1696.04 627.38,-1693.21 627.85,-1700.2"/>
</a>
</g>
</g>
<!-- node_System(43) -->
<g id="node41" class="node">
<title>node_System(43)</title>
<g id="a_node41"><a xlink:title="bevy_pbr::prepass::prepare_prepass_textures">
<polygon fill="white" stroke="black" points="854,-1760 664,-1760 664,-1724 854,-1724 854,-1760"/>
<text text-anchor="middle" x="759" y="-1738.3" font-family="Times,serif" font-size="14.00">prepare_prepass_textures</text>
</a>
</g>
</g>
<!-- node_System(9)&#45;&gt;node_System(43) -->
<g id="edge20" class="edge">
<title>node_System(9)&#45;&gt;node_System(43)</title>
<g id="a_edge20"><a xlink:title="SystemTypeSet(prepare_windows&quot;) → prepare_prepass_textures">
<path fill="none" stroke="#29e000" stroke-width="2" d="M481.15,-1717.09C529.51,-1721.44 595.56,-1727.38 651.03,-1732.37"/>
<polygon fill="#29e000" stroke="#29e000" stroke-width="2" points="650.49,-1735.84 660.77,-1733.25 651.12,-1728.87 650.49,-1735.84"/>
</a>
</g>
</g>
<!-- set_marker_node_Set(18) -->
<!-- node_System(10) -->
<g id="node17" class="node">
<title>node_System(10)</title>
<g id="a_node17"><a xlink:title="bevy_render::view::prepare_view_uniforms">
<polygon fill="white" stroke="black" points="1208.5,-1259 1030.5,-1259 1030.5,-1223 1208.5,-1223 1208.5,-1259"/>
<text text-anchor="middle" x="1119.5" y="-1237.3" font-family="Times,serif" font-size="14.00">prepare_view_uniforms</text>
</a>
</g>
</g>
<!-- set_marker_node_Set(22) -->
<!-- set_marker_node_Set(23) -->
<!-- set_marker_node_Set(22)&#45;&gt;set_marker_node_Set(23) -->
<g id="edge14" class="edge">
<title>set_marker_node_Set(22)&#45;&gt;set_marker_node_Set(23)</title>
<g id="a_edge14"><a xlink:title="PreAssetPrepare → AssetPrepare">
<path fill="none" stroke="#251dcc" stroke-width="2" d="M507,-1576.07C539.98,-1575.02 572.08,-1571.39 585,-1562 619.52,-1536.93 585.97,-1497.37 621,-1473 627.5,-1468.48 639.87,-1466.04 654.62,-1464.9"/>
<polygon fill="#251dcc" stroke="#251dcc" stroke-width="2" points="654.67,-1468.4 664.48,-1464.39 654.31,-1461.41 654.67,-1468.4"/>
</a>
</g>
</g>
<!-- node_System(31) -->
<g id="node36" class="node">
<title>node_System(31)</title>
<g id="a_node36"><a xlink:title="bevy_sprite::mesh2d::material::prepare_materials_2d&lt;bevy_sprite::mesh2d::color_material::ColorMaterial&gt;">
<polygon fill="white" stroke="black" points="895.5,-1544 622.5,-1544 622.5,-1508 895.5,-1508 895.5,-1544"/>
<text text-anchor="middle" x="759" y="-1522.3" font-family="Times,serif" font-size="14.00">prepare_materials_2d&lt;ColorMaterial&gt;</text>
</a>
</g>
</g>
<!-- set_marker_node_Set(22)&#45;&gt;node_System(31) -->
<g id="edge18" class="edge">
<title>set_marker_node_Set(22)&#45;&gt;node_System(31)</title>
<g id="a_edge18"><a xlink:title="PreAssetPrepare → prepare_materials_2d&lt;ColorMaterial&gt;">
<path fill="none" stroke="#cc251d" stroke-width="2" d="M507,-1570.43C532.41,-1568.66 559.85,-1565.99 585,-1562 601.29,-1559.41 604.9,-1556.6 621,-1553 629.86,-1551.02 639.07,-1549.04 648.32,-1547.1"/>
<polygon fill="#cc251d" stroke="#cc251d" stroke-width="2" points="648.9,-1550.56 657.98,-1545.11 647.48,-1543.7 648.9,-1550.56"/>
</a>
</g>
</g>
<!-- node_System(41) -->
<g id="node40" class="node">
<title>node_System(41)</title>
<g id="a_node40"><a xlink:title="bevy_pbr::material::prepare_materials&lt;bevy_pbr::pbr_material::StandardMaterial&gt;">
<polygon fill="white" stroke="black" points="897,-1598 621,-1598 621,-1562 897,-1562 897,-1598"/>
<text text-anchor="middle" x="759" y="-1576.3" font-family="Times,serif" font-size="14.00">prepare_materials&lt;StandardMaterial&gt;</text>
</a>
</g>
</g>
<!-- set_marker_node_Set(22)&#45;&gt;node_System(41) -->
<g id="edge19" class="edge">
<title>set_marker_node_Set(22)&#45;&gt;node_System(41)</title>
<g id="a_edge19"><a xlink:title="PreAssetPrepare → prepare_materials&lt;StandardMaterial&gt;">
<path fill="none" stroke="#ccd60d" stroke-width="2" d="M507,-1575.63C538.07,-1576.17 573.51,-1576.79 607.76,-1577.38"/>
<polygon fill="#ccd60d" stroke="#ccd60d" stroke-width="2" points="607.51,-1580.88 617.57,-1577.55 607.64,-1573.88 607.51,-1580.88"/>
</a>
</g>
</g>
<!-- node_System(14) -->
<g id="node19" class="node">
<title>node_System(14)</title>
<g id="a_node19"><a xlink:title="bevy_render::render_asset::prepare_assets&lt;bevy_render::texture::image::Image&gt;">
<polygon fill="white" stroke="black" points="499,-1628 326,-1628 326,-1592 499,-1592 499,-1628"/>
<text text-anchor="middle" x="412.5" y="-1606.3" font-family="Times,serif" font-size="14.00">prepare_assets&lt;Image&gt;</text>
</a>
</g>
</g>
<!-- node_System(14)&#45;&gt;node_System(11) -->
<g id="edge13" class="edge">
<title>node_System(14)&#45;&gt;node_System(11)</title>
<g id="a_edge13"><a xlink:title="SystemTypeSet(prepare_assets&lt;Image&gt;&quot;) → prepare_view_targets">
<path fill="none" stroke="#c4cc1d" stroke-width="2" d="M499.1,-1615.96C549.44,-1619.47 613.12,-1623.91 664.73,-1627.5"/>
<polygon fill="#c4cc1d" stroke="#c4cc1d" stroke-width="2" points="664.34,-1630.98 674.56,-1628.19 664.82,-1624 664.34,-1630.98"/>
</a>
</g>
</g>
<!-- set_marker_node_Set(24) -->
<!-- set_marker_node_Set(23)&#45;&gt;set_marker_node_Set(24) -->
<g id="edge15" class="edge">
<title>set_marker_node_Set(23)&#45;&gt;set_marker_node_Set(24)</title>
<g id="a_edge15"><a xlink:title="AssetPrepare → PostAssetPrepare">
<path fill="none" stroke="#cd1d91" stroke-width="2" d="M850.5,-1469C908.73,-1469 983.67,-1469 1039.5,-1469"/>
<polygon fill="#cd1d91" stroke="#cd1d91" stroke-width="2" points="1039.48,-1472.5 1049.48,-1469 1039.48,-1465.5 1039.48,-1472.5"/>
</a>
</g>
</g>
<!-- node_System(12) -->
<g id="node21" class="node">
<title>node_System(12)</title>
<g id="a_node21"><a xlink:title="bevy_render::render_asset::prepare_assets&lt;bevy_render::mesh::mesh::Mesh&gt;">
<polygon fill="white" stroke="black" points="842.5,-1451 675.5,-1451 675.5,-1415 842.5,-1415 842.5,-1451"/>
<text text-anchor="middle" x="759" y="-1429.3" font-family="Times,serif" font-size="14.00">prepare_assets&lt;Mesh&gt;</text>
</a>
</g>
</g>
<!-- set_marker_node_Set(62) -->
<!-- node_System(48) -->
<g id="node24" class="node">
<title>node_System(48)</title>
<g id="a_node24"><a xlink:title="bevy_pbr::render::fog::prepare_fog">
<polygon fill="white" stroke="black" points="461.5,-1509 363.5,-1509 363.5,-1473 461.5,-1473 461.5,-1509"/>
<text text-anchor="middle" x="412.5" y="-1487.3" font-family="Times,serif" font-size="14.00">prepare_fog</text>
</a>
</g>
</g>
<!-- set_marker_node_Set(63) -->
<!-- node_System(50) -->
<g id="node42" class="node">
<title>node_System(50)</title>
<g id="a_node42"><a xlink:title="bevy_ecs::schedule::executor::apply_system_buffers">
<polygon fill="white" stroke="black" points="839.5,-1276 678.5,-1276 678.5,-1240 839.5,-1240 839.5,-1276"/>
<text text-anchor="middle" x="759" y="-1254.3" font-family="Times,serif" font-size="14.00">apply_system_buffers</text>
</a>
</g>
</g>
<!-- set_marker_node_Set(63)&#45;&gt;node_System(50) -->
<g id="edge22" class="edge">
<title>set_marker_node_Set(63)&#45;&gt;node_System(50)</title>
<g id="a_edge22"><a xlink:title="PrepareLights → apply_system_buffers">
<path fill="none" stroke="#810ccd" stroke-width="2" d="M477,-1377.35C518.32,-1379.56 567.64,-1379.39 585,-1368 616.92,-1347.05 591.41,-1314.12 621,-1290 633.9,-1279.49 649.64,-1272.3 665.79,-1267.42"/>
<polygon fill="#810ccd" stroke="#810ccd" stroke-width="2" points="666.49,-1270.85 675.25,-1264.9 664.69,-1264.09 666.49,-1270.85"/>
</a>
</g>
</g>
<!-- node_System(49) -->
<g id="node26" class="node">
<title>node_System(49)</title>
<g id="a_node26"><a xlink:title="bevy_pbr::render::light::prepare_lights">
<polygon fill="white" stroke="black" points="469,-1426 356,-1426 356,-1390 469,-1390 469,-1426"/>
<text text-anchor="middle" x="412.5" y="-1404.3" font-family="Times,serif" font-size="14.00">prepare_lights</text>
</a>
</g>
</g>
<!-- node_System(49)&#45;&gt;set_marker_node_Set(18) -->
<g id="edge21" class="edge">
<title>node_System(49)&#45;&gt;set_marker_node_Set(18)</title>
<g id="a_edge21"><a xlink:title="prepare_lights → PrepareUniforms">
<path fill="none" stroke="#58cd0c" stroke-width="2" d="M469.31,-1412.11C505.66,-1411.91 552.24,-1405.89 585,-1381 615.72,-1357.66 589.01,-1323.57 621,-1302 633.72,-1293.42 881.67,-1290.78 897,-1290 933.64,-1288.13 973.67,-1285.85 1009.51,-1283.73"/>
<polygon fill="#58cd0c" stroke="#58cd0c" stroke-width="2" points="1009.71,-1287.22 1019.48,-1283.13 1009.29,-1280.23 1009.71,-1287.22"/>
</a>
</g>
</g>
<!-- node_System(51) -->
<g id="node28" class="node">
<title>node_System(51)</title>
<g id="a_node28"><a xlink:title="bevy_pbr::render::light::prepare_clusters">
<polygon fill="white" stroke="black" points="823,-1350 695,-1350 695,-1314 823,-1314 823,-1350"/>
<text text-anchor="middle" x="759" y="-1328.3" font-family="Times,serif" font-size="14.00">prepare_clusters</text>
</a>
</g>
</g>
<!-- node_System(49)&#45;&gt;node_System(51) -->
<g id="edge24" class="edge">
<title>node_System(49)&#45;&gt;node_System(51)</title>
<g id="a_edge24"><a xlink:title="SystemTypeSet(prepare_lights&quot;) → prepare_clusters">
<path fill="none" stroke="#0c9acf" stroke-width="2" d="M469.34,-1404.76C503.57,-1401.43 547.8,-1394.68 585,-1381 602.6,-1374.53 603.53,-1365.81 621,-1359 640.18,-1351.53 661.7,-1346.04 681.91,-1342.05"/>
<polygon fill="#0c9acf" stroke="#0c9acf" stroke-width="2" points="682.45,-1345.51 691.64,-1340.24 681.17,-1338.62 682.45,-1345.51"/>
</a>
</g>
</g>
<!-- set_marker_node_Set(64) -->
<!-- node_System(13) -->
<g id="node30" class="node">
<title>node_System(13)</title>
<g id="a_node30"><a xlink:title="bevy_render::globals::prepare_globals_buffer">
<polygon fill="white" stroke="black" points="498.5,-1336 326.5,-1336 326.5,-1300 498.5,-1300 498.5,-1336"/>
<text text-anchor="middle" x="412.5" y="-1314.3" font-family="Times,serif" font-size="14.00">prepare_globals_buffer</text>
</a>
</g>
</g>
<!-- node_System(24) -->
<g id="node32" class="node">
<title>node_System(24)</title>
<g id="a_node32"><a xlink:title="bevy_render::extract_component::prepare_uniform_components&lt;bevy_core_pipeline::bloom::BloomUniform&gt;">
<polygon fill="white" stroke="black" points="581,-1282 244,-1282 244,-1246 581,-1246 581,-1282"/>
<text text-anchor="middle" x="412.5" y="-1260.3" font-family="Times,serif" font-size="14.00">prepare_uniform_components&lt;BloomUniform&gt;</text>
</a>
</g>
</g>
<!-- node_System(25) -->
<g id="node33" class="node">
<title>node_System(25)</title>
<g id="a_node33"><a xlink:title="bevy_core_pipeline::bloom::prepare_bloom_textures">
<polygon fill="white" stroke="black" points="503.5,-1228 321.5,-1228 321.5,-1192 503.5,-1192 503.5,-1228"/>
<text text-anchor="middle" x="412.5" y="-1206.3" font-family="Times,serif" font-size="14.00">prepare_bloom_textures</text>
</a>
</g>
</g>
<!-- node_System(27) -->
<g id="node34" class="node">
<title>node_System(27)</title>
<g id="a_node34"><a xlink:title="bevy_core_pipeline::fxaa::prepare_fxaa_pipelines">
<polygon fill="white" stroke="black" points="499,-1174 326,-1174 326,-1138 499,-1138 499,-1174"/>
<text text-anchor="middle" x="412.5" y="-1152.3" font-family="Times,serif" font-size="14.00">prepare_fxaa_pipelines</text>
</a>
</g>
</g>
<!-- node_System(28) -->
<g id="node35" class="node">
<title>node_System(28)</title>
<g id="a_node35"><a xlink:title="bevy_render::extract_component::prepare_uniform_components&lt;bevy_sprite::mesh2d::mesh::Mesh2dUniform&gt;">
<polygon fill="white" stroke="black" points="585,-1120 240,-1120 240,-1084 585,-1084 585,-1120"/>
<text text-anchor="middle" x="412.5" y="-1098.3" font-family="Times,serif" font-size="14.00">prepare_uniform_components&lt;Mesh2dUniform&gt;</text>
</a>
</g>
</g>
<!-- node_System(34) -->
<g id="node37" class="node">
<title>node_System(34)</title>
<g id="a_node37"><a xlink:title="bevy_ui::render::prepare_uinodes">
<polygon fill="white" stroke="black" points="477,-1066 348,-1066 348,-1030 477,-1030 477,-1066"/>
<text text-anchor="middle" x="412.5" y="-1044.3" font-family="Times,serif" font-size="14.00">prepare_uinodes</text>
</a>
</g>
</g>
<!-- node_System(37) -->
<g id="node38" class="node">
<title>node_System(37)</title>
<g id="a_node38"><a xlink:title="bevy_render::extract_component::prepare_uniform_components&lt;bevy_pbr::render::mesh::MeshUniform&gt;">
<polygon fill="white" stroke="black" points="577,-1012 248,-1012 248,-976 577,-976 577,-1012"/>
<text text-anchor="middle" x="412.5" y="-990.3" font-family="Times,serif" font-size="14.00">prepare_uniform_components&lt;MeshUniform&gt;</text>
</a>
</g>
</g>
<!-- node_System(38) -->
<g id="node39" class="node">
<title>node_System(38)</title>
<g id="a_node39"><a xlink:title="bevy_pbr::render::mesh::prepare_skinned_meshes">
<polygon fill="white" stroke="black" points="505,-958 320,-958 320,-922 505,-922 505,-958"/>
<text text-anchor="middle" x="412.5" y="-936.3" font-family="Times,serif" font-size="14.00">prepare_skinned_meshes</text>
</a>
</g>
</g>
<!-- node_System(50)&#45;&gt;set_marker_node_Set(18) -->
<g id="edge23" class="edge">
<title>node_System(50)&#45;&gt;set_marker_node_Set(18)</title>
<g id="a_edge23"><a xlink:title="apply_system_buffers → PrepareUniforms">
<path fill="none" stroke="#cf410c" stroke-width="2" d="M839.72,-1263.06C866.78,-1264.72 897.2,-1266.51 925,-1268 952.39,-1269.47 981.97,-1270.91 1009.56,-1272.2"/>
<polygon fill="#cf410c" stroke="#cf410c" stroke-width="2" points="1009.33,-1275.69 1019.48,-1272.66 1009.65,-1268.7 1009.33,-1275.69"/>
</a>
</g>
</g>
<!-- set_marker_node_Set(8)&#45;&gt;set_marker_node_Set(2) -->
<g id="edge4" class="edge">
<title>set_marker_node_Set(8)&#45;&gt;set_marker_node_Set(2)</title>
<g id="a_edge4"><a xlink:title="Queue → QueueFlush">
<path fill="none" stroke="#1dcd59" stroke-width="2" d="M1314,-772C1316.41,-772 1318.8,-772 1321.18,-772"/>
<polygon fill="#1dcd59" stroke="#1dcd59" stroke-width="2" points="1320.97,-775.5 1330.97,-772 1320.97,-768.5 1320.97,-775.5"/>
</a>
</g>
</g>
<!-- set_marker_node_Set(65) -->
<!-- node_System(52) -->
<g id="node45" class="node">
<title>node_System(52)</title>
<g id="a_node45"><a xlink:title="bevy_pbr::render::light::queue_shadows">
<polygon fill="white" stroke="black" points="1180.5,-826 1058.5,-826 1058.5,-790 1180.5,-790 1180.5,-826"/>
<text text-anchor="middle" x="1119.5" y="-804.3" font-family="Times,serif" font-size="14.00">queue_shadows</text>
</a>
</g>
</g>
<!-- node_System(22) -->
<g id="node46" class="node">
<title>node_System(22)</title>
<g id="a_node46"><a xlink:title="bevy_core_pipeline::tonemapping::queue_view_tonemapping_pipelines">
<polygon fill="white" stroke="black" points="1249.5,-754 989.5,-754 989.5,-718 1249.5,-718 1249.5,-754"/>
<text text-anchor="middle" x="1119.5" y="-732.3" font-family="Times,serif" font-size="14.00">queue_view_tonemapping_pipelines</text>
</a>
</g>
</g>
<!-- node_System(23) -->
<g id="node47" class="node">
<title>node_System(23)</title>
<g id="a_node47"><a xlink:title="bevy_core_pipeline::upscaling::queue_view_upscaling_pipelines">
<polygon fill="white" stroke="black" points="1236.5,-700 1002.5,-700 1002.5,-664 1236.5,-664 1236.5,-700"/>
<text text-anchor="middle" x="1119.5" y="-678.3" font-family="Times,serif" font-size="14.00">queue_view_upscaling_pipelines</text>
</a>
</g>
</g>
<!-- node_System(26) -->
<g id="node48" class="node">
<title>node_System(26)</title>
<g id="a_node48"><a xlink:title="bevy_core_pipeline::bloom::queue_bloom_bind_groups">
<polygon fill="white" stroke="black" points="1218,-646 1021,-646 1021,-610 1218,-610 1218,-646"/>
<text text-anchor="middle" x="1119.5" y="-624.3" font-family="Times,serif" font-size="14.00">queue_bloom_bind_groups</text>
</a>
</g>
</g>
<!-- node_System(29) -->
<g id="node49" class="node">
<title>node_System(29)</title>
<g id="a_node49"><a xlink:title="bevy_sprite::mesh2d::mesh::queue_mesh2d_bind_group">
<polygon fill="white" stroke="black" points="1219.5,-592 1019.5,-592 1019.5,-556 1219.5,-556 1219.5,-592"/>
<text text-anchor="middle" x="1119.5" y="-570.3" font-family="Times,serif" font-size="14.00">queue_mesh2d_bind_group</text>
</a>
</g>
</g>
<!-- node_System(30) -->
<g id="node50" class="node">
<title>node_System(30)</title>
<g id="a_node50"><a xlink:title="bevy_sprite::mesh2d::mesh::queue_mesh2d_view_bind_groups">
<polygon fill="white" stroke="black" points="1242,-538 997,-538 997,-502 1242,-502 1242,-538"/>
<text text-anchor="middle" x="1119.5" y="-516.3" font-family="Times,serif" font-size="14.00">queue_mesh2d_view_bind_groups</text>
</a>
</g>
</g>
<!-- node_System(32) -->
<g id="node51" class="node">
<title>node_System(32)</title>
<g id="a_node51"><a xlink:title="bevy_sprite::mesh2d::material::queue_material2d_meshes&lt;bevy_sprite::mesh2d::color_material::ColorMaterial&gt;">
<polygon fill="white" stroke="black" points="1272,-484 967,-484 967,-448 1272,-448 1272,-484"/>
<text text-anchor="middle" x="1119.5" y="-462.3" font-family="Times,serif" font-size="14.00">queue_material2d_meshes&lt;ColorMaterial&gt;</text>
</a>
</g>
</g>
<!-- node_System(33) -->
<g id="node52" class="node">
<title>node_System(33)</title>
<g id="a_node52"><a xlink:title="bevy_sprite::render::queue_sprites">
<polygon fill="white" stroke="black" points="1174,-430 1065,-430 1065,-394 1174,-394 1174,-430"/>
<text text-anchor="middle" x="1119.5" y="-408.3" font-family="Times,serif" font-size="14.00">queue_sprites</text>
</a>
</g>
</g>
<!-- node_System(35) -->
<g id="node53" class="node">
<title>node_System(35)</title>
<g id="a_node53"><a xlink:title="bevy_ui::render::queue_uinodes">
<polygon fill="white" stroke="black" points="1178,-376 1061,-376 1061,-340 1178,-340 1178,-376"/>
<text text-anchor="middle" x="1119.5" y="-354.3" font-family="Times,serif" font-size="14.00">queue_uinodes</text>
</a>
</g>
</g>
<!-- node_System(39) -->
<g id="node54" class="node">
<title>node_System(39)</title>
<g id="a_node54"><a xlink:title="bevy_pbr::render::mesh::queue_mesh_bind_group">
<polygon fill="white" stroke="black" points="1211.5,-322 1027.5,-322 1027.5,-286 1211.5,-286 1211.5,-322"/>
<text text-anchor="middle" x="1119.5" y="-300.3" font-family="Times,serif" font-size="14.00">queue_mesh_bind_group</text>
</a>
</g>
</g>
<!-- node_System(40) -->
<g id="node55" class="node">
<title>node_System(40)</title>
<g id="a_node55"><a xlink:title="bevy_pbr::render::mesh::queue_mesh_view_bind_groups">
<polygon fill="white" stroke="black" points="1234,-268 1005,-268 1005,-232 1234,-232 1234,-268"/>
<text text-anchor="middle" x="1119.5" y="-246.3" font-family="Times,serif" font-size="14.00">queue_mesh_view_bind_groups</text>
</a>
</g>
</g>
<!-- node_System(42) -->
<g id="node56" class="node">
<title>node_System(42)</title>
<g id="a_node56"><a xlink:title="bevy_pbr::material::queue_material_meshes&lt;bevy_pbr::pbr_material::StandardMaterial&gt;">
<polygon fill="white" stroke="black" points="1276.5,-214 962.5,-214 962.5,-178 1276.5,-178 1276.5,-214"/>
<text text-anchor="middle" x="1119.5" y="-192.3" font-family="Times,serif" font-size="14.00">queue_material_meshes&lt;StandardMaterial&gt;</text>
</a>
</g>
</g>
<!-- node_System(44) -->
<g id="node57" class="node">
<title>node_System(44)</title>
<g id="a_node57"><a xlink:title="bevy_pbr::prepass::queue_prepass_view_bind_group&lt;bevy_pbr::pbr_material::StandardMaterial&gt;">
<polygon fill="white" stroke="black" points="1306,-160 933,-160 933,-124 1306,-124 1306,-160"/>
<text text-anchor="middle" x="1119.5" y="-138.3" font-family="Times,serif" font-size="14.00">queue_prepass_view_bind_group&lt;StandardMaterial&gt;</text>
</a>
</g>
</g>
<!-- node_System(45) -->
<g id="node58" class="node">
<title>node_System(45)</title>
<g id="a_node58"><a xlink:title="bevy_pbr::prepass::queue_prepass_material_meshes&lt;bevy_pbr::pbr_material::StandardMaterial&gt;">
<polygon fill="white" stroke="black" points="1305.5,-106 933.5,-106 933.5,-70 1305.5,-70 1305.5,-106"/>
<text text-anchor="middle" x="1119.5" y="-84.3" font-family="Times,serif" font-size="14.00">queue_prepass_material_meshes&lt;StandardMaterial&gt;</text>
</a>
</g>
</g>
<!-- node_System(53) -->
<g id="node59" class="node">
<title>node_System(53)</title>
<g id="a_node59"><a xlink:title="bevy_pbr::render::light::queue_shadow_view_bind_group">
<polygon fill="white" stroke="black" points="1239,-52 1000,-52 1000,-16 1239,-16 1239,-52"/>
<text text-anchor="middle" x="1119.5" y="-30.3" font-family="Times,serif" font-size="14.00">queue_shadow_view_bind_group</text>
</a>
</g>
</g>
<!-- set_marker_node_Set(9)&#45;&gt;set_marker_node_Set(3) -->
<g id="edge6" class="edge">
<title>set_marker_node_Set(9)&#45;&gt;set_marker_node_Set(3)</title>
<g id="a_edge6"><a xlink:title="PhaseSort → PhaseSortFlush">
<path fill="none" stroke="#cc251d" stroke-width="2" d="M1870.94,-386C1871.91,-384.6 1872.93,-383.26 1874,-382 1882.7,-371.74 1894.02,-364.3 1906.38,-358.95"/>
<polygon fill="#cc251d" stroke="#cc251d" stroke-width="2" points="1907.52,-362.26 1915.67,-355.49 1905.07,-355.7 1907.52,-362.26"/>
</a>
</g>
</g>
<!-- node_System(16) -->
<g id="node61" class="node">
<title>node_System(16)</title>
<g id="a_node61"><a xlink:title="bevy_render::render_phase::sort_phase_system&lt;bevy_core_pipeline::core_2d::Transparent2d&gt;">
<polygon fill="white" stroke="black" points="1816,-826 1561,-826 1561,-790 1816,-790 1816,-826"/>
<text text-anchor="middle" x="1688.5" y="-804.3" font-family="Times,serif" font-size="14.00">sort_phase_system&lt;Transparent2d&gt;</text>
</a>
</g>
</g>
<!-- node_System(17) -->
<g id="node62" class="node">
<title>node_System(17)</title>
<g id="a_node62"><a xlink:title="bevy_render::render_phase::batch_phase_system&lt;bevy_core_pipeline::core_2d::Transparent2d&gt;">
<polygon fill="white" stroke="black" points="2140,-826 1874,-826 1874,-790 2140,-790 2140,-826"/>
<text text-anchor="middle" x="2007" y="-804.3" font-family="Times,serif" font-size="14.00">batch_phase_system&lt;Transparent2d&gt;</text>
</a>
</g>
</g>
<!-- node_System(16)&#45;&gt;node_System(17) -->
<g id="edge16" class="edge">
<title>node_System(16)&#45;&gt;node_System(17)</title>
<g id="a_edge16"><a xlink:title="SystemTypeSet(sort_phase_system&lt;Transparent2d&gt;&quot;) → batch_phase_system&lt;Transparent2d&gt;">
<path fill="none" stroke="#1dcd59" stroke-width="2" d="M1816.41,-808C1830.97,-808 1845.91,-808 1860.69,-808"/>
<polygon fill="#1dcd59" stroke="#1dcd59" stroke-width="2" points="1860.6,-811.5 1870.6,-808 1860.6,-804.5 1860.6,-811.5"/>
</a>
</g>
</g>
<!-- node_System(19) -->
<g id="node63" class="node">
<title>node_System(19)</title>
<g id="a_node63"><a xlink:title="bevy_render::render_phase::sort_phase_system&lt;bevy_core_pipeline::core_3d::Opaque3d&gt;">
<polygon fill="white" stroke="black" points="1800.5,-754 1576.5,-754 1576.5,-718 1800.5,-718 1800.5,-754"/>
<text text-anchor="middle" x="1688.5" y="-732.3" font-family="Times,serif" font-size="14.00">sort_phase_system&lt;Opaque3d&gt;</text>
</a>
</g>
</g>
<!-- node_System(20) -->
<g id="node64" class="node">
<title>node_System(20)</title>
<g id="a_node64"><a xlink:title="bevy_render::render_phase::sort_phase_system&lt;bevy_core_pipeline::core_3d::AlphaMask3d&gt;">
<polygon fill="white" stroke="black" points="1812.5,-700 1564.5,-700 1564.5,-664 1812.5,-664 1812.5,-700"/>
<text text-anchor="middle" x="1688.5" y="-678.3" font-family="Times,serif" font-size="14.00">sort_phase_system&lt;AlphaMask3d&gt;</text>
</a>
</g>
</g>
<!-- node_System(21) -->
<g id="node65" class="node">
<title>node_System(21)</title>
<g id="a_node65"><a xlink:title="bevy_render::render_phase::sort_phase_system&lt;bevy_core_pipeline::core_3d::Transparent3d&gt;">
<polygon fill="white" stroke="black" points="1816,-646 1561,-646 1561,-610 1816,-610 1816,-646"/>
<text text-anchor="middle" x="1688.5" y="-624.3" font-family="Times,serif" font-size="14.00">sort_phase_system&lt;Transparent3d&gt;</text>
</a>
</g>
</g>
<!-- node_System(36) -->
<g id="node66" class="node">
<title>node_System(36)</title>
<g id="a_node66"><a xlink:title="bevy_render::render_phase::sort_phase_system&lt;bevy_ui::render::render_pass::TransparentUi&gt;">
<polygon fill="white" stroke="black" points="1815.5,-592 1561.5,-592 1561.5,-556 1815.5,-556 1815.5,-592"/>
<text text-anchor="middle" x="1688.5" y="-570.3" font-family="Times,serif" font-size="14.00">sort_phase_system&lt;TransparentUi&gt;</text>
</a>
</g>
</g>
<!-- node_System(46) -->
<g id="node67" class="node">
<title>node_System(46)</title>
<g id="a_node67"><a xlink:title="bevy_render::render_phase::sort_phase_system&lt;bevy_core_pipeline::prepass::Opaque3dPrepass&gt;">
<polygon fill="white" stroke="black" points="1826,-538 1551,-538 1551,-502 1826,-502 1826,-538"/>
<text text-anchor="middle" x="1688.5" y="-516.3" font-family="Times,serif" font-size="14.00">sort_phase_system&lt;Opaque3dPrepass&gt;</text>
</a>
</g>
</g>
<!-- node_System(47) -->
<g id="node68" class="node">
<title>node_System(47)</title>
<g id="a_node68"><a xlink:title="bevy_render::render_phase::sort_phase_system&lt;bevy_core_pipeline::prepass::AlphaMask3dPrepass&gt;">
<polygon fill="white" stroke="black" points="1838,-484 1539,-484 1539,-448 1838,-448 1838,-484"/>
<text text-anchor="middle" x="1688.5" y="-462.3" font-family="Times,serif" font-size="14.00">sort_phase_system&lt;AlphaMask3dPrepass&gt;</text>
</a>
</g>
</g>
<!-- node_System(54) -->
<g id="node69" class="node">
<title>node_System(54)</title>
<g id="a_node69"><a xlink:title="bevy_render::render_phase::sort_phase_system&lt;bevy_pbr::render::light::Shadow&gt;">
<polygon fill="white" stroke="black" points="1793.5,-430 1583.5,-430 1583.5,-394 1793.5,-394 1793.5,-430"/>
<text text-anchor="middle" x="1688.5" y="-408.3" font-family="Times,serif" font-size="14.00">sort_phase_system&lt;Shadow&gt;</text>
</a>
</g>
</g>
<!-- set_marker_node_Set(10)&#45;&gt;set_marker_node_Set(4) -->
<g id="edge8" class="edge">
<title>set_marker_node_Set(10)&#45;&gt;set_marker_node_Set(4)</title>
<g id="a_edge8"><a xlink:title="Render → RenderFlush">
<path fill="none" stroke="#29e000" stroke-width="2" d="M2329.88,-339C2354.56,-333.93 2387.7,-327.11 2419.38,-320.59"/>
<polygon fill="#29e000" stroke="#29e000" stroke-width="2" points="2419.95,-324.05 2429.04,-318.61 2418.54,-317.19 2419.95,-324.05"/>
</a>
</g>
</g>
<!-- node_System(6) -->
<g id="node71" class="node">
<title>node_System(6)</title>
<g id="a_node71"><a xlink:title="bevy_render::render_resource::pipeline_cache::PipelineCache::process_pipeline_queue_system">
<polygon fill="white" stroke="black" points="2404,-401 2176,-401 2176,-365 2404,-365 2404,-401"/>
<text text-anchor="middle" x="2290" y="-379.3" font-family="Times,serif" font-size="14.00">process_pipeline_queue_system</text>
</a>
</g>
</g>
<!-- node_System(7) -->
<g id="node72" class="node">
<title>node_System(7)</title>
<g id="a_node72"><a xlink:title="bevy_render::renderer::render_system">
<polygon fill="white" stroke="black" points="2578.5,-401 2462.5,-401 2462.5,-365 2578.5,-365 2578.5,-401"/>
<text text-anchor="middle" x="2520.5" y="-379.3" font-family="Times,serif" font-size="14.00">render_system</text>
</a>
</g>
</g>
<!-- node_System(6)&#45;&gt;node_System(7) -->
<g id="edge11" class="edge">
<title>node_System(6)&#45;&gt;node_System(7)</title>
<g id="a_edge11"><a xlink:title="process_pipeline_queue_system → SystemTypeSet(render_system&quot;)">
<path fill="none" stroke="#cf410c" stroke-width="2" d="M2404.25,-383C2419.63,-383 2435.03,-383 2449.34,-383"/>
<polygon fill="#cf410c" stroke="#cf410c" stroke-width="2" points="2449.12,-386.5 2459.12,-383 2449.12,-379.5 2449.12,-386.5"/>
</a>
</g>
</g>
<!-- set_marker_node_Set(11)&#45;&gt;set_marker_node_Set(5) -->
<g id="edge10" class="edge">
<title>set_marker_node_Set(11)&#45;&gt;set_marker_node_Set(5)</title>
<g id="a_edge10"><a xlink:title="Cleanup → CleanupFlush">
<path fill="none" stroke="#810ccd" stroke-width="2" d="M2863,-300C2865.34,-300 2867.69,-300 2870.02,-300"/>
<polygon fill="#810ccd" stroke="#810ccd" stroke-width="2" points="2869.97,-303.5 2879.97,-300 2869.97,-296.5 2869.97,-303.5"/>
</a>
</g>
</g>
<!-- node_System(8) -->
<g id="node74" class="node">
<title>node_System(8)</title>
<g id="a_node74"><a xlink:title="bevy_ecs::world::World::clear_entities">
<polygon fill="white" stroke="black" points="2799.5,-282 2692.5,-282 2692.5,-246 2799.5,-246 2799.5,-282"/>
<text text-anchor="middle" x="2746" y="-260.3" font-family="Times,serif" font-size="14.00">clear_entities</text>
</a>
</g>
</g>
<!-- node_System(15) -->
<g id="node75" class="node">
<title>node_System(15)</title>
<g id="a_node75"><a xlink:title="bevy_render::texture::texture_cache::update_texture_cache_system">
<polygon fill="white" stroke="black" points="2855,-228 2637,-228 2637,-192 2855,-192 2855,-228"/>
<text text-anchor="middle" x="2746" y="-206.3" font-family="Times,serif" font-size="14.00">update_texture_cache_system</text>
</a>
</g>
</g>
</g>
</svg>
