<?xml version="1.0" encoding="UTF-8" standalone="no"?>
<!DOCTYPE svg PUBLIC "-//W3C//DTD SVG 1.1//EN"
 "http://www.w3.org/Graphics/SVG/1.1/DTD/svg11.dtd">
<!-- Generated by graphviz version 9.0.0 (0)
 -->
<!-- Pages: 1 -->
<svg width="1027pt" height="2312pt"
 viewBox="0.00 0.00 1027.25 2312.00" xmlns="http://www.w3.org/2000/svg" xmlns:xlink="http://www.w3.org/1999/xlink">
<g id="graph0" class="graph" transform="scale(1 1) rotate(0) translate(4 2308)">
<polygon fill="white" stroke="none" points="-4,4 -4,-2308 1023.25,-2308 1023.25,4 -4,4"/>
<g id="clust1" class="cluster">
<title>clusternode_Set(26)</title>
<g id="a_clust1"><a xlink:title="ExtractSprites">
<path fill="#000000" fill-opacity="0.031373" stroke="#000000" stroke-width="2" stroke-opacity="0.250980" d="M170.5,-8C170.5,-8 281.25,-8 281.25,-8 287.25,-8 293.25,-14 293.25,-20 293.25,-20 293.25,-84 293.25,-84 293.25,-90 287.25,-96 281.25,-96 281.25,-96 170.5,-96 170.5,-96 164.5,-96 158.5,-90 158.5,-84 158.5,-84 158.5,-20 158.5,-20 158.5,-14 164.5,-8 170.5,-8"/>
<text text-anchor="middle" x="225.88" y="-78.7" font-family="Helvetica,sans-Serif" font-size="14.00" fill="#000000">ExtractSprites</text>
</a>
</g>
</g>
<g id="clust2" class="cluster">
<title>clusternode_Set(33)</title>
<g id="a_clust2"><a xlink:title="ExtractNode">
<path fill="#000000" fill-opacity="0.031373" stroke="#000000" stroke-width="2" stroke-opacity="0.250980" d="M166.75,-104C166.75,-104 285,-104 285,-104 291,-104 297,-110 297,-116 297,-116 297,-180 297,-180 297,-186 291,-192 285,-192 285,-192 166.75,-192 166.75,-192 160.75,-192 154.75,-186 154.75,-180 154.75,-180 154.75,-116 154.75,-116 154.75,-110 160.75,-104 166.75,-104"/>
<text text-anchor="middle" x="225.88" y="-174.7" font-family="Helvetica,sans-Serif" font-size="14.00" fill="#000000">ExtractNode</text>
</a>
</g>
</g>
<g id="clust3" class="cluster">
<title>clusternode_Set(35)</title>
<g id="a_clust3"><a xlink:title="ExtractAtlasNode">
<path fill="#000000" fill-opacity="0.031373" stroke="#000000" stroke-width="2" stroke-opacity="0.250980" d="M494.25,-133C494.25,-133 652.25,-133 652.25,-133 658.25,-133 664.25,-139 664.25,-145 664.25,-145 664.25,-209 664.25,-209 664.25,-215 658.25,-221 652.25,-221 652.25,-221 494.25,-221 494.25,-221 488.25,-221 482.25,-215 482.25,-209 482.25,-209 482.25,-145 482.25,-145 482.25,-139 488.25,-133 494.25,-133"/>
<text text-anchor="middle" x="573.25" y="-203.7" font-family="Helvetica,sans-Serif" font-size="14.00" fill="#000000">ExtractAtlasNode</text>
</a>
</g>
</g>
<!-- set_marker_node_Set(26) -->
<!-- node_System(27) -->
<g id="node33" class="node">
<title>node_System(27)</title>
<g id="a_node33"><a xlink:title="bevy_text::text2d::extract_text2d_sprite">
<polygon fill="lightgrey" stroke="black" points="657.75,-81 488.75,-81 488.75,-45 657.75,-45 657.75,-81"/>
<text text-anchor="middle" x="573.25" y="-58.33" font-family="Times,serif" font-size="14.00">extract_text2d_sprite</text>
</a>
</g>
</g>
<!-- set_marker_node_Set(26)&#45;&gt;node_System(27) -->
<g id="edge1" class="edge">
<title>set_marker_node_Set(26)&#45;&gt;node_System(27)</title>
<g id="a_edge1"><a xlink:title="ExtractSprites → extract_text2d_sprite">
<path fill="none" stroke="#eede00" stroke-width="2" d="M293.25,-63C344.9,-63 417.34,-63 475.45,-63"/>
<polygon fill="#eede00" stroke="#eede00" stroke-width="2" points="475.43,-66.5 485.43,-63 475.43,-59.5 475.43,-66.5"/>
</a>
</g>
</g>
<!-- node_System(25) -->
<g id="node2" class="node">
<title>node_System(25)</title>
<g id="a_node2"><a xlink:title="bevy_sprite::render::extract_sprites">
<polygon fill="#eff1f3" stroke="#b4bec7" points="285.25,-52 166.5,-52 166.5,-16 285.25,-16 285.25,-52"/>
<text text-anchor="middle" x="225.88" y="-29.32" font-family="Helvetica,sans-Serif" font-size="14.00" fill="#15191d">extract_sprites</text>
</a>
</g>
</g>
<!-- set_marker_node_Set(33) -->
<!-- node_System(32) -->
<g id="node6" class="node">
<title>node_System(32)</title>
<g id="a_node6"><a xlink:title="bevy_ui::render::extract_atlas_uinodes">
<polygon fill="#ffb1e5" stroke="#ff4bc2" points="656.25,-177 490.25,-177 490.25,-141 656.25,-141 656.25,-177"/>
<text text-anchor="middle" x="573.25" y="-154.32" font-family="Helvetica,sans-Serif" font-size="14.00" fill="#320021">extract_atlas_uinodes</text>
</a>
</g>
</g>
<!-- set_marker_node_Set(33)&#45;&gt;node_System(32) -->
<g id="edge2" class="edge">
<title>set_marker_node_Set(33)&#45;&gt;node_System(32)</title>
<g id="a_edge2"><a xlink:title="ExtractNode → extract_atlas_uinodes">
<path fill="none" stroke="#881877" stroke-width="2" d="M297,-159C348.76,-159 419.81,-159 476.76,-159"/>
<polygon fill="#881877" stroke="#881877" stroke-width="2" points="476.74,-162.5 486.74,-159 476.74,-155.5 476.74,-162.5"/>
</a>
</g>
</g>
<!-- node_System(31) -->
<g id="node4" class="node">
<title>node_System(31)</title>
<g id="a_node4"><a xlink:title="bevy_ui::render::extract_uinodes">
<polygon fill="#ffb1e5" stroke="#ff4bc2" points="289,-148 162.75,-148 162.75,-112 289,-112 289,-148"/>
<text text-anchor="middle" x="225.88" y="-125.33" font-family="Helvetica,sans-Serif" font-size="14.00" fill="#320021">extract_uinodes</text>
</a>
</g>
</g>
<!-- set_marker_node_Set(35) -->
<!-- node_System(33) -->
<g id="node37" class="node">
<title>node_System(33)</title>
<g id="a_node37"><a xlink:title="bevy_ui::render::extract_uinode_borders">
<polygon fill="lightgrey" stroke="black" points="1018.5,-278 834.5,-278 834.5,-242 1018.5,-242 1018.5,-278"/>
<text text-anchor="middle" x="926.5" y="-255.32" font-family="Times,serif" font-size="14.00">extract_uinode_borders</text>
</a>
</g>
</g>
<!-- set_marker_node_Set(35)&#45;&gt;node_System(33) -->
<g id="edge3" class="edge">
<title>set_marker_node_Set(35)&#45;&gt;node_System(33)</title>
<g id="a_edge3"><a xlink:title="ExtractAtlasNode → extract_uinode_borders">
<path fill="none" stroke="#00b0cc" stroke-width="2" d="M664.25,-206.45C712.65,-216.37 772.54,-228.65 822.76,-238.94"/>
<polygon fill="#00b0cc" stroke="#00b0cc" stroke-width="2" points="821.89,-242.33 832.39,-240.91 823.29,-235.48 821.89,-242.33"/>
</a>
</g>
</g>
<!-- node_System(34) -->
<g id="node38" class="node">
<title>node_System(34)</title>
<g id="a_node38"><a xlink:title="bevy_ui::render::extract_text_uinodes">
<polygon fill="lightgrey" stroke="black" points="1008.75,-206 844.25,-206 844.25,-170 1008.75,-170 1008.75,-206"/>
<text text-anchor="middle" x="926.5" y="-183.32" font-family="Times,serif" font-size="14.00">extract_text_uinodes</text>
</a>
</g>
</g>
<!-- set_marker_node_Set(35)&#45;&gt;node_System(34) -->
<g id="edge4" class="edge">
<title>set_marker_node_Set(35)&#45;&gt;node_System(34)</title>
<g id="a_edge4"><a xlink:title="ExtractAtlasNode → extract_text_uinodes">
<path fill="none" stroke="#aa3a55" stroke-width="2" d="M664.25,-188C715.29,-188 779.12,-188 830.91,-188"/>
<polygon fill="#aa3a55" stroke="#aa3a55" stroke-width="2" points="830.8,-191.5 840.8,-188 830.8,-184.5 830.8,-191.5"/>
</a>
</g>
</g>
<!-- node_System(35) -->
<g id="node39" class="node">
<title>node_System(35)</title>
<g id="a_node39"><a xlink:title="bevy_ui::render::extract_uinode_outlines">
<polygon fill="lightgrey" stroke="black" points="1019.25,-134 833.75,-134 833.75,-98 1019.25,-98 1019.25,-134"/>
<text text-anchor="middle" x="926.5" y="-111.33" font-family="Times,serif" font-size="14.00">extract_uinode_outlines</text>
</a>
</g>
</g>
<!-- set_marker_node_Set(35)&#45;&gt;node_System(35) -->
<g id="edge5" class="edge">
<title>set_marker_node_Set(35)&#45;&gt;node_System(35)</title>
<g id="a_edge5"><a xlink:title="ExtractAtlasNode → extract_uinode_outlines">
<path fill="none" stroke="#44d488" stroke-width="2" d="M574.42,-188.06C577.87,-189.18 633.65,-206.87 664.25,-183 677.83,-172.41 662.52,-157.02 675.75,-146"/>
<polygon fill="#44d488" stroke="#44d488" stroke-width="2" points="821.75,-110.91 830.52,-104.96 819.95,-104.14 821.75,-110.91"/>
</a>
</g>
</g>
<!-- node_System(0) -->
<g id="node7" class="node">
<title>node_System(0)</title>
<g id="a_node7"><a xlink:title="bevy_render::render_resource::pipeline_cache::PipelineCache::extract_shaders">
<polygon fill="lightgrey" stroke="black" points="290.88,-236 160.88,-236 160.88,-200 290.88,-200 290.88,-236"/>
<text text-anchor="middle" x="225.88" y="-213.32" font-family="Times,serif" font-size="14.00">extract_shaders</text>
</a>
</g>
</g>
<!-- node_System(1) -->
<g id="node8" class="node">
<title>node_System(1)</title>
<g id="a_node8"><a xlink:title="bevy_render::view::window::extract_windows">
<polygon fill="lightgrey" stroke="black" points="293.88,-283 157.88,-283 157.88,-247 293.88,-247 293.88,-283"/>
<text text-anchor="middle" x="225.88" y="-260.32" font-family="Times,serif" font-size="14.00">extract_windows</text>
</a>
</g>
</g>
<!-- node_System(2) -->
<g id="node9" class="node">
<title>node_System(2)</title>
<g id="a_node9"><a xlink:title="bevy_render::extract_resource::extract_resource&lt;bevy_render::camera::manual_texture_view::ManualTextureViews&gt;">
<polygon fill="lightgrey" stroke="black" points="380.88,-330 70.88,-330 70.88,-294 380.88,-294 380.88,-330"/>
<text text-anchor="middle" x="225.88" y="-307.32" font-family="Times,serif" font-size="14.00">extract_resource&lt;ManualTextureViews&gt;</text>
</a>
</g>
</g>
<!-- node_System(3) -->
<g id="node10" class="node">
<title>node_System(3)</title>
<g id="a_node10"><a xlink:title="bevy_render::camera::camera::extract_cameras">
<polygon fill="lightgrey" stroke="black" points="292.75,-377 159,-377 159,-341 292.75,-341 292.75,-377"/>
<text text-anchor="middle" x="225.88" y="-354.32" font-family="Times,serif" font-size="14.00">extract_cameras</text>
</a>
</g>
</g>
<!-- node_System(4) -->
<g id="node11" class="node">
<title>node_System(4)</title>
<g id="a_node11"><a xlink:title="bevy_render::extract_resource::extract_resource&lt;bevy_render::view::Msaa&gt;">
<polygon fill="lightgrey" stroke="black" points="325,-424 126.75,-424 126.75,-388 325,-388 325,-424"/>
<text text-anchor="middle" x="225.88" y="-401.32" font-family="Times,serif" font-size="14.00">extract_resource&lt;Msaa&gt;</text>
</a>
</g>
</g>
<!-- node_System(5) -->
<g id="node12" class="node">
<title>node_System(5)</title>
<g id="a_node12"><a xlink:title="bevy_render::render_asset::extract_render_asset&lt;bevy_render::mesh::mesh::Mesh&gt;">
<polygon fill="lightgrey" stroke="black" points="340.38,-471 111.37,-471 111.37,-435 340.38,-435 340.38,-471"/>
<text text-anchor="middle" x="225.88" y="-448.32" font-family="Times,serif" font-size="14.00">extract_render_asset&lt;Mesh&gt;</text>
</a>
</g>
</g>
<!-- node_System(6) -->
<g id="node13" class="node">
<title>node_System(6)</title>
<g id="a_node13"><a xlink:title="bevy_render::globals::extract_frame_count">
<polygon fill="lightgrey" stroke="black" points="307,-518 144.75,-518 144.75,-482 307,-482 307,-518"/>
<text text-anchor="middle" x="225.88" y="-495.32" font-family="Times,serif" font-size="14.00">extract_frame_count</text>
</a>
</g>
</g>
<!-- node_System(7) -->
<g id="node14" class="node">
<title>node_System(7)</title>
<g id="a_node14"><a xlink:title="bevy_render::globals::extract_time">
<polygon fill="lightgrey" stroke="black" points="278.88,-565 172.88,-565 172.88,-529 278.88,-529 278.88,-565"/>
<text text-anchor="middle" x="225.88" y="-542.33" font-family="Times,serif" font-size="14.00">extract_time</text>
</a>
</g>
</g>
<!-- node_System(8) -->
<g id="node15" class="node">
<title>node_System(8)</title>
<g id="a_node15"><a xlink:title="bevy_render::render_asset::extract_render_asset&lt;bevy_render::texture::image::Image&gt;">
<polygon fill="lightgrey" stroke="black" points="343,-612 108.75,-612 108.75,-576 343,-576 343,-612"/>
<text text-anchor="middle" x="225.88" y="-589.33" font-family="Times,serif" font-size="14.00">extract_render_asset&lt;Image&gt;</text>
</a>
</g>
</g>
<!-- node_System(9) -->
<g id="node16" class="node">
<title>node_System(9)</title>
<g id="a_node16"><a xlink:title="bevy_render::extract_resource::extract_resource&lt;bevy_core_pipeline::clear_color::ClearColor&gt;">
<polygon fill="lightgrey" stroke="black" points="344.12,-659 107.62,-659 107.62,-623 344.12,-623 344.12,-659"/>
<text text-anchor="middle" x="225.88" y="-636.33" font-family="Times,serif" font-size="14.00">extract_resource&lt;ClearColor&gt;</text>
</a>
</g>
</g>
<!-- node_System(10) -->
<g id="node17" class="node">
<title>node_System(10)</title>
<g id="a_node17"><a xlink:title="bevy_render::extract_component::extract_components&lt;bevy_core_pipeline::core_2d::camera_2d::Camera2d&gt;">
<polygon fill="lightgrey" stroke="black" points="354.62,-706 97.12,-706 97.12,-670 354.62,-670 354.62,-706"/>
<text text-anchor="middle" x="225.88" y="-683.33" font-family="Times,serif" font-size="14.00">extract_components&lt;Camera2d&gt;</text>
</a>
</g>
</g>
<!-- node_System(11) -->
<g id="node18" class="node">
<title>node_System(11)</title>
<g id="a_node18"><a xlink:title="bevy_core_pipeline::core_2d::extract_core_2d_camera_phases">
<polygon fill="lightgrey" stroke="black" points="348.25,-753 103.5,-753 103.5,-717 348.25,-717 348.25,-753"/>
<text text-anchor="middle" x="225.88" y="-730.33" font-family="Times,serif" font-size="14.00">extract_core_2d_camera_phases</text>
</a>
</g>
</g>
<!-- node_System(12) -->
<g id="node19" class="node">
<title>node_System(12)</title>
<g id="a_node19"><a xlink:title="bevy_render::extract_component::extract_components&lt;bevy_core_pipeline::skybox::Skybox&gt;">
<polygon fill="lightgrey" stroke="black" points="343.75,-800 108,-800 108,-764 343.75,-764 343.75,-800"/>
<text text-anchor="middle" x="225.88" y="-777.33" font-family="Times,serif" font-size="14.00">extract_components&lt;Skybox&gt;</text>
</a>
</g>
</g>
<!-- node_System(13) -->
<g id="node20" class="node">
<title>node_System(13)</title>
<g id="a_node20"><a xlink:title="bevy_render::extract_component::extract_components&lt;bevy_core_pipeline::core_3d::camera_3d::Camera3d&gt;">
<polygon fill="lightgrey" stroke="black" points="354.62,-847 97.12,-847 97.12,-811 354.62,-811 354.62,-847"/>
<text text-anchor="middle" x="225.88" y="-824.33" font-family="Times,serif" font-size="14.00">extract_components&lt;Camera3d&gt;</text>
</a>
</g>
</g>
<!-- node_System(14) -->
<g id="node21" class="node">
<title>node_System(14)</title>
<g id="a_node21"><a xlink:title="bevy_core_pipeline::core_3d::extract_core_3d_camera_phases">
<polygon fill="lightgrey" stroke="black" points="348.25,-894 103.5,-894 103.5,-858 348.25,-858 348.25,-894"/>
<text text-anchor="middle" x="225.88" y="-871.33" font-family="Times,serif" font-size="14.00">extract_core_3d_camera_phases</text>
</a>
</g>
</g>
<!-- node_System(15) -->
<g id="node22" class="node">
<title>node_System(15)</title>
<g id="a_node22"><a xlink:title="bevy_core_pipeline::core_3d::extract_camera_prepass_phase">
<polygon fill="lightgrey" stroke="black" points="344.88,-941 106.88,-941 106.88,-905 344.88,-905 344.88,-941"/>
<text text-anchor="middle" x="225.88" y="-918.33" font-family="Times,serif" font-size="14.00">extract_camera_prepass_phase</text>
</a>
</g>
</g>
<!-- node_System(16) -->
<g id="node23" class="node">
<title>node_System(16)</title>
<g id="a_node23"><a xlink:title="bevy_render::extract_resource::extract_resource&lt;bevy_core_pipeline::tonemapping::TonemappingLuts&gt;">
<polygon fill="lightgrey" stroke="black" points="369.62,-988 82.12,-988 82.12,-952 369.62,-952 369.62,-988"/>
<text text-anchor="middle" x="225.88" y="-965.33" font-family="Times,serif" font-size="14.00">extract_resource&lt;TonemappingLuts&gt;</text>
</a>
</g>
</g>
<!-- node_System(17) -->
<g id="node24" class="node">
<title>node_System(17)</title>
<g id="a_node24"><a xlink:title="bevy_render::extract_component::extract_components&lt;bevy_core_pipeline::tonemapping::Tonemapping&gt;">
<polygon fill="lightgrey" stroke="black" points="365.88,-1035 85.88,-1035 85.88,-999 365.88,-999 365.88,-1035"/>
<text text-anchor="middle" x="225.88" y="-1012.33" font-family="Times,serif" font-size="14.00">extract_components&lt;Tonemapping&gt;</text>
</a>
</g>
</g>
<!-- node_System(18) -->
<g id="node25" class="node">
<title>node_System(18)</title>
<g id="a_node25"><a xlink:title="bevy_render::extract_component::extract_components&lt;bevy_core_pipeline::tonemapping::DebandDither&gt;">
<polygon fill="lightgrey" stroke="black" points="368.12,-1082 83.62,-1082 83.62,-1046 368.12,-1046 368.12,-1082"/>
<text text-anchor="middle" x="225.88" y="-1059.33" font-family="Times,serif" font-size="14.00">extract_components&lt;DebandDither&gt;</text>
</a>
</g>
</g>
<!-- node_System(19) -->
<g id="node26" class="node">
<title>node_System(19)</title>
<g id="a_node26"><a xlink:title="bevy_render::extract_component::extract_components&lt;bevy_core_pipeline::bloom::settings::BloomSettings&gt;">
<polygon fill="lightgrey" stroke="black" points="370.38,-1129 81.38,-1129 81.38,-1093 370.38,-1093 370.38,-1129"/>
<text text-anchor="middle" x="225.88" y="-1106.33" font-family="Times,serif" font-size="14.00">extract_components&lt;BloomSettings&gt;</text>
</a>
</g>
</g>
<!-- node_System(20) -->
<g id="node27" class="node">
<title>node_System(20)</title>
<g id="a_node27"><a xlink:title="bevy_render::extract_component::extract_components&lt;bevy_core_pipeline::fxaa::Fxaa&gt;">
<polygon fill="lightgrey" stroke="black" points="335.12,-1176 116.62,-1176 116.62,-1140 335.12,-1140 335.12,-1176"/>
<text text-anchor="middle" x="225.88" y="-1153.33" font-family="Times,serif" font-size="14.00">extract_components&lt;Fxaa&gt;</text>
</a>
</g>
</g>
<!-- node_System(21) -->
<g id="node28" class="node">
<title>node_System(21)</title>
<g id="a_node28"><a xlink:title="bevy_render::extract_component::extract_components&lt;bevy_core_pipeline::contrast_adaptive_sharpening::ContrastAdaptiveSharpeningSettings&gt;">
<polygon fill="lightgrey" stroke="black" points="451.75,-1223 0,-1223 0,-1187 451.75,-1187 451.75,-1223"/>
<text text-anchor="middle" x="225.88" y="-1200.33" font-family="Times,serif" font-size="14.00">extract_components&lt;ContrastAdaptiveSharpeningSettings&gt;</text>
</a>
</g>
</g>
<!-- node_System(22) -->
<g id="node29" class="node">
<title>node_System(22)</title>
<g id="a_node29"><a xlink:title="bevy_sprite::mesh2d::mesh::extract_mesh2d">
<polygon fill="lightgrey" stroke="black" points="290.88,-1270 160.88,-1270 160.88,-1234 290.88,-1234 290.88,-1270"/>
<text text-anchor="middle" x="225.88" y="-1247.33" font-family="Times,serif" font-size="14.00">extract_mesh2d</text>
</a>
</g>
</g>
<!-- node_System(23) -->
<g id="node30" class="node">
<title>node_System(23)</title>
<g id="a_node30"><a xlink:title="bevy_sprite::mesh2d::material::extract_materials_2d&lt;bevy_sprite::mesh2d::color_material::ColorMaterial&gt;">
<polygon fill="lightgrey" stroke="black" points="370.38,-1317 81.38,-1317 81.38,-1281 370.38,-1281 370.38,-1317"/>
<text text-anchor="middle" x="225.88" y="-1294.33" font-family="Times,serif" font-size="14.00">extract_materials_2d&lt;ColorMaterial&gt;</text>
</a>
</g>
</g>
<!-- node_System(24) -->
<g id="node31" class="node">
<title>node_System(24)</title>
<g id="a_node31"><a xlink:title="bevy_sprite::mesh2d::material::extract_material_meshes_2d&lt;bevy_sprite::mesh2d::color_material::ColorMaterial&gt;">
<polygon fill="lightgrey" stroke="black" points="397,-1364 54.75,-1364 54.75,-1328 397,-1328 397,-1364"/>
<text text-anchor="middle" x="225.88" y="-1341.33" font-family="Times,serif" font-size="14.00">extract_material_meshes_2d&lt;ColorMaterial&gt;</text>
</a>
</g>
</g>
<!-- node_System(26) -->
<g id="node32" class="node">
<title>node_System(26)</title>
<g id="a_node32"><a xlink:title="bevy_sprite::render::extract_sprite_events">
<polygon fill="lightgrey" stroke="black" points="310.75,-1411 141,-1411 141,-1375 310.75,-1375 310.75,-1411"/>
<text text-anchor="middle" x="225.88" y="-1388.33" font-family="Times,serif" font-size="14.00">extract_sprite_events</text>
</a>
</g>
</g>
<!-- node_System(28) -->
<g id="node34" class="node">
<title>node_System(28)</title>
<g id="a_node34"><a xlink:title="bevy_render::extract_component::extract_components&lt;bevy_ui::camera_config::UiCameraConfig&gt;">
<polygon fill="lightgrey" stroke="black" points="376.75,-1458 75,-1458 75,-1422 376.75,-1422 376.75,-1458"/>
<text text-anchor="middle" x="225.88" y="-1435.33" font-family="Times,serif" font-size="14.00">extract_components&lt;UiCameraConfig&gt;</text>
</a>
</g>
</g>
<!-- node_System(29) -->
<g id="node35" class="node">
<title>node_System(29)</title>
<g id="a_node35"><a xlink:title="bevy_ui::render::extract_default_ui_camera_view&lt;bevy_core_pipeline::core_2d::camera_2d::Camera2d&gt;">
<polygon fill="lightgrey" stroke="black" points="396.25,-1505 55.5,-1505 55.5,-1469 396.25,-1469 396.25,-1505"/>
<text text-anchor="middle" x="225.88" y="-1482.33" font-family="Times,serif" font-size="14.00">extract_default_ui_camera_view&lt;Camera2d&gt;</text>
</a>
</g>
</g>
<!-- node_System(30) -->
<g id="node36" class="node">
<title>node_System(30)</title>
<g id="a_node36"><a xlink:title="bevy_ui::render::extract_default_ui_camera_view&lt;bevy_core_pipeline::core_3d::camera_3d::Camera3d&gt;">
<polygon fill="lightgrey" stroke="black" points="396.25,-1552 55.5,-1552 55.5,-1516 396.25,-1516 396.25,-1552"/>
<text text-anchor="middle" x="225.88" y="-1529.33" font-family="Times,serif" font-size="14.00">extract_default_ui_camera_view&lt;Camera3d&gt;</text>
</a>
</g>
</g>
<!-- node_System(33)&#45;&gt;node_System(35) -->
<g id="edge6" class="edge">
<title>node_System(33)&#45;&gt;node_System(35)</title>
<path fill="none" stroke="#c93526" stroke-width="2" d="M834.02,-245.86C755.37,-230 661.67,-199.53 705.88,-148.38 736.63,-112.78 787.88,-103.68 833.26,-103.95"/>
<g id="a_edge6&#45;label"><a xlink:title="extract_uinode_borders — extract_uinode_outlines">
<polygon fill="#d3d3d3" stroke="none" points="677.75,-150.38 677.75,-171.62 813.75,-171.62 813.75,-150.38 677.75,-150.38"/>
<text text-anchor="start" x="679.75" y="-156.32" font-family="Times,serif" font-size="14.00" fill="#c93526">ExtractedUiNodes</text>
</a>
</g>
</g>
<!-- node_System(34)&#45;&gt;node_System(33) -->
<g id="edge7" class="edge">
<title>node_System(34)&#45;&gt;node_System(33)</title>
<path fill="none" stroke="#c93526" stroke-width="2" d="M926.5,-206.17C926.5,-217 926.5,-230.71 926.5,-241.59"/>
<g id="a_edge7&#45;label"><a xlink:title="extract_text_uinodes — extract_uinode_borders">
<polygon fill="#d3d3d3" stroke="none" points="842.88,-213.38 842.88,-234.62 978.88,-234.62 978.88,-213.38 842.88,-213.38"/>
<text text-anchor="start" x="844.88" y="-219.32" font-family="Times,serif" font-size="14.00" fill="#c93526">ExtractedUiNodes</text>
</a>
</g>
</g>
<!-- node_System(34)&#45;&gt;node_System(35) -->
<g id="edge8" class="edge">
<title>node_System(34)&#45;&gt;node_System(35)</title>
<path fill="none" stroke="#c93526" stroke-width="2" d="M926.5,-169.59C926.5,-158.71 926.5,-145 926.5,-134.17"/>
<g id="a_edge8&#45;label"><a xlink:title="extract_text_uinodes — extract_uinode_outlines">
<polygon fill="#d3d3d3" stroke="none" points="842.88,-141.38 842.88,-162.62 978.88,-162.62 978.88,-141.38 842.88,-141.38"/>
<text text-anchor="start" x="844.88" y="-147.32" font-family="Times,serif" font-size="14.00" fill="#c93526">ExtractedUiNodes</text>
</a>
</g>
</g>
<!-- node_System(36) -->
<g id="node40" class="node">
<title>node_System(36)</title>
<g id="a_node40"><a xlink:title="bevy_pbr::render::mesh::extract_meshes">
<polygon fill="lightgrey" stroke="black" points="289.75,-1599 162,-1599 162,-1563 289.75,-1563 289.75,-1599"/>
<text text-anchor="middle" x="225.88" y="-1576.33" font-family="Times,serif" font-size="14.00">extract_meshes</text>
</a>
</g>
</g>
<!-- node_System(37) -->
<g id="node41" class="node">
<title>node_System(37)</title>
<g id="a_node41"><a xlink:title="bevy_pbr::render::skin::extract_skins">
<polygon fill="lightgrey" stroke="black" points="281.12,-1646 170.62,-1646 170.62,-1610 281.12,-1610 281.12,-1646"/>
<text text-anchor="middle" x="225.88" y="-1623.33" font-family="Times,serif" font-size="14.00">extract_skins</text>
</a>
</g>
</g>
<!-- node_System(38) -->
<g id="node42" class="node">
<title>node_System(38)</title>
<g id="a_node42"><a xlink:title="bevy_pbr::render::morph::extract_morphs">
<polygon fill="lightgrey" stroke="black" points="289.75,-1693 162,-1693 162,-1657 289.75,-1657 289.75,-1693"/>
<text text-anchor="middle" x="225.88" y="-1670.33" font-family="Times,serif" font-size="14.00">extract_morphs</text>
</a>
</g>
</g>
<!-- node_System(39) -->
<g id="node43" class="node">
<title>node_System(39)</title>
<g id="a_node43"><a xlink:title="bevy_render::extract_instances::extract_visible&lt;bevy_asset::id::AssetId&lt;bevy_pbr::pbr_material::StandardMaterial&gt;&gt;">
<polygon fill="lightgrey" stroke="black" points="400,-1740 51.75,-1740 51.75,-1704 400,-1704 400,-1740"/>
<text text-anchor="middle" x="225.88" y="-1717.33" font-family="Times,serif" font-size="14.00">extract_visible&lt;AssetId&lt;StandardMaterial&gt;&gt;</text>
</a>
</g>
</g>
<!-- node_System(40) -->
<g id="node44" class="node">
<title>node_System(40)</title>
<g id="a_node44"><a xlink:title="bevy_pbr::material::extract_materials&lt;bevy_pbr::pbr_material::StandardMaterial&gt;">
<polygon fill="lightgrey" stroke="black" points="371.88,-1787 79.88,-1787 79.88,-1751 371.88,-1751 371.88,-1787"/>
<text text-anchor="middle" x="225.88" y="-1764.33" font-family="Times,serif" font-size="14.00">extract_materials&lt;StandardMaterial&gt;</text>
</a>
</g>
</g>
<!-- node_System(41) -->
<g id="node45" class="node">
<title>node_System(41)</title>
<g id="a_node45"><a xlink:title="bevy_pbr::prepass::extract_camera_previous_view_projection">
<polygon fill="lightgrey" stroke="black" points="382.38,-1834 69.38,-1834 69.38,-1798 382.38,-1798 382.38,-1834"/>
<text text-anchor="middle" x="225.88" y="-1811.33" font-family="Times,serif" font-size="14.00">extract_camera_previous_view_projection</text>
</a>
</g>
</g>
<!-- node_System(42) -->
<g id="node46" class="node">
<title>node_System(42)</title>
<g id="a_node46"><a xlink:title="bevy_render::extract_component::extract_components&lt;bevy_pbr::environment_map::EnvironmentMapLight&gt;">
<polygon fill="lightgrey" stroke="black" points="398.88,-1881 52.88,-1881 52.88,-1845 398.88,-1845 398.88,-1881"/>
<text text-anchor="middle" x="225.88" y="-1858.33" font-family="Times,serif" font-size="14.00">extract_components&lt;EnvironmentMapLight&gt;</text>
</a>
</g>
</g>
<!-- node_System(43) -->
<g id="node47" class="node">
<title>node_System(43)</title>
<g id="a_node47"><a xlink:title="bevy_render::extract_resource::extract_resource&lt;bevy_pbr::light::AmbientLight&gt;">
<polygon fill="lightgrey" stroke="black" points="354.62,-1928 97.12,-1928 97.12,-1892 354.62,-1892 354.62,-1928"/>
<text text-anchor="middle" x="225.88" y="-1905.33" font-family="Times,serif" font-size="14.00">extract_resource&lt;AmbientLight&gt;</text>
</a>
</g>
</g>
<!-- node_System(44) -->
<g id="node48" class="node">
<title>node_System(44)</title>
<g id="a_node48"><a xlink:title="bevy_render::extract_component::extract_components&lt;bevy_pbr::fog::FogSettings&gt;">
<polygon fill="lightgrey" stroke="black" points="361,-1975 90.75,-1975 90.75,-1939 361,-1939 361,-1975"/>
<text text-anchor="middle" x="225.88" y="-1952.33" font-family="Times,serif" font-size="14.00">extract_components&lt;FogSettings&gt;</text>
</a>
</g>
</g>
<!-- node_System(45) -->
<g id="node49" class="node">
<title>node_System(45)</title>
<g id="a_node49"><a xlink:title="bevy_render::extract_resource::extract_resource&lt;bevy_pbr::material::DefaultOpaqueRendererMethod&gt;">
<polygon fill="lightgrey" stroke="black" points="420.25,-2022 31.5,-2022 31.5,-1986 420.25,-1986 420.25,-2022"/>
<text text-anchor="middle" x="225.88" y="-1999.33" font-family="Times,serif" font-size="14.00">extract_resource&lt;DefaultOpaqueRendererMethod&gt;</text>
</a>
</g>
</g>
<!-- node_System(46) -->
<g id="node50" class="node">
<title>node_System(46)</title>
<g id="a_node50"><a xlink:title="bevy_render::extract_component::extract_components&lt;bevy_pbr::light::ShadowFilteringMethod&gt;">
<polygon fill="lightgrey" stroke="black" points="404.5,-2069 47.25,-2069 47.25,-2033 404.5,-2033 404.5,-2069"/>
<text text-anchor="middle" x="225.88" y="-2046.33" font-family="Times,serif" font-size="14.00">extract_components&lt;ShadowFilteringMethod&gt;</text>
</a>
</g>
</g>
<!-- node_System(47) -->
<g id="node51" class="node">
<title>node_System(47)</title>
<g id="a_node51"><a xlink:title="bevy_render::extract_component::extract_components&lt;bevy_pbr::deferred::PbrDeferredLightingDepthId&gt;">
<polygon fill="lightgrey" stroke="black" points="421.38,-2116 30.38,-2116 30.38,-2080 421.38,-2080 421.38,-2116"/>
<text text-anchor="middle" x="225.88" y="-2093.32" font-family="Times,serif" font-size="14.00">extract_components&lt;PbrDeferredLightingDepthId&gt;</text>
</a>
</g>
</g>
<!-- node_System(48) -->
<g id="node52" class="node">
<title>node_System(48)</title>
<g id="a_node52"><a xlink:title="bevy_pbr::render::light::extract_clusters">
<polygon fill="lightgrey" stroke="black" points="291.25,-2163 160.5,-2163 160.5,-2127 291.25,-2127 291.25,-2163"/>
<text text-anchor="middle" x="225.88" y="-2140.32" font-family="Times,serif" font-size="14.00">extract_clusters</text>
</a>
</g>
</g>
<!-- node_System(49) -->
<g id="node53" class="node">
<title>node_System(49)</title>
<g id="a_node53"><a xlink:title="bevy_pbr::render::light::extract_lights">
<polygon fill="lightgrey" stroke="black" points="283,-2210 168.75,-2210 168.75,-2174 283,-2174 283,-2210"/>
<text text-anchor="middle" x="225.88" y="-2187.32" font-family="Times,serif" font-size="14.00">extract_lights</text>
</a>
</g>
</g>
<!-- node_System(50) -->
<g id="node54" class="node">
<title>node_System(50)</title>
<g id="a_node54"><a xlink:title="bevy_render::render_asset::extract_render_asset&lt;bevy_gizmos::LineGizmo&gt;">
<polygon fill="lightgrey" stroke="black" points="358.75,-2257 93,-2257 93,-2221 358.75,-2221 358.75,-2257"/>
<text text-anchor="middle" x="225.88" y="-2234.32" font-family="Times,serif" font-size="14.00">extract_render_asset&lt;LineGizmo&gt;</text>
</a>
</g>
</g>
<!-- node_System(51) -->
<g id="node55" class="node">
<title>node_System(51)</title>
<g id="a_node55"><a xlink:title="bevy_gizmos::extract_gizmo_data">
<polygon fill="lightgrey" stroke="black" points="303.25,-2304 148.5,-2304 148.5,-2268 303.25,-2268 303.25,-2304"/>
<text text-anchor="middle" x="225.88" y="-2281.32" font-family="Times,serif" font-size="14.00">extract_gizmo_data</text>
</a>
</g>
</g>
</g>
</svg>
