<?xml version="1.0" encoding="UTF-8" standalone="no"?>
<!DOCTYPE svg PUBLIC "-//W3C//DTD SVG 1.1//EN"
 "http://www.w3.org/Graphics/SVG/1.1/DTD/svg11.dtd">
<!-- Generated by graphviz version 14.1.5 (0)
 -->
<!-- Pages: 1 -->
<svg width="2756pt" height="409pt"
 viewBox="0.00 0.00 2756.00 409.00" xmlns="http://www.w3.org/2000/svg" xmlns:xlink="http://www.w3.org/1999/xlink">
<g id="graph0" class="graph" transform="scale(1 1) rotate(0) translate(4 404.72)">
<polygon fill="white" stroke="none" points="-4,4 -4,-404.72 2751.5,-404.72 2751.5,4 -4,4"/>
<g id="clust1" class="cluster">
<title>clusternode_Set(SystemSetKey(1v1))</title>
<g id="a_clust1"><a xlink:title="Prepass">
<path fill="#000000" fill-opacity="0.031373" stroke="#000000" stroke-width="2" stroke-opacity="0.250980" d="M569.38,-244C569.38,-244 1897.25,-244 1897.25,-244 1903.25,-244 1909.25,-250 1909.25,-256 1909.25,-256 1909.25,-324 1909.25,-324 1909.25,-330 1903.25,-336 1897.25,-336 1897.25,-336 569.38,-336 569.38,-336 563.38,-336 557.38,-330 557.38,-324 557.38,-324 557.38,-256 557.38,-256 557.38,-250 563.38,-244 569.38,-244"/>
<text xml:space="preserve" text-anchor="middle" x="1233.31" y="-318.7" font-family="Helvetica,sans-Serif" font-size="14.00" fill="#000000">Prepass</text>
</a>
</g>
</g>
<g id="clust2" class="cluster">
<title>clusternode_Set(SystemSetKey(2v1))</title>
<g id="a_clust2"><a xlink:title="MainPass">
<path fill="#000000" fill-opacity="0.031373" stroke="#000000" stroke-width="2" stroke-opacity="0.250980" d="M1220.88,-44C1220.88,-44 2526.88,-44 2526.88,-44 2532.88,-44 2538.88,-50 2538.88,-56 2538.88,-56 2538.88,-124 2538.88,-124 2538.88,-130 2532.88,-136 2526.88,-136 2526.88,-136 1220.88,-136 1220.88,-136 1214.88,-136 1208.88,-130 1208.88,-124 1208.88,-124 1208.88,-56 1208.88,-56 1208.88,-50 1214.88,-44 1220.88,-44"/>
<text xml:space="preserve" text-anchor="middle" x="1873.88" y="-118.7" font-family="Helvetica,sans-Serif" font-size="14.00" fill="#000000">MainPass</text>
</a>
</g>
</g>
<g id="clust3" class="cluster">
<title>clusternode_Set(SystemSetKey(3v1))</title>
<g id="a_clust3"><a xlink:title="EarlyPostProcess">
<path fill="#000000" fill-opacity="0.031373" stroke="#000000" stroke-width="2" stroke-opacity="0.250980" d="M1734,-144C1734,-144 1875.5,-144 1875.5,-144 1881.5,-144 1887.5,-150 1887.5,-156 1887.5,-156 1887.5,-224 1887.5,-224 1887.5,-230 1881.5,-236 1875.5,-236 1875.5,-236 1734,-236 1734,-236 1728,-236 1722,-230 1722,-224 1722,-224 1722,-156 1722,-156 1722,-150 1728,-144 1734,-144"/>
<text xml:space="preserve" text-anchor="middle" x="1804.75" y="-218.7" font-family="Helvetica,sans-Serif" font-size="14.00" fill="#000000">EarlyPostProcess</text>
</a>
</g>
</g>
<g id="clust4" class="cluster">
<title>clusternode_Set(SystemSetKey(4v1))</title>
<g id="a_clust4"><a xlink:title="PostProcess">
<path fill="#000000" fill-opacity="0.031373" stroke="#000000" stroke-width="2" stroke-opacity="0.250980" d="M1954.38,-144C1954.38,-144 2727.5,-144 2727.5,-144 2733.5,-144 2739.5,-150 2739.5,-156 2739.5,-156 2739.5,-271 2739.5,-271 2739.5,-277 2733.5,-283 2727.5,-283 2727.5,-283 1954.38,-283 1954.38,-283 1948.38,-283 1942.38,-277 1942.38,-271 1942.38,-271 1942.38,-156 1942.38,-156 1942.38,-150 1948.38,-144 1954.38,-144"/>
<text xml:space="preserve" text-anchor="middle" x="2340.94" y="-265.7" font-family="Helvetica,sans-Serif" font-size="14.00" fill="#000000">PostProcess</text>
</a>
</g>
</g>
<!-- set_marker_node_Set(SystemSetKey(1v1)) -->
<!-- set_marker_node_Set(SystemSetKey(2v1)) -->
<!-- set_marker_node_Set(SystemSetKey(1v1))&#45;&gt;set_marker_node_Set(SystemSetKey(2v1)) -->
<g id="edge2" class="edge">
<title>set_marker_node_Set(SystemSetKey(1v1))&#45;&gt;set_marker_node_Set(SystemSetKey(2v1))</title>
<g id="a_edge2"><a xlink:title="Prepass → MainPass">
<path fill="none" stroke="#881877" stroke-width="2" d="M822.16,-244C934.66,-237.6 1057.62,-229.02 1083,-221 1136.06,-204.22 1189.77,-170.83 1228.11,-143.52"/>
<polygon fill="#881877" stroke="#881877" stroke-width="2" points="1230.01,-146.47 1236.05,-137.77 1225.9,-140.8 1230.01,-146.47"/>
</a>
</g>
</g>
<!-- node_System(SystemKey(1v1)) -->
<g id="node2" class="node">
<title>node_System(SystemKey(1v1))</title>
<g id="a_node2"><a xlink:title="bevy_core_pipeline::prepass::node::early_prepass">
<polygon fill="#eff1f3" stroke="#b4bec7" points="677.38,-303 565.38,-303 565.38,-267 677.38,-267 677.38,-303"/>
<text xml:space="preserve" text-anchor="middle" x="621.38" y="-280.32" font-family="Helvetica,sans-Serif" font-size="14.00" fill="#15191d">early_prepass</text>
</a>
</g>
</g>
<!-- node_System(SystemKey(2v1)) -->
<g id="node3" class="node">
<title>node_System(SystemKey(2v1))</title>
<g id="a_node3"><a xlink:title="bevy_core_pipeline::deferred::node::early_deferred_prepass">
<polygon fill="#eff1f3" stroke="#b4bec7" points="1054.88,-288 877.62,-288 877.62,-252 1054.88,-252 1054.88,-288"/>
<text xml:space="preserve" text-anchor="middle" x="966.25" y="-265.32" font-family="Helvetica,sans-Serif" font-size="14.00" fill="#15191d">early_deferred_prepass</text>
</a>
</g>
</g>
<!-- node_System(SystemKey(1v1))&#45;&gt;node_System(SystemKey(2v1)) -->
<g id="edge26" class="edge">
<title>node_System(SystemKey(1v1))&#45;&gt;node_System(SystemKey(2v1))</title>
<g id="a_edge26"><a xlink:title="early_prepass → early_deferred_prepass">
<path fill="none" stroke="#aa3a55" stroke-width="2" d="M677.84,-282.57C728.19,-280.37 803.64,-277.07 864.61,-274.4"/>
<polygon fill="#aa3a55" stroke="#aa3a55" stroke-width="2" points="864.52,-277.91 874.36,-273.98 864.22,-270.92 864.52,-277.91"/>
</a>
</g>
</g>
<!-- node_System(SystemKey(3v1)) -->
<g id="node4" class="node">
<title>node_System(SystemKey(3v1))</title>
<g id="a_node4"><a xlink:title="bevy_core_pipeline::prepass::node::late_prepass">
<polygon fill="#eff1f3" stroke="#b4bec7" points="1335.25,-288 1232.25,-288 1232.25,-252 1335.25,-252 1335.25,-288"/>
<text xml:space="preserve" text-anchor="middle" x="1283.75" y="-265.32" font-family="Helvetica,sans-Serif" font-size="14.00" fill="#15191d">late_prepass</text>
</a>
</g>
</g>
<!-- node_System(SystemKey(2v1))&#45;&gt;node_System(SystemKey(3v1)) -->
<g id="edge5" class="edge">
<title>node_System(SystemKey(2v1))&#45;&gt;node_System(SystemKey(3v1))</title>
<g id="a_edge5"><a xlink:title="early_deferred_prepass → late_prepass">
<path fill="none" stroke="#44d488" stroke-width="2" d="M1055.13,-270C1107.3,-270 1172.24,-270 1219.39,-270"/>
<polygon fill="#44d488" stroke="#44d488" stroke-width="2" points="1219.16,-273.5 1229.16,-270 1219.16,-266.5 1219.16,-273.5"/>
</a>
</g>
</g>
<!-- node_System(SystemKey(11v1)) -->
<g id="node25" class="node">
<title>node_System(SystemKey(11v1))</title>
<g id="a_node25"><a xlink:title="bevy_core_pipeline::mip_generation::experimental::depth::early_downsample_depth">
<polygon fill="lightgrey" stroke="black" points="1064.25,-215 868.25,-215 868.25,-179 1064.25,-179 1064.25,-215"/>
<text xml:space="preserve" text-anchor="middle" x="966.25" y="-192.32" font-family="Times,serif" font-size="14.00">early_downsample_depth</text>
</a>
</g>
</g>
<!-- node_System(SystemKey(2v1))&#45;&gt;node_System(SystemKey(11v1)) -->
<g id="edge1" class="edge">
<title>node_System(SystemKey(2v1))&#45;&gt;node_System(SystemKey(11v1))</title>
<g id="a_edge1"><a xlink:title="SystemTypeSet:bevy_core_pipeline::deferred::node::early_deferred_prepass → early_downsample_depth">
<path fill="none" stroke="#eede00" stroke-width="2" d="M966.25,-251.61C966.25,-243.75 966.25,-235.89 966.25,-228.03"/>
<polygon fill="#eede00" stroke="#eede00" stroke-width="2" points="969.75,-228.28 966.25,-218.28 962.75,-228.28 969.75,-228.28"/>
</a>
</g>
</g>
<!-- node_System(SystemKey(4v1)) -->
<g id="node5" class="node">
<title>node_System(SystemKey(4v1))</title>
<g id="a_node5"><a xlink:title="bevy_core_pipeline::deferred::node::late_deferred_prepass">
<polygon fill="#eff1f3" stroke="#b4bec7" points="1662.5,-288 1494.25,-288 1494.25,-252 1662.5,-252 1662.5,-288"/>
<text xml:space="preserve" text-anchor="middle" x="1578.38" y="-265.32" font-family="Helvetica,sans-Serif" font-size="14.00" fill="#15191d">late_deferred_prepass</text>
</a>
</g>
</g>
<!-- node_System(SystemKey(3v1))&#45;&gt;node_System(SystemKey(4v1)) -->
<g id="edge12" class="edge">
<title>node_System(SystemKey(3v1))&#45;&gt;node_System(SystemKey(4v1))</title>
<g id="a_edge12"><a xlink:title="late_prepass → late_deferred_prepass">
<path fill="none" stroke="#eede00" stroke-width="2" d="M1335.72,-270C1375.71,-270 1432.51,-270 1481.01,-270"/>
<polygon fill="#eede00" stroke="#eede00" stroke-width="2" points="1480.76,-273.5 1490.76,-270 1480.76,-266.5 1480.76,-273.5"/>
</a>
</g>
</g>
<!-- node_System(SystemKey(5v1)) -->
<g id="node6" class="node">
<title>node_System(SystemKey(5v1))</title>
<g id="a_node6"><a xlink:title="bevy_core_pipeline::deferred::copy_lighting_id::copy_deferred_lighting_id">
<polygon fill="#eff1f3" stroke="#b4bec7" points="1901.25,-288 1708.25,-288 1708.25,-252 1901.25,-252 1901.25,-288"/>
<text xml:space="preserve" text-anchor="middle" x="1804.75" y="-265.32" font-family="Helvetica,sans-Serif" font-size="14.00" fill="#15191d">copy_deferred_lighting_id</text>
</a>
</g>
</g>
<!-- node_System(SystemKey(4v1))&#45;&gt;node_System(SystemKey(5v1)) -->
<g id="edge19" class="edge">
<title>node_System(SystemKey(4v1))&#45;&gt;node_System(SystemKey(5v1))</title>
<g id="a_edge19"><a xlink:title="late_deferred_prepass → copy_deferred_lighting_id">
<path fill="none" stroke="#663699" stroke-width="2" d="M1662.92,-270C1673.49,-270 1684.42,-270 1695.31,-270"/>
<polygon fill="#663699" stroke="#663699" stroke-width="2" points="1695.01,-273.5 1705.01,-270 1695.01,-266.5 1695.01,-273.5"/>
</a>
</g>
</g>
<!-- node_System(SystemKey(23v1)) -->
<g id="node30" class="node">
<title>node_System(SystemKey(23v1))</title>
<g id="a_node30"><a xlink:title="bevy_pbr::volumetric_fog::render::volumetric_fog">
<polygon fill="lightgrey" stroke="black" points="1639.25,-180 1517.5,-180 1517.5,-144 1639.25,-144 1639.25,-180"/>
<text xml:space="preserve" text-anchor="middle" x="1578.38" y="-157.32" font-family="Times,serif" font-size="14.00">volumetric_fog</text>
</a>
</g>
</g>
<!-- set_marker_node_Set(SystemSetKey(2v1))&#45;&gt;node_System(SystemKey(23v1)) -->
<g id="edge35" class="edge">
<title>set_marker_node_Set(SystemSetKey(2v1))&#45;&gt;node_System(SystemKey(23v1))</title>
<g id="a_edge35"><a xlink:title="MainPass → volumetric_fog">
<path fill="none" stroke="#881877" stroke-width="2" d="M1452.64,-136C1470.76,-139.78 1488.43,-143.46 1504.51,-146.81"/>
<polygon fill="#881877" stroke="#881877" stroke-width="2" points="1503.59,-150.2 1514.1,-148.81 1505.02,-143.34 1503.59,-150.2"/>
</a>
</g>
</g>
<!-- node_System(SystemKey(6v1)) -->
<g id="node8" class="node">
<title>node_System(SystemKey(6v1))</title>
<g id="a_node8"><a xlink:title="bevy_core_pipeline::core_3d::main_opaque_pass_3d_node::main_opaque_pass_3d">
<polygon fill="#eff1f3" stroke="#b4bec7" points="1891.12,-95 1718.38,-95 1718.38,-59 1891.12,-59 1891.12,-95"/>
<text xml:space="preserve" text-anchor="middle" x="1804.75" y="-72.33" font-family="Helvetica,sans-Serif" font-size="14.00" fill="#15191d">main_opaque_pass_3d</text>
</a>
</g>
</g>
<!-- node_System(SystemKey(7v1)) -->
<g id="node9" class="node">
<title>node_System(SystemKey(7v1))</title>
<g id="a_node9"><a xlink:title="bevy_core_pipeline::core_3d::main_transparent_pass_3d_node::main_transparent_pass_3d">
<polygon fill="#eff1f3" stroke="#b4bec7" points="2384.75,-95 2182.75,-95 2182.75,-59 2384.75,-59 2384.75,-95"/>
<text xml:space="preserve" text-anchor="middle" x="2283.75" y="-72.33" font-family="Helvetica,sans-Serif" font-size="14.00" fill="#15191d">main_transparent_pass_3d</text>
</a>
</g>
</g>
<!-- node_System(SystemKey(6v1))&#45;&gt;node_System(SystemKey(7v1)) -->
<g id="edge24" class="edge">
<title>node_System(SystemKey(6v1))&#45;&gt;node_System(SystemKey(7v1))</title>
<g id="a_edge24"><a xlink:title="main_opaque_pass_3d → main_transparent_pass_3d">
<path fill="none" stroke="#881877" stroke-width="2" d="M1891.54,-89.71C1906.73,-91.49 1922.43,-93.05 1937.25,-94 2030.17,-99.98 2053.82,-99.79 2146.75,-94 2154.3,-93.53 2162.06,-92.92 2169.88,-92.2"/>
<polygon fill="#881877" stroke="#881877" stroke-width="2" points="2169.99,-95.7 2179.6,-91.24 2169.31,-88.74 2169.99,-95.7"/>
</a>
</g>
</g>
<!-- node_System(SystemKey(25v1)) -->
<g id="node12" class="node">
<title>node_System(SystemKey(25v1))</title>
<g id="a_node12"><a xlink:title="bevy_pbr::transmission::node::main_transmissive_pass_3d">
<polygon fill="#abd5fc" stroke="#48a3f8" points="2146.75,-88 1937.25,-88 1937.25,-52 2146.75,-52 2146.75,-88"/>
<text xml:space="preserve" text-anchor="middle" x="2042" y="-65.33" font-family="Helvetica,sans-Serif" font-size="14.00" fill="#011a31">main_transmissive_pass_3d</text>
</a>
</g>
</g>
<!-- node_System(SystemKey(6v1))&#45;&gt;node_System(SystemKey(25v1)) -->
<g id="edge28" class="edge">
<title>node_System(SystemKey(6v1))&#45;&gt;node_System(SystemKey(25v1))</title>
<g id="a_edge28"><a xlink:title="SystemTypeSet:bevy_core_pipeline::core_3d::main_opaque_pass_3d_node::main_opaque_pass_3d → main_transmissive_pass_3d">
<path fill="none" stroke="#0090cc" stroke-width="2" d="M1891.35,-74.45C1902.02,-74.14 1913.07,-73.81 1924.11,-73.48"/>
<polygon fill="#0090cc" stroke="#0090cc" stroke-width="2" points="1924.13,-76.98 1934.02,-73.18 1923.92,-69.98 1924.13,-76.98"/>
</a>
</g>
</g>
<!-- node_System(SystemKey(10v1)) -->
<g id="node10" class="node">
<title>node_System(SystemKey(10v1))</title>
<g id="a_node10"><a xlink:title="bevy_core_pipeline::oit::resolve::node::oit_resolve">
<polygon fill="#eff1f3" stroke="#b4bec7" points="2530.88,-95 2441.38,-95 2441.38,-59 2530.88,-59 2530.88,-95"/>
<text xml:space="preserve" text-anchor="middle" x="2486.12" y="-72.33" font-family="Helvetica,sans-Serif" font-size="14.00" fill="#15191d">oit_resolve</text>
</a>
</g>
</g>
<!-- node_System(SystemKey(7v1))&#45;&gt;node_System(SystemKey(10v1)) -->
<g id="edge38" class="edge">
<title>node_System(SystemKey(7v1))&#45;&gt;node_System(SystemKey(10v1))</title>
<g id="a_edge38"><a xlink:title="SystemTypeSet:bevy_core_pipeline::core_3d::main_transparent_pass_3d_node::main_transparent_pass_3d → oit_resolve">
<path fill="none" stroke="#44d488" stroke-width="2" d="M2385.23,-77C2400.02,-77 2414.81,-77 2428.3,-77"/>
<polygon fill="#44d488" stroke="#44d488" stroke-width="2" points="2428.27,-80.5 2438.27,-77 2428.27,-73.5 2428.27,-80.5"/>
</a>
</g>
</g>
<!-- node_System(SystemKey(24v1)) -->
<g id="node11" class="node">
<title>node_System(SystemKey(24v1))</title>
<g id="a_node11"><a xlink:title="bevy_pbr::ssr::screen_space_reflections">
<polygon fill="#abd5fc" stroke="#48a3f8" points="1672.25,-102 1484.5,-102 1484.5,-66 1672.25,-66 1672.25,-102"/>
<text xml:space="preserve" text-anchor="middle" x="1578.38" y="-79.33" font-family="Helvetica,sans-Serif" font-size="14.00" fill="#011a31">screen_space_reflections</text>
</a>
</g>
</g>
<!-- node_System(SystemKey(24v1))&#45;&gt;node_System(SystemKey(6v1)) -->
<g id="edge27" class="edge">
<title>node_System(SystemKey(24v1))&#45;&gt;node_System(SystemKey(6v1))</title>
<g id="a_edge27"><a xlink:title="screen_space_reflections → SystemTypeSet:bevy_core_pipeline::core_3d::main_opaque_pass_3d_node::main_opaque_pass_3d">
<path fill="none" stroke="#44d488" stroke-width="2" d="M1672.58,-81.09C1683.4,-80.75 1694.46,-80.41 1705.34,-80.07"/>
<polygon fill="#44d488" stroke="#44d488" stroke-width="2" points="1705.1,-83.58 1714.99,-79.77 1704.88,-76.58 1705.1,-83.58"/>
</a>
</g>
</g>
<!-- node_System(SystemKey(25v1))&#45;&gt;node_System(SystemKey(7v1)) -->
<g id="edge6" class="edge">
<title>node_System(SystemKey(25v1))&#45;&gt;node_System(SystemKey(7v1))</title>
<g id="a_edge6"><a xlink:title="main_transmissive_pass_3d → SystemTypeSet:bevy_core_pipeline::core_3d::main_transparent_pass_3d_node::main_transparent_pass_3d">
<path fill="none" stroke="#0090cc" stroke-width="2" d="M2147.11,-73.04C2154.55,-73.26 2162.07,-73.48 2169.55,-73.69"/>
<polygon fill="#0090cc" stroke="#0090cc" stroke-width="2" points="2169.4,-77.19 2179.5,-73.99 2169.6,-70.19 2169.4,-77.19"/>
</a>
</g>
</g>
<!-- node_System(SystemKey(26v1)) -->
<g id="node13" class="node">
<title>node_System(SystemKey(26v1))</title>
<g id="a_node13"><a xlink:title="bevy_pbr::deferred::deferred_lighting">
<polygon fill="#abd5fc" stroke="#48a3f8" points="1350.62,-88 1216.88,-88 1216.88,-52 1350.62,-52 1350.62,-88"/>
<text xml:space="preserve" text-anchor="middle" x="1283.75" y="-65.33" font-family="Helvetica,sans-Serif" font-size="14.00" fill="#011a31">deferred_lighting</text>
</a>
</g>
</g>
<!-- node_System(SystemKey(26v1))&#45;&gt;node_System(SystemKey(6v1)) -->
<g id="edge23" class="edge">
<title>node_System(SystemKey(26v1))&#45;&gt;node_System(SystemKey(6v1))</title>
<g id="a_edge23"><a xlink:title="deferred_lighting → SystemTypeSet:bevy_core_pipeline::core_3d::main_opaque_pass_3d_node::main_opaque_pass_3d">
<path fill="none" stroke="#eede00" stroke-width="2" d="M1350.98,-65.09C1428.18,-60.16 1559.57,-54.17 1672.25,-61 1682.89,-61.65 1693.99,-62.58 1705.04,-63.68"/>
<polygon fill="#eede00" stroke="#eede00" stroke-width="2" points="1704.62,-67.16 1714.93,-64.72 1705.35,-60.2 1704.62,-67.16"/>
</a>
</g>
</g>
<!-- node_System(SystemKey(26v1))&#45;&gt;node_System(SystemKey(24v1)) -->
<g id="edge15" class="edge">
<title>node_System(SystemKey(26v1))&#45;&gt;node_System(SystemKey(24v1))</title>
<g id="a_edge15"><a xlink:title="SystemTypeSet:bevy_pbr::deferred::deferred_lighting → screen_space_reflections">
<path fill="none" stroke="#aa3a55" stroke-width="2" d="M1350.79,-73.16C1386.3,-74.86 1430.96,-77 1471.22,-78.92"/>
<polygon fill="#aa3a55" stroke="#aa3a55" stroke-width="2" points="1470.94,-82.41 1481.1,-79.39 1471.28,-75.42 1470.94,-82.41"/>
</a>
</g>
</g>
<!-- set_marker_node_Set(SystemSetKey(3v1)) -->
<!-- set_marker_node_Set(SystemSetKey(4v1)) -->
<!-- set_marker_node_Set(SystemSetKey(3v1))&#45;&gt;set_marker_node_Set(SystemSetKey(4v1)) -->
<g id="edge22" class="edge">
<title>set_marker_node_Set(SystemSetKey(3v1))&#45;&gt;set_marker_node_Set(SystemSetKey(4v1))</title>
<g id="a_edge22"><a xlink:title="EarlyPostProcess → PostProcess">
<path fill="none" stroke="#99d955" stroke-width="2" d="M1887.5,-151.25C1895.34,-153.58 1902.77,-157.03 1909.25,-162 1935.59,-182.17 1913.68,-211.22 1933.16,-235.69"/>
<polygon fill="#99d955" stroke="#99d955" stroke-width="2" points="1930.53,-238.02 1940.18,-242.38 1935.36,-232.95 1930.53,-238.02"/>
</a>
</g>
</g>
<!-- node_System(SystemKey(20v1)) -->
<g id="node15" class="node">
<title>node_System(SystemKey(20v1))</title>
<g id="a_node15"><a xlink:title="bevy_anti_alias::taa::temporal_anti_alias">
<polygon fill="#eff1f3" stroke="#b4bec7" points="1879.5,-203 1730,-203 1730,-167 1879.5,-167 1879.5,-203"/>
<text xml:space="preserve" text-anchor="middle" x="1804.75" y="-180.32" font-family="Helvetica,sans-Serif" font-size="14.00" fill="#15191d">temporal_anti_alias</text>
</a>
</g>
</g>
<!-- node_System(SystemKey(9v1)) -->
<g id="node24" class="node">
<title>node_System(SystemKey(9v1))</title>
<g id="a_node24"><a xlink:title="bevy_core_pipeline::upscaling::node::upscaling">
<polygon fill="lightgrey" stroke="black" points="2528.25,-391 2444,-391 2444,-355 2528.25,-355 2528.25,-391"/>
<text xml:space="preserve" text-anchor="middle" x="2486.12" y="-368.32" font-family="Times,serif" font-size="14.00">upscaling</text>
</a>
</g>
</g>
<!-- set_marker_node_Set(SystemSetKey(4v1))&#45;&gt;node_System(SystemKey(9v1)) -->
<g id="edge29" class="edge">
<title>set_marker_node_Set(SystemSetKey(4v1))&#45;&gt;node_System(SystemKey(9v1))</title>
<g id="a_edge29"><a xlink:title="PostProcess → upscaling">
<path fill="none" stroke="#ee9e44" stroke-width="2" d="M2067.48,-283C2092.3,-315.12 2133.92,-360.59 2182.75,-380 2264.52,-412.51 2368.81,-399.46 2431.09,-386.56"/>
<polygon fill="#ee9e44" stroke="#ee9e44" stroke-width="2" points="2431.73,-390.01 2440.76,-384.47 2430.25,-383.17 2431.73,-390.01"/>
</a>
</g>
</g>
<!-- node_System(SystemKey(22v1)) -->
<g id="node29" class="node">
<title>node_System(SystemKey(22v1))</title>
<g id="a_node29"><a xlink:title="bevy_ui_render::render_pass::ui_pass">
<polygon fill="lightgrey" stroke="black" points="2318,-374 2249.5,-374 2249.5,-338 2318,-338 2318,-374"/>
<text xml:space="preserve" text-anchor="middle" x="2283.75" y="-351.32" font-family="Times,serif" font-size="14.00">ui_pass</text>
</a>
</g>
</g>
<!-- set_marker_node_Set(SystemSetKey(4v1))&#45;&gt;node_System(SystemKey(22v1)) -->
<g id="edge42" class="edge">
<title>set_marker_node_Set(SystemSetKey(4v1))&#45;&gt;node_System(SystemKey(22v1))</title>
<g id="a_edge42"><a xlink:title="PostProcess → ui_pass">
<path fill="none" stroke="#3363bb" stroke-width="2" d="M2091.76,-283C2117.72,-300.21 2150.8,-320.01 2182.75,-333 2199.71,-339.9 2219.18,-344.97 2236.4,-348.56"/>
<polygon fill="#3363bb" stroke="#3363bb" stroke-width="2" points="2235.6,-351.97 2246.08,-350.45 2236.94,-345.1 2235.6,-351.97"/>
</a>
</g>
</g>
<!-- node_System(SystemKey(8v1)) -->
<g id="node17" class="node">
<title>node_System(SystemKey(8v1))</title>
<g id="a_node17"><a xlink:title="bevy_core_pipeline::tonemapping::node::tonemapping">
<polygon fill="#eff1f3" stroke="#b4bec7" points="2540.25,-250 2432,-250 2432,-214 2540.25,-214 2540.25,-250"/>
<text xml:space="preserve" text-anchor="middle" x="2486.12" y="-227.32" font-family="Helvetica,sans-Serif" font-size="14.00" fill="#15191d">tonemapping</text>
</a>
</g>
</g>
<!-- node_System(SystemKey(18v1)) -->
<g id="node21" class="node">
<title>node_System(SystemKey(18v1))</title>
<g id="a_node21"><a xlink:title="bevy_anti_alias::fxaa::node::fxaa">
<polygon fill="#eff1f3" stroke="#b4bec7" points="2641.5,-203 2587.5,-203 2587.5,-167 2641.5,-167 2641.5,-203"/>
<text xml:space="preserve" text-anchor="middle" x="2614.5" y="-180.32" font-family="Helvetica,sans-Serif" font-size="14.00" fill="#15191d">fxaa</text>
</a>
</g>
</g>
<!-- node_System(SystemKey(8v1))&#45;&gt;node_System(SystemKey(18v1)) -->
<g id="edge3" class="edge">
<title>node_System(SystemKey(8v1))&#45;&gt;node_System(SystemKey(18v1))</title>
<g id="a_edge3"><a xlink:title="SystemTypeSet:bevy_core_pipeline::tonemapping::node::tonemapping → fxaa">
<path fill="none" stroke="#00b0cc" stroke-width="2" d="M2536.71,-213.56C2549.54,-208.79 2563.16,-203.72 2575.3,-199.21"/>
<polygon fill="#00b0cc" stroke="#00b0cc" stroke-width="2" points="2576.35,-202.55 2584.5,-195.79 2573.91,-195.99 2576.35,-202.55"/>
</a>
</g>
</g>
<!-- node_System(SystemKey(19v1)) -->
<g id="node22" class="node">
<title>node_System(SystemKey(19v1))</title>
<g id="a_node22"><a xlink:title="bevy_anti_alias::smaa::smaa">
<polygon fill="#eff1f3" stroke="#b4bec7" points="2641.5,-250 2587.5,-250 2587.5,-214 2641.5,-214 2641.5,-250"/>
<text xml:space="preserve" text-anchor="middle" x="2614.5" y="-227.32" font-family="Helvetica,sans-Serif" font-size="14.00" fill="#15191d">smaa</text>
</a>
</g>
</g>
<!-- node_System(SystemKey(8v1))&#45;&gt;node_System(SystemKey(19v1)) -->
<g id="edge4" class="edge">
<title>node_System(SystemKey(8v1))&#45;&gt;node_System(SystemKey(19v1))</title>
<g id="a_edge4"><a xlink:title="SystemTypeSet:bevy_core_pipeline::tonemapping::node::tonemapping → smaa">
<path fill="none" stroke="#aa3a55" stroke-width="2" d="M2540.72,-232C2551.98,-232 2563.65,-232 2574.27,-232"/>
<polygon fill="#aa3a55" stroke="#aa3a55" stroke-width="2" points="2574.01,-235.5 2584.01,-232 2574.01,-228.5 2574.01,-235.5"/>
</a>
</g>
</g>
<!-- node_System(SystemKey(12v1)) -->
<g id="node18" class="node">
<title>node_System(SystemKey(12v1))</title>
<g id="a_node18"><a xlink:title="bevy_core_pipeline::mip_generation::experimental::depth::late_downsample_depth">
<polygon fill="#eff1f3" stroke="#b4bec7" points="2133.62,-235 1950.38,-235 1950.38,-199 2133.62,-199 2133.62,-235"/>
<text xml:space="preserve" text-anchor="middle" x="2042" y="-212.32" font-family="Helvetica,sans-Serif" font-size="14.00" fill="#15191d">late_downsample_depth</text>
</a>
</g>
</g>
<!-- node_System(SystemKey(14v1)) -->
<g id="node19" class="node">
<title>node_System(SystemKey(14v1))</title>
<g id="a_node19"><a xlink:title="bevy_post_process::bloom::bloom">
<polygon fill="#eff1f3" stroke="#b4bec7" points="2313.12,-250 2254.38,-250 2254.38,-214 2313.12,-214 2313.12,-250"/>
<text xml:space="preserve" text-anchor="middle" x="2283.75" y="-227.32" font-family="Helvetica,sans-Serif" font-size="14.00" fill="#15191d">bloom</text>
</a>
</g>
</g>
<!-- node_System(SystemKey(14v1))&#45;&gt;node_System(SystemKey(8v1)) -->
<g id="edge21" class="edge">
<title>node_System(SystemKey(14v1))&#45;&gt;node_System(SystemKey(8v1))</title>
<g id="a_edge21"><a xlink:title="bloom → SystemTypeSet:bevy_core_pipeline::tonemapping::node::tonemapping">
<path fill="none" stroke="#22c2bb" stroke-width="2" d="M2313.46,-232C2340.83,-232 2383.05,-232 2418.77,-232"/>
<polygon fill="#22c2bb" stroke="#22c2bb" stroke-width="2" points="2418.57,-235.5 2428.57,-232 2418.57,-228.5 2418.57,-235.5"/>
</a>
</g>
</g>
<!-- node_System(SystemKey(16v1)) -->
<g id="node27" class="node">
<title>node_System(SystemKey(16v1))</title>
<g id="a_node27"><a xlink:title="bevy_post_process::dof::depth_of_field">
<polygon fill="lightgrey" stroke="black" points="2341.25,-327 2226.25,-327 2226.25,-291 2341.25,-291 2341.25,-327"/>
<text xml:space="preserve" text-anchor="middle" x="2283.75" y="-304.32" font-family="Times,serif" font-size="14.00">depth_of_field</text>
</a>
</g>
</g>
<!-- node_System(SystemKey(14v1))&#45;&gt;node_System(SystemKey(16v1)) -->
<g id="edge41" class="edge">
<title>node_System(SystemKey(14v1))&#45;&gt;node_System(SystemKey(16v1))</title>
<g id="a_edge41"><a xlink:title="SystemTypeSet:bevy_post_process::bloom::bloom → depth_of_field">
<path fill="none" stroke="#663699" stroke-width="2" d="M2283.75,-250.35C2283.75,-259.48 2283.75,-268.62 2283.75,-277.76"/>
<polygon fill="#663699" stroke="#663699" stroke-width="2" points="2280.25,-277.64 2283.75,-287.64 2287.25,-277.64 2280.25,-277.64"/>
</a>
</g>
</g>
<!-- node_System(SystemKey(15v1)) -->
<g id="node20" class="node">
<title>node_System(SystemKey(15v1))</title>
<g id="a_node20"><a xlink:title="bevy_post_process::motion_blur::motion_blur">
<polygon fill="#eff1f3" stroke="#b4bec7" points="2091.25,-188 1992.75,-188 1992.75,-152 2091.25,-152 2091.25,-188"/>
<text xml:space="preserve" text-anchor="middle" x="2042" y="-165.32" font-family="Helvetica,sans-Serif" font-size="14.00" fill="#15191d">motion_blur</text>
</a>
</g>
</g>
<!-- node_System(SystemKey(15v1))&#45;&gt;node_System(SystemKey(14v1)) -->
<g id="edge31" class="edge">
<title>node_System(SystemKey(15v1))&#45;&gt;node_System(SystemKey(14v1))</title>
<g id="a_edge31"><a xlink:title="motion_blur → SystemTypeSet:bevy_post_process::bloom::bloom">
<path fill="none" stroke="#3363bb" stroke-width="2" d="M2091.67,-180.78C2109.09,-184.77 2128.84,-189.43 2146.75,-194 2178.7,-202.15 2214.61,-212.23 2241.51,-219.96"/>
<polygon fill="#3363bb" stroke="#3363bb" stroke-width="2" points="2240.45,-223.29 2251.02,-222.7 2242.39,-216.57 2240.45,-223.29"/>
</a>
</g>
</g>
<!-- node_System(SystemKey(21v1)) -->
<g id="node23" class="node">
<title>node_System(SystemKey(21v1))</title>
<g id="a_node23"><a xlink:title="bevy_anti_alias::contrast_adaptive_sharpening::node::cas">
<polygon fill="#eff1f3" stroke="#b4bec7" points="2731.5,-226 2677.5,-226 2677.5,-190 2731.5,-190 2731.5,-226"/>
<text xml:space="preserve" text-anchor="middle" x="2704.5" y="-203.32" font-family="Helvetica,sans-Serif" font-size="14.00" fill="#15191d">cas</text>
</a>
</g>
</g>
<!-- node_System(SystemKey(18v1))&#45;&gt;node_System(SystemKey(21v1)) -->
<g id="edge39" class="edge">
<title>node_System(SystemKey(18v1))&#45;&gt;node_System(SystemKey(21v1))</title>
<g id="a_edge39"><a xlink:title="SystemTypeSet:bevy_anti_alias::fxaa::node::fxaa → cas">
<path fill="none" stroke="#0090cc" stroke-width="2" d="M2641.9,-191.9C2649.04,-193.77 2656.91,-195.82 2664.58,-197.83"/>
<polygon fill="#0090cc" stroke="#0090cc" stroke-width="2" points="2663.63,-201.2 2674.19,-200.34 2665.4,-194.42 2663.63,-201.2"/>
</a>
</g>
</g>
<!-- node_System(SystemKey(19v1))&#45;&gt;node_System(SystemKey(21v1)) -->
<g id="edge40" class="edge">
<title>node_System(SystemKey(19v1))&#45;&gt;node_System(SystemKey(21v1))</title>
<g id="a_edge40"><a xlink:title="SystemTypeSet:bevy_anti_alias::smaa::smaa → cas">
<path fill="none" stroke="#ee9e44" stroke-width="2" d="M2641.9,-224.8C2649.04,-222.85 2656.91,-220.71 2664.58,-218.61"/>
<polygon fill="#ee9e44" stroke="#ee9e44" stroke-width="2" points="2665.47,-222 2674.2,-215.99 2663.63,-215.25 2665.47,-222"/>
</a>
</g>
</g>
<!-- node_System(SystemKey(11v1))&#45;&gt;node_System(SystemKey(3v1)) -->
<g id="edge18" class="edge">
<title>node_System(SystemKey(11v1))&#45;&gt;node_System(SystemKey(3v1))</title>
<g id="a_edge18"><a xlink:title="early_downsample_depth → SystemTypeSet:bevy_core_pipeline::prepass::node::late_prepass">
<path fill="none" stroke="#ee9e44" stroke-width="2" d="M1046.86,-215.42C1100.27,-227.78 1169.65,-243.83 1219.32,-255.32"/>
<polygon fill="#ee9e44" stroke="#ee9e44" stroke-width="2" points="1218.34,-258.69 1228.87,-257.53 1219.92,-251.87 1218.34,-258.69"/>
</a>
</g>
</g>
<!-- node_System(SystemKey(13v1)) -->
<g id="node26" class="node">
<title>node_System(SystemKey(13v1))</title>
<g id="a_node26"><a xlink:title="bevy_post_process::msaa_writeback::msaa_writeback">
<polygon fill="lightgrey" stroke="black" points="1031.62,-166 900.88,-166 900.88,-130 1031.62,-130 1031.62,-166"/>
<text xml:space="preserve" text-anchor="middle" x="966.25" y="-143.32" font-family="Times,serif" font-size="14.00">msaa_writeback</text>
</a>
</g>
</g>
<!-- node_System(SystemKey(13v1))&#45;&gt;set_marker_node_Set(SystemSetKey(2v1)) -->
<g id="edge37" class="edge">
<title>node_System(SystemKey(13v1))&#45;&gt;set_marker_node_Set(SystemSetKey(2v1))</title>
<g id="a_edge37"><a xlink:title="msaa_writeback → MainPass">
<path fill="none" stroke="#aa3a55" stroke-width="2" d="M1031.86,-138.38C1079.34,-131.3 1144.36,-121.62 1196.31,-113.88"/>
<polygon fill="#aa3a55" stroke="#aa3a55" stroke-width="2" points="1196.51,-117.39 1205.89,-112.45 1195.48,-110.46 1196.51,-117.39"/>
</a>
</g>
</g>
<!-- node_System(SystemKey(16v1))&#45;&gt;node_System(SystemKey(8v1)) -->
<g id="edge32" class="edge">
<title>node_System(SystemKey(16v1))&#45;&gt;node_System(SystemKey(8v1))</title>
<g id="a_edge32"><a xlink:title="depth_of_field → SystemTypeSet:bevy_core_pipeline::tonemapping::node::tonemapping">
<path fill="none" stroke="#22c2bb" stroke-width="2" d="M2341.56,-297.97C2355.87,-294.49 2371.05,-290.17 2384.75,-285 2405.02,-277.36 2426.39,-266.5 2444.17,-256.61"/>
<polygon fill="#22c2bb" stroke="#22c2bb" stroke-width="2" points="2445.7,-259.77 2452.67,-251.78 2442.24,-253.68 2445.7,-259.77"/>
</a>
</g>
</g>
<!-- node_System(SystemKey(17v1)) -->
<g id="node28" class="node">
<title>node_System(SystemKey(17v1))</title>
<g id="a_node28"><a xlink:title="bevy_post_process::effect_stack::post_processing">
<polygon fill="lightgrey" stroke="black" points="2551.5,-327 2420.75,-327 2420.75,-291 2551.5,-291 2551.5,-327"/>
<text xml:space="preserve" text-anchor="middle" x="2486.12" y="-304.32" font-family="Times,serif" font-size="14.00">post_processing</text>
</a>
</g>
</g>
<!-- node_System(SystemKey(16v1))&#45;&gt;node_System(SystemKey(17v1)) -->
<g id="edge17" class="edge">
<title>node_System(SystemKey(16v1))&#45;&gt;node_System(SystemKey(17v1))</title>
<g id="a_edge17"><a xlink:title="SystemTypeSet:bevy_post_process::dof::depth_of_field → post_processing">
<path fill="none" stroke="#0090cc" stroke-width="2" d="M2341.63,-309C2362.14,-309 2385.64,-309 2407.61,-309"/>
<polygon fill="#0090cc" stroke="#0090cc" stroke-width="2" points="2407.3,-312.5 2417.3,-309 2407.3,-305.5 2407.3,-312.5"/>
</a>
</g>
</g>
<!-- node_System(SystemKey(17v1))&#45;&gt;node_System(SystemKey(8v1)) -->
<g id="edge33" class="edge">
<title>node_System(SystemKey(17v1))&#45;&gt;node_System(SystemKey(8v1))</title>
<g id="a_edge33"><a xlink:title="post_processing → SystemTypeSet:bevy_core_pipeline::tonemapping::node::tonemapping">
<path fill="none" stroke="#99d955" stroke-width="2" d="M2486.12,-290.67C2486.12,-281.54 2486.12,-272.4 2486.12,-263.26"/>
<polygon fill="#99d955" stroke="#99d955" stroke-width="2" points="2489.63,-263.37 2486.13,-253.37 2482.63,-263.37 2489.63,-263.37"/>
</a>
</g>
</g>
<!-- node_System(SystemKey(22v1))&#45;&gt;node_System(SystemKey(9v1)) -->
<g id="edge43" class="edge">
<title>node_System(SystemKey(22v1))&#45;&gt;node_System(SystemKey(9v1))</title>
<g id="a_edge43"><a xlink:title="ui_pass → SystemTypeSet:bevy_core_pipeline::upscaling::node::upscaling">
<path fill="none" stroke="#22c2bb" stroke-width="2" d="M2318.29,-358.85C2349.05,-361.46 2395.15,-365.37 2431.1,-368.42"/>
<polygon fill="#22c2bb" stroke="#22c2bb" stroke-width="2" points="2430.56,-371.88 2440.82,-369.24 2431.15,-364.91 2430.56,-371.88"/>
</a>
</g>
</g>
<!-- node_System(SystemKey(23v1))&#45;&gt;set_marker_node_Set(SystemSetKey(3v1)) -->
<g id="edge25" class="edge">
<title>node_System(SystemKey(23v1))&#45;&gt;set_marker_node_Set(SystemSetKey(3v1))</title>
<g id="a_edge25"><a xlink:title="volumetric_fog → EarlyPostProcess">
<path fill="none" stroke="#00b0cc" stroke-width="2" d="M1639.5,-159.86C1660.88,-159.09 1685.49,-158.22 1709.05,-157.38"/>
<polygon fill="#00b0cc" stroke="#00b0cc" stroke-width="2" points="1709.11,-160.88 1718.98,-157.02 1708.86,-153.88 1709.11,-160.88"/>
</a>
</g>
</g>
<!-- node_System(SystemKey(27v1)) -->
<g id="node31" class="node">
<title>node_System(SystemKey(27v1))</title>
<g id="a_node31"><a xlink:title="bevy_pbr::render::light::per_view_shadow_pass&lt;false&gt;">
<polygon fill="lightgrey" stroke="black" points="740,-154 502.75,-154 502.75,-118 740,-118 740,-154"/>
<text xml:space="preserve" text-anchor="middle" x="621.38" y="-131.32" font-family="Times,serif" font-size="14.00">per_view_shadow_pass&lt;false&gt;</text>
</a>
</g>
</g>
<!-- node_System(SystemKey(27v1))&#45;&gt;node_System(SystemKey(11v1)) -->
<g id="edge13" class="edge">
<title>node_System(SystemKey(27v1))&#45;&gt;node_System(SystemKey(11v1))</title>
<g id="a_edge13"><a xlink:title="per_view_shadow_pass&lt;false&gt; → SystemTypeSet:bevy_core_pipeline::mip_generation::experimental::depth::early_downsample_depth">
<path fill="none" stroke="#881877" stroke-width="2" d="M740.26,-147.11C764.63,-150.44 790.02,-154.67 813.5,-160 829.95,-163.74 833.23,-167.55 849.5,-172 853.74,-173.16 858.09,-174.3 862.48,-175.42"/>
<polygon fill="#881877" stroke="#881877" stroke-width="2" points="861.49,-178.78 872.03,-177.78 863.16,-171.98 861.49,-178.78"/>
</a>
</g>
</g>
<!-- node_System(SystemKey(28v1)) -->
<g id="node32" class="node">
<title>node_System(SystemKey(28v1))</title>
<g id="a_node32"><a xlink:title="bevy_pbr::render::light::per_view_shadow_pass&lt;true&gt;">
<polygon fill="lightgrey" stroke="black" points="1083,-72 849.5,-72 849.5,-36 1083,-36 1083,-72"/>
<text xml:space="preserve" text-anchor="middle" x="966.25" y="-49.33" font-family="Times,serif" font-size="14.00">per_view_shadow_pass&lt;true&gt;</text>
</a>
</g>
</g>
<!-- node_System(SystemKey(27v1))&#45;&gt;node_System(SystemKey(28v1)) -->
<g id="edge20" class="edge">
<title>node_System(SystemKey(27v1))&#45;&gt;node_System(SystemKey(28v1))</title>
<g id="a_edge20"><a xlink:title="per_view_shadow_pass&lt;false&gt; → SystemTypeSet:bevy_pbr::render::light::per_view_shadow_pass&lt;true&gt;">
<path fill="none" stroke="#3363bb" stroke-width="2" d="M740.36,-121.79C765.02,-116.78 790.51,-110.05 813.5,-101 831.17,-94.05 831.91,-85.16 849.5,-78 850.58,-77.56 851.67,-77.13 852.77,-76.7"/>
<polygon fill="#3363bb" stroke="#3363bb" stroke-width="2" points="853.7,-80.09 861.95,-73.45 851.36,-73.49 853.7,-80.09"/>
</a>
</g>
</g>
<!-- node_System(SystemKey(28v1))&#45;&gt;set_marker_node_Set(SystemSetKey(2v1)) -->
<g id="edge7" class="edge">
<title>node_System(SystemKey(28v1))&#45;&gt;set_marker_node_Set(SystemSetKey(2v1))</title>
<g id="a_edge7"><a xlink:title="per_view_shadow_pass&lt;true&gt; → MainPass">
<path fill="none" stroke="#ee9e44" stroke-width="2" d="M1063.98,-72.43C1070.45,-74.16 1076.85,-76.02 1083,-78 1099.67,-83.36 1101.95,-90 1119,-94 1143.62,-99.78 1170.88,-102.39 1195.98,-103.33"/>
<polygon fill="#ee9e44" stroke="#ee9e44" stroke-width="2" points="1195.76,-106.83 1205.85,-103.6 1195.95,-99.83 1195.76,-106.83"/>
</a>
</g>
</g>
<!-- &lt;missing&gt; main_build_indirect_parameters -->
<g id="node37" class="node">
<title>&lt;missing&gt; main_build_indirect_parameters</title>
<polygon fill="lightgrey" stroke="black" points="1448.5,-36 1119,-36 1119,0 1448.5,0 1448.5,-36"/>
<text xml:space="preserve" text-anchor="middle" x="1283.75" y="-13.32" font-family="Times,serif" font-size="14.00">&lt;missing&gt; main_build_indirect_parameters</text>
</g>
<!-- node_System(SystemKey(28v1))&#45;&gt;&lt;missing&gt; main_build_indirect_parameters -->
<g id="edge16" class="edge">
<title>node_System(SystemKey(28v1))&#45;&gt;&lt;missing&gt; main_build_indirect_parameters</title>
<g id="a_edge16"><a xlink:title="per_view_shadow_pass&lt;true&gt; → SystemTypeSet:bevy_pbr::render::gpu_preprocess::main_build_indirect_parameters">
<path fill="none" stroke="#44d488" stroke-width="2" d="M1083.39,-40.75C1091.5,-39.82 1099.76,-38.88 1108.09,-37.93"/>
<polygon fill="#44d488" stroke="#44d488" stroke-width="2" points="1108.23,-41.44 1117.77,-36.83 1107.43,-34.48 1108.23,-41.44"/>
</a>
</g>
</g>
<!-- node_System(SystemKey(29v1)) -->
<g id="node33" class="node">
<title>node_System(SystemKey(29v1))</title>
<g id="a_node33"><a xlink:title="bevy_pbr::render::light::shared_shadow_pass&lt;false&gt;">
<polygon fill="lightgrey" stroke="black" points="732.5,-201 510.25,-201 510.25,-165 732.5,-165 732.5,-201"/>
<text xml:space="preserve" text-anchor="middle" x="621.38" y="-178.32" font-family="Times,serif" font-size="14.00">shared_shadow_pass&lt;false&gt;</text>
</a>
</g>
</g>
<!-- node_System(SystemKey(29v1))&#45;&gt;node_System(SystemKey(11v1)) -->
<g id="edge9" class="edge">
<title>node_System(SystemKey(29v1))&#45;&gt;node_System(SystemKey(11v1))</title>
<g id="a_edge9"><a xlink:title="shared_shadow_pass&lt;false&gt; → SystemTypeSet:bevy_core_pipeline::mip_generation::experimental::depth::early_downsample_depth">
<path fill="none" stroke="#3363bb" stroke-width="2" d="M732.75,-187.51C771.88,-189.1 815.9,-190.9 855.02,-192.5"/>
<polygon fill="#3363bb" stroke="#3363bb" stroke-width="2" points="854.65,-195.99 864.78,-192.9 854.93,-188.99 854.65,-195.99"/>
</a>
</g>
</g>
<!-- node_System(SystemKey(30v1)) -->
<g id="node34" class="node">
<title>node_System(SystemKey(30v1))</title>
<g id="a_node34"><a xlink:title="bevy_pbr::render::light::shared_shadow_pass&lt;true&gt;">
<polygon fill="lightgrey" stroke="black" points="1075.5,-119 857,-119 857,-83 1075.5,-83 1075.5,-119"/>
<text xml:space="preserve" text-anchor="middle" x="966.25" y="-96.33" font-family="Times,serif" font-size="14.00">shared_shadow_pass&lt;true&gt;</text>
</a>
</g>
</g>
<!-- node_System(SystemKey(29v1))&#45;&gt;node_System(SystemKey(30v1)) -->
<g id="edge10" class="edge">
<title>node_System(SystemKey(29v1))&#45;&gt;node_System(SystemKey(30v1))</title>
<g id="a_edge10"><a xlink:title="shared_shadow_pass&lt;false&gt; → SystemTypeSet:bevy_pbr::render::light::shared_shadow_pass&lt;true&gt;">
<path fill="none" stroke="#22c2bb" stroke-width="2" d="M732.96,-181.94C760.27,-178.41 788.77,-171.81 813.5,-160 833.64,-150.38 829.79,-135.46 849.5,-125 849.62,-124.94 849.74,-124.87 849.86,-124.81"/>
<polygon fill="#22c2bb" stroke="#22c2bb" stroke-width="2" points="851.02,-128.13 858.59,-120.72 848.05,-121.79 851.02,-128.13"/>
</a>
</g>
</g>
<!-- node_System(SystemKey(30v1))&#45;&gt;set_marker_node_Set(SystemSetKey(2v1)) -->
<g id="edge11" class="edge">
<title>node_System(SystemKey(30v1))&#45;&gt;set_marker_node_Set(SystemSetKey(2v1))</title>
<g id="a_edge11"><a xlink:title="shared_shadow_pass&lt;true&gt; → MainPass">
<path fill="none" stroke="#99d955" stroke-width="2" d="M1075.83,-101C1115.1,-101 1158.89,-101 1196.04,-101"/>
<polygon fill="#99d955" stroke="#99d955" stroke-width="2" points="1195.85,-104.5 1205.85,-101 1195.85,-97.5 1195.85,-104.5"/>
</a>
</g>
</g>
<!-- node_System(SystemKey(30v1))&#45;&gt;&lt;missing&gt; main_build_indirect_parameters -->
<g id="edge30" class="edge">
<title>node_System(SystemKey(30v1))&#45;&gt;&lt;missing&gt; main_build_indirect_parameters</title>
<g id="a_edge30"><a xlink:title="shared_shadow_pass&lt;true&gt; → SystemTypeSet:bevy_pbr::render::gpu_preprocess::main_build_indirect_parameters">
<path fill="none" stroke="#663699" stroke-width="2" d="M1073.5,-82.58C1076.75,-81.17 1079.93,-79.64 1083,-78 1102.96,-67.34 1098.78,-52.16 1119,-42 1119.25,-41.88 1119.5,-41.75 1119.75,-41.63"/>
<polygon fill="#663699" stroke="#663699" stroke-width="2" points="1120.82,-44.98 1128.5,-37.69 1117.95,-38.6 1120.82,-44.98"/>
</a>
</g>
</g>
<!-- &lt;missing&gt; early_prepass_build_indirect_parameters -->
<g id="node35" class="node">
<title>&lt;missing&gt; early_prepass_build_indirect_parameters</title>
<polygon fill="lightgrey" stroke="black" points="393.25,-177 0,-177 0,-141 393.25,-141 393.25,-177"/>
<text xml:space="preserve" text-anchor="middle" x="196.62" y="-154.32" font-family="Times,serif" font-size="14.00">&lt;missing&gt; early_prepass_build_indirect_parameters</text>
</g>
<!-- &lt;missing&gt; early_prepass_build_indirect_parameters&#45;&gt;node_System(SystemKey(27v1)) -->
<g id="edge36" class="edge">
<title>&lt;missing&gt; early_prepass_build_indirect_parameters&#45;&gt;node_System(SystemKey(27v1))</title>
<g id="a_edge36"><a xlink:title="SystemTypeSet:bevy_pbr::render::gpu_preprocess::early_prepass_build_indirect_parameters → per_view_shadow_pass&lt;false&gt;">
<path fill="none" stroke="#00b0cc" stroke-width="2" d="M393.53,-148.34C426.04,-146.57 459.03,-144.78 489.42,-143.12"/>
<polygon fill="#00b0cc" stroke="#00b0cc" stroke-width="2" points="489.46,-146.63 499.25,-142.59 489.08,-139.64 489.46,-146.63"/>
</a>
</g>
</g>
<!-- &lt;missing&gt; early_prepass_build_indirect_parameters&#45;&gt;node_System(SystemKey(29v1)) -->
<g id="edge8" class="edge">
<title>&lt;missing&gt; early_prepass_build_indirect_parameters&#45;&gt;node_System(SystemKey(29v1))</title>
<g id="a_edge8"><a xlink:title="SystemTypeSet:bevy_pbr::render::gpu_preprocess::early_prepass_build_indirect_parameters → shared_shadow_pass&lt;false&gt;">
<path fill="none" stroke="#663699" stroke-width="2" d="M393.53,-170.12C428.81,-172.12 464.66,-174.16 497.13,-176"/>
<polygon fill="#663699" stroke="#663699" stroke-width="2" points="496.67,-179.48 506.85,-176.56 497.07,-172.49 496.67,-179.48"/>
</a>
</g>
</g>
<!-- &lt;missing&gt; late_prepass_build_indirect_parameters -->
<g id="node36" class="node">
<title>&lt;missing&gt; late_prepass_build_indirect_parameters</title>
<polygon fill="lightgrey" stroke="black" points="813.5,-95 429.25,-95 429.25,-59 813.5,-59 813.5,-95"/>
<text xml:space="preserve" text-anchor="middle" x="621.38" y="-72.33" font-family="Times,serif" font-size="14.00">&lt;missing&gt; late_prepass_build_indirect_parameters</text>
</g>
<!-- &lt;missing&gt; late_prepass_build_indirect_parameters&#45;&gt;node_System(SystemKey(28v1)) -->
<g id="edge14" class="edge">
<title>&lt;missing&gt; late_prepass_build_indirect_parameters&#45;&gt;node_System(SystemKey(28v1))</title>
<g id="a_edge14"><a xlink:title="SystemTypeSet:bevy_pbr::render::gpu_preprocess::late_prepass_build_indirect_parameters → per_view_shadow_pass&lt;true&gt;">
<path fill="none" stroke="#00b0cc" stroke-width="2" d="M813.86,-64.16C821.43,-63.65 828.95,-63.14 836.36,-62.65"/>
<polygon fill="#00b0cc" stroke="#00b0cc" stroke-width="2" points="836.36,-66.15 846.1,-61.99 835.89,-59.17 836.36,-66.15"/>
</a>
</g>
</g>
<!-- &lt;missing&gt; late_prepass_build_indirect_parameters&#45;&gt;node_System(SystemKey(30v1)) -->
<g id="edge34" class="edge">
<title>&lt;missing&gt; late_prepass_build_indirect_parameters&#45;&gt;node_System(SystemKey(30v1))</title>
<g id="a_edge34"><a xlink:title="SystemTypeSet:bevy_pbr::render::gpu_preprocess::late_prepass_build_indirect_parameters → shared_shadow_pass&lt;true&gt;">
<path fill="none" stroke="#eede00" stroke-width="2" d="M813.86,-90.4C823.99,-91.11 834.03,-91.82 843.83,-92.5"/>
<polygon fill="#eede00" stroke="#eede00" stroke-width="2" points="843.32,-95.97 853.54,-93.18 843.81,-88.99 843.32,-95.97"/>
</a>
</g>
</g>
</g>
</svg>
