<?xml version="1.0" encoding="UTF-8" standalone="no"?>
<!DOCTYPE svg PUBLIC "-//W3C//DTD SVG 1.1//EN"
 "http://www.w3.org/Graphics/SVG/1.1/DTD/svg11.dtd">
<!-- Generated by graphviz version 14.0.0 (0)
 -->
<!-- Pages: 1 -->
<svg width="1256pt" height="481pt"
 viewBox="0.00 0.00 1256.00 481.00" xmlns="http://www.w3.org/2000/svg" xmlns:xlink="http://www.w3.org/1999/xlink">
<g id="graph0" class="graph" transform="scale(1 1) rotate(0) translate(4 477)">
<polygon fill="white" stroke="none" points="-4,4 -4,-477 1251.5,-477 1251.5,4 -4,4"/>
<g id="clust1" class="cluster">
<title>clusternode_Set(SystemSetKey(12v1))</title>
<g id="a_clust1"><a xlink:title="GizmoMeshSystems">
<path fill="#000000" fill-opacity="0.031373" stroke="#000000" stroke-width="2" stroke-opacity="0.250980" d="M446,-55C446,-55 817,-55 817,-55 823,-55 829,-61 829,-67 829,-67 829,-229 829,-229 829,-235 823,-241 817,-241 817,-241 446,-241 446,-241 440,-241 434,-235 434,-229 434,-229 434,-67 434,-67 434,-61 440,-55 446,-55"/>
<text xml:space="preserve" text-anchor="middle" x="631.5" y="-223.7" font-family="Helvetica,sans-Serif" font-size="14.00" fill="#000000">GizmoMeshSystems</text>
</a>
</g>
</g>
<!-- set_marker_node_Set(SystemSetKey(12v1)) -->
<!-- node_System(SystemKey(11v1)) -->
<g id="node2" class="node">
<title>node_System(SystemKey(11v1))</title>
<g id="a_node2"><a xlink:title="bevy_gizmos::update_gizmo_meshes&lt;bevy_gizmos::config::DefaultGizmoConfigGroup&gt;">
<polygon fill="#eff1f3" stroke="#b4bec7" points="821,-114 442,-114 442,-78 821,-78 821,-114"/>
<text xml:space="preserve" text-anchor="middle" x="631.5" y="-91.33" font-family="Helvetica,sans-Serif" font-size="14.00" fill="#15191d">update_gizmo_meshes&lt;DefaultGizmoConfigGroup&gt;</text>
</a>
</g>
</g>
<!-- node_System(SystemKey(13v1)) -->
<g id="node3" class="node">
<title>node_System(SystemKey(13v1))</title>
<g id="a_node3"><a xlink:title="bevy_gizmos::update_gizmo_meshes&lt;bevy_gizmos::aabb::AabbGizmoConfigGroup&gt;">
<polygon fill="#eff1f3" stroke="#b4bec7" points="813.88,-161 449.12,-161 449.12,-125 813.88,-125 813.88,-161"/>
<text xml:space="preserve" text-anchor="middle" x="631.5" y="-138.32" font-family="Helvetica,sans-Serif" font-size="14.00" fill="#15191d">update_gizmo_meshes&lt;AabbGizmoConfigGroup&gt;</text>
</a>
</g>
</g>
<!-- node_System(SystemKey(15v1)) -->
<g id="node4" class="node">
<title>node_System(SystemKey(15v1))</title>
<g id="a_node4"><a xlink:title="bevy_gizmos::update_gizmo_meshes&lt;bevy_gizmos::light::LightGizmoConfigGroup&gt;">
<polygon fill="#eff1f3" stroke="#b4bec7" points="813.12,-208 449.88,-208 449.88,-172 813.12,-172 813.12,-208"/>
<text xml:space="preserve" text-anchor="middle" x="631.5" y="-185.32" font-family="Helvetica,sans-Serif" font-size="14.00" fill="#15191d">update_gizmo_meshes&lt;LightGizmoConfigGroup&gt;</text>
</a>
</g>
</g>
<!-- node_System(SystemKey(1v1)) -->
<g id="node5" class="node">
<title>node_System(SystemKey(1v1))</title>
<g id="a_node5"><a xlink:title="bevy_app::task_pool_plugin::tick_global_task_pools">
<polygon fill="lightgrey" stroke="black" points="289.75,-181 116.25,-181 116.25,-145 289.75,-145 289.75,-181"/>
<text xml:space="preserve" text-anchor="middle" x="203" y="-158.32" font-family="Times,serif" font-size="14.00">tick_global_task_pools</text>
</a>
</g>
</g>
<!-- node_System(SystemKey(2v1)) -->
<g id="node6" class="node">
<title>node_System(SystemKey(2v1))</title>
<g id="a_node6"><a xlink:title="bevy_diagnostic::frame_count_diagnostics_plugin::update_frame_count">
<polygon fill="lightgrey" stroke="black" points="283.38,-235 122.62,-235 122.62,-199 283.38,-199 283.38,-235"/>
<text xml:space="preserve" text-anchor="middle" x="203" y="-212.32" font-family="Times,serif" font-size="14.00">update_frame_count</text>
</a>
</g>
</g>
<!-- node_System(SystemKey(3v1)) -->
<g id="node7" class="node">
<title>node_System(SystemKey(3v1))</title>
<g id="a_node7"><a xlink:title="bevy_winit::system::changed_windows">
<polygon fill="lightgrey" stroke="black" points="275.5,-285 130.5,-285 130.5,-249 275.5,-249 275.5,-285"/>
<text xml:space="preserve" text-anchor="middle" x="203" y="-262.32" font-family="Times,serif" font-size="14.00">changed_windows</text>
</a>
</g>
</g>
<!-- node_System(SystemKey(4v1)) -->
<g id="node8" class="node">
<title>node_System(SystemKey(4v1))</title>
<g id="a_node8"><a xlink:title="bevy_winit::system::changed_cursor_options">
<polygon fill="lightgrey" stroke="black" points="725.38,-285 537.62,-285 537.62,-249 725.38,-249 725.38,-285"/>
<text xml:space="preserve" text-anchor="middle" x="631.5" y="-262.32" font-family="Times,serif" font-size="14.00">changed_cursor_options</text>
</a>
</g>
</g>
<!-- node_System(SystemKey(3v1))&#45;&gt;node_System(SystemKey(4v1)) -->
<g id="edge5" class="edge">
<title>node_System(SystemKey(3v1))&#45;&gt;node_System(SystemKey(4v1))</title>
<g id="a_edge5"><a xlink:title="changed_windows → changed_cursor_options">
<path fill="none" stroke="#44d488" stroke-width="2" d="M275.87,-267C344.01,-267 447.2,-267 524.73,-267"/>
<polygon fill="#44d488" stroke="#44d488" stroke-width="2" points="524.4,-270.5 534.4,-267 524.4,-263.5 524.4,-270.5"/>
</a>
</g>
</g>
<!-- node_System(SystemKey(5v1)) -->
<g id="node9" class="node">
<title>node_System(SystemKey(5v1))</title>
<g id="a_node9"><a xlink:title="bevy_winit::system::despawn_windows">
<polygon fill="lightgrey" stroke="black" points="1005,-285 857,-285 857,-249 1005,-249 1005,-285"/>
<text xml:space="preserve" text-anchor="middle" x="931" y="-262.32" font-family="Times,serif" font-size="14.00">despawn_windows</text>
</a>
</g>
</g>
<!-- node_System(SystemKey(4v1))&#45;&gt;node_System(SystemKey(5v1)) -->
<g id="edge4" class="edge">
<title>node_System(SystemKey(4v1))&#45;&gt;node_System(SystemKey(5v1))</title>
<g id="a_edge4"><a xlink:title="changed_cursor_options → despawn_windows">
<path fill="none" stroke="#aa3a55" stroke-width="2" d="M725.81,-267C763.62,-267 807,-267 844.02,-267"/>
<polygon fill="#aa3a55" stroke="#aa3a55" stroke-width="2" points="843.8,-270.5 853.8,-267 843.8,-263.5 843.8,-270.5"/>
</a>
</g>
</g>
<!-- node_System(SystemKey(6v1)) -->
<g id="node10" class="node">
<title>node_System(SystemKey(6v1))</title>
<g id="a_node10"><a xlink:title="bevy_winit::system::check_keyboard_focus_lost">
<polygon fill="lightgrey" stroke="black" points="1247.5,-285 1041,-285 1041,-249 1247.5,-249 1247.5,-285"/>
<text xml:space="preserve" text-anchor="middle" x="1144.25" y="-262.32" font-family="Times,serif" font-size="14.00">check_keyboard_focus_lost</text>
</a>
</g>
</g>
<!-- node_System(SystemKey(5v1))&#45;&gt;node_System(SystemKey(6v1)) -->
<g id="edge6" class="edge">
<title>node_System(SystemKey(5v1))&#45;&gt;node_System(SystemKey(6v1))</title>
<g id="a_edge6"><a xlink:title="despawn_windows → check_keyboard_focus_lost">
<path fill="none" stroke="#0090cc" stroke-width="2" d="M1005.29,-267C1012.62,-267 1020.18,-267 1027.81,-267"/>
<polygon fill="#0090cc" stroke="#0090cc" stroke-width="2" points="1027.65,-270.5 1037.65,-267 1027.65,-263.5 1027.65,-270.5"/>
</a>
</g>
</g>
<!-- node_System(SystemKey(7v1)) -->
<g id="node11" class="node">
<title>node_System(SystemKey(7v1))</title>
<g id="a_node11"><a xlink:title="bevy_winit::cursor::update_cursors">
<polygon fill="lightgrey" stroke="black" points="265.75,-332 140.25,-332 140.25,-296 265.75,-296 265.75,-332"/>
<text xml:space="preserve" text-anchor="middle" x="203" y="-309.32" font-family="Times,serif" font-size="14.00">update_cursors</text>
</a>
</g>
</g>
<!-- node_System(SystemKey(8v1)) -->
<g id="node12" class="node">
<title>node_System(SystemKey(8v1))</title>
<g id="a_node12"><a xlink:title="bevy_core_pipeline::oit::configure_depth_texture_usages">
<polygon fill="lightgrey" stroke="black" points="326.12,-379 79.88,-379 79.88,-343 326.12,-343 326.12,-379"/>
<text xml:space="preserve" text-anchor="middle" x="203" y="-356.32" font-family="Times,serif" font-size="14.00">configure_depth_texture_usages</text>
</a>
</g>
</g>
<!-- node_System(SystemKey(9v1)) -->
<g id="node13" class="node">
<title>node_System(SystemKey(9v1))</title>
<g id="a_node13"><a xlink:title="bevy_text::pipeline::trim_cosmic_cache">
<polygon fill="lightgrey" stroke="black" points="277.75,-426 128.25,-426 128.25,-390 277.75,-390 277.75,-426"/>
<text xml:space="preserve" text-anchor="middle" x="203" y="-403.32" font-family="Times,serif" font-size="14.00">trim_cosmic_cache</text>
</a>
</g>
</g>
<!-- node_System(SystemKey(10v1)) -->
<g id="node14" class="node">
<title>node_System(SystemKey(10v1))</title>
<g id="a_node14"><a xlink:title="bevy_gizmos::propagate_gizmos&lt;bevy_gizmos::config::DefaultGizmoConfigGroup, bevy_time::fixed::Fixed&gt;">
<polygon fill="lightgrey" stroke="black" points="406,-130 0,-130 0,-94 406,-94 406,-130"/>
<text xml:space="preserve" text-anchor="middle" x="203" y="-107.33" font-family="Times,serif" font-size="14.00">propagate_gizmos&lt;DefaultGizmoConfigGroup, Fixed&gt;</text>
</a>
</g>
</g>
<!-- node_System(SystemKey(10v1))&#45;&gt;set_marker_node_Set(SystemSetKey(12v1)) -->
<g id="edge3" class="edge">
<title>node_System(SystemKey(10v1))&#45;&gt;set_marker_node_Set(SystemSetKey(12v1))</title>
<g id="a_edge3"><a xlink:title="propagate_gizmos&lt;DefaultGizmoConfigGroup, Fixed&gt; → GizmoMeshSystems">
<path fill="none" stroke="#00b0cc" stroke-width="2" d="M390.88,-93.53C396,-92.13 401.05,-90.62 406,-89 414.51,-86.21 417.94,-82.21 422.68,-78.63"/>
<polygon fill="#00b0cc" stroke="#00b0cc" stroke-width="2" points="423.89,-81.93 431.29,-74.35 420.78,-75.66 423.89,-81.93"/>
</a>
</g>
</g>
<!-- node_System(SystemKey(12v1)) -->
<g id="node15" class="node">
<title>node_System(SystemKey(12v1))</title>
<g id="a_node15"><a xlink:title="bevy_gizmos::propagate_gizmos&lt;bevy_gizmos::aabb::AabbGizmoConfigGroup, bevy_time::fixed::Fixed&gt;">
<polygon fill="lightgrey" stroke="black" points="397.75,-83 8.25,-83 8.25,-47 397.75,-47 397.75,-83"/>
<text xml:space="preserve" text-anchor="middle" x="203" y="-60.33" font-family="Times,serif" font-size="14.00">propagate_gizmos&lt;AabbGizmoConfigGroup, Fixed&gt;</text>
</a>
</g>
</g>
<!-- node_System(SystemKey(12v1))&#45;&gt;set_marker_node_Set(SystemSetKey(12v1)) -->
<g id="edge1" class="edge">
<title>node_System(SystemKey(12v1))&#45;&gt;set_marker_node_Set(SystemSetKey(12v1))</title>
<g id="a_edge1"><a xlink:title="propagate_gizmos&lt;AabbGizmoConfigGroup, Fixed&gt; → GizmoMeshSystems">
<path fill="none" stroke="#eede00" stroke-width="2" d="M398.22,-65C405.84,-65 413.5,-65 421.14,-65"/>
<polygon fill="#eede00" stroke="#eede00" stroke-width="2" points="420.98,-68.5 430.98,-65 420.98,-61.5 420.98,-68.5"/>
</a>
</g>
</g>
<!-- node_System(SystemKey(14v1)) -->
<g id="node16" class="node">
<title>node_System(SystemKey(14v1))</title>
<g id="a_node16"><a xlink:title="bevy_gizmos::propagate_gizmos&lt;bevy_gizmos::light::LightGizmoConfigGroup, bevy_time::fixed::Fixed&gt;">
<polygon fill="lightgrey" stroke="black" points="398.5,-36 7.5,-36 7.5,0 398.5,0 398.5,-36"/>
<text xml:space="preserve" text-anchor="middle" x="203" y="-13.32" font-family="Times,serif" font-size="14.00">propagate_gizmos&lt;LightGizmoConfigGroup, Fixed&gt;</text>
</a>
</g>
</g>
<!-- node_System(SystemKey(14v1))&#45;&gt;set_marker_node_Set(SystemSetKey(12v1)) -->
<g id="edge2" class="edge">
<title>node_System(SystemKey(14v1))&#45;&gt;set_marker_node_Set(SystemSetKey(12v1))</title>
<g id="a_edge2"><a xlink:title="propagate_gizmos&lt;LightGizmoConfigGroup, Fixed&gt; → GizmoMeshSystems">
<path fill="none" stroke="#881877" stroke-width="2" d="M371.65,-36.47C424.03,-42.25 480.27,-48.45 526.9,-53.58"/>
<polygon fill="#881877" stroke="#881877" stroke-width="2" points="526.46,-57.06 536.78,-54.67 527.22,-50.1 526.46,-57.06"/>
</a>
</g>
</g>
<!-- node_System(SystemKey(16v1)) -->
<g id="node17" class="node">
<title>node_System(SystemKey(16v1))</title>
<g id="a_node17"><a xlink:title="bevy_picking::input::deactivate_touch_pointers">
<polygon fill="lightgrey" stroke="black" points="304.38,-473 101.62,-473 101.62,-437 304.38,-437 304.38,-473"/>
<text xml:space="preserve" text-anchor="middle" x="203" y="-450.32" font-family="Times,serif" font-size="14.00">deactivate_touch_pointers</text>
</a>
</g>
</g>
</g>
</svg>
