<?xml version="1.0" encoding="UTF-8" standalone="no"?>
<!DOCTYPE svg PUBLIC "-//W3C//DTD SVG 1.1//EN"
 "http://www.w3.org/Graphics/SVG/1.1/DTD/svg11.dtd">
<!-- Generated by graphviz version 8.0.5 (0)
 -->
<!-- Pages: 1 -->
<svg width="553pt" height="279pt"
 viewBox="0.00 0.00 553.00 279.00" xmlns="http://www.w3.org/2000/svg" xmlns:xlink="http://www.w3.org/1999/xlink">
<g id="graph0" class="graph" transform="scale(1 1) rotate(0) translate(4 275)">
<polygon fill="white" stroke="none" points="-4,4 -4,-275 549,-275 549,4 -4,4"/>
<!-- node_System(0) -->
<g id="node1" class="node">
<title>node_System(0)</title>
<g id="a_node1"><a xlink:title="bevy_core::tick_global_task_pools">
<polygon fill="lightgrey" stroke="black" points="268.38,-36 127.12,-36 127.12,0 268.38,0 268.38,-36"/>
<text text-anchor="middle" x="197.75" y="-12.95" font-family="Times,serif" font-size="14.00">tick_global_task_pools</text>
</a>
</g>
</g>
<!-- node_System(1) -->
<g id="node2" class="node">
<title>node_System(1)</title>
<g id="a_node2"><a xlink:title="bevy_core::update_frame_count">
<polygon fill="lightgrey" stroke="black" points="261.62,-83 133.88,-83 133.88,-47 261.62,-47 261.62,-83"/>
<text text-anchor="middle" x="197.75" y="-59.95" font-family="Times,serif" font-size="14.00">update_frame_count</text>
</a>
</g>
</g>
<!-- node_System(2) -->
<g id="node3" class="node">
<title>node_System(2)</title>
<g id="a_node3"><a xlink:title="bevy_hierarchy::valid_parent_check_plugin::check_hierarchy_component_has_valid_parent&lt;bevy_transform::components::global_transform::GlobalTransform&gt;">
<polygon fill="lightgrey" stroke="black" points="389.12,-130 6.38,-130 6.38,-94 389.12,-94 389.12,-130"/>
<text text-anchor="middle" x="197.75" y="-106.95" font-family="Times,serif" font-size="14.00">check_hierarchy_component_has_valid_parent&lt;GlobalTransform&gt;</text>
</a>
</g>
</g>
<!-- node_System(3) -->
<g id="node4" class="node">
<title>node_System(3)</title>
<g id="a_node4"><a xlink:title="bevy_winit::system::changed_window">
<polygon fill="lightgrey" stroke="black" points="253.38,-177 142.12,-177 142.12,-141 253.38,-141 253.38,-177"/>
<text text-anchor="middle" x="197.75" y="-153.95" font-family="Times,serif" font-size="14.00">changed_window</text>
</a>
</g>
</g>
<!-- node_System(4) -->
<g id="node5" class="node">
<title>node_System(4)</title>
<g id="a_node5"><a xlink:title="bevy_winit::system::despawn_window">
<polygon fill="lightgrey" stroke="black" points="545,-177 431.5,-177 431.5,-141 545,-141 545,-177"/>
<text text-anchor="middle" x="488.25" y="-153.95" font-family="Times,serif" font-size="14.00">despawn_window</text>
</a>
</g>
</g>
<!-- node_System(3)&#45;&gt;node_System(4) -->
<g id="edge1" class="edge">
<title>node_System(3)&#45;&gt;node_System(4)</title>
<g id="a_edge1"><a xlink:title="SystemTypeSet(changed_window&quot;) → despawn_window">
<path fill="none" stroke="#eede00" stroke-width="2" d="M253.69,-159C300.47,-159 367.89,-159 418.29,-159"/>
<polygon fill="#eede00" stroke="#eede00" stroke-width="2" points="418.03,-162.5 428.03,-159 418.03,-155.5 418.03,-162.5"/>
</a>
</g>
</g>
<!-- node_System(5) -->
<g id="node6" class="node">
<title>node_System(5)</title>
<g id="a_node6"><a xlink:title="bevy_hierarchy::valid_parent_check_plugin::check_hierarchy_component_has_valid_parent&lt;bevy_render::view::visibility::ComputedVisibility&gt;">
<polygon fill="lightgrey" stroke="black" points="395.5,-224 0,-224 0,-188 395.5,-188 395.5,-224"/>
<text text-anchor="middle" x="197.75" y="-200.95" font-family="Times,serif" font-size="14.00">check_hierarchy_component_has_valid_parent&lt;ComputedVisibility&gt;</text>
</a>
</g>
</g>
<!-- node_System(6) -->
<g id="node7" class="node">
<title>node_System(6)</title>
<g id="a_node7"><a xlink:title="bevy_gizmos::update_gizmo_meshes">
<polygon fill="lightgrey" stroke="black" points="268,-271 127.5,-271 127.5,-235 268,-235 268,-271"/>
<text text-anchor="middle" x="197.75" y="-247.95" font-family="Times,serif" font-size="14.00">update_gizmo_meshes</text>
</a>
</g>
</g>
</g>
</svg>
