<?xml version="1.0" encoding="UTF-8" standalone="no"?>
<!DOCTYPE svg PUBLIC "-//W3C//DTD SVG 1.1//EN"
 "http://www.w3.org/Graphics/SVG/1.1/DTD/svg11.dtd">
<!-- Generated by graphviz version 14.1.1 (0)
 -->
<!-- Pages: 1 -->
<svg width="675pt" height="216pt"
 viewBox="0.00 0.00 675.00 216.00" xmlns="http://www.w3.org/2000/svg" xmlns:xlink="http://www.w3.org/1999/xlink">
<g id="graph0" class="graph" transform="scale(1 1) rotate(0) translate(4 212)">
<polygon fill="white" stroke="none" points="-4,4 -4,-212 671.25,-212 671.25,4 -4,4"/>
<g id="clust1" class="cluster">
<title>clusternode_Set(SystemSetKey(2v1))</title>
<g id="a_clust1"><a xlink:title="Propagate">
<path fill="#000000" fill-opacity="0.031373" stroke="#000000" stroke-width="2" stroke-opacity="0.250980" d="M27.12,-8C27.12,-8 647.25,-8 647.25,-8 653.25,-8 659.25,-14 659.25,-20 659.25,-20 659.25,-88 659.25,-88 659.25,-94 653.25,-100 647.25,-100 647.25,-100 27.12,-100 27.12,-100 21.12,-100 15.12,-94 15.12,-88 15.12,-88 15.12,-20 15.12,-20 15.12,-14 21.12,-8 27.12,-8"/>
<text xml:space="preserve" text-anchor="middle" x="337.19" y="-82.7" font-family="Helvetica,sans-Serif" font-size="14.00" fill="#000000">Propagate</text>
</a>
</g>
</g>
<g id="clust2" class="cluster">
<title>clusternode_Set(SystemSetKey(6v1))</title>
<g id="a_clust2"><a xlink:title="CameraUpdateSystems">
<path fill="#000000" fill-opacity="0.031373" stroke="#000000" stroke-width="2" stroke-opacity="0.250980" d="M12,-108C12,-108 167.5,-108 167.5,-108 173.5,-108 179.5,-114 179.5,-120 179.5,-120 179.5,-188 179.5,-188 179.5,-194 173.5,-200 167.5,-200 167.5,-200 12,-200 12,-200 6,-200 0,-194 0,-188 0,-188 0,-120 0,-120 0,-114 6,-108 12,-108"/>
<text xml:space="preserve" text-anchor="middle" x="89.75" y="-182.7" font-family="Helvetica,sans-Serif" font-size="14.00" fill="#000000">CameraUpdateSystems</text>
</a>
</g>
</g>
<!-- set_marker_node_Set(SystemSetKey(2v1)) -->
<!-- node_System(SystemKey(1v1)) -->
<g id="node2" class="node">
<title>node_System(SystemKey(1v1))</title>
<g id="a_node2"><a xlink:title="bevy_transform::systems::mark_dirty_trees">
<polygon fill="#ffe7b9" stroke="#ffc453" points="155.38,-67 23.12,-67 23.12,-31 155.38,-31 155.38,-67"/>
<text xml:space="preserve" text-anchor="middle" x="89.25" y="-44.33" font-family="Helvetica,sans-Serif" font-size="14.00" fill="#322100">mark_dirty_trees</text>
</a>
</g>
</g>
<!-- node_System(SystemKey(2v1)) -->
<g id="node3" class="node">
<title>node_System(SystemKey(2v1))</title>
<g id="a_node3"><a xlink:title="bevy_transform::systems::parallel::propagate_parent_transforms">
<polygon fill="#ffe7b9" stroke="#ffc453" points="432,-67 211.25,-67 211.25,-31 432,-31 432,-67"/>
<text xml:space="preserve" text-anchor="middle" x="321.62" y="-44.33" font-family="Helvetica,sans-Serif" font-size="14.00" fill="#322100">propagate_parent_transforms</text>
</a>
</g>
</g>
<!-- node_System(SystemKey(1v1))&#45;&gt;node_System(SystemKey(2v1)) -->
<g id="edge1" class="edge">
<title>node_System(SystemKey(1v1))&#45;&gt;node_System(SystemKey(2v1))</title>
<g id="a_edge1"><a xlink:title="mark_dirty_trees → propagate_parent_transforms">
<path fill="none" stroke="#eede00" stroke-width="2" d="M155.65,-49C169.03,-49 183.51,-49 198.15,-49"/>
<polygon fill="#eede00" stroke="#eede00" stroke-width="2" points="198.01,-52.5 208.01,-49 198.01,-45.5 198.01,-52.5"/>
</a>
</g>
</g>
<!-- node_System(SystemKey(3v1)) -->
<g id="node4" class="node">
<title>node_System(SystemKey(3v1))</title>
<g id="a_node4"><a xlink:title="bevy_transform::systems::sync_simple_transforms">
<polygon fill="#ffe7b9" stroke="#ffc453" points="651.25,-67 468,-67 468,-31 651.25,-31 651.25,-67"/>
<text xml:space="preserve" text-anchor="middle" x="559.62" y="-44.33" font-family="Helvetica,sans-Serif" font-size="14.00" fill="#322100">sync_simple_transforms</text>
</a>
</g>
</g>
<!-- node_System(SystemKey(2v1))&#45;&gt;node_System(SystemKey(3v1)) -->
<g id="edge2" class="edge">
<title>node_System(SystemKey(2v1))&#45;&gt;node_System(SystemKey(3v1))</title>
<g id="a_edge2"><a xlink:title="propagate_parent_transforms → sync_simple_transforms">
<path fill="none" stroke="#881877" stroke-width="2" d="M432.33,-49C439.8,-49 447.31,-49 454.74,-49"/>
<polygon fill="#881877" stroke="#881877" stroke-width="2" points="454.55,-52.5 464.55,-49 454.55,-45.5 454.55,-52.5"/>
</a>
</g>
</g>
<!-- set_marker_node_Set(SystemSetKey(6v1)) -->
<!-- node_System(SystemKey(4v1)) -->
<g id="node6" class="node">
<title>node_System(SystemKey(4v1))</title>
<g id="a_node6"><a xlink:title="bevy_render::camera::camera_system">
<polygon fill="#70b9fc" stroke="#0c88f9" points="151.62,-167 26.88,-167 26.88,-131 151.62,-131 151.62,-167"/>
<text xml:space="preserve" text-anchor="middle" x="89.25" y="-144.32" font-family="Helvetica,sans-Serif" font-size="14.00" fill="#011a31">camera_system</text>
</a>
</g>
</g>
</g>
</svg>
