<?xml version="1.0" encoding="UTF-8" standalone="no"?>
<!DOCTYPE svg PUBLIC "-//W3C//DTD SVG 1.1//EN"
 "http://www.w3.org/Graphics/SVG/1.1/DTD/svg11.dtd">
<!-- Generated by graphviz version 14.1.5 (0)
 -->
<!-- Pages: 1 -->
<svg width="1448pt" height="918pt"
 viewBox="0.00 0.00 1448.00 918.00" xmlns="http://www.w3.org/2000/svg" xmlns:xlink="http://www.w3.org/1999/xlink">
<g id="graph0" class="graph" transform="scale(1 1) rotate(0) translate(4 914)">
<polygon fill="white" stroke="none" points="-4,4 -4,-914 1444.25,-914 1444.25,4 -4,4"/>
<g id="clust1" class="cluster">
<title>clusternode_Set(SystemSetKey(5v1))</title>
<g id="a_clust1"><a xlink:title="ValidateParentHasComponentSystems">
<path fill="#000000" fill-opacity="0.031373" stroke="#000000" stroke-width="2" stroke-opacity="0.250980" d="M71.12,-8C71.12,-8 432.38,-8 432.38,-8 438.38,-8 444.38,-14 444.38,-20 444.38,-20 444.38,-135 444.38,-135 444.38,-141 438.38,-147 432.38,-147 432.38,-147 71.12,-147 71.12,-147 65.12,-147 59.12,-141 59.12,-135 59.12,-135 59.12,-20 59.12,-20 59.12,-14 65.12,-8 71.12,-8"/>
<text xml:space="preserve" text-anchor="middle" x="251.75" y="-129.7" font-family="Helvetica,sans-Serif" font-size="14.00" fill="#000000">ValidateParentHasComponentSystems</text>
</a>
</g>
</g>
<g id="clust2" class="cluster">
<title>clusternode_Set(SystemSetKey(7v1))</title>
<g id="a_clust2"><a xlink:title="ExitSystems">
<path fill="#000000" fill-opacity="0.031373" stroke="#000000" stroke-width="2" stroke-opacity="0.250980" d="M711.12,-163C711.12,-163 842.12,-163 842.12,-163 848.12,-163 854.12,-169 854.12,-175 854.12,-175 854.12,-243 854.12,-243 854.12,-249 848.12,-255 842.12,-255 842.12,-255 711.12,-255 711.12,-255 705.12,-255 699.12,-249 699.12,-243 699.12,-243 699.12,-175 699.12,-175 699.12,-169 705.12,-163 711.12,-163"/>
<text xml:space="preserve" text-anchor="middle" x="776.62" y="-237.7" font-family="Helvetica,sans-Serif" font-size="14.00" fill="#000000">ExitSystems</text>
</a>
</g>
</g>
<g id="clust3" class="cluster">
<title>clusternode_Set(SystemSetKey(16v1))</title>
<g id="a_clust3"><a xlink:title="GizmoMeshSystems">
<path fill="#000000" fill-opacity="0.031373" stroke="#000000" stroke-width="2" stroke-opacity="0.250980" d="M543.5,-435C543.5,-435 1009.75,-435 1009.75,-435 1015.75,-435 1021.75,-441 1021.75,-447 1021.75,-447 1021.75,-703 1021.75,-703 1021.75,-709 1015.75,-715 1009.75,-715 1009.75,-715 543.5,-715 543.5,-715 537.5,-715 531.5,-709 531.5,-703 531.5,-703 531.5,-447 531.5,-447 531.5,-441 537.5,-435 543.5,-435"/>
<text xml:space="preserve" text-anchor="middle" x="776.62" y="-697.7" font-family="Helvetica,sans-Serif" font-size="14.00" fill="#000000">GizmoMeshSystems</text>
</a>
</g>
</g>
<!-- set_marker_node_Set(SystemSetKey(5v1)) -->
<!-- node_System(SystemKey(4v1)) -->
<g id="node2" class="node">
<title>node_System(SystemKey(4v1))</title>
<g id="a_node2"><a xlink:title="bevy_app::hierarchy::check_parent_has_component&lt;bevy_transform::components::global_transform::GlobalTransform&gt;">
<polygon fill="#639d18" stroke="#98e03a" points="432.62,-67 70.88,-67 70.88,-31 432.62,-31 432.62,-67"/>
<text xml:space="preserve" text-anchor="middle" x="251.75" y="-44.33" font-family="Helvetica,sans-Serif" font-size="14.00" fill="#e7f8d2">check_parent_has_component&lt;GlobalTransform&gt;</text>
</a>
</g>
</g>
<!-- node_System(SystemKey(12v1)) -->
<g id="node3" class="node">
<title>node_System(SystemKey(12v1))</title>
<g id="a_node3"><a xlink:title="bevy_app::hierarchy::check_parent_has_component&lt;bevy_camera::visibility::InheritedVisibility&gt;">
<polygon fill="#639d18" stroke="#98e03a" points="436.38,-114 67.12,-114 67.12,-78 436.38,-78 436.38,-114"/>
<text xml:space="preserve" text-anchor="middle" x="251.75" y="-91.33" font-family="Helvetica,sans-Serif" font-size="14.00" fill="#e7f8d2">check_parent_has_component&lt;InheritedVisibility&gt;</text>
</a>
</g>
</g>
<!-- set_marker_node_Set(SystemSetKey(7v1)) -->
<!-- node_System(SystemKey(9v1)) -->
<g id="node18" class="node">
<title>node_System(SystemKey(9v1))</title>
<g id="a_node18"><a xlink:title="bevy_winit::system::despawn_windows">
<polygon fill="lightgrey" stroke="black" points="1197.75,-245 1049.75,-245 1049.75,-209 1197.75,-209 1197.75,-245"/>
<text xml:space="preserve" text-anchor="middle" x="1123.75" y="-222.32" font-family="Times,serif" font-size="14.00">despawn_windows</text>
</a>
</g>
</g>
<!-- set_marker_node_Set(SystemSetKey(7v1))&#45;&gt;node_System(SystemKey(9v1)) -->
<g id="edge9" class="edge">
<title>set_marker_node_Set(SystemSetKey(7v1))&#45;&gt;node_System(SystemKey(9v1))</title>
<g id="a_edge9"><a xlink:title="ExitSystems → despawn_windows">
<path fill="none" stroke="#3363bb" stroke-width="2" d="M854.12,-167.33C902.76,-165.64 966.72,-166.99 1021.75,-180 1042.03,-184.79 1063.14,-193.88 1080.78,-202.8"/>
<polygon fill="#3363bb" stroke="#3363bb" stroke-width="2" points="1078.94,-205.79 1089.42,-207.33 1082.19,-199.59 1078.94,-205.79"/>
</a>
</g>
</g>
<!-- node_System(SystemKey(5v1)) -->
<g id="node5" class="node">
<title>node_System(SystemKey(5v1))</title>
<g id="a_node5"><a xlink:title="bevy_window::system::exit_on_all_closed">
<polygon fill="#bb85d4" stroke="#8e3fb3" points="846.12,-222 707.12,-222 707.12,-186 846.12,-186 846.12,-222"/>
<text xml:space="preserve" text-anchor="middle" x="776.62" y="-199.32" font-family="Helvetica,sans-Serif" font-size="14.00" fill="#1d0d25">exit_on_all_closed</text>
</a>
</g>
</g>
<!-- set_marker_node_Set(SystemSetKey(16v1)) -->
<!-- node_System(SystemKey(14v1)) -->
<g id="node7" class="node">
<title>node_System(SystemKey(14v1))</title>
<g id="a_node7"><a xlink:title="bevy_gizmos::update_gizmo_meshes&lt;bevy_light::gizmos::LightGizmoConfigGroup&gt;">
<polygon fill="#eff1f3" stroke="#b4bec7" points="958.25,-494 595,-494 595,-458 958.25,-458 958.25,-494"/>
<text xml:space="preserve" text-anchor="middle" x="776.62" y="-471.32" font-family="Helvetica,sans-Serif" font-size="14.00" fill="#15191d">update_gizmo_meshes&lt;LightGizmoConfigGroup&gt;</text>
</a>
</g>
</g>
<!-- node_System(SystemKey(17v1)) -->
<g id="node8" class="node">
<title>node_System(SystemKey(17v1))</title>
<g id="a_node8"><a xlink:title="bevy_gizmos::update_gizmo_meshes&lt;bevy_gizmos::config::DefaultGizmoConfigGroup&gt;">
<polygon fill="#eff1f3" stroke="#b4bec7" points="966.12,-541 587.12,-541 587.12,-505 966.12,-505 966.12,-541"/>
<text xml:space="preserve" text-anchor="middle" x="776.62" y="-518.33" font-family="Helvetica,sans-Serif" font-size="14.00" fill="#15191d">update_gizmo_meshes&lt;DefaultGizmoConfigGroup&gt;</text>
</a>
</g>
</g>
<!-- node_System(SystemKey(19v1)) -->
<g id="node9" class="node">
<title>node_System(SystemKey(19v1))</title>
<g id="a_node9"><a xlink:title="bevy_gizmos::update_gizmo_meshes&lt;bevy_gizmos::aabb::AabbGizmoConfigGroup&gt;">
<polygon fill="#eff1f3" stroke="#b4bec7" points="959,-588 594.25,-588 594.25,-552 959,-552 959,-588"/>
<text xml:space="preserve" text-anchor="middle" x="776.62" y="-565.33" font-family="Helvetica,sans-Serif" font-size="14.00" fill="#15191d">update_gizmo_meshes&lt;AabbGizmoConfigGroup&gt;</text>
</a>
</g>
</g>
<!-- node_System(SystemKey(21v1)) -->
<g id="node10" class="node">
<title>node_System(SystemKey(21v1))</title>
<g id="a_node10"><a xlink:title="bevy_gizmos::update_gizmo_meshes&lt;bevy_gizmos::frustum::FrustumGizmoConfigGroup&gt;">
<polygon fill="#eff1f3" stroke="#b4bec7" points="969.5,-635 583.75,-635 583.75,-599 969.5,-599 969.5,-635"/>
<text xml:space="preserve" text-anchor="middle" x="776.62" y="-612.33" font-family="Helvetica,sans-Serif" font-size="14.00" fill="#15191d">update_gizmo_meshes&lt;FrustumGizmoConfigGroup&gt;</text>
</a>
</g>
</g>
<!-- node_System(SystemKey(24v1)) -->
<g id="node11" class="node">
<title>node_System(SystemKey(24v1))</title>
<g id="a_node11"><a xlink:title="bevy_gizmos::update_gizmo_meshes&lt;bevy_gizmos::skinned_mesh_bounds::SkinnedMeshBoundsGizmoConfigGroup&gt;">
<polygon fill="#eff1f3" stroke="#b4bec7" points="1013.75,-682 539.5,-682 539.5,-646 1013.75,-646 1013.75,-682"/>
<text xml:space="preserve" text-anchor="middle" x="776.62" y="-659.33" font-family="Helvetica,sans-Serif" font-size="14.00" fill="#15191d">update_gizmo_meshes&lt;SkinnedMeshBoundsGizmoConfigGroup&gt;</text>
</a>
</g>
</g>
<!-- node_System(SystemKey(1v1)) -->
<g id="node12" class="node">
<title>node_System(SystemKey(1v1))</title>
<g id="a_node12"><a xlink:title="bevy_ecs::system::system_registry::despawn_unused_registered_systems">
<polygon fill="lightgrey" stroke="black" points="393.62,-628 109.88,-628 109.88,-592 393.62,-592 393.62,-628"/>
<text xml:space="preserve" text-anchor="middle" x="251.75" y="-605.33" font-family="Times,serif" font-size="14.00">despawn_unused_registered_systems</text>
</a>
</g>
</g>
<!-- node_System(SystemKey(2v1)) -->
<g id="node13" class="node">
<title>node_System(SystemKey(2v1))</title>
<g id="a_node13"><a xlink:title="bevy_app::task_pool_plugin::tick_global_task_pools">
<polygon fill="lightgrey" stroke="black" points="338.5,-675 165,-675 165,-639 338.5,-639 338.5,-675"/>
<text xml:space="preserve" text-anchor="middle" x="251.75" y="-652.33" font-family="Times,serif" font-size="14.00">tick_global_task_pools</text>
</a>
</g>
</g>
<!-- node_System(SystemKey(3v1)) -->
<g id="node14" class="node">
<title>node_System(SystemKey(3v1))</title>
<g id="a_node14"><a xlink:title="bevy_diagnostic::frame_count::update_frame_count">
<polygon fill="lightgrey" stroke="black" points="332.12,-722 171.38,-722 171.38,-686 332.12,-686 332.12,-722"/>
<text xml:space="preserve" text-anchor="middle" x="251.75" y="-699.33" font-family="Times,serif" font-size="14.00">update_frame_count</text>
</a>
</g>
</g>
<!-- node_System(SystemKey(6v1)) -->
<g id="node15" class="node">
<title>node_System(SystemKey(6v1))</title>
<g id="a_node15"><a xlink:title="bevy_window::system::close_when_requested">
<polygon fill="lightgrey" stroke="black" points="339.62,-191 163.88,-191 163.88,-155 339.62,-155 339.62,-191"/>
<text xml:space="preserve" text-anchor="middle" x="251.75" y="-168.32" font-family="Times,serif" font-size="14.00">close_when_requested</text>
</a>
</g>
</g>
<!-- node_System(SystemKey(6v1))&#45;&gt;set_marker_node_Set(SystemSetKey(7v1)) -->
<g id="edge7" class="edge">
<title>node_System(SystemKey(6v1))&#45;&gt;set_marker_node_Set(SystemSetKey(7v1))</title>
<g id="a_edge7"><a xlink:title="close_when_requested → ExitSystems">
<path fill="none" stroke="#ee9e44" stroke-width="2" d="M339.97,-173C435.92,-173 589.31,-173 686.14,-173"/>
<polygon fill="#ee9e44" stroke="#ee9e44" stroke-width="2" points="686.1,-176.5 696.1,-173 686.1,-169.5 686.1,-176.5"/>
</a>
</g>
</g>
<!-- node_System(SystemKey(7v1)) -->
<g id="node16" class="node">
<title>node_System(SystemKey(7v1))</title>
<g id="a_node16"><a xlink:title="bevy_winit::system::changed_windows">
<polygon fill="lightgrey" stroke="black" points="324.25,-299 179.25,-299 179.25,-263 324.25,-263 324.25,-299"/>
<text xml:space="preserve" text-anchor="middle" x="251.75" y="-276.32" font-family="Times,serif" font-size="14.00">changed_windows</text>
</a>
</g>
</g>
<!-- node_System(SystemKey(8v1)) -->
<g id="node17" class="node">
<title>node_System(SystemKey(8v1))</title>
<g id="a_node17"><a xlink:title="bevy_winit::system::changed_cursor_options">
<polygon fill="lightgrey" stroke="black" points="870.5,-299 682.75,-299 682.75,-263 870.5,-263 870.5,-299"/>
<text xml:space="preserve" text-anchor="middle" x="776.62" y="-276.32" font-family="Times,serif" font-size="14.00">changed_cursor_options</text>
</a>
</g>
</g>
<!-- node_System(SystemKey(7v1))&#45;&gt;node_System(SystemKey(8v1)) -->
<g id="edge8" class="edge">
<title>node_System(SystemKey(7v1))&#45;&gt;node_System(SystemKey(8v1))</title>
<g id="a_edge8"><a xlink:title="changed_windows → changed_cursor_options">
<path fill="none" stroke="#663699" stroke-width="2" d="M324.63,-281C413.89,-281 566.89,-281 669.62,-281"/>
<polygon fill="#663699" stroke="#663699" stroke-width="2" points="669.49,-284.5 679.49,-281 669.49,-277.5 669.49,-284.5"/>
</a>
</g>
</g>
<!-- node_System(SystemKey(8v1))&#45;&gt;node_System(SystemKey(9v1)) -->
<g id="edge5" class="edge">
<title>node_System(SystemKey(8v1))&#45;&gt;node_System(SystemKey(9v1))</title>
<g id="a_edge5"><a xlink:title="changed_cursor_options → despawn_windows">
<path fill="none" stroke="#44d488" stroke-width="2" d="M870.97,-276.01C916.71,-272.51 972.43,-266.66 1021.75,-257 1032.71,-254.85 1044.18,-252.03 1055.3,-248.96"/>
<polygon fill="#44d488" stroke="#44d488" stroke-width="2" points="1056.09,-252.38 1064.75,-246.26 1054.17,-245.65 1056.09,-252.38"/>
</a>
</g>
</g>
<!-- node_System(SystemKey(10v1)) -->
<g id="node19" class="node">
<title>node_System(SystemKey(10v1))</title>
<g id="a_node19"><a xlink:title="bevy_winit::system::check_keyboard_focus_lost">
<polygon fill="lightgrey" stroke="black" points="1440.25,-245 1233.75,-245 1233.75,-209 1440.25,-209 1440.25,-245"/>
<text xml:space="preserve" text-anchor="middle" x="1337" y="-222.32" font-family="Times,serif" font-size="14.00">check_keyboard_focus_lost</text>
</a>
</g>
</g>
<!-- node_System(SystemKey(9v1))&#45;&gt;node_System(SystemKey(10v1)) -->
<g id="edge2" class="edge">
<title>node_System(SystemKey(9v1))&#45;&gt;node_System(SystemKey(10v1))</title>
<g id="a_edge2"><a xlink:title="despawn_windows → check_keyboard_focus_lost">
<path fill="none" stroke="#881877" stroke-width="2" d="M1198.04,-227C1205.37,-227 1212.93,-227 1220.56,-227"/>
<polygon fill="#881877" stroke="#881877" stroke-width="2" points="1220.4,-230.5 1230.4,-227 1220.4,-223.5 1220.4,-230.5"/>
</a>
</g>
</g>
<!-- node_System(SystemKey(11v1)) -->
<g id="node20" class="node">
<title>node_System(SystemKey(11v1))</title>
<g id="a_node20"><a xlink:title="bevy_winit::cursor::update_cursors">
<polygon fill="lightgrey" stroke="black" points="314.5,-769 189,-769 189,-733 314.5,-733 314.5,-769"/>
<text xml:space="preserve" text-anchor="middle" x="251.75" y="-746.33" font-family="Times,serif" font-size="14.00">update_cursors</text>
</a>
</g>
</g>
<!-- node_System(SystemKey(13v1)) -->
<g id="node21" class="node">
<title>node_System(SystemKey(13v1))</title>
<g id="a_node21"><a xlink:title="bevy_gizmos::propagate_gizmos&lt;bevy_light::gizmos::LightGizmoConfigGroup, bevy_time::fixed::Fixed&gt;">
<polygon fill="lightgrey" stroke="black" points="447.25,-581 56.25,-581 56.25,-545 447.25,-545 447.25,-581"/>
<text xml:space="preserve" text-anchor="middle" x="251.75" y="-558.33" font-family="Times,serif" font-size="14.00">propagate_gizmos&lt;LightGizmoConfigGroup, Fixed&gt;</text>
</a>
</g>
</g>
<!-- node_System(SystemKey(13v1))&#45;&gt;set_marker_node_Set(SystemSetKey(16v1)) -->
<g id="edge6" class="edge">
<title>node_System(SystemKey(13v1))&#45;&gt;set_marker_node_Set(SystemSetKey(16v1))</title>
<g id="a_edge6"><a xlink:title="propagate_gizmos&lt;LightGizmoConfigGroup, Fixed&gt; → GizmoMeshSystems">
<path fill="none" stroke="#0090cc" stroke-width="2" d="M447.61,-568.2C467.87,-562.22 487.04,-553.19 503.5,-540 531.36,-517.68 506.82,-486.28 522.49,-462.4"/>
<polygon fill="#0090cc" stroke="#0090cc" stroke-width="2" points="525.01,-464.83 529.41,-455.19 519.96,-459.98 525.01,-464.83"/>
</a>
</g>
</g>
<!-- node_System(SystemKey(15v1)) -->
<g id="node22" class="node">
<title>node_System(SystemKey(15v1))</title>
<g id="a_node22"><a xlink:title="bevy_text::pipeline::trim_source_cache">
<polygon fill="lightgrey" stroke="black" points="325.75,-816 177.75,-816 177.75,-780 325.75,-780 325.75,-816"/>
<text xml:space="preserve" text-anchor="middle" x="251.75" y="-793.33" font-family="Times,serif" font-size="14.00">trim_source_cache</text>
</a>
</g>
</g>
<!-- node_System(SystemKey(16v1)) -->
<g id="node23" class="node">
<title>node_System(SystemKey(16v1))</title>
<g id="a_node23"><a xlink:title="bevy_gizmos::propagate_gizmos&lt;bevy_gizmos::config::DefaultGizmoConfigGroup, bevy_time::fixed::Fixed&gt;">
<polygon fill="lightgrey" stroke="black" points="454.75,-534 48.75,-534 48.75,-498 454.75,-498 454.75,-534"/>
<text xml:space="preserve" text-anchor="middle" x="251.75" y="-511.32" font-family="Times,serif" font-size="14.00">propagate_gizmos&lt;DefaultGizmoConfigGroup, Fixed&gt;</text>
</a>
</g>
</g>
<!-- node_System(SystemKey(16v1))&#45;&gt;set_marker_node_Set(SystemSetKey(16v1)) -->
<g id="edge4" class="edge">
<title>node_System(SystemKey(16v1))&#45;&gt;set_marker_node_Set(SystemSetKey(16v1))</title>
<g id="a_edge4"><a xlink:title="propagate_gizmos&lt;DefaultGizmoConfigGroup, Fixed&gt; → GizmoMeshSystems">
<path fill="none" stroke="#aa3a55" stroke-width="2" d="M455.07,-513.16C472.06,-508.29 488.47,-501.72 503.5,-493 517.72,-484.75 515.51,-471.97 521.91,-461.76"/>
<polygon fill="#aa3a55" stroke="#aa3a55" stroke-width="2" points="524.24,-464.37 529.27,-455.04 519.52,-459.2 524.24,-464.37"/>
</a>
</g>
</g>
<!-- node_System(SystemKey(18v1)) -->
<g id="node24" class="node">
<title>node_System(SystemKey(18v1))</title>
<g id="a_node24"><a xlink:title="bevy_gizmos::propagate_gizmos&lt;bevy_gizmos::aabb::AabbGizmoConfigGroup, bevy_time::fixed::Fixed&gt;">
<polygon fill="lightgrey" stroke="black" points="446.5,-487 57,-487 57,-451 446.5,-451 446.5,-487"/>
<text xml:space="preserve" text-anchor="middle" x="251.75" y="-464.32" font-family="Times,serif" font-size="14.00">propagate_gizmos&lt;AabbGizmoConfigGroup, Fixed&gt;</text>
</a>
</g>
</g>
<!-- node_System(SystemKey(18v1))&#45;&gt;set_marker_node_Set(SystemSetKey(16v1)) -->
<g id="edge11" class="edge">
<title>node_System(SystemKey(18v1))&#45;&gt;set_marker_node_Set(SystemSetKey(16v1))</title>
<g id="a_edge11"><a xlink:title="propagate_gizmos&lt;AabbGizmoConfigGroup, Fixed&gt; → GizmoMeshSystems">
<path fill="none" stroke="#99d955" stroke-width="2" d="M446.91,-457.24C470.85,-455.94 495.13,-454.69 518.57,-453.59"/>
<polygon fill="#99d955" stroke="#99d955" stroke-width="2" points="518.65,-457.1 528.48,-453.14 518.33,-450.1 518.65,-457.1"/>
</a>
</g>
</g>
<!-- node_System(SystemKey(20v1)) -->
<g id="node25" class="node">
<title>node_System(SystemKey(20v1))</title>
<g id="a_node25"><a xlink:title="bevy_gizmos::propagate_gizmos&lt;bevy_gizmos::frustum::FrustumGizmoConfigGroup, bevy_time::fixed::Fixed&gt;">
<polygon fill="lightgrey" stroke="black" points="459.25,-440 44.25,-440 44.25,-404 459.25,-404 459.25,-440"/>
<text xml:space="preserve" text-anchor="middle" x="251.75" y="-417.32" font-family="Times,serif" font-size="14.00">propagate_gizmos&lt;FrustumGizmoConfigGroup, Fixed&gt;</text>
</a>
</g>
</g>
<!-- node_System(SystemKey(20v1))&#45;&gt;set_marker_node_Set(SystemSetKey(16v1)) -->
<g id="edge10" class="edge">
<title>node_System(SystemKey(20v1))&#45;&gt;set_marker_node_Set(SystemSetKey(16v1))</title>
<g id="a_edge10"><a xlink:title="propagate_gizmos&lt;FrustumGizmoConfigGroup, Fixed&gt; → GizmoMeshSystems">
<path fill="none" stroke="#22c2bb" stroke-width="2" d="M459.4,-431.09C484.39,-432.19 510.07,-433.32 535.48,-434.44"/>
<polygon fill="#22c2bb" stroke="#22c2bb" stroke-width="2" points="535.16,-437.93 545.31,-434.87 535.47,-430.93 535.16,-437.93"/>
</a>
</g>
</g>
<!-- node_System(SystemKey(22v1)) -->
<g id="node26" class="node">
<title>node_System(SystemKey(22v1))</title>
<g id="a_node26"><a xlink:title="bevy_gizmos::global::flush_global_gizmos">
<polygon fill="lightgrey" stroke="black" points="330.62,-393 172.88,-393 172.88,-357 330.62,-357 330.62,-393"/>
<text xml:space="preserve" text-anchor="middle" x="251.75" y="-370.32" font-family="Times,serif" font-size="14.00">flush_global_gizmos</text>
</a>
</g>
</g>
<!-- node_System(SystemKey(22v1))&#45;&gt;set_marker_node_Set(SystemSetKey(16v1)) -->
<g id="edge3" class="edge">
<title>node_System(SystemKey(22v1))&#45;&gt;set_marker_node_Set(SystemSetKey(16v1))</title>
<g id="a_edge3"><a xlink:title="flush_global_gizmos → GizmoMeshSystems">
<path fill="none" stroke="#00b0cc" stroke-width="2" d="M330.85,-381.02C380.41,-385.2 445.84,-391.38 503.5,-399 574.59,-408.4 655.57,-422.53 710.58,-432.65"/>
<polygon fill="#00b0cc" stroke="#00b0cc" stroke-width="2" points="709.84,-436.07 720.31,-434.45 711.12,-429.19 709.84,-436.07"/>
</a>
</g>
</g>
<!-- node_System(SystemKey(23v1)) -->
<g id="node27" class="node">
<title>node_System(SystemKey(23v1))</title>
<g id="a_node27"><a xlink:title="bevy_gizmos::propagate_gizmos&lt;bevy_gizmos::skinned_mesh_bounds::SkinnedMeshBoundsGizmoConfigGroup, bevy_time::fixed::Fixed&gt;">
<polygon fill="lightgrey" stroke="black" points="503.5,-346 0,-346 0,-310 503.5,-310 503.5,-346"/>
<text xml:space="preserve" text-anchor="middle" x="251.75" y="-323.32" font-family="Times,serif" font-size="14.00">propagate_gizmos&lt;SkinnedMeshBoundsGizmoConfigGroup, Fixed&gt;</text>
</a>
</g>
</g>
<!-- node_System(SystemKey(23v1))&#45;&gt;set_marker_node_Set(SystemSetKey(16v1)) -->
<g id="edge1" class="edge">
<title>node_System(SystemKey(23v1))&#45;&gt;set_marker_node_Set(SystemSetKey(16v1))</title>
<g id="a_edge1"><a xlink:title="propagate_gizmos&lt;SkinnedMeshBoundsGizmoConfigGroup, Fixed&gt; → GizmoMeshSystems">
<path fill="none" stroke="#eede00" stroke-width="2" d="M475.02,-346.47C484.67,-348.16 494.2,-350 503.5,-352 590.98,-370.86 689.37,-408.91 740.5,-430.02"/>
<polygon fill="#eede00" stroke="#eede00" stroke-width="2" points="739.08,-433.22 749.66,-433.84 741.77,-426.76 739.08,-433.22"/>
</a>
</g>
</g>
<!-- node_System(SystemKey(25v1)) -->
<g id="node28" class="node">
<title>node_System(SystemKey(25v1))</title>
<g id="a_node28"><a xlink:title="bevy_picking::input::deactivate_touch_pointers">
<polygon fill="lightgrey" stroke="black" points="353.12,-863 150.38,-863 150.38,-827 353.12,-827 353.12,-863"/>
<text xml:space="preserve" text-anchor="middle" x="251.75" y="-840.33" font-family="Times,serif" font-size="14.00">deactivate_touch_pointers</text>
</a>
</g>
</g>
<!-- node_System(SystemKey(26v1)) -->
<g id="node29" class="node">
<title>node_System(SystemKey(26v1))</title>
<g id="a_node29"><a xlink:title="bevy_ecs::apply_deferred">
<polygon fill="lightgrey" stroke="black" points="313.38,-910 190.12,-910 190.12,-874 313.38,-874 313.38,-910"/>
<text xml:space="preserve" text-anchor="middle" x="251.75" y="-887.33" font-family="Times,serif" font-size="14.00">apply_deferred</text>
</a>
</g>
</g>
</g>
</svg>
