<?xml version="1.0" encoding="UTF-8" standalone="no"?>
<!DOCTYPE svg PUBLIC "-//W3C//DTD SVG 1.1//EN"
 "http://www.w3.org/Graphics/SVG/1.1/DTD/svg11.dtd">
<!-- Generated by graphviz version 8.0.5 (0)
 -->
<!-- Pages: 1 -->
<svg width="151pt" height="185pt"
 viewBox="0.00 0.00 150.75 185.00" xmlns="http://www.w3.org/2000/svg" xmlns:xlink="http://www.w3.org/1999/xlink">
<g id="graph0" class="graph" transform="scale(1 1) rotate(0) translate(4 181)">
<polygon fill="white" stroke="none" points="-4,4 -4,-181 146.75,-181 146.75,4 -4,4"/>
<!-- node_System(0) -->
<g id="node1" class="node">
<title>node_System(0)</title>
<g id="a_node1"><a xlink:title="bevy_window::system::close_when_requested">
<polygon fill="lightgrey" stroke="black" points="140.5,-36 2.25,-36 2.25,0 140.5,0 140.5,-36"/>
<text text-anchor="middle" x="71.38" y="-12.95" font-family="Times,serif" font-size="14.00">close_when_requested</text>
</a>
</g>
</g>
<!-- node_System(1) -->
<g id="node2" class="node">
<title>node_System(1)</title>
<g id="a_node2"><a xlink:title="bevy_scene::scene_spawner::scene_spawner_system">
<polygon fill="lightgrey" stroke="black" points="142.75,-83 0,-83 0,-47 142.75,-47 142.75,-83"/>
<text text-anchor="middle" x="71.38" y="-59.95" font-family="Times,serif" font-size="14.00">scene_spawner_system</text>
</a>
</g>
</g>
<!-- node_System(2) -->
<g id="node3" class="node">
<title>node_System(2)</title>
<g id="a_node3"><a xlink:title="bevy_gizmos::draw_aabbs">
<polygon fill="lightgrey" stroke="black" points="111.62,-130 31.12,-130 31.12,-94 111.62,-94 111.62,-130"/>
<text text-anchor="middle" x="71.38" y="-106.95" font-family="Times,serif" font-size="14.00">draw_aabbs</text>
</a>
</g>
</g>
<!-- node_System(3) -->
<g id="node4" class="node">
<title>node_System(3)</title>
<g id="a_node4"><a xlink:title="bevy_gizmos::draw_all_aabbs">
<polygon fill="lightgrey" stroke="black" points="121.75,-177 21,-177 21,-141 121.75,-141 121.75,-177"/>
<text text-anchor="middle" x="71.38" y="-153.95" font-family="Times,serif" font-size="14.00">draw_all_aabbs</text>
</a>
</g>
</g>
</g>
</svg>
