<?xml version="1.0" encoding="UTF-8" standalone="no"?>
<!DOCTYPE svg PUBLIC "-//W3C//DTD SVG 1.1//EN"
 "http://www.w3.org/Graphics/SVG/1.1/DTD/svg11.dtd">
<!-- Generated by graphviz version 14.1.5 (0)
 -->
<!-- Pages: 1 -->
<svg width="1296pt" height="304pt"
 viewBox="0.00 0.00 1296.00 304.00" xmlns="http://www.w3.org/2000/svg" xmlns:xlink="http://www.w3.org/1999/xlink">
<g id="graph0" class="graph" transform="scale(1 1) rotate(0) translate(4 300)">
<polygon fill="white" stroke="none" points="-4,4 -4,-300 1292.25,-300 1292.25,4 -4,4"/>
<g id="clust1" class="cluster">
<title>clusternode_Set(SystemSetKey(1v1))</title>
<g id="a_clust1"><a xlink:title="BeforeFixedMainLoop">
<path fill="#000000" fill-opacity="0.031373" stroke="#000000" stroke-width="2" stroke-opacity="0.250980" d="M20,-8C20,-8 511.75,-8 511.75,-8 517.75,-8 523.75,-14 523.75,-20 523.75,-20 523.75,-276 523.75,-276 523.75,-282 517.75,-288 511.75,-288 511.75,-288 20,-288 20,-288 14,-288 8,-282 8,-276 8,-276 8,-20 8,-20 8,-14 14,-8 20,-8"/>
<text xml:space="preserve" text-anchor="middle" x="265.88" y="-270.7" font-family="Helvetica,sans-Serif" font-size="14.00" fill="#000000">BeforeFixedMainLoop</text>
</a>
</g>
</g>
<g id="clust2" class="cluster">
<title>clusternode_Set(SystemSetKey(2v1))</title>
<g id="a_clust2"><a xlink:title="FixedMainLoop">
<path fill="#000000" fill-opacity="0.031373" stroke="#000000" stroke-width="2" stroke-opacity="0.250980" d="M555.75,-8C555.75,-8 738.5,-8 738.5,-8 744.5,-8 750.5,-14 750.5,-20 750.5,-20 750.5,-88 750.5,-88 750.5,-94 744.5,-100 738.5,-100 738.5,-100 555.75,-100 555.75,-100 549.75,-100 543.75,-94 543.75,-88 543.75,-88 543.75,-20 543.75,-20 543.75,-14 549.75,-8 555.75,-8"/>
<text xml:space="preserve" text-anchor="middle" x="647.12" y="-82.7" font-family="Helvetica,sans-Serif" font-size="14.00" fill="#000000">FixedMainLoop</text>
</a>
</g>
</g>
<g id="clust3" class="cluster">
<title>clusternode_Set(SystemSetKey(3v1))</title>
<g id="a_clust3"><a xlink:title="AfterFixedMainLoop">
<path fill="#000000" fill-opacity="0.031373" stroke="#000000" stroke-width="2" stroke-opacity="0.250980" d="M782.5,-8C782.5,-8 1268.25,-8 1268.25,-8 1274.25,-8 1280.25,-14 1280.25,-20 1280.25,-20 1280.25,-276 1280.25,-276 1280.25,-282 1274.25,-288 1268.25,-288 1268.25,-288 782.5,-288 782.5,-288 776.5,-288 770.5,-282 770.5,-276 770.5,-276 770.5,-20 770.5,-20 770.5,-14 776.5,-8 782.5,-8"/>
<text xml:space="preserve" text-anchor="middle" x="1025.38" y="-270.7" font-family="Helvetica,sans-Serif" font-size="14.00" fill="#000000">AfterFixedMainLoop</text>
</a>
</g>
</g>
<!-- set_marker_node_Set(SystemSetKey(1v1)) -->
<!-- set_marker_node_Set(SystemSetKey(2v1)) -->
<!-- set_marker_node_Set(SystemSetKey(1v1))&#45;&gt;set_marker_node_Set(SystemSetKey(2v1)) -->
<g id="edge1" class="edge">
<title>set_marker_node_Set(SystemSetKey(1v1))&#45;&gt;set_marker_node_Set(SystemSetKey(2v1))</title>
<g id="a_edge1"><a xlink:title="BeforeFixedMainLoop → FixedMainLoop">
<path fill="none" stroke="#eede00" stroke-width="2" d="M523.75,-18C526.18,-18 528.61,-18 531.01,-18"/>
<polygon fill="#eede00" stroke="#eede00" stroke-width="2" points="530.73,-21.5 540.73,-18 530.73,-14.5 530.73,-21.5"/>
</a>
</g>
</g>
<!-- node_System(SystemKey(2v1)) -->
<g id="node2" class="node">
<title>node_System(SystemKey(2v1))</title>
<g id="a_node2"><a xlink:title="bevy_gizmos::start_gizmo_context&lt;bevy_light::gizmos::LightGizmoConfigGroup, bevy_time::fixed::Fixed&gt;">
<polygon fill="#eff1f3" stroke="#b4bec7" points="460.25,-67 71.5,-67 71.5,-31 460.25,-31 460.25,-67"/>
<text xml:space="preserve" text-anchor="middle" x="265.88" y="-44.33" font-family="Helvetica,sans-Serif" font-size="14.00" fill="#15191d">start_gizmo_context&lt;LightGizmoConfigGroup, Fixed&gt;</text>
</a>
</g>
</g>
<!-- node_System(SystemKey(4v1)) -->
<g id="node3" class="node">
<title>node_System(SystemKey(4v1))</title>
<g id="a_node3"><a xlink:title="bevy_gizmos::start_gizmo_context&lt;bevy_gizmos::config::DefaultGizmoConfigGroup, bevy_time::fixed::Fixed&gt;">
<polygon fill="#eff1f3" stroke="#b4bec7" points="468.12,-114 63.62,-114 63.62,-78 468.12,-78 468.12,-114"/>
<text xml:space="preserve" text-anchor="middle" x="265.88" y="-91.33" font-family="Helvetica,sans-Serif" font-size="14.00" fill="#15191d">start_gizmo_context&lt;DefaultGizmoConfigGroup, Fixed&gt;</text>
</a>
</g>
</g>
<!-- node_System(SystemKey(6v1)) -->
<g id="node4" class="node">
<title>node_System(SystemKey(6v1))</title>
<g id="a_node4"><a xlink:title="bevy_gizmos::start_gizmo_context&lt;bevy_gizmos::aabb::AabbGizmoConfigGroup, bevy_time::fixed::Fixed&gt;">
<polygon fill="#eff1f3" stroke="#b4bec7" points="461,-161 70.75,-161 70.75,-125 461,-125 461,-161"/>
<text xml:space="preserve" text-anchor="middle" x="265.88" y="-138.32" font-family="Helvetica,sans-Serif" font-size="14.00" fill="#15191d">start_gizmo_context&lt;AabbGizmoConfigGroup, Fixed&gt;</text>
</a>
</g>
</g>
<!-- node_System(SystemKey(8v1)) -->
<g id="node5" class="node">
<title>node_System(SystemKey(8v1))</title>
<g id="a_node5"><a xlink:title="bevy_gizmos::start_gizmo_context&lt;bevy_gizmos::frustum::FrustumGizmoConfigGroup, bevy_time::fixed::Fixed&gt;">
<polygon fill="#eff1f3" stroke="#b4bec7" points="471.5,-208 60.25,-208 60.25,-172 471.5,-172 471.5,-208"/>
<text xml:space="preserve" text-anchor="middle" x="265.88" y="-185.32" font-family="Helvetica,sans-Serif" font-size="14.00" fill="#15191d">start_gizmo_context&lt;FrustumGizmoConfigGroup, Fixed&gt;</text>
</a>
</g>
</g>
<!-- node_System(SystemKey(10v1)) -->
<g id="node6" class="node">
<title>node_System(SystemKey(10v1))</title>
<g id="a_node6"><a xlink:title="bevy_gizmos::start_gizmo_context&lt;bevy_gizmos::skinned_mesh_bounds::SkinnedMeshBoundsGizmoConfigGroup, bevy_time::fixed::Fixed&gt;">
<polygon fill="#eff1f3" stroke="#b4bec7" points="515.75,-255 16,-255 16,-219 515.75,-219 515.75,-255"/>
<text xml:space="preserve" text-anchor="middle" x="265.88" y="-232.32" font-family="Helvetica,sans-Serif" font-size="14.00" fill="#15191d">start_gizmo_context&lt;SkinnedMeshBoundsGizmoConfigGroup, Fixed&gt;</text>
</a>
</g>
</g>
<!-- set_marker_node_Set(SystemSetKey(3v1)) -->
<!-- set_marker_node_Set(SystemSetKey(2v1))&#45;&gt;set_marker_node_Set(SystemSetKey(3v1)) -->
<g id="edge2" class="edge">
<title>set_marker_node_Set(SystemSetKey(2v1))&#45;&gt;set_marker_node_Set(SystemSetKey(3v1))</title>
<g id="a_edge2"><a xlink:title="FixedMainLoop → AfterFixedMainLoop">
<path fill="none" stroke="#881877" stroke-width="2" d="M750.5,-18C752.84,-18 755.19,-18 757.57,-18"/>
<polygon fill="#881877" stroke="#881877" stroke-width="2" points="757.48,-21.5 767.48,-18 757.48,-14.5 757.48,-21.5"/>
</a>
</g>
</g>
<!-- node_System(SystemKey(1v1)) -->
<g id="node8" class="node">
<title>node_System(SystemKey(1v1))</title>
<g id="a_node8"><a xlink:title="bevy_time::fixed::run_fixed_main_schedule">
<polygon fill="#c7ddbd" stroke="#8dba79" points="742.5,-67 551.75,-67 551.75,-31 742.5,-31 742.5,-67"/>
<text xml:space="preserve" text-anchor="middle" x="647.12" y="-44.33" font-family="Helvetica,sans-Serif" font-size="14.00" fill="#162111">run_fixed_main_schedule</text>
</a>
</g>
</g>
<!-- node_System(SystemKey(3v1)) -->
<g id="node10" class="node">
<title>node_System(SystemKey(3v1))</title>
<g id="a_node10"><a xlink:title="bevy_gizmos::end_gizmo_context&lt;bevy_light::gizmos::LightGizmoConfigGroup, bevy_time::fixed::Fixed&gt;">
<polygon fill="#eff1f3" stroke="#b4bec7" points="1216.75,-67 834,-67 834,-31 1216.75,-31 1216.75,-67"/>
<text xml:space="preserve" text-anchor="middle" x="1025.38" y="-44.33" font-family="Helvetica,sans-Serif" font-size="14.00" fill="#15191d">end_gizmo_context&lt;LightGizmoConfigGroup, Fixed&gt;</text>
</a>
</g>
</g>
<!-- node_System(SystemKey(5v1)) -->
<g id="node11" class="node">
<title>node_System(SystemKey(5v1))</title>
<g id="a_node11"><a xlink:title="bevy_gizmos::end_gizmo_context&lt;bevy_gizmos::config::DefaultGizmoConfigGroup, bevy_time::fixed::Fixed&gt;">
<polygon fill="#eff1f3" stroke="#b4bec7" points="1224.62,-114 826.12,-114 826.12,-78 1224.62,-78 1224.62,-114"/>
<text xml:space="preserve" text-anchor="middle" x="1025.38" y="-91.33" font-family="Helvetica,sans-Serif" font-size="14.00" fill="#15191d">end_gizmo_context&lt;DefaultGizmoConfigGroup, Fixed&gt;</text>
</a>
</g>
</g>
<!-- node_System(SystemKey(7v1)) -->
<g id="node12" class="node">
<title>node_System(SystemKey(7v1))</title>
<g id="a_node12"><a xlink:title="bevy_gizmos::end_gizmo_context&lt;bevy_gizmos::aabb::AabbGizmoConfigGroup, bevy_time::fixed::Fixed&gt;">
<polygon fill="#eff1f3" stroke="#b4bec7" points="1217.5,-161 833.25,-161 833.25,-125 1217.5,-125 1217.5,-161"/>
<text xml:space="preserve" text-anchor="middle" x="1025.38" y="-138.32" font-family="Helvetica,sans-Serif" font-size="14.00" fill="#15191d">end_gizmo_context&lt;AabbGizmoConfigGroup, Fixed&gt;</text>
</a>
</g>
</g>
<!-- node_System(SystemKey(9v1)) -->
<g id="node13" class="node">
<title>node_System(SystemKey(9v1))</title>
<g id="a_node13"><a xlink:title="bevy_gizmos::end_gizmo_context&lt;bevy_gizmos::frustum::FrustumGizmoConfigGroup, bevy_time::fixed::Fixed&gt;">
<polygon fill="#eff1f3" stroke="#b4bec7" points="1228,-208 822.75,-208 822.75,-172 1228,-172 1228,-208"/>
<text xml:space="preserve" text-anchor="middle" x="1025.38" y="-185.32" font-family="Helvetica,sans-Serif" font-size="14.00" fill="#15191d">end_gizmo_context&lt;FrustumGizmoConfigGroup, Fixed&gt;</text>
</a>
</g>
</g>
<!-- node_System(SystemKey(11v1)) -->
<g id="node14" class="node">
<title>node_System(SystemKey(11v1))</title>
<g id="a_node14"><a xlink:title="bevy_gizmos::end_gizmo_context&lt;bevy_gizmos::skinned_mesh_bounds::SkinnedMeshBoundsGizmoConfigGroup, bevy_time::fixed::Fixed&gt;">
<polygon fill="#eff1f3" stroke="#b4bec7" points="1272.25,-255 778.5,-255 778.5,-219 1272.25,-219 1272.25,-255"/>
<text xml:space="preserve" text-anchor="middle" x="1025.38" y="-232.32" font-family="Helvetica,sans-Serif" font-size="14.00" fill="#15191d">end_gizmo_context&lt;SkinnedMeshBoundsGizmoConfigGroup, Fixed&gt;</text>
</a>
</g>
</g>
</g>
</svg>
