<?xml version="1.0" encoding="UTF-8" standalone="no"?>
<!DOCTYPE svg PUBLIC "-//W3C//DTD SVG 1.1//EN"
 "http://www.w3.org/Graphics/SVG/1.1/DTD/svg11.dtd">
<!-- Generated by graphviz version 12.1.2 (0)
 -->
<!-- Pages: 1 -->
<svg width="1409pt" height="2103pt"
 viewBox="0.00 0.00 1409.00 2103.00" xmlns="http://www.w3.org/2000/svg" xmlns:xlink="http://www.w3.org/1999/xlink">
<g id="graph0" class="graph" transform="scale(1 1) rotate(0) translate(4 2099)">
<polygon fill="white" stroke="none" points="-4,4 -4,-2099 1405,-2099 1405,4 -4,4"/>
<g id="clust1" class="cluster">
<title>clusternode_Set(1)</title>
<g id="a_clust1"><a xlink:title="InputSystem">
<path fill="#000000" fill-opacity="0.031373" stroke="#000000" stroke-width="2" stroke-opacity="0.250980" d="M418.25,-108C418.25,-108 1037,-108 1037,-108 1043,-108 1049,-114 1049,-120 1049,-120 1049,-423 1049,-423 1049,-429 1043,-435 1037,-435 1037,-435 418.25,-435 418.25,-435 412.25,-435 406.25,-429 406.25,-423 406.25,-423 406.25,-120 406.25,-120 406.25,-114 412.25,-108 418.25,-108"/>
<text text-anchor="middle" x="727.62" y="-417.7" font-family="Helvetica,sans-Serif" font-size="14.00" fill="#000000">InputSystem</text>
</a>
</g>
</g>
<g id="clust2" class="cluster">
<title>clusternode_Set(9)</title>
<g id="a_clust2"><a xlink:title="TrackAssets">
<path fill="#000000" fill-opacity="0.031373" stroke="#000000" stroke-width="2" stroke-opacity="0.250980" d="M354.5,-443C354.5,-443 735.25,-443 735.25,-443 741.25,-443 747.25,-449 747.25,-455 747.25,-455 747.25,-1604 747.25,-1604 747.25,-1610 741.25,-1616 735.25,-1616 735.25,-1616 354.5,-1616 354.5,-1616 348.5,-1616 342.5,-1610 342.5,-1604 342.5,-1604 342.5,-455 342.5,-455 342.5,-449 348.5,-443 354.5,-443"/>
<text text-anchor="middle" x="544.88" y="-1598.7" font-family="Helvetica,sans-Serif" font-size="14.00" fill="#000000">TrackAssets</text>
</a>
</g>
</g>
<g id="clust3" class="cluster">
<title>clusternode_Set(23)</title>
<g id="a_clust3"><a xlink:title="Backend">
<path fill="#000000" fill-opacity="0.031373" stroke="#000000" stroke-width="2" stroke-opacity="0.250980" d="M492.5,-1624C492.5,-1624 597.25,-1624 597.25,-1624 603.25,-1624 609.25,-1630 609.25,-1636 609.25,-1636 609.25,-1751 609.25,-1751 609.25,-1757 603.25,-1763 597.25,-1763 597.25,-1763 492.5,-1763 492.5,-1763 486.5,-1763 480.5,-1757 480.5,-1751 480.5,-1751 480.5,-1636 480.5,-1636 480.5,-1630 486.5,-1624 492.5,-1624"/>
<text text-anchor="middle" x="544.88" y="-1745.7" font-family="Helvetica,sans-Serif" font-size="14.00" fill="#000000">Backend</text>
</a>
</g>
</g>
<g id="clust4" class="cluster">
<title>clusternode_Set(26)</title>
<g id="a_clust4"><a xlink:title="Focus">
<path fill="#000000" fill-opacity="0.031373" stroke="#000000" stroke-width="2" stroke-opacity="0.250980" d="M847.12,-8C847.12,-8 969.12,-8 969.12,-8 975.12,-8 981.12,-14 981.12,-20 981.12,-20 981.12,-88 981.12,-88 981.12,-94 975.12,-100 969.12,-100 969.12,-100 847.12,-100 847.12,-100 841.12,-100 835.12,-94 835.12,-88 835.12,-88 835.12,-20 835.12,-20 835.12,-14 841.12,-8 847.12,-8"/>
<text text-anchor="middle" x="908.12" y="-82.7" font-family="Helvetica,sans-Serif" font-size="14.00" fill="#000000">Focus</text>
</a>
</g>
</g>
<g id="clust5" class="cluster">
<title>clusternode_Set(43)</title>
<g id="a_clust5"><a xlink:title="ProcessInput">
<path fill="#000000" fill-opacity="0.031373" stroke="#000000" stroke-width="2" stroke-opacity="0.250980" d="M82,-1771C82,-1771 586,-1771 586,-1771 592,-1771 598,-1777 598,-1783 598,-1783 598,-1898 598,-1898 598,-1904 592,-1910 586,-1910 586,-1910 82,-1910 82,-1910 76,-1910 70,-1904 70,-1898 70,-1898 70,-1783 70,-1783 70,-1777 76,-1771 82,-1771"/>
<text text-anchor="middle" x="334" y="-1892.7" font-family="Helvetica,sans-Serif" font-size="14.00" fill="#000000">ProcessInput</text>
</a>
</g>
</g>
<g id="clust6" class="cluster">
<title>clusternode_Set(46)</title>
<g id="a_clust6"><a xlink:title="Focus">
<path fill="#000000" fill-opacity="0.031373" stroke="#000000" stroke-width="2" stroke-opacity="0.250980" d="M857.62,-1624C857.62,-1624 1381,-1624 1381,-1624 1387,-1624 1393,-1630 1393,-1636 1393,-1636 1393,-1704 1393,-1704 1393,-1710 1387,-1716 1381,-1716 1381,-1716 857.62,-1716 857.62,-1716 851.62,-1716 845.62,-1710 845.62,-1704 845.62,-1704 845.62,-1636 845.62,-1636 845.62,-1630 851.62,-1624 857.62,-1624"/>
<text text-anchor="middle" x="1119.31" y="-1698.7" font-family="Helvetica,sans-Serif" font-size="14.00" fill="#000000">Focus</text>
</a>
</g>
</g>
<g id="clust7" class="cluster">
<title>clusternode_Set(47)</title>
<g id="a_clust7"><a xlink:title="PostFocus">
<path fill="#000000" fill-opacity="0.031373" stroke="#000000" stroke-width="2" stroke-opacity="0.250980" d="M1106.38,-1571C1106.38,-1571 1167.38,-1571 1167.38,-1571 1173.38,-1571 1179.38,-1577 1179.38,-1583 1179.38,-1583 1179.38,-1604 1179.38,-1604 1179.38,-1610 1173.38,-1616 1167.38,-1616 1167.38,-1616 1106.38,-1616 1106.38,-1616 1100.38,-1616 1094.38,-1610 1094.38,-1604 1094.38,-1604 1094.38,-1583 1094.38,-1583 1094.38,-1577 1100.38,-1571 1106.38,-1571"/>
<text text-anchor="middle" x="1136.88" y="-1598.7" font-family="Helvetica,sans-Serif" font-size="14.00" fill="#000000">PostFocus</text>
</a>
</g>
</g>
<g id="clust8" class="cluster">
<title>clusternode_Set(48)</title>
<g id="a_clust8"><a xlink:title="Last">
<path fill="#000000" fill-opacity="0.031373" stroke="#000000" stroke-width="2" stroke-opacity="0.250980" d="M1298.62,-1571C1298.62,-1571 1319.12,-1571 1319.12,-1571 1325.12,-1571 1331.12,-1577 1331.12,-1583 1331.12,-1583 1331.12,-1604 1331.12,-1604 1331.12,-1610 1325.12,-1616 1319.12,-1616 1319.12,-1616 1298.62,-1616 1298.62,-1616 1292.62,-1616 1286.62,-1610 1286.62,-1604 1286.62,-1604 1286.62,-1583 1286.62,-1583 1286.62,-1577 1292.62,-1571 1298.62,-1571"/>
<text text-anchor="middle" x="1308.88" y="-1598.7" font-family="Helvetica,sans-Serif" font-size="14.00" fill="#000000">Last</text>
</a>
</g>
</g>
<!-- set_marker_node_Set(1) -->
<!-- node_System(22) -->
<g id="node38" class="node">
<title>node_System(22)</title>
<g id="a_node38"><a xlink:title="bevy_ui::focus::ui_focus_system">
<polygon fill="#ffb1e5" stroke="#ff4bc2" points="973.12,-67 843.12,-67 843.12,-31 973.12,-31 973.12,-67"/>
<text text-anchor="middle" x="908.12" y="-44.33" font-family="Helvetica,sans-Serif" font-size="14.00" fill="#320021">ui_focus_system</text>
</a>
</g>
</g>
<!-- set_marker_node_Set(1)&#45;&gt;node_System(22) -->
<g id="edge3" class="edge">
<title>set_marker_node_Set(1)&#45;&gt;node_System(22)</title>
<g id="a_edge3"><a xlink:title="InputSystem → ui_focus_system">
<path fill="none" stroke="#00b0cc" stroke-width="2" d="M598.21,-108C659.16,-96.36 760.4,-77.02 830.28,-63.68"/>
<polygon fill="#00b0cc" stroke="#00b0cc" stroke-width="2" points="830.77,-67.15 839.93,-61.83 829.45,-60.27 830.77,-67.15"/>
</a>
</g>
</g>
<!-- node_System(0) -->
<g id="node2" class="node">
<title>node_System(0)</title>
<g id="a_node2"><a xlink:title="bevy_input::keyboard::keyboard_input_system">
<polygon fill="#d36aaf" stroke="#a5317d" points="634.62,-167 455.12,-167 455.12,-131 634.62,-131 634.62,-167"/>
<text text-anchor="middle" x="544.88" y="-144.32" font-family="Helvetica,sans-Serif" font-size="14.00" fill="#270b1d">keyboard_input_system</text>
</a>
</g>
</g>
<!-- node_System(1) -->
<g id="node3" class="node">
<title>node_System(1)</title>
<g id="a_node3"><a xlink:title="bevy_input::mouse::mouse_button_input_system">
<polygon fill="#d36aaf" stroke="#a5317d" points="652.25,-214 437.5,-214 437.5,-178 652.25,-178 652.25,-214"/>
<text text-anchor="middle" x="544.88" y="-191.32" font-family="Helvetica,sans-Serif" font-size="14.00" fill="#270b1d">mouse_button_input_system</text>
</a>
</g>
</g>
<!-- node_System(2) -->
<g id="node4" class="node">
<title>node_System(2)</title>
<g id="a_node4"><a xlink:title="bevy_input::mouse::accumulate_mouse_motion_system">
<polygon fill="#d36aaf" stroke="#a5317d" points="675.5,-261 414.25,-261 414.25,-225 675.5,-225 675.5,-261"/>
<text text-anchor="middle" x="544.88" y="-238.32" font-family="Helvetica,sans-Serif" font-size="14.00" fill="#270b1d">accumulate_mouse_motion_system</text>
</a>
</g>
</g>
<!-- node_System(3) -->
<g id="node5" class="node">
<title>node_System(3)</title>
<g id="a_node5"><a xlink:title="bevy_input::mouse::accumulate_mouse_scroll_system">
<polygon fill="#d36aaf" stroke="#a5317d" points="669.5,-308 420.25,-308 420.25,-272 669.5,-272 669.5,-308"/>
<text text-anchor="middle" x="544.88" y="-285.32" font-family="Helvetica,sans-Serif" font-size="14.00" fill="#270b1d">accumulate_mouse_scroll_system</text>
</a>
</g>
</g>
<!-- node_System(4) -->
<g id="node6" class="node">
<title>node_System(4)</title>
<g id="a_node6"><a xlink:title="bevy_input::gamepad::gamepad_connection_system">
<polygon fill="#d36aaf" stroke="#a5317d" points="655.25,-355 434.5,-355 434.5,-319 655.25,-319 655.25,-355"/>
<text text-anchor="middle" x="544.88" y="-332.32" font-family="Helvetica,sans-Serif" font-size="14.00" fill="#270b1d">gamepad_connection_system</text>
</a>
</g>
</g>
<!-- node_System(5) -->
<g id="node7" class="node">
<title>node_System(5)</title>
<g id="a_node7"><a xlink:title="bevy_input::gamepad::gamepad_event_processing_system">
<polygon fill="#d36aaf" stroke="#a5317d" points="1041,-355 775.25,-355 775.25,-319 1041,-319 1041,-355"/>
<text text-anchor="middle" x="908.12" y="-332.32" font-family="Helvetica,sans-Serif" font-size="14.00" fill="#270b1d">gamepad_event_processing_system</text>
</a>
</g>
</g>
<!-- node_System(4)&#45;&gt;node_System(5) -->
<g id="edge1" class="edge">
<title>node_System(4)&#45;&gt;node_System(5)</title>
<g id="a_edge1"><a xlink:title="SystemTypeSet(fn bevy_ecs::system::function_system::FunctionSystem&lt;fn(bevy_ecs::system::commands::Commands, bevy_ecs::event::reader::EventReader&lt;bevy_input::gamepad::GamepadConnectionEvent&gt;), bevy_input::gamepad::gamepad_connection_system&gt;()) → gamepad_event_processing_system">
<path fill="none" stroke="#eede00" stroke-width="2" d="M655.73,-337C689.2,-337 726.51,-337 761.93,-337"/>
<polygon fill="#eede00" stroke="#eede00" stroke-width="2" points="761.85,-340.5 771.85,-337 761.85,-333.5 761.85,-340.5"/>
</a>
</g>
</g>
<!-- node_System(6) -->
<g id="node8" class="node">
<title>node_System(6)</title>
<g id="a_node8"><a xlink:title="bevy_input::touch::touch_screen_input_system">
<polygon fill="#d36aaf" stroke="#a5317d" points="648.5,-402 441.25,-402 441.25,-366 648.5,-366 648.5,-402"/>
<text text-anchor="middle" x="544.88" y="-379.32" font-family="Helvetica,sans-Serif" font-size="14.00" fill="#270b1d">touch_screen_input_system</text>
</a>
</g>
</g>
<!-- set_marker_node_Set(9) -->
<!-- node_System(7) -->
<g id="node10" class="node">
<title>node_System(7)</title>
<g id="a_node10"><a xlink:title="bevy_asset::assets::Assets&lt;bevy_asset::folder::LoadedFolder&gt;::track_assets">
<polygon fill="#d1cbc5" stroke="#a3988c" points="677.38,-502 412.38,-502 412.38,-466 677.38,-466 677.38,-502"/>
<text text-anchor="middle" x="544.88" y="-479.32" font-family="Helvetica,sans-Serif" font-size="14.00" fill="#1c1916">Assets&lt;LoadedFolder&gt;track_assets</text>
</a>
</g>
</g>
<!-- node_System(8) -->
<g id="node11" class="node">
<title>node_System(8)</title>
<g id="a_node11"><a xlink:title="bevy_asset::assets::Assets&lt;bevy_asset::assets::LoadedUntypedAsset&gt;::track_assets">
<polygon fill="#d1cbc5" stroke="#a3988c" points="704.75,-549 385,-549 385,-513 704.75,-513 704.75,-549"/>
<text text-anchor="middle" x="544.88" y="-526.33" font-family="Helvetica,sans-Serif" font-size="14.00" fill="#1c1916">Assets&lt;LoadedUntypedAsset&gt;track_assets</text>
</a>
</g>
</g>
<!-- node_System(9) -->
<g id="node12" class="node">
<title>node_System(9)</title>
<g id="a_node12"><a xlink:title="bevy_asset::assets::Assets&lt;()&gt;::track_assets">
<polygon fill="#d1cbc5" stroke="#a3988c" points="636.12,-596 453.62,-596 453.62,-560 636.12,-560 636.12,-596"/>
<text text-anchor="middle" x="544.88" y="-573.33" font-family="Helvetica,sans-Serif" font-size="14.00" fill="#1c1916">Assets&lt;()&gt;track_assets</text>
</a>
</g>
</g>
<!-- node_System(11) -->
<g id="node13" class="node">
<title>node_System(11)</title>
<g id="a_node13"><a xlink:title="bevy_asset::assets::Assets&lt;bevy_scene::dynamic_scene::DynamicScene&gt;::track_assets">
<polygon fill="#d1cbc5" stroke="#a3988c" points="682.25,-643 407.5,-643 407.5,-607 682.25,-607 682.25,-643"/>
<text text-anchor="middle" x="544.88" y="-620.33" font-family="Helvetica,sans-Serif" font-size="14.00" fill="#1c1916">Assets&lt;DynamicScene&gt;track_assets</text>
</a>
</g>
</g>
<!-- node_System(12) -->
<g id="node14" class="node">
<title>node_System(12)</title>
<g id="a_node14"><a xlink:title="bevy_asset::assets::Assets&lt;bevy_scene::scene::Scene&gt;::track_assets">
<polygon fill="#d1cbc5" stroke="#a3988c" points="651.88,-690 437.88,-690 437.88,-654 651.88,-654 651.88,-690"/>
<text text-anchor="middle" x="544.88" y="-667.33" font-family="Helvetica,sans-Serif" font-size="14.00" fill="#1c1916">Assets&lt;Scene&gt;track_assets</text>
</a>
</g>
</g>
<!-- node_System(13) -->
<g id="node15" class="node">
<title>node_System(13)</title>
<g id="a_node15"><a xlink:title="bevy_asset::assets::Assets&lt;bevy_render::render_resource::shader::Shader&gt;::track_assets">
<polygon fill="#d1cbc5" stroke="#a3988c" points="655.62,-737 434.12,-737 434.12,-701 655.62,-701 655.62,-737"/>
<text text-anchor="middle" x="544.88" y="-714.33" font-family="Helvetica,sans-Serif" font-size="14.00" fill="#1c1916">Assets&lt;Shader&gt;track_assets</text>
</a>
</g>
</g>
<!-- node_System(14) -->
<g id="node16" class="node">
<title>node_System(14)</title>
<g id="a_node16"><a xlink:title="bevy_asset::assets::Assets&lt;bevy_mesh::mesh::Mesh&gt;::track_assets">
<polygon fill="#d1cbc5" stroke="#a3988c" points="649.25,-784 440.5,-784 440.5,-748 649.25,-748 649.25,-784"/>
<text text-anchor="middle" x="544.88" y="-761.33" font-family="Helvetica,sans-Serif" font-size="14.00" fill="#1c1916">Assets&lt;Mesh&gt;track_assets</text>
</a>
</g>
</g>
<!-- node_System(15) -->
<g id="node17" class="node">
<title>node_System(15)</title>
<g id="a_node17"><a xlink:title="bevy_asset::assets::Assets&lt;bevy_mesh::skinning::SkinnedMeshInverseBindposes&gt;::track_assets">
<polygon fill="#d1cbc5" stroke="#a3988c" points="739.25,-831 350.5,-831 350.5,-795 739.25,-795 739.25,-831"/>
<text text-anchor="middle" x="544.88" y="-808.33" font-family="Helvetica,sans-Serif" font-size="14.00" fill="#1c1916">Assets&lt;SkinnedMeshInverseBindposes&gt;track_assets</text>
</a>
</g>
</g>
<!-- node_System(16) -->
<g id="node18" class="node">
<title>node_System(16)</title>
<g id="a_node18"><a xlink:title="bevy_asset::assets::Assets&lt;bevy_render::storage::ShaderStorageBuffer&gt;::track_assets">
<polygon fill="#d1cbc5" stroke="#a3988c" points="704,-878 385.75,-878 385.75,-842 704,-842 704,-878"/>
<text text-anchor="middle" x="544.88" y="-855.33" font-family="Helvetica,sans-Serif" font-size="14.00" fill="#1c1916">Assets&lt;ShaderStorageBuffer&gt;track_assets</text>
</a>
</g>
</g>
<!-- node_System(17) -->
<g id="node19" class="node">
<title>node_System(17)</title>
<g id="a_node19"><a xlink:title="bevy_asset::assets::Assets&lt;bevy_image::image::Image&gt;::track_assets">
<polygon fill="#d1cbc5" stroke="#a3988c" points="652.62,-925 437.12,-925 437.12,-889 652.62,-889 652.62,-925"/>
<text text-anchor="middle" x="544.88" y="-902.33" font-family="Helvetica,sans-Serif" font-size="14.00" fill="#1c1916">Assets&lt;Image&gt;track_assets</text>
</a>
</g>
</g>
<!-- node_System(18) -->
<g id="node20" class="node">
<title>node_System(18)</title>
<g id="a_node20"><a xlink:title="bevy_asset::assets::Assets&lt;bevy_sprite::texture_atlas::TextureAtlasLayout&gt;::track_assets">
<polygon fill="#d1cbc5" stroke="#a3988c" points="696.12,-972 393.62,-972 393.62,-936 696.12,-936 696.12,-972"/>
<text text-anchor="middle" x="544.88" y="-949.33" font-family="Helvetica,sans-Serif" font-size="14.00" fill="#1c1916">Assets&lt;TextureAtlasLayout&gt;track_assets</text>
</a>
</g>
</g>
<!-- node_System(19) -->
<g id="node21" class="node">
<title>node_System(19)</title>
<g id="a_node21"><a xlink:title="bevy_asset::assets::Assets&lt;bevy_sprite::mesh2d::color_material::ColorMaterial&gt;::track_assets">
<polygon fill="#d1cbc5" stroke="#a3988c" points="676.62,-1019 413.12,-1019 413.12,-983 676.62,-983 676.62,-1019"/>
<text text-anchor="middle" x="544.88" y="-996.33" font-family="Helvetica,sans-Serif" font-size="14.00" fill="#1c1916">Assets&lt;ColorMaterial&gt;track_assets</text>
</a>
</g>
</g>
<!-- node_System(21) -->
<g id="node22" class="node">
<title>node_System(21)</title>
<g id="a_node22"><a xlink:title="bevy_asset::assets::Assets&lt;bevy_text::font::Font&gt;::track_assets">
<polygon fill="#d1cbc5" stroke="#a3988c" points="645.88,-1066 443.88,-1066 443.88,-1030 645.88,-1030 645.88,-1066"/>
<text text-anchor="middle" x="544.88" y="-1043.33" font-family="Helvetica,sans-Serif" font-size="14.00" fill="#1c1916">Assets&lt;Font&gt;track_assets</text>
</a>
</g>
</g>
<!-- node_System(24) -->
<g id="node23" class="node">
<title>node_System(24)</title>
<g id="a_node23"><a xlink:title="bevy_asset::assets::Assets&lt;bevy_pbr::pbr_material::StandardMaterial&gt;::track_assets">
<polygon fill="#d1cbc5" stroke="#a3988c" points="690.12,-1113 399.62,-1113 399.62,-1077 690.12,-1077 690.12,-1113"/>
<text text-anchor="middle" x="544.88" y="-1090.33" font-family="Helvetica,sans-Serif" font-size="14.00" fill="#1c1916">Assets&lt;StandardMaterial&gt;track_assets</text>
</a>
</g>
</g>
<!-- node_System(27) -->
<g id="node24" class="node">
<title>node_System(27)</title>
<g id="a_node24"><a xlink:title="bevy_asset::assets::Assets&lt;bevy_gltf::Gltf&gt;::track_assets">
<polygon fill="#d1cbc5" stroke="#a3988c" points="643.25,-1160 446.5,-1160 446.5,-1124 643.25,-1124 643.25,-1160"/>
<text text-anchor="middle" x="544.88" y="-1137.33" font-family="Helvetica,sans-Serif" font-size="14.00" fill="#1c1916">Assets&lt;Gltf&gt;track_assets</text>
</a>
</g>
</g>
<!-- node_System(28) -->
<g id="node25" class="node">
<title>node_System(28)</title>
<g id="a_node25"><a xlink:title="bevy_asset::assets::Assets&lt;bevy_gltf::GltfNode&gt;::track_assets">
<polygon fill="#d1cbc5" stroke="#a3988c" points="661.25,-1207 428.5,-1207 428.5,-1171 661.25,-1171 661.25,-1207"/>
<text text-anchor="middle" x="544.88" y="-1184.33" font-family="Helvetica,sans-Serif" font-size="14.00" fill="#1c1916">Assets&lt;GltfNode&gt;track_assets</text>
</a>
</g>
</g>
<!-- node_System(29) -->
<g id="node26" class="node">
<title>node_System(29)</title>
<g id="a_node26"><a xlink:title="bevy_asset::assets::Assets&lt;bevy_gltf::GltfPrimitive&gt;::track_assets">
<polygon fill="#d1cbc5" stroke="#a3988c" points="673.62,-1254 416.12,-1254 416.12,-1218 673.62,-1218 673.62,-1254"/>
<text text-anchor="middle" x="544.88" y="-1231.33" font-family="Helvetica,sans-Serif" font-size="14.00" fill="#1c1916">Assets&lt;GltfPrimitive&gt;track_assets</text>
</a>
</g>
</g>
<!-- node_System(30) -->
<g id="node27" class="node">
<title>node_System(30)</title>
<g id="a_node27"><a xlink:title="bevy_asset::assets::Assets&lt;bevy_gltf::GltfMesh&gt;::track_assets">
<polygon fill="#d1cbc5" stroke="#a3988c" points="661.62,-1301 428.12,-1301 428.12,-1265 661.62,-1265 661.62,-1301"/>
<text text-anchor="middle" x="544.88" y="-1278.33" font-family="Helvetica,sans-Serif" font-size="14.00" fill="#1c1916">Assets&lt;GltfMesh&gt;track_assets</text>
</a>
</g>
</g>
<!-- node_System(31) -->
<g id="node28" class="node">
<title>node_System(31)</title>
<g id="a_node28"><a xlink:title="bevy_asset::assets::Assets&lt;bevy_gltf::GltfSkin&gt;::track_assets">
<polygon fill="#d1cbc5" stroke="#a3988c" points="658.25,-1348 431.5,-1348 431.5,-1312 658.25,-1312 658.25,-1348"/>
<text text-anchor="middle" x="544.88" y="-1325.33" font-family="Helvetica,sans-Serif" font-size="14.00" fill="#1c1916">Assets&lt;GltfSkin&gt;track_assets</text>
</a>
</g>
</g>
<!-- node_System(32) -->
<g id="node29" class="node">
<title>node_System(32)</title>
<g id="a_node29"><a xlink:title="bevy_asset::assets::Assets&lt;bevy_audio::audio_source::AudioSource&gt;::track_assets">
<polygon fill="#d1cbc5" stroke="#a3988c" points="674.38,-1395 415.38,-1395 415.38,-1359 674.38,-1359 674.38,-1395"/>
<text text-anchor="middle" x="544.88" y="-1372.33" font-family="Helvetica,sans-Serif" font-size="14.00" fill="#1c1916">Assets&lt;AudioSource&gt;track_assets</text>
</a>
</g>
</g>
<!-- node_System(33) -->
<g id="node30" class="node">
<title>node_System(33)</title>
<g id="a_node30"><a xlink:title="bevy_asset::assets::Assets&lt;bevy_audio::pitch::Pitch&gt;::track_assets">
<polygon fill="#d1cbc5" stroke="#a3988c" points="647.75,-1442 442,-1442 442,-1406 647.75,-1406 647.75,-1442"/>
<text text-anchor="middle" x="544.88" y="-1419.33" font-family="Helvetica,sans-Serif" font-size="14.00" fill="#1c1916">Assets&lt;Pitch&gt;track_assets</text>
</a>
</g>
</g>
<!-- node_System(35) -->
<g id="node31" class="node">
<title>node_System(35)</title>
<g id="a_node31"><a xlink:title="bevy_asset::assets::Assets&lt;bevy_animation::AnimationClip&gt;::track_assets">
<polygon fill="#d1cbc5" stroke="#a3988c" points="679.25,-1489 410.5,-1489 410.5,-1453 679.25,-1453 679.25,-1489"/>
<text text-anchor="middle" x="544.88" y="-1466.33" font-family="Helvetica,sans-Serif" font-size="14.00" fill="#1c1916">Assets&lt;AnimationClip&gt;track_assets</text>
</a>
</g>
</g>
<!-- node_System(36) -->
<g id="node32" class="node">
<title>node_System(36)</title>
<g id="a_node32"><a xlink:title="bevy_asset::assets::Assets&lt;bevy_animation::graph::AnimationGraph&gt;::track_assets">
<polygon fill="#d1cbc5" stroke="#a3988c" points="687.5,-1536 402.25,-1536 402.25,-1500 687.5,-1500 687.5,-1536"/>
<text text-anchor="middle" x="544.88" y="-1513.33" font-family="Helvetica,sans-Serif" font-size="14.00" fill="#1c1916">Assets&lt;AnimationGraph&gt;track_assets</text>
</a>
</g>
</g>
<!-- node_System(37) -->
<g id="node33" class="node">
<title>node_System(37)</title>
<g id="a_node33"><a xlink:title="bevy_asset::assets::Assets&lt;bevy_gizmos::LineGizmo&gt;::track_assets">
<polygon fill="#d1cbc5" stroke="#a3988c" points="666.88,-1583 422.88,-1583 422.88,-1547 666.88,-1547 666.88,-1583"/>
<text text-anchor="middle" x="544.88" y="-1560.33" font-family="Helvetica,sans-Serif" font-size="14.00" fill="#1c1916">Assets&lt;LineGizmo&gt;track_assets</text>
</a>
</g>
</g>
<!-- set_marker_node_Set(23) -->
<!-- set_marker_node_Set(46) -->
<!-- set_marker_node_Set(23)&#45;&gt;set_marker_node_Set(46) -->
<g id="edge7" class="edge">
<title>set_marker_node_Set(23)&#45;&gt;set_marker_node_Set(46)</title>
<g id="a_edge7"><a xlink:title="Backend → Focus">
<path fill="none" stroke="#ee9e44" stroke-width="2" d="M609.25,-1634C671.62,-1634 766.83,-1634 832.75,-1634"/>
<polygon fill="#ee9e44" stroke="#ee9e44" stroke-width="2" points="832.6,-1637.5 842.6,-1634 832.6,-1630.5 832.6,-1637.5"/>
</a>
</g>
</g>
<!-- node_System(20) -->
<g id="node35" class="node">
<title>node_System(20)</title>
<g id="a_node35"><a xlink:title="bevy_sprite::picking_backend::sprite_picking">
<polygon fill="#eff1f3" stroke="#b4bec7" points="601.25,-1683 488.5,-1683 488.5,-1647 601.25,-1647 601.25,-1683"/>
<text text-anchor="middle" x="544.88" y="-1660.33" font-family="Helvetica,sans-Serif" font-size="14.00" fill="#15191d">sprite_picking</text>
</a>
</g>
</g>
<!-- node_System(23) -->
<g id="node36" class="node">
<title>node_System(23)</title>
<g id="a_node36"><a xlink:title="bevy_ui::picking_backend::ui_picking">
<polygon fill="#ffb1e5" stroke="#ff4bc2" points="587.75,-1730 502,-1730 502,-1694 587.75,-1694 587.75,-1730"/>
<text text-anchor="middle" x="544.88" y="-1707.33" font-family="Helvetica,sans-Serif" font-size="14.00" fill="#320021">ui_picking</text>
</a>
</g>
</g>
<!-- set_marker_node_Set(26) -->
<!-- set_marker_node_Set(43) -->
<!-- set_marker_node_Set(43)&#45;&gt;set_marker_node_Set(23) -->
<g id="edge6" class="edge">
<title>set_marker_node_Set(43)&#45;&gt;set_marker_node_Set(23)</title>
<g id="a_edge6"><a xlink:title="ProcessInput → Backend">
<path fill="none" stroke="#0090cc" stroke-width="2" d="M167.09,-1771C191.66,-1744.04 264.13,-1669.99 342.5,-1642 382.13,-1627.85 428.98,-1625.23 467.51,-1626.43"/>
<polygon fill="#0090cc" stroke="#0090cc" stroke-width="2" points="467.34,-1629.92 477.48,-1626.85 467.64,-1622.93 467.34,-1629.92"/>
</a>
</g>
</g>
<!-- node_System(38) -->
<g id="node40" class="node">
<title>node_System(38)</title>
<g id="a_node40"><a xlink:title="bevy_picking::pointer::update_pointer_map">
<polygon fill="#eff1f3" stroke="#b4bec7" points="236.5,-1830 78,-1830 78,-1794 236.5,-1794 236.5,-1830"/>
<text text-anchor="middle" x="157.25" y="-1807.33" font-family="Helvetica,sans-Serif" font-size="14.00" fill="#15191d">update_pointer_map</text>
</a>
</g>
</g>
<!-- node_System(39) -->
<g id="node41" class="node">
<title>node_System(39)</title>
<g id="a_node41"><a xlink:title="bevy_picking::pointer::PointerInput::receive">
<polygon fill="#eff1f3" stroke="#b4bec7" points="190,-1877 124.5,-1877 124.5,-1841 190,-1841 190,-1877"/>
<text text-anchor="middle" x="157.25" y="-1854.33" font-family="Helvetica,sans-Serif" font-size="14.00" fill="#15191d">receive</text>
</a>
</g>
</g>
<!-- node_System(40) -->
<g id="node42" class="node">
<title>node_System(40)</title>
<g id="a_node42"><a xlink:title="bevy_picking::backend::ray::RayMap::repopulate">
<polygon fill="#eff1f3" stroke="#b4bec7" points="590,-1877 499.75,-1877 499.75,-1841 590,-1841 590,-1877"/>
<text text-anchor="middle" x="544.88" y="-1854.33" font-family="Helvetica,sans-Serif" font-size="14.00" fill="#15191d">repopulate</text>
</a>
</g>
</g>
<!-- node_System(39)&#45;&gt;node_System(40) -->
<g id="edge5" class="edge">
<title>node_System(39)&#45;&gt;node_System(40)</title>
<g id="a_edge5"><a xlink:title="SystemTypeSet(fn bevy_ecs::system::function_system::FunctionSystem&lt;fn(bevy_ecs::event::reader::EventReader&lt;bevy_picking::pointer::PointerInput&gt;, bevy_ecs::system::query::Query&lt;(&amp;bevy_picking::pointer::PointerId, &amp;mut bevy_picking::pointer::PointerLocation, &amp;mut bevy_picking::pointer::PointerPress)&gt;), bevy_picking::pointer::PointerInput::receive&gt;()) → repopulate">
<path fill="none" stroke="#44d488" stroke-width="2" d="M190.46,-1859C255.78,-1859 404.54,-1859 486.71,-1859"/>
<polygon fill="#44d488" stroke="#44d488" stroke-width="2" points="486.52,-1862.5 496.52,-1859 486.52,-1855.5 486.52,-1862.5"/>
</a>
</g>
</g>
<!-- set_marker_node_Set(47) -->
<!-- set_marker_node_Set(46)&#45;&gt;set_marker_node_Set(47) -->
<g id="edge8" class="edge">
<title>set_marker_node_Set(46)&#45;&gt;set_marker_node_Set(47)</title>
<g id="a_edge8"><a xlink:title="Focus → PostFocus">
<path fill="none" stroke="#663699" stroke-width="2" d="M951.79,-1624C988.67,-1615.37 1042.14,-1602.84 1081.87,-1593.53"/>
<polygon fill="#663699" stroke="#663699" stroke-width="2" points="1082.49,-1596.98 1091.43,-1591.29 1080.9,-1590.17 1082.49,-1596.98"/>
</a>
</g>
</g>
<!-- node_System(41) -->
<g id="node44" class="node">
<title>node_System(41)</title>
<g id="a_node44"><a xlink:title="bevy_picking::focus::update_focus">
<polygon fill="#eff1f3" stroke="#b4bec7" points="962.62,-1683 853.62,-1683 853.62,-1647 962.62,-1647 962.62,-1683"/>
<text text-anchor="middle" x="908.12" y="-1660.33" font-family="Helvetica,sans-Serif" font-size="14.00" fill="#15191d">update_focus</text>
</a>
</g>
</g>
<!-- node_System(42) -->
<g id="node45" class="node">
<title>node_System(42)</title>
<g id="a_node45"><a xlink:title="bevy_picking::events::pointer_events">
<polygon fill="#eff1f3" stroke="#b4bec7" points="1195.75,-1683 1077,-1683 1077,-1647 1195.75,-1647 1195.75,-1683"/>
<text text-anchor="middle" x="1136.38" y="-1660.33" font-family="Helvetica,sans-Serif" font-size="14.00" fill="#15191d">pointer_events</text>
</a>
</g>
</g>
<!-- node_System(41)&#45;&gt;node_System(42) -->
<g id="edge10" class="edge">
<title>node_System(41)&#45;&gt;node_System(42)</title>
<g id="a_edge10"><a xlink:title="update_focus → pointer_events">
<path fill="none" stroke="#22c2bb" stroke-width="2" d="M963.03,-1665C993.26,-1665 1031.35,-1665 1064.03,-1665"/>
<polygon fill="#22c2bb" stroke="#22c2bb" stroke-width="2" points="1063.7,-1668.5 1073.7,-1665 1063.7,-1661.5 1063.7,-1668.5"/>
</a>
</g>
</g>
<!-- node_System(43) -->
<g id="node46" class="node">
<title>node_System(43)</title>
<g id="a_node46"><a xlink:title="bevy_picking::focus::update_interactions">
<polygon fill="#eff1f3" stroke="#b4bec7" points="1385,-1683 1231.75,-1683 1231.75,-1647 1385,-1647 1385,-1683"/>
<text text-anchor="middle" x="1308.38" y="-1660.33" font-family="Helvetica,sans-Serif" font-size="14.00" fill="#15191d">update_interactions</text>
</a>
</g>
</g>
<!-- node_System(42)&#45;&gt;node_System(43) -->
<g id="edge11" class="edge">
<title>node_System(42)&#45;&gt;node_System(43)</title>
<g id="a_edge11"><a xlink:title="pointer_events → update_interactions">
<path fill="none" stroke="#99d955" stroke-width="2" d="M1195.88,-1665C1203.2,-1665 1210.81,-1665 1218.47,-1665"/>
<polygon fill="#99d955" stroke="#99d955" stroke-width="2" points="1218.32,-1668.5 1228.32,-1665 1218.32,-1661.5 1218.32,-1668.5"/>
</a>
</g>
</g>
<!-- set_marker_node_Set(48) -->
<!-- set_marker_node_Set(47)&#45;&gt;set_marker_node_Set(48) -->
<g id="edge9" class="edge">
<title>set_marker_node_Set(47)&#45;&gt;set_marker_node_Set(48)</title>
<g id="a_edge9"><a xlink:title="PostFocus → Last">
<path fill="none" stroke="#3363bb" stroke-width="2" d="M1179.37,-1581C1208.44,-1581 1246.61,-1581 1273.68,-1581"/>
<polygon fill="#3363bb" stroke="#3363bb" stroke-width="2" points="1273.6,-1584.5 1283.6,-1581 1273.6,-1577.5 1273.6,-1584.5"/>
</a>
</g>
</g>
<!-- node_System(10) -->
<g id="node49" class="node">
<title>node_System(10)</title>
<g id="a_node49"><a xlink:title="bevy_asset::server::handle_internal_asset_events">
<polygon fill="lightgrey" stroke="black" points="269.88,-471 44.62,-471 44.62,-435 269.88,-435 269.88,-471"/>
<text text-anchor="middle" x="157.25" y="-448.32" font-family="Times,serif" font-size="14.00">handle_internal_asset_events</text>
</a>
</g>
</g>
<!-- node_System(10)&#45;&gt;set_marker_node_Set(9) -->
<g id="edge2" class="edge">
<title>node_System(10)&#45;&gt;set_marker_node_Set(9)</title>
<g id="a_edge2"><a xlink:title="SystemTypeSet(fn bevy_ecs::system::exclusive_function_system::ExclusiveFunctionSystem&lt;fn(), bevy_asset::server::handle_internal_asset_events&gt;()) → TrackAssets">
<path fill="none" stroke="#881877" stroke-width="2" d="M270.31,-453C289.17,-453 309.29,-453 329.74,-453"/>
<polygon fill="#881877" stroke="#881877" stroke-width="2" points="329.48,-456.5 339.48,-453 329.48,-449.5 329.48,-456.5"/>
</a>
</g>
</g>
<!-- node_System(25) -->
<g id="node50" class="node">
<title>node_System(25)</title>
<g id="a_node50"><a xlink:title="bevy_pbr::prepass::update_mesh_previous_global_transforms">
<polygon fill="lightgrey" stroke="black" points="314.5,-1954 0,-1954 0,-1918 314.5,-1918 314.5,-1954"/>
<text text-anchor="middle" x="157.25" y="-1931.33" font-family="Times,serif" font-size="14.00">update_mesh_previous_global_transforms</text>
</a>
</g>
</g>
<!-- node_System(26) -->
<g id="node51" class="node">
<title>node_System(26)</title>
<g id="a_node51"><a xlink:title="bevy_pbr::prepass::update_previous_view_data">
<polygon fill="lightgrey" stroke="black" points="263.12,-2001 51.38,-2001 51.38,-1965 263.12,-1965 263.12,-2001"/>
<text text-anchor="middle" x="157.25" y="-1978.33" font-family="Times,serif" font-size="14.00">update_previous_view_data</text>
</a>
</g>
</g>
<!-- node_System(34) -->
<g id="node52" class="node">
<title>node_System(34)</title>
<g id="a_node52"><a xlink:title="bevy_gilrs::gilrs_system::gilrs_event_system">
<polygon fill="lightgrey" stroke="black" points="233.5,-136 81,-136 81,-100 233.5,-100 233.5,-136"/>
<text text-anchor="middle" x="157.25" y="-113.33" font-family="Times,serif" font-size="14.00">gilrs_event_system</text>
</a>
</g>
</g>
<!-- node_System(34)&#45;&gt;set_marker_node_Set(1) -->
<g id="edge4" class="edge">
<title>node_System(34)&#45;&gt;set_marker_node_Set(1)</title>
<g id="a_edge4"><a xlink:title="gilrs_event_system → InputSystem">
<path fill="none" stroke="#aa3a55" stroke-width="2" d="M233.98,-118C279.36,-118 338.66,-118 393.23,-118"/>
<polygon fill="#aa3a55" stroke="#aa3a55" stroke-width="2" points="393.23,-121.5 403.23,-118 393.23,-114.5 393.23,-121.5"/>
</a>
</g>
</g>
<!-- node_System(44) -->
<g id="node53" class="node">
<title>node_System(44)</title>
<g id="a_node53"><a xlink:title="bevy_ecs::schedule::executor::apply_deferred">
<polygon fill="lightgrey" stroke="black" points="218.88,-2048 95.62,-2048 95.62,-2012 218.88,-2012 218.88,-2048"/>
<text text-anchor="middle" x="157.25" y="-2025.33" font-family="Times,serif" font-size="14.00">apply_deferred</text>
</a>
</g>
</g>
<!-- node_System(45) -->
<g id="node54" class="node">
<title>node_System(45)</title>
<g id="a_node54"><a xlink:title="bevy_ecs::schedule::executor::apply_deferred">
<polygon fill="lightgrey" stroke="black" points="218.88,-2095 95.62,-2095 95.62,-2059 218.88,-2059 218.88,-2095"/>
<text text-anchor="middle" x="157.25" y="-2072.32" font-family="Times,serif" font-size="14.00">apply_deferred</text>
</a>
</g>
</g>
</g>
</svg>
