<?xml version="1.0" encoding="UTF-8" standalone="no"?>
<!DOCTYPE svg PUBLIC "-//W3C//DTD SVG 1.1//EN"
 "http://www.w3.org/Graphics/SVG/1.1/DTD/svg11.dtd">
<!-- Generated by graphviz version 14.1.1 (0)
 -->
<!-- Pages: 1 -->
<svg width="674pt" height="1055pt"
 viewBox="0.00 0.00 674.00 1055.00" xmlns="http://www.w3.org/2000/svg" xmlns:xlink="http://www.w3.org/1999/xlink">
<g id="graph0" class="graph" transform="scale(1 1) rotate(0) translate(4 1051)">
<polygon fill="white" stroke="none" points="-4,4 -4,-1051 670,-1051 670,4 -4,4"/>
<g id="clust1" class="cluster">
<title>clusternode_Set(1)</title>
<g id="a_clust1"><a xlink:title="TrackAssets">
<path fill="#000000" fill-opacity="0.031373" stroke="#000000" stroke-width="2" stroke-opacity="0.250980" d="M265.25,-9C265.25,-9 646,-9 646,-9 652,-9 658,-15 658,-21 658,-21 658,-1027 658,-1027 658,-1033 652,-1039 646,-1039 646,-1039 265.25,-1039 265.25,-1039 259.25,-1039 253.25,-1033 253.25,-1027 253.25,-1027 253.25,-21 253.25,-21 253.25,-15 259.25,-9 265.25,-9"/>
<text xml:space="preserve" text-anchor="middle" x="455.62" y="-1021.7" font-family="Helvetica,sans-Serif" font-size="14.00" fill="#000000">TrackAssets</text>
</a>
</g>
</g>
<!-- set_marker_node_Set(1) -->
<!-- node_System(0) -->
<g id="node2" class="node">
<title>node_System(0)</title>
<g id="a_node2"><a xlink:title="bevy_asset::assets::Assets&lt;bevy_asset::folder::LoadedFolder&gt;::track_assets">
<polygon fill="#d1cbc5" stroke="#a3978c" points="588.12,-66 323.12,-66 323.12,-30 588.12,-30 588.12,-66"/>
<text xml:space="preserve" text-anchor="middle" x="455.62" y="-43.33" font-family="Helvetica,sans-Serif" font-size="14.00" fill="#1c1916">Assets&lt;LoadedFolder&gt;track_assets</text>
</a>
</g>
</g>
<!-- node_System(1) -->
<g id="node3" class="node">
<title>node_System(1)</title>
<g id="a_node3"><a xlink:title="bevy_asset::assets::Assets&lt;bevy_asset::assets::LoadedUntypedAsset&gt;::track_assets">
<polygon fill="#d1cbc5" stroke="#a3978c" points="615.5,-113 295.75,-113 295.75,-77 615.5,-77 615.5,-113"/>
<text xml:space="preserve" text-anchor="middle" x="455.62" y="-90.33" font-family="Helvetica,sans-Serif" font-size="14.00" fill="#1c1916">Assets&lt;LoadedUntypedAsset&gt;track_assets</text>
</a>
</g>
</g>
<!-- node_System(2) -->
<g id="node4" class="node">
<title>node_System(2)</title>
<g id="a_node4"><a xlink:title="bevy_asset::assets::Assets&lt;()&gt;::track_assets">
<polygon fill="#d1cbc5" stroke="#a3978c" points="546.88,-160 364.38,-160 364.38,-124 546.88,-124 546.88,-160"/>
<text xml:space="preserve" text-anchor="middle" x="455.62" y="-137.32" font-family="Helvetica,sans-Serif" font-size="14.00" fill="#1c1916">Assets&lt;()&gt;track_assets</text>
</a>
</g>
</g>
<!-- node_System(4) -->
<g id="node5" class="node">
<title>node_System(4)</title>
<g id="a_node5"><a xlink:title="bevy_asset::assets::Assets&lt;bevy_scene::dynamic_scene::DynamicScene&gt;::track_assets">
<polygon fill="#d1cbc5" stroke="#a3978c" points="593,-207 318.25,-207 318.25,-171 593,-171 593,-207"/>
<text xml:space="preserve" text-anchor="middle" x="455.62" y="-184.32" font-family="Helvetica,sans-Serif" font-size="14.00" fill="#1c1916">Assets&lt;DynamicScene&gt;track_assets</text>
</a>
</g>
</g>
<!-- node_System(5) -->
<g id="node6" class="node">
<title>node_System(5)</title>
<g id="a_node6"><a xlink:title="bevy_asset::assets::Assets&lt;bevy_scene::scene::Scene&gt;::track_assets">
<polygon fill="#d1cbc5" stroke="#a3978c" points="562.62,-254 348.62,-254 348.62,-218 562.62,-218 562.62,-254"/>
<text xml:space="preserve" text-anchor="middle" x="455.62" y="-231.32" font-family="Helvetica,sans-Serif" font-size="14.00" fill="#1c1916">Assets&lt;Scene&gt;track_assets</text>
</a>
</g>
</g>
<!-- node_System(6) -->
<g id="node7" class="node">
<title>node_System(6)</title>
<g id="a_node7"><a xlink:title="bevy_asset::assets::Assets&lt;bevy_render::render_resource::shader::Shader&gt;::track_assets">
<polygon fill="#d1cbc5" stroke="#a3978c" points="566.38,-301 344.88,-301 344.88,-265 566.38,-265 566.38,-301"/>
<text xml:space="preserve" text-anchor="middle" x="455.62" y="-278.32" font-family="Helvetica,sans-Serif" font-size="14.00" fill="#1c1916">Assets&lt;Shader&gt;track_assets</text>
</a>
</g>
</g>
<!-- node_System(7) -->
<g id="node8" class="node">
<title>node_System(7)</title>
<g id="a_node8"><a xlink:title="bevy_asset::assets::Assets&lt;bevy_render::mesh::mesh::Mesh&gt;::track_assets">
<polygon fill="#d1cbc5" stroke="#a3978c" points="560,-348 351.25,-348 351.25,-312 560,-312 560,-348"/>
<text xml:space="preserve" text-anchor="middle" x="455.62" y="-325.32" font-family="Helvetica,sans-Serif" font-size="14.00" fill="#1c1916">Assets&lt;Mesh&gt;track_assets</text>
</a>
</g>
</g>
<!-- node_System(8) -->
<g id="node9" class="node">
<title>node_System(8)</title>
<g id="a_node9"><a xlink:title="bevy_asset::assets::Assets&lt;bevy_render::mesh::mesh::skinning::SkinnedMeshInverseBindposes&gt;::track_assets">
<polygon fill="#d1cbc5" stroke="#a3978c" points="650,-395 261.25,-395 261.25,-359 650,-359 650,-395"/>
<text xml:space="preserve" text-anchor="middle" x="455.62" y="-372.32" font-family="Helvetica,sans-Serif" font-size="14.00" fill="#1c1916">Assets&lt;SkinnedMeshInverseBindposes&gt;track_assets</text>
</a>
</g>
</g>
<!-- node_System(9) -->
<g id="node10" class="node">
<title>node_System(9)</title>
<g id="a_node10"><a xlink:title="bevy_asset::assets::Assets&lt;bevy_render::texture::image::Image&gt;::track_assets">
<polygon fill="#d1cbc5" stroke="#a3978c" points="563.38,-442 347.88,-442 347.88,-406 563.38,-406 563.38,-442"/>
<text xml:space="preserve" text-anchor="middle" x="455.62" y="-419.32" font-family="Helvetica,sans-Serif" font-size="14.00" fill="#1c1916">Assets&lt;Image&gt;track_assets</text>
</a>
</g>
</g>
<!-- node_System(10) -->
<g id="node11" class="node">
<title>node_System(10)</title>
<g id="a_node11"><a xlink:title="bevy_asset::assets::Assets&lt;bevy_sprite::texture_atlas::TextureAtlasLayout&gt;::track_assets">
<polygon fill="#d1cbc5" stroke="#a3978c" points="606.88,-489 304.38,-489 304.38,-453 606.88,-453 606.88,-489"/>
<text xml:space="preserve" text-anchor="middle" x="455.62" y="-466.32" font-family="Helvetica,sans-Serif" font-size="14.00" fill="#1c1916">Assets&lt;TextureAtlasLayout&gt;track_assets</text>
</a>
</g>
</g>
<!-- node_System(11) -->
<g id="node12" class="node">
<title>node_System(11)</title>
<g id="a_node12"><a xlink:title="bevy_asset::assets::Assets&lt;bevy_sprite::mesh2d::color_material::ColorMaterial&gt;::track_assets">
<polygon fill="#d1cbc5" stroke="#a3978c" points="587.38,-536 323.88,-536 323.88,-500 587.38,-500 587.38,-536"/>
<text xml:space="preserve" text-anchor="middle" x="455.62" y="-513.33" font-family="Helvetica,sans-Serif" font-size="14.00" fill="#1c1916">Assets&lt;ColorMaterial&gt;track_assets</text>
</a>
</g>
</g>
<!-- node_System(12) -->
<g id="node13" class="node">
<title>node_System(12)</title>
<g id="a_node13"><a xlink:title="bevy_asset::assets::Assets&lt;bevy_text::font::Font&gt;::track_assets">
<polygon fill="#d1cbc5" stroke="#a3978c" points="556.62,-583 354.62,-583 354.62,-547 556.62,-547 556.62,-583"/>
<text xml:space="preserve" text-anchor="middle" x="455.62" y="-560.33" font-family="Helvetica,sans-Serif" font-size="14.00" fill="#1c1916">Assets&lt;Font&gt;track_assets</text>
</a>
</g>
</g>
<!-- node_System(13) -->
<g id="node14" class="node">
<title>node_System(13)</title>
<g id="a_node14"><a xlink:title="bevy_asset::assets::Assets&lt;bevy_pbr::pbr_material::StandardMaterial&gt;::track_assets">
<polygon fill="#d1cbc5" stroke="#a3978c" points="600.88,-630 310.38,-630 310.38,-594 600.88,-594 600.88,-630"/>
<text xml:space="preserve" text-anchor="middle" x="455.62" y="-607.33" font-family="Helvetica,sans-Serif" font-size="14.00" fill="#1c1916">Assets&lt;StandardMaterial&gt;track_assets</text>
</a>
</g>
</g>
<!-- node_System(14) -->
<g id="node15" class="node">
<title>node_System(14)</title>
<g id="a_node15"><a xlink:title="bevy_asset::assets::Assets&lt;bevy_gltf::Gltf&gt;::track_assets">
<polygon fill="#d1cbc5" stroke="#a3978c" points="554,-677 357.25,-677 357.25,-641 554,-641 554,-677"/>
<text xml:space="preserve" text-anchor="middle" x="455.62" y="-654.33" font-family="Helvetica,sans-Serif" font-size="14.00" fill="#1c1916">Assets&lt;Gltf&gt;track_assets</text>
</a>
</g>
</g>
<!-- node_System(15) -->
<g id="node16" class="node">
<title>node_System(15)</title>
<g id="a_node16"><a xlink:title="bevy_asset::assets::Assets&lt;bevy_gltf::GltfNode&gt;::track_assets">
<polygon fill="#d1cbc5" stroke="#a3978c" points="572,-724 339.25,-724 339.25,-688 572,-688 572,-724"/>
<text xml:space="preserve" text-anchor="middle" x="455.62" y="-701.33" font-family="Helvetica,sans-Serif" font-size="14.00" fill="#1c1916">Assets&lt;GltfNode&gt;track_assets</text>
</a>
</g>
</g>
<!-- node_System(16) -->
<g id="node17" class="node">
<title>node_System(16)</title>
<g id="a_node17"><a xlink:title="bevy_asset::assets::Assets&lt;bevy_gltf::GltfPrimitive&gt;::track_assets">
<polygon fill="#d1cbc5" stroke="#a3978c" points="584.38,-771 326.88,-771 326.88,-735 584.38,-735 584.38,-771"/>
<text xml:space="preserve" text-anchor="middle" x="455.62" y="-748.33" font-family="Helvetica,sans-Serif" font-size="14.00" fill="#1c1916">Assets&lt;GltfPrimitive&gt;track_assets</text>
</a>
</g>
</g>
<!-- node_System(17) -->
<g id="node18" class="node">
<title>node_System(17)</title>
<g id="a_node18"><a xlink:title="bevy_asset::assets::Assets&lt;bevy_gltf::GltfMesh&gt;::track_assets">
<polygon fill="#d1cbc5" stroke="#a3978c" points="572.38,-818 338.88,-818 338.88,-782 572.38,-782 572.38,-818"/>
<text xml:space="preserve" text-anchor="middle" x="455.62" y="-795.33" font-family="Helvetica,sans-Serif" font-size="14.00" fill="#1c1916">Assets&lt;GltfMesh&gt;track_assets</text>
</a>
</g>
</g>
<!-- node_System(18) -->
<g id="node19" class="node">
<title>node_System(18)</title>
<g id="a_node19"><a xlink:title="bevy_asset::assets::Assets&lt;bevy_audio::audio_source::AudioSource&gt;::track_assets">
<polygon fill="#d1cbc5" stroke="#a3978c" points="585.12,-865 326.12,-865 326.12,-829 585.12,-829 585.12,-865"/>
<text xml:space="preserve" text-anchor="middle" x="455.62" y="-842.33" font-family="Helvetica,sans-Serif" font-size="14.00" fill="#1c1916">Assets&lt;AudioSource&gt;track_assets</text>
</a>
</g>
</g>
<!-- node_System(19) -->
<g id="node20" class="node">
<title>node_System(19)</title>
<g id="a_node20"><a xlink:title="bevy_asset::assets::Assets&lt;bevy_audio::pitch::Pitch&gt;::track_assets">
<polygon fill="#d1cbc5" stroke="#a3978c" points="558.5,-912 352.75,-912 352.75,-876 558.5,-876 558.5,-912"/>
<text xml:space="preserve" text-anchor="middle" x="455.62" y="-889.33" font-family="Helvetica,sans-Serif" font-size="14.00" fill="#1c1916">Assets&lt;Pitch&gt;track_assets</text>
</a>
</g>
</g>
<!-- node_System(20) -->
<g id="node21" class="node">
<title>node_System(20)</title>
<g id="a_node21"><a xlink:title="bevy_asset::assets::Assets&lt;bevy_animation::AnimationClip&gt;::track_assets">
<polygon fill="#d1cbc5" stroke="#a3978c" points="590,-959 321.25,-959 321.25,-923 590,-923 590,-959"/>
<text xml:space="preserve" text-anchor="middle" x="455.62" y="-936.33" font-family="Helvetica,sans-Serif" font-size="14.00" fill="#1c1916">Assets&lt;AnimationClip&gt;track_assets</text>
</a>
</g>
</g>
<!-- node_System(21) -->
<g id="node22" class="node">
<title>node_System(21)</title>
<g id="a_node22"><a xlink:title="bevy_asset::assets::Assets&lt;bevy_gizmos::LineGizmo&gt;::track_assets">
<polygon fill="#d1cbc5" stroke="#a3978c" points="577.62,-1006 333.62,-1006 333.62,-970 577.62,-970 577.62,-1006"/>
<text xml:space="preserve" text-anchor="middle" x="455.62" y="-983.33" font-family="Helvetica,sans-Serif" font-size="14.00" fill="#1c1916">Assets&lt;LineGizmo&gt;track_assets</text>
</a>
</g>
</g>
<!-- node_System(3) -->
<g id="node23" class="node">
<title>node_System(3)</title>
<g id="a_node23"><a xlink:title="bevy_asset::server::handle_internal_asset_events">
<polygon fill="lightgrey" stroke="black" points="225.25,-36 0,-36 0,0 225.25,0 225.25,-36"/>
<text xml:space="preserve" text-anchor="middle" x="112.62" y="-13.32" font-family="Times,serif" font-size="14.00">handle_internal_asset_events</text>
</a>
</g>
</g>
<!-- node_System(3)&#45;&gt;set_marker_node_Set(1) -->
<g id="edge1" class="edge">
<title>node_System(3)&#45;&gt;set_marker_node_Set(1)</title>
<g id="a_edge1"><a xlink:title="SystemTypeSet(ExclusiveFunctionSystem&lt;fn(), handle_internal_asset_events&gt;()) → TrackAssets">
<path fill="none" stroke="#eede00" stroke-width="2" d="M225.28,-18C230.26,-18 235.32,-18 240.43,-18"/>
<polygon fill="#eede00" stroke="#eede00" stroke-width="2" points="240.22,-21.5 250.22,-18 240.22,-14.5 240.22,-21.5"/>
</a>
</g>
</g>
</g>
</svg>
