<?xml version="1.0" encoding="UTF-8" standalone="no"?>
<!DOCTYPE svg PUBLIC "-//W3C//DTD SVG 1.1//EN"
 "http://www.w3.org/Graphics/SVG/1.1/DTD/svg11.dtd">
<!-- Generated by graphviz version 12.0.0 (0)
 -->
<!-- Pages: 1 -->
<svg width="1119pt" height="233pt"
 viewBox="0.00 0.00 1118.50 232.89" xmlns="http://www.w3.org/2000/svg" xmlns:xlink="http://www.w3.org/1999/xlink">
<g id="graph0" class="graph" transform="scale(1 1) rotate(0) translate(4 228.89)">
<polygon fill="white" stroke="none" points="-4,4 -4,-228.89 1114.5,-228.89 1114.5,4 -4,4"/>
<g id="clust1" class="cluster">
<title>clusternode_Set(1)</title>
<g id="a_clust1"><a xlink:title="InputSystem">
<path fill="#000000" fill-opacity="0.031373" stroke="#000000" stroke-width="2" stroke-opacity="0.250980" d="M354.5,-59.89C354.5,-59.89 1090.5,-59.89 1090.5,-59.89 1096.5,-59.89 1102.5,-65.89 1102.5,-71.89 1102.5,-71.89 1102.5,-204.89 1102.5,-204.89 1102.5,-210.89 1096.5,-216.89 1090.5,-216.89 1090.5,-216.89 354.5,-216.89 354.5,-216.89 348.5,-216.89 342.5,-210.89 342.5,-204.89 342.5,-204.89 342.5,-71.89 342.5,-71.89 342.5,-65.89 348.5,-59.89 354.5,-59.89"/>
<text text-anchor="middle" x="722.5" y="-199.59" font-family="Helvetica,sans-Serif" font-size="14.00" fill="#000000">InputSystem</text>
</a>
</g>
</g>
<g id="clust2" class="cluster">
<title>clusternode_Set(9)</title>
<g id="a_clust2"><a xlink:title="Focus">
<path fill="#000000" fill-opacity="0.031373" stroke="#000000" stroke-width="2" stroke-opacity="0.250980" d="M643.96,-35.89C643.96,-35.89 779.29,-35.89 779.29,-35.89 781.96,-35.89 784.62,-38.56 784.62,-41.22 784.62,-41.22 784.62,-46.56 784.62,-46.56 784.62,-49.22 781.96,-51.89 779.29,-51.89 779.29,-51.89 643.96,-51.89 643.96,-51.89 641.29,-51.89 638.62,-49.22 638.62,-46.56 638.62,-46.56 638.62,-41.22 638.62,-41.22 638.62,-38.56 641.29,-35.89 643.96,-35.89"/>
<text text-anchor="middle" x="711.62" y="-34.59" font-family="Helvetica,sans-Serif" font-size="14.00" fill="#000000">Focus</text>
</a>
</g>
</g>
<!-- node_System(7) -->
<g id="node10" class="node">
<title>node_System(7)</title>
<g id="a_node10"><a xlink:title="bevy_ui::focus::ui_focus_system">
<polygon fill="#ffb1e5" stroke="#ff4bc2" points="776.62,-18.89 646.62,-18.89 646.62,17.11 776.62,17.11 776.62,-18.89"/>
<text text-anchor="middle" x="711.62" y="3.78" font-family="Helvetica,sans-Serif" font-size="14.00" fill="#320021">ui_focus_system</text>
</a>
</g>
</g>
<!-- set_marker_node_Set(1)&#45;&gt;node_System(7) -->
<g id="edge6" class="edge">
<title>set_marker_node_Set(1)&#45;&gt;node_System(7)</title>
<g id="a_edge6"><a xlink:title="InputSystem → ui_focus_system">
<path fill="none" stroke="#0090cc" stroke-width="2" d="M458.92,-1.89C461.36,-1.88 560.38,-1.49 633.48,-1.2"/>
<polygon fill="#0090cc" stroke="#0090cc" stroke-width="2" points="633.32,-4.7 643.31,-1.16 633.3,2.3 633.32,-4.7"/>
</a>
</g>
</g>
<!-- node_System(0) -->
<g id="node2" class="node">
<title>node_System(0)</title>
<g id="a_node2"><a xlink:title="bevy_input::keyboard::keyboard_input_system">
<polygon fill="#d36aaf" stroke="#a5317d" points="547.62,-42.89 368.12,-42.89 368.12,-6.89 547.62,-6.89 547.62,-42.89"/>
<text text-anchor="middle" x="457.88" y="-20.22" font-family="Helvetica,sans-Serif" font-size="14.00" fill="#270b1d">keyboard_input_system</text>
</a>
</g>
</g>
<!-- node_System(1) -->
<g id="node3" class="node">
<title>node_System(1)</title>
<g id="a_node3"><a xlink:title="bevy_input::mouse::mouse_button_input_system">
<polygon fill="#d36aaf" stroke="#a5317d" points="565.25,-89.89 350.5,-89.89 350.5,-53.89 565.25,-53.89 565.25,-89.89"/>
<text text-anchor="middle" x="457.88" y="-67.22" font-family="Helvetica,sans-Serif" font-size="14.00" fill="#270b1d">mouse_button_input_system</text>
</a>
</g>
</g>
<!-- node_System(2) -->
<g id="node4" class="node">
<title>node_System(2)</title>
<g id="a_node4"><a xlink:title="bevy_input::gamepad::gamepad_event_system">
<polygon fill="#d36aaf" stroke="#a5317d" points="549.88,-136.89 365.88,-136.89 365.88,-100.89 549.88,-100.89 549.88,-136.89"/>
<text text-anchor="middle" x="457.88" y="-114.22" font-family="Helvetica,sans-Serif" font-size="14.00" fill="#270b1d">gamepad_event_system</text>
</a>
</g>
</g>
<!-- node_System(3) -->
<g id="node5" class="node">
<title>node_System(3)</title>
<g id="a_node5"><a xlink:title="bevy_input::gamepad::gamepad_connection_system">
<polygon fill="#d36aaf" stroke="#a5317d" points="822,-136.89 601.25,-136.89 601.25,-100.89 822,-100.89 822,-136.89"/>
<text text-anchor="middle" x="711.62" y="-114.22" font-family="Helvetica,sans-Serif" font-size="14.00" fill="#270b1d">gamepad_connection_system</text>
</a>
</g>
</g>
<!-- node_System(2)&#45;&gt;node_System(3) -->
<g id="edge1" class="edge">
<title>node_System(2)&#45;&gt;node_System(3)</title>
<g id="a_edge1"><a xlink:title="SystemTypeSet(FunctionSystem&lt;fn(EventReader&lt;GamepadEvent&gt;, EventWriter&lt;GamepadConnectionEvent&gt;, EventWriter&lt;GamepadButtonChangedEvent&gt;, EventWriter&lt;GamepadAxisChangedEvent&gt;, ResMut&lt;ButtonInput&lt;GamepadButton&gt;&gt;), gamepad_event_system&gt;()) → gamepad_connection_system">
<path fill="none" stroke="#eede00" stroke-width="2" d="M550.12,-118.89C562.47,-118.89 575.3,-118.89 588.08,-118.89"/>
<polygon fill="#eede00" stroke="#eede00" stroke-width="2" points="587.8,-122.39 597.8,-118.89 587.8,-115.39 587.8,-122.39"/>
</a>
</g>
</g>
<!-- node_System(4) -->
<g id="node6" class="node">
<title>node_System(4)</title>
<g id="a_node6"><a xlink:title="bevy_input::gamepad::gamepad_button_event_system">
<polygon fill="#d36aaf" stroke="#a5317d" points="1094.5,-110.89 858,-110.89 858,-74.89 1094.5,-74.89 1094.5,-110.89"/>
<text text-anchor="middle" x="976.25" y="-88.22" font-family="Helvetica,sans-Serif" font-size="14.00" fill="#270b1d">gamepad_button_event_system</text>
</a>
</g>
</g>
<!-- node_System(2)&#45;&gt;node_System(4) -->
<g id="edge2" class="edge">
<title>node_System(2)&#45;&gt;node_System(4)</title>
<g id="a_edge2"><a xlink:title="SystemTypeSet(FunctionSystem&lt;fn(EventReader&lt;GamepadEvent&gt;, EventWriter&lt;GamepadConnectionEvent&gt;, EventWriter&lt;GamepadButtonChangedEvent&gt;, EventWriter&lt;GamepadAxisChangedEvent&gt;, ResMut&lt;ButtonInput&lt;GamepadButton&gt;&gt;), gamepad_event_system&gt;()) → gamepad_button_event_system">
<path fill="none" stroke="#881877" stroke-width="2" d="M550.15,-102.04C567.08,-99.51 584.66,-97.29 601.25,-95.89 681.97,-89.09 772.84,-88.2 844.8,-89.08"/>
<polygon fill="#881877" stroke="#881877" stroke-width="2" points="844.47,-92.58 854.52,-89.22 844.57,-85.58 844.47,-92.58"/>
</a>
</g>
</g>
<!-- node_System(5) -->
<g id="node7" class="node">
<title>node_System(5)</title>
<g id="a_node7"><a xlink:title="bevy_input::gamepad::gamepad_axis_event_system">
<polygon fill="#d36aaf" stroke="#a5317d" points="1085.5,-163.89 867,-163.89 867,-127.89 1085.5,-127.89 1085.5,-163.89"/>
<text text-anchor="middle" x="976.25" y="-141.22" font-family="Helvetica,sans-Serif" font-size="14.00" fill="#270b1d">gamepad_axis_event_system</text>
</a>
</g>
</g>
<!-- node_System(2)&#45;&gt;node_System(5) -->
<g id="edge4" class="edge">
<title>node_System(2)&#45;&gt;node_System(5)</title>
<g id="a_edge4"><a xlink:title="SystemTypeSet(FunctionSystem&lt;fn(EventReader&lt;GamepadEvent&gt;, EventWriter&lt;GamepadConnectionEvent&gt;, EventWriter&lt;GamepadButtonChangedEvent&gt;, EventWriter&lt;GamepadAxisChangedEvent&gt;, ResMut&lt;ButtonInput&lt;GamepadButton&gt;&gt;), gamepad_event_system&gt;()) → gamepad_axis_event_system">
<path fill="none" stroke="#aa3a55" stroke-width="2" d="M550.12,-136.48C567.06,-139.12 584.64,-141.43 601.25,-142.89 685.31,-150.27 780.39,-150.93 853.66,-149.79"/>
<polygon fill="#aa3a55" stroke="#aa3a55" stroke-width="2" points="853.64,-153.29 863.58,-149.62 853.52,-146.29 853.64,-153.29"/>
</a>
</g>
</g>
<!-- node_System(3)&#45;&gt;node_System(4) -->
<g id="edge3" class="edge">
<title>node_System(3)&#45;&gt;node_System(4)</title>
<g id="a_edge3"><a xlink:title="SystemTypeSet(FunctionSystem&lt;fn(ResMut&lt;Gamepads&gt;, EventReader&lt;GamepadConnectionEvent&gt;, ResMut&lt;Axis&lt;GamepadAxis&gt;&gt;, ResMut&lt;Axis&lt;GamepadButton&gt;&gt;, ResMut&lt;ButtonInput&lt;GamepadButton&gt;&gt;), gamepad_connection_system&gt;()) → gamepad_button_event_system">
<path fill="none" stroke="#00b0cc" stroke-width="2" d="M822.48,-108.02C829.95,-107.28 837.52,-106.53 845.09,-105.78"/>
<polygon fill="#00b0cc" stroke="#00b0cc" stroke-width="2" points="845.18,-109.29 854.78,-104.82 844.49,-102.32 845.18,-109.29"/>
</a>
</g>
</g>
<!-- node_System(3)&#45;&gt;node_System(5) -->
<g id="edge5" class="edge">
<title>node_System(3)&#45;&gt;node_System(5)</title>
<g id="a_edge5"><a xlink:title="SystemTypeSet(FunctionSystem&lt;fn(ResMut&lt;Gamepads&gt;, EventReader&lt;GamepadConnectionEvent&gt;, ResMut&lt;Axis&lt;GamepadAxis&gt;&gt;, ResMut&lt;Axis&lt;GamepadButton&gt;&gt;, ResMut&lt;ButtonInput&lt;GamepadButton&gt;&gt;), gamepad_connection_system&gt;()) → gamepad_axis_event_system">
<path fill="none" stroke="#44d488" stroke-width="2" d="M822.48,-130.19C832.87,-131.25 843.45,-132.34 853.94,-133.42"/>
<polygon fill="#44d488" stroke="#44d488" stroke-width="2" points="853.36,-136.88 863.67,-134.42 854.08,-129.92 853.36,-136.88"/>
</a>
</g>
</g>
<!-- node_System(6) -->
<g id="node8" class="node">
<title>node_System(6)</title>
<g id="a_node8"><a xlink:title="bevy_input::touch::touch_screen_input_system">
<polygon fill="#d36aaf" stroke="#a5317d" points="561.5,-183.89 354.25,-183.89 354.25,-147.89 561.5,-147.89 561.5,-183.89"/>
<text text-anchor="middle" x="457.88" y="-161.22" font-family="Helvetica,sans-Serif" font-size="14.00" fill="#270b1d">touch_screen_input_system</text>
</a>
</g>
</g>
<!-- node_System(8) -->
<g id="node11" class="node">
<title>node_System(8)</title>
<g id="a_node11"><a xlink:title="bevy_pbr::prepass::update_mesh_previous_global_transforms">
<polygon fill="lightgrey" stroke="black" points="314.5,-96.89 0,-96.89 0,-60.89 314.5,-60.89 314.5,-96.89"/>
<text text-anchor="middle" x="157.25" y="-74.22" font-family="Times,serif" font-size="14.00">update_mesh_previous_global_transforms</text>
</a>
</g>
</g>
<!-- node_System(9) -->
<g id="node12" class="node">
<title>node_System(9)</title>
<g id="a_node12"><a xlink:title="bevy_pbr::prepass::update_previous_view_projections">
<polygon fill="lightgrey" stroke="black" points="287.12,-143.89 27.38,-143.89 27.38,-107.89 287.12,-107.89 287.12,-143.89"/>
<text text-anchor="middle" x="157.25" y="-121.22" font-family="Times,serif" font-size="14.00">update_previous_view_projections</text>
</a>
</g>
</g>
<!-- node_System(10) -->
<g id="node13" class="node">
<title>node_System(10)</title>
<g id="a_node13"><a xlink:title="bevy_gilrs::gilrs_system::gilrs_event_system">
<polygon fill="lightgrey" stroke="black" points="233.5,-49.89 81,-49.89 81,-13.89 233.5,-13.89 233.5,-49.89"/>
<text text-anchor="middle" x="157.25" y="-27.22" font-family="Times,serif" font-size="14.00">gilrs_event_system</text>
</a>
</g>
</g>
<!-- node_System(10)&#45;&gt;set_marker_node_Set(1) -->
<g id="edge7" class="edge">
<title>node_System(10)&#45;&gt;set_marker_node_Set(1)</title>
<g id="a_edge7"><a xlink:title="gilrs_event_system → InputSystem">
<path fill="none" stroke="#ee9e44" stroke-width="2" d="M233.66,-16.79C266.89,-10.87 306.48,-4.8 342.5,-1.89 379.13,1.07 422.57,-0.25 443.83,-1.21"/>
<polygon fill="#ee9e44" stroke="#ee9e44" stroke-width="2" points="443.64,-4.7 453.81,-1.73 444,2.29 443.64,-4.7"/>
</a>
</g>
</g>
</g>
</svg>
