<?xml version="1.0" encoding="UTF-8" standalone="no"?>
<!DOCTYPE svg PUBLIC "-//W3C//DTD SVG 1.1//EN"
 "http://www.w3.org/Graphics/SVG/1.1/DTD/svg11.dtd">
<!-- Generated by graphviz version 9.0.0 (0)
 -->
<!-- Pages: 1 -->
<svg width="1056pt" height="1076pt"
 viewBox="0.00 0.00 1055.75 1076.00" xmlns="http://www.w3.org/2000/svg" xmlns:xlink="http://www.w3.org/1999/xlink">
<g id="graph0" class="graph" transform="scale(1 1) rotate(0) translate(4 1072)">
<polygon fill="white" stroke="none" points="-4,4 -4,-1072 1051.75,-1072 1051.75,4 -4,4"/>
<g id="clust1" class="cluster">
<title>clusternode_Set(1)</title>
<g id="a_clust1"><a xlink:title="TrackAssets">
<path fill="#000000" fill-opacity="0.031373" stroke="#000000" stroke-width="2" stroke-opacity="0.250980" d="M647,-8C647,-8 1027.75,-8 1027.75,-8 1033.75,-8 1039.75,-14 1039.75,-20 1039.75,-20 1039.75,-1024 1039.75,-1024 1039.75,-1030 1033.75,-1036 1027.75,-1036 1027.75,-1036 647,-1036 647,-1036 641,-1036 635,-1030 635,-1024 635,-1024 635,-20 635,-20 635,-14 641,-8 647,-8"/>
<text text-anchor="middle" x="837.38" y="-1018.7" font-family="Helvetica,sans-Serif" font-size="14.00" fill="#000000">TrackAssets</text>
</a>
</g>
</g>
<!-- set_marker_node_Set(1) -->
<!-- node_System(0) -->
<g id="node2" class="node">
<title>node_System(0)</title>
<g id="a_node2"><a xlink:title="bevy_asset::assets::Assets&lt;bevy_asset::folder::LoadedFolder&gt;::track_assets">
<polygon fill="#d1cbc5" stroke="#a3978c" points="969.88,-992 704.88,-992 704.88,-956 969.88,-956 969.88,-992"/>
<text text-anchor="middle" x="837.38" y="-969.33" font-family="Helvetica,sans-Serif" font-size="14.00" fill="#1c1916">Assets&lt;LoadedFolder&gt;track_assets</text>
</a>
</g>
</g>
<!-- node_System(1) -->
<g id="node3" class="node">
<title>node_System(1)</title>
<g id="a_node3"><a xlink:title="bevy_asset::assets::Assets&lt;bevy_asset::assets::LoadedUntypedAsset&gt;::track_assets">
<polygon fill="#d1cbc5" stroke="#a3978c" points="997.25,-945 677.5,-945 677.5,-909 997.25,-909 997.25,-945"/>
<text text-anchor="middle" x="837.38" y="-922.33" font-family="Helvetica,sans-Serif" font-size="14.00" fill="#1c1916">Assets&lt;LoadedUntypedAsset&gt;track_assets</text>
</a>
</g>
</g>
<!-- node_System(2) -->
<g id="node4" class="node">
<title>node_System(2)</title>
<g id="a_node4"><a xlink:title="bevy_asset::assets::Assets&lt;()&gt;::track_assets">
<polygon fill="#d1cbc5" stroke="#a3978c" points="928.62,-898 746.12,-898 746.12,-862 928.62,-862 928.62,-898"/>
<text text-anchor="middle" x="837.38" y="-875.33" font-family="Helvetica,sans-Serif" font-size="14.00" fill="#1c1916">Assets&lt;()&gt;track_assets</text>
</a>
</g>
</g>
<!-- node_System(4) -->
<g id="node5" class="node">
<title>node_System(4)</title>
<g id="a_node5"><a xlink:title="bevy_asset::assets::Assets&lt;bevy_scene::dynamic_scene::DynamicScene&gt;::track_assets">
<polygon fill="#d1cbc5" stroke="#a3978c" points="974.75,-851 700,-851 700,-815 974.75,-815 974.75,-851"/>
<text text-anchor="middle" x="837.38" y="-828.33" font-family="Helvetica,sans-Serif" font-size="14.00" fill="#1c1916">Assets&lt;DynamicScene&gt;track_assets</text>
</a>
</g>
</g>
<!-- node_System(5) -->
<g id="node6" class="node">
<title>node_System(5)</title>
<g id="a_node6"><a xlink:title="bevy_asset::assets::Assets&lt;bevy_scene::scene::Scene&gt;::track_assets">
<polygon fill="#d1cbc5" stroke="#a3978c" points="944.38,-804 730.38,-804 730.38,-768 944.38,-768 944.38,-804"/>
<text text-anchor="middle" x="837.38" y="-781.33" font-family="Helvetica,sans-Serif" font-size="14.00" fill="#1c1916">Assets&lt;Scene&gt;track_assets</text>
</a>
</g>
</g>
<!-- node_System(6) -->
<g id="node7" class="node">
<title>node_System(6)</title>
<g id="a_node7"><a xlink:title="bevy_asset::assets::Assets&lt;bevy_render::render_resource::shader::Shader&gt;::track_assets">
<polygon fill="#d1cbc5" stroke="#a3978c" points="948.12,-757 726.62,-757 726.62,-721 948.12,-721 948.12,-757"/>
<text text-anchor="middle" x="837.38" y="-734.33" font-family="Helvetica,sans-Serif" font-size="14.00" fill="#1c1916">Assets&lt;Shader&gt;track_assets</text>
</a>
</g>
</g>
<!-- node_System(7) -->
<g id="node8" class="node">
<title>node_System(7)</title>
<g id="a_node8"><a xlink:title="bevy_asset::assets::Assets&lt;bevy_render::mesh::mesh::Mesh&gt;::track_assets">
<polygon fill="#d1cbc5" stroke="#a3978c" points="941.75,-710 733,-710 733,-674 941.75,-674 941.75,-710"/>
<text text-anchor="middle" x="837.38" y="-687.33" font-family="Helvetica,sans-Serif" font-size="14.00" fill="#1c1916">Assets&lt;Mesh&gt;track_assets</text>
</a>
</g>
</g>
<!-- node_System(8) -->
<g id="node9" class="node">
<title>node_System(8)</title>
<g id="a_node9"><a xlink:title="bevy_asset::assets::Assets&lt;bevy_render::mesh::mesh::skinning::SkinnedMeshInverseBindposes&gt;::track_assets">
<polygon fill="#d1cbc5" stroke="#a3978c" points="1031.75,-663 643,-663 643,-627 1031.75,-627 1031.75,-663"/>
<text text-anchor="middle" x="837.38" y="-640.33" font-family="Helvetica,sans-Serif" font-size="14.00" fill="#1c1916">Assets&lt;SkinnedMeshInverseBindposes&gt;track_assets</text>
</a>
</g>
</g>
<!-- node_System(9) -->
<g id="node10" class="node">
<title>node_System(9)</title>
<g id="a_node10"><a xlink:title="bevy_asset::assets::Assets&lt;bevy_render::texture::image::Image&gt;::track_assets">
<polygon fill="#d1cbc5" stroke="#a3978c" points="945.12,-616 729.62,-616 729.62,-580 945.12,-580 945.12,-616"/>
<text text-anchor="middle" x="837.38" y="-593.33" font-family="Helvetica,sans-Serif" font-size="14.00" fill="#1c1916">Assets&lt;Image&gt;track_assets</text>
</a>
</g>
</g>
<!-- node_System(10) -->
<g id="node11" class="node">
<title>node_System(10)</title>
<g id="a_node11"><a xlink:title="bevy_asset::assets::Assets&lt;bevy_sprite::texture_atlas::TextureAtlasLayout&gt;::track_assets">
<polygon fill="#d1cbc5" stroke="#a3978c" points="988.62,-569 686.12,-569 686.12,-533 988.62,-533 988.62,-569"/>
<text text-anchor="middle" x="837.38" y="-546.33" font-family="Helvetica,sans-Serif" font-size="14.00" fill="#1c1916">Assets&lt;TextureAtlasLayout&gt;track_assets</text>
</a>
</g>
</g>
<!-- node_System(11) -->
<g id="node12" class="node">
<title>node_System(11)</title>
<g id="a_node12"><a xlink:title="bevy_asset::assets::Assets&lt;bevy_sprite::mesh2d::color_material::ColorMaterial&gt;::track_assets">
<polygon fill="#d1cbc5" stroke="#a3978c" points="969.12,-522 705.62,-522 705.62,-486 969.12,-486 969.12,-522"/>
<text text-anchor="middle" x="837.38" y="-499.32" font-family="Helvetica,sans-Serif" font-size="14.00" fill="#1c1916">Assets&lt;ColorMaterial&gt;track_assets</text>
</a>
</g>
</g>
<!-- node_System(12) -->
<g id="node13" class="node">
<title>node_System(12)</title>
<g id="a_node13"><a xlink:title="bevy_asset::assets::Assets&lt;bevy_text::font::Font&gt;::track_assets">
<polygon fill="#d1cbc5" stroke="#a3978c" points="938.38,-475 736.38,-475 736.38,-439 938.38,-439 938.38,-475"/>
<text text-anchor="middle" x="837.38" y="-452.32" font-family="Helvetica,sans-Serif" font-size="14.00" fill="#1c1916">Assets&lt;Font&gt;track_assets</text>
</a>
</g>
</g>
<!-- node_System(13) -->
<g id="node14" class="node">
<title>node_System(13)</title>
<g id="a_node14"><a xlink:title="bevy_asset::assets::Assets&lt;bevy_pbr::pbr_material::StandardMaterial&gt;::track_assets">
<polygon fill="#d1cbc5" stroke="#a3978c" points="982.62,-428 692.12,-428 692.12,-392 982.62,-392 982.62,-428"/>
<text text-anchor="middle" x="837.38" y="-405.32" font-family="Helvetica,sans-Serif" font-size="14.00" fill="#1c1916">Assets&lt;StandardMaterial&gt;track_assets</text>
</a>
</g>
</g>
<!-- node_System(14) -->
<g id="node15" class="node">
<title>node_System(14)</title>
<g id="a_node15"><a xlink:title="bevy_asset::assets::Assets&lt;bevy_gltf::Gltf&gt;::track_assets">
<polygon fill="#d1cbc5" stroke="#a3978c" points="935.75,-381 739,-381 739,-345 935.75,-345 935.75,-381"/>
<text text-anchor="middle" x="837.38" y="-358.32" font-family="Helvetica,sans-Serif" font-size="14.00" fill="#1c1916">Assets&lt;Gltf&gt;track_assets</text>
</a>
</g>
</g>
<!-- node_System(15) -->
<g id="node16" class="node">
<title>node_System(15)</title>
<g id="a_node16"><a xlink:title="bevy_asset::assets::Assets&lt;bevy_gltf::GltfNode&gt;::track_assets">
<polygon fill="#d1cbc5" stroke="#a3978c" points="953.75,-334 721,-334 721,-298 953.75,-298 953.75,-334"/>
<text text-anchor="middle" x="837.38" y="-311.32" font-family="Helvetica,sans-Serif" font-size="14.00" fill="#1c1916">Assets&lt;GltfNode&gt;track_assets</text>
</a>
</g>
</g>
<!-- node_System(16) -->
<g id="node17" class="node">
<title>node_System(16)</title>
<g id="a_node17"><a xlink:title="bevy_asset::assets::Assets&lt;bevy_gltf::GltfPrimitive&gt;::track_assets">
<polygon fill="#d1cbc5" stroke="#a3978c" points="966.12,-287 708.62,-287 708.62,-251 966.12,-251 966.12,-287"/>
<text text-anchor="middle" x="837.38" y="-264.32" font-family="Helvetica,sans-Serif" font-size="14.00" fill="#1c1916">Assets&lt;GltfPrimitive&gt;track_assets</text>
</a>
</g>
</g>
<!-- node_System(17) -->
<g id="node18" class="node">
<title>node_System(17)</title>
<g id="a_node18"><a xlink:title="bevy_asset::assets::Assets&lt;bevy_gltf::GltfMesh&gt;::track_assets">
<polygon fill="#d1cbc5" stroke="#a3978c" points="954.12,-240 720.62,-240 720.62,-204 954.12,-204 954.12,-240"/>
<text text-anchor="middle" x="837.38" y="-217.32" font-family="Helvetica,sans-Serif" font-size="14.00" fill="#1c1916">Assets&lt;GltfMesh&gt;track_assets</text>
</a>
</g>
</g>
<!-- node_System(18) -->
<g id="node19" class="node">
<title>node_System(18)</title>
<g id="a_node19"><a xlink:title="bevy_asset::assets::Assets&lt;bevy_audio::audio_source::AudioSource&gt;::track_assets">
<polygon fill="#d1cbc5" stroke="#a3978c" points="966.88,-193 707.88,-193 707.88,-157 966.88,-157 966.88,-193"/>
<text text-anchor="middle" x="837.38" y="-170.32" font-family="Helvetica,sans-Serif" font-size="14.00" fill="#1c1916">Assets&lt;AudioSource&gt;track_assets</text>
</a>
</g>
</g>
<!-- node_System(19) -->
<g id="node20" class="node">
<title>node_System(19)</title>
<g id="a_node20"><a xlink:title="bevy_asset::assets::Assets&lt;bevy_audio::pitch::Pitch&gt;::track_assets">
<polygon fill="#d1cbc5" stroke="#a3978c" points="940.25,-146 734.5,-146 734.5,-110 940.25,-110 940.25,-146"/>
<text text-anchor="middle" x="837.38" y="-123.33" font-family="Helvetica,sans-Serif" font-size="14.00" fill="#1c1916">Assets&lt;Pitch&gt;track_assets</text>
</a>
</g>
</g>
<!-- node_System(20) -->
<g id="node21" class="node">
<title>node_System(20)</title>
<g id="a_node21"><a xlink:title="bevy_asset::assets::Assets&lt;bevy_animation::AnimationClip&gt;::track_assets">
<polygon fill="#d1cbc5" stroke="#a3978c" points="971.75,-99 703,-99 703,-63 971.75,-63 971.75,-99"/>
<text text-anchor="middle" x="837.38" y="-76.33" font-family="Helvetica,sans-Serif" font-size="14.00" fill="#1c1916">Assets&lt;AnimationClip&gt;track_assets</text>
</a>
</g>
</g>
<!-- node_System(21) -->
<g id="node22" class="node">
<title>node_System(21)</title>
<g id="a_node22"><a xlink:title="bevy_asset::assets::Assets&lt;bevy_gizmos::LineGizmo&gt;::track_assets">
<polygon fill="#d1cbc5" stroke="#a3978c" points="959.38,-52 715.38,-52 715.38,-16 959.38,-16 959.38,-52"/>
<text text-anchor="middle" x="837.38" y="-29.32" font-family="Helvetica,sans-Serif" font-size="14.00" fill="#1c1916">Assets&lt;LineGizmo&gt;track_assets</text>
</a>
</g>
</g>
<!-- node_System(3) -->
<g id="node23" class="node">
<title>node_System(3)</title>
<g id="a_node23"><a xlink:title="bevy_asset::server::handle_internal_asset_events">
<polygon fill="lightgrey" stroke="black" points="416.12,-1068 190.88,-1068 190.88,-1032 416.12,-1032 416.12,-1068"/>
<text text-anchor="middle" x="303.5" y="-1045.33" font-family="Times,serif" font-size="14.00">handle_internal_asset_events</text>
</a>
</g>
</g>
<!-- UNKNOWN SystemTypeSet(fn bevy_asset::server::handle_internal_asset_events()) -->
<g id="node24" class="node">
<title>UNKNOWN SystemTypeSet(fn bevy_asset::server::handle_internal_asset_events())</title>
<polygon fill="lightgrey" stroke="black" points="607,-1021 0,-1021 0,-985 607,-985 607,-1021"/>
<text text-anchor="middle" x="303.5" y="-998.33" font-family="Times,serif" font-size="14.00">UNKNOWN SystemTypeSet(fn bevy_asset::server::handle_internal_asset_events())</text>
</g>
<!-- UNKNOWN SystemTypeSet(fn bevy_asset::server::handle_internal_asset_events())&#45;&gt;set_marker_node_Set(1) -->
<g id="edge1" class="edge">
<title>UNKNOWN SystemTypeSet(fn bevy_asset::server::handle_internal_asset_events())&#45;&gt;set_marker_node_Set(1)</title>
<g id="a_edge1"><a xlink:title="SystemTypeSet(handle_internal_asset_events()) → TrackAssets">
<path fill="none" stroke="#eede00" stroke-width="2" d="M607.34,-1003C612.28,-1003 617.2,-1003 622.1,-1003"/>
<polygon fill="#eede00" stroke="#eede00" stroke-width="2" points="621.97,-1006.5 631.97,-1003 621.97,-999.5 621.97,-1006.5"/>
</a>
</g>
</g>
</g>
</svg>
