<?xml version="1.0" encoding="UTF-8" standalone="no"?>
<!DOCTYPE svg PUBLIC "-//W3C//DTD SVG 1.1//EN"
 "http://www.w3.org/Graphics/SVG/1.1/DTD/svg11.dtd">
<!-- Generated by graphviz version 14.1.1 (0)
 -->
<!-- Pages: 1 -->
<svg width="629pt" height="69pt"
 viewBox="0.00 0.00 629.00 69.00" xmlns="http://www.w3.org/2000/svg" xmlns:xlink="http://www.w3.org/1999/xlink">
<g id="graph0" class="graph" transform="scale(1 1) rotate(0) translate(4 65)">
<polygon fill="white" stroke="none" points="-4,4 -4,-65 624.5,-65 624.5,4 -4,4"/>
<g id="clust1" class="cluster">
<title>clusternode_Set(SystemSetKey(1v1))</title>
<g id="a_clust1"><a xlink:title="DependentTransitions">
<path fill="#000000" fill-opacity="0.031373" stroke="#000000" stroke-width="2" stroke-opacity="0.250980" d="M12,-8C12,-8 155.5,-8 155.5,-8 161.5,-8 167.5,-14 167.5,-20 167.5,-20 167.5,-41 167.5,-41 167.5,-47 161.5,-53 155.5,-53 155.5,-53 12,-53 12,-53 6,-53 0,-47 0,-41 0,-41 0,-20 0,-20 0,-14 6,-8 12,-8"/>
<text xml:space="preserve" text-anchor="middle" x="83.75" y="-35.7" font-family="Helvetica,sans-Serif" font-size="14.00" fill="#000000">DependentTransitions</text>
</a>
</g>
</g>
<g id="clust2" class="cluster">
<title>clusternode_Set(SystemSetKey(2v1))</title>
<g id="a_clust2"><a xlink:title="ExitSchedules">
<path fill="#000000" fill-opacity="0.031373" stroke="#000000" stroke-width="2" stroke-opacity="0.250980" d="M199.5,-8C199.5,-8 289,-8 289,-8 295,-8 301,-14 301,-20 301,-20 301,-41 301,-41 301,-47 295,-53 289,-53 289,-53 199.5,-53 199.5,-53 193.5,-53 187.5,-47 187.5,-41 187.5,-41 187.5,-20 187.5,-20 187.5,-14 193.5,-8 199.5,-8"/>
<text xml:space="preserve" text-anchor="middle" x="244.25" y="-35.7" font-family="Helvetica,sans-Serif" font-size="14.00" fill="#000000">ExitSchedules</text>
</a>
</g>
</g>
<g id="clust3" class="cluster">
<title>clusternode_Set(SystemSetKey(3v1))</title>
<g id="a_clust3"><a xlink:title="TransitionSchedules">
<path fill="#000000" fill-opacity="0.031373" stroke="#000000" stroke-width="2" stroke-opacity="0.250980" d="M333,-8C333,-8 463.75,-8 463.75,-8 469.75,-8 475.75,-14 475.75,-20 475.75,-20 475.75,-41 475.75,-41 475.75,-47 469.75,-53 463.75,-53 463.75,-53 333,-53 333,-53 327,-53 321,-47 321,-41 321,-41 321,-20 321,-20 321,-14 327,-8 333,-8"/>
<text xml:space="preserve" text-anchor="middle" x="398.38" y="-35.7" font-family="Helvetica,sans-Serif" font-size="14.00" fill="#000000">TransitionSchedules</text>
</a>
</g>
</g>
<g id="clust4" class="cluster">
<title>clusternode_Set(SystemSetKey(4v1))</title>
<g id="a_clust4"><a xlink:title="EnterSchedules">
<path fill="#000000" fill-opacity="0.031373" stroke="#000000" stroke-width="2" stroke-opacity="0.250980" d="M507.75,-8C507.75,-8 608.5,-8 608.5,-8 614.5,-8 620.5,-14 620.5,-20 620.5,-20 620.5,-41 620.5,-41 620.5,-47 614.5,-53 608.5,-53 608.5,-53 507.75,-53 507.75,-53 501.75,-53 495.75,-47 495.75,-41 495.75,-41 495.75,-20 495.75,-20 495.75,-14 501.75,-8 507.75,-8"/>
<text xml:space="preserve" text-anchor="middle" x="558.12" y="-35.7" font-family="Helvetica,sans-Serif" font-size="14.00" fill="#000000">EnterSchedules</text>
</a>
</g>
</g>
<!-- set_marker_node_Set(SystemSetKey(1v1)) -->
<!-- set_marker_node_Set(SystemSetKey(2v1)) -->
<!-- set_marker_node_Set(SystemSetKey(1v1))&#45;&gt;set_marker_node_Set(SystemSetKey(2v1)) -->
<g id="edge1" class="edge">
<title>set_marker_node_Set(SystemSetKey(1v1))&#45;&gt;set_marker_node_Set(SystemSetKey(2v1))</title>
<g id="a_edge1"><a xlink:title="DependentTransitions → ExitSchedules">
<path fill="none" stroke="#eede00" stroke-width="2" d="M167.5,-18C169.89,-18 172.28,-18 174.65,-18"/>
<polygon fill="#eede00" stroke="#eede00" stroke-width="2" points="174.48,-21.5 184.48,-18 174.48,-14.5 174.48,-21.5"/>
</a>
</g>
</g>
<!-- set_marker_node_Set(SystemSetKey(3v1)) -->
<!-- set_marker_node_Set(SystemSetKey(2v1))&#45;&gt;set_marker_node_Set(SystemSetKey(3v1)) -->
<g id="edge2" class="edge">
<title>set_marker_node_Set(SystemSetKey(2v1))&#45;&gt;set_marker_node_Set(SystemSetKey(3v1))</title>
<g id="a_edge2"><a xlink:title="ExitSchedules → TransitionSchedules">
<path fill="none" stroke="#881877" stroke-width="2" d="M301,-18C303.34,-18 305.72,-18 308.11,-18"/>
<polygon fill="#881877" stroke="#881877" stroke-width="2" points="307.97,-21.5 317.97,-18 307.97,-14.5 307.97,-21.5"/>
</a>
</g>
</g>
<!-- set_marker_node_Set(SystemSetKey(4v1)) -->
<!-- set_marker_node_Set(SystemSetKey(3v1))&#45;&gt;set_marker_node_Set(SystemSetKey(4v1)) -->
<g id="edge3" class="edge">
<title>set_marker_node_Set(SystemSetKey(3v1))&#45;&gt;set_marker_node_Set(SystemSetKey(4v1))</title>
<g id="a_edge3"><a xlink:title="TransitionSchedules → EnterSchedules">
<path fill="none" stroke="#00b0cc" stroke-width="2" d="M475.75,-18C478.22,-18 480.69,-18 483.16,-18"/>
<polygon fill="#00b0cc" stroke="#00b0cc" stroke-width="2" points="482.72,-21.5 492.72,-18 482.72,-14.5 482.72,-21.5"/>
</a>
</g>
</g>
</g>
</svg>
