<?xml version="1.0" encoding="UTF-8" standalone="no"?>
<!DOCTYPE svg PUBLIC "-//W3C//DTD SVG 1.1//EN"
 "http://www.w3.org/Graphics/SVG/1.1/DTD/svg11.dtd">
<!-- Generated by graphviz version 8.0.5 (0)
 -->
<!-- Pages: 1 -->
<svg width="308pt" height="395pt"
 viewBox="0.00 0.00 308.00 395.00" xmlns="http://www.w3.org/2000/svg" xmlns:xlink="http://www.w3.org/1999/xlink">
<g id="graph0" class="graph" transform="scale(1 1) rotate(0) translate(4 391)">
<polygon fill="white" stroke="none" points="-4,4 -4,-391 304,-391 304,4 -4,4"/>
<g id="clust1" class="cluster">
<title>clusternode_Set(1)</title>
<g id="a_clust1"><a xlink:title="TransformPropagate">
<path fill="#000000" fill-opacity="0.031373" stroke="#000000" stroke-width="2" stroke-opacity="0.250980" d="M70.62,-8C70.62,-8 229.38,-8 229.38,-8 235.38,-8 241.38,-14 241.38,-20 241.38,-20 241.38,-178 241.38,-178 241.38,-184 235.38,-190 229.38,-190 229.38,-190 70.62,-190 70.62,-190 64.62,-190 58.62,-184 58.62,-178 58.62,-178 58.62,-20 58.62,-20 58.62,-14 64.62,-8 70.62,-8"/>
<text text-anchor="middle" x="150" y="-172.7" font-family="Helvetica,sans-Serif" font-size="14.00" fill="#000000">TransformPropagate</text>
</a>
</g>
</g>
<g id="clust2" class="cluster">
<title>clusternode_Set(0)</title>
<g id="a_clust2"><a xlink:title="PropagateTransformsSet">
<path fill="#000000" fill-opacity="0.031373" stroke="#000000" stroke-width="2" stroke-opacity="0.250980" d="M78.62,-71C78.62,-71 221.38,-71 221.38,-71 227.38,-71 233.38,-77 233.38,-83 233.38,-83 233.38,-146 233.38,-146 233.38,-152 227.38,-158 221.38,-158 221.38,-158 78.62,-158 78.62,-158 72.62,-158 66.62,-152 66.62,-146 66.62,-146 66.62,-83 66.62,-83 66.62,-77 72.62,-71 78.62,-71"/>
<text text-anchor="middle" x="150" y="-140.7" font-family="Helvetica,sans-Serif" font-size="14.00" fill="#000000">PropagateTransformsSet</text>
</a>
</g>
</g>
<g id="clust3" class="cluster">
<title>clusternode_Set(5)</title>
<g id="a_clust3"><a xlink:title="CameraUpdateSystem">
<path fill="#000000" fill-opacity="0.031373" stroke="#000000" stroke-width="2" stroke-opacity="0.250980" d="M20,-198C20,-198 280,-198 280,-198 286,-198 292,-204 292,-210 292,-210 292,-367 292,-367 292,-373 286,-379 280,-379 280,-379 20,-379 20,-379 14,-379 8,-373 8,-367 8,-367 8,-210 8,-210 8,-204 14,-198 20,-198"/>
<text text-anchor="middle" x="150" y="-361.7" font-family="Helvetica,sans-Serif" font-size="14.00" fill="#000000">CameraUpdateSystem</text>
</a>
</g>
</g>
<!-- set_marker_node_Set(1) -->
<!-- set_marker_node_Set(0) -->
<!-- node_System(1) -->
<g id="node3" class="node">
<title>node_System(1)</title>
<g id="a_node3"><a xlink:title="bevy_transform::systems::propagate_transforms">
<polygon fill="#ffe7b9" stroke="#ffc453" points="224.38,-115 75.62,-115 75.62,-79 224.38,-79 224.38,-115"/>
<text text-anchor="middle" x="150" y="-91.58" font-family="Helvetica,sans-Serif" font-size="14.00" fill="#322100">propagate_transforms</text>
</a>
</g>
</g>
<!-- node_System(0) -->
<g id="node4" class="node">
<title>node_System(0)</title>
<g id="a_node4"><a xlink:title="bevy_transform::systems::sync_simple_transforms">
<polygon fill="#ffe7b9" stroke="#ffc453" points="231.5,-52 68.5,-52 68.5,-16 231.5,-16 231.5,-52"/>
<text text-anchor="middle" x="150" y="-28.57" font-family="Helvetica,sans-Serif" font-size="14.00" fill="#322100">sync_simple_transforms</text>
</a>
</g>
</g>
<!-- set_marker_node_Set(5) -->
<!-- node_System(2) -->
<g id="node6" class="node">
<title>node_System(2)</title>
<g id="a_node6"><a xlink:title="bevy_render::camera::camera::camera_system&lt;bevy_render::camera::projection::Projection&gt;">
<polygon fill="#70b9fc" stroke="#0c88f9" points="244.62,-336 55.38,-336 55.38,-300 244.62,-300 244.62,-336"/>
<text text-anchor="middle" x="150" y="-312.57" font-family="Helvetica,sans-Serif" font-size="14.00" fill="#011a31">camera_system&lt;Projection&gt;</text>
</a>
</g>
</g>
<!-- node_System(3) -->
<g id="node7" class="node">
<title>node_System(3)</title>
<g id="a_node7"><a xlink:title="bevy_render::camera::camera::camera_system&lt;bevy_render::camera::projection::OrthographicProjection&gt;">
<polygon fill="#70b9fc" stroke="#0c88f9" points="284,-289 16,-289 16,-253 284,-253 284,-289"/>
<text text-anchor="middle" x="150" y="-265.57" font-family="Helvetica,sans-Serif" font-size="14.00" fill="#011a31">camera_system&lt;OrthographicProjection&gt;</text>
</a>
</g>
</g>
<!-- node_System(4) -->
<g id="node8" class="node">
<title>node_System(4)</title>
<g id="a_node8"><a xlink:title="bevy_render::camera::camera::camera_system&lt;bevy_render::camera::projection::PerspectiveProjection&gt;">
<polygon fill="#70b9fc" stroke="#0c88f9" points="279.88,-242 20.12,-242 20.12,-206 279.88,-206 279.88,-242"/>
<text text-anchor="middle" x="150" y="-218.57" font-family="Helvetica,sans-Serif" font-size="14.00" fill="#011a31">camera_system&lt;PerspectiveProjection&gt;</text>
</a>
</g>
</g>
</g>
</svg>
