<?xml version="1.0" encoding="UTF-8" standalone="no"?>
<!DOCTYPE svg PUBLIC "-//W3C//DTD SVG 1.1//EN"
 "http://www.w3.org/Graphics/SVG/1.1/DTD/svg11.dtd">
<!-- Generated by graphviz version 14.1.1 (0)
 -->
<!-- Pages: 1 -->
<svg width="378pt" height="152pt"
 viewBox="0.00 0.00 378.00 152.00" xmlns="http://www.w3.org/2000/svg" xmlns:xlink="http://www.w3.org/1999/xlink">
<g id="graph0" class="graph" transform="scale(1 1) rotate(0) translate(4 148)">
<polygon fill="white" stroke="none" points="-4,4 -4,-148 374.38,-148 374.38,4 -4,4"/>
<g id="clust1" class="cluster">
<title>clusternode_Set(SystemSetKey(2v1))</title>
<g id="a_clust1"><a xlink:title="Spawn">
<path fill="#000000" fill-opacity="0.031373" stroke="#000000" stroke-width="2" stroke-opacity="0.250980" d="M20,-8C20,-8 350.38,-8 350.38,-8 356.38,-8 362.38,-14 362.38,-20 362.38,-20 362.38,-88 362.38,-88 362.38,-94 356.38,-100 350.38,-100 350.38,-100 20,-100 20,-100 14,-100 8,-94 8,-88 8,-88 8,-20 8,-20 8,-14 14,-8 20,-8"/>
<text xml:space="preserve" text-anchor="middle" x="185.19" y="-82.7" font-family="Helvetica,sans-Serif" font-size="14.00" fill="#000000">Spawn</text>
</a>
</g>
</g>
<!-- set_marker_node_Set(SystemSetKey(2v1)) -->
<!-- node_System(SystemKey(1v1)) -->
<g id="node2" class="node">
<title>node_System(SystemKey(1v1))</title>
<g id="a_node2"><a xlink:title="bevy_scene::scene_spawner::scene_spawner">
<polygon fill="#bacfcb" stroke="#7da59d" points="138.5,-67 16,-67 16,-31 138.5,-31 138.5,-67"/>
<text xml:space="preserve" text-anchor="middle" x="77.25" y="-44.33" font-family="Helvetica,sans-Serif" font-size="14.00" fill="#141e1c">scene_spawner</text>
</a>
</g>
</g>
<!-- node_System(SystemKey(2v1)) -->
<g id="node3" class="node">
<title>node_System(SystemKey(2v1))</title>
<g id="a_node3"><a xlink:title="bevy_scene::scene_spawner::scene_spawner_system">
<polygon fill="#bacfcb" stroke="#7da59d" points="354.38,-67 174.88,-67 174.88,-31 354.38,-31 354.38,-67"/>
<text xml:space="preserve" text-anchor="middle" x="264.62" y="-44.33" font-family="Helvetica,sans-Serif" font-size="14.00" fill="#141e1c">scene_spawner_system</text>
</a>
</g>
</g>
<!-- node_System(SystemKey(1v1))&#45;&gt;node_System(SystemKey(2v1)) -->
<g id="edge1" class="edge">
<title>node_System(SystemKey(1v1))&#45;&gt;node_System(SystemKey(2v1))</title>
<g id="a_edge1"><a xlink:title="scene_spawner → scene_spawner_system">
<path fill="none" stroke="#eede00" stroke-width="2" d="M138.95,-49C146.25,-49 153.86,-49 161.56,-49"/>
<polygon fill="#eede00" stroke="#eede00" stroke-width="2" points="161.52,-52.5 171.52,-49 161.52,-45.5 161.52,-52.5"/>
</a>
</g>
</g>
<!-- node_System(SystemKey(3v1)) -->
<g id="node4" class="node">
<title>node_System(SystemKey(3v1))</title>
<g id="a_node4"><a xlink:title="bevy_ecs::apply_deferred">
<polygon fill="lightgrey" stroke="black" points="138.88,-144 15.62,-144 15.62,-108 138.88,-108 138.88,-144"/>
<text xml:space="preserve" text-anchor="middle" x="77.25" y="-121.33" font-family="Times,serif" font-size="14.00">apply_deferred</text>
</a>
</g>
</g>
</g>
</svg>
