<?xml version="1.0" encoding="UTF-8" standalone="no"?>
<!DOCTYPE svg PUBLIC "-//W3C//DTD SVG 1.1//EN"
 "http://www.w3.org/Graphics/SVG/1.1/DTD/svg11.dtd">
<!-- Generated by graphviz version 12.1.2 (0)
 -->
<!-- Pages: 1 -->
<svg width="1162pt" height="1750pt"
 viewBox="0.00 0.00 1162.25 1750.00" xmlns="http://www.w3.org/2000/svg" xmlns:xlink="http://www.w3.org/1999/xlink">
<g id="graph0" class="graph" transform="scale(1 1) rotate(0) translate(4 1746)">
<polygon fill="white" stroke="none" points="-4,4 -4,-1746 1158.25,-1746 1158.25,4 -4,4"/>
<g id="clust1" class="cluster">
<title>clusternode_Set(4)</title>
<g id="a_clust1"><a xlink:title="AssetEvents">
<path fill="#000000" fill-opacity="0.031373" stroke="#000000" stroke-width="2" stroke-opacity="0.250980" d="M56.12,-8C56.12,-8 440.62,-8 440.62,-8 446.62,-8 452.62,-14 452.62,-20 452.62,-20 452.62,-1169 452.62,-1169 452.62,-1175 446.62,-1181 440.62,-1181 440.62,-1181 56.12,-1181 56.12,-1181 50.12,-1181 44.12,-1175 44.12,-1169 44.12,-1169 44.12,-20 44.12,-20 44.12,-14 50.12,-8 56.12,-8"/>
<text text-anchor="middle" x="248.38" y="-1163.7" font-family="Helvetica,sans-Serif" font-size="14.00" fill="#000000">AssetEvents</text>
</a>
</g>
</g>
<g id="clust2" class="cluster">
<title>clusternode_Set(37)</title>
<g id="a_clust2"><a xlink:title="UpdateGizmoMeshes">
<path fill="#000000" fill-opacity="0.031373" stroke="#000000" stroke-width="2" stroke-opacity="0.250980" d="M536.75,-1244C536.75,-1244 907.75,-1244 907.75,-1244 913.75,-1244 919.75,-1250 919.75,-1256 919.75,-1256 919.75,-1418 919.75,-1418 919.75,-1424 913.75,-1430 907.75,-1430 907.75,-1430 536.75,-1430 536.75,-1430 530.75,-1430 524.75,-1424 524.75,-1418 524.75,-1418 524.75,-1256 524.75,-1256 524.75,-1250 530.75,-1244 536.75,-1244"/>
<text text-anchor="middle" x="722.25" y="-1412.7" font-family="Helvetica,sans-Serif" font-size="14.00" fill="#000000">UpdateGizmoMeshes</text>
</a>
</g>
</g>
<!-- set_marker_node_Set(4) -->
<!-- node_System(3) -->
<g id="node2" class="node">
<title>node_System(3)</title>
<g id="a_node2"><a xlink:title="bevy_asset::assets::Assets&lt;bevy_asset::folder::LoadedFolder&gt;::asset_events">
<polygon fill="#d1cbc5" stroke="#a3988c" points="382.75,-67 114,-67 114,-31 382.75,-31 382.75,-67"/>
<text text-anchor="middle" x="248.38" y="-44.33" font-family="Helvetica,sans-Serif" font-size="14.00" fill="#1c1916">Assets&lt;LoadedFolder&gt;asset_events</text>
</a>
</g>
</g>
<!-- node_System(4) -->
<g id="node3" class="node">
<title>node_System(4)</title>
<g id="a_node3"><a xlink:title="bevy_asset::assets::Assets&lt;bevy_asset::assets::LoadedUntypedAsset&gt;::asset_events">
<polygon fill="#d1cbc5" stroke="#a3988c" points="410.12,-114 86.62,-114 86.62,-78 410.12,-78 410.12,-114"/>
<text text-anchor="middle" x="248.38" y="-91.33" font-family="Helvetica,sans-Serif" font-size="14.00" fill="#1c1916">Assets&lt;LoadedUntypedAsset&gt;asset_events</text>
</a>
</g>
</g>
<!-- node_System(5) -->
<g id="node4" class="node">
<title>node_System(5)</title>
<g id="a_node4"><a xlink:title="bevy_asset::assets::Assets&lt;()&gt;::asset_events">
<polygon fill="#d1cbc5" stroke="#a3988c" points="341.5,-161 155.25,-161 155.25,-125 341.5,-125 341.5,-161"/>
<text text-anchor="middle" x="248.38" y="-138.32" font-family="Helvetica,sans-Serif" font-size="14.00" fill="#1c1916">Assets&lt;()&gt;asset_events</text>
</a>
</g>
</g>
<!-- node_System(6) -->
<g id="node5" class="node">
<title>node_System(6)</title>
<g id="a_node5"><a xlink:title="bevy_asset::assets::Assets&lt;bevy_scene::dynamic_scene::DynamicScene&gt;::asset_events">
<polygon fill="#d1cbc5" stroke="#a3988c" points="387.62,-208 109.12,-208 109.12,-172 387.62,-172 387.62,-208"/>
<text text-anchor="middle" x="248.38" y="-185.32" font-family="Helvetica,sans-Serif" font-size="14.00" fill="#1c1916">Assets&lt;DynamicScene&gt;asset_events</text>
</a>
</g>
</g>
<!-- node_System(7) -->
<g id="node6" class="node">
<title>node_System(7)</title>
<g id="a_node6"><a xlink:title="bevy_asset::assets::Assets&lt;bevy_scene::scene::Scene&gt;::asset_events">
<polygon fill="#d1cbc5" stroke="#a3988c" points="357.25,-255 139.5,-255 139.5,-219 357.25,-219 357.25,-255"/>
<text text-anchor="middle" x="248.38" y="-232.32" font-family="Helvetica,sans-Serif" font-size="14.00" fill="#1c1916">Assets&lt;Scene&gt;asset_events</text>
</a>
</g>
</g>
<!-- node_System(12) -->
<g id="node7" class="node">
<title>node_System(12)</title>
<g id="a_node7"><a xlink:title="bevy_asset::assets::Assets&lt;bevy_render::render_resource::shader::Shader&gt;::asset_events">
<polygon fill="#d1cbc5" stroke="#a3988c" points="361,-302 135.75,-302 135.75,-266 361,-266 361,-302"/>
<text text-anchor="middle" x="248.38" y="-279.32" font-family="Helvetica,sans-Serif" font-size="14.00" fill="#1c1916">Assets&lt;Shader&gt;asset_events</text>
</a>
</g>
</g>
<!-- node_System(14) -->
<g id="node8" class="node">
<title>node_System(14)</title>
<g id="a_node8"><a xlink:title="bevy_asset::assets::Assets&lt;bevy_mesh::mesh::Mesh&gt;::asset_events">
<polygon fill="#d1cbc5" stroke="#a3988c" points="354.62,-349 142.12,-349 142.12,-313 354.62,-313 354.62,-349"/>
<text text-anchor="middle" x="248.38" y="-326.32" font-family="Helvetica,sans-Serif" font-size="14.00" fill="#1c1916">Assets&lt;Mesh&gt;asset_events</text>
</a>
</g>
</g>
<!-- node_System(15) -->
<g id="node9" class="node">
<title>node_System(15)</title>
<g id="a_node9"><a xlink:title="bevy_asset::assets::Assets&lt;bevy_mesh::skinning::SkinnedMeshInverseBindposes&gt;::asset_events">
<polygon fill="#d1cbc5" stroke="#a3988c" points="444.62,-396 52.12,-396 52.12,-360 444.62,-360 444.62,-396"/>
<text text-anchor="middle" x="248.38" y="-373.32" font-family="Helvetica,sans-Serif" font-size="14.00" fill="#1c1916">Assets&lt;SkinnedMeshInverseBindposes&gt;asset_events</text>
</a>
</g>
</g>
<!-- node_System(16) -->
<g id="node10" class="node">
<title>node_System(16)</title>
<g id="a_node10"><a xlink:title="bevy_asset::assets::Assets&lt;bevy_render::storage::ShaderStorageBuffer&gt;::asset_events">
<polygon fill="#d1cbc5" stroke="#a3988c" points="409.38,-443 87.38,-443 87.38,-407 409.38,-407 409.38,-443"/>
<text text-anchor="middle" x="248.38" y="-420.32" font-family="Helvetica,sans-Serif" font-size="14.00" fill="#1c1916">Assets&lt;ShaderStorageBuffer&gt;asset_events</text>
</a>
</g>
</g>
<!-- node_System(17) -->
<g id="node11" class="node">
<title>node_System(17)</title>
<g id="a_node11"><a xlink:title="bevy_asset::assets::Assets&lt;bevy_image::image::Image&gt;::asset_events">
<polygon fill="#d1cbc5" stroke="#a3988c" points="358,-490 138.75,-490 138.75,-454 358,-454 358,-490"/>
<text text-anchor="middle" x="248.38" y="-467.32" font-family="Helvetica,sans-Serif" font-size="14.00" fill="#1c1916">Assets&lt;Image&gt;asset_events</text>
</a>
</g>
</g>
<!-- node_System(19) -->
<g id="node12" class="node">
<title>node_System(19)</title>
<g id="a_node12"><a xlink:title="bevy_asset::assets::Assets&lt;bevy_sprite::texture_atlas::TextureAtlasLayout&gt;::asset_events">
<polygon fill="#d1cbc5" stroke="#a3988c" points="401.5,-537 95.25,-537 95.25,-501 401.5,-501 401.5,-537"/>
<text text-anchor="middle" x="248.38" y="-514.33" font-family="Helvetica,sans-Serif" font-size="14.00" fill="#1c1916">Assets&lt;TextureAtlasLayout&gt;asset_events</text>
</a>
</g>
</g>
<!-- node_System(20) -->
<g id="node13" class="node">
<title>node_System(20)</title>
<g id="a_node13"><a xlink:title="bevy_asset::assets::Assets&lt;bevy_sprite::mesh2d::color_material::ColorMaterial&gt;::asset_events">
<polygon fill="#d1cbc5" stroke="#a3988c" points="382,-584 114.75,-584 114.75,-548 382,-548 382,-584"/>
<text text-anchor="middle" x="248.38" y="-561.33" font-family="Helvetica,sans-Serif" font-size="14.00" fill="#1c1916">Assets&lt;ColorMaterial&gt;asset_events</text>
</a>
</g>
</g>
<!-- node_System(21) -->
<g id="node14" class="node">
<title>node_System(21)</title>
<g id="a_node14"><a xlink:title="bevy_asset::assets::Assets&lt;bevy_text::font::Font&gt;::asset_events">
<polygon fill="#d1cbc5" stroke="#a3988c" points="351.25,-631 145.5,-631 145.5,-595 351.25,-595 351.25,-631"/>
<text text-anchor="middle" x="248.38" y="-608.33" font-family="Helvetica,sans-Serif" font-size="14.00" fill="#1c1916">Assets&lt;Font&gt;asset_events</text>
</a>
</g>
</g>
<!-- node_System(23) -->
<g id="node15" class="node">
<title>node_System(23)</title>
<g id="a_node15"><a xlink:title="bevy_asset::assets::Assets&lt;bevy_pbr::pbr_material::StandardMaterial&gt;::asset_events">
<polygon fill="#d1cbc5" stroke="#a3988c" points="395.5,-678 101.25,-678 101.25,-642 395.5,-642 395.5,-678"/>
<text text-anchor="middle" x="248.38" y="-655.33" font-family="Helvetica,sans-Serif" font-size="14.00" fill="#1c1916">Assets&lt;StandardMaterial&gt;asset_events</text>
</a>
</g>
</g>
<!-- node_System(24) -->
<g id="node16" class="node">
<title>node_System(24)</title>
<g id="a_node16"><a xlink:title="bevy_asset::assets::Assets&lt;bevy_gltf::Gltf&gt;::asset_events">
<polygon fill="#d1cbc5" stroke="#a3988c" points="348.62,-725 148.12,-725 148.12,-689 348.62,-689 348.62,-725"/>
<text text-anchor="middle" x="248.38" y="-702.33" font-family="Helvetica,sans-Serif" font-size="14.00" fill="#1c1916">Assets&lt;Gltf&gt;asset_events</text>
</a>
</g>
</g>
<!-- node_System(25) -->
<g id="node17" class="node">
<title>node_System(25)</title>
<g id="a_node17"><a xlink:title="bevy_asset::assets::Assets&lt;bevy_gltf::GltfNode&gt;::asset_events">
<polygon fill="#d1cbc5" stroke="#a3988c" points="366.62,-772 130.12,-772 130.12,-736 366.62,-736 366.62,-772"/>
<text text-anchor="middle" x="248.38" y="-749.33" font-family="Helvetica,sans-Serif" font-size="14.00" fill="#1c1916">Assets&lt;GltfNode&gt;asset_events</text>
</a>
</g>
</g>
<!-- node_System(26) -->
<g id="node18" class="node">
<title>node_System(26)</title>
<g id="a_node18"><a xlink:title="bevy_asset::assets::Assets&lt;bevy_gltf::GltfPrimitive&gt;::asset_events">
<polygon fill="#d1cbc5" stroke="#a3988c" points="379,-819 117.75,-819 117.75,-783 379,-783 379,-819"/>
<text text-anchor="middle" x="248.38" y="-796.33" font-family="Helvetica,sans-Serif" font-size="14.00" fill="#1c1916">Assets&lt;GltfPrimitive&gt;asset_events</text>
</a>
</g>
</g>
<!-- node_System(27) -->
<g id="node19" class="node">
<title>node_System(27)</title>
<g id="a_node19"><a xlink:title="bevy_asset::assets::Assets&lt;bevy_gltf::GltfMesh&gt;::asset_events">
<polygon fill="#d1cbc5" stroke="#a3988c" points="367,-866 129.75,-866 129.75,-830 367,-830 367,-866"/>
<text text-anchor="middle" x="248.38" y="-843.33" font-family="Helvetica,sans-Serif" font-size="14.00" fill="#1c1916">Assets&lt;GltfMesh&gt;asset_events</text>
</a>
</g>
</g>
<!-- node_System(28) -->
<g id="node20" class="node">
<title>node_System(28)</title>
<g id="a_node20"><a xlink:title="bevy_asset::assets::Assets&lt;bevy_gltf::GltfSkin&gt;::asset_events">
<polygon fill="#d1cbc5" stroke="#a3988c" points="363.62,-913 133.12,-913 133.12,-877 363.62,-877 363.62,-913"/>
<text text-anchor="middle" x="248.38" y="-890.33" font-family="Helvetica,sans-Serif" font-size="14.00" fill="#1c1916">Assets&lt;GltfSkin&gt;asset_events</text>
</a>
</g>
</g>
<!-- node_System(29) -->
<g id="node21" class="node">
<title>node_System(29)</title>
<g id="a_node21"><a xlink:title="bevy_asset::assets::Assets&lt;bevy_audio::audio_source::AudioSource&gt;::asset_events">
<polygon fill="#d1cbc5" stroke="#a3988c" points="379.75,-960 117,-960 117,-924 379.75,-924 379.75,-960"/>
<text text-anchor="middle" x="248.38" y="-937.33" font-family="Helvetica,sans-Serif" font-size="14.00" fill="#1c1916">Assets&lt;AudioSource&gt;asset_events</text>
</a>
</g>
</g>
<!-- node_System(30) -->
<g id="node22" class="node">
<title>node_System(30)</title>
<g id="a_node22"><a xlink:title="bevy_asset::assets::Assets&lt;bevy_audio::pitch::Pitch&gt;::asset_events">
<polygon fill="#d1cbc5" stroke="#a3988c" points="353.12,-1007 143.62,-1007 143.62,-971 353.12,-971 353.12,-1007"/>
<text text-anchor="middle" x="248.38" y="-984.33" font-family="Helvetica,sans-Serif" font-size="14.00" fill="#1c1916">Assets&lt;Pitch&gt;asset_events</text>
</a>
</g>
</g>
<!-- node_System(31) -->
<g id="node23" class="node">
<title>node_System(31)</title>
<g id="a_node23"><a xlink:title="bevy_asset::assets::Assets&lt;bevy_animation::AnimationClip&gt;::asset_events">
<polygon fill="#d1cbc5" stroke="#a3988c" points="384.62,-1054 112.12,-1054 112.12,-1018 384.62,-1018 384.62,-1054"/>
<text text-anchor="middle" x="248.38" y="-1031.33" font-family="Helvetica,sans-Serif" font-size="14.00" fill="#1c1916">Assets&lt;AnimationClip&gt;asset_events</text>
</a>
</g>
</g>
<!-- node_System(32) -->
<g id="node24" class="node">
<title>node_System(32)</title>
<g id="a_node24"><a xlink:title="bevy_asset::assets::Assets&lt;bevy_animation::graph::AnimationGraph&gt;::asset_events">
<polygon fill="#d1cbc5" stroke="#a3988c" points="392.88,-1101 103.88,-1101 103.88,-1065 392.88,-1065 392.88,-1101"/>
<text text-anchor="middle" x="248.38" y="-1078.33" font-family="Helvetica,sans-Serif" font-size="14.00" fill="#1c1916">Assets&lt;AnimationGraph&gt;asset_events</text>
</a>
</g>
</g>
<!-- node_System(33) -->
<g id="node25" class="node">
<title>node_System(33)</title>
<g id="a_node25"><a xlink:title="bevy_asset::assets::Assets&lt;bevy_gizmos::LineGizmo&gt;::asset_events">
<polygon fill="#d1cbc5" stroke="#a3988c" points="372.25,-1148 124.5,-1148 124.5,-1112 372.25,-1112 372.25,-1148"/>
<text text-anchor="middle" x="248.38" y="-1125.33" font-family="Helvetica,sans-Serif" font-size="14.00" fill="#1c1916">Assets&lt;LineGizmo&gt;asset_events</text>
</a>
</g>
</g>
<!-- set_marker_node_Set(37) -->
<!-- node_System(35) -->
<g id="node27" class="node">
<title>node_System(35)</title>
<g id="a_node27"><a xlink:title="bevy_gizmos::update_gizmo_meshes&lt;bevy_gizmos::config::DefaultGizmoConfigGroup&gt;">
<polygon fill="#eff1f3" stroke="#b4bec7" points="911.75,-1303 532.75,-1303 532.75,-1267 911.75,-1267 911.75,-1303"/>
<text text-anchor="middle" x="722.25" y="-1280.33" font-family="Helvetica,sans-Serif" font-size="14.00" fill="#15191d">update_gizmo_meshes&lt;DefaultGizmoConfigGroup&gt;</text>
</a>
</g>
</g>
<!-- node_System(37) -->
<g id="node28" class="node">
<title>node_System(37)</title>
<g id="a_node28"><a xlink:title="bevy_gizmos::update_gizmo_meshes&lt;bevy_gizmos::aabb::AabbGizmoConfigGroup&gt;">
<polygon fill="#eff1f3" stroke="#b4bec7" points="904.62,-1350 539.88,-1350 539.88,-1314 904.62,-1314 904.62,-1350"/>
<text text-anchor="middle" x="722.25" y="-1327.33" font-family="Helvetica,sans-Serif" font-size="14.00" fill="#15191d">update_gizmo_meshes&lt;AabbGizmoConfigGroup&gt;</text>
</a>
</g>
</g>
<!-- node_System(39) -->
<g id="node29" class="node">
<title>node_System(39)</title>
<g id="a_node29"><a xlink:title="bevy_gizmos::update_gizmo_meshes&lt;bevy_gizmos::light::LightGizmoConfigGroup&gt;">
<polygon fill="#eff1f3" stroke="#b4bec7" points="903.88,-1397 540.62,-1397 540.62,-1361 903.88,-1361 903.88,-1397"/>
<text text-anchor="middle" x="722.25" y="-1374.33" font-family="Helvetica,sans-Serif" font-size="14.00" fill="#15191d">update_gizmo_meshes&lt;LightGizmoConfigGroup&gt;</text>
</a>
</g>
</g>
<!-- node_System(0) -->
<g id="node30" class="node">
<title>node_System(0)</title>
<g id="a_node30"><a xlink:title="bevy_core::tick_global_task_pools">
<polygon fill="lightgrey" stroke="black" points="335.12,-1366 161.62,-1366 161.62,-1330 335.12,-1330 335.12,-1366"/>
<text text-anchor="middle" x="248.38" y="-1343.33" font-family="Times,serif" font-size="14.00">tick_global_task_pools</text>
</a>
</g>
</g>
<!-- node_System(1) -->
<g id="node31" class="node">
<title>node_System(1)</title>
<g id="a_node31"><a xlink:title="bevy_core::update_frame_count">
<polygon fill="lightgrey" stroke="black" points="328.75,-1413 168,-1413 168,-1377 328.75,-1377 328.75,-1413"/>
<text text-anchor="middle" x="248.38" y="-1390.33" font-family="Times,serif" font-size="14.00">update_frame_count</text>
</a>
</g>
</g>
<!-- node_System(2) -->
<g id="node32" class="node">
<title>node_System(2)</title>
<g id="a_node32"><a xlink:title="bevy_hierarchy::valid_parent_check_plugin::check_hierarchy_component_has_valid_parent&lt;bevy_transform::components::global_transform::GlobalTransform&gt;">
<polygon fill="lightgrey" stroke="black" points="492.25,-1460 4.5,-1460 4.5,-1424 492.25,-1424 492.25,-1460"/>
<text text-anchor="middle" x="248.38" y="-1437.33" font-family="Times,serif" font-size="14.00">check_hierarchy_component_has_valid_parent&lt;GlobalTransform&gt;</text>
</a>
</g>
</g>
<!-- node_System(8) -->
<g id="node33" class="node">
<title>node_System(8)</title>
<g id="a_node33"><a xlink:title="bevy_winit::system::changed_windows">
<polygon fill="lightgrey" stroke="black" points="320.88,-1507 175.88,-1507 175.88,-1471 320.88,-1471 320.88,-1507"/>
<text text-anchor="middle" x="248.38" y="-1484.33" font-family="Times,serif" font-size="14.00">changed_windows</text>
</a>
</g>
</g>
<!-- node_System(9) -->
<g id="node34" class="node">
<title>node_System(9)</title>
<g id="a_node34"><a xlink:title="bevy_winit::system::despawn_windows">
<polygon fill="lightgrey" stroke="black" points="796.25,-1507 648.25,-1507 648.25,-1471 796.25,-1471 796.25,-1507"/>
<text text-anchor="middle" x="722.25" y="-1484.33" font-family="Times,serif" font-size="14.00">despawn_windows</text>
</a>
</g>
</g>
<!-- node_System(8)&#45;&gt;node_System(9) -->
<g id="edge1" class="edge">
<title>node_System(8)&#45;&gt;node_System(9)</title>
<g id="a_edge1"><a xlink:title="changed_windows → despawn_windows">
<path fill="none" stroke="#eede00" stroke-width="2" d="M321.3,-1489C405.52,-1489 544.93,-1489 634.92,-1489"/>
<polygon fill="#eede00" stroke="#eede00" stroke-width="2" points="634.8,-1492.5 644.8,-1489 634.8,-1485.5 634.8,-1492.5"/>
</a>
</g>
</g>
<!-- node_System(10) -->
<g id="node35" class="node">
<title>node_System(10)</title>
<g id="a_node35"><a xlink:title="bevy_winit::system::check_keyboard_focus_lost">
<polygon fill="lightgrey" stroke="black" points="1154.25,-1507 947.75,-1507 947.75,-1471 1154.25,-1471 1154.25,-1507"/>
<text text-anchor="middle" x="1051" y="-1484.33" font-family="Times,serif" font-size="14.00">check_keyboard_focus_lost</text>
</a>
</g>
</g>
<!-- node_System(9)&#45;&gt;node_System(10) -->
<g id="edge2" class="edge">
<title>node_System(9)&#45;&gt;node_System(10)</title>
<g id="a_edge2"><a xlink:title="despawn_windows → check_keyboard_focus_lost">
<path fill="none" stroke="#881877" stroke-width="2" d="M796.58,-1489C837.25,-1489 888.76,-1489 934.7,-1489"/>
<polygon fill="#881877" stroke="#881877" stroke-width="2" points="934.47,-1492.5 944.47,-1489 934.47,-1485.5 934.47,-1492.5"/>
</a>
</g>
</g>
<!-- node_System(11) -->
<g id="node36" class="node">
<title>node_System(11)</title>
<g id="a_node36"><a xlink:title="bevy_winit::cursor::update_cursors">
<polygon fill="lightgrey" stroke="black" points="311.12,-1554 185.62,-1554 185.62,-1518 311.12,-1518 311.12,-1554"/>
<text text-anchor="middle" x="248.38" y="-1531.33" font-family="Times,serif" font-size="14.00">update_cursors</text>
</a>
</g>
</g>
<!-- node_System(13) -->
<g id="node37" class="node">
<title>node_System(13)</title>
<g id="a_node37"><a xlink:title="bevy_hierarchy::valid_parent_check_plugin::check_hierarchy_component_has_valid_parent&lt;bevy_render::view::visibility::InheritedVisibility&gt;">
<polygon fill="lightgrey" stroke="black" points="496.75,-1601 0,-1601 0,-1565 496.75,-1565 496.75,-1601"/>
<text text-anchor="middle" x="248.38" y="-1578.33" font-family="Times,serif" font-size="14.00">check_hierarchy_component_has_valid_parent&lt;InheritedVisibility&gt;</text>
</a>
</g>
</g>
<!-- node_System(18) -->
<g id="node38" class="node">
<title>node_System(18)</title>
<g id="a_node38"><a xlink:title="bevy_core_pipeline::oit::configure_depth_texture_usages">
<polygon fill="lightgrey" stroke="black" points="371.5,-1648 125.25,-1648 125.25,-1612 371.5,-1612 371.5,-1648"/>
<text text-anchor="middle" x="248.38" y="-1625.33" font-family="Times,serif" font-size="14.00">configure_depth_texture_usages</text>
</a>
</g>
</g>
<!-- node_System(22) -->
<g id="node39" class="node">
<title>node_System(22)</title>
<g id="a_node39"><a xlink:title="bevy_text::pipeline::trim_cosmic_cache">
<polygon fill="lightgrey" stroke="black" points="323.12,-1695 173.62,-1695 173.62,-1659 323.12,-1659 323.12,-1695"/>
<text text-anchor="middle" x="248.38" y="-1672.33" font-family="Times,serif" font-size="14.00">trim_cosmic_cache</text>
</a>
</g>
</g>
<!-- node_System(34) -->
<g id="node40" class="node">
<title>node_System(34)</title>
<g id="a_node40"><a xlink:title="bevy_gizmos::propagate_gizmos&lt;bevy_gizmos::config::DefaultGizmoConfigGroup, bevy_time::fixed::Fixed&gt;">
<polygon fill="lightgrey" stroke="black" points="451.38,-1319 45.38,-1319 45.38,-1283 451.38,-1283 451.38,-1319"/>
<text text-anchor="middle" x="248.38" y="-1296.33" font-family="Times,serif" font-size="14.00">propagate_gizmos&lt;DefaultGizmoConfigGroup, Fixed&gt;</text>
</a>
</g>
</g>
<!-- node_System(34)&#45;&gt;set_marker_node_Set(37) -->
<g id="edge3" class="edge">
<title>node_System(34)&#45;&gt;set_marker_node_Set(37)</title>
<g id="a_edge3"><a xlink:title="propagate_gizmos&lt;DefaultGizmoConfigGroup, Fixed&gt; → UpdateGizmoMeshes">
<path fill="none" stroke="#00b0cc" stroke-width="2" d="M451.63,-1289.4C467.06,-1286.33 482.25,-1282.58 496.75,-1278 505.29,-1275.3 508.71,-1271.27 513.44,-1267.66"/>
<polygon fill="#00b0cc" stroke="#00b0cc" stroke-width="2" points="514.67,-1270.96 522.04,-1263.36 511.53,-1264.7 514.67,-1270.96"/>
</a>
</g>
</g>
<!-- node_System(36) -->
<g id="node41" class="node">
<title>node_System(36)</title>
<g id="a_node41"><a xlink:title="bevy_gizmos::propagate_gizmos&lt;bevy_gizmos::aabb::AabbGizmoConfigGroup, bevy_time::fixed::Fixed&gt;">
<polygon fill="lightgrey" stroke="black" points="443.12,-1272 53.62,-1272 53.62,-1236 443.12,-1236 443.12,-1272"/>
<text text-anchor="middle" x="248.38" y="-1249.33" font-family="Times,serif" font-size="14.00">propagate_gizmos&lt;AabbGizmoConfigGroup, Fixed&gt;</text>
</a>
</g>
</g>
<!-- node_System(36)&#45;&gt;set_marker_node_Set(37) -->
<g id="edge4" class="edge">
<title>node_System(36)&#45;&gt;set_marker_node_Set(37)</title>
<g id="a_edge4"><a xlink:title="propagate_gizmos&lt;AabbGizmoConfigGroup, Fixed&gt; → UpdateGizmoMeshes">
<path fill="none" stroke="#aa3a55" stroke-width="2" d="M443.35,-1254C465.91,-1254 489.01,-1254 511.77,-1254"/>
<polygon fill="#aa3a55" stroke="#aa3a55" stroke-width="2" points="511.72,-1257.5 521.72,-1254 511.72,-1250.5 511.72,-1257.5"/>
</a>
</g>
</g>
<!-- node_System(38) -->
<g id="node42" class="node">
<title>node_System(38)</title>
<g id="a_node42"><a xlink:title="bevy_gizmos::propagate_gizmos&lt;bevy_gizmos::light::LightGizmoConfigGroup, bevy_time::fixed::Fixed&gt;">
<polygon fill="lightgrey" stroke="black" points="443.88,-1225 52.88,-1225 52.88,-1189 443.88,-1189 443.88,-1225"/>
<text text-anchor="middle" x="248.38" y="-1202.33" font-family="Times,serif" font-size="14.00">propagate_gizmos&lt;LightGizmoConfigGroup, Fixed&gt;</text>
</a>
</g>
</g>
<!-- node_System(38)&#45;&gt;set_marker_node_Set(37) -->
<g id="edge5" class="edge">
<title>node_System(38)&#45;&gt;set_marker_node_Set(37)</title>
<g id="a_edge5"><a xlink:title="propagate_gizmos&lt;LightGizmoConfigGroup, Fixed&gt; → UpdateGizmoMeshes">
<path fill="none" stroke="#44d488" stroke-width="2" d="M440.82,-1225.47C459.72,-1227.33 478.61,-1229.19 496.75,-1231 534.31,-1234.75 575.41,-1238.93 612.05,-1242.69"/>
<polygon fill="#44d488" stroke="#44d488" stroke-width="2" points="611.49,-1246.15 621.8,-1243.7 612.21,-1239.19 611.49,-1246.15"/>
</a>
</g>
</g>
<!-- node_System(40) -->
<g id="node43" class="node">
<title>node_System(40)</title>
<g id="a_node43"><a xlink:title="bevy_picking::input::deactivate_touch_pointers">
<polygon fill="lightgrey" stroke="black" points="349.75,-1742 147,-1742 147,-1706 349.75,-1706 349.75,-1742"/>
<text text-anchor="middle" x="248.38" y="-1719.33" font-family="Times,serif" font-size="14.00">deactivate_touch_pointers</text>
</a>
</g>
</g>
</g>
</svg>
