<?xml version="1.0" encoding="UTF-8" standalone="no"?>
<!DOCTYPE svg PUBLIC "-//W3C//DTD SVG 1.1//EN"
 "http://www.w3.org/Graphics/SVG/1.1/DTD/svg11.dtd">
<!-- Generated by graphviz version 12.0.0 (0)
 -->
<!-- Pages: 1 -->
<svg width="349pt" height="199pt"
 viewBox="0.00 0.00 348.50 199.00" xmlns="http://www.w3.org/2000/svg" xmlns:xlink="http://www.w3.org/1999/xlink">
<g id="graph0" class="graph" transform="scale(1 1) rotate(0) translate(4 195)">
<polygon fill="white" stroke="none" points="-4,4 -4,-195 344.5,-195 344.5,4 -4,4"/>
<g id="clust1" class="cluster">
<title>clusternode_Set(1)</title>
<g id="a_clust1"><a xlink:title="TransformPropagate">
<path fill="#000000" fill-opacity="0.031373" stroke="#000000" stroke-width="2" stroke-opacity="0.250980" d="M81.75,-8C81.75,-8 259.5,-8 259.5,-8 265.5,-8 271.5,-14 271.5,-20 271.5,-20 271.5,-53 271.5,-53 271.5,-59 265.5,-65 259.5,-65 259.5,-65 81.75,-65 81.75,-65 75.75,-65 69.75,-59 69.75,-53 69.75,-53 69.75,-20 69.75,-20 69.75,-14 75.75,-8 81.75,-8"/>
<text text-anchor="middle" x="170.62" y="-47.7" font-family="Helvetica,sans-Serif" font-size="14.00" fill="#000000">TransformPropagate</text>
</a>
</g>
</g>
<g id="clust2" class="cluster">
<title>clusternode_Set(0)</title>
<g id="a_clust2"><a xlink:title="PropagateTransformsSet">
<path fill="#000000" fill-opacity="0.031373" stroke="#000000" stroke-width="2" stroke-opacity="0.250980" d="M83.33,-16C83.33,-16 258.17,-16 258.17,-16 260.83,-16 263.5,-18.67 263.5,-21.33 263.5,-21.33 263.5,-26.67 263.5,-26.67 263.5,-29.33 260.83,-32 258.17,-32 258.17,-32 83.33,-32 83.33,-32 80.67,-32 78,-29.33 78,-26.67 78,-26.67 78,-21.33 78,-21.33 78,-18.67 80.67,-16 83.33,-16"/>
<text text-anchor="middle" x="170.75" y="-14.7" font-family="Helvetica,sans-Serif" font-size="14.00" fill="#000000">PropagateTransformsSet</text>
</a>
</g>
</g>
<g id="clust3" class="cluster">
<title>clusternode_Set(5)</title>
<g id="a_clust3"><a xlink:title="CameraUpdateSystem">
<path fill="#000000" fill-opacity="0.031373" stroke="#000000" stroke-width="2" stroke-opacity="0.250980" d="M20,-73C20,-73 320.5,-73 320.5,-73 326.5,-73 332.5,-79 332.5,-85 332.5,-85 332.5,-171 332.5,-171 332.5,-177 326.5,-183 320.5,-183 320.5,-183 20,-183 20,-183 14,-183 8,-177 8,-171 8,-171 8,-85 8,-85 8,-79 14,-73 20,-73"/>
<text text-anchor="middle" x="170.25" y="-165.7" font-family="Helvetica,sans-Serif" font-size="14.00" fill="#000000">CameraUpdateSystem</text>
</a>
</g>
</g>
<!-- node_System(1) -->
<g id="node3" class="node">
<title>node_System(1)</title>
<g id="a_node3"><a xlink:title="bevy_transform::systems::propagate_transforms">
<polygon fill="#ffe7b9" stroke="#ffc453" points="254.75,1 85.75,1 85.75,37 254.75,37 254.75,1"/>
<text text-anchor="middle" x="170.25" y="23.68" font-family="Helvetica,sans-Serif" font-size="14.00" fill="#322100">propagate_transforms</text>
</a>
</g>
</g>
<!-- node_System(0) -->
<g id="node4" class="node">
<title>node_System(0)</title>
<g id="a_node4"><a xlink:title="bevy_transform::systems::sync_simple_transforms">
<polygon fill="#ffe7b9" stroke="#ffc453" points="261.88,-27 78.62,-27 78.62,9 261.88,9 261.88,-27"/>
<text text-anchor="middle" x="170.25" y="-4.33" font-family="Helvetica,sans-Serif" font-size="14.00" fill="#322100">sync_simple_transforms</text>
</a>
</g>
</g>
<!-- set_marker_node_Set(5) -->
<!-- node_System(2) -->
<g id="node6" class="node">
<title>node_System(2)</title>
<g id="a_node6"><a xlink:title="bevy_render::camera::camera::camera_system&lt;bevy_render::camera::projection::Projection&gt;">
<polygon fill="#70b9fc" stroke="#0c88f9" points="278.38,-56 62.12,-56 62.12,-20 278.38,-20 278.38,-56"/>
<text text-anchor="middle" x="170.25" y="-33.33" font-family="Helvetica,sans-Serif" font-size="14.00" fill="#011a31">camera_system&lt;Projection&gt;</text>
</a>
</g>
</g>
<!-- node_System(3) -->
<g id="node7" class="node">
<title>node_System(3)</title>
<g id="a_node7"><a xlink:title="bevy_render::camera::camera::camera_system&lt;bevy_render::camera::projection::OrthographicProjection&gt;">
<polygon fill="#70b9fc" stroke="#0c88f9" points="324.5,-103 16,-103 16,-67 324.5,-67 324.5,-103"/>
<text text-anchor="middle" x="170.25" y="-80.33" font-family="Helvetica,sans-Serif" font-size="14.00" fill="#011a31">camera_system&lt;OrthographicProjection&gt;</text>
</a>
</g>
</g>
<!-- node_System(4) -->
<g id="node8" class="node">
<title>node_System(4)</title>
<g id="a_node8"><a xlink:title="bevy_render::camera::camera::camera_system&lt;bevy_render::camera::projection::PerspectiveProjection&gt;">
<polygon fill="#70b9fc" stroke="#0c88f9" points="318.5,-150 22,-150 22,-114 318.5,-114 318.5,-150"/>
<text text-anchor="middle" x="170.25" y="-127.33" font-family="Helvetica,sans-Serif" font-size="14.00" fill="#011a31">camera_system&lt;PerspectiveProjection&gt;</text>
</a>
</g>
</g>
</g>
</svg>
