<?xml version="1.0" encoding="UTF-8" standalone="no"?>
<!DOCTYPE svg PUBLIC "-//W3C//DTD SVG 1.1//EN"
 "http://www.w3.org/Graphics/SVG/1.1/DTD/svg11.dtd">
<!-- Generated by graphviz version 9.0.0 (0)
 -->
<!-- Pages: 1 -->
<svg width="689pt" height="279pt"
 viewBox="0.00 0.00 688.75 279.00" xmlns="http://www.w3.org/2000/svg" xmlns:xlink="http://www.w3.org/1999/xlink">
<g id="graph0" class="graph" transform="scale(1 1) rotate(0) translate(4 275)">
<polygon fill="white" stroke="none" points="-4,4 -4,-275 684.75,-275 684.75,4 -4,4"/>
<!-- node_System(0) -->
<g id="node1" class="node">
<title>node_System(0)</title>
<g id="a_node1"><a xlink:title="bevy_core::tick_global_task_pools">
<polygon fill="lightgrey" stroke="black" points="335.12,-36 161.62,-36 161.62,0 335.12,0 335.12,-36"/>
<text text-anchor="middle" x="248.38" y="-13.32" font-family="Times,serif" font-size="14.00">tick_global_task_pools</text>
</a>
</g>
</g>
<!-- node_System(1) -->
<g id="node2" class="node">
<title>node_System(1)</title>
<g id="a_node2"><a xlink:title="bevy_core::update_frame_count">
<polygon fill="lightgrey" stroke="black" points="328.75,-83 168,-83 168,-47 328.75,-47 328.75,-83"/>
<text text-anchor="middle" x="248.38" y="-60.33" font-family="Times,serif" font-size="14.00">update_frame_count</text>
</a>
</g>
</g>
<!-- node_System(2) -->
<g id="node3" class="node">
<title>node_System(2)</title>
<g id="a_node3"><a xlink:title="bevy_hierarchy::valid_parent_check_plugin::check_hierarchy_component_has_valid_parent&lt;bevy_transform::components::global_transform::GlobalTransform&gt;">
<polygon fill="lightgrey" stroke="black" points="492.25,-130 4.5,-130 4.5,-94 492.25,-94 492.25,-130"/>
<text text-anchor="middle" x="248.38" y="-107.33" font-family="Times,serif" font-size="14.00">check_hierarchy_component_has_valid_parent&lt;GlobalTransform&gt;</text>
</a>
</g>
</g>
<!-- node_System(3) -->
<g id="node4" class="node">
<title>node_System(3)</title>
<g id="a_node4"><a xlink:title="bevy_winit::system::changed_windows">
<polygon fill="lightgrey" stroke="black" points="320.88,-177 175.88,-177 175.88,-141 320.88,-141 320.88,-177"/>
<text text-anchor="middle" x="248.38" y="-154.32" font-family="Times,serif" font-size="14.00">changed_windows</text>
</a>
</g>
</g>
<!-- node_System(4) -->
<g id="node5" class="node">
<title>node_System(4)</title>
<g id="a_node5"><a xlink:title="bevy_winit::system::despawn_windows">
<polygon fill="lightgrey" stroke="black" points="680.75,-177 532.75,-177 532.75,-141 680.75,-141 680.75,-177"/>
<text text-anchor="middle" x="606.75" y="-154.32" font-family="Times,serif" font-size="14.00">despawn_windows</text>
</a>
</g>
</g>
<!-- node_System(3)&#45;&gt;node_System(4) -->
<g id="edge1" class="edge">
<title>node_System(3)&#45;&gt;node_System(4)</title>
<g id="a_edge1"><a xlink:title="changed_windows → despawn_windows">
<path fill="none" stroke="#eede00" stroke-width="2" d="M321.06,-159C378.37,-159 458.89,-159 519.68,-159"/>
<polygon fill="#eede00" stroke="#eede00" stroke-width="2" points="519.31,-162.5 529.31,-159 519.31,-155.5 519.31,-162.5"/>
</a>
</g>
</g>
<!-- node_System(5) -->
<g id="node6" class="node">
<title>node_System(5)</title>
<g id="a_node6"><a xlink:title="bevy_hierarchy::valid_parent_check_plugin::check_hierarchy_component_has_valid_parent&lt;bevy_render::view::visibility::InheritedVisibility&gt;">
<polygon fill="lightgrey" stroke="black" points="496.75,-224 0,-224 0,-188 496.75,-188 496.75,-224"/>
<text text-anchor="middle" x="248.38" y="-201.32" font-family="Times,serif" font-size="14.00">check_hierarchy_component_has_valid_parent&lt;InheritedVisibility&gt;</text>
</a>
</g>
</g>
<!-- node_System(6) -->
<g id="node7" class="node">
<title>node_System(6)</title>
<g id="a_node7"><a xlink:title="bevy_gizmos::update_gizmo_meshes">
<polygon fill="lightgrey" stroke="black" points="336.25,-271 160.5,-271 160.5,-235 336.25,-235 336.25,-271"/>
<text text-anchor="middle" x="248.38" y="-248.32" font-family="Times,serif" font-size="14.00">update_gizmo_meshes</text>
</a>
</g>
</g>
</g>
</svg>
