<?xml version="1.0" encoding="UTF-8" standalone="no"?>
<!DOCTYPE svg PUBLIC "-//W3C//DTD SVG 1.1//EN"
 "http://www.w3.org/Graphics/SVG/1.1/DTD/svg11.dtd">
<!-- Generated by graphviz version 8.0.5 (0)
 -->
<!-- Pages: 1 -->
<svg width="975pt" height="372pt"
 viewBox="0.00 0.00 975.25 372.00" xmlns="http://www.w3.org/2000/svg" xmlns:xlink="http://www.w3.org/1999/xlink">
<g id="graph0" class="graph" transform="scale(1 1) rotate(0) translate(4 368)">
<polygon fill="white" stroke="none" points="-4,4 -4,-368 971.25,-368 971.25,4 -4,4"/>
<g id="clust1" class="cluster">
<title>clusternode_Set(1)</title>
<g id="a_clust1"><a xlink:title="InputSystem">
<path fill="#000000" fill-opacity="0.031373" stroke="#000000" stroke-width="2" stroke-opacity="0.250980" d="M287,-103C287,-103 947.25,-103 947.25,-103 953.25,-103 959.25,-109 959.25,-115 959.25,-115 959.25,-319 959.25,-319 959.25,-325 953.25,-331 947.25,-331 947.25,-331 287,-331 287,-331 281,-331 275,-325 275,-319 275,-319 275,-115 275,-115 275,-109 281,-103 287,-103"/>
<text text-anchor="middle" x="617.12" y="-313.7" font-family="Helvetica,sans-Serif" font-size="14.00" fill="#000000">InputSystem</text>
</a>
</g>
</g>
<g id="clust2" class="cluster">
<title>clusternode_Set(11)</title>
<g id="a_clust2"><a xlink:title="Focus">
<path fill="#000000" fill-opacity="0.031373" stroke="#000000" stroke-width="2" stroke-opacity="0.250980" d="M552.75,-8C552.75,-8 662,-8 662,-8 668,-8 674,-14 674,-20 674,-20 674,-83 674,-83 674,-89 668,-95 662,-95 662,-95 552.75,-95 552.75,-95 546.75,-95 540.75,-89 540.75,-83 540.75,-83 540.75,-20 540.75,-20 540.75,-14 546.75,-8 552.75,-8"/>
<text text-anchor="middle" x="607.38" y="-77.7" font-family="Helvetica,sans-Serif" font-size="14.00" fill="#000000">Focus</text>
</a>
</g>
</g>
<!-- set_marker_node_Set(1) -->
<!-- node_System(9) -->
<g id="node10" class="node">
<title>node_System(9)</title>
<g id="a_node10"><a xlink:title="bevy_ui::focus::ui_focus_system">
<polygon fill="#ffb1e5" stroke="#ff4bc2" points="666,-52 548.75,-52 548.75,-16 666,-16 666,-52"/>
<text text-anchor="middle" x="607.38" y="-28.57" font-family="Helvetica,sans-Serif" font-size="14.00" fill="#320021">ui_focus_system</text>
</a>
</g>
</g>
<!-- set_marker_node_Set(1)&#45;&gt;node_System(9) -->
<g id="edge6" class="edge">
<title>set_marker_node_Set(1)&#45;&gt;node_System(9)</title>
<g id="a_edge6"><a xlink:title="InputSystem → ui_focus_system">
<path fill="none" stroke="#0090cc" stroke-width="2" d="M379.06,-158C381.4,-158.2 456.43,-164.24 491.93,-103 492.15,-87.17 492.91,-71.12 509,-57"/>
<polygon fill="#0090cc" stroke="#0090cc" stroke-width="2" points="538.91,-46.63 546.42,-39.16 535.89,-40.32 538.91,-46.63"/>
</a>
</g>
</g>
<!-- node_System(0) -->
<g id="node2" class="node">
<title>node_System(0)</title>
<g id="a_node2"><a xlink:title="bevy_input::keyboard::keyboard_input_system">
<polygon fill="#d36aaf" stroke="#a5317d" points="457.62,-252 298.38,-252 298.38,-216 457.62,-216 457.62,-252"/>
<text text-anchor="middle" x="378" y="-228.57" font-family="Helvetica,sans-Serif" font-size="14.00" fill="#270b1d">keyboard_input_system</text>
</a>
</g>
</g>
<!-- node_System(1) -->
<g id="node3" class="node">
<title>node_System(1)</title>
<g id="a_node3"><a xlink:title="bevy_input::mouse::mouse_button_input_system">
<polygon fill="#d36aaf" stroke="#a5317d" points="473,-205 283,-205 283,-169 473,-169 473,-205"/>
<text text-anchor="middle" x="378" y="-181.57" font-family="Helvetica,sans-Serif" font-size="14.00" fill="#270b1d">mouse_button_input_system</text>
</a>
</g>
</g>
<!-- node_System(2) -->
<g id="node4" class="node">
<title>node_System(2)</title>
<g id="a_node4"><a xlink:title="bevy_input::gamepad::gamepad_event_system">
<polygon fill="#d36aaf" stroke="#a5317d" points="460.25,-299 295.75,-299 295.75,-263 460.25,-263 460.25,-299"/>
<text text-anchor="middle" x="378" y="-275.57" font-family="Helvetica,sans-Serif" font-size="14.00" fill="#270b1d">gamepad_event_system</text>
</a>
</g>
</g>
<!-- node_System(3) -->
<g id="node5" class="node">
<title>node_System(3)</title>
<g id="a_node5"><a xlink:title="bevy_input::gamepad::gamepad_connection_system">
<polygon fill="#d36aaf" stroke="#a5317d" points="705.75,-282 509,-282 509,-246 705.75,-246 705.75,-282"/>
<text text-anchor="middle" x="607.38" y="-258.57" font-family="Helvetica,sans-Serif" font-size="14.00" fill="#270b1d">gamepad_connection_system</text>
</a>
</g>
</g>
<!-- node_System(2)&#45;&gt;node_System(3) -->
<g id="edge1" class="edge">
<title>node_System(2)&#45;&gt;node_System(3)</title>
<g id="a_edge1"><a xlink:title="SystemTypeSet(gamepad_event_system&quot;) → gamepad_connection_system">
<path fill="none" stroke="#eede00" stroke-width="2" d="M460.45,-274.91C471.96,-274.05 483.95,-273.15 495.89,-272.26"/>
<polygon fill="#eede00" stroke="#eede00" stroke-width="2" points="496.1,-275.53 505.81,-271.29 495.57,-268.55 496.1,-275.53"/>
</a>
</g>
</g>
<!-- node_System(4) -->
<g id="node6" class="node">
<title>node_System(4)</title>
<g id="a_node6"><a xlink:title="bevy_input::gamepad::gamepad_button_event_system">
<polygon fill="#d36aaf" stroke="#a5317d" points="951.25,-252 741.75,-252 741.75,-216 951.25,-216 951.25,-252"/>
<text text-anchor="middle" x="846.5" y="-228.57" font-family="Helvetica,sans-Serif" font-size="14.00" fill="#270b1d">gamepad_button_event_system</text>
</a>
</g>
</g>
<!-- node_System(2)&#45;&gt;node_System(4) -->
<g id="edge2" class="edge">
<title>node_System(2)&#45;&gt;node_System(4)</title>
<g id="a_edge2"><a xlink:title="SystemTypeSet(gamepad_event_system&quot;) → gamepad_button_event_system">
<path fill="none" stroke="#881877" stroke-width="2" d="M459.32,-262.5C463.98,-261.07 468.57,-259.57 473,-258 489.68,-252.09 491.78,-245.05 509,-241 580.59,-224.16 663.12,-222.19 728.53,-224.53"/>
<polygon fill="#881877" stroke="#881877" stroke-width="2" points="728.24,-228.15 738.38,-225.06 728.53,-221.15 728.24,-228.15"/>
</a>
</g>
</g>
<!-- node_System(5) -->
<g id="node7" class="node">
<title>node_System(5)</title>
<g id="a_node7"><a xlink:title="bevy_input::gamepad::gamepad_axis_event_system">
<polygon fill="#d36aaf" stroke="#a5317d" points="944.5,-299 748.5,-299 748.5,-263 944.5,-263 944.5,-299"/>
<text text-anchor="middle" x="846.5" y="-275.57" font-family="Helvetica,sans-Serif" font-size="14.00" fill="#270b1d">gamepad_axis_event_system</text>
</a>
</g>
</g>
<!-- node_System(2)&#45;&gt;node_System(5) -->
<g id="edge4" class="edge">
<title>node_System(2)&#45;&gt;node_System(5)</title>
<g id="a_edge4"><a xlink:title="SystemTypeSet(gamepad_event_system&quot;) → gamepad_axis_event_system">
<path fill="none" stroke="#aa3a55" stroke-width="2" d="M460.46,-286.06C476.54,-286.87 493.3,-287.58 509,-288 596.41,-290.35 618.33,-290.19 705.75,-288 715.4,-287.76 725.42,-287.42 735.46,-287.03"/>
<polygon fill="#aa3a55" stroke="#aa3a55" stroke-width="2" points="735.32,-290.41 745.17,-286.5 735.03,-283.42 735.32,-290.41"/>
</a>
</g>
</g>
<!-- node_System(3)&#45;&gt;node_System(4) -->
<g id="edge3" class="edge">
<title>node_System(3)&#45;&gt;node_System(4)</title>
<g id="a_edge3"><a xlink:title="SystemTypeSet(gamepad_connection_system&quot;) → gamepad_button_event_system">
<path fill="none" stroke="#00b0cc" stroke-width="2" d="M706.19,-251.62C713.63,-250.68 721.18,-249.73 728.72,-248.77"/>
<polygon fill="#00b0cc" stroke="#00b0cc" stroke-width="2" points="728.9,-251.9 738.38,-247.17 728.02,-244.96 728.9,-251.9"/>
</a>
</g>
</g>
<!-- node_System(3)&#45;&gt;node_System(5) -->
<g id="edge5" class="edge">
<title>node_System(3)&#45;&gt;node_System(5)</title>
<g id="a_edge5"><a xlink:title="SystemTypeSet(gamepad_connection_system&quot;) → gamepad_axis_event_system">
<path fill="none" stroke="#44d488" stroke-width="2" d="M706.19,-271.01C715.86,-271.71 725.72,-272.41 735.5,-273.11"/>
<polygon fill="#44d488" stroke="#44d488" stroke-width="2" points="735.07,-276.81 745.29,-274.03 735.57,-269.82 735.07,-276.81"/>
</a>
</g>
</g>
<!-- node_System(6) -->
<g id="node8" class="node">
<title>node_System(6)</title>
<g id="a_node8"><a xlink:title="bevy_input::touch::touch_screen_input_system">
<polygon fill="#d36aaf" stroke="#a5317d" points="470.38,-147 285.62,-147 285.62,-111 470.38,-111 470.38,-147"/>
<text text-anchor="middle" x="378" y="-123.58" font-family="Helvetica,sans-Serif" font-size="14.00" fill="#270b1d">touch_screen_input_system</text>
</a>
</g>
</g>
<!-- set_marker_node_Set(11) -->
<!-- node_System(7) -->
<g id="node11" class="node">
<title>node_System(7)</title>
<g id="a_node11"><a xlink:title="bevy_asset::asset_server::free_unused_assets_system">
<polygon fill="lightgrey" stroke="black" points="206.12,-223 40.88,-223 40.88,-187 206.12,-187 206.12,-223"/>
<text text-anchor="middle" x="123.5" y="-199.95" font-family="Times,serif" font-size="14.00">free_unused_assets_system</text>
</a>
</g>
</g>
<!-- node_System(8) -->
<g id="node12" class="node">
<title>node_System(8)</title>
<g id="a_node12"><a xlink:title="bevy_scene::bundle::scene_spawner">
<polygon fill="lightgrey" stroke="black" points="172.38,-270 74.62,-270 74.62,-234 172.38,-234 172.38,-270"/>
<text text-anchor="middle" x="123.5" y="-246.95" font-family="Times,serif" font-size="14.00">scene_spawner</text>
</a>
</g>
</g>
<!-- node_System(10) -->
<g id="node13" class="node">
<title>node_System(10)</title>
<g id="a_node13"><a xlink:title="bevy_pbr::prepass::update_mesh_previous_global_transforms">
<polygon fill="lightgrey" stroke="black" points="247,-317 0,-317 0,-281 247,-281 247,-317"/>
<text text-anchor="middle" x="123.5" y="-293.95" font-family="Times,serif" font-size="14.00">update_mesh_previous_global_transforms</text>
</a>
</g>
</g>
<!-- node_System(11) -->
<g id="node14" class="node">
<title>node_System(11)</title>
<g id="a_node14"><a xlink:title="bevy_pbr::prepass::update_previous_view_projections">
<polygon fill="lightgrey" stroke="black" points="226,-364 21,-364 21,-328 226,-328 226,-364"/>
<text text-anchor="middle" x="123.5" y="-340.95" font-family="Times,serif" font-size="14.00">update_previous_view_projections</text>
</a>
</g>
</g>
<!-- node_System(12) -->
<g id="node15" class="node">
<title>node_System(12)</title>
<g id="a_node15"><a xlink:title="bevy_gilrs::gilrs_system::gilrs_event_system">
<polygon fill="lightgrey" stroke="black" points="184,-176 63,-176 63,-140 184,-140 184,-176"/>
<text text-anchor="middle" x="123.5" y="-152.95" font-family="Times,serif" font-size="14.00">gilrs_event_system</text>
</a>
</g>
</g>
<!-- node_System(12)&#45;&gt;set_marker_node_Set(1) -->
<g id="edge7" class="edge">
<title>node_System(12)&#45;&gt;set_marker_node_Set(1)</title>
<g id="a_edge7"><a xlink:title="gilrs_event_system → InputSystem">
<path fill="none" stroke="#ee9e44" stroke-width="2" d="M184.34,-158C207.72,-158 235.36,-158 262.28,-158"/>
<polygon fill="#ee9e44" stroke="#ee9e44" stroke-width="2" points="262,-161.5 272,-158 262,-154.5 262,-161.5"/>
</a>
</g>
</g>
</g>
</svg>
