<?xml version="1.0" encoding="UTF-8" standalone="no"?>
<!DOCTYPE svg PUBLIC "-//W3C//DTD SVG 1.1//EN"
 "http://www.w3.org/Graphics/SVG/1.1/DTD/svg11.dtd">
<!-- Generated by graphviz version 12.1.2 (0)
 -->
<!-- Pages: 1 -->
<svg width="349pt" height="410pt"
 viewBox="0.00 0.00 348.50 410.00" xmlns="http://www.w3.org/2000/svg" xmlns:xlink="http://www.w3.org/1999/xlink">
<g id="graph0" class="graph" transform="scale(1 1) rotate(0) translate(4 406)">
<polygon fill="white" stroke="none" points="-4,4 -4,-406 344.5,-406 344.5,4 -4,4"/>
<g id="clust1" class="cluster">
<title>clusternode_Set(1)</title>
<g id="a_clust1"><a xlink:title="TransformPropagate">
<path fill="#000000" fill-opacity="0.031373" stroke="#000000" stroke-width="2" stroke-opacity="0.250980" d="M81.75,-8C81.75,-8 259.5,-8 259.5,-8 265.5,-8 271.5,-14 271.5,-20 271.5,-20 271.5,-188 271.5,-188 271.5,-194 265.5,-200 259.5,-200 259.5,-200 81.75,-200 81.75,-200 75.75,-200 69.75,-194 69.75,-188 69.75,-188 69.75,-20 69.75,-20 69.75,-14 75.75,-8 81.75,-8"/>
<text text-anchor="middle" x="170.62" y="-182.7" font-family="Helvetica,sans-Serif" font-size="14.00" fill="#000000">TransformPropagate</text>
</a>
</g>
</g>
<g id="clust2" class="cluster">
<title>clusternode_Set(0)</title>
<g id="a_clust2"><a xlink:title="PropagateTransformsSet">
<path fill="#000000" fill-opacity="0.031373" stroke="#000000" stroke-width="2" stroke-opacity="0.250980" d="M90,-16C90,-16 251.5,-16 251.5,-16 257.5,-16 263.5,-22 263.5,-28 263.5,-28 263.5,-96 263.5,-96 263.5,-102 257.5,-108 251.5,-108 251.5,-108 90,-108 90,-108 84,-108 78,-102 78,-96 78,-96 78,-28 78,-28 78,-22 84,-16 90,-16"/>
<text text-anchor="middle" x="170.75" y="-90.7" font-family="Helvetica,sans-Serif" font-size="14.00" fill="#000000">PropagateTransformsSet</text>
</a>
</g>
</g>
<g id="clust3" class="cluster">
<title>clusternode_Set(5)</title>
<g id="a_clust3"><a xlink:title="CameraUpdateSystem">
<path fill="#000000" fill-opacity="0.031373" stroke="#000000" stroke-width="2" stroke-opacity="0.250980" d="M20,-208C20,-208 320.5,-208 320.5,-208 326.5,-208 332.5,-214 332.5,-220 332.5,-220 332.5,-382 332.5,-382 332.5,-388 326.5,-394 320.5,-394 320.5,-394 20,-394 20,-394 14,-394 8,-388 8,-382 8,-382 8,-220 8,-220 8,-214 14,-208 20,-208"/>
<text text-anchor="middle" x="170.25" y="-376.7" font-family="Helvetica,sans-Serif" font-size="14.00" fill="#000000">CameraUpdateSystem</text>
</a>
</g>
</g>
<!-- set_marker_node_Set(1) -->
<!-- set_marker_node_Set(0) -->
<!-- node_System(1) -->
<g id="node3" class="node">
<title>node_System(1)</title>
<g id="a_node3"><a xlink:title="bevy_transform::systems::propagate_transforms">
<polygon fill="#ffe7b9" stroke="#ffc453" points="254.75,-75 85.75,-75 85.75,-39 254.75,-39 254.75,-75"/>
<text text-anchor="middle" x="170.25" y="-52.33" font-family="Helvetica,sans-Serif" font-size="14.00" fill="#322100">propagate_transforms</text>
</a>
</g>
</g>
<!-- node_System(0) -->
<g id="node4" class="node">
<title>node_System(0)</title>
<g id="a_node4"><a xlink:title="bevy_transform::systems::sync_simple_transforms">
<polygon fill="#ffe7b9" stroke="#ffc453" points="261.88,-167 78.62,-167 78.62,-131 261.88,-131 261.88,-167"/>
<text text-anchor="middle" x="170.25" y="-144.32" font-family="Helvetica,sans-Serif" font-size="14.00" fill="#322100">sync_simple_transforms</text>
</a>
</g>
</g>
<!-- set_marker_node_Set(5) -->
<!-- node_System(2) -->
<g id="node6" class="node">
<title>node_System(2)</title>
<g id="a_node6"><a xlink:title="bevy_render::camera::camera::camera_system&lt;bevy_render::camera::projection::Projection&gt;">
<polygon fill="#70b9fc" stroke="#0c88f9" points="278.38,-267 62.12,-267 62.12,-231 278.38,-231 278.38,-267"/>
<text text-anchor="middle" x="170.25" y="-244.32" font-family="Helvetica,sans-Serif" font-size="14.00" fill="#011a31">camera_system&lt;Projection&gt;</text>
</a>
</g>
</g>
<!-- node_System(3) -->
<g id="node7" class="node">
<title>node_System(3)</title>
<g id="a_node7"><a xlink:title="bevy_render::camera::camera::camera_system&lt;bevy_render::camera::projection::OrthographicProjection&gt;">
<polygon fill="#70b9fc" stroke="#0c88f9" points="324.5,-314 16,-314 16,-278 324.5,-278 324.5,-314"/>
<text text-anchor="middle" x="170.25" y="-291.32" font-family="Helvetica,sans-Serif" font-size="14.00" fill="#011a31">camera_system&lt;OrthographicProjection&gt;</text>
</a>
</g>
</g>
<!-- node_System(4) -->
<g id="node8" class="node">
<title>node_System(4)</title>
<g id="a_node8"><a xlink:title="bevy_render::camera::camera::camera_system&lt;bevy_render::camera::projection::PerspectiveProjection&gt;">
<polygon fill="#70b9fc" stroke="#0c88f9" points="318.5,-361 22,-361 22,-325 318.5,-325 318.5,-361"/>
<text text-anchor="middle" x="170.25" y="-338.32" font-family="Helvetica,sans-Serif" font-size="14.00" fill="#011a31">camera_system&lt;PerspectiveProjection&gt;</text>
</a>
</g>
</g>
</g>
</svg>
