<?xml version="1.0" encoding="UTF-8" standalone="no"?>
<!DOCTYPE svg PUBLIC "-//W3C//DTD SVG 1.1//EN"
 "http://www.w3.org/Graphics/SVG/1.1/DTD/svg11.dtd">
<!-- Generated by graphviz version 7.1.0 (0)
 -->
<!-- Pages: 1 -->
<svg width="1541pt" height="439pt"
 viewBox="0.00 0.00 1541.00 439.00" xmlns="http://www.w3.org/2000/svg" xmlns:xlink="http://www.w3.org/1999/xlink">
<g id="graph0" class="graph" transform="scale(1 1) rotate(0) translate(4 435)">
<polygon fill="white" stroke="none" points="-4,4 -4,-435 1537,-435 1537,4 -4,4"/>
<g id="clust1" class="cluster">
<title>clusternode_Set(0)</title>
<g id="a_clust1"><a xlink:title="Startup">
<path fill="#000000" fill-opacity="0.031373" stroke="#000000" stroke-width="2" stroke-opacity="0.250980" d="M660,-55C660,-55 774,-55 774,-55 780,-55 786,-61 786,-67 786,-67 786,-129 786,-129 786,-135 780,-141 774,-141 774,-141 660,-141 660,-141 654,-141 648,-135 648,-129 648,-129 648,-67 648,-67 648,-61 654,-55 660,-55"/>
<text text-anchor="middle" x="717" y="-125.8" font-family="Helvetica,sans-Serif" font-size="14.00">Startup</text>
</a>
</g>
</g>
<g id="clust2" class="cluster">
<title>clusternode_Set(2)</title>
<g id="a_clust2"><a xlink:title="PreStartupFlush">
<path fill="#000000" fill-opacity="0.031373" stroke="#000000" stroke-width="2" stroke-opacity="0.250980" d="M348,-55C348,-55 499,-55 499,-55 505,-55 511,-61 511,-67 511,-67 511,-129 511,-129 511,-135 505,-141 499,-141 499,-141 348,-141 348,-141 342,-141 336,-135 336,-129 336,-129 336,-67 336,-67 336,-61 342,-55 348,-55"/>
<text text-anchor="middle" x="423.5" y="-125.8" font-family="Helvetica,sans-Serif" font-size="14.00">PreStartupFlush</text>
</a>
</g>
</g>
<g id="clust3" class="cluster">
<title>clusternode_Set(3)</title>
<g id="a_clust3"><a xlink:title="StartupFlush">
<path fill="#000000" fill-opacity="0.031373" stroke="#000000" stroke-width="2" stroke-opacity="0.250980" d="M839,-55C839,-55 990,-55 990,-55 996,-55 1002,-61 1002,-67 1002,-67 1002,-129 1002,-129 1002,-135 996,-141 990,-141 990,-141 839,-141 839,-141 833,-141 827,-135 827,-129 827,-129 827,-67 827,-67 827,-61 833,-55 839,-55"/>
<text text-anchor="middle" x="914.5" y="-125.8" font-family="Helvetica,sans-Serif" font-size="14.00">StartupFlush</text>
</a>
</g>
</g>
<g id="clust4" class="cluster">
<title>clusternode_Set(4)</title>
<g id="a_clust4"><a xlink:title="PostStartupFlush">
<path fill="#000000" fill-opacity="0.031373" stroke="#000000" stroke-width="2" stroke-opacity="0.250980" d="M1362,-55C1362,-55 1513,-55 1513,-55 1519,-55 1525,-61 1525,-67 1525,-67 1525,-129 1525,-129 1525,-135 1519,-141 1513,-141 1513,-141 1362,-141 1362,-141 1356,-141 1350,-135 1350,-129 1350,-129 1350,-67 1350,-67 1350,-61 1356,-55 1362,-55"/>
<text text-anchor="middle" x="1437.5" y="-125.8" font-family="Helvetica,sans-Serif" font-size="14.00">PostStartupFlush</text>
</a>
</g>
</g>
<g id="clust5" class="cluster">
<title>clusternode_Set(5)</title>
<g id="a_clust5"><a xlink:title="PreStartup">
<path fill="#000000" fill-opacity="0.031373" stroke="#000000" stroke-width="2" stroke-opacity="0.250980" d="M20,-55C20,-55 208,-55 208,-55 214,-55 220,-61 220,-67 220,-67 220,-129 220,-129 220,-135 214,-141 208,-141 208,-141 20,-141 20,-141 14,-141 8,-135 8,-129 8,-129 8,-67 8,-67 8,-61 14,-55 20,-55"/>
<text text-anchor="middle" x="114" y="-125.8" font-family="Helvetica,sans-Serif" font-size="14.00">PreStartup</text>
</a>
</g>
</g>
<g id="clust6" class="cluster">
<title>clusternode_Set(6)</title>
<g id="a_clust6"><a xlink:title="PostStartup">
<path fill="#000000" fill-opacity="0.031373" stroke="#000000" stroke-width="2" stroke-opacity="0.250980" d="M1026,-102C1026,-102 1326,-102 1326,-102 1332,-102 1338,-108 1338,-114 1338,-114 1338,-411 1338,-411 1338,-417 1332,-423 1326,-423 1326,-423 1026,-423 1026,-423 1020,-423 1014,-417 1014,-411 1014,-411 1014,-114 1014,-114 1014,-108 1020,-102 1026,-102"/>
<text text-anchor="middle" x="1176" y="-407.8" font-family="Helvetica,sans-Serif" font-size="14.00">PostStartup</text>
</a>
</g>
</g>
<g id="clust7" class="cluster">
<title>clusternode_Set(7)</title>
<g id="a_clust7"><a xlink:title="TransformPropagate">
<path fill="#000000" fill-opacity="0.031373" stroke="#000000" stroke-width="2" stroke-opacity="0.250980" d="M1092.5,-306C1092.5,-306 1259.5,-306 1259.5,-306 1265.5,-306 1271.5,-312 1271.5,-318 1271.5,-318 1271.5,-380 1271.5,-380 1271.5,-386 1265.5,-392 1259.5,-392 1259.5,-392 1092.5,-392 1092.5,-392 1086.5,-392 1080.5,-386 1080.5,-380 1080.5,-380 1080.5,-318 1080.5,-318 1080.5,-312 1086.5,-306 1092.5,-306"/>
<text text-anchor="middle" x="1176" y="-376.8" font-family="Helvetica,sans-Serif" font-size="14.00">TransformPropagate</text>
</a>
</g>
</g>
<g id="clust8" class="cluster">
<title>clusternode_Set(12)</title>
<g id="a_clust8"><a xlink:title="CameraUpdateSystem">
<path fill="#000000" fill-opacity="0.031373" stroke="#000000" stroke-width="2" stroke-opacity="0.250980" d="M1034,-118C1034,-118 1318,-118 1318,-118 1324,-118 1330,-124 1330,-130 1330,-130 1330,-286 1330,-286 1330,-292 1324,-298 1318,-298 1318,-298 1034,-298 1034,-298 1028,-298 1022,-292 1022,-286 1022,-286 1022,-130 1022,-130 1022,-124 1028,-118 1034,-118"/>
<text text-anchor="middle" x="1176" y="-282.8" font-family="Helvetica,sans-Serif" font-size="14.00">CameraUpdateSystem</text>
</a>
</g>
</g>
<g id="clust9" class="cluster">
<title>clusternode_Set(9)</title>
<g id="a_clust9"><a xlink:title="PropagateTransformsSet">
<path fill="#000000" fill-opacity="0.031373" stroke="#000000" stroke-width="2" stroke-opacity="0.250980" d="M639,-8C639,-8 795,-8 795,-8 801,-8 807,-14 807,-20 807,-20 807,-35 807,-35 807,-41 801,-47 795,-47 795,-47 639,-47 639,-47 633,-47 627,-41 627,-35 627,-35 627,-20 627,-20 627,-14 633,-8 639,-8"/>
<text text-anchor="middle" x="717" y="-31.8" font-family="Helvetica,sans-Serif" font-size="14.00">PropagateTransformsSet</text>
</a>
</g>
</g>
<!-- set_marker_node_Set(0) -->
<!-- set_marker_node_Set(3) -->
<!-- set_marker_node_Set(0)&#45;&gt;set_marker_node_Set(3) -->
<g id="edge5" class="edge">
<title>set_marker_node_Set(0)&#45;&gt;set_marker_node_Set(3)</title>
<g id="a_edge5"><a xlink:title="Startup → StartupFlush">
<path fill="none" stroke="#00b0cc" stroke-width="2" d="M786,-110C795.12,-110 804.62,-110 814.15,-110"/>
<polygon fill="#00b0cc" stroke="#00b0cc" stroke-width="2" points="813.98,-113.5 823.98,-110 813.98,-106.5 813.98,-113.5"/>
</a>
</g>
</g>
<!-- node_System(5) -->
<g id="node2" class="node">
<title>node_System(5)</title>
<g id="a_node2"><a xlink:title="bevy_diagnostic::system_information_diagnostics_plugin::internal::log_system_info">
<polygon fill="#eff1f3" stroke="#b4bec7" points="778,-99 656,-99 656,-63 778,-63 778,-99"/>
<text text-anchor="middle" x="717" y="-77.3" font-family="Helvetica,sans-Serif" font-size="14.00" fill="#15191d">log_system_info</text>
</a>
</g>
</g>
<!-- set_marker_node_Set(2) -->
<!-- set_marker_node_Set(2)&#45;&gt;set_marker_node_Set(0) -->
<g id="edge4" class="edge">
<title>set_marker_node_Set(2)&#45;&gt;set_marker_node_Set(0)</title>
<g id="a_edge4"><a xlink:title="PreStartupFlush → Startup">
<path fill="none" stroke="#881877" stroke-width="2" d="M511,-110C550.32,-110 596.58,-110 635.19,-110"/>
<polygon fill="#881877" stroke="#881877" stroke-width="2" points="634.97,-113.5 644.97,-110 634.97,-106.5 634.97,-113.5"/>
</a>
</g>
</g>
<!-- node_System(0) -->
<g id="node4" class="node">
<title>node_System(0)</title>
<g id="a_node4"><a xlink:title="bevy_ecs::schedule::executor::apply_system_buffers">
<polygon fill="#e70000" stroke="#5a0000" stroke-width="2" points="503,-99 344,-99 344,-63 503,-63 503,-99"/>
<text text-anchor="middle" x="423.5" y="-77.3" font-family="Helvetica,sans-Serif" font-size="14.00" fill="#ffffff">apply_system_buffers</text>
</a>
</g>
</g>
<!-- set_marker_node_Set(6) -->
<!-- set_marker_node_Set(3)&#45;&gt;set_marker_node_Set(6) -->
<g id="edge6" class="edge">
<title>set_marker_node_Set(3)&#45;&gt;set_marker_node_Set(6)</title>
<g id="a_edge6"><a xlink:title="StartupFlush → PostStartup">
<path fill="none" stroke="#aa3a55" stroke-width="2" d="M1002,-110C1005,-110 1008,-110 1011,-110"/>
<polygon fill="#aa3a55" stroke="#aa3a55" stroke-width="2" points="1000.98,-113.5 1010.98,-110 1000.98,-106.5 1000.98,-113.5"/>
</a>
</g>
</g>
<!-- node_System(1) -->
<g id="node6" class="node">
<title>node_System(1)</title>
<g id="a_node6"><a xlink:title="bevy_ecs::schedule::executor::apply_system_buffers">
<polygon fill="#e70000" stroke="#5a0000" stroke-width="2" points="994,-99 835,-99 835,-63 994,-63 994,-99"/>
<text text-anchor="middle" x="914.5" y="-77.3" font-family="Helvetica,sans-Serif" font-size="14.00" fill="#ffffff">apply_system_buffers</text>
</a>
</g>
</g>
<!-- set_marker_node_Set(4) -->
<!-- node_System(2) -->
<g id="node8" class="node">
<title>node_System(2)</title>
<g id="a_node8"><a xlink:title="bevy_ecs::schedule::executor::apply_system_buffers">
<polygon fill="#e70000" stroke="#5a0000" stroke-width="2" points="1517,-99 1358,-99 1358,-63 1517,-63 1517,-99"/>
<text text-anchor="middle" x="1437.5" y="-77.3" font-family="Helvetica,sans-Serif" font-size="14.00" fill="#ffffff">apply_system_buffers</text>
</a>
</g>
</g>
<!-- set_marker_node_Set(5) -->
<!-- set_marker_node_Set(5)&#45;&gt;set_marker_node_Set(2) -->
<g id="edge3" class="edge">
<title>set_marker_node_Set(5)&#45;&gt;set_marker_node_Set(2)</title>
<g id="a_edge3"><a xlink:title="PreStartup → PreStartupFlush">
<path fill="none" stroke="#eede00" stroke-width="2" d="M220,-110C253.37,-110 290.17,-110 323.13,-110"/>
<polygon fill="#eede00" stroke="#eede00" stroke-width="2" points="322.98,-113.5 332.98,-110 322.97,-106.5 322.98,-113.5"/>
</a>
</g>
</g>
<!-- node_System(9) -->
<g id="node10" class="node">
<title>node_System(9)</title>
<g id="a_node10"><a xlink:title="bevy_gilrs::gilrs_system::gilrs_event_startup_system">
<polygon fill="#973977" stroke="#c86da9" points="212,-99 16,-99 16,-63 212,-63 212,-99"/>
<text text-anchor="middle" x="114" y="-77.3" font-family="Helvetica,sans-Serif" font-size="14.00" fill="#f1d9e9">gilrs_event_startup_system</text>
</a>
</g>
</g>
<!-- set_marker_node_Set(6)&#45;&gt;set_marker_node_Set(4) -->
<g id="edge7" class="edge">
<title>set_marker_node_Set(6)&#45;&gt;set_marker_node_Set(4)</title>
<g id="a_edge7"><a xlink:title="PostStartup → PostStartupFlush">
<path fill="none" stroke="#44d488" stroke-width="2" d="M1338,-110C1341,-110 1344,-110 1347,-110"/>
<polygon fill="#44d488" stroke="#44d488" stroke-width="2" points="1336.98,-113.5 1346.98,-110 1336.98,-106.5 1336.98,-113.5"/>
</a>
</g>
</g>
<!-- set_marker_node_Set(7) -->
<!-- node_System(3) -->
<g id="node13" class="node">
<title>node_System(3)</title>
<g id="a_node13"><a xlink:title="bevy_transform::systems::sync_simple_transforms">
<polygon fill="#ffe7b9" stroke="#ffc453" points="1263.5,-350 1088.5,-350 1088.5,-314 1263.5,-314 1263.5,-350"/>
<text text-anchor="middle" x="1176" y="-328.3" font-family="Helvetica,sans-Serif" font-size="14.00" fill="#322100">sync_simple_transforms</text>
</a>
</g>
</g>
<!-- set_marker_node_Set(12) -->
<!-- node_System(6) -->
<g id="node15" class="node">
<title>node_System(6)</title>
<g id="a_node15"><a xlink:title="bevy_render::camera::camera::camera_system&lt;bevy_render::camera::projection::Projection&gt;">
<polygon fill="#70b9fc" stroke="#0c88f9" points="1277.5,-256 1074.5,-256 1074.5,-220 1277.5,-220 1277.5,-256"/>
<text text-anchor="middle" x="1176" y="-234.3" font-family="Helvetica,sans-Serif" font-size="14.00" fill="#011a31">camera_system&lt;Projection&gt;</text>
</a>
</g>
</g>
<!-- node_System(7) -->
<g id="node16" class="node">
<title>node_System(7)</title>
<g id="a_node16"><a xlink:title="bevy_render::camera::camera::camera_system&lt;bevy_render::camera::projection::OrthographicProjection&gt;">
<polygon fill="#70b9fc" stroke="#0c88f9" points="1322,-209 1030,-209 1030,-173 1322,-173 1322,-209"/>
<text text-anchor="middle" x="1176" y="-187.3" font-family="Helvetica,sans-Serif" font-size="14.00" fill="#011a31">camera_system&lt;OrthographicProjection&gt;</text>
</a>
</g>
</g>
<!-- node_System(8) -->
<g id="node17" class="node">
<title>node_System(8)</title>
<g id="a_node17"><a xlink:title="bevy_render::camera::camera::camera_system&lt;bevy_render::camera::projection::PerspectiveProjection&gt;">
<polygon fill="#70b9fc" stroke="#0c88f9" points="1315.5,-162 1036.5,-162 1036.5,-126 1315.5,-126 1315.5,-162"/>
<text text-anchor="middle" x="1176" y="-140.3" font-family="Helvetica,sans-Serif" font-size="14.00" fill="#011a31">camera_system&lt;PerspectiveProjection&gt;</text>
</a>
</g>
</g>
<!-- set_marker_node_Set(9) -->
<!-- node_System(4) -->
<g id="node19" class="node">
<title>node_System(4)</title>
<g id="a_node19"><a xlink:title="bevy_transform::systems::propagate_transforms">
<polygon fill="lightgrey" stroke="black" points="599,-41 248,-41 248,-3 599,-3 599,-41"/>
<text text-anchor="middle" x="423.5" y="-25.8" font-family="Times,serif" font-size="14.00">propagate_transforms</text>
<text text-anchor="middle" x="423.5" y="-10.8" font-family="Times,serif" font-size="14.00">In multiple sets, Startup, PropagateTransformsSet</text>
</a>
</g>
</g>
<!-- node_System(4)&#45;&gt;set_marker_node_Set(0) -->
<g id="edge1" class="edge">
<title>node_System(4)&#45;&gt;set_marker_node_Set(0)</title>
<path fill="none" stroke="blue" stroke-width="2" d="M579.48,-41.42C586.32,-44.77 592.87,-48.61 599,-53 620.01,-68.07 605.2,-90.09 627,-104 633.37,-108.07 640.56,-110.8 648,-112.56"/>
</g>
<!-- node_System(4)&#45;&gt;set_marker_node_Set(9) -->
<g id="edge2" class="edge">
<title>node_System(4)&#45;&gt;set_marker_node_Set(9)</title>
<path fill="none" stroke="blue" stroke-width="2" d="M599.12,-18.41C608.64,-18.21 617.99,-18.02 627,-17.83"/>
</g>
</g>
</svg>
