<?xml version="1.0" encoding="UTF-8" standalone="no"?>
<!DOCTYPE svg PUBLIC "-//W3C//DTD SVG 1.1//EN"
 "http://www.w3.org/Graphics/SVG/1.1/DTD/svg11.dtd">
<!-- Generated by graphviz version 10.0.1 (0)
 -->
<!-- Pages: 1 -->
<svg width="349pt" height="398pt"
 viewBox="0.00 0.00 348.50 398.00" xmlns="http://www.w3.org/2000/svg" xmlns:xlink="http://www.w3.org/1999/xlink">
<g id="graph0" class="graph" transform="scale(1 1) rotate(0) translate(4 394)">
<polygon fill="white" stroke="none" points="-4,4 -4,-394 344.5,-394 344.5,4 -4,4"/>
<g id="clust1" class="cluster">
<title>clusternode_Set(1)</title>
<g id="a_clust1"><a xlink:title="TransformPropagate">
<path fill="#000000" fill-opacity="0.031373" stroke="#000000" stroke-width="2" stroke-opacity="0.250980" d="M81.75,-8C81.75,-8 258.75,-8 258.75,-8 264.75,-8 270.75,-14 270.75,-20 270.75,-20 270.75,-180 270.75,-180 270.75,-186 264.75,-192 258.75,-192 258.75,-192 81.75,-192 81.75,-192 75.75,-192 69.75,-186 69.75,-180 69.75,-180 69.75,-20 69.75,-20 69.75,-14 75.75,-8 81.75,-8"/>
<text text-anchor="middle" x="170.25" y="-174.7" font-family="Helvetica,sans-Serif" font-size="14.00" fill="#000000">TransformPropagate</text>
</a>
</g>
</g>
<g id="clust2" class="cluster">
<title>clusternode_Set(0)</title>
<g id="a_clust2"><a xlink:title="PropagateTransformsSet">
<path fill="#000000" fill-opacity="0.031373" stroke="#000000" stroke-width="2" stroke-opacity="0.250980" d="M89.75,-16C89.75,-16 250.75,-16 250.75,-16 256.75,-16 262.75,-22 262.75,-28 262.75,-28 262.75,-92 262.75,-92 262.75,-98 256.75,-104 250.75,-104 250.75,-104 89.75,-104 89.75,-104 83.75,-104 77.75,-98 77.75,-92 77.75,-92 77.75,-28 77.75,-28 77.75,-22 83.75,-16 89.75,-16"/>
<text text-anchor="middle" x="170.25" y="-86.7" font-family="Helvetica,sans-Serif" font-size="14.00" fill="#000000">PropagateTransformsSet</text>
</a>
</g>
</g>
<g id="clust3" class="cluster">
<title>clusternode_Set(5)</title>
<g id="a_clust3"><a xlink:title="CameraUpdateSystem">
<path fill="#000000" fill-opacity="0.031373" stroke="#000000" stroke-width="2" stroke-opacity="0.250980" d="M20,-200C20,-200 320.5,-200 320.5,-200 326.5,-200 332.5,-206 332.5,-212 332.5,-212 332.5,-370 332.5,-370 332.5,-376 326.5,-382 320.5,-382 320.5,-382 20,-382 20,-382 14,-382 8,-376 8,-370 8,-370 8,-212 8,-212 8,-206 14,-200 20,-200"/>
<text text-anchor="middle" x="170.25" y="-364.7" font-family="Helvetica,sans-Serif" font-size="14.00" fill="#000000">CameraUpdateSystem</text>
</a>
</g>
</g>
<!-- set_marker_node_Set(1) -->
<!-- set_marker_node_Set(0) -->
<!-- node_System(1) -->
<g id="node3" class="node">
<title>node_System(1)</title>
<g id="a_node3"><a xlink:title="bevy_transform::systems::propagate_transforms">
<polygon fill="#ffe7b9" stroke="#ffc453" points="254.75,-71 85.75,-71 85.75,-35 254.75,-35 254.75,-71"/>
<text text-anchor="middle" x="170.25" y="-48.33" font-family="Helvetica,sans-Serif" font-size="14.00" fill="#322100">propagate_transforms</text>
</a>
</g>
</g>
<!-- node_System(0) -->
<g id="node4" class="node">
<title>node_System(0)</title>
<g id="a_node4"><a xlink:title="bevy_transform::systems::sync_simple_transforms">
<polygon fill="#ffe7b9" stroke="#ffc453" points="261.88,-159 78.62,-159 78.62,-123 261.88,-123 261.88,-159"/>
<text text-anchor="middle" x="170.25" y="-136.32" font-family="Helvetica,sans-Serif" font-size="14.00" fill="#322100">sync_simple_transforms</text>
</a>
</g>
</g>
<!-- set_marker_node_Set(5) -->
<!-- node_System(2) -->
<g id="node6" class="node">
<title>node_System(2)</title>
<g id="a_node6"><a xlink:title="bevy_render::camera::camera::camera_system&lt;bevy_render::camera::projection::Projection&gt;">
<polygon fill="#70b9fc" stroke="#0c88f9" points="278.38,-255 62.12,-255 62.12,-219 278.38,-219 278.38,-255"/>
<text text-anchor="middle" x="170.25" y="-232.32" font-family="Helvetica,sans-Serif" font-size="14.00" fill="#011a31">camera_system&lt;Projection&gt;</text>
</a>
</g>
</g>
<!-- node_System(3) -->
<g id="node7" class="node">
<title>node_System(3)</title>
<g id="a_node7"><a xlink:title="bevy_render::camera::camera::camera_system&lt;bevy_render::camera::projection::OrthographicProjection&gt;">
<polygon fill="#70b9fc" stroke="#0c88f9" points="324.5,-302 16,-302 16,-266 324.5,-266 324.5,-302"/>
<text text-anchor="middle" x="170.25" y="-279.32" font-family="Helvetica,sans-Serif" font-size="14.00" fill="#011a31">camera_system&lt;OrthographicProjection&gt;</text>
</a>
</g>
</g>
<!-- node_System(4) -->
<g id="node8" class="node">
<title>node_System(4)</title>
<g id="a_node8"><a xlink:title="bevy_render::camera::camera::camera_system&lt;bevy_render::camera::projection::PerspectiveProjection&gt;">
<polygon fill="#70b9fc" stroke="#0c88f9" points="318.5,-349 22,-349 22,-313 318.5,-313 318.5,-349"/>
<text text-anchor="middle" x="170.25" y="-326.32" font-family="Helvetica,sans-Serif" font-size="14.00" fill="#011a31">camera_system&lt;PerspectiveProjection&gt;</text>
</a>
</g>
</g>
</g>
</svg>
