<?xml version="1.0" encoding="UTF-8" standalone="no"?>
<!DOCTYPE svg PUBLIC "-//W3C//DTD SVG 1.1//EN"
 "http://www.w3.org/Graphics/SVG/1.1/DTD/svg11.dtd">
<!-- Generated by graphviz version 14.1.1 (0)
 -->
<!-- Pages: 1 -->
<svg width="1106pt" height="210pt"
 viewBox="0.00 0.00 1106.00 210.00" xmlns="http://www.w3.org/2000/svg" xmlns:xlink="http://www.w3.org/1999/xlink">
<g id="graph0" class="graph" transform="scale(1 1) rotate(0) translate(4 206)">
<polygon fill="white" stroke="none" points="-4,4 -4,-206 1101.75,-206 1101.75,4 -4,4"/>
<g id="clust1" class="cluster">
<title>clusternode_Set(SystemSetKey(1v1))</title>
<g id="a_clust1"><a xlink:title="BeforeFixedMainLoop">
<path fill="#000000" fill-opacity="0.031373" stroke="#000000" stroke-width="2" stroke-opacity="0.250980" d="M20,-8C20,-8 416.5,-8 416.5,-8 422.5,-8 428.5,-14 428.5,-20 428.5,-20 428.5,-182 428.5,-182 428.5,-188 422.5,-194 416.5,-194 416.5,-194 20,-194 20,-194 14,-194 8,-188 8,-182 8,-182 8,-20 8,-20 8,-14 14,-8 20,-8"/>
<text xml:space="preserve" text-anchor="middle" x="218.25" y="-176.7" font-family="Helvetica,sans-Serif" font-size="14.00" fill="#000000">BeforeFixedMainLoop</text>
</a>
</g>
</g>
<g id="clust2" class="cluster">
<title>clusternode_Set(SystemSetKey(2v1))</title>
<g id="a_clust2"><a xlink:title="FixedMainLoop">
<path fill="#000000" fill-opacity="0.031373" stroke="#000000" stroke-width="2" stroke-opacity="0.250980" d="M460.5,-8C460.5,-8 643.25,-8 643.25,-8 649.25,-8 655.25,-14 655.25,-20 655.25,-20 655.25,-88 655.25,-88 655.25,-94 649.25,-100 643.25,-100 643.25,-100 460.5,-100 460.5,-100 454.5,-100 448.5,-94 448.5,-88 448.5,-88 448.5,-20 448.5,-20 448.5,-14 454.5,-8 460.5,-8"/>
<text xml:space="preserve" text-anchor="middle" x="551.88" y="-82.7" font-family="Helvetica,sans-Serif" font-size="14.00" fill="#000000">FixedMainLoop</text>
</a>
</g>
</g>
<g id="clust3" class="cluster">
<title>clusternode_Set(SystemSetKey(3v1))</title>
<g id="a_clust3"><a xlink:title="AfterFixedMainLoop">
<path fill="#000000" fill-opacity="0.031373" stroke="#000000" stroke-width="2" stroke-opacity="0.250980" d="M687.25,-8C687.25,-8 1077.75,-8 1077.75,-8 1083.75,-8 1089.75,-14 1089.75,-20 1089.75,-20 1089.75,-182 1089.75,-182 1089.75,-188 1083.75,-194 1077.75,-194 1077.75,-194 687.25,-194 687.25,-194 681.25,-194 675.25,-188 675.25,-182 675.25,-182 675.25,-20 675.25,-20 675.25,-14 681.25,-8 687.25,-8"/>
<text xml:space="preserve" text-anchor="middle" x="882.5" y="-176.7" font-family="Helvetica,sans-Serif" font-size="14.00" fill="#000000">AfterFixedMainLoop</text>
</a>
</g>
</g>
<!-- set_marker_node_Set(SystemSetKey(1v1)) -->
<!-- set_marker_node_Set(SystemSetKey(2v1)) -->
<!-- set_marker_node_Set(SystemSetKey(1v1))&#45;&gt;set_marker_node_Set(SystemSetKey(2v1)) -->
<g id="edge1" class="edge">
<title>set_marker_node_Set(SystemSetKey(1v1))&#45;&gt;set_marker_node_Set(SystemSetKey(2v1))</title>
<g id="a_edge1"><a xlink:title="BeforeFixedMainLoop → FixedMainLoop">
<path fill="none" stroke="#eede00" stroke-width="2" d="M428.5,-18C430.9,-18 433.28,-18 435.66,-18"/>
<polygon fill="#eede00" stroke="#eede00" stroke-width="2" points="435.48,-21.5 445.48,-18 435.48,-14.5 435.48,-21.5"/>
</a>
</g>
</g>
<!-- node_System(SystemKey(2v1)) -->
<g id="node2" class="node">
<title>node_System(SystemKey(2v1))</title>
<g id="a_node2"><a xlink:title="bevy_gizmos::start_gizmo_context&lt;bevy_gizmos::config::DefaultGizmoConfigGroup, bevy_time::fixed::Fixed&gt;">
<polygon fill="#eff1f3" stroke="#b4bec7" points="420.5,-67 16,-67 16,-31 420.5,-31 420.5,-67"/>
<text xml:space="preserve" text-anchor="middle" x="218.25" y="-44.33" font-family="Helvetica,sans-Serif" font-size="14.00" fill="#15191d">start_gizmo_context&lt;DefaultGizmoConfigGroup, Fixed&gt;</text>
</a>
</g>
</g>
<!-- node_System(SystemKey(4v1)) -->
<g id="node3" class="node">
<title>node_System(SystemKey(4v1))</title>
<g id="a_node3"><a xlink:title="bevy_gizmos::start_gizmo_context&lt;bevy_gizmos::aabb::AabbGizmoConfigGroup, bevy_time::fixed::Fixed&gt;">
<polygon fill="#eff1f3" stroke="#b4bec7" points="413.38,-114 23.12,-114 23.12,-78 413.38,-78 413.38,-114"/>
<text xml:space="preserve" text-anchor="middle" x="218.25" y="-91.33" font-family="Helvetica,sans-Serif" font-size="14.00" fill="#15191d">start_gizmo_context&lt;AabbGizmoConfigGroup, Fixed&gt;</text>
</a>
</g>
</g>
<!-- node_System(SystemKey(6v1)) -->
<g id="node4" class="node">
<title>node_System(SystemKey(6v1))</title>
<g id="a_node4"><a xlink:title="bevy_gizmos::start_gizmo_context&lt;bevy_gizmos::light::LightGizmoConfigGroup, bevy_time::fixed::Fixed&gt;">
<polygon fill="#eff1f3" stroke="#b4bec7" points="412.62,-161 23.88,-161 23.88,-125 412.62,-125 412.62,-161"/>
<text xml:space="preserve" text-anchor="middle" x="218.25" y="-138.32" font-family="Helvetica,sans-Serif" font-size="14.00" fill="#15191d">start_gizmo_context&lt;LightGizmoConfigGroup, Fixed&gt;</text>
</a>
</g>
</g>
<!-- set_marker_node_Set(SystemSetKey(3v1)) -->
<!-- set_marker_node_Set(SystemSetKey(2v1))&#45;&gt;set_marker_node_Set(SystemSetKey(3v1)) -->
<g id="edge2" class="edge">
<title>set_marker_node_Set(SystemSetKey(2v1))&#45;&gt;set_marker_node_Set(SystemSetKey(3v1))</title>
<g id="a_edge2"><a xlink:title="FixedMainLoop → AfterFixedMainLoop">
<path fill="none" stroke="#881877" stroke-width="2" d="M655.25,-18C657.58,-18 659.93,-18 662.29,-18"/>
<polygon fill="#881877" stroke="#881877" stroke-width="2" points="662.23,-21.5 672.23,-18 662.23,-14.5 662.23,-21.5"/>
</a>
</g>
</g>
<!-- node_System(SystemKey(1v1)) -->
<g id="node6" class="node">
<title>node_System(SystemKey(1v1))</title>
<g id="a_node6"><a xlink:title="bevy_time::fixed::run_fixed_main_schedule">
<polygon fill="#c7ddbd" stroke="#8dba79" points="647.25,-67 456.5,-67 456.5,-31 647.25,-31 647.25,-67"/>
<text xml:space="preserve" text-anchor="middle" x="551.88" y="-44.33" font-family="Helvetica,sans-Serif" font-size="14.00" fill="#162111">run_fixed_main_schedule</text>
</a>
</g>
</g>
<!-- node_System(SystemKey(3v1)) -->
<g id="node8" class="node">
<title>node_System(SystemKey(3v1))</title>
<g id="a_node8"><a xlink:title="bevy_gizmos::end_gizmo_context&lt;bevy_gizmos::config::DefaultGizmoConfigGroup, bevy_time::fixed::Fixed&gt;">
<polygon fill="#eff1f3" stroke="#b4bec7" points="1081.75,-67 683.25,-67 683.25,-31 1081.75,-31 1081.75,-67"/>
<text xml:space="preserve" text-anchor="middle" x="882.5" y="-44.33" font-family="Helvetica,sans-Serif" font-size="14.00" fill="#15191d">end_gizmo_context&lt;DefaultGizmoConfigGroup, Fixed&gt;</text>
</a>
</g>
</g>
<!-- node_System(SystemKey(5v1)) -->
<g id="node9" class="node">
<title>node_System(SystemKey(5v1))</title>
<g id="a_node9"><a xlink:title="bevy_gizmos::end_gizmo_context&lt;bevy_gizmos::aabb::AabbGizmoConfigGroup, bevy_time::fixed::Fixed&gt;">
<polygon fill="#eff1f3" stroke="#b4bec7" points="1074.62,-114 690.38,-114 690.38,-78 1074.62,-78 1074.62,-114"/>
<text xml:space="preserve" text-anchor="middle" x="882.5" y="-91.33" font-family="Helvetica,sans-Serif" font-size="14.00" fill="#15191d">end_gizmo_context&lt;AabbGizmoConfigGroup, Fixed&gt;</text>
</a>
</g>
</g>
<!-- node_System(SystemKey(7v1)) -->
<g id="node10" class="node">
<title>node_System(SystemKey(7v1))</title>
<g id="a_node10"><a xlink:title="bevy_gizmos::end_gizmo_context&lt;bevy_gizmos::light::LightGizmoConfigGroup, bevy_time::fixed::Fixed&gt;">
<polygon fill="#eff1f3" stroke="#b4bec7" points="1073.88,-161 691.12,-161 691.12,-125 1073.88,-125 1073.88,-161"/>
<text xml:space="preserve" text-anchor="middle" x="882.5" y="-138.32" font-family="Helvetica,sans-Serif" font-size="14.00" fill="#15191d">end_gizmo_context&lt;LightGizmoConfigGroup, Fixed&gt;</text>
</a>
</g>
</g>
</g>
</svg>
