<?xml version="1.0" encoding="UTF-8" standalone="no"?>
<!DOCTYPE svg PUBLIC "-//W3C//DTD SVG 1.1//EN"
 "http://www.w3.org/Graphics/SVG/1.1/DTD/svg11.dtd">
<!-- Generated by graphviz version 9.0.0 (0)
 -->
<!-- Pages: 1 -->
<svg width="1087pt" height="465pt"
 viewBox="0.00 0.00 1086.75 465.00" xmlns="http://www.w3.org/2000/svg" xmlns:xlink="http://www.w3.org/1999/xlink">
<g id="graph0" class="graph" transform="scale(1 1) rotate(0) translate(4 461)">
<polygon fill="white" stroke="none" points="-4,4 -4,-461 1082.75,-461 1082.75,4 -4,4"/>
<g id="clust1" class="cluster">
<title>clusternode_Set(1)</title>
<g id="a_clust1"><a xlink:title="InputSystem">
<path fill="#000000" fill-opacity="0.031373" stroke="#000000" stroke-width="2" stroke-opacity="0.250980" d="M664.25,-8C664.25,-8 892.75,-8 892.75,-8 898.75,-8 904.75,-14 904.75,-20 904.75,-20 904.75,-366 904.75,-366 904.75,-372 898.75,-378 892.75,-378 892.75,-378 664.25,-378 664.25,-378 658.25,-378 652.25,-372 652.25,-366 652.25,-366 652.25,-20 652.25,-20 652.25,-14 658.25,-8 664.25,-8"/>
<text text-anchor="middle" x="778.5" y="-360.7" font-family="Helvetica,sans-Serif" font-size="14.00" fill="#000000">InputSystem</text>
</a>
</g>
</g>
<g id="clust2" class="cluster">
<title>clusternode_Set(9)</title>
<g id="a_clust2"><a xlink:title="Focus">
<path fill="#000000" fill-opacity="0.031373" stroke="#000000" stroke-width="2" stroke-opacity="0.250980" d="M936.75,-319C936.75,-319 1058.75,-319 1058.75,-319 1064.75,-319 1070.75,-325 1070.75,-331 1070.75,-331 1070.75,-395 1070.75,-395 1070.75,-401 1064.75,-407 1058.75,-407 1058.75,-407 936.75,-407 936.75,-407 930.75,-407 924.75,-401 924.75,-395 924.75,-395 924.75,-331 924.75,-331 924.75,-325 930.75,-319 936.75,-319"/>
<text text-anchor="middle" x="997.75" y="-389.7" font-family="Helvetica,sans-Serif" font-size="14.00" fill="#000000">Focus</text>
</a>
</g>
</g>
<!-- set_marker_node_Set(1) -->
<!-- node_System(7) -->
<g id="node10" class="node">
<title>node_System(7)</title>
<g id="a_node10"><a xlink:title="bevy_ui::focus::ui_focus_system">
<polygon fill="#ffb1e5" stroke="#ff4bc2" points="1062.75,-363 932.75,-363 932.75,-327 1062.75,-327 1062.75,-363"/>
<text text-anchor="middle" x="997.75" y="-340.32" font-family="Helvetica,sans-Serif" font-size="14.00" fill="#320021">ui_focus_system</text>
</a>
</g>
</g>
<!-- set_marker_node_Set(1)&#45;&gt;node_System(7) -->
<g id="edge6" class="edge">
<title>set_marker_node_Set(1)&#45;&gt;node_System(7)</title>
<g id="a_edge6"><a xlink:title="InputSystem → ui_focus_system">
<path fill="none" stroke="#0090cc" stroke-width="2" d="M904.75,-345C909.79,-345 914.78,-345 919.68,-345"/>
<polygon fill="#0090cc" stroke="#0090cc" stroke-width="2" points="919.38,-348.5 929.38,-345 919.38,-341.5 919.38,-348.5"/>
</a>
</g>
</g>
<!-- node_System(0) -->
<g id="node2" class="node">
<title>node_System(0)</title>
<g id="a_node2"><a xlink:title="bevy_input::keyboard::keyboard_input_system">
<polygon fill="#d36aaf" stroke="#a5317d" points="868.25,-334 688.75,-334 688.75,-298 868.25,-298 868.25,-334"/>
<text text-anchor="middle" x="778.5" y="-311.32" font-family="Helvetica,sans-Serif" font-size="14.00" fill="#270b1d">keyboard_input_system</text>
</a>
</g>
</g>
<!-- node_System(1) -->
<g id="node3" class="node">
<title>node_System(1)</title>
<g id="a_node3"><a xlink:title="bevy_input::mouse::mouse_button_input_system">
<polygon fill="#d36aaf" stroke="#a5317d" points="885.88,-287 671.12,-287 671.12,-251 885.88,-251 885.88,-287"/>
<text text-anchor="middle" x="778.5" y="-264.32" font-family="Helvetica,sans-Serif" font-size="14.00" fill="#270b1d">mouse_button_input_system</text>
</a>
</g>
</g>
<!-- node_System(2) -->
<g id="node4" class="node">
<title>node_System(2)</title>
<g id="a_node4"><a xlink:title="bevy_input::gamepad::gamepad_event_system">
<polygon fill="#d36aaf" stroke="#a5317d" points="870.5,-240 686.5,-240 686.5,-204 870.5,-204 870.5,-240"/>
<text text-anchor="middle" x="778.5" y="-217.32" font-family="Helvetica,sans-Serif" font-size="14.00" fill="#270b1d">gamepad_event_system</text>
</a>
</g>
</g>
<!-- node_System(3) -->
<g id="node5" class="node">
<title>node_System(3)</title>
<g id="a_node5"><a xlink:title="bevy_input::gamepad::gamepad_connection_system">
<polygon fill="#d36aaf" stroke="#a5317d" points="888.88,-193 668.12,-193 668.12,-157 888.88,-157 888.88,-193"/>
<text text-anchor="middle" x="778.5" y="-170.32" font-family="Helvetica,sans-Serif" font-size="14.00" fill="#270b1d">gamepad_connection_system</text>
</a>
</g>
</g>
<!-- node_System(4) -->
<g id="node6" class="node">
<title>node_System(4)</title>
<g id="a_node6"><a xlink:title="bevy_input::gamepad::gamepad_button_event_system">
<polygon fill="#d36aaf" stroke="#a5317d" points="896.75,-146 660.25,-146 660.25,-110 896.75,-110 896.75,-146"/>
<text text-anchor="middle" x="778.5" y="-123.33" font-family="Helvetica,sans-Serif" font-size="14.00" fill="#270b1d">gamepad_button_event_system</text>
</a>
</g>
</g>
<!-- node_System(5) -->
<g id="node7" class="node">
<title>node_System(5)</title>
<g id="a_node7"><a xlink:title="bevy_input::gamepad::gamepad_axis_event_system">
<polygon fill="#d36aaf" stroke="#a5317d" points="887.75,-99 669.25,-99 669.25,-63 887.75,-63 887.75,-99"/>
<text text-anchor="middle" x="778.5" y="-76.33" font-family="Helvetica,sans-Serif" font-size="14.00" fill="#270b1d">gamepad_axis_event_system</text>
</a>
</g>
</g>
<!-- node_System(6) -->
<g id="node8" class="node">
<title>node_System(6)</title>
<g id="a_node8"><a xlink:title="bevy_input::touch::touch_screen_input_system">
<polygon fill="#d36aaf" stroke="#a5317d" points="882.12,-52 674.88,-52 674.88,-16 882.12,-16 882.12,-52"/>
<text text-anchor="middle" x="778.5" y="-29.32" font-family="Helvetica,sans-Serif" font-size="14.00" fill="#270b1d">touch_screen_input_system</text>
</a>
</g>
</g>
<!-- set_marker_node_Set(9) -->
<!-- node_System(8) -->
<g id="node11" class="node">
<title>node_System(8)</title>
<g id="a_node11"><a xlink:title="bevy_pbr::prepass::update_mesh_previous_global_transforms">
<polygon fill="lightgrey" stroke="black" points="469.38,-410 154.88,-410 154.88,-374 469.38,-374 469.38,-410"/>
<text text-anchor="middle" x="312.12" y="-387.32" font-family="Times,serif" font-size="14.00">update_mesh_previous_global_transforms</text>
</a>
</g>
</g>
<!-- node_System(9) -->
<g id="node12" class="node">
<title>node_System(9)</title>
<g id="a_node12"><a xlink:title="bevy_pbr::prepass::update_previous_view_projections">
<polygon fill="lightgrey" stroke="black" points="442,-457 182.25,-457 182.25,-421 442,-421 442,-457"/>
<text text-anchor="middle" x="312.12" y="-434.32" font-family="Times,serif" font-size="14.00">update_previous_view_projections</text>
</a>
</g>
</g>
<!-- node_System(10) -->
<g id="node13" class="node">
<title>node_System(10)</title>
<g id="a_node13"><a xlink:title="bevy_gilrs::gilrs_system::gilrs_event_system">
<polygon fill="lightgrey" stroke="black" points="388.38,-363 235.88,-363 235.88,-327 388.38,-327 388.38,-363"/>
<text text-anchor="middle" x="312.12" y="-340.32" font-family="Times,serif" font-size="14.00">gilrs_event_system</text>
</a>
</g>
</g>
<!-- node_System(10)&#45;&gt;set_marker_node_Set(1) -->
<g id="edge7" class="edge">
<title>node_System(10)&#45;&gt;set_marker_node_Set(1)</title>
<g id="a_edge7"><a xlink:title="gilrs_event_system → InputSystem">
<path fill="none" stroke="#ee9e44" stroke-width="2" d="M388.77,-345C456.41,-345 557.24,-345 639.26,-345"/>
<polygon fill="#ee9e44" stroke="#ee9e44" stroke-width="2" points="639.22,-348.5 649.22,-345 639.22,-341.5 639.22,-348.5"/>
</a>
</g>
</g>
<!-- UNKNOWN SystemTypeSet(fn bevy_input::gamepad::gamepad_event_system()) -->
<g id="node14" class="node">
<title>UNKNOWN SystemTypeSet(fn bevy_input::gamepad::gamepad_event_system())</title>
<polygon fill="lightgrey" stroke="black" points="605.5,-146 18.75,-146 18.75,-110 605.5,-110 605.5,-146"/>
<text text-anchor="middle" x="312.12" y="-123.33" font-family="Times,serif" font-size="14.00">UNKNOWN SystemTypeSet(fn bevy_input::gamepad::gamepad_event_system())</text>
</g>
<!-- UNKNOWN SystemTypeSet(fn bevy_input::gamepad::gamepad_event_system())&#45;&gt;node_System(3) -->
<g id="edge1" class="edge">
<title>UNKNOWN SystemTypeSet(fn bevy_input::gamepad::gamepad_event_system())&#45;&gt;node_System(3)</title>
<g id="a_edge1"><a xlink:title="SystemTypeSet(gamepad_event_system()) → gamepad_connection_system">
<path fill="none" stroke="#eede00" stroke-width="2" d="M495.66,-146.47C549.04,-151.88 606.1,-157.65 654.82,-162.58"/>
<polygon fill="#eede00" stroke="#eede00" stroke-width="2" points="654.36,-166.05 664.66,-163.58 655.06,-159.09 654.36,-166.05"/>
</a>
</g>
</g>
<!-- UNKNOWN SystemTypeSet(fn bevy_input::gamepad::gamepad_event_system())&#45;&gt;node_System(4) -->
<g id="edge2" class="edge">
<title>UNKNOWN SystemTypeSet(fn bevy_input::gamepad::gamepad_event_system())&#45;&gt;node_System(4)</title>
<g id="a_edge2"><a xlink:title="SystemTypeSet(gamepad_event_system()) → gamepad_button_event_system">
<path fill="none" stroke="#881877" stroke-width="2" d="M605.9,-128C620.18,-128 634.12,-128 647.5,-128"/>
<polygon fill="#881877" stroke="#881877" stroke-width="2" points="647.12,-131.5 657.12,-128 647.12,-124.5 647.12,-131.5"/>
</a>
</g>
</g>
<!-- UNKNOWN SystemTypeSet(fn bevy_input::gamepad::gamepad_event_system())&#45;&gt;node_System(5) -->
<g id="edge4" class="edge">
<title>UNKNOWN SystemTypeSet(fn bevy_input::gamepad::gamepad_event_system())&#45;&gt;node_System(5)</title>
<g id="a_edge4"><a xlink:title="SystemTypeSet(gamepad_event_system()) → gamepad_axis_event_system">
<path fill="none" stroke="#aa3a55" stroke-width="2" d="M581.82,-109.52C596.18,-108.1 610.39,-106.59 624.25,-105 634.63,-103.81 645.39,-102.42 656.17,-100.93"/>
<polygon fill="#aa3a55" stroke="#aa3a55" stroke-width="2" points="656.41,-104.43 665.82,-99.57 655.43,-97.5 656.41,-104.43"/>
</a>
</g>
</g>
<!-- UNKNOWN SystemTypeSet(fn bevy_input::gamepad::gamepad_connection_system()) -->
<g id="node15" class="node">
<title>UNKNOWN SystemTypeSet(fn bevy_input::gamepad::gamepad_connection_system())</title>
<polygon fill="lightgrey" stroke="black" points="624.25,-99 0,-99 0,-63 624.25,-63 624.25,-99"/>
<text text-anchor="middle" x="312.12" y="-76.33" font-family="Times,serif" font-size="14.00">UNKNOWN SystemTypeSet(fn bevy_input::gamepad::gamepad_connection_system())</text>
</g>
<!-- UNKNOWN SystemTypeSet(fn bevy_input::gamepad::gamepad_connection_system())&#45;&gt;node_System(4) -->
<g id="edge3" class="edge">
<title>UNKNOWN SystemTypeSet(fn bevy_input::gamepad::gamepad_connection_system())&#45;&gt;node_System(4)</title>
<g id="a_edge3"><a xlink:title="SystemTypeSet(gamepad_connection_system()) → gamepad_button_event_system">
<path fill="none" stroke="#00b0cc" stroke-width="2" d="M571.32,-99.48C589.24,-101.2 607.02,-103.05 624.25,-105 631.88,-105.87 639.71,-106.82 647.6,-107.84"/>
<polygon fill="#00b0cc" stroke="#00b0cc" stroke-width="2" points="647.1,-111.31 657.47,-109.15 648.02,-104.37 647.1,-111.31"/>
</a>
</g>
</g>
<!-- UNKNOWN SystemTypeSet(fn bevy_input::gamepad::gamepad_connection_system())&#45;&gt;node_System(5) -->
<g id="edge5" class="edge">
<title>UNKNOWN SystemTypeSet(fn bevy_input::gamepad::gamepad_connection_system())&#45;&gt;node_System(5)</title>
<g id="a_edge5"><a xlink:title="SystemTypeSet(gamepad_connection_system()) → gamepad_axis_event_system">
<path fill="none" stroke="#44d488" stroke-width="2" d="M624.48,-81C635.38,-81 646.02,-81 656.28,-81"/>
<polygon fill="#44d488" stroke="#44d488" stroke-width="2" points="656.03,-84.5 666.03,-81 656.03,-77.5 656.03,-84.5"/>
</a>
</g>
</g>
</g>
</svg>
