<?xml version="1.0" encoding="UTF-8" standalone="no"?>
<!DOCTYPE svg PUBLIC "-//W3C//DTD SVG 1.1//EN"
 "http://www.w3.org/Graphics/SVG/1.1/DTD/svg11.dtd">
<!-- Generated by graphviz version 9.0.0 (0)
 -->
<!-- Pages: 1 -->
<svg width="706pt" height="91pt"
 viewBox="0.00 0.00 706.00 91.00" xmlns="http://www.w3.org/2000/svg" xmlns:xlink="http://www.w3.org/1999/xlink">
<g id="graph0" class="graph" transform="scale(1 1) rotate(0) translate(4 87)">
<polygon fill="white" stroke="none" points="-4,4 -4,-87 702,-87 702,4 -4,4"/>
<!-- node_System(0) -->
<g id="node1" class="node">
<title>node_System(0)</title>
<g id="a_node1"><a xlink:title="bevy_app::main_schedule::Main::run_main">
<polygon fill="lightgrey" stroke="black" points="93.62,-36 10.88,-36 10.88,0 93.62,0 93.62,-36"/>
<text text-anchor="middle" x="52.25" y="-13.32" font-family="Times,serif" font-size="14.00">run_main</text>
</a>
</g>
</g>
<!-- node_System(1) -->
<g id="node2" class="node">
<title>node_System(1)</title>
<g id="a_node2"><a xlink:title="bevy_ecs::schedule::stepping::Stepping::begin_frame">
<polygon fill="lightgrey" stroke="black" points="104.5,-83 0,-83 0,-47 104.5,-47 104.5,-83"/>
<text text-anchor="middle" x="52.25" y="-60.33" font-family="Times,serif" font-size="14.00">begin_frame</text>
</a>
</g>
</g>
<!-- UNKNOWN SystemTypeSet(fn bevy_app::main_schedule::Main::run_main()) -->
<g id="node3" class="node">
<title>UNKNOWN SystemTypeSet(fn bevy_app::main_schedule::Main::run_main())</title>
<polygon fill="lightgrey" stroke="black" points="698,-83 140.5,-83 140.5,-47 698,-47 698,-83"/>
<text text-anchor="middle" x="419.25" y="-60.33" font-family="Times,serif" font-size="14.00">UNKNOWN SystemTypeSet(fn bevy_app::main_schedule::Main::run_main())</text>
</g>
<!-- node_System(1)&#45;&gt;UNKNOWN SystemTypeSet(fn bevy_app::main_schedule::Main::run_main()) -->
<g id="edge1" class="edge">
<title>node_System(1)&#45;&gt;UNKNOWN SystemTypeSet(fn bevy_app::main_schedule::Main::run_main())</title>
<g id="a_edge1"><a xlink:title="begin_frame → SystemTypeSet(run_main())">
<path fill="none" stroke="#eede00" stroke-width="2" d="M104.77,-65C111.8,-65 119.38,-65 127.39,-65"/>
<polygon fill="#eede00" stroke="#eede00" stroke-width="2" points="127.3,-68.5 137.3,-65 127.3,-61.5 127.3,-68.5"/>
</a>
</g>
</g>
</g>
</svg>
