<?xml version="1.0" encoding="UTF-8" standalone="no"?>
<!DOCTYPE svg PUBLIC "-//W3C//DTD SVG 1.1//EN"
 "http://www.w3.org/Graphics/SVG/1.1/DTD/svg11.dtd">
<!-- Generated by graphviz version 8.0.5 (0)
 -->
<!-- Pages: 1 -->
<svg width="371pt" height="890pt"
 viewBox="0.00 0.00 371.25 890.00" xmlns="http://www.w3.org/2000/svg" xmlns:xlink="http://www.w3.org/1999/xlink">
<g id="graph0" class="graph" transform="scale(1 1) rotate(0) translate(4 886)">
<polygon fill="white" stroke="none" points="-4,4 -4,-886 367.25,-886 367.25,4 -4,4"/>
<!-- node_System(0) -->
<g id="node1" class="node">
<title>node_System(0)</title>
<g id="a_node1"><a xlink:title="bevy_asset::io::file_asset_io::filesystem_watcher_system">
<polygon fill="lightgrey" stroke="black" points="265,-36 98.25,-36 98.25,0 265,0 265,-36"/>
<text text-anchor="middle" x="181.62" y="-12.95" font-family="Times,serif" font-size="14.00">filesystem_watcher_system</text>
</a>
</g>
</g>
<!-- node_System(1) -->
<g id="node2" class="node">
<title>node_System(1)</title>
<g id="a_node2"><a xlink:title="bevy_asset::loader::update_asset_storage_system&lt;bevy_scene::dynamic_scene::DynamicScene&gt;">
<polygon fill="lightgrey" stroke="black" points="319,-83 44.25,-83 44.25,-47 319,-47 319,-83"/>
<text text-anchor="middle" x="181.62" y="-59.95" font-family="Times,serif" font-size="14.00">update_asset_storage_system&lt;DynamicScene&gt;</text>
</a>
</g>
</g>
<!-- node_System(2) -->
<g id="node3" class="node">
<title>node_System(2)</title>
<g id="a_node3"><a xlink:title="bevy_asset::loader::update_asset_storage_system&lt;bevy_scene::scene::Scene&gt;">
<polygon fill="lightgrey" stroke="black" points="293.88,-130 69.38,-130 69.38,-94 293.88,-94 293.88,-130"/>
<text text-anchor="middle" x="181.62" y="-106.95" font-family="Times,serif" font-size="14.00">update_asset_storage_system&lt;Scene&gt;</text>
</a>
</g>
</g>
<!-- node_System(3) -->
<g id="node4" class="node">
<title>node_System(3)</title>
<g id="a_node4"><a xlink:title="bevy_asset::loader::update_asset_storage_system&lt;bevy_render::render_resource::shader::Shader&gt;">
<polygon fill="lightgrey" stroke="black" points="296.5,-177 66.75,-177 66.75,-141 296.5,-141 296.5,-177"/>
<text text-anchor="middle" x="181.62" y="-153.95" font-family="Times,serif" font-size="14.00">update_asset_storage_system&lt;Shader&gt;</text>
</a>
</g>
</g>
<!-- node_System(4) -->
<g id="node5" class="node">
<title>node_System(4)</title>
<g id="a_node5"><a xlink:title="bevy_asset::loader::update_asset_storage_system&lt;bevy_render::mesh::mesh::Mesh&gt;">
<polygon fill="lightgrey" stroke="black" points="293.12,-224 70.12,-224 70.12,-188 293.12,-188 293.12,-224"/>
<text text-anchor="middle" x="181.62" y="-200.95" font-family="Times,serif" font-size="14.00">update_asset_storage_system&lt;Mesh&gt;</text>
</a>
</g>
</g>
<!-- node_System(5) -->
<g id="node6" class="node">
<title>node_System(5)</title>
<g id="a_node6"><a xlink:title="bevy_asset::loader::update_asset_storage_system&lt;bevy_render::mesh::mesh::skinning::SkinnedMeshInverseBindposes&gt;">
<polygon fill="lightgrey" stroke="black" points="363.25,-271 0,-271 0,-235 363.25,-235 363.25,-271"/>
<text text-anchor="middle" x="181.62" y="-247.95" font-family="Times,serif" font-size="14.00">update_asset_storage_system&lt;SkinnedMeshInverseBindposes&gt;</text>
</a>
</g>
</g>
<!-- node_System(6) -->
<g id="node7" class="node">
<title>node_System(6)</title>
<g id="a_node7"><a xlink:title="bevy_asset::loader::update_asset_storage_system&lt;bevy_render::texture::image::Image&gt;">
<polygon fill="lightgrey" stroke="black" points="295,-318 68.25,-318 68.25,-282 295,-282 295,-318"/>
<text text-anchor="middle" x="181.62" y="-294.95" font-family="Times,serif" font-size="14.00">update_asset_storage_system&lt;Image&gt;</text>
</a>
</g>
</g>
<!-- node_System(7) -->
<g id="node8" class="node">
<title>node_System(7)</title>
<g id="a_node8"><a xlink:title="bevy_asset::loader::update_asset_storage_system&lt;bevy_sprite::texture_atlas::TextureAtlas&gt;">
<polygon fill="lightgrey" stroke="black" points="312.62,-365 50.62,-365 50.62,-329 312.62,-329 312.62,-365"/>
<text text-anchor="middle" x="181.62" y="-341.95" font-family="Times,serif" font-size="14.00">update_asset_storage_system&lt;TextureAtlas&gt;</text>
</a>
</g>
</g>
<!-- node_System(8) -->
<g id="node9" class="node">
<title>node_System(8)</title>
<g id="a_node9"><a xlink:title="bevy_asset::loader::update_asset_storage_system&lt;bevy_sprite::mesh2d::color_material::ColorMaterial&gt;">
<polygon fill="lightgrey" stroke="black" points="316.38,-412 46.88,-412 46.88,-376 316.38,-376 316.38,-412"/>
<text text-anchor="middle" x="181.62" y="-388.95" font-family="Times,serif" font-size="14.00">update_asset_storage_system&lt;ColorMaterial&gt;</text>
</a>
</g>
</g>
<!-- node_System(9) -->
<g id="node10" class="node">
<title>node_System(9)</title>
<g id="a_node10"><a xlink:title="bevy_asset::loader::update_asset_storage_system&lt;bevy_text::font::Font&gt;">
<polygon fill="lightgrey" stroke="black" points="290.12,-459 73.12,-459 73.12,-423 290.12,-423 290.12,-459"/>
<text text-anchor="middle" x="181.62" y="-435.95" font-family="Times,serif" font-size="14.00">update_asset_storage_system&lt;Font&gt;</text>
</a>
</g>
</g>
<!-- node_System(10) -->
<g id="node11" class="node">
<title>node_System(10)</title>
<g id="a_node11"><a xlink:title="bevy_asset::loader::update_asset_storage_system&lt;bevy_text::font_atlas_set::FontAtlasSet&gt;">
<polygon fill="lightgrey" stroke="black" points="313,-506 50.25,-506 50.25,-470 313,-470 313,-506"/>
<text text-anchor="middle" x="181.62" y="-482.95" font-family="Times,serif" font-size="14.00">update_asset_storage_system&lt;FontAtlasSet&gt;</text>
</a>
</g>
</g>
<!-- node_System(11) -->
<g id="node12" class="node">
<title>node_System(11)</title>
<g id="a_node12"><a xlink:title="bevy_asset::loader::update_asset_storage_system&lt;bevy_pbr::pbr_material::StandardMaterial&gt;">
<polygon fill="lightgrey" stroke="black" points="325,-553 38.25,-553 38.25,-517 325,-517 325,-553"/>
<text text-anchor="middle" x="181.62" y="-529.95" font-family="Times,serif" font-size="14.00">update_asset_storage_system&lt;StandardMaterial&gt;</text>
</a>
</g>
</g>
<!-- node_System(12) -->
<g id="node13" class="node">
<title>node_System(12)</title>
<g id="a_node13"><a xlink:title="bevy_asset::loader::update_asset_storage_system&lt;bevy_gltf::Gltf&gt;">
<polygon fill="lightgrey" stroke="black" points="288.62,-600 74.62,-600 74.62,-564 288.62,-564 288.62,-600"/>
<text text-anchor="middle" x="181.62" y="-576.95" font-family="Times,serif" font-size="14.00">update_asset_storage_system&lt;Gltf&gt;</text>
</a>
</g>
</g>
<!-- node_System(13) -->
<g id="node14" class="node">
<title>node_System(13)</title>
<g id="a_node14"><a xlink:title="bevy_asset::loader::update_asset_storage_system&lt;bevy_gltf::GltfNode&gt;">
<polygon fill="lightgrey" stroke="black" points="303.25,-647 60,-647 60,-611 303.25,-611 303.25,-647"/>
<text text-anchor="middle" x="181.62" y="-623.95" font-family="Times,serif" font-size="14.00">update_asset_storage_system&lt;GltfNode&gt;</text>
</a>
</g>
</g>
<!-- node_System(14) -->
<g id="node15" class="node">
<title>node_System(14)</title>
<g id="a_node15"><a xlink:title="bevy_asset::loader::update_asset_storage_system&lt;bevy_gltf::GltfPrimitive&gt;">
<polygon fill="lightgrey" stroke="black" points="314.12,-694 49.12,-694 49.12,-658 314.12,-658 314.12,-694"/>
<text text-anchor="middle" x="181.62" y="-670.95" font-family="Times,serif" font-size="14.00">update_asset_storage_system&lt;GltfPrimitive&gt;</text>
</a>
</g>
</g>
<!-- node_System(15) -->
<g id="node16" class="node">
<title>node_System(15)</title>
<g id="a_node16"><a xlink:title="bevy_asset::loader::update_asset_storage_system&lt;bevy_gltf::GltfMesh&gt;">
<polygon fill="lightgrey" stroke="black" points="304,-741 59.25,-741 59.25,-705 304,-705 304,-741"/>
<text text-anchor="middle" x="181.62" y="-717.95" font-family="Times,serif" font-size="14.00">update_asset_storage_system&lt;GltfMesh&gt;</text>
</a>
</g>
</g>
<!-- node_System(16) -->
<g id="node17" class="node">
<title>node_System(16)</title>
<g id="a_node17"><a xlink:title="bevy_asset::loader::update_asset_storage_system&lt;bevy_audio::audio_source::AudioSource&gt;">
<polygon fill="lightgrey" stroke="black" points="313.38,-788 49.88,-788 49.88,-752 313.38,-752 313.38,-788"/>
<text text-anchor="middle" x="181.62" y="-764.95" font-family="Times,serif" font-size="14.00">update_asset_storage_system&lt;AudioSource&gt;</text>
</a>
</g>
</g>
<!-- node_System(17) -->
<g id="node18" class="node">
<title>node_System(17)</title>
<g id="a_node18"><a xlink:title="bevy_asset::loader::update_asset_storage_system&lt;bevy_animation::AnimationClip&gt;">
<polygon fill="lightgrey" stroke="black" points="318.62,-835 44.62,-835 44.62,-799 318.62,-799 318.62,-835"/>
<text text-anchor="middle" x="181.62" y="-811.95" font-family="Times,serif" font-size="14.00">update_asset_storage_system&lt;AnimationClip&gt;</text>
</a>
</g>
</g>
<!-- node_System(18) -->
<g id="node19" class="node">
<title>node_System(18)</title>
<g id="a_node19"><a xlink:title="bevy_asset::loader::update_asset_storage_system&lt;bevy_gizmos::LineGizmo&gt;">
<polygon fill="lightgrey" stroke="black" points="308.88,-882 54.38,-882 54.38,-846 308.88,-846 308.88,-882"/>
<text text-anchor="middle" x="181.62" y="-858.95" font-family="Times,serif" font-size="14.00">update_asset_storage_system&lt;LineGizmo&gt;</text>
</a>
</g>
</g>
</g>
</svg>
