<?xml version="1.0" encoding="UTF-8" standalone="no"?>
<!DOCTYPE svg PUBLIC "-//W3C//DTD SVG 1.1//EN"
 "http://www.w3.org/Graphics/SVG/1.1/DTD/svg11.dtd">
<!-- Generated by graphviz version 12.2.1 (0)
 -->
<!-- Pages: 1 -->
<svg width="1646pt" height="2197pt"
 viewBox="0.00 0.00 1646.00 2197.00" xmlns="http://www.w3.org/2000/svg" xmlns:xlink="http://www.w3.org/1999/xlink">
<g id="graph0" class="graph" transform="scale(1 1) rotate(0) translate(4 2193)">
<polygon fill="white" stroke="none" points="-4,4 -4,-2193 1642,-2193 1642,4 -4,4"/>
<g id="clust1" class="cluster">
<title>clusternode_Set(1)</title>
<g id="a_clust1"><a xlink:title="InputSystem">
<path fill="#000000" fill-opacity="0.031373" stroke="#000000" stroke-width="2" stroke-opacity="0.250980" d="M536.75,-108C536.75,-108 1274,-108 1274,-108 1280,-108 1286,-114 1286,-120 1286,-120 1286,-423 1286,-423 1286,-429 1280,-435 1274,-435 1274,-435 536.75,-435 536.75,-435 530.75,-435 524.75,-429 524.75,-423 524.75,-423 524.75,-120 524.75,-120 524.75,-114 530.75,-108 536.75,-108"/>
<text text-anchor="middle" x="905.38" y="-417.7" font-family="Helvetica,sans-Serif" font-size="14.00" fill="#000000">InputSystem</text>
</a>
</g>
</g>
<g id="clust2" class="cluster">
<title>clusternode_Set(9)</title>
<g id="a_clust2"><a xlink:title="TrackAssets">
<path fill="#000000" fill-opacity="0.031373" stroke="#000000" stroke-width="2" stroke-opacity="0.250980" d="M354.5,-443C354.5,-443 972.25,-443 972.25,-443 978.25,-443 984.25,-449 984.25,-455 984.25,-455 984.25,-1651 984.25,-1651 984.25,-1657 978.25,-1663 972.25,-1663 972.25,-1663 354.5,-1663 354.5,-1663 348.5,-1663 342.5,-1657 342.5,-1651 342.5,-1651 342.5,-455 342.5,-455 342.5,-449 348.5,-443 354.5,-443"/>
<text text-anchor="middle" x="663.38" y="-1645.7" font-family="Helvetica,sans-Serif" font-size="14.00" fill="#000000">TrackAssets</text>
</a>
</g>
</g>
<g id="clust3" class="cluster">
<title>clusternode_Set(23)</title>
<g id="a_clust3"><a xlink:title="Backend">
<path fill="#000000" fill-opacity="0.031373" stroke="#000000" stroke-width="2" stroke-opacity="0.250980" d="M589.25,-1671C589.25,-1671 737.5,-1671 737.5,-1671 743.5,-1671 749.5,-1677 749.5,-1683 749.5,-1683 749.5,-1845 749.5,-1845 749.5,-1851 743.5,-1857 737.5,-1857 737.5,-1857 589.25,-1857 589.25,-1857 583.25,-1857 577.25,-1851 577.25,-1845 577.25,-1845 577.25,-1683 577.25,-1683 577.25,-1677 583.25,-1671 589.25,-1671"/>
<text text-anchor="middle" x="663.38" y="-1839.7" font-family="Helvetica,sans-Serif" font-size="14.00" fill="#000000">Backend</text>
</a>
</g>
</g>
<g id="clust4" class="cluster">
<title>clusternode_Set(26)</title>
<g id="a_clust4"><a xlink:title="Focus">
<path fill="#000000" fill-opacity="0.031373" stroke="#000000" stroke-width="2" stroke-opacity="0.250980" d="M1084.12,-8C1084.12,-8 1206.12,-8 1206.12,-8 1212.12,-8 1218.12,-14 1218.12,-20 1218.12,-20 1218.12,-88 1218.12,-88 1218.12,-94 1212.12,-100 1206.12,-100 1206.12,-100 1084.12,-100 1084.12,-100 1078.12,-100 1072.12,-94 1072.12,-88 1072.12,-88 1072.12,-20 1072.12,-20 1072.12,-14 1078.12,-8 1084.12,-8"/>
<text text-anchor="middle" x="1145.12" y="-82.7" font-family="Helvetica,sans-Serif" font-size="14.00" fill="#000000">Focus</text>
</a>
</g>
</g>
<g id="clust5" class="cluster">
<title>clusternode_Set(44)</title>
<g id="a_clust5"><a xlink:title="ProcessInput">
<path fill="#000000" fill-opacity="0.031373" stroke="#000000" stroke-width="2" stroke-opacity="0.250980" d="M81.25,-1865C81.25,-1865 736.75,-1865 736.75,-1865 742.75,-1865 748.75,-1871 748.75,-1877 748.75,-1877 748.75,-1992 748.75,-1992 748.75,-1998 742.75,-2004 736.75,-2004 736.75,-2004 81.25,-2004 81.25,-2004 75.25,-2004 69.25,-1998 69.25,-1992 69.25,-1992 69.25,-1877 69.25,-1877 69.25,-1871 75.25,-1865 81.25,-1865"/>
<text text-anchor="middle" x="409" y="-1986.7" font-family="Helvetica,sans-Serif" font-size="14.00" fill="#000000">ProcessInput</text>
</a>
</g>
</g>
<g id="clust6" class="cluster">
<title>clusternode_Set(48)</title>
<g id="a_clust6"><a xlink:title="Hover">
<path fill="#000000" fill-opacity="0.031373" stroke="#000000" stroke-width="2" stroke-opacity="0.250980" d="M1071.75,-1671C1071.75,-1671 1618,-1671 1618,-1671 1624,-1671 1630,-1677 1630,-1683 1630,-1683 1630,-1751 1630,-1751 1630,-1757 1624,-1763 1618,-1763 1618,-1763 1071.75,-1763 1071.75,-1763 1065.75,-1763 1059.75,-1757 1059.75,-1751 1059.75,-1751 1059.75,-1683 1059.75,-1683 1059.75,-1677 1065.75,-1671 1071.75,-1671"/>
<text text-anchor="middle" x="1344.88" y="-1745.7" font-family="Helvetica,sans-Serif" font-size="14.00" fill="#000000">Hover</text>
</a>
</g>
</g>
<g id="clust7" class="cluster">
<title>clusternode_Set(49)</title>
<g id="a_clust7"><a xlink:title="PostHover">
<path fill="#000000" fill-opacity="0.031373" stroke="#000000" stroke-width="2" stroke-opacity="0.250980" d="M1359.88,-1618C1359.88,-1618 1422.38,-1618 1422.38,-1618 1428.38,-1618 1434.38,-1624 1434.38,-1630 1434.38,-1630 1434.38,-1651 1434.38,-1651 1434.38,-1657 1428.38,-1663 1422.38,-1663 1422.38,-1663 1359.88,-1663 1359.88,-1663 1353.88,-1663 1347.88,-1657 1347.88,-1651 1347.88,-1651 1347.88,-1630 1347.88,-1630 1347.88,-1624 1353.88,-1618 1359.88,-1618"/>
<text text-anchor="middle" x="1391.12" y="-1645.7" font-family="Helvetica,sans-Serif" font-size="14.00" fill="#000000">PostHover</text>
</a>
</g>
</g>
<g id="clust8" class="cluster">
<title>clusternode_Set(50)</title>
<g id="a_clust8"><a xlink:title="Last">
<path fill="#000000" fill-opacity="0.031373" stroke="#000000" stroke-width="2" stroke-opacity="0.250980" d="M1552.88,-1618C1552.88,-1618 1573.38,-1618 1573.38,-1618 1579.38,-1618 1585.38,-1624 1585.38,-1630 1585.38,-1630 1585.38,-1651 1585.38,-1651 1585.38,-1657 1579.38,-1663 1573.38,-1663 1573.38,-1663 1552.88,-1663 1552.88,-1663 1546.88,-1663 1540.88,-1657 1540.88,-1651 1540.88,-1651 1540.88,-1630 1540.88,-1630 1540.88,-1624 1546.88,-1618 1552.88,-1618"/>
<text text-anchor="middle" x="1563.12" y="-1645.7" font-family="Helvetica,sans-Serif" font-size="14.00" fill="#000000">Last</text>
</a>
</g>
</g>
<!-- set_marker_node_Set(1) -->
<!-- node_System(22) -->
<g id="node40" class="node">
<title>node_System(22)</title>
<g id="a_node40"><a xlink:title="bevy_ui::focus::ui_focus_system">
<polygon fill="#ffb1e5" stroke="#ff4bc2" points="1210.12,-67 1080.12,-67 1080.12,-31 1210.12,-31 1210.12,-67"/>
<text text-anchor="middle" x="1145.12" y="-44.33" font-family="Helvetica,sans-Serif" font-size="14.00" fill="#320021">ui_focus_system</text>
</a>
</g>
</g>
<!-- set_marker_node_Set(1)&#45;&gt;node_System(22) -->
<g id="edge6" class="edge">
<title>set_marker_node_Set(1)&#45;&gt;node_System(22)</title>
<g id="a_edge6"><a xlink:title="InputSystem → ui_focus_system">
<path fill="none" stroke="#0090cc" stroke-width="2" d="M733.88,-108C822.43,-95.27 975.01,-73.32 1067.05,-60.09"/>
<polygon fill="#0090cc" stroke="#0090cc" stroke-width="2" points="1067.35,-63.58 1076.75,-58.69 1066.35,-56.65 1067.35,-63.58"/>
</a>
</g>
</g>
<!-- node_System(0) -->
<g id="node2" class="node">
<title>node_System(0)</title>
<g id="a_node2"><a xlink:title="bevy_input::keyboard::keyboard_input_system">
<polygon fill="#d36aaf" stroke="#a5317d" points="753.12,-167 573.62,-167 573.62,-131 753.12,-131 753.12,-167"/>
<text text-anchor="middle" x="663.38" y="-144.32" font-family="Helvetica,sans-Serif" font-size="14.00" fill="#270b1d">keyboard_input_system</text>
</a>
</g>
</g>
<!-- node_System(1) -->
<g id="node3" class="node">
<title>node_System(1)</title>
<g id="a_node3"><a xlink:title="bevy_input::mouse::mouse_button_input_system">
<polygon fill="#d36aaf" stroke="#a5317d" points="770.75,-214 556,-214 556,-178 770.75,-178 770.75,-214"/>
<text text-anchor="middle" x="663.38" y="-191.32" font-family="Helvetica,sans-Serif" font-size="14.00" fill="#270b1d">mouse_button_input_system</text>
</a>
</g>
</g>
<!-- node_System(2) -->
<g id="node4" class="node">
<title>node_System(2)</title>
<g id="a_node4"><a xlink:title="bevy_input::mouse::accumulate_mouse_motion_system">
<polygon fill="#d36aaf" stroke="#a5317d" points="794,-261 532.75,-261 532.75,-225 794,-225 794,-261"/>
<text text-anchor="middle" x="663.38" y="-238.32" font-family="Helvetica,sans-Serif" font-size="14.00" fill="#270b1d">accumulate_mouse_motion_system</text>
</a>
</g>
</g>
<!-- node_System(3) -->
<g id="node5" class="node">
<title>node_System(3)</title>
<g id="a_node5"><a xlink:title="bevy_input::mouse::accumulate_mouse_scroll_system">
<polygon fill="#d36aaf" stroke="#a5317d" points="788,-308 538.75,-308 538.75,-272 788,-272 788,-308"/>
<text text-anchor="middle" x="663.38" y="-285.32" font-family="Helvetica,sans-Serif" font-size="14.00" fill="#270b1d">accumulate_mouse_scroll_system</text>
</a>
</g>
</g>
<!-- node_System(4) -->
<g id="node6" class="node">
<title>node_System(4)</title>
<g id="a_node6"><a xlink:title="bevy_input::gamepad::gamepad_connection_system">
<polygon fill="#d36aaf" stroke="#a5317d" points="773.75,-355 553,-355 553,-319 773.75,-319 773.75,-355"/>
<text text-anchor="middle" x="663.38" y="-332.32" font-family="Helvetica,sans-Serif" font-size="14.00" fill="#270b1d">gamepad_connection_system</text>
</a>
</g>
</g>
<!-- node_System(5) -->
<g id="node7" class="node">
<title>node_System(5)</title>
<g id="a_node7"><a xlink:title="bevy_input::gamepad::gamepad_event_processing_system">
<polygon fill="#d36aaf" stroke="#a5317d" points="1278,-355 1012.25,-355 1012.25,-319 1278,-319 1278,-355"/>
<text text-anchor="middle" x="1145.12" y="-332.32" font-family="Helvetica,sans-Serif" font-size="14.00" fill="#270b1d">gamepad_event_processing_system</text>
</a>
</g>
</g>
<!-- node_System(4)&#45;&gt;node_System(5) -->
<g id="edge10" class="edge">
<title>node_System(4)&#45;&gt;node_System(5)</title>
<g id="a_edge10"><a xlink:title="SystemTypeSet(fn bevy_ecs::system::function_system::FunctionSystem&lt;fn(bevy_ecs::system::commands::Commands, bevy_ecs::event::reader::EventReader&lt;bevy_input::gamepad::GamepadConnectionEvent&gt;), bevy_input::gamepad::gamepad_connection_system&gt;()) → gamepad_event_processing_system">
<path fill="none" stroke="#22c2bb" stroke-width="2" d="M774.14,-337C840.81,-337 926.7,-337 998.94,-337"/>
<polygon fill="#22c2bb" stroke="#22c2bb" stroke-width="2" points="998.77,-340.5 1008.77,-337 998.77,-333.5 998.77,-340.5"/>
</a>
</g>
</g>
<!-- node_System(6) -->
<g id="node8" class="node">
<title>node_System(6)</title>
<g id="a_node8"><a xlink:title="bevy_input::touch::touch_screen_input_system">
<polygon fill="#d36aaf" stroke="#a5317d" points="767,-402 559.75,-402 559.75,-366 767,-366 767,-402"/>
<text text-anchor="middle" x="663.38" y="-379.32" font-family="Helvetica,sans-Serif" font-size="14.00" fill="#270b1d">touch_screen_input_system</text>
</a>
</g>
</g>
<!-- set_marker_node_Set(9) -->
<!-- node_System(7) -->
<g id="node10" class="node">
<title>node_System(7)</title>
<g id="a_node10"><a xlink:title="bevy_asset::assets::Assets&lt;bevy_asset::folder::LoadedFolder&gt;::track_assets">
<polygon fill="#d1cbc5" stroke="#a3988c" points="800.38,-502 526.38,-502 526.38,-466 800.38,-466 800.38,-502"/>
<text text-anchor="middle" x="663.38" y="-479.32" font-family="Helvetica,sans-Serif" font-size="14.00" fill="#1c1916">Assets&lt;LoadedFolder&gt;::track_assets</text>
</a>
</g>
</g>
<!-- node_System(8) -->
<g id="node11" class="node">
<title>node_System(8)</title>
<g id="a_node11"><a xlink:title="bevy_asset::assets::Assets&lt;bevy_asset::assets::LoadedUntypedAsset&gt;::track_assets">
<polygon fill="#d1cbc5" stroke="#a3988c" points="827.75,-549 499,-549 499,-513 827.75,-513 827.75,-549"/>
<text text-anchor="middle" x="663.38" y="-526.33" font-family="Helvetica,sans-Serif" font-size="14.00" fill="#1c1916">Assets&lt;LoadedUntypedAsset&gt;::track_assets</text>
</a>
</g>
</g>
<!-- node_System(9) -->
<g id="node12" class="node">
<title>node_System(9)</title>
<g id="a_node12"><a xlink:title="bevy_asset::assets::Assets&lt;()&gt;::track_assets">
<polygon fill="#d1cbc5" stroke="#a3988c" points="759.12,-596 567.62,-596 567.62,-560 759.12,-560 759.12,-596"/>
<text text-anchor="middle" x="663.38" y="-573.33" font-family="Helvetica,sans-Serif" font-size="14.00" fill="#1c1916">Assets&lt;()&gt;::track_assets</text>
</a>
</g>
</g>
<!-- node_System(11) -->
<g id="node13" class="node">
<title>node_System(11)</title>
<g id="a_node13"><a xlink:title="bevy_asset::assets::Assets&lt;bevy_scene::dynamic_scene::DynamicScene&gt;::track_assets">
<polygon fill="#d1cbc5" stroke="#a3988c" points="805.25,-643 521.5,-643 521.5,-607 805.25,-607 805.25,-643"/>
<text text-anchor="middle" x="663.38" y="-620.33" font-family="Helvetica,sans-Serif" font-size="14.00" fill="#1c1916">Assets&lt;DynamicScene&gt;::track_assets</text>
</a>
</g>
</g>
<!-- node_System(12) -->
<g id="node14" class="node">
<title>node_System(12)</title>
<g id="a_node14"><a xlink:title="bevy_asset::assets::Assets&lt;bevy_scene::scene::Scene&gt;::track_assets">
<polygon fill="#d1cbc5" stroke="#a3988c" points="774.88,-690 551.88,-690 551.88,-654 774.88,-654 774.88,-690"/>
<text text-anchor="middle" x="663.38" y="-667.33" font-family="Helvetica,sans-Serif" font-size="14.00" fill="#1c1916">Assets&lt;Scene&gt;::track_assets</text>
</a>
</g>
</g>
<!-- node_System(13) -->
<g id="node15" class="node">
<title>node_System(13)</title>
<g id="a_node15"><a xlink:title="bevy_asset::assets::Assets&lt;bevy_image::texture_atlas::TextureAtlasLayout&gt;::track_assets">
<polygon fill="#d1cbc5" stroke="#a3988c" points="819.12,-737 507.62,-737 507.62,-701 819.12,-701 819.12,-737"/>
<text text-anchor="middle" x="663.38" y="-714.33" font-family="Helvetica,sans-Serif" font-size="14.00" fill="#1c1916">Assets&lt;TextureAtlasLayout&gt;::track_assets</text>
</a>
</g>
</g>
<!-- node_System(14) -->
<g id="node16" class="node">
<title>node_System(14)</title>
<g id="a_node16"><a xlink:title="bevy_asset::assets::Assets&lt;bevy_render::render_resource::shader::Shader&gt;::track_assets">
<polygon fill="#d1cbc5" stroke="#a3988c" points="778.62,-784 548.12,-784 548.12,-748 778.62,-748 778.62,-784"/>
<text text-anchor="middle" x="663.38" y="-761.33" font-family="Helvetica,sans-Serif" font-size="14.00" fill="#1c1916">Assets&lt;Shader&gt;::track_assets</text>
</a>
</g>
</g>
<!-- node_System(15) -->
<g id="node17" class="node">
<title>node_System(15)</title>
<g id="a_node17"><a xlink:title="bevy_asset::assets::Assets&lt;bevy_mesh::mesh::Mesh&gt;::track_assets">
<polygon fill="#d1cbc5" stroke="#a3988c" points="772.25,-831 554.5,-831 554.5,-795 772.25,-795 772.25,-831"/>
<text text-anchor="middle" x="663.38" y="-808.33" font-family="Helvetica,sans-Serif" font-size="14.00" fill="#1c1916">Assets&lt;Mesh&gt;::track_assets</text>
</a>
</g>
</g>
<!-- node_System(16) -->
<g id="node18" class="node">
<title>node_System(16)</title>
<g id="a_node18"><a xlink:title="bevy_asset::assets::Assets&lt;bevy_mesh::skinning::SkinnedMeshInverseBindposes&gt;::track_assets">
<polygon fill="#d1cbc5" stroke="#a3988c" points="862.25,-878 464.5,-878 464.5,-842 862.25,-842 862.25,-878"/>
<text text-anchor="middle" x="663.38" y="-855.33" font-family="Helvetica,sans-Serif" font-size="14.00" fill="#1c1916">Assets&lt;SkinnedMeshInverseBindposes&gt;::track_assets</text>
</a>
</g>
</g>
<!-- node_System(17) -->
<g id="node19" class="node">
<title>node_System(17)</title>
<g id="a_node19"><a xlink:title="bevy_asset::assets::Assets&lt;bevy_render::storage::ShaderStorageBuffer&gt;::track_assets">
<polygon fill="#d1cbc5" stroke="#a3988c" points="827,-925 499.75,-925 499.75,-889 827,-889 827,-925"/>
<text text-anchor="middle" x="663.38" y="-902.33" font-family="Helvetica,sans-Serif" font-size="14.00" fill="#1c1916">Assets&lt;ShaderStorageBuffer&gt;::track_assets</text>
</a>
</g>
</g>
<!-- node_System(18) -->
<g id="node20" class="node">
<title>node_System(18)</title>
<g id="a_node20"><a xlink:title="bevy_asset::assets::Assets&lt;bevy_image::image::Image&gt;::track_assets">
<polygon fill="#d1cbc5" stroke="#a3988c" points="775.62,-972 551.12,-972 551.12,-936 775.62,-936 775.62,-972"/>
<text text-anchor="middle" x="663.38" y="-949.33" font-family="Helvetica,sans-Serif" font-size="14.00" fill="#1c1916">Assets&lt;Image&gt;::track_assets</text>
</a>
</g>
</g>
<!-- node_System(19) -->
<g id="node21" class="node">
<title>node_System(19)</title>
<g id="a_node21"><a xlink:title="bevy_asset::assets::Assets&lt;bevy_sprite::mesh2d::color_material::ColorMaterial&gt;::track_assets">
<polygon fill="#d1cbc5" stroke="#a3988c" points="799.62,-1019 527.12,-1019 527.12,-983 799.62,-983 799.62,-1019"/>
<text text-anchor="middle" x="663.38" y="-996.33" font-family="Helvetica,sans-Serif" font-size="14.00" fill="#1c1916">Assets&lt;ColorMaterial&gt;::track_assets</text>
</a>
</g>
</g>
<!-- node_System(21) -->
<g id="node22" class="node">
<title>node_System(21)</title>
<g id="a_node22"><a xlink:title="bevy_asset::assets::Assets&lt;bevy_text::font::Font&gt;::track_assets">
<polygon fill="#d1cbc5" stroke="#a3988c" points="768.88,-1066 557.88,-1066 557.88,-1030 768.88,-1030 768.88,-1066"/>
<text text-anchor="middle" x="663.38" y="-1043.33" font-family="Helvetica,sans-Serif" font-size="14.00" fill="#1c1916">Assets&lt;Font&gt;::track_assets</text>
</a>
</g>
</g>
<!-- node_System(24) -->
<g id="node23" class="node">
<title>node_System(24)</title>
<g id="a_node23"><a xlink:title="bevy_asset::assets::Assets&lt;bevy_pbr::pbr_material::StandardMaterial&gt;::track_assets">
<polygon fill="#d1cbc5" stroke="#a3988c" points="813.12,-1113 513.62,-1113 513.62,-1077 813.12,-1077 813.12,-1113"/>
<text text-anchor="middle" x="663.38" y="-1090.33" font-family="Helvetica,sans-Serif" font-size="14.00" fill="#1c1916">Assets&lt;StandardMaterial&gt;::track_assets</text>
</a>
</g>
</g>
<!-- node_System(27) -->
<g id="node24" class="node">
<title>node_System(27)</title>
<g id="a_node24"><a xlink:title="bevy_asset::assets::Assets&lt;bevy_pbr::extended_material::ExtendedMaterial&lt;bevy_pbr::pbr_material::StandardMaterial, bevy_pbr::decal::forward::ForwardDecalMaterialExt&gt;&gt;::track_assets">
<polygon fill="#d1cbc5" stroke="#a3988c" points="976.25,-1160 350.5,-1160 350.5,-1124 976.25,-1124 976.25,-1160"/>
<text text-anchor="middle" x="663.38" y="-1137.33" font-family="Helvetica,sans-Serif" font-size="14.00" fill="#1c1916">Assets&lt;ExtendedMaterial&lt;StandardMaterial, ForwardDecalMaterialExt&gt;&gt;::track_assets</text>
</a>
</g>
</g>
<!-- node_System(28) -->
<g id="node25" class="node">
<title>node_System(28)</title>
<g id="a_node25"><a xlink:title="bevy_asset::assets::Assets&lt;bevy_gltf::assets::Gltf&gt;::track_assets">
<polygon fill="#d1cbc5" stroke="#a3988c" points="766.25,-1207 560.5,-1207 560.5,-1171 766.25,-1171 766.25,-1207"/>
<text text-anchor="middle" x="663.38" y="-1184.33" font-family="Helvetica,sans-Serif" font-size="14.00" fill="#1c1916">Assets&lt;Gltf&gt;::track_assets</text>
</a>
</g>
</g>
<!-- node_System(29) -->
<g id="node26" class="node">
<title>node_System(29)</title>
<g id="a_node26"><a xlink:title="bevy_asset::assets::Assets&lt;bevy_gltf::assets::GltfNode&gt;::track_assets">
<polygon fill="#d1cbc5" stroke="#a3988c" points="784.25,-1254 542.5,-1254 542.5,-1218 784.25,-1218 784.25,-1254"/>
<text text-anchor="middle" x="663.38" y="-1231.33" font-family="Helvetica,sans-Serif" font-size="14.00" fill="#1c1916">Assets&lt;GltfNode&gt;::track_assets</text>
</a>
</g>
</g>
<!-- node_System(30) -->
<g id="node27" class="node">
<title>node_System(30)</title>
<g id="a_node27"><a xlink:title="bevy_asset::assets::Assets&lt;bevy_gltf::assets::GltfPrimitive&gt;::track_assets">
<polygon fill="#d1cbc5" stroke="#a3988c" points="796.62,-1301 530.12,-1301 530.12,-1265 796.62,-1265 796.62,-1301"/>
<text text-anchor="middle" x="663.38" y="-1278.33" font-family="Helvetica,sans-Serif" font-size="14.00" fill="#1c1916">Assets&lt;GltfPrimitive&gt;::track_assets</text>
</a>
</g>
</g>
<!-- node_System(31) -->
<g id="node28" class="node">
<title>node_System(31)</title>
<g id="a_node28"><a xlink:title="bevy_asset::assets::Assets&lt;bevy_gltf::assets::GltfMesh&gt;::track_assets">
<polygon fill="#d1cbc5" stroke="#a3988c" points="784.62,-1348 542.12,-1348 542.12,-1312 784.62,-1312 784.62,-1348"/>
<text text-anchor="middle" x="663.38" y="-1325.33" font-family="Helvetica,sans-Serif" font-size="14.00" fill="#1c1916">Assets&lt;GltfMesh&gt;::track_assets</text>
</a>
</g>
</g>
<!-- node_System(32) -->
<g id="node29" class="node">
<title>node_System(32)</title>
<g id="a_node29"><a xlink:title="bevy_asset::assets::Assets&lt;bevy_gltf::assets::GltfSkin&gt;::track_assets">
<polygon fill="#d1cbc5" stroke="#a3988c" points="781.25,-1395 545.5,-1395 545.5,-1359 781.25,-1359 781.25,-1395"/>
<text text-anchor="middle" x="663.38" y="-1372.33" font-family="Helvetica,sans-Serif" font-size="14.00" fill="#1c1916">Assets&lt;GltfSkin&gt;::track_assets</text>
</a>
</g>
</g>
<!-- node_System(33) -->
<g id="node30" class="node">
<title>node_System(33)</title>
<g id="a_node30"><a xlink:title="bevy_asset::assets::Assets&lt;bevy_audio::audio_source::AudioSource&gt;::track_assets">
<polygon fill="#d1cbc5" stroke="#a3988c" points="797.38,-1442 529.38,-1442 529.38,-1406 797.38,-1406 797.38,-1442"/>
<text text-anchor="middle" x="663.38" y="-1419.33" font-family="Helvetica,sans-Serif" font-size="14.00" fill="#1c1916">Assets&lt;AudioSource&gt;::track_assets</text>
</a>
</g>
</g>
<!-- node_System(34) -->
<g id="node31" class="node">
<title>node_System(34)</title>
<g id="a_node31"><a xlink:title="bevy_asset::assets::Assets&lt;bevy_audio::pitch::Pitch&gt;::track_assets">
<polygon fill="#d1cbc5" stroke="#a3988c" points="770.75,-1489 556,-1489 556,-1453 770.75,-1453 770.75,-1489"/>
<text text-anchor="middle" x="663.38" y="-1466.33" font-family="Helvetica,sans-Serif" font-size="14.00" fill="#1c1916">Assets&lt;Pitch&gt;::track_assets</text>
</a>
</g>
</g>
<!-- node_System(36) -->
<g id="node32" class="node">
<title>node_System(36)</title>
<g id="a_node32"><a xlink:title="bevy_asset::assets::Assets&lt;bevy_animation::AnimationClip&gt;::track_assets">
<polygon fill="#d1cbc5" stroke="#a3988c" points="802.25,-1536 524.5,-1536 524.5,-1500 802.25,-1500 802.25,-1536"/>
<text text-anchor="middle" x="663.38" y="-1513.33" font-family="Helvetica,sans-Serif" font-size="14.00" fill="#1c1916">Assets&lt;AnimationClip&gt;::track_assets</text>
</a>
</g>
</g>
<!-- node_System(37) -->
<g id="node33" class="node">
<title>node_System(37)</title>
<g id="a_node33"><a xlink:title="bevy_asset::assets::Assets&lt;bevy_animation::graph::AnimationGraph&gt;::track_assets">
<polygon fill="#d1cbc5" stroke="#a3988c" points="810.5,-1583 516.25,-1583 516.25,-1547 810.5,-1547 810.5,-1583"/>
<text text-anchor="middle" x="663.38" y="-1560.33" font-family="Helvetica,sans-Serif" font-size="14.00" fill="#1c1916">Assets&lt;AnimationGraph&gt;::track_assets</text>
</a>
</g>
</g>
<!-- node_System(38) -->
<g id="node34" class="node">
<title>node_System(38)</title>
<g id="a_node34"><a xlink:title="bevy_asset::assets::Assets&lt;bevy_gizmos::GizmoAsset&gt;::track_assets">
<polygon fill="#d1cbc5" stroke="#a3988c" points="794.75,-1630 532,-1630 532,-1594 794.75,-1594 794.75,-1630"/>
<text text-anchor="middle" x="663.38" y="-1607.33" font-family="Helvetica,sans-Serif" font-size="14.00" fill="#1c1916">Assets&lt;GizmoAsset&gt;::track_assets</text>
</a>
</g>
</g>
<!-- set_marker_node_Set(23) -->
<!-- set_marker_node_Set(48) -->
<!-- set_marker_node_Set(23)&#45;&gt;set_marker_node_Set(48) -->
<g id="edge11" class="edge">
<title>set_marker_node_Set(23)&#45;&gt;set_marker_node_Set(48)</title>
<g id="a_edge11"><a xlink:title="Backend → Hover">
<path fill="none" stroke="#99d955" stroke-width="2" d="M749.5,-1681C832.84,-1681 959.68,-1681 1046.94,-1681"/>
<polygon fill="#99d955" stroke="#99d955" stroke-width="2" points="1046.73,-1684.5 1056.73,-1681 1046.73,-1677.5 1046.73,-1684.5"/>
</a>
</g>
</g>
<!-- node_System(20) -->
<g id="node36" class="node">
<title>node_System(20)</title>
<g id="a_node36"><a xlink:title="bevy_sprite::picking_backend::sprite_picking">
<polygon fill="#eff1f3" stroke="#b4bec7" points="719.75,-1730 607,-1730 607,-1694 719.75,-1694 719.75,-1730"/>
<text text-anchor="middle" x="663.38" y="-1707.33" font-family="Helvetica,sans-Serif" font-size="14.00" fill="#15191d">sprite_picking</text>
</a>
</g>
</g>
<!-- node_System(23) -->
<g id="node37" class="node">
<title>node_System(23)</title>
<g id="a_node37"><a xlink:title="bevy_ui::picking_backend::ui_picking">
<polygon fill="#ffb1e5" stroke="#ff4bc2" points="706.25,-1777 620.5,-1777 620.5,-1741 706.25,-1741 706.25,-1777"/>
<text text-anchor="middle" x="663.38" y="-1754.33" font-family="Helvetica,sans-Serif" font-size="14.00" fill="#320021">ui_picking</text>
</a>
</g>
</g>
<!-- node_System(42) -->
<g id="node38" class="node">
<title>node_System(42)</title>
<g id="a_node38"><a xlink:title="bevy_picking::window::update_window_hits">
<polygon fill="#eff1f3" stroke="#b4bec7" points="741.5,-1824 585.25,-1824 585.25,-1788 741.5,-1788 741.5,-1824"/>
<text text-anchor="middle" x="663.38" y="-1801.33" font-family="Helvetica,sans-Serif" font-size="14.00" fill="#15191d">update_window_hits</text>
</a>
</g>
</g>
<!-- set_marker_node_Set(26) -->
<!-- set_marker_node_Set(44) -->
<!-- set_marker_node_Set(44)&#45;&gt;set_marker_node_Set(23) -->
<g id="edge1" class="edge">
<title>set_marker_node_Set(44)&#45;&gt;set_marker_node_Set(23)</title>
<g id="a_edge1"><a xlink:title="ProcessInput → Backend">
<path fill="none" stroke="#eede00" stroke-width="2" d="M164.13,-1865C184.08,-1832.18 252.96,-1727.66 342.5,-1689 380.97,-1672.39 485.18,-1672.58 564.29,-1675.54"/>
<polygon fill="#eede00" stroke="#eede00" stroke-width="2" points="564.1,-1679.03 574.23,-1675.93 564.38,-1672.04 564.1,-1679.03"/>
</a>
</g>
</g>
<!-- node_System(39) -->
<g id="node42" class="node">
<title>node_System(39)</title>
<g id="a_node42"><a xlink:title="bevy_picking::pointer::update_pointer_map">
<polygon fill="#eff1f3" stroke="#b4bec7" points="236.5,-1924 78,-1924 78,-1888 236.5,-1888 236.5,-1924"/>
<text text-anchor="middle" x="157.25" y="-1901.33" font-family="Helvetica,sans-Serif" font-size="14.00" fill="#15191d">update_pointer_map</text>
</a>
</g>
</g>
<!-- node_System(40) -->
<g id="node43" class="node">
<title>node_System(40)</title>
<g id="a_node43"><a xlink:title="bevy_picking::pointer::PointerInput::receive">
<polygon fill="#eff1f3" stroke="#b4bec7" points="237.25,-1971 77.25,-1971 77.25,-1935 237.25,-1935 237.25,-1971"/>
<text text-anchor="middle" x="157.25" y="-1948.33" font-family="Helvetica,sans-Serif" font-size="14.00" fill="#15191d">PointerInput::receive</text>
</a>
</g>
</g>
<!-- node_System(41) -->
<g id="node44" class="node">
<title>node_System(41)</title>
<g id="a_node44"><a xlink:title="bevy_picking::backend::ray::RayMap::repopulate">
<polygon fill="#eff1f3" stroke="#b4bec7" points="740.75,-1971 586,-1971 586,-1935 740.75,-1935 740.75,-1971"/>
<text text-anchor="middle" x="663.38" y="-1948.33" font-family="Helvetica,sans-Serif" font-size="14.00" fill="#15191d">RayMap::repopulate</text>
</a>
</g>
</g>
<!-- node_System(40)&#45;&gt;node_System(41) -->
<g id="edge4" class="edge">
<title>node_System(40)&#45;&gt;node_System(41)</title>
<g id="a_edge4"><a xlink:title="SystemTypeSet(fn bevy_ecs::system::function_system::FunctionSystem&lt;fn(bevy_ecs::event::reader::EventReader&lt;bevy_picking::pointer::PointerInput&gt;, bevy_ecs::system::query::Query&lt;(&amp;bevy_picking::pointer::PointerId, &amp;mut bevy_picking::pointer::PointerLocation, &amp;mut bevy_picking::pointer::PointerPress)&gt;), bevy_picking::pointer::PointerInput::receive&gt;()) → RayMap::repopulate">
<path fill="none" stroke="#aa3a55" stroke-width="2" d="M237.57,-1953C328.63,-1953 477.65,-1953 572.81,-1953"/>
<polygon fill="#aa3a55" stroke="#aa3a55" stroke-width="2" points="572.55,-1956.5 582.55,-1953 572.55,-1949.5 572.55,-1956.5"/>
</a>
</g>
</g>
<!-- set_marker_node_Set(49) -->
<!-- set_marker_node_Set(48)&#45;&gt;set_marker_node_Set(49) -->
<g id="edge8" class="edge">
<title>set_marker_node_Set(48)&#45;&gt;set_marker_node_Set(49)</title>
<g id="a_edge8"><a xlink:title="Hover → PostHover">
<path fill="none" stroke="#663699" stroke-width="2" d="M1192.06,-1671C1232.77,-1662.14 1292.27,-1649.19 1335.33,-1639.82"/>
<polygon fill="#663699" stroke="#663699" stroke-width="2" points="1335.89,-1643.28 1344.92,-1637.73 1334.41,-1636.44 1335.89,-1643.28"/>
</a>
</g>
</g>
<!-- node_System(43) -->
<g id="node46" class="node">
<title>node_System(43)</title>
<g id="a_node46"><a xlink:title="bevy_picking::hover::generate_hovermap">
<polygon fill="#eff1f3" stroke="#b4bec7" points="1222.5,-1730 1067.75,-1730 1067.75,-1694 1222.5,-1694 1222.5,-1730"/>
<text text-anchor="middle" x="1145.12" y="-1707.33" font-family="Helvetica,sans-Serif" font-size="14.00" fill="#15191d">generate_hovermap</text>
</a>
</g>
</g>
<!-- node_System(44) -->
<g id="node47" class="node">
<title>node_System(44)</title>
<g id="a_node47"><a xlink:title="bevy_picking::hover::update_interactions">
<polygon fill="#eff1f3" stroke="#b4bec7" points="1467.25,-1730 1314,-1730 1314,-1694 1467.25,-1694 1467.25,-1730"/>
<text text-anchor="middle" x="1390.62" y="-1707.33" font-family="Helvetica,sans-Serif" font-size="14.00" fill="#15191d">update_interactions</text>
</a>
</g>
</g>
<!-- node_System(43)&#45;&gt;node_System(44) -->
<g id="edge2" class="edge">
<title>node_System(43)&#45;&gt;node_System(44)</title>
<g id="a_edge2"><a xlink:title="generate_hovermap → update_interactions">
<path fill="none" stroke="#881877" stroke-width="2" d="M1222.84,-1712C1247.64,-1712 1275.35,-1712 1300.95,-1712"/>
<polygon fill="#881877" stroke="#881877" stroke-width="2" points="1300.69,-1715.5 1310.69,-1712 1300.69,-1708.5 1300.69,-1715.5"/>
</a>
</g>
</g>
<!-- node_System(45) -->
<g id="node48" class="node">
<title>node_System(45)</title>
<g id="a_node48"><a xlink:title="bevy_picking::events::pointer_events">
<polygon fill="#eff1f3" stroke="#b4bec7" points="1622,-1730 1503.25,-1730 1503.25,-1694 1622,-1694 1622,-1730"/>
<text text-anchor="middle" x="1562.62" y="-1707.33" font-family="Helvetica,sans-Serif" font-size="14.00" fill="#15191d">pointer_events</text>
</a>
</g>
</g>
<!-- node_System(44)&#45;&gt;node_System(45) -->
<g id="edge9" class="edge">
<title>node_System(44)&#45;&gt;node_System(45)</title>
<g id="a_edge9"><a xlink:title="update_interactions → pointer_events">
<path fill="none" stroke="#3363bb" stroke-width="2" d="M1467.67,-1712C1475.17,-1712 1482.76,-1712 1490.21,-1712"/>
<polygon fill="#3363bb" stroke="#3363bb" stroke-width="2" points="1489.96,-1715.5 1499.96,-1712 1489.96,-1708.5 1489.96,-1715.5"/>
</a>
</g>
</g>
<!-- set_marker_node_Set(50) -->
<!-- set_marker_node_Set(49)&#45;&gt;set_marker_node_Set(50) -->
<g id="edge3" class="edge">
<title>set_marker_node_Set(49)&#45;&gt;set_marker_node_Set(50)</title>
<g id="a_edge3"><a xlink:title="PostHover → Last">
<path fill="none" stroke="#00b0cc" stroke-width="2" d="M1434.37,-1628C1463.34,-1628 1501.09,-1628 1527.93,-1628"/>
<polygon fill="#00b0cc" stroke="#00b0cc" stroke-width="2" points="1527.85,-1631.5 1537.85,-1628 1527.85,-1624.5 1527.85,-1631.5"/>
</a>
</g>
</g>
<!-- node_System(10) -->
<g id="node51" class="node">
<title>node_System(10)</title>
<g id="a_node51"><a xlink:title="bevy_asset::server::handle_internal_asset_events">
<polygon fill="lightgrey" stroke="black" points="269.88,-471 44.62,-471 44.62,-435 269.88,-435 269.88,-471"/>
<text text-anchor="middle" x="157.25" y="-448.32" font-family="Times,serif" font-size="14.00">handle_internal_asset_events</text>
</a>
</g>
</g>
<!-- node_System(10)&#45;&gt;set_marker_node_Set(9) -->
<g id="edge7" class="edge">
<title>node_System(10)&#45;&gt;set_marker_node_Set(9)</title>
<g id="a_edge7"><a xlink:title="SystemTypeSet(fn bevy_ecs::system::exclusive_function_system::ExclusiveFunctionSystem&lt;fn(), bevy_asset::server::handle_internal_asset_events&gt;()) → TrackAssets">
<path fill="none" stroke="#ee9e44" stroke-width="2" d="M270.13,-453C288.73,-453 308.82,-453 329.74,-453"/>
<polygon fill="#ee9e44" stroke="#ee9e44" stroke-width="2" points="329.48,-456.5 339.48,-453 329.48,-449.5 329.48,-456.5"/>
</a>
</g>
</g>
<!-- node_System(25) -->
<g id="node52" class="node">
<title>node_System(25)</title>
<g id="a_node52"><a xlink:title="bevy_pbr::prepass::update_mesh_previous_global_transforms">
<polygon fill="lightgrey" stroke="black" points="314.5,-2048 0,-2048 0,-2012 314.5,-2012 314.5,-2048"/>
<text text-anchor="middle" x="157.25" y="-2025.33" font-family="Times,serif" font-size="14.00">update_mesh_previous_global_transforms</text>
</a>
</g>
</g>
<!-- node_System(26) -->
<g id="node53" class="node">
<title>node_System(26)</title>
<g id="a_node53"><a xlink:title="bevy_pbr::prepass::update_previous_view_data">
<polygon fill="lightgrey" stroke="black" points="263.12,-2095 51.38,-2095 51.38,-2059 263.12,-2059 263.12,-2095"/>
<text text-anchor="middle" x="157.25" y="-2072.32" font-family="Times,serif" font-size="14.00">update_previous_view_data</text>
</a>
</g>
</g>
<!-- node_System(35) -->
<g id="node54" class="node">
<title>node_System(35)</title>
<g id="a_node54"><a xlink:title="bevy_gilrs::gilrs_system::gilrs_event_system">
<polygon fill="lightgrey" stroke="black" points="233.5,-136 81,-136 81,-100 233.5,-100 233.5,-136"/>
<text text-anchor="middle" x="157.25" y="-113.33" font-family="Times,serif" font-size="14.00">gilrs_event_system</text>
</a>
</g>
</g>
<!-- node_System(35)&#45;&gt;set_marker_node_Set(1) -->
<g id="edge5" class="edge">
<title>node_System(35)&#45;&gt;set_marker_node_Set(1)</title>
<g id="a_edge5"><a xlink:title="gilrs_event_system → InputSystem">
<path fill="none" stroke="#44d488" stroke-width="2" d="M234,-118C307.27,-118 420.38,-118 511.98,-118"/>
<polygon fill="#44d488" stroke="#44d488" stroke-width="2" points="511.73,-121.5 521.73,-118 511.73,-114.5 511.73,-121.5"/>
</a>
</g>
</g>
<!-- node_System(46) -->
<g id="node55" class="node">
<title>node_System(46)</title>
<g id="a_node55"><a xlink:title="bevy_ecs::apply_deferred">
<polygon fill="lightgrey" stroke="black" points="218.88,-2142 95.62,-2142 95.62,-2106 218.88,-2106 218.88,-2142"/>
<text text-anchor="middle" x="157.25" y="-2119.32" font-family="Times,serif" font-size="14.00">apply_deferred</text>
</a>
</g>
</g>
<!-- node_System(47) -->
<g id="node56" class="node">
<title>node_System(47)</title>
<g id="a_node56"><a xlink:title="bevy_ecs::apply_deferred">
<polygon fill="lightgrey" stroke="black" points="218.88,-2189 95.62,-2189 95.62,-2153 218.88,-2153 218.88,-2189"/>
<text text-anchor="middle" x="157.25" y="-2166.32" font-family="Times,serif" font-size="14.00">apply_deferred</text>
</a>
</g>
</g>
</g>
</svg>
