<?xml version="1.0" encoding="UTF-8" standalone="no"?>
<!DOCTYPE svg PUBLIC "-//W3C//DTD SVG 1.1//EN"
 "http://www.w3.org/Graphics/SVG/1.1/DTD/svg11.dtd">
<!-- Generated by graphviz version 9.0.0 (0)
 -->
<!-- Pages: 1 -->
<svg width="737pt" height="2733pt"
 viewBox="0.00 0.00 737.00 2733.00" xmlns="http://www.w3.org/2000/svg" xmlns:xlink="http://www.w3.org/1999/xlink">
<g id="graph0" class="graph" transform="scale(1 1) rotate(0) translate(4 2729)">
<polygon fill="white" stroke="none" points="-4,4 -4,-2729 733,-2729 733,4 -4,4"/>
<g id="clust1" class="cluster">
<title>clusternode_Set(2)</title>
<g id="a_clust1"><a xlink:title="TimeSystem">
<path fill="#000000" fill-opacity="0.031373" stroke="#000000" stroke-width="2" stroke-opacity="0.250980" d="M213.25,-8C213.25,-8 709,-8 709,-8 715,-8 721,-14 721,-20 721,-20 721,-84 721,-84 721,-90 715,-96 709,-96 709,-96 213.25,-96 213.25,-96 207.25,-96 201.25,-90 201.25,-84 201.25,-84 201.25,-20 201.25,-20 201.25,-14 207.25,-8 213.25,-8"/>
<text text-anchor="middle" x="461.12" y="-78.7" font-family="Helvetica,sans-Serif" font-size="14.00" fill="#000000">TimeSystem</text>
</a>
</g>
</g>
<!-- set_marker_node_Set(2) -->
<!-- node_System(1) -->
<g id="node2" class="node">
<title>node_System(1)</title>
<g id="a_node2"><a xlink:title="bevy_time::time_system">
<polygon fill="#c7ddbd" stroke="#8dba79" points="313,-52 209.25,-52 209.25,-16 313,-16 313,-52"/>
<text text-anchor="middle" x="261.12" y="-29.32" font-family="Helvetica,sans-Serif" font-size="14.00" fill="#162111">time_system</text>
</a>
</g>
</g>
<!-- node_System(2) -->
<g id="node3" class="node">
<title>node_System(2)</title>
<g id="a_node3"><a xlink:title="bevy_time::virt::virtual_time_system">
<polygon fill="#c7ddbd" stroke="#8dba79" points="713,-52 558.25,-52 558.25,-16 713,-16 713,-52"/>
<text text-anchor="middle" x="635.62" y="-29.32" font-family="Helvetica,sans-Serif" font-size="14.00" fill="#162111">virtual_time_system</text>
</a>
</g>
</g>
<!-- node_System(1)&#45;&gt;node_System(2) -->
<g id="edge1" class="edge">
<title>node_System(1)&#45;&gt;node_System(2)</title>
<g id="a_edge1"><a xlink:title="SystemTypeSet(time_system()) → virtual_time_system">
<path fill="none" stroke="#eede00" stroke-width="2" d="M313.14,-34C372.82,-34 472.69,-34 545.31,-34"/>
<polygon fill="#eede00" stroke="#eede00" stroke-width="2" points="545.05,-37.5 555.05,-34 545.05,-30.5 545.05,-37.5"/>
</a>
</g>
</g>
<!-- node_System(0) -->
<g id="node4" class="node">
<title>node_System(0)</title>
<g id="a_node4"><a xlink:title="bevy_ecs::event::event_update_system&lt;bevy_app::app::AppExit&gt;">
<polygon fill="lightgrey" stroke="black" points="386.5,-140 135.75,-140 135.75,-104 386.5,-104 386.5,-140"/>
<text text-anchor="middle" x="261.12" y="-117.33" font-family="Times,serif" font-size="14.00">event_update_system&lt;AppExit&gt;</text>
</a>
</g>
</g>
<!-- node_System(3) -->
<g id="node5" class="node">
<title>node_System(3)</title>
<g id="a_node5"><a xlink:title="bevy_ecs::event::event_update_system&lt;bevy_hierarchy::events::HierarchyEvent&gt;">
<polygon fill="lightgrey" stroke="black" points="414.62,-187 107.62,-187 107.62,-151 414.62,-151 414.62,-187"/>
<text text-anchor="middle" x="261.12" y="-164.32" font-family="Times,serif" font-size="14.00">event_update_system&lt;HierarchyEvent&gt;</text>
</a>
</g>
</g>
<!-- node_System(4) -->
<g id="node6" class="node">
<title>node_System(4)</title>
<g id="a_node6"><a xlink:title="bevy_ecs::event::event_update_system&lt;bevy_input::keyboard::KeyboardInput&gt;">
<polygon fill="lightgrey" stroke="black" points="410.88,-234 111.38,-234 111.38,-198 410.88,-198 410.88,-234"/>
<text text-anchor="middle" x="261.12" y="-211.32" font-family="Times,serif" font-size="14.00">event_update_system&lt;KeyboardInput&gt;</text>
</a>
</g>
</g>
<!-- node_System(5) -->
<g id="node7" class="node">
<title>node_System(5)</title>
<g id="a_node7"><a xlink:title="bevy_ecs::event::event_update_system&lt;bevy_input::mouse::MouseButtonInput&gt;">
<polygon fill="lightgrey" stroke="black" points="425.12,-281 97.12,-281 97.12,-245 425.12,-245 425.12,-281"/>
<text text-anchor="middle" x="261.12" y="-258.32" font-family="Times,serif" font-size="14.00">event_update_system&lt;MouseButtonInput&gt;</text>
</a>
</g>
</g>
<!-- node_System(6) -->
<g id="node8" class="node">
<title>node_System(6)</title>
<g id="a_node8"><a xlink:title="bevy_ecs::event::event_update_system&lt;bevy_input::mouse::MouseMotion&gt;">
<polygon fill="lightgrey" stroke="black" points="406.75,-328 115.5,-328 115.5,-292 406.75,-292 406.75,-328"/>
<text text-anchor="middle" x="261.12" y="-305.32" font-family="Times,serif" font-size="14.00">event_update_system&lt;MouseMotion&gt;</text>
</a>
</g>
</g>
<!-- node_System(7) -->
<g id="node9" class="node">
<title>node_System(7)</title>
<g id="a_node9"><a xlink:title="bevy_ecs::event::event_update_system&lt;bevy_input::mouse::MouseWheel&gt;">
<polygon fill="lightgrey" stroke="black" points="403.75,-375 118.5,-375 118.5,-339 403.75,-339 403.75,-375"/>
<text text-anchor="middle" x="261.12" y="-352.32" font-family="Times,serif" font-size="14.00">event_update_system&lt;MouseWheel&gt;</text>
</a>
</g>
</g>
<!-- node_System(8) -->
<g id="node10" class="node">
<title>node_System(8)</title>
<g id="a_node10"><a xlink:title="bevy_ecs::event::event_update_system&lt;bevy_input::touchpad::TouchpadMagnify&gt;">
<polygon fill="lightgrey" stroke="black" points="421.38,-422 100.88,-422 100.88,-386 421.38,-386 421.38,-422"/>
<text text-anchor="middle" x="261.12" y="-399.32" font-family="Times,serif" font-size="14.00">event_update_system&lt;TouchpadMagnify&gt;</text>
</a>
</g>
</g>
<!-- node_System(9) -->
<g id="node11" class="node">
<title>node_System(9)</title>
<g id="a_node11"><a xlink:title="bevy_ecs::event::event_update_system&lt;bevy_input::touchpad::TouchpadRotate&gt;">
<polygon fill="lightgrey" stroke="black" points="415.75,-469 106.5,-469 106.5,-433 415.75,-433 415.75,-469"/>
<text text-anchor="middle" x="261.12" y="-446.32" font-family="Times,serif" font-size="14.00">event_update_system&lt;TouchpadRotate&gt;</text>
</a>
</g>
</g>
<!-- node_System(10) -->
<g id="node12" class="node">
<title>node_System(10)</title>
<g id="a_node12"><a xlink:title="bevy_ecs::event::event_update_system&lt;bevy_input::gamepad::GamepadConnectionEvent&gt;">
<polygon fill="lightgrey" stroke="black" points="452.88,-516 69.38,-516 69.38,-480 452.88,-480 452.88,-516"/>
<text text-anchor="middle" x="261.12" y="-493.32" font-family="Times,serif" font-size="14.00">event_update_system&lt;GamepadConnectionEvent&gt;</text>
</a>
</g>
</g>
<!-- node_System(11) -->
<g id="node13" class="node">
<title>node_System(11)</title>
<g id="a_node13"><a xlink:title="bevy_ecs::event::event_update_system&lt;bevy_input::gamepad::GamepadButtonChangedEvent&gt;">
<polygon fill="lightgrey" stroke="black" points="468.62,-563 53.62,-563 53.62,-527 468.62,-527 468.62,-563"/>
<text text-anchor="middle" x="261.12" y="-540.33" font-family="Times,serif" font-size="14.00">event_update_system&lt;GamepadButtonChangedEvent&gt;</text>
</a>
</g>
</g>
<!-- node_System(12) -->
<g id="node14" class="node">
<title>node_System(12)</title>
<g id="a_node14"><a xlink:title="bevy_ecs::event::event_update_system&lt;bevy_input::gamepad::GamepadButtonInput&gt;">
<polygon fill="lightgrey" stroke="black" points="435.25,-610 87,-610 87,-574 435.25,-574 435.25,-610"/>
<text text-anchor="middle" x="261.12" y="-587.33" font-family="Times,serif" font-size="14.00">event_update_system&lt;GamepadButtonInput&gt;</text>
</a>
</g>
</g>
<!-- node_System(13) -->
<g id="node15" class="node">
<title>node_System(13)</title>
<g id="a_node15"><a xlink:title="bevy_ecs::event::event_update_system&lt;bevy_input::gamepad::GamepadAxisChangedEvent&gt;">
<polygon fill="lightgrey" stroke="black" points="459.25,-657 63,-657 63,-621 459.25,-621 459.25,-657"/>
<text text-anchor="middle" x="261.12" y="-634.33" font-family="Times,serif" font-size="14.00">event_update_system&lt;GamepadAxisChangedEvent&gt;</text>
</a>
</g>
</g>
<!-- node_System(14) -->
<g id="node16" class="node">
<title>node_System(14)</title>
<g id="a_node16"><a xlink:title="bevy_ecs::event::event_update_system&lt;bevy_input::gamepad::GamepadEvent&gt;">
<polygon fill="lightgrey" stroke="black" points="412.75,-704 109.5,-704 109.5,-668 412.75,-668 412.75,-704"/>
<text text-anchor="middle" x="261.12" y="-681.33" font-family="Times,serif" font-size="14.00">event_update_system&lt;GamepadEvent&gt;</text>
</a>
</g>
</g>
<!-- node_System(15) -->
<g id="node17" class="node">
<title>node_System(15)</title>
<g id="a_node17"><a xlink:title="bevy_ecs::event::event_update_system&lt;bevy_input::gamepad::GamepadRumbleRequest&gt;">
<polygon fill="lightgrey" stroke="black" points="448.38,-751 73.88,-751 73.88,-715 448.38,-715 448.38,-751"/>
<text text-anchor="middle" x="261.12" y="-728.33" font-family="Times,serif" font-size="14.00">event_update_system&lt;GamepadRumbleRequest&gt;</text>
</a>
</g>
</g>
<!-- node_System(16) -->
<g id="node18" class="node">
<title>node_System(16)</title>
<g id="a_node18"><a xlink:title="bevy_ecs::event::event_update_system&lt;bevy_input::touch::TouchInput&gt;">
<polygon fill="lightgrey" stroke="black" points="398.12,-798 124.12,-798 124.12,-762 398.12,-762 398.12,-798"/>
<text text-anchor="middle" x="261.12" y="-775.33" font-family="Times,serif" font-size="14.00">event_update_system&lt;TouchInput&gt;</text>
</a>
</g>
</g>
<!-- node_System(17) -->
<g id="node19" class="node">
<title>node_System(17)</title>
<g id="a_node19"><a xlink:title="bevy_ecs::event::event_update_system&lt;bevy_window::event::WindowResized&gt;">
<polygon fill="lightgrey" stroke="black" points="414.25,-845 108,-845 108,-809 414.25,-809 414.25,-845"/>
<text text-anchor="middle" x="261.12" y="-822.33" font-family="Times,serif" font-size="14.00">event_update_system&lt;WindowResized&gt;</text>
</a>
</g>
</g>
<!-- node_System(18) -->
<g id="node20" class="node">
<title>node_System(18)</title>
<g id="a_node20"><a xlink:title="bevy_ecs::event::event_update_system&lt;bevy_window::event::WindowCreated&gt;">
<polygon fill="lightgrey" stroke="black" points="415,-892 107.25,-892 107.25,-856 415,-856 415,-892"/>
<text text-anchor="middle" x="261.12" y="-869.33" font-family="Times,serif" font-size="14.00">event_update_system&lt;WindowCreated&gt;</text>
</a>
</g>
</g>
<!-- node_System(19) -->
<g id="node21" class="node">
<title>node_System(19)</title>
<g id="a_node21"><a xlink:title="bevy_ecs::event::event_update_system&lt;bevy_window::event::WindowClosed&gt;">
<polygon fill="lightgrey" stroke="black" points="410.5,-939 111.75,-939 111.75,-903 410.5,-903 410.5,-939"/>
<text text-anchor="middle" x="261.12" y="-916.33" font-family="Times,serif" font-size="14.00">event_update_system&lt;WindowClosed&gt;</text>
</a>
</g>
</g>
<!-- node_System(20) -->
<g id="node22" class="node">
<title>node_System(20)</title>
<g id="a_node22"><a xlink:title="bevy_ecs::event::event_update_system&lt;bevy_window::event::WindowCloseRequested&gt;">
<polygon fill="lightgrey" stroke="black" points="443.88,-986 78.38,-986 78.38,-950 443.88,-950 443.88,-986"/>
<text text-anchor="middle" x="261.12" y="-963.33" font-family="Times,serif" font-size="14.00">event_update_system&lt;WindowCloseRequested&gt;</text>
</a>
</g>
</g>
<!-- node_System(21) -->
<g id="node23" class="node">
<title>node_System(21)</title>
<g id="a_node23"><a xlink:title="bevy_ecs::event::event_update_system&lt;bevy_window::event::WindowDestroyed&gt;">
<polygon fill="lightgrey" stroke="black" points="423.25,-1033 99,-1033 99,-997 423.25,-997 423.25,-1033"/>
<text text-anchor="middle" x="261.12" y="-1010.33" font-family="Times,serif" font-size="14.00">event_update_system&lt;WindowDestroyed&gt;</text>
</a>
</g>
</g>
<!-- node_System(22) -->
<g id="node24" class="node">
<title>node_System(22)</title>
<g id="a_node24"><a xlink:title="bevy_ecs::event::event_update_system&lt;bevy_window::event::RequestRedraw&gt;">
<polygon fill="lightgrey" stroke="black" points="414.62,-1080 107.62,-1080 107.62,-1044 414.62,-1044 414.62,-1080"/>
<text text-anchor="middle" x="261.12" y="-1057.33" font-family="Times,serif" font-size="14.00">event_update_system&lt;RequestRedraw&gt;</text>
</a>
</g>
</g>
<!-- node_System(23) -->
<g id="node25" class="node">
<title>node_System(23)</title>
<g id="a_node25"><a xlink:title="bevy_ecs::event::event_update_system&lt;bevy_window::event::CursorMoved&gt;">
<polygon fill="lightgrey" stroke="black" points="406.38,-1127 115.88,-1127 115.88,-1091 406.38,-1091 406.38,-1127"/>
<text text-anchor="middle" x="261.12" y="-1104.33" font-family="Times,serif" font-size="14.00">event_update_system&lt;CursorMoved&gt;</text>
</a>
</g>
</g>
<!-- node_System(24) -->
<g id="node26" class="node">
<title>node_System(24)</title>
<g id="a_node26"><a xlink:title="bevy_ecs::event::event_update_system&lt;bevy_window::event::CursorEntered&gt;">
<polygon fill="lightgrey" stroke="black" points="411.25,-1174 111,-1174 111,-1138 411.25,-1138 411.25,-1174"/>
<text text-anchor="middle" x="261.12" y="-1151.33" font-family="Times,serif" font-size="14.00">event_update_system&lt;CursorEntered&gt;</text>
</a>
</g>
</g>
<!-- node_System(25) -->
<g id="node27" class="node">
<title>node_System(25)</title>
<g id="a_node27"><a xlink:title="bevy_ecs::event::event_update_system&lt;bevy_window::event::CursorLeft&gt;">
<polygon fill="lightgrey" stroke="black" points="396.62,-1221 125.62,-1221 125.62,-1185 396.62,-1185 396.62,-1221"/>
<text text-anchor="middle" x="261.12" y="-1198.33" font-family="Times,serif" font-size="14.00">event_update_system&lt;CursorLeft&gt;</text>
</a>
</g>
</g>
<!-- node_System(26) -->
<g id="node28" class="node">
<title>node_System(26)</title>
<g id="a_node28"><a xlink:title="bevy_ecs::event::event_update_system&lt;bevy_window::event::ReceivedCharacter&gt;">
<polygon fill="lightgrey" stroke="black" points="425.88,-1268 96.38,-1268 96.38,-1232 425.88,-1232 425.88,-1268"/>
<text text-anchor="middle" x="261.12" y="-1245.33" font-family="Times,serif" font-size="14.00">event_update_system&lt;ReceivedCharacter&gt;</text>
</a>
</g>
</g>
<!-- node_System(27) -->
<g id="node29" class="node">
<title>node_System(27)</title>
<g id="a_node29"><a xlink:title="bevy_ecs::event::event_update_system&lt;bevy_window::event::Ime&gt;">
<polygon fill="lightgrey" stroke="black" points="371.5,-1315 150.75,-1315 150.75,-1279 371.5,-1279 371.5,-1315"/>
<text text-anchor="middle" x="261.12" y="-1292.33" font-family="Times,serif" font-size="14.00">event_update_system&lt;Ime&gt;</text>
</a>
</g>
</g>
<!-- node_System(28) -->
<g id="node30" class="node">
<title>node_System(28)</title>
<g id="a_node30"><a xlink:title="bevy_ecs::event::event_update_system&lt;bevy_window::event::WindowFocused&gt;">
<polygon fill="lightgrey" stroke="black" points="415.75,-1362 106.5,-1362 106.5,-1326 415.75,-1326 415.75,-1362"/>
<text text-anchor="middle" x="261.12" y="-1339.33" font-family="Times,serif" font-size="14.00">event_update_system&lt;WindowFocused&gt;</text>
</a>
</g>
</g>
<!-- node_System(29) -->
<g id="node31" class="node">
<title>node_System(29)</title>
<g id="a_node31"><a xlink:title="bevy_ecs::event::event_update_system&lt;bevy_window::event::WindowScaleFactorChanged&gt;">
<polygon fill="lightgrey" stroke="black" points="460,-1409 62.25,-1409 62.25,-1373 460,-1373 460,-1409"/>
<text text-anchor="middle" x="261.12" y="-1386.33" font-family="Times,serif" font-size="14.00">event_update_system&lt;WindowScaleFactorChanged&gt;</text>
</a>
</g>
</g>
<!-- node_System(30) -->
<g id="node32" class="node">
<title>node_System(30)</title>
<g id="a_node32"><a xlink:title="bevy_ecs::event::event_update_system&lt;bevy_window::event::WindowBackendScaleFactorChanged&gt;">
<polygon fill="lightgrey" stroke="black" points="490.38,-1456 31.88,-1456 31.88,-1420 490.38,-1420 490.38,-1456"/>
<text text-anchor="middle" x="261.12" y="-1433.33" font-family="Times,serif" font-size="14.00">event_update_system&lt;WindowBackendScaleFactorChanged&gt;</text>
</a>
</g>
</g>
<!-- node_System(31) -->
<g id="node33" class="node">
<title>node_System(31)</title>
<g id="a_node33"><a xlink:title="bevy_ecs::event::event_update_system&lt;bevy_window::event::FileDragAndDrop&gt;">
<polygon fill="lightgrey" stroke="black" points="420.62,-1503 101.62,-1503 101.62,-1467 420.62,-1467 420.62,-1503"/>
<text text-anchor="middle" x="261.12" y="-1480.33" font-family="Times,serif" font-size="14.00">event_update_system&lt;FileDragAndDrop&gt;</text>
</a>
</g>
</g>
<!-- node_System(32) -->
<g id="node34" class="node">
<title>node_System(32)</title>
<g id="a_node34"><a xlink:title="bevy_ecs::event::event_update_system&lt;bevy_window::event::WindowMoved&gt;">
<polygon fill="lightgrey" stroke="black" points="410.5,-1550 111.75,-1550 111.75,-1514 410.5,-1514 410.5,-1550"/>
<text text-anchor="middle" x="261.12" y="-1527.33" font-family="Times,serif" font-size="14.00">event_update_system&lt;WindowMoved&gt;</text>
</a>
</g>
</g>
<!-- node_System(33) -->
<g id="node35" class="node">
<title>node_System(33)</title>
<g id="a_node35"><a xlink:title="bevy_ecs::event::event_update_system&lt;bevy_window::event::WindowThemeChanged&gt;">
<polygon fill="lightgrey" stroke="black" points="442,-1597 80.25,-1597 80.25,-1561 442,-1561 442,-1597"/>
<text text-anchor="middle" x="261.12" y="-1574.33" font-family="Times,serif" font-size="14.00">event_update_system&lt;WindowThemeChanged&gt;</text>
</a>
</g>
</g>
<!-- node_System(34) -->
<g id="node36" class="node">
<title>node_System(34)</title>
<g id="a_node36"><a xlink:title="bevy_ecs::event::event_update_system&lt;bevy_window::event::ApplicationLifetime&gt;">
<polygon fill="lightgrey" stroke="black" points="427.75,-1644 94.5,-1644 94.5,-1608 427.75,-1608 427.75,-1644"/>
<text text-anchor="middle" x="261.12" y="-1621.33" font-family="Times,serif" font-size="14.00">event_update_system&lt;ApplicationLifetime&gt;</text>
</a>
</g>
</g>
<!-- node_System(35) -->
<g id="node37" class="node">
<title>node_System(35)</title>
<g id="a_node37"><a xlink:title="bevy_ecs::event::event_update_system&lt;bevy_asset::event::AssetEvent&lt;bevy_asset::folder::LoadedFolder&gt;&gt;">
<polygon fill="lightgrey" stroke="black" points="459.25,-1691 63,-1691 63,-1655 459.25,-1655 459.25,-1691"/>
<text text-anchor="middle" x="261.12" y="-1668.33" font-family="Times,serif" font-size="14.00">event_update_system&lt;AssetEvent&lt;LoadedFolder&gt;&gt;</text>
</a>
</g>
</g>
<!-- node_System(36) -->
<g id="node38" class="node">
<title>node_System(36)</title>
<g id="a_node38"><a xlink:title="bevy_ecs::event::event_update_system&lt;bevy_asset::event::AssetEvent&lt;bevy_asset::assets::LoadedUntypedAsset&gt;&gt;">
<polygon fill="lightgrey" stroke="black" points="486.62,-1738 35.62,-1738 35.62,-1702 486.62,-1702 486.62,-1738"/>
<text text-anchor="middle" x="261.12" y="-1715.33" font-family="Times,serif" font-size="14.00">event_update_system&lt;AssetEvent&lt;LoadedUntypedAsset&gt;&gt;</text>
</a>
</g>
</g>
<!-- node_System(37) -->
<g id="node39" class="node">
<title>node_System(37)</title>
<g id="a_node39"><a xlink:title="bevy_ecs::event::event_update_system&lt;bevy_asset::event::AssetEvent&lt;()&gt;&gt;">
<polygon fill="lightgrey" stroke="black" points="415.75,-1785 106.5,-1785 106.5,-1749 415.75,-1749 415.75,-1785"/>
<text text-anchor="middle" x="261.12" y="-1762.33" font-family="Times,serif" font-size="14.00">event_update_system&lt;AssetEvent&lt;()&gt;&gt;</text>
</a>
</g>
</g>
<!-- node_System(38) -->
<g id="node40" class="node">
<title>node_System(38)</title>
<g id="a_node40"><a xlink:title="bevy_ecs::event::event_update_system&lt;bevy_asset::event::AssetEvent&lt;bevy_scene::dynamic_scene::DynamicScene&gt;&gt;">
<polygon fill="lightgrey" stroke="black" points="463,-1832 59.25,-1832 59.25,-1796 463,-1796 463,-1832"/>
<text text-anchor="middle" x="261.12" y="-1809.33" font-family="Times,serif" font-size="14.00">event_update_system&lt;AssetEvent&lt;DynamicScene&gt;&gt;</text>
</a>
</g>
</g>
<!-- node_System(39) -->
<g id="node41" class="node">
<title>node_System(39)</title>
<g id="a_node41"><a xlink:title="bevy_ecs::event::event_update_system&lt;bevy_asset::event::AssetEvent&lt;bevy_scene::scene::Scene&gt;&gt;">
<polygon fill="lightgrey" stroke="black" points="431.88,-1879 90.38,-1879 90.38,-1843 431.88,-1843 431.88,-1879"/>
<text text-anchor="middle" x="261.12" y="-1856.33" font-family="Times,serif" font-size="14.00">event_update_system&lt;AssetEvent&lt;Scene&gt;&gt;</text>
</a>
</g>
</g>
<!-- node_System(40) -->
<g id="node42" class="node">
<title>node_System(40)</title>
<g id="a_node42"><a xlink:title="bevy_ecs::event::event_update_system&lt;bevy_scene::scene_spawner::SceneInstanceReady&gt;">
<polygon fill="lightgrey" stroke="black" points="431.88,-1926 90.38,-1926 90.38,-1890 431.88,-1890 431.88,-1926"/>
<text text-anchor="middle" x="261.12" y="-1903.33" font-family="Times,serif" font-size="14.00">event_update_system&lt;SceneInstanceReady&gt;</text>
</a>
</g>
</g>
<!-- node_System(41) -->
<g id="node43" class="node">
<title>node_System(41)</title>
<g id="a_node43"><a xlink:title="bevy_ecs::event::event_update_system&lt;bevy_a11y::ActionRequest&gt;">
<polygon fill="lightgrey" stroke="black" points="409.75,-1973 112.5,-1973 112.5,-1937 409.75,-1937 409.75,-1973"/>
<text text-anchor="middle" x="261.12" y="-1950.33" font-family="Times,serif" font-size="14.00">event_update_system&lt;ActionRequest&gt;</text>
</a>
</g>
</g>
<!-- node_System(42) -->
<g id="node44" class="node">
<title>node_System(42)</title>
<g id="a_node44"><a xlink:title="bevy_ecs::event::event_update_system&lt;bevy_asset::event::AssetEvent&lt;bevy_render::render_resource::shader::Shader&gt;&gt;">
<polygon fill="lightgrey" stroke="black" points="436,-2020 86.25,-2020 86.25,-1984 436,-1984 436,-2020"/>
<text text-anchor="middle" x="261.12" y="-1997.33" font-family="Times,serif" font-size="14.00">event_update_system&lt;AssetEvent&lt;Shader&gt;&gt;</text>
</a>
</g>
</g>
<!-- node_System(43) -->
<g id="node45" class="node">
<title>node_System(43)</title>
<g id="a_node45"><a xlink:title="bevy_ecs::event::event_update_system&lt;bevy_asset::event::AssetEvent&lt;bevy_render::mesh::mesh::Mesh&gt;&gt;">
<polygon fill="lightgrey" stroke="black" points="430,-2067 92.25,-2067 92.25,-2031 430,-2031 430,-2067"/>
<text text-anchor="middle" x="261.12" y="-2044.33" font-family="Times,serif" font-size="14.00">event_update_system&lt;AssetEvent&lt;Mesh&gt;&gt;</text>
</a>
</g>
</g>
<!-- node_System(44) -->
<g id="node46" class="node">
<title>node_System(44)</title>
<g id="a_node46"><a xlink:title="bevy_ecs::event::event_update_system&lt;bevy_asset::event::AssetEvent&lt;bevy_render::mesh::mesh::skinning::SkinnedMeshInverseBindposes&gt;&gt;">
<polygon fill="lightgrey" stroke="black" points="522.25,-2114 0,-2114 0,-2078 522.25,-2078 522.25,-2114"/>
<text text-anchor="middle" x="261.12" y="-2091.32" font-family="Times,serif" font-size="14.00">event_update_system&lt;AssetEvent&lt;SkinnedMeshInverseBindposes&gt;&gt;</text>
</a>
</g>
</g>
<!-- node_System(45) -->
<g id="node47" class="node">
<title>node_System(45)</title>
<g id="a_node47"><a xlink:title="bevy_ecs::event::event_update_system&lt;bevy_asset::event::AssetEvent&lt;bevy_render::texture::image::Image&gt;&gt;">
<polygon fill="lightgrey" stroke="black" points="432.62,-2161 89.62,-2161 89.62,-2125 432.62,-2125 432.62,-2161"/>
<text text-anchor="middle" x="261.12" y="-2138.32" font-family="Times,serif" font-size="14.00">event_update_system&lt;AssetEvent&lt;Image&gt;&gt;</text>
</a>
</g>
</g>
<!-- node_System(46) -->
<g id="node48" class="node">
<title>node_System(46)</title>
<g id="a_node48"><a xlink:title="bevy_ecs::event::event_update_system&lt;bevy_asset::event::AssetEvent&lt;bevy_sprite::texture_atlas::TextureAtlas&gt;&gt;">
<polygon fill="lightgrey" stroke="black" points="455.88,-2208 66.38,-2208 66.38,-2172 455.88,-2172 455.88,-2208"/>
<text text-anchor="middle" x="261.12" y="-2185.32" font-family="Times,serif" font-size="14.00">event_update_system&lt;AssetEvent&lt;TextureAtlas&gt;&gt;</text>
</a>
</g>
</g>
<!-- node_System(47) -->
<g id="node49" class="node">
<title>node_System(47)</title>
<g id="a_node49"><a xlink:title="bevy_ecs::event::event_update_system&lt;bevy_asset::event::AssetEvent&lt;bevy_sprite::mesh2d::color_material::ColorMaterial&gt;&gt;">
<polygon fill="lightgrey" stroke="black" points="460,-2255 62.25,-2255 62.25,-2219 460,-2219 460,-2255"/>
<text text-anchor="middle" x="261.12" y="-2232.32" font-family="Times,serif" font-size="14.00">event_update_system&lt;AssetEvent&lt;ColorMaterial&gt;&gt;</text>
</a>
</g>
</g>
<!-- node_System(48) -->
<g id="node50" class="node">
<title>node_System(48)</title>
<g id="a_node50"><a xlink:title="bevy_ecs::event::event_update_system&lt;bevy_asset::event::AssetEvent&lt;bevy_text::font::Font&gt;&gt;">
<polygon fill="lightgrey" stroke="black" points="426.62,-2302 95.62,-2302 95.62,-2266 426.62,-2266 426.62,-2302"/>
<text text-anchor="middle" x="261.12" y="-2279.32" font-family="Times,serif" font-size="14.00">event_update_system&lt;AssetEvent&lt;Font&gt;&gt;</text>
</a>
</g>
</g>
<!-- node_System(49) -->
<g id="node51" class="node">
<title>node_System(49)</title>
<g id="a_node51"><a xlink:title="bevy_ecs::event::event_update_system&lt;bevy_asset::event::AssetEvent&lt;bevy_pbr::pbr_material::StandardMaterial&gt;&gt;">
<polygon fill="lightgrey" stroke="black" points="473.88,-2349 48.38,-2349 48.38,-2313 473.88,-2313 473.88,-2349"/>
<text text-anchor="middle" x="261.12" y="-2326.32" font-family="Times,serif" font-size="14.00">event_update_system&lt;AssetEvent&lt;StandardMaterial&gt;&gt;</text>
</a>
</g>
</g>
<!-- node_System(50) -->
<g id="node52" class="node">
<title>node_System(50)</title>
<g id="a_node52"><a xlink:title="bevy_ecs::event::event_update_system&lt;bevy_asset::event::AssetEvent&lt;bevy_gltf::Gltf&gt;&gt;">
<polygon fill="lightgrey" stroke="black" points="424,-2396 98.25,-2396 98.25,-2360 424,-2360 424,-2396"/>
<text text-anchor="middle" x="261.12" y="-2373.32" font-family="Times,serif" font-size="14.00">event_update_system&lt;AssetEvent&lt;Gltf&gt;&gt;</text>
</a>
</g>
</g>
<!-- node_System(51) -->
<g id="node53" class="node">
<title>node_System(51)</title>
<g id="a_node53"><a xlink:title="bevy_ecs::event::event_update_system&lt;bevy_asset::event::AssetEvent&lt;bevy_gltf::GltfNode&gt;&gt;">
<polygon fill="lightgrey" stroke="black" points="442.75,-2443 79.5,-2443 79.5,-2407 442.75,-2407 442.75,-2443"/>
<text text-anchor="middle" x="261.12" y="-2420.32" font-family="Times,serif" font-size="14.00">event_update_system&lt;AssetEvent&lt;GltfNode&gt;&gt;</text>
</a>
</g>
</g>
<!-- node_System(52) -->
<g id="node54" class="node">
<title>node_System(52)</title>
<g id="a_node54"><a xlink:title="bevy_ecs::event::event_update_system&lt;bevy_asset::event::AssetEvent&lt;bevy_gltf::GltfPrimitive&gt;&gt;">
<polygon fill="lightgrey" stroke="black" points="457,-2490 65.25,-2490 65.25,-2454 457,-2454 457,-2490"/>
<text text-anchor="middle" x="261.12" y="-2467.32" font-family="Times,serif" font-size="14.00">event_update_system&lt;AssetEvent&lt;GltfPrimitive&gt;&gt;</text>
</a>
</g>
</g>
<!-- node_System(53) -->
<g id="node55" class="node">
<title>node_System(53)</title>
<g id="a_node55"><a xlink:title="bevy_ecs::event::event_update_system&lt;bevy_asset::event::AssetEvent&lt;bevy_gltf::GltfMesh&gt;&gt;">
<polygon fill="lightgrey" stroke="black" points="443.5,-2537 78.75,-2537 78.75,-2501 443.5,-2501 443.5,-2537"/>
<text text-anchor="middle" x="261.12" y="-2514.32" font-family="Times,serif" font-size="14.00">event_update_system&lt;AssetEvent&lt;GltfMesh&gt;&gt;</text>
</a>
</g>
</g>
<!-- node_System(54) -->
<g id="node56" class="node">
<title>node_System(54)</title>
<g id="a_node56"><a xlink:title="bevy_ecs::event::event_update_system&lt;bevy_asset::event::AssetEvent&lt;bevy_audio::audio_source::AudioSource&gt;&gt;">
<polygon fill="lightgrey" stroke="black" points="455.5,-2584 66.75,-2584 66.75,-2548 455.5,-2548 455.5,-2584"/>
<text text-anchor="middle" x="261.12" y="-2561.32" font-family="Times,serif" font-size="14.00">event_update_system&lt;AssetEvent&lt;AudioSource&gt;&gt;</text>
</a>
</g>
</g>
<!-- node_System(55) -->
<g id="node57" class="node">
<title>node_System(55)</title>
<g id="a_node57"><a xlink:title="bevy_ecs::event::event_update_system&lt;bevy_asset::event::AssetEvent&lt;bevy_audio::pitch::Pitch&gt;&gt;">
<polygon fill="lightgrey" stroke="black" points="428.88,-2631 93.38,-2631 93.38,-2595 428.88,-2595 428.88,-2631"/>
<text text-anchor="middle" x="261.12" y="-2608.32" font-family="Times,serif" font-size="14.00">event_update_system&lt;AssetEvent&lt;Pitch&gt;&gt;</text>
</a>
</g>
</g>
<!-- node_System(56) -->
<g id="node58" class="node">
<title>node_System(56)</title>
<g id="a_node58"><a xlink:title="bevy_ecs::event::event_update_system&lt;bevy_asset::event::AssetEvent&lt;bevy_animation::AnimationClip&gt;&gt;">
<polygon fill="lightgrey" stroke="black" points="461.12,-2678 61.12,-2678 61.12,-2642 461.12,-2642 461.12,-2678"/>
<text text-anchor="middle" x="261.12" y="-2655.32" font-family="Times,serif" font-size="14.00">event_update_system&lt;AssetEvent&lt;AnimationClip&gt;&gt;</text>
</a>
</g>
</g>
<!-- node_System(57) -->
<g id="node59" class="node">
<title>node_System(57)</title>
<g id="a_node59"><a xlink:title="bevy_ecs::event::event_update_system&lt;bevy_asset::event::AssetEvent&lt;bevy_gizmos::LineGizmo&gt;&gt;">
<polygon fill="lightgrey" stroke="black" points="448.38,-2725 73.88,-2725 73.88,-2689 448.38,-2689 448.38,-2725"/>
<text text-anchor="middle" x="261.12" y="-2702.32" font-family="Times,serif" font-size="14.00">event_update_system&lt;AssetEvent&lt;LineGizmo&gt;&gt;</text>
</a>
</g>
</g>
</g>
</svg>
