<?xml version="1.0" encoding="UTF-8" standalone="no"?>
<!DOCTYPE svg PUBLIC "-//W3C//DTD SVG 1.1//EN"
 "http://www.w3.org/Graphics/SVG/1.1/DTD/svg11.dtd">
<!-- Generated by graphviz version 9.0.0 (0)
 -->
<!-- Pages: 1 -->
<svg width="1119pt" height="349pt"
 viewBox="0.00 0.00 1118.50 349.00" xmlns="http://www.w3.org/2000/svg" xmlns:xlink="http://www.w3.org/1999/xlink">
<g id="graph0" class="graph" transform="scale(1 1) rotate(0) translate(4 345)">
<polygon fill="white" stroke="none" points="-4,4 -4,-345 1114.5,-345 1114.5,4 -4,4"/>
<g id="clust1" class="cluster">
<title>clusternode_Set(1)</title>
<g id="a_clust1"><a xlink:title="InputSystem">
<path fill="#000000" fill-opacity="0.031373" stroke="#000000" stroke-width="2" stroke-opacity="0.250980" d="M354.5,-104C354.5,-104 1090.5,-104 1090.5,-104 1096.5,-104 1102.5,-110 1102.5,-116 1102.5,-116 1102.5,-321 1102.5,-321 1102.5,-327 1096.5,-333 1090.5,-333 1090.5,-333 354.5,-333 354.5,-333 348.5,-333 342.5,-327 342.5,-321 342.5,-321 342.5,-116 342.5,-116 342.5,-110 348.5,-104 354.5,-104"/>
<text text-anchor="middle" x="722.5" y="-315.7" font-family="Helvetica,sans-Serif" font-size="14.00" fill="#000000">InputSystem</text>
</a>
</g>
</g>
<g id="clust2" class="cluster">
<title>clusternode_Set(9)</title>
<g id="a_clust2"><a xlink:title="Focus">
<path fill="#000000" fill-opacity="0.031373" stroke="#000000" stroke-width="2" stroke-opacity="0.250980" d="M650.62,-8C650.62,-8 772.62,-8 772.62,-8 778.62,-8 784.62,-14 784.62,-20 784.62,-20 784.62,-84 784.62,-84 784.62,-90 778.62,-96 772.62,-96 772.62,-96 650.62,-96 650.62,-96 644.62,-96 638.62,-90 638.62,-84 638.62,-84 638.62,-20 638.62,-20 638.62,-14 644.62,-8 650.62,-8"/>
<text text-anchor="middle" x="711.62" y="-78.7" font-family="Helvetica,sans-Serif" font-size="14.00" fill="#000000">Focus</text>
</a>
</g>
</g>
<!-- set_marker_node_Set(1) -->
<!-- node_System(7) -->
<g id="node10" class="node">
<title>node_System(7)</title>
<g id="a_node10"><a xlink:title="bevy_ui::focus::ui_focus_system">
<polygon fill="#ffb1e5" stroke="#ff4bc2" points="776.62,-52 646.62,-52 646.62,-16 776.62,-16 776.62,-52"/>
<text text-anchor="middle" x="711.62" y="-29.32" font-family="Helvetica,sans-Serif" font-size="14.00" fill="#320021">ui_focus_system</text>
</a>
</g>
</g>
<!-- set_marker_node_Set(1)&#45;&gt;node_System(7) -->
<g id="edge6" class="edge">
<title>set_marker_node_Set(1)&#45;&gt;node_System(7)</title>
<g id="a_edge6"><a xlink:title="InputSystem → ui_focus_system">
<path fill="none" stroke="#0090cc" stroke-width="2" d="M458.94,-159.01C461.59,-159.25 546.48,-166.81 584.06,-104 584.16,-87.73 584.65,-71.26 601.25,-57"/>
<polygon fill="#0090cc" stroke="#0090cc" stroke-width="2" points="635.74,-45.25 643.41,-37.94 632.85,-38.87 635.74,-45.25"/>
</a>
</g>
</g>
<!-- node_System(0) -->
<g id="node2" class="node">
<title>node_System(0)</title>
<g id="a_node2"><a xlink:title="bevy_input::keyboard::keyboard_input_system">
<polygon fill="#d36aaf" stroke="#a5317d" points="547.62,-253 368.12,-253 368.12,-217 547.62,-217 547.62,-253"/>
<text text-anchor="middle" x="457.88" y="-230.32" font-family="Helvetica,sans-Serif" font-size="14.00" fill="#270b1d">keyboard_input_system</text>
</a>
</g>
</g>
<!-- node_System(1) -->
<g id="node3" class="node">
<title>node_System(1)</title>
<g id="a_node3"><a xlink:title="bevy_input::mouse::mouse_button_input_system">
<polygon fill="#d36aaf" stroke="#a5317d" points="565.25,-206 350.5,-206 350.5,-170 565.25,-170 565.25,-206"/>
<text text-anchor="middle" x="457.88" y="-183.32" font-family="Helvetica,sans-Serif" font-size="14.00" fill="#270b1d">mouse_button_input_system</text>
</a>
</g>
</g>
<!-- node_System(2) -->
<g id="node4" class="node">
<title>node_System(2)</title>
<g id="a_node4"><a xlink:title="bevy_input::gamepad::gamepad_event_system">
<polygon fill="#d36aaf" stroke="#a5317d" points="549.88,-300 365.88,-300 365.88,-264 549.88,-264 549.88,-300"/>
<text text-anchor="middle" x="457.88" y="-277.32" font-family="Helvetica,sans-Serif" font-size="14.00" fill="#270b1d">gamepad_event_system</text>
</a>
</g>
</g>
<!-- node_System(3) -->
<g id="node5" class="node">
<title>node_System(3)</title>
<g id="a_node5"><a xlink:title="bevy_input::gamepad::gamepad_connection_system">
<polygon fill="#d36aaf" stroke="#a5317d" points="822,-283 601.25,-283 601.25,-247 822,-247 822,-283"/>
<text text-anchor="middle" x="711.62" y="-260.32" font-family="Helvetica,sans-Serif" font-size="14.00" fill="#270b1d">gamepad_connection_system</text>
</a>
</g>
</g>
<!-- node_System(2)&#45;&gt;node_System(3) -->
<g id="edge1" class="edge">
<title>node_System(2)&#45;&gt;node_System(3)</title>
<g id="a_edge1"><a xlink:title="SystemTypeSet(gamepad_event_system()) → gamepad_connection_system">
<path fill="none" stroke="#eede00" stroke-width="2" d="M550.12,-275.84C562.47,-275 575.3,-274.14 588.08,-273.28"/>
<polygon fill="#eede00" stroke="#eede00" stroke-width="2" points="588.07,-276.78 597.81,-272.62 587.6,-269.8 588.07,-276.78"/>
</a>
</g>
</g>
<!-- node_System(4) -->
<g id="node6" class="node">
<title>node_System(4)</title>
<g id="a_node6"><a xlink:title="bevy_input::gamepad::gamepad_button_event_system">
<polygon fill="#d36aaf" stroke="#a5317d" points="1094.5,-253 858,-253 858,-217 1094.5,-217 1094.5,-253"/>
<text text-anchor="middle" x="976.25" y="-230.32" font-family="Helvetica,sans-Serif" font-size="14.00" fill="#270b1d">gamepad_button_event_system</text>
</a>
</g>
</g>
<!-- node_System(2)&#45;&gt;node_System(4) -->
<g id="edge2" class="edge">
<title>node_System(2)&#45;&gt;node_System(4)</title>
<g id="a_edge2"><a xlink:title="SystemTypeSet(gamepad_event_system()) → gamepad_button_event_system">
<path fill="none" stroke="#881877" stroke-width="2" d="M550.35,-263.65C555.42,-262.19 560.42,-260.64 565.25,-259 582.01,-253.32 584.02,-246.03 601.25,-242 680.73,-223.39 772.34,-221.37 844.99,-224.13"/>
<polygon fill="#881877" stroke="#881877" stroke-width="2" points="844.7,-227.62 854.84,-224.55 845,-220.63 844.7,-227.62"/>
</a>
</g>
</g>
<!-- node_System(5) -->
<g id="node7" class="node">
<title>node_System(5)</title>
<g id="a_node7"><a xlink:title="bevy_input::gamepad::gamepad_axis_event_system">
<polygon fill="#d36aaf" stroke="#a5317d" points="1085.5,-300 867,-300 867,-264 1085.5,-264 1085.5,-300"/>
<text text-anchor="middle" x="976.25" y="-277.32" font-family="Helvetica,sans-Serif" font-size="14.00" fill="#270b1d">gamepad_axis_event_system</text>
</a>
</g>
</g>
<!-- node_System(2)&#45;&gt;node_System(5) -->
<g id="edge4" class="edge">
<title>node_System(2)&#45;&gt;node_System(5)</title>
<g id="a_edge4"><a xlink:title="SystemTypeSet(gamepad_event_system()) → gamepad_axis_event_system">
<path fill="none" stroke="#aa3a55" stroke-width="2" d="M550.37,-287.16C567.29,-287.93 584.8,-288.6 601.25,-289 699.33,-291.41 723.91,-291.24 822,-289 832.43,-288.76 843.26,-288.43 854.11,-288.05"/>
<polygon fill="#aa3a55" stroke="#aa3a55" stroke-width="2" points="853.96,-291.55 863.83,-287.68 853.7,-284.56 853.96,-291.55"/>
</a>
</g>
</g>
<!-- node_System(3)&#45;&gt;node_System(4) -->
<g id="edge3" class="edge">
<title>node_System(3)&#45;&gt;node_System(4)</title>
<g id="a_edge3"><a xlink:title="SystemTypeSet(gamepad_connection_system()) → gamepad_button_event_system">
<path fill="none" stroke="#00b0cc" stroke-width="2" d="M822.48,-252.45C829.95,-251.6 837.52,-250.73 845.09,-249.87"/>
<polygon fill="#00b0cc" stroke="#00b0cc" stroke-width="2" points="845.25,-253.37 854.79,-248.76 844.45,-246.42 845.25,-253.37"/>
</a>
</g>
</g>
<!-- node_System(3)&#45;&gt;node_System(5) -->
<g id="edge5" class="edge">
<title>node_System(3)&#45;&gt;node_System(5)</title>
<g id="a_edge5"><a xlink:title="SystemTypeSet(gamepad_connection_system()) → gamepad_axis_event_system">
<path fill="none" stroke="#44d488" stroke-width="2" d="M822.48,-272.11C832.87,-272.78 843.45,-273.47 853.94,-274.15"/>
<polygon fill="#44d488" stroke="#44d488" stroke-width="2" points="853.45,-277.62 863.66,-274.78 853.9,-270.64 853.45,-277.62"/>
</a>
</g>
</g>
<!-- node_System(6) -->
<g id="node8" class="node">
<title>node_System(6)</title>
<g id="a_node8"><a xlink:title="bevy_input::touch::touch_screen_input_system">
<polygon fill="#d36aaf" stroke="#a5317d" points="561.5,-148 354.25,-148 354.25,-112 561.5,-112 561.5,-148"/>
<text text-anchor="middle" x="457.88" y="-125.33" font-family="Helvetica,sans-Serif" font-size="14.00" fill="#270b1d">touch_screen_input_system</text>
</a>
</g>
</g>
<!-- set_marker_node_Set(9) -->
<!-- node_System(8) -->
<g id="node11" class="node">
<title>node_System(8)</title>
<g id="a_node11"><a xlink:title="bevy_pbr::prepass::update_mesh_previous_global_transforms">
<polygon fill="lightgrey" stroke="black" points="314.5,-224 0,-224 0,-188 314.5,-188 314.5,-224"/>
<text text-anchor="middle" x="157.25" y="-201.32" font-family="Times,serif" font-size="14.00">update_mesh_previous_global_transforms</text>
</a>
</g>
</g>
<!-- node_System(9) -->
<g id="node12" class="node">
<title>node_System(9)</title>
<g id="a_node12"><a xlink:title="bevy_pbr::prepass::update_previous_view_projections">
<polygon fill="lightgrey" stroke="black" points="287.12,-271 27.38,-271 27.38,-235 287.12,-235 287.12,-271"/>
<text text-anchor="middle" x="157.25" y="-248.32" font-family="Times,serif" font-size="14.00">update_previous_view_projections</text>
</a>
</g>
</g>
<!-- node_System(10) -->
<g id="node13" class="node">
<title>node_System(10)</title>
<g id="a_node13"><a xlink:title="bevy_gilrs::gilrs_system::gilrs_event_system">
<polygon fill="lightgrey" stroke="black" points="233.5,-177 81,-177 81,-141 233.5,-141 233.5,-177"/>
<text text-anchor="middle" x="157.25" y="-154.32" font-family="Times,serif" font-size="14.00">gilrs_event_system</text>
</a>
</g>
</g>
<!-- node_System(10)&#45;&gt;set_marker_node_Set(1) -->
<g id="edge7" class="edge">
<title>node_System(10)&#45;&gt;set_marker_node_Set(1)</title>
<g id="a_edge7"><a xlink:title="gilrs_event_system → InputSystem">
<path fill="none" stroke="#ee9e44" stroke-width="2" d="M233.99,-159C263.04,-159 297.05,-159 329.62,-159"/>
<polygon fill="#ee9e44" stroke="#ee9e44" stroke-width="2" points="329.47,-162.5 339.47,-159 329.47,-155.5 329.47,-162.5"/>
</a>
</g>
</g>
</g>
</svg>
