<?xml version="1.0" encoding="UTF-8" standalone="no"?>
<!DOCTYPE svg PUBLIC "-//W3C//DTD SVG 1.1//EN"
 "http://www.w3.org/Graphics/SVG/1.1/DTD/svg11.dtd">
<!-- Generated by graphviz version 13.1.2 (20250808.2320)
 -->
<!-- Pages: 1 -->
<svg width="1217pt" height="869pt"
 viewBox="0.00 0.00 1217.00 869.00" xmlns="http://www.w3.org/2000/svg" xmlns:xlink="http://www.w3.org/1999/xlink">
<g id="graph0" class="graph" transform="scale(1 1) rotate(0) translate(4 865)">
<polygon fill="white" stroke="none" points="-4,4 -4,-865 1213.25,-865 1213.25,4 -4,4"/>
<g id="clust1" class="cluster">
<title>clusternode_Set(SystemSetKey(4v1))</title>
<g id="a_clust1"><a xlink:title="ValidateParentHasComponentSystems">
<path fill="#000000" fill-opacity="0.031373" stroke="#000000" stroke-width="2" stroke-opacity="0.250980" d="M42.25,-8C42.25,-8 354,-8 354,-8 360,-8 366,-14 366,-20 366,-20 366,-134 366,-134 366,-140 360,-146 354,-146 354,-146 42.25,-146 42.25,-146 36.25,-146 30.25,-140 30.25,-134 30.25,-134 30.25,-20 30.25,-20 30.25,-14 36.25,-8 42.25,-8"/>
<text xml:space="preserve" text-anchor="middle" x="198.12" y="-128.7" font-family="Helvetica,sans-Serif" font-size="14.00" fill="#000000">ValidateParentHasComponentSystems</text>
</a>
</g>
</g>
<g id="clust2" class="cluster">
<title>clusternode_Set(SystemSetKey(6v1))</title>
<g id="a_clust2"><a xlink:title="ExitSystems">
<path fill="#000000" fill-opacity="0.031373" stroke="#000000" stroke-width="2" stroke-opacity="0.250980" d="M582.5,-162C582.5,-162 701.5,-162 701.5,-162 707.5,-162 713.5,-168 713.5,-174 713.5,-174 713.5,-241 713.5,-241 713.5,-247 707.5,-253 701.5,-253 701.5,-253 582.5,-253 582.5,-253 576.5,-253 570.5,-247 570.5,-241 570.5,-241 570.5,-174 570.5,-174 570.5,-168 576.5,-162 582.5,-162"/>
<text xml:space="preserve" text-anchor="middle" x="642" y="-235.7" font-family="Helvetica,sans-Serif" font-size="14.00" fill="#000000">ExitSystems</text>
</a>
</g>
</g>
<g id="clust3" class="cluster">
<title>clusternode_Set(SystemSetKey(15v1))</title>
<g id="a_clust3"><a xlink:title="GizmoMeshSystems">
<path fill="#000000" fill-opacity="0.031373" stroke="#000000" stroke-width="2" stroke-opacity="0.250980" d="M436.25,-433C436.25,-433 847.75,-433 847.75,-433 853.75,-433 859.75,-439 859.75,-445 859.75,-445 859.75,-700 859.75,-700 859.75,-706 853.75,-712 847.75,-712 847.75,-712 436.25,-712 436.25,-712 430.25,-712 424.25,-706 424.25,-700 424.25,-700 424.25,-445 424.25,-445 424.25,-439 430.25,-433 436.25,-433"/>
<text xml:space="preserve" text-anchor="middle" x="642" y="-694.7" font-family="Helvetica,sans-Serif" font-size="14.00" fill="#000000">GizmoMeshSystems</text>
</a>
</g>
</g>
<!-- set_marker_node_Set(SystemSetKey(4v1)) -->
<!-- node_System(SystemKey(3v1)) -->
<g id="node2" class="node">
<title>node_System(SystemKey(3v1))</title>
<g id="a_node2"><a xlink:title="bevy_app::hierarchy::check_parent_has_component&lt;bevy_transform::components::global_transform::GlobalTransform&gt;">
<polygon fill="#639d18" stroke="#98e03a" points="358,-67 38.25,-67 38.25,-31 358,-31 358,-67"/>
<text xml:space="preserve" text-anchor="middle" x="198.12" y="-43.58" font-family="Helvetica,sans-Serif" font-size="14.00" fill="#e7f8d2">check_parent_has_component&lt;GlobalTransform&gt;</text>
</a>
</g>
</g>
<!-- node_System(SystemKey(11v1)) -->
<g id="node3" class="node">
<title>node_System(SystemKey(11v1))</title>
<g id="a_node3"><a xlink:title="bevy_app::hierarchy::check_parent_has_component&lt;bevy_camera::visibility::InheritedVisibility&gt;">
<polygon fill="#639d18" stroke="#98e03a" points="357.62,-114 38.62,-114 38.62,-78 357.62,-78 357.62,-114"/>
<text xml:space="preserve" text-anchor="middle" x="198.12" y="-90.58" font-family="Helvetica,sans-Serif" font-size="14.00" fill="#e7f8d2">check_parent_has_component&lt;InheritedVisibility&gt;</text>
</a>
</g>
</g>
<!-- set_marker_node_Set(SystemSetKey(6v1)) -->
<!-- node_System(SystemKey(8v1)) -->
<g id="node17" class="node">
<title>node_System(SystemKey(8v1))</title>
<g id="a_node17"><a xlink:title="bevy_winit::system::despawn_windows">
<polygon fill="lightgrey" stroke="black" points="1006.5,-243 887.75,-243 887.75,-207 1006.5,-207 1006.5,-243"/>
<text xml:space="preserve" text-anchor="middle" x="947.12" y="-219.95" font-family="Times,serif" font-size="14.00">despawn_windows</text>
</a>
</g>
</g>
<!-- set_marker_node_Set(SystemSetKey(6v1))&#45;&gt;node_System(SystemKey(8v1)) -->
<g id="edge7" class="edge">
<title>set_marker_node_Set(SystemSetKey(6v1))&#45;&gt;node_System(SystemKey(8v1))</title>
<g id="a_edge7"><a xlink:title="ExitSystems → despawn_windows">
<path fill="none" stroke="#ee9e44" stroke-width="2" d="M713.5,-166.28C756.47,-164.75 812.1,-166.28 859.75,-179 876.59,-183.49 893.8,-191.77 908.38,-200.08"/>
<polygon fill="#ee9e44" stroke="#ee9e44" stroke-width="2" points="906.48,-203.02 916.86,-205.13 910.06,-197 906.48,-203.02"/>
</a>
</g>
</g>
<!-- node_System(SystemKey(4v1)) -->
<g id="node5" class="node">
<title>node_System(SystemKey(4v1))</title>
<g id="a_node5"><a xlink:title="bevy_window::system::exit_on_all_closed">
<polygon fill="#bb85d4" stroke="#8e3fb3" points="705.5,-221 578.5,-221 578.5,-185 705.5,-185 705.5,-221"/>
<text xml:space="preserve" text-anchor="middle" x="642" y="-197.57" font-family="Helvetica,sans-Serif" font-size="14.00" fill="#1d0d25">exit_on_all_closed</text>
</a>
</g>
</g>
<!-- set_marker_node_Set(SystemSetKey(15v1)) -->
<!-- node_System(SystemKey(13v1)) -->
<g id="node7" class="node">
<title>node_System(SystemKey(13v1))</title>
<g id="a_node7"><a xlink:title="bevy_gizmos::update_gizmo_meshes&lt;bevy_light::gizmos::LightGizmoConfigGroup&gt;">
<polygon fill="#eff1f3" stroke="#b4bec7" points="802.25,-492 481.75,-492 481.75,-456 802.25,-456 802.25,-492"/>
<text xml:space="preserve" text-anchor="middle" x="642" y="-468.57" font-family="Helvetica,sans-Serif" font-size="14.00" fill="#15191d">update_gizmo_meshes&lt;LightGizmoConfigGroup&gt;</text>
</a>
</g>
</g>
<!-- node_System(SystemKey(16v1)) -->
<g id="node8" class="node">
<title>node_System(SystemKey(16v1))</title>
<g id="a_node8"><a xlink:title="bevy_gizmos::update_gizmo_meshes&lt;bevy_gizmos::config::DefaultGizmoConfigGroup&gt;">
<polygon fill="#eff1f3" stroke="#b4bec7" points="809,-539 475,-539 475,-503 809,-503 809,-539"/>
<text xml:space="preserve" text-anchor="middle" x="642" y="-515.58" font-family="Helvetica,sans-Serif" font-size="14.00" fill="#15191d">update_gizmo_meshes&lt;DefaultGizmoConfigGroup&gt;</text>
</a>
</g>
</g>
<!-- node_System(SystemKey(18v1)) -->
<g id="node9" class="node">
<title>node_System(SystemKey(18v1))</title>
<g id="a_node9"><a xlink:title="bevy_gizmos::update_gizmo_meshes&lt;bevy_gizmos::aabb::AabbGizmoConfigGroup&gt;">
<polygon fill="#eff1f3" stroke="#b4bec7" points="803.38,-586 480.62,-586 480.62,-550 803.38,-550 803.38,-586"/>
<text xml:space="preserve" text-anchor="middle" x="642" y="-562.58" font-family="Helvetica,sans-Serif" font-size="14.00" fill="#15191d">update_gizmo_meshes&lt;AabbGizmoConfigGroup&gt;</text>
</a>
</g>
</g>
<!-- node_System(SystemKey(20v1)) -->
<g id="node10" class="node">
<title>node_System(SystemKey(20v1))</title>
<g id="a_node10"><a xlink:title="bevy_gizmos::update_gizmo_meshes&lt;bevy_gizmos::frustum::FrustumGizmoConfigGroup&gt;">
<polygon fill="#eff1f3" stroke="#b4bec7" points="812.75,-633 471.25,-633 471.25,-597 812.75,-597 812.75,-633"/>
<text xml:space="preserve" text-anchor="middle" x="642" y="-609.58" font-family="Helvetica,sans-Serif" font-size="14.00" fill="#15191d">update_gizmo_meshes&lt;FrustumGizmoConfigGroup&gt;</text>
</a>
</g>
</g>
<!-- node_System(SystemKey(23v1)) -->
<g id="node11" class="node">
<title>node_System(SystemKey(23v1))</title>
<g id="a_node11"><a xlink:title="bevy_gizmos::update_gizmo_meshes&lt;bevy_gizmos::skinned_mesh_bounds::SkinnedMeshBoundsGizmoConfigGroup&gt;">
<polygon fill="#eff1f3" stroke="#b4bec7" points="851.75,-680 432.25,-680 432.25,-644 851.75,-644 851.75,-680"/>
<text xml:space="preserve" text-anchor="middle" x="642" y="-656.58" font-family="Helvetica,sans-Serif" font-size="14.00" fill="#15191d">update_gizmo_meshes&lt;SkinnedMeshBoundsGizmoConfigGroup&gt;</text>
</a>
</g>
</g>
<!-- node_System(SystemKey(1v1)) -->
<g id="node12" class="node">
<title>node_System(SystemKey(1v1))</title>
<g id="a_node12"><a xlink:title="bevy_app::task_pool_plugin::tick_global_task_pools">
<polygon fill="lightgrey" stroke="black" points="268.75,-626 127.5,-626 127.5,-590 268.75,-590 268.75,-626"/>
<text xml:space="preserve" text-anchor="middle" x="198.12" y="-602.95" font-family="Times,serif" font-size="14.00">tick_global_task_pools</text>
</a>
</g>
</g>
<!-- node_System(SystemKey(2v1)) -->
<g id="node13" class="node">
<title>node_System(SystemKey(2v1))</title>
<g id="a_node13"><a xlink:title="bevy_diagnostic::frame_count::update_frame_count">
<polygon fill="lightgrey" stroke="black" points="262,-673 134.25,-673 134.25,-637 262,-637 262,-673"/>
<text xml:space="preserve" text-anchor="middle" x="198.12" y="-649.95" font-family="Times,serif" font-size="14.00">update_frame_count</text>
</a>
</g>
</g>
<!-- node_System(SystemKey(5v1)) -->
<g id="node14" class="node">
<title>node_System(SystemKey(5v1))</title>
<g id="a_node14"><a xlink:title="bevy_window::system::close_when_requested">
<polygon fill="lightgrey" stroke="black" points="267.25,-190 129,-190 129,-154 267.25,-154 267.25,-190"/>
<text xml:space="preserve" text-anchor="middle" x="198.12" y="-166.95" font-family="Times,serif" font-size="14.00">close_when_requested</text>
</a>
</g>
</g>
<!-- node_System(SystemKey(5v1))&#45;&gt;set_marker_node_Set(SystemSetKey(6v1)) -->
<g id="edge2" class="edge">
<title>node_System(SystemKey(5v1))&#45;&gt;set_marker_node_Set(SystemSetKey(6v1))</title>
<g id="a_edge2"><a xlink:title="close_when_requested → ExitSystems">
<path fill="none" stroke="#881877" stroke-width="2" d="M267.68,-172C345.9,-172 473.79,-172 557.69,-172"/>
<polygon fill="#881877" stroke="#881877" stroke-width="2" points="557.47,-175.5 567.47,-172 557.47,-168.5 557.47,-175.5"/>
</a>
</g>
</g>
<!-- node_System(SystemKey(6v1)) -->
<g id="node15" class="node">
<title>node_System(SystemKey(6v1))</title>
<g id="a_node15"><a xlink:title="bevy_winit::system::changed_windows">
<polygon fill="lightgrey" stroke="black" points="256.38,-297 139.88,-297 139.88,-261 256.38,-261 256.38,-297"/>
<text xml:space="preserve" text-anchor="middle" x="198.12" y="-273.95" font-family="Times,serif" font-size="14.00">changed_windows</text>
</a>
</g>
</g>
<!-- node_System(SystemKey(7v1)) -->
<g id="node16" class="node">
<title>node_System(SystemKey(7v1))</title>
<g id="a_node16"><a xlink:title="bevy_winit::system::changed_cursor_options">
<polygon fill="lightgrey" stroke="black" points="716,-297 568,-297 568,-261 716,-261 716,-297"/>
<text xml:space="preserve" text-anchor="middle" x="642" y="-273.95" font-family="Times,serif" font-size="14.00">changed_cursor_options</text>
</a>
</g>
</g>
<!-- node_System(SystemKey(6v1))&#45;&gt;node_System(SystemKey(7v1)) -->
<g id="edge5" class="edge">
<title>node_System(SystemKey(6v1))&#45;&gt;node_System(SystemKey(7v1))</title>
<g id="a_edge5"><a xlink:title="changed_windows → changed_cursor_options">
<path fill="none" stroke="#44d488" stroke-width="2" d="M256.44,-279C332.26,-279 466.56,-279 554.69,-279"/>
<polygon fill="#44d488" stroke="#44d488" stroke-width="2" points="554.58,-282.5 564.58,-279 554.58,-275.5 554.58,-282.5"/>
</a>
</g>
</g>
<!-- node_System(SystemKey(7v1))&#45;&gt;node_System(SystemKey(8v1)) -->
<g id="edge6" class="edge">
<title>node_System(SystemKey(7v1))&#45;&gt;node_System(SystemKey(8v1))</title>
<g id="a_edge6"><a xlink:title="changed_cursor_options → despawn_windows">
<path fill="none" stroke="#0090cc" stroke-width="2" d="M716.42,-274.97C758.72,-271.64 812.67,-265.64 859.75,-255 868.69,-252.98 878,-250.34 887.04,-247.47"/>
<polygon fill="#0090cc" stroke="#0090cc" stroke-width="2" points="887.9,-250.88 896.29,-244.4 885.69,-244.23 887.9,-250.88"/>
</a>
</g>
</g>
<!-- node_System(SystemKey(9v1)) -->
<g id="node18" class="node">
<title>node_System(SystemKey(9v1))</title>
<g id="a_node18"><a xlink:title="bevy_winit::system::check_keyboard_focus_lost">
<polygon fill="lightgrey" stroke="black" points="1209.25,-243 1042.5,-243 1042.5,-207 1209.25,-207 1209.25,-243"/>
<text xml:space="preserve" text-anchor="middle" x="1125.88" y="-219.95" font-family="Times,serif" font-size="14.00">check_keyboard_focus_lost</text>
</a>
</g>
</g>
<!-- node_System(SystemKey(8v1))&#45;&gt;node_System(SystemKey(9v1)) -->
<g id="edge8" class="edge">
<title>node_System(SystemKey(8v1))&#45;&gt;node_System(SystemKey(9v1))</title>
<g id="a_edge8"><a xlink:title="despawn_windows → check_keyboard_focus_lost">
<path fill="none" stroke="#663699" stroke-width="2" d="M1006.98,-225C1014.19,-225 1021.69,-225 1029.26,-225"/>
<polygon fill="#663699" stroke="#663699" stroke-width="2" points="1029,-228.5 1039,-225 1029,-221.5 1029,-228.5"/>
</a>
</g>
</g>
<!-- node_System(SystemKey(10v1)) -->
<g id="node19" class="node">
<title>node_System(SystemKey(10v1))</title>
<g id="a_node19"><a xlink:title="bevy_winit::cursor::update_cursors">
<polygon fill="lightgrey" stroke="black" points="247,-720 149.25,-720 149.25,-684 247,-684 247,-720"/>
<text xml:space="preserve" text-anchor="middle" x="198.12" y="-696.95" font-family="Times,serif" font-size="14.00">update_cursors</text>
</a>
</g>
</g>
<!-- node_System(SystemKey(12v1)) -->
<g id="node20" class="node">
<title>node_System(SystemKey(12v1))</title>
<g id="a_node20"><a xlink:title="bevy_gizmos::propagate_gizmos&lt;bevy_light::gizmos::LightGizmoConfigGroup, bevy_time::fixed::Fixed&gt;">
<polygon fill="lightgrey" stroke="black" points="352.75,-579 43.5,-579 43.5,-543 352.75,-543 352.75,-579"/>
<text xml:space="preserve" text-anchor="middle" x="198.12" y="-555.95" font-family="Times,serif" font-size="14.00">propagate_gizmos&lt;LightGizmoConfigGroup, Fixed&gt;</text>
</a>
</g>
</g>
<!-- node_System(SystemKey(12v1))&#45;&gt;set_marker_node_Set(SystemSetKey(15v1)) -->
<g id="edge4" class="edge">
<title>node_System(SystemKey(12v1))&#45;&gt;set_marker_node_Set(SystemSetKey(15v1))</title>
<g id="a_edge4"><a xlink:title="propagate_gizmos&lt;LightGizmoConfigGroup, Fixed&gt; → GizmoMeshSystems">
<path fill="none" stroke="#aa3a55" stroke-width="2" d="M353.24,-560.76C368.87,-555.72 383.6,-548.39 396.25,-538 423.83,-515.34 399.55,-484.25 415.24,-460.4"/>
<polygon fill="#aa3a55" stroke="#aa3a55" stroke-width="2" points="417.77,-462.83 422.16,-453.19 412.71,-457.99 417.77,-462.83"/>
</a>
</g>
</g>
<!-- node_System(SystemKey(14v1)) -->
<g id="node21" class="node">
<title>node_System(SystemKey(14v1))</title>
<g id="a_node21"><a xlink:title="bevy_text::pipeline::trim_source_cache">
<polygon fill="lightgrey" stroke="black" points="257.5,-767 138.75,-767 138.75,-731 257.5,-731 257.5,-767"/>
<text xml:space="preserve" text-anchor="middle" x="198.12" y="-743.95" font-family="Times,serif" font-size="14.00">trim_source_cache</text>
</a>
</g>
</g>
<!-- node_System(SystemKey(15v1)) -->
<g id="node22" class="node">
<title>node_System(SystemKey(15v1))</title>
<g id="a_node22"><a xlink:title="bevy_gizmos::propagate_gizmos&lt;bevy_gizmos::config::DefaultGizmoConfigGroup, bevy_time::fixed::Fixed&gt;">
<polygon fill="lightgrey" stroke="black" points="358.38,-532 37.88,-532 37.88,-496 358.38,-496 358.38,-532"/>
<text xml:space="preserve" text-anchor="middle" x="198.12" y="-508.95" font-family="Times,serif" font-size="14.00">propagate_gizmos&lt;DefaultGizmoConfigGroup, Fixed&gt;</text>
</a>
</g>
</g>
<!-- node_System(SystemKey(15v1))&#45;&gt;set_marker_node_Set(SystemSetKey(15v1)) -->
<g id="edge3" class="edge">
<title>node_System(SystemKey(15v1))&#45;&gt;set_marker_node_Set(SystemSetKey(15v1))</title>
<g id="a_edge3"><a xlink:title="propagate_gizmos&lt;DefaultGizmoConfigGroup, Fixed&gt; → GizmoMeshSystems">
<path fill="none" stroke="#00b0cc" stroke-width="2" d="M358.8,-507.36C371.95,-503.28 384.64,-497.93 396.25,-491 410.37,-482.57 408.22,-469.9 414.65,-459.75"/>
<polygon fill="#00b0cc" stroke="#00b0cc" stroke-width="2" points="416.98,-462.36 422.01,-453.04 412.26,-457.19 416.98,-462.36"/>
</a>
</g>
</g>
<!-- node_System(SystemKey(17v1)) -->
<g id="node23" class="node">
<title>node_System(SystemKey(17v1))</title>
<g id="a_node23"><a xlink:title="bevy_gizmos::propagate_gizmos&lt;bevy_gizmos::aabb::AabbGizmoConfigGroup, bevy_time::fixed::Fixed&gt;">
<polygon fill="lightgrey" stroke="black" points="352.75,-485 43.5,-485 43.5,-449 352.75,-449 352.75,-485"/>
<text xml:space="preserve" text-anchor="middle" x="198.12" y="-461.95" font-family="Times,serif" font-size="14.00">propagate_gizmos&lt;AabbGizmoConfigGroup, Fixed&gt;</text>
</a>
</g>
</g>
<!-- node_System(SystemKey(17v1))&#45;&gt;set_marker_node_Set(SystemSetKey(15v1)) -->
<g id="edge9" class="edge">
<title>node_System(SystemKey(17v1))&#45;&gt;set_marker_node_Set(SystemSetKey(15v1))</title>
<g id="a_edge9"><a xlink:title="propagate_gizmos&lt;AabbGizmoConfigGroup, Fixed&gt; → GizmoMeshSystems">
<path fill="none" stroke="#3363bb" stroke-width="2" d="M353.18,-455.35C372.6,-454.05 392.36,-452.8 411.47,-451.71"/>
<polygon fill="#3363bb" stroke="#3363bb" stroke-width="2" points="411.44,-455.22 421.23,-451.17 411.05,-448.23 411.44,-455.22"/>
</a>
</g>
</g>
<!-- node_System(SystemKey(19v1)) -->
<g id="node24" class="node">
<title>node_System(SystemKey(19v1))</title>
<g id="a_node24"><a xlink:title="bevy_gizmos::propagate_gizmos&lt;bevy_gizmos::frustum::FrustumGizmoConfigGroup, bevy_time::fixed::Fixed&gt;">
<polygon fill="lightgrey" stroke="black" points="361,-438 35.25,-438 35.25,-402 361,-402 361,-438"/>
<text xml:space="preserve" text-anchor="middle" x="198.12" y="-414.95" font-family="Times,serif" font-size="14.00">propagate_gizmos&lt;FrustumGizmoConfigGroup, Fixed&gt;</text>
</a>
</g>
</g>
<!-- node_System(SystemKey(19v1))&#45;&gt;set_marker_node_Set(SystemSetKey(15v1)) -->
<g id="edge1" class="edge">
<title>node_System(SystemKey(19v1))&#45;&gt;set_marker_node_Set(SystemSetKey(15v1))</title>
<g id="a_edge1"><a xlink:title="propagate_gizmos&lt;FrustumGizmoConfigGroup, Fixed&gt; → GizmoMeshSystems">
<path fill="none" stroke="#eede00" stroke-width="2" d="M361.47,-428.45C385.81,-429.72 411.18,-431.04 436.27,-432.34"/>
<polygon fill="#eede00" stroke="#eede00" stroke-width="2" points="435.76,-435.82 445.93,-432.85 436.13,-428.83 435.76,-435.82"/>
</a>
</g>
</g>
<!-- node_System(SystemKey(21v1)) -->
<g id="node25" class="node">
<title>node_System(SystemKey(21v1))</title>
<g id="a_node25"><a xlink:title="bevy_gizmos::global::flush_global_gizmos">
<polygon fill="lightgrey" stroke="black" points="263.12,-391 133.12,-391 133.12,-355 263.12,-355 263.12,-391"/>
<text xml:space="preserve" text-anchor="middle" x="198.12" y="-367.95" font-family="Times,serif" font-size="14.00">flush_global_gizmos</text>
</a>
</g>
</g>
<!-- node_System(SystemKey(21v1))&#45;&gt;set_marker_node_Set(SystemSetKey(15v1)) -->
<g id="edge10" class="edge">
<title>node_System(SystemKey(21v1))&#45;&gt;set_marker_node_Set(SystemSetKey(15v1))</title>
<g id="a_edge10"><a xlink:title="flush_global_gizmos → GizmoMeshSystems">
<path fill="none" stroke="#22c2bb" stroke-width="2" d="M263.19,-379.74C301.82,-384.07 351.96,-390.15 396.25,-397 459.21,-406.74 530.77,-420.51 580.18,-430.44"/>
<polygon fill="#22c2bb" stroke="#22c2bb" stroke-width="2" points="579.41,-433.85 589.91,-432.4 580.8,-426.99 579.41,-433.85"/>
</a>
</g>
</g>
<!-- node_System(SystemKey(22v1)) -->
<g id="node26" class="node">
<title>node_System(SystemKey(22v1))</title>
<g id="a_node26"><a xlink:title="bevy_gizmos::propagate_gizmos&lt;bevy_gizmos::skinned_mesh_bounds::SkinnedMeshBoundsGizmoConfigGroup, bevy_time::fixed::Fixed&gt;">
<polygon fill="lightgrey" stroke="black" points="396.25,-344 0,-344 0,-308 396.25,-308 396.25,-344"/>
<text xml:space="preserve" text-anchor="middle" x="198.12" y="-320.95" font-family="Times,serif" font-size="14.00">propagate_gizmos&lt;SkinnedMeshBoundsGizmoConfigGroup, Fixed&gt;</text>
</a>
</g>
</g>
<!-- node_System(SystemKey(22v1))&#45;&gt;set_marker_node_Set(SystemSetKey(15v1)) -->
<g id="edge11" class="edge">
<title>node_System(SystemKey(22v1))&#45;&gt;set_marker_node_Set(SystemSetKey(15v1))</title>
<g id="a_edge11"><a xlink:title="propagate_gizmos&lt;SkinnedMeshBoundsGizmoConfigGroup, Fixed&gt; → GizmoMeshSystems">
<path fill="none" stroke="#99d955" stroke-width="2" d="M371.32,-344.47C379.79,-346.16 388.13,-348 396.25,-350 474.67,-369.37 562.16,-406.66 608.34,-427.66"/>
<polygon fill="#99d955" stroke="#99d955" stroke-width="2" points="606.66,-430.74 617.2,-431.74 609.58,-424.38 606.66,-430.74"/>
</a>
</g>
</g>
<!-- node_System(SystemKey(24v1)) -->
<g id="node27" class="node">
<title>node_System(SystemKey(24v1))</title>
<g id="a_node27"><a xlink:title="bevy_picking::input::deactivate_touch_pointers">
<polygon fill="lightgrey" stroke="black" points="277,-814 119.25,-814 119.25,-778 277,-778 277,-814"/>
<text xml:space="preserve" text-anchor="middle" x="198.12" y="-790.95" font-family="Times,serif" font-size="14.00">deactivate_touch_pointers</text>
</a>
</g>
</g>
<!-- node_System(SystemKey(25v1)) -->
<g id="node28" class="node">
<title>node_System(SystemKey(25v1))</title>
<g id="a_node28"><a xlink:title="bevy_ecs::apply_deferred">
<polygon fill="lightgrey" stroke="black" points="247,-861 149.25,-861 149.25,-825 247,-825 247,-861"/>
<text xml:space="preserve" text-anchor="middle" x="198.12" y="-837.95" font-family="Times,serif" font-size="14.00">apply_deferred</text>
</a>
</g>
</g>
</g>
</svg>
