<?xml version="1.0" encoding="UTF-8" standalone="no"?>
<!DOCTYPE svg PUBLIC "-//W3C//DTD SVG 1.1//EN"
 "http://www.w3.org/Graphics/SVG/1.1/DTD/svg11.dtd">
<!-- Generated by graphviz version 13.1.2 (20250808.2320)
 -->
<!-- Pages: 1 -->
<svg width="314pt" height="984pt"
 viewBox="0.00 0.00 314.00 984.00" xmlns="http://www.w3.org/2000/svg" xmlns:xlink="http://www.w3.org/1999/xlink">
<g id="graph0" class="graph" transform="scale(1 1) rotate(0) translate(4 980)">
<polygon fill="white" stroke="none" points="-4,4 -4,-980 310.25,-980 310.25,4 -4,4"/>
<!-- node_System(0) -->
<g id="node1" class="node">
<title>node_System(0)</title>
<g id="a_node1"><a xlink:title="bevy_asset::assets::Assets&lt;bevy_asset::folder::LoadedFolder&gt;::asset_events">
<polygon fill="lightgrey" stroke="black" points="258.62,-36 47.62,-36 47.62,0 258.62,0 258.62,-36"/>
<text xml:space="preserve" text-anchor="middle" x="153.12" y="-12.95" font-family="Times,serif" font-size="14.00">Assets&lt;LoadedFolder&gt;asset_events</text>
</a>
</g>
</g>
<!-- node_System(1) -->
<g id="node2" class="node">
<title>node_System(1)</title>
<g id="a_node2"><a xlink:title="bevy_asset::assets::Assets&lt;bevy_asset::assets::LoadedUntypedAsset&gt;::asset_events">
<polygon fill="lightgrey" stroke="black" points="279.25,-83 27,-83 27,-47 279.25,-47 279.25,-83"/>
<text xml:space="preserve" text-anchor="middle" x="153.12" y="-59.95" font-family="Times,serif" font-size="14.00">Assets&lt;LoadedUntypedAsset&gt;asset_events</text>
</a>
</g>
</g>
<!-- node_System(2) -->
<g id="node3" class="node">
<title>node_System(2)</title>
<g id="a_node3"><a xlink:title="bevy_asset::assets::Assets&lt;()&gt;::asset_events">
<polygon fill="lightgrey" stroke="black" points="225.25,-130 81,-130 81,-94 225.25,-94 225.25,-130"/>
<text xml:space="preserve" text-anchor="middle" x="153.12" y="-106.95" font-family="Times,serif" font-size="14.00">Assets&lt;()&gt;asset_events</text>
</a>
</g>
</g>
<!-- node_System(3) -->
<g id="node4" class="node">
<title>node_System(3)</title>
<g id="a_node4"><a xlink:title="bevy_asset::assets::Assets&lt;bevy_scene::dynamic_scene::DynamicScene&gt;::asset_events">
<polygon fill="lightgrey" stroke="black" points="262,-177 44.25,-177 44.25,-141 262,-141 262,-177"/>
<text xml:space="preserve" text-anchor="middle" x="153.12" y="-153.95" font-family="Times,serif" font-size="14.00">Assets&lt;DynamicScene&gt;asset_events</text>
</a>
</g>
</g>
<!-- node_System(4) -->
<g id="node5" class="node">
<title>node_System(4)</title>
<g id="a_node5"><a xlink:title="bevy_asset::assets::Assets&lt;bevy_scene::scene::Scene&gt;::asset_events">
<polygon fill="lightgrey" stroke="black" points="236.88,-224 69.38,-224 69.38,-188 236.88,-188 236.88,-224"/>
<text xml:space="preserve" text-anchor="middle" x="153.12" y="-200.95" font-family="Times,serif" font-size="14.00">Assets&lt;Scene&gt;asset_events</text>
</a>
</g>
</g>
<!-- node_System(5) -->
<g id="node6" class="node">
<title>node_System(5)</title>
<g id="a_node6"><a xlink:title="bevy_asset::assets::Assets&lt;bevy_render::render_resource::shader::Shader&gt;::asset_events">
<polygon fill="lightgrey" stroke="black" points="239.5,-271 66.75,-271 66.75,-235 239.5,-235 239.5,-271"/>
<text xml:space="preserve" text-anchor="middle" x="153.12" y="-247.95" font-family="Times,serif" font-size="14.00">Assets&lt;Shader&gt;asset_events</text>
</a>
</g>
</g>
<!-- node_System(6) -->
<g id="node7" class="node">
<title>node_System(6)</title>
<g id="a_node7"><a xlink:title="bevy_asset::assets::Assets&lt;bevy_render::mesh::mesh::Mesh&gt;::asset_events">
<polygon fill="lightgrey" stroke="black" points="236.12,-318 70.12,-318 70.12,-282 236.12,-282 236.12,-318"/>
<text xml:space="preserve" text-anchor="middle" x="153.12" y="-294.95" font-family="Times,serif" font-size="14.00">Assets&lt;Mesh&gt;asset_events</text>
</a>
</g>
</g>
<!-- node_System(7) -->
<g id="node8" class="node">
<title>node_System(7)</title>
<g id="a_node8"><a xlink:title="bevy_asset::assets::Assets&lt;bevy_render::mesh::mesh::skinning::SkinnedMeshInverseBindposes&gt;::asset_events">
<polygon fill="lightgrey" stroke="black" points="306.25,-365 0,-365 0,-329 306.25,-329 306.25,-365"/>
<text xml:space="preserve" text-anchor="middle" x="153.12" y="-341.95" font-family="Times,serif" font-size="14.00">Assets&lt;SkinnedMeshInverseBindposes&gt;asset_events</text>
</a>
</g>
</g>
<!-- node_System(8) -->
<g id="node9" class="node">
<title>node_System(8)</title>
<g id="a_node9"><a xlink:title="bevy_asset::assets::Assets&lt;bevy_render::texture::image::Image&gt;::asset_events">
<polygon fill="lightgrey" stroke="black" points="238,-412 68.25,-412 68.25,-376 238,-376 238,-412"/>
<text xml:space="preserve" text-anchor="middle" x="153.12" y="-388.95" font-family="Times,serif" font-size="14.00">Assets&lt;Image&gt;asset_events</text>
</a>
</g>
</g>
<!-- node_System(9) -->
<g id="node10" class="node">
<title>node_System(9)</title>
<g id="a_node10"><a xlink:title="bevy_asset::assets::Assets&lt;bevy_sprite::texture_atlas::TextureAtlasLayout&gt;::asset_events">
<polygon fill="lightgrey" stroke="black" points="274.75,-459 31.5,-459 31.5,-423 274.75,-423 274.75,-459"/>
<text xml:space="preserve" text-anchor="middle" x="153.12" y="-435.95" font-family="Times,serif" font-size="14.00">Assets&lt;TextureAtlasLayout&gt;asset_events</text>
</a>
</g>
</g>
<!-- node_System(10) -->
<g id="node11" class="node">
<title>node_System(10)</title>
<g id="a_node11"><a xlink:title="bevy_asset::assets::Assets&lt;bevy_sprite::mesh2d::color_material::ColorMaterial&gt;::asset_events">
<polygon fill="lightgrey" stroke="black" points="259.38,-506 46.88,-506 46.88,-470 259.38,-470 259.38,-506"/>
<text xml:space="preserve" text-anchor="middle" x="153.12" y="-482.95" font-family="Times,serif" font-size="14.00">Assets&lt;ColorMaterial&gt;asset_events</text>
</a>
</g>
</g>
<!-- node_System(11) -->
<g id="node12" class="node">
<title>node_System(11)</title>
<g id="a_node12"><a xlink:title="bevy_asset::assets::Assets&lt;bevy_text::font::Font&gt;::asset_events">
<polygon fill="lightgrey" stroke="black" points="233.12,-553 73.12,-553 73.12,-517 233.12,-517 233.12,-553"/>
<text xml:space="preserve" text-anchor="middle" x="153.12" y="-529.95" font-family="Times,serif" font-size="14.00">Assets&lt;Font&gt;asset_events</text>
</a>
</g>
</g>
<!-- node_System(12) -->
<g id="node13" class="node">
<title>node_System(12)</title>
<g id="a_node13"><a xlink:title="bevy_asset::assets::Assets&lt;bevy_pbr::pbr_material::StandardMaterial&gt;::asset_events">
<polygon fill="lightgrey" stroke="black" points="268,-600 38.25,-600 38.25,-564 268,-564 268,-600"/>
<text xml:space="preserve" text-anchor="middle" x="153.12" y="-576.95" font-family="Times,serif" font-size="14.00">Assets&lt;StandardMaterial&gt;asset_events</text>
</a>
</g>
</g>
<!-- node_System(13) -->
<g id="node14" class="node">
<title>node_System(13)</title>
<g id="a_node14"><a xlink:title="bevy_asset::assets::Assets&lt;bevy_gltf::Gltf&gt;::asset_events">
<polygon fill="lightgrey" stroke="black" points="231.62,-647 74.62,-647 74.62,-611 231.62,-611 231.62,-647"/>
<text xml:space="preserve" text-anchor="middle" x="153.12" y="-623.95" font-family="Times,serif" font-size="14.00">Assets&lt;Gltf&gt;asset_events</text>
</a>
</g>
</g>
<!-- node_System(14) -->
<g id="node15" class="node">
<title>node_System(14)</title>
<g id="a_node15"><a xlink:title="bevy_asset::assets::Assets&lt;bevy_gltf::GltfNode&gt;::asset_events">
<polygon fill="lightgrey" stroke="black" points="246.25,-694 60,-694 60,-658 246.25,-658 246.25,-694"/>
<text xml:space="preserve" text-anchor="middle" x="153.12" y="-670.95" font-family="Times,serif" font-size="14.00">Assets&lt;GltfNode&gt;asset_events</text>
</a>
</g>
</g>
<!-- node_System(15) -->
<g id="node16" class="node">
<title>node_System(15)</title>
<g id="a_node16"><a xlink:title="bevy_asset::assets::Assets&lt;bevy_gltf::GltfPrimitive&gt;::asset_events">
<polygon fill="lightgrey" stroke="black" points="257.12,-741 49.12,-741 49.12,-705 257.12,-705 257.12,-741"/>
<text xml:space="preserve" text-anchor="middle" x="153.12" y="-717.95" font-family="Times,serif" font-size="14.00">Assets&lt;GltfPrimitive&gt;asset_events</text>
</a>
</g>
</g>
<!-- node_System(16) -->
<g id="node17" class="node">
<title>node_System(16)</title>
<g id="a_node17"><a xlink:title="bevy_asset::assets::Assets&lt;bevy_gltf::GltfMesh&gt;::asset_events">
<polygon fill="lightgrey" stroke="black" points="247,-788 59.25,-788 59.25,-752 247,-752 247,-788"/>
<text xml:space="preserve" text-anchor="middle" x="153.12" y="-764.95" font-family="Times,serif" font-size="14.00">Assets&lt;GltfMesh&gt;asset_events</text>
</a>
</g>
</g>
<!-- node_System(17) -->
<g id="node18" class="node">
<title>node_System(17)</title>
<g id="a_node18"><a xlink:title="bevy_asset::assets::Assets&lt;bevy_audio::audio_source::AudioSource&gt;::asset_events">
<polygon fill="lightgrey" stroke="black" points="256.38,-835 49.88,-835 49.88,-799 256.38,-799 256.38,-835"/>
<text xml:space="preserve" text-anchor="middle" x="153.12" y="-811.95" font-family="Times,serif" font-size="14.00">Assets&lt;AudioSource&gt;asset_events</text>
</a>
</g>
</g>
<!-- node_System(18) -->
<g id="node19" class="node">
<title>node_System(18)</title>
<g id="a_node19"><a xlink:title="bevy_asset::assets::Assets&lt;bevy_audio::pitch::Pitch&gt;::asset_events">
<polygon fill="lightgrey" stroke="black" points="234.62,-882 71.62,-882 71.62,-846 234.62,-846 234.62,-882"/>
<text xml:space="preserve" text-anchor="middle" x="153.12" y="-858.95" font-family="Times,serif" font-size="14.00">Assets&lt;Pitch&gt;asset_events</text>
</a>
</g>
</g>
<!-- node_System(19) -->
<g id="node20" class="node">
<title>node_System(19)</title>
<g id="a_node20"><a xlink:title="bevy_asset::assets::Assets&lt;bevy_animation::AnimationClip&gt;::asset_events">
<polygon fill="lightgrey" stroke="black" points="261.62,-929 44.62,-929 44.62,-893 261.62,-893 261.62,-929"/>
<text xml:space="preserve" text-anchor="middle" x="153.12" y="-905.95" font-family="Times,serif" font-size="14.00">Assets&lt;AnimationClip&gt;asset_events</text>
</a>
</g>
</g>
<!-- node_System(20) -->
<g id="node21" class="node">
<title>node_System(20)</title>
<g id="a_node21"><a xlink:title="bevy_asset::assets::Assets&lt;bevy_gizmos::LineGizmo&gt;::asset_events">
<polygon fill="lightgrey" stroke="black" points="251.88,-976 54.38,-976 54.38,-940 251.88,-940 251.88,-976"/>
<text xml:space="preserve" text-anchor="middle" x="153.12" y="-952.95" font-family="Times,serif" font-size="14.00">Assets&lt;LineGizmo&gt;asset_events</text>
</a>
</g>
</g>
</g>
</svg>
