<?xml version="1.0" encoding="UTF-8" standalone="no"?>
<!DOCTYPE svg PUBLIC "-//W3C//DTD SVG 1.1//EN"
 "http://www.w3.org/Graphics/SVG/1.1/DTD/svg11.dtd">
<!-- Generated by graphviz version 14.1.5 (0)
 -->
<!-- Pages: 1 -->
<svg width="660pt" height="252pt"
 viewBox="0.00 0.00 660.00 252.00" xmlns="http://www.w3.org/2000/svg" xmlns:xlink="http://www.w3.org/1999/xlink">
<g id="graph0" class="graph" transform="scale(1 1) rotate(0) translate(4 248)">
<polygon fill="white" stroke="none" points="-4,4 -4,-248 656.25,-248 656.25,4 -4,4"/>
<g id="clust1" class="cluster">
<title>clusternode_Set(SystemSetKey(2v1))</title>
<g id="a_clust1"><a xlink:title="WorldInstanceSpawn">
<path fill="#000000" fill-opacity="0.031373" stroke="#000000" stroke-width="2" stroke-opacity="0.250980" d="M20,-108C20,-108 476,-108 476,-108 482,-108 488,-114 488,-120 488,-120 488,-188 488,-188 488,-194 482,-200 476,-200 476,-200 20,-200 20,-200 14,-200 8,-194 8,-188 8,-188 8,-120 8,-120 8,-114 14,-108 20,-108"/>
<text xml:space="preserve" text-anchor="middle" x="248" y="-182.7" font-family="Helvetica,sans-Serif" font-size="14.00" fill="#000000">WorldInstanceSpawn</text>
</a>
</g>
</g>
<g id="clust2" class="cluster">
<title>clusternode_Set(SystemSetKey(5v1))</title>
<g id="a_clust2"><a xlink:title="SceneSpawn">
<path fill="#000000" fill-opacity="0.031373" stroke="#000000" stroke-width="2" stroke-opacity="0.250980" d="M275.62,-8C275.62,-8 632.25,-8 632.25,-8 638.25,-8 644.25,-14 644.25,-20 644.25,-20 644.25,-88 644.25,-88 644.25,-94 638.25,-100 632.25,-100 632.25,-100 275.62,-100 275.62,-100 269.62,-100 263.62,-94 263.62,-88 263.62,-88 263.62,-20 263.62,-20 263.62,-14 269.62,-8 275.62,-8"/>
<text xml:space="preserve" text-anchor="middle" x="453.94" y="-82.7" font-family="Helvetica,sans-Serif" font-size="14.00" fill="#000000">SceneSpawn</text>
</a>
</g>
</g>
<!-- set_marker_node_Set(SystemSetKey(2v1)) -->
<!-- node_System(SystemKey(3v1)) -->
<g id="node5" class="node">
<title>node_System(SystemKey(3v1))</title>
<g id="a_node5"><a xlink:title="bevy_scene::spawn::resolve_scene_patches">
<polygon fill="#bacfcb" stroke="#7da59d" points="445.88,-67 271.62,-67 271.62,-31 445.88,-31 445.88,-67"/>
<text xml:space="preserve" text-anchor="middle" x="358.75" y="-44.33" font-family="Helvetica,sans-Serif" font-size="14.00" fill="#141e1c">resolve_scene_patches</text>
</a>
</g>
</g>
<!-- set_marker_node_Set(SystemSetKey(2v1))&#45;&gt;node_System(SystemKey(3v1)) -->
<g id="edge1" class="edge">
<title>set_marker_node_Set(SystemSetKey(2v1))&#45;&gt;node_System(SystemKey(3v1))</title>
<g id="a_edge1"><a xlink:title="WorldInstanceSpawn → resolve_scene_patches">
<path fill="none" stroke="#eede00" stroke-width="2" d="M145.68,-108C180.41,-98.34 234.18,-83.38 278.9,-70.94"/>
<polygon fill="#eede00" stroke="#eede00" stroke-width="2" points="279.72,-74.34 288.42,-68.29 277.85,-67.6 279.72,-74.34"/>
</a>
</g>
</g>
<!-- node_System(SystemKey(1v1)) -->
<g id="node2" class="node">
<title>node_System(SystemKey(1v1))</title>
<g id="a_node2"><a xlink:title="bevy_world_serialization::world_asset_spawner::world_instance_spawner">
<polygon fill="#eff1f3" stroke="#b4bec7" points="201.5,-167 16,-167 16,-131 201.5,-131 201.5,-167"/>
<text xml:space="preserve" text-anchor="middle" x="108.75" y="-144.32" font-family="Helvetica,sans-Serif" font-size="14.00" fill="#15191d">world_instance_spawner</text>
</a>
</g>
</g>
<!-- node_System(SystemKey(2v1)) -->
<g id="node3" class="node">
<title>node_System(SystemKey(2v1))</title>
<g id="a_node3"><a xlink:title="bevy_world_serialization::world_asset_spawner::world_instance_spawner_system">
<polygon fill="#eff1f3" stroke="#b4bec7" points="480,-167 237.5,-167 237.5,-131 480,-131 480,-167"/>
<text xml:space="preserve" text-anchor="middle" x="358.75" y="-144.32" font-family="Helvetica,sans-Serif" font-size="14.00" fill="#15191d">world_instance_spawner_system</text>
</a>
</g>
</g>
<!-- node_System(SystemKey(1v1))&#45;&gt;node_System(SystemKey(2v1)) -->
<g id="edge2" class="edge">
<title>node_System(SystemKey(1v1))&#45;&gt;node_System(SystemKey(2v1))</title>
<g id="a_edge2"><a xlink:title="world_instance_spawner → world_instance_spawner_system">
<path fill="none" stroke="#881877" stroke-width="2" d="M201.74,-149C209.16,-149 216.74,-149 224.37,-149"/>
<polygon fill="#881877" stroke="#881877" stroke-width="2" points="224.21,-152.5 234.21,-149 224.21,-145.5 224.21,-152.5"/>
</a>
</g>
</g>
<!-- set_marker_node_Set(SystemSetKey(5v1)) -->
<!-- node_System(SystemKey(4v1)) -->
<g id="node6" class="node">
<title>node_System(SystemKey(4v1))</title>
<g id="a_node6"><a xlink:title="bevy_scene::spawn::spawn_queued">
<polygon fill="#bacfcb" stroke="#7da59d" points="636.25,-67 516,-67 516,-31 636.25,-31 636.25,-67"/>
<text xml:space="preserve" text-anchor="middle" x="576.12" y="-44.33" font-family="Helvetica,sans-Serif" font-size="14.00" fill="#141e1c">spawn_queued</text>
</a>
</g>
</g>
<!-- node_System(SystemKey(3v1))&#45;&gt;node_System(SystemKey(4v1)) -->
<g id="edge3" class="edge">
<title>node_System(SystemKey(3v1))&#45;&gt;node_System(SystemKey(4v1))</title>
<g id="a_edge3"><a xlink:title="resolve_scene_patches → spawn_queued">
<path fill="none" stroke="#00b0cc" stroke-width="2" d="M446.11,-49C464.85,-49 484.49,-49 502.63,-49"/>
<polygon fill="#00b0cc" stroke="#00b0cc" stroke-width="2" points="502.51,-52.5 512.51,-49 502.51,-45.5 502.51,-52.5"/>
</a>
</g>
</g>
<!-- node_System(SystemKey(5v1)) -->
<g id="node7" class="node">
<title>node_System(SystemKey(5v1))</title>
<g id="a_node7"><a xlink:title="bevy_ecs::apply_deferred">
<polygon fill="lightgrey" stroke="black" points="170.38,-244 47.12,-244 47.12,-208 170.38,-208 170.38,-244"/>
<text xml:space="preserve" text-anchor="middle" x="108.75" y="-221.32" font-family="Times,serif" font-size="14.00">apply_deferred</text>
</a>
</g>
</g>
</g>
</svg>
