<?xml version="1.0" encoding="UTF-8" standalone="no"?>
<!DOCTYPE svg PUBLIC "-//W3C//DTD SVG 1.1//EN"
 "http://www.w3.org/Graphics/SVG/1.1/DTD/svg11.dtd">
<!-- Generated by graphviz version 10.0.1 (0)
 -->
<!-- Pages: 1 -->
<svg width="1056pt" height="1054pt"
 viewBox="0.00 0.00 1055.75 1054.00" xmlns="http://www.w3.org/2000/svg" xmlns:xlink="http://www.w3.org/1999/xlink">
<g id="graph0" class="graph" transform="scale(1 1) rotate(0) translate(4 1050)">
<polygon fill="white" stroke="none" points="-4,4 -4,-1050 1051.75,-1050 1051.75,4 -4,4"/>
<g id="clust1" class="cluster">
<title>clusternode_Set(1)</title>
<g id="a_clust1"><a xlink:title="TrackAssets">
<path fill="#000000" fill-opacity="0.031373" stroke="#000000" stroke-width="2" stroke-opacity="0.250980" d="M647,-10C647,-10 1027.75,-10 1027.75,-10 1033.75,-10 1039.75,-16 1039.75,-22 1039.75,-22 1039.75,-1026 1039.75,-1026 1039.75,-1032 1033.75,-1038 1027.75,-1038 1027.75,-1038 647,-1038 647,-1038 641,-1038 635,-1032 635,-1026 635,-1026 635,-22 635,-22 635,-16 641,-10 647,-10"/>
<text text-anchor="middle" x="837.38" y="-1020.7" font-family="Helvetica,sans-Serif" font-size="14.00" fill="#000000">TrackAssets</text>
</a>
</g>
</g>
<!-- set_marker_node_Set(1) -->
<!-- node_System(0) -->
<g id="node2" class="node">
<title>node_System(0)</title>
<g id="a_node2"><a xlink:title="bevy_asset::assets::Assets&lt;bevy_asset::folder::LoadedFolder&gt;::track_assets">
<polygon fill="#d1cbc5" stroke="#a3978c" points="969.88,-65 704.88,-65 704.88,-29 969.88,-29 969.88,-65"/>
<text text-anchor="middle" x="837.38" y="-42.33" font-family="Helvetica,sans-Serif" font-size="14.00" fill="#1c1916">Assets&lt;LoadedFolder&gt;track_assets</text>
</a>
</g>
</g>
<!-- node_System(1) -->
<g id="node3" class="node">
<title>node_System(1)</title>
<g id="a_node3"><a xlink:title="bevy_asset::assets::Assets&lt;bevy_asset::assets::LoadedUntypedAsset&gt;::track_assets">
<polygon fill="#d1cbc5" stroke="#a3978c" points="997.25,-112 677.5,-112 677.5,-76 997.25,-76 997.25,-112"/>
<text text-anchor="middle" x="837.38" y="-89.33" font-family="Helvetica,sans-Serif" font-size="14.00" fill="#1c1916">Assets&lt;LoadedUntypedAsset&gt;track_assets</text>
</a>
</g>
</g>
<!-- node_System(2) -->
<g id="node4" class="node">
<title>node_System(2)</title>
<g id="a_node4"><a xlink:title="bevy_asset::assets::Assets&lt;()&gt;::track_assets">
<polygon fill="#d1cbc5" stroke="#a3978c" points="928.62,-159 746.12,-159 746.12,-123 928.62,-123 928.62,-159"/>
<text text-anchor="middle" x="837.38" y="-136.32" font-family="Helvetica,sans-Serif" font-size="14.00" fill="#1c1916">Assets&lt;()&gt;track_assets</text>
</a>
</g>
</g>
<!-- node_System(4) -->
<g id="node5" class="node">
<title>node_System(4)</title>
<g id="a_node5"><a xlink:title="bevy_asset::assets::Assets&lt;bevy_scene::dynamic_scene::DynamicScene&gt;::track_assets">
<polygon fill="#d1cbc5" stroke="#a3978c" points="974.75,-206 700,-206 700,-170 974.75,-170 974.75,-206"/>
<text text-anchor="middle" x="837.38" y="-183.32" font-family="Helvetica,sans-Serif" font-size="14.00" fill="#1c1916">Assets&lt;DynamicScene&gt;track_assets</text>
</a>
</g>
</g>
<!-- node_System(5) -->
<g id="node6" class="node">
<title>node_System(5)</title>
<g id="a_node6"><a xlink:title="bevy_asset::assets::Assets&lt;bevy_scene::scene::Scene&gt;::track_assets">
<polygon fill="#d1cbc5" stroke="#a3978c" points="944.38,-253 730.38,-253 730.38,-217 944.38,-217 944.38,-253"/>
<text text-anchor="middle" x="837.38" y="-230.32" font-family="Helvetica,sans-Serif" font-size="14.00" fill="#1c1916">Assets&lt;Scene&gt;track_assets</text>
</a>
</g>
</g>
<!-- node_System(6) -->
<g id="node7" class="node">
<title>node_System(6)</title>
<g id="a_node7"><a xlink:title="bevy_asset::assets::Assets&lt;bevy_render::render_resource::shader::Shader&gt;::track_assets">
<polygon fill="#d1cbc5" stroke="#a3978c" points="948.12,-300 726.62,-300 726.62,-264 948.12,-264 948.12,-300"/>
<text text-anchor="middle" x="837.38" y="-277.32" font-family="Helvetica,sans-Serif" font-size="14.00" fill="#1c1916">Assets&lt;Shader&gt;track_assets</text>
</a>
</g>
</g>
<!-- node_System(7) -->
<g id="node8" class="node">
<title>node_System(7)</title>
<g id="a_node8"><a xlink:title="bevy_asset::assets::Assets&lt;bevy_render::mesh::mesh::Mesh&gt;::track_assets">
<polygon fill="#d1cbc5" stroke="#a3978c" points="941.75,-347 733,-347 733,-311 941.75,-311 941.75,-347"/>
<text text-anchor="middle" x="837.38" y="-324.32" font-family="Helvetica,sans-Serif" font-size="14.00" fill="#1c1916">Assets&lt;Mesh&gt;track_assets</text>
</a>
</g>
</g>
<!-- node_System(8) -->
<g id="node9" class="node">
<title>node_System(8)</title>
<g id="a_node9"><a xlink:title="bevy_asset::assets::Assets&lt;bevy_render::mesh::mesh::skinning::SkinnedMeshInverseBindposes&gt;::track_assets">
<polygon fill="#d1cbc5" stroke="#a3978c" points="1031.75,-394 643,-394 643,-358 1031.75,-358 1031.75,-394"/>
<text text-anchor="middle" x="837.38" y="-371.32" font-family="Helvetica,sans-Serif" font-size="14.00" fill="#1c1916">Assets&lt;SkinnedMeshInverseBindposes&gt;track_assets</text>
</a>
</g>
</g>
<!-- node_System(9) -->
<g id="node10" class="node">
<title>node_System(9)</title>
<g id="a_node10"><a xlink:title="bevy_asset::assets::Assets&lt;bevy_render::texture::image::Image&gt;::track_assets">
<polygon fill="#d1cbc5" stroke="#a3978c" points="945.12,-441 729.62,-441 729.62,-405 945.12,-405 945.12,-441"/>
<text text-anchor="middle" x="837.38" y="-418.32" font-family="Helvetica,sans-Serif" font-size="14.00" fill="#1c1916">Assets&lt;Image&gt;track_assets</text>
</a>
</g>
</g>
<!-- node_System(10) -->
<g id="node11" class="node">
<title>node_System(10)</title>
<g id="a_node11"><a xlink:title="bevy_asset::assets::Assets&lt;bevy_sprite::texture_atlas::TextureAtlasLayout&gt;::track_assets">
<polygon fill="#d1cbc5" stroke="#a3978c" points="988.62,-488 686.12,-488 686.12,-452 988.62,-452 988.62,-488"/>
<text text-anchor="middle" x="837.38" y="-465.32" font-family="Helvetica,sans-Serif" font-size="14.00" fill="#1c1916">Assets&lt;TextureAtlasLayout&gt;track_assets</text>
</a>
</g>
</g>
<!-- node_System(11) -->
<g id="node12" class="node">
<title>node_System(11)</title>
<g id="a_node12"><a xlink:title="bevy_asset::assets::Assets&lt;bevy_sprite::mesh2d::color_material::ColorMaterial&gt;::track_assets">
<polygon fill="#d1cbc5" stroke="#a3978c" points="969.12,-535 705.62,-535 705.62,-499 969.12,-499 969.12,-535"/>
<text text-anchor="middle" x="837.38" y="-512.33" font-family="Helvetica,sans-Serif" font-size="14.00" fill="#1c1916">Assets&lt;ColorMaterial&gt;track_assets</text>
</a>
</g>
</g>
<!-- node_System(12) -->
<g id="node13" class="node">
<title>node_System(12)</title>
<g id="a_node13"><a xlink:title="bevy_asset::assets::Assets&lt;bevy_text::font::Font&gt;::track_assets">
<polygon fill="#d1cbc5" stroke="#a3978c" points="938.38,-582 736.38,-582 736.38,-546 938.38,-546 938.38,-582"/>
<text text-anchor="middle" x="837.38" y="-559.33" font-family="Helvetica,sans-Serif" font-size="14.00" fill="#1c1916">Assets&lt;Font&gt;track_assets</text>
</a>
</g>
</g>
<!-- node_System(13) -->
<g id="node14" class="node">
<title>node_System(13)</title>
<g id="a_node14"><a xlink:title="bevy_asset::assets::Assets&lt;bevy_pbr::pbr_material::StandardMaterial&gt;::track_assets">
<polygon fill="#d1cbc5" stroke="#a3978c" points="982.62,-629 692.12,-629 692.12,-593 982.62,-593 982.62,-629"/>
<text text-anchor="middle" x="837.38" y="-606.33" font-family="Helvetica,sans-Serif" font-size="14.00" fill="#1c1916">Assets&lt;StandardMaterial&gt;track_assets</text>
</a>
</g>
</g>
<!-- node_System(14) -->
<g id="node15" class="node">
<title>node_System(14)</title>
<g id="a_node15"><a xlink:title="bevy_asset::assets::Assets&lt;bevy_gltf::Gltf&gt;::track_assets">
<polygon fill="#d1cbc5" stroke="#a3978c" points="935.75,-676 739,-676 739,-640 935.75,-640 935.75,-676"/>
<text text-anchor="middle" x="837.38" y="-653.33" font-family="Helvetica,sans-Serif" font-size="14.00" fill="#1c1916">Assets&lt;Gltf&gt;track_assets</text>
</a>
</g>
</g>
<!-- node_System(15) -->
<g id="node16" class="node">
<title>node_System(15)</title>
<g id="a_node16"><a xlink:title="bevy_asset::assets::Assets&lt;bevy_gltf::GltfNode&gt;::track_assets">
<polygon fill="#d1cbc5" stroke="#a3978c" points="953.75,-723 721,-723 721,-687 953.75,-687 953.75,-723"/>
<text text-anchor="middle" x="837.38" y="-700.33" font-family="Helvetica,sans-Serif" font-size="14.00" fill="#1c1916">Assets&lt;GltfNode&gt;track_assets</text>
</a>
</g>
</g>
<!-- node_System(16) -->
<g id="node17" class="node">
<title>node_System(16)</title>
<g id="a_node17"><a xlink:title="bevy_asset::assets::Assets&lt;bevy_gltf::GltfPrimitive&gt;::track_assets">
<polygon fill="#d1cbc5" stroke="#a3978c" points="966.12,-770 708.62,-770 708.62,-734 966.12,-734 966.12,-770"/>
<text text-anchor="middle" x="837.38" y="-747.33" font-family="Helvetica,sans-Serif" font-size="14.00" fill="#1c1916">Assets&lt;GltfPrimitive&gt;track_assets</text>
</a>
</g>
</g>
<!-- node_System(17) -->
<g id="node18" class="node">
<title>node_System(17)</title>
<g id="a_node18"><a xlink:title="bevy_asset::assets::Assets&lt;bevy_gltf::GltfMesh&gt;::track_assets">
<polygon fill="#d1cbc5" stroke="#a3978c" points="954.12,-817 720.62,-817 720.62,-781 954.12,-781 954.12,-817"/>
<text text-anchor="middle" x="837.38" y="-794.33" font-family="Helvetica,sans-Serif" font-size="14.00" fill="#1c1916">Assets&lt;GltfMesh&gt;track_assets</text>
</a>
</g>
</g>
<!-- node_System(18) -->
<g id="node19" class="node">
<title>node_System(18)</title>
<g id="a_node19"><a xlink:title="bevy_asset::assets::Assets&lt;bevy_audio::audio_source::AudioSource&gt;::track_assets">
<polygon fill="#d1cbc5" stroke="#a3978c" points="966.88,-864 707.88,-864 707.88,-828 966.88,-828 966.88,-864"/>
<text text-anchor="middle" x="837.38" y="-841.33" font-family="Helvetica,sans-Serif" font-size="14.00" fill="#1c1916">Assets&lt;AudioSource&gt;track_assets</text>
</a>
</g>
</g>
<!-- node_System(19) -->
<g id="node20" class="node">
<title>node_System(19)</title>
<g id="a_node20"><a xlink:title="bevy_asset::assets::Assets&lt;bevy_audio::pitch::Pitch&gt;::track_assets">
<polygon fill="#d1cbc5" stroke="#a3978c" points="940.25,-911 734.5,-911 734.5,-875 940.25,-875 940.25,-911"/>
<text text-anchor="middle" x="837.38" y="-888.33" font-family="Helvetica,sans-Serif" font-size="14.00" fill="#1c1916">Assets&lt;Pitch&gt;track_assets</text>
</a>
</g>
</g>
<!-- node_System(20) -->
<g id="node21" class="node">
<title>node_System(20)</title>
<g id="a_node21"><a xlink:title="bevy_asset::assets::Assets&lt;bevy_animation::AnimationClip&gt;::track_assets">
<polygon fill="#d1cbc5" stroke="#a3978c" points="971.75,-958 703,-958 703,-922 971.75,-922 971.75,-958"/>
<text text-anchor="middle" x="837.38" y="-935.33" font-family="Helvetica,sans-Serif" font-size="14.00" fill="#1c1916">Assets&lt;AnimationClip&gt;track_assets</text>
</a>
</g>
</g>
<!-- node_System(21) -->
<g id="node22" class="node">
<title>node_System(21)</title>
<g id="a_node22"><a xlink:title="bevy_asset::assets::Assets&lt;bevy_gizmos::LineGizmo&gt;::track_assets">
<polygon fill="#d1cbc5" stroke="#a3978c" points="959.38,-1005 715.38,-1005 715.38,-969 959.38,-969 959.38,-1005"/>
<text text-anchor="middle" x="837.38" y="-982.33" font-family="Helvetica,sans-Serif" font-size="14.00" fill="#1c1916">Assets&lt;LineGizmo&gt;track_assets</text>
</a>
</g>
</g>
<!-- node_System(3) -->
<g id="node23" class="node">
<title>node_System(3)</title>
<g id="a_node23"><a xlink:title="bevy_asset::server::handle_internal_asset_events">
<polygon fill="lightgrey" stroke="black" points="416.12,-83 190.88,-83 190.88,-47 416.12,-47 416.12,-83"/>
<text text-anchor="middle" x="303.5" y="-60.33" font-family="Times,serif" font-size="14.00">handle_internal_asset_events</text>
</a>
</g>
</g>
<!-- UNKNOWN SystemTypeSet(fn bevy_asset::server::handle_internal_asset_events()) -->
<g id="node24" class="node">
<title>UNKNOWN SystemTypeSet(fn bevy_asset::server::handle_internal_asset_events())</title>
<polygon fill="lightgrey" stroke="black" points="607,-36 0,-36 0,0 607,0 607,-36"/>
<text text-anchor="middle" x="303.5" y="-13.32" font-family="Times,serif" font-size="14.00">UNKNOWN SystemTypeSet(fn bevy_asset::server::handle_internal_asset_events())</text>
</g>
<!-- UNKNOWN SystemTypeSet(fn bevy_asset::server::handle_internal_asset_events())&#45;&gt;set_marker_node_Set(1) -->
<g id="edge1" class="edge">
<title>UNKNOWN SystemTypeSet(fn bevy_asset::server::handle_internal_asset_events())&#45;&gt;set_marker_node_Set(1)</title>
<g id="a_edge1"><a xlink:title="SystemTypeSet(handle_internal_asset_events()) → TrackAssets">
<path fill="none" stroke="#eede00" stroke-width="2" d="M607.34,-18C612.28,-18 617.2,-18 622.1,-18"/>
<polygon fill="#eede00" stroke="#eede00" stroke-width="2" points="621.97,-21.5 631.97,-18 621.97,-14.5 621.97,-21.5"/>
</a>
</g>
</g>
</g>
</svg>
