<?xml version="1.0" encoding="UTF-8" standalone="no"?>
<!DOCTYPE svg PUBLIC "-//W3C//DTD SVG 1.1//EN"
 "http://www.w3.org/Graphics/SVG/1.1/DTD/svg11.dtd">
<!-- Generated by graphviz version 13.1.2 (20250808.2320)
 -->
<!-- Pages: 1 -->
<svg width="1160pt" height="303pt"
 viewBox="0.00 0.00 1160.00 303.00" xmlns="http://www.w3.org/2000/svg" xmlns:xlink="http://www.w3.org/1999/xlink">
<g id="graph0" class="graph" transform="scale(1 1) rotate(0) translate(4 299)">
<polygon fill="white" stroke="none" points="-4,4 -4,-299 1155.75,-299 1155.75,4 -4,4"/>
<g id="clust1" class="cluster">
<title>clusternode_Set(SystemSetKey(1v1))</title>
<g id="a_clust1"><a xlink:title="BeforeFixedMainLoop">
<path fill="#000000" fill-opacity="0.031373" stroke="#000000" stroke-width="2" stroke-opacity="0.250980" d="M20,-8C20,-8 452.5,-8 452.5,-8 458.5,-8 464.5,-14 464.5,-20 464.5,-20 464.5,-275 464.5,-275 464.5,-281 458.5,-287 452.5,-287 452.5,-287 20,-287 20,-287 14,-287 8,-281 8,-275 8,-275 8,-20 8,-20 8,-14 14,-8 20,-8"/>
<text xml:space="preserve" text-anchor="middle" x="236.25" y="-269.7" font-family="Helvetica,sans-Serif" font-size="14.00" fill="#000000">BeforeFixedMainLoop</text>
</a>
</g>
</g>
<g id="clust2" class="cluster">
<title>clusternode_Set(SystemSetKey(2v1))</title>
<g id="a_clust2"><a xlink:title="FixedMainLoop">
<path fill="#000000" fill-opacity="0.031373" stroke="#000000" stroke-width="2" stroke-opacity="0.250980" d="M496.5,-8C496.5,-8 659,-8 659,-8 665,-8 671,-14 671,-20 671,-20 671,-87 671,-87 671,-93 665,-99 659,-99 659,-99 496.5,-99 496.5,-99 490.5,-99 484.5,-93 484.5,-87 484.5,-87 484.5,-20 484.5,-20 484.5,-14 490.5,-8 496.5,-8"/>
<text xml:space="preserve" text-anchor="middle" x="577.75" y="-81.7" font-family="Helvetica,sans-Serif" font-size="14.00" fill="#000000">FixedMainLoop</text>
</a>
</g>
</g>
<g id="clust3" class="cluster">
<title>clusternode_Set(SystemSetKey(3v1))</title>
<g id="a_clust3"><a xlink:title="AfterFixedMainLoop">
<path fill="#000000" fill-opacity="0.031373" stroke="#000000" stroke-width="2" stroke-opacity="0.250980" d="M703,-8C703,-8 1131.75,-8 1131.75,-8 1137.75,-8 1143.75,-14 1143.75,-20 1143.75,-20 1143.75,-275 1143.75,-275 1143.75,-281 1137.75,-287 1131.75,-287 1131.75,-287 703,-287 703,-287 697,-287 691,-281 691,-275 691,-275 691,-20 691,-20 691,-14 697,-8 703,-8"/>
<text xml:space="preserve" text-anchor="middle" x="917.38" y="-269.7" font-family="Helvetica,sans-Serif" font-size="14.00" fill="#000000">AfterFixedMainLoop</text>
</a>
</g>
</g>
<!-- set_marker_node_Set(SystemSetKey(1v1)) -->
<!-- set_marker_node_Set(SystemSetKey(2v1)) -->
<!-- set_marker_node_Set(SystemSetKey(1v1))&#45;&gt;set_marker_node_Set(SystemSetKey(2v1)) -->
<g id="edge1" class="edge">
<title>set_marker_node_Set(SystemSetKey(1v1))&#45;&gt;set_marker_node_Set(SystemSetKey(2v1))</title>
<g id="a_edge1"><a xlink:title="BeforeFixedMainLoop → FixedMainLoop">
<path fill="none" stroke="#eede00" stroke-width="2" d="M464.5,-18C466.93,-18 469.34,-18 471.73,-18"/>
<polygon fill="#eede00" stroke="#eede00" stroke-width="2" points="471.47,-21.5 481.47,-18 471.47,-14.5 471.47,-21.5"/>
</a>
</g>
</g>
<!-- node_System(SystemKey(2v1)) -->
<g id="node2" class="node">
<title>node_System(SystemKey(2v1))</title>
<g id="a_node2"><a xlink:title="bevy_gizmos::start_gizmo_context&lt;bevy_light::gizmos::LightGizmoConfigGroup, bevy_time::fixed::Fixed&gt;">
<polygon fill="#eff1f3" stroke="#b4bec7" points="407,-67 65.5,-67 65.5,-31 407,-31 407,-67"/>
<text xml:space="preserve" text-anchor="middle" x="236.25" y="-43.58" font-family="Helvetica,sans-Serif" font-size="14.00" fill="#15191d">start_gizmo_context&lt;LightGizmoConfigGroup, Fixed&gt;</text>
</a>
</g>
</g>
<!-- node_System(SystemKey(4v1)) -->
<g id="node3" class="node">
<title>node_System(SystemKey(4v1))</title>
<g id="a_node3"><a xlink:title="bevy_gizmos::start_gizmo_context&lt;bevy_gizmos::config::DefaultGizmoConfigGroup, bevy_time::fixed::Fixed&gt;">
<polygon fill="#eff1f3" stroke="#b4bec7" points="413.75,-114 58.75,-114 58.75,-78 413.75,-78 413.75,-114"/>
<text xml:space="preserve" text-anchor="middle" x="236.25" y="-90.58" font-family="Helvetica,sans-Serif" font-size="14.00" fill="#15191d">start_gizmo_context&lt;DefaultGizmoConfigGroup, Fixed&gt;</text>
</a>
</g>
</g>
<!-- node_System(SystemKey(6v1)) -->
<g id="node4" class="node">
<title>node_System(SystemKey(6v1))</title>
<g id="a_node4"><a xlink:title="bevy_gizmos::start_gizmo_context&lt;bevy_gizmos::aabb::AabbGizmoConfigGroup, bevy_time::fixed::Fixed&gt;">
<polygon fill="#eff1f3" stroke="#b4bec7" points="408.12,-161 64.38,-161 64.38,-125 408.12,-125 408.12,-161"/>
<text xml:space="preserve" text-anchor="middle" x="236.25" y="-137.57" font-family="Helvetica,sans-Serif" font-size="14.00" fill="#15191d">start_gizmo_context&lt;AabbGizmoConfigGroup, Fixed&gt;</text>
</a>
</g>
</g>
<!-- node_System(SystemKey(8v1)) -->
<g id="node5" class="node">
<title>node_System(SystemKey(8v1))</title>
<g id="a_node5"><a xlink:title="bevy_gizmos::start_gizmo_context&lt;bevy_gizmos::frustum::FrustumGizmoConfigGroup, bevy_time::fixed::Fixed&gt;">
<polygon fill="#eff1f3" stroke="#b4bec7" points="417.5,-208 55,-208 55,-172 417.5,-172 417.5,-208"/>
<text xml:space="preserve" text-anchor="middle" x="236.25" y="-184.57" font-family="Helvetica,sans-Serif" font-size="14.00" fill="#15191d">start_gizmo_context&lt;FrustumGizmoConfigGroup, Fixed&gt;</text>
</a>
</g>
</g>
<!-- node_System(SystemKey(10v1)) -->
<g id="node6" class="node">
<title>node_System(SystemKey(10v1))</title>
<g id="a_node6"><a xlink:title="bevy_gizmos::start_gizmo_context&lt;bevy_gizmos::skinned_mesh_bounds::SkinnedMeshBoundsGizmoConfigGroup, bevy_time::fixed::Fixed&gt;">
<polygon fill="#eff1f3" stroke="#b4bec7" points="456.5,-255 16,-255 16,-219 456.5,-219 456.5,-255"/>
<text xml:space="preserve" text-anchor="middle" x="236.25" y="-231.57" font-family="Helvetica,sans-Serif" font-size="14.00" fill="#15191d">start_gizmo_context&lt;SkinnedMeshBoundsGizmoConfigGroup, Fixed&gt;</text>
</a>
</g>
</g>
<!-- set_marker_node_Set(SystemSetKey(3v1)) -->
<!-- set_marker_node_Set(SystemSetKey(2v1))&#45;&gt;set_marker_node_Set(SystemSetKey(3v1)) -->
<g id="edge2" class="edge">
<title>set_marker_node_Set(SystemSetKey(2v1))&#45;&gt;set_marker_node_Set(SystemSetKey(3v1))</title>
<g id="a_edge2"><a xlink:title="FixedMainLoop → AfterFixedMainLoop">
<path fill="none" stroke="#881877" stroke-width="2" d="M671,-18C673.31,-18 675.65,-18 678.01,-18"/>
<polygon fill="#881877" stroke="#881877" stroke-width="2" points="677.97,-21.5 687.97,-18 677.97,-14.5 677.97,-21.5"/>
</a>
</g>
</g>
<!-- node_System(SystemKey(1v1)) -->
<g id="node8" class="node">
<title>node_System(SystemKey(1v1))</title>
<g id="a_node8"><a xlink:title="bevy_time::fixed::run_fixed_main_schedule">
<polygon fill="#c7ddbd" stroke="#8dba79" points="663,-67 492.5,-67 492.5,-31 663,-31 663,-67"/>
<text xml:space="preserve" text-anchor="middle" x="577.75" y="-43.58" font-family="Helvetica,sans-Serif" font-size="14.00" fill="#162111">run_fixed_main_schedule</text>
</a>
</g>
</g>
<!-- node_System(SystemKey(3v1)) -->
<g id="node10" class="node">
<title>node_System(SystemKey(3v1))</title>
<g id="a_node10"><a xlink:title="bevy_gizmos::end_gizmo_context&lt;bevy_light::gizmos::LightGizmoConfigGroup, bevy_time::fixed::Fixed&gt;">
<polygon fill="#eff1f3" stroke="#b4bec7" points="1086.25,-67 748.5,-67 748.5,-31 1086.25,-31 1086.25,-67"/>
<text xml:space="preserve" text-anchor="middle" x="917.38" y="-43.58" font-family="Helvetica,sans-Serif" font-size="14.00" fill="#15191d">end_gizmo_context&lt;LightGizmoConfigGroup, Fixed&gt;</text>
</a>
</g>
</g>
<!-- node_System(SystemKey(5v1)) -->
<g id="node11" class="node">
<title>node_System(SystemKey(5v1))</title>
<g id="a_node11"><a xlink:title="bevy_gizmos::end_gizmo_context&lt;bevy_gizmos::config::DefaultGizmoConfigGroup, bevy_time::fixed::Fixed&gt;">
<polygon fill="#eff1f3" stroke="#b4bec7" points="1093,-114 741.75,-114 741.75,-78 1093,-78 1093,-114"/>
<text xml:space="preserve" text-anchor="middle" x="917.38" y="-90.58" font-family="Helvetica,sans-Serif" font-size="14.00" fill="#15191d">end_gizmo_context&lt;DefaultGizmoConfigGroup, Fixed&gt;</text>
</a>
</g>
</g>
<!-- node_System(SystemKey(7v1)) -->
<g id="node12" class="node">
<title>node_System(SystemKey(7v1))</title>
<g id="a_node12"><a xlink:title="bevy_gizmos::end_gizmo_context&lt;bevy_gizmos::aabb::AabbGizmoConfigGroup, bevy_time::fixed::Fixed&gt;">
<polygon fill="#eff1f3" stroke="#b4bec7" points="1087.38,-161 747.38,-161 747.38,-125 1087.38,-125 1087.38,-161"/>
<text xml:space="preserve" text-anchor="middle" x="917.38" y="-137.57" font-family="Helvetica,sans-Serif" font-size="14.00" fill="#15191d">end_gizmo_context&lt;AabbGizmoConfigGroup, Fixed&gt;</text>
</a>
</g>
</g>
<!-- node_System(SystemKey(9v1)) -->
<g id="node13" class="node">
<title>node_System(SystemKey(9v1))</title>
<g id="a_node13"><a xlink:title="bevy_gizmos::end_gizmo_context&lt;bevy_gizmos::frustum::FrustumGizmoConfigGroup, bevy_time::fixed::Fixed&gt;">
<polygon fill="#eff1f3" stroke="#b4bec7" points="1096.75,-208 738,-208 738,-172 1096.75,-172 1096.75,-208"/>
<text xml:space="preserve" text-anchor="middle" x="917.38" y="-184.57" font-family="Helvetica,sans-Serif" font-size="14.00" fill="#15191d">end_gizmo_context&lt;FrustumGizmoConfigGroup, Fixed&gt;</text>
</a>
</g>
</g>
<!-- node_System(SystemKey(11v1)) -->
<g id="node14" class="node">
<title>node_System(SystemKey(11v1))</title>
<g id="a_node14"><a xlink:title="bevy_gizmos::end_gizmo_context&lt;bevy_gizmos::skinned_mesh_bounds::SkinnedMeshBoundsGizmoConfigGroup, bevy_time::fixed::Fixed&gt;">
<polygon fill="#eff1f3" stroke="#b4bec7" points="1135.75,-255 699,-255 699,-219 1135.75,-219 1135.75,-255"/>
<text xml:space="preserve" text-anchor="middle" x="917.38" y="-231.57" font-family="Helvetica,sans-Serif" font-size="14.00" fill="#15191d">end_gizmo_context&lt;SkinnedMeshBoundsGizmoConfigGroup, Fixed&gt;</text>
</a>
</g>
</g>
</g>
</svg>
