<?xml version="1.0" encoding="UTF-8" standalone="no"?>
<!DOCTYPE svg PUBLIC "-//W3C//DTD SVG 1.1//EN"
 "http://www.w3.org/Graphics/SVG/1.1/DTD/svg11.dtd">
<!-- Generated by graphviz version 14.1.1 (0)
 -->
<!-- Pages: 1 -->
<svg width="597pt" height="288pt"
 viewBox="0.00 0.00 597.00 288.00" xmlns="http://www.w3.org/2000/svg" xmlns:xlink="http://www.w3.org/1999/xlink">
<g id="graph0" class="graph" transform="scale(1 1) rotate(0) translate(4 284)">
<polygon fill="white" stroke="none" points="-4,4 -4,-284 593.25,-284 593.25,4 -4,4"/>
<g id="clust1" class="cluster">
<title>clusternode_Set(SystemSetKey(2v1))</title>
<g id="a_clust1"><a xlink:title="MessageUpdateSystems">
<path fill="#000000" fill-opacity="0.031373" stroke="#000000" stroke-width="2" stroke-opacity="0.250980" d="M20,-31C20,-31 202.75,-31 202.75,-31 208.75,-31 214.75,-37 214.75,-43 214.75,-43 214.75,-111 214.75,-111 214.75,-117 208.75,-123 202.75,-123 202.75,-123 20,-123 20,-123 14,-123 8,-117 8,-111 8,-111 8,-43 8,-43 8,-37 14,-31 20,-31"/>
<text xml:space="preserve" text-anchor="middle" x="111.38" y="-105.7" font-family="Helvetica,sans-Serif" font-size="14.00" fill="#000000">MessageUpdateSystems</text>
</a>
</g>
</g>
<g id="clust2" class="cluster">
<title>clusternode_Set(SystemSetKey(4v1))</title>
<g id="a_clust2"><a xlink:title="TimeSystems">
<path fill="#000000" fill-opacity="0.031373" stroke="#000000" stroke-width="2" stroke-opacity="0.250980" d="M63.5,-144C63.5,-144 159.25,-144 159.25,-144 165.25,-144 171.25,-150 171.25,-156 171.25,-156 171.25,-224 171.25,-224 171.25,-230 165.25,-236 159.25,-236 159.25,-236 63.5,-236 63.5,-236 57.5,-236 51.5,-230 51.5,-224 51.5,-224 51.5,-156 51.5,-156 51.5,-150 57.5,-144 63.5,-144"/>
<text xml:space="preserve" text-anchor="middle" x="111.38" y="-218.7" font-family="Helvetica,sans-Serif" font-size="14.00" fill="#000000">TimeSystems</text>
</a>
</g>
</g>
<g id="clust3" class="cluster">
<title>clusternode_Set(SystemSetKey(8v1))</title>
<g id="a_clust3"><a xlink:title="PostInput">
<path fill="#000000" fill-opacity="0.031373" stroke="#000000" stroke-width="2" stroke-opacity="0.250980" d="M439,-44C439,-44 564,-44 564,-44 570,-44 576,-50 576,-56 576,-56 576,-124 576,-124 576,-130 570,-136 564,-136 564,-136 439,-136 439,-136 433,-136 427,-130 427,-124 427,-124 427,-56 427,-56 427,-50 433,-44 439,-44"/>
<text xml:space="preserve" text-anchor="middle" x="501.5" y="-118.7" font-family="Helvetica,sans-Serif" font-size="14.00" fill="#000000">PostInput</text>
</a>
</g>
</g>
<g id="clust4" class="cluster">
<title>clusternode_Set(SystemSetKey(10v1))</title>
<g id="a_clust4"><a xlink:title="Input">
<path fill="#000000" fill-opacity="0.031373" stroke="#000000" stroke-width="2" stroke-opacity="0.250980" d="M246.75,-144C246.75,-144 569.25,-144 569.25,-144 575.25,-144 581.25,-150 581.25,-156 581.25,-156 581.25,-224 581.25,-224 581.25,-230 575.25,-236 569.25,-236 569.25,-236 246.75,-236 246.75,-236 240.75,-236 234.75,-230 234.75,-224 234.75,-224 234.75,-156 234.75,-156 234.75,-150 240.75,-144 246.75,-144"/>
<text xml:space="preserve" text-anchor="middle" x="408" y="-218.7" font-family="Helvetica,sans-Serif" font-size="14.00" fill="#000000">Input</text>
</a>
</g>
</g>
<!-- set_marker_node_Set(SystemSetKey(2v1)) -->
<!-- set_marker_node_Set(SystemSetKey(10v1)) -->
<!-- set_marker_node_Set(SystemSetKey(2v1))&#45;&gt;set_marker_node_Set(SystemSetKey(10v1)) -->
<g id="edge1" class="edge">
<title>set_marker_node_Set(SystemSetKey(2v1))&#45;&gt;set_marker_node_Set(SystemSetKey(10v1))</title>
<g id="a_edge1"><a xlink:title="MessageUpdateSystems → Input">
<path fill="none" stroke="#eede00" stroke-width="2" d="M214.75,-120.98C235.66,-127.72 256.58,-134.45 274.01,-140.07"/>
<polygon fill="#eede00" stroke="#eede00" stroke-width="2" points="272.74,-143.34 283.33,-143.07 274.88,-136.67 272.74,-143.34"/>
</a>
</g>
</g>
<!-- node_System(SystemKey(1v1)) -->
<g id="node2" class="node">
<title>node_System(SystemKey(1v1))</title>
<g id="a_node2"><a xlink:title="bevy_ecs::message::update::message_update_system">
<polygon fill="#b0d34a" stroke="#d3e69c" points="206.75,-75 16,-75 16,-39 206.75,-39 206.75,-75"/>
<text xml:space="preserve" text-anchor="middle" x="111.38" y="-52.33" font-family="Helvetica,sans-Serif" font-size="14.00" fill="#edf5d5">message_update_system</text>
</a>
</g>
</g>
<!-- node_System(SystemKey(3v1)) -->
<g id="node10" class="node">
<title>node_System(SystemKey(3v1))</title>
<g id="a_node10"><a xlink:title="bevy_render::view::window::screenshot::clear_screenshots">
<polygon fill="lightgrey" stroke="black" points="390,-62 246.5,-62 246.5,-26 390,-26 390,-62"/>
<text xml:space="preserve" text-anchor="middle" x="318.25" y="-39.33" font-family="Times,serif" font-size="14.00">clear_screenshots</text>
</a>
</g>
</g>
<!-- node_System(SystemKey(1v1))&#45;&gt;node_System(SystemKey(3v1)) -->
<g id="edge6" class="edge">
<title>node_System(SystemKey(1v1))&#45;&gt;node_System(SystemKey(3v1))</title>
<g id="a_edge6"><a xlink:title="SystemTypeSet(fn bevy_ecs::system::exclusive_function_system::ExclusiveFunctionSystem&lt;fn(bevy_ecs::system::system_param::Local&lt;&#39;_, bevy_ecs::change_detection::tick::Tick&gt;), (), bevy_ecs::message::update::message_update_system&gt;()) → clear_screenshots">
<path fill="none" stroke="#0090cc" stroke-width="2" d="M207.02,-50.99C215.79,-50.44 224.64,-49.88 233.3,-49.33"/>
<polygon fill="#0090cc" stroke="#0090cc" stroke-width="2" points="233.5,-52.82 243.26,-48.69 233.06,-45.84 233.5,-52.82"/>
</a>
</g>
</g>
<!-- set_marker_node_Set(SystemSetKey(4v1)) -->
<!-- set_marker_node_Set(SystemSetKey(4v1))&#45;&gt;set_marker_node_Set(SystemSetKey(10v1)) -->
<g id="edge5" class="edge">
<title>set_marker_node_Set(SystemSetKey(4v1))&#45;&gt;set_marker_node_Set(SystemSetKey(10v1))</title>
<g id="a_edge5"><a xlink:title="TimeSystems → Input">
<path fill="none" stroke="#44d488" stroke-width="2" d="M171.25,-154C187.09,-154 204.63,-154 221.91,-154"/>
<polygon fill="#44d488" stroke="#44d488" stroke-width="2" points="221.73,-157.5 231.73,-154 221.73,-150.5 221.73,-157.5"/>
</a>
</g>
</g>
<!-- node_System(SystemKey(2v1)) -->
<g id="node4" class="node">
<title>node_System(SystemKey(2v1))</title>
<g id="a_node4"><a xlink:title="bevy_time::time_system">
<polygon fill="#c7ddbd" stroke="#8dba79" points="163.25,-203 59.5,-203 59.5,-167 163.25,-167 163.25,-203"/>
<text xml:space="preserve" text-anchor="middle" x="111.38" y="-180.32" font-family="Helvetica,sans-Serif" font-size="14.00" fill="#162111">time_system</text>
</a>
</g>
</g>
<!-- set_marker_node_Set(SystemSetKey(8v1)) -->
<!-- node_System(SystemKey(4v1)) -->
<g id="node6" class="node">
<title>node_System(SystemKey(4v1))</title>
<g id="a_node6"><a xlink:title="bevy_ui::widget::viewport::viewport_picking">
<polygon fill="#ffb1e5" stroke="#ff4bc2" points="568,-103 435,-103 435,-67 568,-67 568,-103"/>
<text xml:space="preserve" text-anchor="middle" x="501.5" y="-80.33" font-family="Helvetica,sans-Serif" font-size="14.00" fill="#320021">viewport_picking</text>
</a>
</g>
</g>
<!-- set_marker_node_Set(SystemSetKey(10v1))&#45;&gt;set_marker_node_Set(SystemSetKey(8v1)) -->
<g id="edge2" class="edge">
<title>set_marker_node_Set(SystemSetKey(10v1))&#45;&gt;set_marker_node_Set(SystemSetKey(8v1))</title>
<g id="a_edge2"><a xlink:title="Input → PostInput">
<path fill="none" stroke="#881877" stroke-width="2" d="M327.23,-144C342.14,-126.08 376.28,-88.4 415.56,-67.52"/>
<polygon fill="#881877" stroke="#881877" stroke-width="2" points="416.79,-70.81 424.27,-63.32 413.75,-64.51 416.79,-70.81"/>
</a>
</g>
</g>
<!-- node_System(SystemKey(5v1)) -->
<g id="node8" class="node">
<title>node_System(SystemKey(5v1))</title>
<g id="a_node8"><a xlink:title="bevy_picking::input::mouse_pick_events">
<polygon fill="#eff1f3" stroke="#b4bec7" points="393.75,-203 242.75,-203 242.75,-167 393.75,-167 393.75,-203"/>
<text xml:space="preserve" text-anchor="middle" x="318.25" y="-180.32" font-family="Helvetica,sans-Serif" font-size="14.00" fill="#15191d">mouse_pick_events</text>
</a>
</g>
</g>
<!-- node_System(SystemKey(6v1)) -->
<g id="node9" class="node">
<title>node_System(SystemKey(6v1))</title>
<g id="a_node9"><a xlink:title="bevy_picking::input::touch_pick_events">
<polygon fill="#eff1f3" stroke="#b4bec7" points="573.25,-203 429.75,-203 429.75,-167 573.25,-167 573.25,-203"/>
<text xml:space="preserve" text-anchor="middle" x="501.5" y="-180.32" font-family="Helvetica,sans-Serif" font-size="14.00" fill="#15191d">touch_pick_events</text>
</a>
</g>
</g>
<!-- node_System(SystemKey(5v1))&#45;&gt;node_System(SystemKey(6v1)) -->
<g id="edge4" class="edge">
<title>node_System(SystemKey(5v1))&#45;&gt;node_System(SystemKey(6v1))</title>
<g id="a_edge4"><a xlink:title="mouse_pick_events → touch_pick_events">
<path fill="none" stroke="#aa3a55" stroke-width="2" d="M394.02,-185C401.42,-185 408.97,-185 416.46,-185"/>
<polygon fill="#aa3a55" stroke="#aa3a55" stroke-width="2" points="416.37,-188.5 426.37,-185 416.37,-181.5 416.37,-188.5"/>
</a>
</g>
</g>
<!-- ApplyDeferred -->
<g id="node12" class="node">
<title>ApplyDeferred</title>
<polygon fill="lightgrey" stroke="black" points="561.62,-36 441.38,-36 441.38,0 561.62,0 561.62,-36"/>
<text xml:space="preserve" text-anchor="middle" x="501.5" y="-13.32" font-family="Times,serif" font-size="14.00">ApplyDeferred</text>
</g>
<!-- node_System(SystemKey(3v1))&#45;&gt;ApplyDeferred -->
<g id="edge3" class="edge">
<title>node_System(SystemKey(3v1))&#45;&gt;ApplyDeferred</title>
<g id="a_edge3"><a xlink:title="clear_screenshots → SystemTypeSet(fn bevy_ecs::schedule::executor::ApplyDeferred())">
<path fill="none" stroke="#00b0cc" stroke-width="2" d="M390.36,-33.8C402.8,-32.01 415.76,-30.16 428.23,-28.37"/>
<polygon fill="#00b0cc" stroke="#00b0cc" stroke-width="2" points="428.61,-31.85 438.01,-26.96 427.62,-24.92 428.61,-31.85"/>
</a>
</g>
</g>
<!-- node_System(SystemKey(7v1)) -->
<g id="node11" class="node">
<title>node_System(SystemKey(7v1))</title>
<g id="a_node11"><a xlink:title="bevy_ecs::apply_deferred">
<polygon fill="lightgrey" stroke="black" points="173,-280 49.75,-280 49.75,-244 173,-244 173,-280"/>
<text xml:space="preserve" text-anchor="middle" x="111.38" y="-257.32" font-family="Times,serif" font-size="14.00">apply_deferred</text>
</a>
</g>
</g>
</g>
</svg>
