<?xml version="1.0" encoding="UTF-8" standalone="no"?>
<!DOCTYPE svg PUBLIC "-//W3C//DTD SVG 1.1//EN"
 "http://www.w3.org/Graphics/SVG/1.1/DTD/svg11.dtd">
<!-- Generated by graphviz version 9.0.0 (0)
 -->
<!-- Pages: 1 -->
<svg width="349pt" height="398pt"
 viewBox="0.00 0.00 348.50 398.00" xmlns="http://www.w3.org/2000/svg" xmlns:xlink="http://www.w3.org/1999/xlink">
<g id="graph0" class="graph" transform="scale(1 1) rotate(0) translate(4 394)">
<polygon fill="white" stroke="none" points="-4,4 -4,-394 344.5,-394 344.5,4 -4,4"/>
<g id="clust1" class="cluster">
<title>clusternode_Set(1)</title>
<g id="a_clust1"><a xlink:title="TransformPropagate">
<path fill="#000000" fill-opacity="0.031373" stroke="#000000" stroke-width="2" stroke-opacity="0.250980" d="M81.75,-8C81.75,-8 258.75,-8 258.75,-8 264.75,-8 270.75,-14 270.75,-20 270.75,-20 270.75,-180 270.75,-180 270.75,-186 264.75,-192 258.75,-192 258.75,-192 81.75,-192 81.75,-192 75.75,-192 69.75,-186 69.75,-180 69.75,-180 69.75,-20 69.75,-20 69.75,-14 75.75,-8 81.75,-8"/>
<text text-anchor="middle" x="170.25" y="-174.7" font-family="Helvetica,sans-Serif" font-size="14.00" fill="#000000">TransformPropagate</text>
</a>
</g>
</g>
<g id="clust2" class="cluster">
<title>clusternode_Set(0)</title>
<g id="a_clust2"><a xlink:title="PropagateTransformsSet">
<path fill="#000000" fill-opacity="0.031373" stroke="#000000" stroke-width="2" stroke-opacity="0.250980" d="M89.75,-71C89.75,-71 250.75,-71 250.75,-71 256.75,-71 262.75,-77 262.75,-83 262.75,-83 262.75,-147 262.75,-147 262.75,-153 256.75,-159 250.75,-159 250.75,-159 89.75,-159 89.75,-159 83.75,-159 77.75,-153 77.75,-147 77.75,-147 77.75,-83 77.75,-83 77.75,-77 83.75,-71 89.75,-71"/>
<text text-anchor="middle" x="170.25" y="-141.7" font-family="Helvetica,sans-Serif" font-size="14.00" fill="#000000">PropagateTransformsSet</text>
</a>
</g>
</g>
<g id="clust3" class="cluster">
<title>clusternode_Set(5)</title>
<g id="a_clust3"><a xlink:title="CameraUpdateSystem">
<path fill="#000000" fill-opacity="0.031373" stroke="#000000" stroke-width="2" stroke-opacity="0.250980" d="M20,-200C20,-200 320.5,-200 320.5,-200 326.5,-200 332.5,-206 332.5,-212 332.5,-212 332.5,-370 332.5,-370 332.5,-376 326.5,-382 320.5,-382 320.5,-382 20,-382 20,-382 14,-382 8,-376 8,-370 8,-370 8,-212 8,-212 8,-206 14,-200 20,-200"/>
<text text-anchor="middle" x="170.25" y="-364.7" font-family="Helvetica,sans-Serif" font-size="14.00" fill="#000000">CameraUpdateSystem</text>
</a>
</g>
</g>
<!-- set_marker_node_Set(1) -->
<!-- set_marker_node_Set(0) -->
<!-- node_System(1) -->
<g id="node3" class="node">
<title>node_System(1)</title>
<g id="a_node3"><a xlink:title="bevy_transform::systems::propagate_transforms">
<polygon fill="#ffe7b9" stroke="#ffc453" points="254.75,-115 85.75,-115 85.75,-79 254.75,-79 254.75,-115"/>
<text text-anchor="middle" x="170.25" y="-92.33" font-family="Helvetica,sans-Serif" font-size="14.00" fill="#322100">propagate_transforms</text>
</a>
</g>
</g>
<!-- node_System(0) -->
<g id="node4" class="node">
<title>node_System(0)</title>
<g id="a_node4"><a xlink:title="bevy_transform::systems::sync_simple_transforms">
<polygon fill="#ffe7b9" stroke="#ffc453" points="261.88,-52 78.62,-52 78.62,-16 261.88,-16 261.88,-52"/>
<text text-anchor="middle" x="170.25" y="-29.32" font-family="Helvetica,sans-Serif" font-size="14.00" fill="#322100">sync_simple_transforms</text>
</a>
</g>
</g>
<!-- set_marker_node_Set(5) -->
<!-- node_System(2) -->
<g id="node6" class="node">
<title>node_System(2)</title>
<g id="a_node6"><a xlink:title="bevy_render::camera::camera::camera_system&lt;bevy_render::camera::projection::Projection&gt;">
<polygon fill="#70b9fc" stroke="#0c88f9" points="278.38,-338 62.12,-338 62.12,-302 278.38,-302 278.38,-338"/>
<text text-anchor="middle" x="170.25" y="-315.32" font-family="Helvetica,sans-Serif" font-size="14.00" fill="#011a31">camera_system&lt;Projection&gt;</text>
</a>
</g>
</g>
<!-- node_System(3) -->
<g id="node7" class="node">
<title>node_System(3)</title>
<g id="a_node7"><a xlink:title="bevy_render::camera::camera::camera_system&lt;bevy_render::camera::projection::OrthographicProjection&gt;">
<polygon fill="#70b9fc" stroke="#0c88f9" points="324.5,-291 16,-291 16,-255 324.5,-255 324.5,-291"/>
<text text-anchor="middle" x="170.25" y="-268.32" font-family="Helvetica,sans-Serif" font-size="14.00" fill="#011a31">camera_system&lt;OrthographicProjection&gt;</text>
</a>
</g>
</g>
<!-- node_System(4) -->
<g id="node8" class="node">
<title>node_System(4)</title>
<g id="a_node8"><a xlink:title="bevy_render::camera::camera::camera_system&lt;bevy_render::camera::projection::PerspectiveProjection&gt;">
<polygon fill="#70b9fc" stroke="#0c88f9" points="318.5,-244 22,-244 22,-208 318.5,-208 318.5,-244"/>
<text text-anchor="middle" x="170.25" y="-221.32" font-family="Helvetica,sans-Serif" font-size="14.00" fill="#011a31">camera_system&lt;PerspectiveProjection&gt;</text>
</a>
</g>
</g>
</g>
</svg>
