<?xml version="1.0" encoding="UTF-8" standalone="no"?>
<!DOCTYPE svg PUBLIC "-//W3C//DTD SVG 1.1//EN"
 "http://www.w3.org/Graphics/SVG/1.1/DTD/svg11.dtd">
<!-- Generated by graphviz version 13.1.2 (20250808.2320)
 -->
<!-- Pages: 1 -->
<svg width="573pt" height="1054pt"
 viewBox="0.00 0.00 573.00 1054.00" xmlns="http://www.w3.org/2000/svg" xmlns:xlink="http://www.w3.org/1999/xlink">
<g id="graph0" class="graph" transform="scale(1 1) rotate(0) translate(4 1050)">
<polygon fill="white" stroke="none" points="-4,4 -4,-1050 568.75,-1050 568.75,4 -4,4"/>
<g id="clust1" class="cluster">
<title>clusternode_Set(1)</title>
<g id="a_clust1"><a xlink:title="TrackAssets">
<path fill="#000000" fill-opacity="0.031373" stroke="#000000" stroke-width="2" stroke-opacity="0.250980" d="M214.25,-9C214.25,-9 544.75,-9 544.75,-9 550.75,-9 556.75,-15 556.75,-21 556.75,-21 556.75,-1026 556.75,-1026 556.75,-1032 550.75,-1038 544.75,-1038 544.75,-1038 214.25,-1038 214.25,-1038 208.25,-1038 202.25,-1032 202.25,-1026 202.25,-1026 202.25,-21 202.25,-21 202.25,-15 208.25,-9 214.25,-9"/>
<text xml:space="preserve" text-anchor="middle" x="379.5" y="-1020.7" font-family="Helvetica,sans-Serif" font-size="14.00" fill="#000000">TrackAssets</text>
</a>
</g>
</g>
<!-- set_marker_node_Set(1) -->
<!-- node_System(0) -->
<g id="node2" class="node">
<title>node_System(0)</title>
<g id="a_node2"><a xlink:title="bevy_asset::assets::Assets&lt;bevy_asset::folder::LoadedFolder&gt;::track_assets">
<polygon fill="#d1cbc5" stroke="#a3978c" points="495.5,-66 263.5,-66 263.5,-30 495.5,-30 495.5,-66"/>
<text xml:space="preserve" text-anchor="middle" x="379.5" y="-42.58" font-family="Helvetica,sans-Serif" font-size="14.00" fill="#1c1916">Assets&lt;LoadedFolder&gt;track_assets</text>
</a>
</g>
</g>
<!-- node_System(1) -->
<g id="node3" class="node">
<title>node_System(1)</title>
<g id="a_node3"><a xlink:title="bevy_asset::assets::Assets&lt;bevy_asset::assets::LoadedUntypedAsset&gt;::track_assets">
<polygon fill="#d1cbc5" stroke="#a3978c" points="518.38,-113 240.62,-113 240.62,-77 518.38,-77 518.38,-113"/>
<text xml:space="preserve" text-anchor="middle" x="379.5" y="-89.58" font-family="Helvetica,sans-Serif" font-size="14.00" fill="#1c1916">Assets&lt;LoadedUntypedAsset&gt;track_assets</text>
</a>
</g>
</g>
<!-- node_System(2) -->
<g id="node4" class="node">
<title>node_System(2)</title>
<g id="a_node4"><a xlink:title="bevy_asset::assets::Assets&lt;()&gt;::track_assets">
<polygon fill="#d1cbc5" stroke="#a3978c" points="458.38,-160 300.62,-160 300.62,-124 458.38,-124 458.38,-160"/>
<text xml:space="preserve" text-anchor="middle" x="379.5" y="-136.57" font-family="Helvetica,sans-Serif" font-size="14.00" fill="#1c1916">Assets&lt;()&gt;track_assets</text>
</a>
</g>
</g>
<!-- node_System(4) -->
<g id="node5" class="node">
<title>node_System(4)</title>
<g id="a_node5"><a xlink:title="bevy_asset::assets::Assets&lt;bevy_scene::dynamic_scene::DynamicScene&gt;::track_assets">
<polygon fill="#d1cbc5" stroke="#a3978c" points="499.62,-207 259.38,-207 259.38,-171 499.62,-171 499.62,-207"/>
<text xml:space="preserve" text-anchor="middle" x="379.5" y="-183.57" font-family="Helvetica,sans-Serif" font-size="14.00" fill="#1c1916">Assets&lt;DynamicScene&gt;track_assets</text>
</a>
</g>
</g>
<!-- node_System(5) -->
<g id="node6" class="node">
<title>node_System(5)</title>
<g id="a_node6"><a xlink:title="bevy_asset::assets::Assets&lt;bevy_scene::scene::Scene&gt;::track_assets">
<polygon fill="#d1cbc5" stroke="#a3978c" points="473,-254 286,-254 286,-218 473,-218 473,-254"/>
<text xml:space="preserve" text-anchor="middle" x="379.5" y="-230.57" font-family="Helvetica,sans-Serif" font-size="14.00" fill="#1c1916">Assets&lt;Scene&gt;track_assets</text>
</a>
</g>
</g>
<!-- node_System(6) -->
<g id="node7" class="node">
<title>node_System(6)</title>
<g id="a_node7"><a xlink:title="bevy_asset::assets::Assets&lt;bevy_render::render_resource::shader::Shader&gt;::track_assets">
<polygon fill="#d1cbc5" stroke="#a3978c" points="475.62,-301 283.38,-301 283.38,-265 475.62,-265 475.62,-301"/>
<text xml:space="preserve" text-anchor="middle" x="379.5" y="-277.57" font-family="Helvetica,sans-Serif" font-size="14.00" fill="#1c1916">Assets&lt;Shader&gt;track_assets</text>
</a>
</g>
</g>
<!-- node_System(7) -->
<g id="node8" class="node">
<title>node_System(7)</title>
<g id="a_node8"><a xlink:title="bevy_asset::assets::Assets&lt;bevy_render::mesh::mesh::Mesh&gt;::track_assets">
<polygon fill="#d1cbc5" stroke="#a3978c" points="470.75,-348 288.25,-348 288.25,-312 470.75,-312 470.75,-348"/>
<text xml:space="preserve" text-anchor="middle" x="379.5" y="-324.57" font-family="Helvetica,sans-Serif" font-size="14.00" fill="#1c1916">Assets&lt;Mesh&gt;track_assets</text>
</a>
</g>
</g>
<!-- node_System(8) -->
<g id="node9" class="node">
<title>node_System(8)</title>
<g id="a_node9"><a xlink:title="bevy_asset::assets::Assets&lt;bevy_render::mesh::mesh::skinning::SkinnedMeshInverseBindposes&gt;::track_assets">
<polygon fill="#d1cbc5" stroke="#a3978c" points="548.75,-395 210.25,-395 210.25,-359 548.75,-359 548.75,-395"/>
<text xml:space="preserve" text-anchor="middle" x="379.5" y="-371.57" font-family="Helvetica,sans-Serif" font-size="14.00" fill="#1c1916">Assets&lt;SkinnedMeshInverseBindposes&gt;track_assets</text>
</a>
</g>
</g>
<!-- node_System(9) -->
<g id="node10" class="node">
<title>node_System(9)</title>
<g id="a_node10"><a xlink:title="bevy_asset::assets::Assets&lt;bevy_render::texture::image::Image&gt;::track_assets">
<polygon fill="#d1cbc5" stroke="#a3978c" points="473,-442 286,-442 286,-406 473,-406 473,-442"/>
<text xml:space="preserve" text-anchor="middle" x="379.5" y="-418.57" font-family="Helvetica,sans-Serif" font-size="14.00" fill="#1c1916">Assets&lt;Image&gt;track_assets</text>
</a>
</g>
</g>
<!-- node_System(10) -->
<g id="node11" class="node">
<title>node_System(10)</title>
<g id="a_node11"><a xlink:title="bevy_asset::assets::Assets&lt;bevy_sprite::texture_atlas::TextureAtlasLayout&gt;::track_assets">
<polygon fill="#d1cbc5" stroke="#a3978c" points="511.25,-489 247.75,-489 247.75,-453 511.25,-453 511.25,-489"/>
<text xml:space="preserve" text-anchor="middle" x="379.5" y="-465.57" font-family="Helvetica,sans-Serif" font-size="14.00" fill="#1c1916">Assets&lt;TextureAtlasLayout&gt;track_assets</text>
</a>
</g>
</g>
<!-- node_System(11) -->
<g id="node12" class="node">
<title>node_System(11)</title>
<g id="a_node12"><a xlink:title="bevy_asset::assets::Assets&lt;bevy_sprite::mesh2d::color_material::ColorMaterial&gt;::track_assets">
<polygon fill="#d1cbc5" stroke="#a3978c" points="494.38,-536 264.62,-536 264.62,-500 494.38,-500 494.38,-536"/>
<text xml:space="preserve" text-anchor="middle" x="379.5" y="-512.58" font-family="Helvetica,sans-Serif" font-size="14.00" fill="#1c1916">Assets&lt;ColorMaterial&gt;track_assets</text>
</a>
</g>
</g>
<!-- node_System(12) -->
<g id="node13" class="node">
<title>node_System(12)</title>
<g id="a_node13"><a xlink:title="bevy_asset::assets::Assets&lt;bevy_text::font::Font&gt;::track_assets">
<polygon fill="#d1cbc5" stroke="#a3978c" points="467.38,-583 291.62,-583 291.62,-547 467.38,-547 467.38,-583"/>
<text xml:space="preserve" text-anchor="middle" x="379.5" y="-559.58" font-family="Helvetica,sans-Serif" font-size="14.00" fill="#1c1916">Assets&lt;Font&gt;track_assets</text>
</a>
</g>
</g>
<!-- node_System(13) -->
<g id="node14" class="node">
<title>node_System(13)</title>
<g id="a_node14"><a xlink:title="bevy_asset::assets::Assets&lt;bevy_pbr::pbr_material::StandardMaterial&gt;::track_assets">
<polygon fill="#d1cbc5" stroke="#a3978c" points="505.62,-630 253.38,-630 253.38,-594 505.62,-594 505.62,-630"/>
<text xml:space="preserve" text-anchor="middle" x="379.5" y="-606.58" font-family="Helvetica,sans-Serif" font-size="14.00" fill="#1c1916">Assets&lt;StandardMaterial&gt;track_assets</text>
</a>
</g>
</g>
<!-- node_System(14) -->
<g id="node15" class="node">
<title>node_System(14)</title>
<g id="a_node15"><a xlink:title="bevy_asset::assets::Assets&lt;bevy_gltf::Gltf&gt;::track_assets">
<polygon fill="#d1cbc5" stroke="#a3978c" points="464.75,-677 294.25,-677 294.25,-641 464.75,-641 464.75,-677"/>
<text xml:space="preserve" text-anchor="middle" x="379.5" y="-653.58" font-family="Helvetica,sans-Serif" font-size="14.00" fill="#1c1916">Assets&lt;Gltf&gt;track_assets</text>
</a>
</g>
</g>
<!-- node_System(15) -->
<g id="node16" class="node">
<title>node_System(15)</title>
<g id="a_node16"><a xlink:title="bevy_asset::assets::Assets&lt;bevy_gltf::GltfNode&gt;::track_assets">
<polygon fill="#d1cbc5" stroke="#a3978c" points="480.88,-724 278.12,-724 278.12,-688 480.88,-688 480.88,-724"/>
<text xml:space="preserve" text-anchor="middle" x="379.5" y="-700.58" font-family="Helvetica,sans-Serif" font-size="14.00" fill="#1c1916">Assets&lt;GltfNode&gt;track_assets</text>
</a>
</g>
</g>
<!-- node_System(16) -->
<g id="node17" class="node">
<title>node_System(16)</title>
<g id="a_node17"><a xlink:title="bevy_asset::assets::Assets&lt;bevy_gltf::GltfPrimitive&gt;::track_assets">
<polygon fill="#d1cbc5" stroke="#a3978c" points="491,-771 268,-771 268,-735 491,-735 491,-771"/>
<text xml:space="preserve" text-anchor="middle" x="379.5" y="-747.58" font-family="Helvetica,sans-Serif" font-size="14.00" fill="#1c1916">Assets&lt;GltfPrimitive&gt;track_assets</text>
</a>
</g>
</g>
<!-- node_System(17) -->
<g id="node18" class="node">
<title>node_System(17)</title>
<g id="a_node18"><a xlink:title="bevy_asset::assets::Assets&lt;bevy_gltf::GltfMesh&gt;::track_assets">
<polygon fill="#d1cbc5" stroke="#a3978c" points="481.62,-818 277.38,-818 277.38,-782 481.62,-782 481.62,-818"/>
<text xml:space="preserve" text-anchor="middle" x="379.5" y="-794.58" font-family="Helvetica,sans-Serif" font-size="14.00" fill="#1c1916">Assets&lt;GltfMesh&gt;track_assets</text>
</a>
</g>
</g>
<!-- node_System(18) -->
<g id="node19" class="node">
<title>node_System(18)</title>
<g id="a_node19"><a xlink:title="bevy_asset::assets::Assets&lt;bevy_audio::audio_source::AudioSource&gt;::track_assets">
<polygon fill="#d1cbc5" stroke="#a3978c" points="492.5,-865 266.5,-865 266.5,-829 492.5,-829 492.5,-865"/>
<text xml:space="preserve" text-anchor="middle" x="379.5" y="-841.58" font-family="Helvetica,sans-Serif" font-size="14.00" fill="#1c1916">Assets&lt;AudioSource&gt;track_assets</text>
</a>
</g>
</g>
<!-- node_System(19) -->
<g id="node20" class="node">
<title>node_System(19)</title>
<g id="a_node20"><a xlink:title="bevy_asset::assets::Assets&lt;bevy_audio::pitch::Pitch&gt;::track_assets">
<polygon fill="#d1cbc5" stroke="#a3978c" points="468.88,-912 290.12,-912 290.12,-876 468.88,-876 468.88,-912"/>
<text xml:space="preserve" text-anchor="middle" x="379.5" y="-888.58" font-family="Helvetica,sans-Serif" font-size="14.00" fill="#1c1916">Assets&lt;Pitch&gt;track_assets</text>
</a>
</g>
</g>
<!-- node_System(20) -->
<g id="node21" class="node">
<title>node_System(20)</title>
<g id="a_node21"><a xlink:title="bevy_asset::assets::Assets&lt;bevy_animation::AnimationClip&gt;::track_assets">
<polygon fill="#d1cbc5" stroke="#a3978c" points="495.88,-959 263.12,-959 263.12,-923 495.88,-923 495.88,-959"/>
<text xml:space="preserve" text-anchor="middle" x="379.5" y="-935.58" font-family="Helvetica,sans-Serif" font-size="14.00" fill="#1c1916">Assets&lt;AnimationClip&gt;track_assets</text>
</a>
</g>
</g>
<!-- node_System(21) -->
<g id="node22" class="node">
<title>node_System(21)</title>
<g id="a_node22"><a xlink:title="bevy_asset::assets::Assets&lt;bevy_gizmos::LineGizmo&gt;::track_assets">
<polygon fill="#d1cbc5" stroke="#a3978c" points="486.88,-1006 272.12,-1006 272.12,-970 486.88,-970 486.88,-1006"/>
<text xml:space="preserve" text-anchor="middle" x="379.5" y="-982.58" font-family="Helvetica,sans-Serif" font-size="14.00" fill="#1c1916">Assets&lt;LineGizmo&gt;track_assets</text>
</a>
</g>
</g>
<!-- node_System(3) -->
<g id="node23" class="node">
<title>node_System(3)</title>
<g id="a_node23"><a xlink:title="bevy_asset::server::handle_internal_asset_events">
<polygon fill="lightgrey" stroke="black" points="174.25,-36 0,-36 0,0 174.25,0 174.25,-36"/>
<text xml:space="preserve" text-anchor="middle" x="87.12" y="-12.95" font-family="Times,serif" font-size="14.00">handle_internal_asset_events</text>
</a>
</g>
</g>
<!-- node_System(3)&#45;&gt;set_marker_node_Set(1) -->
<g id="edge1" class="edge">
<title>node_System(3)&#45;&gt;set_marker_node_Set(1)</title>
<g id="a_edge1"><a xlink:title="SystemTypeSet(ExclusiveFunctionSystem&lt;fn(), handle_internal_asset_events&gt;()) → TrackAssets">
<path fill="none" stroke="#eede00" stroke-width="2" d="M174.46,-18C179.36,-18 184.37,-18 189.46,-18"/>
<polygon fill="#eede00" stroke="#eede00" stroke-width="2" points="189.23,-21.5 199.23,-18 189.23,-14.5 189.23,-21.5"/>
</a>
</g>
</g>
</g>
</svg>
