<?xml version="1.0" encoding="UTF-8" standalone="no"?>
<!DOCTYPE svg PUBLIC "-//W3C//DTD SVG 1.1//EN"
 "http://www.w3.org/Graphics/SVG/1.1/DTD/svg11.dtd">
<!-- Generated by graphviz version 14.1.1 (0)
 -->
<!-- Pages: 1 -->
<svg width="410pt" height="984pt"
 viewBox="0.00 0.00 410.00 984.00" xmlns="http://www.w3.org/2000/svg" xmlns:xlink="http://www.w3.org/1999/xlink">
<g id="graph0" class="graph" transform="scale(1 1) rotate(0) translate(4 980)">
<polygon fill="white" stroke="none" points="-4,4 -4,-980 405.5,-980 405.5,4 -4,4"/>
<!-- node_System(0) -->
<g id="node1" class="node">
<title>node_System(0)</title>
<g id="a_node1"><a xlink:title="bevy_asset::assets::Assets&lt;bevy_asset::folder::LoadedFolder&gt;::asset_events">
<polygon fill="lightgrey" stroke="black" points="338.5,-36 63,-36 63,0 338.5,0 338.5,-36"/>
<text xml:space="preserve" text-anchor="middle" x="200.75" y="-13.32" font-family="Times,serif" font-size="14.00">Assets&lt;LoadedFolder&gt;asset_events</text>
</a>
</g>
</g>
<!-- node_System(1) -->
<g id="node2" class="node">
<title>node_System(1)</title>
<g id="a_node2"><a xlink:title="bevy_asset::assets::Assets&lt;bevy_asset::assets::LoadedUntypedAsset&gt;::asset_events">
<polygon fill="lightgrey" stroke="black" points="365.88,-83 35.62,-83 35.62,-47 365.88,-47 365.88,-83"/>
<text xml:space="preserve" text-anchor="middle" x="200.75" y="-60.33" font-family="Times,serif" font-size="14.00">Assets&lt;LoadedUntypedAsset&gt;asset_events</text>
</a>
</g>
</g>
<!-- node_System(2) -->
<g id="node3" class="node">
<title>node_System(2)</title>
<g id="a_node3"><a xlink:title="bevy_asset::assets::Assets&lt;()&gt;::asset_events">
<polygon fill="lightgrey" stroke="black" points="295,-130 106.5,-130 106.5,-94 295,-94 295,-130"/>
<text xml:space="preserve" text-anchor="middle" x="200.75" y="-107.33" font-family="Times,serif" font-size="14.00">Assets&lt;()&gt;asset_events</text>
</a>
</g>
</g>
<!-- node_System(3) -->
<g id="node4" class="node">
<title>node_System(3)</title>
<g id="a_node4"><a xlink:title="bevy_asset::assets::Assets&lt;bevy_scene::dynamic_scene::DynamicScene&gt;::asset_events">
<polygon fill="lightgrey" stroke="black" points="342.25,-177 59.25,-177 59.25,-141 342.25,-141 342.25,-177"/>
<text xml:space="preserve" text-anchor="middle" x="200.75" y="-154.32" font-family="Times,serif" font-size="14.00">Assets&lt;DynamicScene&gt;asset_events</text>
</a>
</g>
</g>
<!-- node_System(4) -->
<g id="node5" class="node">
<title>node_System(4)</title>
<g id="a_node5"><a xlink:title="bevy_asset::assets::Assets&lt;bevy_scene::scene::Scene&gt;::asset_events">
<polygon fill="lightgrey" stroke="black" points="311.12,-224 90.38,-224 90.38,-188 311.12,-188 311.12,-224"/>
<text xml:space="preserve" text-anchor="middle" x="200.75" y="-201.32" font-family="Times,serif" font-size="14.00">Assets&lt;Scene&gt;asset_events</text>
</a>
</g>
</g>
<!-- node_System(5) -->
<g id="node6" class="node">
<title>node_System(5)</title>
<g id="a_node6"><a xlink:title="bevy_asset::assets::Assets&lt;bevy_render::render_resource::shader::Shader&gt;::asset_events">
<polygon fill="lightgrey" stroke="black" points="315.25,-271 86.25,-271 86.25,-235 315.25,-235 315.25,-271"/>
<text xml:space="preserve" text-anchor="middle" x="200.75" y="-248.32" font-family="Times,serif" font-size="14.00">Assets&lt;Shader&gt;asset_events</text>
</a>
</g>
</g>
<!-- node_System(6) -->
<g id="node7" class="node">
<title>node_System(6)</title>
<g id="a_node7"><a xlink:title="bevy_asset::assets::Assets&lt;bevy_render::mesh::mesh::Mesh&gt;::asset_events">
<polygon fill="lightgrey" stroke="black" points="309.25,-318 92.25,-318 92.25,-282 309.25,-282 309.25,-318"/>
<text xml:space="preserve" text-anchor="middle" x="200.75" y="-295.32" font-family="Times,serif" font-size="14.00">Assets&lt;Mesh&gt;asset_events</text>
</a>
</g>
</g>
<!-- node_System(7) -->
<g id="node8" class="node">
<title>node_System(7)</title>
<g id="a_node8"><a xlink:title="bevy_asset::assets::Assets&lt;bevy_render::mesh::mesh::skinning::SkinnedMeshInverseBindposes&gt;::asset_events">
<polygon fill="lightgrey" stroke="black" points="401.5,-365 0,-365 0,-329 401.5,-329 401.5,-365"/>
<text xml:space="preserve" text-anchor="middle" x="200.75" y="-342.32" font-family="Times,serif" font-size="14.00">Assets&lt;SkinnedMeshInverseBindposes&gt;asset_events</text>
</a>
</g>
</g>
<!-- node_System(8) -->
<g id="node9" class="node">
<title>node_System(8)</title>
<g id="a_node9"><a xlink:title="bevy_asset::assets::Assets&lt;bevy_render::texture::image::Image&gt;::asset_events">
<polygon fill="lightgrey" stroke="black" points="311.88,-412 89.62,-412 89.62,-376 311.88,-376 311.88,-412"/>
<text xml:space="preserve" text-anchor="middle" x="200.75" y="-389.32" font-family="Times,serif" font-size="14.00">Assets&lt;Image&gt;asset_events</text>
</a>
</g>
</g>
<!-- node_System(9) -->
<g id="node10" class="node">
<title>node_System(9)</title>
<g id="a_node10"><a xlink:title="bevy_asset::assets::Assets&lt;bevy_sprite::texture_atlas::TextureAtlasLayout&gt;::asset_events">
<polygon fill="lightgrey" stroke="black" points="359.5,-459 42,-459 42,-423 359.5,-423 359.5,-459"/>
<text xml:space="preserve" text-anchor="middle" x="200.75" y="-436.32" font-family="Times,serif" font-size="14.00">Assets&lt;TextureAtlasLayout&gt;asset_events</text>
</a>
</g>
</g>
<!-- node_System(10) -->
<g id="node11" class="node">
<title>node_System(10)</title>
<g id="a_node11"><a xlink:title="bevy_asset::assets::Assets&lt;bevy_sprite::mesh2d::color_material::ColorMaterial&gt;::asset_events">
<polygon fill="lightgrey" stroke="black" points="339.25,-506 62.25,-506 62.25,-470 339.25,-470 339.25,-506"/>
<text xml:space="preserve" text-anchor="middle" x="200.75" y="-483.32" font-family="Times,serif" font-size="14.00">Assets&lt;ColorMaterial&gt;asset_events</text>
</a>
</g>
</g>
<!-- node_System(11) -->
<g id="node12" class="node">
<title>node_System(11)</title>
<g id="a_node12"><a xlink:title="bevy_asset::assets::Assets&lt;bevy_text::font::Font&gt;::asset_events">
<polygon fill="lightgrey" stroke="black" points="305.88,-553 95.62,-553 95.62,-517 305.88,-517 305.88,-553"/>
<text xml:space="preserve" text-anchor="middle" x="200.75" y="-530.33" font-family="Times,serif" font-size="14.00">Assets&lt;Font&gt;asset_events</text>
</a>
</g>
</g>
<!-- node_System(12) -->
<g id="node13" class="node">
<title>node_System(12)</title>
<g id="a_node13"><a xlink:title="bevy_asset::assets::Assets&lt;bevy_pbr::pbr_material::StandardMaterial&gt;::asset_events">
<polygon fill="lightgrey" stroke="black" points="353.12,-600 48.38,-600 48.38,-564 353.12,-564 353.12,-600"/>
<text xml:space="preserve" text-anchor="middle" x="200.75" y="-577.33" font-family="Times,serif" font-size="14.00">Assets&lt;StandardMaterial&gt;asset_events</text>
</a>
</g>
</g>
<!-- node_System(13) -->
<g id="node14" class="node">
<title>node_System(13)</title>
<g id="a_node14"><a xlink:title="bevy_asset::assets::Assets&lt;bevy_gltf::Gltf&gt;::asset_events">
<polygon fill="lightgrey" stroke="black" points="303.25,-647 98.25,-647 98.25,-611 303.25,-611 303.25,-647"/>
<text xml:space="preserve" text-anchor="middle" x="200.75" y="-624.33" font-family="Times,serif" font-size="14.00">Assets&lt;Gltf&gt;asset_events</text>
</a>
</g>
</g>
<!-- node_System(14) -->
<g id="node15" class="node">
<title>node_System(14)</title>
<g id="a_node15"><a xlink:title="bevy_asset::assets::Assets&lt;bevy_gltf::GltfNode&gt;::asset_events">
<polygon fill="lightgrey" stroke="black" points="322,-694 79.5,-694 79.5,-658 322,-658 322,-694"/>
<text xml:space="preserve" text-anchor="middle" x="200.75" y="-671.33" font-family="Times,serif" font-size="14.00">Assets&lt;GltfNode&gt;asset_events</text>
</a>
</g>
</g>
<!-- node_System(15) -->
<g id="node16" class="node">
<title>node_System(15)</title>
<g id="a_node16"><a xlink:title="bevy_asset::assets::Assets&lt;bevy_gltf::GltfPrimitive&gt;::asset_events">
<polygon fill="lightgrey" stroke="black" points="336.25,-741 65.25,-741 65.25,-705 336.25,-705 336.25,-741"/>
<text xml:space="preserve" text-anchor="middle" x="200.75" y="-718.33" font-family="Times,serif" font-size="14.00">Assets&lt;GltfPrimitive&gt;asset_events</text>
</a>
</g>
</g>
<!-- node_System(16) -->
<g id="node17" class="node">
<title>node_System(16)</title>
<g id="a_node17"><a xlink:title="bevy_asset::assets::Assets&lt;bevy_gltf::GltfMesh&gt;::asset_events">
<polygon fill="lightgrey" stroke="black" points="322.75,-788 78.75,-788 78.75,-752 322.75,-752 322.75,-788"/>
<text xml:space="preserve" text-anchor="middle" x="200.75" y="-765.33" font-family="Times,serif" font-size="14.00">Assets&lt;GltfMesh&gt;asset_events</text>
</a>
</g>
</g>
<!-- node_System(17) -->
<g id="node18" class="node">
<title>node_System(17)</title>
<g id="a_node18"><a xlink:title="bevy_asset::assets::Assets&lt;bevy_audio::audio_source::AudioSource&gt;::asset_events">
<polygon fill="lightgrey" stroke="black" points="334.75,-835 66.75,-835 66.75,-799 334.75,-799 334.75,-835"/>
<text xml:space="preserve" text-anchor="middle" x="200.75" y="-812.33" font-family="Times,serif" font-size="14.00">Assets&lt;AudioSource&gt;asset_events</text>
</a>
</g>
</g>
<!-- node_System(18) -->
<g id="node19" class="node">
<title>node_System(18)</title>
<g id="a_node19"><a xlink:title="bevy_asset::assets::Assets&lt;bevy_audio::pitch::Pitch&gt;::asset_events">
<polygon fill="lightgrey" stroke="black" points="308.12,-882 93.38,-882 93.38,-846 308.12,-846 308.12,-882"/>
<text xml:space="preserve" text-anchor="middle" x="200.75" y="-859.33" font-family="Times,serif" font-size="14.00">Assets&lt;Pitch&gt;asset_events</text>
</a>
</g>
</g>
<!-- node_System(19) -->
<g id="node20" class="node">
<title>node_System(19)</title>
<g id="a_node20"><a xlink:title="bevy_asset::assets::Assets&lt;bevy_animation::AnimationClip&gt;::asset_events">
<polygon fill="lightgrey" stroke="black" points="340.38,-929 61.12,-929 61.12,-893 340.38,-893 340.38,-929"/>
<text xml:space="preserve" text-anchor="middle" x="200.75" y="-906.33" font-family="Times,serif" font-size="14.00">Assets&lt;AnimationClip&gt;asset_events</text>
</a>
</g>
</g>
<!-- node_System(20) -->
<g id="node21" class="node">
<title>node_System(20)</title>
<g id="a_node21"><a xlink:title="bevy_asset::assets::Assets&lt;bevy_gizmos::LineGizmo&gt;::asset_events">
<polygon fill="lightgrey" stroke="black" points="327.62,-976 73.87,-976 73.87,-940 327.62,-940 327.62,-976"/>
<text xml:space="preserve" text-anchor="middle" x="200.75" y="-953.33" font-family="Times,serif" font-size="14.00">Assets&lt;LineGizmo&gt;asset_events</text>
</a>
</g>
</g>
</g>
</svg>
