<?xml version="1.0" encoding="UTF-8" standalone="no"?>
<!DOCTYPE svg PUBLIC "-//W3C//DTD SVG 1.1//EN"
 "http://www.w3.org/Graphics/SVG/1.1/DTD/svg11.dtd">
<!-- Generated by graphviz version 7.0.6 (0)
 -->
<!-- Title: schedule Pages: 1 -->
<svg width="1416pt" height="249pt"
 viewBox="0.00 0.00 1416.00 249.00" xmlns="http://www.w3.org/2000/svg" xmlns:xlink="http://www.w3.org/1999/xlink">
<g id="graph0" class="graph" transform="scale(1 1) rotate(0) translate(4 245)">
<title>schedule</title>
<polygon fill="white" stroke="none" points="-4,4 -4,-245 1412,-245 1412,4 -4,4"/>
<g id="clust1" class="cluster">
<title>clusternode_Set(1)</title>
<polygon fill="none" stroke="black" points="70,-55 70,-94 154,-94 154,-55 70,-55"/>
<text text-anchor="middle" x="112" y="-78.8" font-family="Times,serif" font-size="14.00">FirstFlush</text>
</g>
<g id="clust2" class="cluster">
<title>clusternode_Set(2)</title>
<polygon fill="none" stroke="black" points="284,-37 284,-76 407,-76 407,-37 284,-37"/>
<text text-anchor="middle" x="345.5" y="-60.8" font-family="Times,serif" font-size="14.00">PreUpdateFlush</text>
</g>
<g id="clust3" class="cluster">
<title>clusternode_Set(3)</title>
<polygon fill="none" stroke="black" points="777,-37 777,-76 878,-76 878,-37 777,-37"/>
<text text-anchor="middle" x="827.5" y="-60.8" font-family="Times,serif" font-size="14.00">UpdateFlush</text>
</g>
<g id="clust4" class="cluster">
<title>clusternode_Set(4)</title>
<polygon fill="none" stroke="black" points="1113,-66 1113,-105 1241,-105 1241,-66 1113,-66"/>
<text text-anchor="middle" x="1177" y="-89.8" font-family="Times,serif" font-size="14.00">PostUpdateFlush</text>
</g>
<g id="clust5" class="cluster">
<title>clusternode_Set(5)</title>
<polygon fill="none" stroke="black" points="1326,-31 1326,-70 1408,-70 1408,-31 1326,-31"/>
<text text-anchor="middle" x="1367" y="-54.8" font-family="Times,serif" font-size="14.00">LastFlush</text>
</g>
<g id="clust6" class="cluster">
<title>clusternode_Set(6)</title>
<polygon fill="none" stroke="black" points="0,-31 0,-70 47,-70 47,-31 0,-31"/>
<text text-anchor="middle" x="23.5" y="-54.8" font-family="Times,serif" font-size="14.00">First</text>
</g>
<g id="clust7" class="cluster">
<title>clusternode_Set(7)</title>
<polygon fill="none" stroke="black" points="178,-37 178,-76 264,-76 264,-37 178,-37"/>
<text text-anchor="middle" x="221" y="-60.8" font-family="Times,serif" font-size="14.00">PreUpdate</text>
</g>
<g id="clust8" class="cluster">
<title>clusternode_Set(8)</title>
<polygon fill="none" stroke="black" points="427,-37 427,-76 552,-76 552,-37 427,-37"/>
<text text-anchor="middle" x="489.5" y="-60.8" font-family="Times,serif" font-size="14.00">StateTransitions</text>
</g>
<g id="clust9" class="cluster">
<title>clusternode_Set(9)</title>
<polygon fill="none" stroke="black" points="572,-37 572,-76 673,-76 673,-37 572,-37"/>
<text text-anchor="middle" x="622.5" y="-60.8" font-family="Times,serif" font-size="14.00">FixedUpdate</text>
</g>
<g id="clust10" class="cluster">
<title>clusternode_Set(10)</title>
<polygon fill="none" stroke="black" points="693,-37 693,-76 757,-76 757,-37 693,-37"/>
<text text-anchor="middle" x="725" y="-60.8" font-family="Times,serif" font-size="14.00">Update</text>
</g>
<g id="clust11" class="cluster">
<title>clusternode_Set(11)</title>
<polygon fill="none" stroke="black" points="890,-37 890,-233 1101,-233 1101,-37 890,-37"/>
<text text-anchor="middle" x="995.5" y="-217.8" font-family="Times,serif" font-size="14.00">PostUpdate</text>
</g>
<g id="clust12" class="cluster">
<title>clusternode_Set(20)</title>
<polygon fill="none" stroke="black" points="898,-55 898,-202 1093,-202 1093,-55 898,-55"/>
<text text-anchor="middle" x="995.5" y="-186.8" font-family="Times,serif" font-size="14.00">TransformPropagate</text>
</g>
<g id="clust13" class="cluster">
<title>clusternode_Set(12)</title>
<polygon fill="none" stroke="black" points="1261,-31 1261,-70 1306,-70 1306,-31 1261,-31"/>
<text text-anchor="middle" x="1283.5" y="-54.8" font-family="Times,serif" font-size="14.00">Last</text>
</g>
<g id="clust14" class="cluster">
<title>clusternode_Set(58)</title>
<polygon fill="none" stroke="black" points="67,-8 67,-47 158,-47 158,-8 67,-8"/>
<text text-anchor="middle" x="112.5" y="-31.8" font-family="Times,serif" font-size="14.00">LoadAssets</text>
</g>
<g id="clust15" class="cluster">
<title>clusternode_Set(59)</title>
<polygon fill="none" stroke="black" points="1129,-19 1129,-58 1225,-58 1225,-19 1129,-19"/>
<text text-anchor="middle" x="1177" y="-42.8" font-family="Times,serif" font-size="14.00">AssetEvents</text>
</g>
<!-- set_marker_node_Set(1) -->
<!-- set_marker_node_Set(7) -->
<!-- set_marker_node_Set(1)&#45;&gt;set_marker_node_Set(7) -->
<g id="edge2" class="edge">
<title>set_marker_node_Set(1)&#45;&gt;set_marker_node_Set(7)</title>
<path fill="none" stroke="black" d="M154,-56.1C158.23,-55.39 162.58,-54.66 166.92,-53.93"/>
<polygon fill="black" stroke="black" points="167.23,-57.43 176.51,-52.32 166.07,-50.52 167.23,-57.43"/>
</g>
<!-- set_marker_node_Set(2) -->
<!-- set_marker_node_Set(8) -->
<!-- set_marker_node_Set(2)&#45;&gt;set_marker_node_Set(8) -->
<g id="edge4" class="edge">
<title>set_marker_node_Set(2)&#45;&gt;set_marker_node_Set(8)</title>
<path fill="none" stroke="black" d="M407,-45C409.83,-45 412.68,-45 415.54,-45"/>
<polygon fill="black" stroke="black" points="415.49,-48.5 425.49,-45 415.49,-41.5 415.49,-48.5"/>
</g>
<!-- set_marker_node_Set(3) -->
<!-- set_marker_node_Set(11) -->
<!-- set_marker_node_Set(3)&#45;&gt;set_marker_node_Set(11) -->
<g id="edge8" class="edge">
<title>set_marker_node_Set(3)&#45;&gt;set_marker_node_Set(11)</title>
<path fill="none" stroke="black" d="M878,-45C878.18,-45 878.36,-45 878.55,-45"/>
<polygon fill="black" stroke="black" points="878.49,-48.5 888.49,-45 878.49,-41.5 878.49,-48.5"/>
</g>
<!-- set_marker_node_Set(4) -->
<!-- set_marker_node_Set(12) -->
<!-- set_marker_node_Set(4)&#45;&gt;set_marker_node_Set(12) -->
<g id="edge10" class="edge">
<title>set_marker_node_Set(4)&#45;&gt;set_marker_node_Set(12)</title>
<path fill="none" stroke="black" d="M1228.11,-66C1232.52,-64.83 1236.87,-63.51 1241,-62 1244.28,-60.8 1247.61,-59.36 1250.89,-57.79"/>
<polygon fill="black" stroke="black" points="1252.43,-60.94 1259.66,-53.19 1249.18,-54.74 1252.43,-60.94"/>
</g>
<!-- set_marker_node_Set(5) -->
<!-- set_marker_node_Set(6) -->
<!-- set_marker_node_Set(6)&#45;&gt;set_marker_node_Set(1) -->
<g id="edge1" class="edge">
<title>set_marker_node_Set(6)&#45;&gt;set_marker_node_Set(1)</title>
<path fill="none" stroke="black" d="M47,-45.44C53.47,-47.25 60.51,-49.21 67,-51 68.18,-51.33 69.37,-51.65 70.58,-51.99"/>
<polygon fill="black" stroke="black" points="69.56,-55.34 80.13,-54.6 71.41,-48.58 69.56,-55.34"/>
</g>
<!-- set_marker_node_Set(58) -->
<!-- set_marker_node_Set(6)&#45;&gt;set_marker_node_Set(58) -->
<g id="edge13" class="edge">
<title>set_marker_node_Set(6)&#45;&gt;set_marker_node_Set(58)</title>
<path fill="none" stroke="black" d="M47,-32.92C49.97,-32.13 53.11,-31.3 56.34,-30.45"/>
<polygon fill="black" stroke="black" points="56.77,-33.96 65.54,-28.02 54.98,-27.19 56.77,-33.96"/>
</g>
<!-- set_marker_node_Set(7)&#45;&gt;set_marker_node_Set(2) -->
<g id="edge3" class="edge">
<title>set_marker_node_Set(7)&#45;&gt;set_marker_node_Set(2)</title>
<path fill="none" stroke="black" d="M264,-45C266.78,-45 269.62,-45 272.49,-45"/>
<polygon fill="black" stroke="black" points="272.49,-48.5 282.49,-45 272.49,-41.5 272.49,-48.5"/>
</g>
<!-- set_marker_node_Set(9) -->
<!-- set_marker_node_Set(8)&#45;&gt;set_marker_node_Set(9) -->
<g id="edge5" class="edge">
<title>set_marker_node_Set(8)&#45;&gt;set_marker_node_Set(9)</title>
<path fill="none" stroke="black" d="M552,-45C554.93,-45 557.87,-45 560.8,-45"/>
<polygon fill="black" stroke="black" points="560.49,-48.5 570.49,-45 560.49,-41.5 560.49,-48.5"/>
</g>
<!-- set_marker_node_Set(10) -->
<!-- set_marker_node_Set(9)&#45;&gt;set_marker_node_Set(10) -->
<g id="edge6" class="edge">
<title>set_marker_node_Set(9)&#45;&gt;set_marker_node_Set(10)</title>
<path fill="none" stroke="black" d="M673,-45C675.93,-45 678.87,-45 681.76,-45"/>
<polygon fill="black" stroke="black" points="681.49,-48.5 691.49,-45 681.49,-41.5 681.49,-48.5"/>
</g>
<!-- set_marker_node_Set(10)&#45;&gt;set_marker_node_Set(3) -->
<g id="edge7" class="edge">
<title>set_marker_node_Set(10)&#45;&gt;set_marker_node_Set(3)</title>
<path fill="none" stroke="black" d="M757,-45C759.78,-45 762.64,-45 765.56,-45"/>
<polygon fill="black" stroke="black" points="765.49,-48.5 775.49,-45 765.49,-41.5 765.49,-48.5"/>
</g>
<!-- set_marker_node_Set(11)&#45;&gt;set_marker_node_Set(4) -->
<g id="edge9" class="edge">
<title>set_marker_node_Set(11)&#45;&gt;set_marker_node_Set(4)</title>
<path fill="none" stroke="black" d="M1101,-51C1105.79,-53.02 1106.55,-56.14 1112.53,-60.43"/>
<polygon fill="black" stroke="black" points="1110.74,-63.44 1121.18,-65.26 1114.16,-57.33 1110.74,-63.44"/>
</g>
<!-- set_marker_node_Set(59) -->
<!-- set_marker_node_Set(11)&#45;&gt;set_marker_node_Set(59) -->
<g id="edge14" class="edge">
<title>set_marker_node_Set(11)&#45;&gt;set_marker_node_Set(59)</title>
<path fill="none" stroke="black" d="M1076.25,-37C1090.2,-35.6 1104.48,-34.17 1117.71,-32.85"/>
<polygon fill="black" stroke="black" points="1117.89,-36.34 1127.5,-31.86 1117.2,-29.38 1117.89,-36.34"/>
</g>
<!-- set_marker_node_Set(20) -->
<!-- node_System(11) -->
<g id="node13" class="node">
<title>node_System(11)</title>
<polygon fill="none" stroke="black" points="1085,-153 906,-153 906,-117 1085,-117 1085,-153"/>
<text text-anchor="middle" x="995.5" y="-131.3" font-family="Times,serif" font-size="14.00">sync_simple_transforms</text>
</g>
<!-- node_System(12) -->
<g id="node14" class="node">
<title>node_System(12)</title>
<polygon fill="none" stroke="black" points="1078.5,-99 912.5,-99 912.5,-63 1078.5,-63 1078.5,-99"/>
<text text-anchor="middle" x="995.5" y="-77.3" font-family="Times,serif" font-size="14.00">propagate_transforms</text>
</g>
<!-- set_marker_node_Set(12)&#45;&gt;set_marker_node_Set(5) -->
<g id="edge11" class="edge">
<title>set_marker_node_Set(12)&#45;&gt;set_marker_node_Set(5)</title>
<path fill="none" stroke="black" d="M1306,-39C1308.78,-39 1311.72,-39 1314.74,-39"/>
<polygon fill="black" stroke="black" points="1314.49,-42.5 1324.49,-39 1314.49,-35.5 1314.49,-42.5"/>
</g>
<!-- set_marker_node_Set(58)&#45;&gt;set_marker_node_Set(7) -->
<g id="edge12" class="edge">
<title>set_marker_node_Set(58)&#45;&gt;set_marker_node_Set(7)</title>
<path fill="none" stroke="black" d="M158,-28.2C165.15,-30.13 172.51,-32.13 179.54,-34.03"/>
<polygon fill="black" stroke="black" points="178.46,-37.37 189.03,-36.61 180.29,-30.61 178.46,-37.37"/>
</g>
<!-- set_marker_node_Set(59)&#45;&gt;set_marker_node_Set(12) -->
<g id="edge15" class="edge">
<title>set_marker_node_Set(59)&#45;&gt;set_marker_node_Set(12)</title>
<path fill="none" stroke="black" d="M1225,-32.42C1233.38,-33.39 1241.94,-34.38 1249.79,-35.28"/>
<polygon fill="black" stroke="black" points="1249.16,-38.73 1259.5,-36.4 1249.97,-31.78 1249.16,-38.73"/>
</g>
</g>
</svg>
