<?xml version="1.0" encoding="UTF-8" standalone="no"?>
<!DOCTYPE svg PUBLIC "-//W3C//DTD SVG 1.1//EN"
 "http://www.w3.org/Graphics/SVG/1.1/DTD/svg11.dtd">
<!-- Generated by graphviz version 7.0.6 (0)
 -->
<!-- Title: schedule Pages: 1 -->
<svg width="1409pt" height="249pt"
 viewBox="0.00 0.00 1409.00 249.00" xmlns="http://www.w3.org/2000/svg" xmlns:xlink="http://www.w3.org/1999/xlink">
<g id="graph0" class="graph" transform="scale(1 1) rotate(0) translate(4 245)">
<title>schedule</title>
<polygon fill="#0d1117" stroke="none" points="-4,4 -4,-245 1405,-245 1405,4 -4,4"/>
<g id="clust1" class="cluster">
<title>clusternode_Set(1)</title>
<polygon fill="#6f90ad" stroke="black" points="70,-55 70,-94 152,-94 152,-55 70,-55"/>
<text text-anchor="middle" x="111" y="-78.8" font-family="Helvetica,sans-Serif" font-size="14.00">FirstFlush</text>
</g>
<g id="clust2" class="cluster">
<title>clusternode_Set(2)</title>
<polygon fill="#6f90ad" stroke="black" points="283,-37 283,-76 405,-76 405,-37 283,-37"/>
<text text-anchor="middle" x="344" y="-60.8" font-family="Helvetica,sans-Serif" font-size="14.00">PreUpdateFlush</text>
</g>
<g id="clust3" class="cluster">
<title>clusternode_Set(3)</title>
<polygon fill="#6f90ad" stroke="black" points="772,-37 772,-76 873,-76 873,-37 772,-37"/>
<text text-anchor="middle" x="822.5" y="-60.8" font-family="Helvetica,sans-Serif" font-size="14.00">UpdateFlush</text>
</g>
<g id="clust4" class="cluster">
<title>clusternode_Set(4)</title>
<polygon fill="#6f90ad" stroke="black" points="1108,-66 1108,-105 1237,-105 1237,-66 1108,-66"/>
<text text-anchor="middle" x="1172.5" y="-89.8" font-family="Helvetica,sans-Serif" font-size="14.00">PostUpdateFlush</text>
</g>
<g id="clust5" class="cluster">
<title>clusternode_Set(5)</title>
<polygon fill="#6f90ad" stroke="black" points="1321,-31 1321,-70 1401,-70 1401,-31 1321,-31"/>
<text text-anchor="middle" x="1361" y="-54.8" font-family="Helvetica,sans-Serif" font-size="14.00">LastFlush</text>
</g>
<g id="clust6" class="cluster">
<title>clusternode_Set(6)</title>
<polygon fill="#6f90ad" stroke="black" points="0,-31 0,-70 46,-70 46,-31 0,-31"/>
<text text-anchor="middle" x="23" y="-54.8" font-family="Helvetica,sans-Serif" font-size="14.00">First</text>
</g>
<g id="clust7" class="cluster">
<title>clusternode_Set(7)</title>
<polygon fill="#6f90ad" stroke="black" points="177,-37 177,-76 263,-76 263,-37 177,-37"/>
<text text-anchor="middle" x="220" y="-60.8" font-family="Helvetica,sans-Serif" font-size="14.00">PreUpdate</text>
</g>
<g id="clust8" class="cluster">
<title>clusternode_Set(8)</title>
<polygon fill="#6f90ad" stroke="black" points="425,-37 425,-76 547,-76 547,-37 425,-37"/>
<text text-anchor="middle" x="486" y="-60.8" font-family="Helvetica,sans-Serif" font-size="14.00">StateTransitions</text>
</g>
<g id="clust9" class="cluster">
<title>clusternode_Set(9)</title>
<polygon fill="#6f90ad" stroke="black" points="567,-37 567,-76 667,-76 667,-37 567,-37"/>
<text text-anchor="middle" x="617" y="-60.8" font-family="Helvetica,sans-Serif" font-size="14.00">FixedUpdate</text>
</g>
<g id="clust10" class="cluster">
<title>clusternode_Set(10)</title>
<polygon fill="#6f90ad" stroke="black" points="687,-37 687,-76 752,-76 752,-37 687,-37"/>
<text text-anchor="middle" x="719.5" y="-60.8" font-family="Helvetica,sans-Serif" font-size="14.00">Update</text>
</g>
<g id="clust11" class="cluster">
<title>clusternode_Set(11)</title>
<polygon fill="#6f90ad" stroke="black" points="885,-37 885,-233 1096,-233 1096,-37 885,-37"/>
<text text-anchor="middle" x="990.5" y="-217.8" font-family="Helvetica,sans-Serif" font-size="14.00">PostUpdate</text>
</g>
<g id="clust12" class="cluster">
<title>clusternode_Set(20)</title>
<polygon fill="#6f90ad" stroke="black" points="893,-55 893,-202 1088,-202 1088,-55 893,-55"/>
<text text-anchor="middle" x="990.5" y="-186.8" font-family="Helvetica,sans-Serif" font-size="14.00">TransformPropagate</text>
</g>
<g id="clust13" class="cluster">
<title>clusternode_Set(12)</title>
<polygon fill="#6f90ad" stroke="black" points="1257,-31 1257,-70 1301,-70 1301,-31 1257,-31"/>
<text text-anchor="middle" x="1279" y="-54.8" font-family="Helvetica,sans-Serif" font-size="14.00">Last</text>
</g>
<g id="clust14" class="cluster">
<title>clusternode_Set(58)</title>
<polygon fill="#6f90ad" stroke="black" points="66,-8 66,-47 157,-47 157,-8 66,-8"/>
<text text-anchor="middle" x="111.5" y="-31.8" font-family="Helvetica,sans-Serif" font-size="14.00">LoadAssets</text>
</g>
<g id="clust15" class="cluster">
<title>clusternode_Set(59)</title>
<polygon fill="#6f90ad" stroke="black" points="1124,-19 1124,-58 1220,-58 1220,-19 1124,-19"/>
<text text-anchor="middle" x="1172" y="-42.8" font-family="Helvetica,sans-Serif" font-size="14.00">AssetEvents</text>
</g>
<!-- set_marker_node_Set(1) -->
<!-- set_marker_node_Set(7) -->
<!-- set_marker_node_Set(1)&#45;&gt;set_marker_node_Set(7) -->
<g id="edge2" class="edge">
<title>set_marker_node_Set(1)&#45;&gt;set_marker_node_Set(7)</title>
<path fill="none" stroke="white" d="M152,-56.27C156.55,-55.51 161.23,-54.72 165.92,-53.93"/>
<polygon fill="white" stroke="white" points="166.23,-57.43 175.51,-52.32 165.07,-50.52 166.23,-57.43"/>
</g>
<!-- set_marker_node_Set(2) -->
<!-- set_marker_node_Set(8) -->
<!-- set_marker_node_Set(2)&#45;&gt;set_marker_node_Set(8) -->
<g id="edge4" class="edge">
<title>set_marker_node_Set(2)&#45;&gt;set_marker_node_Set(8)</title>
<path fill="none" stroke="white" d="M405,-45C407.88,-45 410.78,-45 413.68,-45"/>
<polygon fill="white" stroke="white" points="413.49,-48.5 423.49,-45 413.49,-41.5 413.49,-48.5"/>
</g>
<!-- set_marker_node_Set(3) -->
<!-- set_marker_node_Set(11) -->
<!-- set_marker_node_Set(3)&#45;&gt;set_marker_node_Set(11) -->
<g id="edge8" class="edge">
<title>set_marker_node_Set(3)&#45;&gt;set_marker_node_Set(11)</title>
<path fill="none" stroke="white" d="M873,-45C873.18,-45 873.36,-45 873.55,-45"/>
<polygon fill="white" stroke="white" points="873.49,-48.5 883.49,-45 873.49,-41.5 873.49,-48.5"/>
</g>
<!-- set_marker_node_Set(4) -->
<!-- set_marker_node_Set(12) -->
<!-- set_marker_node_Set(4)&#45;&gt;set_marker_node_Set(12) -->
<g id="edge10" class="edge">
<title>set_marker_node_Set(4)&#45;&gt;set_marker_node_Set(12)</title>
<path fill="none" stroke="white" d="M1224.03,-66C1228.46,-64.84 1232.84,-63.51 1237,-62 1240.28,-60.81 1243.61,-59.37 1246.89,-57.81"/>
<polygon fill="white" stroke="white" points="1248.43,-60.95 1255.66,-53.21 1245.18,-54.75 1248.43,-60.95"/>
</g>
<!-- set_marker_node_Set(5) -->
<!-- set_marker_node_Set(6) -->
<!-- set_marker_node_Set(6)&#45;&gt;set_marker_node_Set(1) -->
<g id="edge1" class="edge">
<title>set_marker_node_Set(6)&#45;&gt;set_marker_node_Set(1)</title>
<path fill="none" stroke="white" d="M46,-45.34C52.44,-47.18 59.5,-49.18 66,-51 67.17,-51.33 68.36,-51.66 69.55,-51.99"/>
<polygon fill="white" stroke="white" points="68.45,-55.32 79.02,-54.6 70.31,-48.57 68.45,-55.32"/>
</g>
<!-- set_marker_node_Set(58) -->
<!-- set_marker_node_Set(6)&#45;&gt;set_marker_node_Set(58) -->
<g id="edge13" class="edge">
<title>set_marker_node_Set(6)&#45;&gt;set_marker_node_Set(58)</title>
<path fill="none" stroke="white" d="M46,-33.12C48.89,-32.34 51.94,-31.53 55.09,-30.68"/>
<polygon fill="white" stroke="white" points="55.78,-34.12 64.54,-28.16 53.98,-27.36 55.78,-34.12"/>
</g>
<!-- set_marker_node_Set(7)&#45;&gt;set_marker_node_Set(2) -->
<g id="edge3" class="edge">
<title>set_marker_node_Set(7)&#45;&gt;set_marker_node_Set(2)</title>
<path fill="none" stroke="white" d="M263,-45C265.78,-45 268.62,-45 271.49,-45"/>
<polygon fill="white" stroke="white" points="271.49,-48.5 281.49,-45 271.49,-41.5 271.49,-48.5"/>
</g>
<!-- set_marker_node_Set(9) -->
<!-- set_marker_node_Set(8)&#45;&gt;set_marker_node_Set(9) -->
<g id="edge5" class="edge">
<title>set_marker_node_Set(8)&#45;&gt;set_marker_node_Set(9)</title>
<path fill="none" stroke="white" d="M547,-45C549.86,-45 552.74,-45 555.6,-45"/>
<polygon fill="white" stroke="white" points="555.49,-48.5 565.49,-45 555.49,-41.5 555.49,-48.5"/>
</g>
<!-- set_marker_node_Set(10) -->
<!-- set_marker_node_Set(9)&#45;&gt;set_marker_node_Set(10) -->
<g id="edge6" class="edge">
<title>set_marker_node_Set(9)&#45;&gt;set_marker_node_Set(10)</title>
<path fill="none" stroke="white" d="M667,-45C669.85,-45 672.71,-45 675.54,-45"/>
<polygon fill="white" stroke="white" points="675.49,-48.5 685.49,-45 675.49,-41.5 675.49,-48.5"/>
</g>
<!-- set_marker_node_Set(10)&#45;&gt;set_marker_node_Set(3) -->
<g id="edge7" class="edge">
<title>set_marker_node_Set(10)&#45;&gt;set_marker_node_Set(3)</title>
<path fill="none" stroke="white" d="M752,-45C754.81,-45 757.71,-45 760.65,-45"/>
<polygon fill="white" stroke="white" points="760.49,-48.5 770.49,-45 760.49,-41.5 760.49,-48.5"/>
</g>
<!-- set_marker_node_Set(11)&#45;&gt;set_marker_node_Set(4) -->
<g id="edge9" class="edge">
<title>set_marker_node_Set(11)&#45;&gt;set_marker_node_Set(4)</title>
<path fill="none" stroke="white" d="M1096,-51C1100.79,-53.02 1101.55,-56.14 1107.53,-60.43"/>
<polygon fill="white" stroke="white" points="1105.74,-63.44 1116.18,-65.26 1109.16,-57.33 1105.74,-63.44"/>
</g>
<!-- set_marker_node_Set(59) -->
<!-- set_marker_node_Set(11)&#45;&gt;set_marker_node_Set(59) -->
<g id="edge14" class="edge">
<title>set_marker_node_Set(11)&#45;&gt;set_marker_node_Set(59)</title>
<path fill="none" stroke="white" d="M1071.25,-37C1085.2,-35.6 1099.48,-34.17 1112.71,-32.85"/>
<polygon fill="white" stroke="white" points="1112.89,-36.34 1122.5,-31.86 1112.2,-29.38 1112.89,-36.34"/>
</g>
<!-- set_marker_node_Set(20) -->
<!-- node_System(11) -->
<g id="node13" class="node">
<title>node_System(11)</title>
<polygon fill="#eff1f3" stroke="#eff1f3" points="1080,-153 901,-153 901,-117 1080,-117 1080,-153"/>
<text text-anchor="middle" x="990.5" y="-131.3" font-family="Times,serif" font-size="14.00">sync_simple_transforms</text>
</g>
<!-- node_System(12) -->
<g id="node14" class="node">
<title>node_System(12)</title>
<polygon fill="#eff1f3" stroke="#eff1f3" points="1073.5,-99 907.5,-99 907.5,-63 1073.5,-63 1073.5,-99"/>
<text text-anchor="middle" x="990.5" y="-77.3" font-family="Times,serif" font-size="14.00">propagate_transforms</text>
</g>
<!-- set_marker_node_Set(12)&#45;&gt;set_marker_node_Set(5) -->
<g id="edge11" class="edge">
<title>set_marker_node_Set(12)&#45;&gt;set_marker_node_Set(5)</title>
<path fill="none" stroke="white" d="M1301,-39C1303.72,-39 1306.6,-39 1309.56,-39"/>
<polygon fill="white" stroke="white" points="1309.49,-42.5 1319.49,-39 1309.49,-35.5 1309.49,-42.5"/>
</g>
<!-- set_marker_node_Set(58)&#45;&gt;set_marker_node_Set(7) -->
<g id="edge12" class="edge">
<title>set_marker_node_Set(58)&#45;&gt;set_marker_node_Set(7)</title>
<path fill="none" stroke="white" d="M157,-28.2C164.15,-30.13 171.51,-32.13 178.54,-34.03"/>
<polygon fill="white" stroke="white" points="177.46,-37.37 188.03,-36.61 179.29,-30.61 177.46,-37.37"/>
</g>
<!-- set_marker_node_Set(59)&#45;&gt;set_marker_node_Set(12) -->
<g id="edge15" class="edge">
<title>set_marker_node_Set(59)&#45;&gt;set_marker_node_Set(12)</title>
<path fill="none" stroke="white" d="M1220,-32.37C1228.68,-33.36 1237.56,-34.38 1245.69,-35.31"/>
<polygon fill="white" stroke="white" points="1245.17,-38.77 1255.5,-36.43 1245.96,-31.82 1245.17,-38.77"/>
</g>
</g>
</svg>
