<?xml version="1.0" encoding="UTF-8" standalone="no"?>
<!DOCTYPE svg PUBLIC "-//W3C//DTD SVG 1.1//EN"
 "http://www.w3.org/Graphics/SVG/1.1/DTD/svg11.dtd">
<!-- Generated by graphviz version 7.0.6 (0)
 -->
<!-- Title: schedule Pages: 1 -->
<svg width="1891pt" height="453pt"
 viewBox="0.00 0.00 1891.00 453.00" xmlns="http://www.w3.org/2000/svg" xmlns:xlink="http://www.w3.org/1999/xlink">
<g id="graph0" class="graph" transform="scale(1 1) rotate(0) translate(4 449)">
<title>schedule</title>
<polygon fill="white" stroke="none" points="-4,4 -4,-449 1887,-449 1887,4 -4,4"/>
<g id="clust1" class="cluster">
<title>clusternode_Set(1)</title>
<polygon fill="none" stroke="black" points="70,-125 70,-164 154,-164 154,-125 70,-125"/>
<text text-anchor="middle" x="112" y="-148.8" font-family="Times,serif" font-size="14.00">FirstFlush</text>
</g>
<g id="clust2" class="cluster">
<title>clusternode_Set(2)</title>
<polygon fill="none" stroke="black" points="284,-102 284,-141 407,-141 407,-102 284,-102"/>
<text text-anchor="middle" x="345.5" y="-125.8" font-family="Times,serif" font-size="14.00">PreUpdateFlush</text>
</g>
<g id="clust3" class="cluster">
<title>clusternode_Set(3)</title>
<polygon fill="none" stroke="black" points="777,-102 777,-141 878,-141 878,-102 777,-102"/>
<text text-anchor="middle" x="827.5" y="-125.8" font-family="Times,serif" font-size="14.00">UpdateFlush</text>
</g>
<g id="clust4" class="cluster">
<title>clusternode_Set(4)</title>
<polygon fill="none" stroke="black" points="1172.5,-55 1172.5,-94 1300.5,-94 1300.5,-55 1172.5,-55"/>
<text text-anchor="middle" x="1236.5" y="-78.8" font-family="Times,serif" font-size="14.00">PostUpdateFlush</text>
</g>
<g id="clust5" class="cluster">
<title>clusternode_Set(5)</title>
<polygon fill="none" stroke="black" points="1718,-31 1718,-70 1800,-70 1800,-31 1718,-31"/>
<text text-anchor="middle" x="1759" y="-54.8" font-family="Times,serif" font-size="14.00">LastFlush</text>
</g>
<g id="clust6" class="cluster">
<title>clusternode_Set(6)</title>
<polygon fill="none" stroke="black" points="0,-101 0,-140 47,-140 47,-101 0,-101"/>
<text text-anchor="middle" x="23.5" y="-124.8" font-family="Times,serif" font-size="14.00">First</text>
</g>
<g id="clust7" class="cluster">
<title>clusternode_Set(7)</title>
<polygon fill="none" stroke="black" points="178,-102 178,-141 264,-141 264,-102 178,-102"/>
<text text-anchor="middle" x="221" y="-125.8" font-family="Times,serif" font-size="14.00">PreUpdate</text>
</g>
<g id="clust8" class="cluster">
<title>clusternode_Set(8)</title>
<polygon fill="none" stroke="black" points="427,-102 427,-141 552,-141 552,-102 427,-102"/>
<text text-anchor="middle" x="489.5" y="-125.8" font-family="Times,serif" font-size="14.00">StateTransitions</text>
</g>
<g id="clust9" class="cluster">
<title>clusternode_Set(9)</title>
<polygon fill="none" stroke="black" points="572,-102 572,-141 673,-141 673,-102 572,-102"/>
<text text-anchor="middle" x="622.5" y="-125.8" font-family="Times,serif" font-size="14.00">FixedUpdate</text>
</g>
<g id="clust10" class="cluster">
<title>clusternode_Set(10)</title>
<polygon fill="none" stroke="black" points="693,-102 693,-141 757,-141 757,-102 693,-102"/>
<text text-anchor="middle" x="725" y="-125.8" font-family="Times,serif" font-size="14.00">Update</text>
</g>
<g id="clust11" class="cluster">
<title>clusternode_Set(11)</title>
<polygon fill="none" stroke="black" points="898,-102 898,-437 1875,-437 1875,-102 898,-102"/>
<text text-anchor="middle" x="1386.5" y="-421.8" font-family="Times,serif" font-size="14.00">PostUpdate</text>
</g>
<g id="clust12" class="cluster">
<title>clusternode_Set(20)</title>
<polygon fill="none" stroke="black" points="910,-362 910,-401 1066,-401 1066,-362 910,-362"/>
<text text-anchor="middle" x="988" y="-385.8" font-family="Times,serif" font-size="14.00">TransformPropagate</text>
</g>
<g id="clust13" class="cluster">
<title>clusternode_Set(70)</title>
<polygon fill="none" stroke="black" points="920,-268 920,-307 1057,-307 1057,-268 920,-268"/>
<text text-anchor="middle" x="988.5" y="-291.8" font-family="Times,serif" font-size="14.00">ModifiesWindows</text>
</g>
<g id="clust14" class="cluster">
<title>clusternode_Set(77)</title>
<polygon fill="none" stroke="black" points="906,-315 906,-354 1070,-354 1070,-315 906,-315"/>
<text text-anchor="middle" x="988" y="-338.8" font-family="Times,serif" font-size="14.00">CameraUpdateSystem</text>
</g>
<g id="clust15" class="cluster">
<title>clusternode_Set(82)</title>
<polygon fill="none" stroke="black" points="1427,-158 1427,-197 1592,-197 1592,-158 1427,-158"/>
<text text-anchor="middle" x="1509.5" y="-181.8" font-family="Times,serif" font-size="14.00">CalculateBoundsFlush</text>
</g>
<g id="clust16" class="cluster">
<title>clusternode_Set(86)</title>
<polygon fill="none" stroke="black" points="930,-120 930,-159 1046,-159 1046,-120 930,-120"/>
<text text-anchor="middle" x="988" y="-143.8" font-family="Times,serif" font-size="14.00">CheckVisibility</text>
</g>
<g id="clust17" class="cluster">
<title>clusternode_Set(128)</title>
<polygon fill="none" stroke="black" points="930,-167 930,-260 1046,-260 1046,-167 930,-167"/>
<text text-anchor="middle" x="988" y="-244.8" font-family="Times,serif" font-size="14.00">AddClusters</text>
</g>
<g id="clust18" class="cluster">
<title>clusternode_Set(129)</title>
<polygon fill="none" stroke="black" points="1138.5,-142 1138.5,-235 1334.5,-235 1334.5,-142 1138.5,-142"/>
<text text-anchor="middle" x="1236.5" y="-219.8" font-family="Times,serif" font-size="14.00">AssignLightsToClusters</text>
</g>
<g id="clust19" class="cluster">
<title>clusternode_Set(130)</title>
<polygon fill="none" stroke="black" points="1651,-130 1651,-223 1867,-223 1867,-130 1651,-130"/>
<text text-anchor="middle" x="1759" y="-207.8" font-family="Times,serif" font-size="14.00">CheckLightVisibility</text>
</g>
<g id="clust20" class="cluster">
<title>clusternode_Set(131)</title>
<polygon fill="none" stroke="black" points="1106,-243 1106,-336 1367,-336 1367,-243 1106,-243"/>
<text text-anchor="middle" x="1236.5" y="-320.8" font-family="Times,serif" font-size="14.00">UpdateDirectionalLightCascades</text>
</g>
<g id="clust21" class="cluster">
<title>clusternode_Set(132)</title>
<polygon fill="none" stroke="black" points="1387,-205 1387,-406 1631,-406 1631,-205 1387,-205"/>
<text text-anchor="middle" x="1509" y="-390.8" font-family="Times,serif" font-size="14.00">UpdateLightFrusta</text>
</g>
<g id="clust22" class="cluster">
<title>clusternode_Set(12)</title>
<polygon fill="none" stroke="black" points="1487,-31 1487,-70 1532,-70 1532,-31 1487,-31"/>
<text text-anchor="middle" x="1509.5" y="-54.8" font-family="Times,serif" font-size="14.00">Last</text>
</g>
<g id="clust23" class="cluster">
<title>clusternode_Set(58)</title>
<polygon fill="none" stroke="black" points="67,-78 67,-117 158,-117 158,-78 67,-78"/>
<text text-anchor="middle" x="112.5" y="-101.8" font-family="Times,serif" font-size="14.00">LoadAssets</text>
</g>
<g id="clust24" class="cluster">
<title>clusternode_Set(59)</title>
<polygon fill="none" stroke="black" points="1188.5,-8 1188.5,-47 1284.5,-47 1284.5,-8 1188.5,-8"/>
<text text-anchor="middle" x="1236.5" y="-31.8" font-family="Times,serif" font-size="14.00">AssetEvents</text>
</g>
<!-- set_marker_node_Set(1) -->
<!-- set_marker_node_Set(7) -->
<!-- set_marker_node_Set(1)&#45;&gt;set_marker_node_Set(7) -->
<g id="edge2" class="edge">
<title>set_marker_node_Set(1)&#45;&gt;set_marker_node_Set(7)</title>
<path fill="none" stroke="black" d="M150.21,-125C155.62,-123.84 161.27,-122.62 166.92,-121.41"/>
<polygon fill="black" stroke="black" points="167.48,-124.87 176.53,-119.35 166.01,-118.02 167.48,-124.87"/>
</g>
<!-- set_marker_node_Set(2) -->
<!-- set_marker_node_Set(8) -->
<!-- set_marker_node_Set(2)&#45;&gt;set_marker_node_Set(8) -->
<g id="edge4" class="edge">
<title>set_marker_node_Set(2)&#45;&gt;set_marker_node_Set(8)</title>
<path fill="none" stroke="black" d="M407,-110C409.83,-110 412.68,-110 415.54,-110"/>
<polygon fill="black" stroke="black" points="415.49,-113.5 425.49,-110 415.49,-106.5 415.49,-113.5"/>
</g>
<!-- set_marker_node_Set(3) -->
<!-- set_marker_node_Set(11) -->
<!-- set_marker_node_Set(3)&#45;&gt;set_marker_node_Set(11) -->
<g id="edge8" class="edge">
<title>set_marker_node_Set(3)&#45;&gt;set_marker_node_Set(11)</title>
<path fill="none" stroke="black" d="M878,-110C880.82,-110 883.69,-110 886.61,-110"/>
<polygon fill="black" stroke="black" points="886.49,-113.5 896.49,-110 886.49,-106.5 886.49,-113.5"/>
</g>
<!-- set_marker_node_Set(4) -->
<!-- set_marker_node_Set(12) -->
<!-- set_marker_node_Set(4)&#45;&gt;set_marker_node_Set(12) -->
<g id="edge10" class="edge">
<title>set_marker_node_Set(4)&#45;&gt;set_marker_node_Set(12)</title>
<path fill="none" stroke="black" d="M1300.5,-57.41C1355.31,-52.55 1432.53,-45.7 1475.65,-41.87"/>
<polygon fill="black" stroke="black" points="1475.84,-45.37 1485.5,-41 1475.23,-38.39 1475.84,-45.37"/>
</g>
<!-- set_marker_node_Set(5) -->
<!-- set_marker_node_Set(6) -->
<!-- set_marker_node_Set(6)&#45;&gt;set_marker_node_Set(1) -->
<g id="edge1" class="edge">
<title>set_marker_node_Set(6)&#45;&gt;set_marker_node_Set(1)</title>
<path fill="none" stroke="black" d="M47,-115.44C53.47,-117.25 60.51,-119.21 67,-121 68.18,-121.33 69.37,-121.65 70.58,-121.99"/>
<polygon fill="black" stroke="black" points="69.56,-125.34 80.13,-124.6 71.41,-118.58 69.56,-125.34"/>
</g>
<!-- set_marker_node_Set(58) -->
<!-- set_marker_node_Set(6)&#45;&gt;set_marker_node_Set(58) -->
<g id="edge13" class="edge">
<title>set_marker_node_Set(6)&#45;&gt;set_marker_node_Set(58)</title>
<path fill="none" stroke="black" d="M47,-102.92C49.97,-102.13 53.11,-101.3 56.34,-100.45"/>
<polygon fill="black" stroke="black" points="56.77,-103.96 65.54,-98.02 54.98,-97.19 56.77,-103.96"/>
</g>
<!-- set_marker_node_Set(7)&#45;&gt;set_marker_node_Set(2) -->
<g id="edge3" class="edge">
<title>set_marker_node_Set(7)&#45;&gt;set_marker_node_Set(2)</title>
<path fill="none" stroke="black" d="M264,-110C266.78,-110 269.62,-110 272.49,-110"/>
<polygon fill="black" stroke="black" points="272.49,-113.5 282.49,-110 272.49,-106.5 272.49,-113.5"/>
</g>
<!-- set_marker_node_Set(9) -->
<!-- set_marker_node_Set(8)&#45;&gt;set_marker_node_Set(9) -->
<g id="edge5" class="edge">
<title>set_marker_node_Set(8)&#45;&gt;set_marker_node_Set(9)</title>
<path fill="none" stroke="black" d="M552,-110C554.93,-110 557.87,-110 560.8,-110"/>
<polygon fill="black" stroke="black" points="560.49,-113.5 570.49,-110 560.49,-106.5 560.49,-113.5"/>
</g>
<!-- set_marker_node_Set(10) -->
<!-- set_marker_node_Set(9)&#45;&gt;set_marker_node_Set(10) -->
<g id="edge6" class="edge">
<title>set_marker_node_Set(9)&#45;&gt;set_marker_node_Set(10)</title>
<path fill="none" stroke="black" d="M673,-110C675.93,-110 678.87,-110 681.76,-110"/>
<polygon fill="black" stroke="black" points="681.49,-113.5 691.49,-110 681.49,-106.5 681.49,-113.5"/>
</g>
<!-- set_marker_node_Set(10)&#45;&gt;set_marker_node_Set(3) -->
<g id="edge7" class="edge">
<title>set_marker_node_Set(10)&#45;&gt;set_marker_node_Set(3)</title>
<path fill="none" stroke="black" d="M757,-110C759.78,-110 762.64,-110 765.56,-110"/>
<polygon fill="black" stroke="black" points="765.49,-113.5 775.49,-110 765.49,-106.5 765.49,-113.5"/>
</g>
<!-- set_marker_node_Set(11)&#45;&gt;set_marker_node_Set(4) -->
<g id="edge9" class="edge">
<title>set_marker_node_Set(11)&#45;&gt;set_marker_node_Set(4)</title>
<path fill="none" stroke="black" d="M1030.95,-102C1066.58,-95.21 1118.59,-85.29 1161.24,-77.16"/>
<polygon fill="black" stroke="black" points="1161.85,-80.61 1171.01,-75.3 1160.54,-73.73 1161.85,-80.61"/>
</g>
<!-- set_marker_node_Set(59) -->
<!-- set_marker_node_Set(11)&#45;&gt;set_marker_node_Set(59) -->
<g id="edge14" class="edge">
<title>set_marker_node_Set(11)&#45;&gt;set_marker_node_Set(59)</title>
<path fill="none" stroke="black" d="M1002.58,-102C1023.97,-89.68 1067.09,-65.89 1106,-51 1128.85,-42.26 1154.75,-34.79 1177.36,-29.03"/>
<polygon fill="black" stroke="black" points="1178.17,-32.44 1187.03,-26.63 1176.48,-25.65 1178.17,-32.44"/>
</g>
<!-- set_marker_node_Set(20) -->
<!-- node_System(106) -->
<g id="node20" class="node">
<title>node_System(106)</title>
<polygon fill="none" stroke="black" points="1326.5,-186 1146.5,-186 1146.5,-150 1326.5,-150 1326.5,-186"/>
<text text-anchor="middle" x="1236.5" y="-164.3" font-family="Times,serif" font-size="14.00">assign_lights_to_clusters</text>
</g>
<!-- set_marker_node_Set(20)&#45;&gt;node_System(106) -->
<g id="edge17" class="edge">
<title>set_marker_node_Set(20)&#45;&gt;node_System(106)</title>
<path fill="none" stroke="black" d="M1065.02,-362C1066.77,-360.79 1068.43,-359.46 1070,-358 1124.27,-307.42 1053.23,-247.15 1106,-195 1114.36,-186.74 1124.54,-180.71 1135.5,-176.33"/>
<polygon fill="black" stroke="black" points="1136.46,-179.71 1144.77,-173.13 1134.17,-173.09 1136.46,-179.71"/>
</g>
<!-- node_System(111) -->
<g id="node22" class="node">
<title>node_System(111)</title>
<polygon fill="none" stroke="black" points="1859,-174 1659,-174 1659,-138 1859,-138 1859,-174"/>
<text text-anchor="middle" x="1759" y="-152.3" font-family="Times,serif" font-size="14.00">check_light_mesh_visibility</text>
</g>
<!-- set_marker_node_Set(20)&#45;&gt;node_System(111) -->
<g id="edge31" class="edge">
<title>set_marker_node_Set(20)&#45;&gt;node_System(111)</title>
<path fill="none" stroke="black" d="M1046.5,-362C1054.41,-360.75 1062.42,-359.4 1070,-358 1086.12,-355.02 1089.74,-352.1 1106,-350 1120.39,-348.14 1356.39,-349.9 1367,-340 1397.39,-311.63 1356.07,-181.78 1387,-154 1406.08,-136.86 1545.04,-141.82 1647.31,-148.02"/>
<polygon fill="black" stroke="black" points="1646.94,-151.5 1657.14,-148.63 1647.38,-144.52 1646.94,-151.5"/>
</g>
<!-- node_System(107) -->
<g id="node24" class="node">
<title>node_System(107)</title>
<polygon fill="none" stroke="black" points="1359,-287 1114,-287 1114,-251 1359,-251 1359,-287"/>
<text text-anchor="middle" x="1236.5" y="-265.3" font-family="Times,serif" font-size="14.00">update_directional_light_cascades</text>
</g>
<!-- set_marker_node_Set(20)&#45;&gt;node_System(107) -->
<g id="edge21" class="edge">
<title>set_marker_node_Set(20)&#45;&gt;node_System(107)</title>
<path fill="none" stroke="black" d="M1063.15,-362C1065.52,-360.81 1067.82,-359.48 1070,-358 1096.37,-340.12 1080.16,-314.65 1106,-296 1107.4,-294.99 1108.82,-294.02 1110.28,-293.08"/>
<polygon fill="black" stroke="black" points="1111.97,-296.15 1118.9,-288.14 1108.48,-290.07 1111.97,-296.15"/>
</g>
<!-- node_System(108) -->
<g id="node26" class="node">
<title>node_System(108)</title>
<polygon fill="none" stroke="black" points="1623,-249 1395,-249 1395,-213 1623,-213 1623,-249"/>
<text text-anchor="middle" x="1509" y="-227.3" font-family="Times,serif" font-size="14.00">update_directional_light_frusta</text>
</g>
<!-- set_marker_node_Set(20)&#45;&gt;node_System(108) -->
<g id="edge24" class="edge">
<title>set_marker_node_Set(20)&#45;&gt;node_System(108)</title>
<path fill="none" stroke="black" d="M1066,-368.3C1173.22,-365.58 1355.73,-359.59 1367,-350 1398.87,-322.89 1357.49,-287.67 1387,-258 1387.5,-257.5 1388,-257.01 1388.52,-256.52"/>
<polygon fill="black" stroke="black" points="1390.6,-259.34 1396.19,-250.33 1386.21,-253.89 1390.6,-259.34"/>
</g>
<!-- node_System(109) -->
<g id="node27" class="node">
<title>node_System(109)</title>
<polygon fill="none" stroke="black" points="1604,-357 1414,-357 1414,-321 1604,-321 1604,-357"/>
<text text-anchor="middle" x="1509" y="-335.3" font-family="Times,serif" font-size="14.00">update_point_light_frusta</text>
</g>
<!-- set_marker_node_Set(20)&#45;&gt;node_System(109) -->
<g id="edge26" class="edge">
<title>set_marker_node_Set(20)&#45;&gt;node_System(109)</title>
<path fill="none" stroke="black" d="M1066,-385.06C1079.29,-387.12 1093.01,-388.9 1106,-390 1221.58,-399.81 1261.95,-439.2 1367,-390 1379.57,-384.11 1375.15,-373.23 1387,-366 1392.17,-362.85 1397.66,-360.06 1403.34,-357.6"/>
<polygon fill="black" stroke="black" points="1404.32,-360.98 1412.34,-354.06 1401.76,-354.46 1404.32,-360.98"/>
</g>
<!-- node_System(110) -->
<g id="node28" class="node">
<title>node_System(110)</title>
<polygon fill="none" stroke="black" points="1600,-303 1418,-303 1418,-267 1600,-267 1600,-303"/>
<text text-anchor="middle" x="1509" y="-281.3" font-family="Times,serif" font-size="14.00">update_spot_light_frusta</text>
</g>
<!-- set_marker_node_Set(20)&#45;&gt;node_System(110) -->
<g id="edge28" class="edge">
<title>set_marker_node_Set(20)&#45;&gt;node_System(110)</title>
<path fill="none" stroke="black" d="M1066,-374.71C1169.46,-380.32 1343.2,-386.97 1367,-370 1389.2,-354.17 1366.67,-330.17 1387,-312 1393,-306.64 1399.83,-302.27 1407.11,-298.71"/>
<polygon fill="black" stroke="black" points="1408.46,-301.94 1416.29,-294.8 1405.72,-295.5 1408.46,-301.94"/>
</g>
<!-- set_marker_node_Set(70) -->
<!-- set_marker_node_Set(70)&#45;&gt;node_System(106) -->
<g id="edge20" class="edge">
<title>set_marker_node_Set(70)&#45;&gt;node_System(106)</title>
<path fill="none" stroke="black" d="M1057,-270.99C1061.61,-269.14 1066,-266.85 1070,-264 1098.18,-243.94 1078.42,-215.87 1106,-195 1114.79,-188.35 1124.84,-183.24 1135.36,-179.34"/>
<polygon fill="black" stroke="black" points="1136.18,-182.75 1144.58,-176.29 1133.98,-176.1 1136.18,-182.75"/>
</g>
<!-- set_marker_node_Set(77) -->
<!-- set_marker_node_Set(77)&#45;&gt;node_System(106) -->
<g id="edge19" class="edge">
<title>set_marker_node_Set(77)&#45;&gt;node_System(106)</title>
<path fill="none" stroke="black" d="M1064.59,-315C1066.48,-313.8 1068.29,-312.47 1070,-311 1110.99,-275.88 1066.05,-231.31 1106,-195 1114.56,-187.22 1124.78,-181.45 1135.65,-177.21"/>
<polygon fill="black" stroke="black" points="1136.49,-180.62 1144.82,-174.08 1134.23,-174 1136.49,-180.62"/>
</g>
<!-- set_marker_node_Set(77)&#45;&gt;node_System(107) -->
<g id="edge22" class="edge">
<title>set_marker_node_Set(77)&#45;&gt;node_System(107)</title>
<path fill="none" stroke="black" d="M1053.16,-315C1058.89,-313.83 1064.58,-312.51 1070,-311 1086.7,-306.36 1089.44,-301.13 1106,-296 1112.55,-293.97 1119.34,-292.05 1126.21,-290.24"/>
<polygon fill="black" stroke="black" points="1126.77,-293.71 1135.6,-287.85 1125.05,-286.92 1126.77,-293.71"/>
</g>
<!-- set_marker_node_Set(82) -->
<!-- set_marker_node_Set(82)&#45;&gt;node_System(111) -->
<g id="edge30" class="edge">
<title>set_marker_node_Set(82)&#45;&gt;node_System(111)</title>
<path fill="none" stroke="black" d="M1592,-162.69C1609.76,-161.98 1628.83,-161.21 1647.48,-160.46"/>
<polygon fill="black" stroke="black" points="1647.37,-163.96 1657.22,-160.06 1647.09,-156.97 1647.37,-163.96"/>
</g>
<!-- set_marker_node_Set(86) -->
<!-- set_marker_node_Set(86)&#45;&gt;node_System(106) -->
<g id="edge18" class="edge">
<title>set_marker_node_Set(86)&#45;&gt;node_System(106)</title>
<path fill="none" stroke="black" d="M1046,-137.25C1072.48,-141.55 1104.76,-146.78 1135.12,-151.71"/>
<polygon fill="black" stroke="black" points="1134.33,-155.13 1144.76,-153.28 1135.45,-148.22 1134.33,-155.13"/>
</g>
<!-- set_marker_node_Set(86)&#45;&gt;node_System(111) -->
<g id="edge33" class="edge">
<title>set_marker_node_Set(86)&#45;&gt;node_System(111)</title>
<path fill="none" stroke="black" d="M1046,-125.82C1054.06,-125.33 1062.25,-124.73 1070,-124 1086.08,-122.49 1089.88,-120.11 1106,-119 1339,-102.9 1398.57,-119.07 1631,-142 1636.31,-142.52 1641.74,-143.07 1647.22,-143.64"/>
<polygon fill="black" stroke="black" points="1646.72,-147.1 1657.03,-144.66 1647.45,-140.14 1646.72,-147.1"/>
</g>
<!-- set_marker_node_Set(86)&#45;&gt;node_System(108) -->
<g id="edge23" class="edge">
<title>set_marker_node_Set(86)&#45;&gt;node_System(108)</title>
<path fill="none" stroke="black" d="M1046,-125.93C1145.34,-122.84 1342.04,-119.23 1367,-138 1390.48,-155.66 1365.57,-180.91 1387,-201 1389.07,-202.94 1391.25,-204.77 1393.52,-206.48"/>
<polygon fill="black" stroke="black" points="1391.13,-209.1 1401.41,-211.69 1394.99,-203.26 1391.13,-209.1"/>
</g>
<!-- set_marker_node_Set(128) -->
<!-- node_System(104) -->
<g id="node18" class="node">
<title>node_System(104)</title>
<polygon fill="none" stroke="black" points="1038,-211 938,-211 938,-175 1038,-175 1038,-211"/>
<text text-anchor="middle" x="988" y="-189.3" font-family="Times,serif" font-size="14.00">add_clusters</text>
</g>
<!-- node_System(104)&#45;&gt;node_System(106) -->
<g id="edge16" class="edge">
<title>node_System(104)&#45;&gt;node_System(106)</title>
<path fill="none" stroke="black" d="M1038.29,-188C1066.06,-185.18 1101.78,-181.56 1135.17,-178.18"/>
<polygon fill="black" stroke="black" points="1135.29,-181.68 1144.89,-177.19 1134.59,-174.72 1135.29,-181.68"/>
</g>
<!-- set_marker_node_Set(129) -->
<!-- set_marker_node_Set(129)&#45;&gt;node_System(109) -->
<g id="edge27" class="edge">
<title>set_marker_node_Set(129)&#45;&gt;node_System(109)</title>
<path fill="none" stroke="black" d="M1334.5,-217.97C1346.55,-223.05 1357.84,-229.87 1367,-239 1390.83,-262.75 1362.65,-288.79 1387,-312 1391.89,-316.66 1397.4,-320.59 1403.31,-323.88"/>
<polygon fill="black" stroke="black" points="1401.69,-326.99 1412.21,-328.2 1404.74,-320.69 1401.69,-326.99"/>
</g>
<!-- set_marker_node_Set(129)&#45;&gt;node_System(110) -->
<g id="edge29" class="edge">
<title>set_marker_node_Set(129)&#45;&gt;node_System(110)</title>
<path fill="none" stroke="black" d="M1334.5,-224.48C1345.79,-228.52 1356.88,-233.31 1367,-239 1377.69,-245.01 1376.18,-252.23 1387,-258 1393.44,-261.43 1400.31,-264.43 1407.36,-267.05"/>
<polygon fill="black" stroke="black" points="1405.78,-270.21 1416.38,-270.13 1408.05,-263.59 1405.78,-270.21"/>
</g>
<!-- set_marker_node_Set(130) -->
<!-- set_marker_node_Set(131) -->
<!-- set_marker_node_Set(131)&#45;&gt;node_System(108) -->
<g id="edge25" class="edge">
<title>set_marker_node_Set(131)&#45;&gt;node_System(108)</title>
<path fill="none" stroke="black" d="M1367,-296C1382.99,-285.58 1371.84,-269.59 1387,-258 1388.18,-257.1 1389.38,-256.23 1390.6,-255.38"/>
<polygon fill="black" stroke="black" points="1392.36,-258.41 1399.09,-250.23 1388.73,-252.43 1392.36,-258.41"/>
</g>
<!-- set_marker_node_Set(132) -->
<!-- set_marker_node_Set(132)&#45;&gt;node_System(111) -->
<g id="edge32" class="edge">
<title>set_marker_node_Set(132)&#45;&gt;node_System(111)</title>
<path fill="none" stroke="black" d="M1631,-366C1660.42,-337.58 1624.14,-213.86 1651,-183 1651.26,-182.7 1651.52,-182.41 1651.79,-182.11"/>
<polygon fill="black" stroke="black" points="1654.02,-184.81 1659.05,-175.49 1649.31,-179.64 1654.02,-184.81"/>
</g>
<!-- set_marker_node_Set(12)&#45;&gt;set_marker_node_Set(5) -->
<g id="edge11" class="edge">
<title>set_marker_node_Set(12)&#45;&gt;set_marker_node_Set(5)</title>
<path fill="none" stroke="black" d="M1532,-39C1570.88,-39 1652.71,-39 1706.5,-39"/>
<polygon fill="black" stroke="black" points="1706.49,-42.5 1716.49,-39 1706.49,-35.5 1706.49,-42.5"/>
</g>
<!-- set_marker_node_Set(58)&#45;&gt;set_marker_node_Set(7) -->
<g id="edge12" class="edge">
<title>set_marker_node_Set(58)&#45;&gt;set_marker_node_Set(7)</title>
<path fill="none" stroke="black" d="M158,-96.09C163.09,-97.24 168.29,-98.4 173.4,-99.55"/>
<polygon fill="black" stroke="black" points="172.35,-102.9 182.87,-101.67 173.88,-96.07 172.35,-102.9"/>
</g>
<!-- set_marker_node_Set(59)&#45;&gt;set_marker_node_Set(12) -->
<g id="edge15" class="edge">
<title>set_marker_node_Set(59)&#45;&gt;set_marker_node_Set(12)</title>
<path fill="none" stroke="black" d="M1284.5,-20C1339.21,-24.65 1428.13,-32.21 1475.65,-36.25"/>
<polygon fill="black" stroke="black" points="1475.23,-39.73 1485.5,-37.09 1475.83,-32.75 1475.23,-39.73"/>
</g>
</g>
</svg>
