<?xml version="1.0" encoding="UTF-8" standalone="no"?>
<!DOCTYPE svg PUBLIC "-//W3C//DTD SVG 1.1//EN"
 "http://www.w3.org/Graphics/SVG/1.1/DTD/svg11.dtd">
<!-- Generated by graphviz version 7.0.6 (0)
 -->
<!-- Title: schedule Pages: 1 -->
<svg width="1759pt" height="194pt"
 viewBox="0.00 0.00 1759.00 194.00" xmlns="http://www.w3.org/2000/svg" xmlns:xlink="http://www.w3.org/1999/xlink">
<g id="graph0" class="graph" transform="scale(1 1) rotate(0) translate(4 190)">
<title>schedule</title>
<polygon fill="white" stroke="none" points="-4,4 -4,-190 1755,-190 1755,4 -4,4"/>
<g id="clust1" class="cluster">
<title>clusternode_Set(1)</title>
<polygon fill="none" stroke="black" points="70,-127 70,-166 154,-166 154,-127 70,-127"/>
<text text-anchor="middle" x="112" y="-150.8" font-family="Times,serif" font-size="14.00">FirstFlush</text>
</g>
<g id="clust2" class="cluster">
<title>clusternode_Set(2)</title>
<polygon fill="none" stroke="black" points="284,-104 284,-143 407,-143 407,-104 284,-104"/>
<text text-anchor="middle" x="345.5" y="-127.8" font-family="Times,serif" font-size="14.00">PreUpdateFlush</text>
</g>
<g id="clust3" class="cluster">
<title>clusternode_Set(3)</title>
<polygon fill="none" stroke="black" points="777,-104 777,-143 878,-143 878,-104 777,-104"/>
<text text-anchor="middle" x="827.5" y="-127.8" font-family="Times,serif" font-size="14.00">UpdateFlush</text>
</g>
<g id="clust4" class="cluster">
<title>clusternode_Set(4)</title>
<polygon fill="none" stroke="black" points="1010,-139 1010,-178 1138,-178 1138,-139 1010,-139"/>
<text text-anchor="middle" x="1074" y="-162.8" font-family="Times,serif" font-size="14.00">PostUpdateFlush</text>
</g>
<g id="clust5" class="cluster">
<title>clusternode_Set(5)</title>
<polygon fill="none" stroke="black" points="1669,-116 1669,-155 1751,-155 1751,-116 1669,-116"/>
<text text-anchor="middle" x="1710" y="-139.8" font-family="Times,serif" font-size="14.00">LastFlush</text>
</g>
<g id="clust6" class="cluster">
<title>clusternode_Set(6)</title>
<polygon fill="none" stroke="black" points="0,-103 0,-142 47,-142 47,-103 0,-103"/>
<text text-anchor="middle" x="23.5" y="-126.8" font-family="Times,serif" font-size="14.00">First</text>
</g>
<g id="clust7" class="cluster">
<title>clusternode_Set(7)</title>
<polygon fill="none" stroke="black" points="178,-104 178,-143 264,-143 264,-104 178,-104"/>
<text text-anchor="middle" x="221" y="-127.8" font-family="Times,serif" font-size="14.00">PreUpdate</text>
</g>
<g id="clust8" class="cluster">
<title>clusternode_Set(8)</title>
<polygon fill="none" stroke="black" points="427,-104 427,-143 552,-143 552,-104 427,-104"/>
<text text-anchor="middle" x="489.5" y="-127.8" font-family="Times,serif" font-size="14.00">StateTransitions</text>
</g>
<g id="clust9" class="cluster">
<title>clusternode_Set(9)</title>
<polygon fill="none" stroke="black" points="572,-104 572,-143 673,-143 673,-104 572,-104"/>
<text text-anchor="middle" x="622.5" y="-127.8" font-family="Times,serif" font-size="14.00">FixedUpdate</text>
</g>
<g id="clust10" class="cluster">
<title>clusternode_Set(10)</title>
<polygon fill="none" stroke="black" points="693,-104 693,-143 757,-143 757,-104 693,-104"/>
<text text-anchor="middle" x="725" y="-127.8" font-family="Times,serif" font-size="14.00">Update</text>
</g>
<g id="clust11" class="cluster">
<title>clusternode_Set(11)</title>
<polygon fill="none" stroke="black" points="898,-104 898,-143 990,-143 990,-104 898,-104"/>
<text text-anchor="middle" x="944" y="-127.8" font-family="Times,serif" font-size="14.00">PostUpdate</text>
</g>
<g id="clust12" class="cluster">
<title>clusternode_Set(12)</title>
<polygon fill="none" stroke="black" points="1158,-8 1158,-155 1649,-155 1649,-8 1158,-8"/>
<text text-anchor="middle" x="1403.5" y="-139.8" font-family="Times,serif" font-size="14.00">Last</text>
</g>
<g id="clust13" class="cluster">
<title>clusternode_Set(58)</title>
<polygon fill="none" stroke="black" points="67,-80 67,-119 158,-119 158,-80 67,-80"/>
<text text-anchor="middle" x="112.5" y="-103.8" font-family="Times,serif" font-size="14.00">LoadAssets</text>
</g>
<g id="clust14" class="cluster">
<title>clusternode_Set(59)</title>
<polygon fill="none" stroke="black" points="1026,-92 1026,-131 1122,-131 1122,-92 1026,-92"/>
<text text-anchor="middle" x="1074" y="-115.8" font-family="Times,serif" font-size="14.00">AssetEvents</text>
</g>
<!-- set_marker_node_Set(1) -->
<!-- set_marker_node_Set(7) -->
<!-- set_marker_node_Set(1)&#45;&gt;set_marker_node_Set(7) -->
<g id="edge2" class="edge">
<title>set_marker_node_Set(1)&#45;&gt;set_marker_node_Set(7)</title>
<path fill="none" stroke="black" d="M150.21,-127C155.62,-125.84 161.27,-124.62 166.92,-123.41"/>
<polygon fill="black" stroke="black" points="167.48,-126.87 176.53,-121.35 166.01,-120.02 167.48,-126.87"/>
</g>
<!-- set_marker_node_Set(2) -->
<!-- set_marker_node_Set(8) -->
<!-- set_marker_node_Set(2)&#45;&gt;set_marker_node_Set(8) -->
<g id="edge4" class="edge">
<title>set_marker_node_Set(2)&#45;&gt;set_marker_node_Set(8)</title>
<path fill="none" stroke="black" d="M407,-112C409.83,-112 412.68,-112 415.54,-112"/>
<polygon fill="black" stroke="black" points="415.49,-115.5 425.49,-112 415.49,-108.5 415.49,-115.5"/>
</g>
<!-- set_marker_node_Set(3) -->
<!-- set_marker_node_Set(11) -->
<!-- set_marker_node_Set(3)&#45;&gt;set_marker_node_Set(11) -->
<g id="edge8" class="edge">
<title>set_marker_node_Set(3)&#45;&gt;set_marker_node_Set(11)</title>
<path fill="none" stroke="black" d="M878,-112C880.92,-112 883.88,-112 886.82,-112"/>
<polygon fill="black" stroke="black" points="886.49,-115.5 896.49,-112 886.49,-108.5 886.49,-115.5"/>
</g>
<!-- set_marker_node_Set(4) -->
<!-- set_marker_node_Set(12) -->
<!-- set_marker_node_Set(4)&#45;&gt;set_marker_node_Set(12) -->
<g id="edge10" class="edge">
<title>set_marker_node_Set(4)&#45;&gt;set_marker_node_Set(12)</title>
<path fill="none" stroke="black" d="M1138,-142.58C1140.79,-142.38 1143.65,-142.18 1146.56,-141.97"/>
<polygon fill="black" stroke="black" points="1146.76,-145.47 1156.49,-141.28 1146.27,-138.49 1146.76,-145.47"/>
</g>
<!-- set_marker_node_Set(5) -->
<!-- set_marker_node_Set(6) -->
<!-- set_marker_node_Set(6)&#45;&gt;set_marker_node_Set(1) -->
<g id="edge1" class="edge">
<title>set_marker_node_Set(6)&#45;&gt;set_marker_node_Set(1)</title>
<path fill="none" stroke="black" d="M47,-117.44C53.47,-119.25 60.51,-121.21 67,-123 68.18,-123.33 69.37,-123.65 70.58,-123.99"/>
<polygon fill="black" stroke="black" points="69.56,-127.34 80.13,-126.6 71.41,-120.58 69.56,-127.34"/>
</g>
<!-- set_marker_node_Set(58) -->
<!-- set_marker_node_Set(6)&#45;&gt;set_marker_node_Set(58) -->
<g id="edge13" class="edge">
<title>set_marker_node_Set(6)&#45;&gt;set_marker_node_Set(58)</title>
<path fill="none" stroke="black" d="M47,-104.92C49.97,-104.13 53.11,-103.3 56.34,-102.45"/>
<polygon fill="black" stroke="black" points="56.77,-105.96 65.54,-100.02 54.98,-99.19 56.77,-105.96"/>
</g>
<!-- set_marker_node_Set(7)&#45;&gt;set_marker_node_Set(2) -->
<g id="edge3" class="edge">
<title>set_marker_node_Set(7)&#45;&gt;set_marker_node_Set(2)</title>
<path fill="none" stroke="black" d="M264,-112C266.78,-112 269.62,-112 272.49,-112"/>
<polygon fill="black" stroke="black" points="272.49,-115.5 282.49,-112 272.49,-108.5 272.49,-115.5"/>
</g>
<!-- set_marker_node_Set(9) -->
<!-- set_marker_node_Set(8)&#45;&gt;set_marker_node_Set(9) -->
<g id="edge5" class="edge">
<title>set_marker_node_Set(8)&#45;&gt;set_marker_node_Set(9)</title>
<path fill="none" stroke="black" d="M552,-112C554.93,-112 557.87,-112 560.8,-112"/>
<polygon fill="black" stroke="black" points="560.49,-115.5 570.49,-112 560.49,-108.5 560.49,-115.5"/>
</g>
<!-- set_marker_node_Set(10) -->
<!-- set_marker_node_Set(9)&#45;&gt;set_marker_node_Set(10) -->
<g id="edge6" class="edge">
<title>set_marker_node_Set(9)&#45;&gt;set_marker_node_Set(10)</title>
<path fill="none" stroke="black" d="M673,-112C675.93,-112 678.87,-112 681.76,-112"/>
<polygon fill="black" stroke="black" points="681.49,-115.5 691.49,-112 681.49,-108.5 681.49,-115.5"/>
</g>
<!-- set_marker_node_Set(10)&#45;&gt;set_marker_node_Set(3) -->
<g id="edge7" class="edge">
<title>set_marker_node_Set(10)&#45;&gt;set_marker_node_Set(3)</title>
<path fill="none" stroke="black" d="M757,-112C759.78,-112 762.64,-112 765.56,-112"/>
<polygon fill="black" stroke="black" points="765.49,-115.5 775.49,-112 765.49,-108.5 765.49,-115.5"/>
</g>
<!-- set_marker_node_Set(11)&#45;&gt;set_marker_node_Set(4) -->
<g id="edge9" class="edge">
<title>set_marker_node_Set(11)&#45;&gt;set_marker_node_Set(4)</title>
<path fill="none" stroke="black" d="M990,-128.91C996.65,-131.13 1003.47,-133.23 1010,-135 1011.84,-135.5 1013.71,-135.98 1015.61,-136.45"/>
<polygon fill="black" stroke="black" points="1014.63,-139.82 1025.17,-138.66 1016.21,-133 1014.63,-139.82"/>
</g>
<!-- set_marker_node_Set(59) -->
<!-- set_marker_node_Set(11)&#45;&gt;set_marker_node_Set(59) -->
<g id="edge14" class="edge">
<title>set_marker_node_Set(11)&#45;&gt;set_marker_node_Set(59)</title>
<path fill="none" stroke="black" d="M990,-107.78C997.94,-107.04 1006.31,-106.25 1014.56,-105.48"/>
<polygon fill="black" stroke="black" points="1014.87,-108.97 1024.5,-104.55 1014.21,-102 1014.87,-108.97"/>
</g>
<!-- set_marker_node_Set(12)&#45;&gt;set_marker_node_Set(5) -->
<g id="edge11" class="edge">
<title>set_marker_node_Set(12)&#45;&gt;set_marker_node_Set(5)</title>
<path fill="none" stroke="black" d="M1649,-124C1651.97,-124 1654.87,-124 1657.68,-124"/>
<polygon fill="black" stroke="black" points="1657.49,-127.5 1667.49,-124 1657.49,-120.5 1657.49,-127.5"/>
</g>
<!-- node_System(10) -->
<g id="node13" class="node">
<title>node_System(10)</title>
<polygon fill="none" stroke="black" points="1634,-106 1173,-106 1173,-70 1634,-70 1634,-106"/>
<text text-anchor="middle" x="1403.5" y="-84.3" font-family="Times,serif" font-size="14.00">check_hierarchy_component_has_valid_parent&lt;GlobalTransform&gt;</text>
</g>
<!-- node_System(62) -->
<g id="node14" class="node">
<title>node_System(62)</title>
<polygon fill="none" stroke="black" points="1641,-52 1166,-52 1166,-16 1641,-16 1641,-52"/>
<text text-anchor="middle" x="1403.5" y="-30.3" font-family="Times,serif" font-size="14.00">check_hierarchy_component_has_valid_parent&lt;ComputedVisibility&gt;</text>
</g>
<!-- set_marker_node_Set(58)&#45;&gt;set_marker_node_Set(7) -->
<g id="edge12" class="edge">
<title>set_marker_node_Set(58)&#45;&gt;set_marker_node_Set(7)</title>
<path fill="none" stroke="black" d="M158,-98.09C163.09,-99.24 168.29,-100.4 173.4,-101.55"/>
<polygon fill="black" stroke="black" points="172.35,-104.9 182.87,-103.67 173.88,-98.07 172.35,-104.9"/>
</g>
<!-- set_marker_node_Set(59)&#45;&gt;set_marker_node_Set(12) -->
<g id="edge15" class="edge">
<title>set_marker_node_Set(59)&#45;&gt;set_marker_node_Set(12)</title>
<path fill="none" stroke="black" d="M1122,-109.69C1130.05,-111.12 1138.5,-112.5 1146.81,-113.63"/>
<polygon fill="black" stroke="black" points="1146.15,-117.07 1156.5,-114.82 1147,-110.12 1146.15,-117.07"/>
</g>
</g>
</svg>
