<?xml version="1.0" encoding="UTF-8" standalone="no"?>
<!DOCTYPE svg PUBLIC "-//W3C//DTD SVG 1.1//EN"
 "http://www.w3.org/Graphics/SVG/1.1/DTD/svg11.dtd">
<!-- Generated by graphviz version 7.0.6 (0)
 -->
<!-- Title: schedule Pages: 1 -->
<svg width="1946pt" height="604pt"
 viewBox="0.00 0.00 1946.00 604.00" xmlns="http://www.w3.org/2000/svg" xmlns:xlink="http://www.w3.org/1999/xlink">
<g id="graph0" class="graph" transform="scale(1 1) rotate(0) translate(4 600)">
<title>schedule</title>
<polygon fill="#0d1117" stroke="none" points="-4,4 -4,-600 1942,-600 1942,4 -4,4"/>
<g id="clust1" class="cluster">
<title>clusternode_Set(0)</title>
<polygon fill="#6f90ad" stroke="black" points="693,-102 693,-141 758,-141 758,-102 693,-102"/>
<text text-anchor="middle" x="725.5" y="-125.8" font-family="Helvetica,sans-Serif" font-size="14.00">Update</text>
</g>
<g id="clust2" class="cluster">
<title>clusternode_Set(2)</title>
<polygon fill="#6f90ad" stroke="black" points="71,-123 71,-162 153,-162 153,-123 71,-123"/>
<text text-anchor="middle" x="112" y="-146.8" font-family="Helvetica,sans-Serif" font-size="14.00">FirstFlush</text>
</g>
<g id="clust3" class="cluster">
<title>clusternode_Set(3)</title>
<polygon fill="#6f90ad" stroke="black" points="286,-102 286,-141 408,-141 408,-102 286,-102"/>
<text text-anchor="middle" x="347" y="-125.8" font-family="Helvetica,sans-Serif" font-size="14.00">PreUpdateFlush</text>
</g>
<g id="clust4" class="cluster">
<title>clusternode_Set(4)</title>
<polygon fill="#6f90ad" stroke="black" points="779,-102 779,-141 880,-141 880,-102 779,-102"/>
<text text-anchor="middle" x="829.5" y="-125.8" font-family="Helvetica,sans-Serif" font-size="14.00">UpdateFlush</text>
</g>
<g id="clust5" class="cluster">
<title>clusternode_Set(5)</title>
<polygon fill="#6f90ad" stroke="black" points="1160,-55 1160,-94 1289,-94 1289,-55 1160,-55"/>
<text text-anchor="middle" x="1224.5" y="-78.8" font-family="Helvetica,sans-Serif" font-size="14.00">PostUpdateFlush</text>
</g>
<g id="clust6" class="cluster">
<title>clusternode_Set(6)</title>
<polygon fill="#6f90ad" stroke="black" points="1814,-20 1814,-59 1894,-59 1894,-20 1814,-20"/>
<text text-anchor="middle" x="1854" y="-43.8" font-family="Helvetica,sans-Serif" font-size="14.00">LastFlush</text>
</g>
<g id="clust7" class="cluster">
<title>clusternode_Set(7)</title>
<polygon fill="#6f90ad" stroke="black" points="0,-102 0,-141 46,-141 46,-102 0,-102"/>
<text text-anchor="middle" x="23" y="-125.8" font-family="Helvetica,sans-Serif" font-size="14.00">First</text>
</g>
<g id="clust8" class="cluster">
<title>clusternode_Set(8)</title>
<polygon fill="#6f90ad" stroke="black" points="179,-102 179,-141 265,-141 265,-102 179,-102"/>
<text text-anchor="middle" x="222" y="-125.8" font-family="Helvetica,sans-Serif" font-size="14.00">PreUpdate</text>
</g>
<g id="clust9" class="cluster">
<title>clusternode_Set(9)</title>
<polygon fill="#6f90ad" stroke="black" points="429,-102 429,-141 551,-141 551,-102 429,-102"/>
<text text-anchor="middle" x="490" y="-125.8" font-family="Helvetica,sans-Serif" font-size="14.00">StateTransitions</text>
</g>
<g id="clust10" class="cluster">
<title>clusternode_Set(10)</title>
<polygon fill="#6f90ad" stroke="black" points="572,-102 572,-141 672,-141 672,-102 572,-102"/>
<text text-anchor="middle" x="622" y="-125.8" font-family="Helvetica,sans-Serif" font-size="14.00">FixedUpdate</text>
</g>
<g id="clust11" class="cluster">
<title>clusternode_Set(11)</title>
<polygon fill="#6f90ad" stroke="black" points="899,-102 899,-588 1930,-588 1930,-102 899,-102"/>
<text text-anchor="middle" x="1414.5" y="-572.8" font-family="Helvetica,sans-Serif" font-size="14.00">PostUpdate</text>
</g>
<g id="clust12" class="cluster">
<title>clusternode_Set(20)</title>
<polygon fill="#6f90ad" stroke="black" points="1149,-420 1149,-459 1299,-459 1299,-420 1149,-420"/>
<text text-anchor="middle" x="1224" y="-443.8" font-family="Helvetica,sans-Serif" font-size="14.00">TransformPropagate</text>
</g>
<g id="clust13" class="cluster">
<title>clusternode_Set(70)</title>
<polygon fill="#6f90ad" stroke="black" points="907,-283 907,-322 1040,-322 1040,-283 907,-283"/>
<text text-anchor="middle" x="973.5" y="-306.8" font-family="Helvetica,sans-Serif" font-size="14.00">ModifiesWindows</text>
</g>
<g id="clust14" class="cluster">
<title>clusternode_Set(77)</title>
<polygon fill="#6f90ad" stroke="black" points="1069,-211 1069,-412 1379,-412 1379,-211 1069,-211"/>
<text text-anchor="middle" x="1224" y="-396.8" font-family="Helvetica,sans-Serif" font-size="14.00">CameraUpdateSystem</text>
</g>
<g id="clust15" class="cluster">
<title>clusternode_Set(81)</title>
<polygon fill="#6f90ad" stroke="black" points="1149.5,-110 1149.5,-203 1298.5,-203 1298.5,-110 1149.5,-110"/>
<text text-anchor="middle" x="1224" y="-187.8" font-family="Helvetica,sans-Serif" font-size="14.00">CalculateBounds</text>
</g>
<g id="clust16" class="cluster">
<title>clusternode_Set(82)</title>
<polygon fill="#6f90ad" stroke="black" points="1468,-110 1468,-149 1632,-149 1632,-110 1468,-110"/>
<text text-anchor="middle" x="1550" y="-133.8" font-family="Helvetica,sans-Serif" font-size="14.00">CalculateBoundsFlush</text>
</g>
<g id="clust17" class="cluster">
<title>clusternode_Set(83)</title>
<polygon fill="#6f90ad" stroke="black" points="1400,-304 1400,-397 1700,-397 1700,-304 1400,-304"/>
<text text-anchor="middle" x="1550" y="-381.8" font-family="Helvetica,sans-Serif" font-size="14.00">UpdateOrthographicFrusta</text>
</g>
<g id="clust18" class="cluster">
<title>clusternode_Set(84)</title>
<polygon fill="#6f90ad" stroke="black" points="1406.5,-157 1406.5,-250 1693.5,-250 1693.5,-157 1406.5,-157"/>
<text text-anchor="middle" x="1550" y="-234.8" font-family="Helvetica,sans-Serif" font-size="14.00">UpdatePerspectiveFrusta</text>
</g>
<g id="clust19" class="cluster">
<title>clusternode_Set(85)</title>
<polygon fill="#6f90ad" stroke="black" points="1464,-518 1464,-557 1637,-557 1637,-518 1464,-518"/>
<text text-anchor="middle" x="1550.5" y="-541.8" font-family="Helvetica,sans-Serif" font-size="14.00">UpdateProjectionFrusta</text>
</g>
<g id="clust20" class="cluster">
<title>clusternode_Set(86)</title>
<polygon fill="#6f90ad" stroke="black" points="1786,-339 1786,-432 1922,-432 1922,-339 1786,-339"/>
<text text-anchor="middle" x="1854" y="-416.8" font-family="Helvetica,sans-Serif" font-size="14.00">CheckVisibility</text>
</g>
<g id="clust21" class="cluster">
<title>clusternode_Set(87)</title>
<polygon fill="#6f90ad" stroke="black" points="1440.5,-417 1440.5,-510 1659.5,-510 1659.5,-417 1440.5,-417"/>
<text text-anchor="middle" x="1550" y="-494.8" font-family="Helvetica,sans-Serif" font-size="14.00">VisibilityPropagate</text>
</g>
<g id="clust22" class="cluster">
<title>clusternode_Set(12)</title>
<polygon fill="#6f90ad" stroke="black" points="1528,-20 1528,-59 1572,-59 1572,-20 1528,-20"/>
<text text-anchor="middle" x="1550" y="-43.8" font-family="Helvetica,sans-Serif" font-size="14.00">Last</text>
</g>
<g id="clust23" class="cluster">
<title>clusternode_Set(58)</title>
<polygon fill="#6f90ad" stroke="black" points="67,-76 67,-115 158,-115 158,-76 67,-76"/>
<text text-anchor="middle" x="112.5" y="-99.8" font-family="Helvetica,sans-Serif" font-size="14.00">LoadAssets</text>
</g>
<g id="clust24" class="cluster">
<title>clusternode_Set(59)</title>
<polygon fill="#6f90ad" stroke="black" points="1176,-8 1176,-47 1272,-47 1272,-8 1176,-8"/>
<text text-anchor="middle" x="1224" y="-31.8" font-family="Helvetica,sans-Serif" font-size="14.00">AssetEvents</text>
</g>
<!-- set_marker_node_Set(0) -->
<!-- set_marker_node_Set(4) -->
<!-- set_marker_node_Set(0)&#45;&gt;set_marker_node_Set(4) -->
<g id="edge7" class="edge">
<title>set_marker_node_Set(0)&#45;&gt;set_marker_node_Set(4)</title>
<path fill="none" stroke="white" d="M758,-110C761.15,-110 764.43,-110 767.75,-110"/>
<polygon fill="white" stroke="white" points="767.49,-113.5 777.49,-110 767.49,-106.5 767.49,-113.5"/>
</g>
<!-- set_marker_node_Set(2) -->
<!-- set_marker_node_Set(8) -->
<!-- set_marker_node_Set(2)&#45;&gt;set_marker_node_Set(8) -->
<g id="edge2" class="edge">
<title>set_marker_node_Set(2)&#45;&gt;set_marker_node_Set(8)</title>
<path fill="none" stroke="white" d="M153,-123.22C157.82,-122.29 162.8,-121.32 167.77,-120.35"/>
<polygon fill="white" stroke="white" points="168.37,-123.8 177.52,-118.46 167.03,-116.93 168.37,-123.8"/>
</g>
<!-- set_marker_node_Set(3) -->
<!-- set_marker_node_Set(9) -->
<!-- set_marker_node_Set(3)&#45;&gt;set_marker_node_Set(9) -->
<g id="edge4" class="edge">
<title>set_marker_node_Set(3)&#45;&gt;set_marker_node_Set(9)</title>
<path fill="none" stroke="white" d="M408,-110C411.17,-110 414.36,-110 417.56,-110"/>
<polygon fill="white" stroke="white" points="417.49,-113.5 427.49,-110 417.49,-106.5 417.49,-113.5"/>
</g>
<!-- set_marker_node_Set(11) -->
<!-- set_marker_node_Set(4)&#45;&gt;set_marker_node_Set(11) -->
<g id="edge8" class="edge">
<title>set_marker_node_Set(4)&#45;&gt;set_marker_node_Set(11)</title>
<path fill="none" stroke="white" d="M880,-110C882.5,-110 885.05,-110 887.61,-110"/>
<polygon fill="white" stroke="white" points="887.49,-113.5 897.49,-110 887.49,-106.5 887.49,-113.5"/>
</g>
<!-- set_marker_node_Set(5) -->
<!-- set_marker_node_Set(12) -->
<!-- set_marker_node_Set(5)&#45;&gt;set_marker_node_Set(12) -->
<g id="edge10" class="edge">
<title>set_marker_node_Set(5)&#45;&gt;set_marker_node_Set(12)</title>
<path fill="none" stroke="white" d="M1289,-58.83C1316.7,-56.81 1349.48,-54.14 1379,-51 1427.16,-45.87 1482.74,-37.98 1516.87,-32.9"/>
<polygon fill="white" stroke="white" points="1517.14,-36.4 1526.51,-31.46 1516.1,-29.48 1517.14,-36.4"/>
</g>
<!-- set_marker_node_Set(6) -->
<!-- set_marker_node_Set(7) -->
<!-- set_marker_node_Set(7)&#45;&gt;set_marker_node_Set(2) -->
<g id="edge1" class="edge">
<title>set_marker_node_Set(7)&#45;&gt;set_marker_node_Set(2)</title>
<path fill="none" stroke="white" d="M46,-115.31C52.36,-116.84 59.53,-118.58 66.73,-120.31"/>
<polygon fill="white" stroke="white" points="65.85,-123.7 76.39,-122.65 67.49,-116.9 65.85,-123.7"/>
</g>
<!-- set_marker_node_Set(58) -->
<!-- set_marker_node_Set(7)&#45;&gt;set_marker_node_Set(58) -->
<g id="edge13" class="edge">
<title>set_marker_node_Set(7)&#45;&gt;set_marker_node_Set(58)</title>
<path fill="none" stroke="white" d="M46,-103.43C49.26,-102.45 52.75,-101.41 56.34,-100.34"/>
<polygon fill="white" stroke="white" points="56.98,-103.8 65.55,-97.58 54.97,-97.09 56.98,-103.8"/>
</g>
<!-- set_marker_node_Set(8)&#45;&gt;set_marker_node_Set(3) -->
<g id="edge3" class="edge">
<title>set_marker_node_Set(8)&#45;&gt;set_marker_node_Set(3)</title>
<path fill="none" stroke="white" d="M265,-110C268.16,-110 271.4,-110 274.68,-110"/>
<polygon fill="white" stroke="white" points="274.49,-113.5 284.49,-110 274.49,-106.5 274.49,-113.5"/>
</g>
<!-- set_marker_node_Set(10) -->
<!-- set_marker_node_Set(9)&#45;&gt;set_marker_node_Set(10) -->
<g id="edge5" class="edge">
<title>set_marker_node_Set(9)&#45;&gt;set_marker_node_Set(10)</title>
<path fill="none" stroke="white" d="M551,-110C554.3,-110 557.61,-110 560.92,-110"/>
<polygon fill="white" stroke="white" points="560.49,-113.5 570.49,-110 560.49,-106.5 560.49,-113.5"/>
</g>
<!-- set_marker_node_Set(10)&#45;&gt;set_marker_node_Set(0) -->
<g id="edge6" class="edge">
<title>set_marker_node_Set(10)&#45;&gt;set_marker_node_Set(0)</title>
<path fill="none" stroke="white" d="M672,-110C675.26,-110 678.54,-110 681.76,-110"/>
<polygon fill="white" stroke="white" points="681.49,-113.5 691.49,-110 681.49,-106.5 681.49,-113.5"/>
</g>
<!-- set_marker_node_Set(11)&#45;&gt;set_marker_node_Set(5) -->
<g id="edge9" class="edge">
<title>set_marker_node_Set(11)&#45;&gt;set_marker_node_Set(5)</title>
<path fill="none" stroke="white" d="M1016.36,-102C1052.66,-95.15 1105.78,-85.13 1149.07,-76.95"/>
<polygon fill="white" stroke="white" points="1149.34,-80.47 1158.51,-75.17 1148.04,-73.59 1149.34,-80.47"/>
</g>
<!-- set_marker_node_Set(59) -->
<!-- set_marker_node_Set(11)&#45;&gt;set_marker_node_Set(59) -->
<g id="edge14" class="edge">
<title>set_marker_node_Set(11)&#45;&gt;set_marker_node_Set(59)</title>
<path fill="none" stroke="white" d="M984.27,-102C1001.05,-89.31 1035.82,-64.62 1069,-51 1099.6,-38.43 1135.57,-29.94 1165.05,-24.47"/>
<polygon fill="white" stroke="white" points="1165.28,-27.98 1174.51,-22.78 1164.05,-21.09 1165.28,-27.98"/>
</g>
<!-- set_marker_node_Set(20) -->
<!-- node_System(68) -->
<g id="node22" class="node">
<title>node_System(68)</title>
<polygon fill="#eff1f3" stroke="#eff1f3" points="1692,-348 1408,-348 1408,-312 1692,-312 1692,-348"/>
<text text-anchor="middle" x="1550" y="-326.3" font-family="Times,serif" font-size="14.00">update_frusta&lt;OrthographicProjection&gt;</text>
</g>
<!-- set_marker_node_Set(20)&#45;&gt;node_System(68) -->
<g id="edge21" class="edge">
<title>set_marker_node_Set(20)&#45;&gt;node_System(68)</title>
<path fill="none" stroke="white" d="M1299,-438.26C1326.57,-438.23 1356.59,-433.16 1379,-416 1390.05,-407.54 1389.39,-366.01 1400,-357 1400.81,-356.31 1401.63,-355.64 1402.47,-354.98"/>
<polygon fill="white" stroke="white" points="1404.36,-357.93 1410.55,-349.33 1400.35,-352.19 1404.36,-357.93"/>
</g>
<!-- node_System(69) -->
<g id="node24" class="node">
<title>node_System(69)</title>
<polygon fill="#eff1f3" stroke="#eff1f3" points="1685.5,-201 1414.5,-201 1414.5,-165 1685.5,-165 1685.5,-201"/>
<text text-anchor="middle" x="1550" y="-179.3" font-family="Times,serif" font-size="14.00">update_frusta&lt;PerspectiveProjection&gt;</text>
</g>
<!-- set_marker_node_Set(20)&#45;&gt;node_System(69) -->
<g id="edge23" class="edge">
<title>set_marker_node_Set(20)&#45;&gt;node_System(69)</title>
<path fill="none" stroke="white" d="M1299,-440.92C1327.55,-441.59 1358.27,-436.3 1379,-416 1387.06,-408.11 1387.86,-326.22 1389,-315 1393.76,-268.32 1368.09,-244.4 1400,-210 1401.74,-208.12 1403.57,-206.35 1405.47,-204.67"/>
<polygon fill="white" stroke="white" points="1407.25,-207.72 1413.06,-198.86 1402.99,-202.16 1407.25,-207.72"/>
</g>
<!-- node_System(72) -->
<g id="node27" class="node">
<title>node_System(72)</title>
<polygon fill="#eff1f3" stroke="#eff1f3" points="1914,-383 1794,-383 1794,-347 1914,-347 1914,-383"/>
<text text-anchor="middle" x="1854" y="-361.3" font-family="Times,serif" font-size="14.00">check_visibility</text>
</g>
<!-- set_marker_node_Set(20)&#45;&gt;node_System(72) -->
<g id="edge31" class="edge">
<title>set_marker_node_Set(20)&#45;&gt;node_System(72)</title>
<path fill="none" stroke="white" d="M1299,-423.2C1324.39,-421.3 1352.97,-418.87 1379,-416 1388.37,-414.97 1390.61,-413.82 1400,-413 1441.64,-409.37 1737.22,-416.6 1776,-401 1781.55,-398.77 1780.93,-395.17 1786,-392 1787.88,-390.83 1789.81,-389.69 1791.79,-388.59"/>
<polygon fill="white" stroke="white" points="1793.31,-391.74 1800.6,-384.06 1790.1,-385.52 1793.31,-391.74"/>
</g>
<!-- node_System(70) -->
<g id="node30" class="node">
<title>node_System(70)</title>
<polygon fill="#eff1f3" stroke="#eff1f3" points="1647,-294 1453,-294 1453,-258 1647,-258 1647,-294"/>
<text text-anchor="middle" x="1550" y="-272.3" font-family="Times,serif" font-size="14.00">update_frusta&lt;Projection&gt;</text>
</g>
<!-- set_marker_node_Set(20)&#45;&gt;node_System(70) -->
<g id="edge25" class="edge">
<title>set_marker_node_Set(20)&#45;&gt;node_System(70)</title>
<path fill="none" stroke="white" d="M1299,-440.08C1327.21,-440.51 1357.67,-435.27 1379,-416 1388.72,-407.22 1390.65,-309.17 1400,-300 1411.55,-288.67 1426.2,-281.41 1441.78,-276.92"/>
<polygon fill="white" stroke="white" points="1442.34,-280.38 1451.21,-274.59 1440.67,-273.58 1442.34,-280.38"/>
</g>
<!-- set_marker_node_Set(70) -->
<!-- node_System(63) -->
<g id="node15" class="node">
<title>node_System(63)</title>
<polygon fill="#eff1f3" stroke="#eff1f3" points="1326,-309 1122,-309 1122,-273 1326,-273 1326,-309"/>
<text text-anchor="middle" x="1224" y="-287.3" font-family="Times,serif" font-size="14.00">camera_system&lt;Projection&gt;</text>
</g>
<!-- set_marker_node_Set(70)&#45;&gt;node_System(63) -->
<g id="edge16" class="edge">
<title>set_marker_node_Set(70)&#45;&gt;node_System(63)</title>
<path fill="none" stroke="white" d="M1040,-291C1061.61,-291 1086.27,-291 1110.34,-291"/>
<polygon fill="white" stroke="white" points="1110.04,-294.5 1120.04,-291 1110.04,-287.5 1110.04,-294.5"/>
</g>
<!-- node_System(64) -->
<g id="node16" class="node">
<title>node_System(64)</title>
<polygon fill="#eff1f3" stroke="#eff1f3" points="1371,-363 1077,-363 1077,-327 1371,-327 1371,-363"/>
<text text-anchor="middle" x="1224" y="-341.3" font-family="Times,serif" font-size="14.00">camera_system&lt;OrthographicProjection&gt;</text>
</g>
<!-- set_marker_node_Set(70)&#45;&gt;node_System(64) -->
<g id="edge17" class="edge">
<title>set_marker_node_Set(70)&#45;&gt;node_System(64)</title>
<path fill="none" stroke="white" d="M1040,-310.7C1049.68,-313.32 1059.57,-315.84 1069,-318 1078.72,-320.23 1088.81,-322.37 1098.98,-324.41"/>
<polygon fill="white" stroke="white" points="1098.06,-327.79 1108.54,-326.28 1099.4,-320.92 1098.06,-327.79"/>
</g>
<!-- node_System(65) -->
<g id="node17" class="node">
<title>node_System(65)</title>
<polygon fill="#eff1f3" stroke="#eff1f3" points="1364.5,-255 1083.5,-255 1083.5,-219 1364.5,-219 1364.5,-255"/>
<text text-anchor="middle" x="1224" y="-233.3" font-family="Times,serif" font-size="14.00">camera_system&lt;PerspectiveProjection&gt;</text>
</g>
<!-- set_marker_node_Set(70)&#45;&gt;node_System(65) -->
<g id="edge18" class="edge">
<title>set_marker_node_Set(70)&#45;&gt;node_System(65)</title>
<path fill="none" stroke="white" d="M1040,-287C1055.36,-281.12 1053.99,-270.74 1069,-264 1072.81,-262.29 1076.73,-260.68 1080.71,-259.18"/>
<polygon fill="white" stroke="white" points="1081.71,-262.54 1089.99,-255.93 1079.4,-255.93 1081.71,-262.54"/>
</g>
<!-- set_marker_node_Set(77) -->
<!-- node_System(63)&#45;&gt;node_System(70) -->
<g id="edge24" class="edge">
<title>node_System(63)&#45;&gt;node_System(70)</title>
<path fill="none" stroke="white" d="M1326.18,-286.32C1362.78,-284.62 1404.22,-282.7 1441.36,-280.98"/>
<polygon fill="white" stroke="white" points="1441.39,-284.49 1451.22,-280.53 1441.07,-277.49 1441.39,-284.49"/>
</g>
<!-- node_System(64)&#45;&gt;node_System(68) -->
<g id="edge20" class="edge">
<title>node_System(64)&#45;&gt;node_System(68)</title>
<path fill="none" stroke="white" d="M1371.36,-338.22C1379.66,-337.84 1388.02,-337.45 1396.34,-337.07"/>
<polygon fill="white" stroke="white" points="1396.32,-340.57 1406.15,-336.61 1396,-333.58 1396.32,-340.57"/>
</g>
<!-- node_System(65)&#45;&gt;node_System(69) -->
<g id="edge22" class="edge">
<title>node_System(65)&#45;&gt;node_System(69)</title>
<path fill="none" stroke="white" d="M1335.6,-218.57C1365.07,-213.66 1397.07,-208.32 1427.11,-203.32"/>
<polygon fill="white" stroke="white" points="1427.3,-206.83 1436.58,-201.74 1426.15,-199.93 1427.3,-206.83"/>
</g>
<!-- set_marker_node_Set(81) -->
<!-- set_marker_node_Set(82) -->
<!-- set_marker_node_Set(81)&#45;&gt;set_marker_node_Set(82) -->
<g id="edge19" class="edge">
<title>set_marker_node_Set(81)&#45;&gt;set_marker_node_Set(82)</title>
<path fill="none" stroke="white" d="M1298.5,-173.45C1324.29,-172.45 1353.24,-169.62 1379,-163 1389.01,-160.43 1390.25,-156.42 1400,-153 1418.11,-146.64 1437.87,-141.09 1456.9,-136.38"/>
<polygon fill="white" stroke="white" points="1457.63,-139.81 1466.53,-134.07 1455.99,-133 1457.63,-139.81"/>
</g>
<!-- node_System(67) -->
<g id="node19" class="node">
<title>node_System(67)</title>
<polygon fill="#eff1f3" stroke="#eff1f3" points="1290.5,-154 1157.5,-154 1157.5,-118 1290.5,-118 1290.5,-154"/>
<text text-anchor="middle" x="1224" y="-132.3" font-family="Times,serif" font-size="14.00">calculate_bounds</text>
</g>
<!-- set_marker_node_Set(82)&#45;&gt;node_System(72) -->
<g id="edge26" class="edge">
<title>set_marker_node_Set(82)&#45;&gt;node_System(72)</title>
<path fill="none" stroke="white" d="M1632,-129.15C1654.86,-134.36 1679.16,-141.95 1700,-153 1775.18,-192.86 1822.3,-288.03 1842.14,-336.13"/>
<polygon fill="white" stroke="white" points="1838.86,-337.35 1845.82,-345.33 1845.36,-334.74 1838.86,-337.35"/>
</g>
<!-- set_marker_node_Set(83) -->
<!-- set_marker_node_Set(83)&#45;&gt;node_System(72) -->
<g id="edge27" class="edge">
<title>set_marker_node_Set(83)&#45;&gt;node_System(72)</title>
<path fill="none" stroke="white" d="M1700,-357.31C1725.36,-356.8 1751.44,-356.89 1776,-358 1778.07,-358.09 1780.17,-358.2 1782.3,-358.32"/>
<polygon fill="white" stroke="white" points="1782.05,-361.81 1792.25,-358.97 1782.5,-354.83 1782.05,-361.81"/>
</g>
<!-- set_marker_node_Set(84) -->
<!-- set_marker_node_Set(84)&#45;&gt;node_System(72) -->
<g id="edge28" class="edge">
<title>set_marker_node_Set(84)&#45;&gt;node_System(72)</title>
<path fill="none" stroke="white" d="M1693.5,-220.55C1695.69,-221.31 1697.86,-222.13 1700,-223 1758.27,-246.78 1807.9,-303.65 1833.79,-337.77"/>
<polygon fill="white" stroke="white" points="1830.77,-339.58 1839.55,-345.52 1836.4,-335.41 1830.77,-339.58"/>
</g>
<!-- set_marker_node_Set(85) -->
<!-- set_marker_node_Set(85)&#45;&gt;node_System(72) -->
<g id="edge29" class="edge">
<title>set_marker_node_Set(85)&#45;&gt;node_System(72)</title>
<path fill="none" stroke="white" d="M1637,-528.82C1658.28,-526.91 1680.55,-522.59 1700,-514 1742.28,-495.33 1753.58,-483.42 1776,-443 1787.21,-422.8 1771.29,-409.8 1786,-392 1786.34,-391.59 1786.69,-391.18 1787.04,-390.79"/>
<polygon fill="white" stroke="white" points="1789.15,-393.59 1794.24,-384.3 1784.47,-388.39 1789.15,-393.59"/>
</g>
<!-- set_marker_node_Set(86) -->
<!-- set_marker_node_Set(87) -->
<!-- set_marker_node_Set(87)&#45;&gt;node_System(72) -->
<g id="edge30" class="edge">
<title>set_marker_node_Set(87)&#45;&gt;node_System(72)</title>
<path fill="none" stroke="white" d="M1659.5,-480.09C1673.4,-478.02 1687.23,-474.81 1700,-470 1740.02,-454.93 1748.53,-443.77 1776,-411 1782.13,-403.69 1778.92,-398.4 1786,-392 1786.77,-391.3 1787.57,-390.62 1788.38,-389.95"/>
<polygon fill="white" stroke="white" points="1790.26,-392.91 1796.44,-384.31 1786.24,-387.18 1790.26,-392.91"/>
</g>
<!-- node_System(71) -->
<g id="node29" class="node">
<title>node_System(71)</title>
<polygon fill="#eff1f3" stroke="#eff1f3" points="1651.5,-461 1448.5,-461 1448.5,-425 1651.5,-425 1651.5,-461"/>
<text text-anchor="middle" x="1550" y="-439.3" font-family="Times,serif" font-size="14.00">visibility_propagate_system</text>
</g>
<!-- node_System(70)&#45;&gt;node_System(72) -->
<g id="edge32" class="edge">
<title>node_System(70)&#45;&gt;node_System(72)</title>
<path fill="none" stroke="#c93526" d="M1647.14,-287.98C1664.89,-291.17 1683.13,-295.14 1700,-300 1741.18,-311.87 1786.07,-331.84 1816.51,-346.52"/>
<g id="a_edge32&#45;label"><a xlink:title="update_frusta&lt;Projection&gt; &#45;&#45; check_visibility">
<polygon fill="#c6e6ff" stroke="none" points="1712,-327.5 1712,-346.5 1774,-346.5 1774,-327.5 1712,-327.5"/>
<text text-anchor="start" x="1714" y="-333.3" font-family="Times,serif" font-size="14.00" fill="#c93526">Frustum</text>
</a>
</g>
</g>
<!-- set_marker_node_Set(12)&#45;&gt;set_marker_node_Set(6) -->
<g id="edge11" class="edge">
<title>set_marker_node_Set(12)&#45;&gt;set_marker_node_Set(6)</title>
<path fill="none" stroke="white" d="M1572,-28C1619.3,-28 1735.3,-28 1802.55,-28"/>
<polygon fill="white" stroke="white" points="1802.49,-31.5 1812.49,-28 1802.49,-24.5 1802.49,-31.5"/>
</g>
<!-- set_marker_node_Set(58)&#45;&gt;set_marker_node_Set(8) -->
<g id="edge12" class="edge">
<title>set_marker_node_Set(58)&#45;&gt;set_marker_node_Set(8)</title>
<path fill="none" stroke="white" d="M158,-94.83C164.25,-96.34 170.68,-97.89 176.92,-99.39"/>
<polygon fill="white" stroke="white" points="175.77,-102.71 186.31,-101.65 177.41,-95.9 175.77,-102.71"/>
</g>
<!-- set_marker_node_Set(59)&#45;&gt;set_marker_node_Set(12) -->
<g id="edge15" class="edge">
<title>set_marker_node_Set(59)&#45;&gt;set_marker_node_Set(12)</title>
<path fill="none" stroke="white" d="M1272,-17.74C1338.64,-20.21 1458.9,-24.66 1516.51,-26.8"/>
<polygon fill="white" stroke="white" points="1516.37,-30.29 1526.49,-27.17 1516.63,-23.3 1516.37,-30.29"/>
</g>
</g>
</svg>
