<?xml version="1.0" encoding="UTF-8" standalone="no"?>
<!DOCTYPE svg PUBLIC "-//W3C//DTD SVG 1.1//EN"
 "http://www.w3.org/Graphics/SVG/1.1/DTD/svg11.dtd">
<!-- Generated by graphviz version 7.0.6 (0)
 -->
<!-- Title: schedule Pages: 1 -->
<svg width="1981pt" height="307pt"
 viewBox="0.00 0.00 1981.00 307.00" xmlns="http://www.w3.org/2000/svg" xmlns:xlink="http://www.w3.org/1999/xlink">
<g id="graph0" class="graph" transform="scale(1 1) rotate(0) translate(4 303)">
<title>schedule</title>
<polygon fill="white" stroke="none" points="-4,4 -4,-303 1977,-303 1977,4 -4,4"/>
<g id="clust1" class="cluster">
<title>clusternode_Set(1)</title>
<polygon fill="none" stroke="black" points="70,-172 70,-211 154,-211 154,-172 70,-172"/>
<text text-anchor="middle" x="112" y="-195.8" font-family="Times,serif" font-size="14.00">FirstFlush</text>
</g>
<g id="clust2" class="cluster">
<title>clusternode_Set(2)</title>
<polygon fill="none" stroke="black" points="316.5,-102 316.5,-141 439.5,-141 439.5,-102 316.5,-102"/>
<text text-anchor="middle" x="378" y="-125.8" font-family="Times,serif" font-size="14.00">PreUpdateFlush</text>
</g>
<g id="clust3" class="cluster">
<title>clusternode_Set(3)</title>
<polygon fill="none" stroke="black" points="818,-102 818,-141 919,-141 919,-102 818,-102"/>
<text text-anchor="middle" x="868.5" y="-125.8" font-family="Times,serif" font-size="14.00">UpdateFlush</text>
</g>
<g id="clust4" class="cluster">
<title>clusternode_Set(4)</title>
<polygon fill="none" stroke="black" points="1183,-55 1183,-94 1311,-94 1311,-55 1183,-55"/>
<text text-anchor="middle" x="1247" y="-78.8" font-family="Times,serif" font-size="14.00">PostUpdateFlush</text>
</g>
<g id="clust5" class="cluster">
<title>clusternode_Set(5)</title>
<polygon fill="none" stroke="black" points="1626,-31 1626,-70 1708,-70 1708,-31 1626,-31"/>
<text text-anchor="middle" x="1667" y="-54.8" font-family="Times,serif" font-size="14.00">LastFlush</text>
</g>
<g id="clust6" class="cluster">
<title>clusternode_Set(6)</title>
<polygon fill="none" stroke="black" points="0,-148 0,-187 47,-187 47,-148 0,-148"/>
<text text-anchor="middle" x="23.5" y="-171.8" font-family="Times,serif" font-size="14.00">First</text>
</g>
<g id="clust7" class="cluster">
<title>clusternode_Set(7)</title>
<polygon fill="none" stroke="black" points="170,-149 170,-281 456,-281 456,-149 170,-149"/>
<text text-anchor="middle" x="313" y="-265.8" font-family="Times,serif" font-size="14.00">PreUpdate</text>
</g>
<g id="clust8" class="cluster">
<title>clusternode_Set(24)</title>
<polygon fill="none" stroke="black" points="178,-175 178,-214 279,-214 279,-175 178,-175"/>
<text text-anchor="middle" x="228.5" y="-198.8" font-family="Times,serif" font-size="14.00">InputSystem</text>
</g>
<g id="clust9" class="cluster">
<title>clusternode_Set(115)</title>
<polygon fill="none" stroke="black" points="307,-157 307,-250 448,-250 448,-157 307,-157"/>
<text text-anchor="middle" x="377.5" y="-234.8" font-family="Times,serif" font-size="14.00">Focus</text>
</g>
<g id="clust10" class="cluster">
<title>clusternode_Set(8)</title>
<polygon fill="none" stroke="black" points="468,-102 468,-141 593,-141 593,-102 468,-102"/>
<text text-anchor="middle" x="530.5" y="-125.8" font-family="Times,serif" font-size="14.00">StateTransitions</text>
</g>
<g id="clust11" class="cluster">
<title>clusternode_Set(9)</title>
<polygon fill="none" stroke="black" points="613,-102 613,-141 714,-141 714,-102 613,-102"/>
<text text-anchor="middle" x="663.5" y="-125.8" font-family="Times,serif" font-size="14.00">FixedUpdate</text>
</g>
<g id="clust12" class="cluster">
<title>clusternode_Set(10)</title>
<polygon fill="none" stroke="black" points="734,-102 734,-141 798,-141 798,-102 734,-102"/>
<text text-anchor="middle" x="766" y="-125.8" font-family="Times,serif" font-size="14.00">Update</text>
</g>
<g id="clust13" class="cluster">
<title>clusternode_Set(11)</title>
<polygon fill="none" stroke="black" points="928,-102 928,-291 1965,-291 1965,-102 928,-102"/>
<text text-anchor="middle" x="1446.5" y="-275.8" font-family="Times,serif" font-size="14.00">PostUpdate</text>
</g>
<g id="clust14" class="cluster">
<title>clusternode_Set(20)</title>
<polygon fill="none" stroke="black" points="1589,-203 1589,-242 1745,-242 1745,-203 1589,-203"/>
<text text-anchor="middle" x="1667" y="-226.8" font-family="Times,serif" font-size="14.00">TransformPropagate</text>
</g>
<g id="clust15" class="cluster">
<title>clusternode_Set(70)</title>
<polygon fill="none" stroke="black" points="938.5,-221 938.5,-260 1075.5,-260 1075.5,-221 938.5,-221"/>
<text text-anchor="middle" x="1007" y="-244.8" font-family="Times,serif" font-size="14.00">ModifiesWindows</text>
</g>
<g id="clust16" class="cluster">
<title>clusternode_Set(116)</title>
<polygon fill="none" stroke="black" points="1411,-167 1411,-260 1561,-260 1561,-167 1411,-167"/>
<text text-anchor="middle" x="1486" y="-244.8" font-family="Times,serif" font-size="14.00">Flex</text>
</g>
<g id="clust17" class="cluster">
<title>clusternode_Set(117)</title>
<polygon fill="none" stroke="black" points="936,-120 936,-213 1077,-213 1077,-120 936,-120"/>
<text text-anchor="middle" x="1006.5" y="-197.8" font-family="Times,serif" font-size="14.00">Stack</text>
</g>
<g id="clust18" class="cluster">
<title>clusternode_Set(12)</title>
<polygon fill="none" stroke="black" points="1464,-31 1464,-70 1509,-70 1509,-31 1464,-31"/>
<text text-anchor="middle" x="1486.5" y="-54.8" font-family="Times,serif" font-size="14.00">Last</text>
</g>
<g id="clust19" class="cluster">
<title>clusternode_Set(58)</title>
<polygon fill="none" stroke="black" points="67,-125 67,-164 158,-164 158,-125 67,-125"/>
<text text-anchor="middle" x="112.5" y="-148.8" font-family="Times,serif" font-size="14.00">LoadAssets</text>
</g>
<g id="clust20" class="cluster">
<title>clusternode_Set(59)</title>
<polygon fill="none" stroke="black" points="1199,-8 1199,-47 1295,-47 1295,-8 1199,-8"/>
<text text-anchor="middle" x="1247" y="-31.8" font-family="Times,serif" font-size="14.00">AssetEvents</text>
</g>
<!-- set_marker_node_Set(1) -->
<!-- set_marker_node_Set(7) -->
<!-- set_marker_node_Set(1)&#45;&gt;set_marker_node_Set(7) -->
<g id="edge2" class="edge">
<title>set_marker_node_Set(1)&#45;&gt;set_marker_node_Set(7)</title>
<path fill="none" stroke="black" d="M152.64,-172C154.65,-171.6 156.69,-171.19 158.74,-170.77"/>
<polygon fill="black" stroke="black" points="159.41,-174.21 168.52,-168.8 158.02,-167.35 159.41,-174.21"/>
</g>
<!-- set_marker_node_Set(2) -->
<!-- set_marker_node_Set(8) -->
<!-- set_marker_node_Set(2)&#45;&gt;set_marker_node_Set(8) -->
<g id="edge4" class="edge">
<title>set_marker_node_Set(2)&#45;&gt;set_marker_node_Set(8)</title>
<path fill="none" stroke="black" d="M439.5,-110C445.25,-110 451.12,-110 456.97,-110"/>
<polygon fill="black" stroke="black" points="456.49,-113.5 466.49,-110 456.49,-106.5 456.49,-113.5"/>
</g>
<!-- set_marker_node_Set(3) -->
<!-- set_marker_node_Set(11) -->
<!-- set_marker_node_Set(3)&#45;&gt;set_marker_node_Set(11) -->
<g id="edge8" class="edge">
<title>set_marker_node_Set(3)&#45;&gt;set_marker_node_Set(11)</title>
<path fill="none" stroke="black" d="M919,-110C921.25,-110 923.5,-110 925.75,-110"/>
<polygon fill="black" stroke="black" points="916.49,-113.5 926.49,-110 916.49,-106.5 916.49,-113.5"/>
</g>
<!-- set_marker_node_Set(4) -->
<!-- set_marker_node_Set(12) -->
<!-- set_marker_node_Set(4)&#45;&gt;set_marker_node_Set(12) -->
<g id="edge10" class="edge">
<title>set_marker_node_Set(4)&#45;&gt;set_marker_node_Set(12)</title>
<path fill="none" stroke="black" d="M1311,-57.77C1333.71,-55.79 1359.52,-53.42 1383,-51 1406.35,-48.59 1432.65,-45.49 1452.7,-43.04"/>
<polygon fill="black" stroke="black" points="1453,-46.53 1462.5,-41.83 1452.15,-39.58 1453,-46.53"/>
</g>
<!-- set_marker_node_Set(5) -->
<!-- set_marker_node_Set(6) -->
<!-- set_marker_node_Set(6)&#45;&gt;set_marker_node_Set(1) -->
<g id="edge1" class="edge">
<title>set_marker_node_Set(6)&#45;&gt;set_marker_node_Set(1)</title>
<path fill="none" stroke="black" d="M47,-162.44C53.47,-164.25 60.51,-166.21 67,-168 68.18,-168.33 69.37,-168.65 70.58,-168.99"/>
<polygon fill="black" stroke="black" points="69.56,-172.34 80.13,-171.6 71.41,-165.58 69.56,-172.34"/>
</g>
<!-- set_marker_node_Set(58) -->
<!-- set_marker_node_Set(6)&#45;&gt;set_marker_node_Set(58) -->
<g id="edge13" class="edge">
<title>set_marker_node_Set(6)&#45;&gt;set_marker_node_Set(58)</title>
<path fill="none" stroke="black" d="M47,-149.92C49.97,-149.13 53.11,-148.3 56.34,-147.45"/>
<polygon fill="black" stroke="black" points="56.77,-150.96 65.54,-145.02 54.98,-144.19 56.77,-150.96"/>
</g>
<!-- set_marker_node_Set(7)&#45;&gt;set_marker_node_Set(2) -->
<g id="edge3" class="edge">
<title>set_marker_node_Set(7)&#45;&gt;set_marker_node_Set(2)</title>
<path fill="none" stroke="black" d="M254.1,-149C268.43,-144.44 287.19,-138.46 305.7,-132.56"/>
<polygon fill="black" stroke="black" points="306.59,-135.95 315.06,-129.58 304.47,-129.28 306.59,-135.95"/>
</g>
<!-- set_marker_node_Set(24) -->
<!-- node_System(94) -->
<g id="node10" class="node">
<title>node_System(94)</title>
<polygon fill="none" stroke="black" points="440,-201 315,-201 315,-165 440,-165 440,-201"/>
<text text-anchor="middle" x="377.5" y="-179.3" font-family="Times,serif" font-size="14.00">ui_focus_system</text>
</g>
<!-- set_marker_node_Set(24)&#45;&gt;node_System(94) -->
<g id="edge16" class="edge">
<title>set_marker_node_Set(24)&#45;&gt;node_System(94)</title>
<path fill="none" stroke="black" d="M279,-183C286.9,-183 295.22,-183 303.52,-183"/>
<polygon fill="black" stroke="black" points="303.13,-186.5 313.13,-183 303.13,-179.5 303.13,-186.5"/>
</g>
<!-- set_marker_node_Set(115) -->
<!-- set_marker_node_Set(9) -->
<!-- set_marker_node_Set(8)&#45;&gt;set_marker_node_Set(9) -->
<g id="edge5" class="edge">
<title>set_marker_node_Set(8)&#45;&gt;set_marker_node_Set(9)</title>
<path fill="none" stroke="black" d="M593,-110C595.93,-110 598.87,-110 601.8,-110"/>
<polygon fill="black" stroke="black" points="601.49,-113.5 611.49,-110 601.49,-106.5 601.49,-113.5"/>
</g>
<!-- set_marker_node_Set(10) -->
<!-- set_marker_node_Set(9)&#45;&gt;set_marker_node_Set(10) -->
<g id="edge6" class="edge">
<title>set_marker_node_Set(9)&#45;&gt;set_marker_node_Set(10)</title>
<path fill="none" stroke="black" d="M714,-110C716.93,-110 719.87,-110 722.76,-110"/>
<polygon fill="black" stroke="black" points="722.49,-113.5 732.49,-110 722.49,-106.5 722.49,-113.5"/>
</g>
<!-- set_marker_node_Set(10)&#45;&gt;set_marker_node_Set(3) -->
<g id="edge7" class="edge">
<title>set_marker_node_Set(10)&#45;&gt;set_marker_node_Set(3)</title>
<path fill="none" stroke="black" d="M798,-110C800.78,-110 803.64,-110 806.56,-110"/>
<polygon fill="black" stroke="black" points="806.49,-113.5 816.49,-110 806.49,-106.5 806.49,-113.5"/>
</g>
<!-- set_marker_node_Set(11)&#45;&gt;set_marker_node_Set(4) -->
<g id="edge9" class="edge">
<title>set_marker_node_Set(11)&#45;&gt;set_marker_node_Set(4)</title>
<path fill="none" stroke="black" d="M1048.08,-102C1081.99,-95.32 1131.24,-85.61 1172.13,-77.56"/>
<polygon fill="black" stroke="black" points="1172.39,-81.07 1181.52,-75.71 1171.03,-74.21 1172.39,-81.07"/>
</g>
<!-- set_marker_node_Set(59) -->
<!-- set_marker_node_Set(11)&#45;&gt;set_marker_node_Set(59) -->
<g id="edge14" class="edge">
<title>set_marker_node_Set(11)&#45;&gt;set_marker_node_Set(59)</title>
<path fill="none" stroke="black" d="M1019.12,-102C1037.74,-89.51 1075.76,-65.32 1111,-51 1135.47,-41.06 1163.59,-33.24 1187.82,-27.53"/>
<polygon fill="black" stroke="black" points="1188.56,-30.95 1197.53,-25.31 1187,-24.13 1188.56,-30.95"/>
</g>
<!-- set_marker_node_Set(20) -->
<!-- node_System(99) -->
<g id="node23" class="node">
<title>node_System(99)</title>
<polygon fill="none" stroke="black" points="1957,-229 1781,-229 1781,-193 1957,-193 1957,-229"/>
<text text-anchor="middle" x="1869" y="-207.3" font-family="Times,serif" font-size="14.00">update_clipping_system</text>
</g>
<!-- set_marker_node_Set(20)&#45;&gt;node_System(99) -->
<g id="edge22" class="edge">
<title>set_marker_node_Set(20)&#45;&gt;node_System(99)</title>
<path fill="none" stroke="black" d="M1745,-211C1752.97,-211 1761.14,-211 1769.31,-211"/>
<polygon fill="black" stroke="black" points="1769.18,-214.5 1779.18,-211 1769.18,-207.5 1769.18,-214.5"/>
</g>
<!-- set_marker_node_Set(70) -->
<!-- node_System(97) -->
<g id="node18" class="node">
<title>node_System(97)</title>
<polygon fill="none" stroke="black" points="1553,-229 1419,-229 1419,-193 1553,-193 1553,-229"/>
<text text-anchor="middle" x="1486" y="-207.3" font-family="Times,serif" font-size="14.00">flex_node_system</text>
</g>
<!-- set_marker_node_Set(70)&#45;&gt;node_System(97) -->
<g id="edge21" class="edge">
<title>set_marker_node_Set(70)&#45;&gt;node_System(97)</title>
<path fill="none" stroke="black" d="M1075.5,-230.41C1150.79,-231.43 1275.72,-231.53 1383,-224 1390.96,-223.44 1399.25,-222.68 1407.51,-221.81"/>
<polygon fill="black" stroke="black" points="1407.66,-225.31 1417.21,-220.72 1406.89,-218.36 1407.66,-225.31"/>
</g>
<!-- node_System(95) -->
<g id="node21" class="node">
<title>node_System(95)</title>
<polygon fill="none" stroke="black" points="1295,-210 1199,-210 1199,-174 1295,-174 1295,-210"/>
<text text-anchor="middle" x="1247" y="-188.3" font-family="Times,serif" font-size="14.00">text_system</text>
</g>
<!-- set_marker_node_Set(70)&#45;&gt;node_System(95) -->
<g id="edge18" class="edge">
<title>set_marker_node_Set(70)&#45;&gt;node_System(95)</title>
<path fill="none" stroke="black" d="M1059.06,-221C1096.81,-215.14 1148.09,-207.19 1187.4,-201.09"/>
<polygon fill="black" stroke="black" points="1187.84,-204.56 1197.19,-199.57 1186.77,-197.65 1187.84,-204.56"/>
</g>
<!-- set_marker_node_Set(116) -->
<!-- node_System(97)&#45;&gt;set_marker_node_Set(20) -->
<g id="edge20" class="edge">
<title>node_System(97)&#45;&gt;set_marker_node_Set(20)</title>
<path fill="none" stroke="black" d="M1553.4,-211C1561.28,-211 1569.42,-211 1577.55,-211"/>
<polygon fill="black" stroke="black" points="1577.49,-214.5 1587.49,-211 1577.49,-207.5 1577.49,-214.5"/>
</g>
<!-- set_marker_node_Set(117) -->
<!-- node_System(98) -->
<g id="node20" class="node">
<title>node_System(98)</title>
<polygon fill="none" stroke="black" points="1069,-164 944,-164 944,-128 1069,-128 1069,-164"/>
<text text-anchor="middle" x="1006.5" y="-142.3" font-family="Times,serif" font-size="14.00">ui_stack_system</text>
</g>
<!-- node_System(95)&#45;&gt;set_marker_node_Set(116) -->
<g id="edge17" class="edge">
<title>node_System(95)&#45;&gt;set_marker_node_Set(116)</title>
<path fill="none" stroke="black" d="M1295.39,-188.6C1325.23,-186.46 1364.62,-183.63 1399.76,-181.11"/>
<polygon fill="black" stroke="black" points="1399.77,-184.62 1409.49,-180.42 1399.27,-177.64 1399.77,-184.62"/>
</g>
<!-- node_System(96) -->
<g id="node22" class="node">
<title>node_System(96)</title>
<polygon fill="none" stroke="black" points="1383,-156 1111,-156 1111,-120 1383,-120 1383,-156"/>
<text text-anchor="middle" x="1247" y="-134.3" font-family="Times,serif" font-size="14.00">update_image_calculated_size_system</text>
</g>
<!-- node_System(96)&#45;&gt;set_marker_node_Set(116) -->
<g id="edge19" class="edge">
<title>node_System(96)&#45;&gt;set_marker_node_Set(116)</title>
<path fill="none" stroke="black" d="M1366.5,-156.5C1385.93,-159.53 1405.36,-162.57 1422.7,-165.27"/>
<polygon fill="black" stroke="black" points="1421.86,-168.68 1432.28,-166.77 1422.94,-161.77 1421.86,-168.68"/>
</g>
<!-- set_marker_node_Set(12)&#45;&gt;set_marker_node_Set(5) -->
<g id="edge11" class="edge">
<title>set_marker_node_Set(12)&#45;&gt;set_marker_node_Set(5)</title>
<path fill="none" stroke="black" d="M1509,-39C1535.17,-39 1579.72,-39 1614.69,-39"/>
<polygon fill="black" stroke="black" points="1614.49,-42.5 1624.49,-39 1614.49,-35.5 1614.49,-42.5"/>
</g>
<!-- set_marker_node_Set(58)&#45;&gt;set_marker_node_Set(7) -->
<g id="edge12" class="edge">
<title>set_marker_node_Set(58)&#45;&gt;set_marker_node_Set(7)</title>
<path fill="none" stroke="black" d="M158,-142.47C164.48,-143.84 171.18,-145.25 177.74,-146.63"/>
<polygon fill="black" stroke="black" points="177.02,-150.05 187.53,-148.69 178.46,-143.21 177.02,-150.05"/>
</g>
<!-- set_marker_node_Set(59)&#45;&gt;set_marker_node_Set(12) -->
<g id="edge15" class="edge">
<title>set_marker_node_Set(59)&#45;&gt;set_marker_node_Set(12)</title>
<path fill="none" stroke="black" d="M1295,-20.56C1341.61,-25.08 1411.81,-31.9 1452.55,-35.85"/>
<polygon fill="black" stroke="black" points="1452.21,-39.33 1462.5,-36.82 1452.88,-32.37 1452.21,-39.33"/>
</g>
</g>
</svg>
