<?xml version="1.0" encoding="UTF-8" standalone="no"?>
<!DOCTYPE svg PUBLIC "-//W3C//DTD SVG 1.1//EN"
 "http://www.w3.org/Graphics/SVG/1.1/DTD/svg11.dtd">
<!-- Generated by graphviz version 7.0.6 (0)
 -->
<!-- Title: schedule Pages: 1 -->
<svg width="2091pt" height="1148pt"
 viewBox="0.00 0.00 2091.00 1148.00" xmlns="http://www.w3.org/2000/svg" xmlns:xlink="http://www.w3.org/1999/xlink">
<g id="graph0" class="graph" transform="scale(1 1) rotate(0) translate(4 1144)">
<title>schedule</title>
<polygon fill="#0d1117" stroke="none" points="-4,4 -4,-1144 2087,-1144 2087,4 -4,4"/>
<g id="clust1" class="cluster">
<title>clusternode_Set(1)</title>
<polygon fill="#99aab5" stroke="white" points="250,-1081 250,-1120 332,-1120 332,-1081 250,-1081"/>
<text text-anchor="middle" x="291" y="-1104.8" font-family="Helvetica,sans-Serif" font-size="14.00">FirstFlush</text>
</g>
<g id="clust2" class="cluster">
<title>clusternode_Set(2)</title>
<polygon fill="#99aab5" stroke="white" points="770,-1057 770,-1096 892,-1096 892,-1057 770,-1057"/>
<text text-anchor="middle" x="831" y="-1080.8" font-family="Helvetica,sans-Serif" font-size="14.00">PreUpdateFlush</text>
</g>
<g id="clust3" class="cluster">
<title>clusternode_Set(3)</title>
<polygon fill="#99aab5" stroke="white" points="1259,-1057 1259,-1096 1360,-1096 1360,-1057 1259,-1057"/>
<text text-anchor="middle" x="1309.5" y="-1080.8" font-family="Helvetica,sans-Serif" font-size="14.00">UpdateFlush</text>
</g>
<g id="clust4" class="cluster">
<title>clusternode_Set(4)</title>
<polygon fill="#99aab5" stroke="white" points="1642,-1093 1642,-1132 1771,-1132 1771,-1093 1642,-1093"/>
<text text-anchor="middle" x="1706.5" y="-1116.8" font-family="Helvetica,sans-Serif" font-size="14.00">PostUpdateFlush</text>
</g>
<g id="clust5" class="cluster">
<title>clusternode_Set(5)</title>
<polygon fill="#99aab5" stroke="white" points="2003,-1069 2003,-1108 2083,-1108 2083,-1069 2003,-1069"/>
<text text-anchor="middle" x="2043" y="-1092.8" font-family="Helvetica,sans-Serif" font-size="14.00">LastFlush</text>
</g>
<g id="clust6" class="cluster">
<title>clusternode_Set(6)</title>
<polygon fill="#99aab5" stroke="white" points="0,-1057 0,-1096 46,-1096 46,-1057 0,-1057"/>
<text text-anchor="middle" x="23" y="-1080.8" font-family="Helvetica,sans-Serif" font-size="14.00">First</text>
</g>
<g id="clust7" class="cluster">
<title>clusternode_Set(7)</title>
<polygon fill="#99aab5" stroke="white" points="536,-1003 536,-1096 750,-1096 750,-1003 536,-1003"/>
<text text-anchor="middle" x="643" y="-1080.8" font-family="Helvetica,sans-Serif" font-size="14.00">PreUpdate</text>
</g>
<g id="clust8" class="cluster">
<title>clusternode_Set(8)</title>
<polygon fill="#99aab5" stroke="white" points="912,-1057 912,-1096 1034,-1096 1034,-1057 912,-1057"/>
<text text-anchor="middle" x="973" y="-1080.8" font-family="Helvetica,sans-Serif" font-size="14.00">StateTransitions</text>
</g>
<g id="clust9" class="cluster">
<title>clusternode_Set(9)</title>
<polygon fill="#99aab5" stroke="white" points="1054,-1057 1054,-1096 1154,-1096 1154,-1057 1054,-1057"/>
<text text-anchor="middle" x="1104" y="-1080.8" font-family="Helvetica,sans-Serif" font-size="14.00">FixedUpdate</text>
</g>
<g id="clust10" class="cluster">
<title>clusternode_Set(10)</title>
<polygon fill="#99aab5" stroke="white" points="1174,-1057 1174,-1096 1239,-1096 1239,-1057 1174,-1057"/>
<text text-anchor="middle" x="1206.5" y="-1080.8" font-family="Helvetica,sans-Serif" font-size="14.00">Update</text>
</g>
<g id="clust11" class="cluster">
<title>clusternode_Set(11)</title>
<polygon fill="#99aab5" stroke="white" points="1380,-1057 1380,-1096 1473,-1096 1473,-1057 1380,-1057"/>
<text text-anchor="middle" x="1426.5" y="-1080.8" font-family="Helvetica,sans-Serif" font-size="14.00">PostUpdate</text>
</g>
<g id="clust12" class="cluster">
<title>clusternode_Set(12)</title>
<polygon fill="#99aab5" stroke="white" points="1939,-1069 1939,-1108 1983,-1108 1983,-1069 1939,-1069"/>
<text text-anchor="middle" x="1961" y="-1092.8" font-family="Helvetica,sans-Serif" font-size="14.00">Last</text>
</g>
<g id="clust13" class="cluster">
<title>clusternode_Set(58)</title>
<polygon fill="#99aab5" stroke="white" points="66,-8 66,-1073 516,-1073 516,-8 66,-8"/>
<text text-anchor="middle" x="291" y="-1057.8" font-family="Helvetica,sans-Serif" font-size="14.00">LoadAssets</text>
</g>
<g id="clust14" class="cluster">
<title>clusternode_Set(59)</title>
<polygon fill="#99aab5" stroke="white" points="1493,-74 1493,-1085 1919,-1085 1919,-74 1493,-74"/>
<text text-anchor="middle" x="1706" y="-1069.8" font-family="Helvetica,sans-Serif" font-size="14.00">AssetEvents</text>
</g>
<!-- set_marker_node_Set(1) -->
<!-- set_marker_node_Set(7) -->
<!-- set_marker_node_Set(1)&#45;&gt;set_marker_node_Set(7) -->
<g id="edge2" class="edge">
<title>set_marker_node_Set(1)&#45;&gt;set_marker_node_Set(7)</title>
<path fill="none" stroke="white" d="M332,-1087.36C376.83,-1085.4 451.68,-1081.78 516,-1077 518.85,-1076.79 521.74,-1076.57 524.66,-1076.34"/>
<polygon fill="white" stroke="white" points="524.81,-1079.84 534.49,-1075.54 524.24,-1072.86 524.81,-1079.84"/>
</g>
<!-- set_marker_node_Set(2) -->
<!-- set_marker_node_Set(8) -->
<!-- set_marker_node_Set(2)&#45;&gt;set_marker_node_Set(8) -->
<g id="edge4" class="edge">
<title>set_marker_node_Set(2)&#45;&gt;set_marker_node_Set(8)</title>
<path fill="none" stroke="white" d="M892,-1065C894.88,-1065 897.78,-1065 900.68,-1065"/>
<polygon fill="white" stroke="white" points="900.49,-1068.5 910.49,-1065 900.49,-1061.5 900.49,-1068.5"/>
</g>
<!-- set_marker_node_Set(3) -->
<!-- set_marker_node_Set(11) -->
<!-- set_marker_node_Set(3)&#45;&gt;set_marker_node_Set(11) -->
<g id="edge8" class="edge">
<title>set_marker_node_Set(3)&#45;&gt;set_marker_node_Set(11)</title>
<path fill="none" stroke="white" d="M1360,-1065C1362.92,-1065 1365.88,-1065 1368.82,-1065"/>
<polygon fill="white" stroke="white" points="1368.49,-1068.5 1378.49,-1065 1368.49,-1061.5 1368.49,-1068.5"/>
</g>
<!-- set_marker_node_Set(4) -->
<!-- set_marker_node_Set(12) -->
<!-- set_marker_node_Set(4)&#45;&gt;set_marker_node_Set(12) -->
<g id="edge10" class="edge">
<title>set_marker_node_Set(4)&#45;&gt;set_marker_node_Set(12)</title>
<path fill="none" stroke="white" d="M1771,-1101.16C1813.29,-1100.35 1869.78,-1097.48 1919,-1089 1921.99,-1088.48 1925.07,-1087.83 1928.14,-1087.09"/>
<polygon fill="white" stroke="white" points="1928.8,-1090.53 1937.54,-1084.54 1926.97,-1083.78 1928.8,-1090.53"/>
</g>
<!-- set_marker_node_Set(5) -->
<!-- set_marker_node_Set(6) -->
<!-- set_marker_node_Set(6)&#45;&gt;set_marker_node_Set(1) -->
<g id="edge1" class="edge">
<title>set_marker_node_Set(6)&#45;&gt;set_marker_node_Set(1)</title>
<path fill="none" stroke="white" d="M46,-1072.29C52.38,-1074.13 59.41,-1075.9 66,-1077 124.63,-1086.82 192.99,-1089.19 238.62,-1089.51"/>
<polygon fill="white" stroke="white" points="238.47,-1093.01 248.49,-1089.55 238.5,-1086.01 238.47,-1093.01"/>
</g>
<!-- set_marker_node_Set(58) -->
<!-- set_marker_node_Set(6)&#45;&gt;set_marker_node_Set(58) -->
<g id="edge13" class="edge">
<title>set_marker_node_Set(6)&#45;&gt;set_marker_node_Set(58)</title>
<path fill="none" stroke="white" d="M46,-1063.1C48.69,-1062.87 51.58,-1062.62 54.66,-1062.35"/>
<polygon fill="white" stroke="white" points="54.83,-1065.85 64.49,-1061.5 54.23,-1058.87 54.83,-1065.85"/>
</g>
<!-- set_marker_node_Set(7)&#45;&gt;set_marker_node_Set(2) -->
<g id="edge3" class="edge">
<title>set_marker_node_Set(7)&#45;&gt;set_marker_node_Set(2)</title>
<path fill="none" stroke="white" d="M750,-1065C752.89,-1065 755.76,-1065 758.61,-1065"/>
<polygon fill="white" stroke="white" points="758.49,-1068.5 768.49,-1065 758.49,-1061.5 758.49,-1068.5"/>
</g>
<!-- node_System(47) -->
<g id="node8" class="node">
<title>node_System(47)</title>
<polygon fill="#eff1f3" stroke="#eff1f3" points="742,-1047 544,-1047 544,-1011 742,-1011 742,-1047"/>
<text text-anchor="middle" x="643" y="-1025.3" font-family="Times,serif" font-size="14.00">free_unused_assets_system</text>
</g>
<!-- set_marker_node_Set(9) -->
<!-- set_marker_node_Set(8)&#45;&gt;set_marker_node_Set(9) -->
<g id="edge5" class="edge">
<title>set_marker_node_Set(8)&#45;&gt;set_marker_node_Set(9)</title>
<path fill="none" stroke="white" d="M1034,-1065C1036.86,-1065 1039.74,-1065 1042.6,-1065"/>
<polygon fill="white" stroke="white" points="1042.49,-1068.5 1052.49,-1065 1042.49,-1061.5 1042.49,-1068.5"/>
</g>
<!-- set_marker_node_Set(10) -->
<!-- set_marker_node_Set(9)&#45;&gt;set_marker_node_Set(10) -->
<g id="edge6" class="edge">
<title>set_marker_node_Set(9)&#45;&gt;set_marker_node_Set(10)</title>
<path fill="none" stroke="white" d="M1154,-1065C1156.85,-1065 1159.71,-1065 1162.54,-1065"/>
<polygon fill="white" stroke="white" points="1162.49,-1068.5 1172.49,-1065 1162.49,-1061.5 1162.49,-1068.5"/>
</g>
<!-- set_marker_node_Set(10)&#45;&gt;set_marker_node_Set(3) -->
<g id="edge7" class="edge">
<title>set_marker_node_Set(10)&#45;&gt;set_marker_node_Set(3)</title>
<path fill="none" stroke="white" d="M1239,-1065C1241.81,-1065 1244.71,-1065 1247.65,-1065"/>
<polygon fill="white" stroke="white" points="1247.49,-1068.5 1257.49,-1065 1247.49,-1061.5 1247.49,-1068.5"/>
</g>
<!-- set_marker_node_Set(11)&#45;&gt;set_marker_node_Set(4) -->
<g id="edge9" class="edge">
<title>set_marker_node_Set(11)&#45;&gt;set_marker_node_Set(4)</title>
<path fill="none" stroke="white" d="M1473,-1083.65C1479.62,-1085.77 1486.42,-1087.65 1493,-1089 1538.14,-1098.27 1589.74,-1101.35 1630.73,-1102.08"/>
<polygon fill="white" stroke="white" points="1630.44,-1105.57 1640.49,-1102.2 1630.53,-1098.57 1630.44,-1105.57"/>
</g>
<!-- set_marker_node_Set(59) -->
<!-- set_marker_node_Set(11)&#45;&gt;set_marker_node_Set(59) -->
<g id="edge14" class="edge">
<title>set_marker_node_Set(11)&#45;&gt;set_marker_node_Set(59)</title>
<path fill="none" stroke="white" d="M1473,-1063.18C1475.77,-1063.07 1478.64,-1062.96 1481.58,-1062.84"/>
<polygon fill="white" stroke="white" points="1481.63,-1066.34 1491.49,-1062.45 1481.36,-1059.35 1481.63,-1066.34"/>
</g>
<!-- set_marker_node_Set(12)&#45;&gt;set_marker_node_Set(5) -->
<g id="edge11" class="edge">
<title>set_marker_node_Set(12)&#45;&gt;set_marker_node_Set(5)</title>
<path fill="none" stroke="white" d="M1983,-1077C1985.72,-1077 1988.6,-1077 1991.56,-1077"/>
<polygon fill="white" stroke="white" points="1991.49,-1080.5 2001.49,-1077 1991.49,-1073.5 1991.49,-1080.5"/>
</g>
<!-- set_marker_node_Set(58)&#45;&gt;set_marker_node_Set(7) -->
<g id="edge12" class="edge">
<title>set_marker_node_Set(58)&#45;&gt;set_marker_node_Set(7)</title>
<path fill="none" stroke="white" d="M516,-1056.72C518.86,-1056.91 521.71,-1057.1 524.53,-1057.28"/>
<polygon fill="white" stroke="white" points="524.28,-1060.77 534.49,-1057.94 524.74,-1053.79 524.28,-1060.77"/>
</g>
<!-- node_System(48) -->
<g id="node15" class="node">
<title>node_System(48)</title>
<polygon fill="#eff1f3" stroke="#eff1f3" points="391,-1024 191,-1024 191,-988 391,-988 391,-1024"/>
<text text-anchor="middle" x="291" y="-1002.3" font-family="Times,serif" font-size="14.00">filesystem_watcher_system</text>
</g>
<!-- node_System(50) -->
<g id="node16" class="node">
<title>node_System(50)</title>
<polygon fill="#eff1f3" stroke="#eff1f3" points="454,-970 128,-970 128,-934 454,-934 454,-970"/>
<text text-anchor="middle" x="291" y="-948.3" font-family="Times,serif" font-size="14.00">update_asset_storage_system&lt;DynamicScene&gt;</text>
</g>
<!-- node_System(53) -->
<g id="node17" class="node">
<title>node_System(53)</title>
<polygon fill="#eff1f3" stroke="#eff1f3" points="423.5,-916 158.5,-916 158.5,-880 423.5,-880 423.5,-916"/>
<text text-anchor="middle" x="291" y="-894.3" font-family="Times,serif" font-size="14.00">update_asset_storage_system&lt;Scene&gt;</text>
</g>
<!-- node_System(60) -->
<g id="node18" class="node">
<title>node_System(60)</title>
<polygon fill="#eff1f3" stroke="#eff1f3" points="428,-862 154,-862 154,-826 428,-826 428,-862"/>
<text text-anchor="middle" x="291" y="-840.3" font-family="Times,serif" font-size="14.00">update_asset_storage_system&lt;Shader&gt;</text>
</g>
<!-- node_System(74) -->
<g id="node19" class="node">
<title>node_System(74)</title>
<polygon fill="#eff1f3" stroke="#eff1f3" points="422.5,-808 159.5,-808 159.5,-772 422.5,-772 422.5,-808"/>
<text text-anchor="middle" x="291" y="-786.3" font-family="Times,serif" font-size="14.00">update_asset_storage_system&lt;Mesh&gt;</text>
</g>
<!-- node_System(77) -->
<g id="node20" class="node">
<title>node_System(77)</title>
<polygon fill="#eff1f3" stroke="#eff1f3" points="508,-754 74,-754 74,-718 508,-718 508,-754"/>
<text text-anchor="middle" x="291" y="-732.3" font-family="Times,serif" font-size="14.00">update_asset_storage_system&lt;SkinnedMeshInverseBindposes&gt;</text>
</g>
<!-- node_System(80) -->
<g id="node21" class="node">
<title>node_System(80)</title>
<polygon fill="#eff1f3" stroke="#eff1f3" points="425.5,-700 156.5,-700 156.5,-664 425.5,-664 425.5,-700"/>
<text text-anchor="middle" x="291" y="-678.3" font-family="Times,serif" font-size="14.00">update_asset_storage_system&lt;Image&gt;</text>
</g>
<!-- node_System(83) -->
<g id="node22" class="node">
<title>node_System(83)</title>
<polygon fill="#eff1f3" stroke="#eff1f3" points="447.5,-646 134.5,-646 134.5,-610 447.5,-610 447.5,-646"/>
<text text-anchor="middle" x="291" y="-624.3" font-family="Times,serif" font-size="14.00">update_asset_storage_system&lt;TextureAtlas&gt;</text>
</g>
<!-- node_System(86) -->
<g id="node23" class="node">
<title>node_System(86)</title>
<polygon fill="#eff1f3" stroke="#eff1f3" points="451.5,-592 130.5,-592 130.5,-556 451.5,-556 451.5,-592"/>
<text text-anchor="middle" x="291" y="-570.3" font-family="Times,serif" font-size="14.00">update_asset_storage_system&lt;ColorMaterial&gt;</text>
</g>
<!-- node_System(89) -->
<g id="node24" class="node">
<title>node_System(89)</title>
<polygon fill="#eff1f3" stroke="#eff1f3" points="419.5,-538 162.5,-538 162.5,-502 419.5,-502 419.5,-538"/>
<text text-anchor="middle" x="291" y="-516.3" font-family="Times,serif" font-size="14.00">update_asset_storage_system&lt;Font&gt;</text>
</g>
<!-- node_System(92) -->
<g id="node25" class="node">
<title>node_System(92)</title>
<polygon fill="#eff1f3" stroke="#eff1f3" points="446.5,-484 135.5,-484 135.5,-448 446.5,-448 446.5,-484"/>
<text text-anchor="middle" x="291" y="-462.3" font-family="Times,serif" font-size="14.00">update_asset_storage_system&lt;FontAtlasSet&gt;</text>
</g>
<!-- node_System(102) -->
<g id="node26" class="node">
<title>node_System(102)</title>
<polygon fill="#eff1f3" stroke="#eff1f3" points="464.5,-430 117.5,-430 117.5,-394 464.5,-394 464.5,-430"/>
<text text-anchor="middle" x="291" y="-408.3" font-family="Times,serif" font-size="14.00">update_asset_storage_system&lt;StandardMaterial&gt;</text>
</g>
<!-- node_System(113) -->
<g id="node27" class="node">
<title>node_System(113)</title>
<polygon fill="#eff1f3" stroke="#eff1f3" points="416.5,-376 165.5,-376 165.5,-340 416.5,-340 416.5,-376"/>
<text text-anchor="middle" x="291" y="-354.3" font-family="Times,serif" font-size="14.00">update_asset_storage_system&lt;Gltf&gt;</text>
</g>
<!-- node_System(116) -->
<g id="node28" class="node">
<title>node_System(116)</title>
<polygon fill="#eff1f3" stroke="#eff1f3" points="434,-322 148,-322 148,-286 434,-286 434,-322"/>
<text text-anchor="middle" x="291" y="-300.3" font-family="Times,serif" font-size="14.00">update_asset_storage_system&lt;GltfNode&gt;</text>
</g>
<!-- node_System(119) -->
<g id="node29" class="node">
<title>node_System(119)</title>
<polygon fill="#eff1f3" stroke="#eff1f3" points="448,-268 134,-268 134,-232 448,-232 448,-268"/>
<text text-anchor="middle" x="291" y="-246.3" font-family="Times,serif" font-size="14.00">update_asset_storage_system&lt;GltfPrimitive&gt;</text>
</g>
<!-- node_System(122) -->
<g id="node30" class="node">
<title>node_System(122)</title>
<polygon fill="#eff1f3" stroke="#eff1f3" points="434.5,-214 147.5,-214 147.5,-178 434.5,-178 434.5,-214"/>
<text text-anchor="middle" x="291" y="-192.3" font-family="Times,serif" font-size="14.00">update_asset_storage_system&lt;GltfMesh&gt;</text>
</g>
<!-- node_System(125) -->
<g id="node31" class="node">
<title>node_System(125)</title>
<polygon fill="#eff1f3" stroke="#eff1f3" points="447,-160 135,-160 135,-124 447,-124 447,-160"/>
<text text-anchor="middle" x="291" y="-138.3" font-family="Times,serif" font-size="14.00">update_asset_storage_system&lt;AudioSource&gt;</text>
</g>
<!-- node_System(128) -->
<g id="node32" class="node">
<title>node_System(128)</title>
<polygon fill="#eff1f3" stroke="#eff1f3" points="439,-106 143,-106 143,-70 439,-70 439,-106"/>
<text text-anchor="middle" x="291" y="-84.3" font-family="Times,serif" font-size="14.00">update_asset_storage_system&lt;AudioSink&gt;</text>
</g>
<!-- node_System(133) -->
<g id="node33" class="node">
<title>node_System(133)</title>
<polygon fill="#eff1f3" stroke="#eff1f3" points="453,-52 129,-52 129,-16 453,-16 453,-52"/>
<text text-anchor="middle" x="291" y="-30.3" font-family="Times,serif" font-size="14.00">update_asset_storage_system&lt;AnimationClip&gt;</text>
</g>
<!-- set_marker_node_Set(59)&#45;&gt;set_marker_node_Set(12) -->
<g id="edge15" class="edge">
<title>set_marker_node_Set(59)&#45;&gt;set_marker_node_Set(12)</title>
<path fill="none" stroke="white" d="M1919,-1073.27C1922.06,-1073.55 1925,-1073.82 1927.8,-1074.07"/>
<polygon fill="white" stroke="white" points="1927.22,-1077.53 1937.5,-1074.95 1927.86,-1070.56 1927.22,-1077.53"/>
</g>
<!-- node_System(49) -->
<g id="node35" class="node">
<title>node_System(49)</title>
<polygon fill="#eff1f3" stroke="#eff1f3" points="1857,-1036 1555,-1036 1555,-1000 1857,-1000 1857,-1036"/>
<text text-anchor="middle" x="1706" y="-1014.3" font-family="Times,serif" font-size="14.00">Assets&lt;DynamicScene&gt;asset_event_system</text>
</g>
<!-- node_System(52) -->
<g id="node36" class="node">
<title>node_System(52)</title>
<polygon fill="#eff1f3" stroke="#eff1f3" points="1826.5,-982 1585.5,-982 1585.5,-946 1826.5,-946 1826.5,-982"/>
<text text-anchor="middle" x="1706" y="-960.3" font-family="Times,serif" font-size="14.00">Assets&lt;Scene&gt;asset_event_system</text>
</g>
<!-- node_System(59) -->
<g id="node37" class="node">
<title>node_System(59)</title>
<polygon fill="#eff1f3" stroke="#eff1f3" points="1831,-928 1581,-928 1581,-892 1831,-892 1831,-928"/>
<text text-anchor="middle" x="1706" y="-906.3" font-family="Times,serif" font-size="14.00">Assets&lt;Shader&gt;asset_event_system</text>
</g>
<!-- node_System(73) -->
<g id="node38" class="node">
<title>node_System(73)</title>
<polygon fill="#eff1f3" stroke="#eff1f3" points="1825.5,-874 1586.5,-874 1586.5,-838 1825.5,-838 1825.5,-874"/>
<text text-anchor="middle" x="1706" y="-852.3" font-family="Times,serif" font-size="14.00">Assets&lt;Mesh&gt;asset_event_system</text>
</g>
<!-- node_System(76) -->
<g id="node39" class="node">
<title>node_System(76)</title>
<polygon fill="#eff1f3" stroke="#eff1f3" points="1911,-820 1501,-820 1501,-784 1911,-784 1911,-820"/>
<text text-anchor="middle" x="1706" y="-798.3" font-family="Times,serif" font-size="14.00">Assets&lt;SkinnedMeshInverseBindposes&gt;asset_event_system</text>
</g>
<!-- node_System(79) -->
<g id="node40" class="node">
<title>node_System(79)</title>
<polygon fill="#eff1f3" stroke="#eff1f3" points="1828.5,-766 1583.5,-766 1583.5,-730 1828.5,-730 1828.5,-766"/>
<text text-anchor="middle" x="1706" y="-744.3" font-family="Times,serif" font-size="14.00">Assets&lt;Image&gt;asset_event_system</text>
</g>
<!-- node_System(82) -->
<g id="node41" class="node">
<title>node_System(82)</title>
<polygon fill="#eff1f3" stroke="#eff1f3" points="1850.5,-712 1561.5,-712 1561.5,-676 1850.5,-676 1850.5,-712"/>
<text text-anchor="middle" x="1706" y="-690.3" font-family="Times,serif" font-size="14.00">Assets&lt;TextureAtlas&gt;asset_event_system</text>
</g>
<!-- node_System(85) -->
<g id="node42" class="node">
<title>node_System(85)</title>
<polygon fill="#eff1f3" stroke="#eff1f3" points="1854.5,-658 1557.5,-658 1557.5,-622 1854.5,-622 1854.5,-658"/>
<text text-anchor="middle" x="1706" y="-636.3" font-family="Times,serif" font-size="14.00">Assets&lt;ColorMaterial&gt;asset_event_system</text>
</g>
<!-- node_System(88) -->
<g id="node43" class="node">
<title>node_System(88)</title>
<polygon fill="#eff1f3" stroke="#eff1f3" points="1822.5,-604 1589.5,-604 1589.5,-568 1822.5,-568 1822.5,-604"/>
<text text-anchor="middle" x="1706" y="-582.3" font-family="Times,serif" font-size="14.00">Assets&lt;Font&gt;asset_event_system</text>
</g>
<!-- node_System(91) -->
<g id="node44" class="node">
<title>node_System(91)</title>
<polygon fill="#eff1f3" stroke="#eff1f3" points="1849.5,-550 1562.5,-550 1562.5,-514 1849.5,-514 1849.5,-550"/>
<text text-anchor="middle" x="1706" y="-528.3" font-family="Times,serif" font-size="14.00">Assets&lt;FontAtlasSet&gt;asset_event_system</text>
</g>
<!-- node_System(101) -->
<g id="node45" class="node">
<title>node_System(101)</title>
<polygon fill="#eff1f3" stroke="#eff1f3" points="1867.5,-496 1544.5,-496 1544.5,-460 1867.5,-460 1867.5,-496"/>
<text text-anchor="middle" x="1706" y="-474.3" font-family="Times,serif" font-size="14.00">Assets&lt;StandardMaterial&gt;asset_event_system</text>
</g>
<!-- node_System(112) -->
<g id="node46" class="node">
<title>node_System(112)</title>
<polygon fill="#eff1f3" stroke="#eff1f3" points="1819.5,-442 1592.5,-442 1592.5,-406 1819.5,-406 1819.5,-442"/>
<text text-anchor="middle" x="1706" y="-420.3" font-family="Times,serif" font-size="14.00">Assets&lt;Gltf&gt;asset_event_system</text>
</g>
<!-- node_System(115) -->
<g id="node47" class="node">
<title>node_System(115)</title>
<polygon fill="#eff1f3" stroke="#eff1f3" points="1837,-388 1575,-388 1575,-352 1837,-352 1837,-388"/>
<text text-anchor="middle" x="1706" y="-366.3" font-family="Times,serif" font-size="14.00">Assets&lt;GltfNode&gt;asset_event_system</text>
</g>
<!-- node_System(118) -->
<g id="node48" class="node">
<title>node_System(118)</title>
<polygon fill="#eff1f3" stroke="#eff1f3" points="1851,-334 1561,-334 1561,-298 1851,-298 1851,-334"/>
<text text-anchor="middle" x="1706" y="-312.3" font-family="Times,serif" font-size="14.00">Assets&lt;GltfPrimitive&gt;asset_event_system</text>
</g>
<!-- node_System(121) -->
<g id="node49" class="node">
<title>node_System(121)</title>
<polygon fill="#eff1f3" stroke="#eff1f3" points="1837.5,-280 1574.5,-280 1574.5,-244 1837.5,-244 1837.5,-280"/>
<text text-anchor="middle" x="1706" y="-258.3" font-family="Times,serif" font-size="14.00">Assets&lt;GltfMesh&gt;asset_event_system</text>
</g>
<!-- node_System(124) -->
<g id="node50" class="node">
<title>node_System(124)</title>
<polygon fill="#eff1f3" stroke="#eff1f3" points="1850,-226 1562,-226 1562,-190 1850,-190 1850,-226"/>
<text text-anchor="middle" x="1706" y="-204.3" font-family="Times,serif" font-size="14.00">Assets&lt;AudioSource&gt;asset_event_system</text>
</g>
<!-- node_System(127) -->
<g id="node51" class="node">
<title>node_System(127)</title>
<polygon fill="#eff1f3" stroke="#eff1f3" points="1842,-172 1570,-172 1570,-136 1842,-136 1842,-172"/>
<text text-anchor="middle" x="1706" y="-150.3" font-family="Times,serif" font-size="14.00">Assets&lt;AudioSink&gt;asset_event_system</text>
</g>
<!-- node_System(132) -->
<g id="node52" class="node">
<title>node_System(132)</title>
<polygon fill="#eff1f3" stroke="#eff1f3" points="1856,-118 1556,-118 1556,-82 1856,-82 1856,-118"/>
<text text-anchor="middle" x="1706" y="-96.3" font-family="Times,serif" font-size="14.00">Assets&lt;AnimationClip&gt;asset_event_system</text>
</g>
</g>
</svg>
