<?xml version="1.0" encoding="UTF-8" standalone="no"?>
<!DOCTYPE svg PUBLIC "-//W3C//DTD SVG 1.1//EN"
 "http://www.w3.org/Graphics/SVG/1.1/DTD/svg11.dtd">
<!-- Generated by graphviz version 7.0.6 (0)
 -->
<!-- Title: schedule Pages: 1 -->
<svg width="1873pt" height="604pt"
 viewBox="0.00 0.00 1873.00 604.00" xmlns="http://www.w3.org/2000/svg" xmlns:xlink="http://www.w3.org/1999/xlink">
<g id="graph0" class="graph" transform="scale(1 1) rotate(0) translate(4 600)">
<title>schedule</title>
<polygon fill="white" stroke="none" points="-4,4 -4,-600 1869,-600 1869,4 -4,4"/>
<g id="clust1" class="cluster">
<title>clusternode_Set(1)</title>
<polygon fill="none" stroke="black" points="70,-125 70,-164 154,-164 154,-125 70,-125"/>
<text text-anchor="middle" x="112" y="-148.8" font-family="Times,serif" font-size="14.00">FirstFlush</text>
</g>
<g id="clust2" class="cluster">
<title>clusternode_Set(2)</title>
<polygon fill="none" stroke="black" points="284,-102 284,-141 407,-141 407,-102 284,-102"/>
<text text-anchor="middle" x="345.5" y="-125.8" font-family="Times,serif" font-size="14.00">PreUpdateFlush</text>
</g>
<g id="clust3" class="cluster">
<title>clusternode_Set(3)</title>
<polygon fill="none" stroke="black" points="777,-102 777,-141 878,-141 878,-102 777,-102"/>
<text text-anchor="middle" x="827.5" y="-125.8" font-family="Times,serif" font-size="14.00">UpdateFlush</text>
</g>
<g id="clust4" class="cluster">
<title>clusternode_Set(4)</title>
<polygon fill="none" stroke="black" points="1154,-55 1154,-94 1282,-94 1282,-55 1154,-55"/>
<text text-anchor="middle" x="1218" y="-78.8" font-family="Times,serif" font-size="14.00">PostUpdateFlush</text>
</g>
<g id="clust5" class="cluster">
<title>clusternode_Set(5)</title>
<polygon fill="none" stroke="black" points="1740,-31 1740,-70 1822,-70 1822,-31 1740,-31"/>
<text text-anchor="middle" x="1781" y="-54.8" font-family="Times,serif" font-size="14.00">LastFlush</text>
</g>
<g id="clust6" class="cluster">
<title>clusternode_Set(6)</title>
<polygon fill="none" stroke="black" points="0,-101 0,-140 47,-140 47,-101 0,-101"/>
<text text-anchor="middle" x="23.5" y="-124.8" font-family="Times,serif" font-size="14.00">First</text>
</g>
<g id="clust7" class="cluster">
<title>clusternode_Set(7)</title>
<polygon fill="none" stroke="black" points="178,-102 178,-141 264,-141 264,-102 178,-102"/>
<text text-anchor="middle" x="221" y="-125.8" font-family="Times,serif" font-size="14.00">PreUpdate</text>
</g>
<g id="clust8" class="cluster">
<title>clusternode_Set(8)</title>
<polygon fill="none" stroke="black" points="427,-102 427,-141 552,-141 552,-102 427,-102"/>
<text text-anchor="middle" x="489.5" y="-125.8" font-family="Times,serif" font-size="14.00">StateTransitions</text>
</g>
<g id="clust9" class="cluster">
<title>clusternode_Set(9)</title>
<polygon fill="none" stroke="black" points="572,-102 572,-141 673,-141 673,-102 572,-102"/>
<text text-anchor="middle" x="622.5" y="-125.8" font-family="Times,serif" font-size="14.00">FixedUpdate</text>
</g>
<g id="clust10" class="cluster">
<title>clusternode_Set(10)</title>
<polygon fill="none" stroke="black" points="693,-102 693,-141 757,-141 757,-102 693,-102"/>
<text text-anchor="middle" x="725" y="-125.8" font-family="Times,serif" font-size="14.00">Update</text>
</g>
<g id="clust11" class="cluster">
<title>clusternode_Set(11)</title>
<polygon fill="none" stroke="black" points="890,-102 890,-588 1857,-588 1857,-102 890,-102"/>
<text text-anchor="middle" x="1373.5" y="-572.8" font-family="Times,serif" font-size="14.00">PostUpdate</text>
</g>
<g id="clust12" class="cluster">
<title>clusternode_Set(20)</title>
<polygon fill="none" stroke="black" points="1140,-420 1140,-459 1296,-459 1296,-420 1140,-420"/>
<text text-anchor="middle" x="1218" y="-443.8" font-family="Times,serif" font-size="14.00">TransformPropagate</text>
</g>
<g id="clust13" class="cluster">
<title>clusternode_Set(70)</title>
<polygon fill="none" stroke="black" points="898,-283 898,-322 1035,-322 1035,-283 898,-283"/>
<text text-anchor="middle" x="966.5" y="-306.8" font-family="Times,serif" font-size="14.00">ModifiesWindows</text>
</g>
<g id="clust14" class="cluster">
<title>clusternode_Set(77)</title>
<polygon fill="none" stroke="black" points="1063,-211 1063,-412 1373,-412 1373,-211 1063,-211"/>
<text text-anchor="middle" x="1218" y="-396.8" font-family="Times,serif" font-size="14.00">CameraUpdateSystem</text>
</g>
<g id="clust15" class="cluster">
<title>clusternode_Set(81)</title>
<polygon fill="none" stroke="black" points="1143.5,-110 1143.5,-203 1292.5,-203 1292.5,-110 1143.5,-110"/>
<text text-anchor="middle" x="1218" y="-187.8" font-family="Times,serif" font-size="14.00">CalculateBounds</text>
</g>
<g id="clust16" class="cluster">
<title>clusternode_Set(82)</title>
<polygon fill="none" stroke="black" points="1461,-110 1461,-149 1626,-149 1626,-110 1461,-110"/>
<text text-anchor="middle" x="1543.5" y="-133.8" font-family="Times,serif" font-size="14.00">CalculateBoundsFlush</text>
</g>
<g id="clust17" class="cluster">
<title>clusternode_Set(83)</title>
<polygon fill="none" stroke="black" points="1393,-203 1393,-296 1693,-296 1693,-203 1393,-203"/>
<text text-anchor="middle" x="1543" y="-280.8" font-family="Times,serif" font-size="14.00">UpdateOrthographicFrusta</text>
</g>
<g id="clust18" class="cluster">
<title>clusternode_Set(84)</title>
<polygon fill="none" stroke="black" points="1399.5,-304 1399.5,-397 1686.5,-397 1686.5,-304 1399.5,-304"/>
<text text-anchor="middle" x="1543" y="-381.8" font-family="Times,serif" font-size="14.00">UpdatePerspectiveFrusta</text>
</g>
<g id="clust19" class="cluster">
<title>clusternode_Set(85)</title>
<polygon fill="none" stroke="black" points="1455,-518 1455,-557 1631,-557 1631,-518 1455,-518"/>
<text text-anchor="middle" x="1543" y="-541.8" font-family="Times,serif" font-size="14.00">UpdateProjectionFrusta</text>
</g>
<g id="clust20" class="cluster">
<title>clusternode_Set(86)</title>
<polygon fill="none" stroke="black" points="1713,-360 1713,-453 1849,-453 1849,-360 1713,-360"/>
<text text-anchor="middle" x="1781" y="-437.8" font-family="Times,serif" font-size="14.00">CheckVisibility</text>
</g>
<g id="clust21" class="cluster">
<title>clusternode_Set(87)</title>
<polygon fill="none" stroke="black" points="1433.5,-417 1433.5,-510 1652.5,-510 1652.5,-417 1433.5,-417"/>
<text text-anchor="middle" x="1543" y="-494.8" font-family="Times,serif" font-size="14.00">VisibilityPropagate</text>
</g>
<g id="clust22" class="cluster">
<title>clusternode_Set(12)</title>
<polygon fill="none" stroke="black" points="1521,-31 1521,-70 1566,-70 1566,-31 1521,-31"/>
<text text-anchor="middle" x="1543.5" y="-54.8" font-family="Times,serif" font-size="14.00">Last</text>
</g>
<g id="clust23" class="cluster">
<title>clusternode_Set(58)</title>
<polygon fill="none" stroke="black" points="67,-78 67,-117 158,-117 158,-78 67,-78"/>
<text text-anchor="middle" x="112.5" y="-101.8" font-family="Times,serif" font-size="14.00">LoadAssets</text>
</g>
<g id="clust24" class="cluster">
<title>clusternode_Set(59)</title>
<polygon fill="none" stroke="black" points="1170,-8 1170,-47 1266,-47 1266,-8 1170,-8"/>
<text text-anchor="middle" x="1218" y="-31.8" font-family="Times,serif" font-size="14.00">AssetEvents</text>
</g>
<!-- set_marker_node_Set(1) -->
<!-- set_marker_node_Set(7) -->
<!-- set_marker_node_Set(1)&#45;&gt;set_marker_node_Set(7) -->
<g id="edge2" class="edge">
<title>set_marker_node_Set(1)&#45;&gt;set_marker_node_Set(7)</title>
<path fill="none" stroke="black" d="M150.21,-125C155.62,-123.84 161.27,-122.62 166.92,-121.41"/>
<polygon fill="black" stroke="black" points="167.48,-124.87 176.53,-119.35 166.01,-118.02 167.48,-124.87"/>
</g>
<!-- set_marker_node_Set(2) -->
<!-- set_marker_node_Set(8) -->
<!-- set_marker_node_Set(2)&#45;&gt;set_marker_node_Set(8) -->
<g id="edge4" class="edge">
<title>set_marker_node_Set(2)&#45;&gt;set_marker_node_Set(8)</title>
<path fill="none" stroke="black" d="M407,-110C409.83,-110 412.68,-110 415.54,-110"/>
<polygon fill="black" stroke="black" points="415.49,-113.5 425.49,-110 415.49,-106.5 415.49,-113.5"/>
</g>
<!-- set_marker_node_Set(3) -->
<!-- set_marker_node_Set(11) -->
<!-- set_marker_node_Set(3)&#45;&gt;set_marker_node_Set(11) -->
<g id="edge8" class="edge">
<title>set_marker_node_Set(3)&#45;&gt;set_marker_node_Set(11)</title>
<path fill="none" stroke="black" d="M878,-110C878.18,-110 878.37,-110 878.55,-110"/>
<polygon fill="black" stroke="black" points="878.49,-113.5 888.49,-110 878.49,-106.5 878.49,-113.5"/>
</g>
<!-- set_marker_node_Set(4) -->
<!-- set_marker_node_Set(12) -->
<!-- set_marker_node_Set(4)&#45;&gt;set_marker_node_Set(12) -->
<g id="edge10" class="edge">
<title>set_marker_node_Set(4)&#45;&gt;set_marker_node_Set(12)</title>
<path fill="none" stroke="black" d="M1282,-58.32C1350.25,-53.25 1456.47,-45.35 1509.54,-41.41"/>
<polygon fill="black" stroke="black" points="1509.78,-44.9 1519.49,-40.67 1509.26,-37.92 1509.78,-44.9"/>
</g>
<!-- set_marker_node_Set(5) -->
<!-- set_marker_node_Set(6) -->
<!-- set_marker_node_Set(6)&#45;&gt;set_marker_node_Set(1) -->
<g id="edge1" class="edge">
<title>set_marker_node_Set(6)&#45;&gt;set_marker_node_Set(1)</title>
<path fill="none" stroke="black" d="M47,-115.44C53.47,-117.25 60.51,-119.21 67,-121 68.18,-121.33 69.37,-121.65 70.58,-121.99"/>
<polygon fill="black" stroke="black" points="69.56,-125.34 80.13,-124.6 71.41,-118.58 69.56,-125.34"/>
</g>
<!-- set_marker_node_Set(58) -->
<!-- set_marker_node_Set(6)&#45;&gt;set_marker_node_Set(58) -->
<g id="edge13" class="edge">
<title>set_marker_node_Set(6)&#45;&gt;set_marker_node_Set(58)</title>
<path fill="none" stroke="black" d="M47,-102.92C49.97,-102.13 53.11,-101.3 56.34,-100.45"/>
<polygon fill="black" stroke="black" points="56.77,-103.96 65.54,-98.02 54.98,-97.19 56.77,-103.96"/>
</g>
<!-- set_marker_node_Set(7)&#45;&gt;set_marker_node_Set(2) -->
<g id="edge3" class="edge">
<title>set_marker_node_Set(7)&#45;&gt;set_marker_node_Set(2)</title>
<path fill="none" stroke="black" d="M264,-110C266.78,-110 269.62,-110 272.49,-110"/>
<polygon fill="black" stroke="black" points="272.49,-113.5 282.49,-110 272.49,-106.5 272.49,-113.5"/>
</g>
<!-- set_marker_node_Set(9) -->
<!-- set_marker_node_Set(8)&#45;&gt;set_marker_node_Set(9) -->
<g id="edge5" class="edge">
<title>set_marker_node_Set(8)&#45;&gt;set_marker_node_Set(9)</title>
<path fill="none" stroke="black" d="M552,-110C554.93,-110 557.87,-110 560.8,-110"/>
<polygon fill="black" stroke="black" points="560.49,-113.5 570.49,-110 560.49,-106.5 560.49,-113.5"/>
</g>
<!-- set_marker_node_Set(10) -->
<!-- set_marker_node_Set(9)&#45;&gt;set_marker_node_Set(10) -->
<g id="edge6" class="edge">
<title>set_marker_node_Set(9)&#45;&gt;set_marker_node_Set(10)</title>
<path fill="none" stroke="black" d="M673,-110C675.93,-110 678.87,-110 681.76,-110"/>
<polygon fill="black" stroke="black" points="681.49,-113.5 691.49,-110 681.49,-106.5 681.49,-113.5"/>
</g>
<!-- set_marker_node_Set(10)&#45;&gt;set_marker_node_Set(3) -->
<g id="edge7" class="edge">
<title>set_marker_node_Set(10)&#45;&gt;set_marker_node_Set(3)</title>
<path fill="none" stroke="black" d="M757,-110C759.78,-110 762.64,-110 765.56,-110"/>
<polygon fill="black" stroke="black" points="765.49,-113.5 775.49,-110 765.49,-106.5 765.49,-113.5"/>
</g>
<!-- set_marker_node_Set(11)&#45;&gt;set_marker_node_Set(4) -->
<g id="edge9" class="edge">
<title>set_marker_node_Set(11)&#45;&gt;set_marker_node_Set(4)</title>
<path fill="none" stroke="black" d="M1009.55,-102C1046.06,-95.14 1099.52,-85.09 1143.02,-76.91"/>
<polygon fill="black" stroke="black" points="1143.33,-80.41 1152.51,-75.12 1142.04,-73.53 1143.33,-80.41"/>
</g>
<!-- set_marker_node_Set(59) -->
<!-- set_marker_node_Set(11)&#45;&gt;set_marker_node_Set(59) -->
<g id="edge14" class="edge">
<title>set_marker_node_Set(11)&#45;&gt;set_marker_node_Set(59)</title>
<path fill="none" stroke="black" d="M977.4,-102C994.38,-89.32 1029.54,-64.65 1063,-51 1093.63,-38.51 1129.59,-30.02 1159.05,-24.53"/>
<polygon fill="black" stroke="black" points="1159.28,-28.04 1168.51,-22.84 1158.05,-21.15 1159.28,-28.04"/>
</g>
<!-- set_marker_node_Set(20) -->
<!-- node_System(68) -->
<g id="node22" class="node">
<title>node_System(68)</title>
<polygon fill="none" stroke="black" points="1685,-247 1401,-247 1401,-211 1685,-211 1685,-247"/>
<text text-anchor="middle" x="1543" y="-225.3" font-family="Times,serif" font-size="14.00">update_frusta&lt;OrthographicProjection&gt;</text>
</g>
<!-- set_marker_node_Set(20)&#45;&gt;node_System(68) -->
<g id="edge21" class="edge">
<title>set_marker_node_Set(20)&#45;&gt;node_System(68)</title>
<path fill="none" stroke="black" d="M1296,-440.7C1323.58,-440.86 1352.81,-435.27 1373,-416 1424.84,-366.52 1343.74,-308.05 1393,-256 1393.37,-255.61 1393.75,-255.22 1394.13,-254.83"/>
<polygon fill="black" stroke="black" points="1396.25,-257.63 1401.47,-248.4 1391.64,-252.36 1396.25,-257.63"/>
</g>
<!-- node_System(69) -->
<g id="node24" class="node">
<title>node_System(69)</title>
<polygon fill="none" stroke="black" points="1678.5,-348 1407.5,-348 1407.5,-312 1678.5,-312 1678.5,-348"/>
<text text-anchor="middle" x="1543" y="-326.3" font-family="Times,serif" font-size="14.00">update_frusta&lt;PerspectiveProjection&gt;</text>
</g>
<!-- set_marker_node_Set(20)&#45;&gt;node_System(69) -->
<g id="edge23" class="edge">
<title>set_marker_node_Set(20)&#45;&gt;node_System(69)</title>
<path fill="none" stroke="black" d="M1296,-438.42C1322.79,-438.07 1351.49,-432.73 1373,-416 1394.86,-399.01 1372.03,-375.08 1393,-357 1394.51,-355.7 1396.05,-354.46 1397.64,-353.26"/>
<polygon fill="black" stroke="black" points="1399.45,-356.26 1405.83,-347.81 1395.57,-350.44 1399.45,-356.26"/>
</g>
<!-- node_System(72) -->
<g id="node27" class="node">
<title>node_System(72)</title>
<polygon fill="none" stroke="black" points="1841,-404 1721,-404 1721,-368 1841,-368 1841,-404"/>
<text text-anchor="middle" x="1781" y="-382.3" font-family="Times,serif" font-size="14.00">check_visibility</text>
</g>
<!-- set_marker_node_Set(20)&#45;&gt;node_System(72) -->
<g id="edge31" class="edge">
<title>set_marker_node_Set(20)&#45;&gt;node_System(72)</title>
<path fill="none" stroke="black" d="M1296,-423.08C1320.63,-421.22 1348,-418.85 1373,-416 1381.93,-414.98 1384.05,-413.85 1393,-413 1525.85,-400.42 1560.3,-415.03 1693,-401 1698.34,-400.44 1703.85,-399.74 1709.38,-398.97"/>
<polygon fill="black" stroke="black" points="1709.84,-402.44 1719.21,-397.51 1708.81,-395.52 1709.84,-402.44"/>
</g>
<!-- node_System(70) -->
<g id="node30" class="node">
<title>node_System(70)</title>
<polygon fill="none" stroke="black" points="1640,-193 1446,-193 1446,-157 1640,-157 1640,-193"/>
<text text-anchor="middle" x="1543" y="-171.3" font-family="Times,serif" font-size="14.00">update_frusta&lt;Projection&gt;</text>
</g>
<!-- set_marker_node_Set(20)&#45;&gt;node_System(70) -->
<g id="edge25" class="edge">
<title>set_marker_node_Set(20)&#45;&gt;node_System(70)</title>
<path fill="none" stroke="black" d="M1296,-441.04C1323.72,-441.29 1353.04,-435.68 1373,-416 1407.48,-382 1359.94,-234.38 1393,-199 1404.19,-187.02 1418.81,-179.47 1434.52,-174.89"/>
<polygon fill="black" stroke="black" points="1435.19,-178.32 1444.06,-172.53 1433.52,-171.53 1435.19,-178.32"/>
</g>
<!-- set_marker_node_Set(70) -->
<!-- node_System(63) -->
<g id="node15" class="node">
<title>node_System(63)</title>
<polygon fill="none" stroke="black" points="1320,-255 1116,-255 1116,-219 1320,-219 1320,-255"/>
<text text-anchor="middle" x="1218" y="-233.3" font-family="Times,serif" font-size="14.00">camera_system&lt;Projection&gt;</text>
</g>
<!-- set_marker_node_Set(70)&#45;&gt;node_System(63) -->
<g id="edge16" class="edge">
<title>set_marker_node_Set(70)&#45;&gt;node_System(63)</title>
<path fill="none" stroke="black" d="M1035,-287C1050,-281.13 1048.37,-270.72 1063,-264 1076.07,-258 1090.33,-253.32 1104.72,-249.68"/>
<polygon fill="black" stroke="black" points="1105.33,-253.13 1114.27,-247.44 1103.73,-246.32 1105.33,-253.13"/>
</g>
<!-- node_System(64) -->
<g id="node16" class="node">
<title>node_System(64)</title>
<polygon fill="none" stroke="black" points="1365,-309 1071,-309 1071,-273 1365,-273 1365,-309"/>
<text text-anchor="middle" x="1218" y="-287.3" font-family="Times,serif" font-size="14.00">camera_system&lt;OrthographicProjection&gt;</text>
</g>
<!-- set_marker_node_Set(70)&#45;&gt;node_System(64) -->
<g id="edge17" class="edge">
<title>set_marker_node_Set(70)&#45;&gt;node_System(64)</title>
<path fill="none" stroke="black" d="M1035,-291C1042.82,-291 1051.03,-291 1059.44,-291"/>
<polygon fill="black" stroke="black" points="1059.15,-294.5 1069.15,-291 1059.15,-287.5 1059.15,-294.5"/>
</g>
<!-- node_System(65) -->
<g id="node17" class="node">
<title>node_System(65)</title>
<polygon fill="none" stroke="black" points="1358.5,-363 1077.5,-363 1077.5,-327 1358.5,-327 1358.5,-363"/>
<text text-anchor="middle" x="1218" y="-341.3" font-family="Times,serif" font-size="14.00">camera_system&lt;PerspectiveProjection&gt;</text>
</g>
<!-- set_marker_node_Set(70)&#45;&gt;node_System(65) -->
<g id="edge18" class="edge">
<title>set_marker_node_Set(70)&#45;&gt;node_System(65)</title>
<path fill="none" stroke="black" d="M1035,-311.04C1044.37,-313.53 1053.9,-315.93 1063,-318 1072.72,-320.21 1082.82,-322.35 1092.99,-324.38"/>
<polygon fill="black" stroke="black" points="1092.06,-327.76 1102.55,-326.25 1093.41,-320.89 1092.06,-327.76"/>
</g>
<!-- set_marker_node_Set(77) -->
<!-- node_System(63)&#45;&gt;node_System(70) -->
<g id="edge24" class="edge">
<title>node_System(63)&#45;&gt;node_System(70)</title>
<path fill="none" stroke="black" d="M1320.31,-220.09C1338.01,-216.33 1356.15,-211.96 1373,-207 1382.18,-204.29 1383.77,-201.55 1393,-199 1406.25,-195.33 1420.33,-192.16 1434.34,-189.43"/>
<polygon fill="black" stroke="black" points="1434.87,-192.89 1444.06,-187.62 1433.58,-186.01 1434.87,-192.89"/>
</g>
<!-- node_System(64)&#45;&gt;node_System(68) -->
<g id="edge20" class="edge">
<title>node_System(64)&#45;&gt;node_System(68)</title>
<path fill="none" stroke="black" d="M1338.52,-272.57C1350.25,-270.01 1361.9,-267.16 1373,-264 1382.21,-261.38 1383.8,-258.64 1393,-256 1400.38,-253.88 1408.02,-251.89 1415.77,-250.03"/>
<polygon fill="black" stroke="black" points="1416.33,-253.49 1425.29,-247.83 1414.76,-246.67 1416.33,-253.49"/>
</g>
<!-- node_System(65)&#45;&gt;node_System(69) -->
<g id="edge22" class="edge">
<title>node_System(65)&#45;&gt;node_System(69)</title>
<path fill="none" stroke="black" d="M1358.79,-338.51C1371.06,-337.94 1383.51,-337.36 1395.83,-336.79"/>
<polygon fill="black" stroke="black" points="1395.76,-340.3 1405.59,-336.33 1395.44,-333.3 1395.76,-340.3"/>
</g>
<!-- set_marker_node_Set(81) -->
<!-- set_marker_node_Set(82) -->
<!-- set_marker_node_Set(81)&#45;&gt;set_marker_node_Set(82) -->
<g id="edge19" class="edge">
<title>set_marker_node_Set(81)&#45;&gt;set_marker_node_Set(82)</title>
<path fill="none" stroke="black" d="M1292.5,-182.58C1319.77,-182.86 1349.71,-178.52 1373,-163 1389.87,-151.76 1375.95,-132.97 1393,-122 1424.33,-101.84 1467.54,-103.09 1499.36,-108.04"/>
<polygon fill="black" stroke="black" points="1498.58,-111.46 1509.04,-109.74 1499.79,-104.56 1498.58,-111.46"/>
</g>
<!-- node_System(67) -->
<g id="node19" class="node">
<title>node_System(67)</title>
<polygon fill="none" stroke="black" points="1284.5,-154 1151.5,-154 1151.5,-118 1284.5,-118 1284.5,-154"/>
<text text-anchor="middle" x="1218" y="-132.3" font-family="Times,serif" font-size="14.00">calculate_bounds</text>
</g>
<!-- set_marker_node_Set(82)&#45;&gt;node_System(72) -->
<g id="edge26" class="edge">
<title>set_marker_node_Set(82)&#45;&gt;node_System(72)</title>
<path fill="none" stroke="black" d="M1571.88,-110C1604.33,-102.5 1657.95,-95.92 1693,-122 1767.85,-177.69 1779.26,-299.81 1780.37,-356.28"/>
<polygon fill="black" stroke="black" points="1776.87,-356.12 1780.45,-366.09 1783.87,-356.06 1776.87,-356.12"/>
</g>
<!-- set_marker_node_Set(83) -->
<!-- set_marker_node_Set(83)&#45;&gt;node_System(72) -->
<g id="edge27" class="edge">
<title>set_marker_node_Set(83)&#45;&gt;node_System(72)</title>
<path fill="none" stroke="black" d="M1685.32,-296C1687.93,-297.28 1690.49,-298.61 1693,-300 1719.35,-314.57 1743.2,-339.39 1759.24,-358.63"/>
<polygon fill="black" stroke="black" points="1756.5,-360.8 1765.51,-366.38 1761.94,-356.4 1756.5,-360.8"/>
</g>
<!-- set_marker_node_Set(84) -->
<!-- set_marker_node_Set(84)&#45;&gt;node_System(72) -->
<g id="edge28" class="edge">
<title>set_marker_node_Set(84)&#45;&gt;node_System(72)</title>
<path fill="none" stroke="black" d="M1686.5,-378.08C1694.34,-378.74 1702.04,-379.39 1709.43,-380.02"/>
<polygon fill="black" stroke="black" points="1708.87,-383.48 1719.13,-380.84 1709.47,-376.51 1708.87,-383.48"/>
</g>
<!-- set_marker_node_Set(85) -->
<!-- set_marker_node_Set(85)&#45;&gt;node_System(72) -->
<g id="edge29" class="edge">
<title>set_marker_node_Set(85)&#45;&gt;node_System(72)</title>
<path fill="none" stroke="black" d="M1631,-536.86C1653.51,-535.22 1676.13,-529.03 1693,-514 1727.17,-483.56 1683.82,-448.25 1713,-413 1713.34,-412.59 1713.69,-412.19 1714.04,-411.79"/>
<polygon fill="black" stroke="black" points="1716.15,-414.59 1721.24,-405.3 1711.47,-409.39 1716.15,-414.59"/>
</g>
<!-- set_marker_node_Set(86) -->
<!-- set_marker_node_Set(87) -->
<!-- set_marker_node_Set(87)&#45;&gt;node_System(72) -->
<g id="edge30" class="edge">
<title>set_marker_node_Set(87)&#45;&gt;node_System(72)</title>
<path fill="none" stroke="black" d="M1652.5,-487.33C1667.12,-484.35 1681.14,-478.96 1693,-470 1714.42,-453.82 1694.45,-432.41 1713,-413 1713.58,-412.39 1714.19,-411.79 1714.8,-411.2"/>
<polygon fill="black" stroke="black" points="1716.65,-414.2 1722.32,-405.25 1712.31,-408.71 1716.65,-414.2"/>
</g>
<!-- node_System(71) -->
<g id="node29" class="node">
<title>node_System(71)</title>
<polygon fill="none" stroke="black" points="1644.5,-461 1441.5,-461 1441.5,-425 1644.5,-425 1644.5,-461"/>
<text text-anchor="middle" x="1543" y="-439.3" font-family="Times,serif" font-size="14.00">visibility_propagate_system</text>
</g>
<!-- set_marker_node_Set(12)&#45;&gt;set_marker_node_Set(5) -->
<g id="edge11" class="edge">
<title>set_marker_node_Set(12)&#45;&gt;set_marker_node_Set(5)</title>
<path fill="none" stroke="black" d="M1566,-39C1602.82,-39 1677.87,-39 1728.56,-39"/>
<polygon fill="black" stroke="black" points="1728.49,-42.5 1738.49,-39 1728.49,-35.5 1728.49,-42.5"/>
</g>
<!-- set_marker_node_Set(58)&#45;&gt;set_marker_node_Set(7) -->
<g id="edge12" class="edge">
<title>set_marker_node_Set(58)&#45;&gt;set_marker_node_Set(7)</title>
<path fill="none" stroke="black" d="M158,-96.09C163.09,-97.24 168.29,-98.4 173.4,-99.55"/>
<polygon fill="black" stroke="black" points="172.35,-102.9 182.87,-101.67 173.88,-96.07 172.35,-102.9"/>
</g>
<!-- set_marker_node_Set(59)&#45;&gt;set_marker_node_Set(12) -->
<g id="edge15" class="edge">
<title>set_marker_node_Set(59)&#45;&gt;set_marker_node_Set(12)</title>
<path fill="none" stroke="black" d="M1266,-19.35C1332.44,-24.08 1452.11,-32.6 1509.54,-36.69"/>
<polygon fill="black" stroke="black" points="1509.27,-40.18 1519.49,-37.4 1509.77,-33.2 1509.27,-40.18"/>
</g>
</g>
</svg>
