<?xml version="1.0" encoding="UTF-8" standalone="no"?>
<!DOCTYPE svg PUBLIC "-//W3C//DTD SVG 1.1//EN"
 "http://www.w3.org/Graphics/SVG/1.1/DTD/svg11.dtd">
<!-- Generated by graphviz version 7.0.6 (0)
 -->
<!-- Title: schedule Pages: 1 -->
<svg width="1958pt" height="604pt"
 viewBox="0.00 0.00 1958.00 604.00" xmlns="http://www.w3.org/2000/svg" xmlns:xlink="http://www.w3.org/1999/xlink">
<g id="graph0" class="graph" transform="scale(1 1) rotate(0) translate(4 600)">
<title>schedule</title>
<polygon fill="#0d1117" stroke="none" points="-4,4 -4,-600 1954,-600 1954,4 -4,4"/>
<g id="clust1" class="cluster">
<title>clusternode_Set(1)</title>
<polygon fill="#6f90ad" stroke="black" points="71,-120 71,-159 153,-159 153,-120 71,-120"/>
<text text-anchor="middle" x="112" y="-143.8" font-family="Helvetica,sans-Serif" font-size="14.00">FirstFlush</text>
</g>
<g id="clust2" class="cluster">
<title>clusternode_Set(2)</title>
<polygon fill="#6f90ad" stroke="black" points="286,-102 286,-141 408,-141 408,-102 286,-102"/>
<text text-anchor="middle" x="347" y="-125.8" font-family="Helvetica,sans-Serif" font-size="14.00">PreUpdateFlush</text>
</g>
<g id="clust3" class="cluster">
<title>clusternode_Set(3)</title>
<polygon fill="#6f90ad" stroke="black" points="779,-102 779,-141 880,-141 880,-102 779,-102"/>
<text text-anchor="middle" x="829.5" y="-125.8" font-family="Helvetica,sans-Serif" font-size="14.00">UpdateFlush</text>
</g>
<g id="clust4" class="cluster">
<title>clusternode_Set(4)</title>
<polygon fill="#6f90ad" stroke="black" points="1160,-55 1160,-94 1289,-94 1289,-55 1160,-55"/>
<text text-anchor="middle" x="1224.5" y="-78.8" font-family="Helvetica,sans-Serif" font-size="14.00">PostUpdateFlush</text>
</g>
<g id="clust5" class="cluster">
<title>clusternode_Set(5)</title>
<polygon fill="#6f90ad" stroke="black" points="1826,-20 1826,-59 1906,-59 1906,-20 1826,-20"/>
<text text-anchor="middle" x="1866" y="-43.8" font-family="Helvetica,sans-Serif" font-size="14.00">LastFlush</text>
</g>
<g id="clust6" class="cluster">
<title>clusternode_Set(6)</title>
<polygon fill="#6f90ad" stroke="black" points="0,-99 0,-138 46,-138 46,-99 0,-99"/>
<text text-anchor="middle" x="23" y="-122.8" font-family="Helvetica,sans-Serif" font-size="14.00">First</text>
</g>
<g id="clust7" class="cluster">
<title>clusternode_Set(7)</title>
<polygon fill="#6f90ad" stroke="black" points="179,-102 179,-141 265,-141 265,-102 179,-102"/>
<text text-anchor="middle" x="222" y="-125.8" font-family="Helvetica,sans-Serif" font-size="14.00">PreUpdate</text>
</g>
<g id="clust8" class="cluster">
<title>clusternode_Set(8)</title>
<polygon fill="#6f90ad" stroke="black" points="429,-102 429,-141 551,-141 551,-102 429,-102"/>
<text text-anchor="middle" x="490" y="-125.8" font-family="Helvetica,sans-Serif" font-size="14.00">StateTransitions</text>
</g>
<g id="clust9" class="cluster">
<title>clusternode_Set(9)</title>
<polygon fill="#6f90ad" stroke="black" points="572,-102 572,-141 672,-141 672,-102 572,-102"/>
<text text-anchor="middle" x="622" y="-125.8" font-family="Helvetica,sans-Serif" font-size="14.00">FixedUpdate</text>
</g>
<g id="clust10" class="cluster">
<title>clusternode_Set(10)</title>
<polygon fill="#6f90ad" stroke="black" points="693,-102 693,-141 758,-141 758,-102 693,-102"/>
<text text-anchor="middle" x="725.5" y="-125.8" font-family="Helvetica,sans-Serif" font-size="14.00">Update</text>
</g>
<g id="clust11" class="cluster">
<title>clusternode_Set(11)</title>
<polygon fill="#6f90ad" stroke="black" points="899,-102 899,-588 1942,-588 1942,-102 899,-102"/>
<text text-anchor="middle" x="1420.5" y="-572.8" font-family="Helvetica,sans-Serif" font-size="14.00">PostUpdate</text>
</g>
<g id="clust12" class="cluster">
<title>clusternode_Set(20)</title>
<polygon fill="#6f90ad" stroke="black" points="1149,-146 1149,-185 1299,-185 1299,-146 1149,-146"/>
<text text-anchor="middle" x="1224" y="-169.8" font-family="Helvetica,sans-Serif" font-size="14.00">TransformPropagate</text>
</g>
<g id="clust13" class="cluster">
<title>clusternode_Set(70)</title>
<polygon fill="#6f90ad" stroke="black" points="907,-265 907,-304 1040,-304 1040,-265 907,-265"/>
<text text-anchor="middle" x="973.5" y="-288.8" font-family="Helvetica,sans-Serif" font-size="14.00">ModifiesWindows</text>
</g>
<g id="clust14" class="cluster">
<title>clusternode_Set(77)</title>
<polygon fill="#6f90ad" stroke="black" points="1069,-193 1069,-394 1379,-394 1379,-193 1069,-193"/>
<text text-anchor="middle" x="1224" y="-378.8" font-family="Helvetica,sans-Serif" font-size="14.00">CameraUpdateSystem</text>
</g>
<g id="clust15" class="cluster">
<title>clusternode_Set(81)</title>
<polygon fill="#6f90ad" stroke="black" points="1149.5,-464 1149.5,-557 1298.5,-557 1298.5,-464 1149.5,-464"/>
<text text-anchor="middle" x="1224" y="-541.8" font-family="Helvetica,sans-Serif" font-size="14.00">CalculateBounds</text>
</g>
<g id="clust16" class="cluster">
<title>clusternode_Set(82)</title>
<polygon fill="#6f90ad" stroke="black" points="1474,-518 1474,-557 1638,-557 1638,-518 1474,-518"/>
<text text-anchor="middle" x="1556" y="-541.8" font-family="Helvetica,sans-Serif" font-size="14.00">CalculateBoundsFlush</text>
</g>
<g id="clust17" class="cluster">
<title>clusternode_Set(84)</title>
<polygon fill="#6f90ad" stroke="black" points="1398,-120 1398,-363 1714,-363 1714,-120 1398,-120"/>
<text text-anchor="middle" x="1556" y="-347.8" font-family="Helvetica,sans-Serif" font-size="14.00">UpdateProjectionFrusta</text>
</g>
<g id="clust18" class="cluster">
<title>clusternode_Set(83)</title>
<polygon fill="#6f90ad" stroke="black" points="1406,-239 1406,-332 1706,-332 1706,-239 1406,-239"/>
<text text-anchor="middle" x="1556" y="-316.8" font-family="Helvetica,sans-Serif" font-size="14.00">UpdateOrthographicFrusta</text>
</g>
<g id="clust19" class="cluster">
<title>clusternode_Set(85)</title>
<polygon fill="#6f90ad" stroke="black" points="1412.5,-128 1412.5,-221 1699.5,-221 1699.5,-128 1412.5,-128"/>
<text text-anchor="middle" x="1556" y="-205.8" font-family="Helvetica,sans-Serif" font-size="14.00">UpdatePerspectiveFrusta</text>
</g>
<g id="clust20" class="cluster">
<title>clusternode_Set(86)</title>
<polygon fill="#6f90ad" stroke="black" points="1798,-264 1798,-357 1934,-357 1934,-264 1798,-264"/>
<text text-anchor="middle" x="1866" y="-341.8" font-family="Helvetica,sans-Serif" font-size="14.00">CheckVisibility</text>
</g>
<g id="clust21" class="cluster">
<title>clusternode_Set(87)</title>
<polygon fill="#6f90ad" stroke="black" points="1446.5,-417 1446.5,-510 1665.5,-510 1665.5,-417 1446.5,-417"/>
<text text-anchor="middle" x="1556" y="-494.8" font-family="Helvetica,sans-Serif" font-size="14.00">VisibilityPropagate</text>
</g>
<g id="clust22" class="cluster">
<title>clusternode_Set(12)</title>
<polygon fill="#6f90ad" stroke="black" points="1534,-20 1534,-59 1578,-59 1578,-20 1534,-20"/>
<text text-anchor="middle" x="1556" y="-43.8" font-family="Helvetica,sans-Serif" font-size="14.00">Last</text>
</g>
<g id="clust23" class="cluster">
<title>clusternode_Set(58)</title>
<polygon fill="#6f90ad" stroke="black" points="67,-73 67,-112 158,-112 158,-73 67,-73"/>
<text text-anchor="middle" x="112.5" y="-96.8" font-family="Helvetica,sans-Serif" font-size="14.00">LoadAssets</text>
</g>
<g id="clust24" class="cluster">
<title>clusternode_Set(59)</title>
<polygon fill="#6f90ad" stroke="black" points="1176,-8 1176,-47 1272,-47 1272,-8 1176,-8"/>
<text text-anchor="middle" x="1224" y="-31.8" font-family="Helvetica,sans-Serif" font-size="14.00">AssetEvents</text>
</g>
<!-- set_marker_node_Set(1) -->
<!-- set_marker_node_Set(7) -->
<!-- set_marker_node_Set(1)&#45;&gt;set_marker_node_Set(7) -->
<g id="edge2" class="edge">
<title>set_marker_node_Set(1)&#45;&gt;set_marker_node_Set(7)</title>
<path fill="none" stroke="white" d="M153,-121.33C157.82,-120.53 162.8,-119.7 167.77,-118.87"/>
<polygon fill="white" stroke="white" points="168.22,-122.34 177.51,-117.25 167.07,-115.44 168.22,-122.34"/>
</g>
<!-- set_marker_node_Set(2) -->
<!-- set_marker_node_Set(8) -->
<!-- set_marker_node_Set(2)&#45;&gt;set_marker_node_Set(8) -->
<g id="edge4" class="edge">
<title>set_marker_node_Set(2)&#45;&gt;set_marker_node_Set(8)</title>
<path fill="none" stroke="white" d="M408,-110C411.17,-110 414.36,-110 417.56,-110"/>
<polygon fill="white" stroke="white" points="417.49,-113.5 427.49,-110 417.49,-106.5 417.49,-113.5"/>
</g>
<!-- set_marker_node_Set(3) -->
<!-- set_marker_node_Set(11) -->
<!-- set_marker_node_Set(3)&#45;&gt;set_marker_node_Set(11) -->
<g id="edge8" class="edge">
<title>set_marker_node_Set(3)&#45;&gt;set_marker_node_Set(11)</title>
<path fill="none" stroke="white" d="M880,-110C882.5,-110 885.05,-110 887.61,-110"/>
<polygon fill="white" stroke="white" points="887.49,-113.5 897.49,-110 887.49,-106.5 887.49,-113.5"/>
</g>
<!-- set_marker_node_Set(4) -->
<!-- set_marker_node_Set(12) -->
<!-- set_marker_node_Set(4)&#45;&gt;set_marker_node_Set(12) -->
<g id="edge10" class="edge">
<title>set_marker_node_Set(4)&#45;&gt;set_marker_node_Set(12)</title>
<path fill="none" stroke="white" d="M1289,-58.76C1316.7,-56.74 1349.48,-54.08 1379,-51 1429.44,-45.74 1487.76,-37.74 1522.99,-32.69"/>
<polygon fill="white" stroke="white" points="1523.11,-36.21 1532.5,-31.32 1522.11,-29.28 1523.11,-36.21"/>
</g>
<!-- set_marker_node_Set(5) -->
<!-- set_marker_node_Set(6) -->
<!-- set_marker_node_Set(6)&#45;&gt;set_marker_node_Set(1) -->
<g id="edge1" class="edge">
<title>set_marker_node_Set(6)&#45;&gt;set_marker_node_Set(1)</title>
<path fill="none" stroke="white" d="M46,-112.31C52.36,-113.84 59.53,-115.58 66.73,-117.31"/>
<polygon fill="white" stroke="white" points="65.85,-120.7 76.39,-119.65 67.49,-113.9 65.85,-120.7"/>
</g>
<!-- set_marker_node_Set(58) -->
<!-- set_marker_node_Set(6)&#45;&gt;set_marker_node_Set(58) -->
<g id="edge13" class="edge">
<title>set_marker_node_Set(6)&#45;&gt;set_marker_node_Set(58)</title>
<path fill="none" stroke="white" d="M46,-100.43C49.26,-99.45 52.75,-98.41 56.34,-97.34"/>
<polygon fill="white" stroke="white" points="56.98,-100.8 65.55,-94.58 54.97,-94.09 56.98,-100.8"/>
</g>
<!-- set_marker_node_Set(7)&#45;&gt;set_marker_node_Set(2) -->
<g id="edge3" class="edge">
<title>set_marker_node_Set(7)&#45;&gt;set_marker_node_Set(2)</title>
<path fill="none" stroke="white" d="M265,-110C268.16,-110 271.4,-110 274.68,-110"/>
<polygon fill="white" stroke="white" points="274.49,-113.5 284.49,-110 274.49,-106.5 274.49,-113.5"/>
</g>
<!-- set_marker_node_Set(9) -->
<!-- set_marker_node_Set(8)&#45;&gt;set_marker_node_Set(9) -->
<g id="edge5" class="edge">
<title>set_marker_node_Set(8)&#45;&gt;set_marker_node_Set(9)</title>
<path fill="none" stroke="white" d="M551,-110C554.3,-110 557.61,-110 560.92,-110"/>
<polygon fill="white" stroke="white" points="560.49,-113.5 570.49,-110 560.49,-106.5 560.49,-113.5"/>
</g>
<!-- set_marker_node_Set(10) -->
<!-- set_marker_node_Set(9)&#45;&gt;set_marker_node_Set(10) -->
<g id="edge6" class="edge">
<title>set_marker_node_Set(9)&#45;&gt;set_marker_node_Set(10)</title>
<path fill="none" stroke="white" d="M672,-110C675.26,-110 678.54,-110 681.76,-110"/>
<polygon fill="white" stroke="white" points="681.49,-113.5 691.49,-110 681.49,-106.5 681.49,-113.5"/>
</g>
<!-- set_marker_node_Set(10)&#45;&gt;set_marker_node_Set(3) -->
<g id="edge7" class="edge">
<title>set_marker_node_Set(10)&#45;&gt;set_marker_node_Set(3)</title>
<path fill="none" stroke="white" d="M758,-110C761.15,-110 764.43,-110 767.75,-110"/>
<polygon fill="white" stroke="white" points="767.49,-113.5 777.49,-110 767.49,-106.5 767.49,-113.5"/>
</g>
<!-- set_marker_node_Set(11)&#45;&gt;set_marker_node_Set(4) -->
<g id="edge9" class="edge">
<title>set_marker_node_Set(11)&#45;&gt;set_marker_node_Set(4)</title>
<path fill="none" stroke="white" d="M1016.36,-102C1052.66,-95.15 1105.78,-85.13 1149.07,-76.95"/>
<polygon fill="white" stroke="white" points="1149.34,-80.47 1158.51,-75.17 1148.04,-73.59 1149.34,-80.47"/>
</g>
<!-- set_marker_node_Set(59) -->
<!-- set_marker_node_Set(11)&#45;&gt;set_marker_node_Set(59) -->
<g id="edge14" class="edge">
<title>set_marker_node_Set(11)&#45;&gt;set_marker_node_Set(59)</title>
<path fill="none" stroke="white" d="M984.27,-102C1001.05,-89.31 1035.82,-64.62 1069,-51 1099.6,-38.43 1135.57,-29.94 1165.05,-24.47"/>
<polygon fill="white" stroke="white" points="1165.28,-27.98 1174.51,-22.78 1164.05,-21.09 1165.28,-27.98"/>
</g>
<!-- set_marker_node_Set(20) -->
<!-- node_System(68) -->
<g id="node23" class="node">
<title>node_System(68)</title>
<polygon fill="#eff1f3" stroke="#eff1f3" points="1698,-283 1414,-283 1414,-247 1698,-247 1698,-283"/>
<text text-anchor="middle" x="1556" y="-261.3" font-family="Times,serif" font-size="14.00">update_frusta&lt;OrthographicProjection&gt;</text>
</g>
<!-- set_marker_node_Set(20)&#45;&gt;node_System(68) -->
<g id="edge21" class="edge">
<title>set_marker_node_Set(20)&#45;&gt;node_System(68)</title>
<path fill="none" stroke="white" d="M1299,-156C1326.95,-160.27 1357.22,-169.59 1379,-189 1397.99,-205.93 1378.31,-226.89 1398,-243 1399.99,-244.63 1402.04,-246.17 1404.15,-247.62"/>
<polygon fill="white" stroke="white" points="1402.09,-250.47 1412.46,-252.68 1405.74,-244.49 1402.09,-250.47"/>
</g>
<!-- node_System(69) -->
<g id="node25" class="node">
<title>node_System(69)</title>
<polygon fill="#eff1f3" stroke="#eff1f3" points="1691.5,-172 1420.5,-172 1420.5,-136 1691.5,-136 1691.5,-172"/>
<text text-anchor="middle" x="1556" y="-150.3" font-family="Times,serif" font-size="14.00">update_frusta&lt;PerspectiveProjection&gt;</text>
</g>
<!-- set_marker_node_Set(20)&#45;&gt;node_System(69) -->
<g id="edge23" class="edge">
<title>set_marker_node_Set(20)&#45;&gt;node_System(69)</title>
<path fill="none" stroke="white" d="M1299,-154C1331.45,-154 1370.74,-154 1408.7,-154"/>
<polygon fill="white" stroke="white" points="1408.57,-157.5 1418.57,-154 1408.57,-150.5 1408.57,-157.5"/>
</g>
<!-- node_System(72) -->
<g id="node27" class="node">
<title>node_System(72)</title>
<polygon fill="#eff1f3" stroke="#eff1f3" points="1926,-308 1806,-308 1806,-272 1926,-272 1926,-308"/>
<text text-anchor="middle" x="1866" y="-286.3" font-family="Times,serif" font-size="14.00">check_visibility</text>
</g>
<!-- set_marker_node_Set(20)&#45;&gt;node_System(72) -->
<g id="edge31" class="edge">
<title>set_marker_node_Set(20)&#45;&gt;node_System(72)</title>
<path fill="none" stroke="white" d="M1249.67,-146C1322.93,-123.59 1544.65,-65.54 1714,-124 1780.74,-147.04 1828.66,-220.65 1850.96,-261.68"/>
<polygon fill="white" stroke="white" points="1847.73,-263.05 1855.49,-270.26 1853.92,-259.79 1847.73,-263.05"/>
</g>
<!-- node_System(70) -->
<g id="node30" class="node">
<title>node_System(70)</title>
<polygon fill="#eff1f3" stroke="#eff1f3" points="1653,-407 1459,-407 1459,-371 1653,-371 1653,-407"/>
<text text-anchor="middle" x="1556" y="-385.3" font-family="Times,serif" font-size="14.00">update_frusta&lt;Projection&gt;</text>
</g>
<!-- set_marker_node_Set(20)&#45;&gt;node_System(70) -->
<g id="edge25" class="edge">
<title>set_marker_node_Set(20)&#45;&gt;node_System(70)</title>
<path fill="none" stroke="white" d="M1299,-153.48C1327.9,-157.23 1358.86,-166.86 1379,-189 1390.08,-201.18 1387.56,-323.27 1398,-336 1411.01,-351.86 1428.95,-363 1448.06,-370.81"/>
<polygon fill="white" stroke="white" points="1446.77,-374.06 1457.36,-374.29 1449.22,-367.51 1446.77,-374.06"/>
</g>
<!-- set_marker_node_Set(70) -->
<!-- node_System(63) -->
<g id="node15" class="node">
<title>node_System(63)</title>
<polygon fill="#eff1f3" stroke="#eff1f3" points="1326,-345 1122,-345 1122,-309 1326,-309 1326,-345"/>
<text text-anchor="middle" x="1224" y="-323.3" font-family="Times,serif" font-size="14.00">camera_system&lt;Projection&gt;</text>
</g>
<!-- set_marker_node_Set(70)&#45;&gt;node_System(63) -->
<g id="edge16" class="edge">
<title>set_marker_node_Set(70)&#45;&gt;node_System(63)</title>
<path fill="none" stroke="white" d="M1040,-292.7C1049.68,-295.32 1059.57,-297.84 1069,-300 1082.36,-303.06 1096.44,-305.97 1110.44,-308.66"/>
<polygon fill="white" stroke="white" points="1109.67,-312.07 1120.15,-310.49 1110.97,-305.19 1109.67,-312.07"/>
</g>
<!-- node_System(64) -->
<g id="node16" class="node">
<title>node_System(64)</title>
<polygon fill="#eff1f3" stroke="#eff1f3" points="1371,-291 1077,-291 1077,-255 1371,-255 1371,-291"/>
<text text-anchor="middle" x="1224" y="-269.3" font-family="Times,serif" font-size="14.00">camera_system&lt;OrthographicProjection&gt;</text>
</g>
<!-- set_marker_node_Set(70)&#45;&gt;node_System(64) -->
<g id="edge17" class="edge">
<title>set_marker_node_Set(70)&#45;&gt;node_System(64)</title>
<path fill="none" stroke="white" d="M1040,-273C1048.01,-273 1056.45,-273 1065.11,-273"/>
<polygon fill="white" stroke="white" points="1065.02,-276.5 1075.02,-273 1065.02,-269.5 1065.02,-276.5"/>
</g>
<!-- node_System(65) -->
<g id="node17" class="node">
<title>node_System(65)</title>
<polygon fill="#eff1f3" stroke="#eff1f3" points="1364.5,-237 1083.5,-237 1083.5,-201 1364.5,-201 1364.5,-237"/>
<text text-anchor="middle" x="1224" y="-215.3" font-family="Times,serif" font-size="14.00">camera_system&lt;PerspectiveProjection&gt;</text>
</g>
<!-- set_marker_node_Set(70)&#45;&gt;node_System(65) -->
<g id="edge18" class="edge">
<title>set_marker_node_Set(70)&#45;&gt;node_System(65)</title>
<path fill="none" stroke="white" d="M1040,-269C1055.36,-263.12 1053.99,-252.74 1069,-246 1072.81,-244.29 1076.73,-242.68 1080.71,-241.18"/>
<polygon fill="white" stroke="white" points="1081.71,-244.54 1089.99,-237.93 1079.4,-237.93 1081.71,-244.54"/>
</g>
<!-- set_marker_node_Set(77) -->
<!-- node_System(63)&#45;&gt;node_System(70) -->
<g id="edge24" class="edge">
<title>node_System(63)&#45;&gt;node_System(70)</title>
<path fill="none" stroke="white" d="M1326.12,-344.39C1343.76,-347.52 1361.92,-350.81 1379,-354 1403.03,-358.5 1428.87,-363.52 1453.15,-368.34"/>
<polygon fill="white" stroke="white" points="1452.21,-371.72 1462.7,-370.23 1453.57,-364.85 1452.21,-371.72"/>
</g>
<!-- node_System(64)&#45;&gt;node_System(68) -->
<g id="edge20" class="edge">
<title>node_System(64)&#45;&gt;node_System(68)</title>
<path fill="none" stroke="white" d="M1371.18,-269.46C1381.57,-269.2 1392.05,-268.95 1402.46,-268.7"/>
<polygon fill="white" stroke="white" points="1402.31,-272.2 1412.22,-268.46 1402.14,-265.2 1402.31,-272.2"/>
</g>
<!-- node_System(65)&#45;&gt;node_System(69) -->
<g id="edge22" class="edge">
<title>node_System(65)&#45;&gt;node_System(69)</title>
<path fill="none" stroke="white" d="M1334.64,-200.53C1349.66,-197.16 1364.8,-193.32 1379,-189 1387.77,-186.33 1389.21,-183.57 1398,-181 1405.4,-178.84 1413.05,-176.83 1420.8,-174.96"/>
<polygon fill="white" stroke="white" points="1421.39,-178.41 1430.35,-172.75 1419.82,-171.59 1421.39,-178.41"/>
</g>
<!-- set_marker_node_Set(81) -->
<!-- set_marker_node_Set(82) -->
<!-- set_marker_node_Set(81)&#45;&gt;set_marker_node_Set(82) -->
<g id="edge19" class="edge">
<title>set_marker_node_Set(81)&#45;&gt;set_marker_node_Set(82)</title>
<path fill="none" stroke="white" d="M1298.5,-526C1346.97,-526 1410.86,-526 1462.75,-526"/>
<polygon fill="white" stroke="white" points="1462.49,-529.5 1472.49,-526 1462.49,-522.5 1462.49,-529.5"/>
</g>
<!-- node_System(67) -->
<g id="node19" class="node">
<title>node_System(67)</title>
<polygon fill="#eff1f3" stroke="#eff1f3" points="1290.5,-508 1157.5,-508 1157.5,-472 1290.5,-472 1290.5,-508"/>
<text text-anchor="middle" x="1224" y="-486.3" font-family="Times,serif" font-size="14.00">calculate_bounds</text>
</g>
<!-- set_marker_node_Set(82)&#45;&gt;node_System(72) -->
<g id="edge26" class="edge">
<title>set_marker_node_Set(82)&#45;&gt;node_System(72)</title>
<path fill="none" stroke="white" d="M1638,-533.43C1663.79,-532.35 1691.45,-527.32 1714,-514 1765.69,-483.46 1767.46,-457.41 1788,-401 1800.86,-365.67 1775.15,-346.86 1798,-317 1798.24,-316.69 1798.48,-316.39 1798.72,-316.09"/>
<polygon fill="white" stroke="white" points="1800.94,-318.81 1805.69,-309.34 1796.07,-313.78 1800.94,-318.81"/>
</g>
<!-- set_marker_node_Set(84) -->
<!-- set_marker_node_Set(84)&#45;&gt;node_System(72) -->
<g id="edge29" class="edge">
<title>set_marker_node_Set(84)&#45;&gt;node_System(72)</title>
<path fill="none" stroke="white" d="M1714,-235C1729.01,-248.02 1707.24,-265.69 1722,-279 1727.71,-284.15 1761.21,-286.89 1794.35,-288.35"/>
<polygon fill="white" stroke="white" points="1793.89,-291.83 1804.02,-288.74 1794.17,-284.84 1793.89,-291.83"/>
</g>
<!-- set_marker_node_Set(83) -->
<!-- set_marker_node_Set(83)&#45;&gt;node_System(72) -->
<g id="edge27" class="edge">
<title>set_marker_node_Set(83)&#45;&gt;node_System(72)</title>
<path fill="none" stroke="white" d="M1706,-295.68C1736.78,-294.58 1767.83,-293.47 1794.22,-292.53"/>
<polygon fill="white" stroke="white" points="1794.33,-296.03 1804.2,-292.17 1794.08,-289.03 1794.33,-296.03"/>
</g>
<!-- set_marker_node_Set(85) -->
<!-- set_marker_node_Set(85)&#45;&gt;node_System(72) -->
<g id="edge28" class="edge">
<title>set_marker_node_Set(85)&#45;&gt;node_System(72)</title>
<path fill="none" stroke="white" d="M1699.5,-185.47C1736.94,-186.38 1771.48,-189.73 1788,-198 1815.5,-211.76 1836.89,-240.24 1850.07,-261.89"/>
<polygon fill="white" stroke="white" points="1846.89,-263.39 1854.94,-270.27 1852.94,-259.87 1846.89,-263.39"/>
</g>
<!-- set_marker_node_Set(86) -->
<!-- set_marker_node_Set(87) -->
<!-- set_marker_node_Set(87)&#45;&gt;node_System(72) -->
<g id="edge30" class="edge">
<title>set_marker_node_Set(87)&#45;&gt;node_System(72)</title>
<path fill="none" stroke="white" d="M1665.5,-487C1682.65,-484.36 1699.5,-479.15 1714,-470 1722.2,-464.82 1790.75,-323.44 1798,-317 1798.91,-316.19 1799.86,-315.4 1800.82,-314.63"/>
<polygon fill="white" stroke="white" points="1802.54,-317.7 1808.83,-309.17 1798.59,-311.92 1802.54,-317.7"/>
</g>
<!-- node_System(71) -->
<g id="node29" class="node">
<title>node_System(71)</title>
<polygon fill="#eff1f3" stroke="#eff1f3" points="1657.5,-461 1454.5,-461 1454.5,-425 1657.5,-425 1657.5,-461"/>
<text text-anchor="middle" x="1556" y="-439.3" font-family="Times,serif" font-size="14.00">visibility_propagate_system</text>
</g>
<!-- node_System(70)&#45;&gt;node_System(72) -->
<g id="edge32" class="edge">
<title>node_System(70)&#45;&gt;node_System(72)</title>
<path fill="none" stroke="#c93526" d="M1614.21,-370.61C1669.36,-352.88 1752.35,-326.21 1807.57,-308.46"/>
<g id="a_edge32&#45;label"><a xlink:title="update_frusta&lt;Projection&gt; &#45;&#45; check_visibility">
<polygon fill="#c6e6ff" stroke="none" points="1724,-334.5 1724,-353.5 1786,-353.5 1786,-334.5 1724,-334.5"/>
<text text-anchor="start" x="1726" y="-340.3" font-family="Times,serif" font-size="14.00" fill="#c93526">Frustum</text>
</a>
</g>
</g>
<!-- set_marker_node_Set(12)&#45;&gt;set_marker_node_Set(5) -->
<g id="edge11" class="edge">
<title>set_marker_node_Set(12)&#45;&gt;set_marker_node_Set(5)</title>
<path fill="none" stroke="white" d="M1578,-28C1626.22,-28 1746.02,-28 1814.62,-28"/>
<polygon fill="white" stroke="white" points="1814.49,-31.5 1824.49,-28 1814.49,-24.5 1814.49,-31.5"/>
</g>
<!-- set_marker_node_Set(58)&#45;&gt;set_marker_node_Set(7) -->
<g id="edge12" class="edge">
<title>set_marker_node_Set(58)&#45;&gt;set_marker_node_Set(7)</title>
<path fill="none" stroke="white" d="M158,-93.08C165.35,-95.06 172.92,-97.09 180.16,-99.03"/>
<polygon fill="white" stroke="white" points="179.18,-102.4 189.75,-101.61 181,-95.63 179.18,-102.4"/>
</g>
<!-- set_marker_node_Set(59)&#45;&gt;set_marker_node_Set(12) -->
<g id="edge15" class="edge">
<title>set_marker_node_Set(59)&#45;&gt;set_marker_node_Set(12)</title>
<path fill="none" stroke="white" d="M1272,-17.71C1339.96,-20.18 1463.96,-24.69 1522.61,-26.82"/>
<polygon fill="white" stroke="white" points="1522.37,-30.32 1532.49,-27.18 1522.63,-23.32 1522.37,-30.32"/>
</g>
</g>
</svg>
