<?xml version="1.0" encoding="UTF-8" standalone="no"?>
<!DOCTYPE svg PUBLIC "-//W3C//DTD SVG 1.1//EN"
 "http://www.w3.org/Graphics/SVG/1.1/DTD/svg11.dtd">
<!-- Generated by graphviz version 7.0.6 (0)
 -->
<!-- Title: schedule Pages: 1 -->
<svg width="1404pt" height="194pt"
 viewBox="0.00 0.00 1404.00 194.00" xmlns="http://www.w3.org/2000/svg" xmlns:xlink="http://www.w3.org/1999/xlink">
<g id="graph0" class="graph" transform="scale(1 1) rotate(0) translate(4 190)">
<title>schedule</title>
<polygon fill="white" stroke="none" points="-4,4 -4,-190 1400,-190 1400,4 -4,4"/>
<g id="clust1" class="cluster">
<title>clusternode_Set(1)</title>
<polygon fill="none" stroke="black" points="70,-139 70,-178 154,-178 154,-139 70,-139"/>
<text text-anchor="middle" x="112" y="-162.8" font-family="Times,serif" font-size="14.00">FirstFlush</text>
</g>
<g id="clust2" class="cluster">
<title>clusternode_Set(2)</title>
<polygon fill="none" stroke="black" points="284,-116 284,-155 407,-155 407,-116 284,-116"/>
<text text-anchor="middle" x="345.5" y="-139.8" font-family="Times,serif" font-size="14.00">PreUpdateFlush</text>
</g>
<g id="clust3" class="cluster">
<title>clusternode_Set(3)</title>
<polygon fill="none" stroke="black" points="777,-116 777,-155 878,-155 878,-116 777,-116"/>
<text text-anchor="middle" x="827.5" y="-139.8" font-family="Times,serif" font-size="14.00">UpdateFlush</text>
</g>
<g id="clust4" class="cluster">
<title>clusternode_Set(4)</title>
<polygon fill="none" stroke="black" points="1101,-127 1101,-166 1229,-166 1229,-127 1101,-127"/>
<text text-anchor="middle" x="1165" y="-150.8" font-family="Times,serif" font-size="14.00">PostUpdateFlush</text>
</g>
<g id="clust5" class="cluster">
<title>clusternode_Set(5)</title>
<polygon fill="none" stroke="black" points="1314,-103 1314,-142 1396,-142 1396,-103 1314,-103"/>
<text text-anchor="middle" x="1355" y="-126.8" font-family="Times,serif" font-size="14.00">LastFlush</text>
</g>
<g id="clust6" class="cluster">
<title>clusternode_Set(6)</title>
<polygon fill="none" stroke="black" points="0,-115 0,-154 47,-154 47,-115 0,-115"/>
<text text-anchor="middle" x="23.5" y="-138.8" font-family="Times,serif" font-size="14.00">First</text>
</g>
<g id="clust7" class="cluster">
<title>clusternode_Set(7)</title>
<polygon fill="none" stroke="black" points="178,-116 178,-155 264,-155 264,-116 178,-116"/>
<text text-anchor="middle" x="221" y="-139.8" font-family="Times,serif" font-size="14.00">PreUpdate</text>
</g>
<g id="clust8" class="cluster">
<title>clusternode_Set(8)</title>
<polygon fill="none" stroke="black" points="427,-116 427,-155 552,-155 552,-116 427,-116"/>
<text text-anchor="middle" x="489.5" y="-139.8" font-family="Times,serif" font-size="14.00">StateTransitions</text>
</g>
<g id="clust9" class="cluster">
<title>clusternode_Set(9)</title>
<polygon fill="none" stroke="black" points="572,-116 572,-155 673,-155 673,-116 572,-116"/>
<text text-anchor="middle" x="622.5" y="-139.8" font-family="Times,serif" font-size="14.00">FixedUpdate</text>
</g>
<g id="clust10" class="cluster">
<title>clusternode_Set(10)</title>
<polygon fill="none" stroke="black" points="693,-116 693,-155 757,-155 757,-116 693,-116"/>
<text text-anchor="middle" x="725" y="-139.8" font-family="Times,serif" font-size="14.00">Update</text>
</g>
<g id="clust11" class="cluster">
<title>clusternode_Set(11)</title>
<polygon fill="none" stroke="black" points="898,-8 898,-155 1081,-155 1081,-8 898,-8"/>
<text text-anchor="middle" x="989.5" y="-139.8" font-family="Times,serif" font-size="14.00">PostUpdate</text>
</g>
<g id="clust12" class="cluster">
<title>clusternode_Set(12)</title>
<polygon fill="none" stroke="black" points="1249,-103 1249,-142 1294,-142 1294,-103 1249,-103"/>
<text text-anchor="middle" x="1271.5" y="-126.8" font-family="Times,serif" font-size="14.00">Last</text>
</g>
<g id="clust13" class="cluster">
<title>clusternode_Set(58)</title>
<polygon fill="none" stroke="black" points="67,-92 67,-131 158,-131 158,-92 67,-92"/>
<text text-anchor="middle" x="112.5" y="-115.8" font-family="Times,serif" font-size="14.00">LoadAssets</text>
</g>
<g id="clust14" class="cluster">
<title>clusternode_Set(59)</title>
<polygon fill="none" stroke="black" points="1117,-80 1117,-119 1213,-119 1213,-80 1117,-80"/>
<text text-anchor="middle" x="1165" y="-103.8" font-family="Times,serif" font-size="14.00">AssetEvents</text>
</g>
<!-- set_marker_node_Set(1) -->
<!-- set_marker_node_Set(7) -->
<!-- set_marker_node_Set(1)&#45;&gt;set_marker_node_Set(7) -->
<g id="edge2" class="edge">
<title>set_marker_node_Set(1)&#45;&gt;set_marker_node_Set(7)</title>
<path fill="none" stroke="black" d="M150.21,-139C155.62,-137.84 161.27,-136.62 166.92,-135.41"/>
<polygon fill="black" stroke="black" points="167.48,-138.87 176.53,-133.35 166.01,-132.02 167.48,-138.87"/>
</g>
<!-- set_marker_node_Set(2) -->
<!-- set_marker_node_Set(8) -->
<!-- set_marker_node_Set(2)&#45;&gt;set_marker_node_Set(8) -->
<g id="edge4" class="edge">
<title>set_marker_node_Set(2)&#45;&gt;set_marker_node_Set(8)</title>
<path fill="none" stroke="black" d="M407,-124C409.83,-124 412.68,-124 415.54,-124"/>
<polygon fill="black" stroke="black" points="415.49,-127.5 425.49,-124 415.49,-120.5 415.49,-127.5"/>
</g>
<!-- set_marker_node_Set(3) -->
<!-- set_marker_node_Set(11) -->
<!-- set_marker_node_Set(3)&#45;&gt;set_marker_node_Set(11) -->
<g id="edge8" class="edge">
<title>set_marker_node_Set(3)&#45;&gt;set_marker_node_Set(11)</title>
<path fill="none" stroke="black" d="M878,-124C880.81,-124 883.68,-124 886.59,-124"/>
<polygon fill="black" stroke="black" points="886.49,-127.5 896.49,-124 886.49,-120.5 886.49,-127.5"/>
</g>
<!-- set_marker_node_Set(4) -->
<!-- set_marker_node_Set(12) -->
<!-- set_marker_node_Set(4)&#45;&gt;set_marker_node_Set(12) -->
<g id="edge10" class="edge">
<title>set_marker_node_Set(4)&#45;&gt;set_marker_node_Set(12)</title>
<path fill="none" stroke="black" d="M1210.87,-127C1216.98,-125.75 1223.16,-124.41 1229,-123 1231.97,-122.28 1235.04,-121.49 1238.11,-120.66"/>
<polygon fill="black" stroke="black" points="1238.88,-124.08 1247.55,-117.98 1236.97,-117.34 1238.88,-124.08"/>
</g>
<!-- set_marker_node_Set(5) -->
<!-- set_marker_node_Set(6) -->
<!-- set_marker_node_Set(6)&#45;&gt;set_marker_node_Set(1) -->
<g id="edge1" class="edge">
<title>set_marker_node_Set(6)&#45;&gt;set_marker_node_Set(1)</title>
<path fill="none" stroke="black" d="M47,-129.44C53.47,-131.25 60.51,-133.21 67,-135 68.18,-135.33 69.37,-135.65 70.58,-135.99"/>
<polygon fill="black" stroke="black" points="69.56,-139.34 80.13,-138.6 71.41,-132.58 69.56,-139.34"/>
</g>
<!-- set_marker_node_Set(58) -->
<!-- set_marker_node_Set(6)&#45;&gt;set_marker_node_Set(58) -->
<g id="edge13" class="edge">
<title>set_marker_node_Set(6)&#45;&gt;set_marker_node_Set(58)</title>
<path fill="none" stroke="black" d="M47,-116.92C49.97,-116.13 53.11,-115.3 56.34,-114.45"/>
<polygon fill="black" stroke="black" points="56.77,-117.96 65.54,-112.02 54.98,-111.19 56.77,-117.96"/>
</g>
<!-- set_marker_node_Set(7)&#45;&gt;set_marker_node_Set(2) -->
<g id="edge3" class="edge">
<title>set_marker_node_Set(7)&#45;&gt;set_marker_node_Set(2)</title>
<path fill="none" stroke="black" d="M264,-124C266.78,-124 269.62,-124 272.49,-124"/>
<polygon fill="black" stroke="black" points="272.49,-127.5 282.49,-124 272.49,-120.5 272.49,-127.5"/>
</g>
<!-- set_marker_node_Set(9) -->
<!-- set_marker_node_Set(8)&#45;&gt;set_marker_node_Set(9) -->
<g id="edge5" class="edge">
<title>set_marker_node_Set(8)&#45;&gt;set_marker_node_Set(9)</title>
<path fill="none" stroke="black" d="M552,-124C554.93,-124 557.87,-124 560.8,-124"/>
<polygon fill="black" stroke="black" points="560.49,-127.5 570.49,-124 560.49,-120.5 560.49,-127.5"/>
</g>
<!-- set_marker_node_Set(10) -->
<!-- set_marker_node_Set(9)&#45;&gt;set_marker_node_Set(10) -->
<g id="edge6" class="edge">
<title>set_marker_node_Set(9)&#45;&gt;set_marker_node_Set(10)</title>
<path fill="none" stroke="black" d="M673,-124C675.93,-124 678.87,-124 681.76,-124"/>
<polygon fill="black" stroke="black" points="681.49,-127.5 691.49,-124 681.49,-120.5 681.49,-127.5"/>
</g>
<!-- set_marker_node_Set(10)&#45;&gt;set_marker_node_Set(3) -->
<g id="edge7" class="edge">
<title>set_marker_node_Set(10)&#45;&gt;set_marker_node_Set(3)</title>
<path fill="none" stroke="black" d="M757,-124C759.78,-124 762.64,-124 765.56,-124"/>
<polygon fill="black" stroke="black" points="765.49,-127.5 775.49,-124 765.49,-120.5 765.49,-127.5"/>
</g>
<!-- set_marker_node_Set(11)&#45;&gt;set_marker_node_Set(4) -->
<g id="edge9" class="edge">
<title>set_marker_node_Set(11)&#45;&gt;set_marker_node_Set(4)</title>
<path fill="none" stroke="black" d="M1081,-129.74C1083.85,-129.92 1086.69,-130.1 1089.52,-130.28"/>
<polygon fill="black" stroke="black" points="1089.29,-133.77 1099.49,-130.91 1089.74,-126.78 1089.29,-133.77"/>
</g>
<!-- set_marker_node_Set(59) -->
<!-- set_marker_node_Set(11)&#45;&gt;set_marker_node_Set(59) -->
<g id="edge14" class="edge">
<title>set_marker_node_Set(11)&#45;&gt;set_marker_node_Set(59)</title>
<path fill="none" stroke="black" d="M1081,-115C1089.23,-113.27 1097.8,-111.03 1106.16,-108.56"/>
<polygon fill="black" stroke="black" points="1107.02,-111.96 1115.55,-105.68 1104.97,-105.27 1107.02,-111.96"/>
</g>
<!-- node_System(45) -->
<g id="node12" class="node">
<title>node_System(45)</title>
<polygon fill="none" stroke="black" points="1058.5,-106 920.5,-106 920.5,-70 1058.5,-70 1058.5,-106"/>
<text text-anchor="middle" x="989.5" y="-84.3" font-family="Times,serif" font-size="14.00">exit_on_all_closed</text>
</g>
<!-- node_System(46) -->
<g id="node13" class="node">
<title>node_System(46)</title>
<polygon fill="none" stroke="black" points="1073,-52 906,-52 906,-16 1073,-16 1073,-52"/>
<text text-anchor="middle" x="989.5" y="-30.3" font-family="Times,serif" font-size="14.00">close_when_requested</text>
</g>
<!-- set_marker_node_Set(12)&#45;&gt;set_marker_node_Set(5) -->
<g id="edge11" class="edge">
<title>set_marker_node_Set(12)&#45;&gt;set_marker_node_Set(5)</title>
<path fill="none" stroke="black" d="M1294,-111C1296.78,-111 1299.72,-111 1302.74,-111"/>
<polygon fill="black" stroke="black" points="1302.49,-114.5 1312.49,-111 1302.49,-107.5 1302.49,-114.5"/>
</g>
<!-- set_marker_node_Set(58)&#45;&gt;set_marker_node_Set(7) -->
<g id="edge12" class="edge">
<title>set_marker_node_Set(58)&#45;&gt;set_marker_node_Set(7)</title>
<path fill="none" stroke="black" d="M158,-110.09C163.09,-111.24 168.29,-112.4 173.4,-113.55"/>
<polygon fill="black" stroke="black" points="172.35,-116.9 182.87,-115.67 173.88,-110.07 172.35,-116.9"/>
</g>
<!-- set_marker_node_Set(59)&#45;&gt;set_marker_node_Set(12) -->
<g id="edge15" class="edge">
<title>set_marker_node_Set(59)&#45;&gt;set_marker_node_Set(12)</title>
<path fill="none" stroke="black" d="M1213,-98.39C1221.38,-100.25 1229.94,-102.14 1237.79,-103.88"/>
<polygon fill="black" stroke="black" points="1237,-107.29 1247.52,-106.03 1238.52,-100.45 1237,-107.29"/>
</g>
</g>
</svg>
