<?xml version="1.0" encoding="UTF-8" standalone="no"?>
<!DOCTYPE svg PUBLIC "-//W3C//DTD SVG 1.1//EN"
 "http://www.w3.org/Graphics/SVG/1.1/DTD/svg11.dtd">
<!-- Generated by graphviz version 7.0.6 (0)
 -->
<!-- Title: schedule Pages: 1 -->
<svg width="1484pt" height="141pt"
 viewBox="0.00 0.00 1484.00 141.00" xmlns="http://www.w3.org/2000/svg" xmlns:xlink="http://www.w3.org/1999/xlink">
<g id="graph0" class="graph" transform="scale(1 1) rotate(0) translate(4 137)">
<title>schedule</title>
<polygon fill="white" stroke="none" points="-4,4 -4,-137 1480,-137 1480,4 -4,4"/>
<g id="clust1" class="cluster">
<title>clusternode_Set(1)</title>
<polygon fill="none" stroke="black" points="70,-74 70,-113 154,-113 154,-74 70,-74"/>
<text text-anchor="middle" x="112" y="-97.8" font-family="Times,serif" font-size="14.00">FirstFlush</text>
</g>
<g id="clust2" class="cluster">
<title>clusternode_Set(2)</title>
<polygon fill="none" stroke="black" points="332,-62 332,-101 455,-101 455,-62 332,-62"/>
<text text-anchor="middle" x="393.5" y="-85.8" font-family="Times,serif" font-size="14.00">PreUpdateFlush</text>
</g>
<g id="clust3" class="cluster">
<title>clusternode_Set(3)</title>
<polygon fill="none" stroke="black" points="948,-62 948,-101 1049,-101 1049,-62 948,-62"/>
<text text-anchor="middle" x="998.5" y="-85.8" font-family="Times,serif" font-size="14.00">UpdateFlush</text>
</g>
<g id="clust4" class="cluster">
<title>clusternode_Set(4)</title>
<polygon fill="none" stroke="black" points="1181,-86 1181,-125 1309,-125 1309,-86 1181,-86"/>
<text text-anchor="middle" x="1245" y="-109.8" font-family="Times,serif" font-size="14.00">PostUpdateFlush</text>
</g>
<g id="clust5" class="cluster">
<title>clusternode_Set(5)</title>
<polygon fill="none" stroke="black" points="1394,-62 1394,-101 1476,-101 1476,-62 1394,-62"/>
<text text-anchor="middle" x="1435" y="-85.8" font-family="Times,serif" font-size="14.00">LastFlush</text>
</g>
<g id="clust6" class="cluster">
<title>clusternode_Set(6)</title>
<polygon fill="none" stroke="black" points="0,-50 0,-89 47,-89 47,-50 0,-50"/>
<text text-anchor="middle" x="23.5" y="-73.8" font-family="Times,serif" font-size="14.00">First</text>
</g>
<g id="clust7" class="cluster">
<title>clusternode_Set(7)</title>
<polygon fill="none" stroke="black" points="178,-8 178,-101 312,-101 312,-8 178,-8"/>
<text text-anchor="middle" x="245" y="-85.8" font-family="Times,serif" font-size="14.00">PreUpdate</text>
</g>
<g id="clust8" class="cluster">
<title>clusternode_Set(8)</title>
<polygon fill="none" stroke="black" points="475,-62 475,-101 600,-101 600,-62 475,-62"/>
<text text-anchor="middle" x="537.5" y="-85.8" font-family="Times,serif" font-size="14.00">StateTransitions</text>
</g>
<g id="clust9" class="cluster">
<title>clusternode_Set(9)</title>
<polygon fill="none" stroke="black" points="620,-62 620,-101 721,-101 721,-62 620,-62"/>
<text text-anchor="middle" x="670.5" y="-85.8" font-family="Times,serif" font-size="14.00">FixedUpdate</text>
</g>
<g id="clust10" class="cluster">
<title>clusternode_Set(10)</title>
<polygon fill="none" stroke="black" points="741,-8 741,-101 928,-101 928,-8 741,-8"/>
<text text-anchor="middle" x="834.5" y="-85.8" font-family="Times,serif" font-size="14.00">Update</text>
</g>
<g id="clust11" class="cluster">
<title>clusternode_Set(11)</title>
<polygon fill="none" stroke="black" points="1069,-62 1069,-101 1161,-101 1161,-62 1069,-62"/>
<text text-anchor="middle" x="1115" y="-85.8" font-family="Times,serif" font-size="14.00">PostUpdate</text>
</g>
<g id="clust12" class="cluster">
<title>clusternode_Set(12)</title>
<polygon fill="none" stroke="black" points="1329,-62 1329,-101 1374,-101 1374,-62 1329,-62"/>
<text text-anchor="middle" x="1351.5" y="-85.8" font-family="Times,serif" font-size="14.00">Last</text>
</g>
<g id="clust13" class="cluster">
<title>clusternode_Set(58)</title>
<polygon fill="none" stroke="black" points="67,-27 67,-66 158,-66 158,-27 67,-27"/>
<text text-anchor="middle" x="112.5" y="-50.8" font-family="Times,serif" font-size="14.00">LoadAssets</text>
</g>
<g id="clust14" class="cluster">
<title>clusternode_Set(59)</title>
<polygon fill="none" stroke="black" points="1197,-39 1197,-78 1293,-78 1293,-39 1197,-39"/>
<text text-anchor="middle" x="1245" y="-62.8" font-family="Times,serif" font-size="14.00">AssetEvents</text>
</g>
<!-- set_marker_node_Set(1) -->
<!-- set_marker_node_Set(7) -->
<!-- set_marker_node_Set(1)&#45;&gt;set_marker_node_Set(7) -->
<g id="edge2" class="edge">
<title>set_marker_node_Set(1)&#45;&gt;set_marker_node_Set(7)</title>
<path fill="none" stroke="black" d="M154,-78.24C158.07,-77.87 162.3,-77.48 166.6,-77.09"/>
<polygon fill="black" stroke="black" points="166.86,-80.58 176.49,-76.18 166.22,-73.61 166.86,-80.58"/>
</g>
<!-- set_marker_node_Set(2) -->
<!-- set_marker_node_Set(8) -->
<!-- set_marker_node_Set(2)&#45;&gt;set_marker_node_Set(8) -->
<g id="edge4" class="edge">
<title>set_marker_node_Set(2)&#45;&gt;set_marker_node_Set(8)</title>
<path fill="none" stroke="black" d="M455,-70C457.83,-70 460.68,-70 463.54,-70"/>
<polygon fill="black" stroke="black" points="463.49,-73.5 473.49,-70 463.49,-66.5 463.49,-73.5"/>
</g>
<!-- set_marker_node_Set(3) -->
<!-- set_marker_node_Set(11) -->
<!-- set_marker_node_Set(3)&#45;&gt;set_marker_node_Set(11) -->
<g id="edge8" class="edge">
<title>set_marker_node_Set(3)&#45;&gt;set_marker_node_Set(11)</title>
<path fill="none" stroke="black" d="M1049,-70C1051.92,-70 1054.88,-70 1057.82,-70"/>
<polygon fill="black" stroke="black" points="1057.49,-73.5 1067.49,-70 1057.49,-66.5 1057.49,-73.5"/>
</g>
<!-- set_marker_node_Set(4) -->
<!-- set_marker_node_Set(12) -->
<!-- set_marker_node_Set(4)&#45;&gt;set_marker_node_Set(12) -->
<g id="edge10" class="edge">
<title>set_marker_node_Set(4)&#45;&gt;set_marker_node_Set(12)</title>
<path fill="none" stroke="black" d="M1290.87,-86C1296.98,-84.75 1303.16,-83.41 1309,-82 1311.97,-81.28 1315.04,-80.49 1318.11,-79.66"/>
<polygon fill="black" stroke="black" points="1318.88,-83.08 1327.55,-76.98 1316.97,-76.34 1318.88,-83.08"/>
</g>
<!-- set_marker_node_Set(5) -->
<!-- set_marker_node_Set(6) -->
<!-- set_marker_node_Set(6)&#45;&gt;set_marker_node_Set(1) -->
<g id="edge1" class="edge">
<title>set_marker_node_Set(6)&#45;&gt;set_marker_node_Set(1)</title>
<path fill="none" stroke="black" d="M47,-64.44C53.47,-66.25 60.51,-68.21 67,-70 68.18,-70.33 69.37,-70.65 70.58,-70.99"/>
<polygon fill="black" stroke="black" points="69.56,-74.34 80.13,-73.6 71.41,-67.58 69.56,-74.34"/>
</g>
<!-- set_marker_node_Set(58) -->
<!-- set_marker_node_Set(6)&#45;&gt;set_marker_node_Set(58) -->
<g id="edge13" class="edge">
<title>set_marker_node_Set(6)&#45;&gt;set_marker_node_Set(58)</title>
<path fill="none" stroke="black" d="M47,-51.92C49.97,-51.13 53.11,-50.3 56.34,-49.45"/>
<polygon fill="black" stroke="black" points="56.77,-52.96 65.54,-47.02 54.98,-46.19 56.77,-52.96"/>
</g>
<!-- set_marker_node_Set(7)&#45;&gt;set_marker_node_Set(2) -->
<g id="edge3" class="edge">
<title>set_marker_node_Set(7)&#45;&gt;set_marker_node_Set(2)</title>
<path fill="none" stroke="black" d="M312,-70C314.95,-70 317.93,-70 320.89,-70"/>
<polygon fill="black" stroke="black" points="320.49,-73.5 330.49,-70 320.49,-66.5 320.49,-73.5"/>
</g>
<!-- node_System(56) -->
<g id="node8" class="node">
<title>node_System(56)</title>
<polygon fill="none" stroke="black" points="304,-52 186,-52 186,-16 304,-16 304,-52"/>
<text text-anchor="middle" x="245" y="-30.3" font-family="Times,serif" font-size="14.00">scene_spawner</text>
</g>
<!-- set_marker_node_Set(9) -->
<!-- set_marker_node_Set(8)&#45;&gt;set_marker_node_Set(9) -->
<g id="edge5" class="edge">
<title>set_marker_node_Set(8)&#45;&gt;set_marker_node_Set(9)</title>
<path fill="none" stroke="black" d="M600,-70C602.93,-70 605.87,-70 608.8,-70"/>
<polygon fill="black" stroke="black" points="608.49,-73.5 618.49,-70 608.49,-66.5 608.49,-73.5"/>
</g>
<!-- set_marker_node_Set(10) -->
<!-- set_marker_node_Set(9)&#45;&gt;set_marker_node_Set(10) -->
<g id="edge6" class="edge">
<title>set_marker_node_Set(9)&#45;&gt;set_marker_node_Set(10)</title>
<path fill="none" stroke="black" d="M721,-70C723.8,-70 726.66,-70 729.56,-70"/>
<polygon fill="black" stroke="black" points="729.49,-73.5 739.49,-70 729.49,-66.5 729.49,-73.5"/>
</g>
<!-- set_marker_node_Set(10)&#45;&gt;set_marker_node_Set(3) -->
<g id="edge7" class="edge">
<title>set_marker_node_Set(10)&#45;&gt;set_marker_node_Set(3)</title>
<path fill="none" stroke="black" d="M928,-70C930.89,-70 933.76,-70 936.59,-70"/>
<polygon fill="black" stroke="black" points="936.49,-73.5 946.49,-70 936.49,-66.5 936.49,-73.5"/>
</g>
<!-- node_System(55) -->
<g id="node12" class="node">
<title>node_System(55)</title>
<polygon fill="none" stroke="black" points="920,-52 749,-52 749,-16 920,-16 920,-52"/>
<text text-anchor="middle" x="834.5" y="-30.3" font-family="Times,serif" font-size="14.00">scene_spawner_system</text>
</g>
<!-- set_marker_node_Set(11)&#45;&gt;set_marker_node_Set(4) -->
<g id="edge9" class="edge">
<title>set_marker_node_Set(11)&#45;&gt;set_marker_node_Set(4)</title>
<path fill="none" stroke="black" d="M1161,-78.44C1170.53,-80.22 1180.67,-82.13 1190.48,-83.96"/>
<polygon fill="black" stroke="black" points="1189.39,-87.32 1199.87,-85.72 1190.68,-80.44 1189.39,-87.32"/>
</g>
<!-- set_marker_node_Set(59) -->
<!-- set_marker_node_Set(11)&#45;&gt;set_marker_node_Set(59) -->
<g id="edge14" class="edge">
<title>set_marker_node_Set(11)&#45;&gt;set_marker_node_Set(59)</title>
<path fill="none" stroke="black" d="M1160.51,-62C1168.74,-60.52 1177.43,-58.96 1185.99,-57.42"/>
<polygon fill="black" stroke="black" points="1186.29,-60.93 1195.51,-55.71 1185.05,-54.04 1186.29,-60.93"/>
</g>
<!-- set_marker_node_Set(12)&#45;&gt;set_marker_node_Set(5) -->
<g id="edge11" class="edge">
<title>set_marker_node_Set(12)&#45;&gt;set_marker_node_Set(5)</title>
<path fill="none" stroke="black" d="M1374,-70C1376.78,-70 1379.72,-70 1382.74,-70"/>
<polygon fill="black" stroke="black" points="1382.49,-73.5 1392.49,-70 1382.49,-66.5 1382.49,-73.5"/>
</g>
<!-- set_marker_node_Set(58)&#45;&gt;set_marker_node_Set(7) -->
<g id="edge12" class="edge">
<title>set_marker_node_Set(58)&#45;&gt;set_marker_node_Set(7)</title>
<path fill="none" stroke="black" d="M158,-54.64C161.07,-55.75 164.17,-56.83 167.28,-57.83"/>
<polygon fill="black" stroke="black" points="165.97,-61.1 176.55,-60.57 167.95,-54.38 165.97,-61.1"/>
</g>
<!-- set_marker_node_Set(59)&#45;&gt;set_marker_node_Set(12) -->
<g id="edge15" class="edge">
<title>set_marker_node_Set(59)&#45;&gt;set_marker_node_Set(12)</title>
<path fill="none" stroke="black" d="M1293,-57.39C1301.38,-59.25 1309.94,-61.14 1317.79,-62.88"/>
<polygon fill="black" stroke="black" points="1317,-66.29 1327.52,-65.03 1318.52,-59.45 1317,-66.29"/>
</g>
</g>
</svg>
