<?xml version="1.0" encoding="UTF-8" standalone="no"?>
<!DOCTYPE svg PUBLIC "-//W3C//DTD SVG 1.1//EN"
 "http://www.w3.org/Graphics/SVG/1.1/DTD/svg11.dtd">
<!-- Generated by graphviz version 7.0.6 (0)
 -->
<!-- Title: schedule Pages: 1 -->
<svg width="2224pt" height="2489pt"
 viewBox="0.00 0.00 2224.00 2489.00" xmlns="http://www.w3.org/2000/svg" xmlns:xlink="http://www.w3.org/1999/xlink">
<g id="graph0" class="graph" transform="scale(1 1) rotate(0) translate(4 2485)">
<title>schedule</title>
<polygon fill="white" stroke="none" points="-4,4 -4,-2485 2220,-2485 2220,4 -4,4"/>
<g id="clust1" class="cluster">
<title>clusternode_Set(1)</title>
<polygon fill="none" stroke="black" points="516,-2380 516,-2473 693,-2473 693,-2380 516,-2380"/>
<text text-anchor="middle" x="604.5" y="-2457.8" font-family="Times,serif" font-size="14.00">FirstFlush</text>
</g>
<g id="clust2" class="cluster">
<title>clusternode_Set(2)</title>
<polygon fill="none" stroke="black" points="819,-2304 819,-2397 996,-2397 996,-2304 819,-2304"/>
<text text-anchor="middle" x="907.5" y="-2381.8" font-family="Times,serif" font-size="14.00">PreUpdateFlush</text>
</g>
<g id="clust3" class="cluster">
<title>clusternode_Set(3)</title>
<polygon fill="none" stroke="black" points="1366,-2304 1366,-2397 1543,-2397 1543,-2304 1366,-2304"/>
<text text-anchor="middle" x="1454.5" y="-2381.8" font-family="Times,serif" font-size="14.00">UpdateFlush</text>
</g>
<g id="clust4" class="cluster">
<title>clusternode_Set(4)</title>
<polygon fill="none" stroke="black" points="1769,-2373 1769,-2466 1946,-2466 1946,-2373 1769,-2373"/>
<text text-anchor="middle" x="1857.5" y="-2450.8" font-family="Times,serif" font-size="14.00">PostUpdateFlush</text>
</g>
<g id="clust5" class="cluster">
<title>clusternode_Set(5)</title>
<polygon fill="none" stroke="black" points="2031,-2322 2031,-2415 2208,-2415 2208,-2322 2031,-2322"/>
<text text-anchor="middle" x="2119.5" y="-2399.8" font-family="Times,serif" font-size="14.00">LastFlush</text>
</g>
<g id="clust6" class="cluster">
<title>clusternode_Set(6)</title>
<polygon fill="none" stroke="black" points="8,-8 8,-2423 496,-2423 496,-8 8,-8"/>
<text text-anchor="middle" x="252" y="-2407.8" font-family="Times,serif" font-size="14.00">First</text>
</g>
<g id="clust7" class="cluster">
<title>clusternode_Set(7)</title>
<polygon fill="none" stroke="black" points="713,-2358 713,-2397 799,-2397 799,-2358 713,-2358"/>
<text text-anchor="middle" x="756" y="-2381.8" font-family="Times,serif" font-size="14.00">PreUpdate</text>
</g>
<g id="clust8" class="cluster">
<title>clusternode_Set(8)</title>
<polygon fill="none" stroke="black" points="1016,-2358 1016,-2397 1141,-2397 1141,-2358 1016,-2358"/>
<text text-anchor="middle" x="1078.5" y="-2381.8" font-family="Times,serif" font-size="14.00">StateTransitions</text>
</g>
<g id="clust9" class="cluster">
<title>clusternode_Set(9)</title>
<polygon fill="none" stroke="black" points="1161,-2358 1161,-2397 1262,-2397 1262,-2358 1161,-2358"/>
<text text-anchor="middle" x="1211.5" y="-2381.8" font-family="Times,serif" font-size="14.00">FixedUpdate</text>
</g>
<g id="clust10" class="cluster">
<title>clusternode_Set(10)</title>
<polygon fill="none" stroke="black" points="1282,-2358 1282,-2397 1346,-2397 1346,-2358 1282,-2358"/>
<text text-anchor="middle" x="1314" y="-2381.8" font-family="Times,serif" font-size="14.00">Update</text>
</g>
<g id="clust11" class="cluster">
<title>clusternode_Set(11)</title>
<polygon fill="none" stroke="black" points="1563,-2264 1563,-2397 1749,-2397 1749,-2264 1563,-2264"/>
<text text-anchor="middle" x="1656" y="-2381.8" font-family="Times,serif" font-size="14.00">PostUpdate</text>
</g>
<g id="clust12" class="cluster">
<title>clusternode_Set(127)</title>
<polygon fill="none" stroke="black" points="1608,-2319 1608,-2358 1704,-2358 1704,-2319 1608,-2319"/>
<text text-anchor="middle" x="1656" y="-2342.8" font-family="Times,serif" font-size="14.00">AddClusters</text>
</g>
<g id="clust13" class="cluster">
<title>clusternode_Set(129)</title>
<polygon fill="none" stroke="black" points="1571,-2272 1571,-2311 1741,-2311 1741,-2272 1571,-2272"/>
<text text-anchor="middle" x="1656" y="-2295.8" font-family="Times,serif" font-size="14.00">AssignLightsToClusters</text>
</g>
<g id="clust14" class="cluster">
<title>clusternode_Set(12)</title>
<polygon fill="none" stroke="black" points="1966,-2376 1966,-2415 2011,-2415 2011,-2376 1966,-2376"/>
<text text-anchor="middle" x="1988.5" y="-2399.8" font-family="Times,serif" font-size="14.00">Last</text>
</g>
<g id="clust15" class="cluster">
<title>clusternode_Set(58)</title>
<polygon fill="none" stroke="black" points="559.5,-2333 559.5,-2372 650.5,-2372 650.5,-2333 559.5,-2333"/>
<text text-anchor="middle" x="605" y="-2356.8" font-family="Times,serif" font-size="14.00">LoadAssets</text>
</g>
<g id="clust16" class="cluster">
<title>clusternode_Set(59)</title>
<polygon fill="none" stroke="black" points="1809.5,-2326 1809.5,-2365 1905.5,-2365 1905.5,-2326 1809.5,-2326"/>
<text text-anchor="middle" x="1857.5" y="-2349.8" font-family="Times,serif" font-size="14.00">AssetEvents</text>
</g>
<!-- set_marker_node_Set(1) -->
<!-- set_marker_node_Set(7) -->
<!-- set_marker_node_Set(1)&#45;&gt;set_marker_node_Set(7) -->
<g id="edge2" class="edge">
<title>set_marker_node_Set(1)&#45;&gt;set_marker_node_Set(7)</title>
<path fill="none" stroke="black" d="M693,-2433C705.92,-2426.54 717.5,-2416.19 727.06,-2405.54"/>
<polygon fill="black" stroke="black" points="729.52,-2408.05 733.3,-2398.15 724.17,-2403.53 729.52,-2408.05"/>
</g>
<!-- node_System(0) -->
<g id="node2" class="node">
<title>node_System(0)</title>
<polygon fill="none" stroke="black" points="685,-2424 524,-2424 524,-2388 685,-2388 685,-2424"/>
<text text-anchor="middle" x="604.5" y="-2402.3" font-family="Times,serif" font-size="14.00">apply_system_buffers</text>
</g>
<!-- set_marker_node_Set(2) -->
<!-- set_marker_node_Set(8) -->
<!-- set_marker_node_Set(2)&#45;&gt;set_marker_node_Set(8) -->
<g id="edge4" class="edge">
<title>set_marker_node_Set(2)&#45;&gt;set_marker_node_Set(8)</title>
<path fill="none" stroke="black" d="M996,-2366C998.86,-2366 1001.71,-2366 1004.55,-2366"/>
<polygon fill="black" stroke="black" points="1004.49,-2369.5 1014.49,-2366 1004.49,-2362.5 1004.49,-2369.5"/>
</g>
<!-- node_System(1) -->
<g id="node4" class="node">
<title>node_System(1)</title>
<polygon fill="none" stroke="black" points="988,-2348 827,-2348 827,-2312 988,-2312 988,-2348"/>
<text text-anchor="middle" x="907.5" y="-2326.3" font-family="Times,serif" font-size="14.00">apply_system_buffers</text>
</g>
<!-- set_marker_node_Set(3) -->
<!-- set_marker_node_Set(11) -->
<!-- set_marker_node_Set(3)&#45;&gt;set_marker_node_Set(11) -->
<g id="edge8" class="edge">
<title>set_marker_node_Set(3)&#45;&gt;set_marker_node_Set(11)</title>
<path fill="none" stroke="black" d="M1543,-2366C1545.88,-2366 1548.78,-2366 1551.68,-2366"/>
<polygon fill="black" stroke="black" points="1551.49,-2369.5 1561.49,-2366 1551.49,-2362.5 1551.49,-2369.5"/>
</g>
<!-- node_System(2) -->
<g id="node6" class="node">
<title>node_System(2)</title>
<polygon fill="none" stroke="black" points="1535,-2348 1374,-2348 1374,-2312 1535,-2312 1535,-2348"/>
<text text-anchor="middle" x="1454.5" y="-2326.3" font-family="Times,serif" font-size="14.00">apply_system_buffers</text>
</g>
<!-- set_marker_node_Set(4) -->
<!-- set_marker_node_Set(12) -->
<!-- set_marker_node_Set(4)&#45;&gt;set_marker_node_Set(12) -->
<g id="edge10" class="edge">
<title>set_marker_node_Set(4)&#45;&gt;set_marker_node_Set(12)</title>
<path fill="none" stroke="black" d="M1946,-2426C1950.03,-2424.05 1953.89,-2421.53 1957.51,-2418.7"/>
<polygon fill="black" stroke="black" points="1959.73,-2421.41 1964.87,-2412.15 1955.08,-2416.18 1959.73,-2421.41"/>
</g>
<!-- node_System(3) -->
<g id="node8" class="node">
<title>node_System(3)</title>
<polygon fill="none" stroke="black" points="1938,-2417 1777,-2417 1777,-2381 1938,-2381 1938,-2417"/>
<text text-anchor="middle" x="1857.5" y="-2395.3" font-family="Times,serif" font-size="14.00">apply_system_buffers</text>
</g>
<!-- set_marker_node_Set(5) -->
<!-- node_System(4) -->
<g id="node10" class="node">
<title>node_System(4)</title>
<polygon fill="none" stroke="black" points="2200,-2366 2039,-2366 2039,-2330 2200,-2330 2200,-2366"/>
<text text-anchor="middle" x="2119.5" y="-2344.3" font-family="Times,serif" font-size="14.00">apply_system_buffers</text>
</g>
<!-- set_marker_node_Set(6) -->
<!-- set_marker_node_Set(6)&#45;&gt;set_marker_node_Set(1) -->
<g id="edge1" class="edge">
<title>set_marker_node_Set(6)&#45;&gt;set_marker_node_Set(1)</title>
<path fill="none" stroke="black" d="M444.19,-2423C464.48,-2425.99 484.93,-2428.89 504.75,-2431.53"/>
<polygon fill="black" stroke="black" points="504.13,-2434.97 514.5,-2432.8 505.04,-2428.03 504.13,-2434.97"/>
</g>
<!-- set_marker_node_Set(58) -->
<!-- set_marker_node_Set(6)&#45;&gt;set_marker_node_Set(58) -->
<g id="edge13" class="edge">
<title>set_marker_node_Set(6)&#45;&gt;set_marker_node_Set(58)</title>
<path fill="none" stroke="black" d="M496,-2383C499.01,-2382.38 523.81,-2372.71 548.83,-2362.81"/>
<polygon fill="black" stroke="black" points="550.09,-2366.07 558.09,-2359.13 547.51,-2359.57 550.09,-2366.07"/>
</g>
<!-- node_System(5) -->
<g id="node12" class="node">
<title>node_System(5)</title>
<polygon fill="none" stroke="black" points="367,-2374 137,-2374 137,-2338 367,-2338 367,-2374"/>
<text text-anchor="middle" x="252" y="-2352.3" font-family="Times,serif" font-size="14.00">Events&lt;AppExit&gt;update_system</text>
</g>
<!-- node_System(13) -->
<g id="node13" class="node">
<title>node_System(13)</title>
<polygon fill="none" stroke="black" points="393.5,-2320 110.5,-2320 110.5,-2284 393.5,-2284 393.5,-2320"/>
<text text-anchor="middle" x="252" y="-2298.3" font-family="Times,serif" font-size="14.00">Events&lt;HierarchyEvent&gt;update_system</text>
</g>
<!-- node_System(14) -->
<g id="node14" class="node">
<title>node_System(14)</title>
<polygon fill="none" stroke="black" points="391,-2266 113,-2266 113,-2230 391,-2230 391,-2266"/>
<text text-anchor="middle" x="252" y="-2244.3" font-family="Times,serif" font-size="14.00">Events&lt;KeyboardInput&gt;update_system</text>
</g>
<!-- node_System(16) -->
<g id="node15" class="node">
<title>node_System(16)</title>
<polygon fill="none" stroke="black" points="403.5,-2212 100.5,-2212 100.5,-2176 403.5,-2176 403.5,-2212"/>
<text text-anchor="middle" x="252" y="-2190.3" font-family="Times,serif" font-size="14.00">Events&lt;MouseButtonInput&gt;update_system</text>
</g>
<!-- node_System(17) -->
<g id="node16" class="node">
<title>node_System(17)</title>
<polygon fill="none" stroke="black" points="386.5,-2158 117.5,-2158 117.5,-2122 386.5,-2122 386.5,-2158"/>
<text text-anchor="middle" x="252" y="-2136.3" font-family="Times,serif" font-size="14.00">Events&lt;MouseMotion&gt;update_system</text>
</g>
<!-- node_System(18) -->
<g id="node17" class="node">
<title>node_System(18)</title>
<polygon fill="none" stroke="black" points="383.5,-2104 120.5,-2104 120.5,-2068 383.5,-2068 383.5,-2104"/>
<text text-anchor="middle" x="252" y="-2082.3" font-family="Times,serif" font-size="14.00">Events&lt;MouseWheel&gt;update_system</text>
</g>
<!-- node_System(20) -->
<g id="node18" class="node">
<title>node_System(20)</title>
<polygon fill="none" stroke="black" points="429.5,-2050 74.5,-2050 74.5,-2014 429.5,-2014 429.5,-2050"/>
<text text-anchor="middle" x="252" y="-2028.3" font-family="Times,serif" font-size="14.00">Events&lt;GamepadConnectionEvent&gt;update_system</text>
</g>
<!-- node_System(21) -->
<g id="node19" class="node">
<title>node_System(21)</title>
<polygon fill="none" stroke="black" points="443.5,-1996 60.5,-1996 60.5,-1960 443.5,-1960 443.5,-1996"/>
<text text-anchor="middle" x="252" y="-1974.3" font-family="Times,serif" font-size="14.00">Events&lt;GamepadButtonChangedEvent&gt;update_system</text>
</g>
<!-- node_System(22) -->
<g id="node20" class="node">
<title>node_System(22)</title>
<polygon fill="none" stroke="black" points="434.5,-1942 69.5,-1942 69.5,-1906 434.5,-1906 434.5,-1942"/>
<text text-anchor="middle" x="252" y="-1920.3" font-family="Times,serif" font-size="14.00">Events&lt;GamepadAxisChangedEvent&gt;update_system</text>
</g>
<!-- node_System(23) -->
<g id="node21" class="node">
<title>node_System(23)</title>
<polygon fill="none" stroke="black" points="391.5,-1888 112.5,-1888 112.5,-1852 391.5,-1852 391.5,-1888"/>
<text text-anchor="middle" x="252" y="-1866.3" font-family="Times,serif" font-size="14.00">Events&lt;GamepadEvent&gt;update_system</text>
</g>
<!-- node_System(28) -->
<g id="node22" class="node">
<title>node_System(28)</title>
<polygon fill="none" stroke="black" points="379,-1834 125,-1834 125,-1798 379,-1798 379,-1834"/>
<text text-anchor="middle" x="252" y="-1812.3" font-family="Times,serif" font-size="14.00">Events&lt;TouchInput&gt;update_system</text>
</g>
<!-- node_System(30) -->
<g id="node23" class="node">
<title>node_System(30)</title>
<polygon fill="none" stroke="black" points="394,-1780 110,-1780 110,-1744 394,-1744 394,-1780"/>
<text text-anchor="middle" x="252" y="-1758.3" font-family="Times,serif" font-size="14.00">Events&lt;WindowResized&gt;update_system</text>
</g>
<!-- node_System(31) -->
<g id="node24" class="node">
<title>node_System(31)</title>
<polygon fill="none" stroke="black" points="394.5,-1726 109.5,-1726 109.5,-1690 394.5,-1690 394.5,-1726"/>
<text text-anchor="middle" x="252" y="-1704.3" font-family="Times,serif" font-size="14.00">Events&lt;WindowCreated&gt;update_system</text>
</g>
<!-- node_System(32) -->
<g id="node25" class="node">
<title>node_System(32)</title>
<polygon fill="none" stroke="black" points="390,-1672 114,-1672 114,-1636 390,-1636 390,-1672"/>
<text text-anchor="middle" x="252" y="-1650.3" font-family="Times,serif" font-size="14.00">Events&lt;WindowClosed&gt;update_system</text>
</g>
<!-- node_System(33) -->
<g id="node26" class="node">
<title>node_System(33)</title>
<polygon fill="none" stroke="black" points="420,-1618 84,-1618 84,-1582 420,-1582 420,-1618"/>
<text text-anchor="middle" x="252" y="-1596.3" font-family="Times,serif" font-size="14.00">Events&lt;WindowCloseRequested&gt;update_system</text>
</g>
<!-- node_System(34) -->
<g id="node27" class="node">
<title>node_System(34)</title>
<polygon fill="none" stroke="black" points="392,-1564 112,-1564 112,-1528 392,-1528 392,-1564"/>
<text text-anchor="middle" x="252" y="-1542.3" font-family="Times,serif" font-size="14.00">Events&lt;RequestRedraw&gt;update_system</text>
</g>
<!-- node_System(35) -->
<g id="node28" class="node">
<title>node_System(35)</title>
<polygon fill="none" stroke="black" points="385.5,-1510 118.5,-1510 118.5,-1474 385.5,-1474 385.5,-1510"/>
<text text-anchor="middle" x="252" y="-1488.3" font-family="Times,serif" font-size="14.00">Events&lt;CursorMoved&gt;update_system</text>
</g>
<!-- node_System(36) -->
<g id="node29" class="node">
<title>node_System(36)</title>
<polygon fill="none" stroke="black" points="389.5,-1456 114.5,-1456 114.5,-1420 389.5,-1420 389.5,-1456"/>
<text text-anchor="middle" x="252" y="-1434.3" font-family="Times,serif" font-size="14.00">Events&lt;CursorEntered&gt;update_system</text>
</g>
<!-- node_System(37) -->
<g id="node30" class="node">
<title>node_System(37)</title>
<polygon fill="none" stroke="black" points="376,-1402 128,-1402 128,-1366 376,-1366 376,-1402"/>
<text text-anchor="middle" x="252" y="-1380.3" font-family="Times,serif" font-size="14.00">Events&lt;CursorLeft&gt;update_system</text>
</g>
<!-- node_System(38) -->
<g id="node31" class="node">
<title>node_System(38)</title>
<polygon fill="none" stroke="black" points="403,-1348 101,-1348 101,-1312 403,-1312 403,-1348"/>
<text text-anchor="middle" x="252" y="-1326.3" font-family="Times,serif" font-size="14.00">Events&lt;ReceivedCharacter&gt;update_system</text>
</g>
<!-- node_System(39) -->
<g id="node32" class="node">
<title>node_System(39)</title>
<polygon fill="none" stroke="black" points="353.5,-1294 150.5,-1294 150.5,-1258 353.5,-1258 353.5,-1294"/>
<text text-anchor="middle" x="252" y="-1272.3" font-family="Times,serif" font-size="14.00">Events&lt;Ime&gt;update_system</text>
</g>
<!-- node_System(40) -->
<g id="node33" class="node">
<title>node_System(40)</title>
<polygon fill="none" stroke="black" points="395.5,-1240 108.5,-1240 108.5,-1204 395.5,-1204 395.5,-1240"/>
<text text-anchor="middle" x="252" y="-1218.3" font-family="Times,serif" font-size="14.00">Events&lt;WindowFocused&gt;update_system</text>
</g>
<!-- node_System(41) -->
<g id="node34" class="node">
<title>node_System(41)</title>
<polygon fill="none" stroke="black" points="436,-1186 68,-1186 68,-1150 436,-1150 436,-1186"/>
<text text-anchor="middle" x="252" y="-1164.3" font-family="Times,serif" font-size="14.00">Events&lt;WindowScaleFactorChanged&gt;update_system</text>
</g>
<!-- node_System(42) -->
<g id="node35" class="node">
<title>node_System(42)</title>
<polygon fill="none" stroke="black" points="464.5,-1132 39.5,-1132 39.5,-1096 464.5,-1096 464.5,-1132"/>
<text text-anchor="middle" x="252" y="-1110.3" font-family="Times,serif" font-size="14.00">Events&lt;WindowBackendScaleFactorChanged&gt;update_system</text>
</g>
<!-- node_System(43) -->
<g id="node36" class="node">
<title>node_System(43)</title>
<polygon fill="none" stroke="black" points="399,-1078 105,-1078 105,-1042 399,-1042 399,-1078"/>
<text text-anchor="middle" x="252" y="-1056.3" font-family="Times,serif" font-size="14.00">Events&lt;FileDragAndDrop&gt;update_system</text>
</g>
<!-- node_System(44) -->
<g id="node37" class="node">
<title>node_System(44)</title>
<polygon fill="none" stroke="black" points="391.5,-1024 112.5,-1024 112.5,-988 391.5,-988 391.5,-1024"/>
<text text-anchor="middle" x="252" y="-1002.3" font-family="Times,serif" font-size="14.00">Events&lt;WindowMoved&gt;update_system</text>
</g>
<!-- node_System(51) -->
<g id="node38" class="node">
<title>node_System(51)</title>
<polygon fill="none" stroke="black" points="434,-970 70,-970 70,-934 434,-934 434,-970"/>
<text text-anchor="middle" x="252" y="-948.3" font-family="Times,serif" font-size="14.00">Events&lt;AssetEvent&lt;DynamicScene&gt;&gt;update_system</text>
</g>
<!-- node_System(54) -->
<g id="node39" class="node">
<title>node_System(54)</title>
<polygon fill="none" stroke="black" points="403.5,-916 100.5,-916 100.5,-880 403.5,-880 403.5,-916"/>
<text text-anchor="middle" x="252" y="-894.3" font-family="Times,serif" font-size="14.00">Events&lt;AssetEvent&lt;Scene&gt;&gt;update_system</text>
</g>
<!-- node_System(61) -->
<g id="node40" class="node">
<title>node_System(61)</title>
<polygon fill="none" stroke="black" points="408,-862 96,-862 96,-826 408,-826 408,-862"/>
<text text-anchor="middle" x="252" y="-840.3" font-family="Times,serif" font-size="14.00">Events&lt;AssetEvent&lt;Shader&gt;&gt;update_system</text>
</g>
<!-- node_System(74) -->
<g id="node41" class="node">
<title>node_System(74)</title>
<polygon fill="none" stroke="black" points="402.5,-808 101.5,-808 101.5,-772 402.5,-772 402.5,-808"/>
<text text-anchor="middle" x="252" y="-786.3" font-family="Times,serif" font-size="14.00">Events&lt;AssetEvent&lt;Mesh&gt;&gt;update_system</text>
</g>
<!-- node_System(77) -->
<g id="node42" class="node">
<title>node_System(77)</title>
<polygon fill="none" stroke="black" points="488,-754 16,-754 16,-718 488,-718 488,-754"/>
<text text-anchor="middle" x="252" y="-732.3" font-family="Times,serif" font-size="14.00">Events&lt;AssetEvent&lt;SkinnedMeshInverseBindposes&gt;&gt;update_system</text>
</g>
<!-- node_System(80) -->
<g id="node43" class="node">
<title>node_System(80)</title>
<polygon fill="none" stroke="black" points="405.5,-700 98.5,-700 98.5,-664 405.5,-664 405.5,-700"/>
<text text-anchor="middle" x="252" y="-678.3" font-family="Times,serif" font-size="14.00">Events&lt;AssetEvent&lt;Image&gt;&gt;update_system</text>
</g>
<!-- node_System(83) -->
<g id="node44" class="node">
<title>node_System(83)</title>
<polygon fill="none" stroke="black" points="427.5,-646 76.5,-646 76.5,-610 427.5,-610 427.5,-646"/>
<text text-anchor="middle" x="252" y="-624.3" font-family="Times,serif" font-size="14.00">Events&lt;AssetEvent&lt;TextureAtlas&gt;&gt;update_system</text>
</g>
<!-- node_System(86) -->
<g id="node45" class="node">
<title>node_System(86)</title>
<polygon fill="none" stroke="black" points="431.5,-592 72.5,-592 72.5,-556 431.5,-556 431.5,-592"/>
<text text-anchor="middle" x="252" y="-570.3" font-family="Times,serif" font-size="14.00">Events&lt;AssetEvent&lt;ColorMaterial&gt;&gt;update_system</text>
</g>
<!-- node_System(89) -->
<g id="node46" class="node">
<title>node_System(89)</title>
<polygon fill="none" stroke="black" points="399.5,-538 104.5,-538 104.5,-502 399.5,-502 399.5,-538"/>
<text text-anchor="middle" x="252" y="-516.3" font-family="Times,serif" font-size="14.00">Events&lt;AssetEvent&lt;Font&gt;&gt;update_system</text>
</g>
<!-- node_System(92) -->
<g id="node47" class="node">
<title>node_System(92)</title>
<polygon fill="none" stroke="black" points="426.5,-484 77.5,-484 77.5,-448 426.5,-448 426.5,-484"/>
<text text-anchor="middle" x="252" y="-462.3" font-family="Times,serif" font-size="14.00">Events&lt;AssetEvent&lt;FontAtlasSet&gt;&gt;update_system</text>
</g>
<!-- node_System(102) -->
<g id="node48" class="node">
<title>node_System(102)</title>
<polygon fill="none" stroke="black" points="444.5,-430 59.5,-430 59.5,-394 444.5,-394 444.5,-430"/>
<text text-anchor="middle" x="252" y="-408.3" font-family="Times,serif" font-size="14.00">Events&lt;AssetEvent&lt;StandardMaterial&gt;&gt;update_system</text>
</g>
<!-- node_System(113) -->
<g id="node49" class="node">
<title>node_System(113)</title>
<polygon fill="none" stroke="black" points="397,-376 107,-376 107,-340 397,-340 397,-376"/>
<text text-anchor="middle" x="252" y="-354.3" font-family="Times,serif" font-size="14.00">Events&lt;AssetEvent&lt;Gltf&gt;&gt;update_system</text>
</g>
<!-- node_System(116) -->
<g id="node50" class="node">
<title>node_System(116)</title>
<polygon fill="none" stroke="black" points="414,-322 90,-322 90,-286 414,-286 414,-322"/>
<text text-anchor="middle" x="252" y="-300.3" font-family="Times,serif" font-size="14.00">Events&lt;AssetEvent&lt;GltfNode&gt;&gt;update_system</text>
</g>
<!-- node_System(119) -->
<g id="node51" class="node">
<title>node_System(119)</title>
<polygon fill="none" stroke="black" points="428.5,-268 75.5,-268 75.5,-232 428.5,-232 428.5,-268"/>
<text text-anchor="middle" x="252" y="-246.3" font-family="Times,serif" font-size="14.00">Events&lt;AssetEvent&lt;GltfPrimitive&gt;&gt;update_system</text>
</g>
<!-- node_System(122) -->
<g id="node52" class="node">
<title>node_System(122)</title>
<polygon fill="none" stroke="black" points="415,-214 89,-214 89,-178 415,-178 415,-214"/>
<text text-anchor="middle" x="252" y="-192.3" font-family="Times,serif" font-size="14.00">Events&lt;AssetEvent&lt;GltfMesh&gt;&gt;update_system</text>
</g>
<!-- node_System(125) -->
<g id="node53" class="node">
<title>node_System(125)</title>
<polygon fill="none" stroke="black" points="427,-160 77,-160 77,-124 427,-124 427,-160"/>
<text text-anchor="middle" x="252" y="-138.3" font-family="Times,serif" font-size="14.00">Events&lt;AssetEvent&lt;AudioSource&gt;&gt;update_system</text>
</g>
<!-- node_System(128) -->
<g id="node54" class="node">
<title>node_System(128)</title>
<polygon fill="none" stroke="black" points="419,-106 85,-106 85,-70 419,-70 419,-106"/>
<text text-anchor="middle" x="252" y="-84.3" font-family="Times,serif" font-size="14.00">Events&lt;AssetEvent&lt;AudioSink&gt;&gt;update_system</text>
</g>
<!-- node_System(133) -->
<g id="node55" class="node">
<title>node_System(133)</title>
<polygon fill="none" stroke="black" points="433,-52 71,-52 71,-16 433,-16 433,-52"/>
<text text-anchor="middle" x="252" y="-30.3" font-family="Times,serif" font-size="14.00">Events&lt;AssetEvent&lt;AnimationClip&gt;&gt;update_system</text>
</g>
<!-- set_marker_node_Set(7)&#45;&gt;set_marker_node_Set(2) -->
<g id="edge3" class="edge">
<title>set_marker_node_Set(7)&#45;&gt;set_marker_node_Set(2)</title>
<path fill="none" stroke="black" d="M799,-2366C801.84,-2366 804.76,-2366 807.73,-2366"/>
<polygon fill="black" stroke="black" points="807.49,-2369.5 817.49,-2366 807.49,-2362.5 807.49,-2369.5"/>
</g>
<!-- set_marker_node_Set(9) -->
<!-- set_marker_node_Set(8)&#45;&gt;set_marker_node_Set(9) -->
<g id="edge5" class="edge">
<title>set_marker_node_Set(8)&#45;&gt;set_marker_node_Set(9)</title>
<path fill="none" stroke="black" d="M1141,-2366C1143.93,-2366 1146.87,-2366 1149.8,-2366"/>
<polygon fill="black" stroke="black" points="1149.49,-2369.5 1159.49,-2366 1149.49,-2362.5 1149.49,-2369.5"/>
</g>
<!-- set_marker_node_Set(10) -->
<!-- set_marker_node_Set(9)&#45;&gt;set_marker_node_Set(10) -->
<g id="edge6" class="edge">
<title>set_marker_node_Set(9)&#45;&gt;set_marker_node_Set(10)</title>
<path fill="none" stroke="black" d="M1262,-2366C1264.93,-2366 1267.87,-2366 1270.76,-2366"/>
<polygon fill="black" stroke="black" points="1270.49,-2369.5 1280.49,-2366 1270.49,-2362.5 1270.49,-2369.5"/>
</g>
<!-- set_marker_node_Set(10)&#45;&gt;set_marker_node_Set(3) -->
<g id="edge7" class="edge">
<title>set_marker_node_Set(10)&#45;&gt;set_marker_node_Set(3)</title>
<path fill="none" stroke="black" d="M1346,-2366C1348.73,-2366 1351.57,-2366 1354.5,-2366"/>
<polygon fill="black" stroke="black" points="1354.49,-2369.5 1364.49,-2366 1354.49,-2362.5 1354.49,-2369.5"/>
</g>
<!-- set_marker_node_Set(11)&#45;&gt;set_marker_node_Set(4) -->
<g id="edge9" class="edge">
<title>set_marker_node_Set(11)&#45;&gt;set_marker_node_Set(4)</title>
<path fill="none" stroke="black" d="M1704.95,-2397C1721.03,-2406.19 1739.63,-2415.59 1758.24,-2422.38"/>
<polygon fill="black" stroke="black" points="1756.97,-2425.65 1767.57,-2425.52 1759.2,-2419.01 1756.97,-2425.65"/>
</g>
<!-- set_marker_node_Set(59) -->
<!-- set_marker_node_Set(11)&#45;&gt;set_marker_node_Set(59) -->
<g id="edge14" class="edge">
<title>set_marker_node_Set(11)&#45;&gt;set_marker_node_Set(59)</title>
<path fill="none" stroke="black" d="M1749,-2362C1765.32,-2359.55 1782.75,-2355.6 1798.71,-2351.44"/>
<polygon fill="black" stroke="black" points="1799.29,-2354.91 1808.04,-2348.94 1797.48,-2348.15 1799.29,-2354.91"/>
</g>
<!-- set_marker_node_Set(127) -->
<!-- node_System(104) -->
<g id="node66" class="node">
<title>node_System(104)</title>
<polygon fill="none" stroke="black" points="1938,-2304 1777,-2304 1777,-2268 1938,-2268 1938,-2304"/>
<text text-anchor="middle" x="1857.5" y="-2282.3" font-family="Times,serif" font-size="14.00">apply_system_buffers</text>
</g>
<!-- set_marker_node_Set(127)&#45;&gt;node_System(104) -->
<g id="edge16" class="edge">
<title>set_marker_node_Set(127)&#45;&gt;node_System(104)</title>
<path fill="none" stroke="black" d="M1704,-2322.1C1718.49,-2320.26 1734.47,-2317.89 1749,-2315 1759.95,-2312.82 1771.43,-2310.15 1782.64,-2307.32"/>
<polygon fill="black" stroke="black" points="1783.47,-2310.72 1792.27,-2304.82 1781.71,-2303.94 1783.47,-2310.72"/>
</g>
<!-- set_marker_node_Set(129) -->
<!-- set_marker_node_Set(12)&#45;&gt;set_marker_node_Set(5) -->
<g id="edge11" class="edge">
<title>set_marker_node_Set(12)&#45;&gt;set_marker_node_Set(5)</title>
<path fill="none" stroke="black" d="M2011,-2384C2013.8,-2384 2016.8,-2384 2019.94,-2384"/>
<polygon fill="black" stroke="black" points="2019.49,-2387.5 2029.49,-2384 2019.49,-2380.5 2019.49,-2387.5"/>
</g>
<!-- set_marker_node_Set(58)&#45;&gt;set_marker_node_Set(7) -->
<g id="edge12" class="edge">
<title>set_marker_node_Set(58)&#45;&gt;set_marker_node_Set(7)</title>
<path fill="none" stroke="black" d="M650.5,-2348.52C666.64,-2351.22 685.01,-2354.3 701.79,-2357.1"/>
<polygon fill="black" stroke="black" points="701.07,-2360.53 711.51,-2358.73 702.22,-2353.63 701.07,-2360.53"/>
</g>
<!-- set_marker_node_Set(59)&#45;&gt;set_marker_node_Set(12) -->
<g id="edge15" class="edge">
<title>set_marker_node_Set(59)&#45;&gt;set_marker_node_Set(12)</title>
<path fill="none" stroke="black" d="M1905.5,-2352.29C1922.37,-2358.85 1940.97,-2366.09 1956.13,-2371.99"/>
<polygon fill="black" stroke="black" points="1954.45,-2375.09 1965.04,-2375.46 1956.99,-2368.57 1954.45,-2375.09"/>
</g>
<!-- node_System(104)&#45;&gt;set_marker_node_Set(129) -->
<g id="edge17" class="edge">
<title>node_System(104)&#45;&gt;set_marker_node_Set(129)</title>
<path fill="none" stroke="black" d="M1776.52,-2283.59C1768.57,-2283.36 1760.46,-2283.11 1752.37,-2282.87"/>
<polygon fill="black" stroke="black" points="1752.61,-2279.37 1742.51,-2282.57 1752.4,-2286.37 1752.61,-2279.37"/>
</g>
</g>
</svg>
