<?xml version="1.0" encoding="UTF-8" standalone="no"?>
<!DOCTYPE svg PUBLIC "-//W3C//DTD SVG 1.1//EN"
 "http://www.w3.org/Graphics/SVG/1.1/DTD/svg11.dtd">
<!-- Generated by graphviz version 7.0.6 (0)
 -->
<!-- Title: schedule Pages: 1 -->
<svg width="1378pt" height="187pt"
 viewBox="0.00 0.00 1378.00 187.00" xmlns="http://www.w3.org/2000/svg" xmlns:xlink="http://www.w3.org/1999/xlink">
<g id="graph0" class="graph" transform="scale(1 1) rotate(0) translate(4 183)">
<title>schedule</title>
<polygon fill="white" stroke="none" points="-4,4 -4,-183 1374,-183 1374,4 -4,4"/>
<g id="clust1" class="cluster">
<title>clusternode_Set(1)</title>
<polygon fill="none" stroke="black" points="70,-101 70,-140 154,-140 154,-101 70,-101"/>
<text text-anchor="middle" x="112" y="-124.8" font-family="Times,serif" font-size="14.00">FirstFlush</text>
</g>
<g id="clust2" class="cluster">
<title>clusternode_Set(2)</title>
<polygon fill="none" stroke="black" points="357,-31 357,-70 480,-70 480,-31 357,-31"/>
<text text-anchor="middle" x="418.5" y="-54.8" font-family="Times,serif" font-size="14.00">PreUpdateFlush</text>
</g>
<g id="clust3" class="cluster">
<title>clusternode_Set(3)</title>
<polygon fill="none" stroke="black" points="842,-31 842,-70 943,-70 943,-31 842,-31"/>
<text text-anchor="middle" x="892.5" y="-54.8" font-family="Times,serif" font-size="14.00">UpdateFlush</text>
</g>
<g id="clust4" class="cluster">
<title>clusternode_Set(4)</title>
<polygon fill="none" stroke="black" points="1075,-55 1075,-94 1203,-94 1203,-55 1075,-55"/>
<text text-anchor="middle" x="1139" y="-78.8" font-family="Times,serif" font-size="14.00">PostUpdateFlush</text>
</g>
<g id="clust5" class="cluster">
<title>clusternode_Set(5)</title>
<polygon fill="none" stroke="black" points="1288,-20 1288,-59 1370,-59 1370,-20 1288,-20"/>
<text text-anchor="middle" x="1329" y="-43.8" font-family="Times,serif" font-size="14.00">LastFlush</text>
</g>
<g id="clust6" class="cluster">
<title>clusternode_Set(6)</title>
<polygon fill="none" stroke="black" points="0,-77 0,-116 47,-116 47,-77 0,-77"/>
<text text-anchor="middle" x="23.5" y="-100.8" font-family="Times,serif" font-size="14.00">First</text>
</g>
<g id="clust7" class="cluster">
<title>clusternode_Set(7)</title>
<polygon fill="none" stroke="black" points="178,-78 178,-171 477,-171 477,-78 178,-78"/>
<text text-anchor="middle" x="327.5" y="-155.8" font-family="Times,serif" font-size="14.00">PreUpdate</text>
</g>
<g id="clust8" class="cluster">
<title>clusternode_Set(24)</title>
<polygon fill="none" stroke="black" points="368,-101 368,-140 469,-140 469,-101 368,-101"/>
<text text-anchor="middle" x="418.5" y="-124.8" font-family="Times,serif" font-size="14.00">InputSystem</text>
</g>
<g id="clust9" class="cluster">
<title>clusternode_Set(8)</title>
<polygon fill="none" stroke="black" points="492,-31 492,-70 617,-70 617,-31 492,-31"/>
<text text-anchor="middle" x="554.5" y="-54.8" font-family="Times,serif" font-size="14.00">StateTransitions</text>
</g>
<g id="clust10" class="cluster">
<title>clusternode_Set(9)</title>
<polygon fill="none" stroke="black" points="637,-31 637,-70 738,-70 738,-31 637,-31"/>
<text text-anchor="middle" x="687.5" y="-54.8" font-family="Times,serif" font-size="14.00">FixedUpdate</text>
</g>
<g id="clust11" class="cluster">
<title>clusternode_Set(10)</title>
<polygon fill="none" stroke="black" points="758,-31 758,-70 822,-70 822,-31 758,-31"/>
<text text-anchor="middle" x="790" y="-54.8" font-family="Times,serif" font-size="14.00">Update</text>
</g>
<g id="clust12" class="cluster">
<title>clusternode_Set(11)</title>
<polygon fill="none" stroke="black" points="963,-31 963,-70 1055,-70 1055,-31 963,-31"/>
<text text-anchor="middle" x="1009" y="-54.8" font-family="Times,serif" font-size="14.00">PostUpdate</text>
</g>
<g id="clust13" class="cluster">
<title>clusternode_Set(12)</title>
<polygon fill="none" stroke="black" points="1223,-20 1223,-59 1268,-59 1268,-20 1223,-20"/>
<text text-anchor="middle" x="1245.5" y="-43.8" font-family="Times,serif" font-size="14.00">Last</text>
</g>
<g id="clust14" class="cluster">
<title>clusternode_Set(58)</title>
<polygon fill="none" stroke="black" points="67,-54 67,-93 158,-93 158,-54 67,-54"/>
<text text-anchor="middle" x="112.5" y="-77.8" font-family="Times,serif" font-size="14.00">LoadAssets</text>
</g>
<g id="clust15" class="cluster">
<title>clusternode_Set(59)</title>
<polygon fill="none" stroke="black" points="1091,-8 1091,-47 1187,-47 1187,-8 1091,-8"/>
<text text-anchor="middle" x="1139" y="-31.8" font-family="Times,serif" font-size="14.00">AssetEvents</text>
</g>
<!-- set_marker_node_Set(1) -->
<!-- set_marker_node_Set(7) -->
<!-- set_marker_node_Set(1)&#45;&gt;set_marker_node_Set(7) -->
<g id="edge2" class="edge">
<title>set_marker_node_Set(1)&#45;&gt;set_marker_node_Set(7)</title>
<path fill="none" stroke="black" d="M147.08,-101C153.43,-99.63 160.17,-98.24 166.85,-96.98"/>
<polygon fill="black" stroke="black" points="167.27,-100.46 176.51,-95.26 166.05,-93.56 167.27,-100.46"/>
</g>
<!-- set_marker_node_Set(2) -->
<!-- set_marker_node_Set(8) -->
<!-- set_marker_node_Set(2)&#45;&gt;set_marker_node_Set(8) -->
<g id="edge4" class="edge">
<title>set_marker_node_Set(2)&#45;&gt;set_marker_node_Set(8)</title>
<path fill="none" stroke="black" d="M480,-39C480.24,-39 480.47,-39 480.71,-39"/>
<polygon fill="black" stroke="black" points="480.49,-42.5 490.49,-39 480.49,-35.5 480.49,-42.5"/>
</g>
<!-- set_marker_node_Set(3) -->
<!-- set_marker_node_Set(11) -->
<!-- set_marker_node_Set(3)&#45;&gt;set_marker_node_Set(11) -->
<g id="edge8" class="edge">
<title>set_marker_node_Set(3)&#45;&gt;set_marker_node_Set(11)</title>
<path fill="none" stroke="black" d="M943,-39C945.92,-39 948.88,-39 951.82,-39"/>
<polygon fill="black" stroke="black" points="951.49,-42.5 961.49,-39 951.49,-35.5 951.49,-42.5"/>
</g>
<!-- set_marker_node_Set(4) -->
<!-- set_marker_node_Set(12) -->
<!-- set_marker_node_Set(4)&#45;&gt;set_marker_node_Set(12) -->
<g id="edge10" class="edge">
<title>set_marker_node_Set(4)&#45;&gt;set_marker_node_Set(12)</title>
<path fill="none" stroke="black" d="M1190.11,-55C1194.52,-53.83 1198.87,-52.51 1203,-51 1206.28,-49.8 1209.61,-48.36 1212.89,-46.79"/>
<polygon fill="black" stroke="black" points="1214.43,-49.94 1221.66,-42.19 1211.18,-43.74 1214.43,-49.94"/>
</g>
<!-- set_marker_node_Set(5) -->
<!-- set_marker_node_Set(6) -->
<!-- set_marker_node_Set(6)&#45;&gt;set_marker_node_Set(1) -->
<g id="edge1" class="edge">
<title>set_marker_node_Set(6)&#45;&gt;set_marker_node_Set(1)</title>
<path fill="none" stroke="black" d="M47,-91.44C53.47,-93.25 60.51,-95.21 67,-97 68.18,-97.33 69.37,-97.65 70.58,-97.99"/>
<polygon fill="black" stroke="black" points="69.56,-101.34 80.13,-100.6 71.41,-94.58 69.56,-101.34"/>
</g>
<!-- set_marker_node_Set(58) -->
<!-- set_marker_node_Set(6)&#45;&gt;set_marker_node_Set(58) -->
<g id="edge13" class="edge">
<title>set_marker_node_Set(6)&#45;&gt;set_marker_node_Set(58)</title>
<path fill="none" stroke="black" d="M47,-78.92C49.97,-78.13 53.11,-77.3 56.34,-76.45"/>
<polygon fill="black" stroke="black" points="56.77,-79.96 65.54,-74.02 54.98,-73.19 56.77,-79.96"/>
</g>
<!-- set_marker_node_Set(7)&#45;&gt;set_marker_node_Set(2) -->
<g id="edge3" class="edge">
<title>set_marker_node_Set(7)&#45;&gt;set_marker_node_Set(2)</title>
<path fill="none" stroke="black" d="M285.46,-78C302.21,-73.04 324.58,-66.4 346.12,-60.02"/>
<polygon fill="black" stroke="black" points="346.96,-63.42 355.55,-57.22 344.97,-56.71 346.96,-63.42"/>
</g>
<!-- set_marker_node_Set(24) -->
<!-- node_System(130) -->
<g id="node9" class="node">
<title>node_System(130)</title>
<polygon fill="none" stroke="black" points="329,-140 186,-140 186,-104 329,-104 329,-140"/>
<text text-anchor="middle" x="257.5" y="-118.3" font-family="Times,serif" font-size="14.00">gilrs_event_system</text>
</g>
<!-- node_System(130)&#45;&gt;set_marker_node_Set(24) -->
<g id="edge16" class="edge">
<title>node_System(130)&#45;&gt;set_marker_node_Set(24)</title>
<path fill="none" stroke="black" d="M329.41,-116.18C338.47,-115.44 347.69,-114.69 356.56,-113.96"/>
<polygon fill="black" stroke="black" points="356.81,-117.45 366.5,-113.14 356.24,-110.47 356.81,-117.45"/>
</g>
<!-- set_marker_node_Set(9) -->
<!-- set_marker_node_Set(8)&#45;&gt;set_marker_node_Set(9) -->
<g id="edge5" class="edge">
<title>set_marker_node_Set(8)&#45;&gt;set_marker_node_Set(9)</title>
<path fill="none" stroke="black" d="M617,-39C619.93,-39 622.87,-39 625.8,-39"/>
<polygon fill="black" stroke="black" points="625.49,-42.5 635.49,-39 625.49,-35.5 625.49,-42.5"/>
</g>
<!-- set_marker_node_Set(10) -->
<!-- set_marker_node_Set(9)&#45;&gt;set_marker_node_Set(10) -->
<g id="edge6" class="edge">
<title>set_marker_node_Set(9)&#45;&gt;set_marker_node_Set(10)</title>
<path fill="none" stroke="black" d="M738,-39C740.93,-39 743.87,-39 746.76,-39"/>
<polygon fill="black" stroke="black" points="746.49,-42.5 756.49,-39 746.49,-35.5 746.49,-42.5"/>
</g>
<!-- set_marker_node_Set(10)&#45;&gt;set_marker_node_Set(3) -->
<g id="edge7" class="edge">
<title>set_marker_node_Set(10)&#45;&gt;set_marker_node_Set(3)</title>
<path fill="none" stroke="black" d="M822,-39C824.78,-39 827.64,-39 830.56,-39"/>
<polygon fill="black" stroke="black" points="830.49,-42.5 840.49,-39 830.49,-35.5 830.49,-42.5"/>
</g>
<!-- set_marker_node_Set(11)&#45;&gt;set_marker_node_Set(4) -->
<g id="edge9" class="edge">
<title>set_marker_node_Set(11)&#45;&gt;set_marker_node_Set(4)</title>
<path fill="none" stroke="black" d="M1055,-47.44C1064.53,-49.22 1074.67,-51.13 1084.48,-52.96"/>
<polygon fill="black" stroke="black" points="1083.39,-56.32 1093.87,-54.72 1084.68,-49.44 1083.39,-56.32"/>
</g>
<!-- set_marker_node_Set(59) -->
<!-- set_marker_node_Set(11)&#45;&gt;set_marker_node_Set(59) -->
<g id="edge14" class="edge">
<title>set_marker_node_Set(11)&#45;&gt;set_marker_node_Set(59)</title>
<path fill="none" stroke="black" d="M1054.51,-31C1062.74,-29.52 1071.43,-27.96 1079.99,-26.42"/>
<polygon fill="black" stroke="black" points="1080.29,-29.93 1089.51,-24.71 1079.05,-23.04 1080.29,-29.93"/>
</g>
<!-- set_marker_node_Set(12)&#45;&gt;set_marker_node_Set(5) -->
<g id="edge11" class="edge">
<title>set_marker_node_Set(12)&#45;&gt;set_marker_node_Set(5)</title>
<path fill="none" stroke="black" d="M1268,-28C1270.78,-28 1273.72,-28 1276.74,-28"/>
<polygon fill="black" stroke="black" points="1276.49,-31.5 1286.49,-28 1276.49,-24.5 1276.49,-31.5"/>
</g>
<!-- set_marker_node_Set(58)&#45;&gt;set_marker_node_Set(7) -->
<g id="edge12" class="edge">
<title>set_marker_node_Set(58)&#45;&gt;set_marker_node_Set(7)</title>
<path fill="none" stroke="black" d="M158,-69.53C170.51,-71.62 184.29,-73.92 197.47,-76.13"/>
<polygon fill="black" stroke="black" points="196.74,-79.55 207.18,-77.75 197.89,-72.65 196.74,-79.55"/>
</g>
<!-- set_marker_node_Set(59)&#45;&gt;set_marker_node_Set(12) -->
<g id="edge15" class="edge">
<title>set_marker_node_Set(59)&#45;&gt;set_marker_node_Set(12)</title>
<path fill="none" stroke="black" d="M1187,-21.42C1195.38,-22.39 1203.94,-23.38 1211.79,-24.28"/>
<polygon fill="black" stroke="black" points="1211.16,-27.73 1221.5,-25.4 1211.97,-20.78 1211.16,-27.73"/>
</g>
</g>
</svg>
