<?xml version="1.0" encoding="UTF-8" standalone="no"?>
<!DOCTYPE svg PUBLIC "-//W3C//DTD SVG 1.1//EN"
 "http://www.w3.org/Graphics/SVG/1.1/DTD/svg11.dtd">
<!-- Generated by graphviz version 7.0.6 (0)
 -->
<!-- Title: schedule Pages: 1 -->
<svg width="1675pt" height="398pt"
 viewBox="0.00 0.00 1675.00 398.00" xmlns="http://www.w3.org/2000/svg" xmlns:xlink="http://www.w3.org/1999/xlink">
<g id="graph0" class="graph" transform="scale(1 1) rotate(0) translate(4 394)">
<title>schedule</title>
<polygon fill="white" stroke="none" points="-4,4 -4,-394 1671,-394 1671,4 -4,4"/>
<g id="clust1" class="cluster">
<title>clusternode_Set(1)</title>
<polygon fill="none" stroke="black" points="70,-101 70,-140 154,-140 154,-101 70,-101"/>
<text text-anchor="middle" x="112" y="-124.8" font-family="Times,serif" font-size="14.00">FirstFlush</text>
</g>
<g id="clust2" class="cluster">
<title>clusternode_Set(2)</title>
<polygon fill="none" stroke="black" points="476,-31 476,-70 599,-70 599,-31 476,-31"/>
<text text-anchor="middle" x="537.5" y="-54.8" font-family="Times,serif" font-size="14.00">PreUpdateFlush</text>
</g>
<g id="clust3" class="cluster">
<title>clusternode_Set(3)</title>
<polygon fill="none" stroke="black" points="1139,-31 1139,-70 1240,-70 1240,-31 1139,-31"/>
<text text-anchor="middle" x="1189.5" y="-54.8" font-family="Times,serif" font-size="14.00">UpdateFlush</text>
</g>
<g id="clust4" class="cluster">
<title>clusternode_Set(4)</title>
<polygon fill="none" stroke="black" points="1372,-55 1372,-94 1500,-94 1500,-55 1372,-55"/>
<text text-anchor="middle" x="1436" y="-78.8" font-family="Times,serif" font-size="14.00">PostUpdateFlush</text>
</g>
<g id="clust5" class="cluster">
<title>clusternode_Set(5)</title>
<polygon fill="none" stroke="black" points="1585,-20 1585,-59 1667,-59 1667,-20 1585,-20"/>
<text text-anchor="middle" x="1626" y="-43.8" font-family="Times,serif" font-size="14.00">LastFlush</text>
</g>
<g id="clust6" class="cluster">
<title>clusternode_Set(6)</title>
<polygon fill="none" stroke="black" points="0,-77 0,-116 47,-116 47,-77 0,-77"/>
<text text-anchor="middle" x="23.5" y="-100.8" font-family="Times,serif" font-size="14.00">First</text>
</g>
<g id="clust7" class="cluster">
<title>clusternode_Set(7)</title>
<polygon fill="none" stroke="black" points="170,-78 170,-382 922,-382 922,-78 170,-78"/>
<text text-anchor="middle" x="546" y="-366.8" font-family="Times,serif" font-size="14.00">PreUpdate</text>
</g>
<g id="clust8" class="cluster">
<title>clusternode_Set(24)</title>
<polygon fill="none" stroke="black" points="178,-96 178,-351 914,-351 914,-96 178,-96"/>
<text text-anchor="middle" x="546" y="-335.8" font-family="Times,serif" font-size="14.00">InputSystem</text>
</g>
<g id="clust9" class="cluster">
<title>clusternode_Set(8)</title>
<polygon fill="none" stroke="black" points="730.5,-31 730.5,-70 855.5,-70 855.5,-31 730.5,-31"/>
<text text-anchor="middle" x="793" y="-54.8" font-family="Times,serif" font-size="14.00">StateTransitions</text>
</g>
<g id="clust10" class="cluster">
<title>clusternode_Set(9)</title>
<polygon fill="none" stroke="black" points="934,-31 934,-70 1035,-70 1035,-31 934,-31"/>
<text text-anchor="middle" x="984.5" y="-54.8" font-family="Times,serif" font-size="14.00">FixedUpdate</text>
</g>
<g id="clust11" class="cluster">
<title>clusternode_Set(10)</title>
<polygon fill="none" stroke="black" points="1055,-31 1055,-70 1119,-70 1119,-31 1055,-31"/>
<text text-anchor="middle" x="1087" y="-54.8" font-family="Times,serif" font-size="14.00">Update</text>
</g>
<g id="clust12" class="cluster">
<title>clusternode_Set(11)</title>
<polygon fill="none" stroke="black" points="1260,-31 1260,-70 1352,-70 1352,-31 1260,-31"/>
<text text-anchor="middle" x="1306" y="-54.8" font-family="Times,serif" font-size="14.00">PostUpdate</text>
</g>
<g id="clust13" class="cluster">
<title>clusternode_Set(12)</title>
<polygon fill="none" stroke="black" points="1520,-20 1520,-59 1565,-59 1565,-20 1520,-20"/>
<text text-anchor="middle" x="1542.5" y="-43.8" font-family="Times,serif" font-size="14.00">Last</text>
</g>
<g id="clust14" class="cluster">
<title>clusternode_Set(58)</title>
<polygon fill="none" stroke="black" points="67,-54 67,-93 158,-93 158,-54 67,-54"/>
<text text-anchor="middle" x="112.5" y="-77.8" font-family="Times,serif" font-size="14.00">LoadAssets</text>
</g>
<g id="clust15" class="cluster">
<title>clusternode_Set(59)</title>
<polygon fill="none" stroke="black" points="1388,-8 1388,-47 1484,-47 1484,-8 1388,-8"/>
<text text-anchor="middle" x="1436" y="-31.8" font-family="Times,serif" font-size="14.00">AssetEvents</text>
</g>
<!-- set_marker_node_Set(1) -->
<!-- set_marker_node_Set(7) -->
<!-- set_marker_node_Set(1)&#45;&gt;set_marker_node_Set(7) -->
<g id="edge2" class="edge">
<title>set_marker_node_Set(1)&#45;&gt;set_marker_node_Set(7)</title>
<path fill="none" stroke="black" d="M145.11,-101C149.47,-99.75 153.87,-98.41 158,-97 158.51,-96.83 158.99,-96.65 159.43,-96.48"/>
<polygon fill="black" stroke="black" points="160.76,-99.71 168.61,-92.59 158.03,-93.27 160.76,-99.71"/>
</g>
<!-- set_marker_node_Set(2) -->
<!-- set_marker_node_Set(8) -->
<!-- set_marker_node_Set(2)&#45;&gt;set_marker_node_Set(8) -->
<g id="edge4" class="edge">
<title>set_marker_node_Set(2)&#45;&gt;set_marker_node_Set(8)</title>
<path fill="none" stroke="black" d="M599,-39C635.22,-39 681.34,-39 719.36,-39"/>
<polygon fill="black" stroke="black" points="718.99,-42.5 728.99,-39 718.99,-35.5 718.99,-42.5"/>
</g>
<!-- set_marker_node_Set(3) -->
<!-- set_marker_node_Set(11) -->
<!-- set_marker_node_Set(3)&#45;&gt;set_marker_node_Set(11) -->
<g id="edge8" class="edge">
<title>set_marker_node_Set(3)&#45;&gt;set_marker_node_Set(11)</title>
<path fill="none" stroke="black" d="M1240,-39C1242.92,-39 1245.88,-39 1248.82,-39"/>
<polygon fill="black" stroke="black" points="1248.49,-42.5 1258.49,-39 1248.49,-35.5 1248.49,-42.5"/>
</g>
<!-- set_marker_node_Set(4) -->
<!-- set_marker_node_Set(12) -->
<!-- set_marker_node_Set(4)&#45;&gt;set_marker_node_Set(12) -->
<g id="edge10" class="edge">
<title>set_marker_node_Set(4)&#45;&gt;set_marker_node_Set(12)</title>
<path fill="none" stroke="black" d="M1487.11,-55C1491.52,-53.83 1495.87,-52.51 1500,-51 1503.28,-49.8 1506.61,-48.36 1509.89,-46.79"/>
<polygon fill="black" stroke="black" points="1511.43,-49.94 1518.66,-42.19 1508.18,-43.74 1511.43,-49.94"/>
</g>
<!-- set_marker_node_Set(5) -->
<!-- set_marker_node_Set(6) -->
<!-- set_marker_node_Set(6)&#45;&gt;set_marker_node_Set(1) -->
<g id="edge1" class="edge">
<title>set_marker_node_Set(6)&#45;&gt;set_marker_node_Set(1)</title>
<path fill="none" stroke="black" d="M47,-91.44C53.47,-93.25 60.51,-95.21 67,-97 68.18,-97.33 69.37,-97.65 70.58,-97.99"/>
<polygon fill="black" stroke="black" points="69.56,-101.34 80.13,-100.6 71.41,-94.58 69.56,-101.34"/>
</g>
<!-- set_marker_node_Set(58) -->
<!-- set_marker_node_Set(6)&#45;&gt;set_marker_node_Set(58) -->
<g id="edge18" class="edge">
<title>set_marker_node_Set(6)&#45;&gt;set_marker_node_Set(58)</title>
<path fill="none" stroke="black" d="M47,-78.92C49.97,-78.13 53.11,-77.3 56.34,-76.45"/>
<polygon fill="black" stroke="black" points="56.77,-79.96 65.54,-74.02 54.98,-73.19 56.77,-79.96"/>
</g>
<!-- set_marker_node_Set(7)&#45;&gt;set_marker_node_Set(2) -->
<g id="edge3" class="edge">
<title>set_marker_node_Set(7)&#45;&gt;set_marker_node_Set(2)</title>
<path fill="none" stroke="black" d="M333.11,-78C369.15,-71.07 422.07,-60.9 464.82,-52.68"/>
<polygon fill="black" stroke="black" points="465.36,-56.14 474.52,-50.82 464.04,-49.27 465.36,-56.14"/>
</g>
<!-- set_marker_node_Set(24) -->
<!-- node_System(15) -->
<g id="node9" class="node">
<title>node_System(15)</title>
<polygon fill="none" stroke="black" points="378.5,-302 202.5,-302 202.5,-266 378.5,-266 378.5,-302"/>
<text text-anchor="middle" x="290.5" y="-280.3" font-family="Times,serif" font-size="14.00">keyboard_input_system</text>
</g>
<!-- node_System(19) -->
<g id="node10" class="node">
<title>node_System(19)</title>
<polygon fill="none" stroke="black" points="395,-248 186,-248 186,-212 395,-212 395,-248"/>
<text text-anchor="middle" x="290.5" y="-226.3" font-family="Times,serif" font-size="14.00">mouse_button_input_system</text>
</g>
<!-- node_System(24) -->
<g id="node11" class="node">
<title>node_System(24)</title>
<polygon fill="none" stroke="black" points="378.5,-194 202.5,-194 202.5,-158 378.5,-158 378.5,-194"/>
<text text-anchor="middle" x="290.5" y="-172.3" font-family="Times,serif" font-size="14.00">gamepad_event_system</text>
</g>
<!-- node_System(25) -->
<g id="node12" class="node">
<title>node_System(25)</title>
<polygon fill="none" stroke="black" points="643,-194 431,-194 431,-158 643,-158 643,-194"/>
<text text-anchor="middle" x="537" y="-172.3" font-family="Times,serif" font-size="14.00">gamepad_connection_system</text>
</g>
<!-- node_System(24)&#45;&gt;node_System(25) -->
<g id="edge12" class="edge">
<title>node_System(24)&#45;&gt;node_System(25)</title>
<path fill="none" stroke="black" d="M378.73,-176C391.91,-176 405.68,-176 419.36,-176"/>
<polygon fill="black" stroke="black" points="419.3,-179.5 429.3,-176 419.3,-172.5 419.3,-179.5"/>
</g>
<!-- node_System(26) -->
<g id="node13" class="node">
<title>node_System(26)</title>
<polygon fill="none" stroke="black" points="906,-167 679,-167 679,-131 906,-131 906,-167"/>
<text text-anchor="middle" x="792.5" y="-145.3" font-family="Times,serif" font-size="14.00">gamepad_button_event_system</text>
</g>
<!-- node_System(24)&#45;&gt;node_System(26) -->
<g id="edge13" class="edge">
<title>node_System(24)&#45;&gt;node_System(26)</title>
<path fill="none" stroke="black" d="M373,-157.52C391.94,-153.98 412.09,-150.81 431,-149 509.34,-141.49 597.7,-141.36 667.34,-143.17"/>
<polygon fill="black" stroke="black" points="667.18,-146.66 677.28,-143.44 667.38,-139.67 667.18,-146.66"/>
</g>
<!-- node_System(27) -->
<g id="node14" class="node">
<title>node_System(27)</title>
<polygon fill="none" stroke="black" points="897,-226 688,-226 688,-190 897,-190 897,-226"/>
<text text-anchor="middle" x="792.5" y="-204.3" font-family="Times,serif" font-size="14.00">gamepad_axis_event_system</text>
</g>
<!-- node_System(24)&#45;&gt;node_System(27) -->
<g id="edge15" class="edge">
<title>node_System(24)&#45;&gt;node_System(27)</title>
<path fill="none" stroke="black" d="M374.13,-194.5C392.74,-197.96 412.47,-201.09 431,-203 512.86,-211.42 605.71,-212.51 676.68,-211.58"/>
<polygon fill="black" stroke="black" points="676.42,-215.08 686.37,-211.44 676.32,-208.09 676.42,-215.08"/>
</g>
<!-- node_System(25)&#45;&gt;node_System(26) -->
<g id="edge14" class="edge">
<title>node_System(25)&#45;&gt;node_System(26)</title>
<path fill="none" stroke="black" d="M643.3,-164.78C651.26,-163.94 659.32,-163.08 667.38,-162.22"/>
<polygon fill="black" stroke="black" points="667.66,-165.71 677.23,-161.17 666.92,-158.75 667.66,-165.71"/>
</g>
<!-- node_System(25)&#45;&gt;node_System(27) -->
<g id="edge16" class="edge">
<title>node_System(25)&#45;&gt;node_System(27)</title>
<path fill="none" stroke="black" d="M643.3,-189.29C654.21,-190.67 665.33,-192.07 676.33,-193.46"/>
<polygon fill="black" stroke="black" points="675.88,-196.93 686.24,-194.71 676.76,-189.99 675.88,-196.93"/>
</g>
<!-- node_System(29) -->
<g id="node15" class="node">
<title>node_System(29)</title>
<polygon fill="none" stroke="black" points="391,-140 190,-140 190,-104 391,-104 391,-140"/>
<text text-anchor="middle" x="290.5" y="-118.3" font-family="Times,serif" font-size="14.00">touch_screen_input_system</text>
</g>
<!-- set_marker_node_Set(9) -->
<!-- set_marker_node_Set(8)&#45;&gt;set_marker_node_Set(9) -->
<g id="edge5" class="edge">
<title>set_marker_node_Set(8)&#45;&gt;set_marker_node_Set(9)</title>
<path fill="none" stroke="black" d="M855.5,-39C877.1,-39 901.29,-39 922.75,-39"/>
<polygon fill="black" stroke="black" points="922.49,-42.5 932.49,-39 922.49,-35.5 922.49,-42.5"/>
</g>
<!-- set_marker_node_Set(10) -->
<!-- set_marker_node_Set(9)&#45;&gt;set_marker_node_Set(10) -->
<g id="edge6" class="edge">
<title>set_marker_node_Set(9)&#45;&gt;set_marker_node_Set(10)</title>
<path fill="none" stroke="black" d="M1035,-39C1037.93,-39 1040.87,-39 1043.76,-39"/>
<polygon fill="black" stroke="black" points="1043.49,-42.5 1053.49,-39 1043.49,-35.5 1043.49,-42.5"/>
</g>
<!-- set_marker_node_Set(10)&#45;&gt;set_marker_node_Set(3) -->
<g id="edge7" class="edge">
<title>set_marker_node_Set(10)&#45;&gt;set_marker_node_Set(3)</title>
<path fill="none" stroke="black" d="M1119,-39C1121.78,-39 1124.64,-39 1127.56,-39"/>
<polygon fill="black" stroke="black" points="1127.49,-42.5 1137.49,-39 1127.49,-35.5 1127.49,-42.5"/>
</g>
<!-- set_marker_node_Set(11)&#45;&gt;set_marker_node_Set(4) -->
<g id="edge9" class="edge">
<title>set_marker_node_Set(11)&#45;&gt;set_marker_node_Set(4)</title>
<path fill="none" stroke="black" d="M1352,-47.44C1361.53,-49.22 1371.67,-51.13 1381.48,-52.96"/>
<polygon fill="black" stroke="black" points="1380.39,-56.32 1390.87,-54.72 1381.68,-49.44 1380.39,-56.32"/>
</g>
<!-- set_marker_node_Set(59) -->
<!-- set_marker_node_Set(11)&#45;&gt;set_marker_node_Set(59) -->
<g id="edge19" class="edge">
<title>set_marker_node_Set(11)&#45;&gt;set_marker_node_Set(59)</title>
<path fill="none" stroke="black" d="M1351.51,-31C1359.74,-29.52 1368.43,-27.96 1376.99,-26.42"/>
<polygon fill="black" stroke="black" points="1377.29,-29.93 1386.51,-24.71 1376.05,-23.04 1377.29,-29.93"/>
</g>
<!-- set_marker_node_Set(12)&#45;&gt;set_marker_node_Set(5) -->
<g id="edge11" class="edge">
<title>set_marker_node_Set(12)&#45;&gt;set_marker_node_Set(5)</title>
<path fill="none" stroke="black" d="M1565,-28C1567.78,-28 1570.72,-28 1573.74,-28"/>
<polygon fill="black" stroke="black" points="1573.49,-31.5 1583.49,-28 1573.49,-24.5 1573.49,-31.5"/>
</g>
<!-- set_marker_node_Set(58)&#45;&gt;set_marker_node_Set(7) -->
<g id="edge17" class="edge">
<title>set_marker_node_Set(58)&#45;&gt;set_marker_node_Set(7)</title>
<path fill="none" stroke="black" d="M158,-68.12C176.62,-70.65 198.67,-73.65 219.33,-76.46"/>
<polygon fill="black" stroke="black" points="218.79,-79.92 229.17,-77.8 219.73,-72.98 218.79,-79.92"/>
</g>
<!-- set_marker_node_Set(59)&#45;&gt;set_marker_node_Set(12) -->
<g id="edge20" class="edge">
<title>set_marker_node_Set(59)&#45;&gt;set_marker_node_Set(12)</title>
<path fill="none" stroke="black" d="M1484,-21.42C1492.38,-22.39 1500.94,-23.38 1508.79,-24.28"/>
<polygon fill="black" stroke="black" points="1508.16,-27.73 1518.5,-25.4 1508.97,-20.78 1508.16,-27.73"/>
</g>
</g>
</svg>
