<?xml version="1.0" encoding="UTF-8" standalone="no"?>
<!DOCTYPE svg PUBLIC "-//W3C//DTD SVG 1.1//EN"
 "http://www.w3.org/Graphics/SVG/1.1/DTD/svg11.dtd">
<!-- Generated by graphviz version 7.0.6 (0)
 -->
<!-- Title: schedule Pages: 1 -->
<svg width="1503pt" height="152pt"
 viewBox="0.00 0.00 1503.00 152.00" xmlns="http://www.w3.org/2000/svg" xmlns:xlink="http://www.w3.org/1999/xlink">
<g id="graph0" class="graph" transform="scale(1 1) rotate(0) translate(4 148)">
<title>schedule</title>
<polygon fill="white" stroke="none" points="-4,4 -4,-148 1499,-148 1499,4 -4,4"/>
<g id="clust1" class="cluster">
<title>clusternode_Set(1)</title>
<polygon fill="none" stroke="black" points="198,-85 198,-124 282,-124 282,-85 198,-85"/>
<text text-anchor="middle" x="240" y="-108.8" font-family="Times,serif" font-size="14.00">FirstFlush</text>
</g>
<g id="clust2" class="cluster">
<title>clusternode_Set(2)</title>
<polygon fill="none" stroke="black" points="412,-62 412,-101 535,-101 535,-62 412,-62"/>
<text text-anchor="middle" x="473.5" y="-85.8" font-family="Times,serif" font-size="14.00">PreUpdateFlush</text>
</g>
<g id="clust3" class="cluster">
<title>clusternode_Set(3)</title>
<polygon fill="none" stroke="black" points="905,-62 905,-101 1006,-101 1006,-62 905,-62"/>
<text text-anchor="middle" x="955.5" y="-85.8" font-family="Times,serif" font-size="14.00">UpdateFlush</text>
</g>
<g id="clust4" class="cluster">
<title>clusternode_Set(4)</title>
<polygon fill="none" stroke="black" points="1200,-73 1200,-112 1328,-112 1328,-73 1200,-73"/>
<text text-anchor="middle" x="1264" y="-96.8" font-family="Times,serif" font-size="14.00">PostUpdateFlush</text>
</g>
<g id="clust5" class="cluster">
<title>clusternode_Set(5)</title>
<polygon fill="none" stroke="black" points="1413,-49 1413,-88 1495,-88 1495,-49 1413,-49"/>
<text text-anchor="middle" x="1454" y="-72.8" font-family="Times,serif" font-size="14.00">LastFlush</text>
</g>
<g id="clust6" class="cluster">
<title>clusternode_Set(6)</title>
<polygon fill="none" stroke="black" points="60.5,-61 60.5,-100 107.5,-100 107.5,-61 60.5,-61"/>
<text text-anchor="middle" x="84" y="-84.8" font-family="Times,serif" font-size="14.00">First</text>
</g>
<g id="clust7" class="cluster">
<title>clusternode_Set(7)</title>
<polygon fill="none" stroke="black" points="306,-62 306,-101 392,-101 392,-62 306,-62"/>
<text text-anchor="middle" x="349" y="-85.8" font-family="Times,serif" font-size="14.00">PreUpdate</text>
</g>
<g id="clust8" class="cluster">
<title>clusternode_Set(8)</title>
<polygon fill="none" stroke="black" points="555,-62 555,-101 680,-101 680,-62 555,-62"/>
<text text-anchor="middle" x="617.5" y="-85.8" font-family="Times,serif" font-size="14.00">StateTransitions</text>
</g>
<g id="clust9" class="cluster">
<title>clusternode_Set(9)</title>
<polygon fill="none" stroke="black" points="700,-62 700,-101 801,-101 801,-62 700,-62"/>
<text text-anchor="middle" x="750.5" y="-85.8" font-family="Times,serif" font-size="14.00">FixedUpdate</text>
</g>
<g id="clust10" class="cluster">
<title>clusternode_Set(10)</title>
<polygon fill="none" stroke="black" points="821,-62 821,-101 885,-101 885,-62 821,-62"/>
<text text-anchor="middle" x="853" y="-85.8" font-family="Times,serif" font-size="14.00">Update</text>
</g>
<g id="clust11" class="cluster">
<title>clusternode_Set(11)</title>
<polygon fill="none" stroke="black" points="1026,-8 1026,-101 1180,-101 1180,-8 1026,-8"/>
<text text-anchor="middle" x="1103" y="-85.8" font-family="Times,serif" font-size="14.00">PostUpdate</text>
</g>
<g id="clust12" class="cluster">
<title>clusternode_Set(12)</title>
<polygon fill="none" stroke="black" points="1348,-49 1348,-88 1393,-88 1393,-49 1348,-49"/>
<text text-anchor="middle" x="1370.5" y="-72.8" font-family="Times,serif" font-size="14.00">Last</text>
</g>
<g id="clust13" class="cluster">
<title>clusternode_Set(58)</title>
<polygon fill="none" stroke="black" points="195,-38 195,-77 286,-77 286,-38 195,-38"/>
<text text-anchor="middle" x="240.5" y="-61.8" font-family="Times,serif" font-size="14.00">LoadAssets</text>
</g>
<g id="clust14" class="cluster">
<title>clusternode_Set(59)</title>
<polygon fill="none" stroke="black" points="1216,-26 1216,-65 1312,-65 1312,-26 1216,-26"/>
<text text-anchor="middle" x="1264" y="-49.8" font-family="Times,serif" font-size="14.00">AssetEvents</text>
</g>
<!-- set_marker_node_Set(1) -->
<!-- set_marker_node_Set(7) -->
<!-- set_marker_node_Set(1)&#45;&gt;set_marker_node_Set(7) -->
<g id="edge2" class="edge">
<title>set_marker_node_Set(1)&#45;&gt;set_marker_node_Set(7)</title>
<path fill="none" stroke="black" d="M278.21,-85C283.62,-83.84 289.27,-82.62 294.92,-81.41"/>
<polygon fill="black" stroke="black" points="295.48,-84.87 304.53,-79.35 294.01,-78.02 295.48,-84.87"/>
</g>
<!-- set_marker_node_Set(2) -->
<!-- set_marker_node_Set(8) -->
<!-- set_marker_node_Set(2)&#45;&gt;set_marker_node_Set(8) -->
<g id="edge4" class="edge">
<title>set_marker_node_Set(2)&#45;&gt;set_marker_node_Set(8)</title>
<path fill="none" stroke="black" d="M535,-70C537.83,-70 540.68,-70 543.54,-70"/>
<polygon fill="black" stroke="black" points="543.49,-73.5 553.49,-70 543.49,-66.5 543.49,-73.5"/>
</g>
<!-- set_marker_node_Set(3) -->
<!-- set_marker_node_Set(11) -->
<!-- set_marker_node_Set(3)&#45;&gt;set_marker_node_Set(11) -->
<g id="edge8" class="edge">
<title>set_marker_node_Set(3)&#45;&gt;set_marker_node_Set(11)</title>
<path fill="none" stroke="black" d="M1006,-70C1008.89,-70 1011.83,-70 1014.81,-70"/>
<polygon fill="black" stroke="black" points="1014.49,-73.5 1024.49,-70 1014.49,-66.5 1014.49,-73.5"/>
</g>
<!-- set_marker_node_Set(4) -->
<!-- set_marker_node_Set(12) -->
<!-- set_marker_node_Set(4)&#45;&gt;set_marker_node_Set(12) -->
<g id="edge10" class="edge">
<title>set_marker_node_Set(4)&#45;&gt;set_marker_node_Set(12)</title>
<path fill="none" stroke="black" d="M1309.87,-73C1315.98,-71.75 1322.16,-70.41 1328,-69 1330.97,-68.28 1334.04,-67.49 1337.11,-66.66"/>
<polygon fill="black" stroke="black" points="1337.88,-70.08 1346.55,-63.98 1335.97,-63.34 1337.88,-70.08"/>
</g>
<!-- set_marker_node_Set(5) -->
<!-- set_marker_node_Set(6) -->
<!-- set_marker_node_Set(6)&#45;&gt;set_marker_node_Set(1) -->
<g id="edge1" class="edge">
<title>set_marker_node_Set(6)&#45;&gt;set_marker_node_Set(1)</title>
<path fill="none" stroke="black" d="M107.5,-72.57C128.31,-75.8 159.72,-80.68 186.63,-84.86"/>
<polygon fill="black" stroke="black" points="186.09,-88.32 196.51,-86.4 187.16,-81.41 186.09,-88.32"/>
</g>
<!-- set_marker_node_Set(58) -->
<!-- set_marker_node_Set(6)&#45;&gt;set_marker_node_Set(58) -->
<g id="edge13" class="edge">
<title>set_marker_node_Set(6)&#45;&gt;set_marker_node_Set(58)</title>
<path fill="none" stroke="black" d="M107.5,-65.58C127.56,-62.59 157.47,-58.14 183.71,-54.23"/>
<polygon fill="black" stroke="black" points="184.13,-57.71 193.5,-52.77 183.1,-50.78 184.13,-57.71"/>
</g>
<!-- set_marker_node_Set(7)&#45;&gt;set_marker_node_Set(2) -->
<g id="edge3" class="edge">
<title>set_marker_node_Set(7)&#45;&gt;set_marker_node_Set(2)</title>
<path fill="none" stroke="black" d="M392,-70C394.78,-70 397.62,-70 400.49,-70"/>
<polygon fill="black" stroke="black" points="400.49,-73.5 410.49,-70 400.49,-66.5 400.49,-73.5"/>
</g>
<!-- set_marker_node_Set(9) -->
<!-- set_marker_node_Set(8)&#45;&gt;set_marker_node_Set(9) -->
<g id="edge5" class="edge">
<title>set_marker_node_Set(8)&#45;&gt;set_marker_node_Set(9)</title>
<path fill="none" stroke="black" d="M680,-70C682.93,-70 685.87,-70 688.8,-70"/>
<polygon fill="black" stroke="black" points="688.49,-73.5 698.49,-70 688.49,-66.5 688.49,-73.5"/>
</g>
<!-- set_marker_node_Set(10) -->
<!-- set_marker_node_Set(9)&#45;&gt;set_marker_node_Set(10) -->
<g id="edge6" class="edge">
<title>set_marker_node_Set(9)&#45;&gt;set_marker_node_Set(10)</title>
<path fill="none" stroke="black" d="M801,-70C803.93,-70 806.87,-70 809.76,-70"/>
<polygon fill="black" stroke="black" points="809.49,-73.5 819.49,-70 809.49,-66.5 809.49,-73.5"/>
</g>
<!-- set_marker_node_Set(10)&#45;&gt;set_marker_node_Set(3) -->
<g id="edge7" class="edge">
<title>set_marker_node_Set(10)&#45;&gt;set_marker_node_Set(3)</title>
<path fill="none" stroke="black" d="M885,-70C887.78,-70 890.64,-70 893.56,-70"/>
<polygon fill="black" stroke="black" points="893.49,-73.5 903.49,-70 893.49,-66.5 893.49,-73.5"/>
</g>
<!-- set_marker_node_Set(11)&#45;&gt;set_marker_node_Set(4) -->
<g id="edge9" class="edge">
<title>set_marker_node_Set(11)&#45;&gt;set_marker_node_Set(4)</title>
<path fill="none" stroke="black" d="M1180,-75.26C1182.91,-75.46 1185.84,-75.66 1188.75,-75.86"/>
<polygon fill="black" stroke="black" points="1188.27,-79.34 1198.49,-76.54 1188.76,-72.36 1188.27,-79.34"/>
</g>
<!-- set_marker_node_Set(59) -->
<!-- set_marker_node_Set(11)&#45;&gt;set_marker_node_Set(59) -->
<g id="edge14" class="edge">
<title>set_marker_node_Set(11)&#45;&gt;set_marker_node_Set(59)</title>
<path fill="none" stroke="black" d="M1180,-61C1188.22,-59.19 1196.79,-56.9 1205.16,-54.42"/>
<polygon fill="black" stroke="black" points="1206.03,-57.81 1214.55,-51.51 1203.97,-51.12 1206.03,-57.81"/>
</g>
<!-- node_System(45) -->
<g id="node12" class="node">
<title>node_System(45)</title>
<polygon fill="none" stroke="black" points="1172,-52 1034,-52 1034,-16 1172,-16 1172,-52"/>
<text text-anchor="middle" x="1103" y="-30.3" font-family="Times,serif" font-size="14.00">exit_on_all_closed</text>
</g>
<!-- set_marker_node_Set(12)&#45;&gt;set_marker_node_Set(5) -->
<g id="edge11" class="edge">
<title>set_marker_node_Set(12)&#45;&gt;set_marker_node_Set(5)</title>
<path fill="none" stroke="black" d="M1393,-57C1395.78,-57 1398.72,-57 1401.74,-57"/>
<polygon fill="black" stroke="black" points="1401.49,-60.5 1411.49,-57 1401.49,-53.5 1401.49,-60.5"/>
</g>
<!-- set_marker_node_Set(58)&#45;&gt;set_marker_node_Set(7) -->
<g id="edge12" class="edge">
<title>set_marker_node_Set(58)&#45;&gt;set_marker_node_Set(7)</title>
<path fill="none" stroke="black" d="M286,-56.09C291.09,-57.24 296.29,-58.4 301.4,-59.55"/>
<polygon fill="black" stroke="black" points="300.35,-62.9 310.87,-61.67 301.88,-56.07 300.35,-62.9"/>
</g>
<!-- set_marker_node_Set(59)&#45;&gt;set_marker_node_Set(12) -->
<g id="edge15" class="edge">
<title>set_marker_node_Set(59)&#45;&gt;set_marker_node_Set(12)</title>
<path fill="none" stroke="black" d="M1312,-44.39C1320.38,-46.25 1328.94,-48.14 1336.79,-49.88"/>
<polygon fill="black" stroke="black" points="1336,-53.29 1346.52,-52.03 1337.52,-46.45 1336,-53.29"/>
</g>
<!-- node_System(46) -->
<g id="node16" class="node">
<title>node_System(46)</title>
<polygon fill="none" stroke="black" points="167,-144 0,-144 0,-108 167,-108 167,-144"/>
<text text-anchor="middle" x="83.5" y="-122.3" font-family="Times,serif" font-size="14.00">close_when_requested</text>
</g>
</g>
</svg>
