<?xml version="1.0" encoding="UTF-8" standalone="no"?>
<!DOCTYPE svg PUBLIC "-//W3C//DTD SVG 1.1//EN"
 "http://www.w3.org/Graphics/SVG/1.1/DTD/svg11.dtd">
<!-- Generated by graphviz version 7.0.6 (0)
 -->
<!-- Title: schedule Pages: 1 -->
<svg width="2215pt" height="2541pt"
 viewBox="0.00 0.00 2215.00 2541.00" xmlns="http://www.w3.org/2000/svg" xmlns:xlink="http://www.w3.org/1999/xlink">
<g id="graph0" class="graph" transform="scale(1 1) rotate(0) translate(4 2537)">
<title>schedule</title>
<polygon fill="white" stroke="none" points="-4,4 -4,-2537 2211,-2537 2211,4 -4,4"/>
<g id="clust1" class="cluster">
<title>clusternode_Set(1)</title>
<polygon fill="none" stroke="black" points="516,-2380 516,-2473 693,-2473 693,-2380 516,-2380"/>
<text text-anchor="middle" x="604.5" y="-2457.8" font-family="Times,serif" font-size="14.00">FirstFlush</text>
</g>
<g id="clust2" class="cluster">
<title>clusternode_Set(2)</title>
<polygon fill="none" stroke="black" points="819,-2329 819,-2422 996,-2422 996,-2329 819,-2329"/>
<text text-anchor="middle" x="907.5" y="-2406.8" font-family="Times,serif" font-size="14.00">PreUpdateFlush</text>
</g>
<g id="clust3" class="cluster">
<title>clusternode_Set(3)</title>
<polygon fill="none" stroke="black" points="1366,-2329 1366,-2422 1543,-2422 1543,-2329 1366,-2329"/>
<text text-anchor="middle" x="1454.5" y="-2406.8" font-family="Times,serif" font-size="14.00">UpdateFlush</text>
</g>
<g id="clust4" class="cluster">
<title>clusternode_Set(4)</title>
<polygon fill="none" stroke="black" points="1760,-2417 1760,-2510 1937,-2510 1937,-2417 1760,-2417"/>
<text text-anchor="middle" x="1848.5" y="-2494.8" font-family="Times,serif" font-size="14.00">PostUpdateFlush</text>
</g>
<g id="clust5" class="cluster">
<title>clusternode_Set(5)</title>
<polygon fill="none" stroke="black" points="2022,-2366 2022,-2459 2199,-2459 2199,-2366 2022,-2366"/>
<text text-anchor="middle" x="2110.5" y="-2443.8" font-family="Times,serif" font-size="14.00">LastFlush</text>
</g>
<g id="clust6" class="cluster">
<title>clusternode_Set(6)</title>
<polygon fill="none" stroke="black" points="8,-8 8,-2423 496,-2423 496,-8 8,-8"/>
<text text-anchor="middle" x="252" y="-2407.8" font-family="Times,serif" font-size="14.00">First</text>
</g>
<g id="clust7" class="cluster">
<title>clusternode_Set(7)</title>
<polygon fill="none" stroke="black" points="713,-2383 713,-2422 799,-2422 799,-2383 713,-2383"/>
<text text-anchor="middle" x="756" y="-2406.8" font-family="Times,serif" font-size="14.00">PreUpdate</text>
</g>
<g id="clust8" class="cluster">
<title>clusternode_Set(8)</title>
<polygon fill="none" stroke="black" points="1016,-2383 1016,-2422 1141,-2422 1141,-2383 1016,-2383"/>
<text text-anchor="middle" x="1078.5" y="-2406.8" font-family="Times,serif" font-size="14.00">StateTransitions</text>
</g>
<g id="clust9" class="cluster">
<title>clusternode_Set(9)</title>
<polygon fill="none" stroke="black" points="1161,-2383 1161,-2422 1262,-2422 1262,-2383 1161,-2383"/>
<text text-anchor="middle" x="1211.5" y="-2406.8" font-family="Times,serif" font-size="14.00">FixedUpdate</text>
</g>
<g id="clust10" class="cluster">
<title>clusternode_Set(10)</title>
<polygon fill="none" stroke="black" points="1282,-2383 1282,-2422 1346,-2422 1346,-2383 1282,-2383"/>
<text text-anchor="middle" x="1314" y="-2406.8" font-family="Times,serif" font-size="14.00">Update</text>
</g>
<g id="clust11" class="cluster">
<title>clusternode_Set(11)</title>
<polygon fill="none" stroke="black" points="1555,-2289 1555,-2525 1748,-2525 1748,-2289 1555,-2289"/>
<text text-anchor="middle" x="1651.5" y="-2509.8" font-family="Times,serif" font-size="14.00">PostUpdate</text>
</g>
<g id="clust12" class="cluster">
<title>clusternode_Set(82)</title>
<polygon fill="none" stroke="black" points="1563,-2401 1563,-2494 1740,-2494 1740,-2401 1563,-2401"/>
<text text-anchor="middle" x="1651.5" y="-2478.8" font-family="Times,serif" font-size="14.00">CalculateBoundsFlush</text>
</g>
<g id="clust13" class="cluster">
<title>clusternode_Set(128)</title>
<polygon fill="none" stroke="black" points="1603.5,-2297 1603.5,-2336 1699.5,-2336 1699.5,-2297 1603.5,-2297"/>
<text text-anchor="middle" x="1651.5" y="-2320.8" font-family="Times,serif" font-size="14.00">AddClusters</text>
</g>
<g id="clust14" class="cluster">
<title>clusternode_Set(129)</title>
<polygon fill="none" stroke="black" points="1566.5,-2344 1566.5,-2383 1736.5,-2383 1736.5,-2344 1566.5,-2344"/>
<text text-anchor="middle" x="1651.5" y="-2367.8" font-family="Times,serif" font-size="14.00">AssignLightsToClusters</text>
</g>
<g id="clust15" class="cluster">
<title>clusternode_Set(12)</title>
<polygon fill="none" stroke="black" points="1957,-2420 1957,-2459 2002,-2459 2002,-2420 1957,-2420"/>
<text text-anchor="middle" x="1979.5" y="-2443.8" font-family="Times,serif" font-size="14.00">Last</text>
</g>
<g id="clust16" class="cluster">
<title>clusternode_Set(58)</title>
<polygon fill="none" stroke="black" points="559.5,-2333 559.5,-2372 650.5,-2372 650.5,-2333 559.5,-2333"/>
<text text-anchor="middle" x="605" y="-2356.8" font-family="Times,serif" font-size="14.00">LoadAssets</text>
</g>
<g id="clust17" class="cluster">
<title>clusternode_Set(59)</title>
<polygon fill="none" stroke="black" points="1800.5,-2370 1800.5,-2409 1896.5,-2409 1896.5,-2370 1800.5,-2370"/>
<text text-anchor="middle" x="1848.5" y="-2393.8" font-family="Times,serif" font-size="14.00">AssetEvents</text>
</g>
<!-- set_marker_node_Set(1) -->
<!-- set_marker_node_Set(7) -->
<!-- set_marker_node_Set(1)&#45;&gt;set_marker_node_Set(7) -->
<g id="edge2" class="edge">
<title>set_marker_node_Set(1)&#45;&gt;set_marker_node_Set(7)</title>
<path fill="none" stroke="black" d="M693,-2433C697.16,-2431.49 701.31,-2429.63 705.38,-2427.55"/>
<polygon fill="black" stroke="black" points="706.96,-2430.68 713.98,-2422.74 703.54,-2424.57 706.96,-2430.68"/>
</g>
<!-- node_System(0) -->
<g id="node2" class="node">
<title>node_System(0)</title>
<polygon fill="none" stroke="black" points="685,-2424 524,-2424 524,-2388 685,-2388 685,-2424"/>
<text text-anchor="middle" x="604.5" y="-2402.3" font-family="Times,serif" font-size="14.00">apply_system_buffers</text>
</g>
<!-- set_marker_node_Set(2) -->
<!-- set_marker_node_Set(8) -->
<!-- set_marker_node_Set(2)&#45;&gt;set_marker_node_Set(8) -->
<g id="edge4" class="edge">
<title>set_marker_node_Set(2)&#45;&gt;set_marker_node_Set(8)</title>
<path fill="none" stroke="black" d="M996,-2391C998.86,-2391 1001.71,-2391 1004.55,-2391"/>
<polygon fill="black" stroke="black" points="1004.49,-2394.5 1014.49,-2391 1004.49,-2387.5 1004.49,-2394.5"/>
</g>
<!-- node_System(1) -->
<g id="node4" class="node">
<title>node_System(1)</title>
<polygon fill="none" stroke="black" points="988,-2373 827,-2373 827,-2337 988,-2337 988,-2373"/>
<text text-anchor="middle" x="907.5" y="-2351.3" font-family="Times,serif" font-size="14.00">apply_system_buffers</text>
</g>
<!-- set_marker_node_Set(3) -->
<!-- set_marker_node_Set(11) -->
<!-- set_marker_node_Set(3)&#45;&gt;set_marker_node_Set(11) -->
<g id="edge8" class="edge">
<title>set_marker_node_Set(3)&#45;&gt;set_marker_node_Set(11)</title>
<path fill="none" stroke="black" d="M1543,-2391C1543.17,-2391 1543.34,-2391 1543.51,-2391"/>
<polygon fill="black" stroke="black" points="1543.49,-2394.5 1553.49,-2391 1543.49,-2387.5 1543.49,-2394.5"/>
</g>
<!-- node_System(2) -->
<g id="node6" class="node">
<title>node_System(2)</title>
<polygon fill="none" stroke="black" points="1535,-2373 1374,-2373 1374,-2337 1535,-2337 1535,-2373"/>
<text text-anchor="middle" x="1454.5" y="-2351.3" font-family="Times,serif" font-size="14.00">apply_system_buffers</text>
</g>
<!-- set_marker_node_Set(4) -->
<!-- set_marker_node_Set(12) -->
<!-- set_marker_node_Set(4)&#45;&gt;set_marker_node_Set(12) -->
<g id="edge10" class="edge">
<title>set_marker_node_Set(4)&#45;&gt;set_marker_node_Set(12)</title>
<path fill="none" stroke="black" d="M1937,-2470C1941.03,-2468.05 1944.89,-2465.53 1948.51,-2462.7"/>
<polygon fill="black" stroke="black" points="1950.73,-2465.41 1955.87,-2456.15 1946.08,-2460.18 1950.73,-2465.41"/>
</g>
<!-- node_System(3) -->
<g id="node8" class="node">
<title>node_System(3)</title>
<polygon fill="none" stroke="black" points="1929,-2461 1768,-2461 1768,-2425 1929,-2425 1929,-2461"/>
<text text-anchor="middle" x="1848.5" y="-2439.3" font-family="Times,serif" font-size="14.00">apply_system_buffers</text>
</g>
<!-- set_marker_node_Set(5) -->
<!-- node_System(4) -->
<g id="node10" class="node">
<title>node_System(4)</title>
<polygon fill="none" stroke="black" points="2191,-2410 2030,-2410 2030,-2374 2191,-2374 2191,-2410"/>
<text text-anchor="middle" x="2110.5" y="-2388.3" font-family="Times,serif" font-size="14.00">apply_system_buffers</text>
</g>
<!-- set_marker_node_Set(6) -->
<!-- set_marker_node_Set(6)&#45;&gt;set_marker_node_Set(1) -->
<g id="edge1" class="edge">
<title>set_marker_node_Set(6)&#45;&gt;set_marker_node_Set(1)</title>
<path fill="none" stroke="black" d="M444.19,-2423C464.48,-2425.99 484.93,-2428.89 504.75,-2431.53"/>
<polygon fill="black" stroke="black" points="504.13,-2434.97 514.5,-2432.8 505.04,-2428.03 504.13,-2434.97"/>
</g>
<!-- set_marker_node_Set(58) -->
<!-- set_marker_node_Set(6)&#45;&gt;set_marker_node_Set(58) -->
<g id="edge13" class="edge">
<title>set_marker_node_Set(6)&#45;&gt;set_marker_node_Set(58)</title>
<path fill="none" stroke="black" d="M496,-2383C499.01,-2382.38 523.81,-2372.71 548.83,-2362.81"/>
<polygon fill="black" stroke="black" points="550.09,-2366.07 558.09,-2359.13 547.51,-2359.57 550.09,-2366.07"/>
</g>
<!-- node_System(5) -->
<g id="node12" class="node">
<title>node_System(5)</title>
<polygon fill="none" stroke="black" points="367,-2374 137,-2374 137,-2338 367,-2338 367,-2374"/>
<text text-anchor="middle" x="252" y="-2352.3" font-family="Times,serif" font-size="14.00">Events&lt;AppExit&gt;update_system</text>
</g>
<!-- node_System(13) -->
<g id="node13" class="node">
<title>node_System(13)</title>
<polygon fill="none" stroke="black" points="393.5,-2320 110.5,-2320 110.5,-2284 393.5,-2284 393.5,-2320"/>
<text text-anchor="middle" x="252" y="-2298.3" font-family="Times,serif" font-size="14.00">Events&lt;HierarchyEvent&gt;update_system</text>
</g>
<!-- node_System(14) -->
<g id="node14" class="node">
<title>node_System(14)</title>
<polygon fill="none" stroke="black" points="391,-2266 113,-2266 113,-2230 391,-2230 391,-2266"/>
<text text-anchor="middle" x="252" y="-2244.3" font-family="Times,serif" font-size="14.00">Events&lt;KeyboardInput&gt;update_system</text>
</g>
<!-- node_System(16) -->
<g id="node15" class="node">
<title>node_System(16)</title>
<polygon fill="none" stroke="black" points="403.5,-2212 100.5,-2212 100.5,-2176 403.5,-2176 403.5,-2212"/>
<text text-anchor="middle" x="252" y="-2190.3" font-family="Times,serif" font-size="14.00">Events&lt;MouseButtonInput&gt;update_system</text>
</g>
<!-- node_System(17) -->
<g id="node16" class="node">
<title>node_System(17)</title>
<polygon fill="none" stroke="black" points="386.5,-2158 117.5,-2158 117.5,-2122 386.5,-2122 386.5,-2158"/>
<text text-anchor="middle" x="252" y="-2136.3" font-family="Times,serif" font-size="14.00">Events&lt;MouseMotion&gt;update_system</text>
</g>
<!-- node_System(18) -->
<g id="node17" class="node">
<title>node_System(18)</title>
<polygon fill="none" stroke="black" points="383.5,-2104 120.5,-2104 120.5,-2068 383.5,-2068 383.5,-2104"/>
<text text-anchor="middle" x="252" y="-2082.3" font-family="Times,serif" font-size="14.00">Events&lt;MouseWheel&gt;update_system</text>
</g>
<!-- node_System(20) -->
<g id="node18" class="node">
<title>node_System(20)</title>
<polygon fill="none" stroke="black" points="429.5,-2050 74.5,-2050 74.5,-2014 429.5,-2014 429.5,-2050"/>
<text text-anchor="middle" x="252" y="-2028.3" font-family="Times,serif" font-size="14.00">Events&lt;GamepadConnectionEvent&gt;update_system</text>
</g>
<!-- node_System(21) -->
<g id="node19" class="node">
<title>node_System(21)</title>
<polygon fill="none" stroke="black" points="443.5,-1996 60.5,-1996 60.5,-1960 443.5,-1960 443.5,-1996"/>
<text text-anchor="middle" x="252" y="-1974.3" font-family="Times,serif" font-size="14.00">Events&lt;GamepadButtonChangedEvent&gt;update_system</text>
</g>
<!-- node_System(22) -->
<g id="node20" class="node">
<title>node_System(22)</title>
<polygon fill="none" stroke="black" points="434.5,-1942 69.5,-1942 69.5,-1906 434.5,-1906 434.5,-1942"/>
<text text-anchor="middle" x="252" y="-1920.3" font-family="Times,serif" font-size="14.00">Events&lt;GamepadAxisChangedEvent&gt;update_system</text>
</g>
<!-- node_System(23) -->
<g id="node21" class="node">
<title>node_System(23)</title>
<polygon fill="none" stroke="black" points="391.5,-1888 112.5,-1888 112.5,-1852 391.5,-1852 391.5,-1888"/>
<text text-anchor="middle" x="252" y="-1866.3" font-family="Times,serif" font-size="14.00">Events&lt;GamepadEvent&gt;update_system</text>
</g>
<!-- node_System(28) -->
<g id="node22" class="node">
<title>node_System(28)</title>
<polygon fill="none" stroke="black" points="379,-1834 125,-1834 125,-1798 379,-1798 379,-1834"/>
<text text-anchor="middle" x="252" y="-1812.3" font-family="Times,serif" font-size="14.00">Events&lt;TouchInput&gt;update_system</text>
</g>
<!-- node_System(30) -->
<g id="node23" class="node">
<title>node_System(30)</title>
<polygon fill="none" stroke="black" points="394,-1780 110,-1780 110,-1744 394,-1744 394,-1780"/>
<text text-anchor="middle" x="252" y="-1758.3" font-family="Times,serif" font-size="14.00">Events&lt;WindowResized&gt;update_system</text>
</g>
<!-- node_System(31) -->
<g id="node24" class="node">
<title>node_System(31)</title>
<polygon fill="none" stroke="black" points="394.5,-1726 109.5,-1726 109.5,-1690 394.5,-1690 394.5,-1726"/>
<text text-anchor="middle" x="252" y="-1704.3" font-family="Times,serif" font-size="14.00">Events&lt;WindowCreated&gt;update_system</text>
</g>
<!-- node_System(32) -->
<g id="node25" class="node">
<title>node_System(32)</title>
<polygon fill="none" stroke="black" points="390,-1672 114,-1672 114,-1636 390,-1636 390,-1672"/>
<text text-anchor="middle" x="252" y="-1650.3" font-family="Times,serif" font-size="14.00">Events&lt;WindowClosed&gt;update_system</text>
</g>
<!-- node_System(33) -->
<g id="node26" class="node">
<title>node_System(33)</title>
<polygon fill="none" stroke="black" points="420,-1618 84,-1618 84,-1582 420,-1582 420,-1618"/>
<text text-anchor="middle" x="252" y="-1596.3" font-family="Times,serif" font-size="14.00">Events&lt;WindowCloseRequested&gt;update_system</text>
</g>
<!-- node_System(34) -->
<g id="node27" class="node">
<title>node_System(34)</title>
<polygon fill="none" stroke="black" points="392,-1564 112,-1564 112,-1528 392,-1528 392,-1564"/>
<text text-anchor="middle" x="252" y="-1542.3" font-family="Times,serif" font-size="14.00">Events&lt;RequestRedraw&gt;update_system</text>
</g>
<!-- node_System(35) -->
<g id="node28" class="node">
<title>node_System(35)</title>
<polygon fill="none" stroke="black" points="385.5,-1510 118.5,-1510 118.5,-1474 385.5,-1474 385.5,-1510"/>
<text text-anchor="middle" x="252" y="-1488.3" font-family="Times,serif" font-size="14.00">Events&lt;CursorMoved&gt;update_system</text>
</g>
<!-- node_System(36) -->
<g id="node29" class="node">
<title>node_System(36)</title>
<polygon fill="none" stroke="black" points="389.5,-1456 114.5,-1456 114.5,-1420 389.5,-1420 389.5,-1456"/>
<text text-anchor="middle" x="252" y="-1434.3" font-family="Times,serif" font-size="14.00">Events&lt;CursorEntered&gt;update_system</text>
</g>
<!-- node_System(37) -->
<g id="node30" class="node">
<title>node_System(37)</title>
<polygon fill="none" stroke="black" points="376,-1402 128,-1402 128,-1366 376,-1366 376,-1402"/>
<text text-anchor="middle" x="252" y="-1380.3" font-family="Times,serif" font-size="14.00">Events&lt;CursorLeft&gt;update_system</text>
</g>
<!-- node_System(38) -->
<g id="node31" class="node">
<title>node_System(38)</title>
<polygon fill="none" stroke="black" points="403,-1348 101,-1348 101,-1312 403,-1312 403,-1348"/>
<text text-anchor="middle" x="252" y="-1326.3" font-family="Times,serif" font-size="14.00">Events&lt;ReceivedCharacter&gt;update_system</text>
</g>
<!-- node_System(39) -->
<g id="node32" class="node">
<title>node_System(39)</title>
<polygon fill="none" stroke="black" points="353.5,-1294 150.5,-1294 150.5,-1258 353.5,-1258 353.5,-1294"/>
<text text-anchor="middle" x="252" y="-1272.3" font-family="Times,serif" font-size="14.00">Events&lt;Ime&gt;update_system</text>
</g>
<!-- node_System(40) -->
<g id="node33" class="node">
<title>node_System(40)</title>
<polygon fill="none" stroke="black" points="395.5,-1240 108.5,-1240 108.5,-1204 395.5,-1204 395.5,-1240"/>
<text text-anchor="middle" x="252" y="-1218.3" font-family="Times,serif" font-size="14.00">Events&lt;WindowFocused&gt;update_system</text>
</g>
<!-- node_System(41) -->
<g id="node34" class="node">
<title>node_System(41)</title>
<polygon fill="none" stroke="black" points="436,-1186 68,-1186 68,-1150 436,-1150 436,-1186"/>
<text text-anchor="middle" x="252" y="-1164.3" font-family="Times,serif" font-size="14.00">Events&lt;WindowScaleFactorChanged&gt;update_system</text>
</g>
<!-- node_System(42) -->
<g id="node35" class="node">
<title>node_System(42)</title>
<polygon fill="none" stroke="black" points="464.5,-1132 39.5,-1132 39.5,-1096 464.5,-1096 464.5,-1132"/>
<text text-anchor="middle" x="252" y="-1110.3" font-family="Times,serif" font-size="14.00">Events&lt;WindowBackendScaleFactorChanged&gt;update_system</text>
</g>
<!-- node_System(43) -->
<g id="node36" class="node">
<title>node_System(43)</title>
<polygon fill="none" stroke="black" points="399,-1078 105,-1078 105,-1042 399,-1042 399,-1078"/>
<text text-anchor="middle" x="252" y="-1056.3" font-family="Times,serif" font-size="14.00">Events&lt;FileDragAndDrop&gt;update_system</text>
</g>
<!-- node_System(44) -->
<g id="node37" class="node">
<title>node_System(44)</title>
<polygon fill="none" stroke="black" points="391.5,-1024 112.5,-1024 112.5,-988 391.5,-988 391.5,-1024"/>
<text text-anchor="middle" x="252" y="-1002.3" font-family="Times,serif" font-size="14.00">Events&lt;WindowMoved&gt;update_system</text>
</g>
<!-- node_System(51) -->
<g id="node38" class="node">
<title>node_System(51)</title>
<polygon fill="none" stroke="black" points="434,-970 70,-970 70,-934 434,-934 434,-970"/>
<text text-anchor="middle" x="252" y="-948.3" font-family="Times,serif" font-size="14.00">Events&lt;AssetEvent&lt;DynamicScene&gt;&gt;update_system</text>
</g>
<!-- node_System(54) -->
<g id="node39" class="node">
<title>node_System(54)</title>
<polygon fill="none" stroke="black" points="403.5,-916 100.5,-916 100.5,-880 403.5,-880 403.5,-916"/>
<text text-anchor="middle" x="252" y="-894.3" font-family="Times,serif" font-size="14.00">Events&lt;AssetEvent&lt;Scene&gt;&gt;update_system</text>
</g>
<!-- node_System(61) -->
<g id="node40" class="node">
<title>node_System(61)</title>
<polygon fill="none" stroke="black" points="408,-862 96,-862 96,-826 408,-826 408,-862"/>
<text text-anchor="middle" x="252" y="-840.3" font-family="Times,serif" font-size="14.00">Events&lt;AssetEvent&lt;Shader&gt;&gt;update_system</text>
</g>
<!-- node_System(75) -->
<g id="node41" class="node">
<title>node_System(75)</title>
<polygon fill="none" stroke="black" points="402.5,-808 101.5,-808 101.5,-772 402.5,-772 402.5,-808"/>
<text text-anchor="middle" x="252" y="-786.3" font-family="Times,serif" font-size="14.00">Events&lt;AssetEvent&lt;Mesh&gt;&gt;update_system</text>
</g>
<!-- node_System(78) -->
<g id="node42" class="node">
<title>node_System(78)</title>
<polygon fill="none" stroke="black" points="488,-754 16,-754 16,-718 488,-718 488,-754"/>
<text text-anchor="middle" x="252" y="-732.3" font-family="Times,serif" font-size="14.00">Events&lt;AssetEvent&lt;SkinnedMeshInverseBindposes&gt;&gt;update_system</text>
</g>
<!-- node_System(81) -->
<g id="node43" class="node">
<title>node_System(81)</title>
<polygon fill="none" stroke="black" points="405.5,-700 98.5,-700 98.5,-664 405.5,-664 405.5,-700"/>
<text text-anchor="middle" x="252" y="-678.3" font-family="Times,serif" font-size="14.00">Events&lt;AssetEvent&lt;Image&gt;&gt;update_system</text>
</g>
<!-- node_System(84) -->
<g id="node44" class="node">
<title>node_System(84)</title>
<polygon fill="none" stroke="black" points="427.5,-646 76.5,-646 76.5,-610 427.5,-610 427.5,-646"/>
<text text-anchor="middle" x="252" y="-624.3" font-family="Times,serif" font-size="14.00">Events&lt;AssetEvent&lt;TextureAtlas&gt;&gt;update_system</text>
</g>
<!-- node_System(87) -->
<g id="node45" class="node">
<title>node_System(87)</title>
<polygon fill="none" stroke="black" points="431.5,-592 72.5,-592 72.5,-556 431.5,-556 431.5,-592"/>
<text text-anchor="middle" x="252" y="-570.3" font-family="Times,serif" font-size="14.00">Events&lt;AssetEvent&lt;ColorMaterial&gt;&gt;update_system</text>
</g>
<!-- node_System(90) -->
<g id="node46" class="node">
<title>node_System(90)</title>
<polygon fill="none" stroke="black" points="399.5,-538 104.5,-538 104.5,-502 399.5,-502 399.5,-538"/>
<text text-anchor="middle" x="252" y="-516.3" font-family="Times,serif" font-size="14.00">Events&lt;AssetEvent&lt;Font&gt;&gt;update_system</text>
</g>
<!-- node_System(93) -->
<g id="node47" class="node">
<title>node_System(93)</title>
<polygon fill="none" stroke="black" points="426.5,-484 77.5,-484 77.5,-448 426.5,-448 426.5,-484"/>
<text text-anchor="middle" x="252" y="-462.3" font-family="Times,serif" font-size="14.00">Events&lt;AssetEvent&lt;FontAtlasSet&gt;&gt;update_system</text>
</g>
<!-- node_System(103) -->
<g id="node48" class="node">
<title>node_System(103)</title>
<polygon fill="none" stroke="black" points="444.5,-430 59.5,-430 59.5,-394 444.5,-394 444.5,-430"/>
<text text-anchor="middle" x="252" y="-408.3" font-family="Times,serif" font-size="14.00">Events&lt;AssetEvent&lt;StandardMaterial&gt;&gt;update_system</text>
</g>
<!-- node_System(114) -->
<g id="node49" class="node">
<title>node_System(114)</title>
<polygon fill="none" stroke="black" points="397,-376 107,-376 107,-340 397,-340 397,-376"/>
<text text-anchor="middle" x="252" y="-354.3" font-family="Times,serif" font-size="14.00">Events&lt;AssetEvent&lt;Gltf&gt;&gt;update_system</text>
</g>
<!-- node_System(117) -->
<g id="node50" class="node">
<title>node_System(117)</title>
<polygon fill="none" stroke="black" points="414,-322 90,-322 90,-286 414,-286 414,-322"/>
<text text-anchor="middle" x="252" y="-300.3" font-family="Times,serif" font-size="14.00">Events&lt;AssetEvent&lt;GltfNode&gt;&gt;update_system</text>
</g>
<!-- node_System(120) -->
<g id="node51" class="node">
<title>node_System(120)</title>
<polygon fill="none" stroke="black" points="428.5,-268 75.5,-268 75.5,-232 428.5,-232 428.5,-268"/>
<text text-anchor="middle" x="252" y="-246.3" font-family="Times,serif" font-size="14.00">Events&lt;AssetEvent&lt;GltfPrimitive&gt;&gt;update_system</text>
</g>
<!-- node_System(123) -->
<g id="node52" class="node">
<title>node_System(123)</title>
<polygon fill="none" stroke="black" points="415,-214 89,-214 89,-178 415,-178 415,-214"/>
<text text-anchor="middle" x="252" y="-192.3" font-family="Times,serif" font-size="14.00">Events&lt;AssetEvent&lt;GltfMesh&gt;&gt;update_system</text>
</g>
<!-- node_System(126) -->
<g id="node53" class="node">
<title>node_System(126)</title>
<polygon fill="none" stroke="black" points="427,-160 77,-160 77,-124 427,-124 427,-160"/>
<text text-anchor="middle" x="252" y="-138.3" font-family="Times,serif" font-size="14.00">Events&lt;AssetEvent&lt;AudioSource&gt;&gt;update_system</text>
</g>
<!-- node_System(129) -->
<g id="node54" class="node">
<title>node_System(129)</title>
<polygon fill="none" stroke="black" points="419,-106 85,-106 85,-70 419,-70 419,-106"/>
<text text-anchor="middle" x="252" y="-84.3" font-family="Times,serif" font-size="14.00">Events&lt;AssetEvent&lt;AudioSink&gt;&gt;update_system</text>
</g>
<!-- node_System(134) -->
<g id="node55" class="node">
<title>node_System(134)</title>
<polygon fill="none" stroke="black" points="433,-52 71,-52 71,-16 433,-16 433,-52"/>
<text text-anchor="middle" x="252" y="-30.3" font-family="Times,serif" font-size="14.00">Events&lt;AssetEvent&lt;AnimationClip&gt;&gt;update_system</text>
</g>
<!-- set_marker_node_Set(7)&#45;&gt;set_marker_node_Set(2) -->
<g id="edge3" class="edge">
<title>set_marker_node_Set(7)&#45;&gt;set_marker_node_Set(2)</title>
<path fill="none" stroke="black" d="M799,-2391C801.84,-2391 804.76,-2391 807.73,-2391"/>
<polygon fill="black" stroke="black" points="807.49,-2394.5 817.49,-2391 807.49,-2387.5 807.49,-2394.5"/>
</g>
<!-- set_marker_node_Set(9) -->
<!-- set_marker_node_Set(8)&#45;&gt;set_marker_node_Set(9) -->
<g id="edge5" class="edge">
<title>set_marker_node_Set(8)&#45;&gt;set_marker_node_Set(9)</title>
<path fill="none" stroke="black" d="M1141,-2391C1143.93,-2391 1146.87,-2391 1149.8,-2391"/>
<polygon fill="black" stroke="black" points="1149.49,-2394.5 1159.49,-2391 1149.49,-2387.5 1149.49,-2394.5"/>
</g>
<!-- set_marker_node_Set(10) -->
<!-- set_marker_node_Set(9)&#45;&gt;set_marker_node_Set(10) -->
<g id="edge6" class="edge">
<title>set_marker_node_Set(9)&#45;&gt;set_marker_node_Set(10)</title>
<path fill="none" stroke="black" d="M1262,-2391C1264.93,-2391 1267.87,-2391 1270.76,-2391"/>
<polygon fill="black" stroke="black" points="1270.49,-2394.5 1280.49,-2391 1270.49,-2387.5 1270.49,-2394.5"/>
</g>
<!-- set_marker_node_Set(10)&#45;&gt;set_marker_node_Set(3) -->
<g id="edge7" class="edge">
<title>set_marker_node_Set(10)&#45;&gt;set_marker_node_Set(3)</title>
<path fill="none" stroke="black" d="M1346,-2391C1348.73,-2391 1351.57,-2391 1354.5,-2391"/>
<polygon fill="black" stroke="black" points="1354.49,-2394.5 1364.49,-2391 1354.49,-2387.5 1354.49,-2394.5"/>
</g>
<!-- set_marker_node_Set(11)&#45;&gt;set_marker_node_Set(4) -->
<g id="edge9" class="edge">
<title>set_marker_node_Set(11)&#45;&gt;set_marker_node_Set(4)</title>
<path fill="none" stroke="black" d="M1748,-2397C1769.15,-2416.13 1744.64,-2440.03 1753.37,-2460.74"/>
<polygon fill="black" stroke="black" points="1750.45,-2462.68 1759.12,-2468.77 1756.14,-2458.6 1750.45,-2462.68"/>
</g>
<!-- set_marker_node_Set(59) -->
<!-- set_marker_node_Set(11)&#45;&gt;set_marker_node_Set(59) -->
<g id="edge14" class="edge">
<title>set_marker_node_Set(11)&#45;&gt;set_marker_node_Set(59)</title>
<path fill="none" stroke="black" d="M1748,-2387C1761.4,-2386.11 1775.79,-2384.94 1789.35,-2383.74"/>
<polygon fill="black" stroke="black" points="1789.35,-2387.25 1799,-2382.86 1788.72,-2380.28 1789.35,-2387.25"/>
</g>
<!-- set_marker_node_Set(82) -->
<!-- node_System(66) -->
<g id="node62" class="node">
<title>node_System(66)</title>
<polygon fill="none" stroke="black" points="1732,-2445 1571,-2445 1571,-2409 1732,-2409 1732,-2445"/>
<text text-anchor="middle" x="1651.5" y="-2423.3" font-family="Times,serif" font-size="14.00">apply_system_buffers</text>
</g>
<!-- set_marker_node_Set(128) -->
<!-- node_System(105) -->
<g id="node68" class="node">
<title>node_System(105)</title>
<polygon fill="none" stroke="black" points="1929,-2335 1768,-2335 1768,-2299 1929,-2299 1929,-2335"/>
<text text-anchor="middle" x="1848.5" y="-2313.3" font-family="Times,serif" font-size="14.00">apply_system_buffers</text>
</g>
<!-- set_marker_node_Set(128)&#45;&gt;node_System(105) -->
<g id="edge16" class="edge">
<title>set_marker_node_Set(128)&#45;&gt;node_System(105)</title>
<path fill="none" stroke="black" d="M1699.5,-2307.89C1716.61,-2308.95 1736.59,-2310.17 1756.23,-2311.38"/>
<polygon fill="black" stroke="black" points="1755.96,-2314.87 1766.15,-2311.99 1756.39,-2307.89 1755.96,-2314.87"/>
</g>
<!-- set_marker_node_Set(129) -->
<!-- set_marker_node_Set(12)&#45;&gt;set_marker_node_Set(5) -->
<g id="edge11" class="edge">
<title>set_marker_node_Set(12)&#45;&gt;set_marker_node_Set(5)</title>
<path fill="none" stroke="black" d="M2002,-2428C2004.8,-2428 2007.8,-2428 2010.94,-2428"/>
<polygon fill="black" stroke="black" points="2010.49,-2431.5 2020.49,-2428 2010.49,-2424.5 2010.49,-2431.5"/>
</g>
<!-- set_marker_node_Set(58)&#45;&gt;set_marker_node_Set(7) -->
<g id="edge12" class="edge">
<title>set_marker_node_Set(58)&#45;&gt;set_marker_node_Set(7)</title>
<path fill="none" stroke="black" d="M650.5,-2356.05C672.84,-2363.52 699.42,-2372.41 720.19,-2379.36"/>
<polygon fill="black" stroke="black" points="719.06,-2382.67 729.66,-2382.52 721.28,-2376.03 719.06,-2382.67"/>
</g>
<!-- set_marker_node_Set(59)&#45;&gt;set_marker_node_Set(12) -->
<g id="edge15" class="edge">
<title>set_marker_node_Set(59)&#45;&gt;set_marker_node_Set(12)</title>
<path fill="none" stroke="black" d="M1896.5,-2396.29C1913.37,-2402.85 1931.97,-2410.09 1947.13,-2415.99"/>
<polygon fill="black" stroke="black" points="1945.45,-2419.09 1956.04,-2419.46 1947.99,-2412.57 1945.45,-2419.09"/>
</g>
<!-- node_System(105)&#45;&gt;set_marker_node_Set(129) -->
<g id="edge17" class="edge">
<title>node_System(105)&#45;&gt;set_marker_node_Set(129)</title>
<path fill="none" stroke="black" d="M1771.07,-2335.5C1763.3,-2337.13 1755.51,-2338.66 1748,-2340 1743.42,-2340.82 1738.7,-2341.6 1733.93,-2342.34"/>
<polygon fill="black" stroke="black" points="1733.63,-2338.84 1724.26,-2343.78 1734.66,-2345.77 1733.63,-2338.84"/>
</g>
</g>
</svg>
