<?xml version="1.0" encoding="UTF-8" standalone="no"?>
<!DOCTYPE svg PUBLIC "-//W3C//DTD SVG 1.1//EN"
 "http://www.w3.org/Graphics/SVG/1.1/DTD/svg11.dtd">
<!-- Generated by graphviz version 7.0.6 (0)
 -->
<!-- Title: schedule Pages: 1 -->
<svg width="1754pt" height="194pt"
 viewBox="0.00 0.00 1754.00 194.00" xmlns="http://www.w3.org/2000/svg" xmlns:xlink="http://www.w3.org/1999/xlink">
<g id="graph0" class="graph" transform="scale(1 1) rotate(0) translate(4 190)">
<title>schedule</title>
<polygon fill="#0d1117" stroke="none" points="-4,4 -4,-190 1750,-190 1750,4 -4,4"/>
<g id="clust1" class="cluster">
<title>clusternode_Set(0)</title>
<polygon fill="#6f90ad" stroke="black" points="687,-104 687,-143 752,-143 752,-104 687,-104"/>
<text text-anchor="middle" x="719.5" y="-127.8" font-family="Helvetica,sans-Serif" font-size="14.00">Update</text>
</g>
<g id="clust2" class="cluster">
<title>clusternode_Set(2)</title>
<polygon fill="#6f90ad" stroke="black" points="70,-127 70,-166 152,-166 152,-127 70,-127"/>
<text text-anchor="middle" x="111" y="-150.8" font-family="Helvetica,sans-Serif" font-size="14.00">FirstFlush</text>
</g>
<g id="clust3" class="cluster">
<title>clusternode_Set(3)</title>
<polygon fill="#6f90ad" stroke="black" points="283,-104 283,-143 405,-143 405,-104 283,-104"/>
<text text-anchor="middle" x="344" y="-127.8" font-family="Helvetica,sans-Serif" font-size="14.00">PreUpdateFlush</text>
</g>
<g id="clust4" class="cluster">
<title>clusternode_Set(4)</title>
<polygon fill="#6f90ad" stroke="black" points="772,-104 772,-143 873,-143 873,-104 772,-104"/>
<text text-anchor="middle" x="822.5" y="-127.8" font-family="Helvetica,sans-Serif" font-size="14.00">UpdateFlush</text>
</g>
<g id="clust5" class="cluster">
<title>clusternode_Set(5)</title>
<polygon fill="#6f90ad" stroke="black" points="1006,-139 1006,-178 1135,-178 1135,-139 1006,-139"/>
<text text-anchor="middle" x="1070.5" y="-162.8" font-family="Helvetica,sans-Serif" font-size="14.00">PostUpdateFlush</text>
</g>
<g id="clust6" class="cluster">
<title>clusternode_Set(6)</title>
<polygon fill="#6f90ad" stroke="black" points="1666,-116 1666,-155 1746,-155 1746,-116 1666,-116"/>
<text text-anchor="middle" x="1706" y="-139.8" font-family="Helvetica,sans-Serif" font-size="14.00">LastFlush</text>
</g>
<g id="clust7" class="cluster">
<title>clusternode_Set(7)</title>
<polygon fill="#6f90ad" stroke="black" points="0,-103 0,-142 46,-142 46,-103 0,-103"/>
<text text-anchor="middle" x="23" y="-126.8" font-family="Helvetica,sans-Serif" font-size="14.00">First</text>
</g>
<g id="clust8" class="cluster">
<title>clusternode_Set(8)</title>
<polygon fill="#6f90ad" stroke="black" points="177,-104 177,-143 263,-143 263,-104 177,-104"/>
<text text-anchor="middle" x="220" y="-127.8" font-family="Helvetica,sans-Serif" font-size="14.00">PreUpdate</text>
</g>
<g id="clust9" class="cluster">
<title>clusternode_Set(9)</title>
<polygon fill="#6f90ad" stroke="black" points="425,-104 425,-143 547,-143 547,-104 425,-104"/>
<text text-anchor="middle" x="486" y="-127.8" font-family="Helvetica,sans-Serif" font-size="14.00">StateTransitions</text>
</g>
<g id="clust10" class="cluster">
<title>clusternode_Set(10)</title>
<polygon fill="#6f90ad" stroke="black" points="567,-104 567,-143 667,-143 667,-104 567,-104"/>
<text text-anchor="middle" x="617" y="-127.8" font-family="Helvetica,sans-Serif" font-size="14.00">FixedUpdate</text>
</g>
<g id="clust11" class="cluster">
<title>clusternode_Set(11)</title>
<polygon fill="#6f90ad" stroke="black" points="893,-104 893,-143 986,-143 986,-104 893,-104"/>
<text text-anchor="middle" x="939.5" y="-127.8" font-family="Helvetica,sans-Serif" font-size="14.00">PostUpdate</text>
</g>
<g id="clust12" class="cluster">
<title>clusternode_Set(12)</title>
<polygon fill="#6f90ad" stroke="black" points="1155,-8 1155,-155 1646,-155 1646,-8 1155,-8"/>
<text text-anchor="middle" x="1400.5" y="-139.8" font-family="Helvetica,sans-Serif" font-size="14.00">Last</text>
</g>
<g id="clust13" class="cluster">
<title>clusternode_Set(58)</title>
<polygon fill="#6f90ad" stroke="black" points="66,-80 66,-119 157,-119 157,-80 66,-80"/>
<text text-anchor="middle" x="111.5" y="-103.8" font-family="Helvetica,sans-Serif" font-size="14.00">LoadAssets</text>
</g>
<g id="clust14" class="cluster">
<title>clusternode_Set(59)</title>
<polygon fill="#6f90ad" stroke="black" points="1022,-92 1022,-131 1118,-131 1118,-92 1022,-92"/>
<text text-anchor="middle" x="1070" y="-115.8" font-family="Helvetica,sans-Serif" font-size="14.00">AssetEvents</text>
</g>
<!-- set_marker_node_Set(0) -->
<!-- set_marker_node_Set(4) -->
<!-- set_marker_node_Set(0)&#45;&gt;set_marker_node_Set(4) -->
<g id="edge7" class="edge">
<title>set_marker_node_Set(0)&#45;&gt;set_marker_node_Set(4)</title>
<path fill="none" stroke="white" d="M752,-112C754.81,-112 757.71,-112 760.65,-112"/>
<polygon fill="white" stroke="white" points="760.49,-115.5 770.49,-112 760.49,-108.5 760.49,-115.5"/>
</g>
<!-- set_marker_node_Set(2) -->
<!-- set_marker_node_Set(8) -->
<!-- set_marker_node_Set(2)&#45;&gt;set_marker_node_Set(8) -->
<g id="edge2" class="edge">
<title>set_marker_node_Set(2)&#45;&gt;set_marker_node_Set(8)</title>
<path fill="none" stroke="white" d="M149.21,-127C154.62,-125.84 160.27,-124.62 165.92,-123.41"/>
<polygon fill="white" stroke="white" points="166.48,-126.87 175.53,-121.35 165.01,-120.02 166.48,-126.87"/>
</g>
<!-- set_marker_node_Set(3) -->
<!-- set_marker_node_Set(9) -->
<!-- set_marker_node_Set(3)&#45;&gt;set_marker_node_Set(9) -->
<g id="edge4" class="edge">
<title>set_marker_node_Set(3)&#45;&gt;set_marker_node_Set(9)</title>
<path fill="none" stroke="white" d="M405,-112C407.88,-112 410.78,-112 413.68,-112"/>
<polygon fill="white" stroke="white" points="413.49,-115.5 423.49,-112 413.49,-108.5 413.49,-115.5"/>
</g>
<!-- set_marker_node_Set(11) -->
<!-- set_marker_node_Set(4)&#45;&gt;set_marker_node_Set(11) -->
<g id="edge8" class="edge">
<title>set_marker_node_Set(4)&#45;&gt;set_marker_node_Set(11)</title>
<path fill="none" stroke="white" d="M873,-112C875.92,-112 878.88,-112 881.82,-112"/>
<polygon fill="white" stroke="white" points="881.49,-115.5 891.49,-112 881.49,-108.5 881.49,-115.5"/>
</g>
<!-- set_marker_node_Set(5) -->
<!-- set_marker_node_Set(12) -->
<!-- set_marker_node_Set(5)&#45;&gt;set_marker_node_Set(12) -->
<g id="edge10" class="edge">
<title>set_marker_node_Set(5)&#45;&gt;set_marker_node_Set(12)</title>
<path fill="none" stroke="white" d="M1135,-142.52C1137.83,-142.32 1140.74,-142.12 1143.7,-141.91"/>
<polygon fill="white" stroke="white" points="1143.76,-145.41 1153.49,-141.22 1143.27,-138.43 1143.76,-145.41"/>
</g>
<!-- set_marker_node_Set(6) -->
<!-- set_marker_node_Set(7) -->
<!-- set_marker_node_Set(7)&#45;&gt;set_marker_node_Set(2) -->
<g id="edge1" class="edge">
<title>set_marker_node_Set(7)&#45;&gt;set_marker_node_Set(2)</title>
<path fill="none" stroke="white" d="M46,-117.34C52.44,-119.18 59.5,-121.18 66,-123 67.17,-123.33 68.36,-123.66 69.55,-123.99"/>
<polygon fill="white" stroke="white" points="68.45,-127.32 79.02,-126.6 70.31,-120.57 68.45,-127.32"/>
</g>
<!-- set_marker_node_Set(58) -->
<!-- set_marker_node_Set(7)&#45;&gt;set_marker_node_Set(58) -->
<g id="edge13" class="edge">
<title>set_marker_node_Set(7)&#45;&gt;set_marker_node_Set(58)</title>
<path fill="none" stroke="white" d="M46,-105.12C48.89,-104.34 51.94,-103.53 55.09,-102.68"/>
<polygon fill="white" stroke="white" points="55.78,-106.12 64.54,-100.16 53.98,-99.36 55.78,-106.12"/>
</g>
<!-- set_marker_node_Set(8)&#45;&gt;set_marker_node_Set(3) -->
<g id="edge3" class="edge">
<title>set_marker_node_Set(8)&#45;&gt;set_marker_node_Set(3)</title>
<path fill="none" stroke="white" d="M263,-112C265.78,-112 268.62,-112 271.49,-112"/>
<polygon fill="white" stroke="white" points="271.49,-115.5 281.49,-112 271.49,-108.5 271.49,-115.5"/>
</g>
<!-- set_marker_node_Set(10) -->
<!-- set_marker_node_Set(9)&#45;&gt;set_marker_node_Set(10) -->
<g id="edge5" class="edge">
<title>set_marker_node_Set(9)&#45;&gt;set_marker_node_Set(10)</title>
<path fill="none" stroke="white" d="M547,-112C549.86,-112 552.74,-112 555.6,-112"/>
<polygon fill="white" stroke="white" points="555.49,-115.5 565.49,-112 555.49,-108.5 555.49,-115.5"/>
</g>
<!-- set_marker_node_Set(10)&#45;&gt;set_marker_node_Set(0) -->
<g id="edge6" class="edge">
<title>set_marker_node_Set(10)&#45;&gt;set_marker_node_Set(0)</title>
<path fill="none" stroke="white" d="M667,-112C669.85,-112 672.71,-112 675.54,-112"/>
<polygon fill="white" stroke="white" points="675.49,-115.5 685.49,-112 675.49,-108.5 675.49,-115.5"/>
</g>
<!-- set_marker_node_Set(11)&#45;&gt;set_marker_node_Set(5) -->
<g id="edge9" class="edge">
<title>set_marker_node_Set(11)&#45;&gt;set_marker_node_Set(5)</title>
<path fill="none" stroke="white" d="M986,-128.99C992.66,-131.17 999.47,-133.25 1006,-135 1007.85,-135.5 1009.74,-135.98 1011.65,-136.45"/>
<polygon fill="white" stroke="white" points="1010.75,-139.84 1021.28,-138.66 1012.32,-133.01 1010.75,-139.84"/>
</g>
<!-- set_marker_node_Set(59) -->
<!-- set_marker_node_Set(11)&#45;&gt;set_marker_node_Set(59) -->
<g id="edge14" class="edge">
<title>set_marker_node_Set(11)&#45;&gt;set_marker_node_Set(59)</title>
<path fill="none" stroke="white" d="M986,-107.72C994.06,-106.97 1002.54,-106.18 1010.87,-105.41"/>
<polygon fill="white" stroke="white" points="1010.86,-108.92 1020.5,-104.51 1010.22,-101.95 1010.86,-108.92"/>
</g>
<!-- set_marker_node_Set(12)&#45;&gt;set_marker_node_Set(6) -->
<g id="edge11" class="edge">
<title>set_marker_node_Set(12)&#45;&gt;set_marker_node_Set(6)</title>
<path fill="none" stroke="white" d="M1646,-124C1648.91,-124 1651.74,-124 1654.5,-124"/>
<polygon fill="white" stroke="white" points="1654.49,-127.5 1664.49,-124 1654.49,-120.5 1654.49,-127.5"/>
</g>
<!-- node_System(10) -->
<g id="node13" class="node">
<title>node_System(10)</title>
<polygon fill="#eff1f3" stroke="#eff1f3" points="1631,-106 1170,-106 1170,-70 1631,-70 1631,-106"/>
<text text-anchor="middle" x="1400.5" y="-84.3" font-family="Times,serif" font-size="14.00">check_hierarchy_component_has_valid_parent&lt;GlobalTransform&gt;</text>
</g>
<!-- node_System(62) -->
<g id="node14" class="node">
<title>node_System(62)</title>
<polygon fill="#eff1f3" stroke="#eff1f3" points="1638,-52 1163,-52 1163,-16 1638,-16 1638,-52"/>
<text text-anchor="middle" x="1400.5" y="-30.3" font-family="Times,serif" font-size="14.00">check_hierarchy_component_has_valid_parent&lt;ComputedVisibility&gt;</text>
</g>
<!-- set_marker_node_Set(58)&#45;&gt;set_marker_node_Set(8) -->
<g id="edge12" class="edge">
<title>set_marker_node_Set(58)&#45;&gt;set_marker_node_Set(8)</title>
<path fill="none" stroke="white" d="M157,-98.09C162.09,-99.24 167.29,-100.4 172.4,-101.55"/>
<polygon fill="white" stroke="white" points="171.35,-104.9 181.87,-103.67 172.88,-98.07 171.35,-104.9"/>
</g>
<!-- set_marker_node_Set(59)&#45;&gt;set_marker_node_Set(12) -->
<g id="edge15" class="edge">
<title>set_marker_node_Set(59)&#45;&gt;set_marker_node_Set(12)</title>
<path fill="none" stroke="white" d="M1118,-109.59C1126.31,-111.06 1135.07,-112.47 1143.67,-113.62"/>
<polygon fill="white" stroke="white" points="1143.15,-117.09 1153.5,-114.82 1143.99,-110.14 1143.15,-117.09"/>
</g>
</g>
</svg>
