<?xml version="1.0" encoding="UTF-8" standalone="no"?>
<!DOCTYPE svg PUBLIC "-//W3C//DTD SVG 1.1//EN"
 "http://www.w3.org/Graphics/SVG/1.1/DTD/svg11.dtd">
<!-- Generated by graphviz version 7.0.6 (0)
 -->
<!-- Title: schedule Pages: 1 -->
<svg width="2052pt" height="557pt"
 viewBox="0.00 0.00 2052.00 557.00" xmlns="http://www.w3.org/2000/svg" xmlns:xlink="http://www.w3.org/1999/xlink">
<g id="graph0" class="graph" transform="scale(1 1) rotate(0) translate(4 553)">
<title>schedule</title>
<polygon fill="white" stroke="none" points="-4,4 -4,-553 2048,-553 2048,4 -4,4"/>
<g id="clust1" class="cluster">
<title>clusternode_Set(1)</title>
<polygon fill="none" stroke="black" points="71,-120 71,-159 155,-159 155,-120 71,-120"/>
<text text-anchor="middle" x="113" y="-143.8" font-family="Times,serif" font-size="14.00">FirstFlush</text>
</g>
<g id="clust2" class="cluster">
<title>clusternode_Set(2)</title>
<polygon fill="none" stroke="black" points="287,-102 287,-141 410,-141 410,-102 287,-102"/>
<text text-anchor="middle" x="348.5" y="-125.8" font-family="Times,serif" font-size="14.00">PreUpdateFlush</text>
</g>
<g id="clust3" class="cluster">
<title>clusternode_Set(3)</title>
<polygon fill="none" stroke="black" points="881,-102 881,-141 982,-141 982,-102 881,-102"/>
<text text-anchor="middle" x="931.5" y="-125.8" font-family="Times,serif" font-size="14.00">UpdateFlush</text>
</g>
<g id="clust4" class="cluster">
<title>clusternode_Set(4)</title>
<polygon fill="none" stroke="black" points="1266,-55 1266,-94 1394,-94 1394,-55 1266,-55"/>
<text text-anchor="middle" x="1330" y="-78.8" font-family="Times,serif" font-size="14.00">PostUpdateFlush</text>
</g>
<g id="clust5" class="cluster">
<title>clusternode_Set(5)</title>
<polygon fill="none" stroke="black" points="1919,-20 1919,-59 2001,-59 2001,-20 1919,-20"/>
<text text-anchor="middle" x="1960" y="-43.8" font-family="Times,serif" font-size="14.00">LastFlush</text>
</g>
<g id="clust6" class="cluster">
<title>clusternode_Set(6)</title>
<polygon fill="none" stroke="black" points="0,-99 0,-138 47,-138 47,-99 0,-99"/>
<text text-anchor="middle" x="23.5" y="-122.8" font-family="Times,serif" font-size="14.00">First</text>
</g>
<g id="clust7" class="cluster">
<title>clusternode_Set(7)</title>
<polygon fill="none" stroke="black" points="180,-102 180,-141 266,-141 266,-102 180,-102"/>
<text text-anchor="middle" x="223" y="-125.8" font-family="Times,serif" font-size="14.00">PreUpdate</text>
</g>
<g id="clust8" class="cluster">
<title>clusternode_Set(8)</title>
<polygon fill="none" stroke="black" points="431,-102 431,-141 556,-141 556,-102 431,-102"/>
<text text-anchor="middle" x="493.5" y="-125.8" font-family="Times,serif" font-size="14.00">StateTransitions</text>
</g>
<g id="clust9" class="cluster">
<title>clusternode_Set(9)</title>
<polygon fill="none" stroke="black" points="577,-102 577,-141 678,-141 678,-102 577,-102"/>
<text text-anchor="middle" x="627.5" y="-125.8" font-family="Times,serif" font-size="14.00">FixedUpdate</text>
</g>
<g id="clust10" class="cluster">
<title>clusternode_Set(10)</title>
<polygon fill="none" stroke="black" points="697,-102 697,-244 862,-244 862,-102 697,-102"/>
<text text-anchor="middle" x="779.5" y="-228.8" font-family="Times,serif" font-size="14.00">Update</text>
</g>
<g id="clust11" class="cluster">
<title>clusternode_Set(81)</title>
<polygon fill="none" stroke="black" points="705,-120 705,-213 854,-213 854,-120 705,-120"/>
<text text-anchor="middle" x="779.5" y="-197.8" font-family="Times,serif" font-size="14.00">CalculateBounds</text>
</g>
<g id="clust12" class="cluster">
<title>clusternode_Set(11)</title>
<polygon fill="none" stroke="black" points="1001,-102 1001,-541 2036,-541 2036,-102 1001,-102"/>
<text text-anchor="middle" x="1518.5" y="-525.8" font-family="Times,serif" font-size="14.00">PostUpdate</text>
</g>
<g id="clust13" class="cluster">
<title>clusternode_Set(20)</title>
<polygon fill="none" stroke="black" points="1252,-322 1252,-361 1408,-361 1408,-322 1252,-322"/>
<text text-anchor="middle" x="1330" y="-345.8" font-family="Times,serif" font-size="14.00">TransformPropagate</text>
</g>
<g id="clust14" class="cluster">
<title>clusternode_Set(70)</title>
<polygon fill="none" stroke="black" points="1009,-185 1009,-224 1146,-224 1146,-185 1009,-185"/>
<text text-anchor="middle" x="1077.5" y="-208.8" font-family="Times,serif" font-size="14.00">ModifiesWindows</text>
</g>
<g id="clust15" class="cluster">
<title>clusternode_Set(77)</title>
<polygon fill="none" stroke="black" points="1175,-113 1175,-314 1485,-314 1485,-113 1175,-113"/>
<text text-anchor="middle" x="1330" y="-298.8" font-family="Times,serif" font-size="14.00">CameraUpdateSystem</text>
</g>
<g id="clust16" class="cluster">
<title>clusternode_Set(82)</title>
<polygon fill="none" stroke="black" points="1506,-110 1506,-203 1806,-203 1806,-110 1506,-110"/>
<text text-anchor="middle" x="1656" y="-187.8" font-family="Times,serif" font-size="14.00">UpdateOrthographicFrusta</text>
</g>
<g id="clust17" class="cluster">
<title>clusternode_Set(83)</title>
<polygon fill="none" stroke="black" points="1512.5,-211 1512.5,-304 1799.5,-304 1799.5,-211 1512.5,-211"/>
<text text-anchor="middle" x="1656" y="-288.8" font-family="Times,serif" font-size="14.00">UpdatePerspectiveFrusta</text>
</g>
<g id="clust18" class="cluster">
<title>clusternode_Set(84)</title>
<polygon fill="none" stroke="black" points="1568,-471 1568,-510 1744,-510 1744,-471 1568,-471"/>
<text text-anchor="middle" x="1656" y="-494.8" font-family="Times,serif" font-size="14.00">UpdateProjectionFrusta</text>
</g>
<g id="clust19" class="cluster">
<title>clusternode_Set(85)</title>
<polygon fill="none" stroke="black" points="1892,-394 1892,-487 2028,-487 2028,-394 1892,-394"/>
<text text-anchor="middle" x="1960" y="-471.8" font-family="Times,serif" font-size="14.00">CheckVisibility</text>
</g>
<g id="clust20" class="cluster">
<title>clusternode_Set(86)</title>
<polygon fill="none" stroke="black" points="1546.5,-358 1546.5,-451 1765.5,-451 1765.5,-358 1546.5,-358"/>
<text text-anchor="middle" x="1656" y="-435.8" font-family="Times,serif" font-size="14.00">VisibilityPropagate</text>
</g>
<g id="clust21" class="cluster">
<title>clusternode_Set(12)</title>
<polygon fill="none" stroke="black" points="1634,-20 1634,-59 1679,-59 1679,-20 1634,-20"/>
<text text-anchor="middle" x="1656.5" y="-43.8" font-family="Times,serif" font-size="14.00">Last</text>
</g>
<g id="clust22" class="cluster">
<title>clusternode_Set(58)</title>
<polygon fill="none" stroke="black" points="68,-73 68,-112 159,-112 159,-73 68,-73"/>
<text text-anchor="middle" x="113.5" y="-96.8" font-family="Times,serif" font-size="14.00">LoadAssets</text>
</g>
<g id="clust23" class="cluster">
<title>clusternode_Set(59)</title>
<polygon fill="none" stroke="black" points="1282,-8 1282,-47 1378,-47 1378,-8 1282,-8"/>
<text text-anchor="middle" x="1330" y="-31.8" font-family="Times,serif" font-size="14.00">AssetEvents</text>
</g>
<!-- set_marker_node_Set(1) -->
<!-- set_marker_node_Set(7) -->
<!-- set_marker_node_Set(1)&#45;&gt;set_marker_node_Set(7) -->
<g id="edge2" class="edge">
<title>set_marker_node_Set(1)&#45;&gt;set_marker_node_Set(7)</title>
<path fill="none" stroke="black" d="M155,-121.17C159.51,-120.42 164.14,-119.64 168.77,-118.87"/>
<polygon fill="black" stroke="black" points="169.22,-122.34 178.51,-117.25 168.07,-115.44 169.22,-122.34"/>
</g>
<!-- set_marker_node_Set(2) -->
<!-- set_marker_node_Set(8) -->
<!-- set_marker_node_Set(2)&#45;&gt;set_marker_node_Set(8) -->
<g id="edge4" class="edge">
<title>set_marker_node_Set(2)&#45;&gt;set_marker_node_Set(8)</title>
<path fill="none" stroke="black" d="M410,-110C413.26,-110 416.56,-110 419.86,-110"/>
<polygon fill="black" stroke="black" points="419.49,-113.5 429.49,-110 419.49,-106.5 419.49,-113.5"/>
</g>
<!-- set_marker_node_Set(3) -->
<!-- set_marker_node_Set(11) -->
<!-- set_marker_node_Set(3)&#45;&gt;set_marker_node_Set(11) -->
<g id="edge8" class="edge">
<title>set_marker_node_Set(3)&#45;&gt;set_marker_node_Set(11)</title>
<path fill="none" stroke="black" d="M982,-110C984.49,-110 987.02,-110 989.58,-110"/>
<polygon fill="black" stroke="black" points="989.49,-113.5 999.49,-110 989.49,-106.5 989.49,-113.5"/>
</g>
<!-- set_marker_node_Set(4) -->
<!-- set_marker_node_Set(12) -->
<!-- set_marker_node_Set(4)&#45;&gt;set_marker_node_Set(12) -->
<g id="edge10" class="edge">
<title>set_marker_node_Set(4)&#45;&gt;set_marker_node_Set(12)</title>
<path fill="none" stroke="black" d="M1394,-58.9C1421.91,-56.88 1455.13,-54.18 1485,-51 1533.16,-45.87 1588.74,-37.98 1622.87,-32.9"/>
<polygon fill="black" stroke="black" points="1623.14,-36.4 1632.51,-31.46 1622.1,-29.48 1623.14,-36.4"/>
</g>
<!-- set_marker_node_Set(5) -->
<!-- set_marker_node_Set(6) -->
<!-- set_marker_node_Set(6)&#45;&gt;set_marker_node_Set(1) -->
<g id="edge1" class="edge">
<title>set_marker_node_Set(6)&#45;&gt;set_marker_node_Set(1)</title>
<path fill="none" stroke="black" d="M47,-112.49C53.33,-114 60.41,-115.69 67.51,-117.38"/>
<polygon fill="black" stroke="black" points="66.47,-120.73 77.01,-119.65 68.1,-113.92 66.47,-120.73"/>
</g>
<!-- set_marker_node_Set(58) -->
<!-- set_marker_node_Set(6)&#45;&gt;set_marker_node_Set(58) -->
<g id="edge13" class="edge">
<title>set_marker_node_Set(6)&#45;&gt;set_marker_node_Set(58)</title>
<path fill="none" stroke="black" d="M47,-100.2C50.21,-99.26 53.61,-98.25 57.12,-97.22"/>
<polygon fill="black" stroke="black" points="57.95,-100.62 66.55,-94.43 55.97,-93.9 57.95,-100.62"/>
</g>
<!-- set_marker_node_Set(7)&#45;&gt;set_marker_node_Set(2) -->
<g id="edge3" class="edge">
<title>set_marker_node_Set(7)&#45;&gt;set_marker_node_Set(2)</title>
<path fill="none" stroke="black" d="M266,-110C269.16,-110 272.4,-110 275.68,-110"/>
<polygon fill="black" stroke="black" points="275.49,-113.5 285.49,-110 275.49,-106.5 275.49,-113.5"/>
</g>
<!-- set_marker_node_Set(9) -->
<!-- set_marker_node_Set(8)&#45;&gt;set_marker_node_Set(9) -->
<g id="edge5" class="edge">
<title>set_marker_node_Set(8)&#45;&gt;set_marker_node_Set(9)</title>
<path fill="none" stroke="black" d="M556,-110C559.22,-110 562.46,-110 565.69,-110"/>
<polygon fill="black" stroke="black" points="565.49,-113.5 575.49,-110 565.49,-106.5 565.49,-113.5"/>
</g>
<!-- set_marker_node_Set(10) -->
<!-- set_marker_node_Set(9)&#45;&gt;set_marker_node_Set(10) -->
<g id="edge6" class="edge">
<title>set_marker_node_Set(9)&#45;&gt;set_marker_node_Set(10)</title>
<path fill="none" stroke="black" d="M678,-110C680.58,-110 683.21,-110 685.86,-110"/>
<polygon fill="black" stroke="black" points="685.49,-113.5 695.49,-110 685.49,-106.5 685.49,-113.5"/>
</g>
<!-- set_marker_node_Set(10)&#45;&gt;set_marker_node_Set(3) -->
<g id="edge7" class="edge">
<title>set_marker_node_Set(10)&#45;&gt;set_marker_node_Set(3)</title>
<path fill="none" stroke="black" d="M862,-110C864.53,-110 867.05,-110 869.55,-110"/>
<polygon fill="black" stroke="black" points="869.49,-113.5 879.49,-110 869.49,-106.5 869.49,-113.5"/>
</g>
<!-- set_marker_node_Set(81) -->
<!-- node_System(66) -->
<g id="node12" class="node">
<title>node_System(66)</title>
<polygon fill="none" stroke="black" points="846,-164 713,-164 713,-128 846,-128 846,-164"/>
<text text-anchor="middle" x="779.5" y="-142.3" font-family="Times,serif" font-size="14.00">calculate_bounds</text>
</g>
<!-- set_marker_node_Set(11)&#45;&gt;set_marker_node_Set(4) -->
<g id="edge9" class="edge">
<title>set_marker_node_Set(11)&#45;&gt;set_marker_node_Set(4)</title>
<path fill="none" stroke="black" d="M1120.72,-102C1157.45,-95.12 1211.26,-85.05 1254.98,-76.86"/>
<polygon fill="black" stroke="black" points="1255.33,-80.36 1264.52,-75.07 1254.04,-73.48 1255.33,-80.36"/>
</g>
<!-- set_marker_node_Set(59) -->
<!-- set_marker_node_Set(11)&#45;&gt;set_marker_node_Set(59) -->
<g id="edge14" class="edge">
<title>set_marker_node_Set(11)&#45;&gt;set_marker_node_Set(59)</title>
<path fill="none" stroke="black" d="M1088.53,-102C1105.71,-89.33 1141.26,-64.67 1175,-51 1205.65,-38.58 1241.6,-30.1 1271.06,-24.59"/>
<polygon fill="black" stroke="black" points="1271.29,-28.11 1280.51,-22.9 1270.05,-21.22 1271.29,-28.11"/>
</g>
<!-- set_marker_node_Set(20) -->
<!-- node_System(67) -->
<g id="node21" class="node">
<title>node_System(67)</title>
<polygon fill="none" stroke="black" points="1798,-154 1514,-154 1514,-118 1798,-118 1798,-154"/>
<text text-anchor="middle" x="1656" y="-132.3" font-family="Times,serif" font-size="14.00">update_frusta&lt;OrthographicProjection&gt;</text>
</g>
<!-- set_marker_node_Set(20)&#45;&gt;node_System(67) -->
<g id="edge20" class="edge">
<title>set_marker_node_Set(20)&#45;&gt;node_System(67)</title>
<path fill="none" stroke="black" d="M1408,-342.59C1435.54,-342.72 1464.74,-337.14 1485,-318 1497.63,-306.07 1493.99,-175.56 1506,-163 1506.37,-162.61 1506.75,-162.22 1507.14,-161.84"/>
<polygon fill="black" stroke="black" points="1509.25,-164.64 1514.51,-155.44 1504.66,-159.35 1509.25,-164.64"/>
</g>
<!-- node_System(68) -->
<g id="node23" class="node">
<title>node_System(68)</title>
<polygon fill="none" stroke="black" points="1791.5,-255 1520.5,-255 1520.5,-219 1791.5,-219 1791.5,-255"/>
<text text-anchor="middle" x="1656" y="-233.3" font-family="Times,serif" font-size="14.00">update_frusta&lt;PerspectiveProjection&gt;</text>
</g>
<!-- set_marker_node_Set(20)&#45;&gt;node_System(68) -->
<g id="edge22" class="edge">
<title>set_marker_node_Set(20)&#45;&gt;node_System(68)</title>
<path fill="none" stroke="black" d="M1408,-342.13C1435.36,-342.15 1464.44,-336.62 1485,-318 1503.74,-301.03 1476.93,-279.68 1495,-262 1499.58,-257.51 1504.62,-253.63 1510,-250.27"/>
<polygon fill="black" stroke="black" points="1511.59,-253.39 1518.68,-245.52 1508.23,-247.25 1511.59,-253.39"/>
</g>
<!-- node_System(71) -->
<g id="node26" class="node">
<title>node_System(71)</title>
<polygon fill="none" stroke="black" points="2020,-438 1900,-438 1900,-402 2020,-402 2020,-438"/>
<text text-anchor="middle" x="1960" y="-416.3" font-family="Times,serif" font-size="14.00">check_visibility</text>
</g>
<!-- set_marker_node_Set(20)&#45;&gt;node_System(71) -->
<g id="edge29" class="edge">
<title>set_marker_node_Set(20)&#45;&gt;node_System(71)</title>
<path fill="none" stroke="black" d="M1359.19,-361C1389.33,-391.63 1440.24,-436.51 1495,-455 1560.48,-477.11 1737.33,-462.75 1806,-455 1833.24,-451.92 1862.7,-445.86 1888.43,-439.63"/>
<polygon fill="black" stroke="black" points="1889.26,-443.03 1898.12,-437.23 1887.57,-436.24 1889.26,-443.03"/>
</g>
<!-- node_System(69) -->
<g id="node29" class="node">
<title>node_System(69)</title>
<polygon fill="none" stroke="black" points="1753,-348 1559,-348 1559,-312 1753,-312 1753,-348"/>
<text text-anchor="middle" x="1656" y="-326.3" font-family="Times,serif" font-size="14.00">update_frusta&lt;Projection&gt;</text>
</g>
<!-- set_marker_node_Set(20)&#45;&gt;node_System(69) -->
<g id="edge24" class="edge">
<title>set_marker_node_Set(20)&#45;&gt;node_System(69)</title>
<path fill="none" stroke="black" d="M1408,-330C1449.58,-330 1501.58,-330 1547.14,-330"/>
<polygon fill="black" stroke="black" points="1547.12,-333.5 1557.12,-330 1547.12,-326.5 1547.12,-333.5"/>
</g>
<!-- set_marker_node_Set(70) -->
<!-- node_System(63) -->
<g id="node17" class="node">
<title>node_System(63)</title>
<polygon fill="none" stroke="black" points="1432,-265 1228,-265 1228,-229 1432,-229 1432,-265"/>
<text text-anchor="middle" x="1330" y="-243.3" font-family="Times,serif" font-size="14.00">camera_system&lt;Projection&gt;</text>
</g>
<!-- set_marker_node_Set(70)&#45;&gt;node_System(63) -->
<g id="edge16" class="edge">
<title>set_marker_node_Set(70)&#45;&gt;node_System(63)</title>
<path fill="none" stroke="black" d="M1146,-212.83C1155.7,-215.4 1165.57,-217.87 1175,-220 1188.37,-223.03 1202.46,-225.91 1216.46,-228.59"/>
<polygon fill="black" stroke="black" points="1215.69,-232 1226.17,-230.41 1216.99,-225.12 1215.69,-232"/>
</g>
<!-- node_System(64) -->
<g id="node18" class="node">
<title>node_System(64)</title>
<polygon fill="none" stroke="black" points="1477,-157 1183,-157 1183,-121 1477,-121 1477,-157"/>
<text text-anchor="middle" x="1330" y="-135.3" font-family="Times,serif" font-size="14.00">camera_system&lt;OrthographicProjection&gt;</text>
</g>
<!-- set_marker_node_Set(70)&#45;&gt;node_System(64) -->
<g id="edge17" class="edge">
<title>set_marker_node_Set(70)&#45;&gt;node_System(64)</title>
<path fill="none" stroke="black" d="M1146,-189C1161.37,-183.13 1159.99,-172.74 1175,-166 1178.81,-164.29 1182.73,-162.68 1186.71,-161.18"/>
<polygon fill="black" stroke="black" points="1187.71,-164.54 1195.99,-157.93 1185.4,-157.93 1187.71,-164.54"/>
</g>
<!-- node_System(65) -->
<g id="node19" class="node">
<title>node_System(65)</title>
<polygon fill="none" stroke="black" points="1470.5,-211 1189.5,-211 1189.5,-175 1470.5,-175 1470.5,-211"/>
<text text-anchor="middle" x="1330" y="-189.3" font-family="Times,serif" font-size="14.00">camera_system&lt;PerspectiveProjection&gt;</text>
</g>
<!-- set_marker_node_Set(70)&#45;&gt;node_System(65) -->
<g id="edge18" class="edge">
<title>set_marker_node_Set(70)&#45;&gt;node_System(65)</title>
<path fill="none" stroke="black" d="M1146,-193C1156.17,-193 1166.99,-193 1178.08,-193"/>
<polygon fill="black" stroke="black" points="1177.8,-196.5 1187.8,-193 1177.8,-189.5 1177.8,-196.5"/>
</g>
<!-- set_marker_node_Set(77) -->
<!-- node_System(63)&#45;&gt;node_System(69) -->
<g id="edge23" class="edge">
<title>node_System(63)&#45;&gt;node_System(69)</title>
<path fill="none" stroke="black" d="M1432.25,-252.26C1450.89,-256.59 1469.38,-263.42 1485,-274 1499.7,-283.96 1491.16,-298.24 1506,-308 1518.57,-316.27 1533.01,-321.93 1547.86,-325.75"/>
<polygon fill="black" stroke="black" points="1546.71,-329.08 1557.24,-327.87 1548.26,-322.25 1546.71,-329.08"/>
</g>
<!-- node_System(64)&#45;&gt;node_System(67) -->
<g id="edge19" class="edge">
<title>node_System(64)&#45;&gt;node_System(67)</title>
<path fill="none" stroke="black" d="M1477.36,-137.64C1485.66,-137.57 1494.02,-137.49 1502.34,-137.41"/>
<polygon fill="black" stroke="black" points="1502.18,-140.92 1512.15,-137.32 1502.12,-133.92 1502.18,-140.92"/>
</g>
<!-- node_System(65)&#45;&gt;node_System(68) -->
<g id="edge21" class="edge">
<title>node_System(65)&#45;&gt;node_System(68)</title>
<path fill="none" stroke="black" d="M1467,-211.47C1480.87,-213.35 1495,-215.27 1508.97,-217.17"/>
<polygon fill="black" stroke="black" points="1508.25,-220.6 1518.63,-218.48 1509.19,-213.67 1508.25,-220.6"/>
</g>
<!-- set_marker_node_Set(82) -->
<!-- set_marker_node_Set(82)&#45;&gt;node_System(71) -->
<g id="edge25" class="edge">
<title>set_marker_node_Set(82)&#45;&gt;node_System(71)</title>
<path fill="none" stroke="black" d="M1797.31,-203C1800.26,-204.28 1803.16,-205.61 1806,-207 1844.93,-225.98 1854.71,-234.37 1882,-268 1913.01,-306.22 1936.24,-358.97 1948.7,-391.21"/>
<polygon fill="black" stroke="black" points="1945.32,-392.16 1952.12,-400.29 1951.87,-389.7 1945.32,-392.16"/>
</g>
<!-- set_marker_node_Set(83) -->
<!-- set_marker_node_Set(83)&#45;&gt;node_System(71) -->
<g id="edge26" class="edge">
<title>set_marker_node_Set(83)&#45;&gt;node_System(71)</title>
<path fill="none" stroke="black" d="M1799.5,-268.87C1829.07,-273.89 1858.38,-283.85 1882,-302 1912.51,-325.45 1934.6,-364.64 1947.1,-391.37"/>
<polygon fill="black" stroke="black" points="1943.8,-392.57 1951.09,-400.26 1950.19,-389.7 1943.8,-392.57"/>
</g>
<!-- set_marker_node_Set(84) -->
<!-- set_marker_node_Set(84)&#45;&gt;node_System(71) -->
<g id="edge27" class="edge">
<title>set_marker_node_Set(84)&#45;&gt;node_System(71)</title>
<path fill="none" stroke="black" d="M1744,-492.44C1788.45,-494.87 1841.55,-490.52 1882,-465 1889.74,-460.12 1885.14,-453.06 1892,-447 1892.92,-446.19 1893.86,-445.4 1894.83,-444.64"/>
<polygon fill="black" stroke="black" points="1896.54,-447.7 1902.84,-439.18 1892.61,-441.92 1896.54,-447.7"/>
</g>
<!-- set_marker_node_Set(85) -->
<!-- set_marker_node_Set(86) -->
<!-- set_marker_node_Set(86)&#45;&gt;node_System(71) -->
<g id="edge28" class="edge">
<title>set_marker_node_Set(86)&#45;&gt;node_System(71)</title>
<path fill="none" stroke="black" d="M1765.5,-420C1806.45,-420 1851.93,-420 1888.51,-420"/>
<polygon fill="black" stroke="black" points="1888.29,-423.5 1898.29,-420 1888.29,-416.5 1888.29,-423.5"/>
</g>
<!-- node_System(70) -->
<g id="node28" class="node">
<title>node_System(70)</title>
<polygon fill="none" stroke="black" points="1757.5,-402 1554.5,-402 1554.5,-366 1757.5,-366 1757.5,-402"/>
<text text-anchor="middle" x="1656" y="-380.3" font-family="Times,serif" font-size="14.00">visibility_propagate_system</text>
</g>
<!-- node_System(69)&#45;&gt;node_System(71) -->
<g id="edge30" class="edge">
<title>node_System(69)&#45;&gt;node_System(71)</title>
<path fill="none" stroke="blue" d="M1753.16,-341.9C1770.91,-345.11 1789.15,-349.09 1806,-354 1847.52,-366.1 1892.73,-386.57 1923.15,-401.52"/>
<g id="a_edge30&#45;label"><a xlink:title="update_frusta&lt;Projection&gt; &#45;&#45; check_visibility">
<polygon fill="#d3d3d3" stroke="none" points="1818,-381.5 1818,-400.5 1880,-400.5 1880,-381.5 1818,-381.5"/>
<text text-anchor="start" x="1820" y="-387.3" font-family="Times,serif" font-size="14.00" fill="blue">Frustum</text>
</a>
</g>
</g>
<!-- set_marker_node_Set(12)&#45;&gt;set_marker_node_Set(5) -->
<g id="edge11" class="edge">
<title>set_marker_node_Set(12)&#45;&gt;set_marker_node_Set(5)</title>
<path fill="none" stroke="black" d="M1679,-28C1726.67,-28 1840.57,-28 1907.49,-28"/>
<polygon fill="black" stroke="black" points="1907.49,-31.5 1917.49,-28 1907.49,-24.5 1907.49,-31.5"/>
</g>
<!-- set_marker_node_Set(58)&#45;&gt;set_marker_node_Set(7) -->
<g id="edge12" class="edge">
<title>set_marker_node_Set(58)&#45;&gt;set_marker_node_Set(7)</title>
<path fill="none" stroke="black" d="M159,-93.08C166.35,-95.06 173.92,-97.09 181.16,-99.03"/>
<polygon fill="black" stroke="black" points="180.18,-102.4 190.75,-101.61 182,-95.63 180.18,-102.4"/>
</g>
<!-- set_marker_node_Set(59)&#45;&gt;set_marker_node_Set(12) -->
<g id="edge15" class="edge">
<title>set_marker_node_Set(59)&#45;&gt;set_marker_node_Set(12)</title>
<path fill="none" stroke="black" d="M1378,-17.74C1444.64,-20.21 1564.9,-24.66 1622.51,-26.8"/>
<polygon fill="black" stroke="black" points="1622.37,-30.29 1632.49,-27.17 1622.63,-23.3 1622.37,-30.29"/>
</g>
</g>
</svg>
