<?xml version="1.0" encoding="UTF-8" standalone="no"?>
<!DOCTYPE svg PUBLIC "-//W3C//DTD SVG 1.1//EN"
 "http://www.w3.org/Graphics/SVG/1.1/DTD/svg11.dtd">
<!-- Generated by graphviz version 7.0.6 (0)
 -->
<!-- Title: schedule Pages: 1 -->
<svg width="1891pt" height="453pt"
 viewBox="0.00 0.00 1891.00 453.00" xmlns="http://www.w3.org/2000/svg" xmlns:xlink="http://www.w3.org/1999/xlink">
<g id="graph0" class="graph" transform="scale(1 1) rotate(0) translate(4 449)">
<title>schedule</title>
<polygon fill="white" stroke="none" points="-4,4 -4,-449 1887,-449 1887,4 -4,4"/>
<g id="clust1" class="cluster">
<title>clusternode_Set(1)</title>
<polygon fill="none" stroke="black" points="70,-125 70,-164 154,-164 154,-125 70,-125"/>
<text text-anchor="middle" x="112" y="-148.8" font-family="Times,serif" font-size="14.00">FirstFlush</text>
</g>
<g id="clust2" class="cluster">
<title>clusternode_Set(2)</title>
<polygon fill="none" stroke="black" points="284,-102 284,-141 407,-141 407,-102 284,-102"/>
<text text-anchor="middle" x="345.5" y="-125.8" font-family="Times,serif" font-size="14.00">PreUpdateFlush</text>
</g>
<g id="clust3" class="cluster">
<title>clusternode_Set(3)</title>
<polygon fill="none" stroke="black" points="777,-102 777,-141 878,-141 878,-102 777,-102"/>
<text text-anchor="middle" x="827.5" y="-125.8" font-family="Times,serif" font-size="14.00">UpdateFlush</text>
</g>
<g id="clust4" class="cluster">
<title>clusternode_Set(4)</title>
<polygon fill="none" stroke="black" points="1172.5,-55 1172.5,-94 1300.5,-94 1300.5,-55 1172.5,-55"/>
<text text-anchor="middle" x="1236.5" y="-78.8" font-family="Times,serif" font-size="14.00">PostUpdateFlush</text>
</g>
<g id="clust5" class="cluster">
<title>clusternode_Set(5)</title>
<polygon fill="none" stroke="black" points="1718,-31 1718,-70 1800,-70 1800,-31 1718,-31"/>
<text text-anchor="middle" x="1759" y="-54.8" font-family="Times,serif" font-size="14.00">LastFlush</text>
</g>
<g id="clust6" class="cluster">
<title>clusternode_Set(6)</title>
<polygon fill="none" stroke="black" points="0,-101 0,-140 47,-140 47,-101 0,-101"/>
<text text-anchor="middle" x="23.5" y="-124.8" font-family="Times,serif" font-size="14.00">First</text>
</g>
<g id="clust7" class="cluster">
<title>clusternode_Set(7)</title>
<polygon fill="none" stroke="black" points="178,-102 178,-141 264,-141 264,-102 178,-102"/>
<text text-anchor="middle" x="221" y="-125.8" font-family="Times,serif" font-size="14.00">PreUpdate</text>
</g>
<g id="clust8" class="cluster">
<title>clusternode_Set(8)</title>
<polygon fill="none" stroke="black" points="427,-102 427,-141 552,-141 552,-102 427,-102"/>
<text text-anchor="middle" x="489.5" y="-125.8" font-family="Times,serif" font-size="14.00">StateTransitions</text>
</g>
<g id="clust9" class="cluster">
<title>clusternode_Set(9)</title>
<polygon fill="none" stroke="black" points="572,-102 572,-141 673,-141 673,-102 572,-102"/>
<text text-anchor="middle" x="622.5" y="-125.8" font-family="Times,serif" font-size="14.00">FixedUpdate</text>
</g>
<g id="clust10" class="cluster">
<title>clusternode_Set(10)</title>
<polygon fill="none" stroke="black" points="693,-102 693,-141 757,-141 757,-102 693,-102"/>
<text text-anchor="middle" x="725" y="-125.8" font-family="Times,serif" font-size="14.00">Update</text>
</g>
<g id="clust11" class="cluster">
<title>clusternode_Set(11)</title>
<polygon fill="none" stroke="black" points="898,-102 898,-437 1875,-437 1875,-102 898,-102"/>
<text text-anchor="middle" x="1386.5" y="-421.8" font-family="Times,serif" font-size="14.00">PostUpdate</text>
</g>
<g id="clust12" class="cluster">
<title>clusternode_Set(20)</title>
<polygon fill="none" stroke="black" points="910,-362 910,-401 1066,-401 1066,-362 910,-362"/>
<text text-anchor="middle" x="988" y="-385.8" font-family="Times,serif" font-size="14.00">TransformPropagate</text>
</g>
<g id="clust13" class="cluster">
<title>clusternode_Set(70)</title>
<polygon fill="none" stroke="black" points="920,-268 920,-307 1057,-307 1057,-268 920,-268"/>
<text text-anchor="middle" x="988.5" y="-291.8" font-family="Times,serif" font-size="14.00">ModifiesWindows</text>
</g>
<g id="clust14" class="cluster">
<title>clusternode_Set(77)</title>
<polygon fill="none" stroke="black" points="906,-315 906,-354 1070,-354 1070,-315 906,-315"/>
<text text-anchor="middle" x="988" y="-338.8" font-family="Times,serif" font-size="14.00">CameraUpdateSystem</text>
</g>
<g id="clust15" class="cluster">
<title>clusternode_Set(85)</title>
<polygon fill="none" stroke="black" points="930,-120 930,-159 1046,-159 1046,-120 930,-120"/>
<text text-anchor="middle" x="988" y="-143.8" font-family="Times,serif" font-size="14.00">CheckVisibility</text>
</g>
<g id="clust16" class="cluster">
<title>clusternode_Set(127)</title>
<polygon fill="none" stroke="black" points="930,-167 930,-260 1046,-260 1046,-167 930,-167"/>
<text text-anchor="middle" x="988" y="-244.8" font-family="Times,serif" font-size="14.00">AddClusters</text>
</g>
<g id="clust17" class="cluster">
<title>clusternode_Set(128)</title>
<polygon fill="none" stroke="black" points="1387,-182 1387,-383 1631,-383 1631,-182 1387,-182"/>
<text text-anchor="middle" x="1509" y="-367.8" font-family="Times,serif" font-size="14.00">UpdateLightFrusta</text>
</g>
<g id="clust18" class="cluster">
<title>clusternode_Set(129)</title>
<polygon fill="none" stroke="black" points="1138.5,-142 1138.5,-235 1334.5,-235 1334.5,-142 1138.5,-142"/>
<text text-anchor="middle" x="1236.5" y="-219.8" font-family="Times,serif" font-size="14.00">AssignLightsToClusters</text>
</g>
<g id="clust19" class="cluster">
<title>clusternode_Set(130)</title>
<polygon fill="none" stroke="black" points="1651,-313 1651,-406 1867,-406 1867,-313 1651,-313"/>
<text text-anchor="middle" x="1759" y="-390.8" font-family="Times,serif" font-size="14.00">CheckLightVisibility</text>
</g>
<g id="clust20" class="cluster">
<title>clusternode_Set(131)</title>
<polygon fill="none" stroke="black" points="1106,-243 1106,-336 1367,-336 1367,-243 1106,-243"/>
<text text-anchor="middle" x="1236.5" y="-320.8" font-family="Times,serif" font-size="14.00">UpdateDirectionalLightCascades</text>
</g>
<g id="clust21" class="cluster">
<title>clusternode_Set(12)</title>
<polygon fill="none" stroke="black" points="1487,-31 1487,-70 1532,-70 1532,-31 1487,-31"/>
<text text-anchor="middle" x="1509.5" y="-54.8" font-family="Times,serif" font-size="14.00">Last</text>
</g>
<g id="clust22" class="cluster">
<title>clusternode_Set(58)</title>
<polygon fill="none" stroke="black" points="67,-78 67,-117 158,-117 158,-78 67,-78"/>
<text text-anchor="middle" x="112.5" y="-101.8" font-family="Times,serif" font-size="14.00">LoadAssets</text>
</g>
<g id="clust23" class="cluster">
<title>clusternode_Set(59)</title>
<polygon fill="none" stroke="black" points="1188.5,-8 1188.5,-47 1284.5,-47 1284.5,-8 1188.5,-8"/>
<text text-anchor="middle" x="1236.5" y="-31.8" font-family="Times,serif" font-size="14.00">AssetEvents</text>
</g>
<!-- set_marker_node_Set(1) -->
<!-- set_marker_node_Set(7) -->
<!-- set_marker_node_Set(1)&#45;&gt;set_marker_node_Set(7) -->
<g id="edge2" class="edge">
<title>set_marker_node_Set(1)&#45;&gt;set_marker_node_Set(7)</title>
<path fill="none" stroke="black" d="M150.21,-125C155.62,-123.84 161.27,-122.62 166.92,-121.41"/>
<polygon fill="black" stroke="black" points="167.48,-124.87 176.53,-119.35 166.01,-118.02 167.48,-124.87"/>
</g>
<!-- set_marker_node_Set(2) -->
<!-- set_marker_node_Set(8) -->
<!-- set_marker_node_Set(2)&#45;&gt;set_marker_node_Set(8) -->
<g id="edge4" class="edge">
<title>set_marker_node_Set(2)&#45;&gt;set_marker_node_Set(8)</title>
<path fill="none" stroke="black" d="M407,-110C409.83,-110 412.68,-110 415.54,-110"/>
<polygon fill="black" stroke="black" points="415.49,-113.5 425.49,-110 415.49,-106.5 415.49,-113.5"/>
</g>
<!-- set_marker_node_Set(3) -->
<!-- set_marker_node_Set(11) -->
<!-- set_marker_node_Set(3)&#45;&gt;set_marker_node_Set(11) -->
<g id="edge8" class="edge">
<title>set_marker_node_Set(3)&#45;&gt;set_marker_node_Set(11)</title>
<path fill="none" stroke="black" d="M878,-110C880.82,-110 883.69,-110 886.61,-110"/>
<polygon fill="black" stroke="black" points="886.49,-113.5 896.49,-110 886.49,-106.5 886.49,-113.5"/>
</g>
<!-- set_marker_node_Set(4) -->
<!-- set_marker_node_Set(12) -->
<!-- set_marker_node_Set(4)&#45;&gt;set_marker_node_Set(12) -->
<g id="edge10" class="edge">
<title>set_marker_node_Set(4)&#45;&gt;set_marker_node_Set(12)</title>
<path fill="none" stroke="black" d="M1300.5,-57.41C1355.31,-52.55 1432.53,-45.7 1475.65,-41.87"/>
<polygon fill="black" stroke="black" points="1475.84,-45.37 1485.5,-41 1475.23,-38.39 1475.84,-45.37"/>
</g>
<!-- set_marker_node_Set(5) -->
<!-- set_marker_node_Set(6) -->
<!-- set_marker_node_Set(6)&#45;&gt;set_marker_node_Set(1) -->
<g id="edge1" class="edge">
<title>set_marker_node_Set(6)&#45;&gt;set_marker_node_Set(1)</title>
<path fill="none" stroke="black" d="M47,-115.44C53.47,-117.25 60.51,-119.21 67,-121 68.18,-121.33 69.37,-121.65 70.58,-121.99"/>
<polygon fill="black" stroke="black" points="69.56,-125.34 80.13,-124.6 71.41,-118.58 69.56,-125.34"/>
</g>
<!-- set_marker_node_Set(58) -->
<!-- set_marker_node_Set(6)&#45;&gt;set_marker_node_Set(58) -->
<g id="edge13" class="edge">
<title>set_marker_node_Set(6)&#45;&gt;set_marker_node_Set(58)</title>
<path fill="none" stroke="black" d="M47,-102.92C49.97,-102.13 53.11,-101.3 56.34,-100.45"/>
<polygon fill="black" stroke="black" points="56.77,-103.96 65.54,-98.02 54.98,-97.19 56.77,-103.96"/>
</g>
<!-- set_marker_node_Set(7)&#45;&gt;set_marker_node_Set(2) -->
<g id="edge3" class="edge">
<title>set_marker_node_Set(7)&#45;&gt;set_marker_node_Set(2)</title>
<path fill="none" stroke="black" d="M264,-110C266.78,-110 269.62,-110 272.49,-110"/>
<polygon fill="black" stroke="black" points="272.49,-113.5 282.49,-110 272.49,-106.5 272.49,-113.5"/>
</g>
<!-- set_marker_node_Set(9) -->
<!-- set_marker_node_Set(8)&#45;&gt;set_marker_node_Set(9) -->
<g id="edge5" class="edge">
<title>set_marker_node_Set(8)&#45;&gt;set_marker_node_Set(9)</title>
<path fill="none" stroke="black" d="M552,-110C554.93,-110 557.87,-110 560.8,-110"/>
<polygon fill="black" stroke="black" points="560.49,-113.5 570.49,-110 560.49,-106.5 560.49,-113.5"/>
</g>
<!-- set_marker_node_Set(10) -->
<!-- set_marker_node_Set(9)&#45;&gt;set_marker_node_Set(10) -->
<g id="edge6" class="edge">
<title>set_marker_node_Set(9)&#45;&gt;set_marker_node_Set(10)</title>
<path fill="none" stroke="black" d="M673,-110C675.93,-110 678.87,-110 681.76,-110"/>
<polygon fill="black" stroke="black" points="681.49,-113.5 691.49,-110 681.49,-106.5 681.49,-113.5"/>
</g>
<!-- set_marker_node_Set(10)&#45;&gt;set_marker_node_Set(3) -->
<g id="edge7" class="edge">
<title>set_marker_node_Set(10)&#45;&gt;set_marker_node_Set(3)</title>
<path fill="none" stroke="black" d="M757,-110C759.78,-110 762.64,-110 765.56,-110"/>
<polygon fill="black" stroke="black" points="765.49,-113.5 775.49,-110 765.49,-106.5 765.49,-113.5"/>
</g>
<!-- set_marker_node_Set(11)&#45;&gt;set_marker_node_Set(4) -->
<g id="edge9" class="edge">
<title>set_marker_node_Set(11)&#45;&gt;set_marker_node_Set(4)</title>
<path fill="none" stroke="black" d="M1030.95,-102C1066.58,-95.21 1118.59,-85.29 1161.24,-77.16"/>
<polygon fill="black" stroke="black" points="1161.85,-80.61 1171.01,-75.3 1160.54,-73.73 1161.85,-80.61"/>
</g>
<!-- set_marker_node_Set(59) -->
<!-- set_marker_node_Set(11)&#45;&gt;set_marker_node_Set(59) -->
<g id="edge14" class="edge">
<title>set_marker_node_Set(11)&#45;&gt;set_marker_node_Set(59)</title>
<path fill="none" stroke="black" d="M1002.58,-102C1023.97,-89.68 1067.09,-65.89 1106,-51 1128.85,-42.26 1154.75,-34.79 1177.36,-29.03"/>
<polygon fill="black" stroke="black" points="1178.17,-32.44 1187.03,-26.63 1176.48,-25.65 1178.17,-32.44"/>
</g>
<!-- set_marker_node_Set(20) -->
<!-- node_System(107) -->
<g id="node19" class="node">
<title>node_System(107)</title>
<polygon fill="none" stroke="black" points="1623,-226 1395,-226 1395,-190 1623,-190 1623,-226"/>
<text text-anchor="middle" x="1509" y="-204.3" font-family="Times,serif" font-size="14.00">update_directional_light_frusta</text>
</g>
<!-- set_marker_node_Set(20)&#45;&gt;node_System(107) -->
<g id="edge24" class="edge">
<title>set_marker_node_Set(20)&#45;&gt;node_System(107)</title>
<path fill="none" stroke="black" d="M1046.5,-362C1054.41,-360.75 1062.42,-359.4 1070,-358 1086.12,-355.02 1089.74,-352.1 1106,-350 1120.39,-348.14 1356,-349.46 1367,-340 1403.01,-309.02 1353.94,-269.11 1387,-235 1387.38,-234.6 1387.77,-234.21 1388.16,-233.83"/>
<polygon fill="black" stroke="black" points="1390.4,-236.52 1395.84,-227.43 1385.91,-231.15 1390.4,-236.52"/>
</g>
<!-- node_System(108) -->
<g id="node20" class="node">
<title>node_System(108)</title>
<polygon fill="none" stroke="black" points="1604,-280 1414,-280 1414,-244 1604,-244 1604,-280"/>
<text text-anchor="middle" x="1509" y="-258.3" font-family="Times,serif" font-size="14.00">update_point_light_frusta</text>
</g>
<!-- set_marker_node_Set(20)&#45;&gt;node_System(108) -->
<g id="edge26" class="edge">
<title>set_marker_node_Set(20)&#45;&gt;node_System(108)</title>
<path fill="none" stroke="black" d="M1066,-368.14C1173.08,-365.23 1355.26,-358.99 1367,-350 1389.65,-332.66 1365.87,-308.17 1387,-289 1391.95,-284.51 1397.49,-280.71 1403.39,-277.5"/>
<polygon fill="black" stroke="black" points="1404.72,-280.74 1412.25,-273.29 1401.72,-274.41 1404.72,-280.74"/>
</g>
<!-- node_System(109) -->
<g id="node21" class="node">
<title>node_System(109)</title>
<polygon fill="none" stroke="black" points="1600,-334 1418,-334 1418,-298 1600,-298 1600,-334"/>
<text text-anchor="middle" x="1509" y="-312.3" font-family="Times,serif" font-size="14.00">update_spot_light_frusta</text>
</g>
<!-- set_marker_node_Set(20)&#45;&gt;node_System(109) -->
<g id="edge28" class="edge">
<title>set_marker_node_Set(20)&#45;&gt;node_System(109)</title>
<path fill="none" stroke="black" d="M1066,-378.01C1161.01,-386.53 1316.22,-395.58 1367,-370 1380.34,-363.28 1374.48,-351.14 1387,-343 1393.24,-338.94 1400.01,-335.49 1407.05,-332.55"/>
<polygon fill="black" stroke="black" points="1407.98,-335.94 1416.1,-329.13 1405.5,-329.39 1407.98,-335.94"/>
</g>
<!-- node_System(105) -->
<g id="node23" class="node">
<title>node_System(105)</title>
<polygon fill="none" stroke="black" points="1326.5,-186 1146.5,-186 1146.5,-150 1326.5,-150 1326.5,-186"/>
<text text-anchor="middle" x="1236.5" y="-164.3" font-family="Times,serif" font-size="14.00">assign_lights_to_clusters</text>
</g>
<!-- set_marker_node_Set(20)&#45;&gt;node_System(105) -->
<g id="edge17" class="edge">
<title>set_marker_node_Set(20)&#45;&gt;node_System(105)</title>
<path fill="none" stroke="black" d="M1065.02,-362C1066.77,-360.79 1068.43,-359.46 1070,-358 1124.27,-307.42 1053.23,-247.15 1106,-195 1114.36,-186.74 1124.54,-180.71 1135.5,-176.33"/>
<polygon fill="black" stroke="black" points="1136.46,-179.71 1144.77,-173.13 1134.17,-173.09 1136.46,-179.71"/>
</g>
<!-- node_System(110) -->
<g id="node25" class="node">
<title>node_System(110)</title>
<polygon fill="none" stroke="black" points="1859,-357 1659,-357 1659,-321 1859,-321 1859,-357"/>
<text text-anchor="middle" x="1759" y="-335.3" font-family="Times,serif" font-size="14.00">check_light_mesh_visibility</text>
</g>
<!-- set_marker_node_Set(20)&#45;&gt;node_System(110) -->
<g id="edge30" class="edge">
<title>set_marker_node_Set(20)&#45;&gt;node_System(110)</title>
<path fill="none" stroke="black" d="M1066,-391.95C1190.55,-423.19 1441.4,-468.26 1631,-387 1642.85,-381.92 1639.87,-372.5 1651,-366 1653.34,-364.63 1655.74,-363.34 1658.2,-362.11"/>
<polygon fill="black" stroke="black" points="1659.54,-365.34 1667.2,-358.03 1656.65,-358.97 1659.54,-365.34"/>
</g>
<!-- node_System(106) -->
<g id="node27" class="node">
<title>node_System(106)</title>
<polygon fill="none" stroke="black" points="1359,-287 1114,-287 1114,-251 1359,-251 1359,-287"/>
<text text-anchor="middle" x="1236.5" y="-265.3" font-family="Times,serif" font-size="14.00">update_directional_light_cascades</text>
</g>
<!-- set_marker_node_Set(20)&#45;&gt;node_System(106) -->
<g id="edge21" class="edge">
<title>set_marker_node_Set(20)&#45;&gt;node_System(106)</title>
<path fill="none" stroke="black" d="M1063.15,-362C1065.52,-360.81 1067.82,-359.48 1070,-358 1096.37,-340.12 1080.16,-314.65 1106,-296 1107.4,-294.99 1108.82,-294.02 1110.28,-293.08"/>
<polygon fill="black" stroke="black" points="1111.97,-296.15 1118.9,-288.14 1108.48,-290.07 1111.97,-296.15"/>
</g>
<!-- set_marker_node_Set(70) -->
<!-- set_marker_node_Set(70)&#45;&gt;node_System(105) -->
<g id="edge20" class="edge">
<title>set_marker_node_Set(70)&#45;&gt;node_System(105)</title>
<path fill="none" stroke="black" d="M1057,-270.99C1061.61,-269.14 1066,-266.85 1070,-264 1098.18,-243.94 1078.42,-215.87 1106,-195 1114.79,-188.35 1124.84,-183.24 1135.36,-179.34"/>
<polygon fill="black" stroke="black" points="1136.18,-182.75 1144.58,-176.29 1133.98,-176.1 1136.18,-182.75"/>
</g>
<!-- set_marker_node_Set(77) -->
<!-- set_marker_node_Set(77)&#45;&gt;node_System(105) -->
<g id="edge19" class="edge">
<title>set_marker_node_Set(77)&#45;&gt;node_System(105)</title>
<path fill="none" stroke="black" d="M1064.59,-315C1066.48,-313.8 1068.29,-312.47 1070,-311 1110.99,-275.88 1066.05,-231.31 1106,-195 1114.56,-187.22 1124.78,-181.45 1135.65,-177.21"/>
<polygon fill="black" stroke="black" points="1136.49,-180.62 1144.82,-174.08 1134.23,-174 1136.49,-180.62"/>
</g>
<!-- set_marker_node_Set(77)&#45;&gt;node_System(106) -->
<g id="edge22" class="edge">
<title>set_marker_node_Set(77)&#45;&gt;node_System(106)</title>
<path fill="none" stroke="black" d="M1053.16,-315C1058.89,-313.83 1064.58,-312.51 1070,-311 1086.7,-306.36 1089.44,-301.13 1106,-296 1112.55,-293.97 1119.34,-292.05 1126.21,-290.24"/>
<polygon fill="black" stroke="black" points="1126.77,-293.71 1135.6,-287.85 1125.05,-286.92 1126.77,-293.71"/>
</g>
<!-- set_marker_node_Set(85) -->
<!-- set_marker_node_Set(85)&#45;&gt;node_System(107) -->
<g id="edge23" class="edge">
<title>set_marker_node_Set(85)&#45;&gt;node_System(107)</title>
<path fill="none" stroke="black" d="M1046,-126.51C1136.27,-124.66 1307.96,-123.32 1367,-138 1404.32,-147.28 1443.22,-167.51 1470.68,-183.84"/>
<polygon fill="black" stroke="black" points="1468.6,-186.67 1478.96,-188.87 1472.23,-180.69 1468.6,-186.67"/>
</g>
<!-- set_marker_node_Set(85)&#45;&gt;node_System(105) -->
<g id="edge18" class="edge">
<title>set_marker_node_Set(85)&#45;&gt;node_System(105)</title>
<path fill="none" stroke="black" d="M1046,-137.25C1072.48,-141.55 1104.76,-146.78 1135.12,-151.71"/>
<polygon fill="black" stroke="black" points="1134.33,-155.13 1144.76,-153.28 1135.45,-148.22 1134.33,-155.13"/>
</g>
<!-- set_marker_node_Set(85)&#45;&gt;node_System(110) -->
<g id="edge32" class="edge">
<title>set_marker_node_Set(85)&#45;&gt;node_System(110)</title>
<path fill="none" stroke="black" d="M1046,-125.43C1054.06,-124.99 1062.24,-124.51 1070,-124 1086.02,-122.94 1089.96,-121.67 1106,-121 1340.5,-111.25 1431.87,-53.77 1631,-178 1683.78,-210.93 1723.68,-273.92 1743.69,-310.59"/>
<polygon fill="black" stroke="black" points="1740.53,-312.11 1748.32,-319.29 1746.71,-308.82 1740.53,-312.11"/>
</g>
<!-- set_marker_node_Set(127) -->
<!-- node_System(103) -->
<g id="node17" class="node">
<title>node_System(103)</title>
<polygon fill="none" stroke="black" points="1038,-211 938,-211 938,-175 1038,-175 1038,-211"/>
<text text-anchor="middle" x="988" y="-189.3" font-family="Times,serif" font-size="14.00">add_clusters</text>
</g>
<!-- node_System(103)&#45;&gt;node_System(105) -->
<g id="edge16" class="edge">
<title>node_System(103)&#45;&gt;node_System(105)</title>
<path fill="none" stroke="black" d="M1038.29,-188C1066.06,-185.18 1101.78,-181.56 1135.17,-178.18"/>
<polygon fill="black" stroke="black" points="1135.29,-181.68 1144.89,-177.19 1134.59,-174.72 1135.29,-181.68"/>
</g>
<!-- set_marker_node_Set(128) -->
<!-- set_marker_node_Set(128)&#45;&gt;node_System(110) -->
<g id="edge31" class="edge">
<title>set_marker_node_Set(128)&#45;&gt;node_System(110)</title>
<path fill="none" stroke="black" d="M1631,-345.66C1636.5,-345.37 1642.01,-345.08 1647.48,-344.79"/>
<polygon fill="black" stroke="black" points="1647.42,-348.3 1657.22,-344.28 1647.05,-341.31 1647.42,-348.3"/>
</g>
<!-- set_marker_node_Set(129) -->
<!-- set_marker_node_Set(129)&#45;&gt;node_System(108) -->
<g id="edge27" class="edge">
<title>set_marker_node_Set(129)&#45;&gt;node_System(108)</title>
<path fill="none" stroke="black" d="M1334.5,-224.8C1359.34,-230.12 1386.05,-235.85 1410.9,-241.18"/>
<polygon fill="black" stroke="black" points="1410.06,-244.58 1420.57,-243.25 1411.53,-237.74 1410.06,-244.58"/>
</g>
<!-- set_marker_node_Set(129)&#45;&gt;node_System(109) -->
<g id="edge29" class="edge">
<title>set_marker_node_Set(129)&#45;&gt;node_System(109)</title>
<path fill="none" stroke="black" d="M1334.5,-219.33C1346.35,-224.21 1357.58,-230.62 1367,-239 1384.88,-254.91 1368.77,-273.49 1387,-289 1393.07,-294.17 1399.92,-298.4 1407.19,-301.87"/>
<polygon fill="black" stroke="black" points="1405.75,-305.06 1416.33,-305.69 1408.45,-298.6 1405.75,-305.06"/>
</g>
<!-- set_marker_node_Set(130) -->
<!-- set_marker_node_Set(131) -->
<!-- set_marker_node_Set(131)&#45;&gt;node_System(107) -->
<g id="edge25" class="edge">
<title>set_marker_node_Set(131)&#45;&gt;node_System(107)</title>
<path fill="none" stroke="black" d="M1367,-296C1389.51,-278.47 1365.87,-254.17 1387,-235 1387.77,-234.3 1388.55,-233.62 1389.34,-232.96"/>
<polygon fill="black" stroke="black" points="1391.05,-236.05 1397.09,-227.35 1386.94,-230.38 1391.05,-236.05"/>
</g>
<!-- set_marker_node_Set(12)&#45;&gt;set_marker_node_Set(5) -->
<g id="edge11" class="edge">
<title>set_marker_node_Set(12)&#45;&gt;set_marker_node_Set(5)</title>
<path fill="none" stroke="black" d="M1532,-39C1570.88,-39 1652.71,-39 1706.5,-39"/>
<polygon fill="black" stroke="black" points="1706.49,-42.5 1716.49,-39 1706.49,-35.5 1706.49,-42.5"/>
</g>
<!-- set_marker_node_Set(58)&#45;&gt;set_marker_node_Set(7) -->
<g id="edge12" class="edge">
<title>set_marker_node_Set(58)&#45;&gt;set_marker_node_Set(7)</title>
<path fill="none" stroke="black" d="M158,-96.09C163.09,-97.24 168.29,-98.4 173.4,-99.55"/>
<polygon fill="black" stroke="black" points="172.35,-102.9 182.87,-101.67 173.88,-96.07 172.35,-102.9"/>
</g>
<!-- set_marker_node_Set(59)&#45;&gt;set_marker_node_Set(12) -->
<g id="edge15" class="edge">
<title>set_marker_node_Set(59)&#45;&gt;set_marker_node_Set(12)</title>
<path fill="none" stroke="black" d="M1284.5,-20C1339.21,-24.65 1428.13,-32.21 1475.65,-36.25"/>
<polygon fill="black" stroke="black" points="1475.23,-39.73 1485.5,-37.09 1475.83,-32.75 1475.23,-39.73"/>
</g>
</g>
</svg>
