<?xml version="1.0" encoding="UTF-8" standalone="no"?>
<!DOCTYPE svg PUBLIC "-//W3C//DTD SVG 1.1//EN"
 "http://www.w3.org/Graphics/SVG/1.1/DTD/svg11.dtd">
<!-- Generated by graphviz version 7.0.6 (0)
 -->
<!-- Title: schedule Pages: 1 -->
<svg width="1403pt" height="206pt"
 viewBox="0.00 0.00 1403.00 206.00" xmlns="http://www.w3.org/2000/svg" xmlns:xlink="http://www.w3.org/1999/xlink">
<g id="graph0" class="graph" transform="scale(1 1) rotate(0) translate(4 202)">
<title>schedule</title>
<polygon fill="#0d1117" stroke="none" points="-4,4 -4,-202 1399,-202 1399,4 -4,4"/>
<g id="clust1" class="cluster">
<title>clusternode_Set(1)</title>
<polygon fill="#6f90ad" stroke="black" points="70,-125 70,-164 152,-164 152,-125 70,-125"/>
<text text-anchor="middle" x="111" y="-148.8" font-family="Helvetica,sans-Serif" font-size="14.00">FirstFlush</text>
</g>
<g id="clust2" class="cluster">
<title>clusternode_Set(2)</title>
<polygon fill="#6f90ad" stroke="black" points="283,-102 283,-141 405,-141 405,-102 283,-102"/>
<text text-anchor="middle" x="344" y="-125.8" font-family="Helvetica,sans-Serif" font-size="14.00">PreUpdateFlush</text>
</g>
<g id="clust3" class="cluster">
<title>clusternode_Set(3)</title>
<polygon fill="#6f90ad" stroke="black" points="772,-102 772,-141 873,-141 873,-102 772,-102"/>
<text text-anchor="middle" x="822.5" y="-125.8" font-family="Helvetica,sans-Serif" font-size="14.00">UpdateFlush</text>
</g>
<g id="clust4" class="cluster">
<title>clusternode_Set(4)</title>
<polygon fill="#6f90ad" stroke="black" points="1078.5,-55 1078.5,-94 1207.5,-94 1207.5,-55 1078.5,-55"/>
<text text-anchor="middle" x="1143" y="-78.8" font-family="Helvetica,sans-Serif" font-size="14.00">PostUpdateFlush</text>
</g>
<g id="clust5" class="cluster">
<title>clusternode_Set(5)</title>
<polygon fill="#6f90ad" stroke="black" points="1315,-31 1315,-70 1395,-70 1395,-31 1315,-31"/>
<text text-anchor="middle" x="1355" y="-54.8" font-family="Helvetica,sans-Serif" font-size="14.00">LastFlush</text>
</g>
<g id="clust6" class="cluster">
<title>clusternode_Set(6)</title>
<polygon fill="#6f90ad" stroke="black" points="0,-101 0,-140 46,-140 46,-101 0,-101"/>
<text text-anchor="middle" x="23" y="-124.8" font-family="Helvetica,sans-Serif" font-size="14.00">First</text>
</g>
<g id="clust7" class="cluster">
<title>clusternode_Set(7)</title>
<polygon fill="#6f90ad" stroke="black" points="177,-102 177,-141 263,-141 263,-102 177,-102"/>
<text text-anchor="middle" x="220" y="-125.8" font-family="Helvetica,sans-Serif" font-size="14.00">PreUpdate</text>
</g>
<g id="clust8" class="cluster">
<title>clusternode_Set(8)</title>
<polygon fill="#6f90ad" stroke="black" points="425,-102 425,-141 547,-141 547,-102 425,-102"/>
<text text-anchor="middle" x="486" y="-125.8" font-family="Helvetica,sans-Serif" font-size="14.00">StateTransitions</text>
</g>
<g id="clust9" class="cluster">
<title>clusternode_Set(9)</title>
<polygon fill="#6f90ad" stroke="black" points="567,-102 567,-141 667,-141 667,-102 567,-102"/>
<text text-anchor="middle" x="617" y="-125.8" font-family="Helvetica,sans-Serif" font-size="14.00">FixedUpdate</text>
</g>
<g id="clust10" class="cluster">
<title>clusternode_Set(10)</title>
<polygon fill="#6f90ad" stroke="black" points="687,-102 687,-141 752,-141 752,-102 687,-102"/>
<text text-anchor="middle" x="719.5" y="-125.8" font-family="Helvetica,sans-Serif" font-size="14.00">Update</text>
</g>
<g id="clust11" class="cluster">
<title>clusternode_Set(11)</title>
<polygon fill="#6f90ad" stroke="black" points="885,-102 885,-190 1231,-190 1231,-102 885,-102"/>
<text text-anchor="middle" x="1058" y="-174.8" font-family="Helvetica,sans-Serif" font-size="14.00">PostUpdate</text>
</g>
<g id="clust12" class="cluster">
<title>clusternode_Set(70)</title>
<polygon fill="#6f90ad" stroke="black" points="893,-120 893,-159 1026,-159 1026,-120 893,-120"/>
<text text-anchor="middle" x="959.5" y="-143.8" font-family="Helvetica,sans-Serif" font-size="14.00">ModifiesWindows</text>
</g>
<g id="clust13" class="cluster">
<title>clusternode_Set(12)</title>
<polygon fill="#6f90ad" stroke="black" points="1251,-31 1251,-70 1295,-70 1295,-31 1251,-31"/>
<text text-anchor="middle" x="1273" y="-54.8" font-family="Helvetica,sans-Serif" font-size="14.00">Last</text>
</g>
<g id="clust14" class="cluster">
<title>clusternode_Set(58)</title>
<polygon fill="#6f90ad" stroke="black" points="66,-78 66,-117 157,-117 157,-78 66,-78"/>
<text text-anchor="middle" x="111.5" y="-101.8" font-family="Helvetica,sans-Serif" font-size="14.00">LoadAssets</text>
</g>
<g id="clust15" class="cluster">
<title>clusternode_Set(59)</title>
<polygon fill="#6f90ad" stroke="black" points="1094.5,-8 1094.5,-47 1190.5,-47 1190.5,-8 1094.5,-8"/>
<text text-anchor="middle" x="1142.5" y="-31.8" font-family="Helvetica,sans-Serif" font-size="14.00">AssetEvents</text>
</g>
<!-- set_marker_node_Set(1) -->
<!-- set_marker_node_Set(7) -->
<!-- set_marker_node_Set(1)&#45;&gt;set_marker_node_Set(7) -->
<g id="edge2" class="edge">
<title>set_marker_node_Set(1)&#45;&gt;set_marker_node_Set(7)</title>
<path fill="none" stroke="white" d="M149.21,-125C154.62,-123.84 160.27,-122.62 165.92,-121.41"/>
<polygon fill="white" stroke="white" points="166.48,-124.87 175.53,-119.35 165.01,-118.02 166.48,-124.87"/>
</g>
<!-- set_marker_node_Set(2) -->
<!-- set_marker_node_Set(8) -->
<!-- set_marker_node_Set(2)&#45;&gt;set_marker_node_Set(8) -->
<g id="edge4" class="edge">
<title>set_marker_node_Set(2)&#45;&gt;set_marker_node_Set(8)</title>
<path fill="none" stroke="white" d="M405,-110C407.88,-110 410.78,-110 413.68,-110"/>
<polygon fill="white" stroke="white" points="413.49,-113.5 423.49,-110 413.49,-106.5 413.49,-113.5"/>
</g>
<!-- set_marker_node_Set(3) -->
<!-- set_marker_node_Set(11) -->
<!-- set_marker_node_Set(3)&#45;&gt;set_marker_node_Set(11) -->
<g id="edge8" class="edge">
<title>set_marker_node_Set(3)&#45;&gt;set_marker_node_Set(11)</title>
<path fill="none" stroke="white" d="M873,-110C873.19,-110 873.39,-110 873.59,-110"/>
<polygon fill="white" stroke="white" points="873.49,-113.5 883.49,-110 873.49,-106.5 873.49,-113.5"/>
</g>
<!-- set_marker_node_Set(4) -->
<!-- set_marker_node_Set(12) -->
<!-- set_marker_node_Set(4)&#45;&gt;set_marker_node_Set(12) -->
<g id="edge10" class="edge">
<title>set_marker_node_Set(4)&#45;&gt;set_marker_node_Set(12)</title>
<path fill="none" stroke="white" d="M1207.5,-55.34C1215.44,-54.06 1223.43,-52.62 1231,-51 1233.98,-50.36 1237.05,-49.62 1240.12,-48.83"/>
<polygon fill="white" stroke="white" points="1240.85,-52.26 1249.54,-46.2 1238.97,-45.52 1240.85,-52.26"/>
</g>
<!-- set_marker_node_Set(5) -->
<!-- set_marker_node_Set(6) -->
<!-- set_marker_node_Set(6)&#45;&gt;set_marker_node_Set(1) -->
<g id="edge1" class="edge">
<title>set_marker_node_Set(6)&#45;&gt;set_marker_node_Set(1)</title>
<path fill="none" stroke="white" d="M46,-115.34C52.44,-117.18 59.5,-119.18 66,-121 67.17,-121.33 68.36,-121.66 69.55,-121.99"/>
<polygon fill="white" stroke="white" points="68.45,-125.32 79.02,-124.6 70.31,-118.57 68.45,-125.32"/>
</g>
<!-- set_marker_node_Set(58) -->
<!-- set_marker_node_Set(6)&#45;&gt;set_marker_node_Set(58) -->
<g id="edge13" class="edge">
<title>set_marker_node_Set(6)&#45;&gt;set_marker_node_Set(58)</title>
<path fill="none" stroke="white" d="M46,-103.12C48.89,-102.34 51.94,-101.53 55.09,-100.68"/>
<polygon fill="white" stroke="white" points="55.78,-104.12 64.54,-98.16 53.98,-97.36 55.78,-104.12"/>
</g>
<!-- set_marker_node_Set(7)&#45;&gt;set_marker_node_Set(2) -->
<g id="edge3" class="edge">
<title>set_marker_node_Set(7)&#45;&gt;set_marker_node_Set(2)</title>
<path fill="none" stroke="white" d="M263,-110C265.78,-110 268.62,-110 271.49,-110"/>
<polygon fill="white" stroke="white" points="271.49,-113.5 281.49,-110 271.49,-106.5 271.49,-113.5"/>
</g>
<!-- set_marker_node_Set(9) -->
<!-- set_marker_node_Set(8)&#45;&gt;set_marker_node_Set(9) -->
<g id="edge5" class="edge">
<title>set_marker_node_Set(8)&#45;&gt;set_marker_node_Set(9)</title>
<path fill="none" stroke="white" d="M547,-110C549.86,-110 552.74,-110 555.6,-110"/>
<polygon fill="white" stroke="white" points="555.49,-113.5 565.49,-110 555.49,-106.5 555.49,-113.5"/>
</g>
<!-- set_marker_node_Set(10) -->
<!-- set_marker_node_Set(9)&#45;&gt;set_marker_node_Set(10) -->
<g id="edge6" class="edge">
<title>set_marker_node_Set(9)&#45;&gt;set_marker_node_Set(10)</title>
<path fill="none" stroke="white" d="M667,-110C669.85,-110 672.71,-110 675.54,-110"/>
<polygon fill="white" stroke="white" points="675.49,-113.5 685.49,-110 675.49,-106.5 675.49,-113.5"/>
</g>
<!-- set_marker_node_Set(10)&#45;&gt;set_marker_node_Set(3) -->
<g id="edge7" class="edge">
<title>set_marker_node_Set(10)&#45;&gt;set_marker_node_Set(3)</title>
<path fill="none" stroke="white" d="M752,-110C754.81,-110 757.71,-110 760.65,-110"/>
<polygon fill="white" stroke="white" points="760.49,-113.5 770.49,-110 760.49,-106.5 760.49,-113.5"/>
</g>
<!-- set_marker_node_Set(11)&#45;&gt;set_marker_node_Set(4) -->
<g id="edge9" class="edge">
<title>set_marker_node_Set(11)&#45;&gt;set_marker_node_Set(4)</title>
<path fill="none" stroke="white" d="M990.88,-102C1011.94,-96.55 1040.77,-89.08 1067.57,-82.15"/>
<polygon fill="white" stroke="white" points="1068.23,-85.59 1077.04,-79.69 1066.48,-78.81 1068.23,-85.59"/>
</g>
<!-- set_marker_node_Set(59) -->
<!-- set_marker_node_Set(11)&#45;&gt;set_marker_node_Set(59) -->
<g id="edge14" class="edge">
<title>set_marker_node_Set(11)&#45;&gt;set_marker_node_Set(59)</title>
<path fill="none" stroke="white" d="M972.77,-102C991.85,-90.2 1029.06,-67.71 1062,-51 1069.05,-47.42 1076.55,-43.84 1084.02,-40.41"/>
<polygon fill="white" stroke="white" points="1085.45,-43.6 1093.12,-36.29 1082.57,-37.22 1085.45,-43.6"/>
</g>
<!-- set_marker_node_Set(70) -->
<!-- node_System(94) -->
<g id="node13" class="node">
<title>node_System(94)</title>
<polygon fill="#eff1f3" stroke="#eff1f3" points="1223,-146 1062,-146 1062,-110 1223,-110 1223,-146"/>
<text text-anchor="middle" x="1142.5" y="-124.3" font-family="Times,serif" font-size="14.00">update_text2d_layout</text>
</g>
<!-- set_marker_node_Set(70)&#45;&gt;node_System(94) -->
<g id="edge16" class="edge">
<title>set_marker_node_Set(70)&#45;&gt;node_System(94)</title>
<path fill="none" stroke="white" d="M1026,-128C1033.93,-128 1042.13,-128 1050.33,-128"/>
<polygon fill="white" stroke="white" points="1050.24,-131.5 1060.24,-128 1050.24,-124.5 1050.24,-131.5"/>
</g>
<!-- set_marker_node_Set(12)&#45;&gt;set_marker_node_Set(5) -->
<g id="edge11" class="edge">
<title>set_marker_node_Set(12)&#45;&gt;set_marker_node_Set(5)</title>
<path fill="none" stroke="white" d="M1295,-39C1297.72,-39 1300.6,-39 1303.56,-39"/>
<polygon fill="white" stroke="white" points="1303.49,-42.5 1313.49,-39 1303.49,-35.5 1303.49,-42.5"/>
</g>
<!-- set_marker_node_Set(58)&#45;&gt;set_marker_node_Set(7) -->
<g id="edge12" class="edge">
<title>set_marker_node_Set(58)&#45;&gt;set_marker_node_Set(7)</title>
<path fill="none" stroke="white" d="M157,-96.09C162.09,-97.24 167.29,-98.4 172.4,-99.55"/>
<polygon fill="white" stroke="white" points="171.35,-102.9 181.87,-101.67 172.88,-96.07 171.35,-102.9"/>
</g>
<!-- set_marker_node_Set(59)&#45;&gt;set_marker_node_Set(12) -->
<g id="edge15" class="edge">
<title>set_marker_node_Set(59)&#45;&gt;set_marker_node_Set(12)</title>
<path fill="none" stroke="white" d="M1190.5,-24.41C1206.85,-27.34 1224.8,-30.55 1239.69,-33.22"/>
<polygon fill="white" stroke="white" points="1239.05,-36.66 1249.51,-34.97 1240.28,-29.77 1239.05,-36.66"/>
</g>
</g>
</svg>
