<?xml version="1.0" encoding="UTF-8" standalone="no"?>
<!DOCTYPE svg PUBLIC "-//W3C//DTD SVG 1.1//EN"
 "http://www.w3.org/Graphics/SVG/1.1/DTD/svg11.dtd">
<!-- Generated by graphviz version 7.0.6 (0)
 -->
<!-- Title: schedule Pages: 1 -->
<svg width="1864pt" height="604pt"
 viewBox="0.00 0.00 1864.00 604.00" xmlns="http://www.w3.org/2000/svg" xmlns:xlink="http://www.w3.org/1999/xlink">
<g id="graph0" class="graph" transform="scale(1 1) rotate(0) translate(4 600)">
<title>schedule</title>
<polygon fill="#0d1117" stroke="none" points="-4,4 -4,-600 1860,-600 1860,4 -4,4"/>
<g id="clust1" class="cluster">
<title>clusternode_Set(1)</title>
<polygon fill="#99aab5" stroke="white" points="70,-125 70,-164 152,-164 152,-125 70,-125"/>
<text text-anchor="middle" x="111" y="-148.8" font-family="Helvetica,sans-Serif" font-size="14.00">FirstFlush</text>
</g>
<g id="clust2" class="cluster">
<title>clusternode_Set(2)</title>
<polygon fill="#99aab5" stroke="white" points="283,-102 283,-141 405,-141 405,-102 283,-102"/>
<text text-anchor="middle" x="344" y="-125.8" font-family="Helvetica,sans-Serif" font-size="14.00">PreUpdateFlush</text>
</g>
<g id="clust3" class="cluster">
<title>clusternode_Set(3)</title>
<polygon fill="#99aab5" stroke="white" points="772,-102 772,-141 873,-141 873,-102 772,-102"/>
<text text-anchor="middle" x="822.5" y="-125.8" font-family="Helvetica,sans-Serif" font-size="14.00">UpdateFlush</text>
</g>
<g id="clust4" class="cluster">
<title>clusternode_Set(4)</title>
<polygon fill="#99aab5" stroke="white" points="1145,-55 1145,-94 1274,-94 1274,-55 1145,-55"/>
<text text-anchor="middle" x="1209.5" y="-78.8" font-family="Helvetica,sans-Serif" font-size="14.00">PostUpdateFlush</text>
</g>
<g id="clust5" class="cluster">
<title>clusternode_Set(5)</title>
<polygon fill="#99aab5" stroke="white" points="1732,-31 1732,-70 1812,-70 1812,-31 1732,-31"/>
<text text-anchor="middle" x="1772" y="-54.8" font-family="Helvetica,sans-Serif" font-size="14.00">LastFlush</text>
</g>
<g id="clust6" class="cluster">
<title>clusternode_Set(6)</title>
<polygon fill="#99aab5" stroke="white" points="0,-101 0,-140 46,-140 46,-101 0,-101"/>
<text text-anchor="middle" x="23" y="-124.8" font-family="Helvetica,sans-Serif" font-size="14.00">First</text>
</g>
<g id="clust7" class="cluster">
<title>clusternode_Set(7)</title>
<polygon fill="#99aab5" stroke="white" points="177,-102 177,-141 263,-141 263,-102 177,-102"/>
<text text-anchor="middle" x="220" y="-125.8" font-family="Helvetica,sans-Serif" font-size="14.00">PreUpdate</text>
</g>
<g id="clust8" class="cluster">
<title>clusternode_Set(8)</title>
<polygon fill="#99aab5" stroke="white" points="425,-102 425,-141 547,-141 547,-102 425,-102"/>
<text text-anchor="middle" x="486" y="-125.8" font-family="Helvetica,sans-Serif" font-size="14.00">StateTransitions</text>
</g>
<g id="clust9" class="cluster">
<title>clusternode_Set(9)</title>
<polygon fill="#99aab5" stroke="white" points="567,-102 567,-141 667,-141 667,-102 567,-102"/>
<text text-anchor="middle" x="617" y="-125.8" font-family="Helvetica,sans-Serif" font-size="14.00">FixedUpdate</text>
</g>
<g id="clust10" class="cluster">
<title>clusternode_Set(10)</title>
<polygon fill="#99aab5" stroke="white" points="687,-102 687,-141 752,-141 752,-102 687,-102"/>
<text text-anchor="middle" x="719.5" y="-125.8" font-family="Helvetica,sans-Serif" font-size="14.00">Update</text>
</g>
<g id="clust11" class="cluster">
<title>clusternode_Set(11)</title>
<polygon fill="#99aab5" stroke="white" points="885,-102 885,-588 1848,-588 1848,-102 885,-102"/>
<text text-anchor="middle" x="1366.5" y="-572.8" font-family="Helvetica,sans-Serif" font-size="14.00">PostUpdate</text>
</g>
<g id="clust12" class="cluster">
<title>clusternode_Set(20)</title>
<polygon fill="#99aab5" stroke="white" points="1134,-420 1134,-459 1284,-459 1284,-420 1134,-420"/>
<text text-anchor="middle" x="1209" y="-443.8" font-family="Helvetica,sans-Serif" font-size="14.00">TransformPropagate</text>
</g>
<g id="clust13" class="cluster">
<title>clusternode_Set(70)</title>
<polygon fill="#99aab5" stroke="white" points="893,-283 893,-322 1026,-322 1026,-283 893,-283"/>
<text text-anchor="middle" x="959.5" y="-306.8" font-family="Helvetica,sans-Serif" font-size="14.00">ModifiesWindows</text>
</g>
<g id="clust14" class="cluster">
<title>clusternode_Set(77)</title>
<polygon fill="#99aab5" stroke="white" points="1054,-211 1054,-412 1364,-412 1364,-211 1054,-211"/>
<text text-anchor="middle" x="1209" y="-396.8" font-family="Helvetica,sans-Serif" font-size="14.00">CameraUpdateSystem</text>
</g>
<g id="clust15" class="cluster">
<title>clusternode_Set(81)</title>
<polygon fill="#99aab5" stroke="white" points="1134.5,-110 1134.5,-203 1283.5,-203 1283.5,-110 1134.5,-110"/>
<text text-anchor="middle" x="1209" y="-187.8" font-family="Helvetica,sans-Serif" font-size="14.00">CalculateBounds</text>
</g>
<g id="clust16" class="cluster">
<title>clusternode_Set(82)</title>
<polygon fill="#99aab5" stroke="white" points="1452,-110 1452,-149 1616,-149 1616,-110 1452,-110"/>
<text text-anchor="middle" x="1534" y="-133.8" font-family="Helvetica,sans-Serif" font-size="14.00">CalculateBoundsFlush</text>
</g>
<g id="clust17" class="cluster">
<title>clusternode_Set(83)</title>
<polygon fill="#99aab5" stroke="white" points="1384,-203 1384,-296 1684,-296 1684,-203 1384,-203"/>
<text text-anchor="middle" x="1534" y="-280.8" font-family="Helvetica,sans-Serif" font-size="14.00">UpdateOrthographicFrusta</text>
</g>
<g id="clust18" class="cluster">
<title>clusternode_Set(84)</title>
<polygon fill="#99aab5" stroke="white" points="1390.5,-304 1390.5,-397 1677.5,-397 1677.5,-304 1390.5,-304"/>
<text text-anchor="middle" x="1534" y="-381.8" font-family="Helvetica,sans-Serif" font-size="14.00">UpdatePerspectiveFrusta</text>
</g>
<g id="clust19" class="cluster">
<title>clusternode_Set(85)</title>
<polygon fill="#99aab5" stroke="white" points="1448,-518 1448,-557 1621,-557 1621,-518 1448,-518"/>
<text text-anchor="middle" x="1534.5" y="-541.8" font-family="Helvetica,sans-Serif" font-size="14.00">UpdateProjectionFrusta</text>
</g>
<g id="clust20" class="cluster">
<title>clusternode_Set(86)</title>
<polygon fill="#99aab5" stroke="white" points="1704,-360 1704,-453 1840,-453 1840,-360 1704,-360"/>
<text text-anchor="middle" x="1772" y="-437.8" font-family="Helvetica,sans-Serif" font-size="14.00">CheckVisibility</text>
</g>
<g id="clust21" class="cluster">
<title>clusternode_Set(87)</title>
<polygon fill="#99aab5" stroke="white" points="1424.5,-417 1424.5,-510 1643.5,-510 1643.5,-417 1424.5,-417"/>
<text text-anchor="middle" x="1534" y="-494.8" font-family="Helvetica,sans-Serif" font-size="14.00">VisibilityPropagate</text>
</g>
<g id="clust22" class="cluster">
<title>clusternode_Set(12)</title>
<polygon fill="#99aab5" stroke="white" points="1512,-31 1512,-70 1556,-70 1556,-31 1512,-31"/>
<text text-anchor="middle" x="1534" y="-54.8" font-family="Helvetica,sans-Serif" font-size="14.00">Last</text>
</g>
<g id="clust23" class="cluster">
<title>clusternode_Set(58)</title>
<polygon fill="#99aab5" stroke="white" points="66,-78 66,-117 157,-117 157,-78 66,-78"/>
<text text-anchor="middle" x="111.5" y="-101.8" font-family="Helvetica,sans-Serif" font-size="14.00">LoadAssets</text>
</g>
<g id="clust24" class="cluster">
<title>clusternode_Set(59)</title>
<polygon fill="#99aab5" stroke="white" points="1161,-8 1161,-47 1257,-47 1257,-8 1161,-8"/>
<text text-anchor="middle" x="1209" y="-31.8" font-family="Helvetica,sans-Serif" font-size="14.00">AssetEvents</text>
</g>
<!-- set_marker_node_Set(1) -->
<!-- set_marker_node_Set(7) -->
<!-- set_marker_node_Set(1)&#45;&gt;set_marker_node_Set(7) -->
<g id="edge2" class="edge">
<title>set_marker_node_Set(1)&#45;&gt;set_marker_node_Set(7)</title>
<path fill="none" stroke="white" d="M149.21,-125C154.62,-123.84 160.27,-122.62 165.92,-121.41"/>
<polygon fill="white" stroke="white" points="166.48,-124.87 175.53,-119.35 165.01,-118.02 166.48,-124.87"/>
</g>
<!-- set_marker_node_Set(2) -->
<!-- set_marker_node_Set(8) -->
<!-- set_marker_node_Set(2)&#45;&gt;set_marker_node_Set(8) -->
<g id="edge4" class="edge">
<title>set_marker_node_Set(2)&#45;&gt;set_marker_node_Set(8)</title>
<path fill="none" stroke="white" d="M405,-110C407.88,-110 410.78,-110 413.68,-110"/>
<polygon fill="white" stroke="white" points="413.49,-113.5 423.49,-110 413.49,-106.5 413.49,-113.5"/>
</g>
<!-- set_marker_node_Set(3) -->
<!-- set_marker_node_Set(11) -->
<!-- set_marker_node_Set(3)&#45;&gt;set_marker_node_Set(11) -->
<g id="edge8" class="edge">
<title>set_marker_node_Set(3)&#45;&gt;set_marker_node_Set(11)</title>
<path fill="none" stroke="white" d="M873,-110C873.19,-110 873.39,-110 873.59,-110"/>
<polygon fill="white" stroke="white" points="873.49,-113.5 883.49,-110 873.49,-106.5 873.49,-113.5"/>
</g>
<!-- set_marker_node_Set(4) -->
<!-- set_marker_node_Set(12) -->
<!-- set_marker_node_Set(4)&#45;&gt;set_marker_node_Set(12) -->
<g id="edge10" class="edge">
<title>set_marker_node_Set(4)&#45;&gt;set_marker_node_Set(12)</title>
<path fill="none" stroke="white" d="M1274,-58.24C1342.28,-53.17 1447.73,-45.34 1500.54,-41.41"/>
<polygon fill="white" stroke="white" points="1500.78,-44.9 1510.49,-40.67 1500.26,-37.92 1500.78,-44.9"/>
</g>
<!-- set_marker_node_Set(5) -->
<!-- set_marker_node_Set(6) -->
<!-- set_marker_node_Set(6)&#45;&gt;set_marker_node_Set(1) -->
<g id="edge1" class="edge">
<title>set_marker_node_Set(6)&#45;&gt;set_marker_node_Set(1)</title>
<path fill="none" stroke="white" d="M46,-115.34C52.44,-117.18 59.5,-119.18 66,-121 67.17,-121.33 68.36,-121.66 69.55,-121.99"/>
<polygon fill="white" stroke="white" points="68.45,-125.32 79.02,-124.6 70.31,-118.57 68.45,-125.32"/>
</g>
<!-- set_marker_node_Set(58) -->
<!-- set_marker_node_Set(6)&#45;&gt;set_marker_node_Set(58) -->
<g id="edge13" class="edge">
<title>set_marker_node_Set(6)&#45;&gt;set_marker_node_Set(58)</title>
<path fill="none" stroke="white" d="M46,-103.12C48.89,-102.34 51.94,-101.53 55.09,-100.68"/>
<polygon fill="white" stroke="white" points="55.78,-104.12 64.54,-98.16 53.98,-97.36 55.78,-104.12"/>
</g>
<!-- set_marker_node_Set(7)&#45;&gt;set_marker_node_Set(2) -->
<g id="edge3" class="edge">
<title>set_marker_node_Set(7)&#45;&gt;set_marker_node_Set(2)</title>
<path fill="none" stroke="white" d="M263,-110C265.78,-110 268.62,-110 271.49,-110"/>
<polygon fill="white" stroke="white" points="271.49,-113.5 281.49,-110 271.49,-106.5 271.49,-113.5"/>
</g>
<!-- set_marker_node_Set(9) -->
<!-- set_marker_node_Set(8)&#45;&gt;set_marker_node_Set(9) -->
<g id="edge5" class="edge">
<title>set_marker_node_Set(8)&#45;&gt;set_marker_node_Set(9)</title>
<path fill="none" stroke="white" d="M547,-110C549.86,-110 552.74,-110 555.6,-110"/>
<polygon fill="white" stroke="white" points="555.49,-113.5 565.49,-110 555.49,-106.5 555.49,-113.5"/>
</g>
<!-- set_marker_node_Set(10) -->
<!-- set_marker_node_Set(9)&#45;&gt;set_marker_node_Set(10) -->
<g id="edge6" class="edge">
<title>set_marker_node_Set(9)&#45;&gt;set_marker_node_Set(10)</title>
<path fill="none" stroke="white" d="M667,-110C669.85,-110 672.71,-110 675.54,-110"/>
<polygon fill="white" stroke="white" points="675.49,-113.5 685.49,-110 675.49,-106.5 675.49,-113.5"/>
</g>
<!-- set_marker_node_Set(10)&#45;&gt;set_marker_node_Set(3) -->
<g id="edge7" class="edge">
<title>set_marker_node_Set(10)&#45;&gt;set_marker_node_Set(3)</title>
<path fill="none" stroke="white" d="M752,-110C754.81,-110 757.71,-110 760.65,-110"/>
<polygon fill="white" stroke="white" points="760.49,-113.5 770.49,-110 760.49,-106.5 760.49,-113.5"/>
</g>
<!-- set_marker_node_Set(11)&#45;&gt;set_marker_node_Set(4) -->
<g id="edge9" class="edge">
<title>set_marker_node_Set(11)&#45;&gt;set_marker_node_Set(4)</title>
<path fill="none" stroke="white" d="M1002.2,-102C1038.28,-95.16 1091.05,-85.16 1134.12,-77"/>
<polygon fill="white" stroke="white" points="1134.34,-80.52 1143.52,-75.22 1133.04,-73.64 1134.34,-80.52"/>
</g>
<!-- set_marker_node_Set(59) -->
<!-- set_marker_node_Set(11)&#45;&gt;set_marker_node_Set(59) -->
<g id="edge14" class="edge">
<title>set_marker_node_Set(11)&#45;&gt;set_marker_node_Set(59)</title>
<path fill="none" stroke="white" d="M970.14,-102C986.72,-89.31 1021.1,-64.6 1054,-51 1084.58,-38.36 1120.56,-29.86 1150.04,-24.4"/>
<polygon fill="white" stroke="white" points="1150.27,-27.92 1159.51,-22.72 1149.05,-21.02 1150.27,-27.92"/>
</g>
<!-- set_marker_node_Set(20) -->
<!-- node_System(68) -->
<g id="node22" class="node">
<title>node_System(68)</title>
<polygon fill="#eff1f3" stroke="#eff1f3" points="1676,-247 1392,-247 1392,-211 1676,-211 1676,-247"/>
<text text-anchor="middle" x="1534" y="-225.3" font-family="Times,serif" font-size="14.00">update_frusta&lt;OrthographicProjection&gt;</text>
</g>
<!-- set_marker_node_Set(20)&#45;&gt;node_System(68) -->
<g id="edge21" class="edge">
<title>set_marker_node_Set(20)&#45;&gt;node_System(68)</title>
<path fill="none" stroke="white" d="M1284,-440.66C1312.44,-441.24 1343.07,-435.97 1364,-416 1415.84,-366.52 1334.74,-308.05 1384,-256 1384.37,-255.61 1384.75,-255.22 1385.13,-254.83"/>
<polygon fill="white" stroke="white" points="1387.25,-257.63 1392.47,-248.4 1382.64,-252.36 1387.25,-257.63"/>
</g>
<!-- node_System(69) -->
<g id="node24" class="node">
<title>node_System(69)</title>
<polygon fill="#eff1f3" stroke="#eff1f3" points="1669.5,-348 1398.5,-348 1398.5,-312 1669.5,-312 1669.5,-348"/>
<text text-anchor="middle" x="1534" y="-326.3" font-family="Times,serif" font-size="14.00">update_frusta&lt;PerspectiveProjection&gt;</text>
</g>
<!-- set_marker_node_Set(20)&#45;&gt;node_System(69) -->
<g id="edge23" class="edge">
<title>set_marker_node_Set(20)&#45;&gt;node_System(69)</title>
<path fill="none" stroke="white" d="M1284,-438.44C1311.63,-438.45 1341.68,-433.35 1364,-416 1385.86,-399.01 1363.03,-375.08 1384,-357 1385.51,-355.7 1387.05,-354.46 1388.64,-353.26"/>
<polygon fill="white" stroke="white" points="1390.45,-356.26 1396.83,-347.81 1386.57,-350.44 1390.45,-356.26"/>
</g>
<!-- node_System(72) -->
<g id="node27" class="node">
<title>node_System(72)</title>
<polygon fill="#eff1f3" stroke="#eff1f3" points="1832,-404 1712,-404 1712,-368 1832,-368 1832,-404"/>
<text text-anchor="middle" x="1772" y="-382.3" font-family="Times,serif" font-size="14.00">check_visibility</text>
</g>
<!-- set_marker_node_Set(20)&#45;&gt;node_System(72) -->
<g id="edge31" class="edge">
<title>set_marker_node_Set(20)&#45;&gt;node_System(72)</title>
<path fill="none" stroke="white" d="M1284,-423.31C1309.4,-421.41 1337.98,-418.96 1364,-416 1372.93,-414.98 1375.05,-413.85 1384,-413 1516.85,-400.42 1551.3,-415.03 1684,-401 1689.34,-400.44 1694.85,-399.74 1700.38,-398.97"/>
<polygon fill="white" stroke="white" points="1700.84,-402.44 1710.21,-397.51 1699.81,-395.52 1700.84,-402.44"/>
</g>
<!-- node_System(70) -->
<g id="node30" class="node">
<title>node_System(70)</title>
<polygon fill="#eff1f3" stroke="#eff1f3" points="1631,-193 1437,-193 1437,-157 1631,-157 1631,-193"/>
<text text-anchor="middle" x="1534" y="-171.3" font-family="Times,serif" font-size="14.00">update_frusta&lt;Projection&gt;</text>
</g>
<!-- set_marker_node_Set(20)&#45;&gt;node_System(70) -->
<g id="edge25" class="edge">
<title>set_marker_node_Set(20)&#45;&gt;node_System(70)</title>
<path fill="none" stroke="white" d="M1284,-440.99C1312.59,-441.67 1343.32,-436.39 1364,-416 1398.48,-382 1350.94,-234.38 1384,-199 1395.19,-187.02 1409.81,-179.47 1425.52,-174.89"/>
<polygon fill="white" stroke="white" points="1426.19,-178.32 1435.06,-172.53 1424.52,-171.53 1426.19,-178.32"/>
</g>
<!-- set_marker_node_Set(70) -->
<!-- node_System(63) -->
<g id="node15" class="node">
<title>node_System(63)</title>
<polygon fill="#eff1f3" stroke="#eff1f3" points="1311,-255 1107,-255 1107,-219 1311,-219 1311,-255"/>
<text text-anchor="middle" x="1209" y="-233.3" font-family="Times,serif" font-size="14.00">camera_system&lt;Projection&gt;</text>
</g>
<!-- set_marker_node_Set(70)&#45;&gt;node_System(63) -->
<g id="edge16" class="edge">
<title>set_marker_node_Set(70)&#45;&gt;node_System(63)</title>
<path fill="none" stroke="white" d="M1026,-287C1040.99,-281.11 1039.37,-270.72 1054,-264 1067.07,-258 1081.33,-253.32 1095.72,-249.68"/>
<polygon fill="white" stroke="white" points="1096.33,-253.13 1105.27,-247.44 1094.73,-246.32 1096.33,-253.13"/>
</g>
<!-- node_System(64) -->
<g id="node16" class="node">
<title>node_System(64)</title>
<polygon fill="#eff1f3" stroke="#eff1f3" points="1356,-309 1062,-309 1062,-273 1356,-273 1356,-309"/>
<text text-anchor="middle" x="1209" y="-287.3" font-family="Times,serif" font-size="14.00">camera_system&lt;OrthographicProjection&gt;</text>
</g>
<!-- set_marker_node_Set(70)&#45;&gt;node_System(64) -->
<g id="edge17" class="edge">
<title>set_marker_node_Set(70)&#45;&gt;node_System(64)</title>
<path fill="none" stroke="white" d="M1026,-291C1033.8,-291 1042,-291 1050.42,-291"/>
<polygon fill="white" stroke="white" points="1050.26,-294.5 1060.26,-291 1050.26,-287.5 1050.26,-294.5"/>
</g>
<!-- node_System(65) -->
<g id="node17" class="node">
<title>node_System(65)</title>
<polygon fill="#eff1f3" stroke="#eff1f3" points="1349.5,-363 1068.5,-363 1068.5,-327 1349.5,-327 1349.5,-363"/>
<text text-anchor="middle" x="1209" y="-341.3" font-family="Times,serif" font-size="14.00">camera_system&lt;PerspectiveProjection&gt;</text>
</g>
<!-- set_marker_node_Set(70)&#45;&gt;node_System(65) -->
<g id="edge18" class="edge">
<title>set_marker_node_Set(70)&#45;&gt;node_System(65)</title>
<path fill="none" stroke="white" d="M1026,-310.91C1035.36,-313.46 1044.89,-315.9 1054,-318 1063.51,-320.19 1073.39,-322.3 1083.35,-324.31"/>
<polygon fill="white" stroke="white" points="1082.63,-327.74 1093.12,-326.24 1083.99,-320.87 1082.63,-327.74"/>
</g>
<!-- set_marker_node_Set(77) -->
<!-- node_System(63)&#45;&gt;node_System(70) -->
<g id="edge24" class="edge">
<title>node_System(63)&#45;&gt;node_System(70)</title>
<path fill="none" stroke="white" d="M1311.31,-220.09C1329.01,-216.33 1347.15,-211.96 1364,-207 1373.18,-204.29 1374.77,-201.55 1384,-199 1397.25,-195.33 1411.33,-192.16 1425.34,-189.43"/>
<polygon fill="white" stroke="white" points="1425.87,-192.89 1435.06,-187.62 1424.58,-186.01 1425.87,-192.89"/>
</g>
<!-- node_System(64)&#45;&gt;node_System(68) -->
<g id="edge20" class="edge">
<title>node_System(64)&#45;&gt;node_System(68)</title>
<path fill="none" stroke="white" d="M1329.52,-272.57C1341.25,-270.01 1352.9,-267.16 1364,-264 1373.21,-261.38 1374.8,-258.64 1384,-256 1391.38,-253.88 1399.02,-251.89 1406.77,-250.03"/>
<polygon fill="white" stroke="white" points="1407.33,-253.49 1416.29,-247.83 1405.76,-246.67 1407.33,-253.49"/>
</g>
<!-- node_System(65)&#45;&gt;node_System(69) -->
<g id="edge22" class="edge">
<title>node_System(65)&#45;&gt;node_System(69)</title>
<path fill="none" stroke="white" d="M1349.79,-338.51C1362.06,-337.94 1374.51,-337.36 1386.83,-336.79"/>
<polygon fill="white" stroke="white" points="1386.76,-340.3 1396.59,-336.33 1386.44,-333.3 1386.76,-340.3"/>
</g>
<!-- set_marker_node_Set(81) -->
<!-- set_marker_node_Set(82) -->
<!-- set_marker_node_Set(81)&#45;&gt;set_marker_node_Set(82) -->
<g id="edge19" class="edge">
<title>set_marker_node_Set(81)&#45;&gt;set_marker_node_Set(82)</title>
<path fill="none" stroke="white" d="M1283.5,-182.58C1310.77,-182.86 1340.71,-178.52 1364,-163 1380.87,-151.76 1366.95,-132.97 1384,-122 1415.33,-101.84 1458.54,-103.09 1490.36,-108.04"/>
<polygon fill="white" stroke="white" points="1489.58,-111.46 1500.04,-109.74 1490.79,-104.56 1489.58,-111.46"/>
</g>
<!-- node_System(67) -->
<g id="node19" class="node">
<title>node_System(67)</title>
<polygon fill="#eff1f3" stroke="#eff1f3" points="1275.5,-154 1142.5,-154 1142.5,-118 1275.5,-118 1275.5,-154"/>
<text text-anchor="middle" x="1209" y="-132.3" font-family="Times,serif" font-size="14.00">calculate_bounds</text>
</g>
<!-- set_marker_node_Set(82)&#45;&gt;node_System(72) -->
<g id="edge26" class="edge">
<title>set_marker_node_Set(82)&#45;&gt;node_System(72)</title>
<path fill="none" stroke="white" d="M1562.88,-110C1595.33,-102.5 1648.95,-95.92 1684,-122 1758.85,-177.69 1770.26,-299.81 1771.37,-356.28"/>
<polygon fill="white" stroke="white" points="1767.87,-356.12 1771.45,-366.09 1774.87,-356.06 1767.87,-356.12"/>
</g>
<!-- set_marker_node_Set(83) -->
<!-- set_marker_node_Set(83)&#45;&gt;node_System(72) -->
<g id="edge27" class="edge">
<title>set_marker_node_Set(83)&#45;&gt;node_System(72)</title>
<path fill="none" stroke="white" d="M1676.32,-296C1678.93,-297.28 1681.49,-298.61 1684,-300 1710.35,-314.57 1734.2,-339.39 1750.24,-358.63"/>
<polygon fill="white" stroke="white" points="1747.5,-360.8 1756.51,-366.38 1752.94,-356.4 1747.5,-360.8"/>
</g>
<!-- set_marker_node_Set(84) -->
<!-- set_marker_node_Set(84)&#45;&gt;node_System(72) -->
<g id="edge28" class="edge">
<title>set_marker_node_Set(84)&#45;&gt;node_System(72)</title>
<path fill="none" stroke="white" d="M1677.5,-378.08C1685.34,-378.74 1693.04,-379.39 1700.43,-380.02"/>
<polygon fill="white" stroke="white" points="1699.87,-383.48 1710.13,-380.84 1700.47,-376.51 1699.87,-383.48"/>
</g>
<!-- set_marker_node_Set(85) -->
<!-- set_marker_node_Set(85)&#45;&gt;node_System(72) -->
<g id="edge29" class="edge">
<title>set_marker_node_Set(85)&#45;&gt;node_System(72)</title>
<path fill="none" stroke="white" d="M1621,-536.93C1643.84,-535.4 1666.88,-529.25 1684,-514 1718.17,-483.56 1674.82,-448.25 1704,-413 1704.34,-412.59 1704.69,-412.19 1705.04,-411.79"/>
<polygon fill="white" stroke="white" points="1707.15,-414.59 1712.24,-405.3 1702.47,-409.39 1707.15,-414.59"/>
</g>
<!-- set_marker_node_Set(86) -->
<!-- set_marker_node_Set(87) -->
<!-- set_marker_node_Set(87)&#45;&gt;node_System(72) -->
<g id="edge30" class="edge">
<title>set_marker_node_Set(87)&#45;&gt;node_System(72)</title>
<path fill="none" stroke="white" d="M1643.5,-487.33C1658.12,-484.35 1672.14,-478.96 1684,-470 1705.42,-453.82 1685.45,-432.41 1704,-413 1704.58,-412.39 1705.19,-411.79 1705.8,-411.2"/>
<polygon fill="white" stroke="white" points="1707.65,-414.2 1713.32,-405.25 1703.31,-408.71 1707.65,-414.2"/>
</g>
<!-- node_System(71) -->
<g id="node29" class="node">
<title>node_System(71)</title>
<polygon fill="#eff1f3" stroke="#eff1f3" points="1635.5,-461 1432.5,-461 1432.5,-425 1635.5,-425 1635.5,-461"/>
<text text-anchor="middle" x="1534" y="-439.3" font-family="Times,serif" font-size="14.00">visibility_propagate_system</text>
</g>
<!-- set_marker_node_Set(12)&#45;&gt;set_marker_node_Set(5) -->
<g id="edge11" class="edge">
<title>set_marker_node_Set(12)&#45;&gt;set_marker_node_Set(5)</title>
<path fill="none" stroke="white" d="M1556,-39C1592.69,-39 1669.43,-39 1720.6,-39"/>
<polygon fill="white" stroke="white" points="1720.49,-42.5 1730.49,-39 1720.49,-35.5 1720.49,-42.5"/>
</g>
<!-- set_marker_node_Set(58)&#45;&gt;set_marker_node_Set(7) -->
<g id="edge12" class="edge">
<title>set_marker_node_Set(58)&#45;&gt;set_marker_node_Set(7)</title>
<path fill="none" stroke="white" d="M157,-96.09C162.09,-97.24 167.29,-98.4 172.4,-99.55"/>
<polygon fill="white" stroke="white" points="171.35,-102.9 181.87,-101.67 172.88,-96.07 171.35,-102.9"/>
</g>
<!-- set_marker_node_Set(59)&#45;&gt;set_marker_node_Set(12) -->
<g id="edge15" class="edge">
<title>set_marker_node_Set(59)&#45;&gt;set_marker_node_Set(12)</title>
<path fill="none" stroke="white" d="M1257,-19.35C1323.44,-24.08 1443.11,-32.6 1500.54,-36.69"/>
<polygon fill="white" stroke="white" points="1500.27,-40.18 1510.49,-37.4 1500.77,-33.2 1500.27,-40.18"/>
</g>
</g>
</svg>
