<?xml version="1.0" encoding="UTF-8" standalone="no"?>
<!DOCTYPE svg PUBLIC "-//W3C//DTD SVG 1.1//EN"
 "http://www.w3.org/Graphics/SVG/1.1/DTD/svg11.dtd">
<!-- Generated by graphviz version 7.0.6 (0)
 -->
<!-- Title: schedule Pages: 1 -->
<svg width="1673pt" height="398pt"
 viewBox="0.00 0.00 1673.00 398.00" xmlns="http://www.w3.org/2000/svg" xmlns:xlink="http://www.w3.org/1999/xlink">
<g id="graph0" class="graph" transform="scale(1 1) rotate(0) translate(4 394)">
<title>schedule</title>
<polygon fill="#0d1117" stroke="none" points="-4,4 -4,-394 1669,-394 1669,4 -4,4"/>
<g id="clust1" class="cluster">
<title>clusternode_Set(1)</title>
<polygon fill="#99aab5" stroke="white" points="70,-101 70,-140 152,-140 152,-101 70,-101"/>
<text text-anchor="middle" x="111" y="-124.8" font-family="Helvetica,sans-Serif" font-size="14.00">FirstFlush</text>
</g>
<g id="clust2" class="cluster">
<title>clusternode_Set(2)</title>
<polygon fill="#99aab5" stroke="white" points="475,-31 475,-70 597,-70 597,-31 475,-31"/>
<text text-anchor="middle" x="536" y="-54.8" font-family="Helvetica,sans-Serif" font-size="14.00">PreUpdateFlush</text>
</g>
<g id="clust3" class="cluster">
<title>clusternode_Set(3)</title>
<polygon fill="#99aab5" stroke="white" points="1138,-31 1138,-70 1239,-70 1239,-31 1138,-31"/>
<text text-anchor="middle" x="1188.5" y="-54.8" font-family="Helvetica,sans-Serif" font-size="14.00">UpdateFlush</text>
</g>
<g id="clust4" class="cluster">
<title>clusternode_Set(4)</title>
<polygon fill="#99aab5" stroke="white" points="1372,-55 1372,-94 1501,-94 1501,-55 1372,-55"/>
<text text-anchor="middle" x="1436.5" y="-78.8" font-family="Helvetica,sans-Serif" font-size="14.00">PostUpdateFlush</text>
</g>
<g id="clust5" class="cluster">
<title>clusternode_Set(5)</title>
<polygon fill="#99aab5" stroke="white" points="1585,-20 1585,-59 1665,-59 1665,-20 1585,-20"/>
<text text-anchor="middle" x="1625" y="-43.8" font-family="Helvetica,sans-Serif" font-size="14.00">LastFlush</text>
</g>
<g id="clust6" class="cluster">
<title>clusternode_Set(6)</title>
<polygon fill="#99aab5" stroke="white" points="0,-77 0,-116 46,-116 46,-77 0,-77"/>
<text text-anchor="middle" x="23" y="-100.8" font-family="Helvetica,sans-Serif" font-size="14.00">First</text>
</g>
<g id="clust7" class="cluster">
<title>clusternode_Set(7)</title>
<polygon fill="#99aab5" stroke="white" points="169,-78 169,-382 921,-382 921,-78 169,-78"/>
<text text-anchor="middle" x="545" y="-366.8" font-family="Helvetica,sans-Serif" font-size="14.00">PreUpdate</text>
</g>
<g id="clust8" class="cluster">
<title>clusternode_Set(24)</title>
<polygon fill="#99aab5" stroke="white" points="177,-96 177,-351 913,-351 913,-96 177,-96"/>
<text text-anchor="middle" x="545" y="-335.8" font-family="Helvetica,sans-Serif" font-size="14.00">InputSystem</text>
</g>
<g id="clust9" class="cluster">
<title>clusternode_Set(8)</title>
<polygon fill="#99aab5" stroke="white" points="730.5,-31 730.5,-70 852.5,-70 852.5,-31 730.5,-31"/>
<text text-anchor="middle" x="791.5" y="-54.8" font-family="Helvetica,sans-Serif" font-size="14.00">StateTransitions</text>
</g>
<g id="clust10" class="cluster">
<title>clusternode_Set(9)</title>
<polygon fill="#99aab5" stroke="white" points="933,-31 933,-70 1033,-70 1033,-31 933,-31"/>
<text text-anchor="middle" x="983" y="-54.8" font-family="Helvetica,sans-Serif" font-size="14.00">FixedUpdate</text>
</g>
<g id="clust11" class="cluster">
<title>clusternode_Set(10)</title>
<polygon fill="#99aab5" stroke="white" points="1053,-31 1053,-70 1118,-70 1118,-31 1053,-31"/>
<text text-anchor="middle" x="1085.5" y="-54.8" font-family="Helvetica,sans-Serif" font-size="14.00">Update</text>
</g>
<g id="clust12" class="cluster">
<title>clusternode_Set(11)</title>
<polygon fill="#99aab5" stroke="white" points="1259,-31 1259,-70 1352,-70 1352,-31 1259,-31"/>
<text text-anchor="middle" x="1305.5" y="-54.8" font-family="Helvetica,sans-Serif" font-size="14.00">PostUpdate</text>
</g>
<g id="clust13" class="cluster">
<title>clusternode_Set(12)</title>
<polygon fill="#99aab5" stroke="white" points="1521,-20 1521,-59 1565,-59 1565,-20 1521,-20"/>
<text text-anchor="middle" x="1543" y="-43.8" font-family="Helvetica,sans-Serif" font-size="14.00">Last</text>
</g>
<g id="clust14" class="cluster">
<title>clusternode_Set(58)</title>
<polygon fill="#99aab5" stroke="white" points="66,-54 66,-93 157,-93 157,-54 66,-54"/>
<text text-anchor="middle" x="111.5" y="-77.8" font-family="Helvetica,sans-Serif" font-size="14.00">LoadAssets</text>
</g>
<g id="clust15" class="cluster">
<title>clusternode_Set(59)</title>
<polygon fill="#99aab5" stroke="white" points="1388,-8 1388,-47 1484,-47 1484,-8 1388,-8"/>
<text text-anchor="middle" x="1436" y="-31.8" font-family="Helvetica,sans-Serif" font-size="14.00">AssetEvents</text>
</g>
<!-- set_marker_node_Set(1) -->
<!-- set_marker_node_Set(7) -->
<!-- set_marker_node_Set(1)&#45;&gt;set_marker_node_Set(7) -->
<g id="edge2" class="edge">
<title>set_marker_node_Set(1)&#45;&gt;set_marker_node_Set(7)</title>
<path fill="none" stroke="white" d="M144.11,-101C148.47,-99.75 152.87,-98.41 157,-97 157.51,-96.83 157.99,-96.65 158.43,-96.48"/>
<polygon fill="white" stroke="white" points="159.76,-99.71 167.61,-92.59 157.03,-93.27 159.76,-99.71"/>
</g>
<!-- set_marker_node_Set(2) -->
<!-- set_marker_node_Set(8) -->
<!-- set_marker_node_Set(2)&#45;&gt;set_marker_node_Set(8) -->
<g id="edge4" class="edge">
<title>set_marker_node_Set(2)&#45;&gt;set_marker_node_Set(8)</title>
<path fill="none" stroke="white" d="M597,-39C633.68,-39 680.8,-39 719.36,-39"/>
<polygon fill="white" stroke="white" points="718.99,-42.5 728.99,-39 718.99,-35.5 718.99,-42.5"/>
</g>
<!-- set_marker_node_Set(3) -->
<!-- set_marker_node_Set(11) -->
<!-- set_marker_node_Set(3)&#45;&gt;set_marker_node_Set(11) -->
<g id="edge8" class="edge">
<title>set_marker_node_Set(3)&#45;&gt;set_marker_node_Set(11)</title>
<path fill="none" stroke="white" d="M1239,-39C1241.92,-39 1244.88,-39 1247.82,-39"/>
<polygon fill="white" stroke="white" points="1247.49,-42.5 1257.49,-39 1247.49,-35.5 1247.49,-42.5"/>
</g>
<!-- set_marker_node_Set(4) -->
<!-- set_marker_node_Set(12) -->
<!-- set_marker_node_Set(4)&#45;&gt;set_marker_node_Set(12) -->
<g id="edge10" class="edge">
<title>set_marker_node_Set(4)&#45;&gt;set_marker_node_Set(12)</title>
<path fill="none" stroke="white" d="M1488.03,-55C1492.46,-53.84 1496.84,-52.51 1501,-51 1504.28,-49.81 1507.61,-48.37 1510.89,-46.81"/>
<polygon fill="white" stroke="white" points="1512.43,-49.95 1519.66,-42.21 1509.18,-43.75 1512.43,-49.95"/>
</g>
<!-- set_marker_node_Set(5) -->
<!-- set_marker_node_Set(6) -->
<!-- set_marker_node_Set(6)&#45;&gt;set_marker_node_Set(1) -->
<g id="edge1" class="edge">
<title>set_marker_node_Set(6)&#45;&gt;set_marker_node_Set(1)</title>
<path fill="none" stroke="white" d="M46,-91.34C52.44,-93.18 59.5,-95.18 66,-97 67.17,-97.33 68.36,-97.66 69.55,-97.99"/>
<polygon fill="white" stroke="white" points="68.45,-101.32 79.02,-100.6 70.31,-94.57 68.45,-101.32"/>
</g>
<!-- set_marker_node_Set(58) -->
<!-- set_marker_node_Set(6)&#45;&gt;set_marker_node_Set(58) -->
<g id="edge18" class="edge">
<title>set_marker_node_Set(6)&#45;&gt;set_marker_node_Set(58)</title>
<path fill="none" stroke="white" d="M46,-79.12C48.89,-78.34 51.94,-77.53 55.09,-76.68"/>
<polygon fill="white" stroke="white" points="55.78,-80.12 64.54,-74.16 53.98,-73.36 55.78,-80.12"/>
</g>
<!-- set_marker_node_Set(7)&#45;&gt;set_marker_node_Set(2) -->
<g id="edge3" class="edge">
<title>set_marker_node_Set(7)&#45;&gt;set_marker_node_Set(2)</title>
<path fill="none" stroke="white" d="M332.11,-78C368.15,-71.07 421.07,-60.9 463.82,-52.68"/>
<polygon fill="white" stroke="white" points="464.36,-56.14 473.52,-50.82 463.04,-49.27 464.36,-56.14"/>
</g>
<!-- set_marker_node_Set(24) -->
<!-- node_System(15) -->
<g id="node9" class="node">
<title>node_System(15)</title>
<polygon fill="#eff1f3" stroke="#eff1f3" points="377.5,-302 201.5,-302 201.5,-266 377.5,-266 377.5,-302"/>
<text text-anchor="middle" x="289.5" y="-280.3" font-family="Times,serif" font-size="14.00">keyboard_input_system</text>
</g>
<!-- node_System(19) -->
<g id="node10" class="node">
<title>node_System(19)</title>
<polygon fill="#eff1f3" stroke="#eff1f3" points="394,-248 185,-248 185,-212 394,-212 394,-248"/>
<text text-anchor="middle" x="289.5" y="-226.3" font-family="Times,serif" font-size="14.00">mouse_button_input_system</text>
</g>
<!-- node_System(24) -->
<g id="node11" class="node">
<title>node_System(24)</title>
<polygon fill="#eff1f3" stroke="#eff1f3" points="377.5,-194 201.5,-194 201.5,-158 377.5,-158 377.5,-194"/>
<text text-anchor="middle" x="289.5" y="-172.3" font-family="Times,serif" font-size="14.00">gamepad_event_system</text>
</g>
<!-- node_System(25) -->
<g id="node12" class="node">
<title>node_System(25)</title>
<polygon fill="#eff1f3" stroke="#eff1f3" points="642,-194 430,-194 430,-158 642,-158 642,-194"/>
<text text-anchor="middle" x="536" y="-172.3" font-family="Times,serif" font-size="14.00">gamepad_connection_system</text>
</g>
<!-- node_System(24)&#45;&gt;node_System(25) -->
<g id="edge12" class="edge">
<title>node_System(24)&#45;&gt;node_System(25)</title>
<path fill="none" stroke="white" d="M377.73,-176C390.91,-176 404.68,-176 418.36,-176"/>
<polygon fill="white" stroke="white" points="418.3,-179.5 428.3,-176 418.3,-172.5 418.3,-179.5"/>
</g>
<!-- node_System(26) -->
<g id="node13" class="node">
<title>node_System(26)</title>
<polygon fill="#eff1f3" stroke="#eff1f3" points="905,-167 678,-167 678,-131 905,-131 905,-167"/>
<text text-anchor="middle" x="791.5" y="-145.3" font-family="Times,serif" font-size="14.00">gamepad_button_event_system</text>
</g>
<!-- node_System(24)&#45;&gt;node_System(26) -->
<g id="edge13" class="edge">
<title>node_System(24)&#45;&gt;node_System(26)</title>
<path fill="none" stroke="white" d="M372,-157.52C390.94,-153.98 411.09,-150.81 430,-149 508.34,-141.49 596.7,-141.36 666.34,-143.17"/>
<polygon fill="white" stroke="white" points="666.18,-146.66 676.28,-143.44 666.38,-139.67 666.18,-146.66"/>
</g>
<!-- node_System(27) -->
<g id="node14" class="node">
<title>node_System(27)</title>
<polygon fill="#eff1f3" stroke="#eff1f3" points="896,-226 687,-226 687,-190 896,-190 896,-226"/>
<text text-anchor="middle" x="791.5" y="-204.3" font-family="Times,serif" font-size="14.00">gamepad_axis_event_system</text>
</g>
<!-- node_System(24)&#45;&gt;node_System(27) -->
<g id="edge15" class="edge">
<title>node_System(24)&#45;&gt;node_System(27)</title>
<path fill="none" stroke="white" d="M373.13,-194.5C391.74,-197.96 411.47,-201.09 430,-203 511.86,-211.42 604.71,-212.51 675.68,-211.58"/>
<polygon fill="white" stroke="white" points="675.42,-215.08 685.37,-211.44 675.32,-208.09 675.42,-215.08"/>
</g>
<!-- node_System(25)&#45;&gt;node_System(26) -->
<g id="edge14" class="edge">
<title>node_System(25)&#45;&gt;node_System(26)</title>
<path fill="none" stroke="white" d="M642.3,-164.78C650.26,-163.94 658.32,-163.08 666.38,-162.22"/>
<polygon fill="white" stroke="white" points="666.66,-165.71 676.23,-161.17 665.92,-158.75 666.66,-165.71"/>
</g>
<!-- node_System(25)&#45;&gt;node_System(27) -->
<g id="edge16" class="edge">
<title>node_System(25)&#45;&gt;node_System(27)</title>
<path fill="none" stroke="white" d="M642.3,-189.29C653.21,-190.67 664.33,-192.07 675.33,-193.46"/>
<polygon fill="white" stroke="white" points="674.88,-196.93 685.24,-194.71 675.76,-189.99 674.88,-196.93"/>
</g>
<!-- node_System(29) -->
<g id="node15" class="node">
<title>node_System(29)</title>
<polygon fill="#eff1f3" stroke="#eff1f3" points="390,-140 189,-140 189,-104 390,-104 390,-140"/>
<text text-anchor="middle" x="289.5" y="-118.3" font-family="Times,serif" font-size="14.00">touch_screen_input_system</text>
</g>
<!-- set_marker_node_Set(9) -->
<!-- set_marker_node_Set(8)&#45;&gt;set_marker_node_Set(9) -->
<g id="edge5" class="edge">
<title>set_marker_node_Set(8)&#45;&gt;set_marker_node_Set(9)</title>
<path fill="none" stroke="white" d="M852.5,-39C874.6,-39 899.63,-39 921.75,-39"/>
<polygon fill="white" stroke="white" points="921.49,-42.5 931.49,-39 921.49,-35.5 921.49,-42.5"/>
</g>
<!-- set_marker_node_Set(10) -->
<!-- set_marker_node_Set(9)&#45;&gt;set_marker_node_Set(10) -->
<g id="edge6" class="edge">
<title>set_marker_node_Set(9)&#45;&gt;set_marker_node_Set(10)</title>
<path fill="none" stroke="white" d="M1033,-39C1035.85,-39 1038.71,-39 1041.54,-39"/>
<polygon fill="white" stroke="white" points="1041.49,-42.5 1051.49,-39 1041.49,-35.5 1041.49,-42.5"/>
</g>
<!-- set_marker_node_Set(10)&#45;&gt;set_marker_node_Set(3) -->
<g id="edge7" class="edge">
<title>set_marker_node_Set(10)&#45;&gt;set_marker_node_Set(3)</title>
<path fill="none" stroke="white" d="M1118,-39C1120.81,-39 1123.71,-39 1126.65,-39"/>
<polygon fill="white" stroke="white" points="1126.49,-42.5 1136.49,-39 1126.49,-35.5 1126.49,-42.5"/>
</g>
<!-- set_marker_node_Set(11)&#45;&gt;set_marker_node_Set(4) -->
<g id="edge9" class="edge">
<title>set_marker_node_Set(11)&#45;&gt;set_marker_node_Set(4)</title>
<path fill="none" stroke="white" d="M1352,-47.56C1361.41,-49.31 1371.4,-51.17 1381.06,-52.96"/>
<polygon fill="white" stroke="white" points="1380.06,-56.34 1390.53,-54.73 1381.34,-49.46 1380.06,-56.34"/>
</g>
<!-- set_marker_node_Set(59) -->
<!-- set_marker_node_Set(11)&#45;&gt;set_marker_node_Set(59) -->
<g id="edge19" class="edge">
<title>set_marker_node_Set(11)&#45;&gt;set_marker_node_Set(59)</title>
<path fill="none" stroke="white" d="M1350.87,-31C1359.26,-29.5 1368.15,-27.92 1376.87,-26.36"/>
<polygon fill="white" stroke="white" points="1377.28,-29.85 1386.51,-24.64 1376.05,-22.95 1377.28,-29.85"/>
</g>
<!-- set_marker_node_Set(12)&#45;&gt;set_marker_node_Set(5) -->
<g id="edge11" class="edge">
<title>set_marker_node_Set(12)&#45;&gt;set_marker_node_Set(5)</title>
<path fill="none" stroke="white" d="M1565,-28C1567.72,-28 1570.6,-28 1573.56,-28"/>
<polygon fill="white" stroke="white" points="1573.49,-31.5 1583.49,-28 1573.49,-24.5 1573.49,-31.5"/>
</g>
<!-- set_marker_node_Set(58)&#45;&gt;set_marker_node_Set(7) -->
<g id="edge17" class="edge">
<title>set_marker_node_Set(58)&#45;&gt;set_marker_node_Set(7)</title>
<path fill="none" stroke="white" d="M157,-68.12C175.62,-70.65 197.67,-73.65 218.33,-76.46"/>
<polygon fill="white" stroke="white" points="217.79,-79.92 228.17,-77.8 218.73,-72.98 217.79,-79.92"/>
</g>
<!-- set_marker_node_Set(59)&#45;&gt;set_marker_node_Set(12) -->
<g id="edge20" class="edge">
<title>set_marker_node_Set(59)&#45;&gt;set_marker_node_Set(12)</title>
<path fill="none" stroke="white" d="M1484,-21.37C1492.68,-22.36 1501.56,-23.38 1509.69,-24.31"/>
<polygon fill="white" stroke="white" points="1509.17,-27.77 1519.5,-25.43 1509.96,-20.82 1509.17,-27.77"/>
</g>
</g>
</svg>
