<?xml version="1.0" encoding="UTF-8" standalone="no"?>
<!DOCTYPE svg PUBLIC "-//W3C//DTD SVG 1.1//EN"
 "http://www.w3.org/Graphics/SVG/1.1/DTD/svg11.dtd">
<!-- Generated by graphviz version 7.0.6 (0)
 -->
<!-- Title: schedule Pages: 1 -->
<svg width="1537pt" height="140pt"
 viewBox="0.00 0.00 1537.00 140.00" xmlns="http://www.w3.org/2000/svg" xmlns:xlink="http://www.w3.org/1999/xlink">
<g id="graph0" class="graph" transform="scale(1 1) rotate(0) translate(4 136)">
<title>schedule</title>
<polygon fill="white" stroke="none" points="-4,4 -4,-136 1533,-136 1533,4 -4,4"/>
<g id="clust1" class="cluster">
<title>clusternode_Set(1)</title>
<polygon fill="none" stroke="black" points="70,-85 70,-124 154,-124 154,-85 70,-85"/>
<text text-anchor="middle" x="112" y="-108.8" font-family="Times,serif" font-size="14.00">FirstFlush</text>
</g>
<g id="clust2" class="cluster">
<title>clusternode_Set(2)</title>
<polygon fill="none" stroke="black" points="284,-62 284,-101 407,-101 407,-62 284,-62"/>
<text text-anchor="middle" x="345.5" y="-85.8" font-family="Times,serif" font-size="14.00">PreUpdateFlush</text>
</g>
<g id="clust3" class="cluster">
<title>clusternode_Set(3)</title>
<polygon fill="none" stroke="black" points="777,-62 777,-101 878,-101 878,-62 777,-62"/>
<text text-anchor="middle" x="827.5" y="-85.8" font-family="Times,serif" font-size="14.00">UpdateFlush</text>
</g>
<g id="clust4" class="cluster">
<title>clusternode_Set(4)</title>
<polygon fill="none" stroke="black" points="1234,-73 1234,-112 1362,-112 1362,-73 1234,-73"/>
<text text-anchor="middle" x="1298" y="-96.8" font-family="Times,serif" font-size="14.00">PostUpdateFlush</text>
</g>
<g id="clust5" class="cluster">
<title>clusternode_Set(5)</title>
<polygon fill="none" stroke="black" points="1447,-49 1447,-88 1529,-88 1529,-49 1447,-49"/>
<text text-anchor="middle" x="1488" y="-72.8" font-family="Times,serif" font-size="14.00">LastFlush</text>
</g>
<g id="clust6" class="cluster">
<title>clusternode_Set(6)</title>
<polygon fill="none" stroke="black" points="0,-61 0,-100 47,-100 47,-61 0,-61"/>
<text text-anchor="middle" x="23.5" y="-84.8" font-family="Times,serif" font-size="14.00">First</text>
</g>
<g id="clust7" class="cluster">
<title>clusternode_Set(7)</title>
<polygon fill="none" stroke="black" points="178,-62 178,-101 264,-101 264,-62 178,-62"/>
<text text-anchor="middle" x="221" y="-85.8" font-family="Times,serif" font-size="14.00">PreUpdate</text>
</g>
<g id="clust8" class="cluster">
<title>clusternode_Set(8)</title>
<polygon fill="none" stroke="black" points="427,-62 427,-101 552,-101 552,-62 427,-62"/>
<text text-anchor="middle" x="489.5" y="-85.8" font-family="Times,serif" font-size="14.00">StateTransitions</text>
</g>
<g id="clust9" class="cluster">
<title>clusternode_Set(9)</title>
<polygon fill="none" stroke="black" points="572,-62 572,-101 673,-101 673,-62 572,-62"/>
<text text-anchor="middle" x="622.5" y="-85.8" font-family="Times,serif" font-size="14.00">FixedUpdate</text>
</g>
<g id="clust10" class="cluster">
<title>clusternode_Set(10)</title>
<polygon fill="none" stroke="black" points="693,-62 693,-101 757,-101 757,-62 693,-62"/>
<text text-anchor="middle" x="725" y="-85.8" font-family="Times,serif" font-size="14.00">Update</text>
</g>
<g id="clust11" class="cluster">
<title>clusternode_Set(11)</title>
<polygon fill="none" stroke="black" points="898,-8 898,-101 1214,-101 1214,-8 898,-8"/>
<text text-anchor="middle" x="1056" y="-85.8" font-family="Times,serif" font-size="14.00">PostUpdate</text>
</g>
<g id="clust12" class="cluster">
<title>clusternode_Set(12)</title>
<polygon fill="none" stroke="black" points="1382,-49 1382,-88 1427,-88 1427,-49 1382,-49"/>
<text text-anchor="middle" x="1404.5" y="-72.8" font-family="Times,serif" font-size="14.00">Last</text>
</g>
<g id="clust13" class="cluster">
<title>clusternode_Set(58)</title>
<polygon fill="none" stroke="black" points="67,-38 67,-77 158,-77 158,-38 67,-38"/>
<text text-anchor="middle" x="112.5" y="-61.8" font-family="Times,serif" font-size="14.00">LoadAssets</text>
</g>
<g id="clust14" class="cluster">
<title>clusternode_Set(59)</title>
<polygon fill="none" stroke="black" points="1250,-26 1250,-65 1346,-65 1346,-26 1250,-26"/>
<text text-anchor="middle" x="1298" y="-49.8" font-family="Times,serif" font-size="14.00">AssetEvents</text>
</g>
<!-- set_marker_node_Set(1) -->
<!-- set_marker_node_Set(7) -->
<!-- set_marker_node_Set(1)&#45;&gt;set_marker_node_Set(7) -->
<g id="edge2" class="edge">
<title>set_marker_node_Set(1)&#45;&gt;set_marker_node_Set(7)</title>
<path fill="none" stroke="black" d="M150.21,-85C155.62,-83.84 161.27,-82.62 166.92,-81.41"/>
<polygon fill="black" stroke="black" points="167.48,-84.87 176.53,-79.35 166.01,-78.02 167.48,-84.87"/>
</g>
<!-- set_marker_node_Set(2) -->
<!-- set_marker_node_Set(8) -->
<!-- set_marker_node_Set(2)&#45;&gt;set_marker_node_Set(8) -->
<g id="edge4" class="edge">
<title>set_marker_node_Set(2)&#45;&gt;set_marker_node_Set(8)</title>
<path fill="none" stroke="black" d="M407,-70C409.83,-70 412.68,-70 415.54,-70"/>
<polygon fill="black" stroke="black" points="415.49,-73.5 425.49,-70 415.49,-66.5 415.49,-73.5"/>
</g>
<!-- set_marker_node_Set(3) -->
<!-- set_marker_node_Set(11) -->
<!-- set_marker_node_Set(3)&#45;&gt;set_marker_node_Set(11) -->
<g id="edge8" class="edge">
<title>set_marker_node_Set(3)&#45;&gt;set_marker_node_Set(11)</title>
<path fill="none" stroke="black" d="M878,-70C880.88,-70 883.83,-70 886.86,-70"/>
<polygon fill="black" stroke="black" points="886.49,-73.5 896.49,-70 886.49,-66.5 886.49,-73.5"/>
</g>
<!-- set_marker_node_Set(4) -->
<!-- set_marker_node_Set(12) -->
<!-- set_marker_node_Set(4)&#45;&gt;set_marker_node_Set(12) -->
<g id="edge10" class="edge">
<title>set_marker_node_Set(4)&#45;&gt;set_marker_node_Set(12)</title>
<path fill="none" stroke="black" d="M1343.87,-73C1349.98,-71.75 1356.16,-70.41 1362,-69 1364.97,-68.28 1368.04,-67.49 1371.11,-66.66"/>
<polygon fill="black" stroke="black" points="1371.88,-70.08 1380.55,-63.98 1369.97,-63.34 1371.88,-70.08"/>
</g>
<!-- set_marker_node_Set(5) -->
<!-- set_marker_node_Set(6) -->
<!-- set_marker_node_Set(6)&#45;&gt;set_marker_node_Set(1) -->
<g id="edge1" class="edge">
<title>set_marker_node_Set(6)&#45;&gt;set_marker_node_Set(1)</title>
<path fill="none" stroke="black" d="M47,-75.44C53.47,-77.25 60.51,-79.21 67,-81 68.18,-81.33 69.37,-81.65 70.58,-81.99"/>
<polygon fill="black" stroke="black" points="69.56,-85.34 80.13,-84.6 71.41,-78.58 69.56,-85.34"/>
</g>
<!-- set_marker_node_Set(58) -->
<!-- set_marker_node_Set(6)&#45;&gt;set_marker_node_Set(58) -->
<g id="edge13" class="edge">
<title>set_marker_node_Set(6)&#45;&gt;set_marker_node_Set(58)</title>
<path fill="none" stroke="black" d="M47,-62.92C49.97,-62.13 53.11,-61.3 56.34,-60.45"/>
<polygon fill="black" stroke="black" points="56.77,-63.96 65.54,-58.02 54.98,-57.19 56.77,-63.96"/>
</g>
<!-- set_marker_node_Set(7)&#45;&gt;set_marker_node_Set(2) -->
<g id="edge3" class="edge">
<title>set_marker_node_Set(7)&#45;&gt;set_marker_node_Set(2)</title>
<path fill="none" stroke="black" d="M264,-70C266.78,-70 269.62,-70 272.49,-70"/>
<polygon fill="black" stroke="black" points="272.49,-73.5 282.49,-70 272.49,-66.5 272.49,-73.5"/>
</g>
<!-- set_marker_node_Set(9) -->
<!-- set_marker_node_Set(8)&#45;&gt;set_marker_node_Set(9) -->
<g id="edge5" class="edge">
<title>set_marker_node_Set(8)&#45;&gt;set_marker_node_Set(9)</title>
<path fill="none" stroke="black" d="M552,-70C554.93,-70 557.87,-70 560.8,-70"/>
<polygon fill="black" stroke="black" points="560.49,-73.5 570.49,-70 560.49,-66.5 560.49,-73.5"/>
</g>
<!-- set_marker_node_Set(10) -->
<!-- set_marker_node_Set(9)&#45;&gt;set_marker_node_Set(10) -->
<g id="edge6" class="edge">
<title>set_marker_node_Set(9)&#45;&gt;set_marker_node_Set(10)</title>
<path fill="none" stroke="black" d="M673,-70C675.93,-70 678.87,-70 681.76,-70"/>
<polygon fill="black" stroke="black" points="681.49,-73.5 691.49,-70 681.49,-66.5 681.49,-73.5"/>
</g>
<!-- set_marker_node_Set(10)&#45;&gt;set_marker_node_Set(3) -->
<g id="edge7" class="edge">
<title>set_marker_node_Set(10)&#45;&gt;set_marker_node_Set(3)</title>
<path fill="none" stroke="black" d="M757,-70C759.78,-70 762.64,-70 765.56,-70"/>
<polygon fill="black" stroke="black" points="765.49,-73.5 775.49,-70 765.49,-66.5 765.49,-73.5"/>
</g>
<!-- set_marker_node_Set(11)&#45;&gt;set_marker_node_Set(4) -->
<g id="edge9" class="edge">
<title>set_marker_node_Set(11)&#45;&gt;set_marker_node_Set(4)</title>
<path fill="none" stroke="black" d="M1214,-77.2C1216.91,-77.33 1219.78,-77.46 1222.62,-77.59"/>
<polygon fill="black" stroke="black" points="1222.34,-81.08 1232.49,-78.04 1222.66,-74.09 1222.34,-81.08"/>
</g>
<!-- set_marker_node_Set(59) -->
<!-- set_marker_node_Set(11)&#45;&gt;set_marker_node_Set(59) -->
<g id="edge14" class="edge">
<title>set_marker_node_Set(11)&#45;&gt;set_marker_node_Set(59)</title>
<path fill="none" stroke="black" d="M1214,-61C1222.25,-59.45 1230.82,-57.3 1239.18,-54.9"/>
<polygon fill="black" stroke="black" points="1240,-58.3 1248.55,-52.05 1237.97,-51.6 1240,-58.3"/>
</g>
<!-- node_System(129) -->
<g id="node12" class="node">
<title>node_System(129)</title>
<polygon fill="none" stroke="black" points="1206,-52 906,-52 906,-16 1206,-16 1206,-52"/>
<text text-anchor="middle" x="1056" y="-30.3" font-family="Times,serif" font-size="14.00">play_queued_audio_system&lt;AudioSource&gt;</text>
</g>
<!-- set_marker_node_Set(12)&#45;&gt;set_marker_node_Set(5) -->
<g id="edge11" class="edge">
<title>set_marker_node_Set(12)&#45;&gt;set_marker_node_Set(5)</title>
<path fill="none" stroke="black" d="M1427,-57C1429.78,-57 1432.72,-57 1435.74,-57"/>
<polygon fill="black" stroke="black" points="1435.49,-60.5 1445.49,-57 1435.49,-53.5 1435.49,-60.5"/>
</g>
<!-- set_marker_node_Set(58)&#45;&gt;set_marker_node_Set(7) -->
<g id="edge12" class="edge">
<title>set_marker_node_Set(58)&#45;&gt;set_marker_node_Set(7)</title>
<path fill="none" stroke="black" d="M158,-56.09C163.09,-57.24 168.29,-58.4 173.4,-59.55"/>
<polygon fill="black" stroke="black" points="172.35,-62.9 182.87,-61.67 173.88,-56.07 172.35,-62.9"/>
</g>
<!-- set_marker_node_Set(59)&#45;&gt;set_marker_node_Set(12) -->
<g id="edge15" class="edge">
<title>set_marker_node_Set(59)&#45;&gt;set_marker_node_Set(12)</title>
<path fill="none" stroke="black" d="M1346,-44.39C1354.38,-46.25 1362.94,-48.14 1370.79,-49.88"/>
<polygon fill="black" stroke="black" points="1370,-53.29 1380.52,-52.03 1371.52,-46.45 1370,-53.29"/>
</g>
</g>
</svg>
