<?xml version="1.0" encoding="UTF-8" standalone="no"?>
<!DOCTYPE svg PUBLIC "-//W3C//DTD SVG 1.1//EN"
 "http://www.w3.org/Graphics/SVG/1.1/DTD/svg11.dtd">
<!-- Generated by graphviz version 7.0.6 (0)
 -->
<!-- Title: schedule Pages: 1 -->
<svg width="1477pt" height="141pt"
 viewBox="0.00 0.00 1477.00 141.00" xmlns="http://www.w3.org/2000/svg" xmlns:xlink="http://www.w3.org/1999/xlink">
<g id="graph0" class="graph" transform="scale(1 1) rotate(0) translate(4 137)">
<title>schedule</title>
<polygon fill="#0d1117" stroke="none" points="-4,4 -4,-137 1473,-137 1473,4 -4,4"/>
<g id="clust1" class="cluster">
<title>clusternode_Set(1)</title>
<polygon fill="#6f90ad" stroke="black" points="70,-74 70,-113 152,-113 152,-74 70,-74"/>
<text text-anchor="middle" x="111" y="-97.8" font-family="Helvetica,sans-Serif" font-size="14.00">FirstFlush</text>
</g>
<g id="clust2" class="cluster">
<title>clusternode_Set(2)</title>
<polygon fill="#6f90ad" stroke="black" points="331,-62 331,-101 453,-101 453,-62 331,-62"/>
<text text-anchor="middle" x="392" y="-85.8" font-family="Helvetica,sans-Serif" font-size="14.00">PreUpdateFlush</text>
</g>
<g id="clust3" class="cluster">
<title>clusternode_Set(3)</title>
<polygon fill="#6f90ad" stroke="black" points="942,-62 942,-101 1043,-101 1043,-62 942,-62"/>
<text text-anchor="middle" x="992.5" y="-85.8" font-family="Helvetica,sans-Serif" font-size="14.00">UpdateFlush</text>
</g>
<g id="clust4" class="cluster">
<title>clusternode_Set(4)</title>
<polygon fill="#6f90ad" stroke="black" points="1176,-86 1176,-125 1305,-125 1305,-86 1176,-86"/>
<text text-anchor="middle" x="1240.5" y="-109.8" font-family="Helvetica,sans-Serif" font-size="14.00">PostUpdateFlush</text>
</g>
<g id="clust5" class="cluster">
<title>clusternode_Set(5)</title>
<polygon fill="#6f90ad" stroke="black" points="1389,-62 1389,-101 1469,-101 1469,-62 1389,-62"/>
<text text-anchor="middle" x="1429" y="-85.8" font-family="Helvetica,sans-Serif" font-size="14.00">LastFlush</text>
</g>
<g id="clust6" class="cluster">
<title>clusternode_Set(6)</title>
<polygon fill="#6f90ad" stroke="black" points="0,-50 0,-89 46,-89 46,-50 0,-50"/>
<text text-anchor="middle" x="23" y="-73.8" font-family="Helvetica,sans-Serif" font-size="14.00">First</text>
</g>
<g id="clust7" class="cluster">
<title>clusternode_Set(7)</title>
<polygon fill="#6f90ad" stroke="black" points="177,-8 177,-101 311,-101 311,-8 177,-8"/>
<text text-anchor="middle" x="244" y="-85.8" font-family="Helvetica,sans-Serif" font-size="14.00">PreUpdate</text>
</g>
<g id="clust8" class="cluster">
<title>clusternode_Set(8)</title>
<polygon fill="#6f90ad" stroke="black" points="473,-62 473,-101 595,-101 595,-62 473,-62"/>
<text text-anchor="middle" x="534" y="-85.8" font-family="Helvetica,sans-Serif" font-size="14.00">StateTransitions</text>
</g>
<g id="clust9" class="cluster">
<title>clusternode_Set(9)</title>
<polygon fill="#6f90ad" stroke="black" points="615,-62 615,-101 715,-101 715,-62 615,-62"/>
<text text-anchor="middle" x="665" y="-85.8" font-family="Helvetica,sans-Serif" font-size="14.00">FixedUpdate</text>
</g>
<g id="clust10" class="cluster">
<title>clusternode_Set(10)</title>
<polygon fill="#6f90ad" stroke="black" points="735,-8 735,-101 922,-101 922,-8 735,-8"/>
<text text-anchor="middle" x="828.5" y="-85.8" font-family="Helvetica,sans-Serif" font-size="14.00">Update</text>
</g>
<g id="clust11" class="cluster">
<title>clusternode_Set(11)</title>
<polygon fill="#6f90ad" stroke="black" points="1063,-62 1063,-101 1156,-101 1156,-62 1063,-62"/>
<text text-anchor="middle" x="1109.5" y="-85.8" font-family="Helvetica,sans-Serif" font-size="14.00">PostUpdate</text>
</g>
<g id="clust12" class="cluster">
<title>clusternode_Set(12)</title>
<polygon fill="#6f90ad" stroke="black" points="1325,-62 1325,-101 1369,-101 1369,-62 1325,-62"/>
<text text-anchor="middle" x="1347" y="-85.8" font-family="Helvetica,sans-Serif" font-size="14.00">Last</text>
</g>
<g id="clust13" class="cluster">
<title>clusternode_Set(58)</title>
<polygon fill="#6f90ad" stroke="black" points="66,-27 66,-66 157,-66 157,-27 66,-27"/>
<text text-anchor="middle" x="111.5" y="-50.8" font-family="Helvetica,sans-Serif" font-size="14.00">LoadAssets</text>
</g>
<g id="clust14" class="cluster">
<title>clusternode_Set(59)</title>
<polygon fill="#6f90ad" stroke="black" points="1192,-39 1192,-78 1288,-78 1288,-39 1192,-39"/>
<text text-anchor="middle" x="1240" y="-62.8" font-family="Helvetica,sans-Serif" font-size="14.00">AssetEvents</text>
</g>
<!-- set_marker_node_Set(1) -->
<!-- set_marker_node_Set(7) -->
<!-- set_marker_node_Set(1)&#45;&gt;set_marker_node_Set(7) -->
<g id="edge2" class="edge">
<title>set_marker_node_Set(1)&#45;&gt;set_marker_node_Set(7)</title>
<path fill="none" stroke="white" d="M152,-78.34C156.38,-77.93 160.95,-77.52 165.6,-77.09"/>
<polygon fill="white" stroke="white" points="165.86,-80.58 175.49,-76.18 165.22,-73.61 165.86,-80.58"/>
</g>
<!-- set_marker_node_Set(2) -->
<!-- set_marker_node_Set(8) -->
<!-- set_marker_node_Set(2)&#45;&gt;set_marker_node_Set(8) -->
<g id="edge4" class="edge">
<title>set_marker_node_Set(2)&#45;&gt;set_marker_node_Set(8)</title>
<path fill="none" stroke="white" d="M453,-70C455.88,-70 458.78,-70 461.68,-70"/>
<polygon fill="white" stroke="white" points="461.49,-73.5 471.49,-70 461.49,-66.5 461.49,-73.5"/>
</g>
<!-- set_marker_node_Set(3) -->
<!-- set_marker_node_Set(11) -->
<!-- set_marker_node_Set(3)&#45;&gt;set_marker_node_Set(11) -->
<g id="edge8" class="edge">
<title>set_marker_node_Set(3)&#45;&gt;set_marker_node_Set(11)</title>
<path fill="none" stroke="white" d="M1043,-70C1045.92,-70 1048.88,-70 1051.82,-70"/>
<polygon fill="white" stroke="white" points="1051.49,-73.5 1061.49,-70 1051.49,-66.5 1051.49,-73.5"/>
</g>
<!-- set_marker_node_Set(4) -->
<!-- set_marker_node_Set(12) -->
<!-- set_marker_node_Set(4)&#45;&gt;set_marker_node_Set(12) -->
<g id="edge10" class="edge">
<title>set_marker_node_Set(4)&#45;&gt;set_marker_node_Set(12)</title>
<path fill="none" stroke="white" d="M1286.71,-86C1292.88,-84.76 1299.11,-83.41 1305,-82 1307.97,-81.29 1311.04,-80.5 1314.11,-79.67"/>
<polygon fill="white" stroke="white" points="1314.88,-83.09 1323.55,-76.99 1312.97,-76.35 1314.88,-83.09"/>
</g>
<!-- set_marker_node_Set(5) -->
<!-- set_marker_node_Set(6) -->
<!-- set_marker_node_Set(6)&#45;&gt;set_marker_node_Set(1) -->
<g id="edge1" class="edge">
<title>set_marker_node_Set(6)&#45;&gt;set_marker_node_Set(1)</title>
<path fill="none" stroke="white" d="M46,-64.34C52.44,-66.18 59.5,-68.18 66,-70 67.17,-70.33 68.36,-70.66 69.55,-70.99"/>
<polygon fill="white" stroke="white" points="68.45,-74.32 79.02,-73.6 70.31,-67.57 68.45,-74.32"/>
</g>
<!-- set_marker_node_Set(58) -->
<!-- set_marker_node_Set(6)&#45;&gt;set_marker_node_Set(58) -->
<g id="edge13" class="edge">
<title>set_marker_node_Set(6)&#45;&gt;set_marker_node_Set(58)</title>
<path fill="none" stroke="white" d="M46,-52.12C48.89,-51.34 51.94,-50.53 55.09,-49.68"/>
<polygon fill="white" stroke="white" points="55.78,-53.12 64.54,-47.16 53.98,-46.36 55.78,-53.12"/>
</g>
<!-- set_marker_node_Set(7)&#45;&gt;set_marker_node_Set(2) -->
<g id="edge3" class="edge">
<title>set_marker_node_Set(7)&#45;&gt;set_marker_node_Set(2)</title>
<path fill="none" stroke="white" d="M311,-70C313.95,-70 316.93,-70 319.89,-70"/>
<polygon fill="white" stroke="white" points="319.49,-73.5 329.49,-70 319.49,-66.5 319.49,-73.5"/>
</g>
<!-- node_System(56) -->
<g id="node8" class="node">
<title>node_System(56)</title>
<polygon fill="#eff1f3" stroke="#eff1f3" points="303,-52 185,-52 185,-16 303,-16 303,-52"/>
<text text-anchor="middle" x="244" y="-30.3" font-family="Times,serif" font-size="14.00">scene_spawner</text>
</g>
<!-- set_marker_node_Set(9) -->
<!-- set_marker_node_Set(8)&#45;&gt;set_marker_node_Set(9) -->
<g id="edge5" class="edge">
<title>set_marker_node_Set(8)&#45;&gt;set_marker_node_Set(9)</title>
<path fill="none" stroke="white" d="M595,-70C597.86,-70 600.74,-70 603.6,-70"/>
<polygon fill="white" stroke="white" points="603.49,-73.5 613.49,-70 603.49,-66.5 603.49,-73.5"/>
</g>
<!-- set_marker_node_Set(10) -->
<!-- set_marker_node_Set(9)&#45;&gt;set_marker_node_Set(10) -->
<g id="edge6" class="edge">
<title>set_marker_node_Set(9)&#45;&gt;set_marker_node_Set(10)</title>
<path fill="none" stroke="white" d="M715,-70C717.85,-70 720.75,-70 723.71,-70"/>
<polygon fill="white" stroke="white" points="723.49,-73.5 733.49,-70 723.49,-66.5 723.49,-73.5"/>
</g>
<!-- set_marker_node_Set(10)&#45;&gt;set_marker_node_Set(3) -->
<g id="edge7" class="edge">
<title>set_marker_node_Set(10)&#45;&gt;set_marker_node_Set(3)</title>
<path fill="none" stroke="white" d="M922,-70C924.89,-70 927.76,-70 930.59,-70"/>
<polygon fill="white" stroke="white" points="930.49,-73.5 940.49,-70 930.49,-66.5 930.49,-73.5"/>
</g>
<!-- node_System(55) -->
<g id="node12" class="node">
<title>node_System(55)</title>
<polygon fill="#eff1f3" stroke="#eff1f3" points="914,-52 743,-52 743,-16 914,-16 914,-52"/>
<text text-anchor="middle" x="828.5" y="-30.3" font-family="Times,serif" font-size="14.00">scene_spawner_system</text>
</g>
<!-- set_marker_node_Set(11)&#45;&gt;set_marker_node_Set(4) -->
<g id="edge9" class="edge">
<title>set_marker_node_Set(11)&#45;&gt;set_marker_node_Set(4)</title>
<path fill="none" stroke="white" d="M1156,-78.56C1165.41,-80.31 1175.4,-82.17 1185.06,-83.96"/>
<polygon fill="white" stroke="white" points="1184.06,-87.34 1194.53,-85.73 1185.34,-80.46 1184.06,-87.34"/>
</g>
<!-- set_marker_node_Set(59) -->
<!-- set_marker_node_Set(11)&#45;&gt;set_marker_node_Set(59) -->
<g id="edge14" class="edge">
<title>set_marker_node_Set(11)&#45;&gt;set_marker_node_Set(59)</title>
<path fill="none" stroke="white" d="M1154.87,-62C1163.26,-60.5 1172.15,-58.92 1180.87,-57.36"/>
<polygon fill="white" stroke="white" points="1181.28,-60.85 1190.51,-55.64 1180.05,-53.95 1181.28,-60.85"/>
</g>
<!-- set_marker_node_Set(12)&#45;&gt;set_marker_node_Set(5) -->
<g id="edge11" class="edge">
<title>set_marker_node_Set(12)&#45;&gt;set_marker_node_Set(5)</title>
<path fill="none" stroke="white" d="M1369,-70C1371.72,-70 1374.6,-70 1377.56,-70"/>
<polygon fill="white" stroke="white" points="1377.49,-73.5 1387.49,-70 1377.49,-66.5 1377.49,-73.5"/>
</g>
<!-- set_marker_node_Set(58)&#45;&gt;set_marker_node_Set(7) -->
<g id="edge12" class="edge">
<title>set_marker_node_Set(58)&#45;&gt;set_marker_node_Set(7)</title>
<path fill="none" stroke="white" d="M157,-54.64C160.07,-55.75 163.17,-56.83 166.28,-57.83"/>
<polygon fill="white" stroke="white" points="164.97,-61.1 175.55,-60.57 166.95,-54.38 164.97,-61.1"/>
</g>
<!-- set_marker_node_Set(59)&#45;&gt;set_marker_node_Set(12) -->
<g id="edge15" class="edge">
<title>set_marker_node_Set(59)&#45;&gt;set_marker_node_Set(12)</title>
<path fill="none" stroke="white" d="M1288,-57.3C1296.82,-59.23 1305.85,-61.21 1314.08,-63.01"/>
<polygon fill="white" stroke="white" points="1313.01,-66.36 1323.52,-65.08 1314.5,-59.52 1313.01,-66.36"/>
</g>
</g>
</svg>
