<?xml version="1.0" encoding="UTF-8" standalone="no"?>
<!DOCTYPE svg PUBLIC "-//W3C//DTD SVG 1.1//EN"
 "http://www.w3.org/Graphics/SVG/1.1/DTD/svg11.dtd">
<!-- Generated by graphviz version 7.0.6 (0)
 -->
<!-- Title: schedule Pages: 1 -->
<svg width="2098pt" height="1148pt"
 viewBox="0.00 0.00 2098.00 1148.00" xmlns="http://www.w3.org/2000/svg" xmlns:xlink="http://www.w3.org/1999/xlink">
<g id="graph0" class="graph" transform="scale(1 1) rotate(0) translate(4 1144)">
<title>schedule</title>
<polygon fill="white" stroke="none" points="-4,4 -4,-1144 2094,-1144 2094,4 -4,4"/>
<g id="clust1" class="cluster">
<title>clusternode_Set(1)</title>
<polygon fill="none" stroke="black" points="250,-1081 250,-1120 334,-1120 334,-1081 250,-1081"/>
<text text-anchor="middle" x="292" y="-1104.8" font-family="Times,serif" font-size="14.00">FirstFlush</text>
</g>
<g id="clust2" class="cluster">
<title>clusternode_Set(2)</title>
<polygon fill="none" stroke="black" points="771,-1057 771,-1096 894,-1096 894,-1057 771,-1057"/>
<text text-anchor="middle" x="832.5" y="-1080.8" font-family="Times,serif" font-size="14.00">PreUpdateFlush</text>
</g>
<g id="clust3" class="cluster">
<title>clusternode_Set(3)</title>
<polygon fill="none" stroke="black" points="1264,-1057 1264,-1096 1365,-1096 1365,-1057 1264,-1057"/>
<text text-anchor="middle" x="1314.5" y="-1080.8" font-family="Times,serif" font-size="14.00">UpdateFlush</text>
</g>
<g id="clust4" class="cluster">
<title>clusternode_Set(4)</title>
<polygon fill="none" stroke="black" points="1646,-1093 1646,-1132 1774,-1132 1774,-1093 1646,-1093"/>
<text text-anchor="middle" x="1710" y="-1116.8" font-family="Times,serif" font-size="14.00">PostUpdateFlush</text>
</g>
<g id="clust5" class="cluster">
<title>clusternode_Set(5)</title>
<polygon fill="none" stroke="black" points="2008,-1069 2008,-1108 2090,-1108 2090,-1069 2008,-1069"/>
<text text-anchor="middle" x="2049" y="-1092.8" font-family="Times,serif" font-size="14.00">LastFlush</text>
</g>
<g id="clust6" class="cluster">
<title>clusternode_Set(6)</title>
<polygon fill="none" stroke="black" points="0,-1057 0,-1096 47,-1096 47,-1057 0,-1057"/>
<text text-anchor="middle" x="23.5" y="-1080.8" font-family="Times,serif" font-size="14.00">First</text>
</g>
<g id="clust7" class="cluster">
<title>clusternode_Set(7)</title>
<polygon fill="none" stroke="black" points="537,-1003 537,-1096 751,-1096 751,-1003 537,-1003"/>
<text text-anchor="middle" x="644" y="-1080.8" font-family="Times,serif" font-size="14.00">PreUpdate</text>
</g>
<g id="clust8" class="cluster">
<title>clusternode_Set(8)</title>
<polygon fill="none" stroke="black" points="914,-1057 914,-1096 1039,-1096 1039,-1057 914,-1057"/>
<text text-anchor="middle" x="976.5" y="-1080.8" font-family="Times,serif" font-size="14.00">StateTransitions</text>
</g>
<g id="clust9" class="cluster">
<title>clusternode_Set(9)</title>
<polygon fill="none" stroke="black" points="1059,-1057 1059,-1096 1160,-1096 1160,-1057 1059,-1057"/>
<text text-anchor="middle" x="1109.5" y="-1080.8" font-family="Times,serif" font-size="14.00">FixedUpdate</text>
</g>
<g id="clust10" class="cluster">
<title>clusternode_Set(10)</title>
<polygon fill="none" stroke="black" points="1180,-1057 1180,-1096 1244,-1096 1244,-1057 1180,-1057"/>
<text text-anchor="middle" x="1212" y="-1080.8" font-family="Times,serif" font-size="14.00">Update</text>
</g>
<g id="clust11" class="cluster">
<title>clusternode_Set(11)</title>
<polygon fill="none" stroke="black" points="1385,-1057 1385,-1096 1477,-1096 1477,-1057 1385,-1057"/>
<text text-anchor="middle" x="1431" y="-1080.8" font-family="Times,serif" font-size="14.00">PostUpdate</text>
</g>
<g id="clust12" class="cluster">
<title>clusternode_Set(12)</title>
<polygon fill="none" stroke="black" points="1943,-1069 1943,-1108 1988,-1108 1988,-1069 1943,-1069"/>
<text text-anchor="middle" x="1965.5" y="-1092.8" font-family="Times,serif" font-size="14.00">Last</text>
</g>
<g id="clust13" class="cluster">
<title>clusternode_Set(58)</title>
<polygon fill="none" stroke="black" points="67,-8 67,-1073 517,-1073 517,-8 67,-8"/>
<text text-anchor="middle" x="292" y="-1057.8" font-family="Times,serif" font-size="14.00">LoadAssets</text>
</g>
<g id="clust14" class="cluster">
<title>clusternode_Set(59)</title>
<polygon fill="none" stroke="black" points="1497,-74 1497,-1085 1923,-1085 1923,-74 1497,-74"/>
<text text-anchor="middle" x="1710" y="-1069.8" font-family="Times,serif" font-size="14.00">AssetEvents</text>
</g>
<!-- set_marker_node_Set(1) -->
<!-- set_marker_node_Set(7) -->
<!-- set_marker_node_Set(1)&#45;&gt;set_marker_node_Set(7) -->
<g id="edge2" class="edge">
<title>set_marker_node_Set(1)&#45;&gt;set_marker_node_Set(7)</title>
<path fill="none" stroke="black" d="M334,-1087.31C378.94,-1085.35 453.15,-1081.75 517,-1077 519.85,-1076.79 522.74,-1076.57 525.66,-1076.34"/>
<polygon fill="black" stroke="black" points="525.81,-1079.84 535.49,-1075.54 525.24,-1072.86 525.81,-1079.84"/>
</g>
<!-- set_marker_node_Set(2) -->
<!-- set_marker_node_Set(8) -->
<!-- set_marker_node_Set(2)&#45;&gt;set_marker_node_Set(8) -->
<g id="edge4" class="edge">
<title>set_marker_node_Set(2)&#45;&gt;set_marker_node_Set(8)</title>
<path fill="none" stroke="black" d="M894,-1065C896.83,-1065 899.68,-1065 902.54,-1065"/>
<polygon fill="black" stroke="black" points="902.49,-1068.5 912.49,-1065 902.49,-1061.5 902.49,-1068.5"/>
</g>
<!-- set_marker_node_Set(3) -->
<!-- set_marker_node_Set(11) -->
<!-- set_marker_node_Set(3)&#45;&gt;set_marker_node_Set(11) -->
<g id="edge8" class="edge">
<title>set_marker_node_Set(3)&#45;&gt;set_marker_node_Set(11)</title>
<path fill="none" stroke="black" d="M1365,-1065C1367.92,-1065 1370.88,-1065 1373.82,-1065"/>
<polygon fill="black" stroke="black" points="1373.49,-1068.5 1383.49,-1065 1373.49,-1061.5 1373.49,-1068.5"/>
</g>
<!-- set_marker_node_Set(4) -->
<!-- set_marker_node_Set(12) -->
<!-- set_marker_node_Set(4)&#45;&gt;set_marker_node_Set(12) -->
<g id="edge10" class="edge">
<title>set_marker_node_Set(4)&#45;&gt;set_marker_node_Set(12)</title>
<path fill="none" stroke="black" d="M1774,-1101.18C1816.39,-1100.39 1873.39,-1097.55 1923,-1089 1925.99,-1088.48 1929.07,-1087.83 1932.14,-1087.09"/>
<polygon fill="black" stroke="black" points="1932.8,-1090.53 1941.54,-1084.54 1930.97,-1083.78 1932.8,-1090.53"/>
</g>
<!-- set_marker_node_Set(5) -->
<!-- set_marker_node_Set(6) -->
<!-- set_marker_node_Set(6)&#45;&gt;set_marker_node_Set(1) -->
<g id="edge1" class="edge">
<title>set_marker_node_Set(6)&#45;&gt;set_marker_node_Set(1)</title>
<path fill="none" stroke="black" d="M47,-1072.42C53.41,-1074.21 60.42,-1075.92 67,-1077 125.23,-1086.57 192.99,-1089.01 238.61,-1089.42"/>
<polygon fill="black" stroke="black" points="238.47,-1092.91 248.49,-1089.47 238.51,-1085.91 238.47,-1092.91"/>
</g>
<!-- set_marker_node_Set(58) -->
<!-- set_marker_node_Set(6)&#45;&gt;set_marker_node_Set(58) -->
<g id="edge13" class="edge">
<title>set_marker_node_Set(6)&#45;&gt;set_marker_node_Set(58)</title>
<path fill="none" stroke="black" d="M47,-1063.02C49.69,-1062.79 52.59,-1062.54 55.66,-1062.27"/>
<polygon fill="black" stroke="black" points="55.83,-1065.77 65.5,-1061.43 55.23,-1058.8 55.83,-1065.77"/>
</g>
<!-- set_marker_node_Set(7)&#45;&gt;set_marker_node_Set(2) -->
<g id="edge3" class="edge">
<title>set_marker_node_Set(7)&#45;&gt;set_marker_node_Set(2)</title>
<path fill="none" stroke="black" d="M751,-1065C753.89,-1065 756.76,-1065 759.61,-1065"/>
<polygon fill="black" stroke="black" points="759.49,-1068.5 769.49,-1065 759.49,-1061.5 759.49,-1068.5"/>
</g>
<!-- node_System(47) -->
<g id="node8" class="node">
<title>node_System(47)</title>
<polygon fill="none" stroke="black" points="743,-1047 545,-1047 545,-1011 743,-1011 743,-1047"/>
<text text-anchor="middle" x="644" y="-1025.3" font-family="Times,serif" font-size="14.00">free_unused_assets_system</text>
</g>
<!-- set_marker_node_Set(9) -->
<!-- set_marker_node_Set(8)&#45;&gt;set_marker_node_Set(9) -->
<g id="edge5" class="edge">
<title>set_marker_node_Set(8)&#45;&gt;set_marker_node_Set(9)</title>
<path fill="none" stroke="black" d="M1039,-1065C1041.93,-1065 1044.87,-1065 1047.8,-1065"/>
<polygon fill="black" stroke="black" points="1047.49,-1068.5 1057.49,-1065 1047.49,-1061.5 1047.49,-1068.5"/>
</g>
<!-- set_marker_node_Set(10) -->
<!-- set_marker_node_Set(9)&#45;&gt;set_marker_node_Set(10) -->
<g id="edge6" class="edge">
<title>set_marker_node_Set(9)&#45;&gt;set_marker_node_Set(10)</title>
<path fill="none" stroke="black" d="M1160,-1065C1162.93,-1065 1165.87,-1065 1168.76,-1065"/>
<polygon fill="black" stroke="black" points="1168.49,-1068.5 1178.49,-1065 1168.49,-1061.5 1168.49,-1068.5"/>
</g>
<!-- set_marker_node_Set(10)&#45;&gt;set_marker_node_Set(3) -->
<g id="edge7" class="edge">
<title>set_marker_node_Set(10)&#45;&gt;set_marker_node_Set(3)</title>
<path fill="none" stroke="black" d="M1244,-1065C1246.78,-1065 1249.64,-1065 1252.56,-1065"/>
<polygon fill="black" stroke="black" points="1252.49,-1068.5 1262.49,-1065 1252.49,-1061.5 1252.49,-1068.5"/>
</g>
<!-- set_marker_node_Set(11)&#45;&gt;set_marker_node_Set(4) -->
<g id="edge9" class="edge">
<title>set_marker_node_Set(11)&#45;&gt;set_marker_node_Set(4)</title>
<path fill="none" stroke="black" d="M1477,-1083.56C1483.62,-1085.72 1490.42,-1087.63 1497,-1089 1542.12,-1098.39 1593.73,-1101.47 1634.73,-1102.16"/>
<polygon fill="black" stroke="black" points="1634.45,-1105.66 1644.49,-1102.28 1634.53,-1098.66 1634.45,-1105.66"/>
</g>
<!-- set_marker_node_Set(59) -->
<!-- set_marker_node_Set(11)&#45;&gt;set_marker_node_Set(59) -->
<g id="edge14" class="edge">
<title>set_marker_node_Set(11)&#45;&gt;set_marker_node_Set(59)</title>
<path fill="none" stroke="black" d="M1477,-1063.21C1479.82,-1063.1 1482.74,-1062.99 1485.75,-1062.87"/>
<polygon fill="black" stroke="black" points="1485.64,-1066.37 1495.49,-1062.48 1485.36,-1059.38 1485.64,-1066.37"/>
</g>
<!-- set_marker_node_Set(12)&#45;&gt;set_marker_node_Set(5) -->
<g id="edge11" class="edge">
<title>set_marker_node_Set(12)&#45;&gt;set_marker_node_Set(5)</title>
<path fill="none" stroke="black" d="M1988,-1077C1990.78,-1077 1993.72,-1077 1996.74,-1077"/>
<polygon fill="black" stroke="black" points="1996.49,-1080.5 2006.49,-1077 1996.49,-1073.5 1996.49,-1080.5"/>
</g>
<!-- set_marker_node_Set(58)&#45;&gt;set_marker_node_Set(7) -->
<g id="edge12" class="edge">
<title>set_marker_node_Set(58)&#45;&gt;set_marker_node_Set(7)</title>
<path fill="none" stroke="black" d="M517,-1056.72C519.86,-1056.91 522.71,-1057.1 525.53,-1057.28"/>
<polygon fill="black" stroke="black" points="525.28,-1060.77 535.49,-1057.94 525.74,-1053.79 525.28,-1060.77"/>
</g>
<!-- node_System(48) -->
<g id="node15" class="node">
<title>node_System(48)</title>
<polygon fill="none" stroke="black" points="392,-1024 192,-1024 192,-988 392,-988 392,-1024"/>
<text text-anchor="middle" x="292" y="-1002.3" font-family="Times,serif" font-size="14.00">filesystem_watcher_system</text>
</g>
<!-- node_System(50) -->
<g id="node16" class="node">
<title>node_System(50)</title>
<polygon fill="none" stroke="black" points="455,-970 129,-970 129,-934 455,-934 455,-970"/>
<text text-anchor="middle" x="292" y="-948.3" font-family="Times,serif" font-size="14.00">update_asset_storage_system&lt;DynamicScene&gt;</text>
</g>
<!-- node_System(53) -->
<g id="node17" class="node">
<title>node_System(53)</title>
<polygon fill="none" stroke="black" points="424.5,-916 159.5,-916 159.5,-880 424.5,-880 424.5,-916"/>
<text text-anchor="middle" x="292" y="-894.3" font-family="Times,serif" font-size="14.00">update_asset_storage_system&lt;Scene&gt;</text>
</g>
<!-- node_System(60) -->
<g id="node18" class="node">
<title>node_System(60)</title>
<polygon fill="none" stroke="black" points="429,-862 155,-862 155,-826 429,-826 429,-862"/>
<text text-anchor="middle" x="292" y="-840.3" font-family="Times,serif" font-size="14.00">update_asset_storage_system&lt;Shader&gt;</text>
</g>
<!-- node_System(73) -->
<g id="node19" class="node">
<title>node_System(73)</title>
<polygon fill="none" stroke="black" points="423.5,-808 160.5,-808 160.5,-772 423.5,-772 423.5,-808"/>
<text text-anchor="middle" x="292" y="-786.3" font-family="Times,serif" font-size="14.00">update_asset_storage_system&lt;Mesh&gt;</text>
</g>
<!-- node_System(76) -->
<g id="node20" class="node">
<title>node_System(76)</title>
<polygon fill="none" stroke="black" points="509,-754 75,-754 75,-718 509,-718 509,-754"/>
<text text-anchor="middle" x="292" y="-732.3" font-family="Times,serif" font-size="14.00">update_asset_storage_system&lt;SkinnedMeshInverseBindposes&gt;</text>
</g>
<!-- node_System(79) -->
<g id="node21" class="node">
<title>node_System(79)</title>
<polygon fill="none" stroke="black" points="426.5,-700 157.5,-700 157.5,-664 426.5,-664 426.5,-700"/>
<text text-anchor="middle" x="292" y="-678.3" font-family="Times,serif" font-size="14.00">update_asset_storage_system&lt;Image&gt;</text>
</g>
<!-- node_System(82) -->
<g id="node22" class="node">
<title>node_System(82)</title>
<polygon fill="none" stroke="black" points="448.5,-646 135.5,-646 135.5,-610 448.5,-610 448.5,-646"/>
<text text-anchor="middle" x="292" y="-624.3" font-family="Times,serif" font-size="14.00">update_asset_storage_system&lt;TextureAtlas&gt;</text>
</g>
<!-- node_System(85) -->
<g id="node23" class="node">
<title>node_System(85)</title>
<polygon fill="none" stroke="black" points="452.5,-592 131.5,-592 131.5,-556 452.5,-556 452.5,-592"/>
<text text-anchor="middle" x="292" y="-570.3" font-family="Times,serif" font-size="14.00">update_asset_storage_system&lt;ColorMaterial&gt;</text>
</g>
<!-- node_System(88) -->
<g id="node24" class="node">
<title>node_System(88)</title>
<polygon fill="none" stroke="black" points="420.5,-538 163.5,-538 163.5,-502 420.5,-502 420.5,-538"/>
<text text-anchor="middle" x="292" y="-516.3" font-family="Times,serif" font-size="14.00">update_asset_storage_system&lt;Font&gt;</text>
</g>
<!-- node_System(91) -->
<g id="node25" class="node">
<title>node_System(91)</title>
<polygon fill="none" stroke="black" points="447.5,-484 136.5,-484 136.5,-448 447.5,-448 447.5,-484"/>
<text text-anchor="middle" x="292" y="-462.3" font-family="Times,serif" font-size="14.00">update_asset_storage_system&lt;FontAtlasSet&gt;</text>
</g>
<!-- node_System(101) -->
<g id="node26" class="node">
<title>node_System(101)</title>
<polygon fill="none" stroke="black" points="465.5,-430 118.5,-430 118.5,-394 465.5,-394 465.5,-430"/>
<text text-anchor="middle" x="292" y="-408.3" font-family="Times,serif" font-size="14.00">update_asset_storage_system&lt;StandardMaterial&gt;</text>
</g>
<!-- node_System(112) -->
<g id="node27" class="node">
<title>node_System(112)</title>
<polygon fill="none" stroke="black" points="417.5,-376 166.5,-376 166.5,-340 417.5,-340 417.5,-376"/>
<text text-anchor="middle" x="292" y="-354.3" font-family="Times,serif" font-size="14.00">update_asset_storage_system&lt;Gltf&gt;</text>
</g>
<!-- node_System(115) -->
<g id="node28" class="node">
<title>node_System(115)</title>
<polygon fill="none" stroke="black" points="435,-322 149,-322 149,-286 435,-286 435,-322"/>
<text text-anchor="middle" x="292" y="-300.3" font-family="Times,serif" font-size="14.00">update_asset_storage_system&lt;GltfNode&gt;</text>
</g>
<!-- node_System(118) -->
<g id="node29" class="node">
<title>node_System(118)</title>
<polygon fill="none" stroke="black" points="449,-268 135,-268 135,-232 449,-232 449,-268"/>
<text text-anchor="middle" x="292" y="-246.3" font-family="Times,serif" font-size="14.00">update_asset_storage_system&lt;GltfPrimitive&gt;</text>
</g>
<!-- node_System(121) -->
<g id="node30" class="node">
<title>node_System(121)</title>
<polygon fill="none" stroke="black" points="435.5,-214 148.5,-214 148.5,-178 435.5,-178 435.5,-214"/>
<text text-anchor="middle" x="292" y="-192.3" font-family="Times,serif" font-size="14.00">update_asset_storage_system&lt;GltfMesh&gt;</text>
</g>
<!-- node_System(124) -->
<g id="node31" class="node">
<title>node_System(124)</title>
<polygon fill="none" stroke="black" points="448,-160 136,-160 136,-124 448,-124 448,-160"/>
<text text-anchor="middle" x="292" y="-138.3" font-family="Times,serif" font-size="14.00">update_asset_storage_system&lt;AudioSource&gt;</text>
</g>
<!-- node_System(127) -->
<g id="node32" class="node">
<title>node_System(127)</title>
<polygon fill="none" stroke="black" points="440,-106 144,-106 144,-70 440,-70 440,-106"/>
<text text-anchor="middle" x="292" y="-84.3" font-family="Times,serif" font-size="14.00">update_asset_storage_system&lt;AudioSink&gt;</text>
</g>
<!-- node_System(132) -->
<g id="node33" class="node">
<title>node_System(132)</title>
<polygon fill="none" stroke="black" points="454,-52 130,-52 130,-16 454,-16 454,-52"/>
<text text-anchor="middle" x="292" y="-30.3" font-family="Times,serif" font-size="14.00">update_asset_storage_system&lt;AnimationClip&gt;</text>
</g>
<!-- set_marker_node_Set(59)&#45;&gt;set_marker_node_Set(12) -->
<g id="edge15" class="edge">
<title>set_marker_node_Set(59)&#45;&gt;set_marker_node_Set(12)</title>
<path fill="none" stroke="black" d="M1923,-1073.27C1926.06,-1073.55 1929,-1073.82 1931.8,-1074.07"/>
<polygon fill="black" stroke="black" points="1931.22,-1077.53 1941.5,-1074.95 1931.86,-1070.56 1931.22,-1077.53"/>
</g>
<!-- node_System(49) -->
<g id="node35" class="node">
<title>node_System(49)</title>
<polygon fill="none" stroke="black" points="1861,-1036 1559,-1036 1559,-1000 1861,-1000 1861,-1036"/>
<text text-anchor="middle" x="1710" y="-1014.3" font-family="Times,serif" font-size="14.00">Assets&lt;DynamicScene&gt;asset_event_system</text>
</g>
<!-- node_System(52) -->
<g id="node36" class="node">
<title>node_System(52)</title>
<polygon fill="none" stroke="black" points="1830.5,-982 1589.5,-982 1589.5,-946 1830.5,-946 1830.5,-982"/>
<text text-anchor="middle" x="1710" y="-960.3" font-family="Times,serif" font-size="14.00">Assets&lt;Scene&gt;asset_event_system</text>
</g>
<!-- node_System(59) -->
<g id="node37" class="node">
<title>node_System(59)</title>
<polygon fill="none" stroke="black" points="1835,-928 1585,-928 1585,-892 1835,-892 1835,-928"/>
<text text-anchor="middle" x="1710" y="-906.3" font-family="Times,serif" font-size="14.00">Assets&lt;Shader&gt;asset_event_system</text>
</g>
<!-- node_System(72) -->
<g id="node38" class="node">
<title>node_System(72)</title>
<polygon fill="none" stroke="black" points="1829.5,-874 1590.5,-874 1590.5,-838 1829.5,-838 1829.5,-874"/>
<text text-anchor="middle" x="1710" y="-852.3" font-family="Times,serif" font-size="14.00">Assets&lt;Mesh&gt;asset_event_system</text>
</g>
<!-- node_System(75) -->
<g id="node39" class="node">
<title>node_System(75)</title>
<polygon fill="none" stroke="black" points="1915,-820 1505,-820 1505,-784 1915,-784 1915,-820"/>
<text text-anchor="middle" x="1710" y="-798.3" font-family="Times,serif" font-size="14.00">Assets&lt;SkinnedMeshInverseBindposes&gt;asset_event_system</text>
</g>
<!-- node_System(78) -->
<g id="node40" class="node">
<title>node_System(78)</title>
<polygon fill="none" stroke="black" points="1832.5,-766 1587.5,-766 1587.5,-730 1832.5,-730 1832.5,-766"/>
<text text-anchor="middle" x="1710" y="-744.3" font-family="Times,serif" font-size="14.00">Assets&lt;Image&gt;asset_event_system</text>
</g>
<!-- node_System(81) -->
<g id="node41" class="node">
<title>node_System(81)</title>
<polygon fill="none" stroke="black" points="1854.5,-712 1565.5,-712 1565.5,-676 1854.5,-676 1854.5,-712"/>
<text text-anchor="middle" x="1710" y="-690.3" font-family="Times,serif" font-size="14.00">Assets&lt;TextureAtlas&gt;asset_event_system</text>
</g>
<!-- node_System(84) -->
<g id="node42" class="node">
<title>node_System(84)</title>
<polygon fill="none" stroke="black" points="1858.5,-658 1561.5,-658 1561.5,-622 1858.5,-622 1858.5,-658"/>
<text text-anchor="middle" x="1710" y="-636.3" font-family="Times,serif" font-size="14.00">Assets&lt;ColorMaterial&gt;asset_event_system</text>
</g>
<!-- node_System(87) -->
<g id="node43" class="node">
<title>node_System(87)</title>
<polygon fill="none" stroke="black" points="1826.5,-604 1593.5,-604 1593.5,-568 1826.5,-568 1826.5,-604"/>
<text text-anchor="middle" x="1710" y="-582.3" font-family="Times,serif" font-size="14.00">Assets&lt;Font&gt;asset_event_system</text>
</g>
<!-- node_System(90) -->
<g id="node44" class="node">
<title>node_System(90)</title>
<polygon fill="none" stroke="black" points="1853.5,-550 1566.5,-550 1566.5,-514 1853.5,-514 1853.5,-550"/>
<text text-anchor="middle" x="1710" y="-528.3" font-family="Times,serif" font-size="14.00">Assets&lt;FontAtlasSet&gt;asset_event_system</text>
</g>
<!-- node_System(100) -->
<g id="node45" class="node">
<title>node_System(100)</title>
<polygon fill="none" stroke="black" points="1871.5,-496 1548.5,-496 1548.5,-460 1871.5,-460 1871.5,-496"/>
<text text-anchor="middle" x="1710" y="-474.3" font-family="Times,serif" font-size="14.00">Assets&lt;StandardMaterial&gt;asset_event_system</text>
</g>
<!-- node_System(111) -->
<g id="node46" class="node">
<title>node_System(111)</title>
<polygon fill="none" stroke="black" points="1823.5,-442 1596.5,-442 1596.5,-406 1823.5,-406 1823.5,-442"/>
<text text-anchor="middle" x="1710" y="-420.3" font-family="Times,serif" font-size="14.00">Assets&lt;Gltf&gt;asset_event_system</text>
</g>
<!-- node_System(114) -->
<g id="node47" class="node">
<title>node_System(114)</title>
<polygon fill="none" stroke="black" points="1841,-388 1579,-388 1579,-352 1841,-352 1841,-388"/>
<text text-anchor="middle" x="1710" y="-366.3" font-family="Times,serif" font-size="14.00">Assets&lt;GltfNode&gt;asset_event_system</text>
</g>
<!-- node_System(117) -->
<g id="node48" class="node">
<title>node_System(117)</title>
<polygon fill="none" stroke="black" points="1855,-334 1565,-334 1565,-298 1855,-298 1855,-334"/>
<text text-anchor="middle" x="1710" y="-312.3" font-family="Times,serif" font-size="14.00">Assets&lt;GltfPrimitive&gt;asset_event_system</text>
</g>
<!-- node_System(120) -->
<g id="node49" class="node">
<title>node_System(120)</title>
<polygon fill="none" stroke="black" points="1841.5,-280 1578.5,-280 1578.5,-244 1841.5,-244 1841.5,-280"/>
<text text-anchor="middle" x="1710" y="-258.3" font-family="Times,serif" font-size="14.00">Assets&lt;GltfMesh&gt;asset_event_system</text>
</g>
<!-- node_System(123) -->
<g id="node50" class="node">
<title>node_System(123)</title>
<polygon fill="none" stroke="black" points="1854,-226 1566,-226 1566,-190 1854,-190 1854,-226"/>
<text text-anchor="middle" x="1710" y="-204.3" font-family="Times,serif" font-size="14.00">Assets&lt;AudioSource&gt;asset_event_system</text>
</g>
<!-- node_System(126) -->
<g id="node51" class="node">
<title>node_System(126)</title>
<polygon fill="none" stroke="black" points="1846,-172 1574,-172 1574,-136 1846,-136 1846,-172"/>
<text text-anchor="middle" x="1710" y="-150.3" font-family="Times,serif" font-size="14.00">Assets&lt;AudioSink&gt;asset_event_system</text>
</g>
<!-- node_System(131) -->
<g id="node52" class="node">
<title>node_System(131)</title>
<polygon fill="none" stroke="black" points="1860,-118 1560,-118 1560,-82 1860,-82 1860,-118"/>
<text text-anchor="middle" x="1710" y="-96.3" font-family="Times,serif" font-size="14.00">Assets&lt;AnimationClip&gt;asset_event_system</text>
</g>
</g>
</svg>
