<?xml version="1.0" encoding="UTF-8" standalone="no"?>
<!DOCTYPE svg PUBLIC "-//W3C//DTD SVG 1.1//EN"
 "http://www.w3.org/Graphics/SVG/1.1/DTD/svg11.dtd">
<!-- Generated by graphviz version 7.0.6 (0)
 -->
<!-- Title: schedule Pages: 1 -->
<svg width="1968pt" height="307pt"
 viewBox="0.00 0.00 1968.00 307.00" xmlns="http://www.w3.org/2000/svg" xmlns:xlink="http://www.w3.org/1999/xlink">
<g id="graph0" class="graph" transform="scale(1 1) rotate(0) translate(4 303)">
<title>schedule</title>
<polygon fill="#0d1117" stroke="none" points="-4,4 -4,-303 1964,-303 1964,4 -4,4"/>
<g id="clust1" class="cluster">
<title>clusternode_Set(1)</title>
<polygon fill="#99aab5" stroke="white" points="70,-172 70,-211 152,-211 152,-172 70,-172"/>
<text text-anchor="middle" x="111" y="-195.8" font-family="Helvetica,sans-Serif" font-size="14.00">FirstFlush</text>
</g>
<g id="clust2" class="cluster">
<title>clusternode_Set(2)</title>
<polygon fill="#99aab5" stroke="white" points="315.5,-102 315.5,-141 437.5,-141 437.5,-102 315.5,-102"/>
<text text-anchor="middle" x="376.5" y="-125.8" font-family="Helvetica,sans-Serif" font-size="14.00">PreUpdateFlush</text>
</g>
<g id="clust3" class="cluster">
<title>clusternode_Set(3)</title>
<polygon fill="#99aab5" stroke="white" points="814,-102 814,-141 915,-141 915,-102 814,-102"/>
<text text-anchor="middle" x="864.5" y="-125.8" font-family="Helvetica,sans-Serif" font-size="14.00">UpdateFlush</text>
</g>
<g id="clust4" class="cluster">
<title>clusternode_Set(4)</title>
<polygon fill="#99aab5" stroke="white" points="1176,-55 1176,-94 1305,-94 1305,-55 1176,-55"/>
<text text-anchor="middle" x="1240.5" y="-78.8" font-family="Helvetica,sans-Serif" font-size="14.00">PostUpdateFlush</text>
</g>
<g id="clust5" class="cluster">
<title>clusternode_Set(5)</title>
<polygon fill="#99aab5" stroke="white" points="1617,-31 1617,-70 1697,-70 1697,-31 1617,-31"/>
<text text-anchor="middle" x="1657" y="-54.8" font-family="Helvetica,sans-Serif" font-size="14.00">LastFlush</text>
</g>
<g id="clust6" class="cluster">
<title>clusternode_Set(6)</title>
<polygon fill="#99aab5" stroke="white" points="0,-148 0,-187 46,-187 46,-148 0,-148"/>
<text text-anchor="middle" x="23" y="-171.8" font-family="Helvetica,sans-Serif" font-size="14.00">First</text>
</g>
<g id="clust7" class="cluster">
<title>clusternode_Set(7)</title>
<polygon fill="#99aab5" stroke="white" points="169,-149 169,-281 455,-281 455,-149 169,-149"/>
<text text-anchor="middle" x="312" y="-265.8" font-family="Helvetica,sans-Serif" font-size="14.00">PreUpdate</text>
</g>
<g id="clust8" class="cluster">
<title>clusternode_Set(24)</title>
<polygon fill="#99aab5" stroke="white" points="177,-175 177,-214 278,-214 278,-175 177,-175"/>
<text text-anchor="middle" x="227.5" y="-198.8" font-family="Helvetica,sans-Serif" font-size="14.00">InputSystem</text>
</g>
<g id="clust9" class="cluster">
<title>clusternode_Set(116)</title>
<polygon fill="#99aab5" stroke="white" points="306,-157 306,-250 447,-250 447,-157 306,-157"/>
<text text-anchor="middle" x="376.5" y="-234.8" font-family="Helvetica,sans-Serif" font-size="14.00">Focus</text>
</g>
<g id="clust10" class="cluster">
<title>clusternode_Set(8)</title>
<polygon fill="#99aab5" stroke="white" points="467,-102 467,-141 589,-141 589,-102 467,-102"/>
<text text-anchor="middle" x="528" y="-125.8" font-family="Helvetica,sans-Serif" font-size="14.00">StateTransitions</text>
</g>
<g id="clust11" class="cluster">
<title>clusternode_Set(9)</title>
<polygon fill="#99aab5" stroke="white" points="609,-102 609,-141 709,-141 709,-102 609,-102"/>
<text text-anchor="middle" x="659" y="-125.8" font-family="Helvetica,sans-Serif" font-size="14.00">FixedUpdate</text>
</g>
<g id="clust12" class="cluster">
<title>clusternode_Set(10)</title>
<polygon fill="#99aab5" stroke="white" points="729,-102 729,-141 794,-141 794,-102 729,-102"/>
<text text-anchor="middle" x="761.5" y="-125.8" font-family="Helvetica,sans-Serif" font-size="14.00">Update</text>
</g>
<g id="clust13" class="cluster">
<title>clusternode_Set(11)</title>
<polygon fill="#99aab5" stroke="white" points="923,-102 923,-291 1952,-291 1952,-102 923,-102"/>
<text text-anchor="middle" x="1437.5" y="-275.8" font-family="Helvetica,sans-Serif" font-size="14.00">PostUpdate</text>
</g>
<g id="clust14" class="cluster">
<title>clusternode_Set(20)</title>
<polygon fill="#99aab5" stroke="white" points="1582,-203 1582,-242 1732,-242 1732,-203 1582,-203"/>
<text text-anchor="middle" x="1657" y="-226.8" font-family="Helvetica,sans-Serif" font-size="14.00">TransformPropagate</text>
</g>
<g id="clust15" class="cluster">
<title>clusternode_Set(70)</title>
<polygon fill="#99aab5" stroke="white" points="935.5,-221 935.5,-260 1068.5,-260 1068.5,-221 935.5,-221"/>
<text text-anchor="middle" x="1002" y="-244.8" font-family="Helvetica,sans-Serif" font-size="14.00">ModifiesWindows</text>
</g>
<g id="clust16" class="cluster">
<title>clusternode_Set(117)</title>
<polygon fill="#99aab5" stroke="white" points="1404,-167 1404,-260 1554,-260 1554,-167 1404,-167"/>
<text text-anchor="middle" x="1479" y="-244.8" font-family="Helvetica,sans-Serif" font-size="14.00">Flex</text>
</g>
<g id="clust17" class="cluster">
<title>clusternode_Set(118)</title>
<polygon fill="#99aab5" stroke="white" points="931,-120 931,-213 1072,-213 1072,-120 931,-120"/>
<text text-anchor="middle" x="1001.5" y="-197.8" font-family="Helvetica,sans-Serif" font-size="14.00">Stack</text>
</g>
<g id="clust18" class="cluster">
<title>clusternode_Set(12)</title>
<polygon fill="#99aab5" stroke="white" points="1457,-31 1457,-70 1501,-70 1501,-31 1457,-31"/>
<text text-anchor="middle" x="1479" y="-54.8" font-family="Helvetica,sans-Serif" font-size="14.00">Last</text>
</g>
<g id="clust19" class="cluster">
<title>clusternode_Set(58)</title>
<polygon fill="#99aab5" stroke="white" points="66,-125 66,-164 157,-164 157,-125 66,-125"/>
<text text-anchor="middle" x="111.5" y="-148.8" font-family="Helvetica,sans-Serif" font-size="14.00">LoadAssets</text>
</g>
<g id="clust20" class="cluster">
<title>clusternode_Set(59)</title>
<polygon fill="#99aab5" stroke="white" points="1192,-8 1192,-47 1288,-47 1288,-8 1192,-8"/>
<text text-anchor="middle" x="1240" y="-31.8" font-family="Helvetica,sans-Serif" font-size="14.00">AssetEvents</text>
</g>
<!-- set_marker_node_Set(1) -->
<!-- set_marker_node_Set(7) -->
<!-- set_marker_node_Set(1)&#45;&gt;set_marker_node_Set(7) -->
<g id="edge2" class="edge">
<title>set_marker_node_Set(1)&#45;&gt;set_marker_node_Set(7)</title>
<path fill="none" stroke="white" d="M151.64,-172C153.65,-171.6 155.69,-171.19 157.74,-170.77"/>
<polygon fill="white" stroke="white" points="158.41,-174.21 167.52,-168.8 157.02,-167.35 158.41,-174.21"/>
</g>
<!-- set_marker_node_Set(2) -->
<!-- set_marker_node_Set(8) -->
<!-- set_marker_node_Set(2)&#45;&gt;set_marker_node_Set(8) -->
<g id="edge4" class="edge">
<title>set_marker_node_Set(2)&#45;&gt;set_marker_node_Set(8)</title>
<path fill="none" stroke="white" d="M437.5,-110C443.43,-110 449.48,-110 455.51,-110"/>
<polygon fill="white" stroke="white" points="455.49,-113.5 465.49,-110 455.49,-106.5 455.49,-113.5"/>
</g>
<!-- set_marker_node_Set(3) -->
<!-- set_marker_node_Set(11) -->
<!-- set_marker_node_Set(3)&#45;&gt;set_marker_node_Set(11) -->
<g id="edge8" class="edge">
<title>set_marker_node_Set(3)&#45;&gt;set_marker_node_Set(11)</title>
<path fill="none" stroke="white" d="M915,-110C917,-110 919,-110 921,-110"/>
<polygon fill="white" stroke="white" points="911.49,-113.5 921.49,-110 911.49,-106.5 911.49,-113.5"/>
</g>
<!-- set_marker_node_Set(4) -->
<!-- set_marker_node_Set(12) -->
<!-- set_marker_node_Set(4)&#45;&gt;set_marker_node_Set(12) -->
<g id="edge10" class="edge">
<title>set_marker_node_Set(4)&#45;&gt;set_marker_node_Set(12)</title>
<path fill="none" stroke="white" d="M1305,-57.69C1327.46,-55.72 1352.86,-53.39 1376,-51 1399.35,-48.59 1425.65,-45.49 1445.7,-43.04"/>
<polygon fill="white" stroke="white" points="1446,-46.53 1455.5,-41.83 1445.15,-39.58 1446,-46.53"/>
</g>
<!-- set_marker_node_Set(5) -->
<!-- set_marker_node_Set(6) -->
<!-- set_marker_node_Set(6)&#45;&gt;set_marker_node_Set(1) -->
<g id="edge1" class="edge">
<title>set_marker_node_Set(6)&#45;&gt;set_marker_node_Set(1)</title>
<path fill="none" stroke="white" d="M46,-162.34C52.44,-164.18 59.5,-166.18 66,-168 67.17,-168.33 68.36,-168.66 69.55,-168.99"/>
<polygon fill="white" stroke="white" points="68.45,-172.32 79.02,-171.6 70.31,-165.57 68.45,-172.32"/>
</g>
<!-- set_marker_node_Set(58) -->
<!-- set_marker_node_Set(6)&#45;&gt;set_marker_node_Set(58) -->
<g id="edge13" class="edge">
<title>set_marker_node_Set(6)&#45;&gt;set_marker_node_Set(58)</title>
<path fill="none" stroke="white" d="M46,-150.12C48.89,-149.34 51.94,-148.53 55.09,-147.68"/>
<polygon fill="white" stroke="white" points="55.78,-151.12 64.54,-145.16 53.98,-144.36 55.78,-151.12"/>
</g>
<!-- set_marker_node_Set(7)&#45;&gt;set_marker_node_Set(2) -->
<g id="edge3" class="edge">
<title>set_marker_node_Set(7)&#45;&gt;set_marker_node_Set(2)</title>
<path fill="none" stroke="white" d="M253.1,-149C267.43,-144.44 286.19,-138.46 304.7,-132.56"/>
<polygon fill="white" stroke="white" points="305.59,-135.95 314.06,-129.58 303.47,-129.28 305.59,-135.95"/>
</g>
<!-- set_marker_node_Set(24) -->
<!-- node_System(95) -->
<g id="node10" class="node">
<title>node_System(95)</title>
<polygon fill="#eff1f3" stroke="#eff1f3" points="439,-201 314,-201 314,-165 439,-165 439,-201"/>
<text text-anchor="middle" x="376.5" y="-179.3" font-family="Times,serif" font-size="14.00">ui_focus_system</text>
</g>
<!-- set_marker_node_Set(24)&#45;&gt;node_System(95) -->
<g id="edge16" class="edge">
<title>set_marker_node_Set(24)&#45;&gt;node_System(95)</title>
<path fill="none" stroke="white" d="M278,-183C285.9,-183 294.22,-183 302.52,-183"/>
<polygon fill="white" stroke="white" points="302.13,-186.5 312.13,-183 302.13,-179.5 302.13,-186.5"/>
</g>
<!-- set_marker_node_Set(116) -->
<!-- set_marker_node_Set(9) -->
<!-- set_marker_node_Set(8)&#45;&gt;set_marker_node_Set(9) -->
<g id="edge5" class="edge">
<title>set_marker_node_Set(8)&#45;&gt;set_marker_node_Set(9)</title>
<path fill="none" stroke="white" d="M589,-110C591.86,-110 594.74,-110 597.6,-110"/>
<polygon fill="white" stroke="white" points="597.49,-113.5 607.49,-110 597.49,-106.5 597.49,-113.5"/>
</g>
<!-- set_marker_node_Set(10) -->
<!-- set_marker_node_Set(9)&#45;&gt;set_marker_node_Set(10) -->
<g id="edge6" class="edge">
<title>set_marker_node_Set(9)&#45;&gt;set_marker_node_Set(10)</title>
<path fill="none" stroke="white" d="M709,-110C711.85,-110 714.71,-110 717.54,-110"/>
<polygon fill="white" stroke="white" points="717.49,-113.5 727.49,-110 717.49,-106.5 717.49,-113.5"/>
</g>
<!-- set_marker_node_Set(10)&#45;&gt;set_marker_node_Set(3) -->
<g id="edge7" class="edge">
<title>set_marker_node_Set(10)&#45;&gt;set_marker_node_Set(3)</title>
<path fill="none" stroke="white" d="M794,-110C796.81,-110 799.71,-110 802.65,-110"/>
<polygon fill="white" stroke="white" points="802.49,-113.5 812.49,-110 802.49,-106.5 802.49,-113.5"/>
</g>
<!-- set_marker_node_Set(11)&#45;&gt;set_marker_node_Set(4) -->
<g id="edge9" class="edge">
<title>set_marker_node_Set(11)&#45;&gt;set_marker_node_Set(4)</title>
<path fill="none" stroke="white" d="M1042.75,-102C1076.12,-95.37 1124.45,-85.77 1164.8,-77.75"/>
<polygon fill="white" stroke="white" points="1165.39,-81.2 1174.52,-75.81 1164.03,-74.33 1165.39,-81.2"/>
</g>
<!-- set_marker_node_Set(59) -->
<!-- set_marker_node_Set(11)&#45;&gt;set_marker_node_Set(59) -->
<g id="edge14" class="edge">
<title>set_marker_node_Set(11)&#45;&gt;set_marker_node_Set(59)</title>
<path fill="none" stroke="white" d="M1013.85,-102C1032.07,-89.49 1069.32,-65.26 1104,-51 1128.44,-40.95 1156.57,-33.11 1180.81,-27.42"/>
<polygon fill="white" stroke="white" points="1181.55,-30.84 1190.53,-25.21 1180,-24.01 1181.55,-30.84"/>
</g>
<!-- set_marker_node_Set(20) -->
<!-- node_System(100) -->
<g id="node23" class="node">
<title>node_System(100)</title>
<polygon fill="#eff1f3" stroke="#eff1f3" points="1944,-229 1768,-229 1768,-193 1944,-193 1944,-229"/>
<text text-anchor="middle" x="1856" y="-207.3" font-family="Times,serif" font-size="14.00">update_clipping_system</text>
</g>
<!-- set_marker_node_Set(20)&#45;&gt;node_System(100) -->
<g id="edge22" class="edge">
<title>set_marker_node_Set(20)&#45;&gt;node_System(100)</title>
<path fill="none" stroke="white" d="M1732,-211C1739.9,-211 1748.03,-211 1756.17,-211"/>
<polygon fill="white" stroke="white" points="1756.08,-214.5 1766.08,-211 1756.08,-207.5 1756.08,-214.5"/>
</g>
<!-- set_marker_node_Set(70) -->
<!-- node_System(98) -->
<g id="node18" class="node">
<title>node_System(98)</title>
<polygon fill="#eff1f3" stroke="#eff1f3" points="1546,-229 1412,-229 1412,-193 1546,-193 1546,-229"/>
<text text-anchor="middle" x="1479" y="-207.3" font-family="Times,serif" font-size="14.00">flex_node_system</text>
</g>
<!-- set_marker_node_Set(70)&#45;&gt;node_System(98) -->
<g id="edge21" class="edge">
<title>set_marker_node_Set(70)&#45;&gt;node_System(98)</title>
<path fill="none" stroke="white" d="M1068.5,-230.37C1143.21,-231.4 1268.51,-231.54 1376,-224 1383.96,-223.44 1392.25,-222.68 1400.51,-221.81"/>
<polygon fill="white" stroke="white" points="1400.66,-225.31 1410.21,-220.72 1399.89,-218.36 1400.66,-225.31"/>
</g>
<!-- node_System(96) -->
<g id="node21" class="node">
<title>node_System(96)</title>
<polygon fill="#eff1f3" stroke="#eff1f3" points="1288,-210 1192,-210 1192,-174 1288,-174 1288,-210"/>
<text text-anchor="middle" x="1240" y="-188.3" font-family="Times,serif" font-size="14.00">text_system</text>
</g>
<!-- set_marker_node_Set(70)&#45;&gt;node_System(96) -->
<g id="edge18" class="edge">
<title>set_marker_node_Set(70)&#45;&gt;node_System(96)</title>
<path fill="none" stroke="white" d="M1053.6,-221C1090.86,-215.18 1141.41,-207.27 1180.32,-201.18"/>
<polygon fill="white" stroke="white" points="1180.68,-204.67 1190.02,-199.66 1179.6,-197.75 1180.68,-204.67"/>
</g>
<!-- set_marker_node_Set(117) -->
<!-- node_System(98)&#45;&gt;set_marker_node_Set(20) -->
<g id="edge20" class="edge">
<title>node_System(98)&#45;&gt;set_marker_node_Set(20)</title>
<path fill="none" stroke="white" d="M1546.29,-211C1554.21,-211 1562.39,-211 1570.53,-211"/>
<polygon fill="white" stroke="white" points="1570.49,-214.5 1580.49,-211 1570.49,-207.5 1570.49,-214.5"/>
</g>
<!-- set_marker_node_Set(118) -->
<!-- node_System(99) -->
<g id="node20" class="node">
<title>node_System(99)</title>
<polygon fill="#eff1f3" stroke="#eff1f3" points="1064,-164 939,-164 939,-128 1064,-128 1064,-164"/>
<text text-anchor="middle" x="1001.5" y="-142.3" font-family="Times,serif" font-size="14.00">ui_stack_system</text>
</g>
<!-- node_System(96)&#45;&gt;set_marker_node_Set(117) -->
<g id="edge17" class="edge">
<title>node_System(96)&#45;&gt;set_marker_node_Set(117)</title>
<path fill="none" stroke="white" d="M1288.39,-188.6C1318.23,-186.46 1357.62,-183.63 1392.76,-181.11"/>
<polygon fill="white" stroke="white" points="1392.77,-184.62 1402.49,-180.42 1392.27,-177.64 1392.77,-184.62"/>
</g>
<!-- node_System(97) -->
<g id="node22" class="node">
<title>node_System(97)</title>
<polygon fill="#eff1f3" stroke="#eff1f3" points="1376,-156 1104,-156 1104,-120 1376,-120 1376,-156"/>
<text text-anchor="middle" x="1240" y="-134.3" font-family="Times,serif" font-size="14.00">update_image_calculated_size_system</text>
</g>
<!-- node_System(97)&#45;&gt;set_marker_node_Set(117) -->
<g id="edge19" class="edge">
<title>node_System(97)&#45;&gt;set_marker_node_Set(117)</title>
<path fill="none" stroke="white" d="M1359.5,-156.5C1378.93,-159.53 1398.36,-162.57 1415.7,-165.27"/>
<polygon fill="white" stroke="white" points="1414.86,-168.68 1425.28,-166.77 1415.94,-161.77 1414.86,-168.68"/>
</g>
<!-- set_marker_node_Set(12)&#45;&gt;set_marker_node_Set(5) -->
<g id="edge11" class="edge">
<title>set_marker_node_Set(12)&#45;&gt;set_marker_node_Set(5)</title>
<path fill="none" stroke="white" d="M1501,-39C1526.64,-39 1570.89,-39 1605.56,-39"/>
<polygon fill="white" stroke="white" points="1605.49,-42.5 1615.49,-39 1605.49,-35.5 1605.49,-42.5"/>
</g>
<!-- set_marker_node_Set(58)&#45;&gt;set_marker_node_Set(7) -->
<g id="edge12" class="edge">
<title>set_marker_node_Set(58)&#45;&gt;set_marker_node_Set(7)</title>
<path fill="none" stroke="white" d="M157,-142.47C163.48,-143.84 170.18,-145.25 176.74,-146.63"/>
<polygon fill="white" stroke="white" points="176.02,-150.05 186.53,-148.69 177.46,-143.21 176.02,-150.05"/>
</g>
<!-- set_marker_node_Set(59)&#45;&gt;set_marker_node_Set(12) -->
<g id="edge15" class="edge">
<title>set_marker_node_Set(59)&#45;&gt;set_marker_node_Set(12)</title>
<path fill="none" stroke="white" d="M1288,-20.56C1334.61,-25.08 1404.81,-31.9 1445.55,-35.85"/>
<polygon fill="white" stroke="white" points="1445.21,-39.33 1455.5,-36.82 1445.88,-32.37 1445.21,-39.33"/>
</g>
</g>
</svg>
