<?xml version="1.0" encoding="UTF-8" standalone="no"?>
<!DOCTYPE svg PUBLIC "-//W3C//DTD SVG 1.1//EN"
 "http://www.w3.org/Graphics/SVG/1.1/DTD/svg11.dtd">
<!-- Generated by graphviz version 7.0.6 (0)
 -->
<!-- Title: schedule Pages: 1 -->
<svg width="1396pt" height="260pt"
 viewBox="0.00 0.00 1396.00 260.00" xmlns="http://www.w3.org/2000/svg" xmlns:xlink="http://www.w3.org/1999/xlink">
<g id="graph0" class="graph" transform="scale(1 1) rotate(0) translate(4 256)">
<title>schedule</title>
<polygon fill="white" stroke="none" points="-4,4 -4,-256 1392,-256 1392,4 -4,4"/>
<g id="clust1" class="cluster">
<title>clusternode_Set(1)</title>
<polygon fill="none" stroke="black" points="70,-125 70,-164 154,-164 154,-125 70,-125"/>
<text text-anchor="middle" x="112" y="-148.8" font-family="Times,serif" font-size="14.00">FirstFlush</text>
</g>
<g id="clust2" class="cluster">
<title>clusternode_Set(2)</title>
<polygon fill="none" stroke="black" points="284,-102 284,-141 407,-141 407,-102 284,-102"/>
<text text-anchor="middle" x="345.5" y="-125.8" font-family="Times,serif" font-size="14.00">PreUpdateFlush</text>
</g>
<g id="clust3" class="cluster">
<title>clusternode_Set(3)</title>
<polygon fill="none" stroke="black" points="777,-102 777,-141 878,-141 878,-102 777,-102"/>
<text text-anchor="middle" x="827.5" y="-125.8" font-family="Times,serif" font-size="14.00">UpdateFlush</text>
</g>
<g id="clust4" class="cluster">
<title>clusternode_Set(4)</title>
<polygon fill="none" stroke="black" points="1080.5,-55 1080.5,-94 1208.5,-94 1208.5,-55 1080.5,-55"/>
<text text-anchor="middle" x="1144.5" y="-78.8" font-family="Times,serif" font-size="14.00">PostUpdateFlush</text>
</g>
<g id="clust5" class="cluster">
<title>clusternode_Set(5)</title>
<polygon fill="none" stroke="black" points="1306,-31 1306,-70 1388,-70 1388,-31 1306,-31"/>
<text text-anchor="middle" x="1347" y="-54.8" font-family="Times,serif" font-size="14.00">LastFlush</text>
</g>
<g id="clust6" class="cluster">
<title>clusternode_Set(6)</title>
<polygon fill="none" stroke="black" points="0,-101 0,-140 47,-140 47,-101 0,-101"/>
<text text-anchor="middle" x="23.5" y="-124.8" font-family="Times,serif" font-size="14.00">First</text>
</g>
<g id="clust7" class="cluster">
<title>clusternode_Set(7)</title>
<polygon fill="none" stroke="black" points="178,-102 178,-141 264,-141 264,-102 178,-102"/>
<text text-anchor="middle" x="221" y="-125.8" font-family="Times,serif" font-size="14.00">PreUpdate</text>
</g>
<g id="clust8" class="cluster">
<title>clusternode_Set(8)</title>
<polygon fill="none" stroke="black" points="427,-102 427,-141 552,-141 552,-102 427,-102"/>
<text text-anchor="middle" x="489.5" y="-125.8" font-family="Times,serif" font-size="14.00">StateTransitions</text>
</g>
<g id="clust9" class="cluster">
<title>clusternode_Set(9)</title>
<polygon fill="none" stroke="black" points="572,-102 572,-141 673,-141 673,-102 572,-102"/>
<text text-anchor="middle" x="622.5" y="-125.8" font-family="Times,serif" font-size="14.00">FixedUpdate</text>
</g>
<g id="clust10" class="cluster">
<title>clusternode_Set(10)</title>
<polygon fill="none" stroke="black" points="693,-102 693,-141 757,-141 757,-102 693,-102"/>
<text text-anchor="middle" x="725" y="-125.8" font-family="Times,serif" font-size="14.00">Update</text>
</g>
<g id="clust11" class="cluster">
<title>clusternode_Set(11)</title>
<polygon fill="none" stroke="black" points="890,-102 890,-244 1229,-244 1229,-102 890,-102"/>
<text text-anchor="middle" x="1059.5" y="-228.8" font-family="Times,serif" font-size="14.00">PostUpdate</text>
</g>
<g id="clust12" class="cluster">
<title>clusternode_Set(70)</title>
<polygon fill="none" stroke="black" points="898,-120 898,-213 1221,-213 1221,-120 898,-120"/>
<text text-anchor="middle" x="1059.5" y="-197.8" font-family="Times,serif" font-size="14.00">ModifiesWindows</text>
</g>
<g id="clust13" class="cluster">
<title>clusternode_Set(12)</title>
<polygon fill="none" stroke="black" points="1241,-31 1241,-70 1286,-70 1286,-31 1241,-31"/>
<text text-anchor="middle" x="1263.5" y="-54.8" font-family="Times,serif" font-size="14.00">Last</text>
</g>
<g id="clust14" class="cluster">
<title>clusternode_Set(58)</title>
<polygon fill="none" stroke="black" points="67,-78 67,-117 158,-117 158,-78 67,-78"/>
<text text-anchor="middle" x="112.5" y="-101.8" font-family="Times,serif" font-size="14.00">LoadAssets</text>
</g>
<g id="clust15" class="cluster">
<title>clusternode_Set(59)</title>
<polygon fill="none" stroke="black" points="1096.5,-8 1096.5,-47 1192.5,-47 1192.5,-8 1096.5,-8"/>
<text text-anchor="middle" x="1144.5" y="-31.8" font-family="Times,serif" font-size="14.00">AssetEvents</text>
</g>
<!-- set_marker_node_Set(1) -->
<!-- set_marker_node_Set(7) -->
<!-- set_marker_node_Set(1)&#45;&gt;set_marker_node_Set(7) -->
<g id="edge2" class="edge">
<title>set_marker_node_Set(1)&#45;&gt;set_marker_node_Set(7)</title>
<path fill="none" stroke="black" d="M150.21,-125C155.62,-123.84 161.27,-122.62 166.92,-121.41"/>
<polygon fill="black" stroke="black" points="167.48,-124.87 176.53,-119.35 166.01,-118.02 167.48,-124.87"/>
</g>
<!-- set_marker_node_Set(2) -->
<!-- set_marker_node_Set(8) -->
<!-- set_marker_node_Set(2)&#45;&gt;set_marker_node_Set(8) -->
<g id="edge4" class="edge">
<title>set_marker_node_Set(2)&#45;&gt;set_marker_node_Set(8)</title>
<path fill="none" stroke="black" d="M407,-110C409.83,-110 412.68,-110 415.54,-110"/>
<polygon fill="black" stroke="black" points="415.49,-113.5 425.49,-110 415.49,-106.5 415.49,-113.5"/>
</g>
<!-- set_marker_node_Set(3) -->
<!-- set_marker_node_Set(11) -->
<!-- set_marker_node_Set(3)&#45;&gt;set_marker_node_Set(11) -->
<g id="edge8" class="edge">
<title>set_marker_node_Set(3)&#45;&gt;set_marker_node_Set(11)</title>
<path fill="none" stroke="black" d="M878,-110C878.27,-110 878.53,-110 878.8,-110"/>
<polygon fill="black" stroke="black" points="878.49,-113.5 888.49,-110 878.49,-106.5 878.49,-113.5"/>
</g>
<!-- set_marker_node_Set(4) -->
<!-- set_marker_node_Set(12) -->
<!-- set_marker_node_Set(4)&#45;&gt;set_marker_node_Set(12) -->
<g id="edge10" class="edge">
<title>set_marker_node_Set(4)&#45;&gt;set_marker_node_Set(12)</title>
<path fill="none" stroke="black" d="M1208.5,-55.37C1215.46,-54.1 1222.41,-52.65 1229,-51 1229.37,-50.91 1229.74,-50.81 1230.11,-50.71"/>
<polygon fill="black" stroke="black" points="1231.03,-54.1 1239.56,-47.81 1228.97,-47.4 1231.03,-54.1"/>
</g>
<!-- set_marker_node_Set(5) -->
<!-- set_marker_node_Set(6) -->
<!-- set_marker_node_Set(6)&#45;&gt;set_marker_node_Set(1) -->
<g id="edge1" class="edge">
<title>set_marker_node_Set(6)&#45;&gt;set_marker_node_Set(1)</title>
<path fill="none" stroke="black" d="M47,-115.44C53.47,-117.25 60.51,-119.21 67,-121 68.18,-121.33 69.37,-121.65 70.58,-121.99"/>
<polygon fill="black" stroke="black" points="69.56,-125.34 80.13,-124.6 71.41,-118.58 69.56,-125.34"/>
</g>
<!-- set_marker_node_Set(58) -->
<!-- set_marker_node_Set(6)&#45;&gt;set_marker_node_Set(58) -->
<g id="edge13" class="edge">
<title>set_marker_node_Set(6)&#45;&gt;set_marker_node_Set(58)</title>
<path fill="none" stroke="black" d="M47,-102.92C49.97,-102.13 53.11,-101.3 56.34,-100.45"/>
<polygon fill="black" stroke="black" points="56.77,-103.96 65.54,-98.02 54.98,-97.19 56.77,-103.96"/>
</g>
<!-- set_marker_node_Set(7)&#45;&gt;set_marker_node_Set(2) -->
<g id="edge3" class="edge">
<title>set_marker_node_Set(7)&#45;&gt;set_marker_node_Set(2)</title>
<path fill="none" stroke="black" d="M264,-110C266.78,-110 269.62,-110 272.49,-110"/>
<polygon fill="black" stroke="black" points="272.49,-113.5 282.49,-110 272.49,-106.5 272.49,-113.5"/>
</g>
<!-- set_marker_node_Set(9) -->
<!-- set_marker_node_Set(8)&#45;&gt;set_marker_node_Set(9) -->
<g id="edge5" class="edge">
<title>set_marker_node_Set(8)&#45;&gt;set_marker_node_Set(9)</title>
<path fill="none" stroke="black" d="M552,-110C554.93,-110 557.87,-110 560.8,-110"/>
<polygon fill="black" stroke="black" points="560.49,-113.5 570.49,-110 560.49,-106.5 560.49,-113.5"/>
</g>
<!-- set_marker_node_Set(10) -->
<!-- set_marker_node_Set(9)&#45;&gt;set_marker_node_Set(10) -->
<g id="edge6" class="edge">
<title>set_marker_node_Set(9)&#45;&gt;set_marker_node_Set(10)</title>
<path fill="none" stroke="black" d="M673,-110C675.93,-110 678.87,-110 681.76,-110"/>
<polygon fill="black" stroke="black" points="681.49,-113.5 691.49,-110 681.49,-106.5 681.49,-113.5"/>
</g>
<!-- set_marker_node_Set(10)&#45;&gt;set_marker_node_Set(3) -->
<g id="edge7" class="edge">
<title>set_marker_node_Set(10)&#45;&gt;set_marker_node_Set(3)</title>
<path fill="none" stroke="black" d="M757,-110C759.78,-110 762.64,-110 765.56,-110"/>
<polygon fill="black" stroke="black" points="765.49,-113.5 775.49,-110 765.49,-106.5 765.49,-113.5"/>
</g>
<!-- set_marker_node_Set(11)&#45;&gt;set_marker_node_Set(4) -->
<g id="edge9" class="edge">
<title>set_marker_node_Set(11)&#45;&gt;set_marker_node_Set(4)</title>
<path fill="none" stroke="black" d="M1002.84,-102C1021.25,-96.9 1046.02,-90.03 1069.64,-83.48"/>
<polygon fill="black" stroke="black" points="1070.34,-86.92 1079.04,-80.87 1068.47,-80.17 1070.34,-86.92"/>
</g>
<!-- set_marker_node_Set(59) -->
<!-- set_marker_node_Set(11)&#45;&gt;set_marker_node_Set(59) -->
<g id="edge14" class="edge">
<title>set_marker_node_Set(11)&#45;&gt;set_marker_node_Set(59)</title>
<path fill="none" stroke="black" d="M987.37,-102C1006.76,-90.47 1043.86,-68.61 1076,-51 1079.4,-49.14 1082.91,-47.24 1086.46,-45.34"/>
<polygon fill="black" stroke="black" points="1087.97,-48.5 1095.17,-40.72 1084.69,-42.32 1087.97,-48.5"/>
</g>
<!-- set_marker_node_Set(70) -->
<!-- node_System(57) -->
<g id="node13" class="node">
<title>node_System(57)</title>
<polygon fill="none" stroke="black" points="1040,-164 906,-164 906,-128 1040,-128 1040,-164"/>
<text text-anchor="middle" x="973" y="-142.3" font-family="Times,serif" font-size="14.00">changed_window</text>
</g>
<!-- node_System(58) -->
<g id="node14" class="node">
<title>node_System(58)</title>
<polygon fill="none" stroke="black" points="1213,-164 1076,-164 1076,-128 1213,-128 1213,-164"/>
<text text-anchor="middle" x="1144.5" y="-142.3" font-family="Times,serif" font-size="14.00">despawn_window</text>
</g>
<!-- node_System(57)&#45;&gt;node_System(58) -->
<g id="edge16" class="edge">
<title>node_System(57)&#45;&gt;node_System(58)</title>
<path fill="none" stroke="black" d="M1040.02,-146C1047.98,-146 1056.17,-146 1064.3,-146"/>
<polygon fill="black" stroke="black" points="1064.19,-149.5 1074.19,-146 1064.19,-142.5 1064.19,-149.5"/>
</g>
<!-- set_marker_node_Set(12)&#45;&gt;set_marker_node_Set(5) -->
<g id="edge11" class="edge">
<title>set_marker_node_Set(12)&#45;&gt;set_marker_node_Set(5)</title>
<path fill="none" stroke="black" d="M1286,-39C1288.78,-39 1291.72,-39 1294.74,-39"/>
<polygon fill="black" stroke="black" points="1294.49,-42.5 1304.49,-39 1294.49,-35.5 1294.49,-42.5"/>
</g>
<!-- set_marker_node_Set(58)&#45;&gt;set_marker_node_Set(7) -->
<g id="edge12" class="edge">
<title>set_marker_node_Set(58)&#45;&gt;set_marker_node_Set(7)</title>
<path fill="none" stroke="black" d="M158,-96.09C163.09,-97.24 168.29,-98.4 173.4,-99.55"/>
<polygon fill="black" stroke="black" points="172.35,-102.9 182.87,-101.67 173.88,-96.07 172.35,-102.9"/>
</g>
<!-- set_marker_node_Set(59)&#45;&gt;set_marker_node_Set(12) -->
<g id="edge15" class="edge">
<title>set_marker_node_Set(59)&#45;&gt;set_marker_node_Set(12)</title>
<path fill="none" stroke="black" d="M1192.5,-25.28C1205.02,-27.75 1218.27,-30.37 1229.8,-32.64"/>
<polygon fill="black" stroke="black" points="1229.03,-36.06 1239.52,-34.56 1230.38,-29.19 1229.03,-36.06"/>
</g>
</g>
</svg>
