<?xml version="1.0" encoding="UTF-8" standalone="no"?>
<!DOCTYPE svg PUBLIC "-//W3C//DTD SVG 1.1//EN"
 "http://www.w3.org/Graphics/SVG/1.1/DTD/svg11.dtd">
<!-- Generated by graphviz version 7.0.6 (0)
 -->
<!-- Title: schedule Pages: 1 -->
<svg width="1514pt" height="219pt"
 viewBox="0.00 0.00 1514.00 219.00" xmlns="http://www.w3.org/2000/svg" xmlns:xlink="http://www.w3.org/1999/xlink">
<g id="graph0" class="graph" transform="scale(1 1) rotate(0) translate(4 215)">
<title>schedule</title>
<polygon fill="white" stroke="none" points="-4,4 -4,-215 1510,-215 1510,4 -4,4"/>
<g id="clust1" class="cluster">
<title>clusternode_Set(1)</title>
<polygon fill="none" stroke="black" points="156,-85 156,-124 240,-124 240,-85 156,-85"/>
<text text-anchor="middle" x="198" y="-108.8" font-family="Times,serif" font-size="14.00">FirstFlush</text>
</g>
<g id="clust2" class="cluster">
<title>clusternode_Set(2)</title>
<polygon fill="none" stroke="black" points="370,-62 370,-101 493,-101 493,-62 370,-62"/>
<text text-anchor="middle" x="431.5" y="-85.8" font-family="Times,serif" font-size="14.00">PreUpdateFlush</text>
</g>
<g id="clust3" class="cluster">
<title>clusternode_Set(3)</title>
<polygon fill="none" stroke="black" points="978,-62 978,-101 1079,-101 1079,-62 978,-62"/>
<text text-anchor="middle" x="1028.5" y="-85.8" font-family="Times,serif" font-size="14.00">UpdateFlush</text>
</g>
<g id="clust4" class="cluster">
<title>clusternode_Set(4)</title>
<polygon fill="none" stroke="black" points="1211,-86 1211,-125 1339,-125 1339,-86 1211,-86"/>
<text text-anchor="middle" x="1275" y="-109.8" font-family="Times,serif" font-size="14.00">PostUpdateFlush</text>
</g>
<g id="clust5" class="cluster">
<title>clusternode_Set(5)</title>
<polygon fill="none" stroke="black" points="1424,-62 1424,-101 1506,-101 1506,-62 1424,-62"/>
<text text-anchor="middle" x="1465" y="-85.8" font-family="Times,serif" font-size="14.00">LastFlush</text>
</g>
<g id="clust6" class="cluster">
<title>clusternode_Set(6)</title>
<polygon fill="none" stroke="black" points="8,-61 8,-203 141,-203 141,-61 8,-61"/>
<text text-anchor="middle" x="74.5" y="-187.8" font-family="Times,serif" font-size="14.00">First</text>
</g>
<g id="clust7" class="cluster">
<title>clusternode_Set(16)</title>
<polygon fill="none" stroke="black" points="16,-79 16,-172 133,-172 133,-79 16,-79"/>
<text text-anchor="middle" x="74.5" y="-156.8" font-family="Times,serif" font-size="14.00">TimeSystem</text>
</g>
<g id="clust8" class="cluster">
<title>clusternode_Set(7)</title>
<polygon fill="none" stroke="black" points="264,-62 264,-101 350,-101 350,-62 264,-62"/>
<text text-anchor="middle" x="307" y="-85.8" font-family="Times,serif" font-size="14.00">PreUpdate</text>
</g>
<g id="clust9" class="cluster">
<title>clusternode_Set(8)</title>
<polygon fill="none" stroke="black" points="513,-62 513,-101 638,-101 638,-62 513,-62"/>
<text text-anchor="middle" x="575.5" y="-85.8" font-family="Times,serif" font-size="14.00">StateTransitions</text>
</g>
<g id="clust10" class="cluster">
<title>clusternode_Set(9)</title>
<polygon fill="none" stroke="black" points="658,-8 658,-101 874,-101 874,-8 658,-8"/>
<text text-anchor="middle" x="766" y="-85.8" font-family="Times,serif" font-size="14.00">FixedUpdate</text>
</g>
<g id="clust11" class="cluster">
<title>clusternode_Set(10)</title>
<polygon fill="none" stroke="black" points="894,-62 894,-101 958,-101 958,-62 894,-62"/>
<text text-anchor="middle" x="926" y="-85.8" font-family="Times,serif" font-size="14.00">Update</text>
</g>
<g id="clust12" class="cluster">
<title>clusternode_Set(11)</title>
<polygon fill="none" stroke="black" points="1099,-62 1099,-101 1191,-101 1191,-62 1099,-62"/>
<text text-anchor="middle" x="1145" y="-85.8" font-family="Times,serif" font-size="14.00">PostUpdate</text>
</g>
<g id="clust13" class="cluster">
<title>clusternode_Set(12)</title>
<polygon fill="none" stroke="black" points="1359,-62 1359,-101 1404,-101 1404,-62 1359,-62"/>
<text text-anchor="middle" x="1381.5" y="-85.8" font-family="Times,serif" font-size="14.00">Last</text>
</g>
<g id="clust14" class="cluster">
<title>clusternode_Set(58)</title>
<polygon fill="none" stroke="black" points="153,-38 153,-77 244,-77 244,-38 153,-38"/>
<text text-anchor="middle" x="198.5" y="-61.8" font-family="Times,serif" font-size="14.00">LoadAssets</text>
</g>
<g id="clust15" class="cluster">
<title>clusternode_Set(59)</title>
<polygon fill="none" stroke="black" points="1227,-39 1227,-78 1323,-78 1323,-39 1227,-39"/>
<text text-anchor="middle" x="1275" y="-62.8" font-family="Times,serif" font-size="14.00">AssetEvents</text>
</g>
<!-- set_marker_node_Set(1) -->
<!-- set_marker_node_Set(7) -->
<!-- set_marker_node_Set(1)&#45;&gt;set_marker_node_Set(7) -->
<g id="edge2" class="edge">
<title>set_marker_node_Set(1)&#45;&gt;set_marker_node_Set(7)</title>
<path fill="none" stroke="black" d="M236.21,-85C241.62,-83.84 247.27,-82.62 252.92,-81.41"/>
<polygon fill="black" stroke="black" points="253.48,-84.87 262.53,-79.35 252.01,-78.02 253.48,-84.87"/>
</g>
<!-- set_marker_node_Set(2) -->
<!-- set_marker_node_Set(8) -->
<!-- set_marker_node_Set(2)&#45;&gt;set_marker_node_Set(8) -->
<g id="edge4" class="edge">
<title>set_marker_node_Set(2)&#45;&gt;set_marker_node_Set(8)</title>
<path fill="none" stroke="black" d="M493,-70C495.83,-70 498.68,-70 501.54,-70"/>
<polygon fill="black" stroke="black" points="501.49,-73.5 511.49,-70 501.49,-66.5 501.49,-73.5"/>
</g>
<!-- set_marker_node_Set(3) -->
<!-- set_marker_node_Set(11) -->
<!-- set_marker_node_Set(3)&#45;&gt;set_marker_node_Set(11) -->
<g id="edge8" class="edge">
<title>set_marker_node_Set(3)&#45;&gt;set_marker_node_Set(11)</title>
<path fill="none" stroke="black" d="M1079,-70C1081.92,-70 1084.88,-70 1087.82,-70"/>
<polygon fill="black" stroke="black" points="1087.49,-73.5 1097.49,-70 1087.49,-66.5 1087.49,-73.5"/>
</g>
<!-- set_marker_node_Set(4) -->
<!-- set_marker_node_Set(12) -->
<!-- set_marker_node_Set(4)&#45;&gt;set_marker_node_Set(12) -->
<g id="edge10" class="edge">
<title>set_marker_node_Set(4)&#45;&gt;set_marker_node_Set(12)</title>
<path fill="none" stroke="black" d="M1320.87,-86C1326.98,-84.75 1333.16,-83.41 1339,-82 1341.97,-81.28 1345.04,-80.49 1348.11,-79.66"/>
<polygon fill="black" stroke="black" points="1348.88,-83.08 1357.55,-76.98 1346.97,-76.34 1348.88,-83.08"/>
</g>
<!-- set_marker_node_Set(5) -->
<!-- set_marker_node_Set(6) -->
<!-- set_marker_node_Set(6)&#45;&gt;set_marker_node_Set(1) -->
<g id="edge1" class="edge">
<title>set_marker_node_Set(6)&#45;&gt;set_marker_node_Set(1)</title>
<path fill="none" stroke="black" d="M141,-75C146.73,-76.63 147.43,-78.87 153,-81 153.35,-81.13 153.71,-81.27 154.07,-81.4"/>
<polygon fill="black" stroke="black" points="152.75,-84.65 163.34,-84.52 154.98,-78.02 152.75,-84.65"/>
</g>
<!-- set_marker_node_Set(58) -->
<!-- set_marker_node_Set(6)&#45;&gt;set_marker_node_Set(58) -->
<g id="edge13" class="edge">
<title>set_marker_node_Set(6)&#45;&gt;set_marker_node_Set(58)</title>
<path fill="none" stroke="black" d="M117.75,-61C125.61,-59.51 133.92,-57.94 142.09,-56.39"/>
<polygon fill="black" stroke="black" points="142.34,-59.91 151.51,-54.61 141.04,-53.03 142.34,-59.91"/>
</g>
<!-- set_marker_node_Set(16) -->
<!-- node_System(8) -->
<g id="node8" class="node">
<title>node_System(8)</title>
<polygon fill="none" stroke="black" points="125,-123 24,-123 24,-87 125,-87 125,-123"/>
<text text-anchor="middle" x="74.5" y="-101.3" font-family="Times,serif" font-size="14.00">time_system</text>
</g>
<!-- set_marker_node_Set(7)&#45;&gt;set_marker_node_Set(2) -->
<g id="edge3" class="edge">
<title>set_marker_node_Set(7)&#45;&gt;set_marker_node_Set(2)</title>
<path fill="none" stroke="black" d="M350,-70C352.78,-70 355.62,-70 358.49,-70"/>
<polygon fill="black" stroke="black" points="358.49,-73.5 368.49,-70 358.49,-66.5 358.49,-73.5"/>
</g>
<!-- set_marker_node_Set(9) -->
<!-- set_marker_node_Set(8)&#45;&gt;set_marker_node_Set(9) -->
<g id="edge5" class="edge">
<title>set_marker_node_Set(8)&#45;&gt;set_marker_node_Set(9)</title>
<path fill="none" stroke="black" d="M638,-70C640.8,-70 643.64,-70 646.51,-70"/>
<polygon fill="black" stroke="black" points="646.49,-73.5 656.49,-70 646.49,-66.5 646.49,-73.5"/>
</g>
<!-- set_marker_node_Set(10) -->
<!-- set_marker_node_Set(9)&#45;&gt;set_marker_node_Set(10) -->
<g id="edge6" class="edge">
<title>set_marker_node_Set(9)&#45;&gt;set_marker_node_Set(10)</title>
<path fill="none" stroke="black" d="M874,-70C876.93,-70 879.81,-70 882.6,-70"/>
<polygon fill="black" stroke="black" points="882.49,-73.5 892.49,-70 882.49,-66.5 882.49,-73.5"/>
</g>
<!-- node_System(9) -->
<g id="node12" class="node">
<title>node_System(9)</title>
<polygon fill="none" stroke="black" points="866,-52 666,-52 666,-16 866,-16 866,-52"/>
<text text-anchor="middle" x="766" y="-30.3" font-family="Times,serif" font-size="14.00">run_fixed_update_schedule</text>
</g>
<!-- set_marker_node_Set(10)&#45;&gt;set_marker_node_Set(3) -->
<g id="edge7" class="edge">
<title>set_marker_node_Set(10)&#45;&gt;set_marker_node_Set(3)</title>
<path fill="none" stroke="black" d="M958,-70C960.78,-70 963.64,-70 966.56,-70"/>
<polygon fill="black" stroke="black" points="966.49,-73.5 976.49,-70 966.49,-66.5 966.49,-73.5"/>
</g>
<!-- set_marker_node_Set(11)&#45;&gt;set_marker_node_Set(4) -->
<g id="edge9" class="edge">
<title>set_marker_node_Set(11)&#45;&gt;set_marker_node_Set(4)</title>
<path fill="none" stroke="black" d="M1191,-78.44C1200.53,-80.22 1210.67,-82.13 1220.48,-83.96"/>
<polygon fill="black" stroke="black" points="1219.39,-87.32 1229.87,-85.72 1220.68,-80.44 1219.39,-87.32"/>
</g>
<!-- set_marker_node_Set(59) -->
<!-- set_marker_node_Set(11)&#45;&gt;set_marker_node_Set(59) -->
<g id="edge14" class="edge">
<title>set_marker_node_Set(11)&#45;&gt;set_marker_node_Set(59)</title>
<path fill="none" stroke="black" d="M1190.51,-62C1198.74,-60.52 1207.43,-58.96 1215.99,-57.42"/>
<polygon fill="black" stroke="black" points="1216.29,-60.93 1225.51,-55.71 1215.05,-54.04 1216.29,-60.93"/>
</g>
<!-- set_marker_node_Set(12)&#45;&gt;set_marker_node_Set(5) -->
<g id="edge11" class="edge">
<title>set_marker_node_Set(12)&#45;&gt;set_marker_node_Set(5)</title>
<path fill="none" stroke="black" d="M1404,-70C1406.78,-70 1409.72,-70 1412.74,-70"/>
<polygon fill="black" stroke="black" points="1412.49,-73.5 1422.49,-70 1412.49,-66.5 1412.49,-73.5"/>
</g>
<!-- set_marker_node_Set(58)&#45;&gt;set_marker_node_Set(7) -->
<g id="edge12" class="edge">
<title>set_marker_node_Set(58)&#45;&gt;set_marker_node_Set(7)</title>
<path fill="none" stroke="black" d="M244,-56.09C249.09,-57.24 254.29,-58.4 259.4,-59.55"/>
<polygon fill="black" stroke="black" points="258.35,-62.9 268.87,-61.67 259.88,-56.07 258.35,-62.9"/>
</g>
<!-- set_marker_node_Set(59)&#45;&gt;set_marker_node_Set(12) -->
<g id="edge15" class="edge">
<title>set_marker_node_Set(59)&#45;&gt;set_marker_node_Set(12)</title>
<path fill="none" stroke="black" d="M1323,-57.39C1331.38,-59.25 1339.94,-61.14 1347.79,-62.88"/>
<polygon fill="black" stroke="black" points="1347,-66.29 1357.52,-65.03 1348.52,-59.45 1347,-66.29"/>
</g>
</g>
</svg>
