<?xml version="1.0" encoding="UTF-8" standalone="no"?>
<!DOCTYPE svg PUBLIC "-//W3C//DTD SVG 1.1//EN"
 "http://www.w3.org/Graphics/SVG/1.1/DTD/svg11.dtd">
<!-- Generated by graphviz version 7.1.0 (0)
 -->
<!-- Title: RenderGraph Pages: 1 -->
<svg width="2098pt" height="815pt"
 viewBox="0.00 0.00 2098.00 815.00" xmlns="http://www.w3.org/2000/svg" xmlns:xlink="http://www.w3.org/1999/xlink">
<g id="graph0" class="graph" transform="scale(1 1) rotate(0) translate(4 811)">
<title>RenderGraph</title>
<polygon fill="#0d1117" stroke="none" points="-4,4 -4,-811 2094,-811 2094,4 -4,4"/>
<g id="clust1" class="cluster">
<title>cluster_core_2d</title>
<path fill="#343a42" stroke="#343a42" d="M20,-8C20,-8 1872.5,-8 1872.5,-8 1878.5,-8 1884.5,-14 1884.5,-20 1884.5,-20 1884.5,-315 1884.5,-315 1884.5,-321 1878.5,-327 1872.5,-327 1872.5,-327 20,-327 20,-327 14,-327 8,-321 8,-315 8,-315 8,-20 8,-20 8,-14 14,-8 20,-8"/>
<text text-anchor="middle" x="946.25" y="-311.8" font-family="Times,serif" font-size="14.00" fill="white">core_2d</text>
</g>
<g id="clust2" class="cluster">
<title>cluster_core_2d_draw_ui</title>
<path fill="#6f90ad" stroke="#6f90ad" d="M28,-191C28,-191 484.5,-191 484.5,-191 490.5,-191 496.5,-197 496.5,-203 496.5,-203 496.5,-284 496.5,-284 496.5,-290 490.5,-296 484.5,-296 484.5,-296 28,-296 28,-296 22,-296 16,-290 16,-284 16,-284 16,-203 16,-203 16,-197 22,-191 28,-191"/>
<text text-anchor="middle" x="256.25" y="-280.8" font-family="Times,serif" font-size="14.00">draw_ui</text>
</g>
<g id="clust3" class="cluster">
<title>cluster_core_3d</title>
<path fill="#343a42" stroke="#343a42" d="M20,-335C20,-335 2070,-335 2070,-335 2076,-335 2082,-341 2082,-347 2082,-347 2082,-745 2082,-745 2082,-751 2076,-757 2070,-757 2070,-757 20,-757 20,-757 14,-757 8,-751 8,-745 8,-745 8,-347 8,-347 8,-341 14,-335 20,-335"/>
<text text-anchor="middle" x="1045" y="-741.8" font-family="Times,serif" font-size="14.00" fill="white">core_3d</text>
</g>
<g id="clust4" class="cluster">
<title>cluster_core_3d_draw_ui</title>
<path fill="#6f90ad" stroke="#6f90ad" d="M28,-621C28,-621 484.5,-621 484.5,-621 490.5,-621 496.5,-627 496.5,-633 496.5,-633 496.5,-714 496.5,-714 496.5,-720 490.5,-726 484.5,-726 484.5,-726 28,-726 28,-726 22,-726 16,-720 16,-714 16,-714 16,-633 16,-633 16,-627 22,-621 28,-621"/>
<text text-anchor="middle" x="256.25" y="-710.8" font-family="Times,serif" font-size="14.00">draw_ui</text>
</g>
<!-- _core_2d_draw_ui__core_2d_draw_uiGraphInputNode -->
<g id="node1" class="node">
<title>_core_2d_draw_ui__core_2d_draw_uiGraphInputNode</title>
<text text-anchor="start" x="106.5" y="-244.8" font-family="Helvetica,sans-Serif" font-size="14.00" fill="white">GraphInputNode</text>
<text text-anchor="start" x="122.5" y="-234" font-family="Helvetica,sans-Serif" font-size="10.00" fill="red">GraphInputNode</text>
<polygon fill="none" stroke="white" points="35,-206 35,-227 162,-227 162,-206 35,-206"/>
<text text-anchor="start" x="38" y="-212.8" font-family="Helvetica,sans-Serif" font-size="14.00" fill="white">view_entity: Entity</text>
<polygon fill="none" stroke="white" points="164,-206 164,-227 291,-227 291,-206 164,-206"/>
<text text-anchor="start" x="167" y="-212.8" font-family="Helvetica,sans-Serif" font-size="14.00" fill="white">view_entity: Entity</text>
<path fill="none" stroke="white" d="M44,-203.5C44,-203.5 282,-203.5 282,-203.5 288,-203.5 294,-209.5 294,-215.5 294,-215.5 294,-248.5 294,-248.5 294,-254.5 288,-260.5 282,-260.5 282,-260.5 44,-260.5 44,-260.5 38,-260.5 32,-254.5 32,-248.5 32,-248.5 32,-215.5 32,-215.5 32,-209.5 38,-203.5 44,-203.5"/>
</g>
<!-- _core_2d_draw_ui__core_2d_draw_uiui_pass -->
<g id="node2" class="node">
<title>_core_2d_draw_ui__core_2d_draw_uiui_pass</title>
<text text-anchor="start" x="407" y="-244.8" font-family="Helvetica,sans-Serif" font-size="14.00" fill="white">ui_pass</text>
<text text-anchor="start" x="403.5" y="-234" font-family="Helvetica,sans-Serif" font-size="10.00" fill="red">UiPassNode</text>
<polygon fill="none" stroke="white" points="385.5,-206 385.5,-227 467.5,-227 467.5,-206 385.5,-206"/>
<text text-anchor="start" x="388.5" y="-212.8" font-family="Helvetica,sans-Serif" font-size="14.00" fill="white">view: Entity</text>
<text text-anchor="start" x="471.5" y="-212.8" font-family="Helvetica,sans-Serif" font-size="14.00" fill="white"> </text>
<path fill="none" stroke="white" d="M394.5,-203.5C394.5,-203.5 468.5,-203.5 468.5,-203.5 474.5,-203.5 480.5,-209.5 480.5,-215.5 480.5,-215.5 480.5,-248.5 480.5,-248.5 480.5,-254.5 474.5,-260.5 468.5,-260.5 468.5,-260.5 394.5,-260.5 394.5,-260.5 388.5,-260.5 382.5,-254.5 382.5,-248.5 382.5,-248.5 382.5,-215.5 382.5,-215.5 382.5,-209.5 388.5,-203.5 394.5,-203.5"/>
</g>
<!-- _core_2d_draw_ui__core_2d_draw_uiGraphInputNode&#45;&gt;_core_2d_draw_ui__core_2d_draw_uiui_pass -->
<g id="edge1" class="edge">
<title>_core_2d_draw_ui__core_2d_draw_uiGraphInputNode:e&#45;&gt;_core_2d_draw_ui__core_2d_draw_uiui_pass:w</title>
<path fill="none" stroke="#715ed6" d="M292,-216C329.1,-216 341.09,-216 373.28,-216"/>
<polygon fill="#715ed6" stroke="#715ed6" points="372.99,-219.5 382.99,-216 372.99,-212.5 372.99,-219.5"/>
</g>
<!-- _core_2d__core_2dbloom -->
<g id="node3" class="node">
<title>_core_2d__core_2dbloom</title>
<text text-anchor="start" x="597" y="-141.8" font-family="Helvetica,sans-Serif" font-size="14.00" fill="white">bloom</text>
<text text-anchor="start" x="590" y="-131" font-family="Helvetica,sans-Serif" font-size="10.00" fill="red">BloomNode</text>
<polygon fill="none" stroke="white" points="572,-103 572,-124 654,-124 654,-103 572,-103"/>
<text text-anchor="start" x="575" y="-109.8" font-family="Helvetica,sans-Serif" font-size="14.00" fill="white">view: Entity</text>
<text text-anchor="start" x="658" y="-109.8" font-family="Helvetica,sans-Serif" font-size="14.00" fill="white"> </text>
<path fill="none" stroke="white" d="M581,-100.5C581,-100.5 655,-100.5 655,-100.5 661,-100.5 667,-106.5 667,-112.5 667,-112.5 667,-145.5 667,-145.5 667,-151.5 661,-157.5 655,-157.5 655,-157.5 581,-157.5 581,-157.5 575,-157.5 569,-151.5 569,-145.5 569,-145.5 569,-112.5 569,-112.5 569,-106.5 575,-100.5 581,-100.5"/>
</g>
<!-- _core_2d__core_2dtonemapping -->
<g id="node6" class="node">
<title>_core_2d__core_2dtonemapping</title>
<text text-anchor="start" x="761.5" y="-141.8" font-family="Helvetica,sans-Serif" font-size="14.00" fill="white">tonemapping</text>
<text text-anchor="start" x="761" y="-131" font-family="Helvetica,sans-Serif" font-size="10.00" fill="red">TonemappingNode</text>
<polygon fill="none" stroke="white" points="758,-103 758,-124 842,-124 842,-103 758,-103"/>
<text text-anchor="start" x="762" y="-109.8" font-family="Helvetica,sans-Serif" font-size="14.00" fill="white">view: Entity</text>
<text text-anchor="start" x="847" y="-109.8" font-family="Helvetica,sans-Serif" font-size="14.00" fill="white"> </text>
<path fill="none" stroke="white" d="M767,-100.5C767,-100.5 845,-100.5 845,-100.5 851,-100.5 857,-106.5 857,-112.5 857,-112.5 857,-145.5 857,-145.5 857,-151.5 851,-157.5 845,-157.5 845,-157.5 767,-157.5 767,-157.5 761,-157.5 755,-151.5 755,-145.5 755,-145.5 755,-112.5 755,-112.5 755,-106.5 761,-100.5 767,-100.5"/>
</g>
<!-- _core_2d__core_2dbloom&#45;&gt;_core_2d__core_2dtonemapping -->
<g id="edge9" class="edge">
<title>_core_2d__core_2dbloom:e&#45;&gt;_core_2d__core_2dtonemapping:w</title>
<path fill="none" stroke="white" d="M665,-140C701.9,-140 713.82,-140 745.84,-140"/>
<polygon fill="white" stroke="white" points="745.49,-143.5 755.49,-140 745.49,-136.5 745.49,-143.5"/>
</g>
<!-- _core_2d__core_2dmain_pass -->
<g id="node4" class="node">
<title>_core_2d__core_2dmain_pass</title>
<text text-anchor="start" x="397" y="-161.8" font-family="Helvetica,sans-Serif" font-size="14.00" fill="white">main_pass</text>
<text text-anchor="start" x="391" y="-151" font-family="Helvetica,sans-Serif" font-size="10.00" fill="red">MainPass2dNode</text>
<polygon fill="none" stroke="white" points="385.5,-123 385.5,-144 467.5,-144 467.5,-123 385.5,-123"/>
<text text-anchor="start" x="388.5" y="-129.8" font-family="Helvetica,sans-Serif" font-size="14.00" fill="white">view: Entity</text>
<text text-anchor="start" x="471.5" y="-129.8" font-family="Helvetica,sans-Serif" font-size="14.00" fill="white"> </text>
<path fill="none" stroke="white" d="M394.5,-120.5C394.5,-120.5 468.5,-120.5 468.5,-120.5 474.5,-120.5 480.5,-126.5 480.5,-132.5 480.5,-132.5 480.5,-165.5 480.5,-165.5 480.5,-171.5 474.5,-177.5 468.5,-177.5 468.5,-177.5 394.5,-177.5 394.5,-177.5 388.5,-177.5 382.5,-171.5 382.5,-165.5 382.5,-165.5 382.5,-132.5 382.5,-132.5 382.5,-126.5 388.5,-120.5 394.5,-120.5"/>
</g>
<!-- _core_2d__core_2dmain_pass&#45;&gt;_core_2d__core_2dbloom -->
<g id="edge3" class="edge">
<title>_core_2d__core_2dmain_pass:e&#45;&gt;_core_2d__core_2dbloom:w</title>
<path fill="none" stroke="white" d="M478.5,-160C516.45,-160 526.98,-143.72 559.58,-140.53"/>
<polygon fill="white" stroke="white" points="559.66,-144.03 569.49,-140.07 559.34,-137.04 559.66,-144.03"/>
</g>
<!-- _core_2d__core_2dmain_pass&#45;&gt;_core_2d__core_2dtonemapping -->
<g id="edge8" class="edge">
<title>_core_2d__core_2dmain_pass:e&#45;&gt;_core_2d__core_2dtonemapping:w</title>
<path fill="none" stroke="white" d="M478.5,-160C515.49,-160 524.09,-168.55 561,-171 611.56,-174.36 625.16,-180.11 675,-171 709.28,-164.74 716.67,-144.87 745.74,-140.75"/>
<polygon fill="white" stroke="white" points="745.75,-144.26 755.49,-140.1 745.28,-137.28 745.75,-144.26"/>
</g>
<!-- _core_2d__core_2dui_pass -->
<g id="node10" class="node">
<title>_core_2d__core_2dui_pass</title>
<text text-anchor="start" x="1535" y="-81.8" font-family="Helvetica,sans-Serif" font-size="14.00" fill="white">ui_pass</text>
<text text-anchor="start" x="1505" y="-71" font-family="Helvetica,sans-Serif" font-size="10.00" fill="red">RunGraphOnViewNode</text>
<polygon fill="none" stroke="white" points="1502,-43 1502,-64 1595,-64 1595,-43 1502,-43"/>
<text text-anchor="start" x="1510.5" y="-49.8" font-family="Helvetica,sans-Serif" font-size="14.00" fill="white">view: Entity</text>
<text text-anchor="start" x="1605" y="-49.8" font-family="Helvetica,sans-Serif" font-size="14.00" fill="white"> </text>
<path fill="none" stroke="white" d="M1510.5,-40.5C1510.5,-40.5 1607.5,-40.5 1607.5,-40.5 1613.5,-40.5 1619.5,-46.5 1619.5,-52.5 1619.5,-52.5 1619.5,-85.5 1619.5,-85.5 1619.5,-91.5 1613.5,-97.5 1607.5,-97.5 1607.5,-97.5 1510.5,-97.5 1510.5,-97.5 1504.5,-97.5 1498.5,-91.5 1498.5,-85.5 1498.5,-85.5 1498.5,-52.5 1498.5,-52.5 1498.5,-46.5 1504.5,-40.5 1510.5,-40.5"/>
</g>
<!-- _core_2d__core_2dmain_pass&#45;&gt;_core_2d__core_2dui_pass -->
<g id="edge15" class="edge">
<title>_core_2d__core_2dmain_pass:e&#45;&gt;_core_2d__core_2dui_pass:w</title>
<path fill="none" stroke="white" d="M478.5,-160C516.03,-160 523.92,-172.23 561,-178 668.63,-194.75 696.07,-201 805,-201 805,-201 805,-201 997,-201 1163.66,-201 1207.4,-188.01 1367,-140 1425.7,-122.34 1434.78,-84.91 1489.77,-80.44"/>
<polygon fill="white" stroke="white" points="1489.63,-83.95 1499.49,-80.06 1489.36,-76.95 1489.63,-83.95"/>
</g>
<!-- _core_2d__core_2dfxaa -->
<g id="node5" class="node">
<title>_core_2d__core_2dfxaa</title>
<text text-anchor="start" x="982" y="-101.8" font-family="Helvetica,sans-Serif" font-size="14.00" fill="white">fxaa</text>
<text text-anchor="start" x="972.5" y="-91" font-family="Helvetica,sans-Serif" font-size="10.00" fill="red">FxaaNode</text>
<polygon fill="none" stroke="white" points="950,-63 950,-84 1032,-84 1032,-63 950,-63"/>
<text text-anchor="start" x="953" y="-69.8" font-family="Helvetica,sans-Serif" font-size="14.00" fill="white">view: Entity</text>
<text text-anchor="start" x="1036" y="-69.8" font-family="Helvetica,sans-Serif" font-size="14.00" fill="white"> </text>
<path fill="none" stroke="white" d="M959,-60.5C959,-60.5 1033,-60.5 1033,-60.5 1039,-60.5 1045,-66.5 1045,-72.5 1045,-72.5 1045,-105.5 1045,-105.5 1045,-111.5 1039,-117.5 1033,-117.5 1033,-117.5 959,-117.5 959,-117.5 953,-117.5 947,-111.5 947,-105.5 947,-105.5 947,-72.5 947,-72.5 947,-66.5 953,-60.5 959,-60.5"/>
</g>
<!-- _core_2d__core_2dend_main_pass_post_processing -->
<g id="node9" class="node">
<title>_core_2d__core_2dend_main_pass_post_processing</title>
<text text-anchor="start" x="1140.5" y="-111.8" font-family="Helvetica,sans-Serif" font-size="14.00" fill="white">end_main_pass_post_processing</text>
<text text-anchor="start" x="1219.5" y="-101" font-family="Helvetica,sans-Serif" font-size="10.00" fill="red">EmptyNode</text>
<path fill="none" stroke="white" d="M1146.33,-93C1146.33,-93 1347.67,-93 1347.67,-93 1353.33,-93 1359,-98.67 1359,-104.33 1359,-104.33 1359,-115.67 1359,-115.67 1359,-121.33 1353.33,-127 1347.67,-127 1347.67,-127 1146.33,-127 1146.33,-127 1140.67,-127 1135,-121.33 1135,-115.67 1135,-115.67 1135,-104.33 1135,-104.33 1135,-98.67 1140.67,-93 1146.33,-93"/>
</g>
<!-- _core_2d__core_2dfxaa&#45;&gt;_core_2d__core_2dend_main_pass_post_processing -->
<g id="edge14" class="edge">
<title>_core_2d__core_2dfxaa:e&#45;&gt;_core_2d__core_2dend_main_pass_post_processing:w</title>
<path fill="none" stroke="white" d="M1043,-100C1080.91,-100 1092.73,-108.14 1125.55,-109.73"/>
<polygon fill="white" stroke="white" points="1125.41,-113.23 1135.49,-109.96 1125.57,-106.23 1125.41,-113.23"/>
</g>
<!-- _core_2d__core_2dtonemapping&#45;&gt;_core_2d__core_2dfxaa -->
<g id="edge6" class="edge">
<title>_core_2d__core_2dtonemapping:e&#45;&gt;_core_2d__core_2dfxaa:w</title>
<path fill="none" stroke="white" d="M855,-140C896.32,-140 902.68,-106.86 937.72,-100.91"/>
<polygon fill="white" stroke="white" points="937.81,-104.42 947.49,-100.12 937.24,-97.44 937.81,-104.42"/>
</g>
<!-- _core_2d__core_2dtonemapping&#45;&gt;_core_2d__core_2dend_main_pass_post_processing -->
<g id="edge13" class="edge">
<title>_core_2d__core_2dtonemapping:e&#45;&gt;_core_2d__core_2dend_main_pass_post_processing:w</title>
<path fill="none" stroke="white" d="M855,-140C943.98,-140 966.99,-144.11 1055,-131 1088.14,-126.06 1097.45,-113.26 1125.67,-110.52"/>
<polygon fill="white" stroke="white" points="1125.66,-114.03 1135.49,-110.07 1125.34,-107.03 1125.66,-114.03"/>
</g>
<!-- _core_2d__core_2dupscaling -->
<g id="node7" class="node">
<title>_core_2d__core_2dupscaling</title>
<text text-anchor="start" x="1787.5" y="-81.8" font-family="Helvetica,sans-Serif" font-size="14.00" fill="white">upscaling</text>
<text text-anchor="start" x="1784.5" y="-71" font-family="Helvetica,sans-Serif" font-size="10.00" fill="red">UpscalingNode</text>
<polygon fill="none" stroke="white" points="1773.5,-43 1773.5,-64 1855.5,-64 1855.5,-43 1773.5,-43"/>
<text text-anchor="start" x="1776.5" y="-49.8" font-family="Helvetica,sans-Serif" font-size="14.00" fill="white">view: Entity</text>
<text text-anchor="start" x="1859.5" y="-49.8" font-family="Helvetica,sans-Serif" font-size="14.00" fill="white"> </text>
<path fill="none" stroke="white" d="M1782.5,-40.5C1782.5,-40.5 1856.5,-40.5 1856.5,-40.5 1862.5,-40.5 1868.5,-46.5 1868.5,-52.5 1868.5,-52.5 1868.5,-85.5 1868.5,-85.5 1868.5,-91.5 1862.5,-97.5 1856.5,-97.5 1856.5,-97.5 1782.5,-97.5 1782.5,-97.5 1776.5,-97.5 1770.5,-91.5 1770.5,-85.5 1770.5,-85.5 1770.5,-52.5 1770.5,-52.5 1770.5,-46.5 1776.5,-40.5 1782.5,-40.5"/>
</g>
<!-- _core_2d__core_2dGraphInputNode -->
<g id="node8" class="node">
<title>_core_2d__core_2dGraphInputNode</title>
<text text-anchor="start" x="106.5" y="-95.8" font-family="Helvetica,sans-Serif" font-size="14.00" fill="white">GraphInputNode</text>
<text text-anchor="start" x="122.5" y="-85" font-family="Helvetica,sans-Serif" font-size="10.00" fill="red">GraphInputNode</text>
<polygon fill="none" stroke="white" points="35,-57 35,-78 162,-78 162,-57 35,-57"/>
<text text-anchor="start" x="38" y="-63.8" font-family="Helvetica,sans-Serif" font-size="14.00" fill="white">view_entity: Entity</text>
<polygon fill="none" stroke="white" points="164,-57 164,-78 291,-78 291,-57 164,-57"/>
<text text-anchor="start" x="167" y="-63.8" font-family="Helvetica,sans-Serif" font-size="14.00" fill="white">view_entity: Entity</text>
<path fill="none" stroke="white" d="M44,-54.5C44,-54.5 282,-54.5 282,-54.5 288,-54.5 294,-60.5 294,-66.5 294,-66.5 294,-99.5 294,-99.5 294,-105.5 288,-111.5 282,-111.5 282,-111.5 44,-111.5 44,-111.5 38,-111.5 32,-105.5 32,-99.5 32,-99.5 32,-66.5 32,-66.5 32,-60.5 38,-54.5 44,-54.5"/>
</g>
<!-- _core_2d__core_2dGraphInputNode&#45;&gt;_core_2d__core_2dbloom -->
<g id="edge2" class="edge">
<title>_core_2d__core_2dGraphInputNode:e&#45;&gt;_core_2d__core_2dbloom:w</title>
<path fill="none" stroke="#a79be6" d="M292,-67C329.05,-67 337.48,-75.79 374,-82 457.62,-96.23 480.44,-111.62 559.94,-112.91"/>
<polygon fill="#a79be6" stroke="#a79be6" points="559.46,-116.41 569.49,-112.99 559.51,-109.41 559.46,-116.41"/>
</g>
<!-- _core_2d__core_2dGraphInputNode&#45;&gt;_core_2d__core_2dmain_pass -->
<g id="edge4" class="edge">
<title>_core_2d__core_2dGraphInputNode:e&#45;&gt;_core_2d__core_2dmain_pass:w</title>
<path fill="none" stroke="#a79be6" d="M292,-67C338.36,-67 335,-122.62 373.2,-131.74"/>
<polygon fill="#a79be6" stroke="#a79be6" points="372.67,-135.2 383,-132.83 373.44,-128.25 372.67,-135.2"/>
</g>
<!-- _core_2d__core_2dGraphInputNode&#45;&gt;_core_2d__core_2dfxaa -->
<g id="edge5" class="edge">
<title>_core_2d__core_2dGraphInputNode:e&#45;&gt;_core_2d__core_2dfxaa:w</title>
<path fill="none" stroke="#a79be6" d="M292,-67C328.51,-67 337.5,-63.11 374,-62 512.88,-57.77 772.87,-72.32 937.79,-72.98"/>
<polygon fill="#a79be6" stroke="#a79be6" points="937.48,-76.48 947.49,-73 937.49,-69.48 937.48,-76.48"/>
</g>
<!-- _core_2d__core_2dGraphInputNode&#45;&gt;_core_2d__core_2dtonemapping -->
<g id="edge7" class="edge">
<title>_core_2d__core_2dGraphInputNode:e&#45;&gt;_core_2d__core_2dtonemapping:w</title>
<path fill="none" stroke="#a79be6" d="M292,-67C462.48,-67 507.14,-58.26 675,-88 708.41,-93.92 717.13,-109.13 745.55,-112.38"/>
<polygon fill="#a79be6" stroke="#a79be6" points="745.31,-115.87 755.49,-112.92 745.69,-108.88 745.31,-115.87"/>
</g>
<!-- _core_2d__core_2dGraphInputNode&#45;&gt;_core_2d__core_2dupscaling -->
<g id="edge10" class="edge">
<title>_core_2d__core_2dGraphInputNode:e&#45;&gt;_core_2d__core_2dupscaling:w</title>
<path fill="none" stroke="#a79be6" d="M292,-67C330.66,-67 336.22,-46.17 374,-38 479.95,-15.08 508.6,-17 617,-17 617,-17 617,-17 1248,-17 1439.61,-17 1489.47,1.1 1679,-27 1717.67,-32.73 1727.62,-49.43 1761.25,-52.51"/>
<polygon fill="#a79be6" stroke="#a79be6" points="1760.84,-55.99 1770.99,-52.93 1761.15,-49 1760.84,-55.99"/>
</g>
<!-- _core_2d__core_2dGraphInputNode&#45;&gt;_core_2d__core_2dui_pass -->
<g id="edge16" class="edge">
<title>_core_2d__core_2dGraphInputNode:e&#45;&gt;_core_2d__core_2dui_pass:w</title>
<path fill="none" stroke="#a79be6" d="M292,-67C328.71,-67 337.48,-60.73 374,-57 481.8,-45.99 508.63,-37 617,-37 617,-37 617,-37 997,-37 1217.28,-37 1274.93,-52.46 1489.66,-52.99"/>
<polygon fill="#a79be6" stroke="#a79be6" points="1489.48,-56.49 1499.49,-53 1489.49,-49.49 1489.48,-56.49"/>
</g>
<!-- _core_2d__core_2dend_main_pass_post_processing&#45;&gt;_core_2d__core_2dupscaling -->
<g id="edge11" class="edge">
<title>_core_2d__core_2dend_main_pass_post_processing:e&#45;&gt;_core_2d__core_2dupscaling:w</title>
<path fill="none" stroke="white" d="M1357,-110C1500.11,-110 1537.72,-133.81 1679,-111 1718.17,-104.68 1727.18,-84.35 1761.11,-80.6"/>
<polygon fill="white" stroke="white" points="1761.19,-84.1 1770.99,-80.08 1760.82,-77.11 1761.19,-84.1"/>
</g>
<!-- _core_2d__core_2dend_main_pass_post_processing&#45;&gt;_core_2d__core_2dui_pass -->
<g id="edge17" class="edge">
<title>_core_2d__core_2dend_main_pass_post_processing:e&#45;&gt;_core_2d__core_2dui_pass:w</title>
<path fill="none" stroke="white" d="M1357,-110C1418.42,-110 1433.83,-83.52 1489.68,-80.32"/>
<polygon fill="white" stroke="white" points="1489.59,-83.82 1499.49,-80.04 1489.39,-76.82 1489.59,-83.82"/>
</g>
<!-- _core_2d__core_2dui_pass&#45;&gt;_core_2d__core_2dupscaling -->
<g id="edge12" class="edge">
<title>_core_2d__core_2dui_pass:e&#45;&gt;_core_2d__core_2dupscaling:w</title>
<path fill="none" stroke="white" d="M1618,-80C1682.78,-80 1701.72,-80 1761.31,-80"/>
<polygon fill="white" stroke="white" points="1760.99,-83.5 1770.99,-80 1760.99,-76.5 1760.99,-83.5"/>
</g>
<!-- _core_3d_draw_ui__core_3d_draw_uiGraphInputNode -->
<g id="node11" class="node">
<title>_core_3d_draw_ui__core_3d_draw_uiGraphInputNode</title>
<text text-anchor="start" x="106.5" y="-674.8" font-family="Helvetica,sans-Serif" font-size="14.00" fill="white">GraphInputNode</text>
<text text-anchor="start" x="122.5" y="-664" font-family="Helvetica,sans-Serif" font-size="10.00" fill="red">GraphInputNode</text>
<polygon fill="none" stroke="white" points="35,-636 35,-657 162,-657 162,-636 35,-636"/>
<text text-anchor="start" x="38" y="-642.8" font-family="Helvetica,sans-Serif" font-size="14.00" fill="white">view_entity: Entity</text>
<polygon fill="none" stroke="white" points="164,-636 164,-657 291,-657 291,-636 164,-636"/>
<text text-anchor="start" x="167" y="-642.8" font-family="Helvetica,sans-Serif" font-size="14.00" fill="white">view_entity: Entity</text>
<path fill="none" stroke="white" d="M44,-633.5C44,-633.5 282,-633.5 282,-633.5 288,-633.5 294,-639.5 294,-645.5 294,-645.5 294,-678.5 294,-678.5 294,-684.5 288,-690.5 282,-690.5 282,-690.5 44,-690.5 44,-690.5 38,-690.5 32,-684.5 32,-678.5 32,-678.5 32,-645.5 32,-645.5 32,-639.5 38,-633.5 44,-633.5"/>
</g>
<!-- _core_3d_draw_ui__core_3d_draw_uiui_pass -->
<g id="node12" class="node">
<title>_core_3d_draw_ui__core_3d_draw_uiui_pass</title>
<text text-anchor="start" x="407" y="-674.8" font-family="Helvetica,sans-Serif" font-size="14.00" fill="white">ui_pass</text>
<text text-anchor="start" x="403.5" y="-664" font-family="Helvetica,sans-Serif" font-size="10.00" fill="red">UiPassNode</text>
<polygon fill="none" stroke="white" points="385.5,-636 385.5,-657 467.5,-657 467.5,-636 385.5,-636"/>
<text text-anchor="start" x="388.5" y="-642.8" font-family="Helvetica,sans-Serif" font-size="14.00" fill="white">view: Entity</text>
<text text-anchor="start" x="471.5" y="-642.8" font-family="Helvetica,sans-Serif" font-size="14.00" fill="white"> </text>
<path fill="none" stroke="white" d="M394.5,-633.5C394.5,-633.5 468.5,-633.5 468.5,-633.5 474.5,-633.5 480.5,-639.5 480.5,-645.5 480.5,-645.5 480.5,-678.5 480.5,-678.5 480.5,-684.5 474.5,-690.5 468.5,-690.5 468.5,-690.5 394.5,-690.5 394.5,-690.5 388.5,-690.5 382.5,-684.5 382.5,-678.5 382.5,-678.5 382.5,-645.5 382.5,-645.5 382.5,-639.5 388.5,-633.5 394.5,-633.5"/>
</g>
<!-- _core_3d_draw_ui__core_3d_draw_uiGraphInputNode&#45;&gt;_core_3d_draw_ui__core_3d_draw_uiui_pass -->
<g id="edge18" class="edge">
<title>_core_3d_draw_ui__core_3d_draw_uiGraphInputNode:e&#45;&gt;_core_3d_draw_ui__core_3d_draw_uiui_pass:w</title>
<path fill="none" stroke="#715ed6" d="M292,-646C329.1,-646 341.09,-646 373.28,-646"/>
<polygon fill="#715ed6" stroke="#715ed6" points="372.99,-649.5 382.99,-646 372.99,-642.5 372.99,-649.5"/>
</g>
<!-- _core_3d__core_3dbloom -->
<g id="node13" class="node">
<title>_core_3d__core_3dbloom</title>
<text text-anchor="start" x="785" y="-468.8" font-family="Helvetica,sans-Serif" font-size="14.00" fill="white">bloom</text>
<text text-anchor="start" x="778" y="-458" font-family="Helvetica,sans-Serif" font-size="10.00" fill="red">BloomNode</text>
<polygon fill="none" stroke="white" points="760,-430 760,-451 842,-451 842,-430 760,-430"/>
<text text-anchor="start" x="763" y="-436.8" font-family="Helvetica,sans-Serif" font-size="14.00" fill="white">view: Entity</text>
<text text-anchor="start" x="846" y="-436.8" font-family="Helvetica,sans-Serif" font-size="14.00" fill="white"> </text>
<path fill="none" stroke="white" d="M769,-427.5C769,-427.5 843,-427.5 843,-427.5 849,-427.5 855,-433.5 855,-439.5 855,-439.5 855,-472.5 855,-472.5 855,-478.5 849,-484.5 843,-484.5 843,-484.5 769,-484.5 769,-484.5 763,-484.5 757,-478.5 757,-472.5 757,-472.5 757,-439.5 757,-439.5 757,-433.5 763,-427.5 769,-427.5"/>
</g>
<!-- _core_3d__core_3dtonemapping -->
<g id="node17" class="node">
<title>_core_3d__core_3dtonemapping</title>
<text text-anchor="start" x="951.5" y="-468.8" font-family="Helvetica,sans-Serif" font-size="14.00" fill="white">tonemapping</text>
<text text-anchor="start" x="951" y="-458" font-family="Helvetica,sans-Serif" font-size="10.00" fill="red">TonemappingNode</text>
<polygon fill="none" stroke="white" points="948,-430 948,-451 1032,-451 1032,-430 948,-430"/>
<text text-anchor="start" x="952" y="-436.8" font-family="Helvetica,sans-Serif" font-size="14.00" fill="white">view: Entity</text>
<text text-anchor="start" x="1037" y="-436.8" font-family="Helvetica,sans-Serif" font-size="14.00" fill="white"> </text>
<path fill="none" stroke="white" d="M957,-427.5C957,-427.5 1035,-427.5 1035,-427.5 1041,-427.5 1047,-433.5 1047,-439.5 1047,-439.5 1047,-472.5 1047,-472.5 1047,-478.5 1041,-484.5 1035,-484.5 1035,-484.5 957,-484.5 957,-484.5 951,-484.5 945,-478.5 945,-472.5 945,-472.5 945,-439.5 945,-439.5 945,-433.5 951,-427.5 957,-427.5"/>
</g>
<!-- _core_3d__core_3dbloom&#45;&gt;_core_3d__core_3dtonemapping -->
<g id="edge29" class="edge">
<title>_core_3d__core_3dbloom:e&#45;&gt;_core_3d__core_3dtonemapping:w</title>
<path fill="none" stroke="white" d="M853,-467C890.7,-467 902.88,-467 935.6,-467"/>
<polygon fill="white" stroke="white" points="935.49,-470.5 945.49,-467 935.49,-463.5 935.49,-470.5"/>
</g>
<!-- _core_3d__core_3dmain_pass -->
<g id="node14" class="node">
<title>_core_3d__core_3dmain_pass</title>
<text text-anchor="start" x="583.5" y="-508.8" font-family="Helvetica,sans-Serif" font-size="14.00" fill="white">main_pass</text>
<text text-anchor="start" x="577.5" y="-498" font-family="Helvetica,sans-Serif" font-size="10.00" fill="red">MainPass3dNode</text>
<polygon fill="none" stroke="white" points="572,-470 572,-491 654,-491 654,-470 572,-470"/>
<text text-anchor="start" x="575" y="-476.8" font-family="Helvetica,sans-Serif" font-size="14.00" fill="white">view: Entity</text>
<text text-anchor="start" x="658" y="-476.8" font-family="Helvetica,sans-Serif" font-size="14.00" fill="white"> </text>
<path fill="none" stroke="white" d="M581,-467.5C581,-467.5 655,-467.5 655,-467.5 661,-467.5 667,-473.5 667,-479.5 667,-479.5 667,-512.5 667,-512.5 667,-518.5 661,-524.5 655,-524.5 655,-524.5 581,-524.5 581,-524.5 575,-524.5 569,-518.5 569,-512.5 569,-512.5 569,-479.5 569,-479.5 569,-473.5 575,-467.5 581,-467.5"/>
</g>
<!-- _core_3d__core_3dmain_pass&#45;&gt;_core_3d__core_3dbloom -->
<g id="edge20" class="edge">
<title>_core_3d__core_3dmain_pass:e&#45;&gt;_core_3d__core_3dbloom:w</title>
<path fill="none" stroke="white" d="M665,-507C706.32,-507 712.68,-473.86 747.72,-467.91"/>
<polygon fill="white" stroke="white" points="747.81,-471.42 757.49,-467.12 747.24,-464.44 747.81,-471.42"/>
</g>
<!-- _core_3d__core_3dmain_pass&#45;&gt;_core_3d__core_3dtonemapping -->
<g id="edge28" class="edge">
<title>_core_3d__core_3dmain_pass:e&#45;&gt;_core_3d__core_3dtonemapping:w</title>
<path fill="none" stroke="white" d="M665,-507C753.98,-507 777.85,-515.96 865,-498 899.14,-490.97 906.64,-471.71 935.73,-467.73"/>
<polygon fill="white" stroke="white" points="935.74,-471.23 945.49,-467.1 935.28,-464.25 935.74,-471.23"/>
</g>
<!-- _core_3d__core_3dui_pass -->
<g id="node22" class="node">
<title>_core_3d__core_3dui_pass</title>
<text text-anchor="start" x="1795.5" y="-408.8" font-family="Helvetica,sans-Serif" font-size="14.00" fill="white">ui_pass</text>
<text text-anchor="start" x="1765.5" y="-398" font-family="Helvetica,sans-Serif" font-size="10.00" fill="red">RunGraphOnViewNode</text>
<polygon fill="none" stroke="white" points="1762.5,-370 1762.5,-391 1855.5,-391 1855.5,-370 1762.5,-370"/>
<text text-anchor="start" x="1771" y="-376.8" font-family="Helvetica,sans-Serif" font-size="14.00" fill="white">view: Entity</text>
<text text-anchor="start" x="1865.5" y="-376.8" font-family="Helvetica,sans-Serif" font-size="14.00" fill="white"> </text>
<path fill="none" stroke="white" d="M1771,-367.5C1771,-367.5 1868,-367.5 1868,-367.5 1874,-367.5 1880,-373.5 1880,-379.5 1880,-379.5 1880,-412.5 1880,-412.5 1880,-418.5 1874,-424.5 1868,-424.5 1868,-424.5 1771,-424.5 1771,-424.5 1765,-424.5 1759,-418.5 1759,-412.5 1759,-412.5 1759,-379.5 1759,-379.5 1759,-373.5 1765,-367.5 1771,-367.5"/>
</g>
<!-- _core_3d__core_3dmain_pass&#45;&gt;_core_3d__core_3dui_pass -->
<g id="edge36" class="edge">
<title>_core_3d__core_3dmain_pass:e&#45;&gt;_core_3d__core_3dui_pass:w</title>
<path fill="none" stroke="white" d="M665,-507C811.96,-507 848.04,-528 995,-528 995,-528 995,-528 1248,-528 1441.46,-528 1499.68,-539.6 1679,-467 1717.25,-451.51 1716.66,-414.51 1750.43,-407.99"/>
<polygon fill="white" stroke="white" points="1750.34,-411.51 1759.99,-407.13 1749.72,-404.54 1750.34,-411.51"/>
</g>
<!-- _core_3d__core_3dfxaa -->
<g id="node15" class="node">
<title>_core_3d__core_3dfxaa</title>
<text text-anchor="start" x="1233" y="-428.8" font-family="Helvetica,sans-Serif" font-size="14.00" fill="white">fxaa</text>
<text text-anchor="start" x="1223.5" y="-418" font-family="Helvetica,sans-Serif" font-size="10.00" fill="red">FxaaNode</text>
<polygon fill="none" stroke="white" points="1201,-390 1201,-411 1283,-411 1283,-390 1201,-390"/>
<text text-anchor="start" x="1204" y="-396.8" font-family="Helvetica,sans-Serif" font-size="14.00" fill="white">view: Entity</text>
<text text-anchor="start" x="1287" y="-396.8" font-family="Helvetica,sans-Serif" font-size="14.00" fill="white"> </text>
<path fill="none" stroke="white" d="M1210,-387.5C1210,-387.5 1284,-387.5 1284,-387.5 1290,-387.5 1296,-393.5 1296,-399.5 1296,-399.5 1296,-432.5 1296,-432.5 1296,-438.5 1290,-444.5 1284,-444.5 1284,-444.5 1210,-444.5 1210,-444.5 1204,-444.5 1198,-438.5 1198,-432.5 1198,-432.5 1198,-399.5 1198,-399.5 1198,-393.5 1204,-387.5 1210,-387.5"/>
</g>
<!-- _core_3d__core_3dend_main_pass_post_processing -->
<g id="node21" class="node">
<title>_core_3d__core_3dend_main_pass_post_processing</title>
<text text-anchor="start" x="1452.5" y="-438.8" font-family="Helvetica,sans-Serif" font-size="14.00" fill="white">end_main_pass_post_processing</text>
<text text-anchor="start" x="1531.5" y="-428" font-family="Helvetica,sans-Serif" font-size="10.00" fill="red">EmptyNode</text>
<path fill="none" stroke="white" d="M1458.33,-420C1458.33,-420 1659.67,-420 1659.67,-420 1665.33,-420 1671,-425.67 1671,-431.33 1671,-431.33 1671,-442.67 1671,-442.67 1671,-448.33 1665.33,-454 1659.67,-454 1659.67,-454 1458.33,-454 1458.33,-454 1452.67,-454 1447,-448.33 1447,-442.67 1447,-442.67 1447,-431.33 1447,-431.33 1447,-425.67 1452.67,-420 1458.33,-420"/>
</g>
<!-- _core_3d__core_3dfxaa&#45;&gt;_core_3d__core_3dend_main_pass_post_processing -->
<g id="edge35" class="edge">
<title>_core_3d__core_3dfxaa:e&#45;&gt;_core_3d__core_3dend_main_pass_post_processing:w</title>
<path fill="none" stroke="white" d="M1294,-427C1359.12,-427 1377.88,-435.9 1437.75,-436.91"/>
<polygon fill="white" stroke="white" points="1437.46,-440.4 1447.49,-436.99 1437.52,-433.41 1437.46,-440.4"/>
</g>
<!-- _core_3d__core_3dprepass -->
<g id="node16" class="node">
<title>_core_3d__core_3dprepass</title>
<text text-anchor="start" x="405.5" y="-508.8" font-family="Helvetica,sans-Serif" font-size="14.00" fill="white">prepass</text>
<text text-anchor="start" x="400" y="-498" font-family="Helvetica,sans-Serif" font-size="10.00" fill="red">PrepassNode</text>
<polygon fill="none" stroke="white" points="385.5,-470 385.5,-491 467.5,-491 467.5,-470 385.5,-470"/>
<text text-anchor="start" x="388.5" y="-476.8" font-family="Helvetica,sans-Serif" font-size="14.00" fill="white">view: Entity</text>
<text text-anchor="start" x="471.5" y="-476.8" font-family="Helvetica,sans-Serif" font-size="14.00" fill="white"> </text>
<path fill="none" stroke="white" d="M394.5,-467.5C394.5,-467.5 468.5,-467.5 468.5,-467.5 474.5,-467.5 480.5,-473.5 480.5,-479.5 480.5,-479.5 480.5,-512.5 480.5,-512.5 480.5,-518.5 474.5,-524.5 468.5,-524.5 468.5,-524.5 394.5,-524.5 394.5,-524.5 388.5,-524.5 382.5,-518.5 382.5,-512.5 382.5,-512.5 382.5,-479.5 382.5,-479.5 382.5,-473.5 388.5,-467.5 394.5,-467.5"/>
</g>
<!-- _core_3d__core_3dprepass&#45;&gt;_core_3d__core_3dmain_pass -->
<g id="edge22" class="edge">
<title>_core_3d__core_3dprepass:e&#45;&gt;_core_3d__core_3dmain_pass:w</title>
<path fill="none" stroke="white" d="M478.5,-507C515.6,-507 527.59,-507 559.78,-507"/>
<polygon fill="white" stroke="white" points="559.49,-510.5 569.49,-507 559.49,-503.5 559.49,-510.5"/>
</g>
<!-- _core_3d__core_3dtonemapping&#45;&gt;_core_3d__core_3dfxaa -->
<g id="edge25" class="edge">
<title>_core_3d__core_3dtonemapping:e&#45;&gt;_core_3d__core_3dfxaa:w</title>
<path fill="none" stroke="white" d="M1045,-467C1112.26,-467 1127.29,-431.26 1188.83,-427.35"/>
<polygon fill="white" stroke="white" points="1188.6,-430.85 1198.49,-427.05 1188.38,-423.86 1188.6,-430.85"/>
</g>
<!-- _core_3d__core_3dtonemapping&#45;&gt;_core_3d__core_3dend_main_pass_post_processing -->
<g id="edge34" class="edge">
<title>_core_3d__core_3dtonemapping:e&#45;&gt;_core_3d__core_3dend_main_pass_post_processing:w</title>
<path fill="none" stroke="white" d="M1045,-467C1188.17,-467 1225.22,-477.88 1367,-458 1400.18,-453.35 1409.46,-440.32 1437.67,-437.53"/>
<polygon fill="white" stroke="white" points="1437.66,-441.04 1447.49,-437.07 1437.34,-434.04 1437.66,-441.04"/>
</g>
<!-- _core_3d__core_3dupscaling -->
<g id="node18" class="node">
<title>_core_3d__core_3dupscaling</title>
<text text-anchor="start" x="1985" y="-408.8" font-family="Helvetica,sans-Serif" font-size="14.00" fill="white">upscaling</text>
<text text-anchor="start" x="1982" y="-398" font-family="Helvetica,sans-Serif" font-size="10.00" fill="red">UpscalingNode</text>
<polygon fill="none" stroke="white" points="1971,-370 1971,-391 2053,-391 2053,-370 1971,-370"/>
<text text-anchor="start" x="1974" y="-376.8" font-family="Helvetica,sans-Serif" font-size="14.00" fill="white">view: Entity</text>
<text text-anchor="start" x="2057" y="-376.8" font-family="Helvetica,sans-Serif" font-size="14.00" fill="white"> </text>
<path fill="none" stroke="white" d="M1980,-367.5C1980,-367.5 2054,-367.5 2054,-367.5 2060,-367.5 2066,-373.5 2066,-379.5 2066,-379.5 2066,-412.5 2066,-412.5 2066,-418.5 2060,-424.5 2054,-424.5 2054,-424.5 1980,-424.5 1980,-424.5 1974,-424.5 1968,-418.5 1968,-412.5 1968,-412.5 1968,-379.5 1968,-379.5 1968,-373.5 1974,-367.5 1980,-367.5"/>
</g>
<!-- _core_3d__core_3dshadow_pass -->
<g id="node19" class="node">
<title>_core_3d__core_3dshadow_pass</title>
<text text-anchor="start" x="388.5" y="-591.8" font-family="Helvetica,sans-Serif" font-size="14.00" fill="white">shadow_pass</text>
<text text-anchor="start" x="391" y="-581" font-family="Helvetica,sans-Serif" font-size="10.00" fill="red">ShadowPassNode</text>
<polygon fill="none" stroke="white" points="385.5,-553 385.5,-574 467.5,-574 467.5,-553 385.5,-553"/>
<text text-anchor="start" x="388.5" y="-559.8" font-family="Helvetica,sans-Serif" font-size="14.00" fill="white">view: Entity</text>
<text text-anchor="start" x="472" y="-559.8" font-family="Helvetica,sans-Serif" font-size="14.00" fill="white"> </text>
<path fill="none" stroke="white" d="M394,-550.5C394,-550.5 469,-550.5 469,-550.5 475,-550.5 481,-556.5 481,-562.5 481,-562.5 481,-595.5 481,-595.5 481,-601.5 475,-607.5 469,-607.5 469,-607.5 394,-607.5 394,-607.5 388,-607.5 382,-601.5 382,-595.5 382,-595.5 382,-562.5 382,-562.5 382,-556.5 388,-550.5 394,-550.5"/>
</g>
<!-- _core_3d__core_3dshadow_pass&#45;&gt;_core_3d__core_3dmain_pass -->
<g id="edge23" class="edge">
<title>_core_3d__core_3dshadow_pass:e&#45;&gt;_core_3d__core_3dmain_pass:w</title>
<path fill="none" stroke="white" d="M479.5,-590C530.22,-590 518.46,-519.16 559.66,-508.37"/>
<polygon fill="white" stroke="white" points="559.99,-511.86 569.5,-507.18 559.15,-504.91 559.99,-511.86"/>
</g>
<!-- _core_3d__core_3dGraphInputNode -->
<g id="node20" class="node">
<title>_core_3d__core_3dGraphInputNode</title>
<text text-anchor="start" x="106.5" y="-442.8" font-family="Helvetica,sans-Serif" font-size="14.00" fill="white">GraphInputNode</text>
<text text-anchor="start" x="122.5" y="-432" font-family="Helvetica,sans-Serif" font-size="10.00" fill="red">GraphInputNode</text>
<polygon fill="none" stroke="white" points="35,-404 35,-425 162,-425 162,-404 35,-404"/>
<text text-anchor="start" x="38" y="-410.8" font-family="Helvetica,sans-Serif" font-size="14.00" fill="white">view_entity: Entity</text>
<polygon fill="none" stroke="white" points="164,-404 164,-425 291,-425 291,-404 164,-404"/>
<text text-anchor="start" x="167" y="-410.8" font-family="Helvetica,sans-Serif" font-size="14.00" fill="white">view_entity: Entity</text>
<path fill="none" stroke="white" d="M44,-401.5C44,-401.5 282,-401.5 282,-401.5 288,-401.5 294,-407.5 294,-413.5 294,-413.5 294,-446.5 294,-446.5 294,-452.5 288,-458.5 282,-458.5 282,-458.5 44,-458.5 44,-458.5 38,-458.5 32,-452.5 32,-446.5 32,-446.5 32,-413.5 32,-413.5 32,-407.5 38,-401.5 44,-401.5"/>
</g>
<!-- _core_3d__core_3dGraphInputNode&#45;&gt;_core_3d__core_3dbloom -->
<g id="edge19" class="edge">
<title>_core_3d__core_3dGraphInputNode:e&#45;&gt;_core_3d__core_3dbloom:w</title>
<path fill="none" stroke="#a79be6" d="M292,-414C496.02,-414 549.17,-439.04 747.59,-439.97"/>
<polygon fill="#a79be6" stroke="#a79be6" points="747.48,-443.47 757.49,-440 747.49,-436.47 747.48,-443.47"/>
</g>
<!-- _core_3d__core_3dGraphInputNode&#45;&gt;_core_3d__core_3dmain_pass -->
<g id="edge21" class="edge">
<title>_core_3d__core_3dGraphInputNode:e&#45;&gt;_core_3d__core_3dmain_pass:w</title>
<path fill="none" stroke="#a79be6" d="M292,-414C303.59,-414 485.3,-452.01 496.5,-455 526.29,-462.95 534.32,-476.35 559.83,-479.38"/>
<polygon fill="#a79be6" stroke="#a79be6" points="559.31,-482.85 569.49,-479.92 559.7,-475.87 559.31,-482.85"/>
</g>
<!-- _core_3d__core_3dGraphInputNode&#45;&gt;_core_3d__core_3dfxaa -->
<g id="edge24" class="edge">
<title>_core_3d__core_3dGraphInputNode:e&#45;&gt;_core_3d__core_3dfxaa:w</title>
<path fill="none" stroke="#a79be6" d="M292,-414C328.62,-414 337.54,-409.43 374,-406 481.97,-395.85 508.56,-384 617,-384 617,-384 617,-384 807,-384 978.06,-384 1023.26,-399.32 1188.91,-399.98"/>
<polygon fill="#a79be6" stroke="#a79be6" points="1188.48,-403.48 1198.49,-400 1188.49,-396.48 1188.48,-403.48"/>
</g>
<!-- _core_3d__core_3dGraphInputNode&#45;&gt;_core_3d__core_3dprepass -->
<g id="edge26" class="edge">
<title>_core_3d__core_3dGraphInputNode:e&#45;&gt;_core_3d__core_3dprepass:w</title>
<path fill="none" stroke="#a79be6" d="M292,-414C338.36,-414 335,-469.62 373.2,-478.74"/>
<polygon fill="#a79be6" stroke="#a79be6" points="372.67,-482.2 383,-479.83 373.44,-475.25 372.67,-482.2"/>
</g>
<!-- _core_3d__core_3dGraphInputNode&#45;&gt;_core_3d__core_3dtonemapping -->
<g id="edge27" class="edge">
<title>_core_3d__core_3dGraphInputNode:e&#45;&gt;_core_3d__core_3dtonemapping:w</title>
<path fill="none" stroke="#a79be6" d="M292,-414C328.47,-414 337.54,-411.67 374,-411 515.68,-408.41 852.91,-413.13 865,-415 898.53,-420.18 907.16,-435.96 935.56,-439.35"/>
<polygon fill="#a79be6" stroke="#a79be6" points="935.31,-442.85 945.49,-439.91 935.7,-435.86 935.31,-442.85"/>
</g>
<!-- _core_3d__core_3dGraphInputNode&#45;&gt;_core_3d__core_3dupscaling -->
<g id="edge30" class="edge">
<title>_core_3d__core_3dGraphInputNode:e&#45;&gt;_core_3d__core_3dupscaling:w</title>
<path fill="none" stroke="#a79be6" d="M292,-414C334.92,-414 333.22,-376.39 374,-363 476.92,-329.21 508.67,-344 617,-344 617,-344 617,-344 1560,-344 1705.86,-344 1744.11,-331.08 1888,-355 1921.47,-360.56 1930.14,-376.05 1958.56,-379.37"/>
<polygon fill="#a79be6" stroke="#a79be6" points="1958.31,-382.86 1968.49,-379.92 1958.7,-375.87 1958.31,-382.86"/>
</g>
<!-- _core_3d__core_3dGraphInputNode&#45;&gt;_core_3d__core_3dshadow_pass -->
<g id="edge33" class="edge">
<title>_core_3d__core_3dGraphInputNode:e&#45;&gt;_core_3d__core_3dshadow_pass:w</title>
<path fill="none" stroke="#a79be6" d="M292,-414C365.84,-414 312.85,-547.7 373.31,-561.8"/>
<polygon fill="#a79be6" stroke="#a79be6" points="372.68,-565.25 383,-562.84 373.42,-558.29 372.68,-565.25"/>
</g>
<!-- _core_3d__core_3dGraphInputNode&#45;&gt;_core_3d__core_3dui_pass -->
<g id="edge38" class="edge">
<title>_core_3d__core_3dGraphInputNode:e&#45;&gt;_core_3d__core_3dui_pass:w</title>
<path fill="none" stroke="#a79be6" d="M292,-414C330.37,-414 336.44,-394.86 374,-387 480.18,-364.79 508.52,-364 617,-364 617,-364 617,-364 1248,-364 1472.54,-364 1531.23,-379.47 1750.27,-379.99"/>
<polygon fill="#a79be6" stroke="#a79be6" points="1749.98,-383.49 1759.99,-380 1749.99,-376.49 1749.98,-383.49"/>
</g>
<!-- _core_3d__core_3dend_main_pass_post_processing&#45;&gt;_core_3d__core_3dupscaling -->
<g id="edge31" class="edge">
<title>_core_3d__core_3dend_main_pass_post_processing:e&#45;&gt;_core_3d__core_3dupscaling:w</title>
<path fill="none" stroke="white" d="M1669,-437C1766.33,-437 1792.25,-455.49 1888,-438 1922.28,-431.74 1929.67,-411.87 1958.74,-407.75"/>
<polygon fill="white" stroke="white" points="1958.75,-411.26 1968.49,-407.1 1958.28,-404.28 1958.75,-411.26"/>
</g>
<!-- _core_3d__core_3dend_main_pass_post_processing&#45;&gt;_core_3d__core_3dui_pass -->
<g id="edge37" class="edge">
<title>_core_3d__core_3dend_main_pass_post_processing:e&#45;&gt;_core_3d__core_3dui_pass:w</title>
<path fill="none" stroke="white" d="M1669,-437C1708.17,-437 1716.82,-412.36 1750.26,-407.74"/>
<polygon fill="white" stroke="white" points="1750.24,-411.25 1759.99,-407.1 1749.78,-404.27 1750.24,-411.25"/>
</g>
<!-- _core_3d__core_3dui_pass&#45;&gt;_core_3d__core_3dupscaling -->
<g id="edge32" class="edge">
<title>_core_3d__core_3dui_pass:e&#45;&gt;_core_3d__core_3dupscaling:w</title>
<path fill="none" stroke="white" d="M1878.5,-407C1915.04,-407 1926.95,-407 1958.49,-407"/>
<polygon fill="white" stroke="white" points="1958.49,-410.5 1968.49,-407 1958.49,-403.5 1958.49,-410.5"/>
</g>
<!-- _camera_driver -->
<g id="node23" class="node">
<title>_camera_driver</title>
<text text-anchor="start" x="116" y="-787.8" font-family="Helvetica,sans-Serif" font-size="14.00" fill="white">camera_driver</text>
<text text-anchor="start" x="117" y="-777" font-family="Helvetica,sans-Serif" font-size="10.00" fill="red">CameraDriverNode</text>
<path fill="none" stroke="white" d="M122.33,-769C122.33,-769 203.67,-769 203.67,-769 209.33,-769 215,-774.67 215,-780.33 215,-780.33 215,-791.67 215,-791.67 215,-797.33 209.33,-803 203.67,-803 203.67,-803 122.33,-803 122.33,-803 116.67,-803 111,-797.33 111,-791.67 111,-791.67 111,-780.33 111,-780.33 111,-774.67 116.67,-769 122.33,-769"/>
</g>
</g>
</svg>
