<?xml version="1.0" encoding="UTF-8" standalone="no"?>
<!DOCTYPE svg PUBLIC "-//W3C//DTD SVG 1.1//EN"
 "http://www.w3.org/Graphics/SVG/1.1/DTD/svg11.dtd">
<!-- Generated by graphviz version 9.0.0 (0)
 -->
<!-- Title: RenderGraph Pages: 1 -->
<svg width="4915pt" height="453pt"
 viewBox="0.00 0.00 4915.00 453.00" xmlns="http://www.w3.org/2000/svg" xmlns:xlink="http://www.w3.org/1999/xlink">
<g id="graph0" class="graph" transform="scale(1 1) rotate(0) translate(4 449)">
<title>RenderGraph</title>
<polygon fill="#0d1117" stroke="none" points="-4,4 -4,-449 4911,-449 4911,4 -4,4"/>
<g id="clust1" class="cluster">
<title>cluster_Core2d</title>
<path fill="#343a42" stroke="#343a42" d="M49.25,-8C49.25,-8 2792.62,-8 2792.62,-8 2798.62,-8 2804.62,-14 2804.62,-20 2804.62,-20 2804.62,-172 2804.62,-172 2804.62,-178 2798.62,-184 2792.62,-184 2792.62,-184 49.25,-184 49.25,-184 43.25,-184 37.25,-178 37.25,-172 37.25,-172 37.25,-20 37.25,-20 37.25,-14 43.25,-8 49.25,-8"/>
<text text-anchor="middle" x="1420.94" y="-166.7" font-family="Times,serif" font-size="14.00" fill="white">Core2d</text>
</g>
<g id="clust2" class="cluster">
<title>cluster_Core2d_SubGraphUi</title>
<path fill="#6f90ad" stroke="#6f90ad" d="M72.25,-68C72.25,-68 152,-68 152,-68 158,-68 164,-74 164,-80 164,-80 164,-139 164,-139 164,-145 158,-151 152,-151 152,-151 72.25,-151 72.25,-151 66.25,-151 60.25,-145 60.25,-139 60.25,-139 60.25,-80 60.25,-80 60.25,-74 66.25,-68 72.25,-68"/>
<text text-anchor="middle" x="112.12" y="-133.7" font-family="Times,serif" font-size="14.00">SubGraphUi</text>
</g>
<g id="clust3" class="cluster">
<title>cluster_Core3d</title>
<path fill="#343a42" stroke="#343a42" d="M20,-192C20,-192 4887,-192 4887,-192 4893,-192 4899,-198 4899,-204 4899,-204 4899,-383 4899,-383 4899,-389 4893,-395 4887,-395 4887,-395 20,-395 20,-395 14,-395 8,-389 8,-383 8,-383 8,-204 8,-204 8,-198 14,-192 20,-192"/>
<text text-anchor="middle" x="2453.5" y="-377.7" font-family="Times,serif" font-size="14.00" fill="white">Core3d</text>
</g>
<g id="clust4" class="cluster">
<title>cluster_Core3d_SubGraphUi</title>
<path fill="#6f90ad" stroke="#6f90ad" d="M72.25,-265C72.25,-265 152,-265 152,-265 158,-265 164,-271 164,-277 164,-277 164,-336 164,-336 164,-342 158,-348 152,-348 152,-348 72.25,-348 72.25,-348 66.25,-348 60.25,-342 60.25,-336 60.25,-336 60.25,-277 60.25,-277 60.25,-271 66.25,-265 72.25,-265"/>
<text text-anchor="middle" x="112.12" y="-330.7" font-family="Times,serif" font-size="14.00">SubGraphUi</text>
</g>
<!-- _Core2d_SubGraphUi__Core2d_SubGraphUiUiPass -->
<g id="node1" class="node">
<title>_Core2d_SubGraphUi__Core2d_SubGraphUiUiPass</title>
<text text-anchor="start" x="89.12" y="-96.7" font-family="Helvetica,sans-Serif" font-size="14.00" fill="white">UiPass</text>
<text text-anchor="start" x="82.75" y="-86.5" font-family="Helvetica,sans-Serif" font-size="10.00" fill="red">UiPassNode</text>
<path fill="none" stroke="white" d="M88.58,-80C88.58,-80 134.67,-80 134.67,-80 140.33,-80 146,-85.67 146,-91.33 146,-91.33 146,-102.67 146,-102.67 146,-108.33 140.33,-114 134.67,-114 134.67,-114 88.58,-114 88.58,-114 82.92,-114 77.25,-108.33 77.25,-102.67 77.25,-102.67 77.25,-91.33 77.25,-91.33 77.25,-85.67 82.92,-80 88.58,-80"/>
</g>
<!-- _Core2d__Core2dConstrastAdaptiveSharpening -->
<g id="node2" class="node">
<title>_Core2d__Core2dConstrastAdaptiveSharpening</title>
<text text-anchor="start" x="1558.75" y="-113.7" font-family="Helvetica,sans-Serif" font-size="14.00" fill="white">ConstrastAdaptiveSharpening</text>
<text text-anchor="start" x="1640.12" y="-103.5" font-family="Helvetica,sans-Serif" font-size="10.00" fill="red">CASNode</text>
<path fill="none" stroke="white" d="M1564.58,-97C1564.58,-97 1760.67,-97 1760.67,-97 1766.33,-97 1772,-102.67 1772,-108.33 1772,-108.33 1772,-119.67 1772,-119.67 1772,-125.33 1766.33,-131 1760.67,-131 1760.67,-131 1564.58,-131 1564.58,-131 1558.92,-131 1553.25,-125.33 1553.25,-119.67 1553.25,-119.67 1553.25,-108.33 1553.25,-108.33 1553.25,-102.67 1558.92,-97 1564.58,-97"/>
</g>
<!-- _Core2d__Core2dEndMainPassPostProcessing -->
<g id="node5" class="node">
<title>_Core2d__Core2dEndMainPassPostProcessing</title>
<text text-anchor="start" x="1922.5" y="-73.7" font-family="Helvetica,sans-Serif" font-size="14.00" fill="white">EndMainPassPostProcessing</text>
<text text-anchor="start" x="1991.12" y="-63.5" font-family="Helvetica,sans-Serif" font-size="10.00" fill="red">EmptyNode</text>
<path fill="none" stroke="white" d="M1928.33,-57C1928.33,-57 2110.92,-57 2110.92,-57 2116.58,-57 2122.25,-62.67 2122.25,-68.33 2122.25,-68.33 2122.25,-79.67 2122.25,-79.67 2122.25,-85.33 2116.58,-91 2110.92,-91 2110.92,-91 1928.33,-91 1928.33,-91 1922.67,-91 1917,-85.33 1917,-79.67 1917,-79.67 1917,-68.33 1917,-68.33 1917,-62.67 1922.67,-57 1928.33,-57"/>
</g>
<!-- _Core2d__Core2dConstrastAdaptiveSharpening&#45;&gt;_Core2d__Core2dEndMainPassPostProcessing -->
<g id="edge6" class="edge">
<title>_Core2d__Core2dConstrastAdaptiveSharpening:e&#45;&gt;_Core2d__Core2dEndMainPassPostProcessing:w</title>
<path fill="none" stroke="white" d="M1769.62,-114C1834.17,-114 1848.47,-78.55 1907.13,-74.4"/>
<polygon fill="white" stroke="white" points="1907.24,-77.89 1917.11,-74.05 1907,-70.9 1907.24,-77.89"/>
</g>
<!-- _Core2d__Core2dMainPass -->
<g id="node3" class="node">
<title>_Core2d__Core2dMainPass</title>
<text text-anchor="start" x="382.75" y="-46.7" font-family="Helvetica,sans-Serif" font-size="14.00" fill="white">MainPass</text>
<text text-anchor="start" x="373" y="-36.5" font-family="Helvetica,sans-Serif" font-size="10.00" fill="red">MainPass2dNode</text>
<path fill="none" stroke="white" d="M378.83,-30C378.83,-30 450.42,-30 450.42,-30 456.08,-30 461.75,-35.67 461.75,-41.33 461.75,-41.33 461.75,-52.67 461.75,-52.67 461.75,-58.33 456.08,-64 450.42,-64 450.42,-64 378.83,-64 378.83,-64 373.17,-64 367.5,-58.33 367.5,-52.67 367.5,-52.67 367.5,-41.33 367.5,-41.33 367.5,-35.67 373.17,-30 378.83,-30"/>
</g>
<!-- _Core2d__Core2dUiPass -->
<g id="node6" class="node">
<title>_Core2d__Core2dUiPass</title>
<text text-anchor="start" x="2330.5" y="-36.7" font-family="Helvetica,sans-Serif" font-size="14.00" fill="white">UiPass</text>
<text text-anchor="start" x="2297.5" y="-26.5" font-family="Helvetica,sans-Serif" font-size="10.00" fill="red">RunGraphOnViewNode</text>
<path fill="none" stroke="white" d="M2303.33,-20C2303.33,-20 2402.67,-20 2402.67,-20 2408.33,-20 2414,-25.67 2414,-31.33 2414,-31.33 2414,-42.67 2414,-42.67 2414,-48.33 2408.33,-54 2402.67,-54 2402.67,-54 2303.33,-54 2303.33,-54 2297.67,-54 2292,-48.33 2292,-42.67 2292,-42.67 2292,-31.33 2292,-31.33 2292,-25.67 2297.67,-20 2303.33,-20"/>
</g>
<!-- _Core2d__Core2dMainPass&#45;&gt;_Core2d__Core2dUiPass -->
<g id="edge7" class="edge">
<title>_Core2d__Core2dMainPass:e&#45;&gt;_Core2d__Core2dUiPass:w</title>
<path fill="none" stroke="white" d="M459.62,-47C532.23,-47 549.55,-33.81 622,-29 821,-15.78 871.19,-19 1070.62,-19 1070.62,-19 1070.62,-19 1663.62,-19 1940.07,-19 2011.77,-36.51 2282.62,-36.99"/>
<polygon fill="white" stroke="white" points="2282.48,-40.49 2292.49,-37 2282.49,-33.49 2282.48,-40.49"/>
</g>
<!-- _Core2d__Core2dBloom -->
<g id="node7" class="node">
<title>_Core2d__Core2dBloom</title>
<text text-anchor="start" x="734.5" y="-58.7" font-family="Helvetica,sans-Serif" font-size="14.00" fill="white">Bloom</text>
<text text-anchor="start" x="677.5" y="-48.5" font-family="Helvetica,sans-Serif" font-size="10.00" fill="red">ViewNodeRunner&lt;BloomNode&gt;</text>
<path fill="none" stroke="white" d="M683.33,-42C683.33,-42 829.17,-42 829.17,-42 834.83,-42 840.5,-47.67 840.5,-53.33 840.5,-53.33 840.5,-64.67 840.5,-64.67 840.5,-70.33 834.83,-76 829.17,-76 829.17,-76 683.33,-76 683.33,-76 677.67,-76 672,-70.33 672,-64.67 672,-64.67 672,-53.33 672,-53.33 672,-47.67 677.67,-42 683.33,-42"/>
</g>
<!-- _Core2d__Core2dMainPass&#45;&gt;_Core2d__Core2dBloom -->
<g id="edge9" class="edge">
<title>_Core2d__Core2dMainPass:e&#45;&gt;_Core2d__Core2dBloom:w</title>
<path fill="none" stroke="white" d="M459.62,-47C551.24,-47 576.66,-58.04 662.85,-58.94"/>
<polygon fill="white" stroke="white" points="662.72,-62.44 672.74,-58.99 662.75,-55.44 662.72,-62.44"/>
</g>
<!-- _Core2d__Core2dTonemapping -->
<g id="node9" class="node">
<title>_Core2d__Core2dTonemapping</title>
<text text-anchor="start" x="1025.12" y="-88.7" font-family="Helvetica,sans-Serif" font-size="14.00" fill="white">Tonemapping</text>
<text text-anchor="start" x="976" y="-78.5" font-family="Helvetica,sans-Serif" font-size="10.00" fill="red">ViewNodeRunner&lt;TonemappingNode&gt;</text>
<path fill="none" stroke="white" d="M981.83,-72C981.83,-72 1161.42,-72 1161.42,-72 1167.08,-72 1172.75,-77.67 1172.75,-83.33 1172.75,-83.33 1172.75,-94.67 1172.75,-94.67 1172.75,-100.33 1167.08,-106 1161.42,-106 1161.42,-106 981.83,-106 981.83,-106 976.17,-106 970.5,-100.33 970.5,-94.67 970.5,-94.67 970.5,-83.33 970.5,-83.33 970.5,-77.67 976.17,-72 981.83,-72"/>
</g>
<!-- _Core2d__Core2dMainPass&#45;&gt;_Core2d__Core2dTonemapping -->
<g id="edge11" class="edge">
<title>_Core2d__Core2dMainPass:e&#45;&gt;_Core2d__Core2dTonemapping:w</title>
<path fill="none" stroke="white" d="M459.62,-47C534.17,-47 548.05,-79.59 622,-89 772.81,-108.19 814.76,-89.94 961.41,-89.03"/>
<polygon fill="white" stroke="white" points="961.12,-92.54 971.11,-89 961.1,-85.54 961.12,-92.54"/>
</g>
<!-- _Core2d__Core2dMsaaWriteback -->
<g id="node4" class="node">
<title>_Core2d__Core2dMsaaWriteback</title>
<text text-anchor="start" x="58.75" y="-36.7" font-family="Helvetica,sans-Serif" font-size="14.00" fill="white">MsaaWriteback</text>
<text text-anchor="start" x="61" y="-26.5" font-family="Helvetica,sans-Serif" font-size="10.00" fill="red">MsaaWritebackNode</text>
<path fill="none" stroke="white" d="M64.58,-20C64.58,-20 158.67,-20 158.67,-20 164.33,-20 170,-25.67 170,-31.33 170,-31.33 170,-42.67 170,-42.67 170,-48.33 164.33,-54 158.67,-54 158.67,-54 64.58,-54 64.58,-54 58.92,-54 53.25,-48.33 53.25,-42.67 53.25,-42.67 53.25,-31.33 53.25,-31.33 53.25,-25.67 58.92,-20 64.58,-20"/>
</g>
<!-- _Core2d__Core2dMsaaWriteback&#45;&gt;_Core2d__Core2dMainPass -->
<g id="edge3" class="edge">
<title>_Core2d__Core2dMsaaWriteback:e&#45;&gt;_Core2d__Core2dMainPass:w</title>
<path fill="none" stroke="white" d="M167.62,-37C253.65,-37 277.7,-46.16 358.4,-46.95"/>
<polygon fill="white" stroke="white" points="358.09,-50.44 368.11,-46.99 358.13,-43.44 358.09,-50.44"/>
</g>
<!-- _Core2d__Core2dEndMainPassPostProcessing&#45;&gt;_Core2d__Core2dUiPass -->
<g id="edge8" class="edge">
<title>_Core2d__Core2dEndMainPassPostProcessing:e&#45;&gt;_Core2d__Core2dUiPass:w</title>
<path fill="none" stroke="white" d="M2120.62,-74C2195.57,-74 2213.52,-40.53 2282.89,-37.26"/>
<polygon fill="white" stroke="white" points="2282.57,-40.76 2292.49,-37.03 2282.41,-33.77 2282.57,-40.76"/>
</g>
<!-- _Core2d__Core2dUpscaling -->
<g id="node10" class="node">
<title>_Core2d__Core2dUpscaling</title>
<text text-anchor="start" x="2662" y="-56.7" font-family="Helvetica,sans-Serif" font-size="14.00" fill="white">Upscaling</text>
<text text-anchor="start" x="2609.12" y="-46.5" font-family="Helvetica,sans-Serif" font-size="10.00" fill="red">ViewNodeRunner&lt;UpscalingNode&gt;</text>
<path fill="none" stroke="white" d="M2614.96,-40C2614.96,-40 2777.29,-40 2777.29,-40 2782.96,-40 2788.62,-45.67 2788.62,-51.33 2788.62,-51.33 2788.62,-62.67 2788.62,-62.67 2788.62,-68.33 2782.96,-74 2777.29,-74 2777.29,-74 2614.96,-74 2614.96,-74 2609.29,-74 2603.62,-68.33 2603.62,-62.67 2603.62,-62.67 2603.62,-51.33 2603.62,-51.33 2603.62,-45.67 2609.29,-40 2614.96,-40"/>
</g>
<!-- _Core2d__Core2dEndMainPassPostProcessing&#45;&gt;_Core2d__Core2dUpscaling -->
<g id="edge13" class="edge">
<title>_Core2d__Core2dEndMainPassPostProcessing:e&#45;&gt;_Core2d__Core2dUpscaling:w</title>
<path fill="none" stroke="white" d="M2120.62,-74C2284.93,-74 2326.17,-75.69 2490.25,-67 2537.43,-64.5 2551.69,-58.11 2593.79,-57.13"/>
<polygon fill="white" stroke="white" points="2593.65,-60.63 2603.61,-57.02 2593.57,-53.63 2593.65,-60.63"/>
</g>
<!-- _Core2d__Core2dUiPass&#45;&gt;_Core2d__Core2dUpscaling -->
<g id="edge14" class="edge">
<title>_Core2d__Core2dUiPass:e&#45;&gt;_Core2d__Core2dUpscaling:w</title>
<path fill="none" stroke="white" d="M2412,-37C2494.42,-37 2516.85,-55.24 2593.88,-56.88"/>
<polygon fill="white" stroke="white" points="2593.58,-60.38 2603.61,-56.98 2593.65,-53.38 2593.58,-60.38"/>
</g>
<!-- _Core2d__Core2dBloom&#45;&gt;_Core2d__Core2dTonemapping -->
<g id="edge12" class="edge">
<title>_Core2d__Core2dBloom:e&#45;&gt;_Core2d__Core2dTonemapping:w</title>
<path fill="none" stroke="white" d="M838.25,-59C895.5,-59 909.68,-85.26 961.38,-88.64"/>
<polygon fill="white" stroke="white" points="961.01,-92.13 971.11,-88.95 961.23,-85.14 961.01,-92.13"/>
</g>
<!-- _Core2d__Core2dFxaa -->
<g id="node8" class="node">
<title>_Core2d__Core2dFxaa</title>
<text text-anchor="start" x="1324.75" y="-88.7" font-family="Helvetica,sans-Serif" font-size="14.00" fill="white">Fxaa</text>
<text text-anchor="start" x="1266.25" y="-78.5" font-family="Helvetica,sans-Serif" font-size="10.00" fill="red">ViewNodeRunner&lt;FxaaNode&gt;</text>
<path fill="none" stroke="white" d="M1272.08,-72C1272.08,-72 1410.42,-72 1410.42,-72 1416.08,-72 1421.75,-77.67 1421.75,-83.33 1421.75,-83.33 1421.75,-94.67 1421.75,-94.67 1421.75,-100.33 1416.08,-106 1410.42,-106 1410.42,-106 1272.08,-106 1272.08,-106 1266.42,-106 1260.75,-100.33 1260.75,-94.67 1260.75,-94.67 1260.75,-83.33 1260.75,-83.33 1260.75,-77.67 1266.42,-72 1272.08,-72"/>
</g>
<!-- _Core2d__Core2dFxaa&#45;&gt;_Core2d__Core2dConstrastAdaptiveSharpening -->
<g id="edge2" class="edge">
<title>_Core2d__Core2dFxaa:e&#45;&gt;_Core2d__Core2dConstrastAdaptiveSharpening:w</title>
<path fill="none" stroke="white" d="M1420.25,-89C1477.49,-89 1492.56,-110.88 1544.37,-113.7"/>
<polygon fill="white" stroke="white" points="1544.02,-117.19 1554.11,-113.96 1544.21,-110.2 1544.02,-117.19"/>
</g>
<!-- _Core2d__Core2dFxaa&#45;&gt;_Core2d__Core2dEndMainPassPostProcessing -->
<g id="edge5" class="edge">
<title>_Core2d__Core2dFxaa:e&#45;&gt;_Core2d__Core2dEndMainPassPostProcessing:w</title>
<path fill="none" stroke="white" d="M1420.25,-89C1456.54,-89 1465.49,-85.55 1501.75,-84 1683.03,-76.27 1731.29,-74.09 1907.13,-74"/>
<polygon fill="white" stroke="white" points="1907.11,-77.5 1917.11,-74 1907.11,-70.5 1907.11,-77.5"/>
</g>
<!-- _Core2d__Core2dTonemapping&#45;&gt;_Core2d__Core2dConstrastAdaptiveSharpening -->
<g id="edge1" class="edge">
<title>_Core2d__Core2dTonemapping:e&#45;&gt;_Core2d__Core2dConstrastAdaptiveSharpening:w</title>
<path fill="none" stroke="white" d="M1170.62,-89C1209.48,-89 1214.49,-112.23 1252.75,-119 1381.57,-141.79 1418.9,-115.57 1544.42,-114.07"/>
<polygon fill="white" stroke="white" points="1544.13,-117.57 1554.11,-114.01 1544.09,-110.57 1544.13,-117.57"/>
</g>
<!-- _Core2d__Core2dTonemapping&#45;&gt;_Core2d__Core2dEndMainPassPostProcessing -->
<g id="edge4" class="edge">
<title>_Core2d__Core2dTonemapping:e&#45;&gt;_Core2d__Core2dEndMainPassPostProcessing:w</title>
<path fill="none" stroke="white" d="M1170.62,-89C1209.48,-89 1214.49,-65.77 1252.75,-59 1330.21,-45.29 1351.09,-57.9 1429.75,-59 1604.8,-61.44 1648.54,-63.88 1823.5,-70 1861.82,-71.34 1874.06,-73.54 1907.51,-73.94"/>
<polygon fill="white" stroke="white" points="1907.09,-77.43 1917.11,-73.99 1907.13,-70.43 1907.09,-77.43"/>
</g>
<!-- _Core2d__Core2dTonemapping&#45;&gt;_Core2d__Core2dFxaa -->
<g id="edge10" class="edge">
<title>_Core2d__Core2dTonemapping:e&#45;&gt;_Core2d__Core2dFxaa:w</title>
<path fill="none" stroke="white" d="M1170.62,-89C1207.37,-89 1219.25,-89 1251.14,-89"/>
<polygon fill="white" stroke="white" points="1250.74,-92.5 1260.74,-89 1250.74,-85.5 1250.74,-92.5"/>
</g>
<!-- _Core3d_SubGraphUi__Core3d_SubGraphUiUiPass -->
<g id="node11" class="node">
<title>_Core3d_SubGraphUi__Core3d_SubGraphUiUiPass</title>
<text text-anchor="start" x="89.12" y="-293.7" font-family="Helvetica,sans-Serif" font-size="14.00" fill="white">UiPass</text>
<text text-anchor="start" x="82.75" y="-283.5" font-family="Helvetica,sans-Serif" font-size="10.00" fill="red">UiPassNode</text>
<path fill="none" stroke="white" d="M88.58,-277C88.58,-277 134.67,-277 134.67,-277 140.33,-277 146,-282.67 146,-288.33 146,-288.33 146,-299.67 146,-299.67 146,-305.33 140.33,-311 134.67,-311 134.67,-311 88.58,-311 88.58,-311 82.92,-311 77.25,-305.33 77.25,-299.67 77.25,-299.67 77.25,-288.33 77.25,-288.33 77.25,-282.67 82.92,-277 88.58,-277"/>
</g>
<!-- _Core3d__Core3dContrastAdaptiveSharpening -->
<g id="node12" class="node">
<title>_Core3d__Core3dContrastAdaptiveSharpening</title>
<text text-anchor="start" x="3901" y="-300.7" font-family="Helvetica,sans-Serif" font-size="14.00" fill="white">ContrastAdaptiveSharpening</text>
<text text-anchor="start" x="3978.62" y="-290.5" font-family="Helvetica,sans-Serif" font-size="10.00" fill="red">CASNode</text>
<path fill="none" stroke="white" d="M3906.83,-284C3906.83,-284 4095.42,-284 4095.42,-284 4101.08,-284 4106.75,-289.67 4106.75,-295.33 4106.75,-295.33 4106.75,-306.67 4106.75,-306.67 4106.75,-312.33 4101.08,-318 4095.42,-318 4095.42,-318 3906.83,-318 3906.83,-318 3901.17,-318 3895.5,-312.33 3895.5,-306.67 3895.5,-306.67 3895.5,-295.33 3895.5,-295.33 3895.5,-289.67 3901.17,-284 3906.83,-284"/>
</g>
<!-- _Core3d__Core3dEndMainPassPostProcessing -->
<g id="node16" class="node">
<title>_Core3d__Core3dEndMainPassPostProcessing</title>
<text text-anchor="start" x="4200.25" y="-260.7" font-family="Helvetica,sans-Serif" font-size="14.00" fill="white">EndMainPassPostProcessing</text>
<text text-anchor="start" x="4268.88" y="-250.5" font-family="Helvetica,sans-Serif" font-size="10.00" fill="red">EmptyNode</text>
<path fill="none" stroke="white" d="M4206.08,-244C4206.08,-244 4388.67,-244 4388.67,-244 4394.33,-244 4400,-249.67 4400,-255.33 4400,-255.33 4400,-266.67 4400,-266.67 4400,-272.33 4394.33,-278 4388.67,-278 4388.67,-278 4206.08,-278 4206.08,-278 4200.42,-278 4194.75,-272.33 4194.75,-266.67 4194.75,-266.67 4194.75,-255.33 4194.75,-255.33 4194.75,-249.67 4200.42,-244 4206.08,-244"/>
</g>
<!-- _Core3d__Core3dContrastAdaptiveSharpening&#45;&gt;_Core3d__Core3dEndMainPassPostProcessing -->
<g id="edge20" class="edge">
<title>_Core3d__Core3dContrastAdaptiveSharpening:e&#45;&gt;_Core3d__Core3dEndMainPassPostProcessing:w</title>
<path fill="none" stroke="white" d="M4105.12,-301C4145.25,-301 4151.22,-268.15 4184.95,-261.99"/>
<polygon fill="white" stroke="white" points="4185.21,-265.48 4194.87,-261.13 4184.6,-258.51 4185.21,-265.48"/>
</g>
<!-- _Core3d__Core3dMsaaWriteback -->
<g id="node13" class="node">
<title>_Core3d__Core3dMsaaWriteback</title>
<text text-anchor="start" x="1018.75" y="-340.7" font-family="Helvetica,sans-Serif" font-size="14.00" fill="white">MsaaWriteback</text>
<text text-anchor="start" x="1021" y="-330.5" font-family="Helvetica,sans-Serif" font-size="10.00" fill="red">MsaaWritebackNode</text>
<path fill="none" stroke="white" d="M1024.58,-324C1024.58,-324 1118.67,-324 1118.67,-324 1124.33,-324 1130,-329.67 1130,-335.33 1130,-335.33 1130,-346.67 1130,-346.67 1130,-352.33 1124.33,-358 1118.67,-358 1118.67,-358 1024.58,-358 1024.58,-358 1018.92,-358 1013.25,-352.33 1013.25,-346.67 1013.25,-346.67 1013.25,-335.33 1013.25,-335.33 1013.25,-329.67 1018.92,-324 1024.58,-324"/>
</g>
<!-- _Core3d__Core3dStartMainPass -->
<g id="node18" class="node">
<title>_Core3d__Core3dStartMainPass</title>
<text text-anchor="start" x="1292.5" y="-280.7" font-family="Helvetica,sans-Serif" font-size="14.00" fill="white">StartMainPass</text>
<text text-anchor="start" x="1312.75" y="-270.5" font-family="Helvetica,sans-Serif" font-size="10.00" fill="red">EmptyNode</text>
<path fill="none" stroke="white" d="M1298.33,-264C1298.33,-264 1384.17,-264 1384.17,-264 1389.83,-264 1395.5,-269.67 1395.5,-275.33 1395.5,-275.33 1395.5,-286.67 1395.5,-286.67 1395.5,-292.33 1389.83,-298 1384.17,-298 1384.17,-298 1298.33,-298 1298.33,-298 1292.67,-298 1287,-292.33 1287,-286.67 1287,-286.67 1287,-275.33 1287,-275.33 1287,-269.67 1292.67,-264 1298.33,-264"/>
</g>
<!-- _Core3d__Core3dMsaaWriteback&#45;&gt;_Core3d__Core3dStartMainPass -->
<g id="edge23" class="edge">
<title>_Core3d__Core3dMsaaWriteback:e&#45;&gt;_Core3d__Core3dStartMainPass:w</title>
<path fill="none" stroke="white" d="M1127.62,-341C1200.36,-341 1211.6,-286.94 1278.09,-281.45"/>
<polygon fill="white" stroke="white" points="1277.89,-284.96 1287.74,-281.06 1277.61,-277.97 1277.89,-284.96"/>
</g>
<!-- _Core3d__Core3dShadowPass -->
<g id="node14" class="node">
<title>_Core3d__Core3dShadowPass</title>
<text text-anchor="start" x="1028.88" y="-280.7" font-family="Helvetica,sans-Serif" font-size="14.00" fill="white">ShadowPass</text>
<text text-anchor="start" x="1028.88" y="-270.5" font-family="Helvetica,sans-Serif" font-size="10.00" fill="red">ShadowPassNode</text>
<path fill="none" stroke="white" d="M1034.71,-264C1034.71,-264 1108.54,-264 1108.54,-264 1114.21,-264 1119.88,-269.67 1119.88,-275.33 1119.88,-275.33 1119.88,-286.67 1119.88,-286.67 1119.88,-292.33 1114.21,-298 1108.54,-298 1108.54,-298 1034.71,-298 1034.71,-298 1029.04,-298 1023.38,-292.33 1023.38,-286.67 1023.38,-286.67 1023.38,-275.33 1023.38,-275.33 1023.38,-269.67 1029.04,-264 1034.71,-264"/>
</g>
<!-- _Core3d__Core3dShadowPass&#45;&gt;_Core3d__Core3dStartMainPass -->
<g id="edge24" class="edge">
<title>_Core3d__Core3dShadowPass:e&#45;&gt;_Core3d__Core3dStartMainPass:w</title>
<path fill="none" stroke="white" d="M1117.62,-281C1190.03,-281 1210.89,-281 1278.06,-281"/>
<polygon fill="white" stroke="white" points="1277.74,-284.5 1287.74,-281 1277.74,-277.5 1277.74,-284.5"/>
</g>
<!-- _Core3d__Core3dEndMainPass -->
<g id="node15" class="node">
<title>_Core3d__Core3dEndMainPass</title>
<text text-anchor="start" x="2915.5" y="-260.7" font-family="Helvetica,sans-Serif" font-size="14.00" fill="white">EndMainPass</text>
<text text-anchor="start" x="2932.38" y="-250.5" font-family="Helvetica,sans-Serif" font-size="10.00" fill="red">EmptyNode</text>
<path fill="none" stroke="white" d="M2921.33,-244C2921.33,-244 3000.42,-244 3000.42,-244 3006.08,-244 3011.75,-249.67 3011.75,-255.33 3011.75,-255.33 3011.75,-266.67 3011.75,-266.67 3011.75,-272.33 3006.08,-278 3000.42,-278 3000.42,-278 2921.33,-278 2921.33,-278 2915.67,-278 2910,-272.33 2910,-266.67 2910,-266.67 2910,-255.33 2910,-255.33 2910,-249.67 2915.67,-244 2921.33,-244"/>
</g>
<!-- _Core3d__Core3dUiPass -->
<g id="node19" class="node">
<title>_Core3d__Core3dUiPass</title>
<text text-anchor="start" x="4526.5" y="-220.7" font-family="Helvetica,sans-Serif" font-size="14.00" fill="white">UiPass</text>
<text text-anchor="start" x="4493.5" y="-210.5" font-family="Helvetica,sans-Serif" font-size="10.00" fill="red">RunGraphOnViewNode</text>
<path fill="none" stroke="white" d="M4499.33,-204C4499.33,-204 4598.67,-204 4598.67,-204 4604.33,-204 4610,-209.67 4610,-215.33 4610,-215.33 4610,-226.67 4610,-226.67 4610,-232.33 4604.33,-238 4598.67,-238 4598.67,-238 4499.33,-238 4499.33,-238 4493.67,-238 4488,-232.33 4488,-226.67 4488,-226.67 4488,-215.33 4488,-215.33 4488,-209.67 4493.67,-204 4499.33,-204"/>
</g>
<!-- _Core3d__Core3dEndMainPass&#45;&gt;_Core3d__Core3dUiPass -->
<g id="edge25" class="edge">
<title>_Core3d__Core3dEndMainPass:e&#45;&gt;_Core3d__Core3dUiPass:w</title>
<path fill="none" stroke="white" d="M3009.88,-261C3048.63,-261 3053.69,-238.29 3091.75,-231 3250.97,-200.49 3294.26,-221 3456.38,-221 3456.38,-221 3456.38,-221 4002.12,-221 4215.15,-221 4271.21,-221 4478.71,-221"/>
<polygon fill="white" stroke="white" points="4478.49,-224.5 4488.49,-221 4478.49,-217.5 4478.49,-224.5"/>
</g>
<!-- _Core3d__Core3dBloom -->
<g id="node20" class="node">
<title>_Core3d__Core3dBloom</title>
<text text-anchor="start" x="3162.25" y="-260.7" font-family="Helvetica,sans-Serif" font-size="14.00" fill="white">Bloom</text>
<text text-anchor="start" x="3105.25" y="-250.5" font-family="Helvetica,sans-Serif" font-size="10.00" fill="red">ViewNodeRunner&lt;BloomNode&gt;</text>
<path fill="none" stroke="white" d="M3111.08,-244C3111.08,-244 3256.92,-244 3256.92,-244 3262.58,-244 3268.25,-249.67 3268.25,-255.33 3268.25,-255.33 3268.25,-266.67 3268.25,-266.67 3268.25,-272.33 3262.58,-278 3256.92,-278 3256.92,-278 3111.08,-278 3111.08,-278 3105.42,-278 3099.75,-272.33 3099.75,-266.67 3099.75,-266.67 3099.75,-255.33 3099.75,-255.33 3099.75,-249.67 3105.42,-244 3111.08,-244"/>
</g>
<!-- _Core3d__Core3dEndMainPass&#45;&gt;_Core3d__Core3dBloom -->
<g id="edge27" class="edge">
<title>_Core3d__Core3dEndMainPass:e&#45;&gt;_Core3d__Core3dBloom:w</title>
<path fill="none" stroke="white" d="M3009.88,-261C3046.82,-261 3058.76,-261 3090.83,-261"/>
<polygon fill="white" stroke="white" points="3090.49,-264.5 3100.49,-261 3090.49,-257.5 3090.49,-264.5"/>
</g>
<!-- _Core3d__Core3dTonemapping -->
<g id="node28" class="node">
<title>_Core3d__Core3dTonemapping</title>
<text text-anchor="start" x="3410.88" y="-280.7" font-family="Helvetica,sans-Serif" font-size="14.00" fill="white">Tonemapping</text>
<text text-anchor="start" x="3361.75" y="-270.5" font-family="Helvetica,sans-Serif" font-size="10.00" fill="red">ViewNodeRunner&lt;TonemappingNode&gt;</text>
<path fill="none" stroke="white" d="M3367.58,-264C3367.58,-264 3547.17,-264 3547.17,-264 3552.83,-264 3558.5,-269.67 3558.5,-275.33 3558.5,-275.33 3558.5,-286.67 3558.5,-286.67 3558.5,-292.33 3552.83,-298 3547.17,-298 3547.17,-298 3367.58,-298 3367.58,-298 3361.92,-298 3356.25,-292.33 3356.25,-286.67 3356.25,-286.67 3356.25,-275.33 3356.25,-275.33 3356.25,-269.67 3361.92,-264 3367.58,-264"/>
</g>
<!-- _Core3d__Core3dEndMainPass&#45;&gt;_Core3d__Core3dTonemapping -->
<g id="edge35" class="edge">
<title>_Core3d__Core3dEndMainPass:e&#45;&gt;_Core3d__Core3dTonemapping:w</title>
<path fill="none" stroke="white" d="M3009.88,-261C3048.63,-261 3053.59,-284.23 3091.75,-291 3172.49,-305.33 3194.4,-295.96 3276.25,-291 3308.79,-289.03 3319.28,-282.69 3346.88,-281.28"/>
<polygon fill="white" stroke="white" points="3346.95,-284.78 3356.86,-281.04 3346.78,-277.78 3346.95,-284.78"/>
</g>
<!-- _Core3d__Core3dEndMainPassPostProcessing&#45;&gt;_Core3d__Core3dUiPass -->
<g id="edge26" class="edge">
<title>_Core3d__Core3dEndMainPassPostProcessing:e&#45;&gt;_Core3d__Core3dUiPass:w</title>
<path fill="none" stroke="white" d="M4398.38,-261C4438.64,-261 4444.68,-228.15 4478.53,-221.99"/>
<polygon fill="white" stroke="white" points="4478.83,-225.48 4488.49,-221.13 4478.23,-218.5 4478.83,-225.48"/>
</g>
<!-- _Core3d__Core3dUpscaling -->
<g id="node29" class="node">
<title>_Core3d__Core3dUpscaling</title>
<text text-anchor="start" x="4756.38" y="-240.7" font-family="Helvetica,sans-Serif" font-size="14.00" fill="white">Upscaling</text>
<text text-anchor="start" x="4703.5" y="-230.5" font-family="Helvetica,sans-Serif" font-size="10.00" fill="red">ViewNodeRunner&lt;UpscalingNode&gt;</text>
<path fill="none" stroke="white" d="M4709.33,-224C4709.33,-224 4871.67,-224 4871.67,-224 4877.33,-224 4883,-229.67 4883,-235.33 4883,-235.33 4883,-246.67 4883,-246.67 4883,-252.33 4877.33,-258 4871.67,-258 4871.67,-258 4709.33,-258 4709.33,-258 4703.67,-258 4698,-252.33 4698,-246.67 4698,-246.67 4698,-235.33 4698,-235.33 4698,-229.67 4703.67,-224 4709.33,-224"/>
</g>
<!-- _Core3d__Core3dEndMainPassPostProcessing&#45;&gt;_Core3d__Core3dUpscaling -->
<g id="edge37" class="edge">
<title>_Core3d__Core3dEndMainPassPostProcessing:e&#45;&gt;_Core3d__Core3dUpscaling:w</title>
<path fill="none" stroke="white" d="M4398.38,-261C4496.09,-261 4520.63,-259.18 4618,-251 4650.25,-248.29 4660.69,-242.52 4688.09,-241.25"/>
<polygon fill="white" stroke="white" points="4688.07,-244.75 4697.99,-241.03 4687.91,-237.75 4688.07,-244.75"/>
</g>
<!-- _Core3d__Core3dEndPrepasses -->
<g id="node17" class="node">
<title>_Core3d__Core3dEndPrepasses</title>
<text text-anchor="start" x="1023.25" y="-220.7" font-family="Helvetica,sans-Serif" font-size="14.00" fill="white">EndPrepasses</text>
<text text-anchor="start" x="1043.12" y="-210.5" font-family="Helvetica,sans-Serif" font-size="10.00" fill="red">EmptyNode</text>
<path fill="none" stroke="white" d="M1029.08,-204C1029.08,-204 1114.17,-204 1114.17,-204 1119.83,-204 1125.5,-209.67 1125.5,-215.33 1125.5,-215.33 1125.5,-226.67 1125.5,-226.67 1125.5,-232.33 1119.83,-238 1114.17,-238 1114.17,-238 1029.08,-238 1029.08,-238 1023.42,-238 1017.75,-232.33 1017.75,-226.67 1017.75,-226.67 1017.75,-215.33 1017.75,-215.33 1017.75,-209.67 1023.42,-204 1029.08,-204"/>
</g>
<!-- _Core3d__Core3dEndPrepasses&#45;&gt;_Core3d__Core3dStartMainPass -->
<g id="edge22" class="edge">
<title>_Core3d__Core3dEndPrepasses:e&#45;&gt;_Core3d__Core3dStartMainPass:w</title>
<path fill="none" stroke="white" d="M1123.62,-221C1197.94,-221 1209.86,-275.06 1277.84,-280.55"/>
<polygon fill="white" stroke="white" points="1277.61,-284.05 1287.74,-280.94 1277.88,-277.05 1277.61,-284.05"/>
</g>
<!-- _Core3d__Core3dMainOpaquePass -->
<g id="node21" class="node">
<title>_Core3d__Core3dMainOpaquePass</title>
<text text-anchor="start" x="1960.38" y="-260.7" font-family="Helvetica,sans-Serif" font-size="14.00" fill="white">MainOpaquePass</text>
<text text-anchor="start" x="1909" y="-250.5" font-family="Helvetica,sans-Serif" font-size="10.00" fill="red">ViewNodeRunner&lt;MainOpaquePass3dNode&gt;</text>
<path fill="none" stroke="white" d="M1914.83,-244C1914.83,-244 2124.42,-244 2124.42,-244 2130.08,-244 2135.75,-249.67 2135.75,-255.33 2135.75,-255.33 2135.75,-266.67 2135.75,-266.67 2135.75,-272.33 2130.08,-278 2124.42,-278 2124.42,-278 1914.83,-278 1914.83,-278 1909.17,-278 1903.5,-272.33 1903.5,-266.67 1903.5,-266.67 1903.5,-255.33 1903.5,-255.33 1903.5,-249.67 1909.17,-244 1914.83,-244"/>
</g>
<!-- _Core3d__Core3dStartMainPass&#45;&gt;_Core3d__Core3dMainOpaquePass -->
<g id="edge28" class="edge">
<title>_Core3d__Core3dStartMainPass:e&#45;&gt;_Core3d__Core3dMainOpaquePass:w</title>
<path fill="none" stroke="white" d="M1393.25,-281C1442.28,-281 1452.92,-265.46 1501.75,-261 1676.66,-245.01 1724.1,-260.31 1894.24,-260.98"/>
<polygon fill="white" stroke="white" points="1894.1,-264.48 1904.11,-261 1894.12,-257.48 1894.1,-264.48"/>
</g>
<!-- _Core3d__Core3dDeferredLightingPass -->
<g id="node30" class="node">
<title>_Core3d__Core3dDeferredLightingPass</title>
<text text-anchor="start" x="1589.12" y="-290.7" font-family="Helvetica,sans-Serif" font-size="14.00" fill="white">DeferredLightingPass</text>
<text text-anchor="start" x="1515.25" y="-280.5" font-family="Helvetica,sans-Serif" font-size="10.00" fill="red">ViewNodeRunner&lt;DeferredOpaquePass3dPbrLightingNode&gt;</text>
<path fill="none" stroke="white" d="M1521.08,-274C1521.08,-274 1804.17,-274 1804.17,-274 1809.83,-274 1815.5,-279.67 1815.5,-285.33 1815.5,-285.33 1815.5,-296.67 1815.5,-296.67 1815.5,-302.33 1809.83,-308 1804.17,-308 1804.17,-308 1521.08,-308 1521.08,-308 1515.42,-308 1509.75,-302.33 1509.75,-296.67 1509.75,-296.67 1509.75,-285.33 1509.75,-285.33 1509.75,-279.67 1515.42,-274 1521.08,-274"/>
</g>
<!-- _Core3d__Core3dStartMainPass&#45;&gt;_Core3d__Core3dDeferredLightingPass -->
<g id="edge39" class="edge">
<title>_Core3d__Core3dStartMainPass:e&#45;&gt;_Core3d__Core3dDeferredLightingPass:w</title>
<path fill="none" stroke="white" d="M1393.25,-281C1442.03,-281 1456.65,-289.53 1500.22,-290.83"/>
<polygon fill="white" stroke="white" points="1500.06,-294.33 1510.11,-290.98 1500.16,-287.33 1500.06,-294.33"/>
</g>
<!-- _Core3d__Core3dUiPass&#45;&gt;_Core3d__Core3dUpscaling -->
<g id="edge38" class="edge">
<title>_Core3d__Core3dUiPass:e&#45;&gt;_Core3d__Core3dUpscaling:w</title>
<path fill="none" stroke="white" d="M4608,-221C4645.56,-221 4655.94,-237.28 4688.2,-240.47"/>
<polygon fill="white" stroke="white" points="4687.83,-243.95 4697.99,-240.93 4688.16,-236.96 4687.83,-243.95"/>
</g>
<!-- _Core3d__Core3dBloom&#45;&gt;_Core3d__Core3dTonemapping -->
<g id="edge36" class="edge">
<title>_Core3d__Core3dBloom:e&#45;&gt;_Core3d__Core3dTonemapping:w</title>
<path fill="none" stroke="white" d="M3266,-261C3303.9,-261 3314.41,-277.28 3346.97,-280.47"/>
<polygon fill="white" stroke="white" points="3346.71,-283.96 3356.86,-280.93 3347.04,-276.96 3346.71,-283.96"/>
</g>
<!-- _Core3d__Core3dMainTransmissivePass -->
<g id="node22" class="node">
<title>_Core3d__Core3dMainTransmissivePass</title>
<text text-anchor="start" x="2276.12" y="-260.7" font-family="Helvetica,sans-Serif" font-size="14.00" fill="white">MainTransmissivePass</text>
<text text-anchor="start" x="2229.25" y="-250.5" font-family="Helvetica,sans-Serif" font-size="10.00" fill="red">ViewNodeRunner&lt;MainTransmissivePass3dNode&gt;</text>
<path fill="none" stroke="white" d="M2235.08,-244C2235.08,-244 2470.92,-244 2470.92,-244 2476.58,-244 2482.25,-249.67 2482.25,-255.33 2482.25,-255.33 2482.25,-266.67 2482.25,-266.67 2482.25,-272.33 2476.58,-278 2470.92,-278 2470.92,-278 2235.08,-278 2235.08,-278 2229.42,-278 2223.75,-272.33 2223.75,-266.67 2223.75,-266.67 2223.75,-255.33 2223.75,-255.33 2223.75,-249.67 2229.42,-244 2235.08,-244"/>
</g>
<!-- _Core3d__Core3dMainOpaquePass&#45;&gt;_Core3d__Core3dMainTransmissivePass -->
<g id="edge30" class="edge">
<title>_Core3d__Core3dMainOpaquePass:e&#45;&gt;_Core3d__Core3dMainTransmissivePass:w</title>
<path fill="none" stroke="white" d="M2133.62,-261C2170.67,-261 2182.65,-261 2214.8,-261"/>
<polygon fill="white" stroke="white" points="2214.49,-264.5 2224.49,-261 2214.49,-257.5 2214.49,-264.5"/>
</g>
<!-- _Core3d__Core3dMainTransparentPass -->
<g id="node23" class="node">
<title>_Core3d__Core3dMainTransparentPass</title>
<text text-anchor="start" x="2623" y="-260.7" font-family="Helvetica,sans-Serif" font-size="14.00" fill="white">MainTransparentPass</text>
<text text-anchor="start" x="2575.75" y="-250.5" font-family="Helvetica,sans-Serif" font-size="10.00" fill="red">ViewNodeRunner&lt;MainTransparentPass3dNode&gt;</text>
<path fill="none" stroke="white" d="M2581.58,-244C2581.58,-244 2810.67,-244 2810.67,-244 2816.33,-244 2822,-249.67 2822,-255.33 2822,-255.33 2822,-266.67 2822,-266.67 2822,-272.33 2816.33,-278 2810.67,-278 2810.67,-278 2581.58,-278 2581.58,-278 2575.92,-278 2570.25,-272.33 2570.25,-266.67 2570.25,-266.67 2570.25,-255.33 2570.25,-255.33 2570.25,-249.67 2575.92,-244 2581.58,-244"/>
</g>
<!-- _Core3d__Core3dMainTransmissivePass&#45;&gt;_Core3d__Core3dMainTransparentPass -->
<g id="edge31" class="edge">
<title>_Core3d__Core3dMainTransmissivePass:e&#45;&gt;_Core3d__Core3dMainTransparentPass:w</title>
<path fill="none" stroke="white" d="M2480,-261C2516.95,-261 2528.89,-261 2560.95,-261"/>
<polygon fill="white" stroke="white" points="2560.61,-264.5 2570.61,-261 2560.61,-257.5 2560.61,-264.5"/>
</g>
<!-- _Core3d__Core3dMainTransparentPass&#45;&gt;_Core3d__Core3dEndMainPass -->
<g id="edge17" class="edge">
<title>_Core3d__Core3dMainTransparentPass:e&#45;&gt;_Core3d__Core3dEndMainPass:w</title>
<path fill="none" stroke="white" d="M2820.12,-261C2856.92,-261 2868.81,-261 2900.75,-261"/>
<polygon fill="white" stroke="white" points="2900.36,-264.5 2910.36,-261 2900.36,-257.5 2900.36,-264.5"/>
</g>
<!-- _Core3d__Core3dCopyDeferredLightingId -->
<g id="node24" class="node">
<title>_Core3d__Core3dCopyDeferredLightingId</title>
<text text-anchor="start" x="673.75" y="-220.7" font-family="Helvetica,sans-Serif" font-size="14.00" fill="white">CopyDeferredLightingId</text>
<text text-anchor="start" x="635.5" y="-210.5" font-family="Helvetica,sans-Serif" font-size="10.00" fill="red">ViewNodeRunner&lt;CopyDeferredLightingIdNode&gt;</text>
<path fill="none" stroke="white" d="M641.33,-204C641.33,-204 871.17,-204 871.17,-204 876.83,-204 882.5,-209.67 882.5,-215.33 882.5,-215.33 882.5,-226.67 882.5,-226.67 882.5,-232.33 876.83,-238 871.17,-238 871.17,-238 641.33,-238 641.33,-238 635.67,-238 630,-232.33 630,-226.67 630,-226.67 630,-215.33 630,-215.33 630,-209.67 635.67,-204 641.33,-204"/>
</g>
<!-- _Core3d__Core3dCopyDeferredLightingId&#45;&gt;_Core3d__Core3dEndPrepasses -->
<g id="edge21" class="edge">
<title>_Core3d__Core3dCopyDeferredLightingId:e&#45;&gt;_Core3d__Core3dEndPrepasses:w</title>
<path fill="none" stroke="white" d="M880.25,-221C938.2,-221 955.49,-221 1008.2,-221"/>
<polygon fill="white" stroke="white" points="1008.11,-224.5 1018.11,-221 1008.11,-217.5 1008.11,-224.5"/>
</g>
<!-- _Core3d__Core3dDeferredPrepass -->
<g id="node25" class="node">
<title>_Core3d__Core3dDeferredPrepass</title>
<text text-anchor="start" x="357.62" y="-220.7" font-family="Helvetica,sans-Serif" font-size="14.00" fill="white">DeferredPrepass</text>
<text text-anchor="start" x="292.75" y="-210.5" font-family="Helvetica,sans-Serif" font-size="10.00" fill="red">ViewNodeRunner&lt;DeferredGBufferPrepassNode&gt;</text>
<path fill="none" stroke="white" d="M298.58,-204C298.58,-204 530.67,-204 530.67,-204 536.33,-204 542,-209.67 542,-215.33 542,-215.33 542,-226.67 542,-226.67 542,-232.33 536.33,-238 530.67,-238 530.67,-238 298.58,-238 298.58,-238 292.92,-238 287.25,-232.33 287.25,-226.67 287.25,-226.67 287.25,-215.33 287.25,-215.33 287.25,-209.67 292.92,-204 298.58,-204"/>
</g>
<!-- _Core3d__Core3dDeferredPrepass&#45;&gt;_Core3d__Core3dCopyDeferredLightingId -->
<g id="edge32" class="edge">
<title>_Core3d__Core3dDeferredPrepass:e&#45;&gt;_Core3d__Core3dCopyDeferredLightingId:w</title>
<path fill="none" stroke="white" d="M539.62,-221C576.77,-221 588.78,-221 621.02,-221"/>
<polygon fill="white" stroke="white" points="620.74,-224.5 630.74,-221 620.74,-217.5 620.74,-224.5"/>
</g>
<!-- _Core3d__Core3dFxaa -->
<g id="node26" class="node">
<title>_Core3d__Core3dFxaa</title>
<text text-anchor="start" x="3710.5" y="-280.7" font-family="Helvetica,sans-Serif" font-size="14.00" fill="white">Fxaa</text>
<text text-anchor="start" x="3652" y="-270.5" font-family="Helvetica,sans-Serif" font-size="10.00" fill="red">ViewNodeRunner&lt;FxaaNode&gt;</text>
<path fill="none" stroke="white" d="M3657.83,-264C3657.83,-264 3796.17,-264 3796.17,-264 3801.83,-264 3807.5,-269.67 3807.5,-275.33 3807.5,-275.33 3807.5,-286.67 3807.5,-286.67 3807.5,-292.33 3801.83,-298 3796.17,-298 3796.17,-298 3657.83,-298 3657.83,-298 3652.17,-298 3646.5,-292.33 3646.5,-286.67 3646.5,-286.67 3646.5,-275.33 3646.5,-275.33 3646.5,-269.67 3652.17,-264 3657.83,-264"/>
</g>
<!-- _Core3d__Core3dFxaa&#45;&gt;_Core3d__Core3dContrastAdaptiveSharpening -->
<g id="edge16" class="edge">
<title>_Core3d__Core3dFxaa:e&#45;&gt;_Core3d__Core3dContrastAdaptiveSharpening:w</title>
<path fill="none" stroke="white" d="M3806,-281C3843.41,-281 3853.74,-297.28 3885.87,-300.47"/>
<polygon fill="white" stroke="white" points="3885.46,-303.95 3895.61,-300.93 3885.79,-296.96 3885.46,-303.95"/>
</g>
<!-- _Core3d__Core3dFxaa&#45;&gt;_Core3d__Core3dEndMainPassPostProcessing -->
<g id="edge19" class="edge">
<title>_Core3d__Core3dFxaa:e&#45;&gt;_Core3d__Core3dEndMainPassPostProcessing:w</title>
<path fill="none" stroke="white" d="M3806,-281C3842.49,-281 3851.11,-273.82 3887.5,-271 4020.56,-260.7 4056.98,-260.98 4184.95,-261"/>
<polygon fill="white" stroke="white" points="4184.86,-264.5 4194.86,-261 4184.86,-257.5 4184.86,-264.5"/>
</g>
<!-- _Core3d__Core3dPrepass -->
<g id="node27" class="node">
<title>_Core3d__Core3dPrepass</title>
<text text-anchor="start" x="84.62" y="-220.7" font-family="Helvetica,sans-Serif" font-size="14.00" fill="white">Prepass</text>
<text text-anchor="start" x="29.5" y="-210.5" font-family="Helvetica,sans-Serif" font-size="10.00" fill="red">ViewNodeRunner&lt;PrepassNode&gt;</text>
<path fill="none" stroke="white" d="M35.33,-204C35.33,-204 187.92,-204 187.92,-204 193.58,-204 199.25,-209.67 199.25,-215.33 199.25,-215.33 199.25,-226.67 199.25,-226.67 199.25,-232.33 193.58,-238 187.92,-238 187.92,-238 35.33,-238 35.33,-238 29.67,-238 24,-232.33 24,-226.67 24,-226.67 24,-215.33 24,-215.33 24,-209.67 29.67,-204 35.33,-204"/>
</g>
<!-- _Core3d__Core3dPrepass&#45;&gt;_Core3d__Core3dDeferredPrepass -->
<g id="edge33" class="edge">
<title>_Core3d__Core3dPrepass:e&#45;&gt;_Core3d__Core3dDeferredPrepass:w</title>
<path fill="none" stroke="white" d="M197.62,-221C234.52,-221 246.45,-221 278.47,-221"/>
<polygon fill="white" stroke="white" points="278.11,-224.5 288.11,-221 278.11,-217.5 278.11,-224.5"/>
</g>
<!-- _Core3d__Core3dTonemapping&#45;&gt;_Core3d__Core3dContrastAdaptiveSharpening -->
<g id="edge15" class="edge">
<title>_Core3d__Core3dTonemapping:e&#45;&gt;_Core3d__Core3dContrastAdaptiveSharpening:w</title>
<path fill="none" stroke="white" d="M3556.38,-281C3595.23,-281 3600.24,-304.23 3638.5,-311 3715.96,-324.71 3736.98,-315.79 3815.5,-311 3847.85,-309.03 3858.27,-302.69 3885.7,-301.28"/>
<polygon fill="white" stroke="white" points="3885.7,-304.78 3895.61,-301.04 3885.53,-297.78 3885.7,-304.78"/>
</g>
<!-- _Core3d__Core3dTonemapping&#45;&gt;_Core3d__Core3dEndMainPassPostProcessing -->
<g id="edge18" class="edge">
<title>_Core3d__Core3dTonemapping:e&#45;&gt;_Core3d__Core3dEndMainPassPostProcessing:w</title>
<path fill="none" stroke="white" d="M3556.38,-281C3595.23,-281 3600.24,-257.77 3638.5,-251 3679.42,-243.76 4037.56,-254.34 4114.75,-257 4146.94,-258.11 4157.66,-260.4 4185,-260.9"/>
<polygon fill="white" stroke="white" points="4184.83,-264.4 4194.86,-260.99 4184.89,-257.4 4184.83,-264.4"/>
</g>
<!-- _Core3d__Core3dTonemapping&#45;&gt;_Core3d__Core3dFxaa -->
<g id="edge34" class="edge">
<title>_Core3d__Core3dTonemapping:e&#45;&gt;_Core3d__Core3dFxaa:w</title>
<path fill="none" stroke="white" d="M3556.38,-281C3593.12,-281 3605,-281 3636.89,-281"/>
<polygon fill="white" stroke="white" points="3636.49,-284.5 3646.49,-281 3636.49,-277.5 3636.49,-284.5"/>
</g>
<!-- _Core3d__Core3dDeferredLightingPass&#45;&gt;_Core3d__Core3dMainOpaquePass -->
<g id="edge29" class="edge">
<title>_Core3d__Core3dDeferredLightingPass:e&#45;&gt;_Core3d__Core3dMainOpaquePass:w</title>
<path fill="none" stroke="white" d="M1813.62,-291C1852.6,-291 1861.17,-266.36 1894.44,-261.74"/>
<polygon fill="white" stroke="white" points="1894.37,-265.25 1904.11,-261.1 1893.91,-258.27 1894.37,-265.25"/>
</g>
<!-- _CameraDriverLabel -->
<g id="node31" class="node">
<title>_CameraDriverLabel</title>
<text text-anchor="start" x="44.88" y="-423.7" font-family="Helvetica,sans-Serif" font-size="14.00" fill="white">CameraDriverLabel</text>
<text text-anchor="start" x="64.75" y="-413.5" font-family="Helvetica,sans-Serif" font-size="10.00" fill="red">CameraDriverNode</text>
<path fill="none" stroke="white" d="M50.71,-407C50.71,-407 172.54,-407 172.54,-407 178.21,-407 183.88,-412.67 183.88,-418.33 183.88,-418.33 183.88,-429.67 183.88,-429.67 183.88,-435.33 178.21,-441 172.54,-441 172.54,-441 50.71,-441 50.71,-441 45.04,-441 39.38,-435.33 39.38,-429.67 39.38,-429.67 39.38,-418.33 39.38,-418.33 39.38,-412.67 45.04,-407 50.71,-407"/>
</g>
</g>
</svg>
