<?xml version="1.0" encoding="UTF-8" standalone="no"?>
<!DOCTYPE svg PUBLIC "-//W3C//DTD SVG 1.1//EN"
 "http://www.w3.org/Graphics/SVG/1.1/DTD/svg11.dtd">
<!-- Generated by graphviz version 8.0.1 (0)
 -->
<!-- Title: RenderGraph Pages: 1 -->
<svg width="1902pt" height="919pt"
 viewBox="0.00 0.00 1902.00 919.00" xmlns="http://www.w3.org/2000/svg" xmlns:xlink="http://www.w3.org/1999/xlink">
<g id="graph0" class="graph" transform="scale(1 1) rotate(0) translate(4 915)">
<title>RenderGraph</title>
<polygon fill="#0d1117" stroke="none" points="-4,4 -4,-915 1898,-915 1898,4 -4,4"/>
<g id="clust1" class="cluster">
<title>cluster_core_2d</title>
<path fill="#343a42" stroke="#343a42" d="M20,-8C20,-8 1874,-8 1874,-8 1880,-8 1886,-14 1886,-20 1886,-20 1886,-335 1886,-335 1886,-341 1880,-347 1874,-347 1874,-347 20,-347 20,-347 14,-347 8,-341 8,-335 8,-335 8,-20 8,-20 8,-14 14,-8 20,-8"/>
<text text-anchor="middle" x="947" y="-331.8" font-family="Times,serif" font-size="14.00" fill="white">core_2d</text>
</g>
<g id="clust2" class="cluster">
<title>cluster_core_2d_draw_ui</title>
<path fill="#6f90ad" stroke="#6f90ad" d="M28,-211C28,-211 463,-211 463,-211 469,-211 475,-217 475,-223 475,-223 475,-304 475,-304 475,-310 469,-316 463,-316 463,-316 28,-316 28,-316 22,-316 16,-310 16,-304 16,-304 16,-223 16,-223 16,-217 22,-211 28,-211"/>
<text text-anchor="middle" x="245.5" y="-300.8" font-family="Times,serif" font-size="14.00">draw_ui</text>
</g>
<g id="clust3" class="cluster">
<title>cluster_core_3d</title>
<path fill="#343a42" stroke="#343a42" d="M20,-355C20,-355 1874,-355 1874,-355 1880,-355 1886,-361 1886,-367 1886,-367 1886,-849 1886,-849 1886,-855 1880,-861 1874,-861 1874,-861 20,-861 20,-861 14,-861 8,-855 8,-849 8,-849 8,-367 8,-367 8,-361 14,-355 20,-355"/>
<text text-anchor="middle" x="947" y="-845.8" font-family="Times,serif" font-size="14.00" fill="white">core_3d</text>
</g>
<g id="clust4" class="cluster">
<title>cluster_core_3d_draw_ui</title>
<path fill="#6f90ad" stroke="#6f90ad" d="M28,-725C28,-725 463,-725 463,-725 469,-725 475,-731 475,-737 475,-737 475,-818 475,-818 475,-824 469,-830 463,-830 463,-830 28,-830 28,-830 22,-830 16,-824 16,-818 16,-818 16,-737 16,-737 16,-731 22,-725 28,-725"/>
<text text-anchor="middle" x="245.5" y="-814.8" font-family="Times,serif" font-size="14.00">draw_ui</text>
</g>
<!-- _core_2d_draw_ui__core_2d_draw_uiGraphInputNode -->
<g id="node1" class="node">
<title>_core_2d_draw_ui__core_2d_draw_uiGraphInputNode</title>
<text text-anchor="start" x="100.5" y="-265.3" font-family="Helvetica,sans-Serif" font-size="14.00" fill="white">GraphInputNode</text>
<text text-anchor="start" x="115" y="-254.5" font-family="Helvetica,sans-Serif" font-size="10.00" fill="red">GraphInputNode</text>
<polygon fill="none" stroke="white" points="35,-226.5 35,-247.5 150,-247.5 150,-226.5 35,-226.5"/>
<text text-anchor="start" x="38" y="-233.3" font-family="Helvetica,sans-Serif" font-size="14.00" fill="white">view_entity: Entity</text>
<polygon fill="none" stroke="white" points="152,-226.5 152,-247.5 267,-247.5 267,-226.5 152,-226.5"/>
<text text-anchor="start" x="155" y="-233.3" font-family="Helvetica,sans-Serif" font-size="14.00" fill="white">view_entity: Entity</text>
<path fill="none" stroke="white" d="M44,-223.5C44,-223.5 258,-223.5 258,-223.5 264,-223.5 270,-229.5 270,-235.5 270,-235.5 270,-268.5 270,-268.5 270,-274.5 264,-280.5 258,-280.5 258,-280.5 44,-280.5 44,-280.5 38,-280.5 32,-274.5 32,-268.5 32,-268.5 32,-235.5 32,-235.5 32,-229.5 38,-223.5 44,-223.5"/>
</g>
<!-- _core_2d_draw_ui__core_2d_draw_uiui_pass -->
<g id="node2" class="node">
<title>_core_2d_draw_ui__core_2d_draw_uiui_pass</title>
<text text-anchor="start" x="390" y="-265.3" font-family="Helvetica,sans-Serif" font-size="14.00" fill="white">ui_pass</text>
<text text-anchor="start" x="385.5" y="-254.5" font-family="Helvetica,sans-Serif" font-size="10.00" fill="red">UiPassNode</text>
<polygon fill="none" stroke="white" points="371,-226.5 371,-247.5 446,-247.5 446,-226.5 371,-226.5"/>
<text text-anchor="start" x="374" y="-233.3" font-family="Helvetica,sans-Serif" font-size="14.00" fill="white">view: Entity</text>
<text text-anchor="start" x="450" y="-233.3" font-family="Helvetica,sans-Serif" font-size="14.00" fill="white"> </text>
<path fill="none" stroke="white" d="M380,-223.5C380,-223.5 447,-223.5 447,-223.5 453,-223.5 459,-229.5 459,-235.5 459,-235.5 459,-268.5 459,-268.5 459,-274.5 453,-280.5 447,-280.5 447,-280.5 380,-280.5 380,-280.5 374,-280.5 368,-274.5 368,-268.5 368,-268.5 368,-235.5 368,-235.5 368,-229.5 374,-223.5 380,-223.5"/>
</g>
<!-- _core_2d_draw_ui__core_2d_draw_uiGraphInputNode&#45;&gt;_core_2d_draw_ui__core_2d_draw_uiui_pass -->
<g id="edge1" class="edge">
<title>_core_2d_draw_ui__core_2d_draw_uiGraphInputNode:e&#45;&gt;_core_2d_draw_ui__core_2d_draw_uiui_pass:w</title>
<path fill="none" stroke="#715ed6" d="M268,-237C309.23,-237 322.2,-237 358.58,-237"/>
<polygon fill="#715ed6" stroke="#715ed6" points="358.5,-240.5 368.5,-237 358.5,-233.5 358.5,-240.5"/>
</g>
<!-- _core_2d__core_2dbloom -->
<g id="node3" class="node">
<title>_core_2d__core_2dbloom</title>
<text text-anchor="start" x="763" y="-142.3" font-family="Helvetica,sans-Serif" font-size="14.00" fill="white">bloom</text>
<text text-anchor="start" x="755.5" y="-131.5" font-family="Helvetica,sans-Serif" font-size="10.00" fill="red">BloomNode</text>
<polygon fill="none" stroke="white" points="739,-103.5 739,-124.5 814,-124.5 814,-103.5 739,-103.5"/>
<text text-anchor="start" x="742" y="-110.3" font-family="Helvetica,sans-Serif" font-size="14.00" fill="white">view: Entity</text>
<text text-anchor="start" x="818" y="-110.3" font-family="Helvetica,sans-Serif" font-size="14.00" fill="white"> </text>
<path fill="none" stroke="white" d="M748,-100.5C748,-100.5 815,-100.5 815,-100.5 821,-100.5 827,-106.5 827,-112.5 827,-112.5 827,-145.5 827,-145.5 827,-151.5 821,-157.5 815,-157.5 815,-157.5 748,-157.5 748,-157.5 742,-157.5 736,-151.5 736,-145.5 736,-145.5 736,-112.5 736,-112.5 736,-106.5 742,-100.5 748,-100.5"/>
</g>
<!-- _core_2d__core_2dtonemapping -->
<g id="node7" class="node">
<title>_core_2d__core_2dtonemapping</title>
<text text-anchor="start" x="922.5" y="-142.3" font-family="Helvetica,sans-Serif" font-size="14.00" fill="white">tonemapping</text>
<text text-anchor="start" x="921" y="-131.5" font-family="Helvetica,sans-Serif" font-size="10.00" fill="red">TonemappingNode</text>
<polygon fill="none" stroke="white" points="918,-103.5 918,-124.5 994,-124.5 994,-103.5 918,-103.5"/>
<text text-anchor="start" x="921.5" y="-110.3" font-family="Helvetica,sans-Serif" font-size="14.00" fill="white">view: Entity</text>
<text text-anchor="start" x="999" y="-110.3" font-family="Helvetica,sans-Serif" font-size="14.00" fill="white"> </text>
<path fill="none" stroke="white" d="M927,-100.5C927,-100.5 997,-100.5 997,-100.5 1003,-100.5 1009,-106.5 1009,-112.5 1009,-112.5 1009,-145.5 1009,-145.5 1009,-151.5 1003,-157.5 997,-157.5 997,-157.5 927,-157.5 927,-157.5 921,-157.5 915,-151.5 915,-145.5 915,-145.5 915,-112.5 915,-112.5 915,-106.5 921,-100.5 927,-100.5"/>
</g>
<!-- _core_2d__core_2dbloom&#45;&gt;_core_2d__core_2dtonemapping -->
<g id="edge11" class="edge">
<title>_core_2d__core_2dbloom:e&#45;&gt;_core_2d__core_2dtonemapping:w</title>
<path fill="none" stroke="white" d="M825.5,-141C862.35,-141 874.16,-141 906.32,-141"/>
<polygon fill="white" stroke="white" points="906,-144.5 916,-141 906,-137.5 906,-144.5"/>
</g>
<!-- _core_2d__core_2dmain_pass -->
<g id="node4" class="node">
<title>_core_2d__core_2dmain_pass</title>
<text text-anchor="start" x="569.5" y="-182.3" font-family="Helvetica,sans-Serif" font-size="14.00" fill="white">main_pass</text>
<text text-anchor="start" x="563.5" y="-171.5" font-family="Helvetica,sans-Serif" font-size="10.00" fill="red">MainPass2dNode</text>
<polygon fill="none" stroke="white" points="560,-143.5 560,-164.5 635,-164.5 635,-143.5 560,-143.5"/>
<text text-anchor="start" x="563" y="-150.3" font-family="Helvetica,sans-Serif" font-size="14.00" fill="white">view: Entity</text>
<text text-anchor="start" x="639" y="-150.3" font-family="Helvetica,sans-Serif" font-size="14.00" fill="white"> </text>
<path fill="none" stroke="white" d="M569,-140.5C569,-140.5 636,-140.5 636,-140.5 642,-140.5 648,-146.5 648,-152.5 648,-152.5 648,-185.5 648,-185.5 648,-191.5 642,-197.5 636,-197.5 636,-197.5 569,-197.5 569,-197.5 563,-197.5 557,-191.5 557,-185.5 557,-185.5 557,-152.5 557,-152.5 557,-146.5 563,-140.5 569,-140.5"/>
</g>
<!-- _core_2d__core_2dmain_pass&#45;&gt;_core_2d__core_2dbloom -->
<g id="edge3" class="edge">
<title>_core_2d__core_2dmain_pass:e&#45;&gt;_core_2d__core_2dbloom:w</title>
<path fill="none" stroke="white" d="M646.5,-181C686.71,-181 692.51,-147.86 726.54,-141.91"/>
<polygon fill="white" stroke="white" points="726.82,-145.32 736.5,-141 726.24,-138.34 726.82,-145.32"/>
</g>
<!-- _core_2d__core_2dmain_pass&#45;&gt;_core_2d__core_2dtonemapping -->
<g id="edge10" class="edge">
<title>_core_2d__core_2dmain_pass:e&#45;&gt;_core_2d__core_2dtonemapping:w</title>
<path fill="none" stroke="white" d="M646.5,-181C730.4,-181 752.81,-187.82 835,-171 869.16,-164.01 876.8,-145.36 906.15,-141.65"/>
<polygon fill="white" stroke="white" points="906.23,-145.09 916,-141 905.81,-138.1 906.23,-145.09"/>
</g>
<!-- _core_2d__core_2dui_pass -->
<g id="node11" class="node">
<title>_core_2d__core_2dui_pass</title>
<text text-anchor="start" x="1610.5" y="-82.3" font-family="Helvetica,sans-Serif" font-size="14.00" fill="white">ui_pass</text>
<text text-anchor="start" x="1583" y="-71.5" font-family="Helvetica,sans-Serif" font-size="10.00" fill="red">RunGraphOnViewNode</text>
<polygon fill="none" stroke="white" points="1580,-43.5 1580,-64.5 1666,-64.5 1666,-43.5 1580,-43.5"/>
<text text-anchor="start" x="1588.5" y="-50.3" font-family="Helvetica,sans-Serif" font-size="14.00" fill="white">view: Entity</text>
<text text-anchor="start" x="1676" y="-50.3" font-family="Helvetica,sans-Serif" font-size="14.00" fill="white"> </text>
<path fill="none" stroke="white" d="M1589,-40.5C1589,-40.5 1679,-40.5 1679,-40.5 1685,-40.5 1691,-46.5 1691,-52.5 1691,-52.5 1691,-85.5 1691,-85.5 1691,-91.5 1685,-97.5 1679,-97.5 1679,-97.5 1589,-97.5 1589,-97.5 1583,-97.5 1577,-91.5 1577,-85.5 1577,-85.5 1577,-52.5 1577,-52.5 1577,-46.5 1583,-40.5 1589,-40.5"/>
</g>
<!-- _core_2d__core_2dmain_pass&#45;&gt;_core_2d__core_2dui_pass -->
<g id="edge17" class="edge">
<title>_core_2d__core_2dmain_pass:e&#45;&gt;_core_2d__core_2dui_pass:w</title>
<path fill="none" stroke="white" d="M646.5,-181C786.56,-181 820.94,-201 961,-201 961,-201 961,-201 1143.5,-201 1302.86,-201 1350.22,-203.04 1497,-141 1535.02,-124.93 1534.32,-88.11 1568.4,-81.9"/>
<polygon fill="white" stroke="white" points="1568.33,-85.33 1578,-81 1567.74,-78.36 1568.33,-85.33"/>
</g>
<!-- _core_2d__core_2dfxaa -->
<g id="node5" class="node">
<title>_core_2d__core_2dfxaa</title>
<text text-anchor="start" x="1129.5" y="-102.3" font-family="Helvetica,sans-Serif" font-size="14.00" fill="white">fxaa</text>
<text text-anchor="start" x="1120" y="-91.5" font-family="Helvetica,sans-Serif" font-size="10.00" fill="red">FxaaNode</text>
<polygon fill="none" stroke="white" points="1100,-63.5 1100,-84.5 1175,-84.5 1175,-63.5 1100,-63.5"/>
<text text-anchor="start" x="1103" y="-70.3" font-family="Helvetica,sans-Serif" font-size="14.00" fill="white">view: Entity</text>
<text text-anchor="start" x="1179" y="-70.3" font-family="Helvetica,sans-Serif" font-size="14.00" fill="white"> </text>
<path fill="none" stroke="white" d="M1109,-60.5C1109,-60.5 1176,-60.5 1176,-60.5 1182,-60.5 1188,-66.5 1188,-72.5 1188,-72.5 1188,-105.5 1188,-105.5 1188,-111.5 1182,-117.5 1176,-117.5 1176,-117.5 1109,-117.5 1109,-117.5 1103,-117.5 1097,-111.5 1097,-105.5 1097,-105.5 1097,-72.5 1097,-72.5 1097,-66.5 1103,-60.5 1109,-60.5"/>
</g>
<!-- _core_2d__core_2dend_main_pass_post_processing -->
<g id="node10" class="node">
<title>_core_2d__core_2dend_main_pass_post_processing</title>
<text text-anchor="start" x="1281.5" y="-112.8" font-family="Helvetica,sans-Serif" font-size="14.00" fill="white">end_main_pass_post_processing</text>
<text text-anchor="start" x="1357" y="-102" font-family="Helvetica,sans-Serif" font-size="10.00" fill="red">EmptyNode</text>
<path fill="none" stroke="white" d="M1287.33,-94C1287.33,-94 1477.67,-94 1477.67,-94 1483.33,-94 1489,-99.67 1489,-105.33 1489,-105.33 1489,-116.67 1489,-116.67 1489,-122.33 1483.33,-128 1477.67,-128 1477.67,-128 1287.33,-128 1287.33,-128 1281.67,-128 1276,-122.33 1276,-116.67 1276,-116.67 1276,-105.33 1276,-105.33 1276,-99.67 1281.67,-94 1287.33,-94"/>
</g>
<!-- _core_2d__core_2dfxaa&#45;&gt;_core_2d__core_2dend_main_pass_post_processing -->
<g id="edge16" class="edge">
<title>_core_2d__core_2dfxaa:e&#45;&gt;_core_2d__core_2dend_main_pass_post_processing:w</title>
<path fill="none" stroke="white" d="M1186.5,-101C1223.37,-101 1234.73,-109.21 1266.82,-110.75"/>
<polygon fill="white" stroke="white" points="1266.42,-114.27 1276.5,-111 1266.58,-107.27 1266.42,-114.27"/>
</g>
<!-- _core_2d__core_2dmsaa_writeback -->
<g id="node6" class="node">
<title>_core_2d__core_2dmsaa_writeback</title>
<text text-anchor="start" x="364" y="-182.3" font-family="Helvetica,sans-Serif" font-size="14.00" fill="white">msaa_writeback</text>
<text text-anchor="start" x="368" y="-171.5" font-family="Helvetica,sans-Serif" font-size="10.00" fill="red">MsaaWritebackNode</text>
<polygon fill="none" stroke="white" points="361,-143.5 361,-164.5 446,-164.5 446,-143.5 361,-143.5"/>
<text text-anchor="start" x="369" y="-150.3" font-family="Helvetica,sans-Serif" font-size="14.00" fill="white">view: Entity</text>
<text text-anchor="start" x="455" y="-150.3" font-family="Helvetica,sans-Serif" font-size="14.00" fill="white"> </text>
<path fill="none" stroke="white" d="M370,-140.5C370,-140.5 457,-140.5 457,-140.5 463,-140.5 469,-146.5 469,-152.5 469,-152.5 469,-185.5 469,-185.5 469,-191.5 463,-197.5 457,-197.5 457,-197.5 370,-197.5 370,-197.5 364,-197.5 358,-191.5 358,-185.5 358,-185.5 358,-152.5 358,-152.5 358,-146.5 364,-140.5 370,-140.5"/>
</g>
<!-- _core_2d__core_2dmsaa_writeback&#45;&gt;_core_2d__core_2dmain_pass -->
<g id="edge5" class="edge">
<title>_core_2d__core_2dmsaa_writeback:e&#45;&gt;_core_2d__core_2dmain_pass:w</title>
<path fill="none" stroke="white" d="M467.5,-181C504.15,-181 515.89,-181 547.87,-181"/>
<polygon fill="white" stroke="white" points="547.5,-184.5 557.5,-181 547.5,-177.5 547.5,-184.5"/>
</g>
<!-- _core_2d__core_2dtonemapping&#45;&gt;_core_2d__core_2dfxaa -->
<g id="edge7" class="edge">
<title>_core_2d__core_2dtonemapping:e&#45;&gt;_core_2d__core_2dfxaa:w</title>
<path fill="none" stroke="white" d="M1007,-141C1047.57,-141 1053.34,-107.58 1087.93,-101.84"/>
<polygon fill="white" stroke="white" points="1087.81,-105.28 1097.5,-101 1087.26,-98.3 1087.81,-105.28"/>
</g>
<!-- _core_2d__core_2dtonemapping&#45;&gt;_core_2d__core_2dend_main_pass_post_processing -->
<g id="edge15" class="edge">
<title>_core_2d__core_2dtonemapping:e&#45;&gt;_core_2d__core_2dend_main_pass_post_processing:w</title>
<path fill="none" stroke="white" d="M1007,-141C1091.12,-141 1112.79,-143.3 1196,-131 1229,-126.12 1238.33,-113.97 1266.63,-111.46"/>
<polygon fill="white" stroke="white" points="1266.66,-114.92 1276.5,-111 1266.36,-107.92 1266.66,-114.92"/>
</g>
<!-- _core_2d__core_2dupscaling -->
<g id="node8" class="node">
<title>_core_2d__core_2dupscaling</title>
<text text-anchor="start" x="1795.5" y="-82.3" font-family="Helvetica,sans-Serif" font-size="14.00" fill="white">upscaling</text>
<text text-anchor="start" x="1791" y="-71.5" font-family="Helvetica,sans-Serif" font-size="10.00" fill="red">UpscalingNode</text>
<polygon fill="none" stroke="white" points="1782,-43.5 1782,-64.5 1857,-64.5 1857,-43.5 1782,-43.5"/>
<text text-anchor="start" x="1785" y="-50.3" font-family="Helvetica,sans-Serif" font-size="14.00" fill="white">view: Entity</text>
<text text-anchor="start" x="1861" y="-50.3" font-family="Helvetica,sans-Serif" font-size="14.00" fill="white"> </text>
<path fill="none" stroke="white" d="M1791,-40.5C1791,-40.5 1858,-40.5 1858,-40.5 1864,-40.5 1870,-46.5 1870,-52.5 1870,-52.5 1870,-85.5 1870,-85.5 1870,-91.5 1864,-97.5 1858,-97.5 1858,-97.5 1791,-97.5 1791,-97.5 1785,-97.5 1779,-91.5 1779,-85.5 1779,-85.5 1779,-52.5 1779,-52.5 1779,-46.5 1785,-40.5 1791,-40.5"/>
</g>
<!-- _core_2d__core_2dGraphInputNode -->
<g id="node9" class="node">
<title>_core_2d__core_2dGraphInputNode</title>
<text text-anchor="start" x="100.5" y="-105.3" font-family="Helvetica,sans-Serif" font-size="14.00" fill="white">GraphInputNode</text>
<text text-anchor="start" x="115" y="-94.5" font-family="Helvetica,sans-Serif" font-size="10.00" fill="red">GraphInputNode</text>
<polygon fill="none" stroke="white" points="35,-66.5 35,-87.5 150,-87.5 150,-66.5 35,-66.5"/>
<text text-anchor="start" x="38" y="-73.3" font-family="Helvetica,sans-Serif" font-size="14.00" fill="white">view_entity: Entity</text>
<polygon fill="none" stroke="white" points="152,-66.5 152,-87.5 267,-87.5 267,-66.5 152,-66.5"/>
<text text-anchor="start" x="155" y="-73.3" font-family="Helvetica,sans-Serif" font-size="14.00" fill="white">view_entity: Entity</text>
<path fill="none" stroke="white" d="M44,-63.5C44,-63.5 258,-63.5 258,-63.5 264,-63.5 270,-69.5 270,-75.5 270,-75.5 270,-108.5 270,-108.5 270,-114.5 264,-120.5 258,-120.5 258,-120.5 44,-120.5 44,-120.5 38,-120.5 32,-114.5 32,-108.5 32,-108.5 32,-75.5 32,-75.5 32,-69.5 38,-63.5 44,-63.5"/>
</g>
<!-- _core_2d__core_2dGraphInputNode&#45;&gt;_core_2d__core_2dbloom -->
<g id="edge2" class="edge">
<title>_core_2d__core_2dGraphInputNode:e&#45;&gt;_core_2d__core_2dbloom:w</title>
<path fill="none" stroke="#a79be6" d="M268,-77C317.57,-77 647.56,-110.2 726.71,-113.7"/>
<polygon fill="#a79be6" stroke="#a79be6" points="726.41,-117.22 736.5,-114 726.6,-110.23 726.41,-117.22"/>
</g>
<!-- _core_2d__core_2dGraphInputNode&#45;&gt;_core_2d__core_2dmain_pass -->
<g id="edge4" class="edge">
<title>_core_2d__core_2dGraphInputNode:e&#45;&gt;_core_2d__core_2dmain_pass:w</title>
<path fill="none" stroke="#a79be6" d="M268,-77C306.1,-77 313.07,-92.61 350,-102 405.84,-116.19 421.25,-113.45 477,-128 510.05,-136.63 518.81,-150.74 547.82,-153.52"/>
<polygon fill="#a79be6" stroke="#a79be6" points="547.35,-157.04 557.5,-154 547.67,-150.05 547.35,-157.04"/>
</g>
<!-- _core_2d__core_2dGraphInputNode&#45;&gt;_core_2d__core_2dfxaa -->
<g id="edge6" class="edge">
<title>_core_2d__core_2dGraphInputNode:e&#45;&gt;_core_2d__core_2dfxaa:w</title>
<path fill="none" stroke="#a79be6" d="M268,-77C304.77,-77 313.36,-69.11 350,-66 461.45,-56.55 489.65,-57 601.5,-57 601.5,-57 601.5,-57 782.5,-57 919.44,-57 955.95,-73.12 1087.59,-73.97"/>
<polygon fill="#a79be6" stroke="#a79be6" points="1087.49,-77.47 1097.5,-74 1087.51,-70.47 1087.49,-77.47"/>
</g>
<!-- _core_2d__core_2dGraphInputNode&#45;&gt;_core_2d__core_2dmsaa_writeback -->
<g id="edge8" class="edge">
<title>_core_2d__core_2dGraphInputNode:e&#45;&gt;_core_2d__core_2dmsaa_writeback:w</title>
<path fill="none" stroke="#a79be6" d="M268,-77C317.21,-77 308.17,-142.99 348.73,-152.79"/>
<polygon fill="#a79be6" stroke="#a79be6" points="348.17,-156.36 358.5,-154 348.95,-149.41 348.17,-156.36"/>
</g>
<!-- _core_2d__core_2dGraphInputNode&#45;&gt;_core_2d__core_2dtonemapping -->
<g id="edge9" class="edge">
<title>_core_2d__core_2dGraphInputNode:e&#45;&gt;_core_2d__core_2dtonemapping:w</title>
<path fill="none" stroke="#a79be6" d="M268,-77C520.05,-77 586.3,-47.04 835,-88 868.89,-93.58 877.21,-110.12 906.28,-113.42"/>
<polygon fill="#a79be6" stroke="#a79be6" points="905.83,-116.96 916,-114 906.2,-109.97 905.83,-116.96"/>
</g>
<!-- _core_2d__core_2dGraphInputNode&#45;&gt;_core_2d__core_2dupscaling -->
<g id="edge12" class="edge">
<title>_core_2d__core_2dGraphInputNode:e&#45;&gt;_core_2d__core_2dupscaling:w</title>
<path fill="none" stroke="#a79be6" d="M268,-77C309.36,-77 310.23,-44.35 350,-33 457.7,-2.26 489.5,-17 601.5,-17 601.5,-17 601.5,-17 1383.5,-17 1523.79,-17 1560.87,-2.46 1699,-27 1732.75,-33 1740.84,-50.01 1769.81,-53.41"/>
<polygon fill="#a79be6" stroke="#a79be6" points="1769.32,-56.94 1779.5,-54 1769.71,-49.95 1769.32,-56.94"/>
</g>
<!-- _core_2d__core_2dGraphInputNode&#45;&gt;_core_2d__core_2dui_pass -->
<g id="edge18" class="edge">
<title>_core_2d__core_2dGraphInputNode:e&#45;&gt;_core_2d__core_2dui_pass:w</title>
<path fill="none" stroke="#a79be6" d="M268,-77C305.97,-77 312.6,-59.58 350,-53 460.31,-33.6 489.5,-37 601.5,-37 601.5,-37 601.5,-37 1143.5,-37 1333.51,-37 1383.41,-53.36 1568.09,-53.98"/>
<polygon fill="#a79be6" stroke="#a79be6" points="1567.99,-57.48 1578,-54 1568.01,-50.48 1567.99,-57.48"/>
</g>
<!-- _core_2d__core_2dend_main_pass_post_processing&#45;&gt;_core_2d__core_2dupscaling -->
<g id="edge13" class="edge">
<title>_core_2d__core_2dend_main_pass_post_processing:e&#45;&gt;_core_2d__core_2dupscaling:w</title>
<path fill="none" stroke="white" d="M1487.5,-111C1581.5,-111 1606.46,-127.49 1699,-111 1733.14,-104.92 1740.56,-85.55 1769.71,-81.68"/>
<polygon fill="white" stroke="white" points="1769.74,-85.12 1779.5,-81 1769.3,-78.13 1769.74,-85.12"/>
</g>
<!-- _core_2d__core_2dend_main_pass_post_processing&#45;&gt;_core_2d__core_2dui_pass -->
<g id="edge19" class="edge">
<title>_core_2d__core_2dend_main_pass_post_processing:e&#45;&gt;_core_2d__core_2dui_pass:w</title>
<path fill="none" stroke="white" d="M1487.5,-111C1526.45,-111 1534.84,-86.15 1568.3,-81.68"/>
<polygon fill="white" stroke="white" points="1568.24,-85.13 1578,-81 1567.8,-78.14 1568.24,-85.13"/>
</g>
<!-- _core_2d__core_2dui_pass&#45;&gt;_core_2d__core_2dupscaling -->
<g id="edge14" class="edge">
<title>_core_2d__core_2dui_pass:e&#45;&gt;_core_2d__core_2dupscaling:w</title>
<path fill="none" stroke="white" d="M1689,-81C1725.85,-81 1737.66,-81 1769.82,-81"/>
<polygon fill="white" stroke="white" points="1769.5,-84.5 1779.5,-81 1769.5,-77.5 1769.5,-84.5"/>
</g>
<!-- _core_3d_draw_ui__core_3d_draw_uiGraphInputNode -->
<g id="node12" class="node">
<title>_core_3d_draw_ui__core_3d_draw_uiGraphInputNode</title>
<text text-anchor="start" x="100.5" y="-779.3" font-family="Helvetica,sans-Serif" font-size="14.00" fill="white">GraphInputNode</text>
<text text-anchor="start" x="115" y="-768.5" font-family="Helvetica,sans-Serif" font-size="10.00" fill="red">GraphInputNode</text>
<polygon fill="none" stroke="white" points="35,-740.5 35,-761.5 150,-761.5 150,-740.5 35,-740.5"/>
<text text-anchor="start" x="38" y="-747.3" font-family="Helvetica,sans-Serif" font-size="14.00" fill="white">view_entity: Entity</text>
<polygon fill="none" stroke="white" points="152,-740.5 152,-761.5 267,-761.5 267,-740.5 152,-740.5"/>
<text text-anchor="start" x="155" y="-747.3" font-family="Helvetica,sans-Serif" font-size="14.00" fill="white">view_entity: Entity</text>
<path fill="none" stroke="white" d="M44,-737.5C44,-737.5 258,-737.5 258,-737.5 264,-737.5 270,-743.5 270,-749.5 270,-749.5 270,-782.5 270,-782.5 270,-788.5 264,-794.5 258,-794.5 258,-794.5 44,-794.5 44,-794.5 38,-794.5 32,-788.5 32,-782.5 32,-782.5 32,-749.5 32,-749.5 32,-743.5 38,-737.5 44,-737.5"/>
</g>
<!-- _core_3d_draw_ui__core_3d_draw_uiui_pass -->
<g id="node13" class="node">
<title>_core_3d_draw_ui__core_3d_draw_uiui_pass</title>
<text text-anchor="start" x="390" y="-779.3" font-family="Helvetica,sans-Serif" font-size="14.00" fill="white">ui_pass</text>
<text text-anchor="start" x="385.5" y="-768.5" font-family="Helvetica,sans-Serif" font-size="10.00" fill="red">UiPassNode</text>
<polygon fill="none" stroke="white" points="371,-740.5 371,-761.5 446,-761.5 446,-740.5 371,-740.5"/>
<text text-anchor="start" x="374" y="-747.3" font-family="Helvetica,sans-Serif" font-size="14.00" fill="white">view: Entity</text>
<text text-anchor="start" x="450" y="-747.3" font-family="Helvetica,sans-Serif" font-size="14.00" fill="white"> </text>
<path fill="none" stroke="white" d="M380,-737.5C380,-737.5 447,-737.5 447,-737.5 453,-737.5 459,-743.5 459,-749.5 459,-749.5 459,-782.5 459,-782.5 459,-788.5 453,-794.5 447,-794.5 447,-794.5 380,-794.5 380,-794.5 374,-794.5 368,-788.5 368,-782.5 368,-782.5 368,-749.5 368,-749.5 368,-743.5 374,-737.5 380,-737.5"/>
</g>
<!-- _core_3d_draw_ui__core_3d_draw_uiGraphInputNode&#45;&gt;_core_3d_draw_ui__core_3d_draw_uiui_pass -->
<g id="edge20" class="edge">
<title>_core_3d_draw_ui__core_3d_draw_uiGraphInputNode:e&#45;&gt;_core_3d_draw_ui__core_3d_draw_uiui_pass:w</title>
<path fill="none" stroke="#715ed6" d="M268,-751C309.23,-751 322.2,-751 358.58,-751"/>
<polygon fill="#715ed6" stroke="#715ed6" points="358.5,-754.5 368.5,-751 358.5,-747.5 358.5,-754.5"/>
</g>
<!-- _core_3d__core_3dbloom -->
<g id="node14" class="node">
<title>_core_3d__core_3dbloom</title>
<text text-anchor="start" x="763" y="-469.3" font-family="Helvetica,sans-Serif" font-size="14.00" fill="white">bloom</text>
<text text-anchor="start" x="755.5" y="-458.5" font-family="Helvetica,sans-Serif" font-size="10.00" fill="red">BloomNode</text>
<polygon fill="none" stroke="white" points="739,-430.5 739,-451.5 814,-451.5 814,-430.5 739,-430.5"/>
<text text-anchor="start" x="742" y="-437.3" font-family="Helvetica,sans-Serif" font-size="14.00" fill="white">view: Entity</text>
<text text-anchor="start" x="818" y="-437.3" font-family="Helvetica,sans-Serif" font-size="14.00" fill="white"> </text>
<path fill="none" stroke="white" d="M748,-427.5C748,-427.5 815,-427.5 815,-427.5 821,-427.5 827,-433.5 827,-439.5 827,-439.5 827,-472.5 827,-472.5 827,-478.5 821,-484.5 815,-484.5 815,-484.5 748,-484.5 748,-484.5 742,-484.5 736,-478.5 736,-472.5 736,-472.5 736,-439.5 736,-439.5 736,-433.5 742,-427.5 748,-427.5"/>
</g>
<!-- _core_3d__core_3dtonemapping -->
<g id="node19" class="node">
<title>_core_3d__core_3dtonemapping</title>
<text text-anchor="start" x="922.5" y="-469.3" font-family="Helvetica,sans-Serif" font-size="14.00" fill="white">tonemapping</text>
<text text-anchor="start" x="921" y="-458.5" font-family="Helvetica,sans-Serif" font-size="10.00" fill="red">TonemappingNode</text>
<polygon fill="none" stroke="white" points="918,-430.5 918,-451.5 994,-451.5 994,-430.5 918,-430.5"/>
<text text-anchor="start" x="921.5" y="-437.3" font-family="Helvetica,sans-Serif" font-size="14.00" fill="white">view: Entity</text>
<text text-anchor="start" x="999" y="-437.3" font-family="Helvetica,sans-Serif" font-size="14.00" fill="white"> </text>
<path fill="none" stroke="white" d="M927,-427.5C927,-427.5 997,-427.5 997,-427.5 1003,-427.5 1009,-433.5 1009,-439.5 1009,-439.5 1009,-472.5 1009,-472.5 1009,-478.5 1003,-484.5 997,-484.5 997,-484.5 927,-484.5 927,-484.5 921,-484.5 915,-478.5 915,-472.5 915,-472.5 915,-439.5 915,-439.5 915,-433.5 921,-427.5 927,-427.5"/>
</g>
<!-- _core_3d__core_3dbloom&#45;&gt;_core_3d__core_3dtonemapping -->
<g id="edge33" class="edge">
<title>_core_3d__core_3dbloom:e&#45;&gt;_core_3d__core_3dtonemapping:w</title>
<path fill="none" stroke="white" d="M825.5,-468C862.35,-468 874.16,-468 906.32,-468"/>
<polygon fill="white" stroke="white" points="906,-471.5 916,-468 906,-464.5 906,-471.5"/>
</g>
<!-- _core_3d__core_3dmain_pass -->
<g id="node15" class="node">
<title>_core_3d__core_3dmain_pass</title>
<text text-anchor="start" x="569.5" y="-509.3" font-family="Helvetica,sans-Serif" font-size="14.00" fill="white">main_pass</text>
<text text-anchor="start" x="563.5" y="-498.5" font-family="Helvetica,sans-Serif" font-size="10.00" fill="red">MainPass3dNode</text>
<polygon fill="none" stroke="white" points="560,-470.5 560,-491.5 635,-491.5 635,-470.5 560,-470.5"/>
<text text-anchor="start" x="563" y="-477.3" font-family="Helvetica,sans-Serif" font-size="14.00" fill="white">view: Entity</text>
<text text-anchor="start" x="639" y="-477.3" font-family="Helvetica,sans-Serif" font-size="14.00" fill="white"> </text>
<path fill="none" stroke="white" d="M569,-467.5C569,-467.5 636,-467.5 636,-467.5 642,-467.5 648,-473.5 648,-479.5 648,-479.5 648,-512.5 648,-512.5 648,-518.5 642,-524.5 636,-524.5 636,-524.5 569,-524.5 569,-524.5 563,-524.5 557,-518.5 557,-512.5 557,-512.5 557,-479.5 557,-479.5 557,-473.5 563,-467.5 569,-467.5"/>
</g>
<!-- _core_3d__core_3dmain_pass&#45;&gt;_core_3d__core_3dbloom -->
<g id="edge22" class="edge">
<title>_core_3d__core_3dmain_pass:e&#45;&gt;_core_3d__core_3dbloom:w</title>
<path fill="none" stroke="white" d="M646.5,-508C686.71,-508 692.51,-474.86 726.54,-468.91"/>
<polygon fill="white" stroke="white" points="726.82,-472.32 736.5,-468 726.24,-465.34 726.82,-472.32"/>
</g>
<!-- _core_3d__core_3dmain_pass&#45;&gt;_core_3d__core_3dtonemapping -->
<g id="edge32" class="edge">
<title>_core_3d__core_3dmain_pass:e&#45;&gt;_core_3d__core_3dtonemapping:w</title>
<path fill="none" stroke="white" d="M646.5,-508C730.4,-508 752.81,-514.82 835,-498 869.16,-491.01 876.8,-472.36 906.15,-468.65"/>
<polygon fill="white" stroke="white" points="906.23,-472.09 916,-468 905.81,-465.1 906.23,-472.09"/>
</g>
<!-- _core_3d__core_3dui_pass -->
<g id="node24" class="node">
<title>_core_3d__core_3dui_pass</title>
<text text-anchor="start" x="1610.5" y="-614.3" font-family="Helvetica,sans-Serif" font-size="14.00" fill="white">ui_pass</text>
<text text-anchor="start" x="1583" y="-603.5" font-family="Helvetica,sans-Serif" font-size="10.00" fill="red">RunGraphOnViewNode</text>
<polygon fill="none" stroke="white" points="1580,-575.5 1580,-596.5 1666,-596.5 1666,-575.5 1580,-575.5"/>
<text text-anchor="start" x="1588.5" y="-582.3" font-family="Helvetica,sans-Serif" font-size="14.00" fill="white">view: Entity</text>
<text text-anchor="start" x="1676" y="-582.3" font-family="Helvetica,sans-Serif" font-size="14.00" fill="white"> </text>
<path fill="none" stroke="white" d="M1589,-572.5C1589,-572.5 1679,-572.5 1679,-572.5 1685,-572.5 1691,-578.5 1691,-584.5 1691,-584.5 1691,-617.5 1691,-617.5 1691,-623.5 1685,-629.5 1679,-629.5 1679,-629.5 1589,-629.5 1589,-629.5 1583,-629.5 1577,-623.5 1577,-617.5 1577,-617.5 1577,-584.5 1577,-584.5 1577,-578.5 1583,-572.5 1589,-572.5"/>
</g>
<!-- _core_3d__core_3dmain_pass&#45;&gt;_core_3d__core_3dui_pass -->
<g id="edge40" class="edge">
<title>_core_3d__core_3dmain_pass:e&#45;&gt;_core_3d__core_3dui_pass:w</title>
<path fill="none" stroke="white" d="M646.5,-508C808.89,-508 798.61,-694 961,-694 961,-694 961,-694 1143.5,-694 1336.72,-694 1380.52,-615.98 1568.2,-613.08"/>
<polygon fill="white" stroke="white" points="1568.03,-616.58 1578,-613 1567.97,-609.58 1568.03,-616.58"/>
</g>
<!-- _core_3d__core_3dfxaa -->
<g id="node16" class="node">
<title>_core_3d__core_3dfxaa</title>
<text text-anchor="start" x="1129.5" y="-429.3" font-family="Helvetica,sans-Serif" font-size="14.00" fill="white">fxaa</text>
<text text-anchor="start" x="1120" y="-418.5" font-family="Helvetica,sans-Serif" font-size="10.00" fill="red">FxaaNode</text>
<polygon fill="none" stroke="white" points="1100,-390.5 1100,-411.5 1175,-411.5 1175,-390.5 1100,-390.5"/>
<text text-anchor="start" x="1103" y="-397.3" font-family="Helvetica,sans-Serif" font-size="14.00" fill="white">view: Entity</text>
<text text-anchor="start" x="1179" y="-397.3" font-family="Helvetica,sans-Serif" font-size="14.00" fill="white"> </text>
<path fill="none" stroke="white" d="M1109,-387.5C1109,-387.5 1176,-387.5 1176,-387.5 1182,-387.5 1188,-393.5 1188,-399.5 1188,-399.5 1188,-432.5 1188,-432.5 1188,-438.5 1182,-444.5 1176,-444.5 1176,-444.5 1109,-444.5 1109,-444.5 1103,-444.5 1097,-438.5 1097,-432.5 1097,-432.5 1097,-399.5 1097,-399.5 1097,-393.5 1103,-387.5 1109,-387.5"/>
</g>
<!-- _core_3d__core_3dend_main_pass_post_processing -->
<g id="node23" class="node">
<title>_core_3d__core_3dend_main_pass_post_processing</title>
<text text-anchor="start" x="1281.5" y="-469.8" font-family="Helvetica,sans-Serif" font-size="14.00" fill="white">end_main_pass_post_processing</text>
<text text-anchor="start" x="1357" y="-459" font-family="Helvetica,sans-Serif" font-size="10.00" fill="red">EmptyNode</text>
<path fill="none" stroke="white" d="M1287.33,-451C1287.33,-451 1477.67,-451 1477.67,-451 1483.33,-451 1489,-456.67 1489,-462.33 1489,-462.33 1489,-473.67 1489,-473.67 1489,-479.33 1483.33,-485 1477.67,-485 1477.67,-485 1287.33,-485 1287.33,-485 1281.67,-485 1276,-479.33 1276,-473.67 1276,-473.67 1276,-462.33 1276,-462.33 1276,-456.67 1281.67,-451 1287.33,-451"/>
</g>
<!-- _core_3d__core_3dfxaa&#45;&gt;_core_3d__core_3dend_main_pass_post_processing -->
<g id="edge39" class="edge">
<title>_core_3d__core_3dfxaa:e&#45;&gt;_core_3d__core_3dend_main_pass_post_processing:w</title>
<path fill="none" stroke="white" d="M1186.5,-428C1226.71,-428 1232.51,-461.14 1266.54,-467.09"/>
<polygon fill="white" stroke="white" points="1266.24,-470.66 1276.5,-468 1266.82,-463.68 1266.24,-470.66"/>
</g>
<!-- _core_3d__core_3dmsaa_writeback -->
<g id="node17" class="node">
<title>_core_3d__core_3dmsaa_writeback</title>
<text text-anchor="start" x="364" y="-675.3" font-family="Helvetica,sans-Serif" font-size="14.00" fill="white">msaa_writeback</text>
<text text-anchor="start" x="368" y="-664.5" font-family="Helvetica,sans-Serif" font-size="10.00" fill="red">MsaaWritebackNode</text>
<polygon fill="none" stroke="white" points="361,-636.5 361,-657.5 446,-657.5 446,-636.5 361,-636.5"/>
<text text-anchor="start" x="369" y="-643.3" font-family="Helvetica,sans-Serif" font-size="14.00" fill="white">view: Entity</text>
<text text-anchor="start" x="455" y="-643.3" font-family="Helvetica,sans-Serif" font-size="14.00" fill="white"> </text>
<path fill="none" stroke="white" d="M370,-633.5C370,-633.5 457,-633.5 457,-633.5 463,-633.5 469,-639.5 469,-645.5 469,-645.5 469,-678.5 469,-678.5 469,-684.5 463,-690.5 457,-690.5 457,-690.5 370,-690.5 370,-690.5 364,-690.5 358,-684.5 358,-678.5 358,-678.5 358,-645.5 358,-645.5 358,-639.5 364,-633.5 370,-633.5"/>
</g>
<!-- _core_3d__core_3dmsaa_writeback&#45;&gt;_core_3d__core_3dmain_pass -->
<g id="edge25" class="edge">
<title>_core_3d__core_3dmsaa_writeback:e&#45;&gt;_core_3d__core_3dmain_pass:w</title>
<path fill="none" stroke="white" d="M467.5,-674C547.69,-674 481.25,-523.2 547.7,-509.06"/>
<polygon fill="white" stroke="white" points="547.89,-512.46 557.5,-508 547.21,-505.49 547.89,-512.46"/>
</g>
<!-- _core_3d__core_3dprepass -->
<g id="node18" class="node">
<title>_core_3d__core_3dprepass</title>
<text text-anchor="start" x="389" y="-509.3" font-family="Helvetica,sans-Serif" font-size="14.00" fill="white">prepass</text>
<text text-anchor="start" x="383.5" y="-498.5" font-family="Helvetica,sans-Serif" font-size="10.00" fill="red">PrepassNode</text>
<polygon fill="none" stroke="white" points="371,-470.5 371,-491.5 446,-491.5 446,-470.5 371,-470.5"/>
<text text-anchor="start" x="374" y="-477.3" font-family="Helvetica,sans-Serif" font-size="14.00" fill="white">view: Entity</text>
<text text-anchor="start" x="450" y="-477.3" font-family="Helvetica,sans-Serif" font-size="14.00" fill="white"> </text>
<path fill="none" stroke="white" d="M380,-467.5C380,-467.5 447,-467.5 447,-467.5 453,-467.5 459,-473.5 459,-479.5 459,-479.5 459,-512.5 459,-512.5 459,-518.5 453,-524.5 447,-524.5 447,-524.5 380,-524.5 380,-524.5 374,-524.5 368,-518.5 368,-512.5 368,-512.5 368,-479.5 368,-479.5 368,-473.5 374,-467.5 380,-467.5"/>
</g>
<!-- _core_3d__core_3dprepass&#45;&gt;_core_3d__core_3dmain_pass -->
<g id="edge24" class="edge">
<title>_core_3d__core_3dprepass:e&#45;&gt;_core_3d__core_3dmain_pass:w</title>
<path fill="none" stroke="white" d="M457.5,-508C498.53,-508 511.43,-508 547.63,-508"/>
<polygon fill="white" stroke="white" points="547.5,-511.5 557.5,-508 547.5,-504.5 547.5,-511.5"/>
</g>
<!-- _core_3d__core_3dtonemapping&#45;&gt;_core_3d__core_3dfxaa -->
<g id="edge28" class="edge">
<title>_core_3d__core_3dtonemapping:e&#45;&gt;_core_3d__core_3dfxaa:w</title>
<path fill="none" stroke="white" d="M1007,-468C1047.57,-468 1053.34,-434.58 1087.93,-428.84"/>
<polygon fill="white" stroke="white" points="1087.81,-432.28 1097.5,-428 1087.26,-425.3 1087.81,-432.28"/>
</g>
<!-- _core_3d__core_3dtonemapping&#45;&gt;_core_3d__core_3dend_main_pass_post_processing -->
<g id="edge38" class="edge">
<title>_core_3d__core_3dtonemapping:e&#45;&gt;_core_3d__core_3dend_main_pass_post_processing:w</title>
<path fill="none" stroke="white" d="M1007,-468C1123.58,-468 1155.38,-468 1266.82,-468"/>
<polygon fill="white" stroke="white" points="1266.5,-471.5 1276.5,-468 1266.5,-464.5 1266.5,-471.5"/>
</g>
<!-- _core_3d__core_3dupscaling -->
<g id="node20" class="node">
<title>_core_3d__core_3dupscaling</title>
<text text-anchor="start" x="1795.5" y="-469.3" font-family="Helvetica,sans-Serif" font-size="14.00" fill="white">upscaling</text>
<text text-anchor="start" x="1791" y="-458.5" font-family="Helvetica,sans-Serif" font-size="10.00" fill="red">UpscalingNode</text>
<polygon fill="none" stroke="white" points="1782,-430.5 1782,-451.5 1857,-451.5 1857,-430.5 1782,-430.5"/>
<text text-anchor="start" x="1785" y="-437.3" font-family="Helvetica,sans-Serif" font-size="14.00" fill="white">view: Entity</text>
<text text-anchor="start" x="1861" y="-437.3" font-family="Helvetica,sans-Serif" font-size="14.00" fill="white"> </text>
<path fill="none" stroke="white" d="M1791,-427.5C1791,-427.5 1858,-427.5 1858,-427.5 1864,-427.5 1870,-433.5 1870,-439.5 1870,-439.5 1870,-472.5 1870,-472.5 1870,-478.5 1864,-484.5 1858,-484.5 1858,-484.5 1791,-484.5 1791,-484.5 1785,-484.5 1779,-478.5 1779,-472.5 1779,-472.5 1779,-439.5 1779,-439.5 1779,-433.5 1785,-427.5 1791,-427.5"/>
</g>
<!-- _core_3d__core_3dshadow_pass -->
<g id="node21" class="node">
<title>_core_3d__core_3dshadow_pass</title>
<text text-anchor="start" x="372" y="-592.3" font-family="Helvetica,sans-Serif" font-size="14.00" fill="white">shadow_pass</text>
<text text-anchor="start" x="372.5" y="-581.5" font-family="Helvetica,sans-Serif" font-size="10.00" fill="red">ShadowPassNode</text>
<polygon fill="none" stroke="white" points="369,-553.5 369,-574.5 446,-574.5 446,-553.5 369,-553.5"/>
<text text-anchor="start" x="373" y="-560.3" font-family="Helvetica,sans-Serif" font-size="14.00" fill="white">view: Entity</text>
<text text-anchor="start" x="451" y="-560.3" font-family="Helvetica,sans-Serif" font-size="14.00" fill="white"> </text>
<path fill="none" stroke="white" d="M378,-550.5C378,-550.5 449,-550.5 449,-550.5 455,-550.5 461,-556.5 461,-562.5 461,-562.5 461,-595.5 461,-595.5 461,-601.5 455,-607.5 449,-607.5 449,-607.5 378,-607.5 378,-607.5 372,-607.5 366,-601.5 366,-595.5 366,-595.5 366,-562.5 366,-562.5 366,-556.5 372,-550.5 378,-550.5"/>
</g>
<!-- _core_3d__core_3dshadow_pass&#45;&gt;_core_3d__core_3dmain_pass -->
<g id="edge26" class="edge">
<title>_core_3d__core_3dshadow_pass:e&#45;&gt;_core_3d__core_3dmain_pass:w</title>
<path fill="none" stroke="white" d="M459.5,-591C512.99,-591 502.9,-518.96 547.71,-509.11"/>
<polygon fill="white" stroke="white" points="547.91,-512.51 557.5,-508 547.19,-505.54 547.91,-512.51"/>
</g>
<!-- _core_3d__core_3dGraphInputNode -->
<g id="node22" class="node">
<title>_core_3d__core_3dGraphInputNode</title>
<text text-anchor="start" x="100.5" y="-472.3" font-family="Helvetica,sans-Serif" font-size="14.00" fill="white">GraphInputNode</text>
<text text-anchor="start" x="115" y="-461.5" font-family="Helvetica,sans-Serif" font-size="10.00" fill="red">GraphInputNode</text>
<polygon fill="none" stroke="white" points="35,-433.5 35,-454.5 150,-454.5 150,-433.5 35,-433.5"/>
<text text-anchor="start" x="38" y="-440.3" font-family="Helvetica,sans-Serif" font-size="14.00" fill="white">view_entity: Entity</text>
<polygon fill="none" stroke="white" points="152,-433.5 152,-454.5 267,-454.5 267,-433.5 152,-433.5"/>
<text text-anchor="start" x="155" y="-440.3" font-family="Helvetica,sans-Serif" font-size="14.00" fill="white">view_entity: Entity</text>
<path fill="none" stroke="white" d="M44,-430.5C44,-430.5 258,-430.5 258,-430.5 264,-430.5 270,-436.5 270,-442.5 270,-442.5 270,-475.5 270,-475.5 270,-481.5 264,-487.5 258,-487.5 258,-487.5 44,-487.5 44,-487.5 38,-487.5 32,-481.5 32,-475.5 32,-475.5 32,-442.5 32,-442.5 32,-436.5 38,-430.5 44,-430.5"/>
</g>
<!-- _core_3d__core_3dGraphInputNode&#45;&gt;_core_3d__core_3dbloom -->
<g id="edge21" class="edge">
<title>_core_3d__core_3dGraphInputNode:e&#45;&gt;_core_3d__core_3dbloom:w</title>
<path fill="none" stroke="#a79be6" d="M268,-444C304.51,-444 313.5,-440.11 350,-439 397.53,-437.55 636.86,-440.71 726.59,-440.98"/>
<polygon fill="#a79be6" stroke="#a79be6" points="726.49,-444.48 736.5,-441 726.51,-437.48 726.49,-444.48"/>
</g>
<!-- _core_3d__core_3dGraphInputNode&#45;&gt;_core_3d__core_3dmain_pass -->
<g id="edge23" class="edge">
<title>_core_3d__core_3dGraphInputNode:e&#45;&gt;_core_3d__core_3dmain_pass:w</title>
<path fill="none" stroke="#a79be6" d="M268,-444C361.02,-444 385.5,-438.28 477,-455 510.6,-461.14 518.92,-477.23 547.84,-480.44"/>
<polygon fill="#a79be6" stroke="#a79be6" points="547.33,-483.97 557.5,-481 547.7,-476.98 547.33,-483.97"/>
</g>
<!-- _core_3d__core_3dGraphInputNode&#45;&gt;_core_3d__core_3dfxaa -->
<g id="edge27" class="edge">
<title>_core_3d__core_3dGraphInputNode:e&#45;&gt;_core_3d__core_3dfxaa:w</title>
<path fill="none" stroke="#a79be6" d="M268,-444C305.97,-444 312.89,-428.04 350,-420 460.35,-396.08 488.58,-384 601.5,-384 601.5,-384 601.5,-384 782.5,-384 919.44,-384 955.95,-400.12 1087.59,-400.97"/>
<polygon fill="#a79be6" stroke="#a79be6" points="1087.49,-404.47 1097.5,-401 1087.51,-397.47 1087.49,-404.47"/>
</g>
<!-- _core_3d__core_3dGraphInputNode&#45;&gt;_core_3d__core_3dmsaa_writeback -->
<g id="edge29" class="edge">
<title>_core_3d__core_3dGraphInputNode:e&#45;&gt;_core_3d__core_3dmsaa_writeback:w</title>
<path fill="none" stroke="#a79be6" d="M268,-444C363.1,-444 268.54,-631.45 348.82,-646.09"/>
<polygon fill="#a79be6" stroke="#a79be6" points="348.24,-649.64 358.5,-647 348.83,-642.67 348.24,-649.64"/>
</g>
<!-- _core_3d__core_3dGraphInputNode&#45;&gt;_core_3d__core_3dprepass -->
<g id="edge30" class="edge">
<title>_core_3d__core_3dGraphInputNode:e&#45;&gt;_core_3d__core_3dprepass:w</title>
<path fill="none" stroke="#a79be6" d="M268,-444C312.26,-444 320.37,-475.44 358.98,-480.36"/>
<polygon fill="#a79be6" stroke="#a79be6" points="358.31,-483.88 368.5,-481 358.73,-476.9 358.31,-483.88"/>
</g>
<!-- _core_3d__core_3dGraphInputNode&#45;&gt;_core_3d__core_3dtonemapping -->
<g id="edge31" class="edge">
<title>_core_3d__core_3dGraphInputNode:e&#45;&gt;_core_3d__core_3dtonemapping:w</title>
<path fill="none" stroke="#a79be6" d="M268,-444C304.71,-444 313.42,-437.15 350,-434 517.59,-419.59 559.84,-419.22 728,-415 775.54,-413.81 788,-407.73 835,-415 868.95,-420.25 877.22,-437.05 906.28,-440.41"/>
<polygon fill="#a79be6" stroke="#a79be6" points="905.82,-443.95 916,-441 906.21,-436.96 905.82,-443.95"/>
</g>
<!-- _core_3d__core_3dGraphInputNode&#45;&gt;_core_3d__core_3dupscaling -->
<g id="edge34" class="edge">
<title>_core_3d__core_3dGraphInputNode:e&#45;&gt;_core_3d__core_3dupscaling:w</title>
<path fill="none" stroke="#a79be6" d="M268,-444C311.88,-444 308.7,-403.84 350,-389 455.71,-351.02 489.17,-364 601.5,-364 601.5,-364 601.5,-364 1383.5,-364 1559.55,-364 1599.17,-437.87 1769.62,-440.9"/>
<polygon fill="#a79be6" stroke="#a79be6" points="1769.47,-444.41 1779.5,-441 1769.53,-437.41 1769.47,-444.41"/>
</g>
<!-- _core_3d__core_3dGraphInputNode&#45;&gt;_core_3d__core_3dshadow_pass -->
<g id="edge37" class="edge">
<title>_core_3d__core_3dGraphInputNode:e&#45;&gt;_core_3d__core_3dshadow_pass:w</title>
<path fill="none" stroke="#a79be6" d="M268,-444C333.36,-444 302.3,-550.79 356.73,-562.89"/>
<polygon fill="#a79be6" stroke="#a79be6" points="356.19,-566.45 366.5,-564 356.91,-559.49 356.19,-566.45"/>
</g>
<!-- _core_3d__core_3dGraphInputNode&#45;&gt;_core_3d__core_3dui_pass -->
<g id="edge42" class="edge">
<title>_core_3d__core_3dGraphInputNode:e&#45;&gt;_core_3d__core_3dui_pass:w</title>
<path fill="none" stroke="#a79be6" d="M268,-444C389.17,-444 253.73,-630.43 350,-704 372.22,-720.98 573.53,-714 601.5,-714 601.5,-714 601.5,-714 782.5,-714 1137.37,-714 1218.8,-588.61 1568.06,-586.04"/>
<polygon fill="#a79be6" stroke="#a79be6" points="1568.01,-589.54 1578,-586 1567.99,-582.54 1568.01,-589.54"/>
</g>
<!-- _core_3d__core_3dend_main_pass_post_processing&#45;&gt;_core_3d__core_3dupscaling -->
<g id="edge35" class="edge">
<title>_core_3d__core_3dend_main_pass_post_processing:e&#45;&gt;_core_3d__core_3dupscaling:w</title>
<path fill="none" stroke="white" d="M1487.5,-468C1614.03,-468 1648.36,-468 1769.67,-468"/>
<polygon fill="white" stroke="white" points="1769.5,-471.5 1779.5,-468 1769.5,-464.5 1769.5,-471.5"/>
</g>
<!-- _core_3d__core_3dend_main_pass_post_processing&#45;&gt;_core_3d__core_3dui_pass -->
<g id="edge41" class="edge">
<title>_core_3d__core_3dend_main_pass_post_processing:e&#45;&gt;_core_3d__core_3dui_pass:w</title>
<path fill="none" stroke="white" d="M1487.5,-468C1559.83,-468 1508.63,-598.65 1568.42,-611.92"/>
<polygon fill="white" stroke="white" points="1567.7,-615.46 1578,-613 1568.41,-608.5 1567.7,-615.46"/>
</g>
<!-- _core_3d__core_3dui_pass&#45;&gt;_core_3d__core_3dupscaling -->
<g id="edge36" class="edge">
<title>_core_3d__core_3dui_pass:e&#45;&gt;_core_3d__core_3dupscaling:w</title>
<path fill="none" stroke="white" d="M1689,-613C1761.33,-613 1710.13,-482.35 1769.92,-469.08"/>
<polygon fill="white" stroke="white" points="1769.91,-472.5 1779.5,-468 1769.2,-465.54 1769.91,-472.5"/>
</g>
<!-- _camera_driver -->
<g id="node25" class="node">
<title>_camera_driver</title>
<text text-anchor="start" x="107.5" y="-891.8" font-family="Helvetica,sans-Serif" font-size="14.00" fill="white">camera_driver</text>
<text text-anchor="start" x="109.5" y="-881" font-family="Helvetica,sans-Serif" font-size="10.00" fill="red">CameraDriverNode</text>
<path fill="none" stroke="white" d="M113.33,-873C113.33,-873 188.67,-873 188.67,-873 194.33,-873 200,-878.67 200,-884.33 200,-884.33 200,-895.67 200,-895.67 200,-901.33 194.33,-907 188.67,-907 188.67,-907 113.33,-907 113.33,-907 107.67,-907 102,-901.33 102,-895.67 102,-895.67 102,-884.33 102,-884.33 102,-878.67 107.67,-873 113.33,-873"/>
</g>
</g>
</svg>
