<?xml version="1.0" encoding="UTF-8" standalone="no"?>
<!DOCTYPE svg PUBLIC "-//W3C//DTD SVG 1.1//EN"
 "http://www.w3.org/Graphics/SVG/1.1/DTD/svg11.dtd">
<!-- Generated by graphviz version 14.1.1 (0)
 -->
<!-- Title: RenderGraph Pages: 1 -->
<svg width="8251pt" height="523pt"
 viewBox="0.00 0.00 8251.00 523.00" xmlns="http://www.w3.org/2000/svg" xmlns:xlink="http://www.w3.org/1999/xlink">
<g id="graph0" class="graph" transform="scale(1 1) rotate(0) translate(4 518.9)">
<title>RenderGraph</title>
<polygon fill="#0d1117" stroke="none" points="-4,4 -4,-518.9 8247,-518.9 8247,4 -4,4"/>
<g id="clust1" class="cluster">
<title>cluster_Core2d</title>
<path fill="#343a42" stroke="#343a42" d="M40.25,-19.9C40.25,-19.9 4549.75,-19.9 4549.75,-19.9 4555.75,-19.9 4561.75,-25.9 4561.75,-31.9 4561.75,-31.9 4561.75,-210.9 4561.75,-210.9 4561.75,-216.9 4555.75,-222.9 4549.75,-222.9 4549.75,-222.9 40.25,-222.9 40.25,-222.9 34.25,-222.9 28.25,-216.9 28.25,-210.9 28.25,-210.9 28.25,-31.9 28.25,-31.9 28.25,-25.9 34.25,-19.9 40.25,-19.9"/>
<text xml:space="preserve" text-anchor="middle" x="2295" y="-205.6" font-family="Times,serif" font-size="14.00" fill="white">Core2d</text>
</g>
<g id="clust2" class="cluster">
<title>cluster_Core2d_SubGraphUi</title>
<path fill="#6f90ad" stroke="#6f90ad" d="M110.38,-31.9C110.38,-31.9 190.88,-31.9 190.88,-31.9 196.88,-31.9 202.88,-37.9 202.88,-43.9 202.88,-43.9 202.88,-102.9 202.88,-102.9 202.88,-108.9 196.88,-114.9 190.88,-114.9 190.88,-114.9 110.38,-114.9 110.38,-114.9 104.38,-114.9 98.38,-108.9 98.38,-102.9 98.38,-102.9 98.38,-43.9 98.38,-43.9 98.38,-37.9 104.38,-31.9 110.38,-31.9"/>
<text xml:space="preserve" text-anchor="middle" x="150.62" y="-97.6" font-family="Times,serif" font-size="14.00">SubGraphUi</text>
</g>
<g id="clust3" class="cluster">
<title>cluster_Core3d</title>
<path fill="#343a42" stroke="#343a42" d="M20,-230.9C20,-230.9 8223,-230.9 8223,-230.9 8229,-230.9 8235,-236.9 8235,-242.9 8235,-242.9 8235,-452.9 8235,-452.9 8235,-458.9 8229,-464.9 8223,-464.9 8223,-464.9 20,-464.9 20,-464.9 14,-464.9 8,-458.9 8,-452.9 8,-452.9 8,-242.9 8,-242.9 8,-236.9 14,-230.9 20,-230.9"/>
<text xml:space="preserve" text-anchor="middle" x="4121.5" y="-447.6" font-family="Times,serif" font-size="14.00" fill="white">Core3d</text>
</g>
<g id="clust4" class="cluster">
<title>cluster_Core3d_SubGraphUi</title>
<path fill="#6f90ad" stroke="#6f90ad" d="M110.38,-238.9C110.38,-238.9 190.88,-238.9 190.88,-238.9 196.88,-238.9 202.88,-244.9 202.88,-250.9 202.88,-250.9 202.88,-309.9 202.88,-309.9 202.88,-315.9 196.88,-321.9 190.88,-321.9 190.88,-321.9 110.38,-321.9 110.38,-321.9 104.38,-321.9 98.38,-315.9 98.38,-309.9 98.38,-309.9 98.38,-250.9 98.38,-250.9 98.38,-244.9 104.38,-238.9 110.38,-238.9"/>
<text xml:space="preserve" text-anchor="middle" x="150.62" y="-304.6" font-family="Times,serif" font-size="14.00">SubGraphUi</text>
</g>
<!-- _Core2d_SubGraphUi__Core2d_SubGraphUiUiPass -->
<g id="node1" class="node">
<title>_Core2d_SubGraphUi__Core2d_SubGraphUiUiPass</title>
<text xml:space="preserve" text-anchor="start" x="127.62" y="-60.6" font-family="Helvetica,sans-Serif" font-size="14.00" fill="white">UiPass</text>
<text xml:space="preserve" text-anchor="start" x="121.25" y="-50.4" font-family="Helvetica,sans-Serif" font-size="10.00" fill="red">UiPassNode</text>
<path fill="none" stroke="white" d="M127.58,-43.9C127.58,-43.9 172.67,-43.9 172.67,-43.9 178.33,-43.9 184,-49.57 184,-55.23 184,-55.23 184,-66.57 184,-66.57 184,-72.23 178.33,-77.9 172.67,-77.9 172.67,-77.9 127.58,-77.9 127.58,-77.9 121.92,-77.9 116.25,-72.23 116.25,-66.57 116.25,-66.57 116.25,-55.23 116.25,-55.23 116.25,-49.57 121.92,-43.9 127.58,-43.9"/>
</g>
<!-- _Core2d__Core2dContrastAdaptiveSharpening -->
<g id="node2" class="node">
<title>_Core2d__Core2dContrastAdaptiveSharpening</title>
<text xml:space="preserve" text-anchor="start" x="3428.88" y="-108.6" font-family="Helvetica,sans-Serif" font-size="14.00" fill="white">ContrastAdaptiveSharpening</text>
<text xml:space="preserve" text-anchor="start" x="3507.25" y="-98.4" font-family="Helvetica,sans-Serif" font-size="10.00" fill="red">CasNode</text>
<path fill="none" stroke="white" d="M3435.21,-91.9C3435.21,-91.9 3622.79,-91.9 3622.79,-91.9 3628.46,-91.9 3634.12,-97.57 3634.12,-103.23 3634.12,-103.23 3634.12,-114.57 3634.12,-114.57 3634.12,-120.23 3628.46,-125.9 3622.79,-125.9 3622.79,-125.9 3435.21,-125.9 3435.21,-125.9 3429.54,-125.9 3423.88,-120.23 3423.88,-114.57 3423.88,-114.57 3423.88,-103.23 3423.88,-103.23 3423.88,-97.57 3429.54,-91.9 3435.21,-91.9"/>
</g>
<!-- _Core2d__Core2dEndMainPassPostProcessing -->
<g id="node4" class="node">
<title>_Core2d__Core2dEndMainPassPostProcessing</title>
<text xml:space="preserve" text-anchor="start" x="3774" y="-108.6" font-family="Helvetica,sans-Serif" font-size="14.00" fill="white">EndMainPassPostProcessing</text>
<text xml:space="preserve" text-anchor="start" x="3842.62" y="-98.4" font-family="Helvetica,sans-Serif" font-size="10.00" fill="red">EmptyNode</text>
<path fill="none" stroke="white" d="M3780.33,-91.9C3780.33,-91.9 3961.92,-91.9 3961.92,-91.9 3967.58,-91.9 3973.25,-97.57 3973.25,-103.23 3973.25,-103.23 3973.25,-114.57 3973.25,-114.57 3973.25,-120.23 3967.58,-125.9 3961.92,-125.9 3961.92,-125.9 3780.33,-125.9 3780.33,-125.9 3774.67,-125.9 3769,-120.23 3769,-114.57 3769,-114.57 3769,-103.23 3769,-103.23 3769,-97.57 3774.67,-91.9 3780.33,-91.9"/>
</g>
<!-- _Core2d__Core2dContrastAdaptiveSharpening&#45;&gt;_Core2d__Core2dEndMainPassPostProcessing -->
<g id="edge7" class="edge">
<title>_Core2d__Core2dContrastAdaptiveSharpening:e&#45;&gt;_Core2d__Core2dEndMainPassPostProcessing:w</title>
<path fill="none" stroke="white" d="M3632.12,-108.9C3689.87,-108.9 3707.1,-108.9 3759.62,-108.9"/>
<polygon fill="white" stroke="white" points="3759.49,-112.4 3769.49,-108.9 3759.49,-105.4 3759.49,-112.4"/>
</g>
<!-- _Core2d__Core2dEndMainPass -->
<g id="node3" class="node">
<title>_Core2d__Core2dEndMainPass</title>
<text xml:space="preserve" text-anchor="start" x="1480.75" y="-145.6" font-family="Helvetica,sans-Serif" font-size="14.00" fill="white">EndMainPass</text>
<text xml:space="preserve" text-anchor="start" x="1497.62" y="-135.4" font-family="Helvetica,sans-Serif" font-size="10.00" fill="red">EmptyNode</text>
<path fill="none" stroke="white" d="M1487.08,-128.9C1487.08,-128.9 1565.17,-128.9 1565.17,-128.9 1570.83,-128.9 1576.5,-134.57 1576.5,-140.23 1576.5,-140.23 1576.5,-151.57 1576.5,-151.57 1576.5,-157.23 1570.83,-162.9 1565.17,-162.9 1565.17,-162.9 1487.08,-162.9 1487.08,-162.9 1481.42,-162.9 1475.75,-157.23 1475.75,-151.57 1475.75,-151.57 1475.75,-140.23 1475.75,-140.23 1475.75,-134.57 1481.42,-128.9 1487.08,-128.9"/>
</g>
<!-- _Core2d__Core2dStartMainPassPostProcessing -->
<g id="node6" class="node">
<title>_Core2d__Core2dStartMainPassPostProcessing</title>
<text xml:space="preserve" text-anchor="start" x="1776.75" y="-139.6" font-family="Helvetica,sans-Serif" font-size="14.00" fill="white">StartMainPassPostProcessing</text>
<text xml:space="preserve" text-anchor="start" x="1848.75" y="-129.4" font-family="Helvetica,sans-Serif" font-size="10.00" fill="red">EmptyNode</text>
<path fill="none" stroke="white" d="M1783.08,-122.9C1783.08,-122.9 1971.42,-122.9 1971.42,-122.9 1977.08,-122.9 1982.75,-128.57 1982.75,-134.23 1982.75,-134.23 1982.75,-145.57 1982.75,-145.57 1982.75,-151.23 1977.08,-156.9 1971.42,-156.9 1971.42,-156.9 1783.08,-156.9 1783.08,-156.9 1777.42,-156.9 1771.75,-151.23 1771.75,-145.57 1771.75,-145.57 1771.75,-134.23 1771.75,-134.23 1771.75,-128.57 1777.42,-122.9 1783.08,-122.9"/>
</g>
<!-- _Core2d__Core2dEndMainPass&#45;&gt;_Core2d__Core2dStartMainPassPostProcessing -->
<g id="edge9" class="edge">
<title>_Core2d__Core2dEndMainPass:e&#45;&gt;_Core2d__Core2dStartMainPassPostProcessing:w</title>
<path fill="none" stroke="white" d="M1574.5,-145.9C1659.29,-145.9 1683.14,-140.41 1762.69,-139.93"/>
<polygon fill="white" stroke="white" points="1762.25,-143.43 1772.24,-139.9 1762.23,-136.43 1762.25,-143.43"/>
</g>
<!-- _Core2d__Core2dUiPass -->
<g id="node16" class="node">
<title>_Core2d__Core2dUiPass</title>
<text xml:space="preserve" text-anchor="start" x="4156.62" y="-148.6" font-family="Helvetica,sans-Serif" font-size="14.00" fill="white">UiPass</text>
<text xml:space="preserve" text-anchor="start" x="4104.88" y="-138.4" font-family="Helvetica,sans-Serif" font-size="10.00" fill="red">RunUiSubgraphOnUiViewNode</text>
<path fill="none" stroke="white" d="M4111.21,-131.9C4111.21,-131.9 4247.04,-131.9 4247.04,-131.9 4252.71,-131.9 4258.38,-137.57 4258.38,-143.23 4258.38,-143.23 4258.38,-154.57 4258.38,-154.57 4258.38,-160.23 4252.71,-165.9 4247.04,-165.9 4247.04,-165.9 4111.21,-165.9 4111.21,-165.9 4105.54,-165.9 4099.88,-160.23 4099.88,-154.57 4099.88,-154.57 4099.88,-143.23 4099.88,-143.23 4099.88,-137.57 4105.54,-131.9 4111.21,-131.9"/>
</g>
<!-- _Core2d__Core2dEndMainPass&#45;&gt;_Core2d__Core2dUiPass -->
<g id="edge21" class="edge">
<title>_Core2d__Core2dEndMainPass:e&#45;&gt;_Core2d__Core2dUiPass:w</title>
<path fill="none" stroke="white" d="M1574.5,-145.9C1650.36,-145.9 1667.95,-162.97 1743.5,-169.9 1943.89,-188.29 1994.64,-188.9 2195.88,-188.9 2195.88,-188.9 2195.88,-188.9 3530,-188.9 3780.93,-188.9 3845.16,-150.1 4090.44,-148.93"/>
<polygon fill="white" stroke="white" points="4090.37,-152.43 4100.36,-148.9 4090.35,-145.43 4090.37,-152.43"/>
</g>
<!-- _Core2d__Core2dUpscaling -->
<g id="node12" class="node">
<title>_Core2d__Core2dUpscaling</title>
<text xml:space="preserve" text-anchor="start" x="4419.62" y="-128.6" font-family="Helvetica,sans-Serif" font-size="14.00" fill="white">Upscaling</text>
<text xml:space="preserve" text-anchor="start" x="4366.75" y="-118.4" font-family="Helvetica,sans-Serif" font-size="10.00" fill="red">ViewNodeRunner&lt;UpscalingNode&gt;</text>
<path fill="none" stroke="white" d="M4373.08,-111.9C4373.08,-111.9 4534.42,-111.9 4534.42,-111.9 4540.08,-111.9 4545.75,-117.57 4545.75,-123.23 4545.75,-123.23 4545.75,-134.57 4545.75,-134.57 4545.75,-140.23 4540.08,-145.9 4534.42,-145.9 4534.42,-145.9 4373.08,-145.9 4373.08,-145.9 4367.42,-145.9 4361.75,-140.23 4361.75,-134.57 4361.75,-134.57 4361.75,-123.23 4361.75,-123.23 4361.75,-117.57 4367.42,-111.9 4373.08,-111.9"/>
</g>
<!-- _Core2d__Core2dEndMainPassPostProcessing&#45;&gt;_Core2d__Core2dUpscaling -->
<g id="edge17" class="edge">
<title>_Core2d__Core2dEndMainPassPostProcessing:e&#45;&gt;_Core2d__Core2dUpscaling:w</title>
<path fill="none" stroke="white" d="M3971.25,-108.9C4109.32,-108.9 4144.09,-108.31 4281.75,-118.9 4314.21,-121.4 4324.71,-127.33 4352.27,-128.64"/>
<polygon fill="white" stroke="white" points="4352.16,-132.14 4362.24,-128.87 4352.32,-125.14 4352.16,-132.14"/>
</g>
<!-- _Core2d__Core2dEndMainPassPostProcessing&#45;&gt;_Core2d__Core2dUiPass -->
<g id="edge22" class="edge">
<title>_Core2d__Core2dEndMainPassPostProcessing:e&#45;&gt;_Core2d__Core2dUiPass:w</title>
<path fill="none" stroke="white" d="M3971.25,-108.9C4027.93,-108.9 4039.71,-143.76 4090.43,-148.39"/>
<polygon fill="white" stroke="white" points="4090.22,-151.89 4100.36,-148.83 4090.53,-144.9 4090.22,-151.89"/>
</g>
<!-- _Core2d__Core2dStartMainPass -->
<g id="node5" class="node">
<title>_Core2d__Core2dStartMainPass</title>
<text xml:space="preserve" text-anchor="start" x="454.75" y="-145.6" font-family="Helvetica,sans-Serif" font-size="14.00" fill="white">StartMainPass</text>
<text xml:space="preserve" text-anchor="start" x="475" y="-135.4" font-family="Helvetica,sans-Serif" font-size="10.00" fill="red">EmptyNode</text>
<path fill="none" stroke="white" d="M461.08,-128.9C461.08,-128.9 545.92,-128.9 545.92,-128.9 551.58,-128.9 557.25,-134.57 557.25,-140.23 557.25,-140.23 557.25,-151.57 557.25,-151.57 557.25,-157.23 551.58,-162.9 545.92,-162.9 545.92,-162.9 461.08,-162.9 461.08,-162.9 455.42,-162.9 449.75,-157.23 449.75,-151.57 449.75,-151.57 449.75,-140.23 449.75,-140.23 449.75,-134.57 455.42,-128.9 461.08,-128.9"/>
</g>
<!-- _Core2d__Core2dMainOpaquePass -->
<g id="node9" class="node">
<title>_Core2d__Core2dMainOpaquePass</title>
<text xml:space="preserve" text-anchor="start" x="787.12" y="-145.6" font-family="Helvetica,sans-Serif" font-size="14.00" fill="white">MainOpaquePass</text>
<text xml:space="preserve" text-anchor="start" x="735.75" y="-135.4" font-family="Helvetica,sans-Serif" font-size="10.00" fill="red">ViewNodeRunner&lt;MainOpaquePass2dNode&gt;</text>
<path fill="none" stroke="white" d="M742.08,-128.9C742.08,-128.9 950.67,-128.9 950.67,-128.9 956.33,-128.9 962,-134.57 962,-140.23 962,-140.23 962,-151.57 962,-151.57 962,-157.23 956.33,-162.9 950.67,-162.9 950.67,-162.9 742.08,-162.9 742.08,-162.9 736.42,-162.9 730.75,-157.23 730.75,-151.57 730.75,-151.57 730.75,-140.23 730.75,-140.23 730.75,-134.57 736.42,-128.9 742.08,-128.9"/>
</g>
<!-- _Core2d__Core2dStartMainPass&#45;&gt;_Core2d__Core2dMainOpaquePass -->
<g id="edge12" class="edge">
<title>_Core2d__Core2dStartMainPass:e&#45;&gt;_Core2d__Core2dMainOpaquePass:w</title>
<path fill="none" stroke="white" d="M555.25,-145.9C630.29,-145.9 651.79,-145.9 721.6,-145.9"/>
<polygon fill="white" stroke="white" points="721.24,-149.4 731.24,-145.9 721.24,-142.4 721.24,-149.4"/>
</g>
<!-- _Core2d__Core2dTonemapping -->
<g id="node11" class="node">
<title>_Core2d__Core2dTonemapping</title>
<text xml:space="preserve" text-anchor="start" x="2794.12" y="-108.6" font-family="Helvetica,sans-Serif" font-size="14.00" fill="white">Tonemapping</text>
<text xml:space="preserve" text-anchor="start" x="2745" y="-98.4" font-family="Helvetica,sans-Serif" font-size="10.00" fill="red">ViewNodeRunner&lt;TonemappingNode&gt;</text>
<path fill="none" stroke="white" d="M2751.33,-91.9C2751.33,-91.9 2929.92,-91.9 2929.92,-91.9 2935.58,-91.9 2941.25,-97.57 2941.25,-103.23 2941.25,-103.23 2941.25,-114.57 2941.25,-114.57 2941.25,-120.23 2935.58,-125.9 2929.92,-125.9 2929.92,-125.9 2751.33,-125.9 2751.33,-125.9 2745.67,-125.9 2740,-120.23 2740,-114.57 2740,-114.57 2740,-103.23 2740,-103.23 2740,-97.57 2745.67,-91.9 2751.33,-91.9"/>
</g>
<!-- _Core2d__Core2dStartMainPassPostProcessing&#45;&gt;_Core2d__Core2dTonemapping -->
<g id="edge14" class="edge">
<title>_Core2d__Core2dStartMainPassPostProcessing:e&#45;&gt;_Core2d__Core2dTonemapping:w</title>
<path fill="none" stroke="white" d="M1980.75,-139.9C2127.48,-139.9 2164.13,-135.69 2310.75,-129.9 2403.06,-126.25 2628.48,-110.16 2730.74,-108.97"/>
<polygon fill="white" stroke="white" points="2730.51,-112.47 2740.49,-108.91 2730.47,-105.47 2730.51,-112.47"/>
</g>
<!-- _Core2d__Core2dBloom -->
<g id="node13" class="node">
<title>_Core2d__Core2dBloom</title>
<text xml:space="preserve" text-anchor="start" x="2175.12" y="-99.6" font-family="Helvetica,sans-Serif" font-size="14.00" fill="white">Bloom</text>
<text xml:space="preserve" text-anchor="start" x="2118.12" y="-89.4" font-family="Helvetica,sans-Serif" font-size="10.00" fill="red">ViewNodeRunner&lt;BloomNode&gt;</text>
<path fill="none" stroke="white" d="M2124.46,-82.9C2124.46,-82.9 2269.29,-82.9 2269.29,-82.9 2274.96,-82.9 2280.62,-88.57 2280.62,-94.23 2280.62,-94.23 2280.62,-105.57 2280.62,-105.57 2280.62,-111.23 2274.96,-116.9 2269.29,-116.9 2269.29,-116.9 2124.46,-116.9 2124.46,-116.9 2118.79,-116.9 2113.12,-111.23 2113.12,-105.57 2113.12,-105.57 2113.12,-94.23 2113.12,-94.23 2113.12,-88.57 2118.79,-82.9 2124.46,-82.9"/>
</g>
<!-- _Core2d__Core2dStartMainPassPostProcessing&#45;&gt;_Core2d__Core2dBloom -->
<g id="edge19" class="edge">
<title>_Core2d__Core2dStartMainPassPostProcessing:e&#45;&gt;_Core2d__Core2dBloom:w</title>
<path fill="none" stroke="white" d="M1980.75,-139.9C2039.05,-139.9 2051.34,-104.89 2103.7,-100.38"/>
<polygon fill="white" stroke="white" points="2103.77,-103.88 2113.61,-99.96 2103.48,-96.88 2103.77,-103.88"/>
</g>
<!-- _Core2d__Core2dFxaa -->
<g id="node7" class="node">
<title>_Core2d__Core2dFxaa</title>
<text xml:space="preserve" text-anchor="start" x="3180.12" y="-68.6" font-family="Helvetica,sans-Serif" font-size="14.00" fill="white">Fxaa</text>
<text xml:space="preserve" text-anchor="start" x="3121.62" y="-58.4" font-family="Helvetica,sans-Serif" font-size="10.00" fill="red">ViewNodeRunner&lt;FxaaNode&gt;</text>
<path fill="none" stroke="white" d="M3127.96,-51.9C3127.96,-51.9 3265.29,-51.9 3265.29,-51.9 3270.96,-51.9 3276.62,-57.57 3276.62,-63.23 3276.62,-63.23 3276.62,-74.57 3276.62,-74.57 3276.62,-80.23 3270.96,-85.9 3265.29,-85.9 3265.29,-85.9 3127.96,-85.9 3127.96,-85.9 3122.29,-85.9 3116.62,-80.23 3116.62,-74.57 3116.62,-74.57 3116.62,-63.23 3116.62,-63.23 3116.62,-57.57 3122.29,-51.9 3127.96,-51.9"/>
</g>
<!-- _Core2d__Core2dFxaa&#45;&gt;_Core2d__Core2dContrastAdaptiveSharpening -->
<g id="edge2" class="edge">
<title>_Core2d__Core2dFxaa:e&#45;&gt;_Core2d__Core2dContrastAdaptiveSharpening:w</title>
<path fill="none" stroke="white" d="M3274.62,-68.9C3340.22,-68.9 3354.78,-104.5 3414.59,-108.53"/>
<polygon fill="white" stroke="white" points="3414.25,-112.02 3424.36,-108.85 3414.48,-105.02 3414.25,-112.02"/>
</g>
<!-- _Core2d__Core2dFxaa&#45;&gt;_Core2d__Core2dEndMainPassPostProcessing -->
<g id="edge5" class="edge">
<title>_Core2d__Core2dFxaa:e&#45;&gt;_Core2d__Core2dEndMainPassPostProcessing:w</title>
<path fill="none" stroke="white" d="M3274.62,-68.9C3448.52,-68.9 3493.85,-52.64 3665.75,-78.9 3709.89,-85.64 3720.69,-105.29 3759.8,-108.46"/>
<polygon fill="white" stroke="white" points="3759.36,-111.95 3769.49,-108.84 3759.63,-104.95 3759.36,-111.95"/>
</g>
<!-- _Core2d__Core2dSmaa -->
<g id="node8" class="node">
<title>_Core2d__Core2dSmaa</title>
<text xml:space="preserve" text-anchor="start" x="3177.12" y="-148.6" font-family="Helvetica,sans-Serif" font-size="14.00" fill="white">Smaa</text>
<text xml:space="preserve" text-anchor="start" x="3119.75" y="-138.4" font-family="Helvetica,sans-Serif" font-size="10.00" fill="red">ViewNodeRunner&lt;SmaaNode&gt;</text>
<path fill="none" stroke="white" d="M3126.08,-131.9C3126.08,-131.9 3267.17,-131.9 3267.17,-131.9 3272.83,-131.9 3278.5,-137.57 3278.5,-143.23 3278.5,-143.23 3278.5,-154.57 3278.5,-154.57 3278.5,-160.23 3272.83,-165.9 3267.17,-165.9 3267.17,-165.9 3126.08,-165.9 3126.08,-165.9 3120.42,-165.9 3114.75,-160.23 3114.75,-154.57 3114.75,-154.57 3114.75,-143.23 3114.75,-143.23 3114.75,-137.57 3120.42,-131.9 3126.08,-131.9"/>
</g>
<!-- _Core2d__Core2dSmaa&#45;&gt;_Core2d__Core2dEndMainPassPostProcessing -->
<g id="edge6" class="edge">
<title>_Core2d__Core2dSmaa:e&#45;&gt;_Core2d__Core2dEndMainPassPostProcessing:w</title>
<path fill="none" stroke="white" d="M3276.5,-148.9C3449.56,-148.9 3494.68,-165.05 3665.75,-138.9 3709.89,-132.15 3720.69,-112.51 3759.8,-109.34"/>
<polygon fill="white" stroke="white" points="3759.63,-112.85 3769.49,-108.96 3759.36,-105.85 3759.63,-112.85"/>
</g>
<!-- _Core2d__Core2dMainTransparentPass -->
<g id="node10" class="node">
<title>_Core2d__Core2dMainTransparentPass</title>
<text xml:space="preserve" text-anchor="start" x="1102.25" y="-145.6" font-family="Helvetica,sans-Serif" font-size="14.00" fill="white">MainTransparentPass</text>
<text xml:space="preserve" text-anchor="start" x="1055" y="-135.4" font-family="Helvetica,sans-Serif" font-size="10.00" fill="red">ViewNodeRunner&lt;MainTransparentPass2dNode&gt;</text>
<path fill="none" stroke="white" d="M1061.33,-128.9C1061.33,-128.9 1289.42,-128.9 1289.42,-128.9 1295.08,-128.9 1300.75,-134.57 1300.75,-140.23 1300.75,-140.23 1300.75,-151.57 1300.75,-151.57 1300.75,-157.23 1295.08,-162.9 1289.42,-162.9 1289.42,-162.9 1061.33,-162.9 1061.33,-162.9 1055.67,-162.9 1050,-157.23 1050,-151.57 1050,-151.57 1050,-140.23 1050,-140.23 1050,-134.57 1055.67,-128.9 1061.33,-128.9"/>
</g>
<!-- _Core2d__Core2dMainOpaquePass&#45;&gt;_Core2d__Core2dMainTransparentPass -->
<g id="edge13" class="edge">
<title>_Core2d__Core2dMainOpaquePass:e&#45;&gt;_Core2d__Core2dMainTransparentPass:w</title>
<path fill="none" stroke="white" d="M960,-145.9C996.9,-145.9 1008.82,-145.9 1040.84,-145.9"/>
<polygon fill="white" stroke="white" points="1040.49,-149.4 1050.49,-145.9 1040.49,-142.4 1040.49,-149.4"/>
</g>
<!-- _Core2d__Core2dMainTransparentPass&#45;&gt;_Core2d__Core2dEndMainPass -->
<g id="edge3" class="edge">
<title>_Core2d__Core2dMainTransparentPass:e&#45;&gt;_Core2d__Core2dEndMainPass:w</title>
<path fill="none" stroke="white" d="M1298.75,-145.9C1374.42,-145.9 1396.11,-145.9 1466.51,-145.9"/>
<polygon fill="white" stroke="white" points="1466.24,-149.4 1476.24,-145.9 1466.24,-142.4 1466.24,-149.4"/>
</g>
<!-- _Core2d__Core2dTonemapping&#45;&gt;_Core2d__Core2dContrastAdaptiveSharpening -->
<g id="edge1" class="edge">
<title>_Core2d__Core2dTonemapping:e&#45;&gt;_Core2d__Core2dContrastAdaptiveSharpening:w</title>
<path fill="none" stroke="white" d="M2939.25,-108.9C3151.73,-108.9 3207.65,-108.9 3414.62,-108.9"/>
<polygon fill="white" stroke="white" points="3414.36,-112.4 3424.36,-108.9 3414.36,-105.4 3414.36,-112.4"/>
</g>
<!-- _Core2d__Core2dTonemapping&#45;&gt;_Core2d__Core2dEndMainPassPostProcessing -->
<g id="edge4" class="edge">
<title>_Core2d__Core2dTonemapping:e&#45;&gt;_Core2d__Core2dEndMainPassPostProcessing:w</title>
<path fill="none" stroke="white" d="M2939.25,-108.9C3006.34,-108.9 3007.85,-54.92 3073,-38.9 3328.99,24.04 3410.22,4.86 3665.75,-59.9 3711.86,-71.59 3718.55,-103.37 3759.74,-108.26"/>
<polygon fill="white" stroke="white" points="3759.31,-111.75 3769.49,-108.82 3759.7,-104.76 3759.31,-111.75"/>
</g>
<!-- _Core2d__Core2dTonemapping&#45;&gt;_Core2d__Core2dFxaa -->
<g id="edge10" class="edge">
<title>_Core2d__Core2dTonemapping:e&#45;&gt;_Core2d__Core2dFxaa:w</title>
<path fill="none" stroke="white" d="M2939.25,-108.9C3017.1,-108.9 3035.3,-72.56 3107.56,-69.16"/>
<polygon fill="white" stroke="white" points="3107.2,-72.67 3117.11,-68.94 3107.03,-65.67 3107.2,-72.67"/>
</g>
<!-- _Core2d__Core2dTonemapping&#45;&gt;_Core2d__Core2dSmaa -->
<g id="edge11" class="edge">
<title>_Core2d__Core2dTonemapping:e&#45;&gt;_Core2d__Core2dSmaa:w</title>
<path fill="none" stroke="white" d="M2939.25,-108.9C3016.17,-108.9 3034.19,-145.09 3105.35,-148.62"/>
<polygon fill="white" stroke="white" points="3105.15,-152.12 3115.24,-148.86 3105.32,-145.12 3105.15,-152.12"/>
</g>
<!-- _Core2d__Core2dBloom&#45;&gt;_Core2d__Core2dTonemapping -->
<g id="edge15" class="edge">
<title>_Core2d__Core2dBloom:e&#45;&gt;_Core2d__Core2dTonemapping:w</title>
<path fill="none" stroke="white" d="M2278.62,-99.9C2324.96,-99.9 2336.44,-103.53 2382.75,-104.9 2538.46,-109.5 2580.3,-108.93 2730.52,-108.9"/>
<polygon fill="white" stroke="white" points="2730.49,-112.4 2740.49,-108.9 2730.49,-105.4 2730.49,-112.4"/>
</g>
<!-- _Core2d__Core2dPostProcessing -->
<g id="node14" class="node">
<title>_Core2d__Core2dPostProcessing</title>
<text xml:space="preserve" text-anchor="start" x="2443.75" y="-74.6" font-family="Helvetica,sans-Serif" font-size="14.00" fill="white">PostProcessing</text>
<text xml:space="preserve" text-anchor="start" x="2395.75" y="-64.4" font-family="Helvetica,sans-Serif" font-size="10.00" fill="red">ViewNodeRunner&lt;PostProcessingNode&gt;</text>
<path fill="none" stroke="white" d="M2402.08,-57.9C2402.08,-57.9 2588.92,-57.9 2588.92,-57.9 2594.58,-57.9 2600.25,-63.57 2600.25,-69.23 2600.25,-69.23 2600.25,-80.57 2600.25,-80.57 2600.25,-86.23 2594.58,-91.9 2588.92,-91.9 2588.92,-91.9 2402.08,-91.9 2402.08,-91.9 2396.42,-91.9 2390.75,-86.23 2390.75,-80.57 2390.75,-80.57 2390.75,-69.23 2390.75,-69.23 2390.75,-63.57 2396.42,-57.9 2402.08,-57.9"/>
</g>
<!-- _Core2d__Core2dBloom&#45;&gt;_Core2d__Core2dPostProcessing -->
<g id="edge20" class="edge">
<title>_Core2d__Core2dBloom:e&#45;&gt;_Core2d__Core2dPostProcessing:w</title>
<path fill="none" stroke="white" d="M2278.62,-99.9C2326.49,-99.9 2338.97,-78.65 2381.3,-75.33"/>
<polygon fill="white" stroke="white" points="2381.38,-78.83 2391.24,-74.96 2381.11,-71.84 2381.38,-78.83"/>
</g>
<!-- _Core2d__Core2dPostProcessing&#45;&gt;_Core2d__Core2dTonemapping -->
<g id="edge16" class="edge">
<title>_Core2d__Core2dPostProcessing:e&#45;&gt;_Core2d__Core2dTonemapping:w</title>
<path fill="none" stroke="white" d="M2598.25,-74.9C2659.93,-74.9 2674.65,-104.91 2730.64,-108.54"/>
<polygon fill="white" stroke="white" points="2730.38,-112.04 2740.49,-108.85 2730.6,-105.04 2730.38,-112.04"/>
</g>
<!-- _Core2d__Core2dMsaaWriteback -->
<g id="node15" class="node">
<title>_Core2d__Core2dMsaaWriteback</title>
<text xml:space="preserve" text-anchor="start" x="97.25" y="-145.6" font-family="Helvetica,sans-Serif" font-size="14.00" fill="white">MsaaWriteback</text>
<text xml:space="preserve" text-anchor="start" x="49.25" y="-135.4" font-family="Helvetica,sans-Serif" font-size="10.00" fill="red">ViewNodeRunner&lt;MsaaWritebackNode&gt;</text>
<path fill="none" stroke="white" d="M55.58,-128.9C55.58,-128.9 244.67,-128.9 244.67,-128.9 250.33,-128.9 256,-134.57 256,-140.23 256,-140.23 256,-151.57 256,-151.57 256,-157.23 250.33,-162.9 244.67,-162.9 244.67,-162.9 55.58,-162.9 55.58,-162.9 49.92,-162.9 44.25,-157.23 44.25,-151.57 44.25,-151.57 44.25,-140.23 44.25,-140.23 44.25,-134.57 49.92,-128.9 55.58,-128.9"/>
</g>
<!-- _Core2d__Core2dMsaaWriteback&#45;&gt;_Core2d__Core2dStartMainPass -->
<g id="edge8" class="edge">
<title>_Core2d__Core2dMsaaWriteback:e&#45;&gt;_Core2d__Core2dStartMainPass:w</title>
<path fill="none" stroke="white" d="M254,-145.9C337.94,-145.9 361.75,-145.9 440.29,-145.9"/>
<polygon fill="white" stroke="white" points="440.24,-149.4 450.24,-145.9 440.24,-142.4 440.24,-149.4"/>
</g>
<!-- _Core2d__Core2dUiPass&#45;&gt;_Core2d__Core2dUpscaling -->
<g id="edge18" class="edge">
<title>_Core2d__Core2dUiPass:e&#45;&gt;_Core2d__Core2dUpscaling:w</title>
<path fill="none" stroke="white" d="M4256.38,-148.9C4300.94,-148.9 4313.26,-132.05 4352.53,-129.28"/>
<polygon fill="white" stroke="white" points="4352.36,-132.79 4362.24,-128.95 4352.12,-125.79 4352.36,-132.79"/>
</g>
<!-- _Core3d_SubGraphUi__Core3d_SubGraphUiUiPass -->
<g id="node17" class="node">
<title>_Core3d_SubGraphUi__Core3d_SubGraphUiUiPass</title>
<text xml:space="preserve" text-anchor="start" x="127.62" y="-267.6" font-family="Helvetica,sans-Serif" font-size="14.00" fill="white">UiPass</text>
<text xml:space="preserve" text-anchor="start" x="121.25" y="-257.4" font-family="Helvetica,sans-Serif" font-size="10.00" fill="red">UiPassNode</text>
<path fill="none" stroke="white" d="M127.58,-250.9C127.58,-250.9 172.67,-250.9 172.67,-250.9 178.33,-250.9 184,-256.57 184,-262.23 184,-262.23 184,-273.57 184,-273.57 184,-279.23 178.33,-284.9 172.67,-284.9 172.67,-284.9 127.58,-284.9 127.58,-284.9 121.92,-284.9 116.25,-279.23 116.25,-273.57 116.25,-273.57 116.25,-262.23 116.25,-262.23 116.25,-256.57 121.92,-250.9 127.58,-250.9"/>
</g>
<!-- _Core3d__Core3dContrastAdaptiveSharpening -->
<g id="node18" class="node">
<title>_Core3d__Core3dContrastAdaptiveSharpening</title>
<text xml:space="preserve" text-anchor="start" x="7203" y="-322.6" font-family="Helvetica,sans-Serif" font-size="14.00" fill="white">ContrastAdaptiveSharpening</text>
<text xml:space="preserve" text-anchor="start" x="7281.38" y="-312.4" font-family="Helvetica,sans-Serif" font-size="10.00" fill="red">CasNode</text>
<path fill="none" stroke="white" d="M7209.33,-305.9C7209.33,-305.9 7396.92,-305.9 7396.92,-305.9 7402.58,-305.9 7408.25,-311.57 7408.25,-317.23 7408.25,-317.23 7408.25,-328.57 7408.25,-328.57 7408.25,-334.23 7402.58,-339.9 7396.92,-339.9 7396.92,-339.9 7209.33,-339.9 7209.33,-339.9 7203.67,-339.9 7198,-334.23 7198,-328.57 7198,-328.57 7198,-317.23 7198,-317.23 7198,-311.57 7203.67,-305.9 7209.33,-305.9"/>
</g>
<!-- _Core3d__Core3dEndMainPassPostProcessing -->
<g id="node24" class="node">
<title>_Core3d__Core3dEndMainPassPostProcessing</title>
<text xml:space="preserve" text-anchor="start" x="7501.25" y="-342.6" font-family="Helvetica,sans-Serif" font-size="14.00" fill="white">EndMainPassPostProcessing</text>
<text xml:space="preserve" text-anchor="start" x="7569.88" y="-332.4" font-family="Helvetica,sans-Serif" font-size="10.00" fill="red">EmptyNode</text>
<path fill="none" stroke="white" d="M7507.58,-325.9C7507.58,-325.9 7689.17,-325.9 7689.17,-325.9 7694.83,-325.9 7700.5,-331.57 7700.5,-337.23 7700.5,-337.23 7700.5,-348.57 7700.5,-348.57 7700.5,-354.23 7694.83,-359.9 7689.17,-359.9 7689.17,-359.9 7507.58,-359.9 7507.58,-359.9 7501.92,-359.9 7496.25,-354.23 7496.25,-348.57 7496.25,-348.57 7496.25,-337.23 7496.25,-337.23 7496.25,-331.57 7501.92,-325.9 7507.58,-325.9"/>
</g>
<!-- _Core3d__Core3dContrastAdaptiveSharpening&#45;&gt;_Core3d__Core3dEndMainPassPostProcessing -->
<g id="edge34" class="edge">
<title>_Core3d__Core3dContrastAdaptiveSharpening:e&#45;&gt;_Core3d__Core3dEndMainPassPostProcessing:w</title>
<path fill="none" stroke="white" d="M7406.25,-322.9C7444.01,-322.9 7454.46,-339.18 7486.89,-342.37"/>
<polygon fill="white" stroke="white" points="7486.58,-345.86 7496.74,-342.83 7486.91,-338.86 7486.58,-345.86"/>
</g>
<!-- _Core3d__Core3dEarlyDownsampleDepth -->
<g id="node19" class="node">
<title>_Core3d__Core3dEarlyDownsampleDepth</title>
<text xml:space="preserve" text-anchor="start" x="763.12" y="-330.6" font-family="Helvetica,sans-Serif" font-size="14.00" fill="white">EarlyDownsampleDepth</text>
<text xml:space="preserve" text-anchor="start" x="787.12" y="-320.4" font-family="Helvetica,sans-Serif" font-size="10.00" fill="red">DownsampleDepthNode</text>
<path fill="none" stroke="white" d="M769.46,-313.9C769.46,-313.9 923.29,-313.9 923.29,-313.9 928.96,-313.9 934.62,-319.57 934.62,-325.23 934.62,-325.23 934.62,-336.57 934.62,-336.57 934.62,-342.23 928.96,-347.9 923.29,-347.9 923.29,-347.9 769.46,-347.9 769.46,-347.9 763.79,-347.9 758.12,-342.23 758.12,-336.57 758.12,-336.57 758.12,-325.23 758.12,-325.23 758.12,-319.57 763.79,-313.9 769.46,-313.9"/>
</g>
<!-- _Core3d__Core3dLatePrepass -->
<g id="node39" class="node">
<title>_Core3d__Core3dLatePrepass</title>
<text xml:space="preserve" text-anchor="start" x="1133.75" y="-350.6" font-family="Helvetica,sans-Serif" font-size="14.00" fill="white">LatePrepass</text>
<text xml:space="preserve" text-anchor="start" x="1082.75" y="-340.4" font-family="Helvetica,sans-Serif" font-size="10.00" fill="red">ViewNodeRunner&lt;LatePrepassNode&gt;</text>
<path fill="none" stroke="white" d="M1089.08,-333.9C1089.08,-333.9 1261.67,-333.9 1261.67,-333.9 1267.33,-333.9 1273,-339.57 1273,-345.23 1273,-345.23 1273,-356.57 1273,-356.57 1273,-362.23 1267.33,-367.9 1261.67,-367.9 1261.67,-367.9 1089.08,-367.9 1089.08,-367.9 1083.42,-367.9 1077.75,-362.23 1077.75,-356.57 1077.75,-356.57 1077.75,-345.23 1077.75,-345.23 1077.75,-339.57 1083.42,-333.9 1089.08,-333.9"/>
</g>
<!-- _Core3d__Core3dEarlyDownsampleDepth&#45;&gt;_Core3d__Core3dLatePrepass -->
<g id="edge53" class="edge">
<title>_Core3d__Core3dEarlyDownsampleDepth:e&#45;&gt;_Core3d__Core3dLatePrepass:w</title>
<path fill="none" stroke="white" d="M932.62,-330.9C994.62,-330.9 1011.74,-348.55 1068.3,-350.69"/>
<polygon fill="white" stroke="white" points="1068.17,-354.19 1078.24,-350.87 1068.3,-347.19 1068.17,-354.19"/>
</g>
<!-- _Core3d__Core3dLateDownsampleDepth -->
<g id="node20" class="node">
<title>_Core3d__Core3dLateDownsampleDepth</title>
<text xml:space="preserve" text-anchor="start" x="5240.88" y="-387.6" font-family="Helvetica,sans-Serif" font-size="14.00" fill="white">LateDownsampleDepth</text>
<text xml:space="preserve" text-anchor="start" x="5261.88" y="-377.4" font-family="Helvetica,sans-Serif" font-size="10.00" fill="red">DownsampleDepthNode</text>
<path fill="none" stroke="white" d="M5247.21,-370.9C5247.21,-370.9 5395.04,-370.9 5395.04,-370.9 5400.71,-370.9 5406.38,-376.57 5406.38,-382.23 5406.38,-382.23 5406.38,-393.57 5406.38,-393.57 5406.38,-399.23 5400.71,-404.9 5395.04,-404.9 5395.04,-404.9 5247.21,-404.9 5247.21,-404.9 5241.54,-404.9 5235.88,-399.23 5235.88,-393.57 5235.88,-393.57 5235.88,-382.23 5235.88,-382.23 5235.88,-376.57 5241.54,-370.9 5247.21,-370.9"/>
</g>
<!-- _Core3d__Core3dLateDownsampleDepth&#45;&gt;_Core3d__Core3dEndMainPassPostProcessing -->
<g id="edge31" class="edge">
<title>_Core3d__Core3dLateDownsampleDepth:e&#45;&gt;_Core3d__Core3dEndMainPassPostProcessing:w</title>
<path fill="none" stroke="white" d="M5404.38,-387.9C5624.31,-387.9 5679.07,-402.9 5899,-402.9 5899,-402.9 5899,-402.9 7029.12,-402.9 7202.1,-402.9 7245.8,-392.35 7416.25,-362.9 7449.17,-357.21 7458.74,-345.79 7486.94,-343.36"/>
<polygon fill="white" stroke="white" points="7486.89,-346.87 7496.74,-342.96 7486.6,-339.87 7486.89,-346.87"/>
</g>
<!-- _Core3d__Core3dEarlyShadowPass -->
<g id="node21" class="node">
<title>_Core3d__Core3dEarlyShadowPass</title>
<text xml:space="preserve" text-anchor="start" x="1816.88" y="-290.6" font-family="Helvetica,sans-Serif" font-size="14.00" fill="white">EarlyShadowPass</text>
<text xml:space="preserve" text-anchor="start" x="1822.12" y="-280.4" font-family="Helvetica,sans-Serif" font-size="10.00" fill="red">EarlyShadowPassNode</text>
<path fill="none" stroke="white" d="M1823.21,-273.9C1823.21,-273.9 1931.29,-273.9 1931.29,-273.9 1936.96,-273.9 1942.62,-279.57 1942.62,-285.23 1942.62,-285.23 1942.62,-296.57 1942.62,-296.57 1942.62,-302.23 1936.96,-307.9 1931.29,-307.9 1931.29,-307.9 1823.21,-307.9 1823.21,-307.9 1817.54,-307.9 1811.88,-302.23 1811.88,-296.57 1811.88,-296.57 1811.88,-285.23 1811.88,-285.23 1811.88,-279.57 1817.54,-273.9 1823.21,-273.9"/>
</g>
<!-- _Core3d__Core3dLateShadowPass -->
<g id="node22" class="node">
<title>_Core3d__Core3dLateShadowPass</title>
<text xml:space="preserve" text-anchor="start" x="2139.5" y="-290.6" font-family="Helvetica,sans-Serif" font-size="14.00" fill="white">LateShadowPass</text>
<text xml:space="preserve" text-anchor="start" x="2143.62" y="-280.4" font-family="Helvetica,sans-Serif" font-size="10.00" fill="red">LateShadowPassNode</text>
<path fill="none" stroke="white" d="M2145.83,-273.9C2145.83,-273.9 2247.92,-273.9 2247.92,-273.9 2253.58,-273.9 2259.25,-279.57 2259.25,-285.23 2259.25,-285.23 2259.25,-296.57 2259.25,-296.57 2259.25,-302.23 2253.58,-307.9 2247.92,-307.9 2247.92,-307.9 2145.83,-307.9 2145.83,-307.9 2140.17,-307.9 2134.5,-302.23 2134.5,-296.57 2134.5,-296.57 2134.5,-285.23 2134.5,-285.23 2134.5,-279.57 2140.17,-273.9 2145.83,-273.9"/>
</g>
<!-- _Core3d__Core3dEarlyShadowPass&#45;&gt;_Core3d__Core3dLateShadowPass -->
<g id="edge27" class="edge">
<title>_Core3d__Core3dEarlyShadowPass:e&#45;&gt;_Core3d__Core3dLateShadowPass:w</title>
<path fill="none" stroke="white" d="M1940.62,-290.9C2023.77,-290.9 2047.36,-290.9 2125.15,-290.9"/>
<polygon fill="white" stroke="white" points="2124.99,-294.4 2134.99,-290.9 2124.99,-287.4 2124.99,-294.4"/>
</g>
<!-- _Core3d__Core3dStartMainPass -->
<g id="node26" class="node">
<title>_Core3d__Core3dStartMainPass</title>
<text xml:space="preserve" text-anchor="start" x="2446.75" y="-350.6" font-family="Helvetica,sans-Serif" font-size="14.00" fill="white">StartMainPass</text>
<text xml:space="preserve" text-anchor="start" x="2467" y="-340.4" font-family="Helvetica,sans-Serif" font-size="10.00" fill="red">EmptyNode</text>
<path fill="none" stroke="white" d="M2453.08,-333.9C2453.08,-333.9 2537.92,-333.9 2537.92,-333.9 2543.58,-333.9 2549.25,-339.57 2549.25,-345.23 2549.25,-345.23 2549.25,-356.57 2549.25,-356.57 2549.25,-362.23 2543.58,-367.9 2537.92,-367.9 2537.92,-367.9 2453.08,-367.9 2453.08,-367.9 2447.42,-367.9 2441.75,-362.23 2441.75,-356.57 2441.75,-356.57 2441.75,-345.23 2441.75,-345.23 2441.75,-339.57 2447.42,-333.9 2453.08,-333.9"/>
</g>
<!-- _Core3d__Core3dLateShadowPass&#45;&gt;_Core3d__Core3dStartMainPass -->
<g id="edge38" class="edge">
<title>_Core3d__Core3dLateShadowPass:e&#45;&gt;_Core3d__Core3dStartMainPass:w</title>
<path fill="none" stroke="white" d="M2257.25,-290.9C2340.41,-290.9 2355.42,-345.63 2432.45,-350.55"/>
<polygon fill="white" stroke="white" points="2432.13,-354.04 2442.24,-350.85 2432.35,-347.04 2432.13,-354.04"/>
</g>
<!-- _Core3d__Core3dEndMainPass -->
<g id="node23" class="node">
<title>_Core3d__Core3dEndMainPass</title>
<text xml:space="preserve" text-anchor="start" x="4408.38" y="-367.6" font-family="Helvetica,sans-Serif" font-size="14.00" fill="white">EndMainPass</text>
<text xml:space="preserve" text-anchor="start" x="4425.25" y="-357.4" font-family="Helvetica,sans-Serif" font-size="10.00" fill="red">EmptyNode</text>
<path fill="none" stroke="white" d="M4414.71,-350.9C4414.71,-350.9 4492.79,-350.9 4492.79,-350.9 4498.46,-350.9 4504.12,-356.57 4504.12,-362.23 4504.12,-362.23 4504.12,-373.57 4504.12,-373.57 4504.12,-379.23 4498.46,-384.9 4492.79,-384.9 4492.79,-384.9 4414.71,-384.9 4414.71,-384.9 4409.04,-384.9 4403.38,-379.23 4403.38,-373.57 4403.38,-373.57 4403.38,-362.23 4403.38,-362.23 4403.38,-356.57 4409.04,-350.9 4414.71,-350.9"/>
</g>
<!-- _Core3d__Core3dStartMainPassPostProcessing -->
<g id="node27" class="node">
<title>_Core3d__Core3dStartMainPassPostProcessing</title>
<text xml:space="preserve" text-anchor="start" x="4932.5" y="-327.6" font-family="Helvetica,sans-Serif" font-size="14.00" fill="white">StartMainPassPostProcessing</text>
<text xml:space="preserve" text-anchor="start" x="5004.5" y="-317.4" font-family="Helvetica,sans-Serif" font-size="10.00" fill="red">EmptyNode</text>
<path fill="none" stroke="white" d="M4938.83,-310.9C4938.83,-310.9 5127.17,-310.9 5127.17,-310.9 5132.83,-310.9 5138.5,-316.57 5138.5,-322.23 5138.5,-322.23 5138.5,-333.57 5138.5,-333.57 5138.5,-339.23 5132.83,-344.9 5127.17,-344.9 5127.17,-344.9 4938.83,-344.9 4938.83,-344.9 4933.17,-344.9 4927.5,-339.23 4927.5,-333.57 4927.5,-333.57 4927.5,-322.23 4927.5,-322.23 4927.5,-316.57 4933.17,-310.9 4938.83,-310.9"/>
</g>
<!-- _Core3d__Core3dEndMainPass&#45;&gt;_Core3d__Core3dStartMainPassPostProcessing -->
<g id="edge39" class="edge">
<title>_Core3d__Core3dEndMainPass:e&#45;&gt;_Core3d__Core3dStartMainPassPostProcessing:w</title>
<path fill="none" stroke="white" d="M4502.12,-367.9C4558.66,-367.9 4569.73,-345.54 4625.75,-337.9 4755.79,-320.17 4792.37,-327.45 4918.26,-327.88"/>
<polygon fill="white" stroke="white" points="4917.98,-331.38 4927.99,-327.9 4917.99,-324.38 4917.98,-331.38"/>
</g>
<!-- _Core3d__Core3dVolumetricFog -->
<g id="node44" class="node">
<title>_Core3d__Core3dVolumetricFog</title>
<text xml:space="preserve" text-anchor="start" x="4687.5" y="-367.6" font-family="Helvetica,sans-Serif" font-size="14.00" fill="white">VolumetricFog</text>
<text xml:space="preserve" text-anchor="start" x="4638.75" y="-357.4" font-family="Helvetica,sans-Serif" font-size="10.00" fill="red">ViewNodeRunner&lt;VolumetricFogNode&gt;</text>
<path fill="none" stroke="white" d="M4645.08,-350.9C4645.08,-350.9 4828.17,-350.9 4828.17,-350.9 4833.83,-350.9 4839.5,-356.57 4839.5,-362.23 4839.5,-362.23 4839.5,-373.57 4839.5,-373.57 4839.5,-379.23 4833.83,-384.9 4828.17,-384.9 4828.17,-384.9 4645.08,-384.9 4645.08,-384.9 4639.42,-384.9 4633.75,-379.23 4633.75,-373.57 4633.75,-373.57 4633.75,-362.23 4633.75,-362.23 4633.75,-356.57 4639.42,-350.9 4645.08,-350.9"/>
</g>
<!-- _Core3d__Core3dEndMainPass&#45;&gt;_Core3d__Core3dVolumetricFog -->
<g id="edge61" class="edge">
<title>_Core3d__Core3dEndMainPass:e&#45;&gt;_Core3d__Core3dVolumetricFog:w</title>
<path fill="none" stroke="white" d="M4502.12,-367.9C4557.57,-367.9 4574.19,-367.9 4624.48,-367.9"/>
<polygon fill="white" stroke="white" points="4624.24,-371.4 4634.24,-367.9 4624.24,-364.4 4624.24,-371.4"/>
</g>
<!-- _Core3d__Core3dUiPass -->
<g id="node50" class="node">
<title>_Core3d__Core3dUiPass</title>
<text xml:space="preserve" text-anchor="start" x="7845.25" y="-382.6" font-family="Helvetica,sans-Serif" font-size="14.00" fill="white">UiPass</text>
<text xml:space="preserve" text-anchor="start" x="7793.5" y="-372.4" font-family="Helvetica,sans-Serif" font-size="10.00" fill="red">RunUiSubgraphOnUiViewNode</text>
<path fill="none" stroke="white" d="M7799.83,-365.9C7799.83,-365.9 7935.67,-365.9 7935.67,-365.9 7941.33,-365.9 7947,-371.57 7947,-377.23 7947,-377.23 7947,-388.57 7947,-388.57 7947,-394.23 7941.33,-399.9 7935.67,-399.9 7935.67,-399.9 7799.83,-399.9 7799.83,-399.9 7794.17,-399.9 7788.5,-394.23 7788.5,-388.57 7788.5,-388.57 7788.5,-377.23 7788.5,-377.23 7788.5,-371.57 7794.17,-365.9 7799.83,-365.9"/>
</g>
<!-- _Core3d__Core3dEndMainPass&#45;&gt;_Core3d__Core3dUiPass -->
<g id="edge68" class="edge">
<title>_Core3d__Core3dEndMainPass:e&#45;&gt;_Core3d__Core3dUiPass:w</title>
<path fill="none" stroke="white" d="M4502.12,-367.9C4558.66,-367.9 4569.9,-389.12 4625.75,-397.9 4804.6,-426.01 4850.95,-427.9 5032,-427.9 5032,-427.9 5032,-427.9 7304.12,-427.9 7517.4,-427.9 7571.52,-384.47 7779.2,-382.94"/>
<polygon fill="white" stroke="white" points="7779,-386.44 7788.99,-382.91 7778.97,-379.44 7779,-386.44"/>
</g>
<!-- _Core3d__Core3dUpscaling -->
<g id="node41" class="node">
<title>_Core3d__Core3dUpscaling</title>
<text xml:space="preserve" text-anchor="start" x="8092.88" y="-362.6" font-family="Helvetica,sans-Serif" font-size="14.00" fill="white">Upscaling</text>
<text xml:space="preserve" text-anchor="start" x="8040" y="-352.4" font-family="Helvetica,sans-Serif" font-size="10.00" fill="red">ViewNodeRunner&lt;UpscalingNode&gt;</text>
<path fill="none" stroke="white" d="M8046.33,-345.9C8046.33,-345.9 8207.67,-345.9 8207.67,-345.9 8213.33,-345.9 8219,-351.57 8219,-357.23 8219,-357.23 8219,-368.57 8219,-368.57 8219,-374.23 8213.33,-379.9 8207.67,-379.9 8207.67,-379.9 8046.33,-379.9 8046.33,-379.9 8040.67,-379.9 8035,-374.23 8035,-368.57 8035,-368.57 8035,-357.23 8035,-357.23 8035,-351.57 8040.67,-345.9 8046.33,-345.9"/>
</g>
<!-- _Core3d__Core3dEndMainPassPostProcessing&#45;&gt;_Core3d__Core3dUpscaling -->
<g id="edge58" class="edge">
<title>_Core3d__Core3dEndMainPassPostProcessing:e&#45;&gt;_Core3d__Core3dUpscaling:w</title>
<path fill="none" stroke="white" d="M7698.5,-342.9C7812.59,-342.9 7841.28,-343.77 7955,-352.9 7987.45,-355.51 7997.96,-361.35 8025.52,-362.64"/>
<polygon fill="white" stroke="white" points="8025.41,-366.14 8035.49,-362.87 8025.57,-359.15 8025.41,-366.14"/>
</g>
<!-- _Core3d__Core3dEndMainPassPostProcessing&#45;&gt;_Core3d__Core3dUiPass -->
<g id="edge69" class="edge">
<title>_Core3d__Core3dEndMainPassPostProcessing:e&#45;&gt;_Core3d__Core3dUiPass:w</title>
<path fill="none" stroke="white" d="M7698.5,-342.9C7739.08,-342.9 7745.07,-376.04 7779.43,-381.99"/>
<polygon fill="white" stroke="white" points="7778.74,-385.44 7788.99,-382.78 7779.31,-378.47 7778.74,-385.44"/>
</g>
<!-- _Core3d__Core3dEndPrepasses -->
<g id="node25" class="node">
<title>_Core3d__Core3dEndPrepasses</title>
<text xml:space="preserve" text-anchor="start" x="2148.5" y="-350.6" font-family="Helvetica,sans-Serif" font-size="14.00" fill="white">EndPrepasses</text>
<text xml:space="preserve" text-anchor="start" x="2168.38" y="-340.4" font-family="Helvetica,sans-Serif" font-size="10.00" fill="red">EmptyNode</text>
<path fill="none" stroke="white" d="M2154.83,-333.9C2154.83,-333.9 2238.92,-333.9 2238.92,-333.9 2244.58,-333.9 2250.25,-339.57 2250.25,-345.23 2250.25,-345.23 2250.25,-356.57 2250.25,-356.57 2250.25,-362.23 2244.58,-367.9 2238.92,-367.9 2238.92,-367.9 2154.83,-367.9 2154.83,-367.9 2149.17,-367.9 2143.5,-362.23 2143.5,-356.57 2143.5,-356.57 2143.5,-345.23 2143.5,-345.23 2143.5,-339.57 2149.17,-333.9 2154.83,-333.9"/>
</g>
<!-- _Core3d__Core3dEndPrepasses&#45;&gt;_Core3d__Core3dStartMainPass -->
<g id="edge36" class="edge">
<title>_Core3d__Core3dEndPrepasses:e&#45;&gt;_Core3d__Core3dStartMainPass:w</title>
<path fill="none" stroke="white" d="M2248.25,-350.9C2331.24,-350.9 2354.78,-350.9 2432.42,-350.9"/>
<polygon fill="white" stroke="white" points="2432.24,-354.4 2442.24,-350.9 2432.24,-347.4 2432.24,-354.4"/>
</g>
<!-- _Core3d__Core3dMainOpaquePass -->
<g id="node31" class="node">
<title>_Core3d__Core3dMainOpaquePass</title>
<text xml:space="preserve" text-anchor="start" x="3137.38" y="-380.6" font-family="Helvetica,sans-Serif" font-size="14.00" fill="white">MainOpaquePass</text>
<text xml:space="preserve" text-anchor="start" x="3086" y="-370.4" font-family="Helvetica,sans-Serif" font-size="10.00" fill="red">ViewNodeRunner&lt;MainOpaquePass3dNode&gt;</text>
<path fill="none" stroke="white" d="M3092.33,-363.9C3092.33,-363.9 3300.92,-363.9 3300.92,-363.9 3306.58,-363.9 3312.25,-369.57 3312.25,-375.23 3312.25,-375.23 3312.25,-386.57 3312.25,-386.57 3312.25,-392.23 3306.58,-397.9 3300.92,-397.9 3300.92,-397.9 3092.33,-397.9 3092.33,-397.9 3086.67,-397.9 3081,-392.23 3081,-386.57 3081,-386.57 3081,-375.23 3081,-375.23 3081,-369.57 3086.67,-363.9 3092.33,-363.9"/>
</g>
<!-- _Core3d__Core3dStartMainPass&#45;&gt;_Core3d__Core3dMainOpaquePass -->
<g id="edge44" class="edge">
<title>_Core3d__Core3dStartMainPass:e&#45;&gt;_Core3d__Core3dMainOpaquePass:w</title>
<path fill="none" stroke="white" d="M2547.25,-350.9C2748.93,-350.9 2801.69,-325.07 3001,-355.9 3034.53,-361.09 3043.16,-376.87 3071.56,-380.25"/>
<polygon fill="white" stroke="white" points="3071.31,-383.75 3081.49,-380.82 3071.7,-376.76 3071.31,-383.75"/>
</g>
<!-- _Core3d__Core3dDeferredLightingPass -->
<g id="node42" class="node">
<title>_Core3d__Core3dDeferredLightingPass</title>
<text xml:space="preserve" text-anchor="start" x="2767.12" y="-385.6" font-family="Helvetica,sans-Serif" font-size="14.00" fill="white">DeferredLightingPass</text>
<text xml:space="preserve" text-anchor="start" x="2693.25" y="-375.4" font-family="Helvetica,sans-Serif" font-size="10.00" fill="red">ViewNodeRunner&lt;DeferredOpaquePass3dPbrLightingNode&gt;</text>
<path fill="none" stroke="white" d="M2699.58,-368.9C2699.58,-368.9 2981.67,-368.9 2981.67,-368.9 2987.33,-368.9 2993,-374.57 2993,-380.23 2993,-380.23 2993,-391.57 2993,-391.57 2993,-397.23 2987.33,-402.9 2981.67,-402.9 2981.67,-402.9 2699.58,-402.9 2699.58,-402.9 2693.92,-402.9 2688.25,-397.23 2688.25,-391.57 2688.25,-391.57 2688.25,-380.23 2688.25,-380.23 2688.25,-374.57 2693.92,-368.9 2699.58,-368.9"/>
</g>
<!-- _Core3d__Core3dStartMainPass&#45;&gt;_Core3d__Core3dDeferredLightingPass -->
<g id="edge60" class="edge">
<title>_Core3d__Core3dStartMainPass:e&#45;&gt;_Core3d__Core3dDeferredLightingPass:w</title>
<path fill="none" stroke="white" d="M2547.25,-350.9C2608.72,-350.9 2623.15,-381.79 2678.93,-385.53"/>
<polygon fill="white" stroke="white" points="2678.63,-389.02 2688.74,-385.85 2678.86,-382.03 2678.63,-389.02"/>
</g>
<!-- _Core3d__Core3dStartMainPassPostProcessing&#45;&gt;_Core3d__Core3dLateDownsampleDepth -->
<g id="edge26" class="edge">
<title>_Core3d__Core3dStartMainPassPostProcessing:e&#45;&gt;_Core3d__Core3dLateDownsampleDepth:w</title>
<path fill="none" stroke="white" d="M5136.5,-327.9C5184.77,-327.9 5185.7,-378.89 5226.57,-386.86"/>
<polygon fill="white" stroke="white" points="5226.09,-390.33 5236.37,-387.76 5226.73,-383.36 5226.09,-390.33"/>
</g>
<!-- _Core3d__Core3dTonemapping -->
<g id="node40" class="node">
<title>_Core3d__Core3dTonemapping</title>
<text xml:space="preserve" text-anchor="start" x="6711.12" y="-305.6" font-family="Helvetica,sans-Serif" font-size="14.00" fill="white">Tonemapping</text>
<text xml:space="preserve" text-anchor="start" x="6662" y="-295.4" font-family="Helvetica,sans-Serif" font-size="10.00" fill="red">ViewNodeRunner&lt;TonemappingNode&gt;</text>
<path fill="none" stroke="white" d="M6668.33,-288.9C6668.33,-288.9 6846.92,-288.9 6846.92,-288.9 6852.58,-288.9 6858.25,-294.57 6858.25,-300.23 6858.25,-300.23 6858.25,-311.57 6858.25,-311.57 6858.25,-317.23 6852.58,-322.9 6846.92,-322.9 6846.92,-322.9 6668.33,-322.9 6668.33,-322.9 6662.67,-322.9 6657,-317.23 6657,-311.57 6657,-311.57 6657,-300.23 6657,-300.23 6657,-294.57 6662.67,-288.9 6668.33,-288.9"/>
</g>
<!-- _Core3d__Core3dStartMainPassPostProcessing&#45;&gt;_Core3d__Core3dTonemapping -->
<g id="edge54" class="edge">
<title>_Core3d__Core3dStartMainPassPostProcessing:e&#45;&gt;_Core3d__Core3dTonemapping:w</title>
<path fill="none" stroke="white" d="M5136.5,-327.9C5176.48,-327.9 5179.67,-300.44 5218.5,-290.9 5389.92,-248.79 5438.48,-267.9 5615,-267.9 5615,-267.9 5615,-267.9 6172.62,-267.9 6352.51,-267.9 6399.04,-258.67 6577,-284.9 6610.15,-289.79 6619.45,-302.63 6647.67,-305.38"/>
<polygon fill="white" stroke="white" points="6647.34,-308.87 6657.49,-305.83 6647.66,-301.87 6647.34,-308.87"/>
</g>
<!-- _Core3d__Core3dBloom -->
<g id="node45" class="node">
<title>_Core3d__Core3dBloom</title>
<text xml:space="preserve" text-anchor="start" x="5878.25" y="-307.6" font-family="Helvetica,sans-Serif" font-size="14.00" fill="white">Bloom</text>
<text xml:space="preserve" text-anchor="start" x="5821.25" y="-297.4" font-family="Helvetica,sans-Serif" font-size="10.00" fill="red">ViewNodeRunner&lt;BloomNode&gt;</text>
<path fill="none" stroke="white" d="M5827.58,-290.9C5827.58,-290.9 5972.42,-290.9 5972.42,-290.9 5978.08,-290.9 5983.75,-296.57 5983.75,-302.23 5983.75,-302.23 5983.75,-313.57 5983.75,-313.57 5983.75,-319.23 5978.08,-324.9 5972.42,-324.9 5972.42,-324.9 5827.58,-324.9 5827.58,-324.9 5821.92,-324.9 5816.25,-319.23 5816.25,-313.57 5816.25,-313.57 5816.25,-302.23 5816.25,-302.23 5816.25,-296.57 5821.92,-290.9 5827.58,-290.9"/>
</g>
<!-- _Core3d__Core3dStartMainPassPostProcessing&#45;&gt;_Core3d__Core3dBloom -->
<g id="edge62" class="edge">
<title>_Core3d__Core3dStartMainPassPostProcessing:e&#45;&gt;_Core3d__Core3dBloom:w</title>
<path fill="none" stroke="white" d="M5136.5,-327.9C5175.31,-327.9 5180.29,-304.67 5218.5,-297.9 5261.55,-290.27 5681.39,-302.04 5736.25,-303.9 5768.59,-305 5779.36,-307.29 5806.83,-307.8"/>
<polygon fill="white" stroke="white" points="5806.71,-311.3 5816.74,-307.89 5806.77,-304.3 5806.71,-311.3"/>
</g>
<!-- _Core3d__Core3dMotionBlur -->
<g id="node48" class="node">
<title>_Core3d__Core3dMotionBlur</title>
<text xml:space="preserve" text-anchor="start" x="5283.62" y="-327.6" font-family="Helvetica,sans-Serif" font-size="14.00" fill="white">MotionBlur</text>
<text xml:space="preserve" text-anchor="start" x="5231.5" y="-317.4" font-family="Helvetica,sans-Serif" font-size="10.00" fill="red">ViewNodeRunner&lt;MotionBlurNode&gt;</text>
<path fill="none" stroke="white" d="M5237.83,-310.9C5237.83,-310.9 5404.42,-310.9 5404.42,-310.9 5410.08,-310.9 5415.75,-316.57 5415.75,-322.23 5415.75,-322.23 5415.75,-333.57 5415.75,-333.57 5415.75,-339.23 5410.08,-344.9 5404.42,-344.9 5404.42,-344.9 5237.83,-344.9 5237.83,-344.9 5232.17,-344.9 5226.5,-339.23 5226.5,-333.57 5226.5,-333.57 5226.5,-322.23 5226.5,-322.23 5226.5,-316.57 5232.17,-310.9 5237.83,-310.9"/>
</g>
<!-- _Core3d__Core3dStartMainPassPostProcessing&#45;&gt;_Core3d__Core3dMotionBlur -->
<g id="edge67" class="edge">
<title>_Core3d__Core3dStartMainPassPostProcessing:e&#45;&gt;_Core3d__Core3dMotionBlur:w</title>
<path fill="none" stroke="white" d="M5136.5,-327.9C5173.4,-327.9 5185.32,-327.9 5217.34,-327.9"/>
<polygon fill="white" stroke="white" points="5216.99,-331.4 5226.99,-327.9 5216.99,-324.4 5216.99,-331.4"/>
</g>
<!-- _Core3d__Core3dFxaa -->
<g id="node28" class="node">
<title>_Core3d__Core3dFxaa</title>
<text xml:space="preserve" text-anchor="start" x="7011.62" y="-282.6" font-family="Helvetica,sans-Serif" font-size="14.00" fill="white">Fxaa</text>
<text xml:space="preserve" text-anchor="start" x="6953.12" y="-272.4" font-family="Helvetica,sans-Serif" font-size="10.00" fill="red">ViewNodeRunner&lt;FxaaNode&gt;</text>
<path fill="none" stroke="white" d="M6959.46,-265.9C6959.46,-265.9 7096.79,-265.9 7096.79,-265.9 7102.46,-265.9 7108.12,-271.57 7108.12,-277.23 7108.12,-277.23 7108.12,-288.57 7108.12,-288.57 7108.12,-294.23 7102.46,-299.9 7096.79,-299.9 7096.79,-299.9 6959.46,-299.9 6959.46,-299.9 6953.79,-299.9 6948.12,-294.23 6948.12,-288.57 6948.12,-288.57 6948.12,-277.23 6948.12,-277.23 6948.12,-271.57 6953.79,-265.9 6959.46,-265.9"/>
</g>
<!-- _Core3d__Core3dFxaa&#45;&gt;_Core3d__Core3dContrastAdaptiveSharpening -->
<g id="edge24" class="edge">
<title>_Core3d__Core3dFxaa:e&#45;&gt;_Core3d__Core3dContrastAdaptiveSharpening:w</title>
<path fill="none" stroke="white" d="M7106.12,-282.9C7147.4,-282.9 7153.74,-316.04 7188.74,-321.99"/>
<polygon fill="white" stroke="white" points="7188.24,-325.46 7198.49,-322.78 7188.81,-318.48 7188.24,-325.46"/>
</g>
<!-- _Core3d__Core3dFxaa&#45;&gt;_Core3d__Core3dEndMainPassPostProcessing -->
<g id="edge32" class="edge">
<title>_Core3d__Core3dFxaa:e&#45;&gt;_Core3d__Core3dEndMainPassPostProcessing:w</title>
<path fill="none" stroke="white" d="M7106.12,-282.9C7244.03,-282.9 7284.1,-253.48 7416.25,-292.9 7453.16,-303.91 7455.47,-335.76 7486.93,-341.88"/>
<polygon fill="white" stroke="white" points="7486.47,-345.35 7496.74,-342.76 7487.1,-338.38 7486.47,-345.35"/>
</g>
<!-- _Core3d__Core3dSmaa -->
<g id="node29" class="node">
<title>_Core3d__Core3dSmaa</title>
<text xml:space="preserve" text-anchor="start" x="7008.62" y="-362.6" font-family="Helvetica,sans-Serif" font-size="14.00" fill="white">Smaa</text>
<text xml:space="preserve" text-anchor="start" x="6951.25" y="-352.4" font-family="Helvetica,sans-Serif" font-size="10.00" fill="red">ViewNodeRunner&lt;SmaaNode&gt;</text>
<path fill="none" stroke="white" d="M6957.58,-345.9C6957.58,-345.9 7098.67,-345.9 7098.67,-345.9 7104.33,-345.9 7110,-351.57 7110,-357.23 7110,-357.23 7110,-368.57 7110,-368.57 7110,-374.23 7104.33,-379.9 7098.67,-379.9 7098.67,-379.9 6957.58,-379.9 6957.58,-379.9 6951.92,-379.9 6946.25,-374.23 6946.25,-368.57 6946.25,-368.57 6946.25,-357.23 6946.25,-357.23 6946.25,-351.57 6951.92,-345.9 6957.58,-345.9"/>
</g>
<!-- _Core3d__Core3dSmaa&#45;&gt;_Core3d__Core3dEndMainPassPostProcessing -->
<g id="edge33" class="edge">
<title>_Core3d__Core3dSmaa:e&#45;&gt;_Core3d__Core3dEndMainPassPostProcessing:w</title>
<path fill="none" stroke="white" d="M7108,-362.9C7245.07,-362.9 7279.58,-363.43 7416.25,-352.9 7448.71,-350.4 7459.21,-344.47 7486.77,-343.16"/>
<polygon fill="white" stroke="white" points="7486.82,-346.66 7496.74,-342.93 7486.66,-339.66 7486.82,-346.66"/>
</g>
<!-- _Core3d__Core3dTaa -->
<g id="node30" class="node">
<title>_Core3d__Core3dTaa</title>
<text xml:space="preserve" text-anchor="start" x="5604.75" y="-347.6" font-family="Helvetica,sans-Serif" font-size="14.00" fill="white">Taa</text>
<text xml:space="preserve" text-anchor="start" x="5508.75" y="-337.4" font-family="Helvetica,sans-Serif" font-size="10.00" fill="red">ViewNodeRunner&lt;TemporalAntiAliasNode&gt;</text>
<path fill="none" stroke="white" d="M5515.08,-330.9C5515.08,-330.9 5716.92,-330.9 5716.92,-330.9 5722.58,-330.9 5728.25,-336.57 5728.25,-342.23 5728.25,-342.23 5728.25,-353.57 5728.25,-353.57 5728.25,-359.23 5722.58,-364.9 5716.92,-364.9 5716.92,-364.9 5515.08,-364.9 5515.08,-364.9 5509.42,-364.9 5503.75,-359.23 5503.75,-353.57 5503.75,-353.57 5503.75,-342.23 5503.75,-342.23 5503.75,-336.57 5509.42,-330.9 5515.08,-330.9"/>
</g>
<!-- _Core3d__Core3dTaa&#45;&gt;_Core3d__Core3dBloom -->
<g id="edge64" class="edge">
<title>_Core3d__Core3dTaa:e&#45;&gt;_Core3d__Core3dBloom:w</title>
<path fill="none" stroke="white" d="M5726.25,-347.9C5766.83,-347.9 5772.82,-314.77 5807.18,-308.81"/>
<polygon fill="white" stroke="white" points="5807.06,-312.33 5816.74,-308.02 5806.49,-305.36 5807.06,-312.33"/>
</g>
<!-- _Core3d__Core3dMainTransmissivePass -->
<g id="node32" class="node">
<title>_Core3d__Core3dMainTransmissivePass</title>
<text xml:space="preserve" text-anchor="start" x="3452.12" y="-380.6" font-family="Helvetica,sans-Serif" font-size="14.00" fill="white">MainTransmissivePass</text>
<text xml:space="preserve" text-anchor="start" x="3405.25" y="-370.4" font-family="Helvetica,sans-Serif" font-size="10.00" fill="red">ViewNodeRunner&lt;MainTransmissivePass3dNode&gt;</text>
<path fill="none" stroke="white" d="M3411.58,-363.9C3411.58,-363.9 3646.42,-363.9 3646.42,-363.9 3652.08,-363.9 3657.75,-369.57 3657.75,-375.23 3657.75,-375.23 3657.75,-386.57 3657.75,-386.57 3657.75,-392.23 3652.08,-397.9 3646.42,-397.9 3646.42,-397.9 3411.58,-397.9 3411.58,-397.9 3405.92,-397.9 3400.25,-392.23 3400.25,-386.57 3400.25,-386.57 3400.25,-375.23 3400.25,-375.23 3400.25,-369.57 3405.92,-363.9 3411.58,-363.9"/>
</g>
<!-- _Core3d__Core3dMainOpaquePass&#45;&gt;_Core3d__Core3dMainTransmissivePass -->
<g id="edge46" class="edge">
<title>_Core3d__Core3dMainOpaquePass:e&#45;&gt;_Core3d__Core3dMainTransmissivePass:w</title>
<path fill="none" stroke="white" d="M3310.25,-380.9C3347.15,-380.9 3359.07,-380.9 3391.09,-380.9"/>
<polygon fill="white" stroke="white" points="3390.74,-384.4 3400.74,-380.9 3390.74,-377.4 3390.74,-384.4"/>
</g>
<!-- _Core3d__Core3dMainTransparentPass -->
<g id="node33" class="node">
<title>_Core3d__Core3dMainTransparentPass</title>
<text xml:space="preserve" text-anchor="start" x="3798" y="-380.6" font-family="Helvetica,sans-Serif" font-size="14.00" fill="white">MainTransparentPass</text>
<text xml:space="preserve" text-anchor="start" x="3750.75" y="-370.4" font-family="Helvetica,sans-Serif" font-size="10.00" fill="red">ViewNodeRunner&lt;MainTransparentPass3dNode&gt;</text>
<path fill="none" stroke="white" d="M3757.08,-363.9C3757.08,-363.9 3985.17,-363.9 3985.17,-363.9 3990.83,-363.9 3996.5,-369.57 3996.5,-375.23 3996.5,-375.23 3996.5,-386.57 3996.5,-386.57 3996.5,-392.23 3990.83,-397.9 3985.17,-397.9 3985.17,-397.9 3757.08,-397.9 3757.08,-397.9 3751.42,-397.9 3745.75,-392.23 3745.75,-386.57 3745.75,-386.57 3745.75,-375.23 3745.75,-375.23 3745.75,-369.57 3751.42,-363.9 3757.08,-363.9"/>
</g>
<!-- _Core3d__Core3dMainTransmissivePass&#45;&gt;_Core3d__Core3dMainTransparentPass -->
<g id="edge47" class="edge">
<title>_Core3d__Core3dMainTransmissivePass:e&#45;&gt;_Core3d__Core3dMainTransparentPass:w</title>
<path fill="none" stroke="white" d="M3655.75,-380.9C3692.65,-380.9 3704.57,-380.9 3736.59,-380.9"/>
<polygon fill="white" stroke="white" points="3736.24,-384.4 3746.24,-380.9 3736.24,-377.4 3736.24,-384.4"/>
</g>
<!-- _Core3d__Core3dMainTransparentPass&#45;&gt;_Core3d__Core3dEndMainPass -->
<g id="edge28" class="edge">
<title>_Core3d__Core3dMainTransparentPass:e&#45;&gt;_Core3d__Core3dEndMainPass:w</title>
<path fill="none" stroke="white" d="M3994.5,-380.9C4031.08,-380.9 4039.97,-375.79 4076.5,-373.9 4218.65,-366.54 4257.17,-367.82 4394.04,-367.9"/>
<polygon fill="white" stroke="white" points="4393.86,-371.4 4403.86,-367.9 4393.86,-364.4 4393.86,-371.4"/>
</g>
<!-- _Core3d__Core3dOitResolvePass -->
<g id="node37" class="node">
<title>_Core3d__Core3dOitResolvePass</title>
<text xml:space="preserve" text-anchor="start" x="4127" y="-403.6" font-family="Helvetica,sans-Serif" font-size="14.00" fill="white">OitResolvePass</text>
<text xml:space="preserve" text-anchor="start" x="4089.5" y="-393.4" font-family="Helvetica,sans-Serif" font-size="10.00" fill="red">ViewNodeRunner&lt;OitResolveNode&gt;</text>
<path fill="none" stroke="white" d="M4095.83,-386.9C4095.83,-386.9 4262.42,-386.9 4262.42,-386.9 4268.08,-386.9 4273.75,-392.57 4273.75,-398.23 4273.75,-398.23 4273.75,-409.57 4273.75,-409.57 4273.75,-415.23 4268.08,-420.9 4262.42,-420.9 4262.42,-420.9 4095.83,-420.9 4095.83,-420.9 4090.17,-420.9 4084.5,-415.23 4084.5,-409.57 4084.5,-409.57 4084.5,-398.23 4084.5,-398.23 4084.5,-392.57 4090.17,-386.9 4095.83,-386.9"/>
</g>
<!-- _Core3d__Core3dMainTransparentPass&#45;&gt;_Core3d__Core3dOitResolvePass -->
<g id="edge51" class="edge">
<title>_Core3d__Core3dMainTransparentPass:e&#45;&gt;_Core3d__Core3dOitResolvePass:w</title>
<path fill="none" stroke="white" d="M3994.5,-380.9C4032.53,-380.9 4042.52,-399.63 4075.07,-403.29"/>
<polygon fill="white" stroke="white" points="4074.81,-406.78 4084.99,-403.82 4075.19,-399.79 4074.81,-406.78"/>
</g>
<!-- _Core3d__Core3dCopyDeferredLightingId -->
<g id="node34" class="node">
<title>_Core3d__Core3dCopyDeferredLightingId</title>
<text xml:space="preserve" text-anchor="start" x="1794.75" y="-350.6" font-family="Helvetica,sans-Serif" font-size="14.00" fill="white">CopyDeferredLightingId</text>
<text xml:space="preserve" text-anchor="start" x="1756.5" y="-340.4" font-family="Helvetica,sans-Serif" font-size="10.00" fill="red">ViewNodeRunner&lt;CopyDeferredLightingIdNode&gt;</text>
<path fill="none" stroke="white" d="M1762.83,-333.9C1762.83,-333.9 1991.67,-333.9 1991.67,-333.9 1997.33,-333.9 2003,-339.57 2003,-345.23 2003,-345.23 2003,-356.57 2003,-356.57 2003,-362.23 1997.33,-367.9 1991.67,-367.9 1991.67,-367.9 1762.83,-367.9 1762.83,-367.9 1757.17,-367.9 1751.5,-362.23 1751.5,-356.57 1751.5,-356.57 1751.5,-345.23 1751.5,-345.23 1751.5,-339.57 1757.17,-333.9 1762.83,-333.9"/>
</g>
<!-- _Core3d__Core3dCopyDeferredLightingId&#45;&gt;_Core3d__Core3dEndPrepasses -->
<g id="edge35" class="edge">
<title>_Core3d__Core3dCopyDeferredLightingId:e&#45;&gt;_Core3d__Core3dEndPrepasses:w</title>
<path fill="none" stroke="white" d="M2001,-350.9C2061.21,-350.9 2079.08,-350.9 2134,-350.9"/>
<polygon fill="white" stroke="white" points="2133.99,-354.4 2143.99,-350.9 2133.99,-347.4 2133.99,-354.4"/>
</g>
<!-- _Core3d__Core3dEarlyDeferredPrepass -->
<g id="node35" class="node">
<title>_Core3d__Core3dEarlyDeferredPrepass</title>
<text xml:space="preserve" text-anchor="start" x="428.88" y="-350.6" font-family="Helvetica,sans-Serif" font-size="14.00" fill="white">EarlyDeferredPrepass</text>
<text xml:space="preserve" text-anchor="start" x="369.25" y="-340.4" font-family="Helvetica,sans-Serif" font-size="10.00" fill="red">ViewNodeRunner&lt;EarlyDeferredGBufferPrepassNode&gt;</text>
<path fill="none" stroke="white" d="M375.58,-333.9C375.58,-333.9 631.42,-333.9 631.42,-333.9 637.08,-333.9 642.75,-339.57 642.75,-345.23 642.75,-345.23 642.75,-356.57 642.75,-356.57 642.75,-362.23 637.08,-367.9 631.42,-367.9 631.42,-367.9 375.58,-367.9 375.58,-367.9 369.92,-367.9 364.25,-362.23 364.25,-356.57 364.25,-356.57 364.25,-345.23 364.25,-345.23 364.25,-339.57 369.92,-333.9 375.58,-333.9"/>
</g>
<!-- _Core3d__Core3dEarlyDeferredPrepass&#45;&gt;_Core3d__Core3dEarlyDownsampleDepth -->
<g id="edge25" class="edge">
<title>_Core3d__Core3dEarlyDeferredPrepass:e&#45;&gt;_Core3d__Core3dEarlyDownsampleDepth:w</title>
<path fill="none" stroke="white" d="M640.75,-350.9C690.55,-350.9 704.35,-333.76 748.81,-331.21"/>
<polygon fill="white" stroke="white" points="748.71,-334.72 758.61,-330.94 748.52,-327.72 748.71,-334.72"/>
</g>
<!-- _Core3d__Core3dEarlyDeferredPrepass&#45;&gt;_Core3d__Core3dLatePrepass -->
<g id="edge52" class="edge">
<title>_Core3d__Core3dEarlyDeferredPrepass:e&#45;&gt;_Core3d__Core3dLatePrepass:w</title>
<path fill="none" stroke="white" d="M640.75,-350.9C677.46,-350.9 686.1,-358.67 722.75,-360.9 832.44,-367.56 860.22,-365.89 970,-360.9 1014.92,-358.86 1028.58,-352.14 1068.41,-351.05"/>
<polygon fill="white" stroke="white" points="1068.28,-354.55 1078.24,-350.92 1068.19,-347.55 1068.28,-354.55"/>
</g>
<!-- _Core3d__Core3dLateDeferredPrepass -->
<g id="node36" class="node">
<title>_Core3d__Core3dLateDeferredPrepass</title>
<text xml:space="preserve" text-anchor="start" x="1454.5" y="-350.6" font-family="Helvetica,sans-Serif" font-size="14.00" fill="white">LateDeferredPrepass</text>
<text xml:space="preserve" text-anchor="start" x="1393.75" y="-340.4" font-family="Helvetica,sans-Serif" font-size="10.00" fill="red">ViewNodeRunner&lt;LateDeferredGBufferPrepassNode&gt;</text>
<path fill="none" stroke="white" d="M1400.08,-333.9C1400.08,-333.9 1652.17,-333.9 1652.17,-333.9 1657.83,-333.9 1663.5,-339.57 1663.5,-345.23 1663.5,-345.23 1663.5,-356.57 1663.5,-356.57 1663.5,-362.23 1657.83,-367.9 1652.17,-367.9 1652.17,-367.9 1400.08,-367.9 1400.08,-367.9 1394.42,-367.9 1388.75,-362.23 1388.75,-356.57 1388.75,-356.57 1388.75,-345.23 1388.75,-345.23 1388.75,-339.57 1394.42,-333.9 1400.08,-333.9"/>
</g>
<!-- _Core3d__Core3dLateDeferredPrepass&#45;&gt;_Core3d__Core3dCopyDeferredLightingId -->
<g id="edge48" class="edge">
<title>_Core3d__Core3dLateDeferredPrepass:e&#45;&gt;_Core3d__Core3dCopyDeferredLightingId:w</title>
<path fill="none" stroke="white" d="M1661.5,-350.9C1698.4,-350.9 1710.32,-350.9 1742.34,-350.9"/>
<polygon fill="white" stroke="white" points="1741.99,-354.4 1751.99,-350.9 1741.99,-347.4 1741.99,-354.4"/>
</g>
<!-- _Core3d__Core3dOitResolvePass&#45;&gt;_Core3d__Core3dEndMainPass -->
<g id="edge29" class="edge">
<title>_Core3d__Core3dOitResolvePass:e&#45;&gt;_Core3d__Core3dEndMainPass:w</title>
<path fill="none" stroke="white" d="M4271.75,-403.9C4329.29,-403.9 4342.29,-372.39 4394.09,-368.33"/>
<polygon fill="white" stroke="white" points="4394,-371.84 4403.86,-367.96 4393.74,-364.84 4394,-371.84"/>
</g>
<!-- _Core3d__Core3dEarlyPrepass -->
<g id="node38" class="node">
<title>_Core3d__Core3dEarlyPrepass</title>
<text xml:space="preserve" text-anchor="start" x="105.5" y="-350.6" font-family="Helvetica,sans-Serif" font-size="14.00" fill="white">EarlyPrepass</text>
<text xml:space="preserve" text-anchor="start" x="55.62" y="-340.4" font-family="Helvetica,sans-Serif" font-size="10.00" fill="red">ViewNodeRunner&lt;EarlyPrepassNode&gt;</text>
<path fill="none" stroke="white" d="M61.96,-333.9C61.96,-333.9 238.29,-333.9 238.29,-333.9 243.96,-333.9 249.62,-339.57 249.62,-345.23 249.62,-345.23 249.62,-356.57 249.62,-356.57 249.62,-362.23 243.96,-367.9 238.29,-367.9 238.29,-367.9 61.96,-367.9 61.96,-367.9 56.29,-367.9 50.62,-362.23 50.62,-356.57 50.62,-356.57 50.62,-345.23 50.62,-345.23 50.62,-339.57 56.29,-333.9 61.96,-333.9"/>
</g>
<!-- _Core3d__Core3dEarlyPrepass&#45;&gt;_Core3d__Core3dEarlyDeferredPrepass -->
<g id="edge49" class="edge">
<title>_Core3d__Core3dEarlyPrepass:e&#45;&gt;_Core3d__Core3dEarlyDeferredPrepass:w</title>
<path fill="none" stroke="white" d="M247.62,-350.9C296.33,-350.9 311.29,-350.9 354.86,-350.9"/>
<polygon fill="white" stroke="white" points="354.74,-354.4 364.74,-350.9 354.74,-347.4 354.74,-354.4"/>
</g>
<!-- _Core3d__Core3dLatePrepass&#45;&gt;_Core3d__Core3dLateDeferredPrepass -->
<g id="edge50" class="edge">
<title>_Core3d__Core3dLatePrepass:e&#45;&gt;_Core3d__Core3dLateDeferredPrepass:w</title>
<path fill="none" stroke="white" d="M1271,-350.9C1320.17,-350.9 1335.27,-350.9 1379.25,-350.9"/>
<polygon fill="white" stroke="white" points="1379.24,-354.4 1389.24,-350.9 1379.24,-347.4 1379.24,-354.4"/>
</g>
<!-- _Core3d__Core3dTonemapping&#45;&gt;_Core3d__Core3dContrastAdaptiveSharpening -->
<g id="edge23" class="edge">
<title>_Core3d__Core3dTonemapping:e&#45;&gt;_Core3d__Core3dContrastAdaptiveSharpening:w</title>
<path fill="none" stroke="white" d="M6856.25,-305.9C6892.83,-305.9 6901.74,-310.65 6938.25,-312.9 7050.59,-319.84 7081.55,-322.71 7188.69,-322.89"/>
<polygon fill="white" stroke="white" points="7188.48,-326.39 7198.49,-322.9 7188.49,-319.39 7188.48,-326.39"/>
</g>
<!-- _Core3d__Core3dTonemapping&#45;&gt;_Core3d__Core3dEndMainPassPostProcessing -->
<g id="edge30" class="edge">
<title>_Core3d__Core3dTonemapping:e&#45;&gt;_Core3d__Core3dEndMainPassPostProcessing:w</title>
<path fill="none" stroke="white" d="M6856.25,-305.9C6899.64,-305.9 6896.63,-265.18 6938.25,-252.9 7008.34,-232.22 7391.48,-257.56 7416.25,-267.9 7457.91,-285.3 7450.66,-333.55 7486.82,-341.72"/>
<polygon fill="white" stroke="white" points="7486.44,-345.2 7496.74,-342.74 7487.16,-338.24 7486.44,-345.2"/>
</g>
<!-- _Core3d__Core3dTonemapping&#45;&gt;_Core3d__Core3dFxaa -->
<g id="edge41" class="edge">
<title>_Core3d__Core3dTonemapping:e&#45;&gt;_Core3d__Core3dFxaa:w</title>
<path fill="none" stroke="white" d="M6856.25,-305.9C6895.18,-305.9 6905.37,-287.01 6938.91,-283.47"/>
<polygon fill="white" stroke="white" points="6938.8,-286.98 6948.61,-282.98 6938.45,-279.99 6938.8,-286.98"/>
</g>
<!-- _Core3d__Core3dTonemapping&#45;&gt;_Core3d__Core3dSmaa -->
<g id="edge42" class="edge">
<title>_Core3d__Core3dTonemapping:e&#45;&gt;_Core3d__Core3dSmaa:w</title>
<path fill="none" stroke="white" d="M6856.25,-305.9C6900.22,-305.9 6900.49,-353.52 6936.94,-361.71"/>
<polygon fill="white" stroke="white" points="6936.43,-365.18 6946.74,-362.74 6937.17,-358.21 6936.43,-365.18"/>
</g>
<!-- _Core3d__Core3dDeferredLightingPass&#45;&gt;_Core3d__Core3dMainOpaquePass -->
<g id="edge45" class="edge">
<title>_Core3d__Core3dDeferredLightingPass:e&#45;&gt;_Core3d__Core3dMainOpaquePass:w</title>
<path fill="none" stroke="white" d="M2991,-385.9C3027.95,-385.9 3039.78,-381.83 3071.83,-381.03"/>
<polygon fill="white" stroke="white" points="3071.53,-384.54 3081.49,-380.92 3071.45,-377.54 3071.53,-384.54"/>
</g>
<!-- _Core3d__Core3dScreenSpaceReflections -->
<g id="node43" class="node">
<title>_Core3d__Core3dScreenSpaceReflections</title>
<text xml:space="preserve" text-anchor="start" x="67.62" y="-410.6" font-family="Helvetica,sans-Serif" font-size="14.00" fill="white">ScreenSpaceReflections</text>
<text xml:space="preserve" text-anchor="start" x="29" y="-400.4" font-family="Helvetica,sans-Serif" font-size="10.00" fill="red">ViewNodeRunner&lt;ScreenSpaceReflectionsNode&gt;</text>
<path fill="none" stroke="white" d="M35.33,-393.9C35.33,-393.9 264.92,-393.9 264.92,-393.9 270.58,-393.9 276.25,-399.57 276.25,-405.23 276.25,-405.23 276.25,-416.57 276.25,-416.57 276.25,-422.23 270.58,-427.9 264.92,-427.9 264.92,-427.9 35.33,-427.9 35.33,-427.9 29.67,-427.9 24,-422.23 24,-416.57 24,-416.57 24,-405.23 24,-405.23 24,-399.57 29.67,-393.9 35.33,-393.9"/>
</g>
<!-- _Core3d__Core3dVolumetricFog&#45;&gt;_Core3d__Core3dStartMainPassPostProcessing -->
<g id="edge40" class="edge">
<title>_Core3d__Core3dVolumetricFog:e&#45;&gt;_Core3d__Core3dStartMainPassPostProcessing:w</title>
<path fill="none" stroke="white" d="M4837.5,-367.9C4878.08,-367.9 4884.07,-334.77 4918.43,-328.81"/>
<polygon fill="white" stroke="white" points="4918.31,-332.33 4927.99,-328.02 4917.74,-325.36 4918.31,-332.33"/>
</g>
<!-- _Core3d__Core3dBloom&#45;&gt;_Core3d__Core3dTonemapping -->
<g id="edge55" class="edge">
<title>_Core3d__Core3dBloom:e&#45;&gt;_Core3d__Core3dTonemapping:w</title>
<path fill="none" stroke="white" d="M5981.75,-307.9C6018.46,-307.9 6027.1,-300.13 6063.75,-297.9 6291.44,-284.07 6349.16,-286.81 6577,-297.9 6609.43,-299.48 6620.03,-304.55 6647.55,-305.68"/>
<polygon fill="white" stroke="white" points="6647.42,-309.17 6657.49,-305.87 6647.56,-302.18 6647.42,-309.17"/>
</g>
<!-- _Core3d__Core3dDepthOfField -->
<g id="node46" class="node">
<title>_Core3d__Core3dDepthOfField</title>
<text xml:space="preserve" text-anchor="start" x="6126.62" y="-327.6" font-family="Helvetica,sans-Serif" font-size="14.00" fill="white">DepthOfField</text>
<text xml:space="preserve" text-anchor="start" x="6076.75" y="-317.4" font-family="Helvetica,sans-Serif" font-size="10.00" fill="red">ViewNodeRunner&lt;DepthOfFieldNode&gt;</text>
<path fill="none" stroke="white" d="M6083.08,-310.9C6083.08,-310.9 6260.17,-310.9 6260.17,-310.9 6265.83,-310.9 6271.5,-316.57 6271.5,-322.23 6271.5,-322.23 6271.5,-333.57 6271.5,-333.57 6271.5,-339.23 6265.83,-344.9 6260.17,-344.9 6260.17,-344.9 6083.08,-344.9 6083.08,-344.9 6077.42,-344.9 6071.75,-339.23 6071.75,-333.57 6071.75,-333.57 6071.75,-322.23 6071.75,-322.23 6071.75,-316.57 6077.42,-310.9 6083.08,-310.9"/>
</g>
<!-- _Core3d__Core3dBloom&#45;&gt;_Core3d__Core3dDepthOfField -->
<g id="edge65" class="edge">
<title>_Core3d__Core3dBloom:e&#45;&gt;_Core3d__Core3dDepthOfField:w</title>
<path fill="none" stroke="white" d="M5981.75,-307.9C6019.51,-307.9 6029.96,-324.18 6062.39,-327.37"/>
<polygon fill="white" stroke="white" points="6062.08,-330.86 6072.24,-327.83 6062.41,-323.86 6062.08,-330.86"/>
</g>
<!-- _Core3d__Core3dDepthOfField&#45;&gt;_Core3d__Core3dTonemapping -->
<g id="edge56" class="edge">
<title>_Core3d__Core3dDepthOfField:e&#45;&gt;_Core3d__Core3dTonemapping:w</title>
<path fill="none" stroke="white" d="M6269.5,-327.9C6308.31,-327.9 6313.29,-351.13 6351.5,-357.9 6450.19,-375.39 6480.75,-385.85 6577,-357.9 6614.4,-347.04 6615.93,-313.44 6647.58,-306.98"/>
<polygon fill="white" stroke="white" points="6647.87,-310.47 6657.49,-306.04 6647.21,-303.5 6647.87,-310.47"/>
</g>
<!-- _Core3d__Core3dPostProcessing -->
<g id="node47" class="node">
<title>_Core3d__Core3dPostProcessing</title>
<text xml:space="preserve" text-anchor="start" x="6412.5" y="-327.6" font-family="Helvetica,sans-Serif" font-size="14.00" fill="white">PostProcessing</text>
<text xml:space="preserve" text-anchor="start" x="6364.5" y="-317.4" font-family="Helvetica,sans-Serif" font-size="10.00" fill="red">ViewNodeRunner&lt;PostProcessingNode&gt;</text>
<path fill="none" stroke="white" d="M6370.83,-310.9C6370.83,-310.9 6557.67,-310.9 6557.67,-310.9 6563.33,-310.9 6569,-316.57 6569,-322.23 6569,-322.23 6569,-333.57 6569,-333.57 6569,-339.23 6563.33,-344.9 6557.67,-344.9 6557.67,-344.9 6370.83,-344.9 6370.83,-344.9 6365.17,-344.9 6359.5,-339.23 6359.5,-333.57 6359.5,-333.57 6359.5,-322.23 6359.5,-322.23 6359.5,-316.57 6365.17,-310.9 6370.83,-310.9"/>
</g>
<!-- _Core3d__Core3dDepthOfField&#45;&gt;_Core3d__Core3dPostProcessing -->
<g id="edge66" class="edge">
<title>_Core3d__Core3dDepthOfField:e&#45;&gt;_Core3d__Core3dPostProcessing:w</title>
<path fill="none" stroke="white" d="M6269.5,-327.9C6306.4,-327.9 6318.32,-327.9 6350.34,-327.9"/>
<polygon fill="white" stroke="white" points="6349.99,-331.4 6359.99,-327.9 6349.99,-324.4 6349.99,-331.4"/>
</g>
<!-- _Core3d__Core3dPostProcessing&#45;&gt;_Core3d__Core3dTonemapping -->
<g id="edge57" class="edge">
<title>_Core3d__Core3dPostProcessing:e&#45;&gt;_Core3d__Core3dTonemapping:w</title>
<path fill="none" stroke="white" d="M6567,-327.9C6604.94,-327.9 6615.09,-309.99 6647.6,-306.49"/>
<polygon fill="white" stroke="white" points="6647.68,-309.99 6657.49,-305.98 6647.32,-303 6647.68,-309.99"/>
</g>
<!-- _Core3d__Core3dMotionBlur&#45;&gt;_Core3d__Core3dTaa -->
<g id="edge43" class="edge">
<title>_Core3d__Core3dMotionBlur:e&#45;&gt;_Core3d__Core3dTaa:w</title>
<path fill="none" stroke="white" d="M5413.75,-327.9C5451.51,-327.9 5461.96,-344.18 5494.39,-347.37"/>
<polygon fill="white" stroke="white" points="5494.08,-350.86 5504.24,-347.83 5494.41,-343.86 5494.08,-350.86"/>
</g>
<!-- _Core3d__Core3dMotionBlur&#45;&gt;_Core3d__Core3dBloom -->
<g id="edge63" class="edge">
<title>_Core3d__Core3dMotionBlur:e&#45;&gt;_Core3d__Core3dBloom:w</title>
<path fill="none" stroke="white" d="M5413.75,-327.9C5450.46,-327.9 5459.14,-320.69 5495.75,-317.9 5634.97,-307.28 5672.87,-307.86 5807.13,-307.9"/>
<polygon fill="white" stroke="white" points="5806.74,-311.4 5816.74,-307.9 5806.74,-304.4 5806.74,-311.4"/>
</g>
<!-- _Core3d__Core3dMsaaWriteback -->
<g id="node49" class="node">
<title>_Core3d__Core3dMsaaWriteback</title>
<text xml:space="preserve" text-anchor="start" x="2144" y="-410.6" font-family="Helvetica,sans-Serif" font-size="14.00" fill="white">MsaaWriteback</text>
<text xml:space="preserve" text-anchor="start" x="2096" y="-400.4" font-family="Helvetica,sans-Serif" font-size="10.00" fill="red">ViewNodeRunner&lt;MsaaWritebackNode&gt;</text>
<path fill="none" stroke="white" d="M2102.33,-393.9C2102.33,-393.9 2291.42,-393.9 2291.42,-393.9 2297.08,-393.9 2302.75,-399.57 2302.75,-405.23 2302.75,-405.23 2302.75,-416.57 2302.75,-416.57 2302.75,-422.23 2297.08,-427.9 2291.42,-427.9 2291.42,-427.9 2102.33,-427.9 2102.33,-427.9 2096.67,-427.9 2091,-422.23 2091,-416.57 2091,-416.57 2091,-405.23 2091,-405.23 2091,-399.57 2096.67,-393.9 2102.33,-393.9"/>
</g>
<!-- _Core3d__Core3dMsaaWriteback&#45;&gt;_Core3d__Core3dStartMainPass -->
<g id="edge37" class="edge">
<title>_Core3d__Core3dMsaaWriteback:e&#45;&gt;_Core3d__Core3dStartMainPass:w</title>
<path fill="none" stroke="white" d="M2300.75,-410.9C2365.63,-410.9 2374,-357.73 2432.27,-351.49"/>
<polygon fill="white" stroke="white" points="2432.43,-354.99 2442.24,-350.98 2432.07,-348 2432.43,-354.99"/>
</g>
<!-- _Core3d__Core3dUiPass&#45;&gt;_Core3d__Core3dUpscaling -->
<g id="edge59" class="edge">
<title>_Core3d__Core3dUiPass:e&#45;&gt;_Core3d__Core3dUpscaling:w</title>
<path fill="none" stroke="white" d="M7945,-382.9C7982.76,-382.9 7993.21,-366.62 8025.64,-363.44"/>
<polygon fill="white" stroke="white" points="8025.66,-366.94 8035.49,-362.97 8025.33,-359.95 8025.66,-366.94"/>
</g>
<!-- _CameraDriverLabel -->
<g id="node51" class="node">
<title>_CameraDriverLabel</title>
<text xml:space="preserve" text-anchor="start" x="83.38" y="-493.6" font-family="Helvetica,sans-Serif" font-size="14.00" fill="white">CameraDriverLabel</text>
<text xml:space="preserve" text-anchor="start" x="103.25" y="-483.4" font-family="Helvetica,sans-Serif" font-size="10.00" fill="red">CameraDriverNode</text>
<path fill="none" stroke="white" d="M89.71,-476.9C89.71,-476.9 210.54,-476.9 210.54,-476.9 216.21,-476.9 221.88,-482.57 221.88,-488.23 221.88,-488.23 221.88,-499.57 221.88,-499.57 221.88,-505.23 216.21,-510.9 210.54,-510.9 210.54,-510.9 89.71,-510.9 89.71,-510.9 84.04,-510.9 78.38,-505.23 78.38,-499.57 78.38,-499.57 78.38,-488.23 78.38,-488.23 78.38,-482.57 84.04,-476.9 89.71,-476.9"/>
</g>
</g>
</svg>
