<?xml version="1.0" encoding="UTF-8" standalone="no"?>
<!DOCTYPE svg PUBLIC "-//W3C//DTD SVG 1.1//EN"
 "http://www.w3.org/Graphics/SVG/1.1/DTD/svg11.dtd">
<!-- Generated by graphviz version 10.0.1 (0)
 -->
<!-- Title: RenderGraph Pages: 1 -->
<svg width="4915pt" height="451pt"
 viewBox="0.00 0.00 4915.00 451.00" xmlns="http://www.w3.org/2000/svg" xmlns:xlink="http://www.w3.org/1999/xlink">
<g id="graph0" class="graph" transform="scale(1 1) rotate(0) translate(4 447)">
<title>RenderGraph</title>
<polygon fill="#0d1117" stroke="none" points="-4,4 -4,-447 4911,-447 4911,4 -4,4"/>
<g id="clust1" class="cluster">
<title>cluster_Core2d</title>
<path fill="#343a42" stroke="#343a42" d="M49.25,-8C49.25,-8 2792.62,-8 2792.62,-8 2798.62,-8 2804.62,-14 2804.62,-20 2804.62,-20 2804.62,-170 2804.62,-170 2804.62,-176 2798.62,-182 2792.62,-182 2792.62,-182 49.25,-182 49.25,-182 43.25,-182 37.25,-176 37.25,-170 37.25,-170 37.25,-20 37.25,-20 37.25,-14 43.25,-8 49.25,-8"/>
<text text-anchor="middle" x="1420.94" y="-164.7" font-family="Times,serif" font-size="14.00" fill="white">Core2d</text>
</g>
<g id="clust2" class="cluster">
<title>cluster_Core2d_SubGraphUi</title>
<path fill="#6f90ad" stroke="#6f90ad" d="M72.25,-16C72.25,-16 152,-16 152,-16 158,-16 164,-22 164,-28 164,-28 164,-87 164,-87 164,-93 158,-99 152,-99 152,-99 72.25,-99 72.25,-99 66.25,-99 60.25,-93 60.25,-87 60.25,-87 60.25,-28 60.25,-28 60.25,-22 66.25,-16 72.25,-16"/>
<text text-anchor="middle" x="112.12" y="-81.7" font-family="Times,serif" font-size="14.00">SubGraphUi</text>
</g>
<g id="clust3" class="cluster">
<title>cluster_Core3d</title>
<path fill="#343a42" stroke="#343a42" d="M20,-190C20,-190 4887,-190 4887,-190 4893,-190 4899,-196 4899,-202 4899,-202 4899,-381 4899,-381 4899,-387 4893,-393 4887,-393 4887,-393 20,-393 20,-393 14,-393 8,-387 8,-381 8,-381 8,-202 8,-202 8,-196 14,-190 20,-190"/>
<text text-anchor="middle" x="2453.5" y="-375.7" font-family="Times,serif" font-size="14.00" fill="white">Core3d</text>
</g>
<g id="clust4" class="cluster">
<title>cluster_Core3d_SubGraphUi</title>
<path fill="#6f90ad" stroke="#6f90ad" d="M72.25,-213C72.25,-213 152,-213 152,-213 158,-213 164,-219 164,-225 164,-225 164,-284 164,-284 164,-290 158,-296 152,-296 152,-296 72.25,-296 72.25,-296 66.25,-296 60.25,-290 60.25,-284 60.25,-284 60.25,-225 60.25,-225 60.25,-219 66.25,-213 72.25,-213"/>
<text text-anchor="middle" x="112.12" y="-278.7" font-family="Times,serif" font-size="14.00">SubGraphUi</text>
</g>
<!-- _Core2d_SubGraphUi__Core2d_SubGraphUiUiPass -->
<g id="node1" class="node">
<title>_Core2d_SubGraphUi__Core2d_SubGraphUiUiPass</title>
<text text-anchor="start" x="89.12" y="-44.7" font-family="Helvetica,sans-Serif" font-size="14.00" fill="white">UiPass</text>
<text text-anchor="start" x="82.75" y="-34.5" font-family="Helvetica,sans-Serif" font-size="10.00" fill="red">UiPassNode</text>
<path fill="none" stroke="white" d="M88.58,-28C88.58,-28 134.67,-28 134.67,-28 140.33,-28 146,-33.67 146,-39.33 146,-39.33 146,-50.67 146,-50.67 146,-56.33 140.33,-62 134.67,-62 134.67,-62 88.58,-62 88.58,-62 82.92,-62 77.25,-56.33 77.25,-50.67 77.25,-50.67 77.25,-39.33 77.25,-39.33 77.25,-33.67 82.92,-28 88.58,-28"/>
</g>
<!-- _Core2d__Core2dConstrastAdaptiveSharpening -->
<g id="node2" class="node">
<title>_Core2d__Core2dConstrastAdaptiveSharpening</title>
<text text-anchor="start" x="1558.75" y="-127.7" font-family="Helvetica,sans-Serif" font-size="14.00" fill="white">ConstrastAdaptiveSharpening</text>
<text text-anchor="start" x="1640.12" y="-117.5" font-family="Helvetica,sans-Serif" font-size="10.00" fill="red">CASNode</text>
<path fill="none" stroke="white" d="M1564.58,-111C1564.58,-111 1760.67,-111 1760.67,-111 1766.33,-111 1772,-116.67 1772,-122.33 1772,-122.33 1772,-133.67 1772,-133.67 1772,-139.33 1766.33,-145 1760.67,-145 1760.67,-145 1564.58,-145 1564.58,-145 1558.92,-145 1553.25,-139.33 1553.25,-133.67 1553.25,-133.67 1553.25,-122.33 1553.25,-122.33 1553.25,-116.67 1558.92,-111 1564.58,-111"/>
</g>
<!-- _Core2d__Core2dEndMainPassPostProcessing -->
<g id="node5" class="node">
<title>_Core2d__Core2dEndMainPassPostProcessing</title>
<text text-anchor="start" x="1922.5" y="-87.7" font-family="Helvetica,sans-Serif" font-size="14.00" fill="white">EndMainPassPostProcessing</text>
<text text-anchor="start" x="1991.12" y="-77.5" font-family="Helvetica,sans-Serif" font-size="10.00" fill="red">EmptyNode</text>
<path fill="none" stroke="white" d="M1928.33,-71C1928.33,-71 2110.92,-71 2110.92,-71 2116.58,-71 2122.25,-76.67 2122.25,-82.33 2122.25,-82.33 2122.25,-93.67 2122.25,-93.67 2122.25,-99.33 2116.58,-105 2110.92,-105 2110.92,-105 1928.33,-105 1928.33,-105 1922.67,-105 1917,-99.33 1917,-93.67 1917,-93.67 1917,-82.33 1917,-82.33 1917,-76.67 1922.67,-71 1928.33,-71"/>
</g>
<!-- _Core2d__Core2dConstrastAdaptiveSharpening&#45;&gt;_Core2d__Core2dEndMainPassPostProcessing -->
<g id="edge6" class="edge">
<title>_Core2d__Core2dConstrastAdaptiveSharpening:e&#45;&gt;_Core2d__Core2dEndMainPassPostProcessing:w</title>
<path fill="none" stroke="white" d="M1769.62,-128C1834.17,-128 1848.47,-92.55 1907.13,-88.4"/>
<polygon fill="white" stroke="white" points="1907.24,-91.89 1917.11,-88.05 1907,-84.9 1907.24,-91.89"/>
</g>
<!-- _Core2d__Core2dMainPass -->
<g id="node3" class="node">
<title>_Core2d__Core2dMainPass</title>
<text text-anchor="start" x="382.75" y="-112.7" font-family="Helvetica,sans-Serif" font-size="14.00" fill="white">MainPass</text>
<text text-anchor="start" x="373" y="-102.5" font-family="Helvetica,sans-Serif" font-size="10.00" fill="red">MainPass2dNode</text>
<path fill="none" stroke="white" d="M378.83,-96C378.83,-96 450.42,-96 450.42,-96 456.08,-96 461.75,-101.67 461.75,-107.33 461.75,-107.33 461.75,-118.67 461.75,-118.67 461.75,-124.33 456.08,-130 450.42,-130 450.42,-130 378.83,-130 378.83,-130 373.17,-130 367.5,-124.33 367.5,-118.67 367.5,-118.67 367.5,-107.33 367.5,-107.33 367.5,-101.67 373.17,-96 378.83,-96"/>
</g>
<!-- _Core2d__Core2dUiPass -->
<g id="node6" class="node">
<title>_Core2d__Core2dUiPass</title>
<text text-anchor="start" x="2330.5" y="-47.7" font-family="Helvetica,sans-Serif" font-size="14.00" fill="white">UiPass</text>
<text text-anchor="start" x="2297.5" y="-37.5" font-family="Helvetica,sans-Serif" font-size="10.00" fill="red">RunGraphOnViewNode</text>
<path fill="none" stroke="white" d="M2303.33,-31C2303.33,-31 2402.67,-31 2402.67,-31 2408.33,-31 2414,-36.67 2414,-42.33 2414,-42.33 2414,-53.67 2414,-53.67 2414,-59.33 2408.33,-65 2402.67,-65 2402.67,-65 2303.33,-65 2303.33,-65 2297.67,-65 2292,-59.33 2292,-53.67 2292,-53.67 2292,-42.33 2292,-42.33 2292,-36.67 2297.67,-31 2303.33,-31"/>
</g>
<!-- _Core2d__Core2dMainPass&#45;&gt;_Core2d__Core2dUiPass -->
<g id="edge7" class="edge">
<title>_Core2d__Core2dMainPass:e&#45;&gt;_Core2d__Core2dUiPass:w</title>
<path fill="none" stroke="white" d="M459.62,-113C534.51,-113 548.04,-79.74 622,-68 819.12,-36.7 871.04,-48 1070.62,-48 1070.62,-48 1070.62,-48 1663.62,-48 1939.96,-48 2011.88,-48 2282.63,-48"/>
<polygon fill="white" stroke="white" points="2282.49,-51.5 2292.49,-48 2282.49,-44.5 2282.49,-51.5"/>
</g>
<!-- _Core2d__Core2dBloom -->
<g id="node7" class="node">
<title>_Core2d__Core2dBloom</title>
<text text-anchor="start" x="734.5" y="-97.7" font-family="Helvetica,sans-Serif" font-size="14.00" fill="white">Bloom</text>
<text text-anchor="start" x="677.5" y="-87.5" font-family="Helvetica,sans-Serif" font-size="10.00" fill="red">ViewNodeRunner&lt;BloomNode&gt;</text>
<path fill="none" stroke="white" d="M683.33,-81C683.33,-81 829.17,-81 829.17,-81 834.83,-81 840.5,-86.67 840.5,-92.33 840.5,-92.33 840.5,-103.67 840.5,-103.67 840.5,-109.33 834.83,-115 829.17,-115 829.17,-115 683.33,-115 683.33,-115 677.67,-115 672,-109.33 672,-103.67 672,-103.67 672,-92.33 672,-92.33 672,-86.67 677.67,-81 683.33,-81"/>
</g>
<!-- _Core2d__Core2dMainPass&#45;&gt;_Core2d__Core2dBloom -->
<g id="edge9" class="edge">
<title>_Core2d__Core2dMainPass:e&#45;&gt;_Core2d__Core2dBloom:w</title>
<path fill="none" stroke="white" d="M459.62,-113C551.32,-113 576.59,-99.21 662.84,-98.07"/>
<polygon fill="white" stroke="white" points="662.76,-101.57 672.74,-98.01 662.71,-94.57 662.76,-101.57"/>
</g>
<!-- _Core2d__Core2dTonemapping -->
<g id="node9" class="node">
<title>_Core2d__Core2dTonemapping</title>
<text text-anchor="start" x="1025.12" y="-107.7" font-family="Helvetica,sans-Serif" font-size="14.00" fill="white">Tonemapping</text>
<text text-anchor="start" x="976" y="-97.5" font-family="Helvetica,sans-Serif" font-size="10.00" fill="red">ViewNodeRunner&lt;TonemappingNode&gt;</text>
<path fill="none" stroke="white" d="M981.83,-91C981.83,-91 1161.42,-91 1161.42,-91 1167.08,-91 1172.75,-96.67 1172.75,-102.33 1172.75,-102.33 1172.75,-113.67 1172.75,-113.67 1172.75,-119.33 1167.08,-125 1161.42,-125 1161.42,-125 981.83,-125 981.83,-125 976.17,-125 970.5,-119.33 970.5,-113.67 970.5,-113.67 970.5,-102.33 970.5,-102.33 970.5,-96.67 976.17,-91 981.83,-91"/>
</g>
<!-- _Core2d__Core2dMainPass&#45;&gt;_Core2d__Core2dTonemapping -->
<g id="edge11" class="edge">
<title>_Core2d__Core2dMainPass:e&#45;&gt;_Core2d__Core2dTonemapping:w</title>
<path fill="none" stroke="white" d="M459.62,-113C532.1,-113 549.6,-124.66 622,-128 741.21,-133.49 772.02,-142.22 890.5,-128 923.72,-124.01 933.11,-111.26 961.31,-108.52"/>
<polygon fill="white" stroke="white" points="961.29,-112.03 971.11,-108.07 960.96,-105.03 961.29,-112.03"/>
</g>
<!-- _Core2d__Core2dMsaaWriteback -->
<g id="node4" class="node">
<title>_Core2d__Core2dMsaaWriteback</title>
<text text-anchor="start" x="58.75" y="-127.7" font-family="Helvetica,sans-Serif" font-size="14.00" fill="white">MsaaWriteback</text>
<text text-anchor="start" x="61" y="-117.5" font-family="Helvetica,sans-Serif" font-size="10.00" fill="red">MsaaWritebackNode</text>
<path fill="none" stroke="white" d="M64.58,-111C64.58,-111 158.67,-111 158.67,-111 164.33,-111 170,-116.67 170,-122.33 170,-122.33 170,-133.67 170,-133.67 170,-139.33 164.33,-145 158.67,-145 158.67,-145 64.58,-145 64.58,-145 58.92,-145 53.25,-139.33 53.25,-133.67 53.25,-133.67 53.25,-122.33 53.25,-122.33 53.25,-116.67 58.92,-111 64.58,-111"/>
</g>
<!-- _Core2d__Core2dMsaaWriteback&#45;&gt;_Core2d__Core2dMainPass -->
<g id="edge3" class="edge">
<title>_Core2d__Core2dMsaaWriteback:e&#45;&gt;_Core2d__Core2dMainPass:w</title>
<path fill="none" stroke="white" d="M167.62,-128C253.78,-128 277.59,-114.26 358.39,-113.08"/>
<polygon fill="white" stroke="white" points="358.14,-116.58 368.11,-113.01 358.09,-109.58 358.14,-116.58"/>
</g>
<!-- _Core2d__Core2dEndMainPassPostProcessing&#45;&gt;_Core2d__Core2dUiPass -->
<g id="edge8" class="edge">
<title>_Core2d__Core2dEndMainPassPostProcessing:e&#45;&gt;_Core2d__Core2dUiPass:w</title>
<path fill="none" stroke="white" d="M2120.62,-88C2195.84,-88 2213.28,-51.81 2282.86,-48.28"/>
<polygon fill="white" stroke="white" points="2282.58,-51.78 2292.49,-48.04 2282.4,-44.79 2282.58,-51.78"/>
</g>
<!-- _Core2d__Core2dUpscaling -->
<g id="node10" class="node">
<title>_Core2d__Core2dUpscaling</title>
<text text-anchor="start" x="2662" y="-67.7" font-family="Helvetica,sans-Serif" font-size="14.00" fill="white">Upscaling</text>
<text text-anchor="start" x="2609.12" y="-57.5" font-family="Helvetica,sans-Serif" font-size="10.00" fill="red">ViewNodeRunner&lt;UpscalingNode&gt;</text>
<path fill="none" stroke="white" d="M2614.96,-51C2614.96,-51 2777.29,-51 2777.29,-51 2782.96,-51 2788.62,-56.67 2788.62,-62.33 2788.62,-62.33 2788.62,-73.67 2788.62,-73.67 2788.62,-79.33 2782.96,-85 2777.29,-85 2777.29,-85 2614.96,-85 2614.96,-85 2609.29,-85 2603.62,-79.33 2603.62,-73.67 2603.62,-73.67 2603.62,-62.33 2603.62,-62.33 2603.62,-56.67 2609.29,-51 2614.96,-51"/>
</g>
<!-- _Core2d__Core2dEndMainPassPostProcessing&#45;&gt;_Core2d__Core2dUpscaling -->
<g id="edge13" class="edge">
<title>_Core2d__Core2dEndMainPassPostProcessing:e&#45;&gt;_Core2d__Core2dUpscaling:w</title>
<path fill="none" stroke="white" d="M2120.62,-88C2284.96,-88 2326.18,-87.35 2490.25,-78 2537.42,-75.31 2551.69,-69.08 2593.79,-68.12"/>
<polygon fill="white" stroke="white" points="2593.65,-71.63 2603.61,-68.02 2593.57,-64.63 2593.65,-71.63"/>
</g>
<!-- _Core2d__Core2dUiPass&#45;&gt;_Core2d__Core2dUpscaling -->
<g id="edge14" class="edge">
<title>_Core2d__Core2dUiPass:e&#45;&gt;_Core2d__Core2dUpscaling:w</title>
<path fill="none" stroke="white" d="M2412,-48C2494.42,-48 2516.85,-66.24 2593.88,-67.88"/>
<polygon fill="white" stroke="white" points="2593.58,-71.38 2603.61,-67.98 2593.65,-64.38 2593.58,-71.38"/>
</g>
<!-- _Core2d__Core2dBloom&#45;&gt;_Core2d__Core2dTonemapping -->
<g id="edge12" class="edge">
<title>_Core2d__Core2dBloom:e&#45;&gt;_Core2d__Core2dTonemapping:w</title>
<path fill="none" stroke="white" d="M838.25,-98C894.16,-98 910.6,-106.72 961.27,-107.87"/>
<polygon fill="white" stroke="white" points="961.07,-111.37 971.11,-107.98 961.15,-104.37 961.07,-111.37"/>
</g>
<!-- _Core2d__Core2dFxaa -->
<g id="node8" class="node">
<title>_Core2d__Core2dFxaa</title>
<text text-anchor="start" x="1324.75" y="-107.7" font-family="Helvetica,sans-Serif" font-size="14.00" fill="white">Fxaa</text>
<text text-anchor="start" x="1266.25" y="-97.5" font-family="Helvetica,sans-Serif" font-size="10.00" fill="red">ViewNodeRunner&lt;FxaaNode&gt;</text>
<path fill="none" stroke="white" d="M1272.08,-91C1272.08,-91 1410.42,-91 1410.42,-91 1416.08,-91 1421.75,-96.67 1421.75,-102.33 1421.75,-102.33 1421.75,-113.67 1421.75,-113.67 1421.75,-119.33 1416.08,-125 1410.42,-125 1410.42,-125 1272.08,-125 1272.08,-125 1266.42,-125 1260.75,-119.33 1260.75,-113.67 1260.75,-113.67 1260.75,-102.33 1260.75,-102.33 1260.75,-96.67 1266.42,-91 1272.08,-91"/>
</g>
<!-- _Core2d__Core2dFxaa&#45;&gt;_Core2d__Core2dConstrastAdaptiveSharpening -->
<g id="edge2" class="edge">
<title>_Core2d__Core2dFxaa:e&#45;&gt;_Core2d__Core2dConstrastAdaptiveSharpening:w</title>
<path fill="none" stroke="white" d="M1420.25,-108C1477.15,-108 1492.84,-125.5 1544.43,-127.76"/>
<polygon fill="white" stroke="white" points="1544.04,-131.25 1554.11,-127.97 1544.19,-124.26 1544.04,-131.25"/>
</g>
<!-- _Core2d__Core2dFxaa&#45;&gt;_Core2d__Core2dEndMainPassPostProcessing -->
<g id="edge5" class="edge">
<title>_Core2d__Core2dFxaa:e&#45;&gt;_Core2d__Core2dEndMainPassPostProcessing:w</title>
<path fill="none" stroke="white" d="M1420.25,-108C1456.74,-108 1465.35,-100.66 1501.75,-98 1682.71,-84.76 1731.27,-87.86 1907.13,-88"/>
<polygon fill="white" stroke="white" points="1907.11,-91.5 1917.11,-88 1907.11,-84.5 1907.11,-91.5"/>
</g>
<!-- _Core2d__Core2dTonemapping&#45;&gt;_Core2d__Core2dConstrastAdaptiveSharpening -->
<g id="edge1" class="edge">
<title>_Core2d__Core2dTonemapping:e&#45;&gt;_Core2d__Core2dConstrastAdaptiveSharpening:w</title>
<path fill="none" stroke="white" d="M1170.62,-108C1209.48,-108 1214.49,-131.23 1252.75,-138 1381.62,-160.8 1418.85,-129.85 1544.42,-128.08"/>
<polygon fill="white" stroke="white" points="1544.14,-131.58 1554.11,-128.01 1544.09,-124.58 1544.14,-131.58"/>
</g>
<!-- _Core2d__Core2dTonemapping&#45;&gt;_Core2d__Core2dEndMainPassPostProcessing -->
<g id="edge4" class="edge">
<title>_Core2d__Core2dTonemapping:e&#45;&gt;_Core2d__Core2dEndMainPassPostProcessing:w</title>
<path fill="none" stroke="white" d="M1170.62,-108C1209.48,-108 1214.49,-84.77 1252.75,-78 1330.21,-64.29 1351.08,-77.5 1429.75,-78 1604.76,-79.11 1648.58,-77.29 1823.5,-83 1861.85,-84.25 1874.04,-87.34 1907.51,-87.91"/>
<polygon fill="white" stroke="white" points="1907.08,-91.41 1917.11,-87.99 1907.14,-84.41 1907.08,-91.41"/>
</g>
<!-- _Core2d__Core2dTonemapping&#45;&gt;_Core2d__Core2dFxaa -->
<g id="edge10" class="edge">
<title>_Core2d__Core2dTonemapping:e&#45;&gt;_Core2d__Core2dFxaa:w</title>
<path fill="none" stroke="white" d="M1170.62,-108C1207.37,-108 1219.25,-108 1251.14,-108"/>
<polygon fill="white" stroke="white" points="1250.74,-111.5 1260.74,-108 1250.74,-104.5 1250.74,-111.5"/>
</g>
<!-- _Core3d_SubGraphUi__Core3d_SubGraphUiUiPass -->
<g id="node11" class="node">
<title>_Core3d_SubGraphUi__Core3d_SubGraphUiUiPass</title>
<text text-anchor="start" x="89.12" y="-241.7" font-family="Helvetica,sans-Serif" font-size="14.00" fill="white">UiPass</text>
<text text-anchor="start" x="82.75" y="-231.5" font-family="Helvetica,sans-Serif" font-size="10.00" fill="red">UiPassNode</text>
<path fill="none" stroke="white" d="M88.58,-225C88.58,-225 134.67,-225 134.67,-225 140.33,-225 146,-230.67 146,-236.33 146,-236.33 146,-247.67 146,-247.67 146,-253.33 140.33,-259 134.67,-259 134.67,-259 88.58,-259 88.58,-259 82.92,-259 77.25,-253.33 77.25,-247.67 77.25,-247.67 77.25,-236.33 77.25,-236.33 77.25,-230.67 82.92,-225 88.58,-225"/>
</g>
<!-- _Core3d__Core3dContrastAdaptiveSharpening -->
<g id="node12" class="node">
<title>_Core3d__Core3dContrastAdaptiveSharpening</title>
<text text-anchor="start" x="3901" y="-298.7" font-family="Helvetica,sans-Serif" font-size="14.00" fill="white">ContrastAdaptiveSharpening</text>
<text text-anchor="start" x="3978.62" y="-288.5" font-family="Helvetica,sans-Serif" font-size="10.00" fill="red">CASNode</text>
<path fill="none" stroke="white" d="M3906.83,-282C3906.83,-282 4095.42,-282 4095.42,-282 4101.08,-282 4106.75,-287.67 4106.75,-293.33 4106.75,-293.33 4106.75,-304.67 4106.75,-304.67 4106.75,-310.33 4101.08,-316 4095.42,-316 4095.42,-316 3906.83,-316 3906.83,-316 3901.17,-316 3895.5,-310.33 3895.5,-304.67 3895.5,-304.67 3895.5,-293.33 3895.5,-293.33 3895.5,-287.67 3901.17,-282 3906.83,-282"/>
</g>
<!-- _Core3d__Core3dEndMainPassPostProcessing -->
<g id="node16" class="node">
<title>_Core3d__Core3dEndMainPassPostProcessing</title>
<text text-anchor="start" x="4200.25" y="-258.7" font-family="Helvetica,sans-Serif" font-size="14.00" fill="white">EndMainPassPostProcessing</text>
<text text-anchor="start" x="4268.88" y="-248.5" font-family="Helvetica,sans-Serif" font-size="10.00" fill="red">EmptyNode</text>
<path fill="none" stroke="white" d="M4206.08,-242C4206.08,-242 4388.67,-242 4388.67,-242 4394.33,-242 4400,-247.67 4400,-253.33 4400,-253.33 4400,-264.67 4400,-264.67 4400,-270.33 4394.33,-276 4388.67,-276 4388.67,-276 4206.08,-276 4206.08,-276 4200.42,-276 4194.75,-270.33 4194.75,-264.67 4194.75,-264.67 4194.75,-253.33 4194.75,-253.33 4194.75,-247.67 4200.42,-242 4206.08,-242"/>
</g>
<!-- _Core3d__Core3dContrastAdaptiveSharpening&#45;&gt;_Core3d__Core3dEndMainPassPostProcessing -->
<g id="edge20" class="edge">
<title>_Core3d__Core3dContrastAdaptiveSharpening:e&#45;&gt;_Core3d__Core3dEndMainPassPostProcessing:w</title>
<path fill="none" stroke="white" d="M4105.12,-299C4145.25,-299 4151.22,-266.15 4184.95,-259.99"/>
<polygon fill="white" stroke="white" points="4185.21,-263.48 4194.87,-259.13 4184.6,-256.51 4185.21,-263.48"/>
</g>
<!-- _Core3d__Core3dMsaaWriteback -->
<g id="node13" class="node">
<title>_Core3d__Core3dMsaaWriteback</title>
<text text-anchor="start" x="1018.75" y="-218.7" font-family="Helvetica,sans-Serif" font-size="14.00" fill="white">MsaaWriteback</text>
<text text-anchor="start" x="1021" y="-208.5" font-family="Helvetica,sans-Serif" font-size="10.00" fill="red">MsaaWritebackNode</text>
<path fill="none" stroke="white" d="M1024.58,-202C1024.58,-202 1118.67,-202 1118.67,-202 1124.33,-202 1130,-207.67 1130,-213.33 1130,-213.33 1130,-224.67 1130,-224.67 1130,-230.33 1124.33,-236 1118.67,-236 1118.67,-236 1024.58,-236 1024.58,-236 1018.92,-236 1013.25,-230.33 1013.25,-224.67 1013.25,-224.67 1013.25,-213.33 1013.25,-213.33 1013.25,-207.67 1018.92,-202 1024.58,-202"/>
</g>
<!-- _Core3d__Core3dStartMainPass -->
<g id="node18" class="node">
<title>_Core3d__Core3dStartMainPass</title>
<text text-anchor="start" x="1292.5" y="-278.7" font-family="Helvetica,sans-Serif" font-size="14.00" fill="white">StartMainPass</text>
<text text-anchor="start" x="1312.75" y="-268.5" font-family="Helvetica,sans-Serif" font-size="10.00" fill="red">EmptyNode</text>
<path fill="none" stroke="white" d="M1298.33,-262C1298.33,-262 1384.17,-262 1384.17,-262 1389.83,-262 1395.5,-267.67 1395.5,-273.33 1395.5,-273.33 1395.5,-284.67 1395.5,-284.67 1395.5,-290.33 1389.83,-296 1384.17,-296 1384.17,-296 1298.33,-296 1298.33,-296 1292.67,-296 1287,-290.33 1287,-284.67 1287,-284.67 1287,-273.33 1287,-273.33 1287,-267.67 1292.67,-262 1298.33,-262"/>
</g>
<!-- _Core3d__Core3dMsaaWriteback&#45;&gt;_Core3d__Core3dStartMainPass -->
<g id="edge23" class="edge">
<title>_Core3d__Core3dMsaaWriteback:e&#45;&gt;_Core3d__Core3dStartMainPass:w</title>
<path fill="none" stroke="white" d="M1127.62,-219C1200.36,-219 1211.6,-273.06 1278.09,-278.55"/>
<polygon fill="white" stroke="white" points="1277.61,-282.03 1287.74,-278.94 1277.89,-275.04 1277.61,-282.03"/>
</g>
<!-- _Core3d__Core3dShadowPass -->
<g id="node14" class="node">
<title>_Core3d__Core3dShadowPass</title>
<text text-anchor="start" x="1028.88" y="-278.7" font-family="Helvetica,sans-Serif" font-size="14.00" fill="white">ShadowPass</text>
<text text-anchor="start" x="1028.88" y="-268.5" font-family="Helvetica,sans-Serif" font-size="10.00" fill="red">ShadowPassNode</text>
<path fill="none" stroke="white" d="M1034.71,-262C1034.71,-262 1108.54,-262 1108.54,-262 1114.21,-262 1119.88,-267.67 1119.88,-273.33 1119.88,-273.33 1119.88,-284.67 1119.88,-284.67 1119.88,-290.33 1114.21,-296 1108.54,-296 1108.54,-296 1034.71,-296 1034.71,-296 1029.04,-296 1023.38,-290.33 1023.38,-284.67 1023.38,-284.67 1023.38,-273.33 1023.38,-273.33 1023.38,-267.67 1029.04,-262 1034.71,-262"/>
</g>
<!-- _Core3d__Core3dShadowPass&#45;&gt;_Core3d__Core3dStartMainPass -->
<g id="edge24" class="edge">
<title>_Core3d__Core3dShadowPass:e&#45;&gt;_Core3d__Core3dStartMainPass:w</title>
<path fill="none" stroke="white" d="M1117.62,-279C1190.03,-279 1210.89,-279 1278.06,-279"/>
<polygon fill="white" stroke="white" points="1277.74,-282.5 1287.74,-279 1277.74,-275.5 1277.74,-282.5"/>
</g>
<!-- _Core3d__Core3dEndMainPass -->
<g id="node15" class="node">
<title>_Core3d__Core3dEndMainPass</title>
<text text-anchor="start" x="2915.5" y="-258.7" font-family="Helvetica,sans-Serif" font-size="14.00" fill="white">EndMainPass</text>
<text text-anchor="start" x="2932.38" y="-248.5" font-family="Helvetica,sans-Serif" font-size="10.00" fill="red">EmptyNode</text>
<path fill="none" stroke="white" d="M2921.33,-242C2921.33,-242 3000.42,-242 3000.42,-242 3006.08,-242 3011.75,-247.67 3011.75,-253.33 3011.75,-253.33 3011.75,-264.67 3011.75,-264.67 3011.75,-270.33 3006.08,-276 3000.42,-276 3000.42,-276 2921.33,-276 2921.33,-276 2915.67,-276 2910,-270.33 2910,-264.67 2910,-264.67 2910,-253.33 2910,-253.33 2910,-247.67 2915.67,-242 2921.33,-242"/>
</g>
<!-- _Core3d__Core3dUiPass -->
<g id="node19" class="node">
<title>_Core3d__Core3dUiPass</title>
<text text-anchor="start" x="4526.5" y="-218.7" font-family="Helvetica,sans-Serif" font-size="14.00" fill="white">UiPass</text>
<text text-anchor="start" x="4493.5" y="-208.5" font-family="Helvetica,sans-Serif" font-size="10.00" fill="red">RunGraphOnViewNode</text>
<path fill="none" stroke="white" d="M4499.33,-202C4499.33,-202 4598.67,-202 4598.67,-202 4604.33,-202 4610,-207.67 4610,-213.33 4610,-213.33 4610,-224.67 4610,-224.67 4610,-230.33 4604.33,-236 4598.67,-236 4598.67,-236 4499.33,-236 4499.33,-236 4493.67,-236 4488,-230.33 4488,-224.67 4488,-224.67 4488,-213.33 4488,-213.33 4488,-207.67 4493.67,-202 4499.33,-202"/>
</g>
<!-- _Core3d__Core3dEndMainPass&#45;&gt;_Core3d__Core3dUiPass -->
<g id="edge25" class="edge">
<title>_Core3d__Core3dEndMainPass:e&#45;&gt;_Core3d__Core3dUiPass:w</title>
<path fill="none" stroke="white" d="M3009.88,-259C3048.63,-259 3053.69,-236.29 3091.75,-229 3250.97,-198.49 3294.26,-219 3456.38,-219 3456.38,-219 3456.38,-219 4002.12,-219 4215.15,-219 4271.21,-219 4478.71,-219"/>
<polygon fill="white" stroke="white" points="4478.49,-222.5 4488.49,-219 4478.49,-215.5 4478.49,-222.5"/>
</g>
<!-- _Core3d__Core3dBloom -->
<g id="node20" class="node">
<title>_Core3d__Core3dBloom</title>
<text text-anchor="start" x="3162.25" y="-258.7" font-family="Helvetica,sans-Serif" font-size="14.00" fill="white">Bloom</text>
<text text-anchor="start" x="3105.25" y="-248.5" font-family="Helvetica,sans-Serif" font-size="10.00" fill="red">ViewNodeRunner&lt;BloomNode&gt;</text>
<path fill="none" stroke="white" d="M3111.08,-242C3111.08,-242 3256.92,-242 3256.92,-242 3262.58,-242 3268.25,-247.67 3268.25,-253.33 3268.25,-253.33 3268.25,-264.67 3268.25,-264.67 3268.25,-270.33 3262.58,-276 3256.92,-276 3256.92,-276 3111.08,-276 3111.08,-276 3105.42,-276 3099.75,-270.33 3099.75,-264.67 3099.75,-264.67 3099.75,-253.33 3099.75,-253.33 3099.75,-247.67 3105.42,-242 3111.08,-242"/>
</g>
<!-- _Core3d__Core3dEndMainPass&#45;&gt;_Core3d__Core3dBloom -->
<g id="edge27" class="edge">
<title>_Core3d__Core3dEndMainPass:e&#45;&gt;_Core3d__Core3dBloom:w</title>
<path fill="none" stroke="white" d="M3009.88,-259C3046.82,-259 3058.76,-259 3090.83,-259"/>
<polygon fill="white" stroke="white" points="3090.49,-262.5 3100.49,-259 3090.49,-255.5 3090.49,-262.5"/>
</g>
<!-- _Core3d__Core3dTonemapping -->
<g id="node28" class="node">
<title>_Core3d__Core3dTonemapping</title>
<text text-anchor="start" x="3410.88" y="-278.7" font-family="Helvetica,sans-Serif" font-size="14.00" fill="white">Tonemapping</text>
<text text-anchor="start" x="3361.75" y="-268.5" font-family="Helvetica,sans-Serif" font-size="10.00" fill="red">ViewNodeRunner&lt;TonemappingNode&gt;</text>
<path fill="none" stroke="white" d="M3367.58,-262C3367.58,-262 3547.17,-262 3547.17,-262 3552.83,-262 3558.5,-267.67 3558.5,-273.33 3558.5,-273.33 3558.5,-284.67 3558.5,-284.67 3558.5,-290.33 3552.83,-296 3547.17,-296 3547.17,-296 3367.58,-296 3367.58,-296 3361.92,-296 3356.25,-290.33 3356.25,-284.67 3356.25,-284.67 3356.25,-273.33 3356.25,-273.33 3356.25,-267.67 3361.92,-262 3367.58,-262"/>
</g>
<!-- _Core3d__Core3dEndMainPass&#45;&gt;_Core3d__Core3dTonemapping -->
<g id="edge35" class="edge">
<title>_Core3d__Core3dEndMainPass:e&#45;&gt;_Core3d__Core3dTonemapping:w</title>
<path fill="none" stroke="white" d="M3009.88,-259C3048.63,-259 3053.59,-282.23 3091.75,-289 3172.49,-303.33 3194.4,-293.96 3276.25,-289 3308.79,-287.03 3319.28,-280.69 3346.88,-279.28"/>
<polygon fill="white" stroke="white" points="3346.95,-282.78 3356.86,-279.04 3346.78,-275.78 3346.95,-282.78"/>
</g>
<!-- _Core3d__Core3dEndMainPassPostProcessing&#45;&gt;_Core3d__Core3dUiPass -->
<g id="edge26" class="edge">
<title>_Core3d__Core3dEndMainPassPostProcessing:e&#45;&gt;_Core3d__Core3dUiPass:w</title>
<path fill="none" stroke="white" d="M4398.38,-259C4438.64,-259 4444.68,-226.15 4478.53,-219.99"/>
<polygon fill="white" stroke="white" points="4478.83,-223.48 4488.49,-219.13 4478.23,-216.5 4478.83,-223.48"/>
</g>
<!-- _Core3d__Core3dUpscaling -->
<g id="node29" class="node">
<title>_Core3d__Core3dUpscaling</title>
<text text-anchor="start" x="4756.38" y="-238.7" font-family="Helvetica,sans-Serif" font-size="14.00" fill="white">Upscaling</text>
<text text-anchor="start" x="4703.5" y="-228.5" font-family="Helvetica,sans-Serif" font-size="10.00" fill="red">ViewNodeRunner&lt;UpscalingNode&gt;</text>
<path fill="none" stroke="white" d="M4709.33,-222C4709.33,-222 4871.67,-222 4871.67,-222 4877.33,-222 4883,-227.67 4883,-233.33 4883,-233.33 4883,-244.67 4883,-244.67 4883,-250.33 4877.33,-256 4871.67,-256 4871.67,-256 4709.33,-256 4709.33,-256 4703.67,-256 4698,-250.33 4698,-244.67 4698,-244.67 4698,-233.33 4698,-233.33 4698,-227.67 4703.67,-222 4709.33,-222"/>
</g>
<!-- _Core3d__Core3dEndMainPassPostProcessing&#45;&gt;_Core3d__Core3dUpscaling -->
<g id="edge37" class="edge">
<title>_Core3d__Core3dEndMainPassPostProcessing:e&#45;&gt;_Core3d__Core3dUpscaling:w</title>
<path fill="none" stroke="white" d="M4398.38,-259C4496.09,-259 4520.63,-257.18 4618,-249 4650.25,-246.29 4660.69,-240.52 4688.09,-239.25"/>
<polygon fill="white" stroke="white" points="4688.07,-242.75 4697.99,-239.03 4687.91,-235.75 4688.07,-242.75"/>
</g>
<!-- _Core3d__Core3dEndPrepasses -->
<g id="node17" class="node">
<title>_Core3d__Core3dEndPrepasses</title>
<text text-anchor="start" x="1023.25" y="-338.7" font-family="Helvetica,sans-Serif" font-size="14.00" fill="white">EndPrepasses</text>
<text text-anchor="start" x="1043.12" y="-328.5" font-family="Helvetica,sans-Serif" font-size="10.00" fill="red">EmptyNode</text>
<path fill="none" stroke="white" d="M1029.08,-322C1029.08,-322 1114.17,-322 1114.17,-322 1119.83,-322 1125.5,-327.67 1125.5,-333.33 1125.5,-333.33 1125.5,-344.67 1125.5,-344.67 1125.5,-350.33 1119.83,-356 1114.17,-356 1114.17,-356 1029.08,-356 1029.08,-356 1023.42,-356 1017.75,-350.33 1017.75,-344.67 1017.75,-344.67 1017.75,-333.33 1017.75,-333.33 1017.75,-327.67 1023.42,-322 1029.08,-322"/>
</g>
<!-- _Core3d__Core3dEndPrepasses&#45;&gt;_Core3d__Core3dStartMainPass -->
<g id="edge22" class="edge">
<title>_Core3d__Core3dEndPrepasses:e&#45;&gt;_Core3d__Core3dStartMainPass:w</title>
<path fill="none" stroke="white" d="M1123.62,-339C1197.94,-339 1209.86,-284.94 1277.84,-279.45"/>
<polygon fill="white" stroke="white" points="1277.88,-282.95 1287.74,-279.06 1277.61,-275.95 1277.88,-282.95"/>
</g>
<!-- _Core3d__Core3dMainOpaquePass -->
<g id="node21" class="node">
<title>_Core3d__Core3dMainOpaquePass</title>
<text text-anchor="start" x="1960.38" y="-258.7" font-family="Helvetica,sans-Serif" font-size="14.00" fill="white">MainOpaquePass</text>
<text text-anchor="start" x="1909" y="-248.5" font-family="Helvetica,sans-Serif" font-size="10.00" fill="red">ViewNodeRunner&lt;MainOpaquePass3dNode&gt;</text>
<path fill="none" stroke="white" d="M1914.83,-242C1914.83,-242 2124.42,-242 2124.42,-242 2130.08,-242 2135.75,-247.67 2135.75,-253.33 2135.75,-253.33 2135.75,-264.67 2135.75,-264.67 2135.75,-270.33 2130.08,-276 2124.42,-276 2124.42,-276 1914.83,-276 1914.83,-276 1909.17,-276 1903.5,-270.33 1903.5,-264.67 1903.5,-264.67 1903.5,-253.33 1903.5,-253.33 1903.5,-247.67 1909.17,-242 1914.83,-242"/>
</g>
<!-- _Core3d__Core3dStartMainPass&#45;&gt;_Core3d__Core3dMainOpaquePass -->
<g id="edge28" class="edge">
<title>_Core3d__Core3dStartMainPass:e&#45;&gt;_Core3d__Core3dMainOpaquePass:w</title>
<path fill="none" stroke="white" d="M1393.25,-279C1442.28,-279 1452.92,-263.46 1501.75,-259 1676.66,-243.01 1724.1,-258.31 1894.24,-258.98"/>
<polygon fill="white" stroke="white" points="1894.1,-262.48 1904.11,-259 1894.12,-255.48 1894.1,-262.48"/>
</g>
<!-- _Core3d__Core3dDeferredLightingPass -->
<g id="node30" class="node">
<title>_Core3d__Core3dDeferredLightingPass</title>
<text text-anchor="start" x="1589.12" y="-288.7" font-family="Helvetica,sans-Serif" font-size="14.00" fill="white">DeferredLightingPass</text>
<text text-anchor="start" x="1515.25" y="-278.5" font-family="Helvetica,sans-Serif" font-size="10.00" fill="red">ViewNodeRunner&lt;DeferredOpaquePass3dPbrLightingNode&gt;</text>
<path fill="none" stroke="white" d="M1521.08,-272C1521.08,-272 1804.17,-272 1804.17,-272 1809.83,-272 1815.5,-277.67 1815.5,-283.33 1815.5,-283.33 1815.5,-294.67 1815.5,-294.67 1815.5,-300.33 1809.83,-306 1804.17,-306 1804.17,-306 1521.08,-306 1521.08,-306 1515.42,-306 1509.75,-300.33 1509.75,-294.67 1509.75,-294.67 1509.75,-283.33 1509.75,-283.33 1509.75,-277.67 1515.42,-272 1521.08,-272"/>
</g>
<!-- _Core3d__Core3dStartMainPass&#45;&gt;_Core3d__Core3dDeferredLightingPass -->
<g id="edge39" class="edge">
<title>_Core3d__Core3dStartMainPass:e&#45;&gt;_Core3d__Core3dDeferredLightingPass:w</title>
<path fill="none" stroke="white" d="M1393.25,-279C1442.03,-279 1456.65,-287.53 1500.22,-288.83"/>
<polygon fill="white" stroke="white" points="1500.06,-292.33 1510.11,-288.98 1500.16,-285.33 1500.06,-292.33"/>
</g>
<!-- _Core3d__Core3dUiPass&#45;&gt;_Core3d__Core3dUpscaling -->
<g id="edge38" class="edge">
<title>_Core3d__Core3dUiPass:e&#45;&gt;_Core3d__Core3dUpscaling:w</title>
<path fill="none" stroke="white" d="M4608,-219C4645.56,-219 4655.94,-235.28 4688.2,-238.47"/>
<polygon fill="white" stroke="white" points="4687.83,-241.95 4697.99,-238.93 4688.16,-234.96 4687.83,-241.95"/>
</g>
<!-- _Core3d__Core3dBloom&#45;&gt;_Core3d__Core3dTonemapping -->
<g id="edge36" class="edge">
<title>_Core3d__Core3dBloom:e&#45;&gt;_Core3d__Core3dTonemapping:w</title>
<path fill="none" stroke="white" d="M3266,-259C3303.9,-259 3314.41,-275.28 3346.97,-278.47"/>
<polygon fill="white" stroke="white" points="3346.71,-281.96 3356.86,-278.93 3347.04,-274.96 3346.71,-281.96"/>
</g>
<!-- _Core3d__Core3dMainTransmissivePass -->
<g id="node22" class="node">
<title>_Core3d__Core3dMainTransmissivePass</title>
<text text-anchor="start" x="2276.12" y="-258.7" font-family="Helvetica,sans-Serif" font-size="14.00" fill="white">MainTransmissivePass</text>
<text text-anchor="start" x="2229.25" y="-248.5" font-family="Helvetica,sans-Serif" font-size="10.00" fill="red">ViewNodeRunner&lt;MainTransmissivePass3dNode&gt;</text>
<path fill="none" stroke="white" d="M2235.08,-242C2235.08,-242 2470.92,-242 2470.92,-242 2476.58,-242 2482.25,-247.67 2482.25,-253.33 2482.25,-253.33 2482.25,-264.67 2482.25,-264.67 2482.25,-270.33 2476.58,-276 2470.92,-276 2470.92,-276 2235.08,-276 2235.08,-276 2229.42,-276 2223.75,-270.33 2223.75,-264.67 2223.75,-264.67 2223.75,-253.33 2223.75,-253.33 2223.75,-247.67 2229.42,-242 2235.08,-242"/>
</g>
<!-- _Core3d__Core3dMainOpaquePass&#45;&gt;_Core3d__Core3dMainTransmissivePass -->
<g id="edge30" class="edge">
<title>_Core3d__Core3dMainOpaquePass:e&#45;&gt;_Core3d__Core3dMainTransmissivePass:w</title>
<path fill="none" stroke="white" d="M2133.62,-259C2170.67,-259 2182.65,-259 2214.8,-259"/>
<polygon fill="white" stroke="white" points="2214.49,-262.5 2224.49,-259 2214.49,-255.5 2214.49,-262.5"/>
</g>
<!-- _Core3d__Core3dMainTransparentPass -->
<g id="node23" class="node">
<title>_Core3d__Core3dMainTransparentPass</title>
<text text-anchor="start" x="2623" y="-258.7" font-family="Helvetica,sans-Serif" font-size="14.00" fill="white">MainTransparentPass</text>
<text text-anchor="start" x="2575.75" y="-248.5" font-family="Helvetica,sans-Serif" font-size="10.00" fill="red">ViewNodeRunner&lt;MainTransparentPass3dNode&gt;</text>
<path fill="none" stroke="white" d="M2581.58,-242C2581.58,-242 2810.67,-242 2810.67,-242 2816.33,-242 2822,-247.67 2822,-253.33 2822,-253.33 2822,-264.67 2822,-264.67 2822,-270.33 2816.33,-276 2810.67,-276 2810.67,-276 2581.58,-276 2581.58,-276 2575.92,-276 2570.25,-270.33 2570.25,-264.67 2570.25,-264.67 2570.25,-253.33 2570.25,-253.33 2570.25,-247.67 2575.92,-242 2581.58,-242"/>
</g>
<!-- _Core3d__Core3dMainTransmissivePass&#45;&gt;_Core3d__Core3dMainTransparentPass -->
<g id="edge31" class="edge">
<title>_Core3d__Core3dMainTransmissivePass:e&#45;&gt;_Core3d__Core3dMainTransparentPass:w</title>
<path fill="none" stroke="white" d="M2480,-259C2516.95,-259 2528.89,-259 2560.95,-259"/>
<polygon fill="white" stroke="white" points="2560.61,-262.5 2570.61,-259 2560.61,-255.5 2560.61,-262.5"/>
</g>
<!-- _Core3d__Core3dMainTransparentPass&#45;&gt;_Core3d__Core3dEndMainPass -->
<g id="edge17" class="edge">
<title>_Core3d__Core3dMainTransparentPass:e&#45;&gt;_Core3d__Core3dEndMainPass:w</title>
<path fill="none" stroke="white" d="M2820.12,-259C2856.92,-259 2868.81,-259 2900.75,-259"/>
<polygon fill="white" stroke="white" points="2900.36,-262.5 2910.36,-259 2900.36,-255.5 2900.36,-262.5"/>
</g>
<!-- _Core3d__Core3dCopyDeferredLightingId -->
<g id="node24" class="node">
<title>_Core3d__Core3dCopyDeferredLightingId</title>
<text text-anchor="start" x="673.75" y="-338.7" font-family="Helvetica,sans-Serif" font-size="14.00" fill="white">CopyDeferredLightingId</text>
<text text-anchor="start" x="635.5" y="-328.5" font-family="Helvetica,sans-Serif" font-size="10.00" fill="red">ViewNodeRunner&lt;CopyDeferredLightingIdNode&gt;</text>
<path fill="none" stroke="white" d="M641.33,-322C641.33,-322 871.17,-322 871.17,-322 876.83,-322 882.5,-327.67 882.5,-333.33 882.5,-333.33 882.5,-344.67 882.5,-344.67 882.5,-350.33 876.83,-356 871.17,-356 871.17,-356 641.33,-356 641.33,-356 635.67,-356 630,-350.33 630,-344.67 630,-344.67 630,-333.33 630,-333.33 630,-327.67 635.67,-322 641.33,-322"/>
</g>
<!-- _Core3d__Core3dCopyDeferredLightingId&#45;&gt;_Core3d__Core3dEndPrepasses -->
<g id="edge21" class="edge">
<title>_Core3d__Core3dCopyDeferredLightingId:e&#45;&gt;_Core3d__Core3dEndPrepasses:w</title>
<path fill="none" stroke="white" d="M880.25,-339C938.2,-339 955.49,-339 1008.2,-339"/>
<polygon fill="white" stroke="white" points="1008.11,-342.5 1018.11,-339 1008.11,-335.5 1008.11,-342.5"/>
</g>
<!-- _Core3d__Core3dDeferredPrepass -->
<g id="node25" class="node">
<title>_Core3d__Core3dDeferredPrepass</title>
<text text-anchor="start" x="357.62" y="-338.7" font-family="Helvetica,sans-Serif" font-size="14.00" fill="white">DeferredPrepass</text>
<text text-anchor="start" x="292.75" y="-328.5" font-family="Helvetica,sans-Serif" font-size="10.00" fill="red">ViewNodeRunner&lt;DeferredGBufferPrepassNode&gt;</text>
<path fill="none" stroke="white" d="M298.58,-322C298.58,-322 530.67,-322 530.67,-322 536.33,-322 542,-327.67 542,-333.33 542,-333.33 542,-344.67 542,-344.67 542,-350.33 536.33,-356 530.67,-356 530.67,-356 298.58,-356 298.58,-356 292.92,-356 287.25,-350.33 287.25,-344.67 287.25,-344.67 287.25,-333.33 287.25,-333.33 287.25,-327.67 292.92,-322 298.58,-322"/>
</g>
<!-- _Core3d__Core3dDeferredPrepass&#45;&gt;_Core3d__Core3dCopyDeferredLightingId -->
<g id="edge32" class="edge">
<title>_Core3d__Core3dDeferredPrepass:e&#45;&gt;_Core3d__Core3dCopyDeferredLightingId:w</title>
<path fill="none" stroke="white" d="M539.62,-339C576.77,-339 588.78,-339 621.02,-339"/>
<polygon fill="white" stroke="white" points="620.74,-342.5 630.74,-339 620.74,-335.5 620.74,-342.5"/>
</g>
<!-- _Core3d__Core3dFxaa -->
<g id="node26" class="node">
<title>_Core3d__Core3dFxaa</title>
<text text-anchor="start" x="3710.5" y="-278.7" font-family="Helvetica,sans-Serif" font-size="14.00" fill="white">Fxaa</text>
<text text-anchor="start" x="3652" y="-268.5" font-family="Helvetica,sans-Serif" font-size="10.00" fill="red">ViewNodeRunner&lt;FxaaNode&gt;</text>
<path fill="none" stroke="white" d="M3657.83,-262C3657.83,-262 3796.17,-262 3796.17,-262 3801.83,-262 3807.5,-267.67 3807.5,-273.33 3807.5,-273.33 3807.5,-284.67 3807.5,-284.67 3807.5,-290.33 3801.83,-296 3796.17,-296 3796.17,-296 3657.83,-296 3657.83,-296 3652.17,-296 3646.5,-290.33 3646.5,-284.67 3646.5,-284.67 3646.5,-273.33 3646.5,-273.33 3646.5,-267.67 3652.17,-262 3657.83,-262"/>
</g>
<!-- _Core3d__Core3dFxaa&#45;&gt;_Core3d__Core3dContrastAdaptiveSharpening -->
<g id="edge16" class="edge">
<title>_Core3d__Core3dFxaa:e&#45;&gt;_Core3d__Core3dContrastAdaptiveSharpening:w</title>
<path fill="none" stroke="white" d="M3806,-279C3843.41,-279 3853.74,-295.28 3885.87,-298.47"/>
<polygon fill="white" stroke="white" points="3885.46,-301.95 3895.61,-298.93 3885.79,-294.96 3885.46,-301.95"/>
</g>
<!-- _Core3d__Core3dFxaa&#45;&gt;_Core3d__Core3dEndMainPassPostProcessing -->
<g id="edge19" class="edge">
<title>_Core3d__Core3dFxaa:e&#45;&gt;_Core3d__Core3dEndMainPassPostProcessing:w</title>
<path fill="none" stroke="white" d="M3806,-279C3842.49,-279 3851.11,-271.82 3887.5,-269 4020.56,-258.7 4056.98,-258.98 4184.95,-259"/>
<polygon fill="white" stroke="white" points="4184.86,-262.5 4194.86,-259 4184.86,-255.5 4184.86,-262.5"/>
</g>
<!-- _Core3d__Core3dPrepass -->
<g id="node27" class="node">
<title>_Core3d__Core3dPrepass</title>
<text text-anchor="start" x="84.62" y="-338.7" font-family="Helvetica,sans-Serif" font-size="14.00" fill="white">Prepass</text>
<text text-anchor="start" x="29.5" y="-328.5" font-family="Helvetica,sans-Serif" font-size="10.00" fill="red">ViewNodeRunner&lt;PrepassNode&gt;</text>
<path fill="none" stroke="white" d="M35.33,-322C35.33,-322 187.92,-322 187.92,-322 193.58,-322 199.25,-327.67 199.25,-333.33 199.25,-333.33 199.25,-344.67 199.25,-344.67 199.25,-350.33 193.58,-356 187.92,-356 187.92,-356 35.33,-356 35.33,-356 29.67,-356 24,-350.33 24,-344.67 24,-344.67 24,-333.33 24,-333.33 24,-327.67 29.67,-322 35.33,-322"/>
</g>
<!-- _Core3d__Core3dPrepass&#45;&gt;_Core3d__Core3dDeferredPrepass -->
<g id="edge33" class="edge">
<title>_Core3d__Core3dPrepass:e&#45;&gt;_Core3d__Core3dDeferredPrepass:w</title>
<path fill="none" stroke="white" d="M197.62,-339C234.52,-339 246.45,-339 278.47,-339"/>
<polygon fill="white" stroke="white" points="278.11,-342.5 288.11,-339 278.11,-335.5 278.11,-342.5"/>
</g>
<!-- _Core3d__Core3dTonemapping&#45;&gt;_Core3d__Core3dContrastAdaptiveSharpening -->
<g id="edge15" class="edge">
<title>_Core3d__Core3dTonemapping:e&#45;&gt;_Core3d__Core3dContrastAdaptiveSharpening:w</title>
<path fill="none" stroke="white" d="M3556.38,-279C3595.23,-279 3600.24,-302.23 3638.5,-309 3715.96,-322.71 3736.98,-313.79 3815.5,-309 3847.85,-307.03 3858.27,-300.69 3885.7,-299.28"/>
<polygon fill="white" stroke="white" points="3885.7,-302.78 3895.61,-299.04 3885.53,-295.78 3885.7,-302.78"/>
</g>
<!-- _Core3d__Core3dTonemapping&#45;&gt;_Core3d__Core3dEndMainPassPostProcessing -->
<g id="edge18" class="edge">
<title>_Core3d__Core3dTonemapping:e&#45;&gt;_Core3d__Core3dEndMainPassPostProcessing:w</title>
<path fill="none" stroke="white" d="M3556.38,-279C3595.23,-279 3600.24,-255.77 3638.5,-249 3679.42,-241.76 4037.56,-252.34 4114.75,-255 4146.94,-256.11 4157.66,-258.4 4185,-258.9"/>
<polygon fill="white" stroke="white" points="4184.83,-262.4 4194.86,-258.99 4184.89,-255.4 4184.83,-262.4"/>
</g>
<!-- _Core3d__Core3dTonemapping&#45;&gt;_Core3d__Core3dFxaa -->
<g id="edge34" class="edge">
<title>_Core3d__Core3dTonemapping:e&#45;&gt;_Core3d__Core3dFxaa:w</title>
<path fill="none" stroke="white" d="M3556.38,-279C3593.12,-279 3605,-279 3636.89,-279"/>
<polygon fill="white" stroke="white" points="3636.49,-282.5 3646.49,-279 3636.49,-275.5 3636.49,-282.5"/>
</g>
<!-- _Core3d__Core3dDeferredLightingPass&#45;&gt;_Core3d__Core3dMainOpaquePass -->
<g id="edge29" class="edge">
<title>_Core3d__Core3dDeferredLightingPass:e&#45;&gt;_Core3d__Core3dMainOpaquePass:w</title>
<path fill="none" stroke="white" d="M1813.62,-289C1852.6,-289 1861.17,-264.36 1894.44,-259.74"/>
<polygon fill="white" stroke="white" points="1894.37,-263.25 1904.11,-259.1 1893.91,-256.27 1894.37,-263.25"/>
</g>
<!-- _CameraDriverLabel -->
<g id="node31" class="node">
<title>_CameraDriverLabel</title>
<text text-anchor="start" x="44.88" y="-421.7" font-family="Helvetica,sans-Serif" font-size="14.00" fill="white">CameraDriverLabel</text>
<text text-anchor="start" x="64.75" y="-411.5" font-family="Helvetica,sans-Serif" font-size="10.00" fill="red">CameraDriverNode</text>
<path fill="none" stroke="white" d="M50.71,-405C50.71,-405 172.54,-405 172.54,-405 178.21,-405 183.88,-410.67 183.88,-416.33 183.88,-416.33 183.88,-427.67 183.88,-427.67 183.88,-433.33 178.21,-439 172.54,-439 172.54,-439 50.71,-439 50.71,-439 45.04,-439 39.38,-433.33 39.38,-427.67 39.38,-427.67 39.38,-416.33 39.38,-416.33 39.38,-410.67 45.04,-405 50.71,-405"/>
</g>
</g>
</svg>
