<?xml version="1.0" encoding="UTF-8" standalone="no"?>
<!DOCTYPE svg PUBLIC "-//W3C//DTD SVG 1.1//EN"
 "http://www.w3.org/Graphics/SVG/1.1/DTD/svg11.dtd">
<!-- Generated by graphviz version 9.0.0 (0)
 -->
<!-- Title: RenderGraph Pages: 1 -->
<svg width="4974pt" height="453pt"
 viewBox="0.00 0.00 4974.25 453.00" xmlns="http://www.w3.org/2000/svg" xmlns:xlink="http://www.w3.org/1999/xlink">
<g id="graph0" class="graph" transform="scale(1 1) rotate(0) translate(4 449)">
<title>RenderGraph</title>
<polygon fill="#0d1117" stroke="none" points="-4,4 -4,-449 4970.25,-449 4970.25,4 -4,4"/>
<g id="clust1" class="cluster">
<title>cluster_core_2d</title>
<path fill="#343a42" stroke="#343a42" d="M46.25,-8C46.25,-8 2796.38,-8 2796.38,-8 2802.38,-8 2808.38,-14 2808.38,-20 2808.38,-20 2808.38,-172 2808.38,-172 2808.38,-178 2802.38,-184 2796.38,-184 2796.38,-184 46.25,-184 46.25,-184 40.25,-184 34.25,-178 34.25,-172 34.25,-172 34.25,-20 34.25,-20 34.25,-14 40.25,-8 46.25,-8"/>
<text text-anchor="middle" x="1421.31" y="-166.7" font-family="Times,serif" font-size="14.00" fill="white">core_2d</text>
</g>
<g id="clust2" class="cluster">
<title>cluster_core_2d_draw_ui</title>
<path fill="#6f90ad" stroke="#6f90ad" d="M73.25,-68C73.25,-68 150,-68 150,-68 156,-68 162,-74 162,-80 162,-80 162,-139 162,-139 162,-145 156,-151 150,-151 150,-151 73.25,-151 73.25,-151 67.25,-151 61.25,-145 61.25,-139 61.25,-139 61.25,-80 61.25,-80 61.25,-74 67.25,-68 73.25,-68"/>
<text text-anchor="middle" x="111.62" y="-133.7" font-family="Times,serif" font-size="14.00">draw_ui</text>
</g>
<g id="clust3" class="cluster">
<title>cluster_core_3d</title>
<path fill="#343a42" stroke="#343a42" d="M20,-192C20,-192 4946.25,-192 4946.25,-192 4952.25,-192 4958.25,-198 4958.25,-204 4958.25,-204 4958.25,-383 4958.25,-383 4958.25,-389 4952.25,-395 4946.25,-395 4946.25,-395 20,-395 20,-395 14,-395 8,-389 8,-383 8,-383 8,-204 8,-204 8,-198 14,-192 20,-192"/>
<text text-anchor="middle" x="2483.12" y="-377.7" font-family="Times,serif" font-size="14.00" fill="white">core_3d</text>
</g>
<g id="clust4" class="cluster">
<title>cluster_core_3d_draw_ui</title>
<path fill="#6f90ad" stroke="#6f90ad" d="M73.25,-265C73.25,-265 150,-265 150,-265 156,-265 162,-271 162,-277 162,-277 162,-336 162,-336 162,-342 156,-348 150,-348 150,-348 73.25,-348 73.25,-348 67.25,-348 61.25,-342 61.25,-336 61.25,-336 61.25,-277 61.25,-277 61.25,-271 67.25,-265 73.25,-265"/>
<text text-anchor="middle" x="111.62" y="-330.7" font-family="Times,serif" font-size="14.00">draw_ui</text>
</g>
<!-- _core_2d_draw_ui__core_2d_draw_uiui_pass -->
<g id="node1" class="node">
<title>_core_2d_draw_ui__core_2d_draw_uiui_pass</title>
<text text-anchor="start" x="85.75" y="-96.7" font-family="Helvetica,sans-Serif" font-size="14.00" fill="white">ui_pass</text>
<text text-anchor="start" x="82.75" y="-86.5" font-family="Helvetica,sans-Serif" font-size="10.00" fill="red">UiPassNode</text>
<path fill="none" stroke="white" d="M88.58,-80C88.58,-80 134.67,-80 134.67,-80 140.33,-80 146,-85.67 146,-91.33 146,-91.33 146,-102.67 146,-102.67 146,-108.33 140.33,-114 134.67,-114 134.67,-114 88.58,-114 88.58,-114 82.92,-114 77.25,-108.33 77.25,-102.67 77.25,-102.67 77.25,-91.33 77.25,-91.33 77.25,-85.67 82.92,-80 88.58,-80"/>
</g>
<!-- _core_2d__core_2dcontrast_adaptive_sharpening -->
<g id="node2" class="node">
<title>_core_2d__core_2dcontrast_adaptive_sharpening</title>
<text text-anchor="start" x="1558" y="-113.7" font-family="Helvetica,sans-Serif" font-size="14.00" fill="white">contrast_adaptive_sharpening</text>
<text text-anchor="start" x="1640.12" y="-103.5" font-family="Helvetica,sans-Serif" font-size="10.00" fill="red">CASNode</text>
<path fill="none" stroke="white" d="M1563.83,-97C1563.83,-97 1761.42,-97 1761.42,-97 1767.08,-97 1772.75,-102.67 1772.75,-108.33 1772.75,-108.33 1772.75,-119.67 1772.75,-119.67 1772.75,-125.33 1767.08,-131 1761.42,-131 1761.42,-131 1563.83,-131 1563.83,-131 1558.17,-131 1552.5,-125.33 1552.5,-119.67 1552.5,-119.67 1552.5,-108.33 1552.5,-108.33 1552.5,-102.67 1558.17,-97 1563.83,-97"/>
</g>
<!-- _core_2d__core_2dend_main_pass_post_processing -->
<g id="node5" class="node">
<title>_core_2d__core_2dend_main_pass_post_processing</title>
<text text-anchor="start" x="1909" y="-73.7" font-family="Helvetica,sans-Serif" font-size="14.00" fill="white">end_main_pass_post_processing</text>
<text text-anchor="start" x="1993" y="-63.5" font-family="Helvetica,sans-Serif" font-size="10.00" fill="red">EmptyNode</text>
<path fill="none" stroke="white" d="M1914.83,-57C1914.83,-57 2128.17,-57 2128.17,-57 2133.83,-57 2139.5,-62.67 2139.5,-68.33 2139.5,-68.33 2139.5,-79.67 2139.5,-79.67 2139.5,-85.33 2133.83,-91 2128.17,-91 2128.17,-91 1914.83,-91 1914.83,-91 1909.17,-91 1903.5,-85.33 1903.5,-79.67 1903.5,-79.67 1903.5,-68.33 1903.5,-68.33 1903.5,-62.67 1909.17,-57 1914.83,-57"/>
</g>
<!-- _core_2d__core_2dcontrast_adaptive_sharpening&#45;&gt;_core_2d__core_2dend_main_pass_post_processing -->
<g id="edge6" class="edge">
<title>_core_2d__core_2dcontrast_adaptive_sharpening:e&#45;&gt;_core_2d__core_2dend_main_pass_post_processing:w</title>
<path fill="none" stroke="white" d="M1770.62,-114C1829.12,-114 1841.49,-78.99 1894.04,-74.48"/>
<polygon fill="white" stroke="white" points="1894.14,-77.98 1903.99,-74.06 1893.85,-70.98 1894.14,-77.98"/>
</g>
<!-- _core_2d__core_2dmain_pass -->
<g id="node3" class="node">
<title>_core_2d__core_2dmain_pass</title>
<text text-anchor="start" x="377.88" y="-46.7" font-family="Helvetica,sans-Serif" font-size="14.00" fill="white">main_pass</text>
<text text-anchor="start" x="373" y="-36.5" font-family="Helvetica,sans-Serif" font-size="10.00" fill="red">MainPass2dNode</text>
<path fill="none" stroke="white" d="M378.83,-30C378.83,-30 450.42,-30 450.42,-30 456.08,-30 461.75,-35.67 461.75,-41.33 461.75,-41.33 461.75,-52.67 461.75,-52.67 461.75,-58.33 456.08,-64 450.42,-64 450.42,-64 378.83,-64 378.83,-64 373.17,-64 367.5,-58.33 367.5,-52.67 367.5,-52.67 367.5,-41.33 367.5,-41.33 367.5,-35.67 373.17,-30 378.83,-30"/>
</g>
<!-- _core_2d__core_2dui_pass -->
<g id="node6" class="node">
<title>_core_2d__core_2dui_pass</title>
<text text-anchor="start" x="2330.88" y="-36.7" font-family="Helvetica,sans-Serif" font-size="14.00" fill="white">ui_pass</text>
<text text-anchor="start" x="2301.25" y="-26.5" font-family="Helvetica,sans-Serif" font-size="10.00" fill="red">RunGraphOnViewNode</text>
<path fill="none" stroke="white" d="M2307.08,-20C2307.08,-20 2406.42,-20 2406.42,-20 2412.08,-20 2417.75,-25.67 2417.75,-31.33 2417.75,-31.33 2417.75,-42.67 2417.75,-42.67 2417.75,-48.33 2412.08,-54 2406.42,-54 2406.42,-54 2307.08,-54 2307.08,-54 2301.42,-54 2295.75,-48.33 2295.75,-42.67 2295.75,-42.67 2295.75,-31.33 2295.75,-31.33 2295.75,-25.67 2301.42,-20 2307.08,-20"/>
</g>
<!-- _core_2d__core_2dmain_pass&#45;&gt;_core_2d__core_2dui_pass -->
<g id="edge7" class="edge">
<title>_core_2d__core_2dmain_pass:e&#45;&gt;_core_2d__core_2dui_pass:w</title>
<path fill="none" stroke="white" d="M459.62,-47C532.23,-47 549.55,-33.81 622,-29 821,-15.78 871.19,-19 1070.62,-19 1070.62,-19 1070.62,-19 1663.62,-19 1941.72,-19 2013.84,-36.51 2286.3,-36.99"/>
<polygon fill="white" stroke="white" points="2286.23,-40.49 2296.24,-37 2286.24,-33.49 2286.23,-40.49"/>
</g>
<!-- _core_2d__core_2dbloom -->
<g id="node7" class="node">
<title>_core_2d__core_2dbloom</title>
<text text-anchor="start" x="734.88" y="-58.7" font-family="Helvetica,sans-Serif" font-size="14.00" fill="white">bloom</text>
<text text-anchor="start" x="677.5" y="-48.5" font-family="Helvetica,sans-Serif" font-size="10.00" fill="red">ViewNodeRunner&lt;BloomNode&gt;</text>
<path fill="none" stroke="white" d="M683.33,-42C683.33,-42 829.17,-42 829.17,-42 834.83,-42 840.5,-47.67 840.5,-53.33 840.5,-53.33 840.5,-64.67 840.5,-64.67 840.5,-70.33 834.83,-76 829.17,-76 829.17,-76 683.33,-76 683.33,-76 677.67,-76 672,-70.33 672,-64.67 672,-64.67 672,-53.33 672,-53.33 672,-47.67 677.67,-42 683.33,-42"/>
</g>
<!-- _core_2d__core_2dmain_pass&#45;&gt;_core_2d__core_2dbloom -->
<g id="edge9" class="edge">
<title>_core_2d__core_2dmain_pass:e&#45;&gt;_core_2d__core_2dbloom:w</title>
<path fill="none" stroke="white" d="M459.62,-47C551.24,-47 576.66,-58.04 662.85,-58.94"/>
<polygon fill="white" stroke="white" points="662.72,-62.44 672.74,-58.99 662.75,-55.44 662.72,-62.44"/>
</g>
<!-- _core_2d__core_2dtonemapping -->
<g id="node9" class="node">
<title>_core_2d__core_2dtonemapping</title>
<text text-anchor="start" x="1025.5" y="-88.7" font-family="Helvetica,sans-Serif" font-size="14.00" fill="white">tonemapping</text>
<text text-anchor="start" x="976" y="-78.5" font-family="Helvetica,sans-Serif" font-size="10.00" fill="red">ViewNodeRunner&lt;TonemappingNode&gt;</text>
<path fill="none" stroke="white" d="M981.83,-72C981.83,-72 1161.42,-72 1161.42,-72 1167.08,-72 1172.75,-77.67 1172.75,-83.33 1172.75,-83.33 1172.75,-94.67 1172.75,-94.67 1172.75,-100.33 1167.08,-106 1161.42,-106 1161.42,-106 981.83,-106 981.83,-106 976.17,-106 970.5,-100.33 970.5,-94.67 970.5,-94.67 970.5,-83.33 970.5,-83.33 970.5,-77.67 976.17,-72 981.83,-72"/>
</g>
<!-- _core_2d__core_2dmain_pass&#45;&gt;_core_2d__core_2dtonemapping -->
<g id="edge11" class="edge">
<title>_core_2d__core_2dmain_pass:e&#45;&gt;_core_2d__core_2dtonemapping:w</title>
<path fill="none" stroke="white" d="M459.62,-47C534.17,-47 548.05,-79.59 622,-89 772.81,-108.19 814.76,-89.94 961.41,-89.03"/>
<polygon fill="white" stroke="white" points="961.12,-92.54 971.11,-89 961.1,-85.54 961.12,-92.54"/>
</g>
<!-- _core_2d__core_2dmsaa_writeback -->
<g id="node4" class="node">
<title>_core_2d__core_2dmsaa_writeback</title>
<text text-anchor="start" x="55.75" y="-36.7" font-family="Helvetica,sans-Serif" font-size="14.00" fill="white">msaa_writeback</text>
<text text-anchor="start" x="61" y="-26.5" font-family="Helvetica,sans-Serif" font-size="10.00" fill="red">MsaaWritebackNode</text>
<path fill="none" stroke="white" d="M61.58,-20C61.58,-20 161.67,-20 161.67,-20 167.33,-20 173,-25.67 173,-31.33 173,-31.33 173,-42.67 173,-42.67 173,-48.33 167.33,-54 161.67,-54 161.67,-54 61.58,-54 61.58,-54 55.92,-54 50.25,-48.33 50.25,-42.67 50.25,-42.67 50.25,-31.33 50.25,-31.33 50.25,-25.67 55.92,-20 61.58,-20"/>
</g>
<!-- _core_2d__core_2dmsaa_writeback&#45;&gt;_core_2d__core_2dmain_pass -->
<g id="edge3" class="edge">
<title>_core_2d__core_2dmsaa_writeback:e&#45;&gt;_core_2d__core_2dmain_pass:w</title>
<path fill="none" stroke="white" d="M170.62,-37C255.38,-37 279.06,-46.16 358.57,-46.95"/>
<polygon fill="white" stroke="white" points="358.09,-50.44 368.11,-46.99 358.13,-43.44 358.09,-50.44"/>
</g>
<!-- _core_2d__core_2dend_main_pass_post_processing&#45;&gt;_core_2d__core_2dui_pass -->
<g id="edge8" class="edge">
<title>_core_2d__core_2dend_main_pass_post_processing:e&#45;&gt;_core_2d__core_2dui_pass:w</title>
<path fill="none" stroke="white" d="M2137.5,-74C2206.6,-74 2222.94,-40.94 2286.27,-37.32"/>
<polygon fill="white" stroke="white" points="2286.34,-40.82 2296.24,-37.04 2286.14,-33.82 2286.34,-40.82"/>
</g>
<!-- _core_2d__core_2dupscaling -->
<g id="node10" class="node">
<title>_core_2d__core_2dupscaling</title>
<text text-anchor="start" x="2666.5" y="-56.7" font-family="Helvetica,sans-Serif" font-size="14.00" fill="white">upscaling</text>
<text text-anchor="start" x="2612.88" y="-46.5" font-family="Helvetica,sans-Serif" font-size="10.00" fill="red">ViewNodeRunner&lt;UpscalingNode&gt;</text>
<path fill="none" stroke="white" d="M2618.71,-40C2618.71,-40 2781.04,-40 2781.04,-40 2786.71,-40 2792.38,-45.67 2792.38,-51.33 2792.38,-51.33 2792.38,-62.67 2792.38,-62.67 2792.38,-68.33 2786.71,-74 2781.04,-74 2781.04,-74 2618.71,-74 2618.71,-74 2613.04,-74 2607.38,-68.33 2607.38,-62.67 2607.38,-62.67 2607.38,-51.33 2607.38,-51.33 2607.38,-45.67 2613.04,-40 2618.71,-40"/>
</g>
<!-- _core_2d__core_2dend_main_pass_post_processing&#45;&gt;_core_2d__core_2dupscaling -->
<g id="edge13" class="edge">
<title>_core_2d__core_2dend_main_pass_post_processing:e&#45;&gt;_core_2d__core_2dupscaling:w</title>
<path fill="none" stroke="white" d="M2137.5,-74C2295.97,-74 2335.75,-75.43 2494,-67 2541.18,-64.49 2555.44,-58.11 2597.54,-57.13"/>
<polygon fill="white" stroke="white" points="2597.4,-60.63 2607.36,-57.02 2597.32,-53.63 2597.4,-60.63"/>
</g>
<!-- _core_2d__core_2dui_pass&#45;&gt;_core_2d__core_2dupscaling -->
<g id="edge14" class="edge">
<title>_core_2d__core_2dui_pass:e&#45;&gt;_core_2d__core_2dupscaling:w</title>
<path fill="none" stroke="white" d="M2415.75,-37C2498.17,-37 2520.6,-55.24 2597.63,-56.88"/>
<polygon fill="white" stroke="white" points="2597.33,-60.38 2607.36,-56.98 2597.4,-53.38 2597.33,-60.38"/>
</g>
<!-- _core_2d__core_2dbloom&#45;&gt;_core_2d__core_2dtonemapping -->
<g id="edge12" class="edge">
<title>_core_2d__core_2dbloom:e&#45;&gt;_core_2d__core_2dtonemapping:w</title>
<path fill="none" stroke="white" d="M838.25,-59C895.5,-59 909.68,-85.26 961.38,-88.64"/>
<polygon fill="white" stroke="white" points="961.01,-92.13 971.11,-88.95 961.23,-85.14 961.01,-92.13"/>
</g>
<!-- _core_2d__core_2dfxaa -->
<g id="node8" class="node">
<title>_core_2d__core_2dfxaa</title>
<text text-anchor="start" x="1326.25" y="-88.7" font-family="Helvetica,sans-Serif" font-size="14.00" fill="white">fxaa</text>
<text text-anchor="start" x="1266.25" y="-78.5" font-family="Helvetica,sans-Serif" font-size="10.00" fill="red">ViewNodeRunner&lt;FxaaNode&gt;</text>
<path fill="none" stroke="white" d="M1272.08,-72C1272.08,-72 1410.42,-72 1410.42,-72 1416.08,-72 1421.75,-77.67 1421.75,-83.33 1421.75,-83.33 1421.75,-94.67 1421.75,-94.67 1421.75,-100.33 1416.08,-106 1410.42,-106 1410.42,-106 1272.08,-106 1272.08,-106 1266.42,-106 1260.75,-100.33 1260.75,-94.67 1260.75,-94.67 1260.75,-83.33 1260.75,-83.33 1260.75,-77.67 1266.42,-72 1272.08,-72"/>
</g>
<!-- _core_2d__core_2dfxaa&#45;&gt;_core_2d__core_2dcontrast_adaptive_sharpening -->
<g id="edge2" class="edge">
<title>_core_2d__core_2dfxaa:e&#45;&gt;_core_2d__core_2dcontrast_adaptive_sharpening:w</title>
<path fill="none" stroke="white" d="M1420.25,-89C1476.96,-89 1491.96,-110.79 1543.13,-113.68"/>
<polygon fill="white" stroke="white" points="1543.02,-117.18 1553.11,-113.96 1543.21,-110.18 1543.02,-117.18"/>
</g>
<!-- _core_2d__core_2dfxaa&#45;&gt;_core_2d__core_2dend_main_pass_post_processing -->
<g id="edge5" class="edge">
<title>_core_2d__core_2dfxaa:e&#45;&gt;_core_2d__core_2dend_main_pass_post_processing:w</title>
<path fill="none" stroke="white" d="M1420.25,-89C1456.54,-89 1465.49,-85.56 1501.75,-84 1677.23,-76.45 1724.01,-74.1 1894.11,-74"/>
<polygon fill="white" stroke="white" points="1893.99,-77.5 1903.99,-74 1893.99,-70.5 1893.99,-77.5"/>
</g>
<!-- _core_2d__core_2dtonemapping&#45;&gt;_core_2d__core_2dcontrast_adaptive_sharpening -->
<g id="edge1" class="edge">
<title>_core_2d__core_2dtonemapping:e&#45;&gt;_core_2d__core_2dcontrast_adaptive_sharpening:w</title>
<path fill="none" stroke="white" d="M1170.62,-89C1209.48,-89 1214.49,-112.23 1252.75,-119 1381.14,-141.72 1418.35,-115.57 1543.46,-114.07"/>
<polygon fill="white" stroke="white" points="1543.13,-117.57 1553.11,-114.01 1543.09,-110.57 1543.13,-117.57"/>
</g>
<!-- _core_2d__core_2dtonemapping&#45;&gt;_core_2d__core_2dend_main_pass_post_processing -->
<g id="edge4" class="edge">
<title>_core_2d__core_2dtonemapping:e&#45;&gt;_core_2d__core_2dend_main_pass_post_processing:w</title>
<path fill="none" stroke="white" d="M1170.62,-89C1209.48,-89 1214.49,-65.77 1252.75,-59 1330.21,-45.29 1351.09,-57.9 1429.75,-59 1604.8,-61.44 1648.56,-63.29 1823.5,-70 1855.83,-71.24 1866.61,-73.43 1894.08,-73.91"/>
<polygon fill="white" stroke="white" points="1893.96,-77.4 1903.99,-73.99 1894.02,-70.4 1893.96,-77.4"/>
</g>
<!-- _core_2d__core_2dtonemapping&#45;&gt;_core_2d__core_2dfxaa -->
<g id="edge10" class="edge">
<title>_core_2d__core_2dtonemapping:e&#45;&gt;_core_2d__core_2dfxaa:w</title>
<path fill="none" stroke="white" d="M1170.62,-89C1207.37,-89 1219.25,-89 1251.14,-89"/>
<polygon fill="white" stroke="white" points="1250.74,-92.5 1260.74,-89 1250.74,-85.5 1250.74,-92.5"/>
</g>
<!-- _core_3d_draw_ui__core_3d_draw_uiui_pass -->
<g id="node11" class="node">
<title>_core_3d_draw_ui__core_3d_draw_uiui_pass</title>
<text text-anchor="start" x="85.75" y="-293.7" font-family="Helvetica,sans-Serif" font-size="14.00" fill="white">ui_pass</text>
<text text-anchor="start" x="82.75" y="-283.5" font-family="Helvetica,sans-Serif" font-size="10.00" fill="red">UiPassNode</text>
<path fill="none" stroke="white" d="M88.58,-277C88.58,-277 134.67,-277 134.67,-277 140.33,-277 146,-282.67 146,-288.33 146,-288.33 146,-299.67 146,-299.67 146,-305.33 140.33,-311 134.67,-311 134.67,-311 88.58,-311 88.58,-311 82.92,-311 77.25,-305.33 77.25,-299.67 77.25,-299.67 77.25,-288.33 77.25,-288.33 77.25,-282.67 82.92,-277 88.58,-277"/>
</g>
<!-- _core_3d__core_3dcontrast_adaptive_sharpening -->
<g id="node12" class="node">
<title>_core_3d__core_3dcontrast_adaptive_sharpening</title>
<text text-anchor="start" x="3920.5" y="-300.7" font-family="Helvetica,sans-Serif" font-size="14.00" fill="white">contrast_adaptive_sharpening</text>
<text text-anchor="start" x="4002.62" y="-290.5" font-family="Helvetica,sans-Serif" font-size="10.00" fill="red">CASNode</text>
<path fill="none" stroke="white" d="M3926.33,-284C3926.33,-284 4123.92,-284 4123.92,-284 4129.58,-284 4135.25,-289.67 4135.25,-295.33 4135.25,-295.33 4135.25,-306.67 4135.25,-306.67 4135.25,-312.33 4129.58,-318 4123.92,-318 4123.92,-318 3926.33,-318 3926.33,-318 3920.67,-318 3915,-312.33 3915,-306.67 3915,-306.67 3915,-295.33 3915,-295.33 3915,-289.67 3920.67,-284 3926.33,-284"/>
</g>
<!-- _core_3d__core_3dend_main_pass_post_processing -->
<g id="node16" class="node">
<title>_core_3d__core_3dend_main_pass_post_processing</title>
<text text-anchor="start" x="4228.75" y="-260.7" font-family="Helvetica,sans-Serif" font-size="14.00" fill="white">end_main_pass_post_processing</text>
<text text-anchor="start" x="4312.75" y="-250.5" font-family="Helvetica,sans-Serif" font-size="10.00" fill="red">EmptyNode</text>
<path fill="none" stroke="white" d="M4234.58,-244C4234.58,-244 4447.92,-244 4447.92,-244 4453.58,-244 4459.25,-249.67 4459.25,-255.33 4459.25,-255.33 4459.25,-266.67 4459.25,-266.67 4459.25,-272.33 4453.58,-278 4447.92,-278 4447.92,-278 4234.58,-278 4234.58,-278 4228.92,-278 4223.25,-272.33 4223.25,-266.67 4223.25,-266.67 4223.25,-255.33 4223.25,-255.33 4223.25,-249.67 4228.92,-244 4234.58,-244"/>
</g>
<!-- _core_3d__core_3dcontrast_adaptive_sharpening&#45;&gt;_core_3d__core_3dend_main_pass_post_processing -->
<g id="edge20" class="edge">
<title>_core_3d__core_3dcontrast_adaptive_sharpening:e&#45;&gt;_core_3d__core_3dend_main_pass_post_processing:w</title>
<path fill="none" stroke="white" d="M4133.12,-301C4173.75,-301 4179.76,-267.86 4214.17,-261.91"/>
<polygon fill="white" stroke="white" points="4214.06,-265.43 4223.74,-261.12 4213.49,-258.45 4214.06,-265.43"/>
</g>
<!-- _core_3d__core_3dmsaa_writeback -->
<g id="node13" class="node">
<title>_core_3d__core_3dmsaa_writeback</title>
<text text-anchor="start" x="1015.75" y="-340.7" font-family="Helvetica,sans-Serif" font-size="14.00" fill="white">msaa_writeback</text>
<text text-anchor="start" x="1021" y="-330.5" font-family="Helvetica,sans-Serif" font-size="10.00" fill="red">MsaaWritebackNode</text>
<path fill="none" stroke="white" d="M1021.58,-324C1021.58,-324 1121.67,-324 1121.67,-324 1127.33,-324 1133,-329.67 1133,-335.33 1133,-335.33 1133,-346.67 1133,-346.67 1133,-352.33 1127.33,-358 1121.67,-358 1121.67,-358 1021.58,-358 1021.58,-358 1015.92,-358 1010.25,-352.33 1010.25,-346.67 1010.25,-346.67 1010.25,-335.33 1010.25,-335.33 1010.25,-329.67 1015.92,-324 1021.58,-324"/>
</g>
<!-- _core_3d__core_3dstart_main_pass -->
<g id="node18" class="node">
<title>_core_3d__core_3dstart_main_pass</title>
<text text-anchor="start" x="1285" y="-280.7" font-family="Helvetica,sans-Serif" font-size="14.00" fill="white">start_main_pass</text>
<text text-anchor="start" x="1312.75" y="-270.5" font-family="Helvetica,sans-Serif" font-size="10.00" fill="red">EmptyNode</text>
<path fill="none" stroke="white" d="M1290.83,-264C1290.83,-264 1391.67,-264 1391.67,-264 1397.33,-264 1403,-269.67 1403,-275.33 1403,-275.33 1403,-286.67 1403,-286.67 1403,-292.33 1397.33,-298 1391.67,-298 1391.67,-298 1290.83,-298 1290.83,-298 1285.17,-298 1279.5,-292.33 1279.5,-286.67 1279.5,-286.67 1279.5,-275.33 1279.5,-275.33 1279.5,-269.67 1285.17,-264 1290.83,-264"/>
</g>
<!-- _core_3d__core_3dmsaa_writeback&#45;&gt;_core_3d__core_3dstart_main_pass -->
<g id="edge23" class="edge">
<title>_core_3d__core_3dmsaa_writeback:e&#45;&gt;_core_3d__core_3dstart_main_pass:w</title>
<path fill="none" stroke="white" d="M1130.62,-341C1198.74,-341 1208.28,-287.38 1269.99,-281.52"/>
<polygon fill="white" stroke="white" points="1269.91,-285.03 1279.74,-281.07 1269.59,-278.03 1269.91,-285.03"/>
</g>
<!-- _core_3d__core_3dshadow_pass -->
<g id="node14" class="node">
<title>_core_3d__core_3dshadow_pass</title>
<text text-anchor="start" x="1025.5" y="-280.7" font-family="Helvetica,sans-Serif" font-size="14.00" fill="white">shadow_pass</text>
<text text-anchor="start" x="1028.88" y="-270.5" font-family="Helvetica,sans-Serif" font-size="10.00" fill="red">ShadowPassNode</text>
<path fill="none" stroke="white" d="M1031.33,-264C1031.33,-264 1111.92,-264 1111.92,-264 1117.58,-264 1123.25,-269.67 1123.25,-275.33 1123.25,-275.33 1123.25,-286.67 1123.25,-286.67 1123.25,-292.33 1117.58,-298 1111.92,-298 1111.92,-298 1031.33,-298 1031.33,-298 1025.67,-298 1020,-292.33 1020,-286.67 1020,-286.67 1020,-275.33 1020,-275.33 1020,-269.67 1025.67,-264 1031.33,-264"/>
</g>
<!-- _core_3d__core_3dshadow_pass&#45;&gt;_core_3d__core_3dstart_main_pass -->
<g id="edge24" class="edge">
<title>_core_3d__core_3dshadow_pass:e&#45;&gt;_core_3d__core_3dstart_main_pass:w</title>
<path fill="none" stroke="white" d="M1121.62,-281C1188.69,-281 1208.21,-281 1270.07,-281"/>
<polygon fill="white" stroke="white" points="1269.74,-284.5 1279.74,-281 1269.74,-277.5 1269.74,-284.5"/>
</g>
<!-- _core_3d__core_3dend_main_pass -->
<g id="node15" class="node">
<title>_core_3d__core_3dend_main_pass</title>
<text text-anchor="start" x="2919.25" y="-260.7" font-family="Helvetica,sans-Serif" font-size="14.00" fill="white">end_main_pass</text>
<text text-anchor="start" x="2944" y="-250.5" font-family="Helvetica,sans-Serif" font-size="10.00" fill="red">EmptyNode</text>
<path fill="none" stroke="white" d="M2925.08,-244C2925.08,-244 3019.92,-244 3019.92,-244 3025.58,-244 3031.25,-249.67 3031.25,-255.33 3031.25,-255.33 3031.25,-266.67 3031.25,-266.67 3031.25,-272.33 3025.58,-278 3019.92,-278 3019.92,-278 2925.08,-278 2925.08,-278 2919.42,-278 2913.75,-272.33 2913.75,-266.67 2913.75,-266.67 2913.75,-255.33 2913.75,-255.33 2913.75,-249.67 2919.42,-244 2925.08,-244"/>
</g>
<!-- _core_3d__core_3dui_pass -->
<g id="node19" class="node">
<title>_core_3d__core_3dui_pass</title>
<text text-anchor="start" x="4582.38" y="-220.7" font-family="Helvetica,sans-Serif" font-size="14.00" fill="white">ui_pass</text>
<text text-anchor="start" x="4552.75" y="-210.5" font-family="Helvetica,sans-Serif" font-size="10.00" fill="red">RunGraphOnViewNode</text>
<path fill="none" stroke="white" d="M4558.58,-204C4558.58,-204 4657.92,-204 4657.92,-204 4663.58,-204 4669.25,-209.67 4669.25,-215.33 4669.25,-215.33 4669.25,-226.67 4669.25,-226.67 4669.25,-232.33 4663.58,-238 4657.92,-238 4657.92,-238 4558.58,-238 4558.58,-238 4552.92,-238 4547.25,-232.33 4547.25,-226.67 4547.25,-226.67 4547.25,-215.33 4547.25,-215.33 4547.25,-209.67 4552.92,-204 4558.58,-204"/>
</g>
<!-- _core_3d__core_3dend_main_pass&#45;&gt;_core_3d__core_3dui_pass -->
<g id="edge25" class="edge">
<title>_core_3d__core_3dend_main_pass:e&#45;&gt;_core_3d__core_3dui_pass:w</title>
<path fill="none" stroke="white" d="M3029.5,-261C3068.2,-261 3073.24,-238.29 3111.25,-231 3270.46,-200.45 3313.76,-221 3475.88,-221 3475.88,-221 3475.88,-221 4026.12,-221 4254.77,-221 4314.77,-221 4537.81,-221"/>
<polygon fill="white" stroke="white" points="4537.74,-224.5 4547.74,-221 4537.74,-217.5 4537.74,-224.5"/>
</g>
<!-- _core_3d__core_3dbloom -->
<g id="node20" class="node">
<title>_core_3d__core_3dbloom</title>
<text text-anchor="start" x="3182.12" y="-260.7" font-family="Helvetica,sans-Serif" font-size="14.00" fill="white">bloom</text>
<text text-anchor="start" x="3124.75" y="-250.5" font-family="Helvetica,sans-Serif" font-size="10.00" fill="red">ViewNodeRunner&lt;BloomNode&gt;</text>
<path fill="none" stroke="white" d="M3130.58,-244C3130.58,-244 3276.42,-244 3276.42,-244 3282.08,-244 3287.75,-249.67 3287.75,-255.33 3287.75,-255.33 3287.75,-266.67 3287.75,-266.67 3287.75,-272.33 3282.08,-278 3276.42,-278 3276.42,-278 3130.58,-278 3130.58,-278 3124.92,-278 3119.25,-272.33 3119.25,-266.67 3119.25,-266.67 3119.25,-255.33 3119.25,-255.33 3119.25,-249.67 3124.92,-244 3130.58,-244"/>
</g>
<!-- _core_3d__core_3dend_main_pass&#45;&gt;_core_3d__core_3dbloom -->
<g id="edge27" class="edge">
<title>_core_3d__core_3dend_main_pass:e&#45;&gt;_core_3d__core_3dbloom:w</title>
<path fill="none" stroke="white" d="M3029.5,-261C3066.4,-261 3078.32,-261 3110.34,-261"/>
<polygon fill="white" stroke="white" points="3109.99,-264.5 3119.99,-261 3109.99,-257.5 3109.99,-264.5"/>
</g>
<!-- _core_3d__core_3dtonemapping -->
<g id="node28" class="node">
<title>_core_3d__core_3dtonemapping</title>
<text text-anchor="start" x="3430.75" y="-280.7" font-family="Helvetica,sans-Serif" font-size="14.00" fill="white">tonemapping</text>
<text text-anchor="start" x="3381.25" y="-270.5" font-family="Helvetica,sans-Serif" font-size="10.00" fill="red">ViewNodeRunner&lt;TonemappingNode&gt;</text>
<path fill="none" stroke="white" d="M3387.08,-264C3387.08,-264 3566.67,-264 3566.67,-264 3572.33,-264 3578,-269.67 3578,-275.33 3578,-275.33 3578,-286.67 3578,-286.67 3578,-292.33 3572.33,-298 3566.67,-298 3566.67,-298 3387.08,-298 3387.08,-298 3381.42,-298 3375.75,-292.33 3375.75,-286.67 3375.75,-286.67 3375.75,-275.33 3375.75,-275.33 3375.75,-269.67 3381.42,-264 3387.08,-264"/>
</g>
<!-- _core_3d__core_3dend_main_pass&#45;&gt;_core_3d__core_3dtonemapping -->
<g id="edge35" class="edge">
<title>_core_3d__core_3dend_main_pass:e&#45;&gt;_core_3d__core_3dtonemapping:w</title>
<path fill="none" stroke="white" d="M3029.5,-261C3068.2,-261 3073.14,-284.23 3111.25,-291 3191.99,-305.35 3213.9,-295.96 3295.75,-291 3328.29,-289.03 3338.78,-282.69 3366.38,-281.28"/>
<polygon fill="white" stroke="white" points="3366.45,-284.78 3376.36,-281.04 3366.28,-277.78 3366.45,-284.78"/>
</g>
<!-- _core_3d__core_3dend_main_pass_post_processing&#45;&gt;_core_3d__core_3dui_pass -->
<g id="edge26" class="edge">
<title>_core_3d__core_3dend_main_pass_post_processing:e&#45;&gt;_core_3d__core_3dui_pass:w</title>
<path fill="none" stroke="white" d="M4457.25,-261C4497.83,-261 4503.82,-227.86 4538.18,-221.91"/>
<polygon fill="white" stroke="white" points="4538.06,-225.43 4547.74,-221.12 4537.49,-218.46 4538.06,-225.43"/>
</g>
<!-- _core_3d__core_3dupscaling -->
<g id="node29" class="node">
<title>_core_3d__core_3dupscaling</title>
<text text-anchor="start" x="4816.38" y="-240.7" font-family="Helvetica,sans-Serif" font-size="14.00" fill="white">upscaling</text>
<text text-anchor="start" x="4762.75" y="-230.5" font-family="Helvetica,sans-Serif" font-size="10.00" fill="red">ViewNodeRunner&lt;UpscalingNode&gt;</text>
<path fill="none" stroke="white" d="M4768.58,-224C4768.58,-224 4930.92,-224 4930.92,-224 4936.58,-224 4942.25,-229.67 4942.25,-235.33 4942.25,-235.33 4942.25,-246.67 4942.25,-246.67 4942.25,-252.33 4936.58,-258 4930.92,-258 4930.92,-258 4768.58,-258 4768.58,-258 4762.92,-258 4757.25,-252.33 4757.25,-246.67 4757.25,-246.67 4757.25,-235.33 4757.25,-235.33 4757.25,-229.67 4762.92,-224 4768.58,-224"/>
</g>
<!-- _core_3d__core_3dend_main_pass_post_processing&#45;&gt;_core_3d__core_3dupscaling -->
<g id="edge37" class="edge">
<title>_core_3d__core_3dend_main_pass_post_processing:e&#45;&gt;_core_3d__core_3dupscaling:w</title>
<path fill="none" stroke="white" d="M4457.25,-261C4555.13,-261 4579.71,-259.19 4677.25,-251 4709.5,-248.29 4719.94,-242.52 4747.34,-241.25"/>
<polygon fill="white" stroke="white" points="4747.32,-244.75 4757.24,-241.03 4747.16,-237.75 4747.32,-244.75"/>
</g>
<!-- _core_3d__core_3dend_prepasses -->
<g id="node17" class="node">
<title>_core_3d__core_3dend_prepasses</title>
<text text-anchor="start" x="1019.88" y="-220.7" font-family="Helvetica,sans-Serif" font-size="14.00" fill="white">end_prepasses</text>
<text text-anchor="start" x="1043.12" y="-210.5" font-family="Helvetica,sans-Serif" font-size="10.00" fill="red">EmptyNode</text>
<path fill="none" stroke="white" d="M1025.71,-204C1025.71,-204 1117.54,-204 1117.54,-204 1123.21,-204 1128.88,-209.67 1128.88,-215.33 1128.88,-215.33 1128.88,-226.67 1128.88,-226.67 1128.88,-232.33 1123.21,-238 1117.54,-238 1117.54,-238 1025.71,-238 1025.71,-238 1020.04,-238 1014.38,-232.33 1014.38,-226.67 1014.38,-226.67 1014.38,-215.33 1014.38,-215.33 1014.38,-209.67 1020.04,-204 1025.71,-204"/>
</g>
<!-- _core_3d__core_3dend_prepasses&#45;&gt;_core_3d__core_3dstart_main_pass -->
<g id="edge22" class="edge">
<title>_core_3d__core_3dend_prepasses:e&#45;&gt;_core_3d__core_3dstart_main_pass:w</title>
<path fill="none" stroke="white" d="M1126.62,-221C1196.45,-221 1206.59,-274.84 1270.12,-280.52"/>
<polygon fill="white" stroke="white" points="1269.6,-284 1279.74,-280.93 1269.9,-277 1269.6,-284"/>
</g>
<!-- _core_3d__core_3dmain_opaque_pass -->
<g id="node21" class="node">
<title>_core_3d__core_3dmain_opaque_pass</title>
<text text-anchor="start" x="1955.5" y="-260.7" font-family="Helvetica,sans-Serif" font-size="14.00" fill="white">main_opaque_pass</text>
<text text-anchor="start" x="1910.88" y="-250.5" font-family="Helvetica,sans-Serif" font-size="10.00" fill="red">ViewNodeRunner&lt;MainOpaquePass3dNode&gt;</text>
<path fill="none" stroke="white" d="M1916.71,-244C1916.71,-244 2126.29,-244 2126.29,-244 2131.96,-244 2137.62,-249.67 2137.62,-255.33 2137.62,-255.33 2137.62,-266.67 2137.62,-266.67 2137.62,-272.33 2131.96,-278 2126.29,-278 2126.29,-278 1916.71,-278 1916.71,-278 1911.04,-278 1905.38,-272.33 1905.38,-266.67 1905.38,-266.67 1905.38,-255.33 1905.38,-255.33 1905.38,-249.67 1911.04,-244 1916.71,-244"/>
</g>
<!-- _core_3d__core_3dstart_main_pass&#45;&gt;_core_3d__core_3dmain_opaque_pass -->
<g id="edge28" class="edge">
<title>_core_3d__core_3dstart_main_pass:e&#45;&gt;_core_3d__core_3dmain_opaque_pass:w</title>
<path fill="none" stroke="white" d="M1401.25,-281C1446.79,-281 1456.43,-265.47 1501.75,-261 1677.36,-243.7 1725.13,-260.26 1896.06,-260.98"/>
<polygon fill="white" stroke="white" points="1895.98,-264.48 1905.99,-261 1895.99,-257.48 1895.98,-264.48"/>
</g>
<!-- _core_3d__core_3ddeferred_opaque_pbr_lighting_pass_3d -->
<g id="node30" class="node">
<title>_core_3d__core_3ddeferred_opaque_pbr_lighting_pass_3d</title>
<text text-anchor="start" x="1527.25" y="-290.7" font-family="Helvetica,sans-Serif" font-size="14.00" fill="white">deferred_opaque_pbr_lighting_pass_3d</text>
<text text-anchor="start" x="1515.25" y="-280.5" font-family="Helvetica,sans-Serif" font-size="10.00" fill="red">ViewNodeRunner&lt;DeferredOpaquePass3dPbrLightingNode&gt;</text>
<path fill="none" stroke="white" d="M1521.08,-274C1521.08,-274 1804.17,-274 1804.17,-274 1809.83,-274 1815.5,-279.67 1815.5,-285.33 1815.5,-285.33 1815.5,-296.67 1815.5,-296.67 1815.5,-302.33 1809.83,-308 1804.17,-308 1804.17,-308 1521.08,-308 1521.08,-308 1515.42,-308 1509.75,-302.33 1509.75,-296.67 1509.75,-296.67 1509.75,-285.33 1509.75,-285.33 1509.75,-279.67 1515.42,-274 1521.08,-274"/>
</g>
<!-- _core_3d__core_3dstart_main_pass&#45;&gt;_core_3d__core_3ddeferred_opaque_pbr_lighting_pass_3d -->
<g id="edge39" class="edge">
<title>_core_3d__core_3dstart_main_pass:e&#45;&gt;_core_3d__core_3ddeferred_opaque_pbr_lighting_pass_3d:w</title>
<path fill="none" stroke="white" d="M1401.25,-281C1446.47,-281 1460.17,-289.43 1500.22,-290.81"/>
<polygon fill="white" stroke="white" points="1500.05,-294.31 1510.11,-290.97 1500.17,-287.31 1500.05,-294.31"/>
</g>
<!-- _core_3d__core_3dui_pass&#45;&gt;_core_3d__core_3dupscaling -->
<g id="edge38" class="edge">
<title>_core_3d__core_3dui_pass:e&#45;&gt;_core_3d__core_3dupscaling:w</title>
<path fill="none" stroke="white" d="M4667.25,-221C4704.81,-221 4715.19,-237.28 4747.45,-240.47"/>
<polygon fill="white" stroke="white" points="4747.08,-243.95 4757.24,-240.93 4747.41,-236.96 4747.08,-243.95"/>
</g>
<!-- _core_3d__core_3dbloom&#45;&gt;_core_3d__core_3dtonemapping -->
<g id="edge36" class="edge">
<title>_core_3d__core_3dbloom:e&#45;&gt;_core_3d__core_3dtonemapping:w</title>
<path fill="none" stroke="white" d="M3285.5,-261C3323.4,-261 3333.91,-277.28 3366.47,-280.47"/>
<polygon fill="white" stroke="white" points="3366.21,-283.96 3376.36,-280.93 3366.54,-276.96 3366.21,-283.96"/>
</g>
<!-- _core_3d__core_3dmain_transmissive_pass -->
<g id="node22" class="node">
<title>_core_3d__core_3dmain_transmissive_pass</title>
<text text-anchor="start" x="2272.38" y="-260.7" font-family="Helvetica,sans-Serif" font-size="14.00" fill="white">main_transmissive_pass</text>
<text text-anchor="start" x="2233" y="-250.5" font-family="Helvetica,sans-Serif" font-size="10.00" fill="red">ViewNodeRunner&lt;MainTransmissivePass3dNode&gt;</text>
<path fill="none" stroke="white" d="M2238.83,-244C2238.83,-244 2474.67,-244 2474.67,-244 2480.33,-244 2486,-249.67 2486,-255.33 2486,-255.33 2486,-266.67 2486,-266.67 2486,-272.33 2480.33,-278 2474.67,-278 2474.67,-278 2238.83,-278 2238.83,-278 2233.17,-278 2227.5,-272.33 2227.5,-266.67 2227.5,-266.67 2227.5,-255.33 2227.5,-255.33 2227.5,-249.67 2233.17,-244 2238.83,-244"/>
</g>
<!-- _core_3d__core_3dmain_opaque_pass&#45;&gt;_core_3d__core_3dmain_transmissive_pass -->
<g id="edge30" class="edge">
<title>_core_3d__core_3dmain_opaque_pass:e&#45;&gt;_core_3d__core_3dmain_transmissive_pass:w</title>
<path fill="none" stroke="white" d="M2135.5,-261C2173.3,-261 2185.52,-261 2218.32,-261"/>
<polygon fill="white" stroke="white" points="2218.24,-264.5 2228.24,-261 2218.24,-257.5 2218.24,-264.5"/>
</g>
<!-- _core_3d__core_3dmain_transparent_pass -->
<g id="node23" class="node">
<title>_core_3d__core_3dmain_transparent_pass</title>
<text text-anchor="start" x="2619.25" y="-260.7" font-family="Helvetica,sans-Serif" font-size="14.00" fill="white">main_transparent_pass</text>
<text text-anchor="start" x="2579.5" y="-250.5" font-family="Helvetica,sans-Serif" font-size="10.00" fill="red">ViewNodeRunner&lt;MainTransparentPass3dNode&gt;</text>
<path fill="none" stroke="white" d="M2585.33,-244C2585.33,-244 2814.42,-244 2814.42,-244 2820.08,-244 2825.75,-249.67 2825.75,-255.33 2825.75,-255.33 2825.75,-266.67 2825.75,-266.67 2825.75,-272.33 2820.08,-278 2814.42,-278 2814.42,-278 2585.33,-278 2585.33,-278 2579.67,-278 2574,-272.33 2574,-266.67 2574,-266.67 2574,-255.33 2574,-255.33 2574,-249.67 2579.67,-244 2585.33,-244"/>
</g>
<!-- _core_3d__core_3dmain_transmissive_pass&#45;&gt;_core_3d__core_3dmain_transparent_pass -->
<g id="edge31" class="edge">
<title>_core_3d__core_3dmain_transmissive_pass:e&#45;&gt;_core_3d__core_3dmain_transparent_pass:w</title>
<path fill="none" stroke="white" d="M2483.75,-261C2520.7,-261 2532.64,-261 2564.7,-261"/>
<polygon fill="white" stroke="white" points="2564.36,-264.5 2574.36,-261 2564.36,-257.5 2564.36,-264.5"/>
</g>
<!-- _core_3d__core_3dmain_transparent_pass&#45;&gt;_core_3d__core_3dend_main_pass -->
<g id="edge17" class="edge">
<title>_core_3d__core_3dmain_transparent_pass:e&#45;&gt;_core_3d__core_3dend_main_pass:w</title>
<path fill="none" stroke="white" d="M2823.88,-261C2860.62,-261 2872.5,-261 2904.39,-261"/>
<polygon fill="white" stroke="white" points="2903.99,-264.5 2913.99,-261 2903.99,-257.5 2903.99,-264.5"/>
</g>
<!-- _core_3d__core_3dcopy_deferred_lighting_id -->
<g id="node24" class="node">
<title>_core_3d__core_3dcopy_deferred_lighting_id</title>
<text text-anchor="start" x="667.75" y="-220.7" font-family="Helvetica,sans-Serif" font-size="14.00" fill="white">copy_deferred_lighting_id</text>
<text text-anchor="start" x="635.5" y="-210.5" font-family="Helvetica,sans-Serif" font-size="10.00" fill="red">ViewNodeRunner&lt;CopyDeferredLightingIdNode&gt;</text>
<path fill="none" stroke="white" d="M641.33,-204C641.33,-204 871.17,-204 871.17,-204 876.83,-204 882.5,-209.67 882.5,-215.33 882.5,-215.33 882.5,-226.67 882.5,-226.67 882.5,-232.33 876.83,-238 871.17,-238 871.17,-238 641.33,-238 641.33,-238 635.67,-238 630,-232.33 630,-226.67 630,-226.67 630,-215.33 630,-215.33 630,-209.67 635.67,-204 641.33,-204"/>
</g>
<!-- _core_3d__core_3dcopy_deferred_lighting_id&#45;&gt;_core_3d__core_3dend_prepasses -->
<g id="edge21" class="edge">
<title>_core_3d__core_3dcopy_deferred_lighting_id:e&#45;&gt;_core_3d__core_3dend_prepasses:w</title>
<path fill="none" stroke="white" d="M880.25,-221C936.84,-221 953.8,-221 1005.12,-221"/>
<polygon fill="white" stroke="white" points="1005.11,-224.5 1015.11,-221 1005.11,-217.5 1005.11,-224.5"/>
</g>
<!-- _core_3d__core_3ddeferred_prepass -->
<g id="node25" class="node">
<title>_core_3d__core_3ddeferred_prepass</title>
<text text-anchor="start" x="354.62" y="-220.7" font-family="Helvetica,sans-Serif" font-size="14.00" fill="white">deferred_prepass</text>
<text text-anchor="start" x="292.75" y="-210.5" font-family="Helvetica,sans-Serif" font-size="10.00" fill="red">ViewNodeRunner&lt;DeferredGBufferPrepassNode&gt;</text>
<path fill="none" stroke="white" d="M298.58,-204C298.58,-204 530.67,-204 530.67,-204 536.33,-204 542,-209.67 542,-215.33 542,-215.33 542,-226.67 542,-226.67 542,-232.33 536.33,-238 530.67,-238 530.67,-238 298.58,-238 298.58,-238 292.92,-238 287.25,-232.33 287.25,-226.67 287.25,-226.67 287.25,-215.33 287.25,-215.33 287.25,-209.67 292.92,-204 298.58,-204"/>
</g>
<!-- _core_3d__core_3ddeferred_prepass&#45;&gt;_core_3d__core_3dcopy_deferred_lighting_id -->
<g id="edge32" class="edge">
<title>_core_3d__core_3ddeferred_prepass:e&#45;&gt;_core_3d__core_3dcopy_deferred_lighting_id:w</title>
<path fill="none" stroke="white" d="M539.62,-221C576.77,-221 588.78,-221 621.02,-221"/>
<polygon fill="white" stroke="white" points="620.74,-224.5 630.74,-221 620.74,-217.5 620.74,-224.5"/>
</g>
<!-- _core_3d__core_3dfxaa -->
<g id="node26" class="node">
<title>_core_3d__core_3dfxaa</title>
<text text-anchor="start" x="3731.5" y="-280.7" font-family="Helvetica,sans-Serif" font-size="14.00" fill="white">fxaa</text>
<text text-anchor="start" x="3671.5" y="-270.5" font-family="Helvetica,sans-Serif" font-size="10.00" fill="red">ViewNodeRunner&lt;FxaaNode&gt;</text>
<path fill="none" stroke="white" d="M3677.33,-264C3677.33,-264 3815.67,-264 3815.67,-264 3821.33,-264 3827,-269.67 3827,-275.33 3827,-275.33 3827,-286.67 3827,-286.67 3827,-292.33 3821.33,-298 3815.67,-298 3815.67,-298 3677.33,-298 3677.33,-298 3671.67,-298 3666,-292.33 3666,-286.67 3666,-286.67 3666,-275.33 3666,-275.33 3666,-269.67 3671.67,-264 3677.33,-264"/>
</g>
<!-- _core_3d__core_3dfxaa&#45;&gt;_core_3d__core_3dcontrast_adaptive_sharpening -->
<g id="edge16" class="edge">
<title>_core_3d__core_3dfxaa:e&#45;&gt;_core_3d__core_3dcontrast_adaptive_sharpening:w</title>
<path fill="none" stroke="white" d="M3825.5,-281C3863.11,-281 3873.51,-297.28 3905.81,-300.47"/>
<polygon fill="white" stroke="white" points="3905.46,-303.95 3915.61,-300.93 3905.79,-296.96 3905.46,-303.95"/>
</g>
<!-- _core_3d__core_3dfxaa&#45;&gt;_core_3d__core_3dend_main_pass_post_processing -->
<g id="edge19" class="edge">
<title>_core_3d__core_3dfxaa:e&#45;&gt;_core_3d__core_3dend_main_pass_post_processing:w</title>
<path fill="none" stroke="white" d="M3825.5,-281C3861.99,-281 3870.61,-273.8 3907,-271 4044.24,-260.45 4081.71,-260.96 4213.87,-261"/>
<polygon fill="white" stroke="white" points="4213.74,-264.5 4223.74,-261 4213.74,-257.5 4213.74,-264.5"/>
</g>
<!-- _core_3d__core_3dprepass -->
<g id="node27" class="node">
<title>_core_3d__core_3dprepass</title>
<text text-anchor="start" x="84.25" y="-220.7" font-family="Helvetica,sans-Serif" font-size="14.00" fill="white">prepass</text>
<text text-anchor="start" x="29.5" y="-210.5" font-family="Helvetica,sans-Serif" font-size="10.00" fill="red">ViewNodeRunner&lt;PrepassNode&gt;</text>
<path fill="none" stroke="white" d="M35.33,-204C35.33,-204 187.92,-204 187.92,-204 193.58,-204 199.25,-209.67 199.25,-215.33 199.25,-215.33 199.25,-226.67 199.25,-226.67 199.25,-232.33 193.58,-238 187.92,-238 187.92,-238 35.33,-238 35.33,-238 29.67,-238 24,-232.33 24,-226.67 24,-226.67 24,-215.33 24,-215.33 24,-209.67 29.67,-204 35.33,-204"/>
</g>
<!-- _core_3d__core_3dprepass&#45;&gt;_core_3d__core_3ddeferred_prepass -->
<g id="edge33" class="edge">
<title>_core_3d__core_3dprepass:e&#45;&gt;_core_3d__core_3ddeferred_prepass:w</title>
<path fill="none" stroke="white" d="M197.62,-221C234.52,-221 246.45,-221 278.47,-221"/>
<polygon fill="white" stroke="white" points="278.11,-224.5 288.11,-221 278.11,-217.5 278.11,-224.5"/>
</g>
<!-- _core_3d__core_3dtonemapping&#45;&gt;_core_3d__core_3dcontrast_adaptive_sharpening -->
<g id="edge15" class="edge">
<title>_core_3d__core_3dtonemapping:e&#45;&gt;_core_3d__core_3dcontrast_adaptive_sharpening:w</title>
<path fill="none" stroke="white" d="M3575.88,-281C3614.73,-281 3619.74,-304.23 3658,-311 3735.46,-324.71 3756.48,-315.76 3835,-311 3867.54,-309.03 3878.03,-302.69 3905.63,-301.28"/>
<polygon fill="white" stroke="white" points="3905.7,-304.78 3915.61,-301.04 3905.53,-297.78 3905.7,-304.78"/>
</g>
<!-- _core_3d__core_3dtonemapping&#45;&gt;_core_3d__core_3dend_main_pass_post_processing -->
<g id="edge18" class="edge">
<title>_core_3d__core_3dtonemapping:e&#45;&gt;_core_3d__core_3dend_main_pass_post_processing:w</title>
<path fill="none" stroke="white" d="M3575.88,-281C3614.73,-281 3619.74,-257.77 3658,-251 3698.78,-243.78 4054.19,-253.96 4143.25,-257 4175.59,-258.1 4186.36,-260.4 4213.83,-260.9"/>
<polygon fill="white" stroke="white" points="4213.71,-264.4 4223.74,-260.99 4213.77,-257.4 4213.71,-264.4"/>
</g>
<!-- _core_3d__core_3dtonemapping&#45;&gt;_core_3d__core_3dfxaa -->
<g id="edge34" class="edge">
<title>_core_3d__core_3dtonemapping:e&#45;&gt;_core_3d__core_3dfxaa:w</title>
<path fill="none" stroke="white" d="M3575.88,-281C3612.62,-281 3624.5,-281 3656.39,-281"/>
<polygon fill="white" stroke="white" points="3655.99,-284.5 3665.99,-281 3655.99,-277.5 3655.99,-284.5"/>
</g>
<!-- _core_3d__core_3ddeferred_opaque_pbr_lighting_pass_3d&#45;&gt;_core_3d__core_3dmain_opaque_pass -->
<g id="edge29" class="edge">
<title>_core_3d__core_3ddeferred_opaque_pbr_lighting_pass_3d:e&#45;&gt;_core_3d__core_3dmain_opaque_pass:w</title>
<path fill="none" stroke="white" d="M1813.62,-291C1853.32,-291 1862.19,-266.36 1896.11,-261.74"/>
<polygon fill="white" stroke="white" points="1896.24,-265.24 1905.99,-261.1 1895.78,-258.26 1896.24,-265.24"/>
</g>
<!-- _camera_driver -->
<g id="node31" class="node">
<title>_camera_driver</title>
<text text-anchor="start" x="61.75" y="-423.7" font-family="Helvetica,sans-Serif" font-size="14.00" fill="white">camera_driver</text>
<text text-anchor="start" x="64.75" y="-413.5" font-family="Helvetica,sans-Serif" font-size="10.00" fill="red">CameraDriverNode</text>
<path fill="none" stroke="white" d="M67.58,-407C67.58,-407 155.67,-407 155.67,-407 161.33,-407 167,-412.67 167,-418.33 167,-418.33 167,-429.67 167,-429.67 167,-435.33 161.33,-441 155.67,-441 155.67,-441 67.58,-441 67.58,-441 61.92,-441 56.25,-435.33 56.25,-429.67 56.25,-429.67 56.25,-418.33 56.25,-418.33 56.25,-412.67 61.92,-407 67.58,-407"/>
</g>
</g>
</svg>
