<?xml version="1.0" encoding="UTF-8" standalone="no"?>
<!DOCTYPE svg PUBLIC "-//W3C//DTD SVG 1.1//EN"
 "http://www.w3.org/Graphics/SVG/1.1/DTD/svg11.dtd">
<!-- Generated by graphviz version 12.2.1 (0)
 -->
<!-- Title: RenderGraph Pages: 1 -->
<svg width="7254pt" height="539pt"
 viewBox="0.00 0.00 7254.25 539.45" xmlns="http://www.w3.org/2000/svg" xmlns:xlink="http://www.w3.org/1999/xlink">
<g id="graph0" class="graph" transform="scale(1 1) rotate(0) translate(4 535.45)">
<title>RenderGraph</title>
<polygon fill="#0d1117" stroke="none" points="-4,4 -4,-535.45 7250.25,-535.45 7250.25,4 -4,4"/>
<g id="clust1" class="cluster">
<title>cluster_Core2d</title>
<path fill="#343a42" stroke="#343a42" d="M40.25,-36.45C40.25,-36.45 4266.88,-36.45 4266.88,-36.45 4272.88,-36.45 4278.88,-42.45 4278.88,-48.45 4278.88,-48.45 4278.88,-227.45 4278.88,-227.45 4278.88,-233.45 4272.88,-239.45 4266.88,-239.45 4266.88,-239.45 40.25,-239.45 40.25,-239.45 34.25,-239.45 28.25,-233.45 28.25,-227.45 28.25,-227.45 28.25,-48.45 28.25,-48.45 28.25,-42.45 34.25,-36.45 40.25,-36.45"/>
<text text-anchor="middle" x="2153.56" y="-222.15" font-family="Times,serif" font-size="14.00" fill="white">Core2d</text>
</g>
<g id="clust2" class="cluster">
<title>cluster_Core2d_SubGraphUi</title>
<path fill="#6f90ad" stroke="#6f90ad" d="M110.38,-51.45C110.38,-51.45 190.88,-51.45 190.88,-51.45 196.88,-51.45 202.88,-57.45 202.88,-63.45 202.88,-63.45 202.88,-122.45 202.88,-122.45 202.88,-128.45 196.88,-134.45 190.88,-134.45 190.88,-134.45 110.38,-134.45 110.38,-134.45 104.38,-134.45 98.38,-128.45 98.38,-122.45 98.38,-122.45 98.38,-63.45 98.38,-63.45 98.38,-57.45 104.38,-51.45 110.38,-51.45"/>
<text text-anchor="middle" x="150.62" y="-117.15" font-family="Times,serif" font-size="14.00">SubGraphUi</text>
</g>
<g id="clust3" class="cluster">
<title>cluster_Core3d</title>
<path fill="#343a42" stroke="#343a42" d="M20,-247.45C20,-247.45 7226.25,-247.45 7226.25,-247.45 7232.25,-247.45 7238.25,-253.45 7238.25,-259.45 7238.25,-259.45 7238.25,-469.45 7238.25,-469.45 7238.25,-475.45 7232.25,-481.45 7226.25,-481.45 7226.25,-481.45 20,-481.45 20,-481.45 14,-481.45 8,-475.45 8,-469.45 8,-469.45 8,-259.45 8,-259.45 8,-253.45 14,-247.45 20,-247.45"/>
<text text-anchor="middle" x="3623.12" y="-464.15" font-family="Times,serif" font-size="14.00" fill="white">Core3d</text>
</g>
<g id="clust4" class="cluster">
<title>cluster_Core3d_SubGraphUi</title>
<path fill="#6f90ad" stroke="#6f90ad" d="M110.38,-255.45C110.38,-255.45 190.88,-255.45 190.88,-255.45 196.88,-255.45 202.88,-261.45 202.88,-267.45 202.88,-267.45 202.88,-326.45 202.88,-326.45 202.88,-332.45 196.88,-338.45 190.88,-338.45 190.88,-338.45 110.38,-338.45 110.38,-338.45 104.38,-338.45 98.38,-332.45 98.38,-326.45 98.38,-326.45 98.38,-267.45 98.38,-267.45 98.38,-261.45 104.38,-255.45 110.38,-255.45"/>
<text text-anchor="middle" x="150.62" y="-321.15" font-family="Times,serif" font-size="14.00">SubGraphUi</text>
</g>
<!-- _Core2d_SubGraphUi__Core2d_SubGraphUiUiPass -->
<g id="node1" class="node">
<title>_Core2d_SubGraphUi__Core2d_SubGraphUiUiPass</title>
<text text-anchor="start" x="127.62" y="-80.15" font-family="Helvetica,sans-Serif" font-size="14.00" fill="white">UiPass</text>
<text text-anchor="start" x="121.25" y="-69.95" font-family="Helvetica,sans-Serif" font-size="10.00" fill="red">UiPassNode</text>
<path fill="none" stroke="white" d="M127.58,-63.45C127.58,-63.45 172.67,-63.45 172.67,-63.45 178.33,-63.45 184,-69.11 184,-74.78 184,-74.78 184,-86.11 184,-86.11 184,-91.78 178.33,-97.45 172.67,-97.45 172.67,-97.45 127.58,-97.45 127.58,-97.45 121.92,-97.45 116.25,-91.78 116.25,-86.11 116.25,-86.11 116.25,-74.78 116.25,-74.78 116.25,-69.11 121.92,-63.45 127.58,-63.45"/>
</g>
<!-- _Core2d__Core2dContrastAdaptiveSharpening -->
<g id="node2" class="node">
<title>_Core2d__Core2dContrastAdaptiveSharpening</title>
<text text-anchor="start" x="3088.25" y="-125.15" font-family="Helvetica,sans-Serif" font-size="14.00" fill="white">ContrastAdaptiveSharpening</text>
<text text-anchor="start" x="3166.62" y="-114.95" font-family="Helvetica,sans-Serif" font-size="10.00" fill="red">CasNode</text>
<path fill="none" stroke="white" d="M3094.58,-108.45C3094.58,-108.45 3282.17,-108.45 3282.17,-108.45 3287.83,-108.45 3293.5,-114.11 3293.5,-119.78 3293.5,-119.78 3293.5,-131.11 3293.5,-131.11 3293.5,-136.78 3287.83,-142.45 3282.17,-142.45 3282.17,-142.45 3094.58,-142.45 3094.58,-142.45 3088.92,-142.45 3083.25,-136.78 3083.25,-131.11 3083.25,-131.11 3083.25,-119.78 3083.25,-119.78 3083.25,-114.11 3088.92,-108.45 3094.58,-108.45"/>
</g>
<!-- _Core2d__Core2dEndMainPassPostProcessing -->
<g id="node4" class="node">
<title>_Core2d__Core2dEndMainPassPostProcessing</title>
<text text-anchor="start" x="3423.62" y="-125.15" font-family="Helvetica,sans-Serif" font-size="14.00" fill="white">EndMainPassPostProcessing</text>
<text text-anchor="start" x="3492.25" y="-114.95" font-family="Helvetica,sans-Serif" font-size="10.00" fill="red">EmptyNode</text>
<path fill="none" stroke="white" d="M3429.96,-108.45C3429.96,-108.45 3611.54,-108.45 3611.54,-108.45 3617.21,-108.45 3622.88,-114.11 3622.88,-119.78 3622.88,-119.78 3622.88,-131.11 3622.88,-131.11 3622.88,-136.78 3617.21,-142.45 3611.54,-142.45 3611.54,-142.45 3429.96,-142.45 3429.96,-142.45 3424.29,-142.45 3418.62,-136.78 3418.62,-131.11 3418.62,-131.11 3418.62,-119.78 3418.62,-119.78 3418.62,-114.11 3424.29,-108.45 3429.96,-108.45"/>
</g>
<!-- _Core2d__Core2dContrastAdaptiveSharpening&#45;&gt;_Core2d__Core2dEndMainPassPostProcessing -->
<g id="edge6" class="edge">
<title>_Core2d__Core2dContrastAdaptiveSharpening:e&#45;&gt;_Core2d__Core2dEndMainPassPostProcessing:w</title>
<path fill="none" stroke="white" d="M3291.5,-125.45C3344.85,-125.45 3361.01,-125.45 3409.13,-125.45"/>
<polygon fill="white" stroke="white" points="3409.11,-128.95 3419.11,-125.45 3409.11,-121.95 3409.11,-128.95"/>
</g>
<!-- _Core2d__Core2dEndMainPass -->
<g id="node3" class="node">
<title>_Core2d__Core2dEndMainPass</title>
<text text-anchor="start" x="1480.75" y="-166.15" font-family="Helvetica,sans-Serif" font-size="14.00" fill="white">EndMainPass</text>
<text text-anchor="start" x="1497.62" y="-155.95" font-family="Helvetica,sans-Serif" font-size="10.00" fill="red">EmptyNode</text>
<path fill="none" stroke="white" d="M1487.08,-149.45C1487.08,-149.45 1565.17,-149.45 1565.17,-149.45 1570.83,-149.45 1576.5,-155.11 1576.5,-160.78 1576.5,-160.78 1576.5,-172.11 1576.5,-172.11 1576.5,-177.78 1570.83,-183.45 1565.17,-183.45 1565.17,-183.45 1487.08,-183.45 1487.08,-183.45 1481.42,-183.45 1475.75,-177.78 1475.75,-172.11 1475.75,-172.11 1475.75,-160.78 1475.75,-160.78 1475.75,-155.11 1481.42,-149.45 1487.08,-149.45"/>
</g>
<!-- _Core2d__Core2dBloom -->
<g id="node6" class="node">
<title>_Core2d__Core2dBloom</title>
<text text-anchor="start" x="1855.5" y="-126.15" font-family="Helvetica,sans-Serif" font-size="14.00" fill="white">Bloom</text>
<text text-anchor="start" x="1798.5" y="-115.95" font-family="Helvetica,sans-Serif" font-size="10.00" fill="red">ViewNodeRunner&lt;BloomNode&gt;</text>
<path fill="none" stroke="white" d="M1804.83,-109.45C1804.83,-109.45 1949.67,-109.45 1949.67,-109.45 1955.33,-109.45 1961,-115.11 1961,-120.78 1961,-120.78 1961,-132.11 1961,-132.11 1961,-137.78 1955.33,-143.45 1949.67,-143.45 1949.67,-143.45 1804.83,-143.45 1804.83,-143.45 1799.17,-143.45 1793.5,-137.78 1793.5,-132.11 1793.5,-132.11 1793.5,-120.78 1793.5,-120.78 1793.5,-115.11 1799.17,-109.45 1804.83,-109.45"/>
</g>
<!-- _Core2d__Core2dEndMainPass&#45;&gt;_Core2d__Core2dBloom -->
<g id="edge9" class="edge">
<title>_Core2d__Core2dEndMainPass:e&#45;&gt;_Core2d__Core2dBloom:w</title>
<path fill="none" stroke="white" d="M1574.5,-166.45C1670.42,-166.45 1693.89,-129.51 1784.15,-126.62"/>
<polygon fill="white" stroke="white" points="1784.04,-130.13 1793.99,-126.47 1783.93,-123.13 1784.04,-130.13"/>
</g>
<!-- _Core2d__Core2dTonemapping -->
<g id="node13" class="node">
<title>_Core2d__Core2dTonemapping</title>
<text text-anchor="start" x="2444.88" y="-125.15" font-family="Helvetica,sans-Serif" font-size="14.00" fill="white">Tonemapping</text>
<text text-anchor="start" x="2395.75" y="-114.95" font-family="Helvetica,sans-Serif" font-size="10.00" fill="red">ViewNodeRunner&lt;TonemappingNode&gt;</text>
<path fill="none" stroke="white" d="M2402.08,-108.45C2402.08,-108.45 2580.67,-108.45 2580.67,-108.45 2586.33,-108.45 2592,-114.11 2592,-119.78 2592,-119.78 2592,-131.11 2592,-131.11 2592,-136.78 2586.33,-142.45 2580.67,-142.45 2580.67,-142.45 2402.08,-142.45 2402.08,-142.45 2396.42,-142.45 2390.75,-136.78 2390.75,-131.11 2390.75,-131.11 2390.75,-119.78 2390.75,-119.78 2390.75,-114.11 2396.42,-108.45 2402.08,-108.45"/>
</g>
<!-- _Core2d__Core2dEndMainPass&#45;&gt;_Core2d__Core2dTonemapping -->
<g id="edge15" class="edge">
<title>_Core2d__Core2dEndMainPass:e&#45;&gt;_Core2d__Core2dTonemapping:w</title>
<path fill="none" stroke="white" d="M1574.5,-166.45C1768.55,-166.45 1817.21,-166.53 2011,-156.45 2050.76,-154.38 2313,-129.05 2381.49,-125.79"/>
<polygon fill="white" stroke="white" points="2381.35,-129.3 2391.24,-125.49 2381.13,-122.3 2381.35,-129.3"/>
</g>
<!-- _Core2d__Core2dUiPass -->
<g id="node15" class="node">
<title>_Core2d__Core2dUiPass</title>
<text text-anchor="start" x="3840.38" y="-165.15" font-family="Helvetica,sans-Serif" font-size="14.00" fill="white">UiPass</text>
<text text-anchor="start" x="3788.62" y="-154.95" font-family="Helvetica,sans-Serif" font-size="10.00" fill="red">RunUiSubgraphOnUiViewNode</text>
<path fill="none" stroke="white" d="M3794.96,-148.45C3794.96,-148.45 3930.79,-148.45 3930.79,-148.45 3936.46,-148.45 3942.12,-154.11 3942.12,-159.78 3942.12,-159.78 3942.12,-171.11 3942.12,-171.11 3942.12,-176.78 3936.46,-182.45 3930.79,-182.45 3930.79,-182.45 3794.96,-182.45 3794.96,-182.45 3789.29,-182.45 3783.62,-176.78 3783.62,-171.11 3783.62,-171.11 3783.62,-159.78 3783.62,-159.78 3783.62,-154.11 3789.29,-148.45 3794.96,-148.45"/>
</g>
<!-- _Core2d__Core2dEndMainPass&#45;&gt;_Core2d__Core2dUiPass -->
<g id="edge20" class="edge">
<title>_Core2d__Core2dEndMainPass:e&#45;&gt;_Core2d__Core2dUiPass:w</title>
<path fill="none" stroke="white" d="M1574.5,-166.45C1851.21,-166.45 1919.16,-205.45 2195.88,-205.45 2195.88,-205.45 2195.88,-205.45 3189.38,-205.45 3451.21,-205.45 3518.15,-166.57 3774.46,-165.47"/>
<polygon fill="white" stroke="white" points="3774.12,-168.97 3784.11,-165.45 3774.1,-161.97 3774.12,-168.97"/>
</g>
<!-- _Core2d__Core2dUpscaling -->
<g id="node14" class="node">
<title>_Core2d__Core2dUpscaling</title>
<text text-anchor="start" x="4136.75" y="-145.15" font-family="Helvetica,sans-Serif" font-size="14.00" fill="white">Upscaling</text>
<text text-anchor="start" x="4083.88" y="-134.95" font-family="Helvetica,sans-Serif" font-size="10.00" fill="red">ViewNodeRunner&lt;UpscalingNode&gt;</text>
<path fill="none" stroke="white" d="M4090.21,-128.45C4090.21,-128.45 4251.54,-128.45 4251.54,-128.45 4257.21,-128.45 4262.88,-134.11 4262.88,-139.78 4262.88,-139.78 4262.88,-151.11 4262.88,-151.11 4262.88,-156.78 4257.21,-162.45 4251.54,-162.45 4251.54,-162.45 4090.21,-162.45 4090.21,-162.45 4084.54,-162.45 4078.88,-156.78 4078.88,-151.11 4078.88,-151.11 4078.88,-139.78 4078.88,-139.78 4078.88,-134.11 4084.54,-128.45 4090.21,-128.45"/>
</g>
<!-- _Core2d__Core2dEndMainPassPostProcessing&#45;&gt;_Core2d__Core2dUpscaling -->
<g id="edge18" class="edge">
<title>_Core2d__Core2dEndMainPassPostProcessing:e&#45;&gt;_Core2d__Core2dUpscaling:w</title>
<path fill="none" stroke="white" d="M3620.88,-125.45C3787.77,-125.45 3829.79,-123.42 3996.25,-135.45 4029.89,-137.88 4040.69,-143.91 4069.41,-145.2"/>
<polygon fill="white" stroke="white" points="4069.29,-148.7 4079.36,-145.41 4069.44,-141.7 4069.29,-148.7"/>
</g>
<!-- _Core2d__Core2dEndMainPassPostProcessing&#45;&gt;_Core2d__Core2dUiPass -->
<g id="edge21" class="edge">
<title>_Core2d__Core2dEndMainPassPostProcessing:e&#45;&gt;_Core2d__Core2dUiPass:w</title>
<path fill="none" stroke="white" d="M3620.88,-125.45C3692.25,-125.45 3708.62,-161.34 3774.2,-165.12"/>
<polygon fill="white" stroke="white" points="3774.02,-168.62 3784.11,-165.4 3774.21,-161.62 3774.02,-168.62"/>
</g>
<!-- _Core2d__Core2dStartMainPass -->
<g id="node5" class="node">
<title>_Core2d__Core2dStartMainPass</title>
<text text-anchor="start" x="454.75" y="-166.15" font-family="Helvetica,sans-Serif" font-size="14.00" fill="white">StartMainPass</text>
<text text-anchor="start" x="475" y="-155.95" font-family="Helvetica,sans-Serif" font-size="10.00" fill="red">EmptyNode</text>
<path fill="none" stroke="white" d="M461.08,-149.45C461.08,-149.45 545.92,-149.45 545.92,-149.45 551.58,-149.45 557.25,-155.11 557.25,-160.78 557.25,-160.78 557.25,-172.11 557.25,-172.11 557.25,-177.78 551.58,-183.45 545.92,-183.45 545.92,-183.45 461.08,-183.45 461.08,-183.45 455.42,-183.45 449.75,-177.78 449.75,-172.11 449.75,-172.11 449.75,-160.78 449.75,-160.78 449.75,-155.11 455.42,-149.45 461.08,-149.45"/>
</g>
<!-- _Core2d__Core2dMainOpaquePass -->
<g id="node7" class="node">
<title>_Core2d__Core2dMainOpaquePass</title>
<text text-anchor="start" x="787.12" y="-166.15" font-family="Helvetica,sans-Serif" font-size="14.00" fill="white">MainOpaquePass</text>
<text text-anchor="start" x="735.75" y="-155.95" font-family="Helvetica,sans-Serif" font-size="10.00" fill="red">ViewNodeRunner&lt;MainOpaquePass2dNode&gt;</text>
<path fill="none" stroke="white" d="M742.08,-149.45C742.08,-149.45 950.67,-149.45 950.67,-149.45 956.33,-149.45 962,-155.11 962,-160.78 962,-160.78 962,-172.11 962,-172.11 962,-177.78 956.33,-183.45 950.67,-183.45 950.67,-183.45 742.08,-183.45 742.08,-183.45 736.42,-183.45 730.75,-177.78 730.75,-172.11 730.75,-172.11 730.75,-160.78 730.75,-160.78 730.75,-155.11 736.42,-149.45 742.08,-149.45"/>
</g>
<!-- _Core2d__Core2dStartMainPass&#45;&gt;_Core2d__Core2dMainOpaquePass -->
<g id="edge10" class="edge">
<title>_Core2d__Core2dStartMainPass:e&#45;&gt;_Core2d__Core2dMainOpaquePass:w</title>
<path fill="none" stroke="white" d="M555.25,-166.45C630.29,-166.45 651.79,-166.45 721.6,-166.45"/>
<polygon fill="white" stroke="white" points="721.24,-169.95 731.24,-166.45 721.24,-162.95 721.24,-169.95"/>
</g>
<!-- _Core2d__Core2dPostProcessing -->
<g id="node11" class="node">
<title>_Core2d__Core2dPostProcessing</title>
<text text-anchor="start" x="2145.12" y="-90.15" font-family="Helvetica,sans-Serif" font-size="14.00" fill="white">PostProcessing</text>
<text text-anchor="start" x="2097.12" y="-79.95" font-family="Helvetica,sans-Serif" font-size="10.00" fill="red">ViewNodeRunner&lt;PostProcessingNode&gt;</text>
<path fill="none" stroke="white" d="M2103.46,-73.45C2103.46,-73.45 2290.29,-73.45 2290.29,-73.45 2295.96,-73.45 2301.62,-79.11 2301.62,-84.78 2301.62,-84.78 2301.62,-96.11 2301.62,-96.11 2301.62,-101.78 2295.96,-107.45 2290.29,-107.45 2290.29,-107.45 2103.46,-107.45 2103.46,-107.45 2097.79,-107.45 2092.12,-101.78 2092.12,-96.11 2092.12,-96.11 2092.12,-84.78 2092.12,-84.78 2092.12,-79.11 2097.79,-73.45 2103.46,-73.45"/>
</g>
<!-- _Core2d__Core2dBloom&#45;&gt;_Core2d__Core2dPostProcessing -->
<g id="edge13" class="edge">
<title>_Core2d__Core2dBloom:e&#45;&gt;_Core2d__Core2dPostProcessing:w</title>
<path fill="none" stroke="white" d="M1959,-126.45C2017.14,-126.45 2030.37,-94.94 2082.72,-90.88"/>
<polygon fill="white" stroke="white" points="2082.75,-94.38 2092.61,-90.5 2082.49,-87.38 2082.75,-94.38"/>
</g>
<!-- _Core2d__Core2dBloom&#45;&gt;_Core2d__Core2dTonemapping -->
<g id="edge16" class="edge">
<title>_Core2d__Core2dBloom:e&#45;&gt;_Core2d__Core2dTonemapping:w</title>
<path fill="none" stroke="white" d="M1959,-126.45C2147.92,-126.45 2197.98,-125.49 2381.34,-125.45"/>
<polygon fill="white" stroke="white" points="2381.24,-128.95 2391.24,-125.45 2381.24,-121.95 2381.24,-128.95"/>
</g>
<!-- _Core2d__Core2dMainTransparentPass -->
<g id="node8" class="node">
<title>_Core2d__Core2dMainTransparentPass</title>
<text text-anchor="start" x="1102.25" y="-166.15" font-family="Helvetica,sans-Serif" font-size="14.00" fill="white">MainTransparentPass</text>
<text text-anchor="start" x="1055" y="-155.95" font-family="Helvetica,sans-Serif" font-size="10.00" fill="red">ViewNodeRunner&lt;MainTransparentPass2dNode&gt;</text>
<path fill="none" stroke="white" d="M1061.33,-149.45C1061.33,-149.45 1289.42,-149.45 1289.42,-149.45 1295.08,-149.45 1300.75,-155.11 1300.75,-160.78 1300.75,-160.78 1300.75,-172.11 1300.75,-172.11 1300.75,-177.78 1295.08,-183.45 1289.42,-183.45 1289.42,-183.45 1061.33,-183.45 1061.33,-183.45 1055.67,-183.45 1050,-177.78 1050,-172.11 1050,-172.11 1050,-160.78 1050,-160.78 1050,-155.11 1055.67,-149.45 1061.33,-149.45"/>
</g>
<!-- _Core2d__Core2dMainOpaquePass&#45;&gt;_Core2d__Core2dMainTransparentPass -->
<g id="edge11" class="edge">
<title>_Core2d__Core2dMainOpaquePass:e&#45;&gt;_Core2d__Core2dMainTransparentPass:w</title>
<path fill="none" stroke="white" d="M960,-166.45C996.9,-166.45 1008.82,-166.45 1040.84,-166.45"/>
<polygon fill="white" stroke="white" points="1040.49,-169.95 1050.49,-166.45 1040.49,-162.95 1040.49,-169.95"/>
</g>
<!-- _Core2d__Core2dMainTransparentPass&#45;&gt;_Core2d__Core2dEndMainPass -->
<g id="edge3" class="edge">
<title>_Core2d__Core2dMainTransparentPass:e&#45;&gt;_Core2d__Core2dEndMainPass:w</title>
<path fill="none" stroke="white" d="M1298.75,-166.45C1374.42,-166.45 1396.11,-166.45 1466.51,-166.45"/>
<polygon fill="white" stroke="white" points="1466.24,-169.95 1476.24,-166.45 1466.24,-162.95 1466.24,-169.95"/>
</g>
<!-- _Core2d__Core2dFxaa -->
<g id="node9" class="node">
<title>_Core2d__Core2dFxaa</title>
<text text-anchor="start" x="2815.88" y="-85.15" font-family="Helvetica,sans-Serif" font-size="14.00" fill="white">Fxaa</text>
<text text-anchor="start" x="2757.38" y="-74.95" font-family="Helvetica,sans-Serif" font-size="10.00" fill="red">ViewNodeRunner&lt;FxaaNode&gt;</text>
<path fill="none" stroke="white" d="M2763.71,-68.45C2763.71,-68.45 2901.04,-68.45 2901.04,-68.45 2906.71,-68.45 2912.38,-74.11 2912.38,-79.78 2912.38,-79.78 2912.38,-91.11 2912.38,-91.11 2912.38,-96.78 2906.71,-102.45 2901.04,-102.45 2901.04,-102.45 2763.71,-102.45 2763.71,-102.45 2758.04,-102.45 2752.38,-96.78 2752.38,-91.11 2752.38,-91.11 2752.38,-79.78 2752.38,-79.78 2752.38,-74.11 2758.04,-68.45 2763.71,-68.45"/>
</g>
<!-- _Core2d__Core2dFxaa&#45;&gt;_Core2d__Core2dContrastAdaptiveSharpening -->
<g id="edge2" class="edge">
<title>_Core2d__Core2dFxaa:e&#45;&gt;_Core2d__Core2dContrastAdaptiveSharpening:w</title>
<path fill="none" stroke="white" d="M2910.38,-85.45C2986.21,-85.45 3003.86,-121.64 3074.02,-125.17"/>
<polygon fill="white" stroke="white" points="3073.65,-128.66 3083.74,-125.41 3073.83,-121.66 3073.65,-128.66"/>
</g>
<!-- _Core2d__Core2dFxaa&#45;&gt;_Core2d__Core2dEndMainPassPostProcessing -->
<g id="edge5" class="edge">
<title>_Core2d__Core2dFxaa:e&#45;&gt;_Core2d__Core2dEndMainPassPostProcessing:w</title>
<path fill="none" stroke="white" d="M2910.38,-85.45C3088.93,-85.45 3135.38,-69.26 3312,-95.45 3357.58,-102.2 3368.84,-121.92 3409.34,-125.03"/>
<polygon fill="white" stroke="white" points="3408.99,-128.52 3419.11,-125.39 3409.25,-121.52 3408.99,-128.52"/>
</g>
<!-- _Core2d__Core2dMsaaWriteback -->
<g id="node10" class="node">
<title>_Core2d__Core2dMsaaWriteback</title>
<text text-anchor="start" x="97.25" y="-166.15" font-family="Helvetica,sans-Serif" font-size="14.00" fill="white">MsaaWriteback</text>
<text text-anchor="start" x="49.25" y="-155.95" font-family="Helvetica,sans-Serif" font-size="10.00" fill="red">ViewNodeRunner&lt;MsaaWritebackNode&gt;</text>
<path fill="none" stroke="white" d="M55.58,-149.45C55.58,-149.45 244.67,-149.45 244.67,-149.45 250.33,-149.45 256,-155.11 256,-160.78 256,-160.78 256,-172.11 256,-172.11 256,-177.78 250.33,-183.45 244.67,-183.45 244.67,-183.45 55.58,-183.45 55.58,-183.45 49.92,-183.45 44.25,-177.78 44.25,-172.11 44.25,-172.11 44.25,-160.78 44.25,-160.78 44.25,-155.11 49.92,-149.45 55.58,-149.45"/>
</g>
<!-- _Core2d__Core2dMsaaWriteback&#45;&gt;_Core2d__Core2dStartMainPass -->
<g id="edge8" class="edge">
<title>_Core2d__Core2dMsaaWriteback:e&#45;&gt;_Core2d__Core2dStartMainPass:w</title>
<path fill="none" stroke="white" d="M254,-166.45C337.94,-166.45 361.75,-166.45 440.29,-166.45"/>
<polygon fill="white" stroke="white" points="440.24,-169.95 450.24,-166.45 440.24,-162.95 440.24,-169.95"/>
</g>
<!-- _Core2d__Core2dPostProcessing&#45;&gt;_Core2d__Core2dTonemapping -->
<g id="edge17" class="edge">
<title>_Core2d__Core2dPostProcessing:e&#45;&gt;_Core2d__Core2dTonemapping:w</title>
<path fill="none" stroke="white" d="M2299.62,-90.45C2339.7,-90.45 2347.31,-119.19 2381.29,-124.58"/>
<polygon fill="white" stroke="white" points="2381.01,-128.07 2391.24,-125.33 2381.53,-121.09 2381.01,-128.07"/>
</g>
<!-- _Core2d__Core2dSmaa -->
<g id="node12" class="node">
<title>_Core2d__Core2dSmaa</title>
<text text-anchor="start" x="2812.88" y="-165.15" font-family="Helvetica,sans-Serif" font-size="14.00" fill="white">Smaa</text>
<text text-anchor="start" x="2755.5" y="-154.95" font-family="Helvetica,sans-Serif" font-size="10.00" fill="red">ViewNodeRunner&lt;SmaaNode&gt;</text>
<path fill="none" stroke="white" d="M2761.83,-148.45C2761.83,-148.45 2902.92,-148.45 2902.92,-148.45 2908.58,-148.45 2914.25,-154.11 2914.25,-159.78 2914.25,-159.78 2914.25,-171.11 2914.25,-171.11 2914.25,-176.78 2908.58,-182.45 2902.92,-182.45 2902.92,-182.45 2761.83,-182.45 2761.83,-182.45 2756.17,-182.45 2750.5,-176.78 2750.5,-171.11 2750.5,-171.11 2750.5,-159.78 2750.5,-159.78 2750.5,-154.11 2756.17,-148.45 2761.83,-148.45"/>
</g>
<!-- _Core2d__Core2dSmaa&#45;&gt;_Core2d__Core2dEndMainPassPostProcessing -->
<g id="edge7" class="edge">
<title>_Core2d__Core2dSmaa:e&#45;&gt;_Core2d__Core2dEndMainPassPostProcessing:w</title>
<path fill="none" stroke="white" d="M2912.25,-165.45C3089.97,-165.45 3136.2,-181.52 3312,-155.45 3357.58,-148.69 3368.84,-128.98 3409.34,-125.86"/>
<polygon fill="white" stroke="white" points="3409.25,-129.37 3419.11,-125.5 3408.99,-122.37 3409.25,-129.37"/>
</g>
<!-- _Core2d__Core2dTonemapping&#45;&gt;_Core2d__Core2dContrastAdaptiveSharpening -->
<g id="edge1" class="edge">
<title>_Core2d__Core2dTonemapping:e&#45;&gt;_Core2d__Core2dContrastAdaptiveSharpening:w</title>
<path fill="none" stroke="white" d="M2590,-125.45C2806.24,-125.45 2863.15,-125.45 3073.79,-125.45"/>
<polygon fill="white" stroke="white" points="3073.74,-128.95 3083.74,-125.45 3073.74,-121.95 3073.74,-128.95"/>
</g>
<!-- _Core2d__Core2dTonemapping&#45;&gt;_Core2d__Core2dEndMainPassPostProcessing -->
<g id="edge4" class="edge">
<title>_Core2d__Core2dTonemapping:e&#45;&gt;_Core2d__Core2dEndMainPassPostProcessing:w</title>
<path fill="none" stroke="white" d="M2590,-125.45C2637.92,-125.45 2627.04,-72.03 2672,-55.45 2939.02,43.02 3035.88,-7.49 3312,-76.45 3359.47,-88.3 3366.74,-120.07 3409.33,-124.84"/>
<polygon fill="white" stroke="white" points="3408.94,-128.33 3419.11,-125.37 3409.31,-121.34 3408.94,-128.33"/>
</g>
<!-- _Core2d__Core2dTonemapping&#45;&gt;_Core2d__Core2dFxaa -->
<g id="edge12" class="edge">
<title>_Core2d__Core2dTonemapping:e&#45;&gt;_Core2d__Core2dFxaa:w</title>
<path fill="none" stroke="white" d="M2590,-125.45C2661.22,-125.45 2677.54,-89.55 2742.97,-85.77"/>
<polygon fill="white" stroke="white" points="2742.96,-89.27 2752.86,-85.49 2742.77,-82.27 2742.96,-89.27"/>
</g>
<!-- _Core2d__Core2dTonemapping&#45;&gt;_Core2d__Core2dSmaa -->
<g id="edge14" class="edge">
<title>_Core2d__Core2dTonemapping:e&#45;&gt;_Core2d__Core2dSmaa:w</title>
<path fill="none" stroke="white" d="M2590,-125.45C2660.46,-125.45 2676.5,-161.34 2741.22,-165.12"/>
<polygon fill="white" stroke="white" points="2740.89,-168.62 2750.99,-165.4 2741.09,-161.62 2740.89,-168.62"/>
</g>
<!-- _Core2d__Core2dUiPass&#45;&gt;_Core2d__Core2dUpscaling -->
<g id="edge19" class="edge">
<title>_Core2d__Core2dUiPass:e&#45;&gt;_Core2d__Core2dUpscaling:w</title>
<path fill="none" stroke="white" d="M3940.12,-165.45C3999.36,-165.45 4015.7,-147.87 4069.58,-145.67"/>
<polygon fill="white" stroke="white" points="4069.43,-149.17 4079.36,-145.48 4069.29,-142.18 4069.43,-149.17"/>
</g>
<!-- _Core3d_SubGraphUi__Core3d_SubGraphUiUiPass -->
<g id="node16" class="node">
<title>_Core3d_SubGraphUi__Core3d_SubGraphUiUiPass</title>
<text text-anchor="start" x="127.62" y="-284.15" font-family="Helvetica,sans-Serif" font-size="14.00" fill="white">UiPass</text>
<text text-anchor="start" x="121.25" y="-273.95" font-family="Helvetica,sans-Serif" font-size="10.00" fill="red">UiPassNode</text>
<path fill="none" stroke="white" d="M127.58,-267.45C127.58,-267.45 172.67,-267.45 172.67,-267.45 178.33,-267.45 184,-273.11 184,-278.78 184,-278.78 184,-290.11 184,-290.11 184,-295.78 178.33,-301.45 172.67,-301.45 172.67,-301.45 127.58,-301.45 127.58,-301.45 121.92,-301.45 116.25,-295.78 116.25,-290.11 116.25,-290.11 116.25,-278.78 116.25,-278.78 116.25,-273.11 121.92,-267.45 127.58,-267.45"/>
</g>
<!-- _Core3d__Core3dContrastAdaptiveSharpening -->
<g id="node17" class="node">
<title>_Core3d__Core3dContrastAdaptiveSharpening</title>
<text text-anchor="start" x="6206.25" y="-341.15" font-family="Helvetica,sans-Serif" font-size="14.00" fill="white">ContrastAdaptiveSharpening</text>
<text text-anchor="start" x="6284.62" y="-330.95" font-family="Helvetica,sans-Serif" font-size="10.00" fill="red">CasNode</text>
<path fill="none" stroke="white" d="M6212.58,-324.45C6212.58,-324.45 6400.17,-324.45 6400.17,-324.45 6405.83,-324.45 6411.5,-330.11 6411.5,-335.78 6411.5,-335.78 6411.5,-347.11 6411.5,-347.11 6411.5,-352.78 6405.83,-358.45 6400.17,-358.45 6400.17,-358.45 6212.58,-358.45 6212.58,-358.45 6206.92,-358.45 6201.25,-352.78 6201.25,-347.11 6201.25,-347.11 6201.25,-335.78 6201.25,-335.78 6201.25,-330.11 6206.92,-324.45 6212.58,-324.45"/>
</g>
<!-- _Core3d__Core3dEndMainPassPostProcessing -->
<g id="node23" class="node">
<title>_Core3d__Core3dEndMainPassPostProcessing</title>
<text text-anchor="start" x="6504.5" y="-361.15" font-family="Helvetica,sans-Serif" font-size="14.00" fill="white">EndMainPassPostProcessing</text>
<text text-anchor="start" x="6573.12" y="-350.95" font-family="Helvetica,sans-Serif" font-size="10.00" fill="red">EmptyNode</text>
<path fill="none" stroke="white" d="M6510.83,-344.45C6510.83,-344.45 6692.42,-344.45 6692.42,-344.45 6698.08,-344.45 6703.75,-350.11 6703.75,-355.78 6703.75,-355.78 6703.75,-367.11 6703.75,-367.11 6703.75,-372.78 6698.08,-378.45 6692.42,-378.45 6692.42,-378.45 6510.83,-378.45 6510.83,-378.45 6505.17,-378.45 6499.5,-372.78 6499.5,-367.11 6499.5,-367.11 6499.5,-355.78 6499.5,-355.78 6499.5,-350.11 6505.17,-344.45 6510.83,-344.45"/>
</g>
<!-- _Core3d__Core3dContrastAdaptiveSharpening&#45;&gt;_Core3d__Core3dEndMainPassPostProcessing -->
<g id="edge31" class="edge">
<title>_Core3d__Core3dContrastAdaptiveSharpening:e&#45;&gt;_Core3d__Core3dEndMainPassPostProcessing:w</title>
<path fill="none" stroke="white" d="M6409.5,-341.45C6447.26,-341.45 6457.71,-357.73 6490.14,-360.91"/>
<polygon fill="white" stroke="white" points="6489.83,-364.4 6499.99,-361.38 6490.16,-357.41 6489.83,-364.4"/>
</g>
<!-- _Core3d__Core3dEarlyDownsampleDepth -->
<g id="node18" class="node">
<title>_Core3d__Core3dEarlyDownsampleDepth</title>
<text text-anchor="start" x="763.12" y="-362.15" font-family="Helvetica,sans-Serif" font-size="14.00" fill="white">EarlyDownsampleDepth</text>
<text text-anchor="start" x="787.12" y="-351.95" font-family="Helvetica,sans-Serif" font-size="10.00" fill="red">DownsampleDepthNode</text>
<path fill="none" stroke="white" d="M769.46,-345.45C769.46,-345.45 923.29,-345.45 923.29,-345.45 928.96,-345.45 934.62,-351.11 934.62,-356.78 934.62,-356.78 934.62,-368.11 934.62,-368.11 934.62,-373.78 928.96,-379.45 923.29,-379.45 923.29,-379.45 769.46,-379.45 769.46,-379.45 763.79,-379.45 758.12,-373.78 758.12,-368.11 758.12,-368.11 758.12,-356.78 758.12,-356.78 758.12,-351.11 763.79,-345.45 769.46,-345.45"/>
</g>
<!-- _Core3d__Core3dLatePrepass -->
<g id="node40" class="node">
<title>_Core3d__Core3dLatePrepass</title>
<text text-anchor="start" x="1133.75" y="-399.15" font-family="Helvetica,sans-Serif" font-size="14.00" fill="white">LatePrepass</text>
<text text-anchor="start" x="1082.75" y="-388.95" font-family="Helvetica,sans-Serif" font-size="10.00" fill="red">ViewNodeRunner&lt;LatePrepassNode&gt;</text>
<path fill="none" stroke="white" d="M1089.08,-382.45C1089.08,-382.45 1261.67,-382.45 1261.67,-382.45 1267.33,-382.45 1273,-388.11 1273,-393.78 1273,-393.78 1273,-405.11 1273,-405.11 1273,-410.78 1267.33,-416.45 1261.67,-416.45 1261.67,-416.45 1089.08,-416.45 1089.08,-416.45 1083.42,-416.45 1077.75,-410.78 1077.75,-405.11 1077.75,-405.11 1077.75,-393.78 1077.75,-393.78 1077.75,-388.11 1083.42,-382.45 1089.08,-382.45"/>
</g>
<!-- _Core3d__Core3dEarlyDownsampleDepth&#45;&gt;_Core3d__Core3dLatePrepass -->
<g id="edge53" class="edge">
<title>_Core3d__Core3dEarlyDownsampleDepth:e&#45;&gt;_Core3d__Core3dLatePrepass:w</title>
<path fill="none" stroke="white" d="M932.62,-362.45C996.1,-362.45 1010.7,-395.24 1068.44,-399.08"/>
<polygon fill="white" stroke="white" points="1068.13,-402.57 1078.24,-399.4 1068.36,-395.58 1068.13,-402.57"/>
</g>
<!-- _Core3d__Core3dLateDownsampleDepth -->
<g id="node19" class="node">
<title>_Core3d__Core3dLateDownsampleDepth</title>
<text text-anchor="start" x="4556.62" y="-276.15" font-family="Helvetica,sans-Serif" font-size="14.00" fill="white">LateDownsampleDepth</text>
<text text-anchor="start" x="4577.62" y="-265.95" font-family="Helvetica,sans-Serif" font-size="10.00" fill="red">DownsampleDepthNode</text>
<path fill="none" stroke="white" d="M4562.96,-259.45C4562.96,-259.45 4710.79,-259.45 4710.79,-259.45 4716.46,-259.45 4722.12,-265.11 4722.12,-270.78 4722.12,-270.78 4722.12,-282.11 4722.12,-282.11 4722.12,-287.78 4716.46,-293.45 4710.79,-293.45 4710.79,-293.45 4562.96,-293.45 4562.96,-293.45 4557.29,-293.45 4551.62,-287.78 4551.62,-282.11 4551.62,-282.11 4551.62,-270.78 4551.62,-270.78 4551.62,-265.11 4557.29,-259.45 4562.96,-259.45"/>
</g>
<!-- _Core3d__Core3dLateDownsampleDepth&#45;&gt;_Core3d__Core3dEndMainPassPostProcessing -->
<g id="edge33" class="edge">
<title>_Core3d__Core3dLateDownsampleDepth:e&#45;&gt;_Core3d__Core3dEndMainPassPostProcessing:w</title>
<path fill="none" stroke="white" d="M4720.12,-276.45C4921.9,-276.45 4972.1,-261.45 5173.88,-261.45 5173.88,-261.45 5173.88,-261.45 6032.38,-261.45 6204.79,-261.45 6260.88,-218.88 6419.5,-286.45 6461.03,-304.14 6453.89,-352.15 6490.07,-360.27"/>
<polygon fill="white" stroke="white" points="6489.69,-363.75 6499.99,-361.29 6490.4,-356.79 6489.69,-363.75"/>
</g>
<!-- _Core3d__Core3dEarlyShadowPass -->
<g id="node20" class="node">
<title>_Core3d__Core3dEarlyShadowPass</title>
<text text-anchor="start" x="1816.88" y="-279.15" font-family="Helvetica,sans-Serif" font-size="14.00" fill="white">EarlyShadowPass</text>
<text text-anchor="start" x="1822.12" y="-268.95" font-family="Helvetica,sans-Serif" font-size="10.00" fill="red">EarlyShadowPassNode</text>
<path fill="none" stroke="white" d="M1823.21,-262.45C1823.21,-262.45 1931.29,-262.45 1931.29,-262.45 1936.96,-262.45 1942.62,-268.11 1942.62,-273.78 1942.62,-273.78 1942.62,-285.11 1942.62,-285.11 1942.62,-290.78 1936.96,-296.45 1931.29,-296.45 1931.29,-296.45 1823.21,-296.45 1823.21,-296.45 1817.54,-296.45 1811.88,-290.78 1811.88,-285.11 1811.88,-285.11 1811.88,-273.78 1811.88,-273.78 1811.88,-268.11 1817.54,-262.45 1823.21,-262.45"/>
</g>
<!-- _Core3d__Core3dLateShadowPass -->
<g id="node21" class="node">
<title>_Core3d__Core3dLateShadowPass</title>
<text text-anchor="start" x="2139.5" y="-279.15" font-family="Helvetica,sans-Serif" font-size="14.00" fill="white">LateShadowPass</text>
<text text-anchor="start" x="2143.62" y="-268.95" font-family="Helvetica,sans-Serif" font-size="10.00" fill="red">LateShadowPassNode</text>
<path fill="none" stroke="white" d="M2145.83,-262.45C2145.83,-262.45 2247.92,-262.45 2247.92,-262.45 2253.58,-262.45 2259.25,-268.11 2259.25,-273.78 2259.25,-273.78 2259.25,-285.11 2259.25,-285.11 2259.25,-290.78 2253.58,-296.45 2247.92,-296.45 2247.92,-296.45 2145.83,-296.45 2145.83,-296.45 2140.17,-296.45 2134.5,-290.78 2134.5,-285.11 2134.5,-285.11 2134.5,-273.78 2134.5,-273.78 2134.5,-268.11 2140.17,-262.45 2145.83,-262.45"/>
</g>
<!-- _Core3d__Core3dEarlyShadowPass&#45;&gt;_Core3d__Core3dLateShadowPass -->
<g id="edge26" class="edge">
<title>_Core3d__Core3dEarlyShadowPass:e&#45;&gt;_Core3d__Core3dLateShadowPass:w</title>
<path fill="none" stroke="white" d="M1940.62,-279.45C2023.77,-279.45 2047.36,-279.45 2125.15,-279.45"/>
<polygon fill="white" stroke="white" points="2124.99,-282.95 2134.99,-279.45 2124.99,-275.95 2124.99,-282.95"/>
</g>
<!-- _Core3d__Core3dStartMainPass -->
<g id="node25" class="node">
<title>_Core3d__Core3dStartMainPass</title>
<text text-anchor="start" x="2442.62" y="-339.15" font-family="Helvetica,sans-Serif" font-size="14.00" fill="white">StartMainPass</text>
<text text-anchor="start" x="2462.88" y="-328.95" font-family="Helvetica,sans-Serif" font-size="10.00" fill="red">EmptyNode</text>
<path fill="none" stroke="white" d="M2448.96,-322.45C2448.96,-322.45 2533.79,-322.45 2533.79,-322.45 2539.46,-322.45 2545.12,-328.11 2545.12,-333.78 2545.12,-333.78 2545.12,-345.11 2545.12,-345.11 2545.12,-350.78 2539.46,-356.45 2533.79,-356.45 2533.79,-356.45 2448.96,-356.45 2448.96,-356.45 2443.29,-356.45 2437.62,-350.78 2437.62,-345.11 2437.62,-345.11 2437.62,-333.78 2437.62,-333.78 2437.62,-328.11 2443.29,-322.45 2448.96,-322.45"/>
</g>
<!-- _Core3d__Core3dLateShadowPass&#45;&gt;_Core3d__Core3dStartMainPass -->
<g id="edge37" class="edge">
<title>_Core3d__Core3dLateShadowPass:e&#45;&gt;_Core3d__Core3dStartMainPass:w</title>
<path fill="none" stroke="white" d="M2257.25,-279.45C2338.75,-279.45 2353.09,-334.18 2428.56,-339.09"/>
<polygon fill="white" stroke="white" points="2428.01,-342.58 2438.11,-339.4 2428.23,-335.58 2428.01,-342.58"/>
</g>
<!-- _Core3d__Core3dEndMainPass -->
<g id="node22" class="node">
<title>_Core3d__Core3dEndMainPass</title>
<text text-anchor="start" x="4358.5" y="-356.15" font-family="Helvetica,sans-Serif" font-size="14.00" fill="white">EndMainPass</text>
<text text-anchor="start" x="4375.38" y="-345.95" font-family="Helvetica,sans-Serif" font-size="10.00" fill="red">EmptyNode</text>
<path fill="none" stroke="white" d="M4364.83,-339.45C4364.83,-339.45 4442.92,-339.45 4442.92,-339.45 4448.58,-339.45 4454.25,-345.11 4454.25,-350.78 4454.25,-350.78 4454.25,-362.11 4454.25,-362.11 4454.25,-367.78 4448.58,-373.45 4442.92,-373.45 4442.92,-373.45 4364.83,-373.45 4364.83,-373.45 4359.17,-373.45 4353.5,-367.78 4353.5,-362.11 4353.5,-362.11 4353.5,-350.78 4353.5,-350.78 4353.5,-345.11 4359.17,-339.45 4364.83,-339.45"/>
</g>
<!-- _Core3d__Core3dEndMainPass&#45;&gt;_Core3d__Core3dLateDownsampleDepth -->
<g id="edge25" class="edge">
<title>_Core3d__Core3dEndMainPass:e&#45;&gt;_Core3d__Core3dLateDownsampleDepth:w</title>
<path fill="none" stroke="white" d="M4452.25,-356.45C4505.5,-356.45 4497.8,-287.59 4542.24,-277.64"/>
<polygon fill="white" stroke="white" points="4542.54,-281.13 4552.12,-276.6 4541.81,-274.17 4542.54,-281.13"/>
</g>
<!-- _Core3d__Core3dBloom -->
<g id="node26" class="node">
<title>_Core3d__Core3dBloom</title>
<text text-anchor="start" x="4881.5" y="-326.15" font-family="Helvetica,sans-Serif" font-size="14.00" fill="white">Bloom</text>
<text text-anchor="start" x="4824.5" y="-315.95" font-family="Helvetica,sans-Serif" font-size="10.00" fill="red">ViewNodeRunner&lt;BloomNode&gt;</text>
<path fill="none" stroke="white" d="M4830.83,-309.45C4830.83,-309.45 4975.67,-309.45 4975.67,-309.45 4981.33,-309.45 4987,-315.11 4987,-320.78 4987,-320.78 4987,-332.11 4987,-332.11 4987,-337.78 4981.33,-343.45 4975.67,-343.45 4975.67,-343.45 4830.83,-343.45 4830.83,-343.45 4825.17,-343.45 4819.5,-337.78 4819.5,-332.11 4819.5,-332.11 4819.5,-320.78 4819.5,-320.78 4819.5,-315.11 4825.17,-309.45 4830.83,-309.45"/>
</g>
<!-- _Core3d__Core3dEndMainPass&#45;&gt;_Core3d__Core3dBloom -->
<g id="edge38" class="edge">
<title>_Core3d__Core3dEndMainPass:e&#45;&gt;_Core3d__Core3dBloom:w</title>
<path fill="none" stroke="white" d="M4452.25,-356.45C4491.06,-356.45 4496.04,-333.22 4534.25,-326.45 4656.15,-304.85 4691.7,-325.14 4810.16,-326.39"/>
<polygon fill="white" stroke="white" points="4809.97,-329.89 4819.99,-326.44 4810,-322.89 4809.97,-329.89"/>
</g>
<!-- _Core3d__Core3dMotionBlur -->
<g id="node35" class="node">
<title>_Core3d__Core3dMotionBlur</title>
<text text-anchor="start" x="4599.38" y="-356.15" font-family="Helvetica,sans-Serif" font-size="14.00" fill="white">MotionBlur</text>
<text text-anchor="start" x="4547.25" y="-345.95" font-family="Helvetica,sans-Serif" font-size="10.00" fill="red">ViewNodeRunner&lt;MotionBlurNode&gt;</text>
<path fill="none" stroke="white" d="M4553.58,-339.45C4553.58,-339.45 4720.17,-339.45 4720.17,-339.45 4725.83,-339.45 4731.5,-345.11 4731.5,-350.78 4731.5,-350.78 4731.5,-362.11 4731.5,-362.11 4731.5,-367.78 4725.83,-373.45 4720.17,-373.45 4720.17,-373.45 4553.58,-373.45 4553.58,-373.45 4547.92,-373.45 4542.25,-367.78 4542.25,-362.11 4542.25,-362.11 4542.25,-350.78 4542.25,-350.78 4542.25,-345.11 4547.92,-339.45 4553.58,-339.45"/>
</g>
<!-- _Core3d__Core3dEndMainPass&#45;&gt;_Core3d__Core3dMotionBlur -->
<g id="edge49" class="edge">
<title>_Core3d__Core3dEndMainPass:e&#45;&gt;_Core3d__Core3dMotionBlur:w</title>
<path fill="none" stroke="white" d="M4452.25,-356.45C4489.15,-356.45 4501.07,-356.45 4533.09,-356.45"/>
<polygon fill="white" stroke="white" points="4532.74,-359.95 4542.74,-356.45 4532.74,-352.95 4532.74,-359.95"/>
</g>
<!-- _Core3d__Core3dTonemapping -->
<g id="node42" class="node">
<title>_Core3d__Core3dTonemapping</title>
<text text-anchor="start" x="5714.38" y="-356.15" font-family="Helvetica,sans-Serif" font-size="14.00" fill="white">Tonemapping</text>
<text text-anchor="start" x="5665.25" y="-345.95" font-family="Helvetica,sans-Serif" font-size="10.00" fill="red">ViewNodeRunner&lt;TonemappingNode&gt;</text>
<path fill="none" stroke="white" d="M5671.58,-339.45C5671.58,-339.45 5850.17,-339.45 5850.17,-339.45 5855.83,-339.45 5861.5,-345.11 5861.5,-350.78 5861.5,-350.78 5861.5,-362.11 5861.5,-362.11 5861.5,-367.78 5855.83,-373.45 5850.17,-373.45 5850.17,-373.45 5671.58,-373.45 5671.58,-373.45 5665.92,-373.45 5660.25,-367.78 5660.25,-362.11 5660.25,-362.11 5660.25,-350.78 5660.25,-350.78 5660.25,-345.11 5665.92,-339.45 5671.58,-339.45"/>
</g>
<!-- _Core3d__Core3dEndMainPass&#45;&gt;_Core3d__Core3dTonemapping -->
<g id="edge55" class="edge">
<title>_Core3d__Core3dEndMainPass:e&#45;&gt;_Core3d__Core3dTonemapping:w</title>
<path fill="none" stroke="white" d="M4452.25,-356.45C4491.06,-356.45 4496.13,-379.16 4534.25,-386.45 4694.95,-417.18 4738.63,-396.45 4902.25,-396.45 4902.25,-396.45 4902.25,-396.45 5175.88,-396.45 5355.82,-396.45 5402.18,-402.33 5580.25,-376.45 5613.31,-371.64 5622.77,-359.53 5650.94,-356.94"/>
<polygon fill="white" stroke="white" points="5650.9,-360.44 5660.74,-356.51 5650.59,-353.45 5650.9,-360.44"/>
</g>
<!-- _Core3d__Core3dUiPass -->
<g id="node46" class="node">
<title>_Core3d__Core3dUiPass</title>
<text text-anchor="start" x="6848.5" y="-401.15" font-family="Helvetica,sans-Serif" font-size="14.00" fill="white">UiPass</text>
<text text-anchor="start" x="6796.75" y="-390.95" font-family="Helvetica,sans-Serif" font-size="10.00" fill="red">RunUiSubgraphOnUiViewNode</text>
<path fill="none" stroke="white" d="M6803.08,-384.45C6803.08,-384.45 6938.92,-384.45 6938.92,-384.45 6944.58,-384.45 6950.25,-390.11 6950.25,-395.78 6950.25,-395.78 6950.25,-407.11 6950.25,-407.11 6950.25,-412.78 6944.58,-418.45 6938.92,-418.45 6938.92,-418.45 6803.08,-418.45 6803.08,-418.45 6797.42,-418.45 6791.75,-412.78 6791.75,-407.11 6791.75,-407.11 6791.75,-395.78 6791.75,-395.78 6791.75,-390.11 6797.42,-384.45 6803.08,-384.45"/>
</g>
<!-- _Core3d__Core3dEndMainPass&#45;&gt;_Core3d__Core3dUiPass -->
<g id="edge62" class="edge">
<title>_Core3d__Core3dEndMainPass:e&#45;&gt;_Core3d__Core3dUiPass:w</title>
<path fill="none" stroke="white" d="M4452.25,-356.45C4493.4,-356.45 4494.92,-387.35 4534.25,-399.45 4691.6,-447.83 4737.63,-441.45 4902.25,-441.45 4902.25,-441.45 4902.25,-441.45 6307.38,-441.45 6520.46,-441.45 6574.95,-402.84 6782.46,-401.48"/>
<polygon fill="white" stroke="white" points="6782.25,-404.98 6792.24,-401.45 6782.23,-397.98 6782.25,-404.98"/>
</g>
<!-- _Core3d__Core3dUpscaling -->
<g id="node43" class="node">
<title>_Core3d__Core3dUpscaling</title>
<text text-anchor="start" x="7096.12" y="-381.15" font-family="Helvetica,sans-Serif" font-size="14.00" fill="white">Upscaling</text>
<text text-anchor="start" x="7043.25" y="-370.95" font-family="Helvetica,sans-Serif" font-size="10.00" fill="red">ViewNodeRunner&lt;UpscalingNode&gt;</text>
<path fill="none" stroke="white" d="M7049.58,-364.45C7049.58,-364.45 7210.92,-364.45 7210.92,-364.45 7216.58,-364.45 7222.25,-370.11 7222.25,-375.78 7222.25,-375.78 7222.25,-387.11 7222.25,-387.11 7222.25,-392.78 7216.58,-398.45 7210.92,-398.45 7210.92,-398.45 7049.58,-398.45 7049.58,-398.45 7043.92,-398.45 7038.25,-392.78 7038.25,-387.11 7038.25,-387.11 7038.25,-375.78 7038.25,-375.78 7038.25,-370.11 7043.92,-364.45 7049.58,-364.45"/>
</g>
<!-- _Core3d__Core3dEndMainPassPostProcessing&#45;&gt;_Core3d__Core3dUpscaling -->
<g id="edge59" class="edge">
<title>_Core3d__Core3dEndMainPassPostProcessing:e&#45;&gt;_Core3d__Core3dUpscaling:w</title>
<path fill="none" stroke="white" d="M6701.75,-361.45C6815.84,-361.45 6844.53,-362.31 6958.25,-371.45 6990.7,-374.05 7001.21,-379.9 7028.77,-381.19"/>
<polygon fill="white" stroke="white" points="7028.66,-384.69 7038.74,-381.41 7028.82,-377.69 7028.66,-384.69"/>
</g>
<!-- _Core3d__Core3dEndMainPassPostProcessing&#45;&gt;_Core3d__Core3dUiPass -->
<g id="edge63" class="edge">
<title>_Core3d__Core3dEndMainPassPostProcessing:e&#45;&gt;_Core3d__Core3dUiPass:w</title>
<path fill="none" stroke="white" d="M6701.75,-361.45C6742.33,-361.45 6748.32,-394.58 6782.68,-400.54"/>
<polygon fill="white" stroke="white" points="6781.99,-403.99 6792.24,-401.32 6782.56,-397.01 6781.99,-403.99"/>
</g>
<!-- _Core3d__Core3dEndPrepasses -->
<g id="node24" class="node">
<title>_Core3d__Core3dEndPrepasses</title>
<text text-anchor="start" x="2148.5" y="-399.15" font-family="Helvetica,sans-Serif" font-size="14.00" fill="white">EndPrepasses</text>
<text text-anchor="start" x="2168.38" y="-388.95" font-family="Helvetica,sans-Serif" font-size="10.00" fill="red">EmptyNode</text>
<path fill="none" stroke="white" d="M2154.83,-382.45C2154.83,-382.45 2238.92,-382.45 2238.92,-382.45 2244.58,-382.45 2250.25,-388.11 2250.25,-393.78 2250.25,-393.78 2250.25,-405.11 2250.25,-405.11 2250.25,-410.78 2244.58,-416.45 2238.92,-416.45 2238.92,-416.45 2154.83,-416.45 2154.83,-416.45 2149.17,-416.45 2143.5,-410.78 2143.5,-405.11 2143.5,-405.11 2143.5,-393.78 2143.5,-393.78 2143.5,-388.11 2149.17,-382.45 2154.83,-382.45"/>
</g>
<!-- _Core3d__Core3dEndPrepasses&#45;&gt;_Core3d__Core3dStartMainPass -->
<g id="edge35" class="edge">
<title>_Core3d__Core3dEndPrepasses:e&#45;&gt;_Core3d__Core3dStartMainPass:w</title>
<path fill="none" stroke="white" d="M2248.25,-399.45C2333.56,-399.45 2349.22,-344.49 2428.54,-339.77"/>
<polygon fill="white" stroke="white" points="2428.22,-343.28 2438.11,-339.49 2428.01,-336.28 2428.22,-343.28"/>
</g>
<!-- _Core3d__Core3dMainOpaquePass -->
<g id="node27" class="node">
<title>_Core3d__Core3dMainOpaquePass</title>
<text text-anchor="start" x="3129.12" y="-339.15" font-family="Helvetica,sans-Serif" font-size="14.00" fill="white">MainOpaquePass</text>
<text text-anchor="start" x="3077.75" y="-328.95" font-family="Helvetica,sans-Serif" font-size="10.00" fill="red">ViewNodeRunner&lt;MainOpaquePass3dNode&gt;</text>
<path fill="none" stroke="white" d="M3084.08,-322.45C3084.08,-322.45 3292.67,-322.45 3292.67,-322.45 3298.33,-322.45 3304,-328.11 3304,-333.78 3304,-333.78 3304,-345.11 3304,-345.11 3304,-350.78 3298.33,-356.45 3292.67,-356.45 3292.67,-356.45 3084.08,-356.45 3084.08,-356.45 3078.42,-356.45 3072.75,-350.78 3072.75,-345.11 3072.75,-345.11 3072.75,-333.78 3072.75,-333.78 3072.75,-328.11 3078.42,-322.45 3084.08,-322.45"/>
</g>
<!-- _Core3d__Core3dStartMainPass&#45;&gt;_Core3d__Core3dMainOpaquePass -->
<g id="edge40" class="edge">
<title>_Core3d__Core3dStartMainPass:e&#45;&gt;_Core3d__Core3dMainOpaquePass:w</title>
<path fill="none" stroke="white" d="M2543.12,-339.45C2775.6,-339.45 2836.52,-339.45 3063.46,-339.45"/>
<polygon fill="white" stroke="white" points="3063.24,-342.95 3073.24,-339.45 3063.24,-335.95 3063.24,-342.95"/>
</g>
<!-- _Core3d__Core3dDeferredLightingPass -->
<g id="node44" class="node">
<title>_Core3d__Core3dDeferredLightingPass</title>
<text text-anchor="start" x="2758.88" y="-371.15" font-family="Helvetica,sans-Serif" font-size="14.00" fill="white">DeferredLightingPass</text>
<text text-anchor="start" x="2685" y="-360.95" font-family="Helvetica,sans-Serif" font-size="10.00" fill="red">ViewNodeRunner&lt;DeferredOpaquePass3dPbrLightingNode&gt;</text>
<path fill="none" stroke="white" d="M2691.33,-354.45C2691.33,-354.45 2973.42,-354.45 2973.42,-354.45 2979.08,-354.45 2984.75,-360.11 2984.75,-365.78 2984.75,-365.78 2984.75,-377.11 2984.75,-377.11 2984.75,-382.78 2979.08,-388.45 2973.42,-388.45 2973.42,-388.45 2691.33,-388.45 2691.33,-388.45 2685.67,-388.45 2680,-382.78 2680,-377.11 2680,-377.11 2680,-365.78 2680,-365.78 2680,-360.11 2685.67,-354.45 2691.33,-354.45"/>
</g>
<!-- _Core3d__Core3dStartMainPass&#45;&gt;_Core3d__Core3dDeferredLightingPass -->
<g id="edge61" class="edge">
<title>_Core3d__Core3dStartMainPass:e&#45;&gt;_Core3d__Core3dDeferredLightingPass:w</title>
<path fill="none" stroke="white" d="M2543.12,-339.45C2602.51,-339.45 2616.94,-367.57 2670.7,-371.09"/>
<polygon fill="white" stroke="white" points="2670.38,-374.58 2680.49,-371.4 2670.6,-367.58 2670.38,-374.58"/>
</g>
<!-- _Core3d__Core3dDepthOfField -->
<g id="node33" class="node">
<title>_Core3d__Core3dDepthOfField</title>
<text text-anchor="start" x="5129.88" y="-336.15" font-family="Helvetica,sans-Serif" font-size="14.00" fill="white">DepthOfField</text>
<text text-anchor="start" x="5080" y="-325.95" font-family="Helvetica,sans-Serif" font-size="10.00" fill="red">ViewNodeRunner&lt;DepthOfFieldNode&gt;</text>
<path fill="none" stroke="white" d="M5086.33,-319.45C5086.33,-319.45 5263.42,-319.45 5263.42,-319.45 5269.08,-319.45 5274.75,-325.11 5274.75,-330.78 5274.75,-330.78 5274.75,-342.11 5274.75,-342.11 5274.75,-347.78 5269.08,-353.45 5263.42,-353.45 5263.42,-353.45 5086.33,-353.45 5086.33,-353.45 5080.67,-353.45 5075,-347.78 5075,-342.11 5075,-342.11 5075,-330.78 5075,-330.78 5075,-325.11 5080.67,-319.45 5086.33,-319.45"/>
</g>
<!-- _Core3d__Core3dBloom&#45;&gt;_Core3d__Core3dDepthOfField -->
<g id="edge47" class="edge">
<title>_Core3d__Core3dBloom:e&#45;&gt;_Core3d__Core3dDepthOfField:w</title>
<path fill="none" stroke="white" d="M4985,-326.45C5022.11,-326.45 5033.67,-334.59 5065.79,-336.18"/>
<polygon fill="white" stroke="white" points="5065.41,-339.67 5075.49,-336.41 5065.57,-332.67 5065.41,-339.67"/>
</g>
<!-- _Core3d__Core3dBloom&#45;&gt;_Core3d__Core3dTonemapping -->
<g id="edge56" class="edge">
<title>_Core3d__Core3dBloom:e&#45;&gt;_Core3d__Core3dTonemapping:w</title>
<path fill="none" stroke="white" d="M4985,-326.45C5022.51,-326.45 5029.76,-310.92 5067,-306.45 5293.48,-279.23 5360.63,-244.77 5580.25,-306.45 5617.33,-316.86 5619.5,-349.19 5650.94,-355.41"/>
<polygon fill="white" stroke="white" points="5650.46,-358.88 5660.74,-356.31 5651.1,-351.91 5650.46,-358.88"/>
</g>
<!-- _Core3d__Core3dMainTransmissivePass -->
<g id="node28" class="node">
<title>_Core3d__Core3dMainTransmissivePass</title>
<text text-anchor="start" x="3443.88" y="-339.15" font-family="Helvetica,sans-Serif" font-size="14.00" fill="white">MainTransmissivePass</text>
<text text-anchor="start" x="3397" y="-328.95" font-family="Helvetica,sans-Serif" font-size="10.00" fill="red">ViewNodeRunner&lt;MainTransmissivePass3dNode&gt;</text>
<path fill="none" stroke="white" d="M3403.33,-322.45C3403.33,-322.45 3638.17,-322.45 3638.17,-322.45 3643.83,-322.45 3649.5,-328.11 3649.5,-333.78 3649.5,-333.78 3649.5,-345.11 3649.5,-345.11 3649.5,-350.78 3643.83,-356.45 3638.17,-356.45 3638.17,-356.45 3403.33,-356.45 3403.33,-356.45 3397.67,-356.45 3392,-350.78 3392,-345.11 3392,-345.11 3392,-333.78 3392,-333.78 3392,-328.11 3397.67,-322.45 3403.33,-322.45"/>
</g>
<!-- _Core3d__Core3dMainOpaquePass&#45;&gt;_Core3d__Core3dMainTransmissivePass -->
<g id="edge42" class="edge">
<title>_Core3d__Core3dMainOpaquePass:e&#45;&gt;_Core3d__Core3dMainTransmissivePass:w</title>
<path fill="none" stroke="white" d="M3302,-339.45C3338.9,-339.45 3350.82,-339.45 3382.84,-339.45"/>
<polygon fill="white" stroke="white" points="3382.49,-342.95 3392.49,-339.45 3382.49,-335.95 3382.49,-342.95"/>
</g>
<!-- _Core3d__Core3dMainTransparentPass -->
<g id="node29" class="node">
<title>_Core3d__Core3dMainTransparentPass</title>
<text text-anchor="start" x="3789.75" y="-339.15" font-family="Helvetica,sans-Serif" font-size="14.00" fill="white">MainTransparentPass</text>
<text text-anchor="start" x="3742.5" y="-328.95" font-family="Helvetica,sans-Serif" font-size="10.00" fill="red">ViewNodeRunner&lt;MainTransparentPass3dNode&gt;</text>
<path fill="none" stroke="white" d="M3748.83,-322.45C3748.83,-322.45 3976.92,-322.45 3976.92,-322.45 3982.58,-322.45 3988.25,-328.11 3988.25,-333.78 3988.25,-333.78 3988.25,-345.11 3988.25,-345.11 3988.25,-350.78 3982.58,-356.45 3976.92,-356.45 3976.92,-356.45 3748.83,-356.45 3748.83,-356.45 3743.17,-356.45 3737.5,-350.78 3737.5,-345.11 3737.5,-345.11 3737.5,-333.78 3737.5,-333.78 3737.5,-328.11 3743.17,-322.45 3748.83,-322.45"/>
</g>
<!-- _Core3d__Core3dMainTransmissivePass&#45;&gt;_Core3d__Core3dMainTransparentPass -->
<g id="edge43" class="edge">
<title>_Core3d__Core3dMainTransmissivePass:e&#45;&gt;_Core3d__Core3dMainTransparentPass:w</title>
<path fill="none" stroke="white" d="M3647.5,-339.45C3684.4,-339.45 3696.32,-339.45 3728.34,-339.45"/>
<polygon fill="white" stroke="white" points="3727.99,-342.95 3737.99,-339.45 3727.99,-335.95 3727.99,-342.95"/>
</g>
<!-- _Core3d__Core3dMainTransparentPass&#45;&gt;_Core3d__Core3dEndMainPass -->
<g id="edge27" class="edge">
<title>_Core3d__Core3dMainTransparentPass:e&#45;&gt;_Core3d__Core3dEndMainPass:w</title>
<path fill="none" stroke="white" d="M3986.25,-339.45C4022.76,-339.45 4031.75,-335.56 4068.25,-334.45 4161.82,-331.6 4186.18,-321.4 4278.88,-334.45 4309.85,-338.81 4318.24,-352.61 4344.16,-355.79"/>
<polygon fill="white" stroke="white" points="4343.8,-359.28 4353.99,-356.36 4344.21,-352.29 4343.8,-359.28"/>
</g>
<!-- _Core3d__Core3dOitResolvePass -->
<g id="node37" class="node">
<title>_Core3d__Core3dOitResolvePass</title>
<text text-anchor="start" x="4118.75" y="-364.15" font-family="Helvetica,sans-Serif" font-size="14.00" fill="white">OitResolvePass</text>
<text text-anchor="start" x="4081.25" y="-353.95" font-family="Helvetica,sans-Serif" font-size="10.00" fill="red">ViewNodeRunner&lt;OitResolveNode&gt;</text>
<path fill="none" stroke="white" d="M4087.58,-347.45C4087.58,-347.45 4254.17,-347.45 4254.17,-347.45 4259.83,-347.45 4265.5,-353.11 4265.5,-358.78 4265.5,-358.78 4265.5,-370.11 4265.5,-370.11 4265.5,-375.78 4259.83,-381.45 4254.17,-381.45 4254.17,-381.45 4087.58,-381.45 4087.58,-381.45 4081.92,-381.45 4076.25,-375.78 4076.25,-370.11 4076.25,-370.11 4076.25,-358.78 4076.25,-358.78 4076.25,-353.11 4081.92,-347.45 4087.58,-347.45"/>
</g>
<!-- _Core3d__Core3dMainTransparentPass&#45;&gt;_Core3d__Core3dOitResolvePass -->
<g id="edge50" class="edge">
<title>_Core3d__Core3dMainTransparentPass:e&#45;&gt;_Core3d__Core3dOitResolvePass:w</title>
<path fill="none" stroke="white" d="M3986.25,-339.45C4024.48,-339.45 4034.13,-359.8 4066.78,-363.78"/>
<polygon fill="white" stroke="white" points="4066.55,-367.27 4076.74,-364.36 4066.96,-360.28 4066.55,-367.27"/>
</g>
<!-- _Core3d__Core3dCopyDeferredLightingId -->
<g id="node30" class="node">
<title>_Core3d__Core3dCopyDeferredLightingId</title>
<text text-anchor="start" x="1794.75" y="-399.15" font-family="Helvetica,sans-Serif" font-size="14.00" fill="white">CopyDeferredLightingId</text>
<text text-anchor="start" x="1756.5" y="-388.95" font-family="Helvetica,sans-Serif" font-size="10.00" fill="red">ViewNodeRunner&lt;CopyDeferredLightingIdNode&gt;</text>
<path fill="none" stroke="white" d="M1762.83,-382.45C1762.83,-382.45 1991.67,-382.45 1991.67,-382.45 1997.33,-382.45 2003,-388.11 2003,-393.78 2003,-393.78 2003,-405.11 2003,-405.11 2003,-410.78 1997.33,-416.45 1991.67,-416.45 1991.67,-416.45 1762.83,-416.45 1762.83,-416.45 1757.17,-416.45 1751.5,-410.78 1751.5,-405.11 1751.5,-405.11 1751.5,-393.78 1751.5,-393.78 1751.5,-388.11 1757.17,-382.45 1762.83,-382.45"/>
</g>
<!-- _Core3d__Core3dCopyDeferredLightingId&#45;&gt;_Core3d__Core3dEndPrepasses -->
<g id="edge34" class="edge">
<title>_Core3d__Core3dCopyDeferredLightingId:e&#45;&gt;_Core3d__Core3dEndPrepasses:w</title>
<path fill="none" stroke="white" d="M2001,-399.45C2061.21,-399.45 2079.08,-399.45 2134,-399.45"/>
<polygon fill="white" stroke="white" points="2133.99,-402.95 2143.99,-399.45 2133.99,-395.95 2133.99,-402.95"/>
</g>
<!-- _Core3d__Core3dEarlyDeferredPrepass -->
<g id="node31" class="node">
<title>_Core3d__Core3dEarlyDeferredPrepass</title>
<text text-anchor="start" x="428.88" y="-367.15" font-family="Helvetica,sans-Serif" font-size="14.00" fill="white">EarlyDeferredPrepass</text>
<text text-anchor="start" x="369.25" y="-356.95" font-family="Helvetica,sans-Serif" font-size="10.00" fill="red">ViewNodeRunner&lt;EarlyDeferredGBufferPrepassNode&gt;</text>
<path fill="none" stroke="white" d="M375.58,-350.45C375.58,-350.45 631.42,-350.45 631.42,-350.45 637.08,-350.45 642.75,-356.11 642.75,-361.78 642.75,-361.78 642.75,-373.11 642.75,-373.11 642.75,-378.78 637.08,-384.45 631.42,-384.45 631.42,-384.45 375.58,-384.45 375.58,-384.45 369.92,-384.45 364.25,-378.78 364.25,-373.11 364.25,-373.11 364.25,-361.78 364.25,-361.78 364.25,-356.11 369.92,-350.45 375.58,-350.45"/>
</g>
<!-- _Core3d__Core3dEarlyDeferredPrepass&#45;&gt;_Core3d__Core3dEarlyDownsampleDepth -->
<g id="edge24" class="edge">
<title>_Core3d__Core3dEarlyDeferredPrepass:e&#45;&gt;_Core3d__Core3dEarlyDownsampleDepth:w</title>
<path fill="none" stroke="white" d="M640.75,-367.45C689.81,-367.45 704.78,-363.18 748.65,-362.53"/>
<polygon fill="white" stroke="white" points="748.64,-366.03 758.61,-362.46 748.59,-359.03 748.64,-366.03"/>
</g>
<!-- _Core3d__Core3dEarlyDeferredPrepass&#45;&gt;_Core3d__Core3dLatePrepass -->
<g id="edge52" class="edge">
<title>_Core3d__Core3dEarlyDeferredPrepass:e&#45;&gt;_Core3d__Core3dLatePrepass:w</title>
<path fill="none" stroke="white" d="M640.75,-367.45C678.85,-367.45 685.12,-386.46 722.75,-392.45 875.65,-416.77 918.95,-400.3 1068.33,-399.48"/>
<polygon fill="white" stroke="white" points="1068.25,-402.98 1078.24,-399.45 1068.23,-395.98 1068.25,-402.98"/>
</g>
<!-- _Core3d__Core3dLateDeferredPrepass -->
<g id="node32" class="node">
<title>_Core3d__Core3dLateDeferredPrepass</title>
<text text-anchor="start" x="1454.5" y="-399.15" font-family="Helvetica,sans-Serif" font-size="14.00" fill="white">LateDeferredPrepass</text>
<text text-anchor="start" x="1393.75" y="-388.95" font-family="Helvetica,sans-Serif" font-size="10.00" fill="red">ViewNodeRunner&lt;LateDeferredGBufferPrepassNode&gt;</text>
<path fill="none" stroke="white" d="M1400.08,-382.45C1400.08,-382.45 1652.17,-382.45 1652.17,-382.45 1657.83,-382.45 1663.5,-388.11 1663.5,-393.78 1663.5,-393.78 1663.5,-405.11 1663.5,-405.11 1663.5,-410.78 1657.83,-416.45 1652.17,-416.45 1652.17,-416.45 1400.08,-416.45 1400.08,-416.45 1394.42,-416.45 1388.75,-410.78 1388.75,-405.11 1388.75,-405.11 1388.75,-393.78 1388.75,-393.78 1388.75,-388.11 1394.42,-382.45 1400.08,-382.45"/>
</g>
<!-- _Core3d__Core3dLateDeferredPrepass&#45;&gt;_Core3d__Core3dCopyDeferredLightingId -->
<g id="edge44" class="edge">
<title>_Core3d__Core3dLateDeferredPrepass:e&#45;&gt;_Core3d__Core3dCopyDeferredLightingId:w</title>
<path fill="none" stroke="white" d="M1661.5,-399.45C1698.4,-399.45 1710.32,-399.45 1742.34,-399.45"/>
<polygon fill="white" stroke="white" points="1741.99,-402.95 1751.99,-399.45 1741.99,-395.95 1741.99,-402.95"/>
</g>
<!-- _Core3d__Core3dPostProcessing -->
<g id="node38" class="node">
<title>_Core3d__Core3dPostProcessing</title>
<text text-anchor="start" x="5415.75" y="-336.15" font-family="Helvetica,sans-Serif" font-size="14.00" fill="white">PostProcessing</text>
<text text-anchor="start" x="5367.75" y="-325.95" font-family="Helvetica,sans-Serif" font-size="10.00" fill="red">ViewNodeRunner&lt;PostProcessingNode&gt;</text>
<path fill="none" stroke="white" d="M5374.08,-319.45C5374.08,-319.45 5560.92,-319.45 5560.92,-319.45 5566.58,-319.45 5572.25,-325.11 5572.25,-330.78 5572.25,-330.78 5572.25,-342.11 5572.25,-342.11 5572.25,-347.78 5566.58,-353.45 5560.92,-353.45 5560.92,-353.45 5374.08,-353.45 5374.08,-353.45 5368.42,-353.45 5362.75,-347.78 5362.75,-342.11 5362.75,-342.11 5362.75,-330.78 5362.75,-330.78 5362.75,-325.11 5368.42,-319.45 5374.08,-319.45"/>
</g>
<!-- _Core3d__Core3dDepthOfField&#45;&gt;_Core3d__Core3dPostProcessing -->
<g id="edge51" class="edge">
<title>_Core3d__Core3dDepthOfField:e&#45;&gt;_Core3d__Core3dPostProcessing:w</title>
<path fill="none" stroke="white" d="M5272.75,-336.45C5309.65,-336.45 5321.57,-336.45 5353.59,-336.45"/>
<polygon fill="white" stroke="white" points="5353.24,-339.95 5363.24,-336.45 5353.24,-332.95 5353.24,-339.95"/>
</g>
<!-- _Core3d__Core3dDepthOfField&#45;&gt;_Core3d__Core3dTonemapping -->
<g id="edge57" class="edge">
<title>_Core3d__Core3dDepthOfField:e&#45;&gt;_Core3d__Core3dTonemapping:w</title>
<path fill="none" stroke="white" d="M5272.75,-336.45C5311.56,-336.45 5316.54,-359.68 5354.75,-366.45 5453.44,-383.93 5480.21,-372.52 5580.25,-366.45 5612.75,-364.47 5623.22,-358.14 5650.77,-356.73"/>
<polygon fill="white" stroke="white" points="5650.83,-360.23 5660.74,-356.48 5650.65,-353.23 5650.83,-360.23"/>
</g>
<!-- _Core3d__Core3dFxaa -->
<g id="node34" class="node">
<title>_Core3d__Core3dFxaa</title>
<text text-anchor="start" x="6014.88" y="-301.15" font-family="Helvetica,sans-Serif" font-size="14.00" fill="white">Fxaa</text>
<text text-anchor="start" x="5956.38" y="-290.95" font-family="Helvetica,sans-Serif" font-size="10.00" fill="red">ViewNodeRunner&lt;FxaaNode&gt;</text>
<path fill="none" stroke="white" d="M5962.71,-284.45C5962.71,-284.45 6100.04,-284.45 6100.04,-284.45 6105.71,-284.45 6111.38,-290.11 6111.38,-295.78 6111.38,-295.78 6111.38,-307.11 6111.38,-307.11 6111.38,-312.78 6105.71,-318.45 6100.04,-318.45 6100.04,-318.45 5962.71,-318.45 5962.71,-318.45 5957.04,-318.45 5951.38,-312.78 5951.38,-307.11 5951.38,-307.11 5951.38,-295.78 5951.38,-295.78 5951.38,-290.11 5957.04,-284.45 5962.71,-284.45"/>
</g>
<!-- _Core3d__Core3dFxaa&#45;&gt;_Core3d__Core3dContrastAdaptiveSharpening -->
<g id="edge23" class="edge">
<title>_Core3d__Core3dFxaa:e&#45;&gt;_Core3d__Core3dContrastAdaptiveSharpening:w</title>
<path fill="none" stroke="white" d="M6109.38,-301.45C6150.65,-301.45 6156.99,-334.58 6191.99,-340.54"/>
<polygon fill="white" stroke="white" points="6191.49,-344.01 6201.74,-341.32 6192.06,-337.03 6191.49,-344.01"/>
</g>
<!-- _Core3d__Core3dFxaa&#45;&gt;_Core3d__Core3dEndMainPassPostProcessing -->
<g id="edge30" class="edge">
<title>_Core3d__Core3dFxaa:e&#45;&gt;_Core3d__Core3dEndMainPassPostProcessing:w</title>
<path fill="none" stroke="white" d="M6109.38,-301.45C6247.28,-301.45 6287.35,-272.03 6419.5,-311.45 6456.41,-322.46 6458.72,-354.31 6490.18,-360.42"/>
<polygon fill="white" stroke="white" points="6489.72,-363.9 6499.99,-361.31 6490.35,-356.92 6489.72,-363.9"/>
</g>
<!-- _Core3d__Core3dMotionBlur&#45;&gt;_Core3d__Core3dBloom -->
<g id="edge39" class="edge">
<title>_Core3d__Core3dMotionBlur:e&#45;&gt;_Core3d__Core3dBloom:w</title>
<path fill="none" stroke="white" d="M4729.5,-356.45C4768.48,-356.45 4777.04,-331.81 4810.32,-327.19"/>
<polygon fill="white" stroke="white" points="4810.24,-330.7 4819.99,-326.55 4809.78,-323.72 4810.24,-330.7"/>
</g>
<!-- _Core3d__Core3dMsaaWriteback -->
<g id="node36" class="node">
<title>_Core3d__Core3dMsaaWriteback</title>
<text text-anchor="start" x="2144" y="-339.15" font-family="Helvetica,sans-Serif" font-size="14.00" fill="white">MsaaWriteback</text>
<text text-anchor="start" x="2096" y="-328.95" font-family="Helvetica,sans-Serif" font-size="10.00" fill="red">ViewNodeRunner&lt;MsaaWritebackNode&gt;</text>
<path fill="none" stroke="white" d="M2102.33,-322.45C2102.33,-322.45 2291.42,-322.45 2291.42,-322.45 2297.08,-322.45 2302.75,-328.11 2302.75,-333.78 2302.75,-333.78 2302.75,-345.11 2302.75,-345.11 2302.75,-350.78 2297.08,-356.45 2291.42,-356.45 2291.42,-356.45 2102.33,-356.45 2102.33,-356.45 2096.67,-356.45 2091,-350.78 2091,-345.11 2091,-345.11 2091,-333.78 2091,-333.78 2091,-328.11 2096.67,-322.45 2102.33,-322.45"/>
</g>
<!-- _Core3d__Core3dMsaaWriteback&#45;&gt;_Core3d__Core3dStartMainPass -->
<g id="edge36" class="edge">
<title>_Core3d__Core3dMsaaWriteback:e&#45;&gt;_Core3d__Core3dStartMainPass:w</title>
<path fill="none" stroke="white" d="M2300.75,-339.45C2358.49,-339.45 2375.72,-339.45 2428.24,-339.45"/>
<polygon fill="white" stroke="white" points="2428.11,-342.95 2438.11,-339.45 2428.11,-335.95 2428.11,-342.95"/>
</g>
<!-- _Core3d__Core3dOitResolvePass&#45;&gt;_Core3d__Core3dEndMainPass -->
<g id="edge28" class="edge">
<title>_Core3d__Core3dOitResolvePass:e&#45;&gt;_Core3d__Core3dEndMainPass:w</title>
<path fill="none" stroke="white" d="M4263.5,-364.45C4300.54,-364.45 4312.22,-357.93 4344.31,-356.66"/>
<polygon fill="white" stroke="white" points="4344.06,-360.17 4353.99,-356.48 4343.92,-353.17 4344.06,-360.17"/>
</g>
<!-- _Core3d__Core3dPostProcessing&#45;&gt;_Core3d__Core3dTonemapping -->
<g id="edge58" class="edge">
<title>_Core3d__Core3dPostProcessing:e&#45;&gt;_Core3d__Core3dTonemapping:w</title>
<path fill="none" stroke="white" d="M5570.25,-336.45C5608.01,-336.45 5618.46,-352.73 5650.89,-355.91"/>
<polygon fill="white" stroke="white" points="5650.58,-359.4 5660.74,-356.38 5650.91,-352.41 5650.58,-359.4"/>
</g>
<!-- _Core3d__Core3dEarlyPrepass -->
<g id="node39" class="node">
<title>_Core3d__Core3dEarlyPrepass</title>
<text text-anchor="start" x="105.5" y="-367.15" font-family="Helvetica,sans-Serif" font-size="14.00" fill="white">EarlyPrepass</text>
<text text-anchor="start" x="55.62" y="-356.95" font-family="Helvetica,sans-Serif" font-size="10.00" fill="red">ViewNodeRunner&lt;EarlyPrepassNode&gt;</text>
<path fill="none" stroke="white" d="M61.96,-350.45C61.96,-350.45 238.29,-350.45 238.29,-350.45 243.96,-350.45 249.62,-356.11 249.62,-361.78 249.62,-361.78 249.62,-373.11 249.62,-373.11 249.62,-378.78 243.96,-384.45 238.29,-384.45 238.29,-384.45 61.96,-384.45 61.96,-384.45 56.29,-384.45 50.62,-378.78 50.62,-373.11 50.62,-373.11 50.62,-361.78 50.62,-361.78 50.62,-356.11 56.29,-350.45 61.96,-350.45"/>
</g>
<!-- _Core3d__Core3dEarlyPrepass&#45;&gt;_Core3d__Core3dEarlyDeferredPrepass -->
<g id="edge45" class="edge">
<title>_Core3d__Core3dEarlyPrepass:e&#45;&gt;_Core3d__Core3dEarlyDeferredPrepass:w</title>
<path fill="none" stroke="white" d="M247.62,-367.45C296.33,-367.45 311.29,-367.45 354.86,-367.45"/>
<polygon fill="white" stroke="white" points="354.74,-370.95 364.74,-367.45 354.74,-363.95 354.74,-370.95"/>
</g>
<!-- _Core3d__Core3dLatePrepass&#45;&gt;_Core3d__Core3dLateDeferredPrepass -->
<g id="edge46" class="edge">
<title>_Core3d__Core3dLatePrepass:e&#45;&gt;_Core3d__Core3dLateDeferredPrepass:w</title>
<path fill="none" stroke="white" d="M1271,-399.45C1320.17,-399.45 1335.27,-399.45 1379.25,-399.45"/>
<polygon fill="white" stroke="white" points="1379.24,-402.95 1389.24,-399.45 1379.24,-395.95 1379.24,-402.95"/>
</g>
<!-- _Core3d__Core3dSmaa -->
<g id="node41" class="node">
<title>_Core3d__Core3dSmaa</title>
<text text-anchor="start" x="6011.88" y="-381.15" font-family="Helvetica,sans-Serif" font-size="14.00" fill="white">Smaa</text>
<text text-anchor="start" x="5954.5" y="-370.95" font-family="Helvetica,sans-Serif" font-size="10.00" fill="red">ViewNodeRunner&lt;SmaaNode&gt;</text>
<path fill="none" stroke="white" d="M5960.83,-364.45C5960.83,-364.45 6101.92,-364.45 6101.92,-364.45 6107.58,-364.45 6113.25,-370.11 6113.25,-375.78 6113.25,-375.78 6113.25,-387.11 6113.25,-387.11 6113.25,-392.78 6107.58,-398.45 6101.92,-398.45 6101.92,-398.45 5960.83,-398.45 5960.83,-398.45 5955.17,-398.45 5949.5,-392.78 5949.5,-387.11 5949.5,-387.11 5949.5,-375.78 5949.5,-375.78 5949.5,-370.11 5955.17,-364.45 5960.83,-364.45"/>
</g>
<!-- _Core3d__Core3dSmaa&#45;&gt;_Core3d__Core3dEndMainPassPostProcessing -->
<g id="edge32" class="edge">
<title>_Core3d__Core3dSmaa:e&#45;&gt;_Core3d__Core3dEndMainPassPostProcessing:w</title>
<path fill="none" stroke="white" d="M6111.25,-381.45C6248.32,-381.45 6282.83,-381.98 6419.5,-371.45 6451.96,-368.95 6462.46,-363.02 6490.02,-361.71"/>
<polygon fill="white" stroke="white" points="6490.07,-365.21 6499.99,-361.48 6489.91,-358.21 6490.07,-365.21"/>
</g>
<!-- _Core3d__Core3dTonemapping&#45;&gt;_Core3d__Core3dContrastAdaptiveSharpening -->
<g id="edge22" class="edge">
<title>_Core3d__Core3dTonemapping:e&#45;&gt;_Core3d__Core3dContrastAdaptiveSharpening:w</title>
<path fill="none" stroke="white" d="M5859.5,-356.45C5896.01,-356.45 5905.03,-353.25 5941.5,-351.45 6053.91,-345.87 6084.81,-341.73 6191.94,-341.46"/>
<polygon fill="white" stroke="white" points="6191.74,-344.96 6201.74,-341.45 6191.73,-337.96 6191.74,-344.96"/>
</g>
<!-- _Core3d__Core3dTonemapping&#45;&gt;_Core3d__Core3dEndMainPassPostProcessing -->
<g id="edge29" class="edge">
<title>_Core3d__Core3dTonemapping:e&#45;&gt;_Core3d__Core3dEndMainPassPostProcessing:w</title>
<path fill="none" stroke="white" d="M5859.5,-356.45C5903.38,-356.45 5899.52,-398.67 5941.5,-411.45 6043.32,-442.43 6314.6,-399.43 6419.5,-381.45 6452.43,-375.8 6461.99,-364.35 6490.19,-361.91"/>
<polygon fill="white" stroke="white" points="6490.14,-365.41 6499.99,-361.51 6489.85,-358.42 6490.14,-365.41"/>
</g>
<!-- _Core3d__Core3dTonemapping&#45;&gt;_Core3d__Core3dFxaa -->
<g id="edge48" class="edge">
<title>_Core3d__Core3dTonemapping:e&#45;&gt;_Core3d__Core3dFxaa:w</title>
<path fill="none" stroke="white" d="M5859.5,-356.45C5903.7,-356.45 5905.13,-310.49 5941.98,-302.6"/>
<polygon fill="white" stroke="white" points="5942.27,-306.08 5951.87,-301.6 5941.57,-299.12 5942.27,-306.08"/>
</g>
<!-- _Core3d__Core3dTonemapping&#45;&gt;_Core3d__Core3dSmaa -->
<g id="edge54" class="edge">
<title>_Core3d__Core3dTonemapping:e&#45;&gt;_Core3d__Core3dSmaa:w</title>
<path fill="none" stroke="white" d="M5859.5,-356.45C5897.73,-356.45 5907.38,-376.8 5940.03,-380.78"/>
<polygon fill="white" stroke="white" points="5939.8,-384.27 5949.99,-381.36 5940.21,-377.28 5939.8,-384.27"/>
</g>
<!-- _Core3d__Core3dDeferredLightingPass&#45;&gt;_Core3d__Core3dMainOpaquePass -->
<g id="edge41" class="edge">
<title>_Core3d__Core3dDeferredLightingPass:e&#45;&gt;_Core3d__Core3dMainOpaquePass:w</title>
<path fill="none" stroke="white" d="M2982.75,-371.45C3021.98,-371.45 3030.11,-345.17 3063.51,-340.24"/>
<polygon fill="white" stroke="white" points="3063.51,-343.75 3073.24,-339.55 3063.02,-336.76 3063.51,-343.75"/>
</g>
<!-- _Core3d__Core3dScreenSpaceReflections -->
<g id="node45" class="node">
<title>_Core3d__Core3dScreenSpaceReflections</title>
<text text-anchor="start" x="67.62" y="-427.15" font-family="Helvetica,sans-Serif" font-size="14.00" fill="white">ScreenSpaceReflections</text>
<text text-anchor="start" x="29" y="-416.95" font-family="Helvetica,sans-Serif" font-size="10.00" fill="red">ViewNodeRunner&lt;ScreenSpaceReflectionsNode&gt;</text>
<path fill="none" stroke="white" d="M35.33,-410.45C35.33,-410.45 264.92,-410.45 264.92,-410.45 270.58,-410.45 276.25,-416.11 276.25,-421.78 276.25,-421.78 276.25,-433.11 276.25,-433.11 276.25,-438.78 270.58,-444.45 264.92,-444.45 264.92,-444.45 35.33,-444.45 35.33,-444.45 29.67,-444.45 24,-438.78 24,-433.11 24,-433.11 24,-421.78 24,-421.78 24,-416.11 29.67,-410.45 35.33,-410.45"/>
</g>
<!-- _Core3d__Core3dUiPass&#45;&gt;_Core3d__Core3dUpscaling -->
<g id="edge60" class="edge">
<title>_Core3d__Core3dUiPass:e&#45;&gt;_Core3d__Core3dUpscaling:w</title>
<path fill="none" stroke="white" d="M6948.25,-401.45C6986.01,-401.45 6996.46,-385.16 7028.89,-381.98"/>
<polygon fill="white" stroke="white" points="7028.91,-385.48 7038.74,-381.52 7028.58,-378.49 7028.91,-385.48"/>
</g>
<!-- _CameraDriverLabel -->
<g id="node47" class="node">
<title>_CameraDriverLabel</title>
<text text-anchor="start" x="83.38" y="-510.15" font-family="Helvetica,sans-Serif" font-size="14.00" fill="white">CameraDriverLabel</text>
<text text-anchor="start" x="103.25" y="-499.95" font-family="Helvetica,sans-Serif" font-size="10.00" fill="red">CameraDriverNode</text>
<path fill="none" stroke="white" d="M89.71,-493.45C89.71,-493.45 210.54,-493.45 210.54,-493.45 216.21,-493.45 221.88,-499.11 221.88,-504.78 221.88,-504.78 221.88,-516.11 221.88,-516.11 221.88,-521.78 216.21,-527.45 210.54,-527.45 210.54,-527.45 89.71,-527.45 89.71,-527.45 84.04,-527.45 78.38,-521.78 78.38,-516.11 78.38,-516.11 78.38,-504.78 78.38,-504.78 78.38,-499.11 84.04,-493.45 89.71,-493.45"/>
</g>
</g>
</svg>
