<?xml version="1.0" encoding="UTF-8" standalone="no"?>
<!DOCTYPE svg PUBLIC "-//W3C//DTD SVG 1.1//EN"
 "http://www.w3.org/Graphics/SVG/1.1/DTD/svg11.dtd">
<!-- Generated by graphviz version 12.0.0 (0)
 -->
<!-- Title: RenderGraph Pages: 1 -->
<svg width="4915pt" height="451pt"
 viewBox="0.00 0.00 4915.00 451.00" xmlns="http://www.w3.org/2000/svg" xmlns:xlink="http://www.w3.org/1999/xlink">
<g id="graph0" class="graph" transform="scale(1 1) rotate(0) translate(4 447)">
<title>RenderGraph</title>
<polygon fill="#0d1117" stroke="none" points="-4,4 -4,-447 4911,-447 4911,4 -4,4"/>
<g id="clust1" class="cluster">
<title>cluster_Core2d</title>
<path fill="#343a42" stroke="#343a42" d="M49.25,-8C49.25,-8 2792.62,-8 2792.62,-8 2798.62,-8 2804.62,-14 2804.62,-20 2804.62,-20 2804.62,-170 2804.62,-170 2804.62,-176 2798.62,-182 2792.62,-182 2792.62,-182 49.25,-182 49.25,-182 43.25,-182 37.25,-176 37.25,-170 37.25,-170 37.25,-20 37.25,-20 37.25,-14 43.25,-8 49.25,-8"/>
<text text-anchor="middle" x="1420.94" y="-164.7" font-family="Times,serif" font-size="14.00" fill="white">Core2d</text>
</g>
<g id="clust2" class="cluster">
<title>cluster_Core2d_SubGraphUi</title>
<path fill="#6f90ad" stroke="#6f90ad" d="M71.88,-16C71.88,-16 152.38,-16 152.38,-16 158.38,-16 164.38,-22 164.38,-28 164.38,-28 164.38,-87 164.38,-87 164.38,-93 158.38,-99 152.38,-99 152.38,-99 71.88,-99 71.88,-99 65.88,-99 59.88,-93 59.88,-87 59.88,-87 59.88,-28 59.88,-28 59.88,-22 65.88,-16 71.88,-16"/>
<text text-anchor="middle" x="112.12" y="-81.7" font-family="Times,serif" font-size="14.00">SubGraphUi</text>
</g>
<g id="clust3" class="cluster">
<title>cluster_Core3d</title>
<path fill="#343a42" stroke="#343a42" d="M20,-190C20,-190 4887,-190 4887,-190 4893,-190 4899,-196 4899,-202 4899,-202 4899,-381 4899,-381 4899,-387 4893,-393 4887,-393 4887,-393 20,-393 20,-393 14,-393 8,-387 8,-381 8,-381 8,-202 8,-202 8,-196 14,-190 20,-190"/>
<text text-anchor="middle" x="2453.5" y="-375.7" font-family="Times,serif" font-size="14.00" fill="white">Core3d</text>
</g>
<g id="clust4" class="cluster">
<title>cluster_Core3d_SubGraphUi</title>
<path fill="#6f90ad" stroke="#6f90ad" d="M71.88,-213C71.88,-213 152.38,-213 152.38,-213 158.38,-213 164.38,-219 164.38,-225 164.38,-225 164.38,-284 164.38,-284 164.38,-290 158.38,-296 152.38,-296 152.38,-296 71.88,-296 71.88,-296 65.88,-296 59.88,-290 59.88,-284 59.88,-284 59.88,-225 59.88,-225 59.88,-219 65.88,-213 71.88,-213"/>
<text text-anchor="middle" x="112.12" y="-278.7" font-family="Times,serif" font-size="14.00">SubGraphUi</text>
</g>
<!-- _Core2d_SubGraphUi__Core2d_SubGraphUiUiPass -->
<g id="node1" class="node">
<title>_Core2d_SubGraphUi__Core2d_SubGraphUiUiPass</title>
<text text-anchor="start" x="89.12" y="-44.7" font-family="Helvetica,sans-Serif" font-size="14.00" fill="white">UiPass</text>
<text text-anchor="start" x="82.75" y="-34.5" font-family="Helvetica,sans-Serif" font-size="10.00" fill="red">UiPassNode</text>
<path fill="none" stroke="white" d="M88.58,-28C88.58,-28 134.67,-28 134.67,-28 140.33,-28 146,-33.67 146,-39.33 146,-39.33 146,-50.67 146,-50.67 146,-56.33 140.33,-62 134.67,-62 134.67,-62 88.58,-62 88.58,-62 82.92,-62 77.25,-56.33 77.25,-50.67 77.25,-50.67 77.25,-39.33 77.25,-39.33 77.25,-33.67 82.92,-28 88.58,-28"/>
</g>
<!-- _Core2d__Core2dConstrastAdaptiveSharpening -->
<g id="node2" class="node">
<title>_Core2d__Core2dConstrastAdaptiveSharpening</title>
<text text-anchor="start" x="1558.75" y="-127.7" font-family="Helvetica,sans-Serif" font-size="14.00" fill="white">ConstrastAdaptiveSharpening</text>
<text text-anchor="start" x="1640.12" y="-117.5" font-family="Helvetica,sans-Serif" font-size="10.00" fill="red">CASNode</text>
<path fill="none" stroke="white" d="M1564.58,-111C1564.58,-111 1760.67,-111 1760.67,-111 1766.33,-111 1772,-116.67 1772,-122.33 1772,-122.33 1772,-133.67 1772,-133.67 1772,-139.33 1766.33,-145 1760.67,-145 1760.67,-145 1564.58,-145 1564.58,-145 1558.92,-145 1553.25,-139.33 1553.25,-133.67 1553.25,-133.67 1553.25,-122.33 1553.25,-122.33 1553.25,-116.67 1558.92,-111 1564.58,-111"/>
</g>
<!-- _Core2d__Core2dEndMainPassPostProcessing -->
<g id="node5" class="node">
<title>_Core2d__Core2dEndMainPassPostProcessing</title>
<text text-anchor="start" x="1922.5" y="-87.7" font-family="Helvetica,sans-Serif" font-size="14.00" fill="white">EndMainPassPostProcessing</text>
<text text-anchor="start" x="1991.12" y="-77.5" font-family="Helvetica,sans-Serif" font-size="10.00" fill="red">EmptyNode</text>
<path fill="none" stroke="white" d="M1928.33,-71C1928.33,-71 2110.92,-71 2110.92,-71 2116.58,-71 2122.25,-76.67 2122.25,-82.33 2122.25,-82.33 2122.25,-93.67 2122.25,-93.67 2122.25,-99.33 2116.58,-105 2110.92,-105 2110.92,-105 1928.33,-105 1928.33,-105 1922.67,-105 1917,-99.33 1917,-93.67 1917,-93.67 1917,-82.33 1917,-82.33 1917,-76.67 1922.67,-71 1928.33,-71"/>
</g>
<!-- _Core2d__Core2dConstrastAdaptiveSharpening&#45;&gt;_Core2d__Core2dEndMainPassPostProcessing -->
<g id="edge6" class="edge">
<title>_Core2d__Core2dConstrastAdaptiveSharpening:e&#45;&gt;_Core2d__Core2dEndMainPassPostProcessing:w</title>
<path fill="none" stroke="white" d="M1770,-128C1834.55,-128 1848.85,-92.55 1907.51,-88.4"/>
<polygon fill="white" stroke="white" points="1907.61,-91.89 1917.49,-88.05 1907.37,-84.9 1907.61,-91.89"/>
</g>
<!-- _Core2d__Core2dMainPass -->
<g id="node3" class="node">
<title>_Core2d__Core2dMainPass</title>
<text text-anchor="start" x="382.75" y="-112.7" font-family="Helvetica,sans-Serif" font-size="14.00" fill="white">MainPass</text>
<text text-anchor="start" x="373" y="-102.5" font-family="Helvetica,sans-Serif" font-size="10.00" fill="red">MainPass2dNode</text>
<path fill="none" stroke="white" d="M378.83,-96C378.83,-96 450.42,-96 450.42,-96 456.08,-96 461.75,-101.67 461.75,-107.33 461.75,-107.33 461.75,-118.67 461.75,-118.67 461.75,-124.33 456.08,-130 450.42,-130 450.42,-130 378.83,-130 378.83,-130 373.17,-130 367.5,-124.33 367.5,-118.67 367.5,-118.67 367.5,-107.33 367.5,-107.33 367.5,-101.67 373.17,-96 378.83,-96"/>
</g>
<!-- _Core2d__Core2dUiPass -->
<g id="node6" class="node">
<title>_Core2d__Core2dUiPass</title>
<text text-anchor="start" x="2330.5" y="-47.7" font-family="Helvetica,sans-Serif" font-size="14.00" fill="white">UiPass</text>
<text text-anchor="start" x="2297.5" y="-37.5" font-family="Helvetica,sans-Serif" font-size="10.00" fill="red">RunGraphOnViewNode</text>
<path fill="none" stroke="white" d="M2303.33,-31C2303.33,-31 2402.67,-31 2402.67,-31 2408.33,-31 2414,-36.67 2414,-42.33 2414,-42.33 2414,-53.67 2414,-53.67 2414,-59.33 2408.33,-65 2402.67,-65 2402.67,-65 2303.33,-65 2303.33,-65 2297.67,-65 2292,-59.33 2292,-53.67 2292,-53.67 2292,-42.33 2292,-42.33 2292,-36.67 2297.67,-31 2303.33,-31"/>
</g>
<!-- _Core2d__Core2dMainPass&#45;&gt;_Core2d__Core2dUiPass -->
<g id="edge7" class="edge">
<title>_Core2d__Core2dMainPass:e&#45;&gt;_Core2d__Core2dUiPass:w</title>
<path fill="none" stroke="white" d="M459.75,-113C534.58,-113 548.09,-79.74 622,-68 819.11,-36.68 871.04,-48 1070.62,-48 1070.62,-48 1070.62,-48 1663.62,-48 1939.96,-48 2011.88,-48 2282.63,-48"/>
<polygon fill="white" stroke="white" points="2282.49,-51.5 2292.49,-48 2282.49,-44.5 2282.49,-51.5"/>
</g>
<!-- _Core2d__Core2dBloom -->
<g id="node7" class="node">
<title>_Core2d__Core2dBloom</title>
<text text-anchor="start" x="734.5" y="-97.7" font-family="Helvetica,sans-Serif" font-size="14.00" fill="white">Bloom</text>
<text text-anchor="start" x="677.5" y="-87.5" font-family="Helvetica,sans-Serif" font-size="10.00" fill="red">ViewNodeRunner&lt;BloomNode&gt;</text>
<path fill="none" stroke="white" d="M683.33,-81C683.33,-81 829.17,-81 829.17,-81 834.83,-81 840.5,-86.67 840.5,-92.33 840.5,-92.33 840.5,-103.67 840.5,-103.67 840.5,-109.33 834.83,-115 829.17,-115 829.17,-115 683.33,-115 683.33,-115 677.67,-115 672,-109.33 672,-103.67 672,-103.67 672,-92.33 672,-92.33 672,-86.67 677.67,-81 683.33,-81"/>
</g>
<!-- _Core2d__Core2dMainPass&#45;&gt;_Core2d__Core2dBloom -->
<g id="edge9" class="edge">
<title>_Core2d__Core2dMainPass:e&#45;&gt;_Core2d__Core2dBloom:w</title>
<path fill="none" stroke="white" d="M459.75,-113C551.29,-113 576.51,-99.21 662.61,-98.07"/>
<polygon fill="white" stroke="white" points="662.51,-101.57 672.49,-98.01 662.46,-94.57 662.51,-101.57"/>
</g>
<!-- _Core2d__Core2dTonemapping -->
<g id="node9" class="node">
<title>_Core2d__Core2dTonemapping</title>
<text text-anchor="start" x="1025.12" y="-107.7" font-family="Helvetica,sans-Serif" font-size="14.00" fill="white">Tonemapping</text>
<text text-anchor="start" x="976" y="-97.5" font-family="Helvetica,sans-Serif" font-size="10.00" fill="red">ViewNodeRunner&lt;TonemappingNode&gt;</text>
<path fill="none" stroke="white" d="M981.83,-91C981.83,-91 1161.42,-91 1161.42,-91 1167.08,-91 1172.75,-96.67 1172.75,-102.33 1172.75,-102.33 1172.75,-113.67 1172.75,-113.67 1172.75,-119.33 1167.08,-125 1161.42,-125 1161.42,-125 981.83,-125 981.83,-125 976.17,-125 970.5,-119.33 970.5,-113.67 970.5,-113.67 970.5,-102.33 970.5,-102.33 970.5,-96.67 976.17,-91 981.83,-91"/>
</g>
<!-- _Core2d__Core2dMainPass&#45;&gt;_Core2d__Core2dTonemapping -->
<g id="edge11" class="edge">
<title>_Core2d__Core2dMainPass:e&#45;&gt;_Core2d__Core2dTonemapping:w</title>
<path fill="none" stroke="white" d="M459.75,-113C532.17,-113 549.66,-124.66 622,-128 741.21,-133.5 772.02,-142.24 890.5,-128 923.67,-124.01 933.04,-111.26 961.2,-108.52"/>
<polygon fill="white" stroke="white" points="961.16,-112.03 970.99,-108.07 960.84,-105.04 961.16,-112.03"/>
</g>
<!-- _Core2d__Core2dMsaaWriteback -->
<g id="node4" class="node">
<title>_Core2d__Core2dMsaaWriteback</title>
<text text-anchor="start" x="58.75" y="-127.7" font-family="Helvetica,sans-Serif" font-size="14.00" fill="white">MsaaWriteback</text>
<text text-anchor="start" x="61" y="-117.5" font-family="Helvetica,sans-Serif" font-size="10.00" fill="red">MsaaWritebackNode</text>
<path fill="none" stroke="white" d="M64.58,-111C64.58,-111 158.67,-111 158.67,-111 164.33,-111 170,-116.67 170,-122.33 170,-122.33 170,-133.67 170,-133.67 170,-139.33 164.33,-145 158.67,-145 158.67,-145 64.58,-145 64.58,-145 58.92,-145 53.25,-139.33 53.25,-133.67 53.25,-133.67 53.25,-122.33 53.25,-122.33 53.25,-116.67 58.92,-111 64.58,-111"/>
</g>
<!-- _Core2d__Core2dMsaaWriteback&#45;&gt;_Core2d__Core2dMainPass -->
<g id="edge3" class="edge">
<title>_Core2d__Core2dMsaaWriteback:e&#45;&gt;_Core2d__Core2dMainPass:w</title>
<path fill="none" stroke="white" d="M168,-128C253.94,-128 277.69,-114.26 358.29,-113.08"/>
<polygon fill="white" stroke="white" points="358.01,-116.58 367.99,-113.01 357.96,-109.58 358.01,-116.58"/>
</g>
<!-- _Core2d__Core2dEndMainPassPostProcessing&#45;&gt;_Core2d__Core2dUiPass -->
<g id="edge8" class="edge">
<title>_Core2d__Core2dEndMainPassPostProcessing:e&#45;&gt;_Core2d__Core2dUiPass:w</title>
<path fill="none" stroke="white" d="M2120.25,-88C2195.62,-88 2213.11,-51.81 2282.83,-48.28"/>
<polygon fill="white" stroke="white" points="2282.58,-51.78 2292.49,-48.04 2282.4,-44.79 2282.58,-51.78"/>
</g>
<!-- _Core2d__Core2dUpscaling -->
<g id="node10" class="node">
<title>_Core2d__Core2dUpscaling</title>
<text text-anchor="start" x="2662" y="-67.7" font-family="Helvetica,sans-Serif" font-size="14.00" fill="white">Upscaling</text>
<text text-anchor="start" x="2609.12" y="-57.5" font-family="Helvetica,sans-Serif" font-size="10.00" fill="red">ViewNodeRunner&lt;UpscalingNode&gt;</text>
<path fill="none" stroke="white" d="M2614.96,-51C2614.96,-51 2777.29,-51 2777.29,-51 2782.96,-51 2788.62,-56.67 2788.62,-62.33 2788.62,-62.33 2788.62,-73.67 2788.62,-73.67 2788.62,-79.33 2782.96,-85 2777.29,-85 2777.29,-85 2614.96,-85 2614.96,-85 2609.29,-85 2603.62,-79.33 2603.62,-73.67 2603.62,-73.67 2603.62,-62.33 2603.62,-62.33 2603.62,-56.67 2609.29,-51 2614.96,-51"/>
</g>
<!-- _Core2d__Core2dEndMainPassPostProcessing&#45;&gt;_Core2d__Core2dUpscaling -->
<g id="edge13" class="edge">
<title>_Core2d__Core2dEndMainPassPostProcessing:e&#45;&gt;_Core2d__Core2dUpscaling:w</title>
<path fill="none" stroke="white" d="M2120.25,-88C2284.75,-88 2326.01,-87.33 2490.25,-78 2537.62,-75.31 2551.96,-69.08 2594.24,-68.12"/>
<polygon fill="white" stroke="white" points="2594.15,-71.63 2604.11,-68.02 2594.07,-64.63 2594.15,-71.63"/>
</g>
<!-- _Core2d__Core2dUiPass&#45;&gt;_Core2d__Core2dUpscaling -->
<g id="edge14" class="edge">
<title>_Core2d__Core2dUiPass:e&#45;&gt;_Core2d__Core2dUpscaling:w</title>
<path fill="none" stroke="white" d="M2412,-48C2494.63,-48 2517.13,-66.24 2594.35,-67.88"/>
<polygon fill="white" stroke="white" points="2594.08,-71.38 2604.11,-67.98 2594.15,-64.38 2594.08,-71.38"/>
</g>
<!-- _Core2d__Core2dBloom&#45;&gt;_Core2d__Core2dTonemapping -->
<g id="edge12" class="edge">
<title>_Core2d__Core2dBloom:e&#45;&gt;_Core2d__Core2dTonemapping:w</title>
<path fill="none" stroke="white" d="M838.5,-98C894.26,-98 910.65,-106.72 961.17,-107.87"/>
<polygon fill="white" stroke="white" points="960.95,-111.37 970.99,-107.98 961.03,-104.37 960.95,-111.37"/>
</g>
<!-- _Core2d__Core2dFxaa -->
<g id="node8" class="node">
<title>_Core2d__Core2dFxaa</title>
<text text-anchor="start" x="1324.75" y="-107.7" font-family="Helvetica,sans-Serif" font-size="14.00" fill="white">Fxaa</text>
<text text-anchor="start" x="1266.25" y="-97.5" font-family="Helvetica,sans-Serif" font-size="10.00" fill="red">ViewNodeRunner&lt;FxaaNode&gt;</text>
<path fill="none" stroke="white" d="M1272.08,-91C1272.08,-91 1410.42,-91 1410.42,-91 1416.08,-91 1421.75,-96.67 1421.75,-102.33 1421.75,-102.33 1421.75,-113.67 1421.75,-113.67 1421.75,-119.33 1416.08,-125 1410.42,-125 1410.42,-125 1272.08,-125 1272.08,-125 1266.42,-125 1260.75,-119.33 1260.75,-113.67 1260.75,-113.67 1260.75,-102.33 1260.75,-102.33 1260.75,-96.67 1266.42,-91 1272.08,-91"/>
</g>
<!-- _Core2d__Core2dFxaa&#45;&gt;_Core2d__Core2dConstrastAdaptiveSharpening -->
<g id="edge2" class="edge">
<title>_Core2d__Core2dFxaa:e&#45;&gt;_Core2d__Core2dConstrastAdaptiveSharpening:w</title>
<path fill="none" stroke="white" d="M1419.75,-108C1476.7,-108 1492.41,-125.5 1544.04,-127.76"/>
<polygon fill="white" stroke="white" points="1543.66,-131.25 1553.74,-127.97 1543.81,-124.26 1543.66,-131.25"/>
</g>
<!-- _Core2d__Core2dFxaa&#45;&gt;_Core2d__Core2dEndMainPassPostProcessing -->
<g id="edge5" class="edge">
<title>_Core2d__Core2dFxaa:e&#45;&gt;_Core2d__Core2dEndMainPassPostProcessing:w</title>
<path fill="none" stroke="white" d="M1419.75,-108C1456.46,-108 1465.13,-100.67 1501.75,-98 1682.87,-84.82 1731.48,-87.86 1907.5,-88"/>
<polygon fill="white" stroke="white" points="1907.49,-91.5 1917.49,-88 1907.49,-84.5 1907.49,-91.5"/>
</g>
<!-- _Core2d__Core2dTonemapping&#45;&gt;_Core2d__Core2dConstrastAdaptiveSharpening -->
<g id="edge1" class="edge">
<title>_Core2d__Core2dTonemapping:e&#45;&gt;_Core2d__Core2dConstrastAdaptiveSharpening:w</title>
<path fill="none" stroke="white" d="M1170.75,-108C1209.56,-108 1214.54,-131.23 1252.75,-138 1381.45,-160.8 1418.64,-129.85 1544.05,-128.08"/>
<polygon fill="white" stroke="white" points="1543.76,-131.58 1553.74,-128.01 1543.71,-124.58 1543.76,-131.58"/>
</g>
<!-- _Core2d__Core2dTonemapping&#45;&gt;_Core2d__Core2dEndMainPassPostProcessing -->
<g id="edge4" class="edge">
<title>_Core2d__Core2dTonemapping:e&#45;&gt;_Core2d__Core2dEndMainPassPostProcessing:w</title>
<path fill="none" stroke="white" d="M1170.75,-108C1209.56,-108 1214.54,-84.77 1252.75,-78 1330.21,-64.28 1351.08,-77.5 1429.75,-78 1604.76,-79.11 1648.58,-77.31 1823.5,-83 1862,-84.25 1874.24,-87.34 1907.84,-87.91"/>
<polygon fill="white" stroke="white" points="1907.46,-91.41 1917.49,-87.99 1907.52,-84.41 1907.46,-91.41"/>
</g>
<!-- _Core2d__Core2dTonemapping&#45;&gt;_Core2d__Core2dFxaa -->
<g id="edge10" class="edge">
<title>_Core2d__Core2dTonemapping:e&#45;&gt;_Core2d__Core2dFxaa:w</title>
<path fill="none" stroke="white" d="M1170.75,-108C1207.65,-108 1219.57,-108 1251.59,-108"/>
<polygon fill="white" stroke="white" points="1251.24,-111.5 1261.24,-108 1251.24,-104.5 1251.24,-111.5"/>
</g>
<!-- _Core3d_SubGraphUi__Core3d_SubGraphUiUiPass -->
<g id="node11" class="node">
<title>_Core3d_SubGraphUi__Core3d_SubGraphUiUiPass</title>
<text text-anchor="start" x="89.12" y="-241.7" font-family="Helvetica,sans-Serif" font-size="14.00" fill="white">UiPass</text>
<text text-anchor="start" x="82.75" y="-231.5" font-family="Helvetica,sans-Serif" font-size="10.00" fill="red">UiPassNode</text>
<path fill="none" stroke="white" d="M88.58,-225C88.58,-225 134.67,-225 134.67,-225 140.33,-225 146,-230.67 146,-236.33 146,-236.33 146,-247.67 146,-247.67 146,-253.33 140.33,-259 134.67,-259 134.67,-259 88.58,-259 88.58,-259 82.92,-259 77.25,-253.33 77.25,-247.67 77.25,-247.67 77.25,-236.33 77.25,-236.33 77.25,-230.67 82.92,-225 88.58,-225"/>
</g>
<!-- _Core3d__Core3dContrastAdaptiveSharpening -->
<g id="node12" class="node">
<title>_Core3d__Core3dContrastAdaptiveSharpening</title>
<text text-anchor="start" x="3901" y="-298.7" font-family="Helvetica,sans-Serif" font-size="14.00" fill="white">ContrastAdaptiveSharpening</text>
<text text-anchor="start" x="3978.62" y="-288.5" font-family="Helvetica,sans-Serif" font-size="10.00" fill="red">CASNode</text>
<path fill="none" stroke="white" d="M3906.83,-282C3906.83,-282 4095.42,-282 4095.42,-282 4101.08,-282 4106.75,-287.67 4106.75,-293.33 4106.75,-293.33 4106.75,-304.67 4106.75,-304.67 4106.75,-310.33 4101.08,-316 4095.42,-316 4095.42,-316 3906.83,-316 3906.83,-316 3901.17,-316 3895.5,-310.33 3895.5,-304.67 3895.5,-304.67 3895.5,-293.33 3895.5,-293.33 3895.5,-287.67 3901.17,-282 3906.83,-282"/>
</g>
<!-- _Core3d__Core3dEndMainPassPostProcessing -->
<g id="node16" class="node">
<title>_Core3d__Core3dEndMainPassPostProcessing</title>
<text text-anchor="start" x="4200.25" y="-258.7" font-family="Helvetica,sans-Serif" font-size="14.00" fill="white">EndMainPassPostProcessing</text>
<text text-anchor="start" x="4268.88" y="-248.5" font-family="Helvetica,sans-Serif" font-size="10.00" fill="red">EmptyNode</text>
<path fill="none" stroke="white" d="M4206.08,-242C4206.08,-242 4388.67,-242 4388.67,-242 4394.33,-242 4400,-247.67 4400,-253.33 4400,-253.33 4400,-264.67 4400,-264.67 4400,-270.33 4394.33,-276 4388.67,-276 4388.67,-276 4206.08,-276 4206.08,-276 4200.42,-276 4194.75,-270.33 4194.75,-264.67 4194.75,-264.67 4194.75,-253.33 4194.75,-253.33 4194.75,-247.67 4200.42,-242 4206.08,-242"/>
</g>
<!-- _Core3d__Core3dContrastAdaptiveSharpening&#45;&gt;_Core3d__Core3dEndMainPassPostProcessing -->
<g id="edge20" class="edge">
<title>_Core3d__Core3dContrastAdaptiveSharpening:e&#45;&gt;_Core3d__Core3dEndMainPassPostProcessing:w</title>
<path fill="none" stroke="white" d="M4104.75,-299C4145.33,-299 4151.32,-265.86 4185.68,-259.91"/>
<polygon fill="white" stroke="white" points="4185.56,-263.43 4195.24,-259.12 4184.99,-256.46 4185.56,-263.43"/>
</g>
<!-- _Core3d__Core3dMsaaWriteback -->
<g id="node13" class="node">
<title>_Core3d__Core3dMsaaWriteback</title>
<text text-anchor="start" x="1018.75" y="-218.7" font-family="Helvetica,sans-Serif" font-size="14.00" fill="white">MsaaWriteback</text>
<text text-anchor="start" x="1021" y="-208.5" font-family="Helvetica,sans-Serif" font-size="10.00" fill="red">MsaaWritebackNode</text>
<path fill="none" stroke="white" d="M1024.58,-202C1024.58,-202 1118.67,-202 1118.67,-202 1124.33,-202 1130,-207.67 1130,-213.33 1130,-213.33 1130,-224.67 1130,-224.67 1130,-230.33 1124.33,-236 1118.67,-236 1118.67,-236 1024.58,-236 1024.58,-236 1018.92,-236 1013.25,-230.33 1013.25,-224.67 1013.25,-224.67 1013.25,-213.33 1013.25,-213.33 1013.25,-207.67 1018.92,-202 1024.58,-202"/>
</g>
<!-- _Core3d__Core3dStartMainPass -->
<g id="node18" class="node">
<title>_Core3d__Core3dStartMainPass</title>
<text text-anchor="start" x="1292.5" y="-278.7" font-family="Helvetica,sans-Serif" font-size="14.00" fill="white">StartMainPass</text>
<text text-anchor="start" x="1312.75" y="-268.5" font-family="Helvetica,sans-Serif" font-size="10.00" fill="red">EmptyNode</text>
<path fill="none" stroke="white" d="M1298.33,-262C1298.33,-262 1384.17,-262 1384.17,-262 1389.83,-262 1395.5,-267.67 1395.5,-273.33 1395.5,-273.33 1395.5,-284.67 1395.5,-284.67 1395.5,-290.33 1389.83,-296 1384.17,-296 1384.17,-296 1298.33,-296 1298.33,-296 1292.67,-296 1287,-290.33 1287,-284.67 1287,-284.67 1287,-273.33 1287,-273.33 1287,-267.67 1292.67,-262 1298.33,-262"/>
</g>
<!-- _Core3d__Core3dMsaaWriteback&#45;&gt;_Core3d__Core3dStartMainPass -->
<g id="edge23" class="edge">
<title>_Core3d__Core3dMsaaWriteback:e&#45;&gt;_Core3d__Core3dStartMainPass:w</title>
<path fill="none" stroke="white" d="M1128,-219C1200.49,-219 1211.62,-273.06 1277.88,-278.55"/>
<polygon fill="white" stroke="white" points="1277.35,-282.03 1287.49,-278.94 1277.64,-275.04 1277.35,-282.03"/>
</g>
<!-- _Core3d__Core3dShadowPass -->
<g id="node14" class="node">
<title>_Core3d__Core3dShadowPass</title>
<text text-anchor="start" x="1028.88" y="-278.7" font-family="Helvetica,sans-Serif" font-size="14.00" fill="white">ShadowPass</text>
<text text-anchor="start" x="1028.88" y="-268.5" font-family="Helvetica,sans-Serif" font-size="10.00" fill="red">ShadowPassNode</text>
<path fill="none" stroke="white" d="M1034.71,-262C1034.71,-262 1108.54,-262 1108.54,-262 1114.21,-262 1119.88,-267.67 1119.88,-273.33 1119.88,-273.33 1119.88,-284.67 1119.88,-284.67 1119.88,-290.33 1114.21,-296 1108.54,-296 1108.54,-296 1034.71,-296 1034.71,-296 1029.04,-296 1023.38,-290.33 1023.38,-284.67 1023.38,-284.67 1023.38,-273.33 1023.38,-273.33 1023.38,-267.67 1029.04,-262 1034.71,-262"/>
</g>
<!-- _Core3d__Core3dShadowPass&#45;&gt;_Core3d__Core3dStartMainPass -->
<g id="edge24" class="edge">
<title>_Core3d__Core3dShadowPass:e&#45;&gt;_Core3d__Core3dStartMainPass:w</title>
<path fill="none" stroke="white" d="M1117.88,-279C1190.07,-279 1210.87,-279 1277.84,-279"/>
<polygon fill="white" stroke="white" points="1277.49,-282.5 1287.49,-279 1277.49,-275.5 1277.49,-282.5"/>
</g>
<!-- _Core3d__Core3dEndMainPass -->
<g id="node15" class="node">
<title>_Core3d__Core3dEndMainPass</title>
<text text-anchor="start" x="2915.5" y="-258.7" font-family="Helvetica,sans-Serif" font-size="14.00" fill="white">EndMainPass</text>
<text text-anchor="start" x="2932.38" y="-248.5" font-family="Helvetica,sans-Serif" font-size="10.00" fill="red">EmptyNode</text>
<path fill="none" stroke="white" d="M2921.33,-242C2921.33,-242 3000.42,-242 3000.42,-242 3006.08,-242 3011.75,-247.67 3011.75,-253.33 3011.75,-253.33 3011.75,-264.67 3011.75,-264.67 3011.75,-270.33 3006.08,-276 3000.42,-276 3000.42,-276 2921.33,-276 2921.33,-276 2915.67,-276 2910,-270.33 2910,-264.67 2910,-264.67 2910,-253.33 2910,-253.33 2910,-247.67 2915.67,-242 2921.33,-242"/>
</g>
<!-- _Core3d__Core3dUiPass -->
<g id="node19" class="node">
<title>_Core3d__Core3dUiPass</title>
<text text-anchor="start" x="4526.5" y="-218.7" font-family="Helvetica,sans-Serif" font-size="14.00" fill="white">UiPass</text>
<text text-anchor="start" x="4493.5" y="-208.5" font-family="Helvetica,sans-Serif" font-size="10.00" fill="red">RunGraphOnViewNode</text>
<path fill="none" stroke="white" d="M4499.33,-202C4499.33,-202 4598.67,-202 4598.67,-202 4604.33,-202 4610,-207.67 4610,-213.33 4610,-213.33 4610,-224.67 4610,-224.67 4610,-230.33 4604.33,-236 4598.67,-236 4598.67,-236 4499.33,-236 4499.33,-236 4493.67,-236 4488,-230.33 4488,-224.67 4488,-224.67 4488,-213.33 4488,-213.33 4488,-207.67 4493.67,-202 4499.33,-202"/>
</g>
<!-- _Core3d__Core3dEndMainPass&#45;&gt;_Core3d__Core3dUiPass -->
<g id="edge25" class="edge">
<title>_Core3d__Core3dEndMainPass:e&#45;&gt;_Core3d__Core3dUiPass:w</title>
<path fill="none" stroke="white" d="M3009.75,-259C3048.56,-259 3053.63,-236.29 3091.75,-229 3250.98,-198.53 3294.26,-219 3456.38,-219 3456.38,-219 3456.38,-219 4002.12,-219 4215.15,-219 4271.21,-219 4478.71,-219"/>
<polygon fill="white" stroke="white" points="4478.49,-222.5 4488.49,-219 4478.49,-215.5 4478.49,-222.5"/>
</g>
<!-- _Core3d__Core3dBloom -->
<g id="node20" class="node">
<title>_Core3d__Core3dBloom</title>
<text text-anchor="start" x="3162.25" y="-258.7" font-family="Helvetica,sans-Serif" font-size="14.00" fill="white">Bloom</text>
<text text-anchor="start" x="3105.25" y="-248.5" font-family="Helvetica,sans-Serif" font-size="10.00" fill="red">ViewNodeRunner&lt;BloomNode&gt;</text>
<path fill="none" stroke="white" d="M3111.08,-242C3111.08,-242 3256.92,-242 3256.92,-242 3262.58,-242 3268.25,-247.67 3268.25,-253.33 3268.25,-253.33 3268.25,-264.67 3268.25,-264.67 3268.25,-270.33 3262.58,-276 3256.92,-276 3256.92,-276 3111.08,-276 3111.08,-276 3105.42,-276 3099.75,-270.33 3099.75,-264.67 3099.75,-264.67 3099.75,-253.33 3099.75,-253.33 3099.75,-247.67 3105.42,-242 3111.08,-242"/>
</g>
<!-- _Core3d__Core3dEndMainPass&#45;&gt;_Core3d__Core3dBloom -->
<g id="edge27" class="edge">
<title>_Core3d__Core3dEndMainPass:e&#45;&gt;_Core3d__Core3dBloom:w</title>
<path fill="none" stroke="white" d="M3009.75,-259C3046.65,-259 3058.57,-259 3090.59,-259"/>
<polygon fill="white" stroke="white" points="3090.24,-262.5 3100.24,-259 3090.24,-255.5 3090.24,-262.5"/>
</g>
<!-- _Core3d__Core3dTonemapping -->
<g id="node28" class="node">
<title>_Core3d__Core3dTonemapping</title>
<text text-anchor="start" x="3410.88" y="-278.7" font-family="Helvetica,sans-Serif" font-size="14.00" fill="white">Tonemapping</text>
<text text-anchor="start" x="3361.75" y="-268.5" font-family="Helvetica,sans-Serif" font-size="10.00" fill="red">ViewNodeRunner&lt;TonemappingNode&gt;</text>
<path fill="none" stroke="white" d="M3367.58,-262C3367.58,-262 3547.17,-262 3547.17,-262 3552.83,-262 3558.5,-267.67 3558.5,-273.33 3558.5,-273.33 3558.5,-284.67 3558.5,-284.67 3558.5,-290.33 3552.83,-296 3547.17,-296 3547.17,-296 3367.58,-296 3367.58,-296 3361.92,-296 3356.25,-290.33 3356.25,-284.67 3356.25,-284.67 3356.25,-273.33 3356.25,-273.33 3356.25,-267.67 3361.92,-262 3367.58,-262"/>
</g>
<!-- _Core3d__Core3dEndMainPass&#45;&gt;_Core3d__Core3dTonemapping -->
<g id="edge35" class="edge">
<title>_Core3d__Core3dEndMainPass:e&#45;&gt;_Core3d__Core3dTonemapping:w</title>
<path fill="none" stroke="white" d="M3009.75,-259C3048.56,-259 3053.54,-282.23 3091.75,-289 3172.49,-303.31 3194.4,-293.97 3276.25,-289 3308.75,-287.03 3319.22,-280.69 3346.77,-279.28"/>
<polygon fill="white" stroke="white" points="3346.83,-282.78 3356.74,-279.04 3346.65,-275.78 3346.83,-282.78"/>
</g>
<!-- _Core3d__Core3dEndMainPassPostProcessing&#45;&gt;_Core3d__Core3dUiPass -->
<g id="edge26" class="edge">
<title>_Core3d__Core3dEndMainPassPostProcessing:e&#45;&gt;_Core3d__Core3dUiPass:w</title>
<path fill="none" stroke="white" d="M4398,-259C4438.58,-259 4444.57,-225.86 4478.93,-219.91"/>
<polygon fill="white" stroke="white" points="4478.81,-223.43 4488.49,-219.12 4478.24,-216.46 4478.81,-223.43"/>
</g>
<!-- _Core3d__Core3dUpscaling -->
<g id="node29" class="node">
<title>_Core3d__Core3dUpscaling</title>
<text text-anchor="start" x="4756.38" y="-238.7" font-family="Helvetica,sans-Serif" font-size="14.00" fill="white">Upscaling</text>
<text text-anchor="start" x="4703.5" y="-228.5" font-family="Helvetica,sans-Serif" font-size="10.00" fill="red">ViewNodeRunner&lt;UpscalingNode&gt;</text>
<path fill="none" stroke="white" d="M4709.33,-222C4709.33,-222 4871.67,-222 4871.67,-222 4877.33,-222 4883,-227.67 4883,-233.33 4883,-233.33 4883,-244.67 4883,-244.67 4883,-250.33 4877.33,-256 4871.67,-256 4871.67,-256 4709.33,-256 4709.33,-256 4703.67,-256 4698,-250.33 4698,-244.67 4698,-244.67 4698,-233.33 4698,-233.33 4698,-227.67 4703.67,-222 4709.33,-222"/>
</g>
<!-- _Core3d__Core3dEndMainPassPostProcessing&#45;&gt;_Core3d__Core3dUpscaling -->
<g id="edge37" class="edge">
<title>_Core3d__Core3dEndMainPassPostProcessing:e&#45;&gt;_Core3d__Core3dUpscaling:w</title>
<path fill="none" stroke="white" d="M4398,-259C4495.88,-259 4520.46,-257.15 4618,-249 4650.44,-246.29 4660.96,-240.52 4688.52,-239.25"/>
<polygon fill="white" stroke="white" points="4688.57,-242.75 4698.49,-239.03 4688.41,-235.75 4688.57,-242.75"/>
</g>
<!-- _Core3d__Core3dEndPrepasses -->
<g id="node17" class="node">
<title>_Core3d__Core3dEndPrepasses</title>
<text text-anchor="start" x="1023.25" y="-338.7" font-family="Helvetica,sans-Serif" font-size="14.00" fill="white">EndPrepasses</text>
<text text-anchor="start" x="1043.12" y="-328.5" font-family="Helvetica,sans-Serif" font-size="10.00" fill="red">EmptyNode</text>
<path fill="none" stroke="white" d="M1029.08,-322C1029.08,-322 1114.17,-322 1114.17,-322 1119.83,-322 1125.5,-327.67 1125.5,-333.33 1125.5,-333.33 1125.5,-344.67 1125.5,-344.67 1125.5,-350.33 1119.83,-356 1114.17,-356 1114.17,-356 1029.08,-356 1029.08,-356 1023.42,-356 1017.75,-350.33 1017.75,-344.67 1017.75,-344.67 1017.75,-333.33 1017.75,-333.33 1017.75,-327.67 1023.42,-322 1029.08,-322"/>
</g>
<!-- _Core3d__Core3dEndPrepasses&#45;&gt;_Core3d__Core3dStartMainPass -->
<g id="edge22" class="edge">
<title>_Core3d__Core3dEndPrepasses:e&#45;&gt;_Core3d__Core3dStartMainPass:w</title>
<path fill="none" stroke="white" d="M1123.5,-339C1197.77,-339 1209.67,-284.94 1277.6,-279.45"/>
<polygon fill="white" stroke="white" points="1277.63,-282.95 1287.49,-279.06 1277.36,-275.96 1277.63,-282.95"/>
</g>
<!-- _Core3d__Core3dMainOpaquePass -->
<g id="node21" class="node">
<title>_Core3d__Core3dMainOpaquePass</title>
<text text-anchor="start" x="1960.38" y="-258.7" font-family="Helvetica,sans-Serif" font-size="14.00" fill="white">MainOpaquePass</text>
<text text-anchor="start" x="1909" y="-248.5" font-family="Helvetica,sans-Serif" font-size="10.00" fill="red">ViewNodeRunner&lt;MainOpaquePass3dNode&gt;</text>
<path fill="none" stroke="white" d="M1914.83,-242C1914.83,-242 2124.42,-242 2124.42,-242 2130.08,-242 2135.75,-247.67 2135.75,-253.33 2135.75,-253.33 2135.75,-264.67 2135.75,-264.67 2135.75,-270.33 2130.08,-276 2124.42,-276 2124.42,-276 1914.83,-276 1914.83,-276 1909.17,-276 1903.5,-270.33 1903.5,-264.67 1903.5,-264.67 1903.5,-253.33 1903.5,-253.33 1903.5,-247.67 1909.17,-242 1914.83,-242"/>
</g>
<!-- _Core3d__Core3dStartMainPass&#45;&gt;_Core3d__Core3dMainOpaquePass -->
<g id="edge28" class="edge">
<title>_Core3d__Core3dStartMainPass:e&#45;&gt;_Core3d__Core3dMainOpaquePass:w</title>
<path fill="none" stroke="white" d="M1393.5,-279C1442.43,-279 1453.03,-263.46 1501.75,-259 1676.61,-242.98 1724.03,-258.31 1894.12,-258.98"/>
<polygon fill="white" stroke="white" points="1893.98,-262.48 1903.99,-259 1893.99,-255.48 1893.98,-262.48"/>
</g>
<!-- _Core3d__Core3dDeferredLightingPass -->
<g id="node30" class="node">
<title>_Core3d__Core3dDeferredLightingPass</title>
<text text-anchor="start" x="1589.12" y="-288.7" font-family="Helvetica,sans-Serif" font-size="14.00" fill="white">DeferredLightingPass</text>
<text text-anchor="start" x="1515.25" y="-278.5" font-family="Helvetica,sans-Serif" font-size="10.00" fill="red">ViewNodeRunner&lt;DeferredOpaquePass3dPbrLightingNode&gt;</text>
<path fill="none" stroke="white" d="M1521.08,-272C1521.08,-272 1804.17,-272 1804.17,-272 1809.83,-272 1815.5,-277.67 1815.5,-283.33 1815.5,-283.33 1815.5,-294.67 1815.5,-294.67 1815.5,-300.33 1809.83,-306 1804.17,-306 1804.17,-306 1521.08,-306 1521.08,-306 1515.42,-306 1509.75,-300.33 1509.75,-294.67 1509.75,-294.67 1509.75,-283.33 1509.75,-283.33 1509.75,-277.67 1515.42,-272 1521.08,-272"/>
</g>
<!-- _Core3d__Core3dStartMainPass&#45;&gt;_Core3d__Core3dDeferredLightingPass -->
<g id="edge39" class="edge">
<title>_Core3d__Core3dStartMainPass:e&#45;&gt;_Core3d__Core3dDeferredLightingPass:w</title>
<path fill="none" stroke="white" d="M1393.5,-279C1442.23,-279 1456.83,-287.53 1500.36,-288.83"/>
<polygon fill="white" stroke="white" points="1500.19,-292.33 1510.24,-288.98 1500.29,-285.33 1500.19,-292.33"/>
</g>
<!-- _Core3d__Core3dUiPass&#45;&gt;_Core3d__Core3dUpscaling -->
<g id="edge38" class="edge">
<title>_Core3d__Core3dUiPass:e&#45;&gt;_Core3d__Core3dUpscaling:w</title>
<path fill="none" stroke="white" d="M4608,-219C4645.76,-219 4656.21,-235.28 4688.64,-238.47"/>
<polygon fill="white" stroke="white" points="4688.33,-241.95 4698.49,-238.93 4688.66,-234.96 4688.33,-241.95"/>
</g>
<!-- _Core3d__Core3dBloom&#45;&gt;_Core3d__Core3dTonemapping -->
<g id="edge36" class="edge">
<title>_Core3d__Core3dBloom:e&#45;&gt;_Core3d__Core3dTonemapping:w</title>
<path fill="none" stroke="white" d="M3266.25,-259C3304.01,-259 3314.46,-275.28 3346.89,-278.47"/>
<polygon fill="white" stroke="white" points="3346.58,-281.95 3356.74,-278.93 3346.91,-274.96 3346.58,-281.95"/>
</g>
<!-- _Core3d__Core3dMainTransmissivePass -->
<g id="node22" class="node">
<title>_Core3d__Core3dMainTransmissivePass</title>
<text text-anchor="start" x="2276.12" y="-258.7" font-family="Helvetica,sans-Serif" font-size="14.00" fill="white">MainTransmissivePass</text>
<text text-anchor="start" x="2229.25" y="-248.5" font-family="Helvetica,sans-Serif" font-size="10.00" fill="red">ViewNodeRunner&lt;MainTransmissivePass3dNode&gt;</text>
<path fill="none" stroke="white" d="M2235.08,-242C2235.08,-242 2470.92,-242 2470.92,-242 2476.58,-242 2482.25,-247.67 2482.25,-253.33 2482.25,-253.33 2482.25,-264.67 2482.25,-264.67 2482.25,-270.33 2476.58,-276 2470.92,-276 2470.92,-276 2235.08,-276 2235.08,-276 2229.42,-276 2223.75,-270.33 2223.75,-264.67 2223.75,-264.67 2223.75,-253.33 2223.75,-253.33 2223.75,-247.67 2229.42,-242 2235.08,-242"/>
</g>
<!-- _Core3d__Core3dMainOpaquePass&#45;&gt;_Core3d__Core3dMainTransmissivePass -->
<g id="edge30" class="edge">
<title>_Core3d__Core3dMainOpaquePass:e&#45;&gt;_Core3d__Core3dMainTransmissivePass:w</title>
<path fill="none" stroke="white" d="M2133.75,-259C2170.65,-259 2182.57,-259 2214.59,-259"/>
<polygon fill="white" stroke="white" points="2214.24,-262.5 2224.24,-259 2214.24,-255.5 2214.24,-262.5"/>
</g>
<!-- _Core3d__Core3dMainTransparentPass -->
<g id="node23" class="node">
<title>_Core3d__Core3dMainTransparentPass</title>
<text text-anchor="start" x="2623" y="-258.7" font-family="Helvetica,sans-Serif" font-size="14.00" fill="white">MainTransparentPass</text>
<text text-anchor="start" x="2575.75" y="-248.5" font-family="Helvetica,sans-Serif" font-size="10.00" fill="red">ViewNodeRunner&lt;MainTransparentPass3dNode&gt;</text>
<path fill="none" stroke="white" d="M2581.58,-242C2581.58,-242 2810.67,-242 2810.67,-242 2816.33,-242 2822,-247.67 2822,-253.33 2822,-253.33 2822,-264.67 2822,-264.67 2822,-270.33 2816.33,-276 2810.67,-276 2810.67,-276 2581.58,-276 2581.58,-276 2575.92,-276 2570.25,-270.33 2570.25,-264.67 2570.25,-264.67 2570.25,-253.33 2570.25,-253.33 2570.25,-247.67 2575.92,-242 2581.58,-242"/>
</g>
<!-- _Core3d__Core3dMainTransmissivePass&#45;&gt;_Core3d__Core3dMainTransparentPass -->
<g id="edge31" class="edge">
<title>_Core3d__Core3dMainTransmissivePass:e&#45;&gt;_Core3d__Core3dMainTransparentPass:w</title>
<path fill="none" stroke="white" d="M2480.25,-259C2517.15,-259 2529.07,-259 2561.09,-259"/>
<polygon fill="white" stroke="white" points="2560.74,-262.5 2570.74,-259 2560.74,-255.5 2560.74,-262.5"/>
</g>
<!-- _Core3d__Core3dMainTransparentPass&#45;&gt;_Core3d__Core3dEndMainPass -->
<g id="edge17" class="edge">
<title>_Core3d__Core3dMainTransparentPass:e&#45;&gt;_Core3d__Core3dEndMainPass:w</title>
<path fill="none" stroke="white" d="M2820,-259C2856.9,-259 2868.82,-259 2900.84,-259"/>
<polygon fill="white" stroke="white" points="2900.49,-262.5 2910.49,-259 2900.49,-255.5 2900.49,-262.5"/>
</g>
<!-- _Core3d__Core3dCopyDeferredLightingId -->
<g id="node24" class="node">
<title>_Core3d__Core3dCopyDeferredLightingId</title>
<text text-anchor="start" x="673.75" y="-338.7" font-family="Helvetica,sans-Serif" font-size="14.00" fill="white">CopyDeferredLightingId</text>
<text text-anchor="start" x="635.5" y="-328.5" font-family="Helvetica,sans-Serif" font-size="10.00" fill="red">ViewNodeRunner&lt;CopyDeferredLightingIdNode&gt;</text>
<path fill="none" stroke="white" d="M641.33,-322C641.33,-322 871.17,-322 871.17,-322 876.83,-322 882.5,-327.67 882.5,-333.33 882.5,-333.33 882.5,-344.67 882.5,-344.67 882.5,-350.33 876.83,-356 871.17,-356 871.17,-356 641.33,-356 641.33,-356 635.67,-356 630,-350.33 630,-344.67 630,-344.67 630,-333.33 630,-333.33 630,-327.67 635.67,-322 641.33,-322"/>
</g>
<!-- _Core3d__Core3dCopyDeferredLightingId&#45;&gt;_Core3d__Core3dEndPrepasses -->
<g id="edge21" class="edge">
<title>_Core3d__Core3dCopyDeferredLightingId:e&#45;&gt;_Core3d__Core3dEndPrepasses:w</title>
<path fill="none" stroke="white" d="M880.5,-339C938.4,-339 955.67,-339 1008.34,-339"/>
<polygon fill="white" stroke="white" points="1008.24,-342.5 1018.24,-339 1008.24,-335.5 1008.24,-342.5"/>
</g>
<!-- _Core3d__Core3dDeferredPrepass -->
<g id="node25" class="node">
<title>_Core3d__Core3dDeferredPrepass</title>
<text text-anchor="start" x="357.62" y="-338.7" font-family="Helvetica,sans-Serif" font-size="14.00" fill="white">DeferredPrepass</text>
<text text-anchor="start" x="292.75" y="-328.5" font-family="Helvetica,sans-Serif" font-size="10.00" fill="red">ViewNodeRunner&lt;DeferredGBufferPrepassNode&gt;</text>
<path fill="none" stroke="white" d="M298.58,-322C298.58,-322 530.67,-322 530.67,-322 536.33,-322 542,-327.67 542,-333.33 542,-333.33 542,-344.67 542,-344.67 542,-350.33 536.33,-356 530.67,-356 530.67,-356 298.58,-356 298.58,-356 292.92,-356 287.25,-350.33 287.25,-344.67 287.25,-344.67 287.25,-333.33 287.25,-333.33 287.25,-327.67 292.92,-322 298.58,-322"/>
</g>
<!-- _Core3d__Core3dDeferredPrepass&#45;&gt;_Core3d__Core3dCopyDeferredLightingId -->
<g id="edge32" class="edge">
<title>_Core3d__Core3dDeferredPrepass:e&#45;&gt;_Core3d__Core3dCopyDeferredLightingId:w</title>
<path fill="none" stroke="white" d="M540,-339C576.9,-339 588.82,-339 620.84,-339"/>
<polygon fill="white" stroke="white" points="620.49,-342.5 630.49,-339 620.49,-335.5 620.49,-342.5"/>
</g>
<!-- _Core3d__Core3dFxaa -->
<g id="node26" class="node">
<title>_Core3d__Core3dFxaa</title>
<text text-anchor="start" x="3710.5" y="-278.7" font-family="Helvetica,sans-Serif" font-size="14.00" fill="white">Fxaa</text>
<text text-anchor="start" x="3652" y="-268.5" font-family="Helvetica,sans-Serif" font-size="10.00" fill="red">ViewNodeRunner&lt;FxaaNode&gt;</text>
<path fill="none" stroke="white" d="M3657.83,-262C3657.83,-262 3796.17,-262 3796.17,-262 3801.83,-262 3807.5,-267.67 3807.5,-273.33 3807.5,-273.33 3807.5,-284.67 3807.5,-284.67 3807.5,-290.33 3801.83,-296 3796.17,-296 3796.17,-296 3657.83,-296 3657.83,-296 3652.17,-296 3646.5,-290.33 3646.5,-284.67 3646.5,-284.67 3646.5,-273.33 3646.5,-273.33 3646.5,-267.67 3652.17,-262 3657.83,-262"/>
</g>
<!-- _Core3d__Core3dFxaa&#45;&gt;_Core3d__Core3dContrastAdaptiveSharpening -->
<g id="edge16" class="edge">
<title>_Core3d__Core3dFxaa:e&#45;&gt;_Core3d__Core3dContrastAdaptiveSharpening:w</title>
<path fill="none" stroke="white" d="M3805.5,-279C3843.26,-279 3853.71,-295.28 3886.14,-298.47"/>
<polygon fill="white" stroke="white" points="3885.83,-301.95 3895.99,-298.93 3886.16,-294.96 3885.83,-301.95"/>
</g>
<!-- _Core3d__Core3dFxaa&#45;&gt;_Core3d__Core3dEndMainPassPostProcessing -->
<g id="edge19" class="edge">
<title>_Core3d__Core3dFxaa:e&#45;&gt;_Core3d__Core3dEndMainPassPostProcessing:w</title>
<path fill="none" stroke="white" d="M3805.5,-279C3842.21,-279 3850.89,-271.82 3887.5,-269 4020.73,-258.74 4057.19,-258.98 4185.31,-259"/>
<polygon fill="white" stroke="white" points="4185.24,-262.5 4195.24,-259 4185.24,-255.5 4185.24,-262.5"/>
</g>
<!-- _Core3d__Core3dPrepass -->
<g id="node27" class="node">
<title>_Core3d__Core3dPrepass</title>
<text text-anchor="start" x="84.62" y="-338.7" font-family="Helvetica,sans-Serif" font-size="14.00" fill="white">Prepass</text>
<text text-anchor="start" x="29.5" y="-328.5" font-family="Helvetica,sans-Serif" font-size="10.00" fill="red">ViewNodeRunner&lt;PrepassNode&gt;</text>
<path fill="none" stroke="white" d="M35.33,-322C35.33,-322 187.92,-322 187.92,-322 193.58,-322 199.25,-327.67 199.25,-333.33 199.25,-333.33 199.25,-344.67 199.25,-344.67 199.25,-350.33 193.58,-356 187.92,-356 187.92,-356 35.33,-356 35.33,-356 29.67,-356 24,-350.33 24,-344.67 24,-344.67 24,-333.33 24,-333.33 24,-327.67 29.67,-322 35.33,-322"/>
</g>
<!-- _Core3d__Core3dPrepass&#45;&gt;_Core3d__Core3dDeferredPrepass -->
<g id="edge33" class="edge">
<title>_Core3d__Core3dPrepass:e&#45;&gt;_Core3d__Core3dDeferredPrepass:w</title>
<path fill="none" stroke="white" d="M197.25,-339C234.15,-339 246.07,-339 278.09,-339"/>
<polygon fill="white" stroke="white" points="277.74,-342.5 287.74,-339 277.74,-335.5 277.74,-342.5"/>
</g>
<!-- _Core3d__Core3dTonemapping&#45;&gt;_Core3d__Core3dContrastAdaptiveSharpening -->
<g id="edge15" class="edge">
<title>_Core3d__Core3dTonemapping:e&#45;&gt;_Core3d__Core3dContrastAdaptiveSharpening:w</title>
<path fill="none" stroke="white" d="M3556.5,-279C3595.31,-279 3600.29,-302.23 3638.5,-309 3715.96,-322.72 3736.98,-313.77 3815.5,-309 3848,-307.03 3858.47,-300.69 3886.02,-299.28"/>
<polygon fill="white" stroke="white" points="3886.08,-302.78 3895.99,-299.04 3885.9,-295.78 3886.08,-302.78"/>
</g>
<!-- _Core3d__Core3dTonemapping&#45;&gt;_Core3d__Core3dEndMainPassPostProcessing -->
<g id="edge18" class="edge">
<title>_Core3d__Core3dTonemapping:e&#45;&gt;_Core3d__Core3dEndMainPassPostProcessing:w</title>
<path fill="none" stroke="white" d="M3556.5,-279C3595.31,-279 3600.29,-255.77 3638.5,-249 3679.34,-241.76 4037.44,-252.34 4114.75,-255 4147.09,-256.11 4157.86,-258.4 4185.33,-258.9"/>
<polygon fill="white" stroke="white" points="4185.21,-262.4 4195.24,-258.99 4185.27,-255.4 4185.21,-262.4"/>
</g>
<!-- _Core3d__Core3dTonemapping&#45;&gt;_Core3d__Core3dFxaa -->
<g id="edge34" class="edge">
<title>_Core3d__Core3dTonemapping:e&#45;&gt;_Core3d__Core3dFxaa:w</title>
<path fill="none" stroke="white" d="M3556.5,-279C3593.4,-279 3605.32,-279 3637.34,-279"/>
<polygon fill="white" stroke="white" points="3636.99,-282.5 3646.99,-279 3636.99,-275.5 3636.99,-282.5"/>
</g>
<!-- _Core3d__Core3dDeferredLightingPass&#45;&gt;_Core3d__Core3dMainOpaquePass -->
<g id="edge29" class="edge">
<title>_Core3d__Core3dDeferredLightingPass:e&#45;&gt;_Core3d__Core3dMainOpaquePass:w</title>
<path fill="none" stroke="white" d="M1813.5,-289C1852.48,-289 1861.04,-264.36 1894.32,-259.74"/>
<polygon fill="white" stroke="white" points="1894.24,-263.25 1903.99,-259.1 1893.78,-256.27 1894.24,-263.25"/>
</g>
<!-- _CameraDriverLabel -->
<g id="node31" class="node">
<title>_CameraDriverLabel</title>
<text text-anchor="start" x="44.88" y="-421.7" font-family="Helvetica,sans-Serif" font-size="14.00" fill="white">CameraDriverLabel</text>
<text text-anchor="start" x="64.75" y="-411.5" font-family="Helvetica,sans-Serif" font-size="10.00" fill="red">CameraDriverNode</text>
<path fill="none" stroke="white" d="M50.71,-405C50.71,-405 172.54,-405 172.54,-405 178.21,-405 183.88,-410.67 183.88,-416.33 183.88,-416.33 183.88,-427.67 183.88,-427.67 183.88,-433.33 178.21,-439 172.54,-439 172.54,-439 50.71,-439 50.71,-439 45.04,-439 39.38,-433.33 39.38,-427.67 39.38,-427.67 39.38,-416.33 39.38,-416.33 39.38,-410.67 45.04,-405 50.71,-405"/>
</g>
</g>
</svg>
