<?xml version="1.0" encoding="UTF-8" standalone="no"?>
<!DOCTYPE svg PUBLIC "-//W3C//DTD SVG 1.1//EN"
 "http://www.w3.org/Graphics/SVG/1.1/DTD/svg11.dtd">
<!-- Generated by graphviz version 7.1.0 (0)
 -->
<!-- Pages: 1 -->
<svg width="1758pt" height="194pt"
 viewBox="0.00 0.00 1758.00 194.00" xmlns="http://www.w3.org/2000/svg" xmlns:xlink="http://www.w3.org/1999/xlink">
<g id="graph0" class="graph" transform="scale(1 1) rotate(0) translate(4 190)">
<polygon fill="white" stroke="none" points="-4,4 -4,-190 1754,-190 1754,4 -4,4"/>
<g id="clust1" class="cluster">
<title>clusternode_Set(0)</title>
<g id="a_clust1"><a xlink:title="Update">
<polygon fill="white" stroke="black" points="691,-104 691,-143 756,-143 756,-104 691,-104"/>
<text text-anchor="middle" x="723.5" y="-127.8" font-family="Helvetica,sans-Serif" font-size="14.00">Update</text>
</a>
</g>
</g>
<g id="clust2" class="cluster">
<title>clusternode_Set(2)</title>
<g id="a_clust2"><a xlink:title="FirstFlush">
<polygon fill="white" stroke="black" points="70,-127 70,-166 152,-166 152,-127 70,-127"/>
<text text-anchor="middle" x="111" y="-150.8" font-family="Helvetica,sans-Serif" font-size="14.00">FirstFlush</text>
</a>
</g>
</g>
<g id="clust3" class="cluster">
<title>clusternode_Set(3)</title>
<g id="a_clust3"><a xlink:title="PreUpdateFlush">
<polygon fill="white" stroke="black" points="284,-104 284,-143 407,-143 407,-104 284,-104"/>
<text text-anchor="middle" x="345.5" y="-127.8" font-family="Helvetica,sans-Serif" font-size="14.00">PreUpdateFlush</text>
</a>
</g>
</g>
<g id="clust4" class="cluster">
<title>clusternode_Set(4)</title>
<g id="a_clust4"><a xlink:title="UpdateFlush">
<polygon fill="white" stroke="black" points="776,-104 776,-143 877,-143 877,-104 776,-104"/>
<text text-anchor="middle" x="826.5" y="-127.8" font-family="Helvetica,sans-Serif" font-size="14.00">UpdateFlush</text>
</a>
</g>
</g>
<g id="clust5" class="cluster">
<title>clusternode_Set(5)</title>
<g id="a_clust5"><a xlink:title="PostUpdateFlush">
<polygon fill="white" stroke="black" points="1010,-139 1010,-178 1139,-178 1139,-139 1010,-139"/>
<text text-anchor="middle" x="1074.5" y="-162.8" font-family="Helvetica,sans-Serif" font-size="14.00">PostUpdateFlush</text>
</a>
</g>
</g>
<g id="clust6" class="cluster">
<title>clusternode_Set(6)</title>
<g id="a_clust6"><a xlink:title="LastFlush">
<polygon fill="white" stroke="black" points="1670,-116 1670,-155 1750,-155 1750,-116 1670,-116"/>
<text text-anchor="middle" x="1710" y="-139.8" font-family="Helvetica,sans-Serif" font-size="14.00">LastFlush</text>
</a>
</g>
</g>
<g id="clust7" class="cluster">
<title>clusternode_Set(7)</title>
<g id="a_clust7"><a xlink:title="First">
<polygon fill="white" stroke="black" points="0,-103 0,-142 46,-142 46,-103 0,-103"/>
<text text-anchor="middle" x="23" y="-126.8" font-family="Helvetica,sans-Serif" font-size="14.00">First</text>
</a>
</g>
</g>
<g id="clust8" class="cluster">
<title>clusternode_Set(8)</title>
<g id="a_clust8"><a xlink:title="PreUpdate">
<polygon fill="white" stroke="black" points="177,-104 177,-143 264,-143 264,-104 177,-104"/>
<text text-anchor="middle" x="220.5" y="-127.8" font-family="Helvetica,sans-Serif" font-size="14.00">PreUpdate</text>
</a>
</g>
</g>
<g id="clust9" class="cluster">
<title>clusternode_Set(9)</title>
<g id="a_clust9"><a xlink:title="StateTransitions">
<polygon fill="white" stroke="black" points="427,-104 427,-143 551,-143 551,-104 427,-104"/>
<text text-anchor="middle" x="489" y="-127.8" font-family="Helvetica,sans-Serif" font-size="14.00">StateTransitions</text>
</a>
</g>
</g>
<g id="clust10" class="cluster">
<title>clusternode_Set(10)</title>
<g id="a_clust10"><a xlink:title="FixedUpdate">
<polygon fill="white" stroke="black" points="571,-104 571,-143 671,-143 671,-104 571,-104"/>
<text text-anchor="middle" x="621" y="-127.8" font-family="Helvetica,sans-Serif" font-size="14.00">FixedUpdate</text>
</a>
</g>
</g>
<g id="clust11" class="cluster">
<title>clusternode_Set(11)</title>
<g id="a_clust11"><a xlink:title="PostUpdate">
<polygon fill="white" stroke="black" points="897,-104 897,-143 990,-143 990,-104 897,-104"/>
<text text-anchor="middle" x="943.5" y="-127.8" font-family="Helvetica,sans-Serif" font-size="14.00">PostUpdate</text>
</a>
</g>
</g>
<g id="clust12" class="cluster">
<title>clusternode_Set(12)</title>
<g id="a_clust12"><a xlink:title="Last">
<polygon fill="white" stroke="black" points="1159,-8 1159,-155 1650,-155 1650,-8 1159,-8"/>
<text text-anchor="middle" x="1404.5" y="-139.8" font-family="Helvetica,sans-Serif" font-size="14.00">Last</text>
</a>
</g>
</g>
<g id="clust13" class="cluster">
<title>clusternode_Set(58)</title>
<g id="a_clust13"><a xlink:title="LoadAssets">
<polygon fill="white" stroke="black" points="66,-80 66,-119 157,-119 157,-80 66,-80"/>
<text text-anchor="middle" x="111.5" y="-103.8" font-family="Helvetica,sans-Serif" font-size="14.00">LoadAssets</text>
</a>
</g>
</g>
<g id="clust14" class="cluster">
<title>clusternode_Set(59)</title>
<g id="a_clust14"><a xlink:title="AssetEvents">
<polygon fill="white" stroke="black" points="1026,-92 1026,-131 1122,-131 1122,-92 1026,-92"/>
<text text-anchor="middle" x="1074" y="-115.8" font-family="Helvetica,sans-Serif" font-size="14.00">AssetEvents</text>
</a>
</g>
</g>
<!-- set_marker_node_Set(0) -->
<!-- set_marker_node_Set(4) -->
<!-- set_marker_node_Set(0)&#45;&gt;set_marker_node_Set(4) -->
<g id="edge7" class="edge">
<title>set_marker_node_Set(0)&#45;&gt;set_marker_node_Set(4)</title>
<g id="a_edge7"><a xlink:title="Update → UpdateFlush">
<path fill="none" stroke="#ccd60d" stroke-width="2" d="M756,-112C758.35,-112 760.77,-112 763.22,-112"/>
<polygon fill="#ccd60d" stroke="#ccd60d" stroke-width="2" points="762.97,-115.5 772.97,-112 762.97,-108.5 762.97,-115.5"/>
</a>
</g>
</g>
<!-- set_marker_node_Set(2) -->
<!-- set_marker_node_Set(8) -->
<!-- set_marker_node_Set(2)&#45;&gt;set_marker_node_Set(8) -->
<g id="edge2" class="edge">
<title>set_marker_node_Set(2)&#45;&gt;set_marker_node_Set(8)</title>
<g id="a_edge2"><a xlink:title="FirstFlush → PreUpdate">
<path fill="none" stroke="#251dcc" stroke-width="2" d="M149.2,-127C154.17,-125.94 159.34,-124.82 164.52,-123.71"/>
<polygon fill="#251dcc" stroke="#251dcc" stroke-width="2" points="165,-127.19 174.04,-121.66 163.53,-120.34 165,-127.19"/>
</a>
</g>
</g>
<!-- set_marker_node_Set(3) -->
<!-- set_marker_node_Set(9) -->
<!-- set_marker_node_Set(3)&#45;&gt;set_marker_node_Set(9) -->
<g id="edge4" class="edge">
<title>set_marker_node_Set(3)&#45;&gt;set_marker_node_Set(9)</title>
<g id="a_edge4"><a xlink:title="PreUpdateFlush → StateTransitions">
<path fill="none" stroke="#1dcd59" stroke-width="2" d="M407,-112C409.39,-112 411.8,-112 414.21,-112"/>
<polygon fill="#1dcd59" stroke="#1dcd59" stroke-width="2" points="413.98,-115.5 423.98,-112 413.98,-108.5 413.98,-115.5"/>
</a>
</g>
</g>
<!-- set_marker_node_Set(11) -->
<!-- set_marker_node_Set(4)&#45;&gt;set_marker_node_Set(11) -->
<g id="edge8" class="edge">
<title>set_marker_node_Set(4)&#45;&gt;set_marker_node_Set(11)</title>
<g id="a_edge8"><a xlink:title="UpdateFlush → PostUpdate">
<path fill="none" stroke="#29e000" stroke-width="2" d="M877,-112C879.43,-112 881.88,-112 884.32,-112"/>
<polygon fill="#29e000" stroke="#29e000" stroke-width="2" points="883.98,-115.5 893.98,-112 883.98,-108.5 883.98,-115.5"/>
</a>
</g>
</g>
<!-- set_marker_node_Set(5) -->
<!-- set_marker_node_Set(12) -->
<!-- set_marker_node_Set(5)&#45;&gt;set_marker_node_Set(12) -->
<g id="edge10" class="edge">
<title>set_marker_node_Set(5)&#45;&gt;set_marker_node_Set(12)</title>
<g id="a_edge10"><a xlink:title="PostUpdateFlush → Last">
<path fill="none" stroke="#810ccd" stroke-width="2" d="M1139,-142.52C1141.33,-142.36 1143.71,-142.19 1146.12,-142.02"/>
<polygon fill="#810ccd" stroke="#810ccd" stroke-width="2" points="1146.25,-145.52 1155.98,-141.33 1145.76,-138.54 1146.25,-145.52"/>
</a>
</g>
</g>
<!-- set_marker_node_Set(6) -->
<!-- set_marker_node_Set(7) -->
<!-- set_marker_node_Set(7)&#45;&gt;set_marker_node_Set(2) -->
<g id="edge1" class="edge">
<title>set_marker_node_Set(7)&#45;&gt;set_marker_node_Set(2)</title>
<g id="a_edge1"><a xlink:title="First → FirstFlush">
<path fill="none" stroke="#c4cc1d" stroke-width="2" d="M46,-117.34C52.44,-119.18 59.5,-121.18 66,-123 66.73,-123.2 67.47,-123.41 68.21,-123.62"/>
<polygon fill="#c4cc1d" stroke="#c4cc1d" stroke-width="2" points="67,-126.91 77.57,-126.2 68.86,-120.17 67,-126.91"/>
</a>
</g>
</g>
<!-- set_marker_node_Set(58) -->
<!-- set_marker_node_Set(7)&#45;&gt;set_marker_node_Set(58) -->
<g id="edge13" class="edge">
<title>set_marker_node_Set(7)&#45;&gt;set_marker_node_Set(58)</title>
<g id="a_edge13"><a xlink:title="First → LoadAssets">
<path fill="none" stroke="#c4cc1d" stroke-width="2" d="M46,-105.12C48.46,-104.46 51.05,-103.77 53.71,-103.05"/>
<polygon fill="#c4cc1d" stroke="#c4cc1d" stroke-width="2" points="54.32,-106.51 63.08,-100.55 52.51,-99.75 54.32,-106.51"/>
</a>
</g>
</g>
<!-- set_marker_node_Set(8)&#45;&gt;set_marker_node_Set(3) -->
<g id="edge3" class="edge">
<title>set_marker_node_Set(8)&#45;&gt;set_marker_node_Set(3)</title>
<g id="a_edge3"><a xlink:title="PreUpdate → PreUpdateFlush">
<path fill="none" stroke="#cd1d91" stroke-width="2" d="M264,-112C266.39,-112 268.82,-112 271.28,-112"/>
<polygon fill="#cd1d91" stroke="#cd1d91" stroke-width="2" points="270.98,-115.5 280.98,-112 270.98,-108.5 270.98,-115.5"/>
</a>
</g>
</g>
<!-- set_marker_node_Set(10) -->
<!-- set_marker_node_Set(9)&#45;&gt;set_marker_node_Set(10) -->
<g id="edge5" class="edge">
<title>set_marker_node_Set(9)&#45;&gt;set_marker_node_Set(10)</title>
<g id="a_edge5"><a xlink:title="StateTransitions → FixedUpdate">
<path fill="none" stroke="#1dc4cc" stroke-width="2" d="M551,-112C553.39,-112 555.79,-112 558.19,-112"/>
<polygon fill="#1dc4cc" stroke="#1dc4cc" stroke-width="2" points="557.98,-115.5 567.98,-112 557.98,-108.5 557.98,-115.5"/>
</a>
</g>
</g>
<!-- set_marker_node_Set(10)&#45;&gt;set_marker_node_Set(0) -->
<g id="edge6" class="edge">
<title>set_marker_node_Set(10)&#45;&gt;set_marker_node_Set(0)</title>
<g id="a_edge6"><a xlink:title="FixedUpdate → Update">
<path fill="none" stroke="#cc251d" stroke-width="2" d="M671,-112C673.37,-112 675.75,-112 678.11,-112"/>
<polygon fill="#cc251d" stroke="#cc251d" stroke-width="2" points="677.98,-115.5 687.98,-112 677.98,-108.5 677.98,-115.5"/>
</a>
</g>
</g>
<!-- set_marker_node_Set(11)&#45;&gt;set_marker_node_Set(5) -->
<g id="edge9" class="edge">
<title>set_marker_node_Set(11)&#45;&gt;set_marker_node_Set(5)</title>
<g id="a_edge9"><a xlink:title="PostUpdate → PostUpdateFlush">
<path fill="none" stroke="#58cd0c" stroke-width="2" d="M990,-128.99C996.66,-131.17 1003.47,-133.25 1010,-135 1011.35,-135.36 1012.71,-135.72 1014.09,-136.06"/>
<polygon fill="#58cd0c" stroke="#58cd0c" stroke-width="2" points="1013.27,-139.47 1023.81,-138.32 1014.86,-132.65 1013.27,-139.47"/>
</a>
</g>
</g>
<!-- set_marker_node_Set(59) -->
<!-- set_marker_node_Set(11)&#45;&gt;set_marker_node_Set(59) -->
<g id="edge14" class="edge">
<title>set_marker_node_Set(11)&#45;&gt;set_marker_node_Set(59)</title>
<g id="a_edge14"><a xlink:title="PostUpdate → AssetEvents">
<path fill="none" stroke="#251dcc" stroke-width="2" d="M990,-107.72C997.5,-107.02 1005.36,-106.29 1013.14,-105.57"/>
<polygon fill="#251dcc" stroke="#251dcc" stroke-width="2" points="1013.36,-109.06 1022.99,-104.65 1012.71,-102.09 1013.36,-109.06"/>
</a>
</g>
</g>
<!-- set_marker_node_Set(12)&#45;&gt;set_marker_node_Set(6) -->
<g id="edge11" class="edge">
<title>set_marker_node_Set(12)&#45;&gt;set_marker_node_Set(6)</title>
<g id="a_edge11"><a xlink:title="Last → LastFlush">
<path fill="none" stroke="#cf410c" stroke-width="2" d="M1650,-124C1652.45,-124 1654.84,-124 1657.18,-124"/>
<polygon fill="#cf410c" stroke="#cf410c" stroke-width="2" points="1656.98,-127.5 1666.98,-124 1656.98,-120.5 1656.98,-127.5"/>
</a>
</g>
</g>
<!-- node_System(10) -->
<g id="node13" class="node">
<title>node_System(10)</title>
<g id="a_node13"><a xlink:title="bevy_hierarchy::valid_parent_check_plugin::check_hierarchy_component_has_valid_parent&lt;bevy_transform::components::global_transform::GlobalTransform&gt;">
<polygon fill="white" stroke="black" points="1635,-106 1174,-106 1174,-70 1635,-70 1635,-106"/>
<text text-anchor="middle" x="1404.5" y="-84.3" font-family="Times,serif" font-size="14.00">check_hierarchy_component_has_valid_parent&lt;GlobalTransform&gt;</text>
</a>
</g>
</g>
<!-- node_System(62) -->
<g id="node14" class="node">
<title>node_System(62)</title>
<g id="a_node14"><a xlink:title="bevy_hierarchy::valid_parent_check_plugin::check_hierarchy_component_has_valid_parent&lt;bevy_render::view::visibility::ComputedVisibility&gt;">
<polygon fill="white" stroke="black" points="1642,-52 1167,-52 1167,-16 1642,-16 1642,-52"/>
<text text-anchor="middle" x="1404.5" y="-30.3" font-family="Times,serif" font-size="14.00">check_hierarchy_component_has_valid_parent&lt;ComputedVisibility&gt;</text>
</a>
</g>
</g>
<!-- set_marker_node_Set(58)&#45;&gt;set_marker_node_Set(8) -->
<g id="edge12" class="edge">
<title>set_marker_node_Set(58)&#45;&gt;set_marker_node_Set(8)</title>
<g id="a_edge12"><a xlink:title="LoadAssets → PreUpdate">
<path fill="none" stroke="#0c9acf" stroke-width="2" d="M157,-98.09C161.6,-99.12 166.28,-100.18 170.91,-101.21"/>
<polygon fill="#0c9acf" stroke="#0c9acf" stroke-width="2" points="169.87,-104.57 180.39,-103.34 171.4,-97.74 169.87,-104.57"/>
</a>
</g>
</g>
<!-- set_marker_node_Set(59)&#45;&gt;set_marker_node_Set(12) -->
<g id="edge15" class="edge">
<title>set_marker_node_Set(59)&#45;&gt;set_marker_node_Set(12)</title>
<g id="a_edge15"><a xlink:title="AssetEvents → Last">
<path fill="none" stroke="#cd1d91" stroke-width="2" d="M1122,-109.59C1129.89,-110.98 1138.18,-112.32 1146.35,-113.44"/>
<polygon fill="#cd1d91" stroke="#cd1d91" stroke-width="2" points="1145.64,-116.88 1156,-114.63 1146.5,-109.94 1145.64,-116.88"/>
</a>
</g>
</g>
</g>
</svg>
