<?xml version="1.0" encoding="UTF-8" standalone="no"?>
<!DOCTYPE svg PUBLIC "-//W3C//DTD SVG 1.1//EN"
 "http://www.w3.org/Graphics/SVG/1.1/DTD/svg11.dtd">
<!-- Generated by graphviz version 7.0.6 (0)
 -->
<!-- Title: schedule Pages: 1 -->
<svg width="1397pt" height="194pt"
 viewBox="0.00 0.00 1397.00 194.00" xmlns="http://www.w3.org/2000/svg" xmlns:xlink="http://www.w3.org/1999/xlink">
<g id="graph0" class="graph" transform="scale(1 1) rotate(0) translate(4 190)">
<title>schedule</title>
<polygon fill="white" stroke="none" points="-4,4 -4,-190 1393,-190 1393,4 -4,4"/>
<g id="clust1" class="cluster">
<title>clusternode_Set(0)</title>
<polygon fill="white" stroke="black" points="687,-116 687,-155 752,-155 752,-116 687,-116"/>
<text text-anchor="middle" x="719.5" y="-139.8" font-family="Helvetica,sans-Serif" font-size="14.00">Update</text>
</g>
<g id="clust2" class="cluster">
<title>clusternode_Set(2)</title>
<polygon fill="white" stroke="black" points="70,-139 70,-178 152,-178 152,-139 70,-139"/>
<text text-anchor="middle" x="111" y="-162.8" font-family="Helvetica,sans-Serif" font-size="14.00">FirstFlush</text>
</g>
<g id="clust3" class="cluster">
<title>clusternode_Set(3)</title>
<polygon fill="white" stroke="black" points="283,-116 283,-155 405,-155 405,-116 283,-116"/>
<text text-anchor="middle" x="344" y="-139.8" font-family="Helvetica,sans-Serif" font-size="14.00">PreUpdateFlush</text>
</g>
<g id="clust4" class="cluster">
<title>clusternode_Set(4)</title>
<polygon fill="white" stroke="black" points="772,-116 772,-155 873,-155 873,-116 772,-116"/>
<text text-anchor="middle" x="822.5" y="-139.8" font-family="Helvetica,sans-Serif" font-size="14.00">UpdateFlush</text>
</g>
<g id="clust5" class="cluster">
<title>clusternode_Set(5)</title>
<polygon fill="white" stroke="black" points="1096,-127 1096,-166 1225,-166 1225,-127 1096,-127"/>
<text text-anchor="middle" x="1160.5" y="-150.8" font-family="Helvetica,sans-Serif" font-size="14.00">PostUpdateFlush</text>
</g>
<g id="clust6" class="cluster">
<title>clusternode_Set(6)</title>
<polygon fill="white" stroke="black" points="1309,-103 1309,-142 1389,-142 1389,-103 1309,-103"/>
<text text-anchor="middle" x="1349" y="-126.8" font-family="Helvetica,sans-Serif" font-size="14.00">LastFlush</text>
</g>
<g id="clust7" class="cluster">
<title>clusternode_Set(7)</title>
<polygon fill="white" stroke="black" points="0,-115 0,-154 46,-154 46,-115 0,-115"/>
<text text-anchor="middle" x="23" y="-138.8" font-family="Helvetica,sans-Serif" font-size="14.00">First</text>
</g>
<g id="clust8" class="cluster">
<title>clusternode_Set(8)</title>
<polygon fill="white" stroke="black" points="177,-116 177,-155 263,-155 263,-116 177,-116"/>
<text text-anchor="middle" x="220" y="-139.8" font-family="Helvetica,sans-Serif" font-size="14.00">PreUpdate</text>
</g>
<g id="clust9" class="cluster">
<title>clusternode_Set(9)</title>
<polygon fill="white" stroke="black" points="425,-116 425,-155 547,-155 547,-116 425,-116"/>
<text text-anchor="middle" x="486" y="-139.8" font-family="Helvetica,sans-Serif" font-size="14.00">StateTransitions</text>
</g>
<g id="clust10" class="cluster">
<title>clusternode_Set(10)</title>
<polygon fill="white" stroke="black" points="567,-116 567,-155 667,-155 667,-116 567,-116"/>
<text text-anchor="middle" x="617" y="-139.8" font-family="Helvetica,sans-Serif" font-size="14.00">FixedUpdate</text>
</g>
<g id="clust11" class="cluster">
<title>clusternode_Set(11)</title>
<polygon fill="white" stroke="black" points="893,-8 893,-155 1076,-155 1076,-8 893,-8"/>
<text text-anchor="middle" x="984.5" y="-139.8" font-family="Helvetica,sans-Serif" font-size="14.00">PostUpdate</text>
</g>
<g id="clust12" class="cluster">
<title>clusternode_Set(12)</title>
<polygon fill="white" stroke="black" points="1245,-103 1245,-142 1289,-142 1289,-103 1245,-103"/>
<text text-anchor="middle" x="1267" y="-126.8" font-family="Helvetica,sans-Serif" font-size="14.00">Last</text>
</g>
<g id="clust13" class="cluster">
<title>clusternode_Set(58)</title>
<polygon fill="white" stroke="black" points="66,-92 66,-131 157,-131 157,-92 66,-92"/>
<text text-anchor="middle" x="111.5" y="-115.8" font-family="Helvetica,sans-Serif" font-size="14.00">LoadAssets</text>
</g>
<g id="clust14" class="cluster">
<title>clusternode_Set(59)</title>
<polygon fill="white" stroke="black" points="1112,-80 1112,-119 1208,-119 1208,-80 1112,-80"/>
<text text-anchor="middle" x="1160" y="-103.8" font-family="Helvetica,sans-Serif" font-size="14.00">AssetEvents</text>
</g>
<!-- set_marker_node_Set(0) -->
<!-- set_marker_node_Set(4) -->
<!-- set_marker_node_Set(0)&#45;&gt;set_marker_node_Set(4) -->
<g id="edge7" class="edge">
<title>set_marker_node_Set(0)&#45;&gt;set_marker_node_Set(4)</title>
<path fill="none" stroke="black" d="M752,-124C754.81,-124 757.71,-124 760.65,-124"/>
<polygon fill="black" stroke="black" points="760.49,-127.5 770.49,-124 760.49,-120.5 760.49,-127.5"/>
</g>
<!-- set_marker_node_Set(2) -->
<!-- set_marker_node_Set(8) -->
<!-- set_marker_node_Set(2)&#45;&gt;set_marker_node_Set(8) -->
<g id="edge2" class="edge">
<title>set_marker_node_Set(2)&#45;&gt;set_marker_node_Set(8)</title>
<path fill="none" stroke="black" d="M149.21,-139C154.62,-137.84 160.27,-136.62 165.92,-135.41"/>
<polygon fill="black" stroke="black" points="166.48,-138.87 175.53,-133.35 165.01,-132.02 166.48,-138.87"/>
</g>
<!-- set_marker_node_Set(3) -->
<!-- set_marker_node_Set(9) -->
<!-- set_marker_node_Set(3)&#45;&gt;set_marker_node_Set(9) -->
<g id="edge4" class="edge">
<title>set_marker_node_Set(3)&#45;&gt;set_marker_node_Set(9)</title>
<path fill="none" stroke="black" d="M405,-124C407.88,-124 410.78,-124 413.68,-124"/>
<polygon fill="black" stroke="black" points="413.49,-127.5 423.49,-124 413.49,-120.5 413.49,-127.5"/>
</g>
<!-- set_marker_node_Set(11) -->
<!-- set_marker_node_Set(4)&#45;&gt;set_marker_node_Set(11) -->
<g id="edge8" class="edge">
<title>set_marker_node_Set(4)&#45;&gt;set_marker_node_Set(11)</title>
<path fill="none" stroke="black" d="M873,-124C875.81,-124 878.68,-124 881.59,-124"/>
<polygon fill="black" stroke="black" points="881.49,-127.5 891.49,-124 881.49,-120.5 881.49,-127.5"/>
</g>
<!-- set_marker_node_Set(5) -->
<!-- set_marker_node_Set(12) -->
<!-- set_marker_node_Set(5)&#45;&gt;set_marker_node_Set(12) -->
<g id="edge10" class="edge">
<title>set_marker_node_Set(5)&#45;&gt;set_marker_node_Set(12)</title>
<path fill="none" stroke="black" d="M1206.71,-127C1212.88,-125.76 1219.11,-124.41 1225,-123 1227.97,-122.29 1231.04,-121.5 1234.11,-120.67"/>
<polygon fill="black" stroke="black" points="1234.88,-124.09 1243.55,-117.99 1232.97,-117.35 1234.88,-124.09"/>
</g>
<!-- set_marker_node_Set(6) -->
<!-- set_marker_node_Set(7) -->
<!-- set_marker_node_Set(7)&#45;&gt;set_marker_node_Set(2) -->
<g id="edge1" class="edge">
<title>set_marker_node_Set(7)&#45;&gt;set_marker_node_Set(2)</title>
<path fill="none" stroke="black" d="M46,-129.34C52.44,-131.18 59.5,-133.18 66,-135 67.17,-135.33 68.36,-135.66 69.55,-135.99"/>
<polygon fill="black" stroke="black" points="68.45,-139.32 79.02,-138.6 70.31,-132.57 68.45,-139.32"/>
</g>
<!-- set_marker_node_Set(58) -->
<!-- set_marker_node_Set(7)&#45;&gt;set_marker_node_Set(58) -->
<g id="edge13" class="edge">
<title>set_marker_node_Set(7)&#45;&gt;set_marker_node_Set(58)</title>
<path fill="none" stroke="black" d="M46,-117.12C48.89,-116.34 51.94,-115.53 55.09,-114.68"/>
<polygon fill="black" stroke="black" points="55.78,-118.12 64.54,-112.16 53.98,-111.36 55.78,-118.12"/>
</g>
<!-- set_marker_node_Set(8)&#45;&gt;set_marker_node_Set(3) -->
<g id="edge3" class="edge">
<title>set_marker_node_Set(8)&#45;&gt;set_marker_node_Set(3)</title>
<path fill="none" stroke="black" d="M263,-124C265.78,-124 268.62,-124 271.49,-124"/>
<polygon fill="black" stroke="black" points="271.49,-127.5 281.49,-124 271.49,-120.5 271.49,-127.5"/>
</g>
<!-- set_marker_node_Set(10) -->
<!-- set_marker_node_Set(9)&#45;&gt;set_marker_node_Set(10) -->
<g id="edge5" class="edge">
<title>set_marker_node_Set(9)&#45;&gt;set_marker_node_Set(10)</title>
<path fill="none" stroke="black" d="M547,-124C549.86,-124 552.74,-124 555.6,-124"/>
<polygon fill="black" stroke="black" points="555.49,-127.5 565.49,-124 555.49,-120.5 555.49,-127.5"/>
</g>
<!-- set_marker_node_Set(10)&#45;&gt;set_marker_node_Set(0) -->
<g id="edge6" class="edge">
<title>set_marker_node_Set(10)&#45;&gt;set_marker_node_Set(0)</title>
<path fill="none" stroke="black" d="M667,-124C669.85,-124 672.71,-124 675.54,-124"/>
<polygon fill="black" stroke="black" points="675.49,-127.5 685.49,-124 675.49,-120.5 675.49,-127.5"/>
</g>
<!-- set_marker_node_Set(11)&#45;&gt;set_marker_node_Set(5) -->
<g id="edge9" class="edge">
<title>set_marker_node_Set(11)&#45;&gt;set_marker_node_Set(5)</title>
<path fill="none" stroke="black" d="M1076,-129.74C1078.85,-129.92 1081.69,-130.1 1084.52,-130.28"/>
<polygon fill="black" stroke="black" points="1084.29,-133.77 1094.49,-130.91 1084.74,-126.78 1084.29,-133.77"/>
</g>
<!-- set_marker_node_Set(59) -->
<!-- set_marker_node_Set(11)&#45;&gt;set_marker_node_Set(59) -->
<g id="edge14" class="edge">
<title>set_marker_node_Set(11)&#45;&gt;set_marker_node_Set(59)</title>
<path fill="none" stroke="black" d="M1076,-115C1084.23,-113.27 1092.8,-111.03 1101.16,-108.56"/>
<polygon fill="black" stroke="black" points="1102.02,-111.96 1110.55,-105.68 1099.97,-105.27 1102.02,-111.96"/>
</g>
<!-- node_System(45) -->
<g id="node12" class="node">
<title>node_System(45)</title>
<polygon fill="white" stroke="black" points="1053.5,-106 915.5,-106 915.5,-70 1053.5,-70 1053.5,-106"/>
<text text-anchor="middle" x="984.5" y="-84.3" font-family="Times,serif" font-size="14.00">exit_on_all_closed</text>
</g>
<!-- node_System(46) -->
<g id="node13" class="node">
<title>node_System(46)</title>
<polygon fill="white" stroke="black" points="1068,-52 901,-52 901,-16 1068,-16 1068,-52"/>
<text text-anchor="middle" x="984.5" y="-30.3" font-family="Times,serif" font-size="14.00">close_when_requested</text>
</g>
<!-- set_marker_node_Set(12)&#45;&gt;set_marker_node_Set(6) -->
<g id="edge11" class="edge">
<title>set_marker_node_Set(12)&#45;&gt;set_marker_node_Set(6)</title>
<path fill="none" stroke="black" d="M1289,-111C1291.72,-111 1294.6,-111 1297.56,-111"/>
<polygon fill="black" stroke="black" points="1297.49,-114.5 1307.49,-111 1297.49,-107.5 1297.49,-114.5"/>
</g>
<!-- set_marker_node_Set(58)&#45;&gt;set_marker_node_Set(8) -->
<g id="edge12" class="edge">
<title>set_marker_node_Set(58)&#45;&gt;set_marker_node_Set(8)</title>
<path fill="none" stroke="black" d="M157,-110.09C162.09,-111.24 167.29,-112.4 172.4,-113.55"/>
<polygon fill="black" stroke="black" points="171.35,-116.9 181.87,-115.67 172.88,-110.07 171.35,-116.9"/>
</g>
<!-- set_marker_node_Set(59)&#45;&gt;set_marker_node_Set(12) -->
<g id="edge15" class="edge">
<title>set_marker_node_Set(59)&#45;&gt;set_marker_node_Set(12)</title>
<path fill="none" stroke="black" d="M1208,-98.3C1216.82,-100.23 1225.85,-102.21 1234.08,-104.01"/>
<polygon fill="black" stroke="black" points="1233.01,-107.36 1243.52,-106.08 1234.5,-100.52 1233.01,-107.36"/>
</g>
</g>
</svg>
