<?xml version="1.0" encoding="UTF-8" standalone="no"?>
<!DOCTYPE svg PUBLIC "-//W3C//DTD SVG 1.1//EN"
 "http://www.w3.org/Graphics/SVG/1.1/DTD/svg11.dtd">
<!-- Generated by graphviz version 7.1.0 (0)
 -->
<!-- Pages: 1 -->
<svg width="1514pt" height="219pt"
 viewBox="0.00 0.00 1514.00 219.00" xmlns="http://www.w3.org/2000/svg" xmlns:xlink="http://www.w3.org/1999/xlink">
<g id="graph0" class="graph" transform="scale(1 1) rotate(0) translate(4 215)">
<polygon fill="white" stroke="none" points="-4,4 -4,-215 1510,-215 1510,4 -4,4"/>
<g id="clust1" class="cluster">
<title>clusternode_Set(0)</title>
<g id="a_clust1"><a xlink:title="Update">
<polygon fill="white" stroke="black" points="894,-62 894,-101 959,-101 959,-62 894,-62"/>
<text text-anchor="middle" x="926.5" y="-85.8" font-family="Helvetica,sans-Serif" font-size="14.00">Update</text>
</a>
</g>
</g>
<g id="clust2" class="cluster">
<title>clusternode_Set(2)</title>
<g id="a_clust2"><a xlink:title="FirstFlush">
<polygon fill="white" stroke="black" points="157,-85 157,-124 239,-124 239,-85 157,-85"/>
<text text-anchor="middle" x="198" y="-108.8" font-family="Helvetica,sans-Serif" font-size="14.00">FirstFlush</text>
</a>
</g>
</g>
<g id="clust3" class="cluster">
<title>clusternode_Set(3)</title>
<g id="a_clust3"><a xlink:title="PreUpdateFlush">
<polygon fill="white" stroke="black" points="371,-62 371,-101 494,-101 494,-62 371,-62"/>
<text text-anchor="middle" x="432.5" y="-85.8" font-family="Helvetica,sans-Serif" font-size="14.00">PreUpdateFlush</text>
</a>
</g>
</g>
<g id="clust4" class="cluster">
<title>clusternode_Set(4)</title>
<g id="a_clust4"><a xlink:title="UpdateFlush">
<polygon fill="white" stroke="black" points="979,-62 979,-101 1080,-101 1080,-62 979,-62"/>
<text text-anchor="middle" x="1029.5" y="-85.8" font-family="Helvetica,sans-Serif" font-size="14.00">UpdateFlush</text>
</a>
</g>
</g>
<g id="clust5" class="cluster">
<title>clusternode_Set(5)</title>
<g id="a_clust5"><a xlink:title="PostUpdateFlush">
<polygon fill="white" stroke="black" points="1213,-86 1213,-125 1342,-125 1342,-86 1213,-86"/>
<text text-anchor="middle" x="1277.5" y="-109.8" font-family="Helvetica,sans-Serif" font-size="14.00">PostUpdateFlush</text>
</a>
</g>
</g>
<g id="clust6" class="cluster">
<title>clusternode_Set(6)</title>
<g id="a_clust6"><a xlink:title="LastFlush">
<polygon fill="white" stroke="black" points="1426,-62 1426,-101 1506,-101 1506,-62 1426,-62"/>
<text text-anchor="middle" x="1466" y="-85.8" font-family="Helvetica,sans-Serif" font-size="14.00">LastFlush</text>
</a>
</g>
</g>
<g id="clust7" class="cluster">
<title>clusternode_Set(7)</title>
<g id="a_clust7"><a xlink:title="First">
<polygon fill="white" stroke="black" points="8,-61 8,-203 141,-203 141,-61 8,-61"/>
<text text-anchor="middle" x="74.5" y="-187.8" font-family="Helvetica,sans-Serif" font-size="14.00">First</text>
</a>
</g>
</g>
<g id="clust8" class="cluster">
<title>clusternode_Set(16)</title>
<g id="a_clust8"><a xlink:title="TimeSystem">
<polygon fill="white" stroke="black" points="16,-79 16,-172 133,-172 133,-79 16,-79"/>
<text text-anchor="middle" x="74.5" y="-156.8" font-family="Helvetica,sans-Serif" font-size="14.00">TimeSystem</text>
</a>
</g>
</g>
<g id="clust9" class="cluster">
<title>clusternode_Set(8)</title>
<g id="a_clust9"><a xlink:title="PreUpdate">
<polygon fill="white" stroke="black" points="264,-62 264,-101 351,-101 351,-62 264,-62"/>
<text text-anchor="middle" x="307.5" y="-85.8" font-family="Helvetica,sans-Serif" font-size="14.00">PreUpdate</text>
</a>
</g>
</g>
<g id="clust10" class="cluster">
<title>clusternode_Set(9)</title>
<g id="a_clust10"><a xlink:title="StateTransitions">
<polygon fill="white" stroke="black" points="514,-62 514,-101 638,-101 638,-62 514,-62"/>
<text text-anchor="middle" x="576" y="-85.8" font-family="Helvetica,sans-Serif" font-size="14.00">StateTransitions</text>
</a>
</g>
</g>
<g id="clust11" class="cluster">
<title>clusternode_Set(10)</title>
<g id="a_clust11"><a xlink:title="FixedUpdate">
<polygon fill="white" stroke="black" points="658,-8 658,-101 874,-101 874,-8 658,-8"/>
<text text-anchor="middle" x="766" y="-85.8" font-family="Helvetica,sans-Serif" font-size="14.00">FixedUpdate</text>
</a>
</g>
</g>
<g id="clust12" class="cluster">
<title>clusternode_Set(11)</title>
<g id="a_clust12"><a xlink:title="PostUpdate">
<polygon fill="white" stroke="black" points="1100,-62 1100,-101 1193,-101 1193,-62 1100,-62"/>
<text text-anchor="middle" x="1146.5" y="-85.8" font-family="Helvetica,sans-Serif" font-size="14.00">PostUpdate</text>
</a>
</g>
</g>
<g id="clust13" class="cluster">
<title>clusternode_Set(12)</title>
<g id="a_clust13"><a xlink:title="Last">
<polygon fill="white" stroke="black" points="1362,-62 1362,-101 1406,-101 1406,-62 1362,-62"/>
<text text-anchor="middle" x="1384" y="-85.8" font-family="Helvetica,sans-Serif" font-size="14.00">Last</text>
</a>
</g>
</g>
<g id="clust14" class="cluster">
<title>clusternode_Set(58)</title>
<g id="a_clust14"><a xlink:title="LoadAssets">
<polygon fill="white" stroke="black" points="153,-38 153,-77 244,-77 244,-38 153,-38"/>
<text text-anchor="middle" x="198.5" y="-61.8" font-family="Helvetica,sans-Serif" font-size="14.00">LoadAssets</text>
</a>
</g>
</g>
<g id="clust15" class="cluster">
<title>clusternode_Set(59)</title>
<g id="a_clust15"><a xlink:title="AssetEvents">
<polygon fill="white" stroke="black" points="1229,-39 1229,-78 1325,-78 1325,-39 1229,-39"/>
<text text-anchor="middle" x="1277" y="-62.8" font-family="Helvetica,sans-Serif" font-size="14.00">AssetEvents</text>
</a>
</g>
</g>
<!-- set_marker_node_Set(0) -->
<!-- set_marker_node_Set(4) -->
<!-- set_marker_node_Set(0)&#45;&gt;set_marker_node_Set(4) -->
<g id="edge7" class="edge">
<title>set_marker_node_Set(0)&#45;&gt;set_marker_node_Set(4)</title>
<g id="a_edge7"><a xlink:title="Update → UpdateFlush">
<path fill="none" stroke="#ccd60d" stroke-width="2" d="M959,-70C961.35,-70 963.77,-70 966.22,-70"/>
<polygon fill="#ccd60d" stroke="#ccd60d" stroke-width="2" points="965.97,-73.5 975.97,-70 965.97,-66.5 965.97,-73.5"/>
</a>
</g>
</g>
<!-- set_marker_node_Set(2) -->
<!-- set_marker_node_Set(8) -->
<!-- set_marker_node_Set(2)&#45;&gt;set_marker_node_Set(8) -->
<g id="edge2" class="edge">
<title>set_marker_node_Set(2)&#45;&gt;set_marker_node_Set(8)</title>
<g id="a_edge2"><a xlink:title="FirstFlush → PreUpdate">
<path fill="none" stroke="#251dcc" stroke-width="2" d="M236.2,-85C241.17,-83.94 246.34,-82.82 251.52,-81.71"/>
<polygon fill="#251dcc" stroke="#251dcc" stroke-width="2" points="252,-85.19 261.04,-79.66 250.53,-78.34 252,-85.19"/>
</a>
</g>
</g>
<!-- set_marker_node_Set(3) -->
<!-- set_marker_node_Set(9) -->
<!-- set_marker_node_Set(3)&#45;&gt;set_marker_node_Set(9) -->
<g id="edge4" class="edge">
<title>set_marker_node_Set(3)&#45;&gt;set_marker_node_Set(9)</title>
<g id="a_edge4"><a xlink:title="PreUpdateFlush → StateTransitions">
<path fill="none" stroke="#1dcd59" stroke-width="2" d="M494,-70C496.39,-70 498.8,-70 501.21,-70"/>
<polygon fill="#1dcd59" stroke="#1dcd59" stroke-width="2" points="500.98,-73.5 510.98,-70 500.98,-66.5 500.98,-73.5"/>
</a>
</g>
</g>
<!-- set_marker_node_Set(11) -->
<!-- set_marker_node_Set(4)&#45;&gt;set_marker_node_Set(11) -->
<g id="edge8" class="edge">
<title>set_marker_node_Set(4)&#45;&gt;set_marker_node_Set(11)</title>
<g id="a_edge8"><a xlink:title="UpdateFlush → PostUpdate">
<path fill="none" stroke="#29e000" stroke-width="2" d="M1080,-70C1082.43,-70 1084.88,-70 1087.32,-70"/>
<polygon fill="#29e000" stroke="#29e000" stroke-width="2" points="1086.98,-73.5 1096.98,-70 1086.98,-66.5 1086.98,-73.5"/>
</a>
</g>
</g>
<!-- set_marker_node_Set(5) -->
<!-- set_marker_node_Set(12) -->
<!-- set_marker_node_Set(5)&#45;&gt;set_marker_node_Set(12) -->
<g id="edge10" class="edge">
<title>set_marker_node_Set(5)&#45;&gt;set_marker_node_Set(12)</title>
<g id="a_edge10"><a xlink:title="PostUpdateFlush → Last">
<path fill="none" stroke="#810ccd" stroke-width="2" d="M1323.71,-86C1329.88,-84.76 1336.11,-83.41 1342,-82 1344.46,-81.41 1346.99,-80.77 1349.52,-80.09"/>
<polygon fill="#810ccd" stroke="#810ccd" stroke-width="2" points="1350.41,-83.48 1359.09,-77.4 1348.51,-76.74 1350.41,-83.48"/>
</a>
</g>
</g>
<!-- set_marker_node_Set(6) -->
<!-- set_marker_node_Set(7) -->
<!-- set_marker_node_Set(7)&#45;&gt;set_marker_node_Set(2) -->
<g id="edge1" class="edge">
<title>set_marker_node_Set(7)&#45;&gt;set_marker_node_Set(2)</title>
<g id="a_edge1"><a xlink:title="First → FirstFlush">
<path fill="none" stroke="#c4cc1d" stroke-width="2" d="M141,-75C144.94,-76.12 146.5,-77.53 152.73,-80.3"/>
<polygon fill="#c4cc1d" stroke="#c4cc1d" stroke-width="2" points="151.36,-83.52 161.95,-83.9 153.91,-77 151.36,-83.52"/>
</a>
</g>
</g>
<!-- set_marker_node_Set(58) -->
<!-- set_marker_node_Set(7)&#45;&gt;set_marker_node_Set(58) -->
<g id="edge13" class="edge">
<title>set_marker_node_Set(7)&#45;&gt;set_marker_node_Set(58)</title>
<g id="a_edge13"><a xlink:title="First → LoadAssets">
<path fill="none" stroke="#c4cc1d" stroke-width="2" d="M117.74,-61C125.07,-59.62 132.81,-58.15 140.45,-56.7"/>
<polygon fill="#c4cc1d" stroke="#c4cc1d" stroke-width="2" points="140.85,-60.19 150.03,-54.89 139.55,-53.31 140.85,-60.19"/>
</a>
</g>
</g>
<!-- set_marker_node_Set(16) -->
<!-- node_System(8) -->
<g id="node9" class="node">
<title>node_System(8)</title>
<g id="a_node9"><a xlink:title="bevy_time::time_system">
<polygon fill="white" stroke="black" points="125,-123 24,-123 24,-87 125,-87 125,-123"/>
<text text-anchor="middle" x="74.5" y="-101.3" font-family="Times,serif" font-size="14.00">time_system</text>
</a>
</g>
</g>
<!-- set_marker_node_Set(8)&#45;&gt;set_marker_node_Set(3) -->
<g id="edge3" class="edge">
<title>set_marker_node_Set(8)&#45;&gt;set_marker_node_Set(3)</title>
<g id="a_edge3"><a xlink:title="PreUpdate → PreUpdateFlush">
<path fill="none" stroke="#cd1d91" stroke-width="2" d="M351,-70C353.39,-70 355.82,-70 358.28,-70"/>
<polygon fill="#cd1d91" stroke="#cd1d91" stroke-width="2" points="357.98,-73.5 367.98,-70 357.98,-66.5 357.98,-73.5"/>
</a>
</g>
</g>
<!-- set_marker_node_Set(10) -->
<!-- set_marker_node_Set(9)&#45;&gt;set_marker_node_Set(10) -->
<g id="edge5" class="edge">
<title>set_marker_node_Set(9)&#45;&gt;set_marker_node_Set(10)</title>
<g id="a_edge5"><a xlink:title="StateTransitions → FixedUpdate">
<path fill="none" stroke="#1dc4cc" stroke-width="2" d="M638,-70C640.38,-70 642.79,-70 645.23,-70"/>
<polygon fill="#1dc4cc" stroke="#1dc4cc" stroke-width="2" points="644.98,-73.5 654.98,-70 644.98,-66.5 644.98,-73.5"/>
</a>
</g>
</g>
<!-- set_marker_node_Set(10)&#45;&gt;set_marker_node_Set(0) -->
<g id="edge6" class="edge">
<title>set_marker_node_Set(10)&#45;&gt;set_marker_node_Set(0)</title>
<g id="a_edge6"><a xlink:title="FixedUpdate → Update">
<path fill="none" stroke="#cc251d" stroke-width="2" d="M874,-70C876.42,-70 878.81,-70 881.14,-70"/>
<polygon fill="#cc251d" stroke="#cc251d" stroke-width="2" points="880.98,-73.5 890.98,-70 880.98,-66.5 880.98,-73.5"/>
</a>
</g>
</g>
<!-- node_System(9) -->
<g id="node13" class="node">
<title>node_System(9)</title>
<g id="a_node13"><a xlink:title="bevy_time::fixed_timestep::run_fixed_update_schedule">
<polygon fill="white" stroke="black" points="866,-52 666,-52 666,-16 866,-16 866,-52"/>
<text text-anchor="middle" x="766" y="-30.3" font-family="Times,serif" font-size="14.00">run_fixed_update_schedule</text>
</a>
</g>
</g>
<!-- set_marker_node_Set(11)&#45;&gt;set_marker_node_Set(5) -->
<g id="edge9" class="edge">
<title>set_marker_node_Set(11)&#45;&gt;set_marker_node_Set(5)</title>
<g id="a_edge9"><a xlink:title="PostUpdate → PostUpdateFlush">
<path fill="none" stroke="#58cd0c" stroke-width="2" d="M1193,-78.56C1201.83,-80.2 1211.16,-81.94 1220.26,-83.63"/>
<polygon fill="#58cd0c" stroke="#58cd0c" stroke-width="2" points="1219.56,-87.06 1230.04,-85.45 1220.84,-80.18 1219.56,-87.06"/>
</a>
</g>
</g>
<!-- set_marker_node_Set(59) -->
<!-- set_marker_node_Set(11)&#45;&gt;set_marker_node_Set(59) -->
<g id="edge14" class="edge">
<title>set_marker_node_Set(11)&#45;&gt;set_marker_node_Set(59)</title>
<g id="a_edge14"><a xlink:title="PostUpdate → AssetEvents">
<path fill="none" stroke="#251dcc" stroke-width="2" d="M1191.87,-62C1199.84,-60.58 1208.26,-59.08 1216.57,-57.6"/>
<polygon fill="#251dcc" stroke="#251dcc" stroke-width="2" points="1216.79,-61.11 1226.02,-55.91 1215.56,-54.22 1216.79,-61.11"/>
</a>
</g>
</g>
<!-- set_marker_node_Set(12)&#45;&gt;set_marker_node_Set(6) -->
<g id="edge11" class="edge">
<title>set_marker_node_Set(12)&#45;&gt;set_marker_node_Set(6)</title>
<g id="a_edge11"><a xlink:title="Last → LastFlush">
<path fill="none" stroke="#cf410c" stroke-width="2" d="M1406,-70C1408.31,-70 1410.74,-70 1413.23,-70"/>
<polygon fill="#cf410c" stroke="#cf410c" stroke-width="2" points="1412.98,-73.5 1422.98,-70 1412.98,-66.5 1412.98,-73.5"/>
</a>
</g>
</g>
<!-- set_marker_node_Set(58)&#45;&gt;set_marker_node_Set(8) -->
<g id="edge12" class="edge">
<title>set_marker_node_Set(58)&#45;&gt;set_marker_node_Set(8)</title>
<g id="a_edge12"><a xlink:title="LoadAssets → PreUpdate">
<path fill="none" stroke="#0c9acf" stroke-width="2" d="M244,-56.09C248.6,-57.12 253.28,-58.18 257.91,-59.21"/>
<polygon fill="#0c9acf" stroke="#0c9acf" stroke-width="2" points="256.87,-62.57 267.39,-61.34 258.4,-55.74 256.87,-62.57"/>
</a>
</g>
</g>
<!-- set_marker_node_Set(59)&#45;&gt;set_marker_node_Set(12) -->
<g id="edge15" class="edge">
<title>set_marker_node_Set(59)&#45;&gt;set_marker_node_Set(12)</title>
<g id="a_edge15"><a xlink:title="AssetEvents → Last">
<path fill="none" stroke="#cd1d91" stroke-width="2" d="M1325,-57.29C1333.25,-59.1 1341.69,-60.95 1349.48,-62.66"/>
<polygon fill="#cd1d91" stroke="#cd1d91" stroke-width="2" points="1348.53,-66.03 1359.04,-64.75 1350.02,-59.19 1348.53,-66.03"/>
</a>
</g>
</g>
</g>
</svg>
