<?xml version="1.0" encoding="UTF-8" standalone="no"?>
<!DOCTYPE svg PUBLIC "-//W3C//DTD SVG 1.1//EN"
 "http://www.w3.org/Graphics/SVG/1.1/DTD/svg11.dtd">
<!-- Generated by graphviz version 7.0.6 (0)
 -->
<!-- Title: schedule Pages: 1 -->
<svg width="1885pt" height="453pt"
 viewBox="0.00 0.00 1885.00 453.00" xmlns="http://www.w3.org/2000/svg" xmlns:xlink="http://www.w3.org/1999/xlink">
<g id="graph0" class="graph" transform="scale(1 1) rotate(0) translate(4 449)">
<title>schedule</title>
<polygon fill="white" stroke="none" points="-4,4 -4,-449 1881,-449 1881,4 -4,4"/>
<g id="clust1" class="cluster">
<title>clusternode_Set(0)</title>
<polygon fill="white" stroke="black" points="687,-102 687,-141 752,-141 752,-102 687,-102"/>
<text text-anchor="middle" x="719.5" y="-125.8" font-family="Helvetica,sans-Serif" font-size="14.00">Update</text>
</g>
<g id="clust2" class="cluster">
<title>clusternode_Set(2)</title>
<polygon fill="white" stroke="black" points="70,-125 70,-164 152,-164 152,-125 70,-125"/>
<text text-anchor="middle" x="111" y="-148.8" font-family="Helvetica,sans-Serif" font-size="14.00">FirstFlush</text>
</g>
<g id="clust3" class="cluster">
<title>clusternode_Set(3)</title>
<polygon fill="white" stroke="black" points="283,-102 283,-141 405,-141 405,-102 283,-102"/>
<text text-anchor="middle" x="344" y="-125.8" font-family="Helvetica,sans-Serif" font-size="14.00">PreUpdateFlush</text>
</g>
<g id="clust4" class="cluster">
<title>clusternode_Set(4)</title>
<polygon fill="white" stroke="black" points="772,-102 772,-141 873,-141 873,-102 772,-102"/>
<text text-anchor="middle" x="822.5" y="-125.8" font-family="Helvetica,sans-Serif" font-size="14.00">UpdateFlush</text>
</g>
<g id="clust5" class="cluster">
<title>clusternode_Set(5)</title>
<polygon fill="white" stroke="black" points="1166.5,-55 1166.5,-94 1295.5,-94 1295.5,-55 1166.5,-55"/>
<text text-anchor="middle" x="1231" y="-78.8" font-family="Helvetica,sans-Serif" font-size="14.00">PostUpdateFlush</text>
</g>
<g id="clust6" class="cluster">
<title>clusternode_Set(6)</title>
<polygon fill="white" stroke="black" points="1713,-31 1713,-70 1793,-70 1793,-31 1713,-31"/>
<text text-anchor="middle" x="1753" y="-54.8" font-family="Helvetica,sans-Serif" font-size="14.00">LastFlush</text>
</g>
<g id="clust7" class="cluster">
<title>clusternode_Set(7)</title>
<polygon fill="white" stroke="black" points="0,-101 0,-140 46,-140 46,-101 0,-101"/>
<text text-anchor="middle" x="23" y="-124.8" font-family="Helvetica,sans-Serif" font-size="14.00">First</text>
</g>
<g id="clust8" class="cluster">
<title>clusternode_Set(8)</title>
<polygon fill="white" stroke="black" points="177,-102 177,-141 263,-141 263,-102 177,-102"/>
<text text-anchor="middle" x="220" y="-125.8" font-family="Helvetica,sans-Serif" font-size="14.00">PreUpdate</text>
</g>
<g id="clust9" class="cluster">
<title>clusternode_Set(9)</title>
<polygon fill="white" stroke="black" points="425,-102 425,-141 547,-141 547,-102 425,-102"/>
<text text-anchor="middle" x="486" y="-125.8" font-family="Helvetica,sans-Serif" font-size="14.00">StateTransitions</text>
</g>
<g id="clust10" class="cluster">
<title>clusternode_Set(10)</title>
<polygon fill="white" stroke="black" points="567,-102 567,-141 667,-141 667,-102 567,-102"/>
<text text-anchor="middle" x="617" y="-125.8" font-family="Helvetica,sans-Serif" font-size="14.00">FixedUpdate</text>
</g>
<g id="clust11" class="cluster">
<title>clusternode_Set(11)</title>
<polygon fill="white" stroke="black" points="893,-102 893,-437 1869,-437 1869,-102 893,-102"/>
<text text-anchor="middle" x="1381" y="-421.8" font-family="Helvetica,sans-Serif" font-size="14.00">PostUpdate</text>
</g>
<g id="clust12" class="cluster">
<title>clusternode_Set(20)</title>
<polygon fill="white" stroke="black" points="907,-347 907,-386 1057,-386 1057,-347 907,-347"/>
<text text-anchor="middle" x="982" y="-370.8" font-family="Helvetica,sans-Serif" font-size="14.00">TransformPropagate</text>
</g>
<g id="clust13" class="cluster">
<title>clusternode_Set(76)</title>
<polygon fill="white" stroke="black" points="901,-268 901,-307 1064,-307 1064,-268 901,-268"/>
<text text-anchor="middle" x="982.5" y="-291.8" font-family="Helvetica,sans-Serif" font-size="14.00">CameraUpdateSystem</text>
</g>
<g id="clust14" class="cluster">
<title>clusternode_Set(81)</title>
<polygon fill="white" stroke="black" points="1421,-158 1421,-197 1585,-197 1585,-158 1421,-158"/>
<text text-anchor="middle" x="1503" y="-181.8" font-family="Helvetica,sans-Serif" font-size="14.00">CalculateBoundsFlush</text>
</g>
<g id="clust15" class="cluster">
<title>clusternode_Set(85)</title>
<polygon fill="white" stroke="black" points="926,-221 926,-260 1038,-260 1038,-221 926,-221"/>
<text text-anchor="middle" x="982" y="-244.8" font-family="Helvetica,sans-Serif" font-size="14.00">CheckVisibility</text>
</g>
<g id="clust16" class="cluster">
<title>clusternode_Set(127)</title>
<polygon fill="white" stroke="black" points="924,-120 924,-213 1040,-213 1040,-120 924,-120"/>
<text text-anchor="middle" x="982" y="-197.8" font-family="Helvetica,sans-Serif" font-size="14.00">AddClusters</text>
</g>
<g id="clust17" class="cluster">
<title>clusternode_Set(129)</title>
<polygon fill="white" stroke="black" points="1132.5,-142 1132.5,-235 1328.5,-235 1328.5,-142 1132.5,-142"/>
<text text-anchor="middle" x="1230.5" y="-219.8" font-family="Helvetica,sans-Serif" font-size="14.00">AssignLightsToClusters</text>
</g>
<g id="clust18" class="cluster">
<title>clusternode_Set(130)</title>
<polygon fill="white" stroke="black" points="1645,-130 1645,-223 1861,-223 1861,-130 1645,-130"/>
<text text-anchor="middle" x="1753" y="-207.8" font-family="Helvetica,sans-Serif" font-size="14.00">CheckLightVisibility</text>
</g>
<g id="clust19" class="cluster">
<title>clusternode_Set(131)</title>
<polygon fill="white" stroke="black" points="1100,-243 1100,-336 1361,-336 1361,-243 1100,-243"/>
<text text-anchor="middle" x="1230.5" y="-320.8" font-family="Helvetica,sans-Serif" font-size="14.00">UpdateDirectionalLightCascades</text>
</g>
<g id="clust20" class="cluster">
<title>clusternode_Set(132)</title>
<polygon fill="white" stroke="black" points="1381,-205 1381,-406 1625,-406 1625,-205 1381,-205"/>
<text text-anchor="middle" x="1503" y="-390.8" font-family="Helvetica,sans-Serif" font-size="14.00">UpdateLightFrusta</text>
</g>
<g id="clust21" class="cluster">
<title>clusternode_Set(12)</title>
<polygon fill="white" stroke="black" points="1481,-31 1481,-70 1525,-70 1525,-31 1481,-31"/>
<text text-anchor="middle" x="1503" y="-54.8" font-family="Helvetica,sans-Serif" font-size="14.00">Last</text>
</g>
<g id="clust22" class="cluster">
<title>clusternode_Set(58)</title>
<polygon fill="white" stroke="black" points="66,-78 66,-117 157,-117 157,-78 66,-78"/>
<text text-anchor="middle" x="111.5" y="-101.8" font-family="Helvetica,sans-Serif" font-size="14.00">LoadAssets</text>
</g>
<g id="clust23" class="cluster">
<title>clusternode_Set(59)</title>
<polygon fill="white" stroke="black" points="1182.5,-8 1182.5,-47 1278.5,-47 1278.5,-8 1182.5,-8"/>
<text text-anchor="middle" x="1230.5" y="-31.8" font-family="Helvetica,sans-Serif" font-size="14.00">AssetEvents</text>
</g>
<!-- set_marker_node_Set(0) -->
<!-- set_marker_node_Set(4) -->
<!-- set_marker_node_Set(0)&#45;&gt;set_marker_node_Set(4) -->
<g id="edge7" class="edge">
<title>set_marker_node_Set(0)&#45;&gt;set_marker_node_Set(4)</title>
<path fill="none" stroke="black" d="M752,-110C754.81,-110 757.71,-110 760.65,-110"/>
<polygon fill="black" stroke="black" points="760.49,-113.5 770.49,-110 760.49,-106.5 760.49,-113.5"/>
</g>
<!-- set_marker_node_Set(2) -->
<!-- set_marker_node_Set(8) -->
<!-- set_marker_node_Set(2)&#45;&gt;set_marker_node_Set(8) -->
<g id="edge2" class="edge">
<title>set_marker_node_Set(2)&#45;&gt;set_marker_node_Set(8)</title>
<path fill="none" stroke="black" d="M149.21,-125C154.62,-123.84 160.27,-122.62 165.92,-121.41"/>
<polygon fill="black" stroke="black" points="166.48,-124.87 175.53,-119.35 165.01,-118.02 166.48,-124.87"/>
</g>
<!-- set_marker_node_Set(3) -->
<!-- set_marker_node_Set(9) -->
<!-- set_marker_node_Set(3)&#45;&gt;set_marker_node_Set(9) -->
<g id="edge4" class="edge">
<title>set_marker_node_Set(3)&#45;&gt;set_marker_node_Set(9)</title>
<path fill="none" stroke="black" d="M405,-110C407.88,-110 410.78,-110 413.68,-110"/>
<polygon fill="black" stroke="black" points="413.49,-113.5 423.49,-110 413.49,-106.5 413.49,-113.5"/>
</g>
<!-- set_marker_node_Set(11) -->
<!-- set_marker_node_Set(4)&#45;&gt;set_marker_node_Set(11) -->
<g id="edge8" class="edge">
<title>set_marker_node_Set(4)&#45;&gt;set_marker_node_Set(11)</title>
<path fill="none" stroke="black" d="M873,-110C875.82,-110 878.7,-110 881.62,-110"/>
<polygon fill="black" stroke="black" points="881.49,-113.5 891.49,-110 881.49,-106.5 881.49,-113.5"/>
</g>
<!-- set_marker_node_Set(5) -->
<!-- set_marker_node_Set(12) -->
<!-- set_marker_node_Set(5)&#45;&gt;set_marker_node_Set(12) -->
<g id="edge10" class="edge">
<title>set_marker_node_Set(5)&#45;&gt;set_marker_node_Set(12)</title>
<path fill="none" stroke="black" d="M1295.5,-57.32C1350.24,-52.46 1426.79,-45.67 1469.65,-41.87"/>
<polygon fill="black" stroke="black" points="1469.84,-45.37 1479.5,-41 1469.23,-38.39 1469.84,-45.37"/>
</g>
<!-- set_marker_node_Set(6) -->
<!-- set_marker_node_Set(7) -->
<!-- set_marker_node_Set(7)&#45;&gt;set_marker_node_Set(2) -->
<g id="edge1" class="edge">
<title>set_marker_node_Set(7)&#45;&gt;set_marker_node_Set(2)</title>
<path fill="none" stroke="black" d="M46,-115.34C52.44,-117.18 59.5,-119.18 66,-121 67.17,-121.33 68.36,-121.66 69.55,-121.99"/>
<polygon fill="black" stroke="black" points="68.45,-125.32 79.02,-124.6 70.31,-118.57 68.45,-125.32"/>
</g>
<!-- set_marker_node_Set(58) -->
<!-- set_marker_node_Set(7)&#45;&gt;set_marker_node_Set(58) -->
<g id="edge13" class="edge">
<title>set_marker_node_Set(7)&#45;&gt;set_marker_node_Set(58)</title>
<path fill="none" stroke="black" d="M46,-103.12C48.89,-102.34 51.94,-101.53 55.09,-100.68"/>
<polygon fill="black" stroke="black" points="55.78,-104.12 64.54,-98.16 53.98,-97.36 55.78,-104.12"/>
</g>
<!-- set_marker_node_Set(8)&#45;&gt;set_marker_node_Set(3) -->
<g id="edge3" class="edge">
<title>set_marker_node_Set(8)&#45;&gt;set_marker_node_Set(3)</title>
<path fill="none" stroke="black" d="M263,-110C265.78,-110 268.62,-110 271.49,-110"/>
<polygon fill="black" stroke="black" points="271.49,-113.5 281.49,-110 271.49,-106.5 271.49,-113.5"/>
</g>
<!-- set_marker_node_Set(10) -->
<!-- set_marker_node_Set(9)&#45;&gt;set_marker_node_Set(10) -->
<g id="edge5" class="edge">
<title>set_marker_node_Set(9)&#45;&gt;set_marker_node_Set(10)</title>
<path fill="none" stroke="black" d="M547,-110C549.86,-110 552.74,-110 555.6,-110"/>
<polygon fill="black" stroke="black" points="555.49,-113.5 565.49,-110 555.49,-106.5 555.49,-113.5"/>
</g>
<!-- set_marker_node_Set(10)&#45;&gt;set_marker_node_Set(0) -->
<g id="edge6" class="edge">
<title>set_marker_node_Set(10)&#45;&gt;set_marker_node_Set(0)</title>
<path fill="none" stroke="black" d="M667,-110C669.85,-110 672.71,-110 675.54,-110"/>
<polygon fill="black" stroke="black" points="675.49,-113.5 685.49,-110 675.49,-106.5 675.49,-113.5"/>
</g>
<!-- set_marker_node_Set(11)&#45;&gt;set_marker_node_Set(5) -->
<g id="edge9" class="edge">
<title>set_marker_node_Set(11)&#45;&gt;set_marker_node_Set(5)</title>
<path fill="none" stroke="black" d="M1024.95,-102C1060.58,-95.21 1112.59,-85.29 1155.24,-77.16"/>
<polygon fill="black" stroke="black" points="1155.85,-80.61 1165.01,-75.3 1154.54,-73.73 1155.85,-80.61"/>
</g>
<!-- set_marker_node_Set(59) -->
<!-- set_marker_node_Set(11)&#45;&gt;set_marker_node_Set(59) -->
<g id="edge14" class="edge">
<title>set_marker_node_Set(11)&#45;&gt;set_marker_node_Set(59)</title>
<path fill="none" stroke="black" d="M996.58,-102C1017.97,-89.68 1061.09,-65.89 1100,-51 1122.85,-42.26 1148.75,-34.79 1171.36,-29.03"/>
<polygon fill="black" stroke="black" points="1172.17,-32.44 1181.03,-26.63 1170.48,-25.65 1172.17,-32.44"/>
</g>
<!-- set_marker_node_Set(20) -->
<!-- node_System(106) -->
<g id="node19" class="node">
<title>node_System(106)</title>
<polygon fill="white" stroke="black" points="1320.5,-186 1140.5,-186 1140.5,-150 1320.5,-150 1320.5,-186"/>
<text text-anchor="middle" x="1230.5" y="-164.3" font-family="Times,serif" font-size="14.00">assign_lights_to_clusters</text>
</g>
<!-- set_marker_node_Set(20)&#45;&gt;node_System(106) -->
<g id="edge16" class="edge">
<title>set_marker_node_Set(20)&#45;&gt;node_System(106)</title>
<path fill="none" stroke="black" d="M1008.43,-347C1026.35,-340.13 1049.62,-328.53 1064,-311 1098.24,-269.27 1060.05,-231.31 1100,-195 1108.56,-187.22 1118.78,-181.45 1129.65,-177.21"/>
<polygon fill="black" stroke="black" points="1130.49,-180.62 1138.82,-174.08 1128.23,-174 1130.49,-180.62"/>
</g>
<!-- node_System(111) -->
<g id="node21" class="node">
<title>node_System(111)</title>
<polygon fill="white" stroke="black" points="1853,-174 1653,-174 1653,-138 1853,-138 1853,-174"/>
<text text-anchor="middle" x="1753" y="-152.3" font-family="Times,serif" font-size="14.00">check_light_mesh_visibility</text>
</g>
<!-- set_marker_node_Set(20)&#45;&gt;node_System(111) -->
<g id="edge29" class="edge">
<title>set_marker_node_Set(20)&#45;&gt;node_System(111)</title>
<path fill="none" stroke="black" d="M1057,-351.79C1071.27,-351.18 1086.1,-350.56 1100,-350 1114.5,-349.41 1350.39,-349.9 1361,-340 1391.39,-311.63 1350.07,-181.78 1381,-154 1400.08,-136.86 1539.04,-141.82 1641.31,-148.02"/>
<polygon fill="black" stroke="black" points="1640.94,-151.5 1651.14,-148.63 1641.38,-144.52 1640.94,-151.5"/>
</g>
<!-- node_System(107) -->
<g id="node23" class="node">
<title>node_System(107)</title>
<polygon fill="white" stroke="black" points="1353,-287 1108,-287 1108,-251 1353,-251 1353,-287"/>
<text text-anchor="middle" x="1230.5" y="-265.3" font-family="Times,serif" font-size="14.00">update_directional_light_cascades</text>
</g>
<!-- set_marker_node_Set(20)&#45;&gt;node_System(107) -->
<g id="edge19" class="edge">
<title>set_marker_node_Set(20)&#45;&gt;node_System(107)</title>
<path fill="none" stroke="black" d="M997.65,-347C1024.21,-332.62 1079.45,-303.19 1100,-296 1105.62,-294.03 1111.44,-292.19 1117.34,-290.46"/>
<polygon fill="black" stroke="black" points="1117.9,-293.94 1126.6,-287.88 1116.03,-287.2 1117.9,-293.94"/>
</g>
<!-- node_System(108) -->
<g id="node25" class="node">
<title>node_System(108)</title>
<polygon fill="white" stroke="black" points="1617,-249 1389,-249 1389,-213 1617,-213 1617,-249"/>
<text text-anchor="middle" x="1503" y="-227.3" font-family="Times,serif" font-size="14.00">update_directional_light_frusta</text>
</g>
<!-- set_marker_node_Set(20)&#45;&gt;node_System(108) -->
<g id="edge22" class="edge">
<title>set_marker_node_Set(20)&#45;&gt;node_System(108)</title>
<path fill="none" stroke="black" d="M1057,-358.87C1160.4,-363.56 1338.12,-368.69 1361,-350 1393.41,-323.53 1351.49,-287.67 1381,-258 1381.5,-257.5 1382,-257.01 1382.52,-256.52"/>
<polygon fill="black" stroke="black" points="1384.6,-259.34 1390.19,-250.33 1380.21,-253.89 1384.6,-259.34"/>
</g>
<!-- node_System(109) -->
<g id="node26" class="node">
<title>node_System(109)</title>
<polygon fill="white" stroke="black" points="1598,-303 1408,-303 1408,-267 1598,-267 1598,-303"/>
<text text-anchor="middle" x="1503" y="-281.3" font-family="Times,serif" font-size="14.00">update_point_light_frusta</text>
</g>
<!-- set_marker_node_Set(20)&#45;&gt;node_System(109) -->
<g id="edge24" class="edge">
<title>set_marker_node_Set(20)&#45;&gt;node_System(109)</title>
<path fill="none" stroke="black" d="M1057,-368.33C1153.05,-383.9 1313.96,-403.54 1361,-370 1383.2,-354.17 1360.67,-330.17 1381,-312 1385.99,-307.54 1391.55,-303.77 1397.46,-300.58"/>
<polygon fill="black" stroke="black" points="1398.8,-303.82 1406.36,-296.4 1395.82,-297.49 1398.8,-303.82"/>
</g>
<!-- node_System(110) -->
<g id="node27" class="node">
<title>node_System(110)</title>
<polygon fill="white" stroke="black" points="1594,-357 1412,-357 1412,-321 1594,-321 1594,-357"/>
<text text-anchor="middle" x="1503" y="-335.3" font-family="Times,serif" font-size="14.00">update_spot_light_frusta</text>
</g>
<!-- set_marker_node_Set(20)&#45;&gt;node_System(110) -->
<g id="edge26" class="edge">
<title>set_marker_node_Set(20)&#45;&gt;node_System(110)</title>
<path fill="none" stroke="black" d="M1057,-380.65C1071.11,-384.54 1085.89,-387.93 1100,-390 1214.78,-406.8 1255.95,-439.2 1361,-390 1373.57,-384.11 1369.15,-373.23 1381,-366 1387.3,-362.16 1394.07,-358.86 1401.09,-356.03"/>
<polygon fill="black" stroke="black" points="1401.91,-359.46 1410.1,-352.73 1399.51,-352.89 1401.91,-359.46"/>
</g>
<!-- set_marker_node_Set(76) -->
<!-- set_marker_node_Set(76)&#45;&gt;node_System(106) -->
<g id="edge18" class="edge">
<title>set_marker_node_Set(76)&#45;&gt;node_System(106)</title>
<path fill="none" stroke="black" d="M1057.48,-268C1059.74,-266.81 1061.92,-265.48 1064,-264 1092.18,-243.94 1072.42,-215.87 1100,-195 1108.79,-188.35 1118.84,-183.24 1129.36,-179.34"/>
<polygon fill="black" stroke="black" points="1130.18,-182.75 1138.58,-176.29 1127.98,-176.1 1130.18,-182.75"/>
</g>
<!-- set_marker_node_Set(76)&#45;&gt;node_System(107) -->
<g id="edge20" class="edge">
<title>set_marker_node_Set(76)&#45;&gt;node_System(107)</title>
<path fill="none" stroke="black" d="M1064,-273.7C1074.4,-273.4 1085.27,-273.1 1096.24,-272.78"/>
<polygon fill="black" stroke="black" points="1096.28,-276.28 1106.18,-272.5 1096.09,-269.29 1096.28,-276.28"/>
</g>
<!-- set_marker_node_Set(81) -->
<!-- set_marker_node_Set(81)&#45;&gt;node_System(111) -->
<g id="edge28" class="edge">
<title>set_marker_node_Set(81)&#45;&gt;node_System(111)</title>
<path fill="none" stroke="black" d="M1585,-162.73C1603.04,-162.01 1622.48,-161.22 1641.48,-160.46"/>
<polygon fill="black" stroke="black" points="1641.37,-163.96 1651.22,-160.06 1641.09,-156.97 1641.37,-163.96"/>
</g>
<!-- set_marker_node_Set(85) -->
<!-- set_marker_node_Set(85)&#45;&gt;node_System(106) -->
<g id="edge17" class="edge">
<title>set_marker_node_Set(85)&#45;&gt;node_System(106)</title>
<path fill="none" stroke="black" d="M1038,-223.9C1046.84,-222.22 1055.78,-219.98 1064,-217 1081.63,-210.61 1082.57,-201.9 1100,-195 1109.33,-191.31 1119.25,-188.09 1129.28,-185.29"/>
<polygon fill="black" stroke="black" points="1129.95,-188.73 1138.73,-182.8 1128.17,-181.96 1129.95,-188.73"/>
</g>
<!-- set_marker_node_Set(85)&#45;&gt;node_System(111) -->
<g id="edge31" class="edge">
<title>set_marker_node_Set(85)&#45;&gt;node_System(111)</title>
<path fill="none" stroke="black" d="M1038,-228.86C1047.42,-226.7 1056.55,-223.02 1064,-217 1099.45,-188.36 1062.55,-146.96 1100,-121 1143.28,-91.01 1467.17,-122.99 1641.56,-142.78"/>
<polygon fill="black" stroke="black" points="1640.99,-146.24 1651.32,-143.89 1641.78,-139.28 1640.99,-146.24"/>
</g>
<!-- set_marker_node_Set(85)&#45;&gt;node_System(108) -->
<g id="edge21" class="edge">
<title>set_marker_node_Set(85)&#45;&gt;node_System(108)</title>
<path fill="none" stroke="black" d="M1038,-228.36C1047.33,-226.23 1056.44,-222.69 1064,-217 1094.83,-193.8 1067.55,-158.87 1100,-138 1124.39,-122.31 1337.6,-120.88 1361,-138 1384.71,-155.35 1359.57,-180.91 1381,-201 1383.07,-202.94 1385.25,-204.77 1387.52,-206.48"/>
<polygon fill="black" stroke="black" points="1385.13,-209.1 1395.41,-211.69 1388.99,-203.26 1385.13,-209.1"/>
</g>
<!-- set_marker_node_Set(127) -->
<!-- node_System(104) -->
<g id="node17" class="node">
<title>node_System(104)</title>
<polygon fill="white" stroke="black" points="1032,-164 932,-164 932,-128 1032,-128 1032,-164"/>
<text text-anchor="middle" x="982" y="-142.3" font-family="Times,serif" font-size="14.00">add_clusters</text>
</g>
<!-- set_marker_node_Set(129) -->
<!-- set_marker_node_Set(129)&#45;&gt;node_System(109) -->
<g id="edge25" class="edge">
<title>set_marker_node_Set(129)&#45;&gt;node_System(109)</title>
<path fill="none" stroke="black" d="M1328.5,-224.48C1339.79,-228.52 1350.88,-233.31 1361,-239 1371.69,-245.01 1370.18,-252.23 1381,-258 1386.09,-260.71 1391.45,-263.16 1396.95,-265.35"/>
<polygon fill="black" stroke="black" points="1395.67,-268.61 1406.27,-268.76 1398.08,-262.04 1395.67,-268.61"/>
</g>
<!-- set_marker_node_Set(129)&#45;&gt;node_System(110) -->
<g id="edge27" class="edge">
<title>set_marker_node_Set(129)&#45;&gt;node_System(110)</title>
<path fill="none" stroke="black" d="M1328.5,-217.97C1340.55,-223.05 1351.84,-229.87 1361,-239 1384.83,-262.75 1356.65,-288.79 1381,-312 1386.94,-317.67 1393.8,-322.24 1401.18,-325.93"/>
<polygon fill="black" stroke="black" points="1399.55,-329.04 1410.12,-329.82 1402.35,-322.62 1399.55,-329.04"/>
</g>
<!-- set_marker_node_Set(130) -->
<!-- set_marker_node_Set(131) -->
<!-- set_marker_node_Set(131)&#45;&gt;node_System(108) -->
<g id="edge23" class="edge">
<title>set_marker_node_Set(131)&#45;&gt;node_System(108)</title>
<path fill="none" stroke="black" d="M1361,-296C1376.99,-285.58 1365.84,-269.59 1381,-258 1382.18,-257.1 1383.38,-256.23 1384.6,-255.38"/>
<polygon fill="black" stroke="black" points="1386.36,-258.41 1393.09,-250.23 1382.73,-252.43 1386.36,-258.41"/>
</g>
<!-- set_marker_node_Set(132) -->
<!-- set_marker_node_Set(132)&#45;&gt;node_System(111) -->
<g id="edge30" class="edge">
<title>set_marker_node_Set(132)&#45;&gt;node_System(111)</title>
<path fill="none" stroke="black" d="M1625,-366C1654.42,-337.58 1618.14,-213.86 1645,-183 1645.26,-182.7 1645.52,-182.41 1645.79,-182.11"/>
<polygon fill="black" stroke="black" points="1648.02,-184.81 1653.05,-175.49 1643.31,-179.64 1648.02,-184.81"/>
</g>
<!-- set_marker_node_Set(12)&#45;&gt;set_marker_node_Set(6) -->
<g id="edge11" class="edge">
<title>set_marker_node_Set(12)&#45;&gt;set_marker_node_Set(6)</title>
<path fill="none" stroke="black" d="M1525,-39C1563.7,-39 1647.3,-39 1701.53,-39"/>
<polygon fill="black" stroke="black" points="1701.49,-42.5 1711.49,-39 1701.49,-35.5 1701.49,-42.5"/>
</g>
<!-- set_marker_node_Set(58)&#45;&gt;set_marker_node_Set(8) -->
<g id="edge12" class="edge">
<title>set_marker_node_Set(58)&#45;&gt;set_marker_node_Set(8)</title>
<path fill="none" stroke="black" d="M157,-96.09C162.09,-97.24 167.29,-98.4 172.4,-99.55"/>
<polygon fill="black" stroke="black" points="171.35,-102.9 181.87,-101.67 172.88,-96.07 171.35,-102.9"/>
</g>
<!-- set_marker_node_Set(59)&#45;&gt;set_marker_node_Set(12) -->
<g id="edge15" class="edge">
<title>set_marker_node_Set(59)&#45;&gt;set_marker_node_Set(12)</title>
<path fill="none" stroke="black" d="M1278.5,-20C1333.21,-24.65 1422.13,-32.21 1469.65,-36.25"/>
<polygon fill="black" stroke="black" points="1469.23,-39.73 1479.5,-37.09 1469.83,-32.75 1469.23,-39.73"/>
</g>
</g>
</svg>
