<?xml version="1.0" encoding="UTF-8" standalone="no"?>
<!DOCTYPE svg PUBLIC "-//W3C//DTD SVG 1.1//EN"
 "http://www.w3.org/Graphics/SVG/1.1/DTD/svg11.dtd">
<!-- Generated by graphviz version 7.0.6 (0)
 -->
<!-- Title: schedule Pages: 1 -->
<svg width="1494pt" height="176pt"
 viewBox="0.00 0.00 1494.00 176.00" xmlns="http://www.w3.org/2000/svg" xmlns:xlink="http://www.w3.org/1999/xlink">
<g id="graph0" class="graph" transform="scale(1 1) rotate(0) translate(4 172)">
<title>schedule</title>
<polygon fill="white" stroke="none" points="-4,4 -4,-172 1490,-172 1490,4 -4,4"/>
<g id="clust1" class="cluster">
<title>clusternode_Set(0)</title>
<polygon fill="white" stroke="black" points="687,-46 687,-85 752,-85 752,-46 687,-46"/>
<text text-anchor="middle" x="719.5" y="-69.8" font-family="Helvetica,sans-Serif" font-size="14.00">Update</text>
</g>
<g id="clust2" class="cluster">
<title>clusternode_Set(2)</title>
<polygon fill="white" stroke="black" points="70,-55 70,-94 152,-94 152,-55 70,-55"/>
<text text-anchor="middle" x="111" y="-78.8" font-family="Helvetica,sans-Serif" font-size="14.00">FirstFlush</text>
</g>
<g id="clust3" class="cluster">
<title>clusternode_Set(3)</title>
<polygon fill="white" stroke="black" points="283,-46 283,-85 405,-85 405,-46 283,-46"/>
<text text-anchor="middle" x="344" y="-69.8" font-family="Helvetica,sans-Serif" font-size="14.00">PreUpdateFlush</text>
</g>
<g id="clust4" class="cluster">
<title>clusternode_Set(4)</title>
<polygon fill="white" stroke="black" points="772,-46 772,-85 873,-85 873,-46 772,-46"/>
<text text-anchor="middle" x="822.5" y="-69.8" font-family="Helvetica,sans-Serif" font-size="14.00">UpdateFlush</text>
</g>
<g id="clust5" class="cluster">
<title>clusternode_Set(5)</title>
<polygon fill="white" stroke="black" points="1006,-76 1006,-115 1135,-115 1135,-76 1006,-76"/>
<text text-anchor="middle" x="1070.5" y="-99.8" font-family="Helvetica,sans-Serif" font-size="14.00">PostUpdateFlush</text>
</g>
<g id="clust6" class="cluster">
<title>clusternode_Set(6)</title>
<polygon fill="white" stroke="black" points="1361.5,-20 1361.5,-59 1441.5,-59 1441.5,-20 1361.5,-20"/>
<text text-anchor="middle" x="1401.5" y="-43.8" font-family="Helvetica,sans-Serif" font-size="14.00">LastFlush</text>
</g>
<g id="clust7" class="cluster">
<title>clusternode_Set(7)</title>
<polygon fill="white" stroke="black" points="0,-31 0,-70 46,-70 46,-31 0,-31"/>
<text text-anchor="middle" x="23" y="-54.8" font-family="Helvetica,sans-Serif" font-size="14.00">First</text>
</g>
<g id="clust8" class="cluster">
<title>clusternode_Set(8)</title>
<polygon fill="white" stroke="black" points="177,-46 177,-85 263,-85 263,-46 177,-46"/>
<text text-anchor="middle" x="220" y="-69.8" font-family="Helvetica,sans-Serif" font-size="14.00">PreUpdate</text>
</g>
<g id="clust9" class="cluster">
<title>clusternode_Set(9)</title>
<polygon fill="white" stroke="black" points="425,-46 425,-85 547,-85 547,-46 425,-46"/>
<text text-anchor="middle" x="486" y="-69.8" font-family="Helvetica,sans-Serif" font-size="14.00">StateTransitions</text>
</g>
<g id="clust10" class="cluster">
<title>clusternode_Set(10)</title>
<polygon fill="white" stroke="black" points="567,-46 567,-85 667,-85 667,-46 567,-46"/>
<text text-anchor="middle" x="617" y="-69.8" font-family="Helvetica,sans-Serif" font-size="14.00">FixedUpdate</text>
</g>
<g id="clust11" class="cluster">
<title>clusternode_Set(11)</title>
<polygon fill="white" stroke="black" points="893,-46 893,-85 986,-85 986,-46 893,-46"/>
<text text-anchor="middle" x="939.5" y="-69.8" font-family="Helvetica,sans-Serif" font-size="14.00">PostUpdate</text>
</g>
<g id="clust12" class="cluster">
<title>clusternode_Set(12)</title>
<polygon fill="white" stroke="black" points="1155,-67 1155,-160 1478,-160 1478,-67 1155,-67"/>
<text text-anchor="middle" x="1316.5" y="-144.8" font-family="Helvetica,sans-Serif" font-size="14.00">Last</text>
</g>
<g id="clust13" class="cluster">
<title>clusternode_Set(58)</title>
<polygon fill="white" stroke="black" points="66,-8 66,-47 157,-47 157,-8 66,-8"/>
<text text-anchor="middle" x="111.5" y="-31.8" font-family="Helvetica,sans-Serif" font-size="14.00">LoadAssets</text>
</g>
<g id="clust14" class="cluster">
<title>clusternode_Set(59)</title>
<polygon fill="white" stroke="black" points="1022,-29 1022,-68 1118,-68 1118,-29 1022,-29"/>
<text text-anchor="middle" x="1070" y="-52.8" font-family="Helvetica,sans-Serif" font-size="14.00">AssetEvents</text>
</g>
<!-- set_marker_node_Set(0) -->
<!-- set_marker_node_Set(4) -->
<!-- set_marker_node_Set(0)&#45;&gt;set_marker_node_Set(4) -->
<g id="edge7" class="edge">
<title>set_marker_node_Set(0)&#45;&gt;set_marker_node_Set(4)</title>
<path fill="none" stroke="black" d="M752,-54C754.81,-54 757.71,-54 760.65,-54"/>
<polygon fill="black" stroke="black" points="760.49,-57.5 770.49,-54 760.49,-50.5 760.49,-57.5"/>
</g>
<!-- set_marker_node_Set(2) -->
<!-- set_marker_node_Set(8) -->
<!-- set_marker_node_Set(2)&#45;&gt;set_marker_node_Set(8) -->
<g id="edge2" class="edge">
<title>set_marker_node_Set(2)&#45;&gt;set_marker_node_Set(8)</title>
<path fill="none" stroke="black" d="M152,-59.64C156.43,-59.26 161,-58.88 165.57,-58.49"/>
<polygon fill="black" stroke="black" points="165.83,-61.99 175.5,-57.66 165.24,-55.01 165.83,-61.99"/>
</g>
<!-- set_marker_node_Set(3) -->
<!-- set_marker_node_Set(9) -->
<!-- set_marker_node_Set(3)&#45;&gt;set_marker_node_Set(9) -->
<g id="edge4" class="edge">
<title>set_marker_node_Set(3)&#45;&gt;set_marker_node_Set(9)</title>
<path fill="none" stroke="black" d="M405,-54C407.88,-54 410.78,-54 413.68,-54"/>
<polygon fill="black" stroke="black" points="413.49,-57.5 423.49,-54 413.49,-50.5 413.49,-57.5"/>
</g>
<!-- set_marker_node_Set(11) -->
<!-- set_marker_node_Set(4)&#45;&gt;set_marker_node_Set(11) -->
<g id="edge8" class="edge">
<title>set_marker_node_Set(4)&#45;&gt;set_marker_node_Set(11)</title>
<path fill="none" stroke="black" d="M873,-54C875.92,-54 878.88,-54 881.82,-54"/>
<polygon fill="black" stroke="black" points="881.49,-57.5 891.49,-54 881.49,-50.5 881.49,-57.5"/>
</g>
<!-- set_marker_node_Set(5) -->
<!-- set_marker_node_Set(12) -->
<!-- set_marker_node_Set(5)&#45;&gt;set_marker_node_Set(12) -->
<g id="edge10" class="edge">
<title>set_marker_node_Set(5)&#45;&gt;set_marker_node_Set(12)</title>
<path fill="none" stroke="black" d="M1135,-80.35C1137.9,-80.19 1140.83,-80.02 1143.78,-79.85"/>
<polygon fill="black" stroke="black" points="1143.7,-83.36 1153.49,-79.3 1143.31,-76.38 1143.7,-83.36"/>
</g>
<!-- set_marker_node_Set(6) -->
<!-- set_marker_node_Set(7) -->
<!-- set_marker_node_Set(7)&#45;&gt;set_marker_node_Set(2) -->
<g id="edge1" class="edge">
<title>set_marker_node_Set(7)&#45;&gt;set_marker_node_Set(2)</title>
<path fill="none" stroke="black" d="M46,-45.34C52.44,-47.18 59.5,-49.18 66,-51 67.17,-51.33 68.36,-51.66 69.55,-51.99"/>
<polygon fill="black" stroke="black" points="68.45,-55.32 79.02,-54.6 70.31,-48.57 68.45,-55.32"/>
</g>
<!-- set_marker_node_Set(58) -->
<!-- set_marker_node_Set(7)&#45;&gt;set_marker_node_Set(58) -->
<g id="edge13" class="edge">
<title>set_marker_node_Set(7)&#45;&gt;set_marker_node_Set(58)</title>
<path fill="none" stroke="black" d="M46,-33.12C48.89,-32.34 51.94,-31.53 55.09,-30.68"/>
<polygon fill="black" stroke="black" points="55.78,-34.12 64.54,-28.16 53.98,-27.36 55.78,-34.12"/>
</g>
<!-- set_marker_node_Set(8)&#45;&gt;set_marker_node_Set(3) -->
<g id="edge3" class="edge">
<title>set_marker_node_Set(8)&#45;&gt;set_marker_node_Set(3)</title>
<path fill="none" stroke="black" d="M263,-54C265.78,-54 268.62,-54 271.49,-54"/>
<polygon fill="black" stroke="black" points="271.49,-57.5 281.49,-54 271.49,-50.5 271.49,-57.5"/>
</g>
<!-- set_marker_node_Set(10) -->
<!-- set_marker_node_Set(9)&#45;&gt;set_marker_node_Set(10) -->
<g id="edge5" class="edge">
<title>set_marker_node_Set(9)&#45;&gt;set_marker_node_Set(10)</title>
<path fill="none" stroke="black" d="M547,-54C549.86,-54 552.74,-54 555.6,-54"/>
<polygon fill="black" stroke="black" points="555.49,-57.5 565.49,-54 555.49,-50.5 555.49,-57.5"/>
</g>
<!-- set_marker_node_Set(10)&#45;&gt;set_marker_node_Set(0) -->
<g id="edge6" class="edge">
<title>set_marker_node_Set(10)&#45;&gt;set_marker_node_Set(0)</title>
<path fill="none" stroke="black" d="M667,-54C669.85,-54 672.71,-54 675.54,-54"/>
<polygon fill="black" stroke="black" points="675.49,-57.5 685.49,-54 675.49,-50.5 675.49,-57.5"/>
</g>
<!-- set_marker_node_Set(11)&#45;&gt;set_marker_node_Set(5) -->
<g id="edge9" class="edge">
<title>set_marker_node_Set(11)&#45;&gt;set_marker_node_Set(5)</title>
<path fill="none" stroke="black" d="M986,-67.04C992.69,-68.79 999.51,-70.5 1006,-72 1008.44,-72.56 1010.94,-73.12 1013.47,-73.67"/>
<polygon fill="black" stroke="black" points="1012.66,-77.08 1023.16,-75.69 1014.09,-70.23 1012.66,-77.08"/>
</g>
<!-- set_marker_node_Set(59) -->
<!-- set_marker_node_Set(11)&#45;&gt;set_marker_node_Set(59) -->
<g id="edge14" class="edge">
<title>set_marker_node_Set(11)&#45;&gt;set_marker_node_Set(59)</title>
<path fill="none" stroke="black" d="M986,-47.94C994.06,-46.88 1002.54,-45.76 1010.87,-44.66"/>
<polygon fill="black" stroke="black" points="1011.05,-48.17 1020.5,-43.39 1010.13,-41.23 1011.05,-48.17"/>
</g>
<!-- set_marker_node_Set(12)&#45;&gt;set_marker_node_Set(6) -->
<g id="edge11" class="edge">
<title>set_marker_node_Set(12)&#45;&gt;set_marker_node_Set(6)</title>
<path fill="none" stroke="black" d="M1259.84,-67C1284.63,-60.13 1320.96,-50.06 1350.48,-41.87"/>
<polygon fill="black" stroke="black" points="1351.34,-45.26 1360.04,-39.22 1349.47,-38.52 1351.34,-45.26"/>
</g>
<!-- node_System(57) -->
<g id="node13" class="node">
<title>node_System(57)</title>
<polygon fill="white" stroke="black" points="1297,-129 1163,-129 1163,-93 1297,-93 1297,-129"/>
<text text-anchor="middle" x="1230" y="-107.3" font-family="Times,serif" font-size="14.00">changed_window</text>
</g>
<!-- node_System(58) -->
<g id="node14" class="node">
<title>node_System(58)</title>
<polygon fill="white" stroke="black" points="1470,-129 1333,-129 1333,-93 1470,-93 1470,-129"/>
<text text-anchor="middle" x="1401.5" y="-107.3" font-family="Times,serif" font-size="14.00">despawn_window</text>
</g>
<!-- node_System(57)&#45;&gt;node_System(58) -->
<g id="edge16" class="edge">
<title>node_System(57)&#45;&gt;node_System(58)</title>
<path fill="none" stroke="black" d="M1297.02,-111C1304.98,-111 1313.17,-111 1321.3,-111"/>
<polygon fill="black" stroke="black" points="1321.19,-114.5 1331.19,-111 1321.19,-107.5 1321.19,-114.5"/>
</g>
<!-- set_marker_node_Set(58)&#45;&gt;set_marker_node_Set(8) -->
<g id="edge12" class="edge">
<title>set_marker_node_Set(58)&#45;&gt;set_marker_node_Set(8)</title>
<path fill="none" stroke="black" d="M157,-31.98C166.64,-35.4 176.66,-38.96 185.76,-42.19"/>
<polygon fill="black" stroke="black" points="184.46,-45.45 195.06,-45.5 186.8,-38.85 184.46,-45.45"/>
</g>
<!-- set_marker_node_Set(59)&#45;&gt;set_marker_node_Set(12) -->
<g id="edge15" class="edge">
<title>set_marker_node_Set(59)&#45;&gt;set_marker_node_Set(12)</title>
<path fill="none" stroke="black" d="M1118,-48.3C1139.09,-53.38 1163.85,-59.33 1184.62,-64.33"/>
<polygon fill="black" stroke="black" points="1183.74,-67.71 1194.28,-66.65 1185.38,-60.91 1183.74,-67.71"/>
</g>
</g>
</svg>
