<?xml version="1.0" encoding="UTF-8" standalone="no"?>
<!DOCTYPE svg PUBLIC "-//W3C//DTD SVG 1.1//EN"
 "http://www.w3.org/Graphics/SVG/1.1/DTD/svg11.dtd">
<!-- Generated by graphviz version 7.0.6 (0)
 -->
<!-- Title: schedule Pages: 1 -->
<svg width="1787pt" height="613pt"
 viewBox="0.00 0.00 1787.00 613.42" xmlns="http://www.w3.org/2000/svg" xmlns:xlink="http://www.w3.org/1999/xlink">
<g id="graph0" class="graph" transform="scale(1 1) rotate(0) translate(4 609.42)">
<title>schedule</title>
<polygon fill="white" stroke="none" points="-4,4 -4,-609.42 1783,-609.42 1783,4 -4,4"/>
<g id="clust1" class="cluster">
<title>clusternode_Set(0)</title>
<polygon fill="white" stroke="black" points="687,-102 687,-141 752,-141 752,-102 687,-102"/>
<text text-anchor="middle" x="719.5" y="-125.8" font-family="Helvetica,sans-Serif" font-size="14.00">Update</text>
</g>
<g id="clust2" class="cluster">
<title>clusternode_Set(2)</title>
<polygon fill="white" stroke="black" points="70,-125 70,-164 152,-164 152,-125 70,-125"/>
<text text-anchor="middle" x="111" y="-148.8" font-family="Helvetica,sans-Serif" font-size="14.00">FirstFlush</text>
</g>
<g id="clust3" class="cluster">
<title>clusternode_Set(3)</title>
<polygon fill="white" stroke="black" points="283,-102 283,-141 405,-141 405,-102 283,-102"/>
<text text-anchor="middle" x="344" y="-125.8" font-family="Helvetica,sans-Serif" font-size="14.00">PreUpdateFlush</text>
</g>
<g id="clust4" class="cluster">
<title>clusternode_Set(4)</title>
<polygon fill="white" stroke="black" points="772,-102 772,-141 873,-141 873,-102 772,-102"/>
<text text-anchor="middle" x="822.5" y="-125.8" font-family="Helvetica,sans-Serif" font-size="14.00">UpdateFlush</text>
</g>
<g id="clust5" class="cluster">
<title>clusternode_Set(5)</title>
<polygon fill="white" stroke="black" points="1309,-55 1309,-94 1438,-94 1438,-55 1309,-55"/>
<text text-anchor="middle" x="1373.5" y="-78.8" font-family="Helvetica,sans-Serif" font-size="14.00">PostUpdateFlush</text>
</g>
<g id="clust6" class="cluster">
<title>clusternode_Set(6)</title>
<polygon fill="white" stroke="black" points="1699,-31 1699,-70 1779,-70 1779,-31 1699,-31"/>
<text text-anchor="middle" x="1739" y="-54.8" font-family="Helvetica,sans-Serif" font-size="14.00">LastFlush</text>
</g>
<g id="clust7" class="cluster">
<title>clusternode_Set(7)</title>
<polygon fill="white" stroke="black" points="0,-101 0,-140 46,-140 46,-101 0,-101"/>
<text text-anchor="middle" x="23" y="-124.8" font-family="Helvetica,sans-Serif" font-size="14.00">First</text>
</g>
<g id="clust8" class="cluster">
<title>clusternode_Set(8)</title>
<polygon fill="white" stroke="black" points="177,-102 177,-141 263,-141 263,-102 177,-102"/>
<text text-anchor="middle" x="220" y="-125.8" font-family="Helvetica,sans-Serif" font-size="14.00">PreUpdate</text>
</g>
<g id="clust9" class="cluster">
<title>clusternode_Set(9)</title>
<polygon fill="white" stroke="black" points="425,-102 425,-141 547,-141 547,-102 425,-102"/>
<text text-anchor="middle" x="486" y="-125.8" font-family="Helvetica,sans-Serif" font-size="14.00">StateTransitions</text>
</g>
<g id="clust10" class="cluster">
<title>clusternode_Set(10)</title>
<polygon fill="white" stroke="black" points="567,-102 567,-141 667,-141 667,-102 567,-102"/>
<text text-anchor="middle" x="617" y="-125.8" font-family="Helvetica,sans-Serif" font-size="14.00">FixedUpdate</text>
</g>
<g id="clust11" class="cluster">
<title>clusternode_Set(11)</title>
<polygon fill="white" stroke="black" points="885,-102 885,-594 1687,-594 1687,-102 885,-102"/>
<text text-anchor="middle" x="1286" y="-578.8" font-family="Helvetica,sans-Serif" font-size="14.00">PostUpdate</text>
</g>
<g id="clust12" class="cluster">
<title>clusternode_Set(20)</title>
<polygon fill="white" stroke="black" points="973,-478 973,-517 1123,-517 1123,-478 973,-478"/>
<text text-anchor="middle" x="1048" y="-501.8" font-family="Helvetica,sans-Serif" font-size="14.00">TransformPropagate</text>
</g>
<g id="clust13" class="cluster">
<title>clusternode_Set(76)</title>
<polygon fill="white" stroke="black" points="893,-269 893,-470 1203,-470 1203,-269 893,-269"/>
<text text-anchor="middle" x="1048" y="-454.8" font-family="Helvetica,sans-Serif" font-size="14.00">CameraUpdateSystem</text>
</g>
<g id="clust14" class="cluster">
<title>clusternode_Set(80)</title>
<polygon fill="white" stroke="black" points="973.5,-157 973.5,-250 1122.5,-250 1122.5,-157 973.5,-157"/>
<text text-anchor="middle" x="1048" y="-234.8" font-family="Helvetica,sans-Serif" font-size="14.00">CalculateBounds</text>
</g>
<g id="clust15" class="cluster">
<title>clusternode_Set(81)</title>
<polygon fill="white" stroke="black" points="1291,-211 1291,-250 1455,-250 1455,-211 1291,-211"/>
<text text-anchor="middle" x="1373" y="-234.8" font-family="Helvetica,sans-Serif" font-size="14.00">CalculateBoundsFlush</text>
</g>
<g id="clust16" class="cluster">
<title>clusternode_Set(82)</title>
<polygon fill="white" stroke="black" points="1223,-258 1223,-351 1523,-351 1523,-258 1223,-258"/>
<text text-anchor="middle" x="1373" y="-335.8" font-family="Helvetica,sans-Serif" font-size="14.00">UpdateOrthographicFrusta</text>
</g>
<g id="clust17" class="cluster">
<title>clusternode_Set(83)</title>
<polygon fill="white" stroke="black" points="1229.5,-359 1229.5,-452 1516.5,-452 1516.5,-359 1229.5,-359"/>
<text text-anchor="middle" x="1373" y="-436.8" font-family="Helvetica,sans-Serif" font-size="14.00">UpdatePerspectiveFrusta</text>
</g>
<g id="clust18" class="cluster">
<title>clusternode_Set(84)</title>
<polygon fill="white" stroke="black" points="1268,-460 1268,-553 1478,-553 1478,-460 1268,-460"/>
<text text-anchor="middle" x="1373" y="-537.8" font-family="Helvetica,sans-Serif" font-size="14.00">UpdateProjectionFrusta</text>
</g>
<g id="clust19" class="cluster">
<title>clusternode_Set(85)</title>
<polygon fill="white" stroke="black" points="1543,-344 1543,-437 1679,-437 1679,-344 1543,-344"/>
<text text-anchor="middle" x="1611" y="-421.8" font-family="Helvetica,sans-Serif" font-size="14.00">CheckVisibility</text>
</g>
<g id="clust20" class="cluster">
<title>clusternode_Set(86)</title>
<polygon fill="white" stroke="black" points="1263.5,-110 1263.5,-203 1482.5,-203 1482.5,-110 1263.5,-110"/>
<text text-anchor="middle" x="1373" y="-187.8" font-family="Helvetica,sans-Serif" font-size="14.00">VisibilityPropagate</text>
</g>
<g id="clust21" class="cluster">
<title>clusternode_Set(12)</title>
<polygon fill="white" stroke="black" points="1589,-31 1589,-70 1633,-70 1633,-31 1589,-31"/>
<text text-anchor="middle" x="1611" y="-54.8" font-family="Helvetica,sans-Serif" font-size="14.00">Last</text>
</g>
<g id="clust22" class="cluster">
<title>clusternode_Set(58)</title>
<polygon fill="white" stroke="black" points="66,-78 66,-117 157,-117 157,-78 66,-78"/>
<text text-anchor="middle" x="111.5" y="-101.8" font-family="Helvetica,sans-Serif" font-size="14.00">LoadAssets</text>
</g>
<g id="clust23" class="cluster">
<title>clusternode_Set(59)</title>
<polygon fill="white" stroke="black" points="1325,-8 1325,-47 1421,-47 1421,-8 1325,-8"/>
<text text-anchor="middle" x="1373" y="-31.8" font-family="Helvetica,sans-Serif" font-size="14.00">AssetEvents</text>
</g>
<!-- set_marker_node_Set(0) -->
<!-- set_marker_node_Set(4) -->
<!-- set_marker_node_Set(0)&#45;&gt;set_marker_node_Set(4) -->
<g id="edge7" class="edge">
<title>set_marker_node_Set(0)&#45;&gt;set_marker_node_Set(4)</title>
<path fill="none" stroke="black" d="M752,-110C754.81,-110 757.71,-110 760.65,-110"/>
<polygon fill="black" stroke="black" points="760.49,-113.5 770.49,-110 760.49,-106.5 760.49,-113.5"/>
</g>
<!-- set_marker_node_Set(2) -->
<!-- set_marker_node_Set(8) -->
<!-- set_marker_node_Set(2)&#45;&gt;set_marker_node_Set(8) -->
<g id="edge2" class="edge">
<title>set_marker_node_Set(2)&#45;&gt;set_marker_node_Set(8)</title>
<path fill="none" stroke="black" d="M149.21,-125C154.62,-123.84 160.27,-122.62 165.92,-121.41"/>
<polygon fill="black" stroke="black" points="166.48,-124.87 175.53,-119.35 165.01,-118.02 166.48,-124.87"/>
</g>
<!-- set_marker_node_Set(3) -->
<!-- set_marker_node_Set(9) -->
<!-- set_marker_node_Set(3)&#45;&gt;set_marker_node_Set(9) -->
<g id="edge4" class="edge">
<title>set_marker_node_Set(3)&#45;&gt;set_marker_node_Set(9)</title>
<path fill="none" stroke="black" d="M405,-110C407.88,-110 410.78,-110 413.68,-110"/>
<polygon fill="black" stroke="black" points="413.49,-113.5 423.49,-110 413.49,-106.5 413.49,-113.5"/>
</g>
<!-- set_marker_node_Set(11) -->
<!-- set_marker_node_Set(4)&#45;&gt;set_marker_node_Set(11) -->
<g id="edge8" class="edge">
<title>set_marker_node_Set(4)&#45;&gt;set_marker_node_Set(11)</title>
<path fill="none" stroke="black" d="M873,-110C873.18,-110 873.36,-110 873.54,-110"/>
<polygon fill="black" stroke="black" points="873.49,-113.5 883.49,-110 873.49,-106.5 873.49,-113.5"/>
</g>
<!-- set_marker_node_Set(5) -->
<!-- set_marker_node_Set(12) -->
<!-- set_marker_node_Set(5)&#45;&gt;set_marker_node_Set(12) -->
<g id="edge10" class="edge">
<title>set_marker_node_Set(5)&#45;&gt;set_marker_node_Set(12)</title>
<path fill="none" stroke="black" d="M1438,-58.65C1464.36,-56.64 1495.18,-54.04 1523,-51 1541.19,-49.01 1561.45,-46.25 1577.84,-43.88"/>
<polygon fill="black" stroke="black" points="1578.12,-47.38 1587.5,-42.46 1577.1,-40.45 1578.12,-47.38"/>
</g>
<!-- set_marker_node_Set(6) -->
<!-- set_marker_node_Set(7) -->
<!-- set_marker_node_Set(7)&#45;&gt;set_marker_node_Set(2) -->
<g id="edge1" class="edge">
<title>set_marker_node_Set(7)&#45;&gt;set_marker_node_Set(2)</title>
<path fill="none" stroke="black" d="M46,-115.34C52.44,-117.18 59.5,-119.18 66,-121 67.17,-121.33 68.36,-121.66 69.55,-121.99"/>
<polygon fill="black" stroke="black" points="68.45,-125.32 79.02,-124.6 70.31,-118.57 68.45,-125.32"/>
</g>
<!-- set_marker_node_Set(58) -->
<!-- set_marker_node_Set(7)&#45;&gt;set_marker_node_Set(58) -->
<g id="edge13" class="edge">
<title>set_marker_node_Set(7)&#45;&gt;set_marker_node_Set(58)</title>
<path fill="none" stroke="black" d="M46,-103.12C48.89,-102.34 51.94,-101.53 55.09,-100.68"/>
<polygon fill="black" stroke="black" points="55.78,-104.12 64.54,-98.16 53.98,-97.36 55.78,-104.12"/>
</g>
<!-- set_marker_node_Set(8)&#45;&gt;set_marker_node_Set(3) -->
<g id="edge3" class="edge">
<title>set_marker_node_Set(8)&#45;&gt;set_marker_node_Set(3)</title>
<path fill="none" stroke="black" d="M263,-110C265.78,-110 268.62,-110 271.49,-110"/>
<polygon fill="black" stroke="black" points="271.49,-113.5 281.49,-110 271.49,-106.5 271.49,-113.5"/>
</g>
<!-- set_marker_node_Set(10) -->
<!-- set_marker_node_Set(9)&#45;&gt;set_marker_node_Set(10) -->
<g id="edge5" class="edge">
<title>set_marker_node_Set(9)&#45;&gt;set_marker_node_Set(10)</title>
<path fill="none" stroke="black" d="M547,-110C549.86,-110 552.74,-110 555.6,-110"/>
<polygon fill="black" stroke="black" points="555.49,-113.5 565.49,-110 555.49,-106.5 555.49,-113.5"/>
</g>
<!-- set_marker_node_Set(10)&#45;&gt;set_marker_node_Set(0) -->
<g id="edge6" class="edge">
<title>set_marker_node_Set(10)&#45;&gt;set_marker_node_Set(0)</title>
<path fill="none" stroke="black" d="M667,-110C669.85,-110 672.71,-110 675.54,-110"/>
<polygon fill="black" stroke="black" points="675.49,-113.5 685.49,-110 675.49,-106.5 675.49,-113.5"/>
</g>
<!-- set_marker_node_Set(11)&#45;&gt;set_marker_node_Set(5) -->
<g id="edge9" class="edge">
<title>set_marker_node_Set(11)&#45;&gt;set_marker_node_Set(5)</title>
<path fill="none" stroke="black" d="M1103.96,-102C1157.33,-94.24 1238.71,-82.4 1297.8,-73.8"/>
<polygon fill="black" stroke="black" points="1298.11,-77.29 1307.5,-72.39 1297.1,-70.36 1298.11,-77.29"/>
</g>
<!-- set_marker_node_Set(59) -->
<!-- set_marker_node_Set(11)&#45;&gt;set_marker_node_Set(59) -->
<g id="edge14" class="edge">
<title>set_marker_node_Set(11)&#45;&gt;set_marker_node_Set(59)</title>
<path fill="none" stroke="black" d="M1070.39,-102C1103.02,-89.98 1167.29,-66.95 1223,-51 1252.73,-42.49 1286.22,-34.48 1313.92,-28.28"/>
<polygon fill="black" stroke="black" points="1314.52,-31.73 1323.53,-26.15 1313.01,-24.9 1314.52,-31.73"/>
</g>
<!-- set_marker_node_Set(20) -->
<!-- node_System(68) -->
<g id="node21" class="node">
<title>node_System(68)</title>
<polygon fill="white" stroke="black" points="1515,-302 1231,-302 1231,-266 1515,-266 1515,-302"/>
<text text-anchor="middle" x="1373" y="-280.3" font-family="Times,serif" font-size="14.00">update_frusta&lt;OrthographicProjection&gt;</text>
</g>
<!-- set_marker_node_Set(20)&#45;&gt;node_System(68) -->
<g id="edge18" class="edge">
<title>set_marker_node_Set(20)&#45;&gt;node_System(68)</title>
<path fill="none" stroke="black" d="M1123,-498.68C1151.45,-499.27 1182.09,-494 1203,-474 1255.74,-423.55 1172.89,-364.06 1223,-311 1223.37,-310.61 1223.75,-310.22 1224.13,-309.83"/>
<polygon fill="black" stroke="black" points="1226.25,-312.62 1231.46,-303.4 1221.64,-307.36 1226.25,-312.62"/>
</g>
<!-- node_System(69) -->
<g id="node23" class="node">
<title>node_System(69)</title>
<polygon fill="white" stroke="black" points="1508.5,-403 1237.5,-403 1237.5,-367 1508.5,-367 1508.5,-403"/>
<text text-anchor="middle" x="1373" y="-381.3" font-family="Times,serif" font-size="14.00">update_frusta&lt;PerspectiveProjection&gt;</text>
</g>
<!-- set_marker_node_Set(20)&#45;&gt;node_System(69) -->
<g id="edge20" class="edge">
<title>set_marker_node_Set(20)&#45;&gt;node_System(69)</title>
<path fill="none" stroke="black" d="M1123,-496.61C1150.68,-496.66 1180.77,-491.55 1203,-474 1225.73,-456.06 1201.21,-431.07 1223,-412 1224.5,-410.69 1226.03,-409.43 1227.61,-408.23"/>
<polygon fill="black" stroke="black" points="1229.43,-411.23 1235.77,-402.73 1225.52,-405.42 1229.43,-411.23"/>
</g>
<!-- node_System(70) -->
<g id="node25" class="node">
<title>node_System(70)</title>
<polygon fill="white" stroke="black" points="1470,-504 1276,-504 1276,-468 1470,-468 1470,-504"/>
<text text-anchor="middle" x="1373" y="-482.3" font-family="Times,serif" font-size="14.00">update_frusta&lt;Projection&gt;</text>
</g>
<!-- set_marker_node_Set(20)&#45;&gt;node_System(70) -->
<g id="edge22" class="edge">
<title>set_marker_node_Set(20)&#45;&gt;node_System(70)</title>
<path fill="none" stroke="black" d="M1123,-486C1164.89,-486 1218.04,-486 1264.47,-486"/>
<polygon fill="black" stroke="black" points="1264.41,-489.5 1274.41,-486 1264.41,-482.5 1264.41,-489.5"/>
</g>
<!-- node_System(72) -->
<g id="node27" class="node">
<title>node_System(72)</title>
<polygon fill="white" stroke="black" points="1671,-388 1551,-388 1551,-352 1671,-352 1671,-388"/>
<text text-anchor="middle" x="1611" y="-366.3" font-family="Times,serif" font-size="14.00">check_visibility</text>
</g>
<!-- set_marker_node_Set(20)&#45;&gt;node_System(72) -->
<g id="edge28" class="edge">
<title>set_marker_node_Set(20)&#45;&gt;node_System(72)</title>
<path fill="none" stroke="black" d="M1100.75,-517C1196.7,-570.02 1403.29,-662.68 1523,-557 1576.73,-509.57 1499.29,-453.79 1543,-397 1543.24,-396.69 1543.48,-396.39 1543.72,-396.09"/>
<polygon fill="black" stroke="black" points="1545.94,-398.81 1550.71,-389.35 1541.08,-393.77 1545.94,-398.81"/>
</g>
<!-- set_marker_node_Set(76) -->
<!-- node_System(63) -->
<g id="node14" class="node">
<title>node_System(63)</title>
<polygon fill="white" stroke="black" points="1150,-421 946,-421 946,-385 1150,-385 1150,-421"/>
<text text-anchor="middle" x="1048" y="-399.3" font-family="Times,serif" font-size="14.00">camera_system&lt;Projection&gt;</text>
</g>
<!-- node_System(63)&#45;&gt;node_System(70) -->
<g id="edge21" class="edge">
<title>node_System(63)&#45;&gt;node_System(70)</title>
<path fill="none" stroke="black" d="M1150.22,-409.74C1168.67,-413.96 1187.09,-420.37 1203,-430 1215.47,-437.55 1210.62,-448.29 1223,-456 1235.71,-463.91 1250.1,-469.79 1264.81,-474.15"/>
<polygon fill="black" stroke="black" points="1263.52,-477.43 1274.09,-476.66 1265.35,-470.67 1263.52,-477.43"/>
</g>
<!-- node_System(64) -->
<g id="node15" class="node">
<title>node_System(64)</title>
<polygon fill="white" stroke="black" points="1195,-313 901,-313 901,-277 1195,-277 1195,-313"/>
<text text-anchor="middle" x="1048" y="-291.3" font-family="Times,serif" font-size="14.00">camera_system&lt;OrthographicProjection&gt;</text>
</g>
<!-- node_System(64)&#45;&gt;node_System(68) -->
<g id="edge17" class="edge">
<title>node_System(64)&#45;&gt;node_System(68)</title>
<path fill="none" stroke="black" d="M1195.38,-290.01C1203.23,-289.75 1211.13,-289.48 1219,-289.21"/>
<polygon fill="black" stroke="black" points="1219.12,-292.71 1228.99,-288.87 1218.88,-285.71 1219.12,-292.71"/>
</g>
<!-- node_System(65) -->
<g id="node16" class="node">
<title>node_System(65)</title>
<polygon fill="white" stroke="black" points="1188.5,-367 907.5,-367 907.5,-331 1188.5,-331 1188.5,-367"/>
<text text-anchor="middle" x="1048" y="-345.3" font-family="Times,serif" font-size="14.00">camera_system&lt;PerspectiveProjection&gt;</text>
</g>
<!-- node_System(65)&#45;&gt;node_System(69) -->
<g id="edge19" class="edge">
<title>node_System(65)&#45;&gt;node_System(69)</title>
<path fill="none" stroke="black" d="M1188.79,-364.58C1201.06,-365.95 1213.51,-367.33 1225.83,-368.71"/>
<polygon fill="black" stroke="black" points="1225.27,-372.17 1235.59,-369.8 1226.04,-365.21 1225.27,-372.17"/>
</g>
<!-- set_marker_node_Set(80) -->
<!-- set_marker_node_Set(81) -->
<!-- set_marker_node_Set(80)&#45;&gt;set_marker_node_Set(81) -->
<g id="edge16" class="edge">
<title>set_marker_node_Set(80)&#45;&gt;set_marker_node_Set(81)</title>
<path fill="none" stroke="black" d="M1122.5,-219C1169.13,-219 1229.84,-219 1279.71,-219"/>
<polygon fill="black" stroke="black" points="1279.49,-222.5 1289.49,-219 1279.49,-215.5 1279.49,-222.5"/>
</g>
<!-- node_System(67) -->
<g id="node18" class="node">
<title>node_System(67)</title>
<polygon fill="white" stroke="black" points="1114.5,-201 981.5,-201 981.5,-165 1114.5,-165 1114.5,-201"/>
<text text-anchor="middle" x="1048" y="-179.3" font-family="Times,serif" font-size="14.00">calculate_bounds</text>
</g>
<!-- set_marker_node_Set(81)&#45;&gt;node_System(72) -->
<g id="edge23" class="edge">
<title>set_marker_node_Set(81)&#45;&gt;node_System(72)</title>
<path fill="none" stroke="black" d="M1455,-227.46C1478.31,-232.6 1502.85,-240.83 1523,-254 1556.3,-275.77 1581.64,-314.86 1596.16,-341.6"/>
<polygon fill="black" stroke="black" points="1592.91,-342.95 1600.66,-350.18 1599.11,-339.7 1592.91,-342.95"/>
</g>
<!-- set_marker_node_Set(82) -->
<!-- set_marker_node_Set(82)&#45;&gt;node_System(72) -->
<g id="edge24" class="edge">
<title>set_marker_node_Set(82)&#45;&gt;node_System(72)</title>
<path fill="none" stroke="black" d="M1520.3,-351C1526.83,-352.38 1533.24,-353.74 1539.43,-355.05"/>
<polygon fill="black" stroke="black" points="1538.65,-358.46 1549.16,-357.11 1540.1,-351.61 1538.65,-358.46"/>
</g>
<!-- set_marker_node_Set(83) -->
<!-- set_marker_node_Set(83)&#45;&gt;node_System(72) -->
<g id="edge25" class="edge">
<title>set_marker_node_Set(83)&#45;&gt;node_System(72)</title>
<path fill="none" stroke="black" d="M1516.5,-414.23C1518.69,-413.53 1520.86,-412.79 1523,-412 1533.43,-408.17 1533.32,-402.46 1543,-397 1545.17,-395.77 1547.42,-394.58 1549.7,-393.41"/>
<polygon fill="black" stroke="black" points="1551.06,-396.64 1558.56,-389.15 1548.03,-390.33 1551.06,-396.64"/>
</g>
<!-- set_marker_node_Set(84) -->
<!-- set_marker_node_Set(84)&#45;&gt;node_System(72) -->
<g id="edge26" class="edge">
<title>set_marker_node_Set(84)&#45;&gt;node_System(72)</title>
<path fill="none" stroke="black" d="M1478,-533.23C1494.6,-530.37 1510.42,-524.26 1523,-513 1561.98,-478.1 1510.14,-437.71 1543,-397 1543.24,-396.7 1543.49,-396.4 1543.74,-396.1"/>
<polygon fill="black" stroke="black" points="1545.93,-398.85 1550.86,-389.47 1541.16,-393.73 1545.93,-398.85"/>
</g>
<!-- set_marker_node_Set(85) -->
<!-- set_marker_node_Set(86) -->
<!-- set_marker_node_Set(86)&#45;&gt;node_System(72) -->
<g id="edge27" class="edge">
<title>set_marker_node_Set(86)&#45;&gt;node_System(72)</title>
<path fill="none" stroke="black" d="M1482.5,-185.88C1497.03,-190.95 1511.03,-197.79 1523,-207 1567.05,-240.88 1591.32,-303.56 1602.41,-340.54"/>
<polygon fill="black" stroke="black" points="1599.04,-341.46 1605.14,-350.12 1605.77,-339.54 1599.04,-341.46"/>
</g>
<!-- node_System(71) -->
<g id="node29" class="node">
<title>node_System(71)</title>
<polygon fill="white" stroke="black" points="1474.5,-154 1271.5,-154 1271.5,-118 1474.5,-118 1474.5,-154"/>
<text text-anchor="middle" x="1373" y="-132.3" font-family="Times,serif" font-size="14.00">visibility_propagate_system</text>
</g>
<!-- set_marker_node_Set(12)&#45;&gt;set_marker_node_Set(6) -->
<g id="edge11" class="edge">
<title>set_marker_node_Set(12)&#45;&gt;set_marker_node_Set(6)</title>
<path fill="none" stroke="black" d="M1633,-39C1647.92,-39 1668.61,-39 1687.69,-39"/>
<polygon fill="black" stroke="black" points="1687.49,-42.5 1697.49,-39 1687.49,-35.5 1687.49,-42.5"/>
</g>
<!-- set_marker_node_Set(58)&#45;&gt;set_marker_node_Set(8) -->
<g id="edge12" class="edge">
<title>set_marker_node_Set(58)&#45;&gt;set_marker_node_Set(8)</title>
<path fill="none" stroke="black" d="M157,-96.09C162.09,-97.24 167.29,-98.4 172.4,-99.55"/>
<polygon fill="black" stroke="black" points="171.35,-102.9 181.87,-101.67 172.88,-96.07 171.35,-102.9"/>
</g>
<!-- set_marker_node_Set(59)&#45;&gt;set_marker_node_Set(12) -->
<g id="edge15" class="edge">
<title>set_marker_node_Set(59)&#45;&gt;set_marker_node_Set(12)</title>
<path fill="none" stroke="black" d="M1421,-20.58C1467.38,-25.1 1537.06,-31.89 1577.59,-35.84"/>
<polygon fill="black" stroke="black" points="1577.2,-39.32 1587.5,-36.81 1577.88,-32.35 1577.2,-39.32"/>
</g>
</g>
</svg>
