<?xml version="1.0" encoding="UTF-8" standalone="no"?>
<!DOCTYPE svg PUBLIC "-//W3C//DTD SVG 1.1//EN"
 "http://www.w3.org/Graphics/SVG/1.1/DTD/svg11.dtd">
<!-- Generated by graphviz version 7.0.6 (0)
 -->
<!-- Title: schedule Pages: 1 -->
<svg width="1391pt" height="140pt"
 viewBox="0.00 0.00 1391.00 140.00" xmlns="http://www.w3.org/2000/svg" xmlns:xlink="http://www.w3.org/1999/xlink">
<g id="graph0" class="graph" transform="scale(1 1) rotate(0) translate(4 136)">
<title>schedule</title>
<polygon fill="white" stroke="none" points="-4,4 -4,-136 1387,-136 1387,4 -4,4"/>
<g id="clust1" class="cluster">
<title>clusternode_Set(0)</title>
<polygon fill="white" stroke="black" points="687,-62 687,-101 752,-101 752,-62 687,-62"/>
<text text-anchor="middle" x="719.5" y="-85.8" font-family="Helvetica,sans-Serif" font-size="14.00">Update</text>
</g>
<g id="clust2" class="cluster">
<title>clusternode_Set(2)</title>
<polygon fill="white" stroke="black" points="70,-85 70,-124 152,-124 152,-85 70,-85"/>
<text text-anchor="middle" x="111" y="-108.8" font-family="Helvetica,sans-Serif" font-size="14.00">FirstFlush</text>
</g>
<g id="clust3" class="cluster">
<title>clusternode_Set(3)</title>
<polygon fill="white" stroke="black" points="283,-62 283,-101 405,-101 405,-62 283,-62"/>
<text text-anchor="middle" x="344" y="-85.8" font-family="Helvetica,sans-Serif" font-size="14.00">PreUpdateFlush</text>
</g>
<g id="clust4" class="cluster">
<title>clusternode_Set(4)</title>
<polygon fill="white" stroke="black" points="772,-62 772,-101 873,-101 873,-62 772,-62"/>
<text text-anchor="middle" x="822.5" y="-85.8" font-family="Helvetica,sans-Serif" font-size="14.00">UpdateFlush</text>
</g>
<g id="clust5" class="cluster">
<title>clusternode_Set(5)</title>
<polygon fill="white" stroke="black" points="1090,-73 1090,-112 1219,-112 1219,-73 1090,-73"/>
<text text-anchor="middle" x="1154.5" y="-96.8" font-family="Helvetica,sans-Serif" font-size="14.00">PostUpdateFlush</text>
</g>
<g id="clust6" class="cluster">
<title>clusternode_Set(6)</title>
<polygon fill="white" stroke="black" points="1303,-49 1303,-88 1383,-88 1383,-49 1303,-49"/>
<text text-anchor="middle" x="1343" y="-72.8" font-family="Helvetica,sans-Serif" font-size="14.00">LastFlush</text>
</g>
<g id="clust7" class="cluster">
<title>clusternode_Set(7)</title>
<polygon fill="white" stroke="black" points="0,-61 0,-100 46,-100 46,-61 0,-61"/>
<text text-anchor="middle" x="23" y="-84.8" font-family="Helvetica,sans-Serif" font-size="14.00">First</text>
</g>
<g id="clust8" class="cluster">
<title>clusternode_Set(8)</title>
<polygon fill="white" stroke="black" points="177,-62 177,-101 263,-101 263,-62 177,-62"/>
<text text-anchor="middle" x="220" y="-85.8" font-family="Helvetica,sans-Serif" font-size="14.00">PreUpdate</text>
</g>
<g id="clust9" class="cluster">
<title>clusternode_Set(9)</title>
<polygon fill="white" stroke="black" points="425,-62 425,-101 547,-101 547,-62 425,-62"/>
<text text-anchor="middle" x="486" y="-85.8" font-family="Helvetica,sans-Serif" font-size="14.00">StateTransitions</text>
</g>
<g id="clust10" class="cluster">
<title>clusternode_Set(10)</title>
<polygon fill="white" stroke="black" points="567,-62 567,-101 667,-101 667,-62 567,-62"/>
<text text-anchor="middle" x="617" y="-85.8" font-family="Helvetica,sans-Serif" font-size="14.00">FixedUpdate</text>
</g>
<g id="clust11" class="cluster">
<title>clusternode_Set(11)</title>
<polygon fill="white" stroke="black" points="893,-8 893,-101 1070,-101 1070,-8 893,-8"/>
<text text-anchor="middle" x="981.5" y="-85.8" font-family="Helvetica,sans-Serif" font-size="14.00">PostUpdate</text>
</g>
<g id="clust12" class="cluster">
<title>clusternode_Set(12)</title>
<polygon fill="white" stroke="black" points="1239,-49 1239,-88 1283,-88 1283,-49 1239,-49"/>
<text text-anchor="middle" x="1261" y="-72.8" font-family="Helvetica,sans-Serif" font-size="14.00">Last</text>
</g>
<g id="clust13" class="cluster">
<title>clusternode_Set(58)</title>
<polygon fill="white" stroke="black" points="66,-38 66,-77 157,-77 157,-38 66,-38"/>
<text text-anchor="middle" x="111.5" y="-61.8" font-family="Helvetica,sans-Serif" font-size="14.00">LoadAssets</text>
</g>
<g id="clust14" class="cluster">
<title>clusternode_Set(59)</title>
<polygon fill="white" stroke="black" points="1106,-26 1106,-65 1202,-65 1202,-26 1106,-26"/>
<text text-anchor="middle" x="1154" y="-49.8" font-family="Helvetica,sans-Serif" font-size="14.00">AssetEvents</text>
</g>
<!-- set_marker_node_Set(0) -->
<!-- set_marker_node_Set(4) -->
<!-- set_marker_node_Set(0)&#45;&gt;set_marker_node_Set(4) -->
<g id="edge7" class="edge">
<title>set_marker_node_Set(0)&#45;&gt;set_marker_node_Set(4)</title>
<path fill="none" stroke="black" d="M752,-70C754.81,-70 757.71,-70 760.65,-70"/>
<polygon fill="black" stroke="black" points="760.49,-73.5 770.49,-70 760.49,-66.5 760.49,-73.5"/>
</g>
<!-- set_marker_node_Set(2) -->
<!-- set_marker_node_Set(8) -->
<!-- set_marker_node_Set(2)&#45;&gt;set_marker_node_Set(8) -->
<g id="edge2" class="edge">
<title>set_marker_node_Set(2)&#45;&gt;set_marker_node_Set(8)</title>
<path fill="none" stroke="black" d="M149.21,-85C154.62,-83.84 160.27,-82.62 165.92,-81.41"/>
<polygon fill="black" stroke="black" points="166.48,-84.87 175.53,-79.35 165.01,-78.02 166.48,-84.87"/>
</g>
<!-- set_marker_node_Set(3) -->
<!-- set_marker_node_Set(9) -->
<!-- set_marker_node_Set(3)&#45;&gt;set_marker_node_Set(9) -->
<g id="edge4" class="edge">
<title>set_marker_node_Set(3)&#45;&gt;set_marker_node_Set(9)</title>
<path fill="none" stroke="black" d="M405,-70C407.88,-70 410.78,-70 413.68,-70"/>
<polygon fill="black" stroke="black" points="413.49,-73.5 423.49,-70 413.49,-66.5 413.49,-73.5"/>
</g>
<!-- set_marker_node_Set(11) -->
<!-- set_marker_node_Set(4)&#45;&gt;set_marker_node_Set(11) -->
<g id="edge8" class="edge">
<title>set_marker_node_Set(4)&#45;&gt;set_marker_node_Set(11)</title>
<path fill="none" stroke="black" d="M873,-70C875.82,-70 878.71,-70 881.63,-70"/>
<polygon fill="black" stroke="black" points="881.49,-73.5 891.49,-70 881.49,-66.5 881.49,-73.5"/>
</g>
<!-- set_marker_node_Set(5) -->
<!-- set_marker_node_Set(12) -->
<!-- set_marker_node_Set(5)&#45;&gt;set_marker_node_Set(12) -->
<g id="edge10" class="edge">
<title>set_marker_node_Set(5)&#45;&gt;set_marker_node_Set(12)</title>
<path fill="none" stroke="black" d="M1200.71,-73C1206.88,-71.76 1213.11,-70.41 1219,-69 1221.97,-68.29 1225.04,-67.5 1228.11,-66.67"/>
<polygon fill="black" stroke="black" points="1228.88,-70.09 1237.55,-63.99 1226.97,-63.35 1228.88,-70.09"/>
</g>
<!-- set_marker_node_Set(6) -->
<!-- set_marker_node_Set(7) -->
<!-- set_marker_node_Set(7)&#45;&gt;set_marker_node_Set(2) -->
<g id="edge1" class="edge">
<title>set_marker_node_Set(7)&#45;&gt;set_marker_node_Set(2)</title>
<path fill="none" stroke="black" d="M46,-75.34C52.44,-77.18 59.5,-79.18 66,-81 67.17,-81.33 68.36,-81.66 69.55,-81.99"/>
<polygon fill="black" stroke="black" points="68.45,-85.32 79.02,-84.6 70.31,-78.57 68.45,-85.32"/>
</g>
<!-- set_marker_node_Set(58) -->
<!-- set_marker_node_Set(7)&#45;&gt;set_marker_node_Set(58) -->
<g id="edge13" class="edge">
<title>set_marker_node_Set(7)&#45;&gt;set_marker_node_Set(58)</title>
<path fill="none" stroke="black" d="M46,-63.12C48.89,-62.34 51.94,-61.53 55.09,-60.68"/>
<polygon fill="black" stroke="black" points="55.78,-64.12 64.54,-58.16 53.98,-57.36 55.78,-64.12"/>
</g>
<!-- set_marker_node_Set(8)&#45;&gt;set_marker_node_Set(3) -->
<g id="edge3" class="edge">
<title>set_marker_node_Set(8)&#45;&gt;set_marker_node_Set(3)</title>
<path fill="none" stroke="black" d="M263,-70C265.78,-70 268.62,-70 271.49,-70"/>
<polygon fill="black" stroke="black" points="271.49,-73.5 281.49,-70 271.49,-66.5 271.49,-73.5"/>
</g>
<!-- set_marker_node_Set(10) -->
<!-- set_marker_node_Set(9)&#45;&gt;set_marker_node_Set(10) -->
<g id="edge5" class="edge">
<title>set_marker_node_Set(9)&#45;&gt;set_marker_node_Set(10)</title>
<path fill="none" stroke="black" d="M547,-70C549.86,-70 552.74,-70 555.6,-70"/>
<polygon fill="black" stroke="black" points="555.49,-73.5 565.49,-70 555.49,-66.5 555.49,-73.5"/>
</g>
<!-- set_marker_node_Set(10)&#45;&gt;set_marker_node_Set(0) -->
<g id="edge6" class="edge">
<title>set_marker_node_Set(10)&#45;&gt;set_marker_node_Set(0)</title>
<path fill="none" stroke="black" d="M667,-70C669.85,-70 672.71,-70 675.54,-70"/>
<polygon fill="black" stroke="black" points="675.49,-73.5 685.49,-70 675.49,-66.5 675.49,-73.5"/>
</g>
<!-- set_marker_node_Set(11)&#45;&gt;set_marker_node_Set(5) -->
<g id="edge9" class="edge">
<title>set_marker_node_Set(11)&#45;&gt;set_marker_node_Set(5)</title>
<path fill="none" stroke="black" d="M1070,-75.65C1072.93,-75.83 1075.86,-76.02 1078.77,-76.21"/>
<polygon fill="black" stroke="black" points="1078.29,-79.69 1088.49,-76.84 1078.74,-72.7 1078.29,-79.69"/>
</g>
<!-- set_marker_node_Set(59) -->
<!-- set_marker_node_Set(11)&#45;&gt;set_marker_node_Set(59) -->
<g id="edge14" class="edge">
<title>set_marker_node_Set(11)&#45;&gt;set_marker_node_Set(59)</title>
<path fill="none" stroke="black" d="M1070,-61C1078.23,-59.26 1086.8,-57 1095.16,-54.54"/>
<polygon fill="black" stroke="black" points="1096.03,-57.93 1104.56,-51.65 1093.97,-51.24 1096.03,-57.93"/>
</g>
<!-- node_System(94) -->
<g id="node12" class="node">
<title>node_System(94)</title>
<polygon fill="white" stroke="black" points="1062,-52 901,-52 901,-16 1062,-16 1062,-52"/>
<text text-anchor="middle" x="981.5" y="-30.3" font-family="Times,serif" font-size="14.00">update_text2d_layout</text>
</g>
<!-- set_marker_node_Set(12)&#45;&gt;set_marker_node_Set(6) -->
<g id="edge11" class="edge">
<title>set_marker_node_Set(12)&#45;&gt;set_marker_node_Set(6)</title>
<path fill="none" stroke="black" d="M1283,-57C1285.72,-57 1288.6,-57 1291.56,-57"/>
<polygon fill="black" stroke="black" points="1291.49,-60.5 1301.49,-57 1291.49,-53.5 1291.49,-60.5"/>
</g>
<!-- set_marker_node_Set(58)&#45;&gt;set_marker_node_Set(8) -->
<g id="edge12" class="edge">
<title>set_marker_node_Set(58)&#45;&gt;set_marker_node_Set(8)</title>
<path fill="none" stroke="black" d="M157,-56.09C162.09,-57.24 167.29,-58.4 172.4,-59.55"/>
<polygon fill="black" stroke="black" points="171.35,-62.9 181.87,-61.67 172.88,-56.07 171.35,-62.9"/>
</g>
<!-- set_marker_node_Set(59)&#45;&gt;set_marker_node_Set(12) -->
<g id="edge15" class="edge">
<title>set_marker_node_Set(59)&#45;&gt;set_marker_node_Set(12)</title>
<path fill="none" stroke="black" d="M1202,-44.3C1210.82,-46.23 1219.85,-48.21 1228.08,-50.01"/>
<polygon fill="black" stroke="black" points="1227.01,-53.36 1237.52,-52.08 1228.5,-46.52 1227.01,-53.36"/>
</g>
</g>
</svg>
