<?xml version="1.0" encoding="UTF-8" standalone="no"?>
<!DOCTYPE svg PUBLIC "-//W3C//DTD SVG 1.1//EN"
 "http://www.w3.org/Graphics/SVG/1.1/DTD/svg11.dtd">
<!-- Generated by graphviz version 7.1.0 (0)
 -->
<!-- Title: schedule Pages: 1 -->
<svg width="2094pt" height="1148pt"
 viewBox="0.00 0.00 2094.00 1148.00" xmlns="http://www.w3.org/2000/svg" xmlns:xlink="http://www.w3.org/1999/xlink">
<g id="graph0" class="graph" transform="scale(1 1) rotate(0) translate(4 1144)">
<title>schedule</title>
<polygon fill="white" stroke="none" points="-4,4 -4,-1144 2090,-1144 2090,4 -4,4"/>
<g id="clust1" class="cluster">
<title>clusternode_Set(0)</title>
<polygon fill="white" stroke="black" points="1177,-1057 1177,-1096 1242,-1096 1242,-1057 1177,-1057"/>
<text text-anchor="middle" x="1209.5" y="-1080.8" font-family="Helvetica,sans-Serif" font-size="14.00">Update</text>
</g>
<g id="clust2" class="cluster">
<title>clusternode_Set(2)</title>
<polygon fill="white" stroke="black" points="250,-1081 250,-1120 332,-1120 332,-1081 250,-1081"/>
<text text-anchor="middle" x="291" y="-1104.8" font-family="Helvetica,sans-Serif" font-size="14.00">FirstFlush</text>
</g>
<g id="clust3" class="cluster">
<title>clusternode_Set(3)</title>
<polygon fill="white" stroke="black" points="770,-1057 770,-1096 893,-1096 893,-1057 770,-1057"/>
<text text-anchor="middle" x="831.5" y="-1080.8" font-family="Helvetica,sans-Serif" font-size="14.00">PreUpdateFlush</text>
</g>
<g id="clust4" class="cluster">
<title>clusternode_Set(4)</title>
<polygon fill="white" stroke="black" points="1262,-1057 1262,-1096 1363,-1096 1363,-1057 1262,-1057"/>
<text text-anchor="middle" x="1312.5" y="-1080.8" font-family="Helvetica,sans-Serif" font-size="14.00">UpdateFlush</text>
</g>
<g id="clust5" class="cluster">
<title>clusternode_Set(5)</title>
<polygon fill="white" stroke="black" points="1645,-1093 1645,-1132 1774,-1132 1774,-1093 1645,-1093"/>
<text text-anchor="middle" x="1709.5" y="-1116.8" font-family="Helvetica,sans-Serif" font-size="14.00">PostUpdateFlush</text>
</g>
<g id="clust6" class="cluster">
<title>clusternode_Set(6)</title>
<polygon fill="white" stroke="black" points="2006,-1069 2006,-1108 2086,-1108 2086,-1069 2006,-1069"/>
<text text-anchor="middle" x="2046" y="-1092.8" font-family="Helvetica,sans-Serif" font-size="14.00">LastFlush</text>
</g>
<g id="clust7" class="cluster">
<title>clusternode_Set(7)</title>
<polygon fill="white" stroke="black" points="0,-1057 0,-1096 46,-1096 46,-1057 0,-1057"/>
<text text-anchor="middle" x="23" y="-1080.8" font-family="Helvetica,sans-Serif" font-size="14.00">First</text>
</g>
<g id="clust8" class="cluster">
<title>clusternode_Set(8)</title>
<polygon fill="white" stroke="black" points="536,-1003 536,-1096 750,-1096 750,-1003 536,-1003"/>
<text text-anchor="middle" x="643" y="-1080.8" font-family="Helvetica,sans-Serif" font-size="14.00">PreUpdate</text>
</g>
<g id="clust9" class="cluster">
<title>clusternode_Set(9)</title>
<polygon fill="white" stroke="black" points="913,-1057 913,-1096 1037,-1096 1037,-1057 913,-1057"/>
<text text-anchor="middle" x="975" y="-1080.8" font-family="Helvetica,sans-Serif" font-size="14.00">StateTransitions</text>
</g>
<g id="clust10" class="cluster">
<title>clusternode_Set(10)</title>
<polygon fill="white" stroke="black" points="1057,-1057 1057,-1096 1157,-1096 1157,-1057 1057,-1057"/>
<text text-anchor="middle" x="1107" y="-1080.8" font-family="Helvetica,sans-Serif" font-size="14.00">FixedUpdate</text>
</g>
<g id="clust11" class="cluster">
<title>clusternode_Set(11)</title>
<polygon fill="white" stroke="black" points="1383,-1057 1383,-1096 1476,-1096 1476,-1057 1383,-1057"/>
<text text-anchor="middle" x="1429.5" y="-1080.8" font-family="Helvetica,sans-Serif" font-size="14.00">PostUpdate</text>
</g>
<g id="clust12" class="cluster">
<title>clusternode_Set(12)</title>
<polygon fill="white" stroke="black" points="1942,-1069 1942,-1108 1986,-1108 1986,-1069 1942,-1069"/>
<text text-anchor="middle" x="1964" y="-1092.8" font-family="Helvetica,sans-Serif" font-size="14.00">Last</text>
</g>
<g id="clust13" class="cluster">
<title>clusternode_Set(58)</title>
<polygon fill="white" stroke="black" points="66,-8 66,-1073 516,-1073 516,-8 66,-8"/>
<text text-anchor="middle" x="291" y="-1057.8" font-family="Helvetica,sans-Serif" font-size="14.00">LoadAssets</text>
</g>
<g id="clust14" class="cluster">
<title>clusternode_Set(59)</title>
<polygon fill="white" stroke="black" points="1496,-74 1496,-1085 1922,-1085 1922,-74 1496,-74"/>
<text text-anchor="middle" x="1709" y="-1069.8" font-family="Helvetica,sans-Serif" font-size="14.00">AssetEvents</text>
</g>
<!-- set_marker_node_Set(0) -->
<!-- set_marker_node_Set(4) -->
<!-- set_marker_node_Set(0)&#45;&gt;set_marker_node_Set(4) -->
<g id="edge7" class="edge">
<title>set_marker_node_Set(0)&#45;&gt;set_marker_node_Set(4)</title>
<path fill="none" stroke="black" d="M1242,-1065C1244.81,-1065 1247.71,-1065 1250.65,-1065"/>
<polygon fill="black" stroke="black" points="1250.49,-1068.5 1260.49,-1065 1250.49,-1061.5 1250.49,-1068.5"/>
</g>
<!-- set_marker_node_Set(2) -->
<!-- set_marker_node_Set(8) -->
<!-- set_marker_node_Set(2)&#45;&gt;set_marker_node_Set(8) -->
<g id="edge2" class="edge">
<title>set_marker_node_Set(2)&#45;&gt;set_marker_node_Set(8)</title>
<path fill="none" stroke="black" d="M332,-1087.36C376.83,-1085.4 451.68,-1081.78 516,-1077 518.85,-1076.79 521.74,-1076.57 524.66,-1076.34"/>
<polygon fill="black" stroke="black" points="524.81,-1079.84 534.49,-1075.54 524.24,-1072.86 524.81,-1079.84"/>
</g>
<!-- set_marker_node_Set(3) -->
<!-- set_marker_node_Set(9) -->
<!-- set_marker_node_Set(3)&#45;&gt;set_marker_node_Set(9) -->
<g id="edge4" class="edge">
<title>set_marker_node_Set(3)&#45;&gt;set_marker_node_Set(9)</title>
<path fill="none" stroke="black" d="M893,-1065C895.83,-1065 898.68,-1065 901.54,-1065"/>
<polygon fill="black" stroke="black" points="901.49,-1068.5 911.49,-1065 901.49,-1061.5 901.49,-1068.5"/>
</g>
<!-- set_marker_node_Set(11) -->
<!-- set_marker_node_Set(4)&#45;&gt;set_marker_node_Set(11) -->
<g id="edge8" class="edge">
<title>set_marker_node_Set(4)&#45;&gt;set_marker_node_Set(11)</title>
<path fill="none" stroke="black" d="M1363,-1065C1365.92,-1065 1368.88,-1065 1371.82,-1065"/>
<polygon fill="black" stroke="black" points="1371.49,-1068.5 1381.49,-1065 1371.49,-1061.5 1371.49,-1068.5"/>
</g>
<!-- set_marker_node_Set(5) -->
<!-- set_marker_node_Set(12) -->
<!-- set_marker_node_Set(5)&#45;&gt;set_marker_node_Set(12) -->
<g id="edge10" class="edge">
<title>set_marker_node_Set(5)&#45;&gt;set_marker_node_Set(12)</title>
<path fill="none" stroke="black" d="M1774,-1101.16C1816.29,-1100.35 1872.78,-1097.48 1922,-1089 1924.99,-1088.48 1928.07,-1087.83 1931.14,-1087.09"/>
<polygon fill="black" stroke="black" points="1931.8,-1090.53 1940.54,-1084.54 1929.97,-1083.78 1931.8,-1090.53"/>
</g>
<!-- set_marker_node_Set(6) -->
<!-- set_marker_node_Set(7) -->
<!-- set_marker_node_Set(7)&#45;&gt;set_marker_node_Set(2) -->
<g id="edge1" class="edge">
<title>set_marker_node_Set(7)&#45;&gt;set_marker_node_Set(2)</title>
<path fill="none" stroke="black" d="M46,-1072.29C52.38,-1074.13 59.41,-1075.9 66,-1077 124.63,-1086.82 192.99,-1089.19 238.62,-1089.51"/>
<polygon fill="black" stroke="black" points="238.47,-1093.01 248.49,-1089.55 238.5,-1086.01 238.47,-1093.01"/>
</g>
<!-- set_marker_node_Set(58) -->
<!-- set_marker_node_Set(7)&#45;&gt;set_marker_node_Set(58) -->
<g id="edge13" class="edge">
<title>set_marker_node_Set(7)&#45;&gt;set_marker_node_Set(58)</title>
<path fill="none" stroke="black" d="M46,-1063.1C48.69,-1062.87 51.58,-1062.62 54.66,-1062.35"/>
<polygon fill="black" stroke="black" points="54.83,-1065.85 64.49,-1061.5 54.23,-1058.87 54.83,-1065.85"/>
</g>
<!-- set_marker_node_Set(8)&#45;&gt;set_marker_node_Set(3) -->
<g id="edge3" class="edge">
<title>set_marker_node_Set(8)&#45;&gt;set_marker_node_Set(3)</title>
<path fill="none" stroke="black" d="M750,-1065C752.89,-1065 755.76,-1065 758.61,-1065"/>
<polygon fill="black" stroke="black" points="758.49,-1068.5 768.49,-1065 758.49,-1061.5 758.49,-1068.5"/>
</g>
<!-- node_System(47) -->
<g id="node9" class="node">
<title>node_System(47)</title>
<polygon fill="white" stroke="black" points="742,-1047 544,-1047 544,-1011 742,-1011 742,-1047"/>
<text text-anchor="middle" x="643" y="-1025.3" font-family="Times,serif" font-size="14.00">free_unused_assets_system</text>
</g>
<!-- set_marker_node_Set(10) -->
<!-- set_marker_node_Set(9)&#45;&gt;set_marker_node_Set(10) -->
<g id="edge5" class="edge">
<title>set_marker_node_Set(9)&#45;&gt;set_marker_node_Set(10)</title>
<path fill="none" stroke="black" d="M1037,-1065C1039.97,-1065 1042.95,-1065 1045.92,-1065"/>
<polygon fill="black" stroke="black" points="1045.49,-1068.5 1055.49,-1065 1045.49,-1061.5 1045.49,-1068.5"/>
</g>
<!-- set_marker_node_Set(10)&#45;&gt;set_marker_node_Set(0) -->
<g id="edge6" class="edge">
<title>set_marker_node_Set(10)&#45;&gt;set_marker_node_Set(0)</title>
<path fill="none" stroke="black" d="M1157,-1065C1159.85,-1065 1162.71,-1065 1165.54,-1065"/>
<polygon fill="black" stroke="black" points="1165.49,-1068.5 1175.49,-1065 1165.49,-1061.5 1165.49,-1068.5"/>
</g>
<!-- set_marker_node_Set(11)&#45;&gt;set_marker_node_Set(5) -->
<g id="edge9" class="edge">
<title>set_marker_node_Set(11)&#45;&gt;set_marker_node_Set(5)</title>
<path fill="none" stroke="black" d="M1476,-1083.65C1482.62,-1085.77 1489.42,-1087.65 1496,-1089 1541.14,-1098.27 1592.74,-1101.35 1633.73,-1102.08"/>
<polygon fill="black" stroke="black" points="1633.44,-1105.57 1643.49,-1102.2 1633.53,-1098.57 1633.44,-1105.57"/>
</g>
<!-- set_marker_node_Set(59) -->
<!-- set_marker_node_Set(11)&#45;&gt;set_marker_node_Set(59) -->
<g id="edge14" class="edge">
<title>set_marker_node_Set(11)&#45;&gt;set_marker_node_Set(59)</title>
<path fill="none" stroke="black" d="M1476,-1063.18C1478.77,-1063.07 1481.64,-1062.96 1484.58,-1062.84"/>
<polygon fill="black" stroke="black" points="1484.63,-1066.34 1494.49,-1062.45 1484.36,-1059.35 1484.63,-1066.34"/>
</g>
<!-- set_marker_node_Set(12)&#45;&gt;set_marker_node_Set(6) -->
<g id="edge11" class="edge">
<title>set_marker_node_Set(12)&#45;&gt;set_marker_node_Set(6)</title>
<path fill="none" stroke="black" d="M1986,-1077C1988.72,-1077 1991.6,-1077 1994.56,-1077"/>
<polygon fill="black" stroke="black" points="1994.49,-1080.5 2004.49,-1077 1994.49,-1073.5 1994.49,-1080.5"/>
</g>
<!-- set_marker_node_Set(58)&#45;&gt;set_marker_node_Set(8) -->
<g id="edge12" class="edge">
<title>set_marker_node_Set(58)&#45;&gt;set_marker_node_Set(8)</title>
<path fill="none" stroke="black" d="M516,-1056.72C518.86,-1056.91 521.71,-1057.1 524.53,-1057.28"/>
<polygon fill="black" stroke="black" points="524.28,-1060.77 534.49,-1057.94 524.74,-1053.79 524.28,-1060.77"/>
</g>
<!-- node_System(48) -->
<g id="node15" class="node">
<title>node_System(48)</title>
<polygon fill="white" stroke="black" points="391,-1024 191,-1024 191,-988 391,-988 391,-1024"/>
<text text-anchor="middle" x="291" y="-1002.3" font-family="Times,serif" font-size="14.00">filesystem_watcher_system</text>
</g>
<!-- node_System(50) -->
<g id="node16" class="node">
<title>node_System(50)</title>
<polygon fill="white" stroke="black" points="454,-970 128,-970 128,-934 454,-934 454,-970"/>
<text text-anchor="middle" x="291" y="-948.3" font-family="Times,serif" font-size="14.00">update_asset_storage_system&lt;DynamicScene&gt;</text>
</g>
<!-- node_System(53) -->
<g id="node17" class="node">
<title>node_System(53)</title>
<polygon fill="white" stroke="black" points="423.5,-916 158.5,-916 158.5,-880 423.5,-880 423.5,-916"/>
<text text-anchor="middle" x="291" y="-894.3" font-family="Times,serif" font-size="14.00">update_asset_storage_system&lt;Scene&gt;</text>
</g>
<!-- node_System(60) -->
<g id="node18" class="node">
<title>node_System(60)</title>
<polygon fill="white" stroke="black" points="428,-862 154,-862 154,-826 428,-826 428,-862"/>
<text text-anchor="middle" x="291" y="-840.3" font-family="Times,serif" font-size="14.00">update_asset_storage_system&lt;Shader&gt;</text>
</g>
<!-- node_System(74) -->
<g id="node19" class="node">
<title>node_System(74)</title>
<polygon fill="white" stroke="black" points="422.5,-808 159.5,-808 159.5,-772 422.5,-772 422.5,-808"/>
<text text-anchor="middle" x="291" y="-786.3" font-family="Times,serif" font-size="14.00">update_asset_storage_system&lt;Mesh&gt;</text>
</g>
<!-- node_System(77) -->
<g id="node20" class="node">
<title>node_System(77)</title>
<polygon fill="white" stroke="black" points="508,-754 74,-754 74,-718 508,-718 508,-754"/>
<text text-anchor="middle" x="291" y="-732.3" font-family="Times,serif" font-size="14.00">update_asset_storage_system&lt;SkinnedMeshInverseBindposes&gt;</text>
</g>
<!-- node_System(80) -->
<g id="node21" class="node">
<title>node_System(80)</title>
<polygon fill="white" stroke="black" points="425.5,-700 156.5,-700 156.5,-664 425.5,-664 425.5,-700"/>
<text text-anchor="middle" x="291" y="-678.3" font-family="Times,serif" font-size="14.00">update_asset_storage_system&lt;Image&gt;</text>
</g>
<!-- node_System(83) -->
<g id="node22" class="node">
<title>node_System(83)</title>
<polygon fill="white" stroke="black" points="447.5,-646 134.5,-646 134.5,-610 447.5,-610 447.5,-646"/>
<text text-anchor="middle" x="291" y="-624.3" font-family="Times,serif" font-size="14.00">update_asset_storage_system&lt;TextureAtlas&gt;</text>
</g>
<!-- node_System(86) -->
<g id="node23" class="node">
<title>node_System(86)</title>
<polygon fill="white" stroke="black" points="451.5,-592 130.5,-592 130.5,-556 451.5,-556 451.5,-592"/>
<text text-anchor="middle" x="291" y="-570.3" font-family="Times,serif" font-size="14.00">update_asset_storage_system&lt;ColorMaterial&gt;</text>
</g>
<!-- node_System(89) -->
<g id="node24" class="node">
<title>node_System(89)</title>
<polygon fill="white" stroke="black" points="419.5,-538 162.5,-538 162.5,-502 419.5,-502 419.5,-538"/>
<text text-anchor="middle" x="291" y="-516.3" font-family="Times,serif" font-size="14.00">update_asset_storage_system&lt;Font&gt;</text>
</g>
<!-- node_System(92) -->
<g id="node25" class="node">
<title>node_System(92)</title>
<polygon fill="white" stroke="black" points="446.5,-484 135.5,-484 135.5,-448 446.5,-448 446.5,-484"/>
<text text-anchor="middle" x="291" y="-462.3" font-family="Times,serif" font-size="14.00">update_asset_storage_system&lt;FontAtlasSet&gt;</text>
</g>
<!-- node_System(102) -->
<g id="node26" class="node">
<title>node_System(102)</title>
<polygon fill="white" stroke="black" points="464.5,-430 117.5,-430 117.5,-394 464.5,-394 464.5,-430"/>
<text text-anchor="middle" x="291" y="-408.3" font-family="Times,serif" font-size="14.00">update_asset_storage_system&lt;StandardMaterial&gt;</text>
</g>
<!-- node_System(113) -->
<g id="node27" class="node">
<title>node_System(113)</title>
<polygon fill="white" stroke="black" points="416.5,-376 165.5,-376 165.5,-340 416.5,-340 416.5,-376"/>
<text text-anchor="middle" x="291" y="-354.3" font-family="Times,serif" font-size="14.00">update_asset_storage_system&lt;Gltf&gt;</text>
</g>
<!-- node_System(116) -->
<g id="node28" class="node">
<title>node_System(116)</title>
<polygon fill="white" stroke="black" points="434,-322 148,-322 148,-286 434,-286 434,-322"/>
<text text-anchor="middle" x="291" y="-300.3" font-family="Times,serif" font-size="14.00">update_asset_storage_system&lt;GltfNode&gt;</text>
</g>
<!-- node_System(119) -->
<g id="node29" class="node">
<title>node_System(119)</title>
<polygon fill="white" stroke="black" points="448,-268 134,-268 134,-232 448,-232 448,-268"/>
<text text-anchor="middle" x="291" y="-246.3" font-family="Times,serif" font-size="14.00">update_asset_storage_system&lt;GltfPrimitive&gt;</text>
</g>
<!-- node_System(122) -->
<g id="node30" class="node">
<title>node_System(122)</title>
<polygon fill="white" stroke="black" points="434.5,-214 147.5,-214 147.5,-178 434.5,-178 434.5,-214"/>
<text text-anchor="middle" x="291" y="-192.3" font-family="Times,serif" font-size="14.00">update_asset_storage_system&lt;GltfMesh&gt;</text>
</g>
<!-- node_System(125) -->
<g id="node31" class="node">
<title>node_System(125)</title>
<polygon fill="white" stroke="black" points="447,-160 135,-160 135,-124 447,-124 447,-160"/>
<text text-anchor="middle" x="291" y="-138.3" font-family="Times,serif" font-size="14.00">update_asset_storage_system&lt;AudioSource&gt;</text>
</g>
<!-- node_System(128) -->
<g id="node32" class="node">
<title>node_System(128)</title>
<polygon fill="white" stroke="black" points="439,-106 143,-106 143,-70 439,-70 439,-106"/>
<text text-anchor="middle" x="291" y="-84.3" font-family="Times,serif" font-size="14.00">update_asset_storage_system&lt;AudioSink&gt;</text>
</g>
<!-- node_System(133) -->
<g id="node33" class="node">
<title>node_System(133)</title>
<polygon fill="white" stroke="black" points="453,-52 129,-52 129,-16 453,-16 453,-52"/>
<text text-anchor="middle" x="291" y="-30.3" font-family="Times,serif" font-size="14.00">update_asset_storage_system&lt;AnimationClip&gt;</text>
</g>
<!-- set_marker_node_Set(59)&#45;&gt;set_marker_node_Set(12) -->
<g id="edge15" class="edge">
<title>set_marker_node_Set(59)&#45;&gt;set_marker_node_Set(12)</title>
<path fill="none" stroke="black" d="M1922,-1073.27C1925.06,-1073.55 1928,-1073.82 1930.8,-1074.07"/>
<polygon fill="black" stroke="black" points="1930.22,-1077.53 1940.5,-1074.95 1930.86,-1070.56 1930.22,-1077.53"/>
</g>
<!-- node_System(49) -->
<g id="node35" class="node">
<title>node_System(49)</title>
<polygon fill="white" stroke="black" points="1860,-1036 1558,-1036 1558,-1000 1860,-1000 1860,-1036"/>
<text text-anchor="middle" x="1709" y="-1014.3" font-family="Times,serif" font-size="14.00">Assets&lt;DynamicScene&gt;asset_event_system</text>
</g>
<!-- node_System(52) -->
<g id="node36" class="node">
<title>node_System(52)</title>
<polygon fill="white" stroke="black" points="1829.5,-982 1588.5,-982 1588.5,-946 1829.5,-946 1829.5,-982"/>
<text text-anchor="middle" x="1709" y="-960.3" font-family="Times,serif" font-size="14.00">Assets&lt;Scene&gt;asset_event_system</text>
</g>
<!-- node_System(59) -->
<g id="node37" class="node">
<title>node_System(59)</title>
<polygon fill="white" stroke="black" points="1834,-928 1584,-928 1584,-892 1834,-892 1834,-928"/>
<text text-anchor="middle" x="1709" y="-906.3" font-family="Times,serif" font-size="14.00">Assets&lt;Shader&gt;asset_event_system</text>
</g>
<!-- node_System(73) -->
<g id="node38" class="node">
<title>node_System(73)</title>
<polygon fill="white" stroke="black" points="1828.5,-874 1589.5,-874 1589.5,-838 1828.5,-838 1828.5,-874"/>
<text text-anchor="middle" x="1709" y="-852.3" font-family="Times,serif" font-size="14.00">Assets&lt;Mesh&gt;asset_event_system</text>
</g>
<!-- node_System(76) -->
<g id="node39" class="node">
<title>node_System(76)</title>
<polygon fill="white" stroke="black" points="1914,-820 1504,-820 1504,-784 1914,-784 1914,-820"/>
<text text-anchor="middle" x="1709" y="-798.3" font-family="Times,serif" font-size="14.00">Assets&lt;SkinnedMeshInverseBindposes&gt;asset_event_system</text>
</g>
<!-- node_System(79) -->
<g id="node40" class="node">
<title>node_System(79)</title>
<polygon fill="white" stroke="black" points="1831.5,-766 1586.5,-766 1586.5,-730 1831.5,-730 1831.5,-766"/>
<text text-anchor="middle" x="1709" y="-744.3" font-family="Times,serif" font-size="14.00">Assets&lt;Image&gt;asset_event_system</text>
</g>
<!-- node_System(82) -->
<g id="node41" class="node">
<title>node_System(82)</title>
<polygon fill="white" stroke="black" points="1853.5,-712 1564.5,-712 1564.5,-676 1853.5,-676 1853.5,-712"/>
<text text-anchor="middle" x="1709" y="-690.3" font-family="Times,serif" font-size="14.00">Assets&lt;TextureAtlas&gt;asset_event_system</text>
</g>
<!-- node_System(85) -->
<g id="node42" class="node">
<title>node_System(85)</title>
<polygon fill="white" stroke="black" points="1857.5,-658 1560.5,-658 1560.5,-622 1857.5,-622 1857.5,-658"/>
<text text-anchor="middle" x="1709" y="-636.3" font-family="Times,serif" font-size="14.00">Assets&lt;ColorMaterial&gt;asset_event_system</text>
</g>
<!-- node_System(88) -->
<g id="node43" class="node">
<title>node_System(88)</title>
<polygon fill="white" stroke="black" points="1825.5,-604 1592.5,-604 1592.5,-568 1825.5,-568 1825.5,-604"/>
<text text-anchor="middle" x="1709" y="-582.3" font-family="Times,serif" font-size="14.00">Assets&lt;Font&gt;asset_event_system</text>
</g>
<!-- node_System(91) -->
<g id="node44" class="node">
<title>node_System(91)</title>
<polygon fill="white" stroke="black" points="1852.5,-550 1565.5,-550 1565.5,-514 1852.5,-514 1852.5,-550"/>
<text text-anchor="middle" x="1709" y="-528.3" font-family="Times,serif" font-size="14.00">Assets&lt;FontAtlasSet&gt;asset_event_system</text>
</g>
<!-- node_System(101) -->
<g id="node45" class="node">
<title>node_System(101)</title>
<polygon fill="white" stroke="black" points="1870.5,-496 1547.5,-496 1547.5,-460 1870.5,-460 1870.5,-496"/>
<text text-anchor="middle" x="1709" y="-474.3" font-family="Times,serif" font-size="14.00">Assets&lt;StandardMaterial&gt;asset_event_system</text>
</g>
<!-- node_System(112) -->
<g id="node46" class="node">
<title>node_System(112)</title>
<polygon fill="white" stroke="black" points="1822.5,-442 1595.5,-442 1595.5,-406 1822.5,-406 1822.5,-442"/>
<text text-anchor="middle" x="1709" y="-420.3" font-family="Times,serif" font-size="14.00">Assets&lt;Gltf&gt;asset_event_system</text>
</g>
<!-- node_System(115) -->
<g id="node47" class="node">
<title>node_System(115)</title>
<polygon fill="white" stroke="black" points="1840,-388 1578,-388 1578,-352 1840,-352 1840,-388"/>
<text text-anchor="middle" x="1709" y="-366.3" font-family="Times,serif" font-size="14.00">Assets&lt;GltfNode&gt;asset_event_system</text>
</g>
<!-- node_System(118) -->
<g id="node48" class="node">
<title>node_System(118)</title>
<polygon fill="white" stroke="black" points="1854,-334 1564,-334 1564,-298 1854,-298 1854,-334"/>
<text text-anchor="middle" x="1709" y="-312.3" font-family="Times,serif" font-size="14.00">Assets&lt;GltfPrimitive&gt;asset_event_system</text>
</g>
<!-- node_System(121) -->
<g id="node49" class="node">
<title>node_System(121)</title>
<polygon fill="white" stroke="black" points="1840.5,-280 1577.5,-280 1577.5,-244 1840.5,-244 1840.5,-280"/>
<text text-anchor="middle" x="1709" y="-258.3" font-family="Times,serif" font-size="14.00">Assets&lt;GltfMesh&gt;asset_event_system</text>
</g>
<!-- node_System(124) -->
<g id="node50" class="node">
<title>node_System(124)</title>
<polygon fill="white" stroke="black" points="1853,-226 1565,-226 1565,-190 1853,-190 1853,-226"/>
<text text-anchor="middle" x="1709" y="-204.3" font-family="Times,serif" font-size="14.00">Assets&lt;AudioSource&gt;asset_event_system</text>
</g>
<!-- node_System(127) -->
<g id="node51" class="node">
<title>node_System(127)</title>
<polygon fill="white" stroke="black" points="1845,-172 1573,-172 1573,-136 1845,-136 1845,-172"/>
<text text-anchor="middle" x="1709" y="-150.3" font-family="Times,serif" font-size="14.00">Assets&lt;AudioSink&gt;asset_event_system</text>
</g>
<!-- node_System(132) -->
<g id="node52" class="node">
<title>node_System(132)</title>
<polygon fill="white" stroke="black" points="1859,-118 1559,-118 1559,-82 1859,-82 1859,-118"/>
<text text-anchor="middle" x="1709" y="-96.3" font-family="Times,serif" font-size="14.00">Assets&lt;AnimationClip&gt;asset_event_system</text>
</g>
</g>
</svg>
