<?xml version="1.0" encoding="UTF-8" standalone="no"?>
<!DOCTYPE svg PUBLIC "-//W3C//DTD SVG 1.1//EN"
 "http://www.w3.org/Graphics/SVG/1.1/DTD/svg11.dtd">
<!-- Generated by graphviz version 7.1.0 (0)
 -->
<!-- Title: schedule Pages: 1 -->
<svg width="1811pt" height="368pt"
 viewBox="0.00 0.00 1811.00 368.00" xmlns="http://www.w3.org/2000/svg" xmlns:xlink="http://www.w3.org/1999/xlink">
<g id="graph0" class="graph" transform="scale(1 1) rotate(0) translate(4 364)">
<title>schedule</title>
<polygon fill="white" stroke="none" points="-4,4 -4,-364 1807,-364 1807,4 -4,4"/>
<g id="clust1" class="cluster">
<title>clusternode_Set(0)</title>
<polygon fill="white" stroke="black" points="731,-102 731,-141 796,-141 796,-102 731,-102"/>
<text text-anchor="middle" x="763.5" y="-125.8" font-family="Helvetica,sans-Serif" font-size="14.00">Update</text>
</g>
<g id="clust2" class="cluster">
<title>clusternode_Set(2)</title>
<polygon fill="white" stroke="black" points="70,-172 70,-211 152,-211 152,-172 70,-172"/>
<text text-anchor="middle" x="111" y="-195.8" font-family="Helvetica,sans-Serif" font-size="14.00">FirstFlush</text>
</g>
<g id="clust3" class="cluster">
<title>clusternode_Set(3)</title>
<polygon fill="white" stroke="black" points="315.5,-102 315.5,-141 438.5,-141 438.5,-102 315.5,-102"/>
<text text-anchor="middle" x="377" y="-125.8" font-family="Helvetica,sans-Serif" font-size="14.00">PreUpdateFlush</text>
</g>
<g id="clust4" class="cluster">
<title>clusternode_Set(4)</title>
<polygon fill="white" stroke="black" points="816,-102 816,-141 917,-141 917,-102 816,-102"/>
<text text-anchor="middle" x="866.5" y="-125.8" font-family="Helvetica,sans-Serif" font-size="14.00">UpdateFlush</text>
</g>
<g id="clust5" class="cluster">
<title>clusternode_Set(5)</title>
<polygon fill="white" stroke="black" points="1256,-55 1256,-94 1385,-94 1385,-55 1256,-55"/>
<text text-anchor="middle" x="1320.5" y="-78.8" font-family="Helvetica,sans-Serif" font-size="14.00">PostUpdateFlush</text>
</g>
<g id="clust6" class="cluster">
<title>clusternode_Set(6)</title>
<polygon fill="white" stroke="black" points="1659,-31 1659,-70 1739,-70 1739,-31 1659,-31"/>
<text text-anchor="middle" x="1699" y="-54.8" font-family="Helvetica,sans-Serif" font-size="14.00">LastFlush</text>
</g>
<g id="clust7" class="cluster">
<title>clusternode_Set(7)</title>
<polygon fill="white" stroke="black" points="0,-148 0,-187 46,-187 46,-148 0,-148"/>
<text text-anchor="middle" x="23" y="-171.8" font-family="Helvetica,sans-Serif" font-size="14.00">First</text>
</g>
<g id="clust8" class="cluster">
<title>clusternode_Set(8)</title>
<polygon fill="white" stroke="black" points="169,-149 169,-281 455,-281 455,-149 169,-149"/>
<text text-anchor="middle" x="312" y="-265.8" font-family="Helvetica,sans-Serif" font-size="14.00">PreUpdate</text>
</g>
<g id="clust9" class="cluster">
<title>clusternode_Set(24)</title>
<polygon fill="white" stroke="black" points="177,-175 177,-214 278,-214 278,-175 177,-175"/>
<text text-anchor="middle" x="227.5" y="-198.8" font-family="Helvetica,sans-Serif" font-size="14.00">InputSystem</text>
</g>
<g id="clust10" class="cluster">
<title>clusternode_Set(115)</title>
<polygon fill="white" stroke="black" points="306,-157 306,-250 447,-250 447,-157 306,-157"/>
<text text-anchor="middle" x="376.5" y="-234.8" font-family="Helvetica,sans-Serif" font-size="14.00">Focus</text>
</g>
<g id="clust11" class="cluster">
<title>clusternode_Set(9)</title>
<polygon fill="white" stroke="black" points="467,-102 467,-141 591,-141 591,-102 467,-102"/>
<text text-anchor="middle" x="529" y="-125.8" font-family="Helvetica,sans-Serif" font-size="14.00">StateTransitions</text>
</g>
<g id="clust12" class="cluster">
<title>clusternode_Set(10)</title>
<polygon fill="white" stroke="black" points="611,-102 611,-141 711,-141 711,-102 611,-102"/>
<text text-anchor="middle" x="661" y="-125.8" font-family="Helvetica,sans-Serif" font-size="14.00">FixedUpdate</text>
</g>
<g id="clust13" class="cluster">
<title>clusternode_Set(11)</title>
<polygon fill="white" stroke="black" points="937,-102 937,-352 1795,-352 1795,-102 937,-102"/>
<text text-anchor="middle" x="1366" y="-336.8" font-family="Helvetica,sans-Serif" font-size="14.00">PostUpdate</text>
</g>
<g id="clust14" class="cluster">
<title>clusternode_Set(20)</title>
<polygon fill="white" stroke="black" points="1423,-142 1423,-181 1575,-181 1575,-142 1423,-142"/>
<text text-anchor="middle" x="1499" y="-165.8" font-family="Helvetica,sans-Serif" font-size="14.00">TransformPropagate</text>
</g>
<g id="clust15" class="cluster">
<title>clusternode_Set(116)</title>
<polygon fill="white" stroke="black" points="1245,-124 1245,-217 1395,-217 1395,-124 1245,-124"/>
<text text-anchor="middle" x="1320" y="-201.8" font-family="Helvetica,sans-Serif" font-size="14.00">Flex</text>
</g>
<g id="clust16" class="cluster">
<title>clusternode_Set(117)</title>
<polygon fill="white" stroke="black" points="1010.5,-228 1010.5,-321 1151.5,-321 1151.5,-228 1010.5,-228"/>
<text text-anchor="middle" x="1081" y="-305.8" font-family="Helvetica,sans-Serif" font-size="14.00">Stack</text>
</g>
<g id="clust17" class="cluster">
<title>clusternode_Set(12)</title>
<polygon fill="white" stroke="black" points="1477,-31 1477,-70 1521,-70 1521,-31 1477,-31"/>
<text text-anchor="middle" x="1499" y="-54.8" font-family="Helvetica,sans-Serif" font-size="14.00">Last</text>
</g>
<g id="clust18" class="cluster">
<title>clusternode_Set(58)</title>
<polygon fill="white" stroke="black" points="66,-125 66,-164 157,-164 157,-125 66,-125"/>
<text text-anchor="middle" x="111.5" y="-148.8" font-family="Helvetica,sans-Serif" font-size="14.00">LoadAssets</text>
</g>
<g id="clust19" class="cluster">
<title>clusternode_Set(59)</title>
<polygon fill="white" stroke="black" points="1272,-8 1272,-47 1368,-47 1368,-8 1272,-8"/>
<text text-anchor="middle" x="1320" y="-31.8" font-family="Helvetica,sans-Serif" font-size="14.00">AssetEvents</text>
</g>
<!-- set_marker_node_Set(0) -->
<!-- set_marker_node_Set(4) -->
<!-- set_marker_node_Set(0)&#45;&gt;set_marker_node_Set(4) -->
<g id="edge7" class="edge">
<title>set_marker_node_Set(0)&#45;&gt;set_marker_node_Set(4)</title>
<path fill="none" stroke="black" d="M796,-110C798.81,-110 801.71,-110 804.65,-110"/>
<polygon fill="black" stroke="black" points="804.49,-113.5 814.49,-110 804.49,-106.5 804.49,-113.5"/>
</g>
<!-- set_marker_node_Set(2) -->
<!-- set_marker_node_Set(8) -->
<!-- set_marker_node_Set(2)&#45;&gt;set_marker_node_Set(8) -->
<g id="edge2" class="edge">
<title>set_marker_node_Set(2)&#45;&gt;set_marker_node_Set(8)</title>
<path fill="none" stroke="black" d="M151.64,-172C153.65,-171.6 155.69,-171.19 157.74,-170.77"/>
<polygon fill="black" stroke="black" points="158.41,-174.21 167.52,-168.8 157.02,-167.35 158.41,-174.21"/>
</g>
<!-- set_marker_node_Set(3) -->
<!-- set_marker_node_Set(9) -->
<!-- set_marker_node_Set(3)&#45;&gt;set_marker_node_Set(9) -->
<g id="edge4" class="edge">
<title>set_marker_node_Set(3)&#45;&gt;set_marker_node_Set(9)</title>
<path fill="none" stroke="black" d="M438.5,-110C444.25,-110 450.12,-110 455.97,-110"/>
<polygon fill="black" stroke="black" points="455.49,-113.5 465.49,-110 455.49,-106.5 455.49,-113.5"/>
</g>
<!-- set_marker_node_Set(11) -->
<!-- set_marker_node_Set(4)&#45;&gt;set_marker_node_Set(11) -->
<g id="edge8" class="edge">
<title>set_marker_node_Set(4)&#45;&gt;set_marker_node_Set(11)</title>
<path fill="none" stroke="black" d="M917,-110C919.77,-110 922.62,-110 925.52,-110"/>
<polygon fill="black" stroke="black" points="925.49,-113.5 935.49,-110 925.49,-106.5 925.49,-113.5"/>
</g>
<!-- set_marker_node_Set(5) -->
<!-- set_marker_node_Set(12) -->
<!-- set_marker_node_Set(5)&#45;&gt;set_marker_node_Set(12) -->
<g id="edge10" class="edge">
<title>set_marker_node_Set(5)&#45;&gt;set_marker_node_Set(12)</title>
<path fill="none" stroke="black" d="M1379.98,-55C1408.63,-51.12 1441.94,-46.6 1465.85,-43.36"/>
<polygon fill="black" stroke="black" points="1466.06,-46.86 1475.5,-42.05 1465.12,-39.93 1466.06,-46.86"/>
</g>
<!-- set_marker_node_Set(6) -->
<!-- set_marker_node_Set(7) -->
<!-- set_marker_node_Set(7)&#45;&gt;set_marker_node_Set(2) -->
<g id="edge1" class="edge">
<title>set_marker_node_Set(7)&#45;&gt;set_marker_node_Set(2)</title>
<path fill="none" stroke="black" d="M46,-162.34C52.44,-164.18 59.5,-166.18 66,-168 67.17,-168.33 68.36,-168.66 69.55,-168.99"/>
<polygon fill="black" stroke="black" points="68.45,-172.32 79.02,-171.6 70.31,-165.57 68.45,-172.32"/>
</g>
<!-- set_marker_node_Set(58) -->
<!-- set_marker_node_Set(7)&#45;&gt;set_marker_node_Set(58) -->
<g id="edge13" class="edge">
<title>set_marker_node_Set(7)&#45;&gt;set_marker_node_Set(58)</title>
<path fill="none" stroke="black" d="M46,-150.12C48.89,-149.34 51.94,-148.53 55.09,-147.68"/>
<polygon fill="black" stroke="black" points="55.78,-151.12 64.54,-145.16 53.98,-144.36 55.78,-151.12"/>
</g>
<!-- set_marker_node_Set(8)&#45;&gt;set_marker_node_Set(3) -->
<g id="edge3" class="edge">
<title>set_marker_node_Set(8)&#45;&gt;set_marker_node_Set(3)</title>
<path fill="none" stroke="black" d="M253.1,-149C267.43,-144.44 286.19,-138.46 304.7,-132.56"/>
<polygon fill="black" stroke="black" points="305.59,-135.95 314.06,-129.58 303.47,-129.28 305.59,-135.95"/>
</g>
<!-- set_marker_node_Set(24) -->
<!-- node_System(95) -->
<g id="node11" class="node">
<title>node_System(95)</title>
<polygon fill="white" stroke="black" points="439,-201 314,-201 314,-165 439,-165 439,-201"/>
<text text-anchor="middle" x="376.5" y="-179.3" font-family="Times,serif" font-size="14.00">ui_focus_system</text>
</g>
<!-- set_marker_node_Set(24)&#45;&gt;node_System(95) -->
<g id="edge16" class="edge">
<title>set_marker_node_Set(24)&#45;&gt;node_System(95)</title>
<path fill="none" stroke="black" d="M278,-183C285.9,-183 294.22,-183 302.52,-183"/>
<polygon fill="black" stroke="black" points="302.13,-186.5 312.13,-183 302.13,-179.5 302.13,-186.5"/>
</g>
<!-- set_marker_node_Set(115) -->
<!-- set_marker_node_Set(10) -->
<!-- set_marker_node_Set(9)&#45;&gt;set_marker_node_Set(10) -->
<g id="edge5" class="edge">
<title>set_marker_node_Set(9)&#45;&gt;set_marker_node_Set(10)</title>
<path fill="none" stroke="black" d="M591,-110C593.97,-110 596.95,-110 599.92,-110"/>
<polygon fill="black" stroke="black" points="599.49,-113.5 609.49,-110 599.49,-106.5 599.49,-113.5"/>
</g>
<!-- set_marker_node_Set(10)&#45;&gt;set_marker_node_Set(0) -->
<g id="edge6" class="edge">
<title>set_marker_node_Set(10)&#45;&gt;set_marker_node_Set(0)</title>
<path fill="none" stroke="black" d="M711,-110C713.85,-110 716.71,-110 719.54,-110"/>
<polygon fill="black" stroke="black" points="719.49,-113.5 729.49,-110 719.49,-106.5 719.49,-113.5"/>
</g>
<!-- set_marker_node_Set(11)&#45;&gt;set_marker_node_Set(5) -->
<g id="edge9" class="edge">
<title>set_marker_node_Set(11)&#45;&gt;set_marker_node_Set(5)</title>
<path fill="none" stroke="black" d="M1122.34,-102C1155.81,-95.36 1204.31,-85.74 1244.77,-77.72"/>
<polygon fill="black" stroke="black" points="1245.39,-81.17 1254.52,-75.79 1244.03,-74.3 1245.39,-81.17"/>
</g>
<!-- set_marker_node_Set(59) -->
<!-- set_marker_node_Set(11)&#45;&gt;set_marker_node_Set(59) -->
<g id="edge14" class="edge">
<title>set_marker_node_Set(11)&#45;&gt;set_marker_node_Set(59)</title>
<path fill="none" stroke="black" d="M1102.16,-102C1137.09,-88.15 1210.03,-59.22 1261.65,-38.75"/>
<polygon fill="black" stroke="black" points="1262.59,-42.14 1270.59,-35.2 1260.01,-35.63 1262.59,-42.14"/>
</g>
<!-- set_marker_node_Set(20) -->
<!-- node_System(100) -->
<g id="node22" class="node">
<title>node_System(100)</title>
<polygon fill="white" stroke="black" points="1787,-168 1611,-168 1611,-132 1787,-132 1787,-168"/>
<text text-anchor="middle" x="1699" y="-146.3" font-family="Times,serif" font-size="14.00">update_clipping_system</text>
</g>
<!-- set_marker_node_Set(20)&#45;&gt;node_System(100) -->
<g id="edge20" class="edge">
<title>set_marker_node_Set(20)&#45;&gt;node_System(100)</title>
<path fill="none" stroke="black" d="M1575,-150C1583.02,-150 1591.26,-150 1599.5,-150"/>
<polygon fill="black" stroke="black" points="1599.2,-153.5 1609.2,-150 1599.2,-146.5 1599.2,-153.5"/>
</g>
<!-- set_marker_node_Set(116) -->
<!-- node_System(98) -->
<g id="node17" class="node">
<title>node_System(98)</title>
<polygon fill="white" stroke="black" points="1387,-168 1253,-168 1253,-132 1387,-132 1387,-168"/>
<text text-anchor="middle" x="1320" y="-146.3" font-family="Times,serif" font-size="14.00">flex_node_system</text>
</g>
<!-- node_System(98)&#45;&gt;set_marker_node_Set(20) -->
<g id="edge19" class="edge">
<title>node_System(98)&#45;&gt;set_marker_node_Set(20)</title>
<path fill="none" stroke="black" d="M1387.41,-150C1395.3,-150 1403.45,-150 1411.57,-150"/>
<polygon fill="black" stroke="black" points="1411.49,-153.5 1421.49,-150 1411.49,-146.5 1411.49,-153.5"/>
</g>
<!-- set_marker_node_Set(117) -->
<!-- node_System(99) -->
<g id="node19" class="node">
<title>node_System(99)</title>
<polygon fill="white" stroke="black" points="1143.5,-272 1018.5,-272 1018.5,-236 1143.5,-236 1143.5,-272"/>
<text text-anchor="middle" x="1081" y="-250.3" font-family="Times,serif" font-size="14.00">ui_stack_system</text>
</g>
<!-- node_System(96) -->
<g id="node20" class="node">
<title>node_System(96)</title>
<polygon fill="white" stroke="black" points="1129,-218 1033,-218 1033,-182 1129,-182 1129,-218"/>
<text text-anchor="middle" x="1081" y="-196.3" font-family="Times,serif" font-size="14.00">text_system</text>
</g>
<!-- node_System(96)&#45;&gt;set_marker_node_Set(116) -->
<g id="edge17" class="edge">
<title>node_System(96)&#45;&gt;set_marker_node_Set(116)</title>
<path fill="none" stroke="black" d="M1129.39,-197.2C1159.23,-195.44 1198.62,-193.11 1233.76,-191.04"/>
<polygon fill="black" stroke="black" points="1233.71,-194.54 1243.49,-190.46 1233.3,-187.56 1233.71,-194.54"/>
</g>
<!-- node_System(97) -->
<g id="node21" class="node">
<title>node_System(97)</title>
<polygon fill="white" stroke="black" points="1217,-164 945,-164 945,-128 1217,-128 1217,-164"/>
<text text-anchor="middle" x="1081" y="-142.3" font-family="Times,serif" font-size="14.00">update_image_calculated_size_system</text>
</g>
<!-- node_System(97)&#45;&gt;set_marker_node_Set(116) -->
<g id="edge18" class="edge">
<title>node_System(97)&#45;&gt;set_marker_node_Set(116)</title>
<path fill="none" stroke="black" d="M1173.2,-164.46C1192.81,-168.17 1213.66,-171.93 1233.66,-175.19"/>
<polygon fill="black" stroke="black" points="1233.08,-178.64 1243.51,-176.76 1234.18,-171.73 1233.08,-178.64"/>
</g>
<!-- set_marker_node_Set(12)&#45;&gt;set_marker_node_Set(6) -->
<g id="edge11" class="edge">
<title>set_marker_node_Set(12)&#45;&gt;set_marker_node_Set(6)</title>
<path fill="none" stroke="black" d="M1521,-39C1550.9,-39 1606.64,-39 1647.61,-39"/>
<polygon fill="black" stroke="black" points="1647.49,-42.5 1657.49,-39 1647.49,-35.5 1647.49,-42.5"/>
</g>
<!-- set_marker_node_Set(58)&#45;&gt;set_marker_node_Set(8) -->
<g id="edge12" class="edge">
<title>set_marker_node_Set(58)&#45;&gt;set_marker_node_Set(8)</title>
<path fill="none" stroke="black" d="M157,-142.47C163.48,-143.84 170.18,-145.25 176.74,-146.63"/>
<polygon fill="black" stroke="black" points="176.02,-150.05 186.53,-148.69 177.46,-143.21 176.02,-150.05"/>
</g>
<!-- set_marker_node_Set(59)&#45;&gt;set_marker_node_Set(12) -->
<g id="edge15" class="edge">
<title>set_marker_node_Set(59)&#45;&gt;set_marker_node_Set(12)</title>
<path fill="none" stroke="black" d="M1368,-22.11C1398.89,-26.12 1438.51,-31.27 1465.85,-34.82"/>
<polygon fill="black" stroke="black" points="1465.13,-38.26 1475.5,-36.08 1466.04,-31.32 1465.13,-38.26"/>
</g>
</g>
</svg>
