<?xml version="1.0" encoding="UTF-8" standalone="no"?>
<!DOCTYPE svg PUBLIC "-//W3C//DTD SVG 1.1//EN"
 "http://www.w3.org/Graphics/SVG/1.1/DTD/svg11.dtd">
<!-- Generated by graphviz version 7.0.6 (0)
 -->
<!-- Title: schedule Pages: 1 -->
<svg width="1510pt" height="219pt"
 viewBox="0.00 0.00 1510.00 219.00" xmlns="http://www.w3.org/2000/svg" xmlns:xlink="http://www.w3.org/1999/xlink">
<g id="graph0" class="graph" transform="scale(1 1) rotate(0) translate(4 215)">
<title>schedule</title>
<polygon fill="white" stroke="none" points="-4,4 -4,-215 1506,-215 1506,4 -4,4"/>
<g id="clust1" class="cluster">
<title>clusternode_Set(0)</title>
<polygon fill="white" stroke="black" points="890,-62 890,-101 955,-101 955,-62 890,-62"/>
<text text-anchor="middle" x="922.5" y="-85.8" font-family="Helvetica,sans-Serif" font-size="14.00">Update</text>
</g>
<g id="clust2" class="cluster">
<title>clusternode_Set(2)</title>
<polygon fill="white" stroke="black" points="157,-85 157,-124 239,-124 239,-85 157,-85"/>
<text text-anchor="middle" x="198" y="-108.8" font-family="Helvetica,sans-Serif" font-size="14.00">FirstFlush</text>
</g>
<g id="clust3" class="cluster">
<title>clusternode_Set(3)</title>
<polygon fill="white" stroke="black" points="370,-62 370,-101 492,-101 492,-62 370,-62"/>
<text text-anchor="middle" x="431" y="-85.8" font-family="Helvetica,sans-Serif" font-size="14.00">PreUpdateFlush</text>
</g>
<g id="clust4" class="cluster">
<title>clusternode_Set(4)</title>
<polygon fill="white" stroke="black" points="975,-62 975,-101 1076,-101 1076,-62 975,-62"/>
<text text-anchor="middle" x="1025.5" y="-85.8" font-family="Helvetica,sans-Serif" font-size="14.00">UpdateFlush</text>
</g>
<g id="clust5" class="cluster">
<title>clusternode_Set(5)</title>
<polygon fill="white" stroke="black" points="1209,-86 1209,-125 1338,-125 1338,-86 1209,-86"/>
<text text-anchor="middle" x="1273.5" y="-109.8" font-family="Helvetica,sans-Serif" font-size="14.00">PostUpdateFlush</text>
</g>
<g id="clust6" class="cluster">
<title>clusternode_Set(6)</title>
<polygon fill="white" stroke="black" points="1422,-62 1422,-101 1502,-101 1502,-62 1422,-62"/>
<text text-anchor="middle" x="1462" y="-85.8" font-family="Helvetica,sans-Serif" font-size="14.00">LastFlush</text>
</g>
<g id="clust7" class="cluster">
<title>clusternode_Set(7)</title>
<polygon fill="white" stroke="black" points="8,-61 8,-203 141,-203 141,-61 8,-61"/>
<text text-anchor="middle" x="74.5" y="-187.8" font-family="Helvetica,sans-Serif" font-size="14.00">First</text>
</g>
<g id="clust8" class="cluster">
<title>clusternode_Set(16)</title>
<polygon fill="white" stroke="black" points="16,-79 16,-172 133,-172 133,-79 16,-79"/>
<text text-anchor="middle" x="74.5" y="-156.8" font-family="Helvetica,sans-Serif" font-size="14.00">TimeSystem</text>
</g>
<g id="clust9" class="cluster">
<title>clusternode_Set(8)</title>
<polygon fill="white" stroke="black" points="264,-62 264,-101 350,-101 350,-62 264,-62"/>
<text text-anchor="middle" x="307" y="-85.8" font-family="Helvetica,sans-Serif" font-size="14.00">PreUpdate</text>
</g>
<g id="clust10" class="cluster">
<title>clusternode_Set(9)</title>
<polygon fill="white" stroke="black" points="512,-62 512,-101 634,-101 634,-62 512,-62"/>
<text text-anchor="middle" x="573" y="-85.8" font-family="Helvetica,sans-Serif" font-size="14.00">StateTransitions</text>
</g>
<g id="clust11" class="cluster">
<title>clusternode_Set(10)</title>
<polygon fill="white" stroke="black" points="654,-8 654,-101 870,-101 870,-8 654,-8"/>
<text text-anchor="middle" x="762" y="-85.8" font-family="Helvetica,sans-Serif" font-size="14.00">FixedUpdate</text>
</g>
<g id="clust12" class="cluster">
<title>clusternode_Set(11)</title>
<polygon fill="white" stroke="black" points="1096,-62 1096,-101 1189,-101 1189,-62 1096,-62"/>
<text text-anchor="middle" x="1142.5" y="-85.8" font-family="Helvetica,sans-Serif" font-size="14.00">PostUpdate</text>
</g>
<g id="clust13" class="cluster">
<title>clusternode_Set(12)</title>
<polygon fill="white" stroke="black" points="1358,-62 1358,-101 1402,-101 1402,-62 1358,-62"/>
<text text-anchor="middle" x="1380" y="-85.8" font-family="Helvetica,sans-Serif" font-size="14.00">Last</text>
</g>
<g id="clust14" class="cluster">
<title>clusternode_Set(58)</title>
<polygon fill="white" stroke="black" points="153,-38 153,-77 244,-77 244,-38 153,-38"/>
<text text-anchor="middle" x="198.5" y="-61.8" font-family="Helvetica,sans-Serif" font-size="14.00">LoadAssets</text>
</g>
<g id="clust15" class="cluster">
<title>clusternode_Set(59)</title>
<polygon fill="white" stroke="black" points="1225,-39 1225,-78 1321,-78 1321,-39 1225,-39"/>
<text text-anchor="middle" x="1273" y="-62.8" font-family="Helvetica,sans-Serif" font-size="14.00">AssetEvents</text>
</g>
<!-- set_marker_node_Set(0) -->
<!-- set_marker_node_Set(4) -->
<!-- set_marker_node_Set(0)&#45;&gt;set_marker_node_Set(4) -->
<g id="edge7" class="edge">
<title>set_marker_node_Set(0)&#45;&gt;set_marker_node_Set(4)</title>
<path fill="none" stroke="black" d="M955,-70C957.81,-70 960.71,-70 963.65,-70"/>
<polygon fill="black" stroke="black" points="963.49,-73.5 973.49,-70 963.49,-66.5 963.49,-73.5"/>
</g>
<!-- set_marker_node_Set(2) -->
<!-- set_marker_node_Set(8) -->
<!-- set_marker_node_Set(2)&#45;&gt;set_marker_node_Set(8) -->
<g id="edge2" class="edge">
<title>set_marker_node_Set(2)&#45;&gt;set_marker_node_Set(8)</title>
<path fill="none" stroke="black" d="M236.21,-85C241.62,-83.84 247.27,-82.62 252.92,-81.41"/>
<polygon fill="black" stroke="black" points="253.48,-84.87 262.53,-79.35 252.01,-78.02 253.48,-84.87"/>
</g>
<!-- set_marker_node_Set(3) -->
<!-- set_marker_node_Set(9) -->
<!-- set_marker_node_Set(3)&#45;&gt;set_marker_node_Set(9) -->
<g id="edge4" class="edge">
<title>set_marker_node_Set(3)&#45;&gt;set_marker_node_Set(9)</title>
<path fill="none" stroke="black" d="M492,-70C494.88,-70 497.78,-70 500.68,-70"/>
<polygon fill="black" stroke="black" points="500.49,-73.5 510.49,-70 500.49,-66.5 500.49,-73.5"/>
</g>
<!-- set_marker_node_Set(11) -->
<!-- set_marker_node_Set(4)&#45;&gt;set_marker_node_Set(11) -->
<g id="edge8" class="edge">
<title>set_marker_node_Set(4)&#45;&gt;set_marker_node_Set(11)</title>
<path fill="none" stroke="black" d="M1076,-70C1078.92,-70 1081.88,-70 1084.82,-70"/>
<polygon fill="black" stroke="black" points="1084.49,-73.5 1094.49,-70 1084.49,-66.5 1084.49,-73.5"/>
</g>
<!-- set_marker_node_Set(5) -->
<!-- set_marker_node_Set(12) -->
<!-- set_marker_node_Set(5)&#45;&gt;set_marker_node_Set(12) -->
<g id="edge10" class="edge">
<title>set_marker_node_Set(5)&#45;&gt;set_marker_node_Set(12)</title>
<path fill="none" stroke="black" d="M1319.71,-86C1325.88,-84.76 1332.11,-83.41 1338,-82 1340.97,-81.29 1344.04,-80.5 1347.11,-79.67"/>
<polygon fill="black" stroke="black" points="1347.88,-83.09 1356.55,-76.99 1345.97,-76.35 1347.88,-83.09"/>
</g>
<!-- set_marker_node_Set(6) -->
<!-- set_marker_node_Set(7) -->
<!-- set_marker_node_Set(7)&#45;&gt;set_marker_node_Set(2) -->
<g id="edge1" class="edge">
<title>set_marker_node_Set(7)&#45;&gt;set_marker_node_Set(2)</title>
<path fill="none" stroke="black" d="M141,-75C146.73,-76.63 147.43,-78.87 153,-81 153.35,-81.13 153.71,-81.27 154.07,-81.4"/>
<polygon fill="black" stroke="black" points="152.75,-84.65 163.34,-84.52 154.98,-78.02 152.75,-84.65"/>
</g>
<!-- set_marker_node_Set(58) -->
<!-- set_marker_node_Set(7)&#45;&gt;set_marker_node_Set(58) -->
<g id="edge13" class="edge">
<title>set_marker_node_Set(7)&#45;&gt;set_marker_node_Set(58)</title>
<path fill="none" stroke="black" d="M117.75,-61C125.61,-59.51 133.92,-57.94 142.09,-56.39"/>
<polygon fill="black" stroke="black" points="142.34,-59.91 151.51,-54.61 141.04,-53.03 142.34,-59.91"/>
</g>
<!-- set_marker_node_Set(16) -->
<!-- node_System(8) -->
<g id="node9" class="node">
<title>node_System(8)</title>
<polygon fill="white" stroke="black" points="125,-123 24,-123 24,-87 125,-87 125,-123"/>
<text text-anchor="middle" x="74.5" y="-101.3" font-family="Times,serif" font-size="14.00">time_system</text>
</g>
<!-- set_marker_node_Set(8)&#45;&gt;set_marker_node_Set(3) -->
<g id="edge3" class="edge">
<title>set_marker_node_Set(8)&#45;&gt;set_marker_node_Set(3)</title>
<path fill="none" stroke="black" d="M350,-70C352.78,-70 355.62,-70 358.49,-70"/>
<polygon fill="black" stroke="black" points="358.49,-73.5 368.49,-70 358.49,-66.5 358.49,-73.5"/>
</g>
<!-- set_marker_node_Set(10) -->
<!-- set_marker_node_Set(9)&#45;&gt;set_marker_node_Set(10) -->
<g id="edge5" class="edge">
<title>set_marker_node_Set(9)&#45;&gt;set_marker_node_Set(10)</title>
<path fill="none" stroke="black" d="M634,-70C636.87,-70 639.8,-70 642.76,-70"/>
<polygon fill="black" stroke="black" points="642.49,-73.5 652.49,-70 642.49,-66.5 642.49,-73.5"/>
</g>
<!-- set_marker_node_Set(10)&#45;&gt;set_marker_node_Set(0) -->
<g id="edge6" class="edge">
<title>set_marker_node_Set(10)&#45;&gt;set_marker_node_Set(0)</title>
<path fill="none" stroke="black" d="M870,-70C872.93,-70 875.81,-70 878.6,-70"/>
<polygon fill="black" stroke="black" points="878.49,-73.5 888.49,-70 878.49,-66.5 878.49,-73.5"/>
</g>
<!-- node_System(9) -->
<g id="node13" class="node">
<title>node_System(9)</title>
<polygon fill="white" stroke="black" points="862,-52 662,-52 662,-16 862,-16 862,-52"/>
<text text-anchor="middle" x="762" y="-30.3" font-family="Times,serif" font-size="14.00">run_fixed_update_schedule</text>
</g>
<!-- set_marker_node_Set(11)&#45;&gt;set_marker_node_Set(5) -->
<g id="edge9" class="edge">
<title>set_marker_node_Set(11)&#45;&gt;set_marker_node_Set(5)</title>
<path fill="none" stroke="black" d="M1189,-78.56C1198.41,-80.31 1208.4,-82.17 1218.06,-83.96"/>
<polygon fill="black" stroke="black" points="1217.06,-87.34 1227.53,-85.73 1218.34,-80.46 1217.06,-87.34"/>
</g>
<!-- set_marker_node_Set(59) -->
<!-- set_marker_node_Set(11)&#45;&gt;set_marker_node_Set(59) -->
<g id="edge14" class="edge">
<title>set_marker_node_Set(11)&#45;&gt;set_marker_node_Set(59)</title>
<path fill="none" stroke="black" d="M1187.87,-62C1196.26,-60.5 1205.15,-58.92 1213.87,-57.36"/>
<polygon fill="black" stroke="black" points="1214.28,-60.85 1223.51,-55.64 1213.05,-53.95 1214.28,-60.85"/>
</g>
<!-- set_marker_node_Set(12)&#45;&gt;set_marker_node_Set(6) -->
<g id="edge11" class="edge">
<title>set_marker_node_Set(12)&#45;&gt;set_marker_node_Set(6)</title>
<path fill="none" stroke="black" d="M1402,-70C1404.72,-70 1407.6,-70 1410.56,-70"/>
<polygon fill="black" stroke="black" points="1410.49,-73.5 1420.49,-70 1410.49,-66.5 1410.49,-73.5"/>
</g>
<!-- set_marker_node_Set(58)&#45;&gt;set_marker_node_Set(8) -->
<g id="edge12" class="edge">
<title>set_marker_node_Set(58)&#45;&gt;set_marker_node_Set(8)</title>
<path fill="none" stroke="black" d="M244,-56.09C249.09,-57.24 254.29,-58.4 259.4,-59.55"/>
<polygon fill="black" stroke="black" points="258.35,-62.9 268.87,-61.67 259.88,-56.07 258.35,-62.9"/>
</g>
<!-- set_marker_node_Set(59)&#45;&gt;set_marker_node_Set(12) -->
<g id="edge15" class="edge">
<title>set_marker_node_Set(59)&#45;&gt;set_marker_node_Set(12)</title>
<path fill="none" stroke="black" d="M1321,-57.3C1329.82,-59.23 1338.85,-61.21 1347.08,-63.01"/>
<polygon fill="black" stroke="black" points="1346.01,-66.36 1356.52,-65.08 1347.5,-59.52 1346.01,-66.36"/>
</g>
</g>
</svg>
