<?xml version="1.0" encoding="UTF-8" standalone="no"?>
<!DOCTYPE svg PUBLIC "-//W3C//DTD SVG 1.1//EN"
 "http://www.w3.org/Graphics/SVG/1.1/DTD/svg11.dtd">
<!-- Generated by graphviz version 7.0.6 (0)
 -->
<!-- Title: schedule Pages: 1 -->
<svg width="1807pt" height="368pt"
 viewBox="0.00 0.00 1807.00 368.00" xmlns="http://www.w3.org/2000/svg" xmlns:xlink="http://www.w3.org/1999/xlink">
<g id="graph0" class="graph" transform="scale(1 1) rotate(0) translate(4 364)">
<title>schedule</title>
<polygon fill="white" stroke="none" points="-4,4 -4,-364 1803,-364 1803,4 -4,4"/>
<g id="clust1" class="cluster">
<title>clusternode_Set(0)</title>
<polygon fill="white" stroke="black" points="729,-102 729,-141 794,-141 794,-102 729,-102"/>
<text text-anchor="middle" x="761.5" y="-125.8" font-family="Helvetica,sans-Serif" font-size="14.00">Update</text>
</g>
<g id="clust2" class="cluster">
<title>clusternode_Set(2)</title>
<polygon fill="white" stroke="black" points="70,-172 70,-211 152,-211 152,-172 70,-172"/>
<text text-anchor="middle" x="111" y="-195.8" font-family="Helvetica,sans-Serif" font-size="14.00">FirstFlush</text>
</g>
<g id="clust3" class="cluster">
<title>clusternode_Set(3)</title>
<polygon fill="white" stroke="black" points="315.5,-102 315.5,-141 437.5,-141 437.5,-102 315.5,-102"/>
<text text-anchor="middle" x="376.5" y="-125.8" font-family="Helvetica,sans-Serif" font-size="14.00">PreUpdateFlush</text>
</g>
<g id="clust4" class="cluster">
<title>clusternode_Set(4)</title>
<polygon fill="white" stroke="black" points="814,-102 814,-141 915,-141 915,-102 814,-102"/>
<text text-anchor="middle" x="864.5" y="-125.8" font-family="Helvetica,sans-Serif" font-size="14.00">UpdateFlush</text>
</g>
<g id="clust5" class="cluster">
<title>clusternode_Set(5)</title>
<polygon fill="white" stroke="black" points="1254,-55 1254,-94 1383,-94 1383,-55 1254,-55"/>
<text text-anchor="middle" x="1318.5" y="-78.8" font-family="Helvetica,sans-Serif" font-size="14.00">PostUpdateFlush</text>
</g>
<g id="clust6" class="cluster">
<title>clusternode_Set(6)</title>
<polygon fill="white" stroke="black" points="1655,-31 1655,-70 1735,-70 1735,-31 1655,-31"/>
<text text-anchor="middle" x="1695" y="-54.8" font-family="Helvetica,sans-Serif" font-size="14.00">LastFlush</text>
</g>
<g id="clust7" class="cluster">
<title>clusternode_Set(7)</title>
<polygon fill="white" stroke="black" points="0,-148 0,-187 46,-187 46,-148 0,-148"/>
<text text-anchor="middle" x="23" y="-171.8" font-family="Helvetica,sans-Serif" font-size="14.00">First</text>
</g>
<g id="clust8" class="cluster">
<title>clusternode_Set(8)</title>
<polygon fill="white" stroke="black" points="169,-149 169,-281 455,-281 455,-149 169,-149"/>
<text text-anchor="middle" x="312" y="-265.8" font-family="Helvetica,sans-Serif" font-size="14.00">PreUpdate</text>
</g>
<g id="clust9" class="cluster">
<title>clusternode_Set(24)</title>
<polygon fill="white" stroke="black" points="177,-175 177,-214 278,-214 278,-175 177,-175"/>
<text text-anchor="middle" x="227.5" y="-198.8" font-family="Helvetica,sans-Serif" font-size="14.00">InputSystem</text>
</g>
<g id="clust10" class="cluster">
<title>clusternode_Set(115)</title>
<polygon fill="white" stroke="black" points="306,-157 306,-250 447,-250 447,-157 306,-157"/>
<text text-anchor="middle" x="376.5" y="-234.8" font-family="Helvetica,sans-Serif" font-size="14.00">Focus</text>
</g>
<g id="clust11" class="cluster">
<title>clusternode_Set(9)</title>
<polygon fill="white" stroke="black" points="467,-102 467,-141 589,-141 589,-102 467,-102"/>
<text text-anchor="middle" x="528" y="-125.8" font-family="Helvetica,sans-Serif" font-size="14.00">StateTransitions</text>
</g>
<g id="clust12" class="cluster">
<title>clusternode_Set(10)</title>
<polygon fill="white" stroke="black" points="609,-102 609,-141 709,-141 709,-102 609,-102"/>
<text text-anchor="middle" x="659" y="-125.8" font-family="Helvetica,sans-Serif" font-size="14.00">FixedUpdate</text>
</g>
<g id="clust13" class="cluster">
<title>clusternode_Set(11)</title>
<polygon fill="white" stroke="black" points="935,-102 935,-352 1791,-352 1791,-102 935,-102"/>
<text text-anchor="middle" x="1363" y="-336.8" font-family="Helvetica,sans-Serif" font-size="14.00">PostUpdate</text>
</g>
<g id="clust14" class="cluster">
<title>clusternode_Set(20)</title>
<polygon fill="white" stroke="black" points="1421,-142 1421,-181 1571,-181 1571,-142 1421,-142"/>
<text text-anchor="middle" x="1496" y="-165.8" font-family="Helvetica,sans-Serif" font-size="14.00">TransformPropagate</text>
</g>
<g id="clust15" class="cluster">
<title>clusternode_Set(116)</title>
<polygon fill="white" stroke="black" points="1243,-124 1243,-217 1393,-217 1393,-124 1243,-124"/>
<text text-anchor="middle" x="1318" y="-201.8" font-family="Helvetica,sans-Serif" font-size="14.00">Flex</text>
</g>
<g id="clust16" class="cluster">
<title>clusternode_Set(117)</title>
<polygon fill="white" stroke="black" points="1008.5,-228 1008.5,-321 1149.5,-321 1149.5,-228 1008.5,-228"/>
<text text-anchor="middle" x="1079" y="-305.8" font-family="Helvetica,sans-Serif" font-size="14.00">Stack</text>
</g>
<g id="clust17" class="cluster">
<title>clusternode_Set(12)</title>
<polygon fill="white" stroke="black" points="1474,-31 1474,-70 1518,-70 1518,-31 1474,-31"/>
<text text-anchor="middle" x="1496" y="-54.8" font-family="Helvetica,sans-Serif" font-size="14.00">Last</text>
</g>
<g id="clust18" class="cluster">
<title>clusternode_Set(58)</title>
<polygon fill="white" stroke="black" points="66,-125 66,-164 157,-164 157,-125 66,-125"/>
<text text-anchor="middle" x="111.5" y="-148.8" font-family="Helvetica,sans-Serif" font-size="14.00">LoadAssets</text>
</g>
<g id="clust19" class="cluster">
<title>clusternode_Set(59)</title>
<polygon fill="white" stroke="black" points="1270,-8 1270,-47 1366,-47 1366,-8 1270,-8"/>
<text text-anchor="middle" x="1318" y="-31.8" font-family="Helvetica,sans-Serif" font-size="14.00">AssetEvents</text>
</g>
<!-- set_marker_node_Set(0) -->
<!-- set_marker_node_Set(4) -->
<!-- set_marker_node_Set(0)&#45;&gt;set_marker_node_Set(4) -->
<g id="edge7" class="edge">
<title>set_marker_node_Set(0)&#45;&gt;set_marker_node_Set(4)</title>
<path fill="none" stroke="black" d="M794,-110C796.81,-110 799.71,-110 802.65,-110"/>
<polygon fill="black" stroke="black" points="802.49,-113.5 812.49,-110 802.49,-106.5 802.49,-113.5"/>
</g>
<!-- set_marker_node_Set(2) -->
<!-- set_marker_node_Set(8) -->
<!-- set_marker_node_Set(2)&#45;&gt;set_marker_node_Set(8) -->
<g id="edge2" class="edge">
<title>set_marker_node_Set(2)&#45;&gt;set_marker_node_Set(8)</title>
<path fill="none" stroke="black" d="M151.64,-172C153.65,-171.6 155.69,-171.19 157.74,-170.77"/>
<polygon fill="black" stroke="black" points="158.41,-174.21 167.52,-168.8 157.02,-167.35 158.41,-174.21"/>
</g>
<!-- set_marker_node_Set(3) -->
<!-- set_marker_node_Set(9) -->
<!-- set_marker_node_Set(3)&#45;&gt;set_marker_node_Set(9) -->
<g id="edge4" class="edge">
<title>set_marker_node_Set(3)&#45;&gt;set_marker_node_Set(9)</title>
<path fill="none" stroke="black" d="M437.5,-110C443.43,-110 449.48,-110 455.51,-110"/>
<polygon fill="black" stroke="black" points="455.49,-113.5 465.49,-110 455.49,-106.5 455.49,-113.5"/>
</g>
<!-- set_marker_node_Set(11) -->
<!-- set_marker_node_Set(4)&#45;&gt;set_marker_node_Set(11) -->
<g id="edge8" class="edge">
<title>set_marker_node_Set(4)&#45;&gt;set_marker_node_Set(11)</title>
<path fill="none" stroke="black" d="M915,-110C917.77,-110 920.62,-110 923.52,-110"/>
<polygon fill="black" stroke="black" points="923.49,-113.5 933.49,-110 923.49,-106.5 923.49,-113.5"/>
</g>
<!-- set_marker_node_Set(5) -->
<!-- set_marker_node_Set(12) -->
<!-- set_marker_node_Set(5)&#45;&gt;set_marker_node_Set(12) -->
<g id="edge10" class="edge">
<title>set_marker_node_Set(5)&#45;&gt;set_marker_node_Set(12)</title>
<path fill="none" stroke="black" d="M1377.63,-55C1406.07,-51.13 1439.13,-46.62 1462.9,-43.38"/>
<polygon fill="black" stroke="black" points="1463.07,-46.89 1472.51,-42.07 1462.12,-39.95 1463.07,-46.89"/>
</g>
<!-- set_marker_node_Set(6) -->
<!-- set_marker_node_Set(7) -->
<!-- set_marker_node_Set(7)&#45;&gt;set_marker_node_Set(2) -->
<g id="edge1" class="edge">
<title>set_marker_node_Set(7)&#45;&gt;set_marker_node_Set(2)</title>
<path fill="none" stroke="black" d="M46,-162.34C52.44,-164.18 59.5,-166.18 66,-168 67.17,-168.33 68.36,-168.66 69.55,-168.99"/>
<polygon fill="black" stroke="black" points="68.45,-172.32 79.02,-171.6 70.31,-165.57 68.45,-172.32"/>
</g>
<!-- set_marker_node_Set(58) -->
<!-- set_marker_node_Set(7)&#45;&gt;set_marker_node_Set(58) -->
<g id="edge13" class="edge">
<title>set_marker_node_Set(7)&#45;&gt;set_marker_node_Set(58)</title>
<path fill="none" stroke="black" d="M46,-150.12C48.89,-149.34 51.94,-148.53 55.09,-147.68"/>
<polygon fill="black" stroke="black" points="55.78,-151.12 64.54,-145.16 53.98,-144.36 55.78,-151.12"/>
</g>
<!-- set_marker_node_Set(8)&#45;&gt;set_marker_node_Set(3) -->
<g id="edge3" class="edge">
<title>set_marker_node_Set(8)&#45;&gt;set_marker_node_Set(3)</title>
<path fill="none" stroke="black" d="M253.1,-149C267.43,-144.44 286.19,-138.46 304.7,-132.56"/>
<polygon fill="black" stroke="black" points="305.59,-135.95 314.06,-129.58 303.47,-129.28 305.59,-135.95"/>
</g>
<!-- set_marker_node_Set(24) -->
<!-- node_System(95) -->
<g id="node11" class="node">
<title>node_System(95)</title>
<polygon fill="white" stroke="black" points="439,-201 314,-201 314,-165 439,-165 439,-201"/>
<text text-anchor="middle" x="376.5" y="-179.3" font-family="Times,serif" font-size="14.00">ui_focus_system</text>
</g>
<!-- set_marker_node_Set(24)&#45;&gt;node_System(95) -->
<g id="edge16" class="edge">
<title>set_marker_node_Set(24)&#45;&gt;node_System(95)</title>
<path fill="none" stroke="black" d="M278,-183C285.9,-183 294.22,-183 302.52,-183"/>
<polygon fill="black" stroke="black" points="302.13,-186.5 312.13,-183 302.13,-179.5 302.13,-186.5"/>
</g>
<!-- set_marker_node_Set(115) -->
<!-- set_marker_node_Set(10) -->
<!-- set_marker_node_Set(9)&#45;&gt;set_marker_node_Set(10) -->
<g id="edge5" class="edge">
<title>set_marker_node_Set(9)&#45;&gt;set_marker_node_Set(10)</title>
<path fill="none" stroke="black" d="M589,-110C591.86,-110 594.74,-110 597.6,-110"/>
<polygon fill="black" stroke="black" points="597.49,-113.5 607.49,-110 597.49,-106.5 597.49,-113.5"/>
</g>
<!-- set_marker_node_Set(10)&#45;&gt;set_marker_node_Set(0) -->
<g id="edge6" class="edge">
<title>set_marker_node_Set(10)&#45;&gt;set_marker_node_Set(0)</title>
<path fill="none" stroke="black" d="M709,-110C711.85,-110 714.71,-110 717.54,-110"/>
<polygon fill="black" stroke="black" points="717.49,-113.5 727.49,-110 717.49,-106.5 717.49,-113.5"/>
</g>
<!-- set_marker_node_Set(11)&#45;&gt;set_marker_node_Set(5) -->
<g id="edge9" class="edge">
<title>set_marker_node_Set(11)&#45;&gt;set_marker_node_Set(5)</title>
<path fill="none" stroke="black" d="M1120.34,-102C1153.81,-95.36 1202.31,-85.74 1242.77,-77.72"/>
<polygon fill="black" stroke="black" points="1243.39,-81.17 1252.52,-75.79 1242.03,-74.3 1243.39,-81.17"/>
</g>
<!-- set_marker_node_Set(59) -->
<!-- set_marker_node_Set(11)&#45;&gt;set_marker_node_Set(59) -->
<g id="edge14" class="edge">
<title>set_marker_node_Set(11)&#45;&gt;set_marker_node_Set(59)</title>
<path fill="none" stroke="black" d="M1100.16,-102C1135.09,-88.15 1208.03,-59.22 1259.65,-38.75"/>
<polygon fill="black" stroke="black" points="1260.59,-42.14 1268.59,-35.2 1258.01,-35.63 1260.59,-42.14"/>
</g>
<!-- set_marker_node_Set(20) -->
<!-- node_System(100) -->
<g id="node22" class="node">
<title>node_System(100)</title>
<polygon fill="white" stroke="black" points="1783,-168 1607,-168 1607,-132 1783,-132 1783,-168"/>
<text text-anchor="middle" x="1695" y="-146.3" font-family="Times,serif" font-size="14.00">update_clipping_system</text>
</g>
<!-- set_marker_node_Set(20)&#45;&gt;node_System(100) -->
<g id="edge20" class="edge">
<title>set_marker_node_Set(20)&#45;&gt;node_System(100)</title>
<path fill="none" stroke="black" d="M1571,-150C1578.9,-150 1587.03,-150 1595.17,-150"/>
<polygon fill="black" stroke="black" points="1595.08,-153.5 1605.08,-150 1595.08,-146.5 1595.08,-153.5"/>
</g>
<!-- set_marker_node_Set(116) -->
<!-- node_System(98) -->
<g id="node17" class="node">
<title>node_System(98)</title>
<polygon fill="white" stroke="black" points="1385,-168 1251,-168 1251,-132 1385,-132 1385,-168"/>
<text text-anchor="middle" x="1318" y="-146.3" font-family="Times,serif" font-size="14.00">flex_node_system</text>
</g>
<!-- node_System(98)&#45;&gt;set_marker_node_Set(20) -->
<g id="edge19" class="edge">
<title>node_System(98)&#45;&gt;set_marker_node_Set(20)</title>
<path fill="none" stroke="black" d="M1385.29,-150C1393.21,-150 1401.39,-150 1409.53,-150"/>
<polygon fill="black" stroke="black" points="1409.49,-153.5 1419.49,-150 1409.49,-146.5 1409.49,-153.5"/>
</g>
<!-- set_marker_node_Set(117) -->
<!-- node_System(99) -->
<g id="node19" class="node">
<title>node_System(99)</title>
<polygon fill="white" stroke="black" points="1141.5,-272 1016.5,-272 1016.5,-236 1141.5,-236 1141.5,-272"/>
<text text-anchor="middle" x="1079" y="-250.3" font-family="Times,serif" font-size="14.00">ui_stack_system</text>
</g>
<!-- node_System(96) -->
<g id="node20" class="node">
<title>node_System(96)</title>
<polygon fill="white" stroke="black" points="1127,-218 1031,-218 1031,-182 1127,-182 1127,-218"/>
<text text-anchor="middle" x="1079" y="-196.3" font-family="Times,serif" font-size="14.00">text_system</text>
</g>
<!-- node_System(96)&#45;&gt;set_marker_node_Set(116) -->
<g id="edge17" class="edge">
<title>node_System(96)&#45;&gt;set_marker_node_Set(116)</title>
<path fill="none" stroke="black" d="M1127.39,-197.2C1157.23,-195.44 1196.62,-193.11 1231.76,-191.04"/>
<polygon fill="black" stroke="black" points="1231.71,-194.54 1241.49,-190.46 1231.3,-187.56 1231.71,-194.54"/>
</g>
<!-- node_System(97) -->
<g id="node21" class="node">
<title>node_System(97)</title>
<polygon fill="white" stroke="black" points="1215,-164 943,-164 943,-128 1215,-128 1215,-164"/>
<text text-anchor="middle" x="1079" y="-142.3" font-family="Times,serif" font-size="14.00">update_image_calculated_size_system</text>
</g>
<!-- node_System(97)&#45;&gt;set_marker_node_Set(116) -->
<g id="edge18" class="edge">
<title>node_System(97)&#45;&gt;set_marker_node_Set(116)</title>
<path fill="none" stroke="black" d="M1171.2,-164.46C1190.81,-168.17 1211.66,-171.93 1231.66,-175.19"/>
<polygon fill="black" stroke="black" points="1231.08,-178.64 1241.51,-176.76 1232.18,-171.73 1231.08,-178.64"/>
</g>
<!-- set_marker_node_Set(12)&#45;&gt;set_marker_node_Set(6) -->
<g id="edge11" class="edge">
<title>set_marker_node_Set(12)&#45;&gt;set_marker_node_Set(6)</title>
<path fill="none" stroke="black" d="M1518,-39C1547.72,-39 1602.96,-39 1643.66,-39"/>
<polygon fill="black" stroke="black" points="1643.49,-42.5 1653.49,-39 1643.49,-35.5 1643.49,-42.5"/>
</g>
<!-- set_marker_node_Set(58)&#45;&gt;set_marker_node_Set(8) -->
<g id="edge12" class="edge">
<title>set_marker_node_Set(58)&#45;&gt;set_marker_node_Set(8)</title>
<path fill="none" stroke="black" d="M157,-142.47C163.48,-143.84 170.18,-145.25 176.74,-146.63"/>
<polygon fill="black" stroke="black" points="176.02,-150.05 186.53,-148.69 177.46,-143.21 176.02,-150.05"/>
</g>
<!-- set_marker_node_Set(59)&#45;&gt;set_marker_node_Set(12) -->
<g id="edge15" class="edge">
<title>set_marker_node_Set(59)&#45;&gt;set_marker_node_Set(12)</title>
<path fill="none" stroke="black" d="M1366,-22.14C1396.51,-26.13 1435.5,-31.22 1462.59,-34.76"/>
<polygon fill="black" stroke="black" points="1462.13,-38.23 1472.5,-36.06 1463.04,-31.29 1462.13,-38.23"/>
</g>
</g>
</svg>
