<?xml version="1.0" encoding="UTF-8" standalone="no"?>
<!DOCTYPE svg PUBLIC "-//W3C//DTD SVG 1.1//EN"
 "http://www.w3.org/Graphics/SVG/1.1/DTD/svg11.dtd">
<!-- Generated by graphviz version 7.1.0 (0)
 -->
<!-- Title: schedule Pages: 1 -->
<svg width="1480pt" height="141pt"
 viewBox="0.00 0.00 1480.00 141.00" xmlns="http://www.w3.org/2000/svg" xmlns:xlink="http://www.w3.org/1999/xlink">
<g id="graph0" class="graph" transform="scale(1 1) rotate(0) translate(4 137)">
<title>schedule</title>
<polygon fill="white" stroke="none" points="-4,4 -4,-137 1476,-137 1476,4 -4,4"/>
<g id="clust1" class="cluster">
<title>clusternode_Set(0)</title>
<polygon fill="white" stroke="black" points="738,-8 738,-101 925,-101 925,-8 738,-8"/>
<text text-anchor="middle" x="831.5" y="-85.8" font-family="Helvetica,sans-Serif" font-size="14.00">Update</text>
</g>
<g id="clust2" class="cluster">
<title>clusternode_Set(2)</title>
<polygon fill="white" stroke="black" points="70,-74 70,-113 152,-113 152,-74 70,-74"/>
<text text-anchor="middle" x="111" y="-97.8" font-family="Helvetica,sans-Serif" font-size="14.00">FirstFlush</text>
</g>
<g id="clust3" class="cluster">
<title>clusternode_Set(3)</title>
<polygon fill="white" stroke="black" points="331,-62 331,-101 454,-101 454,-62 331,-62"/>
<text text-anchor="middle" x="392.5" y="-85.8" font-family="Helvetica,sans-Serif" font-size="14.00">PreUpdateFlush</text>
</g>
<g id="clust4" class="cluster">
<title>clusternode_Set(4)</title>
<polygon fill="white" stroke="black" points="945,-62 945,-101 1046,-101 1046,-62 945,-62"/>
<text text-anchor="middle" x="995.5" y="-85.8" font-family="Helvetica,sans-Serif" font-size="14.00">UpdateFlush</text>
</g>
<g id="clust5" class="cluster">
<title>clusternode_Set(5)</title>
<polygon fill="white" stroke="black" points="1179,-86 1179,-125 1308,-125 1308,-86 1179,-86"/>
<text text-anchor="middle" x="1243.5" y="-109.8" font-family="Helvetica,sans-Serif" font-size="14.00">PostUpdateFlush</text>
</g>
<g id="clust6" class="cluster">
<title>clusternode_Set(6)</title>
<polygon fill="white" stroke="black" points="1392,-62 1392,-101 1472,-101 1472,-62 1392,-62"/>
<text text-anchor="middle" x="1432" y="-85.8" font-family="Helvetica,sans-Serif" font-size="14.00">LastFlush</text>
</g>
<g id="clust7" class="cluster">
<title>clusternode_Set(7)</title>
<polygon fill="white" stroke="black" points="0,-50 0,-89 46,-89 46,-50 0,-50"/>
<text text-anchor="middle" x="23" y="-73.8" font-family="Helvetica,sans-Serif" font-size="14.00">First</text>
</g>
<g id="clust8" class="cluster">
<title>clusternode_Set(8)</title>
<polygon fill="white" stroke="black" points="177,-8 177,-101 311,-101 311,-8 177,-8"/>
<text text-anchor="middle" x="244" y="-85.8" font-family="Helvetica,sans-Serif" font-size="14.00">PreUpdate</text>
</g>
<g id="clust9" class="cluster">
<title>clusternode_Set(9)</title>
<polygon fill="white" stroke="black" points="474,-62 474,-101 598,-101 598,-62 474,-62"/>
<text text-anchor="middle" x="536" y="-85.8" font-family="Helvetica,sans-Serif" font-size="14.00">StateTransitions</text>
</g>
<g id="clust10" class="cluster">
<title>clusternode_Set(10)</title>
<polygon fill="white" stroke="black" points="618,-62 618,-101 718,-101 718,-62 618,-62"/>
<text text-anchor="middle" x="668" y="-85.8" font-family="Helvetica,sans-Serif" font-size="14.00">FixedUpdate</text>
</g>
<g id="clust11" class="cluster">
<title>clusternode_Set(11)</title>
<polygon fill="white" stroke="black" points="1066,-62 1066,-101 1159,-101 1159,-62 1066,-62"/>
<text text-anchor="middle" x="1112.5" y="-85.8" font-family="Helvetica,sans-Serif" font-size="14.00">PostUpdate</text>
</g>
<g id="clust12" class="cluster">
<title>clusternode_Set(12)</title>
<polygon fill="white" stroke="black" points="1328,-62 1328,-101 1372,-101 1372,-62 1328,-62"/>
<text text-anchor="middle" x="1350" y="-85.8" font-family="Helvetica,sans-Serif" font-size="14.00">Last</text>
</g>
<g id="clust13" class="cluster">
<title>clusternode_Set(58)</title>
<polygon fill="white" stroke="black" points="66,-27 66,-66 157,-66 157,-27 66,-27"/>
<text text-anchor="middle" x="111.5" y="-50.8" font-family="Helvetica,sans-Serif" font-size="14.00">LoadAssets</text>
</g>
<g id="clust14" class="cluster">
<title>clusternode_Set(59)</title>
<polygon fill="white" stroke="black" points="1195,-39 1195,-78 1291,-78 1291,-39 1195,-39"/>
<text text-anchor="middle" x="1243" y="-62.8" font-family="Helvetica,sans-Serif" font-size="14.00">AssetEvents</text>
</g>
<!-- set_marker_node_Set(0) -->
<!-- set_marker_node_Set(4) -->
<!-- set_marker_node_Set(0)&#45;&gt;set_marker_node_Set(4) -->
<g id="edge7" class="edge">
<title>set_marker_node_Set(0)&#45;&gt;set_marker_node_Set(4)</title>
<path fill="none" stroke="black" d="M925,-70C927.89,-70 930.76,-70 933.59,-70"/>
<polygon fill="black" stroke="black" points="933.49,-73.5 943.49,-70 933.49,-66.5 933.49,-73.5"/>
</g>
<!-- node_System(55) -->
<g id="node2" class="node">
<title>node_System(55)</title>
<polygon fill="white" stroke="black" points="917,-52 746,-52 746,-16 917,-16 917,-52"/>
<text text-anchor="middle" x="831.5" y="-30.3" font-family="Times,serif" font-size="14.00">scene_spawner_system</text>
</g>
<!-- set_marker_node_Set(2) -->
<!-- set_marker_node_Set(8) -->
<!-- set_marker_node_Set(2)&#45;&gt;set_marker_node_Set(8) -->
<g id="edge2" class="edge">
<title>set_marker_node_Set(2)&#45;&gt;set_marker_node_Set(8)</title>
<path fill="none" stroke="black" d="M152,-78.34C156.38,-77.93 160.95,-77.52 165.6,-77.09"/>
<polygon fill="black" stroke="black" points="165.86,-80.58 175.49,-76.18 165.22,-73.61 165.86,-80.58"/>
</g>
<!-- set_marker_node_Set(3) -->
<!-- set_marker_node_Set(9) -->
<!-- set_marker_node_Set(3)&#45;&gt;set_marker_node_Set(9) -->
<g id="edge4" class="edge">
<title>set_marker_node_Set(3)&#45;&gt;set_marker_node_Set(9)</title>
<path fill="none" stroke="black" d="M454,-70C456.83,-70 459.68,-70 462.54,-70"/>
<polygon fill="black" stroke="black" points="462.49,-73.5 472.49,-70 462.49,-66.5 462.49,-73.5"/>
</g>
<!-- set_marker_node_Set(11) -->
<!-- set_marker_node_Set(4)&#45;&gt;set_marker_node_Set(11) -->
<g id="edge8" class="edge">
<title>set_marker_node_Set(4)&#45;&gt;set_marker_node_Set(11)</title>
<path fill="none" stroke="black" d="M1046,-70C1048.92,-70 1051.88,-70 1054.82,-70"/>
<polygon fill="black" stroke="black" points="1054.49,-73.5 1064.49,-70 1054.49,-66.5 1054.49,-73.5"/>
</g>
<!-- set_marker_node_Set(5) -->
<!-- set_marker_node_Set(12) -->
<!-- set_marker_node_Set(5)&#45;&gt;set_marker_node_Set(12) -->
<g id="edge10" class="edge">
<title>set_marker_node_Set(5)&#45;&gt;set_marker_node_Set(12)</title>
<path fill="none" stroke="black" d="M1289.71,-86C1295.88,-84.76 1302.11,-83.41 1308,-82 1310.97,-81.29 1314.04,-80.5 1317.11,-79.67"/>
<polygon fill="black" stroke="black" points="1317.88,-83.09 1326.55,-76.99 1315.97,-76.35 1317.88,-83.09"/>
</g>
<!-- set_marker_node_Set(6) -->
<!-- set_marker_node_Set(7) -->
<!-- set_marker_node_Set(7)&#45;&gt;set_marker_node_Set(2) -->
<g id="edge1" class="edge">
<title>set_marker_node_Set(7)&#45;&gt;set_marker_node_Set(2)</title>
<path fill="none" stroke="black" d="M46,-64.34C52.44,-66.18 59.5,-68.18 66,-70 67.17,-70.33 68.36,-70.66 69.55,-70.99"/>
<polygon fill="black" stroke="black" points="68.45,-74.32 79.02,-73.6 70.31,-67.57 68.45,-74.32"/>
</g>
<!-- set_marker_node_Set(58) -->
<!-- set_marker_node_Set(7)&#45;&gt;set_marker_node_Set(58) -->
<g id="edge13" class="edge">
<title>set_marker_node_Set(7)&#45;&gt;set_marker_node_Set(58)</title>
<path fill="none" stroke="black" d="M46,-52.12C48.89,-51.34 51.94,-50.53 55.09,-49.68"/>
<polygon fill="black" stroke="black" points="55.78,-53.12 64.54,-47.16 53.98,-46.36 55.78,-53.12"/>
</g>
<!-- set_marker_node_Set(8)&#45;&gt;set_marker_node_Set(3) -->
<g id="edge3" class="edge">
<title>set_marker_node_Set(8)&#45;&gt;set_marker_node_Set(3)</title>
<path fill="none" stroke="black" d="M311,-70C313.95,-70 316.93,-70 319.89,-70"/>
<polygon fill="black" stroke="black" points="319.49,-73.5 329.49,-70 319.49,-66.5 319.49,-73.5"/>
</g>
<!-- node_System(56) -->
<g id="node10" class="node">
<title>node_System(56)</title>
<polygon fill="white" stroke="black" points="303,-52 185,-52 185,-16 303,-16 303,-52"/>
<text text-anchor="middle" x="244" y="-30.3" font-family="Times,serif" font-size="14.00">scene_spawner</text>
</g>
<!-- set_marker_node_Set(10) -->
<!-- set_marker_node_Set(9)&#45;&gt;set_marker_node_Set(10) -->
<g id="edge5" class="edge">
<title>set_marker_node_Set(9)&#45;&gt;set_marker_node_Set(10)</title>
<path fill="none" stroke="black" d="M598,-70C600.97,-70 603.95,-70 606.92,-70"/>
<polygon fill="black" stroke="black" points="606.49,-73.5 616.49,-70 606.49,-66.5 606.49,-73.5"/>
</g>
<!-- set_marker_node_Set(10)&#45;&gt;set_marker_node_Set(0) -->
<g id="edge6" class="edge">
<title>set_marker_node_Set(10)&#45;&gt;set_marker_node_Set(0)</title>
<path fill="none" stroke="black" d="M718,-70C720.85,-70 723.75,-70 726.71,-70"/>
<polygon fill="black" stroke="black" points="726.49,-73.5 736.49,-70 726.49,-66.5 726.49,-73.5"/>
</g>
<!-- set_marker_node_Set(11)&#45;&gt;set_marker_node_Set(5) -->
<g id="edge9" class="edge">
<title>set_marker_node_Set(11)&#45;&gt;set_marker_node_Set(5)</title>
<path fill="none" stroke="black" d="M1159,-78.56C1168.41,-80.31 1178.4,-82.17 1188.06,-83.96"/>
<polygon fill="black" stroke="black" points="1187.06,-87.34 1197.53,-85.73 1188.34,-80.46 1187.06,-87.34"/>
</g>
<!-- set_marker_node_Set(59) -->
<!-- set_marker_node_Set(11)&#45;&gt;set_marker_node_Set(59) -->
<g id="edge14" class="edge">
<title>set_marker_node_Set(11)&#45;&gt;set_marker_node_Set(59)</title>
<path fill="none" stroke="black" d="M1157.87,-62C1166.26,-60.5 1175.15,-58.92 1183.87,-57.36"/>
<polygon fill="black" stroke="black" points="1184.28,-60.85 1193.51,-55.64 1183.05,-53.95 1184.28,-60.85"/>
</g>
<!-- set_marker_node_Set(12)&#45;&gt;set_marker_node_Set(6) -->
<g id="edge11" class="edge">
<title>set_marker_node_Set(12)&#45;&gt;set_marker_node_Set(6)</title>
<path fill="none" stroke="black" d="M1372,-70C1374.72,-70 1377.6,-70 1380.56,-70"/>
<polygon fill="black" stroke="black" points="1380.49,-73.5 1390.49,-70 1380.49,-66.5 1380.49,-73.5"/>
</g>
<!-- set_marker_node_Set(58)&#45;&gt;set_marker_node_Set(8) -->
<g id="edge12" class="edge">
<title>set_marker_node_Set(58)&#45;&gt;set_marker_node_Set(8)</title>
<path fill="none" stroke="black" d="M157,-54.64C160.07,-55.75 163.17,-56.83 166.28,-57.83"/>
<polygon fill="black" stroke="black" points="164.97,-61.1 175.55,-60.57 166.95,-54.38 164.97,-61.1"/>
</g>
<!-- set_marker_node_Set(59)&#45;&gt;set_marker_node_Set(12) -->
<g id="edge15" class="edge">
<title>set_marker_node_Set(59)&#45;&gt;set_marker_node_Set(12)</title>
<path fill="none" stroke="black" d="M1291,-57.3C1299.82,-59.23 1308.85,-61.21 1317.08,-63.01"/>
<polygon fill="black" stroke="black" points="1316.01,-66.36 1326.52,-65.08 1317.5,-59.52 1316.01,-66.36"/>
</g>
</g>
</svg>
