<?xml version="1.0" encoding="UTF-8" standalone="no"?>
<!DOCTYPE svg PUBLIC "-//W3C//DTD SVG 1.1//EN"
 "http://www.w3.org/Graphics/SVG/1.1/DTD/svg11.dtd">
<!-- Generated by graphviz version 7.1.0 (0)
 -->
<!-- Pages: 1 -->
<svg width="1529pt" height="140pt"
 viewBox="0.00 0.00 1529.00 140.00" xmlns="http://www.w3.org/2000/svg" xmlns:xlink="http://www.w3.org/1999/xlink">
<g id="graph0" class="graph" transform="scale(1 1) rotate(0) translate(4 136)">
<polygon fill="white" stroke="none" points="-4,4 -4,-136 1525,-136 1525,4 -4,4"/>
<g id="clust1" class="cluster">
<title>clusternode_Set(0)</title>
<g id="a_clust1"><a xlink:title="Update">
<polygon fill="white" stroke="black" points="825,-62 825,-101 890,-101 890,-62 825,-62"/>
<text text-anchor="middle" x="857.5" y="-85.8" font-family="Helvetica,sans-Serif" font-size="14.00">Update</text>
</a>
</g>
</g>
<g id="clust2" class="cluster">
<title>clusternode_Set(2)</title>
<g id="a_clust2"><a xlink:title="FirstFlush">
<polygon fill="white" stroke="black" points="204,-85 204,-124 286,-124 286,-85 204,-85"/>
<text text-anchor="middle" x="245" y="-108.8" font-family="Helvetica,sans-Serif" font-size="14.00">FirstFlush</text>
</a>
</g>
</g>
<g id="clust3" class="cluster">
<title>clusternode_Set(3)</title>
<g id="a_clust3"><a xlink:title="PreUpdateFlush">
<polygon fill="white" stroke="black" points="418,-62 418,-101 541,-101 541,-62 418,-62"/>
<text text-anchor="middle" x="479.5" y="-85.8" font-family="Helvetica,sans-Serif" font-size="14.00">PreUpdateFlush</text>
</a>
</g>
</g>
<g id="clust4" class="cluster">
<title>clusternode_Set(4)</title>
<g id="a_clust4"><a xlink:title="UpdateFlush">
<polygon fill="white" stroke="black" points="910,-62 910,-101 1011,-101 1011,-62 910,-62"/>
<text text-anchor="middle" x="960.5" y="-85.8" font-family="Helvetica,sans-Serif" font-size="14.00">UpdateFlush</text>
</a>
</g>
</g>
<g id="clust5" class="cluster">
<title>clusternode_Set(5)</title>
<g id="a_clust5"><a xlink:title="PostUpdateFlush">
<polygon fill="white" stroke="black" points="1228,-73 1228,-112 1357,-112 1357,-73 1228,-73"/>
<text text-anchor="middle" x="1292.5" y="-96.8" font-family="Helvetica,sans-Serif" font-size="14.00">PostUpdateFlush</text>
</a>
</g>
</g>
<g id="clust6" class="cluster">
<title>clusternode_Set(6)</title>
<g id="a_clust6"><a xlink:title="LastFlush">
<polygon fill="white" stroke="black" points="1441,-49 1441,-88 1521,-88 1521,-49 1441,-49"/>
<text text-anchor="middle" x="1481" y="-72.8" font-family="Helvetica,sans-Serif" font-size="14.00">LastFlush</text>
</a>
</g>
</g>
<g id="clust7" class="cluster">
<title>clusternode_Set(7)</title>
<g id="a_clust7"><a xlink:title="First">
<polygon fill="white" stroke="black" points="67,-38 67,-77 113,-77 113,-38 67,-38"/>
<text text-anchor="middle" x="90" y="-61.8" font-family="Helvetica,sans-Serif" font-size="14.00">First</text>
</a>
</g>
</g>
<g id="clust8" class="cluster">
<title>clusternode_Set(8)</title>
<g id="a_clust8"><a xlink:title="PreUpdate">
<polygon fill="white" stroke="black" points="311,-62 311,-101 398,-101 398,-62 311,-62"/>
<text text-anchor="middle" x="354.5" y="-85.8" font-family="Helvetica,sans-Serif" font-size="14.00">PreUpdate</text>
</a>
</g>
</g>
<g id="clust9" class="cluster">
<title>clusternode_Set(9)</title>
<g id="a_clust9"><a xlink:title="StateTransitions">
<polygon fill="white" stroke="black" points="561,-62 561,-101 685,-101 685,-62 561,-62"/>
<text text-anchor="middle" x="623" y="-85.8" font-family="Helvetica,sans-Serif" font-size="14.00">StateTransitions</text>
</a>
</g>
</g>
<g id="clust10" class="cluster">
<title>clusternode_Set(10)</title>
<g id="a_clust10"><a xlink:title="FixedUpdate">
<polygon fill="white" stroke="black" points="705,-62 705,-101 805,-101 805,-62 705,-62"/>
<text text-anchor="middle" x="755" y="-85.8" font-family="Helvetica,sans-Serif" font-size="14.00">FixedUpdate</text>
</a>
</g>
</g>
<g id="clust11" class="cluster">
<title>clusternode_Set(11)</title>
<g id="a_clust11"><a xlink:title="PostUpdate">
<polygon fill="white" stroke="black" points="1031,-8 1031,-101 1208,-101 1208,-8 1031,-8"/>
<text text-anchor="middle" x="1119.5" y="-85.8" font-family="Helvetica,sans-Serif" font-size="14.00">PostUpdate</text>
</a>
</g>
</g>
<g id="clust12" class="cluster">
<title>clusternode_Set(12)</title>
<g id="a_clust12"><a xlink:title="Last">
<polygon fill="white" stroke="black" points="1377,-49 1377,-88 1421,-88 1421,-49 1377,-49"/>
<text text-anchor="middle" x="1399" y="-72.8" font-family="Helvetica,sans-Serif" font-size="14.00">Last</text>
</a>
</g>
</g>
<g id="clust13" class="cluster">
<title>clusternode_Set(22)</title>
<g id="a_clust13"><a xlink:title="PropagateTransformsSet">
<polygon fill="white" stroke="black" points="0,-85 0,-124 180,-124 180,-85 0,-85"/>
<text text-anchor="middle" x="90" y="-108.8" font-family="Helvetica,sans-Serif" font-size="14.00">PropagateTransformsSet</text>
</a>
</g>
</g>
<g id="clust14" class="cluster">
<title>clusternode_Set(59)</title>
<g id="a_clust14"><a xlink:title="LoadAssets">
<polygon fill="white" stroke="black" points="200,-38 200,-77 291,-77 291,-38 200,-38"/>
<text text-anchor="middle" x="245.5" y="-61.8" font-family="Helvetica,sans-Serif" font-size="14.00">LoadAssets</text>
</a>
</g>
</g>
<g id="clust15" class="cluster">
<title>clusternode_Set(60)</title>
<g id="a_clust15"><a xlink:title="AssetEvents">
<polygon fill="white" stroke="black" points="1244,-26 1244,-65 1340,-65 1340,-26 1244,-26"/>
<text text-anchor="middle" x="1292" y="-49.8" font-family="Helvetica,sans-Serif" font-size="14.00">AssetEvents</text>
</a>
</g>
</g>
<!-- set_marker_node_Set(0) -->
<!-- set_marker_node_Set(4) -->
<!-- set_marker_node_Set(0)&#45;&gt;set_marker_node_Set(4) -->
<g id="edge7" class="edge">
<title>set_marker_node_Set(0)&#45;&gt;set_marker_node_Set(4)</title>
<g id="a_edge7"><a xlink:title="Update → UpdateFlush">
<path fill="none" stroke="#ee9e44" stroke-width="2" d="M890,-70C892.35,-70 894.77,-70 897.22,-70"/>
<polygon fill="#ee9e44" stroke="#ee9e44" stroke-width="2" points="896.97,-73.5 906.97,-70 896.97,-66.5 896.97,-73.5"/>
</a>
</g>
</g>
<!-- set_marker_node_Set(2) -->
<!-- set_marker_node_Set(8) -->
<!-- set_marker_node_Set(2)&#45;&gt;set_marker_node_Set(8) -->
<g id="edge2" class="edge">
<title>set_marker_node_Set(2)&#45;&gt;set_marker_node_Set(8)</title>
<g id="a_edge2"><a xlink:title="FirstFlush → PreUpdate">
<path fill="none" stroke="#881877" stroke-width="2" d="M283.2,-85C288.17,-83.94 293.34,-82.82 298.52,-81.71"/>
<polygon fill="#881877" stroke="#881877" stroke-width="2" points="299,-85.19 308.04,-79.66 297.53,-78.34 299,-85.19"/>
</a>
</g>
</g>
<!-- set_marker_node_Set(3) -->
<!-- set_marker_node_Set(9) -->
<!-- set_marker_node_Set(3)&#45;&gt;set_marker_node_Set(9) -->
<g id="edge4" class="edge">
<title>set_marker_node_Set(3)&#45;&gt;set_marker_node_Set(9)</title>
<g id="a_edge4"><a xlink:title="PreUpdateFlush → StateTransitions">
<path fill="none" stroke="#aa3a55" stroke-width="2" d="M541,-70C543.39,-70 545.8,-70 548.21,-70"/>
<polygon fill="#aa3a55" stroke="#aa3a55" stroke-width="2" points="547.98,-73.5 557.98,-70 547.98,-66.5 547.98,-73.5"/>
</a>
</g>
</g>
<!-- set_marker_node_Set(11) -->
<!-- set_marker_node_Set(4)&#45;&gt;set_marker_node_Set(11) -->
<g id="edge8" class="edge">
<title>set_marker_node_Set(4)&#45;&gt;set_marker_node_Set(11)</title>
<g id="a_edge8"><a xlink:title="UpdateFlush → PostUpdate">
<path fill="none" stroke="#663699" stroke-width="2" d="M1011,-70C1013.31,-70 1015.65,-70 1018.03,-70"/>
<polygon fill="#663699" stroke="#663699" stroke-width="2" points="1017.97,-73.5 1027.97,-70 1017.97,-66.5 1017.97,-73.5"/>
</a>
</g>
</g>
<!-- set_marker_node_Set(5) -->
<!-- set_marker_node_Set(12) -->
<!-- set_marker_node_Set(5)&#45;&gt;set_marker_node_Set(12) -->
<g id="edge10" class="edge">
<title>set_marker_node_Set(5)&#45;&gt;set_marker_node_Set(12)</title>
<g id="a_edge10"><a xlink:title="PostUpdateFlush → Last">
<path fill="none" stroke="#22c2bb" stroke-width="2" d="M1338.71,-73C1344.88,-71.76 1351.11,-70.41 1357,-69 1359.46,-68.41 1361.99,-67.77 1364.52,-67.09"/>
<polygon fill="#22c2bb" stroke="#22c2bb" stroke-width="2" points="1365.41,-70.48 1374.09,-64.4 1363.51,-63.74 1365.41,-70.48"/>
</a>
</g>
</g>
<!-- set_marker_node_Set(6) -->
<!-- set_marker_node_Set(7) -->
<!-- set_marker_node_Set(7)&#45;&gt;set_marker_node_Set(2) -->
<g id="edge1" class="edge">
<title>set_marker_node_Set(7)&#45;&gt;set_marker_node_Set(2)</title>
<g id="a_edge1"><a xlink:title="First → FirstFlush">
<path fill="none" stroke="#eede00" stroke-width="2" d="M113,-53.38C134.95,-60.67 169.69,-72 200,-81 200.56,-81.17 201.13,-81.33 201.7,-81.5"/>
<polygon fill="#eede00" stroke="#eede00" stroke-width="2" points="200.48,-84.79 211.06,-84.17 202.4,-78.06 200.48,-84.79"/>
</a>
</g>
</g>
<!-- set_marker_node_Set(59) -->
<!-- set_marker_node_Set(7)&#45;&gt;set_marker_node_Set(59) -->
<g id="edge13" class="edge">
<title>set_marker_node_Set(7)&#45;&gt;set_marker_node_Set(59)</title>
<g id="a_edge13"><a xlink:title="First → LoadAssets">
<path fill="none" stroke="#881877" stroke-width="2" d="M113,-46C132.35,-46 161.38,-46 187.19,-46"/>
<polygon fill="#881877" stroke="#881877" stroke-width="2" points="186.98,-49.5 196.98,-46 186.98,-42.5 186.98,-49.5"/>
</a>
</g>
</g>
<!-- set_marker_node_Set(8)&#45;&gt;set_marker_node_Set(3) -->
<g id="edge3" class="edge">
<title>set_marker_node_Set(8)&#45;&gt;set_marker_node_Set(3)</title>
<g id="a_edge3"><a xlink:title="PreUpdate → PreUpdateFlush">
<path fill="none" stroke="#00b0cc" stroke-width="2" d="M398,-70C400.39,-70 402.82,-70 405.28,-70"/>
<polygon fill="#00b0cc" stroke="#00b0cc" stroke-width="2" points="404.98,-73.5 414.98,-70 404.98,-66.5 404.98,-73.5"/>
</a>
</g>
</g>
<!-- set_marker_node_Set(10) -->
<!-- set_marker_node_Set(9)&#45;&gt;set_marker_node_Set(10) -->
<g id="edge5" class="edge">
<title>set_marker_node_Set(9)&#45;&gt;set_marker_node_Set(10)</title>
<g id="a_edge5"><a xlink:title="StateTransitions → FixedUpdate">
<path fill="none" stroke="#44d488" stroke-width="2" d="M685,-70C687.39,-70 689.79,-70 692.19,-70"/>
<polygon fill="#44d488" stroke="#44d488" stroke-width="2" points="691.98,-73.5 701.98,-70 691.98,-66.5 691.98,-73.5"/>
</a>
</g>
</g>
<!-- set_marker_node_Set(10)&#45;&gt;set_marker_node_Set(0) -->
<g id="edge6" class="edge">
<title>set_marker_node_Set(10)&#45;&gt;set_marker_node_Set(0)</title>
<g id="a_edge6"><a xlink:title="FixedUpdate → Update">
<path fill="none" stroke="#0090cc" stroke-width="2" d="M805,-70C807.37,-70 809.75,-70 812.11,-70"/>
<polygon fill="#0090cc" stroke="#0090cc" stroke-width="2" points="811.98,-73.5 821.98,-70 811.98,-66.5 811.98,-73.5"/>
</a>
</g>
</g>
<!-- set_marker_node_Set(11)&#45;&gt;set_marker_node_Set(5) -->
<g id="edge9" class="edge">
<title>set_marker_node_Set(11)&#45;&gt;set_marker_node_Set(5)</title>
<g id="a_edge9"><a xlink:title="PostUpdate → PostUpdateFlush">
<path fill="none" stroke="#3363bb" stroke-width="2" d="M1208,-75.65C1210.36,-75.8 1212.72,-75.95 1215.07,-76.1"/>
<polygon fill="#3363bb" stroke="#3363bb" stroke-width="2" points="1214.78,-79.59 1224.98,-76.74 1215.23,-72.6 1214.78,-79.59"/>
</a>
</g>
</g>
<!-- set_marker_node_Set(60) -->
<!-- set_marker_node_Set(11)&#45;&gt;set_marker_node_Set(60) -->
<g id="edge14" class="edge">
<title>set_marker_node_Set(11)&#45;&gt;set_marker_node_Set(60)</title>
<g id="a_edge14"><a xlink:title="PostUpdate → AssetEvents">
<path fill="none" stroke="#00b0cc" stroke-width="2" d="M1208,-61C1215.77,-59.36 1223.84,-57.25 1231.75,-54.95"/>
<polygon fill="#00b0cc" stroke="#00b0cc" stroke-width="2" points="1232.57,-58.36 1241.11,-52.09 1230.52,-51.67 1232.57,-58.36"/>
</a>
</g>
</g>
<!-- node_System(94) -->
<g id="node12" class="node">
<title>node_System(94)</title>
<g id="a_node12"><a xlink:title="bevy_text::text2d::update_text2d_layout">
<polygon fill="white" stroke="black" points="1200,-52 1039,-52 1039,-16 1200,-16 1200,-52"/>
<text text-anchor="middle" x="1119.5" y="-30.3" font-family="Times,serif" font-size="14.00">update_text2d_layout</text>
</a>
</g>
</g>
<!-- set_marker_node_Set(12)&#45;&gt;set_marker_node_Set(6) -->
<g id="edge11" class="edge">
<title>set_marker_node_Set(12)&#45;&gt;set_marker_node_Set(6)</title>
<g id="a_edge11"><a xlink:title="Last → LastFlush">
<path fill="none" stroke="#99d955" stroke-width="2" d="M1421,-57C1423.31,-57 1425.74,-57 1428.23,-57"/>
<polygon fill="#99d955" stroke="#99d955" stroke-width="2" points="1427.98,-60.5 1437.98,-57 1427.98,-53.5 1427.98,-60.5"/>
</a>
</g>
</g>
<!-- set_marker_node_Set(22) -->
<!-- set_marker_node_Set(59)&#45;&gt;set_marker_node_Set(8) -->
<g id="edge12" class="edge">
<title>set_marker_node_Set(59)&#45;&gt;set_marker_node_Set(8)</title>
<g id="a_edge12"><a xlink:title="LoadAssets → PreUpdate">
<path fill="none" stroke="#eede00" stroke-width="2" d="M291,-56.09C295.6,-57.12 300.28,-58.18 304.91,-59.21"/>
<polygon fill="#eede00" stroke="#eede00" stroke-width="2" points="303.87,-62.57 314.39,-61.34 305.4,-55.74 303.87,-62.57"/>
</a>
</g>
</g>
<!-- set_marker_node_Set(60)&#45;&gt;set_marker_node_Set(12) -->
<g id="edge15" class="edge">
<title>set_marker_node_Set(60)&#45;&gt;set_marker_node_Set(12)</title>
<g id="a_edge15"><a xlink:title="AssetEvents → Last">
<path fill="none" stroke="#aa3a55" stroke-width="2" d="M1340,-44.29C1348.25,-46.1 1356.69,-47.95 1364.48,-49.66"/>
<polygon fill="#aa3a55" stroke="#aa3a55" stroke-width="2" points="1363.53,-53.03 1374.04,-51.75 1365.02,-46.19 1363.53,-53.03"/>
</a>
</g>
</g>
</g>
</svg>
