<?xml version="1.0" encoding="UTF-8" standalone="no"?>
<!DOCTYPE svg PUBLIC "-//W3C//DTD SVG 1.1//EN"
 "http://www.w3.org/Graphics/SVG/1.1/DTD/svg11.dtd">
<!-- Generated by graphviz version 7.1.0 (0)
 -->
<!-- Pages: 1 -->
<svg width="1482pt" height="134pt"
 viewBox="0.00 0.00 1482.00 134.00" xmlns="http://www.w3.org/2000/svg" xmlns:xlink="http://www.w3.org/1999/xlink">
<g id="graph0" class="graph" transform="scale(1 1) rotate(0) translate(4 130)">
<polygon fill="white" stroke="none" points="-4,4 -4,-130 1478,-130 1478,4 -4,4"/>
<g id="clust1" class="cluster">
<title>clusternode_Set(0)</title>
<g id="a_clust1"><a xlink:title="Update">
<path fill="#000000" fill-opacity="0.031373" stroke="#000000" stroke-width="2" stroke-opacity="0.250980" d="M751,-8C751,-8 915,-8 915,-8 921,-8 927,-14 927,-20 927,-20 927,-82 927,-82 927,-88 921,-94 915,-94 915,-94 751,-94 751,-94 745,-94 739,-88 739,-82 739,-82 739,-20 739,-20 739,-14 745,-8 751,-8"/>
<text text-anchor="middle" x="833" y="-78.8" font-family="Helvetica,sans-Serif" font-size="14.00">Update</text>
</a>
</g>
</g>
<g id="clust2" class="cluster">
<title>clusternode_Set(2)</title>
<g id="a_clust2"><a xlink:title="FirstFlush">
<path fill="#000000" fill-opacity="0.031373" stroke="#000000" stroke-width="2" stroke-opacity="0.250980" d="M82,-67C82,-67 140,-67 140,-67 146,-67 152,-73 152,-79 152,-79 152,-94 152,-94 152,-100 146,-106 140,-106 140,-106 82,-106 82,-106 76,-106 70,-100 70,-94 70,-94 70,-79 70,-79 70,-73 76,-67 82,-67"/>
<text text-anchor="middle" x="111" y="-90.8" font-family="Helvetica,sans-Serif" font-size="14.00">FirstFlush</text>
</a>
</g>
</g>
<g id="clust3" class="cluster">
<title>clusternode_Set(3)</title>
<g id="a_clust3"><a xlink:title="PreUpdateFlush">
<path fill="#000000" fill-opacity="0.031373" stroke="#000000" stroke-width="2" stroke-opacity="0.250980" d="M344,-55C344,-55 443,-55 443,-55 449,-55 455,-61 455,-67 455,-67 455,-82 455,-82 455,-88 449,-94 443,-94 443,-94 344,-94 344,-94 338,-94 332,-88 332,-82 332,-82 332,-67 332,-67 332,-61 338,-55 344,-55"/>
<text text-anchor="middle" x="393.5" y="-78.8" font-family="Helvetica,sans-Serif" font-size="14.00">PreUpdateFlush</text>
</a>
</g>
</g>
<g id="clust4" class="cluster">
<title>clusternode_Set(4)</title>
<g id="a_clust4"><a xlink:title="UpdateFlush">
<path fill="#000000" fill-opacity="0.031373" stroke="#000000" stroke-width="2" stroke-opacity="0.250980" d="M959,-55C959,-55 1036,-55 1036,-55 1042,-55 1048,-61 1048,-67 1048,-67 1048,-82 1048,-82 1048,-88 1042,-94 1036,-94 1036,-94 959,-94 959,-94 953,-94 947,-88 947,-82 947,-82 947,-67 947,-67 947,-61 953,-55 959,-55"/>
<text text-anchor="middle" x="997.5" y="-78.8" font-family="Helvetica,sans-Serif" font-size="14.00">UpdateFlush</text>
</a>
</g>
</g>
<g id="clust5" class="cluster">
<title>clusternode_Set(5)</title>
<g id="a_clust5"><a xlink:title="PostUpdateFlush">
<path fill="#000000" fill-opacity="0.031373" stroke="#000000" stroke-width="2" stroke-opacity="0.250980" d="M1193,-79C1193,-79 1298,-79 1298,-79 1304,-79 1310,-85 1310,-91 1310,-91 1310,-106 1310,-106 1310,-112 1304,-118 1298,-118 1298,-118 1193,-118 1193,-118 1187,-118 1181,-112 1181,-106 1181,-106 1181,-91 1181,-91 1181,-85 1187,-79 1193,-79"/>
<text text-anchor="middle" x="1245.5" y="-102.8" font-family="Helvetica,sans-Serif" font-size="14.00">PostUpdateFlush</text>
</a>
</g>
</g>
<g id="clust6" class="cluster">
<title>clusternode_Set(6)</title>
<g id="a_clust6"><a xlink:title="LastFlush">
<path fill="#000000" fill-opacity="0.031373" stroke="#000000" stroke-width="2" stroke-opacity="0.250980" d="M1406,-55C1406,-55 1462,-55 1462,-55 1468,-55 1474,-61 1474,-67 1474,-67 1474,-82 1474,-82 1474,-88 1468,-94 1462,-94 1462,-94 1406,-94 1406,-94 1400,-94 1394,-88 1394,-82 1394,-82 1394,-67 1394,-67 1394,-61 1400,-55 1406,-55"/>
<text text-anchor="middle" x="1434" y="-78.8" font-family="Helvetica,sans-Serif" font-size="14.00">LastFlush</text>
</a>
</g>
</g>
<g id="clust7" class="cluster">
<title>clusternode_Set(7)</title>
<g id="a_clust7"><a xlink:title="First">
<path fill="#000000" fill-opacity="0.031373" stroke="#000000" stroke-width="2" stroke-opacity="0.250980" d="M12,-43C12,-43 34,-43 34,-43 40,-43 46,-49 46,-55 46,-55 46,-70 46,-70 46,-76 40,-82 34,-82 34,-82 12,-82 12,-82 6,-82 0,-76 0,-70 0,-70 0,-55 0,-55 0,-49 6,-43 12,-43"/>
<text text-anchor="middle" x="23" y="-66.8" font-family="Helvetica,sans-Serif" font-size="14.00">First</text>
</a>
</g>
</g>
<g id="clust8" class="cluster">
<title>clusternode_Set(8)</title>
<g id="a_clust8"><a xlink:title="PreUpdate">
<path fill="#000000" fill-opacity="0.031373" stroke="#000000" stroke-width="2" stroke-opacity="0.250980" d="M189,-8C189,-8 300,-8 300,-8 306,-8 312,-14 312,-20 312,-20 312,-82 312,-82 312,-88 306,-94 300,-94 300,-94 189,-94 189,-94 183,-94 177,-88 177,-82 177,-82 177,-20 177,-20 177,-14 183,-8 189,-8"/>
<text text-anchor="middle" x="244.5" y="-78.8" font-family="Helvetica,sans-Serif" font-size="14.00">PreUpdate</text>
</a>
</g>
</g>
<g id="clust9" class="cluster">
<title>clusternode_Set(9)</title>
<g id="a_clust9"><a xlink:title="StateTransitions">
<path fill="#000000" fill-opacity="0.031373" stroke="#000000" stroke-width="2" stroke-opacity="0.250980" d="M487,-55C487,-55 587,-55 587,-55 593,-55 599,-61 599,-67 599,-67 599,-82 599,-82 599,-88 593,-94 587,-94 587,-94 487,-94 487,-94 481,-94 475,-88 475,-82 475,-82 475,-67 475,-67 475,-61 481,-55 487,-55"/>
<text text-anchor="middle" x="537" y="-78.8" font-family="Helvetica,sans-Serif" font-size="14.00">StateTransitions</text>
</a>
</g>
</g>
<g id="clust10" class="cluster">
<title>clusternode_Set(10)</title>
<g id="a_clust10"><a xlink:title="FixedUpdate">
<path fill="#000000" fill-opacity="0.031373" stroke="#000000" stroke-width="2" stroke-opacity="0.250980" d="M631,-55C631,-55 707,-55 707,-55 713,-55 719,-61 719,-67 719,-67 719,-82 719,-82 719,-88 713,-94 707,-94 707,-94 631,-94 631,-94 625,-94 619,-88 619,-82 619,-82 619,-67 619,-67 619,-61 625,-55 631,-55"/>
<text text-anchor="middle" x="669" y="-78.8" font-family="Helvetica,sans-Serif" font-size="14.00">FixedUpdate</text>
</a>
</g>
</g>
<g id="clust11" class="cluster">
<title>clusternode_Set(11)</title>
<g id="a_clust11"><a xlink:title="PostUpdate">
<path fill="#000000" fill-opacity="0.031373" stroke="#000000" stroke-width="2" stroke-opacity="0.250980" d="M1080,-55C1080,-55 1149,-55 1149,-55 1155,-55 1161,-61 1161,-67 1161,-67 1161,-82 1161,-82 1161,-88 1155,-94 1149,-94 1149,-94 1080,-94 1080,-94 1074,-94 1068,-88 1068,-82 1068,-82 1068,-67 1068,-67 1068,-61 1074,-55 1080,-55"/>
<text text-anchor="middle" x="1114.5" y="-78.8" font-family="Helvetica,sans-Serif" font-size="14.00">PostUpdate</text>
</a>
</g>
</g>
<g id="clust12" class="cluster">
<title>clusternode_Set(12)</title>
<g id="a_clust12"><a xlink:title="Last">
<path fill="#000000" fill-opacity="0.031373" stroke="#000000" stroke-width="2" stroke-opacity="0.250980" d="M1342,-55C1342,-55 1362,-55 1362,-55 1368,-55 1374,-61 1374,-67 1374,-67 1374,-82 1374,-82 1374,-88 1368,-94 1362,-94 1362,-94 1342,-94 1342,-94 1336,-94 1330,-88 1330,-82 1330,-82 1330,-67 1330,-67 1330,-61 1336,-55 1342,-55"/>
<text text-anchor="middle" x="1352" y="-78.8" font-family="Helvetica,sans-Serif" font-size="14.00">Last</text>
</a>
</g>
</g>
<g id="clust13" class="cluster">
<title>clusternode_Set(59)</title>
<g id="a_clust13"><a xlink:title="LoadAssets">
<path fill="#000000" fill-opacity="0.031373" stroke="#000000" stroke-width="2" stroke-opacity="0.250980" d="M78,-20C78,-20 145,-20 145,-20 151,-20 157,-26 157,-32 157,-32 157,-47 157,-47 157,-53 151,-59 145,-59 145,-59 78,-59 78,-59 72,-59 66,-53 66,-47 66,-47 66,-32 66,-32 66,-26 72,-20 78,-20"/>
<text text-anchor="middle" x="111.5" y="-43.8" font-family="Helvetica,sans-Serif" font-size="14.00">LoadAssets</text>
</a>
</g>
</g>
<g id="clust14" class="cluster">
<title>clusternode_Set(60)</title>
<g id="a_clust14"><a xlink:title="AssetEvents">
<path fill="#000000" fill-opacity="0.031373" stroke="#000000" stroke-width="2" stroke-opacity="0.250980" d="M1209,-32C1209,-32 1281,-32 1281,-32 1287,-32 1293,-38 1293,-44 1293,-44 1293,-59 1293,-59 1293,-65 1287,-71 1281,-71 1281,-71 1209,-71 1209,-71 1203,-71 1197,-65 1197,-59 1197,-59 1197,-44 1197,-44 1197,-38 1203,-32 1209,-32"/>
<text text-anchor="middle" x="1245" y="-55.8" font-family="Helvetica,sans-Serif" font-size="14.00">AssetEvents</text>
</a>
</g>
</g>
<!-- set_marker_node_Set(0) -->
<!-- set_marker_node_Set(4) -->
<!-- set_marker_node_Set(0)&#45;&gt;set_marker_node_Set(4) -->
<g id="edge7" class="edge">
<title>set_marker_node_Set(0)&#45;&gt;set_marker_node_Set(4)</title>
<g id="a_edge7"><a xlink:title="Update → UpdateFlush">
<path fill="none" stroke="#ee9e44" stroke-width="2" d="M927,-63C929.39,-63 931.76,-63 934.12,-63"/>
<polygon fill="#ee9e44" stroke="#ee9e44" stroke-width="2" points="933.98,-66.5 943.98,-63 933.98,-59.5 933.98,-66.5"/>
</a>
</g>
</g>
<!-- node_System(55) -->
<g id="node2" class="node">
<title>node_System(55)</title>
<g id="a_node2"><a xlink:title="bevy_scene::scene_spawner::scene_spawner_system">
<polygon fill="#bacfcb" stroke="#7da59d" points="919,-52 747,-52 747,-16 919,-16 919,-52"/>
<text text-anchor="middle" x="833" y="-30.3" font-family="Helvetica,sans-Serif" font-size="14.00" fill="#141e1c">scene_spawner_system</text>
</a>
</g>
</g>
<!-- set_marker_node_Set(2) -->
<!-- set_marker_node_Set(8) -->
<!-- set_marker_node_Set(2)&#45;&gt;set_marker_node_Set(8) -->
<g id="edge2" class="edge">
<title>set_marker_node_Set(2)&#45;&gt;set_marker_node_Set(8)</title>
<g id="a_edge2"><a xlink:title="FirstFlush → PreUpdate">
<path fill="none" stroke="#881877" stroke-width="2" d="M152,-71.35C155.92,-70.99 159.99,-70.62 164.13,-70.24"/>
<polygon fill="#881877" stroke="#881877" stroke-width="2" points="164.35,-73.74 173.99,-69.34 163.71,-66.77 164.35,-73.74"/>
</a>
</g>
</g>
<!-- set_marker_node_Set(3) -->
<!-- set_marker_node_Set(9) -->
<!-- set_marker_node_Set(3)&#45;&gt;set_marker_node_Set(9) -->
<g id="edge4" class="edge">
<title>set_marker_node_Set(3)&#45;&gt;set_marker_node_Set(9)</title>
<g id="a_edge4"><a xlink:title="PreUpdateFlush → StateTransitions">
<path fill="none" stroke="#aa3a55" stroke-width="2" d="M455,-63C457.39,-63 459.8,-63 462.21,-63"/>
<polygon fill="#aa3a55" stroke="#aa3a55" stroke-width="2" points="461.98,-66.5 471.98,-63 461.98,-59.5 461.98,-66.5"/>
</a>
</g>
</g>
<!-- set_marker_node_Set(11) -->
<!-- set_marker_node_Set(4)&#45;&gt;set_marker_node_Set(11) -->
<g id="edge8" class="edge">
<title>set_marker_node_Set(4)&#45;&gt;set_marker_node_Set(11)</title>
<g id="a_edge8"><a xlink:title="UpdateFlush → PostUpdate">
<path fill="none" stroke="#663699" stroke-width="2" d="M1048,-63C1050.43,-63 1052.88,-63 1055.32,-63"/>
<polygon fill="#663699" stroke="#663699" stroke-width="2" points="1054.98,-66.5 1064.98,-63 1054.98,-59.5 1054.98,-66.5"/>
</a>
</g>
</g>
<!-- set_marker_node_Set(5) -->
<!-- set_marker_node_Set(12) -->
<!-- set_marker_node_Set(5)&#45;&gt;set_marker_node_Set(12) -->
<g id="edge10" class="edge">
<title>set_marker_node_Set(5)&#45;&gt;set_marker_node_Set(12)</title>
<g id="a_edge10"><a xlink:title="PostUpdateFlush → Last">
<path fill="none" stroke="#22c2bb" stroke-width="2" d="M1283.29,-79C1292.06,-77.08 1301.37,-75 1310,-73 1312.44,-72.44 1314.96,-71.84 1317.5,-71.24"/>
<polygon fill="#22c2bb" stroke="#22c2bb" stroke-width="2" points="1318.16,-74.68 1327.06,-68.93 1316.52,-67.88 1318.16,-74.68"/>
</a>
</g>
</g>
<!-- set_marker_node_Set(6) -->
<!-- set_marker_node_Set(7) -->
<!-- set_marker_node_Set(7)&#45;&gt;set_marker_node_Set(2) -->
<g id="edge1" class="edge">
<title>set_marker_node_Set(7)&#45;&gt;set_marker_node_Set(2)</title>
<g id="a_edge1"><a xlink:title="First → FirstFlush">
<path fill="none" stroke="#eede00" stroke-width="2" d="M46,-57.14C53.02,-59.1 61.02,-61.33 68.95,-63.54"/>
<polygon fill="#eede00" stroke="#eede00" stroke-width="2" points="67.85,-66.87 78.43,-66.19 69.74,-60.13 67.85,-66.87"/>
</a>
</g>
</g>
<!-- set_marker_node_Set(59) -->
<!-- set_marker_node_Set(7)&#45;&gt;set_marker_node_Set(59) -->
<g id="edge13" class="edge">
<title>set_marker_node_Set(7)&#45;&gt;set_marker_node_Set(59)</title>
<g id="a_edge13"><a xlink:title="First → LoadAssets">
<path fill="none" stroke="#881877" stroke-width="2" d="M46,-45.12C48.46,-44.46 51.05,-43.77 53.71,-43.05"/>
<polygon fill="#881877" stroke="#881877" stroke-width="2" points="54.32,-46.51 63.08,-40.55 52.51,-39.75 54.32,-46.51"/>
</a>
</g>
</g>
<!-- set_marker_node_Set(8)&#45;&gt;set_marker_node_Set(3) -->
<g id="edge3" class="edge">
<title>set_marker_node_Set(8)&#45;&gt;set_marker_node_Set(3)</title>
<g id="a_edge3"><a xlink:title="PreUpdate → PreUpdateFlush">
<path fill="none" stroke="#00b0cc" stroke-width="2" d="M312,-63C314.47,-63 316.96,-63 319.44,-63"/>
<polygon fill="#00b0cc" stroke="#00b0cc" stroke-width="2" points="318.98,-66.5 328.98,-63 318.98,-59.5 318.98,-66.5"/>
</a>
</g>
</g>
<!-- node_System(56) -->
<g id="node10" class="node">
<title>node_System(56)</title>
<g id="a_node10"><a xlink:title="bevy_scene::bundle::scene_spawner">
<polygon fill="#bacfcb" stroke="#7da59d" points="304,-52 185,-52 185,-16 304,-16 304,-52"/>
<text text-anchor="middle" x="244.5" y="-30.3" font-family="Helvetica,sans-Serif" font-size="14.00" fill="#141e1c">scene_spawner</text>
</a>
</g>
</g>
<!-- set_marker_node_Set(10) -->
<!-- set_marker_node_Set(9)&#45;&gt;set_marker_node_Set(10) -->
<g id="edge5" class="edge">
<title>set_marker_node_Set(9)&#45;&gt;set_marker_node_Set(10)</title>
<g id="a_edge5"><a xlink:title="StateTransitions → FixedUpdate">
<path fill="none" stroke="#44d488" stroke-width="2" d="M599,-63C601.39,-63 603.79,-63 606.19,-63"/>
<polygon fill="#44d488" stroke="#44d488" stroke-width="2" points="605.98,-66.5 615.98,-63 605.98,-59.5 605.98,-66.5"/>
</a>
</g>
</g>
<!-- set_marker_node_Set(10)&#45;&gt;set_marker_node_Set(0) -->
<g id="edge6" class="edge">
<title>set_marker_node_Set(10)&#45;&gt;set_marker_node_Set(0)</title>
<g id="a_edge6"><a xlink:title="FixedUpdate → Update">
<path fill="none" stroke="#0090cc" stroke-width="2" d="M719,-63C721.33,-63 723.71,-63 726.12,-63"/>
<polygon fill="#0090cc" stroke="#0090cc" stroke-width="2" points="725.98,-66.5 735.98,-63 725.98,-59.5 725.98,-66.5"/>
</a>
</g>
</g>
<!-- set_marker_node_Set(11)&#45;&gt;set_marker_node_Set(5) -->
<g id="edge9" class="edge">
<title>set_marker_node_Set(11)&#45;&gt;set_marker_node_Set(5)</title>
<g id="a_edge9"><a xlink:title="PostUpdate → PostUpdateFlush">
<path fill="none" stroke="#3363bb" stroke-width="2" d="M1161,-71.56C1169.83,-73.2 1179.16,-74.94 1188.26,-76.63"/>
<polygon fill="#3363bb" stroke="#3363bb" stroke-width="2" points="1187.56,-80.06 1198.04,-78.45 1188.84,-73.18 1187.56,-80.06"/>
</a>
</g>
</g>
<!-- set_marker_node_Set(60) -->
<!-- set_marker_node_Set(11)&#45;&gt;set_marker_node_Set(60) -->
<g id="edge14" class="edge">
<title>set_marker_node_Set(11)&#45;&gt;set_marker_node_Set(60)</title>
<g id="a_edge14"><a xlink:title="PostUpdate → AssetEvents">
<path fill="none" stroke="#00b0cc" stroke-width="2" d="M1159.87,-55C1167.84,-53.58 1176.26,-52.08 1184.57,-50.6"/>
<polygon fill="#00b0cc" stroke="#00b0cc" stroke-width="2" points="1184.79,-54.11 1194.02,-48.91 1183.56,-47.22 1184.79,-54.11"/>
</a>
</g>
</g>
<!-- set_marker_node_Set(12)&#45;&gt;set_marker_node_Set(6) -->
<g id="edge11" class="edge">
<title>set_marker_node_Set(12)&#45;&gt;set_marker_node_Set(6)</title>
<g id="a_edge11"><a xlink:title="Last → LastFlush">
<path fill="none" stroke="#99d955" stroke-width="2" d="M1374,-63C1376.31,-63 1378.74,-63 1381.23,-63"/>
<polygon fill="#99d955" stroke="#99d955" stroke-width="2" points="1380.98,-66.5 1390.98,-63 1380.98,-59.5 1380.98,-66.5"/>
</a>
</g>
</g>
<!-- set_marker_node_Set(59)&#45;&gt;set_marker_node_Set(8) -->
<g id="edge12" class="edge">
<title>set_marker_node_Set(59)&#45;&gt;set_marker_node_Set(8)</title>
<g id="a_edge12"><a xlink:title="LoadAssets → PreUpdate">
<path fill="none" stroke="#eede00" stroke-width="2" d="M157,-51.25C159.53,-52.27 162.09,-53.25 164.67,-54.17"/>
<polygon fill="#eede00" stroke="#eede00" stroke-width="2" points="163.52,-57.48 174.11,-57.1 165.6,-50.79 163.52,-57.48"/>
</a>
</g>
</g>
<!-- set_marker_node_Set(60)&#45;&gt;set_marker_node_Set(12) -->
<g id="edge15" class="edge">
<title>set_marker_node_Set(60)&#45;&gt;set_marker_node_Set(12)</title>
<g id="a_edge15"><a xlink:title="AssetEvents → Last">
<path fill="none" stroke="#aa3a55" stroke-width="2" d="M1293,-50.29C1301.25,-52.1 1309.69,-53.95 1317.48,-55.66"/>
<polygon fill="#aa3a55" stroke="#aa3a55" stroke-width="2" points="1316.53,-59.03 1327.04,-57.75 1318.02,-52.19 1316.53,-59.03"/>
</a>
</g>
</g>
</g>
</svg>
