<?xml version="1.0" encoding="UTF-8" standalone="no"?>
<!DOCTYPE svg PUBLIC "-//W3C//DTD SVG 1.1//EN"
 "http://www.w3.org/Graphics/SVG/1.1/DTD/svg11.dtd">
<!-- Generated by graphviz version 7.1.0 (0)
 -->
<!-- Pages: 1 -->
<svg width="1987pt" height="508pt"
 viewBox="0.00 0.00 1987.00 508.00" xmlns="http://www.w3.org/2000/svg" xmlns:xlink="http://www.w3.org/1999/xlink">
<g id="graph0" class="graph" transform="scale(1 1) rotate(0) translate(4 504)">
<polygon fill="white" stroke="none" points="-4,4 -4,-504 1983,-504 1983,4 -4,4"/>
<g id="clust1" class="cluster">
<title>clusternode_Set(0)</title>
<g id="a_clust1"><a xlink:title="Update">
<path fill="#000000" fill-opacity="0.031373" stroke="#000000" stroke-width="2" stroke-opacity="0.250980" d="M869,-8C869,-8 986,-8 986,-8 992,-8 998,-14 998,-20 998,-20 998,-292 998,-292 998,-298 992,-304 986,-304 986,-304 869,-304 869,-304 863,-304 857,-298 857,-292 857,-292 857,-20 857,-20 857,-14 863,-8 869,-8"/>
<text text-anchor="middle" x="927.5" y="-288.8" font-family="Helvetica,sans-Serif" font-size="14.00">Update</text>
</a>
</g>
</g>
<g id="clust2" class="cluster">
<title>clusternode_Set(2)</title>
<g id="a_clust2"><a xlink:title="FirstFlush">
<path fill="#000000" fill-opacity="0.031373" stroke="#000000" stroke-width="2" stroke-opacity="0.250980" d="M87,-332C87,-332 145,-332 145,-332 151,-332 157,-338 157,-344 157,-344 157,-359 157,-359 157,-365 151,-371 145,-371 145,-371 87,-371 87,-371 81,-371 75,-365 75,-359 75,-359 75,-344 75,-344 75,-338 81,-332 87,-332"/>
<text text-anchor="middle" x="116" y="-355.8" font-family="Helvetica,sans-Serif" font-size="14.00">FirstFlush</text>
</a>
</g>
</g>
<g id="clust3" class="cluster">
<title>clusternode_Set(3)</title>
<g id="a_clust3"><a xlink:title="PreUpdateFlush">
<path fill="#000000" fill-opacity="0.031373" stroke="#000000" stroke-width="2" stroke-opacity="0.250980" d="M328,-265C328,-265 427,-265 427,-265 433,-265 439,-271 439,-277 439,-277 439,-292 439,-292 439,-298 433,-304 427,-304 427,-304 328,-304 328,-304 322,-304 316,-298 316,-292 316,-292 316,-277 316,-277 316,-271 322,-265 328,-265"/>
<text text-anchor="middle" x="377.5" y="-288.8" font-family="Helvetica,sans-Serif" font-size="14.00">PreUpdateFlush</text>
</a>
</g>
</g>
<g id="clust4" class="cluster">
<title>clusternode_Set(4)</title>
<g id="a_clust4"><a xlink:title="UpdateFlush">
<path fill="#000000" fill-opacity="0.031373" stroke="#000000" stroke-width="2" stroke-opacity="0.250980" d="M1029,-265C1029,-265 1106,-265 1106,-265 1112,-265 1118,-271 1118,-277 1118,-277 1118,-292 1118,-292 1118,-298 1112,-304 1106,-304 1106,-304 1029,-304 1029,-304 1023,-304 1017,-298 1017,-292 1017,-292 1017,-277 1017,-277 1017,-271 1023,-265 1029,-265"/>
<text text-anchor="middle" x="1067.5" y="-288.8" font-family="Helvetica,sans-Serif" font-size="14.00">UpdateFlush</text>
</a>
</g>
</g>
<g id="clust5" class="cluster">
<title>clusternode_Set(5)</title>
<g id="a_clust5"><a xlink:title="PostUpdateFlush">
<path fill="#000000" fill-opacity="0.031373" stroke="#000000" stroke-width="2" stroke-opacity="0.250980" d="M1464,-218C1464,-218 1569,-218 1569,-218 1575,-218 1581,-224 1581,-230 1581,-230 1581,-245 1581,-245 1581,-251 1575,-257 1569,-257 1569,-257 1464,-257 1464,-257 1458,-257 1452,-251 1452,-245 1452,-245 1452,-230 1452,-230 1452,-224 1458,-218 1464,-218"/>
<text text-anchor="middle" x="1516.5" y="-241.8" font-family="Helvetica,sans-Serif" font-size="14.00">PostUpdateFlush</text>
</a>
</g>
</g>
<g id="clust6" class="cluster">
<title>clusternode_Set(6)</title>
<g id="a_clust6"><a xlink:title="LastFlush">
<path fill="#000000" fill-opacity="0.031373" stroke="#000000" stroke-width="2" stroke-opacity="0.250980" d="M1848,-194C1848,-194 1904,-194 1904,-194 1910,-194 1916,-200 1916,-206 1916,-206 1916,-221 1916,-221 1916,-227 1910,-233 1904,-233 1904,-233 1848,-233 1848,-233 1842,-233 1836,-227 1836,-221 1836,-221 1836,-206 1836,-206 1836,-200 1842,-194 1848,-194"/>
<text text-anchor="middle" x="1876" y="-217.8" font-family="Helvetica,sans-Serif" font-size="14.00">LastFlush</text>
</a>
</g>
</g>
<g id="clust7" class="cluster">
<title>clusternode_Set(7)</title>
<g id="a_clust7"><a xlink:title="First">
<path fill="#000000" fill-opacity="0.031373" stroke="#000000" stroke-width="2" stroke-opacity="0.250980" d="M20,-312C20,-312 42,-312 42,-312 48,-312 54,-318 54,-324 54,-324 54,-339 54,-339 54,-345 48,-351 42,-351 42,-351 20,-351 20,-351 14,-351 8,-345 8,-339 8,-339 8,-324 8,-324 8,-318 14,-312 20,-312"/>
<text text-anchor="middle" x="31" y="-335.8" font-family="Helvetica,sans-Serif" font-size="14.00">First</text>
</a>
</g>
</g>
<g id="clust8" class="cluster">
<title>clusternode_Set(8)</title>
<g id="a_clust8"><a xlink:title="PreUpdate">
<path fill="#000000" fill-opacity="0.031373" stroke="#000000" stroke-width="2" stroke-opacity="0.250980" d="M191,-312C191,-312 443,-312 443,-312 449,-312 455,-318 455,-324 455,-324 455,-425 455,-425 455,-431 449,-437 443,-437 443,-437 191,-437 191,-437 185,-437 179,-431 179,-425 179,-425 179,-324 179,-324 179,-318 185,-312 191,-312"/>
<text text-anchor="middle" x="317" y="-421.8" font-family="Helvetica,sans-Serif" font-size="14.00">PreUpdate</text>
</a>
</g>
</g>
<g id="clust9" class="cluster">
<title>clusternode_Set(25)</title>
<g id="a_clust9"><a xlink:title="InputSystem">
<path fill="#000000" fill-opacity="0.031373" stroke="#000000" stroke-width="2" stroke-opacity="0.250980" d="M199,-338C199,-338 276,-338 276,-338 282,-338 288,-344 288,-350 288,-350 288,-365 288,-365 288,-371 282,-377 276,-377 276,-377 199,-377 199,-377 193,-377 187,-371 187,-365 187,-365 187,-350 187,-350 187,-344 193,-338 199,-338"/>
<text text-anchor="middle" x="237.5" y="-361.8" font-family="Helvetica,sans-Serif" font-size="14.00">InputSystem</text>
</a>
</g>
</g>
<g id="clust10" class="cluster">
<title>clusternode_Set(121)</title>
<g id="a_clust10"><a xlink:title="Focus">
<path fill="#000000" fill-opacity="0.031373" stroke="#000000" stroke-width="2" stroke-opacity="0.250980" d="M319,-320C319,-320 435,-320 435,-320 441,-320 447,-326 447,-332 447,-332 447,-394 447,-394 447,-400 441,-406 435,-406 435,-406 319,-406 319,-406 313,-406 307,-400 307,-394 307,-394 307,-332 307,-332 307,-326 313,-320 319,-320"/>
<text text-anchor="middle" x="377" y="-390.8" font-family="Helvetica,sans-Serif" font-size="14.00">Focus</text>
</a>
</g>
</g>
<g id="clust11" class="cluster">
<title>clusternode_Set(9)</title>
<g id="a_clust11"><a xlink:title="StateTransitions">
<path fill="#000000" fill-opacity="0.031373" stroke="#000000" stroke-width="2" stroke-opacity="0.250980" d="M484,-265C484,-265 584,-265 584,-265 590,-265 596,-271 596,-277 596,-277 596,-292 596,-292 596,-298 590,-304 584,-304 584,-304 484,-304 484,-304 478,-304 472,-298 472,-292 472,-292 472,-277 472,-277 472,-271 478,-265 484,-265"/>
<text text-anchor="middle" x="534" y="-288.8" font-family="Helvetica,sans-Serif" font-size="14.00">StateTransitions</text>
</a>
</g>
</g>
<g id="clust12" class="cluster">
<title>clusternode_Set(10)</title>
<g id="a_clust12"><a xlink:title="FixedUpdate">
<path fill="#000000" fill-opacity="0.031373" stroke="#000000" stroke-width="2" stroke-opacity="0.250980" d="M625,-265C625,-265 701,-265 701,-265 707,-265 713,-271 713,-277 713,-277 713,-292 713,-292 713,-298 707,-304 701,-304 701,-304 625,-304 625,-304 619,-304 613,-298 613,-292 613,-292 613,-277 613,-277 613,-271 619,-265 625,-265"/>
<text text-anchor="middle" x="663" y="-288.8" font-family="Helvetica,sans-Serif" font-size="14.00">FixedUpdate</text>
</a>
</g>
</g>
<g id="clust13" class="cluster">
<title>clusternode_Set(11)</title>
<g id="a_clust13"><a xlink:title="PostUpdate">
<path fill="#000000" fill-opacity="0.031373" stroke="#000000" stroke-width="2" stroke-opacity="0.250980" d="M1149,-265C1149,-265 1959,-265 1959,-265 1965,-265 1971,-271 1971,-277 1971,-277 1971,-480 1971,-480 1971,-486 1965,-492 1959,-492 1959,-492 1149,-492 1149,-492 1143,-492 1137,-486 1137,-480 1137,-480 1137,-277 1137,-277 1137,-271 1143,-265 1149,-265"/>
<text text-anchor="middle" x="1554" y="-476.8" font-family="Helvetica,sans-Serif" font-size="14.00">PostUpdate</text>
</a>
</g>
</g>
<g id="clust14" class="cluster">
<title>clusternode_Set(20)</title>
<g id="a_clust14"><a xlink:title="TransformPropagate">
<path fill="#000000" fill-opacity="0.031373" stroke="#000000" stroke-width="2" stroke-opacity="0.250980" d="M1622,-301C1622,-301 1750,-301 1750,-301 1756,-301 1762,-307 1762,-313 1762,-313 1762,-328 1762,-328 1762,-334 1756,-340 1750,-340 1750,-340 1622,-340 1622,-340 1616,-340 1610,-334 1610,-328 1610,-328 1610,-313 1610,-313 1610,-307 1616,-301 1622,-301"/>
<text text-anchor="middle" x="1686" y="-324.8" font-family="Helvetica,sans-Serif" font-size="14.00">TransformPropagate</text>
</a>
</g>
</g>
<g id="clust15" class="cluster">
<title>clusternode_Set(122)</title>
<g id="a_clust15"><a xlink:title="Flex">
<path fill="#000000" fill-opacity="0.031373" stroke="#000000" stroke-width="2" stroke-opacity="0.250980" d="M1453,-283C1453,-283 1579,-283 1579,-283 1585,-283 1591,-289 1591,-295 1591,-295 1591,-357 1591,-357 1591,-363 1585,-369 1579,-369 1579,-369 1453,-369 1453,-369 1447,-369 1441,-363 1441,-357 1441,-357 1441,-295 1441,-295 1441,-289 1447,-283 1453,-283"/>
<text text-anchor="middle" x="1516" y="-353.8" font-family="Helvetica,sans-Serif" font-size="14.00">Flex</text>
</a>
</g>
</g>
<g id="clust16" class="cluster">
<title>clusternode_Set(123)</title>
<g id="a_clust16"><a xlink:title="Stack">
<path fill="#000000" fill-opacity="0.031373" stroke="#000000" stroke-width="2" stroke-opacity="0.250980" d="M1221.5,-375C1221.5,-375 1335.5,-375 1335.5,-375 1341.5,-375 1347.5,-381 1347.5,-387 1347.5,-387 1347.5,-449 1347.5,-449 1347.5,-455 1341.5,-461 1335.5,-461 1335.5,-461 1221.5,-461 1221.5,-461 1215.5,-461 1209.5,-455 1209.5,-449 1209.5,-449 1209.5,-387 1209.5,-387 1209.5,-381 1215.5,-375 1221.5,-375"/>
<text text-anchor="middle" x="1278.5" y="-445.8" font-family="Helvetica,sans-Serif" font-size="14.00">Stack</text>
</a>
</g>
</g>
<g id="clust17" class="cluster">
<title>clusternode_Set(12)</title>
<g id="a_clust17"><a xlink:title="Last">
<path fill="#000000" fill-opacity="0.031373" stroke="#000000" stroke-width="2" stroke-opacity="0.250980" d="M1676,-194C1676,-194 1696,-194 1696,-194 1702,-194 1708,-200 1708,-206 1708,-206 1708,-221 1708,-221 1708,-227 1702,-233 1696,-233 1696,-233 1676,-233 1676,-233 1670,-233 1664,-227 1664,-221 1664,-221 1664,-206 1664,-206 1664,-200 1670,-194 1676,-194"/>
<text text-anchor="middle" x="1686" y="-217.8" font-family="Helvetica,sans-Serif" font-size="14.00">Last</text>
</a>
</g>
</g>
<g id="clust18" class="cluster">
<title>clusternode_Set(59)</title>
<g id="a_clust18"><a xlink:title="LoadAssets">
<path fill="#000000" fill-opacity="0.031373" stroke="#000000" stroke-width="2" stroke-opacity="0.250980" d="M83,-285C83,-285 150,-285 150,-285 156,-285 162,-291 162,-297 162,-297 162,-312 162,-312 162,-318 156,-324 150,-324 150,-324 83,-324 83,-324 77,-324 71,-318 71,-312 71,-312 71,-297 71,-297 71,-291 77,-285 83,-285"/>
<text text-anchor="middle" x="116.5" y="-308.8" font-family="Helvetica,sans-Serif" font-size="14.00">LoadAssets</text>
</a>
</g>
</g>
<g id="clust19" class="cluster">
<title>clusternode_Set(60)</title>
<g id="a_clust19"><a xlink:title="AssetEvents">
<path fill="#000000" fill-opacity="0.031373" stroke="#000000" stroke-width="2" stroke-opacity="0.250980" d="M1480,-171C1480,-171 1552,-171 1552,-171 1558,-171 1564,-177 1564,-183 1564,-183 1564,-198 1564,-198 1564,-204 1558,-210 1552,-210 1552,-210 1480,-210 1480,-210 1474,-210 1468,-204 1468,-198 1468,-198 1468,-183 1468,-183 1468,-177 1474,-171 1480,-171"/>
<text text-anchor="middle" x="1516" y="-194.8" font-family="Helvetica,sans-Serif" font-size="14.00">AssetEvents</text>
</a>
</g>
</g>
<!-- set_marker_node_Set(0) -->
<!-- set_marker_node_Set(4) -->
<!-- set_marker_node_Set(0)&#45;&gt;set_marker_node_Set(4) -->
<g id="edge7" class="edge">
<title>set_marker_node_Set(0)&#45;&gt;set_marker_node_Set(4)</title>
<g id="a_edge7"><a xlink:title="Update → UpdateFlush">
<path fill="none" stroke="#ee9e44" stroke-width="2" d="M998,-273C1000.05,-273 1002.09,-273 1004.13,-273"/>
<polygon fill="#ee9e44" stroke="#ee9e44" stroke-width="2" points="1003.98,-276.5 1013.98,-273 1003.98,-269.5 1003.98,-276.5"/>
</a>
</g>
</g>
<!-- node_System(102) -->
<g id="node2" class="node">
<title>node_System(102)</title>
<g id="a_node2"><a xlink:title="bevy_ui::accessibility::calc_bounds">
<polygon fill="#ffb1e5" stroke="#ff4bc2" points="976,-262 879,-262 879,-226 976,-226 976,-262"/>
<text text-anchor="middle" x="927.5" y="-240.3" font-family="Helvetica,sans-Serif" font-size="14.00" fill="#320021">calc_bounds</text>
</a>
</g>
</g>
<!-- node_System(103) -->
<g id="node3" class="node">
<title>node_System(103)</title>
<g id="a_node3"><a xlink:title="bevy_ui::accessibility::button_changed">
<polygon fill="#ffb1e5" stroke="#ff4bc2" points="990,-192 865,-192 865,-156 990,-156 990,-192"/>
<text text-anchor="middle" x="927.5" y="-170.3" font-family="Helvetica,sans-Serif" font-size="14.00" fill="#320021">button_changed</text>
</a>
</g>
</g>
<!-- node_System(102)&#45;&gt;node_System(103) -->
<g id="edge21" class="edge">
<title>node_System(102)&#45;&gt;node_System(103)</title>
<path fill="none" stroke="#c93526" stroke-width="2" d="M927.5,-225.97C927.5,-215.66 927.5,-202.76 927.5,-192.39"/>
<g id="a_edge21&#45;label"><a xlink:title="calc_bounds — button_changed">
<polygon fill="#d3d3d3" stroke="none" points="852,-199 852,-218 974,-218 974,-199 852,-199"/>
<text text-anchor="start" x="854" y="-204.8" font-family="Times,serif" font-size="14.00" fill="#c93526">AccessibilityNode</text>
</a>
</g>
</g>
<!-- node_System(104) -->
<g id="node4" class="node">
<title>node_System(104)</title>
<g id="a_node4"><a xlink:title="bevy_ui::accessibility::image_changed">
<polygon fill="#ffb1e5" stroke="#ff4bc2" points="987.5,-122 867.5,-122 867.5,-86 987.5,-86 987.5,-122"/>
<text text-anchor="middle" x="927.5" y="-100.3" font-family="Helvetica,sans-Serif" font-size="14.00" fill="#320021">image_changed</text>
</a>
</g>
</g>
<!-- node_System(102)&#45;&gt;node_System(104) -->
<g id="edge22" class="edge">
<title>node_System(102)&#45;&gt;node_System(104)</title>
<path fill="none" stroke="#c93526" stroke-width="2" d="M878.58,-244.7C835.68,-242.38 775.51,-231.35 744.92,-190.5 709.22,-142.84 801.14,-120.36 867.13,-110.61"/>
<g id="a_edge22&#45;label"><a xlink:title="calc_bounds — image_changed">
<polygon fill="#d3d3d3" stroke="none" points="723,-169 723,-188 845,-188 845,-169 723,-169"/>
<text text-anchor="start" x="725" y="-174.8" font-family="Times,serif" font-size="14.00" fill="#c93526">AccessibilityNode</text>
</a>
</g>
</g>
<!-- node_System(105) -->
<g id="node5" class="node">
<title>node_System(105)</title>
<g id="a_node5"><a xlink:title="bevy_ui::accessibility::label_changed">
<polygon fill="#ffb1e5" stroke="#ff4bc2" points="983,-52 872,-52 872,-16 983,-16 983,-52"/>
<text text-anchor="middle" x="927.5" y="-30.3" font-family="Helvetica,sans-Serif" font-size="14.00" fill="#320021">label_changed</text>
</a>
</g>
</g>
<!-- node_System(102)&#45;&gt;node_System(105) -->
<g id="edge23" class="edge">
<title>node_System(102)&#45;&gt;node_System(105)</title>
<path fill="none" stroke="#c93526" stroke-width="2" d="M878.78,-225.97C809.7,-197.71 696.75,-139.82 744.92,-78.5 774.34,-41.04 829.59,-31.83 871.64,-30.84"/>
<g id="a_edge23&#45;label"><a xlink:title="calc_bounds — label_changed">
<polygon fill="#d3d3d3" stroke="none" points="723,-80 723,-99 845,-99 845,-80 723,-80"/>
<text text-anchor="start" x="725" y="-85.8" font-family="Times,serif" font-size="14.00" fill="#c93526">AccessibilityNode</text>
</a>
</g>
</g>
<!-- node_System(103)&#45;&gt;node_System(104) -->
<g id="edge24" class="edge">
<title>node_System(103)&#45;&gt;node_System(104)</title>
<path fill="none" stroke="#c93526" stroke-width="2" d="M927.5,-155.97C927.5,-145.66 927.5,-132.76 927.5,-122.39"/>
<g id="a_edge24&#45;label"><a xlink:title="button_changed — image_changed">
<polygon fill="#d3d3d3" stroke="none" points="852,-129 852,-148 974,-148 974,-129 852,-129"/>
<text text-anchor="start" x="854" y="-134.8" font-family="Times,serif" font-size="14.00" fill="#c93526">AccessibilityNode</text>
</a>
</g>
</g>
<!-- node_System(103)&#45;&gt;node_System(105) -->
<g id="edge25" class="edge">
<title>node_System(103)&#45;&gt;node_System(105)</title>
<path fill="none" stroke="#c93526" stroke-width="2" d="M864.91,-179.87C824.05,-179.91 773.2,-172 744.92,-137.5 704.6,-88.33 804.08,-58.1 871.51,-43.84"/>
<g id="a_edge25&#45;label"><a xlink:title="button_changed — label_changed">
<polygon fill="#d3d3d3" stroke="none" points="723,-116 723,-135 845,-135 845,-116 723,-116"/>
<text text-anchor="start" x="725" y="-121.8" font-family="Times,serif" font-size="14.00" fill="#c93526">AccessibilityNode</text>
</a>
</g>
</g>
<!-- node_System(104)&#45;&gt;node_System(105) -->
<g id="edge26" class="edge">
<title>node_System(104)&#45;&gt;node_System(105)</title>
<path fill="none" stroke="#c93526" stroke-width="2" d="M927.5,-85.97C927.5,-75.66 927.5,-62.76 927.5,-52.39"/>
<g id="a_edge26&#45;label"><a xlink:title="image_changed — label_changed">
<polygon fill="#d3d3d3" stroke="none" points="852,-59 852,-78 974,-78 974,-59 852,-59"/>
<text text-anchor="start" x="854" y="-64.8" font-family="Times,serif" font-size="14.00" fill="#c93526">AccessibilityNode</text>
</a>
</g>
</g>
<!-- set_marker_node_Set(2) -->
<!-- set_marker_node_Set(8) -->
<!-- set_marker_node_Set(2)&#45;&gt;set_marker_node_Set(8) -->
<g id="edge2" class="edge">
<title>set_marker_node_Set(2)&#45;&gt;set_marker_node_Set(8)</title>
<g id="a_edge2"><a xlink:title="FirstFlush → PreUpdate">
<path fill="none" stroke="#881877" stroke-width="2" d="M157,-333.28C160,-332.77 163.08,-332.26 166.19,-331.73"/>
<polygon fill="#881877" stroke="#881877" stroke-width="2" points="166.74,-335.19 176.02,-330.08 165.58,-328.29 166.74,-335.19"/>
</a>
</g>
</g>
<!-- set_marker_node_Set(3) -->
<!-- set_marker_node_Set(9) -->
<!-- set_marker_node_Set(3)&#45;&gt;set_marker_node_Set(9) -->
<g id="edge4" class="edge">
<title>set_marker_node_Set(3)&#45;&gt;set_marker_node_Set(9)</title>
<g id="a_edge4"><a xlink:title="PreUpdateFlush → StateTransitions">
<path fill="none" stroke="#aa3a55" stroke-width="2" d="M439,-273C445.56,-273 452.29,-273 458.99,-273"/>
<polygon fill="#aa3a55" stroke="#aa3a55" stroke-width="2" points="458.97,-276.5 468.97,-273 458.97,-269.5 458.97,-276.5"/>
</a>
</g>
</g>
<!-- set_marker_node_Set(11) -->
<!-- set_marker_node_Set(4)&#45;&gt;set_marker_node_Set(11) -->
<g id="edge8" class="edge">
<title>set_marker_node_Set(4)&#45;&gt;set_marker_node_Set(11)</title>
<g id="a_edge8"><a xlink:title="UpdateFlush → PostUpdate">
<path fill="none" stroke="#663699" stroke-width="2" d="M1118,-273C1119.98,-273 1122,-273 1124.06,-273"/>
<polygon fill="#663699" stroke="#663699" stroke-width="2" points="1123.98,-276.5 1133.98,-273 1123.98,-269.5 1123.98,-276.5"/>
</a>
</g>
</g>
<!-- set_marker_node_Set(5) -->
<!-- set_marker_node_Set(12) -->
<!-- set_marker_node_Set(5)&#45;&gt;set_marker_node_Set(12) -->
<g id="edge10" class="edge">
<title>set_marker_node_Set(5)&#45;&gt;set_marker_node_Set(12)</title>
<g id="a_edge10"><a xlink:title="PostUpdateFlush → Last">
<path fill="none" stroke="#22c2bb" stroke-width="2" d="M1572.98,-218C1598.88,-214.3 1628.8,-210.03 1651.2,-206.83"/>
<polygon fill="#22c2bb" stroke="#22c2bb" stroke-width="2" points="1651.6,-210.31 1661.01,-205.43 1650.61,-203.38 1651.6,-210.31"/>
</a>
</g>
</g>
<!-- set_marker_node_Set(6) -->
<!-- set_marker_node_Set(7) -->
<!-- set_marker_node_Set(7)&#45;&gt;set_marker_node_Set(2) -->
<g id="edge1" class="edge">
<title>set_marker_node_Set(7)&#45;&gt;set_marker_node_Set(2)</title>
<g id="a_edge1"><a xlink:title="First → FirstFlush">
<path fill="none" stroke="#eede00" stroke-width="2" d="M54,-325.3C58.76,-326.45 63.97,-327.7 69.27,-328.98"/>
<polygon fill="#eede00" stroke="#eede00" stroke-width="2" points="68.33,-332.36 78.88,-331.3 69.97,-325.55 68.33,-332.36"/>
</a>
</g>
</g>
<!-- set_marker_node_Set(59) -->
<!-- set_marker_node_Set(7)&#45;&gt;set_marker_node_Set(59) -->
<g id="edge13" class="edge">
<title>set_marker_node_Set(7)&#45;&gt;set_marker_node_Set(59)</title>
<g id="a_edge13"><a xlink:title="First → LoadAssets">
<path fill="none" stroke="#881877" stroke-width="2" d="M54,-312.84C55.51,-312.35 57.07,-311.85 58.66,-311.33"/>
<polygon fill="#881877" stroke="#881877" stroke-width="2" points="59.7,-314.67 68.12,-308.25 57.53,-308.01 59.7,-314.67"/>
</a>
</g>
</g>
<!-- set_marker_node_Set(8)&#45;&gt;set_marker_node_Set(3) -->
<g id="edge3" class="edge">
<title>set_marker_node_Set(8)&#45;&gt;set_marker_node_Set(3)</title>
<g id="a_edge3"><a xlink:title="PreUpdate → PreUpdateFlush">
<path fill="none" stroke="#00b0cc" stroke-width="2" d="M261.48,-312C273.42,-307.94 288.65,-302.75 304.07,-297.5"/>
<polygon fill="#00b0cc" stroke="#00b0cc" stroke-width="2" points="304.8,-300.95 313.14,-294.41 302.54,-294.32 304.8,-300.95"/>
</a>
</g>
</g>
<!-- set_marker_node_Set(25) -->
<!-- node_System(100) -->
<g id="node15" class="node">
<title>node_System(100)</title>
<g id="a_node15"><a xlink:title="bevy_ui::focus::ui_focus_system">
<polygon fill="#ffb1e5" stroke="#ff4bc2" points="439,-364 315,-364 315,-328 439,-328 439,-364"/>
<text text-anchor="middle" x="377" y="-342.3" font-family="Helvetica,sans-Serif" font-size="14.00" fill="#320021">ui_focus_system</text>
</a>
</g>
</g>
<!-- set_marker_node_Set(25)&#45;&gt;node_System(100) -->
<g id="edge16" class="edge">
<title>set_marker_node_Set(25)&#45;&gt;node_System(100)</title>
<g id="a_edge16"><a xlink:title="InputSystem → ui_focus_system">
<path fill="none" stroke="#44d488" stroke-width="2" d="M288,-346C292.56,-346 297.24,-346 301.95,-346"/>
<polygon fill="#44d488" stroke="#44d488" stroke-width="2" points="301.55,-349.5 311.55,-346 301.55,-342.5 301.55,-349.5"/>
</a>
</g>
</g>
<!-- set_marker_node_Set(121) -->
<!-- set_marker_node_Set(10) -->
<!-- set_marker_node_Set(9)&#45;&gt;set_marker_node_Set(10) -->
<g id="edge5" class="edge">
<title>set_marker_node_Set(9)&#45;&gt;set_marker_node_Set(10)</title>
<g id="a_edge5"><a xlink:title="StateTransitions → FixedUpdate">
<path fill="none" stroke="#44d488" stroke-width="2" d="M596,-273C597.39,-273 598.78,-273 600.17,-273"/>
<polygon fill="#44d488" stroke="#44d488" stroke-width="2" points="599.97,-276.5 609.97,-273 599.97,-269.5 599.97,-276.5"/>
</a>
</g>
</g>
<!-- set_marker_node_Set(10)&#45;&gt;set_marker_node_Set(0) -->
<g id="edge6" class="edge">
<title>set_marker_node_Set(10)&#45;&gt;set_marker_node_Set(0)</title>
<g id="a_edge6"><a xlink:title="FixedUpdate → Update">
<path fill="none" stroke="#0090cc" stroke-width="2" d="M713,-273C749.79,-273 801.03,-273 844.09,-273"/>
<polygon fill="#0090cc" stroke="#0090cc" stroke-width="2" points="843.97,-276.5 853.97,-273 843.97,-269.5 843.97,-276.5"/>
</a>
</g>
</g>
<!-- set_marker_node_Set(11)&#45;&gt;set_marker_node_Set(5) -->
<g id="edge9" class="edge">
<title>set_marker_node_Set(11)&#45;&gt;set_marker_node_Set(5)</title>
<g id="a_edge9"><a xlink:title="PostUpdate → PostUpdateFlush">
<path fill="none" stroke="#3363bb" stroke-width="2" d="M1319.57,-265C1352.38,-258.46 1399.71,-249.01 1439.58,-241.05"/>
<polygon fill="#3363bb" stroke="#3363bb" stroke-width="2" points="1439.91,-244.55 1449.04,-239.16 1438.54,-237.69 1439.91,-244.55"/>
</a>
</g>
</g>
<!-- set_marker_node_Set(60) -->
<!-- set_marker_node_Set(11)&#45;&gt;set_marker_node_Set(60) -->
<g id="edge14" class="edge">
<title>set_marker_node_Set(11)&#45;&gt;set_marker_node_Set(60)</title>
<g id="a_edge14"><a xlink:title="PostUpdate → AssetEvents">
<path fill="none" stroke="#00b0cc" stroke-width="2" d="M1299.54,-265C1333.79,-251.33 1404.84,-222.97 1456,-202.55"/>
<polygon fill="#00b0cc" stroke="#00b0cc" stroke-width="2" points="1457.2,-205.84 1465.19,-198.88 1454.6,-199.34 1457.2,-205.84"/>
</a>
</g>
</g>
<!-- set_marker_node_Set(20) -->
<!-- node_System(109) -->
<g id="node26" class="node">
<title>node_System(109)</title>
<g id="a_node26"><a xlink:title="bevy_ui::update::update_clipping_system">
<polygon fill="#ffb1e5" stroke="#ff4bc2" points="1963,-327 1789,-327 1789,-291 1963,-291 1963,-327"/>
<text text-anchor="middle" x="1876" y="-305.3" font-family="Helvetica,sans-Serif" font-size="14.00" fill="#320021">update_clipping_system</text>
</a>
</g>
</g>
<!-- set_marker_node_Set(20)&#45;&gt;node_System(109) -->
<g id="edge20" class="edge">
<title>set_marker_node_Set(20)&#45;&gt;node_System(109)</title>
<g id="a_edge20"><a xlink:title="TransformPropagate → update_clipping_system">
<path fill="none" stroke="#3363bb" stroke-width="2" d="M1762,-309C1766.51,-309 1771.08,-309 1775.67,-309"/>
<polygon fill="#3363bb" stroke="#3363bb" stroke-width="2" points="1775.59,-312.5 1785.59,-309 1775.59,-305.5 1775.59,-312.5"/>
</a>
</g>
</g>
<!-- set_marker_node_Set(122) -->
<!-- node_System(107) -->
<g id="node21" class="node">
<title>node_System(107)</title>
<g id="a_node21"><a xlink:title="bevy_ui::flex::flex_node_system">
<polygon fill="#ffb1e5" stroke="#ff4bc2" points="1583,-327 1449,-327 1449,-291 1583,-291 1583,-327"/>
<text text-anchor="middle" x="1516" y="-305.3" font-family="Helvetica,sans-Serif" font-size="14.00" fill="#320021">flex_node_system</text>
</a>
</g>
</g>
<!-- node_System(107)&#45;&gt;set_marker_node_Set(20) -->
<g id="edge19" class="edge">
<title>node_System(107)&#45;&gt;set_marker_node_Set(20)</title>
<g id="a_edge19"><a xlink:title="flex_node_system → TransformPropagate">
<path fill="none" stroke="#663699" stroke-width="2" d="M1583.4,-309C1587.9,-309 1592.48,-309 1597.07,-309"/>
<polygon fill="#663699" stroke="#663699" stroke-width="2" points="1596.98,-312.5 1606.98,-309 1596.98,-305.5 1596.98,-312.5"/>
</a>
</g>
</g>
<!-- set_marker_node_Set(123) -->
<!-- node_System(108) -->
<g id="node23" class="node">
<title>node_System(108)</title>
<g id="a_node23"><a xlink:title="bevy_ui::stack::ui_stack_system">
<polygon fill="#ffb1e5" stroke="#ff4bc2" points="1339.5,-419 1217.5,-419 1217.5,-383 1339.5,-383 1339.5,-419"/>
<text text-anchor="middle" x="1278.5" y="-397.3" font-family="Helvetica,sans-Serif" font-size="14.00" fill="#320021">ui_stack_system</text>
</a>
</g>
</g>
<!-- node_System(101) -->
<g id="node24" class="node">
<title>node_System(101)</title>
<g id="a_node24"><a xlink:title="bevy_ui::widget::text::text_system">
<polygon fill="#ffb1e5" stroke="#ff4bc2" points="1326.5,-367 1230.5,-367 1230.5,-331 1326.5,-331 1326.5,-367"/>
<text text-anchor="middle" x="1278.5" y="-345.3" font-family="Helvetica,sans-Serif" font-size="14.00" fill="#320021">text_system</text>
</a>
</g>
</g>
<!-- node_System(101)&#45;&gt;set_marker_node_Set(122) -->
<g id="edge17" class="edge">
<title>node_System(101)&#45;&gt;set_marker_node_Set(122)</title>
<g id="a_edge17"><a xlink:title="text_system → Flex">
<path fill="none" stroke="#0090cc" stroke-width="2" d="M1326.87,-346.79C1355.87,-345.43 1393.85,-343.66 1428.09,-342.06"/>
<polygon fill="#0090cc" stroke="#0090cc" stroke-width="2" points="1428.15,-345.56 1437.98,-341.6 1427.83,-338.57 1428.15,-345.56"/>
</a>
</g>
</g>
<!-- node_System(106) -->
<g id="node25" class="node">
<title>node_System(106)</title>
<g id="a_node25"><a xlink:title="bevy_ui::widget::image::update_image_calculated_size_system">
<polygon fill="#ffb1e5" stroke="#ff4bc2" points="1412,-320 1145,-320 1145,-284 1412,-284 1412,-320"/>
<text text-anchor="middle" x="1278.5" y="-298.3" font-family="Helvetica,sans-Serif" font-size="14.00" fill="#320021">update_image_calculated_size_system</text>
</a>
</g>
</g>
<!-- node_System(106)&#45;&gt;set_marker_node_Set(122) -->
<g id="edge18" class="edge">
<title>node_System(106)&#45;&gt;set_marker_node_Set(122)</title>
<g id="a_edge18"><a xlink:title="update_image_calculated_size_system → Flex">
<path fill="none" stroke="#ee9e44" stroke-width="2" d="M1384.48,-320.44C1393.8,-322.25 1403.08,-324.12 1412,-326 1419.5,-327.58 1423.64,-329 1428.33,-330.31"/>
<polygon fill="#ee9e44" stroke="#ee9e44" stroke-width="2" points="1427.53,-333.72 1438.04,-332.37 1428.98,-326.87 1427.53,-333.72"/>
</a>
</g>
</g>
<!-- set_marker_node_Set(12)&#45;&gt;set_marker_node_Set(6) -->
<g id="edge11" class="edge">
<title>set_marker_node_Set(12)&#45;&gt;set_marker_node_Set(6)</title>
<g id="a_edge11"><a xlink:title="Last → LastFlush">
<path fill="none" stroke="#99d955" stroke-width="2" d="M1708,-202C1735.63,-202 1785.14,-202 1823.1,-202"/>
<polygon fill="#99d955" stroke="#99d955" stroke-width="2" points="1822.97,-205.5 1832.97,-202 1822.97,-198.5 1822.97,-205.5"/>
</a>
</g>
</g>
<!-- set_marker_node_Set(59)&#45;&gt;set_marker_node_Set(8) -->
<g id="edge12" class="edge">
<title>set_marker_node_Set(59)&#45;&gt;set_marker_node_Set(8)</title>
<g id="a_edge12"><a xlink:title="LoadAssets → PreUpdate">
<path fill="none" stroke="#eede00" stroke-width="2" d="M162,-303.21C170.58,-305.16 179.6,-307.2 188.27,-309.17"/>
<polygon fill="#eede00" stroke="#eede00" stroke-width="2" points="187.26,-312.53 197.79,-311.33 188.81,-305.7 187.26,-312.53"/>
</a>
</g>
</g>
<!-- set_marker_node_Set(60)&#45;&gt;set_marker_node_Set(12) -->
<g id="edge15" class="edge">
<title>set_marker_node_Set(60)&#45;&gt;set_marker_node_Set(12)</title>
<g id="a_edge15"><a xlink:title="AssetEvents → Last">
<path fill="none" stroke="#aa3a55" stroke-width="2" d="M1564,-185.43C1591.72,-189.23 1626.16,-193.94 1651.2,-197.37"/>
<polygon fill="#aa3a55" stroke="#aa3a55" stroke-width="2" points="1650.62,-200.83 1661.01,-198.72 1651.57,-193.89 1650.62,-200.83"/>
</a>
</g>
</g>
</g>
</svg>
