<?xml version="1.0" encoding="UTF-8" standalone="no"?>
<!DOCTYPE svg PUBLIC "-//W3C//DTD SVG 1.1//EN"
 "http://www.w3.org/Graphics/SVG/1.1/DTD/svg11.dtd">
<!-- Generated by graphviz version 8.0.1 (0)
 -->
<!-- Pages: 1 -->
<svg width="1448pt" height="110pt"
 viewBox="0.00 0.00 1448.00 110.00" xmlns="http://www.w3.org/2000/svg" xmlns:xlink="http://www.w3.org/1999/xlink">
<g id="graph0" class="graph" transform="scale(1 1) rotate(0) translate(4 106)">
<polygon fill="white" stroke="none" points="-4,4 -4,-106 1444,-106 1444,4 -4,4"/>
<g id="clust1" class="cluster">
<title>clusternode_Set(0)</title>
<g id="a_clust1"><a xlink:title="Update">
<path fill="#000000" fill-opacity="0.031373" stroke="#000000" stroke-width="2" stroke-opacity="0.250980" d="M666,-55C666,-55 702,-55 702,-55 708,-55 714,-61 714,-67 714,-67 714,-82 714,-82 714,-88 708,-94 702,-94 702,-94 666,-94 666,-94 660,-94 654,-88 654,-82 654,-82 654,-67 654,-67 654,-61 660,-55 666,-55"/>
<text text-anchor="middle" x="684" y="-78.8" font-family="Helvetica,sans-Serif" font-size="14.00">Update</text>
</a>
</g>
</g>
<g id="clust2" class="cluster">
<title>clusternode_Set(2)</title>
<g id="a_clust2"><a xlink:title="FirstFlush">
<path fill="#000000" fill-opacity="0.031373" stroke="#000000" stroke-width="2" stroke-opacity="0.250980" d="M81,-55C81,-55 133,-55 133,-55 139,-55 145,-61 145,-67 145,-67 145,-82 145,-82 145,-88 139,-94 133,-94 133,-94 81,-94 81,-94 75,-94 69,-88 69,-82 69,-82 69,-67 69,-67 69,-61 75,-55 81,-55"/>
<text text-anchor="middle" x="107" y="-78.8" font-family="Helvetica,sans-Serif" font-size="14.00">FirstFlush</text>
</a>
</g>
</g>
<g id="clust3" class="cluster">
<title>clusternode_Set(3)</title>
<g id="a_clust3"><a xlink:title="PreUpdateFlush">
<path fill="#000000" fill-opacity="0.031373" stroke="#000000" stroke-width="2" stroke-opacity="0.250980" d="M284,-55C284,-55 374,-55 374,-55 380,-55 386,-61 386,-67 386,-67 386,-82 386,-82 386,-88 380,-94 374,-94 374,-94 284,-94 284,-94 278,-94 272,-88 272,-82 272,-82 272,-67 272,-67 272,-61 278,-55 284,-55"/>
<text text-anchor="middle" x="329" y="-78.8" font-family="Helvetica,sans-Serif" font-size="14.00">PreUpdateFlush</text>
</a>
</g>
</g>
<g id="clust4" class="cluster">
<title>clusternode_Set(4)</title>
<g id="a_clust4"><a xlink:title="UpdateFlush">
<path fill="#000000" fill-opacity="0.031373" stroke="#000000" stroke-width="2" stroke-opacity="0.250980" d="M746,-55C746,-55 815,-55 815,-55 821,-55 827,-61 827,-67 827,-67 827,-82 827,-82 827,-88 821,-94 815,-94 815,-94 746,-94 746,-94 740,-94 734,-88 734,-82 734,-82 734,-67 734,-67 734,-61 740,-55 746,-55"/>
<text text-anchor="middle" x="780.5" y="-78.8" font-family="Helvetica,sans-Serif" font-size="14.00">UpdateFlush</text>
</a>
</g>
</g>
<g id="clust5" class="cluster">
<title>clusternode_Set(5)</title>
<g id="a_clust5"><a xlink:title="PostUpdateFlush">
<path fill="#000000" fill-opacity="0.031373" stroke="#000000" stroke-width="2" stroke-opacity="0.250980" d="M1173,-55C1173,-55 1269,-55 1269,-55 1275,-55 1281,-61 1281,-67 1281,-67 1281,-82 1281,-82 1281,-88 1275,-94 1269,-94 1269,-94 1173,-94 1173,-94 1167,-94 1161,-88 1161,-82 1161,-82 1161,-67 1161,-67 1161,-61 1167,-55 1173,-55"/>
<text text-anchor="middle" x="1221" y="-78.8" font-family="Helvetica,sans-Serif" font-size="14.00">PostUpdateFlush</text>
</a>
</g>
</g>
<g id="clust6" class="cluster">
<title>clusternode_Set(6)</title>
<g id="a_clust6"><a xlink:title="LastFlush">
<path fill="#000000" fill-opacity="0.031373" stroke="#000000" stroke-width="2" stroke-opacity="0.250980" d="M1376,-31C1376,-31 1428,-31 1428,-31 1434,-31 1440,-37 1440,-43 1440,-43 1440,-58 1440,-58 1440,-64 1434,-70 1428,-70 1428,-70 1376,-70 1376,-70 1370,-70 1364,-64 1364,-58 1364,-58 1364,-43 1364,-43 1364,-37 1370,-31 1376,-31"/>
<text text-anchor="middle" x="1402" y="-54.8" font-family="Helvetica,sans-Serif" font-size="14.00">LastFlush</text>
</a>
</g>
</g>
<g id="clust7" class="cluster">
<title>clusternode_Set(7)</title>
<g id="a_clust7"><a xlink:title="First">
<path fill="#000000" fill-opacity="0.031373" stroke="#000000" stroke-width="2" stroke-opacity="0.250980" d="M12,-31C12,-31 31,-31 31,-31 37,-31 43,-37 43,-43 43,-43 43,-58 43,-58 43,-64 37,-70 31,-70 31,-70 12,-70 12,-70 6,-70 0,-64 0,-58 0,-58 0,-43 0,-43 0,-37 6,-31 12,-31"/>
<text text-anchor="middle" x="21.5" y="-54.8" font-family="Helvetica,sans-Serif" font-size="14.00">First</text>
</a>
</g>
</g>
<g id="clust8" class="cluster">
<title>clusternode_Set(8)</title>
<g id="a_clust8"><a xlink:title="PreUpdate">
<path fill="#000000" fill-opacity="0.031373" stroke="#000000" stroke-width="2" stroke-opacity="0.250980" d="M183,-55C183,-55 240,-55 240,-55 246,-55 252,-61 252,-67 252,-67 252,-82 252,-82 252,-88 246,-94 240,-94 240,-94 183,-94 183,-94 177,-94 171,-88 171,-82 171,-82 171,-67 171,-67 171,-61 177,-55 183,-55"/>
<text text-anchor="middle" x="211.5" y="-78.8" font-family="Helvetica,sans-Serif" font-size="14.00">PreUpdate</text>
</a>
</g>
</g>
<g id="clust9" class="cluster">
<title>clusternode_Set(9)</title>
<g id="a_clust9"><a xlink:title="StateTransitions">
<path fill="#000000" fill-opacity="0.031373" stroke="#000000" stroke-width="2" stroke-opacity="0.250980" d="M418,-55C418,-55 509,-55 509,-55 515,-55 521,-61 521,-67 521,-67 521,-82 521,-82 521,-88 515,-94 509,-94 509,-94 418,-94 418,-94 412,-94 406,-88 406,-82 406,-82 406,-67 406,-67 406,-61 412,-55 418,-55"/>
<text text-anchor="middle" x="463.5" y="-78.8" font-family="Helvetica,sans-Serif" font-size="14.00">StateTransitions</text>
</a>
</g>
</g>
<g id="clust10" class="cluster">
<title>clusternode_Set(10)</title>
<g id="a_clust10"><a xlink:title="FixedUpdate">
<path fill="#000000" fill-opacity="0.031373" stroke="#000000" stroke-width="2" stroke-opacity="0.250980" d="M553,-55C553,-55 622,-55 622,-55 628,-55 634,-61 634,-67 634,-67 634,-82 634,-82 634,-88 628,-94 622,-94 622,-94 553,-94 553,-94 547,-94 541,-88 541,-82 541,-82 541,-67 541,-67 541,-61 547,-55 553,-55"/>
<text text-anchor="middle" x="587.5" y="-78.8" font-family="Helvetica,sans-Serif" font-size="14.00">FixedUpdate</text>
</a>
</g>
</g>
<g id="clust11" class="cluster">
<title>clusternode_Set(11)</title>
<g id="a_clust11"><a xlink:title="PostUpdate">
<path fill="#000000" fill-opacity="0.031373" stroke="#000000" stroke-width="2" stroke-opacity="0.250980" d="M859,-8C859,-8 1129,-8 1129,-8 1135,-8 1141,-14 1141,-20 1141,-20 1141,-82 1141,-82 1141,-88 1135,-94 1129,-94 1129,-94 859,-94 859,-94 853,-94 847,-88 847,-82 847,-82 847,-20 847,-20 847,-14 853,-8 859,-8"/>
<text text-anchor="middle" x="994" y="-78.8" font-family="Helvetica,sans-Serif" font-size="14.00">PostUpdate</text>
</a>
</g>
</g>
<g id="clust12" class="cluster">
<title>clusternode_Set(12)</title>
<g id="a_clust12"><a xlink:title="Last">
<path fill="#000000" fill-opacity="0.031373" stroke="#000000" stroke-width="2" stroke-opacity="0.250980" d="M1313,-31C1313,-31 1332,-31 1332,-31 1338,-31 1344,-37 1344,-43 1344,-43 1344,-58 1344,-58 1344,-64 1338,-70 1332,-70 1332,-70 1313,-70 1313,-70 1307,-70 1301,-64 1301,-58 1301,-58 1301,-43 1301,-43 1301,-37 1307,-31 1313,-31"/>
<text text-anchor="middle" x="1322.5" y="-54.8" font-family="Helvetica,sans-Serif" font-size="14.00">Last</text>
</a>
</g>
</g>
<g id="clust13" class="cluster">
<title>clusternode_Set(59)</title>
<g id="a_clust13"><a xlink:title="LoadAssets">
<path fill="#000000" fill-opacity="0.031373" stroke="#000000" stroke-width="2" stroke-opacity="0.250980" d="M75,-8C75,-8 139,-8 139,-8 145,-8 151,-14 151,-20 151,-20 151,-35 151,-35 151,-41 145,-47 139,-47 139,-47 75,-47 75,-47 69,-47 63,-41 63,-35 63,-35 63,-20 63,-20 63,-14 69,-8 75,-8"/>
<text text-anchor="middle" x="107" y="-31.8" font-family="Helvetica,sans-Serif" font-size="14.00">LoadAssets</text>
</a>
</g>
</g>
<g id="clust14" class="cluster">
<title>clusternode_Set(60)</title>
<g id="a_clust14"><a xlink:title="AssetEvents">
<path fill="#000000" fill-opacity="0.031373" stroke="#000000" stroke-width="2" stroke-opacity="0.250980" d="M1187,-8C1187,-8 1255,-8 1255,-8 1261,-8 1267,-14 1267,-20 1267,-20 1267,-35 1267,-35 1267,-41 1261,-47 1255,-47 1255,-47 1187,-47 1187,-47 1181,-47 1175,-41 1175,-35 1175,-35 1175,-20 1175,-20 1175,-14 1181,-8 1187,-8"/>
<text text-anchor="middle" x="1221" y="-31.8" font-family="Helvetica,sans-Serif" font-size="14.00">AssetEvents</text>
</a>
</g>
</g>
<!-- set_marker_node_Set(0) -->
<!-- set_marker_node_Set(4) -->
<!-- set_marker_node_Set(0)&#45;&gt;set_marker_node_Set(4) -->
<g id="edge7" class="edge">
<title>set_marker_node_Set(0)&#45;&gt;set_marker_node_Set(4)</title>
<g id="a_edge7"><a xlink:title="Update → UpdateFlush">
<path fill="none" stroke="#ee9e44" stroke-width="2" d="M714,-63C716.33,-63 718.74,-63 721.18,-63"/>
<polygon fill="#ee9e44" stroke="#ee9e44" stroke-width="2" points="721,-66.5 731,-63 721,-59.5 721,-66.5"/>
</a>
</g>
</g>
<!-- set_marker_node_Set(2) -->
<!-- set_marker_node_Set(8) -->
<!-- set_marker_node_Set(2)&#45;&gt;set_marker_node_Set(8) -->
<g id="edge2" class="edge">
<title>set_marker_node_Set(2)&#45;&gt;set_marker_node_Set(8)</title>
<g id="a_edge2"><a xlink:title="FirstFlush → PreUpdate">
<path fill="none" stroke="#881877" stroke-width="2" d="M145,-63C149.33,-63 153.82,-63 158.31,-63"/>
<polygon fill="#881877" stroke="#881877" stroke-width="2" points="158,-66.5 168,-63 158,-59.5 158,-66.5"/>
</a>
</g>
</g>
<!-- set_marker_node_Set(3) -->
<!-- set_marker_node_Set(9) -->
<!-- set_marker_node_Set(3)&#45;&gt;set_marker_node_Set(9) -->
<g id="edge4" class="edge">
<title>set_marker_node_Set(3)&#45;&gt;set_marker_node_Set(9)</title>
<g id="a_edge4"><a xlink:title="PreUpdateFlush → StateTransitions">
<path fill="none" stroke="#aa3a55" stroke-width="2" d="M386,-63C388.39,-63 390.79,-63 393.21,-63"/>
<polygon fill="#aa3a55" stroke="#aa3a55" stroke-width="2" points="393,-66.5 403,-63 393,-59.5 393,-66.5"/>
</a>
</g>
</g>
<!-- set_marker_node_Set(11) -->
<!-- set_marker_node_Set(4)&#45;&gt;set_marker_node_Set(11) -->
<g id="edge8" class="edge">
<title>set_marker_node_Set(4)&#45;&gt;set_marker_node_Set(11)</title>
<g id="a_edge8"><a xlink:title="UpdateFlush → PostUpdate">
<path fill="none" stroke="#663699" stroke-width="2" d="M827,-63C829.33,-63 831.72,-63 834.16,-63"/>
<polygon fill="#663699" stroke="#663699" stroke-width="2" points="834,-66.5 844,-63 834,-59.5 834,-66.5"/>
</a>
</g>
</g>
<!-- set_marker_node_Set(5) -->
<!-- set_marker_node_Set(12) -->
<!-- set_marker_node_Set(5)&#45;&gt;set_marker_node_Set(12) -->
<g id="edge10" class="edge">
<title>set_marker_node_Set(5)&#45;&gt;set_marker_node_Set(12)</title>
<g id="a_edge10"><a xlink:title="PostUpdateFlush → Last">
<path fill="none" stroke="#22c2bb" stroke-width="2" d="M1256.02,-55C1264.2,-53.06 1272.92,-50.97 1281,-49 1283.44,-48.4 1285.97,-47.78 1288.51,-47.16"/>
<polygon fill="#22c2bb" stroke="#22c2bb" stroke-width="2" points="1290.14,-49.86 1299,-44.05 1288.45,-43.07 1290.14,-49.86"/>
</a>
</g>
</g>
<!-- set_marker_node_Set(6) -->
<!-- set_marker_node_Set(7) -->
<!-- set_marker_node_Set(7)&#45;&gt;set_marker_node_Set(2) -->
<g id="edge1" class="edge">
<title>set_marker_node_Set(7)&#45;&gt;set_marker_node_Set(2)</title>
<g id="a_edge1"><a xlink:title="First → FirstFlush">
<path fill="none" stroke="#eede00" stroke-width="2" d="M43,-45C49.88,-46.97 57.78,-49.22 65.61,-51.46"/>
<polygon fill="#eede00" stroke="#eede00" stroke-width="2" points="65.44,-55.62 76.01,-55 67.36,-48.89 65.44,-55.62"/>
</a>
</g>
</g>
<!-- set_marker_node_Set(59) -->
<!-- set_marker_node_Set(7)&#45;&gt;set_marker_node_Set(59) -->
<g id="edge13" class="edge">
<title>set_marker_node_Set(7)&#45;&gt;set_marker_node_Set(59)</title>
<g id="a_edge13"><a xlink:title="First → LoadAssets">
<path fill="none" stroke="#881877" stroke-width="2" d="M43,-33.25C45.41,-32.59 47.94,-31.9 50.55,-31.18"/>
<polygon fill="#881877" stroke="#881877" stroke-width="2" points="52.28,-33.79 61,-27.77 50.43,-27.04 52.28,-33.79"/>
</a>
</g>
</g>
<!-- set_marker_node_Set(8)&#45;&gt;set_marker_node_Set(3) -->
<g id="edge3" class="edge">
<title>set_marker_node_Set(8)&#45;&gt;set_marker_node_Set(3)</title>
<g id="a_edge3"><a xlink:title="PreUpdate → PreUpdateFlush">
<path fill="none" stroke="#00b0cc" stroke-width="2" d="M252,-63C254.38,-63 256.8,-63 259.25,-63"/>
<polygon fill="#00b0cc" stroke="#00b0cc" stroke-width="2" points="259,-66.5 269,-63 259,-59.5 259,-66.5"/>
</a>
</g>
</g>
<!-- set_marker_node_Set(10) -->
<!-- set_marker_node_Set(9)&#45;&gt;set_marker_node_Set(10) -->
<g id="edge5" class="edge">
<title>set_marker_node_Set(9)&#45;&gt;set_marker_node_Set(10)</title>
<g id="a_edge5"><a xlink:title="StateTransitions → FixedUpdate">
<path fill="none" stroke="#44d488" stroke-width="2" d="M521,-63C523.35,-63 525.71,-63 528.07,-63"/>
<polygon fill="#44d488" stroke="#44d488" stroke-width="2" points="528,-66.5 538,-63 528,-59.5 528,-66.5"/>
</a>
</g>
</g>
<!-- set_marker_node_Set(10)&#45;&gt;set_marker_node_Set(0) -->
<g id="edge6" class="edge">
<title>set_marker_node_Set(10)&#45;&gt;set_marker_node_Set(0)</title>
<g id="a_edge6"><a xlink:title="FixedUpdate → Update">
<path fill="none" stroke="#0090cc" stroke-width="2" d="M634,-63C636.35,-63 638.7,-63 641.03,-63"/>
<polygon fill="#0090cc" stroke="#0090cc" stroke-width="2" points="641,-66.5 651,-63 641,-59.5 641,-66.5"/>
</a>
</g>
</g>
<!-- set_marker_node_Set(11)&#45;&gt;set_marker_node_Set(5) -->
<g id="edge9" class="edge">
<title>set_marker_node_Set(11)&#45;&gt;set_marker_node_Set(5)</title>
<g id="a_edge9"><a xlink:title="PostUpdate → PostUpdateFlush">
<path fill="none" stroke="#3363bb" stroke-width="2" d="M1141,-63C1143.38,-63 1145.73,-63 1148.06,-63"/>
<polygon fill="#3363bb" stroke="#3363bb" stroke-width="2" points="1148,-66.5 1158,-63 1148,-59.5 1148,-66.5"/>
</a>
</g>
</g>
<!-- set_marker_node_Set(60) -->
<!-- set_marker_node_Set(11)&#45;&gt;set_marker_node_Set(60) -->
<g id="edge14" class="edge">
<title>set_marker_node_Set(11)&#45;&gt;set_marker_node_Set(60)</title>
<g id="a_edge14"><a xlink:title="PostUpdate → AssetEvents">
<path fill="none" stroke="#00b0cc" stroke-width="2" d="M1141,-58C1148.47,-56 1156.03,-53.19 1163.35,-49.96"/>
<polygon fill="#00b0cc" stroke="#00b0cc" stroke-width="2" points="1165.48,-52.86 1173,-45.4 1162.47,-46.55 1165.48,-52.86"/>
</a>
</g>
</g>
<!-- node_System(142) -->
<g id="node12" class="node">
<title>node_System(142)</title>
<g id="a_node12"><a xlink:title="bevy_audio::audio_output::play_queued_audio_system&lt;bevy_audio::audio_source::AudioSource&gt;">
<polygon fill="#98f1d1" stroke="#3ee4a8" points="1133,-52 855,-52 855,-16 1133,-16 1133,-52"/>
<text text-anchor="middle" x="994" y="-30.3" font-family="Helvetica,sans-Serif" font-size="14.00" fill="#062c1e">play_queued_audio_system&lt;AudioSource&gt;</text>
</a>
</g>
</g>
<!-- set_marker_node_Set(12)&#45;&gt;set_marker_node_Set(6) -->
<g id="edge11" class="edge">
<title>set_marker_node_Set(12)&#45;&gt;set_marker_node_Set(6)</title>
<g id="a_edge11"><a xlink:title="Last → LastFlush">
<path fill="none" stroke="#99d955" stroke-width="2" d="M1344,-39C1346.33,-39 1348.78,-39 1351.29,-39"/>
<polygon fill="#99d955" stroke="#99d955" stroke-width="2" points="1351,-42.5 1361,-39 1351,-35.5 1351,-42.5"/>
</a>
</g>
</g>
<!-- set_marker_node_Set(59)&#45;&gt;set_marker_node_Set(8) -->
<g id="edge12" class="edge">
<title>set_marker_node_Set(59)&#45;&gt;set_marker_node_Set(8)</title>
<g id="a_edge12"><a xlink:title="LoadAssets → PreUpdate">
<path fill="none" stroke="#eede00" stroke-width="2" d="M151,-35.81C161.09,-40.46 171.61,-45.31 180.92,-49.6"/>
<polygon fill="#eede00" stroke="#eede00" stroke-width="2" points="180.1,-53 190.64,-54 183.03,-46.64 180.1,-53"/>
</a>
</g>
</g>
<!-- set_marker_node_Set(60)&#45;&gt;set_marker_node_Set(12) -->
<g id="edge15" class="edge">
<title>set_marker_node_Set(60)&#45;&gt;set_marker_node_Set(12)</title>
<g id="a_edge15"><a xlink:title="AssetEvents → Last">
<path fill="none" stroke="#aa3a55" stroke-width="2" d="M1267,-26.45C1274.22,-28.13 1281.58,-29.84 1288.44,-31.43"/>
<polygon fill="#aa3a55" stroke="#aa3a55" stroke-width="2" points="1288.47,-35.5 1299,-34.35 1290.05,-28.68 1288.47,-35.5"/>
</a>
</g>
</g>
</g>
</svg>
