<?xml version="1.0" encoding="UTF-8" standalone="no"?>
<!DOCTYPE svg PUBLIC "-//W3C//DTD SVG 1.1//EN"
 "http://www.w3.org/Graphics/SVG/1.1/DTD/svg11.dtd">
<!-- Generated by graphviz version 7.1.0 (0)
 -->
<!-- Pages: 1 -->
<svg width="2214pt" height="2696pt"
 viewBox="0.00 0.00 2214.00 2696.00" xmlns="http://www.w3.org/2000/svg" xmlns:xlink="http://www.w3.org/1999/xlink">
<g id="graph0" class="graph" transform="scale(1 1) rotate(0) translate(4 2692)">
<polygon fill="white" stroke="none" points="-4,4 -4,-2692 2210,-2692 2210,4 -4,4"/>
<g id="clust1" class="cluster">
<title>clusternode_Set(0)</title>
<g id="a_clust1"><a xlink:title="Update">
<polygon fill="white" stroke="black" points="1281,-2437 1281,-2476 1346,-2476 1346,-2437 1281,-2437"/>
<text text-anchor="middle" x="1313.5" y="-2460.8" font-family="Helvetica,sans-Serif" font-size="14.00">Update</text>
</a>
</g>
</g>
<g id="clust2" class="cluster">
<title>clusternode_Set(2)</title>
<g id="a_clust2"><a xlink:title="FirstFlush">
<polygon fill="white" stroke="black" points="516,-2434 516,-2527 693,-2527 693,-2434 516,-2434"/>
<text text-anchor="middle" x="604.5" y="-2511.8" font-family="Helvetica,sans-Serif" font-size="14.00">FirstFlush</text>
</a>
</g>
</g>
<g id="clust3" class="cluster">
<title>clusternode_Set(3)</title>
<g id="a_clust3"><a xlink:title="PreUpdateFlush">
<polygon fill="white" stroke="black" points="820,-2383 820,-2476 997,-2476 997,-2383 820,-2383"/>
<text text-anchor="middle" x="908.5" y="-2460.8" font-family="Helvetica,sans-Serif" font-size="14.00">PreUpdateFlush</text>
</a>
</g>
</g>
<g id="clust4" class="cluster">
<title>clusternode_Set(4)</title>
<g id="a_clust4"><a xlink:title="UpdateFlush">
<polygon fill="white" stroke="black" points="1366,-2383 1366,-2476 1543,-2476 1543,-2383 1366,-2383"/>
<text text-anchor="middle" x="1454.5" y="-2460.8" font-family="Helvetica,sans-Serif" font-size="14.00">UpdateFlush</text>
</a>
</g>
</g>
<g id="clust5" class="cluster">
<title>clusternode_Set(5)</title>
<g id="a_clust5"><a xlink:title="PostUpdateFlush">
<polygon fill="white" stroke="black" points="1760,-2434 1760,-2527 1937,-2527 1937,-2434 1760,-2434"/>
<text text-anchor="middle" x="1848.5" y="-2511.8" font-family="Helvetica,sans-Serif" font-size="14.00">PostUpdateFlush</text>
</a>
</g>
</g>
<g id="clust6" class="cluster">
<title>clusternode_Set(6)</title>
<g id="a_clust6"><a xlink:title="LastFlush">
<polygon fill="white" stroke="black" points="2021,-2383 2021,-2476 2198,-2476 2198,-2383 2021,-2383"/>
<text text-anchor="middle" x="2109.5" y="-2460.8" font-family="Helvetica,sans-Serif" font-size="14.00">LastFlush</text>
</a>
</g>
</g>
<g id="clust7" class="cluster">
<title>clusternode_Set(7)</title>
<g id="a_clust7"><a xlink:title="First">
<polygon fill="white" stroke="black" points="8,-8 8,-2477 496,-2477 496,-8 8,-8"/>
<text text-anchor="middle" x="252" y="-2461.8" font-family="Helvetica,sans-Serif" font-size="14.00">First</text>
</a>
</g>
</g>
<g id="clust8" class="cluster">
<title>clusternode_Set(8)</title>
<g id="a_clust8"><a xlink:title="PreUpdate">
<polygon fill="white" stroke="black" points="713,-2437 713,-2476 800,-2476 800,-2437 713,-2437"/>
<text text-anchor="middle" x="756.5" y="-2460.8" font-family="Helvetica,sans-Serif" font-size="14.00">PreUpdate</text>
</a>
</g>
</g>
<g id="clust9" class="cluster">
<title>clusternode_Set(9)</title>
<g id="a_clust9"><a xlink:title="StateTransitions">
<polygon fill="white" stroke="black" points="1017,-2437 1017,-2476 1141,-2476 1141,-2437 1017,-2437"/>
<text text-anchor="middle" x="1079" y="-2460.8" font-family="Helvetica,sans-Serif" font-size="14.00">StateTransitions</text>
</a>
</g>
</g>
<g id="clust10" class="cluster">
<title>clusternode_Set(10)</title>
<g id="a_clust10"><a xlink:title="FixedUpdate">
<polygon fill="white" stroke="black" points="1161,-2437 1161,-2476 1261,-2476 1261,-2437 1161,-2437"/>
<text text-anchor="middle" x="1211" y="-2460.8" font-family="Helvetica,sans-Serif" font-size="14.00">FixedUpdate</text>
</a>
</g>
</g>
<g id="clust11" class="cluster">
<title>clusternode_Set(11)</title>
<g id="a_clust11"><a xlink:title="PostUpdate">
<polygon fill="white" stroke="black" points="1555,-2437 1555,-2680 1748,-2680 1748,-2437 1555,-2437"/>
<text text-anchor="middle" x="1651.5" y="-2664.8" font-family="Helvetica,sans-Serif" font-size="14.00">PostUpdate</text>
</a>
</g>
</g>
<g id="clust12" class="cluster">
<title>clusternode_Set(82)</title>
<g id="a_clust12"><a xlink:title="CalculateBoundsFlush">
<polygon fill="white" stroke="black" points="1563,-2556 1563,-2649 1740,-2649 1740,-2556 1563,-2556"/>
<text text-anchor="middle" x="1651.5" y="-2633.8" font-family="Helvetica,sans-Serif" font-size="14.00">CalculateBoundsFlush</text>
</a>
</g>
</g>
<g id="clust13" class="cluster">
<title>clusternode_Set(129)</title>
<g id="a_clust13"><a xlink:title="AddClustersFlush">
<polygon fill="white" stroke="black" points="1563,-2455 1563,-2548 1740,-2548 1740,-2455 1563,-2455"/>
<text text-anchor="middle" x="1651.5" y="-2532.8" font-family="Helvetica,sans-Serif" font-size="14.00">AddClustersFlush</text>
</a>
</g>
</g>
<g id="clust14" class="cluster">
<title>clusternode_Set(12)</title>
<g id="a_clust14"><a xlink:title="Last">
<polygon fill="white" stroke="black" points="1957,-2437 1957,-2476 2001,-2476 2001,-2437 1957,-2437"/>
<text text-anchor="middle" x="1979" y="-2460.8" font-family="Helvetica,sans-Serif" font-size="14.00">Last</text>
</a>
</g>
</g>
<g id="clust15" class="cluster">
<title>clusternode_Set(22)</title>
<g id="a_clust15"><a xlink:title="PropagateTransformsSet">
<polygon fill="white" stroke="black" points="162,-2513 162,-2552 342,-2552 342,-2513 162,-2513"/>
<text text-anchor="middle" x="252" y="-2536.8" font-family="Helvetica,sans-Serif" font-size="14.00">PropagateTransformsSet</text>
</a>
</g>
</g>
<g id="clust16" class="cluster">
<title>clusternode_Set(59)</title>
<g id="a_clust16"><a xlink:title="LoadAssets">
<polygon fill="white" stroke="black" points="559.5,-2387 559.5,-2426 650.5,-2426 650.5,-2387 559.5,-2387"/>
<text text-anchor="middle" x="605" y="-2410.8" font-family="Helvetica,sans-Serif" font-size="14.00">LoadAssets</text>
</a>
</g>
</g>
<g id="clust17" class="cluster">
<title>clusternode_Set(60)</title>
<g id="a_clust17"><a xlink:title="AssetEvents">
<polygon fill="white" stroke="black" points="1800.5,-2387 1800.5,-2426 1896.5,-2426 1896.5,-2387 1800.5,-2387"/>
<text text-anchor="middle" x="1848.5" y="-2410.8" font-family="Helvetica,sans-Serif" font-size="14.00">AssetEvents</text>
</a>
</g>
</g>
<!-- set_marker_node_Set(0) -->
<!-- set_marker_node_Set(4) -->
<!-- set_marker_node_Set(0)&#45;&gt;set_marker_node_Set(4) -->
<g id="edge7" class="edge">
<title>set_marker_node_Set(0)&#45;&gt;set_marker_node_Set(4)</title>
<g id="a_edge7"><a xlink:title="Update → UpdateFlush">
<path fill="none" stroke="#ee9e44" stroke-width="2" d="M1346,-2445C1348.29,-2445 1350.67,-2445 1353.1,-2445"/>
<polygon fill="#ee9e44" stroke="#ee9e44" stroke-width="2" points="1352.98,-2448.5 1362.98,-2445 1352.98,-2441.5 1352.98,-2448.5"/>
</a>
</g>
</g>
<!-- set_marker_node_Set(2) -->
<!-- set_marker_node_Set(8) -->
<!-- set_marker_node_Set(2)&#45;&gt;set_marker_node_Set(8) -->
<g id="edge2" class="edge">
<title>set_marker_node_Set(2)&#45;&gt;set_marker_node_Set(8)</title>
<g id="a_edge2"><a xlink:title="FirstFlush → PreUpdate">
<path fill="none" stroke="#881877" stroke-width="2" d="M693,-2487C696.68,-2485.66 700.36,-2484.05 703.98,-2482.26"/>
<polygon fill="#881877" stroke="#881877" stroke-width="2" points="705.59,-2485.37 712.64,-2477.47 702.2,-2479.25 705.59,-2485.37"/>
</a>
</g>
</g>
<!-- node_System(0) -->
<g id="node3" class="node">
<title>node_System(0)</title>
<g id="a_node3"><a xlink:title="bevy_ecs::schedule::executor::apply_system_buffers">
<polygon fill="white" stroke="black" points="685,-2478 524,-2478 524,-2442 685,-2442 685,-2478"/>
<text text-anchor="middle" x="604.5" y="-2456.3" font-family="Times,serif" font-size="14.00">apply_system_buffers</text>
</a>
</g>
</g>
<!-- set_marker_node_Set(3) -->
<!-- set_marker_node_Set(9) -->
<!-- set_marker_node_Set(3)&#45;&gt;set_marker_node_Set(9) -->
<g id="edge4" class="edge">
<title>set_marker_node_Set(3)&#45;&gt;set_marker_node_Set(9)</title>
<g id="a_edge4"><a xlink:title="PreUpdateFlush → StateTransitions">
<path fill="none" stroke="#aa3a55" stroke-width="2" d="M997,-2445C999.38,-2445 1001.77,-2445 1004.14,-2445"/>
<polygon fill="#aa3a55" stroke="#aa3a55" stroke-width="2" points="1003.97,-2448.5 1013.97,-2445 1003.97,-2441.5 1003.97,-2448.5"/>
</a>
</g>
</g>
<!-- node_System(1) -->
<g id="node5" class="node">
<title>node_System(1)</title>
<g id="a_node5"><a xlink:title="bevy_ecs::schedule::executor::apply_system_buffers">
<polygon fill="white" stroke="black" points="989,-2427 828,-2427 828,-2391 989,-2391 989,-2427"/>
<text text-anchor="middle" x="908.5" y="-2405.3" font-family="Times,serif" font-size="14.00">apply_system_buffers</text>
</a>
</g>
</g>
<!-- set_marker_node_Set(11) -->
<!-- set_marker_node_Set(4)&#45;&gt;set_marker_node_Set(11) -->
<g id="edge8" class="edge">
<title>set_marker_node_Set(4)&#45;&gt;set_marker_node_Set(11)</title>
<g id="a_edge8"><a xlink:title="UpdateFlush → PostUpdate">
<path fill="none" stroke="#663699" stroke-width="2" d="M1543,-2445C1546,-2445 1549,-2445 1552,-2445"/>
<polygon fill="#663699" stroke="#663699" stroke-width="2" points="1541.97,-2448.5 1551.97,-2445 1541.97,-2441.5 1541.97,-2448.5"/>
</a>
</g>
</g>
<!-- node_System(2) -->
<g id="node7" class="node">
<title>node_System(2)</title>
<g id="a_node7"><a xlink:title="bevy_ecs::schedule::executor::apply_system_buffers">
<polygon fill="white" stroke="black" points="1535,-2427 1374,-2427 1374,-2391 1535,-2391 1535,-2427"/>
<text text-anchor="middle" x="1454.5" y="-2405.3" font-family="Times,serif" font-size="14.00">apply_system_buffers</text>
</a>
</g>
</g>
<!-- set_marker_node_Set(5) -->
<!-- set_marker_node_Set(12) -->
<!-- set_marker_node_Set(5)&#45;&gt;set_marker_node_Set(12) -->
<g id="edge10" class="edge">
<title>set_marker_node_Set(5)&#45;&gt;set_marker_node_Set(12)</title>
<g id="a_edge10"><a xlink:title="PostUpdateFlush → Last">
<path fill="none" stroke="#22c2bb" stroke-width="2" d="M1937,-2487C1940.57,-2485.27 1944.01,-2483.1 1947.26,-2480.66"/>
<polygon fill="#22c2bb" stroke="#22c2bb" stroke-width="2" points="1949.5,-2483.36 1954.72,-2474.14 1944.89,-2478.08 1949.5,-2483.36"/>
</a>
</g>
</g>
<!-- node_System(3) -->
<g id="node9" class="node">
<title>node_System(3)</title>
<g id="a_node9"><a xlink:title="bevy_ecs::schedule::executor::apply_system_buffers">
<polygon fill="white" stroke="black" points="1929,-2478 1768,-2478 1768,-2442 1929,-2442 1929,-2478"/>
<text text-anchor="middle" x="1848.5" y="-2456.3" font-family="Times,serif" font-size="14.00">apply_system_buffers</text>
</a>
</g>
</g>
<!-- set_marker_node_Set(6) -->
<!-- node_System(4) -->
<g id="node11" class="node">
<title>node_System(4)</title>
<g id="a_node11"><a xlink:title="bevy_ecs::schedule::executor::apply_system_buffers">
<polygon fill="white" stroke="black" points="2190,-2427 2029,-2427 2029,-2391 2190,-2391 2190,-2427"/>
<text text-anchor="middle" x="2109.5" y="-2405.3" font-family="Times,serif" font-size="14.00">apply_system_buffers</text>
</a>
</g>
</g>
<!-- set_marker_node_Set(7) -->
<!-- set_marker_node_Set(7)&#45;&gt;set_marker_node_Set(2) -->
<g id="edge1" class="edge">
<title>set_marker_node_Set(7)&#45;&gt;set_marker_node_Set(2)</title>
<g id="a_edge1"><a xlink:title="First → FirstFlush">
<path fill="none" stroke="#eede00" stroke-width="2" d="M444.18,-2477C464,-2479.92 483.98,-2482.76 503.38,-2485.34"/>
<polygon fill="#eede00" stroke="#eede00" stroke-width="2" points="502.63,-2488.77 513,-2486.61 503.54,-2481.83 502.63,-2488.77"/>
</a>
</g>
</g>
<!-- set_marker_node_Set(59) -->
<!-- set_marker_node_Set(7)&#45;&gt;set_marker_node_Set(59) -->
<g id="edge13" class="edge">
<title>set_marker_node_Set(7)&#45;&gt;set_marker_node_Set(59)</title>
<g id="a_edge13"><a xlink:title="First → LoadAssets">
<path fill="none" stroke="#881877" stroke-width="2" d="M496,-2437C498.95,-2436.39 522.93,-2427.05 547.49,-2417.34"/>
<polygon fill="#881877" stroke="#881877" stroke-width="2" points="548.68,-2420.63 556.69,-2413.69 546.1,-2414.12 548.68,-2420.63"/>
</a>
</g>
</g>
<!-- node_System(5) -->
<g id="node13" class="node">
<title>node_System(5)</title>
<g id="a_node13"><a xlink:title="bevy_ecs::event::Events&lt;bevy_app::app::AppExit&gt;::update_system">
<polygon fill="white" stroke="black" points="367,-2428 137,-2428 137,-2392 367,-2392 367,-2428"/>
<text text-anchor="middle" x="252" y="-2406.3" font-family="Times,serif" font-size="14.00">Events&lt;AppExit&gt;update_system</text>
</a>
</g>
</g>
<!-- node_System(13) -->
<g id="node14" class="node">
<title>node_System(13)</title>
<g id="a_node14"><a xlink:title="bevy_ecs::event::Events&lt;bevy_hierarchy::events::HierarchyEvent&gt;::update_system">
<polygon fill="white" stroke="black" points="393.5,-2374 110.5,-2374 110.5,-2338 393.5,-2338 393.5,-2374"/>
<text text-anchor="middle" x="252" y="-2352.3" font-family="Times,serif" font-size="14.00">Events&lt;HierarchyEvent&gt;update_system</text>
</a>
</g>
</g>
<!-- node_System(14) -->
<g id="node15" class="node">
<title>node_System(14)</title>
<g id="a_node15"><a xlink:title="bevy_ecs::event::Events&lt;bevy_input::keyboard::KeyboardInput&gt;::update_system">
<polygon fill="white" stroke="black" points="391,-2320 113,-2320 113,-2284 391,-2284 391,-2320"/>
<text text-anchor="middle" x="252" y="-2298.3" font-family="Times,serif" font-size="14.00">Events&lt;KeyboardInput&gt;update_system</text>
</a>
</g>
</g>
<!-- node_System(16) -->
<g id="node16" class="node">
<title>node_System(16)</title>
<g id="a_node16"><a xlink:title="bevy_ecs::event::Events&lt;bevy_input::mouse::MouseButtonInput&gt;::update_system">
<polygon fill="white" stroke="black" points="403.5,-2266 100.5,-2266 100.5,-2230 403.5,-2230 403.5,-2266"/>
<text text-anchor="middle" x="252" y="-2244.3" font-family="Times,serif" font-size="14.00">Events&lt;MouseButtonInput&gt;update_system</text>
</a>
</g>
</g>
<!-- node_System(17) -->
<g id="node17" class="node">
<title>node_System(17)</title>
<g id="a_node17"><a xlink:title="bevy_ecs::event::Events&lt;bevy_input::mouse::MouseMotion&gt;::update_system">
<polygon fill="white" stroke="black" points="386.5,-2212 117.5,-2212 117.5,-2176 386.5,-2176 386.5,-2212"/>
<text text-anchor="middle" x="252" y="-2190.3" font-family="Times,serif" font-size="14.00">Events&lt;MouseMotion&gt;update_system</text>
</a>
</g>
</g>
<!-- node_System(18) -->
<g id="node18" class="node">
<title>node_System(18)</title>
<g id="a_node18"><a xlink:title="bevy_ecs::event::Events&lt;bevy_input::mouse::MouseWheel&gt;::update_system">
<polygon fill="white" stroke="black" points="383.5,-2158 120.5,-2158 120.5,-2122 383.5,-2122 383.5,-2158"/>
<text text-anchor="middle" x="252" y="-2136.3" font-family="Times,serif" font-size="14.00">Events&lt;MouseWheel&gt;update_system</text>
</a>
</g>
</g>
<!-- node_System(20) -->
<g id="node19" class="node">
<title>node_System(20)</title>
<g id="a_node19"><a xlink:title="bevy_ecs::event::Events&lt;bevy_input::gamepad::GamepadConnectionEvent&gt;::update_system">
<polygon fill="white" stroke="black" points="429.5,-2104 74.5,-2104 74.5,-2068 429.5,-2068 429.5,-2104"/>
<text text-anchor="middle" x="252" y="-2082.3" font-family="Times,serif" font-size="14.00">Events&lt;GamepadConnectionEvent&gt;update_system</text>
</a>
</g>
</g>
<!-- node_System(21) -->
<g id="node20" class="node">
<title>node_System(21)</title>
<g id="a_node20"><a xlink:title="bevy_ecs::event::Events&lt;bevy_input::gamepad::GamepadButtonChangedEvent&gt;::update_system">
<polygon fill="white" stroke="black" points="443.5,-2050 60.5,-2050 60.5,-2014 443.5,-2014 443.5,-2050"/>
<text text-anchor="middle" x="252" y="-2028.3" font-family="Times,serif" font-size="14.00">Events&lt;GamepadButtonChangedEvent&gt;update_system</text>
</a>
</g>
</g>
<!-- node_System(22) -->
<g id="node21" class="node">
<title>node_System(22)</title>
<g id="a_node21"><a xlink:title="bevy_ecs::event::Events&lt;bevy_input::gamepad::GamepadAxisChangedEvent&gt;::update_system">
<polygon fill="white" stroke="black" points="434.5,-1996 69.5,-1996 69.5,-1960 434.5,-1960 434.5,-1996"/>
<text text-anchor="middle" x="252" y="-1974.3" font-family="Times,serif" font-size="14.00">Events&lt;GamepadAxisChangedEvent&gt;update_system</text>
</a>
</g>
</g>
<!-- node_System(23) -->
<g id="node22" class="node">
<title>node_System(23)</title>
<g id="a_node22"><a xlink:title="bevy_ecs::event::Events&lt;bevy_input::gamepad::GamepadEvent&gt;::update_system">
<polygon fill="white" stroke="black" points="391.5,-1942 112.5,-1942 112.5,-1906 391.5,-1906 391.5,-1942"/>
<text text-anchor="middle" x="252" y="-1920.3" font-family="Times,serif" font-size="14.00">Events&lt;GamepadEvent&gt;update_system</text>
</a>
</g>
</g>
<!-- node_System(28) -->
<g id="node23" class="node">
<title>node_System(28)</title>
<g id="a_node23"><a xlink:title="bevy_ecs::event::Events&lt;bevy_input::touch::TouchInput&gt;::update_system">
<polygon fill="white" stroke="black" points="379,-1888 125,-1888 125,-1852 379,-1852 379,-1888"/>
<text text-anchor="middle" x="252" y="-1866.3" font-family="Times,serif" font-size="14.00">Events&lt;TouchInput&gt;update_system</text>
</a>
</g>
</g>
<!-- node_System(30) -->
<g id="node24" class="node">
<title>node_System(30)</title>
<g id="a_node24"><a xlink:title="bevy_ecs::event::Events&lt;bevy_window::event::WindowResized&gt;::update_system">
<polygon fill="white" stroke="black" points="394,-1834 110,-1834 110,-1798 394,-1798 394,-1834"/>
<text text-anchor="middle" x="252" y="-1812.3" font-family="Times,serif" font-size="14.00">Events&lt;WindowResized&gt;update_system</text>
</a>
</g>
</g>
<!-- node_System(31) -->
<g id="node25" class="node">
<title>node_System(31)</title>
<g id="a_node25"><a xlink:title="bevy_ecs::event::Events&lt;bevy_window::event::WindowCreated&gt;::update_system">
<polygon fill="white" stroke="black" points="394.5,-1780 109.5,-1780 109.5,-1744 394.5,-1744 394.5,-1780"/>
<text text-anchor="middle" x="252" y="-1758.3" font-family="Times,serif" font-size="14.00">Events&lt;WindowCreated&gt;update_system</text>
</a>
</g>
</g>
<!-- node_System(32) -->
<g id="node26" class="node">
<title>node_System(32)</title>
<g id="a_node26"><a xlink:title="bevy_ecs::event::Events&lt;bevy_window::event::WindowClosed&gt;::update_system">
<polygon fill="white" stroke="black" points="390,-1726 114,-1726 114,-1690 390,-1690 390,-1726"/>
<text text-anchor="middle" x="252" y="-1704.3" font-family="Times,serif" font-size="14.00">Events&lt;WindowClosed&gt;update_system</text>
</a>
</g>
</g>
<!-- node_System(33) -->
<g id="node27" class="node">
<title>node_System(33)</title>
<g id="a_node27"><a xlink:title="bevy_ecs::event::Events&lt;bevy_window::event::WindowCloseRequested&gt;::update_system">
<polygon fill="white" stroke="black" points="420,-1672 84,-1672 84,-1636 420,-1636 420,-1672"/>
<text text-anchor="middle" x="252" y="-1650.3" font-family="Times,serif" font-size="14.00">Events&lt;WindowCloseRequested&gt;update_system</text>
</a>
</g>
</g>
<!-- node_System(34) -->
<g id="node28" class="node">
<title>node_System(34)</title>
<g id="a_node28"><a xlink:title="bevy_ecs::event::Events&lt;bevy_window::event::RequestRedraw&gt;::update_system">
<polygon fill="white" stroke="black" points="392,-1618 112,-1618 112,-1582 392,-1582 392,-1618"/>
<text text-anchor="middle" x="252" y="-1596.3" font-family="Times,serif" font-size="14.00">Events&lt;RequestRedraw&gt;update_system</text>
</a>
</g>
</g>
<!-- node_System(35) -->
<g id="node29" class="node">
<title>node_System(35)</title>
<g id="a_node29"><a xlink:title="bevy_ecs::event::Events&lt;bevy_window::event::CursorMoved&gt;::update_system">
<polygon fill="white" stroke="black" points="385.5,-1564 118.5,-1564 118.5,-1528 385.5,-1528 385.5,-1564"/>
<text text-anchor="middle" x="252" y="-1542.3" font-family="Times,serif" font-size="14.00">Events&lt;CursorMoved&gt;update_system</text>
</a>
</g>
</g>
<!-- node_System(36) -->
<g id="node30" class="node">
<title>node_System(36)</title>
<g id="a_node30"><a xlink:title="bevy_ecs::event::Events&lt;bevy_window::event::CursorEntered&gt;::update_system">
<polygon fill="white" stroke="black" points="389.5,-1510 114.5,-1510 114.5,-1474 389.5,-1474 389.5,-1510"/>
<text text-anchor="middle" x="252" y="-1488.3" font-family="Times,serif" font-size="14.00">Events&lt;CursorEntered&gt;update_system</text>
</a>
</g>
</g>
<!-- node_System(37) -->
<g id="node31" class="node">
<title>node_System(37)</title>
<g id="a_node31"><a xlink:title="bevy_ecs::event::Events&lt;bevy_window::event::CursorLeft&gt;::update_system">
<polygon fill="white" stroke="black" points="376,-1456 128,-1456 128,-1420 376,-1420 376,-1456"/>
<text text-anchor="middle" x="252" y="-1434.3" font-family="Times,serif" font-size="14.00">Events&lt;CursorLeft&gt;update_system</text>
</a>
</g>
</g>
<!-- node_System(38) -->
<g id="node32" class="node">
<title>node_System(38)</title>
<g id="a_node32"><a xlink:title="bevy_ecs::event::Events&lt;bevy_window::event::ReceivedCharacter&gt;::update_system">
<polygon fill="white" stroke="black" points="403,-1402 101,-1402 101,-1366 403,-1366 403,-1402"/>
<text text-anchor="middle" x="252" y="-1380.3" font-family="Times,serif" font-size="14.00">Events&lt;ReceivedCharacter&gt;update_system</text>
</a>
</g>
</g>
<!-- node_System(39) -->
<g id="node33" class="node">
<title>node_System(39)</title>
<g id="a_node33"><a xlink:title="bevy_ecs::event::Events&lt;bevy_window::event::Ime&gt;::update_system">
<polygon fill="white" stroke="black" points="353.5,-1348 150.5,-1348 150.5,-1312 353.5,-1312 353.5,-1348"/>
<text text-anchor="middle" x="252" y="-1326.3" font-family="Times,serif" font-size="14.00">Events&lt;Ime&gt;update_system</text>
</a>
</g>
</g>
<!-- node_System(40) -->
<g id="node34" class="node">
<title>node_System(40)</title>
<g id="a_node34"><a xlink:title="bevy_ecs::event::Events&lt;bevy_window::event::WindowFocused&gt;::update_system">
<polygon fill="white" stroke="black" points="395.5,-1294 108.5,-1294 108.5,-1258 395.5,-1258 395.5,-1294"/>
<text text-anchor="middle" x="252" y="-1272.3" font-family="Times,serif" font-size="14.00">Events&lt;WindowFocused&gt;update_system</text>
</a>
</g>
</g>
<!-- node_System(41) -->
<g id="node35" class="node">
<title>node_System(41)</title>
<g id="a_node35"><a xlink:title="bevy_ecs::event::Events&lt;bevy_window::event::WindowScaleFactorChanged&gt;::update_system">
<polygon fill="white" stroke="black" points="436,-1240 68,-1240 68,-1204 436,-1204 436,-1240"/>
<text text-anchor="middle" x="252" y="-1218.3" font-family="Times,serif" font-size="14.00">Events&lt;WindowScaleFactorChanged&gt;update_system</text>
</a>
</g>
</g>
<!-- node_System(42) -->
<g id="node36" class="node">
<title>node_System(42)</title>
<g id="a_node36"><a xlink:title="bevy_ecs::event::Events&lt;bevy_window::event::WindowBackendScaleFactorChanged&gt;::update_system">
<polygon fill="white" stroke="black" points="464.5,-1186 39.5,-1186 39.5,-1150 464.5,-1150 464.5,-1186"/>
<text text-anchor="middle" x="252" y="-1164.3" font-family="Times,serif" font-size="14.00">Events&lt;WindowBackendScaleFactorChanged&gt;update_system</text>
</a>
</g>
</g>
<!-- node_System(43) -->
<g id="node37" class="node">
<title>node_System(43)</title>
<g id="a_node37"><a xlink:title="bevy_ecs::event::Events&lt;bevy_window::event::FileDragAndDrop&gt;::update_system">
<polygon fill="white" stroke="black" points="399,-1132 105,-1132 105,-1096 399,-1096 399,-1132"/>
<text text-anchor="middle" x="252" y="-1110.3" font-family="Times,serif" font-size="14.00">Events&lt;FileDragAndDrop&gt;update_system</text>
</a>
</g>
</g>
<!-- node_System(44) -->
<g id="node38" class="node">
<title>node_System(44)</title>
<g id="a_node38"><a xlink:title="bevy_ecs::event::Events&lt;bevy_window::event::WindowMoved&gt;::update_system">
<polygon fill="white" stroke="black" points="391.5,-1078 112.5,-1078 112.5,-1042 391.5,-1042 391.5,-1078"/>
<text text-anchor="middle" x="252" y="-1056.3" font-family="Times,serif" font-size="14.00">Events&lt;WindowMoved&gt;update_system</text>
</a>
</g>
</g>
<!-- node_System(51) -->
<g id="node39" class="node">
<title>node_System(51)</title>
<g id="a_node39"><a xlink:title="bevy_ecs::event::Events&lt;bevy_asset::assets::AssetEvent&lt;bevy_scene::dynamic_scene::DynamicScene&gt;&gt;::update_system">
<polygon fill="white" stroke="black" points="434,-1024 70,-1024 70,-988 434,-988 434,-1024"/>
<text text-anchor="middle" x="252" y="-1002.3" font-family="Times,serif" font-size="14.00">Events&lt;AssetEvent&lt;DynamicScene&gt;&gt;update_system</text>
</a>
</g>
</g>
<!-- node_System(54) -->
<g id="node40" class="node">
<title>node_System(54)</title>
<g id="a_node40"><a xlink:title="bevy_ecs::event::Events&lt;bevy_asset::assets::AssetEvent&lt;bevy_scene::scene::Scene&gt;&gt;::update_system">
<polygon fill="white" stroke="black" points="403.5,-970 100.5,-970 100.5,-934 403.5,-934 403.5,-970"/>
<text text-anchor="middle" x="252" y="-948.3" font-family="Times,serif" font-size="14.00">Events&lt;AssetEvent&lt;Scene&gt;&gt;update_system</text>
</a>
</g>
</g>
<!-- node_System(61) -->
<g id="node41" class="node">
<title>node_System(61)</title>
<g id="a_node41"><a xlink:title="bevy_ecs::event::Events&lt;bevy_asset::assets::AssetEvent&lt;bevy_render::render_resource::shader::Shader&gt;&gt;::update_system">
<polygon fill="white" stroke="black" points="408,-916 96,-916 96,-880 408,-880 408,-916"/>
<text text-anchor="middle" x="252" y="-894.3" font-family="Times,serif" font-size="14.00">Events&lt;AssetEvent&lt;Shader&gt;&gt;update_system</text>
</a>
</g>
</g>
<!-- node_System(75) -->
<g id="node42" class="node">
<title>node_System(75)</title>
<g id="a_node42"><a xlink:title="bevy_ecs::event::Events&lt;bevy_asset::assets::AssetEvent&lt;bevy_render::mesh::mesh::Mesh&gt;&gt;::update_system">
<polygon fill="white" stroke="black" points="402.5,-862 101.5,-862 101.5,-826 402.5,-826 402.5,-862"/>
<text text-anchor="middle" x="252" y="-840.3" font-family="Times,serif" font-size="14.00">Events&lt;AssetEvent&lt;Mesh&gt;&gt;update_system</text>
</a>
</g>
</g>
<!-- node_System(78) -->
<g id="node43" class="node">
<title>node_System(78)</title>
<g id="a_node43"><a xlink:title="bevy_ecs::event::Events&lt;bevy_asset::assets::AssetEvent&lt;bevy_render::mesh::mesh::skinning::SkinnedMeshInverseBindposes&gt;&gt;::update_system">
<polygon fill="white" stroke="black" points="488,-808 16,-808 16,-772 488,-772 488,-808"/>
<text text-anchor="middle" x="252" y="-786.3" font-family="Times,serif" font-size="14.00">Events&lt;AssetEvent&lt;SkinnedMeshInverseBindposes&gt;&gt;update_system</text>
</a>
</g>
</g>
<!-- node_System(81) -->
<g id="node44" class="node">
<title>node_System(81)</title>
<g id="a_node44"><a xlink:title="bevy_ecs::event::Events&lt;bevy_asset::assets::AssetEvent&lt;bevy_render::texture::image::Image&gt;&gt;::update_system">
<polygon fill="white" stroke="black" points="405.5,-754 98.5,-754 98.5,-718 405.5,-718 405.5,-754"/>
<text text-anchor="middle" x="252" y="-732.3" font-family="Times,serif" font-size="14.00">Events&lt;AssetEvent&lt;Image&gt;&gt;update_system</text>
</a>
</g>
</g>
<!-- node_System(84) -->
<g id="node45" class="node">
<title>node_System(84)</title>
<g id="a_node45"><a xlink:title="bevy_ecs::event::Events&lt;bevy_asset::assets::AssetEvent&lt;bevy_sprite::texture_atlas::TextureAtlas&gt;&gt;::update_system">
<polygon fill="white" stroke="black" points="427.5,-700 76.5,-700 76.5,-664 427.5,-664 427.5,-700"/>
<text text-anchor="middle" x="252" y="-678.3" font-family="Times,serif" font-size="14.00">Events&lt;AssetEvent&lt;TextureAtlas&gt;&gt;update_system</text>
</a>
</g>
</g>
<!-- node_System(87) -->
<g id="node46" class="node">
<title>node_System(87)</title>
<g id="a_node46"><a xlink:title="bevy_ecs::event::Events&lt;bevy_asset::assets::AssetEvent&lt;bevy_sprite::mesh2d::color_material::ColorMaterial&gt;&gt;::update_system">
<polygon fill="white" stroke="black" points="431.5,-646 72.5,-646 72.5,-610 431.5,-610 431.5,-646"/>
<text text-anchor="middle" x="252" y="-624.3" font-family="Times,serif" font-size="14.00">Events&lt;AssetEvent&lt;ColorMaterial&gt;&gt;update_system</text>
</a>
</g>
</g>
<!-- node_System(90) -->
<g id="node47" class="node">
<title>node_System(90)</title>
<g id="a_node47"><a xlink:title="bevy_ecs::event::Events&lt;bevy_asset::assets::AssetEvent&lt;bevy_text::font::Font&gt;&gt;::update_system">
<polygon fill="white" stroke="black" points="399.5,-592 104.5,-592 104.5,-556 399.5,-556 399.5,-592"/>
<text text-anchor="middle" x="252" y="-570.3" font-family="Times,serif" font-size="14.00">Events&lt;AssetEvent&lt;Font&gt;&gt;update_system</text>
</a>
</g>
</g>
<!-- node_System(93) -->
<g id="node48" class="node">
<title>node_System(93)</title>
<g id="a_node48"><a xlink:title="bevy_ecs::event::Events&lt;bevy_asset::assets::AssetEvent&lt;bevy_text::font_atlas_set::FontAtlasSet&gt;&gt;::update_system">
<polygon fill="white" stroke="black" points="426.5,-538 77.5,-538 77.5,-502 426.5,-502 426.5,-538"/>
<text text-anchor="middle" x="252" y="-516.3" font-family="Times,serif" font-size="14.00">Events&lt;AssetEvent&lt;FontAtlasSet&gt;&gt;update_system</text>
</a>
</g>
</g>
<!-- node_System(103) -->
<g id="node49" class="node">
<title>node_System(103)</title>
<g id="a_node49"><a xlink:title="bevy_ecs::event::Events&lt;bevy_asset::assets::AssetEvent&lt;bevy_pbr::pbr_material::StandardMaterial&gt;&gt;::update_system">
<polygon fill="white" stroke="black" points="444.5,-484 59.5,-484 59.5,-448 444.5,-448 444.5,-484"/>
<text text-anchor="middle" x="252" y="-462.3" font-family="Times,serif" font-size="14.00">Events&lt;AssetEvent&lt;StandardMaterial&gt;&gt;update_system</text>
</a>
</g>
</g>
<!-- node_System(114) -->
<g id="node50" class="node">
<title>node_System(114)</title>
<g id="a_node50"><a xlink:title="bevy_ecs::event::Events&lt;bevy_asset::assets::AssetEvent&lt;bevy_gltf::Gltf&gt;&gt;::update_system">
<polygon fill="white" stroke="black" points="397,-430 107,-430 107,-394 397,-394 397,-430"/>
<text text-anchor="middle" x="252" y="-408.3" font-family="Times,serif" font-size="14.00">Events&lt;AssetEvent&lt;Gltf&gt;&gt;update_system</text>
</a>
</g>
</g>
<!-- node_System(117) -->
<g id="node51" class="node">
<title>node_System(117)</title>
<g id="a_node51"><a xlink:title="bevy_ecs::event::Events&lt;bevy_asset::assets::AssetEvent&lt;bevy_gltf::GltfNode&gt;&gt;::update_system">
<polygon fill="white" stroke="black" points="414,-376 90,-376 90,-340 414,-340 414,-376"/>
<text text-anchor="middle" x="252" y="-354.3" font-family="Times,serif" font-size="14.00">Events&lt;AssetEvent&lt;GltfNode&gt;&gt;update_system</text>
</a>
</g>
</g>
<!-- node_System(120) -->
<g id="node52" class="node">
<title>node_System(120)</title>
<g id="a_node52"><a xlink:title="bevy_ecs::event::Events&lt;bevy_asset::assets::AssetEvent&lt;bevy_gltf::GltfPrimitive&gt;&gt;::update_system">
<polygon fill="white" stroke="black" points="428.5,-322 75.5,-322 75.5,-286 428.5,-286 428.5,-322"/>
<text text-anchor="middle" x="252" y="-300.3" font-family="Times,serif" font-size="14.00">Events&lt;AssetEvent&lt;GltfPrimitive&gt;&gt;update_system</text>
</a>
</g>
</g>
<!-- node_System(123) -->
<g id="node53" class="node">
<title>node_System(123)</title>
<g id="a_node53"><a xlink:title="bevy_ecs::event::Events&lt;bevy_asset::assets::AssetEvent&lt;bevy_gltf::GltfMesh&gt;&gt;::update_system">
<polygon fill="white" stroke="black" points="415,-268 89,-268 89,-232 415,-232 415,-268"/>
<text text-anchor="middle" x="252" y="-246.3" font-family="Times,serif" font-size="14.00">Events&lt;AssetEvent&lt;GltfMesh&gt;&gt;update_system</text>
</a>
</g>
</g>
<!-- node_System(126) -->
<g id="node54" class="node">
<title>node_System(126)</title>
<g id="a_node54"><a xlink:title="bevy_ecs::event::Events&lt;bevy_asset::assets::AssetEvent&lt;bevy_audio::audio_source::AudioSource&gt;&gt;::update_system">
<polygon fill="white" stroke="black" points="427,-214 77,-214 77,-178 427,-178 427,-214"/>
<text text-anchor="middle" x="252" y="-192.3" font-family="Times,serif" font-size="14.00">Events&lt;AssetEvent&lt;AudioSource&gt;&gt;update_system</text>
</a>
</g>
</g>
<!-- node_System(129) -->
<g id="node55" class="node">
<title>node_System(129)</title>
<g id="a_node55"><a xlink:title="bevy_ecs::event::Events&lt;bevy_asset::assets::AssetEvent&lt;bevy_audio::sinks::AudioSink&gt;&gt;::update_system">
<polygon fill="white" stroke="black" points="419,-160 85,-160 85,-124 419,-124 419,-160"/>
<text text-anchor="middle" x="252" y="-138.3" font-family="Times,serif" font-size="14.00">Events&lt;AssetEvent&lt;AudioSink&gt;&gt;update_system</text>
</a>
</g>
</g>
<!-- node_System(132) -->
<g id="node56" class="node">
<title>node_System(132)</title>
<g id="a_node56"><a xlink:title="bevy_ecs::event::Events&lt;bevy_asset::assets::AssetEvent&lt;bevy_audio::sinks::SpatialAudioSink&gt;&gt;::update_system">
<polygon fill="white" stroke="black" points="442,-106 62,-106 62,-70 442,-70 442,-106"/>
<text text-anchor="middle" x="252" y="-84.3" font-family="Times,serif" font-size="14.00">Events&lt;AssetEvent&lt;SpatialAudioSink&gt;&gt;update_system</text>
</a>
</g>
</g>
<!-- node_System(137) -->
<g id="node57" class="node">
<title>node_System(137)</title>
<g id="a_node57"><a xlink:title="bevy_ecs::event::Events&lt;bevy_asset::assets::AssetEvent&lt;bevy_animation::AnimationClip&gt;&gt;::update_system">
<polygon fill="white" stroke="black" points="433,-52 71,-52 71,-16 433,-16 433,-52"/>
<text text-anchor="middle" x="252" y="-30.3" font-family="Times,serif" font-size="14.00">Events&lt;AssetEvent&lt;AnimationClip&gt;&gt;update_system</text>
</a>
</g>
</g>
<!-- set_marker_node_Set(8)&#45;&gt;set_marker_node_Set(3) -->
<g id="edge3" class="edge">
<title>set_marker_node_Set(8)&#45;&gt;set_marker_node_Set(3)</title>
<g id="a_edge3"><a xlink:title="PreUpdate → PreUpdateFlush">
<path fill="none" stroke="#00b0cc" stroke-width="2" d="M800,-2445C802.33,-2445 804.7,-2445 807.12,-2445"/>
<polygon fill="#00b0cc" stroke="#00b0cc" stroke-width="2" points="806.97,-2448.5 816.97,-2445 806.97,-2441.5 806.97,-2448.5"/>
</a>
</g>
</g>
<!-- set_marker_node_Set(10) -->
<!-- set_marker_node_Set(9)&#45;&gt;set_marker_node_Set(10) -->
<g id="edge5" class="edge">
<title>set_marker_node_Set(9)&#45;&gt;set_marker_node_Set(10)</title>
<g id="a_edge5"><a xlink:title="StateTransitions → FixedUpdate">
<path fill="none" stroke="#44d488" stroke-width="2" d="M1141,-2445C1143.39,-2445 1145.79,-2445 1148.19,-2445"/>
<polygon fill="#44d488" stroke="#44d488" stroke-width="2" points="1147.98,-2448.5 1157.98,-2445 1147.98,-2441.5 1147.98,-2448.5"/>
</a>
</g>
</g>
<!-- set_marker_node_Set(10)&#45;&gt;set_marker_node_Set(0) -->
<g id="edge6" class="edge">
<title>set_marker_node_Set(10)&#45;&gt;set_marker_node_Set(0)</title>
<g id="a_edge6"><a xlink:title="FixedUpdate → Update">
<path fill="none" stroke="#0090cc" stroke-width="2" d="M1261,-2445C1263.37,-2445 1265.75,-2445 1268.11,-2445"/>
<polygon fill="#0090cc" stroke="#0090cc" stroke-width="2" points="1267.98,-2448.5 1277.98,-2445 1267.98,-2441.5 1267.98,-2448.5"/>
</a>
</g>
</g>
<!-- set_marker_node_Set(11)&#45;&gt;set_marker_node_Set(5) -->
<g id="edge9" class="edge">
<title>set_marker_node_Set(11)&#45;&gt;set_marker_node_Set(5)</title>
<g id="a_edge9"><a xlink:title="PostUpdate → PostUpdateFlush">
<path fill="none" stroke="#3363bb" stroke-width="2" d="M1748,-2451C1756.98,-2457.91 1753.37,-2467.02 1754.03,-2475.46"/>
<polygon fill="#3363bb" stroke="#3363bb" stroke-width="2" points="1750.9,-2477.04 1758.61,-2484.31 1757.12,-2473.82 1750.9,-2477.04"/>
</a>
</g>
</g>
<!-- set_marker_node_Set(60) -->
<!-- set_marker_node_Set(11)&#45;&gt;set_marker_node_Set(60) -->
<g id="edge14" class="edge">
<title>set_marker_node_Set(11)&#45;&gt;set_marker_node_Set(60)</title>
<g id="a_edge14"><a xlink:title="PostUpdate → AssetEvents">
<path fill="none" stroke="#00b0cc" stroke-width="2" d="M1683.7,-2437C1711.76,-2429.81 1753.75,-2419.04 1788.19,-2410.21"/>
<polygon fill="#00b0cc" stroke="#00b0cc" stroke-width="2" points="1788.75,-2413.68 1797.57,-2407.8 1787.01,-2406.9 1788.75,-2413.68"/>
</a>
</g>
</g>
<!-- set_marker_node_Set(82) -->
<!-- node_System(66) -->
<g id="node63" class="node">
<title>node_System(66)</title>
<g id="a_node63"><a xlink:title="bevy_ecs::schedule::executor::apply_system_buffers">
<polygon fill="white" stroke="black" points="1732,-2600 1571,-2600 1571,-2564 1732,-2564 1732,-2600"/>
<text text-anchor="middle" x="1651.5" y="-2578.3" font-family="Times,serif" font-size="14.00">apply_system_buffers</text>
</a>
</g>
</g>
<!-- set_marker_node_Set(129) -->
<!-- node_System(105) -->
<g id="node65" class="node">
<title>node_System(105)</title>
<g id="a_node65"><a xlink:title="bevy_ecs::schedule::executor::apply_system_buffers">
<polygon fill="white" stroke="black" points="1732,-2499 1571,-2499 1571,-2463 1732,-2463 1732,-2499"/>
<text text-anchor="middle" x="1651.5" y="-2477.3" font-family="Times,serif" font-size="14.00">apply_system_buffers</text>
</a>
</g>
</g>
<!-- set_marker_node_Set(12)&#45;&gt;set_marker_node_Set(6) -->
<g id="edge11" class="edge">
<title>set_marker_node_Set(12)&#45;&gt;set_marker_node_Set(6)</title>
<g id="a_edge11"><a xlink:title="Last → LastFlush">
<path fill="none" stroke="#99d955" stroke-width="2" d="M2001,-2445C2003.31,-2445 2005.76,-2445 2008.33,-2445"/>
<polygon fill="#99d955" stroke="#99d955" stroke-width="2" points="2007.97,-2448.5 2017.97,-2445 2007.97,-2441.5 2007.97,-2448.5"/>
</a>
</g>
</g>
<!-- set_marker_node_Set(22) -->
<!-- set_marker_node_Set(59)&#45;&gt;set_marker_node_Set(8) -->
<g id="edge12" class="edge">
<title>set_marker_node_Set(59)&#45;&gt;set_marker_node_Set(8)</title>
<g id="a_edge12"><a xlink:title="LoadAssets → PreUpdate">
<path fill="none" stroke="#eede00" stroke-width="2" d="M650.5,-2410.05C672.34,-2417.36 698.25,-2426.02 718.8,-2432.89"/>
<polygon fill="#eede00" stroke="#eede00" stroke-width="2" points="717.63,-2436.19 728.22,-2436.04 719.85,-2429.55 717.63,-2436.19"/>
</a>
</g>
</g>
<!-- set_marker_node_Set(60)&#45;&gt;set_marker_node_Set(12) -->
<g id="edge15" class="edge">
<title>set_marker_node_Set(60)&#45;&gt;set_marker_node_Set(12)</title>
<g id="a_edge15"><a xlink:title="AssetEvents → Last">
<path fill="none" stroke="#aa3a55" stroke-width="2" d="M1896.5,-2413.29C1912.84,-2419.65 1930.79,-2426.63 1945.68,-2432.42"/>
<polygon fill="#aa3a55" stroke="#aa3a55" stroke-width="2" points="1944.04,-2435.54 1954.63,-2435.91 1946.58,-2429.02 1944.04,-2435.54"/>
</a>
</g>
</g>
</g>
</svg>
