<?xml version="1.0" encoding="UTF-8" standalone="no"?>
<!DOCTYPE svg PUBLIC "-//W3C//DTD SVG 1.1//EN"
 "http://www.w3.org/Graphics/SVG/1.1/DTD/svg11.dtd">
<!-- Generated by graphviz version 7.1.0 (0)
 -->
<!-- Pages: 1 -->
<svg width="1870pt" height="409pt"
 viewBox="0.00 0.00 1870.00 409.00" xmlns="http://www.w3.org/2000/svg" xmlns:xlink="http://www.w3.org/1999/xlink">
<g id="graph0" class="graph" transform="scale(1 1) rotate(0) translate(4 405)">
<polygon fill="white" stroke="none" points="-4,4 -4,-405 1866,-405 1866,4 -4,4"/>
<g id="clust1" class="cluster">
<title>clusternode_Set(0)</title>
<g id="a_clust1"><a xlink:title="Update">
<path fill="#000000" fill-opacity="0.031373" stroke="#000000" stroke-width="2" stroke-opacity="0.250980" d="M703,-102C703,-102 744,-102 744,-102 750,-102 756,-108 756,-114 756,-114 756,-129 756,-129 756,-135 750,-141 744,-141 744,-141 703,-141 703,-141 697,-141 691,-135 691,-129 691,-129 691,-114 691,-114 691,-108 697,-102 703,-102"/>
<text text-anchor="middle" x="723.5" y="-125.8" font-family="Helvetica,sans-Serif" font-size="14.00">Update</text>
</a>
</g>
</g>
<g id="clust2" class="cluster">
<title>clusternode_Set(2)</title>
<g id="a_clust2"><a xlink:title="FirstFlush">
<path fill="#000000" fill-opacity="0.031373" stroke="#000000" stroke-width="2" stroke-opacity="0.250980" d="M82,-125C82,-125 140,-125 140,-125 146,-125 152,-131 152,-137 152,-137 152,-152 152,-152 152,-158 146,-164 140,-164 140,-164 82,-164 82,-164 76,-164 70,-158 70,-152 70,-152 70,-137 70,-137 70,-131 76,-125 82,-125"/>
<text text-anchor="middle" x="111" y="-148.8" font-family="Helvetica,sans-Serif" font-size="14.00">FirstFlush</text>
</a>
</g>
</g>
<g id="clust3" class="cluster">
<title>clusternode_Set(3)</title>
<g id="a_clust3"><a xlink:title="PreUpdateFlush">
<path fill="#000000" fill-opacity="0.031373" stroke="#000000" stroke-width="2" stroke-opacity="0.250980" d="M296,-102C296,-102 395,-102 395,-102 401,-102 407,-108 407,-114 407,-114 407,-129 407,-129 407,-135 401,-141 395,-141 395,-141 296,-141 296,-141 290,-141 284,-135 284,-129 284,-129 284,-114 284,-114 284,-108 290,-102 296,-102"/>
<text text-anchor="middle" x="345.5" y="-125.8" font-family="Helvetica,sans-Serif" font-size="14.00">PreUpdateFlush</text>
</a>
</g>
</g>
<g id="clust4" class="cluster">
<title>clusternode_Set(4)</title>
<g id="a_clust4"><a xlink:title="UpdateFlush">
<path fill="#000000" fill-opacity="0.031373" stroke="#000000" stroke-width="2" stroke-opacity="0.250980" d="M788,-102C788,-102 865,-102 865,-102 871,-102 877,-108 877,-114 877,-114 877,-129 877,-129 877,-135 871,-141 865,-141 865,-141 788,-141 788,-141 782,-141 776,-135 776,-129 776,-129 776,-114 776,-114 776,-108 782,-102 788,-102"/>
<text text-anchor="middle" x="826.5" y="-125.8" font-family="Helvetica,sans-Serif" font-size="14.00">UpdateFlush</text>
</a>
</g>
</g>
<g id="clust5" class="cluster">
<title>clusternode_Set(5)</title>
<g id="a_clust5"><a xlink:title="PostUpdateFlush">
<path fill="#000000" fill-opacity="0.031373" stroke="#000000" stroke-width="2" stroke-opacity="0.250980" d="M1180,-55C1180,-55 1285,-55 1285,-55 1291,-55 1297,-61 1297,-67 1297,-67 1297,-82 1297,-82 1297,-88 1291,-94 1285,-94 1285,-94 1180,-94 1180,-94 1174,-94 1168,-88 1168,-82 1168,-82 1168,-67 1168,-67 1168,-61 1174,-55 1180,-55"/>
<text text-anchor="middle" x="1232.5" y="-78.8" font-family="Helvetica,sans-Serif" font-size="14.00">PostUpdateFlush</text>
</a>
</g>
</g>
<g id="clust6" class="cluster">
<title>clusternode_Set(6)</title>
<g id="a_clust6"><a xlink:title="LastFlush">
<path fill="#000000" fill-opacity="0.031373" stroke="#000000" stroke-width="2" stroke-opacity="0.250980" d="M1713.5,-31C1713.5,-31 1769.5,-31 1769.5,-31 1775.5,-31 1781.5,-37 1781.5,-43 1781.5,-43 1781.5,-58 1781.5,-58 1781.5,-64 1775.5,-70 1769.5,-70 1769.5,-70 1713.5,-70 1713.5,-70 1707.5,-70 1701.5,-64 1701.5,-58 1701.5,-58 1701.5,-43 1701.5,-43 1701.5,-37 1707.5,-31 1713.5,-31"/>
<text text-anchor="middle" x="1741.5" y="-54.8" font-family="Helvetica,sans-Serif" font-size="14.00">LastFlush</text>
</a>
</g>
</g>
<g id="clust7" class="cluster">
<title>clusternode_Set(7)</title>
<g id="a_clust7"><a xlink:title="First">
<path fill="#000000" fill-opacity="0.031373" stroke="#000000" stroke-width="2" stroke-opacity="0.250980" d="M12,-101C12,-101 34,-101 34,-101 40,-101 46,-107 46,-113 46,-113 46,-128 46,-128 46,-134 40,-140 34,-140 34,-140 12,-140 12,-140 6,-140 0,-134 0,-128 0,-128 0,-113 0,-113 0,-107 6,-101 12,-101"/>
<text text-anchor="middle" x="23" y="-124.8" font-family="Helvetica,sans-Serif" font-size="14.00">First</text>
</a>
</g>
</g>
<g id="clust8" class="cluster">
<title>clusternode_Set(8)</title>
<g id="a_clust8"><a xlink:title="PreUpdate">
<path fill="#000000" fill-opacity="0.031373" stroke="#000000" stroke-width="2" stroke-opacity="0.250980" d="M189,-102C189,-102 252,-102 252,-102 258,-102 264,-108 264,-114 264,-114 264,-129 264,-129 264,-135 258,-141 252,-141 252,-141 189,-141 189,-141 183,-141 177,-135 177,-129 177,-129 177,-114 177,-114 177,-108 183,-102 189,-102"/>
<text text-anchor="middle" x="220.5" y="-125.8" font-family="Helvetica,sans-Serif" font-size="14.00">PreUpdate</text>
</a>
</g>
</g>
<g id="clust9" class="cluster">
<title>clusternode_Set(9)</title>
<g id="a_clust9"><a xlink:title="StateTransitions">
<path fill="#000000" fill-opacity="0.031373" stroke="#000000" stroke-width="2" stroke-opacity="0.250980" d="M439,-102C439,-102 539,-102 539,-102 545,-102 551,-108 551,-114 551,-114 551,-129 551,-129 551,-135 545,-141 539,-141 539,-141 439,-141 439,-141 433,-141 427,-135 427,-129 427,-129 427,-114 427,-114 427,-108 433,-102 439,-102"/>
<text text-anchor="middle" x="489" y="-125.8" font-family="Helvetica,sans-Serif" font-size="14.00">StateTransitions</text>
</a>
</g>
</g>
<g id="clust10" class="cluster">
<title>clusternode_Set(10)</title>
<g id="a_clust10"><a xlink:title="FixedUpdate">
<path fill="#000000" fill-opacity="0.031373" stroke="#000000" stroke-width="2" stroke-opacity="0.250980" d="M583,-102C583,-102 659,-102 659,-102 665,-102 671,-108 671,-114 671,-114 671,-129 671,-129 671,-135 665,-141 659,-141 659,-141 583,-141 583,-141 577,-141 571,-135 571,-129 571,-129 571,-114 571,-114 571,-108 577,-102 583,-102"/>
<text text-anchor="middle" x="621" y="-125.8" font-family="Helvetica,sans-Serif" font-size="14.00">FixedUpdate</text>
</a>
</g>
</g>
<g id="clust11" class="cluster">
<title>clusternode_Set(11)</title>
<g id="a_clust11"><a xlink:title="PostUpdate">
<path fill="#000000" fill-opacity="0.031373" stroke="#000000" stroke-width="2" stroke-opacity="0.250980" d="M908.5,-102C908.5,-102 1842,-102 1842,-102 1848,-102 1854,-108 1854,-114 1854,-114 1854,-381 1854,-381 1854,-387 1848,-393 1842,-393 1842,-393 908.5,-393 908.5,-393 902.5,-393 896.5,-387 896.5,-381 896.5,-381 896.5,-114 896.5,-114 896.5,-108 902.5,-102 908.5,-102"/>
<text text-anchor="middle" x="1375.25" y="-377.8" font-family="Helvetica,sans-Serif" font-size="14.00">PostUpdate</text>
</a>
</g>
</g>
<g id="clust12" class="cluster">
<title>clusternode_Set(20)</title>
<g id="a_clust12"><a xlink:title="TransformPropagate">
<path fill="#000000" fill-opacity="0.031373" stroke="#000000" stroke-width="2" stroke-opacity="0.250980" d="M922.5,-318C922.5,-318 1050.5,-318 1050.5,-318 1056.5,-318 1062.5,-324 1062.5,-330 1062.5,-330 1062.5,-345 1062.5,-345 1062.5,-351 1056.5,-357 1050.5,-357 1050.5,-357 922.5,-357 922.5,-357 916.5,-357 910.5,-351 910.5,-345 910.5,-345 910.5,-330 910.5,-330 910.5,-324 916.5,-318 922.5,-318"/>
<text text-anchor="middle" x="986.5" y="-341.8" font-family="Helvetica,sans-Serif" font-size="14.00">TransformPropagate</text>
</a>
</g>
</g>
<g id="clust13" class="cluster">
<title>clusternode_Set(82)</title>
<g id="a_clust13"><a xlink:title="CameraUpdateSystem">
<path fill="#000000" fill-opacity="0.031373" stroke="#000000" stroke-width="2" stroke-opacity="0.250980" d="M916.5,-259C916.5,-259 1056.5,-259 1056.5,-259 1062.5,-259 1068.5,-265 1068.5,-271 1068.5,-271 1068.5,-286 1068.5,-286 1068.5,-292 1062.5,-298 1056.5,-298 1056.5,-298 916.5,-298 916.5,-298 910.5,-298 904.5,-292 904.5,-286 904.5,-286 904.5,-271 904.5,-271 904.5,-265 910.5,-259 916.5,-259"/>
<text text-anchor="middle" x="986.5" y="-282.8" font-family="Helvetica,sans-Serif" font-size="14.00">CameraUpdateSystem</text>
</a>
</g>
</g>
<g id="clust14" class="cluster">
<title>clusternode_Set(87)</title>
<g id="a_clust14"><a xlink:title="CalculateBoundsFlush">
<path fill="#000000" fill-opacity="0.031373" stroke="#000000" stroke-width="2" stroke-opacity="0.250980" d="M1428.5,-135C1428.5,-135 1568.5,-135 1568.5,-135 1574.5,-135 1580.5,-141 1580.5,-147 1580.5,-147 1580.5,-162 1580.5,-162 1580.5,-168 1574.5,-174 1568.5,-174 1568.5,-174 1428.5,-174 1428.5,-174 1422.5,-174 1416.5,-168 1416.5,-162 1416.5,-162 1416.5,-147 1416.5,-147 1416.5,-141 1422.5,-135 1428.5,-135"/>
<text text-anchor="middle" x="1498.5" y="-158.8" font-family="Helvetica,sans-Serif" font-size="14.00">CalculateBoundsFlush</text>
</a>
</g>
</g>
<g id="clust15" class="cluster">
<title>clusternode_Set(91)</title>
<g id="a_clust15"><a xlink:title="CheckVisibility">
<path fill="#000000" fill-opacity="0.031373" stroke="#000000" stroke-width="2" stroke-opacity="0.250980" d="M942.5,-212C942.5,-212 1030.5,-212 1030.5,-212 1036.5,-212 1042.5,-218 1042.5,-224 1042.5,-224 1042.5,-239 1042.5,-239 1042.5,-245 1036.5,-251 1030.5,-251 1030.5,-251 942.5,-251 942.5,-251 936.5,-251 930.5,-245 930.5,-239 930.5,-239 930.5,-224 930.5,-224 930.5,-218 936.5,-212 942.5,-212"/>
<text text-anchor="middle" x="986.5" y="-235.8" font-family="Helvetica,sans-Serif" font-size="14.00">CheckVisibility</text>
</a>
</g>
</g>
<g id="clust16" class="cluster">
<title>clusternode_Set(137)</title>
<g id="a_clust16"><a xlink:title="AddClusters">
<path fill="#000000" fill-opacity="0.031373" stroke="#000000" stroke-width="2" stroke-opacity="0.250980" d="M941,-118C941,-118 1032,-118 1032,-118 1038,-118 1044,-124 1044,-130 1044,-130 1044,-192 1044,-192 1044,-198 1038,-204 1032,-204 1032,-204 941,-204 941,-204 935,-204 929,-198 929,-192 929,-192 929,-130 929,-130 929,-124 935,-118 941,-118"/>
<text text-anchor="middle" x="986.5" y="-188.8" font-family="Helvetica,sans-Serif" font-size="14.00">AddClusters</text>
</a>
</g>
</g>
<g id="clust17" class="cluster">
<title>clusternode_Set(139)</title>
<g id="a_clust17"><a xlink:title="AssignLightsToClusters">
<path fill="#000000" fill-opacity="0.031373" stroke="#000000" stroke-width="2" stroke-opacity="0.250980" d="M1146.5,-133C1146.5,-133 1317.5,-133 1317.5,-133 1323.5,-133 1329.5,-139 1329.5,-145 1329.5,-145 1329.5,-207 1329.5,-207 1329.5,-213 1323.5,-219 1317.5,-219 1317.5,-219 1146.5,-219 1146.5,-219 1140.5,-219 1134.5,-213 1134.5,-207 1134.5,-207 1134.5,-145 1134.5,-145 1134.5,-139 1140.5,-133 1146.5,-133"/>
<text text-anchor="middle" x="1232" y="-203.8" font-family="Helvetica,sans-Serif" font-size="14.00">AssignLightsToClusters</text>
</a>
</g>
</g>
<g id="clust18" class="cluster">
<title>clusternode_Set(140)</title>
<g id="a_clust18"><a xlink:title="CheckLightVisibility">
<path fill="#000000" fill-opacity="0.031373" stroke="#000000" stroke-width="2" stroke-opacity="0.250980" d="M1649,-113C1649,-113 1834,-113 1834,-113 1840,-113 1846,-119 1846,-125 1846,-125 1846,-187 1846,-187 1846,-193 1840,-199 1834,-199 1834,-199 1649,-199 1649,-199 1643,-199 1637,-193 1637,-187 1637,-187 1637,-125 1637,-125 1637,-119 1643,-113 1649,-113"/>
<text text-anchor="middle" x="1741.5" y="-183.8" font-family="Helvetica,sans-Serif" font-size="14.00">CheckLightVisibility</text>
</a>
</g>
</g>
<g id="clust19" class="cluster">
<title>clusternode_Set(141)</title>
<g id="a_clust19"><a xlink:title="UpdateDirectionalLightCascades">
<path fill="#000000" fill-opacity="0.031373" stroke="#000000" stroke-width="2" stroke-opacity="0.250980" d="M1116,-227C1116,-227 1348,-227 1348,-227 1354,-227 1360,-233 1360,-239 1360,-239 1360,-301 1360,-301 1360,-307 1354,-313 1348,-313 1348,-313 1116,-313 1116,-313 1110,-313 1104,-307 1104,-301 1104,-301 1104,-239 1104,-239 1104,-233 1110,-227 1116,-227"/>
<text text-anchor="middle" x="1232" y="-297.8" font-family="Helvetica,sans-Serif" font-size="14.00">UpdateDirectionalLightCascades</text>
</a>
</g>
</g>
<g id="clust20" class="cluster">
<title>clusternode_Set(142)</title>
<g id="a_clust20"><a xlink:title="UpdateLightFrusta">
<path fill="#000000" fill-opacity="0.031373" stroke="#000000" stroke-width="2" stroke-opacity="0.250980" d="M1392,-182C1392,-182 1605,-182 1605,-182 1611,-182 1617,-188 1617,-194 1617,-194 1617,-350 1617,-350 1617,-356 1611,-362 1605,-362 1605,-362 1392,-362 1392,-362 1386,-362 1380,-356 1380,-350 1380,-350 1380,-194 1380,-194 1380,-188 1386,-182 1392,-182"/>
<text text-anchor="middle" x="1498.5" y="-346.8" font-family="Helvetica,sans-Serif" font-size="14.00">UpdateLightFrusta</text>
</a>
</g>
</g>
<g id="clust21" class="cluster">
<title>clusternode_Set(12)</title>
<g id="a_clust21"><a xlink:title="Last">
<path fill="#000000" fill-opacity="0.031373" stroke="#000000" stroke-width="2" stroke-opacity="0.250980" d="M1488.5,-31C1488.5,-31 1508.5,-31 1508.5,-31 1514.5,-31 1520.5,-37 1520.5,-43 1520.5,-43 1520.5,-58 1520.5,-58 1520.5,-64 1514.5,-70 1508.5,-70 1508.5,-70 1488.5,-70 1488.5,-70 1482.5,-70 1476.5,-64 1476.5,-58 1476.5,-58 1476.5,-43 1476.5,-43 1476.5,-37 1482.5,-31 1488.5,-31"/>
<text text-anchor="middle" x="1498.5" y="-54.8" font-family="Helvetica,sans-Serif" font-size="14.00">Last</text>
</a>
</g>
</g>
<g id="clust22" class="cluster">
<title>clusternode_Set(59)</title>
<g id="a_clust22"><a xlink:title="LoadAssets">
<path fill="#000000" fill-opacity="0.031373" stroke="#000000" stroke-width="2" stroke-opacity="0.250980" d="M78,-78C78,-78 145,-78 145,-78 151,-78 157,-84 157,-90 157,-90 157,-105 157,-105 157,-111 151,-117 145,-117 145,-117 78,-117 78,-117 72,-117 66,-111 66,-105 66,-105 66,-90 66,-90 66,-84 72,-78 78,-78"/>
<text text-anchor="middle" x="111.5" y="-101.8" font-family="Helvetica,sans-Serif" font-size="14.00">LoadAssets</text>
</a>
</g>
</g>
<g id="clust23" class="cluster">
<title>clusternode_Set(60)</title>
<g id="a_clust23"><a xlink:title="AssetEvents">
<path fill="#000000" fill-opacity="0.031373" stroke="#000000" stroke-width="2" stroke-opacity="0.250980" d="M1196,-8C1196,-8 1268,-8 1268,-8 1274,-8 1280,-14 1280,-20 1280,-20 1280,-35 1280,-35 1280,-41 1274,-47 1268,-47 1268,-47 1196,-47 1196,-47 1190,-47 1184,-41 1184,-35 1184,-35 1184,-20 1184,-20 1184,-14 1190,-8 1196,-8"/>
<text text-anchor="middle" x="1232" y="-31.8" font-family="Helvetica,sans-Serif" font-size="14.00">AssetEvents</text>
</a>
</g>
</g>
<!-- set_marker_node_Set(0) -->
<!-- set_marker_node_Set(4) -->
<!-- set_marker_node_Set(0)&#45;&gt;set_marker_node_Set(4) -->
<g id="edge7" class="edge">
<title>set_marker_node_Set(0)&#45;&gt;set_marker_node_Set(4)</title>
<g id="a_edge7"><a xlink:title="Update → UpdateFlush">
<path fill="none" stroke="#ee9e44" stroke-width="2" d="M756,-110C758.35,-110 760.77,-110 763.22,-110"/>
<polygon fill="#ee9e44" stroke="#ee9e44" stroke-width="2" points="762.97,-113.5 772.97,-110 762.97,-106.5 762.97,-113.5"/>
</a>
</g>
</g>
<!-- set_marker_node_Set(2) -->
<!-- set_marker_node_Set(8) -->
<!-- set_marker_node_Set(2)&#45;&gt;set_marker_node_Set(8) -->
<g id="edge2" class="edge">
<title>set_marker_node_Set(2)&#45;&gt;set_marker_node_Set(8)</title>
<g id="a_edge2"><a xlink:title="FirstFlush → PreUpdate">
<path fill="none" stroke="#881877" stroke-width="2" d="M149.2,-125C154.17,-123.94 159.34,-122.82 164.52,-121.71"/>
<polygon fill="#881877" stroke="#881877" stroke-width="2" points="165,-125.19 174.04,-119.66 163.53,-118.34 165,-125.19"/>
</a>
</g>
</g>
<!-- set_marker_node_Set(3) -->
<!-- set_marker_node_Set(9) -->
<!-- set_marker_node_Set(3)&#45;&gt;set_marker_node_Set(9) -->
<g id="edge4" class="edge">
<title>set_marker_node_Set(3)&#45;&gt;set_marker_node_Set(9)</title>
<g id="a_edge4"><a xlink:title="PreUpdateFlush → StateTransitions">
<path fill="none" stroke="#aa3a55" stroke-width="2" d="M407,-110C409.39,-110 411.8,-110 414.21,-110"/>
<polygon fill="#aa3a55" stroke="#aa3a55" stroke-width="2" points="413.98,-113.5 423.98,-110 413.98,-106.5 413.98,-113.5"/>
</a>
</g>
</g>
<!-- set_marker_node_Set(11) -->
<!-- set_marker_node_Set(4)&#45;&gt;set_marker_node_Set(11) -->
<g id="edge8" class="edge">
<title>set_marker_node_Set(4)&#45;&gt;set_marker_node_Set(11)</title>
<g id="a_edge8"><a xlink:title="UpdateFlush → PostUpdate">
<path fill="none" stroke="#663699" stroke-width="2" d="M877,-110C879.16,-110 881.36,-110 883.59,-110"/>
<polygon fill="#663699" stroke="#663699" stroke-width="2" points="883.47,-113.5 893.47,-110 883.47,-106.5 883.47,-113.5"/>
</a>
</g>
</g>
<!-- set_marker_node_Set(5) -->
<!-- set_marker_node_Set(12) -->
<!-- set_marker_node_Set(5)&#45;&gt;set_marker_node_Set(12) -->
<g id="edge10" class="edge">
<title>set_marker_node_Set(5)&#45;&gt;set_marker_node_Set(12)</title>
<g id="a_edge10"><a xlink:title="PostUpdateFlush → Last">
<path fill="none" stroke="#22c2bb" stroke-width="2" d="M1297,-57.19C1349.47,-52.43 1421.68,-45.88 1463.59,-42.08"/>
<polygon fill="#22c2bb" stroke="#22c2bb" stroke-width="2" points="1463.85,-45.57 1473.49,-41.18 1463.21,-38.6 1463.85,-45.57"/>
</a>
</g>
</g>
<!-- set_marker_node_Set(6) -->
<!-- set_marker_node_Set(7) -->
<!-- set_marker_node_Set(7)&#45;&gt;set_marker_node_Set(2) -->
<g id="edge1" class="edge">
<title>set_marker_node_Set(7)&#45;&gt;set_marker_node_Set(2)</title>
<g id="a_edge1"><a xlink:title="First → FirstFlush">
<path fill="none" stroke="#eede00" stroke-width="2" d="M46,-115.14C53.02,-117.1 61.02,-119.33 68.95,-121.54"/>
<polygon fill="#eede00" stroke="#eede00" stroke-width="2" points="67.85,-124.87 78.43,-124.19 69.74,-118.13 67.85,-124.87"/>
</a>
</g>
</g>
<!-- set_marker_node_Set(59) -->
<!-- set_marker_node_Set(7)&#45;&gt;set_marker_node_Set(59) -->
<g id="edge13" class="edge">
<title>set_marker_node_Set(7)&#45;&gt;set_marker_node_Set(59)</title>
<g id="a_edge13"><a xlink:title="First → LoadAssets">
<path fill="none" stroke="#881877" stroke-width="2" d="M46,-103.12C48.46,-102.46 51.05,-101.77 53.71,-101.05"/>
<polygon fill="#881877" stroke="#881877" stroke-width="2" points="54.32,-104.51 63.08,-98.55 52.51,-97.75 54.32,-104.51"/>
</a>
</g>
</g>
<!-- set_marker_node_Set(8)&#45;&gt;set_marker_node_Set(3) -->
<g id="edge3" class="edge">
<title>set_marker_node_Set(8)&#45;&gt;set_marker_node_Set(3)</title>
<g id="a_edge3"><a xlink:title="PreUpdate → PreUpdateFlush">
<path fill="none" stroke="#00b0cc" stroke-width="2" d="M264,-110C266.39,-110 268.82,-110 271.28,-110"/>
<polygon fill="#00b0cc" stroke="#00b0cc" stroke-width="2" points="270.98,-113.5 280.98,-110 270.98,-106.5 270.98,-113.5"/>
</a>
</g>
</g>
<!-- set_marker_node_Set(10) -->
<!-- set_marker_node_Set(9)&#45;&gt;set_marker_node_Set(10) -->
<g id="edge5" class="edge">
<title>set_marker_node_Set(9)&#45;&gt;set_marker_node_Set(10)</title>
<g id="a_edge5"><a xlink:title="StateTransitions → FixedUpdate">
<path fill="none" stroke="#44d488" stroke-width="2" d="M551,-110C553.39,-110 555.79,-110 558.19,-110"/>
<polygon fill="#44d488" stroke="#44d488" stroke-width="2" points="557.98,-113.5 567.98,-110 557.98,-106.5 557.98,-113.5"/>
</a>
</g>
</g>
<!-- set_marker_node_Set(10)&#45;&gt;set_marker_node_Set(0) -->
<g id="edge6" class="edge">
<title>set_marker_node_Set(10)&#45;&gt;set_marker_node_Set(0)</title>
<g id="a_edge6"><a xlink:title="FixedUpdate → Update">
<path fill="none" stroke="#0090cc" stroke-width="2" d="M671,-110C673.37,-110 675.75,-110 678.11,-110"/>
<polygon fill="#0090cc" stroke="#0090cc" stroke-width="2" points="677.98,-113.5 687.98,-110 677.98,-106.5 677.98,-113.5"/>
</a>
</g>
</g>
<!-- set_marker_node_Set(11)&#45;&gt;set_marker_node_Set(5) -->
<g id="edge9" class="edge">
<title>set_marker_node_Set(11)&#45;&gt;set_marker_node_Set(5)</title>
<g id="a_edge9"><a xlink:title="PostUpdate → PostUpdateFlush">
<path fill="none" stroke="#3363bb" stroke-width="2" d="M1028.92,-102C1063.55,-95.32 1113.83,-85.62 1155.57,-77.56"/>
<polygon fill="#3363bb" stroke="#3363bb" stroke-width="2" points="1155.87,-81.07 1165.03,-75.73 1154.55,-74.19 1155.87,-81.07"/>
</a>
</g>
</g>
<!-- set_marker_node_Set(60) -->
<!-- set_marker_node_Set(11)&#45;&gt;set_marker_node_Set(60) -->
<g id="edge14" class="edge">
<title>set_marker_node_Set(11)&#45;&gt;set_marker_node_Set(60)</title>
<g id="a_edge14"><a xlink:title="PostUpdate → AssetEvents">
<path fill="none" stroke="#00b0cc" stroke-width="2" d="M1001.81,-102C1023.43,-90.14 1065.97,-67.72 1104,-53 1125.69,-44.61 1150.09,-37.06 1171.67,-31.01"/>
<polygon fill="#00b0cc" stroke="#00b0cc" stroke-width="2" points="1172.37,-34.45 1181.08,-28.43 1170.51,-27.7 1172.37,-34.45"/>
</a>
</g>
</g>
<!-- set_marker_node_Set(20) -->
<!-- node_System(115) -->
<g id="node19" class="node">
<title>node_System(115)</title>
<g id="a_node19"><a xlink:title="bevy_pbr::light::assign_lights_to_clusters">
<polygon fill="#abd5fc" stroke="#48a3f8" points="1321.5,-177 1142.5,-177 1142.5,-141 1321.5,-141 1321.5,-177"/>
<text text-anchor="middle" x="1232" y="-155.3" font-family="Helvetica,sans-Serif" font-size="14.00" fill="#011a31">assign_lights_to_clusters</text>
</a>
</g>
</g>
<!-- set_marker_node_Set(20)&#45;&gt;node_System(115) -->
<g id="edge16" class="edge">
<title>set_marker_node_Set(20)&#45;&gt;node_System(115)</title>
<g id="a_edge16"><a xlink:title="TransformPropagate → assign_lights_to_clusters">
<path fill="none" stroke="#44d488" stroke-width="2" d="M1037.87,-318C1049.13,-314.15 1060.19,-308.44 1068.5,-300 1106.62,-261.27 1063.56,-219.3 1104,-183 1111.57,-176.2 1120.45,-171.06 1129.93,-167.2"/>
<polygon fill="#44d488" stroke="#44d488" stroke-width="2" points="1131.03,-170.52 1139.34,-163.95 1128.75,-163.9 1131.03,-170.52"/>
</a>
</g>
</g>
<!-- node_System(120) -->
<g id="node21" class="node">
<title>node_System(120)</title>
<g id="a_node21"><a xlink:title="bevy_pbr::light::check_light_mesh_visibility">
<polygon fill="#abd5fc" stroke="#48a3f8" points="1838,-157 1645,-157 1645,-121 1838,-121 1838,-157"/>
<text text-anchor="middle" x="1741.5" y="-135.3" font-family="Helvetica,sans-Serif" font-size="14.00" fill="#011a31">check_light_mesh_visibility</text>
</a>
</g>
</g>
<!-- set_marker_node_Set(20)&#45;&gt;node_System(120) -->
<g id="edge29" class="edge">
<title>set_marker_node_Set(20)&#45;&gt;node_System(120)</title>
<g id="a_edge29"><a xlink:title="TransformPropagate → check_light_mesh_visibility">
<path fill="none" stroke="#ee9e44" stroke-width="2" d="M1062.5,-326.28C1168.16,-326.31 1349.26,-324.91 1360,-315 1389.9,-287.4 1349.7,-160.15 1380,-133 1398.51,-116.42 1532.75,-122.71 1632.04,-129.89"/>
<polygon fill="#ee9e44" stroke="#ee9e44" stroke-width="2" points="1631.63,-133.37 1641.86,-130.61 1632.15,-126.39 1631.63,-133.37"/>
</a>
</g>
</g>
<!-- node_System(116) -->
<g id="node23" class="node">
<title>node_System(116)</title>
<g id="a_node23"><a xlink:title="bevy_pbr::light::update_directional_light_cascades">
<polygon fill="#abd5fc" stroke="#48a3f8" points="1352,-271 1112,-271 1112,-235 1352,-235 1352,-271"/>
<text text-anchor="middle" x="1232" y="-249.3" font-family="Helvetica,sans-Serif" font-size="14.00" fill="#011a31">update_directional_light_cascades</text>
</a>
</g>
</g>
<!-- set_marker_node_Set(20)&#45;&gt;node_System(116) -->
<g id="edge19" class="edge">
<title>set_marker_node_Set(20)&#45;&gt;node_System(116)</title>
<g id="a_edge19"><a xlink:title="TransformPropagate → update_directional_light_cascades">
<path fill="none" stroke="#663699" stroke-width="2" d="M1018.96,-318C1034.27,-313.59 1052.74,-307.47 1068.5,-300 1085.49,-291.95 1086.55,-283.99 1104,-277 1105.09,-276.56 1106.2,-276.13 1107.31,-275.71"/>
<polygon fill="#663699" stroke="#663699" stroke-width="2" points="1108.31,-279.07 1116.6,-272.47 1106,-272.46 1108.31,-279.07"/>
</a>
</g>
</g>
<!-- node_System(117) -->
<g id="node25" class="node">
<title>node_System(117)</title>
<g id="a_node25"><a xlink:title="bevy_pbr::light::update_directional_light_frusta">
<polygon fill="#abd5fc" stroke="#48a3f8" points="1609,-226 1388,-226 1388,-190 1609,-190 1609,-226"/>
<text text-anchor="middle" x="1498.5" y="-204.3" font-family="Helvetica,sans-Serif" font-size="14.00" fill="#011a31">update_directional_light_frusta</text>
</a>
</g>
</g>
<!-- set_marker_node_Set(20)&#45;&gt;node_System(117) -->
<g id="edge22" class="edge">
<title>set_marker_node_Set(20)&#45;&gt;node_System(117)</title>
<g id="a_edge22"><a xlink:title="TransformPropagate → update_directional_light_frusta">
<path fill="none" stroke="#99d955" stroke-width="2" d="M1062.5,-330.74C1164.66,-336.46 1337.53,-343.2 1360,-325 1389.9,-300.78 1357.05,-268.24 1379.26,-235.31"/>
<polygon fill="#99d955" stroke="#99d955" stroke-width="2" points="1381.79,-237.74 1385.6,-227.86 1376.46,-233.21 1381.79,-237.74"/>
</a>
</g>
</g>
<!-- node_System(118) -->
<g id="node26" class="node">
<title>node_System(118)</title>
<g id="a_node26"><a xlink:title="bevy_pbr::light::update_point_light_frusta">
<polygon fill="#abd5fc" stroke="#48a3f8" points="1591,-273 1406,-273 1406,-237 1591,-237 1591,-273"/>
<text text-anchor="middle" x="1498.5" y="-251.3" font-family="Helvetica,sans-Serif" font-size="14.00" fill="#011a31">update_point_light_frusta</text>
</a>
</g>
</g>
<!-- set_marker_node_Set(20)&#45;&gt;node_System(118) -->
<g id="edge24" class="edge">
<title>set_marker_node_Set(20)&#45;&gt;node_System(118)</title>
<g id="a_edge24"><a xlink:title="TransformPropagate → update_point_light_frusta">
<path fill="none" stroke="#881877" stroke-width="2" d="M1062.5,-334.87C1076.28,-336.17 1090.56,-337.31 1104,-338 1132.41,-339.46 1336.88,-354.57 1360,-338 1382.5,-321.87 1359.23,-297.31 1380,-279 1384.33,-275.18 1389.11,-271.9 1394.18,-269.1"/>
<polygon fill="#881877" stroke="#881877" stroke-width="2" points="1395.39,-272.4 1402.95,-264.98 1392.41,-266.06 1395.39,-272.4"/>
</a>
</g>
</g>
<!-- node_System(119) -->
<g id="node27" class="node">
<title>node_System(119)</title>
<g id="a_node27"><a xlink:title="bevy_pbr::light::update_spot_light_frusta">
<polygon fill="#abd5fc" stroke="#48a3f8" points="1588,-320 1409,-320 1409,-284 1588,-284 1588,-320"/>
<text text-anchor="middle" x="1498.5" y="-298.3" font-family="Helvetica,sans-Serif" font-size="14.00" fill="#011a31">update_spot_light_frusta</text>
</a>
</g>
</g>
<!-- set_marker_node_Set(20)&#45;&gt;node_System(119) -->
<g id="edge26" class="edge">
<title>set_marker_node_Set(20)&#45;&gt;node_System(119)</title>
<g id="a_edge26"><a xlink:title="TransformPropagate → update_spot_light_frusta">
<path fill="none" stroke="#aa3a55" stroke-width="2" d="M1062.5,-344.52C1076.22,-347.22 1090.48,-349.57 1104,-351 1217.14,-363 1257.45,-400.29 1360,-351 1372.82,-344.84 1367.86,-333.42 1380,-326 1385.22,-322.81 1390.79,-320.03 1396.56,-317.62"/>
<polygon fill="#aa3a55" stroke="#aa3a55" stroke-width="2" points="1397.63,-320.96 1405.8,-314.21 1395.21,-314.39 1397.63,-320.96"/>
</a>
</g>
</g>
<!-- set_marker_node_Set(82) -->
<!-- set_marker_node_Set(82)&#45;&gt;node_System(115) -->
<g id="edge18" class="edge">
<title>set_marker_node_Set(82)&#45;&gt;node_System(115)</title>
<g id="a_edge18"><a xlink:title="CameraUpdateSystem → assign_lights_to_clusters">
<path fill="none" stroke="#ee9e44" stroke-width="2" d="M1058.39,-259C1061.96,-257.31 1065.36,-255.32 1068.5,-253 1096.56,-232.27 1076.11,-203.95 1104,-183 1111.89,-177.08 1120.81,-172.48 1130.17,-168.93"/>
<polygon fill="#ee9e44" stroke="#ee9e44" stroke-width="2" points="1130.95,-172.36 1139.36,-165.92 1128.77,-165.71 1130.95,-172.36"/>
</a>
</g>
</g>
<!-- set_marker_node_Set(82)&#45;&gt;node_System(116) -->
<g id="edge20" class="edge">
<title>set_marker_node_Set(82)&#45;&gt;node_System(116)</title>
<g id="a_edge20"><a xlink:title="CameraUpdateSystem → update_directional_light_cascades">
<path fill="none" stroke="#3363bb" stroke-width="2" d="M1068.5,-262.34C1078.34,-261.78 1088.59,-261.19 1098.93,-260.59"/>
<polygon fill="#3363bb" stroke="#3363bb" stroke-width="2" points="1098.93,-264.1 1108.72,-260.03 1098.53,-257.11 1098.93,-264.1"/>
</a>
</g>
</g>
<!-- set_marker_node_Set(87) -->
<!-- set_marker_node_Set(87)&#45;&gt;node_System(120) -->
<g id="edge28" class="edge">
<title>set_marker_node_Set(87)&#45;&gt;node_System(120)</title>
<g id="a_edge28"><a xlink:title="CalculateBoundsFlush → check_light_mesh_visibility">
<path fill="none" stroke="#0090cc" stroke-width="2" d="M1580.5,-141.66C1596.97,-141.38 1614.54,-141.09 1631.79,-140.8"/>
<polygon fill="#0090cc" stroke="#0090cc" stroke-width="2" points="1631.76,-144.31 1641.7,-140.64 1631.64,-137.31 1631.76,-144.31"/>
</a>
</g>
</g>
<!-- set_marker_node_Set(91) -->
<!-- set_marker_node_Set(91)&#45;&gt;node_System(115) -->
<g id="edge17" class="edge">
<title>set_marker_node_Set(91)&#45;&gt;node_System(115)</title>
<g id="a_edge17"><a xlink:title="CheckVisibility → assign_lights_to_clusters">
<path fill="none" stroke="#0090cc" stroke-width="2" d="M1042.5,-213.59C1051.36,-211.68 1060.3,-209.21 1068.5,-206 1086.01,-199.15 1086.55,-189.99 1104,-183 1112.21,-179.71 1120.91,-176.87 1129.74,-174.41"/>
<polygon fill="#0090cc" stroke="#0090cc" stroke-width="2" points="1130.54,-177.82 1139.35,-171.94 1128.8,-171.04 1130.54,-177.82"/>
</a>
</g>
</g>
<!-- set_marker_node_Set(91)&#45;&gt;node_System(120) -->
<g id="edge31" class="edge">
<title>set_marker_node_Set(91)&#45;&gt;node_System(120)</title>
<g id="a_edge31"><a xlink:title="CheckVisibility → check_light_mesh_visibility">
<path fill="none" stroke="#3363bb" stroke-width="2" d="M1042.5,-218.25C1051.91,-215.88 1061.04,-212.05 1068.5,-206 1101.58,-179.18 1068.75,-140.89 1104,-117 1151.19,-85.02 1560.16,-118.67 1617,-123 1621.89,-123.37 1626.89,-123.81 1631.93,-124.28"/>
<polygon fill="#3363bb" stroke="#3363bb" stroke-width="2" points="1631.21,-127.73 1641.52,-125.26 1631.92,-120.77 1631.21,-127.73"/>
</a>
</g>
</g>
<!-- set_marker_node_Set(91)&#45;&gt;node_System(117) -->
<g id="edge21" class="edge">
<title>set_marker_node_Set(91)&#45;&gt;node_System(117)</title>
<g id="a_edge21"><a xlink:title="CheckVisibility → update_directional_light_frusta">
<path fill="none" stroke="#22c2bb" stroke-width="2" d="M1042.5,-217.79C1051.83,-215.45 1060.94,-211.75 1068.5,-206 1097.86,-183.68 1072.84,-150.73 1104,-131 1128.03,-115.79 1336.15,-115.5 1360,-131 1378.35,-142.93 1363.39,-161.75 1380,-176 1383.03,-178.6 1386.25,-180.99 1389.63,-183.19"/>
<polygon fill="#22c2bb" stroke="#22c2bb" stroke-width="2" points="1387.79,-186.17 1398.21,-188.08 1391.25,-180.09 1387.79,-186.17"/>
</a>
</g>
</g>
<!-- set_marker_node_Set(137) -->
<!-- node_System(113) -->
<g id="node17" class="node">
<title>node_System(113)</title>
<g id="a_node17"><a xlink:title="bevy_pbr::light::add_clusters">
<polygon fill="#abd5fc" stroke="#48a3f8" points="1036,-162 937,-162 937,-126 1036,-126 1036,-162"/>
<text text-anchor="middle" x="986.5" y="-140.3" font-family="Helvetica,sans-Serif" font-size="14.00" fill="#011a31">add_clusters</text>
</a>
</g>
</g>
<!-- set_marker_node_Set(139) -->
<!-- set_marker_node_Set(139)&#45;&gt;node_System(118) -->
<g id="edge25" class="edge">
<title>set_marker_node_Set(139)&#45;&gt;node_System(118)</title>
<g id="a_edge25"><a xlink:title="AssignLightsToClusters → update_point_light_frusta">
<path fill="none" stroke="#00b0cc" stroke-width="2" d="M1329.5,-215.53C1339.82,-218.65 1350.14,-221.84 1360,-225 1368.97,-227.87 1370.91,-229.53 1380,-232 1384.29,-233.16 1388.69,-234.3 1393.14,-235.39"/>
<polygon fill="#00b0cc" stroke="#00b0cc" stroke-width="2" points="1392.31,-238.79 1402.85,-237.68 1393.92,-231.98 1392.31,-238.79"/>
</a>
</g>
</g>
<!-- set_marker_node_Set(139)&#45;&gt;node_System(119) -->
<g id="edge27" class="edge">
<title>set_marker_node_Set(139)&#45;&gt;node_System(119)</title>
<g id="a_edge27"><a xlink:title="AssignLightsToClusters → update_spot_light_frusta">
<path fill="none" stroke="#44d488" stroke-width="2" d="M1329.5,-205.42C1340.67,-210.4 1351.19,-216.8 1360,-225 1378.73,-242.44 1360.5,-262.42 1380,-279 1385.07,-283.31 1390.7,-286.9 1396.68,-289.88"/>
<polygon fill="#44d488" stroke="#44d488" stroke-width="2" points="1395.2,-293.05 1405.77,-293.73 1397.92,-286.61 1395.2,-293.05"/>
</a>
</g>
</g>
<!-- set_marker_node_Set(140) -->
<!-- set_marker_node_Set(141) -->
<!-- set_marker_node_Set(141)&#45;&gt;node_System(117) -->
<g id="edge23" class="edge">
<title>set_marker_node_Set(141)&#45;&gt;node_System(117)</title>
<g id="a_edge23"><a xlink:title="UpdateDirectionalLightCascades → update_directional_light_frusta">
<path fill="none" stroke="#eede00" stroke-width="2" d="M1360,-277C1375.28,-266.63 1366.87,-251.49 1378.86,-235.4"/>
<polygon fill="#eede00" stroke="#eede00" stroke-width="2" points="1381.14,-238.07 1385.76,-228.53 1376.2,-233.11 1381.14,-238.07"/>
</a>
</g>
</g>
<!-- set_marker_node_Set(142) -->
<!-- set_marker_node_Set(142)&#45;&gt;node_System(120) -->
<g id="edge30" class="edge">
<title>set_marker_node_Set(142)&#45;&gt;node_System(120)</title>
<g id="a_edge30"><a xlink:title="UpdateLightFrusta → check_light_mesh_visibility">
<path fill="none" stroke="#663699" stroke-width="2" d="M1617,-326C1667.69,-279.19 1596.8,-223.71 1636.59,-165.97"/>
<polygon fill="#663699" stroke="#663699" stroke-width="2" points="1639.23,-168.27 1642.76,-158.28 1633.77,-163.89 1639.23,-168.27"/>
</a>
</g>
</g>
<!-- set_marker_node_Set(12)&#45;&gt;set_marker_node_Set(6) -->
<g id="edge11" class="edge">
<title>set_marker_node_Set(12)&#45;&gt;set_marker_node_Set(6)</title>
<g id="a_edge11"><a xlink:title="Last → LastFlush">
<path fill="none" stroke="#99d955" stroke-width="2" d="M1520.5,-39C1557.68,-39 1636.12,-39 1688.58,-39"/>
<polygon fill="#99d955" stroke="#99d955" stroke-width="2" points="1688.47,-42.5 1698.47,-39 1688.47,-35.5 1688.47,-42.5"/>
</a>
</g>
</g>
<!-- set_marker_node_Set(59)&#45;&gt;set_marker_node_Set(8) -->
<g id="edge12" class="edge">
<title>set_marker_node_Set(59)&#45;&gt;set_marker_node_Set(8)</title>
<g id="a_edge12"><a xlink:title="LoadAssets → PreUpdate">
<path fill="none" stroke="#eede00" stroke-width="2" d="M157,-96.09C161.6,-97.12 166.28,-98.18 170.91,-99.21"/>
<polygon fill="#eede00" stroke="#eede00" stroke-width="2" points="169.87,-102.57 180.39,-101.34 171.4,-95.74 169.87,-102.57"/>
</a>
</g>
</g>
<!-- set_marker_node_Set(60)&#45;&gt;set_marker_node_Set(12) -->
<g id="edge15" class="edge">
<title>set_marker_node_Set(60)&#45;&gt;set_marker_node_Set(12)</title>
<g id="a_edge15"><a xlink:title="AssetEvents → Last">
<path fill="none" stroke="#aa3a55" stroke-width="2" d="M1280,-20.09C1332.72,-24.67 1416.93,-31.99 1463.59,-36.05"/>
<polygon fill="#aa3a55" stroke="#aa3a55" stroke-width="2" points="1463.22,-39.53 1473.49,-36.91 1463.83,-32.56 1463.22,-39.53"/>
</a>
</g>
</g>
</g>
</svg>
