<?xml version="1.0" encoding="UTF-8" standalone="no"?>
<!DOCTYPE svg PUBLIC "-//W3C//DTD SVG 1.1//EN"
 "http://www.w3.org/Graphics/SVG/1.1/DTD/svg11.dtd">
<!-- Generated by graphviz version 7.1.0 (0)
 -->
<!-- Pages: 1 -->
<svg width="1498pt" height="176pt"
 viewBox="0.00 0.00 1498.00 176.00" xmlns="http://www.w3.org/2000/svg" xmlns:xlink="http://www.w3.org/1999/xlink">
<g id="graph0" class="graph" transform="scale(1 1) rotate(0) translate(4 172)">
<polygon fill="white" stroke="none" points="-4,4 -4,-172 1494,-172 1494,4 -4,4"/>
<g id="clust1" class="cluster">
<title>clusternode_Set(0)</title>
<g id="a_clust1"><a xlink:title="Update">
<polygon fill="white" stroke="black" points="691,-46 691,-85 756,-85 756,-46 691,-46"/>
<text text-anchor="middle" x="723.5" y="-69.8" font-family="Helvetica,sans-Serif" font-size="14.00">Update</text>
</a>
</g>
</g>
<g id="clust2" class="cluster">
<title>clusternode_Set(2)</title>
<g id="a_clust2"><a xlink:title="FirstFlush">
<polygon fill="white" stroke="black" points="70,-55 70,-94 152,-94 152,-55 70,-55"/>
<text text-anchor="middle" x="111" y="-78.8" font-family="Helvetica,sans-Serif" font-size="14.00">FirstFlush</text>
</a>
</g>
</g>
<g id="clust3" class="cluster">
<title>clusternode_Set(3)</title>
<g id="a_clust3"><a xlink:title="PreUpdateFlush">
<polygon fill="white" stroke="black" points="284,-46 284,-85 407,-85 407,-46 284,-46"/>
<text text-anchor="middle" x="345.5" y="-69.8" font-family="Helvetica,sans-Serif" font-size="14.00">PreUpdateFlush</text>
</a>
</g>
</g>
<g id="clust4" class="cluster">
<title>clusternode_Set(4)</title>
<g id="a_clust4"><a xlink:title="UpdateFlush">
<polygon fill="white" stroke="black" points="776,-46 776,-85 877,-85 877,-46 776,-46"/>
<text text-anchor="middle" x="826.5" y="-69.8" font-family="Helvetica,sans-Serif" font-size="14.00">UpdateFlush</text>
</a>
</g>
</g>
<g id="clust5" class="cluster">
<title>clusternode_Set(5)</title>
<g id="a_clust5"><a xlink:title="PostUpdateFlush">
<polygon fill="white" stroke="black" points="1010,-76 1010,-115 1139,-115 1139,-76 1010,-76"/>
<text text-anchor="middle" x="1074.5" y="-99.8" font-family="Helvetica,sans-Serif" font-size="14.00">PostUpdateFlush</text>
</a>
</g>
</g>
<g id="clust6" class="cluster">
<title>clusternode_Set(6)</title>
<g id="a_clust6"><a xlink:title="LastFlush">
<polygon fill="white" stroke="black" points="1365.5,-20 1365.5,-59 1445.5,-59 1445.5,-20 1365.5,-20"/>
<text text-anchor="middle" x="1405.5" y="-43.8" font-family="Helvetica,sans-Serif" font-size="14.00">LastFlush</text>
</a>
</g>
</g>
<g id="clust7" class="cluster">
<title>clusternode_Set(7)</title>
<g id="a_clust7"><a xlink:title="First">
<polygon fill="white" stroke="black" points="0,-31 0,-70 46,-70 46,-31 0,-31"/>
<text text-anchor="middle" x="23" y="-54.8" font-family="Helvetica,sans-Serif" font-size="14.00">First</text>
</a>
</g>
</g>
<g id="clust8" class="cluster">
<title>clusternode_Set(8)</title>
<g id="a_clust8"><a xlink:title="PreUpdate">
<polygon fill="white" stroke="black" points="177,-46 177,-85 264,-85 264,-46 177,-46"/>
<text text-anchor="middle" x="220.5" y="-69.8" font-family="Helvetica,sans-Serif" font-size="14.00">PreUpdate</text>
</a>
</g>
</g>
<g id="clust9" class="cluster">
<title>clusternode_Set(9)</title>
<g id="a_clust9"><a xlink:title="StateTransitions">
<polygon fill="white" stroke="black" points="427,-46 427,-85 551,-85 551,-46 427,-46"/>
<text text-anchor="middle" x="489" y="-69.8" font-family="Helvetica,sans-Serif" font-size="14.00">StateTransitions</text>
</a>
</g>
</g>
<g id="clust10" class="cluster">
<title>clusternode_Set(10)</title>
<g id="a_clust10"><a xlink:title="FixedUpdate">
<polygon fill="white" stroke="black" points="571,-46 571,-85 671,-85 671,-46 571,-46"/>
<text text-anchor="middle" x="621" y="-69.8" font-family="Helvetica,sans-Serif" font-size="14.00">FixedUpdate</text>
</a>
</g>
</g>
<g id="clust11" class="cluster">
<title>clusternode_Set(11)</title>
<g id="a_clust11"><a xlink:title="PostUpdate">
<polygon fill="white" stroke="black" points="897,-46 897,-85 990,-85 990,-46 897,-46"/>
<text text-anchor="middle" x="943.5" y="-69.8" font-family="Helvetica,sans-Serif" font-size="14.00">PostUpdate</text>
</a>
</g>
</g>
<g id="clust12" class="cluster">
<title>clusternode_Set(12)</title>
<g id="a_clust12"><a xlink:title="Last">
<polygon fill="white" stroke="black" points="1159,-67 1159,-160 1482,-160 1482,-67 1159,-67"/>
<text text-anchor="middle" x="1320.5" y="-144.8" font-family="Helvetica,sans-Serif" font-size="14.00">Last</text>
</a>
</g>
</g>
<g id="clust13" class="cluster">
<title>clusternode_Set(58)</title>
<g id="a_clust13"><a xlink:title="LoadAssets">
<polygon fill="white" stroke="black" points="66,-8 66,-47 157,-47 157,-8 66,-8"/>
<text text-anchor="middle" x="111.5" y="-31.8" font-family="Helvetica,sans-Serif" font-size="14.00">LoadAssets</text>
</a>
</g>
</g>
<g id="clust14" class="cluster">
<title>clusternode_Set(59)</title>
<g id="a_clust14"><a xlink:title="AssetEvents">
<polygon fill="white" stroke="black" points="1026,-29 1026,-68 1122,-68 1122,-29 1026,-29"/>
<text text-anchor="middle" x="1074" y="-52.8" font-family="Helvetica,sans-Serif" font-size="14.00">AssetEvents</text>
</a>
</g>
</g>
<!-- set_marker_node_Set(0) -->
<!-- set_marker_node_Set(4) -->
<!-- set_marker_node_Set(0)&#45;&gt;set_marker_node_Set(4) -->
<g id="edge7" class="edge">
<title>set_marker_node_Set(0)&#45;&gt;set_marker_node_Set(4)</title>
<g id="a_edge7"><a xlink:title="Update → UpdateFlush">
<path fill="none" stroke="#ee9e44" stroke-width="2" d="M756,-54C758.35,-54 760.77,-54 763.22,-54"/>
<polygon fill="#ee9e44" stroke="#ee9e44" stroke-width="2" points="762.97,-57.5 772.97,-54 762.97,-50.5 762.97,-57.5"/>
</a>
</g>
</g>
<!-- set_marker_node_Set(2) -->
<!-- set_marker_node_Set(8) -->
<!-- set_marker_node_Set(2)&#45;&gt;set_marker_node_Set(8) -->
<g id="edge2" class="edge">
<title>set_marker_node_Set(2)&#45;&gt;set_marker_node_Set(8)</title>
<g id="a_edge2"><a xlink:title="FirstFlush → PreUpdate">
<path fill="none" stroke="#881877" stroke-width="2" d="M152,-59.64C155.98,-59.3 160.07,-58.96 164.17,-58.61"/>
<polygon fill="#881877" stroke="#881877" stroke-width="2" points="164.31,-62.11 173.99,-57.79 163.73,-55.14 164.31,-62.11"/>
</a>
</g>
</g>
<!-- set_marker_node_Set(3) -->
<!-- set_marker_node_Set(9) -->
<!-- set_marker_node_Set(3)&#45;&gt;set_marker_node_Set(9) -->
<g id="edge4" class="edge">
<title>set_marker_node_Set(3)&#45;&gt;set_marker_node_Set(9)</title>
<g id="a_edge4"><a xlink:title="PreUpdateFlush → StateTransitions">
<path fill="none" stroke="#aa3a55" stroke-width="2" d="M407,-54C409.39,-54 411.8,-54 414.21,-54"/>
<polygon fill="#aa3a55" stroke="#aa3a55" stroke-width="2" points="413.98,-57.5 423.98,-54 413.98,-50.5 413.98,-57.5"/>
</a>
</g>
</g>
<!-- set_marker_node_Set(11) -->
<!-- set_marker_node_Set(4)&#45;&gt;set_marker_node_Set(11) -->
<g id="edge8" class="edge">
<title>set_marker_node_Set(4)&#45;&gt;set_marker_node_Set(11)</title>
<g id="a_edge8"><a xlink:title="UpdateFlush → PostUpdate">
<path fill="none" stroke="#663699" stroke-width="2" d="M877,-54C879.43,-54 881.88,-54 884.32,-54"/>
<polygon fill="#663699" stroke="#663699" stroke-width="2" points="883.98,-57.5 893.98,-54 883.98,-50.5 883.98,-57.5"/>
</a>
</g>
</g>
<!-- set_marker_node_Set(5) -->
<!-- set_marker_node_Set(12) -->
<!-- set_marker_node_Set(5)&#45;&gt;set_marker_node_Set(12) -->
<g id="edge10" class="edge">
<title>set_marker_node_Set(5)&#45;&gt;set_marker_node_Set(12)</title>
<g id="a_edge10"><a xlink:title="PostUpdateFlush → Last">
<path fill="none" stroke="#22c2bb" stroke-width="2" d="M1139,-80.35C1141.44,-80.22 1143.91,-80.07 1146.38,-79.93"/>
<polygon fill="#22c2bb" stroke="#22c2bb" stroke-width="2" points="1146.2,-83.45 1155.98,-79.39 1145.8,-76.46 1146.2,-83.45"/>
</a>
</g>
</g>
<!-- set_marker_node_Set(6) -->
<!-- set_marker_node_Set(7) -->
<!-- set_marker_node_Set(7)&#45;&gt;set_marker_node_Set(2) -->
<g id="edge1" class="edge">
<title>set_marker_node_Set(7)&#45;&gt;set_marker_node_Set(2)</title>
<g id="a_edge1"><a xlink:title="First → FirstFlush">
<path fill="none" stroke="#eede00" stroke-width="2" d="M46,-45.34C52.44,-47.18 59.5,-49.18 66,-51 66.73,-51.2 67.47,-51.41 68.21,-51.62"/>
<polygon fill="#eede00" stroke="#eede00" stroke-width="2" points="67,-54.91 77.57,-54.2 68.86,-48.17 67,-54.91"/>
</a>
</g>
</g>
<!-- set_marker_node_Set(58) -->
<!-- set_marker_node_Set(7)&#45;&gt;set_marker_node_Set(58) -->
<g id="edge13" class="edge">
<title>set_marker_node_Set(7)&#45;&gt;set_marker_node_Set(58)</title>
<g id="a_edge13"><a xlink:title="First → LoadAssets">
<path fill="none" stroke="#881877" stroke-width="2" d="M46,-33.12C48.46,-32.46 51.05,-31.77 53.71,-31.05"/>
<polygon fill="#881877" stroke="#881877" stroke-width="2" points="54.32,-34.51 63.08,-28.55 52.51,-27.75 54.32,-34.51"/>
</a>
</g>
</g>
<!-- set_marker_node_Set(8)&#45;&gt;set_marker_node_Set(3) -->
<g id="edge3" class="edge">
<title>set_marker_node_Set(8)&#45;&gt;set_marker_node_Set(3)</title>
<g id="a_edge3"><a xlink:title="PreUpdate → PreUpdateFlush">
<path fill="none" stroke="#00b0cc" stroke-width="2" d="M264,-54C266.39,-54 268.82,-54 271.28,-54"/>
<polygon fill="#00b0cc" stroke="#00b0cc" stroke-width="2" points="270.98,-57.5 280.98,-54 270.98,-50.5 270.98,-57.5"/>
</a>
</g>
</g>
<!-- set_marker_node_Set(10) -->
<!-- set_marker_node_Set(9)&#45;&gt;set_marker_node_Set(10) -->
<g id="edge5" class="edge">
<title>set_marker_node_Set(9)&#45;&gt;set_marker_node_Set(10)</title>
<g id="a_edge5"><a xlink:title="StateTransitions → FixedUpdate">
<path fill="none" stroke="#44d488" stroke-width="2" d="M551,-54C553.39,-54 555.79,-54 558.19,-54"/>
<polygon fill="#44d488" stroke="#44d488" stroke-width="2" points="557.98,-57.5 567.98,-54 557.98,-50.5 557.98,-57.5"/>
</a>
</g>
</g>
<!-- set_marker_node_Set(10)&#45;&gt;set_marker_node_Set(0) -->
<g id="edge6" class="edge">
<title>set_marker_node_Set(10)&#45;&gt;set_marker_node_Set(0)</title>
<g id="a_edge6"><a xlink:title="FixedUpdate → Update">
<path fill="none" stroke="#0090cc" stroke-width="2" d="M671,-54C673.37,-54 675.75,-54 678.11,-54"/>
<polygon fill="#0090cc" stroke="#0090cc" stroke-width="2" points="677.98,-57.5 687.98,-54 677.98,-50.5 677.98,-57.5"/>
</a>
</g>
</g>
<!-- set_marker_node_Set(11)&#45;&gt;set_marker_node_Set(5) -->
<g id="edge9" class="edge">
<title>set_marker_node_Set(11)&#45;&gt;set_marker_node_Set(5)</title>
<g id="a_edge9"><a xlink:title="PostUpdate → PostUpdateFlush">
<path fill="none" stroke="#3363bb" stroke-width="2" d="M990,-67.04C996.69,-68.79 1003.51,-70.5 1010,-72 1011.97,-72.46 1013.98,-72.91 1016.01,-73.35"/>
<polygon fill="#3363bb" stroke="#3363bb" stroke-width="2" points="1015.17,-76.75 1025.68,-75.38 1016.61,-69.9 1015.17,-76.75"/>
</a>
</g>
</g>
<!-- set_marker_node_Set(59) -->
<!-- set_marker_node_Set(11)&#45;&gt;set_marker_node_Set(59) -->
<g id="edge14" class="edge">
<title>set_marker_node_Set(11)&#45;&gt;set_marker_node_Set(59)</title>
<g id="a_edge14"><a xlink:title="PostUpdate → AssetEvents">
<path fill="none" stroke="#00b0cc" stroke-width="2" d="M990,-47.94C997.5,-46.95 1005.36,-45.91 1013.14,-44.89"/>
<polygon fill="#00b0cc" stroke="#00b0cc" stroke-width="2" points="1013.54,-48.37 1023,-43.59 1012.63,-41.43 1013.54,-48.37"/>
</a>
</g>
</g>
<!-- set_marker_node_Set(12)&#45;&gt;set_marker_node_Set(6) -->
<g id="edge11" class="edge">
<title>set_marker_node_Set(12)&#45;&gt;set_marker_node_Set(6)</title>
<g id="a_edge11"><a xlink:title="Last → LastFlush">
<path fill="none" stroke="#99d955" stroke-width="2" d="M1263.85,-67C1288.3,-60.22 1323.95,-50.33 1353.25,-42.21"/>
<polygon fill="#99d955" stroke="#99d955" stroke-width="2" points="1353.89,-45.67 1362.59,-39.62 1352.01,-38.92 1353.89,-45.67"/>
</a>
</g>
</g>
<!-- node_System(57) -->
<g id="node13" class="node">
<title>node_System(57)</title>
<g id="a_node13"><a xlink:title="bevy_winit::system::changed_window">
<polygon fill="white" stroke="black" points="1301,-129 1167,-129 1167,-93 1301,-93 1301,-129"/>
<text text-anchor="middle" x="1234" y="-107.3" font-family="Times,serif" font-size="14.00">changed_window</text>
</a>
</g>
</g>
<!-- node_System(58) -->
<g id="node14" class="node">
<title>node_System(58)</title>
<g id="a_node14"><a xlink:title="bevy_winit::system::despawn_window">
<polygon fill="white" stroke="black" points="1474,-129 1337,-129 1337,-93 1474,-93 1474,-129"/>
<text text-anchor="middle" x="1405.5" y="-107.3" font-family="Times,serif" font-size="14.00">despawn_window</text>
</a>
</g>
</g>
<!-- node_System(57)&#45;&gt;node_System(58) -->
<g id="edge16" class="edge">
<title>node_System(57)&#45;&gt;node_System(58)</title>
<g id="a_edge16"><a xlink:title="SystemTypeSet(changed_window&quot;) → despawn_window">
<path fill="none" stroke="#44d488" stroke-width="2" d="M1301.02,-111C1308.52,-111 1316.23,-111 1323.9,-111"/>
<polygon fill="#44d488" stroke="#44d488" stroke-width="2" points="1323.68,-114.5 1333.68,-111 1323.68,-107.5 1323.68,-114.5"/>
</a>
</g>
</g>
<!-- set_marker_node_Set(58)&#45;&gt;set_marker_node_Set(8) -->
<g id="edge12" class="edge">
<title>set_marker_node_Set(58)&#45;&gt;set_marker_node_Set(8)</title>
<g id="a_edge12"><a xlink:title="LoadAssets → PreUpdate">
<path fill="none" stroke="#eede00" stroke-width="2" d="M157,-31.98C166.21,-35.25 175.77,-38.65 184.54,-41.76"/>
<polygon fill="#eede00" stroke="#eede00" stroke-width="2" points="183.04,-44.94 193.63,-44.99 185.38,-38.35 183.04,-44.94"/>
</a>
</g>
</g>
<!-- set_marker_node_Set(59)&#45;&gt;set_marker_node_Set(12) -->
<g id="edge15" class="edge">
<title>set_marker_node_Set(59)&#45;&gt;set_marker_node_Set(12)</title>
<g id="a_edge15"><a xlink:title="AssetEvents → Last">
<path fill="none" stroke="#aa3a55" stroke-width="2" d="M1122,-48.3C1142.6,-53.26 1166.69,-59.05 1187.16,-63.97"/>
<polygon fill="#aa3a55" stroke="#aa3a55" stroke-width="2" points="1186.26,-67.36 1196.8,-66.29 1187.9,-60.55 1186.26,-67.36"/>
</a>
</g>
</g>
</g>
</svg>
