<?xml version="1.0" encoding="UTF-8" standalone="no"?>
<!DOCTYPE svg PUBLIC "-//W3C//DTD SVG 1.1//EN"
 "http://www.w3.org/Graphics/SVG/1.1/DTD/svg11.dtd">
<!-- Generated by graphviz version 8.0.1 (0)
 -->
<!-- Pages: 1 -->
<svg width="1758pt" height="409pt"
 viewBox="0.00 0.00 1758.00 409.00" xmlns="http://www.w3.org/2000/svg" xmlns:xlink="http://www.w3.org/1999/xlink">
<g id="graph0" class="graph" transform="scale(1 1) rotate(0) translate(4 405)">
<polygon fill="white" stroke="none" points="-4,4 -4,-405 1754,-405 1754,4 -4,4"/>
<g id="clust1" class="cluster">
<title>clusternode_Set(0)</title>
<g id="a_clust1"><a xlink:title="Update">
<path fill="#000000" fill-opacity="0.031373" stroke="#000000" stroke-width="2" stroke-opacity="0.250980" d="M666,-102C666,-102 702,-102 702,-102 708,-102 714,-108 714,-114 714,-114 714,-129 714,-129 714,-135 708,-141 702,-141 702,-141 666,-141 666,-141 660,-141 654,-135 654,-129 654,-129 654,-114 654,-114 654,-108 660,-102 666,-102"/>
<text text-anchor="middle" x="684" y="-125.8" font-family="Helvetica,sans-Serif" font-size="14.00">Update</text>
</a>
</g>
</g>
<g id="clust2" class="cluster">
<title>clusternode_Set(2)</title>
<g id="a_clust2"><a xlink:title="FirstFlush">
<path fill="#000000" fill-opacity="0.031373" stroke="#000000" stroke-width="2" stroke-opacity="0.250980" d="M81,-125C81,-125 133,-125 133,-125 139,-125 145,-131 145,-137 145,-137 145,-152 145,-152 145,-158 139,-164 133,-164 133,-164 81,-164 81,-164 75,-164 69,-158 69,-152 69,-152 69,-137 69,-137 69,-131 75,-125 81,-125"/>
<text text-anchor="middle" x="107" y="-148.8" font-family="Helvetica,sans-Serif" font-size="14.00">FirstFlush</text>
</a>
</g>
</g>
<g id="clust3" class="cluster">
<title>clusternode_Set(3)</title>
<g id="a_clust3"><a xlink:title="PreUpdateFlush">
<path fill="#000000" fill-opacity="0.031373" stroke="#000000" stroke-width="2" stroke-opacity="0.250980" d="M284,-102C284,-102 374,-102 374,-102 380,-102 386,-108 386,-114 386,-114 386,-129 386,-129 386,-135 380,-141 374,-141 374,-141 284,-141 284,-141 278,-141 272,-135 272,-129 272,-129 272,-114 272,-114 272,-108 278,-102 284,-102"/>
<text text-anchor="middle" x="329" y="-125.8" font-family="Helvetica,sans-Serif" font-size="14.00">PreUpdateFlush</text>
</a>
</g>
</g>
<g id="clust4" class="cluster">
<title>clusternode_Set(4)</title>
<g id="a_clust4"><a xlink:title="UpdateFlush">
<path fill="#000000" fill-opacity="0.031373" stroke="#000000" stroke-width="2" stroke-opacity="0.250980" d="M746,-102C746,-102 815,-102 815,-102 821,-102 827,-108 827,-114 827,-114 827,-129 827,-129 827,-135 821,-141 815,-141 815,-141 746,-141 746,-141 740,-141 734,-135 734,-129 734,-129 734,-114 734,-114 734,-108 740,-102 746,-102"/>
<text text-anchor="middle" x="780.5" y="-125.8" font-family="Helvetica,sans-Serif" font-size="14.00">UpdateFlush</text>
</a>
</g>
</g>
<g id="clust5" class="cluster">
<title>clusternode_Set(5)</title>
<g id="a_clust5"><a xlink:title="PostUpdateFlush">
<path fill="#000000" fill-opacity="0.031373" stroke="#000000" stroke-width="2" stroke-opacity="0.250980" d="M1115,-55C1115,-55 1211,-55 1211,-55 1217,-55 1223,-61 1223,-67 1223,-67 1223,-82 1223,-82 1223,-88 1217,-94 1211,-94 1211,-94 1115,-94 1115,-94 1109,-94 1103,-88 1103,-82 1103,-82 1103,-67 1103,-67 1103,-61 1109,-55 1115,-55"/>
<text text-anchor="middle" x="1163" y="-78.8" font-family="Helvetica,sans-Serif" font-size="14.00">PostUpdateFlush</text>
</a>
</g>
</g>
<g id="clust6" class="cluster">
<title>clusternode_Set(6)</title>
<g id="a_clust6"><a xlink:title="LastFlush">
<path fill="#000000" fill-opacity="0.031373" stroke="#000000" stroke-width="2" stroke-opacity="0.250980" d="M1610.5,-31C1610.5,-31 1662.5,-31 1662.5,-31 1668.5,-31 1674.5,-37 1674.5,-43 1674.5,-43 1674.5,-58 1674.5,-58 1674.5,-64 1668.5,-70 1662.5,-70 1662.5,-70 1610.5,-70 1610.5,-70 1604.5,-70 1598.5,-64 1598.5,-58 1598.5,-58 1598.5,-43 1598.5,-43 1598.5,-37 1604.5,-31 1610.5,-31"/>
<text text-anchor="middle" x="1636.5" y="-54.8" font-family="Helvetica,sans-Serif" font-size="14.00">LastFlush</text>
</a>
</g>
</g>
<g id="clust7" class="cluster">
<title>clusternode_Set(7)</title>
<g id="a_clust7"><a xlink:title="First">
<path fill="#000000" fill-opacity="0.031373" stroke="#000000" stroke-width="2" stroke-opacity="0.250980" d="M12,-101C12,-101 31,-101 31,-101 37,-101 43,-107 43,-113 43,-113 43,-128 43,-128 43,-134 37,-140 31,-140 31,-140 12,-140 12,-140 6,-140 0,-134 0,-128 0,-128 0,-113 0,-113 0,-107 6,-101 12,-101"/>
<text text-anchor="middle" x="21.5" y="-124.8" font-family="Helvetica,sans-Serif" font-size="14.00">First</text>
</a>
</g>
</g>
<g id="clust8" class="cluster">
<title>clusternode_Set(8)</title>
<g id="a_clust8"><a xlink:title="PreUpdate">
<path fill="#000000" fill-opacity="0.031373" stroke="#000000" stroke-width="2" stroke-opacity="0.250980" d="M183,-102C183,-102 240,-102 240,-102 246,-102 252,-108 252,-114 252,-114 252,-129 252,-129 252,-135 246,-141 240,-141 240,-141 183,-141 183,-141 177,-141 171,-135 171,-129 171,-129 171,-114 171,-114 171,-108 177,-102 183,-102"/>
<text text-anchor="middle" x="211.5" y="-125.8" font-family="Helvetica,sans-Serif" font-size="14.00">PreUpdate</text>
</a>
</g>
</g>
<g id="clust9" class="cluster">
<title>clusternode_Set(9)</title>
<g id="a_clust9"><a xlink:title="StateTransitions">
<path fill="#000000" fill-opacity="0.031373" stroke="#000000" stroke-width="2" stroke-opacity="0.250980" d="M418,-102C418,-102 509,-102 509,-102 515,-102 521,-108 521,-114 521,-114 521,-129 521,-129 521,-135 515,-141 509,-141 509,-141 418,-141 418,-141 412,-141 406,-135 406,-129 406,-129 406,-114 406,-114 406,-108 412,-102 418,-102"/>
<text text-anchor="middle" x="463.5" y="-125.8" font-family="Helvetica,sans-Serif" font-size="14.00">StateTransitions</text>
</a>
</g>
</g>
<g id="clust10" class="cluster">
<title>clusternode_Set(10)</title>
<g id="a_clust10"><a xlink:title="FixedUpdate">
<path fill="#000000" fill-opacity="0.031373" stroke="#000000" stroke-width="2" stroke-opacity="0.250980" d="M553,-102C553,-102 622,-102 622,-102 628,-102 634,-108 634,-114 634,-114 634,-129 634,-129 634,-135 628,-141 622,-141 622,-141 553,-141 553,-141 547,-141 541,-135 541,-129 541,-129 541,-114 541,-114 541,-108 547,-102 553,-102"/>
<text text-anchor="middle" x="587.5" y="-125.8" font-family="Helvetica,sans-Serif" font-size="14.00">FixedUpdate</text>
</a>
</g>
</g>
<g id="clust11" class="cluster">
<title>clusternode_Set(11)</title>
<g id="a_clust11"><a xlink:title="PostUpdate">
<path fill="#000000" fill-opacity="0.031373" stroke="#000000" stroke-width="2" stroke-opacity="0.250980" d="M858.5,-102C858.5,-102 1730,-102 1730,-102 1736,-102 1742,-108 1742,-114 1742,-114 1742,-381 1742,-381 1742,-387 1736,-393 1730,-393 1730,-393 858.5,-393 858.5,-393 852.5,-393 846.5,-387 846.5,-381 846.5,-381 846.5,-114 846.5,-114 846.5,-108 852.5,-102 858.5,-102"/>
<text text-anchor="middle" x="1294.25" y="-377.8" font-family="Helvetica,sans-Serif" font-size="14.00">PostUpdate</text>
</a>
</g>
</g>
<g id="clust12" class="cluster">
<title>clusternode_Set(20)</title>
<g id="a_clust12"><a xlink:title="TransformPropagate">
<path fill="#000000" fill-opacity="0.031373" stroke="#000000" stroke-width="2" stroke-opacity="0.250980" d="M872.5,-318C872.5,-318 989.5,-318 989.5,-318 995.5,-318 1001.5,-324 1001.5,-330 1001.5,-330 1001.5,-345 1001.5,-345 1001.5,-351 995.5,-357 989.5,-357 989.5,-357 872.5,-357 872.5,-357 866.5,-357 860.5,-351 860.5,-345 860.5,-345 860.5,-330 860.5,-330 860.5,-324 866.5,-318 872.5,-318"/>
<text text-anchor="middle" x="931" y="-341.8" font-family="Helvetica,sans-Serif" font-size="14.00">TransformPropagate</text>
</a>
</g>
</g>
<g id="clust13" class="cluster">
<title>clusternode_Set(82)</title>
<g id="a_clust13"><a xlink:title="CameraUpdateSystem">
<path fill="#000000" fill-opacity="0.031373" stroke="#000000" stroke-width="2" stroke-opacity="0.250980" d="M866.5,-259C866.5,-259 995.5,-259 995.5,-259 1001.5,-259 1007.5,-265 1007.5,-271 1007.5,-271 1007.5,-286 1007.5,-286 1007.5,-292 1001.5,-298 995.5,-298 995.5,-298 866.5,-298 866.5,-298 860.5,-298 854.5,-292 854.5,-286 854.5,-286 854.5,-271 854.5,-271 854.5,-265 860.5,-259 866.5,-259"/>
<text text-anchor="middle" x="931" y="-282.8" font-family="Helvetica,sans-Serif" font-size="14.00">CameraUpdateSystem</text>
</a>
</g>
</g>
<g id="clust14" class="cluster">
<title>clusternode_Set(87)</title>
<g id="a_clust14"><a xlink:title="CalculateBoundsFlush">
<path fill="#000000" fill-opacity="0.031373" stroke="#000000" stroke-width="2" stroke-opacity="0.250980" d="M1347,-135C1347,-135 1475,-135 1475,-135 1481,-135 1487,-141 1487,-147 1487,-147 1487,-162 1487,-162 1487,-168 1481,-174 1475,-174 1475,-174 1347,-174 1347,-174 1341,-174 1335,-168 1335,-162 1335,-162 1335,-147 1335,-147 1335,-141 1341,-135 1347,-135"/>
<text text-anchor="middle" x="1411" y="-158.8" font-family="Helvetica,sans-Serif" font-size="14.00">CalculateBoundsFlush</text>
</a>
</g>
</g>
<g id="clust15" class="cluster">
<title>clusternode_Set(91)</title>
<g id="a_clust15"><a xlink:title="CheckVisibility">
<path fill="#000000" fill-opacity="0.031373" stroke="#000000" stroke-width="2" stroke-opacity="0.250980" d="M890.5,-212C890.5,-212 970.5,-212 970.5,-212 976.5,-212 982.5,-218 982.5,-224 982.5,-224 982.5,-239 982.5,-239 982.5,-245 976.5,-251 970.5,-251 970.5,-251 890.5,-251 890.5,-251 884.5,-251 878.5,-245 878.5,-239 878.5,-239 878.5,-224 878.5,-224 878.5,-218 884.5,-212 890.5,-212"/>
<text text-anchor="middle" x="930.5" y="-235.8" font-family="Helvetica,sans-Serif" font-size="14.00">CheckVisibility</text>
</a>
</g>
</g>
<g id="clust16" class="cluster">
<title>clusternode_Set(137)</title>
<g id="a_clust16"><a xlink:title="AddClusters">
<path fill="#000000" fill-opacity="0.031373" stroke="#000000" stroke-width="2" stroke-opacity="0.250980" d="M888,-118C888,-118 973,-118 973,-118 979,-118 985,-124 985,-130 985,-130 985,-192 985,-192 985,-198 979,-204 973,-204 973,-204 888,-204 888,-204 882,-204 876,-198 876,-192 876,-192 876,-130 876,-130 876,-124 882,-118 888,-118"/>
<text text-anchor="middle" x="930.5" y="-188.8" font-family="Helvetica,sans-Serif" font-size="14.00">AddClusters</text>
</a>
</g>
</g>
<g id="clust17" class="cluster">
<title>clusternode_Set(139)</title>
<g id="a_clust17"><a xlink:title="AssignLightsToClusters">
<path fill="#000000" fill-opacity="0.031373" stroke="#000000" stroke-width="2" stroke-opacity="0.250980" d="M1083.5,-133C1083.5,-133 1242.5,-133 1242.5,-133 1248.5,-133 1254.5,-139 1254.5,-145 1254.5,-145 1254.5,-207 1254.5,-207 1254.5,-213 1248.5,-219 1242.5,-219 1242.5,-219 1083.5,-219 1083.5,-219 1077.5,-219 1071.5,-213 1071.5,-207 1071.5,-207 1071.5,-145 1071.5,-145 1071.5,-139 1077.5,-133 1083.5,-133"/>
<text text-anchor="middle" x="1163" y="-203.8" font-family="Helvetica,sans-Serif" font-size="14.00">AssignLightsToClusters</text>
</a>
</g>
</g>
<g id="clust18" class="cluster">
<title>clusternode_Set(140)</title>
<g id="a_clust18"><a xlink:title="CheckLightVisibility">
<path fill="#000000" fill-opacity="0.031373" stroke="#000000" stroke-width="2" stroke-opacity="0.250980" d="M1551,-113C1551,-113 1722,-113 1722,-113 1728,-113 1734,-119 1734,-125 1734,-125 1734,-187 1734,-187 1734,-193 1728,-199 1722,-199 1722,-199 1551,-199 1551,-199 1545,-199 1539,-193 1539,-187 1539,-187 1539,-125 1539,-125 1539,-119 1545,-113 1551,-113"/>
<text text-anchor="middle" x="1636.5" y="-183.8" font-family="Helvetica,sans-Serif" font-size="14.00">CheckLightVisibility</text>
</a>
</g>
</g>
<g id="clust19" class="cluster">
<title>clusternode_Set(141)</title>
<g id="a_clust19"><a xlink:title="UpdateDirectionalLightCascades">
<path fill="#000000" fill-opacity="0.031373" stroke="#000000" stroke-width="2" stroke-opacity="0.250980" d="M1055,-227C1055,-227 1271,-227 1271,-227 1277,-227 1283,-233 1283,-239 1283,-239 1283,-301 1283,-301 1283,-307 1277,-313 1271,-313 1271,-313 1055,-313 1055,-313 1049,-313 1043,-307 1043,-301 1043,-301 1043,-239 1043,-239 1043,-233 1049,-227 1055,-227"/>
<text text-anchor="middle" x="1163" y="-297.8" font-family="Helvetica,sans-Serif" font-size="14.00">UpdateDirectionalLightCascades</text>
</a>
</g>
</g>
<g id="clust20" class="cluster">
<title>clusternode_Set(142)</title>
<g id="a_clust20"><a xlink:title="UpdateLightFrusta">
<path fill="#000000" fill-opacity="0.031373" stroke="#000000" stroke-width="2" stroke-opacity="0.250980" d="M1315,-182C1315,-182 1507,-182 1507,-182 1513,-182 1519,-188 1519,-194 1519,-194 1519,-350 1519,-350 1519,-356 1513,-362 1507,-362 1507,-362 1315,-362 1315,-362 1309,-362 1303,-356 1303,-350 1303,-350 1303,-194 1303,-194 1303,-188 1309,-182 1315,-182"/>
<text text-anchor="middle" x="1411" y="-346.8" font-family="Helvetica,sans-Serif" font-size="14.00">UpdateLightFrusta</text>
</a>
</g>
</g>
<g id="clust21" class="cluster">
<title>clusternode_Set(12)</title>
<g id="a_clust21"><a xlink:title="Last">
<path fill="#000000" fill-opacity="0.031373" stroke="#000000" stroke-width="2" stroke-opacity="0.250980" d="M1402,-31C1402,-31 1421,-31 1421,-31 1427,-31 1433,-37 1433,-43 1433,-43 1433,-58 1433,-58 1433,-64 1427,-70 1421,-70 1421,-70 1402,-70 1402,-70 1396,-70 1390,-64 1390,-58 1390,-58 1390,-43 1390,-43 1390,-37 1396,-31 1402,-31"/>
<text text-anchor="middle" x="1411.5" y="-54.8" font-family="Helvetica,sans-Serif" font-size="14.00">Last</text>
</a>
</g>
</g>
<g id="clust22" class="cluster">
<title>clusternode_Set(59)</title>
<g id="a_clust22"><a xlink:title="LoadAssets">
<path fill="#000000" fill-opacity="0.031373" stroke="#000000" stroke-width="2" stroke-opacity="0.250980" d="M75,-78C75,-78 139,-78 139,-78 145,-78 151,-84 151,-90 151,-90 151,-105 151,-105 151,-111 145,-117 139,-117 139,-117 75,-117 75,-117 69,-117 63,-111 63,-105 63,-105 63,-90 63,-90 63,-84 69,-78 75,-78"/>
<text text-anchor="middle" x="107" y="-101.8" font-family="Helvetica,sans-Serif" font-size="14.00">LoadAssets</text>
</a>
</g>
</g>
<g id="clust23" class="cluster">
<title>clusternode_Set(60)</title>
<g id="a_clust23"><a xlink:title="AssetEvents">
<path fill="#000000" fill-opacity="0.031373" stroke="#000000" stroke-width="2" stroke-opacity="0.250980" d="M1129,-8C1129,-8 1197,-8 1197,-8 1203,-8 1209,-14 1209,-20 1209,-20 1209,-35 1209,-35 1209,-41 1203,-47 1197,-47 1197,-47 1129,-47 1129,-47 1123,-47 1117,-41 1117,-35 1117,-35 1117,-20 1117,-20 1117,-14 1123,-8 1129,-8"/>
<text text-anchor="middle" x="1163" y="-31.8" font-family="Helvetica,sans-Serif" font-size="14.00">AssetEvents</text>
</a>
</g>
</g>
<!-- set_marker_node_Set(0) -->
<!-- set_marker_node_Set(4) -->
<!-- set_marker_node_Set(0)&#45;&gt;set_marker_node_Set(4) -->
<g id="edge7" class="edge">
<title>set_marker_node_Set(0)&#45;&gt;set_marker_node_Set(4)</title>
<g id="a_edge7"><a xlink:title="Update → UpdateFlush">
<path fill="none" stroke="#ee9e44" stroke-width="2" d="M714,-110C716.33,-110 718.74,-110 721.18,-110"/>
<polygon fill="#ee9e44" stroke="#ee9e44" stroke-width="2" points="721,-113.5 731,-110 721,-106.5 721,-113.5"/>
</a>
</g>
</g>
<!-- set_marker_node_Set(2) -->
<!-- set_marker_node_Set(8) -->
<!-- set_marker_node_Set(2)&#45;&gt;set_marker_node_Set(8) -->
<g id="edge2" class="edge">
<title>set_marker_node_Set(2)&#45;&gt;set_marker_node_Set(8)</title>
<g id="a_edge2"><a xlink:title="FirstFlush → PreUpdate">
<path fill="none" stroke="#881877" stroke-width="2" d="M143.47,-125C148.38,-123.89 153.51,-122.74 158.64,-121.58"/>
<polygon fill="#881877" stroke="#881877" stroke-width="2" points="160.02,-124.41 169,-118.79 158.48,-117.58 160.02,-124.41"/>
</a>
</g>
</g>
<!-- set_marker_node_Set(3) -->
<!-- set_marker_node_Set(9) -->
<!-- set_marker_node_Set(3)&#45;&gt;set_marker_node_Set(9) -->
<g id="edge4" class="edge">
<title>set_marker_node_Set(3)&#45;&gt;set_marker_node_Set(9)</title>
<g id="a_edge4"><a xlink:title="PreUpdateFlush → StateTransitions">
<path fill="none" stroke="#aa3a55" stroke-width="2" d="M386,-110C388.39,-110 390.79,-110 393.21,-110"/>
<polygon fill="#aa3a55" stroke="#aa3a55" stroke-width="2" points="393,-113.5 403,-110 393,-106.5 393,-113.5"/>
</a>
</g>
</g>
<!-- set_marker_node_Set(11) -->
<!-- set_marker_node_Set(4)&#45;&gt;set_marker_node_Set(11) -->
<g id="edge8" class="edge">
<title>set_marker_node_Set(4)&#45;&gt;set_marker_node_Set(11)</title>
<g id="a_edge8"><a xlink:title="UpdateFlush → PostUpdate">
<path fill="none" stroke="#663699" stroke-width="2" d="M827,-110C829.17,-110 831.37,-110 833.6,-110"/>
<polygon fill="#663699" stroke="#663699" stroke-width="2" points="833.5,-113.5 843.5,-110 833.5,-106.5 833.5,-113.5"/>
</a>
</g>
</g>
<!-- set_marker_node_Set(5) -->
<!-- set_marker_node_Set(12) -->
<!-- set_marker_node_Set(5)&#45;&gt;set_marker_node_Set(12) -->
<g id="edge10" class="edge">
<title>set_marker_node_Set(5)&#45;&gt;set_marker_node_Set(12)</title>
<g id="a_edge10"><a xlink:title="PostUpdateFlush → Last">
<path fill="none" stroke="#22c2bb" stroke-width="2" d="M1223,-57.24C1271.28,-52.53 1337.79,-46.05 1377.1,-42.21"/>
<polygon fill="#22c2bb" stroke="#22c2bb" stroke-width="2" points="1377.39,-45.41 1387,-40.95 1376.71,-38.44 1377.39,-45.41"/>
</a>
</g>
</g>
<!-- set_marker_node_Set(6) -->
<!-- set_marker_node_Set(7) -->
<!-- set_marker_node_Set(7)&#45;&gt;set_marker_node_Set(2) -->
<g id="edge1" class="edge">
<title>set_marker_node_Set(7)&#45;&gt;set_marker_node_Set(2)</title>
<g id="a_edge1"><a xlink:title="First → FirstFlush">
<path fill="none" stroke="#eede00" stroke-width="2" d="M43,-115C49.88,-116.97 57.78,-119.22 65.61,-121.46"/>
<polygon fill="#eede00" stroke="#eede00" stroke-width="2" points="65.44,-125.62 76.01,-125 67.36,-118.89 65.44,-125.62"/>
</a>
</g>
</g>
<!-- set_marker_node_Set(59) -->
<!-- set_marker_node_Set(7)&#45;&gt;set_marker_node_Set(59) -->
<g id="edge13" class="edge">
<title>set_marker_node_Set(7)&#45;&gt;set_marker_node_Set(59)</title>
<g id="a_edge13"><a xlink:title="First → LoadAssets">
<path fill="none" stroke="#881877" stroke-width="2" d="M43,-103.25C45.41,-102.59 47.94,-101.9 50.55,-101.18"/>
<polygon fill="#881877" stroke="#881877" stroke-width="2" points="52.28,-103.79 61,-97.77 50.43,-97.04 52.28,-103.79"/>
</a>
</g>
</g>
<!-- set_marker_node_Set(8)&#45;&gt;set_marker_node_Set(3) -->
<g id="edge3" class="edge">
<title>set_marker_node_Set(8)&#45;&gt;set_marker_node_Set(3)</title>
<g id="a_edge3"><a xlink:title="PreUpdate → PreUpdateFlush">
<path fill="none" stroke="#00b0cc" stroke-width="2" d="M252,-110C254.38,-110 256.8,-110 259.25,-110"/>
<polygon fill="#00b0cc" stroke="#00b0cc" stroke-width="2" points="259,-113.5 269,-110 259,-106.5 259,-113.5"/>
</a>
</g>
</g>
<!-- set_marker_node_Set(10) -->
<!-- set_marker_node_Set(9)&#45;&gt;set_marker_node_Set(10) -->
<g id="edge5" class="edge">
<title>set_marker_node_Set(9)&#45;&gt;set_marker_node_Set(10)</title>
<g id="a_edge5"><a xlink:title="StateTransitions → FixedUpdate">
<path fill="none" stroke="#44d488" stroke-width="2" d="M521,-110C523.35,-110 525.71,-110 528.07,-110"/>
<polygon fill="#44d488" stroke="#44d488" stroke-width="2" points="528,-113.5 538,-110 528,-106.5 528,-113.5"/>
</a>
</g>
</g>
<!-- set_marker_node_Set(10)&#45;&gt;set_marker_node_Set(0) -->
<g id="edge6" class="edge">
<title>set_marker_node_Set(10)&#45;&gt;set_marker_node_Set(0)</title>
<g id="a_edge6"><a xlink:title="FixedUpdate → Update">
<path fill="none" stroke="#0090cc" stroke-width="2" d="M634,-110C636.35,-110 638.7,-110 641.03,-110"/>
<polygon fill="#0090cc" stroke="#0090cc" stroke-width="2" points="641,-113.5 651,-110 641,-106.5 641,-113.5"/>
</a>
</g>
</g>
<!-- set_marker_node_Set(11)&#45;&gt;set_marker_node_Set(5) -->
<g id="edge9" class="edge">
<title>set_marker_node_Set(11)&#45;&gt;set_marker_node_Set(5)</title>
<g id="a_edge9"><a xlink:title="PostUpdate → PostUpdateFlush">
<path fill="none" stroke="#3363bb" stroke-width="2" d="M970.73,-102C1003.49,-95.32 1051.05,-85.62 1090.55,-77.57"/>
<polygon fill="#3363bb" stroke="#3363bb" stroke-width="2" points="1091.9,-80.46 1101,-75.03 1090.51,-73.6 1091.9,-80.46"/>
</a>
</g>
</g>
<!-- set_marker_node_Set(60) -->
<!-- set_marker_node_Set(11)&#45;&gt;set_marker_node_Set(60) -->
<g id="edge14" class="edge">
<title>set_marker_node_Set(11)&#45;&gt;set_marker_node_Set(60)</title>
<g id="a_edge14"><a xlink:title="PostUpdate → AssetEvents">
<path fill="none" stroke="#00b0cc" stroke-width="2" d="M945.24,-102C965.94,-90.18 1006.57,-67.85 1043,-53 1062.73,-44.96 1084.9,-37.63 1104.7,-31.65"/>
<polygon fill="#00b0cc" stroke="#00b0cc" stroke-width="2" points="1106.4,-34.21 1115,-28.02 1104.42,-27.49 1106.4,-34.21"/>
</a>
</g>
</g>
<!-- set_marker_node_Set(20) -->
<!-- node_System(115) -->
<g id="node19" class="node">
<title>node_System(115)</title>
<g id="a_node19"><a xlink:title="bevy_pbr::light::assign_lights_to_clusters">
<polygon fill="#abd5fc" stroke="#48a3f8" points="1246.5,-177 1079.5,-177 1079.5,-141 1246.5,-141 1246.5,-177"/>
<text text-anchor="middle" x="1163" y="-155.3" font-family="Helvetica,sans-Serif" font-size="14.00" fill="#011a31">assign_lights_to_clusters</text>
</a>
</g>
</g>
<!-- set_marker_node_Set(20)&#45;&gt;node_System(115) -->
<g id="edge16" class="edge">
<title>set_marker_node_Set(20)&#45;&gt;node_System(115)</title>
<g id="a_edge16"><a xlink:title="TransformPropagate → assign_lights_to_clusters">
<path fill="none" stroke="#44d488" stroke-width="2" d="M977.22,-318C988.33,-314.15 999.34,-308.45 1007.5,-300 1045.25,-260.91 1002.78,-219.55 1043,-183 1049.97,-176.67 1058.13,-171.81 1066.86,-168.11"/>
<polygon fill="#44d488" stroke="#44d488" stroke-width="2" points="1068.81,-171.42 1077.05,-164.76 1066.46,-164.83 1068.81,-171.42"/>
</a>
</g>
</g>
<!-- node_System(120) -->
<g id="node21" class="node">
<title>node_System(120)</title>
<g id="a_node21"><a xlink:title="bevy_pbr::light::check_light_mesh_visibility">
<polygon fill="#abd5fc" stroke="#48a3f8" points="1726,-157 1547,-157 1547,-121 1726,-121 1726,-157"/>
<text text-anchor="middle" x="1636.5" y="-135.3" font-family="Helvetica,sans-Serif" font-size="14.00" fill="#011a31">check_light_mesh_visibility</text>
</a>
</g>
</g>
<!-- set_marker_node_Set(20)&#45;&gt;node_System(120) -->
<g id="edge29" class="edge">
<title>set_marker_node_Set(20)&#45;&gt;node_System(120)</title>
<g id="a_edge29"><a xlink:title="TransformPropagate → check_light_mesh_visibility">
<path fill="none" stroke="#ee9e44" stroke-width="2" d="M1001.5,-326.14C1101.09,-326 1272.85,-324.39 1283,-315 1312.87,-287.38 1272.7,-160.15 1303,-133 1319.97,-117.79 1442.51,-123.63 1533.93,-130.33"/>
<polygon fill="#ee9e44" stroke="#ee9e44" stroke-width="2" points="1533.65,-134.05 1543.89,-131.3 1534.18,-127.07 1533.65,-134.05"/>
</a>
</g>
</g>
<!-- node_System(116) -->
<g id="node23" class="node">
<title>node_System(116)</title>
<g id="a_node23"><a xlink:title="bevy_pbr::light::update_directional_light_cascades">
<polygon fill="#abd5fc" stroke="#48a3f8" points="1275,-271 1051,-271 1051,-235 1275,-235 1275,-271"/>
<text text-anchor="middle" x="1163" y="-249.3" font-family="Helvetica,sans-Serif" font-size="14.00" fill="#011a31">update_directional_light_cascades</text>
</a>
</g>
</g>
<!-- set_marker_node_Set(20)&#45;&gt;node_System(116) -->
<g id="edge19" class="edge">
<title>set_marker_node_Set(20)&#45;&gt;node_System(116)</title>
<g id="a_edge19"><a xlink:title="TransformPropagate → update_directional_light_cascades">
<path fill="none" stroke="#663699" stroke-width="2" d="M960.22,-318C974.74,-313.51 992.42,-307.33 1007.5,-300 1024.41,-291.78 1025.59,-284.09 1043,-277 1044.09,-276.56 1045.19,-276.12 1046.29,-275.69"/>
<polygon fill="#663699" stroke="#663699" stroke-width="2" points="1048.15,-279.04 1056.41,-272.4 1045.82,-272.44 1048.15,-279.04"/>
</a>
</g>
</g>
<!-- node_System(117) -->
<g id="node25" class="node">
<title>node_System(117)</title>
<g id="a_node25"><a xlink:title="bevy_pbr::light::update_directional_light_frusta">
<polygon fill="#abd5fc" stroke="#48a3f8" points="1511,-226 1311,-226 1311,-190 1511,-190 1511,-226"/>
<text text-anchor="middle" x="1411" y="-204.3" font-family="Helvetica,sans-Serif" font-size="14.00" fill="#011a31">update_directional_light_frusta</text>
</a>
</g>
</g>
<!-- set_marker_node_Set(20)&#45;&gt;node_System(117) -->
<g id="edge22" class="edge">
<title>set_marker_node_Set(20)&#45;&gt;node_System(117)</title>
<g id="a_edge22"><a xlink:title="TransformPropagate → update_directional_light_frusta">
<path fill="none" stroke="#99d955" stroke-width="2" d="M1001.5,-330.42C1097.8,-335.81 1261.74,-342.22 1283,-325 1312.9,-300.78 1280.28,-268.48 1302.48,-235.22"/>
<polygon fill="#99d955" stroke="#99d955" stroke-width="2" points="1306.02,-237.26 1309.77,-227.35 1300.66,-232.76 1306.02,-237.26"/>
</a>
</g>
</g>
<!-- node_System(118) -->
<g id="node26" class="node">
<title>node_System(118)</title>
<g id="a_node26"><a xlink:title="bevy_pbr::light::update_point_light_frusta">
<polygon fill="#abd5fc" stroke="#48a3f8" points="1495,-273 1327,-273 1327,-237 1495,-237 1495,-273"/>
<text text-anchor="middle" x="1411" y="-251.3" font-family="Helvetica,sans-Serif" font-size="14.00" fill="#011a31">update_point_light_frusta</text>
</a>
</g>
</g>
<!-- set_marker_node_Set(20)&#45;&gt;node_System(118) -->
<g id="edge24" class="edge">
<title>set_marker_node_Set(20)&#45;&gt;node_System(118)</title>
<g id="a_edge24"><a xlink:title="TransformPropagate → update_point_light_frusta">
<path fill="none" stroke="#881877" stroke-width="2" d="M1001.5,-334.69C1015.24,-336.07 1029.55,-337.28 1043,-338 1096.26,-340.86 1239.65,-369.07 1283,-338 1305.5,-321.87 1282.41,-297.51 1303,-279 1306.75,-275.62 1310.88,-272.69 1315.26,-270.14"/>
<polygon fill="#881877" stroke="#881877" stroke-width="2" points="1317.17,-273.12 1324.6,-265.57 1314.08,-266.84 1317.17,-273.12"/>
</a>
</g>
</g>
<!-- node_System(119) -->
<g id="node27" class="node">
<title>node_System(119)</title>
<g id="a_node27"><a xlink:title="bevy_pbr::light::update_spot_light_frusta">
<polygon fill="#abd5fc" stroke="#48a3f8" points="1493,-320 1329,-320 1329,-284 1493,-284 1493,-320"/>
<text text-anchor="middle" x="1411" y="-298.3" font-family="Helvetica,sans-Serif" font-size="14.00" fill="#011a31">update_spot_light_frusta</text>
</a>
</g>
</g>
<!-- set_marker_node_Set(20)&#45;&gt;node_System(119) -->
<g id="edge26" class="edge">
<title>set_marker_node_Set(20)&#45;&gt;node_System(119)</title>
<g id="a_edge26"><a xlink:title="TransformPropagate → update_spot_light_frusta">
<path fill="none" stroke="#aa3a55" stroke-width="2" d="M1001.5,-344.16C1015.17,-347.01 1029.46,-349.5 1043,-351 1149.02,-362.74 1186.86,-397.21 1283,-351 1295.82,-344.84 1290.93,-333.54 1303,-326 1307.28,-323.32 1311.83,-320.95 1316.53,-318.83"/>
<polygon fill="#aa3a55" stroke="#aa3a55" stroke-width="2" points="1318.49,-322.03 1326.5,-315.1 1315.91,-315.52 1318.49,-322.03"/>
</a>
</g>
</g>
<!-- set_marker_node_Set(82) -->
<!-- set_marker_node_Set(82)&#45;&gt;node_System(115) -->
<g id="edge18" class="edge">
<title>set_marker_node_Set(82)&#45;&gt;node_System(115)</title>
<g id="a_edge18"><a xlink:title="CameraUpdateSystem → assign_lights_to_clusters">
<path fill="none" stroke="#ee9e44" stroke-width="2" d="M997.42,-259C1000.98,-257.32 1004.38,-255.33 1007.5,-253 1035.44,-232.12 1015.23,-204.12 1043,-183 1050.18,-177.54 1058.29,-173.23 1066.82,-169.84"/>
<polygon fill="#ee9e44" stroke="#ee9e44" stroke-width="2" points="1068.76,-172.2 1077.09,-165.65 1066.5,-165.57 1068.76,-172.2"/>
</a>
</g>
</g>
<!-- set_marker_node_Set(82)&#45;&gt;node_System(116) -->
<g id="edge20" class="edge">
<title>set_marker_node_Set(82)&#45;&gt;node_System(116)</title>
<g id="a_edge20"><a xlink:title="CameraUpdateSystem → update_directional_light_cascades">
<path fill="none" stroke="#3363bb" stroke-width="2" d="M1007.5,-262.38C1017.36,-261.78 1027.66,-261.16 1038.06,-260.53"/>
<polygon fill="#3363bb" stroke="#3363bb" stroke-width="2" points="1038.01,-263.86 1047.78,-259.76 1037.59,-256.87 1038.01,-263.86"/>
</a>
</g>
</g>
<!-- set_marker_node_Set(87) -->
<!-- set_marker_node_Set(87)&#45;&gt;node_System(120) -->
<g id="edge28" class="edge">
<title>set_marker_node_Set(87)&#45;&gt;node_System(120)</title>
<g id="a_edge28"><a xlink:title="CalculateBoundsFlush → check_light_mesh_visibility">
<path fill="none" stroke="#0090cc" stroke-width="2" d="M1487,-141.66C1501.97,-141.39 1517.93,-141.1 1533.63,-140.82"/>
<polygon fill="#0090cc" stroke="#0090cc" stroke-width="2" points="1533.59,-144.27 1543.53,-140.59 1533.47,-137.27 1533.59,-144.27"/>
</a>
</g>
</g>
<!-- set_marker_node_Set(91) -->
<!-- set_marker_node_Set(91)&#45;&gt;node_System(115) -->
<g id="edge17" class="edge">
<title>set_marker_node_Set(91)&#45;&gt;node_System(115)</title>
<g id="a_edge17"><a xlink:title="CheckVisibility → assign_lights_to_clusters">
<path fill="none" stroke="#0090cc" stroke-width="2" d="M982.5,-213.47C991.01,-211.57 999.63,-209.13 1007.5,-206 1024.97,-199.05 1025.59,-190.09 1043,-183 1050.58,-179.91 1058.6,-177.21 1066.76,-174.84"/>
<polygon fill="#0090cc" stroke="#0090cc" stroke-width="2" points="1068.44,-177.48 1077.19,-171.51 1066.62,-170.72 1068.44,-177.48"/>
</a>
</g>
</g>
<!-- set_marker_node_Set(91)&#45;&gt;node_System(120) -->
<g id="edge31" class="edge">
<title>set_marker_node_Set(91)&#45;&gt;node_System(120)</title>
<g id="a_edge31"><a xlink:title="CheckVisibility → check_light_mesh_visibility">
<path fill="none" stroke="#3363bb" stroke-width="2" d="M982.5,-217.86C991.54,-215.55 1000.35,-211.84 1007.5,-206 1040.17,-179.33 1008.04,-141.59 1043,-118 1086.84,-88.41 1466.27,-118.83 1519,-123 1523.9,-123.39 1528.9,-123.84 1533.95,-124.35"/>
<polygon fill="#3363bb" stroke="#3363bb" stroke-width="2" points="1533.25,-128.12 1543.57,-125.71 1534,-121.16 1533.25,-128.12"/>
</a>
</g>
</g>
<!-- set_marker_node_Set(91)&#45;&gt;node_System(117) -->
<g id="edge21" class="edge">
<title>set_marker_node_Set(91)&#45;&gt;node_System(117)</title>
<g id="a_edge21"><a xlink:title="CheckVisibility → update_directional_light_frusta">
<path fill="none" stroke="#22c2bb" stroke-width="2" d="M982.5,-217.45C991.47,-215.17 1000.25,-211.57 1007.5,-206 1036.74,-183.52 1011.84,-150.73 1043,-131 1065.53,-116.74 1260.64,-116.47 1283,-131 1301.35,-142.93 1286.57,-161.54 1303,-176 1305.96,-178.61 1309.13,-181 1312.45,-183.2"/>
<polygon fill="#22c2bb" stroke="#22c2bb" stroke-width="2" points="1311.1,-186.61 1321.51,-188.58 1314.6,-180.55 1311.1,-186.61"/>
</a>
</g>
</g>
<!-- set_marker_node_Set(137) -->
<!-- node_System(113) -->
<g id="node17" class="node">
<title>node_System(113)</title>
<g id="a_node17"><a xlink:title="bevy_pbr::light::add_clusters">
<polygon fill="#abd5fc" stroke="#48a3f8" points="977,-162 884,-162 884,-126 977,-126 977,-162"/>
<text text-anchor="middle" x="930.5" y="-140.3" font-family="Helvetica,sans-Serif" font-size="14.00" fill="#011a31">add_clusters</text>
</a>
</g>
</g>
<!-- set_marker_node_Set(139) -->
<!-- set_marker_node_Set(139)&#45;&gt;node_System(118) -->
<g id="edge25" class="edge">
<title>set_marker_node_Set(139)&#45;&gt;node_System(118)</title>
<g id="a_edge25"><a xlink:title="AssignLightsToClusters → update_point_light_frusta">
<path fill="none" stroke="#00b0cc" stroke-width="2" d="M1254.5,-215.77C1264.13,-218.84 1273.78,-221.95 1283,-225 1291.94,-227.95 1293.93,-229.45 1303,-232 1306.68,-233.03 1310.44,-234.05 1314.24,-235.04"/>
<polygon fill="#00b0cc" stroke="#00b0cc" stroke-width="2" points="1313.96,-239.08 1324.51,-238.11 1315.66,-232.29 1313.96,-239.08"/>
</a>
</g>
</g>
<!-- set_marker_node_Set(139)&#45;&gt;node_System(119) -->
<g id="edge27" class="edge">
<title>set_marker_node_Set(139)&#45;&gt;node_System(119)</title>
<g id="a_edge27"><a xlink:title="AssignLightsToClusters → update_spot_light_frusta">
<path fill="none" stroke="#44d488" stroke-width="2" d="M1254.5,-206.19C1264.94,-211.05 1274.78,-217.21 1283,-225 1301.57,-242.61 1283.66,-262.24 1303,-279 1307.32,-282.74 1312.1,-285.92 1317.17,-288.62"/>
<polygon fill="#44d488" stroke="#44d488" stroke-width="2" points="1316.12,-291.88 1326.68,-292.79 1318.99,-285.5 1316.12,-291.88"/>
</a>
</g>
</g>
<!-- set_marker_node_Set(140) -->
<!-- set_marker_node_Set(141) -->
<!-- set_marker_node_Set(141)&#45;&gt;node_System(117) -->
<g id="edge23" class="edge">
<title>set_marker_node_Set(141)&#45;&gt;node_System(117)</title>
<g id="a_edge23"><a xlink:title="UpdateDirectionalLightCascades → update_directional_light_frusta">
<path fill="none" stroke="#eede00" stroke-width="2" d="M1283,-277C1298.27,-266.61 1289.96,-251.6 1301.9,-235.42"/>
<polygon fill="#eede00" stroke="#eede00" stroke-width="2" points="1304.35,-237.9 1308.9,-228.33 1299.37,-232.98 1304.35,-237.9"/>
</a>
</g>
</g>
<!-- set_marker_node_Set(142) -->
<!-- set_marker_node_Set(142)&#45;&gt;node_System(120) -->
<g id="edge30" class="edge">
<title>set_marker_node_Set(142)&#45;&gt;node_System(120)</title>
<g id="a_edge30"><a xlink:title="UpdateLightFrusta → check_light_mesh_visibility">
<path fill="none" stroke="#663699" stroke-width="2" d="M1519,-326C1569.59,-279.09 1499.18,-224.05 1538.53,-166.08"/>
<polygon fill="#663699" stroke="#663699" stroke-width="2" points="1542.05,-168.01 1545.51,-157.99 1536.56,-163.67 1542.05,-168.01"/>
</a>
</g>
</g>
<!-- set_marker_node_Set(12)&#45;&gt;set_marker_node_Set(6) -->
<g id="edge11" class="edge">
<title>set_marker_node_Set(12)&#45;&gt;set_marker_node_Set(6)</title>
<g id="a_edge11"><a xlink:title="Last → LastFlush">
<path fill="none" stroke="#99d955" stroke-width="2" d="M1433,-39C1467.69,-39 1537.9,-39 1585.82,-39"/>
<polygon fill="#99d955" stroke="#99d955" stroke-width="2" points="1585.5,-42.5 1595.5,-39 1585.5,-35.5 1585.5,-42.5"/>
</a>
</g>
</g>
<!-- set_marker_node_Set(59)&#45;&gt;set_marker_node_Set(8) -->
<g id="edge12" class="edge">
<title>set_marker_node_Set(59)&#45;&gt;set_marker_node_Set(8)</title>
<g id="a_edge12"><a xlink:title="LoadAssets → PreUpdate">
<path fill="none" stroke="#eede00" stroke-width="2" d="M151,-96.12C155.12,-97.09 159.3,-98.07 163.45,-99.05"/>
<polygon fill="#eede00" stroke="#eede00" stroke-width="2" points="163.48,-103.12 174.02,-102 165.08,-96.31 163.48,-103.12"/>
</a>
</g>
</g>
<!-- set_marker_node_Set(60)&#45;&gt;set_marker_node_Set(12) -->
<g id="edge15" class="edge">
<title>set_marker_node_Set(60)&#45;&gt;set_marker_node_Set(12)</title>
<g id="a_edge15"><a xlink:title="AssetEvents → Last">
<path fill="none" stroke="#aa3a55" stroke-width="2" d="M1209,-20.21C1257.59,-24.75 1333.82,-31.88 1377.1,-35.92"/>
<polygon fill="#aa3a55" stroke="#aa3a55" stroke-width="2" points="1376.72,-39.68 1387,-37.13 1377.37,-32.71 1376.72,-39.68"/>
</a>
</g>
</g>
</g>
</svg>
