<?xml version="1.0" encoding="UTF-8" standalone="no"?>
<!DOCTYPE svg PUBLIC "-//W3C//DTD SVG 1.1//EN"
 "http://www.w3.org/Graphics/SVG/1.1/DTD/svg11.dtd">
<!-- Generated by graphviz version 7.1.0 (0)
 -->
<!-- Pages: 1 -->
<svg width="1510pt" height="157pt"
 viewBox="0.00 0.00 1510.00 157.00" xmlns="http://www.w3.org/2000/svg" xmlns:xlink="http://www.w3.org/1999/xlink">
<g id="graph0" class="graph" transform="scale(1 1) rotate(0) translate(4 153)">
<polygon fill="white" stroke="none" points="-4,4 -4,-153 1506,-153 1506,4 -4,4"/>
<g id="clust1" class="cluster">
<title>clusternode_Set(0)</title>
<g id="a_clust1"><a xlink:title="Update">
<path fill="#000000" fill-opacity="0.031373" stroke="#000000" stroke-width="2" stroke-opacity="0.250980" d="M902,-55C902,-55 943,-55 943,-55 949,-55 955,-61 955,-67 955,-67 955,-82 955,-82 955,-88 949,-94 943,-94 943,-94 902,-94 902,-94 896,-94 890,-88 890,-82 890,-82 890,-67 890,-67 890,-61 896,-55 902,-55"/>
<text text-anchor="middle" x="922.5" y="-78.8" font-family="Helvetica,sans-Serif" font-size="14.00">Update</text>
</a>
</g>
</g>
<g id="clust2" class="cluster">
<title>clusternode_Set(2)</title>
<g id="a_clust2"><a xlink:title="FirstFlush">
<path fill="#000000" fill-opacity="0.031373" stroke="#000000" stroke-width="2" stroke-opacity="0.250980" d="M168,-55C168,-55 226,-55 226,-55 232,-55 238,-61 238,-67 238,-67 238,-82 238,-82 238,-88 232,-94 226,-94 226,-94 168,-94 168,-94 162,-94 156,-88 156,-82 156,-82 156,-67 156,-67 156,-61 162,-55 168,-55"/>
<text text-anchor="middle" x="197" y="-78.8" font-family="Helvetica,sans-Serif" font-size="14.00">FirstFlush</text>
</a>
</g>
</g>
<g id="clust3" class="cluster">
<title>clusternode_Set(3)</title>
<g id="a_clust3"><a xlink:title="PreUpdateFlush">
<path fill="#000000" fill-opacity="0.031373" stroke="#000000" stroke-width="2" stroke-opacity="0.250980" d="M382,-55C382,-55 481,-55 481,-55 487,-55 493,-61 493,-67 493,-67 493,-82 493,-82 493,-88 487,-94 481,-94 481,-94 382,-94 382,-94 376,-94 370,-88 370,-82 370,-82 370,-67 370,-67 370,-61 376,-55 382,-55"/>
<text text-anchor="middle" x="431.5" y="-78.8" font-family="Helvetica,sans-Serif" font-size="14.00">PreUpdateFlush</text>
</a>
</g>
</g>
<g id="clust4" class="cluster">
<title>clusternode_Set(4)</title>
<g id="a_clust4"><a xlink:title="UpdateFlush">
<path fill="#000000" fill-opacity="0.031373" stroke="#000000" stroke-width="2" stroke-opacity="0.250980" d="M987,-55C987,-55 1064,-55 1064,-55 1070,-55 1076,-61 1076,-67 1076,-67 1076,-82 1076,-82 1076,-88 1070,-94 1064,-94 1064,-94 987,-94 987,-94 981,-94 975,-88 975,-82 975,-82 975,-67 975,-67 975,-61 981,-55 987,-55"/>
<text text-anchor="middle" x="1025.5" y="-78.8" font-family="Helvetica,sans-Serif" font-size="14.00">UpdateFlush</text>
</a>
</g>
</g>
<g id="clust5" class="cluster">
<title>clusternode_Set(5)</title>
<g id="a_clust5"><a xlink:title="PostUpdateFlush">
<path fill="#000000" fill-opacity="0.031373" stroke="#000000" stroke-width="2" stroke-opacity="0.250980" d="M1221,-102C1221,-102 1326,-102 1326,-102 1332,-102 1338,-108 1338,-114 1338,-114 1338,-129 1338,-129 1338,-135 1332,-141 1326,-141 1326,-141 1221,-141 1221,-141 1215,-141 1209,-135 1209,-129 1209,-129 1209,-114 1209,-114 1209,-108 1215,-102 1221,-102"/>
<text text-anchor="middle" x="1273.5" y="-125.8" font-family="Helvetica,sans-Serif" font-size="14.00">PostUpdateFlush</text>
</a>
</g>
</g>
<g id="clust6" class="cluster">
<title>clusternode_Set(6)</title>
<g id="a_clust6"><a xlink:title="LastFlush">
<path fill="#000000" fill-opacity="0.031373" stroke="#000000" stroke-width="2" stroke-opacity="0.250980" d="M1434,-78C1434,-78 1490,-78 1490,-78 1496,-78 1502,-84 1502,-90 1502,-90 1502,-105 1502,-105 1502,-111 1496,-117 1490,-117 1490,-117 1434,-117 1434,-117 1428,-117 1422,-111 1422,-105 1422,-105 1422,-90 1422,-90 1422,-84 1428,-78 1434,-78"/>
<text text-anchor="middle" x="1462" y="-101.8" font-family="Helvetica,sans-Serif" font-size="14.00">LastFlush</text>
</a>
</g>
</g>
<g id="clust7" class="cluster">
<title>clusternode_Set(7)</title>
<g id="a_clust7"><a xlink:title="First">
<path fill="#000000" fill-opacity="0.031373" stroke="#000000" stroke-width="2" stroke-opacity="0.250980" d="M20,-8C20,-8 128,-8 128,-8 134,-8 140,-14 140,-20 140,-20 140,-129 140,-129 140,-135 134,-141 128,-141 128,-141 20,-141 20,-141 14,-141 8,-135 8,-129 8,-129 8,-20 8,-20 8,-14 14,-8 20,-8"/>
<text text-anchor="middle" x="74" y="-125.8" font-family="Helvetica,sans-Serif" font-size="14.00">First</text>
</a>
</g>
</g>
<g id="clust8" class="cluster">
<title>clusternode_Set(16)</title>
<g id="a_clust8"><a xlink:title="TimeSystem">
<path fill="#000000" fill-opacity="0.031373" stroke="#000000" stroke-width="2" stroke-opacity="0.250980" d="M28,-24C28,-24 120,-24 120,-24 126,-24 132,-30 132,-36 132,-36 132,-98 132,-98 132,-104 126,-110 120,-110 120,-110 28,-110 28,-110 22,-110 16,-104 16,-98 16,-98 16,-36 16,-36 16,-30 22,-24 28,-24"/>
<text text-anchor="middle" x="74" y="-94.8" font-family="Helvetica,sans-Serif" font-size="14.00">TimeSystem</text>
</a>
</g>
</g>
<g id="clust9" class="cluster">
<title>clusternode_Set(8)</title>
<g id="a_clust9"><a xlink:title="PreUpdate">
<path fill="#000000" fill-opacity="0.031373" stroke="#000000" stroke-width="2" stroke-opacity="0.250980" d="M275,-55C275,-55 338,-55 338,-55 344,-55 350,-61 350,-67 350,-67 350,-82 350,-82 350,-88 344,-94 338,-94 338,-94 275,-94 275,-94 269,-94 263,-88 263,-82 263,-82 263,-67 263,-67 263,-61 269,-55 275,-55"/>
<text text-anchor="middle" x="306.5" y="-78.8" font-family="Helvetica,sans-Serif" font-size="14.00">PreUpdate</text>
</a>
</g>
</g>
<g id="clust10" class="cluster">
<title>clusternode_Set(9)</title>
<g id="a_clust10"><a xlink:title="StateTransitions">
<path fill="#000000" fill-opacity="0.031373" stroke="#000000" stroke-width="2" stroke-opacity="0.250980" d="M525,-55C525,-55 625,-55 625,-55 631,-55 637,-61 637,-67 637,-67 637,-82 637,-82 637,-88 631,-94 625,-94 625,-94 525,-94 525,-94 519,-94 513,-88 513,-82 513,-82 513,-67 513,-67 513,-61 519,-55 525,-55"/>
<text text-anchor="middle" x="575" y="-78.8" font-family="Helvetica,sans-Serif" font-size="14.00">StateTransitions</text>
</a>
</g>
</g>
<g id="clust11" class="cluster">
<title>clusternode_Set(10)</title>
<g id="a_clust11"><a xlink:title="FixedUpdate">
<path fill="#000000" fill-opacity="0.031373" stroke="#000000" stroke-width="2" stroke-opacity="0.250980" d="M669,-8C669,-8 858,-8 858,-8 864,-8 870,-14 870,-20 870,-20 870,-82 870,-82 870,-88 864,-94 858,-94 858,-94 669,-94 669,-94 663,-94 657,-88 657,-82 657,-82 657,-20 657,-20 657,-14 663,-8 669,-8"/>
<text text-anchor="middle" x="763.5" y="-78.8" font-family="Helvetica,sans-Serif" font-size="14.00">FixedUpdate</text>
</a>
</g>
</g>
<g id="clust12" class="cluster">
<title>clusternode_Set(11)</title>
<g id="a_clust12"><a xlink:title="PostUpdate">
<path fill="#000000" fill-opacity="0.031373" stroke="#000000" stroke-width="2" stroke-opacity="0.250980" d="M1108,-55C1108,-55 1177,-55 1177,-55 1183,-55 1189,-61 1189,-67 1189,-67 1189,-82 1189,-82 1189,-88 1183,-94 1177,-94 1177,-94 1108,-94 1108,-94 1102,-94 1096,-88 1096,-82 1096,-82 1096,-67 1096,-67 1096,-61 1102,-55 1108,-55"/>
<text text-anchor="middle" x="1142.5" y="-78.8" font-family="Helvetica,sans-Serif" font-size="14.00">PostUpdate</text>
</a>
</g>
</g>
<g id="clust13" class="cluster">
<title>clusternode_Set(12)</title>
<g id="a_clust13"><a xlink:title="Last">
<path fill="#000000" fill-opacity="0.031373" stroke="#000000" stroke-width="2" stroke-opacity="0.250980" d="M1370,-78C1370,-78 1390,-78 1390,-78 1396,-78 1402,-84 1402,-90 1402,-90 1402,-105 1402,-105 1402,-111 1396,-117 1390,-117 1390,-117 1370,-117 1370,-117 1364,-117 1358,-111 1358,-105 1358,-105 1358,-90 1358,-90 1358,-84 1364,-78 1370,-78"/>
<text text-anchor="middle" x="1380" y="-101.8" font-family="Helvetica,sans-Serif" font-size="14.00">Last</text>
</a>
</g>
</g>
<g id="clust14" class="cluster">
<title>clusternode_Set(59)</title>
<g id="a_clust14"><a xlink:title="LoadAssets">
<path fill="#000000" fill-opacity="0.031373" stroke="#000000" stroke-width="2" stroke-opacity="0.250980" d="M164,-8C164,-8 231,-8 231,-8 237,-8 243,-14 243,-20 243,-20 243,-35 243,-35 243,-41 237,-47 231,-47 231,-47 164,-47 164,-47 158,-47 152,-41 152,-35 152,-35 152,-20 152,-20 152,-14 158,-8 164,-8"/>
<text text-anchor="middle" x="197.5" y="-31.8" font-family="Helvetica,sans-Serif" font-size="14.00">LoadAssets</text>
</a>
</g>
</g>
<g id="clust15" class="cluster">
<title>clusternode_Set(60)</title>
<g id="a_clust15"><a xlink:title="AssetEvents">
<path fill="#000000" fill-opacity="0.031373" stroke="#000000" stroke-width="2" stroke-opacity="0.250980" d="M1237,-55C1237,-55 1309,-55 1309,-55 1315,-55 1321,-61 1321,-67 1321,-67 1321,-82 1321,-82 1321,-88 1315,-94 1309,-94 1309,-94 1237,-94 1237,-94 1231,-94 1225,-88 1225,-82 1225,-82 1225,-67 1225,-67 1225,-61 1231,-55 1237,-55"/>
<text text-anchor="middle" x="1273" y="-78.8" font-family="Helvetica,sans-Serif" font-size="14.00">AssetEvents</text>
</a>
</g>
</g>
<!-- set_marker_node_Set(0) -->
<!-- set_marker_node_Set(4) -->
<!-- set_marker_node_Set(0)&#45;&gt;set_marker_node_Set(4) -->
<g id="edge7" class="edge">
<title>set_marker_node_Set(0)&#45;&gt;set_marker_node_Set(4)</title>
<g id="a_edge7"><a xlink:title="Update → UpdateFlush">
<path fill="none" stroke="#ee9e44" stroke-width="2" d="M955,-63C957.35,-63 959.77,-63 962.22,-63"/>
<polygon fill="#ee9e44" stroke="#ee9e44" stroke-width="2" points="961.97,-66.5 971.97,-63 961.97,-59.5 961.97,-66.5"/>
</a>
</g>
</g>
<!-- set_marker_node_Set(2) -->
<!-- set_marker_node_Set(8) -->
<!-- set_marker_node_Set(2)&#45;&gt;set_marker_node_Set(8) -->
<g id="edge2" class="edge">
<title>set_marker_node_Set(2)&#45;&gt;set_marker_node_Set(8)</title>
<g id="a_edge2"><a xlink:title="FirstFlush → PreUpdate">
<path fill="none" stroke="#881877" stroke-width="2" d="M238,-63C241.98,-63 246.07,-63 250.17,-63"/>
<polygon fill="#881877" stroke="#881877" stroke-width="2" points="249.98,-66.5 259.98,-63 249.98,-59.5 249.98,-66.5"/>
</a>
</g>
</g>
<!-- set_marker_node_Set(3) -->
<!-- set_marker_node_Set(9) -->
<!-- set_marker_node_Set(3)&#45;&gt;set_marker_node_Set(9) -->
<g id="edge4" class="edge">
<title>set_marker_node_Set(3)&#45;&gt;set_marker_node_Set(9)</title>
<g id="a_edge4"><a xlink:title="PreUpdateFlush → StateTransitions">
<path fill="none" stroke="#aa3a55" stroke-width="2" d="M493,-63C495.39,-63 497.8,-63 500.21,-63"/>
<polygon fill="#aa3a55" stroke="#aa3a55" stroke-width="2" points="499.98,-66.5 509.98,-63 499.98,-59.5 499.98,-66.5"/>
</a>
</g>
</g>
<!-- set_marker_node_Set(11) -->
<!-- set_marker_node_Set(4)&#45;&gt;set_marker_node_Set(11) -->
<g id="edge8" class="edge">
<title>set_marker_node_Set(4)&#45;&gt;set_marker_node_Set(11)</title>
<g id="a_edge8"><a xlink:title="UpdateFlush → PostUpdate">
<path fill="none" stroke="#663699" stroke-width="2" d="M1076,-63C1078.43,-63 1080.88,-63 1083.32,-63"/>
<polygon fill="#663699" stroke="#663699" stroke-width="2" points="1082.98,-66.5 1092.98,-63 1082.98,-59.5 1082.98,-66.5"/>
</a>
</g>
</g>
<!-- set_marker_node_Set(5) -->
<!-- set_marker_node_Set(12) -->
<!-- set_marker_node_Set(5)&#45;&gt;set_marker_node_Set(12) -->
<g id="edge10" class="edge">
<title>set_marker_node_Set(5)&#45;&gt;set_marker_node_Set(12)</title>
<g id="a_edge10"><a xlink:title="PostUpdateFlush → Last">
<path fill="none" stroke="#22c2bb" stroke-width="2" d="M1311.29,-102C1320.06,-100.08 1329.37,-98 1338,-96 1340.44,-95.44 1342.96,-94.84 1345.5,-94.24"/>
<polygon fill="#22c2bb" stroke="#22c2bb" stroke-width="2" points="1346.16,-97.68 1355.06,-91.93 1344.52,-90.88 1346.16,-97.68"/>
</a>
</g>
</g>
<!-- set_marker_node_Set(6) -->
<!-- set_marker_node_Set(7) -->
<!-- set_marker_node_Set(7)&#45;&gt;set_marker_node_Set(2) -->
<g id="edge1" class="edge">
<title>set_marker_node_Set(7)&#45;&gt;set_marker_node_Set(2)</title>
<g id="a_edge1"><a xlink:title="First → FirstFlush">
<path fill="none" stroke="#eede00" stroke-width="2" d="M140,-22C148.34,-27.98 145,-35.75 152.09,-45.9"/>
<polygon fill="#eede00" stroke="#eede00" stroke-width="2" points="149.37,-48.13 158.87,-52.84 154.38,-43.24 149.37,-48.13"/>
</a>
</g>
</g>
<!-- set_marker_node_Set(59) -->
<!-- set_marker_node_Set(7)&#45;&gt;set_marker_node_Set(59) -->
<g id="edge13" class="edge">
<title>set_marker_node_Set(7)&#45;&gt;set_marker_node_Set(59)</title>
<g id="a_edge13"><a xlink:title="First → LoadAssets">
<path fill="none" stroke="#881877" stroke-width="2" d="M140,-16C143,-16 146,-16 149,-16"/>
<polygon fill="#881877" stroke="#881877" stroke-width="2" points="138.98,-19.5 148.97,-16 138.97,-12.5 138.98,-19.5"/>
</a>
</g>
</g>
<!-- set_marker_node_Set(16) -->
<!-- node_System(8) -->
<g id="node9" class="node">
<title>node_System(8)</title>
<g id="a_node9"><a xlink:title="bevy_time::time_system">
<polygon fill="#c7ddbd" stroke="#8dba79" points="124,-68 24,-68 24,-32 124,-32 124,-68"/>
<text text-anchor="middle" x="74" y="-46.3" font-family="Helvetica,sans-Serif" font-size="14.00" fill="#162111">time_system</text>
</a>
</g>
</g>
<!-- set_marker_node_Set(8)&#45;&gt;set_marker_node_Set(3) -->
<g id="edge3" class="edge">
<title>set_marker_node_Set(8)&#45;&gt;set_marker_node_Set(3)</title>
<g id="a_edge3"><a xlink:title="PreUpdate → PreUpdateFlush">
<path fill="none" stroke="#00b0cc" stroke-width="2" d="M350,-63C352.39,-63 354.82,-63 357.28,-63"/>
<polygon fill="#00b0cc" stroke="#00b0cc" stroke-width="2" points="356.98,-66.5 366.98,-63 356.98,-59.5 356.98,-66.5"/>
</a>
</g>
</g>
<!-- set_marker_node_Set(10) -->
<!-- set_marker_node_Set(9)&#45;&gt;set_marker_node_Set(10) -->
<g id="edge5" class="edge">
<title>set_marker_node_Set(9)&#45;&gt;set_marker_node_Set(10)</title>
<g id="a_edge5"><a xlink:title="StateTransitions → FixedUpdate">
<path fill="none" stroke="#44d488" stroke-width="2" d="M637,-63C639.38,-63 641.8,-63 644.25,-63"/>
<polygon fill="#44d488" stroke="#44d488" stroke-width="2" points="643.97,-66.5 653.97,-63 643.97,-59.5 643.97,-66.5"/>
</a>
</g>
</g>
<!-- set_marker_node_Set(10)&#45;&gt;set_marker_node_Set(0) -->
<g id="edge6" class="edge">
<title>set_marker_node_Set(10)&#45;&gt;set_marker_node_Set(0)</title>
<g id="a_edge6"><a xlink:title="FixedUpdate → Update">
<path fill="none" stroke="#0090cc" stroke-width="2" d="M870,-63C872.46,-63 874.89,-63 877.26,-63"/>
<polygon fill="#0090cc" stroke="#0090cc" stroke-width="2" points="876.98,-66.5 886.98,-63 876.98,-59.5 876.98,-66.5"/>
</a>
</g>
</g>
<!-- node_System(9) -->
<g id="node13" class="node">
<title>node_System(9)</title>
<g id="a_node13"><a xlink:title="bevy_time::fixed_timestep::run_fixed_update_schedule">
<polygon fill="#c7ddbd" stroke="#8dba79" points="862,-52 665,-52 665,-16 862,-16 862,-52"/>
<text text-anchor="middle" x="763.5" y="-30.3" font-family="Helvetica,sans-Serif" font-size="14.00" fill="#162111">run_fixed_update_schedule</text>
</a>
</g>
</g>
<!-- set_marker_node_Set(11)&#45;&gt;set_marker_node_Set(5) -->
<g id="edge9" class="edge">
<title>set_marker_node_Set(11)&#45;&gt;set_marker_node_Set(5)</title>
<g id="a_edge9"><a xlink:title="PostUpdate → PostUpdateFlush">
<path fill="none" stroke="#3363bb" stroke-width="2" d="M1189,-87.77C1195.6,-90.81 1202.4,-93.66 1209,-96 1211.52,-96.9 1214.12,-97.75 1216.77,-98.55"/>
<polygon fill="#3363bb" stroke="#3363bb" stroke-width="2" points="1215.81,-101.92 1226.38,-101.2 1217.66,-95.17 1215.81,-101.92"/>
</a>
</g>
</g>
<!-- set_marker_node_Set(60) -->
<!-- set_marker_node_Set(11)&#45;&gt;set_marker_node_Set(60) -->
<g id="edge14" class="edge">
<title>set_marker_node_Set(11)&#45;&gt;set_marker_node_Set(60)</title>
<g id="a_edge14"><a xlink:title="PostUpdate → AssetEvents">
<path fill="none" stroke="#00b0cc" stroke-width="2" d="M1189,-63C1196.5,-63 1204.36,-63 1212.14,-63"/>
<polygon fill="#00b0cc" stroke="#00b0cc" stroke-width="2" points="1211.98,-66.5 1221.98,-63 1211.98,-59.5 1211.98,-66.5"/>
</a>
</g>
</g>
<!-- set_marker_node_Set(12)&#45;&gt;set_marker_node_Set(6) -->
<g id="edge11" class="edge">
<title>set_marker_node_Set(12)&#45;&gt;set_marker_node_Set(6)</title>
<g id="a_edge11"><a xlink:title="Last → LastFlush">
<path fill="none" stroke="#99d955" stroke-width="2" d="M1402,-86C1404.31,-86 1406.74,-86 1409.23,-86"/>
<polygon fill="#99d955" stroke="#99d955" stroke-width="2" points="1408.98,-89.5 1418.98,-86 1408.98,-82.5 1408.98,-89.5"/>
</a>
</g>
</g>
<!-- set_marker_node_Set(59)&#45;&gt;set_marker_node_Set(8) -->
<g id="edge12" class="edge">
<title>set_marker_node_Set(59)&#45;&gt;set_marker_node_Set(8)</title>
<g id="a_edge12"><a xlink:title="LoadAssets → PreUpdate">
<path fill="none" stroke="#eede00" stroke-width="2" d="M243,-35.76C253.76,-40.49 265.01,-45.43 274.91,-49.78"/>
<polygon fill="#eede00" stroke="#eede00" stroke-width="2" points="273.46,-52.97 284.03,-53.79 276.28,-46.56 273.46,-52.97"/>
</a>
</g>
</g>
<!-- set_marker_node_Set(60)&#45;&gt;set_marker_node_Set(12) -->
<g id="edge15" class="edge">
<title>set_marker_node_Set(60)&#45;&gt;set_marker_node_Set(12)</title>
<g id="a_edge15"><a xlink:title="AssetEvents → Last">
<path fill="none" stroke="#aa3a55" stroke-width="2" d="M1321,-73.29C1329.25,-75.1 1337.69,-76.95 1345.48,-78.66"/>
<polygon fill="#aa3a55" stroke="#aa3a55" stroke-width="2" points="1344.53,-82.03 1355.04,-80.75 1346.02,-75.19 1344.53,-82.03"/>
</a>
</g>
</g>
</g>
</svg>
