<?xml version="1.0" encoding="UTF-8" standalone="no"?>
<!DOCTYPE svg PUBLIC "-//W3C//DTD SVG 1.1//EN"
 "http://www.w3.org/Graphics/SVG/1.1/DTD/svg11.dtd">
<!-- Generated by graphviz version 7.1.0 (0)
 -->
<!-- Pages: 1 -->
<svg width="1895pt" height="397pt"
 viewBox="0.00 0.00 1895.00 397.00" xmlns="http://www.w3.org/2000/svg" xmlns:xlink="http://www.w3.org/1999/xlink">
<g id="graph0" class="graph" transform="scale(1 1) rotate(0) translate(4 393)">
<polygon fill="white" stroke="none" points="-4,4 -4,-393 1891,-393 1891,4 -4,4"/>
<g id="clust1" class="cluster">
<title>clusternode_Set(0)</title>
<g id="a_clust1"><a xlink:title="Update">
<polygon fill="white" stroke="black" points="947,-8 947,-309 1160,-309 1160,-8 947,-8"/>
<text text-anchor="middle" x="1053.5" y="-293.8" font-family="Helvetica,sans-Serif" font-size="14.00">Update</text>
</a>
</g>
</g>
<g id="clust2" class="cluster">
<title>clusternode_Set(2)</title>
<g id="a_clust2"><a xlink:title="FirstFlush">
<polygon fill="white" stroke="black" points="209,-291 209,-330 291,-330 291,-291 209,-291"/>
<text text-anchor="middle" x="250" y="-314.8" font-family="Helvetica,sans-Serif" font-size="14.00">FirstFlush</text>
</a>
</g>
</g>
<g id="clust3" class="cluster">
<title>clusternode_Set(3)</title>
<g id="a_clust3"><a xlink:title="PreUpdateFlush">
<polygon fill="white" stroke="black" points="417,-270 417,-309 540,-309 540,-270 417,-270"/>
<text text-anchor="middle" x="478.5" y="-293.8" font-family="Helvetica,sans-Serif" font-size="14.00">PreUpdateFlush</text>
</a>
</g>
</g>
<g id="clust4" class="cluster">
<title>clusternode_Set(4)</title>
<g id="a_clust4"><a xlink:title="UpdateFlush">
<polygon fill="white" stroke="black" points="1179,-270 1179,-309 1280,-309 1280,-270 1179,-270"/>
<text text-anchor="middle" x="1229.5" y="-293.8" font-family="Helvetica,sans-Serif" font-size="14.00">UpdateFlush</text>
</a>
</g>
</g>
<g id="clust5" class="cluster">
<title>clusternode_Set(5)</title>
<g id="a_clust5"><a xlink:title="PostUpdateFlush">
<polygon fill="white" stroke="black" points="1407,-297 1407,-336 1536,-336 1536,-297 1407,-297"/>
<text text-anchor="middle" x="1471.5" y="-320.8" font-family="Helvetica,sans-Serif" font-size="14.00">PostUpdateFlush</text>
</a>
</g>
</g>
<g id="clust6" class="cluster">
<title>clusternode_Set(6)</title>
<g id="a_clust6"><a xlink:title="LastFlush">
<polygon fill="white" stroke="black" points="1762.5,-241 1762.5,-280 1842.5,-280 1842.5,-241 1762.5,-241"/>
<text text-anchor="middle" x="1802.5" y="-264.8" font-family="Helvetica,sans-Serif" font-size="14.00">LastFlush</text>
</a>
</g>
</g>
<g id="clust7" class="cluster">
<title>clusternode_Set(7)</title>
<g id="a_clust7"><a xlink:title="First">
<polygon fill="white" stroke="black" points="75,-261 75,-300 121,-300 121,-261 75,-261"/>
<text text-anchor="middle" x="98" y="-284.8" font-family="Helvetica,sans-Serif" font-size="14.00">First</text>
</a>
</g>
</g>
<g id="clust8" class="cluster">
<title>clusternode_Set(8)</title>
<g id="a_clust8"><a xlink:title="PreUpdate">
<polygon fill="white" stroke="black" points="313,-270 313,-309 400,-309 400,-270 313,-270"/>
<text text-anchor="middle" x="356.5" y="-293.8" font-family="Helvetica,sans-Serif" font-size="14.00">PreUpdate</text>
</a>
</g>
</g>
<g id="clust9" class="cluster">
<title>clusternode_Set(9)</title>
<g id="a_clust9"><a xlink:title="StateTransitions">
<polygon fill="white" stroke="black" points="557,-270 557,-309 681,-309 681,-270 557,-270"/>
<text text-anchor="middle" x="619" y="-293.8" font-family="Helvetica,sans-Serif" font-size="14.00">StateTransitions</text>
</a>
</g>
</g>
<g id="clust10" class="cluster">
<title>clusternode_Set(10)</title>
<g id="a_clust10"><a xlink:title="FixedUpdate">
<polygon fill="white" stroke="black" points="698,-270 698,-309 798,-309 798,-270 698,-270"/>
<text text-anchor="middle" x="748" y="-293.8" font-family="Helvetica,sans-Serif" font-size="14.00">FixedUpdate</text>
</a>
</g>
</g>
<g id="clust11" class="cluster">
<title>clusternode_Set(11)</title>
<g id="a_clust11"><a xlink:title="PostUpdate">
<polygon fill="white" stroke="black" points="1297,-270 1297,-309 1390,-309 1390,-270 1297,-270"/>
<text text-anchor="middle" x="1343.5" y="-293.8" font-family="Helvetica,sans-Serif" font-size="14.00">PostUpdate</text>
</a>
</g>
</g>
<g id="clust12" class="cluster">
<title>clusternode_Set(12)</title>
<g id="a_clust12"><a xlink:title="Last">
<polygon fill="white" stroke="black" points="1555,-288 1555,-381 1879,-381 1879,-288 1555,-288"/>
<text text-anchor="middle" x="1717" y="-365.8" font-family="Helvetica,sans-Serif" font-size="14.00">Last</text>
</a>
</g>
</g>
<g id="clust13" class="cluster">
<title>clusternode_Set(22)</title>
<g id="a_clust13"><a xlink:title="PropagateTransformsSet">
<polygon fill="white" stroke="black" points="8,-324 8,-363 188,-363 188,-324 8,-324"/>
<text text-anchor="middle" x="98" y="-347.8" font-family="Helvetica,sans-Serif" font-size="14.00">PropagateTransformsSet</text>
</a>
</g>
</g>
<g id="clust14" class="cluster">
<title>clusternode_Set(59)</title>
<g id="a_clust14"><a xlink:title="LoadAssets">
<polygon fill="white" stroke="black" points="205,-244 205,-283 296,-283 296,-244 205,-244"/>
<text text-anchor="middle" x="250.5" y="-267.8" font-family="Helvetica,sans-Serif" font-size="14.00">LoadAssets</text>
</a>
</g>
</g>
<g id="clust15" class="cluster">
<title>clusternode_Set(60)</title>
<g id="a_clust15"><a xlink:title="AssetEvents">
<polygon fill="white" stroke="black" points="1423,-250 1423,-289 1519,-289 1519,-250 1423,-250"/>
<text text-anchor="middle" x="1471" y="-273.8" font-family="Helvetica,sans-Serif" font-size="14.00">AssetEvents</text>
</a>
</g>
</g>
<!-- set_marker_node_Set(0) -->
<!-- set_marker_node_Set(4) -->
<!-- set_marker_node_Set(0)&#45;&gt;set_marker_node_Set(4) -->
<g id="edge7" class="edge">
<title>set_marker_node_Set(0)&#45;&gt;set_marker_node_Set(4)</title>
<g id="a_edge7"><a xlink:title="Update → UpdateFlush">
<path fill="none" stroke="#ee9e44" stroke-width="2" d="M1160,-278C1162.01,-278 1164.02,-278 1166,-278"/>
<polygon fill="#ee9e44" stroke="#ee9e44" stroke-width="2" points="1165.98,-281.5 1175.98,-278 1165.98,-274.5 1165.98,-281.5"/>
</a>
</g>
</g>
<!-- node_System(60) -->
<g id="node2" class="node">
<title>node_System(60)</title>
<g id="a_node2"><a xlink:title="bevy_winit::accessibility::handle_window_focus">
<polygon fill="white" stroke="black" points="1136.5,-260 970.5,-260 970.5,-224 1136.5,-224 1136.5,-260"/>
<text text-anchor="middle" x="1053.5" y="-238.3" font-family="Times,serif" font-size="14.00">handle_window_focus</text>
</a>
</g>
</g>
<!-- node_System(61) -->
<g id="node3" class="node">
<title>node_System(61)</title>
<g id="a_node3"><a xlink:title="bevy_winit::accessibility::window_closed">
<polygon fill="white" stroke="black" points="1113,-183 994,-183 994,-147 1113,-147 1113,-183"/>
<text text-anchor="middle" x="1053.5" y="-161.3" font-family="Times,serif" font-size="14.00">window_closed</text>
</a>
</g>
</g>
<!-- node_System(60)&#45;&gt;node_System(61) -->
<g id="edge17" class="edge">
<title>node_System(60)&#45;&gt;node_System(61)</title>
<path fill="none" stroke="#c93526" stroke-width="2" d="M1053.5,-223.62C1053.5,-211.4 1053.5,-195.43 1053.5,-183.25"/>
<g id="a_edge17&#45;label"><a xlink:title="handle_window_focus — window_closed">
<polygon fill="#d3d3d3" stroke="none" points="976,-193.5 976,-212.5 1103,-212.5 1103,-193.5 976,-193.5"/>
<text text-anchor="start" x="978" y="-199.3" font-family="Times,serif" font-size="14.00" fill="#c93526">AccessKitAdapters</text>
</a>
</g>
</g>
<!-- node_System(62) -->
<g id="node4" class="node">
<title>node_System(62)</title>
<g id="a_node4"><a xlink:title="bevy_winit::accessibility::poll_receivers">
<polygon fill="white" stroke="black" points="1108.5,-106 998.5,-106 998.5,-70 1108.5,-70 1108.5,-106"/>
<text text-anchor="middle" x="1053.5" y="-84.3" font-family="Times,serif" font-size="14.00">poll_receivers</text>
</a>
</g>
</g>
<!-- node_System(61)&#45;&gt;node_System(62) -->
<g id="edge18" class="edge">
<title>node_System(61)&#45;&gt;node_System(62)</title>
<path fill="none" stroke="#c93526" stroke-width="2" d="M1053.5,-146.62C1053.5,-134.4 1053.5,-118.43 1053.5,-106.25"/>
<g id="a_edge18&#45;label"><a xlink:title="window_closed — poll_receivers">
<polygon fill="#d3d3d3" stroke="none" points="965,-116.5 965,-135.5 1113,-135.5 1113,-116.5 965,-116.5"/>
<text text-anchor="start" x="967" y="-122.3" font-family="Times,serif" font-size="14.00" fill="#c93526">WinitActionHandlers</text>
</a>
</g>
</g>
<!-- node_System(63) -->
<g id="node5" class="node">
<title>node_System(63)</title>
<g id="a_node5"><a xlink:title="bevy_winit::accessibility::update_accessibility_nodes">
<polygon fill="white" stroke="black" points="1152,-52 955,-52 955,-16 1152,-16 1152,-52"/>
<text text-anchor="middle" x="1053.5" y="-30.3" font-family="Times,serif" font-size="14.00">update_accessibility_nodes</text>
</a>
</g>
</g>
<!-- node_System(61)&#45;&gt;node_System(63) -->
<g id="edge19" class="edge">
<title>node_System(61)&#45;&gt;node_System(63)</title>
<path fill="none" stroke="#c93526" stroke-width="2" d="M993.62,-168.69C942.93,-168.17 872.86,-158.11 836.33,-111.5 799.11,-64 881.03,-45.57 954.69,-38.44"/>
<g id="a_edge19&#45;label"><a xlink:title="window_closed — update_accessibility_nodes">
<polygon fill="#d3d3d3" stroke="none" points="808.5,-90 808.5,-109 935.5,-109 935.5,-90 808.5,-90"/>
<text text-anchor="start" x="810.5" y="-95.8" font-family="Times,serif" font-size="14.00" fill="#c93526">AccessKitAdapters</text>
</a>
</g>
</g>
<!-- set_marker_node_Set(2) -->
<!-- set_marker_node_Set(8) -->
<!-- set_marker_node_Set(2)&#45;&gt;set_marker_node_Set(8) -->
<g id="edge2" class="edge">
<title>set_marker_node_Set(2)&#45;&gt;set_marker_node_Set(8)</title>
<g id="a_edge2"><a xlink:title="FirstFlush → PreUpdate">
<path fill="none" stroke="#881877" stroke-width="2" d="M290.59,-291C293.8,-290.36 297.07,-289.7 300.35,-289.04"/>
<polygon fill="#881877" stroke="#881877" stroke-width="2" points="300.93,-292.49 310.04,-287.08 299.54,-285.63 300.93,-292.49"/>
</a>
</g>
</g>
<!-- set_marker_node_Set(3) -->
<!-- set_marker_node_Set(9) -->
<!-- set_marker_node_Set(3)&#45;&gt;set_marker_node_Set(9) -->
<g id="edge4" class="edge">
<title>set_marker_node_Set(3)&#45;&gt;set_marker_node_Set(9)</title>
<g id="a_edge4"><a xlink:title="PreUpdateFlush → StateTransitions">
<path fill="none" stroke="#aa3a55" stroke-width="2" d="M540,-278C541.39,-278 542.79,-278 544.19,-278"/>
<polygon fill="#aa3a55" stroke="#aa3a55" stroke-width="2" points="543.98,-281.5 553.98,-278 543.98,-274.5 543.98,-281.5"/>
</a>
</g>
</g>
<!-- set_marker_node_Set(11) -->
<!-- set_marker_node_Set(4)&#45;&gt;set_marker_node_Set(11) -->
<g id="edge8" class="edge">
<title>set_marker_node_Set(4)&#45;&gt;set_marker_node_Set(11)</title>
<g id="a_edge8"><a xlink:title="UpdateFlush → PostUpdate">
<path fill="none" stroke="#663699" stroke-width="2" d="M1280,-278C1281.35,-278 1282.71,-278 1284.07,-278"/>
<polygon fill="#663699" stroke="#663699" stroke-width="2" points="1283.97,-281.5 1293.97,-278 1283.97,-274.5 1283.97,-281.5"/>
</a>
</g>
</g>
<!-- set_marker_node_Set(5) -->
<!-- set_marker_node_Set(12) -->
<!-- set_marker_node_Set(5)&#45;&gt;set_marker_node_Set(12) -->
<g id="edge10" class="edge">
<title>set_marker_node_Set(5)&#45;&gt;set_marker_node_Set(12)</title>
<g id="a_edge10"><a xlink:title="PostUpdateFlush → Last">
<path fill="none" stroke="#22c2bb" stroke-width="2" d="M1536,-301.33C1538,-301.22 1540.02,-301.1 1542.05,-300.98"/>
<polygon fill="#22c2bb" stroke="#22c2bb" stroke-width="2" points="1542.2,-304.48 1551.98,-300.42 1541.8,-297.49 1542.2,-304.48"/>
</a>
</g>
</g>
<!-- set_marker_node_Set(6) -->
<!-- set_marker_node_Set(7) -->
<!-- set_marker_node_Set(7)&#45;&gt;set_marker_node_Set(2) -->
<g id="edge1" class="edge">
<title>set_marker_node_Set(7)&#45;&gt;set_marker_node_Set(2)</title>
<g id="a_edge1"><a xlink:title="First → FirstFlush">
<path fill="none" stroke="#eede00" stroke-width="2" d="M121,-273.4C140.73,-277.35 170.48,-283.3 196.34,-288.47"/>
<polygon fill="#eede00" stroke="#eede00" stroke-width="2" points="195.54,-291.88 206.03,-290.41 196.91,-285.01 195.54,-291.88"/>
</a>
</g>
</g>
<!-- set_marker_node_Set(59) -->
<!-- set_marker_node_Set(7)&#45;&gt;set_marker_node_Set(59) -->
<g id="edge13" class="edge">
<title>set_marker_node_Set(7)&#45;&gt;set_marker_node_Set(59)</title>
<g id="a_edge13"><a xlink:title="First → LoadAssets">
<path fill="none" stroke="#881877" stroke-width="2" d="M121,-266.51C139.69,-264.39 167.37,-261.25 192.21,-258.44"/>
<polygon fill="#881877" stroke="#881877" stroke-width="2" points="192.45,-261.93 202,-257.33 191.67,-254.98 192.45,-261.93"/>
</a>
</g>
</g>
<!-- set_marker_node_Set(8)&#45;&gt;set_marker_node_Set(3) -->
<g id="edge3" class="edge">
<title>set_marker_node_Set(8)&#45;&gt;set_marker_node_Set(3)</title>
<g id="a_edge3"><a xlink:title="PreUpdate → PreUpdateFlush">
<path fill="none" stroke="#00b0cc" stroke-width="2" d="M400,-278C401.37,-278 402.75,-278 404.15,-278"/>
<polygon fill="#00b0cc" stroke="#00b0cc" stroke-width="2" points="403.97,-281.5 413.97,-278 403.97,-274.5 403.97,-281.5"/>
</a>
</g>
</g>
<!-- set_marker_node_Set(10) -->
<!-- set_marker_node_Set(9)&#45;&gt;set_marker_node_Set(10) -->
<g id="edge5" class="edge">
<title>set_marker_node_Set(9)&#45;&gt;set_marker_node_Set(10)</title>
<g id="a_edge5"><a xlink:title="StateTransitions → FixedUpdate">
<path fill="none" stroke="#44d488" stroke-width="2" d="M681,-278C682.39,-278 683.78,-278 685.17,-278"/>
<polygon fill="#44d488" stroke="#44d488" stroke-width="2" points="684.97,-281.5 694.97,-278 684.97,-274.5 684.97,-281.5"/>
</a>
</g>
</g>
<!-- set_marker_node_Set(10)&#45;&gt;set_marker_node_Set(0) -->
<g id="edge6" class="edge">
<title>set_marker_node_Set(10)&#45;&gt;set_marker_node_Set(0)</title>
<g id="a_edge6"><a xlink:title="FixedUpdate → Update">
<path fill="none" stroke="#0090cc" stroke-width="2" d="M798,-278C834.79,-278 886.78,-278 934.19,-278"/>
<polygon fill="#0090cc" stroke="#0090cc" stroke-width="2" points="933.97,-281.5 943.97,-278 933.97,-274.5 933.97,-281.5"/>
</a>
</g>
</g>
<!-- set_marker_node_Set(11)&#45;&gt;set_marker_node_Set(5) -->
<g id="edge9" class="edge">
<title>set_marker_node_Set(11)&#45;&gt;set_marker_node_Set(5)</title>
<g id="a_edge9"><a xlink:title="PostUpdate → PostUpdateFlush">
<path fill="none" stroke="#3363bb" stroke-width="2" d="M1390,-289.21C1395.71,-290.52 1401.49,-291.82 1407,-293 1409.27,-293.49 1411.6,-293.97 1413.94,-294.46"/>
<polygon fill="#3363bb" stroke="#3363bb" stroke-width="2" points="1413.14,-297.87 1423.64,-296.41 1414.52,-291 1413.14,-297.87"/>
</a>
</g>
</g>
<!-- set_marker_node_Set(60) -->
<!-- set_marker_node_Set(11)&#45;&gt;set_marker_node_Set(60) -->
<g id="edge14" class="edge">
<title>set_marker_node_Set(11)&#45;&gt;set_marker_node_Set(60)</title>
<g id="a_edge14"><a xlink:title="PostUpdate → AssetEvents">
<path fill="none" stroke="#00b0cc" stroke-width="2" d="M1390,-270.7C1396.68,-269.64 1403.63,-268.53 1410.53,-267.44"/>
<polygon fill="#00b0cc" stroke="#00b0cc" stroke-width="2" points="1410.68,-270.96 1420.01,-265.93 1409.59,-264.05 1410.68,-270.96"/>
</a>
</g>
</g>
<!-- set_marker_node_Set(12)&#45;&gt;set_marker_node_Set(6) -->
<g id="edge11" class="edge">
<title>set_marker_node_Set(12)&#45;&gt;set_marker_node_Set(6)</title>
<g id="a_edge11"><a xlink:title="Last → LastFlush">
<path fill="none" stroke="#99d955" stroke-width="2" d="M1660.02,-288C1684.68,-281.2 1720.66,-271.28 1750.17,-263.15"/>
<polygon fill="#99d955" stroke="#99d955" stroke-width="2" points="1750.87,-266.59 1759.58,-260.55 1749.01,-259.84 1750.87,-266.59"/>
</a>
</g>
</g>
<!-- node_System(57) -->
<g id="node17" class="node">
<title>node_System(57)</title>
<g id="a_node17"><a xlink:title="bevy_winit::system::changed_window">
<polygon fill="white" stroke="black" points="1697,-350 1563,-350 1563,-314 1697,-314 1697,-350"/>
<text text-anchor="middle" x="1630" y="-328.3" font-family="Times,serif" font-size="14.00">changed_window</text>
</a>
</g>
</g>
<!-- node_System(58) -->
<g id="node18" class="node">
<title>node_System(58)</title>
<g id="a_node18"><a xlink:title="bevy_winit::system::despawn_window">
<polygon fill="white" stroke="black" points="1871,-350 1734,-350 1734,-314 1871,-314 1871,-350"/>
<text text-anchor="middle" x="1802.5" y="-328.3" font-family="Times,serif" font-size="14.00">despawn_window</text>
</a>
</g>
</g>
<!-- node_System(57)&#45;&gt;node_System(58) -->
<g id="edge16" class="edge">
<title>node_System(57)&#45;&gt;node_System(58)</title>
<g id="a_edge16"><a xlink:title="SystemTypeSet(changed_window&quot;) → despawn_window">
<path fill="none" stroke="#44d488" stroke-width="2" d="M1697.41,-332C1705.02,-332 1712.83,-332 1720.6,-332"/>
<polygon fill="#44d488" stroke="#44d488" stroke-width="2" points="1720.56,-335.5 1730.56,-332 1720.56,-328.5 1720.56,-335.5"/>
</a>
</g>
</g>
<!-- set_marker_node_Set(22) -->
<!-- set_marker_node_Set(59)&#45;&gt;set_marker_node_Set(8) -->
<g id="edge12" class="edge">
<title>set_marker_node_Set(59)&#45;&gt;set_marker_node_Set(8)</title>
<g id="a_edge12"><a xlink:title="LoadAssets → PreUpdate">
<path fill="none" stroke="#eede00" stroke-width="2" d="M296,-263.25C300.88,-264.47 305.83,-265.71 310.7,-266.93"/>
<polygon fill="#eede00" stroke="#eede00" stroke-width="2" points="309.53,-270.24 320.08,-269.27 311.22,-263.45 309.53,-270.24"/>
</a>
</g>
</g>
<!-- set_marker_node_Set(60)&#45;&gt;set_marker_node_Set(12) -->
<g id="edge15" class="edge">
<title>set_marker_node_Set(60)&#45;&gt;set_marker_node_Set(12)</title>
<g id="a_edge15"><a xlink:title="AssetEvents → Last">
<path fill="none" stroke="#aa3a55" stroke-width="2" d="M1519,-269.38C1539.4,-274.31 1563.21,-280.08 1583.45,-284.97"/>
<polygon fill="#aa3a55" stroke="#aa3a55" stroke-width="2" points="1582.47,-288.34 1593.02,-287.29 1584.12,-281.54 1582.47,-288.34"/>
</a>
</g>
</g>
</g>
</svg>
