<?xml version="1.0" encoding="UTF-8" standalone="no"?>
<!DOCTYPE svg PUBLIC "-//W3C//DTD SVG 1.1//EN"
 "http://www.w3.org/Graphics/SVG/1.1/DTD/svg11.dtd">
<!-- Generated by graphviz version 7.1.0 (0)
 -->
<!-- Pages: 1 -->
<svg width="2024pt" height="453pt"
 viewBox="0.00 0.00 2024.00 453.00" xmlns="http://www.w3.org/2000/svg" xmlns:xlink="http://www.w3.org/1999/xlink">
<g id="graph0" class="graph" transform="scale(1 1) rotate(0) translate(4 449)">
<polygon fill="white" stroke="none" points="-4,4 -4,-449 2020,-449 2020,4 -4,4"/>
<g id="clust1" class="cluster">
<title>clusternode_Set(0)</title>
<g id="a_clust1"><a xlink:title="Update">
<polygon fill="white" stroke="black" points="825,-102 825,-141 890,-141 890,-102 825,-102"/>
<text text-anchor="middle" x="857.5" y="-125.8" font-family="Helvetica,sans-Serif" font-size="14.00">Update</text>
</a>
</g>
</g>
<g id="clust2" class="cluster">
<title>clusternode_Set(2)</title>
<g id="a_clust2"><a xlink:title="FirstFlush">
<polygon fill="white" stroke="black" points="204,-125 204,-164 286,-164 286,-125 204,-125"/>
<text text-anchor="middle" x="245" y="-148.8" font-family="Helvetica,sans-Serif" font-size="14.00">FirstFlush</text>
</a>
</g>
</g>
<g id="clust3" class="cluster">
<title>clusternode_Set(3)</title>
<g id="a_clust3"><a xlink:title="PreUpdateFlush">
<polygon fill="white" stroke="black" points="418,-102 418,-141 541,-141 541,-102 418,-102"/>
<text text-anchor="middle" x="479.5" y="-125.8" font-family="Helvetica,sans-Serif" font-size="14.00">PreUpdateFlush</text>
</a>
</g>
</g>
<g id="clust4" class="cluster">
<title>clusternode_Set(4)</title>
<g id="a_clust4"><a xlink:title="UpdateFlush">
<polygon fill="white" stroke="black" points="910,-102 910,-141 1011,-141 1011,-102 910,-102"/>
<text text-anchor="middle" x="960.5" y="-125.8" font-family="Helvetica,sans-Serif" font-size="14.00">UpdateFlush</text>
</a>
</g>
</g>
<g id="clust5" class="cluster">
<title>clusternode_Set(5)</title>
<g id="a_clust5"><a xlink:title="PostUpdateFlush">
<polygon fill="white" stroke="black" points="1305.5,-55 1305.5,-94 1434.5,-94 1434.5,-55 1305.5,-55"/>
<text text-anchor="middle" x="1370" y="-78.8" font-family="Helvetica,sans-Serif" font-size="14.00">PostUpdateFlush</text>
</a>
</g>
</g>
<g id="clust6" class="cluster">
<title>clusternode_Set(6)</title>
<g id="a_clust6"><a xlink:title="LastFlush">
<polygon fill="white" stroke="black" points="1852,-31 1852,-70 1932,-70 1932,-31 1852,-31"/>
<text text-anchor="middle" x="1892" y="-54.8" font-family="Helvetica,sans-Serif" font-size="14.00">LastFlush</text>
</a>
</g>
</g>
<g id="clust7" class="cluster">
<title>clusternode_Set(7)</title>
<g id="a_clust7"><a xlink:title="First">
<polygon fill="white" stroke="black" points="67,-101 67,-140 113,-140 113,-101 67,-101"/>
<text text-anchor="middle" x="90" y="-124.8" font-family="Helvetica,sans-Serif" font-size="14.00">First</text>
</a>
</g>
</g>
<g id="clust8" class="cluster">
<title>clusternode_Set(8)</title>
<g id="a_clust8"><a xlink:title="PreUpdate">
<polygon fill="white" stroke="black" points="311,-102 311,-141 398,-141 398,-102 311,-102"/>
<text text-anchor="middle" x="354.5" y="-125.8" font-family="Helvetica,sans-Serif" font-size="14.00">PreUpdate</text>
</a>
</g>
</g>
<g id="clust9" class="cluster">
<title>clusternode_Set(9)</title>
<g id="a_clust9"><a xlink:title="StateTransitions">
<polygon fill="white" stroke="black" points="561,-102 561,-141 685,-141 685,-102 561,-102"/>
<text text-anchor="middle" x="623" y="-125.8" font-family="Helvetica,sans-Serif" font-size="14.00">StateTransitions</text>
</a>
</g>
</g>
<g id="clust10" class="cluster">
<title>clusternode_Set(10)</title>
<g id="a_clust10"><a xlink:title="FixedUpdate">
<polygon fill="white" stroke="black" points="705,-102 705,-141 805,-141 805,-102 705,-102"/>
<text text-anchor="middle" x="755" y="-125.8" font-family="Helvetica,sans-Serif" font-size="14.00">FixedUpdate</text>
</a>
</g>
</g>
<g id="clust11" class="cluster">
<title>clusternode_Set(11)</title>
<g id="a_clust11"><a xlink:title="PostUpdate">
<polygon fill="white" stroke="black" points="1031,-102 1031,-437 2008,-437 2008,-102 1031,-102"/>
<text text-anchor="middle" x="1519.5" y="-421.8" font-family="Helvetica,sans-Serif" font-size="14.00">PostUpdate</text>
</a>
</g>
</g>
<g id="clust12" class="cluster">
<title>clusternode_Set(20)</title>
<g id="a_clust12"><a xlink:title="TransformPropagate">
<polygon fill="white" stroke="black" points="1045,-347 1045,-386 1197,-386 1197,-347 1045,-347"/>
<text text-anchor="middle" x="1121" y="-370.8" font-family="Helvetica,sans-Serif" font-size="14.00">TransformPropagate</text>
</a>
</g>
</g>
<g id="clust13" class="cluster">
<title>clusternode_Set(82)</title>
<g id="a_clust13"><a xlink:title="CameraUpdateSystem">
<polygon fill="white" stroke="black" points="1039,-268 1039,-307 1203,-307 1203,-268 1039,-268"/>
<text text-anchor="middle" x="1121" y="-291.8" font-family="Helvetica,sans-Serif" font-size="14.00">CameraUpdateSystem</text>
</a>
</g>
</g>
<g id="clust14" class="cluster">
<title>clusternode_Set(87)</title>
<g id="a_clust14"><a xlink:title="CalculateBoundsFlush">
<polygon fill="white" stroke="black" points="1560,-158 1560,-197 1724,-197 1724,-158 1560,-158"/>
<text text-anchor="middle" x="1642" y="-181.8" font-family="Helvetica,sans-Serif" font-size="14.00">CalculateBoundsFlush</text>
</a>
</g>
</g>
<g id="clust15" class="cluster">
<title>clusternode_Set(91)</title>
<g id="a_clust15"><a xlink:title="CheckVisibility">
<polygon fill="white" stroke="black" points="1065,-221 1065,-260 1177,-260 1177,-221 1065,-221"/>
<text text-anchor="middle" x="1121" y="-244.8" font-family="Helvetica,sans-Serif" font-size="14.00">CheckVisibility</text>
</a>
</g>
</g>
<g id="clust16" class="cluster">
<title>clusternode_Set(137)</title>
<g id="a_clust16"><a xlink:title="AddClusters">
<polygon fill="white" stroke="black" points="1063,-120 1063,-213 1179,-213 1179,-120 1063,-120"/>
<text text-anchor="middle" x="1121" y="-197.8" font-family="Helvetica,sans-Serif" font-size="14.00">AddClusters</text>
</a>
</g>
</g>
<g id="clust17" class="cluster">
<title>clusternode_Set(139)</title>
<g id="a_clust17"><a xlink:title="AssignLightsToClusters">
<polygon fill="white" stroke="black" points="1271.5,-142 1271.5,-235 1467.5,-235 1467.5,-142 1271.5,-142"/>
<text text-anchor="middle" x="1369.5" y="-219.8" font-family="Helvetica,sans-Serif" font-size="14.00">AssignLightsToClusters</text>
</a>
</g>
</g>
<g id="clust18" class="cluster">
<title>clusternode_Set(140)</title>
<g id="a_clust18"><a xlink:title="CheckLightVisibility">
<polygon fill="white" stroke="black" points="1784,-130 1784,-223 2000,-223 2000,-130 1784,-130"/>
<text text-anchor="middle" x="1892" y="-207.8" font-family="Helvetica,sans-Serif" font-size="14.00">CheckLightVisibility</text>
</a>
</g>
</g>
<g id="clust19" class="cluster">
<title>clusternode_Set(141)</title>
<g id="a_clust19"><a xlink:title="UpdateDirectionalLightCascades">
<polygon fill="white" stroke="black" points="1239,-243 1239,-336 1500,-336 1500,-243 1239,-243"/>
<text text-anchor="middle" x="1369.5" y="-320.8" font-family="Helvetica,sans-Serif" font-size="14.00">UpdateDirectionalLightCascades</text>
</a>
</g>
</g>
<g id="clust20" class="cluster">
<title>clusternode_Set(142)</title>
<g id="a_clust20"><a xlink:title="UpdateLightFrusta">
<polygon fill="white" stroke="black" points="1520,-205 1520,-406 1764,-406 1764,-205 1520,-205"/>
<text text-anchor="middle" x="1642" y="-390.8" font-family="Helvetica,sans-Serif" font-size="14.00">UpdateLightFrusta</text>
</a>
</g>
</g>
<g id="clust21" class="cluster">
<title>clusternode_Set(12)</title>
<g id="a_clust21"><a xlink:title="Last">
<polygon fill="white" stroke="black" points="1620,-31 1620,-70 1664,-70 1664,-31 1620,-31"/>
<text text-anchor="middle" x="1642" y="-54.8" font-family="Helvetica,sans-Serif" font-size="14.00">Last</text>
</a>
</g>
</g>
<g id="clust22" class="cluster">
<title>clusternode_Set(22)</title>
<g id="a_clust22"><a xlink:title="PropagateTransformsSet">
<polygon fill="white" stroke="black" points="0,-284 0,-323 180,-323 180,-284 0,-284"/>
<text text-anchor="middle" x="90" y="-307.8" font-family="Helvetica,sans-Serif" font-size="14.00">PropagateTransformsSet</text>
</a>
</g>
</g>
<g id="clust23" class="cluster">
<title>clusternode_Set(59)</title>
<g id="a_clust23"><a xlink:title="LoadAssets">
<polygon fill="white" stroke="black" points="200,-78 200,-117 291,-117 291,-78 200,-78"/>
<text text-anchor="middle" x="245.5" y="-101.8" font-family="Helvetica,sans-Serif" font-size="14.00">LoadAssets</text>
</a>
</g>
</g>
<g id="clust24" class="cluster">
<title>clusternode_Set(60)</title>
<g id="a_clust24"><a xlink:title="AssetEvents">
<polygon fill="white" stroke="black" points="1321.5,-8 1321.5,-47 1417.5,-47 1417.5,-8 1321.5,-8"/>
<text text-anchor="middle" x="1369.5" y="-31.8" font-family="Helvetica,sans-Serif" font-size="14.00">AssetEvents</text>
</a>
</g>
</g>
<!-- set_marker_node_Set(0) -->
<!-- set_marker_node_Set(4) -->
<!-- set_marker_node_Set(0)&#45;&gt;set_marker_node_Set(4) -->
<g id="edge7" class="edge">
<title>set_marker_node_Set(0)&#45;&gt;set_marker_node_Set(4)</title>
<g id="a_edge7"><a xlink:title="Update → UpdateFlush">
<path fill="none" stroke="#ee9e44" stroke-width="2" d="M890,-110C892.35,-110 894.77,-110 897.22,-110"/>
<polygon fill="#ee9e44" stroke="#ee9e44" stroke-width="2" points="896.97,-113.5 906.97,-110 896.97,-106.5 896.97,-113.5"/>
</a>
</g>
</g>
<!-- set_marker_node_Set(2) -->
<!-- set_marker_node_Set(8) -->
<!-- set_marker_node_Set(2)&#45;&gt;set_marker_node_Set(8) -->
<g id="edge2" class="edge">
<title>set_marker_node_Set(2)&#45;&gt;set_marker_node_Set(8)</title>
<g id="a_edge2"><a xlink:title="FirstFlush → PreUpdate">
<path fill="none" stroke="#881877" stroke-width="2" d="M283.2,-125C288.17,-123.94 293.34,-122.82 298.52,-121.71"/>
<polygon fill="#881877" stroke="#881877" stroke-width="2" points="299,-125.19 308.04,-119.66 297.53,-118.34 299,-125.19"/>
</a>
</g>
</g>
<!-- set_marker_node_Set(3) -->
<!-- set_marker_node_Set(9) -->
<!-- set_marker_node_Set(3)&#45;&gt;set_marker_node_Set(9) -->
<g id="edge4" class="edge">
<title>set_marker_node_Set(3)&#45;&gt;set_marker_node_Set(9)</title>
<g id="a_edge4"><a xlink:title="PreUpdateFlush → StateTransitions">
<path fill="none" stroke="#aa3a55" stroke-width="2" d="M541,-110C543.39,-110 545.8,-110 548.21,-110"/>
<polygon fill="#aa3a55" stroke="#aa3a55" stroke-width="2" points="547.98,-113.5 557.98,-110 547.98,-106.5 547.98,-113.5"/>
</a>
</g>
</g>
<!-- set_marker_node_Set(11) -->
<!-- set_marker_node_Set(4)&#45;&gt;set_marker_node_Set(11) -->
<g id="edge8" class="edge">
<title>set_marker_node_Set(4)&#45;&gt;set_marker_node_Set(11)</title>
<g id="a_edge8"><a xlink:title="UpdateFlush → PostUpdate">
<path fill="none" stroke="#663699" stroke-width="2" d="M1011,-110C1013.3,-110 1015.64,-110 1018.01,-110"/>
<polygon fill="#663699" stroke="#663699" stroke-width="2" points="1017.97,-113.5 1027.97,-110 1017.97,-106.5 1017.97,-113.5"/>
</a>
</g>
</g>
<!-- set_marker_node_Set(5) -->
<!-- set_marker_node_Set(12) -->
<!-- set_marker_node_Set(5)&#45;&gt;set_marker_node_Set(12) -->
<g id="edge10" class="edge">
<title>set_marker_node_Set(5)&#45;&gt;set_marker_node_Set(12)</title>
<g id="a_edge10"><a xlink:title="PostUpdateFlush → Last">
<path fill="none" stroke="#22c2bb" stroke-width="2" d="M1434.5,-57.32C1488.68,-52.51 1564.22,-45.81 1607.31,-41.99"/>
<polygon fill="#22c2bb" stroke="#22c2bb" stroke-width="2" points="1607.33,-45.5 1616.99,-41.13 1606.71,-38.53 1607.33,-45.5"/>
</a>
</g>
</g>
<!-- set_marker_node_Set(6) -->
<!-- set_marker_node_Set(7) -->
<!-- set_marker_node_Set(7)&#45;&gt;set_marker_node_Set(2) -->
<g id="edge1" class="edge">
<title>set_marker_node_Set(7)&#45;&gt;set_marker_node_Set(2)</title>
<g id="a_edge1"><a xlink:title="First → FirstFlush">
<path fill="none" stroke="#eede00" stroke-width="2" d="M113,-112.45C133.39,-115.65 164.54,-120.53 191.34,-124.74"/>
<polygon fill="#eede00" stroke="#eede00" stroke-width="2" points="190.59,-128.17 201.01,-126.26 191.68,-121.25 190.59,-128.17"/>
</a>
</g>
</g>
<!-- set_marker_node_Set(59) -->
<!-- set_marker_node_Set(7)&#45;&gt;set_marker_node_Set(59) -->
<g id="edge13" class="edge">
<title>set_marker_node_Set(7)&#45;&gt;set_marker_node_Set(59)</title>
<g id="a_edge13"><a xlink:title="First → LoadAssets">
<path fill="none" stroke="#881877" stroke-width="2" d="M113,-105.69C132.35,-102.78 161.37,-98.42 187.19,-94.54"/>
<polygon fill="#881877" stroke="#881877" stroke-width="2" points="187.64,-98.01 197.01,-93.06 186.6,-91.09 187.64,-98.01"/>
</a>
</g>
</g>
<!-- set_marker_node_Set(8)&#45;&gt;set_marker_node_Set(3) -->
<g id="edge3" class="edge">
<title>set_marker_node_Set(8)&#45;&gt;set_marker_node_Set(3)</title>
<g id="a_edge3"><a xlink:title="PreUpdate → PreUpdateFlush">
<path fill="none" stroke="#00b0cc" stroke-width="2" d="M398,-110C400.39,-110 402.82,-110 405.28,-110"/>
<polygon fill="#00b0cc" stroke="#00b0cc" stroke-width="2" points="404.98,-113.5 414.98,-110 404.98,-106.5 404.98,-113.5"/>
</a>
</g>
</g>
<!-- set_marker_node_Set(10) -->
<!-- set_marker_node_Set(9)&#45;&gt;set_marker_node_Set(10) -->
<g id="edge5" class="edge">
<title>set_marker_node_Set(9)&#45;&gt;set_marker_node_Set(10)</title>
<g id="a_edge5"><a xlink:title="StateTransitions → FixedUpdate">
<path fill="none" stroke="#44d488" stroke-width="2" d="M685,-110C687.39,-110 689.79,-110 692.19,-110"/>
<polygon fill="#44d488" stroke="#44d488" stroke-width="2" points="691.98,-113.5 701.98,-110 691.98,-106.5 691.98,-113.5"/>
</a>
</g>
</g>
<!-- set_marker_node_Set(10)&#45;&gt;set_marker_node_Set(0) -->
<g id="edge6" class="edge">
<title>set_marker_node_Set(10)&#45;&gt;set_marker_node_Set(0)</title>
<g id="a_edge6"><a xlink:title="FixedUpdate → Update">
<path fill="none" stroke="#0090cc" stroke-width="2" d="M805,-110C807.37,-110 809.75,-110 812.11,-110"/>
<polygon fill="#0090cc" stroke="#0090cc" stroke-width="2" points="811.98,-113.5 821.98,-110 811.98,-106.5 811.98,-113.5"/>
</a>
</g>
</g>
<!-- set_marker_node_Set(11)&#45;&gt;set_marker_node_Set(5) -->
<g id="edge9" class="edge">
<title>set_marker_node_Set(11)&#45;&gt;set_marker_node_Set(5)</title>
<g id="a_edge9"><a xlink:title="PostUpdate → PostUpdateFlush">
<path fill="none" stroke="#3363bb" stroke-width="2" d="M1163.94,-102C1199.2,-95.28 1250.51,-85.5 1292.91,-77.41"/>
<polygon fill="#3363bb" stroke="#3363bb" stroke-width="2" points="1293.36,-80.89 1302.53,-75.58 1292.05,-74.01 1293.36,-80.89"/>
</a>
</g>
</g>
<!-- set_marker_node_Set(60) -->
<!-- set_marker_node_Set(11)&#45;&gt;set_marker_node_Set(60) -->
<g id="edge14" class="edge">
<title>set_marker_node_Set(11)&#45;&gt;set_marker_node_Set(60)</title>
<g id="a_edge14"><a xlink:title="PostUpdate → AssetEvents">
<path fill="none" stroke="#00b0cc" stroke-width="2" d="M1135.58,-102C1156.97,-89.68 1200.09,-65.89 1239,-51 1261.43,-42.41 1286.81,-35.07 1309.12,-29.35"/>
<polygon fill="#00b0cc" stroke="#00b0cc" stroke-width="2" points="1309.71,-32.81 1318.57,-27 1308.02,-26.02 1309.71,-32.81"/>
</a>
</g>
</g>
<!-- set_marker_node_Set(20) -->
<!-- node_System(115) -->
<g id="node19" class="node">
<title>node_System(115)</title>
<g id="a_node19"><a xlink:title="bevy_pbr::light::assign_lights_to_clusters">
<polygon fill="white" stroke="black" points="1459.5,-186 1279.5,-186 1279.5,-150 1459.5,-150 1459.5,-186"/>
<text text-anchor="middle" x="1369.5" y="-164.3" font-family="Times,serif" font-size="14.00">assign_lights_to_clusters</text>
</a>
</g>
</g>
<!-- set_marker_node_Set(20)&#45;&gt;node_System(115) -->
<g id="edge16" class="edge">
<title>set_marker_node_Set(20)&#45;&gt;node_System(115)</title>
<g id="a_edge16"><a xlink:title="TransformPropagate → assign_lights_to_clusters">
<path fill="none" stroke="#44d488" stroke-width="2" d="M1147.43,-347C1165.35,-340.13 1188.62,-328.53 1203,-311 1237.24,-269.27 1199.05,-231.31 1239,-195 1247.12,-187.62 1256.73,-182.05 1266.98,-177.88"/>
<polygon fill="#44d488" stroke="#44d488" stroke-width="2" points="1268.11,-181.19 1276.4,-174.59 1265.8,-174.58 1268.11,-181.19"/>
</a>
</g>
</g>
<!-- node_System(120) -->
<g id="node21" class="node">
<title>node_System(120)</title>
<g id="a_node21"><a xlink:title="bevy_pbr::light::check_light_mesh_visibility">
<polygon fill="white" stroke="black" points="1992,-174 1792,-174 1792,-138 1992,-138 1992,-174"/>
<text text-anchor="middle" x="1892" y="-152.3" font-family="Times,serif" font-size="14.00">check_light_mesh_visibility</text>
</a>
</g>
</g>
<!-- set_marker_node_Set(20)&#45;&gt;node_System(120) -->
<g id="edge29" class="edge">
<title>set_marker_node_Set(20)&#45;&gt;node_System(120)</title>
<g id="a_edge29"><a xlink:title="TransformPropagate → check_light_mesh_visibility">
<path fill="none" stroke="#ee9e44" stroke-width="2" d="M1197,-351.75C1210.96,-351.15 1225.42,-350.55 1239,-350 1253.5,-349.41 1489.39,-349.9 1500,-340 1530.39,-311.63 1489.07,-181.78 1520,-154 1538.98,-136.95 1676.63,-141.77 1778.76,-147.93"/>
<polygon fill="#ee9e44" stroke="#ee9e44" stroke-width="2" points="1778.43,-151.41 1788.63,-148.53 1778.87,-144.43 1778.43,-151.41"/>
</a>
</g>
</g>
<!-- node_System(116) -->
<g id="node23" class="node">
<title>node_System(116)</title>
<g id="a_node23"><a xlink:title="bevy_pbr::light::update_directional_light_cascades">
<polygon fill="white" stroke="black" points="1492,-287 1247,-287 1247,-251 1492,-251 1492,-287"/>
<text text-anchor="middle" x="1369.5" y="-265.3" font-family="Times,serif" font-size="14.00">update_directional_light_cascades</text>
</a>
</g>
</g>
<!-- set_marker_node_Set(20)&#45;&gt;node_System(116) -->
<g id="edge19" class="edge">
<title>set_marker_node_Set(20)&#45;&gt;node_System(116)</title>
<g id="a_edge19"><a xlink:title="TransformPropagate → update_directional_light_cascades">
<path fill="none" stroke="#663699" stroke-width="2" d="M1136.65,-347C1163.21,-332.62 1218.45,-303.19 1239,-296 1244.06,-294.23 1249.28,-292.56 1254.57,-290.98"/>
<polygon fill="#663699" stroke="#663699" stroke-width="2" points="1255.46,-294.37 1264.14,-288.3 1253.57,-287.63 1255.46,-294.37"/>
</a>
</g>
</g>
<!-- node_System(117) -->
<g id="node25" class="node">
<title>node_System(117)</title>
<g id="a_node25"><a xlink:title="bevy_pbr::light::update_directional_light_frusta">
<polygon fill="white" stroke="black" points="1756,-249 1528,-249 1528,-213 1756,-213 1756,-249"/>
<text text-anchor="middle" x="1642" y="-227.3" font-family="Times,serif" font-size="14.00">update_directional_light_frusta</text>
</a>
</g>
</g>
<!-- set_marker_node_Set(20)&#45;&gt;node_System(117) -->
<g id="edge22" class="edge">
<title>set_marker_node_Set(20)&#45;&gt;node_System(117)</title>
<g id="a_edge22"><a xlink:title="TransformPropagate → update_directional_light_frusta">
<path fill="none" stroke="#99d955" stroke-width="2" d="M1197,-358.92C1300.55,-363.59 1477.19,-368.63 1500,-350 1532.41,-323.53 1490.49,-287.67 1520,-258 1520.2,-257.8 1520.4,-257.6 1520.6,-257.4"/>
<polygon fill="#99d955" stroke="#99d955" stroke-width="2" points="1522.52,-260.36 1528.03,-251.3 1518.08,-254.95 1522.52,-260.36"/>
</a>
</g>
</g>
<!-- node_System(118) -->
<g id="node26" class="node">
<title>node_System(118)</title>
<g id="a_node26"><a xlink:title="bevy_pbr::light::update_point_light_frusta">
<polygon fill="white" stroke="black" points="1737,-303 1547,-303 1547,-267 1737,-267 1737,-303"/>
<text text-anchor="middle" x="1642" y="-281.3" font-family="Times,serif" font-size="14.00">update_point_light_frusta</text>
</a>
</g>
</g>
<!-- set_marker_node_Set(20)&#45;&gt;node_System(118) -->
<g id="edge24" class="edge">
<title>set_marker_node_Set(20)&#45;&gt;node_System(118)</title>
<g id="a_edge24"><a xlink:title="TransformPropagate → update_point_light_frusta">
<path fill="none" stroke="#881877" stroke-width="2" d="M1197,-368.49C1293.16,-384.03 1453.12,-403.42 1500,-370 1522.2,-354.17 1499.67,-330.17 1520,-312 1524.62,-307.87 1529.74,-304.33 1535.17,-301.29"/>
<polygon fill="#881877" stroke="#881877" stroke-width="2" points="1536.49,-304.54 1544,-297.06 1533.47,-298.23 1536.49,-304.54"/>
</a>
</g>
</g>
<!-- node_System(119) -->
<g id="node27" class="node">
<title>node_System(119)</title>
<g id="a_node27"><a xlink:title="bevy_pbr::light::update_spot_light_frusta">
<polygon fill="white" stroke="black" points="1733,-357 1551,-357 1551,-321 1733,-321 1733,-357"/>
<text text-anchor="middle" x="1642" y="-335.3" font-family="Times,serif" font-size="14.00">update_spot_light_frusta</text>
</a>
</g>
</g>
<!-- set_marker_node_Set(20)&#45;&gt;node_System(119) -->
<g id="edge26" class="edge">
<title>set_marker_node_Set(20)&#45;&gt;node_System(119)</title>
<g id="a_edge26"><a xlink:title="TransformPropagate → update_spot_light_frusta">
<path fill="none" stroke="#aa3a55" stroke-width="2" d="M1197,-380.93C1210.81,-384.7 1225.22,-387.98 1239,-390 1353.78,-406.8 1394.95,-439.2 1500,-390 1512.57,-384.11 1508.15,-373.23 1520,-366 1525.86,-362.43 1532.13,-359.33 1538.63,-356.63"/>
<polygon fill="#aa3a55" stroke="#aa3a55" stroke-width="2" points="1539.53,-360.03 1547.68,-353.27 1537.09,-353.47 1539.53,-360.03"/>
</a>
</g>
</g>
<!-- set_marker_node_Set(82) -->
<!-- set_marker_node_Set(82)&#45;&gt;node_System(115) -->
<g id="edge18" class="edge">
<title>set_marker_node_Set(82)&#45;&gt;node_System(115)</title>
<g id="a_edge18"><a xlink:title="CameraUpdateSystem → assign_lights_to_clusters">
<path fill="none" stroke="#ee9e44" stroke-width="2" d="M1196.48,-268C1198.74,-266.81 1200.92,-265.48 1203,-264 1231.18,-243.94 1211.42,-215.87 1239,-195 1247.33,-188.69 1256.79,-183.78 1266.72,-179.96"/>
<polygon fill="#ee9e44" stroke="#ee9e44" stroke-width="2" points="1267.79,-183.29 1276.15,-176.78 1265.55,-176.66 1267.79,-183.29"/>
</a>
</g>
</g>
<!-- set_marker_node_Set(82)&#45;&gt;node_System(116) -->
<g id="edge20" class="edge">
<title>set_marker_node_Set(82)&#45;&gt;node_System(116)</title>
<g id="a_edge20"><a xlink:title="CameraUpdateSystem → update_directional_light_cascades">
<path fill="none" stroke="#3363bb" stroke-width="2" d="M1203,-273.7C1212.95,-273.42 1223.33,-273.12 1233.81,-272.82"/>
<polygon fill="#3363bb" stroke="#3363bb" stroke-width="2" points="1233.77,-276.33 1243.67,-272.54 1233.57,-269.33 1233.77,-276.33"/>
</a>
</g>
</g>
<!-- set_marker_node_Set(87) -->
<!-- set_marker_node_Set(87)&#45;&gt;node_System(120) -->
<g id="edge28" class="edge">
<title>set_marker_node_Set(87)&#45;&gt;node_System(120)</title>
<g id="a_edge28"><a xlink:title="CalculateBoundsFlush → check_light_mesh_visibility">
<path fill="none" stroke="#0090cc" stroke-width="2" d="M1724,-162.73C1741.53,-162.03 1760.38,-161.27 1778.87,-160.52"/>
<polygon fill="#0090cc" stroke="#0090cc" stroke-width="2" points="1778.86,-164.02 1788.71,-160.12 1778.58,-157.03 1778.86,-164.02"/>
</a>
</g>
</g>
<!-- set_marker_node_Set(91) -->
<!-- set_marker_node_Set(91)&#45;&gt;node_System(115) -->
<g id="edge17" class="edge">
<title>set_marker_node_Set(91)&#45;&gt;node_System(115)</title>
<g id="a_edge17"><a xlink:title="CheckVisibility → assign_lights_to_clusters">
<path fill="none" stroke="#0090cc" stroke-width="2" d="M1177,-223.9C1185.84,-222.22 1194.78,-219.98 1203,-217 1220.63,-210.61 1221.57,-201.9 1239,-195 1247.83,-191.5 1257.19,-188.43 1266.68,-185.74"/>
<polygon fill="#0090cc" stroke="#0090cc" stroke-width="2" points="1267.5,-189.14 1276.27,-183.19 1265.7,-182.37 1267.5,-189.14"/>
</a>
</g>
</g>
<!-- set_marker_node_Set(91)&#45;&gt;node_System(120) -->
<g id="edge31" class="edge">
<title>set_marker_node_Set(91)&#45;&gt;node_System(120)</title>
<g id="a_edge31"><a xlink:title="CheckVisibility → check_light_mesh_visibility">
<path fill="none" stroke="#3363bb" stroke-width="2" d="M1177,-228.86C1186.42,-226.7 1195.55,-223.02 1203,-217 1238.45,-188.36 1201.55,-146.96 1239,-121 1282.15,-91.1 1604.23,-122.8 1778.99,-142.6"/>
<polygon fill="#3363bb" stroke="#3363bb" stroke-width="2" points="1778.48,-146.07 1788.81,-143.72 1779.28,-139.11 1778.48,-146.07"/>
</a>
</g>
</g>
<!-- set_marker_node_Set(91)&#45;&gt;node_System(117) -->
<g id="edge21" class="edge">
<title>set_marker_node_Set(91)&#45;&gt;node_System(117)</title>
<g id="a_edge21"><a xlink:title="CheckVisibility → update_directional_light_frusta">
<path fill="none" stroke="#22c2bb" stroke-width="2" d="M1177,-228.36C1186.33,-226.23 1195.44,-222.69 1203,-217 1233.83,-193.8 1206.55,-158.87 1239,-138 1263.39,-122.31 1476.6,-120.88 1500,-138 1523.71,-155.35 1498.57,-180.91 1520,-201 1521.63,-202.53 1523.32,-203.98 1525.07,-205.36"/>
<polygon fill="#22c2bb" stroke="#22c2bb" stroke-width="2" points="1522.92,-208.13 1533.16,-210.83 1526.84,-202.33 1522.92,-208.13"/>
</a>
</g>
</g>
<!-- set_marker_node_Set(137) -->
<!-- node_System(113) -->
<g id="node17" class="node">
<title>node_System(113)</title>
<g id="a_node17"><a xlink:title="bevy_pbr::light::add_clusters">
<polygon fill="white" stroke="black" points="1171,-164 1071,-164 1071,-128 1171,-128 1171,-164"/>
<text text-anchor="middle" x="1121" y="-142.3" font-family="Times,serif" font-size="14.00">add_clusters</text>
</a>
</g>
</g>
<!-- set_marker_node_Set(139) -->
<!-- set_marker_node_Set(139)&#45;&gt;node_System(118) -->
<g id="edge25" class="edge">
<title>set_marker_node_Set(139)&#45;&gt;node_System(118)</title>
<g id="a_edge25"><a xlink:title="AssignLightsToClusters → update_point_light_frusta">
<path fill="none" stroke="#00b0cc" stroke-width="2" d="M1467.5,-224.48C1478.79,-228.52 1489.88,-233.31 1500,-239 1510.69,-245.01 1509.18,-252.23 1520,-258 1524.7,-260.51 1529.62,-262.78 1534.68,-264.84"/>
<polygon fill="#00b0cc" stroke="#00b0cc" stroke-width="2" points="1533.26,-268.05 1543.85,-268.23 1535.69,-261.48 1533.26,-268.05"/>
</a>
</g>
</g>
<!-- set_marker_node_Set(139)&#45;&gt;node_System(119) -->
<g id="edge27" class="edge">
<title>set_marker_node_Set(139)&#45;&gt;node_System(119)</title>
<g id="a_edge27"><a xlink:title="AssignLightsToClusters → update_spot_light_frusta">
<path fill="none" stroke="#44d488" stroke-width="2" d="M1467.5,-217.97C1479.55,-223.05 1490.84,-229.87 1500,-239 1523.83,-262.75 1495.65,-288.79 1520,-312 1525.54,-317.28 1531.87,-321.61 1538.68,-325.16"/>
<polygon fill="#44d488" stroke="#44d488" stroke-width="2" points="1537.18,-328.33 1547.74,-329.19 1540.03,-321.93 1537.18,-328.33"/>
</a>
</g>
</g>
<!-- set_marker_node_Set(140) -->
<!-- set_marker_node_Set(141) -->
<!-- set_marker_node_Set(141)&#45;&gt;node_System(117) -->
<g id="edge23" class="edge">
<title>set_marker_node_Set(141)&#45;&gt;node_System(117)</title>
<g id="a_edge23"><a xlink:title="UpdateDirectionalLightCascades → update_directional_light_frusta">
<path fill="none" stroke="#eede00" stroke-width="2" d="M1500,-296C1515.99,-285.58 1504.84,-269.59 1520,-258 1520.79,-257.4 1521.58,-256.81 1522.39,-256.24"/>
<polygon fill="#eede00" stroke="#eede00" stroke-width="2" points="1524.14,-259.27 1530.81,-251.04 1520.46,-253.31 1524.14,-259.27"/>
</a>
</g>
</g>
<!-- set_marker_node_Set(142) -->
<!-- set_marker_node_Set(142)&#45;&gt;node_System(120) -->
<g id="edge30" class="edge">
<title>set_marker_node_Set(142)&#45;&gt;node_System(120)</title>
<g id="a_edge30"><a xlink:title="UpdateLightFrusta → check_light_mesh_visibility">
<path fill="none" stroke="#663699" stroke-width="2" d="M1764,-366C1791.12,-339.8 1762.41,-232.61 1785.98,-185.16"/>
<polygon fill="#663699" stroke="#663699" stroke-width="2" points="1788.81,-187.23 1791.48,-176.98 1783,-183.33 1788.81,-187.23"/>
</a>
</g>
</g>
<!-- set_marker_node_Set(12)&#45;&gt;set_marker_node_Set(6) -->
<g id="edge11" class="edge">
<title>set_marker_node_Set(12)&#45;&gt;set_marker_node_Set(6)</title>
<g id="a_edge11"><a xlink:title="Last → LastFlush">
<path fill="none" stroke="#99d955" stroke-width="2" d="M1664,-39C1702.39,-39 1784.94,-39 1839.2,-39"/>
<polygon fill="#99d955" stroke="#99d955" stroke-width="2" points="1838.97,-42.5 1848.97,-39 1838.97,-35.5 1838.97,-42.5"/>
</a>
</g>
</g>
<!-- set_marker_node_Set(22) -->
<!-- set_marker_node_Set(59)&#45;&gt;set_marker_node_Set(8) -->
<g id="edge12" class="edge">
<title>set_marker_node_Set(59)&#45;&gt;set_marker_node_Set(8)</title>
<g id="a_edge12"><a xlink:title="LoadAssets → PreUpdate">
<path fill="none" stroke="#eede00" stroke-width="2" d="M291,-96.09C295.6,-97.12 300.28,-98.18 304.91,-99.21"/>
<polygon fill="#eede00" stroke="#eede00" stroke-width="2" points="303.87,-102.57 314.39,-101.34 305.4,-95.74 303.87,-102.57"/>
</a>
</g>
</g>
<!-- set_marker_node_Set(60)&#45;&gt;set_marker_node_Set(12) -->
<g id="edge15" class="edge">
<title>set_marker_node_Set(60)&#45;&gt;set_marker_node_Set(12)</title>
<g id="a_edge15"><a xlink:title="AssetEvents → Last">
<path fill="none" stroke="#aa3a55" stroke-width="2" d="M1417.5,-20C1471.71,-24.61 1559.48,-32.07 1607.31,-36.14"/>
<polygon fill="#aa3a55" stroke="#aa3a55" stroke-width="2" points="1606.72,-39.6 1616.98,-36.96 1607.32,-32.62 1606.72,-39.6"/>
</a>
</g>
</g>
</g>
</svg>
