<?xml version="1.0" encoding="UTF-8" standalone="no"?>
<!DOCTYPE svg PUBLIC "-//W3C//DTD SVG 1.1//EN"
 "http://www.w3.org/Graphics/SVG/1.1/DTD/svg11.dtd">
<!-- Generated by graphviz version 7.1.0 (0)
 -->
<!-- Pages: 1 -->
<svg width="2104pt" height="1062pt"
 viewBox="0.00 0.00 2104.00 1062.00" xmlns="http://www.w3.org/2000/svg" xmlns:xlink="http://www.w3.org/1999/xlink">
<g id="graph0" class="graph" transform="scale(1 1) rotate(0) translate(4 1058)">
<polygon fill="white" stroke="none" points="-4,4 -4,-1058 2100,-1058 2100,4 -4,4"/>
<g id="clust1" class="cluster">
<title>clusternode_Set(0)</title>
<g id="a_clust1"><a xlink:title="Update">
<path fill="#000000" fill-opacity="0.031373" stroke="#000000" stroke-width="2" stroke-opacity="0.250980" d="M1194,-971C1194,-971 1235,-971 1235,-971 1241,-971 1247,-977 1247,-983 1247,-983 1247,-998 1247,-998 1247,-1004 1241,-1010 1235,-1010 1235,-1010 1194,-1010 1194,-1010 1188,-1010 1182,-1004 1182,-998 1182,-998 1182,-983 1182,-983 1182,-977 1188,-971 1194,-971"/>
<text text-anchor="middle" x="1214.5" y="-994.8" font-family="Helvetica,sans-Serif" font-size="14.00">Update</text>
</a>
</g>
</g>
<g id="clust2" class="cluster">
<title>clusternode_Set(2)</title>
<g id="a_clust2"><a xlink:title="FirstFlush">
<path fill="#000000" fill-opacity="0.031373" stroke="#000000" stroke-width="2" stroke-opacity="0.250980" d="M263.5,-995C263.5,-995 321.5,-995 321.5,-995 327.5,-995 333.5,-1001 333.5,-1007 333.5,-1007 333.5,-1022 333.5,-1022 333.5,-1028 327.5,-1034 321.5,-1034 321.5,-1034 263.5,-1034 263.5,-1034 257.5,-1034 251.5,-1028 251.5,-1022 251.5,-1022 251.5,-1007 251.5,-1007 251.5,-1001 257.5,-995 263.5,-995"/>
<text text-anchor="middle" x="292.5" y="-1018.8" font-family="Helvetica,sans-Serif" font-size="14.00">FirstFlush</text>
</a>
</g>
</g>
<g id="clust3" class="cluster">
<title>clusternode_Set(3)</title>
<g id="a_clust3"><a xlink:title="PreUpdateFlush">
<path fill="#000000" fill-opacity="0.031373" stroke="#000000" stroke-width="2" stroke-opacity="0.250980" d="M787,-971C787,-971 886,-971 886,-971 892,-971 898,-977 898,-983 898,-983 898,-998 898,-998 898,-1004 892,-1010 886,-1010 886,-1010 787,-1010 787,-1010 781,-1010 775,-1004 775,-998 775,-998 775,-983 775,-983 775,-977 781,-971 787,-971"/>
<text text-anchor="middle" x="836.5" y="-994.8" font-family="Helvetica,sans-Serif" font-size="14.00">PreUpdateFlush</text>
</a>
</g>
</g>
<g id="clust4" class="cluster">
<title>clusternode_Set(4)</title>
<g id="a_clust4"><a xlink:title="UpdateFlush">
<path fill="#000000" fill-opacity="0.031373" stroke="#000000" stroke-width="2" stroke-opacity="0.250980" d="M1279,-971C1279,-971 1356,-971 1356,-971 1362,-971 1368,-977 1368,-983 1368,-983 1368,-998 1368,-998 1368,-1004 1362,-1010 1356,-1010 1356,-1010 1279,-1010 1279,-1010 1273,-1010 1267,-1004 1267,-998 1267,-998 1267,-983 1267,-983 1267,-977 1273,-971 1279,-971"/>
<text text-anchor="middle" x="1317.5" y="-994.8" font-family="Helvetica,sans-Serif" font-size="14.00">UpdateFlush</text>
</a>
</g>
</g>
<g id="clust5" class="cluster">
<title>clusternode_Set(5)</title>
<g id="a_clust5"><a xlink:title="PostUpdateFlush">
<path fill="#000000" fill-opacity="0.031373" stroke="#000000" stroke-width="2" stroke-opacity="0.250980" d="M1664.5,-1007C1664.5,-1007 1769.5,-1007 1769.5,-1007 1775.5,-1007 1781.5,-1013 1781.5,-1019 1781.5,-1019 1781.5,-1034 1781.5,-1034 1781.5,-1040 1775.5,-1046 1769.5,-1046 1769.5,-1046 1664.5,-1046 1664.5,-1046 1658.5,-1046 1652.5,-1040 1652.5,-1034 1652.5,-1034 1652.5,-1019 1652.5,-1019 1652.5,-1013 1658.5,-1007 1664.5,-1007"/>
<text text-anchor="middle" x="1717" y="-1030.8" font-family="Helvetica,sans-Serif" font-size="14.00">PostUpdateFlush</text>
</a>
</g>
</g>
<g id="clust6" class="cluster">
<title>clusternode_Set(6)</title>
<g id="a_clust6"><a xlink:title="LastFlush">
<path fill="#000000" fill-opacity="0.031373" stroke="#000000" stroke-width="2" stroke-opacity="0.250980" d="M2028,-983C2028,-983 2084,-983 2084,-983 2090,-983 2096,-989 2096,-995 2096,-995 2096,-1010 2096,-1010 2096,-1016 2090,-1022 2084,-1022 2084,-1022 2028,-1022 2028,-1022 2022,-1022 2016,-1016 2016,-1010 2016,-1010 2016,-995 2016,-995 2016,-989 2022,-983 2028,-983"/>
<text text-anchor="middle" x="2056" y="-1006.8" font-family="Helvetica,sans-Serif" font-size="14.00">LastFlush</text>
</a>
</g>
</g>
<g id="clust7" class="cluster">
<title>clusternode_Set(7)</title>
<g id="a_clust7"><a xlink:title="First">
<path fill="#000000" fill-opacity="0.031373" stroke="#000000" stroke-width="2" stroke-opacity="0.250980" d="M12,-971C12,-971 34,-971 34,-971 40,-971 46,-977 46,-983 46,-983 46,-998 46,-998 46,-1004 40,-1010 34,-1010 34,-1010 12,-1010 12,-1010 6,-1010 0,-1004 0,-998 0,-998 0,-983 0,-983 0,-977 6,-971 12,-971"/>
<text text-anchor="middle" x="23" y="-994.8" font-family="Helvetica,sans-Serif" font-size="14.00">First</text>
</a>
</g>
</g>
<g id="clust8" class="cluster">
<title>clusternode_Set(8)</title>
<g id="a_clust8"><a xlink:title="PreUpdate">
<path fill="#000000" fill-opacity="0.031373" stroke="#000000" stroke-width="2" stroke-opacity="0.250980" d="M551,-924C551,-924 743,-924 743,-924 749,-924 755,-930 755,-936 755,-936 755,-998 755,-998 755,-1004 749,-1010 743,-1010 743,-1010 551,-1010 551,-1010 545,-1010 539,-1004 539,-998 539,-998 539,-936 539,-936 539,-930 545,-924 551,-924"/>
<text text-anchor="middle" x="647" y="-994.8" font-family="Helvetica,sans-Serif" font-size="14.00">PreUpdate</text>
</a>
</g>
</g>
<g id="clust9" class="cluster">
<title>clusternode_Set(9)</title>
<g id="a_clust9"><a xlink:title="StateTransitions">
<path fill="#000000" fill-opacity="0.031373" stroke="#000000" stroke-width="2" stroke-opacity="0.250980" d="M930,-971C930,-971 1030,-971 1030,-971 1036,-971 1042,-977 1042,-983 1042,-983 1042,-998 1042,-998 1042,-1004 1036,-1010 1030,-1010 1030,-1010 930,-1010 930,-1010 924,-1010 918,-1004 918,-998 918,-998 918,-983 918,-983 918,-977 924,-971 930,-971"/>
<text text-anchor="middle" x="980" y="-994.8" font-family="Helvetica,sans-Serif" font-size="14.00">StateTransitions</text>
</a>
</g>
</g>
<g id="clust10" class="cluster">
<title>clusternode_Set(10)</title>
<g id="a_clust10"><a xlink:title="FixedUpdate">
<path fill="#000000" fill-opacity="0.031373" stroke="#000000" stroke-width="2" stroke-opacity="0.250980" d="M1074,-971C1074,-971 1150,-971 1150,-971 1156,-971 1162,-977 1162,-983 1162,-983 1162,-998 1162,-998 1162,-1004 1156,-1010 1150,-1010 1150,-1010 1074,-1010 1074,-1010 1068,-1010 1062,-1004 1062,-998 1062,-998 1062,-983 1062,-983 1062,-977 1068,-971 1074,-971"/>
<text text-anchor="middle" x="1112" y="-994.8" font-family="Helvetica,sans-Serif" font-size="14.00">FixedUpdate</text>
</a>
</g>
</g>
<g id="clust11" class="cluster">
<title>clusternode_Set(11)</title>
<g id="a_clust11"><a xlink:title="PostUpdate">
<path fill="#000000" fill-opacity="0.031373" stroke="#000000" stroke-width="2" stroke-opacity="0.250980" d="M1400,-971C1400,-971 1469,-971 1469,-971 1475,-971 1481,-977 1481,-983 1481,-983 1481,-998 1481,-998 1481,-1004 1475,-1010 1469,-1010 1469,-1010 1400,-1010 1400,-1010 1394,-1010 1388,-1004 1388,-998 1388,-998 1388,-983 1388,-983 1388,-977 1394,-971 1400,-971"/>
<text text-anchor="middle" x="1434.5" y="-994.8" font-family="Helvetica,sans-Serif" font-size="14.00">PostUpdate</text>
</a>
</g>
</g>
<g id="clust12" class="cluster">
<title>clusternode_Set(12)</title>
<g id="a_clust12"><a xlink:title="Last">
<path fill="#000000" fill-opacity="0.031373" stroke="#000000" stroke-width="2" stroke-opacity="0.250980" d="M1964,-983C1964,-983 1984,-983 1984,-983 1990,-983 1996,-989 1996,-995 1996,-995 1996,-1010 1996,-1010 1996,-1016 1990,-1022 1984,-1022 1984,-1022 1964,-1022 1964,-1022 1958,-1022 1952,-1016 1952,-1010 1952,-1010 1952,-995 1952,-995 1952,-989 1958,-983 1964,-983"/>
<text text-anchor="middle" x="1974" y="-1006.8" font-family="Helvetica,sans-Serif" font-size="14.00">Last</text>
</a>
</g>
</g>
<g id="clust13" class="cluster">
<title>clusternode_Set(59)</title>
<g id="a_clust13"><a xlink:title="LoadAssets">
<path fill="#000000" fill-opacity="0.031373" stroke="#000000" stroke-width="2" stroke-opacity="0.250980" d="M78,-8C78,-8 507,-8 507,-8 513,-8 519,-14 519,-20 519,-20 519,-975 519,-975 519,-981 513,-987 507,-987 507,-987 78,-987 78,-987 72,-987 66,-981 66,-975 66,-975 66,-20 66,-20 66,-14 72,-8 78,-8"/>
<text text-anchor="middle" x="292.5" y="-971.8" font-family="Helvetica,sans-Serif" font-size="14.00">LoadAssets</text>
</a>
</g>
</g>
<g id="clust14" class="cluster">
<title>clusternode_Set(60)</title>
<g id="a_clust14"><a xlink:title="AssetEvents">
<path fill="#000000" fill-opacity="0.031373" stroke="#000000" stroke-width="2" stroke-opacity="0.250980" d="M1513,-67C1513,-67 1920,-67 1920,-67 1926,-67 1932,-73 1932,-79 1932,-79 1932,-987 1932,-987 1932,-993 1926,-999 1920,-999 1920,-999 1513,-999 1513,-999 1507,-999 1501,-993 1501,-987 1501,-987 1501,-79 1501,-79 1501,-73 1507,-67 1513,-67"/>
<text text-anchor="middle" x="1716.5" y="-983.8" font-family="Helvetica,sans-Serif" font-size="14.00">AssetEvents</text>
</a>
</g>
</g>
<!-- set_marker_node_Set(0) -->
<!-- set_marker_node_Set(4) -->
<!-- set_marker_node_Set(0)&#45;&gt;set_marker_node_Set(4) -->
<g id="edge7" class="edge">
<title>set_marker_node_Set(0)&#45;&gt;set_marker_node_Set(4)</title>
<g id="a_edge7"><a xlink:title="Update → UpdateFlush">
<path fill="none" stroke="#ee9e44" stroke-width="2" d="M1247,-979C1249.35,-979 1251.77,-979 1254.22,-979"/>
<polygon fill="#ee9e44" stroke="#ee9e44" stroke-width="2" points="1253.97,-982.5 1263.97,-979 1253.97,-975.5 1253.97,-982.5"/>
</a>
</g>
</g>
<!-- set_marker_node_Set(2) -->
<!-- set_marker_node_Set(8) -->
<!-- set_marker_node_Set(2)&#45;&gt;set_marker_node_Set(8) -->
<g id="edge2" class="edge">
<title>set_marker_node_Set(2)&#45;&gt;set_marker_node_Set(8)</title>
<g id="a_edge2"><a xlink:title="FirstFlush → PreUpdate">
<path fill="none" stroke="#881877" stroke-width="2" d="M333.5,-1000.72C378.59,-998.1 454.08,-993.57 519,-989 521.34,-988.83 523.71,-988.67 526.1,-988.49"/>
<polygon fill="#881877" stroke="#881877" stroke-width="2" points="526.26,-991.99 535.98,-987.77 525.75,-985.01 526.26,-991.99"/>
</a>
</g>
</g>
<!-- set_marker_node_Set(3) -->
<!-- set_marker_node_Set(9) -->
<!-- set_marker_node_Set(3)&#45;&gt;set_marker_node_Set(9) -->
<g id="edge4" class="edge">
<title>set_marker_node_Set(3)&#45;&gt;set_marker_node_Set(9)</title>
<g id="a_edge4"><a xlink:title="PreUpdateFlush → StateTransitions">
<path fill="none" stroke="#aa3a55" stroke-width="2" d="M898,-979C900.39,-979 902.8,-979 905.21,-979"/>
<polygon fill="#aa3a55" stroke="#aa3a55" stroke-width="2" points="904.98,-982.5 914.98,-979 904.98,-975.5 904.98,-982.5"/>
</a>
</g>
</g>
<!-- set_marker_node_Set(11) -->
<!-- set_marker_node_Set(4)&#45;&gt;set_marker_node_Set(11) -->
<g id="edge8" class="edge">
<title>set_marker_node_Set(4)&#45;&gt;set_marker_node_Set(11)</title>
<g id="a_edge8"><a xlink:title="UpdateFlush → PostUpdate">
<path fill="none" stroke="#663699" stroke-width="2" d="M1368,-979C1370.43,-979 1372.88,-979 1375.32,-979"/>
<polygon fill="#663699" stroke="#663699" stroke-width="2" points="1374.98,-982.5 1384.98,-979 1374.98,-975.5 1374.98,-982.5"/>
</a>
</g>
</g>
<!-- set_marker_node_Set(5) -->
<!-- set_marker_node_Set(12) -->
<!-- set_marker_node_Set(5)&#45;&gt;set_marker_node_Set(12) -->
<g id="edge10" class="edge">
<title>set_marker_node_Set(5)&#45;&gt;set_marker_node_Set(12)</title>
<g id="a_edge10"><a xlink:title="PostUpdateFlush → Last">
<path fill="none" stroke="#22c2bb" stroke-width="2" d="M1781.5,-1013.73C1824.3,-1012.17 1881.78,-1008.7 1932,-1001 1934.46,-1000.62 1936.99,-1000.17 1939.53,-999.67"/>
<polygon fill="#22c2bb" stroke="#22c2bb" stroke-width="2" points="1940.06,-1003.13 1949.05,-997.53 1938.52,-996.3 1940.06,-1003.13"/>
</a>
</g>
</g>
<!-- set_marker_node_Set(6) -->
<!-- set_marker_node_Set(7) -->
<!-- set_marker_node_Set(7)&#45;&gt;set_marker_node_Set(2) -->
<g id="edge1" class="edge">
<title>set_marker_node_Set(7)&#45;&gt;set_marker_node_Set(2)</title>
<g id="a_edge1"><a xlink:title="First → FirstFlush">
<path fill="none" stroke="#eede00" stroke-width="2" d="M46,-984.99C52.4,-986.53 59.44,-988.02 66,-989 124.68,-997.74 192.73,-1001.04 238.6,-1002.28"/>
<polygon fill="#eede00" stroke="#eede00" stroke-width="2" points="238.39,-1005.77 248.47,-1002.51 238.56,-998.77 238.39,-1005.77"/>
</a>
</g>
</g>
<!-- set_marker_node_Set(59) -->
<!-- set_marker_node_Set(7)&#45;&gt;set_marker_node_Set(59) -->
<g id="edge13" class="edge">
<title>set_marker_node_Set(7)&#45;&gt;set_marker_node_Set(59)</title>
<g id="a_edge13"><a xlink:title="First → LoadAssets">
<path fill="none" stroke="#881877" stroke-width="2" d="M46,-977.11C48.24,-976.92 50.63,-976.71 53.16,-976.49"/>
<polygon fill="#881877" stroke="#881877" stroke-width="2" points="53.33,-979.99 62.99,-975.65 52.73,-973.02 53.33,-979.99"/>
</a>
</g>
</g>
<!-- set_marker_node_Set(8)&#45;&gt;set_marker_node_Set(3) -->
<g id="edge3" class="edge">
<title>set_marker_node_Set(8)&#45;&gt;set_marker_node_Set(3)</title>
<g id="a_edge3"><a xlink:title="PreUpdate → PreUpdateFlush">
<path fill="none" stroke="#00b0cc" stroke-width="2" d="M755,-979C757.43,-979 759.84,-979 762.24,-979"/>
<polygon fill="#00b0cc" stroke="#00b0cc" stroke-width="2" points="761.97,-982.5 771.97,-979 761.97,-975.5 761.97,-982.5"/>
</a>
</g>
</g>
<!-- node_System(47) -->
<g id="node9" class="node">
<title>node_System(47)</title>
<g id="a_node9"><a xlink:title="bevy_asset::asset_server::free_unused_assets_system">
<polygon fill="#d1cbc5" stroke="#a3978c" points="747,-968 547,-968 547,-932 747,-932 747,-968"/>
<text text-anchor="middle" x="647" y="-946.3" font-family="Helvetica,sans-Serif" font-size="14.00" fill="#1c1916">free_unused_assets_system</text>
</a>
</g>
</g>
<!-- set_marker_node_Set(10) -->
<!-- set_marker_node_Set(9)&#45;&gt;set_marker_node_Set(10) -->
<g id="edge5" class="edge">
<title>set_marker_node_Set(9)&#45;&gt;set_marker_node_Set(10)</title>
<g id="a_edge5"><a xlink:title="StateTransitions → FixedUpdate">
<path fill="none" stroke="#44d488" stroke-width="2" d="M1042,-979C1044.39,-979 1046.79,-979 1049.19,-979"/>
<polygon fill="#44d488" stroke="#44d488" stroke-width="2" points="1048.98,-982.5 1058.98,-979 1048.98,-975.5 1048.98,-982.5"/>
</a>
</g>
</g>
<!-- set_marker_node_Set(10)&#45;&gt;set_marker_node_Set(0) -->
<g id="edge6" class="edge">
<title>set_marker_node_Set(10)&#45;&gt;set_marker_node_Set(0)</title>
<g id="a_edge6"><a xlink:title="FixedUpdate → Update">
<path fill="none" stroke="#0090cc" stroke-width="2" d="M1162,-979C1164.37,-979 1166.75,-979 1169.11,-979"/>
<polygon fill="#0090cc" stroke="#0090cc" stroke-width="2" points="1168.98,-982.5 1178.98,-979 1168.98,-975.5 1168.98,-982.5"/>
</a>
</g>
</g>
<!-- set_marker_node_Set(11)&#45;&gt;set_marker_node_Set(5) -->
<g id="edge9" class="edge">
<title>set_marker_node_Set(11)&#45;&gt;set_marker_node_Set(5)</title>
<g id="a_edge9"><a xlink:title="PostUpdate → PostUpdateFlush">
<path fill="none" stroke="#3363bb" stroke-width="2" d="M1481,-995.99C1487.64,-997.96 1494.44,-999.72 1501,-1001 1546.43,-1009.9 1598.19,-1013.46 1639.48,-1014.77"/>
<polygon fill="#3363bb" stroke="#3363bb" stroke-width="2" points="1639.38,-1018.27 1649.48,-1015.04 1639.57,-1011.27 1639.38,-1018.27"/>
</a>
</g>
</g>
<!-- set_marker_node_Set(60) -->
<!-- set_marker_node_Set(11)&#45;&gt;set_marker_node_Set(60) -->
<g id="edge14" class="edge">
<title>set_marker_node_Set(11)&#45;&gt;set_marker_node_Set(60)</title>
<g id="a_edge14"><a xlink:title="PostUpdate → AssetEvents">
<path fill="none" stroke="#00b0cc" stroke-width="2" d="M1481,-977.2C1483.38,-977.1 1485.84,-977.01 1488.35,-976.91"/>
<polygon fill="#00b0cc" stroke="#00b0cc" stroke-width="2" points="1488.12,-980.42 1497.98,-976.53 1487.85,-973.42 1488.12,-980.42"/>
</a>
</g>
</g>
<!-- set_marker_node_Set(12)&#45;&gt;set_marker_node_Set(6) -->
<g id="edge11" class="edge">
<title>set_marker_node_Set(12)&#45;&gt;set_marker_node_Set(6)</title>
<g id="a_edge11"><a xlink:title="Last → LastFlush">
<path fill="none" stroke="#99d955" stroke-width="2" d="M1996,-991C1998.31,-991 2000.74,-991 2003.23,-991"/>
<polygon fill="#99d955" stroke="#99d955" stroke-width="2" points="2002.98,-994.5 2012.98,-991 2002.98,-987.5 2002.98,-994.5"/>
</a>
</g>
</g>
<!-- set_marker_node_Set(59)&#45;&gt;set_marker_node_Set(8) -->
<g id="edge12" class="edge">
<title>set_marker_node_Set(59)&#45;&gt;set_marker_node_Set(8)</title>
<g id="a_edge12"><a xlink:title="LoadAssets → PreUpdate">
<path fill="none" stroke="#eede00" stroke-width="2" d="M519,-972.77C521.44,-972.92 523.87,-973.07 526.29,-973.22"/>
<polygon fill="#eede00" stroke="#eede00" stroke-width="2" points="525.78,-976.7 535.98,-973.82 526.21,-969.71 525.78,-976.7"/>
</a>
</g>
</g>
<!-- node_System(48) -->
<g id="node15" class="node">
<title>node_System(48)</title>
<g id="a_node15"><a xlink:title="bevy_asset::io::file_asset_io::filesystem_watcher_system">
<polygon fill="#d1cbc5" stroke="#a3978c" points="391,-945 194,-945 194,-909 391,-909 391,-945"/>
<text text-anchor="middle" x="292.5" y="-923.3" font-family="Helvetica,sans-Serif" font-size="14.00" fill="#1c1916">filesystem_watcher_system</text>
</a>
</g>
</g>
<!-- node_System(50) -->
<g id="node16" class="node">
<title>node_System(50)</title>
<g id="a_node16"><a xlink:title="bevy_asset::loader::update_asset_storage_system&lt;bevy_scene::dynamic_scene::DynamicScene&gt;">
<polygon fill="#d1cbc5" stroke="#a3978c" points="456,-898 129,-898 129,-862 456,-862 456,-898"/>
<text text-anchor="middle" x="292.5" y="-876.3" font-family="Helvetica,sans-Serif" font-size="14.00" fill="#1c1916">update_asset_storage_system&lt;DynamicScene&gt;</text>
</a>
</g>
</g>
<!-- node_System(53) -->
<g id="node17" class="node">
<title>node_System(53)</title>
<g id="a_node17"><a xlink:title="bevy_asset::loader::update_asset_storage_system&lt;bevy_scene::scene::Scene&gt;">
<polygon fill="#d1cbc5" stroke="#a3978c" points="427,-851 158,-851 158,-815 427,-815 427,-851"/>
<text text-anchor="middle" x="292.5" y="-829.3" font-family="Helvetica,sans-Serif" font-size="14.00" fill="#1c1916">update_asset_storage_system&lt;Scene&gt;</text>
</a>
</g>
</g>
<!-- node_System(65) -->
<g id="node18" class="node">
<title>node_System(65)</title>
<g id="a_node18"><a xlink:title="bevy_asset::loader::update_asset_storage_system&lt;bevy_render::render_resource::shader::Shader&gt;">
<polygon fill="#d1cbc5" stroke="#a3978c" points="430.5,-804 154.5,-804 154.5,-768 430.5,-768 430.5,-804"/>
<text text-anchor="middle" x="292.5" y="-782.3" font-family="Helvetica,sans-Serif" font-size="14.00" fill="#1c1916">update_asset_storage_system&lt;Shader&gt;</text>
</a>
</g>
</g>
<!-- node_System(79) -->
<g id="node19" class="node">
<title>node_System(79)</title>
<g id="a_node19"><a xlink:title="bevy_asset::loader::update_asset_storage_system&lt;bevy_render::mesh::mesh::Mesh&gt;">
<polygon fill="#d1cbc5" stroke="#a3978c" points="425.5,-757 159.5,-757 159.5,-721 425.5,-721 425.5,-757"/>
<text text-anchor="middle" x="292.5" y="-735.3" font-family="Helvetica,sans-Serif" font-size="14.00" fill="#1c1916">update_asset_storage_system&lt;Mesh&gt;</text>
</a>
</g>
</g>
<!-- node_System(82) -->
<g id="node20" class="node">
<title>node_System(82)</title>
<g id="a_node20"><a xlink:title="bevy_asset::loader::update_asset_storage_system&lt;bevy_render::mesh::mesh::skinning::SkinnedMeshInverseBindposes&gt;">
<polygon fill="#d1cbc5" stroke="#a3978c" points="511,-710 74,-710 74,-674 511,-674 511,-710"/>
<text text-anchor="middle" x="292.5" y="-688.3" font-family="Helvetica,sans-Serif" font-size="14.00" fill="#1c1916">update_asset_storage_system&lt;SkinnedMeshInverseBindposes&gt;</text>
</a>
</g>
</g>
<!-- node_System(85) -->
<g id="node21" class="node">
<title>node_System(85)</title>
<g id="a_node21"><a xlink:title="bevy_asset::loader::update_asset_storage_system&lt;bevy_render::texture::image::Image&gt;">
<polygon fill="#d1cbc5" stroke="#a3978c" points="428,-663 157,-663 157,-627 428,-627 428,-663"/>
<text text-anchor="middle" x="292.5" y="-641.3" font-family="Helvetica,sans-Serif" font-size="14.00" fill="#1c1916">update_asset_storage_system&lt;Image&gt;</text>
</a>
</g>
</g>
<!-- node_System(88) -->
<g id="node22" class="node">
<title>node_System(88)</title>
<g id="a_node22"><a xlink:title="bevy_asset::loader::update_asset_storage_system&lt;bevy_sprite::texture_atlas::TextureAtlas&gt;">
<polygon fill="#d1cbc5" stroke="#a3978c" points="449.5,-616 135.5,-616 135.5,-580 449.5,-580 449.5,-616"/>
<text text-anchor="middle" x="292.5" y="-594.3" font-family="Helvetica,sans-Serif" font-size="14.00" fill="#1c1916">update_asset_storage_system&lt;TextureAtlas&gt;</text>
</a>
</g>
</g>
<!-- node_System(91) -->
<g id="node23" class="node">
<title>node_System(91)</title>
<g id="a_node23"><a xlink:title="bevy_asset::loader::update_asset_storage_system&lt;bevy_sprite::mesh2d::color_material::ColorMaterial&gt;">
<polygon fill="#d1cbc5" stroke="#a3978c" points="452.5,-569 132.5,-569 132.5,-533 452.5,-533 452.5,-569"/>
<text text-anchor="middle" x="292.5" y="-547.3" font-family="Helvetica,sans-Serif" font-size="14.00" fill="#1c1916">update_asset_storage_system&lt;ColorMaterial&gt;</text>
</a>
</g>
</g>
<!-- node_System(94) -->
<g id="node24" class="node">
<title>node_System(94)</title>
<g id="a_node24"><a xlink:title="bevy_asset::loader::update_asset_storage_system&lt;bevy_text::font::Font&gt;">
<polygon fill="#d1cbc5" stroke="#a3978c" points="422.5,-522 162.5,-522 162.5,-486 422.5,-486 422.5,-522"/>
<text text-anchor="middle" x="292.5" y="-500.3" font-family="Helvetica,sans-Serif" font-size="14.00" fill="#1c1916">update_asset_storage_system&lt;Font&gt;</text>
</a>
</g>
</g>
<!-- node_System(97) -->
<g id="node25" class="node">
<title>node_System(97)</title>
<g id="a_node25"><a xlink:title="bevy_asset::loader::update_asset_storage_system&lt;bevy_text::font_atlas_set::FontAtlasSet&gt;">
<polygon fill="#d1cbc5" stroke="#a3978c" points="449,-475 136,-475 136,-439 449,-439 449,-475"/>
<text text-anchor="middle" x="292.5" y="-453.3" font-family="Helvetica,sans-Serif" font-size="14.00" fill="#1c1916">update_asset_storage_system&lt;FontAtlasSet&gt;</text>
</a>
</g>
</g>
<!-- node_System(111) -->
<g id="node26" class="node">
<title>node_System(111)</title>
<g id="a_node26"><a xlink:title="bevy_asset::loader::update_asset_storage_system&lt;bevy_pbr::pbr_material::StandardMaterial&gt;">
<polygon fill="#d1cbc5" stroke="#a3978c" points="464.5,-428 120.5,-428 120.5,-392 464.5,-392 464.5,-428"/>
<text text-anchor="middle" x="292.5" y="-406.3" font-family="Helvetica,sans-Serif" font-size="14.00" fill="#1c1916">update_asset_storage_system&lt;StandardMaterial&gt;</text>
</a>
</g>
</g>
<!-- node_System(122) -->
<g id="node27" class="node">
<title>node_System(122)</title>
<g id="a_node27"><a xlink:title="bevy_asset::loader::update_asset_storage_system&lt;bevy_gltf::Gltf&gt;">
<polygon fill="#d1cbc5" stroke="#a3978c" points="419.5,-381 165.5,-381 165.5,-345 419.5,-345 419.5,-381"/>
<text text-anchor="middle" x="292.5" y="-359.3" font-family="Helvetica,sans-Serif" font-size="14.00" fill="#1c1916">update_asset_storage_system&lt;Gltf&gt;</text>
</a>
</g>
</g>
<!-- node_System(125) -->
<g id="node28" class="node">
<title>node_System(125)</title>
<g id="a_node28"><a xlink:title="bevy_asset::loader::update_asset_storage_system&lt;bevy_gltf::GltfNode&gt;">
<polygon fill="#d1cbc5" stroke="#a3978c" points="437,-334 148,-334 148,-298 437,-298 437,-334"/>
<text text-anchor="middle" x="292.5" y="-312.3" font-family="Helvetica,sans-Serif" font-size="14.00" fill="#1c1916">update_asset_storage_system&lt;GltfNode&gt;</text>
</a>
</g>
</g>
<!-- node_System(128) -->
<g id="node29" class="node">
<title>node_System(128)</title>
<g id="a_node29"><a xlink:title="bevy_asset::loader::update_asset_storage_system&lt;bevy_gltf::GltfPrimitive&gt;">
<polygon fill="#d1cbc5" stroke="#a3978c" points="448.5,-287 136.5,-287 136.5,-251 448.5,-251 448.5,-287"/>
<text text-anchor="middle" x="292.5" y="-265.3" font-family="Helvetica,sans-Serif" font-size="14.00" fill="#1c1916">update_asset_storage_system&lt;GltfPrimitive&gt;</text>
</a>
</g>
</g>
<!-- node_System(131) -->
<g id="node30" class="node">
<title>node_System(131)</title>
<g id="a_node30"><a xlink:title="bevy_asset::loader::update_asset_storage_system&lt;bevy_gltf::GltfMesh&gt;">
<polygon fill="#d1cbc5" stroke="#a3978c" points="437.5,-240 147.5,-240 147.5,-204 437.5,-204 437.5,-240"/>
<text text-anchor="middle" x="292.5" y="-218.3" font-family="Helvetica,sans-Serif" font-size="14.00" fill="#1c1916">update_asset_storage_system&lt;GltfMesh&gt;</text>
</a>
</g>
</g>
<!-- node_System(134) -->
<g id="node31" class="node">
<title>node_System(134)</title>
<g id="a_node31"><a xlink:title="bevy_asset::loader::update_asset_storage_system&lt;bevy_audio::audio_source::AudioSource&gt;">
<polygon fill="#d1cbc5" stroke="#a3978c" points="449.5,-193 135.5,-193 135.5,-157 449.5,-157 449.5,-193"/>
<text text-anchor="middle" x="292.5" y="-171.3" font-family="Helvetica,sans-Serif" font-size="14.00" fill="#1c1916">update_asset_storage_system&lt;AudioSource&gt;</text>
</a>
</g>
</g>
<!-- node_System(137) -->
<g id="node32" class="node">
<title>node_System(137)</title>
<g id="a_node32"><a xlink:title="bevy_asset::loader::update_asset_storage_system&lt;bevy_audio::sinks::AudioSink&gt;">
<polygon fill="#d1cbc5" stroke="#a3978c" points="440.5,-146 144.5,-146 144.5,-110 440.5,-110 440.5,-146"/>
<text text-anchor="middle" x="292.5" y="-124.3" font-family="Helvetica,sans-Serif" font-size="14.00" fill="#1c1916">update_asset_storage_system&lt;AudioSink&gt;</text>
</a>
</g>
</g>
<!-- node_System(140) -->
<g id="node33" class="node">
<title>node_System(140)</title>
<g id="a_node33"><a xlink:title="bevy_asset::loader::update_asset_storage_system&lt;bevy_audio::sinks::SpatialAudioSink&gt;">
<polygon fill="#d1cbc5" stroke="#a3978c" points="462,-99 123,-99 123,-63 462,-63 462,-99"/>
<text text-anchor="middle" x="292.5" y="-77.3" font-family="Helvetica,sans-Serif" font-size="14.00" fill="#1c1916">update_asset_storage_system&lt;SpatialAudioSink&gt;</text>
</a>
</g>
</g>
<!-- node_System(145) -->
<g id="node34" class="node">
<title>node_System(145)</title>
<g id="a_node34"><a xlink:title="bevy_asset::loader::update_asset_storage_system&lt;bevy_animation::AnimationClip&gt;">
<polygon fill="#d1cbc5" stroke="#a3978c" points="454,-52 131,-52 131,-16 454,-16 454,-52"/>
<text text-anchor="middle" x="292.5" y="-30.3" font-family="Helvetica,sans-Serif" font-size="14.00" fill="#1c1916">update_asset_storage_system&lt;AnimationClip&gt;</text>
</a>
</g>
</g>
<!-- set_marker_node_Set(60)&#45;&gt;set_marker_node_Set(12) -->
<g id="edge15" class="edge">
<title>set_marker_node_Set(60)&#45;&gt;set_marker_node_Set(12)</title>
<g id="a_edge15"><a xlink:title="AssetEvents → Last">
<path fill="none" stroke="#aa3a55" stroke-width="2" d="M1932,-987.31C1934.57,-987.54 1937.05,-987.76 1939.43,-987.98"/>
<polygon fill="#aa3a55" stroke="#aa3a55" stroke-width="2" points="1938.71,-991.43 1948.99,-988.84 1939.34,-984.46 1938.71,-991.43"/>
</a>
</g>
</g>
<!-- node_System(49) -->
<g id="node36" class="node">
<title>node_System(49)</title>
<g id="a_node36"><a xlink:title="bevy_asset::assets::Assets&lt;bevy_scene::dynamic_scene::DynamicScene&gt;::asset_event_system">
<polygon fill="#d1cbc5" stroke="#a3978c" points="1869,-957 1564,-957 1564,-921 1869,-921 1869,-957"/>
<text text-anchor="middle" x="1716.5" y="-935.3" font-family="Helvetica,sans-Serif" font-size="14.00" fill="#1c1916">Assets&lt;DynamicScene&gt;asset_event_system</text>
</a>
</g>
</g>
<!-- node_System(52) -->
<g id="node37" class="node">
<title>node_System(52)</title>
<g id="a_node37"><a xlink:title="bevy_asset::assets::Assets&lt;bevy_scene::scene::Scene&gt;::asset_event_system">
<polygon fill="#d1cbc5" stroke="#a3978c" points="1840,-910 1593,-910 1593,-874 1840,-874 1840,-910"/>
<text text-anchor="middle" x="1716.5" y="-888.3" font-family="Helvetica,sans-Serif" font-size="14.00" fill="#1c1916">Assets&lt;Scene&gt;asset_event_system</text>
</a>
</g>
</g>
<!-- node_System(64) -->
<g id="node38" class="node">
<title>node_System(64)</title>
<g id="a_node38"><a xlink:title="bevy_asset::assets::Assets&lt;bevy_render::render_resource::shader::Shader&gt;::asset_event_system">
<polygon fill="#d1cbc5" stroke="#a3978c" points="1843.5,-863 1589.5,-863 1589.5,-827 1843.5,-827 1843.5,-863"/>
<text text-anchor="middle" x="1716.5" y="-841.3" font-family="Helvetica,sans-Serif" font-size="14.00" fill="#1c1916">Assets&lt;Shader&gt;asset_event_system</text>
</a>
</g>
</g>
<!-- node_System(78) -->
<g id="node39" class="node">
<title>node_System(78)</title>
<g id="a_node39"><a xlink:title="bevy_asset::assets::Assets&lt;bevy_render::mesh::mesh::Mesh&gt;::asset_event_system">
<polygon fill="#d1cbc5" stroke="#a3978c" points="1838.5,-816 1594.5,-816 1594.5,-780 1838.5,-780 1838.5,-816"/>
<text text-anchor="middle" x="1716.5" y="-794.3" font-family="Helvetica,sans-Serif" font-size="14.00" fill="#1c1916">Assets&lt;Mesh&gt;asset_event_system</text>
</a>
</g>
</g>
<!-- node_System(81) -->
<g id="node40" class="node">
<title>node_System(81)</title>
<g id="a_node40"><a xlink:title="bevy_asset::assets::Assets&lt;bevy_render::mesh::mesh::skinning::SkinnedMeshInverseBindposes&gt;::asset_event_system">
<polygon fill="#d1cbc5" stroke="#a3978c" points="1924,-769 1509,-769 1509,-733 1924,-733 1924,-769"/>
<text text-anchor="middle" x="1716.5" y="-747.3" font-family="Helvetica,sans-Serif" font-size="14.00" fill="#1c1916">Assets&lt;SkinnedMeshInverseBindposes&gt;asset_event_system</text>
</a>
</g>
</g>
<!-- node_System(84) -->
<g id="node41" class="node">
<title>node_System(84)</title>
<g id="a_node41"><a xlink:title="bevy_asset::assets::Assets&lt;bevy_render::texture::image::Image&gt;::asset_event_system">
<polygon fill="#d1cbc5" stroke="#a3978c" points="1840.5,-722 1592.5,-722 1592.5,-686 1840.5,-686 1840.5,-722"/>
<text text-anchor="middle" x="1716.5" y="-700.3" font-family="Helvetica,sans-Serif" font-size="14.00" fill="#1c1916">Assets&lt;Image&gt;asset_event_system</text>
</a>
</g>
</g>
<!-- node_System(87) -->
<g id="node42" class="node">
<title>node_System(87)</title>
<g id="a_node42"><a xlink:title="bevy_asset::assets::Assets&lt;bevy_sprite::texture_atlas::TextureAtlas&gt;::asset_event_system">
<polygon fill="#d1cbc5" stroke="#a3978c" points="1862,-675 1571,-675 1571,-639 1862,-639 1862,-675"/>
<text text-anchor="middle" x="1716.5" y="-653.3" font-family="Helvetica,sans-Serif" font-size="14.00" fill="#1c1916">Assets&lt;TextureAtlas&gt;asset_event_system</text>
</a>
</g>
</g>
<!-- node_System(90) -->
<g id="node43" class="node">
<title>node_System(90)</title>
<g id="a_node43"><a xlink:title="bevy_asset::assets::Assets&lt;bevy_sprite::mesh2d::color_material::ColorMaterial&gt;::asset_event_system">
<polygon fill="#d1cbc5" stroke="#a3978c" points="1865,-628 1568,-628 1568,-592 1865,-592 1865,-628"/>
<text text-anchor="middle" x="1716.5" y="-606.3" font-family="Helvetica,sans-Serif" font-size="14.00" fill="#1c1916">Assets&lt;ColorMaterial&gt;asset_event_system</text>
</a>
</g>
</g>
<!-- node_System(93) -->
<g id="node44" class="node">
<title>node_System(93)</title>
<g id="a_node44"><a xlink:title="bevy_asset::assets::Assets&lt;bevy_text::font::Font&gt;::asset_event_system">
<polygon fill="#d1cbc5" stroke="#a3978c" points="1835,-581 1598,-581 1598,-545 1835,-545 1835,-581"/>
<text text-anchor="middle" x="1716.5" y="-559.3" font-family="Helvetica,sans-Serif" font-size="14.00" fill="#1c1916">Assets&lt;Font&gt;asset_event_system</text>
</a>
</g>
</g>
<!-- node_System(96) -->
<g id="node45" class="node">
<title>node_System(96)</title>
<g id="a_node45"><a xlink:title="bevy_asset::assets::Assets&lt;bevy_text::font_atlas_set::FontAtlasSet&gt;::asset_event_system">
<polygon fill="#d1cbc5" stroke="#a3978c" points="1861.5,-534 1571.5,-534 1571.5,-498 1861.5,-498 1861.5,-534"/>
<text text-anchor="middle" x="1716.5" y="-512.3" font-family="Helvetica,sans-Serif" font-size="14.00" fill="#1c1916">Assets&lt;FontAtlasSet&gt;asset_event_system</text>
</a>
</g>
</g>
<!-- node_System(110) -->
<g id="node46" class="node">
<title>node_System(110)</title>
<g id="a_node46"><a xlink:title="bevy_asset::assets::Assets&lt;bevy_pbr::pbr_material::StandardMaterial&gt;::asset_event_system">
<polygon fill="#d1cbc5" stroke="#a3978c" points="1877,-487 1556,-487 1556,-451 1877,-451 1877,-487"/>
<text text-anchor="middle" x="1716.5" y="-465.3" font-family="Helvetica,sans-Serif" font-size="14.00" fill="#1c1916">Assets&lt;StandardMaterial&gt;asset_event_system</text>
</a>
</g>
</g>
<!-- node_System(121) -->
<g id="node47" class="node">
<title>node_System(121)</title>
<g id="a_node47"><a xlink:title="bevy_asset::assets::Assets&lt;bevy_gltf::Gltf&gt;::asset_event_system">
<polygon fill="#d1cbc5" stroke="#a3978c" points="1832,-440 1601,-440 1601,-404 1832,-404 1832,-440"/>
<text text-anchor="middle" x="1716.5" y="-418.3" font-family="Helvetica,sans-Serif" font-size="14.00" fill="#1c1916">Assets&lt;Gltf&gt;asset_event_system</text>
</a>
</g>
</g>
<!-- node_System(124) -->
<g id="node48" class="node">
<title>node_System(124)</title>
<g id="a_node48"><a xlink:title="bevy_asset::assets::Assets&lt;bevy_gltf::GltfNode&gt;::asset_event_system">
<polygon fill="#d1cbc5" stroke="#a3978c" points="1849.5,-393 1583.5,-393 1583.5,-357 1849.5,-357 1849.5,-393"/>
<text text-anchor="middle" x="1716.5" y="-371.3" font-family="Helvetica,sans-Serif" font-size="14.00" fill="#1c1916">Assets&lt;GltfNode&gt;asset_event_system</text>
</a>
</g>
</g>
<!-- node_System(127) -->
<g id="node49" class="node">
<title>node_System(127)</title>
<g id="a_node49"><a xlink:title="bevy_asset::assets::Assets&lt;bevy_gltf::GltfPrimitive&gt;::asset_event_system">
<polygon fill="#d1cbc5" stroke="#a3978c" points="1861.5,-346 1571.5,-346 1571.5,-310 1861.5,-310 1861.5,-346"/>
<text text-anchor="middle" x="1716.5" y="-324.3" font-family="Helvetica,sans-Serif" font-size="14.00" fill="#1c1916">Assets&lt;GltfPrimitive&gt;asset_event_system</text>
</a>
</g>
</g>
<!-- node_System(130) -->
<g id="node50" class="node">
<title>node_System(130)</title>
<g id="a_node50"><a xlink:title="bevy_asset::assets::Assets&lt;bevy_gltf::GltfMesh&gt;::asset_event_system">
<polygon fill="#d1cbc5" stroke="#a3978c" points="1850.5,-299 1582.5,-299 1582.5,-263 1850.5,-263 1850.5,-299"/>
<text text-anchor="middle" x="1716.5" y="-277.3" font-family="Helvetica,sans-Serif" font-size="14.00" fill="#1c1916">Assets&lt;GltfMesh&gt;asset_event_system</text>
</a>
</g>
</g>
<!-- node_System(133) -->
<g id="node51" class="node">
<title>node_System(133)</title>
<g id="a_node51"><a xlink:title="bevy_asset::assets::Assets&lt;bevy_audio::audio_source::AudioSource&gt;::asset_event_system">
<polygon fill="#d1cbc5" stroke="#a3978c" points="1862,-252 1571,-252 1571,-216 1862,-216 1862,-252"/>
<text text-anchor="middle" x="1716.5" y="-230.3" font-family="Helvetica,sans-Serif" font-size="14.00" fill="#1c1916">Assets&lt;AudioSource&gt;asset_event_system</text>
</a>
</g>
</g>
<!-- node_System(136) -->
<g id="node52" class="node">
<title>node_System(136)</title>
<g id="a_node52"><a xlink:title="bevy_asset::assets::Assets&lt;bevy_audio::sinks::AudioSink&gt;::asset_event_system">
<polygon fill="#d1cbc5" stroke="#a3978c" points="1853,-205 1580,-205 1580,-169 1853,-169 1853,-205"/>
<text text-anchor="middle" x="1716.5" y="-183.3" font-family="Helvetica,sans-Serif" font-size="14.00" fill="#1c1916">Assets&lt;AudioSink&gt;asset_event_system</text>
</a>
</g>
</g>
<!-- node_System(139) -->
<g id="node53" class="node">
<title>node_System(139)</title>
<g id="a_node53"><a xlink:title="bevy_asset::assets::Assets&lt;bevy_audio::sinks::SpatialAudioSink&gt;::asset_event_system">
<polygon fill="#d1cbc5" stroke="#a3978c" points="1875,-158 1558,-158 1558,-122 1875,-122 1875,-158"/>
<text text-anchor="middle" x="1716.5" y="-136.3" font-family="Helvetica,sans-Serif" font-size="14.00" fill="#1c1916">Assets&lt;SpatialAudioSink&gt;asset_event_system</text>
</a>
</g>
</g>
<!-- node_System(144) -->
<g id="node54" class="node">
<title>node_System(144)</title>
<g id="a_node54"><a xlink:title="bevy_asset::assets::Assets&lt;bevy_animation::AnimationClip&gt;::asset_event_system">
<polygon fill="#d1cbc5" stroke="#a3978c" points="1866.5,-111 1566.5,-111 1566.5,-75 1866.5,-75 1866.5,-111"/>
<text text-anchor="middle" x="1716.5" y="-89.3" font-family="Helvetica,sans-Serif" font-size="14.00" fill="#1c1916">Assets&lt;AnimationClip&gt;asset_event_system</text>
</a>
</g>
</g>
</g>
</svg>
