<?xml version="1.0" encoding="UTF-8" standalone="no"?>
<!DOCTYPE svg PUBLIC "-//W3C//DTD SVG 1.1//EN"
 "http://www.w3.org/Graphics/SVG/1.1/DTD/svg11.dtd">
<!-- Generated by graphviz version 7.1.0 (0)
 -->
<!-- Pages: 1 -->
<svg width="1624pt" height="140pt"
 viewBox="0.00 0.00 1624.00 140.00" xmlns="http://www.w3.org/2000/svg" xmlns:xlink="http://www.w3.org/1999/xlink">
<g id="graph0" class="graph" transform="scale(1 1) rotate(0) translate(4 136)">
<polygon fill="white" stroke="none" points="-4,4 -4,-136 1620,-136 1620,4 -4,4"/>
<g id="clust1" class="cluster">
<title>clusternode_Set(0)</title>
<g id="a_clust1"><a xlink:title="Update">
<polygon fill="white" stroke="black" points="825,-8 825,-101 1008,-101 1008,-8 825,-8"/>
<text text-anchor="middle" x="916.5" y="-85.8" font-family="Helvetica,sans-Serif" font-size="14.00">Update</text>
</a>
</g>
</g>
<g id="clust2" class="cluster">
<title>clusternode_Set(2)</title>
<g id="a_clust2"><a xlink:title="FirstFlush">
<polygon fill="white" stroke="black" points="204,-85 204,-124 286,-124 286,-85 204,-85"/>
<text text-anchor="middle" x="245" y="-108.8" font-family="Helvetica,sans-Serif" font-size="14.00">FirstFlush</text>
</a>
</g>
</g>
<g id="clust3" class="cluster">
<title>clusternode_Set(3)</title>
<g id="a_clust3"><a xlink:title="PreUpdateFlush">
<polygon fill="white" stroke="black" points="418,-62 418,-101 541,-101 541,-62 418,-62"/>
<text text-anchor="middle" x="479.5" y="-85.8" font-family="Helvetica,sans-Serif" font-size="14.00">PreUpdateFlush</text>
</a>
</g>
</g>
<g id="clust4" class="cluster">
<title>clusternode_Set(4)</title>
<g id="a_clust4"><a xlink:title="UpdateFlush">
<polygon fill="white" stroke="black" points="1028,-62 1028,-101 1129,-101 1129,-62 1028,-62"/>
<text text-anchor="middle" x="1078.5" y="-85.8" font-family="Helvetica,sans-Serif" font-size="14.00">UpdateFlush</text>
</a>
</g>
</g>
<g id="clust5" class="cluster">
<title>clusternode_Set(5)</title>
<g id="a_clust5"><a xlink:title="PostUpdateFlush">
<polygon fill="white" stroke="black" points="1323,-73 1323,-112 1452,-112 1452,-73 1323,-73"/>
<text text-anchor="middle" x="1387.5" y="-96.8" font-family="Helvetica,sans-Serif" font-size="14.00">PostUpdateFlush</text>
</a>
</g>
</g>
<g id="clust6" class="cluster">
<title>clusternode_Set(6)</title>
<g id="a_clust6"><a xlink:title="LastFlush">
<polygon fill="white" stroke="black" points="1536,-49 1536,-88 1616,-88 1616,-49 1536,-49"/>
<text text-anchor="middle" x="1576" y="-72.8" font-family="Helvetica,sans-Serif" font-size="14.00">LastFlush</text>
</a>
</g>
</g>
<g id="clust7" class="cluster">
<title>clusternode_Set(7)</title>
<g id="a_clust7"><a xlink:title="First">
<polygon fill="white" stroke="black" points="67,-38 67,-77 113,-77 113,-38 67,-38"/>
<text text-anchor="middle" x="90" y="-61.8" font-family="Helvetica,sans-Serif" font-size="14.00">First</text>
</a>
</g>
</g>
<g id="clust8" class="cluster">
<title>clusternode_Set(8)</title>
<g id="a_clust8"><a xlink:title="PreUpdate">
<polygon fill="white" stroke="black" points="311,-62 311,-101 398,-101 398,-62 311,-62"/>
<text text-anchor="middle" x="354.5" y="-85.8" font-family="Helvetica,sans-Serif" font-size="14.00">PreUpdate</text>
</a>
</g>
</g>
<g id="clust9" class="cluster">
<title>clusternode_Set(9)</title>
<g id="a_clust9"><a xlink:title="StateTransitions">
<polygon fill="white" stroke="black" points="561,-62 561,-101 685,-101 685,-62 561,-62"/>
<text text-anchor="middle" x="623" y="-85.8" font-family="Helvetica,sans-Serif" font-size="14.00">StateTransitions</text>
</a>
</g>
</g>
<g id="clust10" class="cluster">
<title>clusternode_Set(10)</title>
<g id="a_clust10"><a xlink:title="FixedUpdate">
<polygon fill="white" stroke="black" points="705,-62 705,-101 805,-101 805,-62 705,-62"/>
<text text-anchor="middle" x="755" y="-85.8" font-family="Helvetica,sans-Serif" font-size="14.00">FixedUpdate</text>
</a>
</g>
</g>
<g id="clust11" class="cluster">
<title>clusternode_Set(11)</title>
<g id="a_clust11"><a xlink:title="PostUpdate">
<polygon fill="white" stroke="black" points="1149,-8 1149,-101 1303,-101 1303,-8 1149,-8"/>
<text text-anchor="middle" x="1226" y="-85.8" font-family="Helvetica,sans-Serif" font-size="14.00">PostUpdate</text>
</a>
</g>
</g>
<g id="clust12" class="cluster">
<title>clusternode_Set(12)</title>
<g id="a_clust12"><a xlink:title="Last">
<polygon fill="white" stroke="black" points="1472,-49 1472,-88 1516,-88 1516,-49 1472,-49"/>
<text text-anchor="middle" x="1494" y="-72.8" font-family="Helvetica,sans-Serif" font-size="14.00">Last</text>
</a>
</g>
</g>
<g id="clust13" class="cluster">
<title>clusternode_Set(22)</title>
<g id="a_clust13"><a xlink:title="PropagateTransformsSet">
<polygon fill="white" stroke="black" points="0,-85 0,-124 180,-124 180,-85 0,-85"/>
<text text-anchor="middle" x="90" y="-108.8" font-family="Helvetica,sans-Serif" font-size="14.00">PropagateTransformsSet</text>
</a>
</g>
</g>
<g id="clust14" class="cluster">
<title>clusternode_Set(59)</title>
<g id="a_clust14"><a xlink:title="LoadAssets">
<polygon fill="white" stroke="black" points="200,-38 200,-77 291,-77 291,-38 200,-38"/>
<text text-anchor="middle" x="245.5" y="-61.8" font-family="Helvetica,sans-Serif" font-size="14.00">LoadAssets</text>
</a>
</g>
</g>
<g id="clust15" class="cluster">
<title>clusternode_Set(60)</title>
<g id="a_clust15"><a xlink:title="AssetEvents">
<polygon fill="white" stroke="black" points="1339,-26 1339,-65 1435,-65 1435,-26 1339,-26"/>
<text text-anchor="middle" x="1387" y="-49.8" font-family="Helvetica,sans-Serif" font-size="14.00">AssetEvents</text>
</a>
</g>
</g>
<!-- set_marker_node_Set(0) -->
<!-- set_marker_node_Set(4) -->
<!-- set_marker_node_Set(0)&#45;&gt;set_marker_node_Set(4) -->
<g id="edge7" class="edge">
<title>set_marker_node_Set(0)&#45;&gt;set_marker_node_Set(4)</title>
<g id="a_edge7"><a xlink:title="Update → UpdateFlush">
<path fill="none" stroke="#ee9e44" stroke-width="2" d="M1008,-70C1010.37,-70 1012.73,-70 1015.07,-70"/>
<polygon fill="#ee9e44" stroke="#ee9e44" stroke-width="2" points="1014.98,-73.5 1024.98,-70 1014.98,-66.5 1014.98,-73.5"/>
</a>
</g>
</g>
<!-- node_System(46) -->
<g id="node2" class="node">
<title>node_System(46)</title>
<g id="a_node2"><a xlink:title="bevy_window::system::close_when_requested">
<polygon fill="white" stroke="black" points="1000,-52 833,-52 833,-16 1000,-16 1000,-52"/>
<text text-anchor="middle" x="916.5" y="-30.3" font-family="Times,serif" font-size="14.00">close_when_requested</text>
</a>
</g>
</g>
<!-- set_marker_node_Set(2) -->
<!-- set_marker_node_Set(8) -->
<!-- set_marker_node_Set(2)&#45;&gt;set_marker_node_Set(8) -->
<g id="edge2" class="edge">
<title>set_marker_node_Set(2)&#45;&gt;set_marker_node_Set(8)</title>
<g id="a_edge2"><a xlink:title="FirstFlush → PreUpdate">
<path fill="none" stroke="#881877" stroke-width="2" d="M283.2,-85C288.17,-83.94 293.34,-82.82 298.52,-81.71"/>
<polygon fill="#881877" stroke="#881877" stroke-width="2" points="299,-85.19 308.04,-79.66 297.53,-78.34 299,-85.19"/>
</a>
</g>
</g>
<!-- set_marker_node_Set(3) -->
<!-- set_marker_node_Set(9) -->
<!-- set_marker_node_Set(3)&#45;&gt;set_marker_node_Set(9) -->
<g id="edge4" class="edge">
<title>set_marker_node_Set(3)&#45;&gt;set_marker_node_Set(9)</title>
<g id="a_edge4"><a xlink:title="PreUpdateFlush → StateTransitions">
<path fill="none" stroke="#aa3a55" stroke-width="2" d="M541,-70C543.39,-70 545.8,-70 548.21,-70"/>
<polygon fill="#aa3a55" stroke="#aa3a55" stroke-width="2" points="547.98,-73.5 557.98,-70 547.98,-66.5 547.98,-73.5"/>
</a>
</g>
</g>
<!-- set_marker_node_Set(11) -->
<!-- set_marker_node_Set(4)&#45;&gt;set_marker_node_Set(11) -->
<g id="edge8" class="edge">
<title>set_marker_node_Set(4)&#45;&gt;set_marker_node_Set(11)</title>
<g id="a_edge8"><a xlink:title="UpdateFlush → PostUpdate">
<path fill="none" stroke="#663699" stroke-width="2" d="M1129,-70C1131.37,-70 1133.79,-70 1136.23,-70"/>
<polygon fill="#663699" stroke="#663699" stroke-width="2" points="1135.98,-73.5 1145.98,-70 1135.98,-66.5 1135.98,-73.5"/>
</a>
</g>
</g>
<!-- set_marker_node_Set(5) -->
<!-- set_marker_node_Set(12) -->
<!-- set_marker_node_Set(5)&#45;&gt;set_marker_node_Set(12) -->
<g id="edge10" class="edge">
<title>set_marker_node_Set(5)&#45;&gt;set_marker_node_Set(12)</title>
<g id="a_edge10"><a xlink:title="PostUpdateFlush → Last">
<path fill="none" stroke="#22c2bb" stroke-width="2" d="M1433.71,-73C1439.88,-71.76 1446.11,-70.41 1452,-69 1454.46,-68.41 1456.99,-67.77 1459.52,-67.09"/>
<polygon fill="#22c2bb" stroke="#22c2bb" stroke-width="2" points="1460.41,-70.48 1469.09,-64.4 1458.51,-63.74 1460.41,-70.48"/>
</a>
</g>
</g>
<!-- set_marker_node_Set(6) -->
<!-- set_marker_node_Set(7) -->
<!-- set_marker_node_Set(7)&#45;&gt;set_marker_node_Set(2) -->
<g id="edge1" class="edge">
<title>set_marker_node_Set(7)&#45;&gt;set_marker_node_Set(2)</title>
<g id="a_edge1"><a xlink:title="First → FirstFlush">
<path fill="none" stroke="#eede00" stroke-width="2" d="M113,-53.38C134.95,-60.67 169.69,-72 200,-81 200.56,-81.17 201.13,-81.33 201.7,-81.5"/>
<polygon fill="#eede00" stroke="#eede00" stroke-width="2" points="200.48,-84.79 211.06,-84.17 202.4,-78.06 200.48,-84.79"/>
</a>
</g>
</g>
<!-- set_marker_node_Set(59) -->
<!-- set_marker_node_Set(7)&#45;&gt;set_marker_node_Set(59) -->
<g id="edge13" class="edge">
<title>set_marker_node_Set(7)&#45;&gt;set_marker_node_Set(59)</title>
<g id="a_edge13"><a xlink:title="First → LoadAssets">
<path fill="none" stroke="#881877" stroke-width="2" d="M113,-46C132.35,-46 161.38,-46 187.19,-46"/>
<polygon fill="#881877" stroke="#881877" stroke-width="2" points="186.98,-49.5 196.98,-46 186.98,-42.5 186.98,-49.5"/>
</a>
</g>
</g>
<!-- set_marker_node_Set(8)&#45;&gt;set_marker_node_Set(3) -->
<g id="edge3" class="edge">
<title>set_marker_node_Set(8)&#45;&gt;set_marker_node_Set(3)</title>
<g id="a_edge3"><a xlink:title="PreUpdate → PreUpdateFlush">
<path fill="none" stroke="#00b0cc" stroke-width="2" d="M398,-70C400.39,-70 402.82,-70 405.28,-70"/>
<polygon fill="#00b0cc" stroke="#00b0cc" stroke-width="2" points="404.98,-73.5 414.98,-70 404.98,-66.5 404.98,-73.5"/>
</a>
</g>
</g>
<!-- set_marker_node_Set(10) -->
<!-- set_marker_node_Set(9)&#45;&gt;set_marker_node_Set(10) -->
<g id="edge5" class="edge">
<title>set_marker_node_Set(9)&#45;&gt;set_marker_node_Set(10)</title>
<g id="a_edge5"><a xlink:title="StateTransitions → FixedUpdate">
<path fill="none" stroke="#44d488" stroke-width="2" d="M685,-70C687.39,-70 689.79,-70 692.19,-70"/>
<polygon fill="#44d488" stroke="#44d488" stroke-width="2" points="691.98,-73.5 701.98,-70 691.98,-66.5 691.98,-73.5"/>
</a>
</g>
</g>
<!-- set_marker_node_Set(10)&#45;&gt;set_marker_node_Set(0) -->
<g id="edge6" class="edge">
<title>set_marker_node_Set(10)&#45;&gt;set_marker_node_Set(0)</title>
<g id="a_edge6"><a xlink:title="FixedUpdate → Update">
<path fill="none" stroke="#0090cc" stroke-width="2" d="M805,-70C807.35,-70 809.73,-70 812.15,-70"/>
<polygon fill="#0090cc" stroke="#0090cc" stroke-width="2" points="811.98,-73.5 821.97,-70 811.97,-66.5 811.98,-73.5"/>
</a>
</g>
</g>
<!-- set_marker_node_Set(11)&#45;&gt;set_marker_node_Set(5) -->
<g id="edge9" class="edge">
<title>set_marker_node_Set(11)&#45;&gt;set_marker_node_Set(5)</title>
<g id="a_edge9"><a xlink:title="PostUpdate → PostUpdateFlush">
<path fill="none" stroke="#3363bb" stroke-width="2" d="M1303,-75.26C1305.4,-75.42 1307.8,-75.59 1310.2,-75.76"/>
<polygon fill="#3363bb" stroke="#3363bb" stroke-width="2" points="1309.76,-79.23 1319.98,-76.43 1310.25,-72.25 1309.76,-79.23"/>
</a>
</g>
</g>
<!-- set_marker_node_Set(60) -->
<!-- set_marker_node_Set(11)&#45;&gt;set_marker_node_Set(60) -->
<g id="edge14" class="edge">
<title>set_marker_node_Set(11)&#45;&gt;set_marker_node_Set(60)</title>
<g id="a_edge14"><a xlink:title="PostUpdate → AssetEvents">
<path fill="none" stroke="#00b0cc" stroke-width="2" d="M1303,-61C1310.76,-59.3 1318.83,-57.16 1326.75,-54.83"/>
<polygon fill="#00b0cc" stroke="#00b0cc" stroke-width="2" points="1327.58,-58.24 1336.11,-51.95 1325.52,-51.55 1327.58,-58.24"/>
</a>
</g>
</g>
<!-- node_System(45) -->
<g id="node13" class="node">
<title>node_System(45)</title>
<g id="a_node13"><a xlink:title="bevy_window::system::exit_on_all_closed">
<polygon fill="white" stroke="black" points="1295,-52 1157,-52 1157,-16 1295,-16 1295,-52"/>
<text text-anchor="middle" x="1226" y="-30.3" font-family="Times,serif" font-size="14.00">exit_on_all_closed</text>
</a>
</g>
</g>
<!-- set_marker_node_Set(12)&#45;&gt;set_marker_node_Set(6) -->
<g id="edge11" class="edge">
<title>set_marker_node_Set(12)&#45;&gt;set_marker_node_Set(6)</title>
<g id="a_edge11"><a xlink:title="Last → LastFlush">
<path fill="none" stroke="#99d955" stroke-width="2" d="M1516,-57C1518.31,-57 1520.74,-57 1523.23,-57"/>
<polygon fill="#99d955" stroke="#99d955" stroke-width="2" points="1522.98,-60.5 1532.98,-57 1522.98,-53.5 1522.98,-60.5"/>
</a>
</g>
</g>
<!-- set_marker_node_Set(22) -->
<!-- set_marker_node_Set(59)&#45;&gt;set_marker_node_Set(8) -->
<g id="edge12" class="edge">
<title>set_marker_node_Set(59)&#45;&gt;set_marker_node_Set(8)</title>
<g id="a_edge12"><a xlink:title="LoadAssets → PreUpdate">
<path fill="none" stroke="#eede00" stroke-width="2" d="M291,-56.09C295.6,-57.12 300.28,-58.18 304.91,-59.21"/>
<polygon fill="#eede00" stroke="#eede00" stroke-width="2" points="303.87,-62.57 314.39,-61.34 305.4,-55.74 303.87,-62.57"/>
</a>
</g>
</g>
<!-- set_marker_node_Set(60)&#45;&gt;set_marker_node_Set(12) -->
<g id="edge15" class="edge">
<title>set_marker_node_Set(60)&#45;&gt;set_marker_node_Set(12)</title>
<g id="a_edge15"><a xlink:title="AssetEvents → Last">
<path fill="none" stroke="#aa3a55" stroke-width="2" d="M1435,-44.29C1443.25,-46.1 1451.69,-47.95 1459.48,-49.66"/>
<polygon fill="#aa3a55" stroke="#aa3a55" stroke-width="2" points="1458.53,-53.03 1469.04,-51.75 1460.02,-46.19 1458.53,-53.03"/>
</a>
</g>
</g>
</g>
</svg>
