<?xml version="1.0" encoding="UTF-8" standalone="no"?>
<!DOCTYPE svg PUBLIC "-//W3C//DTD SVG 1.1//EN"
 "http://www.w3.org/Graphics/SVG/1.1/DTD/svg11.dtd">
<!-- Generated by graphviz version 8.0.1 (0)
 -->
<!-- Pages: 1 -->
<svg width="1982pt" height="1062pt"
 viewBox="0.00 0.00 1982.00 1062.00" xmlns="http://www.w3.org/2000/svg" xmlns:xlink="http://www.w3.org/1999/xlink">
<g id="graph0" class="graph" transform="scale(1 1) rotate(0) translate(4 1058)">
<polygon fill="white" stroke="none" points="-4,4 -4,-1058 1978,-1058 1978,4 -4,4"/>
<g id="clust1" class="cluster">
<title>clusternode_Set(0)</title>
<g id="a_clust1"><a xlink:title="Update">
<path fill="#000000" fill-opacity="0.031373" stroke="#000000" stroke-width="2" stroke-opacity="0.250980" d="M1124,-971C1124,-971 1160,-971 1160,-971 1166,-971 1172,-977 1172,-983 1172,-983 1172,-998 1172,-998 1172,-1004 1166,-1010 1160,-1010 1160,-1010 1124,-1010 1124,-1010 1118,-1010 1112,-1004 1112,-998 1112,-998 1112,-983 1112,-983 1112,-977 1118,-971 1124,-971"/>
<text text-anchor="middle" x="1142" y="-994.8" font-family="Helvetica,sans-Serif" font-size="14.00">Update</text>
</a>
</g>
</g>
<g id="clust2" class="cluster">
<title>clusternode_Set(2)</title>
<g id="a_clust2"><a xlink:title="FirstFlush">
<path fill="#000000" fill-opacity="0.031373" stroke="#000000" stroke-width="2" stroke-opacity="0.250980" d="M248.5,-995C248.5,-995 300.5,-995 300.5,-995 306.5,-995 312.5,-1001 312.5,-1007 312.5,-1007 312.5,-1022 312.5,-1022 312.5,-1028 306.5,-1034 300.5,-1034 300.5,-1034 248.5,-1034 248.5,-1034 242.5,-1034 236.5,-1028 236.5,-1022 236.5,-1022 236.5,-1007 236.5,-1007 236.5,-1001 242.5,-995 248.5,-995"/>
<text text-anchor="middle" x="274.5" y="-1018.8" font-family="Helvetica,sans-Serif" font-size="14.00">FirstFlush</text>
</a>
</g>
</g>
<g id="clust3" class="cluster">
<title>clusternode_Set(3)</title>
<g id="a_clust3"><a xlink:title="PreUpdateFlush">
<path fill="#000000" fill-opacity="0.031373" stroke="#000000" stroke-width="2" stroke-opacity="0.250980" d="M742,-971C742,-971 832,-971 832,-971 838,-971 844,-977 844,-983 844,-983 844,-998 844,-998 844,-1004 838,-1010 832,-1010 832,-1010 742,-1010 742,-1010 736,-1010 730,-1004 730,-998 730,-998 730,-983 730,-983 730,-977 736,-971 742,-971"/>
<text text-anchor="middle" x="787" y="-994.8" font-family="Helvetica,sans-Serif" font-size="14.00">PreUpdateFlush</text>
</a>
</g>
</g>
<g id="clust4" class="cluster">
<title>clusternode_Set(4)</title>
<g id="a_clust4"><a xlink:title="UpdateFlush">
<path fill="#000000" fill-opacity="0.031373" stroke="#000000" stroke-width="2" stroke-opacity="0.250980" d="M1204,-971C1204,-971 1273,-971 1273,-971 1279,-971 1285,-977 1285,-983 1285,-983 1285,-998 1285,-998 1285,-1004 1279,-1010 1273,-1010 1273,-1010 1204,-1010 1204,-1010 1198,-1010 1192,-1004 1192,-998 1192,-998 1192,-983 1192,-983 1192,-977 1198,-971 1204,-971"/>
<text text-anchor="middle" x="1238.5" y="-994.8" font-family="Helvetica,sans-Serif" font-size="14.00">UpdateFlush</text>
</a>
</g>
</g>
<g id="clust5" class="cluster">
<title>clusternode_Set(5)</title>
<g id="a_clust5"><a xlink:title="PostUpdateFlush">
<path fill="#000000" fill-opacity="0.031373" stroke="#000000" stroke-width="2" stroke-opacity="0.250980" d="M1565.5,-1007C1565.5,-1007 1661.5,-1007 1661.5,-1007 1667.5,-1007 1673.5,-1013 1673.5,-1019 1673.5,-1019 1673.5,-1034 1673.5,-1034 1673.5,-1040 1667.5,-1046 1661.5,-1046 1661.5,-1046 1565.5,-1046 1565.5,-1046 1559.5,-1046 1553.5,-1040 1553.5,-1034 1553.5,-1034 1553.5,-1019 1553.5,-1019 1553.5,-1013 1559.5,-1007 1565.5,-1007"/>
<text text-anchor="middle" x="1613.5" y="-1030.8" font-family="Helvetica,sans-Serif" font-size="14.00">PostUpdateFlush</text>
</a>
</g>
</g>
<g id="clust6" class="cluster">
<title>clusternode_Set(6)</title>
<g id="a_clust6"><a xlink:title="LastFlush">
<path fill="#000000" fill-opacity="0.031373" stroke="#000000" stroke-width="2" stroke-opacity="0.250980" d="M1910,-983C1910,-983 1962,-983 1962,-983 1968,-983 1974,-989 1974,-995 1974,-995 1974,-1010 1974,-1010 1974,-1016 1968,-1022 1962,-1022 1962,-1022 1910,-1022 1910,-1022 1904,-1022 1898,-1016 1898,-1010 1898,-1010 1898,-995 1898,-995 1898,-989 1904,-983 1910,-983"/>
<text text-anchor="middle" x="1936" y="-1006.8" font-family="Helvetica,sans-Serif" font-size="14.00">LastFlush</text>
</a>
</g>
</g>
<g id="clust7" class="cluster">
<title>clusternode_Set(7)</title>
<g id="a_clust7"><a xlink:title="First">
<path fill="#000000" fill-opacity="0.031373" stroke="#000000" stroke-width="2" stroke-opacity="0.250980" d="M12,-971C12,-971 31,-971 31,-971 37,-971 43,-977 43,-983 43,-983 43,-998 43,-998 43,-1004 37,-1010 31,-1010 31,-1010 12,-1010 12,-1010 6,-1010 0,-1004 0,-998 0,-998 0,-983 0,-983 0,-977 6,-971 12,-971"/>
<text text-anchor="middle" x="21.5" y="-994.8" font-family="Helvetica,sans-Serif" font-size="14.00">First</text>
</a>
</g>
</g>
<g id="clust8" class="cluster">
<title>clusternode_Set(8)</title>
<g id="a_clust8"><a xlink:title="PreUpdate">
<path fill="#000000" fill-opacity="0.031373" stroke="#000000" stroke-width="2" stroke-opacity="0.250980" d="M518,-924C518,-924 698,-924 698,-924 704,-924 710,-930 710,-936 710,-936 710,-998 710,-998 710,-1004 704,-1010 698,-1010 698,-1010 518,-1010 518,-1010 512,-1010 506,-1004 506,-998 506,-998 506,-936 506,-936 506,-930 512,-924 518,-924"/>
<text text-anchor="middle" x="608" y="-994.8" font-family="Helvetica,sans-Serif" font-size="14.00">PreUpdate</text>
</a>
</g>
</g>
<g id="clust9" class="cluster">
<title>clusternode_Set(9)</title>
<g id="a_clust9"><a xlink:title="StateTransitions">
<path fill="#000000" fill-opacity="0.031373" stroke="#000000" stroke-width="2" stroke-opacity="0.250980" d="M876,-971C876,-971 967,-971 967,-971 973,-971 979,-977 979,-983 979,-983 979,-998 979,-998 979,-1004 973,-1010 967,-1010 967,-1010 876,-1010 876,-1010 870,-1010 864,-1004 864,-998 864,-998 864,-983 864,-983 864,-977 870,-971 876,-971"/>
<text text-anchor="middle" x="921.5" y="-994.8" font-family="Helvetica,sans-Serif" font-size="14.00">StateTransitions</text>
</a>
</g>
</g>
<g id="clust10" class="cluster">
<title>clusternode_Set(10)</title>
<g id="a_clust10"><a xlink:title="FixedUpdate">
<path fill="#000000" fill-opacity="0.031373" stroke="#000000" stroke-width="2" stroke-opacity="0.250980" d="M1011,-971C1011,-971 1080,-971 1080,-971 1086,-971 1092,-977 1092,-983 1092,-983 1092,-998 1092,-998 1092,-1004 1086,-1010 1080,-1010 1080,-1010 1011,-1010 1011,-1010 1005,-1010 999,-1004 999,-998 999,-998 999,-983 999,-983 999,-977 1005,-971 1011,-971"/>
<text text-anchor="middle" x="1045.5" y="-994.8" font-family="Helvetica,sans-Serif" font-size="14.00">FixedUpdate</text>
</a>
</g>
</g>
<g id="clust11" class="cluster">
<title>clusternode_Set(11)</title>
<g id="a_clust11"><a xlink:title="PostUpdate">
<path fill="#000000" fill-opacity="0.031373" stroke="#000000" stroke-width="2" stroke-opacity="0.250980" d="M1317,-971C1317,-971 1380,-971 1380,-971 1386,-971 1392,-977 1392,-983 1392,-983 1392,-998 1392,-998 1392,-1004 1386,-1010 1380,-1010 1380,-1010 1317,-1010 1317,-1010 1311,-1010 1305,-1004 1305,-998 1305,-998 1305,-983 1305,-983 1305,-977 1311,-971 1317,-971"/>
<text text-anchor="middle" x="1348.5" y="-994.8" font-family="Helvetica,sans-Serif" font-size="14.00">PostUpdate</text>
</a>
</g>
</g>
<g id="clust12" class="cluster">
<title>clusternode_Set(12)</title>
<g id="a_clust12"><a xlink:title="Last">
<path fill="#000000" fill-opacity="0.031373" stroke="#000000" stroke-width="2" stroke-opacity="0.250980" d="M1847,-983C1847,-983 1866,-983 1866,-983 1872,-983 1878,-989 1878,-995 1878,-995 1878,-1010 1878,-1010 1878,-1016 1872,-1022 1866,-1022 1866,-1022 1847,-1022 1847,-1022 1841,-1022 1835,-1016 1835,-1010 1835,-1010 1835,-995 1835,-995 1835,-989 1841,-983 1847,-983"/>
<text text-anchor="middle" x="1856.5" y="-1006.8" font-family="Helvetica,sans-Serif" font-size="14.00">Last</text>
</a>
</g>
</g>
<g id="clust13" class="cluster">
<title>clusternode_Set(59)</title>
<g id="a_clust13"><a xlink:title="LoadAssets">
<path fill="#000000" fill-opacity="0.031373" stroke="#000000" stroke-width="2" stroke-opacity="0.250980" d="M75,-8C75,-8 474,-8 474,-8 480,-8 486,-14 486,-20 486,-20 486,-975 486,-975 486,-981 480,-987 474,-987 474,-987 75,-987 75,-987 69,-987 63,-981 63,-975 63,-975 63,-20 63,-20 63,-14 69,-8 75,-8"/>
<text text-anchor="middle" x="274.5" y="-971.8" font-family="Helvetica,sans-Serif" font-size="14.00">LoadAssets</text>
</a>
</g>
</g>
<g id="clust14" class="cluster">
<title>clusternode_Set(60)</title>
<g id="a_clust14"><a xlink:title="AssetEvents">
<path fill="#000000" fill-opacity="0.031373" stroke="#000000" stroke-width="2" stroke-opacity="0.250980" d="M1424,-67C1424,-67 1803,-67 1803,-67 1809,-67 1815,-73 1815,-79 1815,-79 1815,-987 1815,-987 1815,-993 1809,-999 1803,-999 1803,-999 1424,-999 1424,-999 1418,-999 1412,-993 1412,-987 1412,-987 1412,-79 1412,-79 1412,-73 1418,-67 1424,-67"/>
<text text-anchor="middle" x="1613.5" y="-983.8" font-family="Helvetica,sans-Serif" font-size="14.00">AssetEvents</text>
</a>
</g>
</g>
<!-- set_marker_node_Set(0) -->
<!-- set_marker_node_Set(4) -->
<!-- set_marker_node_Set(0)&#45;&gt;set_marker_node_Set(4) -->
<g id="edge7" class="edge">
<title>set_marker_node_Set(0)&#45;&gt;set_marker_node_Set(4)</title>
<g id="a_edge7"><a xlink:title="Update → UpdateFlush">
<path fill="none" stroke="#ee9e44" stroke-width="2" d="M1172,-979C1174.33,-979 1176.74,-979 1179.18,-979"/>
<polygon fill="#ee9e44" stroke="#ee9e44" stroke-width="2" points="1179,-982.5 1189,-979 1179,-975.5 1179,-982.5"/>
</a>
</g>
</g>
<!-- set_marker_node_Set(2) -->
<!-- set_marker_node_Set(8) -->
<!-- set_marker_node_Set(2)&#45;&gt;set_marker_node_Set(8) -->
<g id="edge2" class="edge">
<title>set_marker_node_Set(2)&#45;&gt;set_marker_node_Set(8)</title>
<g id="a_edge2"><a xlink:title="FirstFlush → PreUpdate">
<path fill="none" stroke="#881877" stroke-width="2" d="M312.5,-1000.72C354.55,-998.09 425.24,-993.53 486,-989 488.34,-988.83 490.71,-988.65 493.1,-988.47"/>
<polygon fill="#881877" stroke="#881877" stroke-width="2" points="493.3,-991.73 503,-987.47 492.76,-984.75 493.3,-991.73"/>
</a>
</g>
</g>
<!-- set_marker_node_Set(3) -->
<!-- set_marker_node_Set(9) -->
<!-- set_marker_node_Set(3)&#45;&gt;set_marker_node_Set(9) -->
<g id="edge4" class="edge">
<title>set_marker_node_Set(3)&#45;&gt;set_marker_node_Set(9)</title>
<g id="a_edge4"><a xlink:title="PreUpdateFlush → StateTransitions">
<path fill="none" stroke="#aa3a55" stroke-width="2" d="M844,-979C846.39,-979 848.79,-979 851.21,-979"/>
<polygon fill="#aa3a55" stroke="#aa3a55" stroke-width="2" points="851,-982.5 861,-979 851,-975.5 851,-982.5"/>
</a>
</g>
</g>
<!-- set_marker_node_Set(11) -->
<!-- set_marker_node_Set(4)&#45;&gt;set_marker_node_Set(11) -->
<g id="edge8" class="edge">
<title>set_marker_node_Set(4)&#45;&gt;set_marker_node_Set(11)</title>
<g id="a_edge8"><a xlink:title="UpdateFlush → PostUpdate">
<path fill="none" stroke="#663699" stroke-width="2" d="M1285,-979C1287.32,-979 1289.66,-979 1292,-979"/>
<polygon fill="#663699" stroke="#663699" stroke-width="2" points="1292,-982.5 1302,-979 1292,-975.5 1292,-982.5"/>
</a>
</g>
</g>
<!-- set_marker_node_Set(5) -->
<!-- set_marker_node_Set(12) -->
<!-- set_marker_node_Set(5)&#45;&gt;set_marker_node_Set(12) -->
<g id="edge10" class="edge">
<title>set_marker_node_Set(5)&#45;&gt;set_marker_node_Set(12)</title>
<g id="a_edge10"><a xlink:title="PostUpdateFlush → Last">
<path fill="none" stroke="#22c2bb" stroke-width="2" d="M1673.5,-1013.6C1713.6,-1011.98 1767.75,-1008.5 1815,-1001 1817.47,-1000.61 1820,-1000.14 1822.55,-999.62"/>
<polygon fill="#22c2bb" stroke="#22c2bb" stroke-width="2" points="1824.05,-1002.4 1833,-996.73 1822.47,-995.58 1824.05,-1002.4"/>
</a>
</g>
</g>
<!-- set_marker_node_Set(6) -->
<!-- set_marker_node_Set(7) -->
<!-- set_marker_node_Set(7)&#45;&gt;set_marker_node_Set(2) -->
<g id="edge1" class="edge">
<title>set_marker_node_Set(7)&#45;&gt;set_marker_node_Set(2)</title>
<g id="a_edge1"><a xlink:title="First → FirstFlush">
<path fill="none" stroke="#eede00" stroke-width="2" d="M43,-984.86C49.38,-986.44 56.43,-987.99 63,-989 117.55,-997.4 180.81,-1000.76 223.63,-1002.11"/>
<polygon fill="#eede00" stroke="#eede00" stroke-width="2" points="223.41,-1005.69 233.5,-1002.47 223.6,-998.69 223.41,-1005.69"/>
</a>
</g>
</g>
<!-- set_marker_node_Set(59) -->
<!-- set_marker_node_Set(7)&#45;&gt;set_marker_node_Set(59) -->
<g id="edge13" class="edge">
<title>set_marker_node_Set(7)&#45;&gt;set_marker_node_Set(59)</title>
<g id="a_edge13"><a xlink:title="First → LoadAssets">
<path fill="none" stroke="#881877" stroke-width="2" d="M43,-977.08C45.33,-976.87 47.83,-976.64 50.48,-976.4"/>
<polygon fill="#881877" stroke="#881877" stroke-width="2" points="50.36,-979.65 60,-975.25 49.72,-972.68 50.36,-979.65"/>
</a>
</g>
</g>
<!-- set_marker_node_Set(8)&#45;&gt;set_marker_node_Set(3) -->
<g id="edge3" class="edge">
<title>set_marker_node_Set(8)&#45;&gt;set_marker_node_Set(3)</title>
<g id="a_edge3"><a xlink:title="PreUpdate → PreUpdateFlush">
<path fill="none" stroke="#00b0cc" stroke-width="2" d="M710,-979C712.44,-979 714.87,-979 717.27,-979"/>
<polygon fill="#00b0cc" stroke="#00b0cc" stroke-width="2" points="717,-982.5 727,-979 717,-975.5 717,-982.5"/>
</a>
</g>
</g>
<!-- node_System(47) -->
<g id="node9" class="node">
<title>node_System(47)</title>
<g id="a_node9"><a xlink:title="bevy_asset::asset_server::free_unused_assets_system">
<polygon fill="#d1cbc5" stroke="#a3978c" points="702,-968 514,-968 514,-932 702,-932 702,-968"/>
<text text-anchor="middle" x="608" y="-946.3" font-family="Helvetica,sans-Serif" font-size="14.00" fill="#1c1916">free_unused_assets_system</text>
</a>
</g>
</g>
<!-- set_marker_node_Set(10) -->
<!-- set_marker_node_Set(9)&#45;&gt;set_marker_node_Set(10) -->
<g id="edge5" class="edge">
<title>set_marker_node_Set(9)&#45;&gt;set_marker_node_Set(10)</title>
<g id="a_edge5"><a xlink:title="StateTransitions → FixedUpdate">
<path fill="none" stroke="#44d488" stroke-width="2" d="M979,-979C981.35,-979 983.71,-979 986.07,-979"/>
<polygon fill="#44d488" stroke="#44d488" stroke-width="2" points="986,-982.5 996,-979 986,-975.5 986,-982.5"/>
</a>
</g>
</g>
<!-- set_marker_node_Set(10)&#45;&gt;set_marker_node_Set(0) -->
<g id="edge6" class="edge">
<title>set_marker_node_Set(10)&#45;&gt;set_marker_node_Set(0)</title>
<g id="a_edge6"><a xlink:title="FixedUpdate → Update">
<path fill="none" stroke="#0090cc" stroke-width="2" d="M1092,-979C1094.35,-979 1096.7,-979 1099.03,-979"/>
<polygon fill="#0090cc" stroke="#0090cc" stroke-width="2" points="1099,-982.5 1109,-979 1099,-975.5 1099,-982.5"/>
</a>
</g>
</g>
<!-- set_marker_node_Set(11)&#45;&gt;set_marker_node_Set(5) -->
<g id="edge9" class="edge">
<title>set_marker_node_Set(11)&#45;&gt;set_marker_node_Set(5)</title>
<g id="a_edge9"><a xlink:title="PostUpdate → PostUpdateFlush">
<path fill="none" stroke="#3363bb" stroke-width="2" d="M1392,-995.71C1398.62,-997.79 1405.43,-999.65 1412,-1001 1454.1,-1009.66 1502.1,-1013.23 1540.58,-1014.6"/>
<polygon fill="#3363bb" stroke="#3363bb" stroke-width="2" points="1540.4,-1018.18 1550.5,-1014.99 1540.61,-1011.19 1540.4,-1018.18"/>
</a>
</g>
</g>
<!-- set_marker_node_Set(60) -->
<!-- set_marker_node_Set(11)&#45;&gt;set_marker_node_Set(60) -->
<g id="edge14" class="edge">
<title>set_marker_node_Set(11)&#45;&gt;set_marker_node_Set(60)</title>
<g id="a_edge14"><a xlink:title="PostUpdate → AssetEvents">
<path fill="none" stroke="#00b0cc" stroke-width="2" d="M1392,-977.21C1394.32,-977.11 1396.71,-977.01 1399.17,-976.91"/>
<polygon fill="#00b0cc" stroke="#00b0cc" stroke-width="2" points="1399.16,-980.28 1409,-976.37 1398.86,-973.29 1399.16,-980.28"/>
</a>
</g>
</g>
<!-- set_marker_node_Set(12)&#45;&gt;set_marker_node_Set(6) -->
<g id="edge11" class="edge">
<title>set_marker_node_Set(12)&#45;&gt;set_marker_node_Set(6)</title>
<g id="a_edge11"><a xlink:title="Last → LastFlush">
<path fill="none" stroke="#99d955" stroke-width="2" d="M1878,-991C1880.33,-991 1882.78,-991 1885.29,-991"/>
<polygon fill="#99d955" stroke="#99d955" stroke-width="2" points="1885,-994.5 1895,-991 1885,-987.5 1885,-994.5"/>
</a>
</g>
</g>
<!-- set_marker_node_Set(59)&#45;&gt;set_marker_node_Set(8) -->
<g id="edge12" class="edge">
<title>set_marker_node_Set(59)&#45;&gt;set_marker_node_Set(8)</title>
<g id="a_edge12"><a xlink:title="LoadAssets → PreUpdate">
<path fill="none" stroke="#eede00" stroke-width="2" d="M486,-972.69C488.4,-972.85 490.78,-973.01 493.16,-973.16"/>
<polygon fill="#eede00" stroke="#eede00" stroke-width="2" points="492.79,-976.84 503,-974 493.25,-969.86 492.79,-976.84"/>
</a>
</g>
</g>
<!-- node_System(48) -->
<g id="node15" class="node">
<title>node_System(48)</title>
<g id="a_node15"><a xlink:title="bevy_asset::io::file_asset_io::filesystem_watcher_system">
<polygon fill="#d1cbc5" stroke="#a3978c" points="365.5,-945 183.5,-945 183.5,-909 365.5,-909 365.5,-945"/>
<text text-anchor="middle" x="274.5" y="-923.3" font-family="Helvetica,sans-Serif" font-size="14.00" fill="#1c1916">filesystem_watcher_system</text>
</a>
</g>
</g>
<!-- node_System(50) -->
<g id="node16" class="node">
<title>node_System(50)</title>
<g id="a_node16"><a xlink:title="bevy_asset::loader::update_asset_storage_system&lt;bevy_scene::dynamic_scene::DynamicScene&gt;">
<polygon fill="#d1cbc5" stroke="#a3978c" points="428.5,-898 120.5,-898 120.5,-862 428.5,-862 428.5,-898"/>
<text text-anchor="middle" x="274.5" y="-876.3" font-family="Helvetica,sans-Serif" font-size="14.00" fill="#1c1916">update_asset_storage_system&lt;DynamicScene&gt;</text>
</a>
</g>
</g>
<!-- node_System(53) -->
<g id="node17" class="node">
<title>node_System(53)</title>
<g id="a_node17"><a xlink:title="bevy_asset::loader::update_asset_storage_system&lt;bevy_scene::scene::Scene&gt;">
<polygon fill="#d1cbc5" stroke="#a3978c" points="402,-851 147,-851 147,-815 402,-815 402,-851"/>
<text text-anchor="middle" x="274.5" y="-829.3" font-family="Helvetica,sans-Serif" font-size="14.00" fill="#1c1916">update_asset_storage_system&lt;Scene&gt;</text>
</a>
</g>
</g>
<!-- node_System(65) -->
<g id="node18" class="node">
<title>node_System(65)</title>
<g id="a_node18"><a xlink:title="bevy_asset::loader::update_asset_storage_system&lt;bevy_render::render_resource::shader::Shader&gt;">
<polygon fill="#d1cbc5" stroke="#a3978c" points="404.5,-804 144.5,-804 144.5,-768 404.5,-768 404.5,-804"/>
<text text-anchor="middle" x="274.5" y="-782.3" font-family="Helvetica,sans-Serif" font-size="14.00" fill="#1c1916">update_asset_storage_system&lt;Shader&gt;</text>
</a>
</g>
</g>
<!-- node_System(79) -->
<g id="node19" class="node">
<title>node_System(79)</title>
<g id="a_node19"><a xlink:title="bevy_asset::loader::update_asset_storage_system&lt;bevy_render::mesh::mesh::Mesh&gt;">
<polygon fill="#d1cbc5" stroke="#a3978c" points="400,-757 149,-757 149,-721 400,-721 400,-757"/>
<text text-anchor="middle" x="274.5" y="-735.3" font-family="Helvetica,sans-Serif" font-size="14.00" fill="#1c1916">update_asset_storage_system&lt;Mesh&gt;</text>
</a>
</g>
</g>
<!-- node_System(82) -->
<g id="node20" class="node">
<title>node_System(82)</title>
<g id="a_node20"><a xlink:title="bevy_asset::loader::update_asset_storage_system&lt;bevy_render::mesh::mesh::skinning::SkinnedMeshInverseBindposes&gt;">
<polygon fill="#d1cbc5" stroke="#a3978c" points="478,-710 71,-710 71,-674 478,-674 478,-710"/>
<text text-anchor="middle" x="274.5" y="-688.3" font-family="Helvetica,sans-Serif" font-size="14.00" fill="#1c1916">update_asset_storage_system&lt;SkinnedMeshInverseBindposes&gt;</text>
</a>
</g>
</g>
<!-- node_System(85) -->
<g id="node21" class="node">
<title>node_System(85)</title>
<g id="a_node21"><a xlink:title="bevy_asset::loader::update_asset_storage_system&lt;bevy_render::texture::image::Image&gt;">
<polygon fill="#d1cbc5" stroke="#a3978c" points="401.5,-663 147.5,-663 147.5,-627 401.5,-627 401.5,-663"/>
<text text-anchor="middle" x="274.5" y="-641.3" font-family="Helvetica,sans-Serif" font-size="14.00" fill="#1c1916">update_asset_storage_system&lt;Image&gt;</text>
</a>
</g>
</g>
<!-- node_System(88) -->
<g id="node22" class="node">
<title>node_System(88)</title>
<g id="a_node22"><a xlink:title="bevy_asset::loader::update_asset_storage_system&lt;bevy_sprite::texture_atlas::TextureAtlas&gt;">
<polygon fill="#d1cbc5" stroke="#a3978c" points="421,-616 128,-616 128,-580 421,-580 421,-616"/>
<text text-anchor="middle" x="274.5" y="-594.3" font-family="Helvetica,sans-Serif" font-size="14.00" fill="#1c1916">update_asset_storage_system&lt;TextureAtlas&gt;</text>
</a>
</g>
</g>
<!-- node_System(91) -->
<g id="node23" class="node">
<title>node_System(91)</title>
<g id="a_node23"><a xlink:title="bevy_asset::loader::update_asset_storage_system&lt;bevy_sprite::mesh2d::color_material::ColorMaterial&gt;">
<polygon fill="#d1cbc5" stroke="#a3978c" points="423.5,-569 125.5,-569 125.5,-533 423.5,-533 423.5,-569"/>
<text text-anchor="middle" x="274.5" y="-547.3" font-family="Helvetica,sans-Serif" font-size="14.00" fill="#1c1916">update_asset_storage_system&lt;ColorMaterial&gt;</text>
</a>
</g>
</g>
<!-- node_System(94) -->
<g id="node24" class="node">
<title>node_System(94)</title>
<g id="a_node24"><a xlink:title="bevy_asset::loader::update_asset_storage_system&lt;bevy_text::font::Font&gt;">
<polygon fill="#d1cbc5" stroke="#a3978c" points="396.5,-522 152.5,-522 152.5,-486 396.5,-486 396.5,-522"/>
<text text-anchor="middle" x="274.5" y="-500.3" font-family="Helvetica,sans-Serif" font-size="14.00" fill="#1c1916">update_asset_storage_system&lt;Font&gt;</text>
</a>
</g>
</g>
<!-- node_System(97) -->
<g id="node25" class="node">
<title>node_System(97)</title>
<g id="a_node25"><a xlink:title="bevy_asset::loader::update_asset_storage_system&lt;bevy_text::font_atlas_set::FontAtlasSet&gt;">
<polygon fill="#d1cbc5" stroke="#a3978c" points="421.5,-475 127.5,-475 127.5,-439 421.5,-439 421.5,-475"/>
<text text-anchor="middle" x="274.5" y="-453.3" font-family="Helvetica,sans-Serif" font-size="14.00" fill="#1c1916">update_asset_storage_system&lt;FontAtlasSet&gt;</text>
</a>
</g>
</g>
<!-- node_System(111) -->
<g id="node26" class="node">
<title>node_System(111)</title>
<g id="a_node26"><a xlink:title="bevy_asset::loader::update_asset_storage_system&lt;bevy_pbr::pbr_material::StandardMaterial&gt;">
<polygon fill="#d1cbc5" stroke="#a3978c" points="434.5,-428 114.5,-428 114.5,-392 434.5,-392 434.5,-428"/>
<text text-anchor="middle" x="274.5" y="-406.3" font-family="Helvetica,sans-Serif" font-size="14.00" fill="#1c1916">update_asset_storage_system&lt;StandardMaterial&gt;</text>
</a>
</g>
</g>
<!-- node_System(122) -->
<g id="node27" class="node">
<title>node_System(122)</title>
<g id="a_node27"><a xlink:title="bevy_asset::loader::update_asset_storage_system&lt;bevy_gltf::Gltf&gt;">
<polygon fill="#d1cbc5" stroke="#a3978c" points="393.5,-381 155.5,-381 155.5,-345 393.5,-345 393.5,-381"/>
<text text-anchor="middle" x="274.5" y="-359.3" font-family="Helvetica,sans-Serif" font-size="14.00" fill="#1c1916">update_asset_storage_system&lt;Gltf&gt;</text>
</a>
</g>
</g>
<!-- node_System(125) -->
<g id="node28" class="node">
<title>node_System(125)</title>
<g id="a_node28"><a xlink:title="bevy_asset::loader::update_asset_storage_system&lt;bevy_gltf::GltfNode&gt;">
<polygon fill="#d1cbc5" stroke="#a3978c" points="410,-334 139,-334 139,-298 410,-298 410,-334"/>
<text text-anchor="middle" x="274.5" y="-312.3" font-family="Helvetica,sans-Serif" font-size="14.00" fill="#1c1916">update_asset_storage_system&lt;GltfNode&gt;</text>
</a>
</g>
</g>
<!-- node_System(128) -->
<g id="node29" class="node">
<title>node_System(128)</title>
<g id="a_node29"><a xlink:title="bevy_asset::loader::update_asset_storage_system&lt;bevy_gltf::GltfPrimitive&gt;">
<polygon fill="#d1cbc5" stroke="#a3978c" points="419.5,-287 129.5,-287 129.5,-251 419.5,-251 419.5,-287"/>
<text text-anchor="middle" x="274.5" y="-265.3" font-family="Helvetica,sans-Serif" font-size="14.00" fill="#1c1916">update_asset_storage_system&lt;GltfPrimitive&gt;</text>
</a>
</g>
</g>
<!-- node_System(131) -->
<g id="node30" class="node">
<title>node_System(131)</title>
<g id="a_node30"><a xlink:title="bevy_asset::loader::update_asset_storage_system&lt;bevy_gltf::GltfMesh&gt;">
<polygon fill="#d1cbc5" stroke="#a3978c" points="410.5,-240 138.5,-240 138.5,-204 410.5,-204 410.5,-240"/>
<text text-anchor="middle" x="274.5" y="-218.3" font-family="Helvetica,sans-Serif" font-size="14.00" fill="#1c1916">update_asset_storage_system&lt;GltfMesh&gt;</text>
</a>
</g>
</g>
<!-- node_System(134) -->
<g id="node31" class="node">
<title>node_System(134)</title>
<g id="a_node31"><a xlink:title="bevy_asset::loader::update_asset_storage_system&lt;bevy_audio::audio_source::AudioSource&gt;">
<polygon fill="#d1cbc5" stroke="#a3978c" points="421.5,-193 127.5,-193 127.5,-157 421.5,-157 421.5,-193"/>
<text text-anchor="middle" x="274.5" y="-171.3" font-family="Helvetica,sans-Serif" font-size="14.00" fill="#1c1916">update_asset_storage_system&lt;AudioSource&gt;</text>
</a>
</g>
</g>
<!-- node_System(137) -->
<g id="node32" class="node">
<title>node_System(137)</title>
<g id="a_node32"><a xlink:title="bevy_asset::loader::update_asset_storage_system&lt;bevy_audio::sinks::AudioSink&gt;">
<polygon fill="#d1cbc5" stroke="#a3978c" points="413.5,-146 135.5,-146 135.5,-110 413.5,-110 413.5,-146"/>
<text text-anchor="middle" x="274.5" y="-124.3" font-family="Helvetica,sans-Serif" font-size="14.00" fill="#1c1916">update_asset_storage_system&lt;AudioSink&gt;</text>
</a>
</g>
</g>
<!-- node_System(140) -->
<g id="node33" class="node">
<title>node_System(140)</title>
<g id="a_node33"><a xlink:title="bevy_asset::loader::update_asset_storage_system&lt;bevy_audio::sinks::SpatialAudioSink&gt;">
<polygon fill="#d1cbc5" stroke="#a3978c" points="434.5,-99 114.5,-99 114.5,-63 434.5,-63 434.5,-99"/>
<text text-anchor="middle" x="274.5" y="-77.3" font-family="Helvetica,sans-Serif" font-size="14.00" fill="#1c1916">update_asset_storage_system&lt;SpatialAudioSink&gt;</text>
</a>
</g>
</g>
<!-- node_System(145) -->
<g id="node34" class="node">
<title>node_System(145)</title>
<g id="a_node34"><a xlink:title="bevy_asset::loader::update_asset_storage_system&lt;bevy_animation::AnimationClip&gt;">
<polygon fill="#d1cbc5" stroke="#a3978c" points="424.5,-52 124.5,-52 124.5,-16 424.5,-16 424.5,-52"/>
<text text-anchor="middle" x="274.5" y="-30.3" font-family="Helvetica,sans-Serif" font-size="14.00" fill="#1c1916">update_asset_storage_system&lt;AnimationClip&gt;</text>
</a>
</g>
</g>
<!-- set_marker_node_Set(60)&#45;&gt;set_marker_node_Set(12) -->
<g id="edge15" class="edge">
<title>set_marker_node_Set(60)&#45;&gt;set_marker_node_Set(12)</title>
<g id="a_edge15"><a xlink:title="AssetEvents → Last">
<path fill="none" stroke="#aa3a55" stroke-width="2" d="M1815,-987.17C1817.53,-987.42 1819.98,-987.65 1822.33,-987.88"/>
<polygon fill="#aa3a55" stroke="#aa3a55" stroke-width="2" points="1821.72,-991.62 1832,-989.09 1822.38,-984.65 1821.72,-991.62"/>
</a>
</g>
</g>
<!-- node_System(49) -->
<g id="node36" class="node">
<title>node_System(49)</title>
<g id="a_node36"><a xlink:title="bevy_asset::assets::Assets&lt;bevy_scene::dynamic_scene::DynamicScene&gt;::asset_event_system">
<polygon fill="#d1cbc5" stroke="#a3978c" points="1757,-957 1470,-957 1470,-921 1757,-921 1757,-957"/>
<text text-anchor="middle" x="1613.5" y="-935.3" font-family="Helvetica,sans-Serif" font-size="14.00" fill="#1c1916">Assets&lt;DynamicScene&gt;asset_event_system</text>
</a>
</g>
</g>
<!-- node_System(52) -->
<g id="node37" class="node">
<title>node_System(52)</title>
<g id="a_node37"><a xlink:title="bevy_asset::assets::Assets&lt;bevy_scene::scene::Scene&gt;::asset_event_system">
<polygon fill="#d1cbc5" stroke="#a3978c" points="1731,-910 1496,-910 1496,-874 1731,-874 1731,-910"/>
<text text-anchor="middle" x="1613.5" y="-888.3" font-family="Helvetica,sans-Serif" font-size="14.00" fill="#1c1916">Assets&lt;Scene&gt;asset_event_system</text>
</a>
</g>
</g>
<!-- node_System(64) -->
<g id="node38" class="node">
<title>node_System(64)</title>
<g id="a_node38"><a xlink:title="bevy_asset::assets::Assets&lt;bevy_render::render_resource::shader::Shader&gt;::asset_event_system">
<polygon fill="#d1cbc5" stroke="#a3978c" points="1733.5,-863 1493.5,-863 1493.5,-827 1733.5,-827 1733.5,-863"/>
<text text-anchor="middle" x="1613.5" y="-841.3" font-family="Helvetica,sans-Serif" font-size="14.00" fill="#1c1916">Assets&lt;Shader&gt;asset_event_system</text>
</a>
</g>
</g>
<!-- node_System(78) -->
<g id="node39" class="node">
<title>node_System(78)</title>
<g id="a_node39"><a xlink:title="bevy_asset::assets::Assets&lt;bevy_render::mesh::mesh::Mesh&gt;::asset_event_system">
<polygon fill="#d1cbc5" stroke="#a3978c" points="1728.5,-816 1498.5,-816 1498.5,-780 1728.5,-780 1728.5,-816"/>
<text text-anchor="middle" x="1613.5" y="-794.3" font-family="Helvetica,sans-Serif" font-size="14.00" fill="#1c1916">Assets&lt;Mesh&gt;asset_event_system</text>
</a>
</g>
</g>
<!-- node_System(81) -->
<g id="node40" class="node">
<title>node_System(81)</title>
<g id="a_node40"><a xlink:title="bevy_asset::assets::Assets&lt;bevy_render::mesh::mesh::skinning::SkinnedMeshInverseBindposes&gt;::asset_event_system">
<polygon fill="#d1cbc5" stroke="#a3978c" points="1807,-769 1420,-769 1420,-733 1807,-733 1807,-769"/>
<text text-anchor="middle" x="1613.5" y="-747.3" font-family="Helvetica,sans-Serif" font-size="14.00" fill="#1c1916">Assets&lt;SkinnedMeshInverseBindposes&gt;asset_event_system</text>
</a>
</g>
</g>
<!-- node_System(84) -->
<g id="node41" class="node">
<title>node_System(84)</title>
<g id="a_node41"><a xlink:title="bevy_asset::assets::Assets&lt;bevy_render::texture::image::Image&gt;::asset_event_system">
<polygon fill="#d1cbc5" stroke="#a3978c" points="1730.5,-722 1496.5,-722 1496.5,-686 1730.5,-686 1730.5,-722"/>
<text text-anchor="middle" x="1613.5" y="-700.3" font-family="Helvetica,sans-Serif" font-size="14.00" fill="#1c1916">Assets&lt;Image&gt;asset_event_system</text>
</a>
</g>
</g>
<!-- node_System(87) -->
<g id="node42" class="node">
<title>node_System(87)</title>
<g id="a_node42"><a xlink:title="bevy_asset::assets::Assets&lt;bevy_sprite::texture_atlas::TextureAtlas&gt;::asset_event_system">
<polygon fill="#d1cbc5" stroke="#a3978c" points="1750,-675 1477,-675 1477,-639 1750,-639 1750,-675"/>
<text text-anchor="middle" x="1613.5" y="-653.3" font-family="Helvetica,sans-Serif" font-size="14.00" fill="#1c1916">Assets&lt;TextureAtlas&gt;asset_event_system</text>
</a>
</g>
</g>
<!-- node_System(90) -->
<g id="node43" class="node">
<title>node_System(90)</title>
<g id="a_node43"><a xlink:title="bevy_asset::assets::Assets&lt;bevy_sprite::mesh2d::color_material::ColorMaterial&gt;::asset_event_system">
<polygon fill="#d1cbc5" stroke="#a3978c" points="1752.5,-628 1474.5,-628 1474.5,-592 1752.5,-592 1752.5,-628"/>
<text text-anchor="middle" x="1613.5" y="-606.3" font-family="Helvetica,sans-Serif" font-size="14.00" fill="#1c1916">Assets&lt;ColorMaterial&gt;asset_event_system</text>
</a>
</g>
</g>
<!-- node_System(93) -->
<g id="node44" class="node">
<title>node_System(93)</title>
<g id="a_node44"><a xlink:title="bevy_asset::assets::Assets&lt;bevy_text::font::Font&gt;::asset_event_system">
<polygon fill="#d1cbc5" stroke="#a3978c" points="1725.5,-581 1501.5,-581 1501.5,-545 1725.5,-545 1725.5,-581"/>
<text text-anchor="middle" x="1613.5" y="-559.3" font-family="Helvetica,sans-Serif" font-size="14.00" fill="#1c1916">Assets&lt;Font&gt;asset_event_system</text>
</a>
</g>
</g>
<!-- node_System(96) -->
<g id="node45" class="node">
<title>node_System(96)</title>
<g id="a_node45"><a xlink:title="bevy_asset::assets::Assets&lt;bevy_text::font_atlas_set::FontAtlasSet&gt;::asset_event_system">
<polygon fill="#d1cbc5" stroke="#a3978c" points="1750.5,-534 1476.5,-534 1476.5,-498 1750.5,-498 1750.5,-534"/>
<text text-anchor="middle" x="1613.5" y="-512.3" font-family="Helvetica,sans-Serif" font-size="14.00" fill="#1c1916">Assets&lt;FontAtlasSet&gt;asset_event_system</text>
</a>
</g>
</g>
<!-- node_System(110) -->
<g id="node46" class="node">
<title>node_System(110)</title>
<g id="a_node46"><a xlink:title="bevy_asset::assets::Assets&lt;bevy_pbr::pbr_material::StandardMaterial&gt;::asset_event_system">
<polygon fill="#d1cbc5" stroke="#a3978c" points="1763.5,-487 1463.5,-487 1463.5,-451 1763.5,-451 1763.5,-487"/>
<text text-anchor="middle" x="1613.5" y="-465.3" font-family="Helvetica,sans-Serif" font-size="14.00" fill="#1c1916">Assets&lt;StandardMaterial&gt;asset_event_system</text>
</a>
</g>
</g>
<!-- node_System(121) -->
<g id="node47" class="node">
<title>node_System(121)</title>
<g id="a_node47"><a xlink:title="bevy_asset::assets::Assets&lt;bevy_gltf::Gltf&gt;::asset_event_system">
<polygon fill="#d1cbc5" stroke="#a3978c" points="1722.5,-440 1504.5,-440 1504.5,-404 1722.5,-404 1722.5,-440"/>
<text text-anchor="middle" x="1613.5" y="-418.3" font-family="Helvetica,sans-Serif" font-size="14.00" fill="#1c1916">Assets&lt;Gltf&gt;asset_event_system</text>
</a>
</g>
</g>
<!-- node_System(124) -->
<g id="node48" class="node">
<title>node_System(124)</title>
<g id="a_node48"><a xlink:title="bevy_asset::assets::Assets&lt;bevy_gltf::GltfNode&gt;::asset_event_system">
<polygon fill="#d1cbc5" stroke="#a3978c" points="1739,-393 1488,-393 1488,-357 1739,-357 1739,-393"/>
<text text-anchor="middle" x="1613.5" y="-371.3" font-family="Helvetica,sans-Serif" font-size="14.00" fill="#1c1916">Assets&lt;GltfNode&gt;asset_event_system</text>
</a>
</g>
</g>
<!-- node_System(127) -->
<g id="node49" class="node">
<title>node_System(127)</title>
<g id="a_node49"><a xlink:title="bevy_asset::assets::Assets&lt;bevy_gltf::GltfPrimitive&gt;::asset_event_system">
<polygon fill="#d1cbc5" stroke="#a3978c" points="1748,-346 1479,-346 1479,-310 1748,-310 1748,-346"/>
<text text-anchor="middle" x="1613.5" y="-324.3" font-family="Helvetica,sans-Serif" font-size="14.00" fill="#1c1916">Assets&lt;GltfPrimitive&gt;asset_event_system</text>
</a>
</g>
</g>
<!-- node_System(130) -->
<g id="node50" class="node">
<title>node_System(130)</title>
<g id="a_node50"><a xlink:title="bevy_asset::assets::Assets&lt;bevy_gltf::GltfMesh&gt;::asset_event_system">
<polygon fill="#d1cbc5" stroke="#a3978c" points="1739,-299 1488,-299 1488,-263 1739,-263 1739,-299"/>
<text text-anchor="middle" x="1613.5" y="-277.3" font-family="Helvetica,sans-Serif" font-size="14.00" fill="#1c1916">Assets&lt;GltfMesh&gt;asset_event_system</text>
</a>
</g>
</g>
<!-- node_System(133) -->
<g id="node51" class="node">
<title>node_System(133)</title>
<g id="a_node51"><a xlink:title="bevy_asset::assets::Assets&lt;bevy_audio::audio_source::AudioSource&gt;::asset_event_system">
<polygon fill="#d1cbc5" stroke="#a3978c" points="1750.5,-252 1476.5,-252 1476.5,-216 1750.5,-216 1750.5,-252"/>
<text text-anchor="middle" x="1613.5" y="-230.3" font-family="Helvetica,sans-Serif" font-size="14.00" fill="#1c1916">Assets&lt;AudioSource&gt;asset_event_system</text>
</a>
</g>
</g>
<!-- node_System(136) -->
<g id="node52" class="node">
<title>node_System(136)</title>
<g id="a_node52"><a xlink:title="bevy_asset::assets::Assets&lt;bevy_audio::sinks::AudioSink&gt;::asset_event_system">
<polygon fill="#d1cbc5" stroke="#a3978c" points="1742.5,-205 1484.5,-205 1484.5,-169 1742.5,-169 1742.5,-205"/>
<text text-anchor="middle" x="1613.5" y="-183.3" font-family="Helvetica,sans-Serif" font-size="14.00" fill="#1c1916">Assets&lt;AudioSink&gt;asset_event_system</text>
</a>
</g>
</g>
<!-- node_System(139) -->
<g id="node53" class="node">
<title>node_System(139)</title>
<g id="a_node53"><a xlink:title="bevy_asset::assets::Assets&lt;bevy_audio::sinks::SpatialAudioSink&gt;::asset_event_system">
<polygon fill="#d1cbc5" stroke="#a3978c" points="1763,-158 1464,-158 1464,-122 1763,-122 1763,-158"/>
<text text-anchor="middle" x="1613.5" y="-136.3" font-family="Helvetica,sans-Serif" font-size="14.00" fill="#1c1916">Assets&lt;SpatialAudioSink&gt;asset_event_system</text>
</a>
</g>
</g>
<!-- node_System(144) -->
<g id="node54" class="node">
<title>node_System(144)</title>
<g id="a_node54"><a xlink:title="bevy_asset::assets::Assets&lt;bevy_animation::AnimationClip&gt;::asset_event_system">
<polygon fill="#d1cbc5" stroke="#a3978c" points="1753.5,-111 1473.5,-111 1473.5,-75 1753.5,-75 1753.5,-111"/>
<text text-anchor="middle" x="1613.5" y="-89.3" font-family="Helvetica,sans-Serif" font-size="14.00" fill="#1c1916">Assets&lt;AnimationClip&gt;asset_event_system</text>
</a>
</g>
</g>
</g>
</svg>
