<?xml version="1.0" encoding="UTF-8" standalone="no"?>
<!DOCTYPE svg PUBLIC "-//W3C//DTD SVG 1.1//EN"
 "http://www.w3.org/Graphics/SVG/1.1/DTD/svg11.dtd">
<!-- Generated by graphviz version 8.0.1 (0)
 -->
<!-- Pages: 1 -->
<svg width="1404pt" height="134pt"
 viewBox="0.00 0.00 1404.00 134.00" xmlns="http://www.w3.org/2000/svg" xmlns:xlink="http://www.w3.org/1999/xlink">
<g id="graph0" class="graph" transform="scale(1 1) rotate(0) translate(4 130)">
<polygon fill="white" stroke="none" points="-4,4 -4,-130 1400,-130 1400,4 -4,4"/>
<g id="clust1" class="cluster">
<title>clusternode_Set(0)</title>
<g id="a_clust1"><a xlink:title="Update">
<path fill="#000000" fill-opacity="0.031373" stroke="#000000" stroke-width="2" stroke-opacity="0.250980" d="M712,-8C712,-8 865,-8 865,-8 871,-8 877,-14 877,-20 877,-20 877,-82 877,-82 877,-88 871,-94 865,-94 865,-94 712,-94 712,-94 706,-94 700,-88 700,-82 700,-82 700,-20 700,-20 700,-14 706,-8 712,-8"/>
<text text-anchor="middle" x="788.5" y="-78.8" font-family="Helvetica,sans-Serif" font-size="14.00">Update</text>
</a>
</g>
</g>
<g id="clust2" class="cluster">
<title>clusternode_Set(2)</title>
<g id="a_clust2"><a xlink:title="FirstFlush">
<path fill="#000000" fill-opacity="0.031373" stroke="#000000" stroke-width="2" stroke-opacity="0.250980" d="M81,-67C81,-67 133,-67 133,-67 139,-67 145,-73 145,-79 145,-79 145,-94 145,-94 145,-100 139,-106 133,-106 133,-106 81,-106 81,-106 75,-106 69,-100 69,-94 69,-94 69,-79 69,-79 69,-73 75,-67 81,-67"/>
<text text-anchor="middle" x="107" y="-90.8" font-family="Helvetica,sans-Serif" font-size="14.00">FirstFlush</text>
</a>
</g>
</g>
<g id="clust3" class="cluster">
<title>clusternode_Set(3)</title>
<g id="a_clust3"><a xlink:title="PreUpdateFlush">
<path fill="#000000" fill-opacity="0.031373" stroke="#000000" stroke-width="2" stroke-opacity="0.250980" d="M330,-55C330,-55 420,-55 420,-55 426,-55 432,-61 432,-67 432,-67 432,-82 432,-82 432,-88 426,-94 420,-94 420,-94 330,-94 330,-94 324,-94 318,-88 318,-82 318,-82 318,-67 318,-67 318,-61 324,-55 330,-55"/>
<text text-anchor="middle" x="375" y="-78.8" font-family="Helvetica,sans-Serif" font-size="14.00">PreUpdateFlush</text>
</a>
</g>
</g>
<g id="clust4" class="cluster">
<title>clusternode_Set(4)</title>
<g id="a_clust4"><a xlink:title="UpdateFlush">
<path fill="#000000" fill-opacity="0.031373" stroke="#000000" stroke-width="2" stroke-opacity="0.250980" d="M909,-55C909,-55 978,-55 978,-55 984,-55 990,-61 990,-67 990,-67 990,-82 990,-82 990,-88 984,-94 978,-94 978,-94 909,-94 909,-94 903,-94 897,-88 897,-82 897,-82 897,-67 897,-67 897,-61 903,-55 909,-55"/>
<text text-anchor="middle" x="943.5" y="-78.8" font-family="Helvetica,sans-Serif" font-size="14.00">UpdateFlush</text>
</a>
</g>
</g>
<g id="clust5" class="cluster">
<title>clusternode_Set(5)</title>
<g id="a_clust5"><a xlink:title="PostUpdateFlush">
<path fill="#000000" fill-opacity="0.031373" stroke="#000000" stroke-width="2" stroke-opacity="0.250980" d="M1129,-79C1129,-79 1225,-79 1225,-79 1231,-79 1237,-85 1237,-91 1237,-91 1237,-106 1237,-106 1237,-112 1231,-118 1225,-118 1225,-118 1129,-118 1129,-118 1123,-118 1117,-112 1117,-106 1117,-106 1117,-91 1117,-91 1117,-85 1123,-79 1129,-79"/>
<text text-anchor="middle" x="1177" y="-102.8" font-family="Helvetica,sans-Serif" font-size="14.00">PostUpdateFlush</text>
</a>
</g>
</g>
<g id="clust6" class="cluster">
<title>clusternode_Set(6)</title>
<g id="a_clust6"><a xlink:title="LastFlush">
<path fill="#000000" fill-opacity="0.031373" stroke="#000000" stroke-width="2" stroke-opacity="0.250980" d="M1332,-55C1332,-55 1384,-55 1384,-55 1390,-55 1396,-61 1396,-67 1396,-67 1396,-82 1396,-82 1396,-88 1390,-94 1384,-94 1384,-94 1332,-94 1332,-94 1326,-94 1320,-88 1320,-82 1320,-82 1320,-67 1320,-67 1320,-61 1326,-55 1332,-55"/>
<text text-anchor="middle" x="1358" y="-78.8" font-family="Helvetica,sans-Serif" font-size="14.00">LastFlush</text>
</a>
</g>
</g>
<g id="clust7" class="cluster">
<title>clusternode_Set(7)</title>
<g id="a_clust7"><a xlink:title="First">
<path fill="#000000" fill-opacity="0.031373" stroke="#000000" stroke-width="2" stroke-opacity="0.250980" d="M12,-43C12,-43 31,-43 31,-43 37,-43 43,-49 43,-55 43,-55 43,-70 43,-70 43,-76 37,-82 31,-82 31,-82 12,-82 12,-82 6,-82 0,-76 0,-70 0,-70 0,-55 0,-55 0,-49 6,-43 12,-43"/>
<text text-anchor="middle" x="21.5" y="-66.8" font-family="Helvetica,sans-Serif" font-size="14.00">First</text>
</a>
</g>
</g>
<g id="clust8" class="cluster">
<title>clusternode_Set(8)</title>
<g id="a_clust8"><a xlink:title="PreUpdate">
<path fill="#000000" fill-opacity="0.031373" stroke="#000000" stroke-width="2" stroke-opacity="0.250980" d="M183,-8C183,-8 286,-8 286,-8 292,-8 298,-14 298,-20 298,-20 298,-82 298,-82 298,-88 292,-94 286,-94 286,-94 183,-94 183,-94 177,-94 171,-88 171,-82 171,-82 171,-20 171,-20 171,-14 177,-8 183,-8"/>
<text text-anchor="middle" x="234.5" y="-78.8" font-family="Helvetica,sans-Serif" font-size="14.00">PreUpdate</text>
</a>
</g>
</g>
<g id="clust9" class="cluster">
<title>clusternode_Set(9)</title>
<g id="a_clust9"><a xlink:title="StateTransitions">
<path fill="#000000" fill-opacity="0.031373" stroke="#000000" stroke-width="2" stroke-opacity="0.250980" d="M464,-55C464,-55 555,-55 555,-55 561,-55 567,-61 567,-67 567,-67 567,-82 567,-82 567,-88 561,-94 555,-94 555,-94 464,-94 464,-94 458,-94 452,-88 452,-82 452,-82 452,-67 452,-67 452,-61 458,-55 464,-55"/>
<text text-anchor="middle" x="509.5" y="-78.8" font-family="Helvetica,sans-Serif" font-size="14.00">StateTransitions</text>
</a>
</g>
</g>
<g id="clust10" class="cluster">
<title>clusternode_Set(10)</title>
<g id="a_clust10"><a xlink:title="FixedUpdate">
<path fill="#000000" fill-opacity="0.031373" stroke="#000000" stroke-width="2" stroke-opacity="0.250980" d="M599,-55C599,-55 668,-55 668,-55 674,-55 680,-61 680,-67 680,-67 680,-82 680,-82 680,-88 674,-94 668,-94 668,-94 599,-94 599,-94 593,-94 587,-88 587,-82 587,-82 587,-67 587,-67 587,-61 593,-55 599,-55"/>
<text text-anchor="middle" x="633.5" y="-78.8" font-family="Helvetica,sans-Serif" font-size="14.00">FixedUpdate</text>
</a>
</g>
</g>
<g id="clust11" class="cluster">
<title>clusternode_Set(11)</title>
<g id="a_clust11"><a xlink:title="PostUpdate">
<path fill="#000000" fill-opacity="0.031373" stroke="#000000" stroke-width="2" stroke-opacity="0.250980" d="M1022,-55C1022,-55 1085,-55 1085,-55 1091,-55 1097,-61 1097,-67 1097,-67 1097,-82 1097,-82 1097,-88 1091,-94 1085,-94 1085,-94 1022,-94 1022,-94 1016,-94 1010,-88 1010,-82 1010,-82 1010,-67 1010,-67 1010,-61 1016,-55 1022,-55"/>
<text text-anchor="middle" x="1053.5" y="-78.8" font-family="Helvetica,sans-Serif" font-size="14.00">PostUpdate</text>
</a>
</g>
</g>
<g id="clust12" class="cluster">
<title>clusternode_Set(12)</title>
<g id="a_clust12"><a xlink:title="Last">
<path fill="#000000" fill-opacity="0.031373" stroke="#000000" stroke-width="2" stroke-opacity="0.250980" d="M1269,-55C1269,-55 1288,-55 1288,-55 1294,-55 1300,-61 1300,-67 1300,-67 1300,-82 1300,-82 1300,-88 1294,-94 1288,-94 1288,-94 1269,-94 1269,-94 1263,-94 1257,-88 1257,-82 1257,-82 1257,-67 1257,-67 1257,-61 1263,-55 1269,-55"/>
<text text-anchor="middle" x="1278.5" y="-78.8" font-family="Helvetica,sans-Serif" font-size="14.00">Last</text>
</a>
</g>
</g>
<g id="clust13" class="cluster">
<title>clusternode_Set(59)</title>
<g id="a_clust13"><a xlink:title="LoadAssets">
<path fill="#000000" fill-opacity="0.031373" stroke="#000000" stroke-width="2" stroke-opacity="0.250980" d="M75,-20C75,-20 139,-20 139,-20 145,-20 151,-26 151,-32 151,-32 151,-47 151,-47 151,-53 145,-59 139,-59 139,-59 75,-59 75,-59 69,-59 63,-53 63,-47 63,-47 63,-32 63,-32 63,-26 69,-20 75,-20"/>
<text text-anchor="middle" x="107" y="-43.8" font-family="Helvetica,sans-Serif" font-size="14.00">LoadAssets</text>
</a>
</g>
</g>
<g id="clust14" class="cluster">
<title>clusternode_Set(60)</title>
<g id="a_clust14"><a xlink:title="AssetEvents">
<path fill="#000000" fill-opacity="0.031373" stroke="#000000" stroke-width="2" stroke-opacity="0.250980" d="M1143,-32C1143,-32 1211,-32 1211,-32 1217,-32 1223,-38 1223,-44 1223,-44 1223,-59 1223,-59 1223,-65 1217,-71 1211,-71 1211,-71 1143,-71 1143,-71 1137,-71 1131,-65 1131,-59 1131,-59 1131,-44 1131,-44 1131,-38 1137,-32 1143,-32"/>
<text text-anchor="middle" x="1177" y="-55.8" font-family="Helvetica,sans-Serif" font-size="14.00">AssetEvents</text>
</a>
</g>
</g>
<!-- set_marker_node_Set(0) -->
<!-- set_marker_node_Set(4) -->
<!-- set_marker_node_Set(0)&#45;&gt;set_marker_node_Set(4) -->
<g id="edge7" class="edge">
<title>set_marker_node_Set(0)&#45;&gt;set_marker_node_Set(4)</title>
<g id="a_edge7"><a xlink:title="Update → UpdateFlush">
<path fill="none" stroke="#ee9e44" stroke-width="2" d="M877,-63C879.35,-63 881.69,-63 884.01,-63"/>
<polygon fill="#ee9e44" stroke="#ee9e44" stroke-width="2" points="884,-66.5 894,-63 884,-59.5 884,-66.5"/>
</a>
</g>
</g>
<!-- node_System(55) -->
<g id="node2" class="node">
<title>node_System(55)</title>
<g id="a_node2"><a xlink:title="bevy_scene::scene_spawner::scene_spawner_system">
<polygon fill="#bacfcb" stroke="#7da59d" points="869,-52 708,-52 708,-16 869,-16 869,-52"/>
<text text-anchor="middle" x="788.5" y="-30.3" font-family="Helvetica,sans-Serif" font-size="14.00" fill="#141e1c">scene_spawner_system</text>
</a>
</g>
</g>
<!-- set_marker_node_Set(2) -->
<!-- set_marker_node_Set(8) -->
<!-- set_marker_node_Set(2)&#45;&gt;set_marker_node_Set(8) -->
<g id="edge2" class="edge">
<title>set_marker_node_Set(2)&#45;&gt;set_marker_node_Set(8)</title>
<g id="a_edge2"><a xlink:title="FirstFlush → PreUpdate">
<path fill="none" stroke="#881877" stroke-width="2" d="M145,-71.46C149.25,-71.06 153.69,-70.63 158.22,-70.2"/>
<polygon fill="#881877" stroke="#881877" stroke-width="2" points="158.38,-73.41 168,-68.98 157.72,-66.44 158.38,-73.41"/>
</a>
</g>
</g>
<!-- set_marker_node_Set(3) -->
<!-- set_marker_node_Set(9) -->
<!-- set_marker_node_Set(3)&#45;&gt;set_marker_node_Set(9) -->
<g id="edge4" class="edge">
<title>set_marker_node_Set(3)&#45;&gt;set_marker_node_Set(9)</title>
<g id="a_edge4"><a xlink:title="PreUpdateFlush → StateTransitions">
<path fill="none" stroke="#aa3a55" stroke-width="2" d="M432,-63C434.39,-63 436.79,-63 439.21,-63"/>
<polygon fill="#aa3a55" stroke="#aa3a55" stroke-width="2" points="439,-66.5 449,-63 439,-59.5 439,-66.5"/>
</a>
</g>
</g>
<!-- set_marker_node_Set(11) -->
<!-- set_marker_node_Set(4)&#45;&gt;set_marker_node_Set(11) -->
<g id="edge8" class="edge">
<title>set_marker_node_Set(4)&#45;&gt;set_marker_node_Set(11)</title>
<g id="a_edge8"><a xlink:title="UpdateFlush → PostUpdate">
<path fill="none" stroke="#663699" stroke-width="2" d="M990,-63C992.32,-63 994.66,-63 997,-63"/>
<polygon fill="#663699" stroke="#663699" stroke-width="2" points="997,-66.5 1007,-63 997,-59.5 997,-66.5"/>
</a>
</g>
</g>
<!-- set_marker_node_Set(5) -->
<!-- set_marker_node_Set(12) -->
<!-- set_marker_node_Set(5)&#45;&gt;set_marker_node_Set(12) -->
<g id="edge10" class="edge">
<title>set_marker_node_Set(5)&#45;&gt;set_marker_node_Set(12)</title>
<g id="a_edge10"><a xlink:title="PostUpdateFlush → Last">
<path fill="none" stroke="#22c2bb" stroke-width="2" d="M1212.02,-79C1220.2,-77.06 1228.92,-74.97 1237,-73 1239.44,-72.4 1241.97,-71.78 1244.51,-71.16"/>
<polygon fill="#22c2bb" stroke="#22c2bb" stroke-width="2" points="1246.14,-73.86 1255,-68.05 1244.45,-67.07 1246.14,-73.86"/>
</a>
</g>
</g>
<!-- set_marker_node_Set(6) -->
<!-- set_marker_node_Set(7) -->
<!-- set_marker_node_Set(7)&#45;&gt;set_marker_node_Set(2) -->
<g id="edge1" class="edge">
<title>set_marker_node_Set(7)&#45;&gt;set_marker_node_Set(2)</title>
<g id="a_edge1"><a xlink:title="First → FirstFlush">
<path fill="none" stroke="#eede00" stroke-width="2" d="M43,-57C49.88,-58.97 57.78,-61.22 65.61,-63.46"/>
<polygon fill="#eede00" stroke="#eede00" stroke-width="2" points="65.44,-67.62 76.01,-67 67.36,-60.89 65.44,-67.62"/>
</a>
</g>
</g>
<!-- set_marker_node_Set(59) -->
<!-- set_marker_node_Set(7)&#45;&gt;set_marker_node_Set(59) -->
<g id="edge13" class="edge">
<title>set_marker_node_Set(7)&#45;&gt;set_marker_node_Set(59)</title>
<g id="a_edge13"><a xlink:title="First → LoadAssets">
<path fill="none" stroke="#881877" stroke-width="2" d="M43,-45.25C45.41,-44.59 47.94,-43.9 50.55,-43.18"/>
<polygon fill="#881877" stroke="#881877" stroke-width="2" points="52.28,-45.79 61,-39.77 50.43,-39.04 52.28,-45.79"/>
</a>
</g>
</g>
<!-- set_marker_node_Set(8)&#45;&gt;set_marker_node_Set(3) -->
<g id="edge3" class="edge">
<title>set_marker_node_Set(8)&#45;&gt;set_marker_node_Set(3)</title>
<g id="a_edge3"><a xlink:title="PreUpdate → PreUpdateFlush">
<path fill="none" stroke="#00b0cc" stroke-width="2" d="M298,-63C300.38,-63 302.77,-63 305.17,-63"/>
<polygon fill="#00b0cc" stroke="#00b0cc" stroke-width="2" points="305,-66.5 315,-63 305,-59.5 305,-66.5"/>
</a>
</g>
</g>
<!-- node_System(56) -->
<g id="node10" class="node">
<title>node_System(56)</title>
<g id="a_node10"><a xlink:title="bevy_scene::bundle::scene_spawner">
<polygon fill="#bacfcb" stroke="#7da59d" points="290,-52 179,-52 179,-16 290,-16 290,-52"/>
<text text-anchor="middle" x="234.5" y="-30.3" font-family="Helvetica,sans-Serif" font-size="14.00" fill="#141e1c">scene_spawner</text>
</a>
</g>
</g>
<!-- set_marker_node_Set(10) -->
<!-- set_marker_node_Set(9)&#45;&gt;set_marker_node_Set(10) -->
<g id="edge5" class="edge">
<title>set_marker_node_Set(9)&#45;&gt;set_marker_node_Set(10)</title>
<g id="a_edge5"><a xlink:title="StateTransitions → FixedUpdate">
<path fill="none" stroke="#44d488" stroke-width="2" d="M567,-63C569.35,-63 571.71,-63 574.07,-63"/>
<polygon fill="#44d488" stroke="#44d488" stroke-width="2" points="574,-66.5 584,-63 574,-59.5 574,-66.5"/>
</a>
</g>
</g>
<!-- set_marker_node_Set(10)&#45;&gt;set_marker_node_Set(0) -->
<g id="edge6" class="edge">
<title>set_marker_node_Set(10)&#45;&gt;set_marker_node_Set(0)</title>
<g id="a_edge6"><a xlink:title="FixedUpdate → Update">
<path fill="none" stroke="#0090cc" stroke-width="2" d="M680,-63C682.39,-63 684.84,-63 687.32,-63"/>
<polygon fill="#0090cc" stroke="#0090cc" stroke-width="2" points="687,-66.5 697,-63 687,-59.5 687,-66.5"/>
</a>
</g>
</g>
<!-- set_marker_node_Set(11)&#45;&gt;set_marker_node_Set(5) -->
<g id="edge9" class="edge">
<title>set_marker_node_Set(11)&#45;&gt;set_marker_node_Set(5)</title>
<g id="a_edge9"><a xlink:title="PostUpdate → PostUpdateFlush">
<path fill="none" stroke="#3363bb" stroke-width="2" d="M1097,-71.46C1105.36,-73.1 1114.22,-74.85 1122.87,-76.55"/>
<polygon fill="#3363bb" stroke="#3363bb" stroke-width="2" points="1122.86,-80.51 1133.35,-79 1124.21,-73.64 1122.86,-80.51"/>
</a>
</g>
</g>
<!-- set_marker_node_Set(60) -->
<!-- set_marker_node_Set(11)&#45;&gt;set_marker_node_Set(60) -->
<g id="edge14" class="edge">
<title>set_marker_node_Set(11)&#45;&gt;set_marker_node_Set(60)</title>
<g id="a_edge14"><a xlink:title="PostUpdate → AssetEvents">
<path fill="none" stroke="#00b0cc" stroke-width="2" d="M1096.41,-55C1103.54,-53.66 1111.04,-52.25 1118.48,-50.84"/>
<polygon fill="#00b0cc" stroke="#00b0cc" stroke-width="2" points="1119.82,-53.78 1129,-48.48 1118.53,-46.9 1119.82,-53.78"/>
</a>
</g>
</g>
<!-- set_marker_node_Set(12)&#45;&gt;set_marker_node_Set(6) -->
<g id="edge11" class="edge">
<title>set_marker_node_Set(12)&#45;&gt;set_marker_node_Set(6)</title>
<g id="a_edge11"><a xlink:title="Last → LastFlush">
<path fill="none" stroke="#99d955" stroke-width="2" d="M1300,-63C1302.33,-63 1304.78,-63 1307.29,-63"/>
<polygon fill="#99d955" stroke="#99d955" stroke-width="2" points="1307,-66.5 1317,-63 1307,-59.5 1307,-66.5"/>
</a>
</g>
</g>
<!-- set_marker_node_Set(59)&#45;&gt;set_marker_node_Set(8) -->
<g id="edge12" class="edge">
<title>set_marker_node_Set(59)&#45;&gt;set_marker_node_Set(8)</title>
<g id="a_edge12"><a xlink:title="LoadAssets → PreUpdate">
<path fill="none" stroke="#eede00" stroke-width="2" d="M151,-50.98C153.53,-52.05 156.1,-53.07 158.68,-54.03"/>
<polygon fill="#eede00" stroke="#eede00" stroke-width="2" points="158.41,-58.27 169,-58 160.55,-51.6 158.41,-58.27"/>
</a>
</g>
</g>
<!-- set_marker_node_Set(60)&#45;&gt;set_marker_node_Set(12) -->
<g id="edge15" class="edge">
<title>set_marker_node_Set(60)&#45;&gt;set_marker_node_Set(12)</title>
<g id="a_edge15"><a xlink:title="AssetEvents → Last">
<path fill="none" stroke="#aa3a55" stroke-width="2" d="M1223,-50.45C1230.22,-52.13 1237.58,-53.84 1244.44,-55.43"/>
<polygon fill="#aa3a55" stroke="#aa3a55" stroke-width="2" points="1244.47,-59.5 1255,-58.35 1246.05,-52.68 1244.47,-59.5"/>
</a>
</g>
</g>
</g>
</svg>
