<?xml version="1.0" encoding="UTF-8" standalone="no"?>
<!DOCTYPE svg PUBLIC "-//W3C//DTD SVG 1.1//EN"
 "http://www.w3.org/Graphics/SVG/1.1/DTD/svg11.dtd">
<!-- Generated by graphviz version 7.1.0 (0)
 -->
<!-- Pages: 1 -->
<svg width="1780pt" height="584pt"
 viewBox="0.00 0.00 1780.00 584.07" xmlns="http://www.w3.org/2000/svg" xmlns:xlink="http://www.w3.org/1999/xlink">
<g id="graph0" class="graph" transform="scale(1 1) rotate(0) translate(4 580.07)">
<polygon fill="white" stroke="none" points="-4,4 -4,-580.07 1776,-580.07 1776,4 -4,4"/>
<g id="clust1" class="cluster">
<title>clusternode_Set(0)</title>
<g id="a_clust1"><a xlink:title="Update">
<path fill="#000000" fill-opacity="0.031373" stroke="#000000" stroke-width="2" stroke-opacity="0.250980" d="M703,-102C703,-102 744,-102 744,-102 750,-102 756,-108 756,-114 756,-114 756,-129 756,-129 756,-135 750,-141 744,-141 744,-141 703,-141 703,-141 697,-141 691,-135 691,-129 691,-129 691,-114 691,-114 691,-108 697,-102 703,-102"/>
<text text-anchor="middle" x="723.5" y="-125.8" font-family="Helvetica,sans-Serif" font-size="14.00">Update</text>
</a>
</g>
</g>
<g id="clust2" class="cluster">
<title>clusternode_Set(2)</title>
<g id="a_clust2"><a xlink:title="FirstFlush">
<path fill="#000000" fill-opacity="0.031373" stroke="#000000" stroke-width="2" stroke-opacity="0.250980" d="M82,-125C82,-125 140,-125 140,-125 146,-125 152,-131 152,-137 152,-137 152,-152 152,-152 152,-158 146,-164 140,-164 140,-164 82,-164 82,-164 76,-164 70,-158 70,-152 70,-152 70,-137 70,-137 70,-131 76,-125 82,-125"/>
<text text-anchor="middle" x="111" y="-148.8" font-family="Helvetica,sans-Serif" font-size="14.00">FirstFlush</text>
</a>
</g>
</g>
<g id="clust3" class="cluster">
<title>clusternode_Set(3)</title>
<g id="a_clust3"><a xlink:title="PreUpdateFlush">
<path fill="#000000" fill-opacity="0.031373" stroke="#000000" stroke-width="2" stroke-opacity="0.250980" d="M296,-102C296,-102 395,-102 395,-102 401,-102 407,-108 407,-114 407,-114 407,-129 407,-129 407,-135 401,-141 395,-141 395,-141 296,-141 296,-141 290,-141 284,-135 284,-129 284,-129 284,-114 284,-114 284,-108 290,-102 296,-102"/>
<text text-anchor="middle" x="345.5" y="-125.8" font-family="Helvetica,sans-Serif" font-size="14.00">PreUpdateFlush</text>
</a>
</g>
</g>
<g id="clust4" class="cluster">
<title>clusternode_Set(4)</title>
<g id="a_clust4"><a xlink:title="UpdateFlush">
<path fill="#000000" fill-opacity="0.031373" stroke="#000000" stroke-width="2" stroke-opacity="0.250980" d="M788,-102C788,-102 865,-102 865,-102 871,-102 877,-108 877,-114 877,-114 877,-129 877,-129 877,-135 871,-141 865,-141 865,-141 788,-141 788,-141 782,-141 776,-135 776,-129 776,-129 776,-114 776,-114 776,-108 782,-102 788,-102"/>
<text text-anchor="middle" x="826.5" y="-125.8" font-family="Helvetica,sans-Serif" font-size="14.00">UpdateFlush</text>
</a>
</g>
</g>
<g id="clust5" class="cluster">
<title>clusternode_Set(5)</title>
<g id="a_clust5"><a xlink:title="PostUpdateFlush">
<path fill="#000000" fill-opacity="0.031373" stroke="#000000" stroke-width="2" stroke-opacity="0.250980" d="M1321.5,-55C1321.5,-55 1426.5,-55 1426.5,-55 1432.5,-55 1438.5,-61 1438.5,-67 1438.5,-67 1438.5,-82 1438.5,-82 1438.5,-88 1432.5,-94 1426.5,-94 1426.5,-94 1321.5,-94 1321.5,-94 1315.5,-94 1309.5,-88 1309.5,-82 1309.5,-82 1309.5,-67 1309.5,-67 1309.5,-61 1315.5,-55 1321.5,-55"/>
<text text-anchor="middle" x="1374" y="-78.8" font-family="Helvetica,sans-Serif" font-size="14.00">PostUpdateFlush</text>
</a>
</g>
</g>
<g id="clust6" class="cluster">
<title>clusternode_Set(6)</title>
<g id="a_clust6"><a xlink:title="LastFlush">
<path fill="#000000" fill-opacity="0.031373" stroke="#000000" stroke-width="2" stroke-opacity="0.250980" d="M1704,-31C1704,-31 1760,-31 1760,-31 1766,-31 1772,-37 1772,-43 1772,-43 1772,-58 1772,-58 1772,-64 1766,-70 1760,-70 1760,-70 1704,-70 1704,-70 1698,-70 1692,-64 1692,-58 1692,-58 1692,-43 1692,-43 1692,-37 1698,-31 1704,-31"/>
<text text-anchor="middle" x="1732" y="-54.8" font-family="Helvetica,sans-Serif" font-size="14.00">LastFlush</text>
</a>
</g>
</g>
<g id="clust7" class="cluster">
<title>clusternode_Set(7)</title>
<g id="a_clust7"><a xlink:title="First">
<path fill="#000000" fill-opacity="0.031373" stroke="#000000" stroke-width="2" stroke-opacity="0.250980" d="M12,-101C12,-101 34,-101 34,-101 40,-101 46,-107 46,-113 46,-113 46,-128 46,-128 46,-134 40,-140 34,-140 34,-140 12,-140 12,-140 6,-140 0,-134 0,-128 0,-128 0,-113 0,-113 0,-107 6,-101 12,-101"/>
<text text-anchor="middle" x="23" y="-124.8" font-family="Helvetica,sans-Serif" font-size="14.00">First</text>
</a>
</g>
</g>
<g id="clust8" class="cluster">
<title>clusternode_Set(8)</title>
<g id="a_clust8"><a xlink:title="PreUpdate">
<path fill="#000000" fill-opacity="0.031373" stroke="#000000" stroke-width="2" stroke-opacity="0.250980" d="M189,-102C189,-102 252,-102 252,-102 258,-102 264,-108 264,-114 264,-114 264,-129 264,-129 264,-135 258,-141 252,-141 252,-141 189,-141 189,-141 183,-141 177,-135 177,-129 177,-129 177,-114 177,-114 177,-108 183,-102 189,-102"/>
<text text-anchor="middle" x="220.5" y="-125.8" font-family="Helvetica,sans-Serif" font-size="14.00">PreUpdate</text>
</a>
</g>
</g>
<g id="clust9" class="cluster">
<title>clusternode_Set(9)</title>
<g id="a_clust9"><a xlink:title="StateTransitions">
<path fill="#000000" fill-opacity="0.031373" stroke="#000000" stroke-width="2" stroke-opacity="0.250980" d="M439,-102C439,-102 539,-102 539,-102 545,-102 551,-108 551,-114 551,-114 551,-129 551,-129 551,-135 545,-141 539,-141 539,-141 439,-141 439,-141 433,-141 427,-135 427,-129 427,-129 427,-114 427,-114 427,-108 433,-102 439,-102"/>
<text text-anchor="middle" x="489" y="-125.8" font-family="Helvetica,sans-Serif" font-size="14.00">StateTransitions</text>
</a>
</g>
</g>
<g id="clust10" class="cluster">
<title>clusternode_Set(10)</title>
<g id="a_clust10"><a xlink:title="FixedUpdate">
<path fill="#000000" fill-opacity="0.031373" stroke="#000000" stroke-width="2" stroke-opacity="0.250980" d="M583,-102C583,-102 659,-102 659,-102 665,-102 671,-108 671,-114 671,-114 671,-129 671,-129 671,-135 665,-141 659,-141 659,-141 583,-141 583,-141 577,-141 571,-135 571,-129 571,-129 571,-114 571,-114 571,-108 577,-102 583,-102"/>
<text text-anchor="middle" x="621" y="-125.8" font-family="Helvetica,sans-Serif" font-size="14.00">FixedUpdate</text>
</a>
</g>
</g>
<g id="clust11" class="cluster">
<title>clusternode_Set(11)</title>
<g id="a_clust11"><a xlink:title="PostUpdate">
<path fill="#000000" fill-opacity="0.031373" stroke="#000000" stroke-width="2" stroke-opacity="0.250980" d="M901,-102C901,-102 1668,-102 1668,-102 1674,-102 1680,-108 1680,-114 1680,-114 1680,-554 1680,-554 1680,-560 1674,-566 1668,-566 1668,-566 901,-566 901,-566 895,-566 889,-560 889,-554 889,-554 889,-114 889,-114 889,-108 895,-102 901,-102"/>
<text text-anchor="middle" x="1284.5" y="-550.8" font-family="Helvetica,sans-Serif" font-size="14.00">PostUpdate</text>
</a>
</g>
</g>
<g id="clust12" class="cluster">
<title>clusternode_Set(20)</title>
<g id="a_clust12"><a xlink:title="TransformPropagate">
<path fill="#000000" fill-opacity="0.031373" stroke="#000000" stroke-width="2" stroke-opacity="0.250980" d="M987,-457C987,-457 1115,-457 1115,-457 1121,-457 1127,-463 1127,-469 1127,-469 1127,-484 1127,-484 1127,-490 1121,-496 1115,-496 1115,-496 987,-496 987,-496 981,-496 975,-490 975,-484 975,-484 975,-469 975,-469 975,-463 981,-457 987,-457"/>
<text text-anchor="middle" x="1051" y="-480.8" font-family="Helvetica,sans-Serif" font-size="14.00">TransformPropagate</text>
</a>
</g>
</g>
<g id="clust13" class="cluster">
<title>clusternode_Set(82)</title>
<g id="a_clust13"><a xlink:title="CameraUpdateSystem">
<path fill="#000000" fill-opacity="0.031373" stroke="#000000" stroke-width="2" stroke-opacity="0.250980" d="M909,-269C909,-269 1193,-269 1193,-269 1199,-269 1205,-275 1205,-281 1205,-281 1205,-437 1205,-437 1205,-443 1199,-449 1193,-449 1193,-449 909,-449 909,-449 903,-449 897,-443 897,-437 897,-437 897,-281 897,-281 897,-275 903,-269 909,-269"/>
<text text-anchor="middle" x="1051" y="-433.8" font-family="Helvetica,sans-Serif" font-size="14.00">CameraUpdateSystem</text>
</a>
</g>
</g>
<g id="clust14" class="cluster">
<title>clusternode_Set(86)</title>
<g id="a_clust14"><a xlink:title="CalculateBounds">
<path fill="#000000" fill-opacity="0.031373" stroke="#000000" stroke-width="2" stroke-opacity="0.250980" d="M989.5,-157C989.5,-157 1112.5,-157 1112.5,-157 1118.5,-157 1124.5,-163 1124.5,-169 1124.5,-169 1124.5,-231 1124.5,-231 1124.5,-237 1118.5,-243 1112.5,-243 1112.5,-243 989.5,-243 989.5,-243 983.5,-243 977.5,-237 977.5,-231 977.5,-231 977.5,-169 977.5,-169 977.5,-163 983.5,-157 989.5,-157"/>
<text text-anchor="middle" x="1051" y="-227.8" font-family="Helvetica,sans-Serif" font-size="14.00">CalculateBounds</text>
</a>
</g>
</g>
<g id="clust15" class="cluster">
<title>clusternode_Set(87)</title>
<g id="a_clust15"><a xlink:title="CalculateBoundsFlush">
<path fill="#000000" fill-opacity="0.031373" stroke="#000000" stroke-width="2" stroke-opacity="0.250980" d="M1303.5,-204C1303.5,-204 1443.5,-204 1443.5,-204 1449.5,-204 1455.5,-210 1455.5,-216 1455.5,-216 1455.5,-231 1455.5,-231 1455.5,-237 1449.5,-243 1443.5,-243 1443.5,-243 1303.5,-243 1303.5,-243 1297.5,-243 1291.5,-237 1291.5,-231 1291.5,-231 1291.5,-216 1291.5,-216 1291.5,-210 1297.5,-204 1303.5,-204"/>
<text text-anchor="middle" x="1373.5" y="-227.8" font-family="Helvetica,sans-Serif" font-size="14.00">CalculateBoundsFlush</text>
</a>
</g>
</g>
<g id="clust16" class="cluster">
<title>clusternode_Set(88)</title>
<g id="a_clust16"><a xlink:title="UpdateOrthographicFrusta">
<path fill="#000000" fill-opacity="0.031373" stroke="#000000" stroke-width="2" stroke-opacity="0.250980" d="M1237,-251C1237,-251 1510,-251 1510,-251 1516,-251 1522,-257 1522,-263 1522,-263 1522,-325 1522,-325 1522,-331 1516,-337 1510,-337 1510,-337 1237,-337 1237,-337 1231,-337 1225,-331 1225,-325 1225,-325 1225,-263 1225,-263 1225,-257 1231,-251 1237,-251"/>
<text text-anchor="middle" x="1373.5" y="-321.8" font-family="Helvetica,sans-Serif" font-size="14.00">UpdateOrthographicFrusta</text>
</a>
</g>
</g>
<g id="clust17" class="cluster">
<title>clusternode_Set(89)</title>
<g id="a_clust17"><a xlink:title="UpdatePerspectiveFrusta">
<path fill="#000000" fill-opacity="0.031373" stroke="#000000" stroke-width="2" stroke-opacity="0.250980" d="M1243,-345C1243,-345 1504,-345 1504,-345 1510,-345 1516,-351 1516,-357 1516,-357 1516,-419 1516,-419 1516,-425 1510,-431 1504,-431 1504,-431 1243,-431 1243,-431 1237,-431 1231,-425 1231,-419 1231,-419 1231,-357 1231,-357 1231,-351 1237,-345 1243,-345"/>
<text text-anchor="middle" x="1373.5" y="-415.8" font-family="Helvetica,sans-Serif" font-size="14.00">UpdatePerspectiveFrusta</text>
</a>
</g>
</g>
<g id="clust18" class="cluster">
<title>clusternode_Set(90)</title>
<g id="a_clust18"><a xlink:title="UpdateProjectionFrusta">
<path fill="#000000" fill-opacity="0.031373" stroke="#000000" stroke-width="2" stroke-opacity="0.250980" d="M1281.5,-439C1281.5,-439 1465.5,-439 1465.5,-439 1471.5,-439 1477.5,-445 1477.5,-451 1477.5,-451 1477.5,-513 1477.5,-513 1477.5,-519 1471.5,-525 1465.5,-525 1465.5,-525 1281.5,-525 1281.5,-525 1275.5,-525 1269.5,-519 1269.5,-513 1269.5,-513 1269.5,-451 1269.5,-451 1269.5,-445 1275.5,-439 1281.5,-439"/>
<text text-anchor="middle" x="1373.5" y="-509.8" font-family="Helvetica,sans-Serif" font-size="14.00">UpdateProjectionFrusta</text>
</a>
</g>
</g>
<g id="clust19" class="cluster">
<title>clusternode_Set(91)</title>
<g id="a_clust19"><a xlink:title="CheckVisibility">
<path fill="#000000" fill-opacity="0.031373" stroke="#000000" stroke-width="2" stroke-opacity="0.250980" d="M1554,-327C1554,-327 1660,-327 1660,-327 1666,-327 1672,-333 1672,-339 1672,-339 1672,-401 1672,-401 1672,-407 1666,-413 1660,-413 1660,-413 1554,-413 1554,-413 1548,-413 1542,-407 1542,-401 1542,-401 1542,-339 1542,-339 1542,-333 1548,-327 1554,-327"/>
<text text-anchor="middle" x="1607" y="-397.8" font-family="Helvetica,sans-Serif" font-size="14.00">CheckVisibility</text>
</a>
</g>
</g>
<g id="clust20" class="cluster">
<title>clusternode_Set(92)</title>
<g id="a_clust20"><a xlink:title="VisibilityPropagate">
<path fill="#000000" fill-opacity="0.031373" stroke="#000000" stroke-width="2" stroke-opacity="0.250980" d="M1279,-110C1279,-110 1468,-110 1468,-110 1474,-110 1480,-116 1480,-122 1480,-122 1480,-184 1480,-184 1480,-190 1474,-196 1468,-196 1468,-196 1279,-196 1279,-196 1273,-196 1267,-190 1267,-184 1267,-184 1267,-122 1267,-122 1267,-116 1273,-110 1279,-110"/>
<text text-anchor="middle" x="1373.5" y="-180.8" font-family="Helvetica,sans-Serif" font-size="14.00">VisibilityPropagate</text>
</a>
</g>
</g>
<g id="clust21" class="cluster">
<title>clusternode_Set(12)</title>
<g id="a_clust21"><a xlink:title="Last">
<path fill="#000000" fill-opacity="0.031373" stroke="#000000" stroke-width="2" stroke-opacity="0.250980" d="M1597,-31C1597,-31 1617,-31 1617,-31 1623,-31 1629,-37 1629,-43 1629,-43 1629,-58 1629,-58 1629,-64 1623,-70 1617,-70 1617,-70 1597,-70 1597,-70 1591,-70 1585,-64 1585,-58 1585,-58 1585,-43 1585,-43 1585,-37 1591,-31 1597,-31"/>
<text text-anchor="middle" x="1607" y="-54.8" font-family="Helvetica,sans-Serif" font-size="14.00">Last</text>
</a>
</g>
</g>
<g id="clust22" class="cluster">
<title>clusternode_Set(59)</title>
<g id="a_clust22"><a xlink:title="LoadAssets">
<path fill="#000000" fill-opacity="0.031373" stroke="#000000" stroke-width="2" stroke-opacity="0.250980" d="M78,-78C78,-78 145,-78 145,-78 151,-78 157,-84 157,-90 157,-90 157,-105 157,-105 157,-111 151,-117 145,-117 145,-117 78,-117 78,-117 72,-117 66,-111 66,-105 66,-105 66,-90 66,-90 66,-84 72,-78 78,-78"/>
<text text-anchor="middle" x="111.5" y="-101.8" font-family="Helvetica,sans-Serif" font-size="14.00">LoadAssets</text>
</a>
</g>
</g>
<g id="clust23" class="cluster">
<title>clusternode_Set(60)</title>
<g id="a_clust23"><a xlink:title="AssetEvents">
<path fill="#000000" fill-opacity="0.031373" stroke="#000000" stroke-width="2" stroke-opacity="0.250980" d="M1337.5,-8C1337.5,-8 1409.5,-8 1409.5,-8 1415.5,-8 1421.5,-14 1421.5,-20 1421.5,-20 1421.5,-35 1421.5,-35 1421.5,-41 1415.5,-47 1409.5,-47 1409.5,-47 1337.5,-47 1337.5,-47 1331.5,-47 1325.5,-41 1325.5,-35 1325.5,-35 1325.5,-20 1325.5,-20 1325.5,-14 1331.5,-8 1337.5,-8"/>
<text text-anchor="middle" x="1373.5" y="-31.8" font-family="Helvetica,sans-Serif" font-size="14.00">AssetEvents</text>
</a>
</g>
</g>
<!-- set_marker_node_Set(0) -->
<!-- set_marker_node_Set(4) -->
<!-- set_marker_node_Set(0)&#45;&gt;set_marker_node_Set(4) -->
<g id="edge7" class="edge">
<title>set_marker_node_Set(0)&#45;&gt;set_marker_node_Set(4)</title>
<g id="a_edge7"><a xlink:title="Update → UpdateFlush">
<path fill="none" stroke="#ee9e44" stroke-width="2" d="M756,-110C758.35,-110 760.77,-110 763.22,-110"/>
<polygon fill="#ee9e44" stroke="#ee9e44" stroke-width="2" points="762.97,-113.5 772.97,-110 762.97,-106.5 762.97,-113.5"/>
</a>
</g>
</g>
<!-- set_marker_node_Set(2) -->
<!-- set_marker_node_Set(8) -->
<!-- set_marker_node_Set(2)&#45;&gt;set_marker_node_Set(8) -->
<g id="edge2" class="edge">
<title>set_marker_node_Set(2)&#45;&gt;set_marker_node_Set(8)</title>
<g id="a_edge2"><a xlink:title="FirstFlush → PreUpdate">
<path fill="none" stroke="#881877" stroke-width="2" d="M149.2,-125C154.17,-123.94 159.34,-122.82 164.52,-121.71"/>
<polygon fill="#881877" stroke="#881877" stroke-width="2" points="165,-125.19 174.04,-119.66 163.53,-118.34 165,-125.19"/>
</a>
</g>
</g>
<!-- set_marker_node_Set(3) -->
<!-- set_marker_node_Set(9) -->
<!-- set_marker_node_Set(3)&#45;&gt;set_marker_node_Set(9) -->
<g id="edge4" class="edge">
<title>set_marker_node_Set(3)&#45;&gt;set_marker_node_Set(9)</title>
<g id="a_edge4"><a xlink:title="PreUpdateFlush → StateTransitions">
<path fill="none" stroke="#aa3a55" stroke-width="2" d="M407,-110C409.39,-110 411.8,-110 414.21,-110"/>
<polygon fill="#aa3a55" stroke="#aa3a55" stroke-width="2" points="413.98,-113.5 423.98,-110 413.98,-106.5 413.98,-113.5"/>
</a>
</g>
</g>
<!-- set_marker_node_Set(11) -->
<!-- set_marker_node_Set(4)&#45;&gt;set_marker_node_Set(11) -->
<g id="edge8" class="edge">
<title>set_marker_node_Set(4)&#45;&gt;set_marker_node_Set(11)</title>
<g id="a_edge8"><a xlink:title="UpdateFlush → PostUpdate">
<path fill="none" stroke="#663699" stroke-width="2" d="M877,-110C880,-110 883,-110 886,-110"/>
<polygon fill="#663699" stroke="#663699" stroke-width="2" points="875.97,-113.5 885.97,-110 875.97,-106.5 875.97,-113.5"/>
</a>
</g>
</g>
<!-- set_marker_node_Set(5) -->
<!-- set_marker_node_Set(12) -->
<!-- set_marker_node_Set(5)&#45;&gt;set_marker_node_Set(12) -->
<g id="edge10" class="edge">
<title>set_marker_node_Set(5)&#45;&gt;set_marker_node_Set(12)</title>
<g id="a_edge10"><a xlink:title="PostUpdateFlush → Last">
<path fill="none" stroke="#22c2bb" stroke-width="2" d="M1438.5,-57.26C1464.43,-54.85 1494.66,-51.92 1522,-49 1538.62,-47.22 1557.06,-45.05 1572.42,-43.18"/>
<polygon fill="#22c2bb" stroke="#22c2bb" stroke-width="2" points="1572.5,-46.7 1582,-42.01 1571.65,-39.75 1572.5,-46.7"/>
</a>
</g>
</g>
<!-- set_marker_node_Set(6) -->
<!-- set_marker_node_Set(7) -->
<!-- set_marker_node_Set(7)&#45;&gt;set_marker_node_Set(2) -->
<g id="edge1" class="edge">
<title>set_marker_node_Set(7)&#45;&gt;set_marker_node_Set(2)</title>
<g id="a_edge1"><a xlink:title="First → FirstFlush">
<path fill="none" stroke="#eede00" stroke-width="2" d="M46,-115.14C53.02,-117.1 61.02,-119.33 68.95,-121.54"/>
<polygon fill="#eede00" stroke="#eede00" stroke-width="2" points="67.85,-124.87 78.43,-124.19 69.74,-118.13 67.85,-124.87"/>
</a>
</g>
</g>
<!-- set_marker_node_Set(59) -->
<!-- set_marker_node_Set(7)&#45;&gt;set_marker_node_Set(59) -->
<g id="edge13" class="edge">
<title>set_marker_node_Set(7)&#45;&gt;set_marker_node_Set(59)</title>
<g id="a_edge13"><a xlink:title="First → LoadAssets">
<path fill="none" stroke="#881877" stroke-width="2" d="M46,-103.12C48.46,-102.46 51.05,-101.77 53.71,-101.05"/>
<polygon fill="#881877" stroke="#881877" stroke-width="2" points="54.32,-104.51 63.08,-98.55 52.51,-97.75 54.32,-104.51"/>
</a>
</g>
</g>
<!-- set_marker_node_Set(8)&#45;&gt;set_marker_node_Set(3) -->
<g id="edge3" class="edge">
<title>set_marker_node_Set(8)&#45;&gt;set_marker_node_Set(3)</title>
<g id="a_edge3"><a xlink:title="PreUpdate → PreUpdateFlush">
<path fill="none" stroke="#00b0cc" stroke-width="2" d="M264,-110C266.39,-110 268.82,-110 271.28,-110"/>
<polygon fill="#00b0cc" stroke="#00b0cc" stroke-width="2" points="270.98,-113.5 280.98,-110 270.98,-106.5 270.98,-113.5"/>
</a>
</g>
</g>
<!-- set_marker_node_Set(10) -->
<!-- set_marker_node_Set(9)&#45;&gt;set_marker_node_Set(10) -->
<g id="edge5" class="edge">
<title>set_marker_node_Set(9)&#45;&gt;set_marker_node_Set(10)</title>
<g id="a_edge5"><a xlink:title="StateTransitions → FixedUpdate">
<path fill="none" stroke="#44d488" stroke-width="2" d="M551,-110C553.39,-110 555.79,-110 558.19,-110"/>
<polygon fill="#44d488" stroke="#44d488" stroke-width="2" points="557.98,-113.5 567.98,-110 557.98,-106.5 557.98,-113.5"/>
</a>
</g>
</g>
<!-- set_marker_node_Set(10)&#45;&gt;set_marker_node_Set(0) -->
<g id="edge6" class="edge">
<title>set_marker_node_Set(10)&#45;&gt;set_marker_node_Set(0)</title>
<g id="a_edge6"><a xlink:title="FixedUpdate → Update">
<path fill="none" stroke="#0090cc" stroke-width="2" d="M671,-110C673.37,-110 675.75,-110 678.11,-110"/>
<polygon fill="#0090cc" stroke="#0090cc" stroke-width="2" points="677.98,-113.5 687.98,-110 677.98,-106.5 677.98,-113.5"/>
</a>
</g>
</g>
<!-- set_marker_node_Set(11)&#45;&gt;set_marker_node_Set(5) -->
<g id="edge9" class="edge">
<title>set_marker_node_Set(11)&#45;&gt;set_marker_node_Set(5)</title>
<g id="a_edge9"><a xlink:title="PostUpdate → PostUpdateFlush">
<path fill="none" stroke="#3363bb" stroke-width="2" d="M1106.53,-102C1158.82,-94.34 1238.22,-82.69 1296.66,-74.12"/>
<polygon fill="#3363bb" stroke="#3363bb" stroke-width="2" points="1297.12,-77.59 1306.51,-72.68 1296.11,-70.67 1297.12,-77.59"/>
</a>
</g>
</g>
<!-- set_marker_node_Set(60) -->
<!-- set_marker_node_Set(11)&#45;&gt;set_marker_node_Set(60) -->
<g id="edge14" class="edge">
<title>set_marker_node_Set(11)&#45;&gt;set_marker_node_Set(60)</title>
<g id="a_edge14"><a xlink:title="PostUpdate → AssetEvents">
<path fill="none" stroke="#00b0cc" stroke-width="2" d="M1074.51,-102C1107.37,-90.46 1170.48,-68.8 1225,-53 1253.81,-44.65 1286.1,-36.43 1313.1,-29.86"/>
<polygon fill="#00b0cc" stroke="#00b0cc" stroke-width="2" points="1313.66,-33.33 1322.56,-27.58 1312.02,-26.52 1313.66,-33.33"/>
</a>
</g>
</g>
<!-- set_marker_node_Set(20) -->
<!-- node_System(73) -->
<g id="node21" class="node">
<title>node_System(73)</title>
<g id="a_node21"><a xlink:title="bevy_render::view::visibility::update_frusta&lt;bevy_render::camera::projection::OrthographicProjection&gt;">
<polygon fill="#70b9fc" stroke="#0c88f9" points="1514,-295 1233,-295 1233,-259 1514,-259 1514,-295"/>
<text text-anchor="middle" x="1373.5" y="-273.3" font-family="Helvetica,sans-Serif" font-size="14.00" fill="#011a31">update_frusta&lt;OrthographicProjection&gt;</text>
</a>
</g>
</g>
<!-- set_marker_node_Set(20)&#45;&gt;node_System(73) -->
<g id="edge18" class="edge">
<title>set_marker_node_Set(20)&#45;&gt;node_System(73)</title>
<g id="a_edge18"><a xlink:title="TransformPropagate → update_frusta&lt;OrthographicProjection&gt;">
<path fill="none" stroke="#ee9e44" stroke-width="2" d="M1127,-476.38C1154.85,-476.34 1184.59,-470.58 1205,-451 1250.69,-407.16 1186.54,-355.68 1224.44,-303.74"/>
<polygon fill="#ee9e44" stroke="#ee9e44" stroke-width="2" points="1226.94,-306.21 1230.79,-296.34 1221.62,-301.66 1226.94,-306.21"/>
</a>
</g>
</g>
<!-- node_System(74) -->
<g id="node23" class="node">
<title>node_System(74)</title>
<g id="a_node23"><a xlink:title="bevy_render::view::visibility::update_frusta&lt;bevy_render::camera::projection::PerspectiveProjection&gt;">
<polygon fill="#70b9fc" stroke="#0c88f9" points="1508,-389 1239,-389 1239,-353 1508,-353 1508,-389"/>
<text text-anchor="middle" x="1373.5" y="-367.3" font-family="Helvetica,sans-Serif" font-size="14.00" fill="#011a31">update_frusta&lt;PerspectiveProjection&gt;</text>
</a>
</g>
</g>
<!-- set_marker_node_Set(20)&#45;&gt;node_System(74) -->
<g id="edge20" class="edge">
<title>set_marker_node_Set(20)&#45;&gt;node_System(74)</title>
<g id="a_edge20"><a xlink:title="TransformPropagate → update_frusta&lt;PerspectiveProjection&gt;">
<path fill="none" stroke="#3363bb" stroke-width="2" d="M1127,-474.02C1154.02,-473.44 1183.19,-467.91 1205,-451 1225.89,-434.81 1204.69,-411.92 1225,-395 1226.07,-394.11 1227.16,-393.24 1228.27,-392.4"/>
<polygon fill="#3363bb" stroke="#3363bb" stroke-width="2" points="1229.77,-395.61 1236.2,-387.2 1225.92,-389.76 1229.77,-395.61"/>
</a>
</g>
</g>
<!-- node_System(75) -->
<g id="node25" class="node">
<title>node_System(75)</title>
<g id="a_node25"><a xlink:title="bevy_render::view::visibility::update_frusta&lt;bevy_render::camera::projection::Projection&gt;">
<polygon fill="#70b9fc" stroke="#0c88f9" points="1469.5,-483 1277.5,-483 1277.5,-447 1469.5,-447 1469.5,-483"/>
<text text-anchor="middle" x="1373.5" y="-461.3" font-family="Helvetica,sans-Serif" font-size="14.00" fill="#011a31">update_frusta&lt;Projection&gt;</text>
</a>
</g>
</g>
<!-- set_marker_node_Set(20)&#45;&gt;node_System(75) -->
<g id="edge22" class="edge">
<title>set_marker_node_Set(20)&#45;&gt;node_System(75)</title>
<g id="a_edge22"><a xlink:title="TransformPropagate → update_frusta&lt;Projection&gt;">
<path fill="none" stroke="#99d955" stroke-width="2" d="M1127,-465C1167.9,-465 1219.24,-465 1264.39,-465"/>
<polygon fill="#99d955" stroke="#99d955" stroke-width="2" points="1264.14,-468.5 1274.14,-465 1264.14,-461.5 1264.14,-468.5"/>
</a>
</g>
</g>
<!-- node_System(77) -->
<g id="node27" class="node">
<title>node_System(77)</title>
<g id="a_node27"><a xlink:title="bevy_render::view::visibility::check_visibility">
<polygon fill="#70b9fc" stroke="#0c88f9" points="1664,-371 1550,-371 1550,-335 1664,-335 1664,-371"/>
<text text-anchor="middle" x="1607" y="-349.3" font-family="Helvetica,sans-Serif" font-size="14.00" fill="#011a31">check_visibility</text>
</a>
</g>
</g>
<!-- set_marker_node_Set(20)&#45;&gt;node_System(77) -->
<g id="edge28" class="edge">
<title>set_marker_node_Set(20)&#45;&gt;node_System(77)</title>
<g id="a_edge28"><a xlink:title="TransformPropagate → check_visibility">
<path fill="none" stroke="#0090cc" stroke-width="2" d="M1106.57,-496C1203.02,-546.21 1404.51,-629.86 1522,-527 1569.64,-485.29 1508.19,-435.81 1542.12,-380.06"/>
<polygon fill="#0090cc" stroke="#0090cc" stroke-width="2" points="1544.89,-382.21 1547.85,-372.04 1539.19,-378.14 1544.89,-382.21"/>
</a>
</g>
</g>
<!-- set_marker_node_Set(82) -->
<!-- node_System(68) -->
<g id="node14" class="node">
<title>node_System(68)</title>
<g id="a_node14"><a xlink:title="bevy_render::camera::camera::camera_system&lt;bevy_render::camera::projection::Projection&gt;">
<polygon fill="#70b9fc" stroke="#0c88f9" points="1152.5,-407 949.5,-407 949.5,-371 1152.5,-371 1152.5,-407"/>
<text text-anchor="middle" x="1051" y="-385.3" font-family="Helvetica,sans-Serif" font-size="14.00" fill="#011a31">camera_system&lt;Projection&gt;</text>
</a>
</g>
</g>
<!-- node_System(68)&#45;&gt;node_System(75) -->
<g id="edge21" class="edge">
<title>node_System(68)&#45;&gt;node_System(75)</title>
<g id="a_edge21"><a xlink:title="SystemTypeSet(camera_system&lt;Projection&gt;&quot;) → update_frusta&lt;Projection&gt;">
<path fill="none" stroke="#22c2bb" stroke-width="2" d="M1152.79,-395.58C1170.81,-399.3 1188.94,-404.83 1205,-413 1216.2,-418.7 1213.97,-426.98 1225,-433 1237.36,-439.75 1251.04,-445.07 1264.93,-449.27"/>
<polygon fill="#22c2bb" stroke="#22c2bb" stroke-width="2" points="1263.68,-452.56 1274.25,-451.87 1265.56,-445.81 1263.68,-452.56"/>
</a>
</g>
</g>
<!-- node_System(69) -->
<g id="node15" class="node">
<title>node_System(69)</title>
<g id="a_node15"><a xlink:title="bevy_render::camera::camera::camera_system&lt;bevy_render::camera::projection::OrthographicProjection&gt;">
<polygon fill="#70b9fc" stroke="#0c88f9" points="1197,-313 905,-313 905,-277 1197,-277 1197,-313"/>
<text text-anchor="middle" x="1051" y="-291.3" font-family="Helvetica,sans-Serif" font-size="14.00" fill="#011a31">camera_system&lt;OrthographicProjection&gt;</text>
</a>
</g>
</g>
<!-- node_System(69)&#45;&gt;node_System(73) -->
<g id="edge17" class="edge">
<title>node_System(69)&#45;&gt;node_System(73)</title>
<g id="a_edge17"><a xlink:title="SystemTypeSet(camera_system&lt;OrthographicProjection&gt;&quot;) → update_frusta&lt;OrthographicProjection&gt;">
<path fill="none" stroke="#0090cc" stroke-width="2" d="M1197.25,-286.84C1204.69,-286.42 1212.17,-286 1219.64,-285.59"/>
<polygon fill="#0090cc" stroke="#0090cc" stroke-width="2" points="1219.78,-289.08 1229.57,-285.03 1219.39,-282.09 1219.78,-289.08"/>
</a>
</g>
</g>
<!-- node_System(70) -->
<g id="node16" class="node">
<title>node_System(70)</title>
<g id="a_node16"><a xlink:title="bevy_render::camera::camera::camera_system&lt;bevy_render::camera::projection::PerspectiveProjection&gt;">
<polygon fill="#70b9fc" stroke="#0c88f9" points="1190.5,-360 911.5,-360 911.5,-324 1190.5,-324 1190.5,-360"/>
<text text-anchor="middle" x="1051" y="-338.3" font-family="Helvetica,sans-Serif" font-size="14.00" fill="#011a31">camera_system&lt;PerspectiveProjection&gt;</text>
</a>
</g>
</g>
<!-- node_System(70)&#45;&gt;node_System(74) -->
<g id="edge19" class="edge">
<title>node_System(70)&#45;&gt;node_System(74)</title>
<g id="a_edge19"><a xlink:title="SystemTypeSet(camera_system&lt;PerspectiveProjection&gt;&quot;) → update_frusta&lt;PerspectiveProjection&gt;">
<path fill="none" stroke="#663699" stroke-width="2" d="M1190.71,-354.55C1202.39,-355.61 1214.22,-356.68 1225.96,-357.74"/>
<polygon fill="#663699" stroke="#663699" stroke-width="2" points="1225.35,-361.2 1235.63,-358.62 1225.98,-354.23 1225.35,-361.2"/>
</a>
</g>
</g>
<!-- set_marker_node_Set(86) -->
<!-- set_marker_node_Set(87) -->
<!-- set_marker_node_Set(86)&#45;&gt;set_marker_node_Set(87) -->
<g id="edge16" class="edge">
<title>set_marker_node_Set(86)&#45;&gt;set_marker_node_Set(87)</title>
<g id="a_edge16"><a xlink:title="CalculateBounds → CalculateBoundsFlush">
<path fill="none" stroke="#44d488" stroke-width="2" d="M1124.5,-212C1170.09,-212 1229.4,-212 1278.58,-212"/>
<polygon fill="#44d488" stroke="#44d488" stroke-width="2" points="1278.47,-215.5 1288.47,-212 1278.47,-208.5 1278.47,-215.5"/>
</a>
</g>
</g>
<!-- node_System(72) -->
<g id="node18" class="node">
<title>node_System(72)</title>
<g id="a_node18"><a xlink:title="bevy_render::view::visibility::calculate_bounds">
<polygon fill="#70b9fc" stroke="#0c88f9" points="1116.5,-201 985.5,-201 985.5,-165 1116.5,-165 1116.5,-201"/>
<text text-anchor="middle" x="1051" y="-179.3" font-family="Helvetica,sans-Serif" font-size="14.00" fill="#011a31">calculate_bounds</text>
</a>
</g>
</g>
<!-- set_marker_node_Set(87)&#45;&gt;node_System(77) -->
<g id="edge23" class="edge">
<title>set_marker_node_Set(87)&#45;&gt;node_System(77)</title>
<g id="a_edge23"><a xlink:title="CalculateBoundsFlush → check_visibility">
<path fill="none" stroke="#eede00" stroke-width="2" d="M1455.5,-222.51C1478.24,-227.99 1502.16,-236.32 1522,-249 1551.11,-267.6 1574.77,-299.73 1589.47,-323.37"/>
<polygon fill="#eede00" stroke="#eede00" stroke-width="2" points="1586.45,-325.13 1594.59,-331.92 1592.46,-321.54 1586.45,-325.13"/>
</a>
</g>
</g>
<!-- set_marker_node_Set(88) -->
<!-- set_marker_node_Set(88)&#45;&gt;node_System(77) -->
<g id="edge24" class="edge">
<title>set_marker_node_Set(88)&#45;&gt;node_System(77)</title>
<g id="a_edge24"><a xlink:title="UpdateOrthographicFrusta → check_visibility">
<path fill="none" stroke="#881877" stroke-width="2" d="M1522,-335.95C1527.17,-337 1532.25,-338.03 1537.2,-339.03"/>
<polygon fill="#881877" stroke="#881877" stroke-width="2" points="1536.27,-342.41 1546.76,-340.97 1537.66,-335.55 1536.27,-342.41"/>
</a>
</g>
</g>
<!-- set_marker_node_Set(89) -->
<!-- set_marker_node_Set(89)&#45;&gt;node_System(77) -->
<g id="edge25" class="edge">
<title>set_marker_node_Set(89)&#45;&gt;node_System(77)</title>
<g id="a_edge25"><a xlink:title="UpdatePerspectiveFrusta → check_visibility">
<path fill="none" stroke="#00b0cc" stroke-width="2" d="M1516,-397.25C1518.02,-396.55 1520.02,-395.8 1522,-395 1530.66,-391.51 1531.76,-386.27 1541.56,-378.54"/>
<polygon fill="#00b0cc" stroke="#00b0cc" stroke-width="2" points="1543.31,-381.58 1549.69,-373.12 1539.43,-375.76 1543.31,-381.58"/>
</a>
</g>
</g>
<!-- set_marker_node_Set(90) -->
<!-- set_marker_node_Set(90)&#45;&gt;node_System(77) -->
<g id="edge26" class="edge">
<title>set_marker_node_Set(90)&#45;&gt;node_System(77)</title>
<g id="a_edge26"><a xlink:title="UpdateProjectionFrusta → check_visibility">
<path fill="none" stroke="#aa3a55" stroke-width="2" d="M1477.5,-507.98C1493.85,-505.55 1509.47,-499.86 1522,-489 1557.3,-458.41 1516.83,-421.92 1542.09,-380.13"/>
<polygon fill="#aa3a55" stroke="#aa3a55" stroke-width="2" points="1544.87,-382.26 1547.97,-372.13 1539.23,-378.12 1544.87,-382.26"/>
</a>
</g>
</g>
<!-- set_marker_node_Set(91) -->
<!-- set_marker_node_Set(92) -->
<!-- set_marker_node_Set(92)&#45;&gt;node_System(77) -->
<g id="edge27" class="edge">
<title>set_marker_node_Set(92)&#45;&gt;node_System(77)</title>
<g id="a_edge27"><a xlink:title="VisibilityPropagate → check_visibility">
<path fill="none" stroke="#44d488" stroke-width="2" d="M1480,-180.11C1495.05,-185.39 1509.6,-192.49 1522,-202 1561.99,-232.68 1585.67,-288.14 1597.23,-322.63"/>
<polygon fill="#44d488" stroke="#44d488" stroke-width="2" points="1593.79,-323.38 1600.15,-331.85 1600.46,-321.26 1593.79,-323.38"/>
</a>
</g>
</g>
<!-- node_System(76) -->
<g id="node29" class="node">
<title>node_System(76)</title>
<g id="a_node29"><a xlink:title="bevy_render::view::visibility::visibility_propagate_system">
<polygon fill="#70b9fc" stroke="#0c88f9" points="1472,-154 1275,-154 1275,-118 1472,-118 1472,-154"/>
<text text-anchor="middle" x="1373.5" y="-132.3" font-family="Helvetica,sans-Serif" font-size="14.00" fill="#011a31">visibility_propagate_system</text>
</a>
</g>
</g>
<!-- set_marker_node_Set(12)&#45;&gt;set_marker_node_Set(6) -->
<g id="edge11" class="edge">
<title>set_marker_node_Set(12)&#45;&gt;set_marker_node_Set(6)</title>
<g id="a_edge11"><a xlink:title="Last → LastFlush">
<path fill="none" stroke="#99d955" stroke-width="2" d="M1629,-39C1642.84,-39 1661.61,-39 1679.28,-39"/>
<polygon fill="#99d955" stroke="#99d955" stroke-width="2" points="1678.98,-42.5 1688.98,-39 1678.98,-35.5 1678.98,-42.5"/>
</a>
</g>
</g>
<!-- set_marker_node_Set(59)&#45;&gt;set_marker_node_Set(8) -->
<g id="edge12" class="edge">
<title>set_marker_node_Set(59)&#45;&gt;set_marker_node_Set(8)</title>
<g id="a_edge12"><a xlink:title="LoadAssets → PreUpdate">
<path fill="none" stroke="#eede00" stroke-width="2" d="M157,-96.09C161.6,-97.12 166.28,-98.18 170.91,-99.21"/>
<polygon fill="#eede00" stroke="#eede00" stroke-width="2" points="169.87,-102.57 180.39,-101.34 171.4,-95.74 169.87,-102.57"/>
</a>
</g>
</g>
<!-- set_marker_node_Set(60)&#45;&gt;set_marker_node_Set(12) -->
<g id="edge15" class="edge">
<title>set_marker_node_Set(60)&#45;&gt;set_marker_node_Set(12)</title>
<g id="a_edge15"><a xlink:title="AssetEvents → Last">
<path fill="none" stroke="#aa3a55" stroke-width="2" d="M1421.5,-20.67C1466.27,-25.12 1532.57,-31.7 1572.3,-35.65"/>
<polygon fill="#aa3a55" stroke="#aa3a55" stroke-width="2" points="1571.69,-39.11 1581.99,-36.61 1572.38,-32.14 1571.69,-39.11"/>
</a>
</g>
</g>
</g>
</svg>
