<?xml version="1.0" encoding="UTF-8" standalone="no"?>
<!DOCTYPE svg PUBLIC "-//W3C//DTD SVG 1.1//EN"
 "http://www.w3.org/Graphics/SVG/1.1/DTD/svg11.dtd">
<!-- Generated by graphviz version 7.1.0 (0)
 -->
<!-- Pages: 1 -->
<svg width="1443pt" height="180pt"
 viewBox="0.00 0.00 1443.00 180.00" xmlns="http://www.w3.org/2000/svg" xmlns:xlink="http://www.w3.org/1999/xlink">
<g id="graph0" class="graph" transform="scale(1 1) rotate(0) translate(4 176)">
<polygon fill="white" stroke="none" points="-4,4 -4,-176 1439,-176 1439,4 -4,4"/>
<g id="clust1" class="cluster">
<title>clusternode_Set(0)</title>
<g id="a_clust1"><a xlink:title="Update">
<path fill="#000000" fill-opacity="0.031373" stroke="#000000" stroke-width="2" stroke-opacity="0.250980" d="M703,-90C703,-90 744,-90 744,-90 750,-90 756,-96 756,-102 756,-102 756,-117 756,-117 756,-123 750,-129 744,-129 744,-129 703,-129 703,-129 697,-129 691,-123 691,-117 691,-117 691,-102 691,-102 691,-96 697,-90 703,-90"/>
<text text-anchor="middle" x="723.5" y="-113.8" font-family="Helvetica,sans-Serif" font-size="14.00">Update</text>
</a>
</g>
</g>
<g id="clust2" class="cluster">
<title>clusternode_Set(2)</title>
<g id="a_clust2"><a xlink:title="FirstFlush">
<path fill="#000000" fill-opacity="0.031373" stroke="#000000" stroke-width="2" stroke-opacity="0.250980" d="M82,-113C82,-113 140,-113 140,-113 146,-113 152,-119 152,-125 152,-125 152,-140 152,-140 152,-146 146,-152 140,-152 140,-152 82,-152 82,-152 76,-152 70,-146 70,-140 70,-140 70,-125 70,-125 70,-119 76,-113 82,-113"/>
<text text-anchor="middle" x="111" y="-136.8" font-family="Helvetica,sans-Serif" font-size="14.00">FirstFlush</text>
</a>
</g>
</g>
<g id="clust3" class="cluster">
<title>clusternode_Set(3)</title>
<g id="a_clust3"><a xlink:title="PreUpdateFlush">
<path fill="#000000" fill-opacity="0.031373" stroke="#000000" stroke-width="2" stroke-opacity="0.250980" d="M296,-90C296,-90 395,-90 395,-90 401,-90 407,-96 407,-102 407,-102 407,-117 407,-117 407,-123 401,-129 395,-129 395,-129 296,-129 296,-129 290,-129 284,-123 284,-117 284,-117 284,-102 284,-102 284,-96 290,-90 296,-90"/>
<text text-anchor="middle" x="345.5" y="-113.8" font-family="Helvetica,sans-Serif" font-size="14.00">PreUpdateFlush</text>
</a>
</g>
</g>
<g id="clust4" class="cluster">
<title>clusternode_Set(4)</title>
<g id="a_clust4"><a xlink:title="UpdateFlush">
<path fill="#000000" fill-opacity="0.031373" stroke="#000000" stroke-width="2" stroke-opacity="0.250980" d="M788,-90C788,-90 865,-90 865,-90 871,-90 877,-96 877,-102 877,-102 877,-117 877,-117 877,-123 871,-129 865,-129 865,-129 788,-129 788,-129 782,-129 776,-123 776,-117 776,-117 776,-102 776,-102 776,-96 782,-90 788,-90"/>
<text text-anchor="middle" x="826.5" y="-113.8" font-family="Helvetica,sans-Serif" font-size="14.00">UpdateFlush</text>
</a>
</g>
</g>
<g id="clust5" class="cluster">
<title>clusternode_Set(5)</title>
<g id="a_clust5"><a xlink:title="PostUpdateFlush">
<path fill="#000000" fill-opacity="0.031373" stroke="#000000" stroke-width="2" stroke-opacity="0.250980" d="M1022,-125C1022,-125 1127,-125 1127,-125 1133,-125 1139,-131 1139,-137 1139,-137 1139,-152 1139,-152 1139,-158 1133,-164 1127,-164 1127,-164 1022,-164 1022,-164 1016,-164 1010,-158 1010,-152 1010,-152 1010,-137 1010,-137 1010,-131 1016,-125 1022,-125"/>
<text text-anchor="middle" x="1074.5" y="-148.8" font-family="Helvetica,sans-Serif" font-size="14.00">PostUpdateFlush</text>
</a>
</g>
</g>
<g id="clust6" class="cluster">
<title>clusternode_Set(6)</title>
<g id="a_clust6"><a xlink:title="LastFlush">
<path fill="#000000" fill-opacity="0.031373" stroke="#000000" stroke-width="2" stroke-opacity="0.250980" d="M1367,-102C1367,-102 1423,-102 1423,-102 1429,-102 1435,-108 1435,-114 1435,-114 1435,-129 1435,-129 1435,-135 1429,-141 1423,-141 1423,-141 1367,-141 1367,-141 1361,-141 1355,-135 1355,-129 1355,-129 1355,-114 1355,-114 1355,-108 1361,-102 1367,-102"/>
<text text-anchor="middle" x="1395" y="-125.8" font-family="Helvetica,sans-Serif" font-size="14.00">LastFlush</text>
</a>
</g>
</g>
<g id="clust7" class="cluster">
<title>clusternode_Set(7)</title>
<g id="a_clust7"><a xlink:title="First">
<path fill="#000000" fill-opacity="0.031373" stroke="#000000" stroke-width="2" stroke-opacity="0.250980" d="M12,-89C12,-89 34,-89 34,-89 40,-89 46,-95 46,-101 46,-101 46,-116 46,-116 46,-122 40,-128 34,-128 34,-128 12,-128 12,-128 6,-128 0,-122 0,-116 0,-116 0,-101 0,-101 0,-95 6,-89 12,-89"/>
<text text-anchor="middle" x="23" y="-112.8" font-family="Helvetica,sans-Serif" font-size="14.00">First</text>
</a>
</g>
</g>
<g id="clust8" class="cluster">
<title>clusternode_Set(8)</title>
<g id="a_clust8"><a xlink:title="PreUpdate">
<path fill="#000000" fill-opacity="0.031373" stroke="#000000" stroke-width="2" stroke-opacity="0.250980" d="M189,-90C189,-90 252,-90 252,-90 258,-90 264,-96 264,-102 264,-102 264,-117 264,-117 264,-123 258,-129 252,-129 252,-129 189,-129 189,-129 183,-129 177,-123 177,-117 177,-117 177,-102 177,-102 177,-96 183,-90 189,-90"/>
<text text-anchor="middle" x="220.5" y="-113.8" font-family="Helvetica,sans-Serif" font-size="14.00">PreUpdate</text>
</a>
</g>
</g>
<g id="clust9" class="cluster">
<title>clusternode_Set(9)</title>
<g id="a_clust9"><a xlink:title="StateTransitions">
<path fill="#000000" fill-opacity="0.031373" stroke="#000000" stroke-width="2" stroke-opacity="0.250980" d="M439,-90C439,-90 539,-90 539,-90 545,-90 551,-96 551,-102 551,-102 551,-117 551,-117 551,-123 545,-129 539,-129 539,-129 439,-129 439,-129 433,-129 427,-123 427,-117 427,-117 427,-102 427,-102 427,-96 433,-90 439,-90"/>
<text text-anchor="middle" x="489" y="-113.8" font-family="Helvetica,sans-Serif" font-size="14.00">StateTransitions</text>
</a>
</g>
</g>
<g id="clust10" class="cluster">
<title>clusternode_Set(10)</title>
<g id="a_clust10"><a xlink:title="FixedUpdate">
<path fill="#000000" fill-opacity="0.031373" stroke="#000000" stroke-width="2" stroke-opacity="0.250980" d="M583,-90C583,-90 659,-90 659,-90 665,-90 671,-96 671,-102 671,-102 671,-117 671,-117 671,-123 665,-129 659,-129 659,-129 583,-129 583,-129 577,-129 571,-123 571,-117 571,-117 571,-102 571,-102 571,-96 577,-90 583,-90"/>
<text text-anchor="middle" x="621" y="-113.8" font-family="Helvetica,sans-Serif" font-size="14.00">FixedUpdate</text>
</a>
</g>
</g>
<g id="clust11" class="cluster">
<title>clusternode_Set(11)</title>
<g id="a_clust11"><a xlink:title="PostUpdate">
<path fill="#000000" fill-opacity="0.031373" stroke="#000000" stroke-width="2" stroke-opacity="0.250980" d="M909,-90C909,-90 978,-90 978,-90 984,-90 990,-96 990,-102 990,-102 990,-117 990,-117 990,-123 984,-129 978,-129 978,-129 909,-129 909,-129 903,-129 897,-123 897,-117 897,-117 897,-102 897,-102 897,-96 903,-90 909,-90"/>
<text text-anchor="middle" x="943.5" y="-113.8" font-family="Helvetica,sans-Serif" font-size="14.00">PostUpdate</text>
</a>
</g>
</g>
<g id="clust12" class="cluster">
<title>clusternode_Set(12)</title>
<g id="a_clust12"><a xlink:title="Last">
<path fill="#000000" fill-opacity="0.031373" stroke="#000000" stroke-width="2" stroke-opacity="0.250980" d="M1171,-8C1171,-8 1323,-8 1323,-8 1329,-8 1335,-14 1335,-20 1335,-20 1335,-129 1335,-129 1335,-135 1329,-141 1323,-141 1323,-141 1171,-141 1171,-141 1165,-141 1159,-135 1159,-129 1159,-129 1159,-20 1159,-20 1159,-14 1165,-8 1171,-8"/>
<text text-anchor="middle" x="1247" y="-125.8" font-family="Helvetica,sans-Serif" font-size="14.00">Last</text>
</a>
</g>
</g>
<g id="clust13" class="cluster">
<title>clusternode_Set(59)</title>
<g id="a_clust13"><a xlink:title="LoadAssets">
<path fill="#000000" fill-opacity="0.031373" stroke="#000000" stroke-width="2" stroke-opacity="0.250980" d="M78,-66C78,-66 145,-66 145,-66 151,-66 157,-72 157,-78 157,-78 157,-93 157,-93 157,-99 151,-105 145,-105 145,-105 78,-105 78,-105 72,-105 66,-99 66,-93 66,-93 66,-78 66,-78 66,-72 72,-66 78,-66"/>
<text text-anchor="middle" x="111.5" y="-89.8" font-family="Helvetica,sans-Serif" font-size="14.00">LoadAssets</text>
</a>
</g>
</g>
<g id="clust14" class="cluster">
<title>clusternode_Set(60)</title>
<g id="a_clust14"><a xlink:title="AssetEvents">
<path fill="#000000" fill-opacity="0.031373" stroke="#000000" stroke-width="2" stroke-opacity="0.250980" d="M1038,-78C1038,-78 1110,-78 1110,-78 1116,-78 1122,-84 1122,-90 1122,-90 1122,-105 1122,-105 1122,-111 1116,-117 1110,-117 1110,-117 1038,-117 1038,-117 1032,-117 1026,-111 1026,-105 1026,-105 1026,-90 1026,-90 1026,-84 1032,-78 1038,-78"/>
<text text-anchor="middle" x="1074" y="-101.8" font-family="Helvetica,sans-Serif" font-size="14.00">AssetEvents</text>
</a>
</g>
</g>
<!-- set_marker_node_Set(0) -->
<!-- set_marker_node_Set(4) -->
<!-- set_marker_node_Set(0)&#45;&gt;set_marker_node_Set(4) -->
<g id="edge7" class="edge">
<title>set_marker_node_Set(0)&#45;&gt;set_marker_node_Set(4)</title>
<g id="a_edge7"><a xlink:title="Update → UpdateFlush">
<path fill="none" stroke="#ee9e44" stroke-width="2" d="M756,-98C758.35,-98 760.77,-98 763.22,-98"/>
<polygon fill="#ee9e44" stroke="#ee9e44" stroke-width="2" points="762.97,-101.5 772.97,-98 762.97,-94.5 762.97,-101.5"/>
</a>
</g>
</g>
<!-- set_marker_node_Set(2) -->
<!-- set_marker_node_Set(8) -->
<!-- set_marker_node_Set(2)&#45;&gt;set_marker_node_Set(8) -->
<g id="edge2" class="edge">
<title>set_marker_node_Set(2)&#45;&gt;set_marker_node_Set(8)</title>
<g id="a_edge2"><a xlink:title="FirstFlush → PreUpdate">
<path fill="none" stroke="#881877" stroke-width="2" d="M149.2,-113C154.17,-111.94 159.34,-110.82 164.52,-109.71"/>
<polygon fill="#881877" stroke="#881877" stroke-width="2" points="165,-113.19 174.04,-107.66 163.53,-106.34 165,-113.19"/>
</a>
</g>
</g>
<!-- set_marker_node_Set(3) -->
<!-- set_marker_node_Set(9) -->
<!-- set_marker_node_Set(3)&#45;&gt;set_marker_node_Set(9) -->
<g id="edge4" class="edge">
<title>set_marker_node_Set(3)&#45;&gt;set_marker_node_Set(9)</title>
<g id="a_edge4"><a xlink:title="PreUpdateFlush → StateTransitions">
<path fill="none" stroke="#aa3a55" stroke-width="2" d="M407,-98C409.39,-98 411.8,-98 414.21,-98"/>
<polygon fill="#aa3a55" stroke="#aa3a55" stroke-width="2" points="413.98,-101.5 423.98,-98 413.98,-94.5 413.98,-101.5"/>
</a>
</g>
</g>
<!-- set_marker_node_Set(11) -->
<!-- set_marker_node_Set(4)&#45;&gt;set_marker_node_Set(11) -->
<g id="edge8" class="edge">
<title>set_marker_node_Set(4)&#45;&gt;set_marker_node_Set(11)</title>
<g id="a_edge8"><a xlink:title="UpdateFlush → PostUpdate">
<path fill="none" stroke="#663699" stroke-width="2" d="M877,-98C879.43,-98 881.88,-98 884.32,-98"/>
<polygon fill="#663699" stroke="#663699" stroke-width="2" points="883.98,-101.5 893.98,-98 883.98,-94.5 883.98,-101.5"/>
</a>
</g>
</g>
<!-- set_marker_node_Set(5) -->
<!-- set_marker_node_Set(12) -->
<!-- set_marker_node_Set(5)&#45;&gt;set_marker_node_Set(12) -->
<g id="edge10" class="edge">
<title>set_marker_node_Set(5)&#45;&gt;set_marker_node_Set(12)</title>
<g id="a_edge10"><a xlink:title="PostUpdateFlush → Last">
<path fill="none" stroke="#22c2bb" stroke-width="2" d="M1134.48,-125C1138.29,-124.49 1142.18,-123.96 1146.12,-123.43"/>
<polygon fill="#22c2bb" stroke="#22c2bb" stroke-width="2" points="1146.56,-126.91 1156,-122.1 1145.63,-119.97 1146.56,-126.91"/>
</a>
</g>
</g>
<!-- set_marker_node_Set(6) -->
<!-- set_marker_node_Set(7) -->
<!-- set_marker_node_Set(7)&#45;&gt;set_marker_node_Set(2) -->
<g id="edge1" class="edge">
<title>set_marker_node_Set(7)&#45;&gt;set_marker_node_Set(2)</title>
<g id="a_edge1"><a xlink:title="First → FirstFlush">
<path fill="none" stroke="#eede00" stroke-width="2" d="M46,-103.14C53.02,-105.1 61.02,-107.33 68.95,-109.54"/>
<polygon fill="#eede00" stroke="#eede00" stroke-width="2" points="67.85,-112.87 78.43,-112.19 69.74,-106.13 67.85,-112.87"/>
</a>
</g>
</g>
<!-- set_marker_node_Set(59) -->
<!-- set_marker_node_Set(7)&#45;&gt;set_marker_node_Set(59) -->
<g id="edge13" class="edge">
<title>set_marker_node_Set(7)&#45;&gt;set_marker_node_Set(59)</title>
<g id="a_edge13"><a xlink:title="First → LoadAssets">
<path fill="none" stroke="#881877" stroke-width="2" d="M46,-91.12C48.46,-90.46 51.05,-89.77 53.71,-89.05"/>
<polygon fill="#881877" stroke="#881877" stroke-width="2" points="54.32,-92.51 63.08,-86.55 52.51,-85.75 54.32,-92.51"/>
</a>
</g>
</g>
<!-- set_marker_node_Set(8)&#45;&gt;set_marker_node_Set(3) -->
<g id="edge3" class="edge">
<title>set_marker_node_Set(8)&#45;&gt;set_marker_node_Set(3)</title>
<g id="a_edge3"><a xlink:title="PreUpdate → PreUpdateFlush">
<path fill="none" stroke="#00b0cc" stroke-width="2" d="M264,-98C266.39,-98 268.82,-98 271.28,-98"/>
<polygon fill="#00b0cc" stroke="#00b0cc" stroke-width="2" points="270.98,-101.5 280.98,-98 270.98,-94.5 270.98,-101.5"/>
</a>
</g>
</g>
<!-- set_marker_node_Set(10) -->
<!-- set_marker_node_Set(9)&#45;&gt;set_marker_node_Set(10) -->
<g id="edge5" class="edge">
<title>set_marker_node_Set(9)&#45;&gt;set_marker_node_Set(10)</title>
<g id="a_edge5"><a xlink:title="StateTransitions → FixedUpdate">
<path fill="none" stroke="#44d488" stroke-width="2" d="M551,-98C553.39,-98 555.79,-98 558.19,-98"/>
<polygon fill="#44d488" stroke="#44d488" stroke-width="2" points="557.98,-101.5 567.98,-98 557.98,-94.5 557.98,-101.5"/>
</a>
</g>
</g>
<!-- set_marker_node_Set(10)&#45;&gt;set_marker_node_Set(0) -->
<g id="edge6" class="edge">
<title>set_marker_node_Set(10)&#45;&gt;set_marker_node_Set(0)</title>
<g id="a_edge6"><a xlink:title="FixedUpdate → Update">
<path fill="none" stroke="#0090cc" stroke-width="2" d="M671,-98C673.37,-98 675.75,-98 678.11,-98"/>
<polygon fill="#0090cc" stroke="#0090cc" stroke-width="2" points="677.98,-101.5 687.98,-98 677.98,-94.5 677.98,-101.5"/>
</a>
</g>
</g>
<!-- set_marker_node_Set(11)&#45;&gt;set_marker_node_Set(5) -->
<g id="edge9" class="edge">
<title>set_marker_node_Set(11)&#45;&gt;set_marker_node_Set(5)</title>
<g id="a_edge9"><a xlink:title="PostUpdate → PostUpdateFlush">
<path fill="none" stroke="#3363bb" stroke-width="2" d="M990,-113.21C996.68,-115.25 1003.5,-117.25 1010,-119 1013.93,-120.06 1018.01,-121.1 1022.12,-122.11"/>
<polygon fill="#3363bb" stroke="#3363bb" stroke-width="2" points="1020.95,-125.42 1031.48,-124.31 1022.55,-118.61 1020.95,-125.42"/>
</a>
</g>
</g>
<!-- set_marker_node_Set(60) -->
<!-- set_marker_node_Set(11)&#45;&gt;set_marker_node_Set(60) -->
<g id="edge14" class="edge">
<title>set_marker_node_Set(11)&#45;&gt;set_marker_node_Set(60)</title>
<g id="a_edge14"><a xlink:title="PostUpdate → AssetEvents">
<path fill="none" stroke="#00b0cc" stroke-width="2" d="M990,-93.72C997.5,-93.02 1005.36,-92.29 1013.14,-91.57"/>
<polygon fill="#00b0cc" stroke="#00b0cc" stroke-width="2" points="1013.36,-95.06 1022.99,-90.65 1012.71,-88.09 1013.36,-95.06"/>
</a>
</g>
</g>
<!-- set_marker_node_Set(12)&#45;&gt;set_marker_node_Set(6) -->
<g id="edge11" class="edge">
<title>set_marker_node_Set(12)&#45;&gt;set_marker_node_Set(6)</title>
<g id="a_edge11"><a xlink:title="Last → LastFlush">
<path fill="none" stroke="#99d955" stroke-width="2" d="M1335,-110C1337.4,-110 1339.79,-110 1342.14,-110"/>
<polygon fill="#99d955" stroke="#99d955" stroke-width="2" points="1341.97,-113.5 1351.97,-110 1341.97,-106.5 1341.97,-113.5"/>
</a>
</g>
</g>
<!-- node_System(6) -->
<g id="node13" class="node">
<title>node_System(6)</title>
<g id="a_node13"><a xlink:title="bevy_core::tick_global_task_pools">
<polygon fill="#3e583c" stroke="#689465" points="1327,-99 1167,-99 1167,-63 1327,-63 1327,-99"/>
<text text-anchor="middle" x="1247" y="-77.3" font-family="Helvetica,sans-Serif" font-size="14.00" fill="#e1eae0">tick_global_task_pools</text>
</a>
</g>
</g>
<!-- node_System(7) -->
<g id="node14" class="node">
<title>node_System(7)</title>
<g id="a_node14"><a xlink:title="bevy_core::update_frame_count">
<polygon fill="#3e583c" stroke="#689465" points="1323,-52 1171,-52 1171,-16 1323,-16 1323,-52"/>
<text text-anchor="middle" x="1247" y="-30.3" font-family="Helvetica,sans-Serif" font-size="14.00" fill="#e1eae0">update_frame_count</text>
</a>
</g>
</g>
<!-- set_marker_node_Set(59)&#45;&gt;set_marker_node_Set(8) -->
<g id="edge12" class="edge">
<title>set_marker_node_Set(59)&#45;&gt;set_marker_node_Set(8)</title>
<g id="a_edge12"><a xlink:title="LoadAssets → PreUpdate">
<path fill="none" stroke="#eede00" stroke-width="2" d="M157,-84.09C161.6,-85.12 166.28,-86.18 170.91,-87.21"/>
<polygon fill="#eede00" stroke="#eede00" stroke-width="2" points="169.87,-90.57 180.39,-89.34 171.4,-83.74 169.87,-90.57"/>
</a>
</g>
</g>
<!-- set_marker_node_Set(60)&#45;&gt;set_marker_node_Set(12) -->
<g id="edge15" class="edge">
<title>set_marker_node_Set(60)&#45;&gt;set_marker_node_Set(12)</title>
<g id="a_edge15"><a xlink:title="AssetEvents → Last">
<path fill="none" stroke="#aa3a55" stroke-width="2" d="M1122,-98.07C1129.86,-99.83 1138.13,-101.53 1146.3,-102.97"/>
<polygon fill="#aa3a55" stroke="#aa3a55" stroke-width="2" points="1145.58,-106.4 1156.01,-104.52 1146.69,-99.49 1145.58,-106.4"/>
</a>
</g>
</g>
</g>
</svg>
