<?xml version="1.0" encoding="UTF-8" standalone="no"?>
<!DOCTYPE svg PUBLIC "-//W3C//DTD SVG 1.1//EN"
 "http://www.w3.org/Graphics/SVG/1.1/DTD/svg11.dtd">
<!-- Generated by graphviz version 8.0.1 (0)
 -->
<!-- Pages: 1 -->
<svg width="1335pt" height="280pt"
 viewBox="0.00 0.00 1335.00 280.00" xmlns="http://www.w3.org/2000/svg" xmlns:xlink="http://www.w3.org/1999/xlink">
<g id="graph0" class="graph" transform="scale(1 1) rotate(0) translate(4 276)">
<polygon fill="white" stroke="none" points="-4,4 -4,-276 1331,-276 1331,4 -4,4"/>
<g id="clust1" class="cluster">
<title>clusternode_Set(0)</title>
<g id="a_clust1"><a xlink:title="Update">
<path fill="#000000" fill-opacity="0.031373" stroke="#000000" stroke-width="2" stroke-opacity="0.250980" d="M666,-37C666,-37 702,-37 702,-37 708,-37 714,-43 714,-49 714,-49 714,-64 714,-64 714,-70 708,-76 702,-76 702,-76 666,-76 666,-76 660,-76 654,-70 654,-64 654,-64 654,-49 654,-49 654,-43 660,-37 666,-37"/>
<text text-anchor="middle" x="684" y="-60.8" font-family="Helvetica,sans-Serif" font-size="14.00">Update</text>
</a>
</g>
</g>
<g id="clust2" class="cluster">
<title>clusternode_Set(2)</title>
<g id="a_clust2"><a xlink:title="FirstFlush">
<path fill="#000000" fill-opacity="0.031373" stroke="#000000" stroke-width="2" stroke-opacity="0.250980" d="M81,-55C81,-55 133,-55 133,-55 139,-55 145,-61 145,-67 145,-67 145,-82 145,-82 145,-88 139,-94 133,-94 133,-94 81,-94 81,-94 75,-94 69,-88 69,-82 69,-82 69,-67 69,-67 69,-61 75,-55 81,-55"/>
<text text-anchor="middle" x="107" y="-78.8" font-family="Helvetica,sans-Serif" font-size="14.00">FirstFlush</text>
</a>
</g>
</g>
<g id="clust3" class="cluster">
<title>clusternode_Set(3)</title>
<g id="a_clust3"><a xlink:title="PreUpdateFlush">
<path fill="#000000" fill-opacity="0.031373" stroke="#000000" stroke-width="2" stroke-opacity="0.250980" d="M284,-37C284,-37 374,-37 374,-37 380,-37 386,-43 386,-49 386,-49 386,-64 386,-64 386,-70 380,-76 374,-76 374,-76 284,-76 284,-76 278,-76 272,-70 272,-64 272,-64 272,-49 272,-49 272,-43 278,-37 284,-37"/>
<text text-anchor="middle" x="329" y="-60.8" font-family="Helvetica,sans-Serif" font-size="14.00">PreUpdateFlush</text>
</a>
</g>
</g>
<g id="clust4" class="cluster">
<title>clusternode_Set(4)</title>
<g id="a_clust4"><a xlink:title="UpdateFlush">
<path fill="#000000" fill-opacity="0.031373" stroke="#000000" stroke-width="2" stroke-opacity="0.250980" d="M746,-37C746,-37 815,-37 815,-37 821,-37 827,-43 827,-49 827,-49 827,-64 827,-64 827,-70 821,-76 815,-76 815,-76 746,-76 746,-76 740,-76 734,-70 734,-64 734,-64 734,-49 734,-49 734,-43 740,-37 746,-37"/>
<text text-anchor="middle" x="780.5" y="-60.8" font-family="Helvetica,sans-Serif" font-size="14.00">UpdateFlush</text>
</a>
</g>
</g>
<g id="clust5" class="cluster">
<title>clusternode_Set(5)</title>
<g id="a_clust5"><a xlink:title="PostUpdateFlush">
<path fill="#000000" fill-opacity="0.031373" stroke="#000000" stroke-width="2" stroke-opacity="0.250980" d="M1060,-66C1060,-66 1156,-66 1156,-66 1162,-66 1168,-72 1168,-78 1168,-78 1168,-93 1168,-93 1168,-99 1162,-105 1156,-105 1156,-105 1060,-105 1060,-105 1054,-105 1048,-99 1048,-93 1048,-93 1048,-78 1048,-78 1048,-72 1054,-66 1060,-66"/>
<text text-anchor="middle" x="1108" y="-89.8" font-family="Helvetica,sans-Serif" font-size="14.00">PostUpdateFlush</text>
</a>
</g>
</g>
<g id="clust6" class="cluster">
<title>clusternode_Set(6)</title>
<g id="a_clust6"><a xlink:title="LastFlush">
<path fill="#000000" fill-opacity="0.031373" stroke="#000000" stroke-width="2" stroke-opacity="0.250980" d="M1263,-31C1263,-31 1315,-31 1315,-31 1321,-31 1327,-37 1327,-43 1327,-43 1327,-58 1327,-58 1327,-64 1321,-70 1315,-70 1315,-70 1263,-70 1263,-70 1257,-70 1251,-64 1251,-58 1251,-58 1251,-43 1251,-43 1251,-37 1257,-31 1263,-31"/>
<text text-anchor="middle" x="1289" y="-54.8" font-family="Helvetica,sans-Serif" font-size="14.00">LastFlush</text>
</a>
</g>
</g>
<g id="clust7" class="cluster">
<title>clusternode_Set(7)</title>
<g id="a_clust7"><a xlink:title="First">
<path fill="#000000" fill-opacity="0.031373" stroke="#000000" stroke-width="2" stroke-opacity="0.250980" d="M12,-31C12,-31 31,-31 31,-31 37,-31 43,-37 43,-43 43,-43 43,-58 43,-58 43,-64 37,-70 31,-70 31,-70 12,-70 12,-70 6,-70 0,-64 0,-58 0,-58 0,-43 0,-43 0,-37 6,-31 12,-31"/>
<text text-anchor="middle" x="21.5" y="-54.8" font-family="Helvetica,sans-Serif" font-size="14.00">First</text>
</a>
</g>
</g>
<g id="clust8" class="cluster">
<title>clusternode_Set(8)</title>
<g id="a_clust8"><a xlink:title="PreUpdate">
<path fill="#000000" fill-opacity="0.031373" stroke="#000000" stroke-width="2" stroke-opacity="0.250980" d="M183,-37C183,-37 240,-37 240,-37 246,-37 252,-43 252,-49 252,-49 252,-64 252,-64 252,-70 246,-76 240,-76 240,-76 183,-76 183,-76 177,-76 171,-70 171,-64 171,-64 171,-49 171,-49 171,-43 177,-37 183,-37"/>
<text text-anchor="middle" x="211.5" y="-60.8" font-family="Helvetica,sans-Serif" font-size="14.00">PreUpdate</text>
</a>
</g>
</g>
<g id="clust9" class="cluster">
<title>clusternode_Set(9)</title>
<g id="a_clust9"><a xlink:title="StateTransitions">
<path fill="#000000" fill-opacity="0.031373" stroke="#000000" stroke-width="2" stroke-opacity="0.250980" d="M418,-37C418,-37 509,-37 509,-37 515,-37 521,-43 521,-49 521,-49 521,-64 521,-64 521,-70 515,-76 509,-76 509,-76 418,-76 418,-76 412,-76 406,-70 406,-64 406,-64 406,-49 406,-49 406,-43 412,-37 418,-37"/>
<text text-anchor="middle" x="463.5" y="-60.8" font-family="Helvetica,sans-Serif" font-size="14.00">StateTransitions</text>
</a>
</g>
</g>
<g id="clust10" class="cluster">
<title>clusternode_Set(10)</title>
<g id="a_clust10"><a xlink:title="FixedUpdate">
<path fill="#000000" fill-opacity="0.031373" stroke="#000000" stroke-width="2" stroke-opacity="0.250980" d="M553,-37C553,-37 622,-37 622,-37 628,-37 634,-43 634,-49 634,-49 634,-64 634,-64 634,-70 628,-76 622,-76 622,-76 553,-76 553,-76 547,-76 541,-70 541,-64 541,-64 541,-49 541,-49 541,-43 547,-37 553,-37"/>
<text text-anchor="middle" x="587.5" y="-60.8" font-family="Helvetica,sans-Serif" font-size="14.00">FixedUpdate</text>
</a>
</g>
</g>
<g id="clust11" class="cluster">
<title>clusternode_Set(11)</title>
<g id="a_clust11"><a xlink:title="PostUpdate">
<path fill="#000000" fill-opacity="0.031373" stroke="#000000" stroke-width="2" stroke-opacity="0.250980" d="M849.5,-37C849.5,-37 1025.5,-37 1025.5,-37 1031.5,-37 1037.5,-43 1037.5,-49 1037.5,-49 1037.5,-252 1037.5,-252 1037.5,-258 1031.5,-264 1025.5,-264 1025.5,-264 849.5,-264 849.5,-264 843.5,-264 837.5,-258 837.5,-252 837.5,-252 837.5,-49 837.5,-49 837.5,-43 843.5,-37 849.5,-37"/>
<text text-anchor="middle" x="937.5" y="-248.8" font-family="Helvetica,sans-Serif" font-size="14.00">PostUpdate</text>
</a>
</g>
</g>
<g id="clust12" class="cluster">
<title>clusternode_Set(20)</title>
<g id="a_clust12"><a xlink:title="TransformPropagate">
<path fill="#000000" fill-opacity="0.031373" stroke="#000000" stroke-width="2" stroke-opacity="0.250980" d="M857.5,-53C857.5,-53 1017.5,-53 1017.5,-53 1023.5,-53 1029.5,-59 1029.5,-65 1029.5,-65 1029.5,-221 1029.5,-221 1029.5,-227 1023.5,-233 1017.5,-233 1017.5,-233 857.5,-233 857.5,-233 851.5,-233 845.5,-227 845.5,-221 845.5,-221 845.5,-65 845.5,-65 845.5,-59 851.5,-53 857.5,-53"/>
<text text-anchor="middle" x="937.5" y="-217.8" font-family="Helvetica,sans-Serif" font-size="14.00">TransformPropagate</text>
</a>
</g>
</g>
<g id="clust13" class="cluster">
<title>clusternode_Set(21)</title>
<g id="a_clust13"><a xlink:title="PropagateTransformsSet">
<path fill="#000000" fill-opacity="0.031373" stroke="#000000" stroke-width="2" stroke-opacity="0.250980" d="M865.5,-116C865.5,-116 1009.5,-116 1009.5,-116 1015.5,-116 1021.5,-122 1021.5,-128 1021.5,-128 1021.5,-190 1021.5,-190 1021.5,-196 1015.5,-202 1009.5,-202 1009.5,-202 865.5,-202 865.5,-202 859.5,-202 853.5,-196 853.5,-190 853.5,-190 853.5,-128 853.5,-128 853.5,-122 859.5,-116 865.5,-116"/>
<text text-anchor="middle" x="937.5" y="-186.8" font-family="Helvetica,sans-Serif" font-size="14.00">PropagateTransformsSet</text>
</a>
</g>
</g>
<g id="clust14" class="cluster">
<title>clusternode_Set(12)</title>
<g id="a_clust14"><a xlink:title="Last">
<path fill="#000000" fill-opacity="0.031373" stroke="#000000" stroke-width="2" stroke-opacity="0.250980" d="M1200,-31C1200,-31 1219,-31 1219,-31 1225,-31 1231,-37 1231,-43 1231,-43 1231,-58 1231,-58 1231,-64 1225,-70 1219,-70 1219,-70 1200,-70 1200,-70 1194,-70 1188,-64 1188,-58 1188,-58 1188,-43 1188,-43 1188,-37 1194,-31 1200,-31"/>
<text text-anchor="middle" x="1209.5" y="-54.8" font-family="Helvetica,sans-Serif" font-size="14.00">Last</text>
</a>
</g>
</g>
<g id="clust15" class="cluster">
<title>clusternode_Set(59)</title>
<g id="a_clust15"><a xlink:title="LoadAssets">
<path fill="#000000" fill-opacity="0.031373" stroke="#000000" stroke-width="2" stroke-opacity="0.250980" d="M75,-8C75,-8 139,-8 139,-8 145,-8 151,-14 151,-20 151,-20 151,-35 151,-35 151,-41 145,-47 139,-47 139,-47 75,-47 75,-47 69,-47 63,-41 63,-35 63,-35 63,-20 63,-20 63,-14 69,-8 75,-8"/>
<text text-anchor="middle" x="107" y="-31.8" font-family="Helvetica,sans-Serif" font-size="14.00">LoadAssets</text>
</a>
</g>
</g>
<g id="clust16" class="cluster">
<title>clusternode_Set(60)</title>
<g id="a_clust16"><a xlink:title="AssetEvents">
<path fill="#000000" fill-opacity="0.031373" stroke="#000000" stroke-width="2" stroke-opacity="0.250980" d="M1074,-19C1074,-19 1142,-19 1142,-19 1148,-19 1154,-25 1154,-31 1154,-31 1154,-46 1154,-46 1154,-52 1148,-58 1142,-58 1142,-58 1074,-58 1074,-58 1068,-58 1062,-52 1062,-46 1062,-46 1062,-31 1062,-31 1062,-25 1068,-19 1074,-19"/>
<text text-anchor="middle" x="1108" y="-42.8" font-family="Helvetica,sans-Serif" font-size="14.00">AssetEvents</text>
</a>
</g>
</g>
<!-- set_marker_node_Set(0) -->
<!-- set_marker_node_Set(4) -->
<!-- set_marker_node_Set(0)&#45;&gt;set_marker_node_Set(4) -->
<g id="edge7" class="edge">
<title>set_marker_node_Set(0)&#45;&gt;set_marker_node_Set(4)</title>
<g id="a_edge7"><a xlink:title="Update → UpdateFlush">
<path fill="none" stroke="#ee9e44" stroke-width="2" d="M714,-45C716.33,-45 718.74,-45 721.18,-45"/>
<polygon fill="#ee9e44" stroke="#ee9e44" stroke-width="2" points="721,-48.5 731,-45 721,-41.5 721,-48.5"/>
</a>
</g>
</g>
<!-- set_marker_node_Set(2) -->
<!-- set_marker_node_Set(8) -->
<!-- set_marker_node_Set(2)&#45;&gt;set_marker_node_Set(8) -->
<g id="edge2" class="edge">
<title>set_marker_node_Set(2)&#45;&gt;set_marker_node_Set(8)</title>
<g id="a_edge2"><a xlink:title="FirstFlush → PreUpdate">
<path fill="none" stroke="#881877" stroke-width="2" d="M145,-56.47C149.33,-55.71 153.82,-54.91 158.31,-54.12"/>
<polygon fill="#881877" stroke="#881877" stroke-width="2" points="159.76,-57.07 169,-51.88 158.55,-50.17 159.76,-57.07"/>
</a>
</g>
</g>
<!-- set_marker_node_Set(3) -->
<!-- set_marker_node_Set(9) -->
<!-- set_marker_node_Set(3)&#45;&gt;set_marker_node_Set(9) -->
<g id="edge4" class="edge">
<title>set_marker_node_Set(3)&#45;&gt;set_marker_node_Set(9)</title>
<g id="a_edge4"><a xlink:title="PreUpdateFlush → StateTransitions">
<path fill="none" stroke="#aa3a55" stroke-width="2" d="M386,-45C388.39,-45 390.79,-45 393.21,-45"/>
<polygon fill="#aa3a55" stroke="#aa3a55" stroke-width="2" points="393,-48.5 403,-45 393,-41.5 393,-48.5"/>
</a>
</g>
</g>
<!-- set_marker_node_Set(11) -->
<!-- set_marker_node_Set(4)&#45;&gt;set_marker_node_Set(11) -->
<g id="edge8" class="edge">
<title>set_marker_node_Set(4)&#45;&gt;set_marker_node_Set(11)</title>
<g id="a_edge8"><a xlink:title="UpdateFlush → PostUpdate">
<path fill="none" stroke="#663699" stroke-width="2" d="M827,-45C829.63,-45 832.25,-45 834.88,-45"/>
<polygon fill="#663699" stroke="#663699" stroke-width="2" points="824.5,-48.5 834.5,-45 824.5,-41.5 824.5,-48.5"/>
</a>
</g>
</g>
<!-- set_marker_node_Set(5) -->
<!-- set_marker_node_Set(12) -->
<!-- set_marker_node_Set(5)&#45;&gt;set_marker_node_Set(12) -->
<g id="edge10" class="edge">
<title>set_marker_node_Set(5)&#45;&gt;set_marker_node_Set(12)</title>
<g id="a_edge10"><a xlink:title="PostUpdateFlush → Last">
<path fill="none" stroke="#22c2bb" stroke-width="2" d="M1148.78,-66C1155.29,-64.29 1161.89,-62.29 1168,-60 1170.84,-58.94 1173.73,-57.72 1176.59,-56.42"/>
<polygon fill="#22c2bb" stroke="#22c2bb" stroke-width="2" points="1178.6,-59.33 1186,-51.75 1175.49,-53.06 1178.6,-59.33"/>
</a>
</g>
</g>
<!-- set_marker_node_Set(6) -->
<!-- set_marker_node_Set(7) -->
<!-- set_marker_node_Set(7)&#45;&gt;set_marker_node_Set(2) -->
<g id="edge1" class="edge">
<title>set_marker_node_Set(7)&#45;&gt;set_marker_node_Set(2)</title>
<g id="a_edge1"><a xlink:title="First → FirstFlush">
<path fill="none" stroke="#eede00" stroke-width="2" d="M43,-45C49.88,-46.97 57.78,-49.22 65.61,-51.46"/>
<polygon fill="#eede00" stroke="#eede00" stroke-width="2" points="65.44,-55.62 76.01,-55 67.36,-48.89 65.44,-55.62"/>
</a>
</g>
</g>
<!-- set_marker_node_Set(59) -->
<!-- set_marker_node_Set(7)&#45;&gt;set_marker_node_Set(59) -->
<g id="edge13" class="edge">
<title>set_marker_node_Set(7)&#45;&gt;set_marker_node_Set(59)</title>
<g id="a_edge13"><a xlink:title="First → LoadAssets">
<path fill="none" stroke="#881877" stroke-width="2" d="M43,-33.25C45.41,-32.59 47.94,-31.9 50.55,-31.18"/>
<polygon fill="#881877" stroke="#881877" stroke-width="2" points="52.28,-33.79 61,-27.77 50.43,-27.04 52.28,-33.79"/>
</a>
</g>
</g>
<!-- set_marker_node_Set(8)&#45;&gt;set_marker_node_Set(3) -->
<g id="edge3" class="edge">
<title>set_marker_node_Set(8)&#45;&gt;set_marker_node_Set(3)</title>
<g id="a_edge3"><a xlink:title="PreUpdate → PreUpdateFlush">
<path fill="none" stroke="#00b0cc" stroke-width="2" d="M252,-45C254.38,-45 256.8,-45 259.25,-45"/>
<polygon fill="#00b0cc" stroke="#00b0cc" stroke-width="2" points="259,-48.5 269,-45 259,-41.5 259,-48.5"/>
</a>
</g>
</g>
<!-- set_marker_node_Set(10) -->
<!-- set_marker_node_Set(9)&#45;&gt;set_marker_node_Set(10) -->
<g id="edge5" class="edge">
<title>set_marker_node_Set(9)&#45;&gt;set_marker_node_Set(10)</title>
<g id="a_edge5"><a xlink:title="StateTransitions → FixedUpdate">
<path fill="none" stroke="#44d488" stroke-width="2" d="M521,-45C523.35,-45 525.71,-45 528.07,-45"/>
<polygon fill="#44d488" stroke="#44d488" stroke-width="2" points="528,-48.5 538,-45 528,-41.5 528,-48.5"/>
</a>
</g>
</g>
<!-- set_marker_node_Set(10)&#45;&gt;set_marker_node_Set(0) -->
<g id="edge6" class="edge">
<title>set_marker_node_Set(10)&#45;&gt;set_marker_node_Set(0)</title>
<g id="a_edge6"><a xlink:title="FixedUpdate → Update">
<path fill="none" stroke="#0090cc" stroke-width="2" d="M634,-45C636.35,-45 638.7,-45 641.03,-45"/>
<polygon fill="#0090cc" stroke="#0090cc" stroke-width="2" points="641,-48.5 651,-45 641,-41.5 641,-48.5"/>
</a>
</g>
</g>
<!-- set_marker_node_Set(11)&#45;&gt;set_marker_node_Set(5) -->
<g id="edge9" class="edge">
<title>set_marker_node_Set(11)&#45;&gt;set_marker_node_Set(5)</title>
<g id="a_edge9"><a xlink:title="PostUpdate → PostUpdateFlush">
<path fill="none" stroke="#3363bb" stroke-width="2" d="M1037.5,-51C1043.2,-53.31 1042.52,-57.21 1048,-60 1049.02,-60.52 1050.06,-61.02 1051.12,-61.5"/>
<polygon fill="#3363bb" stroke="#3363bb" stroke-width="2" points="1050.31,-64.7 1060.9,-65 1052.81,-58.17 1050.31,-64.7"/>
</a>
</g>
</g>
<!-- set_marker_node_Set(60) -->
<!-- set_marker_node_Set(11)&#45;&gt;set_marker_node_Set(60) -->
<g id="edge14" class="edge">
<title>set_marker_node_Set(11)&#45;&gt;set_marker_node_Set(60)</title>
<g id="a_edge14"><a xlink:title="PostUpdate → AssetEvents">
<path fill="none" stroke="#00b0cc" stroke-width="2" d="M1013.08,-37C1025.22,-35.71 1037.62,-34.39 1049.26,-33.15"/>
<polygon fill="#00b0cc" stroke="#00b0cc" stroke-width="2" points="1049.43,-36.33 1059,-31.79 1048.69,-29.37 1049.43,-36.33"/>
</a>
</g>
</g>
<!-- set_marker_node_Set(20) -->
<!-- set_marker_node_Set(21) -->
<!-- node_System(12) -->
<g id="node14" class="node">
<title>node_System(12)</title>
<g id="a_node14"><a xlink:title="bevy_transform::systems::propagate_transforms">
<polygon fill="#ffe7b9" stroke="#ffc453" points="1011.5,-160 862.5,-160 862.5,-124 1011.5,-124 1011.5,-160"/>
<text text-anchor="middle" x="937" y="-138.3" font-family="Helvetica,sans-Serif" font-size="14.00" fill="#322100">propagate_transforms</text>
</a>
</g>
</g>
<!-- node_System(11) -->
<g id="node15" class="node">
<title>node_System(11)</title>
<g id="a_node15"><a xlink:title="bevy_transform::systems::sync_simple_transforms">
<polygon fill="#ffe7b9" stroke="#ffc453" points="1018,-97 856,-97 856,-61 1018,-61 1018,-97"/>
<text text-anchor="middle" x="937" y="-75.3" font-family="Helvetica,sans-Serif" font-size="14.00" fill="#322100">sync_simple_transforms</text>
</a>
</g>
</g>
<!-- set_marker_node_Set(12)&#45;&gt;set_marker_node_Set(6) -->
<g id="edge11" class="edge">
<title>set_marker_node_Set(12)&#45;&gt;set_marker_node_Set(6)</title>
<g id="a_edge11"><a xlink:title="Last → LastFlush">
<path fill="none" stroke="#99d955" stroke-width="2" d="M1231,-39C1233.33,-39 1235.78,-39 1238.29,-39"/>
<polygon fill="#99d955" stroke="#99d955" stroke-width="2" points="1238,-42.5 1248,-39 1238,-35.5 1238,-42.5"/>
</a>
</g>
</g>
<!-- set_marker_node_Set(59)&#45;&gt;set_marker_node_Set(8) -->
<g id="edge12" class="edge">
<title>set_marker_node_Set(59)&#45;&gt;set_marker_node_Set(8)</title>
<g id="a_edge12"><a xlink:title="LoadAssets → PreUpdate">
<path fill="none" stroke="#eede00" stroke-width="2" d="M151,-28.22C157.15,-29.97 163.47,-31.77 169.57,-33.51"/>
<polygon fill="#eede00" stroke="#eede00" stroke-width="2" points="169.29,-37.63 179.87,-37 171.21,-30.9 169.29,-37.63"/>
</a>
</g>
</g>
<!-- set_marker_node_Set(60)&#45;&gt;set_marker_node_Set(12) -->
<g id="edge15" class="edge">
<title>set_marker_node_Set(60)&#45;&gt;set_marker_node_Set(12)</title>
<g id="a_edge15"><a xlink:title="AssetEvents → Last">
<path fill="none" stroke="#aa3a55" stroke-width="2" d="M1154,-32.45C1161.22,-33.33 1168.58,-34.22 1175.44,-35.05"/>
<polygon fill="#aa3a55" stroke="#aa3a55" stroke-width="2" points="1174.65,-38.85 1185,-36.58 1175.5,-31.9 1174.65,-38.85"/>
</a>
</g>
</g>
</g>
</svg>
