<?xml version="1.0" encoding="UTF-8" standalone="no"?>
<!DOCTYPE svg PUBLIC "-//W3C//DTD SVG 1.1//EN"
 "http://www.w3.org/Graphics/SVG/1.1/DTD/svg11.dtd">
<!-- Generated by graphviz version 7.1.0 (0)
 -->
<!-- Pages: 1 -->
<svg width="1374pt" height="180pt"
 viewBox="0.00 0.00 1374.00 180.00" xmlns="http://www.w3.org/2000/svg" xmlns:xlink="http://www.w3.org/1999/xlink">
<g id="graph0" class="graph" transform="scale(1 1) rotate(0) translate(4 176)">
<polygon fill="white" stroke="none" points="-4,4 -4,-176 1370,-176 1370,4 -4,4"/>
<g id="clust1" class="cluster">
<title>clusternode_Set(0)</title>
<g id="a_clust1"><a xlink:title="Update">
<path fill="#000000" fill-opacity="0.031373" stroke="#000000" stroke-width="2" stroke-opacity="0.250980" d="M766,-31C766,-31 807,-31 807,-31 813,-31 819,-37 819,-43 819,-43 819,-58 819,-58 819,-64 813,-70 807,-70 807,-70 766,-70 766,-70 760,-70 754,-64 754,-58 754,-58 754,-43 754,-43 754,-37 760,-31 766,-31"/>
<text text-anchor="middle" x="786.5" y="-54.8" font-family="Helvetica,sans-Serif" font-size="14.00">Update</text>
</a>
</g>
</g>
<g id="clust2" class="cluster">
<title>clusternode_Set(2)</title>
<g id="a_clust2"><a xlink:title="FirstFlush">
<path fill="#000000" fill-opacity="0.031373" stroke="#000000" stroke-width="2" stroke-opacity="0.250980" d="M82,-101C82,-101 140,-101 140,-101 146,-101 152,-107 152,-113 152,-113 152,-128 152,-128 152,-134 146,-140 140,-140 140,-140 82,-140 82,-140 76,-140 70,-134 70,-128 70,-128 70,-113 70,-113 70,-107 76,-101 82,-101"/>
<text text-anchor="middle" x="111" y="-124.8" font-family="Helvetica,sans-Serif" font-size="14.00">FirstFlush</text>
</a>
</g>
</g>
<g id="clust3" class="cluster">
<title>clusternode_Set(3)</title>
<g id="a_clust3"><a xlink:title="PreUpdateFlush">
<path fill="#000000" fill-opacity="0.031373" stroke="#000000" stroke-width="2" stroke-opacity="0.250980" d="M367,-31C367,-31 466,-31 466,-31 472,-31 478,-37 478,-43 478,-43 478,-58 478,-58 478,-64 472,-70 466,-70 466,-70 367,-70 367,-70 361,-70 355,-64 355,-58 355,-58 355,-43 355,-43 355,-37 361,-31 367,-31"/>
<text text-anchor="middle" x="416.5" y="-54.8" font-family="Helvetica,sans-Serif" font-size="14.00">PreUpdateFlush</text>
</a>
</g>
</g>
<g id="clust4" class="cluster">
<title>clusternode_Set(4)</title>
<g id="a_clust4"><a xlink:title="UpdateFlush">
<path fill="#000000" fill-opacity="0.031373" stroke="#000000" stroke-width="2" stroke-opacity="0.250980" d="M851,-31C851,-31 928,-31 928,-31 934,-31 940,-37 940,-43 940,-43 940,-58 940,-58 940,-64 934,-70 928,-70 928,-70 851,-70 851,-70 845,-70 839,-64 839,-58 839,-58 839,-43 839,-43 839,-37 845,-31 851,-31"/>
<text text-anchor="middle" x="889.5" y="-54.8" font-family="Helvetica,sans-Serif" font-size="14.00">UpdateFlush</text>
</a>
</g>
</g>
<g id="clust5" class="cluster">
<title>clusternode_Set(5)</title>
<g id="a_clust5"><a xlink:title="PostUpdateFlush">
<path fill="#000000" fill-opacity="0.031373" stroke="#000000" stroke-width="2" stroke-opacity="0.250980" d="M1085,-55C1085,-55 1190,-55 1190,-55 1196,-55 1202,-61 1202,-67 1202,-67 1202,-82 1202,-82 1202,-88 1196,-94 1190,-94 1190,-94 1085,-94 1085,-94 1079,-94 1073,-88 1073,-82 1073,-82 1073,-67 1073,-67 1073,-61 1079,-55 1085,-55"/>
<text text-anchor="middle" x="1137.5" y="-78.8" font-family="Helvetica,sans-Serif" font-size="14.00">PostUpdateFlush</text>
</a>
</g>
</g>
<g id="clust6" class="cluster">
<title>clusternode_Set(6)</title>
<g id="a_clust6"><a xlink:title="LastFlush">
<path fill="#000000" fill-opacity="0.031373" stroke="#000000" stroke-width="2" stroke-opacity="0.250980" d="M1298,-20C1298,-20 1354,-20 1354,-20 1360,-20 1366,-26 1366,-32 1366,-32 1366,-47 1366,-47 1366,-53 1360,-59 1354,-59 1354,-59 1298,-59 1298,-59 1292,-59 1286,-53 1286,-47 1286,-47 1286,-32 1286,-32 1286,-26 1292,-20 1298,-20"/>
<text text-anchor="middle" x="1326" y="-43.8" font-family="Helvetica,sans-Serif" font-size="14.00">LastFlush</text>
</a>
</g>
</g>
<g id="clust7" class="cluster">
<title>clusternode_Set(7)</title>
<g id="a_clust7"><a xlink:title="First">
<path fill="#000000" fill-opacity="0.031373" stroke="#000000" stroke-width="2" stroke-opacity="0.250980" d="M12,-77C12,-77 34,-77 34,-77 40,-77 46,-83 46,-89 46,-89 46,-104 46,-104 46,-110 40,-116 34,-116 34,-116 12,-116 12,-116 6,-116 0,-110 0,-104 0,-104 0,-89 0,-89 0,-83 6,-77 12,-77"/>
<text text-anchor="middle" x="23" y="-100.8" font-family="Helvetica,sans-Serif" font-size="14.00">First</text>
</a>
</g>
</g>
<g id="clust8" class="cluster">
<title>clusternode_Set(8)</title>
<g id="a_clust8"><a xlink:title="PreUpdate">
<path fill="#000000" fill-opacity="0.031373" stroke="#000000" stroke-width="2" stroke-opacity="0.250980" d="M189,-78C189,-78 463,-78 463,-78 469,-78 475,-84 475,-90 475,-90 475,-152 475,-152 475,-158 469,-164 463,-164 463,-164 189,-164 189,-164 183,-164 177,-158 177,-152 177,-152 177,-90 177,-90 177,-84 183,-78 189,-78"/>
<text text-anchor="middle" x="326" y="-148.8" font-family="Helvetica,sans-Serif" font-size="14.00">PreUpdate</text>
</a>
</g>
</g>
<g id="clust9" class="cluster">
<title>clusternode_Set(25)</title>
<g id="a_clust9"><a xlink:title="InputSystem">
<path fill="#000000" fill-opacity="0.031373" stroke="#000000" stroke-width="2" stroke-opacity="0.250980" d="M378,-94C378,-94 455,-94 455,-94 461,-94 467,-100 467,-106 467,-106 467,-121 467,-121 467,-127 461,-133 455,-133 455,-133 378,-133 378,-133 372,-133 366,-127 366,-121 366,-121 366,-106 366,-106 366,-100 372,-94 378,-94"/>
<text text-anchor="middle" x="416.5" y="-117.8" font-family="Helvetica,sans-Serif" font-size="14.00">InputSystem</text>
</a>
</g>
</g>
<g id="clust10" class="cluster">
<title>clusternode_Set(9)</title>
<g id="a_clust10"><a xlink:title="StateTransitions">
<path fill="#000000" fill-opacity="0.031373" stroke="#000000" stroke-width="2" stroke-opacity="0.250980" d="M502,-31C502,-31 602,-31 602,-31 608,-31 614,-37 614,-43 614,-43 614,-58 614,-58 614,-64 608,-70 602,-70 602,-70 502,-70 502,-70 496,-70 490,-64 490,-58 490,-58 490,-43 490,-43 490,-37 496,-31 502,-31"/>
<text text-anchor="middle" x="552" y="-54.8" font-family="Helvetica,sans-Serif" font-size="14.00">StateTransitions</text>
</a>
</g>
</g>
<g id="clust11" class="cluster">
<title>clusternode_Set(10)</title>
<g id="a_clust11"><a xlink:title="FixedUpdate">
<path fill="#000000" fill-opacity="0.031373" stroke="#000000" stroke-width="2" stroke-opacity="0.250980" d="M646,-31C646,-31 722,-31 722,-31 728,-31 734,-37 734,-43 734,-43 734,-58 734,-58 734,-64 728,-70 722,-70 722,-70 646,-70 646,-70 640,-70 634,-64 634,-58 634,-58 634,-43 634,-43 634,-37 640,-31 646,-31"/>
<text text-anchor="middle" x="684" y="-54.8" font-family="Helvetica,sans-Serif" font-size="14.00">FixedUpdate</text>
</a>
</g>
</g>
<g id="clust12" class="cluster">
<title>clusternode_Set(11)</title>
<g id="a_clust12"><a xlink:title="PostUpdate">
<path fill="#000000" fill-opacity="0.031373" stroke="#000000" stroke-width="2" stroke-opacity="0.250980" d="M972,-31C972,-31 1041,-31 1041,-31 1047,-31 1053,-37 1053,-43 1053,-43 1053,-58 1053,-58 1053,-64 1047,-70 1041,-70 1041,-70 972,-70 972,-70 966,-70 960,-64 960,-58 960,-58 960,-43 960,-43 960,-37 966,-31 972,-31"/>
<text text-anchor="middle" x="1006.5" y="-54.8" font-family="Helvetica,sans-Serif" font-size="14.00">PostUpdate</text>
</a>
</g>
</g>
<g id="clust13" class="cluster">
<title>clusternode_Set(12)</title>
<g id="a_clust13"><a xlink:title="Last">
<path fill="#000000" fill-opacity="0.031373" stroke="#000000" stroke-width="2" stroke-opacity="0.250980" d="M1234,-20C1234,-20 1254,-20 1254,-20 1260,-20 1266,-26 1266,-32 1266,-32 1266,-47 1266,-47 1266,-53 1260,-59 1254,-59 1254,-59 1234,-59 1234,-59 1228,-59 1222,-53 1222,-47 1222,-47 1222,-32 1222,-32 1222,-26 1228,-20 1234,-20"/>
<text text-anchor="middle" x="1244" y="-43.8" font-family="Helvetica,sans-Serif" font-size="14.00">Last</text>
</a>
</g>
</g>
<g id="clust14" class="cluster">
<title>clusternode_Set(59)</title>
<g id="a_clust14"><a xlink:title="LoadAssets">
<path fill="#000000" fill-opacity="0.031373" stroke="#000000" stroke-width="2" stroke-opacity="0.250980" d="M78,-54C78,-54 145,-54 145,-54 151,-54 157,-60 157,-66 157,-66 157,-81 157,-81 157,-87 151,-93 145,-93 145,-93 78,-93 78,-93 72,-93 66,-87 66,-81 66,-81 66,-66 66,-66 66,-60 72,-54 78,-54"/>
<text text-anchor="middle" x="111.5" y="-77.8" font-family="Helvetica,sans-Serif" font-size="14.00">LoadAssets</text>
</a>
</g>
</g>
<g id="clust15" class="cluster">
<title>clusternode_Set(60)</title>
<g id="a_clust15"><a xlink:title="AssetEvents">
<path fill="#000000" fill-opacity="0.031373" stroke="#000000" stroke-width="2" stroke-opacity="0.250980" d="M1101,-8C1101,-8 1173,-8 1173,-8 1179,-8 1185,-14 1185,-20 1185,-20 1185,-35 1185,-35 1185,-41 1179,-47 1173,-47 1173,-47 1101,-47 1101,-47 1095,-47 1089,-41 1089,-35 1089,-35 1089,-20 1089,-20 1089,-14 1095,-8 1101,-8"/>
<text text-anchor="middle" x="1137" y="-31.8" font-family="Helvetica,sans-Serif" font-size="14.00">AssetEvents</text>
</a>
</g>
</g>
<!-- set_marker_node_Set(0) -->
<!-- set_marker_node_Set(4) -->
<!-- set_marker_node_Set(0)&#45;&gt;set_marker_node_Set(4) -->
<g id="edge7" class="edge">
<title>set_marker_node_Set(0)&#45;&gt;set_marker_node_Set(4)</title>
<g id="a_edge7"><a xlink:title="Update → UpdateFlush">
<path fill="none" stroke="#ee9e44" stroke-width="2" d="M819,-39C821.35,-39 823.77,-39 826.22,-39"/>
<polygon fill="#ee9e44" stroke="#ee9e44" stroke-width="2" points="825.97,-42.5 835.97,-39 825.97,-35.5 825.97,-42.5"/>
</a>
</g>
</g>
<!-- set_marker_node_Set(2) -->
<!-- set_marker_node_Set(8) -->
<!-- set_marker_node_Set(2)&#45;&gt;set_marker_node_Set(8) -->
<g id="edge2" class="edge">
<title>set_marker_node_Set(2)&#45;&gt;set_marker_node_Set(8)</title>
<g id="a_edge2"><a xlink:title="FirstFlush → PreUpdate">
<path fill="none" stroke="#881877" stroke-width="2" d="M138.21,-101C146.22,-98.76 155.31,-96.4 164.39,-94.44"/>
<polygon fill="#881877" stroke="#881877" stroke-width="2" points="164.88,-97.91 174.03,-92.58 163.55,-91.04 164.88,-97.91"/>
</a>
</g>
</g>
<!-- set_marker_node_Set(3) -->
<!-- set_marker_node_Set(9) -->
<!-- set_marker_node_Set(3)&#45;&gt;set_marker_node_Set(9) -->
<g id="edge4" class="edge">
<title>set_marker_node_Set(3)&#45;&gt;set_marker_node_Set(9)</title>
<g id="a_edge4"><a xlink:title="PreUpdateFlush → StateTransitions">
<path fill="none" stroke="#aa3a55" stroke-width="2" d="M478,-39C481,-39 484,-39 487,-39"/>
<polygon fill="#aa3a55" stroke="#aa3a55" stroke-width="2" points="476.98,-42.5 486.98,-39 476.98,-35.5 476.98,-42.5"/>
</a>
</g>
</g>
<!-- set_marker_node_Set(11) -->
<!-- set_marker_node_Set(4)&#45;&gt;set_marker_node_Set(11) -->
<g id="edge8" class="edge">
<title>set_marker_node_Set(4)&#45;&gt;set_marker_node_Set(11)</title>
<g id="a_edge8"><a xlink:title="UpdateFlush → PostUpdate">
<path fill="none" stroke="#663699" stroke-width="2" d="M940,-39C942.43,-39 944.88,-39 947.32,-39"/>
<polygon fill="#663699" stroke="#663699" stroke-width="2" points="946.98,-42.5 956.98,-39 946.98,-35.5 946.98,-42.5"/>
</a>
</g>
</g>
<!-- set_marker_node_Set(5) -->
<!-- set_marker_node_Set(12) -->
<!-- set_marker_node_Set(5)&#45;&gt;set_marker_node_Set(12) -->
<g id="edge10" class="edge">
<title>set_marker_node_Set(5)&#45;&gt;set_marker_node_Set(12)</title>
<g id="a_edge10"><a xlink:title="PostUpdateFlush → Last">
<path fill="none" stroke="#22c2bb" stroke-width="2" d="M1181.78,-55C1188.63,-53.3 1195.57,-51.31 1202,-49 1204.73,-48.02 1207.5,-46.9 1210.26,-45.7"/>
<polygon fill="#22c2bb" stroke="#22c2bb" stroke-width="2" points="1211.77,-48.85 1219.27,-41.38 1208.74,-42.54 1211.77,-48.85"/>
</a>
</g>
</g>
<!-- set_marker_node_Set(6) -->
<!-- set_marker_node_Set(7) -->
<!-- set_marker_node_Set(7)&#45;&gt;set_marker_node_Set(2) -->
<g id="edge1" class="edge">
<title>set_marker_node_Set(7)&#45;&gt;set_marker_node_Set(2)</title>
<g id="a_edge1"><a xlink:title="First → FirstFlush">
<path fill="none" stroke="#eede00" stroke-width="2" d="M46,-91.14C53.02,-93.1 61.02,-95.33 68.95,-97.54"/>
<polygon fill="#eede00" stroke="#eede00" stroke-width="2" points="67.85,-100.87 78.43,-100.19 69.74,-94.13 67.85,-100.87"/>
</a>
</g>
</g>
<!-- set_marker_node_Set(59) -->
<!-- set_marker_node_Set(7)&#45;&gt;set_marker_node_Set(59) -->
<g id="edge13" class="edge">
<title>set_marker_node_Set(7)&#45;&gt;set_marker_node_Set(59)</title>
<g id="a_edge13"><a xlink:title="First → LoadAssets">
<path fill="none" stroke="#881877" stroke-width="2" d="M46,-79.12C48.46,-78.46 51.05,-77.77 53.71,-77.05"/>
<polygon fill="#881877" stroke="#881877" stroke-width="2" points="54.32,-80.51 63.08,-74.55 52.51,-73.75 54.32,-80.51"/>
</a>
</g>
</g>
<!-- set_marker_node_Set(8)&#45;&gt;set_marker_node_Set(3) -->
<g id="edge3" class="edge">
<title>set_marker_node_Set(8)&#45;&gt;set_marker_node_Set(3)</title>
<g id="a_edge3"><a xlink:title="PreUpdate → PreUpdateFlush">
<path fill="none" stroke="#00b0cc" stroke-width="2" d="M283.88,-78C300.12,-73.17 321.67,-66.76 342.6,-60.54"/>
<polygon fill="#00b0cc" stroke="#00b0cc" stroke-width="2" points="343.51,-63.92 352.1,-57.71 341.52,-57.21 343.51,-63.92"/>
</a>
</g>
</g>
<!-- set_marker_node_Set(25) -->
<!-- node_System(143) -->
<g id="node10" class="node">
<title>node_System(143)</title>
<g id="a_node10"><a xlink:title="bevy_gilrs::gilrs_system::gilrs_event_system">
<polygon fill="#973977" stroke="#c86da9" points="327,-133 185,-133 185,-97 327,-97 327,-133"/>
<text text-anchor="middle" x="256" y="-111.3" font-family="Helvetica,sans-Serif" font-size="14.00" fill="#f1d9e9">gilrs_event_system</text>
</a>
</g>
</g>
<!-- node_System(143)&#45;&gt;set_marker_node_Set(25) -->
<g id="edge16" class="edge">
<title>node_System(143)&#45;&gt;set_marker_node_Set(25)</title>
<g id="a_edge16"><a xlink:title="gilrs_event_system → InputSystem">
<path fill="none" stroke="#44d488" stroke-width="2" d="M327.22,-109.22C335.91,-108.51 344.75,-107.78 353.3,-107.08"/>
<polygon fill="#44d488" stroke="#44d488" stroke-width="2" points="353.31,-110.59 362.99,-106.28 352.73,-103.61 353.31,-110.59"/>
</a>
</g>
</g>
<!-- set_marker_node_Set(10) -->
<!-- set_marker_node_Set(9)&#45;&gt;set_marker_node_Set(10) -->
<g id="edge5" class="edge">
<title>set_marker_node_Set(9)&#45;&gt;set_marker_node_Set(10)</title>
<g id="a_edge5"><a xlink:title="StateTransitions → FixedUpdate">
<path fill="none" stroke="#44d488" stroke-width="2" d="M614,-39C616.39,-39 618.79,-39 621.19,-39"/>
<polygon fill="#44d488" stroke="#44d488" stroke-width="2" points="620.98,-42.5 630.98,-39 620.98,-35.5 620.98,-42.5"/>
</a>
</g>
</g>
<!-- set_marker_node_Set(10)&#45;&gt;set_marker_node_Set(0) -->
<g id="edge6" class="edge">
<title>set_marker_node_Set(10)&#45;&gt;set_marker_node_Set(0)</title>
<g id="a_edge6"><a xlink:title="FixedUpdate → Update">
<path fill="none" stroke="#0090cc" stroke-width="2" d="M734,-39C736.37,-39 738.75,-39 741.11,-39"/>
<polygon fill="#0090cc" stroke="#0090cc" stroke-width="2" points="740.98,-42.5 750.98,-39 740.98,-35.5 740.98,-42.5"/>
</a>
</g>
</g>
<!-- set_marker_node_Set(11)&#45;&gt;set_marker_node_Set(5) -->
<g id="edge9" class="edge">
<title>set_marker_node_Set(11)&#45;&gt;set_marker_node_Set(5)</title>
<g id="a_edge9"><a xlink:title="PostUpdate → PostUpdateFlush">
<path fill="none" stroke="#3363bb" stroke-width="2" d="M1053,-47.56C1061.83,-49.2 1071.16,-50.94 1080.26,-52.63"/>
<polygon fill="#3363bb" stroke="#3363bb" stroke-width="2" points="1079.56,-56.06 1090.04,-54.45 1080.84,-49.18 1079.56,-56.06"/>
</a>
</g>
</g>
<!-- set_marker_node_Set(60) -->
<!-- set_marker_node_Set(11)&#45;&gt;set_marker_node_Set(60) -->
<g id="edge14" class="edge">
<title>set_marker_node_Set(11)&#45;&gt;set_marker_node_Set(60)</title>
<g id="a_edge14"><a xlink:title="PostUpdate → AssetEvents">
<path fill="none" stroke="#00b0cc" stroke-width="2" d="M1051.87,-31C1059.84,-29.58 1068.26,-28.08 1076.57,-26.6"/>
<polygon fill="#00b0cc" stroke="#00b0cc" stroke-width="2" points="1076.79,-30.11 1086.02,-24.91 1075.56,-23.22 1076.79,-30.11"/>
</a>
</g>
</g>
<!-- set_marker_node_Set(12)&#45;&gt;set_marker_node_Set(6) -->
<g id="edge11" class="edge">
<title>set_marker_node_Set(12)&#45;&gt;set_marker_node_Set(6)</title>
<g id="a_edge11"><a xlink:title="Last → LastFlush">
<path fill="none" stroke="#99d955" stroke-width="2" d="M1266,-28C1268.31,-28 1270.74,-28 1273.23,-28"/>
<polygon fill="#99d955" stroke="#99d955" stroke-width="2" points="1272.98,-31.5 1282.98,-28 1272.98,-24.5 1272.98,-31.5"/>
</a>
</g>
</g>
<!-- set_marker_node_Set(59)&#45;&gt;set_marker_node_Set(8) -->
<g id="edge12" class="edge">
<title>set_marker_node_Set(59)&#45;&gt;set_marker_node_Set(8)</title>
<g id="a_edge12"><a xlink:title="LoadAssets → PreUpdate">
<path fill="none" stroke="#eede00" stroke-width="2" d="M157,-69.55C168.96,-71.56 182.08,-73.76 194.71,-75.88"/>
<polygon fill="#eede00" stroke="#eede00" stroke-width="2" points="193.93,-79.3 204.37,-77.5 195.09,-72.4 193.93,-79.3"/>
</a>
</g>
</g>
<!-- set_marker_node_Set(60)&#45;&gt;set_marker_node_Set(12) -->
<g id="edge15" class="edge">
<title>set_marker_node_Set(60)&#45;&gt;set_marker_node_Set(12)</title>
<g id="a_edge15"><a xlink:title="AssetEvents → Last">
<path fill="none" stroke="#aa3a55" stroke-width="2" d="M1185,-21.37C1193.11,-22.3 1201.4,-23.25 1209.08,-24.12"/>
<polygon fill="#aa3a55" stroke="#aa3a55" stroke-width="2" points="1208.66,-27.6 1219,-25.26 1209.46,-20.64 1208.66,-27.6"/>
</a>
</g>
</g>
</g>
</svg>
