<?xml version="1.0" encoding="UTF-8" standalone="no"?>
<!DOCTYPE svg PUBLIC "-//W3C//DTD SVG 1.1//EN"
 "http://www.w3.org/Graphics/SVG/1.1/DTD/svg11.dtd">
<!-- Generated by graphviz version 7.1.0 (0)
 -->
<!-- Pages: 1 -->
<svg width="1396pt" height="204pt"
 viewBox="0.00 0.00 1396.00 204.00" xmlns="http://www.w3.org/2000/svg" xmlns:xlink="http://www.w3.org/1999/xlink">
<g id="graph0" class="graph" transform="scale(1 1) rotate(0) translate(4 200)">
<polygon fill="white" stroke="none" points="-4,4 -4,-200 1392,-200 1392,4 -4,4"/>
<g id="clust1" class="cluster">
<title>clusternode_Set(0)</title>
<g id="a_clust1"><a xlink:title="Update">
<path fill="#000000" fill-opacity="0.031373" stroke="#000000" stroke-width="2" stroke-opacity="0.250980" d="M703,-102C703,-102 744,-102 744,-102 750,-102 756,-108 756,-114 756,-114 756,-129 756,-129 756,-135 750,-141 744,-141 744,-141 703,-141 703,-141 697,-141 691,-135 691,-129 691,-129 691,-114 691,-114 691,-108 697,-102 703,-102"/>
<text text-anchor="middle" x="723.5" y="-125.8" font-family="Helvetica,sans-Serif" font-size="14.00">Update</text>
</a>
</g>
</g>
<g id="clust2" class="cluster">
<title>clusternode_Set(2)</title>
<g id="a_clust2"><a xlink:title="FirstFlush">
<path fill="#000000" fill-opacity="0.031373" stroke="#000000" stroke-width="2" stroke-opacity="0.250980" d="M82,-125C82,-125 140,-125 140,-125 146,-125 152,-131 152,-137 152,-137 152,-152 152,-152 152,-158 146,-164 140,-164 140,-164 82,-164 82,-164 76,-164 70,-158 70,-152 70,-152 70,-137 70,-137 70,-131 76,-125 82,-125"/>
<text text-anchor="middle" x="111" y="-148.8" font-family="Helvetica,sans-Serif" font-size="14.00">FirstFlush</text>
</a>
</g>
</g>
<g id="clust3" class="cluster">
<title>clusternode_Set(3)</title>
<g id="a_clust3"><a xlink:title="PreUpdateFlush">
<path fill="#000000" fill-opacity="0.031373" stroke="#000000" stroke-width="2" stroke-opacity="0.250980" d="M296,-102C296,-102 395,-102 395,-102 401,-102 407,-108 407,-114 407,-114 407,-129 407,-129 407,-135 401,-141 395,-141 395,-141 296,-141 296,-141 290,-141 284,-135 284,-129 284,-129 284,-114 284,-114 284,-108 290,-102 296,-102"/>
<text text-anchor="middle" x="345.5" y="-125.8" font-family="Helvetica,sans-Serif" font-size="14.00">PreUpdateFlush</text>
</a>
</g>
</g>
<g id="clust4" class="cluster">
<title>clusternode_Set(4)</title>
<g id="a_clust4"><a xlink:title="UpdateFlush">
<path fill="#000000" fill-opacity="0.031373" stroke="#000000" stroke-width="2" stroke-opacity="0.250980" d="M788,-102C788,-102 865,-102 865,-102 871,-102 877,-108 877,-114 877,-114 877,-129 877,-129 877,-135 871,-141 865,-141 865,-141 788,-141 788,-141 782,-141 776,-135 776,-129 776,-129 776,-114 776,-114 776,-108 782,-102 788,-102"/>
<text text-anchor="middle" x="826.5" y="-125.8" font-family="Helvetica,sans-Serif" font-size="14.00">UpdateFlush</text>
</a>
</g>
</g>
<g id="clust5" class="cluster">
<title>clusternode_Set(5)</title>
<g id="a_clust5"><a xlink:title="PostUpdateFlush">
<path fill="#000000" fill-opacity="0.031373" stroke="#000000" stroke-width="2" stroke-opacity="0.250980" d="M1096,-55C1096,-55 1201,-55 1201,-55 1207,-55 1213,-61 1213,-67 1213,-67 1213,-82 1213,-82 1213,-88 1207,-94 1201,-94 1201,-94 1096,-94 1096,-94 1090,-94 1084,-88 1084,-82 1084,-82 1084,-67 1084,-67 1084,-61 1090,-55 1096,-55"/>
<text text-anchor="middle" x="1148.5" y="-78.8" font-family="Helvetica,sans-Serif" font-size="14.00">PostUpdateFlush</text>
</a>
</g>
</g>
<g id="clust6" class="cluster">
<title>clusternode_Set(6)</title>
<g id="a_clust6"><a xlink:title="LastFlush">
<path fill="#000000" fill-opacity="0.031373" stroke="#000000" stroke-width="2" stroke-opacity="0.250980" d="M1320,-31C1320,-31 1376,-31 1376,-31 1382,-31 1388,-37 1388,-43 1388,-43 1388,-58 1388,-58 1388,-64 1382,-70 1376,-70 1376,-70 1320,-70 1320,-70 1314,-70 1308,-64 1308,-58 1308,-58 1308,-43 1308,-43 1308,-37 1314,-31 1320,-31"/>
<text text-anchor="middle" x="1348" y="-54.8" font-family="Helvetica,sans-Serif" font-size="14.00">LastFlush</text>
</a>
</g>
</g>
<g id="clust7" class="cluster">
<title>clusternode_Set(7)</title>
<g id="a_clust7"><a xlink:title="First">
<path fill="#000000" fill-opacity="0.031373" stroke="#000000" stroke-width="2" stroke-opacity="0.250980" d="M12,-101C12,-101 34,-101 34,-101 40,-101 46,-107 46,-113 46,-113 46,-128 46,-128 46,-134 40,-140 34,-140 34,-140 12,-140 12,-140 6,-140 0,-134 0,-128 0,-128 0,-113 0,-113 0,-107 6,-101 12,-101"/>
<text text-anchor="middle" x="23" y="-124.8" font-family="Helvetica,sans-Serif" font-size="14.00">First</text>
</a>
</g>
</g>
<g id="clust8" class="cluster">
<title>clusternode_Set(8)</title>
<g id="a_clust8"><a xlink:title="PreUpdate">
<path fill="#000000" fill-opacity="0.031373" stroke="#000000" stroke-width="2" stroke-opacity="0.250980" d="M189,-102C189,-102 252,-102 252,-102 258,-102 264,-108 264,-114 264,-114 264,-129 264,-129 264,-135 258,-141 252,-141 252,-141 189,-141 189,-141 183,-141 177,-135 177,-129 177,-129 177,-114 177,-114 177,-108 183,-102 189,-102"/>
<text text-anchor="middle" x="220.5" y="-125.8" font-family="Helvetica,sans-Serif" font-size="14.00">PreUpdate</text>
</a>
</g>
</g>
<g id="clust9" class="cluster">
<title>clusternode_Set(9)</title>
<g id="a_clust9"><a xlink:title="StateTransitions">
<path fill="#000000" fill-opacity="0.031373" stroke="#000000" stroke-width="2" stroke-opacity="0.250980" d="M439,-102C439,-102 539,-102 539,-102 545,-102 551,-108 551,-114 551,-114 551,-129 551,-129 551,-135 545,-141 539,-141 539,-141 439,-141 439,-141 433,-141 427,-135 427,-129 427,-129 427,-114 427,-114 427,-108 433,-102 439,-102"/>
<text text-anchor="middle" x="489" y="-125.8" font-family="Helvetica,sans-Serif" font-size="14.00">StateTransitions</text>
</a>
</g>
</g>
<g id="clust10" class="cluster">
<title>clusternode_Set(10)</title>
<g id="a_clust10"><a xlink:title="FixedUpdate">
<path fill="#000000" fill-opacity="0.031373" stroke="#000000" stroke-width="2" stroke-opacity="0.250980" d="M583,-102C583,-102 659,-102 659,-102 665,-102 671,-108 671,-114 671,-114 671,-129 671,-129 671,-135 665,-141 659,-141 659,-141 583,-141 583,-141 577,-141 571,-135 571,-129 571,-129 571,-114 571,-114 571,-108 577,-102 583,-102"/>
<text text-anchor="middle" x="621" y="-125.8" font-family="Helvetica,sans-Serif" font-size="14.00">FixedUpdate</text>
</a>
</g>
</g>
<g id="clust11" class="cluster">
<title>clusternode_Set(11)</title>
<g id="a_clust11"><a xlink:title="PostUpdate">
<path fill="#000000" fill-opacity="0.031373" stroke="#000000" stroke-width="2" stroke-opacity="0.250980" d="M909,-102C909,-102 1220,-102 1220,-102 1226,-102 1232,-108 1232,-114 1232,-114 1232,-176 1232,-176 1232,-182 1226,-188 1220,-188 1220,-188 909,-188 909,-188 903,-188 897,-182 897,-176 897,-176 897,-114 897,-114 897,-108 903,-102 909,-102"/>
<text text-anchor="middle" x="1064.5" y="-172.8" font-family="Helvetica,sans-Serif" font-size="14.00">PostUpdate</text>
</a>
</g>
</g>
<g id="clust12" class="cluster">
<title>clusternode_Set(20)</title>
<g id="a_clust12"><a xlink:title="TransformPropagate">
<path fill="#000000" fill-opacity="0.031373" stroke="#000000" stroke-width="2" stroke-opacity="0.250980" d="M1084,-118C1084,-118 1212,-118 1212,-118 1218,-118 1224,-124 1224,-130 1224,-130 1224,-145 1224,-145 1224,-151 1218,-157 1212,-157 1212,-157 1084,-157 1084,-157 1078,-157 1072,-151 1072,-145 1072,-145 1072,-130 1072,-130 1072,-124 1078,-118 1084,-118"/>
<text text-anchor="middle" x="1148" y="-141.8" font-family="Helvetica,sans-Serif" font-size="14.00">TransformPropagate</text>
</a>
</g>
</g>
<g id="clust13" class="cluster">
<title>clusternode_Set(12)</title>
<g id="a_clust13"><a xlink:title="Last">
<path fill="#000000" fill-opacity="0.031373" stroke="#000000" stroke-width="2" stroke-opacity="0.250980" d="M1256,-31C1256,-31 1276,-31 1276,-31 1282,-31 1288,-37 1288,-43 1288,-43 1288,-58 1288,-58 1288,-64 1282,-70 1276,-70 1276,-70 1256,-70 1256,-70 1250,-70 1244,-64 1244,-58 1244,-58 1244,-43 1244,-43 1244,-37 1250,-31 1256,-31"/>
<text text-anchor="middle" x="1266" y="-54.8" font-family="Helvetica,sans-Serif" font-size="14.00">Last</text>
</a>
</g>
</g>
<g id="clust14" class="cluster">
<title>clusternode_Set(59)</title>
<g id="a_clust14"><a xlink:title="LoadAssets">
<path fill="#000000" fill-opacity="0.031373" stroke="#000000" stroke-width="2" stroke-opacity="0.250980" d="M78,-78C78,-78 145,-78 145,-78 151,-78 157,-84 157,-90 157,-90 157,-105 157,-105 157,-111 151,-117 145,-117 145,-117 78,-117 78,-117 72,-117 66,-111 66,-105 66,-105 66,-90 66,-90 66,-84 72,-78 78,-78"/>
<text text-anchor="middle" x="111.5" y="-101.8" font-family="Helvetica,sans-Serif" font-size="14.00">LoadAssets</text>
</a>
</g>
</g>
<g id="clust15" class="cluster">
<title>clusternode_Set(60)</title>
<g id="a_clust15"><a xlink:title="AssetEvents">
<path fill="#000000" fill-opacity="0.031373" stroke="#000000" stroke-width="2" stroke-opacity="0.250980" d="M1112,-8C1112,-8 1184,-8 1184,-8 1190,-8 1196,-14 1196,-20 1196,-20 1196,-35 1196,-35 1196,-41 1190,-47 1184,-47 1184,-47 1112,-47 1112,-47 1106,-47 1100,-41 1100,-35 1100,-35 1100,-20 1100,-20 1100,-14 1106,-8 1112,-8"/>
<text text-anchor="middle" x="1148" y="-31.8" font-family="Helvetica,sans-Serif" font-size="14.00">AssetEvents</text>
</a>
</g>
</g>
<!-- set_marker_node_Set(0) -->
<!-- set_marker_node_Set(4) -->
<!-- set_marker_node_Set(0)&#45;&gt;set_marker_node_Set(4) -->
<g id="edge7" class="edge">
<title>set_marker_node_Set(0)&#45;&gt;set_marker_node_Set(4)</title>
<g id="a_edge7"><a xlink:title="Update → UpdateFlush">
<path fill="none" stroke="#ee9e44" stroke-width="2" d="M756,-110C758.35,-110 760.77,-110 763.22,-110"/>
<polygon fill="#ee9e44" stroke="#ee9e44" stroke-width="2" points="762.97,-113.5 772.97,-110 762.97,-106.5 762.97,-113.5"/>
</a>
</g>
</g>
<!-- set_marker_node_Set(2) -->
<!-- set_marker_node_Set(8) -->
<!-- set_marker_node_Set(2)&#45;&gt;set_marker_node_Set(8) -->
<g id="edge2" class="edge">
<title>set_marker_node_Set(2)&#45;&gt;set_marker_node_Set(8)</title>
<g id="a_edge2"><a xlink:title="FirstFlush → PreUpdate">
<path fill="none" stroke="#881877" stroke-width="2" d="M149.2,-125C154.17,-123.94 159.34,-122.82 164.52,-121.71"/>
<polygon fill="#881877" stroke="#881877" stroke-width="2" points="165,-125.19 174.04,-119.66 163.53,-118.34 165,-125.19"/>
</a>
</g>
</g>
<!-- set_marker_node_Set(3) -->
<!-- set_marker_node_Set(9) -->
<!-- set_marker_node_Set(3)&#45;&gt;set_marker_node_Set(9) -->
<g id="edge4" class="edge">
<title>set_marker_node_Set(3)&#45;&gt;set_marker_node_Set(9)</title>
<g id="a_edge4"><a xlink:title="PreUpdateFlush → StateTransitions">
<path fill="none" stroke="#aa3a55" stroke-width="2" d="M407,-110C409.39,-110 411.8,-110 414.21,-110"/>
<polygon fill="#aa3a55" stroke="#aa3a55" stroke-width="2" points="413.98,-113.5 423.98,-110 413.98,-106.5 413.98,-113.5"/>
</a>
</g>
</g>
<!-- set_marker_node_Set(11) -->
<!-- set_marker_node_Set(4)&#45;&gt;set_marker_node_Set(11) -->
<g id="edge8" class="edge">
<title>set_marker_node_Set(4)&#45;&gt;set_marker_node_Set(11)</title>
<g id="a_edge8"><a xlink:title="UpdateFlush → PostUpdate">
<path fill="none" stroke="#663699" stroke-width="2" d="M877,-110C879.4,-110 881.84,-110 884.3,-110"/>
<polygon fill="#663699" stroke="#663699" stroke-width="2" points="883.98,-113.5 893.98,-110 883.98,-106.5 883.98,-113.5"/>
</a>
</g>
</g>
<!-- set_marker_node_Set(5) -->
<!-- set_marker_node_Set(12) -->
<!-- set_marker_node_Set(5)&#45;&gt;set_marker_node_Set(12) -->
<g id="edge10" class="edge">
<title>set_marker_node_Set(5)&#45;&gt;set_marker_node_Set(12)</title>
<g id="a_edge10"><a xlink:title="PostUpdateFlush → Last">
<path fill="none" stroke="#22c2bb" stroke-width="2" d="M1200.55,-55C1210.17,-53.23 1220.59,-51.15 1231.35,-48.75"/>
<polygon fill="#22c2bb" stroke="#22c2bb" stroke-width="2" points="1232.11,-52.16 1241.05,-46.49 1230.52,-45.35 1232.11,-52.16"/>
</a>
</g>
</g>
<!-- set_marker_node_Set(6) -->
<!-- set_marker_node_Set(7) -->
<!-- set_marker_node_Set(7)&#45;&gt;set_marker_node_Set(2) -->
<g id="edge1" class="edge">
<title>set_marker_node_Set(7)&#45;&gt;set_marker_node_Set(2)</title>
<g id="a_edge1"><a xlink:title="First → FirstFlush">
<path fill="none" stroke="#eede00" stroke-width="2" d="M46,-115.14C53.02,-117.1 61.02,-119.33 68.95,-121.54"/>
<polygon fill="#eede00" stroke="#eede00" stroke-width="2" points="67.85,-124.87 78.43,-124.19 69.74,-118.13 67.85,-124.87"/>
</a>
</g>
</g>
<!-- set_marker_node_Set(59) -->
<!-- set_marker_node_Set(7)&#45;&gt;set_marker_node_Set(59) -->
<g id="edge13" class="edge">
<title>set_marker_node_Set(7)&#45;&gt;set_marker_node_Set(59)</title>
<g id="a_edge13"><a xlink:title="First → LoadAssets">
<path fill="none" stroke="#881877" stroke-width="2" d="M46,-103.12C48.46,-102.46 51.05,-101.77 53.71,-101.05"/>
<polygon fill="#881877" stroke="#881877" stroke-width="2" points="54.32,-104.51 63.08,-98.55 52.51,-97.75 54.32,-104.51"/>
</a>
</g>
</g>
<!-- set_marker_node_Set(8)&#45;&gt;set_marker_node_Set(3) -->
<g id="edge3" class="edge">
<title>set_marker_node_Set(8)&#45;&gt;set_marker_node_Set(3)</title>
<g id="a_edge3"><a xlink:title="PreUpdate → PreUpdateFlush">
<path fill="none" stroke="#00b0cc" stroke-width="2" d="M264,-110C266.39,-110 268.82,-110 271.28,-110"/>
<polygon fill="#00b0cc" stroke="#00b0cc" stroke-width="2" points="270.98,-113.5 280.98,-110 270.98,-106.5 270.98,-113.5"/>
</a>
</g>
</g>
<!-- set_marker_node_Set(10) -->
<!-- set_marker_node_Set(9)&#45;&gt;set_marker_node_Set(10) -->
<g id="edge5" class="edge">
<title>set_marker_node_Set(9)&#45;&gt;set_marker_node_Set(10)</title>
<g id="a_edge5"><a xlink:title="StateTransitions → FixedUpdate">
<path fill="none" stroke="#44d488" stroke-width="2" d="M551,-110C553.39,-110 555.79,-110 558.19,-110"/>
<polygon fill="#44d488" stroke="#44d488" stroke-width="2" points="557.98,-113.5 567.98,-110 557.98,-106.5 557.98,-113.5"/>
</a>
</g>
</g>
<!-- set_marker_node_Set(10)&#45;&gt;set_marker_node_Set(0) -->
<g id="edge6" class="edge">
<title>set_marker_node_Set(10)&#45;&gt;set_marker_node_Set(0)</title>
<g id="a_edge6"><a xlink:title="FixedUpdate → Update">
<path fill="none" stroke="#0090cc" stroke-width="2" d="M671,-110C673.37,-110 675.75,-110 678.11,-110"/>
<polygon fill="#0090cc" stroke="#0090cc" stroke-width="2" points="677.98,-113.5 687.98,-110 677.98,-106.5 677.98,-113.5"/>
</a>
</g>
</g>
<!-- set_marker_node_Set(11)&#45;&gt;set_marker_node_Set(5) -->
<g id="edge9" class="edge">
<title>set_marker_node_Set(11)&#45;&gt;set_marker_node_Set(5)</title>
<g id="a_edge9"><a xlink:title="PostUpdate → PostUpdateFlush">
<path fill="none" stroke="#3363bb" stroke-width="2" d="M1001.36,-102C1020.66,-96.83 1046.72,-89.86 1071.46,-83.23"/>
<polygon fill="#3363bb" stroke="#3363bb" stroke-width="2" points="1072.33,-86.62 1081.08,-80.65 1070.52,-79.86 1072.33,-86.62"/>
</a>
</g>
</g>
<!-- set_marker_node_Set(60) -->
<!-- set_marker_node_Set(11)&#45;&gt;set_marker_node_Set(60) -->
<g id="edge14" class="edge">
<title>set_marker_node_Set(11)&#45;&gt;set_marker_node_Set(60)</title>
<g id="a_edge14"><a xlink:title="PostUpdate → AssetEvents">
<path fill="none" stroke="#00b0cc" stroke-width="2" d="M985.02,-102C1004.19,-90.74 1040.45,-69.71 1072,-53 1077.34,-50.17 1082.92,-47.29 1088.53,-44.44"/>
<polygon fill="#00b0cc" stroke="#00b0cc" stroke-width="2" points="1089.93,-47.65 1097.3,-40.03 1086.79,-41.39 1089.93,-47.65"/>
</a>
</g>
</g>
<!-- set_marker_node_Set(20) -->
<!-- node_System(147) -->
<g id="node13" class="node">
<title>node_System(147)</title>
<g id="a_node13"><a xlink:title="bevy_animation::animation_player">
<polygon fill="#ffbdb9" stroke="#ff5c53" points="1036,-157 905,-157 905,-121 1036,-121 1036,-157"/>
<text text-anchor="middle" x="970.5" y="-135.3" font-family="Helvetica,sans-Serif" font-size="14.00" fill="#320200">animation_player</text>
</a>
</g>
</g>
<!-- node_System(147)&#45;&gt;set_marker_node_Set(20) -->
<g id="edge16" class="edge">
<title>node_System(147)&#45;&gt;set_marker_node_Set(20)</title>
<g id="a_edge16"><a xlink:title="animation_player → TransformPropagate">
<path fill="none" stroke="#44d488" stroke-width="2" d="M1036.35,-134.2C1043.79,-133.65 1051.46,-133.08 1059.13,-132.51"/>
<polygon fill="#44d488" stroke="#44d488" stroke-width="2" points="1059.27,-136.01 1068.98,-131.78 1058.75,-129.03 1059.27,-136.01"/>
</a>
</g>
</g>
<!-- set_marker_node_Set(12)&#45;&gt;set_marker_node_Set(6) -->
<g id="edge11" class="edge">
<title>set_marker_node_Set(12)&#45;&gt;set_marker_node_Set(6)</title>
<g id="a_edge11"><a xlink:title="Last → LastFlush">
<path fill="none" stroke="#99d955" stroke-width="2" d="M1288,-39C1290.31,-39 1292.74,-39 1295.23,-39"/>
<polygon fill="#99d955" stroke="#99d955" stroke-width="2" points="1294.98,-42.5 1304.98,-39 1294.98,-35.5 1294.98,-42.5"/>
</a>
</g>
</g>
<!-- set_marker_node_Set(59)&#45;&gt;set_marker_node_Set(8) -->
<g id="edge12" class="edge">
<title>set_marker_node_Set(59)&#45;&gt;set_marker_node_Set(8)</title>
<g id="a_edge12"><a xlink:title="LoadAssets → PreUpdate">
<path fill="none" stroke="#eede00" stroke-width="2" d="M157,-96.09C161.6,-97.12 166.28,-98.18 170.91,-99.21"/>
<polygon fill="#eede00" stroke="#eede00" stroke-width="2" points="169.87,-102.57 180.39,-101.34 171.4,-95.74 169.87,-102.57"/>
</a>
</g>
</g>
<!-- set_marker_node_Set(60)&#45;&gt;set_marker_node_Set(12) -->
<g id="edge15" class="edge">
<title>set_marker_node_Set(60)&#45;&gt;set_marker_node_Set(12)</title>
<g id="a_edge15"><a xlink:title="AssetEvents → Last">
<path fill="none" stroke="#aa3a55" stroke-width="2" d="M1196,-25.32C1207.9,-27.68 1220.45,-30.17 1231.53,-32.36"/>
<polygon fill="#aa3a55" stroke="#aa3a55" stroke-width="2" points="1230.54,-35.74 1241.03,-34.25 1231.91,-28.87 1230.54,-35.74"/>
</a>
</g>
</g>
</g>
</svg>
