<?xml version="1.0" encoding="UTF-8" standalone="no"?>
<!DOCTYPE svg PUBLIC "-//W3C//DTD SVG 1.1//EN"
 "http://www.w3.org/Graphics/SVG/1.1/DTD/svg11.dtd">
<!-- Generated by graphviz version 7.1.0 (0)
 -->
<!-- Pages: 1 -->
<svg width="1614pt" height="152pt"
 viewBox="0.00 0.00 1614.00 152.00" xmlns="http://www.w3.org/2000/svg" xmlns:xlink="http://www.w3.org/1999/xlink">
<g id="graph0" class="graph" transform="scale(1 1) rotate(0) translate(4 148)">
<polygon fill="white" stroke="none" points="-4,4 -4,-148 1610,-148 1610,4 -4,4"/>
<g id="clust1" class="cluster">
<title>clusternode_Set(0)</title>
<g id="a_clust1"><a xlink:title="Update">
<polygon fill="white" stroke="black" points="872,-8 872,-101 1059,-101 1059,-8 872,-8"/>
<text text-anchor="middle" x="965.5" y="-85.8" font-family="Helvetica,sans-Serif" font-size="14.00">Update</text>
</a>
</g>
</g>
<g id="clust2" class="cluster">
<title>clusternode_Set(2)</title>
<g id="a_clust2"><a xlink:title="FirstFlush">
<polygon fill="white" stroke="black" points="204,-65 204,-104 286,-104 286,-65 204,-65"/>
<text text-anchor="middle" x="245" y="-88.8" font-family="Helvetica,sans-Serif" font-size="14.00">FirstFlush</text>
</a>
</g>
</g>
<g id="clust3" class="cluster">
<title>clusternode_Set(3)</title>
<g id="a_clust3"><a xlink:title="PreUpdateFlush">
<polygon fill="white" stroke="black" points="465,-62 465,-101 588,-101 588,-62 465,-62"/>
<text text-anchor="middle" x="526.5" y="-85.8" font-family="Helvetica,sans-Serif" font-size="14.00">PreUpdateFlush</text>
</a>
</g>
</g>
<g id="clust4" class="cluster">
<title>clusternode_Set(4)</title>
<g id="a_clust4"><a xlink:title="UpdateFlush">
<polygon fill="white" stroke="black" points="1079,-62 1079,-101 1180,-101 1180,-62 1079,-62"/>
<text text-anchor="middle" x="1129.5" y="-85.8" font-family="Helvetica,sans-Serif" font-size="14.00">UpdateFlush</text>
</a>
</g>
</g>
<g id="clust5" class="cluster">
<title>clusternode_Set(5)</title>
<g id="a_clust5"><a xlink:title="PostUpdateFlush">
<polygon fill="white" stroke="black" points="1313,-97 1313,-136 1442,-136 1442,-97 1313,-97"/>
<text text-anchor="middle" x="1377.5" y="-120.8" font-family="Helvetica,sans-Serif" font-size="14.00">PostUpdateFlush</text>
</a>
</g>
</g>
<g id="clust6" class="cluster">
<title>clusternode_Set(6)</title>
<g id="a_clust6"><a xlink:title="LastFlush">
<polygon fill="white" stroke="black" points="1526,-73 1526,-112 1606,-112 1606,-73 1526,-73"/>
<text text-anchor="middle" x="1566" y="-96.8" font-family="Helvetica,sans-Serif" font-size="14.00">LastFlush</text>
</a>
</g>
</g>
<g id="clust7" class="cluster">
<title>clusternode_Set(7)</title>
<g id="a_clust7"><a xlink:title="First">
<polygon fill="white" stroke="black" points="67,-24 67,-63 113,-63 113,-24 67,-24"/>
<text text-anchor="middle" x="90" y="-47.8" font-family="Helvetica,sans-Serif" font-size="14.00">First</text>
</a>
</g>
</g>
<g id="clust8" class="cluster">
<title>clusternode_Set(8)</title>
<g id="a_clust8"><a xlink:title="PreUpdate">
<polygon fill="white" stroke="black" points="311,-8 311,-101 445,-101 445,-8 311,-8"/>
<text text-anchor="middle" x="378" y="-85.8" font-family="Helvetica,sans-Serif" font-size="14.00">PreUpdate</text>
</a>
</g>
</g>
<g id="clust9" class="cluster">
<title>clusternode_Set(9)</title>
<g id="a_clust9"><a xlink:title="StateTransitions">
<polygon fill="white" stroke="black" points="608,-62 608,-101 732,-101 732,-62 608,-62"/>
<text text-anchor="middle" x="670" y="-85.8" font-family="Helvetica,sans-Serif" font-size="14.00">StateTransitions</text>
</a>
</g>
</g>
<g id="clust10" class="cluster">
<title>clusternode_Set(10)</title>
<g id="a_clust10"><a xlink:title="FixedUpdate">
<polygon fill="white" stroke="black" points="752,-62 752,-101 852,-101 852,-62 752,-62"/>
<text text-anchor="middle" x="802" y="-85.8" font-family="Helvetica,sans-Serif" font-size="14.00">FixedUpdate</text>
</a>
</g>
</g>
<g id="clust11" class="cluster">
<title>clusternode_Set(11)</title>
<g id="a_clust11"><a xlink:title="PostUpdate">
<polygon fill="white" stroke="black" points="1200,-62 1200,-101 1293,-101 1293,-62 1200,-62"/>
<text text-anchor="middle" x="1246.5" y="-85.8" font-family="Helvetica,sans-Serif" font-size="14.00">PostUpdate</text>
</a>
</g>
</g>
<g id="clust12" class="cluster">
<title>clusternode_Set(12)</title>
<g id="a_clust12"><a xlink:title="Last">
<polygon fill="white" stroke="black" points="1462,-73 1462,-112 1506,-112 1506,-73 1462,-73"/>
<text text-anchor="middle" x="1484" y="-96.8" font-family="Helvetica,sans-Serif" font-size="14.00">Last</text>
</a>
</g>
</g>
<g id="clust13" class="cluster">
<title>clusternode_Set(22)</title>
<g id="a_clust13"><a xlink:title="PropagateTransformsSet">
<polygon fill="white" stroke="black" points="0,-94 0,-133 180,-133 180,-94 0,-94"/>
<text text-anchor="middle" x="90" y="-117.8" font-family="Helvetica,sans-Serif" font-size="14.00">PropagateTransformsSet</text>
</a>
</g>
</g>
<g id="clust14" class="cluster">
<title>clusternode_Set(59)</title>
<g id="a_clust14"><a xlink:title="LoadAssets">
<polygon fill="white" stroke="black" points="200,-18 200,-57 291,-57 291,-18 200,-18"/>
<text text-anchor="middle" x="245.5" y="-41.8" font-family="Helvetica,sans-Serif" font-size="14.00">LoadAssets</text>
</a>
</g>
</g>
<g id="clust15" class="cluster">
<title>clusternode_Set(60)</title>
<g id="a_clust15"><a xlink:title="AssetEvents">
<polygon fill="white" stroke="black" points="1329,-50 1329,-89 1425,-89 1425,-50 1329,-50"/>
<text text-anchor="middle" x="1377" y="-73.8" font-family="Helvetica,sans-Serif" font-size="14.00">AssetEvents</text>
</a>
</g>
</g>
<!-- set_marker_node_Set(0) -->
<!-- set_marker_node_Set(4) -->
<!-- set_marker_node_Set(0)&#45;&gt;set_marker_node_Set(4) -->
<g id="edge7" class="edge">
<title>set_marker_node_Set(0)&#45;&gt;set_marker_node_Set(4)</title>
<g id="a_edge7"><a xlink:title="Update → UpdateFlush">
<path fill="none" stroke="#ee9e44" stroke-width="2" d="M1059,-70C1061.4,-70 1063.8,-70 1066.16,-70"/>
<polygon fill="#ee9e44" stroke="#ee9e44" stroke-width="2" points="1065.98,-73.5 1075.98,-70 1065.98,-66.5 1065.98,-73.5"/>
</a>
</g>
</g>
<!-- node_System(55) -->
<g id="node2" class="node">
<title>node_System(55)</title>
<g id="a_node2"><a xlink:title="bevy_scene::scene_spawner::scene_spawner_system">
<polygon fill="white" stroke="black" points="1051,-52 880,-52 880,-16 1051,-16 1051,-52"/>
<text text-anchor="middle" x="965.5" y="-30.3" font-family="Times,serif" font-size="14.00">scene_spawner_system</text>
</a>
</g>
</g>
<!-- set_marker_node_Set(2) -->
<!-- set_marker_node_Set(8) -->
<!-- set_marker_node_Set(2)&#45;&gt;set_marker_node_Set(8) -->
<g id="edge2" class="edge">
<title>set_marker_node_Set(2)&#45;&gt;set_marker_node_Set(8)</title>
<g id="a_edge2"><a xlink:title="FirstFlush → PreUpdate">
<path fill="none" stroke="#881877" stroke-width="2" d="M286,-72.08C289.92,-71.99 293.99,-71.9 298.14,-71.81"/>
<polygon fill="#881877" stroke="#881877" stroke-width="2" points="298.06,-75.31 307.97,-71.58 297.9,-68.31 298.06,-75.31"/>
</a>
</g>
</g>
<!-- set_marker_node_Set(3) -->
<!-- set_marker_node_Set(9) -->
<!-- set_marker_node_Set(3)&#45;&gt;set_marker_node_Set(9) -->
<g id="edge4" class="edge">
<title>set_marker_node_Set(3)&#45;&gt;set_marker_node_Set(9)</title>
<g id="a_edge4"><a xlink:title="PreUpdateFlush → StateTransitions">
<path fill="none" stroke="#aa3a55" stroke-width="2" d="M588,-70C590.39,-70 592.8,-70 595.21,-70"/>
<polygon fill="#aa3a55" stroke="#aa3a55" stroke-width="2" points="594.98,-73.5 604.98,-70 594.98,-66.5 594.98,-73.5"/>
</a>
</g>
</g>
<!-- set_marker_node_Set(11) -->
<!-- set_marker_node_Set(4)&#45;&gt;set_marker_node_Set(11) -->
<g id="edge8" class="edge">
<title>set_marker_node_Set(4)&#45;&gt;set_marker_node_Set(11)</title>
<g id="a_edge8"><a xlink:title="UpdateFlush → PostUpdate">
<path fill="none" stroke="#663699" stroke-width="2" d="M1180,-70C1182.43,-70 1184.88,-70 1187.32,-70"/>
<polygon fill="#663699" stroke="#663699" stroke-width="2" points="1186.98,-73.5 1196.98,-70 1186.98,-66.5 1186.98,-73.5"/>
</a>
</g>
</g>
<!-- set_marker_node_Set(5) -->
<!-- set_marker_node_Set(12) -->
<!-- set_marker_node_Set(5)&#45;&gt;set_marker_node_Set(12) -->
<g id="edge10" class="edge">
<title>set_marker_node_Set(5)&#45;&gt;set_marker_node_Set(12)</title>
<g id="a_edge10"><a xlink:title="PostUpdateFlush → Last">
<path fill="none" stroke="#22c2bb" stroke-width="2" d="M1423.71,-97C1429.88,-95.76 1436.11,-94.41 1442,-93 1444.46,-92.41 1446.99,-91.77 1449.52,-91.09"/>
<polygon fill="#22c2bb" stroke="#22c2bb" stroke-width="2" points="1450.41,-94.48 1459.09,-88.4 1448.51,-87.74 1450.41,-94.48"/>
</a>
</g>
</g>
<!-- set_marker_node_Set(6) -->
<!-- set_marker_node_Set(7) -->
<!-- set_marker_node_Set(7)&#45;&gt;set_marker_node_Set(2) -->
<g id="edge1" class="edge">
<title>set_marker_node_Set(7)&#45;&gt;set_marker_node_Set(2)</title>
<g id="a_edge1"><a xlink:title="First → FirstFlush">
<path fill="none" stroke="#eede00" stroke-width="2" d="M113,-37.89C136.09,-44.08 172.96,-53.96 201.71,-61.67"/>
<polygon fill="#eede00" stroke="#eede00" stroke-width="2" points="200.67,-65.01 211.23,-64.22 202.48,-58.25 200.67,-65.01"/>
</a>
</g>
</g>
<!-- set_marker_node_Set(59) -->
<!-- set_marker_node_Set(7)&#45;&gt;set_marker_node_Set(59) -->
<g id="edge13" class="edge">
<title>set_marker_node_Set(7)&#45;&gt;set_marker_node_Set(59)</title>
<g id="a_edge13"><a xlink:title="First → LoadAssets">
<path fill="none" stroke="#881877" stroke-width="2" d="M113,-31.14C132.35,-30.38 161.38,-29.24 187.19,-28.23"/>
<polygon fill="#881877" stroke="#881877" stroke-width="2" points="187.12,-31.73 196.98,-27.84 186.85,-24.74 187.12,-31.73"/>
</a>
</g>
</g>
<!-- set_marker_node_Set(8)&#45;&gt;set_marker_node_Set(3) -->
<g id="edge3" class="edge">
<title>set_marker_node_Set(8)&#45;&gt;set_marker_node_Set(3)</title>
<g id="a_edge3"><a xlink:title="PreUpdate → PreUpdateFlush">
<path fill="none" stroke="#00b0cc" stroke-width="2" d="M445,-70C447.34,-70 449.68,-70 452.03,-70"/>
<polygon fill="#00b0cc" stroke="#00b0cc" stroke-width="2" points="451.98,-73.5 461.98,-70 451.98,-66.5 451.98,-73.5"/>
</a>
</g>
</g>
<!-- node_System(56) -->
<g id="node10" class="node">
<title>node_System(56)</title>
<g id="a_node10"><a xlink:title="bevy_scene::bundle::scene_spawner">
<polygon fill="white" stroke="black" points="437,-52 319,-52 319,-16 437,-16 437,-52"/>
<text text-anchor="middle" x="378" y="-30.3" font-family="Times,serif" font-size="14.00">scene_spawner</text>
</a>
</g>
</g>
<!-- set_marker_node_Set(10) -->
<!-- set_marker_node_Set(9)&#45;&gt;set_marker_node_Set(10) -->
<g id="edge5" class="edge">
<title>set_marker_node_Set(9)&#45;&gt;set_marker_node_Set(10)</title>
<g id="a_edge5"><a xlink:title="StateTransitions → FixedUpdate">
<path fill="none" stroke="#44d488" stroke-width="2" d="M732,-70C734.39,-70 736.79,-70 739.19,-70"/>
<polygon fill="#44d488" stroke="#44d488" stroke-width="2" points="738.98,-73.5 748.98,-70 738.98,-66.5 738.98,-73.5"/>
</a>
</g>
</g>
<!-- set_marker_node_Set(10)&#45;&gt;set_marker_node_Set(0) -->
<g id="edge6" class="edge">
<title>set_marker_node_Set(10)&#45;&gt;set_marker_node_Set(0)</title>
<g id="a_edge6"><a xlink:title="FixedUpdate → Update">
<path fill="none" stroke="#0090cc" stroke-width="2" d="M852,-70C854.33,-70 856.71,-70 859.13,-70"/>
<polygon fill="#0090cc" stroke="#0090cc" stroke-width="2" points="858.98,-73.5 868.98,-70 858.98,-66.5 858.98,-73.5"/>
</a>
</g>
</g>
<!-- set_marker_node_Set(11)&#45;&gt;set_marker_node_Set(5) -->
<g id="edge9" class="edge">
<title>set_marker_node_Set(11)&#45;&gt;set_marker_node_Set(5)</title>
<g id="a_edge9"><a xlink:title="PostUpdate → PostUpdateFlush">
<path fill="none" stroke="#3363bb" stroke-width="2" d="M1293,-86.99C1299.66,-89.17 1306.47,-91.25 1313,-93 1314.35,-93.36 1315.71,-93.72 1317.09,-94.06"/>
<polygon fill="#3363bb" stroke="#3363bb" stroke-width="2" points="1316.27,-97.47 1326.81,-96.32 1317.86,-90.65 1316.27,-97.47"/>
</a>
</g>
</g>
<!-- set_marker_node_Set(60) -->
<!-- set_marker_node_Set(11)&#45;&gt;set_marker_node_Set(60) -->
<g id="edge14" class="edge">
<title>set_marker_node_Set(11)&#45;&gt;set_marker_node_Set(60)</title>
<g id="a_edge14"><a xlink:title="PostUpdate → AssetEvents">
<path fill="none" stroke="#00b0cc" stroke-width="2" d="M1293,-65.72C1300.5,-65.02 1308.36,-64.29 1316.14,-63.57"/>
<polygon fill="#00b0cc" stroke="#00b0cc" stroke-width="2" points="1316.36,-67.06 1325.99,-62.65 1315.71,-60.09 1316.36,-67.06"/>
</a>
</g>
</g>
<!-- set_marker_node_Set(12)&#45;&gt;set_marker_node_Set(6) -->
<g id="edge11" class="edge">
<title>set_marker_node_Set(12)&#45;&gt;set_marker_node_Set(6)</title>
<g id="a_edge11"><a xlink:title="Last → LastFlush">
<path fill="none" stroke="#99d955" stroke-width="2" d="M1506,-81C1508.31,-81 1510.74,-81 1513.23,-81"/>
<polygon fill="#99d955" stroke="#99d955" stroke-width="2" points="1512.98,-84.5 1522.98,-81 1512.98,-77.5 1512.98,-84.5"/>
</a>
</g>
</g>
<!-- set_marker_node_Set(22) -->
<!-- set_marker_node_Set(59)&#45;&gt;set_marker_node_Set(8) -->
<g id="edge12" class="edge">
<title>set_marker_node_Set(59)&#45;&gt;set_marker_node_Set(8)</title>
<g id="a_edge12"><a xlink:title="LoadAssets → PreUpdate">
<path fill="none" stroke="#eede00" stroke-width="2" d="M291,-52.86C293.6,-54.11 296.25,-55.31 298.91,-56.43"/>
<polygon fill="#eede00" stroke="#eede00" stroke-width="2" points="297.58,-59.67 308.17,-59.93 300.05,-53.12 297.58,-59.67"/>
</a>
</g>
</g>
<!-- set_marker_node_Set(60)&#45;&gt;set_marker_node_Set(12) -->
<g id="edge15" class="edge">
<title>set_marker_node_Set(60)&#45;&gt;set_marker_node_Set(12)</title>
<g id="a_edge15"><a xlink:title="AssetEvents → Last">
<path fill="none" stroke="#aa3a55" stroke-width="2" d="M1425,-68.29C1433.25,-70.1 1441.69,-71.95 1449.48,-73.66"/>
<polygon fill="#aa3a55" stroke="#aa3a55" stroke-width="2" points="1448.53,-77.03 1459.04,-75.75 1450.02,-70.19 1448.53,-77.03"/>
</a>
</g>
</g>
</g>
</svg>
