<?xml version="1.0" encoding="UTF-8" standalone="no"?>
<!DOCTYPE svg PUBLIC "-//W3C//DTD SVG 1.1//EN"
 "http://www.w3.org/Graphics/SVG/1.1/DTD/svg11.dtd">
<!-- Generated by graphviz version 7.1.0 (0)
 -->
<!-- Pages: 1 -->
<svg width="1410pt" height="280pt"
 viewBox="0.00 0.00 1410.00 280.00" xmlns="http://www.w3.org/2000/svg" xmlns:xlink="http://www.w3.org/1999/xlink">
<g id="graph0" class="graph" transform="scale(1 1) rotate(0) translate(4 276)">
<polygon fill="white" stroke="none" points="-4,4 -4,-276 1406,-276 1406,4 -4,4"/>
<g id="clust1" class="cluster">
<title>clusternode_Set(0)</title>
<g id="a_clust1"><a xlink:title="Update">
<path fill="#000000" fill-opacity="0.031373" stroke="#000000" stroke-width="2" stroke-opacity="0.250980" d="M703,-37C703,-37 744,-37 744,-37 750,-37 756,-43 756,-49 756,-49 756,-64 756,-64 756,-70 750,-76 744,-76 744,-76 703,-76 703,-76 697,-76 691,-70 691,-64 691,-64 691,-49 691,-49 691,-43 697,-37 703,-37"/>
<text text-anchor="middle" x="723.5" y="-60.8" font-family="Helvetica,sans-Serif" font-size="14.00">Update</text>
</a>
</g>
</g>
<g id="clust2" class="cluster">
<title>clusternode_Set(2)</title>
<g id="a_clust2"><a xlink:title="FirstFlush">
<path fill="#000000" fill-opacity="0.031373" stroke="#000000" stroke-width="2" stroke-opacity="0.250980" d="M82,-55C82,-55 140,-55 140,-55 146,-55 152,-61 152,-67 152,-67 152,-82 152,-82 152,-88 146,-94 140,-94 140,-94 82,-94 82,-94 76,-94 70,-88 70,-82 70,-82 70,-67 70,-67 70,-61 76,-55 82,-55"/>
<text text-anchor="middle" x="111" y="-78.8" font-family="Helvetica,sans-Serif" font-size="14.00">FirstFlush</text>
</a>
</g>
</g>
<g id="clust3" class="cluster">
<title>clusternode_Set(3)</title>
<g id="a_clust3"><a xlink:title="PreUpdateFlush">
<path fill="#000000" fill-opacity="0.031373" stroke="#000000" stroke-width="2" stroke-opacity="0.250980" d="M296,-37C296,-37 395,-37 395,-37 401,-37 407,-43 407,-49 407,-49 407,-64 407,-64 407,-70 401,-76 395,-76 395,-76 296,-76 296,-76 290,-76 284,-70 284,-64 284,-64 284,-49 284,-49 284,-43 290,-37 296,-37"/>
<text text-anchor="middle" x="345.5" y="-60.8" font-family="Helvetica,sans-Serif" font-size="14.00">PreUpdateFlush</text>
</a>
</g>
</g>
<g id="clust4" class="cluster">
<title>clusternode_Set(4)</title>
<g id="a_clust4"><a xlink:title="UpdateFlush">
<path fill="#000000" fill-opacity="0.031373" stroke="#000000" stroke-width="2" stroke-opacity="0.250980" d="M788,-37C788,-37 865,-37 865,-37 871,-37 877,-43 877,-49 877,-49 877,-64 877,-64 877,-70 871,-76 865,-76 865,-76 788,-76 788,-76 782,-76 776,-70 776,-64 776,-64 776,-49 776,-49 776,-43 782,-37 788,-37"/>
<text text-anchor="middle" x="826.5" y="-60.8" font-family="Helvetica,sans-Serif" font-size="14.00">UpdateFlush</text>
</a>
</g>
</g>
<g id="clust5" class="cluster">
<title>clusternode_Set(5)</title>
<g id="a_clust5"><a xlink:title="PostUpdateFlush">
<path fill="#000000" fill-opacity="0.031373" stroke="#000000" stroke-width="2" stroke-opacity="0.250980" d="M1121,-66C1121,-66 1226,-66 1226,-66 1232,-66 1238,-72 1238,-78 1238,-78 1238,-93 1238,-93 1238,-99 1232,-105 1226,-105 1226,-105 1121,-105 1121,-105 1115,-105 1109,-99 1109,-93 1109,-93 1109,-78 1109,-78 1109,-72 1115,-66 1121,-66"/>
<text text-anchor="middle" x="1173.5" y="-89.8" font-family="Helvetica,sans-Serif" font-size="14.00">PostUpdateFlush</text>
</a>
</g>
</g>
<g id="clust6" class="cluster">
<title>clusternode_Set(6)</title>
<g id="a_clust6"><a xlink:title="LastFlush">
<path fill="#000000" fill-opacity="0.031373" stroke="#000000" stroke-width="2" stroke-opacity="0.250980" d="M1334,-31C1334,-31 1390,-31 1390,-31 1396,-31 1402,-37 1402,-43 1402,-43 1402,-58 1402,-58 1402,-64 1396,-70 1390,-70 1390,-70 1334,-70 1334,-70 1328,-70 1322,-64 1322,-58 1322,-58 1322,-43 1322,-43 1322,-37 1328,-31 1334,-31"/>
<text text-anchor="middle" x="1362" y="-54.8" font-family="Helvetica,sans-Serif" font-size="14.00">LastFlush</text>
</a>
</g>
</g>
<g id="clust7" class="cluster">
<title>clusternode_Set(7)</title>
<g id="a_clust7"><a xlink:title="First">
<path fill="#000000" fill-opacity="0.031373" stroke="#000000" stroke-width="2" stroke-opacity="0.250980" d="M12,-31C12,-31 34,-31 34,-31 40,-31 46,-37 46,-43 46,-43 46,-58 46,-58 46,-64 40,-70 34,-70 34,-70 12,-70 12,-70 6,-70 0,-64 0,-58 0,-58 0,-43 0,-43 0,-37 6,-31 12,-31"/>
<text text-anchor="middle" x="23" y="-54.8" font-family="Helvetica,sans-Serif" font-size="14.00">First</text>
</a>
</g>
</g>
<g id="clust8" class="cluster">
<title>clusternode_Set(8)</title>
<g id="a_clust8"><a xlink:title="PreUpdate">
<path fill="#000000" fill-opacity="0.031373" stroke="#000000" stroke-width="2" stroke-opacity="0.250980" d="M189,-37C189,-37 252,-37 252,-37 258,-37 264,-43 264,-49 264,-49 264,-64 264,-64 264,-70 258,-76 252,-76 252,-76 189,-76 189,-76 183,-76 177,-70 177,-64 177,-64 177,-49 177,-49 177,-43 183,-37 189,-37"/>
<text text-anchor="middle" x="220.5" y="-60.8" font-family="Helvetica,sans-Serif" font-size="14.00">PreUpdate</text>
</a>
</g>
</g>
<g id="clust9" class="cluster">
<title>clusternode_Set(9)</title>
<g id="a_clust9"><a xlink:title="StateTransitions">
<path fill="#000000" fill-opacity="0.031373" stroke="#000000" stroke-width="2" stroke-opacity="0.250980" d="M439,-37C439,-37 539,-37 539,-37 545,-37 551,-43 551,-49 551,-49 551,-64 551,-64 551,-70 545,-76 539,-76 539,-76 439,-76 439,-76 433,-76 427,-70 427,-64 427,-64 427,-49 427,-49 427,-43 433,-37 439,-37"/>
<text text-anchor="middle" x="489" y="-60.8" font-family="Helvetica,sans-Serif" font-size="14.00">StateTransitions</text>
</a>
</g>
</g>
<g id="clust10" class="cluster">
<title>clusternode_Set(10)</title>
<g id="a_clust10"><a xlink:title="FixedUpdate">
<path fill="#000000" fill-opacity="0.031373" stroke="#000000" stroke-width="2" stroke-opacity="0.250980" d="M583,-37C583,-37 659,-37 659,-37 665,-37 671,-43 671,-49 671,-49 671,-64 671,-64 671,-70 665,-76 659,-76 659,-76 583,-76 583,-76 577,-76 571,-70 571,-64 571,-64 571,-49 571,-49 571,-43 577,-37 583,-37"/>
<text text-anchor="middle" x="621" y="-60.8" font-family="Helvetica,sans-Serif" font-size="14.00">FixedUpdate</text>
</a>
</g>
</g>
<g id="clust11" class="cluster">
<title>clusternode_Set(11)</title>
<g id="a_clust11"><a xlink:title="PostUpdate">
<path fill="#000000" fill-opacity="0.031373" stroke="#000000" stroke-width="2" stroke-opacity="0.250980" d="M899,-37C899,-37 1087,-37 1087,-37 1093,-37 1099,-43 1099,-49 1099,-49 1099,-252 1099,-252 1099,-258 1093,-264 1087,-264 1087,-264 899,-264 899,-264 893,-264 887,-258 887,-252 887,-252 887,-49 887,-49 887,-43 893,-37 899,-37"/>
<text text-anchor="middle" x="993" y="-248.8" font-family="Helvetica,sans-Serif" font-size="14.00">PostUpdate</text>
</a>
</g>
</g>
<g id="clust12" class="cluster">
<title>clusternode_Set(20)</title>
<g id="a_clust12"><a xlink:title="TransformPropagate">
<path fill="#000000" fill-opacity="0.031373" stroke="#000000" stroke-width="2" stroke-opacity="0.250980" d="M907,-53C907,-53 1079,-53 1079,-53 1085,-53 1091,-59 1091,-65 1091,-65 1091,-221 1091,-221 1091,-227 1085,-233 1079,-233 1079,-233 907,-233 907,-233 901,-233 895,-227 895,-221 895,-221 895,-65 895,-65 895,-59 901,-53 907,-53"/>
<text text-anchor="middle" x="993" y="-217.8" font-family="Helvetica,sans-Serif" font-size="14.00">TransformPropagate</text>
</a>
</g>
</g>
<g id="clust13" class="cluster">
<title>clusternode_Set(21)</title>
<g id="a_clust13"><a xlink:title="PropagateTransformsSet">
<path fill="#000000" fill-opacity="0.031373" stroke="#000000" stroke-width="2" stroke-opacity="0.250980" d="M915,-116C915,-116 1071,-116 1071,-116 1077,-116 1083,-122 1083,-128 1083,-128 1083,-190 1083,-190 1083,-196 1077,-202 1071,-202 1071,-202 915,-202 915,-202 909,-202 903,-196 903,-190 903,-190 903,-128 903,-128 903,-122 909,-116 915,-116"/>
<text text-anchor="middle" x="993" y="-186.8" font-family="Helvetica,sans-Serif" font-size="14.00">PropagateTransformsSet</text>
</a>
</g>
</g>
<g id="clust14" class="cluster">
<title>clusternode_Set(12)</title>
<g id="a_clust14"><a xlink:title="Last">
<path fill="#000000" fill-opacity="0.031373" stroke="#000000" stroke-width="2" stroke-opacity="0.250980" d="M1270,-31C1270,-31 1290,-31 1290,-31 1296,-31 1302,-37 1302,-43 1302,-43 1302,-58 1302,-58 1302,-64 1296,-70 1290,-70 1290,-70 1270,-70 1270,-70 1264,-70 1258,-64 1258,-58 1258,-58 1258,-43 1258,-43 1258,-37 1264,-31 1270,-31"/>
<text text-anchor="middle" x="1280" y="-54.8" font-family="Helvetica,sans-Serif" font-size="14.00">Last</text>
</a>
</g>
</g>
<g id="clust15" class="cluster">
<title>clusternode_Set(59)</title>
<g id="a_clust15"><a xlink:title="LoadAssets">
<path fill="#000000" fill-opacity="0.031373" stroke="#000000" stroke-width="2" stroke-opacity="0.250980" d="M78,-8C78,-8 145,-8 145,-8 151,-8 157,-14 157,-20 157,-20 157,-35 157,-35 157,-41 151,-47 145,-47 145,-47 78,-47 78,-47 72,-47 66,-41 66,-35 66,-35 66,-20 66,-20 66,-14 72,-8 78,-8"/>
<text text-anchor="middle" x="111.5" y="-31.8" font-family="Helvetica,sans-Serif" font-size="14.00">LoadAssets</text>
</a>
</g>
</g>
<g id="clust16" class="cluster">
<title>clusternode_Set(60)</title>
<g id="a_clust16"><a xlink:title="AssetEvents">
<path fill="#000000" fill-opacity="0.031373" stroke="#000000" stroke-width="2" stroke-opacity="0.250980" d="M1137,-19C1137,-19 1209,-19 1209,-19 1215,-19 1221,-25 1221,-31 1221,-31 1221,-46 1221,-46 1221,-52 1215,-58 1209,-58 1209,-58 1137,-58 1137,-58 1131,-58 1125,-52 1125,-46 1125,-46 1125,-31 1125,-31 1125,-25 1131,-19 1137,-19"/>
<text text-anchor="middle" x="1173" y="-42.8" font-family="Helvetica,sans-Serif" font-size="14.00">AssetEvents</text>
</a>
</g>
</g>
<!-- set_marker_node_Set(0) -->
<!-- set_marker_node_Set(4) -->
<!-- set_marker_node_Set(0)&#45;&gt;set_marker_node_Set(4) -->
<g id="edge7" class="edge">
<title>set_marker_node_Set(0)&#45;&gt;set_marker_node_Set(4)</title>
<g id="a_edge7"><a xlink:title="Update → UpdateFlush">
<path fill="none" stroke="#ee9e44" stroke-width="2" d="M756,-45C758.35,-45 760.77,-45 763.22,-45"/>
<polygon fill="#ee9e44" stroke="#ee9e44" stroke-width="2" points="762.97,-48.5 772.97,-45 762.97,-41.5 762.97,-48.5"/>
</a>
</g>
</g>
<!-- set_marker_node_Set(2) -->
<!-- set_marker_node_Set(8) -->
<!-- set_marker_node_Set(2)&#45;&gt;set_marker_node_Set(8) -->
<g id="edge2" class="edge">
<title>set_marker_node_Set(2)&#45;&gt;set_marker_node_Set(8)</title>
<g id="a_edge2"><a xlink:title="FirstFlush → PreUpdate">
<path fill="none" stroke="#881877" stroke-width="2" d="M152,-56.27C155.98,-55.6 160.07,-54.91 164.17,-54.22"/>
<polygon fill="#881877" stroke="#881877" stroke-width="2" points="164.74,-57.68 174.02,-52.57 163.58,-50.77 164.74,-57.68"/>
</a>
</g>
</g>
<!-- set_marker_node_Set(3) -->
<!-- set_marker_node_Set(9) -->
<!-- set_marker_node_Set(3)&#45;&gt;set_marker_node_Set(9) -->
<g id="edge4" class="edge">
<title>set_marker_node_Set(3)&#45;&gt;set_marker_node_Set(9)</title>
<g id="a_edge4"><a xlink:title="PreUpdateFlush → StateTransitions">
<path fill="none" stroke="#aa3a55" stroke-width="2" d="M407,-45C409.39,-45 411.8,-45 414.21,-45"/>
<polygon fill="#aa3a55" stroke="#aa3a55" stroke-width="2" points="413.98,-48.5 423.98,-45 413.98,-41.5 413.98,-48.5"/>
</a>
</g>
</g>
<!-- set_marker_node_Set(11) -->
<!-- set_marker_node_Set(4)&#45;&gt;set_marker_node_Set(11) -->
<g id="edge8" class="edge">
<title>set_marker_node_Set(4)&#45;&gt;set_marker_node_Set(11)</title>
<g id="a_edge8"><a xlink:title="UpdateFlush → PostUpdate">
<path fill="none" stroke="#663699" stroke-width="2" d="M877,-45C879.5,-45 882,-45 884.5,-45"/>
<polygon fill="#663699" stroke="#663699" stroke-width="2" points="873.97,-48.5 883.97,-45 873.97,-41.5 873.97,-48.5"/>
</a>
</g>
</g>
<!-- set_marker_node_Set(5) -->
<!-- set_marker_node_Set(12) -->
<!-- set_marker_node_Set(5)&#45;&gt;set_marker_node_Set(12) -->
<g id="edge10" class="edge">
<title>set_marker_node_Set(5)&#45;&gt;set_marker_node_Set(12)</title>
<g id="a_edge10"><a xlink:title="PostUpdateFlush → Last">
<path fill="none" stroke="#22c2bb" stroke-width="2" d="M1217.78,-66C1224.63,-64.3 1231.57,-62.31 1238,-60 1240.73,-59.02 1243.5,-57.9 1246.26,-56.7"/>
<polygon fill="#22c2bb" stroke="#22c2bb" stroke-width="2" points="1247.77,-59.85 1255.27,-52.38 1244.74,-53.54 1247.77,-59.85"/>
</a>
</g>
</g>
<!-- set_marker_node_Set(6) -->
<!-- set_marker_node_Set(7) -->
<!-- set_marker_node_Set(7)&#45;&gt;set_marker_node_Set(2) -->
<g id="edge1" class="edge">
<title>set_marker_node_Set(7)&#45;&gt;set_marker_node_Set(2)</title>
<g id="a_edge1"><a xlink:title="First → FirstFlush">
<path fill="none" stroke="#eede00" stroke-width="2" d="M46,-45.14C53.02,-47.1 61.02,-49.33 68.95,-51.54"/>
<polygon fill="#eede00" stroke="#eede00" stroke-width="2" points="67.85,-54.87 78.43,-54.19 69.74,-48.13 67.85,-54.87"/>
</a>
</g>
</g>
<!-- set_marker_node_Set(59) -->
<!-- set_marker_node_Set(7)&#45;&gt;set_marker_node_Set(59) -->
<g id="edge13" class="edge">
<title>set_marker_node_Set(7)&#45;&gt;set_marker_node_Set(59)</title>
<g id="a_edge13"><a xlink:title="First → LoadAssets">
<path fill="none" stroke="#881877" stroke-width="2" d="M46,-33.12C48.46,-32.46 51.05,-31.77 53.71,-31.05"/>
<polygon fill="#881877" stroke="#881877" stroke-width="2" points="54.32,-34.51 63.08,-28.55 52.51,-27.75 54.32,-34.51"/>
</a>
</g>
</g>
<!-- set_marker_node_Set(8)&#45;&gt;set_marker_node_Set(3) -->
<g id="edge3" class="edge">
<title>set_marker_node_Set(8)&#45;&gt;set_marker_node_Set(3)</title>
<g id="a_edge3"><a xlink:title="PreUpdate → PreUpdateFlush">
<path fill="none" stroke="#00b0cc" stroke-width="2" d="M264,-45C266.39,-45 268.82,-45 271.28,-45"/>
<polygon fill="#00b0cc" stroke="#00b0cc" stroke-width="2" points="270.98,-48.5 280.98,-45 270.98,-41.5 270.98,-48.5"/>
</a>
</g>
</g>
<!-- set_marker_node_Set(10) -->
<!-- set_marker_node_Set(9)&#45;&gt;set_marker_node_Set(10) -->
<g id="edge5" class="edge">
<title>set_marker_node_Set(9)&#45;&gt;set_marker_node_Set(10)</title>
<g id="a_edge5"><a xlink:title="StateTransitions → FixedUpdate">
<path fill="none" stroke="#44d488" stroke-width="2" d="M551,-45C553.39,-45 555.79,-45 558.19,-45"/>
<polygon fill="#44d488" stroke="#44d488" stroke-width="2" points="557.98,-48.5 567.98,-45 557.98,-41.5 557.98,-48.5"/>
</a>
</g>
</g>
<!-- set_marker_node_Set(10)&#45;&gt;set_marker_node_Set(0) -->
<g id="edge6" class="edge">
<title>set_marker_node_Set(10)&#45;&gt;set_marker_node_Set(0)</title>
<g id="a_edge6"><a xlink:title="FixedUpdate → Update">
<path fill="none" stroke="#0090cc" stroke-width="2" d="M671,-45C673.37,-45 675.75,-45 678.11,-45"/>
<polygon fill="#0090cc" stroke="#0090cc" stroke-width="2" points="677.98,-48.5 687.98,-45 677.98,-41.5 677.98,-48.5"/>
</a>
</g>
</g>
<!-- set_marker_node_Set(11)&#45;&gt;set_marker_node_Set(5) -->
<g id="edge9" class="edge">
<title>set_marker_node_Set(11)&#45;&gt;set_marker_node_Set(5)</title>
<g id="a_edge9"><a xlink:title="PostUpdate → PostUpdateFlush">
<path fill="none" stroke="#3363bb" stroke-width="2" d="M1099,-51C1104.52,-53.3 1103.68,-57.26 1109,-60 1109.87,-60.45 1110.75,-60.88 1111.64,-61.3"/>
<polygon fill="#3363bb" stroke="#3363bb" stroke-width="2" points="1110.34,-64.55 1120.93,-64.91 1112.88,-58.02 1110.34,-64.55"/>
</a>
</g>
</g>
<!-- set_marker_node_Set(60) -->
<!-- set_marker_node_Set(11)&#45;&gt;set_marker_node_Set(60) -->
<g id="edge14" class="edge">
<title>set_marker_node_Set(11)&#45;&gt;set_marker_node_Set(60)</title>
<g id="a_edge14"><a xlink:title="PostUpdate → AssetEvents">
<path fill="none" stroke="#00b0cc" stroke-width="2" d="M1072.79,-37C1086.01,-35.67 1099.54,-34.31 1112.17,-33.03"/>
<polygon fill="#00b0cc" stroke="#00b0cc" stroke-width="2" points="1112.39,-36.53 1121.99,-32.04 1111.69,-29.56 1112.39,-36.53"/>
</a>
</g>
</g>
<!-- set_marker_node_Set(20) -->
<!-- set_marker_node_Set(21) -->
<!-- node_System(12) -->
<g id="node14" class="node">
<title>node_System(12)</title>
<g id="a_node14"><a xlink:title="bevy_transform::systems::propagate_transforms">
<polygon fill="#ffe7b9" stroke="#ffc453" points="1074,-160 911,-160 911,-124 1074,-124 1074,-160"/>
<text text-anchor="middle" x="992.5" y="-138.3" font-family="Helvetica,sans-Serif" font-size="14.00" fill="#322100">propagate_transforms</text>
</a>
</g>
</g>
<!-- node_System(11) -->
<g id="node15" class="node">
<title>node_System(11)</title>
<g id="a_node15"><a xlink:title="bevy_transform::systems::sync_simple_transforms">
<polygon fill="#ffe7b9" stroke="#ffc453" points="1080,-97 905,-97 905,-61 1080,-61 1080,-97"/>
<text text-anchor="middle" x="992.5" y="-75.3" font-family="Helvetica,sans-Serif" font-size="14.00" fill="#322100">sync_simple_transforms</text>
</a>
</g>
</g>
<!-- set_marker_node_Set(12)&#45;&gt;set_marker_node_Set(6) -->
<g id="edge11" class="edge">
<title>set_marker_node_Set(12)&#45;&gt;set_marker_node_Set(6)</title>
<g id="a_edge11"><a xlink:title="Last → LastFlush">
<path fill="none" stroke="#99d955" stroke-width="2" d="M1302,-39C1304.31,-39 1306.74,-39 1309.23,-39"/>
<polygon fill="#99d955" stroke="#99d955" stroke-width="2" points="1308.98,-42.5 1318.98,-39 1308.98,-35.5 1308.98,-42.5"/>
</a>
</g>
</g>
<!-- set_marker_node_Set(59)&#45;&gt;set_marker_node_Set(8) -->
<g id="edge12" class="edge">
<title>set_marker_node_Set(59)&#45;&gt;set_marker_node_Set(8)</title>
<g id="a_edge12"><a xlink:title="LoadAssets → PreUpdate">
<path fill="none" stroke="#eede00" stroke-width="2" d="M157,-28.2C163.62,-29.99 170.43,-31.83 176.99,-33.61"/>
<polygon fill="#eede00" stroke="#eede00" stroke-width="2" points="176.01,-36.97 186.57,-36.21 177.84,-30.22 176.01,-36.97"/>
</a>
</g>
</g>
<!-- set_marker_node_Set(60)&#45;&gt;set_marker_node_Set(12) -->
<g id="edge15" class="edge">
<title>set_marker_node_Set(60)&#45;&gt;set_marker_node_Set(12)</title>
<g id="a_edge15"><a xlink:title="AssetEvents → Last">
<path fill="none" stroke="#aa3a55" stroke-width="2" d="M1221,-32.37C1229.11,-33.3 1237.4,-34.25 1245.08,-35.12"/>
<polygon fill="#aa3a55" stroke="#aa3a55" stroke-width="2" points="1244.66,-38.6 1255,-36.26 1245.46,-31.64 1244.66,-38.6"/>
</a>
</g>
</g>
</g>
</svg>
