<?xml version="1.0" encoding="UTF-8" standalone="no"?>
<!DOCTYPE svg PUBLIC "-//W3C//DTD SVG 1.1//EN"
 "http://www.w3.org/Graphics/SVG/1.1/DTD/svg11.dtd">
<!-- Generated by graphviz version 7.1.0 (0)
 -->
<!-- Pages: 1 -->
<svg width="1375pt" height="187pt"
 viewBox="0.00 0.00 1375.00 187.00" xmlns="http://www.w3.org/2000/svg" xmlns:xlink="http://www.w3.org/1999/xlink">
<g id="graph0" class="graph" transform="scale(1 1) rotate(0) translate(4 183)">
<polygon fill="white" stroke="none" points="-4,4 -4,-183 1371,-183 1371,4 -4,4"/>
<g id="clust1" class="cluster">
<title>clusternode_Set(0)</title>
<g id="a_clust1"><a xlink:title="Update">
<polygon fill="white" stroke="black" points="755,-31 755,-70 820,-70 820,-31 755,-31"/>
<text text-anchor="middle" x="787.5" y="-54.8" font-family="Helvetica,sans-Serif" font-size="14.00">Update</text>
</a>
</g>
</g>
<g id="clust2" class="cluster">
<title>clusternode_Set(2)</title>
<g id="a_clust2"><a xlink:title="FirstFlush">
<polygon fill="white" stroke="black" points="70,-101 70,-140 152,-140 152,-101 70,-101"/>
<text text-anchor="middle" x="111" y="-124.8" font-family="Helvetica,sans-Serif" font-size="14.00">FirstFlush</text>
</a>
</g>
</g>
<g id="clust3" class="cluster">
<title>clusternode_Set(3)</title>
<g id="a_clust3"><a xlink:title="PreUpdateFlush">
<polygon fill="white" stroke="black" points="356,-31 356,-70 479,-70 479,-31 356,-31"/>
<text text-anchor="middle" x="417.5" y="-54.8" font-family="Helvetica,sans-Serif" font-size="14.00">PreUpdateFlush</text>
</a>
</g>
</g>
<g id="clust4" class="cluster">
<title>clusternode_Set(4)</title>
<g id="a_clust4"><a xlink:title="UpdateFlush">
<polygon fill="white" stroke="black" points="840,-31 840,-70 941,-70 941,-31 840,-31"/>
<text text-anchor="middle" x="890.5" y="-54.8" font-family="Helvetica,sans-Serif" font-size="14.00">UpdateFlush</text>
</a>
</g>
</g>
<g id="clust5" class="cluster">
<title>clusternode_Set(5)</title>
<g id="a_clust5"><a xlink:title="PostUpdateFlush">
<polygon fill="white" stroke="black" points="1074,-55 1074,-94 1203,-94 1203,-55 1074,-55"/>
<text text-anchor="middle" x="1138.5" y="-78.8" font-family="Helvetica,sans-Serif" font-size="14.00">PostUpdateFlush</text>
</a>
</g>
</g>
<g id="clust6" class="cluster">
<title>clusternode_Set(6)</title>
<g id="a_clust6"><a xlink:title="LastFlush">
<polygon fill="white" stroke="black" points="1287,-20 1287,-59 1367,-59 1367,-20 1287,-20"/>
<text text-anchor="middle" x="1327" y="-43.8" font-family="Helvetica,sans-Serif" font-size="14.00">LastFlush</text>
</a>
</g>
</g>
<g id="clust7" class="cluster">
<title>clusternode_Set(7)</title>
<g id="a_clust7"><a xlink:title="First">
<polygon fill="white" stroke="black" points="0,-77 0,-116 46,-116 46,-77 0,-77"/>
<text text-anchor="middle" x="23" y="-100.8" font-family="Helvetica,sans-Serif" font-size="14.00">First</text>
</a>
</g>
</g>
<g id="clust8" class="cluster">
<title>clusternode_Set(8)</title>
<g id="a_clust8"><a xlink:title="PreUpdate">
<polygon fill="white" stroke="black" points="177,-78 177,-171 476,-171 476,-78 177,-78"/>
<text text-anchor="middle" x="326.5" y="-155.8" font-family="Helvetica,sans-Serif" font-size="14.00">PreUpdate</text>
</a>
</g>
</g>
<g id="clust9" class="cluster">
<title>clusternode_Set(24)</title>
<g id="a_clust9"><a xlink:title="InputSystem">
<polygon fill="white" stroke="black" points="367,-101 367,-140 468,-140 468,-101 367,-101"/>
<text text-anchor="middle" x="417.5" y="-124.8" font-family="Helvetica,sans-Serif" font-size="14.00">InputSystem</text>
</a>
</g>
</g>
<g id="clust10" class="cluster">
<title>clusternode_Set(9)</title>
<g id="a_clust10"><a xlink:title="StateTransitions">
<polygon fill="white" stroke="black" points="491,-31 491,-70 615,-70 615,-31 491,-31"/>
<text text-anchor="middle" x="553" y="-54.8" font-family="Helvetica,sans-Serif" font-size="14.00">StateTransitions</text>
</a>
</g>
</g>
<g id="clust11" class="cluster">
<title>clusternode_Set(10)</title>
<g id="a_clust11"><a xlink:title="FixedUpdate">
<polygon fill="white" stroke="black" points="635,-31 635,-70 735,-70 735,-31 635,-31"/>
<text text-anchor="middle" x="685" y="-54.8" font-family="Helvetica,sans-Serif" font-size="14.00">FixedUpdate</text>
</a>
</g>
</g>
<g id="clust12" class="cluster">
<title>clusternode_Set(11)</title>
<g id="a_clust12"><a xlink:title="PostUpdate">
<polygon fill="white" stroke="black" points="961,-31 961,-70 1054,-70 1054,-31 961,-31"/>
<text text-anchor="middle" x="1007.5" y="-54.8" font-family="Helvetica,sans-Serif" font-size="14.00">PostUpdate</text>
</a>
</g>
</g>
<g id="clust13" class="cluster">
<title>clusternode_Set(12)</title>
<g id="a_clust13"><a xlink:title="Last">
<polygon fill="white" stroke="black" points="1223,-20 1223,-59 1267,-59 1267,-20 1223,-20"/>
<text text-anchor="middle" x="1245" y="-43.8" font-family="Helvetica,sans-Serif" font-size="14.00">Last</text>
</a>
</g>
</g>
<g id="clust14" class="cluster">
<title>clusternode_Set(58)</title>
<g id="a_clust14"><a xlink:title="LoadAssets">
<polygon fill="white" stroke="black" points="66,-54 66,-93 157,-93 157,-54 66,-54"/>
<text text-anchor="middle" x="111.5" y="-77.8" font-family="Helvetica,sans-Serif" font-size="14.00">LoadAssets</text>
</a>
</g>
</g>
<g id="clust15" class="cluster">
<title>clusternode_Set(59)</title>
<g id="a_clust15"><a xlink:title="AssetEvents">
<polygon fill="white" stroke="black" points="1090,-8 1090,-47 1186,-47 1186,-8 1090,-8"/>
<text text-anchor="middle" x="1138" y="-31.8" font-family="Helvetica,sans-Serif" font-size="14.00">AssetEvents</text>
</a>
</g>
</g>
<!-- set_marker_node_Set(0) -->
<!-- set_marker_node_Set(4) -->
<!-- set_marker_node_Set(0)&#45;&gt;set_marker_node_Set(4) -->
<g id="edge7" class="edge">
<title>set_marker_node_Set(0)&#45;&gt;set_marker_node_Set(4)</title>
<g id="a_edge7"><a xlink:title="Update → UpdateFlush">
<path fill="none" stroke="#ee9e44" stroke-width="2" d="M820,-39C822.35,-39 824.77,-39 827.22,-39"/>
<polygon fill="#ee9e44" stroke="#ee9e44" stroke-width="2" points="826.97,-42.5 836.97,-39 826.97,-35.5 826.97,-42.5"/>
</a>
</g>
</g>
<!-- set_marker_node_Set(2) -->
<!-- set_marker_node_Set(8) -->
<!-- set_marker_node_Set(2)&#45;&gt;set_marker_node_Set(8) -->
<g id="edge2" class="edge">
<title>set_marker_node_Set(2)&#45;&gt;set_marker_node_Set(8)</title>
<g id="a_edge2"><a xlink:title="FirstFlush → PreUpdate">
<path fill="none" stroke="#881877" stroke-width="2" d="M146.08,-101C151.99,-99.72 158.25,-98.43 164.48,-97.24"/>
<polygon fill="#881877" stroke="#881877" stroke-width="2" points="164.79,-100.74 174.02,-95.53 163.56,-93.85 164.79,-100.74"/>
</a>
</g>
</g>
<!-- set_marker_node_Set(3) -->
<!-- set_marker_node_Set(9) -->
<!-- set_marker_node_Set(3)&#45;&gt;set_marker_node_Set(9) -->
<g id="edge4" class="edge">
<title>set_marker_node_Set(3)&#45;&gt;set_marker_node_Set(9)</title>
<g id="a_edge4"><a xlink:title="PreUpdateFlush → StateTransitions">
<path fill="none" stroke="#aa3a55" stroke-width="2" d="M479,-39C482,-39 485,-39 488,-39"/>
<polygon fill="#aa3a55" stroke="#aa3a55" stroke-width="2" points="477.98,-42.5 487.98,-39 477.98,-35.5 477.98,-42.5"/>
</a>
</g>
</g>
<!-- set_marker_node_Set(11) -->
<!-- set_marker_node_Set(4)&#45;&gt;set_marker_node_Set(11) -->
<g id="edge8" class="edge">
<title>set_marker_node_Set(4)&#45;&gt;set_marker_node_Set(11)</title>
<g id="a_edge8"><a xlink:title="UpdateFlush → PostUpdate">
<path fill="none" stroke="#663699" stroke-width="2" d="M941,-39C943.43,-39 945.88,-39 948.32,-39"/>
<polygon fill="#663699" stroke="#663699" stroke-width="2" points="947.98,-42.5 957.98,-39 947.98,-35.5 947.98,-42.5"/>
</a>
</g>
</g>
<!-- set_marker_node_Set(5) -->
<!-- set_marker_node_Set(12) -->
<!-- set_marker_node_Set(5)&#45;&gt;set_marker_node_Set(12) -->
<g id="edge10" class="edge">
<title>set_marker_node_Set(5)&#45;&gt;set_marker_node_Set(12)</title>
<g id="a_edge10"><a xlink:title="PostUpdateFlush → Last">
<path fill="none" stroke="#22c2bb" stroke-width="2" d="M1190.03,-55C1194.46,-53.84 1198.84,-52.51 1203,-51 1205.86,-49.96 1208.76,-48.74 1211.62,-47.4"/>
<polygon fill="#22c2bb" stroke="#22c2bb" stroke-width="2" points="1213.05,-50.61 1220.32,-42.9 1209.83,-44.39 1213.05,-50.61"/>
</a>
</g>
</g>
<!-- set_marker_node_Set(6) -->
<!-- set_marker_node_Set(7) -->
<!-- set_marker_node_Set(7)&#45;&gt;set_marker_node_Set(2) -->
<g id="edge1" class="edge">
<title>set_marker_node_Set(7)&#45;&gt;set_marker_node_Set(2)</title>
<g id="a_edge1"><a xlink:title="First → FirstFlush">
<path fill="none" stroke="#eede00" stroke-width="2" d="M46,-91.34C52.44,-93.18 59.5,-95.18 66,-97 66.73,-97.2 67.47,-97.41 68.21,-97.62"/>
<polygon fill="#eede00" stroke="#eede00" stroke-width="2" points="67,-100.91 77.57,-100.2 68.86,-94.17 67,-100.91"/>
</a>
</g>
</g>
<!-- set_marker_node_Set(58) -->
<!-- set_marker_node_Set(7)&#45;&gt;set_marker_node_Set(58) -->
<g id="edge13" class="edge">
<title>set_marker_node_Set(7)&#45;&gt;set_marker_node_Set(58)</title>
<g id="a_edge13"><a xlink:title="First → LoadAssets">
<path fill="none" stroke="#881877" stroke-width="2" d="M46,-79.12C48.46,-78.46 51.05,-77.77 53.71,-77.05"/>
<polygon fill="#881877" stroke="#881877" stroke-width="2" points="54.32,-80.51 63.08,-74.55 52.51,-73.75 54.32,-80.51"/>
</a>
</g>
</g>
<!-- set_marker_node_Set(8)&#45;&gt;set_marker_node_Set(3) -->
<g id="edge3" class="edge">
<title>set_marker_node_Set(8)&#45;&gt;set_marker_node_Set(3)</title>
<g id="a_edge3"><a xlink:title="PreUpdate → PreUpdateFlush">
<path fill="none" stroke="#00b0cc" stroke-width="2" d="M284.47,-78C300.81,-73.16 322.5,-66.72 343.55,-60.48"/>
<polygon fill="#00b0cc" stroke="#00b0cc" stroke-width="2" points="344.51,-63.85 353.1,-57.65 342.52,-57.14 344.51,-63.85"/>
</a>
</g>
</g>
<!-- set_marker_node_Set(24) -->
<!-- node_System(131) -->
<g id="node10" class="node">
<title>node_System(131)</title>
<g id="a_node10"><a xlink:title="bevy_gilrs::gilrs_system::gilrs_event_system">
<polygon fill="white" stroke="black" points="328,-140 185,-140 185,-104 328,-104 328,-140"/>
<text text-anchor="middle" x="256.5" y="-118.3" font-family="Times,serif" font-size="14.00">gilrs_event_system</text>
</a>
</g>
</g>
<!-- node_System(131)&#45;&gt;set_marker_node_Set(24) -->
<g id="edge16" class="edge">
<title>node_System(131)&#45;&gt;set_marker_node_Set(24)</title>
<g id="a_edge16"><a xlink:title="gilrs_event_system → InputSystem">
<path fill="none" stroke="#44d488" stroke-width="2" d="M328.41,-116.18C336.96,-115.48 345.65,-114.77 354.07,-114.08"/>
<polygon fill="#44d488" stroke="#44d488" stroke-width="2" points="354.31,-117.57 363.99,-113.27 353.74,-110.6 354.31,-117.57"/>
</a>
</g>
</g>
<!-- set_marker_node_Set(10) -->
<!-- set_marker_node_Set(9)&#45;&gt;set_marker_node_Set(10) -->
<g id="edge5" class="edge">
<title>set_marker_node_Set(9)&#45;&gt;set_marker_node_Set(10)</title>
<g id="a_edge5"><a xlink:title="StateTransitions → FixedUpdate">
<path fill="none" stroke="#44d488" stroke-width="2" d="M615,-39C617.39,-39 619.79,-39 622.19,-39"/>
<polygon fill="#44d488" stroke="#44d488" stroke-width="2" points="621.98,-42.5 631.98,-39 621.98,-35.5 621.98,-42.5"/>
</a>
</g>
</g>
<!-- set_marker_node_Set(10)&#45;&gt;set_marker_node_Set(0) -->
<g id="edge6" class="edge">
<title>set_marker_node_Set(10)&#45;&gt;set_marker_node_Set(0)</title>
<g id="a_edge6"><a xlink:title="FixedUpdate → Update">
<path fill="none" stroke="#0090cc" stroke-width="2" d="M735,-39C737.37,-39 739.75,-39 742.11,-39"/>
<polygon fill="#0090cc" stroke="#0090cc" stroke-width="2" points="741.98,-42.5 751.98,-39 741.98,-35.5 741.98,-42.5"/>
</a>
</g>
</g>
<!-- set_marker_node_Set(11)&#45;&gt;set_marker_node_Set(5) -->
<g id="edge9" class="edge">
<title>set_marker_node_Set(11)&#45;&gt;set_marker_node_Set(5)</title>
<g id="a_edge9"><a xlink:title="PostUpdate → PostUpdateFlush">
<path fill="none" stroke="#3363bb" stroke-width="2" d="M1054,-47.56C1062.83,-49.2 1072.16,-50.94 1081.26,-52.63"/>
<polygon fill="#3363bb" stroke="#3363bb" stroke-width="2" points="1080.56,-56.06 1091.04,-54.45 1081.84,-49.18 1080.56,-56.06"/>
</a>
</g>
</g>
<!-- set_marker_node_Set(59) -->
<!-- set_marker_node_Set(11)&#45;&gt;set_marker_node_Set(59) -->
<g id="edge14" class="edge">
<title>set_marker_node_Set(11)&#45;&gt;set_marker_node_Set(59)</title>
<g id="a_edge14"><a xlink:title="PostUpdate → AssetEvents">
<path fill="none" stroke="#00b0cc" stroke-width="2" d="M1052.87,-31C1060.84,-29.58 1069.26,-28.08 1077.57,-26.6"/>
<polygon fill="#00b0cc" stroke="#00b0cc" stroke-width="2" points="1077.79,-30.11 1087.02,-24.91 1076.56,-23.22 1077.79,-30.11"/>
</a>
</g>
</g>
<!-- set_marker_node_Set(12)&#45;&gt;set_marker_node_Set(6) -->
<g id="edge11" class="edge">
<title>set_marker_node_Set(12)&#45;&gt;set_marker_node_Set(6)</title>
<g id="a_edge11"><a xlink:title="Last → LastFlush">
<path fill="none" stroke="#99d955" stroke-width="2" d="M1267,-28C1269.31,-28 1271.74,-28 1274.23,-28"/>
<polygon fill="#99d955" stroke="#99d955" stroke-width="2" points="1273.98,-31.5 1283.98,-28 1273.98,-24.5 1273.98,-31.5"/>
</a>
</g>
</g>
<!-- set_marker_node_Set(58)&#45;&gt;set_marker_node_Set(8) -->
<g id="edge12" class="edge">
<title>set_marker_node_Set(58)&#45;&gt;set_marker_node_Set(8)</title>
<g id="a_edge12"><a xlink:title="LoadAssets → PreUpdate">
<path fill="none" stroke="#eede00" stroke-width="2" d="M157,-69.53C169.04,-71.54 182.26,-73.75 195,-75.88"/>
<polygon fill="#eede00" stroke="#eede00" stroke-width="2" points="194.26,-79.31 204.7,-77.5 195.42,-72.4 194.26,-79.31"/>
</a>
</g>
</g>
<!-- set_marker_node_Set(59)&#45;&gt;set_marker_node_Set(12) -->
<g id="edge15" class="edge">
<title>set_marker_node_Set(59)&#45;&gt;set_marker_node_Set(12)</title>
<g id="a_edge15"><a xlink:title="AssetEvents → Last">
<path fill="none" stroke="#aa3a55" stroke-width="2" d="M1186,-21.37C1194.11,-22.3 1202.4,-23.25 1210.08,-24.12"/>
<polygon fill="#aa3a55" stroke="#aa3a55" stroke-width="2" points="1209.66,-27.6 1220,-25.26 1210.46,-20.64 1209.66,-27.6"/>
</a>
</g>
</g>
</g>
</svg>
