<?xml version="1.0" encoding="UTF-8" standalone="no"?>
<!DOCTYPE svg PUBLIC "-//W3C//DTD SVG 1.1//EN"
 "http://www.w3.org/Graphics/SVG/1.1/DTD/svg11.dtd">
<!-- Generated by graphviz version 8.0.1 (0)
 -->
<!-- Pages: 1 -->
<svg width="1300pt" height="180pt"
 viewBox="0.00 0.00 1300.00 180.00" xmlns="http://www.w3.org/2000/svg" xmlns:xlink="http://www.w3.org/1999/xlink">
<g id="graph0" class="graph" transform="scale(1 1) rotate(0) translate(4 176)">
<polygon fill="white" stroke="none" points="-4,4 -4,-176 1296,-176 1296,4 -4,4"/>
<g id="clust1" class="cluster">
<title>clusternode_Set(0)</title>
<g id="a_clust1"><a xlink:title="Update">
<path fill="#000000" fill-opacity="0.031373" stroke="#000000" stroke-width="2" stroke-opacity="0.250980" d="M725,-31C725,-31 761,-31 761,-31 767,-31 773,-37 773,-43 773,-43 773,-58 773,-58 773,-64 767,-70 761,-70 761,-70 725,-70 725,-70 719,-70 713,-64 713,-58 713,-58 713,-43 713,-43 713,-37 719,-31 725,-31"/>
<text text-anchor="middle" x="743" y="-54.8" font-family="Helvetica,sans-Serif" font-size="14.00">Update</text>
</a>
</g>
</g>
<g id="clust2" class="cluster">
<title>clusternode_Set(2)</title>
<g id="a_clust2"><a xlink:title="FirstFlush">
<path fill="#000000" fill-opacity="0.031373" stroke="#000000" stroke-width="2" stroke-opacity="0.250980" d="M81,-101C81,-101 133,-101 133,-101 139,-101 145,-107 145,-113 145,-113 145,-128 145,-128 145,-134 139,-140 133,-140 133,-140 81,-140 81,-140 75,-140 69,-134 69,-128 69,-128 69,-113 69,-113 69,-107 75,-101 81,-101"/>
<text text-anchor="middle" x="107" y="-124.8" font-family="Helvetica,sans-Serif" font-size="14.00">FirstFlush</text>
</a>
</g>
</g>
<g id="clust3" class="cluster">
<title>clusternode_Set(3)</title>
<g id="a_clust3"><a xlink:title="PreUpdateFlush">
<path fill="#000000" fill-opacity="0.031373" stroke="#000000" stroke-width="2" stroke-opacity="0.250980" d="M351,-31C351,-31 441,-31 441,-31 447,-31 453,-37 453,-43 453,-43 453,-58 453,-58 453,-64 447,-70 441,-70 441,-70 351,-70 351,-70 345,-70 339,-64 339,-58 339,-58 339,-43 339,-43 339,-37 345,-31 351,-31"/>
<text text-anchor="middle" x="396" y="-54.8" font-family="Helvetica,sans-Serif" font-size="14.00">PreUpdateFlush</text>
</a>
</g>
</g>
<g id="clust4" class="cluster">
<title>clusternode_Set(4)</title>
<g id="a_clust4"><a xlink:title="UpdateFlush">
<path fill="#000000" fill-opacity="0.031373" stroke="#000000" stroke-width="2" stroke-opacity="0.250980" d="M805,-31C805,-31 874,-31 874,-31 880,-31 886,-37 886,-43 886,-43 886,-58 886,-58 886,-64 880,-70 874,-70 874,-70 805,-70 805,-70 799,-70 793,-64 793,-58 793,-58 793,-43 793,-43 793,-37 799,-31 805,-31"/>
<text text-anchor="middle" x="839.5" y="-54.8" font-family="Helvetica,sans-Serif" font-size="14.00">UpdateFlush</text>
</a>
</g>
</g>
<g id="clust5" class="cluster">
<title>clusternode_Set(5)</title>
<g id="a_clust5"><a xlink:title="PostUpdateFlush">
<path fill="#000000" fill-opacity="0.031373" stroke="#000000" stroke-width="2" stroke-opacity="0.250980" d="M1025,-55C1025,-55 1121,-55 1121,-55 1127,-55 1133,-61 1133,-67 1133,-67 1133,-82 1133,-82 1133,-88 1127,-94 1121,-94 1121,-94 1025,-94 1025,-94 1019,-94 1013,-88 1013,-82 1013,-82 1013,-67 1013,-67 1013,-61 1019,-55 1025,-55"/>
<text text-anchor="middle" x="1073" y="-78.8" font-family="Helvetica,sans-Serif" font-size="14.00">PostUpdateFlush</text>
</a>
</g>
</g>
<g id="clust6" class="cluster">
<title>clusternode_Set(6)</title>
<g id="a_clust6"><a xlink:title="LastFlush">
<path fill="#000000" fill-opacity="0.031373" stroke="#000000" stroke-width="2" stroke-opacity="0.250980" d="M1228,-20C1228,-20 1280,-20 1280,-20 1286,-20 1292,-26 1292,-32 1292,-32 1292,-47 1292,-47 1292,-53 1286,-59 1280,-59 1280,-59 1228,-59 1228,-59 1222,-59 1216,-53 1216,-47 1216,-47 1216,-32 1216,-32 1216,-26 1222,-20 1228,-20"/>
<text text-anchor="middle" x="1254" y="-43.8" font-family="Helvetica,sans-Serif" font-size="14.00">LastFlush</text>
</a>
</g>
</g>
<g id="clust7" class="cluster">
<title>clusternode_Set(7)</title>
<g id="a_clust7"><a xlink:title="First">
<path fill="#000000" fill-opacity="0.031373" stroke="#000000" stroke-width="2" stroke-opacity="0.250980" d="M12,-77C12,-77 31,-77 31,-77 37,-77 43,-83 43,-89 43,-89 43,-104 43,-104 43,-110 37,-116 31,-116 31,-116 12,-116 12,-116 6,-116 0,-110 0,-104 0,-104 0,-89 0,-89 0,-83 6,-77 12,-77"/>
<text text-anchor="middle" x="21.5" y="-100.8" font-family="Helvetica,sans-Serif" font-size="14.00">First</text>
</a>
</g>
</g>
<g id="clust8" class="cluster">
<title>clusternode_Set(8)</title>
<g id="a_clust8"><a xlink:title="PreUpdate">
<path fill="#000000" fill-opacity="0.031373" stroke="#000000" stroke-width="2" stroke-opacity="0.250980" d="M183,-78C183,-78 438,-78 438,-78 444,-78 450,-84 450,-90 450,-90 450,-152 450,-152 450,-158 444,-164 438,-164 438,-164 183,-164 183,-164 177,-164 171,-158 171,-152 171,-152 171,-90 171,-90 171,-84 177,-78 183,-78"/>
<text text-anchor="middle" x="310.5" y="-148.8" font-family="Helvetica,sans-Serif" font-size="14.00">PreUpdate</text>
</a>
</g>
</g>
<g id="clust9" class="cluster">
<title>clusternode_Set(25)</title>
<g id="a_clust9"><a xlink:title="InputSystem">
<path fill="#000000" fill-opacity="0.031373" stroke="#000000" stroke-width="2" stroke-opacity="0.250980" d="M362,-94C362,-94 430,-94 430,-94 436,-94 442,-100 442,-106 442,-106 442,-121 442,-121 442,-127 436,-133 430,-133 430,-133 362,-133 362,-133 356,-133 350,-127 350,-121 350,-121 350,-106 350,-106 350,-100 356,-94 362,-94"/>
<text text-anchor="middle" x="396" y="-117.8" font-family="Helvetica,sans-Serif" font-size="14.00">InputSystem</text>
</a>
</g>
</g>
<g id="clust10" class="cluster">
<title>clusternode_Set(9)</title>
<g id="a_clust10"><a xlink:title="StateTransitions">
<path fill="#000000" fill-opacity="0.031373" stroke="#000000" stroke-width="2" stroke-opacity="0.250980" d="M477,-31C477,-31 568,-31 568,-31 574,-31 580,-37 580,-43 580,-43 580,-58 580,-58 580,-64 574,-70 568,-70 568,-70 477,-70 477,-70 471,-70 465,-64 465,-58 465,-58 465,-43 465,-43 465,-37 471,-31 477,-31"/>
<text text-anchor="middle" x="522.5" y="-54.8" font-family="Helvetica,sans-Serif" font-size="14.00">StateTransitions</text>
</a>
</g>
</g>
<g id="clust11" class="cluster">
<title>clusternode_Set(10)</title>
<g id="a_clust11"><a xlink:title="FixedUpdate">
<path fill="#000000" fill-opacity="0.031373" stroke="#000000" stroke-width="2" stroke-opacity="0.250980" d="M612,-31C612,-31 681,-31 681,-31 687,-31 693,-37 693,-43 693,-43 693,-58 693,-58 693,-64 687,-70 681,-70 681,-70 612,-70 612,-70 606,-70 600,-64 600,-58 600,-58 600,-43 600,-43 600,-37 606,-31 612,-31"/>
<text text-anchor="middle" x="646.5" y="-54.8" font-family="Helvetica,sans-Serif" font-size="14.00">FixedUpdate</text>
</a>
</g>
</g>
<g id="clust12" class="cluster">
<title>clusternode_Set(11)</title>
<g id="a_clust12"><a xlink:title="PostUpdate">
<path fill="#000000" fill-opacity="0.031373" stroke="#000000" stroke-width="2" stroke-opacity="0.250980" d="M918,-31C918,-31 981,-31 981,-31 987,-31 993,-37 993,-43 993,-43 993,-58 993,-58 993,-64 987,-70 981,-70 981,-70 918,-70 918,-70 912,-70 906,-64 906,-58 906,-58 906,-43 906,-43 906,-37 912,-31 918,-31"/>
<text text-anchor="middle" x="949.5" y="-54.8" font-family="Helvetica,sans-Serif" font-size="14.00">PostUpdate</text>
</a>
</g>
</g>
<g id="clust13" class="cluster">
<title>clusternode_Set(12)</title>
<g id="a_clust13"><a xlink:title="Last">
<path fill="#000000" fill-opacity="0.031373" stroke="#000000" stroke-width="2" stroke-opacity="0.250980" d="M1165,-20C1165,-20 1184,-20 1184,-20 1190,-20 1196,-26 1196,-32 1196,-32 1196,-47 1196,-47 1196,-53 1190,-59 1184,-59 1184,-59 1165,-59 1165,-59 1159,-59 1153,-53 1153,-47 1153,-47 1153,-32 1153,-32 1153,-26 1159,-20 1165,-20"/>
<text text-anchor="middle" x="1174.5" y="-43.8" font-family="Helvetica,sans-Serif" font-size="14.00">Last</text>
</a>
</g>
</g>
<g id="clust14" class="cluster">
<title>clusternode_Set(59)</title>
<g id="a_clust14"><a xlink:title="LoadAssets">
<path fill="#000000" fill-opacity="0.031373" stroke="#000000" stroke-width="2" stroke-opacity="0.250980" d="M75,-54C75,-54 139,-54 139,-54 145,-54 151,-60 151,-66 151,-66 151,-81 151,-81 151,-87 145,-93 139,-93 139,-93 75,-93 75,-93 69,-93 63,-87 63,-81 63,-81 63,-66 63,-66 63,-60 69,-54 75,-54"/>
<text text-anchor="middle" x="107" y="-77.8" font-family="Helvetica,sans-Serif" font-size="14.00">LoadAssets</text>
</a>
</g>
</g>
<g id="clust15" class="cluster">
<title>clusternode_Set(60)</title>
<g id="a_clust15"><a xlink:title="AssetEvents">
<path fill="#000000" fill-opacity="0.031373" stroke="#000000" stroke-width="2" stroke-opacity="0.250980" d="M1039,-8C1039,-8 1107,-8 1107,-8 1113,-8 1119,-14 1119,-20 1119,-20 1119,-35 1119,-35 1119,-41 1113,-47 1107,-47 1107,-47 1039,-47 1039,-47 1033,-47 1027,-41 1027,-35 1027,-35 1027,-20 1027,-20 1027,-14 1033,-8 1039,-8"/>
<text text-anchor="middle" x="1073" y="-31.8" font-family="Helvetica,sans-Serif" font-size="14.00">AssetEvents</text>
</a>
</g>
</g>
<!-- set_marker_node_Set(0) -->
<!-- set_marker_node_Set(4) -->
<!-- set_marker_node_Set(0)&#45;&gt;set_marker_node_Set(4) -->
<g id="edge7" class="edge">
<title>set_marker_node_Set(0)&#45;&gt;set_marker_node_Set(4)</title>
<g id="a_edge7"><a xlink:title="Update → UpdateFlush">
<path fill="none" stroke="#ee9e44" stroke-width="2" d="M773,-39C775.33,-39 777.74,-39 780.18,-39"/>
<polygon fill="#ee9e44" stroke="#ee9e44" stroke-width="2" points="780,-42.5 790,-39 780,-35.5 780,-42.5"/>
</a>
</g>
</g>
<!-- set_marker_node_Set(2) -->
<!-- set_marker_node_Set(8) -->
<!-- set_marker_node_Set(2)&#45;&gt;set_marker_node_Set(8) -->
<g id="edge2" class="edge">
<title>set_marker_node_Set(2)&#45;&gt;set_marker_node_Set(8)</title>
<g id="a_edge2"><a xlink:title="FirstFlush → PreUpdate">
<path fill="none" stroke="#881877" stroke-width="2" d="M133.45,-101C141.1,-98.8 149.77,-96.48 158.43,-94.53"/>
<polygon fill="#881877" stroke="#881877" stroke-width="2" points="159.89,-97.4 169,-92 158.51,-90.54 159.89,-97.4"/>
</a>
</g>
</g>
<!-- set_marker_node_Set(3) -->
<!-- set_marker_node_Set(9) -->
<!-- set_marker_node_Set(3)&#45;&gt;set_marker_node_Set(9) -->
<g id="edge4" class="edge">
<title>set_marker_node_Set(3)&#45;&gt;set_marker_node_Set(9)</title>
<g id="a_edge4"><a xlink:title="PreUpdateFlush → StateTransitions">
<path fill="none" stroke="#aa3a55" stroke-width="2" d="M453,-39C456,-39 459,-39 462,-39"/>
<polygon fill="#aa3a55" stroke="#aa3a55" stroke-width="2" points="452,-42.5 462,-39 452,-35.5 452,-42.5"/>
</a>
</g>
</g>
<!-- set_marker_node_Set(11) -->
<!-- set_marker_node_Set(4)&#45;&gt;set_marker_node_Set(11) -->
<g id="edge8" class="edge">
<title>set_marker_node_Set(4)&#45;&gt;set_marker_node_Set(11)</title>
<g id="a_edge8"><a xlink:title="UpdateFlush → PostUpdate">
<path fill="none" stroke="#663699" stroke-width="2" d="M886,-39C888.32,-39 890.66,-39 893,-39"/>
<polygon fill="#663699" stroke="#663699" stroke-width="2" points="893,-42.5 903,-39 893,-35.5 893,-42.5"/>
</a>
</g>
</g>
<!-- set_marker_node_Set(5) -->
<!-- set_marker_node_Set(12) -->
<!-- set_marker_node_Set(5)&#45;&gt;set_marker_node_Set(12) -->
<g id="edge10" class="edge">
<title>set_marker_node_Set(5)&#45;&gt;set_marker_node_Set(12)</title>
<g id="a_edge10"><a xlink:title="PostUpdateFlush → Last">
<path fill="none" stroke="#22c2bb" stroke-width="2" d="M1113.78,-55C1120.29,-53.29 1126.89,-51.29 1133,-49 1135.84,-47.94 1138.73,-46.72 1141.59,-45.42"/>
<polygon fill="#22c2bb" stroke="#22c2bb" stroke-width="2" points="1143.6,-48.33 1151,-40.75 1140.49,-42.06 1143.6,-48.33"/>
</a>
</g>
</g>
<!-- set_marker_node_Set(6) -->
<!-- set_marker_node_Set(7) -->
<!-- set_marker_node_Set(7)&#45;&gt;set_marker_node_Set(2) -->
<g id="edge1" class="edge">
<title>set_marker_node_Set(7)&#45;&gt;set_marker_node_Set(2)</title>
<g id="a_edge1"><a xlink:title="First → FirstFlush">
<path fill="none" stroke="#eede00" stroke-width="2" d="M43,-91C49.88,-92.97 57.78,-95.22 65.61,-97.46"/>
<polygon fill="#eede00" stroke="#eede00" stroke-width="2" points="65.44,-101.62 76.01,-101 67.36,-94.89 65.44,-101.62"/>
</a>
</g>
</g>
<!-- set_marker_node_Set(59) -->
<!-- set_marker_node_Set(7)&#45;&gt;set_marker_node_Set(59) -->
<g id="edge13" class="edge">
<title>set_marker_node_Set(7)&#45;&gt;set_marker_node_Set(59)</title>
<g id="a_edge13"><a xlink:title="First → LoadAssets">
<path fill="none" stroke="#881877" stroke-width="2" d="M43,-79.25C45.41,-78.59 47.94,-77.9 50.55,-77.18"/>
<polygon fill="#881877" stroke="#881877" stroke-width="2" points="52.28,-79.79 61,-73.77 50.43,-73.04 52.28,-79.79"/>
</a>
</g>
</g>
<!-- set_marker_node_Set(8)&#45;&gt;set_marker_node_Set(3) -->
<g id="edge3" class="edge">
<title>set_marker_node_Set(8)&#45;&gt;set_marker_node_Set(3)</title>
<g id="a_edge3"><a xlink:title="PreUpdate → PreUpdateFlush">
<path fill="none" stroke="#00b0cc" stroke-width="2" d="M271.35,-78C286.68,-73.17 307.02,-66.75 326.77,-60.52"/>
<polygon fill="#00b0cc" stroke="#00b0cc" stroke-width="2" points="328.52,-63.01 337,-56.66 326.41,-56.33 328.52,-63.01"/>
</a>
</g>
</g>
<!-- set_marker_node_Set(25) -->
<!-- node_System(143) -->
<g id="node10" class="node">
<title>node_System(143)</title>
<g id="a_node10"><a xlink:title="bevy_gilrs::gilrs_system::gilrs_event_system">
<polygon fill="#973977" stroke="#c86da9" points="311,-133 179,-133 179,-97 311,-97 311,-133"/>
<text text-anchor="middle" x="245" y="-111.3" font-family="Helvetica,sans-Serif" font-size="14.00" fill="#f1d9e9">gilrs_event_system</text>
</a>
</g>
</g>
<!-- node_System(143)&#45;&gt;set_marker_node_Set(25) -->
<g id="edge16" class="edge">
<title>node_System(143)&#45;&gt;set_marker_node_Set(25)</title>
<g id="a_edge16"><a xlink:title="gilrs_event_system → InputSystem">
<path fill="none" stroke="#44d488" stroke-width="2" d="M311.35,-109.3C319.92,-108.55 328.64,-107.79 337.07,-107.05"/>
<polygon fill="#44d488" stroke="#44d488" stroke-width="2" points="337.34,-110.28 347,-105.93 336.73,-103.31 337.34,-110.28"/>
</a>
</g>
</g>
<!-- set_marker_node_Set(10) -->
<!-- set_marker_node_Set(9)&#45;&gt;set_marker_node_Set(10) -->
<g id="edge5" class="edge">
<title>set_marker_node_Set(9)&#45;&gt;set_marker_node_Set(10)</title>
<g id="a_edge5"><a xlink:title="StateTransitions → FixedUpdate">
<path fill="none" stroke="#44d488" stroke-width="2" d="M580,-39C582.35,-39 584.71,-39 587.07,-39"/>
<polygon fill="#44d488" stroke="#44d488" stroke-width="2" points="587,-42.5 597,-39 587,-35.5 587,-42.5"/>
</a>
</g>
</g>
<!-- set_marker_node_Set(10)&#45;&gt;set_marker_node_Set(0) -->
<g id="edge6" class="edge">
<title>set_marker_node_Set(10)&#45;&gt;set_marker_node_Set(0)</title>
<g id="a_edge6"><a xlink:title="FixedUpdate → Update">
<path fill="none" stroke="#0090cc" stroke-width="2" d="M693,-39C695.35,-39 697.7,-39 700.03,-39"/>
<polygon fill="#0090cc" stroke="#0090cc" stroke-width="2" points="700,-42.5 710,-39 700,-35.5 700,-42.5"/>
</a>
</g>
</g>
<!-- set_marker_node_Set(11)&#45;&gt;set_marker_node_Set(5) -->
<g id="edge9" class="edge">
<title>set_marker_node_Set(11)&#45;&gt;set_marker_node_Set(5)</title>
<g id="a_edge9"><a xlink:title="PostUpdate → PostUpdateFlush">
<path fill="none" stroke="#3363bb" stroke-width="2" d="M993,-47.46C1001.36,-49.1 1010.22,-50.85 1018.87,-52.55"/>
<polygon fill="#3363bb" stroke="#3363bb" stroke-width="2" points="1018.86,-56.51 1029.35,-55 1020.21,-49.64 1018.86,-56.51"/>
</a>
</g>
</g>
<!-- set_marker_node_Set(60) -->
<!-- set_marker_node_Set(11)&#45;&gt;set_marker_node_Set(60) -->
<g id="edge14" class="edge">
<title>set_marker_node_Set(11)&#45;&gt;set_marker_node_Set(60)</title>
<g id="a_edge14"><a xlink:title="PostUpdate → AssetEvents">
<path fill="none" stroke="#00b0cc" stroke-width="2" d="M992.41,-31C999.54,-29.66 1007.04,-28.25 1014.48,-26.84"/>
<polygon fill="#00b0cc" stroke="#00b0cc" stroke-width="2" points="1015.82,-29.78 1025,-24.48 1014.53,-22.9 1015.82,-29.78"/>
</a>
</g>
</g>
<!-- set_marker_node_Set(12)&#45;&gt;set_marker_node_Set(6) -->
<g id="edge11" class="edge">
<title>set_marker_node_Set(12)&#45;&gt;set_marker_node_Set(6)</title>
<g id="a_edge11"><a xlink:title="Last → LastFlush">
<path fill="none" stroke="#99d955" stroke-width="2" d="M1196,-28C1198.33,-28 1200.78,-28 1203.29,-28"/>
<polygon fill="#99d955" stroke="#99d955" stroke-width="2" points="1203,-31.5 1213,-28 1203,-24.5 1203,-31.5"/>
</a>
</g>
</g>
<!-- set_marker_node_Set(59)&#45;&gt;set_marker_node_Set(8) -->
<g id="edge12" class="edge">
<title>set_marker_node_Set(59)&#45;&gt;set_marker_node_Set(8)</title>
<g id="a_edge12"><a xlink:title="LoadAssets → PreUpdate">
<path fill="none" stroke="#eede00" stroke-width="2" d="M151,-69.59C162.17,-71.56 174.39,-73.72 186.19,-75.8"/>
<polygon fill="#eede00" stroke="#eede00" stroke-width="2" points="186.23,-79.71 196.69,-78 187.45,-72.82 186.23,-79.71"/>
</a>
</g>
</g>
<!-- set_marker_node_Set(60)&#45;&gt;set_marker_node_Set(12) -->
<g id="edge15" class="edge">
<title>set_marker_node_Set(60)&#45;&gt;set_marker_node_Set(12)</title>
<g id="a_edge15"><a xlink:title="AssetEvents → Last">
<path fill="none" stroke="#aa3a55" stroke-width="2" d="M1119,-21.45C1126.22,-22.33 1133.58,-23.22 1140.44,-24.05"/>
<polygon fill="#aa3a55" stroke="#aa3a55" stroke-width="2" points="1139.65,-27.85 1150,-25.58 1140.5,-20.9 1139.65,-27.85"/>
</a>
</g>
</g>
</g>
</svg>
