<?xml version="1.0" encoding="UTF-8" standalone="no"?>
<!DOCTYPE svg PUBLIC "-//W3C//DTD SVG 1.1//EN"
 "http://www.w3.org/Graphics/SVG/1.1/DTD/svg11.dtd">
<!-- Generated by graphviz version 7.1.0 (0)
 -->
<!-- Pages: 1 -->
<svg width="2094pt" height="1202pt"
 viewBox="0.00 0.00 2094.00 1202.00" xmlns="http://www.w3.org/2000/svg" xmlns:xlink="http://www.w3.org/1999/xlink">
<g id="graph0" class="graph" transform="scale(1 1) rotate(0) translate(4 1198)">
<polygon fill="white" stroke="none" points="-4,4 -4,-1198 2090,-1198 2090,4 -4,4"/>
<g id="clust1" class="cluster">
<title>clusternode_Set(0)</title>
<g id="a_clust1"><a xlink:title="Update">
<polygon fill="white" stroke="black" points="1177,-1111 1177,-1150 1242,-1150 1242,-1111 1177,-1111"/>
<text text-anchor="middle" x="1209.5" y="-1134.8" font-family="Helvetica,sans-Serif" font-size="14.00">Update</text>
</a>
</g>
</g>
<g id="clust2" class="cluster">
<title>clusternode_Set(2)</title>
<g id="a_clust2"><a xlink:title="FirstFlush">
<polygon fill="white" stroke="black" points="250,-1135 250,-1174 332,-1174 332,-1135 250,-1135"/>
<text text-anchor="middle" x="291" y="-1158.8" font-family="Helvetica,sans-Serif" font-size="14.00">FirstFlush</text>
</a>
</g>
</g>
<g id="clust3" class="cluster">
<title>clusternode_Set(3)</title>
<g id="a_clust3"><a xlink:title="PreUpdateFlush">
<polygon fill="white" stroke="black" points="770,-1111 770,-1150 893,-1150 893,-1111 770,-1111"/>
<text text-anchor="middle" x="831.5" y="-1134.8" font-family="Helvetica,sans-Serif" font-size="14.00">PreUpdateFlush</text>
</a>
</g>
</g>
<g id="clust4" class="cluster">
<title>clusternode_Set(4)</title>
<g id="a_clust4"><a xlink:title="UpdateFlush">
<polygon fill="white" stroke="black" points="1262,-1111 1262,-1150 1363,-1150 1363,-1111 1262,-1111"/>
<text text-anchor="middle" x="1312.5" y="-1134.8" font-family="Helvetica,sans-Serif" font-size="14.00">UpdateFlush</text>
</a>
</g>
</g>
<g id="clust5" class="cluster">
<title>clusternode_Set(5)</title>
<g id="a_clust5"><a xlink:title="PostUpdateFlush">
<polygon fill="white" stroke="black" points="1645,-1147 1645,-1186 1774,-1186 1774,-1147 1645,-1147"/>
<text text-anchor="middle" x="1709.5" y="-1170.8" font-family="Helvetica,sans-Serif" font-size="14.00">PostUpdateFlush</text>
</a>
</g>
</g>
<g id="clust6" class="cluster">
<title>clusternode_Set(6)</title>
<g id="a_clust6"><a xlink:title="LastFlush">
<polygon fill="white" stroke="black" points="2006,-1123 2006,-1162 2086,-1162 2086,-1123 2006,-1123"/>
<text text-anchor="middle" x="2046" y="-1146.8" font-family="Helvetica,sans-Serif" font-size="14.00">LastFlush</text>
</a>
</g>
</g>
<g id="clust7" class="cluster">
<title>clusternode_Set(7)</title>
<g id="a_clust7"><a xlink:title="First">
<polygon fill="white" stroke="black" points="0,-1111 0,-1150 46,-1150 46,-1111 0,-1111"/>
<text text-anchor="middle" x="23" y="-1134.8" font-family="Helvetica,sans-Serif" font-size="14.00">First</text>
</a>
</g>
</g>
<g id="clust8" class="cluster">
<title>clusternode_Set(8)</title>
<g id="a_clust8"><a xlink:title="PreUpdate">
<polygon fill="white" stroke="black" points="536,-1057 536,-1150 750,-1150 750,-1057 536,-1057"/>
<text text-anchor="middle" x="643" y="-1134.8" font-family="Helvetica,sans-Serif" font-size="14.00">PreUpdate</text>
</a>
</g>
</g>
<g id="clust9" class="cluster">
<title>clusternode_Set(9)</title>
<g id="a_clust9"><a xlink:title="StateTransitions">
<polygon fill="white" stroke="black" points="913,-1111 913,-1150 1037,-1150 1037,-1111 913,-1111"/>
<text text-anchor="middle" x="975" y="-1134.8" font-family="Helvetica,sans-Serif" font-size="14.00">StateTransitions</text>
</a>
</g>
</g>
<g id="clust10" class="cluster">
<title>clusternode_Set(10)</title>
<g id="a_clust10"><a xlink:title="FixedUpdate">
<polygon fill="white" stroke="black" points="1057,-1111 1057,-1150 1157,-1150 1157,-1111 1057,-1111"/>
<text text-anchor="middle" x="1107" y="-1134.8" font-family="Helvetica,sans-Serif" font-size="14.00">FixedUpdate</text>
</a>
</g>
</g>
<g id="clust11" class="cluster">
<title>clusternode_Set(11)</title>
<g id="a_clust11"><a xlink:title="PostUpdate">
<polygon fill="white" stroke="black" points="1383,-1111 1383,-1150 1476,-1150 1476,-1111 1383,-1111"/>
<text text-anchor="middle" x="1429.5" y="-1134.8" font-family="Helvetica,sans-Serif" font-size="14.00">PostUpdate</text>
</a>
</g>
</g>
<g id="clust12" class="cluster">
<title>clusternode_Set(12)</title>
<g id="a_clust12"><a xlink:title="Last">
<polygon fill="white" stroke="black" points="1942,-1123 1942,-1162 1986,-1162 1986,-1123 1942,-1123"/>
<text text-anchor="middle" x="1964" y="-1146.8" font-family="Helvetica,sans-Serif" font-size="14.00">Last</text>
</a>
</g>
</g>
<g id="clust13" class="cluster">
<title>clusternode_Set(58)</title>
<g id="a_clust13"><a xlink:title="LoadAssets">
<polygon fill="white" stroke="black" points="66,-8 66,-1127 516,-1127 516,-8 66,-8"/>
<text text-anchor="middle" x="291" y="-1111.8" font-family="Helvetica,sans-Serif" font-size="14.00">LoadAssets</text>
</a>
</g>
</g>
<g id="clust14" class="cluster">
<title>clusternode_Set(59)</title>
<g id="a_clust14"><a xlink:title="AssetEvents">
<polygon fill="white" stroke="black" points="1496,-74 1496,-1139 1922,-1139 1922,-74 1496,-74"/>
<text text-anchor="middle" x="1709" y="-1123.8" font-family="Helvetica,sans-Serif" font-size="14.00">AssetEvents</text>
</a>
</g>
</g>
<!-- set_marker_node_Set(0) -->
<!-- set_marker_node_Set(4) -->
<!-- set_marker_node_Set(0)&#45;&gt;set_marker_node_Set(4) -->
<g id="edge7" class="edge">
<title>set_marker_node_Set(0)&#45;&gt;set_marker_node_Set(4)</title>
<g id="a_edge7"><a xlink:title="Update → UpdateFlush">
<path fill="none" stroke="#ee9e44" stroke-width="2" d="M1242,-1119C1244.35,-1119 1246.77,-1119 1249.22,-1119"/>
<polygon fill="#ee9e44" stroke="#ee9e44" stroke-width="2" points="1248.97,-1122.5 1258.97,-1119 1248.97,-1115.5 1248.97,-1122.5"/>
</a>
</g>
</g>
<!-- set_marker_node_Set(2) -->
<!-- set_marker_node_Set(8) -->
<!-- set_marker_node_Set(2)&#45;&gt;set_marker_node_Set(8) -->
<g id="edge2" class="edge">
<title>set_marker_node_Set(2)&#45;&gt;set_marker_node_Set(8)</title>
<g id="a_edge2"><a xlink:title="FirstFlush → PreUpdate">
<path fill="none" stroke="#881877" stroke-width="2" d="M332,-1141.36C376.83,-1139.4 451.68,-1135.78 516,-1131 518.34,-1130.83 520.71,-1130.64 523.1,-1130.46"/>
<polygon fill="#881877" stroke="#881877" stroke-width="2" points="523.3,-1133.95 532.98,-1129.66 522.73,-1126.98 523.3,-1133.95"/>
</a>
</g>
</g>
<!-- set_marker_node_Set(3) -->
<!-- set_marker_node_Set(9) -->
<!-- set_marker_node_Set(3)&#45;&gt;set_marker_node_Set(9) -->
<g id="edge4" class="edge">
<title>set_marker_node_Set(3)&#45;&gt;set_marker_node_Set(9)</title>
<g id="a_edge4"><a xlink:title="PreUpdateFlush → StateTransitions">
<path fill="none" stroke="#aa3a55" stroke-width="2" d="M893,-1119C895.39,-1119 897.8,-1119 900.21,-1119"/>
<polygon fill="#aa3a55" stroke="#aa3a55" stroke-width="2" points="899.98,-1122.5 909.98,-1119 899.98,-1115.5 899.98,-1122.5"/>
</a>
</g>
</g>
<!-- set_marker_node_Set(11) -->
<!-- set_marker_node_Set(4)&#45;&gt;set_marker_node_Set(11) -->
<g id="edge8" class="edge">
<title>set_marker_node_Set(4)&#45;&gt;set_marker_node_Set(11)</title>
<g id="a_edge8"><a xlink:title="UpdateFlush → PostUpdate">
<path fill="none" stroke="#663699" stroke-width="2" d="M1363,-1119C1365.43,-1119 1367.88,-1119 1370.32,-1119"/>
<polygon fill="#663699" stroke="#663699" stroke-width="2" points="1369.98,-1122.5 1379.98,-1119 1369.98,-1115.5 1369.98,-1122.5"/>
</a>
</g>
</g>
<!-- set_marker_node_Set(5) -->
<!-- set_marker_node_Set(12) -->
<!-- set_marker_node_Set(5)&#45;&gt;set_marker_node_Set(12) -->
<g id="edge10" class="edge">
<title>set_marker_node_Set(5)&#45;&gt;set_marker_node_Set(12)</title>
<g id="a_edge10"><a xlink:title="PostUpdateFlush → Last">
<path fill="none" stroke="#22c2bb" stroke-width="2" d="M1774,-1155.16C1816.29,-1154.35 1872.78,-1151.48 1922,-1143 1924.48,-1142.57 1927.01,-1142.05 1929.55,-1141.46"/>
<polygon fill="#22c2bb" stroke="#22c2bb" stroke-width="2" points="1930.32,-1144.88 1939.08,-1138.92 1928.51,-1138.12 1930.32,-1144.88"/>
</a>
</g>
</g>
<!-- set_marker_node_Set(6) -->
<!-- set_marker_node_Set(7) -->
<!-- set_marker_node_Set(7)&#45;&gt;set_marker_node_Set(2) -->
<g id="edge1" class="edge">
<title>set_marker_node_Set(7)&#45;&gt;set_marker_node_Set(2)</title>
<g id="a_edge1"><a xlink:title="First → FirstFlush">
<path fill="none" stroke="#eede00" stroke-width="2" d="M46,-1126.29C52.38,-1128.13 59.41,-1129.9 66,-1131 124.01,-1140.71 191.54,-1143.14 237.16,-1143.5"/>
<polygon fill="#eede00" stroke="#eede00" stroke-width="2" points="236.96,-1147 246.98,-1143.54 236.99,-1140 236.96,-1147"/>
</a>
</g>
</g>
<!-- set_marker_node_Set(58) -->
<!-- set_marker_node_Set(7)&#45;&gt;set_marker_node_Set(58) -->
<g id="edge13" class="edge">
<title>set_marker_node_Set(7)&#45;&gt;set_marker_node_Set(58)</title>
<g id="a_edge13"><a xlink:title="First → LoadAssets">
<path fill="none" stroke="#881877" stroke-width="2" d="M46,-1117.1C48.24,-1116.9 50.63,-1116.7 53.16,-1116.48"/>
<polygon fill="#881877" stroke="#881877" stroke-width="2" points="53.32,-1119.98 62.99,-1115.63 52.72,-1113 53.32,-1119.98"/>
</a>
</g>
</g>
<!-- set_marker_node_Set(8)&#45;&gt;set_marker_node_Set(3) -->
<g id="edge3" class="edge">
<title>set_marker_node_Set(8)&#45;&gt;set_marker_node_Set(3)</title>
<g id="a_edge3"><a xlink:title="PreUpdate → PreUpdateFlush">
<path fill="none" stroke="#00b0cc" stroke-width="2" d="M750,-1119C752.35,-1119 754.68,-1119 757,-1119"/>
<polygon fill="#00b0cc" stroke="#00b0cc" stroke-width="2" points="756.98,-1122.5 766.98,-1119 756.98,-1115.5 756.98,-1122.5"/>
</a>
</g>
</g>
<!-- node_System(47) -->
<g id="node9" class="node">
<title>node_System(47)</title>
<g id="a_node9"><a xlink:title="bevy_asset::asset_server::free_unused_assets_system">
<polygon fill="white" stroke="black" points="742,-1101 544,-1101 544,-1065 742,-1065 742,-1101"/>
<text text-anchor="middle" x="643" y="-1079.3" font-family="Times,serif" font-size="14.00">free_unused_assets_system</text>
</a>
</g>
</g>
<!-- set_marker_node_Set(10) -->
<!-- set_marker_node_Set(9)&#45;&gt;set_marker_node_Set(10) -->
<g id="edge5" class="edge">
<title>set_marker_node_Set(9)&#45;&gt;set_marker_node_Set(10)</title>
<g id="a_edge5"><a xlink:title="StateTransitions → FixedUpdate">
<path fill="none" stroke="#44d488" stroke-width="2" d="M1037,-1119C1039.39,-1119 1041.79,-1119 1044.19,-1119"/>
<polygon fill="#44d488" stroke="#44d488" stroke-width="2" points="1043.98,-1122.5 1053.98,-1119 1043.98,-1115.5 1043.98,-1122.5"/>
</a>
</g>
</g>
<!-- set_marker_node_Set(10)&#45;&gt;set_marker_node_Set(0) -->
<g id="edge6" class="edge">
<title>set_marker_node_Set(10)&#45;&gt;set_marker_node_Set(0)</title>
<g id="a_edge6"><a xlink:title="FixedUpdate → Update">
<path fill="none" stroke="#0090cc" stroke-width="2" d="M1157,-1119C1159.37,-1119 1161.75,-1119 1164.11,-1119"/>
<polygon fill="#0090cc" stroke="#0090cc" stroke-width="2" points="1163.98,-1122.5 1173.98,-1119 1163.98,-1115.5 1163.98,-1122.5"/>
</a>
</g>
</g>
<!-- set_marker_node_Set(11)&#45;&gt;set_marker_node_Set(5) -->
<g id="edge9" class="edge">
<title>set_marker_node_Set(11)&#45;&gt;set_marker_node_Set(5)</title>
<g id="a_edge9"><a xlink:title="PostUpdate → PostUpdateFlush">
<path fill="none" stroke="#3363bb" stroke-width="2" d="M1476,-1137.65C1482.62,-1139.77 1489.42,-1141.65 1496,-1143 1540.56,-1152.16 1591.42,-1155.27 1632.15,-1156.05"/>
<polygon fill="#3363bb" stroke="#3363bb" stroke-width="2" points="1631.93,-1159.54 1641.98,-1156.18 1632.02,-1152.54 1631.93,-1159.54"/>
</a>
</g>
</g>
<!-- set_marker_node_Set(59) -->
<!-- set_marker_node_Set(11)&#45;&gt;set_marker_node_Set(59) -->
<g id="edge14" class="edge">
<title>set_marker_node_Set(11)&#45;&gt;set_marker_node_Set(59)</title>
<g id="a_edge14"><a xlink:title="PostUpdate → AssetEvents">
<path fill="none" stroke="#00b0cc" stroke-width="2" d="M1476,-1117.18C1478.39,-1117.09 1480.84,-1116.99 1483.36,-1116.89"/>
<polygon fill="#00b0cc" stroke="#00b0cc" stroke-width="2" points="1483.12,-1120.4 1492.98,-1116.51 1482.85,-1113.41 1483.12,-1120.4"/>
</a>
</g>
</g>
<!-- set_marker_node_Set(12)&#45;&gt;set_marker_node_Set(6) -->
<g id="edge11" class="edge">
<title>set_marker_node_Set(12)&#45;&gt;set_marker_node_Set(6)</title>
<g id="a_edge11"><a xlink:title="Last → LastFlush">
<path fill="none" stroke="#99d955" stroke-width="2" d="M1986,-1131C1988.31,-1131 1990.74,-1131 1993.23,-1131"/>
<polygon fill="#99d955" stroke="#99d955" stroke-width="2" points="1992.98,-1134.5 2002.98,-1131 1992.98,-1127.5 1992.98,-1134.5"/>
</a>
</g>
</g>
<!-- set_marker_node_Set(58)&#45;&gt;set_marker_node_Set(8) -->
<g id="edge12" class="edge">
<title>set_marker_node_Set(58)&#45;&gt;set_marker_node_Set(8)</title>
<g id="a_edge12"><a xlink:title="LoadAssets → PreUpdate">
<path fill="none" stroke="#eede00" stroke-width="2" d="M516,-1110.72C518.45,-1110.88 520.89,-1111.04 523.31,-1111.2"/>
<polygon fill="#eede00" stroke="#eede00" stroke-width="2" points="522.78,-1114.67 532.98,-1111.84 523.23,-1107.69 522.78,-1114.67"/>
</a>
</g>
</g>
<!-- node_System(48) -->
<g id="node15" class="node">
<title>node_System(48)</title>
<g id="a_node15"><a xlink:title="bevy_asset::io::file_asset_io::filesystem_watcher_system">
<polygon fill="white" stroke="black" points="391,-1078 191,-1078 191,-1042 391,-1042 391,-1078"/>
<text text-anchor="middle" x="291" y="-1056.3" font-family="Times,serif" font-size="14.00">filesystem_watcher_system</text>
</a>
</g>
</g>
<!-- node_System(50) -->
<g id="node16" class="node">
<title>node_System(50)</title>
<g id="a_node16"><a xlink:title="bevy_asset::loader::update_asset_storage_system&lt;bevy_scene::dynamic_scene::DynamicScene&gt;">
<polygon fill="white" stroke="black" points="454,-1024 128,-1024 128,-988 454,-988 454,-1024"/>
<text text-anchor="middle" x="291" y="-1002.3" font-family="Times,serif" font-size="14.00">update_asset_storage_system&lt;DynamicScene&gt;</text>
</a>
</g>
</g>
<!-- node_System(53) -->
<g id="node17" class="node">
<title>node_System(53)</title>
<g id="a_node17"><a xlink:title="bevy_asset::loader::update_asset_storage_system&lt;bevy_scene::scene::Scene&gt;">
<polygon fill="white" stroke="black" points="423.5,-970 158.5,-970 158.5,-934 423.5,-934 423.5,-970"/>
<text text-anchor="middle" x="291" y="-948.3" font-family="Times,serif" font-size="14.00">update_asset_storage_system&lt;Scene&gt;</text>
</a>
</g>
</g>
<!-- node_System(60) -->
<g id="node18" class="node">
<title>node_System(60)</title>
<g id="a_node18"><a xlink:title="bevy_asset::loader::update_asset_storage_system&lt;bevy_render::render_resource::shader::Shader&gt;">
<polygon fill="white" stroke="black" points="428,-916 154,-916 154,-880 428,-880 428,-916"/>
<text text-anchor="middle" x="291" y="-894.3" font-family="Times,serif" font-size="14.00">update_asset_storage_system&lt;Shader&gt;</text>
</a>
</g>
</g>
<!-- node_System(74) -->
<g id="node19" class="node">
<title>node_System(74)</title>
<g id="a_node19"><a xlink:title="bevy_asset::loader::update_asset_storage_system&lt;bevy_render::mesh::mesh::Mesh&gt;">
<polygon fill="white" stroke="black" points="422.5,-862 159.5,-862 159.5,-826 422.5,-826 422.5,-862"/>
<text text-anchor="middle" x="291" y="-840.3" font-family="Times,serif" font-size="14.00">update_asset_storage_system&lt;Mesh&gt;</text>
</a>
</g>
</g>
<!-- node_System(77) -->
<g id="node20" class="node">
<title>node_System(77)</title>
<g id="a_node20"><a xlink:title="bevy_asset::loader::update_asset_storage_system&lt;bevy_render::mesh::mesh::skinning::SkinnedMeshInverseBindposes&gt;">
<polygon fill="white" stroke="black" points="508,-808 74,-808 74,-772 508,-772 508,-808"/>
<text text-anchor="middle" x="291" y="-786.3" font-family="Times,serif" font-size="14.00">update_asset_storage_system&lt;SkinnedMeshInverseBindposes&gt;</text>
</a>
</g>
</g>
<!-- node_System(80) -->
<g id="node21" class="node">
<title>node_System(80)</title>
<g id="a_node21"><a xlink:title="bevy_asset::loader::update_asset_storage_system&lt;bevy_render::texture::image::Image&gt;">
<polygon fill="white" stroke="black" points="425.5,-754 156.5,-754 156.5,-718 425.5,-718 425.5,-754"/>
<text text-anchor="middle" x="291" y="-732.3" font-family="Times,serif" font-size="14.00">update_asset_storage_system&lt;Image&gt;</text>
</a>
</g>
</g>
<!-- node_System(83) -->
<g id="node22" class="node">
<title>node_System(83)</title>
<g id="a_node22"><a xlink:title="bevy_asset::loader::update_asset_storage_system&lt;bevy_sprite::texture_atlas::TextureAtlas&gt;">
<polygon fill="white" stroke="black" points="447.5,-700 134.5,-700 134.5,-664 447.5,-664 447.5,-700"/>
<text text-anchor="middle" x="291" y="-678.3" font-family="Times,serif" font-size="14.00">update_asset_storage_system&lt;TextureAtlas&gt;</text>
</a>
</g>
</g>
<!-- node_System(86) -->
<g id="node23" class="node">
<title>node_System(86)</title>
<g id="a_node23"><a xlink:title="bevy_asset::loader::update_asset_storage_system&lt;bevy_sprite::mesh2d::color_material::ColorMaterial&gt;">
<polygon fill="white" stroke="black" points="451.5,-646 130.5,-646 130.5,-610 451.5,-610 451.5,-646"/>
<text text-anchor="middle" x="291" y="-624.3" font-family="Times,serif" font-size="14.00">update_asset_storage_system&lt;ColorMaterial&gt;</text>
</a>
</g>
</g>
<!-- node_System(89) -->
<g id="node24" class="node">
<title>node_System(89)</title>
<g id="a_node24"><a xlink:title="bevy_asset::loader::update_asset_storage_system&lt;bevy_text::font::Font&gt;">
<polygon fill="white" stroke="black" points="419.5,-592 162.5,-592 162.5,-556 419.5,-556 419.5,-592"/>
<text text-anchor="middle" x="291" y="-570.3" font-family="Times,serif" font-size="14.00">update_asset_storage_system&lt;Font&gt;</text>
</a>
</g>
</g>
<!-- node_System(92) -->
<g id="node25" class="node">
<title>node_System(92)</title>
<g id="a_node25"><a xlink:title="bevy_asset::loader::update_asset_storage_system&lt;bevy_text::font_atlas_set::FontAtlasSet&gt;">
<polygon fill="white" stroke="black" points="446.5,-538 135.5,-538 135.5,-502 446.5,-502 446.5,-538"/>
<text text-anchor="middle" x="291" y="-516.3" font-family="Times,serif" font-size="14.00">update_asset_storage_system&lt;FontAtlasSet&gt;</text>
</a>
</g>
</g>
<!-- node_System(102) -->
<g id="node26" class="node">
<title>node_System(102)</title>
<g id="a_node26"><a xlink:title="bevy_asset::loader::update_asset_storage_system&lt;bevy_pbr::pbr_material::StandardMaterial&gt;">
<polygon fill="white" stroke="black" points="464.5,-484 117.5,-484 117.5,-448 464.5,-448 464.5,-484"/>
<text text-anchor="middle" x="291" y="-462.3" font-family="Times,serif" font-size="14.00">update_asset_storage_system&lt;StandardMaterial&gt;</text>
</a>
</g>
</g>
<!-- node_System(113) -->
<g id="node27" class="node">
<title>node_System(113)</title>
<g id="a_node27"><a xlink:title="bevy_asset::loader::update_asset_storage_system&lt;bevy_gltf::Gltf&gt;">
<polygon fill="white" stroke="black" points="416.5,-430 165.5,-430 165.5,-394 416.5,-394 416.5,-430"/>
<text text-anchor="middle" x="291" y="-408.3" font-family="Times,serif" font-size="14.00">update_asset_storage_system&lt;Gltf&gt;</text>
</a>
</g>
</g>
<!-- node_System(116) -->
<g id="node28" class="node">
<title>node_System(116)</title>
<g id="a_node28"><a xlink:title="bevy_asset::loader::update_asset_storage_system&lt;bevy_gltf::GltfNode&gt;">
<polygon fill="white" stroke="black" points="434,-376 148,-376 148,-340 434,-340 434,-376"/>
<text text-anchor="middle" x="291" y="-354.3" font-family="Times,serif" font-size="14.00">update_asset_storage_system&lt;GltfNode&gt;</text>
</a>
</g>
</g>
<!-- node_System(119) -->
<g id="node29" class="node">
<title>node_System(119)</title>
<g id="a_node29"><a xlink:title="bevy_asset::loader::update_asset_storage_system&lt;bevy_gltf::GltfPrimitive&gt;">
<polygon fill="white" stroke="black" points="448,-322 134,-322 134,-286 448,-286 448,-322"/>
<text text-anchor="middle" x="291" y="-300.3" font-family="Times,serif" font-size="14.00">update_asset_storage_system&lt;GltfPrimitive&gt;</text>
</a>
</g>
</g>
<!-- node_System(122) -->
<g id="node30" class="node">
<title>node_System(122)</title>
<g id="a_node30"><a xlink:title="bevy_asset::loader::update_asset_storage_system&lt;bevy_gltf::GltfMesh&gt;">
<polygon fill="white" stroke="black" points="434.5,-268 147.5,-268 147.5,-232 434.5,-232 434.5,-268"/>
<text text-anchor="middle" x="291" y="-246.3" font-family="Times,serif" font-size="14.00">update_asset_storage_system&lt;GltfMesh&gt;</text>
</a>
</g>
</g>
<!-- node_System(125) -->
<g id="node31" class="node">
<title>node_System(125)</title>
<g id="a_node31"><a xlink:title="bevy_asset::loader::update_asset_storage_system&lt;bevy_audio::audio_source::AudioSource&gt;">
<polygon fill="white" stroke="black" points="447,-214 135,-214 135,-178 447,-178 447,-214"/>
<text text-anchor="middle" x="291" y="-192.3" font-family="Times,serif" font-size="14.00">update_asset_storage_system&lt;AudioSource&gt;</text>
</a>
</g>
</g>
<!-- node_System(128) -->
<g id="node32" class="node">
<title>node_System(128)</title>
<g id="a_node32"><a xlink:title="bevy_asset::loader::update_asset_storage_system&lt;bevy_audio::sinks::AudioSink&gt;">
<polygon fill="white" stroke="black" points="439,-160 143,-160 143,-124 439,-124 439,-160"/>
<text text-anchor="middle" x="291" y="-138.3" font-family="Times,serif" font-size="14.00">update_asset_storage_system&lt;AudioSink&gt;</text>
</a>
</g>
</g>
<!-- node_System(131) -->
<g id="node33" class="node">
<title>node_System(131)</title>
<g id="a_node33"><a xlink:title="bevy_asset::loader::update_asset_storage_system&lt;bevy_audio::sinks::SpatialAudioSink&gt;">
<polygon fill="white" stroke="black" points="462,-106 120,-106 120,-70 462,-70 462,-106"/>
<text text-anchor="middle" x="291" y="-84.3" font-family="Times,serif" font-size="14.00">update_asset_storage_system&lt;SpatialAudioSink&gt;</text>
</a>
</g>
</g>
<!-- node_System(136) -->
<g id="node34" class="node">
<title>node_System(136)</title>
<g id="a_node34"><a xlink:title="bevy_asset::loader::update_asset_storage_system&lt;bevy_animation::AnimationClip&gt;">
<polygon fill="white" stroke="black" points="453,-52 129,-52 129,-16 453,-16 453,-52"/>
<text text-anchor="middle" x="291" y="-30.3" font-family="Times,serif" font-size="14.00">update_asset_storage_system&lt;AnimationClip&gt;</text>
</a>
</g>
</g>
<!-- set_marker_node_Set(59)&#45;&gt;set_marker_node_Set(12) -->
<g id="edge15" class="edge">
<title>set_marker_node_Set(59)&#45;&gt;set_marker_node_Set(12)</title>
<g id="a_edge15"><a xlink:title="AssetEvents → Last">
<path fill="none" stroke="#aa3a55" stroke-width="2" d="M1922,-1127.27C1924.45,-1127.5 1926.82,-1127.71 1929.1,-1127.92"/>
<polygon fill="#aa3a55" stroke="#aa3a55" stroke-width="2" points="1928.71,-1131.4 1938.99,-1128.82 1929.35,-1124.43 1928.71,-1131.4"/>
</a>
</g>
</g>
<!-- node_System(49) -->
<g id="node36" class="node">
<title>node_System(49)</title>
<g id="a_node36"><a xlink:title="bevy_asset::assets::Assets&lt;bevy_scene::dynamic_scene::DynamicScene&gt;::asset_event_system">
<polygon fill="white" stroke="black" points="1860,-1090 1558,-1090 1558,-1054 1860,-1054 1860,-1090"/>
<text text-anchor="middle" x="1709" y="-1068.3" font-family="Times,serif" font-size="14.00">Assets&lt;DynamicScene&gt;asset_event_system</text>
</a>
</g>
</g>
<!-- node_System(52) -->
<g id="node37" class="node">
<title>node_System(52)</title>
<g id="a_node37"><a xlink:title="bevy_asset::assets::Assets&lt;bevy_scene::scene::Scene&gt;::asset_event_system">
<polygon fill="white" stroke="black" points="1829.5,-1036 1588.5,-1036 1588.5,-1000 1829.5,-1000 1829.5,-1036"/>
<text text-anchor="middle" x="1709" y="-1014.3" font-family="Times,serif" font-size="14.00">Assets&lt;Scene&gt;asset_event_system</text>
</a>
</g>
</g>
<!-- node_System(59) -->
<g id="node38" class="node">
<title>node_System(59)</title>
<g id="a_node38"><a xlink:title="bevy_asset::assets::Assets&lt;bevy_render::render_resource::shader::Shader&gt;::asset_event_system">
<polygon fill="white" stroke="black" points="1834,-982 1584,-982 1584,-946 1834,-946 1834,-982"/>
<text text-anchor="middle" x="1709" y="-960.3" font-family="Times,serif" font-size="14.00">Assets&lt;Shader&gt;asset_event_system</text>
</a>
</g>
</g>
<!-- node_System(73) -->
<g id="node39" class="node">
<title>node_System(73)</title>
<g id="a_node39"><a xlink:title="bevy_asset::assets::Assets&lt;bevy_render::mesh::mesh::Mesh&gt;::asset_event_system">
<polygon fill="white" stroke="black" points="1828.5,-928 1589.5,-928 1589.5,-892 1828.5,-892 1828.5,-928"/>
<text text-anchor="middle" x="1709" y="-906.3" font-family="Times,serif" font-size="14.00">Assets&lt;Mesh&gt;asset_event_system</text>
</a>
</g>
</g>
<!-- node_System(76) -->
<g id="node40" class="node">
<title>node_System(76)</title>
<g id="a_node40"><a xlink:title="bevy_asset::assets::Assets&lt;bevy_render::mesh::mesh::skinning::SkinnedMeshInverseBindposes&gt;::asset_event_system">
<polygon fill="white" stroke="black" points="1914,-874 1504,-874 1504,-838 1914,-838 1914,-874"/>
<text text-anchor="middle" x="1709" y="-852.3" font-family="Times,serif" font-size="14.00">Assets&lt;SkinnedMeshInverseBindposes&gt;asset_event_system</text>
</a>
</g>
</g>
<!-- node_System(79) -->
<g id="node41" class="node">
<title>node_System(79)</title>
<g id="a_node41"><a xlink:title="bevy_asset::assets::Assets&lt;bevy_render::texture::image::Image&gt;::asset_event_system">
<polygon fill="white" stroke="black" points="1831.5,-820 1586.5,-820 1586.5,-784 1831.5,-784 1831.5,-820"/>
<text text-anchor="middle" x="1709" y="-798.3" font-family="Times,serif" font-size="14.00">Assets&lt;Image&gt;asset_event_system</text>
</a>
</g>
</g>
<!-- node_System(82) -->
<g id="node42" class="node">
<title>node_System(82)</title>
<g id="a_node42"><a xlink:title="bevy_asset::assets::Assets&lt;bevy_sprite::texture_atlas::TextureAtlas&gt;::asset_event_system">
<polygon fill="white" stroke="black" points="1853.5,-766 1564.5,-766 1564.5,-730 1853.5,-730 1853.5,-766"/>
<text text-anchor="middle" x="1709" y="-744.3" font-family="Times,serif" font-size="14.00">Assets&lt;TextureAtlas&gt;asset_event_system</text>
</a>
</g>
</g>
<!-- node_System(85) -->
<g id="node43" class="node">
<title>node_System(85)</title>
<g id="a_node43"><a xlink:title="bevy_asset::assets::Assets&lt;bevy_sprite::mesh2d::color_material::ColorMaterial&gt;::asset_event_system">
<polygon fill="white" stroke="black" points="1857.5,-712 1560.5,-712 1560.5,-676 1857.5,-676 1857.5,-712"/>
<text text-anchor="middle" x="1709" y="-690.3" font-family="Times,serif" font-size="14.00">Assets&lt;ColorMaterial&gt;asset_event_system</text>
</a>
</g>
</g>
<!-- node_System(88) -->
<g id="node44" class="node">
<title>node_System(88)</title>
<g id="a_node44"><a xlink:title="bevy_asset::assets::Assets&lt;bevy_text::font::Font&gt;::asset_event_system">
<polygon fill="white" stroke="black" points="1825.5,-658 1592.5,-658 1592.5,-622 1825.5,-622 1825.5,-658"/>
<text text-anchor="middle" x="1709" y="-636.3" font-family="Times,serif" font-size="14.00">Assets&lt;Font&gt;asset_event_system</text>
</a>
</g>
</g>
<!-- node_System(91) -->
<g id="node45" class="node">
<title>node_System(91)</title>
<g id="a_node45"><a xlink:title="bevy_asset::assets::Assets&lt;bevy_text::font_atlas_set::FontAtlasSet&gt;::asset_event_system">
<polygon fill="white" stroke="black" points="1852.5,-604 1565.5,-604 1565.5,-568 1852.5,-568 1852.5,-604"/>
<text text-anchor="middle" x="1709" y="-582.3" font-family="Times,serif" font-size="14.00">Assets&lt;FontAtlasSet&gt;asset_event_system</text>
</a>
</g>
</g>
<!-- node_System(101) -->
<g id="node46" class="node">
<title>node_System(101)</title>
<g id="a_node46"><a xlink:title="bevy_asset::assets::Assets&lt;bevy_pbr::pbr_material::StandardMaterial&gt;::asset_event_system">
<polygon fill="white" stroke="black" points="1870.5,-550 1547.5,-550 1547.5,-514 1870.5,-514 1870.5,-550"/>
<text text-anchor="middle" x="1709" y="-528.3" font-family="Times,serif" font-size="14.00">Assets&lt;StandardMaterial&gt;asset_event_system</text>
</a>
</g>
</g>
<!-- node_System(112) -->
<g id="node47" class="node">
<title>node_System(112)</title>
<g id="a_node47"><a xlink:title="bevy_asset::assets::Assets&lt;bevy_gltf::Gltf&gt;::asset_event_system">
<polygon fill="white" stroke="black" points="1822.5,-496 1595.5,-496 1595.5,-460 1822.5,-460 1822.5,-496"/>
<text text-anchor="middle" x="1709" y="-474.3" font-family="Times,serif" font-size="14.00">Assets&lt;Gltf&gt;asset_event_system</text>
</a>
</g>
</g>
<!-- node_System(115) -->
<g id="node48" class="node">
<title>node_System(115)</title>
<g id="a_node48"><a xlink:title="bevy_asset::assets::Assets&lt;bevy_gltf::GltfNode&gt;::asset_event_system">
<polygon fill="white" stroke="black" points="1840,-442 1578,-442 1578,-406 1840,-406 1840,-442"/>
<text text-anchor="middle" x="1709" y="-420.3" font-family="Times,serif" font-size="14.00">Assets&lt;GltfNode&gt;asset_event_system</text>
</a>
</g>
</g>
<!-- node_System(118) -->
<g id="node49" class="node">
<title>node_System(118)</title>
<g id="a_node49"><a xlink:title="bevy_asset::assets::Assets&lt;bevy_gltf::GltfPrimitive&gt;::asset_event_system">
<polygon fill="white" stroke="black" points="1854,-388 1564,-388 1564,-352 1854,-352 1854,-388"/>
<text text-anchor="middle" x="1709" y="-366.3" font-family="Times,serif" font-size="14.00">Assets&lt;GltfPrimitive&gt;asset_event_system</text>
</a>
</g>
</g>
<!-- node_System(121) -->
<g id="node50" class="node">
<title>node_System(121)</title>
<g id="a_node50"><a xlink:title="bevy_asset::assets::Assets&lt;bevy_gltf::GltfMesh&gt;::asset_event_system">
<polygon fill="white" stroke="black" points="1840.5,-334 1577.5,-334 1577.5,-298 1840.5,-298 1840.5,-334"/>
<text text-anchor="middle" x="1709" y="-312.3" font-family="Times,serif" font-size="14.00">Assets&lt;GltfMesh&gt;asset_event_system</text>
</a>
</g>
</g>
<!-- node_System(124) -->
<g id="node51" class="node">
<title>node_System(124)</title>
<g id="a_node51"><a xlink:title="bevy_asset::assets::Assets&lt;bevy_audio::audio_source::AudioSource&gt;::asset_event_system">
<polygon fill="white" stroke="black" points="1853,-280 1565,-280 1565,-244 1853,-244 1853,-280"/>
<text text-anchor="middle" x="1709" y="-258.3" font-family="Times,serif" font-size="14.00">Assets&lt;AudioSource&gt;asset_event_system</text>
</a>
</g>
</g>
<!-- node_System(127) -->
<g id="node52" class="node">
<title>node_System(127)</title>
<g id="a_node52"><a xlink:title="bevy_asset::assets::Assets&lt;bevy_audio::sinks::AudioSink&gt;::asset_event_system">
<polygon fill="white" stroke="black" points="1845,-226 1573,-226 1573,-190 1845,-190 1845,-226"/>
<text text-anchor="middle" x="1709" y="-204.3" font-family="Times,serif" font-size="14.00">Assets&lt;AudioSink&gt;asset_event_system</text>
</a>
</g>
</g>
<!-- node_System(130) -->
<g id="node53" class="node">
<title>node_System(130)</title>
<g id="a_node53"><a xlink:title="bevy_asset::assets::Assets&lt;bevy_audio::sinks::SpatialAudioSink&gt;::asset_event_system">
<polygon fill="white" stroke="black" points="1868,-172 1550,-172 1550,-136 1868,-136 1868,-172"/>
<text text-anchor="middle" x="1709" y="-150.3" font-family="Times,serif" font-size="14.00">Assets&lt;SpatialAudioSink&gt;asset_event_system</text>
</a>
</g>
</g>
<!-- node_System(135) -->
<g id="node54" class="node">
<title>node_System(135)</title>
<g id="a_node54"><a xlink:title="bevy_asset::assets::Assets&lt;bevy_animation::AnimationClip&gt;::asset_event_system">
<polygon fill="white" stroke="black" points="1859,-118 1559,-118 1559,-82 1859,-82 1859,-118"/>
<text text-anchor="middle" x="1709" y="-96.3" font-family="Times,serif" font-size="14.00">Assets&lt;AnimationClip&gt;asset_event_system</text>
</a>
</g>
</g>
</g>
</svg>
