<?xml version="1.0" encoding="UTF-8" standalone="no"?>
<!DOCTYPE svg PUBLIC "-//W3C//DTD SVG 1.1//EN"
 "http://www.w3.org/Graphics/SVG/1.1/DTD/svg11.dtd">
<!-- Generated by graphviz version 7.1.0 (0)
 -->
<!-- Pages: 1 -->
<svg width="1553pt" height="266pt"
 viewBox="0.00 0.00 1552.50 266.00" xmlns="http://www.w3.org/2000/svg" xmlns:xlink="http://www.w3.org/1999/xlink">
<g id="graph0" class="graph" transform="scale(1 1) rotate(0) translate(4 262)">
<polygon fill="white" stroke="none" points="-4,4 -4,-262 1548.5,-262 1548.5,4 -4,4"/>
<g id="clust1" class="cluster">
<title>clusternode_Set(0)</title>
<g id="a_clust1"><a xlink:title="Update">
<polygon fill="white" stroke="black" points="932.5,-62 932.5,-101 997.5,-101 997.5,-62 932.5,-62"/>
<text text-anchor="middle" x="965" y="-85.8" font-family="Helvetica,sans-Serif" font-size="14.00">Update</text>
</a>
</g>
</g>
<g id="clust2" class="cluster">
<title>clusternode_Set(2)</title>
<g id="a_clust2"><a xlink:title="FirstFlush">
<polygon fill="white" stroke="black" points="195.5,-85 195.5,-124 277.5,-124 277.5,-85 195.5,-85"/>
<text text-anchor="middle" x="236.5" y="-108.8" font-family="Helvetica,sans-Serif" font-size="14.00">FirstFlush</text>
</a>
</g>
</g>
<g id="clust3" class="cluster">
<title>clusternode_Set(3)</title>
<g id="a_clust3"><a xlink:title="PreUpdateFlush">
<polygon fill="white" stroke="black" points="409.5,-62 409.5,-101 532.5,-101 532.5,-62 409.5,-62"/>
<text text-anchor="middle" x="471" y="-85.8" font-family="Helvetica,sans-Serif" font-size="14.00">PreUpdateFlush</text>
</a>
</g>
</g>
<g id="clust4" class="cluster">
<title>clusternode_Set(4)</title>
<g id="a_clust4"><a xlink:title="UpdateFlush">
<polygon fill="white" stroke="black" points="1017.5,-62 1017.5,-101 1118.5,-101 1118.5,-62 1017.5,-62"/>
<text text-anchor="middle" x="1068" y="-85.8" font-family="Helvetica,sans-Serif" font-size="14.00">UpdateFlush</text>
</a>
</g>
</g>
<g id="clust5" class="cluster">
<title>clusternode_Set(5)</title>
<g id="a_clust5"><a xlink:title="PostUpdateFlush">
<polygon fill="white" stroke="black" points="1251.5,-86 1251.5,-125 1380.5,-125 1380.5,-86 1251.5,-86"/>
<text text-anchor="middle" x="1316" y="-109.8" font-family="Helvetica,sans-Serif" font-size="14.00">PostUpdateFlush</text>
</a>
</g>
</g>
<g id="clust6" class="cluster">
<title>clusternode_Set(6)</title>
<g id="a_clust6"><a xlink:title="LastFlush">
<polygon fill="white" stroke="black" points="1464.5,-62 1464.5,-101 1544.5,-101 1544.5,-62 1464.5,-62"/>
<text text-anchor="middle" x="1504.5" y="-85.8" font-family="Helvetica,sans-Serif" font-size="14.00">LastFlush</text>
</a>
</g>
</g>
<g id="clust7" class="cluster">
<title>clusternode_Set(7)</title>
<g id="a_clust7"><a xlink:title="First">
<polygon fill="white" stroke="black" points="23.5,-61 23.5,-203 156.5,-203 156.5,-61 23.5,-61"/>
<text text-anchor="middle" x="90" y="-187.8" font-family="Helvetica,sans-Serif" font-size="14.00">First</text>
</a>
</g>
</g>
<g id="clust8" class="cluster">
<title>clusternode_Set(16)</title>
<g id="a_clust8"><a xlink:title="TimeSystem">
<polygon fill="white" stroke="black" points="31.5,-79 31.5,-172 148.5,-172 148.5,-79 31.5,-79"/>
<text text-anchor="middle" x="90" y="-156.8" font-family="Helvetica,sans-Serif" font-size="14.00">TimeSystem</text>
</a>
</g>
</g>
<g id="clust9" class="cluster">
<title>clusternode_Set(8)</title>
<g id="a_clust9"><a xlink:title="PreUpdate">
<polygon fill="white" stroke="black" points="302.5,-62 302.5,-101 389.5,-101 389.5,-62 302.5,-62"/>
<text text-anchor="middle" x="346" y="-85.8" font-family="Helvetica,sans-Serif" font-size="14.00">PreUpdate</text>
</a>
</g>
</g>
<g id="clust10" class="cluster">
<title>clusternode_Set(9)</title>
<g id="a_clust10"><a xlink:title="StateTransitions">
<polygon fill="white" stroke="black" points="552.5,-62 552.5,-101 676.5,-101 676.5,-62 552.5,-62"/>
<text text-anchor="middle" x="614.5" y="-85.8" font-family="Helvetica,sans-Serif" font-size="14.00">StateTransitions</text>
</a>
</g>
</g>
<g id="clust11" class="cluster">
<title>clusternode_Set(10)</title>
<g id="a_clust11"><a xlink:title="FixedUpdate">
<polygon fill="white" stroke="black" points="696.5,-8 696.5,-101 912.5,-101 912.5,-8 696.5,-8"/>
<text text-anchor="middle" x="804.5" y="-85.8" font-family="Helvetica,sans-Serif" font-size="14.00">FixedUpdate</text>
</a>
</g>
</g>
<g id="clust12" class="cluster">
<title>clusternode_Set(11)</title>
<g id="a_clust12"><a xlink:title="PostUpdate">
<polygon fill="white" stroke="black" points="1138.5,-62 1138.5,-101 1231.5,-101 1231.5,-62 1138.5,-62"/>
<text text-anchor="middle" x="1185" y="-85.8" font-family="Helvetica,sans-Serif" font-size="14.00">PostUpdate</text>
</a>
</g>
</g>
<g id="clust13" class="cluster">
<title>clusternode_Set(12)</title>
<g id="a_clust13"><a xlink:title="Last">
<polygon fill="white" stroke="black" points="1400.5,-62 1400.5,-101 1444.5,-101 1444.5,-62 1400.5,-62"/>
<text text-anchor="middle" x="1422.5" y="-85.8" font-family="Helvetica,sans-Serif" font-size="14.00">Last</text>
</a>
</g>
</g>
<g id="clust14" class="cluster">
<title>clusternode_Set(22)</title>
<g id="a_clust14"><a xlink:title="PropagateTransformsSet">
<polygon fill="white" stroke="black" points="0,-211 0,-250 180,-250 180,-211 0,-211"/>
<text text-anchor="middle" x="90" y="-234.8" font-family="Helvetica,sans-Serif" font-size="14.00">PropagateTransformsSet</text>
</a>
</g>
</g>
<g id="clust15" class="cluster">
<title>clusternode_Set(59)</title>
<g id="a_clust15"><a xlink:title="LoadAssets">
<polygon fill="white" stroke="black" points="191.5,-38 191.5,-77 282.5,-77 282.5,-38 191.5,-38"/>
<text text-anchor="middle" x="237" y="-61.8" font-family="Helvetica,sans-Serif" font-size="14.00">LoadAssets</text>
</a>
</g>
</g>
<g id="clust16" class="cluster">
<title>clusternode_Set(60)</title>
<g id="a_clust16"><a xlink:title="AssetEvents">
<polygon fill="white" stroke="black" points="1267.5,-39 1267.5,-78 1363.5,-78 1363.5,-39 1267.5,-39"/>
<text text-anchor="middle" x="1315.5" y="-62.8" font-family="Helvetica,sans-Serif" font-size="14.00">AssetEvents</text>
</a>
</g>
</g>
<!-- set_marker_node_Set(0) -->
<!-- set_marker_node_Set(4) -->
<!-- set_marker_node_Set(0)&#45;&gt;set_marker_node_Set(4) -->
<g id="edge7" class="edge">
<title>set_marker_node_Set(0)&#45;&gt;set_marker_node_Set(4)</title>
<g id="a_edge7"><a xlink:title="Update → UpdateFlush">
<path fill="none" stroke="#ee9e44" stroke-width="2" d="M997.5,-70C999.85,-70 1002.27,-70 1004.72,-70"/>
<polygon fill="#ee9e44" stroke="#ee9e44" stroke-width="2" points="1004.47,-73.5 1014.47,-70 1004.47,-66.5 1004.47,-73.5"/>
</a>
</g>
</g>
<!-- set_marker_node_Set(2) -->
<!-- set_marker_node_Set(8) -->
<!-- set_marker_node_Set(2)&#45;&gt;set_marker_node_Set(8) -->
<g id="edge2" class="edge">
<title>set_marker_node_Set(2)&#45;&gt;set_marker_node_Set(8)</title>
<g id="a_edge2"><a xlink:title="FirstFlush → PreUpdate">
<path fill="none" stroke="#881877" stroke-width="2" d="M274.7,-85C279.67,-83.94 284.84,-82.82 290.02,-81.71"/>
<polygon fill="#881877" stroke="#881877" stroke-width="2" points="290.5,-85.19 299.54,-79.66 289.03,-78.34 290.5,-85.19"/>
</a>
</g>
</g>
<!-- set_marker_node_Set(3) -->
<!-- set_marker_node_Set(9) -->
<!-- set_marker_node_Set(3)&#45;&gt;set_marker_node_Set(9) -->
<g id="edge4" class="edge">
<title>set_marker_node_Set(3)&#45;&gt;set_marker_node_Set(9)</title>
<g id="a_edge4"><a xlink:title="PreUpdateFlush → StateTransitions">
<path fill="none" stroke="#aa3a55" stroke-width="2" d="M532.5,-70C534.89,-70 537.3,-70 539.71,-70"/>
<polygon fill="#aa3a55" stroke="#aa3a55" stroke-width="2" points="539.48,-73.5 549.48,-70 539.48,-66.5 539.48,-73.5"/>
</a>
</g>
</g>
<!-- set_marker_node_Set(11) -->
<!-- set_marker_node_Set(4)&#45;&gt;set_marker_node_Set(11) -->
<g id="edge8" class="edge">
<title>set_marker_node_Set(4)&#45;&gt;set_marker_node_Set(11)</title>
<g id="a_edge8"><a xlink:title="UpdateFlush → PostUpdate">
<path fill="none" stroke="#663699" stroke-width="2" d="M1118.5,-70C1120.93,-70 1123.38,-70 1125.82,-70"/>
<polygon fill="#663699" stroke="#663699" stroke-width="2" points="1125.48,-73.5 1135.48,-70 1125.48,-66.5 1125.48,-73.5"/>
</a>
</g>
</g>
<!-- set_marker_node_Set(5) -->
<!-- set_marker_node_Set(12) -->
<!-- set_marker_node_Set(5)&#45;&gt;set_marker_node_Set(12) -->
<g id="edge10" class="edge">
<title>set_marker_node_Set(5)&#45;&gt;set_marker_node_Set(12)</title>
<g id="a_edge10"><a xlink:title="PostUpdateFlush → Last">
<path fill="none" stroke="#22c2bb" stroke-width="2" d="M1362.21,-86C1368.38,-84.76 1374.61,-83.41 1380.5,-82 1382.96,-81.41 1385.49,-80.77 1388.02,-80.09"/>
<polygon fill="#22c2bb" stroke="#22c2bb" stroke-width="2" points="1388.91,-83.48 1397.59,-77.4 1387.01,-76.74 1388.91,-83.48"/>
</a>
</g>
</g>
<!-- set_marker_node_Set(6) -->
<!-- set_marker_node_Set(7) -->
<!-- set_marker_node_Set(7)&#45;&gt;set_marker_node_Set(2) -->
<g id="edge1" class="edge">
<title>set_marker_node_Set(7)&#45;&gt;set_marker_node_Set(2)</title>
<g id="a_edge1"><a xlink:title="First → FirstFlush">
<path fill="none" stroke="#eede00" stroke-width="2" d="M156.5,-70.31C164.5,-71.38 172.49,-72.89 180,-75 183.82,-76.07 185.28,-77.51 191.32,-80.29"/>
<polygon fill="#eede00" stroke="#eede00" stroke-width="2" points="189.65,-83.39 200.23,-83.87 192.26,-76.89 189.65,-83.39"/>
</a>
</g>
</g>
<!-- set_marker_node_Set(59) -->
<!-- set_marker_node_Set(7)&#45;&gt;set_marker_node_Set(59) -->
<g id="edge13" class="edge">
<title>set_marker_node_Set(7)&#45;&gt;set_marker_node_Set(59)</title>
<g id="a_edge13"><a xlink:title="First → LoadAssets">
<path fill="none" stroke="#881877" stroke-width="2" d="M141.24,-61C153.35,-59.08 166.36,-57 178.74,-55.03"/>
<polygon fill="#881877" stroke="#881877" stroke-width="2" points="179.19,-58.51 188.51,-53.48 178.09,-51.59 179.19,-58.51"/>
</a>
</g>
</g>
<!-- set_marker_node_Set(16) -->
<!-- node_System(8) -->
<g id="node9" class="node">
<title>node_System(8)</title>
<g id="a_node9"><a xlink:title="bevy_time::time_system">
<polygon fill="white" stroke="black" points="140.5,-123 39.5,-123 39.5,-87 140.5,-87 140.5,-123"/>
<text text-anchor="middle" x="90" y="-101.3" font-family="Times,serif" font-size="14.00">time_system</text>
</a>
</g>
</g>
<!-- set_marker_node_Set(8)&#45;&gt;set_marker_node_Set(3) -->
<g id="edge3" class="edge">
<title>set_marker_node_Set(8)&#45;&gt;set_marker_node_Set(3)</title>
<g id="a_edge3"><a xlink:title="PreUpdate → PreUpdateFlush">
<path fill="none" stroke="#00b0cc" stroke-width="2" d="M389.5,-70C391.89,-70 394.32,-70 396.78,-70"/>
<polygon fill="#00b0cc" stroke="#00b0cc" stroke-width="2" points="396.48,-73.5 406.48,-70 396.48,-66.5 396.48,-73.5"/>
</a>
</g>
</g>
<!-- set_marker_node_Set(10) -->
<!-- set_marker_node_Set(9)&#45;&gt;set_marker_node_Set(10) -->
<g id="edge5" class="edge">
<title>set_marker_node_Set(9)&#45;&gt;set_marker_node_Set(10)</title>
<g id="a_edge5"><a xlink:title="StateTransitions → FixedUpdate">
<path fill="none" stroke="#44d488" stroke-width="2" d="M676.5,-70C678.88,-70 681.29,-70 683.73,-70"/>
<polygon fill="#44d488" stroke="#44d488" stroke-width="2" points="683.48,-73.5 693.48,-70 683.48,-66.5 683.48,-73.5"/>
</a>
</g>
</g>
<!-- set_marker_node_Set(10)&#45;&gt;set_marker_node_Set(0) -->
<g id="edge6" class="edge">
<title>set_marker_node_Set(10)&#45;&gt;set_marker_node_Set(0)</title>
<g id="a_edge6"><a xlink:title="FixedUpdate → Update">
<path fill="none" stroke="#0090cc" stroke-width="2" d="M912.5,-70C914.92,-70 917.31,-70 919.64,-70"/>
<polygon fill="#0090cc" stroke="#0090cc" stroke-width="2" points="919.48,-73.5 929.48,-70 919.48,-66.5 919.48,-73.5"/>
</a>
</g>
</g>
<!-- node_System(9) -->
<g id="node13" class="node">
<title>node_System(9)</title>
<g id="a_node13"><a xlink:title="bevy_time::fixed_timestep::run_fixed_update_schedule">
<polygon fill="white" stroke="black" points="904.5,-52 704.5,-52 704.5,-16 904.5,-16 904.5,-52"/>
<text text-anchor="middle" x="804.5" y="-30.3" font-family="Times,serif" font-size="14.00">run_fixed_update_schedule</text>
</a>
</g>
</g>
<!-- set_marker_node_Set(11)&#45;&gt;set_marker_node_Set(5) -->
<g id="edge9" class="edge">
<title>set_marker_node_Set(11)&#45;&gt;set_marker_node_Set(5)</title>
<g id="a_edge9"><a xlink:title="PostUpdate → PostUpdateFlush">
<path fill="none" stroke="#3363bb" stroke-width="2" d="M1231.5,-78.56C1240.33,-80.2 1249.66,-81.94 1258.76,-83.63"/>
<polygon fill="#3363bb" stroke="#3363bb" stroke-width="2" points="1258.06,-87.06 1268.54,-85.45 1259.34,-80.18 1258.06,-87.06"/>
</a>
</g>
</g>
<!-- set_marker_node_Set(60) -->
<!-- set_marker_node_Set(11)&#45;&gt;set_marker_node_Set(60) -->
<g id="edge14" class="edge">
<title>set_marker_node_Set(11)&#45;&gt;set_marker_node_Set(60)</title>
<g id="a_edge14"><a xlink:title="PostUpdate → AssetEvents">
<path fill="none" stroke="#00b0cc" stroke-width="2" d="M1230.37,-62C1238.34,-60.58 1246.76,-59.08 1255.07,-57.6"/>
<polygon fill="#00b0cc" stroke="#00b0cc" stroke-width="2" points="1255.29,-61.11 1264.52,-55.91 1254.06,-54.22 1255.29,-61.11"/>
</a>
</g>
</g>
<!-- set_marker_node_Set(12)&#45;&gt;set_marker_node_Set(6) -->
<g id="edge11" class="edge">
<title>set_marker_node_Set(12)&#45;&gt;set_marker_node_Set(6)</title>
<g id="a_edge11"><a xlink:title="Last → LastFlush">
<path fill="none" stroke="#99d955" stroke-width="2" d="M1444.5,-70C1446.81,-70 1449.24,-70 1451.73,-70"/>
<polygon fill="#99d955" stroke="#99d955" stroke-width="2" points="1451.48,-73.5 1461.48,-70 1451.48,-66.5 1451.48,-73.5"/>
</a>
</g>
</g>
<!-- set_marker_node_Set(22) -->
<!-- set_marker_node_Set(59)&#45;&gt;set_marker_node_Set(8) -->
<g id="edge12" class="edge">
<title>set_marker_node_Set(59)&#45;&gt;set_marker_node_Set(8)</title>
<g id="a_edge12"><a xlink:title="LoadAssets → PreUpdate">
<path fill="none" stroke="#eede00" stroke-width="2" d="M282.5,-56.09C287.1,-57.12 291.78,-58.18 296.41,-59.21"/>
<polygon fill="#eede00" stroke="#eede00" stroke-width="2" points="295.37,-62.57 305.89,-61.34 296.9,-55.74 295.37,-62.57"/>
</a>
</g>
</g>
<!-- set_marker_node_Set(60)&#45;&gt;set_marker_node_Set(12) -->
<g id="edge15" class="edge">
<title>set_marker_node_Set(60)&#45;&gt;set_marker_node_Set(12)</title>
<g id="a_edge15"><a xlink:title="AssetEvents → Last">
<path fill="none" stroke="#aa3a55" stroke-width="2" d="M1363.5,-57.29C1371.75,-59.1 1380.19,-60.95 1387.98,-62.66"/>
<polygon fill="#aa3a55" stroke="#aa3a55" stroke-width="2" points="1387.03,-66.03 1397.54,-64.75 1388.52,-59.19 1387.03,-66.03"/>
</a>
</g>
</g>
</g>
</svg>
