<?xml version="1.0" encoding="UTF-8" standalone="no"?>
<!DOCTYPE svg PUBLIC "-//W3C//DTD SVG 1.1//EN"
 "http://www.w3.org/Graphics/SVG/1.1/DTD/svg11.dtd">
<!-- Generated by graphviz version 7.1.0 (0)
 -->
<!-- Pages: 1 -->
<svg width="1531pt" height="110pt"
 viewBox="0.00 0.00 1531.00 110.00" xmlns="http://www.w3.org/2000/svg" xmlns:xlink="http://www.w3.org/1999/xlink">
<g id="graph0" class="graph" transform="scale(1 1) rotate(0) translate(4 106)">
<polygon fill="white" stroke="none" points="-4,4 -4,-106 1527,-106 1527,4 -4,4"/>
<g id="clust1" class="cluster">
<title>clusternode_Set(0)</title>
<g id="a_clust1"><a xlink:title="Update">
<path fill="#000000" fill-opacity="0.031373" stroke="#000000" stroke-width="2" stroke-opacity="0.250980" d="M703,-55C703,-55 744,-55 744,-55 750,-55 756,-61 756,-67 756,-67 756,-82 756,-82 756,-88 750,-94 744,-94 744,-94 703,-94 703,-94 697,-94 691,-88 691,-82 691,-82 691,-67 691,-67 691,-61 697,-55 703,-55"/>
<text text-anchor="middle" x="723.5" y="-78.8" font-family="Helvetica,sans-Serif" font-size="14.00">Update</text>
</a>
</g>
</g>
<g id="clust2" class="cluster">
<title>clusternode_Set(2)</title>
<g id="a_clust2"><a xlink:title="FirstFlush">
<path fill="#000000" fill-opacity="0.031373" stroke="#000000" stroke-width="2" stroke-opacity="0.250980" d="M82,-55C82,-55 140,-55 140,-55 146,-55 152,-61 152,-67 152,-67 152,-82 152,-82 152,-88 146,-94 140,-94 140,-94 82,-94 82,-94 76,-94 70,-88 70,-82 70,-82 70,-67 70,-67 70,-61 76,-55 82,-55"/>
<text text-anchor="middle" x="111" y="-78.8" font-family="Helvetica,sans-Serif" font-size="14.00">FirstFlush</text>
</a>
</g>
</g>
<g id="clust3" class="cluster">
<title>clusternode_Set(3)</title>
<g id="a_clust3"><a xlink:title="PreUpdateFlush">
<path fill="#000000" fill-opacity="0.031373" stroke="#000000" stroke-width="2" stroke-opacity="0.250980" d="M296,-55C296,-55 395,-55 395,-55 401,-55 407,-61 407,-67 407,-67 407,-82 407,-82 407,-88 401,-94 395,-94 395,-94 296,-94 296,-94 290,-94 284,-88 284,-82 284,-82 284,-67 284,-67 284,-61 290,-55 296,-55"/>
<text text-anchor="middle" x="345.5" y="-78.8" font-family="Helvetica,sans-Serif" font-size="14.00">PreUpdateFlush</text>
</a>
</g>
</g>
<g id="clust4" class="cluster">
<title>clusternode_Set(4)</title>
<g id="a_clust4"><a xlink:title="UpdateFlush">
<path fill="#000000" fill-opacity="0.031373" stroke="#000000" stroke-width="2" stroke-opacity="0.250980" d="M788,-55C788,-55 865,-55 865,-55 871,-55 877,-61 877,-67 877,-67 877,-82 877,-82 877,-88 871,-94 865,-94 865,-94 788,-94 788,-94 782,-94 776,-88 776,-82 776,-82 776,-67 776,-67 776,-61 782,-55 788,-55"/>
<text text-anchor="middle" x="826.5" y="-78.8" font-family="Helvetica,sans-Serif" font-size="14.00">UpdateFlush</text>
</a>
</g>
</g>
<g id="clust5" class="cluster">
<title>clusternode_Set(5)</title>
<g id="a_clust5"><a xlink:title="PostUpdateFlush">
<path fill="#000000" fill-opacity="0.031373" stroke="#000000" stroke-width="2" stroke-opacity="0.250980" d="M1242,-55C1242,-55 1347,-55 1347,-55 1353,-55 1359,-61 1359,-67 1359,-67 1359,-82 1359,-82 1359,-88 1353,-94 1347,-94 1347,-94 1242,-94 1242,-94 1236,-94 1230,-88 1230,-82 1230,-82 1230,-67 1230,-67 1230,-61 1236,-55 1242,-55"/>
<text text-anchor="middle" x="1294.5" y="-78.8" font-family="Helvetica,sans-Serif" font-size="14.00">PostUpdateFlush</text>
</a>
</g>
</g>
<g id="clust6" class="cluster">
<title>clusternode_Set(6)</title>
<g id="a_clust6"><a xlink:title="LastFlush">
<path fill="#000000" fill-opacity="0.031373" stroke="#000000" stroke-width="2" stroke-opacity="0.250980" d="M1455,-31C1455,-31 1511,-31 1511,-31 1517,-31 1523,-37 1523,-43 1523,-43 1523,-58 1523,-58 1523,-64 1517,-70 1511,-70 1511,-70 1455,-70 1455,-70 1449,-70 1443,-64 1443,-58 1443,-58 1443,-43 1443,-43 1443,-37 1449,-31 1455,-31"/>
<text text-anchor="middle" x="1483" y="-54.8" font-family="Helvetica,sans-Serif" font-size="14.00">LastFlush</text>
</a>
</g>
</g>
<g id="clust7" class="cluster">
<title>clusternode_Set(7)</title>
<g id="a_clust7"><a xlink:title="First">
<path fill="#000000" fill-opacity="0.031373" stroke="#000000" stroke-width="2" stroke-opacity="0.250980" d="M12,-31C12,-31 34,-31 34,-31 40,-31 46,-37 46,-43 46,-43 46,-58 46,-58 46,-64 40,-70 34,-70 34,-70 12,-70 12,-70 6,-70 0,-64 0,-58 0,-58 0,-43 0,-43 0,-37 6,-31 12,-31"/>
<text text-anchor="middle" x="23" y="-54.8" font-family="Helvetica,sans-Serif" font-size="14.00">First</text>
</a>
</g>
</g>
<g id="clust8" class="cluster">
<title>clusternode_Set(8)</title>
<g id="a_clust8"><a xlink:title="PreUpdate">
<path fill="#000000" fill-opacity="0.031373" stroke="#000000" stroke-width="2" stroke-opacity="0.250980" d="M189,-55C189,-55 252,-55 252,-55 258,-55 264,-61 264,-67 264,-67 264,-82 264,-82 264,-88 258,-94 252,-94 252,-94 189,-94 189,-94 183,-94 177,-88 177,-82 177,-82 177,-67 177,-67 177,-61 183,-55 189,-55"/>
<text text-anchor="middle" x="220.5" y="-78.8" font-family="Helvetica,sans-Serif" font-size="14.00">PreUpdate</text>
</a>
</g>
</g>
<g id="clust9" class="cluster">
<title>clusternode_Set(9)</title>
<g id="a_clust9"><a xlink:title="StateTransitions">
<path fill="#000000" fill-opacity="0.031373" stroke="#000000" stroke-width="2" stroke-opacity="0.250980" d="M439,-55C439,-55 539,-55 539,-55 545,-55 551,-61 551,-67 551,-67 551,-82 551,-82 551,-88 545,-94 539,-94 539,-94 439,-94 439,-94 433,-94 427,-88 427,-82 427,-82 427,-67 427,-67 427,-61 433,-55 439,-55"/>
<text text-anchor="middle" x="489" y="-78.8" font-family="Helvetica,sans-Serif" font-size="14.00">StateTransitions</text>
</a>
</g>
</g>
<g id="clust10" class="cluster">
<title>clusternode_Set(10)</title>
<g id="a_clust10"><a xlink:title="FixedUpdate">
<path fill="#000000" fill-opacity="0.031373" stroke="#000000" stroke-width="2" stroke-opacity="0.250980" d="M583,-55C583,-55 659,-55 659,-55 665,-55 671,-61 671,-67 671,-67 671,-82 671,-82 671,-88 665,-94 659,-94 659,-94 583,-94 583,-94 577,-94 571,-88 571,-82 571,-82 571,-67 571,-67 571,-61 577,-55 583,-55"/>
<text text-anchor="middle" x="621" y="-78.8" font-family="Helvetica,sans-Serif" font-size="14.00">FixedUpdate</text>
</a>
</g>
</g>
<g id="clust11" class="cluster">
<title>clusternode_Set(11)</title>
<g id="a_clust11"><a xlink:title="PostUpdate">
<path fill="#000000" fill-opacity="0.031373" stroke="#000000" stroke-width="2" stroke-opacity="0.250980" d="M909,-8C909,-8 1198,-8 1198,-8 1204,-8 1210,-14 1210,-20 1210,-20 1210,-82 1210,-82 1210,-88 1204,-94 1198,-94 1198,-94 909,-94 909,-94 903,-94 897,-88 897,-82 897,-82 897,-20 897,-20 897,-14 903,-8 909,-8"/>
<text text-anchor="middle" x="1053.5" y="-78.8" font-family="Helvetica,sans-Serif" font-size="14.00">PostUpdate</text>
</a>
</g>
</g>
<g id="clust12" class="cluster">
<title>clusternode_Set(12)</title>
<g id="a_clust12"><a xlink:title="Last">
<path fill="#000000" fill-opacity="0.031373" stroke="#000000" stroke-width="2" stroke-opacity="0.250980" d="M1391,-31C1391,-31 1411,-31 1411,-31 1417,-31 1423,-37 1423,-43 1423,-43 1423,-58 1423,-58 1423,-64 1417,-70 1411,-70 1411,-70 1391,-70 1391,-70 1385,-70 1379,-64 1379,-58 1379,-58 1379,-43 1379,-43 1379,-37 1385,-31 1391,-31"/>
<text text-anchor="middle" x="1401" y="-54.8" font-family="Helvetica,sans-Serif" font-size="14.00">Last</text>
</a>
</g>
</g>
<g id="clust13" class="cluster">
<title>clusternode_Set(59)</title>
<g id="a_clust13"><a xlink:title="LoadAssets">
<path fill="#000000" fill-opacity="0.031373" stroke="#000000" stroke-width="2" stroke-opacity="0.250980" d="M78,-8C78,-8 145,-8 145,-8 151,-8 157,-14 157,-20 157,-20 157,-35 157,-35 157,-41 151,-47 145,-47 145,-47 78,-47 78,-47 72,-47 66,-41 66,-35 66,-35 66,-20 66,-20 66,-14 72,-8 78,-8"/>
<text text-anchor="middle" x="111.5" y="-31.8" font-family="Helvetica,sans-Serif" font-size="14.00">LoadAssets</text>
</a>
</g>
</g>
<g id="clust14" class="cluster">
<title>clusternode_Set(60)</title>
<g id="a_clust14"><a xlink:title="AssetEvents">
<path fill="#000000" fill-opacity="0.031373" stroke="#000000" stroke-width="2" stroke-opacity="0.250980" d="M1258,-8C1258,-8 1330,-8 1330,-8 1336,-8 1342,-14 1342,-20 1342,-20 1342,-35 1342,-35 1342,-41 1336,-47 1330,-47 1330,-47 1258,-47 1258,-47 1252,-47 1246,-41 1246,-35 1246,-35 1246,-20 1246,-20 1246,-14 1252,-8 1258,-8"/>
<text text-anchor="middle" x="1294" y="-31.8" font-family="Helvetica,sans-Serif" font-size="14.00">AssetEvents</text>
</a>
</g>
</g>
<!-- set_marker_node_Set(0) -->
<!-- set_marker_node_Set(4) -->
<!-- set_marker_node_Set(0)&#45;&gt;set_marker_node_Set(4) -->
<g id="edge7" class="edge">
<title>set_marker_node_Set(0)&#45;&gt;set_marker_node_Set(4)</title>
<g id="a_edge7"><a xlink:title="Update → UpdateFlush">
<path fill="none" stroke="#ee9e44" stroke-width="2" d="M756,-63C758.35,-63 760.77,-63 763.22,-63"/>
<polygon fill="#ee9e44" stroke="#ee9e44" stroke-width="2" points="762.97,-66.5 772.97,-63 762.97,-59.5 762.97,-66.5"/>
</a>
</g>
</g>
<!-- set_marker_node_Set(2) -->
<!-- set_marker_node_Set(8) -->
<!-- set_marker_node_Set(2)&#45;&gt;set_marker_node_Set(8) -->
<g id="edge2" class="edge">
<title>set_marker_node_Set(2)&#45;&gt;set_marker_node_Set(8)</title>
<g id="a_edge2"><a xlink:title="FirstFlush → PreUpdate">
<path fill="none" stroke="#881877" stroke-width="2" d="M152,-63C155.98,-63 160.07,-63 164.17,-63"/>
<polygon fill="#881877" stroke="#881877" stroke-width="2" points="163.98,-66.5 173.98,-63 163.98,-59.5 163.98,-66.5"/>
</a>
</g>
</g>
<!-- set_marker_node_Set(3) -->
<!-- set_marker_node_Set(9) -->
<!-- set_marker_node_Set(3)&#45;&gt;set_marker_node_Set(9) -->
<g id="edge4" class="edge">
<title>set_marker_node_Set(3)&#45;&gt;set_marker_node_Set(9)</title>
<g id="a_edge4"><a xlink:title="PreUpdateFlush → StateTransitions">
<path fill="none" stroke="#aa3a55" stroke-width="2" d="M407,-63C409.39,-63 411.8,-63 414.21,-63"/>
<polygon fill="#aa3a55" stroke="#aa3a55" stroke-width="2" points="413.98,-66.5 423.98,-63 413.98,-59.5 413.98,-66.5"/>
</a>
</g>
</g>
<!-- set_marker_node_Set(11) -->
<!-- set_marker_node_Set(4)&#45;&gt;set_marker_node_Set(11) -->
<g id="edge8" class="edge">
<title>set_marker_node_Set(4)&#45;&gt;set_marker_node_Set(11)</title>
<g id="a_edge8"><a xlink:title="UpdateFlush → PostUpdate">
<path fill="none" stroke="#663699" stroke-width="2" d="M877,-63C879.35,-63 881.75,-63 884.2,-63"/>
<polygon fill="#663699" stroke="#663699" stroke-width="2" points="883.97,-66.5 893.97,-63 883.97,-59.5 883.97,-66.5"/>
</a>
</g>
</g>
<!-- set_marker_node_Set(5) -->
<!-- set_marker_node_Set(12) -->
<!-- set_marker_node_Set(5)&#45;&gt;set_marker_node_Set(12) -->
<g id="edge10" class="edge">
<title>set_marker_node_Set(5)&#45;&gt;set_marker_node_Set(12)</title>
<g id="a_edge10"><a xlink:title="PostUpdateFlush → Last">
<path fill="none" stroke="#22c2bb" stroke-width="2" d="M1332.29,-55C1341.06,-53.08 1350.37,-51 1359,-49 1361.44,-48.44 1363.96,-47.84 1366.5,-47.24"/>
<polygon fill="#22c2bb" stroke="#22c2bb" stroke-width="2" points="1367.16,-50.68 1376.06,-44.93 1365.52,-43.88 1367.16,-50.68"/>
</a>
</g>
</g>
<!-- set_marker_node_Set(6) -->
<!-- set_marker_node_Set(7) -->
<!-- set_marker_node_Set(7)&#45;&gt;set_marker_node_Set(2) -->
<g id="edge1" class="edge">
<title>set_marker_node_Set(7)&#45;&gt;set_marker_node_Set(2)</title>
<g id="a_edge1"><a xlink:title="First → FirstFlush">
<path fill="none" stroke="#eede00" stroke-width="2" d="M46,-45.14C53.02,-47.1 61.02,-49.33 68.95,-51.54"/>
<polygon fill="#eede00" stroke="#eede00" stroke-width="2" points="67.85,-54.87 78.43,-54.19 69.74,-48.13 67.85,-54.87"/>
</a>
</g>
</g>
<!-- set_marker_node_Set(59) -->
<!-- set_marker_node_Set(7)&#45;&gt;set_marker_node_Set(59) -->
<g id="edge13" class="edge">
<title>set_marker_node_Set(7)&#45;&gt;set_marker_node_Set(59)</title>
<g id="a_edge13"><a xlink:title="First → LoadAssets">
<path fill="none" stroke="#881877" stroke-width="2" d="M46,-33.12C48.46,-32.46 51.05,-31.77 53.71,-31.05"/>
<polygon fill="#881877" stroke="#881877" stroke-width="2" points="54.32,-34.51 63.08,-28.55 52.51,-27.75 54.32,-34.51"/>
</a>
</g>
</g>
<!-- set_marker_node_Set(8)&#45;&gt;set_marker_node_Set(3) -->
<g id="edge3" class="edge">
<title>set_marker_node_Set(8)&#45;&gt;set_marker_node_Set(3)</title>
<g id="a_edge3"><a xlink:title="PreUpdate → PreUpdateFlush">
<path fill="none" stroke="#00b0cc" stroke-width="2" d="M264,-63C266.39,-63 268.82,-63 271.28,-63"/>
<polygon fill="#00b0cc" stroke="#00b0cc" stroke-width="2" points="270.98,-66.5 280.98,-63 270.98,-59.5 270.98,-66.5"/>
</a>
</g>
</g>
<!-- set_marker_node_Set(10) -->
<!-- set_marker_node_Set(9)&#45;&gt;set_marker_node_Set(10) -->
<g id="edge5" class="edge">
<title>set_marker_node_Set(9)&#45;&gt;set_marker_node_Set(10)</title>
<g id="a_edge5"><a xlink:title="StateTransitions → FixedUpdate">
<path fill="none" stroke="#44d488" stroke-width="2" d="M551,-63C553.39,-63 555.79,-63 558.19,-63"/>
<polygon fill="#44d488" stroke="#44d488" stroke-width="2" points="557.98,-66.5 567.98,-63 557.98,-59.5 557.98,-66.5"/>
</a>
</g>
</g>
<!-- set_marker_node_Set(10)&#45;&gt;set_marker_node_Set(0) -->
<g id="edge6" class="edge">
<title>set_marker_node_Set(10)&#45;&gt;set_marker_node_Set(0)</title>
<g id="a_edge6"><a xlink:title="FixedUpdate → Update">
<path fill="none" stroke="#0090cc" stroke-width="2" d="M671,-63C673.37,-63 675.75,-63 678.11,-63"/>
<polygon fill="#0090cc" stroke="#0090cc" stroke-width="2" points="677.98,-66.5 687.98,-63 677.98,-59.5 677.98,-66.5"/>
</a>
</g>
</g>
<!-- set_marker_node_Set(11)&#45;&gt;set_marker_node_Set(5) -->
<g id="edge9" class="edge">
<title>set_marker_node_Set(11)&#45;&gt;set_marker_node_Set(5)</title>
<g id="a_edge9"><a xlink:title="PostUpdate → PostUpdateFlush">
<path fill="none" stroke="#3363bb" stroke-width="2" d="M1210,-63C1212.35,-63 1214.68,-63 1216.98,-63"/>
<polygon fill="#3363bb" stroke="#3363bb" stroke-width="2" points="1216.98,-66.5 1226.98,-63 1216.98,-59.5 1216.98,-66.5"/>
</a>
</g>
</g>
<!-- set_marker_node_Set(60) -->
<!-- set_marker_node_Set(11)&#45;&gt;set_marker_node_Set(60) -->
<g id="edge14" class="edge">
<title>set_marker_node_Set(11)&#45;&gt;set_marker_node_Set(60)</title>
<g id="a_edge14"><a xlink:title="PostUpdate → AssetEvents">
<path fill="none" stroke="#00b0cc" stroke-width="2" d="M1210,-58C1218.08,-55.94 1226.27,-53 1234.21,-49.62"/>
<polygon fill="#00b0cc" stroke="#00b0cc" stroke-width="2" points="1235.62,-52.82 1243.25,-45.47 1232.7,-46.46 1235.62,-52.82"/>
</a>
</g>
</g>
<!-- node_System(142) -->
<g id="node12" class="node">
<title>node_System(142)</title>
<g id="a_node12"><a xlink:title="bevy_audio::audio_output::play_queued_audio_system&lt;bevy_audio::audio_source::AudioSource&gt;">
<polygon fill="#98f1d1" stroke="#3ee4a8" points="1202,-52 905,-52 905,-16 1202,-16 1202,-52"/>
<text text-anchor="middle" x="1053.5" y="-30.3" font-family="Helvetica,sans-Serif" font-size="14.00" fill="#062c1e">play_queued_audio_system&lt;AudioSource&gt;</text>
</a>
</g>
</g>
<!-- set_marker_node_Set(12)&#45;&gt;set_marker_node_Set(6) -->
<g id="edge11" class="edge">
<title>set_marker_node_Set(12)&#45;&gt;set_marker_node_Set(6)</title>
<g id="a_edge11"><a xlink:title="Last → LastFlush">
<path fill="none" stroke="#99d955" stroke-width="2" d="M1423,-39C1425.31,-39 1427.74,-39 1430.23,-39"/>
<polygon fill="#99d955" stroke="#99d955" stroke-width="2" points="1429.98,-42.5 1439.98,-39 1429.98,-35.5 1429.98,-42.5"/>
</a>
</g>
</g>
<!-- set_marker_node_Set(59)&#45;&gt;set_marker_node_Set(8) -->
<g id="edge12" class="edge">
<title>set_marker_node_Set(59)&#45;&gt;set_marker_node_Set(8)</title>
<g id="a_edge12"><a xlink:title="LoadAssets → PreUpdate">
<path fill="none" stroke="#eede00" stroke-width="2" d="M157,-35.76C167.76,-40.49 179.01,-45.43 188.91,-49.78"/>
<polygon fill="#eede00" stroke="#eede00" stroke-width="2" points="187.46,-52.97 198.03,-53.79 190.28,-46.56 187.46,-52.97"/>
</a>
</g>
</g>
<!-- set_marker_node_Set(60)&#45;&gt;set_marker_node_Set(12) -->
<g id="edge15" class="edge">
<title>set_marker_node_Set(60)&#45;&gt;set_marker_node_Set(12)</title>
<g id="a_edge15"><a xlink:title="AssetEvents → Last">
<path fill="none" stroke="#aa3a55" stroke-width="2" d="M1342,-26.29C1350.25,-28.1 1358.69,-29.95 1366.48,-31.66"/>
<polygon fill="#aa3a55" stroke="#aa3a55" stroke-width="2" points="1365.53,-35.03 1376.04,-33.75 1367.02,-28.19 1365.53,-35.03"/>
</a>
</g>
</g>
</g>
</svg>
