<?xml version="1.0" encoding="UTF-8" standalone="no"?>
<!DOCTYPE svg PUBLIC "-//W3C//DTD SVG 1.1//EN"
 "http://www.w3.org/Graphics/SVG/1.1/DTD/svg11.dtd">
<!-- Generated by graphviz version 7.1.0 (0)
 -->
<!-- Pages: 1 -->
<svg width="1892pt" height="194pt"
 viewBox="0.00 0.00 1892.00 194.00" xmlns="http://www.w3.org/2000/svg" xmlns:xlink="http://www.w3.org/1999/xlink">
<g id="graph0" class="graph" transform="scale(1 1) rotate(0) translate(4 190)">
<polygon fill="white" stroke="none" points="-4,4 -4,-190 1888,-190 1888,4 -4,4"/>
<g id="clust1" class="cluster">
<title>clusternode_Set(0)</title>
<g id="a_clust1"><a xlink:title="Update">
<polygon fill="white" stroke="black" points="825,-98 825,-137 890,-137 890,-98 825,-98"/>
<text text-anchor="middle" x="857.5" y="-121.8" font-family="Helvetica,sans-Serif" font-size="14.00">Update</text>
</a>
</g>
</g>
<g id="clust2" class="cluster">
<title>clusternode_Set(2)</title>
<g id="a_clust2"><a xlink:title="FirstFlush">
<polygon fill="white" stroke="black" points="204,-110 204,-149 286,-149 286,-110 204,-110"/>
<text text-anchor="middle" x="245" y="-133.8" font-family="Helvetica,sans-Serif" font-size="14.00">FirstFlush</text>
</a>
</g>
</g>
<g id="clust3" class="cluster">
<title>clusternode_Set(3)</title>
<g id="a_clust3"><a xlink:title="PreUpdateFlush">
<polygon fill="white" stroke="black" points="418,-98 418,-137 541,-137 541,-98 418,-98"/>
<text text-anchor="middle" x="479.5" y="-121.8" font-family="Helvetica,sans-Serif" font-size="14.00">PreUpdateFlush</text>
</a>
</g>
</g>
<g id="clust4" class="cluster">
<title>clusternode_Set(4)</title>
<g id="a_clust4"><a xlink:title="UpdateFlush">
<polygon fill="white" stroke="black" points="910,-98 910,-137 1011,-137 1011,-98 910,-98"/>
<text text-anchor="middle" x="960.5" y="-121.8" font-family="Helvetica,sans-Serif" font-size="14.00">UpdateFlush</text>
</a>
</g>
</g>
<g id="clust5" class="cluster">
<title>clusternode_Set(5)</title>
<g id="a_clust5"><a xlink:title="PostUpdateFlush">
<polygon fill="white" stroke="black" points="1144,-139 1144,-178 1273,-178 1273,-139 1144,-139"/>
<text text-anchor="middle" x="1208.5" y="-162.8" font-family="Helvetica,sans-Serif" font-size="14.00">PostUpdateFlush</text>
</a>
</g>
</g>
<g id="clust6" class="cluster">
<title>clusternode_Set(6)</title>
<g id="a_clust6"><a xlink:title="LastFlush">
<polygon fill="white" stroke="black" points="1804,-116 1804,-155 1884,-155 1884,-116 1804,-116"/>
<text text-anchor="middle" x="1844" y="-139.8" font-family="Helvetica,sans-Serif" font-size="14.00">LastFlush</text>
</a>
</g>
</g>
<g id="clust7" class="cluster">
<title>clusternode_Set(7)</title>
<g id="a_clust7"><a xlink:title="First">
<polygon fill="white" stroke="black" points="67,-66 67,-105 113,-105 113,-66 67,-66"/>
<text text-anchor="middle" x="90" y="-89.8" font-family="Helvetica,sans-Serif" font-size="14.00">First</text>
</a>
</g>
</g>
<g id="clust8" class="cluster">
<title>clusternode_Set(8)</title>
<g id="a_clust8"><a xlink:title="PreUpdate">
<polygon fill="white" stroke="black" points="311,-98 311,-137 398,-137 398,-98 311,-98"/>
<text text-anchor="middle" x="354.5" y="-121.8" font-family="Helvetica,sans-Serif" font-size="14.00">PreUpdate</text>
</a>
</g>
</g>
<g id="clust9" class="cluster">
<title>clusternode_Set(9)</title>
<g id="a_clust9"><a xlink:title="StateTransitions">
<polygon fill="white" stroke="black" points="561,-98 561,-137 685,-137 685,-98 561,-98"/>
<text text-anchor="middle" x="623" y="-121.8" font-family="Helvetica,sans-Serif" font-size="14.00">StateTransitions</text>
</a>
</g>
</g>
<g id="clust10" class="cluster">
<title>clusternode_Set(10)</title>
<g id="a_clust10"><a xlink:title="FixedUpdate">
<polygon fill="white" stroke="black" points="705,-98 705,-137 805,-137 805,-98 705,-98"/>
<text text-anchor="middle" x="755" y="-121.8" font-family="Helvetica,sans-Serif" font-size="14.00">FixedUpdate</text>
</a>
</g>
</g>
<g id="clust11" class="cluster">
<title>clusternode_Set(11)</title>
<g id="a_clust11"><a xlink:title="PostUpdate">
<polygon fill="white" stroke="black" points="1031,-98 1031,-137 1124,-137 1124,-98 1031,-98"/>
<text text-anchor="middle" x="1077.5" y="-121.8" font-family="Helvetica,sans-Serif" font-size="14.00">PostUpdate</text>
</a>
</g>
</g>
<g id="clust12" class="cluster">
<title>clusternode_Set(12)</title>
<g id="a_clust12"><a xlink:title="Last">
<polygon fill="white" stroke="black" points="1293,-8 1293,-155 1784,-155 1784,-8 1293,-8"/>
<text text-anchor="middle" x="1538.5" y="-139.8" font-family="Helvetica,sans-Serif" font-size="14.00">Last</text>
</a>
</g>
</g>
<g id="clust13" class="cluster">
<title>clusternode_Set(22)</title>
<g id="a_clust13"><a xlink:title="PropagateTransformsSet">
<polygon fill="white" stroke="black" points="0,-136 0,-175 180,-175 180,-136 0,-136"/>
<text text-anchor="middle" x="90" y="-159.8" font-family="Helvetica,sans-Serif" font-size="14.00">PropagateTransformsSet</text>
</a>
</g>
</g>
<g id="clust14" class="cluster">
<title>clusternode_Set(59)</title>
<g id="a_clust14"><a xlink:title="LoadAssets">
<polygon fill="white" stroke="black" points="200,-63 200,-102 291,-102 291,-63 200,-63"/>
<text text-anchor="middle" x="245.5" y="-86.8" font-family="Helvetica,sans-Serif" font-size="14.00">LoadAssets</text>
</a>
</g>
</g>
<g id="clust15" class="cluster">
<title>clusternode_Set(60)</title>
<g id="a_clust15"><a xlink:title="AssetEvents">
<polygon fill="white" stroke="black" points="1160,-92 1160,-131 1256,-131 1256,-92 1160,-92"/>
<text text-anchor="middle" x="1208" y="-115.8" font-family="Helvetica,sans-Serif" font-size="14.00">AssetEvents</text>
</a>
</g>
</g>
<!-- set_marker_node_Set(0) -->
<!-- set_marker_node_Set(4) -->
<!-- set_marker_node_Set(0)&#45;&gt;set_marker_node_Set(4) -->
<g id="edge7" class="edge">
<title>set_marker_node_Set(0)&#45;&gt;set_marker_node_Set(4)</title>
<g id="a_edge7"><a xlink:title="Update → UpdateFlush">
<path fill="none" stroke="#ee9e44" stroke-width="2" d="M890,-106C892.35,-106 894.77,-106 897.22,-106"/>
<polygon fill="#ee9e44" stroke="#ee9e44" stroke-width="2" points="896.97,-109.5 906.97,-106 896.97,-102.5 896.97,-109.5"/>
</a>
</g>
</g>
<!-- set_marker_node_Set(2) -->
<!-- set_marker_node_Set(8) -->
<!-- set_marker_node_Set(2)&#45;&gt;set_marker_node_Set(8) -->
<g id="edge2" class="edge">
<title>set_marker_node_Set(2)&#45;&gt;set_marker_node_Set(8)</title>
<g id="a_edge2"><a xlink:title="FirstFlush → PreUpdate">
<path fill="none" stroke="#881877" stroke-width="2" d="M286,-113.51C289.98,-113.07 294.07,-112.61 298.17,-112.15"/>
<polygon fill="#881877" stroke="#881877" stroke-width="2" points="298.45,-115.64 307.99,-111.05 297.67,-108.68 298.45,-115.64"/>
</a>
</g>
</g>
<!-- set_marker_node_Set(3) -->
<!-- set_marker_node_Set(9) -->
<!-- set_marker_node_Set(3)&#45;&gt;set_marker_node_Set(9) -->
<g id="edge4" class="edge">
<title>set_marker_node_Set(3)&#45;&gt;set_marker_node_Set(9)</title>
<g id="a_edge4"><a xlink:title="PreUpdateFlush → StateTransitions">
<path fill="none" stroke="#aa3a55" stroke-width="2" d="M541,-106C543.39,-106 545.8,-106 548.21,-106"/>
<polygon fill="#aa3a55" stroke="#aa3a55" stroke-width="2" points="547.98,-109.5 557.98,-106 547.98,-102.5 547.98,-109.5"/>
</a>
</g>
</g>
<!-- set_marker_node_Set(11) -->
<!-- set_marker_node_Set(4)&#45;&gt;set_marker_node_Set(11) -->
<g id="edge8" class="edge">
<title>set_marker_node_Set(4)&#45;&gt;set_marker_node_Set(11)</title>
<g id="a_edge8"><a xlink:title="UpdateFlush → PostUpdate">
<path fill="none" stroke="#663699" stroke-width="2" d="M1011,-106C1013.43,-106 1015.88,-106 1018.32,-106"/>
<polygon fill="#663699" stroke="#663699" stroke-width="2" points="1017.98,-109.5 1027.98,-106 1017.98,-102.5 1017.98,-109.5"/>
</a>
</g>
</g>
<!-- set_marker_node_Set(5) -->
<!-- set_marker_node_Set(12) -->
<!-- set_marker_node_Set(5)&#45;&gt;set_marker_node_Set(12) -->
<g id="edge10" class="edge">
<title>set_marker_node_Set(5)&#45;&gt;set_marker_node_Set(12)</title>
<g id="a_edge10"><a xlink:title="PostUpdateFlush → Last">
<path fill="none" stroke="#22c2bb" stroke-width="2" d="M1273,-142.52C1275.33,-142.36 1277.71,-142.19 1280.12,-142.02"/>
<polygon fill="#22c2bb" stroke="#22c2bb" stroke-width="2" points="1280.25,-145.52 1289.98,-141.33 1279.76,-138.54 1280.25,-145.52"/>
</a>
</g>
</g>
<!-- set_marker_node_Set(6) -->
<!-- set_marker_node_Set(7) -->
<!-- set_marker_node_Set(7)&#45;&gt;set_marker_node_Set(2) -->
<g id="edge1" class="edge">
<title>set_marker_node_Set(7)&#45;&gt;set_marker_node_Set(2)</title>
<g id="a_edge1"><a xlink:title="First → FirstFlush">
<path fill="none" stroke="#eede00" stroke-width="2" d="M113,-80.59C134.99,-87.15 169.78,-97.45 200,-106 200.72,-106.21 201.46,-106.41 202.19,-106.62"/>
<polygon fill="#eede00" stroke="#eede00" stroke-width="2" points="200.88,-109.89 211.45,-109.19 202.75,-103.14 200.88,-109.89"/>
</a>
</g>
</g>
<!-- set_marker_node_Set(59) -->
<!-- set_marker_node_Set(7)&#45;&gt;set_marker_node_Set(59) -->
<g id="edge13" class="edge">
<title>set_marker_node_Set(7)&#45;&gt;set_marker_node_Set(59)</title>
<g id="a_edge13"><a xlink:title="First → LoadAssets">
<path fill="none" stroke="#881877" stroke-width="2" d="M113,-73.57C132.35,-73.19 161.38,-72.62 187.19,-72.11"/>
<polygon fill="#881877" stroke="#881877" stroke-width="2" points="187.05,-75.62 196.98,-71.92 186.91,-68.62 187.05,-75.62"/>
</a>
</g>
</g>
<!-- set_marker_node_Set(8)&#45;&gt;set_marker_node_Set(3) -->
<g id="edge3" class="edge">
<title>set_marker_node_Set(8)&#45;&gt;set_marker_node_Set(3)</title>
<g id="a_edge3"><a xlink:title="PreUpdate → PreUpdateFlush">
<path fill="none" stroke="#00b0cc" stroke-width="2" d="M398,-106C400.39,-106 402.82,-106 405.28,-106"/>
<polygon fill="#00b0cc" stroke="#00b0cc" stroke-width="2" points="404.98,-109.5 414.98,-106 404.98,-102.5 404.98,-109.5"/>
</a>
</g>
</g>
<!-- set_marker_node_Set(10) -->
<!-- set_marker_node_Set(9)&#45;&gt;set_marker_node_Set(10) -->
<g id="edge5" class="edge">
<title>set_marker_node_Set(9)&#45;&gt;set_marker_node_Set(10)</title>
<g id="a_edge5"><a xlink:title="StateTransitions → FixedUpdate">
<path fill="none" stroke="#44d488" stroke-width="2" d="M685,-106C687.39,-106 689.79,-106 692.19,-106"/>
<polygon fill="#44d488" stroke="#44d488" stroke-width="2" points="691.98,-109.5 701.98,-106 691.98,-102.5 691.98,-109.5"/>
</a>
</g>
</g>
<!-- set_marker_node_Set(10)&#45;&gt;set_marker_node_Set(0) -->
<g id="edge6" class="edge">
<title>set_marker_node_Set(10)&#45;&gt;set_marker_node_Set(0)</title>
<g id="a_edge6"><a xlink:title="FixedUpdate → Update">
<path fill="none" stroke="#0090cc" stroke-width="2" d="M805,-106C807.37,-106 809.75,-106 812.11,-106"/>
<polygon fill="#0090cc" stroke="#0090cc" stroke-width="2" points="811.98,-109.5 821.98,-106 811.98,-102.5 811.98,-109.5"/>
</a>
</g>
</g>
<!-- set_marker_node_Set(11)&#45;&gt;set_marker_node_Set(5) -->
<g id="edge9" class="edge">
<title>set_marker_node_Set(11)&#45;&gt;set_marker_node_Set(5)</title>
<g id="a_edge9"><a xlink:title="PostUpdate → PostUpdateFlush">
<path fill="none" stroke="#3363bb" stroke-width="2" d="M1124,-127.78C1130.62,-130.45 1137.42,-132.96 1144,-135 1144.9,-135.28 1145.8,-135.55 1146.71,-135.82"/>
<polygon fill="#3363bb" stroke="#3363bb" stroke-width="2" points="1145.39,-139.09 1155.95,-138.24 1147.16,-132.32 1145.39,-139.09"/>
</a>
</g>
</g>
<!-- set_marker_node_Set(60) -->
<!-- set_marker_node_Set(11)&#45;&gt;set_marker_node_Set(60) -->
<g id="edge14" class="edge">
<title>set_marker_node_Set(11)&#45;&gt;set_marker_node_Set(60)</title>
<g id="a_edge14"><a xlink:title="PostUpdate → AssetEvents">
<path fill="none" stroke="#00b0cc" stroke-width="2" d="M1124,-103.86C1131.5,-103.51 1139.36,-103.15 1147.14,-102.78"/>
<polygon fill="#00b0cc" stroke="#00b0cc" stroke-width="2" points="1147.15,-106.29 1156.98,-102.33 1146.83,-99.3 1147.15,-106.29"/>
</a>
</g>
</g>
<!-- set_marker_node_Set(12)&#45;&gt;set_marker_node_Set(6) -->
<g id="edge11" class="edge">
<title>set_marker_node_Set(12)&#45;&gt;set_marker_node_Set(6)</title>
<g id="a_edge11"><a xlink:title="Last → LastFlush">
<path fill="none" stroke="#99d955" stroke-width="2" d="M1784,-124C1786.45,-124 1788.84,-124 1791.18,-124"/>
<polygon fill="#99d955" stroke="#99d955" stroke-width="2" points="1790.98,-127.5 1800.98,-124 1790.98,-120.5 1790.98,-127.5"/>
</a>
</g>
</g>
<!-- node_System(10) -->
<g id="node13" class="node">
<title>node_System(10)</title>
<g id="a_node13"><a xlink:title="bevy_hierarchy::valid_parent_check_plugin::check_hierarchy_component_has_valid_parent&lt;bevy_transform::components::global_transform::GlobalTransform&gt;">
<polygon fill="white" stroke="black" points="1769,-106 1308,-106 1308,-70 1769,-70 1769,-106"/>
<text text-anchor="middle" x="1538.5" y="-84.3" font-family="Times,serif" font-size="14.00">check_hierarchy_component_has_valid_parent&lt;GlobalTransform&gt;</text>
</a>
</g>
</g>
<!-- node_System(67) -->
<g id="node14" class="node">
<title>node_System(67)</title>
<g id="a_node14"><a xlink:title="bevy_hierarchy::valid_parent_check_plugin::check_hierarchy_component_has_valid_parent&lt;bevy_render::view::visibility::ComputedVisibility&gt;">
<polygon fill="white" stroke="black" points="1776,-52 1301,-52 1301,-16 1776,-16 1776,-52"/>
<text text-anchor="middle" x="1538.5" y="-30.3" font-family="Times,serif" font-size="14.00">check_hierarchy_component_has_valid_parent&lt;ComputedVisibility&gt;</text>
</a>
</g>
</g>
<!-- set_marker_node_Set(22) -->
<!-- set_marker_node_Set(59)&#45;&gt;set_marker_node_Set(8) -->
<g id="edge12" class="edge">
<title>set_marker_node_Set(59)&#45;&gt;set_marker_node_Set(8)</title>
<g id="a_edge12"><a xlink:title="LoadAssets → PreUpdate">
<path fill="none" stroke="#eede00" stroke-width="2" d="M291,-85.72C299.41,-88.47 308.11,-91.31 316.23,-93.97"/>
<polygon fill="#eede00" stroke="#eede00" stroke-width="2" points="315.08,-97.28 325.67,-97.06 317.25,-90.62 315.08,-97.28"/>
</a>
</g>
</g>
<!-- set_marker_node_Set(60)&#45;&gt;set_marker_node_Set(12) -->
<g id="edge15" class="edge">
<title>set_marker_node_Set(60)&#45;&gt;set_marker_node_Set(12)</title>
<g id="a_edge15"><a xlink:title="AssetEvents → Last">
<path fill="none" stroke="#aa3a55" stroke-width="2" d="M1256,-109.59C1263.89,-110.98 1272.18,-112.32 1280.35,-113.44"/>
<polygon fill="#aa3a55" stroke="#aa3a55" stroke-width="2" points="1279.64,-116.88 1290,-114.63 1280.5,-109.94 1279.64,-116.88"/>
</a>
</g>
</g>
</g>
</svg>
