<?xml version="1.0" encoding="UTF-8" standalone="no"?>
<!DOCTYPE svg PUBLIC "-//W3C//DTD SVG 1.1//EN"
 "http://www.w3.org/Graphics/SVG/1.1/DTD/svg11.dtd">
<!-- Generated by graphviz version 7.1.0 (0)
 -->
<!-- Pages: 1 -->
<svg width="2094pt" height="1148pt"
 viewBox="0.00 0.00 2094.00 1148.00" xmlns="http://www.w3.org/2000/svg" xmlns:xlink="http://www.w3.org/1999/xlink">
<g id="graph0" class="graph" transform="scale(1 1) rotate(0) translate(4 1144)">
<polygon fill="white" stroke="none" points="-4,4 -4,-1144 2090,-1144 2090,4 -4,4"/>
<g id="clust1" class="cluster">
<title>clusternode_Set(0)</title>
<g id="a_clust1"><a xlink:title="Update">
<polygon fill="white" stroke="black" points="1177,-1057 1177,-1096 1242,-1096 1242,-1057 1177,-1057"/>
<text text-anchor="middle" x="1209.5" y="-1080.8" font-family="Helvetica,sans-Serif" font-size="14.00">Update</text>
</a>
</g>
</g>
<g id="clust2" class="cluster">
<title>clusternode_Set(2)</title>
<g id="a_clust2"><a xlink:title="FirstFlush">
<polygon fill="white" stroke="black" points="250,-1081 250,-1120 332,-1120 332,-1081 250,-1081"/>
<text text-anchor="middle" x="291" y="-1104.8" font-family="Helvetica,sans-Serif" font-size="14.00">FirstFlush</text>
</a>
</g>
</g>
<g id="clust3" class="cluster">
<title>clusternode_Set(3)</title>
<g id="a_clust3"><a xlink:title="PreUpdateFlush">
<polygon fill="white" stroke="black" points="770,-1057 770,-1096 893,-1096 893,-1057 770,-1057"/>
<text text-anchor="middle" x="831.5" y="-1080.8" font-family="Helvetica,sans-Serif" font-size="14.00">PreUpdateFlush</text>
</a>
</g>
</g>
<g id="clust4" class="cluster">
<title>clusternode_Set(4)</title>
<g id="a_clust4"><a xlink:title="UpdateFlush">
<polygon fill="white" stroke="black" points="1262,-1057 1262,-1096 1363,-1096 1363,-1057 1262,-1057"/>
<text text-anchor="middle" x="1312.5" y="-1080.8" font-family="Helvetica,sans-Serif" font-size="14.00">UpdateFlush</text>
</a>
</g>
</g>
<g id="clust5" class="cluster">
<title>clusternode_Set(5)</title>
<g id="a_clust5"><a xlink:title="PostUpdateFlush">
<polygon fill="white" stroke="black" points="1645,-1093 1645,-1132 1774,-1132 1774,-1093 1645,-1093"/>
<text text-anchor="middle" x="1709.5" y="-1116.8" font-family="Helvetica,sans-Serif" font-size="14.00">PostUpdateFlush</text>
</a>
</g>
</g>
<g id="clust6" class="cluster">
<title>clusternode_Set(6)</title>
<g id="a_clust6"><a xlink:title="LastFlush">
<polygon fill="white" stroke="black" points="2006,-1069 2006,-1108 2086,-1108 2086,-1069 2006,-1069"/>
<text text-anchor="middle" x="2046" y="-1092.8" font-family="Helvetica,sans-Serif" font-size="14.00">LastFlush</text>
</a>
</g>
</g>
<g id="clust7" class="cluster">
<title>clusternode_Set(7)</title>
<g id="a_clust7"><a xlink:title="First">
<polygon fill="white" stroke="black" points="0,-1057 0,-1096 46,-1096 46,-1057 0,-1057"/>
<text text-anchor="middle" x="23" y="-1080.8" font-family="Helvetica,sans-Serif" font-size="14.00">First</text>
</a>
</g>
</g>
<g id="clust8" class="cluster">
<title>clusternode_Set(8)</title>
<g id="a_clust8"><a xlink:title="PreUpdate">
<polygon fill="white" stroke="black" points="536,-1003 536,-1096 750,-1096 750,-1003 536,-1003"/>
<text text-anchor="middle" x="643" y="-1080.8" font-family="Helvetica,sans-Serif" font-size="14.00">PreUpdate</text>
</a>
</g>
</g>
<g id="clust9" class="cluster">
<title>clusternode_Set(9)</title>
<g id="a_clust9"><a xlink:title="StateTransitions">
<polygon fill="white" stroke="black" points="913,-1057 913,-1096 1037,-1096 1037,-1057 913,-1057"/>
<text text-anchor="middle" x="975" y="-1080.8" font-family="Helvetica,sans-Serif" font-size="14.00">StateTransitions</text>
</a>
</g>
</g>
<g id="clust10" class="cluster">
<title>clusternode_Set(10)</title>
<g id="a_clust10"><a xlink:title="FixedUpdate">
<polygon fill="white" stroke="black" points="1057,-1057 1057,-1096 1157,-1096 1157,-1057 1057,-1057"/>
<text text-anchor="middle" x="1107" y="-1080.8" font-family="Helvetica,sans-Serif" font-size="14.00">FixedUpdate</text>
</a>
</g>
</g>
<g id="clust11" class="cluster">
<title>clusternode_Set(11)</title>
<g id="a_clust11"><a xlink:title="PostUpdate">
<polygon fill="white" stroke="black" points="1383,-1057 1383,-1096 1476,-1096 1476,-1057 1383,-1057"/>
<text text-anchor="middle" x="1429.5" y="-1080.8" font-family="Helvetica,sans-Serif" font-size="14.00">PostUpdate</text>
</a>
</g>
</g>
<g id="clust12" class="cluster">
<title>clusternode_Set(12)</title>
<g id="a_clust12"><a xlink:title="Last">
<polygon fill="white" stroke="black" points="1942,-1069 1942,-1108 1986,-1108 1986,-1069 1942,-1069"/>
<text text-anchor="middle" x="1964" y="-1092.8" font-family="Helvetica,sans-Serif" font-size="14.00">Last</text>
</a>
</g>
</g>
<g id="clust13" class="cluster">
<title>clusternode_Set(58)</title>
<g id="a_clust13"><a xlink:title="LoadAssets">
<polygon fill="white" stroke="black" points="66,-8 66,-1073 516,-1073 516,-8 66,-8"/>
<text text-anchor="middle" x="291" y="-1057.8" font-family="Helvetica,sans-Serif" font-size="14.00">LoadAssets</text>
</a>
</g>
</g>
<g id="clust14" class="cluster">
<title>clusternode_Set(59)</title>
<g id="a_clust14"><a xlink:title="AssetEvents">
<polygon fill="white" stroke="black" points="1496,-74 1496,-1085 1922,-1085 1922,-74 1496,-74"/>
<text text-anchor="middle" x="1709" y="-1069.8" font-family="Helvetica,sans-Serif" font-size="14.00">AssetEvents</text>
</a>
</g>
</g>
<!-- set_marker_node_Set(0) -->
<!-- set_marker_node_Set(4) -->
<!-- set_marker_node_Set(0)&#45;&gt;set_marker_node_Set(4) -->
<g id="edge7" class="edge">
<title>set_marker_node_Set(0)&#45;&gt;set_marker_node_Set(4)</title>
<g id="a_edge7"><a xlink:title="Update → UpdateFlush">
<path fill="none" stroke="#ee9e44" stroke-width="2" d="M1242,-1065C1244.35,-1065 1246.77,-1065 1249.22,-1065"/>
<polygon fill="#ee9e44" stroke="#ee9e44" stroke-width="2" points="1248.97,-1068.5 1258.97,-1065 1248.97,-1061.5 1248.97,-1068.5"/>
</a>
</g>
</g>
<!-- set_marker_node_Set(2) -->
<!-- set_marker_node_Set(8) -->
<!-- set_marker_node_Set(2)&#45;&gt;set_marker_node_Set(8) -->
<g id="edge2" class="edge">
<title>set_marker_node_Set(2)&#45;&gt;set_marker_node_Set(8)</title>
<g id="a_edge2"><a xlink:title="FirstFlush → PreUpdate">
<path fill="none" stroke="#881877" stroke-width="2" d="M332,-1087.36C376.83,-1085.4 451.68,-1081.78 516,-1077 518.34,-1076.83 520.71,-1076.64 523.1,-1076.46"/>
<polygon fill="#881877" stroke="#881877" stroke-width="2" points="523.3,-1079.95 532.98,-1075.66 522.73,-1072.98 523.3,-1079.95"/>
</a>
</g>
</g>
<!-- set_marker_node_Set(3) -->
<!-- set_marker_node_Set(9) -->
<!-- set_marker_node_Set(3)&#45;&gt;set_marker_node_Set(9) -->
<g id="edge4" class="edge">
<title>set_marker_node_Set(3)&#45;&gt;set_marker_node_Set(9)</title>
<g id="a_edge4"><a xlink:title="PreUpdateFlush → StateTransitions">
<path fill="none" stroke="#aa3a55" stroke-width="2" d="M893,-1065C895.39,-1065 897.8,-1065 900.21,-1065"/>
<polygon fill="#aa3a55" stroke="#aa3a55" stroke-width="2" points="899.98,-1068.5 909.98,-1065 899.98,-1061.5 899.98,-1068.5"/>
</a>
</g>
</g>
<!-- set_marker_node_Set(11) -->
<!-- set_marker_node_Set(4)&#45;&gt;set_marker_node_Set(11) -->
<g id="edge8" class="edge">
<title>set_marker_node_Set(4)&#45;&gt;set_marker_node_Set(11)</title>
<g id="a_edge8"><a xlink:title="UpdateFlush → PostUpdate">
<path fill="none" stroke="#663699" stroke-width="2" d="M1363,-1065C1365.43,-1065 1367.88,-1065 1370.32,-1065"/>
<polygon fill="#663699" stroke="#663699" stroke-width="2" points="1369.98,-1068.5 1379.98,-1065 1369.98,-1061.5 1369.98,-1068.5"/>
</a>
</g>
</g>
<!-- set_marker_node_Set(5) -->
<!-- set_marker_node_Set(12) -->
<!-- set_marker_node_Set(5)&#45;&gt;set_marker_node_Set(12) -->
<g id="edge10" class="edge">
<title>set_marker_node_Set(5)&#45;&gt;set_marker_node_Set(12)</title>
<g id="a_edge10"><a xlink:title="PostUpdateFlush → Last">
<path fill="none" stroke="#22c2bb" stroke-width="2" d="M1774,-1101.16C1816.29,-1100.35 1872.78,-1097.48 1922,-1089 1924.48,-1088.57 1927.01,-1088.05 1929.55,-1087.46"/>
<polygon fill="#22c2bb" stroke="#22c2bb" stroke-width="2" points="1930.32,-1090.88 1939.08,-1084.92 1928.51,-1084.12 1930.32,-1090.88"/>
</a>
</g>
</g>
<!-- set_marker_node_Set(6) -->
<!-- set_marker_node_Set(7) -->
<!-- set_marker_node_Set(7)&#45;&gt;set_marker_node_Set(2) -->
<g id="edge1" class="edge">
<title>set_marker_node_Set(7)&#45;&gt;set_marker_node_Set(2)</title>
<g id="a_edge1"><a xlink:title="First → FirstFlush">
<path fill="none" stroke="#eede00" stroke-width="2" d="M46,-1072.29C52.38,-1074.13 59.41,-1075.9 66,-1077 124.01,-1086.71 191.54,-1089.14 237.16,-1089.5"/>
<polygon fill="#eede00" stroke="#eede00" stroke-width="2" points="236.96,-1093 246.98,-1089.54 236.99,-1086 236.96,-1093"/>
</a>
</g>
</g>
<!-- set_marker_node_Set(58) -->
<!-- set_marker_node_Set(7)&#45;&gt;set_marker_node_Set(58) -->
<g id="edge13" class="edge">
<title>set_marker_node_Set(7)&#45;&gt;set_marker_node_Set(58)</title>
<g id="a_edge13"><a xlink:title="First → LoadAssets">
<path fill="none" stroke="#881877" stroke-width="2" d="M46,-1063.1C48.24,-1062.9 50.63,-1062.7 53.16,-1062.48"/>
<polygon fill="#881877" stroke="#881877" stroke-width="2" points="53.32,-1065.98 62.99,-1061.63 52.72,-1059 53.32,-1065.98"/>
</a>
</g>
</g>
<!-- set_marker_node_Set(8)&#45;&gt;set_marker_node_Set(3) -->
<g id="edge3" class="edge">
<title>set_marker_node_Set(8)&#45;&gt;set_marker_node_Set(3)</title>
<g id="a_edge3"><a xlink:title="PreUpdate → PreUpdateFlush">
<path fill="none" stroke="#00b0cc" stroke-width="2" d="M750,-1065C752.35,-1065 754.68,-1065 757,-1065"/>
<polygon fill="#00b0cc" stroke="#00b0cc" stroke-width="2" points="756.98,-1068.5 766.98,-1065 756.98,-1061.5 756.98,-1068.5"/>
</a>
</g>
</g>
<!-- node_System(47) -->
<g id="node9" class="node">
<title>node_System(47)</title>
<g id="a_node9"><a xlink:title="bevy_asset::asset_server::free_unused_assets_system">
<polygon fill="white" stroke="black" points="742,-1047 544,-1047 544,-1011 742,-1011 742,-1047"/>
<text text-anchor="middle" x="643" y="-1025.3" font-family="Times,serif" font-size="14.00">free_unused_assets_system</text>
</a>
</g>
</g>
<!-- set_marker_node_Set(10) -->
<!-- set_marker_node_Set(9)&#45;&gt;set_marker_node_Set(10) -->
<g id="edge5" class="edge">
<title>set_marker_node_Set(9)&#45;&gt;set_marker_node_Set(10)</title>
<g id="a_edge5"><a xlink:title="StateTransitions → FixedUpdate">
<path fill="none" stroke="#44d488" stroke-width="2" d="M1037,-1065C1039.39,-1065 1041.79,-1065 1044.19,-1065"/>
<polygon fill="#44d488" stroke="#44d488" stroke-width="2" points="1043.98,-1068.5 1053.98,-1065 1043.98,-1061.5 1043.98,-1068.5"/>
</a>
</g>
</g>
<!-- set_marker_node_Set(10)&#45;&gt;set_marker_node_Set(0) -->
<g id="edge6" class="edge">
<title>set_marker_node_Set(10)&#45;&gt;set_marker_node_Set(0)</title>
<g id="a_edge6"><a xlink:title="FixedUpdate → Update">
<path fill="none" stroke="#0090cc" stroke-width="2" d="M1157,-1065C1159.37,-1065 1161.75,-1065 1164.11,-1065"/>
<polygon fill="#0090cc" stroke="#0090cc" stroke-width="2" points="1163.98,-1068.5 1173.98,-1065 1163.98,-1061.5 1163.98,-1068.5"/>
</a>
</g>
</g>
<!-- set_marker_node_Set(11)&#45;&gt;set_marker_node_Set(5) -->
<g id="edge9" class="edge">
<title>set_marker_node_Set(11)&#45;&gt;set_marker_node_Set(5)</title>
<g id="a_edge9"><a xlink:title="PostUpdate → PostUpdateFlush">
<path fill="none" stroke="#3363bb" stroke-width="2" d="M1476,-1083.65C1482.62,-1085.77 1489.42,-1087.65 1496,-1089 1540.56,-1098.16 1591.42,-1101.27 1632.15,-1102.05"/>
<polygon fill="#3363bb" stroke="#3363bb" stroke-width="2" points="1631.93,-1105.54 1641.98,-1102.18 1632.02,-1098.54 1631.93,-1105.54"/>
</a>
</g>
</g>
<!-- set_marker_node_Set(59) -->
<!-- set_marker_node_Set(11)&#45;&gt;set_marker_node_Set(59) -->
<g id="edge14" class="edge">
<title>set_marker_node_Set(11)&#45;&gt;set_marker_node_Set(59)</title>
<g id="a_edge14"><a xlink:title="PostUpdate → AssetEvents">
<path fill="none" stroke="#00b0cc" stroke-width="2" d="M1476,-1063.18C1478.39,-1063.09 1480.84,-1062.99 1483.36,-1062.89"/>
<polygon fill="#00b0cc" stroke="#00b0cc" stroke-width="2" points="1483.12,-1066.4 1492.98,-1062.51 1482.85,-1059.41 1483.12,-1066.4"/>
</a>
</g>
</g>
<!-- set_marker_node_Set(12)&#45;&gt;set_marker_node_Set(6) -->
<g id="edge11" class="edge">
<title>set_marker_node_Set(12)&#45;&gt;set_marker_node_Set(6)</title>
<g id="a_edge11"><a xlink:title="Last → LastFlush">
<path fill="none" stroke="#99d955" stroke-width="2" d="M1986,-1077C1988.31,-1077 1990.74,-1077 1993.23,-1077"/>
<polygon fill="#99d955" stroke="#99d955" stroke-width="2" points="1992.98,-1080.5 2002.98,-1077 1992.98,-1073.5 1992.98,-1080.5"/>
</a>
</g>
</g>
<!-- set_marker_node_Set(58)&#45;&gt;set_marker_node_Set(8) -->
<g id="edge12" class="edge">
<title>set_marker_node_Set(58)&#45;&gt;set_marker_node_Set(8)</title>
<g id="a_edge12"><a xlink:title="LoadAssets → PreUpdate">
<path fill="none" stroke="#eede00" stroke-width="2" d="M516,-1056.72C518.45,-1056.88 520.89,-1057.04 523.31,-1057.2"/>
<polygon fill="#eede00" stroke="#eede00" stroke-width="2" points="522.78,-1060.67 532.98,-1057.84 523.23,-1053.69 522.78,-1060.67"/>
</a>
</g>
</g>
<!-- node_System(48) -->
<g id="node15" class="node">
<title>node_System(48)</title>
<g id="a_node15"><a xlink:title="bevy_asset::io::file_asset_io::filesystem_watcher_system">
<polygon fill="white" stroke="black" points="391,-1024 191,-1024 191,-988 391,-988 391,-1024"/>
<text text-anchor="middle" x="291" y="-1002.3" font-family="Times,serif" font-size="14.00">filesystem_watcher_system</text>
</a>
</g>
</g>
<!-- node_System(50) -->
<g id="node16" class="node">
<title>node_System(50)</title>
<g id="a_node16"><a xlink:title="bevy_asset::loader::update_asset_storage_system&lt;bevy_scene::dynamic_scene::DynamicScene&gt;">
<polygon fill="white" stroke="black" points="454,-970 128,-970 128,-934 454,-934 454,-970"/>
<text text-anchor="middle" x="291" y="-948.3" font-family="Times,serif" font-size="14.00">update_asset_storage_system&lt;DynamicScene&gt;</text>
</a>
</g>
</g>
<!-- node_System(53) -->
<g id="node17" class="node">
<title>node_System(53)</title>
<g id="a_node17"><a xlink:title="bevy_asset::loader::update_asset_storage_system&lt;bevy_scene::scene::Scene&gt;">
<polygon fill="white" stroke="black" points="423.5,-916 158.5,-916 158.5,-880 423.5,-880 423.5,-916"/>
<text text-anchor="middle" x="291" y="-894.3" font-family="Times,serif" font-size="14.00">update_asset_storage_system&lt;Scene&gt;</text>
</a>
</g>
</g>
<!-- node_System(60) -->
<g id="node18" class="node">
<title>node_System(60)</title>
<g id="a_node18"><a xlink:title="bevy_asset::loader::update_asset_storage_system&lt;bevy_render::render_resource::shader::Shader&gt;">
<polygon fill="white" stroke="black" points="428,-862 154,-862 154,-826 428,-826 428,-862"/>
<text text-anchor="middle" x="291" y="-840.3" font-family="Times,serif" font-size="14.00">update_asset_storage_system&lt;Shader&gt;</text>
</a>
</g>
</g>
<!-- node_System(74) -->
<g id="node19" class="node">
<title>node_System(74)</title>
<g id="a_node19"><a xlink:title="bevy_asset::loader::update_asset_storage_system&lt;bevy_render::mesh::mesh::Mesh&gt;">
<polygon fill="white" stroke="black" points="422.5,-808 159.5,-808 159.5,-772 422.5,-772 422.5,-808"/>
<text text-anchor="middle" x="291" y="-786.3" font-family="Times,serif" font-size="14.00">update_asset_storage_system&lt;Mesh&gt;</text>
</a>
</g>
</g>
<!-- node_System(77) -->
<g id="node20" class="node">
<title>node_System(77)</title>
<g id="a_node20"><a xlink:title="bevy_asset::loader::update_asset_storage_system&lt;bevy_render::mesh::mesh::skinning::SkinnedMeshInverseBindposes&gt;">
<polygon fill="white" stroke="black" points="508,-754 74,-754 74,-718 508,-718 508,-754"/>
<text text-anchor="middle" x="291" y="-732.3" font-family="Times,serif" font-size="14.00">update_asset_storage_system&lt;SkinnedMeshInverseBindposes&gt;</text>
</a>
</g>
</g>
<!-- node_System(80) -->
<g id="node21" class="node">
<title>node_System(80)</title>
<g id="a_node21"><a xlink:title="bevy_asset::loader::update_asset_storage_system&lt;bevy_render::texture::image::Image&gt;">
<polygon fill="white" stroke="black" points="425.5,-700 156.5,-700 156.5,-664 425.5,-664 425.5,-700"/>
<text text-anchor="middle" x="291" y="-678.3" font-family="Times,serif" font-size="14.00">update_asset_storage_system&lt;Image&gt;</text>
</a>
</g>
</g>
<!-- node_System(83) -->
<g id="node22" class="node">
<title>node_System(83)</title>
<g id="a_node22"><a xlink:title="bevy_asset::loader::update_asset_storage_system&lt;bevy_sprite::texture_atlas::TextureAtlas&gt;">
<polygon fill="white" stroke="black" points="447.5,-646 134.5,-646 134.5,-610 447.5,-610 447.5,-646"/>
<text text-anchor="middle" x="291" y="-624.3" font-family="Times,serif" font-size="14.00">update_asset_storage_system&lt;TextureAtlas&gt;</text>
</a>
</g>
</g>
<!-- node_System(86) -->
<g id="node23" class="node">
<title>node_System(86)</title>
<g id="a_node23"><a xlink:title="bevy_asset::loader::update_asset_storage_system&lt;bevy_sprite::mesh2d::color_material::ColorMaterial&gt;">
<polygon fill="white" stroke="black" points="451.5,-592 130.5,-592 130.5,-556 451.5,-556 451.5,-592"/>
<text text-anchor="middle" x="291" y="-570.3" font-family="Times,serif" font-size="14.00">update_asset_storage_system&lt;ColorMaterial&gt;</text>
</a>
</g>
</g>
<!-- node_System(89) -->
<g id="node24" class="node">
<title>node_System(89)</title>
<g id="a_node24"><a xlink:title="bevy_asset::loader::update_asset_storage_system&lt;bevy_text::font::Font&gt;">
<polygon fill="white" stroke="black" points="419.5,-538 162.5,-538 162.5,-502 419.5,-502 419.5,-538"/>
<text text-anchor="middle" x="291" y="-516.3" font-family="Times,serif" font-size="14.00">update_asset_storage_system&lt;Font&gt;</text>
</a>
</g>
</g>
<!-- node_System(92) -->
<g id="node25" class="node">
<title>node_System(92)</title>
<g id="a_node25"><a xlink:title="bevy_asset::loader::update_asset_storage_system&lt;bevy_text::font_atlas_set::FontAtlasSet&gt;">
<polygon fill="white" stroke="black" points="446.5,-484 135.5,-484 135.5,-448 446.5,-448 446.5,-484"/>
<text text-anchor="middle" x="291" y="-462.3" font-family="Times,serif" font-size="14.00">update_asset_storage_system&lt;FontAtlasSet&gt;</text>
</a>
</g>
</g>
<!-- node_System(102) -->
<g id="node26" class="node">
<title>node_System(102)</title>
<g id="a_node26"><a xlink:title="bevy_asset::loader::update_asset_storage_system&lt;bevy_pbr::pbr_material::StandardMaterial&gt;">
<polygon fill="white" stroke="black" points="464.5,-430 117.5,-430 117.5,-394 464.5,-394 464.5,-430"/>
<text text-anchor="middle" x="291" y="-408.3" font-family="Times,serif" font-size="14.00">update_asset_storage_system&lt;StandardMaterial&gt;</text>
</a>
</g>
</g>
<!-- node_System(113) -->
<g id="node27" class="node">
<title>node_System(113)</title>
<g id="a_node27"><a xlink:title="bevy_asset::loader::update_asset_storage_system&lt;bevy_gltf::Gltf&gt;">
<polygon fill="white" stroke="black" points="416.5,-376 165.5,-376 165.5,-340 416.5,-340 416.5,-376"/>
<text text-anchor="middle" x="291" y="-354.3" font-family="Times,serif" font-size="14.00">update_asset_storage_system&lt;Gltf&gt;</text>
</a>
</g>
</g>
<!-- node_System(116) -->
<g id="node28" class="node">
<title>node_System(116)</title>
<g id="a_node28"><a xlink:title="bevy_asset::loader::update_asset_storage_system&lt;bevy_gltf::GltfNode&gt;">
<polygon fill="white" stroke="black" points="434,-322 148,-322 148,-286 434,-286 434,-322"/>
<text text-anchor="middle" x="291" y="-300.3" font-family="Times,serif" font-size="14.00">update_asset_storage_system&lt;GltfNode&gt;</text>
</a>
</g>
</g>
<!-- node_System(119) -->
<g id="node29" class="node">
<title>node_System(119)</title>
<g id="a_node29"><a xlink:title="bevy_asset::loader::update_asset_storage_system&lt;bevy_gltf::GltfPrimitive&gt;">
<polygon fill="white" stroke="black" points="448,-268 134,-268 134,-232 448,-232 448,-268"/>
<text text-anchor="middle" x="291" y="-246.3" font-family="Times,serif" font-size="14.00">update_asset_storage_system&lt;GltfPrimitive&gt;</text>
</a>
</g>
</g>
<!-- node_System(122) -->
<g id="node30" class="node">
<title>node_System(122)</title>
<g id="a_node30"><a xlink:title="bevy_asset::loader::update_asset_storage_system&lt;bevy_gltf::GltfMesh&gt;">
<polygon fill="white" stroke="black" points="434.5,-214 147.5,-214 147.5,-178 434.5,-178 434.5,-214"/>
<text text-anchor="middle" x="291" y="-192.3" font-family="Times,serif" font-size="14.00">update_asset_storage_system&lt;GltfMesh&gt;</text>
</a>
</g>
</g>
<!-- node_System(125) -->
<g id="node31" class="node">
<title>node_System(125)</title>
<g id="a_node31"><a xlink:title="bevy_asset::loader::update_asset_storage_system&lt;bevy_audio::audio_source::AudioSource&gt;">
<polygon fill="white" stroke="black" points="447,-160 135,-160 135,-124 447,-124 447,-160"/>
<text text-anchor="middle" x="291" y="-138.3" font-family="Times,serif" font-size="14.00">update_asset_storage_system&lt;AudioSource&gt;</text>
</a>
</g>
</g>
<!-- node_System(128) -->
<g id="node32" class="node">
<title>node_System(128)</title>
<g id="a_node32"><a xlink:title="bevy_asset::loader::update_asset_storage_system&lt;bevy_audio::audio_output::AudioSink&gt;">
<polygon fill="white" stroke="black" points="439,-106 143,-106 143,-70 439,-70 439,-106"/>
<text text-anchor="middle" x="291" y="-84.3" font-family="Times,serif" font-size="14.00">update_asset_storage_system&lt;AudioSink&gt;</text>
</a>
</g>
</g>
<!-- node_System(133) -->
<g id="node33" class="node">
<title>node_System(133)</title>
<g id="a_node33"><a xlink:title="bevy_asset::loader::update_asset_storage_system&lt;bevy_animation::AnimationClip&gt;">
<polygon fill="white" stroke="black" points="453,-52 129,-52 129,-16 453,-16 453,-52"/>
<text text-anchor="middle" x="291" y="-30.3" font-family="Times,serif" font-size="14.00">update_asset_storage_system&lt;AnimationClip&gt;</text>
</a>
</g>
</g>
<!-- set_marker_node_Set(59)&#45;&gt;set_marker_node_Set(12) -->
<g id="edge15" class="edge">
<title>set_marker_node_Set(59)&#45;&gt;set_marker_node_Set(12)</title>
<g id="a_edge15"><a xlink:title="AssetEvents → Last">
<path fill="none" stroke="#aa3a55" stroke-width="2" d="M1922,-1073.27C1924.45,-1073.5 1926.82,-1073.71 1929.1,-1073.92"/>
<polygon fill="#aa3a55" stroke="#aa3a55" stroke-width="2" points="1928.71,-1077.4 1938.99,-1074.82 1929.35,-1070.43 1928.71,-1077.4"/>
</a>
</g>
</g>
<!-- node_System(49) -->
<g id="node35" class="node">
<title>node_System(49)</title>
<g id="a_node35"><a xlink:title="bevy_asset::assets::Assets&lt;bevy_scene::dynamic_scene::DynamicScene&gt;::asset_event_system">
<polygon fill="white" stroke="black" points="1860,-1036 1558,-1036 1558,-1000 1860,-1000 1860,-1036"/>
<text text-anchor="middle" x="1709" y="-1014.3" font-family="Times,serif" font-size="14.00">Assets&lt;DynamicScene&gt;asset_event_system</text>
</a>
</g>
</g>
<!-- node_System(52) -->
<g id="node36" class="node">
<title>node_System(52)</title>
<g id="a_node36"><a xlink:title="bevy_asset::assets::Assets&lt;bevy_scene::scene::Scene&gt;::asset_event_system">
<polygon fill="white" stroke="black" points="1829.5,-982 1588.5,-982 1588.5,-946 1829.5,-946 1829.5,-982"/>
<text text-anchor="middle" x="1709" y="-960.3" font-family="Times,serif" font-size="14.00">Assets&lt;Scene&gt;asset_event_system</text>
</a>
</g>
</g>
<!-- node_System(59) -->
<g id="node37" class="node">
<title>node_System(59)</title>
<g id="a_node37"><a xlink:title="bevy_asset::assets::Assets&lt;bevy_render::render_resource::shader::Shader&gt;::asset_event_system">
<polygon fill="white" stroke="black" points="1834,-928 1584,-928 1584,-892 1834,-892 1834,-928"/>
<text text-anchor="middle" x="1709" y="-906.3" font-family="Times,serif" font-size="14.00">Assets&lt;Shader&gt;asset_event_system</text>
</a>
</g>
</g>
<!-- node_System(73) -->
<g id="node38" class="node">
<title>node_System(73)</title>
<g id="a_node38"><a xlink:title="bevy_asset::assets::Assets&lt;bevy_render::mesh::mesh::Mesh&gt;::asset_event_system">
<polygon fill="white" stroke="black" points="1828.5,-874 1589.5,-874 1589.5,-838 1828.5,-838 1828.5,-874"/>
<text text-anchor="middle" x="1709" y="-852.3" font-family="Times,serif" font-size="14.00">Assets&lt;Mesh&gt;asset_event_system</text>
</a>
</g>
</g>
<!-- node_System(76) -->
<g id="node39" class="node">
<title>node_System(76)</title>
<g id="a_node39"><a xlink:title="bevy_asset::assets::Assets&lt;bevy_render::mesh::mesh::skinning::SkinnedMeshInverseBindposes&gt;::asset_event_system">
<polygon fill="white" stroke="black" points="1914,-820 1504,-820 1504,-784 1914,-784 1914,-820"/>
<text text-anchor="middle" x="1709" y="-798.3" font-family="Times,serif" font-size="14.00">Assets&lt;SkinnedMeshInverseBindposes&gt;asset_event_system</text>
</a>
</g>
</g>
<!-- node_System(79) -->
<g id="node40" class="node">
<title>node_System(79)</title>
<g id="a_node40"><a xlink:title="bevy_asset::assets::Assets&lt;bevy_render::texture::image::Image&gt;::asset_event_system">
<polygon fill="white" stroke="black" points="1831.5,-766 1586.5,-766 1586.5,-730 1831.5,-730 1831.5,-766"/>
<text text-anchor="middle" x="1709" y="-744.3" font-family="Times,serif" font-size="14.00">Assets&lt;Image&gt;asset_event_system</text>
</a>
</g>
</g>
<!-- node_System(82) -->
<g id="node41" class="node">
<title>node_System(82)</title>
<g id="a_node41"><a xlink:title="bevy_asset::assets::Assets&lt;bevy_sprite::texture_atlas::TextureAtlas&gt;::asset_event_system">
<polygon fill="white" stroke="black" points="1853.5,-712 1564.5,-712 1564.5,-676 1853.5,-676 1853.5,-712"/>
<text text-anchor="middle" x="1709" y="-690.3" font-family="Times,serif" font-size="14.00">Assets&lt;TextureAtlas&gt;asset_event_system</text>
</a>
</g>
</g>
<!-- node_System(85) -->
<g id="node42" class="node">
<title>node_System(85)</title>
<g id="a_node42"><a xlink:title="bevy_asset::assets::Assets&lt;bevy_sprite::mesh2d::color_material::ColorMaterial&gt;::asset_event_system">
<polygon fill="white" stroke="black" points="1857.5,-658 1560.5,-658 1560.5,-622 1857.5,-622 1857.5,-658"/>
<text text-anchor="middle" x="1709" y="-636.3" font-family="Times,serif" font-size="14.00">Assets&lt;ColorMaterial&gt;asset_event_system</text>
</a>
</g>
</g>
<!-- node_System(88) -->
<g id="node43" class="node">
<title>node_System(88)</title>
<g id="a_node43"><a xlink:title="bevy_asset::assets::Assets&lt;bevy_text::font::Font&gt;::asset_event_system">
<polygon fill="white" stroke="black" points="1825.5,-604 1592.5,-604 1592.5,-568 1825.5,-568 1825.5,-604"/>
<text text-anchor="middle" x="1709" y="-582.3" font-family="Times,serif" font-size="14.00">Assets&lt;Font&gt;asset_event_system</text>
</a>
</g>
</g>
<!-- node_System(91) -->
<g id="node44" class="node">
<title>node_System(91)</title>
<g id="a_node44"><a xlink:title="bevy_asset::assets::Assets&lt;bevy_text::font_atlas_set::FontAtlasSet&gt;::asset_event_system">
<polygon fill="white" stroke="black" points="1852.5,-550 1565.5,-550 1565.5,-514 1852.5,-514 1852.5,-550"/>
<text text-anchor="middle" x="1709" y="-528.3" font-family="Times,serif" font-size="14.00">Assets&lt;FontAtlasSet&gt;asset_event_system</text>
</a>
</g>
</g>
<!-- node_System(101) -->
<g id="node45" class="node">
<title>node_System(101)</title>
<g id="a_node45"><a xlink:title="bevy_asset::assets::Assets&lt;bevy_pbr::pbr_material::StandardMaterial&gt;::asset_event_system">
<polygon fill="white" stroke="black" points="1870.5,-496 1547.5,-496 1547.5,-460 1870.5,-460 1870.5,-496"/>
<text text-anchor="middle" x="1709" y="-474.3" font-family="Times,serif" font-size="14.00">Assets&lt;StandardMaterial&gt;asset_event_system</text>
</a>
</g>
</g>
<!-- node_System(112) -->
<g id="node46" class="node">
<title>node_System(112)</title>
<g id="a_node46"><a xlink:title="bevy_asset::assets::Assets&lt;bevy_gltf::Gltf&gt;::asset_event_system">
<polygon fill="white" stroke="black" points="1822.5,-442 1595.5,-442 1595.5,-406 1822.5,-406 1822.5,-442"/>
<text text-anchor="middle" x="1709" y="-420.3" font-family="Times,serif" font-size="14.00">Assets&lt;Gltf&gt;asset_event_system</text>
</a>
</g>
</g>
<!-- node_System(115) -->
<g id="node47" class="node">
<title>node_System(115)</title>
<g id="a_node47"><a xlink:title="bevy_asset::assets::Assets&lt;bevy_gltf::GltfNode&gt;::asset_event_system">
<polygon fill="white" stroke="black" points="1840,-388 1578,-388 1578,-352 1840,-352 1840,-388"/>
<text text-anchor="middle" x="1709" y="-366.3" font-family="Times,serif" font-size="14.00">Assets&lt;GltfNode&gt;asset_event_system</text>
</a>
</g>
</g>
<!-- node_System(118) -->
<g id="node48" class="node">
<title>node_System(118)</title>
<g id="a_node48"><a xlink:title="bevy_asset::assets::Assets&lt;bevy_gltf::GltfPrimitive&gt;::asset_event_system">
<polygon fill="white" stroke="black" points="1854,-334 1564,-334 1564,-298 1854,-298 1854,-334"/>
<text text-anchor="middle" x="1709" y="-312.3" font-family="Times,serif" font-size="14.00">Assets&lt;GltfPrimitive&gt;asset_event_system</text>
</a>
</g>
</g>
<!-- node_System(121) -->
<g id="node49" class="node">
<title>node_System(121)</title>
<g id="a_node49"><a xlink:title="bevy_asset::assets::Assets&lt;bevy_gltf::GltfMesh&gt;::asset_event_system">
<polygon fill="white" stroke="black" points="1840.5,-280 1577.5,-280 1577.5,-244 1840.5,-244 1840.5,-280"/>
<text text-anchor="middle" x="1709" y="-258.3" font-family="Times,serif" font-size="14.00">Assets&lt;GltfMesh&gt;asset_event_system</text>
</a>
</g>
</g>
<!-- node_System(124) -->
<g id="node50" class="node">
<title>node_System(124)</title>
<g id="a_node50"><a xlink:title="bevy_asset::assets::Assets&lt;bevy_audio::audio_source::AudioSource&gt;::asset_event_system">
<polygon fill="white" stroke="black" points="1853,-226 1565,-226 1565,-190 1853,-190 1853,-226"/>
<text text-anchor="middle" x="1709" y="-204.3" font-family="Times,serif" font-size="14.00">Assets&lt;AudioSource&gt;asset_event_system</text>
</a>
</g>
</g>
<!-- node_System(127) -->
<g id="node51" class="node">
<title>node_System(127)</title>
<g id="a_node51"><a xlink:title="bevy_asset::assets::Assets&lt;bevy_audio::audio_output::AudioSink&gt;::asset_event_system">
<polygon fill="white" stroke="black" points="1845,-172 1573,-172 1573,-136 1845,-136 1845,-172"/>
<text text-anchor="middle" x="1709" y="-150.3" font-family="Times,serif" font-size="14.00">Assets&lt;AudioSink&gt;asset_event_system</text>
</a>
</g>
</g>
<!-- node_System(132) -->
<g id="node52" class="node">
<title>node_System(132)</title>
<g id="a_node52"><a xlink:title="bevy_asset::assets::Assets&lt;bevy_animation::AnimationClip&gt;::asset_event_system">
<polygon fill="white" stroke="black" points="1859,-118 1559,-118 1559,-82 1859,-82 1859,-118"/>
<text text-anchor="middle" x="1709" y="-96.3" font-family="Times,serif" font-size="14.00">Assets&lt;AnimationClip&gt;asset_event_system</text>
</a>
</g>
</g>
</g>
</svg>
