<?xml version="1.0" encoding="UTF-8" standalone="no"?>
<!DOCTYPE svg PUBLIC "-//W3C//DTD SVG 1.1//EN"
 "http://www.w3.org/Graphics/SVG/1.1/DTD/svg11.dtd">
<!-- Generated by graphviz version 7.1.0 (0)
 -->
<!-- Pages: 1 -->
<svg width="1490pt" height="140pt"
 viewBox="0.00 0.00 1490.00 140.00" xmlns="http://www.w3.org/2000/svg" xmlns:xlink="http://www.w3.org/1999/xlink">
<g id="graph0" class="graph" transform="scale(1 1) rotate(0) translate(4 136)">
<polygon fill="white" stroke="none" points="-4,4 -4,-136 1486,-136 1486,4 -4,4"/>
<g id="clust1" class="cluster">
<title>clusternode_Set(0)</title>
<g id="a_clust1"><a xlink:title="Update">
<polygon fill="white" stroke="black" points="691,-8 691,-101 874,-101 874,-8 691,-8"/>
<text text-anchor="middle" x="782.5" y="-85.8" font-family="Helvetica,sans-Serif" font-size="14.00">Update</text>
</a>
</g>
</g>
<g id="clust2" class="cluster">
<title>clusternode_Set(2)</title>
<g id="a_clust2"><a xlink:title="FirstFlush">
<polygon fill="white" stroke="black" points="70,-85 70,-124 152,-124 152,-85 70,-85"/>
<text text-anchor="middle" x="111" y="-108.8" font-family="Helvetica,sans-Serif" font-size="14.00">FirstFlush</text>
</a>
</g>
</g>
<g id="clust3" class="cluster">
<title>clusternode_Set(3)</title>
<g id="a_clust3"><a xlink:title="PreUpdateFlush">
<polygon fill="white" stroke="black" points="284,-62 284,-101 407,-101 407,-62 284,-62"/>
<text text-anchor="middle" x="345.5" y="-85.8" font-family="Helvetica,sans-Serif" font-size="14.00">PreUpdateFlush</text>
</a>
</g>
</g>
<g id="clust4" class="cluster">
<title>clusternode_Set(4)</title>
<g id="a_clust4"><a xlink:title="UpdateFlush">
<polygon fill="white" stroke="black" points="894,-62 894,-101 995,-101 995,-62 894,-62"/>
<text text-anchor="middle" x="944.5" y="-85.8" font-family="Helvetica,sans-Serif" font-size="14.00">UpdateFlush</text>
</a>
</g>
</g>
<g id="clust5" class="cluster">
<title>clusternode_Set(5)</title>
<g id="a_clust5"><a xlink:title="PostUpdateFlush">
<polygon fill="white" stroke="black" points="1189,-73 1189,-112 1318,-112 1318,-73 1189,-73"/>
<text text-anchor="middle" x="1253.5" y="-96.8" font-family="Helvetica,sans-Serif" font-size="14.00">PostUpdateFlush</text>
</a>
</g>
</g>
<g id="clust6" class="cluster">
<title>clusternode_Set(6)</title>
<g id="a_clust6"><a xlink:title="LastFlush">
<polygon fill="white" stroke="black" points="1402,-49 1402,-88 1482,-88 1482,-49 1402,-49"/>
<text text-anchor="middle" x="1442" y="-72.8" font-family="Helvetica,sans-Serif" font-size="14.00">LastFlush</text>
</a>
</g>
</g>
<g id="clust7" class="cluster">
<title>clusternode_Set(7)</title>
<g id="a_clust7"><a xlink:title="First">
<polygon fill="white" stroke="black" points="0,-61 0,-100 46,-100 46,-61 0,-61"/>
<text text-anchor="middle" x="23" y="-84.8" font-family="Helvetica,sans-Serif" font-size="14.00">First</text>
</a>
</g>
</g>
<g id="clust8" class="cluster">
<title>clusternode_Set(8)</title>
<g id="a_clust8"><a xlink:title="PreUpdate">
<polygon fill="white" stroke="black" points="177,-62 177,-101 264,-101 264,-62 177,-62"/>
<text text-anchor="middle" x="220.5" y="-85.8" font-family="Helvetica,sans-Serif" font-size="14.00">PreUpdate</text>
</a>
</g>
</g>
<g id="clust9" class="cluster">
<title>clusternode_Set(9)</title>
<g id="a_clust9"><a xlink:title="StateTransitions">
<polygon fill="white" stroke="black" points="427,-62 427,-101 551,-101 551,-62 427,-62"/>
<text text-anchor="middle" x="489" y="-85.8" font-family="Helvetica,sans-Serif" font-size="14.00">StateTransitions</text>
</a>
</g>
</g>
<g id="clust10" class="cluster">
<title>clusternode_Set(10)</title>
<g id="a_clust10"><a xlink:title="FixedUpdate">
<polygon fill="white" stroke="black" points="571,-62 571,-101 671,-101 671,-62 571,-62"/>
<text text-anchor="middle" x="621" y="-85.8" font-family="Helvetica,sans-Serif" font-size="14.00">FixedUpdate</text>
</a>
</g>
</g>
<g id="clust11" class="cluster">
<title>clusternode_Set(11)</title>
<g id="a_clust11"><a xlink:title="PostUpdate">
<polygon fill="white" stroke="black" points="1015,-8 1015,-101 1169,-101 1169,-8 1015,-8"/>
<text text-anchor="middle" x="1092" y="-85.8" font-family="Helvetica,sans-Serif" font-size="14.00">PostUpdate</text>
</a>
</g>
</g>
<g id="clust12" class="cluster">
<title>clusternode_Set(12)</title>
<g id="a_clust12"><a xlink:title="Last">
<polygon fill="white" stroke="black" points="1338,-49 1338,-88 1382,-88 1382,-49 1338,-49"/>
<text text-anchor="middle" x="1360" y="-72.8" font-family="Helvetica,sans-Serif" font-size="14.00">Last</text>
</a>
</g>
</g>
<g id="clust13" class="cluster">
<title>clusternode_Set(58)</title>
<g id="a_clust13"><a xlink:title="LoadAssets">
<polygon fill="white" stroke="black" points="66,-38 66,-77 157,-77 157,-38 66,-38"/>
<text text-anchor="middle" x="111.5" y="-61.8" font-family="Helvetica,sans-Serif" font-size="14.00">LoadAssets</text>
</a>
</g>
</g>
<g id="clust14" class="cluster">
<title>clusternode_Set(59)</title>
<g id="a_clust14"><a xlink:title="AssetEvents">
<polygon fill="white" stroke="black" points="1205,-26 1205,-65 1301,-65 1301,-26 1205,-26"/>
<text text-anchor="middle" x="1253" y="-49.8" font-family="Helvetica,sans-Serif" font-size="14.00">AssetEvents</text>
</a>
</g>
</g>
<!-- set_marker_node_Set(0) -->
<!-- set_marker_node_Set(4) -->
<!-- set_marker_node_Set(0)&#45;&gt;set_marker_node_Set(4) -->
<g id="edge7" class="edge">
<title>set_marker_node_Set(0)&#45;&gt;set_marker_node_Set(4)</title>
<g id="a_edge7"><a xlink:title="Update → UpdateFlush">
<path fill="none" stroke="#ccd60d" stroke-width="2" d="M874,-70C876.37,-70 878.73,-70 881.07,-70"/>
<polygon fill="#ccd60d" stroke="#ccd60d" stroke-width="2" points="880.98,-73.5 890.98,-70 880.98,-66.5 880.98,-73.5"/>
</a>
</g>
</g>
<!-- node_System(46) -->
<g id="node2" class="node">
<title>node_System(46)</title>
<g id="a_node2"><a xlink:title="bevy_window::system::close_when_requested">
<polygon fill="white" stroke="black" points="866,-52 699,-52 699,-16 866,-16 866,-52"/>
<text text-anchor="middle" x="782.5" y="-30.3" font-family="Times,serif" font-size="14.00">close_when_requested</text>
</a>
</g>
</g>
<!-- set_marker_node_Set(2) -->
<!-- set_marker_node_Set(8) -->
<!-- set_marker_node_Set(2)&#45;&gt;set_marker_node_Set(8) -->
<g id="edge2" class="edge">
<title>set_marker_node_Set(2)&#45;&gt;set_marker_node_Set(8)</title>
<g id="a_edge2"><a xlink:title="FirstFlush → PreUpdate">
<path fill="none" stroke="#251dcc" stroke-width="2" d="M149.2,-85C154.17,-83.94 159.34,-82.82 164.52,-81.71"/>
<polygon fill="#251dcc" stroke="#251dcc" stroke-width="2" points="165,-85.19 174.04,-79.66 163.53,-78.34 165,-85.19"/>
</a>
</g>
</g>
<!-- set_marker_node_Set(3) -->
<!-- set_marker_node_Set(9) -->
<!-- set_marker_node_Set(3)&#45;&gt;set_marker_node_Set(9) -->
<g id="edge4" class="edge">
<title>set_marker_node_Set(3)&#45;&gt;set_marker_node_Set(9)</title>
<g id="a_edge4"><a xlink:title="PreUpdateFlush → StateTransitions">
<path fill="none" stroke="#1dcd59" stroke-width="2" d="M407,-70C409.39,-70 411.8,-70 414.21,-70"/>
<polygon fill="#1dcd59" stroke="#1dcd59" stroke-width="2" points="413.98,-73.5 423.98,-70 413.98,-66.5 413.98,-73.5"/>
</a>
</g>
</g>
<!-- set_marker_node_Set(11) -->
<!-- set_marker_node_Set(4)&#45;&gt;set_marker_node_Set(11) -->
<g id="edge8" class="edge">
<title>set_marker_node_Set(4)&#45;&gt;set_marker_node_Set(11)</title>
<g id="a_edge8"><a xlink:title="UpdateFlush → PostUpdate">
<path fill="none" stroke="#29e000" stroke-width="2" d="M995,-70C997.37,-70 999.79,-70 1002.23,-70"/>
<polygon fill="#29e000" stroke="#29e000" stroke-width="2" points="1001.98,-73.5 1011.98,-70 1001.98,-66.5 1001.98,-73.5"/>
</a>
</g>
</g>
<!-- set_marker_node_Set(5) -->
<!-- set_marker_node_Set(12) -->
<!-- set_marker_node_Set(5)&#45;&gt;set_marker_node_Set(12) -->
<g id="edge10" class="edge">
<title>set_marker_node_Set(5)&#45;&gt;set_marker_node_Set(12)</title>
<g id="a_edge10"><a xlink:title="PostUpdateFlush → Last">
<path fill="none" stroke="#810ccd" stroke-width="2" d="M1299.71,-73C1305.88,-71.76 1312.11,-70.41 1318,-69 1320.46,-68.41 1322.99,-67.77 1325.52,-67.09"/>
<polygon fill="#810ccd" stroke="#810ccd" stroke-width="2" points="1326.41,-70.48 1335.09,-64.4 1324.51,-63.74 1326.41,-70.48"/>
</a>
</g>
</g>
<!-- set_marker_node_Set(6) -->
<!-- set_marker_node_Set(7) -->
<!-- set_marker_node_Set(7)&#45;&gt;set_marker_node_Set(2) -->
<g id="edge1" class="edge">
<title>set_marker_node_Set(7)&#45;&gt;set_marker_node_Set(2)</title>
<g id="a_edge1"><a xlink:title="First → FirstFlush">
<path fill="none" stroke="#c4cc1d" stroke-width="2" d="M46,-75.34C52.44,-77.18 59.5,-79.18 66,-81 66.73,-81.2 67.47,-81.41 68.21,-81.62"/>
<polygon fill="#c4cc1d" stroke="#c4cc1d" stroke-width="2" points="67,-84.91 77.57,-84.2 68.86,-78.17 67,-84.91"/>
</a>
</g>
</g>
<!-- set_marker_node_Set(58) -->
<!-- set_marker_node_Set(7)&#45;&gt;set_marker_node_Set(58) -->
<g id="edge13" class="edge">
<title>set_marker_node_Set(7)&#45;&gt;set_marker_node_Set(58)</title>
<g id="a_edge13"><a xlink:title="First → LoadAssets">
<path fill="none" stroke="#c4cc1d" stroke-width="2" d="M46,-63.12C48.46,-62.46 51.05,-61.77 53.71,-61.05"/>
<polygon fill="#c4cc1d" stroke="#c4cc1d" stroke-width="2" points="54.32,-64.51 63.08,-58.55 52.51,-57.75 54.32,-64.51"/>
</a>
</g>
</g>
<!-- set_marker_node_Set(8)&#45;&gt;set_marker_node_Set(3) -->
<g id="edge3" class="edge">
<title>set_marker_node_Set(8)&#45;&gt;set_marker_node_Set(3)</title>
<g id="a_edge3"><a xlink:title="PreUpdate → PreUpdateFlush">
<path fill="none" stroke="#cd1d91" stroke-width="2" d="M264,-70C266.39,-70 268.82,-70 271.28,-70"/>
<polygon fill="#cd1d91" stroke="#cd1d91" stroke-width="2" points="270.98,-73.5 280.98,-70 270.98,-66.5 270.98,-73.5"/>
</a>
</g>
</g>
<!-- set_marker_node_Set(10) -->
<!-- set_marker_node_Set(9)&#45;&gt;set_marker_node_Set(10) -->
<g id="edge5" class="edge">
<title>set_marker_node_Set(9)&#45;&gt;set_marker_node_Set(10)</title>
<g id="a_edge5"><a xlink:title="StateTransitions → FixedUpdate">
<path fill="none" stroke="#1dc4cc" stroke-width="2" d="M551,-70C553.39,-70 555.79,-70 558.19,-70"/>
<polygon fill="#1dc4cc" stroke="#1dc4cc" stroke-width="2" points="557.98,-73.5 567.98,-70 557.98,-66.5 557.98,-73.5"/>
</a>
</g>
</g>
<!-- set_marker_node_Set(10)&#45;&gt;set_marker_node_Set(0) -->
<g id="edge6" class="edge">
<title>set_marker_node_Set(10)&#45;&gt;set_marker_node_Set(0)</title>
<g id="a_edge6"><a xlink:title="FixedUpdate → Update">
<path fill="none" stroke="#cc251d" stroke-width="2" d="M671,-70C673.35,-70 675.73,-70 678.15,-70"/>
<polygon fill="#cc251d" stroke="#cc251d" stroke-width="2" points="677.98,-73.5 687.97,-70 677.97,-66.5 677.98,-73.5"/>
</a>
</g>
</g>
<!-- set_marker_node_Set(11)&#45;&gt;set_marker_node_Set(5) -->
<g id="edge9" class="edge">
<title>set_marker_node_Set(11)&#45;&gt;set_marker_node_Set(5)</title>
<g id="a_edge9"><a xlink:title="PostUpdate → PostUpdateFlush">
<path fill="none" stroke="#58cd0c" stroke-width="2" d="M1169,-75.26C1171.4,-75.42 1173.8,-75.59 1176.2,-75.76"/>
<polygon fill="#58cd0c" stroke="#58cd0c" stroke-width="2" points="1175.76,-79.23 1185.98,-76.43 1176.25,-72.25 1175.76,-79.23"/>
</a>
</g>
</g>
<!-- set_marker_node_Set(59) -->
<!-- set_marker_node_Set(11)&#45;&gt;set_marker_node_Set(59) -->
<g id="edge14" class="edge">
<title>set_marker_node_Set(11)&#45;&gt;set_marker_node_Set(59)</title>
<g id="a_edge14"><a xlink:title="PostUpdate → AssetEvents">
<path fill="none" stroke="#251dcc" stroke-width="2" d="M1169,-61C1176.76,-59.3 1184.83,-57.16 1192.75,-54.83"/>
<polygon fill="#251dcc" stroke="#251dcc" stroke-width="2" points="1193.58,-58.24 1202.11,-51.95 1191.52,-51.55 1193.58,-58.24"/>
</a>
</g>
</g>
<!-- node_System(45) -->
<g id="node13" class="node">
<title>node_System(45)</title>
<g id="a_node13"><a xlink:title="bevy_window::system::exit_on_all_closed">
<polygon fill="white" stroke="black" points="1161,-52 1023,-52 1023,-16 1161,-16 1161,-52"/>
<text text-anchor="middle" x="1092" y="-30.3" font-family="Times,serif" font-size="14.00">exit_on_all_closed</text>
</a>
</g>
</g>
<!-- set_marker_node_Set(12)&#45;&gt;set_marker_node_Set(6) -->
<g id="edge11" class="edge">
<title>set_marker_node_Set(12)&#45;&gt;set_marker_node_Set(6)</title>
<g id="a_edge11"><a xlink:title="Last → LastFlush">
<path fill="none" stroke="#cf410c" stroke-width="2" d="M1382,-57C1384.31,-57 1386.74,-57 1389.23,-57"/>
<polygon fill="#cf410c" stroke="#cf410c" stroke-width="2" points="1388.98,-60.5 1398.98,-57 1388.98,-53.5 1388.98,-60.5"/>
</a>
</g>
</g>
<!-- set_marker_node_Set(58)&#45;&gt;set_marker_node_Set(8) -->
<g id="edge12" class="edge">
<title>set_marker_node_Set(58)&#45;&gt;set_marker_node_Set(8)</title>
<g id="a_edge12"><a xlink:title="LoadAssets → PreUpdate">
<path fill="none" stroke="#0c9acf" stroke-width="2" d="M157,-56.09C161.6,-57.12 166.28,-58.18 170.91,-59.21"/>
<polygon fill="#0c9acf" stroke="#0c9acf" stroke-width="2" points="169.87,-62.57 180.39,-61.34 171.4,-55.74 169.87,-62.57"/>
</a>
</g>
</g>
<!-- set_marker_node_Set(59)&#45;&gt;set_marker_node_Set(12) -->
<g id="edge15" class="edge">
<title>set_marker_node_Set(59)&#45;&gt;set_marker_node_Set(12)</title>
<g id="a_edge15"><a xlink:title="AssetEvents → Last">
<path fill="none" stroke="#cd1d91" stroke-width="2" d="M1301,-44.29C1309.25,-46.1 1317.69,-47.95 1325.48,-49.66"/>
<polygon fill="#cd1d91" stroke="#cd1d91" stroke-width="2" points="1324.53,-53.03 1335.04,-51.75 1326.02,-46.19 1324.53,-53.03"/>
</a>
</g>
</g>
</g>
</svg>
