<?xml version="1.0" encoding="UTF-8" standalone="no"?>
<!DOCTYPE svg PUBLIC "-//W3C//DTD SVG 1.1//EN"
 "http://www.w3.org/Graphics/SVG/1.1/DTD/svg11.dtd">
<!-- Generated by graphviz version 7.1.0 (0)
 -->
<!-- Pages: 1 -->
<svg width="1945pt" height="368pt"
 viewBox="0.00 0.00 1945.00 368.00" xmlns="http://www.w3.org/2000/svg" xmlns:xlink="http://www.w3.org/1999/xlink">
<g id="graph0" class="graph" transform="scale(1 1) rotate(0) translate(4 364)">
<polygon fill="white" stroke="none" points="-4,4 -4,-364 1941,-364 1941,4 -4,4"/>
<g id="clust1" class="cluster">
<title>clusternode_Set(0)</title>
<g id="a_clust1"><a xlink:title="Update">
<polygon fill="white" stroke="black" points="865,-102 865,-141 930,-141 930,-102 865,-102"/>
<text text-anchor="middle" x="897.5" y="-125.8" font-family="Helvetica,sans-Serif" font-size="14.00">Update</text>
</a>
</g>
</g>
<g id="clust2" class="cluster">
<title>clusternode_Set(2)</title>
<g id="a_clust2"><a xlink:title="FirstFlush">
<polygon fill="white" stroke="black" points="204,-172 204,-211 286,-211 286,-172 204,-172"/>
<text text-anchor="middle" x="245" y="-195.8" font-family="Helvetica,sans-Serif" font-size="14.00">FirstFlush</text>
</a>
</g>
</g>
<g id="clust3" class="cluster">
<title>clusternode_Set(3)</title>
<g id="a_clust3"><a xlink:title="PreUpdateFlush">
<polygon fill="white" stroke="black" points="449.5,-102 449.5,-141 572.5,-141 572.5,-102 449.5,-102"/>
<text text-anchor="middle" x="511" y="-125.8" font-family="Helvetica,sans-Serif" font-size="14.00">PreUpdateFlush</text>
</a>
</g>
</g>
<g id="clust4" class="cluster">
<title>clusternode_Set(4)</title>
<g id="a_clust4"><a xlink:title="UpdateFlush">
<polygon fill="white" stroke="black" points="950,-102 950,-141 1051,-141 1051,-102 950,-102"/>
<text text-anchor="middle" x="1000.5" y="-125.8" font-family="Helvetica,sans-Serif" font-size="14.00">UpdateFlush</text>
</a>
</g>
</g>
<g id="clust5" class="cluster">
<title>clusternode_Set(5)</title>
<g id="a_clust5"><a xlink:title="PostUpdateFlush">
<polygon fill="white" stroke="black" points="1390,-55 1390,-94 1519,-94 1519,-55 1390,-55"/>
<text text-anchor="middle" x="1454.5" y="-78.8" font-family="Helvetica,sans-Serif" font-size="14.00">PostUpdateFlush</text>
</a>
</g>
</g>
<g id="clust6" class="cluster">
<title>clusternode_Set(6)</title>
<g id="a_clust6"><a xlink:title="LastFlush">
<polygon fill="white" stroke="black" points="1793,-31 1793,-70 1873,-70 1873,-31 1793,-31"/>
<text text-anchor="middle" x="1833" y="-54.8" font-family="Helvetica,sans-Serif" font-size="14.00">LastFlush</text>
</a>
</g>
</g>
<g id="clust7" class="cluster">
<title>clusternode_Set(7)</title>
<g id="a_clust7"><a xlink:title="First">
<polygon fill="white" stroke="black" points="67,-148 67,-187 113,-187 113,-148 67,-148"/>
<text text-anchor="middle" x="90" y="-171.8" font-family="Helvetica,sans-Serif" font-size="14.00">First</text>
</a>
</g>
</g>
<g id="clust8" class="cluster">
<title>clusternode_Set(8)</title>
<g id="a_clust8"><a xlink:title="PreUpdate">
<polygon fill="white" stroke="black" points="303,-149 303,-281 589,-281 589,-149 303,-149"/>
<text text-anchor="middle" x="446" y="-265.8" font-family="Helvetica,sans-Serif" font-size="14.00">PreUpdate</text>
</a>
</g>
</g>
<g id="clust9" class="cluster">
<title>clusternode_Set(25)</title>
<g id="a_clust9"><a xlink:title="InputSystem">
<polygon fill="white" stroke="black" points="311,-175 311,-214 412,-214 412,-175 311,-175"/>
<text text-anchor="middle" x="361.5" y="-198.8" font-family="Helvetica,sans-Serif" font-size="14.00">InputSystem</text>
</a>
</g>
</g>
<g id="clust10" class="cluster">
<title>clusternode_Set(116)</title>
<g id="a_clust10"><a xlink:title="Focus">
<polygon fill="white" stroke="black" points="440,-157 440,-250 581,-250 581,-157 440,-157"/>
<text text-anchor="middle" x="510.5" y="-234.8" font-family="Helvetica,sans-Serif" font-size="14.00">Focus</text>
</a>
</g>
</g>
<g id="clust11" class="cluster">
<title>clusternode_Set(9)</title>
<g id="a_clust11"><a xlink:title="StateTransitions">
<polygon fill="white" stroke="black" points="601,-102 601,-141 725,-141 725,-102 601,-102"/>
<text text-anchor="middle" x="663" y="-125.8" font-family="Helvetica,sans-Serif" font-size="14.00">StateTransitions</text>
</a>
</g>
</g>
<g id="clust12" class="cluster">
<title>clusternode_Set(10)</title>
<g id="a_clust12"><a xlink:title="FixedUpdate">
<polygon fill="white" stroke="black" points="745,-102 745,-141 845,-141 845,-102 745,-102"/>
<text text-anchor="middle" x="795" y="-125.8" font-family="Helvetica,sans-Serif" font-size="14.00">FixedUpdate</text>
</a>
</g>
</g>
<g id="clust13" class="cluster">
<title>clusternode_Set(11)</title>
<g id="a_clust13"><a xlink:title="PostUpdate">
<polygon fill="white" stroke="black" points="1071,-102 1071,-352 1929,-352 1929,-102 1071,-102"/>
<text text-anchor="middle" x="1500" y="-336.8" font-family="Helvetica,sans-Serif" font-size="14.00">PostUpdate</text>
</a>
</g>
</g>
<g id="clust14" class="cluster">
<title>clusternode_Set(20)</title>
<g id="a_clust14"><a xlink:title="TransformPropagate">
<polygon fill="white" stroke="black" points="1557,-142 1557,-181 1709,-181 1709,-142 1557,-142"/>
<text text-anchor="middle" x="1633" y="-165.8" font-family="Helvetica,sans-Serif" font-size="14.00">TransformPropagate</text>
</a>
</g>
</g>
<g id="clust15" class="cluster">
<title>clusternode_Set(117)</title>
<g id="a_clust15"><a xlink:title="Flex">
<polygon fill="white" stroke="black" points="1379,-124 1379,-217 1529,-217 1529,-124 1379,-124"/>
<text text-anchor="middle" x="1454" y="-201.8" font-family="Helvetica,sans-Serif" font-size="14.00">Flex</text>
</a>
</g>
</g>
<g id="clust16" class="cluster">
<title>clusternode_Set(118)</title>
<g id="a_clust16"><a xlink:title="Stack">
<polygon fill="white" stroke="black" points="1144.5,-228 1144.5,-321 1285.5,-321 1285.5,-228 1144.5,-228"/>
<text text-anchor="middle" x="1215" y="-305.8" font-family="Helvetica,sans-Serif" font-size="14.00">Stack</text>
</a>
</g>
</g>
<g id="clust17" class="cluster">
<title>clusternode_Set(12)</title>
<g id="a_clust17"><a xlink:title="Last">
<polygon fill="white" stroke="black" points="1611,-31 1611,-70 1655,-70 1655,-31 1611,-31"/>
<text text-anchor="middle" x="1633" y="-54.8" font-family="Helvetica,sans-Serif" font-size="14.00">Last</text>
</a>
</g>
</g>
<g id="clust18" class="cluster">
<title>clusternode_Set(22)</title>
<g id="a_clust18"><a xlink:title="PropagateTransformsSet">
<polygon fill="white" stroke="black" points="0,-277 0,-316 180,-316 180,-277 0,-277"/>
<text text-anchor="middle" x="90" y="-300.8" font-family="Helvetica,sans-Serif" font-size="14.00">PropagateTransformsSet</text>
</a>
</g>
</g>
<g id="clust19" class="cluster">
<title>clusternode_Set(59)</title>
<g id="a_clust19"><a xlink:title="LoadAssets">
<polygon fill="white" stroke="black" points="200,-125 200,-164 291,-164 291,-125 200,-125"/>
<text text-anchor="middle" x="245.5" y="-148.8" font-family="Helvetica,sans-Serif" font-size="14.00">LoadAssets</text>
</a>
</g>
</g>
<g id="clust20" class="cluster">
<title>clusternode_Set(60)</title>
<g id="a_clust20"><a xlink:title="AssetEvents">
<polygon fill="white" stroke="black" points="1406,-8 1406,-47 1502,-47 1502,-8 1406,-8"/>
<text text-anchor="middle" x="1454" y="-31.8" font-family="Helvetica,sans-Serif" font-size="14.00">AssetEvents</text>
</a>
</g>
</g>
<!-- set_marker_node_Set(0) -->
<!-- set_marker_node_Set(4) -->
<!-- set_marker_node_Set(0)&#45;&gt;set_marker_node_Set(4) -->
<g id="edge7" class="edge">
<title>set_marker_node_Set(0)&#45;&gt;set_marker_node_Set(4)</title>
<g id="a_edge7"><a xlink:title="Update → UpdateFlush">
<path fill="none" stroke="#ee9e44" stroke-width="2" d="M930,-110C932.35,-110 934.77,-110 937.22,-110"/>
<polygon fill="#ee9e44" stroke="#ee9e44" stroke-width="2" points="936.97,-113.5 946.97,-110 936.97,-106.5 936.97,-113.5"/>
</a>
</g>
</g>
<!-- set_marker_node_Set(2) -->
<!-- set_marker_node_Set(8) -->
<!-- set_marker_node_Set(2)&#45;&gt;set_marker_node_Set(8) -->
<g id="edge2" class="edge">
<title>set_marker_node_Set(2)&#45;&gt;set_marker_node_Set(8)</title>
<g id="a_edge2"><a xlink:title="FirstFlush → PreUpdate">
<path fill="none" stroke="#881877" stroke-width="2" d="M285.63,-172C287.23,-171.68 288.84,-171.36 290.48,-171.03"/>
<polygon fill="#881877" stroke="#881877" stroke-width="2" points="290.93,-174.51 300.04,-169.1 289.54,-167.64 290.93,-174.51"/>
</a>
</g>
</g>
<!-- set_marker_node_Set(3) -->
<!-- set_marker_node_Set(9) -->
<!-- set_marker_node_Set(3)&#45;&gt;set_marker_node_Set(9) -->
<g id="edge4" class="edge">
<title>set_marker_node_Set(3)&#45;&gt;set_marker_node_Set(9)</title>
<g id="a_edge4"><a xlink:title="PreUpdateFlush → StateTransitions">
<path fill="none" stroke="#aa3a55" stroke-width="2" d="M572.5,-110C577.62,-110 582.83,-110 588.04,-110"/>
<polygon fill="#aa3a55" stroke="#aa3a55" stroke-width="2" points="587.98,-113.5 597.98,-110 587.98,-106.5 587.98,-113.5"/>
</a>
</g>
</g>
<!-- set_marker_node_Set(11) -->
<!-- set_marker_node_Set(4)&#45;&gt;set_marker_node_Set(11) -->
<g id="edge8" class="edge">
<title>set_marker_node_Set(4)&#45;&gt;set_marker_node_Set(11)</title>
<g id="a_edge8"><a xlink:title="UpdateFlush → PostUpdate">
<path fill="none" stroke="#663699" stroke-width="2" d="M1051,-110C1053.37,-110 1055.81,-110 1058.28,-110"/>
<polygon fill="#663699" stroke="#663699" stroke-width="2" points="1057.98,-113.5 1067.98,-110 1057.98,-106.5 1057.98,-113.5"/>
</a>
</g>
</g>
<!-- set_marker_node_Set(5) -->
<!-- set_marker_node_Set(12) -->
<!-- set_marker_node_Set(5)&#45;&gt;set_marker_node_Set(12) -->
<g id="edge10" class="edge">
<title>set_marker_node_Set(5)&#45;&gt;set_marker_node_Set(12)</title>
<g id="a_edge10"><a xlink:title="PostUpdateFlush → Last">
<path fill="none" stroke="#22c2bb" stroke-width="2" d="M1513.97,-55C1541.99,-51.21 1574.47,-46.8 1598.26,-43.58"/>
<polygon fill="#22c2bb" stroke="#22c2bb" stroke-width="2" points="1598.56,-47.07 1608,-42.25 1597.62,-40.13 1598.56,-47.07"/>
</a>
</g>
</g>
<!-- set_marker_node_Set(6) -->
<!-- set_marker_node_Set(7) -->
<!-- set_marker_node_Set(7)&#45;&gt;set_marker_node_Set(2) -->
<g id="edge1" class="edge">
<title>set_marker_node_Set(7)&#45;&gt;set_marker_node_Set(2)</title>
<g id="a_edge1"><a xlink:title="First → FirstFlush">
<path fill="none" stroke="#eede00" stroke-width="2" d="M113,-159.45C133.39,-162.65 164.54,-167.53 191.34,-171.74"/>
<polygon fill="#eede00" stroke="#eede00" stroke-width="2" points="190.59,-175.17 201.01,-173.26 191.68,-168.25 190.59,-175.17"/>
</a>
</g>
</g>
<!-- set_marker_node_Set(59) -->
<!-- set_marker_node_Set(7)&#45;&gt;set_marker_node_Set(59) -->
<g id="edge13" class="edge">
<title>set_marker_node_Set(7)&#45;&gt;set_marker_node_Set(59)</title>
<g id="a_edge13"><a xlink:title="First → LoadAssets">
<path fill="none" stroke="#881877" stroke-width="2" d="M113,-152.69C132.35,-149.78 161.37,-145.42 187.19,-141.54"/>
<polygon fill="#881877" stroke="#881877" stroke-width="2" points="187.64,-145.01 197.01,-140.06 186.6,-138.09 187.64,-145.01"/>
</a>
</g>
</g>
<!-- set_marker_node_Set(8)&#45;&gt;set_marker_node_Set(3) -->
<g id="edge3" class="edge">
<title>set_marker_node_Set(8)&#45;&gt;set_marker_node_Set(3)</title>
<g id="a_edge3"><a xlink:title="PreUpdate → PreUpdateFlush">
<path fill="none" stroke="#00b0cc" stroke-width="2" d="M387.1,-149C401.07,-144.55 419.24,-138.76 437.29,-133.01"/>
<polygon fill="#00b0cc" stroke="#00b0cc" stroke-width="2" points="438.15,-136.41 446.62,-130.04 436.03,-129.74 438.15,-136.41"/>
</a>
</g>
</g>
<!-- set_marker_node_Set(25) -->
<!-- node_System(95) -->
<g id="node11" class="node">
<title>node_System(95)</title>
<g id="a_node11"><a xlink:title="bevy_ui::focus::ui_focus_system">
<polygon fill="white" stroke="black" points="573,-201 448,-201 448,-165 573,-165 573,-201"/>
<text text-anchor="middle" x="510.5" y="-179.3" font-family="Times,serif" font-size="14.00">ui_focus_system</text>
</a>
</g>
</g>
<!-- set_marker_node_Set(25)&#45;&gt;node_System(95) -->
<g id="edge16" class="edge">
<title>set_marker_node_Set(25)&#45;&gt;node_System(95)</title>
<g id="a_edge16"><a xlink:title="InputSystem → ui_focus_system">
<path fill="none" stroke="#44d488" stroke-width="2" d="M412,-183C419.31,-183 426.98,-183 434.66,-183"/>
<polygon fill="#44d488" stroke="#44d488" stroke-width="2" points="434.61,-186.5 444.61,-183 434.61,-179.5 434.61,-186.5"/>
</a>
</g>
</g>
<!-- set_marker_node_Set(116) -->
<!-- set_marker_node_Set(10) -->
<!-- set_marker_node_Set(9)&#45;&gt;set_marker_node_Set(10) -->
<g id="edge5" class="edge">
<title>set_marker_node_Set(9)&#45;&gt;set_marker_node_Set(10)</title>
<g id="a_edge5"><a xlink:title="StateTransitions → FixedUpdate">
<path fill="none" stroke="#44d488" stroke-width="2" d="M725,-110C727.39,-110 729.79,-110 732.19,-110"/>
<polygon fill="#44d488" stroke="#44d488" stroke-width="2" points="731.98,-113.5 741.98,-110 731.98,-106.5 731.98,-113.5"/>
</a>
</g>
</g>
<!-- set_marker_node_Set(10)&#45;&gt;set_marker_node_Set(0) -->
<g id="edge6" class="edge">
<title>set_marker_node_Set(10)&#45;&gt;set_marker_node_Set(0)</title>
<g id="a_edge6"><a xlink:title="FixedUpdate → Update">
<path fill="none" stroke="#0090cc" stroke-width="2" d="M845,-110C847.37,-110 849.75,-110 852.11,-110"/>
<polygon fill="#0090cc" stroke="#0090cc" stroke-width="2" points="851.98,-113.5 861.98,-110 851.98,-106.5 851.98,-113.5"/>
</a>
</g>
</g>
<!-- set_marker_node_Set(11)&#45;&gt;set_marker_node_Set(5) -->
<g id="edge9" class="edge">
<title>set_marker_node_Set(11)&#45;&gt;set_marker_node_Set(5)</title>
<g id="a_edge9"><a xlink:title="PostUpdate → PostUpdateFlush">
<path fill="none" stroke="#3363bb" stroke-width="2" d="M1256.34,-102C1289.46,-95.43 1337.3,-85.95 1377.49,-77.97"/>
<polygon fill="#3363bb" stroke="#3363bb" stroke-width="2" points="1377.9,-81.46 1387.03,-76.08 1376.54,-74.59 1377.9,-81.46"/>
</a>
</g>
</g>
<!-- set_marker_node_Set(60) -->
<!-- set_marker_node_Set(11)&#45;&gt;set_marker_node_Set(60) -->
<g id="edge14" class="edge">
<title>set_marker_node_Set(11)&#45;&gt;set_marker_node_Set(60)</title>
<g id="a_edge14"><a xlink:title="PostUpdate → AssetEvents">
<path fill="none" stroke="#00b0cc" stroke-width="2" d="M1236.16,-102C1270.69,-88.31 1342.42,-59.86 1393.93,-39.43"/>
<polygon fill="#00b0cc" stroke="#00b0cc" stroke-width="2" points="1395.19,-42.7 1403.19,-35.76 1392.61,-36.19 1395.19,-42.7"/>
</a>
</g>
</g>
<!-- set_marker_node_Set(20) -->
<!-- node_System(100) -->
<g id="node22" class="node">
<title>node_System(100)</title>
<g id="a_node22"><a xlink:title="bevy_ui::update::update_clipping_system">
<polygon fill="white" stroke="black" points="1921,-168 1745,-168 1745,-132 1921,-132 1921,-168"/>
<text text-anchor="middle" x="1833" y="-146.3" font-family="Times,serif" font-size="14.00">update_clipping_system</text>
</a>
</g>
</g>
<!-- set_marker_node_Set(20)&#45;&gt;node_System(100) -->
<g id="edge20" class="edge">
<title>set_marker_node_Set(20)&#45;&gt;node_System(100)</title>
<g id="a_edge20"><a xlink:title="TransformPropagate → update_clipping_system">
<path fill="none" stroke="#3363bb" stroke-width="2" d="M1709,-150C1716.52,-150 1724.25,-150 1731.98,-150"/>
<polygon fill="#3363bb" stroke="#3363bb" stroke-width="2" points="1731.69,-153.5 1741.69,-150 1731.69,-146.5 1731.69,-153.5"/>
</a>
</g>
</g>
<!-- set_marker_node_Set(117) -->
<!-- node_System(98) -->
<g id="node17" class="node">
<title>node_System(98)</title>
<g id="a_node17"><a xlink:title="bevy_ui::flex::flex_node_system">
<polygon fill="white" stroke="black" points="1521,-168 1387,-168 1387,-132 1521,-132 1521,-168"/>
<text text-anchor="middle" x="1454" y="-146.3" font-family="Times,serif" font-size="14.00">flex_node_system</text>
</a>
</g>
</g>
<!-- node_System(98)&#45;&gt;set_marker_node_Set(20) -->
<g id="edge19" class="edge">
<title>node_System(98)&#45;&gt;set_marker_node_Set(20)</title>
<g id="a_edge19"><a xlink:title="flex_node_system → TransformPropagate">
<path fill="none" stroke="#663699" stroke-width="2" d="M1521.41,-150C1528.85,-150 1536.51,-150 1544.17,-150"/>
<polygon fill="#663699" stroke="#663699" stroke-width="2" points="1543.97,-153.5 1553.97,-150 1543.97,-146.5 1543.97,-153.5"/>
</a>
</g>
</g>
<!-- set_marker_node_Set(118) -->
<!-- node_System(99) -->
<g id="node19" class="node">
<title>node_System(99)</title>
<g id="a_node19"><a xlink:title="bevy_ui::stack::ui_stack_system">
<polygon fill="white" stroke="black" points="1277.5,-272 1152.5,-272 1152.5,-236 1277.5,-236 1277.5,-272"/>
<text text-anchor="middle" x="1215" y="-250.3" font-family="Times,serif" font-size="14.00">ui_stack_system</text>
</a>
</g>
</g>
<!-- node_System(96) -->
<g id="node20" class="node">
<title>node_System(96)</title>
<g id="a_node20"><a xlink:title="bevy_ui::widget::text::text_system">
<polygon fill="white" stroke="black" points="1263,-218 1167,-218 1167,-182 1263,-182 1263,-218"/>
<text text-anchor="middle" x="1215" y="-196.3" font-family="Times,serif" font-size="14.00">text_system</text>
</a>
</g>
</g>
<!-- node_System(96)&#45;&gt;set_marker_node_Set(117) -->
<g id="edge17" class="edge">
<title>node_System(96)&#45;&gt;set_marker_node_Set(117)</title>
<g id="a_edge17"><a xlink:title="text_system → Flex">
<path fill="none" stroke="#0090cc" stroke-width="2" d="M1263.39,-197.2C1292.84,-195.46 1331.6,-193.17 1366.39,-191.12"/>
<polygon fill="#0090cc" stroke="#0090cc" stroke-width="2" points="1366.2,-194.63 1375.98,-190.55 1365.79,-187.65 1366.2,-194.63"/>
</a>
</g>
</g>
<!-- node_System(97) -->
<g id="node21" class="node">
<title>node_System(97)</title>
<g id="a_node21"><a xlink:title="bevy_ui::widget::image::update_image_calculated_size_system">
<polygon fill="white" stroke="black" points="1351,-164 1079,-164 1079,-128 1351,-128 1351,-164"/>
<text text-anchor="middle" x="1215" y="-142.3" font-family="Times,serif" font-size="14.00">update_image_calculated_size_system</text>
</a>
</g>
</g>
<!-- node_System(97)&#45;&gt;set_marker_node_Set(117) -->
<g id="edge18" class="edge">
<title>node_System(97)&#45;&gt;set_marker_node_Set(117)</title>
<g id="a_edge18"><a xlink:title="update_image_calculated_size_system → Flex">
<path fill="none" stroke="#ee9e44" stroke-width="2" d="M1307.2,-164.46C1326.35,-168.08 1346.69,-171.76 1366.27,-174.96"/>
<polygon fill="#ee9e44" stroke="#ee9e44" stroke-width="2" points="1365.58,-178.4 1376.01,-176.52 1366.69,-171.49 1365.58,-178.4"/>
</a>
</g>
</g>
<!-- set_marker_node_Set(12)&#45;&gt;set_marker_node_Set(6) -->
<g id="edge11" class="edge">
<title>set_marker_node_Set(12)&#45;&gt;set_marker_node_Set(6)</title>
<g id="a_edge11"><a xlink:title="Last → LastFlush">
<path fill="none" stroke="#99d955" stroke-width="2" d="M1655,-39C1684.54,-39 1739.34,-39 1780.17,-39"/>
<polygon fill="#99d955" stroke="#99d955" stroke-width="2" points="1779.98,-42.5 1789.98,-39 1779.98,-35.5 1779.98,-42.5"/>
</a>
</g>
</g>
<!-- set_marker_node_Set(22) -->
<!-- set_marker_node_Set(59)&#45;&gt;set_marker_node_Set(8) -->
<g id="edge12" class="edge">
<title>set_marker_node_Set(59)&#45;&gt;set_marker_node_Set(8)</title>
<g id="a_edge12"><a xlink:title="LoadAssets → PreUpdate">
<path fill="none" stroke="#eede00" stroke-width="2" d="M291,-142.47C297.09,-143.76 303.38,-145.08 309.56,-146.38"/>
<polygon fill="#eede00" stroke="#eede00" stroke-width="2" points="308.55,-149.74 319.05,-148.38 309.99,-142.89 308.55,-149.74"/>
</a>
</g>
</g>
<!-- set_marker_node_Set(60)&#45;&gt;set_marker_node_Set(12) -->
<g id="edge15" class="edge">
<title>set_marker_node_Set(60)&#45;&gt;set_marker_node_Set(12)</title>
<g id="a_edge15"><a xlink:title="AssetEvents → Last">
<path fill="none" stroke="#aa3a55" stroke-width="2" d="M1502,-22.11C1532.3,-26.04 1570.99,-31.07 1598.26,-34.62"/>
<polygon fill="#aa3a55" stroke="#aa3a55" stroke-width="2" points="1597.63,-38.06 1608,-35.88 1598.53,-31.12 1597.63,-38.06"/>
</a>
</g>
</g>
</g>
</svg>
