<?xml version="1.0" encoding="UTF-8" standalone="no"?>
<!DOCTYPE svg PUBLIC "-//W3C//DTD SVG 1.1//EN"
 "http://www.w3.org/Graphics/SVG/1.1/DTD/svg11.dtd">
<!-- Generated by graphviz version 7.1.0 (0)
 -->
<!-- Pages: 1 -->
<svg width="2228pt" height="1202pt"
 viewBox="0.00 0.00 2228.00 1202.00" xmlns="http://www.w3.org/2000/svg" xmlns:xlink="http://www.w3.org/1999/xlink">
<g id="graph0" class="graph" transform="scale(1 1) rotate(0) translate(4 1198)">
<polygon fill="white" stroke="none" points="-4,4 -4,-1198 2224,-1198 2224,4 -4,4"/>
<g id="clust1" class="cluster">
<title>clusternode_Set(0)</title>
<g id="a_clust1"><a xlink:title="Update">
<polygon fill="white" stroke="black" points="1311,-1111 1311,-1150 1376,-1150 1376,-1111 1311,-1111"/>
<text text-anchor="middle" x="1343.5" y="-1134.8" font-family="Helvetica,sans-Serif" font-size="14.00">Update</text>
</a>
</g>
</g>
<g id="clust2" class="cluster">
<title>clusternode_Set(2)</title>
<g id="a_clust2"><a xlink:title="FirstFlush">
<polygon fill="white" stroke="black" points="384,-1135 384,-1174 466,-1174 466,-1135 384,-1135"/>
<text text-anchor="middle" x="425" y="-1158.8" font-family="Helvetica,sans-Serif" font-size="14.00">FirstFlush</text>
</a>
</g>
</g>
<g id="clust3" class="cluster">
<title>clusternode_Set(3)</title>
<g id="a_clust3"><a xlink:title="PreUpdateFlush">
<polygon fill="white" stroke="black" points="904,-1111 904,-1150 1027,-1150 1027,-1111 904,-1111"/>
<text text-anchor="middle" x="965.5" y="-1134.8" font-family="Helvetica,sans-Serif" font-size="14.00">PreUpdateFlush</text>
</a>
</g>
</g>
<g id="clust4" class="cluster">
<title>clusternode_Set(4)</title>
<g id="a_clust4"><a xlink:title="UpdateFlush">
<polygon fill="white" stroke="black" points="1396,-1111 1396,-1150 1497,-1150 1497,-1111 1396,-1111"/>
<text text-anchor="middle" x="1446.5" y="-1134.8" font-family="Helvetica,sans-Serif" font-size="14.00">UpdateFlush</text>
</a>
</g>
</g>
<g id="clust5" class="cluster">
<title>clusternode_Set(5)</title>
<g id="a_clust5"><a xlink:title="PostUpdateFlush">
<polygon fill="white" stroke="black" points="1779,-1147 1779,-1186 1908,-1186 1908,-1147 1779,-1147"/>
<text text-anchor="middle" x="1843.5" y="-1170.8" font-family="Helvetica,sans-Serif" font-size="14.00">PostUpdateFlush</text>
</a>
</g>
</g>
<g id="clust6" class="cluster">
<title>clusternode_Set(6)</title>
<g id="a_clust6"><a xlink:title="LastFlush">
<polygon fill="white" stroke="black" points="2140,-1123 2140,-1162 2220,-1162 2220,-1123 2140,-1123"/>
<text text-anchor="middle" x="2180" y="-1146.8" font-family="Helvetica,sans-Serif" font-size="14.00">LastFlush</text>
</a>
</g>
</g>
<g id="clust7" class="cluster">
<title>clusternode_Set(7)</title>
<g id="a_clust7"><a xlink:title="First">
<polygon fill="white" stroke="black" points="67,-1094 67,-1133 113,-1133 113,-1094 67,-1094"/>
<text text-anchor="middle" x="90" y="-1117.8" font-family="Helvetica,sans-Serif" font-size="14.00">First</text>
</a>
</g>
</g>
<g id="clust8" class="cluster">
<title>clusternode_Set(8)</title>
<g id="a_clust8"><a xlink:title="PreUpdate">
<polygon fill="white" stroke="black" points="670,-1057 670,-1150 884,-1150 884,-1057 670,-1057"/>
<text text-anchor="middle" x="777" y="-1134.8" font-family="Helvetica,sans-Serif" font-size="14.00">PreUpdate</text>
</a>
</g>
</g>
<g id="clust9" class="cluster">
<title>clusternode_Set(9)</title>
<g id="a_clust9"><a xlink:title="StateTransitions">
<polygon fill="white" stroke="black" points="1047,-1111 1047,-1150 1171,-1150 1171,-1111 1047,-1111"/>
<text text-anchor="middle" x="1109" y="-1134.8" font-family="Helvetica,sans-Serif" font-size="14.00">StateTransitions</text>
</a>
</g>
</g>
<g id="clust10" class="cluster">
<title>clusternode_Set(10)</title>
<g id="a_clust10"><a xlink:title="FixedUpdate">
<polygon fill="white" stroke="black" points="1191,-1111 1191,-1150 1291,-1150 1291,-1111 1191,-1111"/>
<text text-anchor="middle" x="1241" y="-1134.8" font-family="Helvetica,sans-Serif" font-size="14.00">FixedUpdate</text>
</a>
</g>
</g>
<g id="clust11" class="cluster">
<title>clusternode_Set(11)</title>
<g id="a_clust11"><a xlink:title="PostUpdate">
<polygon fill="white" stroke="black" points="1517,-1111 1517,-1150 1610,-1150 1610,-1111 1517,-1111"/>
<text text-anchor="middle" x="1563.5" y="-1134.8" font-family="Helvetica,sans-Serif" font-size="14.00">PostUpdate</text>
</a>
</g>
</g>
<g id="clust12" class="cluster">
<title>clusternode_Set(12)</title>
<g id="a_clust12"><a xlink:title="Last">
<polygon fill="white" stroke="black" points="2076,-1123 2076,-1162 2120,-1162 2120,-1123 2076,-1123"/>
<text text-anchor="middle" x="2098" y="-1146.8" font-family="Helvetica,sans-Serif" font-size="14.00">Last</text>
</a>
</g>
</g>
<g id="clust13" class="cluster">
<title>clusternode_Set(22)</title>
<g id="a_clust13"><a xlink:title="PropagateTransformsSet">
<polygon fill="white" stroke="black" points="0,-1141 0,-1180 180,-1180 180,-1141 0,-1141"/>
<text text-anchor="middle" x="90" y="-1164.8" font-family="Helvetica,sans-Serif" font-size="14.00">PropagateTransformsSet</text>
</a>
</g>
</g>
<g id="clust14" class="cluster">
<title>clusternode_Set(59)</title>
<g id="a_clust14"><a xlink:title="LoadAssets">
<polygon fill="white" stroke="black" points="200,-8 200,-1127 650,-1127 650,-8 200,-8"/>
<text text-anchor="middle" x="425" y="-1111.8" font-family="Helvetica,sans-Serif" font-size="14.00">LoadAssets</text>
</a>
</g>
</g>
<g id="clust15" class="cluster">
<title>clusternode_Set(60)</title>
<g id="a_clust15"><a xlink:title="AssetEvents">
<polygon fill="white" stroke="black" points="1630,-74 1630,-1139 2056,-1139 2056,-74 1630,-74"/>
<text text-anchor="middle" x="1843" y="-1123.8" font-family="Helvetica,sans-Serif" font-size="14.00">AssetEvents</text>
</a>
</g>
</g>
<!-- set_marker_node_Set(0) -->
<!-- set_marker_node_Set(4) -->
<!-- set_marker_node_Set(0)&#45;&gt;set_marker_node_Set(4) -->
<g id="edge7" class="edge">
<title>set_marker_node_Set(0)&#45;&gt;set_marker_node_Set(4)</title>
<g id="a_edge7"><a xlink:title="Update → UpdateFlush">
<path fill="none" stroke="#ee9e44" stroke-width="2" d="M1376,-1119C1378.35,-1119 1380.77,-1119 1383.22,-1119"/>
<polygon fill="#ee9e44" stroke="#ee9e44" stroke-width="2" points="1382.97,-1122.5 1392.97,-1119 1382.97,-1115.5 1382.97,-1122.5"/>
</a>
</g>
</g>
<!-- set_marker_node_Set(2) -->
<!-- set_marker_node_Set(8) -->
<!-- set_marker_node_Set(2)&#45;&gt;set_marker_node_Set(8) -->
<g id="edge2" class="edge">
<title>set_marker_node_Set(2)&#45;&gt;set_marker_node_Set(8)</title>
<g id="a_edge2"><a xlink:title="FirstFlush → PreUpdate">
<path fill="none" stroke="#881877" stroke-width="2" d="M466,-1141.36C510.83,-1139.4 585.68,-1135.78 650,-1131 652.34,-1130.83 654.71,-1130.64 657.1,-1130.46"/>
<polygon fill="#881877" stroke="#881877" stroke-width="2" points="657.3,-1133.95 666.98,-1129.66 656.73,-1126.98 657.3,-1133.95"/>
</a>
</g>
</g>
<!-- set_marker_node_Set(3) -->
<!-- set_marker_node_Set(9) -->
<!-- set_marker_node_Set(3)&#45;&gt;set_marker_node_Set(9) -->
<g id="edge4" class="edge">
<title>set_marker_node_Set(3)&#45;&gt;set_marker_node_Set(9)</title>
<g id="a_edge4"><a xlink:title="PreUpdateFlush → StateTransitions">
<path fill="none" stroke="#aa3a55" stroke-width="2" d="M1027,-1119C1029.39,-1119 1031.8,-1119 1034.21,-1119"/>
<polygon fill="#aa3a55" stroke="#aa3a55" stroke-width="2" points="1033.98,-1122.5 1043.98,-1119 1033.98,-1115.5 1033.98,-1122.5"/>
</a>
</g>
</g>
<!-- set_marker_node_Set(11) -->
<!-- set_marker_node_Set(4)&#45;&gt;set_marker_node_Set(11) -->
<g id="edge8" class="edge">
<title>set_marker_node_Set(4)&#45;&gt;set_marker_node_Set(11)</title>
<g id="a_edge8"><a xlink:title="UpdateFlush → PostUpdate">
<path fill="none" stroke="#663699" stroke-width="2" d="M1497,-1119C1499.43,-1119 1501.88,-1119 1504.32,-1119"/>
<polygon fill="#663699" stroke="#663699" stroke-width="2" points="1503.98,-1122.5 1513.98,-1119 1503.98,-1115.5 1503.98,-1122.5"/>
</a>
</g>
</g>
<!-- set_marker_node_Set(5) -->
<!-- set_marker_node_Set(12) -->
<!-- set_marker_node_Set(5)&#45;&gt;set_marker_node_Set(12) -->
<g id="edge10" class="edge">
<title>set_marker_node_Set(5)&#45;&gt;set_marker_node_Set(12)</title>
<g id="a_edge10"><a xlink:title="PostUpdateFlush → Last">
<path fill="none" stroke="#22c2bb" stroke-width="2" d="M1908,-1155.16C1950.29,-1154.35 2006.78,-1151.48 2056,-1143 2058.48,-1142.57 2061.01,-1142.05 2063.55,-1141.46"/>
<polygon fill="#22c2bb" stroke="#22c2bb" stroke-width="2" points="2064.32,-1144.88 2073.08,-1138.92 2062.51,-1138.12 2064.32,-1144.88"/>
</a>
</g>
</g>
<!-- set_marker_node_Set(6) -->
<!-- set_marker_node_Set(7) -->
<!-- set_marker_node_Set(7)&#45;&gt;set_marker_node_Set(2) -->
<g id="edge1" class="edge">
<title>set_marker_node_Set(7)&#45;&gt;set_marker_node_Set(2)</title>
<g id="a_edge1"><a xlink:title="First → FirstFlush">
<path fill="none" stroke="#eede00" stroke-width="2" d="M113,-1109.29C134.81,-1116.18 169.32,-1126.15 200,-1131 258.08,-1140.18 325.57,-1142.71 371.17,-1143.23"/>
<polygon fill="#eede00" stroke="#eede00" stroke-width="2" points="370.95,-1146.73 380.98,-1143.31 371,-1139.73 370.95,-1146.73"/>
</a>
</g>
</g>
<!-- set_marker_node_Set(59) -->
<!-- set_marker_node_Set(7)&#45;&gt;set_marker_node_Set(59) -->
<g id="edge13" class="edge">
<title>set_marker_node_Set(7)&#45;&gt;set_marker_node_Set(59)</title>
<g id="a_edge13"><a xlink:title="First → LoadAssets">
<path fill="none" stroke="#881877" stroke-width="2" d="M113,-1101.6C130.44,-1101.29 156.86,-1100.81 187.06,-1100.27"/>
<polygon fill="#881877" stroke="#881877" stroke-width="2" points="187.04,-1103.77 196.98,-1100.09 186.91,-1096.77 187.04,-1103.77"/>
</a>
</g>
</g>
<!-- set_marker_node_Set(8)&#45;&gt;set_marker_node_Set(3) -->
<g id="edge3" class="edge">
<title>set_marker_node_Set(8)&#45;&gt;set_marker_node_Set(3)</title>
<g id="a_edge3"><a xlink:title="PreUpdate → PreUpdateFlush">
<path fill="none" stroke="#00b0cc" stroke-width="2" d="M884,-1119C886.35,-1119 888.68,-1119 891,-1119"/>
<polygon fill="#00b0cc" stroke="#00b0cc" stroke-width="2" points="890.98,-1122.5 900.98,-1119 890.98,-1115.5 890.98,-1122.5"/>
</a>
</g>
</g>
<!-- node_System(47) -->
<g id="node9" class="node">
<title>node_System(47)</title>
<g id="a_node9"><a xlink:title="bevy_asset::asset_server::free_unused_assets_system">
<polygon fill="white" stroke="black" points="876,-1101 678,-1101 678,-1065 876,-1065 876,-1101"/>
<text text-anchor="middle" x="777" y="-1079.3" font-family="Times,serif" font-size="14.00">free_unused_assets_system</text>
</a>
</g>
</g>
<!-- set_marker_node_Set(10) -->
<!-- set_marker_node_Set(9)&#45;&gt;set_marker_node_Set(10) -->
<g id="edge5" class="edge">
<title>set_marker_node_Set(9)&#45;&gt;set_marker_node_Set(10)</title>
<g id="a_edge5"><a xlink:title="StateTransitions → FixedUpdate">
<path fill="none" stroke="#44d488" stroke-width="2" d="M1171,-1119C1173.39,-1119 1175.79,-1119 1178.19,-1119"/>
<polygon fill="#44d488" stroke="#44d488" stroke-width="2" points="1177.98,-1122.5 1187.98,-1119 1177.98,-1115.5 1177.98,-1122.5"/>
</a>
</g>
</g>
<!-- set_marker_node_Set(10)&#45;&gt;set_marker_node_Set(0) -->
<g id="edge6" class="edge">
<title>set_marker_node_Set(10)&#45;&gt;set_marker_node_Set(0)</title>
<g id="a_edge6"><a xlink:title="FixedUpdate → Update">
<path fill="none" stroke="#0090cc" stroke-width="2" d="M1291,-1119C1293.37,-1119 1295.75,-1119 1298.11,-1119"/>
<polygon fill="#0090cc" stroke="#0090cc" stroke-width="2" points="1297.98,-1122.5 1307.98,-1119 1297.98,-1115.5 1297.98,-1122.5"/>
</a>
</g>
</g>
<!-- set_marker_node_Set(11)&#45;&gt;set_marker_node_Set(5) -->
<g id="edge9" class="edge">
<title>set_marker_node_Set(11)&#45;&gt;set_marker_node_Set(5)</title>
<g id="a_edge9"><a xlink:title="PostUpdate → PostUpdateFlush">
<path fill="none" stroke="#3363bb" stroke-width="2" d="M1610,-1137.65C1616.62,-1139.77 1623.42,-1141.65 1630,-1143 1674.56,-1152.16 1725.42,-1155.27 1766.15,-1156.05"/>
<polygon fill="#3363bb" stroke="#3363bb" stroke-width="2" points="1765.93,-1159.54 1775.98,-1156.18 1766.02,-1152.54 1765.93,-1159.54"/>
</a>
</g>
</g>
<!-- set_marker_node_Set(60) -->
<!-- set_marker_node_Set(11)&#45;&gt;set_marker_node_Set(60) -->
<g id="edge14" class="edge">
<title>set_marker_node_Set(11)&#45;&gt;set_marker_node_Set(60)</title>
<g id="a_edge14"><a xlink:title="PostUpdate → AssetEvents">
<path fill="none" stroke="#00b0cc" stroke-width="2" d="M1610,-1117.18C1612.39,-1117.09 1614.84,-1116.99 1617.36,-1116.89"/>
<polygon fill="#00b0cc" stroke="#00b0cc" stroke-width="2" points="1617.12,-1120.4 1626.98,-1116.51 1616.85,-1113.41 1617.12,-1120.4"/>
</a>
</g>
</g>
<!-- set_marker_node_Set(12)&#45;&gt;set_marker_node_Set(6) -->
<g id="edge11" class="edge">
<title>set_marker_node_Set(12)&#45;&gt;set_marker_node_Set(6)</title>
<g id="a_edge11"><a xlink:title="Last → LastFlush">
<path fill="none" stroke="#99d955" stroke-width="2" d="M2120,-1131C2122.31,-1131 2124.74,-1131 2127.23,-1131"/>
<polygon fill="#99d955" stroke="#99d955" stroke-width="2" points="2126.98,-1134.5 2136.98,-1131 2126.98,-1127.5 2126.98,-1134.5"/>
</a>
</g>
</g>
<!-- set_marker_node_Set(22) -->
<!-- set_marker_node_Set(59)&#45;&gt;set_marker_node_Set(8) -->
<g id="edge12" class="edge">
<title>set_marker_node_Set(59)&#45;&gt;set_marker_node_Set(8)</title>
<g id="a_edge12"><a xlink:title="LoadAssets → PreUpdate">
<path fill="none" stroke="#eede00" stroke-width="2" d="M650,-1110.72C652.45,-1110.88 654.89,-1111.04 657.31,-1111.2"/>
<polygon fill="#eede00" stroke="#eede00" stroke-width="2" points="656.78,-1114.67 666.98,-1111.84 657.23,-1107.69 656.78,-1114.67"/>
</a>
</g>
</g>
<!-- node_System(48) -->
<g id="node16" class="node">
<title>node_System(48)</title>
<g id="a_node16"><a xlink:title="bevy_asset::io::file_asset_io::filesystem_watcher_system">
<polygon fill="white" stroke="black" points="525,-1078 325,-1078 325,-1042 525,-1042 525,-1078"/>
<text text-anchor="middle" x="425" y="-1056.3" font-family="Times,serif" font-size="14.00">filesystem_watcher_system</text>
</a>
</g>
</g>
<!-- node_System(50) -->
<g id="node17" class="node">
<title>node_System(50)</title>
<g id="a_node17"><a xlink:title="bevy_asset::loader::update_asset_storage_system&lt;bevy_scene::dynamic_scene::DynamicScene&gt;">
<polygon fill="white" stroke="black" points="588,-1024 262,-1024 262,-988 588,-988 588,-1024"/>
<text text-anchor="middle" x="425" y="-1002.3" font-family="Times,serif" font-size="14.00">update_asset_storage_system&lt;DynamicScene&gt;</text>
</a>
</g>
</g>
<!-- node_System(53) -->
<g id="node18" class="node">
<title>node_System(53)</title>
<g id="a_node18"><a xlink:title="bevy_asset::loader::update_asset_storage_system&lt;bevy_scene::scene::Scene&gt;">
<polygon fill="white" stroke="black" points="557.5,-970 292.5,-970 292.5,-934 557.5,-934 557.5,-970"/>
<text text-anchor="middle" x="425" y="-948.3" font-family="Times,serif" font-size="14.00">update_asset_storage_system&lt;Scene&gt;</text>
</a>
</g>
</g>
<!-- node_System(65) -->
<g id="node19" class="node">
<title>node_System(65)</title>
<g id="a_node19"><a xlink:title="bevy_asset::loader::update_asset_storage_system&lt;bevy_render::render_resource::shader::Shader&gt;">
<polygon fill="white" stroke="black" points="562,-916 288,-916 288,-880 562,-880 562,-916"/>
<text text-anchor="middle" x="425" y="-894.3" font-family="Times,serif" font-size="14.00">update_asset_storage_system&lt;Shader&gt;</text>
</a>
</g>
</g>
<!-- node_System(79) -->
<g id="node20" class="node">
<title>node_System(79)</title>
<g id="a_node20"><a xlink:title="bevy_asset::loader::update_asset_storage_system&lt;bevy_render::mesh::mesh::Mesh&gt;">
<polygon fill="white" stroke="black" points="556.5,-862 293.5,-862 293.5,-826 556.5,-826 556.5,-862"/>
<text text-anchor="middle" x="425" y="-840.3" font-family="Times,serif" font-size="14.00">update_asset_storage_system&lt;Mesh&gt;</text>
</a>
</g>
</g>
<!-- node_System(82) -->
<g id="node21" class="node">
<title>node_System(82)</title>
<g id="a_node21"><a xlink:title="bevy_asset::loader::update_asset_storage_system&lt;bevy_render::mesh::mesh::skinning::SkinnedMeshInverseBindposes&gt;">
<polygon fill="white" stroke="black" points="642,-808 208,-808 208,-772 642,-772 642,-808"/>
<text text-anchor="middle" x="425" y="-786.3" font-family="Times,serif" font-size="14.00">update_asset_storage_system&lt;SkinnedMeshInverseBindposes&gt;</text>
</a>
</g>
</g>
<!-- node_System(85) -->
<g id="node22" class="node">
<title>node_System(85)</title>
<g id="a_node22"><a xlink:title="bevy_asset::loader::update_asset_storage_system&lt;bevy_render::texture::image::Image&gt;">
<polygon fill="white" stroke="black" points="559.5,-754 290.5,-754 290.5,-718 559.5,-718 559.5,-754"/>
<text text-anchor="middle" x="425" y="-732.3" font-family="Times,serif" font-size="14.00">update_asset_storage_system&lt;Image&gt;</text>
</a>
</g>
</g>
<!-- node_System(88) -->
<g id="node23" class="node">
<title>node_System(88)</title>
<g id="a_node23"><a xlink:title="bevy_asset::loader::update_asset_storage_system&lt;bevy_sprite::texture_atlas::TextureAtlas&gt;">
<polygon fill="white" stroke="black" points="581.5,-700 268.5,-700 268.5,-664 581.5,-664 581.5,-700"/>
<text text-anchor="middle" x="425" y="-678.3" font-family="Times,serif" font-size="14.00">update_asset_storage_system&lt;TextureAtlas&gt;</text>
</a>
</g>
</g>
<!-- node_System(91) -->
<g id="node24" class="node">
<title>node_System(91)</title>
<g id="a_node24"><a xlink:title="bevy_asset::loader::update_asset_storage_system&lt;bevy_sprite::mesh2d::color_material::ColorMaterial&gt;">
<polygon fill="white" stroke="black" points="585.5,-646 264.5,-646 264.5,-610 585.5,-610 585.5,-646"/>
<text text-anchor="middle" x="425" y="-624.3" font-family="Times,serif" font-size="14.00">update_asset_storage_system&lt;ColorMaterial&gt;</text>
</a>
</g>
</g>
<!-- node_System(94) -->
<g id="node25" class="node">
<title>node_System(94)</title>
<g id="a_node25"><a xlink:title="bevy_asset::loader::update_asset_storage_system&lt;bevy_text::font::Font&gt;">
<polygon fill="white" stroke="black" points="553.5,-592 296.5,-592 296.5,-556 553.5,-556 553.5,-592"/>
<text text-anchor="middle" x="425" y="-570.3" font-family="Times,serif" font-size="14.00">update_asset_storage_system&lt;Font&gt;</text>
</a>
</g>
</g>
<!-- node_System(97) -->
<g id="node26" class="node">
<title>node_System(97)</title>
<g id="a_node26"><a xlink:title="bevy_asset::loader::update_asset_storage_system&lt;bevy_text::font_atlas_set::FontAtlasSet&gt;">
<polygon fill="white" stroke="black" points="580.5,-538 269.5,-538 269.5,-502 580.5,-502 580.5,-538"/>
<text text-anchor="middle" x="425" y="-516.3" font-family="Times,serif" font-size="14.00">update_asset_storage_system&lt;FontAtlasSet&gt;</text>
</a>
</g>
</g>
<!-- node_System(111) -->
<g id="node27" class="node">
<title>node_System(111)</title>
<g id="a_node27"><a xlink:title="bevy_asset::loader::update_asset_storage_system&lt;bevy_pbr::pbr_material::StandardMaterial&gt;">
<polygon fill="white" stroke="black" points="598.5,-484 251.5,-484 251.5,-448 598.5,-448 598.5,-484"/>
<text text-anchor="middle" x="425" y="-462.3" font-family="Times,serif" font-size="14.00">update_asset_storage_system&lt;StandardMaterial&gt;</text>
</a>
</g>
</g>
<!-- node_System(122) -->
<g id="node28" class="node">
<title>node_System(122)</title>
<g id="a_node28"><a xlink:title="bevy_asset::loader::update_asset_storage_system&lt;bevy_gltf::Gltf&gt;">
<polygon fill="white" stroke="black" points="550.5,-430 299.5,-430 299.5,-394 550.5,-394 550.5,-430"/>
<text text-anchor="middle" x="425" y="-408.3" font-family="Times,serif" font-size="14.00">update_asset_storage_system&lt;Gltf&gt;</text>
</a>
</g>
</g>
<!-- node_System(125) -->
<g id="node29" class="node">
<title>node_System(125)</title>
<g id="a_node29"><a xlink:title="bevy_asset::loader::update_asset_storage_system&lt;bevy_gltf::GltfNode&gt;">
<polygon fill="white" stroke="black" points="568,-376 282,-376 282,-340 568,-340 568,-376"/>
<text text-anchor="middle" x="425" y="-354.3" font-family="Times,serif" font-size="14.00">update_asset_storage_system&lt;GltfNode&gt;</text>
</a>
</g>
</g>
<!-- node_System(128) -->
<g id="node30" class="node">
<title>node_System(128)</title>
<g id="a_node30"><a xlink:title="bevy_asset::loader::update_asset_storage_system&lt;bevy_gltf::GltfPrimitive&gt;">
<polygon fill="white" stroke="black" points="582,-322 268,-322 268,-286 582,-286 582,-322"/>
<text text-anchor="middle" x="425" y="-300.3" font-family="Times,serif" font-size="14.00">update_asset_storage_system&lt;GltfPrimitive&gt;</text>
</a>
</g>
</g>
<!-- node_System(131) -->
<g id="node31" class="node">
<title>node_System(131)</title>
<g id="a_node31"><a xlink:title="bevy_asset::loader::update_asset_storage_system&lt;bevy_gltf::GltfMesh&gt;">
<polygon fill="white" stroke="black" points="568.5,-268 281.5,-268 281.5,-232 568.5,-232 568.5,-268"/>
<text text-anchor="middle" x="425" y="-246.3" font-family="Times,serif" font-size="14.00">update_asset_storage_system&lt;GltfMesh&gt;</text>
</a>
</g>
</g>
<!-- node_System(134) -->
<g id="node32" class="node">
<title>node_System(134)</title>
<g id="a_node32"><a xlink:title="bevy_asset::loader::update_asset_storage_system&lt;bevy_audio::audio_source::AudioSource&gt;">
<polygon fill="white" stroke="black" points="581,-214 269,-214 269,-178 581,-178 581,-214"/>
<text text-anchor="middle" x="425" y="-192.3" font-family="Times,serif" font-size="14.00">update_asset_storage_system&lt;AudioSource&gt;</text>
</a>
</g>
</g>
<!-- node_System(137) -->
<g id="node33" class="node">
<title>node_System(137)</title>
<g id="a_node33"><a xlink:title="bevy_asset::loader::update_asset_storage_system&lt;bevy_audio::sinks::AudioSink&gt;">
<polygon fill="white" stroke="black" points="573,-160 277,-160 277,-124 573,-124 573,-160"/>
<text text-anchor="middle" x="425" y="-138.3" font-family="Times,serif" font-size="14.00">update_asset_storage_system&lt;AudioSink&gt;</text>
</a>
</g>
</g>
<!-- node_System(140) -->
<g id="node34" class="node">
<title>node_System(140)</title>
<g id="a_node34"><a xlink:title="bevy_asset::loader::update_asset_storage_system&lt;bevy_audio::sinks::SpatialAudioSink&gt;">
<polygon fill="white" stroke="black" points="596,-106 254,-106 254,-70 596,-70 596,-106"/>
<text text-anchor="middle" x="425" y="-84.3" font-family="Times,serif" font-size="14.00">update_asset_storage_system&lt;SpatialAudioSink&gt;</text>
</a>
</g>
</g>
<!-- node_System(145) -->
<g id="node35" class="node">
<title>node_System(145)</title>
<g id="a_node35"><a xlink:title="bevy_asset::loader::update_asset_storage_system&lt;bevy_animation::AnimationClip&gt;">
<polygon fill="white" stroke="black" points="587,-52 263,-52 263,-16 587,-16 587,-52"/>
<text text-anchor="middle" x="425" y="-30.3" font-family="Times,serif" font-size="14.00">update_asset_storage_system&lt;AnimationClip&gt;</text>
</a>
</g>
</g>
<!-- set_marker_node_Set(60)&#45;&gt;set_marker_node_Set(12) -->
<g id="edge15" class="edge">
<title>set_marker_node_Set(60)&#45;&gt;set_marker_node_Set(12)</title>
<g id="a_edge15"><a xlink:title="AssetEvents → Last">
<path fill="none" stroke="#aa3a55" stroke-width="2" d="M2056,-1127.27C2058.45,-1127.5 2060.82,-1127.71 2063.1,-1127.92"/>
<polygon fill="#aa3a55" stroke="#aa3a55" stroke-width="2" points="2062.71,-1131.4 2072.99,-1128.82 2063.35,-1124.43 2062.71,-1131.4"/>
</a>
</g>
</g>
<!-- node_System(49) -->
<g id="node37" class="node">
<title>node_System(49)</title>
<g id="a_node37"><a xlink:title="bevy_asset::assets::Assets&lt;bevy_scene::dynamic_scene::DynamicScene&gt;::asset_event_system">
<polygon fill="white" stroke="black" points="1994,-1090 1692,-1090 1692,-1054 1994,-1054 1994,-1090"/>
<text text-anchor="middle" x="1843" y="-1068.3" font-family="Times,serif" font-size="14.00">Assets&lt;DynamicScene&gt;asset_event_system</text>
</a>
</g>
</g>
<!-- node_System(52) -->
<g id="node38" class="node">
<title>node_System(52)</title>
<g id="a_node38"><a xlink:title="bevy_asset::assets::Assets&lt;bevy_scene::scene::Scene&gt;::asset_event_system">
<polygon fill="white" stroke="black" points="1963.5,-1036 1722.5,-1036 1722.5,-1000 1963.5,-1000 1963.5,-1036"/>
<text text-anchor="middle" x="1843" y="-1014.3" font-family="Times,serif" font-size="14.00">Assets&lt;Scene&gt;asset_event_system</text>
</a>
</g>
</g>
<!-- node_System(64) -->
<g id="node39" class="node">
<title>node_System(64)</title>
<g id="a_node39"><a xlink:title="bevy_asset::assets::Assets&lt;bevy_render::render_resource::shader::Shader&gt;::asset_event_system">
<polygon fill="white" stroke="black" points="1968,-982 1718,-982 1718,-946 1968,-946 1968,-982"/>
<text text-anchor="middle" x="1843" y="-960.3" font-family="Times,serif" font-size="14.00">Assets&lt;Shader&gt;asset_event_system</text>
</a>
</g>
</g>
<!-- node_System(78) -->
<g id="node40" class="node">
<title>node_System(78)</title>
<g id="a_node40"><a xlink:title="bevy_asset::assets::Assets&lt;bevy_render::mesh::mesh::Mesh&gt;::asset_event_system">
<polygon fill="white" stroke="black" points="1962.5,-928 1723.5,-928 1723.5,-892 1962.5,-892 1962.5,-928"/>
<text text-anchor="middle" x="1843" y="-906.3" font-family="Times,serif" font-size="14.00">Assets&lt;Mesh&gt;asset_event_system</text>
</a>
</g>
</g>
<!-- node_System(81) -->
<g id="node41" class="node">
<title>node_System(81)</title>
<g id="a_node41"><a xlink:title="bevy_asset::assets::Assets&lt;bevy_render::mesh::mesh::skinning::SkinnedMeshInverseBindposes&gt;::asset_event_system">
<polygon fill="white" stroke="black" points="2048,-874 1638,-874 1638,-838 2048,-838 2048,-874"/>
<text text-anchor="middle" x="1843" y="-852.3" font-family="Times,serif" font-size="14.00">Assets&lt;SkinnedMeshInverseBindposes&gt;asset_event_system</text>
</a>
</g>
</g>
<!-- node_System(84) -->
<g id="node42" class="node">
<title>node_System(84)</title>
<g id="a_node42"><a xlink:title="bevy_asset::assets::Assets&lt;bevy_render::texture::image::Image&gt;::asset_event_system">
<polygon fill="white" stroke="black" points="1965.5,-820 1720.5,-820 1720.5,-784 1965.5,-784 1965.5,-820"/>
<text text-anchor="middle" x="1843" y="-798.3" font-family="Times,serif" font-size="14.00">Assets&lt;Image&gt;asset_event_system</text>
</a>
</g>
</g>
<!-- node_System(87) -->
<g id="node43" class="node">
<title>node_System(87)</title>
<g id="a_node43"><a xlink:title="bevy_asset::assets::Assets&lt;bevy_sprite::texture_atlas::TextureAtlas&gt;::asset_event_system">
<polygon fill="white" stroke="black" points="1987.5,-766 1698.5,-766 1698.5,-730 1987.5,-730 1987.5,-766"/>
<text text-anchor="middle" x="1843" y="-744.3" font-family="Times,serif" font-size="14.00">Assets&lt;TextureAtlas&gt;asset_event_system</text>
</a>
</g>
</g>
<!-- node_System(90) -->
<g id="node44" class="node">
<title>node_System(90)</title>
<g id="a_node44"><a xlink:title="bevy_asset::assets::Assets&lt;bevy_sprite::mesh2d::color_material::ColorMaterial&gt;::asset_event_system">
<polygon fill="white" stroke="black" points="1991.5,-712 1694.5,-712 1694.5,-676 1991.5,-676 1991.5,-712"/>
<text text-anchor="middle" x="1843" y="-690.3" font-family="Times,serif" font-size="14.00">Assets&lt;ColorMaterial&gt;asset_event_system</text>
</a>
</g>
</g>
<!-- node_System(93) -->
<g id="node45" class="node">
<title>node_System(93)</title>
<g id="a_node45"><a xlink:title="bevy_asset::assets::Assets&lt;bevy_text::font::Font&gt;::asset_event_system">
<polygon fill="white" stroke="black" points="1959.5,-658 1726.5,-658 1726.5,-622 1959.5,-622 1959.5,-658"/>
<text text-anchor="middle" x="1843" y="-636.3" font-family="Times,serif" font-size="14.00">Assets&lt;Font&gt;asset_event_system</text>
</a>
</g>
</g>
<!-- node_System(96) -->
<g id="node46" class="node">
<title>node_System(96)</title>
<g id="a_node46"><a xlink:title="bevy_asset::assets::Assets&lt;bevy_text::font_atlas_set::FontAtlasSet&gt;::asset_event_system">
<polygon fill="white" stroke="black" points="1986.5,-604 1699.5,-604 1699.5,-568 1986.5,-568 1986.5,-604"/>
<text text-anchor="middle" x="1843" y="-582.3" font-family="Times,serif" font-size="14.00">Assets&lt;FontAtlasSet&gt;asset_event_system</text>
</a>
</g>
</g>
<!-- node_System(110) -->
<g id="node47" class="node">
<title>node_System(110)</title>
<g id="a_node47"><a xlink:title="bevy_asset::assets::Assets&lt;bevy_pbr::pbr_material::StandardMaterial&gt;::asset_event_system">
<polygon fill="white" stroke="black" points="2004.5,-550 1681.5,-550 1681.5,-514 2004.5,-514 2004.5,-550"/>
<text text-anchor="middle" x="1843" y="-528.3" font-family="Times,serif" font-size="14.00">Assets&lt;StandardMaterial&gt;asset_event_system</text>
</a>
</g>
</g>
<!-- node_System(121) -->
<g id="node48" class="node">
<title>node_System(121)</title>
<g id="a_node48"><a xlink:title="bevy_asset::assets::Assets&lt;bevy_gltf::Gltf&gt;::asset_event_system">
<polygon fill="white" stroke="black" points="1956.5,-496 1729.5,-496 1729.5,-460 1956.5,-460 1956.5,-496"/>
<text text-anchor="middle" x="1843" y="-474.3" font-family="Times,serif" font-size="14.00">Assets&lt;Gltf&gt;asset_event_system</text>
</a>
</g>
</g>
<!-- node_System(124) -->
<g id="node49" class="node">
<title>node_System(124)</title>
<g id="a_node49"><a xlink:title="bevy_asset::assets::Assets&lt;bevy_gltf::GltfNode&gt;::asset_event_system">
<polygon fill="white" stroke="black" points="1974,-442 1712,-442 1712,-406 1974,-406 1974,-442"/>
<text text-anchor="middle" x="1843" y="-420.3" font-family="Times,serif" font-size="14.00">Assets&lt;GltfNode&gt;asset_event_system</text>
</a>
</g>
</g>
<!-- node_System(127) -->
<g id="node50" class="node">
<title>node_System(127)</title>
<g id="a_node50"><a xlink:title="bevy_asset::assets::Assets&lt;bevy_gltf::GltfPrimitive&gt;::asset_event_system">
<polygon fill="white" stroke="black" points="1988,-388 1698,-388 1698,-352 1988,-352 1988,-388"/>
<text text-anchor="middle" x="1843" y="-366.3" font-family="Times,serif" font-size="14.00">Assets&lt;GltfPrimitive&gt;asset_event_system</text>
</a>
</g>
</g>
<!-- node_System(130) -->
<g id="node51" class="node">
<title>node_System(130)</title>
<g id="a_node51"><a xlink:title="bevy_asset::assets::Assets&lt;bevy_gltf::GltfMesh&gt;::asset_event_system">
<polygon fill="white" stroke="black" points="1974.5,-334 1711.5,-334 1711.5,-298 1974.5,-298 1974.5,-334"/>
<text text-anchor="middle" x="1843" y="-312.3" font-family="Times,serif" font-size="14.00">Assets&lt;GltfMesh&gt;asset_event_system</text>
</a>
</g>
</g>
<!-- node_System(133) -->
<g id="node52" class="node">
<title>node_System(133)</title>
<g id="a_node52"><a xlink:title="bevy_asset::assets::Assets&lt;bevy_audio::audio_source::AudioSource&gt;::asset_event_system">
<polygon fill="white" stroke="black" points="1987,-280 1699,-280 1699,-244 1987,-244 1987,-280"/>
<text text-anchor="middle" x="1843" y="-258.3" font-family="Times,serif" font-size="14.00">Assets&lt;AudioSource&gt;asset_event_system</text>
</a>
</g>
</g>
<!-- node_System(136) -->
<g id="node53" class="node">
<title>node_System(136)</title>
<g id="a_node53"><a xlink:title="bevy_asset::assets::Assets&lt;bevy_audio::sinks::AudioSink&gt;::asset_event_system">
<polygon fill="white" stroke="black" points="1979,-226 1707,-226 1707,-190 1979,-190 1979,-226"/>
<text text-anchor="middle" x="1843" y="-204.3" font-family="Times,serif" font-size="14.00">Assets&lt;AudioSink&gt;asset_event_system</text>
</a>
</g>
</g>
<!-- node_System(139) -->
<g id="node54" class="node">
<title>node_System(139)</title>
<g id="a_node54"><a xlink:title="bevy_asset::assets::Assets&lt;bevy_audio::sinks::SpatialAudioSink&gt;::asset_event_system">
<polygon fill="white" stroke="black" points="2002,-172 1684,-172 1684,-136 2002,-136 2002,-172"/>
<text text-anchor="middle" x="1843" y="-150.3" font-family="Times,serif" font-size="14.00">Assets&lt;SpatialAudioSink&gt;asset_event_system</text>
</a>
</g>
</g>
<!-- node_System(144) -->
<g id="node55" class="node">
<title>node_System(144)</title>
<g id="a_node55"><a xlink:title="bevy_asset::assets::Assets&lt;bevy_animation::AnimationClip&gt;::asset_event_system">
<polygon fill="white" stroke="black" points="1993,-118 1693,-118 1693,-82 1993,-82 1993,-118"/>
<text text-anchor="middle" x="1843" y="-96.3" font-family="Times,serif" font-size="14.00">Assets&lt;AnimationClip&gt;asset_event_system</text>
</a>
</g>
</g>
</g>
</svg>
