<?xml version="1.0" encoding="UTF-8" standalone="no"?>
<!DOCTYPE svg PUBLIC "-//W3C//DTD SVG 1.1//EN"
 "http://www.w3.org/Graphics/SVG/1.1/DTD/svg11.dtd">
<!-- Generated by graphviz version 7.1.0 (0)
 -->
<!-- Pages: 1 -->
<svg width="1534pt" height="140pt"
 viewBox="0.00 0.00 1534.00 140.00" xmlns="http://www.w3.org/2000/svg" xmlns:xlink="http://www.w3.org/1999/xlink">
<g id="graph0" class="graph" transform="scale(1 1) rotate(0) translate(4 136)">
<polygon fill="white" stroke="none" points="-4,4 -4,-136 1530,-136 1530,4 -4,4"/>
<g id="clust1" class="cluster">
<title>clusternode_Set(0)</title>
<g id="a_clust1"><a xlink:title="Update">
<polygon fill="white" stroke="black" points="691,-62 691,-101 756,-101 756,-62 691,-62"/>
<text text-anchor="middle" x="723.5" y="-85.8" font-family="Helvetica,sans-Serif" font-size="14.00">Update</text>
</a>
</g>
</g>
<g id="clust2" class="cluster">
<title>clusternode_Set(2)</title>
<g id="a_clust2"><a xlink:title="FirstFlush">
<polygon fill="white" stroke="black" points="70,-85 70,-124 152,-124 152,-85 70,-85"/>
<text text-anchor="middle" x="111" y="-108.8" font-family="Helvetica,sans-Serif" font-size="14.00">FirstFlush</text>
</a>
</g>
</g>
<g id="clust3" class="cluster">
<title>clusternode_Set(3)</title>
<g id="a_clust3"><a xlink:title="PreUpdateFlush">
<polygon fill="white" stroke="black" points="284,-62 284,-101 407,-101 407,-62 284,-62"/>
<text text-anchor="middle" x="345.5" y="-85.8" font-family="Helvetica,sans-Serif" font-size="14.00">PreUpdateFlush</text>
</a>
</g>
</g>
<g id="clust4" class="cluster">
<title>clusternode_Set(4)</title>
<g id="a_clust4"><a xlink:title="UpdateFlush">
<polygon fill="white" stroke="black" points="776,-62 776,-101 877,-101 877,-62 776,-62"/>
<text text-anchor="middle" x="826.5" y="-85.8" font-family="Helvetica,sans-Serif" font-size="14.00">UpdateFlush</text>
</a>
</g>
</g>
<g id="clust5" class="cluster">
<title>clusternode_Set(5)</title>
<g id="a_clust5"><a xlink:title="PostUpdateFlush">
<polygon fill="white" stroke="black" points="1233,-73 1233,-112 1362,-112 1362,-73 1233,-73"/>
<text text-anchor="middle" x="1297.5" y="-96.8" font-family="Helvetica,sans-Serif" font-size="14.00">PostUpdateFlush</text>
</a>
</g>
</g>
<g id="clust6" class="cluster">
<title>clusternode_Set(6)</title>
<g id="a_clust6"><a xlink:title="LastFlush">
<polygon fill="white" stroke="black" points="1446,-49 1446,-88 1526,-88 1526,-49 1446,-49"/>
<text text-anchor="middle" x="1486" y="-72.8" font-family="Helvetica,sans-Serif" font-size="14.00">LastFlush</text>
</a>
</g>
</g>
<g id="clust7" class="cluster">
<title>clusternode_Set(7)</title>
<g id="a_clust7"><a xlink:title="First">
<polygon fill="white" stroke="black" points="0,-61 0,-100 46,-100 46,-61 0,-61"/>
<text text-anchor="middle" x="23" y="-84.8" font-family="Helvetica,sans-Serif" font-size="14.00">First</text>
</a>
</g>
</g>
<g id="clust8" class="cluster">
<title>clusternode_Set(8)</title>
<g id="a_clust8"><a xlink:title="PreUpdate">
<polygon fill="white" stroke="black" points="177,-62 177,-101 264,-101 264,-62 177,-62"/>
<text text-anchor="middle" x="220.5" y="-85.8" font-family="Helvetica,sans-Serif" font-size="14.00">PreUpdate</text>
</a>
</g>
</g>
<g id="clust9" class="cluster">
<title>clusternode_Set(9)</title>
<g id="a_clust9"><a xlink:title="StateTransitions">
<polygon fill="white" stroke="black" points="427,-62 427,-101 551,-101 551,-62 427,-62"/>
<text text-anchor="middle" x="489" y="-85.8" font-family="Helvetica,sans-Serif" font-size="14.00">StateTransitions</text>
</a>
</g>
</g>
<g id="clust10" class="cluster">
<title>clusternode_Set(10)</title>
<g id="a_clust10"><a xlink:title="FixedUpdate">
<polygon fill="white" stroke="black" points="571,-62 571,-101 671,-101 671,-62 571,-62"/>
<text text-anchor="middle" x="621" y="-85.8" font-family="Helvetica,sans-Serif" font-size="14.00">FixedUpdate</text>
</a>
</g>
</g>
<g id="clust11" class="cluster">
<title>clusternode_Set(11)</title>
<g id="a_clust11"><a xlink:title="PostUpdate">
<polygon fill="white" stroke="black" points="897,-8 897,-101 1213,-101 1213,-8 897,-8"/>
<text text-anchor="middle" x="1055" y="-85.8" font-family="Helvetica,sans-Serif" font-size="14.00">PostUpdate</text>
</a>
</g>
</g>
<g id="clust12" class="cluster">
<title>clusternode_Set(12)</title>
<g id="a_clust12"><a xlink:title="Last">
<polygon fill="white" stroke="black" points="1382,-49 1382,-88 1426,-88 1426,-49 1382,-49"/>
<text text-anchor="middle" x="1404" y="-72.8" font-family="Helvetica,sans-Serif" font-size="14.00">Last</text>
</a>
</g>
</g>
<g id="clust13" class="cluster">
<title>clusternode_Set(58)</title>
<g id="a_clust13"><a xlink:title="LoadAssets">
<polygon fill="white" stroke="black" points="66,-38 66,-77 157,-77 157,-38 66,-38"/>
<text text-anchor="middle" x="111.5" y="-61.8" font-family="Helvetica,sans-Serif" font-size="14.00">LoadAssets</text>
</a>
</g>
</g>
<g id="clust14" class="cluster">
<title>clusternode_Set(59)</title>
<g id="a_clust14"><a xlink:title="AssetEvents">
<polygon fill="white" stroke="black" points="1249,-26 1249,-65 1345,-65 1345,-26 1249,-26"/>
<text text-anchor="middle" x="1297" y="-49.8" font-family="Helvetica,sans-Serif" font-size="14.00">AssetEvents</text>
</a>
</g>
</g>
<!-- set_marker_node_Set(0) -->
<!-- set_marker_node_Set(4) -->
<!-- set_marker_node_Set(0)&#45;&gt;set_marker_node_Set(4) -->
<g id="edge7" class="edge">
<title>set_marker_node_Set(0)&#45;&gt;set_marker_node_Set(4)</title>
<g id="a_edge7"><a xlink:title="Update → UpdateFlush">
<path fill="none" stroke="#ee9e44" stroke-width="2" d="M756,-70C758.35,-70 760.77,-70 763.22,-70"/>
<polygon fill="#ee9e44" stroke="#ee9e44" stroke-width="2" points="762.97,-73.5 772.97,-70 762.97,-66.5 762.97,-73.5"/>
</a>
</g>
</g>
<!-- set_marker_node_Set(2) -->
<!-- set_marker_node_Set(8) -->
<!-- set_marker_node_Set(2)&#45;&gt;set_marker_node_Set(8) -->
<g id="edge2" class="edge">
<title>set_marker_node_Set(2)&#45;&gt;set_marker_node_Set(8)</title>
<g id="a_edge2"><a xlink:title="FirstFlush → PreUpdate">
<path fill="none" stroke="#881877" stroke-width="2" d="M149.2,-85C154.17,-83.94 159.34,-82.82 164.52,-81.71"/>
<polygon fill="#881877" stroke="#881877" stroke-width="2" points="165,-85.19 174.04,-79.66 163.53,-78.34 165,-85.19"/>
</a>
</g>
</g>
<!-- set_marker_node_Set(3) -->
<!-- set_marker_node_Set(9) -->
<!-- set_marker_node_Set(3)&#45;&gt;set_marker_node_Set(9) -->
<g id="edge4" class="edge">
<title>set_marker_node_Set(3)&#45;&gt;set_marker_node_Set(9)</title>
<g id="a_edge4"><a xlink:title="PreUpdateFlush → StateTransitions">
<path fill="none" stroke="#aa3a55" stroke-width="2" d="M407,-70C409.39,-70 411.8,-70 414.21,-70"/>
<polygon fill="#aa3a55" stroke="#aa3a55" stroke-width="2" points="413.98,-73.5 423.98,-70 413.98,-66.5 413.98,-73.5"/>
</a>
</g>
</g>
<!-- set_marker_node_Set(11) -->
<!-- set_marker_node_Set(4)&#45;&gt;set_marker_node_Set(11) -->
<g id="edge8" class="edge">
<title>set_marker_node_Set(4)&#45;&gt;set_marker_node_Set(11)</title>
<g id="a_edge8"><a xlink:title="UpdateFlush → PostUpdate">
<path fill="none" stroke="#663699" stroke-width="2" d="M877,-70C879.35,-70 881.75,-70 884.19,-70"/>
<polygon fill="#663699" stroke="#663699" stroke-width="2" points="883.98,-73.5 893.98,-70 883.98,-66.5 883.98,-73.5"/>
</a>
</g>
</g>
<!-- set_marker_node_Set(5) -->
<!-- set_marker_node_Set(12) -->
<!-- set_marker_node_Set(5)&#45;&gt;set_marker_node_Set(12) -->
<g id="edge10" class="edge">
<title>set_marker_node_Set(5)&#45;&gt;set_marker_node_Set(12)</title>
<g id="a_edge10"><a xlink:title="PostUpdateFlush → Last">
<path fill="none" stroke="#22c2bb" stroke-width="2" d="M1343.71,-73C1349.88,-71.76 1356.11,-70.41 1362,-69 1364.46,-68.41 1366.99,-67.77 1369.52,-67.09"/>
<polygon fill="#22c2bb" stroke="#22c2bb" stroke-width="2" points="1370.41,-70.48 1379.09,-64.4 1368.51,-63.74 1370.41,-70.48"/>
</a>
</g>
</g>
<!-- set_marker_node_Set(6) -->
<!-- set_marker_node_Set(7) -->
<!-- set_marker_node_Set(7)&#45;&gt;set_marker_node_Set(2) -->
<g id="edge1" class="edge">
<title>set_marker_node_Set(7)&#45;&gt;set_marker_node_Set(2)</title>
<g id="a_edge1"><a xlink:title="First → FirstFlush">
<path fill="none" stroke="#eede00" stroke-width="2" d="M46,-75.34C52.44,-77.18 59.5,-79.18 66,-81 66.73,-81.2 67.47,-81.41 68.21,-81.62"/>
<polygon fill="#eede00" stroke="#eede00" stroke-width="2" points="67,-84.91 77.57,-84.2 68.86,-78.17 67,-84.91"/>
</a>
</g>
</g>
<!-- set_marker_node_Set(58) -->
<!-- set_marker_node_Set(7)&#45;&gt;set_marker_node_Set(58) -->
<g id="edge13" class="edge">
<title>set_marker_node_Set(7)&#45;&gt;set_marker_node_Set(58)</title>
<g id="a_edge13"><a xlink:title="First → LoadAssets">
<path fill="none" stroke="#881877" stroke-width="2" d="M46,-63.12C48.46,-62.46 51.05,-61.77 53.71,-61.05"/>
<polygon fill="#881877" stroke="#881877" stroke-width="2" points="54.32,-64.51 63.08,-58.55 52.51,-57.75 54.32,-64.51"/>
</a>
</g>
</g>
<!-- set_marker_node_Set(8)&#45;&gt;set_marker_node_Set(3) -->
<g id="edge3" class="edge">
<title>set_marker_node_Set(8)&#45;&gt;set_marker_node_Set(3)</title>
<g id="a_edge3"><a xlink:title="PreUpdate → PreUpdateFlush">
<path fill="none" stroke="#00b0cc" stroke-width="2" d="M264,-70C266.39,-70 268.82,-70 271.28,-70"/>
<polygon fill="#00b0cc" stroke="#00b0cc" stroke-width="2" points="270.98,-73.5 280.98,-70 270.98,-66.5 270.98,-73.5"/>
</a>
</g>
</g>
<!-- set_marker_node_Set(10) -->
<!-- set_marker_node_Set(9)&#45;&gt;set_marker_node_Set(10) -->
<g id="edge5" class="edge">
<title>set_marker_node_Set(9)&#45;&gt;set_marker_node_Set(10)</title>
<g id="a_edge5"><a xlink:title="StateTransitions → FixedUpdate">
<path fill="none" stroke="#44d488" stroke-width="2" d="M551,-70C553.39,-70 555.79,-70 558.19,-70"/>
<polygon fill="#44d488" stroke="#44d488" stroke-width="2" points="557.98,-73.5 567.98,-70 557.98,-66.5 557.98,-73.5"/>
</a>
</g>
</g>
<!-- set_marker_node_Set(10)&#45;&gt;set_marker_node_Set(0) -->
<g id="edge6" class="edge">
<title>set_marker_node_Set(10)&#45;&gt;set_marker_node_Set(0)</title>
<g id="a_edge6"><a xlink:title="FixedUpdate → Update">
<path fill="none" stroke="#0090cc" stroke-width="2" d="M671,-70C673.37,-70 675.75,-70 678.11,-70"/>
<polygon fill="#0090cc" stroke="#0090cc" stroke-width="2" points="677.98,-73.5 687.98,-70 677.98,-66.5 677.98,-73.5"/>
</a>
</g>
</g>
<!-- set_marker_node_Set(11)&#45;&gt;set_marker_node_Set(5) -->
<g id="edge9" class="edge">
<title>set_marker_node_Set(11)&#45;&gt;set_marker_node_Set(5)</title>
<g id="a_edge9"><a xlink:title="PostUpdate → PostUpdateFlush">
<path fill="none" stroke="#3363bb" stroke-width="2" d="M1213,-77.2C1215.47,-77.31 1217.91,-77.42 1220.33,-77.53"/>
<polygon fill="#3363bb" stroke="#3363bb" stroke-width="2" points="1219.83,-81.01 1229.98,-77.97 1220.15,-74.02 1219.83,-81.01"/>
</a>
</g>
</g>
<!-- set_marker_node_Set(59) -->
<!-- set_marker_node_Set(11)&#45;&gt;set_marker_node_Set(59) -->
<g id="edge14" class="edge">
<title>set_marker_node_Set(11)&#45;&gt;set_marker_node_Set(59)</title>
<g id="a_edge14"><a xlink:title="PostUpdate → AssetEvents">
<path fill="none" stroke="#00b0cc" stroke-width="2" d="M1213,-61C1220.79,-59.54 1228.85,-57.54 1236.76,-55.3"/>
<polygon fill="#00b0cc" stroke="#00b0cc" stroke-width="2" points="1237.54,-58.72 1246.1,-52.48 1235.52,-52.02 1237.54,-58.72"/>
</a>
</g>
</g>
<!-- node_System(130) -->
<g id="node12" class="node">
<title>node_System(130)</title>
<g id="a_node12"><a xlink:title="bevy_audio::audio_output::play_queued_audio_system&lt;bevy_audio::audio_source::AudioSource&gt;">
<polygon fill="white" stroke="black" points="1205,-52 905,-52 905,-16 1205,-16 1205,-52"/>
<text text-anchor="middle" x="1055" y="-30.3" font-family="Times,serif" font-size="14.00">play_queued_audio_system&lt;AudioSource&gt;</text>
</a>
</g>
</g>
<!-- set_marker_node_Set(12)&#45;&gt;set_marker_node_Set(6) -->
<g id="edge11" class="edge">
<title>set_marker_node_Set(12)&#45;&gt;set_marker_node_Set(6)</title>
<g id="a_edge11"><a xlink:title="Last → LastFlush">
<path fill="none" stroke="#99d955" stroke-width="2" d="M1426,-57C1428.31,-57 1430.74,-57 1433.23,-57"/>
<polygon fill="#99d955" stroke="#99d955" stroke-width="2" points="1432.98,-60.5 1442.98,-57 1432.98,-53.5 1432.98,-60.5"/>
</a>
</g>
</g>
<!-- set_marker_node_Set(58)&#45;&gt;set_marker_node_Set(8) -->
<g id="edge12" class="edge">
<title>set_marker_node_Set(58)&#45;&gt;set_marker_node_Set(8)</title>
<g id="a_edge12"><a xlink:title="LoadAssets → PreUpdate">
<path fill="none" stroke="#eede00" stroke-width="2" d="M157,-56.09C161.6,-57.12 166.28,-58.18 170.91,-59.21"/>
<polygon fill="#eede00" stroke="#eede00" stroke-width="2" points="169.87,-62.57 180.39,-61.34 171.4,-55.74 169.87,-62.57"/>
</a>
</g>
</g>
<!-- set_marker_node_Set(59)&#45;&gt;set_marker_node_Set(12) -->
<g id="edge15" class="edge">
<title>set_marker_node_Set(59)&#45;&gt;set_marker_node_Set(12)</title>
<g id="a_edge15"><a xlink:title="AssetEvents → Last">
<path fill="none" stroke="#aa3a55" stroke-width="2" d="M1345,-44.29C1353.25,-46.1 1361.69,-47.95 1369.48,-49.66"/>
<polygon fill="#aa3a55" stroke="#aa3a55" stroke-width="2" points="1368.53,-53.03 1379.04,-51.75 1370.02,-46.19 1368.53,-53.03"/>
</a>
</g>
</g>
</g>
</svg>
