<?xml version="1.0" encoding="UTF-8" standalone="no"?>
<!DOCTYPE svg PUBLIC "-//W3C//DTD SVG 1.1//EN"
 "http://www.w3.org/Graphics/SVG/1.1/DTD/svg11.dtd">
<!-- Generated by graphviz version 7.1.0 (0)
 -->
<!-- Pages: 1 -->
<svg width="1668pt" height="368pt"
 viewBox="0.00 0.00 1668.00 368.00" xmlns="http://www.w3.org/2000/svg" xmlns:xlink="http://www.w3.org/1999/xlink">
<g id="graph0" class="graph" transform="scale(1 1) rotate(0) translate(4 364)">
<polygon fill="white" stroke="none" points="-4,4 -4,-364 1664,-364 1664,4 -4,4"/>
<g id="clust1" class="cluster">
<title>clusternode_Set(0)</title>
<g id="a_clust1"><a xlink:title="Update">
<path fill="#000000" fill-opacity="0.031373" stroke="#000000" stroke-width="2" stroke-opacity="0.250980" d="M1060,-31C1060,-31 1101,-31 1101,-31 1107,-31 1113,-37 1113,-43 1113,-43 1113,-58 1113,-58 1113,-64 1107,-70 1101,-70 1101,-70 1060,-70 1060,-70 1054,-70 1048,-64 1048,-58 1048,-58 1048,-43 1048,-43 1048,-37 1054,-31 1060,-31"/>
<text text-anchor="middle" x="1080.5" y="-54.8" font-family="Helvetica,sans-Serif" font-size="14.00">Update</text>
</a>
</g>
</g>
<g id="clust2" class="cluster">
<title>clusternode_Set(2)</title>
<g id="a_clust2"><a xlink:title="FirstFlush">
<path fill="#000000" fill-opacity="0.031373" stroke="#000000" stroke-width="2" stroke-opacity="0.250980" d="M82,-101C82,-101 140,-101 140,-101 146,-101 152,-107 152,-113 152,-113 152,-128 152,-128 152,-134 146,-140 140,-140 140,-140 82,-140 82,-140 76,-140 70,-134 70,-128 70,-128 70,-113 70,-113 70,-107 76,-101 82,-101"/>
<text text-anchor="middle" x="111" y="-124.8" font-family="Helvetica,sans-Serif" font-size="14.00">FirstFlush</text>
</a>
</g>
</g>
<g id="clust3" class="cluster">
<title>clusternode_Set(3)</title>
<g id="a_clust3"><a xlink:title="PreUpdateFlush">
<path fill="#000000" fill-opacity="0.031373" stroke="#000000" stroke-width="2" stroke-opacity="0.250980" d="M484.5,-31C484.5,-31 583.5,-31 583.5,-31 589.5,-31 595.5,-37 595.5,-43 595.5,-43 595.5,-58 595.5,-58 595.5,-64 589.5,-70 583.5,-70 583.5,-70 484.5,-70 484.5,-70 478.5,-70 472.5,-64 472.5,-58 472.5,-58 472.5,-43 472.5,-43 472.5,-37 478.5,-31 484.5,-31"/>
<text text-anchor="middle" x="534" y="-54.8" font-family="Helvetica,sans-Serif" font-size="14.00">PreUpdateFlush</text>
</a>
</g>
</g>
<g id="clust4" class="cluster">
<title>clusternode_Set(4)</title>
<g id="a_clust4"><a xlink:title="UpdateFlush">
<path fill="#000000" fill-opacity="0.031373" stroke="#000000" stroke-width="2" stroke-opacity="0.250980" d="M1145,-31C1145,-31 1222,-31 1222,-31 1228,-31 1234,-37 1234,-43 1234,-43 1234,-58 1234,-58 1234,-64 1228,-70 1222,-70 1222,-70 1145,-70 1145,-70 1139,-70 1133,-64 1133,-58 1133,-58 1133,-43 1133,-43 1133,-37 1139,-31 1145,-31"/>
<text text-anchor="middle" x="1183.5" y="-54.8" font-family="Helvetica,sans-Serif" font-size="14.00">UpdateFlush</text>
</a>
</g>
</g>
<g id="clust5" class="cluster">
<title>clusternode_Set(5)</title>
<g id="a_clust5"><a xlink:title="PostUpdateFlush">
<path fill="#000000" fill-opacity="0.031373" stroke="#000000" stroke-width="2" stroke-opacity="0.250980" d="M1379,-55C1379,-55 1484,-55 1484,-55 1490,-55 1496,-61 1496,-67 1496,-67 1496,-82 1496,-82 1496,-88 1490,-94 1484,-94 1484,-94 1379,-94 1379,-94 1373,-94 1367,-88 1367,-82 1367,-82 1367,-67 1367,-67 1367,-61 1373,-55 1379,-55"/>
<text text-anchor="middle" x="1431.5" y="-78.8" font-family="Helvetica,sans-Serif" font-size="14.00">PostUpdateFlush</text>
</a>
</g>
</g>
<g id="clust6" class="cluster">
<title>clusternode_Set(6)</title>
<g id="a_clust6"><a xlink:title="LastFlush">
<path fill="#000000" fill-opacity="0.031373" stroke="#000000" stroke-width="2" stroke-opacity="0.250980" d="M1592,-20C1592,-20 1648,-20 1648,-20 1654,-20 1660,-26 1660,-32 1660,-32 1660,-47 1660,-47 1660,-53 1654,-59 1648,-59 1648,-59 1592,-59 1592,-59 1586,-59 1580,-53 1580,-47 1580,-47 1580,-32 1580,-32 1580,-26 1586,-20 1592,-20"/>
<text text-anchor="middle" x="1620" y="-43.8" font-family="Helvetica,sans-Serif" font-size="14.00">LastFlush</text>
</a>
</g>
</g>
<g id="clust7" class="cluster">
<title>clusternode_Set(7)</title>
<g id="a_clust7"><a xlink:title="First">
<path fill="#000000" fill-opacity="0.031373" stroke="#000000" stroke-width="2" stroke-opacity="0.250980" d="M12,-77C12,-77 34,-77 34,-77 40,-77 46,-83 46,-89 46,-89 46,-104 46,-104 46,-110 40,-116 34,-116 34,-116 12,-116 12,-116 6,-116 0,-110 0,-104 0,-104 0,-89 0,-89 0,-83 6,-77 12,-77"/>
<text text-anchor="middle" x="23" y="-100.8" font-family="Helvetica,sans-Serif" font-size="14.00">First</text>
</a>
</g>
</g>
<g id="clust8" class="cluster">
<title>clusternode_Set(8)</title>
<g id="a_clust8"><a xlink:title="PreUpdate">
<path fill="#000000" fill-opacity="0.031373" stroke="#000000" stroke-width="2" stroke-opacity="0.250980" d="M181,-78C181,-78 904,-78 904,-78 910,-78 916,-84 916,-90 916,-90 916,-340 916,-340 916,-346 910,-352 904,-352 904,-352 181,-352 181,-352 175,-352 169,-346 169,-340 169,-340 169,-90 169,-90 169,-84 175,-78 181,-78"/>
<text text-anchor="middle" x="542.5" y="-336.8" font-family="Helvetica,sans-Serif" font-size="14.00">PreUpdate</text>
</a>
</g>
</g>
<g id="clust9" class="cluster">
<title>clusternode_Set(25)</title>
<g id="a_clust9"><a xlink:title="InputSystem">
<path fill="#000000" fill-opacity="0.031373" stroke="#000000" stroke-width="2" stroke-opacity="0.250980" d="M189,-94C189,-94 896,-94 896,-94 902,-94 908,-100 908,-106 908,-106 908,-309 908,-309 908,-315 902,-321 896,-321 896,-321 189,-321 189,-321 183,-321 177,-315 177,-309 177,-309 177,-106 177,-106 177,-100 183,-94 189,-94"/>
<text text-anchor="middle" x="542.5" y="-305.8" font-family="Helvetica,sans-Serif" font-size="14.00">InputSystem</text>
</a>
</g>
</g>
<g id="clust10" class="cluster">
<title>clusternode_Set(9)</title>
<g id="a_clust10"><a xlink:title="StateTransitions">
<path fill="#000000" fill-opacity="0.031373" stroke="#000000" stroke-width="2" stroke-opacity="0.250980" d="M737.5,-31C737.5,-31 837.5,-31 837.5,-31 843.5,-31 849.5,-37 849.5,-43 849.5,-43 849.5,-58 849.5,-58 849.5,-64 843.5,-70 837.5,-70 837.5,-70 737.5,-70 737.5,-70 731.5,-70 725.5,-64 725.5,-58 725.5,-58 725.5,-43 725.5,-43 725.5,-37 731.5,-31 737.5,-31"/>
<text text-anchor="middle" x="787.5" y="-54.8" font-family="Helvetica,sans-Serif" font-size="14.00">StateTransitions</text>
</a>
</g>
</g>
<g id="clust11" class="cluster">
<title>clusternode_Set(10)</title>
<g id="a_clust11"><a xlink:title="FixedUpdate">
<path fill="#000000" fill-opacity="0.031373" stroke="#000000" stroke-width="2" stroke-opacity="0.250980" d="M940,-31C940,-31 1016,-31 1016,-31 1022,-31 1028,-37 1028,-43 1028,-43 1028,-58 1028,-58 1028,-64 1022,-70 1016,-70 1016,-70 940,-70 940,-70 934,-70 928,-64 928,-58 928,-58 928,-43 928,-43 928,-37 934,-31 940,-31"/>
<text text-anchor="middle" x="978" y="-54.8" font-family="Helvetica,sans-Serif" font-size="14.00">FixedUpdate</text>
</a>
</g>
</g>
<g id="clust12" class="cluster">
<title>clusternode_Set(11)</title>
<g id="a_clust12"><a xlink:title="PostUpdate">
<path fill="#000000" fill-opacity="0.031373" stroke="#000000" stroke-width="2" stroke-opacity="0.250980" d="M1266,-31C1266,-31 1335,-31 1335,-31 1341,-31 1347,-37 1347,-43 1347,-43 1347,-58 1347,-58 1347,-64 1341,-70 1335,-70 1335,-70 1266,-70 1266,-70 1260,-70 1254,-64 1254,-58 1254,-58 1254,-43 1254,-43 1254,-37 1260,-31 1266,-31"/>
<text text-anchor="middle" x="1300.5" y="-54.8" font-family="Helvetica,sans-Serif" font-size="14.00">PostUpdate</text>
</a>
</g>
</g>
<g id="clust13" class="cluster">
<title>clusternode_Set(12)</title>
<g id="a_clust13"><a xlink:title="Last">
<path fill="#000000" fill-opacity="0.031373" stroke="#000000" stroke-width="2" stroke-opacity="0.250980" d="M1528,-20C1528,-20 1548,-20 1548,-20 1554,-20 1560,-26 1560,-32 1560,-32 1560,-47 1560,-47 1560,-53 1554,-59 1548,-59 1548,-59 1528,-59 1528,-59 1522,-59 1516,-53 1516,-47 1516,-47 1516,-32 1516,-32 1516,-26 1522,-20 1528,-20"/>
<text text-anchor="middle" x="1538" y="-43.8" font-family="Helvetica,sans-Serif" font-size="14.00">Last</text>
</a>
</g>
</g>
<g id="clust14" class="cluster">
<title>clusternode_Set(59)</title>
<g id="a_clust14"><a xlink:title="LoadAssets">
<path fill="#000000" fill-opacity="0.031373" stroke="#000000" stroke-width="2" stroke-opacity="0.250980" d="M78,-54C78,-54 145,-54 145,-54 151,-54 157,-60 157,-66 157,-66 157,-81 157,-81 157,-87 151,-93 145,-93 145,-93 78,-93 78,-93 72,-93 66,-87 66,-81 66,-81 66,-66 66,-66 66,-60 72,-54 78,-54"/>
<text text-anchor="middle" x="111.5" y="-77.8" font-family="Helvetica,sans-Serif" font-size="14.00">LoadAssets</text>
</a>
</g>
</g>
<g id="clust15" class="cluster">
<title>clusternode_Set(60)</title>
<g id="a_clust15"><a xlink:title="AssetEvents">
<path fill="#000000" fill-opacity="0.031373" stroke="#000000" stroke-width="2" stroke-opacity="0.250980" d="M1395,-8C1395,-8 1467,-8 1467,-8 1473,-8 1479,-14 1479,-20 1479,-20 1479,-35 1479,-35 1479,-41 1473,-47 1467,-47 1467,-47 1395,-47 1395,-47 1389,-47 1383,-41 1383,-35 1383,-35 1383,-20 1383,-20 1383,-14 1389,-8 1395,-8"/>
<text text-anchor="middle" x="1431" y="-31.8" font-family="Helvetica,sans-Serif" font-size="14.00">AssetEvents</text>
</a>
</g>
</g>
<!-- set_marker_node_Set(0) -->
<!-- set_marker_node_Set(4) -->
<!-- set_marker_node_Set(0)&#45;&gt;set_marker_node_Set(4) -->
<g id="edge7" class="edge">
<title>set_marker_node_Set(0)&#45;&gt;set_marker_node_Set(4)</title>
<g id="a_edge7"><a xlink:title="Update → UpdateFlush">
<path fill="none" stroke="#ee9e44" stroke-width="2" d="M1113,-39C1115.35,-39 1117.77,-39 1120.22,-39"/>
<polygon fill="#ee9e44" stroke="#ee9e44" stroke-width="2" points="1119.97,-42.5 1129.97,-39 1119.97,-35.5 1119.97,-42.5"/>
</a>
</g>
</g>
<!-- set_marker_node_Set(2) -->
<!-- set_marker_node_Set(8) -->
<!-- set_marker_node_Set(2)&#45;&gt;set_marker_node_Set(8) -->
<g id="edge2" class="edge">
<title>set_marker_node_Set(2)&#45;&gt;set_marker_node_Set(8)</title>
<g id="a_edge2"><a xlink:title="FirstFlush → PreUpdate">
<path fill="none" stroke="#881877" stroke-width="2" d="M137.79,-101C144.29,-99.01 151.01,-96.98 156.59,-95.35"/>
<polygon fill="#881877" stroke="#881877" stroke-width="2" points="157.33,-98.77 166.08,-92.79 155.51,-92.02 157.33,-98.77"/>
</a>
</g>
</g>
<!-- set_marker_node_Set(3) -->
<!-- set_marker_node_Set(9) -->
<!-- set_marker_node_Set(3)&#45;&gt;set_marker_node_Set(9) -->
<g id="edge4" class="edge">
<title>set_marker_node_Set(3)&#45;&gt;set_marker_node_Set(9)</title>
<g id="a_edge4"><a xlink:title="PreUpdateFlush → StateTransitions">
<path fill="none" stroke="#aa3a55" stroke-width="2" d="M595.5,-39C630.76,-39 675.37,-39 712.61,-39"/>
<polygon fill="#aa3a55" stroke="#aa3a55" stroke-width="2" points="712.48,-42.5 722.48,-39 712.48,-35.5 712.48,-42.5"/>
</a>
</g>
</g>
<!-- set_marker_node_Set(11) -->
<!-- set_marker_node_Set(4)&#45;&gt;set_marker_node_Set(11) -->
<g id="edge8" class="edge">
<title>set_marker_node_Set(4)&#45;&gt;set_marker_node_Set(11)</title>
<g id="a_edge8"><a xlink:title="UpdateFlush → PostUpdate">
<path fill="none" stroke="#663699" stroke-width="2" d="M1234,-39C1236.43,-39 1238.88,-39 1241.32,-39"/>
<polygon fill="#663699" stroke="#663699" stroke-width="2" points="1240.98,-42.5 1250.98,-39 1240.98,-35.5 1240.98,-42.5"/>
</a>
</g>
</g>
<!-- set_marker_node_Set(5) -->
<!-- set_marker_node_Set(12) -->
<!-- set_marker_node_Set(5)&#45;&gt;set_marker_node_Set(12) -->
<g id="edge10" class="edge">
<title>set_marker_node_Set(5)&#45;&gt;set_marker_node_Set(12)</title>
<g id="a_edge10"><a xlink:title="PostUpdateFlush → Last">
<path fill="none" stroke="#22c2bb" stroke-width="2" d="M1475.78,-55C1482.63,-53.3 1489.57,-51.31 1496,-49 1498.73,-48.02 1501.5,-46.9 1504.26,-45.7"/>
<polygon fill="#22c2bb" stroke="#22c2bb" stroke-width="2" points="1505.77,-48.85 1513.27,-41.38 1502.74,-42.54 1505.77,-48.85"/>
</a>
</g>
</g>
<!-- set_marker_node_Set(6) -->
<!-- set_marker_node_Set(7) -->
<!-- set_marker_node_Set(7)&#45;&gt;set_marker_node_Set(2) -->
<g id="edge1" class="edge">
<title>set_marker_node_Set(7)&#45;&gt;set_marker_node_Set(2)</title>
<g id="a_edge1"><a xlink:title="First → FirstFlush">
<path fill="none" stroke="#eede00" stroke-width="2" d="M46,-91.14C53.02,-93.1 61.02,-95.33 68.95,-97.54"/>
<polygon fill="#eede00" stroke="#eede00" stroke-width="2" points="67.85,-100.87 78.43,-100.19 69.74,-94.13 67.85,-100.87"/>
</a>
</g>
</g>
<!-- set_marker_node_Set(59) -->
<!-- set_marker_node_Set(7)&#45;&gt;set_marker_node_Set(59) -->
<g id="edge18" class="edge">
<title>set_marker_node_Set(7)&#45;&gt;set_marker_node_Set(59)</title>
<g id="a_edge18"><a xlink:title="First → LoadAssets">
<path fill="none" stroke="#ee9e44" stroke-width="2" d="M46,-79.12C48.46,-78.46 51.05,-77.77 53.71,-77.05"/>
<polygon fill="#ee9e44" stroke="#ee9e44" stroke-width="2" points="54.32,-80.51 63.08,-74.55 52.51,-73.75 54.32,-80.51"/>
</a>
</g>
</g>
<!-- set_marker_node_Set(8)&#45;&gt;set_marker_node_Set(3) -->
<g id="edge3" class="edge">
<title>set_marker_node_Set(8)&#45;&gt;set_marker_node_Set(3)</title>
<g id="a_edge3"><a xlink:title="PreUpdate → PreUpdateFlush">
<path fill="none" stroke="#00b0cc" stroke-width="2" d="M330.86,-78C366.2,-71.16 417.88,-61.17 460.07,-53.01"/>
<polygon fill="#00b0cc" stroke="#00b0cc" stroke-width="2" points="460.38,-56.51 469.53,-51.18 459.05,-49.64 460.38,-56.51"/>
</a>
</g>
</g>
<!-- set_marker_node_Set(25) -->
<!-- node_System(15) -->
<g id="node10" class="node">
<title>node_System(15)</title>
<g id="a_node10"><a xlink:title="bevy_input::keyboard::keyboard_input_system">
<polygon fill="#d36aaf" stroke="#a5317d" points="375,-279 202,-279 202,-243 375,-243 375,-279"/>
<text text-anchor="middle" x="288.5" y="-257.3" font-family="Helvetica,sans-Serif" font-size="14.00" fill="#270b1d">keyboard_input_system</text>
</a>
</g>
</g>
<!-- node_System(19) -->
<g id="node11" class="node">
<title>node_System(19)</title>
<g id="a_node11"><a xlink:title="bevy_input::mouse::mouse_button_input_system">
<polygon fill="#d36aaf" stroke="#a5317d" points="392,-232 185,-232 185,-196 392,-196 392,-232"/>
<text text-anchor="middle" x="288.5" y="-210.3" font-family="Helvetica,sans-Serif" font-size="14.00" fill="#270b1d">mouse_button_input_system</text>
</a>
</g>
</g>
<!-- node_System(24) -->
<g id="node12" class="node">
<title>node_System(24)</title>
<g id="a_node12"><a xlink:title="bevy_input::gamepad::gamepad_event_system">
<polygon fill="#d36aaf" stroke="#a5317d" points="375.5,-185 201.5,-185 201.5,-149 375.5,-149 375.5,-185"/>
<text text-anchor="middle" x="288.5" y="-163.3" font-family="Helvetica,sans-Serif" font-size="14.00" fill="#270b1d">gamepad_event_system</text>
</a>
</g>
</g>
<!-- node_System(25) -->
<g id="node13" class="node">
<title>node_System(25)</title>
<g id="a_node13"><a xlink:title="bevy_input::gamepad::gamepad_connection_system">
<polygon fill="#d36aaf" stroke="#a5317d" points="639,-185 428,-185 428,-149 639,-149 639,-185"/>
<text text-anchor="middle" x="533.5" y="-163.3" font-family="Helvetica,sans-Serif" font-size="14.00" fill="#270b1d">gamepad_connection_system</text>
</a>
</g>
</g>
<!-- node_System(24)&#45;&gt;node_System(25) -->
<g id="edge12" class="edge">
<title>node_System(24)&#45;&gt;node_System(25)</title>
<g id="a_edge12"><a xlink:title="SystemTypeSet(gamepad_event_system&quot;) → gamepad_connection_system">
<path fill="none" stroke="#eede00" stroke-width="2" d="M375.86,-167C388.57,-167 401.85,-167 415.06,-167"/>
<polygon fill="#eede00" stroke="#eede00" stroke-width="2" points="414.66,-170.5 424.66,-167 414.66,-163.5 414.66,-170.5"/>
</a>
</g>
</g>
<!-- node_System(26) -->
<g id="node14" class="node">
<title>node_System(26)</title>
<g id="a_node14"><a xlink:title="bevy_input::gamepad::gamepad_button_event_system">
<polygon fill="#d36aaf" stroke="#a5317d" points="900,-159 675,-159 675,-123 900,-123 900,-159"/>
<text text-anchor="middle" x="787.5" y="-137.3" font-family="Helvetica,sans-Serif" font-size="14.00" fill="#270b1d">gamepad_button_event_system</text>
</a>
</g>
</g>
<!-- node_System(24)&#45;&gt;node_System(26) -->
<g id="edge13" class="edge">
<title>node_System(24)&#45;&gt;node_System(26)</title>
<g id="a_edge13"><a xlink:title="SystemTypeSet(gamepad_event_system&quot;) → gamepad_button_event_system">
<path fill="none" stroke="#881877" stroke-width="2" d="M375.68,-150.55C392.94,-147.86 411,-145.47 428,-144 505.64,-137.27 593.09,-136.41 662.18,-137.28"/>
<polygon fill="#881877" stroke="#881877" stroke-width="2" points="661.79,-140.77 671.84,-137.42 661.89,-133.77 661.79,-140.77"/>
</a>
</g>
</g>
<!-- node_System(27) -->
<g id="node15" class="node">
<title>node_System(27)</title>
<g id="a_node15"><a xlink:title="bevy_input::gamepad::gamepad_axis_event_system">
<polygon fill="#d36aaf" stroke="#a5317d" points="890.5,-212 684.5,-212 684.5,-176 890.5,-176 890.5,-212"/>
<text text-anchor="middle" x="787.5" y="-190.3" font-family="Helvetica,sans-Serif" font-size="14.00" fill="#270b1d">gamepad_axis_event_system</text>
</a>
</g>
</g>
<!-- node_System(24)&#45;&gt;node_System(27) -->
<g id="edge15" class="edge">
<title>node_System(24)&#45;&gt;node_System(27)</title>
<g id="a_edge15"><a xlink:title="SystemTypeSet(gamepad_event_system&quot;) → gamepad_axis_event_system">
<path fill="none" stroke="#aa3a55" stroke-width="2" d="M375.65,-184.17C392.92,-186.98 410.99,-189.47 428,-191 509.12,-198.32 600.98,-198.94 671.4,-197.8"/>
<polygon fill="#aa3a55" stroke="#aa3a55" stroke-width="2" points="671.33,-201.3 681.27,-197.62 671.21,-194.3 671.33,-201.3"/>
</a>
</g>
</g>
<!-- node_System(25)&#45;&gt;node_System(26) -->
<g id="edge14" class="edge">
<title>node_System(25)&#45;&gt;node_System(26)</title>
<g id="a_edge14"><a xlink:title="SystemTypeSet(gamepad_connection_system&quot;) → gamepad_button_event_system">
<path fill="none" stroke="#00b0cc" stroke-width="2" d="M639.18,-156.2C646.72,-155.42 654.36,-154.63 661.99,-153.85"/>
<polygon fill="#00b0cc" stroke="#00b0cc" stroke-width="2" points="662.22,-157.34 671.8,-152.83 661.5,-150.38 662.22,-157.34"/>
</a>
</g>
</g>
<!-- node_System(25)&#45;&gt;node_System(27) -->
<g id="edge16" class="edge">
<title>node_System(25)&#45;&gt;node_System(27)</title>
<g id="a_edge16"><a xlink:title="SystemTypeSet(gamepad_connection_system&quot;) → gamepad_axis_event_system">
<path fill="none" stroke="#44d488" stroke-width="2" d="M639.18,-178.22C649.87,-179.36 660.78,-180.53 671.57,-181.69"/>
<polygon fill="#44d488" stroke="#44d488" stroke-width="2" points="670.84,-185.13 681.16,-182.71 671.59,-178.17 670.84,-185.13"/>
</a>
</g>
</g>
<!-- node_System(29) -->
<g id="node16" class="node">
<title>node_System(29)</title>
<g id="a_node16"><a xlink:title="bevy_input::touch::touch_screen_input_system">
<polygon fill="#d36aaf" stroke="#a5317d" points="388.5,-138 188.5,-138 188.5,-102 388.5,-102 388.5,-138"/>
<text text-anchor="middle" x="288.5" y="-116.3" font-family="Helvetica,sans-Serif" font-size="14.00" fill="#270b1d">touch_screen_input_system</text>
</a>
</g>
</g>
<!-- set_marker_node_Set(10) -->
<!-- set_marker_node_Set(9)&#45;&gt;set_marker_node_Set(10) -->
<g id="edge5" class="edge">
<title>set_marker_node_Set(9)&#45;&gt;set_marker_node_Set(10)</title>
<g id="a_edge5"><a xlink:title="StateTransitions → FixedUpdate">
<path fill="none" stroke="#44d488" stroke-width="2" d="M849.5,-39C870.51,-39 894.04,-39 915.12,-39"/>
<polygon fill="#44d488" stroke="#44d488" stroke-width="2" points="914.98,-42.5 924.98,-39 914.98,-35.5 914.98,-42.5"/>
</a>
</g>
</g>
<!-- set_marker_node_Set(10)&#45;&gt;set_marker_node_Set(0) -->
<g id="edge6" class="edge">
<title>set_marker_node_Set(10)&#45;&gt;set_marker_node_Set(0)</title>
<g id="a_edge6"><a xlink:title="FixedUpdate → Update">
<path fill="none" stroke="#0090cc" stroke-width="2" d="M1028,-39C1030.37,-39 1032.75,-39 1035.11,-39"/>
<polygon fill="#0090cc" stroke="#0090cc" stroke-width="2" points="1034.98,-42.5 1044.98,-39 1034.98,-35.5 1034.98,-42.5"/>
</a>
</g>
</g>
<!-- set_marker_node_Set(11)&#45;&gt;set_marker_node_Set(5) -->
<g id="edge9" class="edge">
<title>set_marker_node_Set(11)&#45;&gt;set_marker_node_Set(5)</title>
<g id="a_edge9"><a xlink:title="PostUpdate → PostUpdateFlush">
<path fill="none" stroke="#3363bb" stroke-width="2" d="M1347,-47.56C1355.83,-49.2 1365.16,-50.94 1374.26,-52.63"/>
<polygon fill="#3363bb" stroke="#3363bb" stroke-width="2" points="1373.56,-56.06 1384.04,-54.45 1374.84,-49.18 1373.56,-56.06"/>
</a>
</g>
</g>
<!-- set_marker_node_Set(60) -->
<!-- set_marker_node_Set(11)&#45;&gt;set_marker_node_Set(60) -->
<g id="edge19" class="edge">
<title>set_marker_node_Set(11)&#45;&gt;set_marker_node_Set(60)</title>
<g id="a_edge19"><a xlink:title="PostUpdate → AssetEvents">
<path fill="none" stroke="#663699" stroke-width="2" d="M1345.87,-31C1353.84,-29.58 1362.26,-28.08 1370.57,-26.6"/>
<polygon fill="#663699" stroke="#663699" stroke-width="2" points="1370.79,-30.11 1380.02,-24.91 1369.56,-23.22 1370.79,-30.11"/>
</a>
</g>
</g>
<!-- set_marker_node_Set(12)&#45;&gt;set_marker_node_Set(6) -->
<g id="edge11" class="edge">
<title>set_marker_node_Set(12)&#45;&gt;set_marker_node_Set(6)</title>
<g id="a_edge11"><a xlink:title="Last → LastFlush">
<path fill="none" stroke="#99d955" stroke-width="2" d="M1560,-28C1562.31,-28 1564.74,-28 1567.23,-28"/>
<polygon fill="#99d955" stroke="#99d955" stroke-width="2" points="1566.98,-31.5 1576.98,-28 1566.98,-24.5 1566.98,-31.5"/>
</a>
</g>
</g>
<!-- set_marker_node_Set(59)&#45;&gt;set_marker_node_Set(8) -->
<g id="edge17" class="edge">
<title>set_marker_node_Set(59)&#45;&gt;set_marker_node_Set(8)</title>
<g id="a_edge17"><a xlink:title="LoadAssets → PreUpdate">
<path fill="none" stroke="#0090cc" stroke-width="2" d="M157,-68.15C175.01,-70.62 196.2,-73.52 216.21,-76.25"/>
<polygon fill="#0090cc" stroke="#0090cc" stroke-width="2" points="215.62,-79.7 226,-77.59 216.57,-72.77 215.62,-79.7"/>
</a>
</g>
</g>
<!-- set_marker_node_Set(60)&#45;&gt;set_marker_node_Set(12) -->
<g id="edge20" class="edge">
<title>set_marker_node_Set(60)&#45;&gt;set_marker_node_Set(12)</title>
<g id="a_edge20"><a xlink:title="AssetEvents → Last">
<path fill="none" stroke="#3363bb" stroke-width="2" d="M1479,-21.37C1487.11,-22.3 1495.4,-23.25 1503.08,-24.12"/>
<polygon fill="#3363bb" stroke="#3363bb" stroke-width="2" points="1502.66,-27.6 1513,-25.26 1503.46,-20.64 1502.66,-27.6"/>
</a>
</g>
</g>
</g>
</svg>
