<?xml version="1.0" encoding="UTF-8" standalone="no"?>
<!DOCTYPE svg PUBLIC "-//W3C//DTD SVG 1.1//EN"
 "http://www.w3.org/Graphics/SVG/1.1/DTD/svg11.dtd">
<!-- Generated by graphviz version 8.0.1 (0)
 -->
<!-- Pages: 1 -->
<svg width="1669pt" height="582pt"
 viewBox="0.00 0.00 1669.00 582.00" xmlns="http://www.w3.org/2000/svg" xmlns:xlink="http://www.w3.org/1999/xlink">
<g id="graph0" class="graph" transform="scale(1 1) rotate(0) translate(4 578)">
<polygon fill="white" stroke="none" points="-4,4 -4,-578 1665,-578 1665,4 -4,4"/>
<g id="clust1" class="cluster">
<title>clusternode_Set(0)</title>
<g id="a_clust1"><a xlink:title="Update">
<path fill="#000000" fill-opacity="0.031373" stroke="#000000" stroke-width="2" stroke-opacity="0.250980" d="M666,-102C666,-102 702,-102 702,-102 708,-102 714,-108 714,-114 714,-114 714,-129 714,-129 714,-135 708,-141 702,-141 702,-141 666,-141 666,-141 660,-141 654,-135 654,-129 654,-129 654,-114 654,-114 654,-108 660,-102 666,-102"/>
<text text-anchor="middle" x="684" y="-125.8" font-family="Helvetica,sans-Serif" font-size="14.00">Update</text>
</a>
</g>
</g>
<g id="clust2" class="cluster">
<title>clusternode_Set(2)</title>
<g id="a_clust2"><a xlink:title="FirstFlush">
<path fill="#000000" fill-opacity="0.031373" stroke="#000000" stroke-width="2" stroke-opacity="0.250980" d="M81,-125C81,-125 133,-125 133,-125 139,-125 145,-131 145,-137 145,-137 145,-152 145,-152 145,-158 139,-164 133,-164 133,-164 81,-164 81,-164 75,-164 69,-158 69,-152 69,-152 69,-137 69,-137 69,-131 75,-125 81,-125"/>
<text text-anchor="middle" x="107" y="-148.8" font-family="Helvetica,sans-Serif" font-size="14.00">FirstFlush</text>
</a>
</g>
</g>
<g id="clust3" class="cluster">
<title>clusternode_Set(3)</title>
<g id="a_clust3"><a xlink:title="PreUpdateFlush">
<path fill="#000000" fill-opacity="0.031373" stroke="#000000" stroke-width="2" stroke-opacity="0.250980" d="M284,-102C284,-102 374,-102 374,-102 380,-102 386,-108 386,-114 386,-114 386,-129 386,-129 386,-135 380,-141 374,-141 374,-141 284,-141 284,-141 278,-141 272,-135 272,-129 272,-129 272,-114 272,-114 272,-108 278,-102 284,-102"/>
<text text-anchor="middle" x="329" y="-125.8" font-family="Helvetica,sans-Serif" font-size="14.00">PreUpdateFlush</text>
</a>
</g>
</g>
<g id="clust4" class="cluster">
<title>clusternode_Set(4)</title>
<g id="a_clust4"><a xlink:title="UpdateFlush">
<path fill="#000000" fill-opacity="0.031373" stroke="#000000" stroke-width="2" stroke-opacity="0.250980" d="M746,-102C746,-102 815,-102 815,-102 821,-102 827,-108 827,-114 827,-114 827,-129 827,-129 827,-135 821,-141 815,-141 815,-141 746,-141 746,-141 740,-141 734,-135 734,-129 734,-129 734,-114 734,-114 734,-108 740,-102 746,-102"/>
<text text-anchor="middle" x="780.5" y="-125.8" font-family="Helvetica,sans-Serif" font-size="14.00">UpdateFlush</text>
</a>
</g>
</g>
<g id="clust5" class="cluster">
<title>clusternode_Set(5)</title>
<g id="a_clust5"><a xlink:title="PostUpdateFlush">
<path fill="#000000" fill-opacity="0.031373" stroke="#000000" stroke-width="2" stroke-opacity="0.250980" d="M1238.5,-55C1238.5,-55 1334.5,-55 1334.5,-55 1340.5,-55 1346.5,-61 1346.5,-67 1346.5,-67 1346.5,-82 1346.5,-82 1346.5,-88 1340.5,-94 1334.5,-94 1334.5,-94 1238.5,-94 1238.5,-94 1232.5,-94 1226.5,-88 1226.5,-82 1226.5,-82 1226.5,-67 1226.5,-67 1226.5,-61 1232.5,-55 1238.5,-55"/>
<text text-anchor="middle" x="1286.5" y="-78.8" font-family="Helvetica,sans-Serif" font-size="14.00">PostUpdateFlush</text>
</a>
</g>
</g>
<g id="clust6" class="cluster">
<title>clusternode_Set(6)</title>
<g id="a_clust6"><a xlink:title="LastFlush">
<path fill="#000000" fill-opacity="0.031373" stroke="#000000" stroke-width="2" stroke-opacity="0.250980" d="M1597,-31C1597,-31 1649,-31 1649,-31 1655,-31 1661,-37 1661,-43 1661,-43 1661,-58 1661,-58 1661,-64 1655,-70 1649,-70 1649,-70 1597,-70 1597,-70 1591,-70 1585,-64 1585,-58 1585,-58 1585,-43 1585,-43 1585,-37 1591,-31 1597,-31"/>
<text text-anchor="middle" x="1623" y="-54.8" font-family="Helvetica,sans-Serif" font-size="14.00">LastFlush</text>
</a>
</g>
</g>
<g id="clust7" class="cluster">
<title>clusternode_Set(7)</title>
<g id="a_clust7"><a xlink:title="First">
<path fill="#000000" fill-opacity="0.031373" stroke="#000000" stroke-width="2" stroke-opacity="0.250980" d="M12,-101C12,-101 31,-101 31,-101 37,-101 43,-107 43,-113 43,-113 43,-128 43,-128 43,-134 37,-140 31,-140 31,-140 12,-140 12,-140 6,-140 0,-134 0,-128 0,-128 0,-113 0,-113 0,-107 6,-101 12,-101"/>
<text text-anchor="middle" x="21.5" y="-124.8" font-family="Helvetica,sans-Serif" font-size="14.00">First</text>
</a>
</g>
</g>
<g id="clust8" class="cluster">
<title>clusternode_Set(8)</title>
<g id="a_clust8"><a xlink:title="PreUpdate">
<path fill="#000000" fill-opacity="0.031373" stroke="#000000" stroke-width="2" stroke-opacity="0.250980" d="M183,-102C183,-102 240,-102 240,-102 246,-102 252,-108 252,-114 252,-114 252,-129 252,-129 252,-135 246,-141 240,-141 240,-141 183,-141 183,-141 177,-141 171,-135 171,-129 171,-129 171,-114 171,-114 171,-108 177,-102 183,-102"/>
<text text-anchor="middle" x="211.5" y="-125.8" font-family="Helvetica,sans-Serif" font-size="14.00">PreUpdate</text>
</a>
</g>
</g>
<g id="clust9" class="cluster">
<title>clusternode_Set(9)</title>
<g id="a_clust9"><a xlink:title="StateTransitions">
<path fill="#000000" fill-opacity="0.031373" stroke="#000000" stroke-width="2" stroke-opacity="0.250980" d="M418,-102C418,-102 509,-102 509,-102 515,-102 521,-108 521,-114 521,-114 521,-129 521,-129 521,-135 515,-141 509,-141 509,-141 418,-141 418,-141 412,-141 406,-135 406,-129 406,-129 406,-114 406,-114 406,-108 412,-102 418,-102"/>
<text text-anchor="middle" x="463.5" y="-125.8" font-family="Helvetica,sans-Serif" font-size="14.00">StateTransitions</text>
</a>
</g>
</g>
<g id="clust10" class="cluster">
<title>clusternode_Set(10)</title>
<g id="a_clust10"><a xlink:title="FixedUpdate">
<path fill="#000000" fill-opacity="0.031373" stroke="#000000" stroke-width="2" stroke-opacity="0.250980" d="M553,-102C553,-102 622,-102 622,-102 628,-102 634,-108 634,-114 634,-114 634,-129 634,-129 634,-135 628,-141 622,-141 622,-141 553,-141 553,-141 547,-141 541,-135 541,-129 541,-129 541,-114 541,-114 541,-108 547,-102 553,-102"/>
<text text-anchor="middle" x="587.5" y="-125.8" font-family="Helvetica,sans-Serif" font-size="14.00">FixedUpdate</text>
</a>
</g>
</g>
<g id="clust11" class="cluster">
<title>clusternode_Set(11)</title>
<g id="a_clust11"><a xlink:title="PostUpdate">
<path fill="#000000" fill-opacity="0.031373" stroke="#000000" stroke-width="2" stroke-opacity="0.250980" d="M851,-102C851,-102 1561,-102 1561,-102 1567,-102 1573,-108 1573,-114 1573,-114 1573,-554 1573,-554 1573,-560 1567,-566 1561,-566 1561,-566 851,-566 851,-566 845,-566 839,-560 839,-554 839,-554 839,-114 839,-114 839,-108 845,-102 851,-102"/>
<text text-anchor="middle" x="1206" y="-550.8" font-family="Helvetica,sans-Serif" font-size="14.00">PostUpdate</text>
</a>
</g>
</g>
<g id="clust12" class="cluster">
<title>clusternode_Set(20)</title>
<g id="a_clust12"><a xlink:title="TransformPropagate">
<path fill="#000000" fill-opacity="0.031373" stroke="#000000" stroke-width="2" stroke-opacity="0.250980" d="M931,-457C931,-457 1048,-457 1048,-457 1054,-457 1060,-463 1060,-469 1060,-469 1060,-484 1060,-484 1060,-490 1054,-496 1048,-496 1048,-496 931,-496 931,-496 925,-496 919,-490 919,-484 919,-484 919,-469 919,-469 919,-463 925,-457 931,-457"/>
<text text-anchor="middle" x="989.5" y="-480.8" font-family="Helvetica,sans-Serif" font-size="14.00">TransformPropagate</text>
</a>
</g>
</g>
<g id="clust13" class="cluster">
<title>clusternode_Set(82)</title>
<g id="a_clust13"><a xlink:title="CameraUpdateSystem">
<path fill="#000000" fill-opacity="0.031373" stroke="#000000" stroke-width="2" stroke-opacity="0.250980" d="M859,-269C859,-269 1119,-269 1119,-269 1125,-269 1131,-275 1131,-281 1131,-281 1131,-437 1131,-437 1131,-443 1125,-449 1119,-449 1119,-449 859,-449 859,-449 853,-449 847,-443 847,-437 847,-437 847,-281 847,-281 847,-275 853,-269 859,-269"/>
<text text-anchor="middle" x="989" y="-433.8" font-family="Helvetica,sans-Serif" font-size="14.00">CameraUpdateSystem</text>
</a>
</g>
</g>
<g id="clust14" class="cluster">
<title>clusternode_Set(86)</title>
<g id="a_clust14"><a xlink:title="CalculateBounds">
<path fill="#000000" fill-opacity="0.031373" stroke="#000000" stroke-width="2" stroke-opacity="0.250980" d="M932,-157C932,-157 1046,-157 1046,-157 1052,-157 1058,-163 1058,-169 1058,-169 1058,-231 1058,-231 1058,-237 1052,-243 1046,-243 1046,-243 932,-243 932,-243 926,-243 920,-237 920,-231 920,-231 920,-169 920,-169 920,-163 926,-157 932,-157"/>
<text text-anchor="middle" x="989" y="-227.8" font-family="Helvetica,sans-Serif" font-size="14.00">CalculateBounds</text>
</a>
</g>
</g>
<g id="clust15" class="cluster">
<title>clusternode_Set(87)</title>
<g id="a_clust15"><a xlink:title="CalculateBoundsFlush">
<path fill="#000000" fill-opacity="0.031373" stroke="#000000" stroke-width="2" stroke-opacity="0.250980" d="M1222.5,-204C1222.5,-204 1350.5,-204 1350.5,-204 1356.5,-204 1362.5,-210 1362.5,-216 1362.5,-216 1362.5,-231 1362.5,-231 1362.5,-237 1356.5,-243 1350.5,-243 1350.5,-243 1222.5,-243 1222.5,-243 1216.5,-243 1210.5,-237 1210.5,-231 1210.5,-231 1210.5,-216 1210.5,-216 1210.5,-210 1216.5,-204 1222.5,-204"/>
<text text-anchor="middle" x="1286.5" y="-227.8" font-family="Helvetica,sans-Serif" font-size="14.00">CalculateBoundsFlush</text>
</a>
</g>
</g>
<g id="clust16" class="cluster">
<title>clusternode_Set(88)</title>
<g id="a_clust16"><a xlink:title="UpdateOrthographicFrusta">
<path fill="#000000" fill-opacity="0.031373" stroke="#000000" stroke-width="2" stroke-opacity="0.250980" d="M1163,-251C1163,-251 1410,-251 1410,-251 1416,-251 1422,-257 1422,-263 1422,-263 1422,-325 1422,-325 1422,-331 1416,-337 1410,-337 1410,-337 1163,-337 1163,-337 1157,-337 1151,-331 1151,-325 1151,-325 1151,-263 1151,-263 1151,-257 1157,-251 1163,-251"/>
<text text-anchor="middle" x="1286.5" y="-321.8" font-family="Helvetica,sans-Serif" font-size="14.00">UpdateOrthographicFrusta</text>
</a>
</g>
</g>
<g id="clust17" class="cluster">
<title>clusternode_Set(89)</title>
<g id="a_clust17"><a xlink:title="UpdatePerspectiveFrusta">
<path fill="#000000" fill-opacity="0.031373" stroke="#000000" stroke-width="2" stroke-opacity="0.250980" d="M1167,-345C1167,-345 1406,-345 1406,-345 1412,-345 1418,-351 1418,-357 1418,-357 1418,-419 1418,-419 1418,-425 1412,-431 1406,-431 1406,-431 1167,-431 1167,-431 1161,-431 1155,-425 1155,-419 1155,-419 1155,-357 1155,-357 1155,-351 1161,-345 1167,-345"/>
<text text-anchor="middle" x="1286.5" y="-415.8" font-family="Helvetica,sans-Serif" font-size="14.00">UpdatePerspectiveFrusta</text>
</a>
</g>
</g>
<g id="clust18" class="cluster">
<title>clusternode_Set(90)</title>
<g id="a_clust18"><a xlink:title="UpdateProjectionFrusta">
<path fill="#000000" fill-opacity="0.031373" stroke="#000000" stroke-width="2" stroke-opacity="0.250980" d="M1202.5,-439C1202.5,-439 1370.5,-439 1370.5,-439 1376.5,-439 1382.5,-445 1382.5,-451 1382.5,-451 1382.5,-513 1382.5,-513 1382.5,-519 1376.5,-525 1370.5,-525 1370.5,-525 1202.5,-525 1202.5,-525 1196.5,-525 1190.5,-519 1190.5,-513 1190.5,-513 1190.5,-451 1190.5,-451 1190.5,-445 1196.5,-439 1202.5,-439"/>
<text text-anchor="middle" x="1286.5" y="-509.8" font-family="Helvetica,sans-Serif" font-size="14.00">UpdateProjectionFrusta</text>
</a>
</g>
</g>
<g id="clust19" class="cluster">
<title>clusternode_Set(91)</title>
<g id="a_clust19"><a xlink:title="CheckVisibility">
<path fill="#000000" fill-opacity="0.031373" stroke="#000000" stroke-width="2" stroke-opacity="0.250980" d="M1454,-327C1454,-327 1553,-327 1553,-327 1559,-327 1565,-333 1565,-339 1565,-339 1565,-401 1565,-401 1565,-407 1559,-413 1553,-413 1553,-413 1454,-413 1454,-413 1448,-413 1442,-407 1442,-401 1442,-401 1442,-339 1442,-339 1442,-333 1448,-327 1454,-327"/>
<text text-anchor="middle" x="1503.5" y="-397.8" font-family="Helvetica,sans-Serif" font-size="14.00">CheckVisibility</text>
</a>
</g>
</g>
<g id="clust20" class="cluster">
<title>clusternode_Set(92)</title>
<g id="a_clust20"><a xlink:title="VisibilityPropagate">
<path fill="#000000" fill-opacity="0.031373" stroke="#000000" stroke-width="2" stroke-opacity="0.250980" d="M1199.5,-110C1199.5,-110 1373.5,-110 1373.5,-110 1379.5,-110 1385.5,-116 1385.5,-122 1385.5,-122 1385.5,-184 1385.5,-184 1385.5,-190 1379.5,-196 1373.5,-196 1373.5,-196 1199.5,-196 1199.5,-196 1193.5,-196 1187.5,-190 1187.5,-184 1187.5,-184 1187.5,-122 1187.5,-122 1187.5,-116 1193.5,-110 1199.5,-110"/>
<text text-anchor="middle" x="1286.5" y="-180.8" font-family="Helvetica,sans-Serif" font-size="14.00">VisibilityPropagate</text>
</a>
</g>
</g>
<g id="clust21" class="cluster">
<title>clusternode_Set(12)</title>
<g id="a_clust21"><a xlink:title="Last">
<path fill="#000000" fill-opacity="0.031373" stroke="#000000" stroke-width="2" stroke-opacity="0.250980" d="M1494.5,-31C1494.5,-31 1513.5,-31 1513.5,-31 1519.5,-31 1525.5,-37 1525.5,-43 1525.5,-43 1525.5,-58 1525.5,-58 1525.5,-64 1519.5,-70 1513.5,-70 1513.5,-70 1494.5,-70 1494.5,-70 1488.5,-70 1482.5,-64 1482.5,-58 1482.5,-58 1482.5,-43 1482.5,-43 1482.5,-37 1488.5,-31 1494.5,-31"/>
<text text-anchor="middle" x="1504" y="-54.8" font-family="Helvetica,sans-Serif" font-size="14.00">Last</text>
</a>
</g>
</g>
<g id="clust22" class="cluster">
<title>clusternode_Set(59)</title>
<g id="a_clust22"><a xlink:title="LoadAssets">
<path fill="#000000" fill-opacity="0.031373" stroke="#000000" stroke-width="2" stroke-opacity="0.250980" d="M75,-78C75,-78 139,-78 139,-78 145,-78 151,-84 151,-90 151,-90 151,-105 151,-105 151,-111 145,-117 139,-117 139,-117 75,-117 75,-117 69,-117 63,-111 63,-105 63,-105 63,-90 63,-90 63,-84 69,-78 75,-78"/>
<text text-anchor="middle" x="107" y="-101.8" font-family="Helvetica,sans-Serif" font-size="14.00">LoadAssets</text>
</a>
</g>
</g>
<g id="clust23" class="cluster">
<title>clusternode_Set(60)</title>
<g id="a_clust23"><a xlink:title="AssetEvents">
<path fill="#000000" fill-opacity="0.031373" stroke="#000000" stroke-width="2" stroke-opacity="0.250980" d="M1252.5,-8C1252.5,-8 1320.5,-8 1320.5,-8 1326.5,-8 1332.5,-14 1332.5,-20 1332.5,-20 1332.5,-35 1332.5,-35 1332.5,-41 1326.5,-47 1320.5,-47 1320.5,-47 1252.5,-47 1252.5,-47 1246.5,-47 1240.5,-41 1240.5,-35 1240.5,-35 1240.5,-20 1240.5,-20 1240.5,-14 1246.5,-8 1252.5,-8"/>
<text text-anchor="middle" x="1286.5" y="-31.8" font-family="Helvetica,sans-Serif" font-size="14.00">AssetEvents</text>
</a>
</g>
</g>
<!-- set_marker_node_Set(0) -->
<!-- set_marker_node_Set(4) -->
<!-- set_marker_node_Set(0)&#45;&gt;set_marker_node_Set(4) -->
<g id="edge7" class="edge">
<title>set_marker_node_Set(0)&#45;&gt;set_marker_node_Set(4)</title>
<g id="a_edge7"><a xlink:title="Update → UpdateFlush">
<path fill="none" stroke="#ee9e44" stroke-width="2" d="M714,-110C716.33,-110 718.74,-110 721.18,-110"/>
<polygon fill="#ee9e44" stroke="#ee9e44" stroke-width="2" points="721,-113.5 731,-110 721,-106.5 721,-113.5"/>
</a>
</g>
</g>
<!-- set_marker_node_Set(2) -->
<!-- set_marker_node_Set(8) -->
<!-- set_marker_node_Set(2)&#45;&gt;set_marker_node_Set(8) -->
<g id="edge2" class="edge">
<title>set_marker_node_Set(2)&#45;&gt;set_marker_node_Set(8)</title>
<g id="a_edge2"><a xlink:title="FirstFlush → PreUpdate">
<path fill="none" stroke="#881877" stroke-width="2" d="M143.47,-125C148.38,-123.89 153.51,-122.74 158.64,-121.58"/>
<polygon fill="#881877" stroke="#881877" stroke-width="2" points="160.02,-124.41 169,-118.79 158.48,-117.58 160.02,-124.41"/>
</a>
</g>
</g>
<!-- set_marker_node_Set(3) -->
<!-- set_marker_node_Set(9) -->
<!-- set_marker_node_Set(3)&#45;&gt;set_marker_node_Set(9) -->
<g id="edge4" class="edge">
<title>set_marker_node_Set(3)&#45;&gt;set_marker_node_Set(9)</title>
<g id="a_edge4"><a xlink:title="PreUpdateFlush → StateTransitions">
<path fill="none" stroke="#aa3a55" stroke-width="2" d="M386,-110C388.39,-110 390.79,-110 393.21,-110"/>
<polygon fill="#aa3a55" stroke="#aa3a55" stroke-width="2" points="393,-113.5 403,-110 393,-106.5 393,-113.5"/>
</a>
</g>
</g>
<!-- set_marker_node_Set(11) -->
<!-- set_marker_node_Set(4)&#45;&gt;set_marker_node_Set(11) -->
<g id="edge8" class="edge">
<title>set_marker_node_Set(4)&#45;&gt;set_marker_node_Set(11)</title>
<g id="a_edge8"><a xlink:title="UpdateFlush → PostUpdate">
<path fill="none" stroke="#663699" stroke-width="2" d="M827,-110C830,-110 833,-110 836,-110"/>
<polygon fill="#663699" stroke="#663699" stroke-width="2" points="826,-113.5 836,-110 826,-106.5 826,-113.5"/>
</a>
</g>
</g>
<!-- set_marker_node_Set(5) -->
<!-- set_marker_node_Set(12) -->
<!-- set_marker_node_Set(5)&#45;&gt;set_marker_node_Set(12) -->
<g id="edge10" class="edge">
<title>set_marker_node_Set(5)&#45;&gt;set_marker_node_Set(12)</title>
<g id="a_edge10"><a xlink:title="PostUpdateFlush → Last">
<path fill="none" stroke="#22c2bb" stroke-width="2" d="M1346.5,-57.11C1370,-54.7 1397.29,-51.82 1422,-49 1437.8,-47.2 1455.33,-45.04 1469.98,-43.19"/>
<polygon fill="#22c2bb" stroke="#22c2bb" stroke-width="2" points="1470.02,-46.33 1479.5,-41.6 1469.14,-39.39 1470.02,-46.33"/>
</a>
</g>
</g>
<!-- set_marker_node_Set(6) -->
<!-- set_marker_node_Set(7) -->
<!-- set_marker_node_Set(7)&#45;&gt;set_marker_node_Set(2) -->
<g id="edge1" class="edge">
<title>set_marker_node_Set(7)&#45;&gt;set_marker_node_Set(2)</title>
<g id="a_edge1"><a xlink:title="First → FirstFlush">
<path fill="none" stroke="#eede00" stroke-width="2" d="M43,-115C49.88,-116.97 57.78,-119.22 65.61,-121.46"/>
<polygon fill="#eede00" stroke="#eede00" stroke-width="2" points="65.44,-125.62 76.01,-125 67.36,-118.89 65.44,-125.62"/>
</a>
</g>
</g>
<!-- set_marker_node_Set(59) -->
<!-- set_marker_node_Set(7)&#45;&gt;set_marker_node_Set(59) -->
<g id="edge13" class="edge">
<title>set_marker_node_Set(7)&#45;&gt;set_marker_node_Set(59)</title>
<g id="a_edge13"><a xlink:title="First → LoadAssets">
<path fill="none" stroke="#881877" stroke-width="2" d="M43,-103.25C45.41,-102.59 47.94,-101.9 50.55,-101.18"/>
<polygon fill="#881877" stroke="#881877" stroke-width="2" points="52.28,-103.79 61,-97.77 50.43,-97.04 52.28,-103.79"/>
</a>
</g>
</g>
<!-- set_marker_node_Set(8)&#45;&gt;set_marker_node_Set(3) -->
<g id="edge3" class="edge">
<title>set_marker_node_Set(8)&#45;&gt;set_marker_node_Set(3)</title>
<g id="a_edge3"><a xlink:title="PreUpdate → PreUpdateFlush">
<path fill="none" stroke="#00b0cc" stroke-width="2" d="M252,-110C254.38,-110 256.8,-110 259.25,-110"/>
<polygon fill="#00b0cc" stroke="#00b0cc" stroke-width="2" points="259,-113.5 269,-110 259,-106.5 259,-113.5"/>
</a>
</g>
</g>
<!-- set_marker_node_Set(10) -->
<!-- set_marker_node_Set(9)&#45;&gt;set_marker_node_Set(10) -->
<g id="edge5" class="edge">
<title>set_marker_node_Set(9)&#45;&gt;set_marker_node_Set(10)</title>
<g id="a_edge5"><a xlink:title="StateTransitions → FixedUpdate">
<path fill="none" stroke="#44d488" stroke-width="2" d="M521,-110C523.35,-110 525.71,-110 528.07,-110"/>
<polygon fill="#44d488" stroke="#44d488" stroke-width="2" points="528,-113.5 538,-110 528,-106.5 528,-113.5"/>
</a>
</g>
</g>
<!-- set_marker_node_Set(10)&#45;&gt;set_marker_node_Set(0) -->
<g id="edge6" class="edge">
<title>set_marker_node_Set(10)&#45;&gt;set_marker_node_Set(0)</title>
<g id="a_edge6"><a xlink:title="FixedUpdate → Update">
<path fill="none" stroke="#0090cc" stroke-width="2" d="M634,-110C636.35,-110 638.7,-110 641.03,-110"/>
<polygon fill="#0090cc" stroke="#0090cc" stroke-width="2" points="641,-113.5 651,-110 641,-106.5 641,-113.5"/>
</a>
</g>
</g>
<!-- set_marker_node_Set(11)&#45;&gt;set_marker_node_Set(5) -->
<g id="edge9" class="edge">
<title>set_marker_node_Set(11)&#45;&gt;set_marker_node_Set(5)</title>
<g id="a_edge9"><a xlink:title="PostUpdate → PostUpdateFlush">
<path fill="none" stroke="#3363bb" stroke-width="2" d="M1040.29,-102C1087.99,-94.41 1160.15,-82.94 1213.85,-74.4"/>
<polygon fill="#3363bb" stroke="#3363bb" stroke-width="2" points="1215.18,-77.41 1224.5,-72.38 1214.08,-70.5 1215.18,-77.41"/>
</a>
</g>
</g>
<!-- set_marker_node_Set(60) -->
<!-- set_marker_node_Set(11)&#45;&gt;set_marker_node_Set(60) -->
<g id="edge14" class="edge">
<title>set_marker_node_Set(11)&#45;&gt;set_marker_node_Set(60)</title>
<g id="a_edge14"><a xlink:title="PostUpdate → AssetEvents">
<path fill="none" stroke="#00b0cc" stroke-width="2" d="M1011.05,-102C1041.64,-90.5 1100.28,-68.93 1151,-53 1176.09,-45.12 1204.1,-37.27 1228.03,-30.83"/>
<polygon fill="#00b0cc" stroke="#00b0cc" stroke-width="2" points="1229.74,-33.47 1238.5,-27.51 1227.94,-26.71 1229.74,-33.47"/>
</a>
</g>
</g>
<!-- set_marker_node_Set(20) -->
<!-- node_System(73) -->
<g id="node21" class="node">
<title>node_System(73)</title>
<g id="a_node21"><a xlink:title="bevy_render::view::visibility::update_frusta&lt;bevy_render::camera::projection::OrthographicProjection&gt;">
<polygon fill="#70b9fc" stroke="#0c88f9" points="1414,-295 1159,-295 1159,-259 1414,-259 1414,-295"/>
<text text-anchor="middle" x="1286.5" y="-273.3" font-family="Helvetica,sans-Serif" font-size="14.00" fill="#011a31">update_frusta&lt;OrthographicProjection&gt;</text>
</a>
</g>
</g>
<!-- set_marker_node_Set(20)&#45;&gt;node_System(73) -->
<g id="edge18" class="edge">
<title>set_marker_node_Set(20)&#45;&gt;node_System(73)</title>
<g id="a_edge18"><a xlink:title="TransformPropagate → update_frusta&lt;OrthographicProjection&gt;">
<path fill="none" stroke="#ee9e44" stroke-width="2" d="M1060,-474.87C1085.43,-474.52 1112.45,-468.94 1131,-451 1176.52,-406.99 1112.85,-355.97 1150.36,-303.88"/>
<polygon fill="#ee9e44" stroke="#ee9e44" stroke-width="2" points="1153.81,-306.04 1157.59,-296.14 1148.47,-301.52 1153.81,-306.04"/>
</a>
</g>
</g>
<!-- node_System(74) -->
<g id="node23" class="node">
<title>node_System(74)</title>
<g id="a_node23"><a xlink:title="bevy_render::view::visibility::update_frusta&lt;bevy_render::camera::projection::PerspectiveProjection&gt;">
<polygon fill="#70b9fc" stroke="#0c88f9" points="1410,-389 1163,-389 1163,-353 1410,-353 1410,-389"/>
<text text-anchor="middle" x="1286.5" y="-367.3" font-family="Helvetica,sans-Serif" font-size="14.00" fill="#011a31">update_frusta&lt;PerspectiveProjection&gt;</text>
</a>
</g>
</g>
<!-- set_marker_node_Set(20)&#45;&gt;node_System(74) -->
<g id="edge20" class="edge">
<title>set_marker_node_Set(20)&#45;&gt;node_System(74)</title>
<g id="a_edge20"><a xlink:title="TransformPropagate → update_frusta&lt;PerspectiveProjection&gt;">
<path fill="none" stroke="#3363bb" stroke-width="2" d="M1060,-472.68C1084.67,-471.84 1111.17,-466.5 1131,-451 1151.82,-434.73 1130.82,-412.07 1151,-395 1151.34,-394.71 1151.68,-394.43 1152.03,-394.15"/>
<polygon fill="#3363bb" stroke="#3363bb" stroke-width="2" points="1154.38,-396.37 1160.57,-387.77 1150.37,-390.64 1154.38,-396.37"/>
</a>
</g>
</g>
<!-- node_System(75) -->
<g id="node25" class="node">
<title>node_System(75)</title>
<g id="a_node25"><a xlink:title="bevy_render::view::visibility::update_frusta&lt;bevy_render::camera::projection::Projection&gt;">
<polygon fill="#70b9fc" stroke="#0c88f9" points="1374.5,-483 1198.5,-483 1198.5,-447 1374.5,-447 1374.5,-483"/>
<text text-anchor="middle" x="1286.5" y="-461.3" font-family="Helvetica,sans-Serif" font-size="14.00" fill="#011a31">update_frusta&lt;Projection&gt;</text>
</a>
</g>
</g>
<!-- set_marker_node_Set(20)&#45;&gt;node_System(75) -->
<g id="edge22" class="edge">
<title>set_marker_node_Set(20)&#45;&gt;node_System(75)</title>
<g id="a_edge22"><a xlink:title="TransformPropagate → update_frusta&lt;Projection&gt;">
<path fill="none" stroke="#99d955" stroke-width="2" d="M1060,-465C1097.37,-465 1144.02,-465 1185.18,-465"/>
<polygon fill="#99d955" stroke="#99d955" stroke-width="2" points="1185,-468.5 1195,-465 1185,-461.5 1185,-468.5"/>
</a>
</g>
</g>
<!-- node_System(77) -->
<g id="node27" class="node">
<title>node_System(77)</title>
<g id="a_node27"><a xlink:title="bevy_render::view::visibility::check_visibility">
<polygon fill="#70b9fc" stroke="#0c88f9" points="1557,-371 1450,-371 1450,-335 1557,-335 1557,-371"/>
<text text-anchor="middle" x="1503.5" y="-349.3" font-family="Helvetica,sans-Serif" font-size="14.00" fill="#011a31">check_visibility</text>
</a>
</g>
</g>
<!-- set_marker_node_Set(20)&#45;&gt;node_System(77) -->
<g id="edge28" class="edge">
<title>set_marker_node_Set(20)&#45;&gt;node_System(77)</title>
<g id="a_edge28"><a xlink:title="TransformPropagate → check_visibility">
<path fill="none" stroke="#0090cc" stroke-width="2" d="M1043.19,-496C1132.93,-543.77 1315.08,-620.61 1422,-527 1469.64,-485.29 1408.63,-436.16 1442.28,-379.99"/>
<polygon fill="#0090cc" stroke="#0090cc" stroke-width="2" points="1445.82,-381.62 1448.71,-371.42 1440.1,-377.59 1445.82,-381.62"/>
</a>
</g>
</g>
<!-- set_marker_node_Set(82) -->
<!-- node_System(68) -->
<g id="node14" class="node">
<title>node_System(68)</title>
<g id="a_node14"><a xlink:title="bevy_render::camera::camera::camera_system&lt;bevy_render::camera::projection::Projection&gt;">
<polygon fill="#70b9fc" stroke="#0c88f9" points="1083.5,-407 894.5,-407 894.5,-371 1083.5,-371 1083.5,-407"/>
<text text-anchor="middle" x="989" y="-385.3" font-family="Helvetica,sans-Serif" font-size="14.00" fill="#011a31">camera_system&lt;Projection&gt;</text>
</a>
</g>
</g>
<!-- node_System(68)&#45;&gt;node_System(75) -->
<g id="edge21" class="edge">
<title>node_System(68)&#45;&gt;node_System(75)</title>
<g id="a_edge21"><a xlink:title="SystemTypeSet(camera_system&lt;Projection&gt;&quot;) → update_frusta&lt;Projection&gt;">
<path fill="none" stroke="#22c2bb" stroke-width="2" d="M1083.66,-396.6C1100.02,-400.24 1116.44,-405.48 1131,-413 1142.17,-418.77 1140.03,-426.87 1151,-433 1161.84,-439.06 1173.8,-443.97 1185.97,-447.96"/>
<polygon fill="#22c2bb" stroke="#22c2bb" stroke-width="2" points="1185.61,-452.11 1196.19,-451.65 1187.63,-445.41 1185.61,-452.11"/>
</a>
</g>
</g>
<!-- node_System(69) -->
<g id="node15" class="node">
<title>node_System(69)</title>
<g id="a_node15"><a xlink:title="bevy_render::camera::camera::camera_system&lt;bevy_render::camera::projection::OrthographicProjection&gt;">
<polygon fill="#70b9fc" stroke="#0c88f9" points="1123,-313 855,-313 855,-277 1123,-277 1123,-313"/>
<text text-anchor="middle" x="989" y="-291.3" font-family="Helvetica,sans-Serif" font-size="14.00" fill="#011a31">camera_system&lt;OrthographicProjection&gt;</text>
</a>
</g>
</g>
<!-- node_System(69)&#45;&gt;node_System(73) -->
<g id="edge17" class="edge">
<title>node_System(69)&#45;&gt;node_System(73)</title>
<g id="a_edge17"><a xlink:title="SystemTypeSet(camera_system&lt;OrthographicProjection&gt;&quot;) → update_frusta&lt;OrthographicProjection&gt;">
<path fill="none" stroke="#0090cc" stroke-width="2" d="M1123.49,-286.87C1130.94,-286.41 1138.44,-285.96 1145.91,-285.5"/>
<polygon fill="#0090cc" stroke="#0090cc" stroke-width="2" points="1146.11,-288.81 1155.88,-284.71 1145.69,-281.83 1146.11,-288.81"/>
</a>
</g>
</g>
<!-- node_System(70) -->
<g id="node16" class="node">
<title>node_System(70)</title>
<g id="a_node16"><a xlink:title="bevy_render::camera::camera::camera_system&lt;bevy_render::camera::projection::PerspectiveProjection&gt;">
<polygon fill="#70b9fc" stroke="#0c88f9" points="1119,-360 859,-360 859,-324 1119,-324 1119,-360"/>
<text text-anchor="middle" x="989" y="-338.3" font-family="Helvetica,sans-Serif" font-size="14.00" fill="#011a31">camera_system&lt;PerspectiveProjection&gt;</text>
</a>
</g>
</g>
<!-- node_System(70)&#45;&gt;node_System(74) -->
<g id="edge19" class="edge">
<title>node_System(70)&#45;&gt;node_System(74)</title>
<g id="a_edge19"><a xlink:title="SystemTypeSet(camera_system&lt;PerspectiveProjection&gt;&quot;) → update_frusta&lt;PerspectiveProjection&gt;">
<path fill="none" stroke="#663699" stroke-width="2" d="M1119.18,-354.68C1129.34,-355.67 1139.61,-356.68 1149.81,-357.68"/>
<polygon fill="#663699" stroke="#663699" stroke-width="2" points="1149.37,-361.45 1159.67,-358.95 1150.06,-354.49 1149.37,-361.45"/>
</a>
</g>
</g>
<!-- set_marker_node_Set(86) -->
<!-- set_marker_node_Set(87) -->
<!-- set_marker_node_Set(86)&#45;&gt;set_marker_node_Set(87) -->
<g id="edge16" class="edge">
<title>set_marker_node_Set(86)&#45;&gt;set_marker_node_Set(87)</title>
<g id="a_edge16"><a xlink:title="CalculateBounds → CalculateBoundsFlush">
<path fill="none" stroke="#44d488" stroke-width="2" d="M1058,-212C1099.45,-212 1152.87,-212 1197.53,-212"/>
<polygon fill="#44d488" stroke="#44d488" stroke-width="2" points="1197.5,-215.5 1207.5,-212 1197.5,-208.5 1197.5,-215.5"/>
</a>
</g>
</g>
<!-- node_System(72) -->
<g id="node18" class="node">
<title>node_System(72)</title>
<g id="a_node18"><a xlink:title="bevy_render::view::visibility::calculate_bounds">
<polygon fill="#70b9fc" stroke="#0c88f9" points="1050,-201 928,-201 928,-165 1050,-165 1050,-201"/>
<text text-anchor="middle" x="989" y="-179.3" font-family="Helvetica,sans-Serif" font-size="14.00" fill="#011a31">calculate_bounds</text>
</a>
</g>
</g>
<!-- set_marker_node_Set(87)&#45;&gt;node_System(77) -->
<g id="edge23" class="edge">
<title>set_marker_node_Set(87)&#45;&gt;node_System(77)</title>
<g id="a_edge23"><a xlink:title="CalculateBoundsFlush → check_visibility">
<path fill="none" stroke="#eede00" stroke-width="2" d="M1362.5,-223.6C1382.96,-229.09 1404.33,-237.16 1422,-249 1450.24,-267.92 1472.85,-300 1486.84,-323.54"/>
<polygon fill="#eede00" stroke="#eede00" stroke-width="2" points="1484.17,-325.68 1492.17,-332.63 1490.25,-322.21 1484.17,-325.68"/>
</a>
</g>
</g>
<!-- set_marker_node_Set(88) -->
<!-- set_marker_node_Set(88)&#45;&gt;node_System(77) -->
<g id="edge24" class="edge">
<title>set_marker_node_Set(88)&#45;&gt;node_System(77)</title>
<g id="a_edge24"><a xlink:title="UpdateOrthographicFrusta → check_visibility">
<path fill="none" stroke="#881877" stroke-width="2" d="M1422,-335.4C1427.21,-336.54 1432.32,-337.66 1437.29,-338.75"/>
<polygon fill="#881877" stroke="#881877" stroke-width="2" points="1437.18,-342.74 1447.7,-341.46 1438.68,-335.9 1437.18,-342.74"/>
</a>
</g>
</g>
<!-- set_marker_node_Set(89) -->
<!-- set_marker_node_Set(89)&#45;&gt;node_System(77) -->
<g id="edge25" class="edge">
<title>set_marker_node_Set(89)&#45;&gt;node_System(77)</title>
<g id="a_edge25"><a xlink:title="UpdatePerspectiveFrusta → check_visibility">
<path fill="none" stroke="#00b0cc" stroke-width="2" d="M1418,-396.54C1419.35,-396.05 1420.68,-395.54 1422,-395 1430.66,-391.49 1431.79,-386.33 1441.47,-378.57"/>
<polygon fill="#00b0cc" stroke="#00b0cc" stroke-width="2" points="1443.67,-380.95 1449.97,-372.43 1439.73,-375.16 1443.67,-380.95"/>
</a>
</g>
</g>
<!-- set_marker_node_Set(90) -->
<!-- set_marker_node_Set(90)&#45;&gt;node_System(77) -->
<g id="edge26" class="edge">
<title>set_marker_node_Set(90)&#45;&gt;node_System(77)</title>
<g id="a_edge26"><a xlink:title="UpdateProjectionFrusta → check_visibility">
<path fill="none" stroke="#aa3a55" stroke-width="2" d="M1382.5,-506.25C1397.02,-503.9 1410.86,-498.69 1422,-489 1457.25,-458.35 1417.14,-422.17 1442.02,-380.23"/>
<polygon fill="#aa3a55" stroke="#aa3a55" stroke-width="2" points="1445.58,-381.9 1448.58,-371.74 1439.9,-377.81 1445.58,-381.9"/>
</a>
</g>
</g>
<!-- set_marker_node_Set(91) -->
<!-- set_marker_node_Set(92) -->
<!-- set_marker_node_Set(92)&#45;&gt;node_System(77) -->
<g id="edge27" class="edge">
<title>set_marker_node_Set(92)&#45;&gt;node_System(77)</title>
<g id="a_edge27"><a xlink:title="VisibilityPropagate → check_visibility">
<path fill="none" stroke="#44d488" stroke-width="2" d="M1385.5,-181.71C1398.62,-186.78 1411.24,-193.39 1422,-202 1460.88,-233.1 1483.35,-288.2 1494.24,-322.54"/>
<polygon fill="#44d488" stroke="#44d488" stroke-width="2" points="1491.63,-324.02 1497.85,-332.59 1498.33,-322.01 1491.63,-324.02"/>
</a>
</g>
</g>
<!-- node_System(76) -->
<g id="node29" class="node">
<title>node_System(76)</title>
<g id="a_node29"><a xlink:title="bevy_render::view::visibility::visibility_propagate_system">
<polygon fill="#70b9fc" stroke="#0c88f9" points="1377.5,-154 1195.5,-154 1195.5,-118 1377.5,-118 1377.5,-154"/>
<text text-anchor="middle" x="1286.5" y="-132.3" font-family="Helvetica,sans-Serif" font-size="14.00" fill="#011a31">visibility_propagate_system</text>
</a>
</g>
</g>
<!-- set_marker_node_Set(12)&#45;&gt;set_marker_node_Set(6) -->
<g id="edge11" class="edge">
<title>set_marker_node_Set(12)&#45;&gt;set_marker_node_Set(6)</title>
<g id="a_edge11"><a xlink:title="Last → LastFlush">
<path fill="none" stroke="#99d955" stroke-width="2" d="M1525.5,-39C1538.58,-39 1555.98,-39 1572.41,-39"/>
<polygon fill="#99d955" stroke="#99d955" stroke-width="2" points="1572,-42.5 1582,-39 1572,-35.5 1572,-42.5"/>
</a>
</g>
</g>
<!-- set_marker_node_Set(59)&#45;&gt;set_marker_node_Set(8) -->
<g id="edge12" class="edge">
<title>set_marker_node_Set(59)&#45;&gt;set_marker_node_Set(8)</title>
<g id="a_edge12"><a xlink:title="LoadAssets → PreUpdate">
<path fill="none" stroke="#eede00" stroke-width="2" d="M151,-96.12C155.12,-97.09 159.3,-98.07 163.45,-99.05"/>
<polygon fill="#eede00" stroke="#eede00" stroke-width="2" points="163.48,-103.12 174.02,-102 165.08,-96.31 163.48,-103.12"/>
</a>
</g>
</g>
<!-- set_marker_node_Set(60)&#45;&gt;set_marker_node_Set(12) -->
<g id="edge15" class="edge">
<title>set_marker_node_Set(60)&#45;&gt;set_marker_node_Set(12)</title>
<g id="a_edge15"><a xlink:title="AssetEvents → Last">
<path fill="none" stroke="#aa3a55" stroke-width="2" d="M1332.5,-20.81C1373.57,-25.21 1433.28,-31.59 1469.91,-35.51"/>
<polygon fill="#aa3a55" stroke="#aa3a55" stroke-width="2" points="1469.19,-39.28 1479.5,-36.86 1469.93,-32.32 1469.19,-39.28"/>
</a>
</g>
</g>
</g>
</svg>
