<?xml version="1.0" encoding="UTF-8" standalone="no"?>
<!DOCTYPE svg PUBLIC "-//W3C//DTD SVG 1.1//EN"
 "http://www.w3.org/Graphics/SVG/1.1/DTD/svg11.dtd">
<!-- Generated by graphviz version 7.0.6 (0)
 -->
<!-- Title: schedule Pages: 1 -->
<svg width="3836pt" height="1664pt"
 viewBox="0.00 0.00 3836.00 1664.00" xmlns="http://www.w3.org/2000/svg" xmlns:xlink="http://www.w3.org/1999/xlink">
<g id="graph0" class="graph" transform="scale(1 1) rotate(0) translate(4 1660)">
<title>schedule</title>
<polygon fill="#0d1117" stroke="none" points="-4,4 -4,-1660 3832,-1660 3832,4 -4,4"/>
<g id="clust1" class="cluster">
<title>clusternode_Set(1)</title>
<polygon fill="#6f90ad" stroke="black" points="704.5,-853 704.5,-1000 908.5,-1000 908.5,-853 704.5,-853"/>
<text text-anchor="middle" x="806.5" y="-984.8" font-family="Helvetica,sans-Serif" font-size="14.00">ExtractCommands</text>
</g>
<g id="clust2" class="cluster">
<title>clusternode_Set(2)</title>
<polygon fill="#6f90ad" stroke="black" points="1428,-757 1428,-850 1605,-850 1605,-757 1428,-757"/>
<text text-anchor="middle" x="1516.5" y="-834.8" font-family="Helvetica,sans-Serif" font-size="14.00">PrepareFlush</text>
</g>
<g id="clust3" class="cluster">
<title>clusternode_Set(3)</title>
<polygon fill="#6f90ad" stroke="black" points="2094,-757 2094,-850 2271,-850 2271,-757 2094,-757"/>
<text text-anchor="middle" x="2182.5" y="-834.8" font-family="Helvetica,sans-Serif" font-size="14.00">QueueFlush</text>
</g>
<g id="clust4" class="cluster">
<title>clusternode_Set(4)</title>
<polygon fill="#6f90ad" stroke="black" points="2678.5,-332 2678.5,-425 2855.5,-425 2855.5,-332 2678.5,-332"/>
<text text-anchor="middle" x="2767" y="-409.8" font-family="Helvetica,sans-Serif" font-size="14.00">PhaseSortFlush</text>
</g>
<g id="clust5" class="cluster">
<title>clusternode_Set(5)</title>
<polygon fill="#6f90ad" stroke="black" points="3192,-285 3192,-378 3369,-378 3369,-285 3192,-285"/>
<text text-anchor="middle" x="3280.5" y="-362.8" font-family="Helvetica,sans-Serif" font-size="14.00">RenderFlush</text>
</g>
<g id="clust6" class="cluster">
<title>clusternode_Set(6)</title>
<polygon fill="#6f90ad" stroke="black" points="3643,-285 3643,-378 3820,-378 3820,-285 3643,-285"/>
<text text-anchor="middle" x="3731.5" y="-362.8" font-family="Helvetica,sans-Serif" font-size="14.00">CleanupFlush</text>
</g>
<g id="clust7" class="cluster">
<title>clusternode_Set(7)</title>
<polygon fill="#6f90ad" stroke="black" points="987,-757 987,-1601 1348,-1601 1348,-757 987,-757"/>
<text text-anchor="middle" x="1167.5" y="-1585.8" font-family="Helvetica,sans-Serif" font-size="14.00">Prepare</text>
</g>
<g id="clust8" class="cluster">
<title>clusternode_Set(60)</title>
<polygon fill="#6f90ad" stroke="black" points="1110.5,-1477 1110.5,-1570 1224.5,-1570 1224.5,-1477 1110.5,-1477"/>
<text text-anchor="middle" x="1167.5" y="-1554.8" font-family="Helvetica,sans-Serif" font-size="14.00">PrepareFog</text>
</g>
<g id="clust9" class="cluster">
<title>clusternode_Set(8)</title>
<polygon fill="#6f90ad" stroke="black" points="1685,-55 1685,-850 2074,-850 2074,-55 1685,-55"/>
<text text-anchor="middle" x="1879.5" y="-834.8" font-family="Helvetica,sans-Serif" font-size="14.00">Queue</text>
</g>
<g id="clust10" class="cluster">
<title>clusternode_Set(9)</title>
<polygon fill="#6f90ad" stroke="black" points="2291,-433 2291,-904 2908,-904 2908,-433 2291,-433"/>
<text text-anchor="middle" x="2599.5" y="-888.8" font-family="Helvetica,sans-Serif" font-size="14.00">PhaseSort</text>
</g>
<g id="clust11" class="cluster">
<title>clusternode_Set(10)</title>
<polygon fill="#6f90ad" stroke="black" points="2928,-386 2928,-479 3346.5,-479 3346.5,-386 2928,-386"/>
<text text-anchor="middle" x="3137.25" y="-463.8" font-family="Helvetica,sans-Serif" font-size="14.00">Render</text>
</g>
<g id="clust12" class="cluster">
<title>clusternode_Set(11)</title>
<polygon fill="#6f90ad" stroke="black" points="3389,-231 3389,-378 3623,-378 3623,-231 3389,-231"/>
<text text-anchor="middle" x="3506" y="-362.8" font-family="Helvetica,sans-Serif" font-size="14.00">Cleanup</text>
</g>
<g id="clust13" class="cluster">
<title>clusternode_Set(17)</title>
<polygon fill="#6f90ad" stroke="black" points="772.5,-1009 772.5,-1048 840.5,-1048 840.5,-1009 772.5,-1009"/>
<text text-anchor="middle" x="806.5" y="-1032.8" font-family="Helvetica,sans-Serif" font-size="14.00">Prepare</text>
</g>
<g id="clust14" class="cluster">
<title>clusternode_Set(19)</title>
<polygon fill="#6f90ad" stroke="black" points="1452.5,-644 1452.5,-683 1581.5,-683 1581.5,-644 1452.5,-644"/>
<text text-anchor="middle" x="1517" y="-667.8" font-family="Helvetica,sans-Serif" font-size="14.00">PrepareUniforms</text>
</g>
<g id="clust15" class="cluster">
<title>clusternode_Set(22)</title>
<polygon fill="#6f90ad" stroke="black" points="1115.5,-1609 1115.5,-1648 1219.5,-1648 1219.5,-1609 1115.5,-1609"/>
<text text-anchor="middle" x="1167.5" y="-1632.8" font-family="Helvetica,sans-Serif" font-size="14.00">AssetPrepare</text>
</g>
<g id="clust16" class="cluster">
<title>clusternode_Set(23)</title>
<polygon fill="#6f90ad" stroke="black" points="414.5,-1406 414.5,-1445 539.5,-1445 539.5,-1406 414.5,-1406"/>
<text text-anchor="middle" x="477" y="-1429.8" font-family="Helvetica,sans-Serif" font-size="14.00">PreAssetPrepare</text>
</g>
<g id="clust17" class="cluster">
<title>clusternode_Set(62)</title>
<polygon fill="#6f90ad" stroke="black" points="752.5,-626 752.5,-665 860.5,-665 860.5,-626 752.5,-626"/>
<text text-anchor="middle" x="806.5" y="-649.8" font-family="Helvetica,sans-Serif" font-size="14.00">PrepareLights</text>
</g>
<g id="clust18" class="cluster">
<title>clusternode_Set(64)</title>
<polygon fill="#6f90ad" stroke="black" points="1106.5,-680 1106.5,-719 1228.5,-719 1228.5,-680 1106.5,-680"/>
<text text-anchor="middle" x="1167.5" y="-703.8" font-family="Helvetica,sans-Serif" font-size="14.00">PrepareClusters</text>
</g>
<g id="clust19" class="cluster">
<title>clusternode_Set(66)</title>
<polygon fill="#6f90ad" stroke="black" points="1819.5,-8 1819.5,-47 1940.5,-47 1940.5,-8 1819.5,-8"/>
<text text-anchor="middle" x="1880" y="-31.8" font-family="Helvetica,sans-Serif" font-size="14.00">QueueShadows</text>
</g>
<!-- set_marker_node_Set(1) -->
<!-- set_marker_node_Set(7) -->
<!-- set_marker_node_Set(1)&#45;&gt;set_marker_node_Set(7) -->
<g id="edge15" class="edge">
<title>set_marker_node_Set(1)&#45;&gt;set_marker_node_Set(7)</title>
<path fill="none" stroke="white" d="M908.5,-980.78C926.99,-978.28 944.87,-972.16 959,-960 1001.44,-923.48 949.26,-874.01 979.28,-835.94"/>
<polygon fill="white" stroke="white" points="981.49,-838.7 985.95,-829.09 976.47,-833.82 981.49,-838.7"/>
</g>
<!-- node_System(0) -->
<g id="node2" class="node">
<title>node_System(0)</title>
<polygon fill="#eff1f3" stroke="#eff1f3" points="887,-951 726,-951 726,-915 887,-915 887,-951"/>
<text text-anchor="middle" x="806.5" y="-929.3" font-family="Times,serif" font-size="14.00">apply_system_buffers</text>
</g>
<!-- node_System(6) -->
<g id="node3" class="node">
<title>node_System(6)</title>
<polygon fill="#eff1f3" stroke="#eff1f3" points="900.5,-897 712.5,-897 712.5,-861 900.5,-861 900.5,-897"/>
<text text-anchor="middle" x="806.5" y="-875.3" font-family="Times,serif" font-size="14.00">apply_extract_commands</text>
</g>
<!-- set_marker_node_Set(2) -->
<!-- set_marker_node_Set(8) -->
<!-- set_marker_node_Set(2)&#45;&gt;set_marker_node_Set(8) -->
<g id="edge17" class="edge">
<title>set_marker_node_Set(2)&#45;&gt;set_marker_node_Set(8)</title>
<path fill="none" stroke="white" d="M1605,-819C1626.13,-819 1649.61,-819 1673.67,-819"/>
<polygon fill="white" stroke="white" points="1673.49,-822.5 1683.49,-819 1673.49,-815.5 1673.49,-822.5"/>
</g>
<!-- node_System(1) -->
<g id="node5" class="node">
<title>node_System(1)</title>
<polygon fill="#eff1f3" stroke="#eff1f3" points="1597,-801 1436,-801 1436,-765 1597,-765 1597,-801"/>
<text text-anchor="middle" x="1516.5" y="-779.3" font-family="Times,serif" font-size="14.00">apply_system_buffers</text>
</g>
<!-- set_marker_node_Set(3) -->
<!-- set_marker_node_Set(9) -->
<!-- set_marker_node_Set(3)&#45;&gt;set_marker_node_Set(9) -->
<g id="edge19" class="edge">
<title>set_marker_node_Set(3)&#45;&gt;set_marker_node_Set(9)</title>
<path fill="none" stroke="white" d="M2271,-819C2273.85,-819 2276.73,-819 2279.64,-819"/>
<polygon fill="white" stroke="white" points="2279.49,-822.5 2289.49,-819 2279.49,-815.5 2279.49,-822.5"/>
</g>
<!-- node_System(2) -->
<g id="node7" class="node">
<title>node_System(2)</title>
<polygon fill="#eff1f3" stroke="#eff1f3" points="2263,-801 2102,-801 2102,-765 2263,-765 2263,-801"/>
<text text-anchor="middle" x="2182.5" y="-779.3" font-family="Times,serif" font-size="14.00">apply_system_buffers</text>
</g>
<!-- set_marker_node_Set(4) -->
<!-- set_marker_node_Set(10) -->
<!-- set_marker_node_Set(4)&#45;&gt;set_marker_node_Set(10) -->
<g id="edge21" class="edge">
<title>set_marker_node_Set(4)&#45;&gt;set_marker_node_Set(10)</title>
<path fill="none" stroke="white" d="M2855.5,-394C2874.87,-394 2895.81,-394 2916.53,-394"/>
<polygon fill="white" stroke="white" points="2916.49,-397.5 2926.49,-394 2916.49,-390.5 2916.49,-397.5"/>
</g>
<!-- node_System(3) -->
<g id="node9" class="node">
<title>node_System(3)</title>
<polygon fill="#eff1f3" stroke="#eff1f3" points="2847.5,-376 2686.5,-376 2686.5,-340 2847.5,-340 2847.5,-376"/>
<text text-anchor="middle" x="2767" y="-354.3" font-family="Times,serif" font-size="14.00">apply_system_buffers</text>
</g>
<!-- set_marker_node_Set(5) -->
<!-- set_marker_node_Set(11) -->
<!-- set_marker_node_Set(5)&#45;&gt;set_marker_node_Set(11) -->
<g id="edge23" class="edge">
<title>set_marker_node_Set(5)&#45;&gt;set_marker_node_Set(11)</title>
<path fill="none" stroke="white" d="M3369,-347C3371.85,-347 3374.73,-347 3377.62,-347"/>
<polygon fill="white" stroke="white" points="3377.49,-350.5 3387.49,-347 3377.49,-343.5 3377.49,-350.5"/>
</g>
<!-- node_System(4) -->
<g id="node11" class="node">
<title>node_System(4)</title>
<polygon fill="#eff1f3" stroke="#eff1f3" points="3361,-329 3200,-329 3200,-293 3361,-293 3361,-329"/>
<text text-anchor="middle" x="3280.5" y="-307.3" font-family="Times,serif" font-size="14.00">apply_system_buffers</text>
</g>
<!-- set_marker_node_Set(6) -->
<!-- node_System(5) -->
<g id="node13" class="node">
<title>node_System(5)</title>
<polygon fill="#eff1f3" stroke="#eff1f3" points="3812,-329 3651,-329 3651,-293 3812,-293 3812,-329"/>
<text text-anchor="middle" x="3731.5" y="-307.3" font-family="Times,serif" font-size="14.00">apply_system_buffers</text>
</g>
<!-- set_marker_node_Set(7)&#45;&gt;set_marker_node_Set(2) -->
<g id="edge16" class="edge">
<title>set_marker_node_Set(7)&#45;&gt;set_marker_node_Set(2)</title>
<path fill="none" stroke="white" d="M1348,-819C1371.67,-819 1395.19,-819 1416.79,-819"/>
<polygon fill="white" stroke="white" points="1416.49,-822.5 1426.49,-819 1416.49,-815.5 1416.49,-822.5"/>
</g>
<!-- set_marker_node_Set(60) -->
<!-- node_System(49) -->
<g id="node16" class="node">
<title>node_System(49)</title>
<polygon fill="#eff1f3" stroke="#eff1f3" points="1216.5,-1521 1118.5,-1521 1118.5,-1485 1216.5,-1485 1216.5,-1521"/>
<text text-anchor="middle" x="1167.5" y="-1499.3" font-family="Times,serif" font-size="14.00">prepare_fog</text>
</g>
<!-- node_System(12) -->
<g id="node17" class="node">
<title>node_System(12)</title>
<polygon fill="#eff1f3" stroke="#eff1f3" points="1248.5,-1035 1086.5,-1035 1086.5,-999 1248.5,-999 1248.5,-1035"/>
<text text-anchor="middle" x="1167.5" y="-1013.3" font-family="Times,serif" font-size="14.00">prepare_view_targets</text>
</g>
<!-- node_System(14) -->
<g id="node18" class="node">
<title>node_System(14)</title>
<polygon fill="#eff1f3" stroke="#eff1f3" points="1253.5,-1359 1081.5,-1359 1081.5,-1323 1253.5,-1323 1253.5,-1359"/>
<text text-anchor="middle" x="1167.5" y="-1337.3" font-family="Times,serif" font-size="14.00">prepare_globals_buffer</text>
</g>
<!-- node_System(19) -->
<g id="node19" class="node">
<title>node_System(19)</title>
<polygon fill="#eff1f3" stroke="#eff1f3" points="1285.5,-1305 1049.5,-1305 1049.5,-1269 1285.5,-1269 1285.5,-1305"/>
<text text-anchor="middle" x="1167.5" y="-1283.3" font-family="Times,serif" font-size="14.00">prepare_core_3d_depth_textures</text>
</g>
<!-- node_System(25) -->
<g id="node20" class="node">
<title>node_System(25)</title>
<polygon fill="#eff1f3" stroke="#eff1f3" points="1336,-1251 999,-1251 999,-1215 1336,-1215 1336,-1251"/>
<text text-anchor="middle" x="1167.5" y="-1229.3" font-family="Times,serif" font-size="14.00">prepare_uniform_components&lt;BloomUniform&gt;</text>
</g>
<!-- node_System(26) -->
<g id="node21" class="node">
<title>node_System(26)</title>
<polygon fill="#eff1f3" stroke="#eff1f3" points="1258.5,-1197 1076.5,-1197 1076.5,-1161 1258.5,-1161 1258.5,-1197"/>
<text text-anchor="middle" x="1167.5" y="-1175.3" font-family="Times,serif" font-size="14.00">prepare_bloom_textures</text>
</g>
<!-- node_System(28) -->
<g id="node22" class="node">
<title>node_System(28)</title>
<polygon fill="#eff1f3" stroke="#eff1f3" points="1254,-1143 1081,-1143 1081,-1107 1254,-1107 1254,-1143"/>
<text text-anchor="middle" x="1167.5" y="-1121.3" font-family="Times,serif" font-size="14.00">prepare_fxaa_pipelines</text>
</g>
<!-- node_System(29) -->
<g id="node23" class="node">
<title>node_System(29)</title>
<polygon fill="#eff1f3" stroke="#eff1f3" points="1340,-1089 995,-1089 995,-1053 1340,-1053 1340,-1089"/>
<text text-anchor="middle" x="1167.5" y="-1067.3" font-family="Times,serif" font-size="14.00">prepare_uniform_components&lt;Mesh2dUniform&gt;</text>
</g>
<!-- node_System(32) -->
<g id="node24" class="node">
<title>node_System(32)</title>
<polygon fill="#eff1f3" stroke="#eff1f3" points="1304,-1467 1031,-1467 1031,-1431 1304,-1431 1304,-1467"/>
<text text-anchor="middle" x="1167.5" y="-1445.3" font-family="Times,serif" font-size="14.00">prepare_materials_2d&lt;ColorMaterial&gt;</text>
</g>
<!-- node_System(35) -->
<g id="node25" class="node">
<title>node_System(35)</title>
<polygon fill="#eff1f3" stroke="#eff1f3" points="1232,-981 1103,-981 1103,-945 1232,-945 1232,-981"/>
<text text-anchor="middle" x="1167.5" y="-959.3" font-family="Times,serif" font-size="14.00">prepare_uinodes</text>
</g>
<!-- node_System(38) -->
<g id="node26" class="node">
<title>node_System(38)</title>
<polygon fill="#eff1f3" stroke="#eff1f3" points="1332,-927 1003,-927 1003,-891 1332,-891 1332,-927"/>
<text text-anchor="middle" x="1167.5" y="-905.3" font-family="Times,serif" font-size="14.00">prepare_uniform_components&lt;MeshUniform&gt;</text>
</g>
<!-- node_System(39) -->
<g id="node27" class="node">
<title>node_System(39)</title>
<polygon fill="#eff1f3" stroke="#eff1f3" points="1260,-873 1075,-873 1075,-837 1260,-837 1260,-873"/>
<text text-anchor="middle" x="1167.5" y="-851.3" font-family="Times,serif" font-size="14.00">prepare_skinned_meshes</text>
</g>
<!-- node_System(42) -->
<g id="node28" class="node">
<title>node_System(42)</title>
<polygon fill="#eff1f3" stroke="#eff1f3" points="1305.5,-1413 1029.5,-1413 1029.5,-1377 1305.5,-1377 1305.5,-1413"/>
<text text-anchor="middle" x="1167.5" y="-1391.3" font-family="Times,serif" font-size="14.00">prepare_materials&lt;StandardMaterial&gt;</text>
</g>
<!-- node_System(44) -->
<g id="node29" class="node">
<title>node_System(44)</title>
<polygon fill="#eff1f3" stroke="#eff1f3" points="1262.5,-801 1072.5,-801 1072.5,-765 1262.5,-765 1262.5,-801"/>
<text text-anchor="middle" x="1167.5" y="-779.3" font-family="Times,serif" font-size="14.00">prepare_prepass_textures</text>
</g>
<!-- set_marker_node_Set(8)&#45;&gt;set_marker_node_Set(3) -->
<g id="edge18" class="edge">
<title>set_marker_node_Set(8)&#45;&gt;set_marker_node_Set(3)</title>
<path fill="none" stroke="white" d="M2074,-819C2076.86,-819 2079.7,-819 2082.5,-819"/>
<polygon fill="white" stroke="white" points="2082.49,-822.5 2092.49,-819 2082.49,-815.5 2082.49,-822.5"/>
</g>
<!-- node_System(23) -->
<g id="node31" class="node">
<title>node_System(23)</title>
<polygon fill="#eff1f3" stroke="#eff1f3" points="2009.5,-801 1749.5,-801 1749.5,-765 2009.5,-765 2009.5,-801"/>
<text text-anchor="middle" x="1879.5" y="-779.3" font-family="Times,serif" font-size="14.00">queue_view_tonemapping_pipelines</text>
</g>
<!-- node_System(24) -->
<g id="node32" class="node">
<title>node_System(24)</title>
<polygon fill="#eff1f3" stroke="#eff1f3" points="1996.5,-747 1762.5,-747 1762.5,-711 1996.5,-711 1996.5,-747"/>
<text text-anchor="middle" x="1879.5" y="-725.3" font-family="Times,serif" font-size="14.00">queue_view_upscaling_pipelines</text>
</g>
<!-- node_System(27) -->
<g id="node33" class="node">
<title>node_System(27)</title>
<polygon fill="#eff1f3" stroke="#eff1f3" points="1978,-693 1781,-693 1781,-657 1978,-657 1978,-693"/>
<text text-anchor="middle" x="1879.5" y="-671.3" font-family="Times,serif" font-size="14.00">queue_bloom_bind_groups</text>
</g>
<!-- node_System(30) -->
<g id="node34" class="node">
<title>node_System(30)</title>
<polygon fill="#eff1f3" stroke="#eff1f3" points="1979.5,-639 1779.5,-639 1779.5,-603 1979.5,-603 1979.5,-639"/>
<text text-anchor="middle" x="1879.5" y="-617.3" font-family="Times,serif" font-size="14.00">queue_mesh2d_bind_group</text>
</g>
<!-- node_System(31) -->
<g id="node35" class="node">
<title>node_System(31)</title>
<polygon fill="#eff1f3" stroke="#eff1f3" points="2002,-585 1757,-585 1757,-549 2002,-549 2002,-585"/>
<text text-anchor="middle" x="1879.5" y="-563.3" font-family="Times,serif" font-size="14.00">queue_mesh2d_view_bind_groups</text>
</g>
<!-- node_System(33) -->
<g id="node36" class="node">
<title>node_System(33)</title>
<polygon fill="#eff1f3" stroke="#eff1f3" points="2032,-531 1727,-531 1727,-495 2032,-495 2032,-531"/>
<text text-anchor="middle" x="1879.5" y="-509.3" font-family="Times,serif" font-size="14.00">queue_material2d_meshes&lt;ColorMaterial&gt;</text>
</g>
<!-- node_System(34) -->
<g id="node37" class="node">
<title>node_System(34)</title>
<polygon fill="#eff1f3" stroke="#eff1f3" points="1934,-477 1825,-477 1825,-441 1934,-441 1934,-477"/>
<text text-anchor="middle" x="1879.5" y="-455.3" font-family="Times,serif" font-size="14.00">queue_sprites</text>
</g>
<!-- node_System(36) -->
<g id="node38" class="node">
<title>node_System(36)</title>
<polygon fill="#eff1f3" stroke="#eff1f3" points="1938,-423 1821,-423 1821,-387 1938,-387 1938,-423"/>
<text text-anchor="middle" x="1879.5" y="-401.3" font-family="Times,serif" font-size="14.00">queue_uinodes</text>
</g>
<!-- node_System(40) -->
<g id="node39" class="node">
<title>node_System(40)</title>
<polygon fill="#eff1f3" stroke="#eff1f3" points="1971.5,-369 1787.5,-369 1787.5,-333 1971.5,-333 1971.5,-369"/>
<text text-anchor="middle" x="1879.5" y="-347.3" font-family="Times,serif" font-size="14.00">queue_mesh_bind_group</text>
</g>
<!-- node_System(41) -->
<g id="node40" class="node">
<title>node_System(41)</title>
<polygon fill="#eff1f3" stroke="#eff1f3" points="1994,-315 1765,-315 1765,-279 1994,-279 1994,-315"/>
<text text-anchor="middle" x="1879.5" y="-293.3" font-family="Times,serif" font-size="14.00">queue_mesh_view_bind_groups</text>
</g>
<!-- node_System(43) -->
<g id="node41" class="node">
<title>node_System(43)</title>
<polygon fill="#eff1f3" stroke="#eff1f3" points="2036.5,-261 1722.5,-261 1722.5,-225 2036.5,-225 2036.5,-261"/>
<text text-anchor="middle" x="1879.5" y="-239.3" font-family="Times,serif" font-size="14.00">queue_material_meshes&lt;StandardMaterial&gt;</text>
</g>
<!-- node_System(45) -->
<g id="node42" class="node">
<title>node_System(45)</title>
<polygon fill="#eff1f3" stroke="#eff1f3" points="2066,-207 1693,-207 1693,-171 2066,-171 2066,-207"/>
<text text-anchor="middle" x="1879.5" y="-185.3" font-family="Times,serif" font-size="14.00">queue_prepass_view_bind_group&lt;StandardMaterial&gt;</text>
</g>
<!-- node_System(46) -->
<g id="node43" class="node">
<title>node_System(46)</title>
<polygon fill="#eff1f3" stroke="#eff1f3" points="2065.5,-153 1693.5,-153 1693.5,-117 2065.5,-117 2065.5,-153"/>
<text text-anchor="middle" x="1879.5" y="-131.3" font-family="Times,serif" font-size="14.00">queue_prepass_material_meshes&lt;StandardMaterial&gt;</text>
</g>
<!-- node_System(54) -->
<g id="node44" class="node">
<title>node_System(54)</title>
<polygon fill="#eff1f3" stroke="#eff1f3" points="1999,-99 1760,-99 1760,-63 1999,-63 1999,-99"/>
<text text-anchor="middle" x="1879.5" y="-77.3" font-family="Times,serif" font-size="14.00">queue_shadow_view_bind_group</text>
</g>
<!-- set_marker_node_Set(9)&#45;&gt;set_marker_node_Set(4) -->
<g id="edge20" class="edge">
<title>set_marker_node_Set(9)&#45;&gt;set_marker_node_Set(4)</title>
<path fill="none" stroke="white" d="M2630.94,-433C2631.91,-431.6 2632.93,-430.26 2634,-429 2643.05,-418.31 2654.96,-410.69 2667.92,-405.3"/>
<polygon fill="white" stroke="white" points="2668.89,-408.67 2677.08,-401.95 2666.49,-402.09 2668.89,-408.67"/>
</g>
<!-- node_System(17) -->
<g id="node46" class="node">
<title>node_System(17)</title>
<polygon fill="#eff1f3" stroke="#eff1f3" points="2576,-873 2321,-873 2321,-837 2576,-837 2576,-873"/>
<text text-anchor="middle" x="2448.5" y="-851.3" font-family="Times,serif" font-size="14.00">sort_phase_system&lt;Transparent2d&gt;</text>
</g>
<!-- node_System(18) -->
<g id="node47" class="node">
<title>node_System(18)</title>
<polygon fill="#eff1f3" stroke="#eff1f3" points="2900,-873 2634,-873 2634,-837 2900,-837 2900,-873"/>
<text text-anchor="middle" x="2767" y="-851.3" font-family="Times,serif" font-size="14.00">batch_phase_system&lt;Transparent2d&gt;</text>
</g>
<!-- node_System(17)&#45;&gt;node_System(18) -->
<g id="edge28" class="edge">
<title>node_System(17)&#45;&gt;node_System(18)</title>
<path fill="none" stroke="white" d="M2576.41,-855C2591.56,-855 2607.12,-855 2622.48,-855"/>
<polygon fill="white" stroke="white" points="2622.12,-858.5 2632.12,-855 2622.12,-851.5 2622.12,-858.5"/>
</g>
<!-- node_System(20) -->
<g id="node48" class="node">
<title>node_System(20)</title>
<polygon fill="#eff1f3" stroke="#eff1f3" points="2560.5,-801 2336.5,-801 2336.5,-765 2560.5,-765 2560.5,-801"/>
<text text-anchor="middle" x="2448.5" y="-779.3" font-family="Times,serif" font-size="14.00">sort_phase_system&lt;Opaque3d&gt;</text>
</g>
<!-- node_System(21) -->
<g id="node49" class="node">
<title>node_System(21)</title>
<polygon fill="#eff1f3" stroke="#eff1f3" points="2572.5,-747 2324.5,-747 2324.5,-711 2572.5,-711 2572.5,-747"/>
<text text-anchor="middle" x="2448.5" y="-725.3" font-family="Times,serif" font-size="14.00">sort_phase_system&lt;AlphaMask3d&gt;</text>
</g>
<!-- node_System(22) -->
<g id="node50" class="node">
<title>node_System(22)</title>
<polygon fill="#eff1f3" stroke="#eff1f3" points="2576,-693 2321,-693 2321,-657 2576,-657 2576,-693"/>
<text text-anchor="middle" x="2448.5" y="-671.3" font-family="Times,serif" font-size="14.00">sort_phase_system&lt;Transparent3d&gt;</text>
</g>
<!-- node_System(37) -->
<g id="node51" class="node">
<title>node_System(37)</title>
<polygon fill="#eff1f3" stroke="#eff1f3" points="2575.5,-639 2321.5,-639 2321.5,-603 2575.5,-603 2575.5,-639"/>
<text text-anchor="middle" x="2448.5" y="-617.3" font-family="Times,serif" font-size="14.00">sort_phase_system&lt;TransparentUi&gt;</text>
</g>
<!-- node_System(47) -->
<g id="node52" class="node">
<title>node_System(47)</title>
<polygon fill="#eff1f3" stroke="#eff1f3" points="2586,-585 2311,-585 2311,-549 2586,-549 2586,-585"/>
<text text-anchor="middle" x="2448.5" y="-563.3" font-family="Times,serif" font-size="14.00">sort_phase_system&lt;Opaque3dPrepass&gt;</text>
</g>
<!-- node_System(48) -->
<g id="node53" class="node">
<title>node_System(48)</title>
<polygon fill="#eff1f3" stroke="#eff1f3" points="2598,-531 2299,-531 2299,-495 2598,-495 2598,-531"/>
<text text-anchor="middle" x="2448.5" y="-509.3" font-family="Times,serif" font-size="14.00">sort_phase_system&lt;AlphaMask3dPrepass&gt;</text>
</g>
<!-- node_System(55) -->
<g id="node54" class="node">
<title>node_System(55)</title>
<polygon fill="#eff1f3" stroke="#eff1f3" points="2553.5,-477 2343.5,-477 2343.5,-441 2553.5,-441 2553.5,-477"/>
<text text-anchor="middle" x="2448.5" y="-455.3" font-family="Times,serif" font-size="14.00">sort_phase_system&lt;Shadow&gt;</text>
</g>
<!-- set_marker_node_Set(10)&#45;&gt;set_marker_node_Set(5) -->
<g id="edge22" class="edge">
<title>set_marker_node_Set(10)&#45;&gt;set_marker_node_Set(5)</title>
<path fill="none" stroke="white" d="M3089.88,-386C3114.94,-380.85 3148.75,-373.89 3180.87,-367.29"/>
<polygon fill="white" stroke="white" points="3181.43,-370.75 3190.52,-365.3 3180.02,-363.89 3181.43,-370.75"/>
</g>
<!-- node_System(7) -->
<g id="node56" class="node">
<title>node_System(7)</title>
<polygon fill="#eff1f3" stroke="#eff1f3" points="3164,-448 2936,-448 2936,-412 3164,-412 3164,-448"/>
<text text-anchor="middle" x="3050" y="-426.3" font-family="Times,serif" font-size="14.00">process_pipeline_queue_system</text>
</g>
<!-- node_System(8) -->
<g id="node57" class="node">
<title>node_System(8)</title>
<polygon fill="#eff1f3" stroke="#eff1f3" points="3338.5,-448 3222.5,-448 3222.5,-412 3338.5,-412 3338.5,-448"/>
<text text-anchor="middle" x="3280.5" y="-426.3" font-family="Times,serif" font-size="14.00">render_system</text>
</g>
<!-- node_System(7)&#45;&gt;node_System(8) -->
<g id="edge25" class="edge">
<title>node_System(7)&#45;&gt;node_System(8)</title>
<path fill="none" stroke="white" d="M3164.25,-430C3180.1,-430 3195.97,-430 3210.65,-430"/>
<polygon fill="white" stroke="white" points="3210.64,-433.5 3220.64,-430 3210.64,-426.5 3210.64,-433.5"/>
</g>
<!-- set_marker_node_Set(11)&#45;&gt;set_marker_node_Set(6) -->
<g id="edge24" class="edge">
<title>set_marker_node_Set(11)&#45;&gt;set_marker_node_Set(6)</title>
<path fill="none" stroke="white" d="M3623,-347C3625.95,-347 3628.9,-347 3631.84,-347"/>
<polygon fill="white" stroke="white" points="3631.49,-350.5 3641.49,-347 3631.49,-343.5 3631.49,-350.5"/>
</g>
<!-- node_System(9) -->
<g id="node59" class="node">
<title>node_System(9)</title>
<polygon fill="#eff1f3" stroke="#eff1f3" points="3559.5,-329 3452.5,-329 3452.5,-293 3559.5,-293 3559.5,-329"/>
<text text-anchor="middle" x="3506" y="-307.3" font-family="Times,serif" font-size="14.00">clear_entities</text>
</g>
<!-- node_System(16) -->
<g id="node60" class="node">
<title>node_System(16)</title>
<polygon fill="#eff1f3" stroke="#eff1f3" points="3615,-275 3397,-275 3397,-239 3615,-239 3615,-275"/>
<text text-anchor="middle" x="3506" y="-253.3" font-family="Times,serif" font-size="14.00">update_texture_cache_system</text>
</g>
<!-- set_marker_node_Set(17) -->
<!-- set_marker_node_Set(17)&#45;&gt;node_System(12) -->
<g id="edge26" class="edge">
<title>set_marker_node_Set(17)&#45;&gt;node_System(12)</title>
<path fill="none" stroke="white" d="M840.5,-1017C893.2,-1017 998.23,-1017 1074.87,-1017"/>
<polygon fill="white" stroke="white" points="1074.63,-1020.5 1084.63,-1017 1074.63,-1013.5 1074.63,-1020.5"/>
</g>
<!-- set_marker_node_Set(19) -->
<!-- set_marker_node_Set(22) -->
<!-- set_marker_node_Set(23) -->
<!-- set_marker_node_Set(23)&#45;&gt;node_System(32) -->
<g id="edge29" class="edge">
<title>set_marker_node_Set(23)&#45;&gt;node_System(32)</title>
<path fill="none" stroke="white" d="M539.5,-1417.15C646.9,-1422.61 870.37,-1433.96 1019.42,-1441.53"/>
<polygon fill="white" stroke="white" points="1018.94,-1445.01 1029.11,-1442.02 1019.3,-1438.02 1018.94,-1445.01"/>
</g>
<!-- set_marker_node_Set(23)&#45;&gt;node_System(42) -->
<g id="edge30" class="edge">
<title>set_marker_node_Set(23)&#45;&gt;node_System(42)</title>
<path fill="none" stroke="white" d="M539.5,-1412.29C646.61,-1409.34 869.14,-1403.2 1018.18,-1399.09"/>
<polygon fill="white" stroke="white" points="1017.98,-1402.6 1027.88,-1398.82 1017.79,-1395.6 1017.98,-1402.6"/>
</g>
<!-- node_System(13) -->
<g id="node71" class="node">
<title>node_System(13)</title>
<polygon fill="#eff1f3" stroke="#eff1f3" points="944.5,-1499 668.5,-1499 668.5,-1461 944.5,-1461 944.5,-1499"/>
<text text-anchor="middle" x="806.5" y="-1483.8" font-family="Times,serif" font-size="14.00">prepare_assets&lt;Mesh&gt;</text>
<text text-anchor="middle" x="806.5" y="-1468.8" font-family="Times,serif" font-size="14.00">In multiple sets, Prepare, AssetPrepare</text>
</g>
<!-- set_marker_node_Set(23)&#45;&gt;node_System(13) -->
<g id="edge27" class="edge">
<title>set_marker_node_Set(23)&#45;&gt;node_System(13)</title>
<path fill="none" stroke="white" d="M539.5,-1426.48C584.05,-1435.44 645.27,-1447.76 697.75,-1458.32"/>
<polygon fill="white" stroke="white" points="696.84,-1461.71 707.33,-1460.25 698.22,-1454.84 696.84,-1461.71"/>
</g>
<!-- set_marker_node_Set(62) -->
<!-- node_System(51) -->
<g id="node68" class="node">
<title>node_System(51)</title>
<polygon fill="#eff1f3" stroke="#eff1f3" points="1248,-670 1087,-670 1087,-634 1248,-634 1248,-670"/>
<text text-anchor="middle" x="1167.5" y="-648.3" font-family="Times,serif" font-size="14.00">apply_system_buffers</text>
</g>
<!-- set_marker_node_Set(62)&#45;&gt;node_System(51) -->
<g id="edge32" class="edge">
<title>set_marker_node_Set(62)&#45;&gt;node_System(51)</title>
<path fill="none" stroke="white" d="M860.5,-636.66C916.96,-639.49 1007.38,-644.02 1075.32,-647.43"/>
<polygon fill="white" stroke="white" points="1074.91,-650.91 1085.07,-647.92 1075.26,-643.92 1074.91,-650.91"/>
</g>
<!-- set_marker_node_Set(64) -->
<!-- set_marker_node_Set(66) -->
<!-- node_System(51)&#45;&gt;set_marker_node_Set(19) -->
<g id="edge33" class="edge">
<title>node_System(51)&#45;&gt;set_marker_node_Set(19)</title>
<path fill="none" stroke="white" d="M1248.11,-652C1306.16,-652 1384.27,-652 1441.08,-652"/>
<polygon fill="white" stroke="white" points="1440.99,-655.5 1450.99,-652 1440.99,-648.5 1440.99,-655.5"/>
</g>
<!-- node_System(10) -->
<g id="node69" class="node">
<title>node_System(10)</title>
<polygon fill="#eff1f3" stroke="#eff1f3" points="597.5,-944 355.5,-944 355.5,-906 597.5,-906 597.5,-944"/>
<text text-anchor="middle" x="476.5" y="-928.8" font-family="Times,serif" font-size="14.00">prepare_windows</text>
<text text-anchor="middle" x="476.5" y="-913.8" font-family="Times,serif" font-size="14.00">In multiple sets, Prepare, Prepare</text>
</g>
<!-- node_System(10)&#45;&gt;set_marker_node_Set(7) -->
<g id="edge1" class="edge">
<title>node_System(10)&#45;&gt;set_marker_node_Set(7)</title>
<path fill="none" stroke="blue" d="M512.75,-905.51C547.52,-887.34 602.73,-861.26 654,-849 762.59,-823.03 887.62,-815.29 987,-814.16"/>
</g>
<!-- node_System(10)&#45;&gt;set_marker_node_Set(17) -->
<g id="edge2" class="edge">
<title>node_System(10)&#45;&gt;set_marker_node_Set(17)</title>
<path fill="none" stroke="blue" d="M511.73,-944.49C546.4,-963.22 602.16,-990.59 654,-1004 693.89,-1014.32 741.45,-1016.89 772.5,-1017.32"/>
</g>
<!-- node_System(11) -->
<g id="node70" class="node">
<title>node_System(11)</title>
<polygon fill="#eff1f3" stroke="#eff1f3" points="959,-767 654,-767 654,-729 959,-729 959,-767"/>
<text text-anchor="middle" x="806.5" y="-751.8" font-family="Times,serif" font-size="14.00">prepare_view_uniforms</text>
<text text-anchor="middle" x="806.5" y="-736.8" font-family="Times,serif" font-size="14.00">In multiple sets, Prepare, PrepareUniforms</text>
</g>
<!-- node_System(11)&#45;&gt;set_marker_node_Set(7) -->
<g id="edge3" class="edge">
<title>node_System(11)&#45;&gt;set_marker_node_Set(7)</title>
<path fill="none" stroke="blue" d="M928.58,-767.5C939.18,-771.23 949.48,-775.69 959,-781 974.65,-789.73 970.69,-802.59 987,-810"/>
</g>
<!-- node_System(11)&#45;&gt;set_marker_node_Set(19) -->
<g id="edge4" class="edge">
<title>node_System(11)&#45;&gt;set_marker_node_Set(19)</title>
<path fill="none" stroke="blue" d="M959.43,-747.04C1107.03,-745.12 1313.78,-739.49 1348,-723 1365.02,-714.8 1360.01,-701.07 1376,-691 1398.96,-676.53 1427.34,-667.33 1452.5,-661.53"/>
</g>
<!-- node_System(13)&#45;&gt;set_marker_node_Set(7) -->
<g id="edge5" class="edge">
<title>node_System(13)&#45;&gt;set_marker_node_Set(7)</title>
<path fill="none" stroke="blue" d="M823.6,-1460.51C856.07,-1419.9 928.87,-1322.02 959,-1226 972.27,-1183.7 955.34,-859.03 987,-828"/>
</g>
<!-- node_System(13)&#45;&gt;set_marker_node_Set(22) -->
<g id="edge6" class="edge">
<title>node_System(13)&#45;&gt;set_marker_node_Set(22)</title>
<path fill="none" stroke="blue" d="M838.82,-1499.46C873.79,-1520.46 932.65,-1553.62 987,-1574 1030.59,-1590.35 1082.52,-1601.99 1119.28,-1609"/>
</g>
<!-- node_System(15) -->
<g id="node72" class="node">
<title>node_System(15)</title>
<polygon fill="#eff1f3" stroke="#eff1f3" points="299,-1322 0,-1322 0,-1284 299,-1284 299,-1322"/>
<text text-anchor="middle" x="149.5" y="-1306.8" font-family="Times,serif" font-size="14.00">prepare_assets&lt;Image&gt;</text>
<text text-anchor="middle" x="149.5" y="-1291.8" font-family="Times,serif" font-size="14.00">In multiple sets, Prepare, PreAssetPrepare</text>
</g>
<!-- node_System(15)&#45;&gt;set_marker_node_Set(7) -->
<g id="edge7" class="edge">
<title>node_System(15)&#45;&gt;set_marker_node_Set(7)</title>
<path fill="none" stroke="blue" d="M299.28,-1302.41C484.38,-1292.97 795.89,-1246.81 959,-1052 1023.41,-975.07 913.47,-896.26 987,-828"/>
</g>
<!-- node_System(15)&#45;&gt;set_marker_node_Set(23) -->
<g id="edge8" class="edge">
<title>node_System(15)&#45;&gt;set_marker_node_Set(23)</title>
<path fill="none" stroke="blue" d="M207.48,-1322.46C279.82,-1347.17 401.3,-1388.66 452.08,-1406"/>
</g>
<!-- node_System(50) -->
<g id="node73" class="node">
<title>node_System(50)</title>
<polygon fill="#eff1f3" stroke="#eff1f3" points="618,-682 335,-682 335,-644 618,-644 618,-682"/>
<text text-anchor="middle" x="476.5" y="-666.8" font-family="Times,serif" font-size="14.00">prepare_lights</text>
<text text-anchor="middle" x="476.5" y="-651.8" font-family="Times,serif" font-size="14.00">In multiple sets, Prepare, PrepareLights</text>
</g>
<!-- node_System(50)&#45;&gt;set_marker_node_Set(7) -->
<g id="edge9" class="edge">
<title>node_System(50)&#45;&gt;set_marker_node_Set(7)</title>
<path fill="none" stroke="blue" d="M499.91,-682.36C531.75,-708.63 593.02,-754.73 654,-776 794.47,-825 838.66,-798.72 987,-810"/>
</g>
<!-- node_System(50)&#45;&gt;set_marker_node_Set(19) -->
<g id="edge31" class="edge">
<title>node_System(50)&#45;&gt;set_marker_node_Set(19)</title>
<path fill="none" stroke="white" d="M544.76,-643.57C577.42,-635.12 617.43,-626.19 654,-622 702.09,-616.49 1324.36,-623.01 1348,-625 1387.7,-628.33 1432.2,-635.68 1465.35,-641.87"/>
<polygon fill="white" stroke="white" points="1464.61,-645.29 1475.09,-643.72 1465.92,-638.42 1464.61,-645.29"/>
</g>
<!-- node_System(50)&#45;&gt;set_marker_node_Set(62) -->
<g id="edge10" class="edge">
<title>node_System(50)&#45;&gt;set_marker_node_Set(62)</title>
<path fill="none" stroke="blue" d="M618.03,-650.58C665.66,-646.36 716,-641.91 752.5,-638.69"/>
</g>
<!-- node_System(52) -->
<g id="node74" class="node">
<title>node_System(52)</title>
<polygon fill="#eff1f3" stroke="#eff1f3" points="954,-711 659,-711 659,-673 954,-673 954,-711"/>
<text text-anchor="middle" x="806.5" y="-695.8" font-family="Times,serif" font-size="14.00">prepare_clusters</text>
<text text-anchor="middle" x="806.5" y="-680.8" font-family="Times,serif" font-size="14.00">In multiple sets, Prepare, PrepareClusters</text>
</g>
<!-- node_System(50)&#45;&gt;node_System(52) -->
<g id="edge34" class="edge">
<title>node_System(50)&#45;&gt;node_System(52)</title>
<path fill="none" stroke="white" d="M618.03,-675.42C627.71,-676.28 637.51,-677.15 647.28,-678.01"/>
<polygon fill="white" stroke="white" points="646.95,-681.5 657.22,-678.89 647.57,-674.52 646.95,-681.5"/>
</g>
<!-- node_System(52)&#45;&gt;set_marker_node_Set(7) -->
<g id="edge11" class="edge">
<title>node_System(52)&#45;&gt;set_marker_node_Set(7)</title>
<path fill="none" stroke="blue" d="M947.52,-711.32C951.56,-713.92 955.4,-716.8 959,-720 990.33,-747.81 953.9,-784.33 987,-810"/>
</g>
<!-- node_System(52)&#45;&gt;set_marker_node_Set(64) -->
<g id="edge12" class="edge">
<title>node_System(52)&#45;&gt;set_marker_node_Set(64)</title>
<path fill="none" stroke="blue" d="M954.3,-690.36C1007.61,-689.77 1064.9,-689.13 1106.5,-688.67"/>
</g>
<!-- node_System(53) -->
<g id="node75" class="node">
<title>node_System(53)</title>
<polygon fill="#eff1f3" stroke="#eff1f3" points="1657,-738 1376,-738 1376,-700 1657,-700 1657,-738"/>
<text text-anchor="middle" x="1516.5" y="-722.8" font-family="Times,serif" font-size="14.00">queue_shadows</text>
<text text-anchor="middle" x="1516.5" y="-707.8" font-family="Times,serif" font-size="14.00">In multiple sets, Queue, QueueShadows</text>
</g>
<!-- node_System(53)&#45;&gt;set_marker_node_Set(8) -->
<g id="edge13" class="edge">
<title>node_System(53)&#45;&gt;set_marker_node_Set(8)</title>
<path fill="none" stroke="blue" d="M1633.31,-738.4C1641.78,-742.41 1649.81,-747.22 1657,-753 1679.01,-770.67 1661.4,-794.52 1685,-810"/>
</g>
<!-- node_System(53)&#45;&gt;set_marker_node_Set(66) -->
<g id="edge14" class="edge">
<title>node_System(53)&#45;&gt;set_marker_node_Set(66)</title>
<path fill="none" stroke="blue" d="M1643.56,-699.51C1648.49,-695.92 1653.02,-691.77 1657,-687 1702.28,-632.66 1638.47,-104.28 1685,-51 1717.62,-13.65 1775.51,-7.42 1819.5,-9.01"/>
</g>
</g>
</svg>
