<?xml version="1.0" encoding="UTF-8" standalone="no"?>
<!DOCTYPE svg PUBLIC "-//W3C//DTD SVG 1.1//EN"
 "http://www.w3.org/Graphics/SVG/1.1/DTD/svg11.dtd">
<!-- Generated by graphviz version 7.0.6 (0)
 -->
<!-- Title: schedule Pages: 1 -->
<svg width="3076pt" height="1915pt"
 viewBox="0.00 0.00 3076.00 1915.00" xmlns="http://www.w3.org/2000/svg" xmlns:xlink="http://www.w3.org/1999/xlink">
<g id="graph0" class="graph" transform="scale(1 1) rotate(0) translate(4 1911)">
<title>schedule</title>
<polygon fill="#0d1117" stroke="none" points="-4,4 -4,-1911 3072,-1911 3072,4 -4,4"/>
<g id="clust1" class="cluster">
<title>clusternode_Set(1)</title>
<polygon fill="#6f90ad" stroke="black" points="8,-1346 8,-1493 212,-1493 212,-1346 8,-1346"/>
<text text-anchor="middle" x="110" y="-1477.8" font-family="Helvetica,sans-Serif" font-size="14.00">ExtractCommands</text>
</g>
<g id="clust2" class="cluster">
<title>clusternode_Set(2)</title>
<polygon fill="#6f90ad" stroke="black" points="670.5,-813 670.5,-906 847.5,-906 847.5,-813 670.5,-813"/>
<text text-anchor="middle" x="759" y="-890.8" font-family="Helvetica,sans-Serif" font-size="14.00">PrepareFlush</text>
</g>
<g id="clust3" class="cluster">
<title>clusternode_Set(3)</title>
<polygon fill="#6f90ad" stroke="black" points="1334,-710 1334,-803 1511,-803 1511,-710 1334,-710"/>
<text text-anchor="middle" x="1422.5" y="-787.8" font-family="Helvetica,sans-Serif" font-size="14.00">QueueFlush</text>
</g>
<g id="clust4" class="cluster">
<title>clusternode_Set(4)</title>
<polygon fill="#6f90ad" stroke="black" points="1918.5,-285 1918.5,-378 2095.5,-378 2095.5,-285 1918.5,-285"/>
<text text-anchor="middle" x="2007" y="-362.8" font-family="Helvetica,sans-Serif" font-size="14.00">PhaseSortFlush</text>
</g>
<g id="clust5" class="cluster">
<title>clusternode_Set(5)</title>
<polygon fill="#6f90ad" stroke="black" points="2432,-238 2432,-331 2609,-331 2609,-238 2432,-238"/>
<text text-anchor="middle" x="2520.5" y="-315.8" font-family="Helvetica,sans-Serif" font-size="14.00">RenderFlush</text>
</g>
<g id="clust6" class="cluster">
<title>clusternode_Set(6)</title>
<polygon fill="#6f90ad" stroke="black" points="2883,-238 2883,-331 3060,-331 3060,-238 2883,-238"/>
<text text-anchor="middle" x="2971.5" y="-315.8" font-family="Helvetica,sans-Serif" font-size="14.00">CleanupFlush</text>
</g>
<g id="clust7" class="cluster">
<title>clusternode_Set(7)</title>
<polygon fill="#6f90ad" stroke="black" points="232,-914 232,-1899 1193.5,-1899 1193.5,-914 232,-914"/>
<text text-anchor="middle" x="712.75" y="-1883.8" font-family="Helvetica,sans-Serif" font-size="14.00">Prepare</text>
</g>
<g id="clust8" class="cluster">
<title>clusternode_Set(16)</title>
<polygon fill="#6f90ad" stroke="black" points="336,-1775 336,-1868 489,-1868 489,-1775 336,-1775"/>
<text text-anchor="middle" x="412.5" y="-1852.8" font-family="Helvetica,sans-Serif" font-size="14.00">Prepare</text>
</g>
<g id="clust9" class="cluster">
<title>clusternode_Set(18)</title>
<polygon fill="#6f90ad" stroke="black" points="662,-1156 662,-1249 856,-1249 856,-1156 662,-1156"/>
<text text-anchor="middle" x="759" y="-1233.8" font-family="Helvetica,sans-Serif" font-size="14.00">PrepareUniforms</text>
</g>
<g id="clust10" class="cluster">
<title>clusternode_Set(21)</title>
<polygon fill="#6f90ad" stroke="black" points="318,-1674 318,-1767 507,-1767 507,-1674 318,-1674"/>
<text text-anchor="middle" x="412.5" y="-1751.8" font-family="Helvetica,sans-Serif" font-size="14.00">PreAssetPrepare</text>
</g>
<g id="clust11" class="cluster">
<title>clusternode_Set(22)</title>
<polygon fill="#6f90ad" stroke="black" points="667.5,-1640 667.5,-1733 850.5,-1733 850.5,-1640 667.5,-1640"/>
<text text-anchor="middle" x="759" y="-1717.8" font-family="Helvetica,sans-Serif" font-size="14.00">AssetPrepare</text>
</g>
<g id="clust12" class="cluster">
<title>clusternode_Set(23)</title>
<polygon fill="#6f90ad" stroke="black" points="1053.5,-1694 1053.5,-1733 1185.5,-1733 1185.5,-1694 1053.5,-1694"/>
<text text-anchor="middle" x="1119.5" y="-1717.8" font-family="Helvetica,sans-Serif" font-size="14.00">PostAssetPrepare</text>
</g>
<g id="clust13" class="cluster">
<title>clusternode_Set(61)</title>
<polygon fill="#6f90ad" stroke="black" points="355.5,-1573 355.5,-1666 469.5,-1666 469.5,-1573 355.5,-1573"/>
<text text-anchor="middle" x="412.5" y="-1650.8" font-family="Helvetica,sans-Serif" font-size="14.00">PrepareFog</text>
</g>
<g id="clust14" class="cluster">
<title>clusternode_Set(62)</title>
<polygon fill="#6f90ad" stroke="black" points="348,-1472 348,-1565 477,-1565 477,-1472 348,-1472"/>
<text text-anchor="middle" x="412.5" y="-1549.8" font-family="Helvetica,sans-Serif" font-size="14.00">PrepareLights</text>
</g>
<g id="clust15" class="cluster">
<title>clusternode_Set(63)</title>
<polygon fill="#6f90ad" stroke="black" points="687,-1490 687,-1583 831,-1583 831,-1490 687,-1490"/>
<text text-anchor="middle" x="759" y="-1567.8" font-family="Helvetica,sans-Serif" font-size="14.00">PrepareClusters</text>
</g>
<g id="clust16" class="cluster">
<title>clusternode_Set(8)</title>
<polygon fill="#6f90ad" stroke="black" points="925,-8 925,-906 1314,-906 1314,-8 925,-8"/>
<text text-anchor="middle" x="1119.5" y="-890.8" font-family="Helvetica,sans-Serif" font-size="14.00">Queue</text>
</g>
<g id="clust17" class="cluster">
<title>clusternode_Set(64)</title>
<polygon fill="#6f90ad" stroke="black" points="1050.5,-782 1050.5,-875 1188.5,-875 1188.5,-782 1050.5,-782"/>
<text text-anchor="middle" x="1119.5" y="-859.8" font-family="Helvetica,sans-Serif" font-size="14.00">QueueShadows</text>
</g>
<g id="clust18" class="cluster">
<title>clusternode_Set(9)</title>
<polygon fill="#6f90ad" stroke="black" points="1531,-386 1531,-857 2148,-857 2148,-386 1531,-386"/>
<text text-anchor="middle" x="1839.5" y="-841.8" font-family="Helvetica,sans-Serif" font-size="14.00">PhaseSort</text>
</g>
<g id="clust19" class="cluster">
<title>clusternode_Set(10)</title>
<polygon fill="#6f90ad" stroke="black" points="2168,-339 2168,-432 2586.5,-432 2586.5,-339 2168,-339"/>
<text text-anchor="middle" x="2377.25" y="-416.8" font-family="Helvetica,sans-Serif" font-size="14.00">Render</text>
</g>
<g id="clust20" class="cluster">
<title>clusternode_Set(11)</title>
<polygon fill="#6f90ad" stroke="black" points="2629,-184 2629,-331 2863,-331 2863,-184 2629,-184"/>
<text text-anchor="middle" x="2746" y="-315.8" font-family="Helvetica,sans-Serif" font-size="14.00">Cleanup</text>
</g>
<!-- set_marker_node_Set(1) -->
<!-- set_marker_node_Set(7) -->
<!-- set_marker_node_Set(1)&#45;&gt;set_marker_node_Set(7) -->
<g id="edge1" class="edge">
<title>set_marker_node_Set(1)&#45;&gt;set_marker_node_Set(7)</title>
<path fill="none" stroke="white" d="M212,-1462C214.85,-1462 217.73,-1462 220.64,-1462"/>
<polygon fill="white" stroke="white" points="220.49,-1465.5 230.49,-1462 220.49,-1458.5 220.49,-1465.5"/>
</g>
<!-- node_System(0) -->
<g id="node2" class="node">
<title>node_System(0)</title>
<polygon fill="#eff1f3" stroke="#eff1f3" points="190.5,-1444 29.5,-1444 29.5,-1408 190.5,-1408 190.5,-1444"/>
<text text-anchor="middle" x="110" y="-1422.3" font-family="Times,serif" font-size="14.00">apply_system_buffers</text>
</g>
<!-- node_System(6) -->
<g id="node3" class="node">
<title>node_System(6)</title>
<polygon fill="#eff1f3" stroke="#eff1f3" points="204,-1390 16,-1390 16,-1354 204,-1354 204,-1390"/>
<text text-anchor="middle" x="110" y="-1368.3" font-family="Times,serif" font-size="14.00">apply_extract_commands</text>
</g>
<!-- set_marker_node_Set(2) -->
<!-- set_marker_node_Set(8) -->
<!-- set_marker_node_Set(2)&#45;&gt;set_marker_node_Set(8) -->
<g id="edge3" class="edge">
<title>set_marker_node_Set(2)&#45;&gt;set_marker_node_Set(8)</title>
<path fill="none" stroke="white" d="M847.5,-884.39C865.33,-882.36 882.92,-877.02 897,-866 926.04,-843.27 899.06,-810.32 917.04,-785.92"/>
<polygon fill="white" stroke="white" points="919.3,-788.6 923.93,-779.07 914.37,-783.64 919.3,-788.6"/>
</g>
<!-- node_System(1) -->
<g id="node5" class="node">
<title>node_System(1)</title>
<polygon fill="#eff1f3" stroke="#eff1f3" points="839.5,-857 678.5,-857 678.5,-821 839.5,-821 839.5,-857"/>
<text text-anchor="middle" x="759" y="-835.3" font-family="Times,serif" font-size="14.00">apply_system_buffers</text>
</g>
<!-- set_marker_node_Set(3) -->
<!-- set_marker_node_Set(9) -->
<!-- set_marker_node_Set(3)&#45;&gt;set_marker_node_Set(9) -->
<g id="edge5" class="edge">
<title>set_marker_node_Set(3)&#45;&gt;set_marker_node_Set(9)</title>
<path fill="none" stroke="white" d="M1511,-772C1513.85,-772 1516.73,-772 1519.64,-772"/>
<polygon fill="white" stroke="white" points="1519.49,-775.5 1529.49,-772 1519.49,-768.5 1519.49,-775.5"/>
</g>
<!-- node_System(2) -->
<g id="node7" class="node">
<title>node_System(2)</title>
<polygon fill="#eff1f3" stroke="#eff1f3" points="1503,-754 1342,-754 1342,-718 1503,-718 1503,-754"/>
<text text-anchor="middle" x="1422.5" y="-732.3" font-family="Times,serif" font-size="14.00">apply_system_buffers</text>
</g>
<!-- set_marker_node_Set(4) -->
<!-- set_marker_node_Set(10) -->
<!-- set_marker_node_Set(4)&#45;&gt;set_marker_node_Set(10) -->
<g id="edge7" class="edge">
<title>set_marker_node_Set(4)&#45;&gt;set_marker_node_Set(10)</title>
<path fill="none" stroke="white" d="M2095.5,-347C2114.87,-347 2135.81,-347 2156.53,-347"/>
<polygon fill="white" stroke="white" points="2156.49,-350.5 2166.49,-347 2156.49,-343.5 2156.49,-350.5"/>
</g>
<!-- node_System(3) -->
<g id="node9" class="node">
<title>node_System(3)</title>
<polygon fill="#eff1f3" stroke="#eff1f3" points="2087.5,-329 1926.5,-329 1926.5,-293 2087.5,-293 2087.5,-329"/>
<text text-anchor="middle" x="2007" y="-307.3" font-family="Times,serif" font-size="14.00">apply_system_buffers</text>
</g>
<!-- set_marker_node_Set(5) -->
<!-- set_marker_node_Set(11) -->
<!-- set_marker_node_Set(5)&#45;&gt;set_marker_node_Set(11) -->
<g id="edge9" class="edge">
<title>set_marker_node_Set(5)&#45;&gt;set_marker_node_Set(11)</title>
<path fill="none" stroke="white" d="M2609,-300C2611.85,-300 2614.73,-300 2617.62,-300"/>
<polygon fill="white" stroke="white" points="2617.49,-303.5 2627.49,-300 2617.49,-296.5 2617.49,-303.5"/>
</g>
<!-- node_System(4) -->
<g id="node11" class="node">
<title>node_System(4)</title>
<polygon fill="#eff1f3" stroke="#eff1f3" points="2601,-282 2440,-282 2440,-246 2601,-246 2601,-282"/>
<text text-anchor="middle" x="2520.5" y="-260.3" font-family="Times,serif" font-size="14.00">apply_system_buffers</text>
</g>
<!-- set_marker_node_Set(6) -->
<!-- node_System(5) -->
<g id="node13" class="node">
<title>node_System(5)</title>
<polygon fill="#eff1f3" stroke="#eff1f3" points="3052,-282 2891,-282 2891,-246 3052,-246 3052,-282"/>
<text text-anchor="middle" x="2971.5" y="-260.3" font-family="Times,serif" font-size="14.00">apply_system_buffers</text>
</g>
<!-- set_marker_node_Set(7)&#45;&gt;set_marker_node_Set(2) -->
<g id="edge2" class="edge">
<title>set_marker_node_Set(7)&#45;&gt;set_marker_node_Set(2)</title>
<path fill="none" stroke="white" d="M732.38,-914C733.84,-912 735.31,-910 736.77,-908"/>
<polygon fill="white" stroke="white" points="734.26,-917.35 737.34,-907.22 728.61,-913.22 734.26,-917.35"/>
</g>
<!-- set_marker_node_Set(16) -->
<!-- node_System(12) -->
<g id="node30" class="node">
<title>node_System(12)</title>
<polygon fill="#eff1f3" stroke="#eff1f3" points="840,-1855 678,-1855 678,-1819 840,-1819 840,-1855"/>
<text text-anchor="middle" x="759" y="-1833.3" font-family="Times,serif" font-size="14.00">prepare_view_targets</text>
</g>
<!-- set_marker_node_Set(16)&#45;&gt;node_System(12) -->
<g id="edge12" class="edge">
<title>set_marker_node_Set(16)&#45;&gt;node_System(12)</title>
<path fill="none" stroke="white" d="M489,-1837C541.24,-1837 611.04,-1837 666.46,-1837"/>
<polygon fill="white" stroke="white" points="666.38,-1840.5 676.38,-1837 666.38,-1833.5 666.38,-1840.5"/>
</g>
<!-- node_System(10) -->
<g id="node16" class="node">
<title>node_System(10)</title>
<polygon fill="#eff1f3" stroke="#eff1f3" points="481,-1819 344,-1819 344,-1783 481,-1783 481,-1819"/>
<text text-anchor="middle" x="412.5" y="-1797.3" font-family="Times,serif" font-size="14.00">prepare_windows</text>
</g>
<!-- set_marker_node_Set(18) -->
<!-- node_System(11) -->
<g id="node18" class="node">
<title>node_System(11)</title>
<polygon fill="#eff1f3" stroke="#eff1f3" points="848,-1200 670,-1200 670,-1164 848,-1164 848,-1200"/>
<text text-anchor="middle" x="759" y="-1178.3" font-family="Times,serif" font-size="14.00">prepare_view_uniforms</text>
</g>
<!-- set_marker_node_Set(21) -->
<!-- set_marker_node_Set(22) -->
<!-- set_marker_node_Set(21)&#45;&gt;set_marker_node_Set(22) -->
<g id="edge13" class="edge">
<title>set_marker_node_Set(21)&#45;&gt;set_marker_node_Set(22)</title>
<path fill="none" stroke="white" d="M507,-1739.1C532.7,-1737.8 560.29,-1734.38 585,-1727 602.75,-1721.7 603.19,-1711.09 621,-1706 632.19,-1702.8 644.1,-1700.68 656.05,-1699.33"/>
<polygon fill="white" stroke="white" points="656.36,-1702.82 666,-1698.42 655.72,-1695.85 656.36,-1702.82"/>
</g>
<!-- node_System(32) -->
<g id="node37" class="node">
<title>node_System(32)</title>
<polygon fill="#eff1f3" stroke="#eff1f3" points="895.5,-1777 622.5,-1777 622.5,-1741 895.5,-1741 895.5,-1777"/>
<text text-anchor="middle" x="759" y="-1755.3" font-family="Times,serif" font-size="14.00">prepare_materials_2d&lt;ColorMaterial&gt;</text>
</g>
<!-- set_marker_node_Set(21)&#45;&gt;node_System(32) -->
<g id="edge16" class="edge">
<title>set_marker_node_Set(21)&#45;&gt;node_System(32)</title>
<path fill="none" stroke="white" d="M507,-1742.24C538.93,-1744.37 575.46,-1746.81 610.59,-1749.16"/>
<polygon fill="white" stroke="white" points="610.35,-1752.65 620.56,-1749.82 610.82,-1745.67 610.35,-1752.65"/>
</g>
<!-- node_System(42) -->
<g id="node75" class="node">
<title>node_System(42)</title>
<polygon fill="#eff1f3" stroke="#eff1f3" points="897,-803 621,-803 621,-767 897,-767 897,-803"/>
<text text-anchor="middle" x="759" y="-781.3" font-family="Times,serif" font-size="14.00">prepare_materials&lt;StandardMaterial&gt;</text>
</g>
<!-- set_marker_node_Set(21)&#45;&gt;node_System(42) -->
<g id="edge17" class="edge">
<title>set_marker_node_Set(21)&#45;&gt;node_System(42)</title>
<path fill="none" stroke="white" d="M507,-1753.72C535.63,-1753.76 564.85,-1747.42 585,-1727 654.53,-1656.54 559.89,-931.75 620.41,-812.71"/>
<polygon fill="white" stroke="white" points="623.15,-814.92 625.71,-804.64 617.3,-811.08 623.15,-814.92"/>
</g>
<!-- node_System(15) -->
<g id="node20" class="node">
<title>node_System(15)</title>
<polygon fill="#eff1f3" stroke="#eff1f3" points="499,-1718 326,-1718 326,-1682 499,-1682 499,-1718"/>
<text text-anchor="middle" x="412.5" y="-1696.3" font-family="Times,serif" font-size="14.00">prepare_assets&lt;Image&gt;</text>
</g>
<!-- set_marker_node_Set(23) -->
<!-- set_marker_node_Set(22)&#45;&gt;set_marker_node_Set(23) -->
<g id="edge14" class="edge">
<title>set_marker_node_Set(22)&#45;&gt;set_marker_node_Set(23)</title>
<path fill="none" stroke="white" d="M850.5,-1702C909.64,-1702 986.02,-1702 1042.1,-1702"/>
<polygon fill="white" stroke="white" points="1041.99,-1705.5 1051.99,-1702 1041.99,-1698.5 1041.99,-1705.5"/>
</g>
<!-- node_System(13) -->
<g id="node22" class="node">
<title>node_System(13)</title>
<polygon fill="#eff1f3" stroke="#eff1f3" points="842.5,-1684 675.5,-1684 675.5,-1648 842.5,-1648 842.5,-1684"/>
<text text-anchor="middle" x="759" y="-1662.3" font-family="Times,serif" font-size="14.00">prepare_assets&lt;Mesh&gt;</text>
</g>
<!-- set_marker_node_Set(61) -->
<!-- node_System(49) -->
<g id="node25" class="node">
<title>node_System(49)</title>
<polygon fill="#eff1f3" stroke="#eff1f3" points="461.5,-1617 363.5,-1617 363.5,-1581 461.5,-1581 461.5,-1617"/>
<text text-anchor="middle" x="412.5" y="-1595.3" font-family="Times,serif" font-size="14.00">prepare_fog</text>
</g>
<!-- set_marker_node_Set(62) -->
<!-- node_System(51) -->
<g id="node76" class="node">
<title>node_System(51)</title>
<polygon fill="#eff1f3" stroke="#eff1f3" points="839.5,-749 678.5,-749 678.5,-713 839.5,-713 839.5,-749"/>
<text text-anchor="middle" x="759" y="-727.3" font-family="Times,serif" font-size="14.00">apply_system_buffers</text>
</g>
<!-- set_marker_node_Set(62)&#45;&gt;node_System(51) -->
<g id="edge19" class="edge">
<title>set_marker_node_Set(62)&#45;&gt;node_System(51)</title>
<path fill="none" stroke="white" d="M477,-1487.16C519.36,-1490.37 569.94,-1490.66 585,-1476 642.23,-1420.28 568.74,-818.41 621,-758 632.89,-744.26 649.55,-736.25 667.19,-731.79"/>
<polygon fill="white" stroke="white" points="667.71,-735.26 676.77,-729.77 666.27,-728.41 667.71,-735.26"/>
</g>
<!-- node_System(50) -->
<g id="node27" class="node">
<title>node_System(50)</title>
<polygon fill="#eff1f3" stroke="#eff1f3" points="469,-1534 356,-1534 356,-1498 469,-1498 469,-1534"/>
<text text-anchor="middle" x="412.5" y="-1512.3" font-family="Times,serif" font-size="14.00">prepare_lights</text>
</g>
<!-- node_System(50)&#45;&gt;set_marker_node_Set(18) -->
<g id="edge18" class="edge">
<title>node_System(50)&#45;&gt;set_marker_node_Set(18)</title>
<path fill="none" stroke="white" d="M469.4,-1518.54C505.12,-1517.57 550.95,-1511.28 585,-1489 669.59,-1433.65 721.08,-1320.98 743.96,-1259.8"/>
<polygon fill="white" stroke="white" points="747.25,-1261.01 747.39,-1250.42 740.67,-1258.61 747.25,-1261.01"/>
</g>
<!-- node_System(52) -->
<g id="node29" class="node">
<title>node_System(52)</title>
<polygon fill="#eff1f3" stroke="#eff1f3" points="823,-1534 695,-1534 695,-1498 823,-1498 823,-1534"/>
<text text-anchor="middle" x="759" y="-1512.3" font-family="Times,serif" font-size="14.00">prepare_clusters</text>
</g>
<!-- node_System(50)&#45;&gt;node_System(52) -->
<g id="edge21" class="edge">
<title>node_System(50)&#45;&gt;node_System(52)</title>
<path fill="none" stroke="white" d="M469.23,-1516C527.44,-1516 619.06,-1516 683.46,-1516"/>
<polygon fill="white" stroke="white" points="683.23,-1519.5 693.23,-1516 683.23,-1512.5 683.23,-1519.5"/>
</g>
<!-- set_marker_node_Set(63) -->
<!-- node_System(14) -->
<g id="node31" class="node">
<title>node_System(14)</title>
<polygon fill="#eff1f3" stroke="#eff1f3" points="498.5,-1444 326.5,-1444 326.5,-1408 498.5,-1408 498.5,-1444"/>
<text text-anchor="middle" x="412.5" y="-1422.3" font-family="Times,serif" font-size="14.00">prepare_globals_buffer</text>
</g>
<!-- node_System(19) -->
<g id="node32" class="node">
<title>node_System(19)</title>
<polygon fill="#eff1f3" stroke="#eff1f3" points="530.5,-1390 294.5,-1390 294.5,-1354 530.5,-1354 530.5,-1390"/>
<text text-anchor="middle" x="412.5" y="-1368.3" font-family="Times,serif" font-size="14.00">prepare_core_3d_depth_textures</text>
</g>
<!-- node_System(25) -->
<g id="node33" class="node">
<title>node_System(25)</title>
<polygon fill="#eff1f3" stroke="#eff1f3" points="581,-1336 244,-1336 244,-1300 581,-1300 581,-1336"/>
<text text-anchor="middle" x="412.5" y="-1314.3" font-family="Times,serif" font-size="14.00">prepare_uniform_components&lt;BloomUniform&gt;</text>
</g>
<!-- node_System(26) -->
<g id="node34" class="node">
<title>node_System(26)</title>
<polygon fill="#eff1f3" stroke="#eff1f3" points="503.5,-1282 321.5,-1282 321.5,-1246 503.5,-1246 503.5,-1282"/>
<text text-anchor="middle" x="412.5" y="-1260.3" font-family="Times,serif" font-size="14.00">prepare_bloom_textures</text>
</g>
<!-- node_System(28) -->
<g id="node35" class="node">
<title>node_System(28)</title>
<polygon fill="#eff1f3" stroke="#eff1f3" points="499,-1228 326,-1228 326,-1192 499,-1192 499,-1228"/>
<text text-anchor="middle" x="412.5" y="-1206.3" font-family="Times,serif" font-size="14.00">prepare_fxaa_pipelines</text>
</g>
<!-- node_System(29) -->
<g id="node36" class="node">
<title>node_System(29)</title>
<polygon fill="#eff1f3" stroke="#eff1f3" points="585,-1174 240,-1174 240,-1138 585,-1138 585,-1174"/>
<text text-anchor="middle" x="412.5" y="-1152.3" font-family="Times,serif" font-size="14.00">prepare_uniform_components&lt;Mesh2dUniform&gt;</text>
</g>
<!-- node_System(35) -->
<g id="node38" class="node">
<title>node_System(35)</title>
<polygon fill="#eff1f3" stroke="#eff1f3" points="477,-1120 348,-1120 348,-1084 477,-1084 477,-1120"/>
<text text-anchor="middle" x="412.5" y="-1098.3" font-family="Times,serif" font-size="14.00">prepare_uinodes</text>
</g>
<!-- node_System(38) -->
<g id="node39" class="node">
<title>node_System(38)</title>
<polygon fill="#eff1f3" stroke="#eff1f3" points="577,-1066 248,-1066 248,-1030 577,-1030 577,-1066"/>
<text text-anchor="middle" x="412.5" y="-1044.3" font-family="Times,serif" font-size="14.00">prepare_uniform_components&lt;MeshUniform&gt;</text>
</g>
<!-- node_System(39) -->
<g id="node40" class="node">
<title>node_System(39)</title>
<polygon fill="#eff1f3" stroke="#eff1f3" points="505,-1012 320,-1012 320,-976 505,-976 505,-1012"/>
<text text-anchor="middle" x="412.5" y="-990.3" font-family="Times,serif" font-size="14.00">prepare_skinned_meshes</text>
</g>
<!-- node_System(44) -->
<g id="node41" class="node">
<title>node_System(44)</title>
<polygon fill="#eff1f3" stroke="#eff1f3" points="507.5,-958 317.5,-958 317.5,-922 507.5,-922 507.5,-958"/>
<text text-anchor="middle" x="412.5" y="-936.3" font-family="Times,serif" font-size="14.00">prepare_prepass_textures</text>
</g>
<!-- set_marker_node_Set(8)&#45;&gt;set_marker_node_Set(3) -->
<g id="edge4" class="edge">
<title>set_marker_node_Set(8)&#45;&gt;set_marker_node_Set(3)</title>
<path fill="none" stroke="white" d="M1314,-772C1316.86,-772 1319.7,-772 1322.5,-772"/>
<polygon fill="white" stroke="white" points="1322.49,-775.5 1332.49,-772 1322.49,-768.5 1322.49,-775.5"/>
</g>
<!-- set_marker_node_Set(64) -->
<!-- node_System(53) -->
<g id="node44" class="node">
<title>node_System(53)</title>
<polygon fill="#eff1f3" stroke="#eff1f3" points="1180.5,-826 1058.5,-826 1058.5,-790 1180.5,-790 1180.5,-826"/>
<text text-anchor="middle" x="1119.5" y="-804.3" font-family="Times,serif" font-size="14.00">queue_shadows</text>
</g>
<!-- node_System(23) -->
<g id="node45" class="node">
<title>node_System(23)</title>
<polygon fill="#eff1f3" stroke="#eff1f3" points="1249.5,-754 989.5,-754 989.5,-718 1249.5,-718 1249.5,-754"/>
<text text-anchor="middle" x="1119.5" y="-732.3" font-family="Times,serif" font-size="14.00">queue_view_tonemapping_pipelines</text>
</g>
<!-- node_System(24) -->
<g id="node46" class="node">
<title>node_System(24)</title>
<polygon fill="#eff1f3" stroke="#eff1f3" points="1236.5,-700 1002.5,-700 1002.5,-664 1236.5,-664 1236.5,-700"/>
<text text-anchor="middle" x="1119.5" y="-678.3" font-family="Times,serif" font-size="14.00">queue_view_upscaling_pipelines</text>
</g>
<!-- node_System(27) -->
<g id="node47" class="node">
<title>node_System(27)</title>
<polygon fill="#eff1f3" stroke="#eff1f3" points="1218,-646 1021,-646 1021,-610 1218,-610 1218,-646"/>
<text text-anchor="middle" x="1119.5" y="-624.3" font-family="Times,serif" font-size="14.00">queue_bloom_bind_groups</text>
</g>
<!-- node_System(30) -->
<g id="node48" class="node">
<title>node_System(30)</title>
<polygon fill="#eff1f3" stroke="#eff1f3" points="1219.5,-592 1019.5,-592 1019.5,-556 1219.5,-556 1219.5,-592"/>
<text text-anchor="middle" x="1119.5" y="-570.3" font-family="Times,serif" font-size="14.00">queue_mesh2d_bind_group</text>
</g>
<!-- node_System(31) -->
<g id="node49" class="node">
<title>node_System(31)</title>
<polygon fill="#eff1f3" stroke="#eff1f3" points="1242,-538 997,-538 997,-502 1242,-502 1242,-538"/>
<text text-anchor="middle" x="1119.5" y="-516.3" font-family="Times,serif" font-size="14.00">queue_mesh2d_view_bind_groups</text>
</g>
<!-- node_System(33) -->
<g id="node50" class="node">
<title>node_System(33)</title>
<polygon fill="#eff1f3" stroke="#eff1f3" points="1272,-484 967,-484 967,-448 1272,-448 1272,-484"/>
<text text-anchor="middle" x="1119.5" y="-462.3" font-family="Times,serif" font-size="14.00">queue_material2d_meshes&lt;ColorMaterial&gt;</text>
</g>
<!-- node_System(34) -->
<g id="node51" class="node">
<title>node_System(34)</title>
<polygon fill="#eff1f3" stroke="#eff1f3" points="1174,-430 1065,-430 1065,-394 1174,-394 1174,-430"/>
<text text-anchor="middle" x="1119.5" y="-408.3" font-family="Times,serif" font-size="14.00">queue_sprites</text>
</g>
<!-- node_System(36) -->
<g id="node52" class="node">
<title>node_System(36)</title>
<polygon fill="#eff1f3" stroke="#eff1f3" points="1178,-376 1061,-376 1061,-340 1178,-340 1178,-376"/>
<text text-anchor="middle" x="1119.5" y="-354.3" font-family="Times,serif" font-size="14.00">queue_uinodes</text>
</g>
<!-- node_System(40) -->
<g id="node53" class="node">
<title>node_System(40)</title>
<polygon fill="#eff1f3" stroke="#eff1f3" points="1211.5,-322 1027.5,-322 1027.5,-286 1211.5,-286 1211.5,-322"/>
<text text-anchor="middle" x="1119.5" y="-300.3" font-family="Times,serif" font-size="14.00">queue_mesh_bind_group</text>
</g>
<!-- node_System(41) -->
<g id="node54" class="node">
<title>node_System(41)</title>
<polygon fill="#eff1f3" stroke="#eff1f3" points="1234,-268 1005,-268 1005,-232 1234,-232 1234,-268"/>
<text text-anchor="middle" x="1119.5" y="-246.3" font-family="Times,serif" font-size="14.00">queue_mesh_view_bind_groups</text>
</g>
<!-- node_System(43) -->
<g id="node55" class="node">
<title>node_System(43)</title>
<polygon fill="#eff1f3" stroke="#eff1f3" points="1276.5,-214 962.5,-214 962.5,-178 1276.5,-178 1276.5,-214"/>
<text text-anchor="middle" x="1119.5" y="-192.3" font-family="Times,serif" font-size="14.00">queue_material_meshes&lt;StandardMaterial&gt;</text>
</g>
<!-- node_System(45) -->
<g id="node56" class="node">
<title>node_System(45)</title>
<polygon fill="#eff1f3" stroke="#eff1f3" points="1306,-160 933,-160 933,-124 1306,-124 1306,-160"/>
<text text-anchor="middle" x="1119.5" y="-138.3" font-family="Times,serif" font-size="14.00">queue_prepass_view_bind_group&lt;StandardMaterial&gt;</text>
</g>
<!-- node_System(46) -->
<g id="node57" class="node">
<title>node_System(46)</title>
<polygon fill="#eff1f3" stroke="#eff1f3" points="1305.5,-106 933.5,-106 933.5,-70 1305.5,-70 1305.5,-106"/>
<text text-anchor="middle" x="1119.5" y="-84.3" font-family="Times,serif" font-size="14.00">queue_prepass_material_meshes&lt;StandardMaterial&gt;</text>
</g>
<!-- node_System(54) -->
<g id="node58" class="node">
<title>node_System(54)</title>
<polygon fill="#eff1f3" stroke="#eff1f3" points="1239,-52 1000,-52 1000,-16 1239,-16 1239,-52"/>
<text text-anchor="middle" x="1119.5" y="-30.3" font-family="Times,serif" font-size="14.00">queue_shadow_view_bind_group</text>
</g>
<!-- set_marker_node_Set(9)&#45;&gt;set_marker_node_Set(4) -->
<g id="edge6" class="edge">
<title>set_marker_node_Set(9)&#45;&gt;set_marker_node_Set(4)</title>
<path fill="none" stroke="white" d="M1870.94,-386C1871.91,-384.6 1872.93,-383.26 1874,-382 1883.05,-371.31 1894.96,-363.69 1907.92,-358.3"/>
<polygon fill="white" stroke="white" points="1908.89,-361.67 1917.08,-354.95 1906.49,-355.09 1908.89,-361.67"/>
</g>
<!-- node_System(17) -->
<g id="node60" class="node">
<title>node_System(17)</title>
<polygon fill="#eff1f3" stroke="#eff1f3" points="1816,-826 1561,-826 1561,-790 1816,-790 1816,-826"/>
<text text-anchor="middle" x="1688.5" y="-804.3" font-family="Times,serif" font-size="14.00">sort_phase_system&lt;Transparent2d&gt;</text>
</g>
<!-- node_System(18) -->
<g id="node61" class="node">
<title>node_System(18)</title>
<polygon fill="#eff1f3" stroke="#eff1f3" points="2140,-826 1874,-826 1874,-790 2140,-790 2140,-826"/>
<text text-anchor="middle" x="2007" y="-804.3" font-family="Times,serif" font-size="14.00">batch_phase_system&lt;Transparent2d&gt;</text>
</g>
<!-- node_System(17)&#45;&gt;node_System(18) -->
<g id="edge15" class="edge">
<title>node_System(17)&#45;&gt;node_System(18)</title>
<path fill="none" stroke="white" d="M1816.41,-808C1831.56,-808 1847.12,-808 1862.48,-808"/>
<polygon fill="white" stroke="white" points="1862.12,-811.5 1872.12,-808 1862.12,-804.5 1862.12,-811.5"/>
</g>
<!-- node_System(20) -->
<g id="node62" class="node">
<title>node_System(20)</title>
<polygon fill="#eff1f3" stroke="#eff1f3" points="1800.5,-754 1576.5,-754 1576.5,-718 1800.5,-718 1800.5,-754"/>
<text text-anchor="middle" x="1688.5" y="-732.3" font-family="Times,serif" font-size="14.00">sort_phase_system&lt;Opaque3d&gt;</text>
</g>
<!-- node_System(21) -->
<g id="node63" class="node">
<title>node_System(21)</title>
<polygon fill="#eff1f3" stroke="#eff1f3" points="1812.5,-700 1564.5,-700 1564.5,-664 1812.5,-664 1812.5,-700"/>
<text text-anchor="middle" x="1688.5" y="-678.3" font-family="Times,serif" font-size="14.00">sort_phase_system&lt;AlphaMask3d&gt;</text>
</g>
<!-- node_System(22) -->
<g id="node64" class="node">
<title>node_System(22)</title>
<polygon fill="#eff1f3" stroke="#eff1f3" points="1816,-646 1561,-646 1561,-610 1816,-610 1816,-646"/>
<text text-anchor="middle" x="1688.5" y="-624.3" font-family="Times,serif" font-size="14.00">sort_phase_system&lt;Transparent3d&gt;</text>
</g>
<!-- node_System(37) -->
<g id="node65" class="node">
<title>node_System(37)</title>
<polygon fill="#eff1f3" stroke="#eff1f3" points="1815.5,-592 1561.5,-592 1561.5,-556 1815.5,-556 1815.5,-592"/>
<text text-anchor="middle" x="1688.5" y="-570.3" font-family="Times,serif" font-size="14.00">sort_phase_system&lt;TransparentUi&gt;</text>
</g>
<!-- node_System(47) -->
<g id="node66" class="node">
<title>node_System(47)</title>
<polygon fill="#eff1f3" stroke="#eff1f3" points="1826,-538 1551,-538 1551,-502 1826,-502 1826,-538"/>
<text text-anchor="middle" x="1688.5" y="-516.3" font-family="Times,serif" font-size="14.00">sort_phase_system&lt;Opaque3dPrepass&gt;</text>
</g>
<!-- node_System(48) -->
<g id="node67" class="node">
<title>node_System(48)</title>
<polygon fill="#eff1f3" stroke="#eff1f3" points="1838,-484 1539,-484 1539,-448 1838,-448 1838,-484"/>
<text text-anchor="middle" x="1688.5" y="-462.3" font-family="Times,serif" font-size="14.00">sort_phase_system&lt;AlphaMask3dPrepass&gt;</text>
</g>
<!-- node_System(55) -->
<g id="node68" class="node">
<title>node_System(55)</title>
<polygon fill="#eff1f3" stroke="#eff1f3" points="1793.5,-430 1583.5,-430 1583.5,-394 1793.5,-394 1793.5,-430"/>
<text text-anchor="middle" x="1688.5" y="-408.3" font-family="Times,serif" font-size="14.00">sort_phase_system&lt;Shadow&gt;</text>
</g>
<!-- set_marker_node_Set(10)&#45;&gt;set_marker_node_Set(5) -->
<g id="edge8" class="edge">
<title>set_marker_node_Set(10)&#45;&gt;set_marker_node_Set(5)</title>
<path fill="none" stroke="white" d="M2329.88,-339C2354.94,-333.85 2388.75,-326.89 2420.87,-320.29"/>
<polygon fill="white" stroke="white" points="2421.43,-323.75 2430.52,-318.3 2420.02,-316.89 2421.43,-323.75"/>
</g>
<!-- node_System(7) -->
<g id="node70" class="node">
<title>node_System(7)</title>
<polygon fill="#eff1f3" stroke="#eff1f3" points="2404,-401 2176,-401 2176,-365 2404,-365 2404,-401"/>
<text text-anchor="middle" x="2290" y="-379.3" font-family="Times,serif" font-size="14.00">process_pipeline_queue_system</text>
</g>
<!-- node_System(8) -->
<g id="node71" class="node">
<title>node_System(8)</title>
<polygon fill="#eff1f3" stroke="#eff1f3" points="2578.5,-401 2462.5,-401 2462.5,-365 2578.5,-365 2578.5,-401"/>
<text text-anchor="middle" x="2520.5" y="-379.3" font-family="Times,serif" font-size="14.00">render_system</text>
</g>
<!-- node_System(7)&#45;&gt;node_System(8) -->
<g id="edge11" class="edge">
<title>node_System(7)&#45;&gt;node_System(8)</title>
<path fill="none" stroke="white" d="M2404.25,-383C2420.1,-383 2435.97,-383 2450.65,-383"/>
<polygon fill="white" stroke="white" points="2450.64,-386.5 2460.64,-383 2450.64,-379.5 2450.64,-386.5"/>
</g>
<!-- set_marker_node_Set(11)&#45;&gt;set_marker_node_Set(6) -->
<g id="edge10" class="edge">
<title>set_marker_node_Set(11)&#45;&gt;set_marker_node_Set(6)</title>
<path fill="none" stroke="white" d="M2863,-300C2865.95,-300 2868.9,-300 2871.84,-300"/>
<polygon fill="white" stroke="white" points="2871.49,-303.5 2881.49,-300 2871.49,-296.5 2871.49,-303.5"/>
</g>
<!-- node_System(9) -->
<g id="node73" class="node">
<title>node_System(9)</title>
<polygon fill="#eff1f3" stroke="#eff1f3" points="2799.5,-282 2692.5,-282 2692.5,-246 2799.5,-246 2799.5,-282"/>
<text text-anchor="middle" x="2746" y="-260.3" font-family="Times,serif" font-size="14.00">clear_entities</text>
</g>
<!-- node_System(16) -->
<g id="node74" class="node">
<title>node_System(16)</title>
<polygon fill="#eff1f3" stroke="#eff1f3" points="2855,-228 2637,-228 2637,-192 2855,-192 2855,-228"/>
<text text-anchor="middle" x="2746" y="-206.3" font-family="Times,serif" font-size="14.00">update_texture_cache_system</text>
</g>
<!-- node_System(51)&#45;&gt;set_marker_node_Set(18) -->
<g id="edge20" class="edge">
<title>node_System(51)&#45;&gt;set_marker_node_Set(18)</title>
<path fill="none" stroke="white" d="M678.28,-727.63C648.73,-731.16 618.71,-741.58 603,-767 590.35,-787.46 590.35,-1179.54 603,-1200 613.6,-1217.16 631.11,-1225.9 650.64,-1229.66"/>
<polygon fill="white" stroke="white" points="650.11,-1233.12 660.51,-1231.08 651.1,-1226.19 650.11,-1233.12"/>
</g>
</g>
</svg>
