<?xml version="1.0" encoding="UTF-8" standalone="no"?>
<!DOCTYPE svg PUBLIC "-//W3C//DTD SVG 1.1//EN"
 "http://www.w3.org/Graphics/SVG/1.1/DTD/svg11.dtd">
<!-- Generated by graphviz version 7.0.0 (0)
 -->
<!-- Title: RenderGraph Pages: 1 -->
<svg width="1488pt" height="734pt"
 viewBox="0.00 0.00 1488.00 734.00" xmlns="http://www.w3.org/2000/svg" xmlns:xlink="http://www.w3.org/1999/xlink">
<g id="graph0" class="graph" transform="scale(1 1) rotate(0) translate(4 730)">
<title>RenderGraph</title>
<polygon fill="#35393f" stroke="none" points="-4,4 -4,-730 1484,-730 1484,4 -4,4"/>
<g id="clust1" class="cluster">
<title>cluster_core_2d</title>
<path fill="#5e6570" stroke="#5e6570" d="M20,-8C20,-8 1263.5,-8 1263.5,-8 1269.5,-8 1275.5,-14 1275.5,-20 1275.5,-20 1275.5,-316 1275.5,-316 1275.5,-322 1269.5,-328 1263.5,-328 1263.5,-328 20,-328 20,-328 14,-328 8,-322 8,-316 8,-316 8,-20 8,-20 8,-14 14,-8 20,-8"/>
<text text-anchor="middle" x="641.75" y="-312.8" font-family="Times,serif" font-size="14.00">core_2d</text>
</g>
<g id="clust2" class="cluster">
<title>cluster_core_2d_draw_ui</title>
<path fill="#6a83aa" stroke="#6a83aa" d="M28,-192C28,-192 484.5,-192 484.5,-192 490.5,-192 496.5,-198 496.5,-204 496.5,-204 496.5,-285 496.5,-285 496.5,-291 490.5,-297 484.5,-297 484.5,-297 28,-297 28,-297 22,-297 16,-291 16,-285 16,-285 16,-204 16,-204 16,-198 22,-192 28,-192"/>
<text text-anchor="middle" x="256.25" y="-281.8" font-family="Times,serif" font-size="14.00">draw_ui</text>
</g>
<g id="clust3" class="cluster">
<title>cluster_core_3d</title>
<path fill="#5e6570" stroke="#5e6570" d="M20,-336C20,-336 1460,-336 1460,-336 1466,-336 1472,-342 1472,-348 1472,-348 1472,-664 1472,-664 1472,-670 1466,-676 1460,-676 1460,-676 20,-676 20,-676 14,-676 8,-670 8,-664 8,-664 8,-348 8,-348 8,-342 14,-336 20,-336"/>
<text text-anchor="middle" x="740" y="-660.8" font-family="Times,serif" font-size="14.00">core_3d</text>
</g>
<g id="clust4" class="cluster">
<title>cluster_core_3d_draw_ui</title>
<path fill="#6a83aa" stroke="#6a83aa" d="M28,-540C28,-540 484.5,-540 484.5,-540 490.5,-540 496.5,-546 496.5,-552 496.5,-552 496.5,-633 496.5,-633 496.5,-639 490.5,-645 484.5,-645 484.5,-645 28,-645 28,-645 22,-645 16,-639 16,-633 16,-633 16,-552 16,-552 16,-546 22,-540 28,-540"/>
<text text-anchor="middle" x="256.25" y="-629.8" font-family="Times,serif" font-size="14.00">draw_ui</text>
</g>
<!-- _core_2d_draw_ui__core_2d_draw_uiGraphInputNode -->
<g id="node1" class="node">
<title>_core_2d_draw_ui__core_2d_draw_uiGraphInputNode</title>
<text text-anchor="start" x="107" y="-245.8" font-family="Helvetica,sans-Serif" font-size="14.00" fill="white">GraphInputNode</text>
<text text-anchor="start" x="123" y="-235" font-family="Helvetica,sans-Serif" font-size="10.00" fill="red">GraphInputNode</text>
<polygon fill="none" stroke="#99aab5" points="35,-207 35,-228 162,-228 162,-207 35,-207"/>
<text text-anchor="start" x="38" y="-213.8" font-family="Helvetica,sans-Serif" font-size="14.00" fill="white">view_entity: Entity</text>
<polygon fill="none" stroke="#99aab5" points="164,-207 164,-228 291,-228 291,-207 164,-207"/>
<text text-anchor="start" x="167" y="-213.8" font-family="Helvetica,sans-Serif" font-size="14.00" fill="white">view_entity: Entity</text>
<path fill="none" stroke="#99aab5" d="M44,-204.5C44,-204.5 282,-204.5 282,-204.5 288,-204.5 294,-210.5 294,-216.5 294,-216.5 294,-249.5 294,-249.5 294,-255.5 288,-261.5 282,-261.5 282,-261.5 44,-261.5 44,-261.5 38,-261.5 32,-255.5 32,-249.5 32,-249.5 32,-216.5 32,-216.5 32,-210.5 38,-204.5 44,-204.5"/>
</g>
<!-- _core_2d_draw_ui__core_2d_draw_uiui_pass -->
<g id="node2" class="node">
<title>_core_2d_draw_ui__core_2d_draw_uiui_pass</title>
<text text-anchor="start" x="407" y="-245.8" font-family="Helvetica,sans-Serif" font-size="14.00" fill="white">ui_pass</text>
<text text-anchor="start" x="403.5" y="-235" font-family="Helvetica,sans-Serif" font-size="10.00" fill="red">UiPassNode</text>
<polygon fill="none" stroke="#99aab5" points="385.5,-207 385.5,-228 467.5,-228 467.5,-207 385.5,-207"/>
<text text-anchor="start" x="388.5" y="-213.8" font-family="Helvetica,sans-Serif" font-size="14.00" fill="white">view: Entity</text>
<text text-anchor="start" x="471.5" y="-213.8" font-family="Helvetica,sans-Serif" font-size="14.00" fill="white"> </text>
<path fill="none" stroke="#99aab5" d="M394.5,-204.5C394.5,-204.5 468.5,-204.5 468.5,-204.5 474.5,-204.5 480.5,-210.5 480.5,-216.5 480.5,-216.5 480.5,-249.5 480.5,-249.5 480.5,-255.5 474.5,-261.5 468.5,-261.5 468.5,-261.5 394.5,-261.5 394.5,-261.5 388.5,-261.5 382.5,-255.5 382.5,-249.5 382.5,-249.5 382.5,-216.5 382.5,-216.5 382.5,-210.5 388.5,-204.5 394.5,-204.5"/>
</g>
<!-- _core_2d_draw_ui__core_2d_draw_uiGraphInputNode&#45;&gt;_core_2d_draw_ui__core_2d_draw_uiui_pass -->
<g id="edge1" class="edge">
<title>_core_2d_draw_ui__core_2d_draw_uiGraphInputNode:e&#45;&gt;_core_2d_draw_ui__core_2d_draw_uiui_pass:w</title>
<path fill="none" stroke="white" d="M292,-217C329.1,-217 341.09,-217 373.28,-217"/>
<polygon fill="white" stroke="white" points="372.99,-220.5 382.99,-217 372.99,-213.5 372.99,-220.5"/>
</g>
<!-- _core_2d__core_2dbloom_2d -->
<g id="node3" class="node">
<title>_core_2d__core_2dbloom_2d</title>
<text text-anchor="start" x="586" y="-121.8" font-family="Helvetica,sans-Serif" font-size="14.00" fill="white">bloom_2d</text>
<text text-anchor="start" x="590" y="-111" font-family="Helvetica,sans-Serif" font-size="10.00" fill="red">BloomNode</text>
<polygon fill="none" stroke="#99aab5" points="572,-83 572,-104 654,-104 654,-83 572,-83"/>
<text text-anchor="start" x="575" y="-89.8" font-family="Helvetica,sans-Serif" font-size="14.00" fill="white">view: Entity</text>
<text text-anchor="start" x="658" y="-89.8" font-family="Helvetica,sans-Serif" font-size="14.00" fill="white"> </text>
<path fill="none" stroke="#99aab5" d="M581,-80.5C581,-80.5 655,-80.5 655,-80.5 661,-80.5 667,-86.5 667,-92.5 667,-92.5 667,-125.5 667,-125.5 667,-131.5 661,-137.5 655,-137.5 655,-137.5 581,-137.5 581,-137.5 575,-137.5 569,-131.5 569,-125.5 569,-125.5 569,-92.5 569,-92.5 569,-86.5 575,-80.5 581,-80.5"/>
</g>
<!-- _core_2d__core_2dtonemapping -->
<g id="node6" class="node">
<title>_core_2d__core_2dtonemapping</title>
<text text-anchor="start" x="761.5" y="-121.8" font-family="Helvetica,sans-Serif" font-size="14.00" fill="white">tonemapping</text>
<text text-anchor="start" x="761.5" y="-111" font-family="Helvetica,sans-Serif" font-size="10.00" fill="red">TonemappingNode</text>
<polygon fill="none" stroke="#99aab5" points="758.5,-83 758.5,-104 841.5,-104 841.5,-83 758.5,-83"/>
<text text-anchor="start" x="762" y="-89.8" font-family="Helvetica,sans-Serif" font-size="14.00" fill="white">view: Entity</text>
<text text-anchor="start" x="846.5" y="-89.8" font-family="Helvetica,sans-Serif" font-size="14.00" fill="white"> </text>
<path fill="none" stroke="#99aab5" d="M767,-80.5C767,-80.5 844,-80.5 844,-80.5 850,-80.5 856,-86.5 856,-92.5 856,-92.5 856,-125.5 856,-125.5 856,-131.5 850,-137.5 844,-137.5 844,-137.5 767,-137.5 767,-137.5 761,-137.5 755,-131.5 755,-125.5 755,-125.5 755,-92.5 755,-92.5 755,-86.5 761,-80.5 767,-80.5"/>
</g>
<!-- _core_2d__core_2dbloom_2d&#45;&gt;_core_2d__core_2dtonemapping -->
<g id="edge9" class="edge">
<title>_core_2d__core_2dbloom_2d:e&#45;&gt;_core_2d__core_2dtonemapping:w</title>
<path fill="none" stroke="white" d="M665,-120C702.1,-120 714.09,-120 746.28,-120"/>
<polygon fill="white" stroke="white" points="745.99,-123.5 755.99,-120 745.99,-116.5 745.99,-123.5"/>
</g>
<!-- _core_2d__core_2dmain_pass -->
<g id="node4" class="node">
<title>_core_2d__core_2dmain_pass</title>
<text text-anchor="start" x="397" y="-141.8" font-family="Helvetica,sans-Serif" font-size="14.00" fill="white">main_pass</text>
<text text-anchor="start" x="391" y="-131" font-family="Helvetica,sans-Serif" font-size="10.00" fill="red">MainPass2dNode</text>
<polygon fill="none" stroke="#99aab5" points="385.5,-103 385.5,-124 467.5,-124 467.5,-103 385.5,-103"/>
<text text-anchor="start" x="388.5" y="-109.8" font-family="Helvetica,sans-Serif" font-size="14.00" fill="white">view: Entity</text>
<text text-anchor="start" x="471.5" y="-109.8" font-family="Helvetica,sans-Serif" font-size="14.00" fill="white"> </text>
<path fill="none" stroke="#99aab5" d="M394.5,-100.5C394.5,-100.5 468.5,-100.5 468.5,-100.5 474.5,-100.5 480.5,-106.5 480.5,-112.5 480.5,-112.5 480.5,-145.5 480.5,-145.5 480.5,-151.5 474.5,-157.5 468.5,-157.5 468.5,-157.5 394.5,-157.5 394.5,-157.5 388.5,-157.5 382.5,-151.5 382.5,-145.5 382.5,-145.5 382.5,-112.5 382.5,-112.5 382.5,-106.5 388.5,-100.5 394.5,-100.5"/>
</g>
<!-- _core_2d__core_2dmain_pass&#45;&gt;_core_2d__core_2dbloom_2d -->
<g id="edge3" class="edge">
<title>_core_2d__core_2dmain_pass:e&#45;&gt;_core_2d__core_2dbloom_2d:w</title>
<path fill="none" stroke="white" d="M478.5,-140C516.45,-140 526.98,-123.72 559.58,-120.53"/>
<polygon fill="white" stroke="white" points="559.66,-124.03 569.49,-120.07 559.34,-117.04 559.66,-124.03"/>
</g>
<!-- _core_2d__core_2dmain_pass&#45;&gt;_core_2d__core_2dtonemapping -->
<g id="edge8" class="edge">
<title>_core_2d__core_2dmain_pass:e&#45;&gt;_core_2d__core_2dtonemapping:w</title>
<path fill="none" stroke="white" d="M478.5,-140C515.49,-140 524.09,-148.55 561,-151 611.56,-154.36 625.15,-160.06 675,-151 709.47,-144.74 716.94,-124.87 746.17,-120.75"/>
<polygon fill="white" stroke="white" points="746.24,-124.26 755.99,-120.1 745.78,-117.27 746.24,-124.26"/>
</g>
<!-- _core_2d__core_2dui_pass -->
<g id="node9" class="node">
<title>_core_2d__core_2dui_pass</title>
<text text-anchor="start" x="979.5" y="-185.8" font-family="Helvetica,sans-Serif" font-size="14.00" fill="white">ui_pass</text>
<text text-anchor="start" x="950.5" y="-175" font-family="Helvetica,sans-Serif" font-size="10.00" fill="red">RunGraphOnViewNode</text>
<polygon fill="none" stroke="#99aab5" points="947.5,-147 947.5,-168 1039.5,-168 1039.5,-147 947.5,-147"/>
<text text-anchor="start" x="955.5" y="-153.8" font-family="Helvetica,sans-Serif" font-size="14.00" fill="white">view: Entity</text>
<text text-anchor="start" x="1049" y="-153.8" font-family="Helvetica,sans-Serif" font-size="14.00" fill="white"> </text>
<path fill="none" stroke="#99aab5" d="M956,-144.5C956,-144.5 1051,-144.5 1051,-144.5 1057,-144.5 1063,-150.5 1063,-156.5 1063,-156.5 1063,-189.5 1063,-189.5 1063,-195.5 1057,-201.5 1051,-201.5 1051,-201.5 956,-201.5 956,-201.5 950,-201.5 944,-195.5 944,-189.5 944,-189.5 944,-156.5 944,-156.5 944,-150.5 950,-144.5 956,-144.5"/>
</g>
<!-- _core_2d__core_2dmain_pass&#45;&gt;_core_2d__core_2dui_pass -->
<g id="edge13" class="edge">
<title>_core_2d__core_2dmain_pass:e&#45;&gt;_core_2d__core_2dui_pass:w</title>
<path fill="none" stroke="white" d="M478.5,-140C516.03,-140 523.84,-152.72 561,-158 727.2,-181.6 772.75,-183.91 935.12,-184"/>
<polygon fill="white" stroke="white" points="934.99,-187.5 944.99,-184 934.99,-180.5 934.99,-187.5"/>
</g>
<!-- _core_2d__core_2dfxaa_node_2d -->
<g id="node5" class="node">
<title>_core_2d__core_2dfxaa_node_2d</title>
<text text-anchor="start" x="958.5" y="-81.8" font-family="Helvetica,sans-Serif" font-size="14.00" fill="white">fxaa_node_2d</text>
<text text-anchor="start" x="980" y="-71" font-family="Helvetica,sans-Serif" font-size="10.00" fill="red">FxaaNode</text>
<polygon fill="none" stroke="#99aab5" points="955.5,-43 955.5,-64 1039.5,-64 1039.5,-43 955.5,-43"/>
<text text-anchor="start" x="959.5" y="-49.8" font-family="Helvetica,sans-Serif" font-size="14.00" fill="white">view: Entity</text>
<text text-anchor="start" x="1044.5" y="-49.8" font-family="Helvetica,sans-Serif" font-size="14.00" fill="white"> </text>
<path fill="none" stroke="#99aab5" d="M964.5,-40.5C964.5,-40.5 1042.5,-40.5 1042.5,-40.5 1048.5,-40.5 1054.5,-46.5 1054.5,-52.5 1054.5,-52.5 1054.5,-85.5 1054.5,-85.5 1054.5,-91.5 1048.5,-97.5 1042.5,-97.5 1042.5,-97.5 964.5,-97.5 964.5,-97.5 958.5,-97.5 952.5,-91.5 952.5,-85.5 952.5,-85.5 952.5,-52.5 952.5,-52.5 952.5,-46.5 958.5,-40.5 964.5,-40.5"/>
</g>
<!-- _core_2d__core_2dtonemapping&#45;&gt;_core_2d__core_2dfxaa_node_2d -->
<g id="edge6" class="edge">
<title>_core_2d__core_2dtonemapping:e&#45;&gt;_core_2d__core_2dfxaa_node_2d:w</title>
<path fill="none" stroke="white" d="M854.5,-120C898.25,-120 905.58,-86.58 943.07,-80.84"/>
<polygon fill="white" stroke="white" points="943.27,-84.33 952.99,-80.11 942.76,-77.35 943.27,-84.33"/>
</g>
<!-- _core_2d__core_2dupscaling -->
<g id="node7" class="node">
<title>_core_2d__core_2dupscaling</title>
<text text-anchor="start" x="1178.5" y="-122.8" font-family="Helvetica,sans-Serif" font-size="14.00" fill="white">upscaling</text>
<text text-anchor="start" x="1175.5" y="-112" font-family="Helvetica,sans-Serif" font-size="10.00" fill="red">UpscalingNode</text>
<polygon fill="none" stroke="#99aab5" points="1164.5,-84 1164.5,-105 1246.5,-105 1246.5,-84 1164.5,-84"/>
<text text-anchor="start" x="1167.5" y="-90.8" font-family="Helvetica,sans-Serif" font-size="14.00" fill="white">view: Entity</text>
<text text-anchor="start" x="1250.5" y="-90.8" font-family="Helvetica,sans-Serif" font-size="14.00" fill="white"> </text>
<path fill="none" stroke="#99aab5" d="M1173.5,-81.5C1173.5,-81.5 1247.5,-81.5 1247.5,-81.5 1253.5,-81.5 1259.5,-87.5 1259.5,-93.5 1259.5,-93.5 1259.5,-126.5 1259.5,-126.5 1259.5,-132.5 1253.5,-138.5 1247.5,-138.5 1247.5,-138.5 1173.5,-138.5 1173.5,-138.5 1167.5,-138.5 1161.5,-132.5 1161.5,-126.5 1161.5,-126.5 1161.5,-93.5 1161.5,-93.5 1161.5,-87.5 1167.5,-81.5 1173.5,-81.5"/>
</g>
<!-- _core_2d__core_2dtonemapping&#45;&gt;_core_2d__core_2dupscaling -->
<g id="edge11" class="edge">
<title>_core_2d__core_2dtonemapping:e&#45;&gt;_core_2d__core_2dupscaling:w</title>
<path fill="none" stroke="white" d="M854.5,-120C987.94,-120 1024.14,-120.94 1152.08,-121"/>
<polygon fill="white" stroke="white" points="1151.99,-124.5 1161.99,-121 1151.99,-117.5 1151.99,-124.5"/>
</g>
<!-- _core_2d__core_2dtonemapping&#45;&gt;_core_2d__core_2dui_pass -->
<g id="edge15" class="edge">
<title>_core_2d__core_2dtonemapping:e&#45;&gt;_core_2d__core_2dui_pass:w</title>
<path fill="none" stroke="white" d="M854.5,-120C900.22,-120 897.55,-173.93 935.34,-182.78"/>
<polygon fill="white" stroke="white" points="934.67,-186.23 945,-183.84 935.44,-179.27 934.67,-186.23"/>
</g>
<!-- _core_2d__core_2dGraphInputNode -->
<g id="node8" class="node">
<title>_core_2d__core_2dGraphInputNode</title>
<text text-anchor="start" x="107" y="-95.8" font-family="Helvetica,sans-Serif" font-size="14.00" fill="white">GraphInputNode</text>
<text text-anchor="start" x="123" y="-85" font-family="Helvetica,sans-Serif" font-size="10.00" fill="red">GraphInputNode</text>
<polygon fill="none" stroke="#99aab5" points="35,-57 35,-78 162,-78 162,-57 35,-57"/>
<text text-anchor="start" x="38" y="-63.8" font-family="Helvetica,sans-Serif" font-size="14.00" fill="white">view_entity: Entity</text>
<polygon fill="none" stroke="#99aab5" points="164,-57 164,-78 291,-78 291,-57 164,-57"/>
<text text-anchor="start" x="167" y="-63.8" font-family="Helvetica,sans-Serif" font-size="14.00" fill="white">view_entity: Entity</text>
<path fill="none" stroke="#99aab5" d="M44,-54.5C44,-54.5 282,-54.5 282,-54.5 288,-54.5 294,-60.5 294,-66.5 294,-66.5 294,-99.5 294,-99.5 294,-105.5 288,-111.5 282,-111.5 282,-111.5 44,-111.5 44,-111.5 38,-111.5 32,-105.5 32,-99.5 32,-99.5 32,-66.5 32,-66.5 32,-60.5 38,-54.5 44,-54.5"/>
</g>
<!-- _core_2d__core_2dGraphInputNode&#45;&gt;_core_2d__core_2dbloom_2d -->
<g id="edge2" class="edge">
<title>_core_2d__core_2dGraphInputNode:e&#45;&gt;_core_2d__core_2dbloom_2d:w</title>
<path fill="none" stroke="white" d="M292,-67C350.74,-67 491.53,-90.14 559.57,-92.76"/>
<polygon fill="white" stroke="white" points="559.42,-96.26 569.49,-92.97 559.56,-89.26 559.42,-96.26"/>
</g>
<!-- _core_2d__core_2dGraphInputNode&#45;&gt;_core_2d__core_2dmain_pass -->
<g id="edge4" class="edge">
<title>_core_2d__core_2dGraphInputNode:e&#45;&gt;_core_2d__core_2dmain_pass:w</title>
<path fill="none" stroke="white" d="M292,-67C333.79,-67 338.1,-105.11 373.15,-111.95"/>
<polygon fill="white" stroke="white" points="372.71,-115.43 382.99,-112.86 373.36,-108.46 372.71,-115.43"/>
</g>
<!-- _core_2d__core_2dGraphInputNode&#45;&gt;_core_2d__core_2dfxaa_node_2d -->
<g id="edge5" class="edge">
<title>_core_2d__core_2dGraphInputNode:e&#45;&gt;_core_2d__core_2dfxaa_node_2d:w</title>
<path fill="none" stroke="white" d="M292,-67C328.97,-67 337.16,-56.12 374,-53 627.31,-31.53 694.54,-52.37 943.28,-52.99"/>
<polygon fill="white" stroke="white" points="942.98,-56.49 952.99,-53 942.99,-49.49 942.98,-56.49"/>
</g>
<!-- _core_2d__core_2dGraphInputNode&#45;&gt;_core_2d__core_2dtonemapping -->
<g id="edge7" class="edge">
<title>_core_2d__core_2dGraphInputNode:e&#45;&gt;_core_2d__core_2dtonemapping:w</title>
<path fill="none" stroke="white" d="M292,-67C462.22,-67 506.65,-42.83 675,-68 708.9,-73.07 717.51,-89.07 746.37,-92.39"/>
<polygon fill="white" stroke="white" points="745.81,-95.87 755.99,-92.92 746.19,-88.88 745.81,-95.87"/>
</g>
<!-- _core_2d__core_2dGraphInputNode&#45;&gt;_core_2d__core_2dupscaling -->
<g id="edge10" class="edge">
<title>_core_2d__core_2dGraphInputNode:e&#45;&gt;_core_2d__core_2dupscaling:w</title>
<path fill="none" stroke="white" d="M292,-67C330.23,-67 336.55,-48.7 374,-41 480.3,-19.15 508.47,-17 617,-17 617,-17 617,-17 806.5,-17 924.14,-17 959.8,11.38 1071,-27 1115.05,-42.2 1113.4,-85.95 1152.1,-93.03"/>
<polygon fill="white" stroke="white" points="1151.73,-96.51 1161.99,-93.87 1152.33,-89.53 1151.73,-96.51"/>
</g>
<!-- _core_2d__core_2dGraphInputNode&#45;&gt;_core_2d__core_2dui_pass -->
<g id="edge14" class="edge">
<title>_core_2d__core_2dGraphInputNode:e&#45;&gt;_core_2d__core_2dui_pass:w</title>
<path fill="none" stroke="white" d="M292,-67C350.86,-67 321.57,-144.26 374,-171 422.52,-195.75 810.31,-195.16 864,-186 898.27,-180.15 906.14,-161.56 935.24,-157.7"/>
<polygon fill="white" stroke="white" points="935.23,-161.21 944.99,-157.09 934.79,-154.23 935.23,-161.21"/>
</g>
<!-- _core_2d__core_2dui_pass&#45;&gt;_core_2d__core_2dupscaling -->
<g id="edge12" class="edge">
<title>_core_2d__core_2dui_pass:e&#45;&gt;_core_2d__core_2dupscaling:w</title>
<path fill="none" stroke="white" d="M1061.5,-184C1110.72,-184 1110.58,-130.23 1152.28,-122.04"/>
<polygon fill="white" stroke="white" points="1152.36,-125.55 1161.99,-121.14 1151.71,-118.58 1152.36,-125.55"/>
</g>
<!-- _core_3d_draw_ui__core_3d_draw_uiGraphInputNode -->
<g id="node10" class="node">
<title>_core_3d_draw_ui__core_3d_draw_uiGraphInputNode</title>
<text text-anchor="start" x="107" y="-593.8" font-family="Helvetica,sans-Serif" font-size="14.00" fill="white">GraphInputNode</text>
<text text-anchor="start" x="123" y="-583" font-family="Helvetica,sans-Serif" font-size="10.00" fill="red">GraphInputNode</text>
<polygon fill="none" stroke="#99aab5" points="35,-555 35,-576 162,-576 162,-555 35,-555"/>
<text text-anchor="start" x="38" y="-561.8" font-family="Helvetica,sans-Serif" font-size="14.00" fill="white">view_entity: Entity</text>
<polygon fill="none" stroke="#99aab5" points="164,-555 164,-576 291,-576 291,-555 164,-555"/>
<text text-anchor="start" x="167" y="-561.8" font-family="Helvetica,sans-Serif" font-size="14.00" fill="white">view_entity: Entity</text>
<path fill="none" stroke="#99aab5" d="M44,-552.5C44,-552.5 282,-552.5 282,-552.5 288,-552.5 294,-558.5 294,-564.5 294,-564.5 294,-597.5 294,-597.5 294,-603.5 288,-609.5 282,-609.5 282,-609.5 44,-609.5 44,-609.5 38,-609.5 32,-603.5 32,-597.5 32,-597.5 32,-564.5 32,-564.5 32,-558.5 38,-552.5 44,-552.5"/>
</g>
<!-- _core_3d_draw_ui__core_3d_draw_uiui_pass -->
<g id="node11" class="node">
<title>_core_3d_draw_ui__core_3d_draw_uiui_pass</title>
<text text-anchor="start" x="407" y="-593.8" font-family="Helvetica,sans-Serif" font-size="14.00" fill="white">ui_pass</text>
<text text-anchor="start" x="403.5" y="-583" font-family="Helvetica,sans-Serif" font-size="10.00" fill="red">UiPassNode</text>
<polygon fill="none" stroke="#99aab5" points="385.5,-555 385.5,-576 467.5,-576 467.5,-555 385.5,-555"/>
<text text-anchor="start" x="388.5" y="-561.8" font-family="Helvetica,sans-Serif" font-size="14.00" fill="white">view: Entity</text>
<text text-anchor="start" x="471.5" y="-561.8" font-family="Helvetica,sans-Serif" font-size="14.00" fill="white"> </text>
<path fill="none" stroke="#99aab5" d="M394.5,-552.5C394.5,-552.5 468.5,-552.5 468.5,-552.5 474.5,-552.5 480.5,-558.5 480.5,-564.5 480.5,-564.5 480.5,-597.5 480.5,-597.5 480.5,-603.5 474.5,-609.5 468.5,-609.5 468.5,-609.5 394.5,-609.5 394.5,-609.5 388.5,-609.5 382.5,-603.5 382.5,-597.5 382.5,-597.5 382.5,-564.5 382.5,-564.5 382.5,-558.5 388.5,-552.5 394.5,-552.5"/>
</g>
<!-- _core_3d_draw_ui__core_3d_draw_uiGraphInputNode&#45;&gt;_core_3d_draw_ui__core_3d_draw_uiui_pass -->
<g id="edge16" class="edge">
<title>_core_3d_draw_ui__core_3d_draw_uiGraphInputNode:e&#45;&gt;_core_3d_draw_ui__core_3d_draw_uiui_pass:w</title>
<path fill="none" stroke="white" d="M292,-565C329.1,-565 341.09,-565 373.28,-565"/>
<polygon fill="white" stroke="white" points="372.99,-568.5 382.99,-565 372.99,-561.5 372.99,-568.5"/>
</g>
<!-- _core_3d__core_3dbloom_3d -->
<g id="node12" class="node">
<title>_core_3d__core_3dbloom_3d</title>
<text text-anchor="start" x="773.5" y="-449.8" font-family="Helvetica,sans-Serif" font-size="14.00" fill="white">bloom_3d</text>
<text text-anchor="start" x="777.5" y="-439" font-family="Helvetica,sans-Serif" font-size="10.00" fill="red">BloomNode</text>
<polygon fill="none" stroke="#99aab5" points="759.5,-411 759.5,-432 841.5,-432 841.5,-411 759.5,-411"/>
<text text-anchor="start" x="762.5" y="-417.8" font-family="Helvetica,sans-Serif" font-size="14.00" fill="white">view: Entity</text>
<text text-anchor="start" x="845.5" y="-417.8" font-family="Helvetica,sans-Serif" font-size="14.00" fill="white"> </text>
<path fill="none" stroke="#99aab5" d="M768.5,-408.5C768.5,-408.5 842.5,-408.5 842.5,-408.5 848.5,-408.5 854.5,-414.5 854.5,-420.5 854.5,-420.5 854.5,-453.5 854.5,-453.5 854.5,-459.5 848.5,-465.5 842.5,-465.5 842.5,-465.5 768.5,-465.5 768.5,-465.5 762.5,-465.5 756.5,-459.5 756.5,-453.5 756.5,-453.5 756.5,-420.5 756.5,-420.5 756.5,-414.5 762.5,-408.5 768.5,-408.5"/>
</g>
<!-- _core_3d__core_3dtonemapping -->
<g id="node15" class="node">
<title>_core_3d__core_3dtonemapping</title>
<text text-anchor="start" x="959.5" y="-449.8" font-family="Helvetica,sans-Serif" font-size="14.00" fill="white">tonemapping</text>
<text text-anchor="start" x="959.5" y="-439" font-family="Helvetica,sans-Serif" font-size="10.00" fill="red">TonemappingNode</text>
<polygon fill="none" stroke="#99aab5" points="956.5,-411 956.5,-432 1039.5,-432 1039.5,-411 956.5,-411"/>
<text text-anchor="start" x="960" y="-417.8" font-family="Helvetica,sans-Serif" font-size="14.00" fill="white">view: Entity</text>
<text text-anchor="start" x="1044.5" y="-417.8" font-family="Helvetica,sans-Serif" font-size="14.00" fill="white"> </text>
<path fill="none" stroke="#99aab5" d="M965,-408.5C965,-408.5 1042,-408.5 1042,-408.5 1048,-408.5 1054,-414.5 1054,-420.5 1054,-420.5 1054,-453.5 1054,-453.5 1054,-459.5 1048,-465.5 1042,-465.5 1042,-465.5 965,-465.5 965,-465.5 959,-465.5 953,-459.5 953,-453.5 953,-453.5 953,-420.5 953,-420.5 953,-414.5 959,-408.5 965,-408.5"/>
</g>
<!-- _core_3d__core_3dbloom_3d&#45;&gt;_core_3d__core_3dtonemapping -->
<g id="edge25" class="edge">
<title>_core_3d__core_3dbloom_3d:e&#45;&gt;_core_3d__core_3dtonemapping:w</title>
<path fill="none" stroke="white" d="M852.5,-448C894.34,-448 907.5,-448 944.42,-448"/>
<polygon fill="white" stroke="white" points="943.99,-451.5 953.99,-448 943.99,-444.5 943.99,-451.5"/>
</g>
<!-- _core_3d__core_3dmain_pass -->
<g id="node13" class="node">
<title>_core_3d__core_3dmain_pass</title>
<text text-anchor="start" x="583.5" y="-489.8" font-family="Helvetica,sans-Serif" font-size="14.00" fill="white">main_pass</text>
<text text-anchor="start" x="577.5" y="-479" font-family="Helvetica,sans-Serif" font-size="10.00" fill="red">MainPass3dNode</text>
<polygon fill="none" stroke="#99aab5" points="572,-451 572,-472 654,-472 654,-451 572,-451"/>
<text text-anchor="start" x="575" y="-457.8" font-family="Helvetica,sans-Serif" font-size="14.00" fill="white">view: Entity</text>
<text text-anchor="start" x="658" y="-457.8" font-family="Helvetica,sans-Serif" font-size="14.00" fill="white"> </text>
<path fill="none" stroke="#99aab5" d="M581,-448.5C581,-448.5 655,-448.5 655,-448.5 661,-448.5 667,-454.5 667,-460.5 667,-460.5 667,-493.5 667,-493.5 667,-499.5 661,-505.5 655,-505.5 655,-505.5 581,-505.5 581,-505.5 575,-505.5 569,-499.5 569,-493.5 569,-493.5 569,-460.5 569,-460.5 569,-454.5 575,-448.5 581,-448.5"/>
</g>
<!-- _core_3d__core_3dmain_pass&#45;&gt;_core_3d__core_3dbloom_3d -->
<g id="edge18" class="edge">
<title>_core_3d__core_3dmain_pass:e&#45;&gt;_core_3d__core_3dbloom_3d:w</title>
<path fill="none" stroke="white" d="M665,-488C706.14,-488 712.4,-454.86 747.28,-448.91"/>
<polygon fill="white" stroke="white" points="747.31,-452.42 756.99,-448.12 746.74,-445.44 747.31,-452.42"/>
</g>
<!-- _core_3d__core_3dmain_pass&#45;&gt;_core_3d__core_3dtonemapping -->
<g id="edge24" class="edge">
<title>_core_3d__core_3dmain_pass:e&#45;&gt;_core_3d__core_3dtonemapping:w</title>
<path fill="none" stroke="white" d="M665,-488C753.53,-488 776.99,-495.37 864,-479 902.24,-471.81 911.05,-452.19 944.33,-448.58"/>
<polygon fill="white" stroke="white" points="944.18,-452.09 953.99,-448.08 943.82,-445.1 944.18,-452.09"/>
</g>
<!-- _core_3d__core_3dui_pass -->
<g id="node19" class="node">
<title>_core_3d__core_3dui_pass</title>
<text text-anchor="start" x="1186.5" y="-513.8" font-family="Helvetica,sans-Serif" font-size="14.00" fill="white">ui_pass</text>
<text text-anchor="start" x="1157.5" y="-503" font-family="Helvetica,sans-Serif" font-size="10.00" fill="red">RunGraphOnViewNode</text>
<polygon fill="none" stroke="#99aab5" points="1154.5,-475 1154.5,-496 1246.5,-496 1246.5,-475 1154.5,-475"/>
<text text-anchor="start" x="1162.5" y="-481.8" font-family="Helvetica,sans-Serif" font-size="14.00" fill="white">view: Entity</text>
<text text-anchor="start" x="1256" y="-481.8" font-family="Helvetica,sans-Serif" font-size="14.00" fill="white"> </text>
<path fill="none" stroke="#99aab5" d="M1163,-472.5C1163,-472.5 1258,-472.5 1258,-472.5 1264,-472.5 1270,-478.5 1270,-484.5 1270,-484.5 1270,-517.5 1270,-517.5 1270,-523.5 1264,-529.5 1258,-529.5 1258,-529.5 1163,-529.5 1163,-529.5 1157,-529.5 1151,-523.5 1151,-517.5 1151,-517.5 1151,-484.5 1151,-484.5 1151,-478.5 1157,-472.5 1163,-472.5"/>
</g>
<!-- _core_3d__core_3dmain_pass&#45;&gt;_core_3d__core_3dui_pass -->
<g id="edge30" class="edge">
<title>_core_3d__core_3dmain_pass:e&#45;&gt;_core_3d__core_3dui_pass:w</title>
<path fill="none" stroke="white" d="M665,-488C878.55,-488 934.19,-511.16 1142.19,-511.98"/>
<polygon fill="white" stroke="white" points="1141.98,-515.48 1151.99,-512 1141.99,-508.48 1141.98,-515.48"/>
</g>
<!-- _core_3d__core_3dfxaa_node_3d -->
<g id="node14" class="node">
<title>_core_3d__core_3dfxaa_node_3d</title>
<text text-anchor="start" x="1165.5" y="-409.8" font-family="Helvetica,sans-Serif" font-size="14.00" fill="white">fxaa_node_3d</text>
<text text-anchor="start" x="1187" y="-399" font-family="Helvetica,sans-Serif" font-size="10.00" fill="red">FxaaNode</text>
<polygon fill="none" stroke="#99aab5" points="1162.5,-371 1162.5,-392 1246.5,-392 1246.5,-371 1162.5,-371"/>
<text text-anchor="start" x="1166.5" y="-377.8" font-family="Helvetica,sans-Serif" font-size="14.00" fill="white">view: Entity</text>
<text text-anchor="start" x="1251.5" y="-377.8" font-family="Helvetica,sans-Serif" font-size="14.00" fill="white"> </text>
<path fill="none" stroke="#99aab5" d="M1171.5,-368.5C1171.5,-368.5 1249.5,-368.5 1249.5,-368.5 1255.5,-368.5 1261.5,-374.5 1261.5,-380.5 1261.5,-380.5 1261.5,-413.5 1261.5,-413.5 1261.5,-419.5 1255.5,-425.5 1249.5,-425.5 1249.5,-425.5 1171.5,-425.5 1171.5,-425.5 1165.5,-425.5 1159.5,-419.5 1159.5,-413.5 1159.5,-413.5 1159.5,-380.5 1159.5,-380.5 1159.5,-374.5 1165.5,-368.5 1171.5,-368.5"/>
</g>
<!-- _core_3d__core_3dtonemapping&#45;&gt;_core_3d__core_3dfxaa_node_3d -->
<g id="edge22" class="edge">
<title>_core_3d__core_3dtonemapping:e&#45;&gt;_core_3d__core_3dfxaa_node_3d:w</title>
<path fill="none" stroke="white" d="M1052.5,-448C1100.07,-448 1108.71,-414.01 1150.2,-408.69"/>
<polygon fill="white" stroke="white" points="1150.22,-412.2 1159.99,-408.09 1149.79,-405.21 1150.22,-412.2"/>
</g>
<!-- _core_3d__core_3dupscaling -->
<g id="node16" class="node">
<title>_core_3d__core_3dupscaling</title>
<text text-anchor="start" x="1375" y="-450.8" font-family="Helvetica,sans-Serif" font-size="14.00" fill="white">upscaling</text>
<text text-anchor="start" x="1372" y="-440" font-family="Helvetica,sans-Serif" font-size="10.00" fill="red">UpscalingNode</text>
<polygon fill="none" stroke="#99aab5" points="1361,-412 1361,-433 1443,-433 1443,-412 1361,-412"/>
<text text-anchor="start" x="1364" y="-418.8" font-family="Helvetica,sans-Serif" font-size="14.00" fill="white">view: Entity</text>
<text text-anchor="start" x="1447" y="-418.8" font-family="Helvetica,sans-Serif" font-size="14.00" fill="white"> </text>
<path fill="none" stroke="#99aab5" d="M1370,-409.5C1370,-409.5 1444,-409.5 1444,-409.5 1450,-409.5 1456,-415.5 1456,-421.5 1456,-421.5 1456,-454.5 1456,-454.5 1456,-460.5 1450,-466.5 1444,-466.5 1444,-466.5 1370,-466.5 1370,-466.5 1364,-466.5 1358,-460.5 1358,-454.5 1358,-454.5 1358,-421.5 1358,-421.5 1358,-415.5 1364,-409.5 1370,-409.5"/>
</g>
<!-- _core_3d__core_3dtonemapping&#45;&gt;_core_3d__core_3dupscaling -->
<g id="edge27" class="edge">
<title>_core_3d__core_3dtonemapping:e&#45;&gt;_core_3d__core_3dupscaling:w</title>
<path fill="none" stroke="white" d="M1052.5,-448C1185.3,-448 1221.32,-448.94 1348.63,-449"/>
<polygon fill="white" stroke="white" points="1348.49,-452.5 1358.49,-449 1348.49,-445.5 1348.49,-452.5"/>
</g>
<!-- _core_3d__core_3dtonemapping&#45;&gt;_core_3d__core_3dui_pass -->
<g id="edge31" class="edge">
<title>_core_3d__core_3dtonemapping:e&#45;&gt;_core_3d__core_3dui_pass:w</title>
<path fill="none" stroke="white" d="M1052.5,-448C1101.49,-448 1100.83,-502.39 1142.06,-510.89"/>
<polygon fill="white" stroke="white" points="1141.7,-514.37 1151.99,-511.85 1142.38,-507.4 1141.7,-514.37"/>
</g>
<!-- _core_3d__core_3dshadow_pass -->
<g id="node17" class="node">
<title>_core_3d__core_3dshadow_pass</title>
<text text-anchor="start" x="388.5" y="-489.8" font-family="Helvetica,sans-Serif" font-size="14.00" fill="white">shadow_pass</text>
<text text-anchor="start" x="391" y="-479" font-family="Helvetica,sans-Serif" font-size="10.00" fill="red">ShadowPassNode</text>
<polygon fill="none" stroke="#99aab5" points="385.5,-451 385.5,-472 467.5,-472 467.5,-451 385.5,-451"/>
<text text-anchor="start" x="388.5" y="-457.8" font-family="Helvetica,sans-Serif" font-size="14.00" fill="white">view: Entity</text>
<text text-anchor="start" x="472" y="-457.8" font-family="Helvetica,sans-Serif" font-size="14.00" fill="white"> </text>
<path fill="none" stroke="#99aab5" d="M394,-448.5C394,-448.5 469,-448.5 469,-448.5 475,-448.5 481,-454.5 481,-460.5 481,-460.5 481,-493.5 481,-493.5 481,-499.5 475,-505.5 469,-505.5 469,-505.5 394,-505.5 394,-505.5 388,-505.5 382,-499.5 382,-493.5 382,-493.5 382,-460.5 382,-460.5 382,-454.5 388,-448.5 394,-448.5"/>
</g>
<!-- _core_3d__core_3dshadow_pass&#45;&gt;_core_3d__core_3dmain_pass -->
<g id="edge20" class="edge">
<title>_core_3d__core_3dshadow_pass:e&#45;&gt;_core_3d__core_3dmain_pass:w</title>
<path fill="none" stroke="white" d="M479.5,-488C516.04,-488 527.95,-488 559.49,-488"/>
<polygon fill="white" stroke="white" points="559.49,-491.5 569.49,-488 559.49,-484.5 559.49,-491.5"/>
</g>
<!-- _core_3d__core_3dGraphInputNode -->
<g id="node18" class="node">
<title>_core_3d__core_3dGraphInputNode</title>
<text text-anchor="start" x="107" y="-433.8" font-family="Helvetica,sans-Serif" font-size="14.00" fill="white">GraphInputNode</text>
<text text-anchor="start" x="123" y="-423" font-family="Helvetica,sans-Serif" font-size="10.00" fill="red">GraphInputNode</text>
<polygon fill="none" stroke="#99aab5" points="35,-395 35,-416 162,-416 162,-395 35,-395"/>
<text text-anchor="start" x="38" y="-401.8" font-family="Helvetica,sans-Serif" font-size="14.00" fill="white">view_entity: Entity</text>
<polygon fill="none" stroke="#99aab5" points="164,-395 164,-416 291,-416 291,-395 164,-395"/>
<text text-anchor="start" x="167" y="-401.8" font-family="Helvetica,sans-Serif" font-size="14.00" fill="white">view_entity: Entity</text>
<path fill="none" stroke="#99aab5" d="M44,-392.5C44,-392.5 282,-392.5 282,-392.5 288,-392.5 294,-398.5 294,-404.5 294,-404.5 294,-437.5 294,-437.5 294,-443.5 288,-449.5 282,-449.5 282,-449.5 44,-449.5 44,-449.5 38,-449.5 32,-443.5 32,-437.5 32,-437.5 32,-404.5 32,-404.5 32,-398.5 38,-392.5 44,-392.5"/>
</g>
<!-- _core_3d__core_3dGraphInputNode&#45;&gt;_core_3d__core_3dbloom_3d -->
<g id="edge17" class="edge">
<title>_core_3d__core_3dGraphInputNode:e&#45;&gt;_core_3d__core_3dbloom_3d:w</title>
<path fill="none" stroke="white" d="M292,-405C382.92,-405 405.63,-406.98 496.5,-410 609.12,-413.74 639.93,-420.53 747.17,-420.98"/>
<polygon fill="white" stroke="white" points="746.98,-424.48 756.99,-421 746.99,-417.48 746.98,-424.48"/>
</g>
<!-- _core_3d__core_3dGraphInputNode&#45;&gt;_core_3d__core_3dmain_pass -->
<g id="edge19" class="edge">
<title>_core_3d__core_3dGraphInputNode:e&#45;&gt;_core_3d__core_3dmain_pass:w</title>
<path fill="none" stroke="white" d="M292,-405C337.96,-405 451.82,-425.2 496.5,-436 526.47,-443.24 534.37,-457.18 559.84,-460.35"/>
<polygon fill="white" stroke="white" points="559.3,-463.82 569.49,-460.91 559.71,-456.84 559.3,-463.82"/>
</g>
<!-- _core_3d__core_3dGraphInputNode&#45;&gt;_core_3d__core_3dfxaa_node_3d -->
<g id="edge21" class="edge">
<title>_core_3d__core_3dGraphInputNode:e&#45;&gt;_core_3d__core_3dfxaa_node_3d:w</title>
<path fill="none" stroke="white" d="M292,-405C328.83,-405 337.48,-397.78 374,-393 481.8,-378.91 508.29,-365 617,-365 617,-365 617,-365 806.5,-365 960.58,-365 1001.58,-380.23 1150.14,-380.97"/>
<polygon fill="white" stroke="white" points="1149.98,-384.47 1159.99,-381 1150,-377.47 1149.98,-384.47"/>
</g>
<!-- _core_3d__core_3dGraphInputNode&#45;&gt;_core_3d__core_3dtonemapping -->
<g id="edge23" class="edge">
<title>_core_3d__core_3dGraphInputNode:e&#45;&gt;_core_3d__core_3dtonemapping:w</title>
<path fill="none" stroke="white" d="M292,-405C328.49,-405 337.53,-402.13 374,-401 539.71,-395.85 581.21,-397.11 747,-396 799,-395.65 812.46,-389.09 864,-396 901.7,-401.06 911.54,-417.34 944.07,-420.48"/>
<polygon fill="white" stroke="white" points="943.84,-423.97 953.99,-420.93 944.16,-416.98 943.84,-423.97"/>
</g>
<!-- _core_3d__core_3dGraphInputNode&#45;&gt;_core_3d__core_3dupscaling -->
<g id="edge26" class="edge">
<title>_core_3d__core_3dGraphInputNode:e&#45;&gt;_core_3d__core_3dupscaling:w</title>
<path fill="none" stroke="white" d="M292,-405C331.8,-405 335.5,-379.08 374,-369 478.99,-341.51 508.47,-345 617,-345 617,-345 617,-345 1004.5,-345 1126.15,-345 1164.1,-313.26 1278,-356 1317.87,-370.96 1314.34,-413.36 1348.65,-420.86"/>
<polygon fill="white" stroke="white" points="1348.19,-424.33 1358.49,-421.85 1348.89,-417.37 1348.19,-424.33"/>
</g>
<!-- _core_3d__core_3dGraphInputNode&#45;&gt;_core_3d__core_3dshadow_pass -->
<g id="edge29" class="edge">
<title>_core_3d__core_3dGraphInputNode:e&#45;&gt;_core_3d__core_3dshadow_pass:w</title>
<path fill="none" stroke="white" d="M292,-405C335.93,-405 336.68,-451.79 373.19,-459.83"/>
<polygon fill="white" stroke="white" points="372.69,-463.3 382.99,-460.84 373.41,-456.33 372.69,-463.3"/>
</g>
<!-- _core_3d__core_3dGraphInputNode&#45;&gt;_core_3d__core_3dui_pass -->
<g id="edge32" class="edge">
<title>_core_3d__core_3dGraphInputNode:e&#45;&gt;_core_3d__core_3dui_pass:w</title>
<path fill="none" stroke="white" d="M292,-405C354.41,-405 319.05,-489.4 374,-519 421.58,-544.63 562.95,-529 617,-529 617,-529 617,-529 806.5,-529 924.33,-529 955.22,-532.86 1071,-511 1104.79,-504.62 1113.38,-488.85 1142.33,-485.59"/>
<polygon fill="white" stroke="white" points="1142.19,-489.11 1151.99,-485.08 1141.82,-482.12 1142.19,-489.11"/>
</g>
<!-- _core_3d__core_3dui_pass&#45;&gt;_core_3d__core_3dupscaling -->
<g id="edge28" class="edge">
<title>_core_3d__core_3dui_pass:e&#45;&gt;_core_3d__core_3dupscaling:w</title>
<path fill="none" stroke="white" d="M1268.5,-512C1313.82,-512 1311.43,-458.91 1348.93,-450.2"/>
<polygon fill="white" stroke="white" points="1348.93,-453.72 1358.5,-449.16 1348.18,-446.76 1348.93,-453.72"/>
</g>
<!-- _camera_driver -->
<g id="node20" class="node">
<title>_camera_driver</title>
<text text-anchor="start" x="116" y="-706.8" font-family="Helvetica,sans-Serif" font-size="14.00" fill="white">camera_driver</text>
<text text-anchor="start" x="117.5" y="-696" font-family="Helvetica,sans-Serif" font-size="10.00" fill="red">CameraDriverNode</text>
<path fill="none" stroke="#99aab5" d="M122.33,-688C122.33,-688 203.67,-688 203.67,-688 209.33,-688 215,-693.67 215,-699.33 215,-699.33 215,-710.67 215,-710.67 215,-716.33 209.33,-722 203.67,-722 203.67,-722 122.33,-722 122.33,-722 116.67,-722 111,-716.33 111,-710.67 111,-710.67 111,-699.33 111,-699.33 111,-693.67 116.67,-688 122.33,-688"/>
</g>
</g>
</svg>
