<?xml version="1.0" encoding="UTF-8" standalone="no"?>
<!DOCTYPE svg PUBLIC "-//W3C//DTD SVG 1.1//EN"
 "http://www.w3.org/Graphics/SVG/1.1/DTD/svg11.dtd">
<!-- Generated by graphviz version 2.43.0 (0)
 -->
<!-- Title: RenderGraph Pages: 1 -->
<svg width="1145pt" height="817pt"
 viewBox="0.00 0.00 1145.00 816.50" xmlns="http://www.w3.org/2000/svg" xmlns:xlink="http://www.w3.org/1999/xlink">
<g id="graph0" class="graph" transform="scale(1 1) rotate(0) translate(4 812.5)">
<title>RenderGraph</title>
<polygon fill="white" stroke="transparent" points="-4,4 -4,-812.5 1141,-812.5 1141,4 -4,4"/>
<!-- 209364878450296315326210225037850333582 -->
<g id="node1" class="node">
<title>209364878450296315326210225037850333582</title>
<text text-anchor="start" x="993" y="-189.3" font-family="Helvetica,sans-Serif" font-size="14.00">egui_pass</text>
<text text-anchor="start" x="1004.5" y="-178.5" font-family="Helvetica,sans-Serif" font-size="10.00" fill="red">EguiNode</text>
<polygon fill="none" stroke="black" points="929.5,-150.5 929.5,-171.5 1115.5,-171.5 1115.5,-150.5 929.5,-150.5"/>
<text text-anchor="start" x="932.5" y="-157.3" font-family="Helvetica,sans-Serif" font-size="14.00">color_attachment: Texture</text>
<text text-anchor="start" x="1119.5" y="-157.3" font-family="Helvetica,sans-Serif" font-size="14.00"> </text>
<polygon fill="none" stroke="black" points="929.5,-127.5 929.5,-148.5 1115.5,-148.5 1115.5,-127.5 929.5,-127.5"/>
<text text-anchor="start" x="972.5" y="-134.3" font-family="Helvetica,sans-Serif" font-size="14.00">depth: Texture</text>
<text text-anchor="start" x="1119.5" y="-134.3" font-family="Helvetica,sans-Serif" font-size="14.00"> </text>
<path fill="none" stroke="black" d="M938,-124.5C938,-124.5 1117,-124.5 1117,-124.5 1123,-124.5 1129,-130.5 1129,-136.5 1129,-136.5 1129,-192.5 1129,-192.5 1129,-198.5 1123,-204.5 1117,-204.5 1117,-204.5 938,-204.5 938,-204.5 932,-204.5 926,-198.5 926,-192.5 926,-192.5 926,-136.5 926,-136.5 926,-130.5 932,-124.5 938,-124.5"/>
</g>
<!-- 280650739181430023451423735221670518082 -->
<g id="node2" class="node">
<title>280650739181430023451423735221670518082</title>
<text text-anchor="start" x="683.5" y="-287.3" font-family="Helvetica,sans-Serif" font-size="14.00">egui_transform</text>
<text text-anchor="start" x="688.5" y="-276.5" font-family="Helvetica,sans-Serif" font-size="10.00" fill="red">EguiTransformNode</text>
<path fill="none" stroke="black" d="M689.83,-268.5C689.83,-268.5 783.17,-268.5 783.17,-268.5 788.83,-268.5 794.5,-274.17 794.5,-279.83 794.5,-279.83 794.5,-291.17 794.5,-291.17 794.5,-296.83 788.83,-302.5 783.17,-302.5 783.17,-302.5 689.83,-302.5 689.83,-302.5 684.17,-302.5 678.5,-296.83 678.5,-291.17 678.5,-291.17 678.5,-279.83 678.5,-279.83 678.5,-274.17 684.17,-268.5 689.83,-268.5"/>
</g>
<!-- 280650739181430023451423735221670518082&#45;&gt;209364878450296315326210225037850333582 -->
<g id="edge21" class="edge">
<title>280650739181430023451423735221670518082:e&#45;&gt;209364878450296315326210225037850333582:w</title>
<path fill="none" stroke="black" d="M792.5,-285.5C863.36,-285.5 855.06,-196.84 918.19,-188.18"/>
<polygon fill="black" stroke="black" points="918.75,-191.65 928.5,-187.5 918.29,-184.66 918.75,-191.65"/>
</g>
<!-- 148239002411163839457159433506436151961 -->
<g id="node3" class="node">
<title>148239002411163839457159433506436151961</title>
<text text-anchor="start" x="112.5" y="-669.3" font-family="Helvetica,sans-Serif" font-size="14.00">lights</text>
<text text-anchor="start" x="104.5" y="-658.5" font-family="Helvetica,sans-Serif" font-size="10.00" fill="red">LightsNode</text>
<path fill="none" stroke="black" d="M110.33,-650.5C110.33,-650.5 153.67,-650.5 153.67,-650.5 159.33,-650.5 165,-656.17 165,-661.83 165,-661.83 165,-673.17 165,-673.17 165,-678.83 159.33,-684.5 153.67,-684.5 153.67,-684.5 110.33,-684.5 110.33,-684.5 104.67,-684.5 99,-678.83 99,-673.17 99,-673.17 99,-661.83 99,-661.83 99,-656.17 104.67,-650.5 110.33,-650.5"/>
</g>
<!-- 177374760815761415056367433652879807769 -->
<g id="node7" class="node">
<title>177374760815761415056367433652879807769</title>
<text text-anchor="start" x="409" y="-347.3" font-family="Helvetica,sans-Serif" font-size="14.00">main_pass</text>
<text text-anchor="start" x="391" y="-336.5" font-family="Helvetica,sans-Serif" font-size="10.00" fill="red">PassNode&lt;MainPass&gt;</text>
<polygon fill="none" stroke="black" points="347.5,-308.5 347.5,-329.5 533.5,-329.5 533.5,-308.5 347.5,-308.5"/>
<text text-anchor="start" x="350.5" y="-315.3" font-family="Helvetica,sans-Serif" font-size="14.00">color_attachment: Texture</text>
<text text-anchor="start" x="537.5" y="-315.3" font-family="Helvetica,sans-Serif" font-size="14.00"> </text>
<polygon fill="none" stroke="black" points="347.5,-285.5 347.5,-306.5 533.5,-306.5 533.5,-285.5 347.5,-285.5"/>
<text text-anchor="start" x="390.5" y="-292.3" font-family="Helvetica,sans-Serif" font-size="14.00">depth: Texture</text>
<text text-anchor="start" x="537.5" y="-292.3" font-family="Helvetica,sans-Serif" font-size="14.00"> </text>
<path fill="none" stroke="black" d="M356,-282.5C356,-282.5 535,-282.5 535,-282.5 541,-282.5 547,-288.5 547,-294.5 547,-294.5 547,-350.5 547,-350.5 547,-356.5 541,-362.5 535,-362.5 535,-362.5 356,-362.5 356,-362.5 350,-362.5 344,-356.5 344,-350.5 344,-350.5 344,-294.5 344,-294.5 344,-288.5 350,-282.5 356,-282.5"/>
</g>
<!-- 148239002411163839457159433506436151961&#45;&gt;177374760815761415056367433652879807769 -->
<g id="edge16" class="edge">
<title>148239002411163839457159433506436151961:e&#45;&gt;177374760815761415056367433652879807769:w</title>
<path fill="none" stroke="black" d="M163,-667.5C209.83,-667.5 231.11,-670.83 264,-637.5 356.22,-544.04 219.23,-355.77 336.41,-345.9"/>
<polygon fill="black" stroke="black" points="336.65,-349.4 346.5,-345.5 336.37,-342.4 336.65,-349.4"/>
</g>
<!-- 59988616429920548179391488042899088359 -->
<g id="node4" class="node">
<title>59988616429920548179391488042899088359</title>
<text text-anchor="start" x="409.5" y="-241.3" font-family="Helvetica,sans-Serif" font-size="14.00">camera_ui</text>
<text text-anchor="start" x="413.5" y="-230.5" font-family="Helvetica,sans-Serif" font-size="10.00" fill="red">CameraNode</text>
<path fill="none" stroke="black" d="M415.83,-222.5C415.83,-222.5 475.17,-222.5 475.17,-222.5 480.83,-222.5 486.5,-228.17 486.5,-233.83 486.5,-233.83 486.5,-245.17 486.5,-245.17 486.5,-250.83 480.83,-256.5 475.17,-256.5 475.17,-256.5 415.83,-256.5 415.83,-256.5 410.17,-256.5 404.5,-250.83 404.5,-245.17 404.5,-245.17 404.5,-233.83 404.5,-233.83 404.5,-228.17 410.17,-222.5 415.83,-222.5"/>
</g>
<!-- 51183908228833318846200586739869134561 -->
<g id="node8" class="node">
<title>51183908228833318846200586739869134561</title>
<text text-anchor="start" x="711" y="-189.3" font-family="Helvetica,sans-Serif" font-size="14.00">ui_pass</text>
<text text-anchor="start" x="692" y="-178.5" font-family="Helvetica,sans-Serif" font-size="10.00" fill="red">PassNode&lt;Node&gt;</text>
<polygon fill="none" stroke="black" points="638.5,-150.5 638.5,-171.5 824.5,-171.5 824.5,-150.5 638.5,-150.5"/>
<text text-anchor="start" x="641.5" y="-157.3" font-family="Helvetica,sans-Serif" font-size="14.00">color_attachment: Texture</text>
<text text-anchor="start" x="828.5" y="-157.3" font-family="Helvetica,sans-Serif" font-size="14.00"> </text>
<polygon fill="none" stroke="black" points="638.5,-127.5 638.5,-148.5 824.5,-148.5 824.5,-127.5 638.5,-127.5"/>
<text text-anchor="start" x="681.5" y="-134.3" font-family="Helvetica,sans-Serif" font-size="14.00">depth: Texture</text>
<text text-anchor="start" x="828.5" y="-134.3" font-family="Helvetica,sans-Serif" font-size="14.00"> </text>
<path fill="none" stroke="black" d="M647,-124.5C647,-124.5 826,-124.5 826,-124.5 832,-124.5 838,-130.5 838,-136.5 838,-136.5 838,-192.5 838,-192.5 838,-198.5 832,-204.5 826,-204.5 826,-204.5 647,-204.5 647,-204.5 641,-204.5 635,-198.5 635,-192.5 635,-192.5 635,-136.5 635,-136.5 635,-130.5 641,-124.5 647,-124.5"/>
</g>
<!-- 59988616429920548179391488042899088359&#45;&gt;51183908228833318846200586739869134561 -->
<g id="edge4" class="edge">
<title>59988616429920548179391488042899088359:e&#45;&gt;51183908228833318846200586739869134561:w</title>
<path fill="none" stroke="black" d="M484.5,-239.5C552.81,-239.5 564.62,-192.45 627.41,-187.86"/>
<polygon fill="black" stroke="black" points="627.63,-191.35 637.5,-187.5 627.38,-184.36 627.63,-191.35"/>
</g>
<!-- 239578612996740184383479268384082733198 -->
<g id="node5" class="node">
<title>239578612996740184383479268384082733198</title>
<text text-anchor="start" x="93.5" y="-609.3" font-family="Helvetica,sans-Serif" font-size="14.00">camera_2d</text>
<text text-anchor="start" x="100" y="-598.5" font-family="Helvetica,sans-Serif" font-size="10.00" fill="red">CameraNode</text>
<path fill="none" stroke="black" d="M99.33,-590.5C99.33,-590.5 164.67,-590.5 164.67,-590.5 170.33,-590.5 176,-596.17 176,-601.83 176,-601.83 176,-613.17 176,-613.17 176,-618.83 170.33,-624.5 164.67,-624.5 164.67,-624.5 99.33,-624.5 99.33,-624.5 93.67,-624.5 88,-618.83 88,-613.17 88,-613.17 88,-601.83 88,-601.83 88,-596.17 93.67,-590.5 99.33,-590.5"/>
</g>
<!-- 239578612996740184383479268384082733198&#45;&gt;177374760815761415056367433652879807769 -->
<g id="edge9" class="edge">
<title>239578612996740184383479268384082733198:e&#45;&gt;177374760815761415056367433652879807769:w</title>
<path fill="none" stroke="black" d="M174,-607.5C216.16,-607.5 233.89,-607.02 264,-577.5 339.55,-503.43 243.84,-355.73 336.29,-346.01"/>
<polygon fill="black" stroke="black" points="336.69,-349.49 346.5,-345.5 336.34,-342.5 336.69,-349.49"/>
</g>
<!-- 120582858828651580827174129815401865486 -->
<g id="node6" class="node">
<title>120582858828651580827174129815401865486</title>
<text text-anchor="start" x="93.5" y="-549.3" font-family="Helvetica,sans-Serif" font-size="14.00">camera_3d</text>
<text text-anchor="start" x="100" y="-538.5" font-family="Helvetica,sans-Serif" font-size="10.00" fill="red">CameraNode</text>
<path fill="none" stroke="black" d="M99.33,-530.5C99.33,-530.5 164.67,-530.5 164.67,-530.5 170.33,-530.5 176,-536.17 176,-541.83 176,-541.83 176,-553.17 176,-553.17 176,-558.83 170.33,-564.5 164.67,-564.5 164.67,-564.5 99.33,-564.5 99.33,-564.5 93.67,-564.5 88,-558.83 88,-553.17 88,-553.17 88,-541.83 88,-541.83 88,-536.17 93.67,-530.5 99.33,-530.5"/>
</g>
<!-- 120582858828651580827174129815401865486&#45;&gt;177374760815761415056367433652879807769 -->
<g id="edge8" class="edge">
<title>120582858828651580827174129815401865486:e&#45;&gt;177374760815761415056367433652879807769:w</title>
<path fill="none" stroke="black" d="M174,-547.5C216.16,-547.5 232.38,-545.39 264,-517.5 324.86,-463.84 267.14,-355.35 336.38,-346.13"/>
<polygon fill="black" stroke="black" points="336.74,-349.61 346.5,-345.5 336.3,-342.63 336.74,-349.61"/>
</g>
<!-- 177374760815761415056367433652879807769&#45;&gt;209364878450296315326210225037850333582 -->
<g id="edge17" class="edge">
<title>177374760815761415056367433652879807769:e&#45;&gt;209364878450296315326210225037850333582:w</title>
<path fill="none" stroke="black" d="M545.5,-345.5C599.46,-345.5 579.73,-281.53 627,-255.5 713.53,-207.85 750.54,-242.92 846,-217.5 880.17,-208.4 888.12,-191.16 918.35,-188"/>
<polygon fill="black" stroke="black" points="918.68,-191.49 928.5,-187.5 918.34,-184.5 918.68,-191.49"/>
</g>
<!-- 177374760815761415056367433652879807769&#45;&gt;51183908228833318846200586739869134561 -->
<g id="edge3" class="edge">
<title>177374760815761415056367433652879807769:e&#45;&gt;51183908228833318846200586739869134561:w</title>
<path fill="none" stroke="black" d="M545.5,-345.5C623.11,-345.5 562.27,-201.38 627.44,-188.43"/>
<polygon fill="black" stroke="black" points="627.86,-191.9 637.5,-187.5 627.22,-184.93 627.86,-191.9"/>
</g>
<!-- 51183908228833318846200586739869134561&#45;&gt;209364878450296315326210225037850333582 -->
<g id="edge18" class="edge">
<title>51183908228833318846200586739869134561:e&#45;&gt;209364878450296315326210225037850333582:w</title>
<path fill="none" stroke="black" d="M836.5,-187.5C873.72,-187.5 885.53,-187.5 918.18,-187.5"/>
<polygon fill="black" stroke="black" points="918.5,-191 928.5,-187.5 918.5,-184 918.5,-191"/>
</g>
<!-- 137250958552999406629789827517201634301 -->
<g id="node9" class="node">
<title>137250958552999406629789827517201634301</title>
<text text-anchor="start" x="69" y="-489.3" font-family="Helvetica,sans-Serif" font-size="14.00">standard_material</text>
<text text-anchor="start" x="13" y="-478.5" font-family="Helvetica,sans-Serif" font-size="10.00" fill="red">AssetRenderResourcesNode&lt;StandardMaterial&gt;</text>
<path fill="none" stroke="black" d="M19.33,-470.5C19.33,-470.5 244.67,-470.5 244.67,-470.5 250.33,-470.5 256,-476.17 256,-481.83 256,-481.83 256,-493.17 256,-493.17 256,-498.83 250.33,-504.5 244.67,-504.5 244.67,-504.5 19.33,-504.5 19.33,-504.5 13.67,-504.5 8,-498.83 8,-493.17 8,-493.17 8,-481.83 8,-481.83 8,-476.17 13.67,-470.5 19.33,-470.5"/>
</g>
<!-- 137250958552999406629789827517201634301&#45;&gt;177374760815761415056367433652879807769 -->
<g id="edge14" class="edge">
<title>137250958552999406629789827517201634301:e&#45;&gt;177374760815761415056367433652879807769:w</title>
<path fill="none" stroke="black" d="M254,-487.5C325.64,-487.5 276.54,-359.03 336.39,-346.48"/>
<polygon fill="black" stroke="black" points="336.89,-349.95 346.5,-345.5 336.21,-342.98 336.89,-349.95"/>
</g>
<!-- 101021450116254166820812976470196596778 -->
<g id="node10" class="node">
<title>101021450116254166820812976470196596778</title>
<text text-anchor="start" x="83" y="-429.3" font-family="Helvetica,sans-Serif" font-size="14.00">color_material</text>
<text text-anchor="start" x="22" y="-418.5" font-family="Helvetica,sans-Serif" font-size="10.00" fill="red">AssetRenderResourcesNode&lt;ColorMaterial&gt;</text>
<path fill="none" stroke="black" d="M28.33,-410.5C28.33,-410.5 235.67,-410.5 235.67,-410.5 241.33,-410.5 247,-416.17 247,-421.83 247,-421.83 247,-433.17 247,-433.17 247,-438.83 241.33,-444.5 235.67,-444.5 235.67,-444.5 28.33,-444.5 28.33,-444.5 22.67,-444.5 17,-438.83 17,-433.17 17,-433.17 17,-421.83 17,-421.83 17,-416.17 22.67,-410.5 28.33,-410.5"/>
</g>
<!-- 101021450116254166820812976470196596778&#45;&gt;177374760815761415056367433652879807769 -->
<g id="edge12" class="edge">
<title>101021450116254166820812976470196596778:e&#45;&gt;177374760815761415056367433652879807769:w</title>
<path fill="none" stroke="black" d="M245,-427.5C299.37,-427.5 290.03,-355.43 336.44,-346.42"/>
<polygon fill="black" stroke="black" points="336.86,-349.9 346.5,-345.5 336.22,-342.93 336.86,-349.9"/>
</g>
<!-- 282146658423023318336946858970408030791 -->
<g id="node11" class="node">
<title>282146658423023318336946858970408030791</title>
<text text-anchor="start" x="89.5" y="-729.3" font-family="Helvetica,sans-Serif" font-size="14.00">sprite_sheet</text>
<text text-anchor="start" x="24.5" y="-718.5" font-family="Helvetica,sans-Serif" font-size="10.00" fill="red">AssetRenderResourcesNode&lt;TextureAtlas&gt;</text>
<path fill="none" stroke="black" d="M30.33,-710.5C30.33,-710.5 233.67,-710.5 233.67,-710.5 239.33,-710.5 245,-716.17 245,-721.83 245,-721.83 245,-733.17 245,-733.17 245,-738.83 239.33,-744.5 233.67,-744.5 233.67,-744.5 30.33,-744.5 30.33,-744.5 24.67,-744.5 19,-738.83 19,-733.17 19,-733.17 19,-721.83 19,-721.83 19,-716.17 24.67,-710.5 30.33,-710.5"/>
</g>
<!-- 205370180928785963083363604167695822035 -->
<g id="node12" class="node">
<title>205370180928785963083363604167695822035</title>
<text text-anchor="start" x="112" y="-369.3" font-family="Helvetica,sans-Serif" font-size="14.00">sprite</text>
<text text-anchor="start" x="54" y="-358.5" font-family="Helvetica,sans-Serif" font-size="10.00" fill="red">RenderResourcesNode&lt;Sprite&gt;</text>
<path fill="none" stroke="black" d="M60.33,-350.5C60.33,-350.5 203.67,-350.5 203.67,-350.5 209.33,-350.5 215,-356.17 215,-361.83 215,-361.83 215,-373.17 215,-373.17 215,-378.83 209.33,-384.5 203.67,-384.5 203.67,-384.5 60.33,-384.5 60.33,-384.5 54.67,-384.5 49,-378.83 49,-373.17 49,-373.17 49,-361.83 49,-361.83 49,-356.17 54.67,-350.5 60.33,-350.5"/>
</g>
<!-- 205370180928785963083363604167695822035&#45;&gt;177374760815761415056367433652879807769 -->
<g id="edge13" class="edge">
<title>205370180928785963083363604167695822035:e&#45;&gt;177374760815761415056367433652879807769:w</title>
<path fill="none" stroke="black" d="M213,-367.5C269.61,-367.5 284.65,-348 336.39,-345.72"/>
<polygon fill="black" stroke="black" points="336.58,-349.21 346.5,-345.5 336.43,-342.22 336.58,-349.21"/>
</g>
<!-- 53690448435920264079635440085575235238 -->
<g id="node13" class="node">
<title>53690448435920264079635440085575235238</title>
<text text-anchor="start" x="66" y="-789.3" font-family="Helvetica,sans-Serif" font-size="14.00">sprite_sheet_sprite</text>
<text text-anchor="start" x="23.5" y="-778.5" font-family="Helvetica,sans-Serif" font-size="10.00" fill="red">RenderResourcesNode&lt;TextureAtlasSprite&gt;</text>
<path fill="none" stroke="black" d="M29.33,-770.5C29.33,-770.5 234.67,-770.5 234.67,-770.5 240.33,-770.5 246,-776.17 246,-781.83 246,-781.83 246,-793.17 246,-793.17 246,-798.83 240.33,-804.5 234.67,-804.5 234.67,-804.5 29.33,-804.5 29.33,-804.5 23.67,-804.5 18,-798.83 18,-793.17 18,-793.17 18,-781.83 18,-781.83 18,-776.17 23.67,-770.5 29.33,-770.5"/>
</g>
<!-- 317570384599841236213742724335537018193 -->
<g id="node14" class="node">
<title>317570384599841236213742724335537018193</title>
<text text-anchor="start" x="97.5" y="-309.3" font-family="Helvetica,sans-Serif" font-size="14.00">transform</text>
<text text-anchor="start" x="28" y="-298.5" font-family="Helvetica,sans-Serif" font-size="10.00" fill="red">RenderResourcesNode&lt;GlobalTransform&gt;</text>
<path fill="none" stroke="black" d="M34.33,-290.5C34.33,-290.5 229.67,-290.5 229.67,-290.5 235.33,-290.5 241,-296.17 241,-301.83 241,-301.83 241,-313.17 241,-313.17 241,-318.83 235.33,-324.5 229.67,-324.5 229.67,-324.5 34.33,-324.5 34.33,-324.5 28.67,-324.5 23,-318.83 23,-313.17 23,-313.17 23,-301.83 23,-301.83 23,-296.17 28.67,-290.5 34.33,-290.5"/>
</g>
<!-- 317570384599841236213742724335537018193&#45;&gt;177374760815761415056367433652879807769 -->
<g id="edge15" class="edge">
<title>317570384599841236213742724335537018193:e&#45;&gt;177374760815761415056367433652879807769:w</title>
<path fill="none" stroke="black" d="M239,-307.5C286.11,-307.5 294.74,-340.34 336.44,-344.96"/>
<polygon fill="black" stroke="black" points="336.33,-348.46 346.5,-345.5 336.7,-341.47 336.33,-348.46"/>
</g>
<!-- 317357094186351681725735677352663003966 -->
<g id="node15" class="node">
<title>317357094186351681725735677352663003966</title>
<text text-anchor="start" x="428" y="-181.3" font-family="Helvetica,sans-Serif" font-size="14.00">node</text>
<text text-anchor="start" x="369" y="-170.5" font-family="Helvetica,sans-Serif" font-size="10.00" fill="red">RenderResourcesNode&lt;Node&gt;</text>
<path fill="none" stroke="black" d="M374.83,-162.5C374.83,-162.5 516.17,-162.5 516.17,-162.5 521.83,-162.5 527.5,-168.17 527.5,-173.83 527.5,-173.83 527.5,-185.17 527.5,-185.17 527.5,-190.83 521.83,-196.5 516.17,-196.5 516.17,-196.5 374.83,-196.5 374.83,-196.5 369.17,-196.5 363.5,-190.83 363.5,-185.17 363.5,-185.17 363.5,-173.83 363.5,-173.83 363.5,-168.17 369.17,-162.5 374.83,-162.5"/>
</g>
<!-- 317357094186351681725735677352663003966&#45;&gt;51183908228833318846200586739869134561 -->
<g id="edge5" class="edge">
<title>317357094186351681725735677352663003966:e&#45;&gt;51183908228833318846200586739869134561:w</title>
<path fill="none" stroke="black" d="M525.5,-179.5C571.8,-179.5 585.64,-186.39 627.24,-187.38"/>
<polygon fill="black" stroke="black" points="627.46,-190.88 637.5,-187.5 627.54,-183.88 627.46,-190.88"/>
</g>
<!-- 83501104036954683778670938105736398957 -->
<g id="node16" class="node">
<title>83501104036954683778670938105736398957</title>
<text text-anchor="start" x="80" y="-249.3" font-family="Helvetica,sans-Serif" font-size="14.00">shared_buffers</text>
<text text-anchor="start" x="85" y="-238.5" font-family="Helvetica,sans-Serif" font-size="10.00" fill="red">SharedBuffersNode</text>
<path fill="none" stroke="black" d="M86.33,-230.5C86.33,-230.5 177.67,-230.5 177.67,-230.5 183.33,-230.5 189,-236.17 189,-241.83 189,-241.83 189,-253.17 189,-253.17 189,-258.83 183.33,-264.5 177.67,-264.5 177.67,-264.5 86.33,-264.5 86.33,-264.5 80.67,-264.5 75,-258.83 75,-253.17 75,-253.17 75,-241.83 75,-241.83 75,-236.17 80.67,-230.5 86.33,-230.5"/>
</g>
<!-- 83501104036954683778670938105736398957&#45;&gt;177374760815761415056367433652879807769 -->
<g id="edge7" class="edge">
<title>83501104036954683778670938105736398957:e&#45;&gt;177374760815761415056367433652879807769:w</title>
<path fill="none" stroke="black" d="M187,-247.5C223.73,-247.5 232.32,-258.92 264,-277.5 301.79,-299.66 299.63,-338.75 336.3,-344.73"/>
<polygon fill="black" stroke="black" points="336.26,-348.23 346.5,-345.5 336.79,-341.25 336.26,-348.23"/>
</g>
<!-- 110694218431332548338279671031049951312 -->
<g id="node17" class="node">
<title>110694218431332548338279671031049951312</title>
<text text-anchor="start" x="87" y="-189.3" font-family="Helvetica,sans-Serif" font-size="14.00">texture_copy</text>
<text text-anchor="start" x="88.5" y="-178.5" font-family="Helvetica,sans-Serif" font-size="10.00" fill="red">TextureCopyNode</text>
<path fill="none" stroke="black" d="M93.33,-170.5C93.33,-170.5 170.67,-170.5 170.67,-170.5 176.33,-170.5 182,-176.17 182,-181.83 182,-181.83 182,-193.17 182,-193.17 182,-198.83 176.33,-204.5 170.67,-204.5 170.67,-204.5 93.33,-204.5 93.33,-204.5 87.67,-204.5 82,-198.83 82,-193.17 82,-193.17 82,-181.83 82,-181.83 82,-176.17 87.67,-170.5 93.33,-170.5"/>
</g>
<!-- 110694218431332548338279671031049951312&#45;&gt;177374760815761415056367433652879807769 -->
<g id="edge6" class="edge">
<title>110694218431332548338279671031049951312:e&#45;&gt;177374760815761415056367433652879807769:w</title>
<path fill="none" stroke="black" d="M180,-187.5C219.64,-187.5 232.94,-192.86 264,-217.5 314.12,-257.26 282.72,-336.23 336.31,-344.75"/>
<polygon fill="black" stroke="black" points="336.27,-348.26 346.5,-345.5 336.78,-341.28 336.27,-348.26"/>
</g>
<!-- 300227301982401003593245076666277291373 -->
<g id="node18" class="node">
<title>300227301982401003593245076666277291373</title>
<text text-anchor="start" x="95" y="-128.3" font-family="Helvetica,sans-Serif" font-size="14.00">swapchain</text>
<text text-anchor="start" x="72.5" y="-117.5" font-family="Helvetica,sans-Serif" font-size="10.00" fill="red">WindowSwapChainNode</text>
<text text-anchor="start" x="71" y="-96.3" font-family="Helvetica,sans-Serif" font-size="14.00"> </text>
<polygon fill="none" stroke="black" points="80,-89.5 80,-110.5 195,-110.5 195,-89.5 80,-89.5"/>
<text text-anchor="start" x="83" y="-96.3" font-family="Helvetica,sans-Serif" font-size="14.00">texture: Texture</text>
<path fill="none" stroke="black" d="M78,-87C78,-87 186,-87 186,-87 192,-87 198,-93 198,-99 198,-99 198,-132 198,-132 198,-138 192,-144 186,-144 186,-144 78,-144 78,-144 72,-144 66,-138 66,-132 66,-132 66,-99 66,-99 66,-93 72,-87 78,-87"/>
</g>
<!-- 300227301982401003593245076666277291373&#45;&gt;209364878450296315326210225037850333582 -->
<g id="edge19" class="edge">
<title>300227301982401003593245076666277291373:e&#45;&gt;209364878450296315326210225037850333582:w</title>
<path fill="none" stroke="blue" d="M196,-99.5C484.94,-99.5 568.09,-32.43 846,-111.5 883.49,-122.17 885.74,-154.27 918.42,-159.71"/>
<polygon fill="blue" stroke="blue" points="918.26,-163.21 928.5,-160.5 918.8,-156.23 918.26,-163.21"/>
</g>
<!-- 300227301982401003593245076666277291373&#45;&gt;177374760815761415056367433652879807769 -->
<g id="edge10" class="edge">
<title>300227301982401003593245076666277291373:e&#45;&gt;177374760815761415056367433652879807769:w</title>
<path fill="none" stroke="blue" d="M196,-99.5C235.72,-99.5 239.36,-126.34 264,-157.5 311.63,-217.74 270.19,-309.77 336.42,-317.92"/>
<polygon fill="blue" stroke="blue" points="336.32,-321.42 346.5,-318.5 336.72,-314.43 336.32,-321.42"/>
</g>
<!-- 300227301982401003593245076666277291373&#45;&gt;51183908228833318846200586739869134561 -->
<g id="edge1" class="edge">
<title>300227301982401003593245076666277291373:e&#45;&gt;51183908228833318846200586739869134561:w</title>
<path fill="none" stroke="blue" d="M196,-99.5C201.67,-99.5 562.21,-150.68 627.49,-159.28"/>
<polygon fill="blue" stroke="blue" points="627.15,-162.77 637.5,-160.5 628,-155.82 627.15,-162.77"/>
</g>
<!-- 284118159498543798449449570883624931952 -->
<g id="node19" class="node">
<title>284118159498543798449449570883624931952</title>
<text text-anchor="start" x="43" y="-45.3" font-family="Helvetica,sans-Serif" font-size="14.00">main_pass_depth_texture</text>
<text text-anchor="start" x="81.5" y="-34.5" font-family="Helvetica,sans-Serif" font-size="10.00" fill="red">WindowTextureNode</text>
<text text-anchor="start" x="56.5" y="-13.3" font-family="Helvetica,sans-Serif" font-size="14.00"> </text>
<polygon fill="none" stroke="black" points="80,-6.5 80,-27.5 224,-27.5 224,-6.5 80,-6.5"/>
<text text-anchor="start" x="97.5" y="-13.3" font-family="Helvetica,sans-Serif" font-size="14.00">texture: Texture</text>
<path fill="none" stroke="black" d="M49,-4C49,-4 215,-4 215,-4 221,-4 227,-10 227,-16 227,-16 227,-49 227,-49 227,-55 221,-61 215,-61 215,-61 49,-61 49,-61 43,-61 37,-55 37,-49 37,-49 37,-16 37,-16 37,-10 43,-4 49,-4"/>
</g>
<!-- 284118159498543798449449570883624931952&#45;&gt;209364878450296315326210225037850333582 -->
<g id="edge20" class="edge">
<title>284118159498543798449449570883624931952:e&#45;&gt;209364878450296315326210225037850333582:w</title>
<path fill="none" stroke="blue" d="M225,-16.5C502.04,-16.5 589.18,33.39 846,-70.5 886.37,-86.83 882.28,-129.99 918.4,-136.64"/>
<polygon fill="blue" stroke="blue" points="918.24,-140.14 928.5,-137.5 918.83,-133.16 918.24,-140.14"/>
</g>
<!-- 284118159498543798449449570883624931952&#45;&gt;177374760815761415056367433652879807769 -->
<g id="edge11" class="edge">
<title>284118159498543798449449570883624931952:e&#45;&gt;177374760815761415056367433652879807769:w</title>
<path fill="none" stroke="blue" d="M225,-16.5C356.68,-16.5 218.91,-280.98 336.38,-294.93"/>
<polygon fill="blue" stroke="blue" points="336.32,-298.43 346.5,-295.5 336.71,-291.44 336.32,-298.43"/>
</g>
<!-- 284118159498543798449449570883624931952&#45;&gt;51183908228833318846200586739869134561 -->
<g id="edge2" class="edge">
<title>284118159498543798449449570883624931952:e&#45;&gt;51183908228833318846200586739869134561:w</title>
<path fill="none" stroke="blue" d="M225,-16.5C247.2,-16.5 564.01,-121.08 627.64,-135.79"/>
<polygon fill="blue" stroke="blue" points="627.05,-139.24 637.5,-137.5 628.25,-132.34 627.05,-139.24"/>
</g>
</g>
</svg>
