<?xml version="1.0" encoding="UTF-8" standalone="no"?>
<!DOCTYPE svg PUBLIC "-//W3C//DTD SVG 1.1//EN"
 "http://www.w3.org/Graphics/SVG/1.1/DTD/svg11.dtd">
<!-- Generated by graphviz version 2.43.0 (0)
 -->
<!-- Title: schedule Pages: 1 -->
<svg width="2239pt" height="1053pt"
 viewBox="0.00 0.00 2239.00 1053.00" xmlns="http://www.w3.org/2000/svg" xmlns:xlink="http://www.w3.org/1999/xlink">
<g id="graph0" class="graph" transform="scale(1 1) rotate(0) translate(4 1049)">
<title>schedule</title>
<polygon fill="#35393f" stroke="transparent" points="-4,4 -4,-1049 2235,-1049 2235,4 -4,4"/>
<g id="clust1" class="cluster">
<title>cluster_&quot;RenderStage::Extract&quot;</title>
<path fill="#99aab5" stroke="#99aab5" d="M20,-8C20,-8 436,-8 436,-8 442,-8 448,-14 448,-20 448,-20 448,-1025 448,-1025 448,-1031 442,-1037 436,-1037 436,-1037 20,-1037 20,-1037 14,-1037 8,-1031 8,-1025 8,-1025 8,-20 8,-20 8,-14 14,-8 20,-8"/>
<text text-anchor="middle" x="228" y="-1020.2" font-family="Helvetica,sans-Serif" font-size="16.00">RenderStage::Extract</text>
</g>
<g id="clust2" class="cluster">
<title>cluster_&quot;RenderStage::Prepare&quot;</title>
<path fill="#99aab5" stroke="#99aab5" d="M480,-503C480,-503 825,-503 825,-503 831,-503 837,-509 837,-515 837,-515 837,-1025 837,-1025 837,-1031 831,-1037 825,-1037 825,-1037 480,-1037 480,-1037 474,-1037 468,-1031 468,-1025 468,-1025 468,-515 468,-515 468,-509 474,-503 480,-503"/>
<text text-anchor="middle" x="652.5" y="-1020.2" font-family="Helvetica,sans-Serif" font-size="16.00">RenderStage::Prepare</text>
</g>
<g id="clust3" class="cluster">
<title>cluster_&quot;RenderStage::Queue&quot;</title>
<path fill="#99aab5" stroke="#99aab5" d="M869,-635C869,-635 1183,-635 1183,-635 1189,-635 1195,-641 1195,-647 1195,-647 1195,-1025 1195,-1025 1195,-1031 1189,-1037 1183,-1037 1183,-1037 869,-1037 869,-1037 863,-1037 857,-1031 857,-1025 857,-1025 857,-647 857,-647 857,-641 863,-635 869,-635"/>
<text text-anchor="middle" x="1026" y="-1020.2" font-family="Helvetica,sans-Serif" font-size="16.00">RenderStage::Queue</text>
</g>
<g id="clust4" class="cluster">
<title>cluster_&quot;RenderStage::PhaseSort&quot;</title>
<path fill="#99aab5" stroke="#99aab5" d="M1227,-734C1227,-734 1538,-734 1538,-734 1544,-734 1550,-740 1550,-746 1550,-746 1550,-1025 1550,-1025 1550,-1031 1544,-1037 1538,-1037 1538,-1037 1227,-1037 1227,-1037 1221,-1037 1215,-1031 1215,-1025 1215,-1025 1215,-746 1215,-746 1215,-740 1221,-734 1227,-734"/>
<text text-anchor="middle" x="1382.5" y="-1020.2" font-family="Helvetica,sans-Serif" font-size="16.00">RenderStage::PhaseSort</text>
</g>
<g id="clust5" class="cluster">
<title>cluster_&quot;RenderStage::Render&quot;</title>
<path fill="#99aab5" stroke="#99aab5" d="M1582,-899C1582,-899 1871,-899 1871,-899 1877,-899 1883,-905 1883,-911 1883,-911 1883,-1025 1883,-1025 1883,-1031 1877,-1037 1871,-1037 1871,-1037 1582,-1037 1582,-1037 1576,-1037 1570,-1031 1570,-1025 1570,-1025 1570,-911 1570,-911 1570,-905 1576,-899 1582,-899"/>
<text text-anchor="middle" x="1726.5" y="-1020.2" font-family="Helvetica,sans-Serif" font-size="16.00">RenderStage::Render</text>
</g>
<g id="clust6" class="cluster">
<title>cluster_&quot;RenderStage::Cleanup&quot;</title>
<path fill="#99aab5" stroke="#99aab5" d="M1915,-932C1915,-932 2211,-932 2211,-932 2217,-932 2223,-938 2223,-944 2223,-944 2223,-1025 2223,-1025 2223,-1031 2217,-1037 2211,-1037 2211,-1037 1915,-1037 1915,-1037 1909,-1037 1903,-1031 1903,-1025 1903,-1025 1903,-944 1903,-944 1903,-938 1909,-932 1915,-932"/>
<text text-anchor="middle" x="2063" y="-1020.2" font-family="Helvetica,sans-Serif" font-size="16.00">RenderStage::Cleanup</text>
</g>
<!-- MARKER_schedule_RenderStage::Extract -->
<!-- MARKER_schedule_RenderStage::Prepare -->
<!-- MARKER_schedule_RenderStage::Extract&#45;&gt;MARKER_schedule_RenderStage::Prepare -->
<g id="edge7" class="edge">
<title>MARKER_schedule_RenderStage::Extract&#45;&gt;MARKER_schedule_RenderStage::Prepare</title>
<path fill="none" stroke="white" d="M377.07,-988C413.81,-988 453.37,-988 490.69,-988"/>
<polygon fill="white" stroke="white" points="491.15,-991.5 501.15,-988 491.15,-984.5 491.15,-991.5"/>
</g>
<!-- schedule_bevy_core_pipeline::core_2d::extract_core_2d_camera_phases_0 -->
<g id="node2" class="node">
<title>schedule_bevy_core_pipeline::core_2d::extract_core_2d_camera_phases_0</title>
<g id="a_node2"><a xlink:title="Res [TypeRegistryArc]&#10;">
<polygon fill="#eff1f3" stroke="#eff1f3" points="342.5,-969.5 113.5,-969.5 113.5,-940.5 342.5,-940.5 342.5,-969.5"/>
<text text-anchor="middle" x="228" y="-951.3" font-family="Times,serif" font-size="14.00">extract_core_2d_camera_phases</text>
</a>
</g>
</g>
<!-- schedule_bevy_core_pipeline::core_3d::extract_core_3d_camera_phases_1 -->
<g id="node3" class="node">
<title>schedule_bevy_core_pipeline::core_3d::extract_core_3d_camera_phases_1</title>
<g id="a_node3"><a xlink:title="Res [TypeRegistryArc]&#10;">
<polygon fill="#eff1f3" stroke="#eff1f3" points="342.5,-936.5 113.5,-936.5 113.5,-907.5 342.5,-907.5 342.5,-936.5"/>
<text text-anchor="middle" x="228" y="-918.3" font-family="Times,serif" font-size="14.00">extract_core_3d_camera_phases</text>
</a>
</g>
</g>
<!-- schedule_bevy_pbr::material::extract_materials&lt;bevy_pbr::pbr_material::StandardMaterial&gt;_2 -->
<g id="node4" class="node">
<title>schedule_bevy_pbr::material::extract_materials&lt;bevy_pbr::pbr_material::StandardMaterial&gt;_2</title>
<g id="a_node4"><a xlink:title="Res [TypeRegistryArc]&#10;">
<polygon fill="#eff1f3" stroke="#eff1f3" points="366.5,-903.5 89.5,-903.5 89.5,-874.5 366.5,-874.5 366.5,-903.5"/>
<text text-anchor="middle" x="228" y="-885.3" font-family="Times,serif" font-size="14.00">extract_materials&lt;StandardMaterial&gt;</text>
</a>
</g>
</g>
<!-- schedule_bevy_pbr::render::light::extract_clusters_3 -->
<g id="node5" class="node">
<title>schedule_bevy_pbr::render::light::extract_clusters_3</title>
<g id="a_node5"><a xlink:title="Res [TypeRegistryArc]&#10;">
<polygon fill="#eff1f3" stroke="#eff1f3" points="285.5,-870.5 170.5,-870.5 170.5,-841.5 285.5,-841.5 285.5,-870.5"/>
<text text-anchor="middle" x="228" y="-852.3" font-family="Times,serif" font-size="14.00">extract_clusters</text>
</a>
</g>
</g>
<!-- schedule_bevy_pbr::render::light::extract_lights_4 -->
<g id="node6" class="node">
<title>schedule_bevy_pbr::render::light::extract_lights_4</title>
<g id="a_node6"><a xlink:title="Res [TypeRegistryArc]&#10;">
<polygon fill="#eff1f3" stroke="#eff1f3" points="277.5,-837.5 178.5,-837.5 178.5,-808.5 277.5,-808.5 277.5,-837.5"/>
<text text-anchor="middle" x="228" y="-819.3" font-family="Times,serif" font-size="14.00">extract_lights</text>
</a>
</g>
</g>
<!-- schedule_bevy_pbr::render::mesh::extract_meshes_5 -->
<g id="node7" class="node">
<title>schedule_bevy_pbr::render::mesh::extract_meshes_5</title>
<g id="a_node7"><a xlink:title="Res [TypeRegistryArc]&#10;">
<polygon fill="#eff1f3" stroke="#eff1f3" points="284,-804.5 172,-804.5 172,-775.5 284,-775.5 284,-804.5"/>
<text text-anchor="middle" x="228" y="-786.3" font-family="Times,serif" font-size="14.00">extract_meshes</text>
</a>
</g>
</g>
<!-- schedule_bevy_pbr::render::mesh::extract_skinned_meshes_6 -->
<g id="node8" class="node">
<title>schedule_bevy_pbr::render::mesh::extract_skinned_meshes_6</title>
<g id="a_node8"><a xlink:title="Res [TypeRegistryArc]&#10;">
<polygon fill="#eff1f3" stroke="#eff1f3" points="315.5,-771.5 140.5,-771.5 140.5,-742.5 315.5,-742.5 315.5,-771.5"/>
<text text-anchor="middle" x="228" y="-753.3" font-family="Times,serif" font-size="14.00">extract_skinned_meshes</text>
</a>
</g>
</g>
<!-- schedule_bevy_render::camera::camera::extract_cameras_7 -->
<g id="node9" class="node">
<title>schedule_bevy_render::camera::camera::extract_cameras_7</title>
<g id="a_node9"><a xlink:title="Res [TypeRegistryArc]&#10;">
<polygon fill="#eff1f3" stroke="#eff1f3" points="287,-738.5 169,-738.5 169,-709.5 287,-709.5 287,-738.5"/>
<text text-anchor="middle" x="228" y="-720.3" font-family="Times,serif" font-size="14.00">extract_cameras</text>
</a>
</g>
</g>
<!-- schedule_bevy_render::extract_component::extract_components&lt;bevy_core_pipeline::core_2d::camera_2d::Camera2d&gt;_8 -->
<g id="node10" class="node">
<title>schedule_bevy_render::extract_component::extract_components&lt;bevy_core_pipeline::core_2d::camera_2d::Camera2d&gt;_8</title>
<g id="a_node10"><a xlink:title="Res [TypeRegistryArc]&#10;">
<polygon fill="#eff1f3" stroke="#eff1f3" points="349,-705.5 107,-705.5 107,-676.5 349,-676.5 349,-705.5"/>
<text text-anchor="middle" x="228" y="-687.3" font-family="Times,serif" font-size="14.00">extract_components&lt;Camera2d&gt;</text>
</a>
</g>
</g>
<!-- schedule_bevy_render::extract_component::extract_components&lt;bevy_core_pipeline::core_3d::camera_3d::Camera3d&gt;_9 -->
<g id="node11" class="node">
<title>schedule_bevy_render::extract_component::extract_components&lt;bevy_core_pipeline::core_3d::camera_3d::Camera3d&gt;_9</title>
<g id="a_node11"><a xlink:title="Res [TypeRegistryArc]&#10;">
<polygon fill="#eff1f3" stroke="#eff1f3" points="349,-672.5 107,-672.5 107,-643.5 349,-643.5 349,-672.5"/>
<text text-anchor="middle" x="228" y="-654.3" font-family="Times,serif" font-size="14.00">extract_components&lt;Camera3d&gt;</text>
</a>
</g>
</g>
<!-- schedule_bevy_render::extract_component::extract_components&lt;bevy_ui::entity::UiCameraConfig&gt;_10 -->
<g id="node12" class="node">
<title>schedule_bevy_render::extract_component::extract_components&lt;bevy_ui::entity::UiCameraConfig&gt;_10</title>
<g id="a_node12"><a xlink:title="Res [TypeRegistryArc]&#10;">
<polygon fill="#eff1f3" stroke="#eff1f3" points="371,-639.5 85,-639.5 85,-610.5 371,-610.5 371,-639.5"/>
<text text-anchor="middle" x="228" y="-621.3" font-family="Times,serif" font-size="14.00">extract_components&lt;UiCameraConfig&gt;</text>
</a>
</g>
</g>
<!-- schedule_bevy_render::extract_component::extract_visible_components&lt;bevy_asset::handle::Handle&lt;bevy_pbr::pbr_material::StandardMaterial&gt;&gt;_11 -->
<g id="node13" class="node">
<title>schedule_bevy_render::extract_component::extract_visible_components&lt;bevy_asset::handle::Handle&lt;bevy_pbr::pbr_material::StandardMaterial&gt;&gt;_11</title>
<g id="a_node13"><a xlink:title="Res [TypeRegistryArc]&#10;">
<polygon fill="#eff1f3" stroke="#eff1f3" points="440,-606.5 16,-606.5 16,-577.5 440,-577.5 440,-606.5"/>
<text text-anchor="middle" x="228" y="-588.3" font-family="Times,serif" font-size="14.00">extract_visible_components&lt;Handle&lt;StandardMaterial&gt;&gt;</text>
</a>
</g>
</g>
<!-- schedule_bevy_render::extract_component::extract_visible_components&lt;bevy_asset::handle::Handle&lt;bevy_sprite::mesh2d::color_material::ColorMaterial&gt;&gt;_12 -->
<g id="node14" class="node">
<title>schedule_bevy_render::extract_component::extract_visible_components&lt;bevy_asset::handle::Handle&lt;bevy_sprite::mesh2d::color_material::ColorMaterial&gt;&gt;_12</title>
<g id="a_node14"><a xlink:title="Res [TypeRegistryArc]&#10;">
<polygon fill="#eff1f3" stroke="#eff1f3" points="426,-573.5 30,-573.5 30,-544.5 426,-544.5 426,-573.5"/>
<text text-anchor="middle" x="228" y="-555.3" font-family="Times,serif" font-size="14.00">extract_visible_components&lt;Handle&lt;ColorMaterial&gt;&gt;</text>
</a>
</g>
</g>
<!-- schedule_bevy_render::extract_resource::extract_resource&lt;bevy_core_pipeline::clear_color::ClearColor&gt;_13 -->
<g id="node15" class="node">
<title>schedule_bevy_render::extract_resource::extract_resource&lt;bevy_core_pipeline::clear_color::ClearColor&gt;_13</title>
<g id="a_node15"><a xlink:title="Res [TypeRegistryArc]&#10;ResMut [Assets&lt;AudioSource&gt;]&#10;">
<polygon fill="#eff1f3" stroke="#eff1f3" points="338.5,-540.5 117.5,-540.5 117.5,-511.5 338.5,-511.5 338.5,-540.5"/>
<text text-anchor="middle" x="228" y="-522.3" font-family="Times,serif" font-size="14.00">extract_resource&lt;ClearColor&gt;</text>
</a>
</g>
</g>
<!-- schedule_bevy_render::extract_resource::extract_resource&lt;bevy_pbr::light::AmbientLight&gt;_14 -->
<g id="node16" class="node">
<title>schedule_bevy_render::extract_resource::extract_resource&lt;bevy_pbr::light::AmbientLight&gt;_14</title>
<g id="a_node16"><a xlink:title="Res [TypeRegistryArc]&#10;ResMut [Events&lt;AssetEvent&lt;AudioSource&gt;&gt;]&#10;">
<polygon fill="#eff1f3" stroke="#eff1f3" points="349,-507.5 107,-507.5 107,-478.5 349,-478.5 349,-507.5"/>
<text text-anchor="middle" x="228" y="-489.3" font-family="Times,serif" font-size="14.00">extract_resource&lt;AmbientLight&gt;</text>
</a>
</g>
</g>
<!-- schedule_bevy_render::extract_resource::extract_resource&lt;bevy_render::view::Msaa&gt;_15 -->
<g id="node17" class="node">
<title>schedule_bevy_render::extract_resource::extract_resource&lt;bevy_render::view::Msaa&gt;_15</title>
<g id="a_node17"><a xlink:title="Res [TypeRegistryArc]&#10;ResMut [AudioOutput]&#10;">
<polygon fill="#eff1f3" stroke="#eff1f3" points="319.5,-474.5 136.5,-474.5 136.5,-445.5 319.5,-445.5 319.5,-474.5"/>
<text text-anchor="middle" x="228" y="-456.3" font-family="Times,serif" font-size="14.00">extract_resource&lt;Msaa&gt;</text>
</a>
</g>
</g>
<!-- schedule_bevy_render::render_asset::extract_render_asset&lt;bevy_render::mesh::mesh::Mesh&gt;_16 -->
<g id="node18" class="node">
<title>schedule_bevy_render::render_asset::extract_render_asset&lt;bevy_render::mesh::mesh::Mesh&gt;_16</title>
<g id="a_node18"><a xlink:title="Res [TypeRegistryArc]&#10;">
<polygon fill="#eff1f3" stroke="#eff1f3" points="335,-441.5 121,-441.5 121,-412.5 335,-412.5 335,-441.5"/>
<text text-anchor="middle" x="228" y="-423.3" font-family="Times,serif" font-size="14.00">extract_render_asset&lt;Mesh&gt;</text>
</a>
</g>
</g>
<!-- schedule_bevy_render::render_asset::extract_render_asset&lt;bevy_render::texture::image::Image&gt;_17 -->
<g id="node19" class="node">
<title>schedule_bevy_render::render_asset::extract_render_asset&lt;bevy_render::texture::image::Image&gt;_17</title>
<g id="a_node19"><a xlink:title="Res [TypeRegistryArc]&#10;">
<polygon fill="#eff1f3" stroke="#eff1f3" points="337.5,-408.5 118.5,-408.5 118.5,-379.5 337.5,-379.5 337.5,-408.5"/>
<text text-anchor="middle" x="228" y="-390.3" font-family="Times,serif" font-size="14.00">extract_render_asset&lt;Image&gt;</text>
</a>
</g>
</g>
<!-- schedule_bevy_render::render_resource::pipeline_cache::PipelineCache::extract_shaders_18 -->
<g id="node20" class="node">
<title>schedule_bevy_render::render_resource::pipeline_cache::PipelineCache::extract_shaders_18</title>
<g id="a_node20"><a xlink:title="Res [TypeRegistryArc]&#10;ResMut [Events&lt;KeyboardInput&gt;]&#10;">
<polygon fill="#eff1f3" stroke="#eff1f3" points="285.5,-375.5 170.5,-375.5 170.5,-346.5 285.5,-346.5 285.5,-375.5"/>
<text text-anchor="middle" x="228" y="-357.3" font-family="Times,serif" font-size="14.00">extract_shaders</text>
</a>
</g>
</g>
<!-- schedule_bevy_render::view::window::extract_windows_19 -->
<g id="node21" class="node">
<title>schedule_bevy_render::view::window::extract_windows_19</title>
<g id="a_node21"><a xlink:title="Res [TypeRegistryArc]&#10;ResMut [Events&lt;MouseMotion&gt;]&#10;">
<polygon fill="#eff1f3" stroke="#eff1f3" points="288.5,-342.5 167.5,-342.5 167.5,-313.5 288.5,-313.5 288.5,-342.5"/>
<text text-anchor="middle" x="228" y="-324.3" font-family="Times,serif" font-size="14.00">extract_windows</text>
</a>
</g>
</g>
<!-- schedule_bevy_sprite::mesh2d::material::extract_materials_2d&lt;bevy_sprite::mesh2d::color_material::ColorMaterial&gt;_20 -->
<g id="node22" class="node">
<title>schedule_bevy_sprite::mesh2d::material::extract_materials_2d&lt;bevy_sprite::mesh2d::color_material::ColorMaterial&gt;_20</title>
<g id="a_node22"><a xlink:title="Res [TypeRegistryArc]&#10;">
<polygon fill="#eff1f3" stroke="#eff1f3" points="365,-309.5 91,-309.5 91,-280.5 365,-280.5 365,-309.5"/>
<text text-anchor="middle" x="228" y="-291.3" font-family="Times,serif" font-size="14.00">extract_materials_2d&lt;ColorMaterial&gt;</text>
</a>
</g>
</g>
<!-- schedule_bevy_sprite::mesh2d::mesh::extract_mesh2d_21 -->
<g id="node23" class="node">
<title>schedule_bevy_sprite::mesh2d::mesh::extract_mesh2d_21</title>
<g id="a_node23"><a xlink:title="Res [TypeRegistryArc]&#10;">
<polygon fill="#eff1f3" stroke="#eff1f3" points="285.5,-276.5 170.5,-276.5 170.5,-247.5 285.5,-247.5 285.5,-276.5"/>
<text text-anchor="middle" x="228" y="-258.3" font-family="Times,serif" font-size="14.00">extract_mesh2d</text>
</a>
</g>
</g>
<!-- schedule_bevy_sprite::render::extract_sprite_events_22 -->
<g id="node24" class="node">
<title>schedule_bevy_sprite::render::extract_sprite_events_22</title>
<g id="a_node24"><a xlink:title="Res [TypeRegistryArc]&#10;ResMut [TimeReceiver]&#10;">
<polygon fill="#eff1f3" stroke="#eff1f3" points="305,-243.5 151,-243.5 151,-214.5 305,-214.5 305,-243.5"/>
<text text-anchor="middle" x="228" y="-225.3" font-family="Times,serif" font-size="14.00">extract_sprite_events</text>
</a>
</g>
</g>
<!-- schedule_bevy_sprite::render::extract_sprites_23 -->
<g id="node25" class="node">
<title>schedule_bevy_sprite::render::extract_sprites_23</title>
<g id="a_node25"><a xlink:title="Res [TypeRegistryArc]&#10;ResMut [ScratchMainWorld]&#10;">
<polygon fill="#eff1f3" stroke="#eff1f3" points="282,-210.5 174,-210.5 174,-181.5 282,-181.5 282,-210.5"/>
<text text-anchor="middle" x="228" y="-192.3" font-family="Times,serif" font-size="14.00">extract_sprites</text>
</a>
</g>
</g>
<!-- schedule_bevy_text::text2d::extract_text2d_sprite_24 -->
<g id="node26" class="node">
<title>schedule_bevy_text::text2d::extract_text2d_sprite_24</title>
<g id="a_node26"><a xlink:title="Res [TypeRegistryArc]&#10;ResMut [ScratchMainWorld]&#10;">
<polygon fill="#eff1f3" stroke="#eff1f3" points="305,-177.5 151,-177.5 151,-148.5 305,-148.5 305,-177.5"/>
<text text-anchor="middle" x="228" y="-159.3" font-family="Times,serif" font-size="14.00">extract_text2d_sprite</text>
</a>
</g>
</g>
<!-- schedule_bevy_sprite::render::extract_sprites_23&#45;&gt;schedule_bevy_text::text2d::extract_text2d_sprite_24 -->
<g id="edge1" class="edge">
<title>schedule_bevy_sprite::render::extract_sprites_23&#45;&gt;schedule_bevy_text::text2d::extract_text2d_sprite_24</title>
<path fill="none" stroke="white" d="M228,-181.41C228,-181.26 228,-181.1 228,-180.95"/>
<polygon fill="white" stroke="white" points="231.5,-187.7 228,-177.7 224.5,-187.7 231.5,-187.7"/>
</g>
<!-- schedule_bevy_ui::render::extract_default_ui_camera_view&lt;bevy_core_pipeline::core_2d::camera_2d::Camera2d&gt;_25 -->
<g id="node27" class="node">
<title>schedule_bevy_ui::render::extract_default_ui_camera_view&lt;bevy_core_pipeline::core_2d::camera_2d::Camera2d&gt;_25</title>
<g id="a_node27"><a xlink:title="Res [TypeRegistryArc]&#10;">
<polygon fill="#eff1f3" stroke="#eff1f3" points="390.5,-144.5 65.5,-144.5 65.5,-115.5 390.5,-115.5 390.5,-144.5"/>
<text text-anchor="middle" x="228" y="-126.3" font-family="Times,serif" font-size="14.00">extract_default_ui_camera_view&lt;Camera2d&gt;</text>
</a>
</g>
</g>
<!-- schedule_bevy_ui::render::extract_default_ui_camera_view&lt;bevy_core_pipeline::core_3d::camera_3d::Camera3d&gt;_26 -->
<g id="node28" class="node">
<title>schedule_bevy_ui::render::extract_default_ui_camera_view&lt;bevy_core_pipeline::core_3d::camera_3d::Camera3d&gt;_26</title>
<g id="a_node28"><a xlink:title="Res [TypeRegistryArc]&#10;">
<polygon fill="#eff1f3" stroke="#eff1f3" points="390.5,-111.5 65.5,-111.5 65.5,-82.5 390.5,-82.5 390.5,-111.5"/>
<text text-anchor="middle" x="228" y="-93.3" font-family="Times,serif" font-size="14.00">extract_default_ui_camera_view&lt;Camera3d&gt;</text>
</a>
</g>
</g>
<!-- schedule_bevy_ui::render::extract_text_uinodes_27 -->
<g id="node29" class="node">
<title>schedule_bevy_ui::render::extract_text_uinodes_27</title>
<g id="a_node29"><a xlink:title="Res [TypeRegistryArc]&#10;ResMut [Assets&lt;Image&gt;]&#10;">
<polygon fill="#eff1f3" stroke="#eff1f3" points="302.5,-78.5 153.5,-78.5 153.5,-49.5 302.5,-49.5 302.5,-78.5"/>
<text text-anchor="middle" x="228" y="-60.3" font-family="Times,serif" font-size="14.00">extract_text_uinodes</text>
</a>
</g>
</g>
<!-- schedule_bevy_ui::render::extract_uinodes_28 -->
<g id="node30" class="node">
<title>schedule_bevy_ui::render::extract_uinodes_28</title>
<g id="a_node30"><a xlink:title="Res [TypeRegistryArc]&#10;ResMut [Assets&lt;Image&gt;]&#10;">
<polygon fill="#eff1f3" stroke="#eff1f3" points="285,-45.5 171,-45.5 171,-16.5 285,-16.5 285,-45.5"/>
<text text-anchor="middle" x="228" y="-27.3" font-family="Times,serif" font-size="14.00">extract_uinodes</text>
</a>
</g>
</g>
<!-- schedule_bevy_ui::render::extract_uinodes_28&#45;&gt;schedule_bevy_ui::render::extract_text_uinodes_27 -->
<g id="edge2" class="edge">
<title>schedule_bevy_ui::render::extract_uinodes_28&#45;&gt;schedule_bevy_ui::render::extract_text_uinodes_27</title>
<path fill="none" stroke="white" d="M228,-45.7C228,-45.85 228,-46.01 228,-46.16"/>
<polygon fill="white" stroke="white" points="224.5,-39.41 228,-49.41 231.5,-39.41 224.5,-39.41"/>
</g>
<!-- MARKER_schedule_RenderStage::Queue -->
<!-- MARKER_schedule_RenderStage::Prepare&#45;&gt;MARKER_schedule_RenderStage::Queue -->
<g id="edge8" class="edge">
<title>MARKER_schedule_RenderStage::Prepare&#45;&gt;MARKER_schedule_RenderStage::Queue</title>
<path fill="none" stroke="white" d="M803.53,-988C825.54,-988 848.23,-988 870.33,-988"/>
<polygon fill="white" stroke="white" points="870.43,-991.5 880.43,-988 870.43,-984.5 870.43,-991.5"/>
</g>
<!-- schedule_bevy_pbr::render::light::prepare_lights_0 -->
<g id="node32" class="node">
<title>schedule_bevy_pbr::render::light::prepare_lights_0</title>
<g id="a_node32"><a xlink:title="prepare_lights">
<polygon fill="#eff1f3" stroke="#eff1f3" points="704.5,-969.5 600.5,-969.5 600.5,-940.5 704.5,-940.5 704.5,-969.5"/>
<text text-anchor="start" x="600.5" y="-957.3" font-family="Times,serif" font-size="14.00">prepare_lights</text>
<text text-anchor="start" x="602.5" y="-945.7" font-family="Times,serif" font-size="11.00" fill="red">Exclusive at start</text>
</a>
</g>
</g>
<!-- schedule_bevy_core_pipeline::core_3d::prepare_core_3d_depth_textures_0 -->
<g id="node33" class="node">
<title>schedule_bevy_core_pipeline::core_3d::prepare_core_3d_depth_textures_0</title>
<g id="a_node33"><a xlink:title="Components [ExtractedCamera]&#10;Res [RenderDevice, Msaa]&#10;ResMut [TextureCache]&#10;">
<polygon fill="#eff1f3" stroke="#eff1f3" points="769.5,-936.5 535.5,-936.5 535.5,-907.5 769.5,-907.5 769.5,-936.5"/>
<text text-anchor="middle" x="652.5" y="-918.3" font-family="Times,serif" font-size="14.00">prepare_core_3d_depth_textures</text>
</a>
</g>
</g>
<!-- schedule_bevy_pbr::material::prepare_materials&lt;bevy_pbr::pbr_material::StandardMaterial&gt;_1 -->
<g id="node34" class="node">
<title>schedule_bevy_pbr::material::prepare_materials&lt;bevy_pbr::pbr_material::StandardMaterial&gt;_1</title>
<g id="a_node34"><a xlink:title="Res [RenderDevice, HashMap&lt;Handle&lt;Image&gt;, GpuImage&gt;, FallbackImage, MaterialPipeline&lt;StandardMaterial&gt;]&#10;ResMut [HashMap&lt;Handle&lt;StandardMaterial&gt;, PreparedMaterial&lt;StandardMaterial&gt;&gt;, ExtractedMaterials&lt;StandardMaterial&gt;]&#10;">
<polygon fill="#eff1f3" stroke="#eff1f3" points="793.5,-903.5 511.5,-903.5 511.5,-874.5 793.5,-874.5 793.5,-903.5"/>
<text text-anchor="middle" x="652.5" y="-885.3" font-family="Times,serif" font-size="14.00">prepare_materials&lt;StandardMaterial&gt;</text>
</a>
</g>
</g>
<!-- schedule_bevy_render::render_asset::prepare_assets&lt;bevy_render::texture::image::Image&gt;_7 -->
<g id="node35" class="node">
<title>schedule_bevy_render::render_asset::prepare_assets&lt;bevy_render::texture::image::Image&gt;_7</title>
<g id="a_node35"><a xlink:title="Res [RenderDevice, Arc&lt;Queue&gt;, DefaultImageSampler]&#10;ResMut [ExtractedAssets&lt;Image&gt;, HashMap&lt;Handle&lt;Image&gt;, GpuImage&gt;, PrepareNextFrameAssets&lt;Image&gt;]&#10;">
<polygon fill="#eff1f3" stroke="#eff1f3" points="741,-870.5 564,-870.5 564,-841.5 741,-841.5 741,-870.5"/>
<text text-anchor="middle" x="652.5" y="-852.3" font-family="Times,serif" font-size="14.00">prepare_assets&lt;Image&gt;</text>
</a>
</g>
</g>
<!-- schedule_bevy_render::render_asset::prepare_assets&lt;bevy_render::texture::image::Image&gt;_7&#45;&gt;schedule_bevy_pbr::material::prepare_materials&lt;bevy_pbr::pbr_material::StandardMaterial&gt;_1 -->
<g id="edge3" class="edge">
<title>schedule_bevy_render::render_asset::prepare_assets&lt;bevy_render::texture::image::Image&gt;_7&#45;&gt;schedule_bevy_pbr::material::prepare_materials&lt;bevy_pbr::pbr_material::StandardMaterial&gt;_1</title>
<path fill="none" stroke="white" d="M652.5,-870.7C652.5,-870.85 652.5,-871.01 652.5,-871.16"/>
<polygon fill="white" stroke="white" points="649,-864.41 652.5,-874.41 656,-864.41 649,-864.41"/>
</g>
<!-- schedule_bevy_render::render_asset::prepare_assets&lt;bevy_render::mesh::mesh::Mesh&gt;_6 -->
<g id="node40" class="node">
<title>schedule_bevy_render::render_asset::prepare_assets&lt;bevy_render::mesh::mesh::Mesh&gt;_6</title>
<g id="a_node40"><a xlink:title="Res [RenderDevice]&#10;ResMut [ExtractedAssets&lt;Mesh&gt;, HashMap&lt;Handle&lt;Mesh&gt;, GpuMesh&gt;, PrepareNextFrameAssets&lt;Mesh&gt;]&#10;">
<polygon fill="#eff1f3" stroke="#eff1f3" points="738.5,-705.5 566.5,-705.5 566.5,-676.5 738.5,-676.5 738.5,-705.5"/>
<text text-anchor="middle" x="652.5" y="-687.3" font-family="Times,serif" font-size="14.00">prepare_assets&lt;Mesh&gt;</text>
</a>
</g>
</g>
<!-- schedule_bevy_render::render_asset::prepare_assets&lt;bevy_render::texture::image::Image&gt;_7&#45;&gt;schedule_bevy_render::render_asset::prepare_assets&lt;bevy_render::mesh::mesh::Mesh&gt;_6 -->
<g id="edge4" class="edge">
<title>schedule_bevy_render::render_asset::prepare_assets&lt;bevy_render::texture::image::Image&gt;_7&#45;&gt;schedule_bevy_render::render_asset::prepare_assets&lt;bevy_render::mesh::mesh::Mesh&gt;_6</title>
<path fill="none" stroke="white" d="M583.17,-870.52C539.94,-875.09 487.16,-871.57 458,-836 449.27,-825.35 449.27,-722.65 458,-712 483.9,-680.4 528.42,-673.86 568.33,-675.81"/>
<polygon fill="white" stroke="white" points="568.15,-679.31 578.36,-676.48 568.61,-672.32 568.15,-679.31"/>
</g>
<!-- schedule_bevy_sprite::mesh2d::material::prepare_materials_2d&lt;bevy_sprite::mesh2d::color_material::ColorMaterial&gt;_11 -->
<g id="node44" class="node">
<title>schedule_bevy_sprite::mesh2d::material::prepare_materials_2d&lt;bevy_sprite::mesh2d::color_material::ColorMaterial&gt;_11</title>
<g id="a_node44"><a xlink:title="Res [RenderDevice, HashMap&lt;Handle&lt;Image&gt;, GpuImage&gt;, FallbackImage, Material2dPipeline&lt;ColorMaterial&gt;]&#10;ResMut [HashMap&lt;Handle&lt;ColorMaterial&gt;, PreparedMaterial2d&lt;ColorMaterial&gt;&gt;, ExtractedMaterials2d&lt;ColorMaterial&gt;]&#10;">
<polygon fill="#eff1f3" stroke="#eff1f3" points="792,-573.5 513,-573.5 513,-544.5 792,-544.5 792,-573.5"/>
<text text-anchor="middle" x="652.5" y="-555.3" font-family="Times,serif" font-size="14.00">prepare_materials_2d&lt;ColorMaterial&gt;</text>
</a>
</g>
</g>
<!-- schedule_bevy_render::render_asset::prepare_assets&lt;bevy_render::texture::image::Image&gt;_7&#45;&gt;schedule_bevy_sprite::mesh2d::material::prepare_materials_2d&lt;bevy_sprite::mesh2d::color_material::ColorMaterial&gt;_11 -->
<g id="edge6" class="edge">
<title>schedule_bevy_render::render_asset::prepare_assets&lt;bevy_render::texture::image::Image&gt;_7&#45;&gt;schedule_bevy_sprite::mesh2d::material::prepare_materials_2d&lt;bevy_sprite::mesh2d::color_material::ColorMaterial&gt;_11</title>
<path fill="none" stroke="white" d="M583.17,-870.52C539.94,-875.09 487.16,-871.57 458,-836 448.98,-825 448.98,-591 458,-580 483.9,-548.4 528.42,-541.86 568.33,-543.81"/>
<polygon fill="white" stroke="white" points="568.15,-547.31 578.36,-544.48 568.61,-540.32 568.15,-547.31"/>
</g>
<!-- schedule_bevy_pbr::render::light::prepare_clusters_2 -->
<g id="node36" class="node">
<title>schedule_bevy_pbr::render::light::prepare_clusters_2</title>
<g id="a_node36"><a xlink:title="Components [ExtractedClusterConfig, ExtractedClustersPointLights]&#10;Res [RenderDevice, Arc&lt;Queue&gt;, MeshPipeline, GlobalLightMeta]&#10;">
<polygon fill="#eff1f3" stroke="#eff1f3" points="713,-837.5 592,-837.5 592,-808.5 713,-808.5 713,-837.5"/>
<text text-anchor="middle" x="652.5" y="-819.3" font-family="Times,serif" font-size="14.00">prepare_clusters</text>
</a>
</g>
</g>
<!-- schedule_bevy_pbr::render::mesh::prepare_skinned_meshes_3 -->
<g id="node37" class="node">
<title>schedule_bevy_pbr::render::mesh::prepare_skinned_meshes_3</title>
<g id="a_node37"><a xlink:title="Res [RenderDevice, Arc&lt;Queue&gt;, ExtractedJoints]&#10;ResMut [SkinnedMeshUniform]&#10;">
<polygon fill="#eff1f3" stroke="#eff1f3" points="742.5,-804.5 562.5,-804.5 562.5,-775.5 742.5,-775.5 742.5,-804.5"/>
<text text-anchor="middle" x="652.5" y="-786.3" font-family="Times,serif" font-size="14.00">prepare_skinned_meshes</text>
</a>
</g>
</g>
<!-- schedule_bevy_render::extract_component::prepare_uniform_components&lt;bevy_pbr::render::mesh::MeshUniform&gt;_4 -->
<g id="node38" class="node">
<title>schedule_bevy_render::extract_component::prepare_uniform_components&lt;bevy_pbr::render::mesh::MeshUniform&gt;_4</title>
<g id="a_node38"><a xlink:title="Components [MeshUniform]&#10;Res [RenderDevice, Arc&lt;Queue&gt;]&#10;ResMut [ComponentUniforms&lt;MeshUniform&gt;]&#10;">
<polygon fill="#eff1f3" stroke="#eff1f3" points="820,-771.5 485,-771.5 485,-742.5 820,-742.5 820,-771.5"/>
<text text-anchor="middle" x="652.5" y="-753.3" font-family="Times,serif" font-size="14.00">prepare_uniform_components&lt;MeshUniform&gt;</text>
</a>
</g>
</g>
<!-- schedule_bevy_render::extract_component::prepare_uniform_components&lt;bevy_sprite::mesh2d::mesh::Mesh2dUniform&gt;_5 -->
<g id="node39" class="node">
<title>schedule_bevy_render::extract_component::prepare_uniform_components&lt;bevy_sprite::mesh2d::mesh::Mesh2dUniform&gt;_5</title>
<g id="a_node39"><a xlink:title="Components [Mesh2dUniform]&#10;Res [RenderDevice, Arc&lt;Queue&gt;]&#10;ResMut [ComponentUniforms&lt;Mesh2dUniform&gt;]&#10;">
<polygon fill="#eff1f3" stroke="#eff1f3" points="829,-738.5 476,-738.5 476,-709.5 829,-709.5 829,-738.5"/>
<text text-anchor="middle" x="652.5" y="-720.3" font-family="Times,serif" font-size="14.00">prepare_uniform_components&lt;Mesh2dUniform&gt;</text>
</a>
</g>
</g>
<!-- schedule_bevy_render::view::prepare_view_targets_8 -->
<g id="node41" class="node">
<title>schedule_bevy_render::view::prepare_view_targets_8</title>
<g id="a_node41"><a xlink:title="Components [ExtractedCamera]&#10;Res [RenderDevice, ExtractedWindows, HashMap&lt;Handle&lt;Image&gt;, GpuImage&gt;, Msaa]&#10;ResMut [TextureCache]&#10;">
<polygon fill="#eff1f3" stroke="#eff1f3" points="730,-672.5 575,-672.5 575,-643.5 730,-643.5 730,-672.5"/>
<text text-anchor="middle" x="652.5" y="-654.3" font-family="Times,serif" font-size="14.00">prepare_view_targets</text>
</a>
</g>
</g>
<!-- schedule_bevy_render::view::window::prepare_windows_10 -->
<g id="node42" class="node">
<title>schedule_bevy_render::view::window::prepare_windows_10</title>
<g id="a_node42"><a xlink:title="Res [Instance, RenderDevice, NonSendMarker]&#10;ResMut [ExtractedWindows, WindowSurfaces]&#10;">
<polygon fill="#eff1f3" stroke="#eff1f3" points="715.5,-639.5 589.5,-639.5 589.5,-610.5 715.5,-610.5 715.5,-639.5"/>
<text text-anchor="middle" x="652.5" y="-621.3" font-family="Times,serif" font-size="14.00">prepare_windows</text>
</a>
</g>
</g>
<!-- schedule_bevy_render::view::window::prepare_windows_10&#45;&gt;schedule_bevy_render::view::prepare_view_targets_8 -->
<g id="edge5" class="edge">
<title>schedule_bevy_render::view::window::prepare_windows_10&#45;&gt;schedule_bevy_render::view::prepare_view_targets_8</title>
<path fill="none" stroke="white" d="M652.5,-639.7C652.5,-639.85 652.5,-640.01 652.5,-640.16"/>
<polygon fill="white" stroke="white" points="649,-633.41 652.5,-643.41 656,-633.41 649,-633.41"/>
</g>
<!-- schedule_bevy_render::view::prepare_view_uniforms_9 -->
<g id="node43" class="node">
<title>schedule_bevy_render::view::prepare_view_uniforms_9</title>
<g id="a_node43"><a xlink:title="Components [ExtractedView]&#10;Res [RenderDevice, Arc&lt;Queue&gt;]&#10;ResMut [ViewUniforms]&#10;">
<polygon fill="#eff1f3" stroke="#eff1f3" points="736,-606.5 569,-606.5 569,-577.5 736,-577.5 736,-606.5"/>
<text text-anchor="middle" x="652.5" y="-588.3" font-family="Times,serif" font-size="14.00">prepare_view_uniforms</text>
</a>
</g>
</g>
<!-- schedule_bevy_ui::render::prepare_uinodes_12 -->
<g id="node45" class="node">
<title>schedule_bevy_ui::render::prepare_uinodes_12</title>
<g id="a_node45"><a xlink:title="Res [RenderDevice, Arc&lt;Queue&gt;]&#10;ResMut [UiMeta, ExtractedUiNodes]&#10;">
<polygon fill="#eff1f3" stroke="#eff1f3" points="712,-540.5 593,-540.5 593,-511.5 712,-511.5 712,-540.5"/>
<text text-anchor="middle" x="652.5" y="-522.3" font-family="Times,serif" font-size="14.00">prepare_uinodes</text>
</a>
</g>
</g>
<!-- MARKER_schedule_RenderStage::PhaseSort -->
<!-- MARKER_schedule_RenderStage::Queue&#45;&gt;MARKER_schedule_RenderStage::PhaseSort -->
<g id="edge9" class="edge">
<title>MARKER_schedule_RenderStage::Queue&#45;&gt;MARKER_schedule_RenderStage::PhaseSort</title>
<path fill="none" stroke="white" d="M1171.7,-988C1185.13,-988 1198.81,-988 1212.43,-988"/>
<polygon fill="white" stroke="white" points="1212.82,-991.5 1222.82,-988 1212.82,-984.5 1212.82,-991.5"/>
</g>
<!-- schedule_bevy_pbr::material::queue_material_meshes&lt;bevy_pbr::pbr_material::StandardMaterial&gt;_0 -->
<g id="node47" class="node">
<title>schedule_bevy_pbr::material::queue_material_meshes&lt;bevy_pbr::pbr_material::StandardMaterial&gt;_0</title>
<g id="a_node47"><a xlink:title="Components [ExtractedView, Handle&lt;StandardMaterial&gt;, Handle&lt;Mesh&gt;, MeshUniform, VisibleEntities]&#10;ComponentsMut [RenderPhase&lt;Opaque3d&gt;, RenderPhase&lt;AlphaMask3d&gt;, RenderPhase&lt;Transparent3d&gt;]&#10;Res [HashMap&lt;Handle&lt;Mesh&gt;, GpuMesh&gt;, DrawFunctions&lt;Opaque3d&gt;, DrawFunctions&lt;AlphaMask3d&gt;, DrawFunctions&lt;Transparent3d&gt;, HashMap&lt;Handle&lt;StandardMaterial&gt;, PreparedMaterial&lt;StandardMaterial&gt;&gt;, MaterialPipeline&lt;StandardMaterial&gt;, Msaa]&#10;ResMut [PipelineCache, SpecializedMeshPipelines&lt;MaterialPipeline&lt;StandardMaterial&gt;&gt;]&#10;">
<polygon fill="#eff1f3" stroke="#eff1f3" points="1187,-969.5 865,-969.5 865,-940.5 1187,-940.5 1187,-969.5"/>
<text text-anchor="middle" x="1026" y="-951.3" font-family="Times,serif" font-size="14.00">queue_material_meshes&lt;StandardMaterial&gt;</text>
</a>
</g>
</g>
<!-- schedule_bevy_pbr::render::light::queue_shadow_view_bind_group_1 -->
<g id="node48" class="node">
<title>schedule_bevy_pbr::render::light::queue_shadow_view_bind_group_1</title>
<g id="a_node48"><a xlink:title="Res [RenderDevice, ViewUniforms, ShadowPipeline]&#10;ResMut [LightMeta]&#10;">
<polygon fill="#eff1f3" stroke="#eff1f3" points="1142,-936.5 910,-936.5 910,-907.5 1142,-907.5 1142,-936.5"/>
<text text-anchor="middle" x="1026" y="-918.3" font-family="Times,serif" font-size="14.00">queue_shadow_view_bind_group</text>
</a>
</g>
</g>
<!-- schedule_bevy_pbr::render::light::queue_shadows_2 -->
<g id="node49" class="node">
<title>schedule_bevy_pbr::render::light::queue_shadows_2</title>
<g id="a_node49"><a xlink:title="Components [Handle&lt;Mesh&gt;, ViewLightEntities, CubemapVisibleEntities, VisibleEntities, LightEntity]&#10;ComponentsMut [RenderPhase&lt;Shadow&gt;]&#10;Res [HashMap&lt;Handle&lt;Mesh&gt;, GpuMesh&gt;, ShadowPipeline, DrawFunctions&lt;Shadow&gt;]&#10;ResMut [PipelineCache, SpecializedMeshPipelines&lt;ShadowPipeline&gt;]&#10;">
<polygon fill="#eff1f3" stroke="#eff1f3" points="1082,-903.5 970,-903.5 970,-874.5 1082,-874.5 1082,-903.5"/>
<text text-anchor="middle" x="1026" y="-885.3" font-family="Times,serif" font-size="14.00">queue_shadows</text>
</a>
</g>
</g>
<!-- schedule_bevy_pbr::render::mesh::queue_mesh_bind_group_3 -->
<g id="node50" class="node">
<title>schedule_bevy_pbr::render::mesh::queue_mesh_bind_group_3</title>
<g id="a_node50"><a xlink:title="Res [RenderDevice, ComponentUniforms&lt;MeshUniform&gt;, MeshPipeline, SkinnedMeshUniform]&#10;">
<polygon fill="#eff1f3" stroke="#eff1f3" points="1114,-870.5 938,-870.5 938,-841.5 1114,-841.5 1114,-870.5"/>
<text text-anchor="middle" x="1026" y="-852.3" font-family="Times,serif" font-size="14.00">queue_mesh_bind_group</text>
</a>
</g>
</g>
<!-- schedule_bevy_pbr::render::mesh::queue_mesh_view_bind_groups_4 -->
<g id="node51" class="node">
<title>schedule_bevy_pbr::render::mesh::queue_mesh_view_bind_groups_4</title>
<g id="a_node51"><a xlink:title="Components [ViewShadowBindings, ViewClusterBindings]&#10;Res [RenderDevice, ViewUniforms, MeshPipeline, ShadowPipeline, LightMeta, GlobalLightMeta]&#10;">
<polygon fill="#eff1f3" stroke="#eff1f3" points="1137.5,-837.5 914.5,-837.5 914.5,-808.5 1137.5,-808.5 1137.5,-837.5"/>
<text text-anchor="middle" x="1026" y="-819.3" font-family="Times,serif" font-size="14.00">queue_mesh_view_bind_groups</text>
</a>
</g>
</g>
<!-- schedule_bevy_sprite::mesh2d::material::queue_material2d_meshes&lt;bevy_sprite::mesh2d::color_material::ColorMaterial&gt;_5 -->
<g id="node52" class="node">
<title>schedule_bevy_sprite::mesh2d::material::queue_material2d_meshes&lt;bevy_sprite::mesh2d::color_material::ColorMaterial&gt;_5</title>
<g id="a_node52"><a xlink:title="Components [Handle&lt;ColorMaterial&gt;, Mesh2dHandle, Mesh2dUniform, VisibleEntities]&#10;ComponentsMut [RenderPhase&lt;Transparent2d&gt;]&#10;Res [HashMap&lt;Handle&lt;Mesh&gt;, GpuMesh&gt;, DrawFunctions&lt;Transparent2d&gt;, HashMap&lt;Handle&lt;ColorMaterial&gt;, PreparedMaterial2d&lt;ColorMaterial&gt;&gt;, Material2dPipeline&lt;ColorMaterial&gt;, Msaa]&#10;ResMut [PipelineCache, SpecializedMeshPipelines&lt;Material2dPipeline&lt;ColorMaterial&gt;&gt;]&#10;">
<polygon fill="#eff1f3" stroke="#eff1f3" points="1182.5,-804.5 869.5,-804.5 869.5,-775.5 1182.5,-775.5 1182.5,-804.5"/>
<text text-anchor="middle" x="1026" y="-786.3" font-family="Times,serif" font-size="14.00">queue_material2d_meshes&lt;ColorMaterial&gt;</text>
</a>
</g>
</g>
<!-- schedule_bevy_sprite::mesh2d::mesh::queue_mesh2d_bind_group_6 -->
<g id="node53" class="node">
<title>schedule_bevy_sprite::mesh2d::mesh::queue_mesh2d_bind_group_6</title>
<g id="a_node53"><a xlink:title="Res [RenderDevice, ComponentUniforms&lt;Mesh2dUniform&gt;, Mesh2dPipeline]&#10;">
<polygon fill="#eff1f3" stroke="#eff1f3" points="1123,-771.5 929,-771.5 929,-742.5 1123,-742.5 1123,-771.5"/>
<text text-anchor="middle" x="1026" y="-753.3" font-family="Times,serif" font-size="14.00">queue_mesh2d_bind_group</text>
</a>
</g>
</g>
<!-- schedule_bevy_sprite::mesh2d::mesh::queue_mesh2d_view_bind_groups_7 -->
<g id="node54" class="node">
<title>schedule_bevy_sprite::mesh2d::mesh::queue_mesh2d_view_bind_groups_7</title>
<g id="a_node54"><a xlink:title="Res [RenderDevice, ViewUniforms, Mesh2dPipeline]&#10;">
<polygon fill="#eff1f3" stroke="#eff1f3" points="1146.5,-738.5 905.5,-738.5 905.5,-709.5 1146.5,-709.5 1146.5,-738.5"/>
<text text-anchor="middle" x="1026" y="-720.3" font-family="Times,serif" font-size="14.00">queue_mesh2d_view_bind_groups</text>
</a>
</g>
</g>
<!-- schedule_bevy_sprite::render::queue_sprites_8 -->
<g id="node55" class="node">
<title>schedule_bevy_sprite::render::queue_sprites_8</title>
<g id="a_node55"><a xlink:title="Components [VisibleEntities]&#10;ComponentsMut [RenderPhase&lt;Transparent2d&gt;]&#10;Res [RenderDevice, Arc&lt;Queue&gt;, ViewUniforms, HashMap&lt;Handle&lt;Image&gt;, GpuImage&gt;, DrawFunctions&lt;Transparent2d&gt;, SpritePipeline, SpriteAssetEvents, Msaa]&#10;ResMut [PipelineCache, ImageBindGroups, SpecializedRenderPipelines&lt;SpritePipeline&gt;, SpriteMeta, ExtractedSprites]&#10;">
<polygon fill="#eff1f3" stroke="#eff1f3" points="1076,-705.5 976,-705.5 976,-676.5 1076,-676.5 1076,-705.5"/>
<text text-anchor="middle" x="1026" y="-687.3" font-family="Times,serif" font-size="14.00">queue_sprites</text>
</a>
</g>
</g>
<!-- schedule_bevy_ui::render::queue_uinodes_9 -->
<g id="node56" class="node">
<title>schedule_bevy_ui::render::queue_uinodes_9</title>
<g id="a_node56"><a xlink:title="Components [UiBatch]&#10;ComponentsMut [RenderPhase&lt;TransparentUi&gt;]&#10;Res [RenderDevice, ViewUniforms, HashMap&lt;Handle&lt;Image&gt;, GpuImage&gt;, SpriteAssetEvents, UiPipeline, DrawFunctions&lt;TransparentUi&gt;]&#10;ResMut [PipelineCache, SpecializedRenderPipelines&lt;UiPipeline&gt;, UiImageBindGroups, UiMeta]&#10;">
<polygon fill="#eff1f3" stroke="#eff1f3" points="1079,-672.5 973,-672.5 973,-643.5 1079,-643.5 1079,-672.5"/>
<text text-anchor="middle" x="1026" y="-654.3" font-family="Times,serif" font-size="14.00">queue_uinodes</text>
</a>
</g>
</g>
<!-- MARKER_schedule_RenderStage::Render -->
<!-- MARKER_schedule_RenderStage::PhaseSort&#45;&gt;MARKER_schedule_RenderStage::Render -->
<g id="edge10" class="edge">
<title>MARKER_schedule_RenderStage::PhaseSort&#45;&gt;MARKER_schedule_RenderStage::Render</title>
<path fill="none" stroke="white" d="M1542.49,-988C1550.86,-988 1559.27,-988 1567.63,-988"/>
<polygon fill="white" stroke="white" points="1567.81,-991.5 1577.81,-988 1567.81,-984.5 1567.81,-991.5"/>
</g>
<!-- schedule_bevy_render::render_phase::batch_phase_system&lt;bevy_core_pipeline::core_2d::Transparent2d&gt;_0 -->
<g id="node58" class="node">
<title>schedule_bevy_render::render_phase::batch_phase_system&lt;bevy_core_pipeline::core_2d::Transparent2d&gt;_0</title>
<g id="a_node58"><a xlink:title="ComponentsMut [RenderPhase&lt;Transparent2d&gt;]&#10;">
<polygon fill="#eff1f3" stroke="#eff1f3" points="1521,-969.5 1244,-969.5 1244,-940.5 1521,-940.5 1521,-969.5"/>
<text text-anchor="middle" x="1382.5" y="-951.3" font-family="Times,serif" font-size="14.00">batch_phase_system&lt;Transparent2d&gt;</text>
</a>
</g>
</g>
<!-- schedule_bevy_render::render_phase::sort_phase_system&lt;bevy_core_pipeline::core_2d::Transparent2d&gt;_1 -->
<g id="node59" class="node">
<title>schedule_bevy_render::render_phase::sort_phase_system&lt;bevy_core_pipeline::core_2d::Transparent2d&gt;_1</title>
<g id="a_node59"><a xlink:title="ComponentsMut [RenderPhase&lt;Transparent2d&gt;]&#10;">
<polygon fill="#eff1f3" stroke="#eff1f3" points="1515,-936.5 1250,-936.5 1250,-907.5 1515,-907.5 1515,-936.5"/>
<text text-anchor="middle" x="1382.5" y="-918.3" font-family="Times,serif" font-size="14.00">sort_phase_system&lt;Transparent2d&gt;</text>
</a>
</g>
</g>
<!-- schedule_bevy_render::render_phase::sort_phase_system&lt;bevy_core_pipeline::core_3d::AlphaMask3d&gt;_2 -->
<g id="node60" class="node">
<title>schedule_bevy_render::render_phase::sort_phase_system&lt;bevy_core_pipeline::core_3d::AlphaMask3d&gt;_2</title>
<g id="a_node60"><a xlink:title="ComponentsMut [RenderPhase&lt;AlphaMask3d&gt;]&#10;">
<polygon fill="#eff1f3" stroke="#eff1f3" points="1510.5,-903.5 1254.5,-903.5 1254.5,-874.5 1510.5,-874.5 1510.5,-903.5"/>
<text text-anchor="middle" x="1382.5" y="-885.3" font-family="Times,serif" font-size="14.00">sort_phase_system&lt;AlphaMask3d&gt;</text>
</a>
</g>
</g>
<!-- schedule_bevy_render::render_phase::sort_phase_system&lt;bevy_core_pipeline::core_3d::Opaque3d&gt;_3 -->
<g id="node61" class="node">
<title>schedule_bevy_render::render_phase::sort_phase_system&lt;bevy_core_pipeline::core_3d::Opaque3d&gt;_3</title>
<g id="a_node61"><a xlink:title="ComponentsMut [RenderPhase&lt;Opaque3d&gt;]&#10;">
<polygon fill="#eff1f3" stroke="#eff1f3" points="1498.5,-870.5 1266.5,-870.5 1266.5,-841.5 1498.5,-841.5 1498.5,-870.5"/>
<text text-anchor="middle" x="1382.5" y="-852.3" font-family="Times,serif" font-size="14.00">sort_phase_system&lt;Opaque3d&gt;</text>
</a>
</g>
</g>
<!-- schedule_bevy_render::render_phase::sort_phase_system&lt;bevy_core_pipeline::core_3d::Transparent3d&gt;_4 -->
<g id="node62" class="node">
<title>schedule_bevy_render::render_phase::sort_phase_system&lt;bevy_core_pipeline::core_3d::Transparent3d&gt;_4</title>
<g id="a_node62"><a xlink:title="ComponentsMut [RenderPhase&lt;Transparent3d&gt;]&#10;">
<polygon fill="#eff1f3" stroke="#eff1f3" points="1515,-837.5 1250,-837.5 1250,-808.5 1515,-808.5 1515,-837.5"/>
<text text-anchor="middle" x="1382.5" y="-819.3" font-family="Times,serif" font-size="14.00">sort_phase_system&lt;Transparent3d&gt;</text>
</a>
</g>
</g>
<!-- schedule_bevy_render::render_phase::sort_phase_system&lt;bevy_pbr::render::light::Shadow&gt;_5 -->
<g id="node63" class="node">
<title>schedule_bevy_render::render_phase::sort_phase_system&lt;bevy_pbr::render::light::Shadow&gt;_5</title>
<g id="a_node63"><a xlink:title="ComponentsMut [RenderPhase&lt;Shadow&gt;]&#10;">
<polygon fill="#eff1f3" stroke="#eff1f3" points="1490.5,-804.5 1274.5,-804.5 1274.5,-775.5 1490.5,-775.5 1490.5,-804.5"/>
<text text-anchor="middle" x="1382.5" y="-786.3" font-family="Times,serif" font-size="14.00">sort_phase_system&lt;Shadow&gt;</text>
</a>
</g>
</g>
<!-- schedule_bevy_render::render_phase::sort_phase_system&lt;bevy_ui::render::render_pass::TransparentUi&gt;_6 -->
<g id="node64" class="node">
<title>schedule_bevy_render::render_phase::sort_phase_system&lt;bevy_ui::render::render_pass::TransparentUi&gt;_6</title>
<g id="a_node64"><a xlink:title="ComponentsMut [RenderPhase&lt;TransparentUi&gt;]&#10;">
<polygon fill="#eff1f3" stroke="#eff1f3" points="1514.5,-771.5 1250.5,-771.5 1250.5,-742.5 1514.5,-742.5 1514.5,-771.5"/>
<text text-anchor="middle" x="1382.5" y="-753.3" font-family="Times,serif" font-size="14.00">sort_phase_system&lt;TransparentUi&gt;</text>
</a>
</g>
</g>
<!-- MARKER_schedule_RenderStage::Cleanup -->
<!-- MARKER_schedule_RenderStage::Render&#45;&gt;MARKER_schedule_RenderStage::Cleanup -->
<g id="edge11" class="edge">
<title>MARKER_schedule_RenderStage::Render&#45;&gt;MARKER_schedule_RenderStage::Cleanup</title>
<path fill="none" stroke="white" d="M1875.19,-988C1883.68,-988 1892.24,-988 1900.78,-988"/>
<polygon fill="white" stroke="white" points="1900.79,-991.5 1910.79,-988 1900.79,-984.5 1900.79,-991.5"/>
</g>
<!-- schedule_bevy_render::render_resource::pipeline_cache::PipelineCache::process_pipeline_queue_system_0 -->
<g id="node66" class="node">
<title>schedule_bevy_render::render_resource::pipeline_cache::PipelineCache::process_pipeline_queue_system_0</title>
<g id="a_node66"><a xlink:title="ResMut [PipelineCache]&#10;">
<polygon fill="#eff1f3" stroke="#eff1f3" points="1840,-969.5 1613,-969.5 1613,-940.5 1840,-940.5 1840,-969.5"/>
<text text-anchor="middle" x="1726.5" y="-951.3" font-family="Times,serif" font-size="14.00">process_pipeline_queue_system</text>
</a>
</g>
</g>
<!-- schedule_bevy_render::renderer::render_system_0 -->
<g id="node67" class="node">
<title>schedule_bevy_render::renderer::render_system_0</title>
<g id="a_node67"><a xlink:title="render_system">
<polygon fill="#eff1f3" stroke="#eff1f3" points="1779.5,-936.5 1673.5,-936.5 1673.5,-907.5 1779.5,-907.5 1779.5,-936.5"/>
<text text-anchor="start" x="1673.5" y="-924.3" font-family="Times,serif" font-size="14.00">render_system</text>
<text text-anchor="start" x="1680" y="-912.7" font-family="Times,serif" font-size="11.00" fill="red">Exclusive at end</text>
</a>
</g>
</g>
<!-- schedule_bevy_render::texture::texture_cache::update_texture_cache_system_0 -->
<g id="node69" class="node">
<title>schedule_bevy_render::texture::texture_cache::update_texture_cache_system_0</title>
<g id="a_node69"><a xlink:title="ResMut [TextureCache]&#10;">
<polygon fill="#eff1f3" stroke="#eff1f3" points="2170,-969.5 1956,-969.5 1956,-940.5 2170,-940.5 2170,-969.5"/>
<text text-anchor="middle" x="2063" y="-951.3" font-family="Times,serif" font-size="14.00">update_texture_cache_system</text>
</a>
</g>
</g>
</g>
</svg>
