<?xml version="1.0" encoding="UTF-8" standalone="no"?>
<!DOCTYPE svg PUBLIC "-//W3C//DTD SVG 1.1//EN"
 "http://www.w3.org/Graphics/SVG/1.1/DTD/svg11.dtd">
<!-- Generated by graphviz version 2.43.0 (0)
 -->
<!-- Title: RenderGraph Pages: 1 -->
<svg width="1094pt" height="486pt"
 viewBox="0.00 0.00 1094.00 486.00" xmlns="http://www.w3.org/2000/svg" xmlns:xlink="http://www.w3.org/1999/xlink">
<g id="graph0" class="graph" transform="scale(1 1) rotate(0) translate(4 482)">
<title>RenderGraph</title>
<polygon fill="#35393f" stroke="transparent" points="-4,4 -4,-482 1090,-482 1090,4 -4,4"/>
<g id="clust1" class="cluster">
<title>clusterdraw_2d</title>
<path fill="#5e6570" stroke="#5e6570" d="M20,-8C20,-8 743,-8 743,-8 749,-8 755,-14 755,-20 755,-20 755,-123 755,-123 755,-129 749,-135 743,-135 743,-135 20,-135 20,-135 14,-135 8,-129 8,-123 8,-123 8,-20 8,-20 8,-14 14,-8 20,-8"/>
<text text-anchor="middle" x="381.5" y="-119.8" font-family="Times,serif" font-size="14.00">draw_2d</text>
</g>
<g id="clust2" class="cluster">
<title>clusterdraw_3d</title>
<path fill="#5e6570" stroke="#5e6570" d="M20,-143C20,-143 1066,-143 1066,-143 1072,-143 1078,-149 1078,-155 1078,-155 1078,-296 1078,-296 1078,-302 1072,-308 1066,-308 1066,-308 20,-308 20,-308 14,-308 8,-302 8,-296 8,-296 8,-155 8,-155 8,-149 14,-143 20,-143"/>
<text text-anchor="middle" x="543" y="-292.8" font-family="Times,serif" font-size="14.00">draw_3d</text>
</g>
<!-- 36035954089057369843060563150047996029 -->
<g id="node1" class="node">
<title>36035954089057369843060563150047996029</title>
<text text-anchor="start" x="585" y="-84.8" font-family="Helvetica,sans-Serif" font-size="14.00" fill="white">main_pass</text>
<text text-anchor="start" x="580" y="-74" font-family="Helvetica,sans-Serif" font-size="10.00" fill="red">MainPass2dNode</text>
<polygon fill="none" stroke="#99aab5" points="507.5,-46 507.5,-67 725.5,-67 725.5,-46 507.5,-46"/>
<text text-anchor="start" x="510.5" y="-52.8" font-family="Helvetica,sans-Serif" font-size="14.00" fill="white">color_attachment: TextureView</text>
<text text-anchor="start" x="729.5" y="-52.8" font-family="Helvetica,sans-Serif" font-size="14.00" fill="white"> </text>
<polygon fill="none" stroke="#99aab5" points="507.5,-23 507.5,-44 725.5,-44 725.5,-23 507.5,-23"/>
<text text-anchor="start" x="576" y="-29.8" font-family="Helvetica,sans-Serif" font-size="14.00" fill="white">view: Entity</text>
<text text-anchor="start" x="729.5" y="-29.8" font-family="Helvetica,sans-Serif" font-size="14.00" fill="white"> </text>
<path fill="none" stroke="#99aab5" d="M516,-20C516,-20 727,-20 727,-20 733,-20 739,-26 739,-32 739,-32 739,-88 739,-88 739,-94 733,-100 727,-100 727,-100 516,-100 516,-100 510,-100 504,-94 504,-88 504,-88 504,-32 504,-32 504,-26 510,-20 516,-20"/>
</g>
<!-- 80241103396637324856533548753698809807 -->
<g id="node2" class="node">
<title>80241103396637324856533548753698809807</title>
<text text-anchor="start" x="162" y="-84.8" font-family="Helvetica,sans-Serif" font-size="14.00" fill="white">GraphInputNode</text>
<text text-anchor="start" x="180" y="-74" font-family="Helvetica,sans-Serif" font-size="10.00" fill="red">GraphInputNode</text>
<polygon fill="none" stroke="#99aab5" points="27,-46 27,-67 219,-67 219,-46 27,-46"/>
<text text-anchor="start" x="59.5" y="-52.8" font-family="Helvetica,sans-Serif" font-size="14.00" fill="white">view_entity: Entity</text>
<polygon fill="none" stroke="#99aab5" points="221,-46 221,-67 413,-67 413,-46 221,-46"/>
<text text-anchor="start" x="253.5" y="-52.8" font-family="Helvetica,sans-Serif" font-size="14.00" fill="white">view_entity: Entity</text>
<polygon fill="none" stroke="#99aab5" points="27,-23 27,-44 219,-44 219,-23 27,-23"/>
<text text-anchor="start" x="30" y="-29.8" font-family="Helvetica,sans-Serif" font-size="14.00" fill="white">render_target: TextureView</text>
<polygon fill="none" stroke="#99aab5" points="221,-23 221,-44 413,-44 413,-23 221,-23"/>
<text text-anchor="start" x="224" y="-29.8" font-family="Helvetica,sans-Serif" font-size="14.00" fill="white">render_target: TextureView</text>
<path fill="none" stroke="#99aab5" d="M36,-20C36,-20 404,-20 404,-20 410,-20 416,-26 416,-32 416,-32 416,-88 416,-88 416,-94 410,-100 404,-100 404,-100 36,-100 36,-100 30,-100 24,-94 24,-88 24,-88 24,-32 24,-32 24,-26 30,-20 36,-20"/>
</g>
<!-- 80241103396637324856533548753698809807&#45;&gt;36035954089057369843060563150047996029 -->
<g id="edge1" class="edge">
<title>80241103396637324856533548753698809807:e&#45;&gt;36035954089057369843060563150047996029:w</title>
<path fill="none" stroke="white" d="M414,-56C452.72,-56 462.55,-36.78 496.3,-33.48"/>
<polygon fill="white" stroke="white" points="496.68,-36.97 506.5,-33 496.35,-29.97 496.68,-36.97"/>
</g>
<!-- 80241103396637324856533548753698809807&#45;&gt;36035954089057369843060563150047996029 -->
<g id="edge2" class="edge">
<title>80241103396637324856533548753698809807:e&#45;&gt;36035954089057369843060563150047996029:w</title>
<path fill="none" stroke="white" d="M414,-33C452.72,-33 462.55,-52.22 496.3,-55.52"/>
<polygon fill="white" stroke="white" points="496.35,-59.03 506.5,-56 496.68,-52.03 496.35,-59.03"/>
</g>
<!-- 98611315940406153252444836342183725442 -->
<g id="node3" class="node">
<title>98611315940406153252444836342183725442</title>
<text text-anchor="start" x="575.5" y="-256.8" font-family="Helvetica,sans-Serif" font-size="14.00" fill="white">shadow_pass</text>
<text text-anchor="start" x="579" y="-246" font-family="Helvetica,sans-Serif" font-size="10.00" fill="red">ShadowPassNode</text>
<polygon fill="none" stroke="#99aab5" points="572.5,-218 572.5,-239 659.5,-239 659.5,-218 572.5,-218"/>
<text text-anchor="start" x="575.5" y="-224.8" font-family="Helvetica,sans-Serif" font-size="14.00" fill="white">view: Entity</text>
<text text-anchor="start" x="664" y="-224.8" font-family="Helvetica,sans-Serif" font-size="14.00" fill="white"> </text>
<path fill="none" stroke="#99aab5" d="M581,-215.5C581,-215.5 662,-215.5 662,-215.5 668,-215.5 674,-221.5 674,-227.5 674,-227.5 674,-260.5 674,-260.5 674,-266.5 668,-272.5 662,-272.5 662,-272.5 581,-272.5 581,-272.5 575,-272.5 569,-266.5 569,-260.5 569,-260.5 569,-227.5 569,-227.5 569,-221.5 575,-215.5 581,-215.5"/>
</g>
<!-- 254523070181514313904264913203152186598 -->
<g id="node4" class="node">
<title>254523070181514313904264913203152186598</title>
<text text-anchor="start" x="908" y="-248.8" font-family="Helvetica,sans-Serif" font-size="14.00" fill="white">main_pass</text>
<text text-anchor="start" x="903" y="-238" font-family="Helvetica,sans-Serif" font-size="10.00" fill="red">MainPass3dNode</text>
<polygon fill="none" stroke="#99aab5" points="830.5,-210 830.5,-231 1048.5,-231 1048.5,-210 830.5,-210"/>
<text text-anchor="start" x="833.5" y="-216.8" font-family="Helvetica,sans-Serif" font-size="14.00" fill="white">color_attachment: TextureView</text>
<text text-anchor="start" x="1052.5" y="-216.8" font-family="Helvetica,sans-Serif" font-size="14.00" fill="white"> </text>
<polygon fill="none" stroke="#99aab5" points="830.5,-187 830.5,-208 1048.5,-208 1048.5,-187 830.5,-187"/>
<text text-anchor="start" x="873" y="-193.8" font-family="Helvetica,sans-Serif" font-size="14.00" fill="white">depth: TextureView</text>
<text text-anchor="start" x="1052.5" y="-193.8" font-family="Helvetica,sans-Serif" font-size="14.00" fill="white"> </text>
<polygon fill="none" stroke="#99aab5" points="830.5,-164 830.5,-185 1048.5,-185 1048.5,-164 830.5,-164"/>
<text text-anchor="start" x="899" y="-170.8" font-family="Helvetica,sans-Serif" font-size="14.00" fill="white">view: Entity</text>
<text text-anchor="start" x="1052.5" y="-170.8" font-family="Helvetica,sans-Serif" font-size="14.00" fill="white"> </text>
<path fill="none" stroke="#99aab5" d="M839,-161.5C839,-161.5 1050,-161.5 1050,-161.5 1056,-161.5 1062,-167.5 1062,-173.5 1062,-173.5 1062,-252.5 1062,-252.5 1062,-258.5 1056,-264.5 1050,-264.5 1050,-264.5 839,-264.5 839,-264.5 833,-264.5 827,-258.5 827,-252.5 827,-252.5 827,-173.5 827,-173.5 827,-167.5 833,-161.5 839,-161.5"/>
</g>
<!-- 98611315940406153252444836342183725442&#45;&gt;254523070181514313904264913203152186598 -->
<g id="edge6" class="edge">
<title>98611315940406153252444836342183725442:e&#45;&gt;254523070181514313904264913203152186598:w</title>
<path fill="none" stroke="white" d="M672.5,-255C738.82,-255 757.74,-247.79 819.25,-247.06"/>
<polygon fill="white" stroke="white" points="819.52,-250.56 829.5,-247 819.48,-243.56 819.52,-250.56"/>
</g>
<!-- 271437766148219033019314626809289889698 -->
<g id="node5" class="node">
<title>271437766148219033019314626809289889698</title>
<text text-anchor="start" x="162" y="-241.8" font-family="Helvetica,sans-Serif" font-size="14.00" fill="white">GraphInputNode</text>
<text text-anchor="start" x="180" y="-231" font-family="Helvetica,sans-Serif" font-size="10.00" fill="red">GraphInputNode</text>
<polygon fill="none" stroke="#99aab5" points="27,-203 27,-224 219,-224 219,-203 27,-203"/>
<text text-anchor="start" x="59.5" y="-209.8" font-family="Helvetica,sans-Serif" font-size="14.00" fill="white">view_entity: Entity</text>
<polygon fill="none" stroke="#99aab5" points="221,-203 221,-224 413,-224 413,-203 221,-203"/>
<text text-anchor="start" x="253.5" y="-209.8" font-family="Helvetica,sans-Serif" font-size="14.00" fill="white">view_entity: Entity</text>
<polygon fill="none" stroke="#99aab5" points="27,-180 27,-201 219,-201 219,-180 27,-180"/>
<text text-anchor="start" x="30" y="-186.8" font-family="Helvetica,sans-Serif" font-size="14.00" fill="white">render_target: TextureView</text>
<polygon fill="none" stroke="#99aab5" points="221,-180 221,-201 413,-201 413,-180 221,-180"/>
<text text-anchor="start" x="224" y="-186.8" font-family="Helvetica,sans-Serif" font-size="14.00" fill="white">render_target: TextureView</text>
<polygon fill="none" stroke="#99aab5" points="27,-157 27,-178 219,-178 219,-157 27,-157"/>
<text text-anchor="start" x="56.5" y="-163.8" font-family="Helvetica,sans-Serif" font-size="14.00" fill="white">depth: TextureView</text>
<polygon fill="none" stroke="#99aab5" points="221,-157 221,-178 413,-178 413,-157 221,-157"/>
<text text-anchor="start" x="250.5" y="-163.8" font-family="Helvetica,sans-Serif" font-size="14.00" fill="white">depth: TextureView</text>
<path fill="none" stroke="#99aab5" d="M36,-154.5C36,-154.5 404,-154.5 404,-154.5 410,-154.5 416,-160.5 416,-166.5 416,-166.5 416,-245.5 416,-245.5 416,-251.5 410,-257.5 404,-257.5 404,-257.5 36,-257.5 36,-257.5 30,-257.5 24,-251.5 24,-245.5 24,-245.5 24,-166.5 24,-166.5 24,-160.5 30,-154.5 36,-154.5"/>
</g>
<!-- 271437766148219033019314626809289889698&#45;&gt;98611315940406153252444836342183725442 -->
<g id="edge7" class="edge">
<title>271437766148219033019314626809289889698:e&#45;&gt;98611315940406153252444836342183725442:w</title>
<path fill="none" stroke="white" d="M414,-214C480.71,-214 499.37,-226.61 561.19,-227.9"/>
<polygon fill="white" stroke="white" points="561.46,-231.4 571.5,-228 561.54,-224.4 561.46,-231.4"/>
</g>
<!-- 271437766148219033019314626809289889698&#45;&gt;254523070181514313904264913203152186598 -->
<g id="edge3" class="edge">
<title>271437766148219033019314626809289889698:e&#45;&gt;254523070181514313904264913203152186598:w</title>
<path fill="none" stroke="white" d="M414,-214C450.83,-214 459.41,-206.21 496,-202 566.71,-193.87 739.41,-175.66 819.32,-174.11"/>
<polygon fill="white" stroke="white" points="819.54,-177.6 829.5,-174 819.46,-170.6 819.54,-177.6"/>
</g>
<!-- 271437766148219033019314626809289889698&#45;&gt;254523070181514313904264913203152186598 -->
<g id="edge4" class="edge">
<title>271437766148219033019314626809289889698:e&#45;&gt;254523070181514313904264913203152186598:w</title>
<path fill="none" stroke="white" d="M414,-190C450.9,-190 459.21,-179.9 496,-177 610.76,-167.96 643.96,-146.66 755,-177 788.47,-186.15 790.89,-214.61 819.29,-220.08"/>
<polygon fill="white" stroke="white" points="819.23,-223.59 829.5,-221 819.85,-216.62 819.23,-223.59"/>
</g>
<!-- 271437766148219033019314626809289889698&#45;&gt;254523070181514313904264913203152186598 -->
<g id="edge5" class="edge">
<title>271437766148219033019314626809289889698:e&#45;&gt;254523070181514313904264913203152186598:w</title>
<path fill="none" stroke="white" d="M414,-167C450.66,-167 459.39,-160 496,-158 610.94,-151.71 643.22,-130.51 755,-158 787.75,-166.05 791.63,-191.33 819.53,-196.19"/>
<polygon fill="white" stroke="white" points="819.25,-199.68 829.5,-197 819.82,-192.7 819.25,-199.68"/>
</g>
<!-- 46821247288095105630964974268104809210 -->
<g id="node6" class="node">
<title>46821247288095105630964974268104809210</title>
<text text-anchor="start" x="207.5" y="-398.8" font-family="Helvetica,sans-Serif" font-size="14.00" fill="white">pbr</text>
<text text-anchor="start" x="199" y="-388" font-family="Helvetica,sans-Serif" font-size="10.00" fill="red">PbrNode</text>
<path fill="none" stroke="#99aab5" d="M205.33,-380C205.33,-380 234.67,-380 234.67,-380 240.33,-380 246,-385.67 246,-391.33 246,-391.33 246,-402.67 246,-402.67 246,-408.33 240.33,-414 234.67,-414 234.67,-414 205.33,-414 205.33,-414 199.67,-414 194,-408.33 194,-402.67 194,-402.67 194,-391.33 194,-391.33 194,-385.67 199.67,-380 205.33,-380"/>
</g>
<!-- 254960678980828127032457357170291600347 -->
<g id="node8" class="node">
<title>254960678980828127032457357170291600347</title>
<text text-anchor="start" x="532.5" y="-398.8" font-family="Helvetica,sans-Serif" font-size="14.00" fill="white">main_pass_dependencies</text>
<text text-anchor="start" x="592.5" y="-388" font-family="Helvetica,sans-Serif" font-size="10.00" fill="red">EmptyNode</text>
<path fill="none" stroke="#99aab5" d="M538.83,-380C538.83,-380 704.17,-380 704.17,-380 709.83,-380 715.5,-385.67 715.5,-391.33 715.5,-391.33 715.5,-402.67 715.5,-402.67 715.5,-408.33 709.83,-414 704.17,-414 704.17,-414 538.83,-414 538.83,-414 533.17,-414 527.5,-408.33 527.5,-402.67 527.5,-402.67 527.5,-391.33 527.5,-391.33 527.5,-385.67 533.17,-380 538.83,-380"/>
</g>
<!-- 46821247288095105630964974268104809210&#45;&gt;254960678980828127032457357170291600347 -->
<g id="edge11" class="edge">
<title>46821247288095105630964974268104809210:e&#45;&gt;254960678980828127032457357170291600347:w</title>
<path fill="none" stroke="white" d="M244,-397C367.42,-397 400.81,-397 519.3,-397"/>
<polygon fill="white" stroke="white" points="519.5,-400.5 529.5,-397 519.5,-393.5 519.5,-400.5"/>
</g>
<!-- 282624401485072707208087102166057409724 -->
<g id="node7" class="node">
<title>282624401485072707208087102166057409724</title>
<text text-anchor="start" x="883.5" y="-398.8" font-family="Helvetica,sans-Serif" font-size="14.00" fill="white">main_pass_driver</text>
<text text-anchor="start" x="893.5" y="-388" font-family="Helvetica,sans-Serif" font-size="10.00" fill="red">MainPassDriverNode</text>
<path fill="none" stroke="#99aab5" d="M889.83,-380C889.83,-380 999.17,-380 999.17,-380 1004.83,-380 1010.5,-385.67 1010.5,-391.33 1010.5,-391.33 1010.5,-402.67 1010.5,-402.67 1010.5,-408.33 1004.83,-414 999.17,-414 999.17,-414 889.83,-414 889.83,-414 884.17,-414 878.5,-408.33 878.5,-402.67 878.5,-402.67 878.5,-391.33 878.5,-391.33 878.5,-385.67 884.17,-380 889.83,-380"/>
</g>
<!-- 254960678980828127032457357170291600347&#45;&gt;282624401485072707208087102166057409724 -->
<g id="edge8" class="edge">
<title>254960678980828127032457357170291600347:e&#45;&gt;282624401485072707208087102166057409724:w</title>
<path fill="none" stroke="white" d="M713.5,-397C784.24,-397 804.42,-397 870.42,-397"/>
<polygon fill="white" stroke="white" points="870.5,-400.5 880.5,-397 870.5,-393.5 870.5,-400.5"/>
</g>
<!-- 110609350511442157187322671544638979835 -->
<g id="node9" class="node">
<title>110609350511442157187322671544638979835</title>
<text text-anchor="start" x="204" y="-338.8" font-family="Helvetica,sans-Serif" font-size="14.00" fill="white">view</text>
<text text-anchor="start" x="195" y="-328" font-family="Helvetica,sans-Serif" font-size="10.00" fill="red">ViewNode</text>
<path fill="none" stroke="#99aab5" d="M201.33,-320C201.33,-320 238.67,-320 238.67,-320 244.33,-320 250,-325.67 250,-331.33 250,-331.33 250,-342.67 250,-342.67 250,-348.33 244.33,-354 238.67,-354 238.67,-354 201.33,-354 201.33,-354 195.67,-354 190,-348.33 190,-342.67 190,-342.67 190,-331.33 190,-331.33 190,-325.67 195.67,-320 201.33,-320"/>
</g>
<!-- 110609350511442157187322671544638979835&#45;&gt;254960678980828127032457357170291600347 -->
<g id="edge9" class="edge">
<title>110609350511442157187322671544638979835:e&#45;&gt;254960678980828127032457357170291600347:w</title>
<path fill="none" stroke="white" d="M248,-337C327.35,-337 346.61,-349.46 424,-367 468.01,-376.98 479.17,-394.19 519.27,-396.69"/>
<polygon fill="white" stroke="white" points="519.4,-400.2 529.5,-397 519.61,-393.2 519.4,-400.2"/>
</g>
<!-- 236803705261512217149311764244281120641 -->
<g id="node10" class="node">
<title>236803705261512217149311764244281120641</title>
<text text-anchor="start" x="200" y="-458.8" font-family="Helvetica,sans-Serif" font-size="14.00" fill="white">sprite</text>
<text text-anchor="start" x="192.5" y="-448" font-family="Helvetica,sans-Serif" font-size="10.00" fill="red">SpriteNode</text>
<path fill="none" stroke="#99aab5" d="M198.33,-440C198.33,-440 241.67,-440 241.67,-440 247.33,-440 253,-445.67 253,-451.33 253,-451.33 253,-462.67 253,-462.67 253,-468.33 247.33,-474 241.67,-474 241.67,-474 198.33,-474 198.33,-474 192.67,-474 187,-468.33 187,-462.67 187,-462.67 187,-451.33 187,-451.33 187,-445.67 192.67,-440 198.33,-440"/>
</g>
<!-- 236803705261512217149311764244281120641&#45;&gt;254960678980828127032457357170291600347 -->
<g id="edge10" class="edge">
<title>236803705261512217149311764244281120641:e&#45;&gt;254960678980828127032457357170291600347:w</title>
<path fill="none" stroke="white" d="M251,-457C329.04,-457 347.92,-444.36 424,-427 468,-416.96 479.17,-399.8 519.27,-397.31"/>
<polygon fill="white" stroke="white" points="519.61,-400.8 529.5,-397 519.4,-393.8 519.61,-400.8"/>
</g>
</g>
</svg>
