<?xml version="1.0" encoding="UTF-8" standalone="no"?>
<!DOCTYPE svg PUBLIC "-//W3C//DTD SVG 1.1//EN"
 "http://www.w3.org/Graphics/SVG/1.1/DTD/svg11.dtd">
<!-- Generated by graphviz version 2.43.0 (0)
 -->
<!-- Title: RenderGraph Pages: 1 -->
<svg width="939pt" height="1210pt"
 viewBox="0.00 0.00 939.00 1209.50" xmlns="http://www.w3.org/2000/svg" xmlns:xlink="http://www.w3.org/1999/xlink">
<g id="graph0" class="graph" transform="scale(1 1) rotate(0) translate(4 1205.5)">
<title>RenderGraph</title>
<polygon fill="white" stroke="transparent" points="-4,4 -4,-1205.5 935,-1205.5 935,4 -4,4"/>
<!-- 52052808893893258233765329430751485924 -->
<g id="node1" class="node">
<title>52052808893893258233765329430751485924</title>
<text text-anchor="start" x="137" y="-752.3" font-family="Helvetica,sans-Serif" font-size="14.00">lights</text>
<text text-anchor="start" x="129" y="-741.5" font-family="Helvetica,sans-Serif" font-size="10.00" fill="red">LightsNode</text>
<path fill="none" stroke="black" d="M134.83,-733.5C134.83,-733.5 178.17,-733.5 178.17,-733.5 183.83,-733.5 189.5,-739.17 189.5,-744.83 189.5,-744.83 189.5,-756.17 189.5,-756.17 189.5,-761.83 183.83,-767.5 178.17,-767.5 178.17,-767.5 134.83,-767.5 134.83,-767.5 129.17,-767.5 123.5,-761.83 123.5,-756.17 123.5,-756.17 123.5,-744.83 123.5,-744.83 123.5,-739.17 129.17,-733.5 134.83,-733.5"/>
</g>
<!-- 268671383703307309898356503850643999600 -->
<g id="node7" class="node">
<title>268671383703307309898356503850643999600</title>
<text text-anchor="start" x="467" y="-378.3" font-family="Helvetica,sans-Serif" font-size="14.00">main_pass</text>
<text text-anchor="start" x="449" y="-367.5" font-family="Helvetica,sans-Serif" font-size="10.00" fill="red">PassNode&lt;MainPass&gt;</text>
<polygon fill="none" stroke="black" points="396.5,-339.5 396.5,-360.5 600.5,-360.5 600.5,-339.5 396.5,-339.5"/>
<text text-anchor="start" x="408.5" y="-346.3" font-family="Helvetica,sans-Serif" font-size="14.00">color_attachment: Texture</text>
<text text-anchor="start" x="604.5" y="-346.3" font-family="Helvetica,sans-Serif" font-size="14.00"> </text>
<polygon fill="none" stroke="black" points="396.5,-316.5 396.5,-337.5 600.5,-337.5 600.5,-316.5 396.5,-316.5"/>
<text text-anchor="start" x="399.5" y="-323.3" font-family="Helvetica,sans-Serif" font-size="14.00">color_resolve_target: Texture</text>
<text text-anchor="start" x="604.5" y="-323.3" font-family="Helvetica,sans-Serif" font-size="14.00"> </text>
<polygon fill="none" stroke="black" points="396.5,-293.5 396.5,-314.5 600.5,-314.5 600.5,-293.5 396.5,-293.5"/>
<text text-anchor="start" x="448.5" y="-300.3" font-family="Helvetica,sans-Serif" font-size="14.00">depth: Texture</text>
<text text-anchor="start" x="604.5" y="-300.3" font-family="Helvetica,sans-Serif" font-size="14.00"> </text>
<path fill="none" stroke="black" d="M405,-291C405,-291 602,-291 602,-291 608,-291 614,-297 614,-303 614,-303 614,-382 614,-382 614,-388 608,-394 602,-394 602,-394 405,-394 405,-394 399,-394 393,-388 393,-382 393,-382 393,-303 393,-303 393,-297 399,-291 405,-291"/>
</g>
<!-- 52052808893893258233765329430751485924&#45;&gt;268671383703307309898356503850643999600 -->
<g id="edge16" class="edge">
<title>52052808893893258233765329430751485924:e&#45;&gt;268671383703307309898356503850643999600:w</title>
<path fill="none" stroke="black" d="M187.5,-750.5C244.85,-750.5 272.62,-761.22 313,-720.5 421.21,-611.36 246.46,-386.88 385.42,-376.85"/>
<polygon fill="black" stroke="black" points="385.63,-380.34 395.5,-376.5 385.39,-373.35 385.63,-380.34"/>
</g>
<!-- 167323371498338282021529626794681315984 -->
<g id="node2" class="node">
<title>167323371498338282021529626794681315984</title>
<text text-anchor="start" x="118" y="-692.3" font-family="Helvetica,sans-Serif" font-size="14.00">camera_3d</text>
<text text-anchor="start" x="124.5" y="-681.5" font-family="Helvetica,sans-Serif" font-size="10.00" fill="red">CameraNode</text>
<path fill="none" stroke="black" d="M123.83,-673.5C123.83,-673.5 189.17,-673.5 189.17,-673.5 194.83,-673.5 200.5,-679.17 200.5,-684.83 200.5,-684.83 200.5,-696.17 200.5,-696.17 200.5,-701.83 194.83,-707.5 189.17,-707.5 189.17,-707.5 123.83,-707.5 123.83,-707.5 118.17,-707.5 112.5,-701.83 112.5,-696.17 112.5,-696.17 112.5,-684.83 112.5,-684.83 112.5,-679.17 118.17,-673.5 123.83,-673.5"/>
</g>
<!-- 167323371498338282021529626794681315984&#45;&gt;268671383703307309898356503850643999600 -->
<g id="edge7" class="edge">
<title>167323371498338282021529626794681315984:e&#45;&gt;268671383703307309898356503850643999600:w</title>
<path fill="none" stroke="black" d="M198.5,-690.5C251.11,-690.5 275.41,-697.31 313,-660.5 404.35,-571.05 271.7,-386.93 385.32,-376.92"/>
<polygon fill="black" stroke="black" points="385.65,-380.41 395.5,-376.5 385.36,-373.42 385.65,-380.41"/>
</g>
<!-- 265869960020342963813326565342580257382 -->
<g id="node3" class="node">
<title>265869960020342963813326565342580257382</title>
<text text-anchor="start" x="118" y="-632.3" font-family="Helvetica,sans-Serif" font-size="14.00">camera_2d</text>
<text text-anchor="start" x="124.5" y="-621.5" font-family="Helvetica,sans-Serif" font-size="10.00" fill="red">CameraNode</text>
<path fill="none" stroke="black" d="M123.83,-613.5C123.83,-613.5 189.17,-613.5 189.17,-613.5 194.83,-613.5 200.5,-619.17 200.5,-624.83 200.5,-624.83 200.5,-636.17 200.5,-636.17 200.5,-641.83 194.83,-647.5 189.17,-647.5 189.17,-647.5 123.83,-647.5 123.83,-647.5 118.17,-647.5 112.5,-641.83 112.5,-636.17 112.5,-636.17 112.5,-624.83 112.5,-624.83 112.5,-619.17 118.17,-613.5 123.83,-613.5"/>
</g>
<!-- 265869960020342963813326565342580257382&#45;&gt;268671383703307309898356503850643999600 -->
<g id="edge8" class="edge">
<title>265869960020342963813326565342580257382:e&#45;&gt;268671383703307309898356503850643999600:w</title>
<path fill="none" stroke="black" d="M198.5,-630.5C251.11,-630.5 274.05,-635.86 313,-600.5 388.87,-531.63 296.18,-386.84 385.34,-377.03"/>
<polygon fill="black" stroke="black" points="385.69,-380.51 395.5,-376.5 385.33,-373.52 385.69,-380.51"/>
</g>
<!-- 241629558174005483189609256836373122919 -->
<g id="node4" class="node">
<title>241629558174005483189609256836373122919</title>
<text text-anchor="start" x="91" y="-1062.3" font-family="Helvetica,sans-Serif" font-size="14.00">secondary_camera</text>
<text text-anchor="start" x="124.5" y="-1051.5" font-family="Helvetica,sans-Serif" font-size="10.00" fill="red">CameraNode</text>
<path fill="none" stroke="black" d="M96.83,-1043.5C96.83,-1043.5 216.17,-1043.5 216.17,-1043.5 221.83,-1043.5 227.5,-1049.17 227.5,-1054.83 227.5,-1054.83 227.5,-1066.17 227.5,-1066.17 227.5,-1071.83 221.83,-1077.5 216.17,-1077.5 216.17,-1077.5 96.83,-1077.5 96.83,-1077.5 91.17,-1077.5 85.5,-1071.83 85.5,-1066.17 85.5,-1066.17 85.5,-1054.83 85.5,-1054.83 85.5,-1049.17 91.17,-1043.5 96.83,-1043.5"/>
</g>
<!-- 283667808837965317705344982949702544915 -->
<g id="node6" class="node">
<title>283667808837965317705344982949702544915</title>
<text text-anchor="start" x="430" y="-970.3" font-family="Helvetica,sans-Serif" font-size="14.00">second_window_pass</text>
<text text-anchor="start" x="449" y="-959.5" font-family="Helvetica,sans-Serif" font-size="10.00" fill="red">PassNode&lt;MainPass&gt;</text>
<polygon fill="none" stroke="black" points="396.5,-931.5 396.5,-952.5 600.5,-952.5 600.5,-931.5 396.5,-931.5"/>
<text text-anchor="start" x="408.5" y="-938.3" font-family="Helvetica,sans-Serif" font-size="14.00">color_attachment: Texture</text>
<text text-anchor="start" x="604.5" y="-938.3" font-family="Helvetica,sans-Serif" font-size="14.00"> </text>
<polygon fill="none" stroke="black" points="396.5,-908.5 396.5,-929.5 600.5,-929.5 600.5,-908.5 396.5,-908.5"/>
<text text-anchor="start" x="399.5" y="-915.3" font-family="Helvetica,sans-Serif" font-size="14.00">color_resolve_target: Texture</text>
<text text-anchor="start" x="604.5" y="-915.3" font-family="Helvetica,sans-Serif" font-size="14.00"> </text>
<polygon fill="none" stroke="black" points="396.5,-885.5 396.5,-906.5 600.5,-906.5 600.5,-885.5 396.5,-885.5"/>
<text text-anchor="start" x="448.5" y="-892.3" font-family="Helvetica,sans-Serif" font-size="14.00">depth: Texture</text>
<text text-anchor="start" x="604.5" y="-892.3" font-family="Helvetica,sans-Serif" font-size="14.00"> </text>
<path fill="none" stroke="black" d="M405,-883C405,-883 602,-883 602,-883 608,-883 614,-889 614,-895 614,-895 614,-974 614,-974 614,-980 608,-986 602,-986 602,-986 405,-986 405,-986 399,-986 393,-980 393,-974 393,-974 393,-895 393,-895 393,-889 399,-883 405,-883"/>
</g>
<!-- 241629558174005483189609256836373122919&#45;&gt;283667808837965317705344982949702544915 -->
<g id="edge3" class="edge">
<title>241629558174005483189609256836373122919:e&#45;&gt;283667808837965317705344982949702544915:w</title>
<path fill="none" stroke="black" d="M225.5,-1060.5C266.61,-1060.5 276.68,-1049.75 313,-1030.5 350.2,-1010.78 349.97,-975.02 385.17,-969.29"/>
<polygon fill="black" stroke="black" points="385.79,-972.75 395.5,-968.5 385.26,-965.77 385.79,-972.75"/>
</g>
<!-- 8228440189925195019142893672774133096 -->
<g id="node5" class="node">
<title>8228440189925195019142893672774133096</title>
<text text-anchor="start" x="467.5" y="-439.3" font-family="Helvetica,sans-Serif" font-size="14.00">camera_ui</text>
<text text-anchor="start" x="471.5" y="-428.5" font-family="Helvetica,sans-Serif" font-size="10.00" fill="red">CameraNode</text>
<path fill="none" stroke="black" d="M473.83,-420.5C473.83,-420.5 533.17,-420.5 533.17,-420.5 538.83,-420.5 544.5,-426.17 544.5,-431.83 544.5,-431.83 544.5,-443.17 544.5,-443.17 544.5,-448.83 538.83,-454.5 533.17,-454.5 533.17,-454.5 473.83,-454.5 473.83,-454.5 468.17,-454.5 462.5,-448.83 462.5,-443.17 462.5,-443.17 462.5,-431.83 462.5,-431.83 462.5,-426.17 468.17,-420.5 473.83,-420.5"/>
</g>
<!-- 46630824588245024707325919129942025124 -->
<g id="node8" class="node">
<title>46630824588245024707325919129942025124</title>
<text text-anchor="start" x="787" y="-234.3" font-family="Helvetica,sans-Serif" font-size="14.00">ui_pass</text>
<text text-anchor="start" x="768" y="-223.5" font-family="Helvetica,sans-Serif" font-size="10.00" fill="red">PassNode&lt;Node&gt;</text>
<polygon fill="none" stroke="black" points="705.5,-195.5 705.5,-216.5 909.5,-216.5 909.5,-195.5 705.5,-195.5"/>
<text text-anchor="start" x="717.5" y="-202.3" font-family="Helvetica,sans-Serif" font-size="14.00">color_attachment: Texture</text>
<text text-anchor="start" x="913.5" y="-202.3" font-family="Helvetica,sans-Serif" font-size="14.00"> </text>
<polygon fill="none" stroke="black" points="705.5,-172.5 705.5,-193.5 909.5,-193.5 909.5,-172.5 705.5,-172.5"/>
<text text-anchor="start" x="708.5" y="-179.3" font-family="Helvetica,sans-Serif" font-size="14.00">color_resolve_target: Texture</text>
<text text-anchor="start" x="913.5" y="-179.3" font-family="Helvetica,sans-Serif" font-size="14.00"> </text>
<polygon fill="none" stroke="black" points="705.5,-149.5 705.5,-170.5 909.5,-170.5 909.5,-149.5 705.5,-149.5"/>
<text text-anchor="start" x="757.5" y="-156.3" font-family="Helvetica,sans-Serif" font-size="14.00">depth: Texture</text>
<text text-anchor="start" x="913.5" y="-156.3" font-family="Helvetica,sans-Serif" font-size="14.00"> </text>
<path fill="none" stroke="black" d="M714,-147C714,-147 911,-147 911,-147 917,-147 923,-153 923,-159 923,-159 923,-238 923,-238 923,-244 917,-250 911,-250 911,-250 714,-250 714,-250 708,-250 702,-244 702,-238 702,-238 702,-159 702,-159 702,-153 708,-147 714,-147"/>
</g>
<!-- 8228440189925195019142893672774133096&#45;&gt;46630824588245024707325919129942025124 -->
<g id="edge21" class="edge">
<title>8228440189925195019142893672774133096:e&#45;&gt;46630824588245024707325919129942025124:w</title>
<path fill="none" stroke="black" d="M542.5,-437.5C580.42,-437.5 594.25,-432.35 622,-406.5 681.94,-350.67 624.32,-242.33 694.28,-233.13"/>
<polygon fill="black" stroke="black" points="694.73,-236.61 704.5,-232.5 694.3,-229.62 694.73,-236.61"/>
</g>
<!-- 268671383703307309898356503850643999600&#45;&gt;46630824588245024707325919129942025124 -->
<g id="edge20" class="edge">
<title>268671383703307309898356503850643999600:e&#45;&gt;46630824588245024707325919129942025124:w</title>
<path fill="none" stroke="black" d="M612.5,-376.5C684.74,-376.5 634.08,-246.22 694.31,-233.5"/>
<polygon fill="black" stroke="black" points="694.89,-236.96 704.5,-232.5 694.21,-229.99 694.89,-236.96"/>
</g>
<!-- 96262872768855750524339897493907382093 -->
<g id="node9" class="node">
<title>96262872768855750524339897493907382093</title>
<text text-anchor="start" x="93.5" y="-572.3" font-family="Helvetica,sans-Serif" font-size="14.00">standard_material</text>
<text text-anchor="start" x="37.5" y="-561.5" font-family="Helvetica,sans-Serif" font-size="10.00" fill="red">AssetRenderResourcesNode&lt;StandardMaterial&gt;</text>
<path fill="none" stroke="black" d="M43.83,-553.5C43.83,-553.5 269.17,-553.5 269.17,-553.5 274.83,-553.5 280.5,-559.17 280.5,-564.83 280.5,-564.83 280.5,-576.17 280.5,-576.17 280.5,-581.83 274.83,-587.5 269.17,-587.5 269.17,-587.5 43.83,-587.5 43.83,-587.5 38.17,-587.5 32.5,-581.83 32.5,-576.17 32.5,-576.17 32.5,-564.83 32.5,-564.83 32.5,-559.17 38.17,-553.5 43.83,-553.5"/>
</g>
<!-- 96262872768855750524339897493907382093&#45;&gt;268671383703307309898356503850643999600 -->
<g id="edge14" class="edge">
<title>96262872768855750524339897493907382093:e&#45;&gt;268671383703307309898356503850643999600:w</title>
<path fill="none" stroke="black" d="M278.5,-570.5C375.55,-570.5 300.67,-390.27 385.29,-377.24"/>
<polygon fill="black" stroke="black" points="385.78,-380.72 395.5,-376.5 385.27,-373.73 385.78,-380.72"/>
</g>
<!-- 289995578739985905003134522244541017330 -->
<g id="node10" class="node">
<title>289995578739985905003134522244541017330</title>
<text text-anchor="start" x="107.5" y="-512.3" font-family="Helvetica,sans-Serif" font-size="14.00">color_material</text>
<text text-anchor="start" x="46.5" y="-501.5" font-family="Helvetica,sans-Serif" font-size="10.00" fill="red">AssetRenderResourcesNode&lt;ColorMaterial&gt;</text>
<path fill="none" stroke="black" d="M52.83,-493.5C52.83,-493.5 260.17,-493.5 260.17,-493.5 265.83,-493.5 271.5,-499.17 271.5,-504.83 271.5,-504.83 271.5,-516.17 271.5,-516.17 271.5,-521.83 265.83,-527.5 260.17,-527.5 260.17,-527.5 52.83,-527.5 52.83,-527.5 47.17,-527.5 41.5,-521.83 41.5,-516.17 41.5,-516.17 41.5,-504.83 41.5,-504.83 41.5,-499.17 47.17,-493.5 52.83,-493.5"/>
</g>
<!-- 289995578739985905003134522244541017330&#45;&gt;268671383703307309898356503850643999600 -->
<g id="edge12" class="edge">
<title>289995578739985905003134522244541017330:e&#45;&gt;268671383703307309898356503850643999600:w</title>
<path fill="none" stroke="black" d="M269.5,-510.5C347.58,-510.5 316.88,-388.27 385.18,-377.29"/>
<polygon fill="black" stroke="black" points="385.8,-380.75 395.5,-376.5 385.26,-373.77 385.8,-380.75"/>
</g>
<!-- 333561910811684155820402439240801416815 -->
<g id="node11" class="node">
<title>333561910811684155820402439240801416815</title>
<text text-anchor="start" x="114" y="-1122.3" font-family="Helvetica,sans-Serif" font-size="14.00">sprite_sheet</text>
<text text-anchor="start" x="49" y="-1111.5" font-family="Helvetica,sans-Serif" font-size="10.00" fill="red">AssetRenderResourcesNode&lt;TextureAtlas&gt;</text>
<path fill="none" stroke="black" d="M54.83,-1103.5C54.83,-1103.5 258.17,-1103.5 258.17,-1103.5 263.83,-1103.5 269.5,-1109.17 269.5,-1114.83 269.5,-1114.83 269.5,-1126.17 269.5,-1126.17 269.5,-1131.83 263.83,-1137.5 258.17,-1137.5 258.17,-1137.5 54.83,-1137.5 54.83,-1137.5 49.17,-1137.5 43.5,-1131.83 43.5,-1126.17 43.5,-1126.17 43.5,-1114.83 43.5,-1114.83 43.5,-1109.17 49.17,-1103.5 54.83,-1103.5"/>
</g>
<!-- 259119375964300407882785680860033477734 -->
<g id="node12" class="node">
<title>259119375964300407882785680860033477734</title>
<text text-anchor="start" x="136.5" y="-452.3" font-family="Helvetica,sans-Serif" font-size="14.00">sprite</text>
<text text-anchor="start" x="78.5" y="-441.5" font-family="Helvetica,sans-Serif" font-size="10.00" fill="red">RenderResourcesNode&lt;Sprite&gt;</text>
<path fill="none" stroke="black" d="M84.83,-433.5C84.83,-433.5 228.17,-433.5 228.17,-433.5 233.83,-433.5 239.5,-439.17 239.5,-444.83 239.5,-444.83 239.5,-456.17 239.5,-456.17 239.5,-461.83 233.83,-467.5 228.17,-467.5 228.17,-467.5 84.83,-467.5 84.83,-467.5 79.17,-467.5 73.5,-461.83 73.5,-456.17 73.5,-456.17 73.5,-444.83 73.5,-444.83 73.5,-439.17 79.17,-433.5 84.83,-433.5"/>
</g>
<!-- 259119375964300407882785680860033477734&#45;&gt;268671383703307309898356503850643999600 -->
<g id="edge13" class="edge">
<title>259119375964300407882785680860033477734:e&#45;&gt;268671383703307309898356503850643999600:w</title>
<path fill="none" stroke="black" d="M237.5,-450.5C273.61,-450.5 280.24,-435.69 313,-420.5 347.31,-404.59 353.08,-381.19 385.17,-377.12"/>
<polygon fill="black" stroke="black" points="385.73,-380.59 395.5,-376.5 385.31,-373.6 385.73,-380.59"/>
</g>
<!-- 169644367262764425822845066683868125149 -->
<g id="node13" class="node">
<title>169644367262764425822845066683868125149</title>
<text text-anchor="start" x="90.5" y="-1182.3" font-family="Helvetica,sans-Serif" font-size="14.00">sprite_sheet_sprite</text>
<text text-anchor="start" x="48" y="-1171.5" font-family="Helvetica,sans-Serif" font-size="10.00" fill="red">RenderResourcesNode&lt;TextureAtlasSprite&gt;</text>
<path fill="none" stroke="black" d="M53.83,-1163.5C53.83,-1163.5 259.17,-1163.5 259.17,-1163.5 264.83,-1163.5 270.5,-1169.17 270.5,-1174.83 270.5,-1174.83 270.5,-1186.17 270.5,-1186.17 270.5,-1191.83 264.83,-1197.5 259.17,-1197.5 259.17,-1197.5 53.83,-1197.5 53.83,-1197.5 48.17,-1197.5 42.5,-1191.83 42.5,-1186.17 42.5,-1186.17 42.5,-1174.83 42.5,-1174.83 42.5,-1169.17 48.17,-1163.5 53.83,-1163.5"/>
</g>
<!-- 67565014716719424411522953014293273027 -->
<g id="node14" class="node">
<title>67565014716719424411522953014293273027</title>
<text text-anchor="start" x="122" y="-392.3" font-family="Helvetica,sans-Serif" font-size="14.00">transform</text>
<text text-anchor="start" x="52.5" y="-381.5" font-family="Helvetica,sans-Serif" font-size="10.00" fill="red">RenderResourcesNode&lt;GlobalTransform&gt;</text>
<path fill="none" stroke="black" d="M58.83,-373.5C58.83,-373.5 254.17,-373.5 254.17,-373.5 259.83,-373.5 265.5,-379.17 265.5,-384.83 265.5,-384.83 265.5,-396.17 265.5,-396.17 265.5,-401.83 259.83,-407.5 254.17,-407.5 254.17,-407.5 58.83,-407.5 58.83,-407.5 53.17,-407.5 47.5,-401.83 47.5,-396.17 47.5,-396.17 47.5,-384.83 47.5,-384.83 47.5,-379.17 53.17,-373.5 58.83,-373.5"/>
</g>
<!-- 67565014716719424411522953014293273027&#45;&gt;268671383703307309898356503850643999600 -->
<g id="edge15" class="edge">
<title>67565014716719424411522953014293273027:e&#45;&gt;268671383703307309898356503850643999600:w</title>
<path fill="none" stroke="black" d="M263.5,-390.5C318.92,-390.5 334.64,-378.14 385.26,-376.65"/>
<polygon fill="black" stroke="black" points="385.55,-380.14 395.5,-376.5 385.45,-373.14 385.55,-380.14"/>
</g>
<!-- 110269910673492648438059581970960290561 -->
<g id="node15" class="node">
<title>110269910673492648438059581970960290561</title>
<text text-anchor="start" x="486" y="-234.3" font-family="Helvetica,sans-Serif" font-size="14.00">node</text>
<text text-anchor="start" x="427" y="-223.5" font-family="Helvetica,sans-Serif" font-size="10.00" fill="red">RenderResourcesNode&lt;Node&gt;</text>
<path fill="none" stroke="black" d="M432.83,-215.5C432.83,-215.5 574.17,-215.5 574.17,-215.5 579.83,-215.5 585.5,-221.17 585.5,-226.83 585.5,-226.83 585.5,-238.17 585.5,-238.17 585.5,-243.83 579.83,-249.5 574.17,-249.5 574.17,-249.5 432.83,-249.5 432.83,-249.5 427.17,-249.5 421.5,-243.83 421.5,-238.17 421.5,-238.17 421.5,-226.83 421.5,-226.83 421.5,-221.17 427.17,-215.5 432.83,-215.5"/>
</g>
<!-- 110269910673492648438059581970960290561&#45;&gt;46630824588245024707325919129942025124 -->
<g id="edge22" class="edge">
<title>110269910673492648438059581970960290561:e&#45;&gt;46630824588245024707325919129942025124:w</title>
<path fill="none" stroke="black" d="M583.5,-232.5C633.71,-232.5 648.76,-232.5 694.3,-232.5"/>
<polygon fill="black" stroke="black" points="694.5,-236 704.5,-232.5 694.5,-229 694.5,-236"/>
</g>
<!-- 3685461379172311391878321922484755390 -->
<g id="node16" class="node">
<title>3685461379172311391878321922484755390</title>
<text text-anchor="start" x="104.5" y="-332.3" font-family="Helvetica,sans-Serif" font-size="14.00">shared_buffers</text>
<text text-anchor="start" x="109.5" y="-321.5" font-family="Helvetica,sans-Serif" font-size="10.00" fill="red">SharedBuffersNode</text>
<path fill="none" stroke="black" d="M110.83,-313.5C110.83,-313.5 202.17,-313.5 202.17,-313.5 207.83,-313.5 213.5,-319.17 213.5,-324.83 213.5,-324.83 213.5,-336.17 213.5,-336.17 213.5,-341.83 207.83,-347.5 202.17,-347.5 202.17,-347.5 110.83,-347.5 110.83,-347.5 105.17,-347.5 99.5,-341.83 99.5,-336.17 99.5,-336.17 99.5,-324.83 99.5,-324.83 99.5,-319.17 105.17,-313.5 110.83,-313.5"/>
</g>
<!-- 3685461379172311391878321922484755390&#45;&gt;268671383703307309898356503850643999600 -->
<g id="edge6" class="edge">
<title>3685461379172311391878321922484755390:e&#45;&gt;268671383703307309898356503850643999600:w</title>
<path fill="none" stroke="black" d="M211.5,-330.5C292.34,-330.5 309.83,-372.8 385.47,-376.27"/>
<polygon fill="black" stroke="black" points="385.42,-379.77 395.5,-376.5 385.58,-372.78 385.42,-379.77"/>
</g>
<!-- 289510446545849409645292107639679750651 -->
<g id="node17" class="node">
<title>289510446545849409645292107639679750651</title>
<text text-anchor="start" x="111.5" y="-272.3" font-family="Helvetica,sans-Serif" font-size="14.00">texture_copy</text>
<text text-anchor="start" x="113" y="-261.5" font-family="Helvetica,sans-Serif" font-size="10.00" fill="red">TextureCopyNode</text>
<path fill="none" stroke="black" d="M117.83,-253.5C117.83,-253.5 195.17,-253.5 195.17,-253.5 200.83,-253.5 206.5,-259.17 206.5,-264.83 206.5,-264.83 206.5,-276.17 206.5,-276.17 206.5,-281.83 200.83,-287.5 195.17,-287.5 195.17,-287.5 117.83,-287.5 117.83,-287.5 112.17,-287.5 106.5,-281.83 106.5,-276.17 106.5,-276.17 106.5,-264.83 106.5,-264.83 106.5,-259.17 112.17,-253.5 117.83,-253.5"/>
</g>
<!-- 289510446545849409645292107639679750651&#45;&gt;268671383703307309898356503850643999600 -->
<g id="edge5" class="edge">
<title>289510446545849409645292107639679750651:e&#45;&gt;268671383703307309898356503850643999600:w</title>
<path fill="none" stroke="black" d="M204.5,-270.5C254.53,-270.5 269.26,-276.2 313,-300.5 353.35,-322.91 346.97,-368.96 385.36,-375.68"/>
<polygon fill="black" stroke="black" points="385.25,-379.18 395.5,-376.5 385.82,-372.2 385.25,-379.18"/>
</g>
<!-- 123885634651330660421978146662881638672 -->
<g id="node18" class="node">
<title>123885634651330660421978146662881638672</title>
<text text-anchor="start" x="58.5" y="-918.3" font-family="Helvetica,sans-Serif" font-size="14.00">second_window_swap_chain</text>
<text text-anchor="start" x="97" y="-907.5" font-family="Helvetica,sans-Serif" font-size="10.00" fill="red">WindowSwapChainNode</text>
<text text-anchor="start" x="76.5" y="-886.3" font-family="Helvetica,sans-Serif" font-size="14.00"> </text>
<polygon fill="none" stroke="black" points="104.5,-879.5 104.5,-900.5 257.5,-900.5 257.5,-879.5 104.5,-879.5"/>
<text text-anchor="start" x="126.5" y="-886.3" font-family="Helvetica,sans-Serif" font-size="14.00">texture: Texture</text>
<path fill="none" stroke="black" d="M64.5,-877C64.5,-877 248.5,-877 248.5,-877 254.5,-877 260.5,-883 260.5,-889 260.5,-889 260.5,-922 260.5,-922 260.5,-928 254.5,-934 248.5,-934 248.5,-934 64.5,-934 64.5,-934 58.5,-934 52.5,-928 52.5,-922 52.5,-922 52.5,-889 52.5,-889 52.5,-883 58.5,-877 64.5,-877"/>
</g>
<!-- 123885634651330660421978146662881638672&#45;&gt;283667808837965317705344982949702544915 -->
<g id="edge1" class="edge">
<title>123885634651330660421978146662881638672:e&#45;&gt;283667808837965317705344982949702544915:w</title>
<path fill="none" stroke="blue" d="M258.5,-889.5C317.21,-889.5 331.68,-915.31 385.38,-918.23"/>
<polygon fill="blue" stroke="blue" points="385.41,-921.73 395.5,-918.5 385.6,-914.74 385.41,-921.73"/>
</g>
<!-- 187264331236961955253322653565687789770 -->
<g id="node19" class="node">
<title>187264331236961955253322653565687789770</title>
<text text-anchor="start" x="119.5" y="-211.3" font-family="Helvetica,sans-Serif" font-size="14.00">swapchain</text>
<text text-anchor="start" x="97" y="-200.5" font-family="Helvetica,sans-Serif" font-size="10.00" fill="red">WindowSwapChainNode</text>
<text text-anchor="start" x="95.5" y="-179.3" font-family="Helvetica,sans-Serif" font-size="14.00"> </text>
<polygon fill="none" stroke="black" points="104.5,-172.5 104.5,-193.5 219.5,-193.5 219.5,-172.5 104.5,-172.5"/>
<text text-anchor="start" x="107.5" y="-179.3" font-family="Helvetica,sans-Serif" font-size="14.00">texture: Texture</text>
<path fill="none" stroke="black" d="M102.5,-170C102.5,-170 210.5,-170 210.5,-170 216.5,-170 222.5,-176 222.5,-182 222.5,-182 222.5,-215 222.5,-215 222.5,-221 216.5,-227 210.5,-227 210.5,-227 102.5,-227 102.5,-227 96.5,-227 90.5,-221 90.5,-215 90.5,-215 90.5,-182 90.5,-182 90.5,-176 96.5,-170 102.5,-170"/>
</g>
<!-- 187264331236961955253322653565687789770&#45;&gt;268671383703307309898356503850643999600 -->
<g id="edge9" class="edge">
<title>187264331236961955253322653565687789770:e&#45;&gt;268671383703307309898356503850643999600:w</title>
<path fill="none" stroke="blue" d="M220.5,-182.5C269.02,-182.5 275.36,-209.87 313,-240.5 351.27,-271.65 343.87,-319.4 385.5,-325.79"/>
<polygon fill="blue" stroke="blue" points="385.28,-329.28 395.5,-326.5 385.77,-322.3 385.28,-329.28"/>
</g>
<!-- 187264331236961955253322653565687789770&#45;&gt;46630824588245024707325919129942025124 -->
<g id="edge17" class="edge">
<title>187264331236961955253322653565687789770:e&#45;&gt;46630824588245024707325919129942025124:w</title>
<path fill="none" stroke="blue" d="M220.5,-182.5C432.14,-182.5 487.61,-182.5 694.23,-182.5"/>
<polygon fill="blue" stroke="blue" points="694.5,-186 704.5,-182.5 694.5,-179 694.5,-186"/>
</g>
<!-- 58095428875836490646990432903505076091 -->
<g id="node20" class="node">
<title>58095428875836490646990432903505076091</title>
<text text-anchor="start" x="23.5" y="-128.3" font-family="Helvetica,sans-Serif" font-size="14.00">main_pass_sampled_color_attachment</text>
<text text-anchor="start" x="106.5" y="-117.5" font-family="Helvetica,sans-Serif" font-size="10.00" fill="red">WindowTextureNode</text>
<text text-anchor="start" x="59" y="-96.3" font-family="Helvetica,sans-Serif" font-size="14.00"> </text>
<polygon fill="none" stroke="black" points="104.5,-89.5 104.5,-110.5 293.5,-110.5 293.5,-89.5 104.5,-89.5"/>
<text text-anchor="start" x="144.5" y="-96.3" font-family="Helvetica,sans-Serif" font-size="14.00">texture: Texture</text>
<path fill="none" stroke="black" d="M29,-87C29,-87 284,-87 284,-87 290,-87 296,-93 296,-99 296,-99 296,-132 296,-132 296,-138 290,-144 284,-144 284,-144 29,-144 29,-144 23,-144 17,-138 17,-132 17,-132 17,-99 17,-99 17,-93 23,-87 29,-87"/>
</g>
<!-- 58095428875836490646990432903505076091&#45;&gt;268671383703307309898356503850643999600 -->
<g id="edge10" class="edge">
<title>58095428875836490646990432903505076091:e&#45;&gt;268671383703307309898356503850643999600:w</title>
<path fill="none" stroke="blue" d="M294.5,-99.5C411.11,-99.5 283.46,-335.53 385.28,-349.82"/>
<polygon fill="blue" stroke="blue" points="385.29,-353.33 395.5,-350.5 385.75,-346.35 385.29,-353.33"/>
</g>
<!-- 58095428875836490646990432903505076091&#45;&gt;46630824588245024707325919129942025124 -->
<g id="edge19" class="edge">
<title>58095428875836490646990432903505076091:e&#45;&gt;46630824588245024707325919129942025124:w</title>
<path fill="none" stroke="blue" d="M294.5,-99.5C444.23,-99.5 478.18,-136.84 622,-178.5 655.71,-188.26 664.28,-203.33 694.41,-206.07"/>
<polygon fill="blue" stroke="blue" points="694.36,-209.57 704.5,-206.5 694.66,-202.57 694.36,-209.57"/>
</g>
<!-- 300581405934485821941682995350680995920 -->
<g id="node21" class="node">
<title>300581405934485821941682995350680995920</title>
<text text-anchor="start" x="50.5" y="-835.3" font-family="Helvetica,sans-Serif" font-size="14.00">second_window_depth_texture</text>
<text text-anchor="start" x="106.5" y="-824.5" font-family="Helvetica,sans-Serif" font-size="10.00" fill="red">WindowTextureNode</text>
<text text-anchor="start" x="72.5" y="-803.3" font-family="Helvetica,sans-Serif" font-size="14.00"> </text>
<polygon fill="none" stroke="black" points="104.5,-796.5 104.5,-817.5 266.5,-817.5 266.5,-796.5 104.5,-796.5"/>
<text text-anchor="start" x="131" y="-803.3" font-family="Helvetica,sans-Serif" font-size="14.00">texture: Texture</text>
<path fill="none" stroke="black" d="M56,-794C56,-794 257,-794 257,-794 263,-794 269,-800 269,-806 269,-806 269,-839 269,-839 269,-845 263,-851 257,-851 257,-851 56,-851 56,-851 50,-851 44,-845 44,-839 44,-839 44,-806 44,-806 44,-800 50,-794 56,-794"/>
</g>
<!-- 300581405934485821941682995350680995920&#45;&gt;283667808837965317705344982949702544915 -->
<g id="edge2" class="edge">
<title>300581405934485821941682995350680995920:e&#45;&gt;283667808837965317705344982949702544915:w</title>
<path fill="none" stroke="blue" d="M267.5,-806.5C333.14,-806.5 327.1,-886.36 385.18,-894.78"/>
<polygon fill="blue" stroke="blue" points="385.28,-898.3 395.5,-895.5 385.77,-891.32 385.28,-898.3"/>
</g>
<!-- 331777658356655328722279550404013731118 -->
<g id="node22" class="node">
<title>331777658356655328722279550404013731118</title>
<text text-anchor="start" x="14.5" y="-1001.3" font-family="Helvetica,sans-Serif" font-size="14.00">second_multi_sampled_color_attachment</text>
<text text-anchor="start" x="106.5" y="-990.5" font-family="Helvetica,sans-Serif" font-size="10.00" fill="red">WindowTextureNode</text>
<text text-anchor="start" x="54.5" y="-969.3" font-family="Helvetica,sans-Serif" font-size="14.00"> </text>
<polygon fill="none" stroke="black" points="104.5,-962.5 104.5,-983.5 302.5,-983.5 302.5,-962.5 104.5,-962.5"/>
<text text-anchor="start" x="149" y="-969.3" font-family="Helvetica,sans-Serif" font-size="14.00">texture: Texture</text>
<path fill="none" stroke="black" d="M20,-960C20,-960 293,-960 293,-960 299,-960 305,-966 305,-972 305,-972 305,-1005 305,-1005 305,-1011 299,-1017 293,-1017 293,-1017 20,-1017 20,-1017 14,-1017 8,-1011 8,-1005 8,-1005 8,-972 8,-972 8,-966 14,-960 20,-960"/>
</g>
<!-- 331777658356655328722279550404013731118&#45;&gt;283667808837965317705344982949702544915 -->
<g id="edge4" class="edge">
<title>331777658356655328722279550404013731118:e&#45;&gt;283667808837965317705344982949702544915:w</title>
<path fill="none" stroke="blue" d="M303.5,-972.5C342.81,-972.5 351.19,-947.43 385.19,-943.13"/>
<polygon fill="blue" stroke="blue" points="385.73,-946.6 395.5,-942.5 385.31,-939.61 385.73,-946.6"/>
</g>
<!-- 302010780519426610198115192090712809745 -->
<g id="node23" class="node">
<title>302010780519426610198115192090712809745</title>
<text text-anchor="start" x="67.5" y="-45.3" font-family="Helvetica,sans-Serif" font-size="14.00">main_pass_depth_texture</text>
<text text-anchor="start" x="106" y="-34.5" font-family="Helvetica,sans-Serif" font-size="10.00" fill="red">WindowTextureNode</text>
<text text-anchor="start" x="81" y="-13.3" font-family="Helvetica,sans-Serif" font-size="14.00"> </text>
<polygon fill="none" stroke="black" points="104.5,-6.5 104.5,-27.5 248.5,-27.5 248.5,-6.5 104.5,-6.5"/>
<text text-anchor="start" x="122" y="-13.3" font-family="Helvetica,sans-Serif" font-size="14.00">texture: Texture</text>
<path fill="none" stroke="black" d="M73.5,-4C73.5,-4 239.5,-4 239.5,-4 245.5,-4 251.5,-10 251.5,-16 251.5,-16 251.5,-49 251.5,-49 251.5,-55 245.5,-61 239.5,-61 239.5,-61 73.5,-61 73.5,-61 67.5,-61 61.5,-55 61.5,-49 61.5,-49 61.5,-16 61.5,-16 61.5,-10 67.5,-4 73.5,-4"/>
</g>
<!-- 302010780519426610198115192090712809745&#45;&gt;268671383703307309898356503850643999600 -->
<g id="edge11" class="edge">
<title>302010780519426610198115192090712809745:e&#45;&gt;268671383703307309898356503850643999600:w</title>
<path fill="none" stroke="blue" d="M249.5,-16.5C388.98,-16.5 259.33,-289.11 385.14,-302.95"/>
<polygon fill="blue" stroke="blue" points="385.33,-306.47 395.5,-303.5 385.7,-299.48 385.33,-306.47"/>
</g>
<!-- 302010780519426610198115192090712809745&#45;&gt;46630824588245024707325919129942025124 -->
<g id="edge18" class="edge">
<title>302010780519426610198115192090712809745:e&#45;&gt;46630824588245024707325919129942025124:w</title>
<path fill="none" stroke="blue" d="M249.5,-16.5C419.31,-16.5 466.85,-32.48 622,-101.5 659.59,-118.22 659.92,-153.12 694.39,-158.73"/>
<polygon fill="blue" stroke="blue" points="694.26,-162.23 704.5,-159.5 694.79,-155.25 694.26,-162.23"/>
</g>
</g>
</svg>
