<?xml version="1.0" encoding="UTF-8" standalone="no"?>
<!DOCTYPE svg PUBLIC "-//W3C//DTD SVG 1.1//EN"
 "http://www.w3.org/Graphics/SVG/1.1/DTD/svg11.dtd">
<!-- Generated by graphviz version 2.43.0 (0)
 -->
<!-- Title: schedule Pages: 1 -->
<svg width="3925pt" height="723pt"
 viewBox="0.00 0.00 3925.49 723.00" xmlns="http://www.w3.org/2000/svg" xmlns:xlink="http://www.w3.org/1999/xlink">
<g id="graph0" class="graph" transform="scale(1 1) rotate(0) translate(4 719)">
<title>schedule</title>
<polygon fill="#35393f" stroke="transparent" points="-4,4 -4,-719 3921.49,-719 3921.49,4 -4,4"/>
<g id="clust1" class="cluster">
<title>cluster_Extract</title>
<path fill="#99aab5" stroke="#99aab5" d="M43.49,-8C43.49,-8 573.49,-8 573.49,-8 579.49,-8 585.49,-14 585.49,-20 585.49,-20 585.49,-695 585.49,-695 585.49,-701 579.49,-707 573.49,-707 573.49,-707 43.49,-707 43.49,-707 37.49,-707 31.49,-701 31.49,-695 31.49,-695 31.49,-20 31.49,-20 31.49,-14 37.49,-8 43.49,-8"/>
<text text-anchor="middle" x="308.49" y="-690.2" font-family="Helvetica,sans-Serif" font-size="16.00">Extract</text>
</g>
<g id="clust2" class="cluster">
<title>cluster_Prepare</title>
<path fill="#99aab5" stroke="#99aab5" d="M617.49,-239C617.49,-239 2815.49,-239 2815.49,-239 2821.49,-239 2827.49,-245 2827.49,-251 2827.49,-251 2827.49,-695 2827.49,-695 2827.49,-701 2821.49,-707 2815.49,-707 2815.49,-707 617.49,-707 617.49,-707 611.49,-707 605.49,-701 605.49,-695 605.49,-695 605.49,-251 605.49,-251 605.49,-245 611.49,-239 617.49,-239"/>
<text text-anchor="middle" x="1716.49" y="-690.2" font-family="Helvetica,sans-Serif" font-size="16.00">Prepare</text>
</g>
<g id="clust3" class="cluster">
<title>cluster_Queue</title>
<path fill="#99aab5" stroke="#99aab5" d="M2859.49,-404C2859.49,-404 3083.49,-404 3083.49,-404 3089.49,-404 3095.49,-410 3095.49,-416 3095.49,-416 3095.49,-695 3095.49,-695 3095.49,-701 3089.49,-707 3083.49,-707 3083.49,-707 2859.49,-707 2859.49,-707 2853.49,-707 2847.49,-701 2847.49,-695 2847.49,-695 2847.49,-416 2847.49,-416 2847.49,-410 2853.49,-404 2859.49,-404"/>
<text text-anchor="middle" x="2971.49" y="-690.2" font-family="Helvetica,sans-Serif" font-size="16.00">Queue</text>
</g>
<g id="clust4" class="cluster">
<title>cluster_PhaseSort</title>
<path fill="#99aab5" stroke="#99aab5" d="M3127.49,-437C3127.49,-437 3384.49,-437 3384.49,-437 3390.49,-437 3396.49,-443 3396.49,-449 3396.49,-449 3396.49,-695 3396.49,-695 3396.49,-701 3390.49,-707 3384.49,-707 3384.49,-707 3127.49,-707 3127.49,-707 3121.49,-707 3115.49,-701 3115.49,-695 3115.49,-695 3115.49,-449 3115.49,-449 3115.49,-443 3121.49,-437 3127.49,-437"/>
<text text-anchor="middle" x="3255.99" y="-690.2" font-family="Helvetica,sans-Serif" font-size="16.00">PhaseSort</text>
</g>
<g id="clust5" class="cluster">
<title>cluster_Render</title>
<path fill="#99aab5" stroke="#99aab5" d="M3428.49,-569C3428.49,-569 3647.49,-569 3647.49,-569 3653.49,-569 3659.49,-575 3659.49,-581 3659.49,-581 3659.49,-695 3659.49,-695 3659.49,-701 3653.49,-707 3647.49,-707 3647.49,-707 3428.49,-707 3428.49,-707 3422.49,-707 3416.49,-701 3416.49,-695 3416.49,-695 3416.49,-581 3416.49,-581 3416.49,-575 3422.49,-569 3428.49,-569"/>
<text text-anchor="middle" x="3537.99" y="-690.2" font-family="Helvetica,sans-Serif" font-size="16.00">Render</text>
</g>
<g id="clust6" class="cluster">
<title>cluster_Cleanup</title>
<path fill="#99aab5" stroke="#99aab5" d="M3691.49,-602C3691.49,-602 3897.49,-602 3897.49,-602 3903.49,-602 3909.49,-608 3909.49,-614 3909.49,-614 3909.49,-695 3909.49,-695 3909.49,-701 3903.49,-707 3897.49,-707 3897.49,-707 3691.49,-707 3691.49,-707 3685.49,-707 3679.49,-701 3679.49,-695 3679.49,-695 3679.49,-614 3679.49,-614 3679.49,-608 3685.49,-602 3691.49,-602"/>
<text text-anchor="middle" x="3794.49" y="-690.2" font-family="Helvetica,sans-Serif" font-size="16.00">Cleanup</text>
</g>
<!-- MARKER_schedule_Extract -->
<!-- MARKER_schedule_Prepare -->
<!-- MARKER_schedule_Extract&#45;&gt;MARKER_schedule_Prepare -->
<g id="edge5" class="edge">
<title>MARKER_schedule_Extract&#45;&gt;MARKER_schedule_Prepare</title>
<path fill="none" stroke="white" d="M406.68,-658C660.14,-658 1340,-658 1606.34,-658"/>
<polygon fill="white" stroke="white" points="1606.4,-661.5 1616.4,-658 1606.4,-654.5 1606.4,-661.5"/>
</g>
<!-- schedule_bevy_render2::render_resource::pipeline_cache::RenderPipelineCache::extract_shaders_0 -->
<g id="node2" class="node">
<title>schedule_bevy_render2::render_resource::pipeline_cache::RenderPipelineCache::extract_shaders_0</title>
<polygon fill="#eff1f3" stroke="#eff1f3" points="365.99,-639.5 250.99,-639.5 250.99,-610.5 365.99,-610.5 365.99,-639.5"/>
<text text-anchor="middle" x="308.49" y="-621.3" font-family="Times,serif" font-size="14.00">extract_shaders</text>
</g>
<!-- schedule_bevy_render2::view::window::extract_windows_1 -->
<g id="node3" class="node">
<title>schedule_bevy_render2::view::window::extract_windows_1</title>
<polygon fill="#eff1f3" stroke="#eff1f3" points="368.99,-606.5 247.99,-606.5 247.99,-577.5 368.99,-577.5 368.99,-606.5"/>
<text text-anchor="middle" x="308.49" y="-588.3" font-family="Times,serif" font-size="14.00">extract_windows</text>
</g>
<!-- schedule_bevy_render2::camera::extract_cameras_2 -->
<g id="node4" class="node">
<title>schedule_bevy_render2::camera::extract_cameras_2</title>
<polygon fill="#eff1f3" stroke="#eff1f3" points="367.49,-573.5 249.49,-573.5 249.49,-544.5 367.49,-544.5 367.49,-573.5"/>
<text text-anchor="middle" x="308.49" y="-555.3" font-family="Times,serif" font-size="14.00">extract_cameras</text>
</g>
<!-- schedule_bevy_render2::view::extract_msaa_3 -->
<g id="node5" class="node">
<title>schedule_bevy_render2::view::extract_msaa_3</title>
<polygon fill="#eff1f3" stroke="#eff1f3" points="356.49,-540.5 260.49,-540.5 260.49,-511.5 356.49,-511.5 356.49,-540.5"/>
<text text-anchor="middle" x="308.49" y="-522.3" font-family="Times,serif" font-size="14.00">extract_msaa</text>
</g>
<!-- schedule_bevy_render2::render_asset::extract_render_asset&lt;bevy_render2::mesh::mesh::Mesh&gt;_4 -->
<g id="node6" class="node">
<title>schedule_bevy_render2::render_asset::extract_render_asset&lt;bevy_render2::mesh::mesh::Mesh&gt;_4</title>
<polygon fill="#eff1f3" stroke="#eff1f3" points="415.49,-507.5 201.49,-507.5 201.49,-478.5 415.49,-478.5 415.49,-507.5"/>
<text text-anchor="middle" x="308.49" y="-489.3" font-family="Times,serif" font-size="14.00">extract_render_asset&lt;Mesh&gt;</text>
</g>
<!-- schedule_bevy_render2::render_asset::extract_render_asset&lt;bevy_render2::texture::image::Image&gt;_5 -->
<g id="node7" class="node">
<title>schedule_bevy_render2::render_asset::extract_render_asset&lt;bevy_render2::texture::image::Image&gt;_5</title>
<polygon fill="#eff1f3" stroke="#eff1f3" points="417.99,-474.5 198.99,-474.5 198.99,-445.5 417.99,-445.5 417.99,-474.5"/>
<text text-anchor="middle" x="308.49" y="-456.3" font-family="Times,serif" font-size="14.00">extract_render_asset&lt;Image&gt;</text>
</g>
<!-- schedule_bevy_core_pipeline::extract_clear_color_6 -->
<g id="node8" class="node">
<title>schedule_bevy_core_pipeline::extract_clear_color_6</title>
<polygon fill="#eff1f3" stroke="#eff1f3" points="376.49,-441.5 240.49,-441.5 240.49,-412.5 376.49,-412.5 376.49,-441.5"/>
<text text-anchor="middle" x="308.49" y="-423.3" font-family="Times,serif" font-size="14.00">extract_clear_color</text>
</g>
<!-- schedule_bevy_core_pipeline::extract_core_pipeline_camera_phases_7 -->
<g id="node9" class="node">
<title>schedule_bevy_core_pipeline::extract_core_pipeline_camera_phases_7</title>
<polygon fill="#eff1f3" stroke="#eff1f3" points="442.49,-408.5 174.49,-408.5 174.49,-379.5 442.49,-379.5 442.49,-408.5"/>
<text text-anchor="middle" x="308.49" y="-390.3" font-family="Times,serif" font-size="14.00">extract_core_pipeline_camera_phases</text>
</g>
<!-- schedule_bevy_sprite2::render::extract_sprites_8 -->
<g id="node10" class="node">
<title>schedule_bevy_sprite2::render::extract_sprites_8</title>
<polygon fill="#eff1f3" stroke="#eff1f3" points="362.49,-375.5 254.49,-375.5 254.49,-346.5 362.49,-346.5 362.49,-375.5"/>
<text text-anchor="middle" x="308.49" y="-357.3" font-family="Times,serif" font-size="14.00">extract_sprites</text>
</g>
<!-- schedule_bevy_text2::text2d::extract_text2d_sprite_10 -->
<g id="node12" class="node">
<title>schedule_bevy_text2::text2d::extract_text2d_sprite_10</title>
<polygon fill="#eff1f3" stroke="#eff1f3" points="385.49,-309.5 231.49,-309.5 231.49,-280.5 385.49,-280.5 385.49,-309.5"/>
<text text-anchor="middle" x="308.49" y="-291.3" font-family="Times,serif" font-size="14.00">extract_text2d_sprite</text>
</g>
<!-- schedule_bevy_sprite2::render::extract_sprites_8&#45;&gt;schedule_bevy_text2::text2d::extract_text2d_sprite_10 -->
<g id="edge1" class="edge">
<title>schedule_bevy_sprite2::render::extract_sprites_8&#45;&gt;schedule_bevy_text2::text2d::extract_text2d_sprite_10</title>
<path fill="none" stroke="white" d="M254.34,-367.28C151.99,-377.61 -53.84,-390.22 13.49,-315 40.23,-285.12 144.2,-284.26 221.18,-288.13"/>
<polygon fill="white" stroke="white" points="221.21,-291.64 231.38,-288.68 221.58,-284.65 221.21,-291.64"/>
</g>
<!-- schedule_bevy_sprite2::render::extract_sprite_events_9 -->
<g id="node11" class="node">
<title>schedule_bevy_sprite2::render::extract_sprite_events_9</title>
<polygon fill="#eff1f3" stroke="#eff1f3" points="385.49,-342.5 231.49,-342.5 231.49,-313.5 385.49,-313.5 385.49,-342.5"/>
<text text-anchor="middle" x="308.49" y="-324.3" font-family="Times,serif" font-size="14.00">extract_sprite_events</text>
</g>
<!-- schedule_bevy_ui2::render::camera::extract_ui_camera_phases_11 -->
<g id="node13" class="node">
<title>schedule_bevy_ui2::render::camera::extract_ui_camera_phases_11</title>
<polygon fill="#eff1f3" stroke="#eff1f3" points="401.99,-276.5 214.99,-276.5 214.99,-247.5 401.99,-247.5 401.99,-276.5"/>
<text text-anchor="middle" x="308.49" y="-258.3" font-family="Times,serif" font-size="14.00">extract_ui_camera_phases</text>
</g>
<!-- schedule_bevy_ui2::render::extract_uinodes_12 -->
<g id="node14" class="node">
<title>schedule_bevy_ui2::render::extract_uinodes_12</title>
<polygon fill="#eff1f3" stroke="#eff1f3" points="365.49,-243.5 251.49,-243.5 251.49,-214.5 365.49,-214.5 365.49,-243.5"/>
<text text-anchor="middle" x="308.49" y="-225.3" font-family="Times,serif" font-size="14.00">extract_uinodes</text>
</g>
<!-- schedule_bevy_ui2::render::extract_text_uinodes_13 -->
<g id="node15" class="node">
<title>schedule_bevy_ui2::render::extract_text_uinodes_13</title>
<polygon fill="#eff1f3" stroke="#eff1f3" points="382.99,-210.5 233.99,-210.5 233.99,-181.5 382.99,-181.5 382.99,-210.5"/>
<text text-anchor="middle" x="308.49" y="-192.3" font-family="Times,serif" font-size="14.00">extract_text_uinodes</text>
</g>
<!-- schedule_bevy_ui2::render::extract_uinodes_12&#45;&gt;schedule_bevy_ui2::render::extract_text_uinodes_13 -->
<g id="edge2" class="edge">
<title>schedule_bevy_ui2::render::extract_uinodes_12&#45;&gt;schedule_bevy_ui2::render::extract_text_uinodes_13</title>
<path fill="none" stroke="white" d="M308.49,-214.41C308.49,-214.26 308.49,-214.1 308.49,-213.95"/>
<polygon fill="white" stroke="white" points="311.99,-220.7 308.49,-210.7 304.99,-220.7 311.99,-220.7"/>
</g>
<!-- schedule_bevy_render2::render_asset::extract_render_asset&lt;bevy_pbr2::material::StandardMaterial&gt;_14 -->
<g id="node16" class="node">
<title>schedule_bevy_render2::render_asset::extract_render_asset&lt;bevy_pbr2::material::StandardMaterial&gt;_14</title>
<polygon fill="#eff1f3" stroke="#eff1f3" points="458.99,-177.5 157.99,-177.5 157.99,-148.5 458.99,-148.5 458.99,-177.5"/>
<text text-anchor="middle" x="308.49" y="-159.3" font-family="Times,serif" font-size="14.00">extract_render_asset&lt;StandardMaterial&gt;</text>
</g>
<!-- schedule_bevy_pbr2::render::mesh::extract_meshes_15 -->
<g id="node17" class="node">
<title>schedule_bevy_pbr2::render::mesh::extract_meshes_15</title>
<polygon fill="#eff1f3" stroke="#eff1f3" points="364.49,-144.5 252.49,-144.5 252.49,-115.5 364.49,-115.5 364.49,-144.5"/>
<text text-anchor="middle" x="308.49" y="-126.3" font-family="Times,serif" font-size="14.00">extract_meshes</text>
</g>
<!-- schedule_(bevy_ecs::system::commands::Commands, bevy_ecs::system::system_param::Local&lt;usize&gt;, bevy_ecs::system::query::Query&lt;(bevy_ecs::entity::Entity, &amp;bevy_asset::handle::Handle&lt;bevy_pbr2::material::StandardMaterial&gt;)&gt;)_16 -->
<g id="node18" class="node">
<title>schedule_(bevy_ecs::system::commands::Commands, bevy_ecs::system::system_param::Local&lt;usize&gt;, bevy_ecs::system::query::Query&lt;(bevy_ecs::entity::Entity, &amp;bevy_asset::handle::Handle&lt;bevy_pbr2::material::StandardMaterial&gt;)&gt;)_16</title>
<polygon fill="#eff1f3" stroke="#eff1f3" points="577.49,-111.5 39.49,-111.5 39.49,-82.5 577.49,-82.5 577.49,-111.5"/>
<text text-anchor="middle" x="308.49" y="-93.3" font-family="Times,serif" font-size="14.00">(Commands, Local&lt;usize&gt;, Query&lt;(Entity, Handle&lt;StandardMaterial&gt;)&gt;)</text>
</g>
<!-- schedule_bevy_pbr2::render::light::extract_clusters_17 -->
<g id="node19" class="node">
<title>schedule_bevy_pbr2::render::light::extract_clusters_17</title>
<polygon fill="#eff1f3" stroke="#eff1f3" points="365.99,-78.5 250.99,-78.5 250.99,-49.5 365.99,-49.5 365.99,-78.5"/>
<text text-anchor="middle" x="308.49" y="-60.3" font-family="Times,serif" font-size="14.00">extract_clusters</text>
</g>
<!-- schedule_bevy_pbr2::render::light::extract_lights_18 -->
<g id="node20" class="node">
<title>schedule_bevy_pbr2::render::light::extract_lights_18</title>
<polygon fill="#eff1f3" stroke="#eff1f3" points="357.99,-45.5 258.99,-45.5 258.99,-16.5 357.99,-16.5 357.99,-45.5"/>
<text text-anchor="middle" x="308.49" y="-27.3" font-family="Times,serif" font-size="14.00">extract_lights</text>
</g>
<!-- MARKER_schedule_Queue -->
<!-- MARKER_schedule_Prepare&#45;&gt;MARKER_schedule_Queue -->
<g id="edge6" class="edge">
<title>MARKER_schedule_Prepare&#45;&gt;MARKER_schedule_Queue</title>
<path fill="none" stroke="white" d="M1816.59,-658C2049.36,-658 2629.19,-658 2866.61,-658"/>
<polygon fill="white" stroke="white" points="2866.63,-661.5 2876.63,-658 2866.63,-654.5 2866.63,-661.5"/>
</g>
<!-- schedule_bevy_pbr2::render::light::prepare_lights_0 -->
<g id="node22" class="node">
<title>schedule_bevy_pbr2::render::light::prepare_lights_0</title>
<polygon fill="#eff1f3" stroke="#eff1f3" points="1768.49,-639.5 1664.49,-639.5 1664.49,-610.5 1768.49,-610.5 1768.49,-639.5"/>
<text text-anchor="start" x="1664.49" y="-627.3" font-family="Times,serif" font-size="14.00">prepare_lights</text>
<text text-anchor="start" x="1666.49" y="-615.7" font-family="Times,serif" font-size="11.00" fill="red">Exclusive at start</text>
</g>
<!-- schedule_bevy_pbr2::render::light::prepare_clusters_1 -->
<g id="node23" class="node">
<title>schedule_bevy_pbr2::render::light::prepare_clusters_1</title>
<polygon fill="#eff1f3" stroke="#eff1f3" points="1776.99,-606.5 1655.99,-606.5 1655.99,-577.5 1776.99,-577.5 1776.99,-606.5"/>
<text text-anchor="start" x="1655.99" y="-594.3" font-family="Times,serif" font-size="14.00">prepare_clusters</text>
<text text-anchor="start" x="1666.49" y="-582.7" font-family="Times,serif" font-size="11.00" fill="red">Exclusive at start</text>
</g>
<!-- schedule_bevy_pbr2::render::light::prepare_lights_0&#45;&gt;schedule_bevy_pbr2::render::light::prepare_clusters_1 -->
<g id="edge3" class="edge">
<title>schedule_bevy_pbr2::render::light::prepare_lights_0&#45;&gt;schedule_bevy_pbr2::render::light::prepare_clusters_1</title>
<path fill="none" stroke="white" d="M1716.49,-610.41C1716.49,-610.26 1716.49,-610.1 1716.49,-609.95"/>
<polygon fill="white" stroke="white" points="1719.99,-616.7 1716.49,-606.7 1712.99,-616.7 1719.99,-616.7"/>
</g>
<!-- schedule_bevy_render2::view::window::prepare_windows_0 -->
<g id="node24" class="node">
<title>schedule_bevy_render2::view::window::prepare_windows_0</title>
<polygon fill="#eff1f3" stroke="#eff1f3" points="1779.49,-573.5 1653.49,-573.5 1653.49,-544.5 1779.49,-544.5 1779.49,-573.5"/>
<text text-anchor="middle" x="1716.49" y="-555.3" font-family="Times,serif" font-size="14.00">prepare_windows</text>
</g>
<!-- schedule_bevy_render2::view::prepare_view_targets_2 -->
<g id="node26" class="node">
<title>schedule_bevy_render2::view::prepare_view_targets_2</title>
<polygon fill="#eff1f3" stroke="#eff1f3" points="1793.99,-507.5 1638.99,-507.5 1638.99,-478.5 1793.99,-478.5 1793.99,-507.5"/>
<text text-anchor="middle" x="1716.49" y="-489.3" font-family="Times,serif" font-size="14.00">prepare_view_targets</text>
</g>
<!-- schedule_bevy_render2::view::window::prepare_windows_0&#45;&gt;schedule_bevy_render2::view::prepare_view_targets_2 -->
<g id="edge4" class="edge">
<title>schedule_bevy_render2::view::window::prepare_windows_0&#45;&gt;schedule_bevy_render2::view::prepare_view_targets_2</title>
<path fill="none" stroke="white" d="M1653.14,-560.49C1421.09,-565.63 629.17,-580.09 595.49,-539 588.44,-530.41 588.44,-522.59 595.49,-514 598.36,-510.49 600.98,-512.49 605.49,-512 984.51,-471.19 1440.39,-482.06 1628.62,-489.15"/>
<polygon fill="white" stroke="white" points="1628.61,-492.65 1638.74,-489.53 1628.88,-485.65 1628.61,-492.65"/>
</g>
<!-- schedule_bevy_render2::view::prepare_view_uniforms_1 -->
<g id="node25" class="node">
<title>schedule_bevy_render2::view::prepare_view_uniforms_1</title>
<polygon fill="#eff1f3" stroke="#eff1f3" points="1799.99,-540.5 1632.99,-540.5 1632.99,-511.5 1799.99,-511.5 1799.99,-540.5"/>
<text text-anchor="middle" x="1716.49" y="-522.3" font-family="Times,serif" font-size="14.00">prepare_view_uniforms</text>
</g>
<!-- schedule_(bevy_ecs::change_detection::ResMut&lt;bevy_render2::render_asset::ExtractedAssets&lt;bevy_render2::mesh::mesh::Mesh&gt;&gt;, bevy_ecs::change_detection::ResMut&lt;std::collections::hash::map::HashMap&lt;bevy_asset::handle::Handle&lt;bevy_render2::mesh::mesh::Mesh&gt;, bevy_render2::mesh::mesh::GpuMesh, ahash::random_state::RandomState&gt;&gt;, bevy_ecs::change_detection::ResMut&lt;bevy_render2::render_asset::PrepareNextFrameAssets&lt;bevy_render2::mesh::mesh::Mesh&gt;&gt;, bevy_ecs::system::system_param::Res&lt;bevy_render2::renderer::render_device::RenderDevice&gt;)_3 -->
<g id="node27" class="node">
<title>schedule_(bevy_ecs::change_detection::ResMut&lt;bevy_render2::render_asset::ExtractedAssets&lt;bevy_render2::mesh::mesh::Mesh&gt;&gt;, bevy_ecs::change_detection::ResMut&lt;std::collections::hash::map::HashMap&lt;bevy_asset::handle::Handle&lt;bevy_render2::mesh::mesh::Mesh&gt;, bevy_render2::mesh::mesh::GpuMesh, ahash::random_state::RandomState&gt;&gt;, bevy_ecs::change_detection::ResMut&lt;bevy_render2::render_asset::PrepareNextFrameAssets&lt;bevy_render2::mesh::mesh::Mesh&gt;&gt;, bevy_ecs::system::system_param::Res&lt;bevy_render2::renderer::render_device::RenderDevice&gt;)_3</title>
<polygon fill="#eff1f3" stroke="#eff1f3" points="2337.99,-474.5 1094.99,-474.5 1094.99,-445.5 2337.99,-445.5 2337.99,-474.5"/>
<text text-anchor="middle" x="1716.49" y="-456.3" font-family="Times,serif" font-size="14.00">(ResMut&lt;ExtractedAssets&lt;Mesh&gt;&gt;, ResMut&lt;HashMap&lt;Handle&lt;Mesh&gt;, GpuMesh, RandomState&gt;&gt;, ResMut&lt;PrepareNextFrameAssets&lt;Mesh&gt;&gt;, Res&lt;RenderDevice&gt;)</text>
</g>
<!-- schedule_(bevy_ecs::change_detection::ResMut&lt;bevy_render2::render_asset::ExtractedAssets&lt;bevy_render2::texture::image::Image&gt;&gt;, bevy_ecs::change_detection::ResMut&lt;std::collections::hash::map::HashMap&lt;bevy_asset::handle::Handle&lt;bevy_render2::texture::image::Image&gt;, bevy_render2::texture::image::GpuImage, ahash::random_state::RandomState&gt;&gt;, bevy_ecs::change_detection::ResMut&lt;bevy_render2::render_asset::PrepareNextFrameAssets&lt;bevy_render2::texture::image::Image&gt;&gt;, (bevy_ecs::system::system_param::Res&lt;bevy_render2::renderer::render_device::RenderDevice&gt;, bevy_ecs::system::system_param::Res&lt;alloc::sync::Arc&lt;wgpu::Queue&gt;&gt;))_4 -->
<g id="node28" class="node">
<title>schedule_(bevy_ecs::change_detection::ResMut&lt;bevy_render2::render_asset::ExtractedAssets&lt;bevy_render2::texture::image::Image&gt;&gt;, bevy_ecs::change_detection::ResMut&lt;std::collections::hash::map::HashMap&lt;bevy_asset::handle::Handle&lt;bevy_render2::texture::image::Image&gt;, bevy_render2::texture::image::GpuImage, ahash::random_state::RandomState&gt;&gt;, bevy_ecs::change_detection::ResMut&lt;bevy_render2::render_asset::PrepareNextFrameAssets&lt;bevy_render2::texture::image::Image&gt;&gt;, (bevy_ecs::system::system_param::Res&lt;bevy_render2::renderer::render_device::RenderDevice&gt;, bevy_ecs::system::system_param::Res&lt;alloc::sync::Arc&lt;wgpu::Queue&gt;&gt;))_4</title>
<polygon fill="#eff1f3" stroke="#eff1f3" points="2430.49,-441.5 1002.49,-441.5 1002.49,-412.5 2430.49,-412.5 2430.49,-441.5"/>
<text text-anchor="middle" x="1716.49" y="-423.3" font-family="Times,serif" font-size="14.00">(ResMut&lt;ExtractedAssets&lt;Image&gt;&gt;, ResMut&lt;HashMap&lt;Handle&lt;Image&gt;, GpuImage, RandomState&gt;&gt;, ResMut&lt;PrepareNextFrameAssets&lt;Image&gt;&gt;, (Res&lt;RenderDevice&gt;, Res&lt;Arc&lt;Queue&gt;&gt;))</text>
</g>
<!-- schedule_bevy_core_pipeline::prepare_core_views_system_5 -->
<g id="node29" class="node">
<title>schedule_bevy_core_pipeline::prepare_core_views_system_5</title>
<polygon fill="#eff1f3" stroke="#eff1f3" points="1815.99,-408.5 1616.99,-408.5 1616.99,-379.5 1815.99,-379.5 1815.99,-408.5"/>
<text text-anchor="middle" x="1716.49" y="-390.3" font-family="Times,serif" font-size="14.00">prepare_core_views_system</text>
</g>
<!-- schedule_bevy_sprite2::render::prepare_sprites_6 -->
<g id="node30" class="node">
<title>schedule_bevy_sprite2::render::prepare_sprites_6</title>
<polygon fill="#eff1f3" stroke="#eff1f3" points="1772.99,-375.5 1659.99,-375.5 1659.99,-346.5 1772.99,-346.5 1772.99,-375.5"/>
<text text-anchor="middle" x="1716.49" y="-357.3" font-family="Times,serif" font-size="14.00">prepare_sprites</text>
</g>
<!-- schedule_bevy_ui2::render::prepare_uinodes_7 -->
<g id="node31" class="node">
<title>schedule_bevy_ui2::render::prepare_uinodes_7</title>
<polygon fill="#eff1f3" stroke="#eff1f3" points="1775.99,-342.5 1656.99,-342.5 1656.99,-313.5 1775.99,-313.5 1775.99,-342.5"/>
<text text-anchor="middle" x="1716.49" y="-324.3" font-family="Times,serif" font-size="14.00">prepare_uinodes</text>
</g>
<!-- schedule_(bevy_ecs::change_detection::ResMut&lt;bevy_render2::render_asset::ExtractedAssets&lt;bevy_pbr2::material::StandardMaterial&gt;&gt;, bevy_ecs::change_detection::ResMut&lt;std::collections::hash::map::HashMap&lt;bevy_asset::handle::Handle&lt;bevy_pbr2::material::StandardMaterial&gt;, bevy_pbr2::material::GpuStandardMaterial, ahash::random_state::RandomState&gt;&gt;, bevy_ecs::change_detection::ResMut&lt;bevy_render2::render_asset::PrepareNextFrameAssets&lt;bevy_pbr2::material::StandardMaterial&gt;&gt;, (bevy_ecs::system::system_param::Res&lt;bevy_render2::renderer::render_device::RenderDevice&gt;, bevy_ecs::system::system_param::Res&lt;bevy_pbr2::render::PbrPipeline&gt;, bevy_ecs::system::system_param::Res&lt;std::collections::hash::map::HashMap&lt;bevy_asset::handle::Handle&lt;bevy_render2::texture::image::Image&gt;, bevy_render2::texture::image::GpuImage, ahash::random_state::RandomState&gt;&gt;))_8 -->
<g id="node32" class="node">
<title>schedule_(bevy_ecs::change_detection::ResMut&lt;bevy_render2::render_asset::ExtractedAssets&lt;bevy_pbr2::material::StandardMaterial&gt;&gt;, bevy_ecs::change_detection::ResMut&lt;std::collections::hash::map::HashMap&lt;bevy_asset::handle::Handle&lt;bevy_pbr2::material::StandardMaterial&gt;, bevy_pbr2::material::GpuStandardMaterial, ahash::random_state::RandomState&gt;&gt;, bevy_ecs::change_detection::ResMut&lt;bevy_render2::render_asset::PrepareNextFrameAssets&lt;bevy_pbr2::material::StandardMaterial&gt;&gt;, (bevy_ecs::system::system_param::Res&lt;bevy_render2::renderer::render_device::RenderDevice&gt;, bevy_ecs::system::system_param::Res&lt;bevy_pbr2::render::PbrPipeline&gt;, bevy_ecs::system::system_param::Res&lt;std::collections::hash::map::HashMap&lt;bevy_asset::handle::Handle&lt;bevy_render2::texture::image::Image&gt;, bevy_render2::texture::image::GpuImage, ahash::random_state::RandomState&gt;&gt;))_8</title>
<polygon fill="#eff1f3" stroke="#eff1f3" points="2819.49,-309.5 613.49,-309.5 613.49,-280.5 2819.49,-280.5 2819.49,-309.5"/>
<text text-anchor="middle" x="1716.49" y="-291.3" font-family="Times,serif" font-size="14.00">(ResMut&lt;ExtractedAssets&lt;StandardMaterial&gt;&gt;, ResMut&lt;HashMap&lt;Handle&lt;StandardMaterial&gt;, GpuStandardMaterial, RandomState&gt;&gt;, ResMut&lt;PrepareNextFrameAssets&lt;StandardMaterial&gt;&gt;, (Res&lt;RenderDevice&gt;, Res&lt;PbrPipeline&gt;, Res&lt;HashMap&lt;Handle&lt;Image&gt;, GpuImage, RandomState&gt;&gt;))</text>
</g>
<!-- schedule_bevy_render2::render_component::prepare_uniform_components&lt;bevy_pbr2::render::mesh::MeshUniform&gt;_9 -->
<g id="node33" class="node">
<title>schedule_bevy_render2::render_component::prepare_uniform_components&lt;bevy_pbr2::render::mesh::MeshUniform&gt;_9</title>
<polygon fill="#eff1f3" stroke="#eff1f3" points="1883.99,-276.5 1548.99,-276.5 1548.99,-247.5 1883.99,-247.5 1883.99,-276.5"/>
<text text-anchor="middle" x="1716.49" y="-258.3" font-family="Times,serif" font-size="14.00">prepare_uniform_components&lt;MeshUniform&gt;</text>
</g>
<!-- MARKER_schedule_PhaseSort -->
<!-- MARKER_schedule_Queue&#45;&gt;MARKER_schedule_PhaseSort -->
<g id="edge7" class="edge">
<title>MARKER_schedule_Queue&#45;&gt;MARKER_schedule_PhaseSort</title>
<path fill="none" stroke="white" d="M3066.16,-658C3088.93,-658 3113.56,-658 3137.28,-658"/>
<polygon fill="white" stroke="white" points="3137.39,-661.5 3147.39,-658 3137.39,-654.5 3137.39,-661.5"/>
</g>
<!-- schedule_bevy_sprite2::render::queue_sprites_0 -->
<g id="node35" class="node">
<title>schedule_bevy_sprite2::render::queue_sprites_0</title>
<polygon fill="#eff1f3" stroke="#eff1f3" points="3021.49,-639.5 2921.49,-639.5 2921.49,-610.5 3021.49,-610.5 3021.49,-639.5"/>
<text text-anchor="middle" x="2971.49" y="-621.3" font-family="Times,serif" font-size="14.00">queue_sprites</text>
</g>
<!-- schedule_bevy_ui2::render::queue_uinodes_1 -->
<g id="node36" class="node">
<title>schedule_bevy_ui2::render::queue_uinodes_1</title>
<polygon fill="#eff1f3" stroke="#eff1f3" points="3024.49,-606.5 2918.49,-606.5 2918.49,-577.5 3024.49,-577.5 3024.49,-606.5"/>
<text text-anchor="middle" x="2971.49" y="-588.3" font-family="Times,serif" font-size="14.00">queue_uinodes</text>
</g>
<!-- schedule_bevy_pbr2::render::mesh::queue_mesh_bind_group_2 -->
<g id="node37" class="node">
<title>schedule_bevy_pbr2::render::mesh::queue_mesh_bind_group_2</title>
<polygon fill="#eff1f3" stroke="#eff1f3" points="3059.49,-573.5 2883.49,-573.5 2883.49,-544.5 3059.49,-544.5 3059.49,-573.5"/>
<text text-anchor="middle" x="2971.49" y="-555.3" font-family="Times,serif" font-size="14.00">queue_mesh_bind_group</text>
</g>
<!-- schedule_bevy_pbr2::render::mesh::queue_mesh_view_bind_groups_3 -->
<g id="node38" class="node">
<title>schedule_bevy_pbr2::render::mesh::queue_mesh_view_bind_groups_3</title>
<polygon fill="#eff1f3" stroke="#eff1f3" points="3082.99,-540.5 2859.99,-540.5 2859.99,-511.5 3082.99,-511.5 3082.99,-540.5"/>
<text text-anchor="middle" x="2971.49" y="-522.3" font-family="Times,serif" font-size="14.00">queue_mesh_view_bind_groups</text>
</g>
<!-- schedule_bevy_pbr2::render::light::queue_shadows_4 -->
<g id="node39" class="node">
<title>schedule_bevy_pbr2::render::light::queue_shadows_4</title>
<polygon fill="#eff1f3" stroke="#eff1f3" points="3027.49,-507.5 2915.49,-507.5 2915.49,-478.5 3027.49,-478.5 3027.49,-507.5"/>
<text text-anchor="middle" x="2971.49" y="-489.3" font-family="Times,serif" font-size="14.00">queue_shadows</text>
</g>
<!-- schedule_bevy_pbr2::render::queue_meshes_5 -->
<g id="node40" class="node">
<title>schedule_bevy_pbr2::render::queue_meshes_5</title>
<polygon fill="#eff1f3" stroke="#eff1f3" points="3023.99,-474.5 2918.99,-474.5 2918.99,-445.5 3023.99,-445.5 3023.99,-474.5"/>
<text text-anchor="middle" x="2971.49" y="-456.3" font-family="Times,serif" font-size="14.00">queue_meshes</text>
</g>
<!-- schedule_bevy_pbr2::render::light::queue_shadow_view_bind_group_6 -->
<g id="node41" class="node">
<title>schedule_bevy_pbr2::render::light::queue_shadow_view_bind_group_6</title>
<polygon fill="#eff1f3" stroke="#eff1f3" points="3087.49,-441.5 2855.49,-441.5 2855.49,-412.5 3087.49,-412.5 3087.49,-441.5"/>
<text text-anchor="middle" x="2971.49" y="-423.3" font-family="Times,serif" font-size="14.00">queue_shadow_view_bind_group</text>
</g>
<!-- MARKER_schedule_Render -->
<!-- MARKER_schedule_PhaseSort&#45;&gt;MARKER_schedule_Render -->
<g id="edge8" class="edge">
<title>MARKER_schedule_PhaseSort&#45;&gt;MARKER_schedule_Render</title>
<path fill="none" stroke="white" d="M3364.84,-658C3386.25,-658 3408.72,-658 3430.1,-658"/>
<polygon fill="white" stroke="white" points="3430.17,-661.5 3440.17,-658 3430.17,-654.5 3430.17,-661.5"/>
</g>
<!-- schedule_bevy_render2::render_phase::sort_phase_system&lt;bevy_core_pipeline::Transparent2d&gt;_0 -->
<g id="node43" class="node">
<title>schedule_bevy_render2::render_phase::sort_phase_system&lt;bevy_core_pipeline::Transparent2d&gt;_0</title>
<polygon fill="#eff1f3" stroke="#eff1f3" points="3388.49,-639.5 3123.49,-639.5 3123.49,-610.5 3388.49,-610.5 3388.49,-639.5"/>
<text text-anchor="middle" x="3255.99" y="-621.3" font-family="Times,serif" font-size="14.00">sort_phase_system&lt;Transparent2d&gt;</text>
</g>
<!-- schedule_bevy_render2::render_phase::sort_phase_system&lt;bevy_core_pipeline::Opaque3d&gt;_1 -->
<g id="node44" class="node">
<title>schedule_bevy_render2::render_phase::sort_phase_system&lt;bevy_core_pipeline::Opaque3d&gt;_1</title>
<polygon fill="#eff1f3" stroke="#eff1f3" points="3371.99,-606.5 3139.99,-606.5 3139.99,-577.5 3371.99,-577.5 3371.99,-606.5"/>
<text text-anchor="middle" x="3255.99" y="-588.3" font-family="Times,serif" font-size="14.00">sort_phase_system&lt;Opaque3d&gt;</text>
</g>
<!-- schedule_bevy_render2::render_phase::sort_phase_system&lt;bevy_core_pipeline::AlphaMask3d&gt;_2 -->
<g id="node45" class="node">
<title>schedule_bevy_render2::render_phase::sort_phase_system&lt;bevy_core_pipeline::AlphaMask3d&gt;_2</title>
<polygon fill="#eff1f3" stroke="#eff1f3" points="3383.99,-573.5 3127.99,-573.5 3127.99,-544.5 3383.99,-544.5 3383.99,-573.5"/>
<text text-anchor="middle" x="3255.99" y="-555.3" font-family="Times,serif" font-size="14.00">sort_phase_system&lt;AlphaMask3d&gt;</text>
</g>
<!-- schedule_bevy_render2::render_phase::sort_phase_system&lt;bevy_core_pipeline::Transparent3d&gt;_3 -->
<g id="node46" class="node">
<title>schedule_bevy_render2::render_phase::sort_phase_system&lt;bevy_core_pipeline::Transparent3d&gt;_3</title>
<polygon fill="#eff1f3" stroke="#eff1f3" points="3388.49,-540.5 3123.49,-540.5 3123.49,-511.5 3388.49,-511.5 3388.49,-540.5"/>
<text text-anchor="middle" x="3255.99" y="-522.3" font-family="Times,serif" font-size="14.00">sort_phase_system&lt;Transparent3d&gt;</text>
</g>
<!-- schedule_bevy_render2::render_phase::sort_phase_system&lt;bevy_ui2::render::render_pass::TransparentUi&gt;_4 -->
<g id="node47" class="node">
<title>schedule_bevy_render2::render_phase::sort_phase_system&lt;bevy_ui2::render::render_pass::TransparentUi&gt;_4</title>
<polygon fill="#eff1f3" stroke="#eff1f3" points="3387.99,-507.5 3123.99,-507.5 3123.99,-478.5 3387.99,-478.5 3387.99,-507.5"/>
<text text-anchor="middle" x="3255.99" y="-489.3" font-family="Times,serif" font-size="14.00">sort_phase_system&lt;TransparentUi&gt;</text>
</g>
<!-- schedule_bevy_render2::render_phase::sort_phase_system&lt;bevy_pbr2::render::light::Shadow&gt;_5 -->
<g id="node48" class="node">
<title>schedule_bevy_render2::render_phase::sort_phase_system&lt;bevy_pbr2::render::light::Shadow&gt;_5</title>
<polygon fill="#eff1f3" stroke="#eff1f3" points="3363.99,-474.5 3147.99,-474.5 3147.99,-445.5 3363.99,-445.5 3363.99,-474.5"/>
<text text-anchor="middle" x="3255.99" y="-456.3" font-family="Times,serif" font-size="14.00">sort_phase_system&lt;Shadow&gt;</text>
</g>
<!-- MARKER_schedule_Cleanup -->
<!-- MARKER_schedule_Render&#45;&gt;MARKER_schedule_Cleanup -->
<g id="edge9" class="edge">
<title>MARKER_schedule_Render&#45;&gt;MARKER_schedule_Cleanup</title>
<path fill="none" stroke="white" d="M3635.56,-658C3651.02,-658 3667.12,-658 3682.87,-658"/>
<polygon fill="white" stroke="white" points="3683.16,-661.5 3693.16,-658 3683.16,-654.5 3683.16,-661.5"/>
</g>
<!-- schedule_bevy_render2::render_resource::pipeline_cache::RenderPipelineCache::process_pipeline_queue_system_0 -->
<g id="node50" class="node">
<title>schedule_bevy_render2::render_resource::pipeline_cache::RenderPipelineCache::process_pipeline_queue_system_0</title>
<polygon fill="#eff1f3" stroke="#eff1f3" points="3651.49,-639.5 3424.49,-639.5 3424.49,-610.5 3651.49,-610.5 3651.49,-639.5"/>
<text text-anchor="middle" x="3537.99" y="-621.3" font-family="Times,serif" font-size="14.00">process_pipeline_queue_system</text>
</g>
<!-- schedule_bevy_render2::renderer::render_system_0 -->
<g id="node51" class="node">
<title>schedule_bevy_render2::renderer::render_system_0</title>
<polygon fill="#eff1f3" stroke="#eff1f3" points="3590.99,-606.5 3484.99,-606.5 3484.99,-577.5 3590.99,-577.5 3590.99,-606.5"/>
<text text-anchor="start" x="3484.99" y="-594.3" font-family="Times,serif" font-size="14.00">render_system</text>
<text text-anchor="start" x="3491.49" y="-582.7" font-family="Times,serif" font-size="11.00" fill="red">Exclusive at end</text>
</g>
<!-- schedule_bevy_render2::texture::texture_cache::update_texture_cache_system_0 -->
<g id="node53" class="node">
<title>schedule_bevy_render2::texture::texture_cache::update_texture_cache_system_0</title>
<polygon fill="#eff1f3" stroke="#eff1f3" points="3901.49,-639.5 3687.49,-639.5 3687.49,-610.5 3901.49,-610.5 3901.49,-639.5"/>
<text text-anchor="middle" x="3794.49" y="-621.3" font-family="Times,serif" font-size="14.00">update_texture_cache_system</text>
</g>
</g>
</svg>
