<?xml version="1.0" encoding="UTF-8" standalone="no"?>
<!DOCTYPE svg PUBLIC "-//W3C//DTD SVG 1.1//EN"
 "http://www.w3.org/Graphics/SVG/1.1/DTD/svg11.dtd">
<!-- Generated by graphviz version 2.43.0 (0)
 -->
<!-- Title: RenderGraph Pages: 1 -->
<svg width="745pt" height="566pt"
 viewBox="0.00 0.00 745.00 566.00" xmlns="http://www.w3.org/2000/svg" xmlns:xlink="http://www.w3.org/1999/xlink">
<g id="graph0" class="graph" transform="scale(1 1) rotate(0) translate(4 562)">
<title>RenderGraph</title>
<polygon fill="#35393f" stroke="transparent" points="-4,4 -4,-562 741,-562 741,4 -4,4"/>
<g id="clust1" class="cluster">
<title>clusterclear</title>
<path fill="#5e6570" stroke="#5e6570" d="M115,-8C115,-8 207,-8 207,-8 213,-8 219,-14 219,-20 219,-20 219,-77 219,-77 219,-83 213,-89 207,-89 207,-89 115,-89 115,-89 109,-89 103,-83 103,-77 103,-77 103,-20 103,-20 103,-14 109,-8 115,-8"/>
<text text-anchor="middle" x="161" y="-73.8" font-family="Times,serif" font-size="14.00">clear</text>
</g>
<g id="clust2" class="cluster">
<title>clusterdraw_2d</title>
<path fill="#5e6570" stroke="#5e6570" d="M20,-97C20,-97 508,-97 508,-97 514,-97 520,-103 520,-109 520,-109 520,-190 520,-190 520,-196 514,-202 508,-202 508,-202 20,-202 20,-202 14,-202 8,-196 8,-190 8,-190 8,-109 8,-109 8,-103 14,-97 20,-97"/>
<text text-anchor="middle" x="264" y="-186.8" font-family="Times,serif" font-size="14.00">draw_2d</text>
</g>
<g id="clust3" class="cluster">
<title>clusterdraw_3d</title>
<path fill="#5e6570" stroke="#5e6570" d="M20,-210C20,-210 717,-210 717,-210 723,-210 729,-216 729,-222 729,-222 729,-323 729,-323 729,-329 723,-335 717,-335 717,-335 20,-335 20,-335 14,-335 8,-329 8,-323 8,-323 8,-222 8,-222 8,-216 14,-210 20,-210"/>
<text text-anchor="middle" x="368.5" y="-319.8" font-family="Times,serif" font-size="14.00">draw_3d</text>
</g>
<g id="clust4" class="cluster">
<title>clusterdraw_ui</title>
<path fill="#5e6570" stroke="#5e6570" d="M20,-343C20,-343 508,-343 508,-343 514,-343 520,-349 520,-355 520,-355 520,-436 520,-436 520,-442 514,-448 508,-448 508,-448 20,-448 20,-448 14,-448 8,-442 8,-436 8,-436 8,-355 8,-355 8,-349 14,-343 20,-343"/>
<text text-anchor="middle" x="264" y="-432.8" font-family="Times,serif" font-size="14.00">draw_ui</text>
</g>
<!-- clearclear_pass -->
<g id="node1" class="node">
<title>clearclear_pass</title>
<text text-anchor="start" x="124.5" y="-38.8" font-family="Helvetica,sans-Serif" font-size="14.00" fill="white">clear_pass</text>
<text text-anchor="start" x="124.5" y="-28" font-family="Helvetica,sans-Serif" font-size="10.00" fill="red">ClearPassNode</text>
<path fill="none" stroke="#99aab5" d="M130.33,-20C130.33,-20 191.67,-20 191.67,-20 197.33,-20 203,-25.67 203,-31.33 203,-31.33 203,-42.67 203,-42.67 203,-48.33 197.33,-54 191.67,-54 191.67,-54 130.33,-54 130.33,-54 124.67,-54 119,-48.33 119,-42.67 119,-42.67 119,-31.33 119,-31.33 119,-25.67 124.67,-20 130.33,-20"/>
</g>
<!-- draw_2dmain_pass -->
<g id="node2" class="node">
<title>draw_2dmain_pass</title>
<text text-anchor="start" x="415" y="-150.8" font-family="Helvetica,sans-Serif" font-size="14.00" fill="white">main_pass</text>
<text text-anchor="start" x="410" y="-140" font-family="Helvetica,sans-Serif" font-size="10.00" fill="red">MainPass2dNode</text>
<polygon fill="none" stroke="#99aab5" points="403,-112 403,-133 490,-133 490,-112 403,-112"/>
<text text-anchor="start" x="406" y="-118.8" font-family="Helvetica,sans-Serif" font-size="14.00" fill="white">view: Entity</text>
<text text-anchor="start" x="494" y="-118.8" font-family="Helvetica,sans-Serif" font-size="14.00" fill="white"> </text>
<path fill="none" stroke="#99aab5" d="M412,-109.5C412,-109.5 492,-109.5 492,-109.5 498,-109.5 504,-115.5 504,-121.5 504,-121.5 504,-154.5 504,-154.5 504,-160.5 498,-166.5 492,-166.5 492,-166.5 412,-166.5 412,-166.5 406,-166.5 400,-160.5 400,-154.5 400,-154.5 400,-121.5 400,-121.5 400,-115.5 406,-109.5 412,-109.5"/>
</g>
<!-- draw_2dGraphInputNode -->
<g id="node3" class="node">
<title>draw_2dGraphInputNode</title>
<text text-anchor="start" x="103" y="-150.8" font-family="Helvetica,sans-Serif" font-size="14.00" fill="white">GraphInputNode</text>
<text text-anchor="start" x="121" y="-140" font-family="Helvetica,sans-Serif" font-size="10.00" fill="red">GraphInputNode</text>
<polygon fill="none" stroke="#99aab5" points="27,-112 27,-133 160,-133 160,-112 27,-112"/>
<text text-anchor="start" x="30" y="-118.8" font-family="Helvetica,sans-Serif" font-size="14.00" fill="white">view_entity: Entity</text>
<polygon fill="none" stroke="#99aab5" points="162,-112 162,-133 295,-133 295,-112 162,-112"/>
<text text-anchor="start" x="165" y="-118.8" font-family="Helvetica,sans-Serif" font-size="14.00" fill="white">view_entity: Entity</text>
<path fill="none" stroke="#99aab5" d="M36,-109.5C36,-109.5 286,-109.5 286,-109.5 292,-109.5 298,-115.5 298,-121.5 298,-121.5 298,-154.5 298,-154.5 298,-160.5 292,-166.5 286,-166.5 286,-166.5 36,-166.5 36,-166.5 30,-166.5 24,-160.5 24,-154.5 24,-154.5 24,-121.5 24,-121.5 24,-115.5 30,-109.5 36,-109.5"/>
</g>
<!-- draw_2dGraphInputNode&#45;&gt;draw_2dmain_pass -->
<g id="edge1" class="edge">
<title>draw_2dGraphInputNode:e&#45;&gt;draw_2dmain_pass:w</title>
<path fill="none" stroke="white" d="M296,-122C339.43,-122 352.83,-122 391.57,-122"/>
<polygon fill="white" stroke="white" points="392,-125.5 402,-122 392,-118.5 392,-125.5"/>
</g>
<!-- draw_3dmain_pass -->
<g id="node4" class="node">
<title>draw_3dmain_pass</title>
<text text-anchor="start" x="624" y="-273.8" font-family="Helvetica,sans-Serif" font-size="14.00" fill="white">main_pass</text>
<text text-anchor="start" x="619" y="-263" font-family="Helvetica,sans-Serif" font-size="10.00" fill="red">MainPass3dNode</text>
<polygon fill="none" stroke="#99aab5" points="612,-235 612,-256 699,-256 699,-235 612,-235"/>
<text text-anchor="start" x="615" y="-241.8" font-family="Helvetica,sans-Serif" font-size="14.00" fill="white">view: Entity</text>
<text text-anchor="start" x="703" y="-241.8" font-family="Helvetica,sans-Serif" font-size="14.00" fill="white"> </text>
<path fill="none" stroke="#99aab5" d="M621,-232.5C621,-232.5 701,-232.5 701,-232.5 707,-232.5 713,-238.5 713,-244.5 713,-244.5 713,-277.5 713,-277.5 713,-283.5 707,-289.5 701,-289.5 701,-289.5 621,-289.5 621,-289.5 615,-289.5 609,-283.5 609,-277.5 609,-277.5 609,-244.5 609,-244.5 609,-238.5 615,-232.5 621,-232.5"/>
</g>
<!-- draw_3dshadow_pass -->
<g id="node5" class="node">
<title>draw_3dshadow_pass</title>
<text text-anchor="start" x="406" y="-283.8" font-family="Helvetica,sans-Serif" font-size="14.00" fill="white">shadow_pass</text>
<text text-anchor="start" x="409.5" y="-273" font-family="Helvetica,sans-Serif" font-size="10.00" fill="red">ShadowPassNode</text>
<polygon fill="none" stroke="#99aab5" points="403,-245 403,-266 490,-266 490,-245 403,-245"/>
<text text-anchor="start" x="406" y="-251.8" font-family="Helvetica,sans-Serif" font-size="14.00" fill="white">view: Entity</text>
<text text-anchor="start" x="494.5" y="-251.8" font-family="Helvetica,sans-Serif" font-size="14.00" fill="white"> </text>
<path fill="none" stroke="#99aab5" d="M411.5,-242.5C411.5,-242.5 492.5,-242.5 492.5,-242.5 498.5,-242.5 504.5,-248.5 504.5,-254.5 504.5,-254.5 504.5,-287.5 504.5,-287.5 504.5,-293.5 498.5,-299.5 492.5,-299.5 492.5,-299.5 411.5,-299.5 411.5,-299.5 405.5,-299.5 399.5,-293.5 399.5,-287.5 399.5,-287.5 399.5,-254.5 399.5,-254.5 399.5,-248.5 405.5,-242.5 411.5,-242.5"/>
</g>
<!-- draw_3dshadow_pass&#45;&gt;draw_3dmain_pass -->
<g id="edge3" class="edge">
<title>draw_3dshadow_pass:e&#45;&gt;draw_3dmain_pass:w</title>
<path fill="none" stroke="white" d="M503,-282C547.63,-282 560.87,-273.43 600.84,-272.16"/>
<polygon fill="white" stroke="white" points="601.06,-275.65 611,-272 600.95,-268.66 601.06,-275.65"/>
</g>
<!-- draw_3dGraphInputNode -->
<g id="node6" class="node">
<title>draw_3dGraphInputNode</title>
<text text-anchor="start" x="103" y="-273.8" font-family="Helvetica,sans-Serif" font-size="14.00" fill="white">GraphInputNode</text>
<text text-anchor="start" x="121" y="-263" font-family="Helvetica,sans-Serif" font-size="10.00" fill="red">GraphInputNode</text>
<polygon fill="none" stroke="#99aab5" points="27,-235 27,-256 160,-256 160,-235 27,-235"/>
<text text-anchor="start" x="30" y="-241.8" font-family="Helvetica,sans-Serif" font-size="14.00" fill="white">view_entity: Entity</text>
<polygon fill="none" stroke="#99aab5" points="162,-235 162,-256 295,-256 295,-235 162,-235"/>
<text text-anchor="start" x="165" y="-241.8" font-family="Helvetica,sans-Serif" font-size="14.00" fill="white">view_entity: Entity</text>
<path fill="none" stroke="#99aab5" d="M36,-232.5C36,-232.5 286,-232.5 286,-232.5 292,-232.5 298,-238.5 298,-244.5 298,-244.5 298,-277.5 298,-277.5 298,-283.5 292,-289.5 286,-289.5 286,-289.5 36,-289.5 36,-289.5 30,-289.5 24,-283.5 24,-277.5 24,-277.5 24,-244.5 24,-244.5 24,-238.5 30,-232.5 36,-232.5"/>
</g>
<!-- draw_3dGraphInputNode&#45;&gt;draw_3dmain_pass -->
<g id="edge2" class="edge">
<title>draw_3dGraphInputNode:e&#45;&gt;draw_3dmain_pass:w</title>
<path fill="none" stroke="white" d="M296,-245C333.13,-245 341.04,-232.57 378,-229 443.47,-222.67 460.51,-222.89 526,-229 560.69,-232.24 570.74,-242.75 600.93,-244.69"/>
<polygon fill="white" stroke="white" points="600.9,-248.19 611,-245 601.11,-241.19 600.9,-248.19"/>
</g>
<!-- draw_3dGraphInputNode&#45;&gt;draw_3dshadow_pass -->
<g id="edge4" class="edge">
<title>draw_3dGraphInputNode:e&#45;&gt;draw_3dshadow_pass:w</title>
<path fill="none" stroke="white" d="M296,-245C339.62,-245 352.69,-253.5 391.53,-254.83"/>
<polygon fill="white" stroke="white" points="391.94,-258.33 402,-255 392.06,-251.33 391.94,-258.33"/>
</g>
<!-- draw_uiGraphInputNode -->
<g id="node7" class="node">
<title>draw_uiGraphInputNode</title>
<text text-anchor="start" x="103" y="-396.8" font-family="Helvetica,sans-Serif" font-size="14.00" fill="white">GraphInputNode</text>
<text text-anchor="start" x="121" y="-386" font-family="Helvetica,sans-Serif" font-size="10.00" fill="red">GraphInputNode</text>
<polygon fill="none" stroke="#99aab5" points="27,-358 27,-379 160,-379 160,-358 27,-358"/>
<text text-anchor="start" x="30" y="-364.8" font-family="Helvetica,sans-Serif" font-size="14.00" fill="white">view_entity: Entity</text>
<polygon fill="none" stroke="#99aab5" points="162,-358 162,-379 295,-379 295,-358 162,-358"/>
<text text-anchor="start" x="165" y="-364.8" font-family="Helvetica,sans-Serif" font-size="14.00" fill="white">view_entity: Entity</text>
<path fill="none" stroke="#99aab5" d="M36,-355.5C36,-355.5 286,-355.5 286,-355.5 292,-355.5 298,-361.5 298,-367.5 298,-367.5 298,-400.5 298,-400.5 298,-406.5 292,-412.5 286,-412.5 286,-412.5 36,-412.5 36,-412.5 30,-412.5 24,-406.5 24,-400.5 24,-400.5 24,-367.5 24,-367.5 24,-361.5 30,-355.5 36,-355.5"/>
</g>
<!-- draw_uiui_pass -->
<g id="node8" class="node">
<title>draw_uiui_pass</title>
<text text-anchor="start" x="426" y="-396.8" font-family="Helvetica,sans-Serif" font-size="14.00" fill="white">ui_pass</text>
<text text-anchor="start" x="423" y="-386" font-family="Helvetica,sans-Serif" font-size="10.00" fill="red">UiPassNode</text>
<polygon fill="none" stroke="#99aab5" points="403,-358 403,-379 490,-379 490,-358 403,-358"/>
<text text-anchor="start" x="406" y="-364.8" font-family="Helvetica,sans-Serif" font-size="14.00" fill="white">view: Entity</text>
<text text-anchor="start" x="494" y="-364.8" font-family="Helvetica,sans-Serif" font-size="14.00" fill="white"> </text>
<path fill="none" stroke="#99aab5" d="M412,-355.5C412,-355.5 492,-355.5 492,-355.5 498,-355.5 504,-361.5 504,-367.5 504,-367.5 504,-400.5 504,-400.5 504,-406.5 498,-412.5 492,-412.5 492,-412.5 412,-412.5 412,-412.5 406,-412.5 400,-406.5 400,-400.5 400,-400.5 400,-367.5 400,-367.5 400,-361.5 406,-355.5 412,-355.5"/>
</g>
<!-- draw_uiGraphInputNode&#45;&gt;draw_uiui_pass -->
<g id="edge5" class="edge">
<title>draw_uiGraphInputNode:e&#45;&gt;draw_uiui_pass:w</title>
<path fill="none" stroke="white" d="M296,-368C339.43,-368 352.83,-368 391.57,-368"/>
<polygon fill="white" stroke="white" points="392,-371.5 402,-368 392,-364.5 392,-371.5"/>
</g>
<!-- clear_pass_driver -->
<g id="node9" class="node">
<title>clear_pass_driver</title>
<text text-anchor="start" x="100.5" y="-538.8" font-family="Helvetica,sans-Serif" font-size="14.00" fill="white">clear_pass_driver</text>
<text text-anchor="start" x="109.5" y="-528" font-family="Helvetica,sans-Serif" font-size="10.00" fill="red">ClearPassDriverNode</text>
<path fill="none" stroke="#99aab5" d="M106.33,-520C106.33,-520 215.67,-520 215.67,-520 221.33,-520 227,-525.67 227,-531.33 227,-531.33 227,-542.67 227,-542.67 227,-548.33 221.33,-554 215.67,-554 215.67,-554 106.33,-554 106.33,-554 100.67,-554 95,-548.33 95,-542.67 95,-542.67 95,-531.33 95,-531.33 95,-525.67 100.67,-520 106.33,-520"/>
</g>
<!-- main_pass_driver -->
<g id="node10" class="node">
<title>main_pass_driver</title>
<text text-anchor="start" x="391" y="-508.8" font-family="Helvetica,sans-Serif" font-size="14.00" fill="white">main_pass_driver</text>
<text text-anchor="start" x="401" y="-498" font-family="Helvetica,sans-Serif" font-size="10.00" fill="red">MainPassDriverNode</text>
<path fill="none" stroke="#99aab5" d="M397.33,-490C397.33,-490 506.67,-490 506.67,-490 512.33,-490 518,-495.67 518,-501.33 518,-501.33 518,-512.67 518,-512.67 518,-518.33 512.33,-524 506.67,-524 506.67,-524 397.33,-524 397.33,-524 391.67,-524 386,-518.33 386,-512.67 386,-512.67 386,-501.33 386,-501.33 386,-495.67 391.67,-490 397.33,-490"/>
</g>
<!-- clear_pass_driver&#45;&gt;main_pass_driver -->
<g id="edge7" class="edge">
<title>clear_pass_driver:e&#45;&gt;main_pass_driver:w</title>
<path fill="none" stroke="white" d="M225,-537C295.06,-537 312.67,-509.86 377.61,-507.21"/>
<polygon fill="white" stroke="white" points="378.07,-510.7 388,-507 377.93,-503.7 378.07,-510.7"/>
</g>
<!-- ui_pass_driver -->
<g id="node12" class="node">
<title>ui_pass_driver</title>
<text text-anchor="start" x="611" y="-508.8" font-family="Helvetica,sans-Serif" font-size="14.00" fill="white">ui_pass_driver</text>
<text text-anchor="start" x="617" y="-498" font-family="Helvetica,sans-Serif" font-size="10.00" fill="red">UiPassDriverNode</text>
<path fill="none" stroke="#99aab5" d="M617.33,-490C617.33,-490 704.67,-490 704.67,-490 710.33,-490 716,-495.67 716,-501.33 716,-501.33 716,-512.67 716,-512.67 716,-518.33 710.33,-524 704.67,-524 704.67,-524 617.33,-524 617.33,-524 611.67,-524 606,-518.33 606,-512.67 606,-512.67 606,-501.33 606,-501.33 606,-495.67 611.67,-490 617.33,-490"/>
</g>
<!-- main_pass_driver&#45;&gt;ui_pass_driver -->
<g id="edge8" class="edge">
<title>main_pass_driver:e&#45;&gt;ui_pass_driver:w</title>
<path fill="none" stroke="white" d="M516,-507C553.22,-507 565.03,-507 597.68,-507"/>
<polygon fill="white" stroke="white" points="598,-510.5 608,-507 598,-503.5 598,-510.5"/>
</g>
<!-- main_pass_dependencies -->
<g id="node11" class="node">
<title>main_pass_dependencies</title>
<text text-anchor="start" x="72" y="-478.8" font-family="Helvetica,sans-Serif" font-size="14.00" fill="white">main_pass_dependencies</text>
<text text-anchor="start" x="132" y="-468" font-family="Helvetica,sans-Serif" font-size="10.00" fill="red">EmptyNode</text>
<path fill="none" stroke="#99aab5" d="M78.33,-460C78.33,-460 243.67,-460 243.67,-460 249.33,-460 255,-465.67 255,-471.33 255,-471.33 255,-482.67 255,-482.67 255,-488.33 249.33,-494 243.67,-494 243.67,-494 78.33,-494 78.33,-494 72.67,-494 67,-488.33 67,-482.67 67,-482.67 67,-471.33 67,-471.33 67,-465.67 72.67,-460 78.33,-460"/>
</g>
<!-- main_pass_dependencies&#45;&gt;main_pass_driver -->
<g id="edge6" class="edge">
<title>main_pass_dependencies:e&#45;&gt;main_pass_driver:w</title>
<path fill="none" stroke="white" d="M253,-477C310.86,-477 324.95,-503.59 377.68,-506.7"/>
<polygon fill="white" stroke="white" points="377.9,-510.21 388,-507 378.1,-503.21 377.9,-510.21"/>
</g>
</g>
</svg>
