<?xml version="1.0" encoding="UTF-8" standalone="no"?>
<!DOCTYPE svg PUBLIC "-//W3C//DTD SVG 1.1//EN"
 "http://www.w3.org/Graphics/SVG/1.1/DTD/svg11.dtd">
<!-- Generated by graphviz version 2.43.0 (0)
 -->
<!-- Title: RenderGraph Pages: 1 -->
<svg width="955pt" height="572pt"
 viewBox="0.00 0.00 955.00 572.00" xmlns="http://www.w3.org/2000/svg" xmlns:xlink="http://www.w3.org/1999/xlink">
<g id="graph0" class="graph" transform="scale(1 1) rotate(0) translate(4 568)">
<title>RenderGraph</title>
<polygon fill="#35393f" stroke="transparent" points="-4,4 -4,-568 951,-568 951,4 -4,4"/>
<g id="clust1" class="cluster">
<title>cluster_core_2d</title>
<path fill="#5e6570" stroke="#5e6570" d="M20,-8C20,-8 715,-8 715,-8 721,-8 727,-14 727,-20 727,-20 727,-235 727,-235 727,-241 721,-247 715,-247 715,-247 20,-247 20,-247 14,-247 8,-241 8,-235 8,-235 8,-20 8,-20 8,-14 14,-8 20,-8"/>
<text text-anchor="middle" x="367.5" y="-231.8" font-family="Times,serif" font-size="14.00">core_2d</text>
</g>
<g id="clust2" class="cluster">
<title>cluster_core_2d_draw_ui</title>
<path fill="#6a83aa" stroke="#6a83aa" d="M28,-111C28,-111 502.5,-111 502.5,-111 508.5,-111 514.5,-117 514.5,-123 514.5,-123 514.5,-204 514.5,-204 514.5,-210 508.5,-216 502.5,-216 502.5,-216 28,-216 28,-216 22,-216 16,-210 16,-204 16,-204 16,-123 16,-123 16,-117 22,-111 28,-111"/>
<text text-anchor="middle" x="265.25" y="-200.8" font-family="Times,serif" font-size="14.00">draw_ui</text>
</g>
<g id="clust3" class="cluster">
<title>cluster_core_3d</title>
<path fill="#5e6570" stroke="#5e6570" d="M20,-255C20,-255 927,-255 927,-255 933,-255 939,-261 939,-267 939,-267 939,-502 939,-502 939,-508 933,-514 927,-514 927,-514 20,-514 20,-514 14,-514 8,-508 8,-502 8,-502 8,-267 8,-267 8,-261 14,-255 20,-255"/>
<text text-anchor="middle" x="473.5" y="-498.8" font-family="Times,serif" font-size="14.00">core_3d</text>
</g>
<g id="clust4" class="cluster">
<title>cluster_core_3d_draw_ui</title>
<path fill="#6a83aa" stroke="#6a83aa" d="M28,-378C28,-378 502.5,-378 502.5,-378 508.5,-378 514.5,-384 514.5,-390 514.5,-390 514.5,-471 514.5,-471 514.5,-477 508.5,-483 502.5,-483 502.5,-483 28,-483 28,-483 22,-483 16,-477 16,-471 16,-471 16,-390 16,-390 16,-384 22,-378 28,-378"/>
<text text-anchor="middle" x="265.25" y="-467.8" font-family="Times,serif" font-size="14.00">draw_ui</text>
</g>
<!-- _core_2d_draw_ui__core_2d_draw_uiGraphInputNode -->
<g id="node1" class="node">
<title>_core_2d_draw_ui__core_2d_draw_uiGraphInputNode</title>
<text text-anchor="start" x="111" y="-164.8" font-family="Helvetica,sans-Serif" font-size="14.00" fill="white">GraphInputNode</text>
<text text-anchor="start" x="129" y="-154" font-family="Helvetica,sans-Serif" font-size="10.00" fill="red">GraphInputNode</text>
<polygon fill="none" stroke="#99aab5" points="35,-126 35,-147 168,-147 168,-126 35,-126"/>
<text text-anchor="start" x="38" y="-132.8" font-family="Helvetica,sans-Serif" font-size="14.00" fill="white">view_entity: Entity</text>
<polygon fill="none" stroke="#99aab5" points="170,-126 170,-147 303,-147 303,-126 170,-126"/>
<text text-anchor="start" x="173" y="-132.8" font-family="Helvetica,sans-Serif" font-size="14.00" fill="white">view_entity: Entity</text>
<path fill="none" stroke="#99aab5" d="M44,-123.5C44,-123.5 294,-123.5 294,-123.5 300,-123.5 306,-129.5 306,-135.5 306,-135.5 306,-168.5 306,-168.5 306,-174.5 300,-180.5 294,-180.5 294,-180.5 44,-180.5 44,-180.5 38,-180.5 32,-174.5 32,-168.5 32,-168.5 32,-135.5 32,-135.5 32,-129.5 38,-123.5 44,-123.5"/>
</g>
<!-- _core_2d_draw_ui__core_2d_draw_uiui_pass -->
<g id="node2" class="node">
<title>_core_2d_draw_ui__core_2d_draw_uiui_pass</title>
<text text-anchor="start" x="420.5" y="-164.8" font-family="Helvetica,sans-Serif" font-size="14.00" fill="white">ui_pass</text>
<text text-anchor="start" x="417.5" y="-154" font-family="Helvetica,sans-Serif" font-size="10.00" fill="red">UiPassNode</text>
<polygon fill="none" stroke="#99aab5" points="397.5,-126 397.5,-147 484.5,-147 484.5,-126 397.5,-126"/>
<text text-anchor="start" x="400.5" y="-132.8" font-family="Helvetica,sans-Serif" font-size="14.00" fill="white">view: Entity</text>
<text text-anchor="start" x="488.5" y="-132.8" font-family="Helvetica,sans-Serif" font-size="14.00" fill="white"> </text>
<path fill="none" stroke="#99aab5" d="M406.5,-123.5C406.5,-123.5 486.5,-123.5 486.5,-123.5 492.5,-123.5 498.5,-129.5 498.5,-135.5 498.5,-135.5 498.5,-168.5 498.5,-168.5 498.5,-174.5 492.5,-180.5 486.5,-180.5 486.5,-180.5 406.5,-180.5 406.5,-180.5 400.5,-180.5 394.5,-174.5 394.5,-168.5 394.5,-168.5 394.5,-135.5 394.5,-135.5 394.5,-129.5 400.5,-123.5 406.5,-123.5"/>
</g>
<!-- _core_2d_draw_ui__core_2d_draw_uiGraphInputNode&#45;&gt;_core_2d_draw_ui__core_2d_draw_uiui_pass -->
<g id="edge1" class="edge">
<title>_core_2d_draw_ui__core_2d_draw_uiGraphInputNode:e&#45;&gt;_core_2d_draw_ui__core_2d_draw_uiui_pass:w</title>
<path fill="none" stroke="white" d="M304,-136C341.42,-136 353.29,-136 386.12,-136"/>
<polygon fill="white" stroke="white" points="386.5,-139.5 396.5,-136 386.5,-132.5 386.5,-139.5"/>
</g>
<!-- _core_2d__core_2dmain_pass -->
<g id="node3" class="node">
<title>_core_2d__core_2dmain_pass</title>
<text text-anchor="start" x="409.5" y="-81.8" font-family="Helvetica,sans-Serif" font-size="14.00" fill="white">main_pass</text>
<text text-anchor="start" x="404.5" y="-71" font-family="Helvetica,sans-Serif" font-size="10.00" fill="red">MainPass2dNode</text>
<polygon fill="none" stroke="#99aab5" points="397.5,-43 397.5,-64 484.5,-64 484.5,-43 397.5,-43"/>
<text text-anchor="start" x="400.5" y="-49.8" font-family="Helvetica,sans-Serif" font-size="14.00" fill="white">view: Entity</text>
<text text-anchor="start" x="488.5" y="-49.8" font-family="Helvetica,sans-Serif" font-size="14.00" fill="white"> </text>
<path fill="none" stroke="#99aab5" d="M406.5,-40.5C406.5,-40.5 486.5,-40.5 486.5,-40.5 492.5,-40.5 498.5,-46.5 498.5,-52.5 498.5,-52.5 498.5,-85.5 498.5,-85.5 498.5,-91.5 492.5,-97.5 486.5,-97.5 486.5,-97.5 406.5,-97.5 406.5,-97.5 400.5,-97.5 394.5,-91.5 394.5,-85.5 394.5,-85.5 394.5,-52.5 394.5,-52.5 394.5,-46.5 400.5,-40.5 406.5,-40.5"/>
</g>
<!-- _core_2d__core_2dui_pass -->
<g id="node5" class="node">
<title>_core_2d__core_2dui_pass</title>
<text text-anchor="start" x="623" y="-71.8" font-family="Helvetica,sans-Serif" font-size="14.00" fill="white">ui_pass</text>
<text text-anchor="start" x="593" y="-61" font-family="Helvetica,sans-Serif" font-size="10.00" fill="red">RunGraphOnViewNode</text>
<polygon fill="none" stroke="#99aab5" points="590,-33 590,-54 687,-54 687,-33 590,-33"/>
<text text-anchor="start" x="598" y="-39.8" font-family="Helvetica,sans-Serif" font-size="14.00" fill="white">view: Entity</text>
<text text-anchor="start" x="696" y="-39.8" font-family="Helvetica,sans-Serif" font-size="14.00" fill="white"> </text>
<path fill="none" stroke="#99aab5" d="M599,-30.5C599,-30.5 699,-30.5 699,-30.5 705,-30.5 711,-36.5 711,-42.5 711,-42.5 711,-75.5 711,-75.5 711,-81.5 705,-87.5 699,-87.5 699,-87.5 599,-87.5 599,-87.5 593,-87.5 587,-81.5 587,-75.5 587,-75.5 587,-42.5 587,-42.5 587,-36.5 593,-30.5 599,-30.5"/>
</g>
<!-- _core_2d__core_2dmain_pass&#45;&gt;_core_2d__core_2dui_pass -->
<g id="edge3" class="edge">
<title>_core_2d__core_2dmain_pass:e&#45;&gt;_core_2d__core_2dui_pass:w</title>
<path fill="none" stroke="white" d="M496.5,-80C534.3,-80 545.73,-71.64 579,-70.21"/>
<polygon fill="white" stroke="white" points="579.08,-73.71 589,-70 578.93,-66.71 579.08,-73.71"/>
</g>
<!-- _core_2d__core_2dGraphInputNode -->
<g id="node4" class="node">
<title>_core_2d__core_2dGraphInputNode</title>
<text text-anchor="start" x="111" y="-71.8" font-family="Helvetica,sans-Serif" font-size="14.00" fill="white">GraphInputNode</text>
<text text-anchor="start" x="129" y="-61" font-family="Helvetica,sans-Serif" font-size="10.00" fill="red">GraphInputNode</text>
<polygon fill="none" stroke="#99aab5" points="35,-33 35,-54 168,-54 168,-33 35,-33"/>
<text text-anchor="start" x="38" y="-39.8" font-family="Helvetica,sans-Serif" font-size="14.00" fill="white">view_entity: Entity</text>
<polygon fill="none" stroke="#99aab5" points="170,-33 170,-54 303,-54 303,-33 170,-33"/>
<text text-anchor="start" x="173" y="-39.8" font-family="Helvetica,sans-Serif" font-size="14.00" fill="white">view_entity: Entity</text>
<path fill="none" stroke="#99aab5" d="M44,-30.5C44,-30.5 294,-30.5 294,-30.5 300,-30.5 306,-36.5 306,-42.5 306,-42.5 306,-75.5 306,-75.5 306,-81.5 300,-87.5 294,-87.5 294,-87.5 44,-87.5 44,-87.5 38,-87.5 32,-81.5 32,-75.5 32,-75.5 32,-42.5 32,-42.5 32,-36.5 38,-30.5 44,-30.5"/>
</g>
<!-- _core_2d__core_2dGraphInputNode&#45;&gt;_core_2d__core_2dmain_pass -->
<g id="edge2" class="edge">
<title>_core_2d__core_2dGraphInputNode:e&#45;&gt;_core_2d__core_2dmain_pass:w</title>
<path fill="none" stroke="white" d="M304,-43C341.8,-43 353.23,-51.36 386.5,-52.79"/>
<polygon fill="white" stroke="white" points="386.43,-56.29 396.5,-53 386.58,-49.29 386.43,-56.29"/>
</g>
<!-- _core_2d__core_2dGraphInputNode&#45;&gt;_core_2d__core_2dui_pass -->
<g id="edge4" class="edge">
<title>_core_2d__core_2dGraphInputNode:e&#45;&gt;_core_2d__core_2dui_pass:w</title>
<path fill="none" stroke="white" d="M304,-43C341.05,-43 349.1,-31.35 386,-28 442.88,-22.84 457.67,-22.34 514.5,-28 544.43,-30.98 553.35,-40.55 578.8,-42.61"/>
<polygon fill="white" stroke="white" points="578.87,-46.11 589,-43 579.14,-39.12 578.87,-46.11"/>
</g>
<!-- _core_3d_draw_ui__core_3d_draw_uiGraphInputNode -->
<g id="node6" class="node">
<title>_core_3d_draw_ui__core_3d_draw_uiGraphInputNode</title>
<text text-anchor="start" x="111" y="-431.8" font-family="Helvetica,sans-Serif" font-size="14.00" fill="white">GraphInputNode</text>
<text text-anchor="start" x="129" y="-421" font-family="Helvetica,sans-Serif" font-size="10.00" fill="red">GraphInputNode</text>
<polygon fill="none" stroke="#99aab5" points="35,-393 35,-414 168,-414 168,-393 35,-393"/>
<text text-anchor="start" x="38" y="-399.8" font-family="Helvetica,sans-Serif" font-size="14.00" fill="white">view_entity: Entity</text>
<polygon fill="none" stroke="#99aab5" points="170,-393 170,-414 303,-414 303,-393 170,-393"/>
<text text-anchor="start" x="173" y="-399.8" font-family="Helvetica,sans-Serif" font-size="14.00" fill="white">view_entity: Entity</text>
<path fill="none" stroke="#99aab5" d="M44,-390.5C44,-390.5 294,-390.5 294,-390.5 300,-390.5 306,-396.5 306,-402.5 306,-402.5 306,-435.5 306,-435.5 306,-441.5 300,-447.5 294,-447.5 294,-447.5 44,-447.5 44,-447.5 38,-447.5 32,-441.5 32,-435.5 32,-435.5 32,-402.5 32,-402.5 32,-396.5 38,-390.5 44,-390.5"/>
</g>
<!-- _core_3d_draw_ui__core_3d_draw_uiui_pass -->
<g id="node7" class="node">
<title>_core_3d_draw_ui__core_3d_draw_uiui_pass</title>
<text text-anchor="start" x="420.5" y="-431.8" font-family="Helvetica,sans-Serif" font-size="14.00" fill="white">ui_pass</text>
<text text-anchor="start" x="417.5" y="-421" font-family="Helvetica,sans-Serif" font-size="10.00" fill="red">UiPassNode</text>
<polygon fill="none" stroke="#99aab5" points="397.5,-393 397.5,-414 484.5,-414 484.5,-393 397.5,-393"/>
<text text-anchor="start" x="400.5" y="-399.8" font-family="Helvetica,sans-Serif" font-size="14.00" fill="white">view: Entity</text>
<text text-anchor="start" x="488.5" y="-399.8" font-family="Helvetica,sans-Serif" font-size="14.00" fill="white"> </text>
<path fill="none" stroke="#99aab5" d="M406.5,-390.5C406.5,-390.5 486.5,-390.5 486.5,-390.5 492.5,-390.5 498.5,-396.5 498.5,-402.5 498.5,-402.5 498.5,-435.5 498.5,-435.5 498.5,-441.5 492.5,-447.5 486.5,-447.5 486.5,-447.5 406.5,-447.5 406.5,-447.5 400.5,-447.5 394.5,-441.5 394.5,-435.5 394.5,-435.5 394.5,-402.5 394.5,-402.5 394.5,-396.5 400.5,-390.5 406.5,-390.5"/>
</g>
<!-- _core_3d_draw_ui__core_3d_draw_uiGraphInputNode&#45;&gt;_core_3d_draw_ui__core_3d_draw_uiui_pass -->
<g id="edge5" class="edge">
<title>_core_3d_draw_ui__core_3d_draw_uiGraphInputNode:e&#45;&gt;_core_3d_draw_ui__core_3d_draw_uiui_pass:w</title>
<path fill="none" stroke="white" d="M304,-403C341.42,-403 353.29,-403 386.12,-403"/>
<polygon fill="white" stroke="white" points="386.5,-406.5 396.5,-403 386.5,-399.5 386.5,-406.5"/>
</g>
<!-- _core_3d__core_3dmain_pass -->
<g id="node8" class="node">
<title>_core_3d__core_3dmain_pass</title>
<text text-anchor="start" x="612" y="-328.8" font-family="Helvetica,sans-Serif" font-size="14.00" fill="white">main_pass</text>
<text text-anchor="start" x="607" y="-318" font-family="Helvetica,sans-Serif" font-size="10.00" fill="red">MainPass3dNode</text>
<polygon fill="none" stroke="#99aab5" points="600,-290 600,-311 687,-311 687,-290 600,-290"/>
<text text-anchor="start" x="603" y="-296.8" font-family="Helvetica,sans-Serif" font-size="14.00" fill="white">view: Entity</text>
<text text-anchor="start" x="691" y="-296.8" font-family="Helvetica,sans-Serif" font-size="14.00" fill="white"> </text>
<path fill="none" stroke="#99aab5" d="M609,-287.5C609,-287.5 689,-287.5 689,-287.5 695,-287.5 701,-293.5 701,-299.5 701,-299.5 701,-332.5 701,-332.5 701,-338.5 695,-344.5 689,-344.5 689,-344.5 609,-344.5 609,-344.5 603,-344.5 597,-338.5 597,-332.5 597,-332.5 597,-299.5 597,-299.5 597,-293.5 603,-287.5 609,-287.5"/>
</g>
<!-- _core_3d__core_3dui_pass -->
<g id="node11" class="node">
<title>_core_3d__core_3dui_pass</title>
<text text-anchor="start" x="835" y="-318.8" font-family="Helvetica,sans-Serif" font-size="14.00" fill="white">ui_pass</text>
<text text-anchor="start" x="805" y="-308" font-family="Helvetica,sans-Serif" font-size="10.00" fill="red">RunGraphOnViewNode</text>
<polygon fill="none" stroke="#99aab5" points="802,-280 802,-301 899,-301 899,-280 802,-280"/>
<text text-anchor="start" x="810" y="-286.8" font-family="Helvetica,sans-Serif" font-size="14.00" fill="white">view: Entity</text>
<text text-anchor="start" x="908" y="-286.8" font-family="Helvetica,sans-Serif" font-size="14.00" fill="white"> </text>
<path fill="none" stroke="#99aab5" d="M811,-277.5C811,-277.5 911,-277.5 911,-277.5 917,-277.5 923,-283.5 923,-289.5 923,-289.5 923,-322.5 923,-322.5 923,-328.5 917,-334.5 911,-334.5 911,-334.5 811,-334.5 811,-334.5 805,-334.5 799,-328.5 799,-322.5 799,-322.5 799,-289.5 799,-289.5 799,-283.5 805,-277.5 811,-277.5"/>
</g>
<!-- _core_3d__core_3dmain_pass&#45;&gt;_core_3d__core_3dui_pass -->
<g id="edge9" class="edge">
<title>_core_3d__core_3dmain_pass:e&#45;&gt;_core_3d__core_3dui_pass:w</title>
<path fill="none" stroke="white" d="M699,-327C740.99,-327 753.53,-318.5 790.93,-317.17"/>
<polygon fill="white" stroke="white" points="791.06,-320.67 801,-317 790.94,-313.67 791.06,-320.67"/>
</g>
<!-- _core_3d__core_3dshadow_pass -->
<g id="node9" class="node">
<title>_core_3d__core_3dshadow_pass</title>
<text text-anchor="start" x="400.5" y="-348.8" font-family="Helvetica,sans-Serif" font-size="14.00" fill="white">shadow_pass</text>
<text text-anchor="start" x="404" y="-338" font-family="Helvetica,sans-Serif" font-size="10.00" fill="red">ShadowPassNode</text>
<polygon fill="none" stroke="#99aab5" points="397.5,-310 397.5,-331 484.5,-331 484.5,-310 397.5,-310"/>
<text text-anchor="start" x="400.5" y="-316.8" font-family="Helvetica,sans-Serif" font-size="14.00" fill="white">view: Entity</text>
<text text-anchor="start" x="489" y="-316.8" font-family="Helvetica,sans-Serif" font-size="14.00" fill="white"> </text>
<path fill="none" stroke="#99aab5" d="M406,-307.5C406,-307.5 487,-307.5 487,-307.5 493,-307.5 499,-313.5 499,-319.5 499,-319.5 499,-352.5 499,-352.5 499,-358.5 493,-364.5 487,-364.5 487,-364.5 406,-364.5 406,-364.5 400,-364.5 394,-358.5 394,-352.5 394,-352.5 394,-319.5 394,-319.5 394,-313.5 400,-307.5 406,-307.5"/>
</g>
<!-- _core_3d__core_3dshadow_pass&#45;&gt;_core_3d__core_3dmain_pass -->
<g id="edge7" class="edge">
<title>_core_3d__core_3dshadow_pass:e&#45;&gt;_core_3d__core_3dmain_pass:w</title>
<path fill="none" stroke="white" d="M497.5,-347C539.89,-347 551.31,-330 588.86,-327.35"/>
<polygon fill="white" stroke="white" points="589.13,-330.84 599,-327 588.89,-323.84 589.13,-330.84"/>
</g>
<!-- _core_3d__core_3dGraphInputNode -->
<g id="node10" class="node">
<title>_core_3d__core_3dGraphInputNode</title>
<text text-anchor="start" x="111" y="-312.8" font-family="Helvetica,sans-Serif" font-size="14.00" fill="white">GraphInputNode</text>
<text text-anchor="start" x="129" y="-302" font-family="Helvetica,sans-Serif" font-size="10.00" fill="red">GraphInputNode</text>
<polygon fill="none" stroke="#99aab5" points="35,-274 35,-295 168,-295 168,-274 35,-274"/>
<text text-anchor="start" x="38" y="-280.8" font-family="Helvetica,sans-Serif" font-size="14.00" fill="white">view_entity: Entity</text>
<polygon fill="none" stroke="#99aab5" points="170,-274 170,-295 303,-295 303,-274 170,-274"/>
<text text-anchor="start" x="173" y="-280.8" font-family="Helvetica,sans-Serif" font-size="14.00" fill="white">view_entity: Entity</text>
<path fill="none" stroke="#99aab5" d="M44,-271.5C44,-271.5 294,-271.5 294,-271.5 300,-271.5 306,-277.5 306,-283.5 306,-283.5 306,-316.5 306,-316.5 306,-322.5 300,-328.5 294,-328.5 294,-328.5 44,-328.5 44,-328.5 38,-328.5 32,-322.5 32,-316.5 32,-316.5 32,-283.5 32,-283.5 32,-277.5 38,-271.5 44,-271.5"/>
</g>
<!-- _core_3d__core_3dGraphInputNode&#45;&gt;_core_3d__core_3dmain_pass -->
<g id="edge6" class="edge">
<title>_core_3d__core_3dGraphInputNode:e&#45;&gt;_core_3d__core_3dmain_pass:w</title>
<path fill="none" stroke="white" d="M304,-284C397.68,-284 420.96,-289.79 514.5,-295 548.39,-296.89 559.29,-299.44 588.74,-299.92"/>
<polygon fill="white" stroke="white" points="588.97,-303.42 599,-300 589.03,-296.42 588.97,-303.42"/>
</g>
<!-- _core_3d__core_3dGraphInputNode&#45;&gt;_core_3d__core_3dshadow_pass -->
<g id="edge8" class="edge">
<title>_core_3d__core_3dGraphInputNode:e&#45;&gt;_core_3d__core_3dshadow_pass:w</title>
<path fill="none" stroke="white" d="M304,-284C344.5,-284 351.42,-314.34 386.4,-319.31"/>
<polygon fill="white" stroke="white" points="386.29,-322.81 396.5,-320 386.76,-315.83 386.29,-322.81"/>
</g>
<!-- _core_3d__core_3dGraphInputNode&#45;&gt;_core_3d__core_3dui_pass -->
<g id="edge10" class="edge">
<title>_core_3d__core_3dGraphInputNode:e&#45;&gt;_core_3d__core_3dui_pass:w</title>
<path fill="none" stroke="white" d="M304,-284C398.02,-284 633.45,-265.61 727,-275 756.74,-277.98 765.58,-287.55 790.87,-289.61"/>
<polygon fill="white" stroke="white" points="790.87,-293.11 801,-290 791.14,-286.12 790.87,-293.11"/>
</g>
<!-- _camera_driver -->
<g id="node12" class="node">
<title>_camera_driver</title>
<text text-anchor="start" x="119" y="-544.8" font-family="Helvetica,sans-Serif" font-size="14.00" fill="white">camera_driver</text>
<text text-anchor="start" x="122" y="-534" font-family="Helvetica,sans-Serif" font-size="10.00" fill="red">CameraDriverNode</text>
<path fill="none" stroke="#99aab5" d="M125.33,-526C125.33,-526 212.67,-526 212.67,-526 218.33,-526 224,-531.67 224,-537.33 224,-537.33 224,-548.67 224,-548.67 224,-554.33 218.33,-560 212.67,-560 212.67,-560 125.33,-560 125.33,-560 119.67,-560 114,-554.33 114,-548.67 114,-548.67 114,-537.33 114,-537.33 114,-531.67 119.67,-526 125.33,-526"/>
</g>
</g>
</svg>
