<?xml version="1.0" encoding="UTF-8" standalone="no"?>
<!DOCTYPE svg PUBLIC "-//W3C//DTD SVG 1.1//EN"
 "http://www.w3.org/Graphics/SVG/1.1/DTD/svg11.dtd">
<!-- Generated by graphviz version 7.0.1 (0)
 -->
<!-- Title: RenderGraph Pages: 1 -->
<svg width="2091pt" height="733pt"
 viewBox="0.00 0.00 2091.00 733.00" xmlns="http://www.w3.org/2000/svg" xmlns:xlink="http://www.w3.org/1999/xlink">
<g id="graph0" class="graph" transform="scale(1 1) rotate(0) translate(4 729)">
<title>RenderGraph</title>
<polygon fill="#35393f" stroke="none" points="-4,4 -4,-729 2087,-729 2087,4 -4,4"/>
<g id="clust1" class="cluster">
<title>cluster_core_2d</title>
<path fill="#5e6570" stroke="#5e6570" d="M20,-8C20,-8 1866.5,-8 1866.5,-8 1872.5,-8 1878.5,-14 1878.5,-20 1878.5,-20 1878.5,-316 1878.5,-316 1878.5,-322 1872.5,-328 1866.5,-328 1866.5,-328 20,-328 20,-328 14,-328 8,-322 8,-316 8,-316 8,-20 8,-20 8,-14 14,-8 20,-8"/>
<text text-anchor="middle" x="943.25" y="-312.8" font-family="Times,serif" font-size="14.00">core_2d</text>
</g>
<g id="clust2" class="cluster">
<title>cluster_core_2d_draw_ui</title>
<path fill="#6a83aa" stroke="#6a83aa" d="M28,-192C28,-192 484.5,-192 484.5,-192 490.5,-192 496.5,-198 496.5,-204 496.5,-204 496.5,-285 496.5,-285 496.5,-291 490.5,-297 484.5,-297 484.5,-297 28,-297 28,-297 22,-297 16,-291 16,-285 16,-285 16,-204 16,-204 16,-198 22,-192 28,-192"/>
<text text-anchor="middle" x="256.25" y="-281.8" font-family="Times,serif" font-size="14.00">draw_ui</text>
</g>
<g id="clust3" class="cluster">
<title>cluster_core_3d</title>
<path fill="#5e6570" stroke="#5e6570" d="M20,-336C20,-336 2063,-336 2063,-336 2069,-336 2075,-342 2075,-348 2075,-348 2075,-663 2075,-663 2075,-669 2069,-675 2063,-675 2063,-675 20,-675 20,-675 14,-675 8,-669 8,-663 8,-663 8,-348 8,-348 8,-342 14,-336 20,-336"/>
<text text-anchor="middle" x="1041.5" y="-659.8" font-family="Times,serif" font-size="14.00">core_3d</text>
</g>
<g id="clust4" class="cluster">
<title>cluster_core_3d_draw_ui</title>
<path fill="#6a83aa" stroke="#6a83aa" d="M28,-539C28,-539 484.5,-539 484.5,-539 490.5,-539 496.5,-545 496.5,-551 496.5,-551 496.5,-632 496.5,-632 496.5,-638 490.5,-644 484.5,-644 484.5,-644 28,-644 28,-644 22,-644 16,-638 16,-632 16,-632 16,-551 16,-551 16,-545 22,-539 28,-539"/>
<text text-anchor="middle" x="256.25" y="-628.8" font-family="Times,serif" font-size="14.00">draw_ui</text>
</g>
<!-- _core_2d_draw_ui__core_2d_draw_uiGraphInputNode -->
<g id="node1" class="node">
<title>_core_2d_draw_ui__core_2d_draw_uiGraphInputNode</title>
<text text-anchor="start" x="107" y="-245.8" font-family="Helvetica,sans-Serif" font-size="14.00" fill="white">GraphInputNode</text>
<text text-anchor="start" x="123" y="-235" font-family="Helvetica,sans-Serif" font-size="10.00" fill="red">GraphInputNode</text>
<polygon fill="none" stroke="#99aab5" points="35,-207 35,-228 162,-228 162,-207 35,-207"/>
<text text-anchor="start" x="38" y="-213.8" font-family="Helvetica,sans-Serif" font-size="14.00" fill="white">view_entity: Entity</text>
<polygon fill="none" stroke="#99aab5" points="164,-207 164,-228 291,-228 291,-207 164,-207"/>
<text text-anchor="start" x="167" y="-213.8" font-family="Helvetica,sans-Serif" font-size="14.00" fill="white">view_entity: Entity</text>
<path fill="none" stroke="#99aab5" d="M44,-204.5C44,-204.5 282,-204.5 282,-204.5 288,-204.5 294,-210.5 294,-216.5 294,-216.5 294,-249.5 294,-249.5 294,-255.5 288,-261.5 282,-261.5 282,-261.5 44,-261.5 44,-261.5 38,-261.5 32,-255.5 32,-249.5 32,-249.5 32,-216.5 32,-216.5 32,-210.5 38,-204.5 44,-204.5"/>
</g>
<!-- _core_2d_draw_ui__core_2d_draw_uiui_pass -->
<g id="node2" class="node">
<title>_core_2d_draw_ui__core_2d_draw_uiui_pass</title>
<text text-anchor="start" x="407" y="-245.8" font-family="Helvetica,sans-Serif" font-size="14.00" fill="white">ui_pass</text>
<text text-anchor="start" x="403.5" y="-235" font-family="Helvetica,sans-Serif" font-size="10.00" fill="red">UiPassNode</text>
<polygon fill="none" stroke="#99aab5" points="385.5,-207 385.5,-228 467.5,-228 467.5,-207 385.5,-207"/>
<text text-anchor="start" x="388.5" y="-213.8" font-family="Helvetica,sans-Serif" font-size="14.00" fill="white">view: Entity</text>
<text text-anchor="start" x="471.5" y="-213.8" font-family="Helvetica,sans-Serif" font-size="14.00" fill="white"> </text>
<path fill="none" stroke="#99aab5" d="M394.5,-204.5C394.5,-204.5 468.5,-204.5 468.5,-204.5 474.5,-204.5 480.5,-210.5 480.5,-216.5 480.5,-216.5 480.5,-249.5 480.5,-249.5 480.5,-255.5 474.5,-261.5 468.5,-261.5 468.5,-261.5 394.5,-261.5 394.5,-261.5 388.5,-261.5 382.5,-255.5 382.5,-249.5 382.5,-249.5 382.5,-216.5 382.5,-216.5 382.5,-210.5 388.5,-204.5 394.5,-204.5"/>
</g>
<!-- _core_2d_draw_ui__core_2d_draw_uiGraphInputNode&#45;&gt;_core_2d_draw_ui__core_2d_draw_uiui_pass -->
<g id="edge1" class="edge">
<title>_core_2d_draw_ui__core_2d_draw_uiGraphInputNode:e&#45;&gt;_core_2d_draw_ui__core_2d_draw_uiui_pass:w</title>
<path fill="none" stroke="white" d="M292,-217C329.1,-217 341.09,-217 373.28,-217"/>
<polygon fill="white" stroke="white" points="372.99,-220.5 382.99,-217 372.99,-213.5 372.99,-220.5"/>
</g>
<!-- _core_2d__core_2dbloom_2d -->
<g id="node3" class="node">
<title>_core_2d__core_2dbloom_2d</title>
<text text-anchor="start" x="586" y="-121.8" font-family="Helvetica,sans-Serif" font-size="14.00" fill="white">bloom_2d</text>
<text text-anchor="start" x="590" y="-111" font-family="Helvetica,sans-Serif" font-size="10.00" fill="red">BloomNode</text>
<polygon fill="none" stroke="#99aab5" points="572,-83 572,-104 654,-104 654,-83 572,-83"/>
<text text-anchor="start" x="575" y="-89.8" font-family="Helvetica,sans-Serif" font-size="14.00" fill="white">view: Entity</text>
<text text-anchor="start" x="658" y="-89.8" font-family="Helvetica,sans-Serif" font-size="14.00" fill="white"> </text>
<path fill="none" stroke="#99aab5" d="M581,-80.5C581,-80.5 655,-80.5 655,-80.5 661,-80.5 667,-86.5 667,-92.5 667,-92.5 667,-125.5 667,-125.5 667,-131.5 661,-137.5 655,-137.5 655,-137.5 581,-137.5 581,-137.5 575,-137.5 569,-131.5 569,-125.5 569,-125.5 569,-92.5 569,-92.5 569,-86.5 575,-80.5 581,-80.5"/>
</g>
<!-- _core_2d__core_2dtonemapping -->
<g id="node6" class="node">
<title>_core_2d__core_2dtonemapping</title>
<text text-anchor="start" x="761.5" y="-121.8" font-family="Helvetica,sans-Serif" font-size="14.00" fill="white">tonemapping</text>
<text text-anchor="start" x="761.5" y="-111" font-family="Helvetica,sans-Serif" font-size="10.00" fill="red">TonemappingNode</text>
<polygon fill="none" stroke="#99aab5" points="758.5,-83 758.5,-104 841.5,-104 841.5,-83 758.5,-83"/>
<text text-anchor="start" x="762" y="-89.8" font-family="Helvetica,sans-Serif" font-size="14.00" fill="white">view: Entity</text>
<text text-anchor="start" x="846.5" y="-89.8" font-family="Helvetica,sans-Serif" font-size="14.00" fill="white"> </text>
<path fill="none" stroke="#99aab5" d="M767,-80.5C767,-80.5 844,-80.5 844,-80.5 850,-80.5 856,-86.5 856,-92.5 856,-92.5 856,-125.5 856,-125.5 856,-131.5 850,-137.5 844,-137.5 844,-137.5 767,-137.5 767,-137.5 761,-137.5 755,-131.5 755,-125.5 755,-125.5 755,-92.5 755,-92.5 755,-86.5 761,-80.5 767,-80.5"/>
</g>
<!-- _core_2d__core_2dbloom_2d&#45;&gt;_core_2d__core_2dtonemapping -->
<g id="edge9" class="edge">
<title>_core_2d__core_2dbloom_2d:e&#45;&gt;_core_2d__core_2dtonemapping:w</title>
<path fill="none" stroke="white" d="M665,-120C702.1,-120 714.09,-120 746.28,-120"/>
<polygon fill="white" stroke="white" points="745.99,-123.5 755.99,-120 745.99,-116.5 745.99,-123.5"/>
</g>
<!-- _core_2d__core_2dmain_pass -->
<g id="node4" class="node">
<title>_core_2d__core_2dmain_pass</title>
<text text-anchor="start" x="397" y="-141.8" font-family="Helvetica,sans-Serif" font-size="14.00" fill="white">main_pass</text>
<text text-anchor="start" x="391" y="-131" font-family="Helvetica,sans-Serif" font-size="10.00" fill="red">MainPass2dNode</text>
<polygon fill="none" stroke="#99aab5" points="385.5,-103 385.5,-124 467.5,-124 467.5,-103 385.5,-103"/>
<text text-anchor="start" x="388.5" y="-109.8" font-family="Helvetica,sans-Serif" font-size="14.00" fill="white">view: Entity</text>
<text text-anchor="start" x="471.5" y="-109.8" font-family="Helvetica,sans-Serif" font-size="14.00" fill="white"> </text>
<path fill="none" stroke="#99aab5" d="M394.5,-100.5C394.5,-100.5 468.5,-100.5 468.5,-100.5 474.5,-100.5 480.5,-106.5 480.5,-112.5 480.5,-112.5 480.5,-145.5 480.5,-145.5 480.5,-151.5 474.5,-157.5 468.5,-157.5 468.5,-157.5 394.5,-157.5 394.5,-157.5 388.5,-157.5 382.5,-151.5 382.5,-145.5 382.5,-145.5 382.5,-112.5 382.5,-112.5 382.5,-106.5 388.5,-100.5 394.5,-100.5"/>
</g>
<!-- _core_2d__core_2dmain_pass&#45;&gt;_core_2d__core_2dbloom_2d -->
<g id="edge3" class="edge">
<title>_core_2d__core_2dmain_pass:e&#45;&gt;_core_2d__core_2dbloom_2d:w</title>
<path fill="none" stroke="white" d="M478.5,-140C516.45,-140 526.98,-123.72 559.58,-120.53"/>
<polygon fill="white" stroke="white" points="559.66,-124.03 569.49,-120.07 559.34,-117.04 559.66,-124.03"/>
</g>
<!-- _core_2d__core_2dmain_pass&#45;&gt;_core_2d__core_2dtonemapping -->
<g id="edge8" class="edge">
<title>_core_2d__core_2dmain_pass:e&#45;&gt;_core_2d__core_2dtonemapping:w</title>
<path fill="none" stroke="white" d="M478.5,-140C515.49,-140 524.09,-148.55 561,-151 611.56,-154.36 625.15,-160.06 675,-151 709.47,-144.74 716.94,-124.87 746.17,-120.75"/>
<polygon fill="white" stroke="white" points="746.24,-124.26 755.99,-120.1 745.78,-117.27 746.24,-124.26"/>
</g>
<!-- _core_2d__core_2dui_pass -->
<g id="node10" class="node">
<title>_core_2d__core_2dui_pass</title>
<text text-anchor="start" x="1531" y="-182.8" font-family="Helvetica,sans-Serif" font-size="14.00" fill="white">ui_pass</text>
<text text-anchor="start" x="1502" y="-172" font-family="Helvetica,sans-Serif" font-size="10.00" fill="red">RunGraphOnViewNode</text>
<polygon fill="none" stroke="#99aab5" points="1499,-144 1499,-165 1591,-165 1591,-144 1499,-144"/>
<text text-anchor="start" x="1507" y="-150.8" font-family="Helvetica,sans-Serif" font-size="14.00" fill="white">view: Entity</text>
<text text-anchor="start" x="1600.5" y="-150.8" font-family="Helvetica,sans-Serif" font-size="14.00" fill="white"> </text>
<path fill="none" stroke="#99aab5" d="M1507.5,-141.5C1507.5,-141.5 1602.5,-141.5 1602.5,-141.5 1608.5,-141.5 1614.5,-147.5 1614.5,-153.5 1614.5,-153.5 1614.5,-186.5 1614.5,-186.5 1614.5,-192.5 1608.5,-198.5 1602.5,-198.5 1602.5,-198.5 1507.5,-198.5 1507.5,-198.5 1501.5,-198.5 1495.5,-192.5 1495.5,-186.5 1495.5,-186.5 1495.5,-153.5 1495.5,-153.5 1495.5,-147.5 1501.5,-141.5 1507.5,-141.5"/>
</g>
<!-- _core_2d__core_2dmain_pass&#45;&gt;_core_2d__core_2dui_pass -->
<g id="edge15" class="edge">
<title>_core_2d__core_2dmain_pass:e&#45;&gt;_core_2d__core_2dui_pass:w</title>
<path fill="none" stroke="white" d="M478.5,-140C516.03,-140 523.92,-152.22 561,-158 668.41,-174.73 695.8,-181 804.5,-181 804.5,-181 804.5,-181 996,-181 1215.3,-181 1272.93,-181 1486.71,-181"/>
<polygon fill="white" stroke="white" points="1486.49,-184.5 1496.49,-181 1486.49,-177.5 1486.49,-184.5"/>
</g>
<!-- _core_2d__core_2dfxaa_node_2d -->
<g id="node5" class="node">
<title>_core_2d__core_2dfxaa_node_2d</title>
<text text-anchor="start" x="950" y="-81.8" font-family="Helvetica,sans-Serif" font-size="14.00" fill="white">fxaa_node_2d</text>
<text text-anchor="start" x="971.5" y="-71" font-family="Helvetica,sans-Serif" font-size="10.00" fill="red">FxaaNode</text>
<polygon fill="none" stroke="#99aab5" points="947,-43 947,-64 1031,-64 1031,-43 947,-43"/>
<text text-anchor="start" x="951" y="-49.8" font-family="Helvetica,sans-Serif" font-size="14.00" fill="white">view: Entity</text>
<text text-anchor="start" x="1036" y="-49.8" font-family="Helvetica,sans-Serif" font-size="14.00" fill="white"> </text>
<path fill="none" stroke="#99aab5" d="M956,-40.5C956,-40.5 1034,-40.5 1034,-40.5 1040,-40.5 1046,-46.5 1046,-52.5 1046,-52.5 1046,-85.5 1046,-85.5 1046,-91.5 1040,-97.5 1034,-97.5 1034,-97.5 956,-97.5 956,-97.5 950,-97.5 944,-91.5 944,-85.5 944,-85.5 944,-52.5 944,-52.5 944,-46.5 950,-40.5 956,-40.5"/>
</g>
<!-- _core_2d__core_2dend_main_pass_post_processing -->
<g id="node9" class="node">
<title>_core_2d__core_2dend_main_pass_post_processing</title>
<text text-anchor="start" x="1139" y="-120.8" font-family="Helvetica,sans-Serif" font-size="14.00" fill="white">end_main_pass_post_processing</text>
<text text-anchor="start" x="1217.5" y="-110" font-family="Helvetica,sans-Serif" font-size="10.00" fill="red">EmptyNode</text>
<path fill="none" stroke="#99aab5" d="M1145.33,-102C1145.33,-102 1344.67,-102 1344.67,-102 1350.33,-102 1356,-107.67 1356,-113.33 1356,-113.33 1356,-124.67 1356,-124.67 1356,-130.33 1350.33,-136 1344.67,-136 1344.67,-136 1145.33,-136 1145.33,-136 1139.67,-136 1134,-130.33 1134,-124.67 1134,-124.67 1134,-113.33 1134,-113.33 1134,-107.67 1139.67,-102 1145.33,-102"/>
</g>
<!-- _core_2d__core_2dfxaa_node_2d&#45;&gt;_core_2d__core_2dend_main_pass_post_processing -->
<g id="edge14" class="edge">
<title>_core_2d__core_2dfxaa_node_2d:e&#45;&gt;_core_2d__core_2dend_main_pass_post_processing:w</title>
<path fill="none" stroke="white" d="M1044,-80C1084.25,-80 1090.63,-112.03 1124.53,-118.04"/>
<polygon fill="white" stroke="white" points="1124.23,-121.52 1134.49,-118.87 1124.82,-114.55 1124.23,-121.52"/>
</g>
<!-- _core_2d__core_2dtonemapping&#45;&gt;_core_2d__core_2dfxaa_node_2d -->
<g id="edge6" class="edge">
<title>_core_2d__core_2dtonemapping:e&#45;&gt;_core_2d__core_2dfxaa_node_2d:w</title>
<path fill="none" stroke="white" d="M854.5,-120C894.72,-120 900.74,-87.15 934.55,-80.99"/>
<polygon fill="white" stroke="white" points="934.83,-84.48 944.49,-80.13 934.23,-77.5 934.83,-84.48"/>
</g>
<!-- _core_2d__core_2dtonemapping&#45;&gt;_core_2d__core_2dend_main_pass_post_processing -->
<g id="edge13" class="edge">
<title>_core_2d__core_2dtonemapping:e&#45;&gt;_core_2d__core_2dend_main_pass_post_processing:w</title>
<path fill="none" stroke="white" d="M854.5,-120C975.7,-120 1008.84,-119.06 1124.54,-119"/>
<polygon fill="white" stroke="white" points="1124.49,-122.5 1134.49,-119 1124.49,-115.5 1124.49,-122.5"/>
</g>
<!-- _core_2d__core_2dupscaling -->
<g id="node7" class="node">
<title>_core_2d__core_2dupscaling</title>
<text text-anchor="start" x="1781.5" y="-119.8" font-family="Helvetica,sans-Serif" font-size="14.00" fill="white">upscaling</text>
<text text-anchor="start" x="1778.5" y="-109" font-family="Helvetica,sans-Serif" font-size="10.00" fill="red">UpscalingNode</text>
<polygon fill="none" stroke="#99aab5" points="1767.5,-81 1767.5,-102 1849.5,-102 1849.5,-81 1767.5,-81"/>
<text text-anchor="start" x="1770.5" y="-87.8" font-family="Helvetica,sans-Serif" font-size="14.00" fill="white">view: Entity</text>
<text text-anchor="start" x="1853.5" y="-87.8" font-family="Helvetica,sans-Serif" font-size="14.00" fill="white"> </text>
<path fill="none" stroke="#99aab5" d="M1776.5,-78.5C1776.5,-78.5 1850.5,-78.5 1850.5,-78.5 1856.5,-78.5 1862.5,-84.5 1862.5,-90.5 1862.5,-90.5 1862.5,-123.5 1862.5,-123.5 1862.5,-129.5 1856.5,-135.5 1850.5,-135.5 1850.5,-135.5 1776.5,-135.5 1776.5,-135.5 1770.5,-135.5 1764.5,-129.5 1764.5,-123.5 1764.5,-123.5 1764.5,-90.5 1764.5,-90.5 1764.5,-84.5 1770.5,-78.5 1776.5,-78.5"/>
</g>
<!-- _core_2d__core_2dGraphInputNode -->
<g id="node8" class="node">
<title>_core_2d__core_2dGraphInputNode</title>
<text text-anchor="start" x="107" y="-95.8" font-family="Helvetica,sans-Serif" font-size="14.00" fill="white">GraphInputNode</text>
<text text-anchor="start" x="123" y="-85" font-family="Helvetica,sans-Serif" font-size="10.00" fill="red">GraphInputNode</text>
<polygon fill="none" stroke="#99aab5" points="35,-57 35,-78 162,-78 162,-57 35,-57"/>
<text text-anchor="start" x="38" y="-63.8" font-family="Helvetica,sans-Serif" font-size="14.00" fill="white">view_entity: Entity</text>
<polygon fill="none" stroke="#99aab5" points="164,-57 164,-78 291,-78 291,-57 164,-57"/>
<text text-anchor="start" x="167" y="-63.8" font-family="Helvetica,sans-Serif" font-size="14.00" fill="white">view_entity: Entity</text>
<path fill="none" stroke="#99aab5" d="M44,-54.5C44,-54.5 282,-54.5 282,-54.5 288,-54.5 294,-60.5 294,-66.5 294,-66.5 294,-99.5 294,-99.5 294,-105.5 288,-111.5 282,-111.5 282,-111.5 44,-111.5 44,-111.5 38,-111.5 32,-105.5 32,-99.5 32,-99.5 32,-66.5 32,-66.5 32,-60.5 38,-54.5 44,-54.5"/>
</g>
<!-- _core_2d__core_2dGraphInputNode&#45;&gt;_core_2d__core_2dbloom_2d -->
<g id="edge2" class="edge">
<title>_core_2d__core_2dGraphInputNode:e&#45;&gt;_core_2d__core_2dbloom_2d:w</title>
<path fill="none" stroke="white" d="M292,-67C350.74,-67 491.53,-90.14 559.57,-92.76"/>
<polygon fill="white" stroke="white" points="559.42,-96.26 569.49,-92.97 559.56,-89.26 559.42,-96.26"/>
</g>
<!-- _core_2d__core_2dGraphInputNode&#45;&gt;_core_2d__core_2dmain_pass -->
<g id="edge4" class="edge">
<title>_core_2d__core_2dGraphInputNode:e&#45;&gt;_core_2d__core_2dmain_pass:w</title>
<path fill="none" stroke="white" d="M292,-67C333.79,-67 338.1,-105.11 373.15,-111.95"/>
<polygon fill="white" stroke="white" points="372.71,-115.43 382.99,-112.86 373.36,-108.46 372.71,-115.43"/>
</g>
<!-- _core_2d__core_2dGraphInputNode&#45;&gt;_core_2d__core_2dfxaa_node_2d -->
<g id="edge5" class="edge">
<title>_core_2d__core_2dGraphInputNode:e&#45;&gt;_core_2d__core_2dfxaa_node_2d:w</title>
<path fill="none" stroke="white" d="M292,-67C328.97,-67 337.16,-56.12 374,-53 623.48,-31.86 689.78,-52.36 934.58,-52.99"/>
<polygon fill="white" stroke="white" points="934.48,-56.49 944.49,-53 934.49,-49.49 934.48,-56.49"/>
</g>
<!-- _core_2d__core_2dGraphInputNode&#45;&gt;_core_2d__core_2dtonemapping -->
<g id="edge7" class="edge">
<title>_core_2d__core_2dGraphInputNode:e&#45;&gt;_core_2d__core_2dtonemapping:w</title>
<path fill="none" stroke="white" d="M292,-67C462.22,-67 506.65,-42.83 675,-68 708.9,-73.07 717.51,-89.07 746.37,-92.39"/>
<polygon fill="white" stroke="white" points="745.81,-95.87 755.99,-92.92 746.19,-88.88 745.81,-95.87"/>
</g>
<!-- _core_2d__core_2dGraphInputNode&#45;&gt;_core_2d__core_2dupscaling -->
<g id="edge10" class="edge">
<title>_core_2d__core_2dGraphInputNode:e&#45;&gt;_core_2d__core_2dupscaling:w</title>
<path fill="none" stroke="white" d="M292,-67C330.23,-67 336.55,-48.7 374,-41 480.3,-19.15 508.47,-17 617,-17 617,-17 617,-17 1246,-17 1475.78,-17 1531.02,-88.56 1755.01,-90.94"/>
<polygon fill="white" stroke="white" points="1754.97,-94.44 1764.99,-90.99 1755.01,-87.44 1754.97,-94.44"/>
</g>
<!-- _core_2d__core_2dGraphInputNode&#45;&gt;_core_2d__core_2dui_pass -->
<g id="edge16" class="edge">
<title>_core_2d__core_2dGraphInputNode:e&#45;&gt;_core_2d__core_2dui_pass:w</title>
<path fill="none" stroke="white" d="M292,-67C350.86,-67 321.04,-145.31 374,-171 422.99,-194.76 442.06,-171.46 496.5,-171 937.86,-167.25 1050.9,-154.23 1486.66,-154"/>
<polygon fill="white" stroke="white" points="1486.49,-157.5 1496.49,-154 1486.49,-150.5 1486.49,-157.5"/>
</g>
<!-- _core_2d__core_2dend_main_pass_post_processing&#45;&gt;_core_2d__core_2dupscaling -->
<g id="edge11" class="edge">
<title>_core_2d__core_2dend_main_pass_post_processing:e&#45;&gt;_core_2d__core_2dupscaling:w</title>
<path fill="none" stroke="white" d="M1354,-119C1533.48,-119 1581.18,-118.04 1755.13,-118"/>
<polygon fill="white" stroke="white" points="1754.99,-121.5 1764.99,-118 1754.99,-114.5 1754.99,-121.5"/>
</g>
<!-- _core_2d__core_2dend_main_pass_post_processing&#45;&gt;_core_2d__core_2dui_pass -->
<g id="edge17" class="edge">
<title>_core_2d__core_2dend_main_pass_post_processing:e&#45;&gt;_core_2d__core_2dui_pass:w</title>
<path fill="none" stroke="white" d="M1354,-119C1419.73,-119 1427.59,-174.18 1486.76,-180.43"/>
<polygon fill="white" stroke="white" points="1486.32,-183.91 1496.49,-180.92 1486.68,-176.92 1486.32,-183.91"/>
</g>
<!-- _core_2d__core_2dui_pass&#45;&gt;_core_2d__core_2dupscaling -->
<g id="edge12" class="edge">
<title>_core_2d__core_2dui_pass:e&#45;&gt;_core_2d__core_2dupscaling:w</title>
<path fill="none" stroke="white" d="M1613,-181C1682.86,-181 1691.93,-124.47 1755.38,-118.51"/>
<polygon fill="white" stroke="white" points="1755.16,-122.02 1764.99,-118.07 1754.84,-115.03 1755.16,-122.02"/>
</g>
<!-- _core_3d_draw_ui__core_3d_draw_uiGraphInputNode -->
<g id="node11" class="node">
<title>_core_3d_draw_ui__core_3d_draw_uiGraphInputNode</title>
<text text-anchor="start" x="107" y="-592.8" font-family="Helvetica,sans-Serif" font-size="14.00" fill="white">GraphInputNode</text>
<text text-anchor="start" x="123" y="-582" font-family="Helvetica,sans-Serif" font-size="10.00" fill="red">GraphInputNode</text>
<polygon fill="none" stroke="#99aab5" points="35,-554 35,-575 162,-575 162,-554 35,-554"/>
<text text-anchor="start" x="38" y="-560.8" font-family="Helvetica,sans-Serif" font-size="14.00" fill="white">view_entity: Entity</text>
<polygon fill="none" stroke="#99aab5" points="164,-554 164,-575 291,-575 291,-554 164,-554"/>
<text text-anchor="start" x="167" y="-560.8" font-family="Helvetica,sans-Serif" font-size="14.00" fill="white">view_entity: Entity</text>
<path fill="none" stroke="#99aab5" d="M44,-551.5C44,-551.5 282,-551.5 282,-551.5 288,-551.5 294,-557.5 294,-563.5 294,-563.5 294,-596.5 294,-596.5 294,-602.5 288,-608.5 282,-608.5 282,-608.5 44,-608.5 44,-608.5 38,-608.5 32,-602.5 32,-596.5 32,-596.5 32,-563.5 32,-563.5 32,-557.5 38,-551.5 44,-551.5"/>
</g>
<!-- _core_3d_draw_ui__core_3d_draw_uiui_pass -->
<g id="node12" class="node">
<title>_core_3d_draw_ui__core_3d_draw_uiui_pass</title>
<text text-anchor="start" x="407" y="-592.8" font-family="Helvetica,sans-Serif" font-size="14.00" fill="white">ui_pass</text>
<text text-anchor="start" x="403.5" y="-582" font-family="Helvetica,sans-Serif" font-size="10.00" fill="red">UiPassNode</text>
<polygon fill="none" stroke="#99aab5" points="385.5,-554 385.5,-575 467.5,-575 467.5,-554 385.5,-554"/>
<text text-anchor="start" x="388.5" y="-560.8" font-family="Helvetica,sans-Serif" font-size="14.00" fill="white">view: Entity</text>
<text text-anchor="start" x="471.5" y="-560.8" font-family="Helvetica,sans-Serif" font-size="14.00" fill="white"> </text>
<path fill="none" stroke="#99aab5" d="M394.5,-551.5C394.5,-551.5 468.5,-551.5 468.5,-551.5 474.5,-551.5 480.5,-557.5 480.5,-563.5 480.5,-563.5 480.5,-596.5 480.5,-596.5 480.5,-602.5 474.5,-608.5 468.5,-608.5 468.5,-608.5 394.5,-608.5 394.5,-608.5 388.5,-608.5 382.5,-602.5 382.5,-596.5 382.5,-596.5 382.5,-563.5 382.5,-563.5 382.5,-557.5 388.5,-551.5 394.5,-551.5"/>
</g>
<!-- _core_3d_draw_ui__core_3d_draw_uiGraphInputNode&#45;&gt;_core_3d_draw_ui__core_3d_draw_uiui_pass -->
<g id="edge18" class="edge">
<title>_core_3d_draw_ui__core_3d_draw_uiGraphInputNode:e&#45;&gt;_core_3d_draw_ui__core_3d_draw_uiui_pass:w</title>
<path fill="none" stroke="white" d="M292,-564C329.1,-564 341.09,-564 373.28,-564"/>
<polygon fill="white" stroke="white" points="372.99,-567.5 382.99,-564 372.99,-560.5 372.99,-567.5"/>
</g>
<!-- _core_3d__core_3dbloom_3d -->
<g id="node13" class="node">
<title>_core_3d__core_3dbloom_3d</title>
<text text-anchor="start" x="773.5" y="-469.8" font-family="Helvetica,sans-Serif" font-size="14.00" fill="white">bloom_3d</text>
<text text-anchor="start" x="777.5" y="-459" font-family="Helvetica,sans-Serif" font-size="10.00" fill="red">BloomNode</text>
<polygon fill="none" stroke="#99aab5" points="759.5,-431 759.5,-452 841.5,-452 841.5,-431 759.5,-431"/>
<text text-anchor="start" x="762.5" y="-437.8" font-family="Helvetica,sans-Serif" font-size="14.00" fill="white">view: Entity</text>
<text text-anchor="start" x="845.5" y="-437.8" font-family="Helvetica,sans-Serif" font-size="14.00" fill="white"> </text>
<path fill="none" stroke="#99aab5" d="M768.5,-428.5C768.5,-428.5 842.5,-428.5 842.5,-428.5 848.5,-428.5 854.5,-434.5 854.5,-440.5 854.5,-440.5 854.5,-473.5 854.5,-473.5 854.5,-479.5 848.5,-485.5 842.5,-485.5 842.5,-485.5 768.5,-485.5 768.5,-485.5 762.5,-485.5 756.5,-479.5 756.5,-473.5 756.5,-473.5 756.5,-440.5 756.5,-440.5 756.5,-434.5 762.5,-428.5 768.5,-428.5"/>
</g>
<!-- _core_3d__core_3dtonemapping -->
<g id="node16" class="node">
<title>_core_3d__core_3dtonemapping</title>
<text text-anchor="start" x="951" y="-469.8" font-family="Helvetica,sans-Serif" font-size="14.00" fill="white">tonemapping</text>
<text text-anchor="start" x="951" y="-459" font-family="Helvetica,sans-Serif" font-size="10.00" fill="red">TonemappingNode</text>
<polygon fill="none" stroke="#99aab5" points="948,-431 948,-452 1031,-452 1031,-431 948,-431"/>
<text text-anchor="start" x="951.5" y="-437.8" font-family="Helvetica,sans-Serif" font-size="14.00" fill="white">view: Entity</text>
<text text-anchor="start" x="1036" y="-437.8" font-family="Helvetica,sans-Serif" font-size="14.00" fill="white"> </text>
<path fill="none" stroke="#99aab5" d="M956.5,-428.5C956.5,-428.5 1033.5,-428.5 1033.5,-428.5 1039.5,-428.5 1045.5,-434.5 1045.5,-440.5 1045.5,-440.5 1045.5,-473.5 1045.5,-473.5 1045.5,-479.5 1039.5,-485.5 1033.5,-485.5 1033.5,-485.5 956.5,-485.5 956.5,-485.5 950.5,-485.5 944.5,-479.5 944.5,-473.5 944.5,-473.5 944.5,-440.5 944.5,-440.5 944.5,-434.5 950.5,-428.5 956.5,-428.5"/>
</g>
<!-- _core_3d__core_3dbloom_3d&#45;&gt;_core_3d__core_3dtonemapping -->
<g id="edge27" class="edge">
<title>_core_3d__core_3dbloom_3d:e&#45;&gt;_core_3d__core_3dtonemapping:w</title>
<path fill="none" stroke="white" d="M852.5,-468C890.4,-468 902.65,-468 935.54,-468"/>
<polygon fill="white" stroke="white" points="935.49,-471.5 945.49,-468 935.49,-464.5 935.49,-471.5"/>
</g>
<!-- _core_3d__core_3dmain_pass -->
<g id="node14" class="node">
<title>_core_3d__core_3dmain_pass</title>
<text text-anchor="start" x="583.5" y="-509.8" font-family="Helvetica,sans-Serif" font-size="14.00" fill="white">main_pass</text>
<text text-anchor="start" x="577.5" y="-499" font-family="Helvetica,sans-Serif" font-size="10.00" fill="red">MainPass3dNode</text>
<polygon fill="none" stroke="#99aab5" points="572,-471 572,-492 654,-492 654,-471 572,-471"/>
<text text-anchor="start" x="575" y="-477.8" font-family="Helvetica,sans-Serif" font-size="14.00" fill="white">view: Entity</text>
<text text-anchor="start" x="658" y="-477.8" font-family="Helvetica,sans-Serif" font-size="14.00" fill="white"> </text>
<path fill="none" stroke="#99aab5" d="M581,-468.5C581,-468.5 655,-468.5 655,-468.5 661,-468.5 667,-474.5 667,-480.5 667,-480.5 667,-513.5 667,-513.5 667,-519.5 661,-525.5 655,-525.5 655,-525.5 581,-525.5 581,-525.5 575,-525.5 569,-519.5 569,-513.5 569,-513.5 569,-480.5 569,-480.5 569,-474.5 575,-468.5 581,-468.5"/>
</g>
<!-- _core_3d__core_3dmain_pass&#45;&gt;_core_3d__core_3dbloom_3d -->
<g id="edge20" class="edge">
<title>_core_3d__core_3dmain_pass:e&#45;&gt;_core_3d__core_3dbloom_3d:w</title>
<path fill="none" stroke="white" d="M665,-508C706.14,-508 712.4,-474.86 747.28,-468.91"/>
<polygon fill="white" stroke="white" points="747.31,-472.42 756.99,-468.12 746.74,-465.44 747.31,-472.42"/>
</g>
<!-- _core_3d__core_3dmain_pass&#45;&gt;_core_3d__core_3dtonemapping -->
<g id="edge26" class="edge">
<title>_core_3d__core_3dmain_pass:e&#45;&gt;_core_3d__core_3dtonemapping:w</title>
<path fill="none" stroke="white" d="M665,-508C753.53,-508 777.25,-516.7 864,-499 898.51,-491.96 906.19,-472.71 935.61,-468.73"/>
<polygon fill="white" stroke="white" points="935.73,-472.23 945.49,-468.1 935.29,-465.24 935.73,-472.23"/>
</g>
<!-- _core_3d__core_3dui_pass -->
<g id="node21" class="node">
<title>_core_3d__core_3dui_pass</title>
<text text-anchor="start" x="1789.5" y="-409.8" font-family="Helvetica,sans-Serif" font-size="14.00" fill="white">ui_pass</text>
<text text-anchor="start" x="1760.5" y="-399" font-family="Helvetica,sans-Serif" font-size="10.00" fill="red">RunGraphOnViewNode</text>
<polygon fill="none" stroke="#99aab5" points="1757.5,-371 1757.5,-392 1849.5,-392 1849.5,-371 1757.5,-371"/>
<text text-anchor="start" x="1765.5" y="-377.8" font-family="Helvetica,sans-Serif" font-size="14.00" fill="white">view: Entity</text>
<text text-anchor="start" x="1859" y="-377.8" font-family="Helvetica,sans-Serif" font-size="14.00" fill="white"> </text>
<path fill="none" stroke="#99aab5" d="M1766,-368.5C1766,-368.5 1861,-368.5 1861,-368.5 1867,-368.5 1873,-374.5 1873,-380.5 1873,-380.5 1873,-413.5 1873,-413.5 1873,-419.5 1867,-425.5 1861,-425.5 1861,-425.5 1766,-425.5 1766,-425.5 1760,-425.5 1754,-419.5 1754,-413.5 1754,-413.5 1754,-380.5 1754,-380.5 1754,-374.5 1760,-368.5 1766,-368.5"/>
</g>
<!-- _core_3d__core_3dmain_pass&#45;&gt;_core_3d__core_3dui_pass -->
<g id="edge34" class="edge">
<title>_core_3d__core_3dmain_pass:e&#45;&gt;_core_3d__core_3dui_pass:w</title>
<path fill="none" stroke="white" d="M665,-508C811.52,-508 847.48,-529 994,-529 994,-529 994,-529 1246,-529 1438.14,-529 1495.93,-540.19 1674,-468 1712.24,-452.5 1711.66,-415.51 1745.42,-408.99"/>
<polygon fill="white" stroke="white" points="1745.34,-412.51 1754.99,-408.13 1744.72,-405.54 1745.34,-412.51"/>
</g>
<!-- _core_3d__core_3dfxaa_node_3d -->
<g id="node15" class="node">
<title>_core_3d__core_3dfxaa_node_3d</title>
<text text-anchor="start" x="1200" y="-429.8" font-family="Helvetica,sans-Serif" font-size="14.00" fill="white">fxaa_node_3d</text>
<text text-anchor="start" x="1221.5" y="-419" font-family="Helvetica,sans-Serif" font-size="10.00" fill="red">FxaaNode</text>
<polygon fill="none" stroke="#99aab5" points="1197,-391 1197,-412 1281,-412 1281,-391 1197,-391"/>
<text text-anchor="start" x="1201" y="-397.8" font-family="Helvetica,sans-Serif" font-size="14.00" fill="white">view: Entity</text>
<text text-anchor="start" x="1286" y="-397.8" font-family="Helvetica,sans-Serif" font-size="14.00" fill="white"> </text>
<path fill="none" stroke="#99aab5" d="M1206,-388.5C1206,-388.5 1284,-388.5 1284,-388.5 1290,-388.5 1296,-394.5 1296,-400.5 1296,-400.5 1296,-433.5 1296,-433.5 1296,-439.5 1290,-445.5 1284,-445.5 1284,-445.5 1206,-445.5 1206,-445.5 1200,-445.5 1194,-439.5 1194,-433.5 1194,-433.5 1194,-400.5 1194,-400.5 1194,-394.5 1200,-388.5 1206,-388.5"/>
</g>
<!-- _core_3d__core_3dend_main_pass_post_processing -->
<g id="node20" class="node">
<title>_core_3d__core_3dend_main_pass_post_processing</title>
<text text-anchor="start" x="1449" y="-439.8" font-family="Helvetica,sans-Serif" font-size="14.00" fill="white">end_main_pass_post_processing</text>
<text text-anchor="start" x="1527.5" y="-429" font-family="Helvetica,sans-Serif" font-size="10.00" fill="red">EmptyNode</text>
<path fill="none" stroke="#99aab5" d="M1455.33,-421C1455.33,-421 1654.67,-421 1654.67,-421 1660.33,-421 1666,-426.67 1666,-432.33 1666,-432.33 1666,-443.67 1666,-443.67 1666,-449.33 1660.33,-455 1654.67,-455 1654.67,-455 1455.33,-455 1455.33,-455 1449.67,-455 1444,-449.33 1444,-443.67 1444,-443.67 1444,-432.33 1444,-432.33 1444,-426.67 1449.67,-421 1455.33,-421"/>
</g>
<!-- _core_3d__core_3dfxaa_node_3d&#45;&gt;_core_3d__core_3dend_main_pass_post_processing -->
<g id="edge33" class="edge">
<title>_core_3d__core_3dfxaa_node_3d:e&#45;&gt;_core_3d__core_3dend_main_pass_post_processing:w</title>
<path fill="none" stroke="white" d="M1294,-428C1357.73,-428 1376.18,-436.86 1434.61,-437.9"/>
<polygon fill="white" stroke="white" points="1434.46,-441.4 1444.49,-437.99 1434.52,-434.4 1434.46,-441.4"/>
</g>
<!-- _core_3d__core_3dtonemapping&#45;&gt;_core_3d__core_3dfxaa_node_3d -->
<g id="edge24" class="edge">
<title>_core_3d__core_3dtonemapping:e&#45;&gt;_core_3d__core_3dfxaa_node_3d:w</title>
<path fill="none" stroke="white" d="M1044,-468C1109.9,-468 1124.57,-432.4 1184.66,-428.37"/>
<polygon fill="white" stroke="white" points="1184.61,-431.87 1194.49,-428.05 1184.38,-424.88 1184.61,-431.87"/>
</g>
<!-- _core_3d__core_3dtonemapping&#45;&gt;_core_3d__core_3dend_main_pass_post_processing -->
<g id="edge32" class="edge">
<title>_core_3d__core_3dtonemapping:e&#45;&gt;_core_3d__core_3dend_main_pass_post_processing:w</title>
<path fill="none" stroke="white" d="M1044,-468C1186.28,-468 1223.1,-478.77 1364,-459 1397.18,-454.34 1406.46,-441.32 1434.67,-438.53"/>
<polygon fill="white" stroke="white" points="1434.66,-442.04 1444.49,-438.07 1434.34,-435.04 1434.66,-442.04"/>
</g>
<!-- _core_3d__core_3dupscaling -->
<g id="node17" class="node">
<title>_core_3d__core_3dupscaling</title>
<text text-anchor="start" x="1978" y="-409.8" font-family="Helvetica,sans-Serif" font-size="14.00" fill="white">upscaling</text>
<text text-anchor="start" x="1975" y="-399" font-family="Helvetica,sans-Serif" font-size="10.00" fill="red">UpscalingNode</text>
<polygon fill="none" stroke="#99aab5" points="1964,-371 1964,-392 2046,-392 2046,-371 1964,-371"/>
<text text-anchor="start" x="1967" y="-377.8" font-family="Helvetica,sans-Serif" font-size="14.00" fill="white">view: Entity</text>
<text text-anchor="start" x="2050" y="-377.8" font-family="Helvetica,sans-Serif" font-size="14.00" fill="white"> </text>
<path fill="none" stroke="#99aab5" d="M1973,-368.5C1973,-368.5 2047,-368.5 2047,-368.5 2053,-368.5 2059,-374.5 2059,-380.5 2059,-380.5 2059,-413.5 2059,-413.5 2059,-419.5 2053,-425.5 2047,-425.5 2047,-425.5 1973,-425.5 1973,-425.5 1967,-425.5 1961,-419.5 1961,-413.5 1961,-413.5 1961,-380.5 1961,-380.5 1961,-374.5 1967,-368.5 1973,-368.5"/>
</g>
<!-- _core_3d__core_3dshadow_pass -->
<g id="node18" class="node">
<title>_core_3d__core_3dshadow_pass</title>
<text text-anchor="start" x="388.5" y="-509.8" font-family="Helvetica,sans-Serif" font-size="14.00" fill="white">shadow_pass</text>
<text text-anchor="start" x="391" y="-499" font-family="Helvetica,sans-Serif" font-size="10.00" fill="red">ShadowPassNode</text>
<polygon fill="none" stroke="#99aab5" points="385.5,-471 385.5,-492 467.5,-492 467.5,-471 385.5,-471"/>
<text text-anchor="start" x="388.5" y="-477.8" font-family="Helvetica,sans-Serif" font-size="14.00" fill="white">view: Entity</text>
<text text-anchor="start" x="472" y="-477.8" font-family="Helvetica,sans-Serif" font-size="14.00" fill="white"> </text>
<path fill="none" stroke="#99aab5" d="M394,-468.5C394,-468.5 469,-468.5 469,-468.5 475,-468.5 481,-474.5 481,-480.5 481,-480.5 481,-513.5 481,-513.5 481,-519.5 475,-525.5 469,-525.5 469,-525.5 394,-525.5 394,-525.5 388,-525.5 382,-519.5 382,-513.5 382,-513.5 382,-480.5 382,-480.5 382,-474.5 388,-468.5 394,-468.5"/>
</g>
<!-- _core_3d__core_3dshadow_pass&#45;&gt;_core_3d__core_3dmain_pass -->
<g id="edge22" class="edge">
<title>_core_3d__core_3dshadow_pass:e&#45;&gt;_core_3d__core_3dmain_pass:w</title>
<path fill="none" stroke="white" d="M479.5,-508C516.04,-508 527.95,-508 559.49,-508"/>
<polygon fill="white" stroke="white" points="559.49,-511.5 569.49,-508 559.49,-504.5 559.49,-511.5"/>
</g>
<!-- _core_3d__core_3dGraphInputNode -->
<g id="node19" class="node">
<title>_core_3d__core_3dGraphInputNode</title>
<text text-anchor="start" x="107" y="-433.8" font-family="Helvetica,sans-Serif" font-size="14.00" fill="white">GraphInputNode</text>
<text text-anchor="start" x="123" y="-423" font-family="Helvetica,sans-Serif" font-size="10.00" fill="red">GraphInputNode</text>
<polygon fill="none" stroke="#99aab5" points="35,-395 35,-416 162,-416 162,-395 35,-395"/>
<text text-anchor="start" x="38" y="-401.8" font-family="Helvetica,sans-Serif" font-size="14.00" fill="white">view_entity: Entity</text>
<polygon fill="none" stroke="#99aab5" points="164,-395 164,-416 291,-416 291,-395 164,-395"/>
<text text-anchor="start" x="167" y="-401.8" font-family="Helvetica,sans-Serif" font-size="14.00" fill="white">view_entity: Entity</text>
<path fill="none" stroke="#99aab5" d="M44,-392.5C44,-392.5 282,-392.5 282,-392.5 288,-392.5 294,-398.5 294,-404.5 294,-404.5 294,-437.5 294,-437.5 294,-443.5 288,-449.5 282,-449.5 282,-449.5 44,-449.5 44,-449.5 38,-449.5 32,-443.5 32,-437.5 32,-437.5 32,-404.5 32,-404.5 32,-398.5 38,-392.5 44,-392.5"/>
</g>
<!-- _core_3d__core_3dGraphInputNode&#45;&gt;_core_3d__core_3dbloom_3d -->
<g id="edge19" class="edge">
<title>_core_3d__core_3dGraphInputNode:e&#45;&gt;_core_3d__core_3dbloom_3d:w</title>
<path fill="none" stroke="white" d="M292,-405C341.09,-405 667.12,-437.1 747.04,-440.68"/>
<polygon fill="white" stroke="white" points="746.89,-444.17 756.99,-440.96 747.09,-437.18 746.89,-444.17"/>
</g>
<!-- _core_3d__core_3dGraphInputNode&#45;&gt;_core_3d__core_3dmain_pass -->
<g id="edge21" class="edge">
<title>_core_3d__core_3dGraphInputNode:e&#45;&gt;_core_3d__core_3dmain_pass:w</title>
<path fill="none" stroke="white" d="M292,-405C330.1,-405 337.11,-420.48 374,-430 427.89,-443.91 442.81,-441.34 496.5,-456 526.24,-464.12 534.31,-477.39 559.83,-480.38"/>
<polygon fill="white" stroke="white" points="559.31,-483.86 569.49,-480.92 559.7,-476.87 559.31,-483.86"/>
</g>
<!-- _core_3d__core_3dGraphInputNode&#45;&gt;_core_3d__core_3dfxaa_node_3d -->
<g id="edge23" class="edge">
<title>_core_3d__core_3dGraphInputNode:e&#45;&gt;_core_3d__core_3dfxaa_node_3d:w</title>
<path fill="none" stroke="white" d="M292,-405C328.71,-405 337.41,-397.98 374,-395 481.73,-386.23 508.91,-385 617,-385 617,-385 617,-385 806.5,-385 975.87,-385 1020.75,-400.29 1184.52,-400.98"/>
<polygon fill="white" stroke="white" points="1184.48,-404.48 1194.49,-401 1184.49,-397.48 1184.48,-404.48"/>
</g>
<!-- _core_3d__core_3dGraphInputNode&#45;&gt;_core_3d__core_3dtonemapping -->
<g id="edge25" class="edge">
<title>_core_3d__core_3dGraphInputNode:e&#45;&gt;_core_3d__core_3dtonemapping:w</title>
<path fill="none" stroke="white" d="M292,-405C546.27,-405 612.81,-376.52 864,-416 898.04,-421.35 906.77,-437.13 935.81,-440.4"/>
<polygon fill="white" stroke="white" points="935.32,-443.88 945.49,-440.92 935.69,-436.89 935.32,-443.88"/>
</g>
<!-- _core_3d__core_3dGraphInputNode&#45;&gt;_core_3d__core_3dupscaling -->
<g id="edge28" class="edge">
<title>_core_3d__core_3dGraphInputNode:e&#45;&gt;_core_3d__core_3dupscaling:w</title>
<path fill="none" stroke="white" d="M292,-405C333.15,-405 334.41,-373.23 374,-362 478.15,-332.45 508.74,-345 617,-345 617,-345 617,-345 1556,-345 1700.53,-345 1738.43,-332.28 1881,-356 1914.47,-361.57 1923.14,-377.05 1951.56,-380.37"/>
<polygon fill="white" stroke="white" points="1951.31,-383.86 1961.49,-380.92 1951.7,-376.87 1951.31,-383.86"/>
</g>
<!-- _core_3d__core_3dGraphInputNode&#45;&gt;_core_3d__core_3dshadow_pass -->
<g id="edge31" class="edge">
<title>_core_3d__core_3dGraphInputNode:e&#45;&gt;_core_3d__core_3dshadow_pass:w</title>
<path fill="none" stroke="white" d="M292,-405C341.05,-405 333.06,-469.59 373.19,-479.68"/>
<polygon fill="white" stroke="white" points="372.66,-483.14 383,-480.82 373.47,-476.19 372.66,-483.14"/>
</g>
<!-- _core_3d__core_3dGraphInputNode&#45;&gt;_core_3d__core_3dui_pass -->
<g id="edge36" class="edge">
<title>_core_3d__core_3dGraphInputNode:e&#45;&gt;_core_3d__core_3dui_pass:w</title>
<path fill="none" stroke="white" d="M292,-405C329.85,-405 336.71,-388.47 374,-382 480.67,-363.51 508.74,-365 617,-365 617,-365 617,-365 1246,-365 1469.12,-365 1527.52,-380.46 1745.01,-380.99"/>
<polygon fill="white" stroke="white" points="1744.98,-384.49 1754.99,-381 1744.99,-377.49 1744.98,-384.49"/>
</g>
<!-- _core_3d__core_3dend_main_pass_post_processing&#45;&gt;_core_3d__core_3dupscaling -->
<g id="edge29" class="edge">
<title>_core_3d__core_3dend_main_pass_post_processing:e&#45;&gt;_core_3d__core_3dupscaling:w</title>
<path fill="none" stroke="white" d="M1664,-438C1760.45,-438 1786.13,-456.33 1881,-439 1915.28,-432.74 1922.67,-412.87 1951.74,-408.75"/>
<polygon fill="white" stroke="white" points="1951.75,-412.26 1961.49,-408.1 1951.28,-405.28 1951.75,-412.26"/>
</g>
<!-- _core_3d__core_3dend_main_pass_post_processing&#45;&gt;_core_3d__core_3dui_pass -->
<g id="edge35" class="edge">
<title>_core_3d__core_3dend_main_pass_post_processing:e&#45;&gt;_core_3d__core_3dui_pass:w</title>
<path fill="none" stroke="white" d="M1664,-438C1703.17,-438 1711.82,-413.36 1745.26,-408.74"/>
<polygon fill="white" stroke="white" points="1745.24,-412.25 1754.99,-408.1 1744.78,-405.27 1745.24,-412.25"/>
</g>
<!-- _core_3d__core_3dui_pass&#45;&gt;_core_3d__core_3dupscaling -->
<g id="edge30" class="edge">
<title>_core_3d__core_3dui_pass:e&#45;&gt;_core_3d__core_3dupscaling:w</title>
<path fill="none" stroke="white" d="M1871.5,-408C1908.04,-408 1919.95,-408 1951.49,-408"/>
<polygon fill="white" stroke="white" points="1951.49,-411.5 1961.49,-408 1951.49,-404.5 1951.49,-411.5"/>
</g>
<!-- _camera_driver -->
<g id="node22" class="node">
<title>_camera_driver</title>
<text text-anchor="start" x="116" y="-705.8" font-family="Helvetica,sans-Serif" font-size="14.00" fill="white">camera_driver</text>
<text text-anchor="start" x="117.5" y="-695" font-family="Helvetica,sans-Serif" font-size="10.00" fill="red">CameraDriverNode</text>
<path fill="none" stroke="#99aab5" d="M122.33,-687C122.33,-687 203.67,-687 203.67,-687 209.33,-687 215,-692.67 215,-698.33 215,-698.33 215,-709.67 215,-709.67 215,-715.33 209.33,-721 203.67,-721 203.67,-721 122.33,-721 122.33,-721 116.67,-721 111,-715.33 111,-709.67 111,-709.67 111,-698.33 111,-698.33 111,-692.67 116.67,-687 122.33,-687"/>
</g>
</g>
</svg>
