<?xml version="1.0" encoding="UTF-8" standalone="no"?>
<!DOCTYPE svg PUBLIC "-//W3C//DTD SVG 1.1//EN"
 "http://www.w3.org/Graphics/SVG/1.1/DTD/svg11.dtd">
<!-- Generated by graphviz version 2.43.0 (0)
 -->
<!-- Title: schedule Pages: 1 -->
<svg width="3902pt" height="723pt"
 viewBox="0.00 0.00 3902.00 723.00" xmlns="http://www.w3.org/2000/svg" xmlns:xlink="http://www.w3.org/1999/xlink">
<g id="graph0" class="graph" transform="scale(1 1) rotate(0) translate(4 719)">
<title>schedule</title>
<polygon fill="#35393f" stroke="transparent" points="-4,4 -4,-719 3898,-719 3898,4 -4,4"/>
<g id="clust1" class="cluster">
<title>cluster_Extract</title>
<path fill="#99aab5" stroke="#99aab5" d="M20,-8C20,-8 550,-8 550,-8 556,-8 562,-14 562,-20 562,-20 562,-695 562,-695 562,-701 556,-707 550,-707 550,-707 20,-707 20,-707 14,-707 8,-701 8,-695 8,-695 8,-20 8,-20 8,-14 14,-8 20,-8"/>
<text text-anchor="middle" x="285" y="-690.2" font-family="Helvetica,sans-Serif" font-size="16.00">Extract</text>
</g>
<g id="clust2" class="cluster">
<title>cluster_Prepare</title>
<path fill="#99aab5" stroke="#99aab5" d="M594,-239C594,-239 2792,-239 2792,-239 2798,-239 2804,-245 2804,-251 2804,-251 2804,-695 2804,-695 2804,-701 2798,-707 2792,-707 2792,-707 594,-707 594,-707 588,-707 582,-701 582,-695 582,-695 582,-251 582,-251 582,-245 588,-239 594,-239"/>
<text text-anchor="middle" x="1693" y="-690.2" font-family="Helvetica,sans-Serif" font-size="16.00">Prepare</text>
</g>
<g id="clust3" class="cluster">
<title>cluster_Queue</title>
<path fill="#99aab5" stroke="#99aab5" d="M2836,-404C2836,-404 3060,-404 3060,-404 3066,-404 3072,-410 3072,-416 3072,-416 3072,-695 3072,-695 3072,-701 3066,-707 3060,-707 3060,-707 2836,-707 2836,-707 2830,-707 2824,-701 2824,-695 2824,-695 2824,-416 2824,-416 2824,-410 2830,-404 2836,-404"/>
<text text-anchor="middle" x="2948" y="-690.2" font-family="Helvetica,sans-Serif" font-size="16.00">Queue</text>
</g>
<g id="clust4" class="cluster">
<title>cluster_PhaseSort</title>
<path fill="#99aab5" stroke="#99aab5" d="M3104,-437C3104,-437 3361,-437 3361,-437 3367,-437 3373,-443 3373,-449 3373,-449 3373,-695 3373,-695 3373,-701 3367,-707 3361,-707 3361,-707 3104,-707 3104,-707 3098,-707 3092,-701 3092,-695 3092,-695 3092,-449 3092,-449 3092,-443 3098,-437 3104,-437"/>
<text text-anchor="middle" x="3232.5" y="-690.2" font-family="Helvetica,sans-Serif" font-size="16.00">PhaseSort</text>
</g>
<g id="clust5" class="cluster">
<title>cluster_Render</title>
<path fill="#99aab5" stroke="#99aab5" d="M3405,-569C3405,-569 3624,-569 3624,-569 3630,-569 3636,-575 3636,-581 3636,-581 3636,-695 3636,-695 3636,-701 3630,-707 3624,-707 3624,-707 3405,-707 3405,-707 3399,-707 3393,-701 3393,-695 3393,-695 3393,-581 3393,-581 3393,-575 3399,-569 3405,-569"/>
<text text-anchor="middle" x="3514.5" y="-690.2" font-family="Helvetica,sans-Serif" font-size="16.00">Render</text>
</g>
<g id="clust6" class="cluster">
<title>cluster_Cleanup</title>
<path fill="#99aab5" stroke="#99aab5" d="M3668,-602C3668,-602 3874,-602 3874,-602 3880,-602 3886,-608 3886,-614 3886,-614 3886,-695 3886,-695 3886,-701 3880,-707 3874,-707 3874,-707 3668,-707 3668,-707 3662,-707 3656,-701 3656,-695 3656,-695 3656,-614 3656,-614 3656,-608 3662,-602 3668,-602"/>
<text text-anchor="middle" x="3771" y="-690.2" font-family="Helvetica,sans-Serif" font-size="16.00">Cleanup</text>
</g>
<!-- MARKER_schedule_Extract -->
<!-- MARKER_schedule_Prepare -->
<!-- MARKER_schedule_Extract&#45;&gt;MARKER_schedule_Prepare -->
<g id="edge5" class="edge">
<title>MARKER_schedule_Extract&#45;&gt;MARKER_schedule_Prepare</title>
<path fill="none" stroke="white" d="M383.19,-658C636.65,-658 1316.52,-658 1582.85,-658"/>
<polygon fill="white" stroke="white" points="1582.92,-661.5 1592.92,-658 1582.92,-654.5 1582.92,-661.5"/>
</g>
<!-- schedule_(bevy_ecs::system::commands::Commands, bevy_ecs::system::system_param::Local&lt;usize&gt;, bevy_ecs::system::query::Query&lt;(bevy_ecs::entity::Entity, &amp;bevy_asset::handle::Handle&lt;bevy_pbr::material::StandardMaterial&gt;)&gt;)_0 -->
<g id="node2" class="node">
<title>schedule_(bevy_ecs::system::commands::Commands, bevy_ecs::system::system_param::Local&lt;usize&gt;, bevy_ecs::system::query::Query&lt;(bevy_ecs::entity::Entity, &amp;bevy_asset::handle::Handle&lt;bevy_pbr::material::StandardMaterial&gt;)&gt;)_0</title>
<g id="a_node2"><a xlink:title="Components [Handle&lt;StandardMaterial&gt;]&#10;">
<polygon fill="#eff1f3" stroke="#eff1f3" points="554,-639.5 16,-639.5 16,-610.5 554,-610.5 554,-639.5"/>
<text text-anchor="middle" x="285" y="-621.3" font-family="Times,serif" font-size="14.00">(Commands, Local&lt;usize&gt;, Query&lt;(Entity, Handle&lt;StandardMaterial&gt;)&gt;)</text>
</a>
</g>
</g>
<!-- schedule_bevy_core_pipeline::extract_clear_color_1 -->
<g id="node3" class="node">
<title>schedule_bevy_core_pipeline::extract_clear_color_1</title>
<g id="a_node3"><a xlink:title="Res [ClearColor]&#10;ResMut [RenderWorld]&#10;">
<polygon fill="#eff1f3" stroke="#eff1f3" points="353,-606.5 217,-606.5 217,-577.5 353,-577.5 353,-606.5"/>
<text text-anchor="middle" x="285" y="-588.3" font-family="Times,serif" font-size="14.00">extract_clear_color</text>
</a>
</g>
</g>
<!-- schedule_bevy_core_pipeline::extract_core_pipeline_camera_phases_2 -->
<g id="node4" class="node">
<title>schedule_bevy_core_pipeline::extract_core_pipeline_camera_phases_2</title>
<g id="a_node4"><a xlink:title="Res [ActiveCameras]&#10;">
<polygon fill="#eff1f3" stroke="#eff1f3" points="419,-573.5 151,-573.5 151,-544.5 419,-544.5 419,-573.5"/>
<text text-anchor="middle" x="285" y="-555.3" font-family="Times,serif" font-size="14.00">extract_core_pipeline_camera_phases</text>
</a>
</g>
</g>
<!-- schedule_bevy_pbr::render::light::extract_clusters_3 -->
<g id="node5" class="node">
<title>schedule_bevy_pbr::render::light::extract_clusters_3</title>
<g id="a_node5"><a xlink:title="Components [Clusters]&#10;">
<polygon fill="#eff1f3" stroke="#eff1f3" points="342.5,-540.5 227.5,-540.5 227.5,-511.5 342.5,-511.5 342.5,-540.5"/>
<text text-anchor="middle" x="285" y="-522.3" font-family="Times,serif" font-size="14.00">extract_clusters</text>
</a>
</g>
</g>
<!-- schedule_bevy_pbr::render::light::extract_lights_4 -->
<g id="node6" class="node">
<title>schedule_bevy_pbr::render::light::extract_lights_4</title>
<g id="a_node6"><a xlink:title="Components [GlobalTransform, PointLight, DirectionalLight]&#10;ComponentsMut [VisibleEntities, CubemapVisibleEntities]&#10;Res [AmbientLight, DirectionalLightShadowMap, PointLightShadowMap, VisiblePointLights]&#10;">
<polygon fill="#eff1f3" stroke="#eff1f3" points="334.5,-507.5 235.5,-507.5 235.5,-478.5 334.5,-478.5 334.5,-507.5"/>
<text text-anchor="middle" x="285" y="-489.3" font-family="Times,serif" font-size="14.00">extract_lights</text>
</a>
</g>
</g>
<!-- schedule_bevy_pbr::render::mesh::extract_meshes_5 -->
<g id="node7" class="node">
<title>schedule_bevy_pbr::render::mesh::extract_meshes_5</title>
<g id="a_node7"><a xlink:title="Components [GlobalTransform, Handle&lt;Mesh&gt;, ComputedVisibility, NotShadowReceiver]&#10;">
<polygon fill="#eff1f3" stroke="#eff1f3" points="341,-474.5 229,-474.5 229,-445.5 341,-445.5 341,-474.5"/>
<text text-anchor="middle" x="285" y="-456.3" font-family="Times,serif" font-size="14.00">extract_meshes</text>
</a>
</g>
</g>
<!-- schedule_bevy_render::camera::extract_cameras_6 -->
<g id="node8" class="node">
<title>schedule_bevy_render::camera::extract_cameras_6</title>
<g id="a_node8"><a xlink:title="Components [GlobalTransform, Camera, VisibleEntities]&#10;Res [Windows, ActiveCameras]&#10;">
<polygon fill="#eff1f3" stroke="#eff1f3" points="344,-441.5 226,-441.5 226,-412.5 344,-412.5 344,-441.5"/>
<text text-anchor="middle" x="285" y="-423.3" font-family="Times,serif" font-size="14.00">extract_cameras</text>
</a>
</g>
</g>
<!-- schedule_bevy_render::render_asset::extract_render_asset&lt;bevy_pbr::material::StandardMaterial&gt;_7 -->
<g id="node9" class="node">
<title>schedule_bevy_render::render_asset::extract_render_asset&lt;bevy_pbr::material::StandardMaterial&gt;_7</title>
<g id="a_node9"><a xlink:title="Res [Assets&lt;StandardMaterial&gt;, Events&lt;AssetEvent&lt;StandardMaterial&gt;&gt;]&#10;">
<polygon fill="#eff1f3" stroke="#eff1f3" points="435.5,-408.5 134.5,-408.5 134.5,-379.5 435.5,-379.5 435.5,-408.5"/>
<text text-anchor="middle" x="285" y="-390.3" font-family="Times,serif" font-size="14.00">extract_render_asset&lt;StandardMaterial&gt;</text>
</a>
</g>
</g>
<!-- schedule_bevy_render::render_asset::extract_render_asset&lt;bevy_render::mesh::mesh::Mesh&gt;_8 -->
<g id="node10" class="node">
<title>schedule_bevy_render::render_asset::extract_render_asset&lt;bevy_render::mesh::mesh::Mesh&gt;_8</title>
<g id="a_node10"><a xlink:title="Res [Assets&lt;Mesh&gt;, Events&lt;AssetEvent&lt;Mesh&gt;&gt;]&#10;">
<polygon fill="#eff1f3" stroke="#eff1f3" points="392,-375.5 178,-375.5 178,-346.5 392,-346.5 392,-375.5"/>
<text text-anchor="middle" x="285" y="-357.3" font-family="Times,serif" font-size="14.00">extract_render_asset&lt;Mesh&gt;</text>
</a>
</g>
</g>
<!-- schedule_bevy_render::render_asset::extract_render_asset&lt;bevy_render::texture::image::Image&gt;_9 -->
<g id="node11" class="node">
<title>schedule_bevy_render::render_asset::extract_render_asset&lt;bevy_render::texture::image::Image&gt;_9</title>
<g id="a_node11"><a xlink:title="Res [Assets&lt;Image&gt;, Events&lt;AssetEvent&lt;Image&gt;&gt;]&#10;">
<polygon fill="#eff1f3" stroke="#eff1f3" points="394.5,-342.5 175.5,-342.5 175.5,-313.5 394.5,-313.5 394.5,-342.5"/>
<text text-anchor="middle" x="285" y="-324.3" font-family="Times,serif" font-size="14.00">extract_render_asset&lt;Image&gt;</text>
</a>
</g>
</g>
<!-- schedule_bevy_render::render_resource::pipeline_cache::RenderPipelineCache::extract_shaders_10 -->
<g id="node12" class="node">
<title>schedule_bevy_render::render_resource::pipeline_cache::RenderPipelineCache::extract_shaders_10</title>
<g id="a_node12"><a xlink:title="Res [Assets&lt;Shader&gt;, Events&lt;AssetEvent&lt;Shader&gt;&gt;]&#10;ResMut [RenderWorld]&#10;">
<polygon fill="#eff1f3" stroke="#eff1f3" points="342.5,-309.5 227.5,-309.5 227.5,-280.5 342.5,-280.5 342.5,-309.5"/>
<text text-anchor="middle" x="285" y="-291.3" font-family="Times,serif" font-size="14.00">extract_shaders</text>
</a>
</g>
</g>
<!-- schedule_bevy_render::view::extract_msaa_11 -->
<g id="node13" class="node">
<title>schedule_bevy_render::view::extract_msaa_11</title>
<g id="a_node13"><a xlink:title="Res [Msaa]&#10;">
<polygon fill="#eff1f3" stroke="#eff1f3" points="333,-276.5 237,-276.5 237,-247.5 333,-247.5 333,-276.5"/>
<text text-anchor="middle" x="285" y="-258.3" font-family="Times,serif" font-size="14.00">extract_msaa</text>
</a>
</g>
</g>
<!-- schedule_bevy_render::view::window::extract_windows_12 -->
<g id="node14" class="node">
<title>schedule_bevy_render::view::window::extract_windows_12</title>
<g id="a_node14"><a xlink:title="Res [Windows]&#10;ResMut [RenderWorld]&#10;">
<polygon fill="#eff1f3" stroke="#eff1f3" points="345.5,-243.5 224.5,-243.5 224.5,-214.5 345.5,-214.5 345.5,-243.5"/>
<text text-anchor="middle" x="285" y="-225.3" font-family="Times,serif" font-size="14.00">extract_windows</text>
</a>
</g>
</g>
<!-- schedule_bevy_sprite::render::extract_sprite_events_13 -->
<g id="node15" class="node">
<title>schedule_bevy_sprite::render::extract_sprite_events_13</title>
<g id="a_node15"><a xlink:title="Res [Events&lt;AssetEvent&lt;Image&gt;&gt;]&#10;ResMut [RenderWorld]&#10;">
<polygon fill="#eff1f3" stroke="#eff1f3" points="362,-210.5 208,-210.5 208,-181.5 362,-181.5 362,-210.5"/>
<text text-anchor="middle" x="285" y="-192.3" font-family="Times,serif" font-size="14.00">extract_sprite_events</text>
</a>
</g>
</g>
<!-- schedule_bevy_sprite::render::extract_sprites_14 -->
<g id="node16" class="node">
<title>schedule_bevy_sprite::render::extract_sprites_14</title>
<g id="a_node16"><a xlink:title="Components [GlobalTransform, ComputedVisibility, Sprite, Handle&lt;Image&gt;, TextureAtlasSprite, Handle&lt;TextureAtlas&gt;]&#10;Res [Assets&lt;Image&gt;, Assets&lt;TextureAtlas&gt;]&#10;ResMut [RenderWorld]&#10;">
<polygon fill="#eff1f3" stroke="#eff1f3" points="339,-177.5 231,-177.5 231,-148.5 339,-148.5 339,-177.5"/>
<text text-anchor="middle" x="285" y="-159.3" font-family="Times,serif" font-size="14.00">extract_sprites</text>
</a>
</g>
</g>
<!-- schedule_bevy_text::text2d::extract_text2d_sprite_15 -->
<g id="node17" class="node">
<title>schedule_bevy_text::text2d::extract_text2d_sprite_15</title>
<g id="a_node17"><a xlink:title="Components [GlobalTransform, Text2dSize, Text]&#10;Res [Windows, Assets&lt;TextureAtlas&gt;, TextPipeline&lt;Entity&gt;]&#10;ResMut [RenderWorld]&#10;">
<polygon fill="#eff1f3" stroke="#eff1f3" points="362,-144.5 208,-144.5 208,-115.5 362,-115.5 362,-144.5"/>
<text text-anchor="middle" x="285" y="-126.3" font-family="Times,serif" font-size="14.00">extract_text2d_sprite</text>
</a>
</g>
</g>
<!-- schedule_bevy_sprite::render::extract_sprites_14&#45;&gt;schedule_bevy_text::text2d::extract_text2d_sprite_15 -->
<g id="edge1" class="edge">
<title>schedule_bevy_sprite::render::extract_sprites_14&#45;&gt;schedule_bevy_text::text2d::extract_text2d_sprite_15</title>
<path fill="none" stroke="white" d="M285,-148.41C285,-148.26 285,-148.1 285,-147.95"/>
<polygon fill="white" stroke="white" points="288.5,-154.7 285,-144.7 281.5,-154.7 288.5,-154.7"/>
</g>
<!-- schedule_bevy_ui::render::camera::extract_ui_camera_phases_16 -->
<g id="node18" class="node">
<title>schedule_bevy_ui::render::camera::extract_ui_camera_phases_16</title>
<g id="a_node18"><a xlink:title="Res [ActiveCameras]&#10;">
<polygon fill="#eff1f3" stroke="#eff1f3" points="378.5,-111.5 191.5,-111.5 191.5,-82.5 378.5,-82.5 378.5,-111.5"/>
<text text-anchor="middle" x="285" y="-93.3" font-family="Times,serif" font-size="14.00">extract_ui_camera_phases</text>
</a>
</g>
</g>
<!-- schedule_bevy_ui::render::extract_text_uinodes_17 -->
<g id="node19" class="node">
<title>schedule_bevy_ui::render::extract_text_uinodes_17</title>
<g id="a_node19"><a xlink:title="Components [GlobalTransform, Node, Visibility, Text, CalculatedClip]&#10;Res [Windows, Assets&lt;TextureAtlas&gt;, TextPipeline&lt;Entity&gt;]&#10;ResMut [RenderWorld]&#10;">
<polygon fill="#eff1f3" stroke="#eff1f3" points="359.5,-78.5 210.5,-78.5 210.5,-49.5 359.5,-49.5 359.5,-78.5"/>
<text text-anchor="middle" x="285" y="-60.3" font-family="Times,serif" font-size="14.00">extract_text_uinodes</text>
</a>
</g>
</g>
<!-- schedule_bevy_ui::render::extract_uinodes_18 -->
<g id="node20" class="node">
<title>schedule_bevy_ui::render::extract_uinodes_18</title>
<g id="a_node20"><a xlink:title="Components [GlobalTransform, Node, Visibility, UiImage, CalculatedClip, UiColor]&#10;Res [Assets&lt;Image&gt;]&#10;ResMut [RenderWorld]&#10;">
<polygon fill="#eff1f3" stroke="#eff1f3" points="342,-45.5 228,-45.5 228,-16.5 342,-16.5 342,-45.5"/>
<text text-anchor="middle" x="285" y="-27.3" font-family="Times,serif" font-size="14.00">extract_uinodes</text>
</a>
</g>
</g>
<!-- schedule_bevy_ui::render::extract_uinodes_18&#45;&gt;schedule_bevy_ui::render::extract_text_uinodes_17 -->
<g id="edge2" class="edge">
<title>schedule_bevy_ui::render::extract_uinodes_18&#45;&gt;schedule_bevy_ui::render::extract_text_uinodes_17</title>
<path fill="none" stroke="white" d="M285,-45.7C285,-45.85 285,-46.01 285,-46.16"/>
<polygon fill="white" stroke="white" points="281.5,-39.41 285,-49.41 288.5,-39.41 281.5,-39.41"/>
</g>
<!-- MARKER_schedule_Queue -->
<!-- MARKER_schedule_Prepare&#45;&gt;MARKER_schedule_Queue -->
<g id="edge6" class="edge">
<title>MARKER_schedule_Prepare&#45;&gt;MARKER_schedule_Queue</title>
<path fill="none" stroke="white" d="M1793.11,-658C2025.88,-658 2605.7,-658 2843.13,-658"/>
<polygon fill="white" stroke="white" points="2843.15,-661.5 2853.15,-658 2843.15,-654.5 2843.15,-661.5"/>
</g>
<!-- schedule_bevy_pbr::render::light::prepare_clusters_0 -->
<g id="node22" class="node">
<title>schedule_bevy_pbr::render::light::prepare_clusters_0</title>
<g id="a_node22"><a xlink:title="prepare_clusters">
<polygon fill="#eff1f3" stroke="#eff1f3" points="1753.5,-639.5 1632.5,-639.5 1632.5,-610.5 1753.5,-610.5 1753.5,-639.5"/>
<text text-anchor="start" x="1632.5" y="-627.3" font-family="Times,serif" font-size="14.00">prepare_clusters</text>
<text text-anchor="start" x="1643" y="-615.7" font-family="Times,serif" font-size="11.00" fill="red">Exclusive at start</text>
</a>
</g>
</g>
<!-- schedule_bevy_pbr::render::light::prepare_lights_1 -->
<g id="node23" class="node">
<title>schedule_bevy_pbr::render::light::prepare_lights_1</title>
<g id="a_node23"><a xlink:title="prepare_lights">
<polygon fill="#eff1f3" stroke="#eff1f3" points="1745,-606.5 1641,-606.5 1641,-577.5 1745,-577.5 1745,-606.5"/>
<text text-anchor="start" x="1641" y="-594.3" font-family="Times,serif" font-size="14.00">prepare_lights</text>
<text text-anchor="start" x="1643" y="-582.7" font-family="Times,serif" font-size="11.00" fill="red">Exclusive at start</text>
</a>
</g>
</g>
<!-- schedule_bevy_pbr::render::light::prepare_lights_1&#45;&gt;schedule_bevy_pbr::render::light::prepare_clusters_0 -->
<g id="edge3" class="edge">
<title>schedule_bevy_pbr::render::light::prepare_lights_1&#45;&gt;schedule_bevy_pbr::render::light::prepare_clusters_0</title>
<path fill="none" stroke="white" d="M1693,-606.7C1693,-606.85 1693,-607.01 1693,-607.16"/>
<polygon fill="white" stroke="white" points="1689.5,-600.41 1693,-610.41 1696.5,-600.41 1689.5,-600.41"/>
</g>
<!-- schedule_(bevy_ecs::change_detection::ResMut&lt;bevy_render::render_asset::ExtractedAssets&lt;bevy_pbr::material::StandardMaterial&gt;&gt;, bevy_ecs::change_detection::ResMut&lt;std::collections::hash::map::HashMap&lt;bevy_asset::handle::Handle&lt;bevy_pbr::material::StandardMaterial&gt;, bevy_pbr::material::GpuStandardMaterial, ahash::random_state::RandomState&gt;&gt;, bevy_ecs::change_detection::ResMut&lt;bevy_render::render_asset::PrepareNextFrameAssets&lt;bevy_pbr::material::StandardMaterial&gt;&gt;, (bevy_ecs::system::system_param::Res&lt;bevy_render::renderer::render_device::RenderDevice&gt;, bevy_ecs::system::system_param::Res&lt;bevy_pbr::render::PbrPipeline&gt;, bevy_ecs::system::system_param::Res&lt;std::collections::hash::map::HashMap&lt;bevy_asset::handle::Handle&lt;bevy_render::texture::image::Image&gt;, bevy_render::texture::image::GpuImage, ahash::random_state::RandomState&gt;&gt;))_0 -->
<g id="node24" class="node">
<title>schedule_(bevy_ecs::change_detection::ResMut&lt;bevy_render::render_asset::ExtractedAssets&lt;bevy_pbr::material::StandardMaterial&gt;&gt;, bevy_ecs::change_detection::ResMut&lt;std::collections::hash::map::HashMap&lt;bevy_asset::handle::Handle&lt;bevy_pbr::material::StandardMaterial&gt;, bevy_pbr::material::GpuStandardMaterial, ahash::random_state::RandomState&gt;&gt;, bevy_ecs::change_detection::ResMut&lt;bevy_render::render_asset::PrepareNextFrameAssets&lt;bevy_pbr::material::StandardMaterial&gt;&gt;, (bevy_ecs::system::system_param::Res&lt;bevy_render::renderer::render_device::RenderDevice&gt;, bevy_ecs::system::system_param::Res&lt;bevy_pbr::render::PbrPipeline&gt;, bevy_ecs::system::system_param::Res&lt;std::collections::hash::map::HashMap&lt;bevy_asset::handle::Handle&lt;bevy_render::texture::image::Image&gt;, bevy_render::texture::image::GpuImage, ahash::random_state::RandomState&gt;&gt;))_0</title>
<g id="a_node24"><a xlink:title="Res [RenderDevice, HashMap&lt;Handle&lt;Image&gt;, GpuImage, RandomState&gt;, PbrPipeline]&#10;ResMut [ExtractedAssets&lt;StandardMaterial&gt;, HashMap&lt;Handle&lt;StandardMaterial&gt;, GpuStandardMaterial, RandomState&gt;, PrepareNextFrameAssets&lt;StandardMaterial&gt;]&#10;">
<polygon fill="#eff1f3" stroke="#eff1f3" points="2796,-573.5 590,-573.5 590,-544.5 2796,-544.5 2796,-573.5"/>
<text text-anchor="middle" x="1693" y="-555.3" font-family="Times,serif" font-size="14.00">(ResMut&lt;ExtractedAssets&lt;StandardMaterial&gt;&gt;, ResMut&lt;HashMap&lt;Handle&lt;StandardMaterial&gt;, GpuStandardMaterial, RandomState&gt;&gt;, ResMut&lt;PrepareNextFrameAssets&lt;StandardMaterial&gt;&gt;, (Res&lt;RenderDevice&gt;, Res&lt;PbrPipeline&gt;, Res&lt;HashMap&lt;Handle&lt;Image&gt;, GpuImage, RandomState&gt;&gt;))</text>
</a>
</g>
</g>
<!-- schedule_(bevy_ecs::change_detection::ResMut&lt;bevy_render::render_asset::ExtractedAssets&lt;bevy_render::mesh::mesh::Mesh&gt;&gt;, bevy_ecs::change_detection::ResMut&lt;std::collections::hash::map::HashMap&lt;bevy_asset::handle::Handle&lt;bevy_render::mesh::mesh::Mesh&gt;, bevy_render::mesh::mesh::GpuMesh, ahash::random_state::RandomState&gt;&gt;, bevy_ecs::change_detection::ResMut&lt;bevy_render::render_asset::PrepareNextFrameAssets&lt;bevy_render::mesh::mesh::Mesh&gt;&gt;, bevy_ecs::system::system_param::Res&lt;bevy_render::renderer::render_device::RenderDevice&gt;)_1 -->
<g id="node25" class="node">
<title>schedule_(bevy_ecs::change_detection::ResMut&lt;bevy_render::render_asset::ExtractedAssets&lt;bevy_render::mesh::mesh::Mesh&gt;&gt;, bevy_ecs::change_detection::ResMut&lt;std::collections::hash::map::HashMap&lt;bevy_asset::handle::Handle&lt;bevy_render::mesh::mesh::Mesh&gt;, bevy_render::mesh::mesh::GpuMesh, ahash::random_state::RandomState&gt;&gt;, bevy_ecs::change_detection::ResMut&lt;bevy_render::render_asset::PrepareNextFrameAssets&lt;bevy_render::mesh::mesh::Mesh&gt;&gt;, bevy_ecs::system::system_param::Res&lt;bevy_render::renderer::render_device::RenderDevice&gt;)_1</title>
<g id="a_node25"><a xlink:title="Res [RenderDevice]&#10;ResMut [ExtractedAssets&lt;Mesh&gt;, HashMap&lt;Handle&lt;Mesh&gt;, GpuMesh, RandomState&gt;, PrepareNextFrameAssets&lt;Mesh&gt;]&#10;">
<polygon fill="#eff1f3" stroke="#eff1f3" points="2314.5,-540.5 1071.5,-540.5 1071.5,-511.5 2314.5,-511.5 2314.5,-540.5"/>
<text text-anchor="middle" x="1693" y="-522.3" font-family="Times,serif" font-size="14.00">(ResMut&lt;ExtractedAssets&lt;Mesh&gt;&gt;, ResMut&lt;HashMap&lt;Handle&lt;Mesh&gt;, GpuMesh, RandomState&gt;&gt;, ResMut&lt;PrepareNextFrameAssets&lt;Mesh&gt;&gt;, Res&lt;RenderDevice&gt;)</text>
</a>
</g>
</g>
<!-- schedule_(bevy_ecs::change_detection::ResMut&lt;bevy_render::render_asset::ExtractedAssets&lt;bevy_render::texture::image::Image&gt;&gt;, bevy_ecs::change_detection::ResMut&lt;std::collections::hash::map::HashMap&lt;bevy_asset::handle::Handle&lt;bevy_render::texture::image::Image&gt;, bevy_render::texture::image::GpuImage, ahash::random_state::RandomState&gt;&gt;, bevy_ecs::change_detection::ResMut&lt;bevy_render::render_asset::PrepareNextFrameAssets&lt;bevy_render::texture::image::Image&gt;&gt;, (bevy_ecs::system::system_param::Res&lt;bevy_render::renderer::render_device::RenderDevice&gt;, bevy_ecs::system::system_param::Res&lt;alloc::sync::Arc&lt;wgpu::Queue&gt;&gt;))_2 -->
<g id="node26" class="node">
<title>schedule_(bevy_ecs::change_detection::ResMut&lt;bevy_render::render_asset::ExtractedAssets&lt;bevy_render::texture::image::Image&gt;&gt;, bevy_ecs::change_detection::ResMut&lt;std::collections::hash::map::HashMap&lt;bevy_asset::handle::Handle&lt;bevy_render::texture::image::Image&gt;, bevy_render::texture::image::GpuImage, ahash::random_state::RandomState&gt;&gt;, bevy_ecs::change_detection::ResMut&lt;bevy_render::render_asset::PrepareNextFrameAssets&lt;bevy_render::texture::image::Image&gt;&gt;, (bevy_ecs::system::system_param::Res&lt;bevy_render::renderer::render_device::RenderDevice&gt;, bevy_ecs::system::system_param::Res&lt;alloc::sync::Arc&lt;wgpu::Queue&gt;&gt;))_2</title>
<g id="a_node26"><a xlink:title="Res [RenderDevice, Arc&lt;Queue&gt;]&#10;ResMut [ExtractedAssets&lt;Image&gt;, HashMap&lt;Handle&lt;Image&gt;, GpuImage, RandomState&gt;, PrepareNextFrameAssets&lt;Image&gt;]&#10;">
<polygon fill="#eff1f3" stroke="#eff1f3" points="2407,-507.5 979,-507.5 979,-478.5 2407,-478.5 2407,-507.5"/>
<text text-anchor="middle" x="1693" y="-489.3" font-family="Times,serif" font-size="14.00">(ResMut&lt;ExtractedAssets&lt;Image&gt;&gt;, ResMut&lt;HashMap&lt;Handle&lt;Image&gt;, GpuImage, RandomState&gt;&gt;, ResMut&lt;PrepareNextFrameAssets&lt;Image&gt;&gt;, (Res&lt;RenderDevice&gt;, Res&lt;Arc&lt;Queue&gt;&gt;))</text>
</a>
</g>
</g>
<!-- schedule_bevy_core_pipeline::prepare_core_views_system_3 -->
<g id="node27" class="node">
<title>schedule_bevy_core_pipeline::prepare_core_views_system_3</title>
<g id="a_node27"><a xlink:title="Components [ExtractedView]&#10;Res [RenderDevice, Msaa]&#10;ResMut [TextureCache]&#10;">
<polygon fill="#eff1f3" stroke="#eff1f3" points="1792.5,-474.5 1593.5,-474.5 1593.5,-445.5 1792.5,-445.5 1792.5,-474.5"/>
<text text-anchor="middle" x="1693" y="-456.3" font-family="Times,serif" font-size="14.00">prepare_core_views_system</text>
</a>
</g>
</g>
<!-- schedule_bevy_render::render_component::prepare_uniform_components&lt;bevy_pbr::render::mesh::MeshUniform&gt;_4 -->
<g id="node28" class="node">
<title>schedule_bevy_render::render_component::prepare_uniform_components&lt;bevy_pbr::render::mesh::MeshUniform&gt;_4</title>
<g id="a_node28"><a xlink:title="Components [MeshUniform]&#10;Res [RenderDevice, Arc&lt;Queue&gt;]&#10;ResMut [ComponentUniforms&lt;MeshUniform&gt;]&#10;">
<polygon fill="#eff1f3" stroke="#eff1f3" points="1860.5,-441.5 1525.5,-441.5 1525.5,-412.5 1860.5,-412.5 1860.5,-441.5"/>
<text text-anchor="middle" x="1693" y="-423.3" font-family="Times,serif" font-size="14.00">prepare_uniform_components&lt;MeshUniform&gt;</text>
</a>
</g>
</g>
<!-- schedule_bevy_render::view::prepare_view_targets_5 -->
<g id="node29" class="node">
<title>schedule_bevy_render::view::prepare_view_targets_5</title>
<g id="a_node29"><a xlink:title="Components [ExtractedCamera]&#10;Res [RenderDevice, ExtractedWindows, ExtractedCameraNames, Msaa]&#10;ResMut [TextureCache]&#10;">
<polygon fill="#eff1f3" stroke="#eff1f3" points="1770.5,-408.5 1615.5,-408.5 1615.5,-379.5 1770.5,-379.5 1770.5,-408.5"/>
<text text-anchor="middle" x="1693" y="-390.3" font-family="Times,serif" font-size="14.00">prepare_view_targets</text>
</a>
</g>
</g>
<!-- schedule_bevy_render::view::window::prepare_windows_7 -->
<g id="node30" class="node">
<title>schedule_bevy_render::view::window::prepare_windows_7</title>
<g id="a_node30"><a xlink:title="Res [Instance, RenderDevice, NonSendMarker]&#10;ResMut [ExtractedWindows, WindowSurfaces]&#10;">
<polygon fill="#eff1f3" stroke="#eff1f3" points="1756,-375.5 1630,-375.5 1630,-346.5 1756,-346.5 1756,-375.5"/>
<text text-anchor="middle" x="1693" y="-357.3" font-family="Times,serif" font-size="14.00">prepare_windows</text>
</a>
</g>
</g>
<!-- schedule_bevy_render::view::window::prepare_windows_7&#45;&gt;schedule_bevy_render::view::prepare_view_targets_5 -->
<g id="edge4" class="edge">
<title>schedule_bevy_render::view::window::prepare_windows_7&#45;&gt;schedule_bevy_render::view::prepare_view_targets_5</title>
<path fill="none" stroke="white" d="M1693,-375.7C1693,-375.85 1693,-376.01 1693,-376.16"/>
<polygon fill="white" stroke="white" points="1689.5,-369.41 1693,-379.41 1696.5,-369.41 1689.5,-369.41"/>
</g>
<!-- schedule_bevy_render::view::prepare_view_uniforms_6 -->
<g id="node31" class="node">
<title>schedule_bevy_render::view::prepare_view_uniforms_6</title>
<g id="a_node31"><a xlink:title="Components [ExtractedView]&#10;Res [RenderDevice, Arc&lt;Queue&gt;]&#10;ResMut [ViewUniforms]&#10;">
<polygon fill="#eff1f3" stroke="#eff1f3" points="1776.5,-342.5 1609.5,-342.5 1609.5,-313.5 1776.5,-313.5 1776.5,-342.5"/>
<text text-anchor="middle" x="1693" y="-324.3" font-family="Times,serif" font-size="14.00">prepare_view_uniforms</text>
</a>
</g>
</g>
<!-- schedule_bevy_sprite::render::prepare_sprites_8 -->
<g id="node32" class="node">
<title>schedule_bevy_sprite::render::prepare_sprites_8</title>
<g id="a_node32"><a xlink:title="Res [RenderDevice, Arc&lt;Queue&gt;]&#10;ResMut [SpriteMeta, ExtractedSprites]&#10;">
<polygon fill="#eff1f3" stroke="#eff1f3" points="1749.5,-309.5 1636.5,-309.5 1636.5,-280.5 1749.5,-280.5 1749.5,-309.5"/>
<text text-anchor="middle" x="1693" y="-291.3" font-family="Times,serif" font-size="14.00">prepare_sprites</text>
</a>
</g>
</g>
<!-- schedule_bevy_ui::render::prepare_uinodes_9 -->
<g id="node33" class="node">
<title>schedule_bevy_ui::render::prepare_uinodes_9</title>
<g id="a_node33"><a xlink:title="Res [RenderDevice, Arc&lt;Queue&gt;]&#10;ResMut [UiMeta, ExtractedUiNodes]&#10;">
<polygon fill="#eff1f3" stroke="#eff1f3" points="1752.5,-276.5 1633.5,-276.5 1633.5,-247.5 1752.5,-247.5 1752.5,-276.5"/>
<text text-anchor="middle" x="1693" y="-258.3" font-family="Times,serif" font-size="14.00">prepare_uinodes</text>
</a>
</g>
</g>
<!-- MARKER_schedule_PhaseSort -->
<!-- MARKER_schedule_Queue&#45;&gt;MARKER_schedule_PhaseSort -->
<g id="edge7" class="edge">
<title>MARKER_schedule_Queue&#45;&gt;MARKER_schedule_PhaseSort</title>
<path fill="none" stroke="white" d="M3042.68,-658C3065.44,-658 3090.08,-658 3113.8,-658"/>
<polygon fill="white" stroke="white" points="3113.9,-661.5 3123.9,-658 3113.9,-654.5 3113.9,-661.5"/>
</g>
<!-- schedule_bevy_pbr::render::light::queue_shadow_view_bind_group_0 -->
<g id="node35" class="node">
<title>schedule_bevy_pbr::render::light::queue_shadow_view_bind_group_0</title>
<g id="a_node35"><a xlink:title="Res [RenderDevice, ViewUniforms, ShadowPipeline]&#10;ResMut [LightMeta]&#10;">
<polygon fill="#eff1f3" stroke="#eff1f3" points="3064,-639.5 2832,-639.5 2832,-610.5 3064,-610.5 3064,-639.5"/>
<text text-anchor="middle" x="2948" y="-621.3" font-family="Times,serif" font-size="14.00">queue_shadow_view_bind_group</text>
</a>
</g>
</g>
<!-- schedule_bevy_pbr::render::light::queue_shadows_1 -->
<g id="node36" class="node">
<title>schedule_bevy_pbr::render::light::queue_shadows_1</title>
<g id="a_node36"><a xlink:title="Components [ViewLightEntities, Handle&lt;Mesh&gt;, LightEntity, CubemapVisibleEntities, VisibleEntities]&#10;ComponentsMut [RenderPhase&lt;Shadow&gt;]&#10;Res [HashMap&lt;Handle&lt;Mesh&gt;, GpuMesh, RandomState&gt;, ShadowPipeline, DrawFunctions&lt;Shadow&gt;]&#10;ResMut [RenderPipelineCache, SpecializedPipelines&lt;ShadowPipeline&gt;]&#10;">
<polygon fill="#eff1f3" stroke="#eff1f3" points="3004,-606.5 2892,-606.5 2892,-577.5 3004,-577.5 3004,-606.5"/>
<text text-anchor="middle" x="2948" y="-588.3" font-family="Times,serif" font-size="14.00">queue_shadows</text>
</a>
</g>
</g>
<!-- schedule_bevy_pbr::render::mesh::queue_mesh_bind_group_2 -->
<g id="node37" class="node">
<title>schedule_bevy_pbr::render::mesh::queue_mesh_bind_group_2</title>
<g id="a_node37"><a xlink:title="Res [RenderDevice, ComponentUniforms&lt;MeshUniform&gt;, MeshPipeline]&#10;">
<polygon fill="#eff1f3" stroke="#eff1f3" points="3036,-573.5 2860,-573.5 2860,-544.5 3036,-544.5 3036,-573.5"/>
<text text-anchor="middle" x="2948" y="-555.3" font-family="Times,serif" font-size="14.00">queue_mesh_bind_group</text>
</a>
</g>
</g>
<!-- schedule_bevy_pbr::render::mesh::queue_mesh_view_bind_groups_3 -->
<g id="node38" class="node">
<title>schedule_bevy_pbr::render::mesh::queue_mesh_view_bind_groups_3</title>
<g id="a_node38"><a xlink:title="Components [ViewShadowBindings, ViewClusterBindings]&#10;Res [RenderDevice, ViewUniforms, MeshPipeline, ShadowPipeline, LightMeta, GlobalLightMeta]&#10;">
<polygon fill="#eff1f3" stroke="#eff1f3" points="3059.5,-540.5 2836.5,-540.5 2836.5,-511.5 3059.5,-511.5 3059.5,-540.5"/>
<text text-anchor="middle" x="2948" y="-522.3" font-family="Times,serif" font-size="14.00">queue_mesh_view_bind_groups</text>
</a>
</g>
</g>
<!-- schedule_bevy_pbr::render::queue_meshes_4 -->
<g id="node39" class="node">
<title>schedule_bevy_pbr::render::queue_meshes_4</title>
<g id="a_node39"><a xlink:title="Components [ExtractedView, Handle&lt;StandardMaterial&gt;, Handle&lt;Mesh&gt;, MeshUniform, VisibleEntities]&#10;ComponentsMut [RenderPhase&lt;Opaque3d&gt;, RenderPhase&lt;AlphaMask3d&gt;, RenderPhase&lt;Transparent3d&gt;]&#10;Res [HashMap&lt;Handle&lt;Mesh&gt;, GpuMesh, RandomState&gt;, DrawFunctions&lt;Opaque3d&gt;, DrawFunctions&lt;AlphaMask3d&gt;, DrawFunctions&lt;Transparent3d&gt;, HashMap&lt;Handle&lt;StandardMaterial&gt;, GpuStandardMaterial, RandomState&gt;, PbrPipeline, Msaa]&#10;ResMut [RenderPipelineCache, SpecializedPipelines&lt;PbrPipeline&gt;]&#10;">
<polygon fill="#eff1f3" stroke="#eff1f3" points="3000.5,-507.5 2895.5,-507.5 2895.5,-478.5 3000.5,-478.5 3000.5,-507.5"/>
<text text-anchor="middle" x="2948" y="-489.3" font-family="Times,serif" font-size="14.00">queue_meshes</text>
</a>
</g>
</g>
<!-- schedule_bevy_sprite::render::queue_sprites_5 -->
<g id="node40" class="node">
<title>schedule_bevy_sprite::render::queue_sprites_5</title>
<g id="a_node40"><a xlink:title="Components [SpriteBatch]&#10;ComponentsMut [RenderPhase&lt;Transparent2d&gt;]&#10;Res [RenderDevice, ViewUniforms, HashMap&lt;Handle&lt;Image&gt;, GpuImage, RandomState&gt;, DrawFunctions&lt;Transparent2d&gt;, SpritePipeline, SpriteAssetEvents]&#10;ResMut [RenderPipelineCache, ImageBindGroups, SpecializedPipelines&lt;SpritePipeline&gt;, SpriteMeta]&#10;">
<polygon fill="#eff1f3" stroke="#eff1f3" points="2998,-474.5 2898,-474.5 2898,-445.5 2998,-445.5 2998,-474.5"/>
<text text-anchor="middle" x="2948" y="-456.3" font-family="Times,serif" font-size="14.00">queue_sprites</text>
</a>
</g>
</g>
<!-- schedule_bevy_ui::render::queue_uinodes_6 -->
<g id="node41" class="node">
<title>schedule_bevy_ui::render::queue_uinodes_6</title>
<g id="a_node41"><a xlink:title="Components [UiBatch]&#10;ComponentsMut [RenderPhase&lt;TransparentUi&gt;]&#10;Res [RenderDevice, ViewUniforms, HashMap&lt;Handle&lt;Image&gt;, GpuImage, RandomState&gt;, SpriteAssetEvents, UiPipeline, DrawFunctions&lt;TransparentUi&gt;]&#10;ResMut [RenderPipelineCache, SpecializedPipelines&lt;UiPipeline&gt;, UiImageBindGroups, UiMeta]&#10;">
<polygon fill="#eff1f3" stroke="#eff1f3" points="3001,-441.5 2895,-441.5 2895,-412.5 3001,-412.5 3001,-441.5"/>
<text text-anchor="middle" x="2948" y="-423.3" font-family="Times,serif" font-size="14.00">queue_uinodes</text>
</a>
</g>
</g>
<!-- MARKER_schedule_Render -->
<!-- MARKER_schedule_PhaseSort&#45;&gt;MARKER_schedule_Render -->
<g id="edge8" class="edge">
<title>MARKER_schedule_PhaseSort&#45;&gt;MARKER_schedule_Render</title>
<path fill="none" stroke="white" d="M3341.35,-658C3362.77,-658 3385.24,-658 3406.62,-658"/>
<polygon fill="white" stroke="white" points="3406.69,-661.5 3416.69,-658 3406.69,-654.5 3406.69,-661.5"/>
</g>
<!-- schedule_bevy_render::render_phase::sort_phase_system&lt;bevy_core_pipeline::AlphaMask3d&gt;_0 -->
<g id="node43" class="node">
<title>schedule_bevy_render::render_phase::sort_phase_system&lt;bevy_core_pipeline::AlphaMask3d&gt;_0</title>
<g id="a_node43"><a xlink:title="ComponentsMut [RenderPhase&lt;AlphaMask3d&gt;]&#10;">
<polygon fill="#eff1f3" stroke="#eff1f3" points="3360.5,-639.5 3104.5,-639.5 3104.5,-610.5 3360.5,-610.5 3360.5,-639.5"/>
<text text-anchor="middle" x="3232.5" y="-621.3" font-family="Times,serif" font-size="14.00">sort_phase_system&lt;AlphaMask3d&gt;</text>
</a>
</g>
</g>
<!-- schedule_bevy_render::render_phase::sort_phase_system&lt;bevy_core_pipeline::Opaque3d&gt;_1 -->
<g id="node44" class="node">
<title>schedule_bevy_render::render_phase::sort_phase_system&lt;bevy_core_pipeline::Opaque3d&gt;_1</title>
<g id="a_node44"><a xlink:title="ComponentsMut [RenderPhase&lt;Opaque3d&gt;]&#10;">
<polygon fill="#eff1f3" stroke="#eff1f3" points="3348.5,-606.5 3116.5,-606.5 3116.5,-577.5 3348.5,-577.5 3348.5,-606.5"/>
<text text-anchor="middle" x="3232.5" y="-588.3" font-family="Times,serif" font-size="14.00">sort_phase_system&lt;Opaque3d&gt;</text>
</a>
</g>
</g>
<!-- schedule_bevy_render::render_phase::sort_phase_system&lt;bevy_core_pipeline::Transparent2d&gt;_2 -->
<g id="node45" class="node">
<title>schedule_bevy_render::render_phase::sort_phase_system&lt;bevy_core_pipeline::Transparent2d&gt;_2</title>
<g id="a_node45"><a xlink:title="ComponentsMut [RenderPhase&lt;Transparent2d&gt;]&#10;">
<polygon fill="#eff1f3" stroke="#eff1f3" points="3365,-573.5 3100,-573.5 3100,-544.5 3365,-544.5 3365,-573.5"/>
<text text-anchor="middle" x="3232.5" y="-555.3" font-family="Times,serif" font-size="14.00">sort_phase_system&lt;Transparent2d&gt;</text>
</a>
</g>
</g>
<!-- schedule_bevy_render::render_phase::sort_phase_system&lt;bevy_core_pipeline::Transparent3d&gt;_3 -->
<g id="node46" class="node">
<title>schedule_bevy_render::render_phase::sort_phase_system&lt;bevy_core_pipeline::Transparent3d&gt;_3</title>
<g id="a_node46"><a xlink:title="ComponentsMut [RenderPhase&lt;Transparent3d&gt;]&#10;">
<polygon fill="#eff1f3" stroke="#eff1f3" points="3365,-540.5 3100,-540.5 3100,-511.5 3365,-511.5 3365,-540.5"/>
<text text-anchor="middle" x="3232.5" y="-522.3" font-family="Times,serif" font-size="14.00">sort_phase_system&lt;Transparent3d&gt;</text>
</a>
</g>
</g>
<!-- schedule_bevy_render::render_phase::sort_phase_system&lt;bevy_pbr::render::light::Shadow&gt;_4 -->
<g id="node47" class="node">
<title>schedule_bevy_render::render_phase::sort_phase_system&lt;bevy_pbr::render::light::Shadow&gt;_4</title>
<g id="a_node47"><a xlink:title="ComponentsMut [RenderPhase&lt;Shadow&gt;]&#10;">
<polygon fill="#eff1f3" stroke="#eff1f3" points="3340.5,-507.5 3124.5,-507.5 3124.5,-478.5 3340.5,-478.5 3340.5,-507.5"/>
<text text-anchor="middle" x="3232.5" y="-489.3" font-family="Times,serif" font-size="14.00">sort_phase_system&lt;Shadow&gt;</text>
</a>
</g>
</g>
<!-- schedule_bevy_render::render_phase::sort_phase_system&lt;bevy_ui::render::render_pass::TransparentUi&gt;_5 -->
<g id="node48" class="node">
<title>schedule_bevy_render::render_phase::sort_phase_system&lt;bevy_ui::render::render_pass::TransparentUi&gt;_5</title>
<g id="a_node48"><a xlink:title="ComponentsMut [RenderPhase&lt;TransparentUi&gt;]&#10;">
<polygon fill="#eff1f3" stroke="#eff1f3" points="3364.5,-474.5 3100.5,-474.5 3100.5,-445.5 3364.5,-445.5 3364.5,-474.5"/>
<text text-anchor="middle" x="3232.5" y="-456.3" font-family="Times,serif" font-size="14.00">sort_phase_system&lt;TransparentUi&gt;</text>
</a>
</g>
</g>
<!-- MARKER_schedule_Cleanup -->
<!-- MARKER_schedule_Render&#45;&gt;MARKER_schedule_Cleanup -->
<g id="edge9" class="edge">
<title>MARKER_schedule_Render&#45;&gt;MARKER_schedule_Cleanup</title>
<path fill="none" stroke="white" d="M3612.08,-658C3627.54,-658 3643.63,-658 3659.39,-658"/>
<polygon fill="white" stroke="white" points="3659.68,-661.5 3669.68,-658 3659.68,-654.5 3659.68,-661.5"/>
</g>
<!-- schedule_bevy_render::render_resource::pipeline_cache::RenderPipelineCache::process_pipeline_queue_system_0 -->
<g id="node50" class="node">
<title>schedule_bevy_render::render_resource::pipeline_cache::RenderPipelineCache::process_pipeline_queue_system_0</title>
<g id="a_node50"><a xlink:title="ResMut [RenderPipelineCache]&#10;">
<polygon fill="#eff1f3" stroke="#eff1f3" points="3628,-639.5 3401,-639.5 3401,-610.5 3628,-610.5 3628,-639.5"/>
<text text-anchor="middle" x="3514.5" y="-621.3" font-family="Times,serif" font-size="14.00">process_pipeline_queue_system</text>
</a>
</g>
</g>
<!-- schedule_bevy_render::renderer::render_system_0 -->
<g id="node51" class="node">
<title>schedule_bevy_render::renderer::render_system_0</title>
<g id="a_node51"><a xlink:title="render_system">
<polygon fill="#eff1f3" stroke="#eff1f3" points="3567.5,-606.5 3461.5,-606.5 3461.5,-577.5 3567.5,-577.5 3567.5,-606.5"/>
<text text-anchor="start" x="3461.5" y="-594.3" font-family="Times,serif" font-size="14.00">render_system</text>
<text text-anchor="start" x="3468" y="-582.7" font-family="Times,serif" font-size="11.00" fill="red">Exclusive at end</text>
</a>
</g>
</g>
<!-- schedule_bevy_render::texture::texture_cache::update_texture_cache_system_0 -->
<g id="node53" class="node">
<title>schedule_bevy_render::texture::texture_cache::update_texture_cache_system_0</title>
<g id="a_node53"><a xlink:title="ResMut [TextureCache]&#10;">
<polygon fill="#eff1f3" stroke="#eff1f3" points="3878,-639.5 3664,-639.5 3664,-610.5 3878,-610.5 3878,-639.5"/>
<text text-anchor="middle" x="3771" y="-621.3" font-family="Times,serif" font-size="14.00">update_texture_cache_system</text>
</a>
</g>
</g>
</g>
</svg>
