<?xml version="1.0" encoding="UTF-8" standalone="no"?>
<!DOCTYPE svg PUBLIC "-//W3C//DTD SVG 1.1//EN"
 "http://www.w3.org/Graphics/SVG/1.1/DTD/svg11.dtd">
<!-- Generated by graphviz version 2.43.0 (0)
 -->
<!-- Title: schedule Pages: 1 -->
<svg width="1734pt" height="393pt"
 viewBox="0.00 0.00 1734.00 393.00" xmlns="http://www.w3.org/2000/svg" xmlns:xlink="http://www.w3.org/1999/xlink">
<g id="graph0" class="graph" transform="scale(1 1) rotate(0) translate(4 389)">
<title>schedule</title>
<polygon fill="#35393f" stroke="transparent" points="-4,4 -4,-389 1730,-389 1730,4 -4,4"/>
<g id="clust1" class="cluster">
<title>cluster_Extract</title>
<path fill="#99aab5" stroke="#99aab5" d="M20,-8C20,-8 313,-8 313,-8 319,-8 325,-14 325,-20 325,-20 325,-365 325,-365 325,-371 319,-377 313,-377 313,-377 20,-377 20,-377 14,-377 8,-371 8,-365 8,-365 8,-20 8,-20 8,-14 14,-8 20,-8"/>
<text text-anchor="middle" x="166.5" y="-360.2" font-family="Helvetica,sans-Serif" font-size="16.00">Extract</text>
</g>
<g id="clust2" class="cluster">
<title>cluster_Prepare</title>
<path fill="#99aab5" stroke="#99aab5" d="M357,-8C357,-8 656,-8 656,-8 662,-8 668,-14 668,-20 668,-20 668,-365 668,-365 668,-371 662,-377 656,-377 656,-377 357,-377 357,-377 351,-377 345,-371 345,-365 345,-365 345,-20 345,-20 345,-14 351,-8 357,-8"/>
<text text-anchor="middle" x="506.5" y="-360.2" font-family="Helvetica,sans-Serif" font-size="16.00">Prepare</text>
</g>
<g id="clust3" class="cluster">
<title>cluster_Queue</title>
<path fill="#99aab5" stroke="#99aab5" d="M700,-239C700,-239 881,-239 881,-239 887,-239 893,-245 893,-251 893,-251 893,-365 893,-365 893,-371 887,-377 881,-377 881,-377 700,-377 700,-377 694,-377 688,-371 688,-365 688,-365 688,-251 688,-251 688,-245 694,-239 700,-239"/>
<text text-anchor="middle" x="790.5" y="-360.2" font-family="Helvetica,sans-Serif" font-size="16.00">Queue</text>
</g>
<g id="clust4" class="cluster">
<title>cluster_PhaseSort</title>
<path fill="#99aab5" stroke="#99aab5" d="M925,-206C925,-206 1225,-206 1225,-206 1231,-206 1237,-212 1237,-218 1237,-218 1237,-365 1237,-365 1237,-371 1231,-377 1225,-377 1225,-377 925,-377 925,-377 919,-377 913,-371 913,-365 913,-365 913,-218 913,-218 913,-212 919,-206 925,-206"/>
<text text-anchor="middle" x="1075" y="-360.2" font-family="Helvetica,sans-Serif" font-size="16.00">PhaseSort</text>
</g>
<g id="clust5" class="cluster">
<title>cluster_Render</title>
<path fill="#99aab5" stroke="#99aab5" d="M1269,-272C1269,-272 1456,-272 1456,-272 1462,-272 1468,-278 1468,-284 1468,-284 1468,-365 1468,-365 1468,-371 1462,-377 1456,-377 1456,-377 1269,-377 1269,-377 1263,-377 1257,-371 1257,-365 1257,-365 1257,-284 1257,-284 1257,-278 1263,-272 1269,-272"/>
<text text-anchor="middle" x="1362.5" y="-360.2" font-family="Helvetica,sans-Serif" font-size="16.00">Render</text>
</g>
<g id="clust6" class="cluster">
<title>cluster_Cleanup</title>
<path fill="#99aab5" stroke="#99aab5" d="M1500,-272C1500,-272 1706,-272 1706,-272 1712,-272 1718,-278 1718,-284 1718,-284 1718,-365 1718,-365 1718,-371 1712,-377 1706,-377 1706,-377 1500,-377 1500,-377 1494,-377 1488,-371 1488,-365 1488,-365 1488,-284 1488,-284 1488,-278 1494,-272 1500,-272"/>
<text text-anchor="middle" x="1603" y="-360.2" font-family="Helvetica,sans-Serif" font-size="16.00">Cleanup</text>
</g>
<!-- MARKER_schedule_Extract -->
<!-- MARKER_schedule_Prepare -->
<!-- MARKER_schedule_Extract&#45;&gt;MARKER_schedule_Prepare -->
<g id="edge1" class="edge">
<title>MARKER_schedule_Extract&#45;&gt;MARKER_schedule_Prepare</title>
<path fill="none" stroke="white" d="M264.81,-328C305.89,-328 353.9,-328 396.18,-328"/>
<polygon fill="white" stroke="white" points="396.24,-331.5 406.24,-328 396.24,-324.5 396.24,-331.5"/>
</g>
<!-- schedule_&amp;bevy_render2::view::window::extract_windows_0 -->
<g id="node2" class="node">
<title>schedule_&amp;bevy_render2::view::window::extract_windows_0</title>
<polygon fill="#eff1f3" stroke="#eff1f3" points="227,-309.5 106,-309.5 106,-280.5 227,-280.5 227,-309.5"/>
<text text-anchor="middle" x="166.5" y="-291.3" font-family="Times,serif" font-size="14.00">extract_windows</text>
</g>
<!-- schedule_&amp;bevy_render2::camera::extract_cameras_1 -->
<g id="node3" class="node">
<title>schedule_&amp;bevy_render2::camera::extract_cameras_1</title>
<polygon fill="#eff1f3" stroke="#eff1f3" points="225.5,-276.5 107.5,-276.5 107.5,-247.5 225.5,-247.5 225.5,-276.5"/>
<text text-anchor="middle" x="166.5" y="-258.3" font-family="Times,serif" font-size="14.00">extract_cameras</text>
</g>
<!-- schedule_&amp;bevy_render2::render_asset::extract_render_asset&lt;bevy_render2::mesh::mesh::Mesh&gt;_2 -->
<g id="node4" class="node">
<title>schedule_&amp;bevy_render2::render_asset::extract_render_asset&lt;bevy_render2::mesh::mesh::Mesh&gt;_2</title>
<polygon fill="#eff1f3" stroke="#eff1f3" points="273.5,-243.5 59.5,-243.5 59.5,-214.5 273.5,-214.5 273.5,-243.5"/>
<text text-anchor="middle" x="166.5" y="-225.3" font-family="Times,serif" font-size="14.00">extract_render_asset&lt;Mesh&gt;</text>
</g>
<!-- schedule_&amp;bevy_render2::render_asset::extract_render_asset&lt;bevy_render2::texture::image::Image&gt;_3 -->
<g id="node5" class="node">
<title>schedule_&amp;bevy_render2::render_asset::extract_render_asset&lt;bevy_render2::texture::image::Image&gt;_3</title>
<polygon fill="#eff1f3" stroke="#eff1f3" points="276,-210.5 57,-210.5 57,-181.5 276,-181.5 276,-210.5"/>
<text text-anchor="middle" x="166.5" y="-192.3" font-family="Times,serif" font-size="14.00">extract_render_asset&lt;Image&gt;</text>
</g>
<!-- schedule_&amp;bevy_render2::core_pipeline::extract_core_pipeline_camera_phases_4 -->
<g id="node6" class="node">
<title>schedule_&amp;bevy_render2::core_pipeline::extract_core_pipeline_camera_phases_4</title>
<polygon fill="#eff1f3" stroke="#eff1f3" points="300.5,-177.5 32.5,-177.5 32.5,-148.5 300.5,-148.5 300.5,-177.5"/>
<text text-anchor="middle" x="166.5" y="-159.3" font-family="Times,serif" font-size="14.00">extract_core_pipeline_camera_phases</text>
</g>
<!-- schedule_&amp;bevy_sprite2::render::extract_sprites_5 -->
<g id="node7" class="node">
<title>schedule_&amp;bevy_sprite2::render::extract_sprites_5</title>
<polygon fill="#eff1f3" stroke="#eff1f3" points="220.5,-144.5 112.5,-144.5 112.5,-115.5 220.5,-115.5 220.5,-144.5"/>
<text text-anchor="middle" x="166.5" y="-126.3" font-family="Times,serif" font-size="14.00">extract_sprites</text>
</g>
<!-- schedule_&amp;bevy_render2::render_asset::extract_render_asset&lt;bevy_pbr2::material::StandardMaterial&gt;_6 -->
<g id="node8" class="node">
<title>schedule_&amp;bevy_render2::render_asset::extract_render_asset&lt;bevy_pbr2::material::StandardMaterial&gt;_6</title>
<polygon fill="#eff1f3" stroke="#eff1f3" points="317,-111.5 16,-111.5 16,-82.5 317,-82.5 317,-111.5"/>
<text text-anchor="middle" x="166.5" y="-93.3" font-family="Times,serif" font-size="14.00">extract_render_asset&lt;StandardMaterial&gt;</text>
</g>
<!-- schedule_&amp;bevy_pbr2::render::extract_meshes_7 -->
<g id="node9" class="node">
<title>schedule_&amp;bevy_pbr2::render::extract_meshes_7</title>
<polygon fill="#eff1f3" stroke="#eff1f3" points="222.5,-78.5 110.5,-78.5 110.5,-49.5 222.5,-49.5 222.5,-78.5"/>
<text text-anchor="middle" x="166.5" y="-60.3" font-family="Times,serif" font-size="14.00">extract_meshes</text>
</g>
<!-- schedule_&amp;bevy_pbr2::render::light::extract_lights_8 -->
<g id="node10" class="node">
<title>schedule_&amp;bevy_pbr2::render::light::extract_lights_8</title>
<polygon fill="#eff1f3" stroke="#eff1f3" points="216,-45.5 117,-45.5 117,-16.5 216,-16.5 216,-45.5"/>
<text text-anchor="middle" x="166.5" y="-27.3" font-family="Times,serif" font-size="14.00">extract_lights</text>
</g>
<!-- MARKER_schedule_Queue -->
<!-- MARKER_schedule_Prepare&#45;&gt;MARKER_schedule_Queue -->
<g id="edge2" class="edge">
<title>MARKER_schedule_Prepare&#45;&gt;MARKER_schedule_Queue</title>
<path fill="none" stroke="white" d="M606.53,-328C632.17,-328 659.84,-328 685.72,-328"/>
<polygon fill="white" stroke="white" points="685.92,-331.5 695.92,-328 685.92,-324.5 685.92,-331.5"/>
</g>
<!-- schedule_&amp;bevy_pbr2::render::light::prepare_lights_0 -->
<g id="node12" class="node">
<title>schedule_&amp;bevy_pbr2::render::light::prepare_lights_0</title>
<polygon fill="#eff1f3" stroke="#eff1f3" points="558.5,-309.5 454.5,-309.5 454.5,-280.5 558.5,-280.5 558.5,-309.5"/>
<text text-anchor="start" x="454.5" y="-297.3" font-family="Times,serif" font-size="14.00">prepare_lights</text>
<text text-anchor="start" x="456.5" y="-285.7" font-family="Times,serif" font-size="11.00" fill="red">Exclusive at start</text>
</g>
<!-- schedule_&amp;bevy_render2::view::window::prepare_windows_0 -->
<g id="node13" class="node">
<title>schedule_&amp;bevy_render2::view::window::prepare_windows_0</title>
<polygon fill="#eff1f3" stroke="#eff1f3" points="569.5,-276.5 443.5,-276.5 443.5,-247.5 569.5,-247.5 569.5,-276.5"/>
<text text-anchor="middle" x="506.5" y="-258.3" font-family="Times,serif" font-size="14.00">prepare_windows</text>
</g>
<!-- schedule_&amp;bevy_render2::view::prepare_views_1 -->
<g id="node14" class="node">
<title>schedule_&amp;bevy_render2::view::prepare_views_1</title>
<polygon fill="#eff1f3" stroke="#eff1f3" points="558.5,-243.5 454.5,-243.5 454.5,-214.5 558.5,-214.5 558.5,-243.5"/>
<text text-anchor="middle" x="506.5" y="-225.3" font-family="Times,serif" font-size="14.00">prepare_views</text>
</g>
<!-- schedule_&amp;bevy_render2::render_asset::prepare_render_asset&lt;bevy_render2::mesh::mesh::Mesh&gt;_2 -->
<g id="node15" class="node">
<title>schedule_&amp;bevy_render2::render_asset::prepare_render_asset&lt;bevy_render2::mesh::mesh::Mesh&gt;_2</title>
<polygon fill="#eff1f3" stroke="#eff1f3" points="616,-210.5 397,-210.5 397,-181.5 616,-181.5 616,-210.5"/>
<text text-anchor="middle" x="506.5" y="-192.3" font-family="Times,serif" font-size="14.00">prepare_render_asset&lt;Mesh&gt;</text>
</g>
<!-- schedule_&amp;bevy_render2::render_asset::prepare_render_asset&lt;bevy_render2::texture::image::Image&gt;_3 -->
<g id="node16" class="node">
<title>schedule_&amp;bevy_render2::render_asset::prepare_render_asset&lt;bevy_render2::texture::image::Image&gt;_3</title>
<polygon fill="#eff1f3" stroke="#eff1f3" points="618.5,-177.5 394.5,-177.5 394.5,-148.5 618.5,-148.5 618.5,-177.5"/>
<text text-anchor="middle" x="506.5" y="-159.3" font-family="Times,serif" font-size="14.00">prepare_render_asset&lt;Image&gt;</text>
</g>
<!-- schedule_&amp;bevy_render2::core_pipeline::prepare_core_views_system_4 -->
<g id="node17" class="node">
<title>schedule_&amp;bevy_render2::core_pipeline::prepare_core_views_system_4</title>
<polygon fill="#eff1f3" stroke="#eff1f3" points="606,-144.5 407,-144.5 407,-115.5 606,-115.5 606,-144.5"/>
<text text-anchor="middle" x="506.5" y="-126.3" font-family="Times,serif" font-size="14.00">prepare_core_views_system</text>
</g>
<!-- schedule_&amp;bevy_sprite2::render::prepare_sprites_5 -->
<g id="node18" class="node">
<title>schedule_&amp;bevy_sprite2::render::prepare_sprites_5</title>
<polygon fill="#eff1f3" stroke="#eff1f3" points="563,-111.5 450,-111.5 450,-82.5 563,-82.5 563,-111.5"/>
<text text-anchor="middle" x="506.5" y="-93.3" font-family="Times,serif" font-size="14.00">prepare_sprites</text>
</g>
<!-- schedule_&amp;bevy_render2::render_asset::prepare_render_asset&lt;bevy_pbr2::material::StandardMaterial&gt;_6 -->
<g id="node19" class="node">
<title>schedule_&amp;bevy_render2::render_asset::prepare_render_asset&lt;bevy_pbr2::material::StandardMaterial&gt;_6</title>
<polygon fill="#eff1f3" stroke="#eff1f3" points="660,-78.5 353,-78.5 353,-49.5 660,-49.5 660,-78.5"/>
<text text-anchor="middle" x="506.5" y="-60.3" font-family="Times,serif" font-size="14.00">prepare_render_asset&lt;StandardMaterial&gt;</text>
</g>
<!-- schedule_&amp;bevy_pbr2::render::prepare_meshes_7 -->
<g id="node20" class="node">
<title>schedule_&amp;bevy_pbr2::render::prepare_meshes_7</title>
<polygon fill="#eff1f3" stroke="#eff1f3" points="565.5,-45.5 447.5,-45.5 447.5,-16.5 565.5,-16.5 565.5,-45.5"/>
<text text-anchor="middle" x="506.5" y="-27.3" font-family="Times,serif" font-size="14.00">prepare_meshes</text>
</g>
<!-- MARKER_schedule_PhaseSort -->
<!-- MARKER_schedule_Queue&#45;&gt;MARKER_schedule_PhaseSort -->
<g id="edge3" class="edge">
<title>MARKER_schedule_Queue&#45;&gt;MARKER_schedule_PhaseSort</title>
<path fill="none" stroke="white" d="M885.18,-328C907.94,-328 932.58,-328 956.3,-328"/>
<polygon fill="white" stroke="white" points="956.4,-331.5 966.4,-328 956.4,-324.5 956.4,-331.5"/>
</g>
<!-- schedule_&amp;bevy_sprite2::render::queue_sprites_0 -->
<g id="node22" class="node">
<title>schedule_&amp;bevy_sprite2::render::queue_sprites_0</title>
<polygon fill="#eff1f3" stroke="#eff1f3" points="840.5,-309.5 740.5,-309.5 740.5,-280.5 840.5,-280.5 840.5,-309.5"/>
<text text-anchor="middle" x="790.5" y="-291.3" font-family="Times,serif" font-size="14.00">queue_sprites</text>
</g>
<!-- schedule_&amp;bevy_pbr2::render::queue_meshes_1 -->
<g id="node23" class="node">
<title>schedule_&amp;bevy_pbr2::render::queue_meshes_1</title>
<polygon fill="#eff1f3" stroke="#eff1f3" points="843,-276.5 738,-276.5 738,-247.5 843,-247.5 843,-276.5"/>
<text text-anchor="middle" x="790.5" y="-258.3" font-family="Times,serif" font-size="14.00">queue_meshes</text>
</g>
<!-- MARKER_schedule_Render -->
<!-- MARKER_schedule_PhaseSort&#45;&gt;MARKER_schedule_Render -->
<g id="edge4" class="edge">
<title>MARKER_schedule_PhaseSort&#45;&gt;MARKER_schedule_Render</title>
<path fill="none" stroke="white" d="M1183.53,-328C1206.8,-328 1231.4,-328 1254.64,-328"/>
<polygon fill="white" stroke="white" points="1254.87,-331.5 1264.87,-328 1254.87,-324.5 1254.87,-331.5"/>
</g>
<!-- schedule_&amp;bevy_render2::render_phase::sort_phase_system&lt;bevy_render2::core_pipeline::Transparent2dPhase&gt;_0 -->
<g id="node25" class="node">
<title>schedule_&amp;bevy_render2::render_phase::sort_phase_system&lt;bevy_render2::core_pipeline::Transparent2dPhase&gt;_0</title>
<polygon fill="#eff1f3" stroke="#eff1f3" points="1229,-309.5 921,-309.5 921,-280.5 1229,-280.5 1229,-309.5"/>
<text text-anchor="middle" x="1075" y="-291.3" font-family="Times,serif" font-size="14.00">sort_phase_system&lt;Transparent2dPhase&gt;</text>
</g>
<!-- schedule_&amp;bevy_render2::render_phase::sort_phase_system&lt;bevy_render2::core_pipeline::Transparent3dPhase&gt;_1 -->
<g id="node26" class="node">
<title>schedule_&amp;bevy_render2::render_phase::sort_phase_system&lt;bevy_render2::core_pipeline::Transparent3dPhase&gt;_1</title>
<polygon fill="#eff1f3" stroke="#eff1f3" points="1229,-276.5 921,-276.5 921,-247.5 1229,-247.5 1229,-276.5"/>
<text text-anchor="middle" x="1075" y="-258.3" font-family="Times,serif" font-size="14.00">sort_phase_system&lt;Transparent3dPhase&gt;</text>
</g>
<!-- schedule_&amp;bevy_render2::render_phase::sort_phase_system&lt;bevy_pbr2::render::light::ShadowPhase&gt;_2 -->
<g id="node27" class="node">
<title>schedule_&amp;bevy_render2::render_phase::sort_phase_system&lt;bevy_pbr2::render::light::ShadowPhase&gt;_2</title>
<polygon fill="#eff1f3" stroke="#eff1f3" points="1204.5,-243.5 945.5,-243.5 945.5,-214.5 1204.5,-214.5 1204.5,-243.5"/>
<text text-anchor="middle" x="1075" y="-225.3" font-family="Times,serif" font-size="14.00">sort_phase_system&lt;ShadowPhase&gt;</text>
</g>
<!-- MARKER_schedule_Cleanup -->
<!-- MARKER_schedule_Render&#45;&gt;MARKER_schedule_Cleanup -->
<g id="edge5" class="edge">
<title>MARKER_schedule_Render&#45;&gt;MARKER_schedule_Cleanup</title>
<path fill="none" stroke="white" d="M1460.16,-328C1470.54,-328 1481.14,-328 1491.66,-328"/>
<polygon fill="white" stroke="white" points="1491.7,-331.5 1501.7,-328 1491.7,-324.5 1491.7,-331.5"/>
</g>
<!-- schedule_bevy_render2::renderer::render_system_0 -->
<g id="node29" class="node">
<title>schedule_bevy_render2::renderer::render_system_0</title>
<polygon fill="#eff1f3" stroke="#eff1f3" points="1415.5,-309.5 1309.5,-309.5 1309.5,-280.5 1415.5,-280.5 1415.5,-309.5"/>
<text text-anchor="start" x="1309.5" y="-297.3" font-family="Times,serif" font-size="14.00">render_system</text>
<text text-anchor="start" x="1312.5" y="-285.7" font-family="Times,serif" font-size="11.00" fill="red">Exclusive at start</text>
</g>
<!-- schedule_&amp;bevy_render2::texture::texture_cache::update_texture_cache_system_0 -->
<g id="node31" class="node">
<title>schedule_&amp;bevy_render2::texture::texture_cache::update_texture_cache_system_0</title>
<polygon fill="#eff1f3" stroke="#eff1f3" points="1710,-309.5 1496,-309.5 1496,-280.5 1710,-280.5 1710,-309.5"/>
<text text-anchor="middle" x="1603" y="-291.3" font-family="Times,serif" font-size="14.00">update_texture_cache_system</text>
</g>
</g>
</svg>
