<?xml version="1.0" encoding="UTF-8" standalone="no"?>
<!DOCTYPE svg PUBLIC "-//W3C//DTD SVG 1.1//EN"
 "http://www.w3.org/Graphics/SVG/1.1/DTD/svg11.dtd">
<!-- Generated by graphviz version 2.43.0 (0)
 -->
<!-- Title: RenderGraph Pages: 1 -->
<svg width="854pt" height="817pt"
 viewBox="0.00 0.00 854.00 816.50" xmlns="http://www.w3.org/2000/svg" xmlns:xlink="http://www.w3.org/1999/xlink">
<g id="graph0" class="graph" transform="scale(1 1) rotate(0) translate(4 812.5)">
<title>RenderGraph</title>
<polygon fill="white" stroke="transparent" points="-4,4 -4,-812.5 850,-812.5 850,4 -4,4"/>
<!-- 265936753513902348036086669870110109292 -->
<g id="node1" class="node">
<title>265936753513902348036086669870110109292</title>
<text text-anchor="start" x="112.5" y="-309.3" font-family="Helvetica,sans-Serif" font-size="14.00">lights</text>
<text text-anchor="start" x="104.5" y="-298.5" font-family="Helvetica,sans-Serif" font-size="10.00" fill="red">LightsNode</text>
<path fill="none" stroke="black" d="M110.33,-290.5C110.33,-290.5 153.67,-290.5 153.67,-290.5 159.33,-290.5 165,-296.17 165,-301.83 165,-301.83 165,-313.17 165,-313.17 165,-318.83 159.33,-324.5 153.67,-324.5 153.67,-324.5 110.33,-324.5 110.33,-324.5 104.67,-324.5 99,-318.83 99,-313.17 99,-313.17 99,-301.83 99,-301.83 99,-296.17 104.67,-290.5 110.33,-290.5"/>
</g>
<!-- 271877769172038242135881604340992218866 -->
<g id="node5" class="node">
<title>271877769172038242135881604340992218866</title>
<text text-anchor="start" x="409" y="-309.3" font-family="Helvetica,sans-Serif" font-size="14.00">main_pass</text>
<text text-anchor="start" x="391" y="-298.5" font-family="Helvetica,sans-Serif" font-size="10.00" fill="red">PassNode&lt;MainPass&gt;</text>
<polygon fill="none" stroke="black" points="347.5,-270.5 347.5,-291.5 533.5,-291.5 533.5,-270.5 347.5,-270.5"/>
<text text-anchor="start" x="350.5" y="-277.3" font-family="Helvetica,sans-Serif" font-size="14.00">color_attachment: Texture</text>
<text text-anchor="start" x="537.5" y="-277.3" font-family="Helvetica,sans-Serif" font-size="14.00"> </text>
<polygon fill="none" stroke="black" points="347.5,-247.5 347.5,-268.5 533.5,-268.5 533.5,-247.5 347.5,-247.5"/>
<text text-anchor="start" x="390.5" y="-254.3" font-family="Helvetica,sans-Serif" font-size="14.00">depth: Texture</text>
<text text-anchor="start" x="537.5" y="-254.3" font-family="Helvetica,sans-Serif" font-size="14.00"> </text>
<path fill="none" stroke="black" d="M356,-244.5C356,-244.5 535,-244.5 535,-244.5 541,-244.5 547,-250.5 547,-256.5 547,-256.5 547,-312.5 547,-312.5 547,-318.5 541,-324.5 535,-324.5 535,-324.5 356,-324.5 356,-324.5 350,-324.5 344,-318.5 344,-312.5 344,-312.5 344,-256.5 344,-256.5 344,-250.5 350,-244.5 356,-244.5"/>
</g>
<!-- 265936753513902348036086669870110109292&#45;&gt;271877769172038242135881604340992218866 -->
<g id="edge16" class="edge">
<title>265936753513902348036086669870110109292:e&#45;&gt;271877769172038242135881604340992218866:w</title>
<path fill="none" stroke="black" d="M163,-307.5C241.05,-307.5 263.08,-307.5 336.32,-307.5"/>
<polygon fill="black" stroke="black" points="336.5,-311 346.5,-307.5 336.5,-304 336.5,-311"/>
</g>
<!-- 37366998502043313480843166224152695200 -->
<g id="node2" class="node">
<title>37366998502043313480843166224152695200</title>
<text text-anchor="start" x="93.5" y="-249.3" font-family="Helvetica,sans-Serif" font-size="14.00">camera_3d</text>
<text text-anchor="start" x="100" y="-238.5" font-family="Helvetica,sans-Serif" font-size="10.00" fill="red">CameraNode</text>
<path fill="none" stroke="black" d="M99.33,-230.5C99.33,-230.5 164.67,-230.5 164.67,-230.5 170.33,-230.5 176,-236.17 176,-241.83 176,-241.83 176,-253.17 176,-253.17 176,-258.83 170.33,-264.5 164.67,-264.5 164.67,-264.5 99.33,-264.5 99.33,-264.5 93.67,-264.5 88,-258.83 88,-253.17 88,-253.17 88,-241.83 88,-241.83 88,-236.17 93.67,-230.5 99.33,-230.5"/>
</g>
<!-- 37366998502043313480843166224152695200&#45;&gt;271877769172038242135881604340992218866 -->
<g id="edge8" class="edge">
<title>37366998502043313480843166224152695200:e&#45;&gt;271877769172038242135881604340992218866:w</title>
<path fill="none" stroke="black" d="M174,-247.5C216.16,-247.5 224.18,-263.63 264,-277.5 297.39,-289.13 305.97,-304.32 336.33,-307.07"/>
<polygon fill="black" stroke="black" points="336.36,-310.57 346.5,-307.5 336.66,-303.58 336.36,-310.57"/>
</g>
<!-- 47457717973222845315134543064631149042 -->
<g id="node3" class="node">
<title>47457717973222845315134543064631149042</title>
<text text-anchor="start" x="93.5" y="-189.3" font-family="Helvetica,sans-Serif" font-size="14.00">camera_2d</text>
<text text-anchor="start" x="100" y="-178.5" font-family="Helvetica,sans-Serif" font-size="10.00" fill="red">CameraNode</text>
<path fill="none" stroke="black" d="M99.33,-170.5C99.33,-170.5 164.67,-170.5 164.67,-170.5 170.33,-170.5 176,-176.17 176,-181.83 176,-181.83 176,-193.17 176,-193.17 176,-198.83 170.33,-204.5 164.67,-204.5 164.67,-204.5 99.33,-204.5 99.33,-204.5 93.67,-204.5 88,-198.83 88,-193.17 88,-193.17 88,-181.83 88,-181.83 88,-176.17 93.67,-170.5 99.33,-170.5"/>
</g>
<!-- 47457717973222845315134543064631149042&#45;&gt;271877769172038242135881604340992218866 -->
<g id="edge9" class="edge">
<title>47457717973222845315134543064631149042:e&#45;&gt;271877769172038242135881604340992218866:w</title>
<path fill="none" stroke="black" d="M174,-187.5C216.16,-187.5 228.62,-194.56 264,-217.5 306.42,-245.01 294.31,-299.38 336.33,-306.68"/>
<polygon fill="black" stroke="black" points="336.25,-310.19 346.5,-307.5 336.81,-303.21 336.25,-310.19"/>
</g>
<!-- 213737101282232123225478924845563215321 -->
<g id="node4" class="node">
<title>213737101282232123225478924845563215321</title>
<text text-anchor="start" x="409.5" y="-369.3" font-family="Helvetica,sans-Serif" font-size="14.00">camera_ui</text>
<text text-anchor="start" x="413.5" y="-358.5" font-family="Helvetica,sans-Serif" font-size="10.00" fill="red">CameraNode</text>
<path fill="none" stroke="black" d="M415.83,-350.5C415.83,-350.5 475.17,-350.5 475.17,-350.5 480.83,-350.5 486.5,-356.17 486.5,-361.83 486.5,-361.83 486.5,-373.17 486.5,-373.17 486.5,-378.83 480.83,-384.5 475.17,-384.5 475.17,-384.5 415.83,-384.5 415.83,-384.5 410.17,-384.5 404.5,-378.83 404.5,-373.17 404.5,-373.17 404.5,-361.83 404.5,-361.83 404.5,-356.17 410.17,-350.5 415.83,-350.5"/>
</g>
<!-- 336181887572678505758837704266020640702 -->
<g id="node6" class="node">
<title>336181887572678505758837704266020640702</title>
<text text-anchor="start" x="711" y="-189.3" font-family="Helvetica,sans-Serif" font-size="14.00">ui_pass</text>
<text text-anchor="start" x="692" y="-178.5" font-family="Helvetica,sans-Serif" font-size="10.00" fill="red">PassNode&lt;Node&gt;</text>
<polygon fill="none" stroke="black" points="638.5,-150.5 638.5,-171.5 824.5,-171.5 824.5,-150.5 638.5,-150.5"/>
<text text-anchor="start" x="641.5" y="-157.3" font-family="Helvetica,sans-Serif" font-size="14.00">color_attachment: Texture</text>
<text text-anchor="start" x="828.5" y="-157.3" font-family="Helvetica,sans-Serif" font-size="14.00"> </text>
<polygon fill="none" stroke="black" points="638.5,-127.5 638.5,-148.5 824.5,-148.5 824.5,-127.5 638.5,-127.5"/>
<text text-anchor="start" x="681.5" y="-134.3" font-family="Helvetica,sans-Serif" font-size="14.00">depth: Texture</text>
<text text-anchor="start" x="828.5" y="-134.3" font-family="Helvetica,sans-Serif" font-size="14.00"> </text>
<path fill="none" stroke="black" d="M647,-124.5C647,-124.5 826,-124.5 826,-124.5 832,-124.5 838,-130.5 838,-136.5 838,-136.5 838,-192.5 838,-192.5 838,-198.5 832,-204.5 826,-204.5 826,-204.5 647,-204.5 647,-204.5 641,-204.5 635,-198.5 635,-192.5 635,-192.5 635,-136.5 635,-136.5 635,-130.5 641,-124.5 647,-124.5"/>
</g>
<!-- 213737101282232123225478924845563215321&#45;&gt;336181887572678505758837704266020640702 -->
<g id="edge4" class="edge">
<title>213737101282232123225478924845563215321:e&#45;&gt;336181887572678505758837704266020640702:w</title>
<path fill="none" stroke="black" d="M484.5,-367.5C518.55,-367.5 529.74,-360.34 555,-337.5 608.68,-288.96 566.05,-197.05 627.23,-188.19"/>
<polygon fill="black" stroke="black" points="627.76,-191.66 637.5,-187.5 627.29,-184.68 627.76,-191.66"/>
</g>
<!-- 271877769172038242135881604340992218866&#45;&gt;336181887572678505758837704266020640702 -->
<g id="edge3" class="edge">
<title>271877769172038242135881604340992218866:e&#45;&gt;336181887572678505758837704266020640702:w</title>
<path fill="none" stroke="black" d="M545.5,-307.5C609.03,-307.5 574.61,-200.27 627.42,-188.54"/>
<polygon fill="black" stroke="black" points="627.91,-192.01 637.5,-187.5 627.19,-185.04 627.91,-192.01"/>
</g>
<!-- 97868024445265352831905491418452400994 -->
<g id="node7" class="node">
<title>97868024445265352831905491418452400994</title>
<text text-anchor="start" x="69" y="-669.3" font-family="Helvetica,sans-Serif" font-size="14.00">standard_material</text>
<text text-anchor="start" x="13" y="-658.5" font-family="Helvetica,sans-Serif" font-size="10.00" fill="red">AssetRenderResourcesNode&lt;StandardMaterial&gt;</text>
<path fill="none" stroke="black" d="M19.33,-650.5C19.33,-650.5 244.67,-650.5 244.67,-650.5 250.33,-650.5 256,-656.17 256,-661.83 256,-661.83 256,-673.17 256,-673.17 256,-678.83 250.33,-684.5 244.67,-684.5 244.67,-684.5 19.33,-684.5 19.33,-684.5 13.67,-684.5 8,-678.83 8,-673.17 8,-673.17 8,-661.83 8,-661.83 8,-656.17 13.67,-650.5 19.33,-650.5"/>
</g>
<!-- 97868024445265352831905491418452400994&#45;&gt;271877769172038242135881604340992218866 -->
<g id="edge14" class="edge">
<title>97868024445265352831905491418452400994:e&#45;&gt;271877769172038242135881604340992218866:w</title>
<path fill="none" stroke="black" d="M254,-667.5C415.65,-667.5 191.34,-322.8 336.4,-307.99"/>
<polygon fill="black" stroke="black" points="336.68,-311.48 346.5,-307.5 336.34,-304.49 336.68,-311.48"/>
</g>
<!-- 83976075202154488205588250149365926025 -->
<g id="node8" class="node">
<title>83976075202154488205588250149365926025</title>
<text text-anchor="start" x="83" y="-609.3" font-family="Helvetica,sans-Serif" font-size="14.00">color_material</text>
<text text-anchor="start" x="22" y="-598.5" font-family="Helvetica,sans-Serif" font-size="10.00" fill="red">AssetRenderResourcesNode&lt;ColorMaterial&gt;</text>
<path fill="none" stroke="black" d="M28.33,-590.5C28.33,-590.5 235.67,-590.5 235.67,-590.5 241.33,-590.5 247,-596.17 247,-601.83 247,-601.83 247,-613.17 247,-613.17 247,-618.83 241.33,-624.5 235.67,-624.5 235.67,-624.5 28.33,-624.5 28.33,-624.5 22.67,-624.5 17,-618.83 17,-613.17 17,-613.17 17,-601.83 17,-601.83 17,-596.17 22.67,-590.5 28.33,-590.5"/>
</g>
<!-- 83976075202154488205588250149365926025&#45;&gt;271877769172038242135881604340992218866 -->
<g id="edge12" class="edge">
<title>83976075202154488205588250149365926025:e&#45;&gt;271877769172038242135881604340992218866:w</title>
<path fill="none" stroke="black" d="M245,-607.5C382.18,-607.5 214.68,-322.54 336.39,-308.07"/>
<polygon fill="black" stroke="black" points="336.71,-311.56 346.5,-307.5 336.32,-304.57 336.71,-311.56"/>
</g>
<!-- 256326626497078168660012382161720869884 -->
<g id="node9" class="node">
<title>256326626497078168660012382161720869884</title>
<text text-anchor="start" x="89.5" y="-729.3" font-family="Helvetica,sans-Serif" font-size="14.00">sprite_sheet</text>
<text text-anchor="start" x="24.5" y="-718.5" font-family="Helvetica,sans-Serif" font-size="10.00" fill="red">AssetRenderResourcesNode&lt;TextureAtlas&gt;</text>
<path fill="none" stroke="black" d="M30.33,-710.5C30.33,-710.5 233.67,-710.5 233.67,-710.5 239.33,-710.5 245,-716.17 245,-721.83 245,-721.83 245,-733.17 245,-733.17 245,-738.83 239.33,-744.5 233.67,-744.5 233.67,-744.5 30.33,-744.5 30.33,-744.5 24.67,-744.5 19,-738.83 19,-733.17 19,-733.17 19,-721.83 19,-721.83 19,-716.17 24.67,-710.5 30.33,-710.5"/>
</g>
<!-- 3535172406443218668653267736940312125 -->
<g id="node10" class="node">
<title>3535172406443218668653267736940312125</title>
<text text-anchor="start" x="112" y="-549.3" font-family="Helvetica,sans-Serif" font-size="14.00">sprite</text>
<text text-anchor="start" x="54" y="-538.5" font-family="Helvetica,sans-Serif" font-size="10.00" fill="red">RenderResourcesNode&lt;Sprite&gt;</text>
<path fill="none" stroke="black" d="M60.33,-530.5C60.33,-530.5 203.67,-530.5 203.67,-530.5 209.33,-530.5 215,-536.17 215,-541.83 215,-541.83 215,-553.17 215,-553.17 215,-558.83 209.33,-564.5 203.67,-564.5 203.67,-564.5 60.33,-564.5 60.33,-564.5 54.67,-564.5 49,-558.83 49,-553.17 49,-553.17 49,-541.83 49,-541.83 49,-536.17 54.67,-530.5 60.33,-530.5"/>
</g>
<!-- 3535172406443218668653267736940312125&#45;&gt;271877769172038242135881604340992218866 -->
<g id="edge13" class="edge">
<title>3535172406443218668653267736940312125:e&#45;&gt;271877769172038242135881604340992218866:w</title>
<path fill="none" stroke="black" d="M213,-547.5C331.48,-547.5 230.72,-321.36 336.36,-308.11"/>
<polygon fill="black" stroke="black" points="336.73,-311.59 346.5,-307.5 336.31,-304.6 336.73,-311.59"/>
</g>
<!-- 142619283160188288040121746083795114147 -->
<g id="node11" class="node">
<title>142619283160188288040121746083795114147</title>
<text text-anchor="start" x="66" y="-789.3" font-family="Helvetica,sans-Serif" font-size="14.00">sprite_sheet_sprite</text>
<text text-anchor="start" x="23.5" y="-778.5" font-family="Helvetica,sans-Serif" font-size="10.00" fill="red">RenderResourcesNode&lt;TextureAtlasSprite&gt;</text>
<path fill="none" stroke="black" d="M29.33,-770.5C29.33,-770.5 234.67,-770.5 234.67,-770.5 240.33,-770.5 246,-776.17 246,-781.83 246,-781.83 246,-793.17 246,-793.17 246,-798.83 240.33,-804.5 234.67,-804.5 234.67,-804.5 29.33,-804.5 29.33,-804.5 23.67,-804.5 18,-798.83 18,-793.17 18,-793.17 18,-781.83 18,-781.83 18,-776.17 23.67,-770.5 29.33,-770.5"/>
</g>
<!-- 206184529154872802894492633864120005969 -->
<g id="node12" class="node">
<title>206184529154872802894492633864120005969</title>
<text text-anchor="start" x="97.5" y="-489.3" font-family="Helvetica,sans-Serif" font-size="14.00">transform</text>
<text text-anchor="start" x="28" y="-478.5" font-family="Helvetica,sans-Serif" font-size="10.00" fill="red">RenderResourcesNode&lt;GlobalTransform&gt;</text>
<path fill="none" stroke="black" d="M34.33,-470.5C34.33,-470.5 229.67,-470.5 229.67,-470.5 235.33,-470.5 241,-476.17 241,-481.83 241,-481.83 241,-493.17 241,-493.17 241,-498.83 235.33,-504.5 229.67,-504.5 229.67,-504.5 34.33,-504.5 34.33,-504.5 28.67,-504.5 23,-498.83 23,-493.17 23,-493.17 23,-481.83 23,-481.83 23,-476.17 28.67,-470.5 34.33,-470.5"/>
</g>
<!-- 206184529154872802894492633864120005969&#45;&gt;271877769172038242135881604340992218866 -->
<g id="edge15" class="edge">
<title>206184529154872802894492633864120005969:e&#45;&gt;271877769172038242135881604340992218866:w</title>
<path fill="none" stroke="black" d="M239,-487.5C328.54,-487.5 259.22,-321.29 336.35,-308.3"/>
<polygon fill="black" stroke="black" points="336.81,-311.78 346.5,-307.5 336.26,-304.8 336.81,-311.78"/>
</g>
<!-- 256061997436112423057832234906312490536 -->
<g id="node13" class="node">
<title>256061997436112423057832234906312490536</title>
<text text-anchor="start" x="428" y="-189.3" font-family="Helvetica,sans-Serif" font-size="14.00">node</text>
<text text-anchor="start" x="369" y="-178.5" font-family="Helvetica,sans-Serif" font-size="10.00" fill="red">RenderResourcesNode&lt;Node&gt;</text>
<path fill="none" stroke="black" d="M374.83,-170.5C374.83,-170.5 516.17,-170.5 516.17,-170.5 521.83,-170.5 527.5,-176.17 527.5,-181.83 527.5,-181.83 527.5,-193.17 527.5,-193.17 527.5,-198.83 521.83,-204.5 516.17,-204.5 516.17,-204.5 374.83,-204.5 374.83,-204.5 369.17,-204.5 363.5,-198.83 363.5,-193.17 363.5,-193.17 363.5,-181.83 363.5,-181.83 363.5,-176.17 369.17,-170.5 374.83,-170.5"/>
</g>
<!-- 256061997436112423057832234906312490536&#45;&gt;336181887572678505758837704266020640702 -->
<g id="edge5" class="edge">
<title>256061997436112423057832234906312490536:e&#45;&gt;336181887572678505758837704266020640702:w</title>
<path fill="none" stroke="black" d="M525.5,-187.5C571.68,-187.5 585.73,-187.5 627.27,-187.5"/>
<polygon fill="black" stroke="black" points="627.5,-191 637.5,-187.5 627.5,-184 627.5,-191"/>
</g>
<!-- 93585213306794765371802022413211978824 -->
<g id="node14" class="node">
<title>93585213306794765371802022413211978824</title>
<text text-anchor="start" x="80" y="-429.3" font-family="Helvetica,sans-Serif" font-size="14.00">shared_buffers</text>
<text text-anchor="start" x="85" y="-418.5" font-family="Helvetica,sans-Serif" font-size="10.00" fill="red">SharedBuffersNode</text>
<path fill="none" stroke="black" d="M86.33,-410.5C86.33,-410.5 177.67,-410.5 177.67,-410.5 183.33,-410.5 189,-416.17 189,-421.83 189,-421.83 189,-433.17 189,-433.17 189,-438.83 183.33,-444.5 177.67,-444.5 177.67,-444.5 86.33,-444.5 86.33,-444.5 80.67,-444.5 75,-438.83 75,-433.17 75,-433.17 75,-421.83 75,-421.83 75,-416.17 80.67,-410.5 86.33,-410.5"/>
</g>
<!-- 93585213306794765371802022413211978824&#45;&gt;271877769172038242135881604340992218866 -->
<g id="edge7" class="edge">
<title>93585213306794765371802022413211978824:e&#45;&gt;271877769172038242135881604340992218866:w</title>
<path fill="none" stroke="black" d="M187,-427.5C223.73,-427.5 233.69,-418.24 264,-397.5 305.72,-368.95 294.21,-315.48 336.32,-308.3"/>
<polygon fill="black" stroke="black" points="336.81,-311.78 346.5,-307.5 336.26,-304.8 336.81,-311.78"/>
</g>
<!-- 317672440793841583471330076284001999805 -->
<g id="node15" class="node">
<title>317672440793841583471330076284001999805</title>
<text text-anchor="start" x="87" y="-369.3" font-family="Helvetica,sans-Serif" font-size="14.00">texture_copy</text>
<text text-anchor="start" x="88.5" y="-358.5" font-family="Helvetica,sans-Serif" font-size="10.00" fill="red">TextureCopyNode</text>
<path fill="none" stroke="black" d="M93.33,-350.5C93.33,-350.5 170.67,-350.5 170.67,-350.5 176.33,-350.5 182,-356.17 182,-361.83 182,-361.83 182,-373.17 182,-373.17 182,-378.83 176.33,-384.5 170.67,-384.5 170.67,-384.5 93.33,-384.5 93.33,-384.5 87.67,-384.5 82,-378.83 82,-373.17 82,-373.17 82,-361.83 82,-361.83 82,-356.17 87.67,-350.5 93.33,-350.5"/>
</g>
<!-- 317672440793841583471330076284001999805&#45;&gt;271877769172038242135881604340992218866 -->
<g id="edge6" class="edge">
<title>317672440793841583471330076284001999805:e&#45;&gt;271877769172038242135881604340992218866:w</title>
<path fill="none" stroke="black" d="M180,-367.5C219.64,-367.5 226.71,-350.94 264,-337.5 297.26,-325.51 305.95,-310.61 336.33,-307.93"/>
<polygon fill="black" stroke="black" points="336.66,-311.41 346.5,-307.5 336.36,-304.42 336.66,-311.41"/>
</g>
<!-- 4814070923067008976731133609193698521 -->
<g id="node16" class="node">
<title>4814070923067008976731133609193698521</title>
<text text-anchor="start" x="95" y="-128.3" font-family="Helvetica,sans-Serif" font-size="14.00">swapchain</text>
<text text-anchor="start" x="72.5" y="-117.5" font-family="Helvetica,sans-Serif" font-size="10.00" fill="red">WindowSwapChainNode</text>
<text text-anchor="start" x="71" y="-96.3" font-family="Helvetica,sans-Serif" font-size="14.00"> </text>
<polygon fill="none" stroke="black" points="80,-89.5 80,-110.5 195,-110.5 195,-89.5 80,-89.5"/>
<text text-anchor="start" x="83" y="-96.3" font-family="Helvetica,sans-Serif" font-size="14.00">texture: Texture</text>
<path fill="none" stroke="black" d="M78,-87C78,-87 186,-87 186,-87 192,-87 198,-93 198,-99 198,-99 198,-132 198,-132 198,-138 192,-144 186,-144 186,-144 78,-144 78,-144 72,-144 66,-138 66,-132 66,-132 66,-99 66,-99 66,-93 72,-87 78,-87"/>
</g>
<!-- 4814070923067008976731133609193698521&#45;&gt;271877769172038242135881604340992218866 -->
<g id="edge10" class="edge">
<title>4814070923067008976731133609193698521:e&#45;&gt;271877769172038242135881604340992218866:w</title>
<path fill="none" stroke="blue" d="M196,-99.5C235.72,-99.5 237.58,-127.84 264,-157.5 305.39,-203.96 283.43,-272.5 336.51,-279.85"/>
<polygon fill="blue" stroke="blue" points="336.29,-283.35 346.5,-280.5 336.75,-276.36 336.29,-283.35"/>
</g>
<!-- 4814070923067008976731133609193698521&#45;&gt;336181887572678505758837704266020640702 -->
<g id="edge1" class="edge">
<title>4814070923067008976731133609193698521:e&#45;&gt;336181887572678505758837704266020640702:w</title>
<path fill="none" stroke="blue" d="M196,-99.5C390.7,-99.5 437.82,-158.43 627.48,-160.45"/>
<polygon fill="blue" stroke="blue" points="627.48,-163.95 637.5,-160.5 627.52,-156.95 627.48,-163.95"/>
</g>
<!-- 142830462268998500725892871951950352593 -->
<g id="node17" class="node">
<title>142830462268998500725892871951950352593</title>
<text text-anchor="start" x="43" y="-45.3" font-family="Helvetica,sans-Serif" font-size="14.00">main_pass_depth_texture</text>
<text text-anchor="start" x="81.5" y="-34.5" font-family="Helvetica,sans-Serif" font-size="10.00" fill="red">WindowTextureNode</text>
<text text-anchor="start" x="56.5" y="-13.3" font-family="Helvetica,sans-Serif" font-size="14.00"> </text>
<polygon fill="none" stroke="black" points="80,-6.5 80,-27.5 224,-27.5 224,-6.5 80,-6.5"/>
<text text-anchor="start" x="97.5" y="-13.3" font-family="Helvetica,sans-Serif" font-size="14.00">texture: Texture</text>
<path fill="none" stroke="black" d="M49,-4C49,-4 215,-4 215,-4 221,-4 227,-10 227,-16 227,-16 227,-49 227,-49 227,-55 221,-61 215,-61 215,-61 49,-61 49,-61 43,-61 37,-55 37,-49 37,-49 37,-16 37,-16 37,-10 43,-4 49,-4"/>
</g>
<!-- 142830462268998500725892871951950352593&#45;&gt;271877769172038242135881604340992218866 -->
<g id="edge11" class="edge">
<title>142830462268998500725892871951950352593:e&#45;&gt;271877769172038242135881604340992218866:w</title>
<path fill="none" stroke="blue" d="M225,-16.5C341.32,-16.5 233.5,-243.13 336.25,-256.85"/>
<polygon fill="blue" stroke="blue" points="336.3,-260.36 346.5,-257.5 336.74,-253.37 336.3,-260.36"/>
</g>
<!-- 142830462268998500725892871951950352593&#45;&gt;336181887572678505758837704266020640702 -->
<g id="edge2" class="edge">
<title>142830462268998500725892871951950352593:e&#45;&gt;336181887572678505758837704266020640702:w</title>
<path fill="none" stroke="blue" d="M225,-16.5C377.38,-16.5 409.47,-64.33 555,-109.5 588.51,-119.9 597.24,-134.45 627.4,-137.08"/>
<polygon fill="blue" stroke="blue" points="627.36,-140.58 637.5,-137.5 627.65,-133.59 627.36,-140.58"/>
</g>
</g>
</svg>
