<?xml version="1.0" encoding="UTF-8" standalone="no"?>
<!DOCTYPE svg PUBLIC "-//W3C//DTD SVG 1.1//EN"
 "http://www.w3.org/Graphics/SVG/1.1/DTD/svg11.dtd">
<!-- Generated by graphviz version 2.43.0 (0)
 -->
<!-- Title: schedule Pages: 1 -->
<svg width="1983pt" height="921pt"
 viewBox="0.00 0.00 1983.00 921.00" xmlns="http://www.w3.org/2000/svg" xmlns:xlink="http://www.w3.org/1999/xlink">
<g id="graph0" class="graph" transform="scale(1 1) rotate(0) translate(4 917)">
<title>schedule</title>
<polygon fill="#35393f" stroke="transparent" points="-4,4 -4,-917 1979,-917 1979,4 -4,4"/>
<g id="clust1" class="cluster">
<title>cluster_Extract</title>
<path fill="#99aab5" stroke="#99aab5" d="M20,-8C20,-8 382,-8 382,-8 388,-8 394,-14 394,-20 394,-20 394,-893 394,-893 394,-899 388,-905 382,-905 382,-905 20,-905 20,-905 14,-905 8,-899 8,-893 8,-893 8,-20 8,-20 8,-14 14,-8 20,-8"/>
<text text-anchor="middle" x="201" y="-888.2" font-family="Helvetica,sans-Serif" font-size="16.00">Extract</text>
</g>
<g id="clust2" class="cluster">
<title>cluster_Prepare</title>
<path fill="#99aab5" stroke="#99aab5" d="M426,-371C426,-371 771,-371 771,-371 777,-371 783,-377 783,-383 783,-383 783,-893 783,-893 783,-899 777,-905 771,-905 771,-905 426,-905 426,-905 420,-905 414,-899 414,-893 414,-893 414,-383 414,-383 414,-377 420,-371 426,-371"/>
<text text-anchor="middle" x="598.5" y="-888.2" font-family="Helvetica,sans-Serif" font-size="16.00">Prepare</text>
</g>
<g id="clust3" class="cluster">
<title>cluster_Queue</title>
<path fill="#99aab5" stroke="#99aab5" d="M815,-503C815,-503 1129,-503 1129,-503 1135,-503 1141,-509 1141,-515 1141,-515 1141,-893 1141,-893 1141,-899 1135,-905 1129,-905 1129,-905 815,-905 815,-905 809,-905 803,-899 803,-893 803,-893 803,-515 803,-515 803,-509 809,-503 815,-503"/>
<text text-anchor="middle" x="972" y="-888.2" font-family="Helvetica,sans-Serif" font-size="16.00">Queue</text>
</g>
<g id="clust4" class="cluster">
<title>cluster_PhaseSort</title>
<path fill="#99aab5" stroke="#99aab5" d="M1173,-602C1173,-602 1442,-602 1442,-602 1448,-602 1454,-608 1454,-614 1454,-614 1454,-893 1454,-893 1454,-899 1448,-905 1442,-905 1442,-905 1173,-905 1173,-905 1167,-905 1161,-899 1161,-893 1161,-893 1161,-614 1161,-614 1161,-608 1167,-602 1173,-602"/>
<text text-anchor="middle" x="1307.5" y="-888.2" font-family="Helvetica,sans-Serif" font-size="16.00">PhaseSort</text>
</g>
<g id="clust5" class="cluster">
<title>cluster_Render</title>
<path fill="#99aab5" stroke="#99aab5" d="M1486,-767C1486,-767 1705,-767 1705,-767 1711,-767 1717,-773 1717,-779 1717,-779 1717,-893 1717,-893 1717,-899 1711,-905 1705,-905 1705,-905 1486,-905 1486,-905 1480,-905 1474,-899 1474,-893 1474,-893 1474,-779 1474,-779 1474,-773 1480,-767 1486,-767"/>
<text text-anchor="middle" x="1595.5" y="-888.2" font-family="Helvetica,sans-Serif" font-size="16.00">Render</text>
</g>
<g id="clust6" class="cluster">
<title>cluster_Cleanup</title>
<path fill="#99aab5" stroke="#99aab5" d="M1749,-800C1749,-800 1955,-800 1955,-800 1961,-800 1967,-806 1967,-812 1967,-812 1967,-893 1967,-893 1967,-899 1961,-905 1955,-905 1955,-905 1749,-905 1749,-905 1743,-905 1737,-899 1737,-893 1737,-893 1737,-812 1737,-812 1737,-806 1743,-800 1749,-800"/>
<text text-anchor="middle" x="1852" y="-888.2" font-family="Helvetica,sans-Serif" font-size="16.00">Cleanup</text>
</g>
<!-- MARKER_schedule_Extract -->
<!-- MARKER_schedule_Prepare -->
<!-- MARKER_schedule_Extract&#45;&gt;MARKER_schedule_Prepare -->
<g id="edge8" class="edge">
<title>MARKER_schedule_Extract&#45;&gt;MARKER_schedule_Prepare</title>
<path fill="none" stroke="white" d="M299,-856C356.3,-856 428.98,-856 488.28,-856"/>
<polygon fill="white" stroke="white" points="488.43,-859.5 498.43,-856 488.43,-852.5 488.43,-859.5"/>
</g>
<!-- schedule_bevy_core_pipeline::extract_clear_color_0 -->
<g id="node2" class="node">
<title>schedule_bevy_core_pipeline::extract_clear_color_0</title>
<g id="a_node2"><a xlink:title="Res [ClearColor, RenderTargetClearColors]&#10;ResMut [RenderWorld]&#10;">
<polygon fill="#eff1f3" stroke="#eff1f3" points="269,-837.5 133,-837.5 133,-808.5 269,-808.5 269,-837.5"/>
<text text-anchor="middle" x="201" y="-819.3" font-family="Times,serif" font-size="14.00">extract_clear_color</text>
</a>
</g>
</g>
<!-- schedule_bevy_core_pipeline::extract_core_pipeline_camera_phases_1 -->
<g id="node3" class="node">
<title>schedule_bevy_core_pipeline::extract_core_pipeline_camera_phases_1</title>
<g id="a_node3"><a xlink:title="Res [ActiveCamera&lt;Camera3d&gt;, ActiveCamera&lt;Camera2d&gt;]&#10;">
<polygon fill="#eff1f3" stroke="#eff1f3" points="335,-804.5 67,-804.5 67,-775.5 335,-775.5 335,-804.5"/>
<text text-anchor="middle" x="201" y="-786.3" font-family="Times,serif" font-size="14.00">extract_core_pipeline_camera_phases</text>
</a>
</g>
</g>
<!-- schedule_bevy_pbr::render::light::extract_clusters_2 -->
<g id="node4" class="node">
<title>schedule_bevy_pbr::render::light::extract_clusters_2</title>
<g id="a_node4"><a xlink:title="Components [Clusters]&#10;">
<polygon fill="#eff1f3" stroke="#eff1f3" points="258.5,-771.5 143.5,-771.5 143.5,-742.5 258.5,-742.5 258.5,-771.5"/>
<text text-anchor="middle" x="201" y="-753.3" font-family="Times,serif" font-size="14.00">extract_clusters</text>
</a>
</g>
</g>
<!-- schedule_bevy_pbr::render::light::extract_lights_3 -->
<g id="node5" class="node">
<title>schedule_bevy_pbr::render::light::extract_lights_3</title>
<g id="a_node5"><a xlink:title="Components [GlobalTransform, Visibility, PointLight, DirectionalLight]&#10;ComponentsMut [VisibleEntities, CubemapVisibleEntities]&#10;Res [AmbientLight, GlobalVisiblePointLights, DirectionalLightShadowMap, PointLightShadowMap]&#10;">
<polygon fill="#eff1f3" stroke="#eff1f3" points="250.5,-738.5 151.5,-738.5 151.5,-709.5 250.5,-709.5 250.5,-738.5"/>
<text text-anchor="middle" x="201" y="-720.3" font-family="Times,serif" font-size="14.00">extract_lights</text>
</a>
</g>
</g>
<!-- schedule_bevy_pbr::render::mesh::extract_meshes_4 -->
<g id="node6" class="node">
<title>schedule_bevy_pbr::render::mesh::extract_meshes_4</title>
<g id="a_node6"><a xlink:title="Components [GlobalTransform, Handle&lt;Mesh&gt;, ComputedVisibility, NotShadowReceiver]&#10;">
<polygon fill="#eff1f3" stroke="#eff1f3" points="257,-705.5 145,-705.5 145,-676.5 257,-676.5 257,-705.5"/>
<text text-anchor="middle" x="201" y="-687.3" font-family="Times,serif" font-size="14.00">extract_meshes</text>
</a>
</g>
</g>
<!-- schedule_bevy_pbr::render::mesh::extract_skinned_meshes_5 -->
<g id="node7" class="node">
<title>schedule_bevy_pbr::render::mesh::extract_skinned_meshes_5</title>
<g id="a_node7"><a xlink:title="Components [GlobalTransform, ComputedVisibility, SkinnedMesh]&#10;Res [Assets&lt;SkinnedMeshInverseBindposes&gt;]&#10;">
<polygon fill="#eff1f3" stroke="#eff1f3" points="288.5,-672.5 113.5,-672.5 113.5,-643.5 288.5,-643.5 288.5,-672.5"/>
<text text-anchor="middle" x="201" y="-654.3" font-family="Times,serif" font-size="14.00">extract_skinned_meshes</text>
</a>
</g>
</g>
<!-- schedule_bevy_render::camera::camera::extract_cameras&lt;bevy_render::camera::bundle::Camera2d&gt;_6 -->
<g id="node8" class="node">
<title>schedule_bevy_render::camera::camera::extract_cameras&lt;bevy_render::camera::bundle::Camera2d&gt;_6</title>
<g id="a_node8"><a xlink:title="Components [GlobalTransform, Camera, VisibleEntities]&#10;Res [Windows, ActiveCamera&lt;Camera2d&gt;, Assets&lt;Image&gt;]&#10;">
<polygon fill="#eff1f3" stroke="#eff1f3" points="309,-639.5 93,-639.5 93,-610.5 309,-610.5 309,-639.5"/>
<text text-anchor="middle" x="201" y="-621.3" font-family="Times,serif" font-size="14.00">extract_cameras&lt;Camera2d&gt;</text>
</a>
</g>
</g>
<!-- schedule_bevy_render::camera::camera::extract_cameras&lt;bevy_render::camera::bundle::Camera3d&gt;_7 -->
<g id="node9" class="node">
<title>schedule_bevy_render::camera::camera::extract_cameras&lt;bevy_render::camera::bundle::Camera3d&gt;_7</title>
<g id="a_node9"><a xlink:title="Components [GlobalTransform, Camera, VisibleEntities]&#10;Res [Windows, ActiveCamera&lt;Camera3d&gt;, Assets&lt;Image&gt;]&#10;">
<polygon fill="#eff1f3" stroke="#eff1f3" points="309,-606.5 93,-606.5 93,-577.5 309,-577.5 309,-606.5"/>
<text text-anchor="middle" x="201" y="-588.3" font-family="Times,serif" font-size="14.00">extract_cameras&lt;Camera3d&gt;</text>
</a>
</g>
</g>
<!-- schedule_bevy_render::camera::camera::extract_cameras&lt;bevy_ui::entity::CameraUi&gt;_8 -->
<g id="node10" class="node">
<title>schedule_bevy_render::camera::camera::extract_cameras&lt;bevy_ui::entity::CameraUi&gt;_8</title>
<g id="a_node10"><a xlink:title="Components [GlobalTransform, Camera, VisibleEntities]&#10;Res [Windows, Assets&lt;Image&gt;, ActiveCamera&lt;CameraUi&gt;]&#10;">
<polygon fill="#eff1f3" stroke="#eff1f3" points="308,-573.5 94,-573.5 94,-544.5 308,-544.5 308,-573.5"/>
<text text-anchor="middle" x="201" y="-555.3" font-family="Times,serif" font-size="14.00">extract_cameras&lt;CameraUi&gt;</text>
</a>
</g>
</g>
<!-- schedule_bevy_render::render_asset::extract_render_asset&lt;bevy_pbr::pbr_material::StandardMaterial&gt;_9 -->
<g id="node11" class="node">
<title>schedule_bevy_render::render_asset::extract_render_asset&lt;bevy_pbr::pbr_material::StandardMaterial&gt;_9</title>
<g id="a_node11"><a xlink:title="Res [Assets&lt;StandardMaterial&gt;, Events&lt;AssetEvent&lt;StandardMaterial&gt;&gt;]&#10;">
<polygon fill="#eff1f3" stroke="#eff1f3" points="351.5,-540.5 50.5,-540.5 50.5,-511.5 351.5,-511.5 351.5,-540.5"/>
<text text-anchor="middle" x="201" y="-522.3" font-family="Times,serif" font-size="14.00">extract_render_asset&lt;StandardMaterial&gt;</text>
</a>
</g>
</g>
<!-- schedule_bevy_render::render_asset::extract_render_asset&lt;bevy_render::mesh::mesh::Mesh&gt;_10 -->
<g id="node12" class="node">
<title>schedule_bevy_render::render_asset::extract_render_asset&lt;bevy_render::mesh::mesh::Mesh&gt;_10</title>
<g id="a_node12"><a xlink:title="Res [Assets&lt;Mesh&gt;, Events&lt;AssetEvent&lt;Mesh&gt;&gt;]&#10;">
<polygon fill="#eff1f3" stroke="#eff1f3" points="308,-507.5 94,-507.5 94,-478.5 308,-478.5 308,-507.5"/>
<text text-anchor="middle" x="201" y="-489.3" font-family="Times,serif" font-size="14.00">extract_render_asset&lt;Mesh&gt;</text>
</a>
</g>
</g>
<!-- schedule_bevy_render::render_asset::extract_render_asset&lt;bevy_render::texture::image::Image&gt;_11 -->
<g id="node13" class="node">
<title>schedule_bevy_render::render_asset::extract_render_asset&lt;bevy_render::texture::image::Image&gt;_11</title>
<g id="a_node13"><a xlink:title="Res [Assets&lt;Image&gt;, Events&lt;AssetEvent&lt;Image&gt;&gt;]&#10;">
<polygon fill="#eff1f3" stroke="#eff1f3" points="310.5,-474.5 91.5,-474.5 91.5,-445.5 310.5,-445.5 310.5,-474.5"/>
<text text-anchor="middle" x="201" y="-456.3" font-family="Times,serif" font-size="14.00">extract_render_asset&lt;Image&gt;</text>
</a>
</g>
</g>
<!-- schedule_bevy_render::render_asset::extract_render_asset&lt;bevy_sprite::mesh2d::color_material::ColorMaterial&gt;_12 -->
<g id="node14" class="node">
<title>schedule_bevy_render::render_asset::extract_render_asset&lt;bevy_sprite::mesh2d::color_material::ColorMaterial&gt;_12</title>
<g id="a_node14"><a xlink:title="Res [Assets&lt;ColorMaterial&gt;, Events&lt;AssetEvent&lt;ColorMaterial&gt;&gt;]&#10;">
<polygon fill="#eff1f3" stroke="#eff1f3" points="338,-441.5 64,-441.5 64,-412.5 338,-412.5 338,-441.5"/>
<text text-anchor="middle" x="201" y="-423.3" font-family="Times,serif" font-size="14.00">extract_render_asset&lt;ColorMaterial&gt;</text>
</a>
</g>
</g>
<!-- schedule_bevy_render::render_component::extract_components&lt;bevy_asset::handle::Handle&lt;bevy_pbr::pbr_material::StandardMaterial&gt;&gt;_13 -->
<g id="node15" class="node">
<title>schedule_bevy_render::render_component::extract_components&lt;bevy_asset::handle::Handle&lt;bevy_pbr::pbr_material::StandardMaterial&gt;&gt;_13</title>
<g id="a_node15"><a xlink:title="Components [Handle&lt;StandardMaterial&gt;]&#10;">
<polygon fill="#eff1f3" stroke="#eff1f3" points="386,-408.5 16,-408.5 16,-379.5 386,-379.5 386,-408.5"/>
<text text-anchor="middle" x="201" y="-390.3" font-family="Times,serif" font-size="14.00">extract_components&lt;Handle&lt;StandardMaterial&gt;&gt;</text>
</a>
</g>
</g>
<!-- schedule_bevy_render::render_component::extract_components&lt;bevy_asset::handle::Handle&lt;bevy_sprite::mesh2d::color_material::ColorMaterial&gt;&gt;_14 -->
<g id="node16" class="node">
<title>schedule_bevy_render::render_component::extract_components&lt;bevy_asset::handle::Handle&lt;bevy_sprite::mesh2d::color_material::ColorMaterial&gt;&gt;_14</title>
<g id="a_node16"><a xlink:title="Components [Handle&lt;ColorMaterial&gt;]&#10;">
<polygon fill="#eff1f3" stroke="#eff1f3" points="372.5,-375.5 29.5,-375.5 29.5,-346.5 372.5,-346.5 372.5,-375.5"/>
<text text-anchor="middle" x="201" y="-357.3" font-family="Times,serif" font-size="14.00">extract_components&lt;Handle&lt;ColorMaterial&gt;&gt;</text>
</a>
</g>
</g>
<!-- schedule_bevy_render::render_resource::pipeline_cache::PipelineCache::extract_shaders_15 -->
<g id="node17" class="node">
<title>schedule_bevy_render::render_resource::pipeline_cache::PipelineCache::extract_shaders_15</title>
<g id="a_node17"><a xlink:title="Res [Assets&lt;Shader&gt;, Events&lt;AssetEvent&lt;Shader&gt;&gt;]&#10;ResMut [RenderWorld]&#10;">
<polygon fill="#eff1f3" stroke="#eff1f3" points="258.5,-342.5 143.5,-342.5 143.5,-313.5 258.5,-313.5 258.5,-342.5"/>
<text text-anchor="middle" x="201" y="-324.3" font-family="Times,serif" font-size="14.00">extract_shaders</text>
</a>
</g>
</g>
<!-- schedule_bevy_render::view::extract_msaa_16 -->
<g id="node18" class="node">
<title>schedule_bevy_render::view::extract_msaa_16</title>
<g id="a_node18"><a xlink:title="Res [Msaa]&#10;">
<polygon fill="#eff1f3" stroke="#eff1f3" points="249,-309.5 153,-309.5 153,-280.5 249,-280.5 249,-309.5"/>
<text text-anchor="middle" x="201" y="-291.3" font-family="Times,serif" font-size="14.00">extract_msaa</text>
</a>
</g>
</g>
<!-- schedule_bevy_render::view::window::extract_windows_17 -->
<g id="node19" class="node">
<title>schedule_bevy_render::view::window::extract_windows_17</title>
<g id="a_node19"><a xlink:title="Res [Windows]&#10;ResMut [RenderWorld]&#10;">
<polygon fill="#eff1f3" stroke="#eff1f3" points="261.5,-276.5 140.5,-276.5 140.5,-247.5 261.5,-247.5 261.5,-276.5"/>
<text text-anchor="middle" x="201" y="-258.3" font-family="Times,serif" font-size="14.00">extract_windows</text>
</a>
</g>
</g>
<!-- schedule_bevy_sprite::mesh2d::mesh::extract_mesh2d_18 -->
<g id="node20" class="node">
<title>schedule_bevy_sprite::mesh2d::mesh::extract_mesh2d_18</title>
<g id="a_node20"><a xlink:title="Components [GlobalTransform, ComputedVisibility, Mesh2dHandle]&#10;">
<polygon fill="#eff1f3" stroke="#eff1f3" points="258.5,-243.5 143.5,-243.5 143.5,-214.5 258.5,-214.5 258.5,-243.5"/>
<text text-anchor="middle" x="201" y="-225.3" font-family="Times,serif" font-size="14.00">extract_mesh2d</text>
</a>
</g>
</g>
<!-- schedule_bevy_sprite::render::extract_sprite_events_19 -->
<g id="node21" class="node">
<title>schedule_bevy_sprite::render::extract_sprite_events_19</title>
<g id="a_node21"><a xlink:title="Res [Events&lt;AssetEvent&lt;Image&gt;&gt;]&#10;ResMut [RenderWorld]&#10;">
<polygon fill="#eff1f3" stroke="#eff1f3" points="278,-210.5 124,-210.5 124,-181.5 278,-181.5 278,-210.5"/>
<text text-anchor="middle" x="201" y="-192.3" font-family="Times,serif" font-size="14.00">extract_sprite_events</text>
</a>
</g>
</g>
<!-- schedule_bevy_sprite::render::extract_sprites_20 -->
<g id="node22" class="node">
<title>schedule_bevy_sprite::render::extract_sprites_20</title>
<g id="a_node22"><a xlink:title="Components [GlobalTransform, Visibility, Sprite, Handle&lt;Image&gt;, TextureAtlasSprite, Handle&lt;TextureAtlas&gt;]&#10;Res [Assets&lt;TextureAtlas&gt;]&#10;ResMut [RenderWorld]&#10;">
<polygon fill="#eff1f3" stroke="#eff1f3" points="255,-177.5 147,-177.5 147,-148.5 255,-148.5 255,-177.5"/>
<text text-anchor="middle" x="201" y="-159.3" font-family="Times,serif" font-size="14.00">extract_sprites</text>
</a>
</g>
</g>
<!-- schedule_bevy_text::text2d::extract_text2d_sprite_21 -->
<g id="node23" class="node">
<title>schedule_bevy_text::text2d::extract_text2d_sprite_21</title>
<g id="a_node23"><a xlink:title="Components [GlobalTransform, Visibility, Text2dSize, Text]&#10;Res [Windows, Assets&lt;TextureAtlas&gt;, TextPipeline&lt;Entity&gt;]&#10;ResMut [RenderWorld]&#10;">
<polygon fill="#eff1f3" stroke="#eff1f3" points="278,-144.5 124,-144.5 124,-115.5 278,-115.5 278,-144.5"/>
<text text-anchor="middle" x="201" y="-126.3" font-family="Times,serif" font-size="14.00">extract_text2d_sprite</text>
</a>
</g>
</g>
<!-- schedule_bevy_sprite::render::extract_sprites_20&#45;&gt;schedule_bevy_text::text2d::extract_text2d_sprite_21 -->
<g id="edge1" class="edge">
<title>schedule_bevy_sprite::render::extract_sprites_20&#45;&gt;schedule_bevy_text::text2d::extract_text2d_sprite_21</title>
<path fill="none" stroke="white" d="M201,-148.41C201,-148.26 201,-148.1 201,-147.95"/>
<polygon fill="white" stroke="white" points="204.5,-154.7 201,-144.7 197.5,-154.7 204.5,-154.7"/>
</g>
<!-- schedule_bevy_ui::render::camera::extract_ui_camera_phases_22 -->
<g id="node24" class="node">
<title>schedule_bevy_ui::render::camera::extract_ui_camera_phases_22</title>
<g id="a_node24"><a xlink:title="Res [ActiveCamera&lt;CameraUi&gt;]&#10;">
<polygon fill="#eff1f3" stroke="#eff1f3" points="294.5,-111.5 107.5,-111.5 107.5,-82.5 294.5,-82.5 294.5,-111.5"/>
<text text-anchor="middle" x="201" y="-93.3" font-family="Times,serif" font-size="14.00">extract_ui_camera_phases</text>
</a>
</g>
</g>
<!-- schedule_bevy_ui::render::extract_text_uinodes_23 -->
<g id="node25" class="node">
<title>schedule_bevy_ui::render::extract_text_uinodes_23</title>
<g id="a_node25"><a xlink:title="Components [GlobalTransform, Node, CalculatedClip, Visibility, Text]&#10;Res [Windows, Assets&lt;TextureAtlas&gt;, TextPipeline&lt;Entity&gt;]&#10;ResMut [RenderWorld]&#10;">
<polygon fill="#eff1f3" stroke="#eff1f3" points="275.5,-78.5 126.5,-78.5 126.5,-49.5 275.5,-49.5 275.5,-78.5"/>
<text text-anchor="middle" x="201" y="-60.3" font-family="Times,serif" font-size="14.00">extract_text_uinodes</text>
</a>
</g>
</g>
<!-- schedule_bevy_ui::render::extract_uinodes_24 -->
<g id="node26" class="node">
<title>schedule_bevy_ui::render::extract_uinodes_24</title>
<g id="a_node26"><a xlink:title="Components [GlobalTransform, Node, CalculatedClip, Visibility, UiImage, UiColor]&#10;Res [Assets&lt;Image&gt;]&#10;ResMut [RenderWorld]&#10;">
<polygon fill="#eff1f3" stroke="#eff1f3" points="258,-45.5 144,-45.5 144,-16.5 258,-16.5 258,-45.5"/>
<text text-anchor="middle" x="201" y="-27.3" font-family="Times,serif" font-size="14.00">extract_uinodes</text>
</a>
</g>
</g>
<!-- schedule_bevy_ui::render::extract_uinodes_24&#45;&gt;schedule_bevy_ui::render::extract_text_uinodes_23 -->
<g id="edge2" class="edge">
<title>schedule_bevy_ui::render::extract_uinodes_24&#45;&gt;schedule_bevy_ui::render::extract_text_uinodes_23</title>
<path fill="none" stroke="white" d="M201,-45.7C201,-45.85 201,-46.01 201,-46.16"/>
<polygon fill="white" stroke="white" points="197.5,-39.41 201,-49.41 204.5,-39.41 197.5,-39.41"/>
</g>
<!-- MARKER_schedule_Queue -->
<!-- MARKER_schedule_Prepare&#45;&gt;MARKER_schedule_Queue -->
<g id="edge9" class="edge">
<title>MARKER_schedule_Prepare&#45;&gt;MARKER_schedule_Queue</title>
<path fill="none" stroke="white" d="M698.57,-856C750.67,-856 814.49,-856 867.26,-856"/>
<polygon fill="white" stroke="white" points="867.32,-859.5 877.32,-856 867.32,-852.5 867.32,-859.5"/>
</g>
<!-- schedule_bevy_pbr::render::light::prepare_lights_0 -->
<g id="node28" class="node">
<title>schedule_bevy_pbr::render::light::prepare_lights_0</title>
<g id="a_node28"><a xlink:title="prepare_lights">
<polygon fill="#eff1f3" stroke="#eff1f3" points="650.5,-837.5 546.5,-837.5 546.5,-808.5 650.5,-808.5 650.5,-837.5"/>
<text text-anchor="start" x="546.5" y="-825.3" font-family="Times,serif" font-size="14.00">prepare_lights</text>
<text text-anchor="start" x="548.5" y="-813.7" font-family="Times,serif" font-size="11.00" fill="red">Exclusive at start</text>
</a>
</g>
</g>
<!-- schedule_bevy_core_pipeline::prepare_core_views_system_0 -->
<g id="node29" class="node">
<title>schedule_bevy_core_pipeline::prepare_core_views_system_0</title>
<g id="a_node29"><a xlink:title="Components [ExtractedCamera, ExtractedView]&#10;Res [RenderDevice, Msaa]&#10;ResMut [TextureCache]&#10;">
<polygon fill="#eff1f3" stroke="#eff1f3" points="698,-804.5 499,-804.5 499,-775.5 698,-775.5 698,-804.5"/>
<text text-anchor="middle" x="598.5" y="-786.3" font-family="Times,serif" font-size="14.00">prepare_core_views_system</text>
</a>
</g>
</g>
<!-- schedule_bevy_pbr::render::light::prepare_clusters_1 -->
<g id="node30" class="node">
<title>schedule_bevy_pbr::render::light::prepare_clusters_1</title>
<g id="a_node30"><a xlink:title="Components [ExtractedClusterConfig, ExtractedClustersPointLights]&#10;Res [RenderDevice, Arc&lt;Queue&gt;, MeshPipeline, GlobalLightMeta]&#10;">
<polygon fill="#eff1f3" stroke="#eff1f3" points="659,-771.5 538,-771.5 538,-742.5 659,-742.5 659,-771.5"/>
<text text-anchor="middle" x="598.5" y="-753.3" font-family="Times,serif" font-size="14.00">prepare_clusters</text>
</a>
</g>
</g>
<!-- schedule_bevy_pbr::render::mesh::prepare_skinned_meshes_2 -->
<g id="node31" class="node">
<title>schedule_bevy_pbr::render::mesh::prepare_skinned_meshes_2</title>
<g id="a_node31"><a xlink:title="Res [RenderDevice, Arc&lt;Queue&gt;, ExtractedJoints]&#10;ResMut [SkinnedMeshUniform]&#10;">
<polygon fill="#eff1f3" stroke="#eff1f3" points="688.5,-738.5 508.5,-738.5 508.5,-709.5 688.5,-709.5 688.5,-738.5"/>
<text text-anchor="middle" x="598.5" y="-720.3" font-family="Times,serif" font-size="14.00">prepare_skinned_meshes</text>
</a>
</g>
</g>
<!-- schedule_bevy_render::render_asset::prepare_assets&lt;bevy_pbr::pbr_material::StandardMaterial&gt;_3 -->
<g id="node32" class="node">
<title>schedule_bevy_render::render_asset::prepare_assets&lt;bevy_pbr::pbr_material::StandardMaterial&gt;_3</title>
<g id="a_node32"><a xlink:title="Res [RenderDevice, HashMap&lt;Handle&lt;Image&gt;, GpuImage&gt;, MaterialPipeline&lt;StandardMaterial&gt;]&#10;ResMut [ExtractedAssets&lt;StandardMaterial&gt;, HashMap&lt;Handle&lt;StandardMaterial&gt;, GpuStandardMaterial&gt;, PrepareNextFrameAssets&lt;StandardMaterial&gt;]&#10;">
<polygon fill="#eff1f3" stroke="#eff1f3" points="728,-705.5 469,-705.5 469,-676.5 728,-676.5 728,-705.5"/>
<text text-anchor="middle" x="598.5" y="-687.3" font-family="Times,serif" font-size="14.00">prepare_assets&lt;StandardMaterial&gt;</text>
</a>
</g>
</g>
<!-- schedule_bevy_render::render_asset::prepare_assets&lt;bevy_render::texture::image::Image&gt;_5 -->
<g id="node33" class="node">
<title>schedule_bevy_render::render_asset::prepare_assets&lt;bevy_render::texture::image::Image&gt;_5</title>
<g id="a_node33"><a xlink:title="Res [RenderDevice, Arc&lt;Queue&gt;]&#10;ResMut [ExtractedAssets&lt;Image&gt;, HashMap&lt;Handle&lt;Image&gt;, GpuImage&gt;, PrepareNextFrameAssets&lt;Image&gt;]&#10;">
<polygon fill="#eff1f3" stroke="#eff1f3" points="687,-672.5 510,-672.5 510,-643.5 687,-643.5 687,-672.5"/>
<text text-anchor="middle" x="598.5" y="-654.3" font-family="Times,serif" font-size="14.00">prepare_assets&lt;Image&gt;</text>
</a>
</g>
</g>
<!-- schedule_bevy_render::render_asset::prepare_assets&lt;bevy_render::texture::image::Image&gt;_5&#45;&gt;schedule_bevy_render::render_asset::prepare_assets&lt;bevy_pbr::pbr_material::StandardMaterial&gt;_3 -->
<g id="edge3" class="edge">
<title>schedule_bevy_render::render_asset::prepare_assets&lt;bevy_render::texture::image::Image&gt;_5&#45;&gt;schedule_bevy_render::render_asset::prepare_assets&lt;bevy_pbr::pbr_material::StandardMaterial&gt;_3</title>
<path fill="none" stroke="white" d="M598.5,-672.7C598.5,-672.85 598.5,-673.01 598.5,-673.16"/>
<polygon fill="white" stroke="white" points="595,-666.41 598.5,-676.41 602,-666.41 595,-666.41"/>
</g>
<!-- schedule_bevy_render::render_asset::prepare_assets&lt;bevy_render::mesh::mesh::Mesh&gt;_4 -->
<g id="node34" class="node">
<title>schedule_bevy_render::render_asset::prepare_assets&lt;bevy_render::mesh::mesh::Mesh&gt;_4</title>
<g id="a_node34"><a xlink:title="Res [RenderDevice]&#10;ResMut [ExtractedAssets&lt;Mesh&gt;, HashMap&lt;Handle&lt;Mesh&gt;, GpuMesh&gt;, PrepareNextFrameAssets&lt;Mesh&gt;]&#10;">
<polygon fill="#eff1f3" stroke="#eff1f3" points="684.5,-639.5 512.5,-639.5 512.5,-610.5 684.5,-610.5 684.5,-639.5"/>
<text text-anchor="middle" x="598.5" y="-621.3" font-family="Times,serif" font-size="14.00">prepare_assets&lt;Mesh&gt;</text>
</a>
</g>
</g>
<!-- schedule_bevy_render::render_asset::prepare_assets&lt;bevy_render::texture::image::Image&gt;_5&#45;&gt;schedule_bevy_render::render_asset::prepare_assets&lt;bevy_render::mesh::mesh::Mesh&gt;_4 -->
<g id="edge4" class="edge">
<title>schedule_bevy_render::render_asset::prepare_assets&lt;bevy_render::texture::image::Image&gt;_5&#45;&gt;schedule_bevy_render::render_asset::prepare_assets&lt;bevy_render::mesh::mesh::Mesh&gt;_4</title>
<path fill="none" stroke="white" d="M598.5,-643.41C598.5,-643.26 598.5,-643.1 598.5,-642.95"/>
<polygon fill="white" stroke="white" points="602,-649.7 598.5,-639.7 595,-649.7 602,-649.7"/>
</g>
<!-- schedule_bevy_render::render_asset::prepare_assets&lt;bevy_sprite::mesh2d::color_material::ColorMaterial&gt;_6 -->
<g id="node35" class="node">
<title>schedule_bevy_render::render_asset::prepare_assets&lt;bevy_sprite::mesh2d::color_material::ColorMaterial&gt;_6</title>
<g id="a_node35"><a xlink:title="Res [RenderDevice, HashMap&lt;Handle&lt;Image&gt;, GpuImage&gt;, Material2dPipeline&lt;ColorMaterial&gt;]&#10;ResMut [ExtractedAssets&lt;ColorMaterial&gt;, HashMap&lt;Handle&lt;ColorMaterial&gt;, GpuColorMaterial&gt;, PrepareNextFrameAssets&lt;ColorMaterial&gt;]&#10;">
<polygon fill="#eff1f3" stroke="#eff1f3" points="714.5,-606.5 482.5,-606.5 482.5,-577.5 714.5,-577.5 714.5,-606.5"/>
<text text-anchor="middle" x="598.5" y="-588.3" font-family="Times,serif" font-size="14.00">prepare_assets&lt;ColorMaterial&gt;</text>
</a>
</g>
</g>
<!-- schedule_bevy_render::render_asset::prepare_assets&lt;bevy_render::texture::image::Image&gt;_5&#45;&gt;schedule_bevy_render::render_asset::prepare_assets&lt;bevy_sprite::mesh2d::color_material::ColorMaterial&gt;_6 -->
<g id="edge5" class="edge">
<title>schedule_bevy_render::render_asset::prepare_assets&lt;bevy_render::texture::image::Image&gt;_5&#45;&gt;schedule_bevy_render::render_asset::prepare_assets&lt;bevy_sprite::mesh2d::color_material::ColorMaterial&gt;_6</title>
<path fill="none" stroke="white" d="M529.17,-672.52C485.94,-677.09 433.16,-673.57 404,-638 377.18,-605.29 420,-593.3 472.22,-589.72"/>
<polygon fill="white" stroke="white" points="472.64,-593.2 482.42,-589.12 472.23,-586.21 472.64,-593.2"/>
</g>
<!-- schedule_bevy_render::render_component::prepare_uniform_components&lt;bevy_pbr::render::mesh::MeshUniform&gt;_7 -->
<g id="node36" class="node">
<title>schedule_bevy_render::render_component::prepare_uniform_components&lt;bevy_pbr::render::mesh::MeshUniform&gt;_7</title>
<g id="a_node36"><a xlink:title="Components [MeshUniform]&#10;Res [RenderDevice, Arc&lt;Queue&gt;]&#10;ResMut [ComponentUniforms&lt;MeshUniform&gt;]&#10;">
<polygon fill="#eff1f3" stroke="#eff1f3" points="766,-573.5 431,-573.5 431,-544.5 766,-544.5 766,-573.5"/>
<text text-anchor="middle" x="598.5" y="-555.3" font-family="Times,serif" font-size="14.00">prepare_uniform_components&lt;MeshUniform&gt;</text>
</a>
</g>
</g>
<!-- schedule_bevy_render::render_component::prepare_uniform_components&lt;bevy_sprite::mesh2d::mesh::Mesh2dUniform&gt;_8 -->
<g id="node37" class="node">
<title>schedule_bevy_render::render_component::prepare_uniform_components&lt;bevy_sprite::mesh2d::mesh::Mesh2dUniform&gt;_8</title>
<g id="a_node37"><a xlink:title="Components [Mesh2dUniform]&#10;Res [RenderDevice, Arc&lt;Queue&gt;]&#10;ResMut [ComponentUniforms&lt;Mesh2dUniform&gt;]&#10;">
<polygon fill="#eff1f3" stroke="#eff1f3" points="775,-540.5 422,-540.5 422,-511.5 775,-511.5 775,-540.5"/>
<text text-anchor="middle" x="598.5" y="-522.3" font-family="Times,serif" font-size="14.00">prepare_uniform_components&lt;Mesh2dUniform&gt;</text>
</a>
</g>
</g>
<!-- schedule_bevy_render::view::prepare_view_targets_9 -->
<g id="node38" class="node">
<title>schedule_bevy_render::view::prepare_view_targets_9</title>
<g id="a_node38"><a xlink:title="Components [ExtractedCamera]&#10;Res [RenderDevice, ExtractedWindows, HashMap&lt;Handle&lt;Image&gt;, GpuImage&gt;, Msaa]&#10;ResMut [TextureCache]&#10;">
<polygon fill="#eff1f3" stroke="#eff1f3" points="676,-507.5 521,-507.5 521,-478.5 676,-478.5 676,-507.5"/>
<text text-anchor="middle" x="598.5" y="-489.3" font-family="Times,serif" font-size="14.00">prepare_view_targets</text>
</a>
</g>
</g>
<!-- schedule_bevy_render::view::window::prepare_windows_11 -->
<g id="node39" class="node">
<title>schedule_bevy_render::view::window::prepare_windows_11</title>
<g id="a_node39"><a xlink:title="Res [Instance, RenderDevice, NonSendMarker]&#10;ResMut [ExtractedWindows, WindowSurfaces]&#10;">
<polygon fill="#eff1f3" stroke="#eff1f3" points="661.5,-474.5 535.5,-474.5 535.5,-445.5 661.5,-445.5 661.5,-474.5"/>
<text text-anchor="middle" x="598.5" y="-456.3" font-family="Times,serif" font-size="14.00">prepare_windows</text>
</a>
</g>
</g>
<!-- schedule_bevy_render::view::window::prepare_windows_11&#45;&gt;schedule_bevy_render::view::prepare_view_targets_9 -->
<g id="edge6" class="edge">
<title>schedule_bevy_render::view::window::prepare_windows_11&#45;&gt;schedule_bevy_render::view::prepare_view_targets_9</title>
<path fill="none" stroke="white" d="M598.5,-474.7C598.5,-474.85 598.5,-475.01 598.5,-475.16"/>
<polygon fill="white" stroke="white" points="595,-468.41 598.5,-478.41 602,-468.41 595,-468.41"/>
</g>
<!-- schedule_bevy_render::view::prepare_view_uniforms_10 -->
<g id="node40" class="node">
<title>schedule_bevy_render::view::prepare_view_uniforms_10</title>
<g id="a_node40"><a xlink:title="Components [ExtractedView]&#10;Res [RenderDevice, Arc&lt;Queue&gt;]&#10;ResMut [ViewUniforms]&#10;">
<polygon fill="#eff1f3" stroke="#eff1f3" points="682,-441.5 515,-441.5 515,-412.5 682,-412.5 682,-441.5"/>
<text text-anchor="middle" x="598.5" y="-423.3" font-family="Times,serif" font-size="14.00">prepare_view_uniforms</text>
</a>
</g>
</g>
<!-- schedule_bevy_ui::render::prepare_uinodes_12 -->
<g id="node41" class="node">
<title>schedule_bevy_ui::render::prepare_uinodes_12</title>
<g id="a_node41"><a xlink:title="Res [RenderDevice, Arc&lt;Queue&gt;]&#10;ResMut [UiMeta, ExtractedUiNodes]&#10;">
<polygon fill="#eff1f3" stroke="#eff1f3" points="658,-408.5 539,-408.5 539,-379.5 658,-379.5 658,-408.5"/>
<text text-anchor="middle" x="598.5" y="-390.3" font-family="Times,serif" font-size="14.00">prepare_uinodes</text>
</a>
</g>
</g>
<!-- MARKER_schedule_PhaseSort -->
<!-- MARKER_schedule_Queue&#45;&gt;MARKER_schedule_PhaseSort -->
<g id="edge10" class="edge">
<title>MARKER_schedule_Queue&#45;&gt;MARKER_schedule_PhaseSort</title>
<path fill="none" stroke="white" d="M1066.79,-856C1104.62,-856 1148.69,-856 1188.65,-856"/>
<polygon fill="white" stroke="white" points="1188.71,-859.5 1198.71,-856 1188.71,-852.5 1188.71,-859.5"/>
</g>
<!-- schedule_bevy_pbr::material::queue_material_meshes&lt;bevy_pbr::pbr_material::StandardMaterial&gt;_0 -->
<g id="node43" class="node">
<title>schedule_bevy_pbr::material::queue_material_meshes&lt;bevy_pbr::pbr_material::StandardMaterial&gt;_0</title>
<g id="a_node43"><a xlink:title="Components [ExtractedView, Handle&lt;StandardMaterial&gt;, Handle&lt;Mesh&gt;, MeshUniform, VisibleEntities]&#10;ComponentsMut [RenderPhase&lt;Opaque3d&gt;, RenderPhase&lt;AlphaMask3d&gt;, RenderPhase&lt;Transparent3d&gt;]&#10;Res [HashMap&lt;Handle&lt;Mesh&gt;, GpuMesh&gt;, DrawFunctions&lt;Opaque3d&gt;, DrawFunctions&lt;AlphaMask3d&gt;, DrawFunctions&lt;Transparent3d&gt;, HashMap&lt;Handle&lt;StandardMaterial&gt;, GpuStandardMaterial&gt;, MaterialPipeline&lt;StandardMaterial&gt;, Msaa]&#10;ResMut [PipelineCache, SpecializedMeshPipelines&lt;MaterialPipeline&lt;StandardMaterial&gt;&gt;]&#10;">
<polygon fill="#eff1f3" stroke="#eff1f3" points="1133,-837.5 811,-837.5 811,-808.5 1133,-808.5 1133,-837.5"/>
<text text-anchor="middle" x="972" y="-819.3" font-family="Times,serif" font-size="14.00">queue_material_meshes&lt;StandardMaterial&gt;</text>
</a>
</g>
</g>
<!-- schedule_bevy_pbr::render::light::queue_shadow_view_bind_group_1 -->
<g id="node44" class="node">
<title>schedule_bevy_pbr::render::light::queue_shadow_view_bind_group_1</title>
<g id="a_node44"><a xlink:title="Res [RenderDevice, ViewUniforms, ShadowPipeline]&#10;ResMut [LightMeta]&#10;">
<polygon fill="#eff1f3" stroke="#eff1f3" points="1088,-804.5 856,-804.5 856,-775.5 1088,-775.5 1088,-804.5"/>
<text text-anchor="middle" x="972" y="-786.3" font-family="Times,serif" font-size="14.00">queue_shadow_view_bind_group</text>
</a>
</g>
</g>
<!-- schedule_bevy_pbr::render::light::queue_shadows_2 -->
<g id="node45" class="node">
<title>schedule_bevy_pbr::render::light::queue_shadows_2</title>
<g id="a_node45"><a xlink:title="Components [Handle&lt;Mesh&gt;, ViewLightEntities, CubemapVisibleEntities, VisibleEntities, LightEntity]&#10;ComponentsMut [RenderPhase&lt;Shadow&gt;]&#10;Res [HashMap&lt;Handle&lt;Mesh&gt;, GpuMesh&gt;, ShadowPipeline, DrawFunctions&lt;Shadow&gt;]&#10;ResMut [PipelineCache, SpecializedMeshPipelines&lt;ShadowPipeline&gt;]&#10;">
<polygon fill="#eff1f3" stroke="#eff1f3" points="1028,-771.5 916,-771.5 916,-742.5 1028,-742.5 1028,-771.5"/>
<text text-anchor="middle" x="972" y="-753.3" font-family="Times,serif" font-size="14.00">queue_shadows</text>
</a>
</g>
</g>
<!-- schedule_bevy_pbr::render::mesh::queue_mesh_bind_group_3 -->
<g id="node46" class="node">
<title>schedule_bevy_pbr::render::mesh::queue_mesh_bind_group_3</title>
<g id="a_node46"><a xlink:title="Res [RenderDevice, ComponentUniforms&lt;MeshUniform&gt;, MeshPipeline, SkinnedMeshUniform]&#10;">
<polygon fill="#eff1f3" stroke="#eff1f3" points="1060,-738.5 884,-738.5 884,-709.5 1060,-709.5 1060,-738.5"/>
<text text-anchor="middle" x="972" y="-720.3" font-family="Times,serif" font-size="14.00">queue_mesh_bind_group</text>
</a>
</g>
</g>
<!-- schedule_bevy_pbr::render::mesh::queue_mesh_view_bind_groups_4 -->
<g id="node47" class="node">
<title>schedule_bevy_pbr::render::mesh::queue_mesh_view_bind_groups_4</title>
<g id="a_node47"><a xlink:title="Components [ViewShadowBindings, ViewClusterBindings]&#10;Res [RenderDevice, ViewUniforms, MeshPipeline, ShadowPipeline, LightMeta, GlobalLightMeta]&#10;">
<polygon fill="#eff1f3" stroke="#eff1f3" points="1083.5,-705.5 860.5,-705.5 860.5,-676.5 1083.5,-676.5 1083.5,-705.5"/>
<text text-anchor="middle" x="972" y="-687.3" font-family="Times,serif" font-size="14.00">queue_mesh_view_bind_groups</text>
</a>
</g>
</g>
<!-- schedule_bevy_sprite::mesh2d::material::queue_material2d_meshes&lt;bevy_sprite::mesh2d::color_material::ColorMaterial&gt;_5 -->
<g id="node48" class="node">
<title>schedule_bevy_sprite::mesh2d::material::queue_material2d_meshes&lt;bevy_sprite::mesh2d::color_material::ColorMaterial&gt;_5</title>
<g id="a_node48"><a xlink:title="Components [Handle&lt;ColorMaterial&gt;, Mesh2dHandle, Mesh2dUniform, VisibleEntities]&#10;ComponentsMut [RenderPhase&lt;Transparent2d&gt;]&#10;Res [RenderDevice, HashMap&lt;Handle&lt;Mesh&gt;, GpuMesh&gt;, DrawFunctions&lt;Transparent2d&gt;, HashMap&lt;Handle&lt;ColorMaterial&gt;, GpuColorMaterial&gt;, Material2dPipeline&lt;ColorMaterial&gt;, Msaa]&#10;ResMut [PipelineCache, SpecializedMeshPipelines&lt;Material2dPipeline&lt;ColorMaterial&gt;&gt;]&#10;">
<polygon fill="#eff1f3" stroke="#eff1f3" points="1128.5,-672.5 815.5,-672.5 815.5,-643.5 1128.5,-643.5 1128.5,-672.5"/>
<text text-anchor="middle" x="972" y="-654.3" font-family="Times,serif" font-size="14.00">queue_material2d_meshes&lt;ColorMaterial&gt;</text>
</a>
</g>
</g>
<!-- schedule_bevy_sprite::mesh2d::mesh::queue_mesh2d_bind_group_6 -->
<g id="node49" class="node">
<title>schedule_bevy_sprite::mesh2d::mesh::queue_mesh2d_bind_group_6</title>
<g id="a_node49"><a xlink:title="Res [RenderDevice, ComponentUniforms&lt;Mesh2dUniform&gt;, Mesh2dPipeline]&#10;">
<polygon fill="#eff1f3" stroke="#eff1f3" points="1069,-639.5 875,-639.5 875,-610.5 1069,-610.5 1069,-639.5"/>
<text text-anchor="middle" x="972" y="-621.3" font-family="Times,serif" font-size="14.00">queue_mesh2d_bind_group</text>
</a>
</g>
</g>
<!-- schedule_bevy_sprite::mesh2d::mesh::queue_mesh2d_view_bind_groups_7 -->
<g id="node50" class="node">
<title>schedule_bevy_sprite::mesh2d::mesh::queue_mesh2d_view_bind_groups_7</title>
<g id="a_node50"><a xlink:title="Res [RenderDevice, ViewUniforms, Mesh2dPipeline]&#10;">
<polygon fill="#eff1f3" stroke="#eff1f3" points="1092.5,-606.5 851.5,-606.5 851.5,-577.5 1092.5,-577.5 1092.5,-606.5"/>
<text text-anchor="middle" x="972" y="-588.3" font-family="Times,serif" font-size="14.00">queue_mesh2d_view_bind_groups</text>
</a>
</g>
</g>
<!-- schedule_bevy_sprite::render::queue_sprites_8 -->
<g id="node51" class="node">
<title>schedule_bevy_sprite::render::queue_sprites_8</title>
<g id="a_node51"><a xlink:title="ComponentsMut [RenderPhase&lt;Transparent2d&gt;]&#10;Res [RenderDevice, Arc&lt;Queue&gt;, ViewUniforms, HashMap&lt;Handle&lt;Image&gt;, GpuImage&gt;, DrawFunctions&lt;Transparent2d&gt;, SpritePipeline, SpriteAssetEvents, Msaa]&#10;ResMut [PipelineCache, ImageBindGroups, SpecializedRenderPipelines&lt;SpritePipeline&gt;, SpriteMeta, ExtractedSprites]&#10;">
<polygon fill="#eff1f3" stroke="#eff1f3" points="1022,-573.5 922,-573.5 922,-544.5 1022,-544.5 1022,-573.5"/>
<text text-anchor="middle" x="972" y="-555.3" font-family="Times,serif" font-size="14.00">queue_sprites</text>
</a>
</g>
</g>
<!-- schedule_bevy_ui::render::queue_uinodes_9 -->
<g id="node52" class="node">
<title>schedule_bevy_ui::render::queue_uinodes_9</title>
<g id="a_node52"><a xlink:title="Components [UiBatch]&#10;ComponentsMut [RenderPhase&lt;TransparentUi&gt;]&#10;Res [RenderDevice, ViewUniforms, HashMap&lt;Handle&lt;Image&gt;, GpuImage&gt;, SpriteAssetEvents, UiPipeline, DrawFunctions&lt;TransparentUi&gt;]&#10;ResMut [PipelineCache, SpecializedRenderPipelines&lt;UiPipeline&gt;, UiImageBindGroups, UiMeta]&#10;">
<polygon fill="#eff1f3" stroke="#eff1f3" points="1025,-540.5 919,-540.5 919,-511.5 1025,-511.5 1025,-540.5"/>
<text text-anchor="middle" x="972" y="-522.3" font-family="Times,serif" font-size="14.00">queue_uinodes</text>
</a>
</g>
</g>
<!-- MARKER_schedule_Render -->
<!-- MARKER_schedule_PhaseSort&#45;&gt;MARKER_schedule_Render -->
<g id="edge11" class="edge">
<title>MARKER_schedule_PhaseSort&#45;&gt;MARKER_schedule_Render</title>
<path fill="none" stroke="white" d="M1416.22,-856C1439.53,-856 1464.17,-856 1487.46,-856"/>
<polygon fill="white" stroke="white" points="1487.7,-859.5 1497.7,-856 1487.7,-852.5 1487.7,-859.5"/>
</g>
<!-- schedule_bevy_render::render_phase::batch_phase_system&lt;bevy_core_pipeline::Transparent2d&gt;_0 -->
<g id="node54" class="node">
<title>schedule_bevy_render::render_phase::batch_phase_system&lt;bevy_core_pipeline::Transparent2d&gt;_0</title>
<g id="a_node54"><a xlink:title="ComponentsMut [RenderPhase&lt;Transparent2d&gt;]&#10;">
<polygon fill="#eff1f3" stroke="#eff1f3" points="1446,-837.5 1169,-837.5 1169,-808.5 1446,-808.5 1446,-837.5"/>
<text text-anchor="middle" x="1307.5" y="-819.3" font-family="Times,serif" font-size="14.00">batch_phase_system&lt;Transparent2d&gt;</text>
</a>
</g>
</g>
<!-- schedule_bevy_render::render_phase::sort_phase_system&lt;bevy_core_pipeline::Transparent2d&gt;_3 -->
<g id="node55" class="node">
<title>schedule_bevy_render::render_phase::sort_phase_system&lt;bevy_core_pipeline::Transparent2d&gt;_3</title>
<g id="a_node55"><a xlink:title="ComponentsMut [RenderPhase&lt;Transparent2d&gt;]&#10;">
<polygon fill="#eff1f3" stroke="#eff1f3" points="1440,-804.5 1175,-804.5 1175,-775.5 1440,-775.5 1440,-804.5"/>
<text text-anchor="middle" x="1307.5" y="-786.3" font-family="Times,serif" font-size="14.00">sort_phase_system&lt;Transparent2d&gt;</text>
</a>
</g>
</g>
<!-- schedule_bevy_render::render_phase::sort_phase_system&lt;bevy_core_pipeline::Transparent2d&gt;_3&#45;&gt;schedule_bevy_render::render_phase::batch_phase_system&lt;bevy_core_pipeline::Transparent2d&gt;_0 -->
<g id="edge7" class="edge">
<title>schedule_bevy_render::render_phase::sort_phase_system&lt;bevy_core_pipeline::Transparent2d&gt;_3&#45;&gt;schedule_bevy_render::render_phase::batch_phase_system&lt;bevy_core_pipeline::Transparent2d&gt;_0</title>
<path fill="none" stroke="white" d="M1307.5,-804.7C1307.5,-804.85 1307.5,-805.01 1307.5,-805.16"/>
<polygon fill="white" stroke="white" points="1304,-798.41 1307.5,-808.41 1311,-798.41 1304,-798.41"/>
</g>
<!-- schedule_bevy_render::render_phase::sort_phase_system&lt;bevy_core_pipeline::AlphaMask3d&gt;_1 -->
<g id="node56" class="node">
<title>schedule_bevy_render::render_phase::sort_phase_system&lt;bevy_core_pipeline::AlphaMask3d&gt;_1</title>
<g id="a_node56"><a xlink:title="ComponentsMut [RenderPhase&lt;AlphaMask3d&gt;]&#10;">
<polygon fill="#eff1f3" stroke="#eff1f3" points="1435.5,-771.5 1179.5,-771.5 1179.5,-742.5 1435.5,-742.5 1435.5,-771.5"/>
<text text-anchor="middle" x="1307.5" y="-753.3" font-family="Times,serif" font-size="14.00">sort_phase_system&lt;AlphaMask3d&gt;</text>
</a>
</g>
</g>
<!-- schedule_bevy_render::render_phase::sort_phase_system&lt;bevy_core_pipeline::Opaque3d&gt;_2 -->
<g id="node57" class="node">
<title>schedule_bevy_render::render_phase::sort_phase_system&lt;bevy_core_pipeline::Opaque3d&gt;_2</title>
<g id="a_node57"><a xlink:title="ComponentsMut [RenderPhase&lt;Opaque3d&gt;]&#10;">
<polygon fill="#eff1f3" stroke="#eff1f3" points="1423.5,-738.5 1191.5,-738.5 1191.5,-709.5 1423.5,-709.5 1423.5,-738.5"/>
<text text-anchor="middle" x="1307.5" y="-720.3" font-family="Times,serif" font-size="14.00">sort_phase_system&lt;Opaque3d&gt;</text>
</a>
</g>
</g>
<!-- schedule_bevy_render::render_phase::sort_phase_system&lt;bevy_core_pipeline::Transparent3d&gt;_4 -->
<g id="node58" class="node">
<title>schedule_bevy_render::render_phase::sort_phase_system&lt;bevy_core_pipeline::Transparent3d&gt;_4</title>
<g id="a_node58"><a xlink:title="ComponentsMut [RenderPhase&lt;Transparent3d&gt;]&#10;">
<polygon fill="#eff1f3" stroke="#eff1f3" points="1440,-705.5 1175,-705.5 1175,-676.5 1440,-676.5 1440,-705.5"/>
<text text-anchor="middle" x="1307.5" y="-687.3" font-family="Times,serif" font-size="14.00">sort_phase_system&lt;Transparent3d&gt;</text>
</a>
</g>
</g>
<!-- schedule_bevy_render::render_phase::sort_phase_system&lt;bevy_pbr::render::light::Shadow&gt;_5 -->
<g id="node59" class="node">
<title>schedule_bevy_render::render_phase::sort_phase_system&lt;bevy_pbr::render::light::Shadow&gt;_5</title>
<g id="a_node59"><a xlink:title="ComponentsMut [RenderPhase&lt;Shadow&gt;]&#10;">
<polygon fill="#eff1f3" stroke="#eff1f3" points="1415.5,-672.5 1199.5,-672.5 1199.5,-643.5 1415.5,-643.5 1415.5,-672.5"/>
<text text-anchor="middle" x="1307.5" y="-654.3" font-family="Times,serif" font-size="14.00">sort_phase_system&lt;Shadow&gt;</text>
</a>
</g>
</g>
<!-- schedule_bevy_render::render_phase::sort_phase_system&lt;bevy_ui::render::render_pass::TransparentUi&gt;_6 -->
<g id="node60" class="node">
<title>schedule_bevy_render::render_phase::sort_phase_system&lt;bevy_ui::render::render_pass::TransparentUi&gt;_6</title>
<g id="a_node60"><a xlink:title="ComponentsMut [RenderPhase&lt;TransparentUi&gt;]&#10;">
<polygon fill="#eff1f3" stroke="#eff1f3" points="1439.5,-639.5 1175.5,-639.5 1175.5,-610.5 1439.5,-610.5 1439.5,-639.5"/>
<text text-anchor="middle" x="1307.5" y="-621.3" font-family="Times,serif" font-size="14.00">sort_phase_system&lt;TransparentUi&gt;</text>
</a>
</g>
</g>
<!-- MARKER_schedule_Cleanup -->
<!-- MARKER_schedule_Render&#45;&gt;MARKER_schedule_Cleanup -->
<g id="edge12" class="edge">
<title>MARKER_schedule_Render&#45;&gt;MARKER_schedule_Cleanup</title>
<path fill="none" stroke="white" d="M1693.08,-856C1708.54,-856 1724.63,-856 1740.39,-856"/>
<polygon fill="white" stroke="white" points="1740.68,-859.5 1750.68,-856 1740.68,-852.5 1740.68,-859.5"/>
</g>
<!-- schedule_bevy_render::render_resource::pipeline_cache::PipelineCache::process_pipeline_queue_system_0 -->
<g id="node62" class="node">
<title>schedule_bevy_render::render_resource::pipeline_cache::PipelineCache::process_pipeline_queue_system_0</title>
<g id="a_node62"><a xlink:title="ResMut [PipelineCache]&#10;">
<polygon fill="#eff1f3" stroke="#eff1f3" points="1709,-837.5 1482,-837.5 1482,-808.5 1709,-808.5 1709,-837.5"/>
<text text-anchor="middle" x="1595.5" y="-819.3" font-family="Times,serif" font-size="14.00">process_pipeline_queue_system</text>
</a>
</g>
</g>
<!-- schedule_bevy_render::renderer::render_system_0 -->
<g id="node63" class="node">
<title>schedule_bevy_render::renderer::render_system_0</title>
<g id="a_node63"><a xlink:title="render_system">
<polygon fill="#eff1f3" stroke="#eff1f3" points="1648.5,-804.5 1542.5,-804.5 1542.5,-775.5 1648.5,-775.5 1648.5,-804.5"/>
<text text-anchor="start" x="1542.5" y="-792.3" font-family="Times,serif" font-size="14.00">render_system</text>
<text text-anchor="start" x="1549" y="-780.7" font-family="Times,serif" font-size="11.00" fill="red">Exclusive at end</text>
</a>
</g>
</g>
<!-- schedule_bevy_render::texture::texture_cache::update_texture_cache_system_0 -->
<g id="node65" class="node">
<title>schedule_bevy_render::texture::texture_cache::update_texture_cache_system_0</title>
<g id="a_node65"><a xlink:title="ResMut [TextureCache]&#10;">
<polygon fill="#eff1f3" stroke="#eff1f3" points="1959,-837.5 1745,-837.5 1745,-808.5 1959,-808.5 1959,-837.5"/>
<text text-anchor="middle" x="1852" y="-819.3" font-family="Times,serif" font-size="14.00">update_texture_cache_system</text>
</a>
</g>
</g>
</g>
</svg>
