<?xml version="1.0" encoding="UTF-8" standalone="no"?>
<!DOCTYPE svg PUBLIC "-//W3C//DTD SVG 1.1//EN"
 "http://www.w3.org/Graphics/SVG/1.1/DTD/svg11.dtd">
<!-- Generated by graphviz version 7.0.6 (0)
 -->
<!-- Title: schedule Pages: 1 -->
<svg width="3503pt" height="945pt"
 viewBox="0.00 0.00 3503.00 945.00" xmlns="http://www.w3.org/2000/svg" xmlns:xlink="http://www.w3.org/1999/xlink">
<g id="graph0" class="graph" transform="scale(1 1) rotate(0) translate(4 941)">
<title>schedule</title>
<polygon fill="white" stroke="none" points="-4,4 -4,-941 3499,-941 3499,4 -4,4"/>
<g id="clust1" class="cluster">
<title>clusternode_Set(1)</title>
<polygon fill="none" stroke="black" points="126,-280 126,-373 303,-373 303,-280 126,-280"/>
<text text-anchor="middle" x="214.5" y="-357.8" font-family="Times,serif" font-size="14.00">FirstFlush</text>
</g>
<g id="clust2" class="cluster">
<title>clusternode_Set(2)</title>
<polygon fill="none" stroke="black" points="527.5,-331 527.5,-424 704.5,-424 704.5,-331 527.5,-331"/>
<text text-anchor="middle" x="616" y="-408.8" font-family="Times,serif" font-size="14.00">PreUpdateFlush</text>
</g>
<g id="clust3" class="cluster">
<title>clusternode_Set(3)</title>
<polygon fill="none" stroke="black" points="1282,-331 1282,-424 1459,-424 1459,-331 1282,-331"/>
<text text-anchor="middle" x="1370.5" y="-408.8" font-family="Times,serif" font-size="14.00">UpdateFlush</text>
</g>
<g id="clust4" class="cluster">
<title>clusternode_Set(4)</title>
<polygon fill="none" stroke="black" points="1707.5,-55 1707.5,-148 1884.5,-148 1884.5,-55 1707.5,-55"/>
<text text-anchor="middle" x="1796" y="-132.8" font-family="Times,serif" font-size="14.00">PostUpdateFlush</text>
</g>
<g id="clust5" class="cluster">
<title>clusternode_Set(5)</title>
<polygon fill="none" stroke="black" points="2199.5,-18 2199.5,-111 2376.5,-111 2376.5,-18 2199.5,-18"/>
<text text-anchor="middle" x="2288" y="-95.8" font-family="Times,serif" font-size="14.00">LastFlush</text>
</g>
<g id="clust6" class="cluster">
<title>clusternode_Set(6)</title>
<polygon fill="none" stroke="black" points="0,-283 0,-371 114,-371 114,-283 0,-283"/>
<text text-anchor="middle" x="57" y="-355.8" font-family="Times,serif" font-size="14.00">First</text>
</g>
<g id="clust7" class="cluster">
<title>clusternode_Set(16)</title>
<polygon fill="none" stroke="black" points="8,-301 8,-340 106,-340 106,-301 8,-301"/>
<text text-anchor="middle" x="57" y="-324.8" font-family="Times,serif" font-size="14.00">TimeSystem</text>
</g>
<g id="clust8" class="cluster">
<title>clusternode_Set(7)</title>
<polygon fill="none" stroke="black" points="323,-54 323,-323 1001,-323 1001,-54 323,-54"/>
<text text-anchor="middle" x="662" y="-307.8" font-family="Times,serif" font-size="14.00">PreUpdate</text>
</g>
<g id="clust9" class="cluster">
<title>clusternode_Set(24)</title>
<polygon fill="none" stroke="black" points="502,-62 502,-191 993,-191 993,-62 502,-62"/>
<text text-anchor="middle" x="747.5" y="-175.8" font-family="Times,serif" font-size="14.00">InputSystem</text>
</g>
<g id="clust10" class="cluster">
<title>clusternode_Set(115)</title>
<polygon fill="none" stroke="black" points="801,-199 801,-292 942,-292 942,-199 801,-199"/>
<text text-anchor="middle" x="871.5" y="-276.8" font-family="Times,serif" font-size="14.00">Focus</text>
</g>
<g id="clust11" class="cluster">
<title>clusternode_Set(8)</title>
<polygon fill="none" stroke="black" points="809.5,-385 809.5,-424 934.5,-424 934.5,-385 809.5,-385"/>
<text text-anchor="middle" x="872" y="-408.8" font-family="Times,serif" font-size="14.00">StateTransitions</text>
</g>
<g id="clust12" class="cluster">
<title>clusternode_Set(9)</title>
<polygon fill="none" stroke="black" points="1013,-385 1013,-424 1114,-424 1114,-385 1013,-385"/>
<text text-anchor="middle" x="1063.5" y="-408.8" font-family="Times,serif" font-size="14.00">FixedUpdate</text>
</g>
<g id="clust13" class="cluster">
<title>clusternode_Set(10)</title>
<polygon fill="none" stroke="black" points="1126,-385 1126,-473 1270,-473 1270,-385 1126,-385"/>
<text text-anchor="middle" x="1198" y="-457.8" font-family="Times,serif" font-size="14.00">Update</text>
</g>
<g id="clust14" class="cluster">
<title>clusternode_Set(81)</title>
<polygon fill="none" stroke="black" points="1134,-403 1134,-442 1262,-442 1262,-403 1134,-403"/>
<text text-anchor="middle" x="1198" y="-426.8" font-family="Times,serif" font-size="14.00">CalculateBounds</text>
</g>
<g id="clust15" class="cluster">
<title>clusternode_Set(11)</title>
<polygon fill="none" stroke="black" points="1471,-156 1471,-929 3487,-929 3487,-156 1471,-156"/>
<text text-anchor="middle" x="2479" y="-913.8" font-family="Times,serif" font-size="14.00">PostUpdate</text>
</g>
<g id="clust16" class="cluster">
<title>clusternode_Set(20)</title>
<polygon fill="none" stroke="black" points="2210,-404 2210,-443 2366,-443 2366,-404 2210,-404"/>
<text text-anchor="middle" x="2288" y="-427.8" font-family="Times,serif" font-size="14.00">TransformPropagate</text>
</g>
<g id="clust17" class="cluster">
<title>clusternode_Set(70)</title>
<polygon fill="none" stroke="black" points="1479,-350 1479,-443 1632,-443 1632,-350 1479,-350"/>
<text text-anchor="middle" x="1555.5" y="-427.8" font-family="Times,serif" font-size="14.00">ModifiesWindows</text>
</g>
<g id="clust18" class="cluster">
<title>clusternode_Set(77)</title>
<polygon fill="none" stroke="black" points="2133,-461 2133,-662 2443,-662 2443,-461 2133,-461"/>
<text text-anchor="middle" x="2288" y="-646.8" font-family="Times,serif" font-size="14.00">CameraUpdateSystem</text>
</g>
<g id="clust19" class="cluster">
<title>clusternode_Set(82)</title>
<polygon fill="none" stroke="black" points="2463,-598 2463,-691 2763,-691 2763,-598 2463,-598"/>
<text text-anchor="middle" x="2613" y="-675.8" font-family="Times,serif" font-size="14.00">UpdateOrthographicFrusta</text>
</g>
<g id="clust20" class="cluster">
<title>clusternode_Set(83)</title>
<polygon fill="none" stroke="black" points="2469.5,-711 2469.5,-804 2756.5,-804 2756.5,-711 2469.5,-711"/>
<text text-anchor="middle" x="2613" y="-788.8" font-family="Times,serif" font-size="14.00">UpdatePerspectiveFrusta</text>
</g>
<g id="clust21" class="cluster">
<title>clusternode_Set(84)</title>
<polygon fill="none" stroke="black" points="2525,-859 2525,-898 2701,-898 2701,-859 2525,-859"/>
<text text-anchor="middle" x="2613" y="-882.8" font-family="Times,serif" font-size="14.00">UpdateProjectionFrusta</text>
</g>
<g id="clust22" class="cluster">
<title>clusternode_Set(85)</title>
<polygon fill="none" stroke="black" points="2813,-574 2813,-667 2949,-667 2949,-574 2813,-574"/>
<text text-anchor="middle" x="2881" y="-651.8" font-family="Times,serif" font-size="14.00">CheckVisibility</text>
</g>
<g id="clust23" class="cluster">
<title>clusternode_Set(86)</title>
<polygon fill="none" stroke="black" points="2541,-812 2541,-851 2686,-851 2686,-812 2541,-812"/>
<text text-anchor="middle" x="2613.5" y="-835.8" font-family="Times,serif" font-size="14.00">VisibilityPropagate</text>
</g>
<g id="clust24" class="cluster">
<title>clusternode_Set(116)</title>
<polygon fill="none" stroke="black" points="1961.5,-331 1961.5,-424 2111.5,-424 2111.5,-331 1961.5,-331"/>
<text text-anchor="middle" x="2036.5" y="-408.8" font-family="Times,serif" font-size="14.00">Flex</text>
</g>
<g id="clust25" class="cluster">
<title>clusternode_Set(117)</title>
<polygon fill="none" stroke="black" points="1529.5,-257 1529.5,-296 1582.5,-296 1582.5,-257 1529.5,-257"/>
<text text-anchor="middle" x="1556" y="-280.8" font-family="Times,serif" font-size="14.00">Stack</text>
</g>
<g id="clust26" class="cluster">
<title>clusternode_Set(127)</title>
<polygon fill="none" stroke="black" points="2555,-270 2555,-363 2671,-363 2671,-270 2555,-270"/>
<text text-anchor="middle" x="2613" y="-347.8" font-family="Times,serif" font-size="14.00">AddClusters</text>
</g>
<g id="clust27" class="cluster">
<title>clusternode_Set(128)</title>
<polygon fill="none" stroke="black" points="2999,-226 2999,-427 3243,-427 3243,-226 2999,-226"/>
<text text-anchor="middle" x="3121" y="-411.8" font-family="Times,serif" font-size="14.00">UpdateLightFrusta</text>
</g>
<g id="clust28" class="cluster">
<title>clusternode_Set(129)</title>
<polygon fill="none" stroke="black" points="2783,-248 2783,-341 2979,-341 2979,-248 2783,-248"/>
<text text-anchor="middle" x="2881" y="-325.8" font-family="Times,serif" font-size="14.00">AssignLightsToClusters</text>
</g>
<g id="clust29" class="cluster">
<title>clusternode_Set(130)</title>
<polygon fill="none" stroke="black" points="3263,-410 3263,-503 3479,-503 3479,-410 3263,-410"/>
<text text-anchor="middle" x="3371" y="-487.8" font-family="Times,serif" font-size="14.00">CheckLightVisibility</text>
</g>
<g id="clust30" class="cluster">
<title>clusternode_Set(131)</title>
<polygon fill="none" stroke="black" points="2482.5,-497 2482.5,-590 2743.5,-590 2743.5,-497 2482.5,-497"/>
<text text-anchor="middle" x="2613" y="-574.8" font-family="Times,serif" font-size="14.00">UpdateDirectionalLightCascades</text>
</g>
<g id="clust31" class="cluster">
<title>clusternode_Set(12)</title>
<polygon fill="none" stroke="black" points="2014.5,-72 2014.5,-111 2059.5,-111 2059.5,-72 2014.5,-72"/>
<text text-anchor="middle" x="2037" y="-95.8" font-family="Times,serif" font-size="14.00">Last</text>
</g>
<g id="clust32" class="cluster">
<title>clusternode_Set(58)</title>
<polygon fill="none" stroke="black" points="169.5,-233 169.5,-272 260.5,-272 260.5,-233 169.5,-233"/>
<text text-anchor="middle" x="215" y="-256.8" font-family="Times,serif" font-size="14.00">LoadAssets</text>
</g>
<g id="clust33" class="cluster">
<title>clusternode_Set(59)</title>
<polygon fill="none" stroke="black" points="1748,-8 1748,-47 1844,-47 1844,-8 1748,-8"/>
<text text-anchor="middle" x="1796" y="-31.8" font-family="Times,serif" font-size="14.00">AssetEvents</text>
</g>
<!-- set_marker_node_Set(1) -->
<!-- set_marker_node_Set(7) -->
<!-- set_marker_node_Set(1)&#45;&gt;set_marker_node_Set(7) -->
<g id="edge2" class="edge">
<title>set_marker_node_Set(1)&#45;&gt;set_marker_node_Set(7)</title>
<path fill="none" stroke="black" d="M303,-333C309.78,-331.28 316.7,-329.18 323.57,-326.84"/>
<polygon fill="black" stroke="black" points="324.64,-330.17 332.88,-323.51 322.28,-323.58 324.64,-330.17"/>
</g>
<!-- node_System(0) -->
<g id="node2" class="node">
<title>node_System(0)</title>
<polygon fill="none" stroke="black" points="295,-324 134,-324 134,-288 295,-288 295,-324"/>
<text text-anchor="middle" x="214.5" y="-302.3" font-family="Times,serif" font-size="14.00">apply_system_buffers</text>
</g>
<!-- set_marker_node_Set(2) -->
<!-- set_marker_node_Set(8) -->
<!-- set_marker_node_Set(2)&#45;&gt;set_marker_node_Set(8) -->
<g id="edge4" class="edge">
<title>set_marker_node_Set(2)&#45;&gt;set_marker_node_Set(8)</title>
<path fill="none" stroke="black" d="M704.5,-393C735.12,-393 769.13,-393 798.36,-393"/>
<polygon fill="black" stroke="black" points="797.99,-396.5 807.99,-393 797.99,-389.5 797.99,-396.5"/>
</g>
<!-- node_System(1) -->
<g id="node4" class="node">
<title>node_System(1)</title>
<polygon fill="none" stroke="black" points="696.5,-375 535.5,-375 535.5,-339 696.5,-339 696.5,-375"/>
<text text-anchor="middle" x="616" y="-353.3" font-family="Times,serif" font-size="14.00">apply_system_buffers</text>
</g>
<!-- set_marker_node_Set(3) -->
<!-- set_marker_node_Set(11) -->
<!-- set_marker_node_Set(3)&#45;&gt;set_marker_node_Set(11) -->
<g id="edge8" class="edge">
<title>set_marker_node_Set(3)&#45;&gt;set_marker_node_Set(11)</title>
<path fill="none" stroke="black" d="M1459,-384C1477.23,-365.57 1463.14,-297.79 1468.07,-264.08"/>
<polygon fill="black" stroke="black" points="1471.44,-265.03 1470.61,-254.46 1464.67,-263.24 1471.44,-265.03"/>
</g>
<!-- node_System(2) -->
<g id="node6" class="node">
<title>node_System(2)</title>
<polygon fill="none" stroke="black" points="1451,-375 1290,-375 1290,-339 1451,-339 1451,-375"/>
<text text-anchor="middle" x="1370.5" y="-353.3" font-family="Times,serif" font-size="14.00">apply_system_buffers</text>
</g>
<!-- set_marker_node_Set(4) -->
<!-- set_marker_node_Set(12) -->
<!-- set_marker_node_Set(4)&#45;&gt;set_marker_node_Set(12) -->
<g id="edge10" class="edge">
<title>set_marker_node_Set(4)&#45;&gt;set_marker_node_Set(12)</title>
<path fill="none" stroke="black" d="M1884.5,-113.7C1900.37,-112.38 1916.73,-110.55 1932,-108 1956.42,-103.92 1983.4,-96.53 2003.69,-90.36"/>
<polygon fill="black" stroke="black" points="2004.55,-93.76 2013.06,-87.45 2002.47,-87.07 2004.55,-93.76"/>
</g>
<!-- node_System(3) -->
<g id="node8" class="node">
<title>node_System(3)</title>
<polygon fill="none" stroke="black" points="1876.5,-99 1715.5,-99 1715.5,-63 1876.5,-63 1876.5,-99"/>
<text text-anchor="middle" x="1796" y="-77.3" font-family="Times,serif" font-size="14.00">apply_system_buffers</text>
</g>
<!-- set_marker_node_Set(5) -->
<!-- node_System(4) -->
<g id="node10" class="node">
<title>node_System(4)</title>
<polygon fill="none" stroke="black" points="2368.5,-62 2207.5,-62 2207.5,-26 2368.5,-26 2368.5,-62"/>
<text text-anchor="middle" x="2288" y="-40.3" font-family="Times,serif" font-size="14.00">apply_system_buffers</text>
</g>
<!-- set_marker_node_Set(6) -->
<!-- set_marker_node_Set(6)&#45;&gt;set_marker_node_Set(1) -->
<g id="edge1" class="edge">
<title>set_marker_node_Set(6)&#45;&gt;set_marker_node_Set(1)</title>
<path fill="none" stroke="black" d="M114,-297C123.44,-304.6 118.71,-314.42 120.19,-323.26"/>
<polygon fill="black" stroke="black" points="117.09,-324.91 125.22,-331.7 123.11,-321.32 117.09,-324.91"/>
</g>
<!-- set_marker_node_Set(58) -->
<!-- set_marker_node_Set(6)&#45;&gt;set_marker_node_Set(58) -->
<g id="edge18" class="edge">
<title>set_marker_node_Set(6)&#45;&gt;set_marker_node_Set(58)</title>
<path fill="none" stroke="black" d="M82.88,-283C103.25,-276.45 132.82,-266.94 158.68,-258.63"/>
<polygon fill="black" stroke="black" points="159.61,-262 168.06,-255.61 157.47,-255.34 159.61,-262"/>
</g>
<!-- set_marker_node_Set(16) -->
<!-- set_marker_node_Set(7)&#45;&gt;set_marker_node_Set(2) -->
<g id="edge3" class="edge">
<title>set_marker_node_Set(7)&#45;&gt;set_marker_node_Set(2)</title>
<path fill="none" stroke="black" d="M427.03,-323C445.03,-344.16 471.83,-370.69 502,-384 506.64,-386.05 511.49,-387.77 516.46,-389.22"/>
<polygon fill="black" stroke="black" points="515.49,-392.58 526.04,-391.6 517.18,-385.79 515.49,-392.58"/>
</g>
<!-- set_marker_node_Set(24) -->
<!-- node_System(94) -->
<g id="node19" class="node">
<title>node_System(94)</title>
<polygon fill="none" stroke="black" points="934,-243 809,-243 809,-207 934,-207 934,-243"/>
<text text-anchor="middle" x="871.5" y="-221.3" font-family="Times,serif" font-size="14.00">ui_focus_system</text>
</g>
<!-- set_marker_node_Set(24)&#45;&gt;node_System(94) -->
<g id="edge37" class="edge">
<title>set_marker_node_Set(24)&#45;&gt;node_System(94)</title>
<path fill="none" stroke="black" d="M737.89,-191C758.27,-196.22 778.86,-201.5 797.54,-206.29"/>
<polygon fill="black" stroke="black" points="796.66,-209.68 807.21,-208.77 798.4,-202.9 796.66,-209.68"/>
</g>
<!-- node_System(25) -->
<g id="node15" class="node">
<title>node_System(25)</title>
<polygon fill="none" stroke="black" points="722,-130 510,-130 510,-94 722,-94 722,-130"/>
<text text-anchor="middle" x="616" y="-108.3" font-family="Times,serif" font-size="14.00">gamepad_connection_system</text>
</g>
<!-- node_System(26) -->
<g id="node16" class="node">
<title>node_System(26)</title>
<polygon fill="none" stroke="black" points="985,-106 758,-106 758,-70 985,-70 985,-106"/>
<text text-anchor="middle" x="871.5" y="-84.3" font-family="Times,serif" font-size="14.00">gamepad_button_event_system</text>
</g>
<!-- node_System(25)&#45;&gt;node_System(26) -->
<g id="edge14" class="edge">
<title>node_System(25)&#45;&gt;node_System(26)</title>
<path fill="none" stroke="black" d="M722.3,-102.03C730.26,-101.28 738.32,-100.51 746.38,-99.75"/>
<polygon fill="black" stroke="black" points="746.61,-103.25 756.23,-98.82 745.95,-96.28 746.61,-103.25"/>
</g>
<!-- node_System(27) -->
<g id="node17" class="node">
<title>node_System(27)</title>
<polygon fill="none" stroke="black" points="976,-160 767,-160 767,-124 976,-124 976,-160"/>
<text text-anchor="middle" x="871.5" y="-138.3" font-family="Times,serif" font-size="14.00">gamepad_axis_event_system</text>
</g>
<!-- node_System(25)&#45;&gt;node_System(27) -->
<g id="edge16" class="edge">
<title>node_System(25)&#45;&gt;node_System(27)</title>
<path fill="none" stroke="black" d="M722.3,-124.46C733.21,-125.75 744.33,-127.07 755.33,-128.37"/>
<polygon fill="black" stroke="black" points="754.9,-131.84 765.24,-129.54 755.72,-124.89 754.9,-131.84"/>
</g>
<!-- set_marker_node_Set(115) -->
<!-- node_System(130) -->
<g id="node20" class="node">
<title>node_System(130)</title>
<polygon fill="none" stroke="black" points="474,-178 331,-178 331,-142 474,-142 474,-178"/>
<text text-anchor="middle" x="402.5" y="-156.3" font-family="Times,serif" font-size="14.00">gilrs_event_system</text>
</g>
<!-- node_System(130)&#45;&gt;set_marker_node_Set(24) -->
<g id="edge63" class="edge">
<title>node_System(130)&#45;&gt;set_marker_node_Set(24)</title>
<path fill="none" stroke="black" d="M474.22,-160C479.55,-160 485.02,-160 490.56,-160"/>
<polygon fill="black" stroke="black" points="490.49,-163.5 500.49,-160 490.49,-156.5 490.49,-163.5"/>
</g>
<!-- set_marker_node_Set(9) -->
<!-- set_marker_node_Set(8)&#45;&gt;set_marker_node_Set(9) -->
<g id="edge5" class="edge">
<title>set_marker_node_Set(8)&#45;&gt;set_marker_node_Set(9)</title>
<path fill="none" stroke="black" d="M934.5,-393C956.1,-393 980.29,-393 1001.75,-393"/>
<polygon fill="black" stroke="black" points="1001.49,-396.5 1011.49,-393 1001.49,-389.5 1001.49,-396.5"/>
</g>
<!-- set_marker_node_Set(10) -->
<!-- set_marker_node_Set(9)&#45;&gt;set_marker_node_Set(10) -->
<g id="edge6" class="edge">
<title>set_marker_node_Set(9)&#45;&gt;set_marker_node_Set(10)</title>
<path fill="none" stroke="black" d="M1114,-393C1114.2,-393 1114.41,-393 1114.62,-393"/>
<polygon fill="black" stroke="black" points="1114.49,-396.5 1124.49,-393 1114.49,-389.5 1114.49,-396.5"/>
</g>
<!-- set_marker_node_Set(10)&#45;&gt;set_marker_node_Set(3) -->
<g id="edge7" class="edge">
<title>set_marker_node_Set(10)&#45;&gt;set_marker_node_Set(3)</title>
<path fill="none" stroke="black" d="M1270,-393C1270.22,-393 1270.43,-393 1270.65,-393"/>
<polygon fill="black" stroke="black" points="1270.49,-396.5 1280.49,-393 1270.49,-389.5 1270.49,-396.5"/>
</g>
<!-- set_marker_node_Set(81) -->
<!-- set_marker_node_Set(11)&#45;&gt;set_marker_node_Set(4) -->
<g id="edge9" class="edge">
<title>set_marker_node_Set(11)&#45;&gt;set_marker_node_Set(4)</title>
<path fill="none" stroke="black" d="M1597.08,-156C1624.37,-150.63 1661.58,-143.29 1696.37,-136.44"/>
<polygon fill="black" stroke="black" points="1696.88,-139.9 1706.02,-134.54 1695.53,-133.03 1696.88,-139.9"/>
</g>
<!-- set_marker_node_Set(59) -->
<!-- set_marker_node_Set(11)&#45;&gt;set_marker_node_Set(59) -->
<g id="edge19" class="edge">
<title>set_marker_node_Set(11)&#45;&gt;set_marker_node_Set(59)</title>
<path fill="none" stroke="black" d="M1561.42,-156C1574.61,-135.23 1613.02,-79.25 1660,-51 1683.2,-37.05 1711.88,-28.61 1736.83,-23.53"/>
<polygon fill="black" stroke="black" points="1737.34,-26.99 1746.52,-21.7 1736.04,-20.11 1737.34,-26.99"/>
</g>
<!-- set_marker_node_Set(20) -->
<!-- node_System(67) -->
<g id="node34" class="node">
<title>node_System(67)</title>
<polygon fill="none" stroke="black" points="2755,-642 2471,-642 2471,-606 2755,-606 2755,-642"/>
<text text-anchor="middle" x="2613" y="-620.3" font-family="Times,serif" font-size="14.00">update_frusta&lt;OrthographicProjection&gt;</text>
</g>
<!-- set_marker_node_Set(20)&#45;&gt;node_System(67) -->
<g id="edge26" class="edge">
<title>set_marker_node_Set(20)&#45;&gt;node_System(67)</title>
<path fill="none" stroke="black" d="M2366,-417.36C2394.1,-423.26 2423.69,-434.8 2443,-457 2483.38,-503.43 2420.67,-549.34 2463,-594 2464.57,-595.65 2466.19,-597.23 2467.88,-598.73"/>
<polygon fill="black" stroke="black" points="2465.53,-601.33 2475.57,-604.7 2469.82,-595.8 2465.53,-601.33"/>
</g>
<!-- node_System(68) -->
<g id="node36" class="node">
<title>node_System(68)</title>
<polygon fill="none" stroke="black" points="2748.5,-755 2477.5,-755 2477.5,-719 2748.5,-719 2748.5,-755"/>
<text text-anchor="middle" x="2613" y="-733.3" font-family="Times,serif" font-size="14.00">update_frusta&lt;PerspectiveProjection&gt;</text>
</g>
<!-- set_marker_node_Set(20)&#45;&gt;node_System(68) -->
<g id="edge28" class="edge">
<title>set_marker_node_Set(20)&#45;&gt;node_System(68)</title>
<path fill="none" stroke="black" d="M2366,-416.61C2394.41,-422.38 2424.22,-434.03 2443,-457 2476.59,-498.1 2429.22,-654.06 2463,-695 2468.77,-702 2475.61,-707.88 2483.14,-712.82"/>
<polygon fill="black" stroke="black" points="2481.3,-715.8 2491.71,-717.82 2484.84,-709.75 2481.3,-715.8"/>
</g>
<!-- node_System(71) -->
<g id="node39" class="node">
<title>node_System(71)</title>
<polygon fill="none" stroke="black" points="2941,-618 2821,-618 2821,-582 2941,-582 2941,-618"/>
<text text-anchor="middle" x="2881" y="-596.3" font-family="Times,serif" font-size="14.00">check_visibility</text>
</g>
<!-- set_marker_node_Set(20)&#45;&gt;node_System(71) -->
<g id="edge35" class="edge">
<title>set_marker_node_Set(20)&#45;&gt;node_System(71)</title>
<path fill="none" stroke="black" d="M2366,-414.32C2495.83,-418.49 2745.92,-427.66 2763,-437 2816.96,-466.51 2852.15,-532.86 2868.78,-571.19"/>
<polygon fill="black" stroke="black" points="2865.49,-572.39 2872.58,-580.26 2871.95,-569.68 2865.49,-572.39"/>
</g>
<!-- node_System(107) -->
<g id="node47" class="node">
<title>node_System(107)</title>
<polygon fill="none" stroke="black" points="3235,-378 3007,-378 3007,-342 3235,-342 3235,-378"/>
<text text-anchor="middle" x="3121" y="-356.3" font-family="Times,serif" font-size="14.00">update_directional_light_frusta</text>
</g>
<!-- set_marker_node_Set(20)&#45;&gt;node_System(107) -->
<g id="edge54" class="edge">
<title>set_marker_node_Set(20)&#45;&gt;node_System(107)</title>
<path fill="none" stroke="black" d="M2366,-409.84C2493.61,-405.86 2756.89,-396 2979,-377 2984.32,-376.54 2989.76,-376.04 2995.24,-375.51"/>
<polygon fill="black" stroke="black" points="2995.45,-379.01 3005.05,-374.52 2994.75,-372.04 2995.45,-379.01"/>
</g>
<!-- node_System(108) -->
<g id="node48" class="node">
<title>node_System(108)</title>
<polygon fill="none" stroke="black" points="3216,-270 3026,-270 3026,-234 3216,-234 3216,-270"/>
<text text-anchor="middle" x="3121" y="-248.3" font-family="Times,serif" font-size="14.00">update_point_light_frusta</text>
</g>
<!-- set_marker_node_Set(20)&#45;&gt;node_System(108) -->
<g id="edge56" class="edge">
<title>set_marker_node_Set(20)&#45;&gt;node_System(108)</title>
<path fill="none" stroke="black" d="M2292.14,-404C2305.96,-370.09 2365.07,-237.67 2463,-190 2559.83,-142.87 2868.73,-198.39 3026.03,-231.22"/>
<polygon fill="black" stroke="black" points="3025.1,-234.6 3035.6,-233.23 3026.54,-227.75 3025.1,-234.6"/>
</g>
<!-- node_System(109) -->
<g id="node49" class="node">
<title>node_System(109)</title>
<polygon fill="none" stroke="black" points="3212,-324 3030,-324 3030,-288 3212,-288 3212,-324"/>
<text text-anchor="middle" x="3121" y="-302.3" font-family="Times,serif" font-size="14.00">update_spot_light_frusta</text>
</g>
<!-- set_marker_node_Set(20)&#45;&gt;node_System(109) -->
<g id="edge58" class="edge">
<title>set_marker_node_Set(20)&#45;&gt;node_System(109)</title>
<path fill="none" stroke="black" d="M2340.29,-404C2374.89,-398.84 2421.6,-392.3 2463,-388 2577.45,-376.11 2869.81,-381.3 2979,-345 2988.84,-341.73 2989.37,-336.84 2999,-333 3005.43,-330.43 3012.15,-328.08 3018.99,-325.94"/>
<polygon fill="black" stroke="black" points="3019.77,-329.36 3028.36,-323.17 3017.78,-322.65 3019.77,-329.36"/>
</g>
<!-- node_System(105) -->
<g id="node51" class="node">
<title>node_System(105)</title>
<polygon fill="none" stroke="black" points="2971,-310 2791,-310 2791,-274 2971,-274 2971,-310"/>
<text text-anchor="middle" x="2881" y="-288.3" font-family="Times,serif" font-size="14.00">assign_lights_to_clusters</text>
</g>
<!-- set_marker_node_Set(20)&#45;&gt;node_System(105) -->
<g id="edge47" class="edge">
<title>set_marker_node_Set(20)&#45;&gt;node_System(105)</title>
<path fill="none" stroke="black" d="M2294.98,-404C2315.09,-377.86 2383.53,-294.93 2463,-266 2525.65,-243.2 2696.73,-258.73 2763,-266 2774.29,-267.24 2786.08,-269.13 2797.64,-271.34"/>
<polygon fill="black" stroke="black" points="2796.66,-274.71 2807.15,-273.25 2798.04,-267.85 2796.66,-274.71"/>
</g>
<!-- node_System(110) -->
<g id="node53" class="node">
<title>node_System(110)</title>
<polygon fill="none" stroke="black" points="3471,-454 3271,-454 3271,-418 3471,-418 3471,-454"/>
<text text-anchor="middle" x="3371" y="-432.3" font-family="Times,serif" font-size="14.00">check_light_mesh_visibility</text>
</g>
<!-- set_marker_node_Set(20)&#45;&gt;node_System(110) -->
<g id="edge60" class="edge">
<title>set_marker_node_Set(20)&#45;&gt;node_System(110)</title>
<path fill="none" stroke="black" d="M2366,-411.66C2459.8,-411.51 2623.08,-412.11 2763,-417 2868.01,-420.67 2894,-427.18 2999,-431 3086.56,-434.19 3185.81,-435.4 3259.61,-435.83"/>
<polygon fill="black" stroke="black" points="3259.23,-439.33 3269.25,-435.89 3259.27,-432.33 3259.23,-439.33"/>
</g>
<!-- node_System(106) -->
<g id="node55" class="node">
<title>node_System(106)</title>
<polygon fill="none" stroke="black" points="2735.5,-541 2490.5,-541 2490.5,-505 2735.5,-505 2735.5,-541"/>
<text text-anchor="middle" x="2613" y="-519.3" font-family="Times,serif" font-size="14.00">update_directional_light_cascades</text>
</g>
<!-- set_marker_node_Set(20)&#45;&gt;node_System(106) -->
<g id="edge51" class="edge">
<title>set_marker_node_Set(20)&#45;&gt;node_System(106)</title>
<path fill="none" stroke="black" d="M2366,-421.1C2392.84,-427.51 2421.58,-438.43 2443,-457 2459.23,-471.07 2445.84,-488.08 2463,-501 2468.29,-504.98 2473.98,-508.39 2479.96,-511.3"/>
<polygon fill="black" stroke="black" points="2478.29,-514.39 2488.86,-515.14 2481.07,-507.97 2478.29,-514.39"/>
</g>
<!-- node_System(69) -->
<g id="node56" class="node">
<title>node_System(69)</title>
<polygon fill="none" stroke="black" points="2710,-487 2516,-487 2516,-451 2710,-451 2710,-487"/>
<text text-anchor="middle" x="2613" y="-465.3" font-family="Times,serif" font-size="14.00">update_frusta&lt;Projection&gt;</text>
</g>
<!-- set_marker_node_Set(20)&#45;&gt;node_System(69) -->
<g id="edge30" class="edge">
<title>set_marker_node_Set(20)&#45;&gt;node_System(69)</title>
<path fill="none" stroke="black" d="M2366,-425.59C2407.5,-432.91 2459.36,-442.06 2504.75,-450.07"/>
<polygon fill="black" stroke="black" points="2503.98,-453.49 2514.44,-451.78 2505.2,-446.6 2503.98,-453.49"/>
</g>
<!-- node_System(99) -->
<g id="node60" class="node">
<title>node_System(99)</title>
<polygon fill="none" stroke="black" points="2701,-240 2525,-240 2525,-204 2701,-204 2701,-240"/>
<text text-anchor="middle" x="2613" y="-218.3" font-family="Times,serif" font-size="14.00">update_clipping_system</text>
</g>
<!-- set_marker_node_Set(20)&#45;&gt;node_System(99) -->
<g id="edge43" class="edge">
<title>set_marker_node_Set(20)&#45;&gt;node_System(99)</title>
<path fill="none" stroke="black" d="M2295.13,-404C2315.67,-377.81 2385.18,-293.96 2463,-254 2478.69,-245.94 2496.31,-239.91 2513.8,-235.4"/>
<polygon fill="black" stroke="black" points="2514.28,-238.88 2523.18,-233.14 2512.63,-232.08 2514.28,-238.88"/>
</g>
<!-- set_marker_node_Set(70) -->
<!-- node_System(63) -->
<g id="node30" class="node">
<title>node_System(63)</title>
<polygon fill="none" stroke="black" points="2390,-505 2186,-505 2186,-469 2390,-469 2390,-505"/>
<text text-anchor="middle" x="2288" y="-483.3" font-family="Times,serif" font-size="14.00">camera_system&lt;Projection&gt;</text>
</g>
<!-- set_marker_node_Set(70)&#45;&gt;node_System(63) -->
<g id="edge22" class="edge">
<title>set_marker_node_Set(70)&#45;&gt;node_System(63)</title>
<path fill="none" stroke="black" d="M1591.11,-443C1610.03,-457.88 1634.72,-474.14 1660,-482 1833.18,-535.82 2046.5,-521.71 2174.37,-505.29"/>
<polygon fill="black" stroke="black" points="2174.75,-508.77 2184.21,-504 2173.84,-501.83 2174.75,-508.77"/>
</g>
<!-- node_System(64) -->
<g id="node31" class="node">
<title>node_System(64)</title>
<polygon fill="none" stroke="black" points="2435,-577 2141,-577 2141,-541 2435,-541 2435,-577"/>
<text text-anchor="middle" x="2288" y="-555.3" font-family="Times,serif" font-size="14.00">camera_system&lt;OrthographicProjection&gt;</text>
</g>
<!-- set_marker_node_Set(70)&#45;&gt;node_System(64) -->
<g id="edge23" class="edge">
<title>set_marker_node_Set(70)&#45;&gt;node_System(64)</title>
<path fill="none" stroke="black" d="M1581.26,-443C1600.31,-464.41 1628.63,-491.4 1660,-505 1809.76,-569.91 1998.26,-577.45 2129.28,-572.47"/>
<polygon fill="black" stroke="black" points="2129.23,-575.98 2139.08,-572.07 2128.94,-568.98 2129.23,-575.98"/>
</g>
<!-- node_System(65) -->
<g id="node32" class="node">
<title>node_System(65)</title>
<polygon fill="none" stroke="black" points="2428.5,-631 2147.5,-631 2147.5,-595 2428.5,-595 2428.5,-631"/>
<text text-anchor="middle" x="2288" y="-609.3" font-family="Times,serif" font-size="14.00">camera_system&lt;PerspectiveProjection&gt;</text>
</g>
<!-- set_marker_node_Set(70)&#45;&gt;node_System(65) -->
<g id="edge24" class="edge">
<title>set_marker_node_Set(70)&#45;&gt;node_System(65)</title>
<path fill="none" stroke="black" d="M1572.3,-443C1589.49,-473.22 1619.95,-517.78 1660,-540 1806.92,-621.5 2002.75,-631.57 2136.21,-626.53"/>
<polygon fill="black" stroke="black" points="2135.95,-630.04 2145.8,-626.13 2135.66,-623.05 2135.95,-630.04"/>
</g>
<!-- node_System(97) -->
<g id="node42" class="node">
<title>node_System(97)</title>
<polygon fill="none" stroke="black" points="2103.5,-393 1969.5,-393 1969.5,-357 2103.5,-357 2103.5,-393"/>
<text text-anchor="middle" x="2036.5" y="-371.3" font-family="Times,serif" font-size="14.00">flex_node_system</text>
</g>
<!-- set_marker_node_Set(70)&#45;&gt;node_System(97) -->
<g id="edge42" class="edge">
<title>set_marker_node_Set(70)&#45;&gt;node_System(97)</title>
<path fill="none" stroke="black" d="M1632,-403C1644.46,-401.37 1647.48,-400.12 1660,-399 1780.49,-388.21 1811.47,-399.34 1932,-389 1940.35,-388.28 1949.07,-387.37 1957.73,-386.35"/>
<polygon fill="black" stroke="black" points="1958.07,-389.84 1967.57,-385.15 1957.22,-382.89 1958.07,-389.84"/>
</g>
<!-- set_marker_node_Set(70)&#45;&gt;node_System(105) -->
<g id="edge50" class="edge">
<title>set_marker_node_Set(70)&#45;&gt;node_System(105)</title>
<path fill="none" stroke="black" d="M1632,-403C1705.79,-329.28 1582.44,-239.73 1660,-170 1691.03,-142.1 1993.77,-165 2035.5,-165 2035.5,-165 2035.5,-165 2289,-165 2315.33,-165 2742.64,-153.3 2763,-170 2796.36,-197.36 2753.48,-233.53 2783,-265 2783.37,-265.4 2783.75,-265.79 2784.14,-266.18"/>
<polygon fill="black" stroke="black" points="2781.82,-268.8 2791.74,-272.54 2786.31,-263.44 2781.82,-268.8"/>
</g>
<!-- node_System(93) -->
<g id="node57" class="node">
<title>node_System(93)</title>
<polygon fill="none" stroke="black" points="1876.5,-449 1715.5,-449 1715.5,-413 1876.5,-413 1876.5,-449"/>
<text text-anchor="middle" x="1796" y="-427.3" font-family="Times,serif" font-size="14.00">update_text2d_layout</text>
</g>
<!-- set_marker_node_Set(70)&#45;&gt;node_System(93) -->
<g id="edge36" class="edge">
<title>set_marker_node_Set(70)&#45;&gt;node_System(93)</title>
<path fill="none" stroke="black" d="M1632,-418.01C1654.84,-419.83 1680.16,-421.85 1703.9,-423.74"/>
<polygon fill="black" stroke="black" points="1703.54,-427.22 1713.78,-424.53 1704.09,-420.25 1703.54,-427.22"/>
</g>
<!-- node_System(95) -->
<g id="node58" class="node">
<title>node_System(95)</title>
<polygon fill="none" stroke="black" points="1844,-375 1748,-375 1748,-339 1844,-339 1844,-375"/>
<text text-anchor="middle" x="1796" y="-353.3" font-family="Times,serif" font-size="14.00">text_system</text>
</g>
<!-- set_marker_node_Set(70)&#45;&gt;node_System(95) -->
<g id="edge39" class="edge">
<title>set_marker_node_Set(70)&#45;&gt;node_System(95)</title>
<path fill="none" stroke="black" d="M1632,-403C1645.33,-399.01 1646.92,-393.75 1660,-389 1684.53,-380.1 1712.48,-373 1736.55,-367.77"/>
<polygon fill="black" stroke="black" points="1737.13,-371.23 1746.19,-365.74 1735.69,-364.38 1737.13,-371.23"/>
</g>
<!-- node_System(58) -->
<g id="node28" class="node">
<title>node_System(58)</title>
<polygon fill="none" stroke="black" points="1624,-394 1487,-394 1487,-358 1624,-358 1624,-394"/>
<text text-anchor="middle" x="1555.5" y="-372.3" font-family="Times,serif" font-size="14.00">despawn_window</text>
</g>
<!-- set_marker_node_Set(77) -->
<!-- set_marker_node_Set(77)&#45;&gt;node_System(105) -->
<g id="edge49" class="edge">
<title>set_marker_node_Set(77)&#45;&gt;node_System(105)</title>
<path fill="none" stroke="black" d="M2443,-532C2496.23,-581.94 2408.34,-646.63 2463,-695 2475.48,-706.04 2750.32,-705.81 2763,-695 2784.41,-676.75 2776.12,-597.28 2783,-570 2806.5,-476.89 2847.75,-370.72 2868.04,-320.81"/>
<polygon fill="black" stroke="black" points="2871.26,-322.18 2871.81,-311.6 2864.78,-319.53 2871.26,-322.18"/>
</g>
<!-- set_marker_node_Set(77)&#45;&gt;node_System(106) -->
<g id="edge52" class="edge">
<title>set_marker_node_Set(77)&#45;&gt;node_System(106)</title>
<path fill="none" stroke="black" d="M2443,-523C2454.9,-523 2466.85,-523 2478.6,-523"/>
<polygon fill="black" stroke="black" points="2478.54,-526.5 2488.54,-523 2478.54,-519.5 2478.54,-526.5"/>
</g>
<!-- node_System(63)&#45;&gt;node_System(69) -->
<g id="edge29" class="edge">
<title>node_System(63)&#45;&gt;node_System(69)</title>
<path fill="none" stroke="black" d="M2390.31,-481.35C2426.61,-479.33 2467.65,-477.04 2504.45,-474.99"/>
<polygon fill="black" stroke="black" points="2504.43,-478.5 2514.22,-474.45 2504.04,-471.51 2504.43,-478.5"/>
</g>
<!-- node_System(64)&#45;&gt;node_System(67) -->
<g id="edge25" class="edge">
<title>node_System(64)&#45;&gt;node_System(67)</title>
<path fill="none" stroke="black" d="M2408.52,-577.43C2420.25,-579.99 2431.9,-582.84 2443,-586 2452.21,-588.62 2453.83,-591.27 2463,-594 2473.92,-597.25 2485.4,-600.27 2496.94,-603.02"/>
<polygon fill="black" stroke="black" points="2495.99,-606.4 2506.53,-605.24 2497.58,-599.58 2495.99,-606.4"/>
</g>
<!-- node_System(65)&#45;&gt;node_System(68) -->
<g id="edge27" class="edge">
<title>node_System(65)&#45;&gt;node_System(68)</title>
<path fill="none" stroke="black" d="M2317.72,-631.37C2351.32,-652.08 2409.21,-685.43 2463,-705 2473.83,-708.94 2485.3,-712.47 2496.86,-715.61"/>
<polygon fill="black" stroke="black" points="2495.94,-718.98 2506.5,-718.12 2497.7,-712.21 2495.94,-718.98"/>
</g>
<!-- set_marker_node_Set(82) -->
<!-- set_marker_node_Set(82)&#45;&gt;node_System(71) -->
<g id="edge31" class="edge">
<title>set_marker_node_Set(82)&#45;&gt;node_System(71)</title>
<path fill="none" stroke="black" d="M2763,-651C2775.39,-644.73 2771.34,-634.54 2783,-627 2791.21,-621.69 2800.47,-617.41 2809.92,-613.97"/>
<polygon fill="black" stroke="black" points="2810.8,-617.37 2819.19,-610.9 2808.6,-610.72 2810.8,-617.37"/>
</g>
<!-- set_marker_node_Set(83) -->
<!-- set_marker_node_Set(83)&#45;&gt;node_System(71) -->
<g id="edge32" class="edge">
<title>set_marker_node_Set(83)&#45;&gt;node_System(71)</title>
<path fill="none" stroke="black" d="M2756.5,-769.3C2758.75,-767.67 2760.92,-765.91 2763,-764 2808.31,-722.37 2742.33,-673.17 2783,-627 2790.2,-618.82 2799.65,-613.03 2809.82,-608.94"/>
<polygon fill="black" stroke="black" points="2810.85,-612.29 2819.19,-605.75 2808.59,-605.66 2810.85,-612.29"/>
</g>
<!-- set_marker_node_Set(84) -->
<!-- set_marker_node_Set(84)&#45;&gt;node_System(71) -->
<g id="edge33" class="edge">
<title>set_marker_node_Set(84)&#45;&gt;node_System(71)</title>
<path fill="none" stroke="black" d="M2701,-879.09C2723.89,-877.6 2746.71,-871.17 2763,-855 2799.09,-819.16 2750.49,-666.12 2783,-627 2790.12,-618.43 2799.71,-612.45 2810.1,-608.31"/>
<polygon fill="black" stroke="black" points="2810.89,-611.74 2819.26,-605.23 2808.66,-605.1 2810.89,-611.74"/>
</g>
<!-- set_marker_node_Set(85) -->
<!-- set_marker_node_Set(85)&#45;&gt;node_System(107) -->
<g id="edge53" class="edge">
<title>set_marker_node_Set(85)&#45;&gt;node_System(107)</title>
<path fill="none" stroke="black" d="M2949,-641.79C2960.26,-639.64 2970.9,-635.17 2979,-627 3016.67,-588.98 2963.82,-427.33 2999,-387 2999.35,-386.59 2999.71,-386.19 3000.07,-385.8"/>
<polygon fill="black" stroke="black" points="3002.18,-388.61 3007.2,-379.28 2997.46,-383.45 3002.18,-388.61"/>
</g>
<!-- set_marker_node_Set(85)&#45;&gt;node_System(105) -->
<g id="edge48" class="edge">
<title>set_marker_node_Set(85)&#45;&gt;node_System(105)</title>
<path fill="none" stroke="black" d="M2813,-642.9C2795.71,-640.64 2780.04,-633.8 2773,-618 2748.31,-562.55 2831.21,-389.09 2866.18,-320.41"/>
<polygon fill="black" stroke="black" points="2869.21,-322.16 2870.66,-311.67 2862.98,-318.96 2869.21,-322.16"/>
</g>
<!-- set_marker_node_Set(85)&#45;&gt;node_System(110) -->
<g id="edge62" class="edge">
<title>set_marker_node_Set(85)&#45;&gt;node_System(110)</title>
<path fill="none" stroke="black" d="M2949,-633.59C2959.19,-632.14 2969.48,-630.03 2979,-627 3117.89,-582.8 3127.94,-517.8 3263,-463 3267.34,-461.24 3271.84,-459.57 3276.41,-457.98"/>
<polygon fill="black" stroke="black" points="3277.33,-461.36 3285.74,-454.92 3275.15,-454.71 3277.33,-461.36"/>
</g>
<!-- set_marker_node_Set(86) -->
<!-- set_marker_node_Set(86)&#45;&gt;node_System(71) -->
<g id="edge34" class="edge">
<title>set_marker_node_Set(86)&#45;&gt;node_System(71)</title>
<path fill="none" stroke="black" d="M2686,-832.19C2713.47,-832.67 2742.97,-827.44 2763,-808 2792.04,-779.81 2756.79,-657.83 2783,-627 2790.1,-618.65 2799.55,-612.77 2809.76,-608.65"/>
<polygon fill="black" stroke="black" points="2810.83,-611.98 2819.18,-605.45 2808.58,-605.35 2810.83,-611.98"/>
</g>
<!-- set_marker_node_Set(116) -->
<!-- node_System(97)&#45;&gt;set_marker_node_Set(20) -->
<g id="edge41" class="edge">
<title>node_System(97)&#45;&gt;set_marker_node_Set(20)</title>
<path fill="none" stroke="black" d="M2103.71,-384.82C2140.33,-390.25 2185.65,-396.97 2222.06,-402.37"/>
<polygon fill="black" stroke="black" points="2221.16,-405.77 2231.56,-403.78 2222.19,-398.85 2221.16,-405.77"/>
</g>
<!-- set_marker_node_Set(117) -->
<!-- set_marker_node_Set(127) -->
<!-- node_System(104) -->
<g id="node65" class="node">
<title>node_System(104)</title>
<polygon fill="none" stroke="black" points="2693.5,-146 2532.5,-146 2532.5,-110 2693.5,-110 2693.5,-146"/>
<text text-anchor="middle" x="2613" y="-124.3" font-family="Times,serif" font-size="14.00">apply_system_buffers</text>
</g>
<!-- set_marker_node_Set(127)&#45;&gt;node_System(104) -->
<g id="edge45" class="edge">
<title>set_marker_node_Set(127)&#45;&gt;node_System(104)</title>
<path fill="none" stroke="black" d="M2555,-346.14C2516.06,-351.81 2469.06,-350.05 2453,-314 2446.08,-298.47 2446.08,-176.53 2453,-161 2464.66,-134.81 2492.06,-124.16 2520.95,-120.86"/>
<polygon fill="black" stroke="black" points="2520.88,-124.37 2530.56,-120.06 2520.31,-117.4 2520.88,-124.37"/>
</g>
<!-- node_System(103) -->
<g id="node45" class="node">
<title>node_System(103)</title>
<polygon fill="none" stroke="black" points="2663,-314 2563,-314 2563,-278 2663,-278 2663,-314"/>
<text text-anchor="middle" x="2613" y="-292.3" font-family="Times,serif" font-size="14.00">add_clusters</text>
</g>
<!-- node_System(103)&#45;&gt;node_System(105) -->
<g id="edge44" class="edge">
<title>node_System(103)&#45;&gt;node_System(105)</title>
<path fill="none" stroke="black" d="M2663.41,-295.26C2695.96,-294.77 2739.73,-294.11 2779.41,-293.51"/>
<polygon fill="black" stroke="black" points="2779.3,-297.01 2789.24,-293.36 2779.19,-290.02 2779.3,-297.01"/>
</g>
<!-- set_marker_node_Set(128) -->
<!-- set_marker_node_Set(128)&#45;&gt;node_System(110) -->
<g id="edge61" class="edge">
<title>set_marker_node_Set(128)&#45;&gt;node_System(110)</title>
<path fill="none" stroke="black" d="M3243,-415.52C3248.5,-416.4 3254.01,-417.29 3259.48,-418.17"/>
<polygon fill="black" stroke="black" points="3258.81,-421.61 3269.24,-419.75 3259.92,-414.7 3258.81,-421.61"/>
</g>
<!-- set_marker_node_Set(129) -->
<!-- set_marker_node_Set(129)&#45;&gt;node_System(108) -->
<g id="edge57" class="edge">
<title>set_marker_node_Set(129)&#45;&gt;node_System(108)</title>
<path fill="none" stroke="black" d="M2979,-254.37C2990.71,-254.17 3002.71,-253.97 3014.53,-253.77"/>
<polygon fill="black" stroke="black" points="3014.3,-257.28 3024.24,-253.61 3014.18,-250.28 3014.3,-257.28"/>
</g>
<!-- set_marker_node_Set(129)&#45;&gt;node_System(109) -->
<g id="edge59" class="edge">
<title>set_marker_node_Set(129)&#45;&gt;node_System(109)</title>
<path fill="none" stroke="black" d="M2979,-265C2989.19,-268.74 2989.07,-274.62 2999,-279 3005.33,-281.79 3011.98,-284.31 3018.77,-286.57"/>
<polygon fill="black" stroke="black" points="3017.5,-289.84 3028.09,-289.48 3019.58,-283.16 3017.5,-289.84"/>
</g>
<!-- set_marker_node_Set(130) -->
<!-- set_marker_node_Set(131) -->
<!-- set_marker_node_Set(131)&#45;&gt;node_System(107) -->
<g id="edge55" class="edge">
<title>set_marker_node_Set(131)&#45;&gt;node_System(107)</title>
<path fill="none" stroke="black" d="M2743.5,-555.53C2750.16,-554 2756.7,-552.17 2763,-550 2823.25,-529.2 2940.6,-412.52 2999,-387 3002.99,-385.26 3007.11,-383.62 3011.3,-382.08"/>
<polygon fill="black" stroke="black" points="3012.11,-385.51 3020.44,-378.96 3009.85,-378.88 3012.11,-385.51"/>
</g>
<!-- node_System(95)&#45;&gt;set_marker_node_Set(116) -->
<g id="edge38" class="edge">
<title>node_System(95)&#45;&gt;set_marker_node_Set(116)</title>
<path fill="none" stroke="black" d="M1844.41,-353.42C1874.58,-351.14 1914.55,-348.13 1950.12,-345.44"/>
<polygon fill="black" stroke="black" points="1950.29,-348.94 1959.99,-344.7 1949.76,-341.96 1950.29,-348.94"/>
</g>
<!-- node_System(96) -->
<g id="node59" class="node">
<title>node_System(96)</title>
<polygon fill="none" stroke="black" points="1932,-321 1660,-321 1660,-285 1932,-285 1932,-321"/>
<text text-anchor="middle" x="1796" y="-299.3" font-family="Times,serif" font-size="14.00">update_image_calculated_size_system</text>
</g>
<!-- node_System(96)&#45;&gt;set_marker_node_Set(116) -->
<g id="edge40" class="edge">
<title>node_System(96)&#45;&gt;set_marker_node_Set(116)</title>
<path fill="none" stroke="black" d="M1919.39,-321.47C1937.45,-324.2 1955.4,-326.91 1971.61,-329.36"/>
<polygon fill="black" stroke="black" points="1970.62,-332.75 1981.03,-330.78 1971.66,-325.82 1970.62,-332.75"/>
</g>
<!-- node_System(134) -->
<g id="node61" class="node">
<title>node_System(134)</title>
<polygon fill="none" stroke="black" points="2105,-468 1968,-468 1968,-432 2105,-432 2105,-468"/>
<text text-anchor="middle" x="2036.5" y="-446.3" font-family="Times,serif" font-size="14.00">animation_player</text>
</g>
<!-- node_System(134)&#45;&gt;set_marker_node_Set(20) -->
<g id="edge64" class="edge">
<title>node_System(134)&#45;&gt;set_marker_node_Set(20)</title>
<path fill="none" stroke="black" d="M2105.35,-439.67C2134.16,-435.28 2168.13,-430.1 2198.85,-425.43"/>
<polygon fill="black" stroke="black" points="2199.15,-428.92 2208.5,-423.96 2198.09,-422 2199.15,-428.92"/>
</g>
<!-- set_marker_node_Set(12)&#45;&gt;set_marker_node_Set(5) -->
<g id="edge11" class="edge">
<title>set_marker_node_Set(12)&#45;&gt;set_marker_node_Set(5)</title>
<path fill="none" stroke="black" d="M2059.5,-80C2088.34,-80 2140.84,-80 2188.14,-80"/>
<polygon fill="black" stroke="black" points="2187.99,-83.5 2197.99,-80 2187.99,-76.5 2187.99,-83.5"/>
</g>
<!-- set_marker_node_Set(58)&#45;&gt;set_marker_node_Set(7) -->
<g id="edge17" class="edge">
<title>set_marker_node_Set(58)&#45;&gt;set_marker_node_Set(7)</title>
<path fill="none" stroke="black" d="M260.5,-253.34C276.06,-257.6 294.08,-262.55 311.94,-267.44"/>
<polygon fill="black" stroke="black" points="310.97,-270.81 321.54,-270.08 312.82,-264.06 310.97,-270.81"/>
</g>
<!-- set_marker_node_Set(59)&#45;&gt;set_marker_node_Set(12) -->
<g id="edge20" class="edge">
<title>set_marker_node_Set(59)&#45;&gt;set_marker_node_Set(12)</title>
<path fill="none" stroke="black" d="M1844,-27.94C1869.98,-34.61 1902.81,-43.13 1932,-51 1956.05,-57.49 1983.16,-65.09 2003.6,-70.89"/>
<polygon fill="black" stroke="black" points="2002.47,-74.21 2013.05,-73.57 2004.38,-67.47 2002.47,-74.21"/>
</g>
<!-- node_System(104)&#45;&gt;set_marker_node_Set(129) -->
<g id="edge46" class="edge">
<title>node_System(104)&#45;&gt;set_marker_node_Set(129)</title>
<path fill="none" stroke="black" d="M2693.65,-137.87C2716.77,-142.63 2741.55,-149.66 2763,-160 2810.29,-182.81 2855.04,-228.5 2872.4,-247.46"/>
<polygon fill="black" stroke="black" points="2862.28,-242.45 2871.88,-246.94 2867.18,-237.44 2862.28,-242.45"/>
</g>
<!-- node_System(24) -->
<g id="node66" class="node">
<title>node_System(24)</title>
<polygon fill="none" stroke="black" points="466.5,-46 338.5,-46 338.5,-10 466.5,-10 466.5,-46"/>
<text text-anchor="middle" x="402.5" y="-24.3" font-family="Times,serif" font-size="14.00">node_System(24)</text>
</g>
<!-- node_System(24)&#45;&gt;node_System(25) -->
<g id="edge12" class="edge">
<title>node_System(24)&#45;&gt;node_System(25)</title>
<path fill="none" stroke="black" d="M466.89,-45.96C469.34,-47.22 471.72,-48.57 474,-50 489.44,-59.71 486.43,-70.5 502,-80 507.57,-83.4 513.52,-86.45 519.67,-89.19"/>
<polygon fill="black" stroke="black" points="518.17,-92.36 528.75,-92.93 520.84,-85.89 518.17,-92.36"/>
</g>
<!-- node_System(24)&#45;&gt;node_System(26) -->
<g id="edge13" class="edge">
<title>node_System(24)&#45;&gt;node_System(26)</title>
<path fill="none" stroke="black" d="M466.7,-29.74C531.22,-32.22 634.09,-38.13 722,-52 745.42,-55.7 770.59,-61.2 793.43,-66.8"/>
<polygon fill="black" stroke="black" points="792.42,-70.15 802.97,-69.18 794.11,-63.36 792.42,-70.15"/>
</g>
<!-- node_System(24)&#45;&gt;node_System(27) -->
<g id="edge15" class="edge">
<title>node_System(24)&#45;&gt;node_System(27)</title>
<path fill="none" stroke="black" d="M466.9,-44.34C478.53,-47.08 490.6,-49.76 502,-52 599.02,-71.06 631.79,-44.52 722,-85 741,-93.53 739.39,-105.66 758,-115 761.09,-116.55 764.27,-118.01 767.51,-119.39"/>
<polygon fill="black" stroke="black" points="766.08,-122.59 776.66,-122.98 768.63,-116.07 766.08,-122.59"/>
</g>
<!-- node_System(57) -->
<g id="node67" class="node">
<title>node_System(57)</title>
<polygon fill="none" stroke="black" points="1434.5,-321 1306.5,-321 1306.5,-285 1434.5,-285 1434.5,-321"/>
<text text-anchor="middle" x="1370.5" y="-299.3" font-family="Times,serif" font-size="14.00">node_System(57)</text>
</g>
<!-- node_System(57)&#45;&gt;node_System(58) -->
<g id="edge21" class="edge">
<title>node_System(57)&#45;&gt;node_System(58)</title>
<path fill="none" stroke="black" d="M1434.62,-318.63C1442.91,-321.17 1451.22,-323.97 1459,-327 1477.12,-334.05 1496.34,-343.49 1512.74,-352.21"/>
<polygon fill="black" stroke="black" points="1510.77,-355.12 1521.23,-356.79 1514.09,-348.96 1510.77,-355.12"/>
</g>
</g>
</svg>
