<?xml version="1.0" encoding="UTF-8" standalone="no"?>
<!DOCTYPE svg PUBLIC "-//W3C//DTD SVG 1.1//EN"
 "http://www.w3.org/Graphics/SVG/1.1/DTD/svg11.dtd">
<!-- Generated by graphviz version 8.0.1 (0)
 -->
<!-- Pages: 1 -->
<svg width="1409pt" height="110pt"
 viewBox="0.00 0.00 1409.00 110.00" xmlns="http://www.w3.org/2000/svg" xmlns:xlink="http://www.w3.org/1999/xlink">
<g id="graph0" class="graph" transform="scale(1 1) rotate(0) translate(4 106)">
<polygon fill="#0d1117" stroke="none" points="-4,4 -4,-106 1405,-106 1405,4 -4,4"/>
<g id="clust1" class="cluster">
<title>clusternode_Set(0)</title>
<g id="a_clust1"><a xlink:title="Update">
<path fill="#ffffff" fill-opacity="0.266667" stroke="#ffffff" stroke-width="2" stroke-opacity="0.313725" d="M666,-8C666,-8 813,-8 813,-8 819,-8 825,-14 825,-20 825,-20 825,-82 825,-82 825,-88 819,-94 813,-94 813,-94 666,-94 666,-94 660,-94 654,-88 654,-82 654,-82 654,-20 654,-20 654,-14 660,-8 666,-8"/>
<text text-anchor="middle" x="739.5" y="-78.8" font-family="Helvetica,sans-Serif" font-size="14.00">Update</text>
</a>
</g>
</g>
<g id="clust2" class="cluster">
<title>clusternode_Set(2)</title>
<g id="a_clust2"><a xlink:title="FirstFlush">
<path fill="#ffffff" fill-opacity="0.266667" stroke="#ffffff" stroke-width="2" stroke-opacity="0.313725" d="M81,-55C81,-55 133,-55 133,-55 139,-55 145,-61 145,-67 145,-67 145,-82 145,-82 145,-88 139,-94 133,-94 133,-94 81,-94 81,-94 75,-94 69,-88 69,-82 69,-82 69,-67 69,-67 69,-61 75,-55 81,-55"/>
<text text-anchor="middle" x="107" y="-78.8" font-family="Helvetica,sans-Serif" font-size="14.00">FirstFlush</text>
</a>
</g>
</g>
<g id="clust3" class="cluster">
<title>clusternode_Set(3)</title>
<g id="a_clust3"><a xlink:title="PreUpdateFlush">
<path fill="#ffffff" fill-opacity="0.266667" stroke="#ffffff" stroke-width="2" stroke-opacity="0.313725" d="M284,-55C284,-55 374,-55 374,-55 380,-55 386,-61 386,-67 386,-67 386,-82 386,-82 386,-88 380,-94 374,-94 374,-94 284,-94 284,-94 278,-94 272,-88 272,-82 272,-82 272,-67 272,-67 272,-61 278,-55 284,-55"/>
<text text-anchor="middle" x="329" y="-78.8" font-family="Helvetica,sans-Serif" font-size="14.00">PreUpdateFlush</text>
</a>
</g>
</g>
<g id="clust4" class="cluster">
<title>clusternode_Set(4)</title>
<g id="a_clust4"><a xlink:title="UpdateFlush">
<path fill="#ffffff" fill-opacity="0.266667" stroke="#ffffff" stroke-width="2" stroke-opacity="0.313725" d="M857,-55C857,-55 926,-55 926,-55 932,-55 938,-61 938,-67 938,-67 938,-82 938,-82 938,-88 932,-94 926,-94 926,-94 857,-94 857,-94 851,-94 845,-88 845,-82 845,-82 845,-67 845,-67 845,-61 851,-55 857,-55"/>
<text text-anchor="middle" x="891.5" y="-78.8" font-family="Helvetica,sans-Serif" font-size="14.00">UpdateFlush</text>
</a>
</g>
</g>
<g id="clust5" class="cluster">
<title>clusternode_Set(5)</title>
<g id="a_clust5"><a xlink:title="PostUpdateFlush">
<path fill="#ffffff" fill-opacity="0.266667" stroke="#ffffff" stroke-width="2" stroke-opacity="0.313725" d="M1134,-55C1134,-55 1230,-55 1230,-55 1236,-55 1242,-61 1242,-67 1242,-67 1242,-82 1242,-82 1242,-88 1236,-94 1230,-94 1230,-94 1134,-94 1134,-94 1128,-94 1122,-88 1122,-82 1122,-82 1122,-67 1122,-67 1122,-61 1128,-55 1134,-55"/>
<text text-anchor="middle" x="1182" y="-78.8" font-family="Helvetica,sans-Serif" font-size="14.00">PostUpdateFlush</text>
</a>
</g>
</g>
<g id="clust6" class="cluster">
<title>clusternode_Set(6)</title>
<g id="a_clust6"><a xlink:title="LastFlush">
<path fill="#ffffff" fill-opacity="0.266667" stroke="#ffffff" stroke-width="2" stroke-opacity="0.313725" d="M1337,-31C1337,-31 1389,-31 1389,-31 1395,-31 1401,-37 1401,-43 1401,-43 1401,-58 1401,-58 1401,-64 1395,-70 1389,-70 1389,-70 1337,-70 1337,-70 1331,-70 1325,-64 1325,-58 1325,-58 1325,-43 1325,-43 1325,-37 1331,-31 1337,-31"/>
<text text-anchor="middle" x="1363" y="-54.8" font-family="Helvetica,sans-Serif" font-size="14.00">LastFlush</text>
</a>
</g>
</g>
<g id="clust7" class="cluster">
<title>clusternode_Set(7)</title>
<g id="a_clust7"><a xlink:title="First">
<path fill="#ffffff" fill-opacity="0.266667" stroke="#ffffff" stroke-width="2" stroke-opacity="0.313725" d="M12,-31C12,-31 31,-31 31,-31 37,-31 43,-37 43,-43 43,-43 43,-58 43,-58 43,-64 37,-70 31,-70 31,-70 12,-70 12,-70 6,-70 0,-64 0,-58 0,-58 0,-43 0,-43 0,-37 6,-31 12,-31"/>
<text text-anchor="middle" x="21.5" y="-54.8" font-family="Helvetica,sans-Serif" font-size="14.00">First</text>
</a>
</g>
</g>
<g id="clust8" class="cluster">
<title>clusternode_Set(8)</title>
<g id="a_clust8"><a xlink:title="PreUpdate">
<path fill="#ffffff" fill-opacity="0.266667" stroke="#ffffff" stroke-width="2" stroke-opacity="0.313725" d="M183,-55C183,-55 240,-55 240,-55 246,-55 252,-61 252,-67 252,-67 252,-82 252,-82 252,-88 246,-94 240,-94 240,-94 183,-94 183,-94 177,-94 171,-88 171,-82 171,-82 171,-67 171,-67 171,-61 177,-55 183,-55"/>
<text text-anchor="middle" x="211.5" y="-78.8" font-family="Helvetica,sans-Serif" font-size="14.00">PreUpdate</text>
</a>
</g>
</g>
<g id="clust9" class="cluster">
<title>clusternode_Set(9)</title>
<g id="a_clust9"><a xlink:title="StateTransitions">
<path fill="#ffffff" fill-opacity="0.266667" stroke="#ffffff" stroke-width="2" stroke-opacity="0.313725" d="M418,-55C418,-55 509,-55 509,-55 515,-55 521,-61 521,-67 521,-67 521,-82 521,-82 521,-88 515,-94 509,-94 509,-94 418,-94 418,-94 412,-94 406,-88 406,-82 406,-82 406,-67 406,-67 406,-61 412,-55 418,-55"/>
<text text-anchor="middle" x="463.5" y="-78.8" font-family="Helvetica,sans-Serif" font-size="14.00">StateTransitions</text>
</a>
</g>
</g>
<g id="clust10" class="cluster">
<title>clusternode_Set(10)</title>
<g id="a_clust10"><a xlink:title="FixedUpdate">
<path fill="#ffffff" fill-opacity="0.266667" stroke="#ffffff" stroke-width="2" stroke-opacity="0.313725" d="M553,-55C553,-55 622,-55 622,-55 628,-55 634,-61 634,-67 634,-67 634,-82 634,-82 634,-88 628,-94 622,-94 622,-94 553,-94 553,-94 547,-94 541,-88 541,-82 541,-82 541,-67 541,-67 541,-61 547,-55 553,-55"/>
<text text-anchor="middle" x="587.5" y="-78.8" font-family="Helvetica,sans-Serif" font-size="14.00">FixedUpdate</text>
</a>
</g>
</g>
<g id="clust11" class="cluster">
<title>clusternode_Set(11)</title>
<g id="a_clust11"><a xlink:title="PostUpdate">
<path fill="#ffffff" fill-opacity="0.266667" stroke="#ffffff" stroke-width="2" stroke-opacity="0.313725" d="M970,-8C970,-8 1090,-8 1090,-8 1096,-8 1102,-14 1102,-20 1102,-20 1102,-82 1102,-82 1102,-88 1096,-94 1090,-94 1090,-94 970,-94 970,-94 964,-94 958,-88 958,-82 958,-82 958,-20 958,-20 958,-14 964,-8 970,-8"/>
<text text-anchor="middle" x="1030" y="-78.8" font-family="Helvetica,sans-Serif" font-size="14.00">PostUpdate</text>
</a>
</g>
</g>
<g id="clust12" class="cluster">
<title>clusternode_Set(12)</title>
<g id="a_clust12"><a xlink:title="Last">
<path fill="#ffffff" fill-opacity="0.266667" stroke="#ffffff" stroke-width="2" stroke-opacity="0.313725" d="M1274,-31C1274,-31 1293,-31 1293,-31 1299,-31 1305,-37 1305,-43 1305,-43 1305,-58 1305,-58 1305,-64 1299,-70 1293,-70 1293,-70 1274,-70 1274,-70 1268,-70 1262,-64 1262,-58 1262,-58 1262,-43 1262,-43 1262,-37 1268,-31 1274,-31"/>
<text text-anchor="middle" x="1283.5" y="-54.8" font-family="Helvetica,sans-Serif" font-size="14.00">Last</text>
</a>
</g>
</g>
<g id="clust13" class="cluster">
<title>clusternode_Set(59)</title>
<g id="a_clust13"><a xlink:title="LoadAssets">
<path fill="#ffffff" fill-opacity="0.266667" stroke="#ffffff" stroke-width="2" stroke-opacity="0.313725" d="M75,-8C75,-8 139,-8 139,-8 145,-8 151,-14 151,-20 151,-20 151,-35 151,-35 151,-41 145,-47 139,-47 139,-47 75,-47 75,-47 69,-47 63,-41 63,-35 63,-35 63,-20 63,-20 63,-14 69,-8 75,-8"/>
<text text-anchor="middle" x="107" y="-31.8" font-family="Helvetica,sans-Serif" font-size="14.00">LoadAssets</text>
</a>
</g>
</g>
<g id="clust14" class="cluster">
<title>clusternode_Set(60)</title>
<g id="a_clust14"><a xlink:title="AssetEvents">
<path fill="#ffffff" fill-opacity="0.266667" stroke="#ffffff" stroke-width="2" stroke-opacity="0.313725" d="M1148,-8C1148,-8 1216,-8 1216,-8 1222,-8 1228,-14 1228,-20 1228,-20 1228,-35 1228,-35 1228,-41 1222,-47 1216,-47 1216,-47 1148,-47 1148,-47 1142,-47 1136,-41 1136,-35 1136,-35 1136,-20 1136,-20 1136,-14 1142,-8 1148,-8"/>
<text text-anchor="middle" x="1182" y="-31.8" font-family="Helvetica,sans-Serif" font-size="14.00">AssetEvents</text>
</a>
</g>
</g>
<!-- set_marker_node_Set(0) -->
<!-- set_marker_node_Set(4) -->
<!-- set_marker_node_Set(0)&#45;&gt;set_marker_node_Set(4) -->
<g id="edge7" class="edge">
<title>set_marker_node_Set(0)&#45;&gt;set_marker_node_Set(4)</title>
<g id="a_edge7"><a xlink:title="Update → UpdateFlush">
<path fill="none" stroke="#ee9e44" stroke-width="2" d="M825,-63C827.36,-63 829.71,-63 832.04,-63"/>
<polygon fill="#ee9e44" stroke="#ee9e44" stroke-width="2" points="832,-66.5 842,-63 832,-59.5 832,-66.5"/>
</a>
</g>
</g>
<!-- node_System(46) -->
<g id="node2" class="node">
<title>node_System(46)</title>
<g id="a_node2"><a xlink:title="bevy_window::system::close_when_requested">
<polygon fill="#bb85d4" stroke="#8e3fb3" points="817,-52 662,-52 662,-16 817,-16 817,-52"/>
<text text-anchor="middle" x="739.5" y="-30.3" font-family="Helvetica,sans-Serif" font-size="14.00" fill="#1d0d25">close_when_requested</text>
</a>
</g>
</g>
<!-- set_marker_node_Set(2) -->
<!-- set_marker_node_Set(8) -->
<!-- set_marker_node_Set(2)&#45;&gt;set_marker_node_Set(8) -->
<g id="edge2" class="edge">
<title>set_marker_node_Set(2)&#45;&gt;set_marker_node_Set(8)</title>
<g id="a_edge2"><a xlink:title="FirstFlush → PreUpdate">
<path fill="none" stroke="#881877" stroke-width="2" d="M145,-63C149.33,-63 153.82,-63 158.31,-63"/>
<polygon fill="#881877" stroke="#881877" stroke-width="2" points="158,-66.5 168,-63 158,-59.5 158,-66.5"/>
</a>
</g>
</g>
<!-- set_marker_node_Set(3) -->
<!-- set_marker_node_Set(9) -->
<!-- set_marker_node_Set(3)&#45;&gt;set_marker_node_Set(9) -->
<g id="edge4" class="edge">
<title>set_marker_node_Set(3)&#45;&gt;set_marker_node_Set(9)</title>
<g id="a_edge4"><a xlink:title="PreUpdateFlush → StateTransitions">
<path fill="none" stroke="#aa3a55" stroke-width="2" d="M386,-63C388.39,-63 390.79,-63 393.21,-63"/>
<polygon fill="#aa3a55" stroke="#aa3a55" stroke-width="2" points="393,-66.5 403,-63 393,-59.5 393,-66.5"/>
</a>
</g>
</g>
<!-- set_marker_node_Set(11) -->
<!-- set_marker_node_Set(4)&#45;&gt;set_marker_node_Set(11) -->
<g id="edge8" class="edge">
<title>set_marker_node_Set(4)&#45;&gt;set_marker_node_Set(11)</title>
<g id="a_edge8"><a xlink:title="UpdateFlush → PostUpdate">
<path fill="none" stroke="#663699" stroke-width="2" d="M938,-63C940.37,-63 942.79,-63 945.23,-63"/>
<polygon fill="#663699" stroke="#663699" stroke-width="2" points="945,-66.5 955,-63 945,-59.5 945,-66.5"/>
</a>
</g>
</g>
<!-- set_marker_node_Set(5) -->
<!-- set_marker_node_Set(12) -->
<!-- set_marker_node_Set(5)&#45;&gt;set_marker_node_Set(12) -->
<g id="edge10" class="edge">
<title>set_marker_node_Set(5)&#45;&gt;set_marker_node_Set(12)</title>
<g id="a_edge10"><a xlink:title="PostUpdateFlush → Last">
<path fill="none" stroke="#22c2bb" stroke-width="2" d="M1217.02,-55C1225.2,-53.06 1233.92,-50.97 1242,-49 1244.44,-48.4 1246.97,-47.78 1249.51,-47.16"/>
<polygon fill="#22c2bb" stroke="#22c2bb" stroke-width="2" points="1251.14,-49.86 1260,-44.05 1249.45,-43.07 1251.14,-49.86"/>
</a>
</g>
</g>
<!-- set_marker_node_Set(6) -->
<!-- set_marker_node_Set(7) -->
<!-- set_marker_node_Set(7)&#45;&gt;set_marker_node_Set(2) -->
<g id="edge1" class="edge">
<title>set_marker_node_Set(7)&#45;&gt;set_marker_node_Set(2)</title>
<g id="a_edge1"><a xlink:title="First → FirstFlush">
<path fill="none" stroke="#eede00" stroke-width="2" d="M43,-45C49.88,-46.97 57.78,-49.22 65.61,-51.46"/>
<polygon fill="#eede00" stroke="#eede00" stroke-width="2" points="65.44,-55.62 76.01,-55 67.36,-48.89 65.44,-55.62"/>
</a>
</g>
</g>
<!-- set_marker_node_Set(59) -->
<!-- set_marker_node_Set(7)&#45;&gt;set_marker_node_Set(59) -->
<g id="edge13" class="edge">
<title>set_marker_node_Set(7)&#45;&gt;set_marker_node_Set(59)</title>
<g id="a_edge13"><a xlink:title="First → LoadAssets">
<path fill="none" stroke="#881877" stroke-width="2" d="M43,-33.25C45.41,-32.59 47.94,-31.9 50.55,-31.18"/>
<polygon fill="#881877" stroke="#881877" stroke-width="2" points="52.28,-33.79 61,-27.77 50.43,-27.04 52.28,-33.79"/>
</a>
</g>
</g>
<!-- set_marker_node_Set(8)&#45;&gt;set_marker_node_Set(3) -->
<g id="edge3" class="edge">
<title>set_marker_node_Set(8)&#45;&gt;set_marker_node_Set(3)</title>
<g id="a_edge3"><a xlink:title="PreUpdate → PreUpdateFlush">
<path fill="none" stroke="#00b0cc" stroke-width="2" d="M252,-63C254.38,-63 256.8,-63 259.25,-63"/>
<polygon fill="#00b0cc" stroke="#00b0cc" stroke-width="2" points="259,-66.5 269,-63 259,-59.5 259,-66.5"/>
</a>
</g>
</g>
<!-- set_marker_node_Set(10) -->
<!-- set_marker_node_Set(9)&#45;&gt;set_marker_node_Set(10) -->
<g id="edge5" class="edge">
<title>set_marker_node_Set(9)&#45;&gt;set_marker_node_Set(10)</title>
<g id="a_edge5"><a xlink:title="StateTransitions → FixedUpdate">
<path fill="none" stroke="#44d488" stroke-width="2" d="M521,-63C523.35,-63 525.71,-63 528.07,-63"/>
<polygon fill="#44d488" stroke="#44d488" stroke-width="2" points="528,-66.5 538,-63 528,-59.5 528,-66.5"/>
</a>
</g>
</g>
<!-- set_marker_node_Set(10)&#45;&gt;set_marker_node_Set(0) -->
<g id="edge6" class="edge">
<title>set_marker_node_Set(10)&#45;&gt;set_marker_node_Set(0)</title>
<g id="a_edge6"><a xlink:title="FixedUpdate → Update">
<path fill="none" stroke="#0090cc" stroke-width="2" d="M634,-63C636.41,-63 638.87,-63 641.37,-63"/>
<polygon fill="#0090cc" stroke="#0090cc" stroke-width="2" points="641,-66.5 651,-63 641,-59.5 641,-66.5"/>
</a>
</g>
</g>
<!-- set_marker_node_Set(11)&#45;&gt;set_marker_node_Set(5) -->
<g id="edge9" class="edge">
<title>set_marker_node_Set(11)&#45;&gt;set_marker_node_Set(5)</title>
<g id="a_edge9"><a xlink:title="PostUpdate → PostUpdateFlush">
<path fill="none" stroke="#3363bb" stroke-width="2" d="M1102,-63C1104.47,-63 1106.94,-63 1109.41,-63"/>
<polygon fill="#3363bb" stroke="#3363bb" stroke-width="2" points="1109,-66.5 1119,-63 1109,-59.5 1109,-66.5"/>
</a>
</g>
</g>
<!-- set_marker_node_Set(60) -->
<!-- set_marker_node_Set(11)&#45;&gt;set_marker_node_Set(60) -->
<g id="edge14" class="edge">
<title>set_marker_node_Set(11)&#45;&gt;set_marker_node_Set(60)</title>
<g id="a_edge14"><a xlink:title="PostUpdate → AssetEvents">
<path fill="none" stroke="#00b0cc" stroke-width="2" d="M1102,-58C1109.45,-55.86 1117.01,-52.96 1124.33,-49.67"/>
<polygon fill="#00b0cc" stroke="#00b0cc" stroke-width="2" points="1126.51,-52.54 1134,-45.05 1123.47,-46.24 1126.51,-52.54"/>
</a>
</g>
</g>
<!-- node_System(45) -->
<g id="node13" class="node">
<title>node_System(45)</title>
<g id="a_node13"><a xlink:title="bevy_window::system::exit_on_all_closed">
<polygon fill="#bb85d4" stroke="#8e3fb3" points="1094,-52 966,-52 966,-16 1094,-16 1094,-52"/>
<text text-anchor="middle" x="1030" y="-30.3" font-family="Helvetica,sans-Serif" font-size="14.00" fill="#1d0d25">exit_on_all_closed</text>
</a>
</g>
</g>
<!-- set_marker_node_Set(12)&#45;&gt;set_marker_node_Set(6) -->
<g id="edge11" class="edge">
<title>set_marker_node_Set(12)&#45;&gt;set_marker_node_Set(6)</title>
<g id="a_edge11"><a xlink:title="Last → LastFlush">
<path fill="none" stroke="#99d955" stroke-width="2" d="M1305,-39C1307.33,-39 1309.78,-39 1312.29,-39"/>
<polygon fill="#99d955" stroke="#99d955" stroke-width="2" points="1312,-42.5 1322,-39 1312,-35.5 1312,-42.5"/>
</a>
</g>
</g>
<!-- set_marker_node_Set(59)&#45;&gt;set_marker_node_Set(8) -->
<g id="edge12" class="edge">
<title>set_marker_node_Set(59)&#45;&gt;set_marker_node_Set(8)</title>
<g id="a_edge12"><a xlink:title="LoadAssets → PreUpdate">
<path fill="none" stroke="#eede00" stroke-width="2" d="M151,-35.81C161.09,-40.46 171.61,-45.31 180.92,-49.6"/>
<polygon fill="#eede00" stroke="#eede00" stroke-width="2" points="180.1,-53 190.64,-54 183.03,-46.64 180.1,-53"/>
</a>
</g>
</g>
<!-- set_marker_node_Set(60)&#45;&gt;set_marker_node_Set(12) -->
<g id="edge15" class="edge">
<title>set_marker_node_Set(60)&#45;&gt;set_marker_node_Set(12)</title>
<g id="a_edge15"><a xlink:title="AssetEvents → Last">
<path fill="none" stroke="#aa3a55" stroke-width="2" d="M1228,-26.45C1235.22,-28.13 1242.58,-29.84 1249.44,-31.43"/>
<polygon fill="#aa3a55" stroke="#aa3a55" stroke-width="2" points="1249.47,-35.5 1260,-34.35 1251.05,-28.68 1249.47,-35.5"/>
</a>
</g>
</g>
</g>
</svg>
