<?xml version="1.0" encoding="UTF-8" standalone="no"?>
<!DOCTYPE svg PUBLIC "-//W3C//DTD SVG 1.1//EN"
 "http://www.w3.org/Graphics/SVG/1.1/DTD/svg11.dtd">
<!-- Generated by graphviz version 7.1.0 (0)
 -->
<!-- Pages: 1 -->
<svg width="1536pt" height="211pt"
 viewBox="0.00 0.00 1536.00 211.00" xmlns="http://www.w3.org/2000/svg" xmlns:xlink="http://www.w3.org/1999/xlink">
<g id="graph0" class="graph" transform="scale(1 1) rotate(0) translate(4 207)">
<polygon fill="#0d1117" stroke="none" points="-4,4 -4,-207 1532,-207 1532,4 -4,4"/>
<g id="clust1" class="cluster">
<title>clusternode_Set(0)</title>
<g id="a_clust1"><a xlink:title="Update">
<polygon fill="#6f90ad" stroke="black" points="825,-102 825,-141 890,-141 890,-102 825,-102"/>
<text text-anchor="middle" x="857.5" y="-125.8" font-family="Helvetica,sans-Serif" font-size="14.00">Update</text>
</a>
</g>
</g>
<g id="clust2" class="cluster">
<title>clusternode_Set(2)</title>
<g id="a_clust2"><a xlink:title="FirstFlush">
<polygon fill="#6f90ad" stroke="black" points="204,-125 204,-164 286,-164 286,-125 204,-125"/>
<text text-anchor="middle" x="245" y="-148.8" font-family="Helvetica,sans-Serif" font-size="14.00">FirstFlush</text>
</a>
</g>
</g>
<g id="clust3" class="cluster">
<title>clusternode_Set(3)</title>
<g id="a_clust3"><a xlink:title="PreUpdateFlush">
<polygon fill="#6f90ad" stroke="black" points="418,-102 418,-141 541,-141 541,-102 418,-102"/>
<text text-anchor="middle" x="479.5" y="-125.8" font-family="Helvetica,sans-Serif" font-size="14.00">PreUpdateFlush</text>
</a>
</g>
</g>
<g id="clust4" class="cluster">
<title>clusternode_Set(4)</title>
<g id="a_clust4"><a xlink:title="UpdateFlush">
<polygon fill="#6f90ad" stroke="black" points="910,-102 910,-141 1011,-141 1011,-102 910,-102"/>
<text text-anchor="middle" x="960.5" y="-125.8" font-family="Helvetica,sans-Serif" font-size="14.00">UpdateFlush</text>
</a>
</g>
</g>
<g id="clust5" class="cluster">
<title>clusternode_Set(5)</title>
<g id="a_clust5"><a xlink:title="PostUpdateFlush">
<polygon fill="#6f90ad" stroke="black" points="1224,-55 1224,-94 1353,-94 1353,-55 1224,-55"/>
<text text-anchor="middle" x="1288.5" y="-78.8" font-family="Helvetica,sans-Serif" font-size="14.00">PostUpdateFlush</text>
</a>
</g>
</g>
<g id="clust6" class="cluster">
<title>clusternode_Set(6)</title>
<g id="a_clust6"><a xlink:title="LastFlush">
<polygon fill="#6f90ad" stroke="black" points="1448,-31 1448,-70 1528,-70 1528,-31 1448,-31"/>
<text text-anchor="middle" x="1488" y="-54.8" font-family="Helvetica,sans-Serif" font-size="14.00">LastFlush</text>
</a>
</g>
</g>
<g id="clust7" class="cluster">
<title>clusternode_Set(7)</title>
<g id="a_clust7"><a xlink:title="First">
<polygon fill="#6f90ad" stroke="black" points="67,-86 67,-125 113,-125 113,-86 67,-86"/>
<text text-anchor="middle" x="90" y="-109.8" font-family="Helvetica,sans-Serif" font-size="14.00">First</text>
</a>
</g>
</g>
<g id="clust8" class="cluster">
<title>clusternode_Set(8)</title>
<g id="a_clust8"><a xlink:title="PreUpdate">
<polygon fill="#6f90ad" stroke="black" points="311,-102 311,-141 398,-141 398,-102 311,-102"/>
<text text-anchor="middle" x="354.5" y="-125.8" font-family="Helvetica,sans-Serif" font-size="14.00">PreUpdate</text>
</a>
</g>
</g>
<g id="clust9" class="cluster">
<title>clusternode_Set(9)</title>
<g id="a_clust9"><a xlink:title="StateTransitions">
<polygon fill="#6f90ad" stroke="black" points="561,-102 561,-141 685,-141 685,-102 561,-102"/>
<text text-anchor="middle" x="623" y="-125.8" font-family="Helvetica,sans-Serif" font-size="14.00">StateTransitions</text>
</a>
</g>
</g>
<g id="clust10" class="cluster">
<title>clusternode_Set(10)</title>
<g id="a_clust10"><a xlink:title="FixedUpdate">
<polygon fill="#6f90ad" stroke="black" points="705,-102 705,-141 805,-141 805,-102 705,-102"/>
<text text-anchor="middle" x="755" y="-125.8" font-family="Helvetica,sans-Serif" font-size="14.00">FixedUpdate</text>
</a>
</g>
</g>
<g id="clust11" class="cluster">
<title>clusternode_Set(11)</title>
<g id="a_clust11"><a xlink:title="PostUpdate">
<polygon fill="#6f90ad" stroke="black" points="1031,-102 1031,-195 1372,-195 1372,-102 1031,-102"/>
<text text-anchor="middle" x="1201.5" y="-179.8" font-family="Helvetica,sans-Serif" font-size="14.00">PostUpdate</text>
</a>
</g>
</g>
<g id="clust12" class="cluster">
<title>clusternode_Set(20)</title>
<g id="a_clust12"><a xlink:title="TransformPropagate">
<polygon fill="#6f90ad" stroke="black" points="1212,-125 1212,-164 1364,-164 1364,-125 1212,-125"/>
<text text-anchor="middle" x="1288" y="-148.8" font-family="Helvetica,sans-Serif" font-size="14.00">TransformPropagate</text>
</a>
</g>
</g>
<g id="clust13" class="cluster">
<title>clusternode_Set(12)</title>
<g id="a_clust13"><a xlink:title="Last">
<polygon fill="#6f90ad" stroke="black" points="1384,-31 1384,-70 1428,-70 1428,-31 1384,-31"/>
<text text-anchor="middle" x="1406" y="-54.8" font-family="Helvetica,sans-Serif" font-size="14.00">Last</text>
</a>
</g>
</g>
<g id="clust14" class="cluster">
<title>clusternode_Set(22)</title>
<g id="a_clust14"><a xlink:title="PropagateTransformsSet">
<polygon fill="#6f90ad" stroke="black" points="0,-148 0,-187 180,-187 180,-148 0,-148"/>
<text text-anchor="middle" x="90" y="-171.8" font-family="Helvetica,sans-Serif" font-size="14.00">PropagateTransformsSet</text>
</a>
</g>
</g>
<g id="clust15" class="cluster">
<title>clusternode_Set(59)</title>
<g id="a_clust15"><a xlink:title="LoadAssets">
<polygon fill="#6f90ad" stroke="black" points="200,-78 200,-117 291,-117 291,-78 200,-78"/>
<text text-anchor="middle" x="245.5" y="-101.8" font-family="Helvetica,sans-Serif" font-size="14.00">LoadAssets</text>
</a>
</g>
</g>
<g id="clust16" class="cluster">
<title>clusternode_Set(60)</title>
<g id="a_clust16"><a xlink:title="AssetEvents">
<polygon fill="#6f90ad" stroke="black" points="1240,-8 1240,-47 1336,-47 1336,-8 1240,-8"/>
<text text-anchor="middle" x="1288" y="-31.8" font-family="Helvetica,sans-Serif" font-size="14.00">AssetEvents</text>
</a>
</g>
</g>
<!-- set_marker_node_Set(0) -->
<!-- set_marker_node_Set(4) -->
<!-- set_marker_node_Set(0)&#45;&gt;set_marker_node_Set(4) -->
<g id="edge7" class="edge">
<title>set_marker_node_Set(0)&#45;&gt;set_marker_node_Set(4)</title>
<g id="a_edge7"><a xlink:title="Update → UpdateFlush">
<path fill="none" stroke="#ee9e44" stroke-width="2" d="M890,-110C892.35,-110 894.77,-110 897.22,-110"/>
<polygon fill="#ee9e44" stroke="#ee9e44" stroke-width="2" points="896.97,-113.5 906.97,-110 896.97,-106.5 896.97,-113.5"/>
</a>
</g>
</g>
<!-- set_marker_node_Set(2) -->
<!-- set_marker_node_Set(8) -->
<!-- set_marker_node_Set(2)&#45;&gt;set_marker_node_Set(8) -->
<g id="edge2" class="edge">
<title>set_marker_node_Set(2)&#45;&gt;set_marker_node_Set(8)</title>
<g id="a_edge2"><a xlink:title="FirstFlush → PreUpdate">
<path fill="none" stroke="#881877" stroke-width="2" d="M283.2,-125C288.17,-123.94 293.34,-122.82 298.52,-121.71"/>
<polygon fill="#881877" stroke="#881877" stroke-width="2" points="299,-125.19 308.04,-119.66 297.53,-118.34 299,-125.19"/>
</a>
</g>
</g>
<!-- set_marker_node_Set(3) -->
<!-- set_marker_node_Set(9) -->
<!-- set_marker_node_Set(3)&#45;&gt;set_marker_node_Set(9) -->
<g id="edge4" class="edge">
<title>set_marker_node_Set(3)&#45;&gt;set_marker_node_Set(9)</title>
<g id="a_edge4"><a xlink:title="PreUpdateFlush → StateTransitions">
<path fill="none" stroke="#aa3a55" stroke-width="2" d="M541,-110C543.39,-110 545.8,-110 548.21,-110"/>
<polygon fill="#aa3a55" stroke="#aa3a55" stroke-width="2" points="547.98,-113.5 557.98,-110 547.98,-106.5 547.98,-113.5"/>
</a>
</g>
</g>
<!-- set_marker_node_Set(11) -->
<!-- set_marker_node_Set(4)&#45;&gt;set_marker_node_Set(11) -->
<g id="edge8" class="edge">
<title>set_marker_node_Set(4)&#45;&gt;set_marker_node_Set(11)</title>
<g id="a_edge8"><a xlink:title="UpdateFlush → PostUpdate">
<path fill="none" stroke="#663699" stroke-width="2" d="M1011,-110C1013.38,-110 1015.8,-110 1018.24,-110"/>
<polygon fill="#663699" stroke="#663699" stroke-width="2" points="1017.98,-113.5 1027.98,-110 1017.98,-106.5 1017.98,-113.5"/>
</a>
</g>
</g>
<!-- set_marker_node_Set(5) -->
<!-- set_marker_node_Set(12) -->
<!-- set_marker_node_Set(5)&#45;&gt;set_marker_node_Set(12) -->
<g id="edge10" class="edge">
<title>set_marker_node_Set(5)&#45;&gt;set_marker_node_Set(12)</title>
<g id="a_edge10"><a xlink:title="PostUpdateFlush → Last">
<path fill="none" stroke="#22c2bb" stroke-width="2" d="M1349.86,-55C1356.79,-53.7 1364.03,-52.21 1371.41,-50.49"/>
<polygon fill="#22c2bb" stroke="#22c2bb" stroke-width="2" points="1372.21,-53.9 1381.07,-48.09 1370.52,-47.1 1372.21,-53.9"/>
</a>
</g>
</g>
<!-- set_marker_node_Set(6) -->
<!-- set_marker_node_Set(7) -->
<!-- set_marker_node_Set(7)&#45;&gt;set_marker_node_Set(2) -->
<g id="edge1" class="edge">
<title>set_marker_node_Set(7)&#45;&gt;set_marker_node_Set(2)</title>
<g id="a_edge1"><a xlink:title="First → FirstFlush">
<path fill="none" stroke="#eede00" stroke-width="2" d="M113,-99.61C135.67,-105.39 171.64,-114.55 200.15,-121.82"/>
<polygon fill="#eede00" stroke="#eede00" stroke-width="2" points="199.13,-125.17 209.69,-124.25 200.86,-118.39 199.13,-125.17"/>
</a>
</g>
</g>
<!-- set_marker_node_Set(59) -->
<!-- set_marker_node_Set(7)&#45;&gt;set_marker_node_Set(59) -->
<g id="edge13" class="edge">
<title>set_marker_node_Set(7)&#45;&gt;set_marker_node_Set(59)</title>
<g id="a_edge13"><a xlink:title="First → LoadAssets">
<path fill="none" stroke="#881877" stroke-width="2" d="M113,-92.85C132.35,-91.84 161.38,-90.32 187.19,-88.97"/>
<polygon fill="#881877" stroke="#881877" stroke-width="2" points="187.18,-92.48 196.98,-88.46 186.81,-85.49 187.18,-92.48"/>
</a>
</g>
</g>
<!-- set_marker_node_Set(8)&#45;&gt;set_marker_node_Set(3) -->
<g id="edge3" class="edge">
<title>set_marker_node_Set(8)&#45;&gt;set_marker_node_Set(3)</title>
<g id="a_edge3"><a xlink:title="PreUpdate → PreUpdateFlush">
<path fill="none" stroke="#00b0cc" stroke-width="2" d="M398,-110C400.39,-110 402.82,-110 405.28,-110"/>
<polygon fill="#00b0cc" stroke="#00b0cc" stroke-width="2" points="404.98,-113.5 414.98,-110 404.98,-106.5 404.98,-113.5"/>
</a>
</g>
</g>
<!-- set_marker_node_Set(10) -->
<!-- set_marker_node_Set(9)&#45;&gt;set_marker_node_Set(10) -->
<g id="edge5" class="edge">
<title>set_marker_node_Set(9)&#45;&gt;set_marker_node_Set(10)</title>
<g id="a_edge5"><a xlink:title="StateTransitions → FixedUpdate">
<path fill="none" stroke="#44d488" stroke-width="2" d="M685,-110C687.39,-110 689.79,-110 692.19,-110"/>
<polygon fill="#44d488" stroke="#44d488" stroke-width="2" points="691.98,-113.5 701.98,-110 691.98,-106.5 691.98,-113.5"/>
</a>
</g>
</g>
<!-- set_marker_node_Set(10)&#45;&gt;set_marker_node_Set(0) -->
<g id="edge6" class="edge">
<title>set_marker_node_Set(10)&#45;&gt;set_marker_node_Set(0)</title>
<g id="a_edge6"><a xlink:title="FixedUpdate → Update">
<path fill="none" stroke="#0090cc" stroke-width="2" d="M805,-110C807.37,-110 809.75,-110 812.11,-110"/>
<polygon fill="#0090cc" stroke="#0090cc" stroke-width="2" points="811.98,-113.5 821.98,-110 811.98,-106.5 811.98,-113.5"/>
</a>
</g>
</g>
<!-- set_marker_node_Set(11)&#45;&gt;set_marker_node_Set(5) -->
<g id="edge9" class="edge">
<title>set_marker_node_Set(11)&#45;&gt;set_marker_node_Set(5)</title>
<g id="a_edge9"><a xlink:title="PostUpdate → PostUpdateFlush">
<path fill="none" stroke="#3363bb" stroke-width="2" d="M1138.87,-102C1158.85,-96.74 1185.94,-89.61 1211.48,-82.88"/>
<polygon fill="#3363bb" stroke="#3363bb" stroke-width="2" points="1212.3,-86.29 1221.08,-80.36 1210.51,-79.52 1212.3,-86.29"/>
</a>
</g>
</g>
<!-- set_marker_node_Set(60) -->
<!-- set_marker_node_Set(11)&#45;&gt;set_marker_node_Set(60) -->
<g id="edge14" class="edge">
<title>set_marker_node_Set(11)&#45;&gt;set_marker_node_Set(60)</title>
<g id="a_edge14"><a xlink:title="PostUpdate → AssetEvents">
<path fill="none" stroke="#00b0cc" stroke-width="2" d="M1121.72,-102C1141.21,-90.31 1178.94,-68.1 1212,-51 1217.32,-48.25 1222.9,-45.46 1228.51,-42.73"/>
<polygon fill="#00b0cc" stroke="#00b0cc" stroke-width="2" points="1229.77,-46.01 1237.27,-38.53 1226.74,-39.7 1229.77,-46.01"/>
</a>
</g>
</g>
<!-- set_marker_node_Set(20) -->
<!-- node_System(147) -->
<g id="node13" class="node">
<title>node_System(147)</title>
<g id="a_node13"><a xlink:title="bevy_animation::animation_player">
<polygon fill="#eff1f3" stroke="#eff1f3" points="1176,-164 1039,-164 1039,-128 1176,-128 1176,-164"/>
<text text-anchor="middle" x="1107.5" y="-142.3" font-family="Times,serif" font-size="14.00">animation_player</text>
</a>
</g>
</g>
<!-- node_System(147)&#45;&gt;set_marker_node_Set(20) -->
<g id="edge16" class="edge">
<title>node_System(147)&#45;&gt;set_marker_node_Set(20)</title>
<g id="a_edge16"><a xlink:title="animation_player → TransformPropagate">
<path fill="none" stroke="#44d488" stroke-width="2" d="M1176.49,-141.05C1183.93,-140.51 1191.58,-139.95 1199.21,-139.39"/>
<polygon fill="#44d488" stroke="#44d488" stroke-width="2" points="1199.26,-142.9 1208.98,-138.68 1198.76,-135.92 1199.26,-142.9"/>
</a>
</g>
</g>
<!-- set_marker_node_Set(12)&#45;&gt;set_marker_node_Set(6) -->
<g id="edge11" class="edge">
<title>set_marker_node_Set(12)&#45;&gt;set_marker_node_Set(6)</title>
<g id="a_edge11"><a xlink:title="Last → LastFlush">
<path fill="none" stroke="#99d955" stroke-width="2" d="M1428,-39C1430.31,-39 1432.74,-39 1435.23,-39"/>
<polygon fill="#99d955" stroke="#99d955" stroke-width="2" points="1434.98,-42.5 1444.98,-39 1434.98,-35.5 1434.98,-42.5"/>
</a>
</g>
</g>
<!-- set_marker_node_Set(22) -->
<!-- set_marker_node_Set(59)&#45;&gt;set_marker_node_Set(8) -->
<g id="edge12" class="edge">
<title>set_marker_node_Set(59)&#45;&gt;set_marker_node_Set(8)</title>
<g id="a_edge12"><a xlink:title="LoadAssets → PreUpdate">
<path fill="none" stroke="#eede00" stroke-width="2" d="M291,-96.09C295.6,-97.12 300.28,-98.18 304.91,-99.21"/>
<polygon fill="#eede00" stroke="#eede00" stroke-width="2" points="303.87,-102.57 314.39,-101.34 305.4,-95.74 303.87,-102.57"/>
</a>
</g>
</g>
<!-- set_marker_node_Set(60)&#45;&gt;set_marker_node_Set(12) -->
<g id="edge15" class="edge">
<title>set_marker_node_Set(60)&#45;&gt;set_marker_node_Set(12)</title>
<g id="a_edge15"><a xlink:title="AssetEvents → Last">
<path fill="none" stroke="#aa3a55" stroke-width="2" d="M1336,-25.32C1347.9,-27.68 1360.45,-30.17 1371.53,-32.36"/>
<polygon fill="#aa3a55" stroke="#aa3a55" stroke-width="2" points="1370.54,-35.74 1381.03,-34.25 1371.91,-28.87 1370.54,-35.74"/>
</a>
</g>
</g>
</g>
</svg>
