<?xml version="1.0" encoding="UTF-8" standalone="no"?>
<!DOCTYPE svg PUBLIC "-//W3C//DTD SVG 1.1//EN"
 "http://www.w3.org/Graphics/SVG/1.1/DTD/svg11.dtd">
<!-- Generated by graphviz version 7.1.0 (0)
 -->
<!-- Pages: 1 -->
<svg width="1487pt" height="110pt"
 viewBox="0.00 0.00 1487.00 110.00" xmlns="http://www.w3.org/2000/svg" xmlns:xlink="http://www.w3.org/1999/xlink">
<g id="graph0" class="graph" transform="scale(1 1) rotate(0) translate(4 106)">
<polygon fill="#0d1117" stroke="none" points="-4,4 -4,-106 1483,-106 1483,4 -4,4"/>
<g id="clust1" class="cluster">
<title>clusternode_Set(0)</title>
<g id="a_clust1"><a xlink:title="Update">
<path fill="#ffffff" fill-opacity="0.266667" stroke="#ffffff" stroke-width="2" stroke-opacity="0.313725" d="M703,-8C703,-8 863,-8 863,-8 869,-8 875,-14 875,-20 875,-20 875,-82 875,-82 875,-88 869,-94 863,-94 863,-94 703,-94 703,-94 697,-94 691,-88 691,-82 691,-82 691,-20 691,-20 691,-14 697,-8 703,-8"/>
<text text-anchor="middle" x="783" y="-78.8" font-family="Helvetica,sans-Serif" font-size="14.00">Update</text>
</a>
</g>
</g>
<g id="clust2" class="cluster">
<title>clusternode_Set(2)</title>
<g id="a_clust2"><a xlink:title="FirstFlush">
<path fill="#ffffff" fill-opacity="0.266667" stroke="#ffffff" stroke-width="2" stroke-opacity="0.313725" d="M82,-55C82,-55 140,-55 140,-55 146,-55 152,-61 152,-67 152,-67 152,-82 152,-82 152,-88 146,-94 140,-94 140,-94 82,-94 82,-94 76,-94 70,-88 70,-82 70,-82 70,-67 70,-67 70,-61 76,-55 82,-55"/>
<text text-anchor="middle" x="111" y="-78.8" font-family="Helvetica,sans-Serif" font-size="14.00">FirstFlush</text>
</a>
</g>
</g>
<g id="clust3" class="cluster">
<title>clusternode_Set(3)</title>
<g id="a_clust3"><a xlink:title="PreUpdateFlush">
<path fill="#ffffff" fill-opacity="0.266667" stroke="#ffffff" stroke-width="2" stroke-opacity="0.313725" d="M296,-55C296,-55 395,-55 395,-55 401,-55 407,-61 407,-67 407,-67 407,-82 407,-82 407,-88 401,-94 395,-94 395,-94 296,-94 296,-94 290,-94 284,-88 284,-82 284,-82 284,-67 284,-67 284,-61 290,-55 296,-55"/>
<text text-anchor="middle" x="345.5" y="-78.8" font-family="Helvetica,sans-Serif" font-size="14.00">PreUpdateFlush</text>
</a>
</g>
</g>
<g id="clust4" class="cluster">
<title>clusternode_Set(4)</title>
<g id="a_clust4"><a xlink:title="UpdateFlush">
<path fill="#ffffff" fill-opacity="0.266667" stroke="#ffffff" stroke-width="2" stroke-opacity="0.313725" d="M907,-55C907,-55 984,-55 984,-55 990,-55 996,-61 996,-67 996,-67 996,-82 996,-82 996,-88 990,-94 984,-94 984,-94 907,-94 907,-94 901,-94 895,-88 895,-82 895,-82 895,-67 895,-67 895,-61 901,-55 907,-55"/>
<text text-anchor="middle" x="945.5" y="-78.8" font-family="Helvetica,sans-Serif" font-size="14.00">UpdateFlush</text>
</a>
</g>
</g>
<g id="clust5" class="cluster">
<title>clusternode_Set(5)</title>
<g id="a_clust5"><a xlink:title="PostUpdateFlush">
<path fill="#ffffff" fill-opacity="0.266667" stroke="#ffffff" stroke-width="2" stroke-opacity="0.313725" d="M1198,-55C1198,-55 1303,-55 1303,-55 1309,-55 1315,-61 1315,-67 1315,-67 1315,-82 1315,-82 1315,-88 1309,-94 1303,-94 1303,-94 1198,-94 1198,-94 1192,-94 1186,-88 1186,-82 1186,-82 1186,-67 1186,-67 1186,-61 1192,-55 1198,-55"/>
<text text-anchor="middle" x="1250.5" y="-78.8" font-family="Helvetica,sans-Serif" font-size="14.00">PostUpdateFlush</text>
</a>
</g>
</g>
<g id="clust6" class="cluster">
<title>clusternode_Set(6)</title>
<g id="a_clust6"><a xlink:title="LastFlush">
<path fill="#ffffff" fill-opacity="0.266667" stroke="#ffffff" stroke-width="2" stroke-opacity="0.313725" d="M1411,-31C1411,-31 1467,-31 1467,-31 1473,-31 1479,-37 1479,-43 1479,-43 1479,-58 1479,-58 1479,-64 1473,-70 1467,-70 1467,-70 1411,-70 1411,-70 1405,-70 1399,-64 1399,-58 1399,-58 1399,-43 1399,-43 1399,-37 1405,-31 1411,-31"/>
<text text-anchor="middle" x="1439" y="-54.8" font-family="Helvetica,sans-Serif" font-size="14.00">LastFlush</text>
</a>
</g>
</g>
<g id="clust7" class="cluster">
<title>clusternode_Set(7)</title>
<g id="a_clust7"><a xlink:title="First">
<path fill="#ffffff" fill-opacity="0.266667" stroke="#ffffff" stroke-width="2" stroke-opacity="0.313725" d="M12,-31C12,-31 34,-31 34,-31 40,-31 46,-37 46,-43 46,-43 46,-58 46,-58 46,-64 40,-70 34,-70 34,-70 12,-70 12,-70 6,-70 0,-64 0,-58 0,-58 0,-43 0,-43 0,-37 6,-31 12,-31"/>
<text text-anchor="middle" x="23" y="-54.8" font-family="Helvetica,sans-Serif" font-size="14.00">First</text>
</a>
</g>
</g>
<g id="clust8" class="cluster">
<title>clusternode_Set(8)</title>
<g id="a_clust8"><a xlink:title="PreUpdate">
<path fill="#ffffff" fill-opacity="0.266667" stroke="#ffffff" stroke-width="2" stroke-opacity="0.313725" d="M189,-55C189,-55 252,-55 252,-55 258,-55 264,-61 264,-67 264,-67 264,-82 264,-82 264,-88 258,-94 252,-94 252,-94 189,-94 189,-94 183,-94 177,-88 177,-82 177,-82 177,-67 177,-67 177,-61 183,-55 189,-55"/>
<text text-anchor="middle" x="220.5" y="-78.8" font-family="Helvetica,sans-Serif" font-size="14.00">PreUpdate</text>
</a>
</g>
</g>
<g id="clust9" class="cluster">
<title>clusternode_Set(9)</title>
<g id="a_clust9"><a xlink:title="StateTransitions">
<path fill="#ffffff" fill-opacity="0.266667" stroke="#ffffff" stroke-width="2" stroke-opacity="0.313725" d="M439,-55C439,-55 539,-55 539,-55 545,-55 551,-61 551,-67 551,-67 551,-82 551,-82 551,-88 545,-94 539,-94 539,-94 439,-94 439,-94 433,-94 427,-88 427,-82 427,-82 427,-67 427,-67 427,-61 433,-55 439,-55"/>
<text text-anchor="middle" x="489" y="-78.8" font-family="Helvetica,sans-Serif" font-size="14.00">StateTransitions</text>
</a>
</g>
</g>
<g id="clust10" class="cluster">
<title>clusternode_Set(10)</title>
<g id="a_clust10"><a xlink:title="FixedUpdate">
<path fill="#ffffff" fill-opacity="0.266667" stroke="#ffffff" stroke-width="2" stroke-opacity="0.313725" d="M583,-55C583,-55 659,-55 659,-55 665,-55 671,-61 671,-67 671,-67 671,-82 671,-82 671,-88 665,-94 659,-94 659,-94 583,-94 583,-94 577,-94 571,-88 571,-82 571,-82 571,-67 571,-67 571,-61 577,-55 583,-55"/>
<text text-anchor="middle" x="621" y="-78.8" font-family="Helvetica,sans-Serif" font-size="14.00">FixedUpdate</text>
</a>
</g>
</g>
<g id="clust11" class="cluster">
<title>clusternode_Set(11)</title>
<g id="a_clust11"><a xlink:title="PostUpdate">
<path fill="#ffffff" fill-opacity="0.266667" stroke="#ffffff" stroke-width="2" stroke-opacity="0.313725" d="M1028,-8C1028,-8 1154,-8 1154,-8 1160,-8 1166,-14 1166,-20 1166,-20 1166,-82 1166,-82 1166,-88 1160,-94 1154,-94 1154,-94 1028,-94 1028,-94 1022,-94 1016,-88 1016,-82 1016,-82 1016,-20 1016,-20 1016,-14 1022,-8 1028,-8"/>
<text text-anchor="middle" x="1091" y="-78.8" font-family="Helvetica,sans-Serif" font-size="14.00">PostUpdate</text>
</a>
</g>
</g>
<g id="clust12" class="cluster">
<title>clusternode_Set(12)</title>
<g id="a_clust12"><a xlink:title="Last">
<path fill="#ffffff" fill-opacity="0.266667" stroke="#ffffff" stroke-width="2" stroke-opacity="0.313725" d="M1347,-31C1347,-31 1367,-31 1367,-31 1373,-31 1379,-37 1379,-43 1379,-43 1379,-58 1379,-58 1379,-64 1373,-70 1367,-70 1367,-70 1347,-70 1347,-70 1341,-70 1335,-64 1335,-58 1335,-58 1335,-43 1335,-43 1335,-37 1341,-31 1347,-31"/>
<text text-anchor="middle" x="1357" y="-54.8" font-family="Helvetica,sans-Serif" font-size="14.00">Last</text>
</a>
</g>
</g>
<g id="clust13" class="cluster">
<title>clusternode_Set(59)</title>
<g id="a_clust13"><a xlink:title="LoadAssets">
<path fill="#ffffff" fill-opacity="0.266667" stroke="#ffffff" stroke-width="2" stroke-opacity="0.313725" d="M78,-8C78,-8 145,-8 145,-8 151,-8 157,-14 157,-20 157,-20 157,-35 157,-35 157,-41 151,-47 145,-47 145,-47 78,-47 78,-47 72,-47 66,-41 66,-35 66,-35 66,-20 66,-20 66,-14 72,-8 78,-8"/>
<text text-anchor="middle" x="111.5" y="-31.8" font-family="Helvetica,sans-Serif" font-size="14.00">LoadAssets</text>
</a>
</g>
</g>
<g id="clust14" class="cluster">
<title>clusternode_Set(60)</title>
<g id="a_clust14"><a xlink:title="AssetEvents">
<path fill="#ffffff" fill-opacity="0.266667" stroke="#ffffff" stroke-width="2" stroke-opacity="0.313725" d="M1214,-8C1214,-8 1286,-8 1286,-8 1292,-8 1298,-14 1298,-20 1298,-20 1298,-35 1298,-35 1298,-41 1292,-47 1286,-47 1286,-47 1214,-47 1214,-47 1208,-47 1202,-41 1202,-35 1202,-35 1202,-20 1202,-20 1202,-14 1208,-8 1214,-8"/>
<text text-anchor="middle" x="1250" y="-31.8" font-family="Helvetica,sans-Serif" font-size="14.00">AssetEvents</text>
</a>
</g>
</g>
<!-- set_marker_node_Set(0) -->
<!-- set_marker_node_Set(4) -->
<!-- set_marker_node_Set(0)&#45;&gt;set_marker_node_Set(4) -->
<g id="edge7" class="edge">
<title>set_marker_node_Set(0)&#45;&gt;set_marker_node_Set(4)</title>
<g id="a_edge7"><a xlink:title="Update → UpdateFlush">
<path fill="none" stroke="#ee9e44" stroke-width="2" d="M875,-63C877.35,-63 879.7,-63 882.02,-63"/>
<polygon fill="#ee9e44" stroke="#ee9e44" stroke-width="2" points="881.98,-66.5 891.98,-63 881.98,-59.5 881.98,-66.5"/>
</a>
</g>
</g>
<!-- node_System(46) -->
<g id="node2" class="node">
<title>node_System(46)</title>
<g id="a_node2"><a xlink:title="bevy_window::system::close_when_requested">
<polygon fill="#bb85d4" stroke="#8e3fb3" points="867,-52 699,-52 699,-16 867,-16 867,-52"/>
<text text-anchor="middle" x="783" y="-30.3" font-family="Helvetica,sans-Serif" font-size="14.00" fill="#1d0d25">close_when_requested</text>
</a>
</g>
</g>
<!-- set_marker_node_Set(2) -->
<!-- set_marker_node_Set(8) -->
<!-- set_marker_node_Set(2)&#45;&gt;set_marker_node_Set(8) -->
<g id="edge2" class="edge">
<title>set_marker_node_Set(2)&#45;&gt;set_marker_node_Set(8)</title>
<g id="a_edge2"><a xlink:title="FirstFlush → PreUpdate">
<path fill="none" stroke="#881877" stroke-width="2" d="M152,-63C155.98,-63 160.07,-63 164.17,-63"/>
<polygon fill="#881877" stroke="#881877" stroke-width="2" points="163.98,-66.5 173.98,-63 163.98,-59.5 163.98,-66.5"/>
</a>
</g>
</g>
<!-- set_marker_node_Set(3) -->
<!-- set_marker_node_Set(9) -->
<!-- set_marker_node_Set(3)&#45;&gt;set_marker_node_Set(9) -->
<g id="edge4" class="edge">
<title>set_marker_node_Set(3)&#45;&gt;set_marker_node_Set(9)</title>
<g id="a_edge4"><a xlink:title="PreUpdateFlush → StateTransitions">
<path fill="none" stroke="#aa3a55" stroke-width="2" d="M407,-63C409.39,-63 411.8,-63 414.21,-63"/>
<polygon fill="#aa3a55" stroke="#aa3a55" stroke-width="2" points="413.98,-66.5 423.98,-63 413.98,-59.5 413.98,-66.5"/>
</a>
</g>
</g>
<!-- set_marker_node_Set(11) -->
<!-- set_marker_node_Set(4)&#45;&gt;set_marker_node_Set(11) -->
<g id="edge8" class="edge">
<title>set_marker_node_Set(4)&#45;&gt;set_marker_node_Set(11)</title>
<g id="a_edge8"><a xlink:title="UpdateFlush → PostUpdate">
<path fill="none" stroke="#663699" stroke-width="2" d="M996,-63C998.39,-63 1000.82,-63 1003.27,-63"/>
<polygon fill="#663699" stroke="#663699" stroke-width="2" points="1002.98,-66.5 1012.98,-63 1002.98,-59.5 1002.98,-66.5"/>
</a>
</g>
</g>
<!-- set_marker_node_Set(5) -->
<!-- set_marker_node_Set(12) -->
<!-- set_marker_node_Set(5)&#45;&gt;set_marker_node_Set(12) -->
<g id="edge10" class="edge">
<title>set_marker_node_Set(5)&#45;&gt;set_marker_node_Set(12)</title>
<g id="a_edge10"><a xlink:title="PostUpdateFlush → Last">
<path fill="none" stroke="#22c2bb" stroke-width="2" d="M1288.29,-55C1297.06,-53.08 1306.37,-51 1315,-49 1317.44,-48.44 1319.96,-47.84 1322.5,-47.24"/>
<polygon fill="#22c2bb" stroke="#22c2bb" stroke-width="2" points="1323.16,-50.68 1332.06,-44.93 1321.52,-43.88 1323.16,-50.68"/>
</a>
</g>
</g>
<!-- set_marker_node_Set(6) -->
<!-- set_marker_node_Set(7) -->
<!-- set_marker_node_Set(7)&#45;&gt;set_marker_node_Set(2) -->
<g id="edge1" class="edge">
<title>set_marker_node_Set(7)&#45;&gt;set_marker_node_Set(2)</title>
<g id="a_edge1"><a xlink:title="First → FirstFlush">
<path fill="none" stroke="#eede00" stroke-width="2" d="M46,-45.14C53.02,-47.1 61.02,-49.33 68.95,-51.54"/>
<polygon fill="#eede00" stroke="#eede00" stroke-width="2" points="67.85,-54.87 78.43,-54.19 69.74,-48.13 67.85,-54.87"/>
</a>
</g>
</g>
<!-- set_marker_node_Set(59) -->
<!-- set_marker_node_Set(7)&#45;&gt;set_marker_node_Set(59) -->
<g id="edge13" class="edge">
<title>set_marker_node_Set(7)&#45;&gt;set_marker_node_Set(59)</title>
<g id="a_edge13"><a xlink:title="First → LoadAssets">
<path fill="none" stroke="#881877" stroke-width="2" d="M46,-33.12C48.46,-32.46 51.05,-31.77 53.71,-31.05"/>
<polygon fill="#881877" stroke="#881877" stroke-width="2" points="54.32,-34.51 63.08,-28.55 52.51,-27.75 54.32,-34.51"/>
</a>
</g>
</g>
<!-- set_marker_node_Set(8)&#45;&gt;set_marker_node_Set(3) -->
<g id="edge3" class="edge">
<title>set_marker_node_Set(8)&#45;&gt;set_marker_node_Set(3)</title>
<g id="a_edge3"><a xlink:title="PreUpdate → PreUpdateFlush">
<path fill="none" stroke="#00b0cc" stroke-width="2" d="M264,-63C266.39,-63 268.82,-63 271.28,-63"/>
<polygon fill="#00b0cc" stroke="#00b0cc" stroke-width="2" points="270.98,-66.5 280.98,-63 270.98,-59.5 270.98,-66.5"/>
</a>
</g>
</g>
<!-- set_marker_node_Set(10) -->
<!-- set_marker_node_Set(9)&#45;&gt;set_marker_node_Set(10) -->
<g id="edge5" class="edge">
<title>set_marker_node_Set(9)&#45;&gt;set_marker_node_Set(10)</title>
<g id="a_edge5"><a xlink:title="StateTransitions → FixedUpdate">
<path fill="none" stroke="#44d488" stroke-width="2" d="M551,-63C553.39,-63 555.79,-63 558.19,-63"/>
<polygon fill="#44d488" stroke="#44d488" stroke-width="2" points="557.98,-66.5 567.98,-63 557.98,-59.5 557.98,-66.5"/>
</a>
</g>
</g>
<!-- set_marker_node_Set(10)&#45;&gt;set_marker_node_Set(0) -->
<g id="edge6" class="edge">
<title>set_marker_node_Set(10)&#45;&gt;set_marker_node_Set(0)</title>
<g id="a_edge6"><a xlink:title="FixedUpdate → Update">
<path fill="none" stroke="#0090cc" stroke-width="2" d="M671,-63C673.34,-63 675.73,-63 678.15,-63"/>
<polygon fill="#0090cc" stroke="#0090cc" stroke-width="2" points="677.98,-66.5 687.98,-63 677.98,-59.5 677.98,-66.5"/>
</a>
</g>
</g>
<!-- set_marker_node_Set(11)&#45;&gt;set_marker_node_Set(5) -->
<g id="edge9" class="edge">
<title>set_marker_node_Set(11)&#45;&gt;set_marker_node_Set(5)</title>
<g id="a_edge9"><a xlink:title="PostUpdate → PostUpdateFlush">
<path fill="none" stroke="#3363bb" stroke-width="2" d="M1166,-63C1168.39,-63 1170.78,-63 1173.18,-63"/>
<polygon fill="#3363bb" stroke="#3363bb" stroke-width="2" points="1172.97,-66.5 1182.97,-63 1172.97,-59.5 1172.97,-66.5"/>
</a>
</g>
</g>
<!-- set_marker_node_Set(60) -->
<!-- set_marker_node_Set(11)&#45;&gt;set_marker_node_Set(60) -->
<g id="edge14" class="edge">
<title>set_marker_node_Set(11)&#45;&gt;set_marker_node_Set(60)</title>
<g id="a_edge14"><a xlink:title="PostUpdate → AssetEvents">
<path fill="none" stroke="#00b0cc" stroke-width="2" d="M1166,-58C1174.06,-55.79 1182.25,-52.75 1190.19,-49.32"/>
<polygon fill="#00b0cc" stroke="#00b0cc" stroke-width="2" points="1191.65,-52.5 1199.25,-45.13 1188.71,-46.15 1191.65,-52.5"/>
</a>
</g>
</g>
<!-- node_System(45) -->
<g id="node13" class="node">
<title>node_System(45)</title>
<g id="a_node13"><a xlink:title="bevy_window::system::exit_on_all_closed">
<polygon fill="#bb85d4" stroke="#8e3fb3" points="1158,-52 1024,-52 1024,-16 1158,-16 1158,-52"/>
<text text-anchor="middle" x="1091" y="-30.3" font-family="Helvetica,sans-Serif" font-size="14.00" fill="#1d0d25">exit_on_all_closed</text>
</a>
</g>
</g>
<!-- set_marker_node_Set(12)&#45;&gt;set_marker_node_Set(6) -->
<g id="edge11" class="edge">
<title>set_marker_node_Set(12)&#45;&gt;set_marker_node_Set(6)</title>
<g id="a_edge11"><a xlink:title="Last → LastFlush">
<path fill="none" stroke="#99d955" stroke-width="2" d="M1379,-39C1381.31,-39 1383.74,-39 1386.23,-39"/>
<polygon fill="#99d955" stroke="#99d955" stroke-width="2" points="1385.98,-42.5 1395.98,-39 1385.98,-35.5 1385.98,-42.5"/>
</a>
</g>
</g>
<!-- set_marker_node_Set(59)&#45;&gt;set_marker_node_Set(8) -->
<g id="edge12" class="edge">
<title>set_marker_node_Set(59)&#45;&gt;set_marker_node_Set(8)</title>
<g id="a_edge12"><a xlink:title="LoadAssets → PreUpdate">
<path fill="none" stroke="#eede00" stroke-width="2" d="M157,-35.76C167.76,-40.49 179.01,-45.43 188.91,-49.78"/>
<polygon fill="#eede00" stroke="#eede00" stroke-width="2" points="187.46,-52.97 198.03,-53.79 190.28,-46.56 187.46,-52.97"/>
</a>
</g>
</g>
<!-- set_marker_node_Set(60)&#45;&gt;set_marker_node_Set(12) -->
<g id="edge15" class="edge">
<title>set_marker_node_Set(60)&#45;&gt;set_marker_node_Set(12)</title>
<g id="a_edge15"><a xlink:title="AssetEvents → Last">
<path fill="none" stroke="#aa3a55" stroke-width="2" d="M1298,-26.29C1306.25,-28.1 1314.69,-29.95 1322.48,-31.66"/>
<polygon fill="#aa3a55" stroke="#aa3a55" stroke-width="2" points="1321.53,-35.03 1332.04,-33.75 1323.02,-28.19 1321.53,-35.03"/>
</a>
</g>
</g>
</g>
</svg>
