<?xml version="1.0" encoding="UTF-8" standalone="no"?>
<!DOCTYPE svg PUBLIC "-//W3C//DTD SVG 1.1//EN"
 "http://www.w3.org/Graphics/SVG/1.1/DTD/svg11.dtd">
<!-- Generated by graphviz version 8.0.1 (0)
 -->
<!-- Pages: 1 -->
<svg width="1641pt" height="344pt"
 viewBox="0.00 0.00 1641.00 344.00" xmlns="http://www.w3.org/2000/svg" xmlns:xlink="http://www.w3.org/1999/xlink">
<g id="graph0" class="graph" transform="scale(1 1) rotate(0) translate(4 340)">
<polygon fill="#0d1117" stroke="none" points="-4,4 -4,-340 1637,-340 1637,4 -4,4"/>
<g id="clust1" class="cluster">
<title>clusternode_Set(0)</title>
<g id="a_clust1"><a xlink:title="Update">
<path fill="#ffffff" fill-opacity="0.266667" stroke="#ffffff" stroke-width="2" stroke-opacity="0.313725" d="M770,-8C770,-8 944,-8 944,-8 950,-8 956,-14 956,-20 956,-20 956,-269 956,-269 956,-275 950,-281 944,-281 944,-281 770,-281 770,-281 764,-281 758,-275 758,-269 758,-269 758,-20 758,-20 758,-14 764,-8 770,-8"/>
<text text-anchor="middle" x="857" y="-265.8" font-family="Helvetica,sans-Serif" font-size="14.00">Update</text>
</a>
</g>
</g>
<g id="clust2" class="cluster">
<title>clusternode_Set(2)</title>
<g id="a_clust2"><a xlink:title="FirstFlush">
<path fill="#ffffff" fill-opacity="0.266667" stroke="#ffffff" stroke-width="2" stroke-opacity="0.313725" d="M86,-262C86,-262 138,-262 138,-262 144,-262 150,-268 150,-274 150,-274 150,-289 150,-289 150,-295 144,-301 138,-301 138,-301 86,-301 86,-301 80,-301 74,-295 74,-289 74,-289 74,-274 74,-274 74,-268 80,-262 86,-262"/>
<text text-anchor="middle" x="112" y="-285.8" font-family="Helvetica,sans-Serif" font-size="14.00">FirstFlush</text>
</a>
</g>
</g>
<g id="clust3" class="cluster">
<title>clusternode_Set(3)</title>
<g id="a_clust3"><a xlink:title="PreUpdateFlush">
<path fill="#ffffff" fill-opacity="0.266667" stroke="#ffffff" stroke-width="2" stroke-opacity="0.313725" d="M283,-242C283,-242 373,-242 373,-242 379,-242 385,-248 385,-254 385,-254 385,-269 385,-269 385,-275 379,-281 373,-281 373,-281 283,-281 283,-281 277,-281 271,-275 271,-269 271,-269 271,-254 271,-254 271,-248 277,-242 283,-242"/>
<text text-anchor="middle" x="328" y="-265.8" font-family="Helvetica,sans-Serif" font-size="14.00">PreUpdateFlush</text>
</a>
</g>
</g>
<g id="clust4" class="cluster">
<title>clusternode_Set(4)</title>
<g id="a_clust4"><a xlink:title="UpdateFlush">
<path fill="#ffffff" fill-opacity="0.266667" stroke="#ffffff" stroke-width="2" stroke-opacity="0.313725" d="M987,-242C987,-242 1056,-242 1056,-242 1062,-242 1068,-248 1068,-254 1068,-254 1068,-269 1068,-269 1068,-275 1062,-281 1056,-281 1056,-281 987,-281 987,-281 981,-281 975,-275 975,-269 975,-269 975,-254 975,-254 975,-248 981,-242 987,-242"/>
<text text-anchor="middle" x="1021.5" y="-265.8" font-family="Helvetica,sans-Serif" font-size="14.00">UpdateFlush</text>
</a>
</g>
</g>
<g id="clust5" class="cluster">
<title>clusternode_Set(5)</title>
<g id="a_clust5"><a xlink:title="PostUpdateFlush">
<path fill="#ffffff" fill-opacity="0.266667" stroke="#ffffff" stroke-width="2" stroke-opacity="0.313725" d="M1201,-262C1201,-262 1297,-262 1297,-262 1303,-262 1309,-268 1309,-274 1309,-274 1309,-289 1309,-289 1309,-295 1303,-301 1297,-301 1297,-301 1201,-301 1201,-301 1195,-301 1189,-295 1189,-289 1189,-289 1189,-274 1189,-274 1189,-268 1195,-262 1201,-262"/>
<text text-anchor="middle" x="1249" y="-285.8" font-family="Helvetica,sans-Serif" font-size="14.00">PostUpdateFlush</text>
</a>
</g>
</g>
<g id="clust6" class="cluster">
<title>clusternode_Set(6)</title>
<g id="a_clust6"><a xlink:title="LastFlush">
<path fill="#ffffff" fill-opacity="0.266667" stroke="#ffffff" stroke-width="2" stroke-opacity="0.313725" d="M1529.5,-195C1529.5,-195 1581.5,-195 1581.5,-195 1587.5,-195 1593.5,-201 1593.5,-207 1593.5,-207 1593.5,-222 1593.5,-222 1593.5,-228 1587.5,-234 1581.5,-234 1581.5,-234 1529.5,-234 1529.5,-234 1523.5,-234 1517.5,-228 1517.5,-222 1517.5,-222 1517.5,-207 1517.5,-207 1517.5,-201 1523.5,-195 1529.5,-195"/>
<text text-anchor="middle" x="1555.5" y="-218.8" font-family="Helvetica,sans-Serif" font-size="14.00">LastFlush</text>
</a>
</g>
</g>
<g id="clust7" class="cluster">
<title>clusternode_Set(7)</title>
<g id="a_clust7"><a xlink:title="First">
<path fill="#ffffff" fill-opacity="0.266667" stroke="#ffffff" stroke-width="2" stroke-opacity="0.313725" d="M20,-242C20,-242 39,-242 39,-242 45,-242 51,-248 51,-254 51,-254 51,-269 51,-269 51,-275 45,-281 39,-281 39,-281 20,-281 20,-281 14,-281 8,-275 8,-269 8,-269 8,-254 8,-254 8,-248 14,-242 20,-242"/>
<text text-anchor="middle" x="29.5" y="-265.8" font-family="Helvetica,sans-Serif" font-size="14.00">First</text>
</a>
</g>
</g>
<g id="clust8" class="cluster">
<title>clusternode_Set(8)</title>
<g id="a_clust8"><a xlink:title="PreUpdate">
<path fill="#ffffff" fill-opacity="0.266667" stroke="#ffffff" stroke-width="2" stroke-opacity="0.313725" d="M185,-242C185,-242 242,-242 242,-242 248,-242 254,-248 254,-254 254,-254 254,-269 254,-269 254,-275 248,-281 242,-281 242,-281 185,-281 185,-281 179,-281 173,-275 173,-269 173,-269 173,-254 173,-254 173,-248 179,-242 185,-242"/>
<text text-anchor="middle" x="213.5" y="-265.8" font-family="Helvetica,sans-Serif" font-size="14.00">PreUpdate</text>
</a>
</g>
</g>
<g id="clust9" class="cluster">
<title>clusternode_Set(9)</title>
<g id="a_clust9"><a xlink:title="StateTransitions">
<path fill="#ffffff" fill-opacity="0.266667" stroke="#ffffff" stroke-width="2" stroke-opacity="0.313725" d="M414,-242C414,-242 505,-242 505,-242 511,-242 517,-248 517,-254 517,-254 517,-269 517,-269 517,-275 511,-281 505,-281 505,-281 414,-281 414,-281 408,-281 402,-275 402,-269 402,-269 402,-254 402,-254 402,-248 408,-242 414,-242"/>
<text text-anchor="middle" x="459.5" y="-265.8" font-family="Helvetica,sans-Serif" font-size="14.00">StateTransitions</text>
</a>
</g>
</g>
<g id="clust10" class="cluster">
<title>clusternode_Set(10)</title>
<g id="a_clust10"><a xlink:title="FixedUpdate">
<path fill="#ffffff" fill-opacity="0.266667" stroke="#ffffff" stroke-width="2" stroke-opacity="0.313725" d="M546,-242C546,-242 615,-242 615,-242 621,-242 627,-248 627,-254 627,-254 627,-269 627,-269 627,-275 621,-281 615,-281 615,-281 546,-281 546,-281 540,-281 534,-275 534,-269 534,-269 534,-254 534,-254 534,-248 540,-242 546,-242"/>
<text text-anchor="middle" x="580.5" y="-265.8" font-family="Helvetica,sans-Serif" font-size="14.00">FixedUpdate</text>
</a>
</g>
</g>
<g id="clust11" class="cluster">
<title>clusternode_Set(11)</title>
<g id="a_clust11"><a xlink:title="PostUpdate">
<path fill="#ffffff" fill-opacity="0.266667" stroke="#ffffff" stroke-width="2" stroke-opacity="0.313725" d="M1097,-242C1097,-242 1160,-242 1160,-242 1166,-242 1172,-248 1172,-254 1172,-254 1172,-269 1172,-269 1172,-275 1166,-281 1160,-281 1160,-281 1097,-281 1097,-281 1091,-281 1085,-275 1085,-269 1085,-269 1085,-254 1085,-254 1085,-248 1091,-242 1097,-242"/>
<text text-anchor="middle" x="1128.5" y="-265.8" font-family="Helvetica,sans-Serif" font-size="14.00">PostUpdate</text>
</a>
</g>
</g>
<g id="clust12" class="cluster">
<title>clusternode_Set(12)</title>
<g id="a_clust12"><a xlink:title="Last">
<path fill="#ffffff" fill-opacity="0.266667" stroke="#ffffff" stroke-width="2" stroke-opacity="0.313725" d="M1340,-242C1340,-242 1613,-242 1613,-242 1619,-242 1625,-248 1625,-254 1625,-254 1625,-316 1625,-316 1625,-322 1619,-328 1613,-328 1613,-328 1340,-328 1340,-328 1334,-328 1328,-322 1328,-316 1328,-316 1328,-254 1328,-254 1328,-248 1334,-242 1340,-242"/>
<text text-anchor="middle" x="1476.5" y="-312.8" font-family="Helvetica,sans-Serif" font-size="14.00">Last</text>
</a>
</g>
</g>
<g id="clust13" class="cluster">
<title>clusternode_Set(59)</title>
<g id="a_clust13"><a xlink:title="LoadAssets">
<path fill="#ffffff" fill-opacity="0.266667" stroke="#ffffff" stroke-width="2" stroke-opacity="0.313725" d="M80,-215C80,-215 144,-215 144,-215 150,-215 156,-221 156,-227 156,-227 156,-242 156,-242 156,-248 150,-254 144,-254 144,-254 80,-254 80,-254 74,-254 68,-248 68,-242 68,-242 68,-227 68,-227 68,-221 74,-215 80,-215"/>
<text text-anchor="middle" x="112" y="-238.8" font-family="Helvetica,sans-Serif" font-size="14.00">LoadAssets</text>
</a>
</g>
</g>
<g id="clust14" class="cluster">
<title>clusternode_Set(60)</title>
<g id="a_clust14"><a xlink:title="AssetEvents">
<path fill="#ffffff" fill-opacity="0.266667" stroke="#ffffff" stroke-width="2" stroke-opacity="0.313725" d="M1215,-215C1215,-215 1283,-215 1283,-215 1289,-215 1295,-221 1295,-227 1295,-227 1295,-242 1295,-242 1295,-248 1289,-254 1283,-254 1283,-254 1215,-254 1215,-254 1209,-254 1203,-248 1203,-242 1203,-242 1203,-227 1203,-227 1203,-221 1209,-215 1215,-215"/>
<text text-anchor="middle" x="1249" y="-238.8" font-family="Helvetica,sans-Serif" font-size="14.00">AssetEvents</text>
</a>
</g>
</g>
<!-- set_marker_node_Set(0) -->
<!-- set_marker_node_Set(4) -->
<!-- set_marker_node_Set(0)&#45;&gt;set_marker_node_Set(4) -->
<g id="edge7" class="edge">
<title>set_marker_node_Set(0)&#45;&gt;set_marker_node_Set(4)</title>
<g id="a_edge7"><a xlink:title="Update → UpdateFlush">
<path fill="none" stroke="#ee9e44" stroke-width="2" d="M956,-250C958.1,-250 960.19,-250 962.26,-250"/>
<polygon fill="#ee9e44" stroke="#ee9e44" stroke-width="2" points="962,-253.5 972,-250 962,-246.5 962,-253.5"/>
</a>
</g>
</g>
<!-- node_System(60) -->
<g id="node2" class="node">
<title>node_System(60)</title>
<g id="a_node2"><a xlink:title="bevy_winit::accessibility::handle_window_focus">
<polygon fill="#664f72" stroke="#9980a6" points="931.5,-239 782.5,-239 782.5,-203 931.5,-203 931.5,-239"/>
<text text-anchor="middle" x="857" y="-217.3" font-family="Helvetica,sans-Serif" font-size="14.00" fill="#e6e0ea">handle_window_focus</text>
</a>
</g>
</g>
<!-- node_System(61) -->
<g id="node3" class="node">
<title>node_System(61)</title>
<g id="a_node3"><a xlink:title="bevy_winit::accessibility::window_closed">
<polygon fill="#664f72" stroke="#9980a6" points="911,-169 803,-169 803,-133 911,-133 911,-169"/>
<text text-anchor="middle" x="857" y="-147.3" font-family="Helvetica,sans-Serif" font-size="14.00" fill="#e6e0ea">window_closed</text>
</a>
</g>
</g>
<!-- node_System(60)&#45;&gt;node_System(61) -->
<g id="edge17" class="edge">
<title>node_System(60)&#45;&gt;node_System(61)</title>
<path fill="none" stroke="#c93526" stroke-width="2" d="M857,-202.97C857,-192.66 857,-179.76 857,-169.39"/>
<g id="a_edge17&#45;label"><a xlink:title="handle_window_focus — window_closed">
<polygon fill="#c6e6ff" stroke="none" points="788,-176.5 788,-195.5 897,-195.5 897,-176.5 788,-176.5"/>
<text text-anchor="start" x="790" y="-182.3" font-family="Times,serif" font-size="14.00" fill="#c93526">AccessKitAdapters</text>
</a>
</g>
</g>
<!-- node_System(62) -->
<g id="node4" class="node">
<title>node_System(62)</title>
<g id="a_node4"><a xlink:title="bevy_winit::accessibility::poll_receivers">
<polygon fill="#664f72" stroke="#9980a6" points="907,-99 807,-99 807,-63 907,-63 907,-99"/>
<text text-anchor="middle" x="857" y="-77.3" font-family="Helvetica,sans-Serif" font-size="14.00" fill="#e6e0ea">poll_receivers</text>
</a>
</g>
</g>
<!-- node_System(61)&#45;&gt;node_System(62) -->
<g id="edge18" class="edge">
<title>node_System(61)&#45;&gt;node_System(62)</title>
<path fill="none" stroke="#c93526" stroke-width="2" d="M857,-132.97C857,-122.66 857,-109.76 857,-99.39"/>
<g id="a_edge18&#45;label"><a xlink:title="window_closed — poll_receivers">
<polygon fill="#c6e6ff" stroke="none" points="781.5,-106.5 781.5,-125.5 903.5,-125.5 903.5,-106.5 781.5,-106.5"/>
<text text-anchor="start" x="783.5" y="-112.3" font-family="Times,serif" font-size="14.00" fill="#c93526">WinitActionHandlers</text>
</a>
</g>
</g>
<!-- node_System(63) -->
<g id="node5" class="node">
<title>node_System(63)</title>
<g id="a_node5"><a xlink:title="bevy_winit::accessibility::update_accessibility_nodes">
<polygon fill="#664f72" stroke="#9980a6" points="948,-52 766,-52 766,-16 948,-16 948,-52"/>
<text text-anchor="middle" x="857" y="-30.3" font-family="Helvetica,sans-Serif" font-size="14.00" fill="#e6e0ea">update_accessibility_nodes</text>
</a>
</g>
</g>
<!-- node_System(61)&#45;&gt;node_System(63) -->
<g id="edge19" class="edge">
<title>node_System(61)&#45;&gt;node_System(63)</title>
<path fill="none" stroke="#c93526" stroke-width="2" d="M802.54,-154.71C757.26,-154.48 695.15,-145.78 662.58,-104.5 629.5,-62.57 700.5,-45.57 765.8,-38.68"/>
<g id="a_edge19&#45;label"><a xlink:title="window_closed — update_accessibility_nodes">
<polygon fill="#c6e6ff" stroke="none" points="637,-83.5 637,-102.5 746,-102.5 746,-83.5 637,-83.5"/>
<text text-anchor="start" x="639" y="-89.3" font-family="Times,serif" font-size="14.00" fill="#c93526">AccessKitAdapters</text>
</a>
</g>
</g>
<!-- set_marker_node_Set(2) -->
<!-- set_marker_node_Set(8) -->
<!-- set_marker_node_Set(2)&#45;&gt;set_marker_node_Set(8) -->
<g id="edge2" class="edge">
<title>set_marker_node_Set(2)&#45;&gt;set_marker_node_Set(8)</title>
<g id="a_edge2"><a xlink:title="FirstFlush → PreUpdate">
<path fill="none" stroke="#881877" stroke-width="2" d="M150,-262.53C153.44,-261.83 156.96,-261.12 160.5,-260.4"/>
<polygon fill="#881877" stroke="#881877" stroke-width="2" points="161.89,-263.29 171,-257.88 160.5,-256.43 161.89,-263.29"/>
</a>
</g>
</g>
<!-- set_marker_node_Set(3) -->
<!-- set_marker_node_Set(9) -->
<!-- set_marker_node_Set(3)&#45;&gt;set_marker_node_Set(9) -->
<g id="edge4" class="edge">
<title>set_marker_node_Set(3)&#45;&gt;set_marker_node_Set(9)</title>
<g id="a_edge4"><a xlink:title="PreUpdateFlush → StateTransitions">
<path fill="none" stroke="#aa3a55" stroke-width="2" d="M385,-250C386.41,-250 387.83,-250 389.24,-250"/>
<polygon fill="#aa3a55" stroke="#aa3a55" stroke-width="2" points="389,-253.5 399,-250 389,-246.5 389,-253.5"/>
</a>
</g>
</g>
<!-- set_marker_node_Set(11) -->
<!-- set_marker_node_Set(4)&#45;&gt;set_marker_node_Set(11) -->
<g id="edge8" class="edge">
<title>set_marker_node_Set(4)&#45;&gt;set_marker_node_Set(11)</title>
<g id="a_edge8"><a xlink:title="UpdateFlush → PostUpdate">
<path fill="none" stroke="#663699" stroke-width="2" d="M1068,-250C1069.39,-250 1070.78,-250 1072.18,-250"/>
<polygon fill="#663699" stroke="#663699" stroke-width="2" points="1072,-253.5 1082,-250 1072,-246.5 1072,-253.5"/>
</a>
</g>
</g>
<!-- set_marker_node_Set(5) -->
<!-- set_marker_node_Set(12) -->
<!-- set_marker_node_Set(5)&#45;&gt;set_marker_node_Set(12) -->
<g id="edge10" class="edge">
<title>set_marker_node_Set(5)&#45;&gt;set_marker_node_Set(12)</title>
<g id="a_edge10"><a xlink:title="PostUpdateFlush → Last">
<path fill="none" stroke="#22c2bb" stroke-width="2" d="M1290.63,-262C1298.6,-260.56 1307.09,-259.11 1315.46,-257.81"/>
<polygon fill="#22c2bb" stroke="#22c2bb" stroke-width="2" points="1316.6,-260.9 1326,-256 1315.6,-253.97 1316.6,-260.9"/>
</a>
</g>
</g>
<!-- set_marker_node_Set(6) -->
<!-- set_marker_node_Set(7) -->
<!-- set_marker_node_Set(7)&#45;&gt;set_marker_node_Set(2) -->
<g id="edge1" class="edge">
<title>set_marker_node_Set(7)&#45;&gt;set_marker_node_Set(2)</title>
<g id="a_edge1"><a xlink:title="First → FirstFlush">
<path fill="none" stroke="#eede00" stroke-width="2" d="M51,-255.18C55.69,-256.34 60.84,-257.62 66.1,-258.91"/>
<polygon fill="#eede00" stroke="#eede00" stroke-width="2" points="66.05,-263 76.6,-262 67.73,-256.21 66.05,-263"/>
</a>
</g>
</g>
<!-- set_marker_node_Set(59) -->
<!-- set_marker_node_Set(7)&#45;&gt;set_marker_node_Set(59) -->
<g id="edge13" class="edge">
<title>set_marker_node_Set(7)&#45;&gt;set_marker_node_Set(59)</title>
<g id="a_edge13"><a xlink:title="First → LoadAssets">
<path fill="none" stroke="#881877" stroke-width="2" d="M51,-243C52.6,-242.47 54.27,-241.91 55.97,-241.34"/>
<polygon fill="#881877" stroke="#881877" stroke-width="2" points="57.62,-243.82 66,-237.33 55.41,-237.18 57.62,-243.82"/>
</a>
</g>
</g>
<!-- set_marker_node_Set(8)&#45;&gt;set_marker_node_Set(3) -->
<g id="edge3" class="edge">
<title>set_marker_node_Set(8)&#45;&gt;set_marker_node_Set(3)</title>
<g id="a_edge3"><a xlink:title="PreUpdate → PreUpdateFlush">
<path fill="none" stroke="#00b0cc" stroke-width="2" d="M254,-250C255.38,-250 256.78,-250 258.18,-250"/>
<polygon fill="#00b0cc" stroke="#00b0cc" stroke-width="2" points="258,-253.5 268,-250 258,-246.5 258,-253.5"/>
</a>
</g>
</g>
<!-- set_marker_node_Set(10) -->
<!-- set_marker_node_Set(9)&#45;&gt;set_marker_node_Set(10) -->
<g id="edge5" class="edge">
<title>set_marker_node_Set(9)&#45;&gt;set_marker_node_Set(10)</title>
<g id="a_edge5"><a xlink:title="StateTransitions → FixedUpdate">
<path fill="none" stroke="#44d488" stroke-width="2" d="M517,-250C518.36,-250 519.73,-250 521.1,-250"/>
<polygon fill="#44d488" stroke="#44d488" stroke-width="2" points="521,-253.5 531,-250 521,-246.5 521,-253.5"/>
</a>
</g>
</g>
<!-- set_marker_node_Set(10)&#45;&gt;set_marker_node_Set(0) -->
<g id="edge6" class="edge">
<title>set_marker_node_Set(10)&#45;&gt;set_marker_node_Set(0)</title>
<g id="a_edge6"><a xlink:title="FixedUpdate → Update">
<path fill="none" stroke="#0090cc" stroke-width="2" d="M627,-250C659.26,-250 703.82,-250 745.06,-250"/>
<polygon fill="#0090cc" stroke="#0090cc" stroke-width="2" points="745,-253.5 755,-250 745,-246.5 745,-253.5"/>
</a>
</g>
</g>
<!-- set_marker_node_Set(11)&#45;&gt;set_marker_node_Set(5) -->
<g id="edge9" class="edge">
<title>set_marker_node_Set(11)&#45;&gt;set_marker_node_Set(5)</title>
<g id="a_edge9"><a xlink:title="PostUpdate → PostUpdateFlush">
<path fill="none" stroke="#3363bb" stroke-width="2" d="M1172,-257.23C1177.14,-258.09 1182.46,-258.98 1187.79,-259.88"/>
<polygon fill="#3363bb" stroke="#3363bb" stroke-width="2" points="1187.97,-263.8 1198.41,-262 1189.13,-256.89 1187.97,-263.8"/>
</a>
</g>
</g>
<!-- set_marker_node_Set(60) -->
<!-- set_marker_node_Set(11)&#45;&gt;set_marker_node_Set(60) -->
<g id="edge14" class="edge">
<title>set_marker_node_Set(11)&#45;&gt;set_marker_node_Set(60)</title>
<g id="a_edge14"><a xlink:title="PostUpdate → AssetEvents">
<path fill="none" stroke="#00b0cc" stroke-width="2" d="M1164.26,-242C1172.52,-240.13 1181.54,-238.08 1190.5,-236.05"/>
<polygon fill="#00b0cc" stroke="#00b0cc" stroke-width="2" points="1192.03,-238.84 1201,-233.21 1190.48,-232.01 1192.03,-238.84"/>
</a>
</g>
</g>
<!-- set_marker_node_Set(12)&#45;&gt;set_marker_node_Set(6) -->
<g id="edge11" class="edge">
<title>set_marker_node_Set(12)&#45;&gt;set_marker_node_Set(6)</title>
<g id="a_edge11"><a xlink:title="Last → LastFlush">
<path fill="none" stroke="#99d955" stroke-width="2" d="M1424.22,-242C1446.38,-235.37 1478.5,-225.75 1505.29,-217.73"/>
<polygon fill="#99d955" stroke="#99d955" stroke-width="2" points="1506.93,-220.3 1515.5,-214.08 1504.92,-213.59 1506.93,-220.3"/>
</a>
</g>
</g>
<!-- node_System(57) -->
<g id="node17" class="node">
<title>node_System(57)</title>
<g id="a_node17"><a xlink:title="bevy_winit::system::changed_window">
<polygon fill="#664f72" stroke="#9980a6" points="1457,-297 1336,-297 1336,-261 1457,-261 1457,-297"/>
<text text-anchor="middle" x="1396.5" y="-275.3" font-family="Helvetica,sans-Serif" font-size="14.00" fill="#e6e0ea">changed_window</text>
</a>
</g>
</g>
<!-- node_System(58) -->
<g id="node18" class="node">
<title>node_System(58)</title>
<g id="a_node18"><a xlink:title="bevy_winit::system::despawn_window">
<polygon fill="#664f72" stroke="#9980a6" points="1617,-297 1494,-297 1494,-261 1617,-261 1617,-297"/>
<text text-anchor="middle" x="1555.5" y="-275.3" font-family="Helvetica,sans-Serif" font-size="14.00" fill="#e6e0ea">despawn_window</text>
</a>
</g>
</g>
<!-- node_System(57)&#45;&gt;node_System(58) -->
<g id="edge16" class="edge">
<title>node_System(57)&#45;&gt;node_System(58)</title>
<g id="a_edge16"><a xlink:title="SystemTypeSet(changed_window&quot;) → despawn_window">
<path fill="none" stroke="#44d488" stroke-width="2" d="M1457.3,-279C1465,-279 1472.95,-279 1480.84,-279"/>
<polygon fill="#44d488" stroke="#44d488" stroke-width="2" points="1480.56,-282.5 1490.56,-279 1480.56,-275.5 1480.56,-282.5"/>
</a>
</g>
</g>
<!-- set_marker_node_Set(59)&#45;&gt;set_marker_node_Set(8) -->
<g id="edge12" class="edge">
<title>set_marker_node_Set(59)&#45;&gt;set_marker_node_Set(8)</title>
<g id="a_edge12"><a xlink:title="LoadAssets → PreUpdate">
<path fill="none" stroke="#eede00" stroke-width="2" d="M156,-234.73C160.7,-236.01 165.47,-237.31 170.16,-238.59"/>
<polygon fill="#eede00" stroke="#eede00" stroke-width="2" points="170.11,-242.75 180.67,-242 171.95,-235.99 170.11,-242.75"/>
</a>
</g>
</g>
<!-- set_marker_node_Set(60)&#45;&gt;set_marker_node_Set(12) -->
<g id="edge15" class="edge">
<title>set_marker_node_Set(60)&#45;&gt;set_marker_node_Set(12)</title>
<g id="a_edge15"><a xlink:title="AssetEvents → Last">
<path fill="none" stroke="#aa3a55" stroke-width="2" d="M1295,-231.35C1309.15,-233.98 1324.95,-236.91 1339.76,-239.66"/>
<polygon fill="#aa3a55" stroke="#aa3a55" stroke-width="2" points="1339.94,-243.62 1350.41,-242 1341.21,-236.74 1339.94,-243.62"/>
</a>
</g>
</g>
</g>
</svg>
