<?xml version="1.0" encoding="UTF-8" standalone="no"?>
<!DOCTYPE svg PUBLIC "-//W3C//DTD SVG 1.1//EN"
 "http://www.w3.org/Graphics/SVG/1.1/DTD/svg11.dtd">
<!-- Generated by graphviz version 8.0.1 (0)
 -->
<!-- Pages: 1 -->
<svg width="1573pt" height="368pt"
 viewBox="0.00 0.00 1573.00 368.00" xmlns="http://www.w3.org/2000/svg" xmlns:xlink="http://www.w3.org/1999/xlink">
<g id="graph0" class="graph" transform="scale(1 1) rotate(0) translate(4 364)">
<polygon fill="#0d1117" stroke="none" points="-4,4 -4,-364 1569,-364 1569,4 -4,4"/>
<g id="clust1" class="cluster">
<title>clusternode_Set(0)</title>
<g id="a_clust1"><a xlink:title="Update">
<path fill="#ffffff" fill-opacity="0.266667" stroke="#ffffff" stroke-width="2" stroke-opacity="0.313725" d="M998,-31C998,-31 1034,-31 1034,-31 1040,-31 1046,-37 1046,-43 1046,-43 1046,-58 1046,-58 1046,-64 1040,-70 1034,-70 1034,-70 998,-70 998,-70 992,-70 986,-64 986,-58 986,-58 986,-43 986,-43 986,-37 992,-31 998,-31"/>
<text text-anchor="middle" x="1016" y="-54.8" font-family="Helvetica,sans-Serif" font-size="14.00">Update</text>
</a>
</g>
</g>
<g id="clust2" class="cluster">
<title>clusternode_Set(2)</title>
<g id="a_clust2"><a xlink:title="FirstFlush">
<path fill="#ffffff" fill-opacity="0.266667" stroke="#ffffff" stroke-width="2" stroke-opacity="0.313725" d="M81,-101C81,-101 133,-101 133,-101 139,-101 145,-107 145,-113 145,-113 145,-128 145,-128 145,-134 139,-140 133,-140 133,-140 81,-140 81,-140 75,-140 69,-134 69,-128 69,-128 69,-113 69,-113 69,-107 75,-101 81,-101"/>
<text text-anchor="middle" x="107" y="-124.8" font-family="Helvetica,sans-Serif" font-size="14.00">FirstFlush</text>
</a>
</g>
</g>
<g id="clust3" class="cluster">
<title>clusternode_Set(3)</title>
<g id="a_clust3"><a xlink:title="PreUpdateFlush">
<path fill="#ffffff" fill-opacity="0.266667" stroke="#ffffff" stroke-width="2" stroke-opacity="0.313725" d="M457,-31C457,-31 547,-31 547,-31 553,-31 559,-37 559,-43 559,-43 559,-58 559,-58 559,-64 553,-70 547,-70 547,-70 457,-70 457,-70 451,-70 445,-64 445,-58 445,-58 445,-43 445,-43 445,-37 451,-31 457,-31"/>
<text text-anchor="middle" x="502" y="-54.8" font-family="Helvetica,sans-Serif" font-size="14.00">PreUpdateFlush</text>
</a>
</g>
</g>
<g id="clust4" class="cluster">
<title>clusternode_Set(4)</title>
<g id="a_clust4"><a xlink:title="UpdateFlush">
<path fill="#ffffff" fill-opacity="0.266667" stroke="#ffffff" stroke-width="2" stroke-opacity="0.313725" d="M1078,-31C1078,-31 1147,-31 1147,-31 1153,-31 1159,-37 1159,-43 1159,-43 1159,-58 1159,-58 1159,-64 1153,-70 1147,-70 1147,-70 1078,-70 1078,-70 1072,-70 1066,-64 1066,-58 1066,-58 1066,-43 1066,-43 1066,-37 1072,-31 1078,-31"/>
<text text-anchor="middle" x="1112.5" y="-54.8" font-family="Helvetica,sans-Serif" font-size="14.00">UpdateFlush</text>
</a>
</g>
</g>
<g id="clust5" class="cluster">
<title>clusternode_Set(5)</title>
<g id="a_clust5"><a xlink:title="PostUpdateFlush">
<path fill="#ffffff" fill-opacity="0.266667" stroke="#ffffff" stroke-width="2" stroke-opacity="0.313725" d="M1298,-55C1298,-55 1394,-55 1394,-55 1400,-55 1406,-61 1406,-67 1406,-67 1406,-82 1406,-82 1406,-88 1400,-94 1394,-94 1394,-94 1298,-94 1298,-94 1292,-94 1286,-88 1286,-82 1286,-82 1286,-67 1286,-67 1286,-61 1292,-55 1298,-55"/>
<text text-anchor="middle" x="1346" y="-78.8" font-family="Helvetica,sans-Serif" font-size="14.00">PostUpdateFlush</text>
</a>
</g>
</g>
<g id="clust6" class="cluster">
<title>clusternode_Set(6)</title>
<g id="a_clust6"><a xlink:title="LastFlush">
<path fill="#ffffff" fill-opacity="0.266667" stroke="#ffffff" stroke-width="2" stroke-opacity="0.313725" d="M1501,-20C1501,-20 1553,-20 1553,-20 1559,-20 1565,-26 1565,-32 1565,-32 1565,-47 1565,-47 1565,-53 1559,-59 1553,-59 1553,-59 1501,-59 1501,-59 1495,-59 1489,-53 1489,-47 1489,-47 1489,-32 1489,-32 1489,-26 1495,-20 1501,-20"/>
<text text-anchor="middle" x="1527" y="-43.8" font-family="Helvetica,sans-Serif" font-size="14.00">LastFlush</text>
</a>
</g>
</g>
<g id="clust7" class="cluster">
<title>clusternode_Set(7)</title>
<g id="a_clust7"><a xlink:title="First">
<path fill="#ffffff" fill-opacity="0.266667" stroke="#ffffff" stroke-width="2" stroke-opacity="0.313725" d="M12,-77C12,-77 31,-77 31,-77 37,-77 43,-83 43,-89 43,-89 43,-104 43,-104 43,-110 37,-116 31,-116 31,-116 12,-116 12,-116 6,-116 0,-110 0,-104 0,-104 0,-89 0,-89 0,-83 6,-77 12,-77"/>
<text text-anchor="middle" x="21.5" y="-100.8" font-family="Helvetica,sans-Serif" font-size="14.00">First</text>
</a>
</g>
</g>
<g id="clust8" class="cluster">
<title>clusternode_Set(8)</title>
<g id="a_clust8"><a xlink:title="PreUpdate">
<path fill="#ffffff" fill-opacity="0.266667" stroke="#ffffff" stroke-width="2" stroke-opacity="0.313725" d="M175,-78C175,-78 849,-78 849,-78 855,-78 861,-84 861,-90 861,-90 861,-340 861,-340 861,-346 855,-352 849,-352 849,-352 175,-352 175,-352 169,-352 163,-346 163,-340 163,-340 163,-90 163,-90 163,-84 169,-78 175,-78"/>
<text text-anchor="middle" x="512" y="-336.8" font-family="Helvetica,sans-Serif" font-size="14.00">PreUpdate</text>
</a>
</g>
</g>
<g id="clust9" class="cluster">
<title>clusternode_Set(25)</title>
<g id="a_clust9"><a xlink:title="InputSystem">
<path fill="#ffffff" fill-opacity="0.266667" stroke="#ffffff" stroke-width="2" stroke-opacity="0.313725" d="M183,-94C183,-94 841,-94 841,-94 847,-94 853,-100 853,-106 853,-106 853,-309 853,-309 853,-315 847,-321 841,-321 841,-321 183,-321 183,-321 177,-321 171,-315 171,-309 171,-309 171,-106 171,-106 171,-100 177,-94 183,-94"/>
<text text-anchor="middle" x="512" y="-305.8" font-family="Helvetica,sans-Serif" font-size="14.00">InputSystem</text>
</a>
</g>
</g>
<g id="clust10" class="cluster">
<title>clusternode_Set(9)</title>
<g id="a_clust10"><a xlink:title="StateTransitions">
<path fill="#ffffff" fill-opacity="0.266667" stroke="#ffffff" stroke-width="2" stroke-opacity="0.313725" d="M695.5,-31C695.5,-31 786.5,-31 786.5,-31 792.5,-31 798.5,-37 798.5,-43 798.5,-43 798.5,-58 798.5,-58 798.5,-64 792.5,-70 786.5,-70 786.5,-70 695.5,-70 695.5,-70 689.5,-70 683.5,-64 683.5,-58 683.5,-58 683.5,-43 683.5,-43 683.5,-37 689.5,-31 695.5,-31"/>
<text text-anchor="middle" x="741" y="-54.8" font-family="Helvetica,sans-Serif" font-size="14.00">StateTransitions</text>
</a>
</g>
</g>
<g id="clust11" class="cluster">
<title>clusternode_Set(10)</title>
<g id="a_clust11"><a xlink:title="FixedUpdate">
<path fill="#ffffff" fill-opacity="0.266667" stroke="#ffffff" stroke-width="2" stroke-opacity="0.313725" d="M885,-31C885,-31 954,-31 954,-31 960,-31 966,-37 966,-43 966,-43 966,-58 966,-58 966,-64 960,-70 954,-70 954,-70 885,-70 885,-70 879,-70 873,-64 873,-58 873,-58 873,-43 873,-43 873,-37 879,-31 885,-31"/>
<text text-anchor="middle" x="919.5" y="-54.8" font-family="Helvetica,sans-Serif" font-size="14.00">FixedUpdate</text>
</a>
</g>
</g>
<g id="clust12" class="cluster">
<title>clusternode_Set(11)</title>
<g id="a_clust12"><a xlink:title="PostUpdate">
<path fill="#ffffff" fill-opacity="0.266667" stroke="#ffffff" stroke-width="2" stroke-opacity="0.313725" d="M1191,-31C1191,-31 1254,-31 1254,-31 1260,-31 1266,-37 1266,-43 1266,-43 1266,-58 1266,-58 1266,-64 1260,-70 1254,-70 1254,-70 1191,-70 1191,-70 1185,-70 1179,-64 1179,-58 1179,-58 1179,-43 1179,-43 1179,-37 1185,-31 1191,-31"/>
<text text-anchor="middle" x="1222.5" y="-54.8" font-family="Helvetica,sans-Serif" font-size="14.00">PostUpdate</text>
</a>
</g>
</g>
<g id="clust13" class="cluster">
<title>clusternode_Set(12)</title>
<g id="a_clust13"><a xlink:title="Last">
<path fill="#ffffff" fill-opacity="0.266667" stroke="#ffffff" stroke-width="2" stroke-opacity="0.313725" d="M1438,-20C1438,-20 1457,-20 1457,-20 1463,-20 1469,-26 1469,-32 1469,-32 1469,-47 1469,-47 1469,-53 1463,-59 1457,-59 1457,-59 1438,-59 1438,-59 1432,-59 1426,-53 1426,-47 1426,-47 1426,-32 1426,-32 1426,-26 1432,-20 1438,-20"/>
<text text-anchor="middle" x="1447.5" y="-43.8" font-family="Helvetica,sans-Serif" font-size="14.00">Last</text>
</a>
</g>
</g>
<g id="clust14" class="cluster">
<title>clusternode_Set(59)</title>
<g id="a_clust14"><a xlink:title="LoadAssets">
<path fill="#ffffff" fill-opacity="0.266667" stroke="#ffffff" stroke-width="2" stroke-opacity="0.313725" d="M75,-54C75,-54 139,-54 139,-54 145,-54 151,-60 151,-66 151,-66 151,-81 151,-81 151,-87 145,-93 139,-93 139,-93 75,-93 75,-93 69,-93 63,-87 63,-81 63,-81 63,-66 63,-66 63,-60 69,-54 75,-54"/>
<text text-anchor="middle" x="107" y="-77.8" font-family="Helvetica,sans-Serif" font-size="14.00">LoadAssets</text>
</a>
</g>
</g>
<g id="clust15" class="cluster">
<title>clusternode_Set(60)</title>
<g id="a_clust15"><a xlink:title="AssetEvents">
<path fill="#ffffff" fill-opacity="0.266667" stroke="#ffffff" stroke-width="2" stroke-opacity="0.313725" d="M1312,-8C1312,-8 1380,-8 1380,-8 1386,-8 1392,-14 1392,-20 1392,-20 1392,-35 1392,-35 1392,-41 1386,-47 1380,-47 1380,-47 1312,-47 1312,-47 1306,-47 1300,-41 1300,-35 1300,-35 1300,-20 1300,-20 1300,-14 1306,-8 1312,-8"/>
<text text-anchor="middle" x="1346" y="-31.8" font-family="Helvetica,sans-Serif" font-size="14.00">AssetEvents</text>
</a>
</g>
</g>
<!-- set_marker_node_Set(0) -->
<!-- set_marker_node_Set(4) -->
<!-- set_marker_node_Set(0)&#45;&gt;set_marker_node_Set(4) -->
<g id="edge7" class="edge">
<title>set_marker_node_Set(0)&#45;&gt;set_marker_node_Set(4)</title>
<g id="a_edge7"><a xlink:title="Update → UpdateFlush">
<path fill="none" stroke="#ee9e44" stroke-width="2" d="M1046,-39C1048.33,-39 1050.74,-39 1053.18,-39"/>
<polygon fill="#ee9e44" stroke="#ee9e44" stroke-width="2" points="1053,-42.5 1063,-39 1053,-35.5 1053,-42.5"/>
</a>
</g>
</g>
<!-- set_marker_node_Set(2) -->
<!-- set_marker_node_Set(8) -->
<!-- set_marker_node_Set(2)&#45;&gt;set_marker_node_Set(8) -->
<g id="edge2" class="edge">
<title>set_marker_node_Set(2)&#45;&gt;set_marker_node_Set(8)</title>
<g id="a_edge2"><a xlink:title="FirstFlush → PreUpdate">
<path fill="none" stroke="#881877" stroke-width="2" d="M131.83,-101C138.17,-98.94 144.86,-96.84 150.66,-95.15"/>
<polygon fill="#881877" stroke="#881877" stroke-width="2" points="152.18,-97.86 161,-92 150.45,-91.08 152.18,-97.86"/>
</a>
</g>
</g>
<!-- set_marker_node_Set(3) -->
<!-- set_marker_node_Set(9) -->
<!-- set_marker_node_Set(3)&#45;&gt;set_marker_node_Set(9) -->
<g id="edge4" class="edge">
<title>set_marker_node_Set(3)&#45;&gt;set_marker_node_Set(9)</title>
<g id="a_edge4"><a xlink:title="PreUpdateFlush → StateTransitions">
<path fill="none" stroke="#aa3a55" stroke-width="2" d="M559,-39C592.4,-39 635.07,-39 670.54,-39"/>
<polygon fill="#aa3a55" stroke="#aa3a55" stroke-width="2" points="670.5,-42.5 680.5,-39 670.5,-35.5 670.5,-42.5"/>
</a>
</g>
</g>
<!-- set_marker_node_Set(11) -->
<!-- set_marker_node_Set(4)&#45;&gt;set_marker_node_Set(11) -->
<g id="edge8" class="edge">
<title>set_marker_node_Set(4)&#45;&gt;set_marker_node_Set(11)</title>
<g id="a_edge8"><a xlink:title="UpdateFlush → PostUpdate">
<path fill="none" stroke="#663699" stroke-width="2" d="M1159,-39C1161.32,-39 1163.66,-39 1166,-39"/>
<polygon fill="#663699" stroke="#663699" stroke-width="2" points="1166,-42.5 1176,-39 1166,-35.5 1166,-42.5"/>
</a>
</g>
</g>
<!-- set_marker_node_Set(5) -->
<!-- set_marker_node_Set(12) -->
<!-- set_marker_node_Set(5)&#45;&gt;set_marker_node_Set(12) -->
<g id="edge10" class="edge">
<title>set_marker_node_Set(5)&#45;&gt;set_marker_node_Set(12)</title>
<g id="a_edge10"><a xlink:title="PostUpdateFlush → Last">
<path fill="none" stroke="#22c2bb" stroke-width="2" d="M1386.78,-55C1393.29,-53.29 1399.89,-51.29 1406,-49 1408.84,-47.94 1411.73,-46.72 1414.59,-45.42"/>
<polygon fill="#22c2bb" stroke="#22c2bb" stroke-width="2" points="1416.6,-48.33 1424,-40.75 1413.49,-42.06 1416.6,-48.33"/>
</a>
</g>
</g>
<!-- set_marker_node_Set(6) -->
<!-- set_marker_node_Set(7) -->
<!-- set_marker_node_Set(7)&#45;&gt;set_marker_node_Set(2) -->
<g id="edge1" class="edge">
<title>set_marker_node_Set(7)&#45;&gt;set_marker_node_Set(2)</title>
<g id="a_edge1"><a xlink:title="First → FirstFlush">
<path fill="none" stroke="#eede00" stroke-width="2" d="M43,-91C49.88,-92.97 57.78,-95.22 65.61,-97.46"/>
<polygon fill="#eede00" stroke="#eede00" stroke-width="2" points="65.44,-101.62 76.01,-101 67.36,-94.89 65.44,-101.62"/>
</a>
</g>
</g>
<!-- set_marker_node_Set(59) -->
<!-- set_marker_node_Set(7)&#45;&gt;set_marker_node_Set(59) -->
<g id="edge18" class="edge">
<title>set_marker_node_Set(7)&#45;&gt;set_marker_node_Set(59)</title>
<g id="a_edge18"><a xlink:title="First → LoadAssets">
<path fill="none" stroke="#ee9e44" stroke-width="2" d="M43,-79.25C45.41,-78.59 47.94,-77.9 50.55,-77.18"/>
<polygon fill="#ee9e44" stroke="#ee9e44" stroke-width="2" points="52.28,-79.79 61,-73.77 50.43,-73.04 52.28,-79.79"/>
</a>
</g>
</g>
<!-- set_marker_node_Set(8)&#45;&gt;set_marker_node_Set(3) -->
<g id="edge3" class="edge">
<title>set_marker_node_Set(8)&#45;&gt;set_marker_node_Set(3)</title>
<g id="a_edge3"><a xlink:title="PreUpdate → PreUpdateFlush">
<path fill="none" stroke="#00b0cc" stroke-width="2" d="M313.05,-78C345.68,-71.23 393.23,-61.36 432.34,-53.25"/>
<polygon fill="#00b0cc" stroke="#00b0cc" stroke-width="2" points="433.92,-56.08 443,-50.62 432.5,-49.22 433.92,-56.08"/>
</a>
</g>
</g>
<!-- set_marker_node_Set(25) -->
<!-- node_System(15) -->
<g id="node10" class="node">
<title>node_System(15)</title>
<g id="a_node10"><a xlink:title="bevy_input::keyboard::keyboard_input_system">
<polygon fill="#d36aaf" stroke="#a5317d" points="353.5,-279 193.5,-279 193.5,-243 353.5,-243 353.5,-279"/>
<text text-anchor="middle" x="273.5" y="-257.3" font-family="Helvetica,sans-Serif" font-size="14.00" fill="#270b1d">keyboard_input_system</text>
</a>
</g>
</g>
<!-- node_System(19) -->
<g id="node11" class="node">
<title>node_System(19)</title>
<g id="a_node11"><a xlink:title="bevy_input::mouse::mouse_button_input_system">
<polygon fill="#d36aaf" stroke="#a5317d" points="368,-232 179,-232 179,-196 368,-196 368,-232"/>
<text text-anchor="middle" x="273.5" y="-210.3" font-family="Helvetica,sans-Serif" font-size="14.00" fill="#270b1d">mouse_button_input_system</text>
</a>
</g>
</g>
<!-- node_System(24) -->
<g id="node12" class="node">
<title>node_System(24)</title>
<g id="a_node12"><a xlink:title="bevy_input::gamepad::gamepad_event_system">
<polygon fill="#d36aaf" stroke="#a5317d" points="355.5,-185 191.5,-185 191.5,-149 355.5,-149 355.5,-185"/>
<text text-anchor="middle" x="273.5" y="-163.3" font-family="Helvetica,sans-Serif" font-size="14.00" fill="#270b1d">gamepad_event_system</text>
</a>
</g>
</g>
<!-- node_System(25) -->
<g id="node13" class="node">
<title>node_System(25)</title>
<g id="a_node13"><a xlink:title="bevy_input::gamepad::gamepad_connection_system">
<polygon fill="#d36aaf" stroke="#a5317d" points="600,-185 404,-185 404,-149 600,-149 600,-185"/>
<text text-anchor="middle" x="502" y="-163.3" font-family="Helvetica,sans-Serif" font-size="14.00" fill="#270b1d">gamepad_connection_system</text>
</a>
</g>
</g>
<!-- node_System(24)&#45;&gt;node_System(25) -->
<g id="edge12" class="edge">
<title>node_System(24)&#45;&gt;node_System(25)</title>
<g id="a_edge12"><a xlink:title="SystemTypeSet(gamepad_event_system&quot;) → gamepad_connection_system">
<path fill="none" stroke="#eede00" stroke-width="2" d="M355.95,-167C367.31,-167 379.14,-167 390.92,-167"/>
<polygon fill="#eede00" stroke="#eede00" stroke-width="2" points="390.67,-170.5 400.67,-167 390.67,-163.5 390.67,-170.5"/>
</a>
</g>
</g>
<!-- node_System(26) -->
<g id="node14" class="node">
<title>node_System(26)</title>
<g id="a_node14"><a xlink:title="bevy_input::gamepad::gamepad_button_event_system">
<polygon fill="#d36aaf" stroke="#a5317d" points="845,-159 636,-159 636,-123 845,-123 845,-159"/>
<text text-anchor="middle" x="740.5" y="-137.3" font-family="Helvetica,sans-Serif" font-size="14.00" fill="#270b1d">gamepad_button_event_system</text>
</a>
</g>
</g>
<!-- node_System(24)&#45;&gt;node_System(26) -->
<g id="edge13" class="edge">
<title>node_System(24)&#45;&gt;node_System(26)</title>
<g id="a_edge13"><a xlink:title="SystemTypeSet(gamepad_event_system&quot;) → gamepad_button_event_system">
<path fill="none" stroke="#881877" stroke-width="2" d="M355.73,-150.44C371.67,-147.79 388.31,-145.45 404,-144 476.59,-137.28 558.39,-136.41 623.05,-137.28"/>
<polygon fill="#881877" stroke="#881877" stroke-width="2" points="622.69,-140.82 632.75,-137.48 622.8,-133.82 622.69,-140.82"/>
</a>
</g>
</g>
<!-- node_System(27) -->
<g id="node15" class="node">
<title>node_System(27)</title>
<g id="a_node15"><a xlink:title="bevy_input::gamepad::gamepad_axis_event_system">
<polygon fill="#d36aaf" stroke="#a5317d" points="838,-212 643,-212 643,-176 838,-176 838,-212"/>
<text text-anchor="middle" x="740.5" y="-190.3" font-family="Helvetica,sans-Serif" font-size="14.00" fill="#270b1d">gamepad_axis_event_system</text>
</a>
</g>
</g>
<!-- node_System(24)&#45;&gt;node_System(27) -->
<g id="edge15" class="edge">
<title>node_System(24)&#45;&gt;node_System(27)</title>
<g id="a_edge15"><a xlink:title="SystemTypeSet(gamepad_event_system&quot;) → gamepad_axis_event_system">
<path fill="none" stroke="#aa3a55" stroke-width="2" d="M355.71,-184.29C371.65,-187.04 388.3,-189.49 404,-191 479.15,-198.24 564.2,-198.92 629.87,-197.83"/>
<polygon fill="#aa3a55" stroke="#aa3a55" stroke-width="2" points="629.8,-201.27 639.73,-197.58 629.67,-194.27 629.8,-201.27"/>
</a>
</g>
</g>
<!-- node_System(25)&#45;&gt;node_System(26) -->
<g id="edge14" class="edge">
<title>node_System(25)&#45;&gt;node_System(26)</title>
<g id="a_edge14"><a xlink:title="SystemTypeSet(gamepad_connection_system&quot;) → gamepad_button_event_system">
<path fill="none" stroke="#00b0cc" stroke-width="2" d="M600.22,-156.31C607.73,-155.49 615.35,-154.65 622.97,-153.81"/>
<polygon fill="#00b0cc" stroke="#00b0cc" stroke-width="2" points="623.2,-156.98 632.75,-152.41 622.43,-150.02 623.2,-156.98"/>
</a>
</g>
</g>
<!-- node_System(25)&#45;&gt;node_System(27) -->
<g id="edge16" class="edge">
<title>node_System(25)&#45;&gt;node_System(27)</title>
<g id="a_edge16"><a xlink:title="SystemTypeSet(gamepad_connection_system&quot;) → gamepad_axis_event_system">
<path fill="none" stroke="#44d488" stroke-width="2" d="M600.22,-178.1C609.96,-179.21 619.9,-180.35 629.76,-181.47"/>
<polygon fill="#44d488" stroke="#44d488" stroke-width="2" points="629.33,-185.29 639.66,-182.94 630.12,-178.33 629.33,-185.29"/>
</a>
</g>
</g>
<!-- node_System(29) -->
<g id="node16" class="node">
<title>node_System(29)</title>
<g id="a_node16"><a xlink:title="bevy_input::touch::touch_screen_input_system">
<polygon fill="#d36aaf" stroke="#a5317d" points="366,-138 181,-138 181,-102 366,-102 366,-138"/>
<text text-anchor="middle" x="273.5" y="-116.3" font-family="Helvetica,sans-Serif" font-size="14.00" fill="#270b1d">touch_screen_input_system</text>
</a>
</g>
</g>
<!-- set_marker_node_Set(10) -->
<!-- set_marker_node_Set(9)&#45;&gt;set_marker_node_Set(10) -->
<g id="edge5" class="edge">
<title>set_marker_node_Set(9)&#45;&gt;set_marker_node_Set(10)</title>
<g id="a_edge5"><a xlink:title="StateTransitions → FixedUpdate">
<path fill="none" stroke="#44d488" stroke-width="2" d="M798.5,-39C818.27,-39 840.46,-39 860.29,-39"/>
<polygon fill="#44d488" stroke="#44d488" stroke-width="2" points="860,-42.5 870,-39 860,-35.5 860,-42.5"/>
</a>
</g>
</g>
<!-- set_marker_node_Set(10)&#45;&gt;set_marker_node_Set(0) -->
<g id="edge6" class="edge">
<title>set_marker_node_Set(10)&#45;&gt;set_marker_node_Set(0)</title>
<g id="a_edge6"><a xlink:title="FixedUpdate → Update">
<path fill="none" stroke="#0090cc" stroke-width="2" d="M966,-39C968.35,-39 970.7,-39 973.03,-39"/>
<polygon fill="#0090cc" stroke="#0090cc" stroke-width="2" points="973,-42.5 983,-39 973,-35.5 973,-42.5"/>
</a>
</g>
</g>
<!-- set_marker_node_Set(11)&#45;&gt;set_marker_node_Set(5) -->
<g id="edge9" class="edge">
<title>set_marker_node_Set(11)&#45;&gt;set_marker_node_Set(5)</title>
<g id="a_edge9"><a xlink:title="PostUpdate → PostUpdateFlush">
<path fill="none" stroke="#3363bb" stroke-width="2" d="M1266,-47.46C1274.36,-49.1 1283.22,-50.85 1291.87,-52.55"/>
<polygon fill="#3363bb" stroke="#3363bb" stroke-width="2" points="1291.86,-56.51 1302.35,-55 1293.21,-49.64 1291.86,-56.51"/>
</a>
</g>
</g>
<!-- set_marker_node_Set(60) -->
<!-- set_marker_node_Set(11)&#45;&gt;set_marker_node_Set(60) -->
<g id="edge19" class="edge">
<title>set_marker_node_Set(11)&#45;&gt;set_marker_node_Set(60)</title>
<g id="a_edge19"><a xlink:title="PostUpdate → AssetEvents">
<path fill="none" stroke="#663699" stroke-width="2" d="M1265.41,-31C1272.54,-29.66 1280.04,-28.25 1287.48,-26.84"/>
<polygon fill="#663699" stroke="#663699" stroke-width="2" points="1288.82,-29.78 1298,-24.48 1287.53,-22.9 1288.82,-29.78"/>
</a>
</g>
</g>
<!-- set_marker_node_Set(12)&#45;&gt;set_marker_node_Set(6) -->
<g id="edge11" class="edge">
<title>set_marker_node_Set(12)&#45;&gt;set_marker_node_Set(6)</title>
<g id="a_edge11"><a xlink:title="Last → LastFlush">
<path fill="none" stroke="#99d955" stroke-width="2" d="M1469,-28C1471.33,-28 1473.78,-28 1476.29,-28"/>
<polygon fill="#99d955" stroke="#99d955" stroke-width="2" points="1476,-31.5 1486,-28 1476,-24.5 1476,-31.5"/>
</a>
</g>
</g>
<!-- set_marker_node_Set(59)&#45;&gt;set_marker_node_Set(8) -->
<g id="edge17" class="edge">
<title>set_marker_node_Set(59)&#45;&gt;set_marker_node_Set(8)</title>
<g id="a_edge17"><a xlink:title="LoadAssets → PreUpdate">
<path fill="none" stroke="#0090cc" stroke-width="2" d="M151,-68.27C167.45,-70.67 186.63,-73.47 204.83,-76.13"/>
<polygon fill="#0090cc" stroke="#0090cc" stroke-width="2" points="205.27,-80.02 215.67,-78 206.28,-73.09 205.27,-80.02"/>
</a>
</g>
</g>
<!-- set_marker_node_Set(60)&#45;&gt;set_marker_node_Set(12) -->
<g id="edge20" class="edge">
<title>set_marker_node_Set(60)&#45;&gt;set_marker_node_Set(12)</title>
<g id="a_edge20"><a xlink:title="AssetEvents → Last">
<path fill="none" stroke="#3363bb" stroke-width="2" d="M1392,-21.45C1399.22,-22.33 1406.58,-23.22 1413.44,-24.05"/>
<polygon fill="#3363bb" stroke="#3363bb" stroke-width="2" points="1412.65,-27.85 1423,-25.58 1413.5,-20.9 1412.65,-27.85"/>
</a>
</g>
</g>
</g>
</svg>
