<?xml version="1.0" encoding="UTF-8" standalone="no"?>
<!DOCTYPE svg PUBLIC "-//W3C//DTD SVG 1.1//EN"
 "http://www.w3.org/Graphics/SVG/1.1/DTD/svg11.dtd">
<!-- Generated by graphviz version 8.0.1 (0)
 -->
<!-- Pages: 1 -->
<svg width="2071pt" height="2413pt"
 viewBox="0.00 0.00 2071.00 2413.00" xmlns="http://www.w3.org/2000/svg" xmlns:xlink="http://www.w3.org/1999/xlink">
<g id="graph0" class="graph" transform="scale(1 1) rotate(0) translate(4 2409)">
<polygon fill="#0d1117" stroke="none" points="-4,4 -4,-2409 2067,-2409 2067,4 -4,4"/>
<g id="clust1" class="cluster">
<title>clusternode_Set(0)</title>
<g id="a_clust1"><a xlink:title="Update">
<path fill="#ffffff" fill-opacity="0.266667" stroke="#ffffff" stroke-width="2" stroke-opacity="0.313725" d="M1212,-2170C1212,-2170 1248,-2170 1248,-2170 1254,-2170 1260,-2176 1260,-2182 1260,-2182 1260,-2197 1260,-2197 1260,-2203 1254,-2209 1248,-2209 1248,-2209 1212,-2209 1212,-2209 1206,-2209 1200,-2203 1200,-2197 1200,-2197 1200,-2182 1200,-2182 1200,-2176 1206,-2170 1212,-2170"/>
<text text-anchor="middle" x="1230" y="-2193.8" font-family="Helvetica,sans-Serif" font-size="14.00">Update</text>
</a>
</g>
</g>
<g id="clust2" class="cluster">
<title>clusternode_Set(2)</title>
<g id="a_clust2"><a xlink:title="FirstFlush">
<path fill="#ffffff" fill-opacity="0.266667" stroke="#ffffff" stroke-width="2" stroke-opacity="0.313725" d="M497,-2170C497,-2170 636,-2170 636,-2170 642,-2170 648,-2176 648,-2182 648,-2182 648,-2244 648,-2244 648,-2250 642,-2256 636,-2256 636,-2256 497,-2256 497,-2256 491,-2256 485,-2250 485,-2244 485,-2244 485,-2182 485,-2182 485,-2176 491,-2170 497,-2170"/>
<text text-anchor="middle" x="566.5" y="-2240.8" font-family="Helvetica,sans-Serif" font-size="14.00">FirstFlush</text>
</a>
</g>
</g>
<g id="clust3" class="cluster">
<title>clusternode_Set(3)</title>
<g id="a_clust3"><a xlink:title="PreUpdateFlush">
<path fill="#ffffff" fill-opacity="0.266667" stroke="#ffffff" stroke-width="2" stroke-opacity="0.313725" d="M781,-2123C781,-2123 920,-2123 920,-2123 926,-2123 932,-2129 932,-2135 932,-2135 932,-2197 932,-2197 932,-2203 926,-2209 920,-2209 920,-2209 781,-2209 781,-2209 775,-2209 769,-2203 769,-2197 769,-2197 769,-2135 769,-2135 769,-2129 775,-2123 781,-2123"/>
<text text-anchor="middle" x="850.5" y="-2193.8" font-family="Helvetica,sans-Serif" font-size="14.00">PreUpdateFlush</text>
</a>
</g>
</g>
<g id="clust4" class="cluster">
<title>clusternode_Set(4)</title>
<g id="a_clust4"><a xlink:title="UpdateFlush">
<path fill="#ffffff" fill-opacity="0.266667" stroke="#ffffff" stroke-width="2" stroke-opacity="0.313725" d="M1292,-2123C1292,-2123 1431,-2123 1431,-2123 1437,-2123 1443,-2129 1443,-2135 1443,-2135 1443,-2197 1443,-2197 1443,-2203 1437,-2209 1431,-2209 1431,-2209 1292,-2209 1292,-2209 1286,-2209 1280,-2203 1280,-2197 1280,-2197 1280,-2135 1280,-2135 1280,-2129 1286,-2123 1292,-2123"/>
<text text-anchor="middle" x="1361.5" y="-2193.8" font-family="Helvetica,sans-Serif" font-size="14.00">UpdateFlush</text>
</a>
</g>
</g>
<g id="clust5" class="cluster">
<title>clusternode_Set(5)</title>
<g id="a_clust5"><a xlink:title="PostUpdateFlush">
<path fill="#ffffff" fill-opacity="0.266667" stroke="#ffffff" stroke-width="2" stroke-opacity="0.313725" d="M1658,-2170C1658,-2170 1797,-2170 1797,-2170 1803,-2170 1809,-2176 1809,-2182 1809,-2182 1809,-2244 1809,-2244 1809,-2250 1803,-2256 1797,-2256 1797,-2256 1658,-2256 1658,-2256 1652,-2256 1646,-2250 1646,-2244 1646,-2244 1646,-2182 1646,-2182 1646,-2176 1652,-2170 1658,-2170"/>
<text text-anchor="middle" x="1727.5" y="-2240.8" font-family="Helvetica,sans-Serif" font-size="14.00">PostUpdateFlush</text>
</a>
</g>
</g>
<g id="clust6" class="cluster">
<title>clusternode_Set(6)</title>
<g id="a_clust6"><a xlink:title="LastFlush">
<path fill="#ffffff" fill-opacity="0.266667" stroke="#ffffff" stroke-width="2" stroke-opacity="0.313725" d="M1904,-2123C1904,-2123 2043,-2123 2043,-2123 2049,-2123 2055,-2129 2055,-2135 2055,-2135 2055,-2197 2055,-2197 2055,-2203 2049,-2209 2043,-2209 2043,-2209 1904,-2209 1904,-2209 1898,-2209 1892,-2203 1892,-2197 1892,-2197 1892,-2135 1892,-2135 1892,-2129 1898,-2123 1904,-2123"/>
<text text-anchor="middle" x="1973.5" y="-2193.8" font-family="Helvetica,sans-Serif" font-size="14.00">LastFlush</text>
</a>
</g>
</g>
<g id="clust7" class="cluster">
<title>clusternode_Set(7)</title>
<g id="a_clust7"><a xlink:title="First">
<path fill="#ffffff" fill-opacity="0.266667" stroke="#ffffff" stroke-width="2" stroke-opacity="0.313725" d="M20,-8C20,-8 453,-8 453,-8 459,-8 465,-14 465,-20 465,-20 465,-2197 465,-2197 465,-2203 459,-2209 453,-2209 453,-2209 20,-2209 20,-2209 14,-2209 8,-2203 8,-2197 8,-2197 8,-20 8,-20 8,-14 14,-8 20,-8"/>
<text text-anchor="middle" x="236.5" y="-2193.8" font-family="Helvetica,sans-Serif" font-size="14.00">First</text>
</a>
</g>
</g>
<g id="clust8" class="cluster">
<title>clusternode_Set(8)</title>
<g id="a_clust8"><a xlink:title="PreUpdate">
<path fill="#ffffff" fill-opacity="0.266667" stroke="#ffffff" stroke-width="2" stroke-opacity="0.313725" d="M680,-2170C680,-2170 737,-2170 737,-2170 743,-2170 749,-2176 749,-2182 749,-2182 749,-2197 749,-2197 749,-2203 743,-2209 737,-2209 737,-2209 680,-2209 680,-2209 674,-2209 668,-2203 668,-2197 668,-2197 668,-2182 668,-2182 668,-2176 674,-2170 680,-2170"/>
<text text-anchor="middle" x="708.5" y="-2193.8" font-family="Helvetica,sans-Serif" font-size="14.00">PreUpdate</text>
</a>
</g>
</g>
<g id="clust9" class="cluster">
<title>clusternode_Set(9)</title>
<g id="a_clust9"><a xlink:title="StateTransitions">
<path fill="#ffffff" fill-opacity="0.266667" stroke="#ffffff" stroke-width="2" stroke-opacity="0.313725" d="M964,-2170C964,-2170 1055,-2170 1055,-2170 1061,-2170 1067,-2176 1067,-2182 1067,-2182 1067,-2197 1067,-2197 1067,-2203 1061,-2209 1055,-2209 1055,-2209 964,-2209 964,-2209 958,-2209 952,-2203 952,-2197 952,-2197 952,-2182 952,-2182 952,-2176 958,-2170 964,-2170"/>
<text text-anchor="middle" x="1009.5" y="-2193.8" font-family="Helvetica,sans-Serif" font-size="14.00">StateTransitions</text>
</a>
</g>
</g>
<g id="clust10" class="cluster">
<title>clusternode_Set(10)</title>
<g id="a_clust10"><a xlink:title="FixedUpdate">
<path fill="#ffffff" fill-opacity="0.266667" stroke="#ffffff" stroke-width="2" stroke-opacity="0.313725" d="M1099,-2170C1099,-2170 1168,-2170 1168,-2170 1174,-2170 1180,-2176 1180,-2182 1180,-2182 1180,-2197 1180,-2197 1180,-2203 1174,-2209 1168,-2209 1168,-2209 1099,-2209 1099,-2209 1093,-2209 1087,-2203 1087,-2197 1087,-2197 1087,-2182 1087,-2182 1087,-2176 1093,-2170 1099,-2170"/>
<text text-anchor="middle" x="1133.5" y="-2193.8" font-family="Helvetica,sans-Serif" font-size="14.00">FixedUpdate</text>
</a>
</g>
</g>
<g id="clust11" class="cluster">
<title>clusternode_Set(11)</title>
<g id="a_clust11"><a xlink:title="PostUpdate">
<path fill="#ffffff" fill-opacity="0.266667" stroke="#ffffff" stroke-width="2" stroke-opacity="0.313725" d="M1467,-2170C1467,-2170 1622,-2170 1622,-2170 1628,-2170 1634,-2176 1634,-2182 1634,-2182 1634,-2385 1634,-2385 1634,-2391 1628,-2397 1622,-2397 1622,-2397 1467,-2397 1467,-2397 1461,-2397 1455,-2391 1455,-2385 1455,-2385 1455,-2182 1455,-2182 1455,-2176 1461,-2170 1467,-2170"/>
<text text-anchor="middle" x="1544.5" y="-2381.8" font-family="Helvetica,sans-Serif" font-size="14.00">PostUpdate</text>
</a>
</g>
</g>
<g id="clust12" class="cluster">
<title>clusternode_Set(87)</title>
<g id="a_clust12"><a xlink:title="CalculateBoundsFlush">
<path fill="#ffffff" fill-opacity="0.266667" stroke="#ffffff" stroke-width="2" stroke-opacity="0.313725" d="M1475,-2280C1475,-2280 1614,-2280 1614,-2280 1620,-2280 1626,-2286 1626,-2292 1626,-2292 1626,-2354 1626,-2354 1626,-2360 1620,-2366 1614,-2366 1614,-2366 1475,-2366 1475,-2366 1469,-2366 1463,-2360 1463,-2354 1463,-2354 1463,-2292 1463,-2292 1463,-2286 1469,-2280 1475,-2280"/>
<text text-anchor="middle" x="1544.5" y="-2350.8" font-family="Helvetica,sans-Serif" font-size="14.00">CalculateBoundsFlush</text>
</a>
</g>
</g>
<g id="clust13" class="cluster">
<title>clusternode_Set(138)</title>
<g id="a_clust13"><a xlink:title="AddClustersFlush">
<path fill="#ffffff" fill-opacity="0.266667" stroke="#ffffff" stroke-width="2" stroke-opacity="0.313725" d="M1475,-2186C1475,-2186 1614,-2186 1614,-2186 1620,-2186 1626,-2192 1626,-2198 1626,-2198 1626,-2260 1626,-2260 1626,-2266 1620,-2272 1614,-2272 1614,-2272 1475,-2272 1475,-2272 1469,-2272 1463,-2266 1463,-2260 1463,-2260 1463,-2198 1463,-2198 1463,-2192 1469,-2186 1475,-2186"/>
<text text-anchor="middle" x="1544.5" y="-2256.8" font-family="Helvetica,sans-Serif" font-size="14.00">AddClustersFlush</text>
</a>
</g>
</g>
<g id="clust14" class="cluster">
<title>clusternode_Set(12)</title>
<g id="a_clust14"><a xlink:title="Last">
<path fill="#ffffff" fill-opacity="0.266667" stroke="#ffffff" stroke-width="2" stroke-opacity="0.313725" d="M1841,-2170C1841,-2170 1860,-2170 1860,-2170 1866,-2170 1872,-2176 1872,-2182 1872,-2182 1872,-2197 1872,-2197 1872,-2203 1866,-2209 1860,-2209 1860,-2209 1841,-2209 1841,-2209 1835,-2209 1829,-2203 1829,-2197 1829,-2197 1829,-2182 1829,-2182 1829,-2176 1835,-2170 1841,-2170"/>
<text text-anchor="middle" x="1850.5" y="-2193.8" font-family="Helvetica,sans-Serif" font-size="14.00">Last</text>
</a>
</g>
</g>
<g id="clust15" class="cluster">
<title>clusternode_Set(59)</title>
<g id="a_clust15"><a xlink:title="LoadAssets">
<path fill="#ffffff" fill-opacity="0.266667" stroke="#ffffff" stroke-width="2" stroke-opacity="0.313725" d="M534.5,-2123C534.5,-2123 598.5,-2123 598.5,-2123 604.5,-2123 610.5,-2129 610.5,-2135 610.5,-2135 610.5,-2150 610.5,-2150 610.5,-2156 604.5,-2162 598.5,-2162 598.5,-2162 534.5,-2162 534.5,-2162 528.5,-2162 522.5,-2156 522.5,-2150 522.5,-2150 522.5,-2135 522.5,-2135 522.5,-2129 528.5,-2123 534.5,-2123"/>
<text text-anchor="middle" x="566.5" y="-2146.8" font-family="Helvetica,sans-Serif" font-size="14.00">LoadAssets</text>
</a>
</g>
</g>
<g id="clust16" class="cluster">
<title>clusternode_Set(60)</title>
<g id="a_clust16"><a xlink:title="AssetEvents">
<path fill="#ffffff" fill-opacity="0.266667" stroke="#ffffff" stroke-width="2" stroke-opacity="0.313725" d="M1693.5,-2123C1693.5,-2123 1761.5,-2123 1761.5,-2123 1767.5,-2123 1773.5,-2129 1773.5,-2135 1773.5,-2135 1773.5,-2150 1773.5,-2150 1773.5,-2156 1767.5,-2162 1761.5,-2162 1761.5,-2162 1693.5,-2162 1693.5,-2162 1687.5,-2162 1681.5,-2156 1681.5,-2150 1681.5,-2150 1681.5,-2135 1681.5,-2135 1681.5,-2129 1687.5,-2123 1693.5,-2123"/>
<text text-anchor="middle" x="1727.5" y="-2146.8" font-family="Helvetica,sans-Serif" font-size="14.00">AssetEvents</text>
</a>
</g>
</g>
<!-- set_marker_node_Set(0) -->
<!-- set_marker_node_Set(4) -->
<!-- set_marker_node_Set(0)&#45;&gt;set_marker_node_Set(4) -->
<g id="edge7" class="edge">
<title>set_marker_node_Set(0)&#45;&gt;set_marker_node_Set(4)</title>
<g id="a_edge7"><a xlink:title="Update → UpdateFlush">
<path fill="none" stroke="#ee9e44" stroke-width="2" d="M1260,-2178C1262.26,-2178 1264.61,-2178 1267.03,-2178"/>
<polygon fill="#ee9e44" stroke="#ee9e44" stroke-width="2" points="1267,-2181.5 1277,-2178 1267,-2174.5 1267,-2181.5"/>
</a>
</g>
</g>
<!-- set_marker_node_Set(2) -->
<!-- set_marker_node_Set(8) -->
<!-- set_marker_node_Set(2)&#45;&gt;set_marker_node_Set(8) -->
<g id="edge2" class="edge">
<title>set_marker_node_Set(2)&#45;&gt;set_marker_node_Set(8)</title>
<g id="a_edge2"><a xlink:title="FirstFlush → PreUpdate">
<path fill="none" stroke="#881877" stroke-width="2" d="M648,-2220C651.65,-2218.71 655.27,-2217.12 658.82,-2215.33"/>
<polygon fill="#881877" stroke="#881877" stroke-width="2" points="660.93,-2218.01 667.87,-2210 657.45,-2211.93 660.93,-2218.01"/>
</a>
</g>
</g>
<!-- node_System(0) -->
<g id="node3" class="node">
<title>node_System(0)</title>
<g id="a_node3"><a xlink:title="bevy_ecs::schedule::executor::apply_system_buffers">
<polygon fill="#e70000" stroke="#5a0000" stroke-width="2" points="640,-2214 493,-2214 493,-2178 640,-2178 640,-2214"/>
<text text-anchor="middle" x="566.5" y="-2192.3" font-family="Helvetica,sans-Serif" font-size="14.00" fill="#ffffff">apply_system_buffers</text>
</a>
</g>
</g>
<!-- set_marker_node_Set(3) -->
<!-- set_marker_node_Set(9) -->
<!-- set_marker_node_Set(3)&#45;&gt;set_marker_node_Set(9) -->
<g id="edge4" class="edge">
<title>set_marker_node_Set(3)&#45;&gt;set_marker_node_Set(9)</title>
<g id="a_edge4"><a xlink:title="PreUpdateFlush → StateTransitions">
<path fill="none" stroke="#aa3a55" stroke-width="2" d="M932,-2178C934.41,-2178 936.82,-2178 939.22,-2178"/>
<polygon fill="#aa3a55" stroke="#aa3a55" stroke-width="2" points="939,-2181.5 949,-2178 939,-2174.5 939,-2181.5"/>
</a>
</g>
</g>
<!-- node_System(1) -->
<g id="node5" class="node">
<title>node_System(1)</title>
<g id="a_node5"><a xlink:title="bevy_ecs::schedule::executor::apply_system_buffers">
<polygon fill="#e70000" stroke="#5a0000" stroke-width="2" points="924,-2167 777,-2167 777,-2131 924,-2131 924,-2167"/>
<text text-anchor="middle" x="850.5" y="-2145.3" font-family="Helvetica,sans-Serif" font-size="14.00" fill="#ffffff">apply_system_buffers</text>
</a>
</g>
</g>
<!-- set_marker_node_Set(11) -->
<!-- set_marker_node_Set(4)&#45;&gt;set_marker_node_Set(11) -->
<g id="edge8" class="edge">
<title>set_marker_node_Set(4)&#45;&gt;set_marker_node_Set(11)</title>
<g id="a_edge8"><a xlink:title="UpdateFlush → PostUpdate">
<path fill="none" stroke="#663699" stroke-width="2" d="M1443,-2178C1446,-2178 1449,-2178 1452,-2178"/>
<polygon fill="#663699" stroke="#663699" stroke-width="2" points="1442,-2181.5 1452,-2178 1442,-2174.5 1442,-2181.5"/>
</a>
</g>
</g>
<!-- node_System(2) -->
<g id="node7" class="node">
<title>node_System(2)</title>
<g id="a_node7"><a xlink:title="bevy_ecs::schedule::executor::apply_system_buffers">
<polygon fill="#e70000" stroke="#5a0000" stroke-width="2" points="1435,-2167 1288,-2167 1288,-2131 1435,-2131 1435,-2167"/>
<text text-anchor="middle" x="1361.5" y="-2145.3" font-family="Helvetica,sans-Serif" font-size="14.00" fill="#ffffff">apply_system_buffers</text>
</a>
</g>
</g>
<!-- set_marker_node_Set(5) -->
<!-- set_marker_node_Set(12) -->
<!-- set_marker_node_Set(5)&#45;&gt;set_marker_node_Set(12) -->
<g id="edge10" class="edge">
<title>set_marker_node_Set(5)&#45;&gt;set_marker_node_Set(12)</title>
<g id="a_edge10"><a xlink:title="PostUpdateFlush → Last">
<path fill="none" stroke="#22c2bb" stroke-width="2" d="M1809,-2220C1812.61,-2218.32 1816.07,-2216.15 1819.32,-2213.69"/>
<polygon fill="#22c2bb" stroke="#22c2bb" stroke-width="2" points="1821.87,-2216.32 1827,-2207.06 1817.21,-2211.1 1821.87,-2216.32"/>
</a>
</g>
</g>
<!-- node_System(3) -->
<g id="node9" class="node">
<title>node_System(3)</title>
<g id="a_node9"><a xlink:title="bevy_ecs::schedule::executor::apply_system_buffers">
<polygon fill="#e70000" stroke="#5a0000" stroke-width="2" points="1801,-2214 1654,-2214 1654,-2178 1801,-2178 1801,-2214"/>
<text text-anchor="middle" x="1727.5" y="-2192.3" font-family="Helvetica,sans-Serif" font-size="14.00" fill="#ffffff">apply_system_buffers</text>
</a>
</g>
</g>
<!-- set_marker_node_Set(6) -->
<!-- node_System(4) -->
<g id="node11" class="node">
<title>node_System(4)</title>
<g id="a_node11"><a xlink:title="bevy_ecs::schedule::executor::apply_system_buffers">
<polygon fill="#e70000" stroke="#5a0000" stroke-width="2" points="2047,-2167 1900,-2167 1900,-2131 2047,-2131 2047,-2167"/>
<text text-anchor="middle" x="1973.5" y="-2145.3" font-family="Helvetica,sans-Serif" font-size="14.00" fill="#ffffff">apply_system_buffers</text>
</a>
</g>
</g>
<!-- set_marker_node_Set(7) -->
<!-- set_marker_node_Set(7)&#45;&gt;set_marker_node_Set(2) -->
<g id="edge1" class="edge">
<title>set_marker_node_Set(7)&#45;&gt;set_marker_node_Set(2)</title>
<g id="a_edge1"><a xlink:title="First → FirstFlush">
<path fill="none" stroke="#eede00" stroke-width="2" d="M405.65,-2209C427.75,-2212.48 450.3,-2215.74 472.11,-2218.45"/>
<polygon fill="#eede00" stroke="#eede00" stroke-width="2" points="471.65,-2222.28 482,-2220 472.49,-2215.33 471.65,-2222.28"/>
</a>
</g>
</g>
<!-- set_marker_node_Set(59) -->
<!-- set_marker_node_Set(7)&#45;&gt;set_marker_node_Set(59) -->
<g id="edge13" class="edge">
<title>set_marker_node_Set(7)&#45;&gt;set_marker_node_Set(59)</title>
<g id="a_edge13"><a xlink:title="First → LoadAssets">
<path fill="none" stroke="#881877" stroke-width="2" d="M465,-2173C480.28,-2169.76 496.17,-2164.24 510.68,-2158.24"/>
<polygon fill="#881877" stroke="#881877" stroke-width="2" points="512.71,-2161.31 520.5,-2154.13 509.93,-2154.89 512.71,-2161.31"/>
</a>
</g>
</g>
<!-- node_System(5) -->
<g id="node13" class="node">
<title>node_System(5)</title>
<g id="a_node13"><a xlink:title="bevy_ecs::event::Events&lt;bevy_app::app::AppExit&gt;::update_system">
<polygon fill="#639d18" stroke="#98e03a" points="342.5,-2167 130.5,-2167 130.5,-2131 342.5,-2131 342.5,-2167"/>
<text text-anchor="middle" x="236.5" y="-2145.3" font-family="Helvetica,sans-Serif" font-size="14.00" fill="#e7f8d2">Events&lt;AppExit&gt;update_system</text>
</a>
</g>
</g>
<!-- node_System(13) -->
<g id="node14" class="node">
<title>node_System(13)</title>
<g id="a_node14"><a xlink:title="bevy_ecs::event::Events&lt;bevy_hierarchy::events::HierarchyEvent&gt;::update_system">
<polygon fill="#e4fba3" stroke="#c7f641" points="365.5,-2120 107.5,-2120 107.5,-2084 365.5,-2084 365.5,-2120"/>
<text text-anchor="middle" x="236.5" y="-2098.3" font-family="Helvetica,sans-Serif" font-size="14.00" fill="#243002">Events&lt;HierarchyEvent&gt;update_system</text>
</a>
</g>
</g>
<!-- node_System(14) -->
<g id="node15" class="node">
<title>node_System(14)</title>
<g id="a_node15"><a xlink:title="bevy_ecs::event::Events&lt;bevy_input::keyboard::KeyboardInput&gt;::update_system">
<polygon fill="#d36aaf" stroke="#a5317d" points="363.5,-2073 109.5,-2073 109.5,-2037 363.5,-2037 363.5,-2073"/>
<text text-anchor="middle" x="236.5" y="-2051.3" font-family="Helvetica,sans-Serif" font-size="14.00" fill="#270b1d">Events&lt;KeyboardInput&gt;update_system</text>
</a>
</g>
</g>
<!-- node_System(16) -->
<g id="node16" class="node">
<title>node_System(16)</title>
<g id="a_node16"><a xlink:title="bevy_ecs::event::Events&lt;bevy_input::mouse::MouseButtonInput&gt;::update_system">
<polygon fill="#d36aaf" stroke="#a5317d" points="374.5,-2026 98.5,-2026 98.5,-1990 374.5,-1990 374.5,-2026"/>
<text text-anchor="middle" x="236.5" y="-2004.3" font-family="Helvetica,sans-Serif" font-size="14.00" fill="#270b1d">Events&lt;MouseButtonInput&gt;update_system</text>
</a>
</g>
</g>
<!-- node_System(17) -->
<g id="node17" class="node">
<title>node_System(17)</title>
<g id="a_node17"><a xlink:title="bevy_ecs::event::Events&lt;bevy_input::mouse::MouseMotion&gt;::update_system">
<polygon fill="#d36aaf" stroke="#a5317d" points="360.5,-1979 112.5,-1979 112.5,-1943 360.5,-1943 360.5,-1979"/>
<text text-anchor="middle" x="236.5" y="-1957.3" font-family="Helvetica,sans-Serif" font-size="14.00" fill="#270b1d">Events&lt;MouseMotion&gt;update_system</text>
</a>
</g>
</g>
<!-- node_System(18) -->
<g id="node18" class="node">
<title>node_System(18)</title>
<g id="a_node18"><a xlink:title="bevy_ecs::event::Events&lt;bevy_input::mouse::MouseWheel&gt;::update_system">
<polygon fill="#d36aaf" stroke="#a5317d" points="359,-1932 114,-1932 114,-1896 359,-1896 359,-1932"/>
<text text-anchor="middle" x="236.5" y="-1910.3" font-family="Helvetica,sans-Serif" font-size="14.00" fill="#270b1d">Events&lt;MouseWheel&gt;update_system</text>
</a>
</g>
</g>
<!-- node_System(20) -->
<g id="node19" class="node">
<title>node_System(20)</title>
<g id="a_node19"><a xlink:title="bevy_ecs::event::Events&lt;bevy_input::gamepad::GamepadConnectionEvent&gt;::update_system">
<polygon fill="#d36aaf" stroke="#a5317d" points="400.5,-1885 72.5,-1885 72.5,-1849 400.5,-1849 400.5,-1885"/>
<text text-anchor="middle" x="236.5" y="-1863.3" font-family="Helvetica,sans-Serif" font-size="14.00" fill="#270b1d">Events&lt;GamepadConnectionEvent&gt;update_system</text>
</a>
</g>
</g>
<!-- node_System(21) -->
<g id="node20" class="node">
<title>node_System(21)</title>
<g id="a_node20"><a xlink:title="bevy_ecs::event::Events&lt;bevy_input::gamepad::GamepadButtonChangedEvent&gt;::update_system">
<polygon fill="#d36aaf" stroke="#a5317d" points="413,-1838 60,-1838 60,-1802 413,-1802 413,-1838"/>
<text text-anchor="middle" x="236.5" y="-1816.3" font-family="Helvetica,sans-Serif" font-size="14.00" fill="#270b1d">Events&lt;GamepadButtonChangedEvent&gt;update_system</text>
</a>
</g>
</g>
<!-- node_System(22) -->
<g id="node21" class="node">
<title>node_System(22)</title>
<g id="a_node21"><a xlink:title="bevy_ecs::event::Events&lt;bevy_input::gamepad::GamepadAxisChangedEvent&gt;::update_system">
<polygon fill="#d36aaf" stroke="#a5317d" points="406.5,-1791 66.5,-1791 66.5,-1755 406.5,-1755 406.5,-1791"/>
<text text-anchor="middle" x="236.5" y="-1769.3" font-family="Helvetica,sans-Serif" font-size="14.00" fill="#270b1d">Events&lt;GamepadAxisChangedEvent&gt;update_system</text>
</a>
</g>
</g>
<!-- node_System(23) -->
<g id="node22" class="node">
<title>node_System(23)</title>
<g id="a_node22"><a xlink:title="bevy_ecs::event::Events&lt;bevy_input::gamepad::GamepadEvent&gt;::update_system">
<polygon fill="#d36aaf" stroke="#a5317d" points="366.5,-1744 106.5,-1744 106.5,-1708 366.5,-1708 366.5,-1744"/>
<text text-anchor="middle" x="236.5" y="-1722.3" font-family="Helvetica,sans-Serif" font-size="14.00" fill="#270b1d">Events&lt;GamepadEvent&gt;update_system</text>
</a>
</g>
</g>
<!-- node_System(28) -->
<g id="node23" class="node">
<title>node_System(28)</title>
<g id="a_node23"><a xlink:title="bevy_ecs::event::Events&lt;bevy_input::touch::TouchInput&gt;::update_system">
<polygon fill="#d36aaf" stroke="#a5317d" points="353.5,-1697 119.5,-1697 119.5,-1661 353.5,-1661 353.5,-1697"/>
<text text-anchor="middle" x="236.5" y="-1675.3" font-family="Helvetica,sans-Serif" font-size="14.00" fill="#270b1d">Events&lt;TouchInput&gt;update_system</text>
</a>
</g>
</g>
<!-- node_System(30) -->
<g id="node24" class="node">
<title>node_System(30)</title>
<g id="a_node24"><a xlink:title="bevy_ecs::event::Events&lt;bevy_window::event::WindowResized&gt;::update_system">
<polygon fill="#bb85d4" stroke="#8e3fb3" points="368,-1650 105,-1650 105,-1614 368,-1614 368,-1650"/>
<text text-anchor="middle" x="236.5" y="-1628.3" font-family="Helvetica,sans-Serif" font-size="14.00" fill="#1d0d25">Events&lt;WindowResized&gt;update_system</text>
</a>
</g>
</g>
<!-- node_System(31) -->
<g id="node25" class="node">
<title>node_System(31)</title>
<g id="a_node25"><a xlink:title="bevy_ecs::event::Events&lt;bevy_window::event::WindowCreated&gt;::update_system">
<polygon fill="#bb85d4" stroke="#8e3fb3" points="367.5,-1603 105.5,-1603 105.5,-1567 367.5,-1567 367.5,-1603"/>
<text text-anchor="middle" x="236.5" y="-1581.3" font-family="Helvetica,sans-Serif" font-size="14.00" fill="#1d0d25">Events&lt;WindowCreated&gt;update_system</text>
</a>
</g>
</g>
<!-- node_System(32) -->
<g id="node26" class="node">
<title>node_System(32)</title>
<g id="a_node26"><a xlink:title="bevy_ecs::event::Events&lt;bevy_window::event::WindowClosed&gt;::update_system">
<polygon fill="#bb85d4" stroke="#8e3fb3" points="364.5,-1556 108.5,-1556 108.5,-1520 364.5,-1520 364.5,-1556"/>
<text text-anchor="middle" x="236.5" y="-1534.3" font-family="Helvetica,sans-Serif" font-size="14.00" fill="#1d0d25">Events&lt;WindowClosed&gt;update_system</text>
</a>
</g>
</g>
<!-- node_System(33) -->
<g id="node27" class="node">
<title>node_System(33)</title>
<g id="a_node27"><a xlink:title="bevy_ecs::event::Events&lt;bevy_window::event::WindowCloseRequested&gt;::update_system">
<polygon fill="#bb85d4" stroke="#8e3fb3" points="393.5,-1509 79.5,-1509 79.5,-1473 393.5,-1473 393.5,-1509"/>
<text text-anchor="middle" x="236.5" y="-1487.3" font-family="Helvetica,sans-Serif" font-size="14.00" fill="#1d0d25">Events&lt;WindowCloseRequested&gt;update_system</text>
</a>
</g>
</g>
<!-- node_System(34) -->
<g id="node28" class="node">
<title>node_System(34)</title>
<g id="a_node28"><a xlink:title="bevy_ecs::event::Events&lt;bevy_window::event::RequestRedraw&gt;::update_system">
<polygon fill="#bb85d4" stroke="#8e3fb3" points="368,-1462 105,-1462 105,-1426 368,-1426 368,-1462"/>
<text text-anchor="middle" x="236.5" y="-1440.3" font-family="Helvetica,sans-Serif" font-size="14.00" fill="#1d0d25">Events&lt;RequestRedraw&gt;update_system</text>
</a>
</g>
</g>
<!-- node_System(35) -->
<g id="node29" class="node">
<title>node_System(35)</title>
<g id="a_node29"><a xlink:title="bevy_ecs::event::Events&lt;bevy_window::event::CursorMoved&gt;::update_system">
<polygon fill="#bb85d4" stroke="#8e3fb3" points="360.5,-1415 112.5,-1415 112.5,-1379 360.5,-1379 360.5,-1415"/>
<text text-anchor="middle" x="236.5" y="-1393.3" font-family="Helvetica,sans-Serif" font-size="14.00" fill="#1d0d25">Events&lt;CursorMoved&gt;update_system</text>
</a>
</g>
</g>
<!-- node_System(36) -->
<g id="node30" class="node">
<title>node_System(36)</title>
<g id="a_node30"><a xlink:title="bevy_ecs::event::Events&lt;bevy_window::event::CursorEntered&gt;::update_system">
<polygon fill="#bb85d4" stroke="#8e3fb3" points="363.5,-1368 109.5,-1368 109.5,-1332 363.5,-1332 363.5,-1368"/>
<text text-anchor="middle" x="236.5" y="-1346.3" font-family="Helvetica,sans-Serif" font-size="14.00" fill="#1d0d25">Events&lt;CursorEntered&gt;update_system</text>
</a>
</g>
</g>
<!-- node_System(37) -->
<g id="node31" class="node">
<title>node_System(37)</title>
<g id="a_node31"><a xlink:title="bevy_ecs::event::Events&lt;bevy_window::event::CursorLeft&gt;::update_system">
<polygon fill="#bb85d4" stroke="#8e3fb3" points="351.5,-1321 121.5,-1321 121.5,-1285 351.5,-1285 351.5,-1321"/>
<text text-anchor="middle" x="236.5" y="-1299.3" font-family="Helvetica,sans-Serif" font-size="14.00" fill="#1d0d25">Events&lt;CursorLeft&gt;update_system</text>
</a>
</g>
</g>
<!-- node_System(38) -->
<g id="node32" class="node">
<title>node_System(38)</title>
<g id="a_node32"><a xlink:title="bevy_ecs::event::Events&lt;bevy_window::event::ReceivedCharacter&gt;::update_system">
<polygon fill="#bb85d4" stroke="#8e3fb3" points="377,-1274 96,-1274 96,-1238 377,-1238 377,-1274"/>
<text text-anchor="middle" x="236.5" y="-1252.3" font-family="Helvetica,sans-Serif" font-size="14.00" fill="#1d0d25">Events&lt;ReceivedCharacter&gt;update_system</text>
</a>
</g>
</g>
<!-- node_System(39) -->
<g id="node33" class="node">
<title>node_System(39)</title>
<g id="a_node33"><a xlink:title="bevy_ecs::event::Events&lt;bevy_window::event::Ime&gt;::update_system">
<polygon fill="#bb85d4" stroke="#8e3fb3" points="330.5,-1227 142.5,-1227 142.5,-1191 330.5,-1191 330.5,-1227"/>
<text text-anchor="middle" x="236.5" y="-1205.3" font-family="Helvetica,sans-Serif" font-size="14.00" fill="#1d0d25">Events&lt;Ime&gt;update_system</text>
</a>
</g>
</g>
<!-- node_System(40) -->
<g id="node34" class="node">
<title>node_System(40)</title>
<g id="a_node34"><a xlink:title="bevy_ecs::event::Events&lt;bevy_window::event::WindowFocused&gt;::update_system">
<polygon fill="#bb85d4" stroke="#8e3fb3" points="369.5,-1180 103.5,-1180 103.5,-1144 369.5,-1144 369.5,-1180"/>
<text text-anchor="middle" x="236.5" y="-1158.3" font-family="Helvetica,sans-Serif" font-size="14.00" fill="#1d0d25">Events&lt;WindowFocused&gt;update_system</text>
</a>
</g>
</g>
<!-- node_System(41) -->
<g id="node35" class="node">
<title>node_System(41)</title>
<g id="a_node35"><a xlink:title="bevy_ecs::event::Events&lt;bevy_window::event::WindowScaleFactorChanged&gt;::update_system">
<polygon fill="#bb85d4" stroke="#8e3fb3" points="407,-1133 66,-1133 66,-1097 407,-1097 407,-1133"/>
<text text-anchor="middle" x="236.5" y="-1111.3" font-family="Helvetica,sans-Serif" font-size="14.00" fill="#1d0d25">Events&lt;WindowScaleFactorChanged&gt;update_system</text>
</a>
</g>
</g>
<!-- node_System(42) -->
<g id="node36" class="node">
<title>node_System(42)</title>
<g id="a_node36"><a xlink:title="bevy_ecs::event::Events&lt;bevy_window::event::WindowBackendScaleFactorChanged&gt;::update_system">
<polygon fill="#bb85d4" stroke="#8e3fb3" points="433.5,-1086 39.5,-1086 39.5,-1050 433.5,-1050 433.5,-1086"/>
<text text-anchor="middle" x="236.5" y="-1064.3" font-family="Helvetica,sans-Serif" font-size="14.00" fill="#1d0d25">Events&lt;WindowBackendScaleFactorChanged&gt;update_system</text>
</a>
</g>
</g>
<!-- node_System(43) -->
<g id="node37" class="node">
<title>node_System(43)</title>
<g id="a_node37"><a xlink:title="bevy_ecs::event::Events&lt;bevy_window::event::FileDragAndDrop&gt;::update_system">
<polygon fill="#bb85d4" stroke="#8e3fb3" points="371.5,-1039 101.5,-1039 101.5,-1003 371.5,-1003 371.5,-1039"/>
<text text-anchor="middle" x="236.5" y="-1017.3" font-family="Helvetica,sans-Serif" font-size="14.00" fill="#1d0d25">Events&lt;FileDragAndDrop&gt;update_system</text>
</a>
</g>
</g>
<!-- node_System(44) -->
<g id="node38" class="node">
<title>node_System(44)</title>
<g id="a_node38"><a xlink:title="bevy_ecs::event::Events&lt;bevy_window::event::WindowMoved&gt;::update_system">
<polygon fill="#bb85d4" stroke="#8e3fb3" points="364,-992 109,-992 109,-956 364,-956 364,-992"/>
<text text-anchor="middle" x="236.5" y="-970.3" font-family="Helvetica,sans-Serif" font-size="14.00" fill="#1d0d25">Events&lt;WindowMoved&gt;update_system</text>
</a>
</g>
</g>
<!-- node_System(51) -->
<g id="node39" class="node">
<title>node_System(51)</title>
<g id="a_node39"><a xlink:title="bevy_ecs::event::Events&lt;bevy_asset::assets::AssetEvent&lt;bevy_scene::dynamic_scene::DynamicScene&gt;&gt;::update_system">
<polygon fill="#d1cbc5" stroke="#a3978c" points="407,-945 66,-945 66,-909 407,-909 407,-945"/>
<text text-anchor="middle" x="236.5" y="-923.3" font-family="Helvetica,sans-Serif" font-size="14.00" fill="#1c1916">Events&lt;AssetEvent&lt;DynamicScene&gt;&gt;update_system</text>
</a>
</g>
</g>
<!-- node_System(54) -->
<g id="node40" class="node">
<title>node_System(54)</title>
<g id="a_node40"><a xlink:title="bevy_ecs::event::Events&lt;bevy_asset::assets::AssetEvent&lt;bevy_scene::scene::Scene&gt;&gt;::update_system">
<polygon fill="#d1cbc5" stroke="#a3978c" points="381,-898 92,-898 92,-862 381,-862 381,-898"/>
<text text-anchor="middle" x="236.5" y="-876.3" font-family="Helvetica,sans-Serif" font-size="14.00" fill="#1c1916">Events&lt;AssetEvent&lt;Scene&gt;&gt;update_system</text>
</a>
</g>
</g>
<!-- node_System(59) -->
<g id="node41" class="node">
<title>node_System(59)</title>
<g id="a_node41"><a xlink:title="bevy_ecs::event::Events&lt;accesskit::ActionRequest&gt;::update_system">
<polygon fill="#eff1f3" stroke="#b4bec7" points="363.5,-851 109.5,-851 109.5,-815 363.5,-815 363.5,-851"/>
<text text-anchor="middle" x="236.5" y="-829.3" font-family="Helvetica,sans-Serif" font-size="14.00" fill="#15191d">Events&lt;ActionRequest&gt;update_system</text>
</a>
</g>
</g>
<!-- node_System(66) -->
<g id="node42" class="node">
<title>node_System(66)</title>
<g id="a_node42"><a xlink:title="bevy_ecs::event::Events&lt;bevy_asset::assets::AssetEvent&lt;bevy_render::render_resource::shader::Shader&gt;&gt;::update_system">
<polygon fill="#d1cbc5" stroke="#a3978c" points="383.5,-804 89.5,-804 89.5,-768 383.5,-768 383.5,-804"/>
<text text-anchor="middle" x="236.5" y="-782.3" font-family="Helvetica,sans-Serif" font-size="14.00" fill="#1c1916">Events&lt;AssetEvent&lt;Shader&gt;&gt;update_system</text>
</a>
</g>
</g>
<!-- node_System(80) -->
<g id="node43" class="node">
<title>node_System(80)</title>
<g id="a_node43"><a xlink:title="bevy_ecs::event::Events&lt;bevy_asset::assets::AssetEvent&lt;bevy_render::mesh::mesh::Mesh&gt;&gt;::update_system">
<polygon fill="#d1cbc5" stroke="#a3978c" points="378.5,-757 94.5,-757 94.5,-721 378.5,-721 378.5,-757"/>
<text text-anchor="middle" x="236.5" y="-735.3" font-family="Helvetica,sans-Serif" font-size="14.00" fill="#1c1916">Events&lt;AssetEvent&lt;Mesh&gt;&gt;update_system</text>
</a>
</g>
</g>
<!-- node_System(83) -->
<g id="node44" class="node">
<title>node_System(83)</title>
<g id="a_node44"><a xlink:title="bevy_ecs::event::Events&lt;bevy_asset::assets::AssetEvent&lt;bevy_render::mesh::mesh::skinning::SkinnedMeshInverseBindposes&gt;&gt;::update_system">
<polygon fill="#d1cbc5" stroke="#a3978c" points="457,-710 16,-710 16,-674 457,-674 457,-710"/>
<text text-anchor="middle" x="236.5" y="-688.3" font-family="Helvetica,sans-Serif" font-size="14.00" fill="#1c1916">Events&lt;AssetEvent&lt;SkinnedMeshInverseBindposes&gt;&gt;update_system</text>
</a>
</g>
</g>
<!-- node_System(86) -->
<g id="node45" class="node">
<title>node_System(86)</title>
<g id="a_node45"><a xlink:title="bevy_ecs::event::Events&lt;bevy_asset::assets::AssetEvent&lt;bevy_render::texture::image::Image&gt;&gt;::update_system">
<polygon fill="#d1cbc5" stroke="#a3978c" points="380.5,-663 92.5,-663 92.5,-627 380.5,-627 380.5,-663"/>
<text text-anchor="middle" x="236.5" y="-641.3" font-family="Helvetica,sans-Serif" font-size="14.00" fill="#1c1916">Events&lt;AssetEvent&lt;Image&gt;&gt;update_system</text>
</a>
</g>
</g>
<!-- node_System(89) -->
<g id="node46" class="node">
<title>node_System(89)</title>
<g id="a_node46"><a xlink:title="bevy_ecs::event::Events&lt;bevy_asset::assets::AssetEvent&lt;bevy_sprite::texture_atlas::TextureAtlas&gt;&gt;::update_system">
<polygon fill="#d1cbc5" stroke="#a3978c" points="400,-616 73,-616 73,-580 400,-580 400,-616"/>
<text text-anchor="middle" x="236.5" y="-594.3" font-family="Helvetica,sans-Serif" font-size="14.00" fill="#1c1916">Events&lt;AssetEvent&lt;TextureAtlas&gt;&gt;update_system</text>
</a>
</g>
</g>
<!-- node_System(92) -->
<g id="node47" class="node">
<title>node_System(92)</title>
<g id="a_node47"><a xlink:title="bevy_ecs::event::Events&lt;bevy_asset::assets::AssetEvent&lt;bevy_sprite::mesh2d::color_material::ColorMaterial&gt;&gt;::update_system">
<polygon fill="#d1cbc5" stroke="#a3978c" points="402.5,-569 70.5,-569 70.5,-533 402.5,-533 402.5,-569"/>
<text text-anchor="middle" x="236.5" y="-547.3" font-family="Helvetica,sans-Serif" font-size="14.00" fill="#1c1916">Events&lt;AssetEvent&lt;ColorMaterial&gt;&gt;update_system</text>
</a>
</g>
</g>
<!-- node_System(95) -->
<g id="node48" class="node">
<title>node_System(95)</title>
<g id="a_node48"><a xlink:title="bevy_ecs::event::Events&lt;bevy_asset::assets::AssetEvent&lt;bevy_text::font::Font&gt;&gt;::update_system">
<polygon fill="#d1cbc5" stroke="#a3978c" points="375.5,-522 97.5,-522 97.5,-486 375.5,-486 375.5,-522"/>
<text text-anchor="middle" x="236.5" y="-500.3" font-family="Helvetica,sans-Serif" font-size="14.00" fill="#1c1916">Events&lt;AssetEvent&lt;Font&gt;&gt;update_system</text>
</a>
</g>
</g>
<!-- node_System(98) -->
<g id="node49" class="node">
<title>node_System(98)</title>
<g id="a_node49"><a xlink:title="bevy_ecs::event::Events&lt;bevy_asset::assets::AssetEvent&lt;bevy_text::font_atlas_set::FontAtlasSet&gt;&gt;::update_system">
<polygon fill="#d1cbc5" stroke="#a3978c" points="400.5,-475 72.5,-475 72.5,-439 400.5,-439 400.5,-475"/>
<text text-anchor="middle" x="236.5" y="-453.3" font-family="Helvetica,sans-Serif" font-size="14.00" fill="#1c1916">Events&lt;AssetEvent&lt;FontAtlasSet&gt;&gt;update_system</text>
</a>
</g>
</g>
<!-- node_System(112) -->
<g id="node50" class="node">
<title>node_System(112)</title>
<g id="a_node50"><a xlink:title="bevy_ecs::event::Events&lt;bevy_asset::assets::AssetEvent&lt;bevy_pbr::pbr_material::StandardMaterial&gt;&gt;::update_system">
<polygon fill="#d1cbc5" stroke="#a3978c" points="413.5,-428 59.5,-428 59.5,-392 413.5,-392 413.5,-428"/>
<text text-anchor="middle" x="236.5" y="-406.3" font-family="Helvetica,sans-Serif" font-size="14.00" fill="#1c1916">Events&lt;AssetEvent&lt;StandardMaterial&gt;&gt;update_system</text>
</a>
</g>
</g>
<!-- node_System(123) -->
<g id="node51" class="node">
<title>node_System(123)</title>
<g id="a_node51"><a xlink:title="bevy_ecs::event::Events&lt;bevy_asset::assets::AssetEvent&lt;bevy_gltf::Gltf&gt;&gt;::update_system">
<polygon fill="#d1cbc5" stroke="#a3978c" points="372.5,-381 100.5,-381 100.5,-345 372.5,-345 372.5,-381"/>
<text text-anchor="middle" x="236.5" y="-359.3" font-family="Helvetica,sans-Serif" font-size="14.00" fill="#1c1916">Events&lt;AssetEvent&lt;Gltf&gt;&gt;update_system</text>
</a>
</g>
</g>
<!-- node_System(126) -->
<g id="node52" class="node">
<title>node_System(126)</title>
<g id="a_node52"><a xlink:title="bevy_ecs::event::Events&lt;bevy_asset::assets::AssetEvent&lt;bevy_gltf::GltfNode&gt;&gt;::update_system">
<polygon fill="#d1cbc5" stroke="#a3978c" points="389,-334 84,-334 84,-298 389,-298 389,-334"/>
<text text-anchor="middle" x="236.5" y="-312.3" font-family="Helvetica,sans-Serif" font-size="14.00" fill="#1c1916">Events&lt;AssetEvent&lt;GltfNode&gt;&gt;update_system</text>
</a>
</g>
</g>
<!-- node_System(129) -->
<g id="node53" class="node">
<title>node_System(129)</title>
<g id="a_node53"><a xlink:title="bevy_ecs::event::Events&lt;bevy_asset::assets::AssetEvent&lt;bevy_gltf::GltfPrimitive&gt;&gt;::update_system">
<polygon fill="#d1cbc5" stroke="#a3978c" points="398,-287 75,-287 75,-251 398,-251 398,-287"/>
<text text-anchor="middle" x="236.5" y="-265.3" font-family="Helvetica,sans-Serif" font-size="14.00" fill="#1c1916">Events&lt;AssetEvent&lt;GltfPrimitive&gt;&gt;update_system</text>
</a>
</g>
</g>
<!-- node_System(132) -->
<g id="node54" class="node">
<title>node_System(132)</title>
<g id="a_node54"><a xlink:title="bevy_ecs::event::Events&lt;bevy_asset::assets::AssetEvent&lt;bevy_gltf::GltfMesh&gt;&gt;::update_system">
<polygon fill="#d1cbc5" stroke="#a3978c" points="389,-240 84,-240 84,-204 389,-204 389,-240"/>
<text text-anchor="middle" x="236.5" y="-218.3" font-family="Helvetica,sans-Serif" font-size="14.00" fill="#1c1916">Events&lt;AssetEvent&lt;GltfMesh&gt;&gt;update_system</text>
</a>
</g>
</g>
<!-- node_System(135) -->
<g id="node55" class="node">
<title>node_System(135)</title>
<g id="a_node55"><a xlink:title="bevy_ecs::event::Events&lt;bevy_asset::assets::AssetEvent&lt;bevy_audio::audio_source::AudioSource&gt;&gt;::update_system">
<polygon fill="#d1cbc5" stroke="#a3978c" points="400.5,-193 72.5,-193 72.5,-157 400.5,-157 400.5,-193"/>
<text text-anchor="middle" x="236.5" y="-171.3" font-family="Helvetica,sans-Serif" font-size="14.00" fill="#1c1916">Events&lt;AssetEvent&lt;AudioSource&gt;&gt;update_system</text>
</a>
</g>
</g>
<!-- node_System(138) -->
<g id="node56" class="node">
<title>node_System(138)</title>
<g id="a_node56"><a xlink:title="bevy_ecs::event::Events&lt;bevy_asset::assets::AssetEvent&lt;bevy_audio::sinks::AudioSink&gt;&gt;::update_system">
<polygon fill="#d1cbc5" stroke="#a3978c" points="392.5,-146 80.5,-146 80.5,-110 392.5,-110 392.5,-146"/>
<text text-anchor="middle" x="236.5" y="-124.3" font-family="Helvetica,sans-Serif" font-size="14.00" fill="#1c1916">Events&lt;AssetEvent&lt;AudioSink&gt;&gt;update_system</text>
</a>
</g>
</g>
<!-- node_System(141) -->
<g id="node57" class="node">
<title>node_System(141)</title>
<g id="a_node57"><a xlink:title="bevy_ecs::event::Events&lt;bevy_asset::assets::AssetEvent&lt;bevy_audio::sinks::SpatialAudioSink&gt;&gt;::update_system">
<polygon fill="#d1cbc5" stroke="#a3978c" points="413,-99 60,-99 60,-63 413,-63 413,-99"/>
<text text-anchor="middle" x="236.5" y="-77.3" font-family="Helvetica,sans-Serif" font-size="14.00" fill="#1c1916">Events&lt;AssetEvent&lt;SpatialAudioSink&gt;&gt;update_system</text>
</a>
</g>
</g>
<!-- node_System(146) -->
<g id="node58" class="node">
<title>node_System(146)</title>
<g id="a_node58"><a xlink:title="bevy_ecs::event::Events&lt;bevy_asset::assets::AssetEvent&lt;bevy_animation::AnimationClip&gt;&gt;::update_system">
<polygon fill="#d1cbc5" stroke="#a3978c" points="403.5,-52 69.5,-52 69.5,-16 403.5,-16 403.5,-52"/>
<text text-anchor="middle" x="236.5" y="-30.3" font-family="Helvetica,sans-Serif" font-size="14.00" fill="#1c1916">Events&lt;AssetEvent&lt;AnimationClip&gt;&gt;update_system</text>
</a>
</g>
</g>
<!-- set_marker_node_Set(8)&#45;&gt;set_marker_node_Set(3) -->
<g id="edge3" class="edge">
<title>set_marker_node_Set(8)&#45;&gt;set_marker_node_Set(3)</title>
<g id="a_edge3"><a xlink:title="PreUpdate → PreUpdateFlush">
<path fill="none" stroke="#00b0cc" stroke-width="2" d="M749,-2178C751.31,-2178 753.68,-2178 756.09,-2178"/>
<polygon fill="#00b0cc" stroke="#00b0cc" stroke-width="2" points="756,-2181.5 766,-2178 756,-2174.5 756,-2181.5"/>
</a>
</g>
</g>
<!-- set_marker_node_Set(10) -->
<!-- set_marker_node_Set(9)&#45;&gt;set_marker_node_Set(10) -->
<g id="edge5" class="edge">
<title>set_marker_node_Set(9)&#45;&gt;set_marker_node_Set(10)</title>
<g id="a_edge5"><a xlink:title="StateTransitions → FixedUpdate">
<path fill="none" stroke="#44d488" stroke-width="2" d="M1067,-2178C1069.35,-2178 1071.71,-2178 1074.07,-2178"/>
<polygon fill="#44d488" stroke="#44d488" stroke-width="2" points="1074,-2181.5 1084,-2178 1074,-2174.5 1074,-2181.5"/>
</a>
</g>
</g>
<!-- set_marker_node_Set(10)&#45;&gt;set_marker_node_Set(0) -->
<g id="edge6" class="edge">
<title>set_marker_node_Set(10)&#45;&gt;set_marker_node_Set(0)</title>
<g id="a_edge6"><a xlink:title="FixedUpdate → Update">
<path fill="none" stroke="#0090cc" stroke-width="2" d="M1180,-2178C1182.35,-2178 1184.7,-2178 1187.03,-2178"/>
<polygon fill="#0090cc" stroke="#0090cc" stroke-width="2" points="1187,-2181.5 1197,-2178 1187,-2174.5 1187,-2181.5"/>
</a>
</g>
</g>
<!-- set_marker_node_Set(11)&#45;&gt;set_marker_node_Set(5) -->
<g id="edge9" class="edge">
<title>set_marker_node_Set(11)&#45;&gt;set_marker_node_Set(5)</title>
<g id="a_edge9"><a xlink:title="PostUpdate → PostUpdateFlush">
<path fill="none" stroke="#3363bb" stroke-width="2" d="M1634,-2184C1642.96,-2190.93 1639.26,-2200.16 1639.93,-2208.59"/>
<polygon fill="#3363bb" stroke="#3363bb" stroke-width="2" points="1637.21,-2210.82 1645,-2218 1643.39,-2207.53 1637.21,-2210.82"/>
</a>
</g>
</g>
<!-- set_marker_node_Set(60) -->
<!-- set_marker_node_Set(11)&#45;&gt;set_marker_node_Set(60) -->
<g id="edge14" class="edge">
<title>set_marker_node_Set(11)&#45;&gt;set_marker_node_Set(60)</title>
<g id="a_edge14"><a xlink:title="PostUpdate → AssetEvents">
<path fill="none" stroke="#00b0cc" stroke-width="2" d="M1576.3,-2170C1601.67,-2163.41 1638.35,-2153.89 1669.1,-2145.9"/>
<polygon fill="#00b0cc" stroke="#00b0cc" stroke-width="2" points="1670.7,-2148.59 1679.5,-2142.68 1668.94,-2141.81 1670.7,-2148.59"/>
</a>
</g>
</g>
<!-- set_marker_node_Set(87) -->
<!-- node_System(71) -->
<g id="node64" class="node">
<title>node_System(71)</title>
<g id="a_node64"><a xlink:title="bevy_ecs::schedule::executor::apply_system_buffers">
<polygon fill="#e70000" stroke="#5a0000" stroke-width="2" points="1618,-2324 1471,-2324 1471,-2288 1618,-2288 1618,-2324"/>
<text text-anchor="middle" x="1544.5" y="-2302.3" font-family="Helvetica,sans-Serif" font-size="14.00" fill="#ffffff">apply_system_buffers</text>
</a>
</g>
</g>
<!-- set_marker_node_Set(138) -->
<!-- node_System(114) -->
<g id="node66" class="node">
<title>node_System(114)</title>
<g id="a_node66"><a xlink:title="bevy_ecs::schedule::executor::apply_system_buffers">
<polygon fill="#e70000" stroke="#5a0000" stroke-width="2" points="1618,-2230 1471,-2230 1471,-2194 1618,-2194 1618,-2230"/>
<text text-anchor="middle" x="1544.5" y="-2208.3" font-family="Helvetica,sans-Serif" font-size="14.00" fill="#ffffff">apply_system_buffers</text>
</a>
</g>
</g>
<!-- set_marker_node_Set(12)&#45;&gt;set_marker_node_Set(6) -->
<g id="edge11" class="edge">
<title>set_marker_node_Set(12)&#45;&gt;set_marker_node_Set(6)</title>
<g id="a_edge11"><a xlink:title="Last → LastFlush">
<path fill="none" stroke="#99d955" stroke-width="2" d="M1872,-2178C1874.33,-2178 1876.81,-2178 1879.39,-2178"/>
<polygon fill="#99d955" stroke="#99d955" stroke-width="2" points="1879,-2181.5 1889,-2178 1879,-2174.5 1879,-2181.5"/>
</a>
</g>
</g>
<!-- set_marker_node_Set(59)&#45;&gt;set_marker_node_Set(8) -->
<g id="edge12" class="edge">
<title>set_marker_node_Set(59)&#45;&gt;set_marker_node_Set(8)</title>
<g id="a_edge12"><a xlink:title="LoadAssets → PreUpdate">
<path fill="none" stroke="#eede00" stroke-width="2" d="M610.5,-2145.49C629.87,-2152.01 652.49,-2159.63 670.95,-2165.86"/>
<polygon fill="#eede00" stroke="#eede00" stroke-width="2" points="670.67,-2170.13 681.27,-2170 672.91,-2163.49 670.67,-2170.13"/>
</a>
</g>
</g>
<!-- set_marker_node_Set(60)&#45;&gt;set_marker_node_Set(12) -->
<g id="edge15" class="edge">
<title>set_marker_node_Set(60)&#45;&gt;set_marker_node_Set(12)</title>
<g id="a_edge15"><a xlink:title="AssetEvents → Last">
<path fill="none" stroke="#aa3a55" stroke-width="2" d="M1773.5,-2148.55C1787.96,-2154.19 1803.69,-2160.33 1817.02,-2165.53"/>
<polygon fill="#aa3a55" stroke="#aa3a55" stroke-width="2" points="1816.41,-2168.83 1827,-2169.2 1818.96,-2162.31 1816.41,-2168.83"/>
</a>
</g>
</g>
</g>
</svg>
