<?xml version="1.0" encoding="UTF-8" standalone="no"?>
<!DOCTYPE svg PUBLIC "-//W3C//DTD SVG 1.1//EN"
 "http://www.w3.org/Graphics/SVG/1.1/DTD/svg11.dtd">
<!-- Generated by graphviz version 7.1.0 (0)
 -->
<!-- Pages: 1 -->
<svg width="1890pt" height="453pt"
 viewBox="0.00 0.00 1890.00 453.00" xmlns="http://www.w3.org/2000/svg" xmlns:xlink="http://www.w3.org/1999/xlink">
<g id="graph0" class="graph" transform="scale(1 1) rotate(0) translate(4 449)">
<polygon fill="#0d1117" stroke="none" points="-4,4 -4,-449 1886,-449 1886,4 -4,4"/>
<g id="clust1" class="cluster">
<title>clusternode_Set(0)</title>
<g id="a_clust1"><a xlink:title="Update">
<polygon fill="#6f90ad" stroke="black" points="691,-102 691,-141 756,-141 756,-102 691,-102"/>
<text text-anchor="middle" x="723.5" y="-125.8" font-family="Helvetica,sans-Serif" font-size="14.00">Update</text>
</a>
</g>
</g>
<g id="clust2" class="cluster">
<title>clusternode_Set(2)</title>
<g id="a_clust2"><a xlink:title="FirstFlush">
<polygon fill="#6f90ad" stroke="black" points="70,-125 70,-164 152,-164 152,-125 70,-125"/>
<text text-anchor="middle" x="111" y="-148.8" font-family="Helvetica,sans-Serif" font-size="14.00">FirstFlush</text>
</a>
</g>
</g>
<g id="clust3" class="cluster">
<title>clusternode_Set(3)</title>
<g id="a_clust3"><a xlink:title="PreUpdateFlush">
<polygon fill="#6f90ad" stroke="black" points="284,-102 284,-141 407,-141 407,-102 284,-102"/>
<text text-anchor="middle" x="345.5" y="-125.8" font-family="Helvetica,sans-Serif" font-size="14.00">PreUpdateFlush</text>
</a>
</g>
</g>
<g id="clust4" class="cluster">
<title>clusternode_Set(4)</title>
<g id="a_clust4"><a xlink:title="UpdateFlush">
<polygon fill="#6f90ad" stroke="black" points="776,-102 776,-141 877,-141 877,-102 776,-102"/>
<text text-anchor="middle" x="826.5" y="-125.8" font-family="Helvetica,sans-Serif" font-size="14.00">UpdateFlush</text>
</a>
</g>
</g>
<g id="clust5" class="cluster">
<title>clusternode_Set(5)</title>
<g id="a_clust5"><a xlink:title="PostUpdateFlush">
<polygon fill="#6f90ad" stroke="black" points="1171.5,-55 1171.5,-94 1300.5,-94 1300.5,-55 1171.5,-55"/>
<text text-anchor="middle" x="1236" y="-78.8" font-family="Helvetica,sans-Serif" font-size="14.00">PostUpdateFlush</text>
</a>
</g>
</g>
<g id="clust6" class="cluster">
<title>clusternode_Set(6)</title>
<g id="a_clust6"><a xlink:title="LastFlush">
<polygon fill="#6f90ad" stroke="black" points="1718,-31 1718,-70 1798,-70 1798,-31 1718,-31"/>
<text text-anchor="middle" x="1758" y="-54.8" font-family="Helvetica,sans-Serif" font-size="14.00">LastFlush</text>
</a>
</g>
</g>
<g id="clust7" class="cluster">
<title>clusternode_Set(7)</title>
<g id="a_clust7"><a xlink:title="First">
<polygon fill="#6f90ad" stroke="black" points="0,-101 0,-140 46,-140 46,-101 0,-101"/>
<text text-anchor="middle" x="23" y="-124.8" font-family="Helvetica,sans-Serif" font-size="14.00">First</text>
</a>
</g>
</g>
<g id="clust8" class="cluster">
<title>clusternode_Set(8)</title>
<g id="a_clust8"><a xlink:title="PreUpdate">
<polygon fill="#6f90ad" stroke="black" points="177,-102 177,-141 264,-141 264,-102 177,-102"/>
<text text-anchor="middle" x="220.5" y="-125.8" font-family="Helvetica,sans-Serif" font-size="14.00">PreUpdate</text>
</a>
</g>
</g>
<g id="clust9" class="cluster">
<title>clusternode_Set(9)</title>
<g id="a_clust9"><a xlink:title="StateTransitions">
<polygon fill="#6f90ad" stroke="black" points="427,-102 427,-141 551,-141 551,-102 427,-102"/>
<text text-anchor="middle" x="489" y="-125.8" font-family="Helvetica,sans-Serif" font-size="14.00">StateTransitions</text>
</a>
</g>
</g>
<g id="clust10" class="cluster">
<title>clusternode_Set(10)</title>
<g id="a_clust10"><a xlink:title="FixedUpdate">
<polygon fill="#6f90ad" stroke="black" points="571,-102 571,-141 671,-141 671,-102 571,-102"/>
<text text-anchor="middle" x="621" y="-125.8" font-family="Helvetica,sans-Serif" font-size="14.00">FixedUpdate</text>
</a>
</g>
</g>
<g id="clust11" class="cluster">
<title>clusternode_Set(11)</title>
<g id="a_clust11"><a xlink:title="PostUpdate">
<polygon fill="#6f90ad" stroke="black" points="897,-102 897,-437 1874,-437 1874,-102 897,-102"/>
<text text-anchor="middle" x="1385.5" y="-421.8" font-family="Helvetica,sans-Serif" font-size="14.00">PostUpdate</text>
</a>
</g>
</g>
<g id="clust12" class="cluster">
<title>clusternode_Set(20)</title>
<g id="a_clust12"><a xlink:title="TransformPropagate">
<polygon fill="#6f90ad" stroke="black" points="911,-347 911,-386 1063,-386 1063,-347 911,-347"/>
<text text-anchor="middle" x="987" y="-370.8" font-family="Helvetica,sans-Serif" font-size="14.00">TransformPropagate</text>
</a>
</g>
</g>
<g id="clust13" class="cluster">
<title>clusternode_Set(76)</title>
<g id="a_clust13"><a xlink:title="CameraUpdateSystem">
<polygon fill="#6f90ad" stroke="black" points="905,-268 905,-307 1069,-307 1069,-268 905,-268"/>
<text text-anchor="middle" x="987" y="-291.8" font-family="Helvetica,sans-Serif" font-size="14.00">CameraUpdateSystem</text>
</a>
</g>
</g>
<g id="clust14" class="cluster">
<title>clusternode_Set(81)</title>
<g id="a_clust14"><a xlink:title="CalculateBoundsFlush">
<polygon fill="#6f90ad" stroke="black" points="1426,-158 1426,-197 1590,-197 1590,-158 1426,-158"/>
<text text-anchor="middle" x="1508" y="-181.8" font-family="Helvetica,sans-Serif" font-size="14.00">CalculateBoundsFlush</text>
</a>
</g>
</g>
<g id="clust15" class="cluster">
<title>clusternode_Set(85)</title>
<g id="a_clust15"><a xlink:title="CheckVisibility">
<polygon fill="#6f90ad" stroke="black" points="931,-221 931,-260 1043,-260 1043,-221 931,-221"/>
<text text-anchor="middle" x="987" y="-244.8" font-family="Helvetica,sans-Serif" font-size="14.00">CheckVisibility</text>
</a>
</g>
</g>
<g id="clust16" class="cluster">
<title>clusternode_Set(127)</title>
<g id="a_clust16"><a xlink:title="AddClusters">
<polygon fill="#6f90ad" stroke="black" points="929,-120 929,-213 1045,-213 1045,-120 929,-120"/>
<text text-anchor="middle" x="987" y="-197.8" font-family="Helvetica,sans-Serif" font-size="14.00">AddClusters</text>
</a>
</g>
</g>
<g id="clust17" class="cluster">
<title>clusternode_Set(129)</title>
<g id="a_clust17"><a xlink:title="AssignLightsToClusters">
<polygon fill="#6f90ad" stroke="black" points="1137.5,-142 1137.5,-235 1333.5,-235 1333.5,-142 1137.5,-142"/>
<text text-anchor="middle" x="1235.5" y="-219.8" font-family="Helvetica,sans-Serif" font-size="14.00">AssignLightsToClusters</text>
</a>
</g>
</g>
<g id="clust18" class="cluster">
<title>clusternode_Set(130)</title>
<g id="a_clust18"><a xlink:title="CheckLightVisibility">
<polygon fill="#6f90ad" stroke="black" points="1650,-130 1650,-223 1866,-223 1866,-130 1650,-130"/>
<text text-anchor="middle" x="1758" y="-207.8" font-family="Helvetica,sans-Serif" font-size="14.00">CheckLightVisibility</text>
</a>
</g>
</g>
<g id="clust19" class="cluster">
<title>clusternode_Set(131)</title>
<g id="a_clust19"><a xlink:title="UpdateDirectionalLightCascades">
<polygon fill="#6f90ad" stroke="black" points="1105,-243 1105,-336 1366,-336 1366,-243 1105,-243"/>
<text text-anchor="middle" x="1235.5" y="-320.8" font-family="Helvetica,sans-Serif" font-size="14.00">UpdateDirectionalLightCascades</text>
</a>
</g>
</g>
<g id="clust20" class="cluster">
<title>clusternode_Set(132)</title>
<g id="a_clust20"><a xlink:title="UpdateLightFrusta">
<polygon fill="#6f90ad" stroke="black" points="1386,-205 1386,-406 1630,-406 1630,-205 1386,-205"/>
<text text-anchor="middle" x="1508" y="-390.8" font-family="Helvetica,sans-Serif" font-size="14.00">UpdateLightFrusta</text>
</a>
</g>
</g>
<g id="clust21" class="cluster">
<title>clusternode_Set(12)</title>
<g id="a_clust21"><a xlink:title="Last">
<polygon fill="#6f90ad" stroke="black" points="1486,-31 1486,-70 1530,-70 1530,-31 1486,-31"/>
<text text-anchor="middle" x="1508" y="-54.8" font-family="Helvetica,sans-Serif" font-size="14.00">Last</text>
</a>
</g>
</g>
<g id="clust22" class="cluster">
<title>clusternode_Set(58)</title>
<g id="a_clust22"><a xlink:title="LoadAssets">
<polygon fill="#6f90ad" stroke="black" points="66,-78 66,-117 157,-117 157,-78 66,-78"/>
<text text-anchor="middle" x="111.5" y="-101.8" font-family="Helvetica,sans-Serif" font-size="14.00">LoadAssets</text>
</a>
</g>
</g>
<g id="clust23" class="cluster">
<title>clusternode_Set(59)</title>
<g id="a_clust23"><a xlink:title="AssetEvents">
<polygon fill="#6f90ad" stroke="black" points="1187.5,-8 1187.5,-47 1283.5,-47 1283.5,-8 1187.5,-8"/>
<text text-anchor="middle" x="1235.5" y="-31.8" font-family="Helvetica,sans-Serif" font-size="14.00">AssetEvents</text>
</a>
</g>
</g>
<!-- set_marker_node_Set(0) -->
<!-- set_marker_node_Set(4) -->
<!-- set_marker_node_Set(0)&#45;&gt;set_marker_node_Set(4) -->
<g id="edge7" class="edge">
<title>set_marker_node_Set(0)&#45;&gt;set_marker_node_Set(4)</title>
<g id="a_edge7"><a xlink:title="Update → UpdateFlush">
<path fill="none" stroke="#ee9e44" stroke-width="2" d="M756,-110C758.35,-110 760.77,-110 763.22,-110"/>
<polygon fill="#ee9e44" stroke="#ee9e44" stroke-width="2" points="762.97,-113.5 772.97,-110 762.97,-106.5 762.97,-113.5"/>
</a>
</g>
</g>
<!-- set_marker_node_Set(2) -->
<!-- set_marker_node_Set(8) -->
<!-- set_marker_node_Set(2)&#45;&gt;set_marker_node_Set(8) -->
<g id="edge2" class="edge">
<title>set_marker_node_Set(2)&#45;&gt;set_marker_node_Set(8)</title>
<g id="a_edge2"><a xlink:title="FirstFlush → PreUpdate">
<path fill="none" stroke="#881877" stroke-width="2" d="M149.2,-125C154.17,-123.94 159.34,-122.82 164.52,-121.71"/>
<polygon fill="#881877" stroke="#881877" stroke-width="2" points="165,-125.19 174.04,-119.66 163.53,-118.34 165,-125.19"/>
</a>
</g>
</g>
<!-- set_marker_node_Set(3) -->
<!-- set_marker_node_Set(9) -->
<!-- set_marker_node_Set(3)&#45;&gt;set_marker_node_Set(9) -->
<g id="edge4" class="edge">
<title>set_marker_node_Set(3)&#45;&gt;set_marker_node_Set(9)</title>
<g id="a_edge4"><a xlink:title="PreUpdateFlush → StateTransitions">
<path fill="none" stroke="#aa3a55" stroke-width="2" d="M407,-110C409.39,-110 411.8,-110 414.21,-110"/>
<polygon fill="#aa3a55" stroke="#aa3a55" stroke-width="2" points="413.98,-113.5 423.98,-110 413.98,-106.5 413.98,-113.5"/>
</a>
</g>
</g>
<!-- set_marker_node_Set(11) -->
<!-- set_marker_node_Set(4)&#45;&gt;set_marker_node_Set(11) -->
<g id="edge8" class="edge">
<title>set_marker_node_Set(4)&#45;&gt;set_marker_node_Set(11)</title>
<g id="a_edge8"><a xlink:title="UpdateFlush → PostUpdate">
<path fill="none" stroke="#663699" stroke-width="2" d="M877,-110C879.3,-110 881.64,-110 884.01,-110"/>
<polygon fill="#663699" stroke="#663699" stroke-width="2" points="883.97,-113.5 893.97,-110 883.97,-106.5 883.97,-113.5"/>
</a>
</g>
</g>
<!-- set_marker_node_Set(5) -->
<!-- set_marker_node_Set(12) -->
<!-- set_marker_node_Set(5)&#45;&gt;set_marker_node_Set(12) -->
<g id="edge10" class="edge">
<title>set_marker_node_Set(5)&#45;&gt;set_marker_node_Set(12)</title>
<g id="a_edge10"><a xlink:title="PostUpdateFlush → Last">
<path fill="none" stroke="#22c2bb" stroke-width="2" d="M1300.5,-57.32C1354.68,-52.51 1430.22,-45.81 1473.31,-41.99"/>
<polygon fill="#22c2bb" stroke="#22c2bb" stroke-width="2" points="1473.33,-45.5 1482.99,-41.13 1472.71,-38.53 1473.33,-45.5"/>
</a>
</g>
</g>
<!-- set_marker_node_Set(6) -->
<!-- set_marker_node_Set(7) -->
<!-- set_marker_node_Set(7)&#45;&gt;set_marker_node_Set(2) -->
<g id="edge1" class="edge">
<title>set_marker_node_Set(7)&#45;&gt;set_marker_node_Set(2)</title>
<g id="a_edge1"><a xlink:title="First → FirstFlush">
<path fill="none" stroke="#eede00" stroke-width="2" d="M46,-115.34C52.44,-117.18 59.5,-119.18 66,-121 66.73,-121.2 67.47,-121.41 68.21,-121.62"/>
<polygon fill="#eede00" stroke="#eede00" stroke-width="2" points="67,-124.91 77.57,-124.2 68.86,-118.17 67,-124.91"/>
</a>
</g>
</g>
<!-- set_marker_node_Set(58) -->
<!-- set_marker_node_Set(7)&#45;&gt;set_marker_node_Set(58) -->
<g id="edge13" class="edge">
<title>set_marker_node_Set(7)&#45;&gt;set_marker_node_Set(58)</title>
<g id="a_edge13"><a xlink:title="First → LoadAssets">
<path fill="none" stroke="#881877" stroke-width="2" d="M46,-103.12C48.46,-102.46 51.05,-101.77 53.71,-101.05"/>
<polygon fill="#881877" stroke="#881877" stroke-width="2" points="54.32,-104.51 63.08,-98.55 52.51,-97.75 54.32,-104.51"/>
</a>
</g>
</g>
<!-- set_marker_node_Set(8)&#45;&gt;set_marker_node_Set(3) -->
<g id="edge3" class="edge">
<title>set_marker_node_Set(8)&#45;&gt;set_marker_node_Set(3)</title>
<g id="a_edge3"><a xlink:title="PreUpdate → PreUpdateFlush">
<path fill="none" stroke="#00b0cc" stroke-width="2" d="M264,-110C266.39,-110 268.82,-110 271.28,-110"/>
<polygon fill="#00b0cc" stroke="#00b0cc" stroke-width="2" points="270.98,-113.5 280.98,-110 270.98,-106.5 270.98,-113.5"/>
</a>
</g>
</g>
<!-- set_marker_node_Set(10) -->
<!-- set_marker_node_Set(9)&#45;&gt;set_marker_node_Set(10) -->
<g id="edge5" class="edge">
<title>set_marker_node_Set(9)&#45;&gt;set_marker_node_Set(10)</title>
<g id="a_edge5"><a xlink:title="StateTransitions → FixedUpdate">
<path fill="none" stroke="#44d488" stroke-width="2" d="M551,-110C553.39,-110 555.79,-110 558.19,-110"/>
<polygon fill="#44d488" stroke="#44d488" stroke-width="2" points="557.98,-113.5 567.98,-110 557.98,-106.5 557.98,-113.5"/>
</a>
</g>
</g>
<!-- set_marker_node_Set(10)&#45;&gt;set_marker_node_Set(0) -->
<g id="edge6" class="edge">
<title>set_marker_node_Set(10)&#45;&gt;set_marker_node_Set(0)</title>
<g id="a_edge6"><a xlink:title="FixedUpdate → Update">
<path fill="none" stroke="#0090cc" stroke-width="2" d="M671,-110C673.37,-110 675.75,-110 678.11,-110"/>
<polygon fill="#0090cc" stroke="#0090cc" stroke-width="2" points="677.98,-113.5 687.98,-110 677.98,-106.5 677.98,-113.5"/>
</a>
</g>
</g>
<!-- set_marker_node_Set(11)&#45;&gt;set_marker_node_Set(5) -->
<g id="edge9" class="edge">
<title>set_marker_node_Set(11)&#45;&gt;set_marker_node_Set(5)</title>
<g id="a_edge9"><a xlink:title="PostUpdate → PostUpdateFlush">
<path fill="none" stroke="#3363bb" stroke-width="2" d="M1029.94,-102C1065.2,-95.28 1116.51,-85.5 1158.91,-77.41"/>
<polygon fill="#3363bb" stroke="#3363bb" stroke-width="2" points="1159.36,-80.89 1168.53,-75.58 1158.05,-74.01 1159.36,-80.89"/>
</a>
</g>
</g>
<!-- set_marker_node_Set(59) -->
<!-- set_marker_node_Set(11)&#45;&gt;set_marker_node_Set(59) -->
<g id="edge14" class="edge">
<title>set_marker_node_Set(11)&#45;&gt;set_marker_node_Set(59)</title>
<g id="a_edge14"><a xlink:title="PostUpdate → AssetEvents">
<path fill="none" stroke="#00b0cc" stroke-width="2" d="M1001.58,-102C1022.97,-89.68 1066.09,-65.89 1105,-51 1127.43,-42.41 1152.81,-35.07 1175.12,-29.35"/>
<polygon fill="#00b0cc" stroke="#00b0cc" stroke-width="2" points="1175.71,-32.81 1184.57,-27 1174.02,-26.02 1175.71,-32.81"/>
</a>
</g>
</g>
<!-- set_marker_node_Set(20) -->
<!-- node_System(106) -->
<g id="node19" class="node">
<title>node_System(106)</title>
<g id="a_node19"><a xlink:title="bevy_pbr::light::assign_lights_to_clusters">
<polygon fill="#eff1f3" stroke="#eff1f3" points="1325.5,-186 1145.5,-186 1145.5,-150 1325.5,-150 1325.5,-186"/>
<text text-anchor="middle" x="1235.5" y="-164.3" font-family="Times,serif" font-size="14.00">assign_lights_to_clusters</text>
</a>
</g>
</g>
<!-- set_marker_node_Set(20)&#45;&gt;node_System(106) -->
<g id="edge16" class="edge">
<title>set_marker_node_Set(20)&#45;&gt;node_System(106)</title>
<g id="a_edge16"><a xlink:title="TransformPropagate → assign_lights_to_clusters">
<path fill="none" stroke="#44d488" stroke-width="2" d="M1013.43,-347C1031.35,-340.13 1054.62,-328.53 1069,-311 1103.24,-269.27 1065.05,-231.31 1105,-195 1113.12,-187.62 1122.73,-182.05 1132.98,-177.88"/>
<polygon fill="#44d488" stroke="#44d488" stroke-width="2" points="1134.11,-181.19 1142.4,-174.59 1131.8,-174.58 1134.11,-181.19"/>
</a>
</g>
</g>
<!-- node_System(111) -->
<g id="node21" class="node">
<title>node_System(111)</title>
<g id="a_node21"><a xlink:title="bevy_pbr::light::check_light_mesh_visibility">
<polygon fill="#eff1f3" stroke="#eff1f3" points="1858,-174 1658,-174 1658,-138 1858,-138 1858,-174"/>
<text text-anchor="middle" x="1758" y="-152.3" font-family="Times,serif" font-size="14.00">check_light_mesh_visibility</text>
</a>
</g>
</g>
<!-- set_marker_node_Set(20)&#45;&gt;node_System(111) -->
<g id="edge29" class="edge">
<title>set_marker_node_Set(20)&#45;&gt;node_System(111)</title>
<g id="a_edge29"><a xlink:title="TransformPropagate → check_light_mesh_visibility">
<path fill="none" stroke="#ee9e44" stroke-width="2" d="M1063,-351.75C1076.96,-351.15 1091.42,-350.55 1105,-350 1119.5,-349.41 1355.39,-349.9 1366,-340 1396.39,-311.63 1355.07,-181.78 1386,-154 1404.98,-136.95 1542.63,-141.77 1644.76,-147.93"/>
<polygon fill="#ee9e44" stroke="#ee9e44" stroke-width="2" points="1644.43,-151.41 1654.63,-148.53 1644.87,-144.43 1644.43,-151.41"/>
</a>
</g>
</g>
<!-- node_System(107) -->
<g id="node23" class="node">
<title>node_System(107)</title>
<g id="a_node23"><a xlink:title="bevy_pbr::light::update_directional_light_cascades">
<polygon fill="#eff1f3" stroke="#eff1f3" points="1358,-287 1113,-287 1113,-251 1358,-251 1358,-287"/>
<text text-anchor="middle" x="1235.5" y="-265.3" font-family="Times,serif" font-size="14.00">update_directional_light_cascades</text>
</a>
</g>
</g>
<!-- set_marker_node_Set(20)&#45;&gt;node_System(107) -->
<g id="edge19" class="edge">
<title>set_marker_node_Set(20)&#45;&gt;node_System(107)</title>
<g id="a_edge19"><a xlink:title="TransformPropagate → update_directional_light_cascades">
<path fill="none" stroke="#663699" stroke-width="2" d="M1002.65,-347C1029.21,-332.62 1084.45,-303.19 1105,-296 1110.06,-294.23 1115.28,-292.56 1120.57,-290.98"/>
<polygon fill="#663699" stroke="#663699" stroke-width="2" points="1121.46,-294.37 1130.14,-288.3 1119.57,-287.63 1121.46,-294.37"/>
</a>
</g>
</g>
<!-- node_System(108) -->
<g id="node25" class="node">
<title>node_System(108)</title>
<g id="a_node25"><a xlink:title="bevy_pbr::light::update_directional_light_frusta">
<polygon fill="#eff1f3" stroke="#eff1f3" points="1622,-249 1394,-249 1394,-213 1622,-213 1622,-249"/>
<text text-anchor="middle" x="1508" y="-227.3" font-family="Times,serif" font-size="14.00">update_directional_light_frusta</text>
</a>
</g>
</g>
<!-- set_marker_node_Set(20)&#45;&gt;node_System(108) -->
<g id="edge22" class="edge">
<title>set_marker_node_Set(20)&#45;&gt;node_System(108)</title>
<g id="a_edge22"><a xlink:title="TransformPropagate → update_directional_light_frusta">
<path fill="none" stroke="#99d955" stroke-width="2" d="M1063,-358.92C1166.55,-363.59 1343.19,-368.63 1366,-350 1398.41,-323.53 1356.49,-287.67 1386,-258 1386.2,-257.8 1386.4,-257.6 1386.6,-257.4"/>
<polygon fill="#99d955" stroke="#99d955" stroke-width="2" points="1388.52,-260.36 1394.03,-251.3 1384.08,-254.95 1388.52,-260.36"/>
</a>
</g>
</g>
<!-- node_System(109) -->
<g id="node26" class="node">
<title>node_System(109)</title>
<g id="a_node26"><a xlink:title="bevy_pbr::light::update_point_light_frusta">
<polygon fill="#eff1f3" stroke="#eff1f3" points="1603,-303 1413,-303 1413,-267 1603,-267 1603,-303"/>
<text text-anchor="middle" x="1508" y="-281.3" font-family="Times,serif" font-size="14.00">update_point_light_frusta</text>
</a>
</g>
</g>
<!-- set_marker_node_Set(20)&#45;&gt;node_System(109) -->
<g id="edge24" class="edge">
<title>set_marker_node_Set(20)&#45;&gt;node_System(109)</title>
<g id="a_edge24"><a xlink:title="TransformPropagate → update_point_light_frusta">
<path fill="none" stroke="#881877" stroke-width="2" d="M1063,-368.49C1159.16,-384.03 1319.12,-403.42 1366,-370 1388.2,-354.17 1365.67,-330.17 1386,-312 1390.62,-307.87 1395.74,-304.33 1401.17,-301.29"/>
<polygon fill="#881877" stroke="#881877" stroke-width="2" points="1402.49,-304.54 1410,-297.06 1399.47,-298.23 1402.49,-304.54"/>
</a>
</g>
</g>
<!-- node_System(110) -->
<g id="node27" class="node">
<title>node_System(110)</title>
<g id="a_node27"><a xlink:title="bevy_pbr::light::update_spot_light_frusta">
<polygon fill="#eff1f3" stroke="#eff1f3" points="1599,-357 1417,-357 1417,-321 1599,-321 1599,-357"/>
<text text-anchor="middle" x="1508" y="-335.3" font-family="Times,serif" font-size="14.00">update_spot_light_frusta</text>
</a>
</g>
</g>
<!-- set_marker_node_Set(20)&#45;&gt;node_System(110) -->
<g id="edge26" class="edge">
<title>set_marker_node_Set(20)&#45;&gt;node_System(110)</title>
<g id="a_edge26"><a xlink:title="TransformPropagate → update_spot_light_frusta">
<path fill="none" stroke="#aa3a55" stroke-width="2" d="M1063,-380.93C1076.81,-384.7 1091.22,-387.98 1105,-390 1219.78,-406.8 1260.95,-439.2 1366,-390 1378.57,-384.11 1374.15,-373.23 1386,-366 1391.86,-362.43 1398.13,-359.33 1404.63,-356.63"/>
<polygon fill="#aa3a55" stroke="#aa3a55" stroke-width="2" points="1405.53,-360.03 1413.68,-353.27 1403.09,-353.47 1405.53,-360.03"/>
</a>
</g>
</g>
<!-- set_marker_node_Set(76) -->
<!-- set_marker_node_Set(76)&#45;&gt;node_System(106) -->
<g id="edge18" class="edge">
<title>set_marker_node_Set(76)&#45;&gt;node_System(106)</title>
<g id="a_edge18"><a xlink:title="CameraUpdateSystem → assign_lights_to_clusters">
<path fill="none" stroke="#ee9e44" stroke-width="2" d="M1062.48,-268C1064.74,-266.81 1066.92,-265.48 1069,-264 1097.18,-243.94 1077.42,-215.87 1105,-195 1113.33,-188.69 1122.79,-183.78 1132.72,-179.96"/>
<polygon fill="#ee9e44" stroke="#ee9e44" stroke-width="2" points="1133.79,-183.29 1142.15,-176.78 1131.55,-176.66 1133.79,-183.29"/>
</a>
</g>
</g>
<!-- set_marker_node_Set(76)&#45;&gt;node_System(107) -->
<g id="edge20" class="edge">
<title>set_marker_node_Set(76)&#45;&gt;node_System(107)</title>
<g id="a_edge20"><a xlink:title="CameraUpdateSystem → update_directional_light_cascades">
<path fill="none" stroke="#3363bb" stroke-width="2" d="M1069,-273.7C1078.95,-273.42 1089.33,-273.12 1099.81,-272.82"/>
<polygon fill="#3363bb" stroke="#3363bb" stroke-width="2" points="1099.77,-276.33 1109.67,-272.54 1099.57,-269.33 1099.77,-276.33"/>
</a>
</g>
</g>
<!-- set_marker_node_Set(81) -->
<!-- set_marker_node_Set(81)&#45;&gt;node_System(111) -->
<g id="edge28" class="edge">
<title>set_marker_node_Set(81)&#45;&gt;node_System(111)</title>
<g id="a_edge28"><a xlink:title="CalculateBoundsFlush → check_light_mesh_visibility">
<path fill="none" stroke="#0090cc" stroke-width="2" d="M1590,-162.73C1607.53,-162.03 1626.38,-161.27 1644.87,-160.52"/>
<polygon fill="#0090cc" stroke="#0090cc" stroke-width="2" points="1644.86,-164.02 1654.71,-160.12 1644.58,-157.03 1644.86,-164.02"/>
</a>
</g>
</g>
<!-- set_marker_node_Set(85) -->
<!-- set_marker_node_Set(85)&#45;&gt;node_System(106) -->
<g id="edge17" class="edge">
<title>set_marker_node_Set(85)&#45;&gt;node_System(106)</title>
<g id="a_edge17"><a xlink:title="CheckVisibility → assign_lights_to_clusters">
<path fill="none" stroke="#0090cc" stroke-width="2" d="M1043,-223.9C1051.84,-222.22 1060.78,-219.98 1069,-217 1086.63,-210.61 1087.57,-201.9 1105,-195 1113.83,-191.5 1123.19,-188.43 1132.68,-185.74"/>
<polygon fill="#0090cc" stroke="#0090cc" stroke-width="2" points="1133.5,-189.14 1142.27,-183.19 1131.7,-182.37 1133.5,-189.14"/>
</a>
</g>
</g>
<!-- set_marker_node_Set(85)&#45;&gt;node_System(111) -->
<g id="edge31" class="edge">
<title>set_marker_node_Set(85)&#45;&gt;node_System(111)</title>
<g id="a_edge31"><a xlink:title="CheckVisibility → check_light_mesh_visibility">
<path fill="none" stroke="#3363bb" stroke-width="2" d="M1043,-228.86C1052.42,-226.7 1061.55,-223.02 1069,-217 1104.45,-188.36 1067.55,-146.96 1105,-121 1148.15,-91.1 1470.23,-122.8 1644.99,-142.6"/>
<polygon fill="#3363bb" stroke="#3363bb" stroke-width="2" points="1644.48,-146.07 1654.81,-143.72 1645.28,-139.11 1644.48,-146.07"/>
</a>
</g>
</g>
<!-- set_marker_node_Set(85)&#45;&gt;node_System(108) -->
<g id="edge21" class="edge">
<title>set_marker_node_Set(85)&#45;&gt;node_System(108)</title>
<g id="a_edge21"><a xlink:title="CheckVisibility → update_directional_light_frusta">
<path fill="none" stroke="#22c2bb" stroke-width="2" d="M1043,-228.36C1052.33,-226.23 1061.44,-222.69 1069,-217 1099.83,-193.8 1072.55,-158.87 1105,-138 1129.39,-122.31 1342.6,-120.88 1366,-138 1389.71,-155.35 1364.57,-180.91 1386,-201 1387.63,-202.53 1389.32,-203.98 1391.07,-205.36"/>
<polygon fill="#22c2bb" stroke="#22c2bb" stroke-width="2" points="1388.92,-208.13 1399.16,-210.83 1392.84,-202.33 1388.92,-208.13"/>
</a>
</g>
</g>
<!-- set_marker_node_Set(127) -->
<!-- node_System(104) -->
<g id="node17" class="node">
<title>node_System(104)</title>
<g id="a_node17"><a xlink:title="bevy_pbr::light::add_clusters">
<polygon fill="#eff1f3" stroke="#eff1f3" points="1037,-164 937,-164 937,-128 1037,-128 1037,-164"/>
<text text-anchor="middle" x="987" y="-142.3" font-family="Times,serif" font-size="14.00">add_clusters</text>
</a>
</g>
</g>
<!-- set_marker_node_Set(129) -->
<!-- set_marker_node_Set(129)&#45;&gt;node_System(109) -->
<g id="edge25" class="edge">
<title>set_marker_node_Set(129)&#45;&gt;node_System(109)</title>
<g id="a_edge25"><a xlink:title="AssignLightsToClusters → update_point_light_frusta">
<path fill="none" stroke="#00b0cc" stroke-width="2" d="M1333.5,-224.48C1344.79,-228.52 1355.88,-233.31 1366,-239 1376.69,-245.01 1375.18,-252.23 1386,-258 1390.7,-260.51 1395.62,-262.78 1400.68,-264.84"/>
<polygon fill="#00b0cc" stroke="#00b0cc" stroke-width="2" points="1399.26,-268.05 1409.85,-268.23 1401.69,-261.48 1399.26,-268.05"/>
</a>
</g>
</g>
<!-- set_marker_node_Set(129)&#45;&gt;node_System(110) -->
<g id="edge27" class="edge">
<title>set_marker_node_Set(129)&#45;&gt;node_System(110)</title>
<g id="a_edge27"><a xlink:title="AssignLightsToClusters → update_spot_light_frusta">
<path fill="none" stroke="#44d488" stroke-width="2" d="M1333.5,-217.97C1345.55,-223.05 1356.84,-229.87 1366,-239 1389.83,-262.75 1361.65,-288.79 1386,-312 1391.54,-317.28 1397.87,-321.61 1404.68,-325.16"/>
<polygon fill="#44d488" stroke="#44d488" stroke-width="2" points="1403.18,-328.33 1413.74,-329.19 1406.03,-321.93 1403.18,-328.33"/>
</a>
</g>
</g>
<!-- set_marker_node_Set(130) -->
<!-- set_marker_node_Set(131) -->
<!-- set_marker_node_Set(131)&#45;&gt;node_System(108) -->
<g id="edge23" class="edge">
<title>set_marker_node_Set(131)&#45;&gt;node_System(108)</title>
<g id="a_edge23"><a xlink:title="UpdateDirectionalLightCascades → update_directional_light_frusta">
<path fill="none" stroke="#eede00" stroke-width="2" d="M1366,-296C1381.99,-285.58 1370.84,-269.59 1386,-258 1386.79,-257.4 1387.58,-256.81 1388.39,-256.24"/>
<polygon fill="#eede00" stroke="#eede00" stroke-width="2" points="1390.14,-259.27 1396.81,-251.04 1386.46,-253.31 1390.14,-259.27"/>
</a>
</g>
</g>
<!-- set_marker_node_Set(132) -->
<!-- set_marker_node_Set(132)&#45;&gt;node_System(111) -->
<g id="edge30" class="edge">
<title>set_marker_node_Set(132)&#45;&gt;node_System(111)</title>
<g id="a_edge30"><a xlink:title="UpdateLightFrusta → check_light_mesh_visibility">
<path fill="none" stroke="#663699" stroke-width="2" d="M1630,-366C1657.12,-339.8 1628.41,-232.61 1651.98,-185.16"/>
<polygon fill="#663699" stroke="#663699" stroke-width="2" points="1654.81,-187.23 1657.48,-176.98 1649,-183.33 1654.81,-187.23"/>
</a>
</g>
</g>
<!-- set_marker_node_Set(12)&#45;&gt;set_marker_node_Set(6) -->
<g id="edge11" class="edge">
<title>set_marker_node_Set(12)&#45;&gt;set_marker_node_Set(6)</title>
<g id="a_edge11"><a xlink:title="Last → LastFlush">
<path fill="none" stroke="#99d955" stroke-width="2" d="M1530,-39C1568.39,-39 1650.94,-39 1705.2,-39"/>
<polygon fill="#99d955" stroke="#99d955" stroke-width="2" points="1704.97,-42.5 1714.97,-39 1704.97,-35.5 1704.97,-42.5"/>
</a>
</g>
</g>
<!-- set_marker_node_Set(58)&#45;&gt;set_marker_node_Set(8) -->
<g id="edge12" class="edge">
<title>set_marker_node_Set(58)&#45;&gt;set_marker_node_Set(8)</title>
<g id="a_edge12"><a xlink:title="LoadAssets → PreUpdate">
<path fill="none" stroke="#eede00" stroke-width="2" d="M157,-96.09C161.6,-97.12 166.28,-98.18 170.91,-99.21"/>
<polygon fill="#eede00" stroke="#eede00" stroke-width="2" points="169.87,-102.57 180.39,-101.34 171.4,-95.74 169.87,-102.57"/>
</a>
</g>
</g>
<!-- set_marker_node_Set(59)&#45;&gt;set_marker_node_Set(12) -->
<g id="edge15" class="edge">
<title>set_marker_node_Set(59)&#45;&gt;set_marker_node_Set(12)</title>
<g id="a_edge15"><a xlink:title="AssetEvents → Last">
<path fill="none" stroke="#aa3a55" stroke-width="2" d="M1283.5,-20C1337.71,-24.61 1425.48,-32.07 1473.31,-36.14"/>
<polygon fill="#aa3a55" stroke="#aa3a55" stroke-width="2" points="1472.72,-39.6 1482.98,-36.96 1473.32,-32.62 1472.72,-39.6"/>
</a>
</g>
</g>
</g>
</svg>
