<?xml version="1.0" encoding="UTF-8" standalone="no"?>
<!DOCTYPE svg PUBLIC "-//W3C//DTD SVG 1.1//EN"
 "http://www.w3.org/Graphics/SVG/1.1/DTD/svg11.dtd">
<!-- Generated by graphviz version 7.1.0 (0)
 -->
<!-- Pages: 1 -->
<svg width="1509pt" height="187pt"
 viewBox="0.00 0.00 1509.00 187.00" xmlns="http://www.w3.org/2000/svg" xmlns:xlink="http://www.w3.org/1999/xlink">
<g id="graph0" class="graph" transform="scale(1 1) rotate(0) translate(4 183)">
<polygon fill="#0d1117" stroke="none" points="-4,4 -4,-183 1505,-183 1505,4 -4,4"/>
<g id="clust1" class="cluster">
<title>clusternode_Set(0)</title>
<g id="a_clust1"><a xlink:title="Update">
<polygon fill="#6f90ad" stroke="black" points="889,-31 889,-70 954,-70 954,-31 889,-31"/>
<text text-anchor="middle" x="921.5" y="-54.8" font-family="Helvetica,sans-Serif" font-size="14.00">Update</text>
</a>
</g>
</g>
<g id="clust2" class="cluster">
<title>clusternode_Set(2)</title>
<g id="a_clust2"><a xlink:title="FirstFlush">
<polygon fill="#6f90ad" stroke="black" points="204,-85 204,-124 286,-124 286,-85 204,-85"/>
<text text-anchor="middle" x="245" y="-108.8" font-family="Helvetica,sans-Serif" font-size="14.00">FirstFlush</text>
</a>
</g>
</g>
<g id="clust3" class="cluster">
<title>clusternode_Set(3)</title>
<g id="a_clust3"><a xlink:title="PreUpdateFlush">
<polygon fill="#6f90ad" stroke="black" points="490,-31 490,-70 613,-70 613,-31 490,-31"/>
<text text-anchor="middle" x="551.5" y="-54.8" font-family="Helvetica,sans-Serif" font-size="14.00">PreUpdateFlush</text>
</a>
</g>
</g>
<g id="clust4" class="cluster">
<title>clusternode_Set(4)</title>
<g id="a_clust4"><a xlink:title="UpdateFlush">
<polygon fill="#6f90ad" stroke="black" points="974,-31 974,-70 1075,-70 1075,-31 974,-31"/>
<text text-anchor="middle" x="1024.5" y="-54.8" font-family="Helvetica,sans-Serif" font-size="14.00">UpdateFlush</text>
</a>
</g>
</g>
<g id="clust5" class="cluster">
<title>clusternode_Set(5)</title>
<g id="a_clust5"><a xlink:title="PostUpdateFlush">
<polygon fill="#6f90ad" stroke="black" points="1208,-55 1208,-94 1337,-94 1337,-55 1208,-55"/>
<text text-anchor="middle" x="1272.5" y="-78.8" font-family="Helvetica,sans-Serif" font-size="14.00">PostUpdateFlush</text>
</a>
</g>
</g>
<g id="clust6" class="cluster">
<title>clusternode_Set(6)</title>
<g id="a_clust6"><a xlink:title="LastFlush">
<polygon fill="#6f90ad" stroke="black" points="1421,-20 1421,-59 1501,-59 1501,-20 1421,-20"/>
<text text-anchor="middle" x="1461" y="-43.8" font-family="Helvetica,sans-Serif" font-size="14.00">LastFlush</text>
</a>
</g>
</g>
<g id="clust7" class="cluster">
<title>clusternode_Set(7)</title>
<g id="a_clust7"><a xlink:title="First">
<polygon fill="#6f90ad" stroke="black" points="67,-51 67,-90 113,-90 113,-51 67,-51"/>
<text text-anchor="middle" x="90" y="-74.8" font-family="Helvetica,sans-Serif" font-size="14.00">First</text>
</a>
</g>
</g>
<g id="clust8" class="cluster">
<title>clusternode_Set(8)</title>
<g id="a_clust8"><a xlink:title="PreUpdate">
<polygon fill="#6f90ad" stroke="black" points="311,-78 311,-171 610,-171 610,-78 311,-78"/>
<text text-anchor="middle" x="460.5" y="-155.8" font-family="Helvetica,sans-Serif" font-size="14.00">PreUpdate</text>
</a>
</g>
</g>
<g id="clust9" class="cluster">
<title>clusternode_Set(25)</title>
<g id="a_clust9"><a xlink:title="InputSystem">
<polygon fill="#6f90ad" stroke="black" points="501,-101 501,-140 602,-140 602,-101 501,-101"/>
<text text-anchor="middle" x="551.5" y="-124.8" font-family="Helvetica,sans-Serif" font-size="14.00">InputSystem</text>
</a>
</g>
</g>
<g id="clust10" class="cluster">
<title>clusternode_Set(9)</title>
<g id="a_clust10"><a xlink:title="StateTransitions">
<polygon fill="#6f90ad" stroke="black" points="625,-31 625,-70 749,-70 749,-31 625,-31"/>
<text text-anchor="middle" x="687" y="-54.8" font-family="Helvetica,sans-Serif" font-size="14.00">StateTransitions</text>
</a>
</g>
</g>
<g id="clust11" class="cluster">
<title>clusternode_Set(10)</title>
<g id="a_clust11"><a xlink:title="FixedUpdate">
<polygon fill="#6f90ad" stroke="black" points="769,-31 769,-70 869,-70 869,-31 769,-31"/>
<text text-anchor="middle" x="819" y="-54.8" font-family="Helvetica,sans-Serif" font-size="14.00">FixedUpdate</text>
</a>
</g>
</g>
<g id="clust12" class="cluster">
<title>clusternode_Set(11)</title>
<g id="a_clust12"><a xlink:title="PostUpdate">
<polygon fill="#6f90ad" stroke="black" points="1095,-31 1095,-70 1188,-70 1188,-31 1095,-31"/>
<text text-anchor="middle" x="1141.5" y="-54.8" font-family="Helvetica,sans-Serif" font-size="14.00">PostUpdate</text>
</a>
</g>
</g>
<g id="clust13" class="cluster">
<title>clusternode_Set(12)</title>
<g id="a_clust13"><a xlink:title="Last">
<polygon fill="#6f90ad" stroke="black" points="1357,-20 1357,-59 1401,-59 1401,-20 1357,-20"/>
<text text-anchor="middle" x="1379" y="-43.8" font-family="Helvetica,sans-Serif" font-size="14.00">Last</text>
</a>
</g>
</g>
<g id="clust14" class="cluster">
<title>clusternode_Set(22)</title>
<g id="a_clust14"><a xlink:title="PropagateTransformsSet">
<polygon fill="#6f90ad" stroke="black" points="0,-125 0,-164 180,-164 180,-125 0,-125"/>
<text text-anchor="middle" x="90" y="-148.8" font-family="Helvetica,sans-Serif" font-size="14.00">PropagateTransformsSet</text>
</a>
</g>
</g>
<g id="clust15" class="cluster">
<title>clusternode_Set(59)</title>
<g id="a_clust15"><a xlink:title="LoadAssets">
<polygon fill="#6f90ad" stroke="black" points="200,-38 200,-77 291,-77 291,-38 200,-38"/>
<text text-anchor="middle" x="245.5" y="-61.8" font-family="Helvetica,sans-Serif" font-size="14.00">LoadAssets</text>
</a>
</g>
</g>
<g id="clust16" class="cluster">
<title>clusternode_Set(60)</title>
<g id="a_clust16"><a xlink:title="AssetEvents">
<polygon fill="#6f90ad" stroke="black" points="1224,-8 1224,-47 1320,-47 1320,-8 1224,-8"/>
<text text-anchor="middle" x="1272" y="-31.8" font-family="Helvetica,sans-Serif" font-size="14.00">AssetEvents</text>
</a>
</g>
</g>
<!-- set_marker_node_Set(0) -->
<!-- set_marker_node_Set(4) -->
<!-- set_marker_node_Set(0)&#45;&gt;set_marker_node_Set(4) -->
<g id="edge7" class="edge">
<title>set_marker_node_Set(0)&#45;&gt;set_marker_node_Set(4)</title>
<g id="a_edge7"><a xlink:title="Update → UpdateFlush">
<path fill="none" stroke="#ee9e44" stroke-width="2" d="M954,-39C956.35,-39 958.77,-39 961.22,-39"/>
<polygon fill="#ee9e44" stroke="#ee9e44" stroke-width="2" points="960.97,-42.5 970.97,-39 960.97,-35.5 960.97,-42.5"/>
</a>
</g>
</g>
<!-- set_marker_node_Set(2) -->
<!-- set_marker_node_Set(8) -->
<!-- set_marker_node_Set(2)&#45;&gt;set_marker_node_Set(8) -->
<g id="edge2" class="edge">
<title>set_marker_node_Set(2)&#45;&gt;set_marker_node_Set(8)</title>
<g id="a_edge2"><a xlink:title="FirstFlush → PreUpdate">
<path fill="none" stroke="#881877" stroke-width="2" d="M286,-91.05C289.95,-90.86 294.06,-90.66 298.26,-90.45"/>
<polygon fill="#881877" stroke="#881877" stroke-width="2" points="298.16,-93.96 307.98,-89.98 297.82,-86.97 298.16,-93.96"/>
</a>
</g>
</g>
<!-- set_marker_node_Set(3) -->
<!-- set_marker_node_Set(9) -->
<!-- set_marker_node_Set(3)&#45;&gt;set_marker_node_Set(9) -->
<g id="edge4" class="edge">
<title>set_marker_node_Set(3)&#45;&gt;set_marker_node_Set(9)</title>
<g id="a_edge4"><a xlink:title="PreUpdateFlush → StateTransitions">
<path fill="none" stroke="#aa3a55" stroke-width="2" d="M613,-39C616,-39 619,-39 622,-39"/>
<polygon fill="#aa3a55" stroke="#aa3a55" stroke-width="2" points="611.98,-42.5 621.98,-39 611.98,-35.5 611.98,-42.5"/>
</a>
</g>
</g>
<!-- set_marker_node_Set(11) -->
<!-- set_marker_node_Set(4)&#45;&gt;set_marker_node_Set(11) -->
<g id="edge8" class="edge">
<title>set_marker_node_Set(4)&#45;&gt;set_marker_node_Set(11)</title>
<g id="a_edge8"><a xlink:title="UpdateFlush → PostUpdate">
<path fill="none" stroke="#663699" stroke-width="2" d="M1075,-39C1077.43,-39 1079.88,-39 1082.32,-39"/>
<polygon fill="#663699" stroke="#663699" stroke-width="2" points="1081.98,-42.5 1091.98,-39 1081.98,-35.5 1081.98,-42.5"/>
</a>
</g>
</g>
<!-- set_marker_node_Set(5) -->
<!-- set_marker_node_Set(12) -->
<!-- set_marker_node_Set(5)&#45;&gt;set_marker_node_Set(12) -->
<g id="edge10" class="edge">
<title>set_marker_node_Set(5)&#45;&gt;set_marker_node_Set(12)</title>
<g id="a_edge10"><a xlink:title="PostUpdateFlush → Last">
<path fill="none" stroke="#22c2bb" stroke-width="2" d="M1324.03,-55C1328.46,-53.84 1332.84,-52.51 1337,-51 1339.86,-49.96 1342.76,-48.74 1345.62,-47.4"/>
<polygon fill="#22c2bb" stroke="#22c2bb" stroke-width="2" points="1347.05,-50.61 1354.32,-42.9 1343.83,-44.39 1347.05,-50.61"/>
</a>
</g>
</g>
<!-- set_marker_node_Set(6) -->
<!-- set_marker_node_Set(7) -->
<!-- set_marker_node_Set(7)&#45;&gt;set_marker_node_Set(2) -->
<g id="edge1" class="edge">
<title>set_marker_node_Set(7)&#45;&gt;set_marker_node_Set(2)</title>
<g id="a_edge1"><a xlink:title="First → FirstFlush">
<path fill="none" stroke="#eede00" stroke-width="2" d="M113,-63.89C134.47,-68.66 167.86,-76.08 195.55,-82.23"/>
<polygon fill="#eede00" stroke="#eede00" stroke-width="2" points="194.53,-85.59 205.06,-84.35 196.05,-78.76 194.53,-85.59"/>
</a>
</g>
</g>
<!-- set_marker_node_Set(59) -->
<!-- set_marker_node_Set(7)&#45;&gt;set_marker_node_Set(59) -->
<g id="edge13" class="edge">
<title>set_marker_node_Set(7)&#45;&gt;set_marker_node_Set(59)</title>
<g id="a_edge13"><a xlink:title="First → LoadAssets">
<path fill="none" stroke="#881877" stroke-width="2" d="M113,-57.13C132.35,-55.49 161.37,-53.02 187.19,-50.83"/>
<polygon fill="#881877" stroke="#881877" stroke-width="2" points="187.32,-54.33 196.98,-49.99 186.72,-47.35 187.32,-54.33"/>
</a>
</g>
</g>
<!-- set_marker_node_Set(8)&#45;&gt;set_marker_node_Set(3) -->
<g id="edge3" class="edge">
<title>set_marker_node_Set(8)&#45;&gt;set_marker_node_Set(3)</title>
<g id="a_edge3"><a xlink:title="PreUpdate → PreUpdateFlush">
<path fill="none" stroke="#00b0cc" stroke-width="2" d="M418.47,-78C434.81,-73.16 456.5,-66.72 477.55,-60.48"/>
<polygon fill="#00b0cc" stroke="#00b0cc" stroke-width="2" points="478.51,-63.85 487.1,-57.65 476.52,-57.14 478.51,-63.85"/>
</a>
</g>
</g>
<!-- set_marker_node_Set(25) -->
<!-- node_System(143) -->
<g id="node10" class="node">
<title>node_System(143)</title>
<g id="a_node10"><a xlink:title="bevy_gilrs::gilrs_system::gilrs_event_system">
<polygon fill="#eff1f3" stroke="#eff1f3" points="462,-140 319,-140 319,-104 462,-104 462,-140"/>
<text text-anchor="middle" x="390.5" y="-118.3" font-family="Times,serif" font-size="14.00">gilrs_event_system</text>
</a>
</g>
</g>
<!-- node_System(143)&#45;&gt;set_marker_node_Set(25) -->
<g id="edge16" class="edge">
<title>node_System(143)&#45;&gt;set_marker_node_Set(25)</title>
<g id="a_edge16"><a xlink:title="gilrs_event_system → InputSystem">
<path fill="none" stroke="#44d488" stroke-width="2" d="M462.41,-116.18C470.96,-115.48 479.65,-114.77 488.07,-114.08"/>
<polygon fill="#44d488" stroke="#44d488" stroke-width="2" points="488.31,-117.57 497.99,-113.27 487.74,-110.6 488.31,-117.57"/>
</a>
</g>
</g>
<!-- set_marker_node_Set(10) -->
<!-- set_marker_node_Set(9)&#45;&gt;set_marker_node_Set(10) -->
<g id="edge5" class="edge">
<title>set_marker_node_Set(9)&#45;&gt;set_marker_node_Set(10)</title>
<g id="a_edge5"><a xlink:title="StateTransitions → FixedUpdate">
<path fill="none" stroke="#44d488" stroke-width="2" d="M749,-39C751.39,-39 753.79,-39 756.19,-39"/>
<polygon fill="#44d488" stroke="#44d488" stroke-width="2" points="755.98,-42.5 765.98,-39 755.98,-35.5 755.98,-42.5"/>
</a>
</g>
</g>
<!-- set_marker_node_Set(10)&#45;&gt;set_marker_node_Set(0) -->
<g id="edge6" class="edge">
<title>set_marker_node_Set(10)&#45;&gt;set_marker_node_Set(0)</title>
<g id="a_edge6"><a xlink:title="FixedUpdate → Update">
<path fill="none" stroke="#0090cc" stroke-width="2" d="M869,-39C871.37,-39 873.75,-39 876.11,-39"/>
<polygon fill="#0090cc" stroke="#0090cc" stroke-width="2" points="875.98,-42.5 885.98,-39 875.98,-35.5 875.98,-42.5"/>
</a>
</g>
</g>
<!-- set_marker_node_Set(11)&#45;&gt;set_marker_node_Set(5) -->
<g id="edge9" class="edge">
<title>set_marker_node_Set(11)&#45;&gt;set_marker_node_Set(5)</title>
<g id="a_edge9"><a xlink:title="PostUpdate → PostUpdateFlush">
<path fill="none" stroke="#3363bb" stroke-width="2" d="M1188,-47.56C1196.83,-49.2 1206.16,-50.94 1215.26,-52.63"/>
<polygon fill="#3363bb" stroke="#3363bb" stroke-width="2" points="1214.56,-56.06 1225.04,-54.45 1215.84,-49.18 1214.56,-56.06"/>
</a>
</g>
</g>
<!-- set_marker_node_Set(60) -->
<!-- set_marker_node_Set(11)&#45;&gt;set_marker_node_Set(60) -->
<g id="edge14" class="edge">
<title>set_marker_node_Set(11)&#45;&gt;set_marker_node_Set(60)</title>
<g id="a_edge14"><a xlink:title="PostUpdate → AssetEvents">
<path fill="none" stroke="#00b0cc" stroke-width="2" d="M1186.87,-31C1194.84,-29.58 1203.26,-28.08 1211.57,-26.6"/>
<polygon fill="#00b0cc" stroke="#00b0cc" stroke-width="2" points="1211.79,-30.11 1221.02,-24.91 1210.56,-23.22 1211.79,-30.11"/>
</a>
</g>
</g>
<!-- set_marker_node_Set(12)&#45;&gt;set_marker_node_Set(6) -->
<g id="edge11" class="edge">
<title>set_marker_node_Set(12)&#45;&gt;set_marker_node_Set(6)</title>
<g id="a_edge11"><a xlink:title="Last → LastFlush">
<path fill="none" stroke="#99d955" stroke-width="2" d="M1401,-28C1403.31,-28 1405.74,-28 1408.23,-28"/>
<polygon fill="#99d955" stroke="#99d955" stroke-width="2" points="1407.98,-31.5 1417.98,-28 1407.98,-24.5 1407.98,-31.5"/>
</a>
</g>
</g>
<!-- set_marker_node_Set(22) -->
<!-- set_marker_node_Set(59)&#45;&gt;set_marker_node_Set(8) -->
<g id="edge12" class="edge">
<title>set_marker_node_Set(59)&#45;&gt;set_marker_node_Set(8)</title>
<g id="a_edge12"><a xlink:title="LoadAssets → PreUpdate">
<path fill="none" stroke="#eede00" stroke-width="2" d="M291,-58.54C309.33,-63.65 330.39,-69.52 348.31,-74.52"/>
<polygon fill="#eede00" stroke="#eede00" stroke-width="2" points="347.31,-77.87 357.89,-77.19 349.19,-71.13 347.31,-77.87"/>
</a>
</g>
</g>
<!-- set_marker_node_Set(60)&#45;&gt;set_marker_node_Set(12) -->
<g id="edge15" class="edge">
<title>set_marker_node_Set(60)&#45;&gt;set_marker_node_Set(12)</title>
<g id="a_edge15"><a xlink:title="AssetEvents → Last">
<path fill="none" stroke="#aa3a55" stroke-width="2" d="M1320,-21.37C1328.11,-22.3 1336.4,-23.25 1344.08,-24.12"/>
<polygon fill="#aa3a55" stroke="#aa3a55" stroke-width="2" points="1343.66,-27.6 1354,-25.26 1344.46,-20.64 1343.66,-27.6"/>
</a>
</g>
</g>
</g>
</svg>
