<?xml version="1.0" encoding="UTF-8" standalone="no"?>
<!DOCTYPE svg PUBLIC "-//W3C//DTD SVG 1.1//EN"
 "http://www.w3.org/Graphics/SVG/1.1/DTD/svg11.dtd">
<!-- Generated by graphviz version 8.0.1 (0)
 -->
<!-- Pages: 1 -->
<svg width="1318pt" height="204pt"
 viewBox="0.00 0.00 1318.00 204.00" xmlns="http://www.w3.org/2000/svg" xmlns:xlink="http://www.w3.org/1999/xlink">
<g id="graph0" class="graph" transform="scale(1 1) rotate(0) translate(4 200)">
<polygon fill="#0d1117" stroke="none" points="-4,4 -4,-200 1314,-200 1314,4 -4,4"/>
<g id="clust1" class="cluster">
<title>clusternode_Set(0)</title>
<g id="a_clust1"><a xlink:title="Update">
<path fill="#ffffff" fill-opacity="0.266667" stroke="#ffffff" stroke-width="2" stroke-opacity="0.313725" d="M666,-102C666,-102 702,-102 702,-102 708,-102 714,-108 714,-114 714,-114 714,-129 714,-129 714,-135 708,-141 702,-141 702,-141 666,-141 666,-141 660,-141 654,-135 654,-129 654,-129 654,-114 654,-114 654,-108 660,-102 666,-102"/>
<text text-anchor="middle" x="684" y="-125.8" font-family="Helvetica,sans-Serif" font-size="14.00">Update</text>
</a>
</g>
</g>
<g id="clust2" class="cluster">
<title>clusternode_Set(2)</title>
<g id="a_clust2"><a xlink:title="FirstFlush">
<path fill="#ffffff" fill-opacity="0.266667" stroke="#ffffff" stroke-width="2" stroke-opacity="0.313725" d="M81,-125C81,-125 133,-125 133,-125 139,-125 145,-131 145,-137 145,-137 145,-152 145,-152 145,-158 139,-164 133,-164 133,-164 81,-164 81,-164 75,-164 69,-158 69,-152 69,-152 69,-137 69,-137 69,-131 75,-125 81,-125"/>
<text text-anchor="middle" x="107" y="-148.8" font-family="Helvetica,sans-Serif" font-size="14.00">FirstFlush</text>
</a>
</g>
</g>
<g id="clust3" class="cluster">
<title>clusternode_Set(3)</title>
<g id="a_clust3"><a xlink:title="PreUpdateFlush">
<path fill="#ffffff" fill-opacity="0.266667" stroke="#ffffff" stroke-width="2" stroke-opacity="0.313725" d="M284,-102C284,-102 374,-102 374,-102 380,-102 386,-108 386,-114 386,-114 386,-129 386,-129 386,-135 380,-141 374,-141 374,-141 284,-141 284,-141 278,-141 272,-135 272,-129 272,-129 272,-114 272,-114 272,-108 278,-102 284,-102"/>
<text text-anchor="middle" x="329" y="-125.8" font-family="Helvetica,sans-Serif" font-size="14.00">PreUpdateFlush</text>
</a>
</g>
</g>
<g id="clust4" class="cluster">
<title>clusternode_Set(4)</title>
<g id="a_clust4"><a xlink:title="UpdateFlush">
<path fill="#ffffff" fill-opacity="0.266667" stroke="#ffffff" stroke-width="2" stroke-opacity="0.313725" d="M746,-102C746,-102 815,-102 815,-102 821,-102 827,-108 827,-114 827,-114 827,-129 827,-129 827,-135 821,-141 815,-141 815,-141 746,-141 746,-141 740,-141 734,-135 734,-129 734,-129 734,-114 734,-114 734,-108 740,-102 746,-102"/>
<text text-anchor="middle" x="780.5" y="-125.8" font-family="Helvetica,sans-Serif" font-size="14.00">UpdateFlush</text>
</a>
</g>
</g>
<g id="clust5" class="cluster">
<title>clusternode_Set(5)</title>
<g id="a_clust5"><a xlink:title="PostUpdateFlush">
<path fill="#ffffff" fill-opacity="0.266667" stroke="#ffffff" stroke-width="2" stroke-opacity="0.313725" d="M1032,-55C1032,-55 1128,-55 1128,-55 1134,-55 1140,-61 1140,-67 1140,-67 1140,-82 1140,-82 1140,-88 1134,-94 1128,-94 1128,-94 1032,-94 1032,-94 1026,-94 1020,-88 1020,-82 1020,-82 1020,-67 1020,-67 1020,-61 1026,-55 1032,-55"/>
<text text-anchor="middle" x="1080" y="-78.8" font-family="Helvetica,sans-Serif" font-size="14.00">PostUpdateFlush</text>
</a>
</g>
</g>
<g id="clust6" class="cluster">
<title>clusternode_Set(6)</title>
<g id="a_clust6"><a xlink:title="LastFlush">
<path fill="#ffffff" fill-opacity="0.266667" stroke="#ffffff" stroke-width="2" stroke-opacity="0.313725" d="M1246,-31C1246,-31 1298,-31 1298,-31 1304,-31 1310,-37 1310,-43 1310,-43 1310,-58 1310,-58 1310,-64 1304,-70 1298,-70 1298,-70 1246,-70 1246,-70 1240,-70 1234,-64 1234,-58 1234,-58 1234,-43 1234,-43 1234,-37 1240,-31 1246,-31"/>
<text text-anchor="middle" x="1272" y="-54.8" font-family="Helvetica,sans-Serif" font-size="14.00">LastFlush</text>
</a>
</g>
</g>
<g id="clust7" class="cluster">
<title>clusternode_Set(7)</title>
<g id="a_clust7"><a xlink:title="First">
<path fill="#ffffff" fill-opacity="0.266667" stroke="#ffffff" stroke-width="2" stroke-opacity="0.313725" d="M12,-101C12,-101 31,-101 31,-101 37,-101 43,-107 43,-113 43,-113 43,-128 43,-128 43,-134 37,-140 31,-140 31,-140 12,-140 12,-140 6,-140 0,-134 0,-128 0,-128 0,-113 0,-113 0,-107 6,-101 12,-101"/>
<text text-anchor="middle" x="21.5" y="-124.8" font-family="Helvetica,sans-Serif" font-size="14.00">First</text>
</a>
</g>
</g>
<g id="clust8" class="cluster">
<title>clusternode_Set(8)</title>
<g id="a_clust8"><a xlink:title="PreUpdate">
<path fill="#ffffff" fill-opacity="0.266667" stroke="#ffffff" stroke-width="2" stroke-opacity="0.313725" d="M183,-102C183,-102 240,-102 240,-102 246,-102 252,-108 252,-114 252,-114 252,-129 252,-129 252,-135 246,-141 240,-141 240,-141 183,-141 183,-141 177,-141 171,-135 171,-129 171,-129 171,-114 171,-114 171,-108 177,-102 183,-102"/>
<text text-anchor="middle" x="211.5" y="-125.8" font-family="Helvetica,sans-Serif" font-size="14.00">PreUpdate</text>
</a>
</g>
</g>
<g id="clust9" class="cluster">
<title>clusternode_Set(9)</title>
<g id="a_clust9"><a xlink:title="StateTransitions">
<path fill="#ffffff" fill-opacity="0.266667" stroke="#ffffff" stroke-width="2" stroke-opacity="0.313725" d="M418,-102C418,-102 509,-102 509,-102 515,-102 521,-108 521,-114 521,-114 521,-129 521,-129 521,-135 515,-141 509,-141 509,-141 418,-141 418,-141 412,-141 406,-135 406,-129 406,-129 406,-114 406,-114 406,-108 412,-102 418,-102"/>
<text text-anchor="middle" x="463.5" y="-125.8" font-family="Helvetica,sans-Serif" font-size="14.00">StateTransitions</text>
</a>
</g>
</g>
<g id="clust10" class="cluster">
<title>clusternode_Set(10)</title>
<g id="a_clust10"><a xlink:title="FixedUpdate">
<path fill="#ffffff" fill-opacity="0.266667" stroke="#ffffff" stroke-width="2" stroke-opacity="0.313725" d="M553,-102C553,-102 622,-102 622,-102 628,-102 634,-108 634,-114 634,-114 634,-129 634,-129 634,-135 628,-141 622,-141 622,-141 553,-141 553,-141 547,-141 541,-135 541,-129 541,-129 541,-114 541,-114 541,-108 547,-102 553,-102"/>
<text text-anchor="middle" x="587.5" y="-125.8" font-family="Helvetica,sans-Serif" font-size="14.00">FixedUpdate</text>
</a>
</g>
</g>
<g id="clust11" class="cluster">
<title>clusternode_Set(11)</title>
<g id="a_clust11"><a xlink:title="PostUpdate">
<path fill="#ffffff" fill-opacity="0.266667" stroke="#ffffff" stroke-width="2" stroke-opacity="0.313725" d="M859,-102C859,-102 1147,-102 1147,-102 1153,-102 1159,-108 1159,-114 1159,-114 1159,-176 1159,-176 1159,-182 1153,-188 1147,-188 1147,-188 859,-188 859,-188 853,-188 847,-182 847,-176 847,-176 847,-114 847,-114 847,-108 853,-102 859,-102"/>
<text text-anchor="middle" x="1003" y="-172.8" font-family="Helvetica,sans-Serif" font-size="14.00">PostUpdate</text>
</a>
</g>
</g>
<g id="clust12" class="cluster">
<title>clusternode_Set(20)</title>
<g id="a_clust12"><a xlink:title="TransformPropagate">
<path fill="#ffffff" fill-opacity="0.266667" stroke="#ffffff" stroke-width="2" stroke-opacity="0.313725" d="M1022,-118C1022,-118 1139,-118 1139,-118 1145,-118 1151,-124 1151,-130 1151,-130 1151,-145 1151,-145 1151,-151 1145,-157 1139,-157 1139,-157 1022,-157 1022,-157 1016,-157 1010,-151 1010,-145 1010,-145 1010,-130 1010,-130 1010,-124 1016,-118 1022,-118"/>
<text text-anchor="middle" x="1080.5" y="-141.8" font-family="Helvetica,sans-Serif" font-size="14.00">TransformPropagate</text>
</a>
</g>
</g>
<g id="clust13" class="cluster">
<title>clusternode_Set(12)</title>
<g id="a_clust13"><a xlink:title="Last">
<path fill="#ffffff" fill-opacity="0.266667" stroke="#ffffff" stroke-width="2" stroke-opacity="0.313725" d="M1183,-31C1183,-31 1202,-31 1202,-31 1208,-31 1214,-37 1214,-43 1214,-43 1214,-58 1214,-58 1214,-64 1208,-70 1202,-70 1202,-70 1183,-70 1183,-70 1177,-70 1171,-64 1171,-58 1171,-58 1171,-43 1171,-43 1171,-37 1177,-31 1183,-31"/>
<text text-anchor="middle" x="1192.5" y="-54.8" font-family="Helvetica,sans-Serif" font-size="14.00">Last</text>
</a>
</g>
</g>
<g id="clust14" class="cluster">
<title>clusternode_Set(59)</title>
<g id="a_clust14"><a xlink:title="LoadAssets">
<path fill="#ffffff" fill-opacity="0.266667" stroke="#ffffff" stroke-width="2" stroke-opacity="0.313725" d="M75,-78C75,-78 139,-78 139,-78 145,-78 151,-84 151,-90 151,-90 151,-105 151,-105 151,-111 145,-117 139,-117 139,-117 75,-117 75,-117 69,-117 63,-111 63,-105 63,-105 63,-90 63,-90 63,-84 69,-78 75,-78"/>
<text text-anchor="middle" x="107" y="-101.8" font-family="Helvetica,sans-Serif" font-size="14.00">LoadAssets</text>
</a>
</g>
</g>
<g id="clust15" class="cluster">
<title>clusternode_Set(60)</title>
<g id="a_clust15"><a xlink:title="AssetEvents">
<path fill="#ffffff" fill-opacity="0.266667" stroke="#ffffff" stroke-width="2" stroke-opacity="0.313725" d="M1046,-8C1046,-8 1114,-8 1114,-8 1120,-8 1126,-14 1126,-20 1126,-20 1126,-35 1126,-35 1126,-41 1120,-47 1114,-47 1114,-47 1046,-47 1046,-47 1040,-47 1034,-41 1034,-35 1034,-35 1034,-20 1034,-20 1034,-14 1040,-8 1046,-8"/>
<text text-anchor="middle" x="1080" y="-31.8" font-family="Helvetica,sans-Serif" font-size="14.00">AssetEvents</text>
</a>
</g>
</g>
<!-- set_marker_node_Set(0) -->
<!-- set_marker_node_Set(4) -->
<!-- set_marker_node_Set(0)&#45;&gt;set_marker_node_Set(4) -->
<g id="edge7" class="edge">
<title>set_marker_node_Set(0)&#45;&gt;set_marker_node_Set(4)</title>
<g id="a_edge7"><a xlink:title="Update → UpdateFlush">
<path fill="none" stroke="#ee9e44" stroke-width="2" d="M714,-110C716.33,-110 718.74,-110 721.18,-110"/>
<polygon fill="#ee9e44" stroke="#ee9e44" stroke-width="2" points="721,-113.5 731,-110 721,-106.5 721,-113.5"/>
</a>
</g>
</g>
<!-- set_marker_node_Set(2) -->
<!-- set_marker_node_Set(8) -->
<!-- set_marker_node_Set(2)&#45;&gt;set_marker_node_Set(8) -->
<g id="edge2" class="edge">
<title>set_marker_node_Set(2)&#45;&gt;set_marker_node_Set(8)</title>
<g id="a_edge2"><a xlink:title="FirstFlush → PreUpdate">
<path fill="none" stroke="#881877" stroke-width="2" d="M143.47,-125C148.38,-123.89 153.51,-122.74 158.64,-121.58"/>
<polygon fill="#881877" stroke="#881877" stroke-width="2" points="160.02,-124.41 169,-118.79 158.48,-117.58 160.02,-124.41"/>
</a>
</g>
</g>
<!-- set_marker_node_Set(3) -->
<!-- set_marker_node_Set(9) -->
<!-- set_marker_node_Set(3)&#45;&gt;set_marker_node_Set(9) -->
<g id="edge4" class="edge">
<title>set_marker_node_Set(3)&#45;&gt;set_marker_node_Set(9)</title>
<g id="a_edge4"><a xlink:title="PreUpdateFlush → StateTransitions">
<path fill="none" stroke="#aa3a55" stroke-width="2" d="M386,-110C388.39,-110 390.79,-110 393.21,-110"/>
<polygon fill="#aa3a55" stroke="#aa3a55" stroke-width="2" points="393,-113.5 403,-110 393,-106.5 393,-113.5"/>
</a>
</g>
</g>
<!-- set_marker_node_Set(11) -->
<!-- set_marker_node_Set(4)&#45;&gt;set_marker_node_Set(11) -->
<g id="edge8" class="edge">
<title>set_marker_node_Set(4)&#45;&gt;set_marker_node_Set(11)</title>
<g id="a_edge8"><a xlink:title="UpdateFlush → PostUpdate">
<path fill="none" stroke="#663699" stroke-width="2" d="M827,-110C829.4,-110 831.85,-110 834.32,-110"/>
<polygon fill="#663699" stroke="#663699" stroke-width="2" points="834,-113.5 844,-110 834,-106.5 834,-113.5"/>
</a>
</g>
</g>
<!-- set_marker_node_Set(5) -->
<!-- set_marker_node_Set(12) -->
<!-- set_marker_node_Set(5)&#45;&gt;set_marker_node_Set(12) -->
<g id="edge10" class="edge">
<title>set_marker_node_Set(5)&#45;&gt;set_marker_node_Set(12)</title>
<g id="a_edge10"><a xlink:title="PostUpdateFlush → Last">
<path fill="none" stroke="#22c2bb" stroke-width="2" d="M1129.1,-55C1138.22,-53.22 1148.14,-51.14 1158.42,-48.74"/>
<polygon fill="#22c2bb" stroke="#22c2bb" stroke-width="2" points="1160.11,-51.44 1169,-45.67 1158.46,-44.64 1160.11,-51.44"/>
</a>
</g>
</g>
<!-- set_marker_node_Set(6) -->
<!-- set_marker_node_Set(7) -->
<!-- set_marker_node_Set(7)&#45;&gt;set_marker_node_Set(2) -->
<g id="edge1" class="edge">
<title>set_marker_node_Set(7)&#45;&gt;set_marker_node_Set(2)</title>
<g id="a_edge1"><a xlink:title="First → FirstFlush">
<path fill="none" stroke="#eede00" stroke-width="2" d="M43,-115C49.88,-116.97 57.78,-119.22 65.61,-121.46"/>
<polygon fill="#eede00" stroke="#eede00" stroke-width="2" points="65.44,-125.62 76.01,-125 67.36,-118.89 65.44,-125.62"/>
</a>
</g>
</g>
<!-- set_marker_node_Set(59) -->
<!-- set_marker_node_Set(7)&#45;&gt;set_marker_node_Set(59) -->
<g id="edge13" class="edge">
<title>set_marker_node_Set(7)&#45;&gt;set_marker_node_Set(59)</title>
<g id="a_edge13"><a xlink:title="First → LoadAssets">
<path fill="none" stroke="#881877" stroke-width="2" d="M43,-103.25C45.41,-102.59 47.94,-101.9 50.55,-101.18"/>
<polygon fill="#881877" stroke="#881877" stroke-width="2" points="52.28,-103.79 61,-97.77 50.43,-97.04 52.28,-103.79"/>
</a>
</g>
</g>
<!-- set_marker_node_Set(8)&#45;&gt;set_marker_node_Set(3) -->
<g id="edge3" class="edge">
<title>set_marker_node_Set(8)&#45;&gt;set_marker_node_Set(3)</title>
<g id="a_edge3"><a xlink:title="PreUpdate → PreUpdateFlush">
<path fill="none" stroke="#00b0cc" stroke-width="2" d="M252,-110C254.38,-110 256.8,-110 259.25,-110"/>
<polygon fill="#00b0cc" stroke="#00b0cc" stroke-width="2" points="259,-113.5 269,-110 259,-106.5 259,-113.5"/>
</a>
</g>
</g>
<!-- set_marker_node_Set(10) -->
<!-- set_marker_node_Set(9)&#45;&gt;set_marker_node_Set(10) -->
<g id="edge5" class="edge">
<title>set_marker_node_Set(9)&#45;&gt;set_marker_node_Set(10)</title>
<g id="a_edge5"><a xlink:title="StateTransitions → FixedUpdate">
<path fill="none" stroke="#44d488" stroke-width="2" d="M521,-110C523.35,-110 525.71,-110 528.07,-110"/>
<polygon fill="#44d488" stroke="#44d488" stroke-width="2" points="528,-113.5 538,-110 528,-106.5 528,-113.5"/>
</a>
</g>
</g>
<!-- set_marker_node_Set(10)&#45;&gt;set_marker_node_Set(0) -->
<g id="edge6" class="edge">
<title>set_marker_node_Set(10)&#45;&gt;set_marker_node_Set(0)</title>
<g id="a_edge6"><a xlink:title="FixedUpdate → Update">
<path fill="none" stroke="#0090cc" stroke-width="2" d="M634,-110C636.35,-110 638.7,-110 641.03,-110"/>
<polygon fill="#0090cc" stroke="#0090cc" stroke-width="2" points="641,-113.5 651,-110 641,-106.5 641,-113.5"/>
</a>
</g>
</g>
<!-- set_marker_node_Set(11)&#45;&gt;set_marker_node_Set(5) -->
<g id="edge9" class="edge">
<title>set_marker_node_Set(11)&#45;&gt;set_marker_node_Set(5)</title>
<g id="a_edge9"><a xlink:title="PostUpdate → PostUpdateFlush">
<path fill="none" stroke="#3363bb" stroke-width="2" d="M943.33,-102C961.09,-96.89 984.99,-90.02 1007.78,-83.47"/>
<polygon fill="#3363bb" stroke="#3363bb" stroke-width="2" points="1009.36,-86.09 1018,-79.96 1007.42,-79.36 1009.36,-86.09"/>
</a>
</g>
</g>
<!-- set_marker_node_Set(60) -->
<!-- set_marker_node_Set(11)&#45;&gt;set_marker_node_Set(60) -->
<g id="edge14" class="edge">
<title>set_marker_node_Set(11)&#45;&gt;set_marker_node_Set(60)</title>
<g id="a_edge14"><a xlink:title="PostUpdate → AssetEvents">
<path fill="none" stroke="#00b0cc" stroke-width="2" d="M928.29,-102C946.34,-90.78 980.4,-69.85 1010,-53 1014.09,-50.67 1018.35,-48.29 1022.64,-45.92"/>
<polygon fill="#00b0cc" stroke="#00b0cc" stroke-width="2" points="1024.91,-48.58 1032,-40.71 1021.55,-42.43 1024.91,-48.58"/>
</a>
</g>
</g>
<!-- set_marker_node_Set(20) -->
<!-- node_System(147) -->
<g id="node13" class="node">
<title>node_System(147)</title>
<g id="a_node13"><a xlink:title="bevy_animation::animation_player">
<polygon fill="#ffbdb9" stroke="#ff5c53" points="974,-157 855,-157 855,-121 974,-121 974,-157"/>
<text text-anchor="middle" x="914.5" y="-135.3" font-family="Helvetica,sans-Serif" font-size="14.00" fill="#320200">animation_player</text>
</a>
</g>
</g>
<!-- node_System(147)&#45;&gt;set_marker_node_Set(20) -->
<g id="edge16" class="edge">
<title>node_System(147)&#45;&gt;set_marker_node_Set(20)</title>
<g id="a_edge16"><a xlink:title="animation_player → TransformPropagate">
<path fill="none" stroke="#44d488" stroke-width="2" d="M974.07,-134.34C981.62,-133.74 989.46,-133.12 997.3,-132.5"/>
<polygon fill="#44d488" stroke="#44d488" stroke-width="2" points="997.31,-135.77 1007,-131.49 996.76,-128.79 997.31,-135.77"/>
</a>
</g>
</g>
<!-- set_marker_node_Set(12)&#45;&gt;set_marker_node_Set(6) -->
<g id="edge11" class="edge">
<title>set_marker_node_Set(12)&#45;&gt;set_marker_node_Set(6)</title>
<g id="a_edge11"><a xlink:title="Last → LastFlush">
<path fill="none" stroke="#99d955" stroke-width="2" d="M1214,-39C1216.33,-39 1218.78,-39 1221.29,-39"/>
<polygon fill="#99d955" stroke="#99d955" stroke-width="2" points="1221,-42.5 1231,-39 1221,-35.5 1221,-42.5"/>
</a>
</g>
</g>
<!-- set_marker_node_Set(59)&#45;&gt;set_marker_node_Set(8) -->
<g id="edge12" class="edge">
<title>set_marker_node_Set(59)&#45;&gt;set_marker_node_Set(8)</title>
<g id="a_edge12"><a xlink:title="LoadAssets → PreUpdate">
<path fill="none" stroke="#eede00" stroke-width="2" d="M151,-96.12C155.12,-97.09 159.3,-98.07 163.45,-99.05"/>
<polygon fill="#eede00" stroke="#eede00" stroke-width="2" points="163.48,-103.12 174.02,-102 165.08,-96.31 163.48,-103.12"/>
</a>
</g>
</g>
<!-- set_marker_node_Set(60)&#45;&gt;set_marker_node_Set(12) -->
<g id="edge15" class="edge">
<title>set_marker_node_Set(60)&#45;&gt;set_marker_node_Set(12)</title>
<g id="a_edge15"><a xlink:title="AssetEvents → Last">
<path fill="none" stroke="#aa3a55" stroke-width="2" d="M1126,-25.41C1136.82,-27.67 1148.19,-30.05 1158.33,-32.17"/>
<polygon fill="#aa3a55" stroke="#aa3a55" stroke-width="2" points="1158.5,-36.2 1169,-34.82 1159.93,-29.35 1158.5,-36.2"/>
</a>
</g>
</g>
</g>
</svg>
