<?xml version="1.0" encoding="UTF-8" standalone="no"?>
<!DOCTYPE svg PUBLIC "-//W3C//DTD SVG 1.1//EN"
 "http://www.w3.org/Graphics/SVG/1.1/DTD/svg11.dtd">
<!-- Generated by graphviz version 7.1.0 (0)
 -->
<!-- Pages: 1 -->
<svg width="1807pt" height="398pt"
 viewBox="0.00 0.00 1807.00 398.00" xmlns="http://www.w3.org/2000/svg" xmlns:xlink="http://www.w3.org/1999/xlink">
<g id="graph0" class="graph" transform="scale(1 1) rotate(0) translate(4 394)">
<polygon fill="#0d1117" stroke="none" points="-4,4 -4,-394 1803,-394 1803,4 -4,4"/>
<g id="clust1" class="cluster">
<title>clusternode_Set(0)</title>
<g id="a_clust1"><a xlink:title="Update">
<polygon fill="#6f90ad" stroke="black" points="1187,-31 1187,-70 1252,-70 1252,-31 1187,-31"/>
<text text-anchor="middle" x="1219.5" y="-54.8" font-family="Helvetica,sans-Serif" font-size="14.00">Update</text>
</a>
</g>
</g>
<g id="clust2" class="cluster">
<title>clusternode_Set(2)</title>
<g id="a_clust2"><a xlink:title="FirstFlush">
<polygon fill="#6f90ad" stroke="black" points="204,-101 204,-140 286,-140 286,-101 204,-101"/>
<text text-anchor="middle" x="245" y="-124.8" font-family="Helvetica,sans-Serif" font-size="14.00">FirstFlush</text>
</a>
</g>
</g>
<g id="clust3" class="cluster">
<title>clusternode_Set(3)</title>
<g id="a_clust3"><a xlink:title="PreUpdateFlush">
<polygon fill="#6f90ad" stroke="black" points="609,-31 609,-70 732,-70 732,-31 609,-31"/>
<text text-anchor="middle" x="670.5" y="-54.8" font-family="Helvetica,sans-Serif" font-size="14.00">PreUpdateFlush</text>
</a>
</g>
</g>
<g id="clust4" class="cluster">
<title>clusternode_Set(4)</title>
<g id="a_clust4"><a xlink:title="UpdateFlush">
<polygon fill="#6f90ad" stroke="black" points="1272,-31 1272,-70 1373,-70 1373,-31 1272,-31"/>
<text text-anchor="middle" x="1322.5" y="-54.8" font-family="Helvetica,sans-Serif" font-size="14.00">UpdateFlush</text>
</a>
</g>
</g>
<g id="clust5" class="cluster">
<title>clusternode_Set(5)</title>
<g id="a_clust5"><a xlink:title="PostUpdateFlush">
<polygon fill="#6f90ad" stroke="black" points="1506,-55 1506,-94 1635,-94 1635,-55 1506,-55"/>
<text text-anchor="middle" x="1570.5" y="-78.8" font-family="Helvetica,sans-Serif" font-size="14.00">PostUpdateFlush</text>
</a>
</g>
</g>
<g id="clust6" class="cluster">
<title>clusternode_Set(6)</title>
<g id="a_clust6"><a xlink:title="LastFlush">
<polygon fill="#6f90ad" stroke="black" points="1719,-20 1719,-59 1799,-59 1799,-20 1719,-20"/>
<text text-anchor="middle" x="1759" y="-43.8" font-family="Helvetica,sans-Serif" font-size="14.00">LastFlush</text>
</a>
</g>
</g>
<g id="clust7" class="cluster">
<title>clusternode_Set(7)</title>
<g id="a_clust7"><a xlink:title="First">
<polygon fill="#6f90ad" stroke="black" points="67,-77 67,-116 113,-116 113,-77 67,-77"/>
<text text-anchor="middle" x="90" y="-100.8" font-family="Helvetica,sans-Serif" font-size="14.00">First</text>
</a>
</g>
</g>
<g id="clust8" class="cluster">
<title>clusternode_Set(8)</title>
<g id="a_clust8"><a xlink:title="PreUpdate">
<polygon fill="#6f90ad" stroke="black" points="303,-78 303,-382 1055,-382 1055,-78 303,-78"/>
<text text-anchor="middle" x="679" y="-366.8" font-family="Helvetica,sans-Serif" font-size="14.00">PreUpdate</text>
</a>
</g>
</g>
<g id="clust9" class="cluster">
<title>clusternode_Set(25)</title>
<g id="a_clust9"><a xlink:title="InputSystem">
<polygon fill="#6f90ad" stroke="black" points="311,-96 311,-351 1047,-351 1047,-96 311,-96"/>
<text text-anchor="middle" x="679" y="-335.8" font-family="Helvetica,sans-Serif" font-size="14.00">InputSystem</text>
</a>
</g>
</g>
<g id="clust10" class="cluster">
<title>clusternode_Set(9)</title>
<g id="a_clust10"><a xlink:title="StateTransitions">
<polygon fill="#6f90ad" stroke="black" points="863.5,-31 863.5,-70 987.5,-70 987.5,-31 863.5,-31"/>
<text text-anchor="middle" x="925.5" y="-54.8" font-family="Helvetica,sans-Serif" font-size="14.00">StateTransitions</text>
</a>
</g>
</g>
<g id="clust11" class="cluster">
<title>clusternode_Set(10)</title>
<g id="a_clust11"><a xlink:title="FixedUpdate">
<polygon fill="#6f90ad" stroke="black" points="1067,-31 1067,-70 1167,-70 1167,-31 1067,-31"/>
<text text-anchor="middle" x="1117" y="-54.8" font-family="Helvetica,sans-Serif" font-size="14.00">FixedUpdate</text>
</a>
</g>
</g>
<g id="clust12" class="cluster">
<title>clusternode_Set(11)</title>
<g id="a_clust12"><a xlink:title="PostUpdate">
<polygon fill="#6f90ad" stroke="black" points="1393,-31 1393,-70 1486,-70 1486,-31 1393,-31"/>
<text text-anchor="middle" x="1439.5" y="-54.8" font-family="Helvetica,sans-Serif" font-size="14.00">PostUpdate</text>
</a>
</g>
</g>
<g id="clust13" class="cluster">
<title>clusternode_Set(12)</title>
<g id="a_clust13"><a xlink:title="Last">
<polygon fill="#6f90ad" stroke="black" points="1655,-20 1655,-59 1699,-59 1699,-20 1655,-20"/>
<text text-anchor="middle" x="1677" y="-43.8" font-family="Helvetica,sans-Serif" font-size="14.00">Last</text>
</a>
</g>
</g>
<g id="clust14" class="cluster">
<title>clusternode_Set(22)</title>
<g id="a_clust14"><a xlink:title="PropagateTransformsSet">
<polygon fill="#6f90ad" stroke="black" points="0,-256 0,-295 180,-295 180,-256 0,-256"/>
<text text-anchor="middle" x="90" y="-279.8" font-family="Helvetica,sans-Serif" font-size="14.00">PropagateTransformsSet</text>
</a>
</g>
</g>
<g id="clust15" class="cluster">
<title>clusternode_Set(59)</title>
<g id="a_clust15"><a xlink:title="LoadAssets">
<polygon fill="#6f90ad" stroke="black" points="200,-54 200,-93 291,-93 291,-54 200,-54"/>
<text text-anchor="middle" x="245.5" y="-77.8" font-family="Helvetica,sans-Serif" font-size="14.00">LoadAssets</text>
</a>
</g>
</g>
<g id="clust16" class="cluster">
<title>clusternode_Set(60)</title>
<g id="a_clust16"><a xlink:title="AssetEvents">
<polygon fill="#6f90ad" stroke="black" points="1522,-8 1522,-47 1618,-47 1618,-8 1522,-8"/>
<text text-anchor="middle" x="1570" y="-31.8" font-family="Helvetica,sans-Serif" font-size="14.00">AssetEvents</text>
</a>
</g>
</g>
<!-- set_marker_node_Set(0) -->
<!-- set_marker_node_Set(4) -->
<!-- set_marker_node_Set(0)&#45;&gt;set_marker_node_Set(4) -->
<g id="edge7" class="edge">
<title>set_marker_node_Set(0)&#45;&gt;set_marker_node_Set(4)</title>
<g id="a_edge7"><a xlink:title="Update → UpdateFlush">
<path fill="none" stroke="#ee9e44" stroke-width="2" d="M1252,-39C1254.35,-39 1256.77,-39 1259.22,-39"/>
<polygon fill="#ee9e44" stroke="#ee9e44" stroke-width="2" points="1258.97,-42.5 1268.97,-39 1258.97,-35.5 1258.97,-42.5"/>
</a>
</g>
</g>
<!-- set_marker_node_Set(2) -->
<!-- set_marker_node_Set(8) -->
<!-- set_marker_node_Set(2)&#45;&gt;set_marker_node_Set(8) -->
<g id="edge2" class="edge">
<title>set_marker_node_Set(2)&#45;&gt;set_marker_node_Set(8)</title>
<g id="a_edge2"><a xlink:title="FirstFlush → PreUpdate">
<path fill="none" stroke="#881877" stroke-width="2" d="M276.21,-101C280.8,-99.61 285.77,-98.02 291.04,-96.24"/>
<polygon fill="#881877" stroke="#881877" stroke-width="2" points="291.89,-99.65 300.15,-93.01 289.55,-93.05 291.89,-99.65"/>
</a>
</g>
</g>
<!-- set_marker_node_Set(3) -->
<!-- set_marker_node_Set(9) -->
<!-- set_marker_node_Set(3)&#45;&gt;set_marker_node_Set(9) -->
<g id="edge4" class="edge">
<title>set_marker_node_Set(3)&#45;&gt;set_marker_node_Set(9)</title>
<g id="a_edge4"><a xlink:title="PreUpdateFlush → StateTransitions">
<path fill="none" stroke="#aa3a55" stroke-width="2" d="M732,-39C767.64,-39 812.87,-39 850.53,-39"/>
<polygon fill="#aa3a55" stroke="#aa3a55" stroke-width="2" points="850.48,-42.5 860.48,-39 850.48,-35.5 850.48,-42.5"/>
</a>
</g>
</g>
<!-- set_marker_node_Set(11) -->
<!-- set_marker_node_Set(4)&#45;&gt;set_marker_node_Set(11) -->
<g id="edge8" class="edge">
<title>set_marker_node_Set(4)&#45;&gt;set_marker_node_Set(11)</title>
<g id="a_edge8"><a xlink:title="UpdateFlush → PostUpdate">
<path fill="none" stroke="#663699" stroke-width="2" d="M1373,-39C1375.43,-39 1377.88,-39 1380.32,-39"/>
<polygon fill="#663699" stroke="#663699" stroke-width="2" points="1379.98,-42.5 1389.98,-39 1379.98,-35.5 1379.98,-42.5"/>
</a>
</g>
</g>
<!-- set_marker_node_Set(5) -->
<!-- set_marker_node_Set(12) -->
<!-- set_marker_node_Set(5)&#45;&gt;set_marker_node_Set(12) -->
<g id="edge10" class="edge">
<title>set_marker_node_Set(5)&#45;&gt;set_marker_node_Set(12)</title>
<g id="a_edge10"><a xlink:title="PostUpdateFlush → Last">
<path fill="none" stroke="#22c2bb" stroke-width="2" d="M1622.03,-55C1626.46,-53.84 1630.84,-52.51 1635,-51 1637.86,-49.96 1640.76,-48.74 1643.62,-47.4"/>
<polygon fill="#22c2bb" stroke="#22c2bb" stroke-width="2" points="1645.05,-50.61 1652.32,-42.9 1641.83,-44.39 1645.05,-50.61"/>
</a>
</g>
</g>
<!-- set_marker_node_Set(6) -->
<!-- set_marker_node_Set(7) -->
<!-- set_marker_node_Set(7)&#45;&gt;set_marker_node_Set(2) -->
<g id="edge1" class="edge">
<title>set_marker_node_Set(7)&#45;&gt;set_marker_node_Set(2)</title>
<g id="a_edge1"><a xlink:title="First → FirstFlush">
<path fill="none" stroke="#eede00" stroke-width="2" d="M113,-88.45C133.39,-91.65 164.54,-96.53 191.34,-100.74"/>
<polygon fill="#eede00" stroke="#eede00" stroke-width="2" points="190.59,-104.17 201.01,-102.26 191.68,-97.25 190.59,-104.17"/>
</a>
</g>
</g>
<!-- set_marker_node_Set(59) -->
<!-- set_marker_node_Set(7)&#45;&gt;set_marker_node_Set(59) -->
<g id="edge18" class="edge">
<title>set_marker_node_Set(7)&#45;&gt;set_marker_node_Set(59)</title>
<g id="a_edge18"><a xlink:title="First → LoadAssets">
<path fill="none" stroke="#ee9e44" stroke-width="2" d="M113,-81.69C132.35,-78.78 161.37,-74.42 187.19,-70.54"/>
<polygon fill="#ee9e44" stroke="#ee9e44" stroke-width="2" points="187.64,-74.01 197.01,-69.06 186.6,-67.09 187.64,-74.01"/>
</a>
</g>
</g>
<!-- set_marker_node_Set(8)&#45;&gt;set_marker_node_Set(3) -->
<g id="edge3" class="edge">
<title>set_marker_node_Set(8)&#45;&gt;set_marker_node_Set(3)</title>
<g id="a_edge3"><a xlink:title="PreUpdate → PreUpdateFlush">
<path fill="none" stroke="#00b0cc" stroke-width="2" d="M466.1,-78C501.77,-71.15 553.98,-61.11 596.5,-52.94"/>
<polygon fill="#00b0cc" stroke="#00b0cc" stroke-width="2" points="596.87,-56.43 606.03,-51.1 595.55,-49.56 596.87,-56.43"/>
</a>
</g>
</g>
<!-- set_marker_node_Set(25) -->
<!-- node_System(15) -->
<g id="node10" class="node">
<title>node_System(15)</title>
<g id="a_node10"><a xlink:title="bevy_input::keyboard::keyboard_input_system">
<polygon fill="#eff1f3" stroke="#eff1f3" points="511.5,-302 335.5,-302 335.5,-266 511.5,-266 511.5,-302"/>
<text text-anchor="middle" x="423.5" y="-280.3" font-family="Times,serif" font-size="14.00">keyboard_input_system</text>
</a>
</g>
</g>
<!-- node_System(19) -->
<g id="node11" class="node">
<title>node_System(19)</title>
<g id="a_node11"><a xlink:title="bevy_input::mouse::mouse_button_input_system">
<polygon fill="#eff1f3" stroke="#eff1f3" points="528,-248 319,-248 319,-212 528,-212 528,-248"/>
<text text-anchor="middle" x="423.5" y="-226.3" font-family="Times,serif" font-size="14.00">mouse_button_input_system</text>
</a>
</g>
</g>
<!-- node_System(24) -->
<g id="node12" class="node">
<title>node_System(24)</title>
<g id="a_node12"><a xlink:title="bevy_input::gamepad::gamepad_event_system">
<polygon fill="#eff1f3" stroke="#eff1f3" points="511.5,-194 335.5,-194 335.5,-158 511.5,-158 511.5,-194"/>
<text text-anchor="middle" x="423.5" y="-172.3" font-family="Times,serif" font-size="14.00">gamepad_event_system</text>
</a>
</g>
</g>
<!-- node_System(25) -->
<g id="node13" class="node">
<title>node_System(25)</title>
<g id="a_node13"><a xlink:title="bevy_input::gamepad::gamepad_connection_system">
<polygon fill="#eff1f3" stroke="#eff1f3" points="776,-194 564,-194 564,-158 776,-158 776,-194"/>
<text text-anchor="middle" x="670" y="-172.3" font-family="Times,serif" font-size="14.00">gamepad_connection_system</text>
</a>
</g>
</g>
<!-- node_System(24)&#45;&gt;node_System(25) -->
<g id="edge12" class="edge">
<title>node_System(24)&#45;&gt;node_System(25)</title>
<g id="a_edge12"><a xlink:title="SystemTypeSet(gamepad_event_system&quot;) → gamepad_connection_system">
<path fill="none" stroke="#eede00" stroke-width="2" d="M511.73,-176C524.52,-176 537.86,-176 551.13,-176"/>
<polygon fill="#eede00" stroke="#eede00" stroke-width="2" points="550.79,-179.5 560.79,-176 550.79,-172.5 550.79,-179.5"/>
</a>
</g>
</g>
<!-- node_System(26) -->
<g id="node14" class="node">
<title>node_System(26)</title>
<g id="a_node14"><a xlink:title="bevy_input::gamepad::gamepad_button_event_system">
<polygon fill="#eff1f3" stroke="#eff1f3" points="1039,-167 812,-167 812,-131 1039,-131 1039,-167"/>
<text text-anchor="middle" x="925.5" y="-145.3" font-family="Times,serif" font-size="14.00">gamepad_button_event_system</text>
</a>
</g>
</g>
<!-- node_System(24)&#45;&gt;node_System(26) -->
<g id="edge13" class="edge">
<title>node_System(24)&#45;&gt;node_System(26)</title>
<g id="a_edge13"><a xlink:title="SystemTypeSet(gamepad_event_system&quot;) → gamepad_button_event_system">
<path fill="none" stroke="#881877" stroke-width="2" d="M506,-157.52C524.94,-153.98 545.09,-150.81 564,-149 641.86,-141.53 729.61,-141.36 799.04,-143.13"/>
<polygon fill="#881877" stroke="#881877" stroke-width="2" points="798.67,-146.62 808.76,-143.4 798.86,-139.63 798.67,-146.62"/>
</a>
</g>
</g>
<!-- node_System(27) -->
<g id="node15" class="node">
<title>node_System(27)</title>
<g id="a_node15"><a xlink:title="bevy_input::gamepad::gamepad_axis_event_system">
<polygon fill="#eff1f3" stroke="#eff1f3" points="1030,-226 821,-226 821,-190 1030,-190 1030,-226"/>
<text text-anchor="middle" x="925.5" y="-204.3" font-family="Times,serif" font-size="14.00">gamepad_axis_event_system</text>
</a>
</g>
</g>
<!-- node_System(24)&#45;&gt;node_System(27) -->
<g id="edge15" class="edge">
<title>node_System(24)&#45;&gt;node_System(27)</title>
<g id="a_edge15"><a xlink:title="SystemTypeSet(gamepad_event_system&quot;) → gamepad_axis_event_system">
<path fill="none" stroke="#aa3a55" stroke-width="2" d="M507.13,-194.5C525.74,-197.96 545.47,-201.09 564,-203 645.18,-211.35 737.18,-212.49 807.93,-211.6"/>
<polygon fill="#aa3a55" stroke="#aa3a55" stroke-width="2" points="807.91,-215.1 817.85,-211.46 807.8,-208.1 807.91,-215.1"/>
</a>
</g>
</g>
<!-- node_System(25)&#45;&gt;node_System(26) -->
<g id="edge14" class="edge">
<title>node_System(25)&#45;&gt;node_System(26)</title>
<g id="a_edge14"><a xlink:title="SystemTypeSet(gamepad_connection_system&quot;) → gamepad_button_event_system">
<path fill="none" stroke="#00b0cc" stroke-width="2" d="M776.3,-164.78C783.8,-163.99 791.4,-163.18 798.99,-162.37"/>
<polygon fill="#00b0cc" stroke="#00b0cc" stroke-width="2" points="799.16,-165.87 808.73,-161.33 798.42,-158.91 799.16,-165.87"/>
</a>
</g>
</g>
<!-- node_System(25)&#45;&gt;node_System(27) -->
<g id="edge16" class="edge">
<title>node_System(25)&#45;&gt;node_System(27)</title>
<g id="a_edge16"><a xlink:title="SystemTypeSet(gamepad_connection_system&quot;) → gamepad_axis_event_system">
<path fill="none" stroke="#44d488" stroke-width="2" d="M776.3,-189.29C786.75,-190.61 797.39,-191.96 807.94,-193.29"/>
<polygon fill="#44d488" stroke="#44d488" stroke-width="2" points="807.38,-196.74 817.74,-194.52 808.26,-189.8 807.38,-196.74"/>
</a>
</g>
</g>
<!-- node_System(29) -->
<g id="node16" class="node">
<title>node_System(29)</title>
<g id="a_node16"><a xlink:title="bevy_input::touch::touch_screen_input_system">
<polygon fill="#eff1f3" stroke="#eff1f3" points="524,-140 323,-140 323,-104 524,-104 524,-140"/>
<text text-anchor="middle" x="423.5" y="-118.3" font-family="Times,serif" font-size="14.00">touch_screen_input_system</text>
</a>
</g>
</g>
<!-- set_marker_node_Set(10) -->
<!-- set_marker_node_Set(9)&#45;&gt;set_marker_node_Set(10) -->
<g id="edge5" class="edge">
<title>set_marker_node_Set(9)&#45;&gt;set_marker_node_Set(10)</title>
<g id="a_edge5"><a xlink:title="StateTransitions → FixedUpdate">
<path fill="none" stroke="#44d488" stroke-width="2" d="M987.5,-39C1008.79,-39 1032.69,-39 1054.05,-39"/>
<polygon fill="#44d488" stroke="#44d488" stroke-width="2" points="1053.97,-42.5 1063.97,-39 1053.97,-35.5 1053.97,-42.5"/>
</a>
</g>
</g>
<!-- set_marker_node_Set(10)&#45;&gt;set_marker_node_Set(0) -->
<g id="edge6" class="edge">
<title>set_marker_node_Set(10)&#45;&gt;set_marker_node_Set(0)</title>
<g id="a_edge6"><a xlink:title="FixedUpdate → Update">
<path fill="none" stroke="#0090cc" stroke-width="2" d="M1167,-39C1169.37,-39 1171.75,-39 1174.11,-39"/>
<polygon fill="#0090cc" stroke="#0090cc" stroke-width="2" points="1173.98,-42.5 1183.98,-39 1173.98,-35.5 1173.98,-42.5"/>
</a>
</g>
</g>
<!-- set_marker_node_Set(11)&#45;&gt;set_marker_node_Set(5) -->
<g id="edge9" class="edge">
<title>set_marker_node_Set(11)&#45;&gt;set_marker_node_Set(5)</title>
<g id="a_edge9"><a xlink:title="PostUpdate → PostUpdateFlush">
<path fill="none" stroke="#3363bb" stroke-width="2" d="M1486,-47.56C1494.83,-49.2 1504.16,-50.94 1513.26,-52.63"/>
<polygon fill="#3363bb" stroke="#3363bb" stroke-width="2" points="1512.56,-56.06 1523.04,-54.45 1513.84,-49.18 1512.56,-56.06"/>
</a>
</g>
</g>
<!-- set_marker_node_Set(60) -->
<!-- set_marker_node_Set(11)&#45;&gt;set_marker_node_Set(60) -->
<g id="edge19" class="edge">
<title>set_marker_node_Set(11)&#45;&gt;set_marker_node_Set(60)</title>
<g id="a_edge19"><a xlink:title="PostUpdate → AssetEvents">
<path fill="none" stroke="#663699" stroke-width="2" d="M1484.87,-31C1492.84,-29.58 1501.26,-28.08 1509.57,-26.6"/>
<polygon fill="#663699" stroke="#663699" stroke-width="2" points="1509.79,-30.11 1519.02,-24.91 1508.56,-23.22 1509.79,-30.11"/>
</a>
</g>
</g>
<!-- set_marker_node_Set(12)&#45;&gt;set_marker_node_Set(6) -->
<g id="edge11" class="edge">
<title>set_marker_node_Set(12)&#45;&gt;set_marker_node_Set(6)</title>
<g id="a_edge11"><a xlink:title="Last → LastFlush">
<path fill="none" stroke="#99d955" stroke-width="2" d="M1699,-28C1701.31,-28 1703.74,-28 1706.23,-28"/>
<polygon fill="#99d955" stroke="#99d955" stroke-width="2" points="1705.98,-31.5 1715.98,-28 1705.98,-24.5 1705.98,-31.5"/>
</a>
</g>
</g>
<!-- set_marker_node_Set(22) -->
<!-- set_marker_node_Set(59)&#45;&gt;set_marker_node_Set(8) -->
<g id="edge17" class="edge">
<title>set_marker_node_Set(59)&#45;&gt;set_marker_node_Set(8)</title>
<g id="a_edge17"><a xlink:title="LoadAssets → PreUpdate">
<path fill="none" stroke="#0090cc" stroke-width="2" d="M291,-68.12C309.18,-70.59 330.6,-73.5 350.83,-76.25"/>
<polygon fill="#0090cc" stroke="#0090cc" stroke-width="2" points="350.31,-79.72 360.69,-77.6 351.25,-72.78 350.31,-79.72"/>
</a>
</g>
</g>
<!-- set_marker_node_Set(60)&#45;&gt;set_marker_node_Set(12) -->
<g id="edge20" class="edge">
<title>set_marker_node_Set(60)&#45;&gt;set_marker_node_Set(12)</title>
<g id="a_edge20"><a xlink:title="AssetEvents → Last">
<path fill="none" stroke="#3363bb" stroke-width="2" d="M1618,-21.37C1626.11,-22.3 1634.4,-23.25 1642.08,-24.12"/>
<polygon fill="#3363bb" stroke="#3363bb" stroke-width="2" points="1641.66,-27.6 1652,-25.26 1642.46,-20.64 1641.66,-27.6"/>
</a>
</g>
</g>
</g>
</svg>
