<?xml version="1.0" encoding="UTF-8" standalone="no"?>
<!DOCTYPE svg PUBLIC "-//W3C//DTD SVG 1.1//EN"
 "http://www.w3.org/Graphics/SVG/1.1/DTD/svg11.dtd">
<!-- Generated by graphviz version 7.1.0 (0)
 -->
<!-- Pages: 1 -->
<svg width="1925pt" height="613pt"
 viewBox="0.00 0.00 1925.00 613.42" xmlns="http://www.w3.org/2000/svg" xmlns:xlink="http://www.w3.org/1999/xlink">
<g id="graph0" class="graph" transform="scale(1 1) rotate(0) translate(4 609.42)">
<polygon fill="#0d1117" stroke="none" points="-4,4 -4,-609.42 1921,-609.42 1921,4 -4,4"/>
<g id="clust1" class="cluster">
<title>clusternode_Set(0)</title>
<g id="a_clust1"><a xlink:title="Update">
<polygon fill="#6f90ad" stroke="black" points="825,-102 825,-141 890,-141 890,-102 825,-102"/>
<text text-anchor="middle" x="857.5" y="-125.8" font-family="Helvetica,sans-Serif" font-size="14.00">Update</text>
</a>
</g>
</g>
<g id="clust2" class="cluster">
<title>clusternode_Set(2)</title>
<g id="a_clust2"><a xlink:title="FirstFlush">
<polygon fill="#6f90ad" stroke="black" points="204,-125 204,-164 286,-164 286,-125 204,-125"/>
<text text-anchor="middle" x="245" y="-148.8" font-family="Helvetica,sans-Serif" font-size="14.00">FirstFlush</text>
</a>
</g>
</g>
<g id="clust3" class="cluster">
<title>clusternode_Set(3)</title>
<g id="a_clust3"><a xlink:title="PreUpdateFlush">
<polygon fill="#6f90ad" stroke="black" points="418,-102 418,-141 541,-141 541,-102 418,-102"/>
<text text-anchor="middle" x="479.5" y="-125.8" font-family="Helvetica,sans-Serif" font-size="14.00">PreUpdateFlush</text>
</a>
</g>
</g>
<g id="clust4" class="cluster">
<title>clusternode_Set(4)</title>
<g id="a_clust4"><a xlink:title="UpdateFlush">
<polygon fill="#6f90ad" stroke="black" points="910,-102 910,-141 1011,-141 1011,-102 910,-102"/>
<text text-anchor="middle" x="960.5" y="-125.8" font-family="Helvetica,sans-Serif" font-size="14.00">UpdateFlush</text>
</a>
</g>
</g>
<g id="clust5" class="cluster">
<title>clusternode_Set(5)</title>
<g id="a_clust5"><a xlink:title="PostUpdateFlush">
<polygon fill="#6f90ad" stroke="black" points="1447,-55 1447,-94 1576,-94 1576,-55 1447,-55"/>
<text text-anchor="middle" x="1511.5" y="-78.8" font-family="Helvetica,sans-Serif" font-size="14.00">PostUpdateFlush</text>
</a>
</g>
</g>
<g id="clust6" class="cluster">
<title>clusternode_Set(6)</title>
<g id="a_clust6"><a xlink:title="LastFlush">
<polygon fill="#6f90ad" stroke="black" points="1837,-31 1837,-70 1917,-70 1917,-31 1837,-31"/>
<text text-anchor="middle" x="1877" y="-54.8" font-family="Helvetica,sans-Serif" font-size="14.00">LastFlush</text>
</a>
</g>
</g>
<g id="clust7" class="cluster">
<title>clusternode_Set(7)</title>
<g id="a_clust7"><a xlink:title="First">
<polygon fill="#6f90ad" stroke="black" points="67,-101 67,-140 113,-140 113,-101 67,-101"/>
<text text-anchor="middle" x="90" y="-124.8" font-family="Helvetica,sans-Serif" font-size="14.00">First</text>
</a>
</g>
</g>
<g id="clust8" class="cluster">
<title>clusternode_Set(8)</title>
<g id="a_clust8"><a xlink:title="PreUpdate">
<polygon fill="#6f90ad" stroke="black" points="311,-102 311,-141 398,-141 398,-102 311,-102"/>
<text text-anchor="middle" x="354.5" y="-125.8" font-family="Helvetica,sans-Serif" font-size="14.00">PreUpdate</text>
</a>
</g>
</g>
<g id="clust9" class="cluster">
<title>clusternode_Set(9)</title>
<g id="a_clust9"><a xlink:title="StateTransitions">
<polygon fill="#6f90ad" stroke="black" points="561,-102 561,-141 685,-141 685,-102 561,-102"/>
<text text-anchor="middle" x="623" y="-125.8" font-family="Helvetica,sans-Serif" font-size="14.00">StateTransitions</text>
</a>
</g>
</g>
<g id="clust10" class="cluster">
<title>clusternode_Set(10)</title>
<g id="a_clust10"><a xlink:title="FixedUpdate">
<polygon fill="#6f90ad" stroke="black" points="705,-102 705,-141 805,-141 805,-102 705,-102"/>
<text text-anchor="middle" x="755" y="-125.8" font-family="Helvetica,sans-Serif" font-size="14.00">FixedUpdate</text>
</a>
</g>
</g>
<g id="clust11" class="cluster">
<title>clusternode_Set(11)</title>
<g id="a_clust11"><a xlink:title="PostUpdate">
<polygon fill="#6f90ad" stroke="black" points="1023,-102 1023,-594 1825,-594 1825,-102 1023,-102"/>
<text text-anchor="middle" x="1424" y="-578.8" font-family="Helvetica,sans-Serif" font-size="14.00">PostUpdate</text>
</a>
</g>
</g>
<g id="clust12" class="cluster">
<title>clusternode_Set(20)</title>
<g id="a_clust12"><a xlink:title="TransformPropagate">
<polygon fill="#6f90ad" stroke="black" points="1110,-478 1110,-517 1262,-517 1262,-478 1110,-478"/>
<text text-anchor="middle" x="1186" y="-501.8" font-family="Helvetica,sans-Serif" font-size="14.00">TransformPropagate</text>
</a>
</g>
</g>
<g id="clust13" class="cluster">
<title>clusternode_Set(77)</title>
<g id="a_clust13"><a xlink:title="CameraUpdateSystem">
<polygon fill="#6f90ad" stroke="black" points="1031,-269 1031,-470 1341,-470 1341,-269 1031,-269"/>
<text text-anchor="middle" x="1186" y="-454.8" font-family="Helvetica,sans-Serif" font-size="14.00">CameraUpdateSystem</text>
</a>
</g>
</g>
<g id="clust14" class="cluster">
<title>clusternode_Set(81)</title>
<g id="a_clust14"><a xlink:title="CalculateBounds">
<polygon fill="#6f90ad" stroke="black" points="1111.5,-157 1111.5,-250 1260.5,-250 1260.5,-157 1111.5,-157"/>
<text text-anchor="middle" x="1186" y="-234.8" font-family="Helvetica,sans-Serif" font-size="14.00">CalculateBounds</text>
</a>
</g>
</g>
<g id="clust15" class="cluster">
<title>clusternode_Set(82)</title>
<g id="a_clust15"><a xlink:title="CalculateBoundsFlush">
<polygon fill="#6f90ad" stroke="black" points="1429,-211 1429,-250 1593,-250 1593,-211 1429,-211"/>
<text text-anchor="middle" x="1511" y="-234.8" font-family="Helvetica,sans-Serif" font-size="14.00">CalculateBoundsFlush</text>
</a>
</g>
</g>
<g id="clust16" class="cluster">
<title>clusternode_Set(83)</title>
<g id="a_clust16"><a xlink:title="UpdateOrthographicFrusta">
<polygon fill="#6f90ad" stroke="black" points="1361,-258 1361,-351 1661,-351 1661,-258 1361,-258"/>
<text text-anchor="middle" x="1511" y="-335.8" font-family="Helvetica,sans-Serif" font-size="14.00">UpdateOrthographicFrusta</text>
</a>
</g>
</g>
<g id="clust17" class="cluster">
<title>clusternode_Set(84)</title>
<g id="a_clust17"><a xlink:title="UpdatePerspectiveFrusta">
<polygon fill="#6f90ad" stroke="black" points="1367.5,-359 1367.5,-452 1654.5,-452 1654.5,-359 1367.5,-359"/>
<text text-anchor="middle" x="1511" y="-436.8" font-family="Helvetica,sans-Serif" font-size="14.00">UpdatePerspectiveFrusta</text>
</a>
</g>
</g>
<g id="clust18" class="cluster">
<title>clusternode_Set(85)</title>
<g id="a_clust18"><a xlink:title="UpdateProjectionFrusta">
<polygon fill="#6f90ad" stroke="black" points="1406,-460 1406,-553 1616,-553 1616,-460 1406,-460"/>
<text text-anchor="middle" x="1511" y="-537.8" font-family="Helvetica,sans-Serif" font-size="14.00">UpdateProjectionFrusta</text>
</a>
</g>
</g>
<g id="clust19" class="cluster">
<title>clusternode_Set(86)</title>
<g id="a_clust19"><a xlink:title="CheckVisibility">
<polygon fill="#6f90ad" stroke="black" points="1681,-344 1681,-437 1817,-437 1817,-344 1681,-344"/>
<text text-anchor="middle" x="1749" y="-421.8" font-family="Helvetica,sans-Serif" font-size="14.00">CheckVisibility</text>
</a>
</g>
</g>
<g id="clust20" class="cluster">
<title>clusternode_Set(87)</title>
<g id="a_clust20"><a xlink:title="VisibilityPropagate">
<polygon fill="#6f90ad" stroke="black" points="1401.5,-110 1401.5,-203 1620.5,-203 1620.5,-110 1401.5,-110"/>
<text text-anchor="middle" x="1511" y="-187.8" font-family="Helvetica,sans-Serif" font-size="14.00">VisibilityPropagate</text>
</a>
</g>
</g>
<g id="clust21" class="cluster">
<title>clusternode_Set(12)</title>
<g id="a_clust21"><a xlink:title="Last">
<polygon fill="#6f90ad" stroke="black" points="1727,-31 1727,-70 1771,-70 1771,-31 1727,-31"/>
<text text-anchor="middle" x="1749" y="-54.8" font-family="Helvetica,sans-Serif" font-size="14.00">Last</text>
</a>
</g>
</g>
<g id="clust22" class="cluster">
<title>clusternode_Set(22)</title>
<g id="a_clust22"><a xlink:title="PropagateTransformsSet">
<polygon fill="#6f90ad" stroke="black" points="0,-363 0,-402 180,-402 180,-363 0,-363"/>
<text text-anchor="middle" x="90" y="-386.8" font-family="Helvetica,sans-Serif" font-size="14.00">PropagateTransformsSet</text>
</a>
</g>
</g>
<g id="clust23" class="cluster">
<title>clusternode_Set(59)</title>
<g id="a_clust23"><a xlink:title="LoadAssets">
<polygon fill="#6f90ad" stroke="black" points="200,-78 200,-117 291,-117 291,-78 200,-78"/>
<text text-anchor="middle" x="245.5" y="-101.8" font-family="Helvetica,sans-Serif" font-size="14.00">LoadAssets</text>
</a>
</g>
</g>
<g id="clust24" class="cluster">
<title>clusternode_Set(60)</title>
<g id="a_clust24"><a xlink:title="AssetEvents">
<polygon fill="#6f90ad" stroke="black" points="1463,-8 1463,-47 1559,-47 1559,-8 1463,-8"/>
<text text-anchor="middle" x="1511" y="-31.8" font-family="Helvetica,sans-Serif" font-size="14.00">AssetEvents</text>
</a>
</g>
</g>
<!-- set_marker_node_Set(0) -->
<!-- set_marker_node_Set(4) -->
<!-- set_marker_node_Set(0)&#45;&gt;set_marker_node_Set(4) -->
<g id="edge7" class="edge">
<title>set_marker_node_Set(0)&#45;&gt;set_marker_node_Set(4)</title>
<g id="a_edge7"><a xlink:title="Update → UpdateFlush">
<path fill="none" stroke="#ee9e44" stroke-width="2" d="M890,-110C892.35,-110 894.77,-110 897.22,-110"/>
<polygon fill="#ee9e44" stroke="#ee9e44" stroke-width="2" points="896.97,-113.5 906.97,-110 896.97,-106.5 896.97,-113.5"/>
</a>
</g>
</g>
<!-- set_marker_node_Set(2) -->
<!-- set_marker_node_Set(8) -->
<!-- set_marker_node_Set(2)&#45;&gt;set_marker_node_Set(8) -->
<g id="edge2" class="edge">
<title>set_marker_node_Set(2)&#45;&gt;set_marker_node_Set(8)</title>
<g id="a_edge2"><a xlink:title="FirstFlush → PreUpdate">
<path fill="none" stroke="#881877" stroke-width="2" d="M283.2,-125C288.17,-123.94 293.34,-122.82 298.52,-121.71"/>
<polygon fill="#881877" stroke="#881877" stroke-width="2" points="299,-125.19 308.04,-119.66 297.53,-118.34 299,-125.19"/>
</a>
</g>
</g>
<!-- set_marker_node_Set(3) -->
<!-- set_marker_node_Set(9) -->
<!-- set_marker_node_Set(3)&#45;&gt;set_marker_node_Set(9) -->
<g id="edge4" class="edge">
<title>set_marker_node_Set(3)&#45;&gt;set_marker_node_Set(9)</title>
<g id="a_edge4"><a xlink:title="PreUpdateFlush → StateTransitions">
<path fill="none" stroke="#aa3a55" stroke-width="2" d="M541,-110C543.39,-110 545.8,-110 548.21,-110"/>
<polygon fill="#aa3a55" stroke="#aa3a55" stroke-width="2" points="547.98,-113.5 557.98,-110 547.98,-106.5 547.98,-113.5"/>
</a>
</g>
</g>
<!-- set_marker_node_Set(11) -->
<!-- set_marker_node_Set(4)&#45;&gt;set_marker_node_Set(11) -->
<g id="edge8" class="edge">
<title>set_marker_node_Set(4)&#45;&gt;set_marker_node_Set(11)</title>
<g id="a_edge8"><a xlink:title="UpdateFlush → PostUpdate">
<path fill="none" stroke="#663699" stroke-width="2" d="M1011,-110C1014,-110 1017,-110 1020,-110"/>
<polygon fill="#663699" stroke="#663699" stroke-width="2" points="1009.98,-113.5 1019.98,-110 1009.98,-106.5 1009.98,-113.5"/>
</a>
</g>
</g>
<!-- set_marker_node_Set(5) -->
<!-- set_marker_node_Set(12) -->
<!-- set_marker_node_Set(5)&#45;&gt;set_marker_node_Set(12) -->
<g id="edge10" class="edge">
<title>set_marker_node_Set(5)&#45;&gt;set_marker_node_Set(12)</title>
<g id="a_edge10"><a xlink:title="PostUpdateFlush → Last">
<path fill="none" stroke="#22c2bb" stroke-width="2" d="M1576,-58.65C1602.36,-56.64 1633.18,-54.04 1661,-51 1678.66,-49.07 1698.27,-46.41 1714.4,-44.09"/>
<polygon fill="#22c2bb" stroke="#22c2bb" stroke-width="2" points="1714.62,-47.59 1724.01,-42.68 1713.61,-40.67 1714.62,-47.59"/>
</a>
</g>
</g>
<!-- set_marker_node_Set(6) -->
<!-- set_marker_node_Set(7) -->
<!-- set_marker_node_Set(7)&#45;&gt;set_marker_node_Set(2) -->
<g id="edge1" class="edge">
<title>set_marker_node_Set(7)&#45;&gt;set_marker_node_Set(2)</title>
<g id="a_edge1"><a xlink:title="First → FirstFlush">
<path fill="none" stroke="#eede00" stroke-width="2" d="M113,-112.45C133.39,-115.65 164.54,-120.53 191.34,-124.74"/>
<polygon fill="#eede00" stroke="#eede00" stroke-width="2" points="190.59,-128.17 201.01,-126.26 191.68,-121.25 190.59,-128.17"/>
</a>
</g>
</g>
<!-- set_marker_node_Set(59) -->
<!-- set_marker_node_Set(7)&#45;&gt;set_marker_node_Set(59) -->
<g id="edge13" class="edge">
<title>set_marker_node_Set(7)&#45;&gt;set_marker_node_Set(59)</title>
<g id="a_edge13"><a xlink:title="First → LoadAssets">
<path fill="none" stroke="#881877" stroke-width="2" d="M113,-105.69C132.35,-102.78 161.37,-98.42 187.19,-94.54"/>
<polygon fill="#881877" stroke="#881877" stroke-width="2" points="187.64,-98.01 197.01,-93.06 186.6,-91.09 187.64,-98.01"/>
</a>
</g>
</g>
<!-- set_marker_node_Set(8)&#45;&gt;set_marker_node_Set(3) -->
<g id="edge3" class="edge">
<title>set_marker_node_Set(8)&#45;&gt;set_marker_node_Set(3)</title>
<g id="a_edge3"><a xlink:title="PreUpdate → PreUpdateFlush">
<path fill="none" stroke="#00b0cc" stroke-width="2" d="M398,-110C400.39,-110 402.82,-110 405.28,-110"/>
<polygon fill="#00b0cc" stroke="#00b0cc" stroke-width="2" points="404.98,-113.5 414.98,-110 404.98,-106.5 404.98,-113.5"/>
</a>
</g>
</g>
<!-- set_marker_node_Set(10) -->
<!-- set_marker_node_Set(9)&#45;&gt;set_marker_node_Set(10) -->
<g id="edge5" class="edge">
<title>set_marker_node_Set(9)&#45;&gt;set_marker_node_Set(10)</title>
<g id="a_edge5"><a xlink:title="StateTransitions → FixedUpdate">
<path fill="none" stroke="#44d488" stroke-width="2" d="M685,-110C687.39,-110 689.79,-110 692.19,-110"/>
<polygon fill="#44d488" stroke="#44d488" stroke-width="2" points="691.98,-113.5 701.98,-110 691.98,-106.5 691.98,-113.5"/>
</a>
</g>
</g>
<!-- set_marker_node_Set(10)&#45;&gt;set_marker_node_Set(0) -->
<g id="edge6" class="edge">
<title>set_marker_node_Set(10)&#45;&gt;set_marker_node_Set(0)</title>
<g id="a_edge6"><a xlink:title="FixedUpdate → Update">
<path fill="none" stroke="#0090cc" stroke-width="2" d="M805,-110C807.37,-110 809.75,-110 812.11,-110"/>
<polygon fill="#0090cc" stroke="#0090cc" stroke-width="2" points="811.98,-113.5 821.98,-110 811.98,-106.5 811.98,-113.5"/>
</a>
</g>
</g>
<!-- set_marker_node_Set(11)&#45;&gt;set_marker_node_Set(5) -->
<g id="edge9" class="edge">
<title>set_marker_node_Set(11)&#45;&gt;set_marker_node_Set(5)</title>
<g id="a_edge9"><a xlink:title="PostUpdate → PostUpdateFlush">
<path fill="none" stroke="#3363bb" stroke-width="2" d="M1241.97,-102C1294.91,-94.3 1375.39,-82.59 1434.36,-74.01"/>
<polygon fill="#3363bb" stroke="#3363bb" stroke-width="2" points="1434.61,-77.51 1444.01,-72.6 1433.61,-70.58 1434.61,-77.51"/>
</a>
</g>
</g>
<!-- set_marker_node_Set(60) -->
<!-- set_marker_node_Set(11)&#45;&gt;set_marker_node_Set(60) -->
<g id="edge14" class="edge">
<title>set_marker_node_Set(11)&#45;&gt;set_marker_node_Set(60)</title>
<g id="a_edge14"><a xlink:title="PostUpdate → AssetEvents">
<path fill="none" stroke="#00b0cc" stroke-width="2" d="M1208.39,-102C1241.02,-89.98 1305.29,-66.95 1361,-51 1390.2,-42.64 1423.03,-34.77 1450.43,-28.61"/>
<polygon fill="#00b0cc" stroke="#00b0cc" stroke-width="2" points="1451.04,-32.06 1460.05,-26.48 1449.53,-25.23 1451.04,-32.06"/>
</a>
</g>
</g>
<!-- set_marker_node_Set(20) -->
<!-- node_System(68) -->
<g id="node21" class="node">
<title>node_System(68)</title>
<g id="a_node21"><a xlink:title="bevy_render::view::visibility::update_frusta&lt;bevy_render::camera::projection::OrthographicProjection&gt;">
<polygon fill="#eff1f3" stroke="#eff1f3" points="1653,-302 1369,-302 1369,-266 1653,-266 1653,-302"/>
<text text-anchor="middle" x="1511" y="-280.3" font-family="Times,serif" font-size="14.00">update_frusta&lt;OrthographicProjection&gt;</text>
</a>
</g>
</g>
<!-- set_marker_node_Set(20)&#45;&gt;node_System(68) -->
<g id="edge18" class="edge">
<title>set_marker_node_Set(20)&#45;&gt;node_System(68)</title>
<g id="a_edge18"><a xlink:title="TransformPropagate → update_frusta&lt;OrthographicProjection&gt;">
<path fill="none" stroke="#ee9e44" stroke-width="2" d="M1262,-498.7C1290.17,-499.15 1320.34,-493.77 1341,-474 1390.96,-426.21 1319.25,-370.31 1362.3,-312.13"/>
<polygon fill="#ee9e44" stroke="#ee9e44" stroke-width="2" points="1364.81,-314.58 1368.63,-304.7 1359.48,-310.04 1364.81,-314.58"/>
</a>
</g>
</g>
<!-- node_System(69) -->
<g id="node23" class="node">
<title>node_System(69)</title>
<g id="a_node23"><a xlink:title="bevy_render::view::visibility::update_frusta&lt;bevy_render::camera::projection::PerspectiveProjection&gt;">
<polygon fill="#eff1f3" stroke="#eff1f3" points="1646.5,-403 1375.5,-403 1375.5,-367 1646.5,-367 1646.5,-403"/>
<text text-anchor="middle" x="1511" y="-381.3" font-family="Times,serif" font-size="14.00">update_frusta&lt;PerspectiveProjection&gt;</text>
</a>
</g>
</g>
<!-- set_marker_node_Set(20)&#45;&gt;node_System(69) -->
<g id="edge20" class="edge">
<title>set_marker_node_Set(20)&#45;&gt;node_System(69)</title>
<g id="a_edge20"><a xlink:title="TransformPropagate → update_frusta&lt;PerspectiveProjection&gt;">
<path fill="none" stroke="#3363bb" stroke-width="2" d="M1262,-496.61C1289.41,-496.53 1319.04,-491.33 1341,-474 1363.73,-456.06 1339.21,-431.07 1361,-412 1362.09,-411.05 1363.2,-410.12 1364.33,-409.23"/>
<polygon fill="#3363bb" stroke="#3363bb" stroke-width="2" points="1366.26,-412.15 1372.52,-403.6 1362.3,-406.38 1366.26,-412.15"/>
</a>
</g>
</g>
<!-- node_System(70) -->
<g id="node25" class="node">
<title>node_System(70)</title>
<g id="a_node25"><a xlink:title="bevy_render::view::visibility::update_frusta&lt;bevy_render::camera::projection::Projection&gt;">
<polygon fill="#eff1f3" stroke="#eff1f3" points="1608,-504 1414,-504 1414,-468 1608,-468 1608,-504"/>
<text text-anchor="middle" x="1511" y="-482.3" font-family="Times,serif" font-size="14.00">update_frusta&lt;Projection&gt;</text>
</a>
</g>
</g>
<!-- set_marker_node_Set(20)&#45;&gt;node_System(70) -->
<g id="edge22" class="edge">
<title>set_marker_node_Set(20)&#45;&gt;node_System(70)</title>
<g id="a_edge22"><a xlink:title="TransformPropagate → update_frusta&lt;Projection&gt;">
<path fill="none" stroke="#99d955" stroke-width="2" d="M1262,-486C1303.31,-486 1355.33,-486 1401.05,-486"/>
<polygon fill="#99d955" stroke="#99d955" stroke-width="2" points="1400.9,-489.5 1410.9,-486 1400.9,-482.5 1400.9,-489.5"/>
</a>
</g>
</g>
<!-- node_System(72) -->
<g id="node27" class="node">
<title>node_System(72)</title>
<g id="a_node27"><a xlink:title="bevy_render::view::visibility::check_visibility">
<polygon fill="#eff1f3" stroke="#eff1f3" points="1809,-388 1689,-388 1689,-352 1809,-352 1809,-388"/>
<text text-anchor="middle" x="1749" y="-366.3" font-family="Times,serif" font-size="14.00">check_visibility</text>
</a>
</g>
</g>
<!-- set_marker_node_Set(20)&#45;&gt;node_System(72) -->
<g id="edge28" class="edge">
<title>set_marker_node_Set(20)&#45;&gt;node_System(72)</title>
<g id="a_edge28"><a xlink:title="TransformPropagate → check_visibility">
<path fill="none" stroke="#0090cc" stroke-width="2" d="M1238.75,-517C1334.7,-570.02 1541.29,-662.68 1661,-557 1711.79,-512.17 1645.36,-459.86 1682.31,-398.96"/>
<polygon fill="#0090cc" stroke="#0090cc" stroke-width="2" points="1685.17,-400.97 1688.06,-390.78 1679.44,-396.95 1685.17,-400.97"/>
</a>
</g>
</g>
<!-- set_marker_node_Set(77) -->
<!-- node_System(63) -->
<g id="node14" class="node">
<title>node_System(63)</title>
<g id="a_node14"><a xlink:title="bevy_render::camera::camera::camera_system&lt;bevy_render::camera::projection::Projection&gt;">
<polygon fill="#eff1f3" stroke="#eff1f3" points="1288,-421 1084,-421 1084,-385 1288,-385 1288,-421"/>
<text text-anchor="middle" x="1186" y="-399.3" font-family="Times,serif" font-size="14.00">camera_system&lt;Projection&gt;</text>
</a>
</g>
</g>
<!-- node_System(63)&#45;&gt;node_System(70) -->
<g id="edge21" class="edge">
<title>node_System(63)&#45;&gt;node_System(70)</title>
<g id="a_edge21"><a xlink:title="SystemTypeSet(camera_system&lt;Projection&gt;&quot;) → update_frusta&lt;Projection&gt;">
<path fill="none" stroke="#22c2bb" stroke-width="2" d="M1288.22,-409.74C1306.67,-413.96 1325.09,-420.37 1341,-430 1353.47,-437.55 1348.62,-448.29 1361,-456 1373.21,-463.6 1386.99,-469.33 1401.1,-473.63"/>
<polygon fill="#22c2bb" stroke="#22c2bb" stroke-width="2" points="1400.06,-476.98 1410.63,-476.26 1401.92,-470.23 1400.06,-476.98"/>
</a>
</g>
</g>
<!-- node_System(64) -->
<g id="node15" class="node">
<title>node_System(64)</title>
<g id="a_node15"><a xlink:title="bevy_render::camera::camera::camera_system&lt;bevy_render::camera::projection::OrthographicProjection&gt;">
<polygon fill="#eff1f3" stroke="#eff1f3" points="1333,-313 1039,-313 1039,-277 1333,-277 1333,-313"/>
<text text-anchor="middle" x="1186" y="-291.3" font-family="Times,serif" font-size="14.00">camera_system&lt;OrthographicProjection&gt;</text>
</a>
</g>
</g>
<!-- node_System(64)&#45;&gt;node_System(68) -->
<g id="edge17" class="edge">
<title>node_System(64)&#45;&gt;node_System(68)</title>
<g id="a_edge17"><a xlink:title="SystemTypeSet(camera_system&lt;OrthographicProjection&gt;&quot;) → update_frusta&lt;OrthographicProjection&gt;">
<path fill="none" stroke="#0090cc" stroke-width="2" d="M1333.38,-290.01C1340.77,-289.76 1348.21,-289.51 1355.63,-289.26"/>
<polygon fill="#0090cc" stroke="#0090cc" stroke-width="2" points="1355.6,-292.76 1365.48,-288.92 1355.37,-285.76 1355.6,-292.76"/>
</a>
</g>
</g>
<!-- node_System(65) -->
<g id="node16" class="node">
<title>node_System(65)</title>
<g id="a_node16"><a xlink:title="bevy_render::camera::camera::camera_system&lt;bevy_render::camera::projection::PerspectiveProjection&gt;">
<polygon fill="#eff1f3" stroke="#eff1f3" points="1326.5,-367 1045.5,-367 1045.5,-331 1326.5,-331 1326.5,-367"/>
<text text-anchor="middle" x="1186" y="-345.3" font-family="Times,serif" font-size="14.00">camera_system&lt;PerspectiveProjection&gt;</text>
</a>
</g>
</g>
<!-- node_System(65)&#45;&gt;node_System(69) -->
<g id="edge19" class="edge">
<title>node_System(65)&#45;&gt;node_System(69)</title>
<g id="a_edge19"><a xlink:title="SystemTypeSet(camera_system&lt;PerspectiveProjection&gt;&quot;) → update_frusta&lt;PerspectiveProjection&gt;">
<path fill="none" stroke="#663699" stroke-width="2" d="M1326.79,-364.58C1338.56,-365.89 1350.49,-367.22 1362.32,-368.54"/>
<polygon fill="#663699" stroke="#663699" stroke-width="2" points="1361.76,-372 1372.09,-369.63 1362.54,-365.04 1361.76,-372"/>
</a>
</g>
</g>
<!-- set_marker_node_Set(81) -->
<!-- set_marker_node_Set(82) -->
<!-- set_marker_node_Set(81)&#45;&gt;set_marker_node_Set(82) -->
<g id="edge16" class="edge">
<title>set_marker_node_Set(81)&#45;&gt;set_marker_node_Set(82)</title>
<g id="a_edge16"><a xlink:title="CalculateBounds → CalculateBoundsFlush">
<path fill="none" stroke="#44d488" stroke-width="2" d="M1260.5,-219C1306.59,-219 1366.45,-219 1415.98,-219"/>
<polygon fill="#44d488" stroke="#44d488" stroke-width="2" points="1415.98,-222.5 1425.98,-219 1415.98,-215.5 1415.98,-222.5"/>
</a>
</g>
</g>
<!-- node_System(67) -->
<g id="node18" class="node">
<title>node_System(67)</title>
<g id="a_node18"><a xlink:title="bevy_render::view::visibility::calculate_bounds">
<polygon fill="#eff1f3" stroke="#eff1f3" points="1252.5,-201 1119.5,-201 1119.5,-165 1252.5,-165 1252.5,-201"/>
<text text-anchor="middle" x="1186" y="-179.3" font-family="Times,serif" font-size="14.00">calculate_bounds</text>
</a>
</g>
</g>
<!-- set_marker_node_Set(82)&#45;&gt;node_System(72) -->
<g id="edge23" class="edge">
<title>set_marker_node_Set(82)&#45;&gt;node_System(72)</title>
<g id="a_edge23"><a xlink:title="CalculateBoundsFlush → check_visibility">
<path fill="none" stroke="#eede00" stroke-width="2" d="M1593,-227.46C1616.31,-232.6 1640.85,-240.83 1661,-254 1693.71,-275.38 1718.74,-313.48 1733.37,-340.17"/>
<polygon fill="#eede00" stroke="#eede00" stroke-width="2" points="1730.19,-341.63 1737.95,-348.84 1736.38,-338.37 1730.19,-341.63"/>
</a>
</g>
</g>
<!-- set_marker_node_Set(83) -->
<!-- set_marker_node_Set(83)&#45;&gt;node_System(72) -->
<g id="edge24" class="edge">
<title>set_marker_node_Set(83)&#45;&gt;node_System(72)</title>
<g id="a_edge24"><a xlink:title="UpdateOrthographicFrusta → check_visibility">
<path fill="none" stroke="#881877" stroke-width="2" d="M1658.32,-351C1664.39,-352.29 1670.36,-353.55 1676.15,-354.78"/>
<polygon fill="#881877" stroke="#881877" stroke-width="2" points="1675.17,-358.15 1685.68,-356.8 1676.62,-351.3 1675.17,-358.15"/>
</a>
</g>
</g>
<!-- set_marker_node_Set(84) -->
<!-- set_marker_node_Set(84)&#45;&gt;node_System(72) -->
<g id="edge25" class="edge">
<title>set_marker_node_Set(84)&#45;&gt;node_System(72)</title>
<g id="a_edge25"><a xlink:title="UpdatePerspectiveFrusta → check_visibility">
<path fill="none" stroke="#00b0cc" stroke-width="2" d="M1654.5,-414.23C1656.69,-413.53 1658.86,-412.79 1661,-412 1671.43,-408.17 1671.32,-402.46 1681,-397 1682.76,-396.01 1684.56,-395.04 1686.39,-394.08"/>
<polygon fill="#00b0cc" stroke="#00b0cc" stroke-width="2" points="1687.73,-397.32 1695.2,-389.81 1684.68,-391.03 1687.73,-397.32"/>
</a>
</g>
</g>
<!-- set_marker_node_Set(85) -->
<!-- set_marker_node_Set(85)&#45;&gt;node_System(72) -->
<g id="edge26" class="edge">
<title>set_marker_node_Set(85)&#45;&gt;node_System(72)</title>
<g id="a_edge26"><a xlink:title="UpdateProjectionFrusta → check_visibility">
<path fill="none" stroke="#aa3a55" stroke-width="2" d="M1616,-533.23C1632.6,-530.37 1648.42,-524.26 1661,-513 1697.24,-480.56 1654.98,-443.36 1682.47,-398.7"/>
<polygon fill="#aa3a55" stroke="#aa3a55" stroke-width="2" points="1685.11,-401.02 1688.18,-390.88 1679.46,-396.89 1685.11,-401.02"/>
</a>
</g>
</g>
<!-- set_marker_node_Set(86) -->
<!-- set_marker_node_Set(87) -->
<!-- set_marker_node_Set(87)&#45;&gt;node_System(72) -->
<g id="edge27" class="edge">
<title>set_marker_node_Set(87)&#45;&gt;node_System(72)</title>
<g id="a_edge27"><a xlink:title="VisibilityPropagate → check_visibility">
<path fill="none" stroke="#44d488" stroke-width="2" d="M1620.5,-185.88C1635.03,-190.95 1649.03,-197.79 1661,-207 1704.48,-240.44 1728.69,-301.93 1739.98,-339.08"/>
<polygon fill="#44d488" stroke="#44d488" stroke-width="2" points="1736.6,-340.02 1742.72,-348.66 1743.33,-338.08 1736.6,-340.02"/>
</a>
</g>
</g>
<!-- node_System(71) -->
<g id="node29" class="node">
<title>node_System(71)</title>
<g id="a_node29"><a xlink:title="bevy_render::view::visibility::visibility_propagate_system">
<polygon fill="#eff1f3" stroke="#eff1f3" points="1612.5,-154 1409.5,-154 1409.5,-118 1612.5,-118 1612.5,-154"/>
<text text-anchor="middle" x="1511" y="-132.3" font-family="Times,serif" font-size="14.00">visibility_propagate_system</text>
</a>
</g>
</g>
<!-- set_marker_node_Set(12)&#45;&gt;set_marker_node_Set(6) -->
<g id="edge11" class="edge">
<title>set_marker_node_Set(12)&#45;&gt;set_marker_node_Set(6)</title>
<g id="a_edge11"><a xlink:title="Last → LastFlush">
<path fill="none" stroke="#99d955" stroke-width="2" d="M1771,-39C1785.57,-39 1805.65,-39 1824.35,-39"/>
<polygon fill="#99d955" stroke="#99d955" stroke-width="2" points="1823.97,-42.5 1833.97,-39 1823.97,-35.5 1823.97,-42.5"/>
</a>
</g>
</g>
<!-- set_marker_node_Set(22) -->
<!-- set_marker_node_Set(59)&#45;&gt;set_marker_node_Set(8) -->
<g id="edge12" class="edge">
<title>set_marker_node_Set(59)&#45;&gt;set_marker_node_Set(8)</title>
<g id="a_edge12"><a xlink:title="LoadAssets → PreUpdate">
<path fill="none" stroke="#eede00" stroke-width="2" d="M291,-96.09C295.6,-97.12 300.28,-98.18 304.91,-99.21"/>
<polygon fill="#eede00" stroke="#eede00" stroke-width="2" points="303.87,-102.57 314.39,-101.34 305.4,-95.74 303.87,-102.57"/>
</a>
</g>
</g>
<!-- set_marker_node_Set(60)&#45;&gt;set_marker_node_Set(12) -->
<g id="edge15" class="edge">
<title>set_marker_node_Set(60)&#45;&gt;set_marker_node_Set(12)</title>
<g id="a_edge15"><a xlink:title="AssetEvents → Last">
<path fill="none" stroke="#aa3a55" stroke-width="2" d="M1559,-20.58C1604.92,-25.06 1673.69,-31.76 1714.38,-35.72"/>
<polygon fill="#aa3a55" stroke="#aa3a55" stroke-width="2" points="1713.7,-39.17 1723.99,-36.66 1714.38,-32.21 1713.7,-39.17"/>
</a>
</g>
</g>
</g>
</svg>
