<?xml version="1.0" encoding="UTF-8" standalone="no"?>
<!DOCTYPE svg PUBLIC "-//W3C//DTD SVG 1.1//EN"
 "http://www.w3.org/Graphics/SVG/1.1/DTD/svg11.dtd">
<!-- Generated by graphviz version 8.0.1 (0)
 -->
<!-- Pages: 1 -->
<svg width="1427pt" height="157pt"
 viewBox="0.00 0.00 1427.00 157.00" xmlns="http://www.w3.org/2000/svg" xmlns:xlink="http://www.w3.org/1999/xlink">
<g id="graph0" class="graph" transform="scale(1 1) rotate(0) translate(4 153)">
<polygon fill="#0d1117" stroke="none" points="-4,4 -4,-153 1423,-153 1423,4 -4,4"/>
<g id="clust1" class="cluster">
<title>clusternode_Set(0)</title>
<g id="a_clust1"><a xlink:title="Update">
<path fill="#ffffff" fill-opacity="0.266667" stroke="#ffffff" stroke-width="2" stroke-opacity="0.313725" d="M852,-55C852,-55 888,-55 888,-55 894,-55 900,-61 900,-67 900,-67 900,-82 900,-82 900,-88 894,-94 888,-94 888,-94 852,-94 852,-94 846,-94 840,-88 840,-82 840,-82 840,-67 840,-67 840,-61 846,-55 852,-55"/>
<text text-anchor="middle" x="870" y="-78.8" font-family="Helvetica,sans-Serif" font-size="14.00">Update</text>
</a>
</g>
</g>
<g id="clust2" class="cluster">
<title>clusternode_Set(2)</title>
<g id="a_clust2"><a xlink:title="FirstFlush">
<path fill="#ffffff" fill-opacity="0.266667" stroke="#ffffff" stroke-width="2" stroke-opacity="0.313725" d="M162,-55C162,-55 214,-55 214,-55 220,-55 226,-61 226,-67 226,-67 226,-82 226,-82 226,-88 220,-94 214,-94 214,-94 162,-94 162,-94 156,-94 150,-88 150,-82 150,-82 150,-67 150,-67 150,-61 156,-55 162,-55"/>
<text text-anchor="middle" x="188" y="-78.8" font-family="Helvetica,sans-Serif" font-size="14.00">FirstFlush</text>
</a>
</g>
</g>
<g id="clust3" class="cluster">
<title>clusternode_Set(3)</title>
<g id="a_clust3"><a xlink:title="PreUpdateFlush">
<path fill="#ffffff" fill-opacity="0.266667" stroke="#ffffff" stroke-width="2" stroke-opacity="0.313725" d="M365,-55C365,-55 455,-55 455,-55 461,-55 467,-61 467,-67 467,-67 467,-82 467,-82 467,-88 461,-94 455,-94 455,-94 365,-94 365,-94 359,-94 353,-88 353,-82 353,-82 353,-67 353,-67 353,-61 359,-55 365,-55"/>
<text text-anchor="middle" x="410" y="-78.8" font-family="Helvetica,sans-Serif" font-size="14.00">PreUpdateFlush</text>
</a>
</g>
</g>
<g id="clust4" class="cluster">
<title>clusternode_Set(4)</title>
<g id="a_clust4"><a xlink:title="UpdateFlush">
<path fill="#ffffff" fill-opacity="0.266667" stroke="#ffffff" stroke-width="2" stroke-opacity="0.313725" d="M932,-55C932,-55 1001,-55 1001,-55 1007,-55 1013,-61 1013,-67 1013,-67 1013,-82 1013,-82 1013,-88 1007,-94 1001,-94 1001,-94 932,-94 932,-94 926,-94 920,-88 920,-82 920,-82 920,-67 920,-67 920,-61 926,-55 932,-55"/>
<text text-anchor="middle" x="966.5" y="-78.8" font-family="Helvetica,sans-Serif" font-size="14.00">UpdateFlush</text>
</a>
</g>
</g>
<g id="clust5" class="cluster">
<title>clusternode_Set(5)</title>
<g id="a_clust5"><a xlink:title="PostUpdateFlush">
<path fill="#ffffff" fill-opacity="0.266667" stroke="#ffffff" stroke-width="2" stroke-opacity="0.313725" d="M1152,-102C1152,-102 1248,-102 1248,-102 1254,-102 1260,-108 1260,-114 1260,-114 1260,-129 1260,-129 1260,-135 1254,-141 1248,-141 1248,-141 1152,-141 1152,-141 1146,-141 1140,-135 1140,-129 1140,-129 1140,-114 1140,-114 1140,-108 1146,-102 1152,-102"/>
<text text-anchor="middle" x="1200" y="-125.8" font-family="Helvetica,sans-Serif" font-size="14.00">PostUpdateFlush</text>
</a>
</g>
</g>
<g id="clust6" class="cluster">
<title>clusternode_Set(6)</title>
<g id="a_clust6"><a xlink:title="LastFlush">
<path fill="#ffffff" fill-opacity="0.266667" stroke="#ffffff" stroke-width="2" stroke-opacity="0.313725" d="M1355,-78C1355,-78 1407,-78 1407,-78 1413,-78 1419,-84 1419,-90 1419,-90 1419,-105 1419,-105 1419,-111 1413,-117 1407,-117 1407,-117 1355,-117 1355,-117 1349,-117 1343,-111 1343,-105 1343,-105 1343,-90 1343,-90 1343,-84 1349,-78 1355,-78"/>
<text text-anchor="middle" x="1381" y="-101.8" font-family="Helvetica,sans-Serif" font-size="14.00">LastFlush</text>
</a>
</g>
</g>
<g id="clust7" class="cluster">
<title>clusternode_Set(7)</title>
<g id="a_clust7"><a xlink:title="First">
<path fill="#ffffff" fill-opacity="0.266667" stroke="#ffffff" stroke-width="2" stroke-opacity="0.313725" d="M20,-8C20,-8 120,-8 120,-8 126,-8 132,-14 132,-20 132,-20 132,-129 132,-129 132,-135 126,-141 120,-141 120,-141 20,-141 20,-141 14,-141 8,-135 8,-129 8,-129 8,-20 8,-20 8,-14 14,-8 20,-8"/>
<text text-anchor="middle" x="70" y="-125.8" font-family="Helvetica,sans-Serif" font-size="14.00">First</text>
</a>
</g>
</g>
<g id="clust8" class="cluster">
<title>clusternode_Set(16)</title>
<g id="a_clust8"><a xlink:title="TimeSystem">
<path fill="#ffffff" fill-opacity="0.266667" stroke="#ffffff" stroke-width="2" stroke-opacity="0.313725" d="M28,-24C28,-24 112,-24 112,-24 118,-24 124,-30 124,-36 124,-36 124,-98 124,-98 124,-104 118,-110 112,-110 112,-110 28,-110 28,-110 22,-110 16,-104 16,-98 16,-98 16,-36 16,-36 16,-30 22,-24 28,-24"/>
<text text-anchor="middle" x="70" y="-94.8" font-family="Helvetica,sans-Serif" font-size="14.00">TimeSystem</text>
</a>
</g>
</g>
<g id="clust9" class="cluster">
<title>clusternode_Set(8)</title>
<g id="a_clust9"><a xlink:title="PreUpdate">
<path fill="#ffffff" fill-opacity="0.266667" stroke="#ffffff" stroke-width="2" stroke-opacity="0.313725" d="M264,-55C264,-55 321,-55 321,-55 327,-55 333,-61 333,-67 333,-67 333,-82 333,-82 333,-88 327,-94 321,-94 321,-94 264,-94 264,-94 258,-94 252,-88 252,-82 252,-82 252,-67 252,-67 252,-61 258,-55 264,-55"/>
<text text-anchor="middle" x="292.5" y="-78.8" font-family="Helvetica,sans-Serif" font-size="14.00">PreUpdate</text>
</a>
</g>
</g>
<g id="clust10" class="cluster">
<title>clusternode_Set(9)</title>
<g id="a_clust10"><a xlink:title="StateTransitions">
<path fill="#ffffff" fill-opacity="0.266667" stroke="#ffffff" stroke-width="2" stroke-opacity="0.313725" d="M499,-55C499,-55 590,-55 590,-55 596,-55 602,-61 602,-67 602,-67 602,-82 602,-82 602,-88 596,-94 590,-94 590,-94 499,-94 499,-94 493,-94 487,-88 487,-82 487,-82 487,-67 487,-67 487,-61 493,-55 499,-55"/>
<text text-anchor="middle" x="544.5" y="-78.8" font-family="Helvetica,sans-Serif" font-size="14.00">StateTransitions</text>
</a>
</g>
</g>
<g id="clust11" class="cluster">
<title>clusternode_Set(10)</title>
<g id="a_clust11"><a xlink:title="FixedUpdate">
<path fill="#ffffff" fill-opacity="0.266667" stroke="#ffffff" stroke-width="2" stroke-opacity="0.313725" d="M634,-8C634,-8 808,-8 808,-8 814,-8 820,-14 820,-20 820,-20 820,-82 820,-82 820,-88 814,-94 808,-94 808,-94 634,-94 634,-94 628,-94 622,-88 622,-82 622,-82 622,-20 622,-20 622,-14 628,-8 634,-8"/>
<text text-anchor="middle" x="721" y="-78.8" font-family="Helvetica,sans-Serif" font-size="14.00">FixedUpdate</text>
</a>
</g>
</g>
<g id="clust12" class="cluster">
<title>clusternode_Set(11)</title>
<g id="a_clust12"><a xlink:title="PostUpdate">
<path fill="#ffffff" fill-opacity="0.266667" stroke="#ffffff" stroke-width="2" stroke-opacity="0.313725" d="M1045,-55C1045,-55 1108,-55 1108,-55 1114,-55 1120,-61 1120,-67 1120,-67 1120,-82 1120,-82 1120,-88 1114,-94 1108,-94 1108,-94 1045,-94 1045,-94 1039,-94 1033,-88 1033,-82 1033,-82 1033,-67 1033,-67 1033,-61 1039,-55 1045,-55"/>
<text text-anchor="middle" x="1076.5" y="-78.8" font-family="Helvetica,sans-Serif" font-size="14.00">PostUpdate</text>
</a>
</g>
</g>
<g id="clust13" class="cluster">
<title>clusternode_Set(12)</title>
<g id="a_clust13"><a xlink:title="Last">
<path fill="#ffffff" fill-opacity="0.266667" stroke="#ffffff" stroke-width="2" stroke-opacity="0.313725" d="M1292,-78C1292,-78 1311,-78 1311,-78 1317,-78 1323,-84 1323,-90 1323,-90 1323,-105 1323,-105 1323,-111 1317,-117 1311,-117 1311,-117 1292,-117 1292,-117 1286,-117 1280,-111 1280,-105 1280,-105 1280,-90 1280,-90 1280,-84 1286,-78 1292,-78"/>
<text text-anchor="middle" x="1301.5" y="-101.8" font-family="Helvetica,sans-Serif" font-size="14.00">Last</text>
</a>
</g>
</g>
<g id="clust14" class="cluster">
<title>clusternode_Set(59)</title>
<g id="a_clust14"><a xlink:title="LoadAssets">
<path fill="#ffffff" fill-opacity="0.266667" stroke="#ffffff" stroke-width="2" stroke-opacity="0.313725" d="M156,-8C156,-8 220,-8 220,-8 226,-8 232,-14 232,-20 232,-20 232,-35 232,-35 232,-41 226,-47 220,-47 220,-47 156,-47 156,-47 150,-47 144,-41 144,-35 144,-35 144,-20 144,-20 144,-14 150,-8 156,-8"/>
<text text-anchor="middle" x="188" y="-31.8" font-family="Helvetica,sans-Serif" font-size="14.00">LoadAssets</text>
</a>
</g>
</g>
<g id="clust15" class="cluster">
<title>clusternode_Set(60)</title>
<g id="a_clust15"><a xlink:title="AssetEvents">
<path fill="#ffffff" fill-opacity="0.266667" stroke="#ffffff" stroke-width="2" stroke-opacity="0.313725" d="M1166,-55C1166,-55 1234,-55 1234,-55 1240,-55 1246,-61 1246,-67 1246,-67 1246,-82 1246,-82 1246,-88 1240,-94 1234,-94 1234,-94 1166,-94 1166,-94 1160,-94 1154,-88 1154,-82 1154,-82 1154,-67 1154,-67 1154,-61 1160,-55 1166,-55"/>
<text text-anchor="middle" x="1200" y="-78.8" font-family="Helvetica,sans-Serif" font-size="14.00">AssetEvents</text>
</a>
</g>
</g>
<!-- set_marker_node_Set(0) -->
<!-- set_marker_node_Set(4) -->
<!-- set_marker_node_Set(0)&#45;&gt;set_marker_node_Set(4) -->
<g id="edge7" class="edge">
<title>set_marker_node_Set(0)&#45;&gt;set_marker_node_Set(4)</title>
<g id="a_edge7"><a xlink:title="Update → UpdateFlush">
<path fill="none" stroke="#ee9e44" stroke-width="2" d="M900,-63C902.33,-63 904.74,-63 907.18,-63"/>
<polygon fill="#ee9e44" stroke="#ee9e44" stroke-width="2" points="907,-66.5 917,-63 907,-59.5 907,-66.5"/>
</a>
</g>
</g>
<!-- set_marker_node_Set(2) -->
<!-- set_marker_node_Set(8) -->
<!-- set_marker_node_Set(2)&#45;&gt;set_marker_node_Set(8) -->
<g id="edge2" class="edge">
<title>set_marker_node_Set(2)&#45;&gt;set_marker_node_Set(8)</title>
<g id="a_edge2"><a xlink:title="FirstFlush → PreUpdate">
<path fill="none" stroke="#881877" stroke-width="2" d="M226,-63C230.33,-63 234.82,-63 239.31,-63"/>
<polygon fill="#881877" stroke="#881877" stroke-width="2" points="239,-66.5 249,-63 239,-59.5 239,-66.5"/>
</a>
</g>
</g>
<!-- set_marker_node_Set(3) -->
<!-- set_marker_node_Set(9) -->
<!-- set_marker_node_Set(3)&#45;&gt;set_marker_node_Set(9) -->
<g id="edge4" class="edge">
<title>set_marker_node_Set(3)&#45;&gt;set_marker_node_Set(9)</title>
<g id="a_edge4"><a xlink:title="PreUpdateFlush → StateTransitions">
<path fill="none" stroke="#aa3a55" stroke-width="2" d="M467,-63C469.39,-63 471.79,-63 474.21,-63"/>
<polygon fill="#aa3a55" stroke="#aa3a55" stroke-width="2" points="474,-66.5 484,-63 474,-59.5 474,-66.5"/>
</a>
</g>
</g>
<!-- set_marker_node_Set(11) -->
<!-- set_marker_node_Set(4)&#45;&gt;set_marker_node_Set(11) -->
<g id="edge8" class="edge">
<title>set_marker_node_Set(4)&#45;&gt;set_marker_node_Set(11)</title>
<g id="a_edge8"><a xlink:title="UpdateFlush → PostUpdate">
<path fill="none" stroke="#663699" stroke-width="2" d="M1013,-63C1015.32,-63 1017.66,-63 1020,-63"/>
<polygon fill="#663699" stroke="#663699" stroke-width="2" points="1020,-66.5 1030,-63 1020,-59.5 1020,-66.5"/>
</a>
</g>
</g>
<!-- set_marker_node_Set(5) -->
<!-- set_marker_node_Set(12) -->
<!-- set_marker_node_Set(5)&#45;&gt;set_marker_node_Set(12) -->
<g id="edge10" class="edge">
<title>set_marker_node_Set(5)&#45;&gt;set_marker_node_Set(12)</title>
<g id="a_edge10"><a xlink:title="PostUpdateFlush → Last">
<path fill="none" stroke="#22c2bb" stroke-width="2" d="M1235.02,-102C1243.2,-100.06 1251.92,-97.97 1260,-96 1262.44,-95.4 1264.97,-94.78 1267.51,-94.16"/>
<polygon fill="#22c2bb" stroke="#22c2bb" stroke-width="2" points="1269.14,-96.86 1278,-91.05 1267.45,-90.07 1269.14,-96.86"/>
</a>
</g>
</g>
<!-- set_marker_node_Set(6) -->
<!-- set_marker_node_Set(7) -->
<!-- set_marker_node_Set(7)&#45;&gt;set_marker_node_Set(2) -->
<g id="edge1" class="edge">
<title>set_marker_node_Set(7)&#45;&gt;set_marker_node_Set(2)</title>
<g id="a_edge1"><a xlink:title="First → FirstFlush">
<path fill="none" stroke="#eede00" stroke-width="2" d="M132,-22C140.32,-28.01 137.01,-35.74 144.08,-45.89"/>
<polygon fill="#eede00" stroke="#eede00" stroke-width="2" points="141.46,-48.27 150.94,-53 146.48,-43.39 141.46,-48.27"/>
</a>
</g>
</g>
<!-- set_marker_node_Set(59) -->
<!-- set_marker_node_Set(7)&#45;&gt;set_marker_node_Set(59) -->
<g id="edge13" class="edge">
<title>set_marker_node_Set(7)&#45;&gt;set_marker_node_Set(59)</title>
<g id="a_edge13"><a xlink:title="First → LoadAssets">
<path fill="none" stroke="#881877" stroke-width="2" d="M132,-16C135,-16 138,-16 141,-16"/>
<polygon fill="#881877" stroke="#881877" stroke-width="2" points="131,-19.5 141,-16 131,-12.5 131,-19.5"/>
</a>
</g>
</g>
<!-- set_marker_node_Set(16) -->
<!-- node_System(8) -->
<g id="node9" class="node">
<title>node_System(8)</title>
<g id="a_node9"><a xlink:title="bevy_time::time_system">
<polygon fill="#c7ddbd" stroke="#8dba79" points="116,-68 24,-68 24,-32 116,-32 116,-68"/>
<text text-anchor="middle" x="70" y="-46.3" font-family="Helvetica,sans-Serif" font-size="14.00" fill="#162111">time_system</text>
</a>
</g>
</g>
<!-- set_marker_node_Set(8)&#45;&gt;set_marker_node_Set(3) -->
<g id="edge3" class="edge">
<title>set_marker_node_Set(8)&#45;&gt;set_marker_node_Set(3)</title>
<g id="a_edge3"><a xlink:title="PreUpdate → PreUpdateFlush">
<path fill="none" stroke="#00b0cc" stroke-width="2" d="M333,-63C335.38,-63 337.8,-63 340.25,-63"/>
<polygon fill="#00b0cc" stroke="#00b0cc" stroke-width="2" points="340,-66.5 350,-63 340,-59.5 340,-66.5"/>
</a>
</g>
</g>
<!-- set_marker_node_Set(10) -->
<!-- set_marker_node_Set(9)&#45;&gt;set_marker_node_Set(10) -->
<g id="edge5" class="edge">
<title>set_marker_node_Set(9)&#45;&gt;set_marker_node_Set(10)</title>
<g id="a_edge5"><a xlink:title="StateTransitions → FixedUpdate">
<path fill="none" stroke="#44d488" stroke-width="2" d="M602,-63C604.31,-63 606.66,-63 609.03,-63"/>
<polygon fill="#44d488" stroke="#44d488" stroke-width="2" points="609,-66.5 619,-63 609,-59.5 609,-66.5"/>
</a>
</g>
</g>
<!-- set_marker_node_Set(10)&#45;&gt;set_marker_node_Set(0) -->
<g id="edge6" class="edge">
<title>set_marker_node_Set(10)&#45;&gt;set_marker_node_Set(0)</title>
<g id="a_edge6"><a xlink:title="FixedUpdate → Update">
<path fill="none" stroke="#0090cc" stroke-width="2" d="M820,-63C822.45,-63 824.85,-63 827.21,-63"/>
<polygon fill="#0090cc" stroke="#0090cc" stroke-width="2" points="827,-66.5 837,-63 827,-59.5 827,-66.5"/>
</a>
</g>
</g>
<!-- node_System(9) -->
<g id="node13" class="node">
<title>node_System(9)</title>
<g id="a_node13"><a xlink:title="bevy_time::fixed_timestep::run_fixed_update_schedule">
<polygon fill="#c7ddbd" stroke="#8dba79" points="812,-52 630,-52 630,-16 812,-16 812,-52"/>
<text text-anchor="middle" x="721" y="-30.3" font-family="Helvetica,sans-Serif" font-size="14.00" fill="#162111">run_fixed_update_schedule</text>
</a>
</g>
</g>
<!-- set_marker_node_Set(11)&#45;&gt;set_marker_node_Set(5) -->
<g id="edge9" class="edge">
<title>set_marker_node_Set(11)&#45;&gt;set_marker_node_Set(5)</title>
<g id="a_edge9"><a xlink:title="PostUpdate → PostUpdateFlush">
<path fill="none" stroke="#3363bb" stroke-width="2" d="M1120,-87.32C1126.58,-90.51 1133.38,-93.53 1140,-96 1142.29,-96.86 1144.66,-97.67 1147.06,-98.45"/>
<polygon fill="#3363bb" stroke="#3363bb" stroke-width="2" points="1146.66,-102.56 1157.24,-102 1148.62,-95.84 1146.66,-102.56"/>
</a>
</g>
</g>
<!-- set_marker_node_Set(60) -->
<!-- set_marker_node_Set(11)&#45;&gt;set_marker_node_Set(60) -->
<g id="edge14" class="edge">
<title>set_marker_node_Set(11)&#45;&gt;set_marker_node_Set(60)</title>
<g id="a_edge14"><a xlink:title="PostUpdate → AssetEvents">
<path fill="none" stroke="#00b0cc" stroke-width="2" d="M1120,-63C1126.82,-63 1133.97,-63 1141.07,-63"/>
<polygon fill="#00b0cc" stroke="#00b0cc" stroke-width="2" points="1141,-66.5 1151,-63 1141,-59.5 1141,-66.5"/>
</a>
</g>
</g>
<!-- set_marker_node_Set(12)&#45;&gt;set_marker_node_Set(6) -->
<g id="edge11" class="edge">
<title>set_marker_node_Set(12)&#45;&gt;set_marker_node_Set(6)</title>
<g id="a_edge11"><a xlink:title="Last → LastFlush">
<path fill="none" stroke="#99d955" stroke-width="2" d="M1323,-86C1325.33,-86 1327.78,-86 1330.29,-86"/>
<polygon fill="#99d955" stroke="#99d955" stroke-width="2" points="1330,-89.5 1340,-86 1330,-82.5 1330,-89.5"/>
</a>
</g>
</g>
<!-- set_marker_node_Set(59)&#45;&gt;set_marker_node_Set(8) -->
<g id="edge12" class="edge">
<title>set_marker_node_Set(59)&#45;&gt;set_marker_node_Set(8)</title>
<g id="a_edge12"><a xlink:title="LoadAssets → PreUpdate">
<path fill="none" stroke="#eede00" stroke-width="2" d="M232,-35.81C242.09,-40.46 252.61,-45.31 261.92,-49.6"/>
<polygon fill="#eede00" stroke="#eede00" stroke-width="2" points="261.1,-53 271.64,-54 264.03,-46.64 261.1,-53"/>
</a>
</g>
</g>
<!-- set_marker_node_Set(60)&#45;&gt;set_marker_node_Set(12) -->
<g id="edge15" class="edge">
<title>set_marker_node_Set(60)&#45;&gt;set_marker_node_Set(12)</title>
<g id="a_edge15"><a xlink:title="AssetEvents → Last">
<path fill="none" stroke="#aa3a55" stroke-width="2" d="M1246,-73.45C1253.22,-75.13 1260.58,-76.84 1267.44,-78.43"/>
<polygon fill="#aa3a55" stroke="#aa3a55" stroke-width="2" points="1267.47,-82.5 1278,-81.35 1269.05,-75.68 1267.47,-82.5"/>
</a>
</g>
</g>
</g>
</svg>
