<?xml version="1.0" encoding="UTF-8" standalone="no"?>
<!DOCTYPE svg PUBLIC "-//W3C//DTD SVG 1.1//EN"
 "http://www.w3.org/Graphics/SVG/1.1/DTD/svg11.dtd">
<!-- Generated by graphviz version 7.1.0 (0)
 -->
<!-- Pages: 1 -->
<svg width="2203pt" height="2413pt"
 viewBox="0.00 0.00 2203.00 2413.00" xmlns="http://www.w3.org/2000/svg" xmlns:xlink="http://www.w3.org/1999/xlink">
<g id="graph0" class="graph" transform="scale(1 1) rotate(0) translate(4 2409)">
<polygon fill="#0d1117" stroke="none" points="-4,4 -4,-2409 2199,-2409 2199,4 -4,4"/>
<g id="clust1" class="cluster">
<title>clusternode_Set(0)</title>
<g id="a_clust1"><a xlink:title="Update">
<path fill="#ffffff" fill-opacity="0.266667" stroke="#ffffff" stroke-width="2" stroke-opacity="0.313725" d="M1290,-2170C1290,-2170 1331,-2170 1331,-2170 1337,-2170 1343,-2176 1343,-2182 1343,-2182 1343,-2197 1343,-2197 1343,-2203 1337,-2209 1331,-2209 1331,-2209 1290,-2209 1290,-2209 1284,-2209 1278,-2203 1278,-2197 1278,-2197 1278,-2182 1278,-2182 1278,-2176 1284,-2170 1290,-2170"/>
<text text-anchor="middle" x="1310.5" y="-2193.8" font-family="Helvetica,sans-Serif" font-size="14.00">Update</text>
</a>
</g>
</g>
<g id="clust2" class="cluster">
<title>clusternode_Set(2)</title>
<g id="a_clust2"><a xlink:title="FirstFlush">
<path fill="#ffffff" fill-opacity="0.266667" stroke="#ffffff" stroke-width="2" stroke-opacity="0.313725" d="M529,-2170C529,-2170 680,-2170 680,-2170 686,-2170 692,-2176 692,-2182 692,-2182 692,-2244 692,-2244 692,-2250 686,-2256 680,-2256 680,-2256 529,-2256 529,-2256 523,-2256 517,-2250 517,-2244 517,-2244 517,-2182 517,-2182 517,-2176 523,-2170 529,-2170"/>
<text text-anchor="middle" x="604.5" y="-2240.8" font-family="Helvetica,sans-Serif" font-size="14.00">FirstFlush</text>
</a>
</g>
</g>
<g id="clust3" class="cluster">
<title>clusternode_Set(3)</title>
<g id="a_clust3"><a xlink:title="PreUpdateFlush">
<path fill="#ffffff" fill-opacity="0.266667" stroke="#ffffff" stroke-width="2" stroke-opacity="0.313725" d="M831,-2123C831,-2123 982,-2123 982,-2123 988,-2123 994,-2129 994,-2135 994,-2135 994,-2197 994,-2197 994,-2203 988,-2209 982,-2209 982,-2209 831,-2209 831,-2209 825,-2209 819,-2203 819,-2197 819,-2197 819,-2135 819,-2135 819,-2129 825,-2123 831,-2123"/>
<text text-anchor="middle" x="906.5" y="-2193.8" font-family="Helvetica,sans-Serif" font-size="14.00">PreUpdateFlush</text>
</a>
</g>
</g>
<g id="clust4" class="cluster">
<title>clusternode_Set(4)</title>
<g id="a_clust4"><a xlink:title="UpdateFlush">
<path fill="#ffffff" fill-opacity="0.266667" stroke="#ffffff" stroke-width="2" stroke-opacity="0.313725" d="M1375,-2123C1375,-2123 1526,-2123 1526,-2123 1532,-2123 1538,-2129 1538,-2135 1538,-2135 1538,-2197 1538,-2197 1538,-2203 1532,-2209 1526,-2209 1526,-2209 1375,-2209 1375,-2209 1369,-2209 1363,-2203 1363,-2197 1363,-2197 1363,-2135 1363,-2135 1363,-2129 1369,-2123 1375,-2123"/>
<text text-anchor="middle" x="1450.5" y="-2193.8" font-family="Helvetica,sans-Serif" font-size="14.00">UpdateFlush</text>
</a>
</g>
</g>
<g id="clust5" class="cluster">
<title>clusternode_Set(5)</title>
<g id="a_clust5"><a xlink:title="PostUpdateFlush">
<path fill="#ffffff" fill-opacity="0.266667" stroke="#ffffff" stroke-width="2" stroke-opacity="0.313725" d="M1765,-2170C1765,-2170 1916,-2170 1916,-2170 1922,-2170 1928,-2176 1928,-2182 1928,-2182 1928,-2244 1928,-2244 1928,-2250 1922,-2256 1916,-2256 1916,-2256 1765,-2256 1765,-2256 1759,-2256 1753,-2250 1753,-2244 1753,-2244 1753,-2182 1753,-2182 1753,-2176 1759,-2170 1765,-2170"/>
<text text-anchor="middle" x="1840.5" y="-2240.8" font-family="Helvetica,sans-Serif" font-size="14.00">PostUpdateFlush</text>
</a>
</g>
</g>
<g id="clust6" class="cluster">
<title>clusternode_Set(6)</title>
<g id="a_clust6"><a xlink:title="LastFlush">
<path fill="#ffffff" fill-opacity="0.266667" stroke="#ffffff" stroke-width="2" stroke-opacity="0.313725" d="M2024,-2123C2024,-2123 2175,-2123 2175,-2123 2181,-2123 2187,-2129 2187,-2135 2187,-2135 2187,-2197 2187,-2197 2187,-2203 2181,-2209 2175,-2209 2175,-2209 2024,-2209 2024,-2209 2018,-2209 2012,-2203 2012,-2197 2012,-2197 2012,-2135 2012,-2135 2012,-2129 2018,-2123 2024,-2123"/>
<text text-anchor="middle" x="2099.5" y="-2193.8" font-family="Helvetica,sans-Serif" font-size="14.00">LastFlush</text>
</a>
</g>
</g>
<g id="clust7" class="cluster">
<title>clusternode_Set(7)</title>
<g id="a_clust7"><a xlink:title="First">
<path fill="#ffffff" fill-opacity="0.266667" stroke="#ffffff" stroke-width="2" stroke-opacity="0.313725" d="M20,-8C20,-8 485,-8 485,-8 491,-8 497,-14 497,-20 497,-20 497,-2197 497,-2197 497,-2203 491,-2209 485,-2209 485,-2209 20,-2209 20,-2209 14,-2209 8,-2203 8,-2197 8,-2197 8,-20 8,-20 8,-14 14,-8 20,-8"/>
<text text-anchor="middle" x="252.5" y="-2193.8" font-family="Helvetica,sans-Serif" font-size="14.00">First</text>
</a>
</g>
</g>
<g id="clust8" class="cluster">
<title>clusternode_Set(8)</title>
<g id="a_clust8"><a xlink:title="PreUpdate">
<path fill="#ffffff" fill-opacity="0.266667" stroke="#ffffff" stroke-width="2" stroke-opacity="0.313725" d="M724,-2170C724,-2170 787,-2170 787,-2170 793,-2170 799,-2176 799,-2182 799,-2182 799,-2197 799,-2197 799,-2203 793,-2209 787,-2209 787,-2209 724,-2209 724,-2209 718,-2209 712,-2203 712,-2197 712,-2197 712,-2182 712,-2182 712,-2176 718,-2170 724,-2170"/>
<text text-anchor="middle" x="755.5" y="-2193.8" font-family="Helvetica,sans-Serif" font-size="14.00">PreUpdate</text>
</a>
</g>
</g>
<g id="clust9" class="cluster">
<title>clusternode_Set(9)</title>
<g id="a_clust9"><a xlink:title="StateTransitions">
<path fill="#ffffff" fill-opacity="0.266667" stroke="#ffffff" stroke-width="2" stroke-opacity="0.313725" d="M1026,-2170C1026,-2170 1126,-2170 1126,-2170 1132,-2170 1138,-2176 1138,-2182 1138,-2182 1138,-2197 1138,-2197 1138,-2203 1132,-2209 1126,-2209 1126,-2209 1026,-2209 1026,-2209 1020,-2209 1014,-2203 1014,-2197 1014,-2197 1014,-2182 1014,-2182 1014,-2176 1020,-2170 1026,-2170"/>
<text text-anchor="middle" x="1076" y="-2193.8" font-family="Helvetica,sans-Serif" font-size="14.00">StateTransitions</text>
</a>
</g>
</g>
<g id="clust10" class="cluster">
<title>clusternode_Set(10)</title>
<g id="a_clust10"><a xlink:title="FixedUpdate">
<path fill="#ffffff" fill-opacity="0.266667" stroke="#ffffff" stroke-width="2" stroke-opacity="0.313725" d="M1170,-2170C1170,-2170 1246,-2170 1246,-2170 1252,-2170 1258,-2176 1258,-2182 1258,-2182 1258,-2197 1258,-2197 1258,-2203 1252,-2209 1246,-2209 1246,-2209 1170,-2209 1170,-2209 1164,-2209 1158,-2203 1158,-2197 1158,-2197 1158,-2182 1158,-2182 1158,-2176 1164,-2170 1170,-2170"/>
<text text-anchor="middle" x="1208" y="-2193.8" font-family="Helvetica,sans-Serif" font-size="14.00">FixedUpdate</text>
</a>
</g>
</g>
<g id="clust11" class="cluster">
<title>clusternode_Set(11)</title>
<g id="a_clust11"><a xlink:title="PostUpdate">
<path fill="#ffffff" fill-opacity="0.266667" stroke="#ffffff" stroke-width="2" stroke-opacity="0.313725" d="M1562,-2170C1562,-2170 1729,-2170 1729,-2170 1735,-2170 1741,-2176 1741,-2182 1741,-2182 1741,-2385 1741,-2385 1741,-2391 1735,-2397 1729,-2397 1729,-2397 1562,-2397 1562,-2397 1556,-2397 1550,-2391 1550,-2385 1550,-2385 1550,-2182 1550,-2182 1550,-2176 1556,-2170 1562,-2170"/>
<text text-anchor="middle" x="1645.5" y="-2381.8" font-family="Helvetica,sans-Serif" font-size="14.00">PostUpdate</text>
</a>
</g>
</g>
<g id="clust12" class="cluster">
<title>clusternode_Set(87)</title>
<g id="a_clust12"><a xlink:title="CalculateBoundsFlush">
<path fill="#ffffff" fill-opacity="0.266667" stroke="#ffffff" stroke-width="2" stroke-opacity="0.313725" d="M1570,-2280C1570,-2280 1721,-2280 1721,-2280 1727,-2280 1733,-2286 1733,-2292 1733,-2292 1733,-2354 1733,-2354 1733,-2360 1727,-2366 1721,-2366 1721,-2366 1570,-2366 1570,-2366 1564,-2366 1558,-2360 1558,-2354 1558,-2354 1558,-2292 1558,-2292 1558,-2286 1564,-2280 1570,-2280"/>
<text text-anchor="middle" x="1645.5" y="-2350.8" font-family="Helvetica,sans-Serif" font-size="14.00">CalculateBoundsFlush</text>
</a>
</g>
</g>
<g id="clust13" class="cluster">
<title>clusternode_Set(138)</title>
<g id="a_clust13"><a xlink:title="AddClustersFlush">
<path fill="#ffffff" fill-opacity="0.266667" stroke="#ffffff" stroke-width="2" stroke-opacity="0.313725" d="M1570,-2186C1570,-2186 1721,-2186 1721,-2186 1727,-2186 1733,-2192 1733,-2198 1733,-2198 1733,-2260 1733,-2260 1733,-2266 1727,-2272 1721,-2272 1721,-2272 1570,-2272 1570,-2272 1564,-2272 1558,-2266 1558,-2260 1558,-2260 1558,-2198 1558,-2198 1558,-2192 1564,-2186 1570,-2186"/>
<text text-anchor="middle" x="1645.5" y="-2256.8" font-family="Helvetica,sans-Serif" font-size="14.00">AddClustersFlush</text>
</a>
</g>
</g>
<g id="clust14" class="cluster">
<title>clusternode_Set(12)</title>
<g id="a_clust14"><a xlink:title="Last">
<path fill="#ffffff" fill-opacity="0.266667" stroke="#ffffff" stroke-width="2" stroke-opacity="0.313725" d="M1960,-2170C1960,-2170 1980,-2170 1980,-2170 1986,-2170 1992,-2176 1992,-2182 1992,-2182 1992,-2197 1992,-2197 1992,-2203 1986,-2209 1980,-2209 1980,-2209 1960,-2209 1960,-2209 1954,-2209 1948,-2203 1948,-2197 1948,-2197 1948,-2182 1948,-2182 1948,-2176 1954,-2170 1960,-2170"/>
<text text-anchor="middle" x="1970" y="-2193.8" font-family="Helvetica,sans-Serif" font-size="14.00">Last</text>
</a>
</g>
</g>
<g id="clust15" class="cluster">
<title>clusternode_Set(59)</title>
<g id="a_clust15"><a xlink:title="LoadAssets">
<path fill="#ffffff" fill-opacity="0.266667" stroke="#ffffff" stroke-width="2" stroke-opacity="0.313725" d="M571.5,-2123C571.5,-2123 638.5,-2123 638.5,-2123 644.5,-2123 650.5,-2129 650.5,-2135 650.5,-2135 650.5,-2150 650.5,-2150 650.5,-2156 644.5,-2162 638.5,-2162 638.5,-2162 571.5,-2162 571.5,-2162 565.5,-2162 559.5,-2156 559.5,-2150 559.5,-2150 559.5,-2135 559.5,-2135 559.5,-2129 565.5,-2123 571.5,-2123"/>
<text text-anchor="middle" x="605" y="-2146.8" font-family="Helvetica,sans-Serif" font-size="14.00">LoadAssets</text>
</a>
</g>
</g>
<g id="clust16" class="cluster">
<title>clusternode_Set(60)</title>
<g id="a_clust16"><a xlink:title="AssetEvents">
<path fill="#ffffff" fill-opacity="0.266667" stroke="#ffffff" stroke-width="2" stroke-opacity="0.313725" d="M1804.5,-2123C1804.5,-2123 1876.5,-2123 1876.5,-2123 1882.5,-2123 1888.5,-2129 1888.5,-2135 1888.5,-2135 1888.5,-2150 1888.5,-2150 1888.5,-2156 1882.5,-2162 1876.5,-2162 1876.5,-2162 1804.5,-2162 1804.5,-2162 1798.5,-2162 1792.5,-2156 1792.5,-2150 1792.5,-2150 1792.5,-2135 1792.5,-2135 1792.5,-2129 1798.5,-2123 1804.5,-2123"/>
<text text-anchor="middle" x="1840.5" y="-2146.8" font-family="Helvetica,sans-Serif" font-size="14.00">AssetEvents</text>
</a>
</g>
</g>
<!-- set_marker_node_Set(0) -->
<!-- set_marker_node_Set(4) -->
<!-- set_marker_node_Set(0)&#45;&gt;set_marker_node_Set(4) -->
<g id="edge7" class="edge">
<title>set_marker_node_Set(0)&#45;&gt;set_marker_node_Set(4)</title>
<g id="a_edge7"><a xlink:title="Update → UpdateFlush">
<path fill="none" stroke="#ee9e44" stroke-width="2" d="M1343,-2178C1345.3,-2178 1347.67,-2178 1350.11,-2178"/>
<polygon fill="#ee9e44" stroke="#ee9e44" stroke-width="2" points="1349.98,-2181.5 1359.98,-2178 1349.98,-2174.5 1349.98,-2181.5"/>
</a>
</g>
</g>
<!-- set_marker_node_Set(2) -->
<!-- set_marker_node_Set(8) -->
<!-- set_marker_node_Set(2)&#45;&gt;set_marker_node_Set(8) -->
<g id="edge2" class="edge">
<title>set_marker_node_Set(2)&#45;&gt;set_marker_node_Set(8)</title>
<g id="a_edge2"><a xlink:title="FirstFlush → PreUpdate">
<path fill="none" stroke="#881877" stroke-width="2" d="M692,-2220C695.92,-2218.67 699.83,-2217.02 703.66,-2215.16"/>
<polygon fill="#881877" stroke="#881877" stroke-width="2" points="705.14,-2218.34 712.23,-2210.46 701.77,-2212.2 705.14,-2218.34"/>
</a>
</g>
</g>
<!-- node_System(0) -->
<g id="node3" class="node">
<title>node_System(0)</title>
<g id="a_node3"><a xlink:title="bevy_ecs::schedule::executor::apply_system_buffers">
<polygon fill="#e70000" stroke="#5a0000" stroke-width="2" points="684,-2214 525,-2214 525,-2178 684,-2178 684,-2214"/>
<text text-anchor="middle" x="604.5" y="-2192.3" font-family="Helvetica,sans-Serif" font-size="14.00" fill="#ffffff">apply_system_buffers</text>
</a>
</g>
</g>
<!-- set_marker_node_Set(3) -->
<!-- set_marker_node_Set(9) -->
<!-- set_marker_node_Set(3)&#45;&gt;set_marker_node_Set(9) -->
<g id="edge4" class="edge">
<title>set_marker_node_Set(3)&#45;&gt;set_marker_node_Set(9)</title>
<g id="a_edge4"><a xlink:title="PreUpdateFlush → StateTransitions">
<path fill="none" stroke="#aa3a55" stroke-width="2" d="M994,-2178C996.42,-2178 998.83,-2178 1001.24,-2178"/>
<polygon fill="#aa3a55" stroke="#aa3a55" stroke-width="2" points="1000.98,-2181.5 1010.98,-2178 1000.98,-2174.5 1000.98,-2181.5"/>
</a>
</g>
</g>
<!-- node_System(1) -->
<g id="node5" class="node">
<title>node_System(1)</title>
<g id="a_node5"><a xlink:title="bevy_ecs::schedule::executor::apply_system_buffers">
<polygon fill="#e70000" stroke="#5a0000" stroke-width="2" points="986,-2167 827,-2167 827,-2131 986,-2131 986,-2167"/>
<text text-anchor="middle" x="906.5" y="-2145.3" font-family="Helvetica,sans-Serif" font-size="14.00" fill="#ffffff">apply_system_buffers</text>
</a>
</g>
</g>
<!-- set_marker_node_Set(11) -->
<!-- set_marker_node_Set(4)&#45;&gt;set_marker_node_Set(11) -->
<g id="edge8" class="edge">
<title>set_marker_node_Set(4)&#45;&gt;set_marker_node_Set(11)</title>
<g id="a_edge8"><a xlink:title="UpdateFlush → PostUpdate">
<path fill="none" stroke="#663699" stroke-width="2" d="M1538,-2178C1541,-2178 1544,-2178 1547,-2178"/>
<polygon fill="#663699" stroke="#663699" stroke-width="2" points="1536.98,-2181.5 1546.98,-2178 1536.98,-2174.5 1536.98,-2181.5"/>
</a>
</g>
</g>
<!-- node_System(2) -->
<g id="node7" class="node">
<title>node_System(2)</title>
<g id="a_node7"><a xlink:title="bevy_ecs::schedule::executor::apply_system_buffers">
<polygon fill="#e70000" stroke="#5a0000" stroke-width="2" points="1530,-2167 1371,-2167 1371,-2131 1530,-2131 1530,-2167"/>
<text text-anchor="middle" x="1450.5" y="-2145.3" font-family="Helvetica,sans-Serif" font-size="14.00" fill="#ffffff">apply_system_buffers</text>
</a>
</g>
</g>
<!-- set_marker_node_Set(5) -->
<!-- set_marker_node_Set(12) -->
<!-- set_marker_node_Set(5)&#45;&gt;set_marker_node_Set(12) -->
<g id="edge10" class="edge">
<title>set_marker_node_Set(5)&#45;&gt;set_marker_node_Set(12)</title>
<g id="a_edge10"><a xlink:title="PostUpdateFlush → Last">
<path fill="none" stroke="#22c2bb" stroke-width="2" d="M1928,-2220C1931.59,-2218.36 1935.03,-2216.26 1938.28,-2213.88"/>
<polygon fill="#22c2bb" stroke="#22c2bb" stroke-width="2" points="1940.43,-2216.65 1945.71,-2207.47 1935.85,-2211.35 1940.43,-2216.65"/>
</a>
</g>
</g>
<!-- node_System(3) -->
<g id="node9" class="node">
<title>node_System(3)</title>
<g id="a_node9"><a xlink:title="bevy_ecs::schedule::executor::apply_system_buffers">
<polygon fill="#e70000" stroke="#5a0000" stroke-width="2" points="1920,-2214 1761,-2214 1761,-2178 1920,-2178 1920,-2214"/>
<text text-anchor="middle" x="1840.5" y="-2192.3" font-family="Helvetica,sans-Serif" font-size="14.00" fill="#ffffff">apply_system_buffers</text>
</a>
</g>
</g>
<!-- set_marker_node_Set(6) -->
<!-- node_System(4) -->
<g id="node11" class="node">
<title>node_System(4)</title>
<g id="a_node11"><a xlink:title="bevy_ecs::schedule::executor::apply_system_buffers">
<polygon fill="#e70000" stroke="#5a0000" stroke-width="2" points="2179,-2167 2020,-2167 2020,-2131 2179,-2131 2179,-2167"/>
<text text-anchor="middle" x="2099.5" y="-2145.3" font-family="Helvetica,sans-Serif" font-size="14.00" fill="#ffffff">apply_system_buffers</text>
</a>
</g>
</g>
<!-- set_marker_node_Set(7) -->
<!-- set_marker_node_Set(7)&#45;&gt;set_marker_node_Set(2) -->
<g id="edge1" class="edge">
<title>set_marker_node_Set(7)&#45;&gt;set_marker_node_Set(2)</title>
<g id="a_edge1"><a xlink:title="First → FirstFlush">
<path fill="none" stroke="#eede00" stroke-width="2" d="M432.46,-2209C456.37,-2212.53 480.76,-2215.84 504.32,-2218.58"/>
<polygon fill="#eede00" stroke="#eede00" stroke-width="2" points="503.66,-2222.02 513.99,-2219.66 504.44,-2215.07 503.66,-2222.02"/>
</a>
</g>
</g>
<!-- set_marker_node_Set(59) -->
<!-- set_marker_node_Set(7)&#45;&gt;set_marker_node_Set(59) -->
<g id="edge13" class="edge">
<title>set_marker_node_Set(7)&#45;&gt;set_marker_node_Set(59)</title>
<g id="a_edge13"><a xlink:title="First → LoadAssets">
<path fill="none" stroke="#881877" stroke-width="2" d="M497,-2173C513.93,-2169.6 531.63,-2163.67 547.64,-2157.32"/>
<polygon fill="#881877" stroke="#881877" stroke-width="2" points="548.8,-2160.63 556.7,-2153.58 546.12,-2154.16 548.8,-2160.63"/>
</a>
</g>
</g>
<!-- node_System(5) -->
<g id="node13" class="node">
<title>node_System(5)</title>
<g id="a_node13"><a xlink:title="bevy_ecs::event::Events&lt;bevy_app::app::AppExit&gt;::update_system">
<polygon fill="#639d18" stroke="#98e03a" points="365.5,-2167 139.5,-2167 139.5,-2131 365.5,-2131 365.5,-2167"/>
<text text-anchor="middle" x="252.5" y="-2145.3" font-family="Helvetica,sans-Serif" font-size="14.00" fill="#e7f8d2">Events&lt;AppExit&gt;update_system</text>
</a>
</g>
</g>
<!-- node_System(13) -->
<g id="node14" class="node">
<title>node_System(13)</title>
<g id="a_node14"><a xlink:title="bevy_ecs::event::Events&lt;bevy_hierarchy::events::HierarchyEvent&gt;::update_system">
<polygon fill="#e4fba3" stroke="#c7f641" points="391.5,-2120 113.5,-2120 113.5,-2084 391.5,-2084 391.5,-2120"/>
<text text-anchor="middle" x="252.5" y="-2098.3" font-family="Helvetica,sans-Serif" font-size="14.00" fill="#243002">Events&lt;HierarchyEvent&gt;update_system</text>
</a>
</g>
</g>
<!-- node_System(14) -->
<g id="node15" class="node">
<title>node_System(14)</title>
<g id="a_node15"><a xlink:title="bevy_ecs::event::Events&lt;bevy_input::keyboard::KeyboardInput&gt;::update_system">
<polygon fill="#d36aaf" stroke="#a5317d" points="390,-2073 115,-2073 115,-2037 390,-2037 390,-2073"/>
<text text-anchor="middle" x="252.5" y="-2051.3" font-family="Helvetica,sans-Serif" font-size="14.00" fill="#270b1d">Events&lt;KeyboardInput&gt;update_system</text>
</a>
</g>
</g>
<!-- node_System(16) -->
<g id="node16" class="node">
<title>node_System(16)</title>
<g id="a_node16"><a xlink:title="bevy_ecs::event::Events&lt;bevy_input::mouse::MouseButtonInput&gt;::update_system">
<polygon fill="#d36aaf" stroke="#a5317d" points="404,-2026 101,-2026 101,-1990 404,-1990 404,-2026"/>
<text text-anchor="middle" x="252.5" y="-2004.3" font-family="Helvetica,sans-Serif" font-size="14.00" fill="#270b1d">Events&lt;MouseButtonInput&gt;update_system</text>
</a>
</g>
</g>
<!-- node_System(17) -->
<g id="node17" class="node">
<title>node_System(17)</title>
<g id="a_node17"><a xlink:title="bevy_ecs::event::Events&lt;bevy_input::mouse::MouseMotion&gt;::update_system">
<polygon fill="#d36aaf" stroke="#a5317d" points="387,-1979 118,-1979 118,-1943 387,-1943 387,-1979"/>
<text text-anchor="middle" x="252.5" y="-1957.3" font-family="Helvetica,sans-Serif" font-size="14.00" fill="#270b1d">Events&lt;MouseMotion&gt;update_system</text>
</a>
</g>
</g>
<!-- node_System(18) -->
<g id="node18" class="node">
<title>node_System(18)</title>
<g id="a_node18"><a xlink:title="bevy_ecs::event::Events&lt;bevy_input::mouse::MouseWheel&gt;::update_system">
<polygon fill="#d36aaf" stroke="#a5317d" points="384,-1932 121,-1932 121,-1896 384,-1896 384,-1932"/>
<text text-anchor="middle" x="252.5" y="-1910.3" font-family="Helvetica,sans-Serif" font-size="14.00" fill="#270b1d">Events&lt;MouseWheel&gt;update_system</text>
</a>
</g>
</g>
<!-- node_System(20) -->
<g id="node19" class="node">
<title>node_System(20)</title>
<g id="a_node19"><a xlink:title="bevy_ecs::event::Events&lt;bevy_input::gamepad::GamepadConnectionEvent&gt;::update_system">
<polygon fill="#d36aaf" stroke="#a5317d" points="429,-1885 76,-1885 76,-1849 429,-1849 429,-1885"/>
<text text-anchor="middle" x="252.5" y="-1863.3" font-family="Helvetica,sans-Serif" font-size="14.00" fill="#270b1d">Events&lt;GamepadConnectionEvent&gt;update_system</text>
</a>
</g>
</g>
<!-- node_System(21) -->
<g id="node20" class="node">
<title>node_System(21)</title>
<g id="a_node20"><a xlink:title="bevy_ecs::event::Events&lt;bevy_input::gamepad::GamepadButtonChangedEvent&gt;::update_system">
<polygon fill="#d36aaf" stroke="#a5317d" points="443,-1838 62,-1838 62,-1802 443,-1802 443,-1838"/>
<text text-anchor="middle" x="252.5" y="-1816.3" font-family="Helvetica,sans-Serif" font-size="14.00" fill="#270b1d">Events&lt;GamepadButtonChangedEvent&gt;update_system</text>
</a>
</g>
</g>
<!-- node_System(22) -->
<g id="node21" class="node">
<title>node_System(22)</title>
<g id="a_node21"><a xlink:title="bevy_ecs::event::Events&lt;bevy_input::gamepad::GamepadAxisChangedEvent&gt;::update_system">
<polygon fill="#d36aaf" stroke="#a5317d" points="433.5,-1791 71.5,-1791 71.5,-1755 433.5,-1755 433.5,-1791"/>
<text text-anchor="middle" x="252.5" y="-1769.3" font-family="Helvetica,sans-Serif" font-size="14.00" fill="#270b1d">Events&lt;GamepadAxisChangedEvent&gt;update_system</text>
</a>
</g>
</g>
<!-- node_System(23) -->
<g id="node22" class="node">
<title>node_System(23)</title>
<g id="a_node22"><a xlink:title="bevy_ecs::event::Events&lt;bevy_input::gamepad::GamepadEvent&gt;::update_system">
<polygon fill="#d36aaf" stroke="#a5317d" points="390.5,-1744 114.5,-1744 114.5,-1708 390.5,-1708 390.5,-1744"/>
<text text-anchor="middle" x="252.5" y="-1722.3" font-family="Helvetica,sans-Serif" font-size="14.00" fill="#270b1d">Events&lt;GamepadEvent&gt;update_system</text>
</a>
</g>
</g>
<!-- node_System(28) -->
<g id="node23" class="node">
<title>node_System(28)</title>
<g id="a_node23"><a xlink:title="bevy_ecs::event::Events&lt;bevy_input::touch::TouchInput&gt;::update_system">
<polygon fill="#d36aaf" stroke="#a5317d" points="379,-1697 126,-1697 126,-1661 379,-1661 379,-1697"/>
<text text-anchor="middle" x="252.5" y="-1675.3" font-family="Helvetica,sans-Serif" font-size="14.00" fill="#270b1d">Events&lt;TouchInput&gt;update_system</text>
</a>
</g>
</g>
<!-- node_System(30) -->
<g id="node24" class="node">
<title>node_System(30)</title>
<g id="a_node24"><a xlink:title="bevy_ecs::event::Events&lt;bevy_window::event::WindowResized&gt;::update_system">
<polygon fill="#bb85d4" stroke="#8e3fb3" points="393,-1650 112,-1650 112,-1614 393,-1614 393,-1650"/>
<text text-anchor="middle" x="252.5" y="-1628.3" font-family="Helvetica,sans-Serif" font-size="14.00" fill="#1d0d25">Events&lt;WindowResized&gt;update_system</text>
</a>
</g>
</g>
<!-- node_System(31) -->
<g id="node25" class="node">
<title>node_System(31)</title>
<g id="a_node25"><a xlink:title="bevy_ecs::event::Events&lt;bevy_window::event::WindowCreated&gt;::update_system">
<polygon fill="#bb85d4" stroke="#8e3fb3" points="393.5,-1603 111.5,-1603 111.5,-1567 393.5,-1567 393.5,-1603"/>
<text text-anchor="middle" x="252.5" y="-1581.3" font-family="Helvetica,sans-Serif" font-size="14.00" fill="#1d0d25">Events&lt;WindowCreated&gt;update_system</text>
</a>
</g>
</g>
<!-- node_System(32) -->
<g id="node26" class="node">
<title>node_System(32)</title>
<g id="a_node26"><a xlink:title="bevy_ecs::event::Events&lt;bevy_window::event::WindowClosed&gt;::update_system">
<polygon fill="#bb85d4" stroke="#8e3fb3" points="389.5,-1556 115.5,-1556 115.5,-1520 389.5,-1520 389.5,-1556"/>
<text text-anchor="middle" x="252.5" y="-1534.3" font-family="Helvetica,sans-Serif" font-size="14.00" fill="#1d0d25">Events&lt;WindowClosed&gt;update_system</text>
</a>
</g>
</g>
<!-- node_System(33) -->
<g id="node27" class="node">
<title>node_System(33)</title>
<g id="a_node27"><a xlink:title="bevy_ecs::event::Events&lt;bevy_window::event::WindowCloseRequested&gt;::update_system">
<polygon fill="#bb85d4" stroke="#8e3fb3" points="421,-1509 84,-1509 84,-1473 421,-1473 421,-1509"/>
<text text-anchor="middle" x="252.5" y="-1487.3" font-family="Helvetica,sans-Serif" font-size="14.00" fill="#1d0d25">Events&lt;WindowCloseRequested&gt;update_system</text>
</a>
</g>
</g>
<!-- node_System(34) -->
<g id="node28" class="node">
<title>node_System(34)</title>
<g id="a_node28"><a xlink:title="bevy_ecs::event::Events&lt;bevy_window::event::RequestRedraw&gt;::update_system">
<polygon fill="#bb85d4" stroke="#8e3fb3" points="393,-1462 112,-1462 112,-1426 393,-1426 393,-1462"/>
<text text-anchor="middle" x="252.5" y="-1440.3" font-family="Helvetica,sans-Serif" font-size="14.00" fill="#1d0d25">Events&lt;RequestRedraw&gt;update_system</text>
</a>
</g>
</g>
<!-- node_System(35) -->
<g id="node29" class="node">
<title>node_System(35)</title>
<g id="a_node29"><a xlink:title="bevy_ecs::event::Events&lt;bevy_window::event::CursorMoved&gt;::update_system">
<polygon fill="#bb85d4" stroke="#8e3fb3" points="385.5,-1415 119.5,-1415 119.5,-1379 385.5,-1379 385.5,-1415"/>
<text text-anchor="middle" x="252.5" y="-1393.3" font-family="Helvetica,sans-Serif" font-size="14.00" fill="#1d0d25">Events&lt;CursorMoved&gt;update_system</text>
</a>
</g>
</g>
<!-- node_System(36) -->
<g id="node30" class="node">
<title>node_System(36)</title>
<g id="a_node30"><a xlink:title="bevy_ecs::event::Events&lt;bevy_window::event::CursorEntered&gt;::update_system">
<polygon fill="#bb85d4" stroke="#8e3fb3" points="389.5,-1368 115.5,-1368 115.5,-1332 389.5,-1332 389.5,-1368"/>
<text text-anchor="middle" x="252.5" y="-1346.3" font-family="Helvetica,sans-Serif" font-size="14.00" fill="#1d0d25">Events&lt;CursorEntered&gt;update_system</text>
</a>
</g>
</g>
<!-- node_System(37) -->
<g id="node31" class="node">
<title>node_System(37)</title>
<g id="a_node31"><a xlink:title="bevy_ecs::event::Events&lt;bevy_window::event::CursorLeft&gt;::update_system">
<polygon fill="#bb85d4" stroke="#8e3fb3" points="376,-1321 129,-1321 129,-1285 376,-1285 376,-1321"/>
<text text-anchor="middle" x="252.5" y="-1299.3" font-family="Helvetica,sans-Serif" font-size="14.00" fill="#1d0d25">Events&lt;CursorLeft&gt;update_system</text>
</a>
</g>
</g>
<!-- node_System(38) -->
<g id="node32" class="node">
<title>node_System(38)</title>
<g id="a_node32"><a xlink:title="bevy_ecs::event::Events&lt;bevy_window::event::ReceivedCharacter&gt;::update_system">
<polygon fill="#bb85d4" stroke="#8e3fb3" points="403,-1274 102,-1274 102,-1238 403,-1238 403,-1274"/>
<text text-anchor="middle" x="252.5" y="-1252.3" font-family="Helvetica,sans-Serif" font-size="14.00" fill="#1d0d25">Events&lt;ReceivedCharacter&gt;update_system</text>
</a>
</g>
</g>
<!-- node_System(39) -->
<g id="node33" class="node">
<title>node_System(39)</title>
<g id="a_node33"><a xlink:title="bevy_ecs::event::Events&lt;bevy_window::event::Ime&gt;::update_system">
<polygon fill="#bb85d4" stroke="#8e3fb3" points="353.5,-1227 151.5,-1227 151.5,-1191 353.5,-1191 353.5,-1227"/>
<text text-anchor="middle" x="252.5" y="-1205.3" font-family="Helvetica,sans-Serif" font-size="14.00" fill="#1d0d25">Events&lt;Ime&gt;update_system</text>
</a>
</g>
</g>
<!-- node_System(40) -->
<g id="node34" class="node">
<title>node_System(40)</title>
<g id="a_node34"><a xlink:title="bevy_ecs::event::Events&lt;bevy_window::event::WindowFocused&gt;::update_system">
<polygon fill="#bb85d4" stroke="#8e3fb3" points="394.5,-1180 110.5,-1180 110.5,-1144 394.5,-1144 394.5,-1180"/>
<text text-anchor="middle" x="252.5" y="-1158.3" font-family="Helvetica,sans-Serif" font-size="14.00" fill="#1d0d25">Events&lt;WindowFocused&gt;update_system</text>
</a>
</g>
</g>
<!-- node_System(41) -->
<g id="node35" class="node">
<title>node_System(41)</title>
<g id="a_node35"><a xlink:title="bevy_ecs::event::Events&lt;bevy_window::event::WindowScaleFactorChanged&gt;::update_system">
<polygon fill="#bb85d4" stroke="#8e3fb3" points="434.5,-1133 70.5,-1133 70.5,-1097 434.5,-1097 434.5,-1133"/>
<text text-anchor="middle" x="252.5" y="-1111.3" font-family="Helvetica,sans-Serif" font-size="14.00" fill="#1d0d25">Events&lt;WindowScaleFactorChanged&gt;update_system</text>
</a>
</g>
</g>
<!-- node_System(42) -->
<g id="node36" class="node">
<title>node_System(42)</title>
<g id="a_node36"><a xlink:title="bevy_ecs::event::Events&lt;bevy_window::event::WindowBackendScaleFactorChanged&gt;::update_system">
<polygon fill="#bb85d4" stroke="#8e3fb3" points="462.5,-1086 42.5,-1086 42.5,-1050 462.5,-1050 462.5,-1086"/>
<text text-anchor="middle" x="252.5" y="-1064.3" font-family="Helvetica,sans-Serif" font-size="14.00" fill="#1d0d25">Events&lt;WindowBackendScaleFactorChanged&gt;update_system</text>
</a>
</g>
</g>
<!-- node_System(43) -->
<g id="node37" class="node">
<title>node_System(43)</title>
<g id="a_node37"><a xlink:title="bevy_ecs::event::Events&lt;bevy_window::event::FileDragAndDrop&gt;::update_system">
<polygon fill="#bb85d4" stroke="#8e3fb3" points="398,-1039 107,-1039 107,-1003 398,-1003 398,-1039"/>
<text text-anchor="middle" x="252.5" y="-1017.3" font-family="Helvetica,sans-Serif" font-size="14.00" fill="#1d0d25">Events&lt;FileDragAndDrop&gt;update_system</text>
</a>
</g>
</g>
<!-- node_System(44) -->
<g id="node38" class="node">
<title>node_System(44)</title>
<g id="a_node38"><a xlink:title="bevy_ecs::event::Events&lt;bevy_window::event::WindowMoved&gt;::update_system">
<polygon fill="#bb85d4" stroke="#8e3fb3" points="389.5,-992 115.5,-992 115.5,-956 389.5,-956 389.5,-992"/>
<text text-anchor="middle" x="252.5" y="-970.3" font-family="Helvetica,sans-Serif" font-size="14.00" fill="#1d0d25">Events&lt;WindowMoved&gt;update_system</text>
</a>
</g>
</g>
<!-- node_System(51) -->
<g id="node39" class="node">
<title>node_System(51)</title>
<g id="a_node39"><a xlink:title="bevy_ecs::event::Events&lt;bevy_asset::assets::AssetEvent&lt;bevy_scene::dynamic_scene::DynamicScene&gt;&gt;::update_system">
<polygon fill="#d1cbc5" stroke="#a3978c" points="434,-945 71,-945 71,-909 434,-909 434,-945"/>
<text text-anchor="middle" x="252.5" y="-923.3" font-family="Helvetica,sans-Serif" font-size="14.00" fill="#1c1916">Events&lt;AssetEvent&lt;DynamicScene&gt;&gt;update_system</text>
</a>
</g>
</g>
<!-- node_System(54) -->
<g id="node40" class="node">
<title>node_System(54)</title>
<g id="a_node40"><a xlink:title="bevy_ecs::event::Events&lt;bevy_asset::assets::AssetEvent&lt;bevy_scene::scene::Scene&gt;&gt;::update_system">
<polygon fill="#d1cbc5" stroke="#a3978c" points="405,-898 100,-898 100,-862 405,-862 405,-898"/>
<text text-anchor="middle" x="252.5" y="-876.3" font-family="Helvetica,sans-Serif" font-size="14.00" fill="#1c1916">Events&lt;AssetEvent&lt;Scene&gt;&gt;update_system</text>
</a>
</g>
</g>
<!-- node_System(59) -->
<g id="node41" class="node">
<title>node_System(59)</title>
<g id="a_node41"><a xlink:title="bevy_ecs::event::Events&lt;accesskit::ActionRequest&gt;::update_system">
<polygon fill="#eff1f3" stroke="#b4bec7" points="389,-851 116,-851 116,-815 389,-815 389,-851"/>
<text text-anchor="middle" x="252.5" y="-829.3" font-family="Helvetica,sans-Serif" font-size="14.00" fill="#15191d">Events&lt;ActionRequest&gt;update_system</text>
</a>
</g>
</g>
<!-- node_System(66) -->
<g id="node42" class="node">
<title>node_System(66)</title>
<g id="a_node42"><a xlink:title="bevy_ecs::event::Events&lt;bevy_asset::assets::AssetEvent&lt;bevy_render::render_resource::shader::Shader&gt;&gt;::update_system">
<polygon fill="#d1cbc5" stroke="#a3978c" points="408.5,-804 96.5,-804 96.5,-768 408.5,-768 408.5,-804"/>
<text text-anchor="middle" x="252.5" y="-782.3" font-family="Helvetica,sans-Serif" font-size="14.00" fill="#1c1916">Events&lt;AssetEvent&lt;Shader&gt;&gt;update_system</text>
</a>
</g>
</g>
<!-- node_System(80) -->
<g id="node43" class="node">
<title>node_System(80)</title>
<g id="a_node43"><a xlink:title="bevy_ecs::event::Events&lt;bevy_asset::assets::AssetEvent&lt;bevy_render::mesh::mesh::Mesh&gt;&gt;::update_system">
<polygon fill="#d1cbc5" stroke="#a3978c" points="403.5,-757 101.5,-757 101.5,-721 403.5,-721 403.5,-757"/>
<text text-anchor="middle" x="252.5" y="-735.3" font-family="Helvetica,sans-Serif" font-size="14.00" fill="#1c1916">Events&lt;AssetEvent&lt;Mesh&gt;&gt;update_system</text>
</a>
</g>
</g>
<!-- node_System(83) -->
<g id="node44" class="node">
<title>node_System(83)</title>
<g id="a_node44"><a xlink:title="bevy_ecs::event::Events&lt;bevy_asset::assets::AssetEvent&lt;bevy_render::mesh::mesh::skinning::SkinnedMeshInverseBindposes&gt;&gt;::update_system">
<polygon fill="#d1cbc5" stroke="#a3978c" points="489,-710 16,-710 16,-674 489,-674 489,-710"/>
<text text-anchor="middle" x="252.5" y="-688.3" font-family="Helvetica,sans-Serif" font-size="14.00" fill="#1c1916">Events&lt;AssetEvent&lt;SkinnedMeshInverseBindposes&gt;&gt;update_system</text>
</a>
</g>
</g>
<!-- node_System(86) -->
<g id="node45" class="node">
<title>node_System(86)</title>
<g id="a_node45"><a xlink:title="bevy_ecs::event::Events&lt;bevy_asset::assets::AssetEvent&lt;bevy_render::texture::image::Image&gt;&gt;::update_system">
<polygon fill="#d1cbc5" stroke="#a3978c" points="406,-663 99,-663 99,-627 406,-627 406,-663"/>
<text text-anchor="middle" x="252.5" y="-641.3" font-family="Helvetica,sans-Serif" font-size="14.00" fill="#1c1916">Events&lt;AssetEvent&lt;Image&gt;&gt;update_system</text>
</a>
</g>
</g>
<!-- node_System(89) -->
<g id="node46" class="node">
<title>node_System(89)</title>
<g id="a_node46"><a xlink:title="bevy_ecs::event::Events&lt;bevy_asset::assets::AssetEvent&lt;bevy_sprite::texture_atlas::TextureAtlas&gt;&gt;::update_system">
<polygon fill="#d1cbc5" stroke="#a3978c" points="427.5,-616 77.5,-616 77.5,-580 427.5,-580 427.5,-616"/>
<text text-anchor="middle" x="252.5" y="-594.3" font-family="Helvetica,sans-Serif" font-size="14.00" fill="#1c1916">Events&lt;AssetEvent&lt;TextureAtlas&gt;&gt;update_system</text>
</a>
</g>
</g>
<!-- node_System(92) -->
<g id="node47" class="node">
<title>node_System(92)</title>
<g id="a_node47"><a xlink:title="bevy_ecs::event::Events&lt;bevy_asset::assets::AssetEvent&lt;bevy_sprite::mesh2d::color_material::ColorMaterial&gt;&gt;::update_system">
<polygon fill="#d1cbc5" stroke="#a3978c" points="430.5,-569 74.5,-569 74.5,-533 430.5,-533 430.5,-569"/>
<text text-anchor="middle" x="252.5" y="-547.3" font-family="Helvetica,sans-Serif" font-size="14.00" fill="#1c1916">Events&lt;AssetEvent&lt;ColorMaterial&gt;&gt;update_system</text>
</a>
</g>
</g>
<!-- node_System(95) -->
<g id="node48" class="node">
<title>node_System(95)</title>
<g id="a_node48"><a xlink:title="bevy_ecs::event::Events&lt;bevy_asset::assets::AssetEvent&lt;bevy_text::font::Font&gt;&gt;::update_system">
<polygon fill="#d1cbc5" stroke="#a3978c" points="400.5,-522 104.5,-522 104.5,-486 400.5,-486 400.5,-522"/>
<text text-anchor="middle" x="252.5" y="-500.3" font-family="Helvetica,sans-Serif" font-size="14.00" fill="#1c1916">Events&lt;AssetEvent&lt;Font&gt;&gt;update_system</text>
</a>
</g>
</g>
<!-- node_System(98) -->
<g id="node49" class="node">
<title>node_System(98)</title>
<g id="a_node49"><a xlink:title="bevy_ecs::event::Events&lt;bevy_asset::assets::AssetEvent&lt;bevy_text::font_atlas_set::FontAtlasSet&gt;&gt;::update_system">
<polygon fill="#d1cbc5" stroke="#a3978c" points="427,-475 78,-475 78,-439 427,-439 427,-475"/>
<text text-anchor="middle" x="252.5" y="-453.3" font-family="Helvetica,sans-Serif" font-size="14.00" fill="#1c1916">Events&lt;AssetEvent&lt;FontAtlasSet&gt;&gt;update_system</text>
</a>
</g>
</g>
<!-- node_System(112) -->
<g id="node50" class="node">
<title>node_System(112)</title>
<g id="a_node50"><a xlink:title="bevy_ecs::event::Events&lt;bevy_asset::assets::AssetEvent&lt;bevy_pbr::pbr_material::StandardMaterial&gt;&gt;::update_system">
<polygon fill="#d1cbc5" stroke="#a3978c" points="442.5,-428 62.5,-428 62.5,-392 442.5,-392 442.5,-428"/>
<text text-anchor="middle" x="252.5" y="-406.3" font-family="Helvetica,sans-Serif" font-size="14.00" fill="#1c1916">Events&lt;AssetEvent&lt;StandardMaterial&gt;&gt;update_system</text>
</a>
</g>
</g>
<!-- node_System(123) -->
<g id="node51" class="node">
<title>node_System(123)</title>
<g id="a_node51"><a xlink:title="bevy_ecs::event::Events&lt;bevy_asset::assets::AssetEvent&lt;bevy_gltf::Gltf&gt;&gt;::update_system">
<polygon fill="#d1cbc5" stroke="#a3978c" points="397.5,-381 107.5,-381 107.5,-345 397.5,-345 397.5,-381"/>
<text text-anchor="middle" x="252.5" y="-359.3" font-family="Helvetica,sans-Serif" font-size="14.00" fill="#1c1916">Events&lt;AssetEvent&lt;Gltf&gt;&gt;update_system</text>
</a>
</g>
</g>
<!-- node_System(126) -->
<g id="node52" class="node">
<title>node_System(126)</title>
<g id="a_node52"><a xlink:title="bevy_ecs::event::Events&lt;bevy_asset::assets::AssetEvent&lt;bevy_gltf::GltfNode&gt;&gt;::update_system">
<polygon fill="#d1cbc5" stroke="#a3978c" points="415,-334 90,-334 90,-298 415,-298 415,-334"/>
<text text-anchor="middle" x="252.5" y="-312.3" font-family="Helvetica,sans-Serif" font-size="14.00" fill="#1c1916">Events&lt;AssetEvent&lt;GltfNode&gt;&gt;update_system</text>
</a>
</g>
</g>
<!-- node_System(129) -->
<g id="node53" class="node">
<title>node_System(129)</title>
<g id="a_node53"><a xlink:title="bevy_ecs::event::Events&lt;bevy_asset::assets::AssetEvent&lt;bevy_gltf::GltfPrimitive&gt;&gt;::update_system">
<polygon fill="#d1cbc5" stroke="#a3978c" points="426.5,-287 78.5,-287 78.5,-251 426.5,-251 426.5,-287"/>
<text text-anchor="middle" x="252.5" y="-265.3" font-family="Helvetica,sans-Serif" font-size="14.00" fill="#1c1916">Events&lt;AssetEvent&lt;GltfPrimitive&gt;&gt;update_system</text>
</a>
</g>
</g>
<!-- node_System(132) -->
<g id="node54" class="node">
<title>node_System(132)</title>
<g id="a_node54"><a xlink:title="bevy_ecs::event::Events&lt;bevy_asset::assets::AssetEvent&lt;bevy_gltf::GltfMesh&gt;&gt;::update_system">
<polygon fill="#d1cbc5" stroke="#a3978c" points="415.5,-240 89.5,-240 89.5,-204 415.5,-204 415.5,-240"/>
<text text-anchor="middle" x="252.5" y="-218.3" font-family="Helvetica,sans-Serif" font-size="14.00" fill="#1c1916">Events&lt;AssetEvent&lt;GltfMesh&gt;&gt;update_system</text>
</a>
</g>
</g>
<!-- node_System(135) -->
<g id="node55" class="node">
<title>node_System(135)</title>
<g id="a_node55"><a xlink:title="bevy_ecs::event::Events&lt;bevy_asset::assets::AssetEvent&lt;bevy_audio::audio_source::AudioSource&gt;&gt;::update_system">
<polygon fill="#d1cbc5" stroke="#a3978c" points="427.5,-193 77.5,-193 77.5,-157 427.5,-157 427.5,-193"/>
<text text-anchor="middle" x="252.5" y="-171.3" font-family="Helvetica,sans-Serif" font-size="14.00" fill="#1c1916">Events&lt;AssetEvent&lt;AudioSource&gt;&gt;update_system</text>
</a>
</g>
</g>
<!-- node_System(138) -->
<g id="node56" class="node">
<title>node_System(138)</title>
<g id="a_node56"><a xlink:title="bevy_ecs::event::Events&lt;bevy_asset::assets::AssetEvent&lt;bevy_audio::sinks::AudioSink&gt;&gt;::update_system">
<polygon fill="#d1cbc5" stroke="#a3978c" points="418.5,-146 86.5,-146 86.5,-110 418.5,-110 418.5,-146"/>
<text text-anchor="middle" x="252.5" y="-124.3" font-family="Helvetica,sans-Serif" font-size="14.00" fill="#1c1916">Events&lt;AssetEvent&lt;AudioSink&gt;&gt;update_system</text>
</a>
</g>
</g>
<!-- node_System(141) -->
<g id="node57" class="node">
<title>node_System(141)</title>
<g id="a_node57"><a xlink:title="bevy_ecs::event::Events&lt;bevy_asset::assets::AssetEvent&lt;bevy_audio::sinks::SpatialAudioSink&gt;&gt;::update_system">
<polygon fill="#d1cbc5" stroke="#a3978c" points="440,-99 65,-99 65,-63 440,-63 440,-99"/>
<text text-anchor="middle" x="252.5" y="-77.3" font-family="Helvetica,sans-Serif" font-size="14.00" fill="#1c1916">Events&lt;AssetEvent&lt;SpatialAudioSink&gt;&gt;update_system</text>
</a>
</g>
</g>
<!-- node_System(146) -->
<g id="node58" class="node">
<title>node_System(146)</title>
<g id="a_node58"><a xlink:title="bevy_ecs::event::Events&lt;bevy_asset::assets::AssetEvent&lt;bevy_animation::AnimationClip&gt;&gt;::update_system">
<polygon fill="#d1cbc5" stroke="#a3978c" points="432,-52 73,-52 73,-16 432,-16 432,-52"/>
<text text-anchor="middle" x="252.5" y="-30.3" font-family="Helvetica,sans-Serif" font-size="14.00" fill="#1c1916">Events&lt;AssetEvent&lt;AnimationClip&gt;&gt;update_system</text>
</a>
</g>
</g>
<!-- set_marker_node_Set(8)&#45;&gt;set_marker_node_Set(3) -->
<g id="edge3" class="edge">
<title>set_marker_node_Set(8)&#45;&gt;set_marker_node_Set(3)</title>
<g id="a_edge3"><a xlink:title="PreUpdate → PreUpdateFlush">
<path fill="none" stroke="#00b0cc" stroke-width="2" d="M799,-2178C801.33,-2178 803.71,-2178 806.13,-2178"/>
<polygon fill="#00b0cc" stroke="#00b0cc" stroke-width="2" points="805.97,-2181.5 815.97,-2178 805.97,-2174.5 805.97,-2181.5"/>
</a>
</g>
</g>
<!-- set_marker_node_Set(10) -->
<!-- set_marker_node_Set(9)&#45;&gt;set_marker_node_Set(10) -->
<g id="edge5" class="edge">
<title>set_marker_node_Set(9)&#45;&gt;set_marker_node_Set(10)</title>
<g id="a_edge5"><a xlink:title="StateTransitions → FixedUpdate">
<path fill="none" stroke="#44d488" stroke-width="2" d="M1138,-2178C1140.39,-2178 1142.79,-2178 1145.19,-2178"/>
<polygon fill="#44d488" stroke="#44d488" stroke-width="2" points="1144.98,-2181.5 1154.98,-2178 1144.98,-2174.5 1144.98,-2181.5"/>
</a>
</g>
</g>
<!-- set_marker_node_Set(10)&#45;&gt;set_marker_node_Set(0) -->
<g id="edge6" class="edge">
<title>set_marker_node_Set(10)&#45;&gt;set_marker_node_Set(0)</title>
<g id="a_edge6"><a xlink:title="FixedUpdate → Update">
<path fill="none" stroke="#0090cc" stroke-width="2" d="M1258,-2178C1260.37,-2178 1262.75,-2178 1265.11,-2178"/>
<polygon fill="#0090cc" stroke="#0090cc" stroke-width="2" points="1264.98,-2181.5 1274.98,-2178 1264.98,-2174.5 1264.98,-2181.5"/>
</a>
</g>
</g>
<!-- set_marker_node_Set(11)&#45;&gt;set_marker_node_Set(5) -->
<g id="edge9" class="edge">
<title>set_marker_node_Set(11)&#45;&gt;set_marker_node_Set(5)</title>
<g id="a_edge9"><a xlink:title="PostUpdate → PostUpdateFlush">
<path fill="none" stroke="#3363bb" stroke-width="2" d="M1741,-2184C1749.98,-2190.91 1746.26,-2200.16 1746.92,-2208.59"/>
<polygon fill="#3363bb" stroke="#3363bb" stroke-width="2" points="1743.78,-2210.15 1751.58,-2217.33 1749.96,-2206.86 1743.78,-2210.15"/>
</a>
</g>
</g>
<!-- set_marker_node_Set(60) -->
<!-- set_marker_node_Set(11)&#45;&gt;set_marker_node_Set(60) -->
<g id="edge14" class="edge">
<title>set_marker_node_Set(11)&#45;&gt;set_marker_node_Set(60)</title>
<g id="a_edge14"><a xlink:title="PostUpdate → AssetEvents">
<path fill="none" stroke="#00b0cc" stroke-width="2" d="M1679.35,-2170C1706.86,-2163.3 1746.84,-2153.56 1779.97,-2145.5"/>
<polygon fill="#00b0cc" stroke="#00b0cc" stroke-width="2" points="1780.67,-2148.93 1789.56,-2143.16 1779.02,-2142.13 1780.67,-2148.93"/>
</a>
</g>
</g>
<!-- set_marker_node_Set(87) -->
<!-- node_System(71) -->
<g id="node64" class="node">
<title>node_System(71)</title>
<g id="a_node64"><a xlink:title="bevy_ecs::schedule::executor::apply_system_buffers">
<polygon fill="#e70000" stroke="#5a0000" stroke-width="2" points="1725,-2324 1566,-2324 1566,-2288 1725,-2288 1725,-2324"/>
<text text-anchor="middle" x="1645.5" y="-2302.3" font-family="Helvetica,sans-Serif" font-size="14.00" fill="#ffffff">apply_system_buffers</text>
</a>
</g>
</g>
<!-- set_marker_node_Set(138) -->
<!-- node_System(114) -->
<g id="node66" class="node">
<title>node_System(114)</title>
<g id="a_node66"><a xlink:title="bevy_ecs::schedule::executor::apply_system_buffers">
<polygon fill="#e70000" stroke="#5a0000" stroke-width="2" points="1725,-2230 1566,-2230 1566,-2194 1725,-2194 1725,-2230"/>
<text text-anchor="middle" x="1645.5" y="-2208.3" font-family="Helvetica,sans-Serif" font-size="14.00" fill="#ffffff">apply_system_buffers</text>
</a>
</g>
</g>
<!-- set_marker_node_Set(12)&#45;&gt;set_marker_node_Set(6) -->
<g id="edge11" class="edge">
<title>set_marker_node_Set(12)&#45;&gt;set_marker_node_Set(6)</title>
<g id="a_edge11"><a xlink:title="Last → LastFlush">
<path fill="none" stroke="#99d955" stroke-width="2" d="M1992,-2178C1994.31,-2178 1996.77,-2178 1999.33,-2178"/>
<polygon fill="#99d955" stroke="#99d955" stroke-width="2" points="1998.97,-2181.5 2008.97,-2178 1998.97,-2174.5 1998.97,-2181.5"/>
</a>
</g>
</g>
<!-- set_marker_node_Set(59)&#45;&gt;set_marker_node_Set(8) -->
<g id="edge12" class="edge">
<title>set_marker_node_Set(59)&#45;&gt;set_marker_node_Set(8)</title>
<g id="a_edge12"><a xlink:title="LoadAssets → PreUpdate">
<path fill="none" stroke="#eede00" stroke-width="2" d="M650.5,-2145.24C671.58,-2151.91 696.4,-2159.77 716.46,-2166.12"/>
<polygon fill="#eede00" stroke="#eede00" stroke-width="2" points="715.25,-2169.41 725.84,-2169.09 717.36,-2162.73 715.25,-2169.41"/>
</a>
</g>
</g>
<!-- set_marker_node_Set(60)&#45;&gt;set_marker_node_Set(12) -->
<g id="edge15" class="edge">
<title>set_marker_node_Set(60)&#45;&gt;set_marker_node_Set(12)</title>
<g id="a_edge15"><a xlink:title="AssetEvents → Last">
<path fill="none" stroke="#aa3a55" stroke-width="2" d="M1888.5,-2148.32C1904.21,-2154.12 1921.38,-2160.45 1935.82,-2165.77"/>
<polygon fill="#aa3a55" stroke="#aa3a55" stroke-width="2" points="1934.57,-2169.04 1945.16,-2169.21 1936.99,-2162.47 1934.57,-2169.04"/>
</a>
</g>
</g>
</g>
</svg>
