<?xml version="1.0" encoding="UTF-8" standalone="no"?>
<!DOCTYPE svg PUBLIC "-//W3C//DTD SVG 1.1//EN"
 "http://www.w3.org/Graphics/SVG/1.1/DTD/svg11.dtd">
<!-- Generated by graphviz version 7.1.0 (0)
 -->
<!-- Pages: 1 -->
<svg width="1811pt" height="368pt"
 viewBox="0.00 0.00 1811.00 368.00" xmlns="http://www.w3.org/2000/svg" xmlns:xlink="http://www.w3.org/1999/xlink">
<g id="graph0" class="graph" transform="scale(1 1) rotate(0) translate(4 364)">
<polygon fill="#0d1117" stroke="none" points="-4,4 -4,-364 1807,-364 1807,4 -4,4"/>
<g id="clust1" class="cluster">
<title>clusternode_Set(0)</title>
<g id="a_clust1"><a xlink:title="Update">
<polygon fill="#6f90ad" stroke="black" points="731,-102 731,-141 796,-141 796,-102 731,-102"/>
<text text-anchor="middle" x="763.5" y="-125.8" font-family="Helvetica,sans-Serif" font-size="14.00">Update</text>
</a>
</g>
</g>
<g id="clust2" class="cluster">
<title>clusternode_Set(2)</title>
<g id="a_clust2"><a xlink:title="FirstFlush">
<polygon fill="#6f90ad" stroke="black" points="70,-172 70,-211 152,-211 152,-172 70,-172"/>
<text text-anchor="middle" x="111" y="-195.8" font-family="Helvetica,sans-Serif" font-size="14.00">FirstFlush</text>
</a>
</g>
</g>
<g id="clust3" class="cluster">
<title>clusternode_Set(3)</title>
<g id="a_clust3"><a xlink:title="PreUpdateFlush">
<polygon fill="#6f90ad" stroke="black" points="315.5,-102 315.5,-141 438.5,-141 438.5,-102 315.5,-102"/>
<text text-anchor="middle" x="377" y="-125.8" font-family="Helvetica,sans-Serif" font-size="14.00">PreUpdateFlush</text>
</a>
</g>
</g>
<g id="clust4" class="cluster">
<title>clusternode_Set(4)</title>
<g id="a_clust4"><a xlink:title="UpdateFlush">
<polygon fill="#6f90ad" stroke="black" points="816,-102 816,-141 917,-141 917,-102 816,-102"/>
<text text-anchor="middle" x="866.5" y="-125.8" font-family="Helvetica,sans-Serif" font-size="14.00">UpdateFlush</text>
</a>
</g>
</g>
<g id="clust5" class="cluster">
<title>clusternode_Set(5)</title>
<g id="a_clust5"><a xlink:title="PostUpdateFlush">
<polygon fill="#6f90ad" stroke="black" points="1256,-55 1256,-94 1385,-94 1385,-55 1256,-55"/>
<text text-anchor="middle" x="1320.5" y="-78.8" font-family="Helvetica,sans-Serif" font-size="14.00">PostUpdateFlush</text>
</a>
</g>
</g>
<g id="clust6" class="cluster">
<title>clusternode_Set(6)</title>
<g id="a_clust6"><a xlink:title="LastFlush">
<polygon fill="#6f90ad" stroke="black" points="1659,-31 1659,-70 1739,-70 1739,-31 1659,-31"/>
<text text-anchor="middle" x="1699" y="-54.8" font-family="Helvetica,sans-Serif" font-size="14.00">LastFlush</text>
</a>
</g>
</g>
<g id="clust7" class="cluster">
<title>clusternode_Set(7)</title>
<g id="a_clust7"><a xlink:title="First">
<polygon fill="#6f90ad" stroke="black" points="0,-148 0,-187 46,-187 46,-148 0,-148"/>
<text text-anchor="middle" x="23" y="-171.8" font-family="Helvetica,sans-Serif" font-size="14.00">First</text>
</a>
</g>
</g>
<g id="clust8" class="cluster">
<title>clusternode_Set(8)</title>
<g id="a_clust8"><a xlink:title="PreUpdate">
<polygon fill="#6f90ad" stroke="black" points="169,-149 169,-281 455,-281 455,-149 169,-149"/>
<text text-anchor="middle" x="312" y="-265.8" font-family="Helvetica,sans-Serif" font-size="14.00">PreUpdate</text>
</a>
</g>
</g>
<g id="clust9" class="cluster">
<title>clusternode_Set(24)</title>
<g id="a_clust9"><a xlink:title="InputSystem">
<polygon fill="#6f90ad" stroke="black" points="177,-175 177,-214 278,-214 278,-175 177,-175"/>
<text text-anchor="middle" x="227.5" y="-198.8" font-family="Helvetica,sans-Serif" font-size="14.00">InputSystem</text>
</a>
</g>
</g>
<g id="clust10" class="cluster">
<title>clusternode_Set(115)</title>
<g id="a_clust10"><a xlink:title="Focus">
<polygon fill="#6f90ad" stroke="black" points="306,-157 306,-250 447,-250 447,-157 306,-157"/>
<text text-anchor="middle" x="376.5" y="-234.8" font-family="Helvetica,sans-Serif" font-size="14.00">Focus</text>
</a>
</g>
</g>
<g id="clust11" class="cluster">
<title>clusternode_Set(9)</title>
<g id="a_clust11"><a xlink:title="StateTransitions">
<polygon fill="#6f90ad" stroke="black" points="467,-102 467,-141 591,-141 591,-102 467,-102"/>
<text text-anchor="middle" x="529" y="-125.8" font-family="Helvetica,sans-Serif" font-size="14.00">StateTransitions</text>
</a>
</g>
</g>
<g id="clust12" class="cluster">
<title>clusternode_Set(10)</title>
<g id="a_clust12"><a xlink:title="FixedUpdate">
<polygon fill="#6f90ad" stroke="black" points="611,-102 611,-141 711,-141 711,-102 611,-102"/>
<text text-anchor="middle" x="661" y="-125.8" font-family="Helvetica,sans-Serif" font-size="14.00">FixedUpdate</text>
</a>
</g>
</g>
<g id="clust13" class="cluster">
<title>clusternode_Set(11)</title>
<g id="a_clust13"><a xlink:title="PostUpdate">
<polygon fill="#6f90ad" stroke="black" points="937,-102 937,-352 1795,-352 1795,-102 937,-102"/>
<text text-anchor="middle" x="1366" y="-336.8" font-family="Helvetica,sans-Serif" font-size="14.00">PostUpdate</text>
</a>
</g>
</g>
<g id="clust14" class="cluster">
<title>clusternode_Set(20)</title>
<g id="a_clust14"><a xlink:title="TransformPropagate">
<polygon fill="#6f90ad" stroke="black" points="1423,-142 1423,-181 1575,-181 1575,-142 1423,-142"/>
<text text-anchor="middle" x="1499" y="-165.8" font-family="Helvetica,sans-Serif" font-size="14.00">TransformPropagate</text>
</a>
</g>
</g>
<g id="clust15" class="cluster">
<title>clusternode_Set(116)</title>
<g id="a_clust15"><a xlink:title="Flex">
<polygon fill="#6f90ad" stroke="black" points="1245,-124 1245,-217 1395,-217 1395,-124 1245,-124"/>
<text text-anchor="middle" x="1320" y="-201.8" font-family="Helvetica,sans-Serif" font-size="14.00">Flex</text>
</a>
</g>
</g>
<g id="clust16" class="cluster">
<title>clusternode_Set(117)</title>
<g id="a_clust16"><a xlink:title="Stack">
<polygon fill="#6f90ad" stroke="black" points="1010.5,-228 1010.5,-321 1151.5,-321 1151.5,-228 1010.5,-228"/>
<text text-anchor="middle" x="1081" y="-305.8" font-family="Helvetica,sans-Serif" font-size="14.00">Stack</text>
</a>
</g>
</g>
<g id="clust17" class="cluster">
<title>clusternode_Set(12)</title>
<g id="a_clust17"><a xlink:title="Last">
<polygon fill="#6f90ad" stroke="black" points="1477,-31 1477,-70 1521,-70 1521,-31 1477,-31"/>
<text text-anchor="middle" x="1499" y="-54.8" font-family="Helvetica,sans-Serif" font-size="14.00">Last</text>
</a>
</g>
</g>
<g id="clust18" class="cluster">
<title>clusternode_Set(58)</title>
<g id="a_clust18"><a xlink:title="LoadAssets">
<polygon fill="#6f90ad" stroke="black" points="66,-125 66,-164 157,-164 157,-125 66,-125"/>
<text text-anchor="middle" x="111.5" y="-148.8" font-family="Helvetica,sans-Serif" font-size="14.00">LoadAssets</text>
</a>
</g>
</g>
<g id="clust19" class="cluster">
<title>clusternode_Set(59)</title>
<g id="a_clust19"><a xlink:title="AssetEvents">
<polygon fill="#6f90ad" stroke="black" points="1272,-8 1272,-47 1368,-47 1368,-8 1272,-8"/>
<text text-anchor="middle" x="1320" y="-31.8" font-family="Helvetica,sans-Serif" font-size="14.00">AssetEvents</text>
</a>
</g>
</g>
<!-- set_marker_node_Set(0) -->
<!-- set_marker_node_Set(4) -->
<!-- set_marker_node_Set(0)&#45;&gt;set_marker_node_Set(4) -->
<g id="edge7" class="edge">
<title>set_marker_node_Set(0)&#45;&gt;set_marker_node_Set(4)</title>
<g id="a_edge7"><a xlink:title="Update → UpdateFlush">
<path fill="none" stroke="#cc251d" stroke-width="2" d="M796,-110C798.35,-110 800.77,-110 803.22,-110"/>
<polygon fill="#cc251d" stroke="#cc251d" stroke-width="2" points="802.97,-113.5 812.97,-110 802.97,-106.5 802.97,-113.5"/>
</a>
</g>
</g>
<!-- set_marker_node_Set(2) -->
<!-- set_marker_node_Set(8) -->
<!-- set_marker_node_Set(2)&#45;&gt;set_marker_node_Set(8) -->
<g id="edge2" class="edge">
<title>set_marker_node_Set(2)&#45;&gt;set_marker_node_Set(8)</title>
<g id="a_edge2"><a xlink:title="FirstFlush → PreUpdate">
<path fill="none" stroke="#c4cc1d" stroke-width="2" d="M151.63,-172C153.23,-171.68 154.84,-171.36 156.48,-171.03"/>
<polygon fill="#c4cc1d" stroke="#c4cc1d" stroke-width="2" points="156.93,-174.51 166.04,-169.1 155.54,-167.64 156.93,-174.51"/>
</a>
</g>
</g>
<!-- set_marker_node_Set(3) -->
<!-- set_marker_node_Set(9) -->
<!-- set_marker_node_Set(3)&#45;&gt;set_marker_node_Set(9) -->
<g id="edge4" class="edge">
<title>set_marker_node_Set(3)&#45;&gt;set_marker_node_Set(9)</title>
<g id="a_edge4"><a xlink:title="PreUpdateFlush → StateTransitions">
<path fill="none" stroke="#cd1d91" stroke-width="2" d="M438.5,-110C443.62,-110 448.83,-110 454.04,-110"/>
<polygon fill="#cd1d91" stroke="#cd1d91" stroke-width="2" points="453.98,-113.5 463.98,-110 453.98,-106.5 453.98,-113.5"/>
</a>
</g>
</g>
<!-- set_marker_node_Set(11) -->
<!-- set_marker_node_Set(4)&#45;&gt;set_marker_node_Set(11) -->
<g id="edge8" class="edge">
<title>set_marker_node_Set(4)&#45;&gt;set_marker_node_Set(11)</title>
<g id="a_edge8"><a xlink:title="UpdateFlush → PostUpdate">
<path fill="none" stroke="#ccd60d" stroke-width="2" d="M917,-110C919.37,-110 921.81,-110 924.28,-110"/>
<polygon fill="#ccd60d" stroke="#ccd60d" stroke-width="2" points="923.98,-113.5 933.98,-110 923.98,-106.5 923.98,-113.5"/>
</a>
</g>
</g>
<!-- set_marker_node_Set(5) -->
<!-- set_marker_node_Set(12) -->
<!-- set_marker_node_Set(5)&#45;&gt;set_marker_node_Set(12) -->
<g id="edge10" class="edge">
<title>set_marker_node_Set(5)&#45;&gt;set_marker_node_Set(12)</title>
<g id="a_edge10"><a xlink:title="PostUpdateFlush → Last">
<path fill="none" stroke="#58cd0c" stroke-width="2" d="M1379.97,-55C1407.99,-51.21 1440.47,-46.8 1464.26,-43.58"/>
<polygon fill="#58cd0c" stroke="#58cd0c" stroke-width="2" points="1464.56,-47.07 1474,-42.25 1463.62,-40.13 1464.56,-47.07"/>
</a>
</g>
</g>
<!-- set_marker_node_Set(6) -->
<!-- set_marker_node_Set(7) -->
<!-- set_marker_node_Set(7)&#45;&gt;set_marker_node_Set(2) -->
<g id="edge1" class="edge">
<title>set_marker_node_Set(7)&#45;&gt;set_marker_node_Set(2)</title>
<g id="a_edge1"><a xlink:title="First → FirstFlush">
<path fill="none" stroke="#a6f2d4" stroke-width="2" d="M46,-162.34C52.44,-164.18 59.5,-166.18 66,-168 66.73,-168.2 67.47,-168.41 68.21,-168.62"/>
<polygon fill="#a6f2d4" stroke="#a6f2d4" stroke-width="2" points="67,-171.91 77.57,-171.2 68.86,-165.17 67,-171.91"/>
</a>
</g>
</g>
<!-- set_marker_node_Set(58) -->
<!-- set_marker_node_Set(7)&#45;&gt;set_marker_node_Set(58) -->
<g id="edge13" class="edge">
<title>set_marker_node_Set(7)&#45;&gt;set_marker_node_Set(58)</title>
<g id="a_edge13"><a xlink:title="First → LoadAssets">
<path fill="none" stroke="#0c9acf" stroke-width="2" d="M46,-150.12C48.46,-149.46 51.05,-148.77 53.71,-148.05"/>
<polygon fill="#0c9acf" stroke="#0c9acf" stroke-width="2" points="54.32,-151.51 63.08,-145.55 52.51,-144.75 54.32,-151.51"/>
</a>
</g>
</g>
<!-- set_marker_node_Set(8)&#45;&gt;set_marker_node_Set(3) -->
<g id="edge3" class="edge">
<title>set_marker_node_Set(8)&#45;&gt;set_marker_node_Set(3)</title>
<g id="a_edge3"><a xlink:title="PreUpdate → PreUpdateFlush">
<path fill="none" stroke="#251dcc" stroke-width="2" d="M253.1,-149C267.07,-144.55 285.24,-138.76 303.29,-133.01"/>
<polygon fill="#251dcc" stroke="#251dcc" stroke-width="2" points="304.15,-136.41 312.62,-130.04 302.03,-129.74 304.15,-136.41"/>
</a>
</g>
</g>
<!-- set_marker_node_Set(24) -->
<!-- node_System(95) -->
<g id="node11" class="node">
<title>node_System(95)</title>
<g id="a_node11"><a xlink:title="bevy_ui::focus::ui_focus_system">
<polygon fill="#eff1f3" stroke="#eff1f3" points="439,-201 314,-201 314,-165 439,-165 439,-201"/>
<text text-anchor="middle" x="376.5" y="-179.3" font-family="Times,serif" font-size="14.00">ui_focus_system</text>
</a>
</g>
</g>
<!-- set_marker_node_Set(24)&#45;&gt;node_System(95) -->
<g id="edge16" class="edge">
<title>set_marker_node_Set(24)&#45;&gt;node_System(95)</title>
<g id="a_edge16"><a xlink:title="InputSystem → ui_focus_system">
<path fill="none" stroke="#251dcc" stroke-width="2" d="M278,-183C285.31,-183 292.98,-183 300.66,-183"/>
<polygon fill="#251dcc" stroke="#251dcc" stroke-width="2" points="300.61,-186.5 310.61,-183 300.61,-179.5 300.61,-186.5"/>
</a>
</g>
</g>
<!-- set_marker_node_Set(115) -->
<!-- set_marker_node_Set(10) -->
<!-- set_marker_node_Set(9)&#45;&gt;set_marker_node_Set(10) -->
<g id="edge5" class="edge">
<title>set_marker_node_Set(9)&#45;&gt;set_marker_node_Set(10)</title>
<g id="a_edge5"><a xlink:title="StateTransitions → FixedUpdate">
<path fill="none" stroke="#1dcd59" stroke-width="2" d="M591,-110C593.39,-110 595.79,-110 598.19,-110"/>
<polygon fill="#1dcd59" stroke="#1dcd59" stroke-width="2" points="597.98,-113.5 607.98,-110 597.98,-106.5 597.98,-113.5"/>
</a>
</g>
</g>
<!-- set_marker_node_Set(10)&#45;&gt;set_marker_node_Set(0) -->
<g id="edge6" class="edge">
<title>set_marker_node_Set(10)&#45;&gt;set_marker_node_Set(0)</title>
<g id="a_edge6"><a xlink:title="FixedUpdate → Update">
<path fill="none" stroke="#1dc4cc" stroke-width="2" d="M711,-110C713.37,-110 715.75,-110 718.11,-110"/>
<polygon fill="#1dc4cc" stroke="#1dc4cc" stroke-width="2" points="717.98,-113.5 727.98,-110 717.98,-106.5 717.98,-113.5"/>
</a>
</g>
</g>
<!-- set_marker_node_Set(11)&#45;&gt;set_marker_node_Set(5) -->
<g id="edge9" class="edge">
<title>set_marker_node_Set(11)&#45;&gt;set_marker_node_Set(5)</title>
<g id="a_edge9"><a xlink:title="PostUpdate → PostUpdateFlush">
<path fill="none" stroke="#29e000" stroke-width="2" d="M1122.34,-102C1155.46,-95.43 1203.3,-85.95 1243.49,-77.97"/>
<polygon fill="#29e000" stroke="#29e000" stroke-width="2" points="1243.9,-81.46 1253.03,-76.08 1242.54,-74.59 1243.9,-81.46"/>
</a>
</g>
</g>
<!-- set_marker_node_Set(59) -->
<!-- set_marker_node_Set(11)&#45;&gt;set_marker_node_Set(59) -->
<g id="edge14" class="edge">
<title>set_marker_node_Set(11)&#45;&gt;set_marker_node_Set(59)</title>
<g id="a_edge14"><a xlink:title="PostUpdate → AssetEvents">
<path fill="none" stroke="#a6f2d4" stroke-width="2" d="M1102.16,-102C1136.69,-88.31 1208.42,-59.86 1259.93,-39.43"/>
<polygon fill="#a6f2d4" stroke="#a6f2d4" stroke-width="2" points="1261.19,-42.7 1269.19,-35.76 1258.61,-36.19 1261.19,-42.7"/>
</a>
</g>
</g>
<!-- set_marker_node_Set(20) -->
<!-- node_System(100) -->
<g id="node22" class="node">
<title>node_System(100)</title>
<g id="a_node22"><a xlink:title="bevy_ui::update::update_clipping_system">
<polygon fill="#eff1f3" stroke="#eff1f3" points="1787,-168 1611,-168 1611,-132 1787,-132 1787,-168"/>
<text text-anchor="middle" x="1699" y="-146.3" font-family="Times,serif" font-size="14.00">update_clipping_system</text>
</a>
</g>
</g>
<!-- set_marker_node_Set(20)&#45;&gt;node_System(100) -->
<g id="edge20" class="edge">
<title>set_marker_node_Set(20)&#45;&gt;node_System(100)</title>
<g id="a_edge20"><a xlink:title="TransformPropagate → update_clipping_system">
<path fill="none" stroke="#cc251d" stroke-width="2" d="M1575,-150C1582.52,-150 1590.25,-150 1597.98,-150"/>
<polygon fill="#cc251d" stroke="#cc251d" stroke-width="2" points="1597.69,-153.5 1607.69,-150 1597.69,-146.5 1597.69,-153.5"/>
</a>
</g>
</g>
<!-- set_marker_node_Set(116) -->
<!-- node_System(98) -->
<g id="node17" class="node">
<title>node_System(98)</title>
<g id="a_node17"><a xlink:title="bevy_ui::flex::flex_node_system">
<polygon fill="#eff1f3" stroke="#eff1f3" points="1387,-168 1253,-168 1253,-132 1387,-132 1387,-168"/>
<text text-anchor="middle" x="1320" y="-146.3" font-family="Times,serif" font-size="14.00">flex_node_system</text>
</a>
</g>
</g>
<!-- node_System(98)&#45;&gt;set_marker_node_Set(20) -->
<g id="edge19" class="edge">
<title>node_System(98)&#45;&gt;set_marker_node_Set(20)</title>
<g id="a_edge19"><a xlink:title="flex_node_system → TransformPropagate">
<path fill="none" stroke="#1dc4cc" stroke-width="2" d="M1387.41,-150C1394.85,-150 1402.51,-150 1410.17,-150"/>
<polygon fill="#1dc4cc" stroke="#1dc4cc" stroke-width="2" points="1409.97,-153.5 1419.97,-150 1409.97,-146.5 1409.97,-153.5"/>
</a>
</g>
</g>
<!-- set_marker_node_Set(117) -->
<!-- node_System(99) -->
<g id="node19" class="node">
<title>node_System(99)</title>
<g id="a_node19"><a xlink:title="bevy_ui::stack::ui_stack_system">
<polygon fill="#eff1f3" stroke="#eff1f3" points="1143.5,-272 1018.5,-272 1018.5,-236 1143.5,-236 1143.5,-272"/>
<text text-anchor="middle" x="1081" y="-250.3" font-family="Times,serif" font-size="14.00">ui_stack_system</text>
</a>
</g>
</g>
<!-- node_System(96) -->
<g id="node20" class="node">
<title>node_System(96)</title>
<g id="a_node20"><a xlink:title="bevy_ui::widget::text::text_system">
<polygon fill="#eff1f3" stroke="#eff1f3" points="1129,-218 1033,-218 1033,-182 1129,-182 1129,-218"/>
<text text-anchor="middle" x="1081" y="-196.3" font-family="Times,serif" font-size="14.00">text_system</text>
</a>
</g>
</g>
<!-- node_System(96)&#45;&gt;set_marker_node_Set(116) -->
<g id="edge17" class="edge">
<title>node_System(96)&#45;&gt;set_marker_node_Set(116)</title>
<g id="a_edge17"><a xlink:title="text_system → Flex">
<path fill="none" stroke="#cd1d91" stroke-width="2" d="M1129.39,-197.2C1158.84,-195.46 1197.6,-193.17 1232.39,-191.12"/>
<polygon fill="#cd1d91" stroke="#cd1d91" stroke-width="2" points="1232.2,-194.63 1241.98,-190.55 1231.79,-187.65 1232.2,-194.63"/>
</a>
</g>
</g>
<!-- node_System(97) -->
<g id="node21" class="node">
<title>node_System(97)</title>
<g id="a_node21"><a xlink:title="bevy_ui::widget::image::update_image_calculated_size_system">
<polygon fill="#eff1f3" stroke="#eff1f3" points="1217,-164 945,-164 945,-128 1217,-128 1217,-164"/>
<text text-anchor="middle" x="1081" y="-142.3" font-family="Times,serif" font-size="14.00">update_image_calculated_size_system</text>
</a>
</g>
</g>
<!-- node_System(97)&#45;&gt;set_marker_node_Set(116) -->
<g id="edge18" class="edge">
<title>node_System(97)&#45;&gt;set_marker_node_Set(116)</title>
<g id="a_edge18"><a xlink:title="update_image_calculated_size_system → Flex">
<path fill="none" stroke="#1dcd59" stroke-width="2" d="M1173.2,-164.46C1192.35,-168.08 1212.69,-171.76 1232.27,-174.96"/>
<polygon fill="#1dcd59" stroke="#1dcd59" stroke-width="2" points="1231.58,-178.4 1242.01,-176.52 1232.69,-171.49 1231.58,-178.4"/>
</a>
</g>
</g>
<!-- set_marker_node_Set(12)&#45;&gt;set_marker_node_Set(6) -->
<g id="edge11" class="edge">
<title>set_marker_node_Set(12)&#45;&gt;set_marker_node_Set(6)</title>
<g id="a_edge11"><a xlink:title="Last → LastFlush">
<path fill="none" stroke="#810ccd" stroke-width="2" d="M1521,-39C1550.54,-39 1605.34,-39 1646.17,-39"/>
<polygon fill="#810ccd" stroke="#810ccd" stroke-width="2" points="1645.98,-42.5 1655.98,-39 1645.98,-35.5 1645.98,-42.5"/>
</a>
</g>
</g>
<!-- set_marker_node_Set(58)&#45;&gt;set_marker_node_Set(8) -->
<g id="edge12" class="edge">
<title>set_marker_node_Set(58)&#45;&gt;set_marker_node_Set(8)</title>
<g id="a_edge12"><a xlink:title="LoadAssets → PreUpdate">
<path fill="none" stroke="#cf410c" stroke-width="2" d="M157,-142.47C163.09,-143.76 169.38,-145.08 175.56,-146.38"/>
<polygon fill="#cf410c" stroke="#cf410c" stroke-width="2" points="174.55,-149.74 185.05,-148.38 175.99,-142.89 174.55,-149.74"/>
</a>
</g>
</g>
<!-- set_marker_node_Set(59)&#45;&gt;set_marker_node_Set(12) -->
<g id="edge15" class="edge">
<title>set_marker_node_Set(59)&#45;&gt;set_marker_node_Set(12)</title>
<g id="a_edge15"><a xlink:title="AssetEvents → Last">
<path fill="none" stroke="#c4cc1d" stroke-width="2" d="M1368,-22.11C1398.3,-26.04 1436.99,-31.07 1464.26,-34.62"/>
<polygon fill="#c4cc1d" stroke="#c4cc1d" stroke-width="2" points="1463.63,-38.06 1474,-35.88 1464.53,-31.12 1463.63,-38.06"/>
</a>
</g>
</g>
</g>
</svg>
