<?xml version="1.0" encoding="UTF-8" standalone="no"?>
<!DOCTYPE svg PUBLIC "-//W3C//DTD SVG 1.1//EN"
 "http://www.w3.org/Graphics/SVG/1.1/DTD/svg11.dtd">
<!-- Generated by graphviz version 7.1.0 (0)
 -->
<!-- Pages: 1 -->
<svg width="1632pt" height="176pt"
 viewBox="0.00 0.00 1632.00 176.00" xmlns="http://www.w3.org/2000/svg" xmlns:xlink="http://www.w3.org/1999/xlink">
<g id="graph0" class="graph" transform="scale(1 1) rotate(0) translate(4 172)">
<polygon fill="#0d1117" stroke="none" points="-4,4 -4,-172 1628,-172 1628,4 -4,4"/>
<g id="clust1" class="cluster">
<title>clusternode_Set(0)</title>
<g id="a_clust1"><a xlink:title="Update">
<polygon fill="#6f90ad" stroke="black" points="825,-46 825,-85 890,-85 890,-46 825,-46"/>
<text text-anchor="middle" x="857.5" y="-69.8" font-family="Helvetica,sans-Serif" font-size="14.00">Update</text>
</a>
</g>
</g>
<g id="clust2" class="cluster">
<title>clusternode_Set(2)</title>
<g id="a_clust2"><a xlink:title="FirstFlush">
<polygon fill="#6f90ad" stroke="black" points="204,-55 204,-94 286,-94 286,-55 204,-55"/>
<text text-anchor="middle" x="245" y="-78.8" font-family="Helvetica,sans-Serif" font-size="14.00">FirstFlush</text>
</a>
</g>
</g>
<g id="clust3" class="cluster">
<title>clusternode_Set(3)</title>
<g id="a_clust3"><a xlink:title="PreUpdateFlush">
<polygon fill="#6f90ad" stroke="black" points="418,-46 418,-85 541,-85 541,-46 418,-46"/>
<text text-anchor="middle" x="479.5" y="-69.8" font-family="Helvetica,sans-Serif" font-size="14.00">PreUpdateFlush</text>
</a>
</g>
</g>
<g id="clust4" class="cluster">
<title>clusternode_Set(4)</title>
<g id="a_clust4"><a xlink:title="UpdateFlush">
<polygon fill="#6f90ad" stroke="black" points="910,-46 910,-85 1011,-85 1011,-46 910,-46"/>
<text text-anchor="middle" x="960.5" y="-69.8" font-family="Helvetica,sans-Serif" font-size="14.00">UpdateFlush</text>
</a>
</g>
</g>
<g id="clust5" class="cluster">
<title>clusternode_Set(5)</title>
<g id="a_clust5"><a xlink:title="PostUpdateFlush">
<polygon fill="#6f90ad" stroke="black" points="1144,-76 1144,-115 1273,-115 1273,-76 1144,-76"/>
<text text-anchor="middle" x="1208.5" y="-99.8" font-family="Helvetica,sans-Serif" font-size="14.00">PostUpdateFlush</text>
</a>
</g>
</g>
<g id="clust6" class="cluster">
<title>clusternode_Set(6)</title>
<g id="a_clust6"><a xlink:title="LastFlush">
<polygon fill="#6f90ad" stroke="black" points="1499.5,-20 1499.5,-59 1579.5,-59 1579.5,-20 1499.5,-20"/>
<text text-anchor="middle" x="1539.5" y="-43.8" font-family="Helvetica,sans-Serif" font-size="14.00">LastFlush</text>
</a>
</g>
</g>
<g id="clust7" class="cluster">
<title>clusternode_Set(7)</title>
<g id="a_clust7"><a xlink:title="First">
<polygon fill="#6f90ad" stroke="black" points="67,-22 67,-61 113,-61 113,-22 67,-22"/>
<text text-anchor="middle" x="90" y="-45.8" font-family="Helvetica,sans-Serif" font-size="14.00">First</text>
</a>
</g>
</g>
<g id="clust8" class="cluster">
<title>clusternode_Set(8)</title>
<g id="a_clust8"><a xlink:title="PreUpdate">
<polygon fill="#6f90ad" stroke="black" points="311,-46 311,-85 398,-85 398,-46 311,-46"/>
<text text-anchor="middle" x="354.5" y="-69.8" font-family="Helvetica,sans-Serif" font-size="14.00">PreUpdate</text>
</a>
</g>
</g>
<g id="clust9" class="cluster">
<title>clusternode_Set(9)</title>
<g id="a_clust9"><a xlink:title="StateTransitions">
<polygon fill="#6f90ad" stroke="black" points="561,-46 561,-85 685,-85 685,-46 561,-46"/>
<text text-anchor="middle" x="623" y="-69.8" font-family="Helvetica,sans-Serif" font-size="14.00">StateTransitions</text>
</a>
</g>
</g>
<g id="clust10" class="cluster">
<title>clusternode_Set(10)</title>
<g id="a_clust10"><a xlink:title="FixedUpdate">
<polygon fill="#6f90ad" stroke="black" points="705,-46 705,-85 805,-85 805,-46 705,-46"/>
<text text-anchor="middle" x="755" y="-69.8" font-family="Helvetica,sans-Serif" font-size="14.00">FixedUpdate</text>
</a>
</g>
</g>
<g id="clust11" class="cluster">
<title>clusternode_Set(11)</title>
<g id="a_clust11"><a xlink:title="PostUpdate">
<polygon fill="#6f90ad" stroke="black" points="1031,-46 1031,-85 1124,-85 1124,-46 1031,-46"/>
<text text-anchor="middle" x="1077.5" y="-69.8" font-family="Helvetica,sans-Serif" font-size="14.00">PostUpdate</text>
</a>
</g>
</g>
<g id="clust12" class="cluster">
<title>clusternode_Set(12)</title>
<g id="a_clust12"><a xlink:title="Last">
<polygon fill="#6f90ad" stroke="black" points="1293,-67 1293,-160 1616,-160 1616,-67 1293,-67"/>
<text text-anchor="middle" x="1454.5" y="-144.8" font-family="Helvetica,sans-Serif" font-size="14.00">Last</text>
</a>
</g>
</g>
<g id="clust13" class="cluster">
<title>clusternode_Set(22)</title>
<g id="a_clust13"><a xlink:title="PropagateTransformsSet">
<polygon fill="#6f90ad" stroke="black" points="0,-107 0,-146 180,-146 180,-107 0,-107"/>
<text text-anchor="middle" x="90" y="-130.8" font-family="Helvetica,sans-Serif" font-size="14.00">PropagateTransformsSet</text>
</a>
</g>
</g>
<g id="clust14" class="cluster">
<title>clusternode_Set(59)</title>
<g id="a_clust14"><a xlink:title="LoadAssets">
<polygon fill="#6f90ad" stroke="black" points="200,-8 200,-47 291,-47 291,-8 200,-8"/>
<text text-anchor="middle" x="245.5" y="-31.8" font-family="Helvetica,sans-Serif" font-size="14.00">LoadAssets</text>
</a>
</g>
</g>
<g id="clust15" class="cluster">
<title>clusternode_Set(60)</title>
<g id="a_clust15"><a xlink:title="AssetEvents">
<polygon fill="#6f90ad" stroke="black" points="1160,-29 1160,-68 1256,-68 1256,-29 1160,-29"/>
<text text-anchor="middle" x="1208" y="-52.8" font-family="Helvetica,sans-Serif" font-size="14.00">AssetEvents</text>
</a>
</g>
</g>
<!-- set_marker_node_Set(0) -->
<!-- set_marker_node_Set(4) -->
<!-- set_marker_node_Set(0)&#45;&gt;set_marker_node_Set(4) -->
<g id="edge7" class="edge">
<title>set_marker_node_Set(0)&#45;&gt;set_marker_node_Set(4)</title>
<g id="a_edge7"><a xlink:title="Update → UpdateFlush">
<path fill="none" stroke="#ee9e44" stroke-width="2" d="M890,-54C892.35,-54 894.77,-54 897.22,-54"/>
<polygon fill="#ee9e44" stroke="#ee9e44" stroke-width="2" points="896.97,-57.5 906.97,-54 896.97,-50.5 896.97,-57.5"/>
</a>
</g>
</g>
<!-- set_marker_node_Set(2) -->
<!-- set_marker_node_Set(8) -->
<!-- set_marker_node_Set(2)&#45;&gt;set_marker_node_Set(8) -->
<g id="edge2" class="edge">
<title>set_marker_node_Set(2)&#45;&gt;set_marker_node_Set(8)</title>
<g id="a_edge2"><a xlink:title="FirstFlush → PreUpdate">
<path fill="none" stroke="#881877" stroke-width="2" d="M286,-59.64C289.98,-59.3 294.07,-58.96 298.17,-58.61"/>
<polygon fill="#881877" stroke="#881877" stroke-width="2" points="298.31,-62.11 307.99,-57.79 297.73,-55.14 298.31,-62.11"/>
</a>
</g>
</g>
<!-- set_marker_node_Set(3) -->
<!-- set_marker_node_Set(9) -->
<!-- set_marker_node_Set(3)&#45;&gt;set_marker_node_Set(9) -->
<g id="edge4" class="edge">
<title>set_marker_node_Set(3)&#45;&gt;set_marker_node_Set(9)</title>
<g id="a_edge4"><a xlink:title="PreUpdateFlush → StateTransitions">
<path fill="none" stroke="#aa3a55" stroke-width="2" d="M541,-54C543.39,-54 545.8,-54 548.21,-54"/>
<polygon fill="#aa3a55" stroke="#aa3a55" stroke-width="2" points="547.98,-57.5 557.98,-54 547.98,-50.5 547.98,-57.5"/>
</a>
</g>
</g>
<!-- set_marker_node_Set(11) -->
<!-- set_marker_node_Set(4)&#45;&gt;set_marker_node_Set(11) -->
<g id="edge8" class="edge">
<title>set_marker_node_Set(4)&#45;&gt;set_marker_node_Set(11)</title>
<g id="a_edge8"><a xlink:title="UpdateFlush → PostUpdate">
<path fill="none" stroke="#663699" stroke-width="2" d="M1011,-54C1013.43,-54 1015.88,-54 1018.32,-54"/>
<polygon fill="#663699" stroke="#663699" stroke-width="2" points="1017.98,-57.5 1027.98,-54 1017.98,-50.5 1017.98,-57.5"/>
</a>
</g>
</g>
<!-- set_marker_node_Set(5) -->
<!-- set_marker_node_Set(12) -->
<!-- set_marker_node_Set(5)&#45;&gt;set_marker_node_Set(12) -->
<g id="edge10" class="edge">
<title>set_marker_node_Set(5)&#45;&gt;set_marker_node_Set(12)</title>
<g id="a_edge10"><a xlink:title="PostUpdateFlush → Last">
<path fill="none" stroke="#22c2bb" stroke-width="2" d="M1273,-80.35C1275.44,-80.22 1277.91,-80.07 1280.38,-79.93"/>
<polygon fill="#22c2bb" stroke="#22c2bb" stroke-width="2" points="1280.2,-83.45 1289.98,-79.39 1279.8,-76.46 1280.2,-83.45"/>
</a>
</g>
</g>
<!-- set_marker_node_Set(6) -->
<!-- set_marker_node_Set(7) -->
<!-- set_marker_node_Set(7)&#45;&gt;set_marker_node_Set(2) -->
<g id="edge1" class="edge">
<title>set_marker_node_Set(7)&#45;&gt;set_marker_node_Set(2)</title>
<g id="a_edge1"><a xlink:title="First → FirstFlush">
<path fill="none" stroke="#eede00" stroke-width="2" d="M113,-34.74C134.12,-39.3 166.77,-46.34 194.19,-52.26"/>
<polygon fill="#eede00" stroke="#eede00" stroke-width="2" points="193.44,-55.68 203.96,-54.36 194.92,-48.83 193.44,-55.68"/>
</a>
</g>
</g>
<!-- set_marker_node_Set(59) -->
<!-- set_marker_node_Set(7)&#45;&gt;set_marker_node_Set(59) -->
<g id="edge13" class="edge">
<title>set_marker_node_Set(7)&#45;&gt;set_marker_node_Set(59)</title>
<g id="a_edge13"><a xlink:title="First → LoadAssets">
<path fill="none" stroke="#881877" stroke-width="2" d="M113,-27.99C132.35,-26.22 161.37,-23.56 187.19,-21.2"/>
<polygon fill="#881877" stroke="#881877" stroke-width="2" points="187.35,-24.7 196.99,-20.3 186.71,-17.73 187.35,-24.7"/>
</a>
</g>
</g>
<!-- set_marker_node_Set(8)&#45;&gt;set_marker_node_Set(3) -->
<g id="edge3" class="edge">
<title>set_marker_node_Set(8)&#45;&gt;set_marker_node_Set(3)</title>
<g id="a_edge3"><a xlink:title="PreUpdate → PreUpdateFlush">
<path fill="none" stroke="#00b0cc" stroke-width="2" d="M398,-54C400.39,-54 402.82,-54 405.28,-54"/>
<polygon fill="#00b0cc" stroke="#00b0cc" stroke-width="2" points="404.98,-57.5 414.98,-54 404.98,-50.5 404.98,-57.5"/>
</a>
</g>
</g>
<!-- set_marker_node_Set(10) -->
<!-- set_marker_node_Set(9)&#45;&gt;set_marker_node_Set(10) -->
<g id="edge5" class="edge">
<title>set_marker_node_Set(9)&#45;&gt;set_marker_node_Set(10)</title>
<g id="a_edge5"><a xlink:title="StateTransitions → FixedUpdate">
<path fill="none" stroke="#44d488" stroke-width="2" d="M685,-54C687.39,-54 689.79,-54 692.19,-54"/>
<polygon fill="#44d488" stroke="#44d488" stroke-width="2" points="691.98,-57.5 701.98,-54 691.98,-50.5 691.98,-57.5"/>
</a>
</g>
</g>
<!-- set_marker_node_Set(10)&#45;&gt;set_marker_node_Set(0) -->
<g id="edge6" class="edge">
<title>set_marker_node_Set(10)&#45;&gt;set_marker_node_Set(0)</title>
<g id="a_edge6"><a xlink:title="FixedUpdate → Update">
<path fill="none" stroke="#0090cc" stroke-width="2" d="M805,-54C807.37,-54 809.75,-54 812.11,-54"/>
<polygon fill="#0090cc" stroke="#0090cc" stroke-width="2" points="811.98,-57.5 821.98,-54 811.98,-50.5 811.98,-57.5"/>
</a>
</g>
</g>
<!-- set_marker_node_Set(11)&#45;&gt;set_marker_node_Set(5) -->
<g id="edge9" class="edge">
<title>set_marker_node_Set(11)&#45;&gt;set_marker_node_Set(5)</title>
<g id="a_edge9"><a xlink:title="PostUpdate → PostUpdateFlush">
<path fill="none" stroke="#3363bb" stroke-width="2" d="M1124,-67.04C1130.69,-68.79 1137.51,-70.5 1144,-72 1145.97,-72.46 1147.98,-72.91 1150.01,-73.35"/>
<polygon fill="#3363bb" stroke="#3363bb" stroke-width="2" points="1149.17,-76.75 1159.68,-75.38 1150.61,-69.9 1149.17,-76.75"/>
</a>
</g>
</g>
<!-- set_marker_node_Set(60) -->
<!-- set_marker_node_Set(11)&#45;&gt;set_marker_node_Set(60) -->
<g id="edge14" class="edge">
<title>set_marker_node_Set(11)&#45;&gt;set_marker_node_Set(60)</title>
<g id="a_edge14"><a xlink:title="PostUpdate → AssetEvents">
<path fill="none" stroke="#00b0cc" stroke-width="2" d="M1124,-47.94C1131.5,-46.95 1139.36,-45.91 1147.14,-44.89"/>
<polygon fill="#00b0cc" stroke="#00b0cc" stroke-width="2" points="1147.54,-48.37 1157,-43.59 1146.63,-41.43 1147.54,-48.37"/>
</a>
</g>
</g>
<!-- set_marker_node_Set(12)&#45;&gt;set_marker_node_Set(6) -->
<g id="edge11" class="edge">
<title>set_marker_node_Set(12)&#45;&gt;set_marker_node_Set(6)</title>
<g id="a_edge11"><a xlink:title="Last → LastFlush">
<path fill="none" stroke="#99d955" stroke-width="2" d="M1397.85,-67C1422.3,-60.22 1457.95,-50.33 1487.25,-42.21"/>
<polygon fill="#99d955" stroke="#99d955" stroke-width="2" points="1487.89,-45.67 1496.59,-39.62 1486.01,-38.92 1487.89,-45.67"/>
</a>
</g>
</g>
<!-- node_System(57) -->
<g id="node13" class="node">
<title>node_System(57)</title>
<g id="a_node13"><a xlink:title="bevy_winit::system::changed_window">
<polygon fill="#eff1f3" stroke="#eff1f3" points="1435,-129 1301,-129 1301,-93 1435,-93 1435,-129"/>
<text text-anchor="middle" x="1368" y="-107.3" font-family="Times,serif" font-size="14.00">changed_window</text>
</a>
</g>
</g>
<!-- node_System(58) -->
<g id="node14" class="node">
<title>node_System(58)</title>
<g id="a_node14"><a xlink:title="bevy_winit::system::despawn_window">
<polygon fill="#eff1f3" stroke="#eff1f3" points="1608,-129 1471,-129 1471,-93 1608,-93 1608,-129"/>
<text text-anchor="middle" x="1539.5" y="-107.3" font-family="Times,serif" font-size="14.00">despawn_window</text>
</a>
</g>
</g>
<!-- node_System(57)&#45;&gt;node_System(58) -->
<g id="edge16" class="edge">
<title>node_System(57)&#45;&gt;node_System(58)</title>
<g id="a_edge16"><a xlink:title="SystemTypeSet(changed_window&quot;) → despawn_window">
<path fill="none" stroke="#44d488" stroke-width="2" d="M1435.02,-111C1442.52,-111 1450.23,-111 1457.9,-111"/>
<polygon fill="#44d488" stroke="#44d488" stroke-width="2" points="1457.68,-114.5 1467.68,-111 1457.68,-107.5 1457.68,-114.5"/>
</a>
</g>
</g>
<!-- set_marker_node_Set(22) -->
<!-- set_marker_node_Set(59)&#45;&gt;set_marker_node_Set(8) -->
<g id="edge12" class="edge">
<title>set_marker_node_Set(59)&#45;&gt;set_marker_node_Set(8)</title>
<g id="a_edge12"><a xlink:title="LoadAssets → PreUpdate">
<path fill="none" stroke="#eede00" stroke-width="2" d="M291,-31.98C300.21,-35.25 309.77,-38.65 318.54,-41.76"/>
<polygon fill="#eede00" stroke="#eede00" stroke-width="2" points="317.04,-44.94 327.63,-44.99 319.38,-38.35 317.04,-44.94"/>
</a>
</g>
</g>
<!-- set_marker_node_Set(60)&#45;&gt;set_marker_node_Set(12) -->
<g id="edge15" class="edge">
<title>set_marker_node_Set(60)&#45;&gt;set_marker_node_Set(12)</title>
<g id="a_edge15"><a xlink:title="AssetEvents → Last">
<path fill="none" stroke="#aa3a55" stroke-width="2" d="M1256,-48.3C1276.6,-53.26 1300.69,-59.05 1321.16,-63.97"/>
<polygon fill="#aa3a55" stroke="#aa3a55" stroke-width="2" points="1320.26,-67.36 1330.8,-66.29 1321.9,-60.55 1320.26,-67.36"/>
</a>
</g>
</g>
</g>
</svg>
