<?xml version="1.0" encoding="UTF-8" standalone="no"?>
<!DOCTYPE svg PUBLIC "-//W3C//DTD SVG 1.1//EN"
 "http://www.w3.org/Graphics/SVG/1.1/DTD/svg11.dtd">
<!-- Generated by graphviz version 7.1.0 (0)
 -->
<!-- Pages: 1 -->
<svg width="1480pt" height="141pt"
 viewBox="0.00 0.00 1480.00 141.00" xmlns="http://www.w3.org/2000/svg" xmlns:xlink="http://www.w3.org/1999/xlink">
<g id="graph0" class="graph" transform="scale(1 1) rotate(0) translate(4 137)">
<polygon fill="#0d1117" stroke="none" points="-4,4 -4,-137 1476,-137 1476,4 -4,4"/>
<g id="clust1" class="cluster">
<title>clusternode_Set(0)</title>
<g id="a_clust1"><a xlink:title="Update">
<polygon fill="#6f90ad" stroke="black" points="738,-8 738,-101 925,-101 925,-8 738,-8"/>
<text text-anchor="middle" x="831.5" y="-85.8" font-family="Helvetica,sans-Serif" font-size="14.00">Update</text>
</a>
</g>
</g>
<g id="clust2" class="cluster">
<title>clusternode_Set(2)</title>
<g id="a_clust2"><a xlink:title="FirstFlush">
<polygon fill="#6f90ad" stroke="black" points="70,-74 70,-113 152,-113 152,-74 70,-74"/>
<text text-anchor="middle" x="111" y="-97.8" font-family="Helvetica,sans-Serif" font-size="14.00">FirstFlush</text>
</a>
</g>
</g>
<g id="clust3" class="cluster">
<title>clusternode_Set(3)</title>
<g id="a_clust3"><a xlink:title="PreUpdateFlush">
<polygon fill="#6f90ad" stroke="black" points="331,-62 331,-101 454,-101 454,-62 331,-62"/>
<text text-anchor="middle" x="392.5" y="-85.8" font-family="Helvetica,sans-Serif" font-size="14.00">PreUpdateFlush</text>
</a>
</g>
</g>
<g id="clust4" class="cluster">
<title>clusternode_Set(4)</title>
<g id="a_clust4"><a xlink:title="UpdateFlush">
<polygon fill="#6f90ad" stroke="black" points="945,-62 945,-101 1046,-101 1046,-62 945,-62"/>
<text text-anchor="middle" x="995.5" y="-85.8" font-family="Helvetica,sans-Serif" font-size="14.00">UpdateFlush</text>
</a>
</g>
</g>
<g id="clust5" class="cluster">
<title>clusternode_Set(5)</title>
<g id="a_clust5"><a xlink:title="PostUpdateFlush">
<polygon fill="#6f90ad" stroke="black" points="1179,-86 1179,-125 1308,-125 1308,-86 1179,-86"/>
<text text-anchor="middle" x="1243.5" y="-109.8" font-family="Helvetica,sans-Serif" font-size="14.00">PostUpdateFlush</text>
</a>
</g>
</g>
<g id="clust6" class="cluster">
<title>clusternode_Set(6)</title>
<g id="a_clust6"><a xlink:title="LastFlush">
<polygon fill="#6f90ad" stroke="black" points="1392,-62 1392,-101 1472,-101 1472,-62 1392,-62"/>
<text text-anchor="middle" x="1432" y="-85.8" font-family="Helvetica,sans-Serif" font-size="14.00">LastFlush</text>
</a>
</g>
</g>
<g id="clust7" class="cluster">
<title>clusternode_Set(7)</title>
<g id="a_clust7"><a xlink:title="First">
<polygon fill="#6f90ad" stroke="black" points="0,-50 0,-89 46,-89 46,-50 0,-50"/>
<text text-anchor="middle" x="23" y="-73.8" font-family="Helvetica,sans-Serif" font-size="14.00">First</text>
</a>
</g>
</g>
<g id="clust8" class="cluster">
<title>clusternode_Set(8)</title>
<g id="a_clust8"><a xlink:title="PreUpdate">
<polygon fill="#6f90ad" stroke="black" points="177,-8 177,-101 311,-101 311,-8 177,-8"/>
<text text-anchor="middle" x="244" y="-85.8" font-family="Helvetica,sans-Serif" font-size="14.00">PreUpdate</text>
</a>
</g>
</g>
<g id="clust9" class="cluster">
<title>clusternode_Set(9)</title>
<g id="a_clust9"><a xlink:title="StateTransitions">
<polygon fill="#6f90ad" stroke="black" points="474,-62 474,-101 598,-101 598,-62 474,-62"/>
<text text-anchor="middle" x="536" y="-85.8" font-family="Helvetica,sans-Serif" font-size="14.00">StateTransitions</text>
</a>
</g>
</g>
<g id="clust10" class="cluster">
<title>clusternode_Set(10)</title>
<g id="a_clust10"><a xlink:title="FixedUpdate">
<polygon fill="#6f90ad" stroke="black" points="618,-62 618,-101 718,-101 718,-62 618,-62"/>
<text text-anchor="middle" x="668" y="-85.8" font-family="Helvetica,sans-Serif" font-size="14.00">FixedUpdate</text>
</a>
</g>
</g>
<g id="clust11" class="cluster">
<title>clusternode_Set(11)</title>
<g id="a_clust11"><a xlink:title="PostUpdate">
<polygon fill="#6f90ad" stroke="black" points="1066,-62 1066,-101 1159,-101 1159,-62 1066,-62"/>
<text text-anchor="middle" x="1112.5" y="-85.8" font-family="Helvetica,sans-Serif" font-size="14.00">PostUpdate</text>
</a>
</g>
</g>
<g id="clust12" class="cluster">
<title>clusternode_Set(12)</title>
<g id="a_clust12"><a xlink:title="Last">
<polygon fill="#6f90ad" stroke="black" points="1328,-62 1328,-101 1372,-101 1372,-62 1328,-62"/>
<text text-anchor="middle" x="1350" y="-85.8" font-family="Helvetica,sans-Serif" font-size="14.00">Last</text>
</a>
</g>
</g>
<g id="clust13" class="cluster">
<title>clusternode_Set(58)</title>
<g id="a_clust13"><a xlink:title="LoadAssets">
<polygon fill="#6f90ad" stroke="black" points="66,-27 66,-66 157,-66 157,-27 66,-27"/>
<text text-anchor="middle" x="111.5" y="-50.8" font-family="Helvetica,sans-Serif" font-size="14.00">LoadAssets</text>
</a>
</g>
</g>
<g id="clust14" class="cluster">
<title>clusternode_Set(59)</title>
<g id="a_clust14"><a xlink:title="AssetEvents">
<polygon fill="#6f90ad" stroke="black" points="1195,-39 1195,-78 1291,-78 1291,-39 1195,-39"/>
<text text-anchor="middle" x="1243" y="-62.8" font-family="Helvetica,sans-Serif" font-size="14.00">AssetEvents</text>
</a>
</g>
</g>
<!-- set_marker_node_Set(0) -->
<!-- set_marker_node_Set(4) -->
<!-- set_marker_node_Set(0)&#45;&gt;set_marker_node_Set(4) -->
<g id="edge7" class="edge">
<title>set_marker_node_Set(0)&#45;&gt;set_marker_node_Set(4)</title>
<g id="a_edge7"><a xlink:title="Update → UpdateFlush">
<path fill="none" stroke="#cc251d" stroke-width="2" d="M925,-70C927.4,-70 929.8,-70 932.16,-70"/>
<polygon fill="#cc251d" stroke="#cc251d" stroke-width="2" points="931.98,-73.5 941.98,-70 931.98,-66.5 931.98,-73.5"/>
</a>
</g>
</g>
<!-- node_System(55) -->
<g id="node2" class="node">
<title>node_System(55)</title>
<g id="a_node2"><a xlink:title="bevy_scene::scene_spawner::scene_spawner_system">
<polygon fill="#eff1f3" stroke="#eff1f3" points="917,-52 746,-52 746,-16 917,-16 917,-52"/>
<text text-anchor="middle" x="831.5" y="-30.3" font-family="Times,serif" font-size="14.00">scene_spawner_system</text>
</a>
</g>
</g>
<!-- set_marker_node_Set(2) -->
<!-- set_marker_node_Set(8) -->
<!-- set_marker_node_Set(2)&#45;&gt;set_marker_node_Set(8) -->
<g id="edge2" class="edge">
<title>set_marker_node_Set(2)&#45;&gt;set_marker_node_Set(8)</title>
<g id="a_edge2"><a xlink:title="FirstFlush → PreUpdate">
<path fill="none" stroke="#c4cc1d" stroke-width="2" d="M152,-78.34C155.92,-77.98 159.99,-77.6 164.14,-77.22"/>
<polygon fill="#c4cc1d" stroke="#c4cc1d" stroke-width="2" points="164.35,-80.72 173.99,-76.32 163.71,-73.75 164.35,-80.72"/>
</a>
</g>
</g>
<!-- set_marker_node_Set(3) -->
<!-- set_marker_node_Set(9) -->
<!-- set_marker_node_Set(3)&#45;&gt;set_marker_node_Set(9) -->
<g id="edge4" class="edge">
<title>set_marker_node_Set(3)&#45;&gt;set_marker_node_Set(9)</title>
<g id="a_edge4"><a xlink:title="PreUpdateFlush → StateTransitions">
<path fill="none" stroke="#cd1d91" stroke-width="2" d="M454,-70C456.39,-70 458.8,-70 461.21,-70"/>
<polygon fill="#cd1d91" stroke="#cd1d91" stroke-width="2" points="460.98,-73.5 470.98,-70 460.98,-66.5 460.98,-73.5"/>
</a>
</g>
</g>
<!-- set_marker_node_Set(11) -->
<!-- set_marker_node_Set(4)&#45;&gt;set_marker_node_Set(11) -->
<g id="edge8" class="edge">
<title>set_marker_node_Set(4)&#45;&gt;set_marker_node_Set(11)</title>
<g id="a_edge8"><a xlink:title="UpdateFlush → PostUpdate">
<path fill="none" stroke="#ccd60d" stroke-width="2" d="M1046,-70C1048.43,-70 1050.88,-70 1053.32,-70"/>
<polygon fill="#ccd60d" stroke="#ccd60d" stroke-width="2" points="1052.98,-73.5 1062.98,-70 1052.98,-66.5 1052.98,-73.5"/>
</a>
</g>
</g>
<!-- set_marker_node_Set(5) -->
<!-- set_marker_node_Set(12) -->
<!-- set_marker_node_Set(5)&#45;&gt;set_marker_node_Set(12) -->
<g id="edge10" class="edge">
<title>set_marker_node_Set(5)&#45;&gt;set_marker_node_Set(12)</title>
<g id="a_edge10"><a xlink:title="PostUpdateFlush → Last">
<path fill="none" stroke="#58cd0c" stroke-width="2" d="M1289.71,-86C1295.88,-84.76 1302.11,-83.41 1308,-82 1310.46,-81.41 1312.99,-80.77 1315.52,-80.09"/>
<polygon fill="#58cd0c" stroke="#58cd0c" stroke-width="2" points="1316.41,-83.48 1325.09,-77.4 1314.51,-76.74 1316.41,-83.48"/>
</a>
</g>
</g>
<!-- set_marker_node_Set(6) -->
<!-- set_marker_node_Set(7) -->
<!-- set_marker_node_Set(7)&#45;&gt;set_marker_node_Set(2) -->
<g id="edge1" class="edge">
<title>set_marker_node_Set(7)&#45;&gt;set_marker_node_Set(2)</title>
<g id="a_edge1"><a xlink:title="First → FirstFlush">
<path fill="none" stroke="#a6f2d4" stroke-width="2" d="M46,-64.34C52.44,-66.18 59.5,-68.18 66,-70 66.73,-70.2 67.47,-70.41 68.21,-70.62"/>
<polygon fill="#a6f2d4" stroke="#a6f2d4" stroke-width="2" points="67,-73.91 77.57,-73.2 68.86,-67.17 67,-73.91"/>
</a>
</g>
</g>
<!-- set_marker_node_Set(58) -->
<!-- set_marker_node_Set(7)&#45;&gt;set_marker_node_Set(58) -->
<g id="edge13" class="edge">
<title>set_marker_node_Set(7)&#45;&gt;set_marker_node_Set(58)</title>
<g id="a_edge13"><a xlink:title="First → LoadAssets">
<path fill="none" stroke="#0c9acf" stroke-width="2" d="M46,-52.12C48.46,-51.46 51.05,-50.77 53.71,-50.05"/>
<polygon fill="#0c9acf" stroke="#0c9acf" stroke-width="2" points="54.32,-53.51 63.08,-47.55 52.51,-46.75 54.32,-53.51"/>
</a>
</g>
</g>
<!-- set_marker_node_Set(8)&#45;&gt;set_marker_node_Set(3) -->
<g id="edge3" class="edge">
<title>set_marker_node_Set(8)&#45;&gt;set_marker_node_Set(3)</title>
<g id="a_edge3"><a xlink:title="PreUpdate → PreUpdateFlush">
<path fill="none" stroke="#251dcc" stroke-width="2" d="M311,-70C313.34,-70 315.68,-70 318.03,-70"/>
<polygon fill="#251dcc" stroke="#251dcc" stroke-width="2" points="317.98,-73.5 327.98,-70 317.98,-66.5 317.98,-73.5"/>
</a>
</g>
</g>
<!-- node_System(56) -->
<g id="node10" class="node">
<title>node_System(56)</title>
<g id="a_node10"><a xlink:title="bevy_scene::bundle::scene_spawner">
<polygon fill="#eff1f3" stroke="#eff1f3" points="303,-52 185,-52 185,-16 303,-16 303,-52"/>
<text text-anchor="middle" x="244" y="-30.3" font-family="Times,serif" font-size="14.00">scene_spawner</text>
</a>
</g>
</g>
<!-- set_marker_node_Set(10) -->
<!-- set_marker_node_Set(9)&#45;&gt;set_marker_node_Set(10) -->
<g id="edge5" class="edge">
<title>set_marker_node_Set(9)&#45;&gt;set_marker_node_Set(10)</title>
<g id="a_edge5"><a xlink:title="StateTransitions → FixedUpdate">
<path fill="none" stroke="#1dcd59" stroke-width="2" d="M598,-70C600.39,-70 602.79,-70 605.19,-70"/>
<polygon fill="#1dcd59" stroke="#1dcd59" stroke-width="2" points="604.98,-73.5 614.98,-70 604.98,-66.5 604.98,-73.5"/>
</a>
</g>
</g>
<!-- set_marker_node_Set(10)&#45;&gt;set_marker_node_Set(0) -->
<g id="edge6" class="edge">
<title>set_marker_node_Set(10)&#45;&gt;set_marker_node_Set(0)</title>
<g id="a_edge6"><a xlink:title="FixedUpdate → Update">
<path fill="none" stroke="#1dc4cc" stroke-width="2" d="M718,-70C720.33,-70 722.71,-70 725.13,-70"/>
<polygon fill="#1dc4cc" stroke="#1dc4cc" stroke-width="2" points="724.98,-73.5 734.98,-70 724.98,-66.5 724.98,-73.5"/>
</a>
</g>
</g>
<!-- set_marker_node_Set(11)&#45;&gt;set_marker_node_Set(5) -->
<g id="edge9" class="edge">
<title>set_marker_node_Set(11)&#45;&gt;set_marker_node_Set(5)</title>
<g id="a_edge9"><a xlink:title="PostUpdate → PostUpdateFlush">
<path fill="none" stroke="#29e000" stroke-width="2" d="M1159,-78.56C1167.83,-80.2 1177.16,-81.94 1186.26,-83.63"/>
<polygon fill="#29e000" stroke="#29e000" stroke-width="2" points="1185.56,-87.06 1196.04,-85.45 1186.84,-80.18 1185.56,-87.06"/>
</a>
</g>
</g>
<!-- set_marker_node_Set(59) -->
<!-- set_marker_node_Set(11)&#45;&gt;set_marker_node_Set(59) -->
<g id="edge14" class="edge">
<title>set_marker_node_Set(11)&#45;&gt;set_marker_node_Set(59)</title>
<g id="a_edge14"><a xlink:title="PostUpdate → AssetEvents">
<path fill="none" stroke="#a6f2d4" stroke-width="2" d="M1157.87,-62C1165.84,-60.58 1174.26,-59.08 1182.57,-57.6"/>
<polygon fill="#a6f2d4" stroke="#a6f2d4" stroke-width="2" points="1182.79,-61.11 1192.02,-55.91 1181.56,-54.22 1182.79,-61.11"/>
</a>
</g>
</g>
<!-- set_marker_node_Set(12)&#45;&gt;set_marker_node_Set(6) -->
<g id="edge11" class="edge">
<title>set_marker_node_Set(12)&#45;&gt;set_marker_node_Set(6)</title>
<g id="a_edge11"><a xlink:title="Last → LastFlush">
<path fill="none" stroke="#810ccd" stroke-width="2" d="M1372,-70C1374.31,-70 1376.74,-70 1379.23,-70"/>
<polygon fill="#810ccd" stroke="#810ccd" stroke-width="2" points="1378.98,-73.5 1388.98,-70 1378.98,-66.5 1378.98,-73.5"/>
</a>
</g>
</g>
<!-- set_marker_node_Set(58)&#45;&gt;set_marker_node_Set(8) -->
<g id="edge12" class="edge">
<title>set_marker_node_Set(58)&#45;&gt;set_marker_node_Set(8)</title>
<g id="a_edge12"><a xlink:title="LoadAssets → PreUpdate">
<path fill="none" stroke="#cf410c" stroke-width="2" d="M157,-54.64C159.49,-55.55 162.01,-56.43 164.54,-57.26"/>
<polygon fill="#cf410c" stroke="#cf410c" stroke-width="2" points="163.52,-60.61 174.1,-60.13 165.53,-53.91 163.52,-60.61"/>
</a>
</g>
</g>
<!-- set_marker_node_Set(59)&#45;&gt;set_marker_node_Set(12) -->
<g id="edge15" class="edge">
<title>set_marker_node_Set(59)&#45;&gt;set_marker_node_Set(12)</title>
<g id="a_edge15"><a xlink:title="AssetEvents → Last">
<path fill="none" stroke="#c4cc1d" stroke-width="2" d="M1291,-57.29C1299.25,-59.1 1307.69,-60.95 1315.48,-62.66"/>
<polygon fill="#c4cc1d" stroke="#c4cc1d" stroke-width="2" points="1314.53,-66.03 1325.04,-64.75 1316.02,-59.19 1314.53,-66.03"/>
</a>
</g>
</g>
</g>
</svg>
