<?xml version="1.0" encoding="UTF-8" standalone="no"?>
<!DOCTYPE svg PUBLIC "-//W3C//DTD SVG 1.1//EN"
 "http://www.w3.org/Graphics/SVG/1.1/DTD/svg11.dtd">
<!-- Generated by graphviz version 7.1.0 (0)
 -->
<!-- Pages: 1 -->
<svg width="1673pt" height="398pt"
 viewBox="0.00 0.00 1673.00 398.00" xmlns="http://www.w3.org/2000/svg" xmlns:xlink="http://www.w3.org/1999/xlink">
<g id="graph0" class="graph" transform="scale(1 1) rotate(0) translate(4 394)">
<polygon fill="#0d1117" stroke="none" points="-4,4 -4,-394 1669,-394 1669,4 -4,4"/>
<g id="clust1" class="cluster">
<title>clusternode_Set(0)</title>
<g id="a_clust1"><a xlink:title="Update">
<polygon fill="#6f90ad" stroke="black" points="1053,-31 1053,-70 1118,-70 1118,-31 1053,-31"/>
<text text-anchor="middle" x="1085.5" y="-54.8" font-family="Helvetica,sans-Serif" font-size="14.00">Update</text>
</a>
</g>
</g>
<g id="clust2" class="cluster">
<title>clusternode_Set(2)</title>
<g id="a_clust2"><a xlink:title="FirstFlush">
<polygon fill="#6f90ad" stroke="black" points="70,-101 70,-140 152,-140 152,-101 70,-101"/>
<text text-anchor="middle" x="111" y="-124.8" font-family="Helvetica,sans-Serif" font-size="14.00">FirstFlush</text>
</a>
</g>
</g>
<g id="clust3" class="cluster">
<title>clusternode_Set(3)</title>
<g id="a_clust3"><a xlink:title="PreUpdateFlush">
<polygon fill="#6f90ad" stroke="black" points="475,-31 475,-70 598,-70 598,-31 475,-31"/>
<text text-anchor="middle" x="536.5" y="-54.8" font-family="Helvetica,sans-Serif" font-size="14.00">PreUpdateFlush</text>
</a>
</g>
</g>
<g id="clust4" class="cluster">
<title>clusternode_Set(4)</title>
<g id="a_clust4"><a xlink:title="UpdateFlush">
<polygon fill="#6f90ad" stroke="black" points="1138,-31 1138,-70 1239,-70 1239,-31 1138,-31"/>
<text text-anchor="middle" x="1188.5" y="-54.8" font-family="Helvetica,sans-Serif" font-size="14.00">UpdateFlush</text>
</a>
</g>
</g>
<g id="clust5" class="cluster">
<title>clusternode_Set(5)</title>
<g id="a_clust5"><a xlink:title="PostUpdateFlush">
<polygon fill="#6f90ad" stroke="black" points="1372,-55 1372,-94 1501,-94 1501,-55 1372,-55"/>
<text text-anchor="middle" x="1436.5" y="-78.8" font-family="Helvetica,sans-Serif" font-size="14.00">PostUpdateFlush</text>
</a>
</g>
</g>
<g id="clust6" class="cluster">
<title>clusternode_Set(6)</title>
<g id="a_clust6"><a xlink:title="LastFlush">
<polygon fill="#6f90ad" stroke="black" points="1585,-20 1585,-59 1665,-59 1665,-20 1585,-20"/>
<text text-anchor="middle" x="1625" y="-43.8" font-family="Helvetica,sans-Serif" font-size="14.00">LastFlush</text>
</a>
</g>
</g>
<g id="clust7" class="cluster">
<title>clusternode_Set(7)</title>
<g id="a_clust7"><a xlink:title="First">
<polygon fill="#6f90ad" stroke="black" points="0,-77 0,-116 46,-116 46,-77 0,-77"/>
<text text-anchor="middle" x="23" y="-100.8" font-family="Helvetica,sans-Serif" font-size="14.00">First</text>
</a>
</g>
</g>
<g id="clust8" class="cluster">
<title>clusternode_Set(8)</title>
<g id="a_clust8"><a xlink:title="PreUpdate">
<polygon fill="#6f90ad" stroke="black" points="169,-78 169,-382 921,-382 921,-78 169,-78"/>
<text text-anchor="middle" x="545" y="-366.8" font-family="Helvetica,sans-Serif" font-size="14.00">PreUpdate</text>
</a>
</g>
</g>
<g id="clust9" class="cluster">
<title>clusternode_Set(24)</title>
<g id="a_clust9"><a xlink:title="InputSystem">
<polygon fill="#6f90ad" stroke="black" points="177,-96 177,-351 913,-351 913,-96 177,-96"/>
<text text-anchor="middle" x="545" y="-335.8" font-family="Helvetica,sans-Serif" font-size="14.00">InputSystem</text>
</a>
</g>
</g>
<g id="clust10" class="cluster">
<title>clusternode_Set(9)</title>
<g id="a_clust10"><a xlink:title="StateTransitions">
<polygon fill="#6f90ad" stroke="black" points="729.5,-31 729.5,-70 853.5,-70 853.5,-31 729.5,-31"/>
<text text-anchor="middle" x="791.5" y="-54.8" font-family="Helvetica,sans-Serif" font-size="14.00">StateTransitions</text>
</a>
</g>
</g>
<g id="clust11" class="cluster">
<title>clusternode_Set(10)</title>
<g id="a_clust11"><a xlink:title="FixedUpdate">
<polygon fill="#6f90ad" stroke="black" points="933,-31 933,-70 1033,-70 1033,-31 933,-31"/>
<text text-anchor="middle" x="983" y="-54.8" font-family="Helvetica,sans-Serif" font-size="14.00">FixedUpdate</text>
</a>
</g>
</g>
<g id="clust12" class="cluster">
<title>clusternode_Set(11)</title>
<g id="a_clust12"><a xlink:title="PostUpdate">
<polygon fill="#6f90ad" stroke="black" points="1259,-31 1259,-70 1352,-70 1352,-31 1259,-31"/>
<text text-anchor="middle" x="1305.5" y="-54.8" font-family="Helvetica,sans-Serif" font-size="14.00">PostUpdate</text>
</a>
</g>
</g>
<g id="clust13" class="cluster">
<title>clusternode_Set(12)</title>
<g id="a_clust13"><a xlink:title="Last">
<polygon fill="#6f90ad" stroke="black" points="1521,-20 1521,-59 1565,-59 1565,-20 1521,-20"/>
<text text-anchor="middle" x="1543" y="-43.8" font-family="Helvetica,sans-Serif" font-size="14.00">Last</text>
</a>
</g>
</g>
<g id="clust14" class="cluster">
<title>clusternode_Set(58)</title>
<g id="a_clust14"><a xlink:title="LoadAssets">
<polygon fill="#6f90ad" stroke="black" points="66,-54 66,-93 157,-93 157,-54 66,-54"/>
<text text-anchor="middle" x="111.5" y="-77.8" font-family="Helvetica,sans-Serif" font-size="14.00">LoadAssets</text>
</a>
</g>
</g>
<g id="clust15" class="cluster">
<title>clusternode_Set(59)</title>
<g id="a_clust15"><a xlink:title="AssetEvents">
<polygon fill="#6f90ad" stroke="black" points="1388,-8 1388,-47 1484,-47 1484,-8 1388,-8"/>
<text text-anchor="middle" x="1436" y="-31.8" font-family="Helvetica,sans-Serif" font-size="14.00">AssetEvents</text>
</a>
</g>
</g>
<!-- set_marker_node_Set(0) -->
<!-- set_marker_node_Set(4) -->
<!-- set_marker_node_Set(0)&#45;&gt;set_marker_node_Set(4) -->
<g id="edge7" class="edge">
<title>set_marker_node_Set(0)&#45;&gt;set_marker_node_Set(4)</title>
<g id="a_edge7"><a xlink:title="Update → UpdateFlush">
<path fill="none" stroke="#cc251d" stroke-width="2" d="M1118,-39C1120.35,-39 1122.77,-39 1125.22,-39"/>
<polygon fill="#cc251d" stroke="#cc251d" stroke-width="2" points="1124.97,-42.5 1134.97,-39 1124.97,-35.5 1124.97,-42.5"/>
</a>
</g>
</g>
<!-- set_marker_node_Set(2) -->
<!-- set_marker_node_Set(8) -->
<!-- set_marker_node_Set(2)&#45;&gt;set_marker_node_Set(8) -->
<g id="edge2" class="edge">
<title>set_marker_node_Set(2)&#45;&gt;set_marker_node_Set(8)</title>
<g id="a_edge2"><a xlink:title="FirstFlush → PreUpdate">
<path fill="none" stroke="#c4cc1d" stroke-width="2" d="M142.21,-101C146.8,-99.61 151.77,-98.02 157.04,-96.24"/>
<polygon fill="#c4cc1d" stroke="#c4cc1d" stroke-width="2" points="157.89,-99.65 166.15,-93.01 155.55,-93.05 157.89,-99.65"/>
</a>
</g>
</g>
<!-- set_marker_node_Set(3) -->
<!-- set_marker_node_Set(9) -->
<!-- set_marker_node_Set(3)&#45;&gt;set_marker_node_Set(9) -->
<g id="edge4" class="edge">
<title>set_marker_node_Set(3)&#45;&gt;set_marker_node_Set(9)</title>
<g id="a_edge4"><a xlink:title="PreUpdateFlush → StateTransitions">
<path fill="none" stroke="#cd1d91" stroke-width="2" d="M598,-39C633.64,-39 678.87,-39 716.53,-39"/>
<polygon fill="#cd1d91" stroke="#cd1d91" stroke-width="2" points="716.48,-42.5 726.48,-39 716.48,-35.5 716.48,-42.5"/>
</a>
</g>
</g>
<!-- set_marker_node_Set(11) -->
<!-- set_marker_node_Set(4)&#45;&gt;set_marker_node_Set(11) -->
<g id="edge8" class="edge">
<title>set_marker_node_Set(4)&#45;&gt;set_marker_node_Set(11)</title>
<g id="a_edge8"><a xlink:title="UpdateFlush → PostUpdate">
<path fill="none" stroke="#ccd60d" stroke-width="2" d="M1239,-39C1241.43,-39 1243.88,-39 1246.32,-39"/>
<polygon fill="#ccd60d" stroke="#ccd60d" stroke-width="2" points="1245.98,-42.5 1255.98,-39 1245.98,-35.5 1245.98,-42.5"/>
</a>
</g>
</g>
<!-- set_marker_node_Set(5) -->
<!-- set_marker_node_Set(12) -->
<!-- set_marker_node_Set(5)&#45;&gt;set_marker_node_Set(12) -->
<g id="edge10" class="edge">
<title>set_marker_node_Set(5)&#45;&gt;set_marker_node_Set(12)</title>
<g id="a_edge10"><a xlink:title="PostUpdateFlush → Last">
<path fill="none" stroke="#58cd0c" stroke-width="2" d="M1488.03,-55C1492.46,-53.84 1496.84,-52.51 1501,-51 1503.86,-49.96 1506.76,-48.74 1509.62,-47.4"/>
<polygon fill="#58cd0c" stroke="#58cd0c" stroke-width="2" points="1511.05,-50.61 1518.32,-42.9 1507.83,-44.39 1511.05,-50.61"/>
</a>
</g>
</g>
<!-- set_marker_node_Set(6) -->
<!-- set_marker_node_Set(7) -->
<!-- set_marker_node_Set(7)&#45;&gt;set_marker_node_Set(2) -->
<g id="edge1" class="edge">
<title>set_marker_node_Set(7)&#45;&gt;set_marker_node_Set(2)</title>
<g id="a_edge1"><a xlink:title="First → FirstFlush">
<path fill="none" stroke="#a6f2d4" stroke-width="2" d="M46,-91.34C52.44,-93.18 59.5,-95.18 66,-97 66.73,-97.2 67.47,-97.41 68.21,-97.62"/>
<polygon fill="#a6f2d4" stroke="#a6f2d4" stroke-width="2" points="67,-100.91 77.57,-100.2 68.86,-94.17 67,-100.91"/>
</a>
</g>
</g>
<!-- set_marker_node_Set(58) -->
<!-- set_marker_node_Set(7)&#45;&gt;set_marker_node_Set(58) -->
<g id="edge18" class="edge">
<title>set_marker_node_Set(7)&#45;&gt;set_marker_node_Set(58)</title>
<g id="a_edge18"><a xlink:title="First → LoadAssets">
<path fill="none" stroke="#1dcd59" stroke-width="2" d="M46,-79.12C48.46,-78.46 51.05,-77.77 53.71,-77.05"/>
<polygon fill="#1dcd59" stroke="#1dcd59" stroke-width="2" points="54.32,-80.51 63.08,-74.55 52.51,-73.75 54.32,-80.51"/>
</a>
</g>
</g>
<!-- set_marker_node_Set(8)&#45;&gt;set_marker_node_Set(3) -->
<g id="edge3" class="edge">
<title>set_marker_node_Set(8)&#45;&gt;set_marker_node_Set(3)</title>
<g id="a_edge3"><a xlink:title="PreUpdate → PreUpdateFlush">
<path fill="none" stroke="#251dcc" stroke-width="2" d="M332.1,-78C367.77,-71.15 419.98,-61.11 462.5,-52.94"/>
<polygon fill="#251dcc" stroke="#251dcc" stroke-width="2" points="462.87,-56.43 472.03,-51.1 461.55,-49.56 462.87,-56.43"/>
</a>
</g>
</g>
<!-- set_marker_node_Set(24) -->
<!-- node_System(15) -->
<g id="node10" class="node">
<title>node_System(15)</title>
<g id="a_node10"><a xlink:title="bevy_input::keyboard::keyboard_input_system">
<polygon fill="#eff1f3" stroke="#eff1f3" points="377.5,-302 201.5,-302 201.5,-266 377.5,-266 377.5,-302"/>
<text text-anchor="middle" x="289.5" y="-280.3" font-family="Times,serif" font-size="14.00">keyboard_input_system</text>
</a>
</g>
</g>
<!-- node_System(19) -->
<g id="node11" class="node">
<title>node_System(19)</title>
<g id="a_node11"><a xlink:title="bevy_input::mouse::mouse_button_input_system">
<polygon fill="#eff1f3" stroke="#eff1f3" points="394,-248 185,-248 185,-212 394,-212 394,-248"/>
<text text-anchor="middle" x="289.5" y="-226.3" font-family="Times,serif" font-size="14.00">mouse_button_input_system</text>
</a>
</g>
</g>
<!-- node_System(24) -->
<g id="node12" class="node">
<title>node_System(24)</title>
<g id="a_node12"><a xlink:title="bevy_input::gamepad::gamepad_event_system">
<polygon fill="#eff1f3" stroke="#eff1f3" points="377.5,-194 201.5,-194 201.5,-158 377.5,-158 377.5,-194"/>
<text text-anchor="middle" x="289.5" y="-172.3" font-family="Times,serif" font-size="14.00">gamepad_event_system</text>
</a>
</g>
</g>
<!-- node_System(25) -->
<g id="node13" class="node">
<title>node_System(25)</title>
<g id="a_node13"><a xlink:title="bevy_input::gamepad::gamepad_connection_system">
<polygon fill="#eff1f3" stroke="#eff1f3" points="642,-194 430,-194 430,-158 642,-158 642,-194"/>
<text text-anchor="middle" x="536" y="-172.3" font-family="Times,serif" font-size="14.00">gamepad_connection_system</text>
</a>
</g>
</g>
<!-- node_System(24)&#45;&gt;node_System(25) -->
<g id="edge12" class="edge">
<title>node_System(24)&#45;&gt;node_System(25)</title>
<g id="a_edge12"><a xlink:title="SystemTypeSet(gamepad_event_system&quot;) → gamepad_connection_system">
<path fill="none" stroke="#cf410c" stroke-width="2" d="M377.73,-176C390.52,-176 403.86,-176 417.13,-176"/>
<polygon fill="#cf410c" stroke="#cf410c" stroke-width="2" points="416.79,-179.5 426.79,-176 416.79,-172.5 416.79,-179.5"/>
</a>
</g>
</g>
<!-- node_System(26) -->
<g id="node14" class="node">
<title>node_System(26)</title>
<g id="a_node14"><a xlink:title="bevy_input::gamepad::gamepad_button_event_system">
<polygon fill="#eff1f3" stroke="#eff1f3" points="905,-167 678,-167 678,-131 905,-131 905,-167"/>
<text text-anchor="middle" x="791.5" y="-145.3" font-family="Times,serif" font-size="14.00">gamepad_button_event_system</text>
</a>
</g>
</g>
<!-- node_System(24)&#45;&gt;node_System(26) -->
<g id="edge13" class="edge">
<title>node_System(24)&#45;&gt;node_System(26)</title>
<g id="a_edge13"><a xlink:title="SystemTypeSet(gamepad_event_system&quot;) → gamepad_button_event_system">
<path fill="none" stroke="#0c9acf" stroke-width="2" d="M372,-157.52C390.94,-153.98 411.09,-150.81 430,-149 507.86,-141.53 595.61,-141.36 665.04,-143.13"/>
<polygon fill="#0c9acf" stroke="#0c9acf" stroke-width="2" points="664.67,-146.62 674.76,-143.4 664.86,-139.63 664.67,-146.62"/>
</a>
</g>
</g>
<!-- node_System(27) -->
<g id="node15" class="node">
<title>node_System(27)</title>
<g id="a_node15"><a xlink:title="bevy_input::gamepad::gamepad_axis_event_system">
<polygon fill="#eff1f3" stroke="#eff1f3" points="896,-226 687,-226 687,-190 896,-190 896,-226"/>
<text text-anchor="middle" x="791.5" y="-204.3" font-family="Times,serif" font-size="14.00">gamepad_axis_event_system</text>
</a>
</g>
</g>
<!-- node_System(24)&#45;&gt;node_System(27) -->
<g id="edge15" class="edge">
<title>node_System(24)&#45;&gt;node_System(27)</title>
<g id="a_edge15"><a xlink:title="SystemTypeSet(gamepad_event_system&quot;) → gamepad_axis_event_system">
<path fill="none" stroke="#c4cc1d" stroke-width="2" d="M373.13,-194.5C391.74,-197.96 411.47,-201.09 430,-203 511.18,-211.35 603.18,-212.49 673.93,-211.6"/>
<polygon fill="#c4cc1d" stroke="#c4cc1d" stroke-width="2" points="673.91,-215.1 683.85,-211.46 673.8,-208.1 673.91,-215.1"/>
</a>
</g>
</g>
<!-- node_System(25)&#45;&gt;node_System(26) -->
<g id="edge14" class="edge">
<title>node_System(25)&#45;&gt;node_System(26)</title>
<g id="a_edge14"><a xlink:title="SystemTypeSet(gamepad_connection_system&quot;) → gamepad_button_event_system">
<path fill="none" stroke="#a6f2d4" stroke-width="2" d="M642.3,-164.78C649.8,-163.99 657.4,-163.18 664.99,-162.37"/>
<polygon fill="#a6f2d4" stroke="#a6f2d4" stroke-width="2" points="665.16,-165.87 674.73,-161.33 664.42,-158.91 665.16,-165.87"/>
</a>
</g>
</g>
<!-- node_System(25)&#45;&gt;node_System(27) -->
<g id="edge16" class="edge">
<title>node_System(25)&#45;&gt;node_System(27)</title>
<g id="a_edge16"><a xlink:title="SystemTypeSet(gamepad_connection_system&quot;) → gamepad_axis_event_system">
<path fill="none" stroke="#251dcc" stroke-width="2" d="M642.3,-189.29C652.75,-190.61 663.39,-191.96 673.94,-193.29"/>
<polygon fill="#251dcc" stroke="#251dcc" stroke-width="2" points="673.38,-196.74 683.74,-194.52 674.26,-189.8 673.38,-196.74"/>
</a>
</g>
</g>
<!-- node_System(29) -->
<g id="node16" class="node">
<title>node_System(29)</title>
<g id="a_node16"><a xlink:title="bevy_input::touch::touch_screen_input_system">
<polygon fill="#eff1f3" stroke="#eff1f3" points="390,-140 189,-140 189,-104 390,-104 390,-140"/>
<text text-anchor="middle" x="289.5" y="-118.3" font-family="Times,serif" font-size="14.00">touch_screen_input_system</text>
</a>
</g>
</g>
<!-- set_marker_node_Set(10) -->
<!-- set_marker_node_Set(9)&#45;&gt;set_marker_node_Set(10) -->
<g id="edge5" class="edge">
<title>set_marker_node_Set(9)&#45;&gt;set_marker_node_Set(10)</title>
<g id="a_edge5"><a xlink:title="StateTransitions → FixedUpdate">
<path fill="none" stroke="#1dcd59" stroke-width="2" d="M853.5,-39C874.79,-39 898.69,-39 920.05,-39"/>
<polygon fill="#1dcd59" stroke="#1dcd59" stroke-width="2" points="919.97,-42.5 929.97,-39 919.97,-35.5 919.97,-42.5"/>
</a>
</g>
</g>
<!-- set_marker_node_Set(10)&#45;&gt;set_marker_node_Set(0) -->
<g id="edge6" class="edge">
<title>set_marker_node_Set(10)&#45;&gt;set_marker_node_Set(0)</title>
<g id="a_edge6"><a xlink:title="FixedUpdate → Update">
<path fill="none" stroke="#1dc4cc" stroke-width="2" d="M1033,-39C1035.37,-39 1037.75,-39 1040.11,-39"/>
<polygon fill="#1dc4cc" stroke="#1dc4cc" stroke-width="2" points="1039.98,-42.5 1049.98,-39 1039.98,-35.5 1039.98,-42.5"/>
</a>
</g>
</g>
<!-- set_marker_node_Set(11)&#45;&gt;set_marker_node_Set(5) -->
<g id="edge9" class="edge">
<title>set_marker_node_Set(11)&#45;&gt;set_marker_node_Set(5)</title>
<g id="a_edge9"><a xlink:title="PostUpdate → PostUpdateFlush">
<path fill="none" stroke="#29e000" stroke-width="2" d="M1352,-47.56C1360.83,-49.2 1370.16,-50.94 1379.26,-52.63"/>
<polygon fill="#29e000" stroke="#29e000" stroke-width="2" points="1378.56,-56.06 1389.04,-54.45 1379.84,-49.18 1378.56,-56.06"/>
</a>
</g>
</g>
<!-- set_marker_node_Set(59) -->
<!-- set_marker_node_Set(11)&#45;&gt;set_marker_node_Set(59) -->
<g id="edge19" class="edge">
<title>set_marker_node_Set(11)&#45;&gt;set_marker_node_Set(59)</title>
<g id="a_edge19"><a xlink:title="PostUpdate → AssetEvents">
<path fill="none" stroke="#1dc4cc" stroke-width="2" d="M1350.87,-31C1358.84,-29.58 1367.26,-28.08 1375.57,-26.6"/>
<polygon fill="#1dc4cc" stroke="#1dc4cc" stroke-width="2" points="1375.79,-30.11 1385.02,-24.91 1374.56,-23.22 1375.79,-30.11"/>
</a>
</g>
</g>
<!-- set_marker_node_Set(12)&#45;&gt;set_marker_node_Set(6) -->
<g id="edge11" class="edge">
<title>set_marker_node_Set(12)&#45;&gt;set_marker_node_Set(6)</title>
<g id="a_edge11"><a xlink:title="Last → LastFlush">
<path fill="none" stroke="#810ccd" stroke-width="2" d="M1565,-28C1567.31,-28 1569.74,-28 1572.23,-28"/>
<polygon fill="#810ccd" stroke="#810ccd" stroke-width="2" points="1571.98,-31.5 1581.98,-28 1571.98,-24.5 1571.98,-31.5"/>
</a>
</g>
</g>
<!-- set_marker_node_Set(58)&#45;&gt;set_marker_node_Set(8) -->
<g id="edge17" class="edge">
<title>set_marker_node_Set(58)&#45;&gt;set_marker_node_Set(8)</title>
<g id="a_edge17"><a xlink:title="LoadAssets → PreUpdate">
<path fill="none" stroke="#cd1d91" stroke-width="2" d="M157,-68.12C175.18,-70.59 196.6,-73.5 216.83,-76.25"/>
<polygon fill="#cd1d91" stroke="#cd1d91" stroke-width="2" points="216.31,-79.72 226.69,-77.6 217.25,-72.78 216.31,-79.72"/>
</a>
</g>
</g>
<!-- set_marker_node_Set(59)&#45;&gt;set_marker_node_Set(12) -->
<g id="edge20" class="edge">
<title>set_marker_node_Set(59)&#45;&gt;set_marker_node_Set(12)</title>
<g id="a_edge20"><a xlink:title="AssetEvents → Last">
<path fill="none" stroke="#cc251d" stroke-width="2" d="M1484,-21.37C1492.11,-22.3 1500.4,-23.25 1508.08,-24.12"/>
<polygon fill="#cc251d" stroke="#cc251d" stroke-width="2" points="1507.66,-27.6 1518,-25.26 1508.46,-20.64 1507.66,-27.6"/>
</a>
</g>
</g>
</g>
</svg>
