<?xml version="1.0" encoding="UTF-8" standalone="no"?>
<!DOCTYPE svg PUBLIC "-//W3C//DTD SVG 1.1//EN"
 "http://www.w3.org/Graphics/SVG/1.1/DTD/svg11.dtd">
<!-- Generated by graphviz version 7.1.0 (0)
 -->
<!-- Pages: 1 -->
<svg width="1768pt" height="234pt"
 viewBox="0.00 0.00 1768.00 234.00" xmlns="http://www.w3.org/2000/svg" xmlns:xlink="http://www.w3.org/1999/xlink">
<g id="graph0" class="graph" transform="scale(1 1) rotate(0) translate(4 230)">
<polygon fill="#0d1117" stroke="none" points="-4,4 -4,-230 1764,-230 1764,4 -4,4"/>
<g id="clust1" class="cluster">
<title>clusternode_Set(0)</title>
<g id="a_clust1"><a xlink:title="Update">
<polygon fill="#6f90ad" stroke="black" points="691,-156 691,-195 756,-195 756,-156 691,-156"/>
<text text-anchor="middle" x="723.5" y="-179.8" font-family="Helvetica,sans-Serif" font-size="14.00">Update</text>
</a>
</g>
</g>
<g id="clust2" class="cluster">
<title>clusternode_Set(2)</title>
<g id="a_clust2"><a xlink:title="FirstFlush">
<polygon fill="#6f90ad" stroke="black" points="70,-179 70,-218 152,-218 152,-179 70,-179"/>
<text text-anchor="middle" x="111" y="-202.8" font-family="Helvetica,sans-Serif" font-size="14.00">FirstFlush</text>
</a>
</g>
</g>
<g id="clust3" class="cluster">
<title>clusternode_Set(3)</title>
<g id="a_clust3"><a xlink:title="PreUpdateFlush">
<polygon fill="#6f90ad" stroke="black" points="284,-156 284,-195 407,-195 407,-156 284,-156"/>
<text text-anchor="middle" x="345.5" y="-179.8" font-family="Helvetica,sans-Serif" font-size="14.00">PreUpdateFlush</text>
</a>
</g>
</g>
<g id="clust4" class="cluster">
<title>clusternode_Set(4)</title>
<g id="a_clust4"><a xlink:title="UpdateFlush">
<polygon fill="#6f90ad" stroke="black" points="954,-156 954,-195 1055,-195 1055,-156 954,-156"/>
<text text-anchor="middle" x="1004.5" y="-179.8" font-family="Helvetica,sans-Serif" font-size="14.00">UpdateFlush</text>
</a>
</g>
</g>
<g id="clust5" class="cluster">
<title>clusternode_Set(5)</title>
<g id="a_clust5"><a xlink:title="PostUpdateFlush">
<polygon fill="#6f90ad" stroke="black" points="1467,-167 1467,-206 1596,-206 1596,-167 1467,-167"/>
<text text-anchor="middle" x="1531.5" y="-190.8" font-family="Helvetica,sans-Serif" font-size="14.00">PostUpdateFlush</text>
</a>
</g>
</g>
<g id="clust6" class="cluster">
<title>clusternode_Set(6)</title>
<g id="a_clust6"><a xlink:title="LastFlush">
<polygon fill="#6f90ad" stroke="black" points="1680,-143 1680,-182 1760,-182 1760,-143 1680,-143"/>
<text text-anchor="middle" x="1720" y="-166.8" font-family="Helvetica,sans-Serif" font-size="14.00">LastFlush</text>
</a>
</g>
</g>
<g id="clust7" class="cluster">
<title>clusternode_Set(7)</title>
<g id="a_clust7"><a xlink:title="First">
<polygon fill="#6f90ad" stroke="black" points="0,-155 0,-194 46,-194 46,-155 0,-155"/>
<text text-anchor="middle" x="23" y="-178.8" font-family="Helvetica,sans-Serif" font-size="14.00">First</text>
</a>
</g>
</g>
<g id="clust8" class="cluster">
<title>clusternode_Set(8)</title>
<g id="a_clust8"><a xlink:title="PreUpdate">
<polygon fill="#6f90ad" stroke="black" points="177,-156 177,-195 264,-195 264,-156 177,-156"/>
<text text-anchor="middle" x="220.5" y="-179.8" font-family="Helvetica,sans-Serif" font-size="14.00">PreUpdate</text>
</a>
</g>
</g>
<g id="clust9" class="cluster">
<title>clusternode_Set(9)</title>
<g id="a_clust9"><a xlink:title="StateTransitions">
<polygon fill="#6f90ad" stroke="black" points="427,-156 427,-195 551,-195 551,-156 427,-156"/>
<text text-anchor="middle" x="489" y="-179.8" font-family="Helvetica,sans-Serif" font-size="14.00">StateTransitions</text>
</a>
</g>
</g>
<g id="clust10" class="cluster">
<title>clusternode_Set(10)</title>
<g id="a_clust10"><a xlink:title="FixedUpdate">
<polygon fill="#6f90ad" stroke="black" points="571,-156 571,-195 671,-195 671,-156 571,-156"/>
<text text-anchor="middle" x="621" y="-179.8" font-family="Helvetica,sans-Serif" font-size="14.00">FixedUpdate</text>
</a>
</g>
</g>
<g id="clust11" class="cluster">
<title>clusternode_Set(11)</title>
<g id="a_clust11"><a xlink:title="PostUpdate">
<polygon fill="#6f90ad" stroke="black" points="1244,-55 1244,-195 1455,-195 1455,-55 1244,-55"/>
<text text-anchor="middle" x="1349.5" y="-179.8" font-family="Helvetica,sans-Serif" font-size="14.00">PostUpdate</text>
</a>
</g>
</g>
<g id="clust12" class="cluster">
<title>clusternode_Set(20)</title>
<g id="a_clust12"><a xlink:title="TransformPropagate">
<polygon fill="#6f90ad" stroke="black" points="1252,-63 1252,-156 1447,-156 1447,-63 1252,-63"/>
<text text-anchor="middle" x="1349.5" y="-140.8" font-family="Helvetica,sans-Serif" font-size="14.00">TransformPropagate</text>
</a>
</g>
</g>
<g id="clust13" class="cluster">
<title>clusternode_Set(12)</title>
<g id="a_clust13"><a xlink:title="Last">
<polygon fill="#6f90ad" stroke="black" points="1616,-143 1616,-182 1660,-182 1660,-143 1616,-143"/>
<text text-anchor="middle" x="1638" y="-166.8" font-family="Helvetica,sans-Serif" font-size="14.00">Last</text>
</a>
</g>
</g>
<g id="clust14" class="cluster">
<title>clusternode_Set(22)</title>
<g id="a_clust14"><a xlink:title="PropagateTransformsSet">
<polygon fill="#6f90ad" stroke="black" points="1259.5,-8 1259.5,-47 1439.5,-47 1439.5,-8 1259.5,-8"/>
<text text-anchor="middle" x="1349.5" y="-31.8" font-family="Helvetica,sans-Serif" font-size="14.00">PropagateTransformsSet</text>
</a>
</g>
</g>
<g id="clust15" class="cluster">
<title>clusternode_Set(59)</title>
<g id="a_clust15"><a xlink:title="LoadAssets">
<polygon fill="#6f90ad" stroke="black" points="66,-132 66,-171 157,-171 157,-132 66,-132"/>
<text text-anchor="middle" x="111.5" y="-155.8" font-family="Helvetica,sans-Serif" font-size="14.00">LoadAssets</text>
</a>
</g>
</g>
<g id="clust16" class="cluster">
<title>clusternode_Set(60)</title>
<g id="a_clust16"><a xlink:title="AssetEvents">
<polygon fill="#6f90ad" stroke="black" points="1483,-120 1483,-159 1579,-159 1579,-120 1483,-120"/>
<text text-anchor="middle" x="1531" y="-143.8" font-family="Helvetica,sans-Serif" font-size="14.00">AssetEvents</text>
</a>
</g>
</g>
<!-- set_marker_node_Set(0) -->
<!-- set_marker_node_Set(4) -->
<!-- set_marker_node_Set(0)&#45;&gt;set_marker_node_Set(4) -->
<g id="edge9" class="edge">
<title>set_marker_node_Set(0)&#45;&gt;set_marker_node_Set(4)</title>
<g id="a_edge9"><a xlink:title="Update → UpdateFlush">
<path fill="none" stroke="#ee9e44" stroke-width="2" d="M756,-164C801.01,-164 883.92,-164 941.19,-164"/>
<polygon fill="#ee9e44" stroke="#ee9e44" stroke-width="2" points="940.98,-167.5 950.98,-164 940.98,-160.5 940.98,-167.5"/>
</a>
</g>
</g>
<!-- set_marker_node_Set(2) -->
<!-- set_marker_node_Set(8) -->
<!-- set_marker_node_Set(2)&#45;&gt;set_marker_node_Set(8) -->
<g id="edge4" class="edge">
<title>set_marker_node_Set(2)&#45;&gt;set_marker_node_Set(8)</title>
<g id="a_edge4"><a xlink:title="FirstFlush → PreUpdate">
<path fill="none" stroke="#881877" stroke-width="2" d="M149.2,-179C154.17,-177.94 159.34,-176.82 164.52,-175.71"/>
<polygon fill="#881877" stroke="#881877" stroke-width="2" points="165,-179.19 174.04,-173.66 163.53,-172.34 165,-179.19"/>
</a>
</g>
</g>
<!-- set_marker_node_Set(3) -->
<!-- set_marker_node_Set(9) -->
<!-- set_marker_node_Set(3)&#45;&gt;set_marker_node_Set(9) -->
<g id="edge6" class="edge">
<title>set_marker_node_Set(3)&#45;&gt;set_marker_node_Set(9)</title>
<g id="a_edge6"><a xlink:title="PreUpdateFlush → StateTransitions">
<path fill="none" stroke="#aa3a55" stroke-width="2" d="M407,-164C409.39,-164 411.8,-164 414.21,-164"/>
<polygon fill="#aa3a55" stroke="#aa3a55" stroke-width="2" points="413.98,-167.5 423.98,-164 413.98,-160.5 413.98,-167.5"/>
</a>
</g>
</g>
<!-- set_marker_node_Set(11) -->
<!-- set_marker_node_Set(4)&#45;&gt;set_marker_node_Set(11) -->
<g id="edge10" class="edge">
<title>set_marker_node_Set(4)&#45;&gt;set_marker_node_Set(11)</title>
<g id="a_edge10"><a xlink:title="UpdateFlush → PostUpdate">
<path fill="none" stroke="#663699" stroke-width="2" d="M1055,-164C1101.04,-164 1171.12,-164 1231.25,-164"/>
<polygon fill="#663699" stroke="#663699" stroke-width="2" points="1230.97,-167.5 1240.97,-164 1230.97,-160.5 1230.97,-167.5"/>
</a>
</g>
</g>
<!-- set_marker_node_Set(5) -->
<!-- set_marker_node_Set(12) -->
<!-- set_marker_node_Set(5)&#45;&gt;set_marker_node_Set(12) -->
<g id="edge12" class="edge">
<title>set_marker_node_Set(5)&#45;&gt;set_marker_node_Set(12)</title>
<g id="a_edge12"><a xlink:title="PostUpdateFlush → Last">
<path fill="none" stroke="#22c2bb" stroke-width="2" d="M1577.71,-167C1583.88,-165.76 1590.11,-164.41 1596,-163 1598.46,-162.41 1600.99,-161.77 1603.52,-161.09"/>
<polygon fill="#22c2bb" stroke="#22c2bb" stroke-width="2" points="1604.41,-164.48 1613.09,-158.4 1602.51,-157.74 1604.41,-164.48"/>
</a>
</g>
</g>
<!-- set_marker_node_Set(6) -->
<!-- set_marker_node_Set(7) -->
<!-- set_marker_node_Set(7)&#45;&gt;set_marker_node_Set(2) -->
<g id="edge3" class="edge">
<title>set_marker_node_Set(7)&#45;&gt;set_marker_node_Set(2)</title>
<g id="a_edge3"><a xlink:title="First → FirstFlush">
<path fill="none" stroke="#eede00" stroke-width="2" d="M46,-169.34C52.44,-171.18 59.5,-173.18 66,-175 66.73,-175.2 67.47,-175.41 68.21,-175.62"/>
<polygon fill="#eede00" stroke="#eede00" stroke-width="2" points="67,-178.91 77.57,-178.2 68.86,-172.17 67,-178.91"/>
</a>
</g>
</g>
<!-- set_marker_node_Set(59) -->
<!-- set_marker_node_Set(7)&#45;&gt;set_marker_node_Set(59) -->
<g id="edge15" class="edge">
<title>set_marker_node_Set(7)&#45;&gt;set_marker_node_Set(59)</title>
<g id="a_edge15"><a xlink:title="First → LoadAssets">
<path fill="none" stroke="#881877" stroke-width="2" d="M46,-157.12C48.46,-156.46 51.05,-155.77 53.71,-155.05"/>
<polygon fill="#881877" stroke="#881877" stroke-width="2" points="54.32,-158.51 63.08,-152.55 52.51,-151.75 54.32,-158.51"/>
</a>
</g>
</g>
<!-- set_marker_node_Set(8)&#45;&gt;set_marker_node_Set(3) -->
<g id="edge5" class="edge">
<title>set_marker_node_Set(8)&#45;&gt;set_marker_node_Set(3)</title>
<g id="a_edge5"><a xlink:title="PreUpdate → PreUpdateFlush">
<path fill="none" stroke="#00b0cc" stroke-width="2" d="M264,-164C266.39,-164 268.82,-164 271.28,-164"/>
<polygon fill="#00b0cc" stroke="#00b0cc" stroke-width="2" points="270.98,-167.5 280.98,-164 270.98,-160.5 270.98,-167.5"/>
</a>
</g>
</g>
<!-- set_marker_node_Set(10) -->
<!-- set_marker_node_Set(9)&#45;&gt;set_marker_node_Set(10) -->
<g id="edge7" class="edge">
<title>set_marker_node_Set(9)&#45;&gt;set_marker_node_Set(10)</title>
<g id="a_edge7"><a xlink:title="StateTransitions → FixedUpdate">
<path fill="none" stroke="#44d488" stroke-width="2" d="M551,-164C553.39,-164 555.79,-164 558.19,-164"/>
<polygon fill="#44d488" stroke="#44d488" stroke-width="2" points="557.98,-167.5 567.98,-164 557.98,-160.5 557.98,-167.5"/>
</a>
</g>
</g>
<!-- set_marker_node_Set(10)&#45;&gt;set_marker_node_Set(0) -->
<g id="edge8" class="edge">
<title>set_marker_node_Set(10)&#45;&gt;set_marker_node_Set(0)</title>
<g id="a_edge8"><a xlink:title="FixedUpdate → Update">
<path fill="none" stroke="#0090cc" stroke-width="2" d="M671,-164C673.37,-164 675.75,-164 678.11,-164"/>
<polygon fill="#0090cc" stroke="#0090cc" stroke-width="2" points="677.98,-167.5 687.98,-164 677.98,-160.5 677.98,-167.5"/>
</a>
</g>
</g>
<!-- set_marker_node_Set(11)&#45;&gt;set_marker_node_Set(5) -->
<g id="edge11" class="edge">
<title>set_marker_node_Set(11)&#45;&gt;set_marker_node_Set(5)</title>
<g id="a_edge11"><a xlink:title="PostUpdate → PostUpdateFlush">
<path fill="none" stroke="#3363bb" stroke-width="2" d="M1455,-170.35C1458,-170.55 1461,-170.74 1464,-170.94"/>
<polygon fill="#3363bb" stroke="#3363bb" stroke-width="2" points="1453.77,-173.77 1463.98,-170.94 1454.24,-166.79 1453.77,-173.77"/>
</a>
</g>
</g>
<!-- set_marker_node_Set(60) -->
<!-- set_marker_node_Set(11)&#45;&gt;set_marker_node_Set(60) -->
<g id="edge16" class="edge">
<title>set_marker_node_Set(11)&#45;&gt;set_marker_node_Set(60)</title>
<g id="a_edge16"><a xlink:title="PostUpdate → AssetEvents">
<path fill="none" stroke="#00b0cc" stroke-width="2" d="M1455,-160C1460.23,-158.83 1465.56,-157.3 1470.84,-155.55"/>
<polygon fill="#00b0cc" stroke="#00b0cc" stroke-width="2" points="1471.96,-158.86 1480.16,-152.15 1469.56,-152.29 1471.96,-158.86"/>
</a>
</g>
</g>
<!-- set_marker_node_Set(20) -->
<!-- node_System(11) -->
<g id="node13" class="node">
<title>node_System(11)</title>
<g id="a_node13"><a xlink:title="bevy_transform::systems::sync_simple_transforms">
<polygon fill="#eff1f3" stroke="#eff1f3" points="1439,-107 1260,-107 1260,-71 1439,-71 1439,-107"/>
<text text-anchor="middle" x="1349.5" y="-85.3" font-family="Times,serif" font-size="14.00">sync_simple_transforms</text>
</a>
</g>
</g>
<!-- set_marker_node_Set(12)&#45;&gt;set_marker_node_Set(6) -->
<g id="edge13" class="edge">
<title>set_marker_node_Set(12)&#45;&gt;set_marker_node_Set(6)</title>
<g id="a_edge13"><a xlink:title="Last → LastFlush">
<path fill="none" stroke="#99d955" stroke-width="2" d="M1660,-151C1662.31,-151 1664.74,-151 1667.23,-151"/>
<polygon fill="#99d955" stroke="#99d955" stroke-width="2" points="1666.98,-154.5 1676.98,-151 1666.98,-147.5 1666.98,-154.5"/>
</a>
</g>
</g>
<!-- set_marker_node_Set(22) -->
<!-- set_marker_node_Set(59)&#45;&gt;set_marker_node_Set(8) -->
<g id="edge14" class="edge">
<title>set_marker_node_Set(59)&#45;&gt;set_marker_node_Set(8)</title>
<g id="a_edge14"><a xlink:title="LoadAssets → PreUpdate">
<path fill="none" stroke="#eede00" stroke-width="2" d="M157,-150.09C161.6,-151.12 166.28,-152.18 170.91,-153.21"/>
<polygon fill="#eede00" stroke="#eede00" stroke-width="2" points="169.87,-156.57 180.39,-155.34 171.4,-149.74 169.87,-156.57"/>
</a>
</g>
</g>
<!-- set_marker_node_Set(60)&#45;&gt;set_marker_node_Set(12) -->
<g id="edge17" class="edge">
<title>set_marker_node_Set(60)&#45;&gt;set_marker_node_Set(12)</title>
<g id="a_edge17"><a xlink:title="AssetEvents → Last">
<path fill="none" stroke="#aa3a55" stroke-width="2" d="M1579,-138.29C1587.25,-140.1 1595.69,-141.95 1603.48,-143.66"/>
<polygon fill="#aa3a55" stroke="#aa3a55" stroke-width="2" points="1602.53,-147.03 1613.04,-145.75 1604.02,-140.19 1602.53,-147.03"/>
</a>
</g>
</g>
<!-- node_System(12) -->
<g id="node18" class="node">
<title>node_System(12)</title>
<g id="a_node18"><a xlink:title="bevy_transform::systems::propagate_transforms">
<polygon fill="#eff1f3" stroke="#eff1f3" points="1224,-89 784,-89 784,-51 1224,-51 1224,-89"/>
<text text-anchor="middle" x="1004" y="-73.8" font-family="Times,serif" font-size="14.00">propagate_transforms</text>
<text text-anchor="middle" x="1004" y="-58.8" font-family="Times,serif" font-size="14.00">In multiple sets, TransformPropagate, PropagateTransformsSet</text>
</a>
</g>
</g>
<!-- node_System(12)&#45;&gt;set_marker_node_Set(20) -->
<g id="edge1" class="edge">
<title>node_System(12)&#45;&gt;set_marker_node_Set(20)</title>
<path fill="none" stroke="blue" stroke-width="2" d="M1094.29,-89.48C1139.05,-98.66 1194.2,-109.08 1244,-116 1246.63,-116.37 1249.3,-116.72 1252,-117.06"/>
</g>
<!-- node_System(12)&#45;&gt;set_marker_node_Set(22) -->
<g id="edge2" class="edge">
<title>node_System(12)&#45;&gt;set_marker_node_Set(22)</title>
<path fill="none" stroke="blue" stroke-width="2" d="M1129.01,-50.5C1172.19,-43.72 1219.73,-36.24 1259.5,-29.99"/>
</g>
</g>
</svg>
