<?xml version="1.0" encoding="UTF-8" standalone="no"?>
<!DOCTYPE svg PUBLIC "-//W3C//DTD SVG 1.1//EN"
 "http://www.w3.org/Graphics/SVG/1.1/DTD/svg11.dtd">
<!-- Generated by graphviz version 7.1.0 (0)
 -->
<!-- Pages: 1 -->
<svg width="1752pt" height="344pt"
 viewBox="0.00 0.00 1752.00 344.00" xmlns="http://www.w3.org/2000/svg" xmlns:xlink="http://www.w3.org/1999/xlink">
<g id="graph0" class="graph" transform="scale(1 1) rotate(0) translate(4 340)">
<polygon fill="#0d1117" stroke="none" points="-4,4 -4,-340 1748,-340 1748,4 -4,4"/>
<g id="clust1" class="cluster">
<title>clusternode_Set(0)</title>
<g id="a_clust1"><a xlink:title="Update">
<path fill="#ffffff" fill-opacity="0.266667" stroke="#ffffff" stroke-width="2" stroke-opacity="0.313725" d="M825,-8C825,-8 1011,-8 1011,-8 1017,-8 1023,-14 1023,-20 1023,-20 1023,-269 1023,-269 1023,-275 1017,-281 1011,-281 1011,-281 825,-281 825,-281 819,-281 813,-275 813,-269 813,-269 813,-20 813,-20 813,-14 819,-8 825,-8"/>
<text text-anchor="middle" x="918" y="-265.8" font-family="Helvetica,sans-Serif" font-size="14.00">Update</text>
</a>
</g>
</g>
<g id="clust2" class="cluster">
<title>clusternode_Set(2)</title>
<g id="a_clust2"><a xlink:title="FirstFlush">
<path fill="#ffffff" fill-opacity="0.266667" stroke="#ffffff" stroke-width="2" stroke-opacity="0.313725" d="M87,-262C87,-262 145,-262 145,-262 151,-262 157,-268 157,-274 157,-274 157,-289 157,-289 157,-295 151,-301 145,-301 145,-301 87,-301 87,-301 81,-301 75,-295 75,-289 75,-289 75,-274 75,-274 75,-268 81,-262 87,-262"/>
<text text-anchor="middle" x="116" y="-285.8" font-family="Helvetica,sans-Serif" font-size="14.00">FirstFlush</text>
</a>
</g>
</g>
<g id="clust3" class="cluster">
<title>clusternode_Set(3)</title>
<g id="a_clust3"><a xlink:title="PreUpdateFlush">
<path fill="#ffffff" fill-opacity="0.266667" stroke="#ffffff" stroke-width="2" stroke-opacity="0.313725" d="M295,-242C295,-242 394,-242 394,-242 400,-242 406,-248 406,-254 406,-254 406,-269 406,-269 406,-275 400,-281 394,-281 394,-281 295,-281 295,-281 289,-281 283,-275 283,-269 283,-269 283,-254 283,-254 283,-248 289,-242 295,-242"/>
<text text-anchor="middle" x="344.5" y="-265.8" font-family="Helvetica,sans-Serif" font-size="14.00">PreUpdateFlush</text>
</a>
</g>
</g>
<g id="clust4" class="cluster">
<title>clusternode_Set(4)</title>
<g id="a_clust4"><a xlink:title="UpdateFlush">
<path fill="#ffffff" fill-opacity="0.266667" stroke="#ffffff" stroke-width="2" stroke-opacity="0.313725" d="M1054,-242C1054,-242 1131,-242 1131,-242 1137,-242 1143,-248 1143,-254 1143,-254 1143,-269 1143,-269 1143,-275 1137,-281 1131,-281 1131,-281 1054,-281 1054,-281 1048,-281 1042,-275 1042,-269 1042,-269 1042,-254 1042,-254 1042,-248 1048,-242 1054,-242"/>
<text text-anchor="middle" x="1092.5" y="-265.8" font-family="Helvetica,sans-Serif" font-size="14.00">UpdateFlush</text>
</a>
</g>
</g>
<g id="clust5" class="cluster">
<title>clusternode_Set(5)</title>
<g id="a_clust5"><a xlink:title="PostUpdateFlush">
<path fill="#ffffff" fill-opacity="0.266667" stroke="#ffffff" stroke-width="2" stroke-opacity="0.313725" d="M1282,-262C1282,-262 1387,-262 1387,-262 1393,-262 1399,-268 1399,-274 1399,-274 1399,-289 1399,-289 1399,-295 1393,-301 1387,-301 1387,-301 1282,-301 1282,-301 1276,-301 1270,-295 1270,-289 1270,-289 1270,-274 1270,-274 1270,-268 1276,-262 1282,-262"/>
<text text-anchor="middle" x="1334.5" y="-285.8" font-family="Helvetica,sans-Serif" font-size="14.00">PostUpdateFlush</text>
</a>
</g>
</g>
<g id="clust6" class="cluster">
<title>clusternode_Set(6)</title>
<g id="a_clust6"><a xlink:title="LastFlush">
<path fill="#ffffff" fill-opacity="0.266667" stroke="#ffffff" stroke-width="2" stroke-opacity="0.313725" d="M1633,-195C1633,-195 1689,-195 1689,-195 1695,-195 1701,-201 1701,-207 1701,-207 1701,-222 1701,-222 1701,-228 1695,-234 1689,-234 1689,-234 1633,-234 1633,-234 1627,-234 1621,-228 1621,-222 1621,-222 1621,-207 1621,-207 1621,-201 1627,-195 1633,-195"/>
<text text-anchor="middle" x="1661" y="-218.8" font-family="Helvetica,sans-Serif" font-size="14.00">LastFlush</text>
</a>
</g>
</g>
<g id="clust7" class="cluster">
<title>clusternode_Set(7)</title>
<g id="a_clust7"><a xlink:title="First">
<path fill="#ffffff" fill-opacity="0.266667" stroke="#ffffff" stroke-width="2" stroke-opacity="0.313725" d="M20,-242C20,-242 42,-242 42,-242 48,-242 54,-248 54,-254 54,-254 54,-269 54,-269 54,-275 48,-281 42,-281 42,-281 20,-281 20,-281 14,-281 8,-275 8,-269 8,-269 8,-254 8,-254 8,-248 14,-242 20,-242"/>
<text text-anchor="middle" x="31" y="-265.8" font-family="Helvetica,sans-Serif" font-size="14.00">First</text>
</a>
</g>
</g>
<g id="clust8" class="cluster">
<title>clusternode_Set(8)</title>
<g id="a_clust8"><a xlink:title="PreUpdate">
<path fill="#ffffff" fill-opacity="0.266667" stroke="#ffffff" stroke-width="2" stroke-opacity="0.313725" d="M191,-242C191,-242 254,-242 254,-242 260,-242 266,-248 266,-254 266,-254 266,-269 266,-269 266,-275 260,-281 254,-281 254,-281 191,-281 191,-281 185,-281 179,-275 179,-269 179,-269 179,-254 179,-254 179,-248 185,-242 191,-242"/>
<text text-anchor="middle" x="222.5" y="-265.8" font-family="Helvetica,sans-Serif" font-size="14.00">PreUpdate</text>
</a>
</g>
</g>
<g id="clust9" class="cluster">
<title>clusternode_Set(9)</title>
<g id="a_clust9"><a xlink:title="StateTransitions">
<path fill="#ffffff" fill-opacity="0.266667" stroke="#ffffff" stroke-width="2" stroke-opacity="0.313725" d="M435,-242C435,-242 535,-242 535,-242 541,-242 547,-248 547,-254 547,-254 547,-269 547,-269 547,-275 541,-281 535,-281 535,-281 435,-281 435,-281 429,-281 423,-275 423,-269 423,-269 423,-254 423,-254 423,-248 429,-242 435,-242"/>
<text text-anchor="middle" x="485" y="-265.8" font-family="Helvetica,sans-Serif" font-size="14.00">StateTransitions</text>
</a>
</g>
</g>
<g id="clust10" class="cluster">
<title>clusternode_Set(10)</title>
<g id="a_clust10"><a xlink:title="FixedUpdate">
<path fill="#ffffff" fill-opacity="0.266667" stroke="#ffffff" stroke-width="2" stroke-opacity="0.313725" d="M576,-242C576,-242 652,-242 652,-242 658,-242 664,-248 664,-254 664,-254 664,-269 664,-269 664,-275 658,-281 652,-281 652,-281 576,-281 576,-281 570,-281 564,-275 564,-269 564,-269 564,-254 564,-254 564,-248 570,-242 576,-242"/>
<text text-anchor="middle" x="614" y="-265.8" font-family="Helvetica,sans-Serif" font-size="14.00">FixedUpdate</text>
</a>
</g>
</g>
<g id="clust11" class="cluster">
<title>clusternode_Set(11)</title>
<g id="a_clust11"><a xlink:title="PostUpdate">
<path fill="#ffffff" fill-opacity="0.266667" stroke="#ffffff" stroke-width="2" stroke-opacity="0.313725" d="M1172,-242C1172,-242 1241,-242 1241,-242 1247,-242 1253,-248 1253,-254 1253,-254 1253,-269 1253,-269 1253,-275 1247,-281 1241,-281 1241,-281 1172,-281 1172,-281 1166,-281 1160,-275 1160,-269 1160,-269 1160,-254 1160,-254 1160,-248 1166,-242 1172,-242"/>
<text text-anchor="middle" x="1206.5" y="-265.8" font-family="Helvetica,sans-Serif" font-size="14.00">PostUpdate</text>
</a>
</g>
</g>
<g id="clust12" class="cluster">
<title>clusternode_Set(12)</title>
<g id="a_clust12"><a xlink:title="Last">
<path fill="#ffffff" fill-opacity="0.266667" stroke="#ffffff" stroke-width="2" stroke-opacity="0.313725" d="M1430,-242C1430,-242 1724,-242 1724,-242 1730,-242 1736,-248 1736,-254 1736,-254 1736,-316 1736,-316 1736,-322 1730,-328 1724,-328 1724,-328 1430,-328 1430,-328 1424,-328 1418,-322 1418,-316 1418,-316 1418,-254 1418,-254 1418,-248 1424,-242 1430,-242"/>
<text text-anchor="middle" x="1577" y="-312.8" font-family="Helvetica,sans-Serif" font-size="14.00">Last</text>
</a>
</g>
</g>
<g id="clust13" class="cluster">
<title>clusternode_Set(59)</title>
<g id="a_clust13"><a xlink:title="LoadAssets">
<path fill="#ffffff" fill-opacity="0.266667" stroke="#ffffff" stroke-width="2" stroke-opacity="0.313725" d="M83,-215C83,-215 150,-215 150,-215 156,-215 162,-221 162,-227 162,-227 162,-242 162,-242 162,-248 156,-254 150,-254 150,-254 83,-254 83,-254 77,-254 71,-248 71,-242 71,-242 71,-227 71,-227 71,-221 77,-215 83,-215"/>
<text text-anchor="middle" x="116.5" y="-238.8" font-family="Helvetica,sans-Serif" font-size="14.00">LoadAssets</text>
</a>
</g>
</g>
<g id="clust14" class="cluster">
<title>clusternode_Set(60)</title>
<g id="a_clust14"><a xlink:title="AssetEvents">
<path fill="#ffffff" fill-opacity="0.266667" stroke="#ffffff" stroke-width="2" stroke-opacity="0.313725" d="M1298,-215C1298,-215 1370,-215 1370,-215 1376,-215 1382,-221 1382,-227 1382,-227 1382,-242 1382,-242 1382,-248 1376,-254 1370,-254 1370,-254 1298,-254 1298,-254 1292,-254 1286,-248 1286,-242 1286,-242 1286,-227 1286,-227 1286,-221 1292,-215 1298,-215"/>
<text text-anchor="middle" x="1334" y="-238.8" font-family="Helvetica,sans-Serif" font-size="14.00">AssetEvents</text>
</a>
</g>
</g>
<!-- set_marker_node_Set(0) -->
<!-- set_marker_node_Set(4) -->
<!-- set_marker_node_Set(0)&#45;&gt;set_marker_node_Set(4) -->
<g id="edge7" class="edge">
<title>set_marker_node_Set(0)&#45;&gt;set_marker_node_Set(4)</title>
<g id="a_edge7"><a xlink:title="Update → UpdateFlush">
<path fill="none" stroke="#ee9e44" stroke-width="2" d="M1023,-250C1025.06,-250 1027.1,-250 1029.12,-250"/>
<polygon fill="#ee9e44" stroke="#ee9e44" stroke-width="2" points="1028.97,-253.5 1038.97,-250 1028.97,-246.5 1028.97,-253.5"/>
</a>
</g>
</g>
<!-- node_System(60) -->
<g id="node2" class="node">
<title>node_System(60)</title>
<g id="a_node2"><a xlink:title="bevy_winit::accessibility::handle_window_focus">
<polygon fill="#664f72" stroke="#9980a6" points="998.5,-239 837.5,-239 837.5,-203 998.5,-203 998.5,-239"/>
<text text-anchor="middle" x="918" y="-217.3" font-family="Helvetica,sans-Serif" font-size="14.00" fill="#e6e0ea">handle_window_focus</text>
</a>
</g>
</g>
<!-- node_System(61) -->
<g id="node3" class="node">
<title>node_System(61)</title>
<g id="a_node3"><a xlink:title="bevy_winit::accessibility::window_closed">
<polygon fill="#664f72" stroke="#9980a6" points="976,-169 860,-169 860,-133 976,-133 976,-169"/>
<text text-anchor="middle" x="918" y="-147.3" font-family="Helvetica,sans-Serif" font-size="14.00" fill="#e6e0ea">window_closed</text>
</a>
</g>
</g>
<!-- node_System(60)&#45;&gt;node_System(61) -->
<g id="edge17" class="edge">
<title>node_System(60)&#45;&gt;node_System(61)</title>
<path fill="none" stroke="#c93526" stroke-width="2" d="M918,-202.97C918,-192.66 918,-179.76 918,-169.39"/>
<g id="a_edge17&#45;label"><a xlink:title="handle_window_focus — window_closed">
<polygon fill="#c6e6ff" stroke="none" points="840.5,-176 840.5,-195 967.5,-195 967.5,-176 840.5,-176"/>
<text text-anchor="start" x="842.5" y="-181.8" font-family="Times,serif" font-size="14.00" fill="#c93526">AccessKitAdapters</text>
</a>
</g>
</g>
<!-- node_System(62) -->
<g id="node4" class="node">
<title>node_System(62)</title>
<g id="a_node4"><a xlink:title="bevy_winit::accessibility::poll_receivers">
<polygon fill="#664f72" stroke="#9980a6" points="971.5,-99 864.5,-99 864.5,-63 971.5,-63 971.5,-99"/>
<text text-anchor="middle" x="918" y="-77.3" font-family="Helvetica,sans-Serif" font-size="14.00" fill="#e6e0ea">poll_receivers</text>
</a>
</g>
</g>
<!-- node_System(61)&#45;&gt;node_System(62) -->
<g id="edge18" class="edge">
<title>node_System(61)&#45;&gt;node_System(62)</title>
<path fill="none" stroke="#c93526" stroke-width="2" d="M918,-132.97C918,-122.66 918,-109.76 918,-99.39"/>
<g id="a_edge18&#45;label"><a xlink:title="window_closed — poll_receivers">
<polygon fill="#c6e6ff" stroke="none" points="829.5,-106 829.5,-125 977.5,-125 977.5,-106 829.5,-106"/>
<text text-anchor="start" x="831.5" y="-111.8" font-family="Times,serif" font-size="14.00" fill="#c93526">WinitActionHandlers</text>
</a>
</g>
</g>
<!-- node_System(63) -->
<g id="node5" class="node">
<title>node_System(63)</title>
<g id="a_node5"><a xlink:title="bevy_winit::accessibility::update_accessibility_nodes">
<polygon fill="#664f72" stroke="#9980a6" points="1015,-52 821,-52 821,-16 1015,-16 1015,-52"/>
<text text-anchor="middle" x="918" y="-30.3" font-family="Helvetica,sans-Serif" font-size="14.00" fill="#e6e0ea">update_accessibility_nodes</text>
</a>
</g>
</g>
<!-- node_System(61)&#45;&gt;node_System(63) -->
<g id="edge19" class="edge">
<title>node_System(61)&#45;&gt;node_System(63)</title>
<path fill="none" stroke="#c93526" stroke-width="2" d="M859.66,-156.63C809.33,-157.89 739.06,-150.29 702.08,-104.5 664.55,-58.02 747.06,-41.86 820.68,-36.42"/>
<g id="a_edge19&#45;label"><a xlink:title="window_closed — update_accessibility_nodes">
<polygon fill="#c6e6ff" stroke="none" points="674.5,-83 674.5,-102 801.5,-102 801.5,-83 674.5,-83"/>
<text text-anchor="start" x="676.5" y="-88.8" font-family="Times,serif" font-size="14.00" fill="#c93526">AccessKitAdapters</text>
</a>
</g>
</g>
<!-- set_marker_node_Set(2) -->
<!-- set_marker_node_Set(8) -->
<!-- set_marker_node_Set(2)&#45;&gt;set_marker_node_Set(8) -->
<g id="edge2" class="edge">
<title>set_marker_node_Set(2)&#45;&gt;set_marker_node_Set(8)</title>
<g id="a_edge2"><a xlink:title="FirstFlush → PreUpdate">
<path fill="none" stroke="#881877" stroke-width="2" d="M157,-262.31C160.07,-261.72 163.2,-261.11 166.35,-260.51"/>
<polygon fill="#881877" stroke="#881877" stroke-width="2" points="166.87,-263.97 176.03,-258.65 165.55,-257.1 166.87,-263.97"/>
</a>
</g>
</g>
<!-- set_marker_node_Set(3) -->
<!-- set_marker_node_Set(9) -->
<!-- set_marker_node_Set(3)&#45;&gt;set_marker_node_Set(9) -->
<g id="edge4" class="edge">
<title>set_marker_node_Set(3)&#45;&gt;set_marker_node_Set(9)</title>
<g id="a_edge4"><a xlink:title="PreUpdateFlush → StateTransitions">
<path fill="none" stroke="#aa3a55" stroke-width="2" d="M406,-250C407.39,-250 408.79,-250 410.19,-250"/>
<polygon fill="#aa3a55" stroke="#aa3a55" stroke-width="2" points="409.98,-253.5 419.98,-250 409.98,-246.5 409.98,-253.5"/>
</a>
</g>
</g>
<!-- set_marker_node_Set(11) -->
<!-- set_marker_node_Set(4)&#45;&gt;set_marker_node_Set(11) -->
<g id="edge8" class="edge">
<title>set_marker_node_Set(4)&#45;&gt;set_marker_node_Set(11)</title>
<g id="a_edge8"><a xlink:title="UpdateFlush → PostUpdate">
<path fill="none" stroke="#663699" stroke-width="2" d="M1143,-250C1144.35,-250 1145.71,-250 1147.07,-250"/>
<polygon fill="#663699" stroke="#663699" stroke-width="2" points="1146.97,-253.5 1156.97,-250 1146.97,-246.5 1146.97,-253.5"/>
</a>
</g>
</g>
<!-- set_marker_node_Set(5) -->
<!-- set_marker_node_Set(12) -->
<!-- set_marker_node_Set(5)&#45;&gt;set_marker_node_Set(12) -->
<g id="edge10" class="edge">
<title>set_marker_node_Set(5)&#45;&gt;set_marker_node_Set(12)</title>
<g id="a_edge10"><a xlink:title="PostUpdateFlush → Last">
<path fill="none" stroke="#22c2bb" stroke-width="2" d="M1378.21,-262C1386.83,-260.53 1396.04,-259.05 1405.1,-257.75"/>
<polygon fill="#22c2bb" stroke="#22c2bb" stroke-width="2" points="1405.56,-261.22 1415,-256.41 1404.62,-254.28 1405.56,-261.22"/>
</a>
</g>
</g>
<!-- set_marker_node_Set(6) -->
<!-- set_marker_node_Set(7) -->
<!-- set_marker_node_Set(7)&#45;&gt;set_marker_node_Set(2) -->
<g id="edge1" class="edge">
<title>set_marker_node_Set(7)&#45;&gt;set_marker_node_Set(2)</title>
<g id="a_edge1"><a xlink:title="First → FirstFlush">
<path fill="none" stroke="#eede00" stroke-width="2" d="M54,-255.3C58.76,-256.45 63.97,-257.7 69.27,-258.98"/>
<polygon fill="#eede00" stroke="#eede00" stroke-width="2" points="68.33,-262.36 78.88,-261.3 69.97,-255.55 68.33,-262.36"/>
</a>
</g>
</g>
<!-- set_marker_node_Set(59) -->
<!-- set_marker_node_Set(7)&#45;&gt;set_marker_node_Set(59) -->
<g id="edge13" class="edge">
<title>set_marker_node_Set(7)&#45;&gt;set_marker_node_Set(59)</title>
<g id="a_edge13"><a xlink:title="First → LoadAssets">
<path fill="none" stroke="#881877" stroke-width="2" d="M54,-242.84C55.51,-242.35 57.07,-241.85 58.66,-241.33"/>
<polygon fill="#881877" stroke="#881877" stroke-width="2" points="59.7,-244.67 68.12,-238.25 57.53,-238.01 59.7,-244.67"/>
</a>
</g>
</g>
<!-- set_marker_node_Set(8)&#45;&gt;set_marker_node_Set(3) -->
<g id="edge3" class="edge">
<title>set_marker_node_Set(8)&#45;&gt;set_marker_node_Set(3)</title>
<g id="a_edge3"><a xlink:title="PreUpdate → PreUpdateFlush">
<path fill="none" stroke="#00b0cc" stroke-width="2" d="M266,-250C267.37,-250 268.75,-250 270.15,-250"/>
<polygon fill="#00b0cc" stroke="#00b0cc" stroke-width="2" points="269.97,-253.5 279.97,-250 269.97,-246.5 269.97,-253.5"/>
</a>
</g>
</g>
<!-- set_marker_node_Set(10) -->
<!-- set_marker_node_Set(9)&#45;&gt;set_marker_node_Set(10) -->
<g id="edge5" class="edge">
<title>set_marker_node_Set(9)&#45;&gt;set_marker_node_Set(10)</title>
<g id="a_edge5"><a xlink:title="StateTransitions → FixedUpdate">
<path fill="none" stroke="#44d488" stroke-width="2" d="M547,-250C548.39,-250 549.78,-250 551.17,-250"/>
<polygon fill="#44d488" stroke="#44d488" stroke-width="2" points="550.97,-253.5 560.97,-250 550.97,-246.5 550.97,-253.5"/>
</a>
</g>
</g>
<!-- set_marker_node_Set(10)&#45;&gt;set_marker_node_Set(0) -->
<g id="edge6" class="edge">
<title>set_marker_node_Set(10)&#45;&gt;set_marker_node_Set(0)</title>
<g id="a_edge6"><a xlink:title="FixedUpdate → Update">
<path fill="none" stroke="#0090cc" stroke-width="2" d="M664,-250C700.84,-250 752.9,-250 800.22,-250"/>
<polygon fill="#0090cc" stroke="#0090cc" stroke-width="2" points="799.97,-253.5 809.97,-250 799.97,-246.5 799.97,-253.5"/>
</a>
</g>
</g>
<!-- set_marker_node_Set(11)&#45;&gt;set_marker_node_Set(5) -->
<g id="edge9" class="edge">
<title>set_marker_node_Set(11)&#45;&gt;set_marker_node_Set(5)</title>
<g id="a_edge9"><a xlink:title="PostUpdate → PostUpdateFlush">
<path fill="none" stroke="#3363bb" stroke-width="2" d="M1253,-257.3C1258.56,-258.18 1264.31,-259.1 1270.06,-260.01"/>
<polygon fill="#3363bb" stroke="#3363bb" stroke-width="2" points="1269.19,-263.41 1279.61,-261.53 1270.29,-256.5 1269.19,-263.41"/>
</a>
</g>
</g>
<!-- set_marker_node_Set(60) -->
<!-- set_marker_node_Set(11)&#45;&gt;set_marker_node_Set(60) -->
<g id="edge14" class="edge">
<title>set_marker_node_Set(11)&#45;&gt;set_marker_node_Set(60)</title>
<g id="a_edge14"><a xlink:title="PostUpdate → AssetEvents">
<path fill="none" stroke="#00b0cc" stroke-width="2" d="M1244.32,-242C1253.51,-240.03 1263.58,-237.88 1273.53,-235.74"/>
<polygon fill="#00b0cc" stroke="#00b0cc" stroke-width="2" points="1274,-239.22 1283.04,-233.71 1272.53,-232.38 1274,-239.22"/>
</a>
</g>
</g>
<!-- set_marker_node_Set(12)&#45;&gt;set_marker_node_Set(6) -->
<g id="edge11" class="edge">
<title>set_marker_node_Set(12)&#45;&gt;set_marker_node_Set(6)</title>
<g id="a_edge11"><a xlink:title="Last → LastFlush">
<path fill="none" stroke="#99d955" stroke-width="2" d="M1521,-242C1544.95,-235.28 1579.78,-225.51 1608.58,-217.43"/>
<polygon fill="#99d955" stroke="#99d955" stroke-width="2" points="1609.4,-220.83 1618.09,-214.76 1607.51,-214.09 1609.4,-220.83"/>
</a>
</g>
</g>
<!-- node_System(57) -->
<g id="node17" class="node">
<title>node_System(57)</title>
<g id="a_node17"><a xlink:title="bevy_winit::system::changed_window">
<polygon fill="#664f72" stroke="#9980a6" points="1557,-297 1426,-297 1426,-261 1557,-261 1557,-297"/>
<text text-anchor="middle" x="1491.5" y="-275.3" font-family="Helvetica,sans-Serif" font-size="14.00" fill="#e6e0ea">changed_window</text>
</a>
</g>
</g>
<!-- node_System(58) -->
<g id="node18" class="node">
<title>node_System(58)</title>
<g id="a_node18"><a xlink:title="bevy_winit::system::despawn_window">
<polygon fill="#664f72" stroke="#9980a6" points="1728,-297 1594,-297 1594,-261 1728,-261 1728,-297"/>
<text text-anchor="middle" x="1661" y="-275.3" font-family="Helvetica,sans-Serif" font-size="14.00" fill="#e6e0ea">despawn_window</text>
</a>
</g>
</g>
<!-- node_System(57)&#45;&gt;node_System(58) -->
<g id="edge16" class="edge">
<title>node_System(57)&#45;&gt;node_System(58)</title>
<g id="a_edge16"><a xlink:title="SystemTypeSet(changed_window&quot;) → despawn_window">
<path fill="none" stroke="#44d488" stroke-width="2" d="M1557.26,-279C1565.02,-279 1573.01,-279 1580.94,-279"/>
<polygon fill="#44d488" stroke="#44d488" stroke-width="2" points="1580.73,-282.5 1590.73,-279 1580.73,-275.5 1580.73,-282.5"/>
</a>
</g>
</g>
<!-- set_marker_node_Set(59)&#45;&gt;set_marker_node_Set(8) -->
<g id="edge12" class="edge">
<title>set_marker_node_Set(59)&#45;&gt;set_marker_node_Set(8)</title>
<g id="a_edge12"><a xlink:title="LoadAssets → PreUpdate">
<path fill="none" stroke="#eede00" stroke-width="2" d="M162,-234.68C167.24,-236.04 172.58,-237.43 177.79,-238.78"/>
<polygon fill="#eede00" stroke="#eede00" stroke-width="2" points="176.7,-242.12 187.26,-241.24 178.46,-235.34 176.7,-242.12"/>
</a>
</g>
</g>
<!-- set_marker_node_Set(60)&#45;&gt;set_marker_node_Set(12) -->
<g id="edge15" class="edge">
<title>set_marker_node_Set(60)&#45;&gt;set_marker_node_Set(12)</title>
<g id="a_edge15"><a xlink:title="AssetEvents → Last">
<path fill="none" stroke="#aa3a55" stroke-width="2" d="M1382,-231.16C1397.66,-233.88 1415.31,-236.94 1431.75,-239.8"/>
<polygon fill="#aa3a55" stroke="#aa3a55" stroke-width="2" points="1431.01,-243.22 1441.46,-241.48 1432.2,-236.33 1431.01,-243.22"/>
</a>
</g>
</g>
</g>
</svg>
