<?xml version="1.0" encoding="UTF-8" standalone="no"?>
<!DOCTYPE svg PUBLIC "-//W3C//DTD SVG 1.1//EN"
 "http://www.w3.org/Graphics/SVG/1.1/DTD/svg11.dtd">
<!-- Generated by graphviz version 7.1.0 (0)
 -->
<!-- Pages: 1 -->
<svg width="2214pt" height="2750pt"
 viewBox="0.00 0.00 2214.00 2750.00" xmlns="http://www.w3.org/2000/svg" xmlns:xlink="http://www.w3.org/1999/xlink">
<g id="graph0" class="graph" transform="scale(1 1) rotate(0) translate(4 2746)">
<polygon fill="#0d1117" stroke="none" points="-4,4 -4,-2746 2210,-2746 2210,4 -4,4"/>
<g id="clust1" class="cluster">
<title>clusternode_Set(0)</title>
<g id="a_clust1"><a xlink:title="Update">
<polygon fill="#6f90ad" stroke="black" points="1281,-2491 1281,-2530 1346,-2530 1346,-2491 1281,-2491"/>
<text text-anchor="middle" x="1313.5" y="-2514.8" font-family="Helvetica,sans-Serif" font-size="14.00">Update</text>
</a>
</g>
</g>
<g id="clust2" class="cluster">
<title>clusternode_Set(2)</title>
<g id="a_clust2"><a xlink:title="FirstFlush">
<polygon fill="#6f90ad" stroke="black" points="516,-2488 516,-2581 693,-2581 693,-2488 516,-2488"/>
<text text-anchor="middle" x="604.5" y="-2565.8" font-family="Helvetica,sans-Serif" font-size="14.00">FirstFlush</text>
</a>
</g>
</g>
<g id="clust3" class="cluster">
<title>clusternode_Set(3)</title>
<g id="a_clust3"><a xlink:title="PreUpdateFlush">
<polygon fill="#6f90ad" stroke="black" points="820,-2437 820,-2530 997,-2530 997,-2437 820,-2437"/>
<text text-anchor="middle" x="908.5" y="-2514.8" font-family="Helvetica,sans-Serif" font-size="14.00">PreUpdateFlush</text>
</a>
</g>
</g>
<g id="clust4" class="cluster">
<title>clusternode_Set(4)</title>
<g id="a_clust4"><a xlink:title="UpdateFlush">
<polygon fill="#6f90ad" stroke="black" points="1366,-2437 1366,-2530 1543,-2530 1543,-2437 1366,-2437"/>
<text text-anchor="middle" x="1454.5" y="-2514.8" font-family="Helvetica,sans-Serif" font-size="14.00">UpdateFlush</text>
</a>
</g>
</g>
<g id="clust5" class="cluster">
<title>clusternode_Set(5)</title>
<g id="a_clust5"><a xlink:title="PostUpdateFlush">
<polygon fill="#6f90ad" stroke="black" points="1760,-2488 1760,-2581 1937,-2581 1937,-2488 1760,-2488"/>
<text text-anchor="middle" x="1848.5" y="-2565.8" font-family="Helvetica,sans-Serif" font-size="14.00">PostUpdateFlush</text>
</a>
</g>
</g>
<g id="clust6" class="cluster">
<title>clusternode_Set(6)</title>
<g id="a_clust6"><a xlink:title="LastFlush">
<polygon fill="#6f90ad" stroke="black" points="2021,-2437 2021,-2530 2198,-2530 2198,-2437 2021,-2437"/>
<text text-anchor="middle" x="2109.5" y="-2514.8" font-family="Helvetica,sans-Serif" font-size="14.00">LastFlush</text>
</a>
</g>
</g>
<g id="clust7" class="cluster">
<title>clusternode_Set(7)</title>
<g id="a_clust7"><a xlink:title="First">
<polygon fill="#6f90ad" stroke="black" points="8,-8 8,-2531 496,-2531 496,-8 8,-8"/>
<text text-anchor="middle" x="252" y="-2515.8" font-family="Helvetica,sans-Serif" font-size="14.00">First</text>
</a>
</g>
</g>
<g id="clust8" class="cluster">
<title>clusternode_Set(8)</title>
<g id="a_clust8"><a xlink:title="PreUpdate">
<polygon fill="#6f90ad" stroke="black" points="713,-2491 713,-2530 800,-2530 800,-2491 713,-2491"/>
<text text-anchor="middle" x="756.5" y="-2514.8" font-family="Helvetica,sans-Serif" font-size="14.00">PreUpdate</text>
</a>
</g>
</g>
<g id="clust9" class="cluster">
<title>clusternode_Set(9)</title>
<g id="a_clust9"><a xlink:title="StateTransitions">
<polygon fill="#6f90ad" stroke="black" points="1017,-2491 1017,-2530 1141,-2530 1141,-2491 1017,-2491"/>
<text text-anchor="middle" x="1079" y="-2514.8" font-family="Helvetica,sans-Serif" font-size="14.00">StateTransitions</text>
</a>
</g>
</g>
<g id="clust10" class="cluster">
<title>clusternode_Set(10)</title>
<g id="a_clust10"><a xlink:title="FixedUpdate">
<polygon fill="#6f90ad" stroke="black" points="1161,-2491 1161,-2530 1261,-2530 1261,-2491 1161,-2491"/>
<text text-anchor="middle" x="1211" y="-2514.8" font-family="Helvetica,sans-Serif" font-size="14.00">FixedUpdate</text>
</a>
</g>
</g>
<g id="clust11" class="cluster">
<title>clusternode_Set(11)</title>
<g id="a_clust11"><a xlink:title="PostUpdate">
<polygon fill="#6f90ad" stroke="black" points="1555,-2491 1555,-2734 1748,-2734 1748,-2491 1555,-2491"/>
<text text-anchor="middle" x="1651.5" y="-2718.8" font-family="Helvetica,sans-Serif" font-size="14.00">PostUpdate</text>
</a>
</g>
</g>
<g id="clust12" class="cluster">
<title>clusternode_Set(87)</title>
<g id="a_clust12"><a xlink:title="CalculateBoundsFlush">
<polygon fill="#6f90ad" stroke="black" points="1563,-2610 1563,-2703 1740,-2703 1740,-2610 1563,-2610"/>
<text text-anchor="middle" x="1651.5" y="-2687.8" font-family="Helvetica,sans-Serif" font-size="14.00">CalculateBoundsFlush</text>
</a>
</g>
</g>
<g id="clust13" class="cluster">
<title>clusternode_Set(138)</title>
<g id="a_clust13"><a xlink:title="AddClustersFlush">
<polygon fill="#6f90ad" stroke="black" points="1563,-2509 1563,-2602 1740,-2602 1740,-2509 1563,-2509"/>
<text text-anchor="middle" x="1651.5" y="-2586.8" font-family="Helvetica,sans-Serif" font-size="14.00">AddClustersFlush</text>
</a>
</g>
</g>
<g id="clust14" class="cluster">
<title>clusternode_Set(12)</title>
<g id="a_clust14"><a xlink:title="Last">
<polygon fill="#6f90ad" stroke="black" points="1957,-2491 1957,-2530 2001,-2530 2001,-2491 1957,-2491"/>
<text text-anchor="middle" x="1979" y="-2514.8" font-family="Helvetica,sans-Serif" font-size="14.00">Last</text>
</a>
</g>
</g>
<g id="clust15" class="cluster">
<title>clusternode_Set(22)</title>
<g id="a_clust15"><a xlink:title="PropagateTransformsSet">
<polygon fill="#6f90ad" stroke="black" points="162,-2567 162,-2606 342,-2606 342,-2567 162,-2567"/>
<text text-anchor="middle" x="252" y="-2590.8" font-family="Helvetica,sans-Serif" font-size="14.00">PropagateTransformsSet</text>
</a>
</g>
</g>
<g id="clust16" class="cluster">
<title>clusternode_Set(59)</title>
<g id="a_clust16"><a xlink:title="LoadAssets">
<polygon fill="#6f90ad" stroke="black" points="559.5,-2441 559.5,-2480 650.5,-2480 650.5,-2441 559.5,-2441"/>
<text text-anchor="middle" x="605" y="-2464.8" font-family="Helvetica,sans-Serif" font-size="14.00">LoadAssets</text>
</a>
</g>
</g>
<g id="clust17" class="cluster">
<title>clusternode_Set(60)</title>
<g id="a_clust17"><a xlink:title="AssetEvents">
<polygon fill="#6f90ad" stroke="black" points="1800.5,-2441 1800.5,-2480 1896.5,-2480 1896.5,-2441 1800.5,-2441"/>
<text text-anchor="middle" x="1848.5" y="-2464.8" font-family="Helvetica,sans-Serif" font-size="14.00">AssetEvents</text>
</a>
</g>
</g>
<!-- set_marker_node_Set(0) -->
<!-- set_marker_node_Set(4) -->
<!-- set_marker_node_Set(0)&#45;&gt;set_marker_node_Set(4) -->
<g id="edge7" class="edge">
<title>set_marker_node_Set(0)&#45;&gt;set_marker_node_Set(4)</title>
<g id="a_edge7"><a xlink:title="Update → UpdateFlush">
<path fill="none" stroke="#ee9e44" stroke-width="2" d="M1346,-2499C1348.29,-2499 1350.67,-2499 1353.1,-2499"/>
<polygon fill="#ee9e44" stroke="#ee9e44" stroke-width="2" points="1352.98,-2502.5 1362.98,-2499 1352.98,-2495.5 1352.98,-2502.5"/>
</a>
</g>
</g>
<!-- set_marker_node_Set(2) -->
<!-- set_marker_node_Set(8) -->
<!-- set_marker_node_Set(2)&#45;&gt;set_marker_node_Set(8) -->
<g id="edge2" class="edge">
<title>set_marker_node_Set(2)&#45;&gt;set_marker_node_Set(8)</title>
<g id="a_edge2"><a xlink:title="FirstFlush → PreUpdate">
<path fill="none" stroke="#881877" stroke-width="2" d="M693,-2541C696.68,-2539.66 700.36,-2538.05 703.98,-2536.26"/>
<polygon fill="#881877" stroke="#881877" stroke-width="2" points="705.59,-2539.37 712.64,-2531.47 702.2,-2533.25 705.59,-2539.37"/>
</a>
</g>
</g>
<!-- node_System(0) -->
<g id="node3" class="node">
<title>node_System(0)</title>
<g id="a_node3"><a xlink:title="bevy_ecs::schedule::executor::apply_system_buffers">
<polygon fill="#eff1f3" stroke="#eff1f3" points="685,-2532 524,-2532 524,-2496 685,-2496 685,-2532"/>
<text text-anchor="middle" x="604.5" y="-2510.3" font-family="Times,serif" font-size="14.00">apply_system_buffers</text>
</a>
</g>
</g>
<!-- set_marker_node_Set(3) -->
<!-- set_marker_node_Set(9) -->
<!-- set_marker_node_Set(3)&#45;&gt;set_marker_node_Set(9) -->
<g id="edge4" class="edge">
<title>set_marker_node_Set(3)&#45;&gt;set_marker_node_Set(9)</title>
<g id="a_edge4"><a xlink:title="PreUpdateFlush → StateTransitions">
<path fill="none" stroke="#aa3a55" stroke-width="2" d="M997,-2499C999.38,-2499 1001.77,-2499 1004.14,-2499"/>
<polygon fill="#aa3a55" stroke="#aa3a55" stroke-width="2" points="1003.97,-2502.5 1013.97,-2499 1003.97,-2495.5 1003.97,-2502.5"/>
</a>
</g>
</g>
<!-- node_System(1) -->
<g id="node5" class="node">
<title>node_System(1)</title>
<g id="a_node5"><a xlink:title="bevy_ecs::schedule::executor::apply_system_buffers">
<polygon fill="#eff1f3" stroke="#eff1f3" points="989,-2481 828,-2481 828,-2445 989,-2445 989,-2481"/>
<text text-anchor="middle" x="908.5" y="-2459.3" font-family="Times,serif" font-size="14.00">apply_system_buffers</text>
</a>
</g>
</g>
<!-- set_marker_node_Set(11) -->
<!-- set_marker_node_Set(4)&#45;&gt;set_marker_node_Set(11) -->
<g id="edge8" class="edge">
<title>set_marker_node_Set(4)&#45;&gt;set_marker_node_Set(11)</title>
<g id="a_edge8"><a xlink:title="UpdateFlush → PostUpdate">
<path fill="none" stroke="#663699" stroke-width="2" d="M1543,-2499C1546,-2499 1549,-2499 1552,-2499"/>
<polygon fill="#663699" stroke="#663699" stroke-width="2" points="1541.97,-2502.5 1551.97,-2499 1541.97,-2495.5 1541.97,-2502.5"/>
</a>
</g>
</g>
<!-- node_System(2) -->
<g id="node7" class="node">
<title>node_System(2)</title>
<g id="a_node7"><a xlink:title="bevy_ecs::schedule::executor::apply_system_buffers">
<polygon fill="#eff1f3" stroke="#eff1f3" points="1535,-2481 1374,-2481 1374,-2445 1535,-2445 1535,-2481"/>
<text text-anchor="middle" x="1454.5" y="-2459.3" font-family="Times,serif" font-size="14.00">apply_system_buffers</text>
</a>
</g>
</g>
<!-- set_marker_node_Set(5) -->
<!-- set_marker_node_Set(12) -->
<!-- set_marker_node_Set(5)&#45;&gt;set_marker_node_Set(12) -->
<g id="edge10" class="edge">
<title>set_marker_node_Set(5)&#45;&gt;set_marker_node_Set(12)</title>
<g id="a_edge10"><a xlink:title="PostUpdateFlush → Last">
<path fill="none" stroke="#22c2bb" stroke-width="2" d="M1937,-2541C1940.57,-2539.27 1944.01,-2537.1 1947.26,-2534.66"/>
<polygon fill="#22c2bb" stroke="#22c2bb" stroke-width="2" points="1949.5,-2537.36 1954.72,-2528.14 1944.89,-2532.08 1949.5,-2537.36"/>
</a>
</g>
</g>
<!-- node_System(3) -->
<g id="node9" class="node">
<title>node_System(3)</title>
<g id="a_node9"><a xlink:title="bevy_ecs::schedule::executor::apply_system_buffers">
<polygon fill="#eff1f3" stroke="#eff1f3" points="1929,-2532 1768,-2532 1768,-2496 1929,-2496 1929,-2532"/>
<text text-anchor="middle" x="1848.5" y="-2510.3" font-family="Times,serif" font-size="14.00">apply_system_buffers</text>
</a>
</g>
</g>
<!-- set_marker_node_Set(6) -->
<!-- node_System(4) -->
<g id="node11" class="node">
<title>node_System(4)</title>
<g id="a_node11"><a xlink:title="bevy_ecs::schedule::executor::apply_system_buffers">
<polygon fill="#eff1f3" stroke="#eff1f3" points="2190,-2481 2029,-2481 2029,-2445 2190,-2445 2190,-2481"/>
<text text-anchor="middle" x="2109.5" y="-2459.3" font-family="Times,serif" font-size="14.00">apply_system_buffers</text>
</a>
</g>
</g>
<!-- set_marker_node_Set(7) -->
<!-- set_marker_node_Set(7)&#45;&gt;set_marker_node_Set(2) -->
<g id="edge1" class="edge">
<title>set_marker_node_Set(7)&#45;&gt;set_marker_node_Set(2)</title>
<g id="a_edge1"><a xlink:title="First → FirstFlush">
<path fill="none" stroke="#eede00" stroke-width="2" d="M444.18,-2531C464,-2533.92 483.98,-2536.76 503.38,-2539.34"/>
<polygon fill="#eede00" stroke="#eede00" stroke-width="2" points="502.63,-2542.77 513,-2540.61 503.54,-2535.83 502.63,-2542.77"/>
</a>
</g>
</g>
<!-- set_marker_node_Set(59) -->
<!-- set_marker_node_Set(7)&#45;&gt;set_marker_node_Set(59) -->
<g id="edge13" class="edge">
<title>set_marker_node_Set(7)&#45;&gt;set_marker_node_Set(59)</title>
<g id="a_edge13"><a xlink:title="First → LoadAssets">
<path fill="none" stroke="#881877" stroke-width="2" d="M496,-2491C498.95,-2490.39 522.93,-2481.05 547.49,-2471.34"/>
<polygon fill="#881877" stroke="#881877" stroke-width="2" points="548.68,-2474.63 556.69,-2467.69 546.1,-2468.12 548.68,-2474.63"/>
</a>
</g>
</g>
<!-- node_System(5) -->
<g id="node13" class="node">
<title>node_System(5)</title>
<g id="a_node13"><a xlink:title="bevy_ecs::event::Events&lt;bevy_app::app::AppExit&gt;::update_system">
<polygon fill="#eff1f3" stroke="#eff1f3" points="367,-2482 137,-2482 137,-2446 367,-2446 367,-2482"/>
<text text-anchor="middle" x="252" y="-2460.3" font-family="Times,serif" font-size="14.00">Events&lt;AppExit&gt;update_system</text>
</a>
</g>
</g>
<!-- node_System(13) -->
<g id="node14" class="node">
<title>node_System(13)</title>
<g id="a_node14"><a xlink:title="bevy_ecs::event::Events&lt;bevy_hierarchy::events::HierarchyEvent&gt;::update_system">
<polygon fill="#eff1f3" stroke="#eff1f3" points="393.5,-2428 110.5,-2428 110.5,-2392 393.5,-2392 393.5,-2428"/>
<text text-anchor="middle" x="252" y="-2406.3" font-family="Times,serif" font-size="14.00">Events&lt;HierarchyEvent&gt;update_system</text>
</a>
</g>
</g>
<!-- node_System(14) -->
<g id="node15" class="node">
<title>node_System(14)</title>
<g id="a_node15"><a xlink:title="bevy_ecs::event::Events&lt;bevy_input::keyboard::KeyboardInput&gt;::update_system">
<polygon fill="#eff1f3" stroke="#eff1f3" points="391,-2374 113,-2374 113,-2338 391,-2338 391,-2374"/>
<text text-anchor="middle" x="252" y="-2352.3" font-family="Times,serif" font-size="14.00">Events&lt;KeyboardInput&gt;update_system</text>
</a>
</g>
</g>
<!-- node_System(16) -->
<g id="node16" class="node">
<title>node_System(16)</title>
<g id="a_node16"><a xlink:title="bevy_ecs::event::Events&lt;bevy_input::mouse::MouseButtonInput&gt;::update_system">
<polygon fill="#eff1f3" stroke="#eff1f3" points="403.5,-2320 100.5,-2320 100.5,-2284 403.5,-2284 403.5,-2320"/>
<text text-anchor="middle" x="252" y="-2298.3" font-family="Times,serif" font-size="14.00">Events&lt;MouseButtonInput&gt;update_system</text>
</a>
</g>
</g>
<!-- node_System(17) -->
<g id="node17" class="node">
<title>node_System(17)</title>
<g id="a_node17"><a xlink:title="bevy_ecs::event::Events&lt;bevy_input::mouse::MouseMotion&gt;::update_system">
<polygon fill="#eff1f3" stroke="#eff1f3" points="386.5,-2266 117.5,-2266 117.5,-2230 386.5,-2230 386.5,-2266"/>
<text text-anchor="middle" x="252" y="-2244.3" font-family="Times,serif" font-size="14.00">Events&lt;MouseMotion&gt;update_system</text>
</a>
</g>
</g>
<!-- node_System(18) -->
<g id="node18" class="node">
<title>node_System(18)</title>
<g id="a_node18"><a xlink:title="bevy_ecs::event::Events&lt;bevy_input::mouse::MouseWheel&gt;::update_system">
<polygon fill="#eff1f3" stroke="#eff1f3" points="383.5,-2212 120.5,-2212 120.5,-2176 383.5,-2176 383.5,-2212"/>
<text text-anchor="middle" x="252" y="-2190.3" font-family="Times,serif" font-size="14.00">Events&lt;MouseWheel&gt;update_system</text>
</a>
</g>
</g>
<!-- node_System(20) -->
<g id="node19" class="node">
<title>node_System(20)</title>
<g id="a_node19"><a xlink:title="bevy_ecs::event::Events&lt;bevy_input::gamepad::GamepadConnectionEvent&gt;::update_system">
<polygon fill="#eff1f3" stroke="#eff1f3" points="429.5,-2158 74.5,-2158 74.5,-2122 429.5,-2122 429.5,-2158"/>
<text text-anchor="middle" x="252" y="-2136.3" font-family="Times,serif" font-size="14.00">Events&lt;GamepadConnectionEvent&gt;update_system</text>
</a>
</g>
</g>
<!-- node_System(21) -->
<g id="node20" class="node">
<title>node_System(21)</title>
<g id="a_node20"><a xlink:title="bevy_ecs::event::Events&lt;bevy_input::gamepad::GamepadButtonChangedEvent&gt;::update_system">
<polygon fill="#eff1f3" stroke="#eff1f3" points="443.5,-2104 60.5,-2104 60.5,-2068 443.5,-2068 443.5,-2104"/>
<text text-anchor="middle" x="252" y="-2082.3" font-family="Times,serif" font-size="14.00">Events&lt;GamepadButtonChangedEvent&gt;update_system</text>
</a>
</g>
</g>
<!-- node_System(22) -->
<g id="node21" class="node">
<title>node_System(22)</title>
<g id="a_node21"><a xlink:title="bevy_ecs::event::Events&lt;bevy_input::gamepad::GamepadAxisChangedEvent&gt;::update_system">
<polygon fill="#eff1f3" stroke="#eff1f3" points="434.5,-2050 69.5,-2050 69.5,-2014 434.5,-2014 434.5,-2050"/>
<text text-anchor="middle" x="252" y="-2028.3" font-family="Times,serif" font-size="14.00">Events&lt;GamepadAxisChangedEvent&gt;update_system</text>
</a>
</g>
</g>
<!-- node_System(23) -->
<g id="node22" class="node">
<title>node_System(23)</title>
<g id="a_node22"><a xlink:title="bevy_ecs::event::Events&lt;bevy_input::gamepad::GamepadEvent&gt;::update_system">
<polygon fill="#eff1f3" stroke="#eff1f3" points="391.5,-1996 112.5,-1996 112.5,-1960 391.5,-1960 391.5,-1996"/>
<text text-anchor="middle" x="252" y="-1974.3" font-family="Times,serif" font-size="14.00">Events&lt;GamepadEvent&gt;update_system</text>
</a>
</g>
</g>
<!-- node_System(28) -->
<g id="node23" class="node">
<title>node_System(28)</title>
<g id="a_node23"><a xlink:title="bevy_ecs::event::Events&lt;bevy_input::touch::TouchInput&gt;::update_system">
<polygon fill="#eff1f3" stroke="#eff1f3" points="379,-1942 125,-1942 125,-1906 379,-1906 379,-1942"/>
<text text-anchor="middle" x="252" y="-1920.3" font-family="Times,serif" font-size="14.00">Events&lt;TouchInput&gt;update_system</text>
</a>
</g>
</g>
<!-- node_System(30) -->
<g id="node24" class="node">
<title>node_System(30)</title>
<g id="a_node24"><a xlink:title="bevy_ecs::event::Events&lt;bevy_window::event::WindowResized&gt;::update_system">
<polygon fill="#eff1f3" stroke="#eff1f3" points="394,-1888 110,-1888 110,-1852 394,-1852 394,-1888"/>
<text text-anchor="middle" x="252" y="-1866.3" font-family="Times,serif" font-size="14.00">Events&lt;WindowResized&gt;update_system</text>
</a>
</g>
</g>
<!-- node_System(31) -->
<g id="node25" class="node">
<title>node_System(31)</title>
<g id="a_node25"><a xlink:title="bevy_ecs::event::Events&lt;bevy_window::event::WindowCreated&gt;::update_system">
<polygon fill="#eff1f3" stroke="#eff1f3" points="394.5,-1834 109.5,-1834 109.5,-1798 394.5,-1798 394.5,-1834"/>
<text text-anchor="middle" x="252" y="-1812.3" font-family="Times,serif" font-size="14.00">Events&lt;WindowCreated&gt;update_system</text>
</a>
</g>
</g>
<!-- node_System(32) -->
<g id="node26" class="node">
<title>node_System(32)</title>
<g id="a_node26"><a xlink:title="bevy_ecs::event::Events&lt;bevy_window::event::WindowClosed&gt;::update_system">
<polygon fill="#eff1f3" stroke="#eff1f3" points="390,-1780 114,-1780 114,-1744 390,-1744 390,-1780"/>
<text text-anchor="middle" x="252" y="-1758.3" font-family="Times,serif" font-size="14.00">Events&lt;WindowClosed&gt;update_system</text>
</a>
</g>
</g>
<!-- node_System(33) -->
<g id="node27" class="node">
<title>node_System(33)</title>
<g id="a_node27"><a xlink:title="bevy_ecs::event::Events&lt;bevy_window::event::WindowCloseRequested&gt;::update_system">
<polygon fill="#eff1f3" stroke="#eff1f3" points="420,-1726 84,-1726 84,-1690 420,-1690 420,-1726"/>
<text text-anchor="middle" x="252" y="-1704.3" font-family="Times,serif" font-size="14.00">Events&lt;WindowCloseRequested&gt;update_system</text>
</a>
</g>
</g>
<!-- node_System(34) -->
<g id="node28" class="node">
<title>node_System(34)</title>
<g id="a_node28"><a xlink:title="bevy_ecs::event::Events&lt;bevy_window::event::RequestRedraw&gt;::update_system">
<polygon fill="#eff1f3" stroke="#eff1f3" points="392,-1672 112,-1672 112,-1636 392,-1636 392,-1672"/>
<text text-anchor="middle" x="252" y="-1650.3" font-family="Times,serif" font-size="14.00">Events&lt;RequestRedraw&gt;update_system</text>
</a>
</g>
</g>
<!-- node_System(35) -->
<g id="node29" class="node">
<title>node_System(35)</title>
<g id="a_node29"><a xlink:title="bevy_ecs::event::Events&lt;bevy_window::event::CursorMoved&gt;::update_system">
<polygon fill="#eff1f3" stroke="#eff1f3" points="385.5,-1618 118.5,-1618 118.5,-1582 385.5,-1582 385.5,-1618"/>
<text text-anchor="middle" x="252" y="-1596.3" font-family="Times,serif" font-size="14.00">Events&lt;CursorMoved&gt;update_system</text>
</a>
</g>
</g>
<!-- node_System(36) -->
<g id="node30" class="node">
<title>node_System(36)</title>
<g id="a_node30"><a xlink:title="bevy_ecs::event::Events&lt;bevy_window::event::CursorEntered&gt;::update_system">
<polygon fill="#eff1f3" stroke="#eff1f3" points="389.5,-1564 114.5,-1564 114.5,-1528 389.5,-1528 389.5,-1564"/>
<text text-anchor="middle" x="252" y="-1542.3" font-family="Times,serif" font-size="14.00">Events&lt;CursorEntered&gt;update_system</text>
</a>
</g>
</g>
<!-- node_System(37) -->
<g id="node31" class="node">
<title>node_System(37)</title>
<g id="a_node31"><a xlink:title="bevy_ecs::event::Events&lt;bevy_window::event::CursorLeft&gt;::update_system">
<polygon fill="#eff1f3" stroke="#eff1f3" points="376,-1510 128,-1510 128,-1474 376,-1474 376,-1510"/>
<text text-anchor="middle" x="252" y="-1488.3" font-family="Times,serif" font-size="14.00">Events&lt;CursorLeft&gt;update_system</text>
</a>
</g>
</g>
<!-- node_System(38) -->
<g id="node32" class="node">
<title>node_System(38)</title>
<g id="a_node32"><a xlink:title="bevy_ecs::event::Events&lt;bevy_window::event::ReceivedCharacter&gt;::update_system">
<polygon fill="#eff1f3" stroke="#eff1f3" points="403,-1456 101,-1456 101,-1420 403,-1420 403,-1456"/>
<text text-anchor="middle" x="252" y="-1434.3" font-family="Times,serif" font-size="14.00">Events&lt;ReceivedCharacter&gt;update_system</text>
</a>
</g>
</g>
<!-- node_System(39) -->
<g id="node33" class="node">
<title>node_System(39)</title>
<g id="a_node33"><a xlink:title="bevy_ecs::event::Events&lt;bevy_window::event::Ime&gt;::update_system">
<polygon fill="#eff1f3" stroke="#eff1f3" points="353.5,-1402 150.5,-1402 150.5,-1366 353.5,-1366 353.5,-1402"/>
<text text-anchor="middle" x="252" y="-1380.3" font-family="Times,serif" font-size="14.00">Events&lt;Ime&gt;update_system</text>
</a>
</g>
</g>
<!-- node_System(40) -->
<g id="node34" class="node">
<title>node_System(40)</title>
<g id="a_node34"><a xlink:title="bevy_ecs::event::Events&lt;bevy_window::event::WindowFocused&gt;::update_system">
<polygon fill="#eff1f3" stroke="#eff1f3" points="395.5,-1348 108.5,-1348 108.5,-1312 395.5,-1312 395.5,-1348"/>
<text text-anchor="middle" x="252" y="-1326.3" font-family="Times,serif" font-size="14.00">Events&lt;WindowFocused&gt;update_system</text>
</a>
</g>
</g>
<!-- node_System(41) -->
<g id="node35" class="node">
<title>node_System(41)</title>
<g id="a_node35"><a xlink:title="bevy_ecs::event::Events&lt;bevy_window::event::WindowScaleFactorChanged&gt;::update_system">
<polygon fill="#eff1f3" stroke="#eff1f3" points="436,-1294 68,-1294 68,-1258 436,-1258 436,-1294"/>
<text text-anchor="middle" x="252" y="-1272.3" font-family="Times,serif" font-size="14.00">Events&lt;WindowScaleFactorChanged&gt;update_system</text>
</a>
</g>
</g>
<!-- node_System(42) -->
<g id="node36" class="node">
<title>node_System(42)</title>
<g id="a_node36"><a xlink:title="bevy_ecs::event::Events&lt;bevy_window::event::WindowBackendScaleFactorChanged&gt;::update_system">
<polygon fill="#eff1f3" stroke="#eff1f3" points="464.5,-1240 39.5,-1240 39.5,-1204 464.5,-1204 464.5,-1240"/>
<text text-anchor="middle" x="252" y="-1218.3" font-family="Times,serif" font-size="14.00">Events&lt;WindowBackendScaleFactorChanged&gt;update_system</text>
</a>
</g>
</g>
<!-- node_System(43) -->
<g id="node37" class="node">
<title>node_System(43)</title>
<g id="a_node37"><a xlink:title="bevy_ecs::event::Events&lt;bevy_window::event::FileDragAndDrop&gt;::update_system">
<polygon fill="#eff1f3" stroke="#eff1f3" points="399,-1186 105,-1186 105,-1150 399,-1150 399,-1186"/>
<text text-anchor="middle" x="252" y="-1164.3" font-family="Times,serif" font-size="14.00">Events&lt;FileDragAndDrop&gt;update_system</text>
</a>
</g>
</g>
<!-- node_System(44) -->
<g id="node38" class="node">
<title>node_System(44)</title>
<g id="a_node38"><a xlink:title="bevy_ecs::event::Events&lt;bevy_window::event::WindowMoved&gt;::update_system">
<polygon fill="#eff1f3" stroke="#eff1f3" points="391.5,-1132 112.5,-1132 112.5,-1096 391.5,-1096 391.5,-1132"/>
<text text-anchor="middle" x="252" y="-1110.3" font-family="Times,serif" font-size="14.00">Events&lt;WindowMoved&gt;update_system</text>
</a>
</g>
</g>
<!-- node_System(51) -->
<g id="node39" class="node">
<title>node_System(51)</title>
<g id="a_node39"><a xlink:title="bevy_ecs::event::Events&lt;bevy_asset::assets::AssetEvent&lt;bevy_scene::dynamic_scene::DynamicScene&gt;&gt;::update_system">
<polygon fill="#eff1f3" stroke="#eff1f3" points="434,-1078 70,-1078 70,-1042 434,-1042 434,-1078"/>
<text text-anchor="middle" x="252" y="-1056.3" font-family="Times,serif" font-size="14.00">Events&lt;AssetEvent&lt;DynamicScene&gt;&gt;update_system</text>
</a>
</g>
</g>
<!-- node_System(54) -->
<g id="node40" class="node">
<title>node_System(54)</title>
<g id="a_node40"><a xlink:title="bevy_ecs::event::Events&lt;bevy_asset::assets::AssetEvent&lt;bevy_scene::scene::Scene&gt;&gt;::update_system">
<polygon fill="#eff1f3" stroke="#eff1f3" points="403.5,-1024 100.5,-1024 100.5,-988 403.5,-988 403.5,-1024"/>
<text text-anchor="middle" x="252" y="-1002.3" font-family="Times,serif" font-size="14.00">Events&lt;AssetEvent&lt;Scene&gt;&gt;update_system</text>
</a>
</g>
</g>
<!-- node_System(59) -->
<g id="node41" class="node">
<title>node_System(59)</title>
<g id="a_node41"><a xlink:title="bevy_ecs::event::Events&lt;accesskit::ActionRequest&gt;::update_system">
<polygon fill="#eff1f3" stroke="#eff1f3" points="388,-970 116,-970 116,-934 388,-934 388,-970"/>
<text text-anchor="middle" x="252" y="-948.3" font-family="Times,serif" font-size="14.00">Events&lt;ActionRequest&gt;update_system</text>
</a>
</g>
</g>
<!-- node_System(66) -->
<g id="node42" class="node">
<title>node_System(66)</title>
<g id="a_node42"><a xlink:title="bevy_ecs::event::Events&lt;bevy_asset::assets::AssetEvent&lt;bevy_render::render_resource::shader::Shader&gt;&gt;::update_system">
<polygon fill="#eff1f3" stroke="#eff1f3" points="408,-916 96,-916 96,-880 408,-880 408,-916"/>
<text text-anchor="middle" x="252" y="-894.3" font-family="Times,serif" font-size="14.00">Events&lt;AssetEvent&lt;Shader&gt;&gt;update_system</text>
</a>
</g>
</g>
<!-- node_System(80) -->
<g id="node43" class="node">
<title>node_System(80)</title>
<g id="a_node43"><a xlink:title="bevy_ecs::event::Events&lt;bevy_asset::assets::AssetEvent&lt;bevy_render::mesh::mesh::Mesh&gt;&gt;::update_system">
<polygon fill="#eff1f3" stroke="#eff1f3" points="402.5,-862 101.5,-862 101.5,-826 402.5,-826 402.5,-862"/>
<text text-anchor="middle" x="252" y="-840.3" font-family="Times,serif" font-size="14.00">Events&lt;AssetEvent&lt;Mesh&gt;&gt;update_system</text>
</a>
</g>
</g>
<!-- node_System(83) -->
<g id="node44" class="node">
<title>node_System(83)</title>
<g id="a_node44"><a xlink:title="bevy_ecs::event::Events&lt;bevy_asset::assets::AssetEvent&lt;bevy_render::mesh::mesh::skinning::SkinnedMeshInverseBindposes&gt;&gt;::update_system">
<polygon fill="#eff1f3" stroke="#eff1f3" points="488,-808 16,-808 16,-772 488,-772 488,-808"/>
<text text-anchor="middle" x="252" y="-786.3" font-family="Times,serif" font-size="14.00">Events&lt;AssetEvent&lt;SkinnedMeshInverseBindposes&gt;&gt;update_system</text>
</a>
</g>
</g>
<!-- node_System(86) -->
<g id="node45" class="node">
<title>node_System(86)</title>
<g id="a_node45"><a xlink:title="bevy_ecs::event::Events&lt;bevy_asset::assets::AssetEvent&lt;bevy_render::texture::image::Image&gt;&gt;::update_system">
<polygon fill="#eff1f3" stroke="#eff1f3" points="405.5,-754 98.5,-754 98.5,-718 405.5,-718 405.5,-754"/>
<text text-anchor="middle" x="252" y="-732.3" font-family="Times,serif" font-size="14.00">Events&lt;AssetEvent&lt;Image&gt;&gt;update_system</text>
</a>
</g>
</g>
<!-- node_System(89) -->
<g id="node46" class="node">
<title>node_System(89)</title>
<g id="a_node46"><a xlink:title="bevy_ecs::event::Events&lt;bevy_asset::assets::AssetEvent&lt;bevy_sprite::texture_atlas::TextureAtlas&gt;&gt;::update_system">
<polygon fill="#eff1f3" stroke="#eff1f3" points="427.5,-700 76.5,-700 76.5,-664 427.5,-664 427.5,-700"/>
<text text-anchor="middle" x="252" y="-678.3" font-family="Times,serif" font-size="14.00">Events&lt;AssetEvent&lt;TextureAtlas&gt;&gt;update_system</text>
</a>
</g>
</g>
<!-- node_System(92) -->
<g id="node47" class="node">
<title>node_System(92)</title>
<g id="a_node47"><a xlink:title="bevy_ecs::event::Events&lt;bevy_asset::assets::AssetEvent&lt;bevy_sprite::mesh2d::color_material::ColorMaterial&gt;&gt;::update_system">
<polygon fill="#eff1f3" stroke="#eff1f3" points="431.5,-646 72.5,-646 72.5,-610 431.5,-610 431.5,-646"/>
<text text-anchor="middle" x="252" y="-624.3" font-family="Times,serif" font-size="14.00">Events&lt;AssetEvent&lt;ColorMaterial&gt;&gt;update_system</text>
</a>
</g>
</g>
<!-- node_System(95) -->
<g id="node48" class="node">
<title>node_System(95)</title>
<g id="a_node48"><a xlink:title="bevy_ecs::event::Events&lt;bevy_asset::assets::AssetEvent&lt;bevy_text::font::Font&gt;&gt;::update_system">
<polygon fill="#eff1f3" stroke="#eff1f3" points="399.5,-592 104.5,-592 104.5,-556 399.5,-556 399.5,-592"/>
<text text-anchor="middle" x="252" y="-570.3" font-family="Times,serif" font-size="14.00">Events&lt;AssetEvent&lt;Font&gt;&gt;update_system</text>
</a>
</g>
</g>
<!-- node_System(98) -->
<g id="node49" class="node">
<title>node_System(98)</title>
<g id="a_node49"><a xlink:title="bevy_ecs::event::Events&lt;bevy_asset::assets::AssetEvent&lt;bevy_text::font_atlas_set::FontAtlasSet&gt;&gt;::update_system">
<polygon fill="#eff1f3" stroke="#eff1f3" points="426.5,-538 77.5,-538 77.5,-502 426.5,-502 426.5,-538"/>
<text text-anchor="middle" x="252" y="-516.3" font-family="Times,serif" font-size="14.00">Events&lt;AssetEvent&lt;FontAtlasSet&gt;&gt;update_system</text>
</a>
</g>
</g>
<!-- node_System(112) -->
<g id="node50" class="node">
<title>node_System(112)</title>
<g id="a_node50"><a xlink:title="bevy_ecs::event::Events&lt;bevy_asset::assets::AssetEvent&lt;bevy_pbr::pbr_material::StandardMaterial&gt;&gt;::update_system">
<polygon fill="#eff1f3" stroke="#eff1f3" points="444.5,-484 59.5,-484 59.5,-448 444.5,-448 444.5,-484"/>
<text text-anchor="middle" x="252" y="-462.3" font-family="Times,serif" font-size="14.00">Events&lt;AssetEvent&lt;StandardMaterial&gt;&gt;update_system</text>
</a>
</g>
</g>
<!-- node_System(123) -->
<g id="node51" class="node">
<title>node_System(123)</title>
<g id="a_node51"><a xlink:title="bevy_ecs::event::Events&lt;bevy_asset::assets::AssetEvent&lt;bevy_gltf::Gltf&gt;&gt;::update_system">
<polygon fill="#eff1f3" stroke="#eff1f3" points="397,-430 107,-430 107,-394 397,-394 397,-430"/>
<text text-anchor="middle" x="252" y="-408.3" font-family="Times,serif" font-size="14.00">Events&lt;AssetEvent&lt;Gltf&gt;&gt;update_system</text>
</a>
</g>
</g>
<!-- node_System(126) -->
<g id="node52" class="node">
<title>node_System(126)</title>
<g id="a_node52"><a xlink:title="bevy_ecs::event::Events&lt;bevy_asset::assets::AssetEvent&lt;bevy_gltf::GltfNode&gt;&gt;::update_system">
<polygon fill="#eff1f3" stroke="#eff1f3" points="414,-376 90,-376 90,-340 414,-340 414,-376"/>
<text text-anchor="middle" x="252" y="-354.3" font-family="Times,serif" font-size="14.00">Events&lt;AssetEvent&lt;GltfNode&gt;&gt;update_system</text>
</a>
</g>
</g>
<!-- node_System(129) -->
<g id="node53" class="node">
<title>node_System(129)</title>
<g id="a_node53"><a xlink:title="bevy_ecs::event::Events&lt;bevy_asset::assets::AssetEvent&lt;bevy_gltf::GltfPrimitive&gt;&gt;::update_system">
<polygon fill="#eff1f3" stroke="#eff1f3" points="428.5,-322 75.5,-322 75.5,-286 428.5,-286 428.5,-322"/>
<text text-anchor="middle" x="252" y="-300.3" font-family="Times,serif" font-size="14.00">Events&lt;AssetEvent&lt;GltfPrimitive&gt;&gt;update_system</text>
</a>
</g>
</g>
<!-- node_System(132) -->
<g id="node54" class="node">
<title>node_System(132)</title>
<g id="a_node54"><a xlink:title="bevy_ecs::event::Events&lt;bevy_asset::assets::AssetEvent&lt;bevy_gltf::GltfMesh&gt;&gt;::update_system">
<polygon fill="#eff1f3" stroke="#eff1f3" points="415,-268 89,-268 89,-232 415,-232 415,-268"/>
<text text-anchor="middle" x="252" y="-246.3" font-family="Times,serif" font-size="14.00">Events&lt;AssetEvent&lt;GltfMesh&gt;&gt;update_system</text>
</a>
</g>
</g>
<!-- node_System(135) -->
<g id="node55" class="node">
<title>node_System(135)</title>
<g id="a_node55"><a xlink:title="bevy_ecs::event::Events&lt;bevy_asset::assets::AssetEvent&lt;bevy_audio::audio_source::AudioSource&gt;&gt;::update_system">
<polygon fill="#eff1f3" stroke="#eff1f3" points="427,-214 77,-214 77,-178 427,-178 427,-214"/>
<text text-anchor="middle" x="252" y="-192.3" font-family="Times,serif" font-size="14.00">Events&lt;AssetEvent&lt;AudioSource&gt;&gt;update_system</text>
</a>
</g>
</g>
<!-- node_System(138) -->
<g id="node56" class="node">
<title>node_System(138)</title>
<g id="a_node56"><a xlink:title="bevy_ecs::event::Events&lt;bevy_asset::assets::AssetEvent&lt;bevy_audio::sinks::AudioSink&gt;&gt;::update_system">
<polygon fill="#eff1f3" stroke="#eff1f3" points="419,-160 85,-160 85,-124 419,-124 419,-160"/>
<text text-anchor="middle" x="252" y="-138.3" font-family="Times,serif" font-size="14.00">Events&lt;AssetEvent&lt;AudioSink&gt;&gt;update_system</text>
</a>
</g>
</g>
<!-- node_System(141) -->
<g id="node57" class="node">
<title>node_System(141)</title>
<g id="a_node57"><a xlink:title="bevy_ecs::event::Events&lt;bevy_asset::assets::AssetEvent&lt;bevy_audio::sinks::SpatialAudioSink&gt;&gt;::update_system">
<polygon fill="#eff1f3" stroke="#eff1f3" points="442,-106 62,-106 62,-70 442,-70 442,-106"/>
<text text-anchor="middle" x="252" y="-84.3" font-family="Times,serif" font-size="14.00">Events&lt;AssetEvent&lt;SpatialAudioSink&gt;&gt;update_system</text>
</a>
</g>
</g>
<!-- node_System(146) -->
<g id="node58" class="node">
<title>node_System(146)</title>
<g id="a_node58"><a xlink:title="bevy_ecs::event::Events&lt;bevy_asset::assets::AssetEvent&lt;bevy_animation::AnimationClip&gt;&gt;::update_system">
<polygon fill="#eff1f3" stroke="#eff1f3" points="433,-52 71,-52 71,-16 433,-16 433,-52"/>
<text text-anchor="middle" x="252" y="-30.3" font-family="Times,serif" font-size="14.00">Events&lt;AssetEvent&lt;AnimationClip&gt;&gt;update_system</text>
</a>
</g>
</g>
<!-- set_marker_node_Set(8)&#45;&gt;set_marker_node_Set(3) -->
<g id="edge3" class="edge">
<title>set_marker_node_Set(8)&#45;&gt;set_marker_node_Set(3)</title>
<g id="a_edge3"><a xlink:title="PreUpdate → PreUpdateFlush">
<path fill="none" stroke="#00b0cc" stroke-width="2" d="M800,-2499C802.33,-2499 804.7,-2499 807.12,-2499"/>
<polygon fill="#00b0cc" stroke="#00b0cc" stroke-width="2" points="806.97,-2502.5 816.97,-2499 806.97,-2495.5 806.97,-2502.5"/>
</a>
</g>
</g>
<!-- set_marker_node_Set(10) -->
<!-- set_marker_node_Set(9)&#45;&gt;set_marker_node_Set(10) -->
<g id="edge5" class="edge">
<title>set_marker_node_Set(9)&#45;&gt;set_marker_node_Set(10)</title>
<g id="a_edge5"><a xlink:title="StateTransitions → FixedUpdate">
<path fill="none" stroke="#44d488" stroke-width="2" d="M1141,-2499C1143.39,-2499 1145.79,-2499 1148.19,-2499"/>
<polygon fill="#44d488" stroke="#44d488" stroke-width="2" points="1147.98,-2502.5 1157.98,-2499 1147.98,-2495.5 1147.98,-2502.5"/>
</a>
</g>
</g>
<!-- set_marker_node_Set(10)&#45;&gt;set_marker_node_Set(0) -->
<g id="edge6" class="edge">
<title>set_marker_node_Set(10)&#45;&gt;set_marker_node_Set(0)</title>
<g id="a_edge6"><a xlink:title="FixedUpdate → Update">
<path fill="none" stroke="#0090cc" stroke-width="2" d="M1261,-2499C1263.37,-2499 1265.75,-2499 1268.11,-2499"/>
<polygon fill="#0090cc" stroke="#0090cc" stroke-width="2" points="1267.98,-2502.5 1277.98,-2499 1267.98,-2495.5 1267.98,-2502.5"/>
</a>
</g>
</g>
<!-- set_marker_node_Set(11)&#45;&gt;set_marker_node_Set(5) -->
<g id="edge9" class="edge">
<title>set_marker_node_Set(11)&#45;&gt;set_marker_node_Set(5)</title>
<g id="a_edge9"><a xlink:title="PostUpdate → PostUpdateFlush">
<path fill="none" stroke="#3363bb" stroke-width="2" d="M1748,-2505C1756.98,-2511.91 1753.37,-2521.02 1754.03,-2529.46"/>
<polygon fill="#3363bb" stroke="#3363bb" stroke-width="2" points="1750.9,-2531.04 1758.61,-2538.31 1757.12,-2527.82 1750.9,-2531.04"/>
</a>
</g>
</g>
<!-- set_marker_node_Set(60) -->
<!-- set_marker_node_Set(11)&#45;&gt;set_marker_node_Set(60) -->
<g id="edge14" class="edge">
<title>set_marker_node_Set(11)&#45;&gt;set_marker_node_Set(60)</title>
<g id="a_edge14"><a xlink:title="PostUpdate → AssetEvents">
<path fill="none" stroke="#00b0cc" stroke-width="2" d="M1683.7,-2491C1711.76,-2483.81 1753.75,-2473.04 1788.19,-2464.21"/>
<polygon fill="#00b0cc" stroke="#00b0cc" stroke-width="2" points="1788.75,-2467.68 1797.57,-2461.8 1787.01,-2460.9 1788.75,-2467.68"/>
</a>
</g>
</g>
<!-- set_marker_node_Set(87) -->
<!-- node_System(71) -->
<g id="node64" class="node">
<title>node_System(71)</title>
<g id="a_node64"><a xlink:title="bevy_ecs::schedule::executor::apply_system_buffers">
<polygon fill="#eff1f3" stroke="#eff1f3" points="1732,-2654 1571,-2654 1571,-2618 1732,-2618 1732,-2654"/>
<text text-anchor="middle" x="1651.5" y="-2632.3" font-family="Times,serif" font-size="14.00">apply_system_buffers</text>
</a>
</g>
</g>
<!-- set_marker_node_Set(138) -->
<!-- node_System(114) -->
<g id="node66" class="node">
<title>node_System(114)</title>
<g id="a_node66"><a xlink:title="bevy_ecs::schedule::executor::apply_system_buffers">
<polygon fill="#eff1f3" stroke="#eff1f3" points="1732,-2553 1571,-2553 1571,-2517 1732,-2517 1732,-2553"/>
<text text-anchor="middle" x="1651.5" y="-2531.3" font-family="Times,serif" font-size="14.00">apply_system_buffers</text>
</a>
</g>
</g>
<!-- set_marker_node_Set(12)&#45;&gt;set_marker_node_Set(6) -->
<g id="edge11" class="edge">
<title>set_marker_node_Set(12)&#45;&gt;set_marker_node_Set(6)</title>
<g id="a_edge11"><a xlink:title="Last → LastFlush">
<path fill="none" stroke="#99d955" stroke-width="2" d="M2001,-2499C2003.31,-2499 2005.76,-2499 2008.33,-2499"/>
<polygon fill="#99d955" stroke="#99d955" stroke-width="2" points="2007.97,-2502.5 2017.97,-2499 2007.97,-2495.5 2007.97,-2502.5"/>
</a>
</g>
</g>
<!-- set_marker_node_Set(22) -->
<!-- set_marker_node_Set(59)&#45;&gt;set_marker_node_Set(8) -->
<g id="edge12" class="edge">
<title>set_marker_node_Set(59)&#45;&gt;set_marker_node_Set(8)</title>
<g id="a_edge12"><a xlink:title="LoadAssets → PreUpdate">
<path fill="none" stroke="#eede00" stroke-width="2" d="M650.5,-2464.05C672.34,-2471.36 698.25,-2480.02 718.8,-2486.89"/>
<polygon fill="#eede00" stroke="#eede00" stroke-width="2" points="717.63,-2490.19 728.22,-2490.04 719.85,-2483.55 717.63,-2490.19"/>
</a>
</g>
</g>
<!-- set_marker_node_Set(60)&#45;&gt;set_marker_node_Set(12) -->
<g id="edge15" class="edge">
<title>set_marker_node_Set(60)&#45;&gt;set_marker_node_Set(12)</title>
<g id="a_edge15"><a xlink:title="AssetEvents → Last">
<path fill="none" stroke="#aa3a55" stroke-width="2" d="M1896.5,-2467.29C1912.84,-2473.65 1930.79,-2480.63 1945.68,-2486.42"/>
<polygon fill="#aa3a55" stroke="#aa3a55" stroke-width="2" points="1944.04,-2489.54 1954.63,-2489.91 1946.58,-2483.02 1944.04,-2489.54"/>
</a>
</g>
</g>
</g>
</svg>
