<?xml version="1.0" encoding="UTF-8" standalone="no"?>
<!DOCTYPE svg PUBLIC "-//W3C//DTD SVG 1.1//EN"
 "http://www.w3.org/Graphics/SVG/1.1/DTD/svg11.dtd">
<!-- Generated by graphviz version 7.1.0 (0)
 -->
<!-- Pages: 1 -->
<svg width="1791pt" height="613pt"
 viewBox="0.00 0.00 1791.00 613.42" xmlns="http://www.w3.org/2000/svg" xmlns:xlink="http://www.w3.org/1999/xlink">
<g id="graph0" class="graph" transform="scale(1 1) rotate(0) translate(4 609.42)">
<polygon fill="#0d1117" stroke="none" points="-4,4 -4,-609.42 1787,-609.42 1787,4 -4,4"/>
<g id="clust1" class="cluster">
<title>clusternode_Set(0)</title>
<g id="a_clust1"><a xlink:title="Update">
<polygon fill="#6f90ad" stroke="black" points="691,-102 691,-141 756,-141 756,-102 691,-102"/>
<text text-anchor="middle" x="723.5" y="-125.8" font-family="Helvetica,sans-Serif" font-size="14.00">Update</text>
</a>
</g>
</g>
<g id="clust2" class="cluster">
<title>clusternode_Set(2)</title>
<g id="a_clust2"><a xlink:title="FirstFlush">
<polygon fill="#6f90ad" stroke="black" points="70,-125 70,-164 152,-164 152,-125 70,-125"/>
<text text-anchor="middle" x="111" y="-148.8" font-family="Helvetica,sans-Serif" font-size="14.00">FirstFlush</text>
</a>
</g>
</g>
<g id="clust3" class="cluster">
<title>clusternode_Set(3)</title>
<g id="a_clust3"><a xlink:title="PreUpdateFlush">
<polygon fill="#6f90ad" stroke="black" points="284,-102 284,-141 407,-141 407,-102 284,-102"/>
<text text-anchor="middle" x="345.5" y="-125.8" font-family="Helvetica,sans-Serif" font-size="14.00">PreUpdateFlush</text>
</a>
</g>
</g>
<g id="clust4" class="cluster">
<title>clusternode_Set(4)</title>
<g id="a_clust4"><a xlink:title="UpdateFlush">
<polygon fill="#6f90ad" stroke="black" points="776,-102 776,-141 877,-141 877,-102 776,-102"/>
<text text-anchor="middle" x="826.5" y="-125.8" font-family="Helvetica,sans-Serif" font-size="14.00">UpdateFlush</text>
</a>
</g>
</g>
<g id="clust5" class="cluster">
<title>clusternode_Set(5)</title>
<g id="a_clust5"><a xlink:title="PostUpdateFlush">
<polygon fill="#6f90ad" stroke="black" points="1313,-55 1313,-94 1442,-94 1442,-55 1313,-55"/>
<text text-anchor="middle" x="1377.5" y="-78.8" font-family="Helvetica,sans-Serif" font-size="14.00">PostUpdateFlush</text>
</a>
</g>
</g>
<g id="clust6" class="cluster">
<title>clusternode_Set(6)</title>
<g id="a_clust6"><a xlink:title="LastFlush">
<polygon fill="#6f90ad" stroke="black" points="1703,-31 1703,-70 1783,-70 1783,-31 1703,-31"/>
<text text-anchor="middle" x="1743" y="-54.8" font-family="Helvetica,sans-Serif" font-size="14.00">LastFlush</text>
</a>
</g>
</g>
<g id="clust7" class="cluster">
<title>clusternode_Set(7)</title>
<g id="a_clust7"><a xlink:title="First">
<polygon fill="#6f90ad" stroke="black" points="0,-101 0,-140 46,-140 46,-101 0,-101"/>
<text text-anchor="middle" x="23" y="-124.8" font-family="Helvetica,sans-Serif" font-size="14.00">First</text>
</a>
</g>
</g>
<g id="clust8" class="cluster">
<title>clusternode_Set(8)</title>
<g id="a_clust8"><a xlink:title="PreUpdate">
<polygon fill="#6f90ad" stroke="black" points="177,-102 177,-141 264,-141 264,-102 177,-102"/>
<text text-anchor="middle" x="220.5" y="-125.8" font-family="Helvetica,sans-Serif" font-size="14.00">PreUpdate</text>
</a>
</g>
</g>
<g id="clust9" class="cluster">
<title>clusternode_Set(9)</title>
<g id="a_clust9"><a xlink:title="StateTransitions">
<polygon fill="#6f90ad" stroke="black" points="427,-102 427,-141 551,-141 551,-102 427,-102"/>
<text text-anchor="middle" x="489" y="-125.8" font-family="Helvetica,sans-Serif" font-size="14.00">StateTransitions</text>
</a>
</g>
</g>
<g id="clust10" class="cluster">
<title>clusternode_Set(10)</title>
<g id="a_clust10"><a xlink:title="FixedUpdate">
<polygon fill="#6f90ad" stroke="black" points="571,-102 571,-141 671,-141 671,-102 571,-102"/>
<text text-anchor="middle" x="621" y="-125.8" font-family="Helvetica,sans-Serif" font-size="14.00">FixedUpdate</text>
</a>
</g>
</g>
<g id="clust11" class="cluster">
<title>clusternode_Set(11)</title>
<g id="a_clust11"><a xlink:title="PostUpdate">
<polygon fill="#6f90ad" stroke="black" points="889,-102 889,-594 1691,-594 1691,-102 889,-102"/>
<text text-anchor="middle" x="1290" y="-578.8" font-family="Helvetica,sans-Serif" font-size="14.00">PostUpdate</text>
</a>
</g>
</g>
<g id="clust12" class="cluster">
<title>clusternode_Set(20)</title>
<g id="a_clust12"><a xlink:title="TransformPropagate">
<polygon fill="#6f90ad" stroke="black" points="976,-478 976,-517 1128,-517 1128,-478 976,-478"/>
<text text-anchor="middle" x="1052" y="-501.8" font-family="Helvetica,sans-Serif" font-size="14.00">TransformPropagate</text>
</a>
</g>
</g>
<g id="clust13" class="cluster">
<title>clusternode_Set(76)</title>
<g id="a_clust13"><a xlink:title="CameraUpdateSystem">
<polygon fill="#6f90ad" stroke="black" points="897,-269 897,-470 1207,-470 1207,-269 897,-269"/>
<text text-anchor="middle" x="1052" y="-454.8" font-family="Helvetica,sans-Serif" font-size="14.00">CameraUpdateSystem</text>
</a>
</g>
</g>
<g id="clust14" class="cluster">
<title>clusternode_Set(80)</title>
<g id="a_clust14"><a xlink:title="CalculateBounds">
<polygon fill="#6f90ad" stroke="black" points="977.5,-157 977.5,-250 1126.5,-250 1126.5,-157 977.5,-157"/>
<text text-anchor="middle" x="1052" y="-234.8" font-family="Helvetica,sans-Serif" font-size="14.00">CalculateBounds</text>
</a>
</g>
</g>
<g id="clust15" class="cluster">
<title>clusternode_Set(81)</title>
<g id="a_clust15"><a xlink:title="CalculateBoundsFlush">
<polygon fill="#6f90ad" stroke="black" points="1295,-211 1295,-250 1459,-250 1459,-211 1295,-211"/>
<text text-anchor="middle" x="1377" y="-234.8" font-family="Helvetica,sans-Serif" font-size="14.00">CalculateBoundsFlush</text>
</a>
</g>
</g>
<g id="clust16" class="cluster">
<title>clusternode_Set(82)</title>
<g id="a_clust16"><a xlink:title="UpdateOrthographicFrusta">
<polygon fill="#6f90ad" stroke="black" points="1227,-258 1227,-351 1527,-351 1527,-258 1227,-258"/>
<text text-anchor="middle" x="1377" y="-335.8" font-family="Helvetica,sans-Serif" font-size="14.00">UpdateOrthographicFrusta</text>
</a>
</g>
</g>
<g id="clust17" class="cluster">
<title>clusternode_Set(83)</title>
<g id="a_clust17"><a xlink:title="UpdatePerspectiveFrusta">
<polygon fill="#6f90ad" stroke="black" points="1233.5,-359 1233.5,-452 1520.5,-452 1520.5,-359 1233.5,-359"/>
<text text-anchor="middle" x="1377" y="-436.8" font-family="Helvetica,sans-Serif" font-size="14.00">UpdatePerspectiveFrusta</text>
</a>
</g>
</g>
<g id="clust18" class="cluster">
<title>clusternode_Set(84)</title>
<g id="a_clust18"><a xlink:title="UpdateProjectionFrusta">
<polygon fill="#6f90ad" stroke="black" points="1272,-460 1272,-553 1482,-553 1482,-460 1272,-460"/>
<text text-anchor="middle" x="1377" y="-537.8" font-family="Helvetica,sans-Serif" font-size="14.00">UpdateProjectionFrusta</text>
</a>
</g>
</g>
<g id="clust19" class="cluster">
<title>clusternode_Set(85)</title>
<g id="a_clust19"><a xlink:title="CheckVisibility">
<polygon fill="#6f90ad" stroke="black" points="1547,-344 1547,-437 1683,-437 1683,-344 1547,-344"/>
<text text-anchor="middle" x="1615" y="-421.8" font-family="Helvetica,sans-Serif" font-size="14.00">CheckVisibility</text>
</a>
</g>
</g>
<g id="clust20" class="cluster">
<title>clusternode_Set(86)</title>
<g id="a_clust20"><a xlink:title="VisibilityPropagate">
<polygon fill="#6f90ad" stroke="black" points="1267.5,-110 1267.5,-203 1486.5,-203 1486.5,-110 1267.5,-110"/>
<text text-anchor="middle" x="1377" y="-187.8" font-family="Helvetica,sans-Serif" font-size="14.00">VisibilityPropagate</text>
</a>
</g>
</g>
<g id="clust21" class="cluster">
<title>clusternode_Set(12)</title>
<g id="a_clust21"><a xlink:title="Last">
<polygon fill="#6f90ad" stroke="black" points="1593,-31 1593,-70 1637,-70 1637,-31 1593,-31"/>
<text text-anchor="middle" x="1615" y="-54.8" font-family="Helvetica,sans-Serif" font-size="14.00">Last</text>
</a>
</g>
</g>
<g id="clust22" class="cluster">
<title>clusternode_Set(58)</title>
<g id="a_clust22"><a xlink:title="LoadAssets">
<polygon fill="#6f90ad" stroke="black" points="66,-78 66,-117 157,-117 157,-78 66,-78"/>
<text text-anchor="middle" x="111.5" y="-101.8" font-family="Helvetica,sans-Serif" font-size="14.00">LoadAssets</text>
</a>
</g>
</g>
<g id="clust23" class="cluster">
<title>clusternode_Set(59)</title>
<g id="a_clust23"><a xlink:title="AssetEvents">
<polygon fill="#6f90ad" stroke="black" points="1329,-8 1329,-47 1425,-47 1425,-8 1329,-8"/>
<text text-anchor="middle" x="1377" y="-31.8" font-family="Helvetica,sans-Serif" font-size="14.00">AssetEvents</text>
</a>
</g>
</g>
<!-- set_marker_node_Set(0) -->
<!-- set_marker_node_Set(4) -->
<!-- set_marker_node_Set(0)&#45;&gt;set_marker_node_Set(4) -->
<g id="edge7" class="edge">
<title>set_marker_node_Set(0)&#45;&gt;set_marker_node_Set(4)</title>
<g id="a_edge7"><a xlink:title="Update → UpdateFlush">
<path fill="none" stroke="#ee9e44" stroke-width="2" d="M756,-110C758.35,-110 760.77,-110 763.22,-110"/>
<polygon fill="#ee9e44" stroke="#ee9e44" stroke-width="2" points="762.97,-113.5 772.97,-110 762.97,-106.5 762.97,-113.5"/>
</a>
</g>
</g>
<!-- set_marker_node_Set(2) -->
<!-- set_marker_node_Set(8) -->
<!-- set_marker_node_Set(2)&#45;&gt;set_marker_node_Set(8) -->
<g id="edge2" class="edge">
<title>set_marker_node_Set(2)&#45;&gt;set_marker_node_Set(8)</title>
<g id="a_edge2"><a xlink:title="FirstFlush → PreUpdate">
<path fill="none" stroke="#881877" stroke-width="2" d="M149.2,-125C154.17,-123.94 159.34,-122.82 164.52,-121.71"/>
<polygon fill="#881877" stroke="#881877" stroke-width="2" points="165,-125.19 174.04,-119.66 163.53,-118.34 165,-125.19"/>
</a>
</g>
</g>
<!-- set_marker_node_Set(3) -->
<!-- set_marker_node_Set(9) -->
<!-- set_marker_node_Set(3)&#45;&gt;set_marker_node_Set(9) -->
<g id="edge4" class="edge">
<title>set_marker_node_Set(3)&#45;&gt;set_marker_node_Set(9)</title>
<g id="a_edge4"><a xlink:title="PreUpdateFlush → StateTransitions">
<path fill="none" stroke="#aa3a55" stroke-width="2" d="M407,-110C409.39,-110 411.8,-110 414.21,-110"/>
<polygon fill="#aa3a55" stroke="#aa3a55" stroke-width="2" points="413.98,-113.5 423.98,-110 413.98,-106.5 413.98,-113.5"/>
</a>
</g>
</g>
<!-- set_marker_node_Set(11) -->
<!-- set_marker_node_Set(4)&#45;&gt;set_marker_node_Set(11) -->
<g id="edge8" class="edge">
<title>set_marker_node_Set(4)&#45;&gt;set_marker_node_Set(11)</title>
<g id="a_edge8"><a xlink:title="UpdateFlush → PostUpdate">
<path fill="none" stroke="#663699" stroke-width="2" d="M877,-110C880,-110 883,-110 886,-110"/>
<polygon fill="#663699" stroke="#663699" stroke-width="2" points="875.98,-113.5 885.98,-110 875.98,-106.5 875.98,-113.5"/>
</a>
</g>
</g>
<!-- set_marker_node_Set(5) -->
<!-- set_marker_node_Set(12) -->
<!-- set_marker_node_Set(5)&#45;&gt;set_marker_node_Set(12) -->
<g id="edge10" class="edge">
<title>set_marker_node_Set(5)&#45;&gt;set_marker_node_Set(12)</title>
<g id="a_edge10"><a xlink:title="PostUpdateFlush → Last">
<path fill="none" stroke="#22c2bb" stroke-width="2" d="M1442,-58.65C1468.36,-56.64 1499.18,-54.04 1527,-51 1544.66,-49.07 1564.27,-46.41 1580.4,-44.09"/>
<polygon fill="#22c2bb" stroke="#22c2bb" stroke-width="2" points="1580.62,-47.59 1590.01,-42.68 1579.61,-40.67 1580.62,-47.59"/>
</a>
</g>
</g>
<!-- set_marker_node_Set(6) -->
<!-- set_marker_node_Set(7) -->
<!-- set_marker_node_Set(7)&#45;&gt;set_marker_node_Set(2) -->
<g id="edge1" class="edge">
<title>set_marker_node_Set(7)&#45;&gt;set_marker_node_Set(2)</title>
<g id="a_edge1"><a xlink:title="First → FirstFlush">
<path fill="none" stroke="#eede00" stroke-width="2" d="M46,-115.34C52.44,-117.18 59.5,-119.18 66,-121 66.73,-121.2 67.47,-121.41 68.21,-121.62"/>
<polygon fill="#eede00" stroke="#eede00" stroke-width="2" points="67,-124.91 77.57,-124.2 68.86,-118.17 67,-124.91"/>
</a>
</g>
</g>
<!-- set_marker_node_Set(58) -->
<!-- set_marker_node_Set(7)&#45;&gt;set_marker_node_Set(58) -->
<g id="edge13" class="edge">
<title>set_marker_node_Set(7)&#45;&gt;set_marker_node_Set(58)</title>
<g id="a_edge13"><a xlink:title="First → LoadAssets">
<path fill="none" stroke="#881877" stroke-width="2" d="M46,-103.12C48.46,-102.46 51.05,-101.77 53.71,-101.05"/>
<polygon fill="#881877" stroke="#881877" stroke-width="2" points="54.32,-104.51 63.08,-98.55 52.51,-97.75 54.32,-104.51"/>
</a>
</g>
</g>
<!-- set_marker_node_Set(8)&#45;&gt;set_marker_node_Set(3) -->
<g id="edge3" class="edge">
<title>set_marker_node_Set(8)&#45;&gt;set_marker_node_Set(3)</title>
<g id="a_edge3"><a xlink:title="PreUpdate → PreUpdateFlush">
<path fill="none" stroke="#00b0cc" stroke-width="2" d="M264,-110C266.39,-110 268.82,-110 271.28,-110"/>
<polygon fill="#00b0cc" stroke="#00b0cc" stroke-width="2" points="270.98,-113.5 280.98,-110 270.98,-106.5 270.98,-113.5"/>
</a>
</g>
</g>
<!-- set_marker_node_Set(10) -->
<!-- set_marker_node_Set(9)&#45;&gt;set_marker_node_Set(10) -->
<g id="edge5" class="edge">
<title>set_marker_node_Set(9)&#45;&gt;set_marker_node_Set(10)</title>
<g id="a_edge5"><a xlink:title="StateTransitions → FixedUpdate">
<path fill="none" stroke="#44d488" stroke-width="2" d="M551,-110C553.39,-110 555.79,-110 558.19,-110"/>
<polygon fill="#44d488" stroke="#44d488" stroke-width="2" points="557.98,-113.5 567.98,-110 557.98,-106.5 557.98,-113.5"/>
</a>
</g>
</g>
<!-- set_marker_node_Set(10)&#45;&gt;set_marker_node_Set(0) -->
<g id="edge6" class="edge">
<title>set_marker_node_Set(10)&#45;&gt;set_marker_node_Set(0)</title>
<g id="a_edge6"><a xlink:title="FixedUpdate → Update">
<path fill="none" stroke="#0090cc" stroke-width="2" d="M671,-110C673.37,-110 675.75,-110 678.11,-110"/>
<polygon fill="#0090cc" stroke="#0090cc" stroke-width="2" points="677.98,-113.5 687.98,-110 677.98,-106.5 677.98,-113.5"/>
</a>
</g>
</g>
<!-- set_marker_node_Set(11)&#45;&gt;set_marker_node_Set(5) -->
<g id="edge9" class="edge">
<title>set_marker_node_Set(11)&#45;&gt;set_marker_node_Set(5)</title>
<g id="a_edge9"><a xlink:title="PostUpdate → PostUpdateFlush">
<path fill="none" stroke="#3363bb" stroke-width="2" d="M1107.97,-102C1160.91,-94.3 1241.39,-82.59 1300.36,-74.01"/>
<polygon fill="#3363bb" stroke="#3363bb" stroke-width="2" points="1300.61,-77.51 1310.01,-72.6 1299.61,-70.58 1300.61,-77.51"/>
</a>
</g>
</g>
<!-- set_marker_node_Set(59) -->
<!-- set_marker_node_Set(11)&#45;&gt;set_marker_node_Set(59) -->
<g id="edge14" class="edge">
<title>set_marker_node_Set(11)&#45;&gt;set_marker_node_Set(59)</title>
<g id="a_edge14"><a xlink:title="PostUpdate → AssetEvents">
<path fill="none" stroke="#00b0cc" stroke-width="2" d="M1074.39,-102C1107.02,-89.98 1171.29,-66.95 1227,-51 1256.2,-42.64 1289.03,-34.77 1316.43,-28.61"/>
<polygon fill="#00b0cc" stroke="#00b0cc" stroke-width="2" points="1317.04,-32.06 1326.05,-26.48 1315.53,-25.23 1317.04,-32.06"/>
</a>
</g>
</g>
<!-- set_marker_node_Set(20) -->
<!-- node_System(68) -->
<g id="node21" class="node">
<title>node_System(68)</title>
<g id="a_node21"><a xlink:title="bevy_render::view::visibility::update_frusta&lt;bevy_render::camera::projection::OrthographicProjection&gt;">
<polygon fill="#eff1f3" stroke="#eff1f3" points="1519,-302 1235,-302 1235,-266 1519,-266 1519,-302"/>
<text text-anchor="middle" x="1377" y="-280.3" font-family="Times,serif" font-size="14.00">update_frusta&lt;OrthographicProjection&gt;</text>
</a>
</g>
</g>
<!-- set_marker_node_Set(20)&#45;&gt;node_System(68) -->
<g id="edge18" class="edge">
<title>set_marker_node_Set(20)&#45;&gt;node_System(68)</title>
<g id="a_edge18"><a xlink:title="TransformPropagate → update_frusta&lt;OrthographicProjection&gt;">
<path fill="none" stroke="#ee9e44" stroke-width="2" d="M1128,-498.7C1156.17,-499.15 1186.34,-493.77 1207,-474 1256.96,-426.21 1185.25,-370.31 1228.3,-312.13"/>
<polygon fill="#ee9e44" stroke="#ee9e44" stroke-width="2" points="1230.81,-314.58 1234.63,-304.7 1225.48,-310.04 1230.81,-314.58"/>
</a>
</g>
</g>
<!-- node_System(69) -->
<g id="node23" class="node">
<title>node_System(69)</title>
<g id="a_node23"><a xlink:title="bevy_render::view::visibility::update_frusta&lt;bevy_render::camera::projection::PerspectiveProjection&gt;">
<polygon fill="#eff1f3" stroke="#eff1f3" points="1512.5,-403 1241.5,-403 1241.5,-367 1512.5,-367 1512.5,-403"/>
<text text-anchor="middle" x="1377" y="-381.3" font-family="Times,serif" font-size="14.00">update_frusta&lt;PerspectiveProjection&gt;</text>
</a>
</g>
</g>
<!-- set_marker_node_Set(20)&#45;&gt;node_System(69) -->
<g id="edge20" class="edge">
<title>set_marker_node_Set(20)&#45;&gt;node_System(69)</title>
<g id="a_edge20"><a xlink:title="TransformPropagate → update_frusta&lt;PerspectiveProjection&gt;">
<path fill="none" stroke="#3363bb" stroke-width="2" d="M1128,-496.61C1155.41,-496.53 1185.04,-491.33 1207,-474 1229.73,-456.06 1205.21,-431.07 1227,-412 1228.09,-411.05 1229.2,-410.12 1230.33,-409.23"/>
<polygon fill="#3363bb" stroke="#3363bb" stroke-width="2" points="1232.26,-412.15 1238.52,-403.6 1228.3,-406.38 1232.26,-412.15"/>
</a>
</g>
</g>
<!-- node_System(70) -->
<g id="node25" class="node">
<title>node_System(70)</title>
<g id="a_node25"><a xlink:title="bevy_render::view::visibility::update_frusta&lt;bevy_render::camera::projection::Projection&gt;">
<polygon fill="#eff1f3" stroke="#eff1f3" points="1474,-504 1280,-504 1280,-468 1474,-468 1474,-504"/>
<text text-anchor="middle" x="1377" y="-482.3" font-family="Times,serif" font-size="14.00">update_frusta&lt;Projection&gt;</text>
</a>
</g>
</g>
<!-- set_marker_node_Set(20)&#45;&gt;node_System(70) -->
<g id="edge22" class="edge">
<title>set_marker_node_Set(20)&#45;&gt;node_System(70)</title>
<g id="a_edge22"><a xlink:title="TransformPropagate → update_frusta&lt;Projection&gt;">
<path fill="none" stroke="#99d955" stroke-width="2" d="M1128,-486C1169.31,-486 1221.33,-486 1267.05,-486"/>
<polygon fill="#99d955" stroke="#99d955" stroke-width="2" points="1266.9,-489.5 1276.9,-486 1266.9,-482.5 1266.9,-489.5"/>
</a>
</g>
</g>
<!-- node_System(72) -->
<g id="node27" class="node">
<title>node_System(72)</title>
<g id="a_node27"><a xlink:title="bevy_render::view::visibility::check_visibility">
<polygon fill="#eff1f3" stroke="#eff1f3" points="1675,-388 1555,-388 1555,-352 1675,-352 1675,-388"/>
<text text-anchor="middle" x="1615" y="-366.3" font-family="Times,serif" font-size="14.00">check_visibility</text>
</a>
</g>
</g>
<!-- set_marker_node_Set(20)&#45;&gt;node_System(72) -->
<g id="edge28" class="edge">
<title>set_marker_node_Set(20)&#45;&gt;node_System(72)</title>
<g id="a_edge28"><a xlink:title="TransformPropagate → check_visibility">
<path fill="none" stroke="#0090cc" stroke-width="2" d="M1104.75,-517C1200.7,-570.02 1407.29,-662.68 1527,-557 1577.79,-512.17 1511.36,-459.86 1548.31,-398.96"/>
<polygon fill="#0090cc" stroke="#0090cc" stroke-width="2" points="1551.17,-400.97 1554.06,-390.78 1545.44,-396.95 1551.17,-400.97"/>
</a>
</g>
</g>
<!-- set_marker_node_Set(76) -->
<!-- node_System(63) -->
<g id="node14" class="node">
<title>node_System(63)</title>
<g id="a_node14"><a xlink:title="bevy_render::camera::camera::camera_system&lt;bevy_render::camera::projection::Projection&gt;">
<polygon fill="#eff1f3" stroke="#eff1f3" points="1154,-421 950,-421 950,-385 1154,-385 1154,-421"/>
<text text-anchor="middle" x="1052" y="-399.3" font-family="Times,serif" font-size="14.00">camera_system&lt;Projection&gt;</text>
</a>
</g>
</g>
<!-- node_System(63)&#45;&gt;node_System(70) -->
<g id="edge21" class="edge">
<title>node_System(63)&#45;&gt;node_System(70)</title>
<g id="a_edge21"><a xlink:title="SystemTypeSet(camera_system&lt;Projection&gt;&quot;) → update_frusta&lt;Projection&gt;">
<path fill="none" stroke="#22c2bb" stroke-width="2" d="M1154.22,-409.74C1172.67,-413.96 1191.09,-420.37 1207,-430 1219.47,-437.55 1214.62,-448.29 1227,-456 1239.21,-463.6 1252.99,-469.33 1267.1,-473.63"/>
<polygon fill="#22c2bb" stroke="#22c2bb" stroke-width="2" points="1266.06,-476.98 1276.63,-476.26 1267.92,-470.23 1266.06,-476.98"/>
</a>
</g>
</g>
<!-- node_System(64) -->
<g id="node15" class="node">
<title>node_System(64)</title>
<g id="a_node15"><a xlink:title="bevy_render::camera::camera::camera_system&lt;bevy_render::camera::projection::OrthographicProjection&gt;">
<polygon fill="#eff1f3" stroke="#eff1f3" points="1199,-313 905,-313 905,-277 1199,-277 1199,-313"/>
<text text-anchor="middle" x="1052" y="-291.3" font-family="Times,serif" font-size="14.00">camera_system&lt;OrthographicProjection&gt;</text>
</a>
</g>
</g>
<!-- node_System(64)&#45;&gt;node_System(68) -->
<g id="edge17" class="edge">
<title>node_System(64)&#45;&gt;node_System(68)</title>
<g id="a_edge17"><a xlink:title="SystemTypeSet(camera_system&lt;OrthographicProjection&gt;&quot;) → update_frusta&lt;OrthographicProjection&gt;">
<path fill="none" stroke="#0090cc" stroke-width="2" d="M1199.38,-290.01C1206.77,-289.76 1214.21,-289.51 1221.63,-289.26"/>
<polygon fill="#0090cc" stroke="#0090cc" stroke-width="2" points="1221.6,-292.76 1231.48,-288.92 1221.37,-285.76 1221.6,-292.76"/>
</a>
</g>
</g>
<!-- node_System(65) -->
<g id="node16" class="node">
<title>node_System(65)</title>
<g id="a_node16"><a xlink:title="bevy_render::camera::camera::camera_system&lt;bevy_render::camera::projection::PerspectiveProjection&gt;">
<polygon fill="#eff1f3" stroke="#eff1f3" points="1192.5,-367 911.5,-367 911.5,-331 1192.5,-331 1192.5,-367"/>
<text text-anchor="middle" x="1052" y="-345.3" font-family="Times,serif" font-size="14.00">camera_system&lt;PerspectiveProjection&gt;</text>
</a>
</g>
</g>
<!-- node_System(65)&#45;&gt;node_System(69) -->
<g id="edge19" class="edge">
<title>node_System(65)&#45;&gt;node_System(69)</title>
<g id="a_edge19"><a xlink:title="SystemTypeSet(camera_system&lt;PerspectiveProjection&gt;&quot;) → update_frusta&lt;PerspectiveProjection&gt;">
<path fill="none" stroke="#663699" stroke-width="2" d="M1192.79,-364.58C1204.56,-365.89 1216.49,-367.22 1228.32,-368.54"/>
<polygon fill="#663699" stroke="#663699" stroke-width="2" points="1227.76,-372 1238.09,-369.63 1228.54,-365.04 1227.76,-372"/>
</a>
</g>
</g>
<!-- set_marker_node_Set(80) -->
<!-- set_marker_node_Set(81) -->
<!-- set_marker_node_Set(80)&#45;&gt;set_marker_node_Set(81) -->
<g id="edge16" class="edge">
<title>set_marker_node_Set(80)&#45;&gt;set_marker_node_Set(81)</title>
<g id="a_edge16"><a xlink:title="CalculateBounds → CalculateBoundsFlush">
<path fill="none" stroke="#44d488" stroke-width="2" d="M1126.5,-219C1172.59,-219 1232.45,-219 1281.98,-219"/>
<polygon fill="#44d488" stroke="#44d488" stroke-width="2" points="1281.98,-222.5 1291.98,-219 1281.98,-215.5 1281.98,-222.5"/>
</a>
</g>
</g>
<!-- node_System(67) -->
<g id="node18" class="node">
<title>node_System(67)</title>
<g id="a_node18"><a xlink:title="bevy_render::view::visibility::calculate_bounds">
<polygon fill="#eff1f3" stroke="#eff1f3" points="1118.5,-201 985.5,-201 985.5,-165 1118.5,-165 1118.5,-201"/>
<text text-anchor="middle" x="1052" y="-179.3" font-family="Times,serif" font-size="14.00">calculate_bounds</text>
</a>
</g>
</g>
<!-- set_marker_node_Set(81)&#45;&gt;node_System(72) -->
<g id="edge23" class="edge">
<title>set_marker_node_Set(81)&#45;&gt;node_System(72)</title>
<g id="a_edge23"><a xlink:title="CalculateBoundsFlush → check_visibility">
<path fill="none" stroke="#eede00" stroke-width="2" d="M1459,-227.46C1482.31,-232.6 1506.85,-240.83 1527,-254 1559.71,-275.38 1584.74,-313.48 1599.37,-340.17"/>
<polygon fill="#eede00" stroke="#eede00" stroke-width="2" points="1596.19,-341.63 1603.95,-348.84 1602.38,-338.37 1596.19,-341.63"/>
</a>
</g>
</g>
<!-- set_marker_node_Set(82) -->
<!-- set_marker_node_Set(82)&#45;&gt;node_System(72) -->
<g id="edge24" class="edge">
<title>set_marker_node_Set(82)&#45;&gt;node_System(72)</title>
<g id="a_edge24"><a xlink:title="UpdateOrthographicFrusta → check_visibility">
<path fill="none" stroke="#881877" stroke-width="2" d="M1524.32,-351C1530.39,-352.29 1536.36,-353.55 1542.15,-354.78"/>
<polygon fill="#881877" stroke="#881877" stroke-width="2" points="1541.17,-358.15 1551.68,-356.8 1542.62,-351.3 1541.17,-358.15"/>
</a>
</g>
</g>
<!-- set_marker_node_Set(83) -->
<!-- set_marker_node_Set(83)&#45;&gt;node_System(72) -->
<g id="edge25" class="edge">
<title>set_marker_node_Set(83)&#45;&gt;node_System(72)</title>
<g id="a_edge25"><a xlink:title="UpdatePerspectiveFrusta → check_visibility">
<path fill="none" stroke="#00b0cc" stroke-width="2" d="M1520.5,-414.23C1522.69,-413.53 1524.86,-412.79 1527,-412 1537.43,-408.17 1537.32,-402.46 1547,-397 1548.76,-396.01 1550.56,-395.04 1552.39,-394.08"/>
<polygon fill="#00b0cc" stroke="#00b0cc" stroke-width="2" points="1553.73,-397.32 1561.2,-389.81 1550.68,-391.03 1553.73,-397.32"/>
</a>
</g>
</g>
<!-- set_marker_node_Set(84) -->
<!-- set_marker_node_Set(84)&#45;&gt;node_System(72) -->
<g id="edge26" class="edge">
<title>set_marker_node_Set(84)&#45;&gt;node_System(72)</title>
<g id="a_edge26"><a xlink:title="UpdateProjectionFrusta → check_visibility">
<path fill="none" stroke="#aa3a55" stroke-width="2" d="M1482,-533.23C1498.6,-530.37 1514.42,-524.26 1527,-513 1563.24,-480.56 1520.98,-443.36 1548.47,-398.7"/>
<polygon fill="#aa3a55" stroke="#aa3a55" stroke-width="2" points="1551.11,-401.02 1554.18,-390.88 1545.46,-396.89 1551.11,-401.02"/>
</a>
</g>
</g>
<!-- set_marker_node_Set(85) -->
<!-- set_marker_node_Set(86) -->
<!-- set_marker_node_Set(86)&#45;&gt;node_System(72) -->
<g id="edge27" class="edge">
<title>set_marker_node_Set(86)&#45;&gt;node_System(72)</title>
<g id="a_edge27"><a xlink:title="VisibilityPropagate → check_visibility">
<path fill="none" stroke="#44d488" stroke-width="2" d="M1486.5,-185.88C1501.03,-190.95 1515.03,-197.79 1527,-207 1570.48,-240.44 1594.69,-301.93 1605.98,-339.08"/>
<polygon fill="#44d488" stroke="#44d488" stroke-width="2" points="1602.6,-340.02 1608.72,-348.66 1609.33,-338.08 1602.6,-340.02"/>
</a>
</g>
</g>
<!-- node_System(71) -->
<g id="node29" class="node">
<title>node_System(71)</title>
<g id="a_node29"><a xlink:title="bevy_render::view::visibility::visibility_propagate_system">
<polygon fill="#eff1f3" stroke="#eff1f3" points="1478.5,-154 1275.5,-154 1275.5,-118 1478.5,-118 1478.5,-154"/>
<text text-anchor="middle" x="1377" y="-132.3" font-family="Times,serif" font-size="14.00">visibility_propagate_system</text>
</a>
</g>
</g>
<!-- set_marker_node_Set(12)&#45;&gt;set_marker_node_Set(6) -->
<g id="edge11" class="edge">
<title>set_marker_node_Set(12)&#45;&gt;set_marker_node_Set(6)</title>
<g id="a_edge11"><a xlink:title="Last → LastFlush">
<path fill="none" stroke="#99d955" stroke-width="2" d="M1637,-39C1651.57,-39 1671.65,-39 1690.35,-39"/>
<polygon fill="#99d955" stroke="#99d955" stroke-width="2" points="1689.97,-42.5 1699.97,-39 1689.97,-35.5 1689.97,-42.5"/>
</a>
</g>
</g>
<!-- set_marker_node_Set(58)&#45;&gt;set_marker_node_Set(8) -->
<g id="edge12" class="edge">
<title>set_marker_node_Set(58)&#45;&gt;set_marker_node_Set(8)</title>
<g id="a_edge12"><a xlink:title="LoadAssets → PreUpdate">
<path fill="none" stroke="#eede00" stroke-width="2" d="M157,-96.09C161.6,-97.12 166.28,-98.18 170.91,-99.21"/>
<polygon fill="#eede00" stroke="#eede00" stroke-width="2" points="169.87,-102.57 180.39,-101.34 171.4,-95.74 169.87,-102.57"/>
</a>
</g>
</g>
<!-- set_marker_node_Set(59)&#45;&gt;set_marker_node_Set(12) -->
<g id="edge15" class="edge">
<title>set_marker_node_Set(59)&#45;&gt;set_marker_node_Set(12)</title>
<g id="a_edge15"><a xlink:title="AssetEvents → Last">
<path fill="none" stroke="#aa3a55" stroke-width="2" d="M1425,-20.58C1470.92,-25.06 1539.69,-31.76 1580.38,-35.72"/>
<polygon fill="#aa3a55" stroke="#aa3a55" stroke-width="2" points="1579.7,-39.17 1589.99,-36.66 1580.38,-32.21 1579.7,-39.17"/>
</a>
</g>
</g>
</g>
</svg>
