<?xml version="1.0" encoding="UTF-8" standalone="no"?>
<!DOCTYPE svg PUBLIC "-//W3C//DTD SVG 1.1//EN"
 "http://www.w3.org/Graphics/SVG/1.1/DTD/svg11.dtd">
<!-- Generated by graphviz version 8.0.1 (0)
 -->
<!-- Pages: 1 -->
<svg width="1642pt" height="180pt"
 viewBox="0.00 0.00 1642.00 180.00" xmlns="http://www.w3.org/2000/svg" xmlns:xlink="http://www.w3.org/1999/xlink">
<g id="graph0" class="graph" transform="scale(1 1) rotate(0) translate(4 176)">
<polygon fill="#0d1117" stroke="none" points="-4,4 -4,-176 1638,-176 1638,4 -4,4"/>
<g id="clust1" class="cluster">
<title>clusternode_Set(0)</title>
<g id="a_clust1"><a xlink:title="Update">
<path fill="#ffffff" fill-opacity="0.266667" stroke="#ffffff" stroke-width="2" stroke-opacity="0.313725" d="M666,-90C666,-90 702,-90 702,-90 708,-90 714,-96 714,-102 714,-102 714,-117 714,-117 714,-123 708,-129 702,-129 702,-129 666,-129 666,-129 660,-129 654,-123 654,-117 654,-117 654,-102 654,-102 654,-96 660,-90 666,-90"/>
<text text-anchor="middle" x="684" y="-113.8" font-family="Helvetica,sans-Serif" font-size="14.00">Update</text>
</a>
</g>
</g>
<g id="clust2" class="cluster">
<title>clusternode_Set(2)</title>
<g id="a_clust2"><a xlink:title="FirstFlush">
<path fill="#ffffff" fill-opacity="0.266667" stroke="#ffffff" stroke-width="2" stroke-opacity="0.313725" d="M81,-113C81,-113 133,-113 133,-113 139,-113 145,-119 145,-125 145,-125 145,-140 145,-140 145,-146 139,-152 133,-152 133,-152 81,-152 81,-152 75,-152 69,-146 69,-140 69,-140 69,-125 69,-125 69,-119 75,-113 81,-113"/>
<text text-anchor="middle" x="107" y="-136.8" font-family="Helvetica,sans-Serif" font-size="14.00">FirstFlush</text>
</a>
</g>
</g>
<g id="clust3" class="cluster">
<title>clusternode_Set(3)</title>
<g id="a_clust3"><a xlink:title="PreUpdateFlush">
<path fill="#ffffff" fill-opacity="0.266667" stroke="#ffffff" stroke-width="2" stroke-opacity="0.313725" d="M284,-90C284,-90 374,-90 374,-90 380,-90 386,-96 386,-102 386,-102 386,-117 386,-117 386,-123 380,-129 374,-129 374,-129 284,-129 284,-129 278,-129 272,-123 272,-117 272,-117 272,-102 272,-102 272,-96 278,-90 284,-90"/>
<text text-anchor="middle" x="329" y="-113.8" font-family="Helvetica,sans-Serif" font-size="14.00">PreUpdateFlush</text>
</a>
</g>
</g>
<g id="clust4" class="cluster">
<title>clusternode_Set(4)</title>
<g id="a_clust4"><a xlink:title="UpdateFlush">
<path fill="#ffffff" fill-opacity="0.266667" stroke="#ffffff" stroke-width="2" stroke-opacity="0.313725" d="M746,-90C746,-90 815,-90 815,-90 821,-90 827,-96 827,-102 827,-102 827,-117 827,-117 827,-123 821,-129 815,-129 815,-129 746,-129 746,-129 740,-129 734,-123 734,-117 734,-117 734,-102 734,-102 734,-96 740,-90 746,-90"/>
<text text-anchor="middle" x="780.5" y="-113.8" font-family="Helvetica,sans-Serif" font-size="14.00">UpdateFlush</text>
</a>
</g>
</g>
<g id="clust5" class="cluster">
<title>clusternode_Set(5)</title>
<g id="a_clust5"><a xlink:title="PostUpdateFlush">
<path fill="#ffffff" fill-opacity="0.266667" stroke="#ffffff" stroke-width="2" stroke-opacity="0.313725" d="M966,-125C966,-125 1062,-125 1062,-125 1068,-125 1074,-131 1074,-137 1074,-137 1074,-152 1074,-152 1074,-158 1068,-164 1062,-164 1062,-164 966,-164 966,-164 960,-164 954,-158 954,-152 954,-152 954,-137 954,-137 954,-131 960,-125 966,-125"/>
<text text-anchor="middle" x="1014" y="-148.8" font-family="Helvetica,sans-Serif" font-size="14.00">PostUpdateFlush</text>
</a>
</g>
</g>
<g id="clust6" class="cluster">
<title>clusternode_Set(6)</title>
<g id="a_clust6"><a xlink:title="LastFlush">
<path fill="#ffffff" fill-opacity="0.266667" stroke="#ffffff" stroke-width="2" stroke-opacity="0.313725" d="M1570,-102C1570,-102 1622,-102 1622,-102 1628,-102 1634,-108 1634,-114 1634,-114 1634,-129 1634,-129 1634,-135 1628,-141 1622,-141 1622,-141 1570,-141 1570,-141 1564,-141 1558,-135 1558,-129 1558,-129 1558,-114 1558,-114 1558,-108 1564,-102 1570,-102"/>
<text text-anchor="middle" x="1596" y="-125.8" font-family="Helvetica,sans-Serif" font-size="14.00">LastFlush</text>
</a>
</g>
</g>
<g id="clust7" class="cluster">
<title>clusternode_Set(7)</title>
<g id="a_clust7"><a xlink:title="First">
<path fill="#ffffff" fill-opacity="0.266667" stroke="#ffffff" stroke-width="2" stroke-opacity="0.313725" d="M12,-89C12,-89 31,-89 31,-89 37,-89 43,-95 43,-101 43,-101 43,-116 43,-116 43,-122 37,-128 31,-128 31,-128 12,-128 12,-128 6,-128 0,-122 0,-116 0,-116 0,-101 0,-101 0,-95 6,-89 12,-89"/>
<text text-anchor="middle" x="21.5" y="-112.8" font-family="Helvetica,sans-Serif" font-size="14.00">First</text>
</a>
</g>
</g>
<g id="clust8" class="cluster">
<title>clusternode_Set(8)</title>
<g id="a_clust8"><a xlink:title="PreUpdate">
<path fill="#ffffff" fill-opacity="0.266667" stroke="#ffffff" stroke-width="2" stroke-opacity="0.313725" d="M183,-90C183,-90 240,-90 240,-90 246,-90 252,-96 252,-102 252,-102 252,-117 252,-117 252,-123 246,-129 240,-129 240,-129 183,-129 183,-129 177,-129 171,-123 171,-117 171,-117 171,-102 171,-102 171,-96 177,-90 183,-90"/>
<text text-anchor="middle" x="211.5" y="-113.8" font-family="Helvetica,sans-Serif" font-size="14.00">PreUpdate</text>
</a>
</g>
</g>
<g id="clust9" class="cluster">
<title>clusternode_Set(9)</title>
<g id="a_clust9"><a xlink:title="StateTransitions">
<path fill="#ffffff" fill-opacity="0.266667" stroke="#ffffff" stroke-width="2" stroke-opacity="0.313725" d="M418,-90C418,-90 509,-90 509,-90 515,-90 521,-96 521,-102 521,-102 521,-117 521,-117 521,-123 515,-129 509,-129 509,-129 418,-129 418,-129 412,-129 406,-123 406,-117 406,-117 406,-102 406,-102 406,-96 412,-90 418,-90"/>
<text text-anchor="middle" x="463.5" y="-113.8" font-family="Helvetica,sans-Serif" font-size="14.00">StateTransitions</text>
</a>
</g>
</g>
<g id="clust10" class="cluster">
<title>clusternode_Set(10)</title>
<g id="a_clust10"><a xlink:title="FixedUpdate">
<path fill="#ffffff" fill-opacity="0.266667" stroke="#ffffff" stroke-width="2" stroke-opacity="0.313725" d="M553,-90C553,-90 622,-90 622,-90 628,-90 634,-96 634,-102 634,-102 634,-117 634,-117 634,-123 628,-129 622,-129 622,-129 553,-129 553,-129 547,-129 541,-123 541,-117 541,-117 541,-102 541,-102 541,-96 547,-90 553,-90"/>
<text text-anchor="middle" x="587.5" y="-113.8" font-family="Helvetica,sans-Serif" font-size="14.00">FixedUpdate</text>
</a>
</g>
</g>
<g id="clust11" class="cluster">
<title>clusternode_Set(11)</title>
<g id="a_clust11"><a xlink:title="PostUpdate">
<path fill="#ffffff" fill-opacity="0.266667" stroke="#ffffff" stroke-width="2" stroke-opacity="0.313725" d="M859,-90C859,-90 922,-90 922,-90 928,-90 934,-96 934,-102 934,-102 934,-117 934,-117 934,-123 928,-129 922,-129 922,-129 859,-129 859,-129 853,-129 847,-123 847,-117 847,-117 847,-102 847,-102 847,-96 853,-90 859,-90"/>
<text text-anchor="middle" x="890.5" y="-113.8" font-family="Helvetica,sans-Serif" font-size="14.00">PostUpdate</text>
</a>
</g>
</g>
<g id="clust12" class="cluster">
<title>clusternode_Set(12)</title>
<g id="a_clust12"><a xlink:title="Last">
<path fill="#ffffff" fill-opacity="0.266667" stroke="#ffffff" stroke-width="2" stroke-opacity="0.313725" d="M1106,-8C1106,-8 1526,-8 1526,-8 1532,-8 1538,-14 1538,-20 1538,-20 1538,-129 1538,-129 1538,-135 1532,-141 1526,-141 1526,-141 1106,-141 1106,-141 1100,-141 1094,-135 1094,-129 1094,-129 1094,-20 1094,-20 1094,-14 1100,-8 1106,-8"/>
<text text-anchor="middle" x="1316" y="-125.8" font-family="Helvetica,sans-Serif" font-size="14.00">Last</text>
</a>
</g>
</g>
<g id="clust13" class="cluster">
<title>clusternode_Set(59)</title>
<g id="a_clust13"><a xlink:title="LoadAssets">
<path fill="#ffffff" fill-opacity="0.266667" stroke="#ffffff" stroke-width="2" stroke-opacity="0.313725" d="M75,-66C75,-66 139,-66 139,-66 145,-66 151,-72 151,-78 151,-78 151,-93 151,-93 151,-99 145,-105 139,-105 139,-105 75,-105 75,-105 69,-105 63,-99 63,-93 63,-93 63,-78 63,-78 63,-72 69,-66 75,-66"/>
<text text-anchor="middle" x="107" y="-89.8" font-family="Helvetica,sans-Serif" font-size="14.00">LoadAssets</text>
</a>
</g>
</g>
<g id="clust14" class="cluster">
<title>clusternode_Set(60)</title>
<g id="a_clust14"><a xlink:title="AssetEvents">
<path fill="#ffffff" fill-opacity="0.266667" stroke="#ffffff" stroke-width="2" stroke-opacity="0.313725" d="M980,-78C980,-78 1048,-78 1048,-78 1054,-78 1060,-84 1060,-90 1060,-90 1060,-105 1060,-105 1060,-111 1054,-117 1048,-117 1048,-117 980,-117 980,-117 974,-117 968,-111 968,-105 968,-105 968,-90 968,-90 968,-84 974,-78 980,-78"/>
<text text-anchor="middle" x="1014" y="-101.8" font-family="Helvetica,sans-Serif" font-size="14.00">AssetEvents</text>
</a>
</g>
</g>
<!-- set_marker_node_Set(0) -->
<!-- set_marker_node_Set(4) -->
<!-- set_marker_node_Set(0)&#45;&gt;set_marker_node_Set(4) -->
<g id="edge7" class="edge">
<title>set_marker_node_Set(0)&#45;&gt;set_marker_node_Set(4)</title>
<g id="a_edge7"><a xlink:title="Update → UpdateFlush">
<path fill="none" stroke="#ee9e44" stroke-width="2" d="M714,-98C716.33,-98 718.74,-98 721.18,-98"/>
<polygon fill="#ee9e44" stroke="#ee9e44" stroke-width="2" points="721,-101.5 731,-98 721,-94.5 721,-101.5"/>
</a>
</g>
</g>
<!-- set_marker_node_Set(2) -->
<!-- set_marker_node_Set(8) -->
<!-- set_marker_node_Set(2)&#45;&gt;set_marker_node_Set(8) -->
<g id="edge2" class="edge">
<title>set_marker_node_Set(2)&#45;&gt;set_marker_node_Set(8)</title>
<g id="a_edge2"><a xlink:title="FirstFlush → PreUpdate">
<path fill="none" stroke="#881877" stroke-width="2" d="M143.47,-113C148.38,-111.89 153.51,-110.74 158.64,-109.58"/>
<polygon fill="#881877" stroke="#881877" stroke-width="2" points="160.02,-112.41 169,-106.79 158.48,-105.58 160.02,-112.41"/>
</a>
</g>
</g>
<!-- set_marker_node_Set(3) -->
<!-- set_marker_node_Set(9) -->
<!-- set_marker_node_Set(3)&#45;&gt;set_marker_node_Set(9) -->
<g id="edge4" class="edge">
<title>set_marker_node_Set(3)&#45;&gt;set_marker_node_Set(9)</title>
<g id="a_edge4"><a xlink:title="PreUpdateFlush → StateTransitions">
<path fill="none" stroke="#aa3a55" stroke-width="2" d="M386,-98C388.39,-98 390.79,-98 393.21,-98"/>
<polygon fill="#aa3a55" stroke="#aa3a55" stroke-width="2" points="393,-101.5 403,-98 393,-94.5 393,-101.5"/>
</a>
</g>
</g>
<!-- set_marker_node_Set(11) -->
<!-- set_marker_node_Set(4)&#45;&gt;set_marker_node_Set(11) -->
<g id="edge8" class="edge">
<title>set_marker_node_Set(4)&#45;&gt;set_marker_node_Set(11)</title>
<g id="a_edge8"><a xlink:title="UpdateFlush → PostUpdate">
<path fill="none" stroke="#663699" stroke-width="2" d="M827,-98C829.32,-98 831.66,-98 834,-98"/>
<polygon fill="#663699" stroke="#663699" stroke-width="2" points="834,-101.5 844,-98 834,-94.5 834,-101.5"/>
</a>
</g>
</g>
<!-- set_marker_node_Set(5) -->
<!-- set_marker_node_Set(12) -->
<!-- set_marker_node_Set(5)&#45;&gt;set_marker_node_Set(12) -->
<g id="edge10" class="edge">
<title>set_marker_node_Set(5)&#45;&gt;set_marker_node_Set(12)</title>
<g id="a_edge10"><a xlink:title="PostUpdateFlush → Last">
<path fill="none" stroke="#22c2bb" stroke-width="2" d="M1074,-128.48C1076.43,-128.29 1078.91,-128.1 1081.43,-127.91"/>
<polygon fill="#22c2bb" stroke="#22c2bb" stroke-width="2" points="1081.3,-131.2 1091,-126.94 1080.77,-124.22 1081.3,-131.2"/>
</a>
</g>
</g>
<!-- set_marker_node_Set(6) -->
<!-- set_marker_node_Set(7) -->
<!-- set_marker_node_Set(7)&#45;&gt;set_marker_node_Set(2) -->
<g id="edge1" class="edge">
<title>set_marker_node_Set(7)&#45;&gt;set_marker_node_Set(2)</title>
<g id="a_edge1"><a xlink:title="First → FirstFlush">
<path fill="none" stroke="#eede00" stroke-width="2" d="M43,-103C49.88,-104.97 57.78,-107.22 65.61,-109.46"/>
<polygon fill="#eede00" stroke="#eede00" stroke-width="2" points="65.44,-113.62 76.01,-113 67.36,-106.89 65.44,-113.62"/>
</a>
</g>
</g>
<!-- set_marker_node_Set(59) -->
<!-- set_marker_node_Set(7)&#45;&gt;set_marker_node_Set(59) -->
<g id="edge13" class="edge">
<title>set_marker_node_Set(7)&#45;&gt;set_marker_node_Set(59)</title>
<g id="a_edge13"><a xlink:title="First → LoadAssets">
<path fill="none" stroke="#881877" stroke-width="2" d="M43,-91.25C45.41,-90.59 47.94,-89.9 50.55,-89.18"/>
<polygon fill="#881877" stroke="#881877" stroke-width="2" points="52.28,-91.79 61,-85.77 50.43,-85.04 52.28,-91.79"/>
</a>
</g>
</g>
<!-- set_marker_node_Set(8)&#45;&gt;set_marker_node_Set(3) -->
<g id="edge3" class="edge">
<title>set_marker_node_Set(8)&#45;&gt;set_marker_node_Set(3)</title>
<g id="a_edge3"><a xlink:title="PreUpdate → PreUpdateFlush">
<path fill="none" stroke="#00b0cc" stroke-width="2" d="M252,-98C254.38,-98 256.8,-98 259.25,-98"/>
<polygon fill="#00b0cc" stroke="#00b0cc" stroke-width="2" points="259,-101.5 269,-98 259,-94.5 259,-101.5"/>
</a>
</g>
</g>
<!-- set_marker_node_Set(10) -->
<!-- set_marker_node_Set(9)&#45;&gt;set_marker_node_Set(10) -->
<g id="edge5" class="edge">
<title>set_marker_node_Set(9)&#45;&gt;set_marker_node_Set(10)</title>
<g id="a_edge5"><a xlink:title="StateTransitions → FixedUpdate">
<path fill="none" stroke="#44d488" stroke-width="2" d="M521,-98C523.35,-98 525.71,-98 528.07,-98"/>
<polygon fill="#44d488" stroke="#44d488" stroke-width="2" points="528,-101.5 538,-98 528,-94.5 528,-101.5"/>
</a>
</g>
</g>
<!-- set_marker_node_Set(10)&#45;&gt;set_marker_node_Set(0) -->
<g id="edge6" class="edge">
<title>set_marker_node_Set(10)&#45;&gt;set_marker_node_Set(0)</title>
<g id="a_edge6"><a xlink:title="FixedUpdate → Update">
<path fill="none" stroke="#0090cc" stroke-width="2" d="M634,-98C636.35,-98 638.7,-98 641.03,-98"/>
<polygon fill="#0090cc" stroke="#0090cc" stroke-width="2" points="641,-101.5 651,-98 641,-94.5 641,-101.5"/>
</a>
</g>
</g>
<!-- set_marker_node_Set(11)&#45;&gt;set_marker_node_Set(5) -->
<g id="edge9" class="edge">
<title>set_marker_node_Set(11)&#45;&gt;set_marker_node_Set(5)</title>
<g id="a_edge9"><a xlink:title="PostUpdate → PostUpdateFlush">
<path fill="none" stroke="#3363bb" stroke-width="2" d="M934,-112.9C940.67,-115.04 947.5,-117.15 954,-119 957.47,-119.99 961.07,-120.96 964.7,-121.91"/>
<polygon fill="#3363bb" stroke="#3363bb" stroke-width="2" points="964.48,-125.96 975.03,-125 966.18,-119.17 964.48,-125.96"/>
</a>
</g>
</g>
<!-- set_marker_node_Set(60) -->
<!-- set_marker_node_Set(11)&#45;&gt;set_marker_node_Set(60) -->
<g id="edge14" class="edge">
<title>set_marker_node_Set(11)&#45;&gt;set_marker_node_Set(60)</title>
<g id="a_edge14"><a xlink:title="PostUpdate → AssetEvents">
<path fill="none" stroke="#00b0cc" stroke-width="2" d="M934,-93.77C940.82,-93.1 947.97,-92.4 955.07,-91.7"/>
<polygon fill="#00b0cc" stroke="#00b0cc" stroke-width="2" points="955.39,-94.89 965,-90.43 954.71,-87.92 955.39,-94.89"/>
</a>
</g>
</g>
<!-- set_marker_node_Set(12)&#45;&gt;set_marker_node_Set(6) -->
<g id="edge11" class="edge">
<title>set_marker_node_Set(12)&#45;&gt;set_marker_node_Set(6)</title>
<g id="a_edge11"><a xlink:title="Last → LastFlush">
<path fill="none" stroke="#99d955" stroke-width="2" d="M1538,-110C1540.54,-110 1543.03,-110 1545.46,-110"/>
<polygon fill="#99d955" stroke="#99d955" stroke-width="2" points="1545,-113.5 1555,-110 1545,-106.5 1545,-113.5"/>
</a>
</g>
</g>
<!-- node_System(10) -->
<g id="node13" class="node">
<title>node_System(10)</title>
<g id="a_node13"><a xlink:title="bevy_hierarchy::valid_parent_check_plugin::check_hierarchy_component_has_valid_parent&lt;bevy_transform::components::global_transform::GlobalTransform&gt;">
<polygon fill="#e4fba3" stroke="#c7f641" points="1525,-99 1107,-99 1107,-63 1525,-63 1525,-99"/>
<text text-anchor="middle" x="1316" y="-77.3" font-family="Helvetica,sans-Serif" font-size="14.00" fill="#243002">check_hierarchy_component_has_valid_parent&lt;GlobalTransform&gt;</text>
</a>
</g>
</g>
<!-- node_System(67) -->
<g id="node14" class="node">
<title>node_System(67)</title>
<g id="a_node14"><a xlink:title="bevy_hierarchy::valid_parent_check_plugin::check_hierarchy_component_has_valid_parent&lt;bevy_render::view::visibility::ComputedVisibility&gt;">
<polygon fill="#e4fba3" stroke="#c7f641" points="1530,-52 1102,-52 1102,-16 1530,-16 1530,-52"/>
<text text-anchor="middle" x="1316" y="-30.3" font-family="Helvetica,sans-Serif" font-size="14.00" fill="#243002">check_hierarchy_component_has_valid_parent&lt;ComputedVisibility&gt;</text>
</a>
</g>
</g>
<!-- set_marker_node_Set(59)&#45;&gt;set_marker_node_Set(8) -->
<g id="edge12" class="edge">
<title>set_marker_node_Set(59)&#45;&gt;set_marker_node_Set(8)</title>
<g id="a_edge12"><a xlink:title="LoadAssets → PreUpdate">
<path fill="none" stroke="#eede00" stroke-width="2" d="M151,-84.12C155.12,-85.09 159.3,-86.07 163.45,-87.05"/>
<polygon fill="#eede00" stroke="#eede00" stroke-width="2" points="163.48,-91.12 174.02,-90 165.08,-84.31 163.48,-91.12"/>
</a>
</g>
</g>
<!-- set_marker_node_Set(60)&#45;&gt;set_marker_node_Set(12) -->
<g id="edge15" class="edge">
<title>set_marker_node_Set(60)&#45;&gt;set_marker_node_Set(12)</title>
<g id="a_edge15"><a xlink:title="AssetEvents → Last">
<path fill="none" stroke="#aa3a55" stroke-width="2" d="M1060,-98.57C1066.87,-100.19 1074.05,-101.72 1081.17,-103"/>
<polygon fill="#aa3a55" stroke="#aa3a55" stroke-width="2" points="1081.58,-106.92 1092,-105 1082.66,-100 1081.58,-106.92"/>
</a>
</g>
</g>
</g>
</svg>
