<?xml version="1.0" encoding="UTF-8" standalone="no"?>
<!DOCTYPE svg PUBLIC "-//W3C//DTD SVG 1.1//EN"
 "http://www.w3.org/Graphics/SVG/1.1/DTD/svg11.dtd">
<!-- Generated by graphviz version 7.1.0 (0)
 -->
<!-- Pages: 1 -->
<svg width="2129pt" height="559pt"
 viewBox="0.00 0.00 2129.00 559.00" xmlns="http://www.w3.org/2000/svg" xmlns:xlink="http://www.w3.org/1999/xlink">
<g id="graph0" class="graph" transform="scale(1 1) rotate(0) translate(4 555)">
<polygon fill="#0d1117" stroke="none" points="-4,4 -4,-555 2125,-555 2125,4 -4,4"/>
<g id="clust1" class="cluster">
<title>clusternode_Set(0)</title>
<g id="a_clust1"><a xlink:title="Update">
<polygon fill="#6f90ad" stroke="black" points="992,-8 992,-332 1133,-332 1133,-8 992,-8"/>
<text text-anchor="middle" x="1062.5" y="-316.8" font-family="Helvetica,sans-Serif" font-size="14.00">Update</text>
</a>
</g>
</g>
<g id="clust2" class="cluster">
<title>clusternode_Set(2)</title>
<g id="a_clust2"><a xlink:title="FirstFlush">
<polygon fill="#6f90ad" stroke="black" points="209,-361 209,-400 291,-400 291,-361 209,-361"/>
<text text-anchor="middle" x="250" y="-384.8" font-family="Helvetica,sans-Serif" font-size="14.00">FirstFlush</text>
</a>
</g>
</g>
<g id="clust3" class="cluster">
<title>clusternode_Set(3)</title>
<g id="a_clust3"><a xlink:title="PreUpdateFlush">
<polygon fill="#6f90ad" stroke="black" points="450.5,-293 450.5,-332 573.5,-332 573.5,-293 450.5,-293"/>
<text text-anchor="middle" x="512" y="-316.8" font-family="Helvetica,sans-Serif" font-size="14.00">PreUpdateFlush</text>
</a>
</g>
</g>
<g id="clust4" class="cluster">
<title>clusternode_Set(4)</title>
<g id="a_clust4"><a xlink:title="UpdateFlush">
<polygon fill="#6f90ad" stroke="black" points="1152,-293 1152,-332 1253,-332 1253,-293 1152,-293"/>
<text text-anchor="middle" x="1202.5" y="-316.8" font-family="Helvetica,sans-Serif" font-size="14.00">UpdateFlush</text>
</a>
</g>
</g>
<g id="clust5" class="cluster">
<title>clusternode_Set(5)</title>
<g id="a_clust5"><a xlink:title="PostUpdateFlush">
<polygon fill="#6f90ad" stroke="black" points="1592,-246 1592,-285 1721,-285 1721,-246 1592,-246"/>
<text text-anchor="middle" x="1656.5" y="-269.8" font-family="Helvetica,sans-Serif" font-size="14.00">PostUpdateFlush</text>
</a>
</g>
</g>
<g id="clust6" class="cluster">
<title>clusternode_Set(6)</title>
<g id="a_clust6"><a xlink:title="LastFlush">
<polygon fill="#6f90ad" stroke="black" points="1977,-222 1977,-261 2057,-261 2057,-222 1977,-222"/>
<text text-anchor="middle" x="2017" y="-245.8" font-family="Helvetica,sans-Serif" font-size="14.00">LastFlush</text>
</a>
</g>
</g>
<g id="clust7" class="cluster">
<title>clusternode_Set(7)</title>
<g id="a_clust7"><a xlink:title="First">
<polygon fill="#6f90ad" stroke="black" points="75,-340 75,-379 121,-379 121,-340 75,-340"/>
<text text-anchor="middle" x="98" y="-363.8" font-family="Helvetica,sans-Serif" font-size="14.00">First</text>
</a>
</g>
</g>
<g id="clust8" class="cluster">
<title>clusternode_Set(8)</title>
<g id="a_clust8"><a xlink:title="PreUpdate">
<polygon fill="#6f90ad" stroke="black" points="313,-340 313,-472 590,-472 590,-340 313,-340"/>
<text text-anchor="middle" x="451.5" y="-456.8" font-family="Helvetica,sans-Serif" font-size="14.00">PreUpdate</text>
</a>
</g>
</g>
<g id="clust9" class="cluster">
<title>clusternode_Set(25)</title>
<g id="a_clust9"><a xlink:title="InputSystem">
<polygon fill="#6f90ad" stroke="black" points="321,-366 321,-405 422,-405 422,-366 321,-366"/>
<text text-anchor="middle" x="371.5" y="-389.8" font-family="Helvetica,sans-Serif" font-size="14.00">InputSystem</text>
</a>
</g>
</g>
<g id="clust10" class="cluster">
<title>clusternode_Set(125)</title>
<g id="a_clust10"><a xlink:title="Focus">
<polygon fill="#6f90ad" stroke="black" points="441,-348 441,-441 582,-441 582,-348 441,-348"/>
<text text-anchor="middle" x="511.5" y="-425.8" font-family="Helvetica,sans-Serif" font-size="14.00">Focus</text>
</a>
</g>
</g>
<g id="clust11" class="cluster">
<title>clusternode_Set(9)</title>
<g id="a_clust11"><a xlink:title="StateTransitions">
<polygon fill="#6f90ad" stroke="black" points="607,-293 607,-332 731,-332 731,-293 607,-293"/>
<text text-anchor="middle" x="669" y="-316.8" font-family="Helvetica,sans-Serif" font-size="14.00">StateTransitions</text>
</a>
</g>
</g>
<g id="clust12" class="cluster">
<title>clusternode_Set(10)</title>
<g id="a_clust12"><a xlink:title="FixedUpdate">
<polygon fill="#6f90ad" stroke="black" points="748,-293 748,-332 848,-332 848,-293 748,-293"/>
<text text-anchor="middle" x="798" y="-316.8" font-family="Helvetica,sans-Serif" font-size="14.00">FixedUpdate</text>
</a>
</g>
</g>
<g id="clust13" class="cluster">
<title>clusternode_Set(11)</title>
<g id="a_clust13"><a xlink:title="PostUpdate">
<polygon fill="#6f90ad" stroke="black" points="1272,-293 1272,-543 2113,-543 2113,-293 1272,-293"/>
<text text-anchor="middle" x="1692.5" y="-527.8" font-family="Helvetica,sans-Serif" font-size="14.00">PostUpdate</text>
</a>
</g>
</g>
<g id="clust14" class="cluster">
<title>clusternode_Set(20)</title>
<g id="a_clust14"><a xlink:title="TransformPropagate">
<polygon fill="#6f90ad" stroke="black" points="1750,-333 1750,-372 1902,-372 1902,-333 1750,-333"/>
<text text-anchor="middle" x="1826" y="-356.8" font-family="Helvetica,sans-Serif" font-size="14.00">TransformPropagate</text>
</a>
</g>
</g>
<g id="clust15" class="cluster">
<title>clusternode_Set(126)</title>
<g id="a_clust15"><a xlink:title="Flex">
<polygon fill="#6f90ad" stroke="black" points="1581,-315 1581,-408 1731,-408 1731,-315 1581,-315"/>
<text text-anchor="middle" x="1656" y="-392.8" font-family="Helvetica,sans-Serif" font-size="14.00">Flex</text>
</a>
</g>
</g>
<g id="clust16" class="cluster">
<title>clusternode_Set(127)</title>
<g id="a_clust16"><a xlink:title="Stack">
<polygon fill="#6f90ad" stroke="black" points="1345.5,-419 1345.5,-512 1486.5,-512 1486.5,-419 1345.5,-419"/>
<text text-anchor="middle" x="1416" y="-496.8" font-family="Helvetica,sans-Serif" font-size="14.00">Stack</text>
</a>
</g>
</g>
<g id="clust17" class="cluster">
<title>clusternode_Set(12)</title>
<g id="a_clust17"><a xlink:title="Last">
<polygon fill="#6f90ad" stroke="black" points="1804,-222 1804,-261 1848,-261 1848,-222 1804,-222"/>
<text text-anchor="middle" x="1826" y="-245.8" font-family="Helvetica,sans-Serif" font-size="14.00">Last</text>
</a>
</g>
</g>
<g id="clust18" class="cluster">
<title>clusternode_Set(22)</title>
<g id="a_clust18"><a xlink:title="PropagateTransformsSet">
<polygon fill="#6f90ad" stroke="black" points="8,-458 8,-497 188,-497 188,-458 8,-458"/>
<text text-anchor="middle" x="98" y="-481.8" font-family="Helvetica,sans-Serif" font-size="14.00">PropagateTransformsSet</text>
</a>
</g>
</g>
<g id="clust19" class="cluster">
<title>clusternode_Set(59)</title>
<g id="a_clust19"><a xlink:title="LoadAssets">
<polygon fill="#6f90ad" stroke="black" points="205,-314 205,-353 296,-353 296,-314 205,-314"/>
<text text-anchor="middle" x="250.5" y="-337.8" font-family="Helvetica,sans-Serif" font-size="14.00">LoadAssets</text>
</a>
</g>
</g>
<g id="clust20" class="cluster">
<title>clusternode_Set(60)</title>
<g id="a_clust20"><a xlink:title="AssetEvents">
<polygon fill="#6f90ad" stroke="black" points="1608,-199 1608,-238 1704,-238 1704,-199 1608,-199"/>
<text text-anchor="middle" x="1656" y="-222.8" font-family="Helvetica,sans-Serif" font-size="14.00">AssetEvents</text>
</a>
</g>
</g>
<!-- set_marker_node_Set(0) -->
<!-- set_marker_node_Set(4) -->
<!-- set_marker_node_Set(0)&#45;&gt;set_marker_node_Set(4) -->
<g id="edge7" class="edge">
<title>set_marker_node_Set(0)&#45;&gt;set_marker_node_Set(4)</title>
<g id="a_edge7"><a xlink:title="Update → UpdateFlush">
<path fill="none" stroke="#ee9e44" stroke-width="2" d="M1133,-301C1135.05,-301 1137.09,-301 1139.13,-301"/>
<polygon fill="#ee9e44" stroke="#ee9e44" stroke-width="2" points="1138.98,-304.5 1148.98,-301 1138.98,-297.5 1138.98,-304.5"/>
</a>
</g>
</g>
<!-- node_System(100) -->
<g id="node2" class="node">
<title>node_System(100)</title>
<g id="a_node2"><a xlink:title="bevy_ui::accessibility::calc_bounds">
<polygon fill="#eff1f3" stroke="#eff1f3" points="1111.5,-283 1013.5,-283 1013.5,-247 1111.5,-247 1111.5,-283"/>
<text text-anchor="middle" x="1062.5" y="-261.3" font-family="Times,serif" font-size="14.00">calc_bounds</text>
</a>
</g>
</g>
<!-- node_System(101) -->
<g id="node3" class="node">
<title>node_System(101)</title>
<g id="a_node3"><a xlink:title="bevy_ui::accessibility::button_changed">
<polygon fill="#eff1f3" stroke="#eff1f3" points="1125,-206 1000,-206 1000,-170 1125,-170 1125,-206"/>
<text text-anchor="middle" x="1062.5" y="-184.3" font-family="Times,serif" font-size="14.00">button_changed</text>
</a>
</g>
</g>
<!-- node_System(100)&#45;&gt;node_System(101) -->
<g id="edge21" class="edge">
<title>node_System(100)&#45;&gt;node_System(101)</title>
<path fill="none" stroke="#c93526" stroke-width="2" d="M1062.5,-246.62C1062.5,-234.4 1062.5,-218.43 1062.5,-206.25"/>
<g id="a_edge21&#45;label"><a xlink:title="calc_bounds — button_changed">
<polygon fill="#c6e6ff" stroke="none" points="987,-216.5 987,-235.5 1109,-235.5 1109,-216.5 987,-216.5"/>
<text text-anchor="start" x="989" y="-222.3" font-family="Times,serif" font-size="14.00" fill="#c93526">AccessibilityNode</text>
</a>
</g>
</g>
<!-- node_System(102) -->
<g id="node4" class="node">
<title>node_System(102)</title>
<g id="a_node4"><a xlink:title="bevy_ui::accessibility::image_changed">
<polygon fill="#eff1f3" stroke="#eff1f3" points="1123,-129 1002,-129 1002,-93 1123,-93 1123,-129"/>
<text text-anchor="middle" x="1062.5" y="-107.3" font-family="Times,serif" font-size="14.00">image_changed</text>
</a>
</g>
</g>
<!-- node_System(100)&#45;&gt;node_System(102) -->
<g id="edge22" class="edge">
<title>node_System(100)&#45;&gt;node_System(102)</title>
<path fill="none" stroke="#c93526" stroke-width="2" d="M1013.32,-262.9C970.24,-258.14 909.96,-243.76 879.92,-201.5 845.27,-152.77 935.94,-128.94 1001.57,-118.37"/>
<g id="a_edge22&#45;label"><a xlink:title="calc_bounds — image_changed">
<polygon fill="#c6e6ff" stroke="none" points="858,-180 858,-199 980,-199 980,-180 858,-180"/>
<text text-anchor="start" x="860" y="-185.8" font-family="Times,serif" font-size="14.00" fill="#c93526">AccessibilityNode</text>
</a>
</g>
</g>
<!-- node_System(103) -->
<g id="node5" class="node">
<title>node_System(103)</title>
<g id="a_node5"><a xlink:title="bevy_ui::accessibility::label_changed">
<polygon fill="#eff1f3" stroke="#eff1f3" points="1119,-52 1006,-52 1006,-16 1119,-16 1119,-52"/>
<text text-anchor="middle" x="1062.5" y="-30.3" font-family="Times,serif" font-size="14.00">label_changed</text>
</a>
</g>
</g>
<!-- node_System(100)&#45;&gt;node_System(103) -->
<g id="edge23" class="edge">
<title>node_System(100)&#45;&gt;node_System(103)</title>
<path fill="none" stroke="#c93526" stroke-width="2" d="M1017.26,-246.62C948.37,-215.96 830.15,-151.25 879.92,-85.5 908.74,-47.42 963.49,-35.96 1005.54,-33.17"/>
<g id="a_edge23&#45;label"><a xlink:title="calc_bounds — label_changed">
<polygon fill="#c6e6ff" stroke="none" points="858,-87 858,-106 980,-106 980,-87 858,-87"/>
<text text-anchor="start" x="860" y="-92.8" font-family="Times,serif" font-size="14.00" fill="#c93526">AccessibilityNode</text>
</a>
</g>
</g>
<!-- node_System(101)&#45;&gt;node_System(102) -->
<g id="edge24" class="edge">
<title>node_System(101)&#45;&gt;node_System(102)</title>
<path fill="none" stroke="#c93526" stroke-width="2" d="M1062.5,-169.62C1062.5,-157.4 1062.5,-141.43 1062.5,-129.25"/>
<g id="a_edge24&#45;label"><a xlink:title="button_changed — image_changed">
<polygon fill="#c6e6ff" stroke="none" points="987,-139.5 987,-158.5 1109,-158.5 1109,-139.5 987,-139.5"/>
<text text-anchor="start" x="989" y="-145.3" font-family="Times,serif" font-size="14.00" fill="#c93526">AccessibilityNode</text>
</a>
</g>
</g>
<!-- node_System(101)&#45;&gt;node_System(103) -->
<g id="edge25" class="edge">
<title>node_System(101)&#45;&gt;node_System(103)</title>
<path fill="none" stroke="#c93526" stroke-width="2" d="M999.65,-191.29C958.67,-189.67 907.79,-179.79 879.92,-144.5 840.02,-93.98 938.39,-61.13 1005.71,-45.24"/>
<g id="a_edge25&#45;label"><a xlink:title="button_changed — label_changed">
<polygon fill="#c6e6ff" stroke="none" points="858,-123 858,-142 980,-142 980,-123 858,-123"/>
<text text-anchor="start" x="860" y="-128.8" font-family="Times,serif" font-size="14.00" fill="#c93526">AccessibilityNode</text>
</a>
</g>
</g>
<!-- node_System(102)&#45;&gt;node_System(103) -->
<g id="edge26" class="edge">
<title>node_System(102)&#45;&gt;node_System(103)</title>
<path fill="none" stroke="#c93526" stroke-width="2" d="M1062.5,-92.62C1062.5,-80.4 1062.5,-64.43 1062.5,-52.25"/>
<g id="a_edge26&#45;label"><a xlink:title="image_changed — label_changed">
<polygon fill="#c6e6ff" stroke="none" points="987,-62.5 987,-81.5 1109,-81.5 1109,-62.5 987,-62.5"/>
<text text-anchor="start" x="989" y="-68.3" font-family="Times,serif" font-size="14.00" fill="#c93526">AccessibilityNode</text>
</a>
</g>
</g>
<!-- set_marker_node_Set(2) -->
<!-- set_marker_node_Set(8) -->
<!-- set_marker_node_Set(2)&#45;&gt;set_marker_node_Set(8) -->
<g id="edge2" class="edge">
<title>set_marker_node_Set(2)&#45;&gt;set_marker_node_Set(8)</title>
<g id="a_edge2"><a xlink:title="FirstFlush → PreUpdate">
<path fill="none" stroke="#881877" stroke-width="2" d="M291,-361.94C294,-361.41 297.08,-360.87 300.19,-360.32"/>
<polygon fill="#881877" stroke="#881877" stroke-width="2" points="300.78,-363.77 310.02,-358.58 299.57,-356.88 300.78,-363.77"/>
</a>
</g>
</g>
<!-- set_marker_node_Set(3) -->
<!-- set_marker_node_Set(9) -->
<!-- set_marker_node_Set(3)&#45;&gt;set_marker_node_Set(9) -->
<g id="edge4" class="edge">
<title>set_marker_node_Set(3)&#45;&gt;set_marker_node_Set(9)</title>
<g id="a_edge4"><a xlink:title="PreUpdateFlush → StateTransitions">
<path fill="none" stroke="#aa3a55" stroke-width="2" d="M573.5,-301C580.29,-301 587.26,-301 594.18,-301"/>
<polygon fill="#aa3a55" stroke="#aa3a55" stroke-width="2" points="593.97,-304.5 603.97,-301 593.97,-297.5 593.97,-304.5"/>
</a>
</g>
</g>
<!-- set_marker_node_Set(11) -->
<!-- set_marker_node_Set(4)&#45;&gt;set_marker_node_Set(11) -->
<g id="edge8" class="edge">
<title>set_marker_node_Set(4)&#45;&gt;set_marker_node_Set(11)</title>
<g id="a_edge8"><a xlink:title="UpdateFlush → PostUpdate">
<path fill="none" stroke="#663699" stroke-width="2" d="M1253,-301C1254.98,-301 1256.99,-301 1259.04,-301"/>
<polygon fill="#663699" stroke="#663699" stroke-width="2" points="1258.97,-304.5 1268.97,-301 1258.97,-297.5 1258.97,-304.5"/>
</a>
</g>
</g>
<!-- set_marker_node_Set(5) -->
<!-- set_marker_node_Set(12) -->
<!-- set_marker_node_Set(5)&#45;&gt;set_marker_node_Set(12) -->
<g id="edge10" class="edge">
<title>set_marker_node_Set(5)&#45;&gt;set_marker_node_Set(12)</title>
<g id="a_edge10"><a xlink:title="PostUpdateFlush → Last">
<path fill="none" stroke="#22c2bb" stroke-width="2" d="M1712.98,-246C1738.88,-242.3 1768.8,-238.03 1791.2,-234.83"/>
<polygon fill="#22c2bb" stroke="#22c2bb" stroke-width="2" points="1791.6,-238.31 1801.01,-233.43 1790.61,-231.38 1791.6,-238.31"/>
</a>
</g>
</g>
<!-- set_marker_node_Set(6) -->
<!-- set_marker_node_Set(7) -->
<!-- set_marker_node_Set(7)&#45;&gt;set_marker_node_Set(2) -->
<g id="edge1" class="edge">
<title>set_marker_node_Set(7)&#45;&gt;set_marker_node_Set(2)</title>
<g id="a_edge1"><a xlink:title="First → FirstFlush">
<path fill="none" stroke="#eede00" stroke-width="2" d="M121,-351.08C140.73,-353.84 170.48,-358.01 196.34,-361.63"/>
<polygon fill="#eede00" stroke="#eede00" stroke-width="2" points="195.62,-365.06 206,-362.98 196.59,-358.13 195.62,-365.06"/>
</a>
</g>
</g>
<!-- set_marker_node_Set(59) -->
<!-- set_marker_node_Set(7)&#45;&gt;set_marker_node_Set(59) -->
<g id="edge13" class="edge">
<title>set_marker_node_Set(7)&#45;&gt;set_marker_node_Set(59)</title>
<g id="a_edge13"><a xlink:title="First → LoadAssets">
<path fill="none" stroke="#881877" stroke-width="2" d="M121,-344.19C139.69,-340.95 167.37,-336.15 192.21,-331.84"/>
<polygon fill="#881877" stroke="#881877" stroke-width="2" points="192.77,-335.3 202.02,-330.14 191.57,-328.4 192.77,-335.3"/>
</a>
</g>
</g>
<!-- set_marker_node_Set(8)&#45;&gt;set_marker_node_Set(3) -->
<g id="edge3" class="edge">
<title>set_marker_node_Set(8)&#45;&gt;set_marker_node_Set(3)</title>
<g id="a_edge3"><a xlink:title="PreUpdate → PreUpdateFlush">
<path fill="none" stroke="#00b0cc" stroke-width="2" d="M395.56,-340C407.6,-335.92 422.96,-330.71 438.51,-325.43"/>
<polygon fill="#00b0cc" stroke="#00b0cc" stroke-width="2" points="439.29,-328.86 447.64,-322.33 437.04,-322.23 439.29,-328.86"/>
</a>
</g>
</g>
<!-- set_marker_node_Set(25) -->
<!-- node_System(104) -->
<g id="node15" class="node">
<title>node_System(104)</title>
<g id="a_node15"><a xlink:title="bevy_ui::focus::ui_focus_system">
<polygon fill="#eff1f3" stroke="#eff1f3" points="574,-392 449,-392 449,-356 574,-356 574,-392"/>
<text text-anchor="middle" x="511.5" y="-370.3" font-family="Times,serif" font-size="14.00">ui_focus_system</text>
</a>
</g>
</g>
<!-- set_marker_node_Set(25)&#45;&gt;node_System(104) -->
<g id="edge16" class="edge">
<title>set_marker_node_Set(25)&#45;&gt;node_System(104)</title>
<g id="a_edge16"><a xlink:title="InputSystem → ui_focus_system">
<path fill="none" stroke="#44d488" stroke-width="2" d="M422,-374C426.63,-374 431.39,-374 436.18,-374"/>
<polygon fill="#44d488" stroke="#44d488" stroke-width="2" points="435.82,-377.5 445.82,-374 435.82,-370.5 435.82,-377.5"/>
</a>
</g>
</g>
<!-- set_marker_node_Set(125) -->
<!-- set_marker_node_Set(10) -->
<!-- set_marker_node_Set(9)&#45;&gt;set_marker_node_Set(10) -->
<g id="edge5" class="edge">
<title>set_marker_node_Set(9)&#45;&gt;set_marker_node_Set(10)</title>
<g id="a_edge5"><a xlink:title="StateTransitions → FixedUpdate">
<path fill="none" stroke="#44d488" stroke-width="2" d="M731,-301C732.39,-301 733.78,-301 735.17,-301"/>
<polygon fill="#44d488" stroke="#44d488" stroke-width="2" points="734.97,-304.5 744.97,-301 734.97,-297.5 734.97,-304.5"/>
</a>
</g>
</g>
<!-- set_marker_node_Set(10)&#45;&gt;set_marker_node_Set(0) -->
<g id="edge6" class="edge">
<title>set_marker_node_Set(10)&#45;&gt;set_marker_node_Set(0)</title>
<g id="a_edge6"><a xlink:title="FixedUpdate → Update">
<path fill="none" stroke="#0090cc" stroke-width="2" d="M848,-301C884.79,-301 936.03,-301 979.09,-301"/>
<polygon fill="#0090cc" stroke="#0090cc" stroke-width="2" points="978.97,-304.5 988.97,-301 978.97,-297.5 978.97,-304.5"/>
</a>
</g>
</g>
<!-- set_marker_node_Set(11)&#45;&gt;set_marker_node_Set(5) -->
<g id="edge9" class="edge">
<title>set_marker_node_Set(11)&#45;&gt;set_marker_node_Set(5)</title>
<g id="a_edge9"><a xlink:title="PostUpdate → PostUpdateFlush">
<path fill="none" stroke="#3363bb" stroke-width="2" d="M1457.49,-293C1490.83,-286.42 1539.01,-276.91 1579.44,-268.92"/>
<polygon fill="#3363bb" stroke="#3363bb" stroke-width="2" points="1579.9,-272.4 1589.03,-267.03 1578.54,-265.53 1579.9,-272.4"/>
</a>
</g>
</g>
<!-- set_marker_node_Set(60) -->
<!-- set_marker_node_Set(11)&#45;&gt;set_marker_node_Set(60) -->
<g id="edge14" class="edge">
<title>set_marker_node_Set(11)&#45;&gt;set_marker_node_Set(60)</title>
<g id="a_edge14"><a xlink:title="PostUpdate → AssetEvents">
<path fill="none" stroke="#00b0cc" stroke-width="2" d="M1437.25,-293C1472.08,-279.25 1544.55,-250.62 1596.32,-230.18"/>
<polygon fill="#00b0cc" stroke="#00b0cc" stroke-width="2" points="1597.17,-233.6 1605.19,-226.67 1594.6,-227.09 1597.17,-233.6"/>
</a>
</g>
</g>
<!-- set_marker_node_Set(20) -->
<!-- node_System(109) -->
<g id="node26" class="node">
<title>node_System(109)</title>
<g id="a_node26"><a xlink:title="bevy_ui::update::update_clipping_system">
<polygon fill="#eff1f3" stroke="#eff1f3" points="2105,-359 1929,-359 1929,-323 2105,-323 2105,-359"/>
<text text-anchor="middle" x="2017" y="-337.3" font-family="Times,serif" font-size="14.00">update_clipping_system</text>
</a>
</g>
</g>
<!-- set_marker_node_Set(20)&#45;&gt;node_System(109) -->
<g id="edge20" class="edge">
<title>set_marker_node_Set(20)&#45;&gt;node_System(109)</title>
<g id="a_edge20"><a xlink:title="TransformPropagate → update_clipping_system">
<path fill="none" stroke="#3363bb" stroke-width="2" d="M1902,-341C1906.5,-341 1911.06,-341 1915.65,-341"/>
<polygon fill="#3363bb" stroke="#3363bb" stroke-width="2" points="1915.59,-344.5 1925.59,-341 1915.59,-337.5 1915.59,-344.5"/>
</a>
</g>
</g>
<!-- set_marker_node_Set(126) -->
<!-- node_System(107) -->
<g id="node21" class="node">
<title>node_System(107)</title>
<g id="a_node21"><a xlink:title="bevy_ui::flex::flex_node_system">
<polygon fill="#eff1f3" stroke="#eff1f3" points="1723,-359 1589,-359 1589,-323 1723,-323 1723,-359"/>
<text text-anchor="middle" x="1656" y="-337.3" font-family="Times,serif" font-size="14.00">flex_node_system</text>
</a>
</g>
</g>
<!-- node_System(107)&#45;&gt;set_marker_node_Set(20) -->
<g id="edge19" class="edge">
<title>node_System(107)&#45;&gt;set_marker_node_Set(20)</title>
<g id="a_edge19"><a xlink:title="flex_node_system → TransformPropagate">
<path fill="none" stroke="#663699" stroke-width="2" d="M1723.4,-341C1727.9,-341 1732.48,-341 1737.07,-341"/>
<polygon fill="#663699" stroke="#663699" stroke-width="2" points="1736.98,-344.5 1746.98,-341 1736.98,-337.5 1736.98,-344.5"/>
</a>
</g>
</g>
<!-- set_marker_node_Set(127) -->
<!-- node_System(108) -->
<g id="node23" class="node">
<title>node_System(108)</title>
<g id="a_node23"><a xlink:title="bevy_ui::stack::ui_stack_system">
<polygon fill="#eff1f3" stroke="#eff1f3" points="1478.5,-463 1353.5,-463 1353.5,-427 1478.5,-427 1478.5,-463"/>
<text text-anchor="middle" x="1416" y="-441.3" font-family="Times,serif" font-size="14.00">ui_stack_system</text>
</a>
</g>
</g>
<!-- node_System(105) -->
<g id="node24" class="node">
<title>node_System(105)</title>
<g id="a_node24"><a xlink:title="bevy_ui::widget::text::text_system">
<polygon fill="#eff1f3" stroke="#eff1f3" points="1464,-409 1368,-409 1368,-373 1464,-373 1464,-409"/>
<text text-anchor="middle" x="1416" y="-387.3" font-family="Times,serif" font-size="14.00">text_system</text>
</a>
</g>
</g>
<!-- node_System(105)&#45;&gt;set_marker_node_Set(126) -->
<g id="edge17" class="edge">
<title>node_System(105)&#45;&gt;set_marker_node_Set(126)</title>
<g id="a_edge17"><a xlink:title="text_system → Flex">
<path fill="none" stroke="#0090cc" stroke-width="2" d="M1464.31,-388.22C1493.99,-386.47 1533.16,-384.17 1568.28,-382.1"/>
<polygon fill="#0090cc" stroke="#0090cc" stroke-width="2" points="1568.21,-385.61 1577.98,-381.53 1567.79,-378.62 1568.21,-385.61"/>
</a>
</g>
</g>
<!-- node_System(106) -->
<g id="node25" class="node">
<title>node_System(106)</title>
<g id="a_node25"><a xlink:title="bevy_ui::widget::image::update_image_calculated_size_system">
<polygon fill="#eff1f3" stroke="#eff1f3" points="1552,-355 1280,-355 1280,-319 1552,-319 1552,-355"/>
<text text-anchor="middle" x="1416" y="-333.3" font-family="Times,serif" font-size="14.00">update_image_calculated_size_system</text>
</a>
</g>
</g>
<!-- node_System(106)&#45;&gt;set_marker_node_Set(126) -->
<g id="edge18" class="edge">
<title>node_System(106)&#45;&gt;set_marker_node_Set(126)</title>
<g id="a_edge18"><a xlink:title="update_image_calculated_size_system → Flex">
<path fill="none" stroke="#ee9e44" stroke-width="2" d="M1508.76,-355.45C1528.03,-359.07 1548.5,-362.75 1568.19,-365.96"/>
<polygon fill="#ee9e44" stroke="#ee9e44" stroke-width="2" points="1567.58,-369.41 1578.01,-367.52 1568.69,-362.49 1567.58,-369.41"/>
</a>
</g>
</g>
<!-- set_marker_node_Set(12)&#45;&gt;set_marker_node_Set(6) -->
<g id="edge11" class="edge">
<title>set_marker_node_Set(12)&#45;&gt;set_marker_node_Set(6)</title>
<g id="a_edge11"><a xlink:title="Last → LastFlush">
<path fill="none" stroke="#99d955" stroke-width="2" d="M1848,-230C1875.81,-230 1925.79,-230 1964.04,-230"/>
<polygon fill="#99d955" stroke="#99d955" stroke-width="2" points="1963.97,-233.5 1973.97,-230 1963.97,-226.5 1963.97,-233.5"/>
</a>
</g>
</g>
<!-- set_marker_node_Set(22) -->
<!-- set_marker_node_Set(59)&#45;&gt;set_marker_node_Set(8) -->
<g id="edge12" class="edge">
<title>set_marker_node_Set(59)&#45;&gt;set_marker_node_Set(8)</title>
<g id="a_edge12"><a xlink:title="LoadAssets → PreUpdate">
<path fill="none" stroke="#eede00" stroke-width="2" d="M296,-331.83C304.17,-333.62 312.73,-335.49 321.01,-337.3"/>
<polygon fill="#eede00" stroke="#eede00" stroke-width="2" points="319.92,-340.64 330.44,-339.36 321.42,-333.8 319.92,-340.64"/>
</a>
</g>
</g>
<!-- set_marker_node_Set(60)&#45;&gt;set_marker_node_Set(12) -->
<g id="edge15" class="edge">
<title>set_marker_node_Set(60)&#45;&gt;set_marker_node_Set(12)</title>
<g id="a_edge15"><a xlink:title="AssetEvents → Last">
<path fill="none" stroke="#aa3a55" stroke-width="2" d="M1704,-213.43C1731.72,-217.23 1766.16,-221.94 1791.2,-225.37"/>
<polygon fill="#aa3a55" stroke="#aa3a55" stroke-width="2" points="1790.62,-228.83 1801.01,-226.72 1791.57,-221.89 1790.62,-228.83"/>
</a>
</g>
</g>
</g>
</svg>
