<?xml version="1.0" encoding="UTF-8" standalone="no"?>
<!DOCTYPE svg PUBLIC "-//W3C//DTD SVG 1.1//EN"
 "http://www.w3.org/Graphics/SVG/1.1/DTD/svg11.dtd">
<!-- Generated by graphviz version 8.0.1 (0)
 -->
<!-- Pages: 1 -->
<svg width="1864pt" height="508pt"
 viewBox="0.00 0.00 1864.00 508.00" xmlns="http://www.w3.org/2000/svg" xmlns:xlink="http://www.w3.org/1999/xlink">
<g id="graph0" class="graph" transform="scale(1 1) rotate(0) translate(4 504)">
<polygon fill="#0d1117" stroke="none" points="-4,4 -4,-504 1860,-504 1860,4 -4,4"/>
<g id="clust1" class="cluster">
<title>clusternode_Set(0)</title>
<g id="a_clust1"><a xlink:title="Update">
<path fill="#ffffff" fill-opacity="0.266667" stroke="#ffffff" stroke-width="2" stroke-opacity="0.313725" d="M814,-8C814,-8 919,-8 919,-8 925,-8 931,-14 931,-20 931,-20 931,-292 931,-292 931,-298 925,-304 919,-304 919,-304 814,-304 814,-304 808,-304 802,-298 802,-292 802,-292 802,-20 802,-20 802,-14 808,-8 814,-8"/>
<text text-anchor="middle" x="866.5" y="-288.8" font-family="Helvetica,sans-Serif" font-size="14.00">Update</text>
</a>
</g>
</g>
<g id="clust2" class="cluster">
<title>clusternode_Set(2)</title>
<g id="a_clust2"><a xlink:title="FirstFlush">
<path fill="#ffffff" fill-opacity="0.266667" stroke="#ffffff" stroke-width="2" stroke-opacity="0.313725" d="M86,-332C86,-332 138,-332 138,-332 144,-332 150,-338 150,-344 150,-344 150,-359 150,-359 150,-365 144,-371 138,-371 138,-371 86,-371 86,-371 80,-371 74,-365 74,-359 74,-359 74,-344 74,-344 74,-338 80,-332 86,-332"/>
<text text-anchor="middle" x="112" y="-355.8" font-family="Helvetica,sans-Serif" font-size="14.00">FirstFlush</text>
</a>
</g>
</g>
<g id="clust3" class="cluster">
<title>clusternode_Set(3)</title>
<g id="a_clust3"><a xlink:title="PreUpdateFlush">
<path fill="#ffffff" fill-opacity="0.266667" stroke="#ffffff" stroke-width="2" stroke-opacity="0.313725" d="M313.5,-265C313.5,-265 403.5,-265 403.5,-265 409.5,-265 415.5,-271 415.5,-277 415.5,-277 415.5,-292 415.5,-292 415.5,-298 409.5,-304 403.5,-304 403.5,-304 313.5,-304 313.5,-304 307.5,-304 301.5,-298 301.5,-292 301.5,-292 301.5,-277 301.5,-277 301.5,-271 307.5,-265 313.5,-265"/>
<text text-anchor="middle" x="358.5" y="-288.8" font-family="Helvetica,sans-Serif" font-size="14.00">PreUpdateFlush</text>
</a>
</g>
</g>
<g id="clust4" class="cluster">
<title>clusternode_Set(4)</title>
<g id="a_clust4"><a xlink:title="UpdateFlush">
<path fill="#ffffff" fill-opacity="0.266667" stroke="#ffffff" stroke-width="2" stroke-opacity="0.313725" d="M962,-265C962,-265 1031,-265 1031,-265 1037,-265 1043,-271 1043,-277 1043,-277 1043,-292 1043,-292 1043,-298 1037,-304 1031,-304 1031,-304 962,-304 962,-304 956,-304 950,-298 950,-292 950,-292 950,-277 950,-277 950,-271 956,-265 962,-265"/>
<text text-anchor="middle" x="996.5" y="-288.8" font-family="Helvetica,sans-Serif" font-size="14.00">UpdateFlush</text>
</a>
</g>
</g>
<g id="clust5" class="cluster">
<title>clusternode_Set(5)</title>
<g id="a_clust5"><a xlink:title="PostUpdateFlush">
<path fill="#ffffff" fill-opacity="0.266667" stroke="#ffffff" stroke-width="2" stroke-opacity="0.313725" d="M1373.5,-218C1373.5,-218 1469.5,-218 1469.5,-218 1475.5,-218 1481.5,-224 1481.5,-230 1481.5,-230 1481.5,-245 1481.5,-245 1481.5,-251 1475.5,-257 1469.5,-257 1469.5,-257 1373.5,-257 1373.5,-257 1367.5,-257 1361.5,-251 1361.5,-245 1361.5,-245 1361.5,-230 1361.5,-230 1361.5,-224 1367.5,-218 1373.5,-218"/>
<text text-anchor="middle" x="1421.5" y="-241.8" font-family="Helvetica,sans-Serif" font-size="14.00">PostUpdateFlush</text>
</a>
</g>
</g>
<g id="clust6" class="cluster">
<title>clusternode_Set(6)</title>
<g id="a_clust6"><a xlink:title="LastFlush">
<path fill="#ffffff" fill-opacity="0.266667" stroke="#ffffff" stroke-width="2" stroke-opacity="0.313725" d="M1733.5,-194C1733.5,-194 1785.5,-194 1785.5,-194 1791.5,-194 1797.5,-200 1797.5,-206 1797.5,-206 1797.5,-221 1797.5,-221 1797.5,-227 1791.5,-233 1785.5,-233 1785.5,-233 1733.5,-233 1733.5,-233 1727.5,-233 1721.5,-227 1721.5,-221 1721.5,-221 1721.5,-206 1721.5,-206 1721.5,-200 1727.5,-194 1733.5,-194"/>
<text text-anchor="middle" x="1759.5" y="-217.8" font-family="Helvetica,sans-Serif" font-size="14.00">LastFlush</text>
</a>
</g>
</g>
<g id="clust7" class="cluster">
<title>clusternode_Set(7)</title>
<g id="a_clust7"><a xlink:title="First">
<path fill="#ffffff" fill-opacity="0.266667" stroke="#ffffff" stroke-width="2" stroke-opacity="0.313725" d="M20,-312C20,-312 39,-312 39,-312 45,-312 51,-318 51,-324 51,-324 51,-339 51,-339 51,-345 45,-351 39,-351 39,-351 20,-351 20,-351 14,-351 8,-345 8,-339 8,-339 8,-324 8,-324 8,-318 14,-312 20,-312"/>
<text text-anchor="middle" x="29.5" y="-335.8" font-family="Helvetica,sans-Serif" font-size="14.00">First</text>
</a>
</g>
</g>
<g id="clust8" class="cluster">
<title>clusternode_Set(8)</title>
<g id="a_clust8"><a xlink:title="PreUpdate">
<path fill="#ffffff" fill-opacity="0.266667" stroke="#ffffff" stroke-width="2" stroke-opacity="0.313725" d="M185,-312C185,-312 421,-312 421,-312 427,-312 433,-318 433,-324 433,-324 433,-425 433,-425 433,-431 427,-437 421,-437 421,-437 185,-437 185,-437 179,-437 173,-431 173,-425 173,-425 173,-324 173,-324 173,-318 179,-312 185,-312"/>
<text text-anchor="middle" x="303" y="-421.8" font-family="Helvetica,sans-Serif" font-size="14.00">PreUpdate</text>
</a>
</g>
</g>
<g id="clust9" class="cluster">
<title>clusternode_Set(25)</title>
<g id="a_clust9"><a xlink:title="InputSystem">
<path fill="#ffffff" fill-opacity="0.266667" stroke="#ffffff" stroke-width="2" stroke-opacity="0.313725" d="M193,-338C193,-338 261,-338 261,-338 267,-338 273,-344 273,-350 273,-350 273,-365 273,-365 273,-371 267,-377 261,-377 261,-377 193,-377 193,-377 187,-377 181,-371 181,-365 181,-365 181,-350 181,-350 181,-344 187,-338 193,-338"/>
<text text-anchor="middle" x="227" y="-361.8" font-family="Helvetica,sans-Serif" font-size="14.00">InputSystem</text>
</a>
</g>
</g>
<g id="clust10" class="cluster">
<title>clusternode_Set(121)</title>
<g id="a_clust10"><a xlink:title="Focus">
<path fill="#ffffff" fill-opacity="0.266667" stroke="#ffffff" stroke-width="2" stroke-opacity="0.313725" d="M304,-320C304,-320 413,-320 413,-320 419,-320 425,-326 425,-332 425,-332 425,-394 425,-394 425,-400 419,-406 413,-406 413,-406 304,-406 304,-406 298,-406 292,-400 292,-394 292,-394 292,-332 292,-332 292,-326 298,-320 304,-320"/>
<text text-anchor="middle" x="358.5" y="-390.8" font-family="Helvetica,sans-Serif" font-size="14.00">Focus</text>
</a>
</g>
</g>
<g id="clust11" class="cluster">
<title>clusternode_Set(9)</title>
<g id="a_clust11"><a xlink:title="StateTransitions">
<path fill="#ffffff" fill-opacity="0.266667" stroke="#ffffff" stroke-width="2" stroke-opacity="0.313725" d="M462,-265C462,-265 553,-265 553,-265 559,-265 565,-271 565,-277 565,-277 565,-292 565,-292 565,-298 559,-304 553,-304 553,-304 462,-304 462,-304 456,-304 450,-298 450,-292 450,-292 450,-277 450,-277 450,-271 456,-265 462,-265"/>
<text text-anchor="middle" x="507.5" y="-288.8" font-family="Helvetica,sans-Serif" font-size="14.00">StateTransitions</text>
</a>
</g>
</g>
<g id="clust12" class="cluster">
<title>clusternode_Set(10)</title>
<g id="a_clust12"><a xlink:title="FixedUpdate">
<path fill="#ffffff" fill-opacity="0.266667" stroke="#ffffff" stroke-width="2" stroke-opacity="0.313725" d="M594,-265C594,-265 663,-265 663,-265 669,-265 675,-271 675,-277 675,-277 675,-292 675,-292 675,-298 669,-304 663,-304 663,-304 594,-304 594,-304 588,-304 582,-298 582,-292 582,-292 582,-277 582,-277 582,-271 588,-265 594,-265"/>
<text text-anchor="middle" x="628.5" y="-288.8" font-family="Helvetica,sans-Serif" font-size="14.00">FixedUpdate</text>
</a>
</g>
</g>
<g id="clust13" class="cluster">
<title>clusternode_Set(11)</title>
<g id="a_clust13"><a xlink:title="PostUpdate">
<path fill="#ffffff" fill-opacity="0.266667" stroke="#ffffff" stroke-width="2" stroke-opacity="0.313725" d="M1074,-265C1074,-265 1836,-265 1836,-265 1842,-265 1848,-271 1848,-277 1848,-277 1848,-480 1848,-480 1848,-486 1842,-492 1836,-492 1836,-492 1074,-492 1074,-492 1068,-492 1062,-486 1062,-480 1062,-480 1062,-277 1062,-277 1062,-271 1068,-265 1074,-265"/>
<text text-anchor="middle" x="1455" y="-476.8" font-family="Helvetica,sans-Serif" font-size="14.00">PostUpdate</text>
</a>
</g>
</g>
<g id="clust14" class="cluster">
<title>clusternode_Set(20)</title>
<g id="a_clust14"><a xlink:title="TransformPropagate">
<path fill="#ffffff" fill-opacity="0.266667" stroke="#ffffff" stroke-width="2" stroke-opacity="0.313725" d="M1523,-301C1523,-301 1640,-301 1640,-301 1646,-301 1652,-307 1652,-313 1652,-313 1652,-328 1652,-328 1652,-334 1646,-340 1640,-340 1640,-340 1523,-340 1523,-340 1517,-340 1511,-334 1511,-328 1511,-328 1511,-313 1511,-313 1511,-307 1517,-301 1523,-301"/>
<text text-anchor="middle" x="1581.5" y="-324.8" font-family="Helvetica,sans-Serif" font-size="14.00">TransformPropagate</text>
</a>
</g>
</g>
<g id="clust15" class="cluster">
<title>clusternode_Set(122)</title>
<g id="a_clust15"><a xlink:title="Flex">
<path fill="#ffffff" fill-opacity="0.266667" stroke="#ffffff" stroke-width="2" stroke-opacity="0.313725" d="M1363,-283C1363,-283 1480,-283 1480,-283 1486,-283 1492,-289 1492,-295 1492,-295 1492,-357 1492,-357 1492,-363 1486,-369 1480,-369 1480,-369 1363,-369 1363,-369 1357,-369 1351,-363 1351,-357 1351,-357 1351,-295 1351,-295 1351,-289 1357,-283 1363,-283"/>
<text text-anchor="middle" x="1421.5" y="-353.8" font-family="Helvetica,sans-Serif" font-size="14.00">Flex</text>
</a>
</g>
</g>
<g id="clust16" class="cluster">
<title>clusternode_Set(123)</title>
<g id="a_clust16"><a xlink:title="Stack">
<path fill="#ffffff" fill-opacity="0.266667" stroke="#ffffff" stroke-width="2" stroke-opacity="0.313725" d="M1141.5,-375C1141.5,-375 1250.5,-375 1250.5,-375 1256.5,-375 1262.5,-381 1262.5,-387 1262.5,-387 1262.5,-449 1262.5,-449 1262.5,-455 1256.5,-461 1250.5,-461 1250.5,-461 1141.5,-461 1141.5,-461 1135.5,-461 1129.5,-455 1129.5,-449 1129.5,-449 1129.5,-387 1129.5,-387 1129.5,-381 1135.5,-375 1141.5,-375"/>
<text text-anchor="middle" x="1196" y="-445.8" font-family="Helvetica,sans-Serif" font-size="14.00">Stack</text>
</a>
</g>
</g>
<g id="clust17" class="cluster">
<title>clusternode_Set(12)</title>
<g id="a_clust17"><a xlink:title="Last">
<path fill="#ffffff" fill-opacity="0.266667" stroke="#ffffff" stroke-width="2" stroke-opacity="0.313725" d="M1572,-194C1572,-194 1591,-194 1591,-194 1597,-194 1603,-200 1603,-206 1603,-206 1603,-221 1603,-221 1603,-227 1597,-233 1591,-233 1591,-233 1572,-233 1572,-233 1566,-233 1560,-227 1560,-221 1560,-221 1560,-206 1560,-206 1560,-200 1566,-194 1572,-194"/>
<text text-anchor="middle" x="1581.5" y="-217.8" font-family="Helvetica,sans-Serif" font-size="14.00">Last</text>
</a>
</g>
</g>
<g id="clust18" class="cluster">
<title>clusternode_Set(59)</title>
<g id="a_clust18"><a xlink:title="LoadAssets">
<path fill="#ffffff" fill-opacity="0.266667" stroke="#ffffff" stroke-width="2" stroke-opacity="0.313725" d="M80,-285C80,-285 144,-285 144,-285 150,-285 156,-291 156,-297 156,-297 156,-312 156,-312 156,-318 150,-324 144,-324 144,-324 80,-324 80,-324 74,-324 68,-318 68,-312 68,-312 68,-297 68,-297 68,-291 74,-285 80,-285"/>
<text text-anchor="middle" x="112" y="-308.8" font-family="Helvetica,sans-Serif" font-size="14.00">LoadAssets</text>
</a>
</g>
</g>
<g id="clust19" class="cluster">
<title>clusternode_Set(60)</title>
<g id="a_clust19"><a xlink:title="AssetEvents">
<path fill="#ffffff" fill-opacity="0.266667" stroke="#ffffff" stroke-width="2" stroke-opacity="0.313725" d="M1387.5,-171C1387.5,-171 1455.5,-171 1455.5,-171 1461.5,-171 1467.5,-177 1467.5,-183 1467.5,-183 1467.5,-198 1467.5,-198 1467.5,-204 1461.5,-210 1455.5,-210 1455.5,-210 1387.5,-210 1387.5,-210 1381.5,-210 1375.5,-204 1375.5,-198 1375.5,-198 1375.5,-183 1375.5,-183 1375.5,-177 1381.5,-171 1387.5,-171"/>
<text text-anchor="middle" x="1421.5" y="-194.8" font-family="Helvetica,sans-Serif" font-size="14.00">AssetEvents</text>
</a>
</g>
</g>
<!-- set_marker_node_Set(0) -->
<!-- set_marker_node_Set(4) -->
<!-- set_marker_node_Set(0)&#45;&gt;set_marker_node_Set(4) -->
<g id="edge7" class="edge">
<title>set_marker_node_Set(0)&#45;&gt;set_marker_node_Set(4)</title>
<g id="a_edge7"><a xlink:title="Update → UpdateFlush">
<path fill="none" stroke="#ee9e44" stroke-width="2" d="M931,-273C933.05,-273 935.11,-273 937.16,-273"/>
<polygon fill="#ee9e44" stroke="#ee9e44" stroke-width="2" points="937,-276.5 947,-273 937,-269.5 937,-276.5"/>
</a>
</g>
</g>
<!-- node_System(102) -->
<g id="node2" class="node">
<title>node_System(102)</title>
<g id="a_node2"><a xlink:title="bevy_ui::accessibility::calc_bounds">
<polygon fill="#ffb1e5" stroke="#ff4bc2" points="912.5,-262 820.5,-262 820.5,-226 912.5,-226 912.5,-262"/>
<text text-anchor="middle" x="866.5" y="-240.3" font-family="Helvetica,sans-Serif" font-size="14.00" fill="#320021">calc_bounds</text>
</a>
</g>
</g>
<!-- node_System(103) -->
<g id="node3" class="node">
<title>node_System(103)</title>
<g id="a_node3"><a xlink:title="bevy_ui::accessibility::button_changed">
<polygon fill="#ffb1e5" stroke="#ff4bc2" points="923,-192 810,-192 810,-156 923,-156 923,-192"/>
<text text-anchor="middle" x="866.5" y="-170.3" font-family="Helvetica,sans-Serif" font-size="14.00" fill="#320021">button_changed</text>
</a>
</g>
</g>
<!-- node_System(102)&#45;&gt;node_System(103) -->
<g id="edge21" class="edge">
<title>node_System(102)&#45;&gt;node_System(103)</title>
<path fill="none" stroke="#c93526" stroke-width="2" d="M866.5,-225.97C866.5,-215.66 866.5,-202.76 866.5,-192.39"/>
<g id="a_edge21&#45;label"><a xlink:title="calc_bounds — button_changed">
<polygon fill="#c6e6ff" stroke="none" points="799.5,-199.5 799.5,-218.5 904.5,-218.5 904.5,-199.5 799.5,-199.5"/>
<text text-anchor="start" x="801.5" y="-205.3" font-family="Times,serif" font-size="14.00" fill="#c93526">AccessibilityNode</text>
</a>
</g>
</g>
<!-- node_System(104) -->
<g id="node4" class="node">
<title>node_System(104)</title>
<g id="a_node4"><a xlink:title="bevy_ui::accessibility::image_changed">
<polygon fill="#ffb1e5" stroke="#ff4bc2" points="923,-122 810,-122 810,-86 923,-86 923,-122"/>
<text text-anchor="middle" x="866.5" y="-100.3" font-family="Helvetica,sans-Serif" font-size="14.00" fill="#320021">image_changed</text>
</a>
</g>
</g>
<!-- node_System(102)&#45;&gt;node_System(104) -->
<g id="edge22" class="edge">
<title>node_System(102)&#45;&gt;node_System(104)</title>
<path fill="none" stroke="#c93526" stroke-width="2" d="M820.32,-242.68C782.36,-238.85 730.7,-226.75 704.5,-190.5 673.4,-147.48 751.28,-123.83 809.54,-112.55"/>
<g id="a_edge22&#45;label"><a xlink:title="calc_bounds — image_changed">
<polygon fill="#c6e6ff" stroke="none" points="685,-169.5 685,-188.5 790,-188.5 790,-169.5 685,-169.5"/>
<text text-anchor="start" x="687" y="-175.3" font-family="Times,serif" font-size="14.00" fill="#c93526">AccessibilityNode</text>
</a>
</g>
</g>
<!-- node_System(105) -->
<g id="node5" class="node">
<title>node_System(105)</title>
<g id="a_node5"><a xlink:title="bevy_ui::accessibility::label_changed">
<polygon fill="#ffb1e5" stroke="#ff4bc2" points="918.5,-52 814.5,-52 814.5,-16 918.5,-16 918.5,-52"/>
<text text-anchor="middle" x="866.5" y="-30.3" font-family="Helvetica,sans-Serif" font-size="14.00" fill="#320021">label_changed</text>
</a>
</g>
</g>
<!-- node_System(102)&#45;&gt;node_System(105) -->
<g id="edge23" class="edge">
<title>node_System(102)&#45;&gt;node_System(105)</title>
<path fill="none" stroke="#c93526" stroke-width="2" d="M823.61,-225.58C761.84,-196.44 659.89,-137.01 704.5,-78.5 729.7,-45.45 777.04,-35.4 814.06,-32.99"/>
<g id="a_edge23&#45;label"><a xlink:title="calc_bounds — label_changed">
<polygon fill="#c6e6ff" stroke="none" points="685,-80.5 685,-99.5 790,-99.5 790,-80.5 685,-80.5"/>
<text text-anchor="start" x="687" y="-86.3" font-family="Times,serif" font-size="14.00" fill="#c93526">AccessibilityNode</text>
</a>
</g>
</g>
<!-- node_System(103)&#45;&gt;node_System(104) -->
<g id="edge24" class="edge">
<title>node_System(103)&#45;&gt;node_System(104)</title>
<path fill="none" stroke="#c93526" stroke-width="2" d="M866.5,-155.97C866.5,-145.66 866.5,-132.76 866.5,-122.39"/>
<g id="a_edge24&#45;label"><a xlink:title="button_changed — image_changed">
<polygon fill="#c6e6ff" stroke="none" points="799.5,-129.5 799.5,-148.5 904.5,-148.5 904.5,-129.5 799.5,-129.5"/>
<text text-anchor="start" x="801.5" y="-135.3" font-family="Times,serif" font-size="14.00" fill="#c93526">AccessibilityNode</text>
</a>
</g>
</g>
<!-- node_System(103)&#45;&gt;node_System(105) -->
<g id="edge25" class="edge">
<title>node_System(103)&#45;&gt;node_System(105)</title>
<path fill="none" stroke="#c93526" stroke-width="2" d="M809.62,-177.66C773.5,-176.57 729.08,-168.23 704.5,-137.5 668.65,-92.67 754.1,-61.36 814.04,-45.64"/>
<g id="a_edge25&#45;label"><a xlink:title="button_changed — label_changed">
<polygon fill="#c6e6ff" stroke="none" points="685,-116.5 685,-135.5 790,-135.5 790,-116.5 685,-116.5"/>
<text text-anchor="start" x="687" y="-122.3" font-family="Times,serif" font-size="14.00" fill="#c93526">AccessibilityNode</text>
</a>
</g>
</g>
<!-- node_System(104)&#45;&gt;node_System(105) -->
<g id="edge26" class="edge">
<title>node_System(104)&#45;&gt;node_System(105)</title>
<path fill="none" stroke="#c93526" stroke-width="2" d="M866.5,-85.97C866.5,-75.66 866.5,-62.76 866.5,-52.39"/>
<g id="a_edge26&#45;label"><a xlink:title="image_changed — label_changed">
<polygon fill="#c6e6ff" stroke="none" points="799.5,-59.5 799.5,-78.5 904.5,-78.5 904.5,-59.5 799.5,-59.5"/>
<text text-anchor="start" x="801.5" y="-65.3" font-family="Times,serif" font-size="14.00" fill="#c93526">AccessibilityNode</text>
</a>
</g>
</g>
<!-- set_marker_node_Set(2) -->
<!-- set_marker_node_Set(8) -->
<!-- set_marker_node_Set(2)&#45;&gt;set_marker_node_Set(8) -->
<g id="edge2" class="edge">
<title>set_marker_node_Set(2)&#45;&gt;set_marker_node_Set(8)</title>
<g id="a_edge2"><a xlink:title="FirstFlush → PreUpdate">
<path fill="none" stroke="#881877" stroke-width="2" d="M150,-333.45C153.36,-332.86 156.82,-332.24 160.33,-331.62"/>
<polygon fill="#881877" stroke="#881877" stroke-width="2" points="161.77,-334.57 171,-329.38 160.55,-327.68 161.77,-334.57"/>
</a>
</g>
</g>
<!-- set_marker_node_Set(3) -->
<!-- set_marker_node_Set(9) -->
<!-- set_marker_node_Set(3)&#45;&gt;set_marker_node_Set(9) -->
<g id="edge4" class="edge">
<title>set_marker_node_Set(3)&#45;&gt;set_marker_node_Set(9)</title>
<g id="a_edge4"><a xlink:title="PreUpdateFlush → StateTransitions">
<path fill="none" stroke="#aa3a55" stroke-width="2" d="M415.5,-273C422.56,-273 429.85,-273 437.09,-273"/>
<polygon fill="#aa3a55" stroke="#aa3a55" stroke-width="2" points="437,-276.5 447,-273 437,-269.5 437,-276.5"/>
</a>
</g>
</g>
<!-- set_marker_node_Set(11) -->
<!-- set_marker_node_Set(4)&#45;&gt;set_marker_node_Set(11) -->
<g id="edge8" class="edge">
<title>set_marker_node_Set(4)&#45;&gt;set_marker_node_Set(11)</title>
<g id="a_edge8"><a xlink:title="UpdateFlush → PostUpdate">
<path fill="none" stroke="#663699" stroke-width="2" d="M1043,-273C1044.98,-273 1046.99,-273 1049.04,-273"/>
<polygon fill="#663699" stroke="#663699" stroke-width="2" points="1049,-276.5 1059,-273 1049,-269.5 1049,-276.5"/>
</a>
</g>
</g>
<!-- set_marker_node_Set(5) -->
<!-- set_marker_node_Set(12) -->
<!-- set_marker_node_Set(5)&#45;&gt;set_marker_node_Set(12) -->
<g id="edge10" class="edge">
<title>set_marker_node_Set(5)&#45;&gt;set_marker_node_Set(12)</title>
<g id="a_edge10"><a xlink:title="PostUpdateFlush → Last">
<path fill="none" stroke="#22c2bb" stroke-width="2" d="M1474.98,-218C1498.91,-214.36 1526.5,-210.15 1547.39,-206.97"/>
<polygon fill="#22c2bb" stroke="#22c2bb" stroke-width="2" points="1548.64,-210.01 1558,-205.05 1547.59,-203.09 1548.64,-210.01"/>
</a>
</g>
</g>
<!-- set_marker_node_Set(6) -->
<!-- set_marker_node_Set(7) -->
<!-- set_marker_node_Set(7)&#45;&gt;set_marker_node_Set(2) -->
<g id="edge1" class="edge">
<title>set_marker_node_Set(7)&#45;&gt;set_marker_node_Set(2)</title>
<g id="a_edge1"><a xlink:title="First → FirstFlush">
<path fill="none" stroke="#eede00" stroke-width="2" d="M51,-325.18C55.69,-326.34 60.84,-327.62 66.1,-328.91"/>
<polygon fill="#eede00" stroke="#eede00" stroke-width="2" points="66.05,-333 76.6,-332 67.73,-326.21 66.05,-333"/>
</a>
</g>
</g>
<!-- set_marker_node_Set(59) -->
<!-- set_marker_node_Set(7)&#45;&gt;set_marker_node_Set(59) -->
<g id="edge13" class="edge">
<title>set_marker_node_Set(7)&#45;&gt;set_marker_node_Set(59)</title>
<g id="a_edge13"><a xlink:title="First → LoadAssets">
<path fill="none" stroke="#881877" stroke-width="2" d="M51,-313C52.6,-312.47 54.27,-311.91 55.97,-311.34"/>
<polygon fill="#881877" stroke="#881877" stroke-width="2" points="57.62,-313.82 66,-307.33 55.41,-307.18 57.62,-313.82"/>
</a>
</g>
</g>
<!-- set_marker_node_Set(8)&#45;&gt;set_marker_node_Set(3) -->
<g id="edge3" class="edge">
<title>set_marker_node_Set(8)&#45;&gt;set_marker_node_Set(3)</title>
<g id="a_edge3"><a xlink:title="PreUpdate → PreUpdateFlush">
<path fill="none" stroke="#00b0cc" stroke-width="2" d="M250.03,-312C261.1,-307.99 275.18,-302.88 289.47,-297.69"/>
<polygon fill="#00b0cc" stroke="#00b0cc" stroke-width="2" points="291.29,-301.03 299.5,-294.32 288.91,-294.45 291.29,-301.03"/>
</a>
</g>
</g>
<!-- set_marker_node_Set(25) -->
<!-- node_System(100) -->
<g id="node15" class="node">
<title>node_System(100)</title>
<g id="a_node15"><a xlink:title="bevy_ui::focus::ui_focus_system">
<polygon fill="#ffb1e5" stroke="#ff4bc2" points="417,-364 300,-364 300,-328 417,-328 417,-364"/>
<text text-anchor="middle" x="358.5" y="-342.3" font-family="Helvetica,sans-Serif" font-size="14.00" fill="#320021">ui_focus_system</text>
</a>
</g>
</g>
<!-- set_marker_node_Set(25)&#45;&gt;node_System(100) -->
<g id="edge16" class="edge">
<title>set_marker_node_Set(25)&#45;&gt;node_System(100)</title>
<g id="a_edge16"><a xlink:title="InputSystem → ui_focus_system">
<path fill="none" stroke="#44d488" stroke-width="2" d="M273,-346C277.63,-346 282.4,-346 287.22,-346"/>
<polygon fill="#44d488" stroke="#44d488" stroke-width="2" points="286.86,-349.5 296.86,-346 286.86,-342.5 286.86,-349.5"/>
</a>
</g>
</g>
<!-- set_marker_node_Set(121) -->
<!-- set_marker_node_Set(10) -->
<!-- set_marker_node_Set(9)&#45;&gt;set_marker_node_Set(10) -->
<g id="edge5" class="edge">
<title>set_marker_node_Set(9)&#45;&gt;set_marker_node_Set(10)</title>
<g id="a_edge5"><a xlink:title="StateTransitions → FixedUpdate">
<path fill="none" stroke="#44d488" stroke-width="2" d="M565,-273C566.36,-273 567.73,-273 569.1,-273"/>
<polygon fill="#44d488" stroke="#44d488" stroke-width="2" points="569,-276.5 579,-273 569,-269.5 569,-276.5"/>
</a>
</g>
</g>
<!-- set_marker_node_Set(10)&#45;&gt;set_marker_node_Set(0) -->
<g id="edge6" class="edge">
<title>set_marker_node_Set(10)&#45;&gt;set_marker_node_Set(0)</title>
<g id="a_edge6"><a xlink:title="FixedUpdate → Update">
<path fill="none" stroke="#0090cc" stroke-width="2" d="M675,-273C707.38,-273 751.49,-273 789.1,-273"/>
<polygon fill="#0090cc" stroke="#0090cc" stroke-width="2" points="789,-276.5 799,-273 789,-269.5 789,-276.5"/>
</a>
</g>
</g>
<!-- set_marker_node_Set(11)&#45;&gt;set_marker_node_Set(5) -->
<g id="edge9" class="edge">
<title>set_marker_node_Set(11)&#45;&gt;set_marker_node_Set(5)</title>
<g id="a_edge9"><a xlink:title="PostUpdate → PostUpdateFlush">
<path fill="none" stroke="#3363bb" stroke-width="2" d="M1235.03,-265C1266.2,-258.45 1311.19,-248.99 1349.05,-241.02"/>
<polygon fill="#3363bb" stroke="#3363bb" stroke-width="2" points="1350.44,-243.89 1359.5,-238.41 1349,-237.04 1350.44,-243.89"/>
</a>
</g>
</g>
<!-- set_marker_node_Set(60) -->
<!-- set_marker_node_Set(11)&#45;&gt;set_marker_node_Set(60) -->
<g id="edge14" class="edge">
<title>set_marker_node_Set(11)&#45;&gt;set_marker_node_Set(60)</title>
<g id="a_edge14"><a xlink:title="PostUpdate → AssetEvents">
<path fill="none" stroke="#00b0cc" stroke-width="2" d="M1216.01,-265C1248.37,-251.4 1315.33,-223.23 1363.84,-202.83"/>
<polygon fill="#00b0cc" stroke="#00b0cc" stroke-width="2" points="1365.64,-206.03 1373.5,-198.93 1362.93,-199.58 1365.64,-206.03"/>
</a>
</g>
</g>
<!-- set_marker_node_Set(20) -->
<!-- node_System(109) -->
<g id="node26" class="node">
<title>node_System(109)</title>
<g id="a_node26"><a xlink:title="bevy_ui::update::update_clipping_system">
<polygon fill="#ffb1e5" stroke="#ff4bc2" points="1840,-327 1679,-327 1679,-291 1840,-291 1840,-327"/>
<text text-anchor="middle" x="1759.5" y="-305.3" font-family="Helvetica,sans-Serif" font-size="14.00" fill="#320021">update_clipping_system</text>
</a>
</g>
</g>
<!-- set_marker_node_Set(20)&#45;&gt;node_System(109) -->
<g id="edge20" class="edge">
<title>set_marker_node_Set(20)&#45;&gt;node_System(109)</title>
<g id="a_edge20"><a xlink:title="TransformPropagate → update_clipping_system">
<path fill="none" stroke="#3363bb" stroke-width="2" d="M1652,-309C1656.57,-309 1661.21,-309 1665.87,-309"/>
<polygon fill="#3363bb" stroke="#3363bb" stroke-width="2" points="1665.67,-312.5 1675.67,-309 1665.67,-305.5 1665.67,-312.5"/>
</a>
</g>
</g>
<!-- set_marker_node_Set(122) -->
<!-- node_System(107) -->
<g id="node21" class="node">
<title>node_System(107)</title>
<g id="a_node21"><a xlink:title="bevy_ui::flex::flex_node_system">
<polygon fill="#ffb1e5" stroke="#ff4bc2" points="1484,-327 1359,-327 1359,-291 1484,-291 1484,-327"/>
<text text-anchor="middle" x="1421.5" y="-305.3" font-family="Helvetica,sans-Serif" font-size="14.00" fill="#320021">flex_node_system</text>
</a>
</g>
</g>
<!-- node_System(107)&#45;&gt;set_marker_node_Set(20) -->
<g id="edge19" class="edge">
<title>node_System(107)&#45;&gt;set_marker_node_Set(20)</title>
<g id="a_edge19"><a xlink:title="flex_node_system → TransformPropagate">
<path fill="none" stroke="#663699" stroke-width="2" d="M1484.3,-309C1488.81,-309 1493.41,-309 1498.02,-309"/>
<polygon fill="#663699" stroke="#663699" stroke-width="2" points="1498,-312.5 1508,-309 1498,-305.5 1498,-312.5"/>
</a>
</g>
</g>
<!-- set_marker_node_Set(123) -->
<!-- node_System(108) -->
<g id="node23" class="node">
<title>node_System(108)</title>
<g id="a_node23"><a xlink:title="bevy_ui::stack::ui_stack_system">
<polygon fill="#ffb1e5" stroke="#ff4bc2" points="1254.5,-419 1137.5,-419 1137.5,-383 1254.5,-383 1254.5,-419"/>
<text text-anchor="middle" x="1196" y="-397.3" font-family="Helvetica,sans-Serif" font-size="14.00" fill="#320021">ui_stack_system</text>
</a>
</g>
</g>
<!-- node_System(101) -->
<g id="node24" class="node">
<title>node_System(101)</title>
<g id="a_node24"><a xlink:title="bevy_ui::widget::text::text_system">
<polygon fill="#ffb1e5" stroke="#ff4bc2" points="1240.5,-367 1151.5,-367 1151.5,-331 1240.5,-331 1240.5,-367"/>
<text text-anchor="middle" x="1196" y="-345.3" font-family="Helvetica,sans-Serif" font-size="14.00" fill="#320021">text_system</text>
</a>
</g>
</g>
<!-- node_System(101)&#45;&gt;set_marker_node_Set(122) -->
<g id="edge17" class="edge">
<title>node_System(101)&#45;&gt;set_marker_node_Set(122)</title>
<g id="a_edge17"><a xlink:title="text_system → Flex">
<path fill="none" stroke="#0090cc" stroke-width="2" d="M1240.89,-346.84C1268.56,-345.48 1305.17,-343.68 1338.11,-342.06"/>
<polygon fill="#0090cc" stroke="#0090cc" stroke-width="2" points="1338.19,-345.41 1348,-341.42 1337.84,-338.42 1338.19,-345.41"/>
</a>
</g>
</g>
<!-- node_System(106) -->
<g id="node25" class="node">
<title>node_System(106)</title>
<g id="a_node25"><a xlink:title="bevy_ui::widget::image::update_image_calculated_size_system">
<polygon fill="#ffb1e5" stroke="#ff4bc2" points="1322,-320 1070,-320 1070,-284 1322,-284 1322,-320"/>
<text text-anchor="middle" x="1196" y="-298.3" font-family="Helvetica,sans-Serif" font-size="14.00" fill="#320021">update_image_calculated_size_system</text>
</a>
</g>
</g>
<!-- node_System(106)&#45;&gt;set_marker_node_Set(122) -->
<g id="edge18" class="edge">
<title>node_System(106)&#45;&gt;set_marker_node_Set(122)</title>
<g id="a_edge18"><a xlink:title="update_image_calculated_size_system → Flex">
<path fill="none" stroke="#ee9e44" stroke-width="2" d="M1295.69,-320.5C1304.59,-322.3 1313.47,-324.15 1322,-326 1329.49,-327.62 1333.63,-329.03 1338.33,-330.32"/>
<polygon fill="#ee9e44" stroke="#ee9e44" stroke-width="2" points="1338.49,-334.35 1349,-333 1339.94,-327.5 1338.49,-334.35"/>
</a>
</g>
</g>
<!-- set_marker_node_Set(12)&#45;&gt;set_marker_node_Set(6) -->
<g id="edge11" class="edge">
<title>set_marker_node_Set(12)&#45;&gt;set_marker_node_Set(6)</title>
<g id="a_edge11"><a xlink:title="Last → LastFlush">
<path fill="none" stroke="#99d955" stroke-width="2" d="M1603,-202C1628.91,-202 1673.83,-202 1708.74,-202"/>
<polygon fill="#99d955" stroke="#99d955" stroke-width="2" points="1708.5,-205.5 1718.5,-202 1708.5,-198.5 1708.5,-205.5"/>
</a>
</g>
</g>
<!-- set_marker_node_Set(59)&#45;&gt;set_marker_node_Set(8) -->
<g id="edge12" class="edge">
<title>set_marker_node_Set(59)&#45;&gt;set_marker_node_Set(8)</title>
<g id="a_edge12"><a xlink:title="LoadAssets → PreUpdate">
<path fill="none" stroke="#eede00" stroke-width="2" d="M156,-303.27C163.94,-305.17 172.26,-307.16 180.27,-309.07"/>
<polygon fill="#eede00" stroke="#eede00" stroke-width="2" points="179.99,-313.08 190.52,-312 181.61,-306.27 179.99,-313.08"/>
</a>
</g>
</g>
<!-- set_marker_node_Set(60)&#45;&gt;set_marker_node_Set(12) -->
<g id="edge15" class="edge">
<title>set_marker_node_Set(60)&#45;&gt;set_marker_node_Set(12)</title>
<g id="a_edge15"><a xlink:title="AssetEvents → Last">
<path fill="none" stroke="#aa3a55" stroke-width="2" d="M1467.5,-185.57C1492.98,-189.29 1524.28,-193.86 1547.39,-197.24"/>
<polygon fill="#aa3a55" stroke="#aa3a55" stroke-width="2" points="1547.6,-201.1 1558,-199.08 1548.61,-194.17 1547.6,-201.1"/>
</a>
</g>
</g>
</g>
</svg>
