<?xml version="1.0" encoding="UTF-8" standalone="no"?>
<!DOCTYPE svg PUBLIC "-//W3C//DTD SVG 1.1//EN"
 "http://www.w3.org/Graphics/SVG/1.1/DTD/svg11.dtd">
<!-- Generated by graphviz version 7.1.0 (0)
 -->
<!-- Pages: 1 -->
<svg width="1413pt" height="249pt"
 viewBox="0.00 0.00 1413.00 249.00" xmlns="http://www.w3.org/2000/svg" xmlns:xlink="http://www.w3.org/1999/xlink">
<g id="graph0" class="graph" transform="scale(1 1) rotate(0) translate(4 245)">
<polygon fill="#0d1117" stroke="none" points="-4,4 -4,-245 1409,-245 1409,4 -4,4"/>
<g id="clust1" class="cluster">
<title>clusternode_Set(0)</title>
<g id="a_clust1"><a xlink:title="Update">
<polygon fill="#6f90ad" stroke="black" points="691,-37 691,-76 756,-76 756,-37 691,-37"/>
<text text-anchor="middle" x="723.5" y="-60.8" font-family="Helvetica,sans-Serif" font-size="14.00">Update</text>
</a>
</g>
</g>
<g id="clust2" class="cluster">
<title>clusternode_Set(2)</title>
<g id="a_clust2"><a xlink:title="FirstFlush">
<polygon fill="#6f90ad" stroke="black" points="70,-55 70,-94 152,-94 152,-55 70,-55"/>
<text text-anchor="middle" x="111" y="-78.8" font-family="Helvetica,sans-Serif" font-size="14.00">FirstFlush</text>
</a>
</g>
</g>
<g id="clust3" class="cluster">
<title>clusternode_Set(3)</title>
<g id="a_clust3"><a xlink:title="PreUpdateFlush">
<polygon fill="#6f90ad" stroke="black" points="284,-37 284,-76 407,-76 407,-37 284,-37"/>
<text text-anchor="middle" x="345.5" y="-60.8" font-family="Helvetica,sans-Serif" font-size="14.00">PreUpdateFlush</text>
</a>
</g>
</g>
<g id="clust4" class="cluster">
<title>clusternode_Set(4)</title>
<g id="a_clust4"><a xlink:title="UpdateFlush">
<polygon fill="#6f90ad" stroke="black" points="776,-37 776,-76 877,-76 877,-37 776,-37"/>
<text text-anchor="middle" x="826.5" y="-60.8" font-family="Helvetica,sans-Serif" font-size="14.00">UpdateFlush</text>
</a>
</g>
</g>
<g id="clust5" class="cluster">
<title>clusternode_Set(5)</title>
<g id="a_clust5"><a xlink:title="PostUpdateFlush">
<polygon fill="#6f90ad" stroke="black" points="1112,-66 1112,-105 1241,-105 1241,-66 1112,-66"/>
<text text-anchor="middle" x="1176.5" y="-89.8" font-family="Helvetica,sans-Serif" font-size="14.00">PostUpdateFlush</text>
</a>
</g>
</g>
<g id="clust6" class="cluster">
<title>clusternode_Set(6)</title>
<g id="a_clust6"><a xlink:title="LastFlush">
<polygon fill="#6f90ad" stroke="black" points="1325,-31 1325,-70 1405,-70 1405,-31 1325,-31"/>
<text text-anchor="middle" x="1365" y="-54.8" font-family="Helvetica,sans-Serif" font-size="14.00">LastFlush</text>
</a>
</g>
</g>
<g id="clust7" class="cluster">
<title>clusternode_Set(7)</title>
<g id="a_clust7"><a xlink:title="First">
<polygon fill="#6f90ad" stroke="black" points="0,-31 0,-70 46,-70 46,-31 0,-31"/>
<text text-anchor="middle" x="23" y="-54.8" font-family="Helvetica,sans-Serif" font-size="14.00">First</text>
</a>
</g>
</g>
<g id="clust8" class="cluster">
<title>clusternode_Set(8)</title>
<g id="a_clust8"><a xlink:title="PreUpdate">
<polygon fill="#6f90ad" stroke="black" points="177,-37 177,-76 264,-76 264,-37 177,-37"/>
<text text-anchor="middle" x="220.5" y="-60.8" font-family="Helvetica,sans-Serif" font-size="14.00">PreUpdate</text>
</a>
</g>
</g>
<g id="clust9" class="cluster">
<title>clusternode_Set(9)</title>
<g id="a_clust9"><a xlink:title="StateTransitions">
<polygon fill="#6f90ad" stroke="black" points="427,-37 427,-76 551,-76 551,-37 427,-37"/>
<text text-anchor="middle" x="489" y="-60.8" font-family="Helvetica,sans-Serif" font-size="14.00">StateTransitions</text>
</a>
</g>
</g>
<g id="clust10" class="cluster">
<title>clusternode_Set(10)</title>
<g id="a_clust10"><a xlink:title="FixedUpdate">
<polygon fill="#6f90ad" stroke="black" points="571,-37 571,-76 671,-76 671,-37 571,-37"/>
<text text-anchor="middle" x="621" y="-60.8" font-family="Helvetica,sans-Serif" font-size="14.00">FixedUpdate</text>
</a>
</g>
</g>
<g id="clust11" class="cluster">
<title>clusternode_Set(11)</title>
<g id="a_clust11"><a xlink:title="PostUpdate">
<polygon fill="#6f90ad" stroke="black" points="889,-37 889,-233 1100,-233 1100,-37 889,-37"/>
<text text-anchor="middle" x="994.5" y="-217.8" font-family="Helvetica,sans-Serif" font-size="14.00">PostUpdate</text>
</a>
</g>
</g>
<g id="clust12" class="cluster">
<title>clusternode_Set(20)</title>
<g id="a_clust12"><a xlink:title="TransformPropagate">
<polygon fill="#6f90ad" stroke="black" points="897,-55 897,-202 1092,-202 1092,-55 897,-55"/>
<text text-anchor="middle" x="994.5" y="-186.8" font-family="Helvetica,sans-Serif" font-size="14.00">TransformPropagate</text>
</a>
</g>
</g>
<g id="clust13" class="cluster">
<title>clusternode_Set(12)</title>
<g id="a_clust13"><a xlink:title="Last">
<polygon fill="#6f90ad" stroke="black" points="1261,-31 1261,-70 1305,-70 1305,-31 1261,-31"/>
<text text-anchor="middle" x="1283" y="-54.8" font-family="Helvetica,sans-Serif" font-size="14.00">Last</text>
</a>
</g>
</g>
<g id="clust14" class="cluster">
<title>clusternode_Set(58)</title>
<g id="a_clust14"><a xlink:title="LoadAssets">
<polygon fill="#6f90ad" stroke="black" points="66,-8 66,-47 157,-47 157,-8 66,-8"/>
<text text-anchor="middle" x="111.5" y="-31.8" font-family="Helvetica,sans-Serif" font-size="14.00">LoadAssets</text>
</a>
</g>
</g>
<g id="clust15" class="cluster">
<title>clusternode_Set(59)</title>
<g id="a_clust15"><a xlink:title="AssetEvents">
<polygon fill="#6f90ad" stroke="black" points="1128,-19 1128,-58 1224,-58 1224,-19 1128,-19"/>
<text text-anchor="middle" x="1176" y="-42.8" font-family="Helvetica,sans-Serif" font-size="14.00">AssetEvents</text>
</a>
</g>
</g>
<!-- set_marker_node_Set(0) -->
<!-- set_marker_node_Set(4) -->
<!-- set_marker_node_Set(0)&#45;&gt;set_marker_node_Set(4) -->
<g id="edge7" class="edge">
<title>set_marker_node_Set(0)&#45;&gt;set_marker_node_Set(4)</title>
<g id="a_edge7"><a xlink:title="Update → UpdateFlush">
<path fill="none" stroke="#ee9e44" stroke-width="2" d="M756,-45C758.35,-45 760.77,-45 763.22,-45"/>
<polygon fill="#ee9e44" stroke="#ee9e44" stroke-width="2" points="762.97,-48.5 772.97,-45 762.97,-41.5 762.97,-48.5"/>
</a>
</g>
</g>
<!-- set_marker_node_Set(2) -->
<!-- set_marker_node_Set(8) -->
<!-- set_marker_node_Set(2)&#45;&gt;set_marker_node_Set(8) -->
<g id="edge2" class="edge">
<title>set_marker_node_Set(2)&#45;&gt;set_marker_node_Set(8)</title>
<g id="a_edge2"><a xlink:title="FirstFlush → PreUpdate">
<path fill="none" stroke="#881877" stroke-width="2" d="M152,-56.27C155.98,-55.6 160.07,-54.91 164.17,-54.22"/>
<polygon fill="#881877" stroke="#881877" stroke-width="2" points="164.74,-57.68 174.02,-52.57 163.58,-50.77 164.74,-57.68"/>
</a>
</g>
</g>
<!-- set_marker_node_Set(3) -->
<!-- set_marker_node_Set(9) -->
<!-- set_marker_node_Set(3)&#45;&gt;set_marker_node_Set(9) -->
<g id="edge4" class="edge">
<title>set_marker_node_Set(3)&#45;&gt;set_marker_node_Set(9)</title>
<g id="a_edge4"><a xlink:title="PreUpdateFlush → StateTransitions">
<path fill="none" stroke="#aa3a55" stroke-width="2" d="M407,-45C409.39,-45 411.8,-45 414.21,-45"/>
<polygon fill="#aa3a55" stroke="#aa3a55" stroke-width="2" points="413.98,-48.5 423.98,-45 413.98,-41.5 413.98,-48.5"/>
</a>
</g>
</g>
<!-- set_marker_node_Set(11) -->
<!-- set_marker_node_Set(4)&#45;&gt;set_marker_node_Set(11) -->
<g id="edge8" class="edge">
<title>set_marker_node_Set(4)&#45;&gt;set_marker_node_Set(11)</title>
<g id="a_edge8"><a xlink:title="UpdateFlush → PostUpdate">
<path fill="none" stroke="#663699" stroke-width="2" d="M877,-45C880,-45 883,-45 886,-45"/>
<polygon fill="#663699" stroke="#663699" stroke-width="2" points="875.98,-48.5 885.98,-45 875.98,-41.5 875.98,-48.5"/>
</a>
</g>
</g>
<!-- set_marker_node_Set(5) -->
<!-- set_marker_node_Set(12) -->
<!-- set_marker_node_Set(5)&#45;&gt;set_marker_node_Set(12) -->
<g id="edge10" class="edge">
<title>set_marker_node_Set(5)&#45;&gt;set_marker_node_Set(12)</title>
<g id="a_edge10"><a xlink:title="PostUpdateFlush → Last">
<path fill="none" stroke="#22c2bb" stroke-width="2" d="M1228.03,-66C1232.46,-64.84 1236.84,-63.51 1241,-62 1243.86,-60.96 1246.76,-59.74 1249.62,-58.4"/>
<polygon fill="#22c2bb" stroke="#22c2bb" stroke-width="2" points="1251.05,-61.61 1258.32,-53.9 1247.83,-55.39 1251.05,-61.61"/>
</a>
</g>
</g>
<!-- set_marker_node_Set(6) -->
<!-- set_marker_node_Set(7) -->
<!-- set_marker_node_Set(7)&#45;&gt;set_marker_node_Set(2) -->
<g id="edge1" class="edge">
<title>set_marker_node_Set(7)&#45;&gt;set_marker_node_Set(2)</title>
<g id="a_edge1"><a xlink:title="First → FirstFlush">
<path fill="none" stroke="#eede00" stroke-width="2" d="M46,-45.34C52.44,-47.18 59.5,-49.18 66,-51 66.73,-51.2 67.47,-51.41 68.21,-51.62"/>
<polygon fill="#eede00" stroke="#eede00" stroke-width="2" points="67,-54.91 77.57,-54.2 68.86,-48.17 67,-54.91"/>
</a>
</g>
</g>
<!-- set_marker_node_Set(58) -->
<!-- set_marker_node_Set(7)&#45;&gt;set_marker_node_Set(58) -->
<g id="edge13" class="edge">
<title>set_marker_node_Set(7)&#45;&gt;set_marker_node_Set(58)</title>
<g id="a_edge13"><a xlink:title="First → LoadAssets">
<path fill="none" stroke="#881877" stroke-width="2" d="M46,-33.12C48.46,-32.46 51.05,-31.77 53.71,-31.05"/>
<polygon fill="#881877" stroke="#881877" stroke-width="2" points="54.32,-34.51 63.08,-28.55 52.51,-27.75 54.32,-34.51"/>
</a>
</g>
</g>
<!-- set_marker_node_Set(8)&#45;&gt;set_marker_node_Set(3) -->
<g id="edge3" class="edge">
<title>set_marker_node_Set(8)&#45;&gt;set_marker_node_Set(3)</title>
<g id="a_edge3"><a xlink:title="PreUpdate → PreUpdateFlush">
<path fill="none" stroke="#00b0cc" stroke-width="2" d="M264,-45C266.39,-45 268.82,-45 271.28,-45"/>
<polygon fill="#00b0cc" stroke="#00b0cc" stroke-width="2" points="270.98,-48.5 280.98,-45 270.98,-41.5 270.98,-48.5"/>
</a>
</g>
</g>
<!-- set_marker_node_Set(10) -->
<!-- set_marker_node_Set(9)&#45;&gt;set_marker_node_Set(10) -->
<g id="edge5" class="edge">
<title>set_marker_node_Set(9)&#45;&gt;set_marker_node_Set(10)</title>
<g id="a_edge5"><a xlink:title="StateTransitions → FixedUpdate">
<path fill="none" stroke="#44d488" stroke-width="2" d="M551,-45C553.39,-45 555.79,-45 558.19,-45"/>
<polygon fill="#44d488" stroke="#44d488" stroke-width="2" points="557.98,-48.5 567.98,-45 557.98,-41.5 557.98,-48.5"/>
</a>
</g>
</g>
<!-- set_marker_node_Set(10)&#45;&gt;set_marker_node_Set(0) -->
<g id="edge6" class="edge">
<title>set_marker_node_Set(10)&#45;&gt;set_marker_node_Set(0)</title>
<g id="a_edge6"><a xlink:title="FixedUpdate → Update">
<path fill="none" stroke="#0090cc" stroke-width="2" d="M671,-45C673.37,-45 675.75,-45 678.11,-45"/>
<polygon fill="#0090cc" stroke="#0090cc" stroke-width="2" points="677.98,-48.5 687.98,-45 677.98,-41.5 677.98,-48.5"/>
</a>
</g>
</g>
<!-- set_marker_node_Set(11)&#45;&gt;set_marker_node_Set(5) -->
<g id="edge9" class="edge">
<title>set_marker_node_Set(11)&#45;&gt;set_marker_node_Set(5)</title>
<g id="a_edge9"><a xlink:title="PostUpdate → PostUpdateFlush">
<path fill="none" stroke="#3363bb" stroke-width="2" d="M1100,-51C1104.48,-52.89 1105.44,-55.74 1110.43,-59.61"/>
<polygon fill="#3363bb" stroke="#3363bb" stroke-width="2" points="1108.47,-62.52 1118.88,-64.49 1111.97,-56.46 1108.47,-62.52"/>
</a>
</g>
</g>
<!-- set_marker_node_Set(59) -->
<!-- set_marker_node_Set(11)&#45;&gt;set_marker_node_Set(59) -->
<g id="edge14" class="edge">
<title>set_marker_node_Set(11)&#45;&gt;set_marker_node_Set(59)</title>
<g id="a_edge14"><a xlink:title="PostUpdate → AssetEvents">
<path fill="none" stroke="#00b0cc" stroke-width="2" d="M1075.24,-37C1088.63,-35.66 1102.32,-34.29 1115.1,-33.01"/>
<polygon fill="#00b0cc" stroke="#00b0cc" stroke-width="2" points="1115.39,-36.5 1124.99,-32.01 1114.69,-29.53 1115.39,-36.5"/>
</a>
</g>
</g>
<!-- set_marker_node_Set(20) -->
<!-- node_System(11) -->
<g id="node13" class="node">
<title>node_System(11)</title>
<g id="a_node13"><a xlink:title="bevy_transform::systems::sync_simple_transforms">
<polygon fill="#eff1f3" stroke="#eff1f3" points="1084,-153 905,-153 905,-117 1084,-117 1084,-153"/>
<text text-anchor="middle" x="994.5" y="-131.3" font-family="Times,serif" font-size="14.00">sync_simple_transforms</text>
</a>
</g>
</g>
<!-- node_System(12) -->
<g id="node14" class="node">
<title>node_System(12)</title>
<g id="a_node14"><a xlink:title="bevy_transform::systems::propagate_transforms">
<polygon fill="#eff1f3" stroke="#eff1f3" points="1077.5,-99 911.5,-99 911.5,-63 1077.5,-63 1077.5,-99"/>
<text text-anchor="middle" x="994.5" y="-77.3" font-family="Times,serif" font-size="14.00">propagate_transforms</text>
</a>
</g>
</g>
<!-- set_marker_node_Set(12)&#45;&gt;set_marker_node_Set(6) -->
<g id="edge11" class="edge">
<title>set_marker_node_Set(12)&#45;&gt;set_marker_node_Set(6)</title>
<g id="a_edge11"><a xlink:title="Last → LastFlush">
<path fill="none" stroke="#99d955" stroke-width="2" d="M1305,-39C1307.31,-39 1309.74,-39 1312.23,-39"/>
<polygon fill="#99d955" stroke="#99d955" stroke-width="2" points="1311.98,-42.5 1321.98,-39 1311.98,-35.5 1311.98,-42.5"/>
</a>
</g>
</g>
<!-- set_marker_node_Set(58)&#45;&gt;set_marker_node_Set(8) -->
<g id="edge12" class="edge">
<title>set_marker_node_Set(58)&#45;&gt;set_marker_node_Set(8)</title>
<g id="a_edge12"><a xlink:title="LoadAssets → PreUpdate">
<path fill="none" stroke="#eede00" stroke-width="2" d="M157,-28.2C163.62,-29.99 170.43,-31.83 176.99,-33.61"/>
<polygon fill="#eede00" stroke="#eede00" stroke-width="2" points="176.01,-36.97 186.57,-36.21 177.84,-30.22 176.01,-36.97"/>
</a>
</g>
</g>
<!-- set_marker_node_Set(59)&#45;&gt;set_marker_node_Set(12) -->
<g id="edge15" class="edge">
<title>set_marker_node_Set(59)&#45;&gt;set_marker_node_Set(12)</title>
<g id="a_edge15"><a xlink:title="AssetEvents → Last">
<path fill="none" stroke="#aa3a55" stroke-width="2" d="M1224,-32.37C1232.11,-33.3 1240.4,-34.25 1248.08,-35.12"/>
<polygon fill="#aa3a55" stroke="#aa3a55" stroke-width="2" points="1247.66,-38.6 1258,-36.26 1248.46,-31.64 1247.66,-38.6"/>
</a>
</g>
</g>
</g>
</svg>
